<?xml version="1.0" encoding="UTF-8" standalone="no"?>
<!DOCTYPE svg PUBLIC "-//W3C//DTD SVG 1.1//EN"
 "http://www.w3.org/Graphics/SVG/1.1/DTD/svg11.dtd">
<!-- Generated by graphviz version 2.43.0 (0)
 -->
<!-- Title: %3 Pages: 1 -->
<svg width="1438pt" height="548pt"
 viewBox="0.00 0.00 1437.50 548.00" xmlns="http://www.w3.org/2000/svg" xmlns:xlink="http://www.w3.org/1999/xlink">
<g id="graph0" class="graph" transform="scale(1 1) rotate(0) translate(4 544)">
<title>%3</title>
<polygon fill="transparent" stroke="transparent" points="-4,4 -4,-544 1433.5,-544 1433.5,4 -4,4"/>
<!-- 24 -->
<g id="node1" class="node">
<title>24</title>
<g id="a_node1"><a xlink:title="SpinLock">
<polygon fill="#ffffff" stroke="black" points="709.5,-324 627.5,-324 627.5,-288 709.5,-288 709.5,-324"/>
<text text-anchor="middle" x="668.5" y="-302.3" font-family="Times,serif" font-size="14.00">SpinLock</text>
</a>
</g>
</g>
<!-- 13 -->
<g id="node2" class="node">
<title>13</title>
<g id="a_node2"><a xlink:title="ResourceType">
<polygon fill="#ffffff" stroke="black" points="441,-180 324,-180 324,-144 441,-144 441,-180"/>
<text text-anchor="middle" x="382.5" y="-158.3" font-family="Times,serif" font-size="14.00">ResourceType</text>
</a>
</g>
</g>
<!-- 7 -->
<g id="node4" class="node">
<title>7</title>
<g id="a_node4"><a xlink:title="ListHead">
<polygon fill="#ffffff" stroke="black" points="359,-36 278,-36 278,0 359,0 359,-36"/>
<text text-anchor="middle" x="318.5" y="-14.3" font-family="Times,serif" font-size="14.00">ListHead</text>
</a>
</g>
</g>
<!-- 13&#45;&gt;7 -->
<g id="edge3" class="edge">
<title>13&#45;&gt;7</title>
<g id="a_edge3"><a xlink:title="usage">
<path fill="none" stroke="#1414ce" d="M382.19,-143.73C381.23,-125.13 377.86,-95.11 366.5,-72 361.38,-61.59 353.61,-51.73 345.8,-43.39"/>
<polygon fill="#1414ce" stroke="#1414ce" points="348.21,-40.85 338.69,-36.19 343.23,-45.76 348.21,-40.85"/>
</a>
</g>
</g>
<!-- 12 -->
<g id="node7" class="node">
<title>12</title>
<g id="a_node7"><a xlink:title="GlobalContext">
<polygon fill="#ffffff" stroke="black" points="659,-396 540,-396 540,-360 659,-360 659,-396"/>
<text text-anchor="middle" x="599.5" y="-374.3" font-family="Times,serif" font-size="14.00">GlobalContext</text>
</a>
</g>
</g>
<!-- 13&#45;&gt;12 -->
<g id="edge2" class="edge">
<title>13&#45;&gt;12</title>
<g id="a_edge2"><a xlink:title="usage">
<path fill="none" stroke="#1414ce" d="M379.55,-180.26C369.51,-212.37 346.01,-281.87 379.5,-324 398.4,-347.77 472.71,-361.81 529.85,-369.41"/>
<polygon fill="#1414ce" stroke="#1414ce" points="529.58,-372.9 539.94,-370.71 530.47,-365.96 529.58,-372.9"/>
</a>
</g>
</g>
<!-- 14 -->
<g id="node23" class="node">
<title>14</title>
<g id="a_node23"><a xlink:title="SyncList">
<polygon fill="#ffffff" stroke="black" points="357.5,-108 279.5,-108 279.5,-72 357.5,-72 357.5,-108"/>
<text text-anchor="middle" x="318.5" y="-86.3" font-family="Times,serif" font-size="14.00">SyncList</text>
</a>
</g>
</g>
<!-- 13&#45;&gt;14 -->
<g id="edge1" class="edge">
<title>13&#45;&gt;14</title>
<g id="a_edge1"><a xlink:title="usage">
<path fill="none" stroke="#1414ce" d="M366.68,-143.7C358.93,-135.22 349.46,-124.86 340.98,-115.58"/>
<polygon fill="#1414ce" stroke="#1414ce" points="343.47,-113.12 334.14,-108.1 338.3,-117.85 343.47,-113.12"/>
</a>
</g>
</g>
<!-- 8 -->
<g id="node3" class="node">
<title>8</title>
<g id="a_node3"><a xlink:title="Module">
<polygon fill="#ffffff" stroke="black" points="1190.5,-324 1120.5,-324 1120.5,-288 1190.5,-288 1190.5,-324"/>
<text text-anchor="middle" x="1155.5" y="-302.3" font-family="Times,serif" font-size="14.00">Module</text>
</a>
</g>
</g>
<!-- 9 -->
<g id="node11" class="node">
<title>9</title>
<g id="a_node11"><a xlink:title="LiteralEntry">
<polygon fill="#ffffff" stroke="black" points="1227.5,-252 1123.5,-252 1123.5,-216 1227.5,-216 1227.5,-252"/>
<text text-anchor="middle" x="1175.5" y="-230.3" font-family="Times,serif" font-size="14.00">LiteralEntry</text>
</a>
</g>
</g>
<!-- 8&#45;&gt;9 -->
<g id="edge5" class="edge">
<title>8&#45;&gt;9</title>
<g id="a_edge5"><a xlink:title="usage">
<path fill="none" stroke="#1414ce" d="M1160.44,-287.7C1162.67,-279.9 1165.35,-270.51 1167.83,-261.83"/>
<polygon fill="#1414ce" stroke="#1414ce" points="1171.23,-262.68 1170.61,-252.1 1164.5,-260.76 1171.23,-262.68"/>
</a>
</g>
</g>
<!-- 2 -->
<g id="node21" class="node">
<title>2</title>
<g id="a_node21"><a xlink:title="ExportedFunction">
<polygon fill="#ffffff" stroke="black" points="1429.5,-252 1283.5,-252 1283.5,-216 1429.5,-216 1429.5,-252"/>
<text text-anchor="middle" x="1356.5" y="-230.3" font-family="Times,serif" font-size="14.00">ExportedFunction</text>
</a>
</g>
</g>
<!-- 8&#45;&gt;2 -->
<g id="edge4" class="edge">
<title>8&#45;&gt;2</title>
<g id="a_edge4"><a xlink:title="usage">
<path fill="none" stroke="#1414ce" d="M1190.51,-292.81C1220.12,-282.5 1263.16,-267.51 1298,-255.37"/>
<polygon fill="#1414ce" stroke="#1414ce" points="1299.29,-258.63 1307.59,-252.03 1296.99,-252.02 1299.29,-258.63"/>
</a>
</g>
</g>
<!-- 7&#45;&gt;7 -->
<g id="edge6" class="edge">
<title>7&#45;&gt;7</title>
<g id="a_edge6"><a xlink:title="usage">
<path fill="none" stroke="#1414ce" d="M359.23,-31.31C369.4,-30.38 377,-25.95 377,-18 377,-12.91 373.88,-9.26 368.97,-7.05"/>
<polygon fill="#1414ce" stroke="#1414ce" points="369.78,-3.64 359.23,-4.69 368.13,-10.45 369.78,-3.64"/>
</a>
</g>
</g>
<!-- 11 -->
<g id="node5" class="node">
<title>11</title>
<g id="a_node5"><a xlink:title="HeapFragment">
<polygon fill="#ffffff" stroke="black" points="1082,-36 957,-36 957,0 1082,0 1082,-36"/>
<text text-anchor="middle" x="1019.5" y="-14.3" font-family="Times,serif" font-size="14.00">HeapFragment</text>
</a>
</g>
</g>
<!-- 11&#45;&gt;11 -->
<g id="edge7" class="edge">
<title>11&#45;&gt;11</title>
<g id="a_edge7"><a xlink:title="usage">
<path fill="none" stroke="#1414ce" d="M1082.28,-30.55C1092.76,-28.79 1100,-24.61 1100,-18 1100,-13.77 1097.03,-10.53 1092.14,-8.29"/>
<polygon fill="#1414ce" stroke="#1414ce" points="1092.86,-4.85 1082.28,-5.45 1090.92,-11.58 1092.86,-4.85"/>
</a>
</g>
</g>
<!-- 20 -->
<g id="node6" class="node">
<title>20</title>
<g id="a_node6"><a xlink:title="RefcBinaryQueueItem">
<polygon fill="#ffffff" stroke="black" points="553.5,-324 379.5,-324 379.5,-288 553.5,-288 553.5,-324"/>
<text text-anchor="middle" x="466.5" y="-302.3" font-family="Times,serif" font-size="14.00">RefcBinaryQueueItem</text>
</a>
</g>
</g>
<!-- 20&#45;&gt;20 -->
<g id="edge9" class="edge">
<title>20&#45;&gt;20</title>
<g id="a_edge9"><a xlink:title="usage">
<path fill="none" stroke="#1414ce" d="M553.8,-317.68C564.49,-315.59 571.5,-311.7 571.5,-306 571.5,-302.35 568.62,-299.44 563.75,-297.27"/>
<polygon fill="#1414ce" stroke="#1414ce" points="564.38,-293.81 553.8,-294.32 562.39,-300.52 564.38,-293.81"/>
</a>
</g>
</g>
<!-- 21 -->
<g id="node18" class="node">
<title>21</title>
<g id="a_node18"><a xlink:title="RefcBinary">
<polygon fill="#ffffff" stroke="black" points="514,-252 419,-252 419,-216 514,-216 514,-252"/>
<text text-anchor="middle" x="466.5" y="-230.3" font-family="Times,serif" font-size="14.00">RefcBinary</text>
</a>
</g>
</g>
<!-- 20&#45;&gt;21 -->
<g id="edge8" class="edge">
<title>20&#45;&gt;21</title>
<g id="a_edge8"><a xlink:title="usage">
<path fill="none" stroke="#1414ce" d="M466.5,-287.7C466.5,-279.98 466.5,-270.71 466.5,-262.11"/>
<polygon fill="#1414ce" stroke="#1414ce" points="470,-262.1 466.5,-252.1 463,-262.1 470,-262.1"/>
</a>
</g>
</g>
<!-- 12&#45;&gt;24 -->
<g id="edge19" class="edge">
<title>12&#45;&gt;24</title>
<g id="a_edge19"><a xlink:title="usage">
<path fill="none" stroke="#1414ce" d="M616.56,-359.7C625,-351.14 635.32,-340.66 644.54,-331.3"/>
<polygon fill="#1414ce" stroke="#1414ce" points="647.11,-333.68 651.64,-324.1 642.13,-328.77 647.11,-333.68"/>
</a>
</g>
</g>
<!-- 12&#45;&gt;13 -->
<g id="edge10" class="edge">
<title>12&#45;&gt;13</title>
<g id="a_edge10"><a xlink:title="usage">
<path fill="none" stroke="#1414ce" d="M540,-372.24C476.71,-365.57 383.05,-351.11 361.5,-324 330.89,-285.49 347.89,-224.12 364.51,-189.33"/>
<polygon fill="#1414ce" stroke="#1414ce" points="367.71,-190.75 369.14,-180.26 361.47,-187.57 367.71,-190.75"/>
</a>
</g>
</g>
<!-- 12&#45;&gt;8 -->
<g id="edge16" class="edge">
<title>12&#45;&gt;8</title>
<g id="a_edge16"><a xlink:title="usage">
<path fill="none" stroke="#1414ce" d="M659.33,-371.33C747.4,-362.71 917.03,-345.06 1060.5,-324 1076.82,-321.6 1094.63,-318.54 1110.38,-315.67"/>
<polygon fill="#1414ce" stroke="#1414ce" points="1111.2,-319.08 1120.4,-313.82 1109.93,-312.19 1111.2,-319.08"/>
</a>
</g>
</g>
<!-- 12&#45;&gt;7 -->
<g id="edge20" class="edge">
<title>12&#45;&gt;7</title>
<g id="a_edge20"><a xlink:title="usage">
<path fill="none" stroke="#1414ce" d="M597.99,-359.95C595.88,-341.54 591.05,-311.67 580.5,-288 532.17,-179.61 513.9,-148.9 423.5,-72 407.27,-58.19 386.82,-46.83 368.29,-38.22"/>
<polygon fill="#1414ce" stroke="#1414ce" points="369.65,-35 359.09,-34.09 366.78,-41.38 369.65,-35"/>
</a>
</g>
</g>
<!-- 12&#45;&gt;20 -->
<g id="edge14" class="edge">
<title>12&#45;&gt;20</title>
<g id="a_edge14"><a xlink:title="usage">
<path fill="none" stroke="#1414ce" d="M566.96,-359.88C549.25,-350.55 527.15,-338.92 508.18,-328.94"/>
<polygon fill="#1414ce" stroke="#1414ce" points="509.64,-325.75 499.16,-324.19 506.38,-331.94 509.64,-325.75"/>
</a>
</g>
</g>
<!-- 15 -->
<g id="node8" class="node">
<title>15</title>
<g id="a_node8"><a xlink:title="Ets">
<polygon fill="#ffffff" stroke="black" points="267.5,-180 213.5,-180 213.5,-144 267.5,-144 267.5,-180"/>
<text text-anchor="middle" x="240.5" y="-158.3" font-family="Times,serif" font-size="14.00">Ets</text>
</a>
</g>
</g>
<!-- 12&#45;&gt;15 -->
<g id="edge11" class="edge">
<title>12&#45;&gt;15</title>
<g id="a_edge11"><a xlink:title="usage">
<path fill="none" stroke="#1414ce" d="M539.83,-374.66C458.37,-370.23 318.28,-357.8 281.5,-324 244.16,-289.68 238.77,-226.57 239.06,-190.39"/>
<polygon fill="#1414ce" stroke="#1414ce" points="242.56,-190.17 239.3,-180.09 235.57,-190.01 242.56,-190.17"/>
</a>
</g>
</g>
<!-- 23 -->
<g id="node10" class="node">
<title>23</title>
<g id="a_node10"><a xlink:title="TimerList">
<polygon fill="#ffffff" stroke="black" points="261.5,-108 175.5,-108 175.5,-72 261.5,-72 261.5,-108"/>
<text text-anchor="middle" x="218.5" y="-86.3" font-family="Times,serif" font-size="14.00">TimerList</text>
</a>
</g>
</g>
<!-- 12&#45;&gt;23 -->
<g id="edge18" class="edge">
<title>12&#45;&gt;23</title>
<g id="a_edge18"><a xlink:title="usage">
<path fill="none" stroke="#1414ce" d="M539.71,-375.29C451.91,-371.58 293.92,-359.96 251.5,-324 188.43,-270.53 193.85,-225.99 204.5,-144 205.6,-135.51 207.66,-126.43 209.87,-118.24"/>
<polygon fill="#1414ce" stroke="#1414ce" points="213.28,-119.02 212.68,-108.44 206.55,-117.09 213.28,-119.02"/>
</a>
</g>
</g>
<!-- 16 -->
<g id="node16" class="node">
<title>16</title>
<g id="a_node16"><a xlink:title="MessageQueueItem">
<polygon fill="#ffffff" stroke="black" points="1033.5,-324 875.5,-324 875.5,-288 1033.5,-288 1033.5,-324"/>
<text text-anchor="middle" x="954.5" y="-302.3" font-family="Times,serif" font-size="14.00">MessageQueueItem</text>
</a>
</g>
</g>
<!-- 12&#45;&gt;16 -->
<g id="edge12" class="edge">
<title>12&#45;&gt;16</title>
<g id="a_edge12"><a xlink:title="usage">
<path fill="none" stroke="#1414ce" d="M659.32,-365.2C715.68,-354.09 800.86,-337.29 865.25,-324.6"/>
<polygon fill="#1414ce" stroke="#1414ce" points="866.27,-327.97 875.4,-322.6 864.91,-321.1 866.27,-327.97"/>
</a>
</g>
</g>
<!-- 22 -->
<g id="node17" class="node">
<title>22</title>
<g id="a_node17"><a xlink:title="AtomsHashTable">
<polygon fill="#ffffff" stroke="black" points="932,-252 795,-252 795,-216 932,-216 932,-252"/>
<text text-anchor="middle" x="863.5" y="-230.3" font-family="Times,serif" font-size="14.00">AtomsHashTable</text>
</a>
</g>
</g>
<!-- 12&#45;&gt;22 -->
<g id="edge17" class="edge">
<title>12&#45;&gt;22</title>
<g id="a_edge17"><a xlink:title="usage">
<path fill="none" stroke="#1414ce" d="M659.05,-369.58C718.15,-361.13 803.43,-345.62 828.5,-324 846.62,-308.37 855.43,-282.14 859.67,-262.19"/>
<polygon fill="#1414ce" stroke="#1414ce" points="863.15,-262.61 861.54,-252.14 856.27,-261.33 863.15,-262.61"/>
</a>
</g>
</g>
<!-- 17 -->
<g id="node20" class="node">
<title>17</title>
<g id="a_node20"><a xlink:title="AtomTable">
<polygon fill="#ffffff" stroke="black" points="819.5,-324 727.5,-324 727.5,-288 819.5,-288 819.5,-324"/>
<text text-anchor="middle" x="773.5" y="-302.3" font-family="Times,serif" font-size="14.00">AtomTable</text>
</a>
</g>
</g>
<!-- 12&#45;&gt;17 -->
<g id="edge13" class="edge">
<title>12&#45;&gt;17</title>
<g id="a_edge13"><a xlink:title="usage">
<path fill="none" stroke="#1414ce" d="M642.07,-359.88C666.06,-350.22 696.23,-338.09 721.6,-327.88"/>
<polygon fill="#1414ce" stroke="#1414ce" points="723.1,-331.05 731.07,-324.07 720.49,-324.55 723.1,-331.05"/>
</a>
</g>
</g>
<!-- 12&#45;&gt;14 -->
<g id="edge15" class="edge">
<title>12&#45;&gt;14</title>
<g id="a_edge15"><a xlink:title="usage">
<path fill="none" stroke="#1414ce" d="M539.74,-371.56C474.87,-364.44 376.97,-349.72 350.5,-324 294.69,-269.77 304.24,-167.15 312.77,-118.24"/>
<polygon fill="#1414ce" stroke="#1414ce" points="316.26,-118.58 314.66,-108.11 309.38,-117.3 316.26,-118.58"/>
</a>
</g>
</g>
<!-- 15&#45;&gt;14 -->
<g id="edge21" class="edge">
<title>15&#45;&gt;14</title>
<g id="a_edge21"><a xlink:title="usage">
<path fill="none" stroke="#1414ce" d="M259.78,-143.7C269.42,-135.05 281.23,-124.45 291.73,-115.03"/>
<polygon fill="#1414ce" stroke="#1414ce" points="294.34,-117.39 299.44,-108.1 289.66,-112.18 294.34,-117.39"/>
</a>
</g>
</g>
<!-- 19 -->
<g id="node9" class="node">
<title>19</title>
<g id="a_node9"><a xlink:title="HNodeGroup">
<polygon fill="#ffffff" stroke="black" points="758.5,-252 648.5,-252 648.5,-216 758.5,-216 758.5,-252"/>
<text text-anchor="middle" x="703.5" y="-230.3" font-family="Times,serif" font-size="14.00">HNodeGroup</text>
</a>
</g>
</g>
<!-- 19&#45;&gt;19 -->
<g id="edge23" class="edge">
<title>19&#45;&gt;19</title>
<g id="a_edge23"><a xlink:title="usage">
<path fill="none" stroke="#1414ce" d="M758.57,-246.85C769.07,-245.32 776.5,-241.03 776.5,-234 776.5,-229.5 773.45,-226.12 768.5,-223.87"/>
<polygon fill="#1414ce" stroke="#1414ce" points="769.14,-220.42 758.57,-221.15 767.29,-227.17 769.14,-220.42"/>
</a>
</g>
</g>
<!-- 18 -->
<g id="node24" class="node">
<title>18</title>
<g id="a_node24"><a xlink:title="HNode">
<polygon fill="#ffffff" stroke="black" points="816.5,-180 750.5,-180 750.5,-144 816.5,-144 816.5,-180"/>
<text text-anchor="middle" x="783.5" y="-158.3" font-family="Times,serif" font-size="14.00">HNode</text>
</a>
</g>
</g>
<!-- 19&#45;&gt;18 -->
<g id="edge22" class="edge">
<title>19&#45;&gt;18</title>
<g id="a_edge22"><a xlink:title="usage">
<path fill="none" stroke="#1414ce" d="M723.28,-215.7C733.25,-206.97 745.51,-196.24 756.36,-186.75"/>
<polygon fill="#1414ce" stroke="#1414ce" points="758.73,-189.32 763.95,-180.1 754.12,-184.06 758.73,-189.32"/>
</a>
</g>
</g>
<!-- 23&#45;&gt;7 -->
<g id="edge24" class="edge">
<title>23&#45;&gt;7</title>
<g id="a_edge24"><a xlink:title="usage">
<path fill="none" stroke="#1414ce" d="M242.96,-71.88C255.8,-62.89 271.7,-51.76 285.59,-42.03"/>
<polygon fill="#1414ce" stroke="#1414ce" points="287.76,-44.79 293.94,-36.19 283.74,-39.06 287.76,-44.79"/>
</a>
</g>
</g>
<!-- 5 -->
<g id="node12" class="node">
<title>5</title>
<g id="a_node12"><a xlink:title="MailboxMessage">
<polygon fill="#ffffff" stroke="black" points="1087,-252 950,-252 950,-216 1087,-216 1087,-252"/>
<text text-anchor="middle" x="1018.5" y="-230.3" font-family="Times,serif" font-size="14.00">MailboxMessage</text>
</a>
</g>
</g>
<!-- 5&#45;&gt;5 -->
<g id="edge25" class="edge">
<title>5&#45;&gt;5</title>
<g id="a_edge25"><a xlink:title="usage">
<path fill="none" stroke="#1414ce" d="M1087.03,-246.37C1097.71,-244.52 1105,-240.4 1105,-234 1105,-229.8 1101.86,-226.58 1096.68,-224.34"/>
<polygon fill="#1414ce" stroke="#1414ce" points="1097.6,-220.96 1087.03,-221.63 1095.71,-227.7 1097.6,-220.96"/>
</a>
</g>
</g>
<!-- 1 -->
<g id="node13" class="node">
<title>1</title>
<g id="a_node13"><a xlink:title="Bif">
<polygon fill="#bfbfbf" stroke="black" points="1205.5,-540 1151.5,-540 1151.5,-504 1205.5,-504 1205.5,-540"/>
<text text-anchor="middle" x="1178.5" y="-518.3" font-family="Times,serif" font-size="14.00">Bif</text>
</a>
</g>
</g>
<!-- 3 -->
<g id="node15" class="node">
<title>3</title>
<g id="a_node15"><a xlink:title="Context">
<polygon fill="#ffffff" stroke="black" points="1116,-468 1043,-468 1043,-432 1116,-432 1116,-468"/>
<text text-anchor="middle" x="1079.5" y="-446.3" font-family="Times,serif" font-size="14.00">Context</text>
</a>
</g>
</g>
<!-- 1&#45;&gt;3 -->
<g id="edge27" class="edge">
<title>1&#45;&gt;3</title>
<g id="a_edge27"><a xlink:title="usage">
<path fill="none" stroke="#1414ce" d="M1154.28,-503.88C1141.58,-494.89 1125.84,-483.76 1112.08,-474.03"/>
<polygon fill="#1414ce" stroke="#1414ce" points="1114,-471.11 1103.81,-468.19 1109.96,-476.82 1114,-471.11"/>
</a>
</g>
</g>
<!-- 1&#45;&gt;2 -->
<g id="edge26" class="edge">
<title>1&#45;&gt;2</title>
<g id="a_edge26"><a xlink:title="usage">
<path fill="none" stroke="#1414ce" d="M1192.23,-503.72C1210.75,-480.06 1244.31,-435.97 1269.5,-396 1298.36,-350.21 1327.34,-294.05 1343.5,-261.62"/>
<polygon fill="#1414ce" stroke="#1414ce" points="1346.79,-262.86 1348.09,-252.35 1340.51,-259.76 1346.79,-262.86"/>
</a>
</g>
</g>
<!-- 10 -->
<g id="node14" class="node">
<title>10</title>
<g id="a_node14"><a xlink:title="Heap">
<polygon fill="#ffffff" stroke="black" points="1046.5,-108 992.5,-108 992.5,-72 1046.5,-72 1046.5,-108"/>
<text text-anchor="middle" x="1019.5" y="-86.3" font-family="Times,serif" font-size="14.00">Heap</text>
</a>
</g>
</g>
<!-- 10&#45;&gt;11 -->
<g id="edge28" class="edge">
<title>10&#45;&gt;11</title>
<g id="a_edge28"><a xlink:title="usage">
<path fill="none" stroke="#1414ce" d="M1019.5,-71.7C1019.5,-63.98 1019.5,-54.71 1019.5,-46.11"/>
<polygon fill="#1414ce" stroke="#1414ce" points="1023,-46.1 1019.5,-36.1 1016,-46.1 1023,-46.1"/>
</a>
</g>
</g>
<!-- 3&#45;&gt;8 -->
<g id="edge32" class="edge">
<title>3&#45;&gt;8</title>
<g id="a_edge32"><a xlink:title="usage">
<path fill="none" stroke="#1414ce" d="M1097.59,-431.72C1106.97,-421.96 1117.99,-409.11 1125.5,-396 1136.66,-376.51 1144.49,-352.23 1149.35,-333.95"/>
<polygon fill="#1414ce" stroke="#1414ce" points="1152.75,-334.78 1151.81,-324.23 1145.97,-333.07 1152.75,-334.78"/>
</a>
</g>
</g>
<!-- 3&#45;&gt;7 -->
<g id="edge35" class="edge">
<title>3&#45;&gt;7</title>
<g id="a_edge35"><a xlink:title="usage">
<path fill="none" stroke="#1414ce" d="M1042.96,-447.36C870.65,-439.17 147.5,-399.27 147.5,-307 147.5,-307 147.5,-307 147.5,-161 147.5,-120.55 139.74,-102.33 166.5,-72 192.05,-43.03 234.31,-29.9 267.8,-23.94"/>
<polygon fill="#1414ce" stroke="#1414ce" points="268.56,-27.36 277.88,-22.31 267.45,-20.45 268.56,-27.36"/>
</a>
</g>
</g>
<!-- 3&#45;&gt;12 -->
<g id="edge34" class="edge">
<title>3&#45;&gt;12</title>
<g id="a_edge34"><a xlink:title="usage">
<path fill="none" stroke="#1414ce" d="M1042.63,-443.62C962.75,-431.97 772.58,-404.24 669.24,-389.17"/>
<polygon fill="#1414ce" stroke="#1414ce" points="669.62,-385.69 659.22,-387.71 668.61,-392.62 669.62,-385.69"/>
</a>
</g>
</g>
<!-- 3&#45;&gt;10 -->
<g id="edge33" class="edge">
<title>3&#45;&gt;10</title>
<g id="a_edge33"><a xlink:title="usage">
<path fill="none" stroke="#1414ce" d="M1116.4,-437.72C1168,-419.39 1255.5,-377.87 1255.5,-307 1255.5,-307 1255.5,-307 1255.5,-233 1255.5,-141.31 1123.11,-107.31 1056.64,-96.02"/>
<polygon fill="#1414ce" stroke="#1414ce" points="1057,-92.53 1046.57,-94.4 1055.89,-99.44 1057,-92.53"/>
</a>
</g>
</g>
<!-- 3&#45;&gt;3 -->
<g id="edge29" class="edge">
<title>3&#45;&gt;3</title>
<g id="a_edge29"><a xlink:title="usage">
<path fill="none" stroke="#1414ce" d="M1116.18,-463.42C1126.28,-462.77 1134,-458.3 1134,-450 1134,-444.81 1130.98,-441.12 1126.26,-438.93"/>
<polygon fill="#1414ce" stroke="#1414ce" points="1126.71,-435.44 1116.18,-436.58 1125.13,-442.26 1126.71,-435.44"/>
</a>
</g>
</g>
<!-- 4 -->
<g id="node19" class="node">
<title>4</title>
<g id="a_node19"><a xlink:title="Mailbox">
<polygon fill="#ffffff" stroke="black" points="1116.5,-396 1042.5,-396 1042.5,-360 1116.5,-360 1116.5,-396"/>
<text text-anchor="middle" x="1079.5" y="-374.3" font-family="Times,serif" font-size="14.00">Mailbox</text>
</a>
</g>
</g>
<!-- 3&#45;&gt;4 -->
<g id="edge30" class="edge">
<title>3&#45;&gt;4</title>
<g id="a_edge30"><a xlink:title="usage">
<path fill="none" stroke="#1414ce" d="M1079.5,-431.7C1079.5,-423.98 1079.5,-414.71 1079.5,-406.11"/>
<polygon fill="#1414ce" stroke="#1414ce" points="1083,-406.1 1079.5,-396.1 1076,-406.1 1083,-406.1"/>
</a>
</g>
</g>
<!-- 6 -->
<g id="node22" class="node">
<title>6</title>
<g id="a_node22"><a xlink:title="TimerListItem">
<polygon fill="#ffffff" stroke="black" points="119,-180 0,-180 0,-144 119,-144 119,-180"/>
<text text-anchor="middle" x="59.5" y="-158.3" font-family="Times,serif" font-size="14.00">TimerListItem</text>
</a>
</g>
</g>
<!-- 3&#45;&gt;6 -->
<g id="edge31" class="edge">
<title>3&#45;&gt;6</title>
<g id="a_edge31"><a xlink:title="usage">
<path fill="none" stroke="#1414ce" d="M1042.82,-449.36C877.48,-450.69 206.37,-452.51 133.5,-396 69.13,-346.08 59.69,-240.06 58.99,-190.11"/>
<polygon fill="#1414ce" stroke="#1414ce" points="62.49,-190.05 58.96,-180.06 55.49,-190.07 62.49,-190.05"/>
</a>
</g>
</g>
<!-- 16&#45;&gt;5 -->
<g id="edge36" class="edge">
<title>16&#45;&gt;5</title>
<g id="a_edge36"><a xlink:title="usage">
<path fill="none" stroke="#1414ce" d="M970.32,-287.7C978.07,-279.22 987.54,-268.86 996.02,-259.58"/>
<polygon fill="#1414ce" stroke="#1414ce" points="998.7,-261.85 1002.86,-252.1 993.53,-257.12 998.7,-261.85"/>
</a>
</g>
</g>
<!-- 16&#45;&gt;16 -->
<g id="edge37" class="edge">
<title>16&#45;&gt;16</title>
<g id="a_edge37"><a xlink:title="usage">
<path fill="none" stroke="#1414ce" d="M1033.66,-317.98C1044.37,-315.97 1051.5,-311.98 1051.5,-306 1051.5,-302.08 1048.43,-299.01 1043.29,-296.8"/>
<polygon fill="#1414ce" stroke="#1414ce" points="1044.24,-293.43 1033.66,-294.02 1042.3,-300.15 1044.24,-293.43"/>
</a>
</g>
</g>
<!-- 22&#45;&gt;18 -->
<g id="edge38" class="edge">
<title>22&#45;&gt;18</title>
<g id="a_edge38"><a xlink:title="usage">
<path fill="none" stroke="#1414ce" d="M843.72,-215.7C833.75,-206.97 821.49,-196.24 810.64,-186.75"/>
<polygon fill="#1414ce" stroke="#1414ce" points="812.88,-184.06 803.05,-180.1 808.27,-189.32 812.88,-184.06"/>
</a>
</g>
</g>
<!-- 21&#45;&gt;13 -->
<g id="edge39" class="edge">
<title>21&#45;&gt;13</title>
<g id="a_edge39"><a xlink:title="usage">
<path fill="none" stroke="#1414ce" d="M445.74,-215.7C435.26,-206.97 422.39,-196.24 411,-186.75"/>
<polygon fill="#1414ce" stroke="#1414ce" points="412.95,-183.82 403.03,-180.1 408.47,-189.19 412.95,-183.82"/>
</a>
</g>
</g>
<!-- 21&#45;&gt;7 -->
<g id="edge40" class="edge">
<title>21&#45;&gt;7</title>
<g id="a_edge40"><a xlink:title="usage">
<path fill="none" stroke="#1414ce" d="M466.18,-215.73C465.22,-197.14 461.84,-167.11 450.5,-144 429.09,-100.36 385.66,-63.98 354.46,-41.93"/>
<polygon fill="#1414ce" stroke="#1414ce" points="356.23,-38.9 346.01,-36.09 352.25,-44.66 356.23,-38.9"/>
</a>
</g>
</g>
<!-- 4&#45;&gt;5 -->
<g id="edge41" class="edge">
<title>4&#45;&gt;5</title>
<g id="a_edge41"><a xlink:title="usage">
<path fill="none" stroke="#1414ce" d="M1078.18,-359.86C1076.23,-341.37 1071.54,-311.44 1060.5,-288 1055.85,-278.12 1049.03,-268.43 1042.24,-260.08"/>
<polygon fill="#1414ce" stroke="#1414ce" points="1044.69,-257.57 1035.54,-252.24 1039.37,-262.11 1044.69,-257.57"/>
</a>
</g>
</g>
<!-- 17&#45;&gt;19 -->
<g id="edge43" class="edge">
<title>17&#45;&gt;19</title>
<g id="a_edge43"><a xlink:title="usage">
<path fill="none" stroke="#1414ce" d="M756.2,-287.7C747.64,-279.14 737.16,-268.66 727.8,-259.3"/>
<polygon fill="#1414ce" stroke="#1414ce" points="730.15,-256.7 720.6,-252.1 725.2,-261.65 730.15,-256.7"/>
</a>
</g>
</g>
<!-- 17&#45;&gt;18 -->
<g id="edge42" class="edge">
<title>17&#45;&gt;18</title>
<g id="a_edge42"><a xlink:title="usage">
<path fill="none" stroke="#1414ce" d="M727.41,-289.63C690.78,-276.96 644.83,-259.84 639.5,-252 630.5,-238.77 630.35,-229.12 639.5,-216 662.08,-183.63 706.76,-170.97 740.4,-166.06"/>
<polygon fill="#1414ce" stroke="#1414ce" points="740.97,-169.51 750.44,-164.77 740.08,-162.57 740.97,-169.51"/>
</a>
</g>
</g>
<!-- 6&#45;&gt;7 -->
<g id="edge44" class="edge">
<title>6&#45;&gt;7</title>
<g id="a_edge44"><a xlink:title="usage">
<path fill="none" stroke="#1414ce" d="M69.26,-143.94C81.65,-123.79 104.89,-90.67 133.5,-72 174.3,-45.38 228.64,-31.89 267.86,-25.21"/>
<polygon fill="#1414ce" stroke="#1414ce" points="268.42,-28.66 277.74,-23.62 267.31,-21.75 268.42,-28.66"/>
</a>
</g>
</g>
<!-- 14&#45;&gt;7 -->
<g id="edge45" class="edge">
<title>14&#45;&gt;7</title>
<g id="a_edge45"><a xlink:title="usage">
<path fill="none" stroke="#1414ce" d="M318.5,-71.7C318.5,-63.98 318.5,-54.71 318.5,-46.11"/>
<polygon fill="#1414ce" stroke="#1414ce" points="322,-46.1 318.5,-36.1 315,-46.1 322,-46.1"/>
</a>
</g>
</g>
<!-- 18&#45;&gt;10 -->
<g id="edge47" class="edge">
<title>18&#45;&gt;10</title>
<g id="a_edge47"><a xlink:title="usage">
<path fill="none" stroke="#1414ce" d="M816.56,-151.19C860.2,-138.25 936.8,-115.53 982.38,-102.01"/>
<polygon fill="#1414ce" stroke="#1414ce" points="983.57,-105.31 992.16,-99.11 981.58,-98.6 983.57,-105.31"/>
</a>
</g>
</g>
<!-- 18&#45;&gt;18 -->
<g id="edge46" class="edge">
<title>18&#45;&gt;18</title>
<g id="a_edge46"><a xlink:title="usage">
<path fill="none" stroke="#1414ce" d="M816.85,-175.47C826.78,-175.07 834.5,-170.58 834.5,-162 834.5,-156.64 831.48,-152.87 826.8,-150.71"/>
<polygon fill="#1414ce" stroke="#1414ce" points="827.37,-147.25 816.85,-148.53 825.87,-154.09 827.37,-147.25"/>
</a>
</g>
</g>
</g>
</svg>
