<?xml version="1.0" encoding="UTF-8" standalone="no"?>
<!DOCTYPE svg PUBLIC "-//W3C//DTD SVG 1.1//EN"
 "http://www.w3.org/Graphics/SVG/1.1/DTD/svg11.dtd">
<!-- Generated by graphviz version 2.43.0 (0)
 -->
<!-- Title: %3 Pages: 1 -->
<svg width="491pt" height="188pt"
 viewBox="0.00 0.00 490.50 188.00" xmlns="http://www.w3.org/2000/svg" xmlns:xlink="http://www.w3.org/1999/xlink">
<g id="graph0" class="graph" transform="scale(1 1) rotate(0) translate(4 184)">
<title>%3</title>
<polygon fill="transparent" stroke="transparent" points="-4,4 -4,-184 486.5,-184 486.5,4 -4,4"/>
<!-- 8 -->
<g id="node1" class="node">
<title>8</title>
<g id="a_node1"><a xlink:title="smp.h">
<polygon fill="#ffffff" stroke="black" points="135.5,-108 75.5,-108 75.5,-72 135.5,-72 135.5,-108"/>
<text text-anchor="middle" x="105.5" y="-86.3" font-family="Times,serif" font-size="14.00">smp.h</text>
</a>
</g>
</g>
<!-- 9 -->
<g id="node5" class="node">
<title>9</title>
<g id="a_node5"><a xlink:title="stdbool.h">
<polygon fill="#ffffff" stroke="black" points="128,-36 45,-36 45,0 128,0 128,-36"/>
<text text-anchor="middle" x="86.5" y="-14.3" font-family="Times,serif" font-size="14.00">stdbool.h</text>
</a>
</g>
</g>
<!-- 8&#45;&gt;9 -->
<g id="edge1" class="edge">
<title>8&#45;&gt;9</title>
<g id="a_edge1"><a xlink:title="include">
<path fill="none" stroke="#1414ce" d="M100.8,-71.7C98.69,-63.9 96.14,-54.51 93.78,-45.83"/>
<polygon fill="#1414ce" stroke="#1414ce" points="97.14,-44.84 91.14,-36.1 90.38,-46.67 97.14,-44.84"/>
</a>
</g>
</g>
<!-- 5 -->
<g id="node2" class="node">
<title>5</title>
<g id="a_node2"><a xlink:title="utils.h">
<polygon fill="#ffffff" stroke="black" points="271.5,-108 209.5,-108 209.5,-72 271.5,-72 271.5,-108"/>
<text text-anchor="middle" x="240.5" y="-86.3" font-family="Times,serif" font-size="14.00">utils.h</text>
</a>
</g>
</g>
<!-- 3 -->
<g id="node6" class="node">
<title>3</title>
<g id="a_node6"><a xlink:title="stddef.h">
<polygon fill="#ffffff" stroke="black" points="392.5,-36 318.5,-36 318.5,0 392.5,0 392.5,-36"/>
<text text-anchor="middle" x="355.5" y="-14.3" font-family="Times,serif" font-size="14.00">stddef.h</text>
</a>
</g>
</g>
<!-- 5&#45;&gt;3 -->
<g id="edge2" class="edge">
<title>5&#45;&gt;3</title>
<g id="a_edge2"><a xlink:title="include">
<path fill="none" stroke="#1414ce" d="M268.63,-71.88C283.67,-62.72 302.37,-51.34 318.56,-41.48"/>
<polygon fill="#1414ce" stroke="#1414ce" points="320.54,-44.38 327.26,-36.19 316.9,-38.4 320.54,-44.38"/>
</a>
</g>
</g>
<!-- 6 -->
<g id="node8" class="node">
<title>6</title>
<g id="a_node8"><a xlink:title="stdio.h">
<polygon fill="#ffffff" stroke="black" points="300,-36 235,-36 235,0 300,0 300,-36"/>
<text text-anchor="middle" x="267.5" y="-14.3" font-family="Times,serif" font-size="14.00">stdio.h</text>
</a>
</g>
</g>
<!-- 5&#45;&gt;6 -->
<g id="edge3" class="edge">
<title>5&#45;&gt;6</title>
<g id="a_edge3"><a xlink:title="include">
<path fill="none" stroke="#1414ce" d="M247.17,-71.7C250.21,-63.81 253.88,-54.3 257.26,-45.55"/>
<polygon fill="#1414ce" stroke="#1414ce" points="260.57,-46.69 260.9,-36.1 254.04,-44.17 260.57,-46.69"/>
</a>
</g>
</g>
<!-- 7 -->
<g id="node9" class="node">
<title>7</title>
<g id="a_node9"><a xlink:title="stdlib.h">
<polygon fill="#ffffff" stroke="black" points="217,-36 146,-36 146,0 217,0 217,-36"/>
<text text-anchor="middle" x="181.5" y="-14.3" font-family="Times,serif" font-size="14.00">stdlib.h</text>
</a>
</g>
</g>
<!-- 5&#45;&gt;7 -->
<g id="edge4" class="edge">
<title>5&#45;&gt;7</title>
<g id="a_edge4"><a xlink:title="include">
<path fill="none" stroke="#1414ce" d="M225.92,-71.7C218.84,-63.3 210.22,-53.07 202.45,-43.86"/>
<polygon fill="#1414ce" stroke="#1414ce" points="205.04,-41.49 195.92,-36.1 199.69,-46.01 205.04,-41.49"/>
</a>
</g>
</g>
<!-- 1 -->
<g id="node3" class="node">
<title>1</title>
<g id="a_node3"><a xlink:title="/__w/AtomVM/AtomVM/src/libAtomVM/valueshashtable.c">
<polygon fill="#bfbfbf" stroke="black" points="421,-180 0,-180 0,-144 421,-144 421,-180"/>
<text text-anchor="middle" x="210.5" y="-158.3" font-family="Times,serif" font-size="14.00">/__w/AtomVM/AtomVM/src/libAtomVM/valueshashtable.c</text>
</a>
</g>
</g>
<!-- 1&#45;&gt;8 -->
<g id="edge8" class="edge">
<title>1&#45;&gt;8</title>
<g id="a_edge8"><a xlink:title="include">
<path fill="none" stroke="#1414ce" d="M184.81,-143.88C171.21,-134.81 154.33,-123.55 139.64,-113.76"/>
<polygon fill="#1414ce" stroke="#1414ce" points="141.55,-110.82 131.28,-108.19 137.66,-116.65 141.55,-110.82"/>
</a>
</g>
</g>
<!-- 1&#45;&gt;5 -->
<g id="edge6" class="edge">
<title>1&#45;&gt;5</title>
<g id="a_edge6"><a xlink:title="include">
<path fill="none" stroke="#1414ce" d="M217.92,-143.7C221.29,-135.81 225.37,-126.3 229.12,-117.55"/>
<polygon fill="#1414ce" stroke="#1414ce" points="232.45,-118.67 233.17,-108.1 226.01,-115.92 232.45,-118.67"/>
</a>
</g>
</g>
<!-- 2 -->
<g id="node4" class="node">
<title>2</title>
<g id="a_node4"><a xlink:title="valueshashtable.h">
<polygon fill="#ffffff" stroke="black" points="435.5,-108 289.5,-108 289.5,-72 435.5,-72 435.5,-108"/>
<text text-anchor="middle" x="362.5" y="-86.3" font-family="Times,serif" font-size="14.00">valueshashtable.h</text>
</a>
</g>
</g>
<!-- 1&#45;&gt;2 -->
<g id="edge5" class="edge">
<title>1&#45;&gt;2</title>
<g id="a_edge5"><a xlink:title="include">
<path fill="none" stroke="#1414ce" d="M247.68,-143.88C268.37,-134.35 294.3,-122.41 316.28,-112.28"/>
<polygon fill="#1414ce" stroke="#1414ce" points="317.82,-115.43 325.44,-108.07 314.89,-109.07 317.82,-115.43"/>
</a>
</g>
</g>
<!-- 1&#45;&gt;7 -->
<g id="edge7" class="edge">
<title>1&#45;&gt;7</title>
<g id="a_edge7"><a xlink:title="include">
<path fill="none" stroke="#1414ce" d="M207,-143.87C202.04,-119.56 192.9,-74.82 187.02,-46.01"/>
<polygon fill="#1414ce" stroke="#1414ce" points="190.44,-45.29 185.01,-36.19 183.58,-46.69 190.44,-45.29"/>
</a>
</g>
</g>
<!-- 2&#45;&gt;3 -->
<g id="edge9" class="edge">
<title>2&#45;&gt;3</title>
<g id="a_edge9"><a xlink:title="include">
<path fill="none" stroke="#1414ce" d="M360.77,-71.7C360,-63.98 359.07,-54.71 358.21,-46.11"/>
<polygon fill="#1414ce" stroke="#1414ce" points="361.69,-45.71 357.21,-36.1 354.72,-46.4 361.69,-45.71"/>
</a>
</g>
</g>
<!-- 4 -->
<g id="node7" class="node">
<title>4</title>
<g id="a_node7"><a xlink:title="stdint.h">
<polygon fill="#ffffff" stroke="black" points="482.5,-36 410.5,-36 410.5,0 482.5,0 482.5,-36"/>
<text text-anchor="middle" x="446.5" y="-14.3" font-family="Times,serif" font-size="14.00">stdint.h</text>
</a>
</g>
</g>
<!-- 2&#45;&gt;4 -->
<g id="edge10" class="edge">
<title>2&#45;&gt;4</title>
<g id="a_edge10"><a xlink:title="include">
<path fill="none" stroke="#1414ce" d="M383.26,-71.7C393.74,-62.97 406.61,-52.24 418,-42.75"/>
<polygon fill="#1414ce" stroke="#1414ce" points="420.53,-45.19 425.97,-36.1 416.05,-39.82 420.53,-45.19"/>
</a>
</g>
</g>
</g>
</svg>
