<?xml version="1.0" encoding="UTF-8" standalone="no"?>
<!DOCTYPE svg PUBLIC "-//W3C//DTD SVG 1.1//EN"
 "http://www.w3.org/Graphics/SVG/1.1/DTD/svg11.dtd">
<!-- Generated by graphviz version 2.43.0 (0)
 -->
<!-- Title: %3 Pages: 1 -->
<svg width="1346pt" height="404pt"
 viewBox="0.00 0.00 1345.50 404.00" xmlns="http://www.w3.org/2000/svg" xmlns:xlink="http://www.w3.org/1999/xlink">
<g id="graph0" class="graph" transform="scale(1 1) rotate(0) translate(4 400)">
<title>%3</title>
<polygon fill="transparent" stroke="transparent" points="-4,4 -4,-400 1341.5,-400 1341.5,4 -4,4"/>
<!-- 21 -->
<g id="node1" class="node">
<title>21</title>
<g id="a_node1"><a xlink:title="SpinLock">
<polygon fill="#ffffff" stroke="black" points="1227.5,-324 1145.5,-324 1145.5,-288 1227.5,-288 1227.5,-324"/>
<text text-anchor="middle" x="1186.5" y="-302.3" font-family="Times,serif" font-size="14.00">SpinLock</text>
</a>
</g>
</g>
<!-- 1 -->
<g id="node2" class="node">
<title>1</title>
<g id="a_node2"><a xlink:title="SelectEvent">
<polygon fill="#bfbfbf" stroke="black" points="103,-324 0,-324 0,-288 103,-288 103,-324"/>
<text text-anchor="middle" x="51.5" y="-302.3" font-family="Times,serif" font-size="14.00">SelectEvent</text>
</a>
</g>
</g>
<!-- 5 -->
<g id="node5" class="node">
<title>5</title>
<g id="a_node5"><a xlink:title="ListHead">
<polygon fill="#ffffff" stroke="black" points="564,-36 483,-36 483,0 564,0 564,-36"/>
<text text-anchor="middle" x="523.5" y="-14.3" font-family="Times,serif" font-size="14.00">ListHead</text>
</a>
</g>
</g>
<!-- 1&#45;&gt;5 -->
<g id="edge3" class="edge">
<title>1&#45;&gt;5</title>
<g id="a_edge3"><a xlink:title="usage">
<path fill="none" stroke="#1414ce" d="M51.19,-287.92C51.57,-255.17 57.25,-183.3 97.5,-144 201.73,-42.22 384.28,-22.59 472.67,-19.29"/>
<polygon fill="#1414ce" stroke="#1414ce" points="472.84,-22.79 482.72,-18.97 472.61,-15.79 472.84,-22.79"/>
</a>
</g>
</g>
<!-- 22 -->
<g id="node7" class="node">
<title>22</title>
<g id="a_node7"><a xlink:title="Message">
<polygon fill="#ffffff" stroke="black" points="163.5,-252 83.5,-252 83.5,-216 163.5,-216 163.5,-252"/>
<text text-anchor="middle" x="123.5" y="-230.3" font-family="Times,serif" font-size="14.00">Message</text>
</a>
</g>
</g>
<!-- 1&#45;&gt;22 -->
<g id="edge2" class="edge">
<title>1&#45;&gt;22</title>
<g id="a_edge2"><a xlink:title="usage">
<path fill="none" stroke="#1414ce" d="M69.3,-287.7C78.1,-279.14 88.88,-268.66 98.5,-259.3"/>
<polygon fill="#1414ce" stroke="#1414ce" points="101.18,-261.58 105.91,-252.1 96.3,-256.57 101.18,-261.58"/>
</a>
</g>
</g>
<!-- 2 -->
<g id="node18" class="node">
<title>2</title>
<g id="a_node18"><a xlink:title="RefcBinary">
<polygon fill="#ffffff" stroke="black" points="450,-252 355,-252 355,-216 450,-216 450,-252"/>
<text text-anchor="middle" x="402.5" y="-230.3" font-family="Times,serif" font-size="14.00">RefcBinary</text>
</a>
</g>
</g>
<!-- 1&#45;&gt;2 -->
<g id="edge1" class="edge">
<title>1&#45;&gt;2</title>
<g id="a_edge1"><a xlink:title="usage">
<path fill="none" stroke="#1414ce" d="M103,-290.29C106.21,-289.49 109.39,-288.72 112.5,-288 192.37,-269.61 285.79,-253.49 344.56,-243.99"/>
<polygon fill="#1414ce" stroke="#1414ce" points="345.44,-247.4 354.76,-242.36 344.33,-240.49 345.44,-247.4"/>
</a>
</g>
</g>
<!-- 3 -->
<g id="node3" class="node">
<title>3</title>
<g id="a_node3"><a xlink:title="ResourceType">
<polygon fill="#ffffff" stroke="black" points="548,-180 431,-180 431,-144 548,-144 548,-180"/>
<text text-anchor="middle" x="489.5" y="-158.3" font-family="Times,serif" font-size="14.00">ResourceType</text>
</a>
</g>
</g>
<!-- 3&#45;&gt;5 -->
<g id="edge6" class="edge">
<title>3&#45;&gt;5</title>
<g id="a_edge6"><a xlink:title="usage">
<path fill="none" stroke="#1414ce" d="M493.6,-143.87C499.42,-119.56 510.13,-74.82 517.03,-46.01"/>
<polygon fill="#1414ce" stroke="#1414ce" points="520.46,-46.73 519.38,-36.19 513.65,-45.1 520.46,-46.73"/>
</a>
</g>
</g>
<!-- 6 -->
<g id="node9" class="node">
<title>6</title>
<g id="a_node9"><a xlink:title="GlobalContext">
<polygon fill="#ffffff" stroke="black" points="708,-396 589,-396 589,-360 708,-360 708,-396"/>
<text text-anchor="middle" x="648.5" y="-374.3" font-family="Times,serif" font-size="14.00">GlobalContext</text>
</a>
</g>
</g>
<!-- 3&#45;&gt;6 -->
<g id="edge5" class="edge">
<title>3&#45;&gt;6</title>
<g id="a_edge5"><a xlink:title="usage">
<path fill="none" stroke="#1414ce" d="M501.44,-180.47C517.57,-211.75 546.83,-278.29 586.5,-324 596.14,-335.11 608.49,-345.31 619.7,-353.74"/>
<polygon fill="#1414ce" stroke="#1414ce" points="617.86,-356.73 627.99,-359.82 622,-351.08 617.86,-356.73"/>
</a>
</g>
</g>
<!-- 4 -->
<g id="node21" class="node">
<title>4</title>
<g id="a_node21"><a xlink:title="SyncList">
<polygon fill="#ffffff" stroke="black" points="605.5,-108 527.5,-108 527.5,-72 605.5,-72 605.5,-108"/>
<text text-anchor="middle" x="566.5" y="-86.3" font-family="Times,serif" font-size="14.00">SyncList</text>
</a>
</g>
</g>
<!-- 3&#45;&gt;4 -->
<g id="edge4" class="edge">
<title>3&#45;&gt;4</title>
<g id="a_edge4"><a xlink:title="usage">
<path fill="none" stroke="#1414ce" d="M508.53,-143.7C518.04,-135.05 529.71,-124.45 540.07,-115.03"/>
<polygon fill="#1414ce" stroke="#1414ce" points="542.64,-117.42 547.69,-108.1 537.93,-112.24 542.64,-117.42"/>
</a>
</g>
</g>
<!-- 16 -->
<g id="node4" class="node">
<title>16</title>
<g id="a_node4"><a xlink:title="Module">
<polygon fill="#ffffff" stroke="black" points="803.5,-324 733.5,-324 733.5,-288 803.5,-288 803.5,-324"/>
<text text-anchor="middle" x="768.5" y="-302.3" font-family="Times,serif" font-size="14.00">Module</text>
</a>
</g>
</g>
<!-- 18 -->
<g id="node13" class="node">
<title>18</title>
<g id="a_node13"><a xlink:title="LiteralEntry">
<polygon fill="#ffffff" stroke="black" points="963.5,-252 859.5,-252 859.5,-216 963.5,-216 963.5,-252"/>
<text text-anchor="middle" x="911.5" y="-230.3" font-family="Times,serif" font-size="14.00">LiteralEntry</text>
</a>
</g>
</g>
<!-- 16&#45;&gt;18 -->
<g id="edge8" class="edge">
<title>16&#45;&gt;18</title>
<g id="a_edge8"><a xlink:title="usage">
<path fill="none" stroke="#1414ce" d="M803.48,-287.88C822.7,-278.47 846.73,-266.71 867.24,-256.67"/>
<polygon fill="#1414ce" stroke="#1414ce" points="868.94,-259.73 876.38,-252.19 865.86,-253.44 868.94,-259.73"/>
</a>
</g>
</g>
<!-- 17 -->
<g id="node20" class="node">
<title>17</title>
<g id="a_node20"><a xlink:title="ExportedFunction">
<polygon fill="#ffffff" stroke="black" points="841.5,-252 695.5,-252 695.5,-216 841.5,-216 841.5,-252"/>
<text text-anchor="middle" x="768.5" y="-230.3" font-family="Times,serif" font-size="14.00">ExportedFunction</text>
</a>
</g>
</g>
<!-- 16&#45;&gt;17 -->
<g id="edge7" class="edge">
<title>16&#45;&gt;17</title>
<g id="a_edge7"><a xlink:title="usage">
<path fill="none" stroke="#1414ce" d="M768.5,-287.7C768.5,-279.98 768.5,-270.71 768.5,-262.11"/>
<polygon fill="#1414ce" stroke="#1414ce" points="772,-262.1 768.5,-252.1 765,-262.1 772,-262.1"/>
</a>
</g>
</g>
<!-- 5&#45;&gt;5 -->
<g id="edge9" class="edge">
<title>5&#45;&gt;5</title>
<g id="a_edge9"><a xlink:title="usage">
<path fill="none" stroke="#1414ce" d="M564.23,-31.31C574.4,-30.38 582,-25.95 582,-18 582,-12.91 578.88,-9.26 573.97,-7.05"/>
<polygon fill="#1414ce" stroke="#1414ce" points="574.78,-3.64 564.23,-4.69 573.13,-10.45 574.78,-3.64"/>
</a>
</g>
</g>
<!-- 13 -->
<g id="node6" class="node">
<title>13</title>
<g id="a_node6"><a xlink:title="HeapFragment">
<polygon fill="#ffffff" stroke="black" points="1253,-36 1128,-36 1128,0 1253,0 1253,-36"/>
<text text-anchor="middle" x="1190.5" y="-14.3" font-family="Times,serif" font-size="14.00">HeapFragment</text>
</a>
</g>
</g>
<!-- 13&#45;&gt;13 -->
<g id="edge10" class="edge">
<title>13&#45;&gt;13</title>
<g id="a_edge10"><a xlink:title="usage">
<path fill="none" stroke="#1414ce" d="M1253.28,-30.55C1263.76,-28.79 1271,-24.61 1271,-18 1271,-13.77 1268.03,-10.53 1263.14,-8.29"/>
<polygon fill="#1414ce" stroke="#1414ce" points="1263.86,-4.85 1253.28,-5.45 1261.92,-11.58 1263.86,-4.85"/>
</a>
</g>
</g>
<!-- 9 -->
<g id="node14" class="node">
<title>9</title>
<g id="a_node14"><a xlink:title="MailboxMessage">
<polygon fill="#ffffff" stroke="black" points="244,-180 107,-180 107,-144 244,-144 244,-180"/>
<text text-anchor="middle" x="175.5" y="-158.3" font-family="Times,serif" font-size="14.00">MailboxMessage</text>
</a>
</g>
</g>
<!-- 22&#45;&gt;9 -->
<g id="edge11" class="edge">
<title>22&#45;&gt;9</title>
<g id="a_edge11"><a xlink:title="usage">
<path fill="none" stroke="#1414ce" d="M136.35,-215.7C142.53,-207.39 150.04,-197.28 156.82,-188.14"/>
<polygon fill="#1414ce" stroke="#1414ce" points="159.64,-190.22 162.79,-180.1 154.02,-186.04 159.64,-190.22"/>
</a>
</g>
</g>
<!-- 15 -->
<g id="node8" class="node">
<title>15</title>
<g id="a_node8"><a xlink:title="RefcBinaryQueueItem">
<polygon fill="#ffffff" stroke="black" points="489.5,-324 315.5,-324 315.5,-288 489.5,-288 489.5,-324"/>
<text text-anchor="middle" x="402.5" y="-302.3" font-family="Times,serif" font-size="14.00">RefcBinaryQueueItem</text>
</a>
</g>
</g>
<!-- 15&#45;&gt;15 -->
<g id="edge13" class="edge">
<title>15&#45;&gt;15</title>
<g id="a_edge13"><a xlink:title="usage">
<path fill="none" stroke="#1414ce" d="M489.8,-317.68C500.49,-315.59 507.5,-311.7 507.5,-306 507.5,-302.35 504.62,-299.44 499.75,-297.27"/>
<polygon fill="#1414ce" stroke="#1414ce" points="500.38,-293.81 489.8,-294.32 498.39,-300.52 500.38,-293.81"/>
</a>
</g>
</g>
<!-- 15&#45;&gt;2 -->
<g id="edge12" class="edge">
<title>15&#45;&gt;2</title>
<g id="a_edge12"><a xlink:title="usage">
<path fill="none" stroke="#1414ce" d="M402.5,-287.7C402.5,-279.98 402.5,-270.71 402.5,-262.11"/>
<polygon fill="#1414ce" stroke="#1414ce" points="406,-262.1 402.5,-252.1 399,-262.1 406,-262.1"/>
</a>
</g>
</g>
<!-- 6&#45;&gt;21 -->
<g id="edge23" class="edge">
<title>6&#45;&gt;21</title>
<g id="a_edge23"><a xlink:title="usage">
<path fill="none" stroke="#1414ce" d="M708,-374.61C800.43,-369.99 983.66,-357.17 1135.5,-324 1135.6,-323.98 1135.7,-323.96 1135.8,-323.93"/>
<polygon fill="#1414ce" stroke="#1414ce" points="1136.38,-327.4 1145.23,-321.57 1134.68,-320.61 1136.38,-327.4"/>
</a>
</g>
</g>
<!-- 6&#45;&gt;3 -->
<g id="edge14" class="edge">
<title>6&#45;&gt;3</title>
<g id="a_edge14"><a xlink:title="usage">
<path fill="none" stroke="#1414ce" d="M611.85,-359.82C596.96,-350.46 580.6,-337.94 568.5,-324 532.54,-282.58 505.15,-224.04 493.8,-190.15"/>
<polygon fill="#1414ce" stroke="#1414ce" points="497.1,-188.99 490.8,-180.47 490.42,-191.06 497.1,-188.99"/>
</a>
</g>
</g>
<!-- 6&#45;&gt;16 -->
<g id="edge20" class="edge">
<title>6&#45;&gt;16</title>
<g id="a_edge20"><a xlink:title="usage">
<path fill="none" stroke="#1414ce" d="M677.86,-359.88C693.55,-350.72 713.06,-339.34 729.95,-329.48"/>
<polygon fill="#1414ce" stroke="#1414ce" points="732.16,-332.25 739.03,-324.19 728.63,-326.21 732.16,-332.25"/>
</a>
</g>
</g>
<!-- 6&#45;&gt;5 -->
<g id="edge24" class="edge">
<title>6&#45;&gt;5</title>
<g id="a_edge24"><a xlink:title="usage">
<path fill="none" stroke="#1414ce" d="M708.21,-371.72C817.38,-359.42 1032.69,-321.41 972.5,-216 890.36,-72.14 673.62,-33.16 574.4,-22.73"/>
<polygon fill="#1414ce" stroke="#1414ce" points="574.62,-19.24 564.32,-21.73 573.92,-26.2 574.62,-19.24"/>
</a>
</g>
</g>
<!-- 6&#45;&gt;15 -->
<g id="edge18" class="edge">
<title>6&#45;&gt;15</title>
<g id="a_edge18"><a xlink:title="usage">
<path fill="none" stroke="#1414ce" d="M588.95,-360.05C553.71,-350.03 508.89,-337.27 472.03,-326.79"/>
<polygon fill="#1414ce" stroke="#1414ce" points="472.93,-323.4 462.35,-324.03 471.01,-330.13 472.93,-323.4"/>
</a>
</g>
</g>
<!-- 7 -->
<g id="node10" class="node">
<title>7</title>
<g id="a_node10"><a xlink:title="Ets">
<polygon fill="#ffffff" stroke="black" points="658.5,-180 604.5,-180 604.5,-144 658.5,-144 658.5,-180"/>
<text text-anchor="middle" x="631.5" y="-158.3" font-family="Times,serif" font-size="14.00">Ets</text>
</a>
</g>
</g>
<!-- 6&#45;&gt;7 -->
<g id="edge15" class="edge">
<title>6&#45;&gt;7</title>
<g id="a_edge15"><a xlink:title="usage">
<path fill="none" stroke="#1414ce" d="M647.14,-359.85C644.2,-322.83 637.23,-235.18 633.68,-190.39"/>
<polygon fill="#1414ce" stroke="#1414ce" points="637.15,-189.92 632.87,-180.23 630.17,-190.48 637.15,-189.92"/>
</a>
</g>
</g>
<!-- 20 -->
<g id="node12" class="node">
<title>20</title>
<g id="a_node12"><a xlink:title="TimerList">
<polygon fill="#ffffff" stroke="black" points="719.5,-108 633.5,-108 633.5,-72 719.5,-72 719.5,-108"/>
<text text-anchor="middle" x="676.5" y="-86.3" font-family="Times,serif" font-size="14.00">TimerList</text>
</a>
</g>
</g>
<!-- 6&#45;&gt;20 -->
<g id="edge22" class="edge">
<title>6&#45;&gt;20</title>
<g id="a_edge22"><a xlink:title="usage">
<path fill="none" stroke="#1414ce" d="M650.17,-359.97C654.84,-312.19 668.12,-176.62 673.83,-118.27"/>
<polygon fill="#1414ce" stroke="#1414ce" points="677.31,-118.6 674.81,-108.31 670.35,-117.92 677.31,-118.6"/>
</a>
</g>
</g>
<!-- 8 -->
<g id="node16" class="node">
<title>8</title>
<g id="a_node16"><a xlink:title="MessageQueueItem">
<polygon fill="#ffffff" stroke="black" points="279.5,-324 121.5,-324 121.5,-288 279.5,-288 279.5,-324"/>
<text text-anchor="middle" x="200.5" y="-302.3" font-family="Times,serif" font-size="14.00">MessageQueueItem</text>
</a>
</g>
</g>
<!-- 6&#45;&gt;8 -->
<g id="edge16" class="edge">
<title>6&#45;&gt;8</title>
<g id="a_edge16"><a xlink:title="usage">
<path fill="none" stroke="#1414ce" d="M588.87,-367.86C520.61,-357.37 405.47,-339.6 306.5,-324 301.03,-323.14 295.41,-322.25 289.74,-321.35"/>
<polygon fill="#1414ce" stroke="#1414ce" points="289.93,-317.83 279.5,-319.72 288.83,-324.75 289.93,-317.83"/>
</a>
</g>
</g>
<!-- 19 -->
<g id="node17" class="node">
<title>19</title>
<g id="a_node17"><a xlink:title="AtomsHashTable">
<polygon fill="#ffffff" stroke="black" points="1127,-324 990,-324 990,-288 1127,-288 1127,-324"/>
<text text-anchor="middle" x="1058.5" y="-302.3" font-family="Times,serif" font-size="14.00">AtomsHashTable</text>
</a>
</g>
</g>
<!-- 6&#45;&gt;19 -->
<g id="edge21" class="edge">
<title>6&#45;&gt;19</title>
<g id="a_edge21"><a xlink:title="usage">
<path fill="none" stroke="#1414ce" d="M708.3,-368.07C773.96,-358.08 882.44,-341.06 975.5,-324 976.8,-323.76 978.12,-323.52 979.44,-323.27"/>
<polygon fill="#1414ce" stroke="#1414ce" points="980.53,-326.63 989.7,-321.32 979.22,-319.75 980.53,-326.63"/>
</a>
</g>
</g>
<!-- 10 -->
<g id="node19" class="node">
<title>10</title>
<g id="a_node19"><a xlink:title="AtomTable">
<polygon fill="#ffffff" stroke="black" points="1337.5,-324 1245.5,-324 1245.5,-288 1337.5,-288 1337.5,-324"/>
<text text-anchor="middle" x="1291.5" y="-302.3" font-family="Times,serif" font-size="14.00">AtomTable</text>
</a>
</g>
</g>
<!-- 6&#45;&gt;10 -->
<g id="edge17" class="edge">
<title>6&#45;&gt;10</title>
<g id="a_edge17"><a xlink:title="usage">
<path fill="none" stroke="#1414ce" d="M708.34,-375.74C813.53,-372.63 1038.32,-361.97 1235.5,-323.95"/>
<polygon fill="#1414ce" stroke="#1414ce" points="1236.32,-327.35 1245.47,-322 1234.98,-320.48 1236.32,-327.35"/>
</a>
</g>
</g>
<!-- 6&#45;&gt;4 -->
<g id="edge19" class="edge">
<title>6&#45;&gt;4</title>
<g id="a_edge19"><a xlink:title="usage">
<path fill="none" stroke="#1414ce" d="M643.62,-359.97C629.92,-312.19 591.05,-176.62 574.32,-118.27"/>
<polygon fill="#1414ce" stroke="#1414ce" points="577.58,-116.95 571.46,-108.31 570.85,-118.88 577.58,-116.95"/>
</a>
</g>
</g>
<!-- 7&#45;&gt;4 -->
<g id="edge25" class="edge">
<title>7&#45;&gt;4</title>
<g id="a_edge25"><a xlink:title="usage">
<path fill="none" stroke="#1414ce" d="M615.43,-143.7C607.56,-135.22 597.94,-124.86 589.33,-115.58"/>
<polygon fill="#1414ce" stroke="#1414ce" points="591.75,-113.05 582.38,-108.1 586.62,-117.81 591.75,-113.05"/>
</a>
</g>
</g>
<!-- 14 -->
<g id="node11" class="node">
<title>14</title>
<g id="a_node11"><a xlink:title="HNodeGroup">
<polygon fill="#ffffff" stroke="black" points="1245.5,-252 1135.5,-252 1135.5,-216 1245.5,-216 1245.5,-252"/>
<text text-anchor="middle" x="1190.5" y="-230.3" font-family="Times,serif" font-size="14.00">HNodeGroup</text>
</a>
</g>
</g>
<!-- 14&#45;&gt;14 -->
<g id="edge27" class="edge">
<title>14&#45;&gt;14</title>
<g id="a_edge27"><a xlink:title="usage">
<path fill="none" stroke="#1414ce" d="M1245.57,-246.85C1256.07,-245.32 1263.5,-241.03 1263.5,-234 1263.5,-229.5 1260.45,-226.12 1255.5,-223.87"/>
<polygon fill="#1414ce" stroke="#1414ce" points="1256.14,-220.42 1245.57,-221.15 1254.29,-227.17 1256.14,-220.42"/>
</a>
</g>
</g>
<!-- 11 -->
<g id="node22" class="node">
<title>11</title>
<g id="a_node22"><a xlink:title="HNode">
<polygon fill="#ffffff" stroke="black" points="1223.5,-180 1157.5,-180 1157.5,-144 1223.5,-144 1223.5,-180"/>
<text text-anchor="middle" x="1190.5" y="-158.3" font-family="Times,serif" font-size="14.00">HNode</text>
</a>
</g>
</g>
<!-- 14&#45;&gt;11 -->
<g id="edge26" class="edge">
<title>14&#45;&gt;11</title>
<g id="a_edge26"><a xlink:title="usage">
<path fill="none" stroke="#1414ce" d="M1190.5,-215.7C1190.5,-207.98 1190.5,-198.71 1190.5,-190.11"/>
<polygon fill="#1414ce" stroke="#1414ce" points="1194,-190.1 1190.5,-180.1 1187,-190.1 1194,-190.1"/>
</a>
</g>
</g>
<!-- 20&#45;&gt;5 -->
<g id="edge28" class="edge">
<title>20&#45;&gt;5</title>
<g id="a_edge28"><a xlink:title="usage">
<path fill="none" stroke="#1414ce" d="M639.07,-71.88C618.25,-62.35 592.15,-50.41 570.02,-40.28"/>
<polygon fill="#1414ce" stroke="#1414ce" points="571.36,-37.05 560.81,-36.07 568.44,-43.41 571.36,-37.05"/>
</a>
</g>
</g>
<!-- 9&#45;&gt;9 -->
<g id="edge29" class="edge">
<title>9&#45;&gt;9</title>
<g id="a_edge29"><a xlink:title="usage">
<path fill="none" stroke="#1414ce" d="M244.03,-174.37C254.71,-172.52 262,-168.4 262,-162 262,-157.8 258.86,-154.58 253.68,-152.34"/>
<polygon fill="#1414ce" stroke="#1414ce" points="254.6,-148.96 244.03,-149.63 252.71,-155.7 254.6,-148.96"/>
</a>
</g>
</g>
<!-- 12 -->
<g id="node15" class="node">
<title>12</title>
<g id="a_node15"><a xlink:title="Heap">
<polygon fill="#ffffff" stroke="black" points="1217.5,-108 1163.5,-108 1163.5,-72 1217.5,-72 1217.5,-108"/>
<text text-anchor="middle" x="1190.5" y="-86.3" font-family="Times,serif" font-size="14.00">Heap</text>
</a>
</g>
</g>
<!-- 12&#45;&gt;13 -->
<g id="edge30" class="edge">
<title>12&#45;&gt;13</title>
<g id="a_edge30"><a xlink:title="usage">
<path fill="none" stroke="#1414ce" d="M1190.5,-71.7C1190.5,-63.98 1190.5,-54.71 1190.5,-46.11"/>
<polygon fill="#1414ce" stroke="#1414ce" points="1194,-46.1 1190.5,-36.1 1187,-46.1 1194,-46.1"/>
</a>
</g>
</g>
<!-- 8&#45;&gt;9 -->
<g id="edge31" class="edge">
<title>8&#45;&gt;9</title>
<g id="a_edge31"><a xlink:title="usage">
<path fill="none" stroke="#1414ce" d="M197.48,-287.87C193.22,-263.67 185.4,-219.21 180.32,-190.39"/>
<polygon fill="#1414ce" stroke="#1414ce" points="183.71,-189.43 178.53,-180.19 176.81,-190.64 183.71,-189.43"/>
</a>
</g>
</g>
<!-- 8&#45;&gt;8 -->
<g id="edge32" class="edge">
<title>8&#45;&gt;8</title>
<g id="a_edge32"><a xlink:title="usage">
<path fill="none" stroke="#1414ce" d="M279.66,-317.98C290.37,-315.97 297.5,-311.98 297.5,-306 297.5,-302.08 294.43,-299.01 289.29,-296.8"/>
<polygon fill="#1414ce" stroke="#1414ce" points="290.24,-293.43 279.66,-294.02 288.3,-300.15 290.24,-293.43"/>
</a>
</g>
</g>
<!-- 19&#45;&gt;11 -->
<g id="edge33" class="edge">
<title>19&#45;&gt;11</title>
<g id="a_edge33"><a xlink:title="usage">
<path fill="none" stroke="#1414ce" d="M1069.97,-287.69C1082.71,-269.05 1104.4,-238.99 1126.5,-216 1136.46,-205.64 1148.36,-195.32 1159.18,-186.57"/>
<polygon fill="#1414ce" stroke="#1414ce" points="1161.53,-189.18 1167.19,-180.22 1157.18,-183.69 1161.53,-189.18"/>
</a>
</g>
</g>
<!-- 2&#45;&gt;3 -->
<g id="edge34" class="edge">
<title>2&#45;&gt;3</title>
<g id="a_edge34"><a xlink:title="usage">
<path fill="none" stroke="#1414ce" d="M424.01,-215.7C434.96,-206.88 448.45,-196.03 460.32,-186.47"/>
<polygon fill="#1414ce" stroke="#1414ce" points="462.64,-189.1 468.24,-180.1 458.26,-183.65 462.64,-189.1"/>
</a>
</g>
</g>
<!-- 2&#45;&gt;5 -->
<g id="edge35" class="edge">
<title>2&#45;&gt;5</title>
<g id="a_edge35"><a xlink:title="usage">
<path fill="none" stroke="#1414ce" d="M403.75,-215.83C405.65,-197.32 410.29,-167.36 421.5,-144 440.42,-104.58 474.19,-66.75 497.67,-43.24"/>
<polygon fill="#1414ce" stroke="#1414ce" points="500.23,-45.63 504.9,-36.12 495.32,-40.64 500.23,-45.63"/>
</a>
</g>
</g>
<!-- 10&#45;&gt;14 -->
<g id="edge37" class="edge">
<title>10&#45;&gt;14</title>
<g id="a_edge37"><a xlink:title="usage">
<path fill="none" stroke="#1414ce" d="M1266.79,-287.88C1253.83,-278.89 1237.77,-267.76 1223.73,-258.03"/>
<polygon fill="#1414ce" stroke="#1414ce" points="1225.52,-255.01 1215.3,-252.19 1221.53,-260.76 1225.52,-255.01"/>
</a>
</g>
</g>
<!-- 10&#45;&gt;11 -->
<g id="edge36" class="edge">
<title>10&#45;&gt;11</title>
<g id="a_edge36"><a xlink:title="usage">
<path fill="none" stroke="#1414ce" d="M1291.63,-287.74C1290.96,-268.6 1287.39,-237.59 1272.5,-216 1262.62,-201.67 1247.47,-190.31 1232.87,-181.84"/>
<polygon fill="#1414ce" stroke="#1414ce" points="1234.36,-178.66 1223.9,-176.94 1231,-184.81 1234.36,-178.66"/>
</a>
</g>
</g>
<!-- 4&#45;&gt;5 -->
<g id="edge38" class="edge">
<title>4&#45;&gt;5</title>
<g id="a_edge38"><a xlink:title="usage">
<path fill="none" stroke="#1414ce" d="M555.87,-71.7C550.87,-63.56 544.81,-53.69 539.29,-44.7"/>
<polygon fill="#1414ce" stroke="#1414ce" points="542.22,-42.79 534.01,-36.1 536.26,-46.46 542.22,-42.79"/>
</a>
</g>
</g>
<!-- 11&#45;&gt;12 -->
<g id="edge40" class="edge">
<title>11&#45;&gt;12</title>
<g id="a_edge40"><a xlink:title="usage">
<path fill="none" stroke="#1414ce" d="M1190.5,-143.7C1190.5,-135.98 1190.5,-126.71 1190.5,-118.11"/>
<polygon fill="#1414ce" stroke="#1414ce" points="1194,-118.1 1190.5,-108.1 1187,-118.1 1194,-118.1"/>
</a>
</g>
</g>
<!-- 11&#45;&gt;11 -->
<g id="edge39" class="edge">
<title>11&#45;&gt;11</title>
<g id="a_edge39"><a xlink:title="usage">
<path fill="none" stroke="#1414ce" d="M1223.85,-175.47C1233.78,-175.07 1241.5,-170.58 1241.5,-162 1241.5,-156.64 1238.48,-152.87 1233.8,-150.71"/>
<polygon fill="#1414ce" stroke="#1414ce" points="1234.37,-147.25 1223.85,-148.53 1232.87,-154.09 1234.37,-147.25"/>
</a>
</g>
</g>
</g>
</svg>
