<?xml version="1.0" encoding="UTF-8" standalone="no"?>
<!DOCTYPE svg PUBLIC "-//W3C//DTD SVG 1.1//EN"
 "http://www.w3.org/Graphics/SVG/1.1/DTD/svg11.dtd">
<!-- Generated by graphviz version 2.42.4 (0)
 -->
<!-- Pages: 1 -->
<svg width="1138pt" height="116pt"
 viewBox="0.00 0.00 1137.50 116.00" xmlns="http://www.w3.org/2000/svg" xmlns:xlink="http://www.w3.org/1999/xlink">
<g id="graph0" class="graph" transform="scale(1 1) rotate(0) translate(4 112)">
<polygon fill="transparent" stroke="transparent" points="-4,4 -4,-112 1133.5,-112 1133.5,4 -4,4"/>
<!-- 2 -->
<g id="node1" class="node">
<title>2</title>
<g id="a_node1"><a xlink:title="/__w/AtomVM/AtomVM/src/libAtomVM/float_utils.c">
<polygon fill="#ffffff" stroke="black" points="375,-36 0,-36 0,0 375,0 375,-36"/>
<text text-anchor="middle" x="187.5" y="-14.3" font-family="Times,serif" font-size="14.00">/__w/AtomVM/AtomVM/src/libAtomVM/float_utils.c</text>
</a>
</g>
</g>
<!-- 3 -->
<g id="node2" class="node">
<title>3</title>
<g id="a_node2"><a xlink:title="/__w/AtomVM/AtomVM/src/libAtomVM/nifs.c">
<polygon fill="#ffffff" stroke="black" points="725.5,-36 393.5,-36 393.5,0 725.5,0 725.5,-36"/>
<text text-anchor="middle" x="559.5" y="-14.3" font-family="Times,serif" font-size="14.00">/__w/AtomVM/AtomVM/src/libAtomVM/nifs.c</text>
</a>
</g>
</g>
<!-- 4 -->
<g id="node3" class="node">
<title>4</title>
<g id="a_node3"><a xlink:title="/__w/AtomVM/AtomVM/src/libAtomVM/unlocalized.c">
<polygon fill="#ffffff" stroke="black" points="1129.5,-36 743.5,-36 743.5,0 1129.5,0 1129.5,-36"/>
<text text-anchor="middle" x="936.5" y="-14.3" font-family="Times,serif" font-size="14.00">/__w/AtomVM/AtomVM/src/libAtomVM/unlocalized.c</text>
</a>
</g>
</g>
<!-- 1 -->
<g id="node4" class="node">
<title>1</title>
<g id="a_node4"><a xlink:title="/__w/AtomVM/AtomVM/src/libAtomVM/unlocalized.h">
<polygon fill="#bfbfbf" stroke="black" points="753,-108 366,-108 366,-72 753,-72 753,-108"/>
<text text-anchor="middle" x="559.5" y="-86.3" font-family="Times,serif" font-size="14.00">/__w/AtomVM/AtomVM/src/libAtomVM/unlocalized.h</text>
</a>
</g>
</g>
<!-- 1&#45;&gt;2 -->
<g id="edge1" class="edge">
<title>1&#45;&gt;2</title>
<g id="a_edge1"><a xlink:title="include">
<path fill="none" stroke="#1414ce" d="M458.97,-70.08C402.58,-59.47 332.8,-46.34 278.11,-36.05"/>
<polygon fill="#1414ce" stroke="#1414ce" points="458.5,-73.56 468.97,-71.97 459.79,-66.68 458.5,-73.56"/>
</a>
</g>
</g>
<!-- 1&#45;&gt;3 -->
<g id="edge2" class="edge">
<title>1&#45;&gt;3</title>
<g id="a_edge2"><a xlink:title="include">
<path fill="none" stroke="#1414ce" d="M559.5,-61.67C559.5,-53.05 559.5,-43.79 559.5,-36.1"/>
<polygon fill="#1414ce" stroke="#1414ce" points="556,-61.7 559.5,-71.7 563,-61.7 556,-61.7"/>
</a>
</g>
</g>
<!-- 1&#45;&gt;4 -->
<g id="edge3" class="edge">
<title>1&#45;&gt;4</title>
<g id="a_edge3"><a xlink:title="include">
<path fill="none" stroke="#1414ce" d="M661.38,-70.08C718.53,-59.47 789.25,-46.34 844.67,-36.05"/>
<polygon fill="#1414ce" stroke="#1414ce" points="660.44,-66.7 651.24,-71.97 661.71,-73.58 660.44,-66.7"/>
</a>
</g>
</g>
</g>
</svg>
