<?xml version="1.0" encoding="UTF-8" standalone="no"?>
<!DOCTYPE svg PUBLIC "-//W3C//DTD SVG 1.1//EN"
 "http://www.w3.org/Graphics/SVG/1.1/DTD/svg11.dtd">
<!-- Generated by graphviz version 2.43.0 (0)
 -->
<!-- Title: %3 Pages: 1 -->
<svg width="554pt" height="188pt"
 viewBox="0.00 0.00 553.50 188.00" xmlns="http://www.w3.org/2000/svg" xmlns:xlink="http://www.w3.org/1999/xlink">
<g id="graph0" class="graph" transform="scale(1 1) rotate(0) translate(4 184)">
<title>%3</title>
<polygon fill="transparent" stroke="transparent" points="-4,4 -4,-184 549.5,-184 549.5,4 -4,4"/>
<!-- 1 -->
<g id="node1" class="node">
<title>1</title>
<g id="a_node1"><a xlink:title="/__w/AtomVM/AtomVM/src/libAtomVM/atom.c">
<polygon fill="#bfbfbf" stroke="black" points="477.5,-180 136.5,-180 136.5,-144 477.5,-144 477.5,-180"/>
<text text-anchor="middle" x="307" y="-158.3" font-family="Times,serif" font-size="14.00">/__w/AtomVM/AtomVM/src/libAtomVM/atom.c</text>
</a>
</g>
</g>
<!-- 2 -->
<g id="node2" class="node">
<title>2</title>
<g id="a_node2"><a xlink:title="atom.h">
<polygon fill="#ffffff" stroke="black" points="159,-108 93,-108 93,-72 159,-72 159,-108"/>
<text text-anchor="middle" x="126" y="-86.3" font-family="Times,serif" font-size="14.00">atom.h</text>
</a>
</g>
</g>
<!-- 1&#45;&gt;2 -->
<g id="edge1" class="edge">
<title>1&#45;&gt;2</title>
<g id="a_edge1"><a xlink:title="include">
<path fill="none" stroke="#1414ce" d="M262.72,-143.88C234.07,-132.8 196.98,-118.45 168.66,-107.5"/>
<polygon fill="#1414ce" stroke="#1414ce" points="169.62,-104.12 159.04,-103.78 167.1,-110.65 169.62,-104.12"/>
</a>
</g>
</g>
<!-- 7 -->
<g id="node3" class="node">
<title>7</title>
<g id="a_node3"><a xlink:title="utils.h">
<polygon fill="#ffffff" stroke="black" points="338,-108 276,-108 276,-72 338,-72 338,-108"/>
<text text-anchor="middle" x="307" y="-86.3" font-family="Times,serif" font-size="14.00">utils.h</text>
</a>
</g>
</g>
<!-- 1&#45;&gt;7 -->
<g id="edge5" class="edge">
<title>1&#45;&gt;7</title>
<g id="a_edge5"><a xlink:title="include">
<path fill="none" stroke="#1414ce" d="M307,-143.7C307,-135.98 307,-126.71 307,-118.11"/>
<polygon fill="#1414ce" stroke="#1414ce" points="310.5,-118.1 307,-108.1 303.5,-118.1 310.5,-118.1"/>
</a>
</g>
</g>
<!-- 5 -->
<g id="node8" class="node">
<title>5</title>
<g id="a_node8"><a xlink:title="stdio.h">
<polygon fill="#ffffff" stroke="black" points="545.5,-36 480.5,-36 480.5,0 545.5,0 545.5,-36"/>
<text text-anchor="middle" x="513" y="-14.3" font-family="Times,serif" font-size="14.00">stdio.h</text>
</a>
</g>
</g>
<!-- 1&#45;&gt;5 -->
<g id="edge2" class="edge">
<title>1&#45;&gt;5</title>
<g id="a_edge2"><a xlink:title="include">
<path fill="none" stroke="#1414ce" d="M318.57,-143.83C332.56,-124.2 357.75,-92.17 386,-72 389.75,-69.32 435.22,-50.58 470.69,-36.13"/>
<polygon fill="#1414ce" stroke="#1414ce" points="472.44,-39.2 480.39,-32.19 469.81,-32.71 472.44,-39.2"/>
</a>
</g>
</g>
<!-- 4 -->
<g id="node9" class="node">
<title>4</title>
<g id="a_node9"><a xlink:title="stdlib.h">
<polygon fill="#ffffff" stroke="black" points="161.5,-36 90.5,-36 90.5,0 161.5,0 161.5,-36"/>
<text text-anchor="middle" x="126" y="-14.3" font-family="Times,serif" font-size="14.00">stdlib.h</text>
</a>
</g>
</g>
<!-- 1&#45;&gt;4 -->
<g id="edge3" class="edge">
<title>1&#45;&gt;4</title>
<g id="a_edge3"><a xlink:title="include">
<path fill="none" stroke="#1414ce" d="M285.17,-143.87C252.96,-118.6 192.61,-71.25 156.18,-42.68"/>
<polygon fill="#1414ce" stroke="#1414ce" points="157.94,-39.61 147.91,-36.19 153.62,-45.12 157.94,-39.61"/>
</a>
</g>
</g>
<!-- 6 -->
<g id="node10" class="node">
<title>6</title>
<g id="a_node10"><a xlink:title="string.h">
<polygon fill="#ffffff" stroke="black" points="467.5,-108 394.5,-108 394.5,-72 467.5,-72 467.5,-108"/>
<text text-anchor="middle" x="431" y="-86.3" font-family="Times,serif" font-size="14.00">string.h</text>
</a>
</g>
</g>
<!-- 1&#45;&gt;6 -->
<g id="edge4" class="edge">
<title>1&#45;&gt;6</title>
<g id="a_edge4"><a xlink:title="include">
<path fill="none" stroke="#1414ce" d="M337.33,-143.88C353.7,-134.64 374.08,-123.13 391.65,-113.21"/>
<polygon fill="#1414ce" stroke="#1414ce" points="393.56,-116.15 400.55,-108.19 390.12,-110.06 393.56,-116.15"/>
</a>
</g>
</g>
<!-- 3 -->
<g id="node7" class="node">
<title>3</title>
<g id="a_node7"><a xlink:title="stdint.h">
<polygon fill="#ffffff" stroke="black" points="72,-36 0,-36 0,0 72,0 72,-36"/>
<text text-anchor="middle" x="36" y="-14.3" font-family="Times,serif" font-size="14.00">stdint.h</text>
</a>
</g>
</g>
<!-- 2&#45;&gt;3 -->
<g id="edge6" class="edge">
<title>2&#45;&gt;3</title>
<g id="a_edge6"><a xlink:title="include">
<path fill="none" stroke="#1414ce" d="M103.75,-71.7C92.42,-62.88 78.47,-52.03 66.18,-42.47"/>
<polygon fill="#1414ce" stroke="#1414ce" points="68.03,-39.48 57.99,-36.1 63.74,-45.01 68.03,-39.48"/>
</a>
</g>
</g>
<!-- 2&#45;&gt;4 -->
<g id="edge7" class="edge">
<title>2&#45;&gt;4</title>
<g id="a_edge7"><a xlink:title="include">
<path fill="none" stroke="#1414ce" d="M126,-71.7C126,-63.98 126,-54.71 126,-46.11"/>
<polygon fill="#1414ce" stroke="#1414ce" points="129.5,-46.1 126,-36.1 122.5,-46.1 129.5,-46.1"/>
</a>
</g>
</g>
<!-- 8 -->
<g id="node4" class="node">
<title>8</title>
<g id="a_node4"><a xlink:title="inttypes.h">
<polygon fill="#ffffff" stroke="black" points="268.5,-36 179.5,-36 179.5,0 268.5,0 268.5,-36"/>
<text text-anchor="middle" x="224" y="-14.3" font-family="Times,serif" font-size="14.00">inttypes.h</text>
</a>
</g>
</g>
<!-- 7&#45;&gt;8 -->
<g id="edge8" class="edge">
<title>7&#45;&gt;8</title>
<g id="a_edge8"><a xlink:title="include">
<path fill="none" stroke="#1414ce" d="M286.48,-71.7C276.13,-62.97 263.41,-52.24 252.16,-42.75"/>
<polygon fill="#1414ce" stroke="#1414ce" points="254.18,-39.88 244.28,-36.1 249.67,-45.23 254.18,-39.88"/>
</a>
</g>
</g>
<!-- 9 -->
<g id="node5" class="node">
<title>9</title>
<g id="a_node5"><a xlink:title="stdbool.h">
<polygon fill="#ffffff" stroke="black" points="369.5,-36 286.5,-36 286.5,0 369.5,0 369.5,-36"/>
<text text-anchor="middle" x="328" y="-14.3" font-family="Times,serif" font-size="14.00">stdbool.h</text>
</a>
</g>
</g>
<!-- 7&#45;&gt;9 -->
<g id="edge9" class="edge">
<title>7&#45;&gt;9</title>
<g id="a_edge9"><a xlink:title="include">
<path fill="none" stroke="#1414ce" d="M312.19,-71.7C314.53,-63.9 317.35,-54.51 319.95,-45.83"/>
<polygon fill="#1414ce" stroke="#1414ce" points="323.35,-46.69 322.87,-36.1 316.64,-44.68 323.35,-46.69"/>
</a>
</g>
</g>
<!-- 10 -->
<g id="node6" class="node">
<title>10</title>
<g id="a_node6"><a xlink:title="stddef.h">
<polygon fill="#ffffff" stroke="black" points="462,-36 388,-36 388,0 462,0 462,-36"/>
<text text-anchor="middle" x="425" y="-14.3" font-family="Times,serif" font-size="14.00">stddef.h</text>
</a>
</g>
</g>
<!-- 7&#45;&gt;10 -->
<g id="edge10" class="edge">
<title>7&#45;&gt;10</title>
<g id="a_edge10"><a xlink:title="include">
<path fill="none" stroke="#1414ce" d="M335.87,-71.88C351.29,-62.72 370.48,-51.34 387.1,-41.48"/>
<polygon fill="#1414ce" stroke="#1414ce" points="389.21,-44.3 396.02,-36.19 385.64,-38.28 389.21,-44.3"/>
</a>
</g>
</g>
<!-- 7&#45;&gt;5 -->
<g id="edge11" class="edge">
<title>7&#45;&gt;5</title>
<g id="a_edge11"><a xlink:title="include">
<path fill="none" stroke="#1414ce" d="M338.37,-76.84C342.93,-75.16 347.57,-73.5 352,-72 401.46,-55.2 417.19,-54.42 470.46,-36.02"/>
<polygon fill="#1414ce" stroke="#1414ce" points="471.81,-39.26 480.09,-32.65 469.5,-32.65 471.81,-39.26"/>
</a>
</g>
</g>
<!-- 7&#45;&gt;4 -->
<g id="edge12" class="edge">
<title>7&#45;&gt;4</title>
<g id="a_edge12"><a xlink:title="include">
<path fill="none" stroke="#1414ce" d="M275.88,-76.97C247,-65.8 203.66,-49.03 171,-36.41"/>
<polygon fill="#1414ce" stroke="#1414ce" points="172.26,-33.14 161.67,-32.8 169.73,-39.67 172.26,-33.14"/>
</a>
</g>
</g>
</g>
</svg>
