<?xml version="1.0" encoding="UTF-8" standalone="no"?>
<!DOCTYPE svg PUBLIC "-//W3C//DTD SVG 1.1//EN"
 "http://www.w3.org/Graphics/SVG/1.1/DTD/svg11.dtd">
<!-- Generated by graphviz version 2.43.0 (0)
 -->
<!-- Title: %3 Pages: 1 -->
<svg width="1577pt" height="692pt"
 viewBox="0.00 0.00 1577.00 692.00" xmlns="http://www.w3.org/2000/svg" xmlns:xlink="http://www.w3.org/1999/xlink">
<g id="graph0" class="graph" transform="scale(1 1) rotate(0) translate(4 688)">
<title>%3</title>
<polygon fill="transparent" stroke="transparent" points="-4,4 -4,-688 1573,-688 1573,4 -4,4"/>
<!-- 4 -->
<g id="node1" class="node">
<title>4</title>
<g id="a_node1"><a xlink:title="atom.h">
<polygon fill="#ffffff" stroke="black" points="1339,-180 1273,-180 1273,-144 1339,-144 1339,-180"/>
<text text-anchor="middle" x="1306" y="-158.3" font-family="Times,serif" font-size="14.00">atom.h</text>
</a>
</g>
</g>
<!-- 3 -->
<g id="node25" class="node">
<title>3</title>
<g id="a_node25"><a xlink:title="stdint.h">
<polygon fill="#ffffff" stroke="black" points="1259,-36 1187,-36 1187,0 1259,0 1259,-36"/>
<text text-anchor="middle" x="1223" y="-14.3" font-family="Times,serif" font-size="14.00">stdint.h</text>
</a>
</g>
</g>
<!-- 4&#45;&gt;3 -->
<g id="edge1" class="edge">
<title>4&#45;&gt;3</title>
<g id="a_edge1"><a xlink:title="include">
<path fill="none" stroke="#1414ce" d="M1297.71,-143.96C1288.72,-125.82 1273.67,-96.41 1259,-72 1253.56,-62.94 1247.19,-53.31 1241.35,-44.77"/>
<polygon fill="#1414ce" stroke="#1414ce" points="1244.08,-42.57 1235.5,-36.35 1238.32,-46.56 1244.08,-42.57"/>
</a>
</g>
</g>
<!-- 5 -->
<g id="node27" class="node">
<title>5</title>
<g id="a_node27"><a xlink:title="stdlib.h">
<polygon fill="#ffffff" stroke="black" points="1102.5,-108 1031.5,-108 1031.5,-72 1102.5,-72 1102.5,-108"/>
<text text-anchor="middle" x="1067" y="-86.3" font-family="Times,serif" font-size="14.00">stdlib.h</text>
</a>
</g>
</g>
<!-- 4&#45;&gt;5 -->
<g id="edge2" class="edge">
<title>4&#45;&gt;5</title>
<g id="a_edge2"><a xlink:title="include">
<path fill="none" stroke="#1414ce" d="M1272.77,-151.27C1231.06,-139.05 1159.35,-118.05 1112.55,-104.34"/>
<polygon fill="#1414ce" stroke="#1414ce" points="1113.26,-100.9 1102.68,-101.45 1111.29,-107.62 1113.26,-100.9"/>
</a>
</g>
</g>
<!-- 6 -->
<g id="node2" class="node">
<title>6</title>
<g id="a_node2"><a xlink:title="atom_table.h">
<polygon fill="#ffffff" stroke="black" points="1249.5,-252 1140.5,-252 1140.5,-216 1249.5,-216 1249.5,-252"/>
<text text-anchor="middle" x="1195" y="-230.3" font-family="Times,serif" font-size="14.00">atom_table.h</text>
</a>
</g>
</g>
<!-- 6&#45;&gt;4 -->
<g id="edge4" class="edge">
<title>6&#45;&gt;4</title>
<g id="a_edge4"><a xlink:title="include">
<path fill="none" stroke="#1414ce" d="M1222.15,-215.88C1236.53,-206.81 1254.38,-195.55 1269.91,-185.76"/>
<polygon fill="#1414ce" stroke="#1414ce" points="1272.15,-188.48 1278.74,-180.19 1268.42,-182.56 1272.15,-188.48"/>
</a>
</g>
</g>
<!-- 8 -->
<g id="node18" class="node">
<title>8</title>
<g id="a_node18"><a xlink:title="utils.h">
<polygon fill="#ffffff" stroke="black" points="1124,-180 1062,-180 1062,-144 1124,-144 1124,-180"/>
<text text-anchor="middle" x="1093" y="-158.3" font-family="Times,serif" font-size="14.00">utils.h</text>
</a>
</g>
</g>
<!-- 6&#45;&gt;8 -->
<g id="edge5" class="edge">
<title>6&#45;&gt;8</title>
<g id="a_edge5"><a xlink:title="include">
<path fill="none" stroke="#1414ce" d="M1170.05,-215.88C1156.96,-206.89 1140.74,-195.76 1126.56,-186.03"/>
<polygon fill="#1414ce" stroke="#1414ce" points="1128.27,-182.96 1118.05,-180.19 1124.31,-188.73 1128.27,-182.96"/>
</a>
</g>
</g>
<!-- 7 -->
<g id="node23" class="node">
<title>7</title>
<g id="a_node23"><a xlink:title="stdbool.h">
<polygon fill="#ffffff" stroke="black" points="546.5,-108 463.5,-108 463.5,-72 546.5,-72 546.5,-108"/>
<text text-anchor="middle" x="505" y="-86.3" font-family="Times,serif" font-size="14.00">stdbool.h</text>
</a>
</g>
</g>
<!-- 6&#45;&gt;7 -->
<g id="edge3" class="edge">
<title>6&#45;&gt;7</title>
<g id="a_edge3"><a xlink:title="include">
<path fill="none" stroke="#1414ce" d="M1140.33,-220.55C1062.15,-202.86 913.82,-169.74 787,-144 706.8,-127.72 613.41,-110.51 556.78,-100.27"/>
<polygon fill="#1414ce" stroke="#1414ce" points="557.11,-96.77 546.64,-98.44 555.86,-103.66 557.11,-96.77"/>
</a>
</g>
</g>
<!-- 1 -->
<g id="node3" class="node">
<title>1</title>
<g id="a_node3"><a xlink:title="/__w/AtomVM/AtomVM/src/libAtomVM/avmpack.h">
<polygon fill="#bfbfbf" stroke="black" points="607,-684 237,-684 237,-648 607,-648 607,-684"/>
<text text-anchor="middle" x="422" y="-662.3" font-family="Times,serif" font-size="14.00">/__w/AtomVM/AtomVM/src/libAtomVM/avmpack.h</text>
</a>
</g>
</g>
<!-- 2 -->
<g id="node6" class="node">
<title>2</title>
<g id="a_node6"><a xlink:title="globalcontext.h">
<polygon fill="#ffffff" stroke="black" points="485.5,-612 358.5,-612 358.5,-576 485.5,-576 485.5,-612"/>
<text text-anchor="middle" x="422" y="-590.3" font-family="Times,serif" font-size="14.00">globalcontext.h</text>
</a>
</g>
</g>
<!-- 1&#45;&gt;2 -->
<g id="edge6" class="edge">
<title>1&#45;&gt;2</title>
<g id="a_edge6"><a xlink:title="include">
<path fill="none" stroke="#1414ce" d="M422,-647.7C422,-639.98 422,-630.71 422,-622.11"/>
<polygon fill="#1414ce" stroke="#1414ce" points="425.5,-622.1 422,-612.1 418.5,-622.1 425.5,-622.1"/>
</a>
</g>
</g>
<!-- 17 -->
<g id="node8" class="node">
<title>17</title>
<g id="a_node8"><a xlink:title="list.h">
<polygon fill="#ffffff" stroke="black" points="333,-180 279,-180 279,-144 333,-144 333,-180"/>
<text text-anchor="middle" x="306" y="-158.3" font-family="Times,serif" font-size="14.00">list.h</text>
</a>
</g>
</g>
<!-- 1&#45;&gt;17 -->
<g id="edge7" class="edge">
<title>1&#45;&gt;17</title>
<g id="a_edge7"><a xlink:title="include">
<path fill="none" stroke="#1414ce" d="M259.14,-647.96C186.07,-630.34 116,-594.74 116,-523 116,-523 116,-523 116,-449 116,-332.11 163.1,-305.74 238,-216 247.34,-204.81 259.41,-194.47 270.79,-185.94"/>
<polygon fill="#1414ce" stroke="#1414ce" points="272.85,-188.77 278.9,-180.07 268.74,-183.1 272.85,-188.77"/>
</a>
</g>
</g>
<!-- 1&#45;&gt;7 -->
<g id="edge8" class="edge">
<title>1&#45;&gt;7</title>
<g id="a_edge8"><a xlink:title="include">
<path fill="none" stroke="#1414ce" d="M256.69,-647.97C213.73,-640.12 168.25,-628.68 128,-612 63.99,-585.47 0,-592.29 0,-523 0,-523 0,-523 0,-233 0,-139.56 324.44,-104.68 453.22,-94.52"/>
<polygon fill="#1414ce" stroke="#1414ce" points="453.54,-98 463.24,-93.75 453,-91.02 453.54,-98"/>
</a>
</g>
</g>
<!-- 10 -->
<g id="node24" class="node">
<title>10</title>
<g id="a_node24"><a xlink:title="stddef.h">
<polygon fill="#ffffff" stroke="black" points="1467,-108 1393,-108 1393,-72 1467,-72 1467,-108"/>
<text text-anchor="middle" x="1430" y="-86.3" font-family="Times,serif" font-size="14.00">stddef.h</text>
</a>
</g>
</g>
<!-- 1&#45;&gt;10 -->
<g id="edge9" class="edge">
<title>1&#45;&gt;10</title>
<g id="a_edge9"><a xlink:title="include">
<path fill="none" stroke="#1414ce" d="M607.31,-659.86C922.93,-648.61 1531,-614.99 1531,-523 1531,-523 1531,-523 1531,-233 1531,-192.55 1534.96,-177.3 1512,-144 1502.92,-130.84 1489.4,-120.18 1475.94,-111.96"/>
<polygon fill="#1414ce" stroke="#1414ce" points="1477.57,-108.86 1467.15,-106.92 1474.08,-114.93 1477.57,-108.86"/>
</a>
</g>
</g>
<!-- 1&#45;&gt;3 -->
<g id="edge10" class="edge">
<title>1&#45;&gt;3</title>
<g id="a_edge10"><a xlink:title="include">
<path fill="none" stroke="#1414ce" d="M607.13,-662.51C842.68,-657.99 1235.9,-645.55 1377,-612 1468.5,-590.24 1569,-617.06 1569,-523 1569,-523 1569,-523 1569,-161 1569,-103.79 1526.61,-98.67 1476,-72 1409.56,-36.99 1321.87,-25.1 1269.11,-21.07"/>
<polygon fill="#1414ce" stroke="#1414ce" points="1269.26,-17.57 1259.04,-20.36 1268.77,-24.56 1269.26,-17.57"/>
</a>
</g>
</g>
<!-- 12 -->
<g id="node4" class="node">
<title>12</title>
<g id="a_node4"><a xlink:title="erl_nif.h">
<polygon fill="#ffffff" stroke="black" points="778,-180 704,-180 704,-144 778,-144 778,-180"/>
<text text-anchor="middle" x="741" y="-158.3" font-family="Times,serif" font-size="14.00">erl_nif.h</text>
</a>
</g>
</g>
<!-- 13 -->
<g id="node16" class="node">
<title>13</title>
<g id="a_node16"><a xlink:title="term_typedef.h">
<polygon fill="#ffffff" stroke="black" points="879.5,-108 754.5,-108 754.5,-72 879.5,-72 879.5,-108"/>
<text text-anchor="middle" x="817" y="-86.3" font-family="Times,serif" font-size="14.00">term_typedef.h</text>
</a>
</g>
</g>
<!-- 12&#45;&gt;13 -->
<g id="edge11" class="edge">
<title>12&#45;&gt;13</title>
<g id="a_edge11"><a xlink:title="include">
<path fill="none" stroke="#1414ce" d="M759.79,-143.7C769.17,-135.05 780.68,-124.45 790.91,-115.03"/>
<polygon fill="#1414ce" stroke="#1414ce" points="793.45,-117.45 798.43,-108.1 788.7,-112.3 793.45,-117.45"/>
</a>
</g>
</g>
<!-- 16 -->
<g id="node5" class="node">
<title>16</title>
<g id="a_node5"><a xlink:title="ets.h">
<polygon fill="#ffffff" stroke="black" points="375,-540 321,-540 321,-504 375,-504 375,-540"/>
<text text-anchor="middle" x="348" y="-518.3" font-family="Times,serif" font-size="14.00">ets.h</text>
</a>
</g>
</g>
<!-- 16&#45;&gt;17 -->
<g id="edge12" class="edge">
<title>16&#45;&gt;17</title>
<g id="a_edge12"><a xlink:title="include">
<path fill="none" stroke="#1414ce" d="M345.97,-503.73C339.22,-446.19 317.46,-260.66 309.21,-190.35"/>
<polygon fill="#1414ce" stroke="#1414ce" points="312.65,-189.62 308.01,-180.09 305.69,-190.43 312.65,-189.62"/>
</a>
</g>
</g>
<!-- 18 -->
<g id="node14" class="node">
<title>18</title>
<g id="a_node14"><a xlink:title="synclist.h">
<polygon fill="#ffffff" stroke="black" points="457.5,-252 372.5,-252 372.5,-216 457.5,-216 457.5,-252"/>
<text text-anchor="middle" x="415" y="-230.3" font-family="Times,serif" font-size="14.00">synclist.h</text>
</a>
</g>
</g>
<!-- 16&#45;&gt;18 -->
<g id="edge13" class="edge">
<title>16&#45;&gt;18</title>
<g id="a_edge13"><a xlink:title="include">
<path fill="none" stroke="#1414ce" d="M349.35,-503.93C352.78,-464.87 363.48,-366.3 389,-288 391.95,-278.94 396.19,-269.47 400.39,-261.08"/>
<polygon fill="#1414ce" stroke="#1414ce" points="403.53,-262.63 405.05,-252.15 397.32,-259.4 403.53,-262.63"/>
</a>
</g>
</g>
<!-- 20 -->
<g id="node15" class="node">
<title>20</title>
<g id="a_node15"><a xlink:title="term.h">
<polygon fill="#ffffff" stroke="black" points="1001.5,-468 936.5,-468 936.5,-432 1001.5,-432 1001.5,-468"/>
<text text-anchor="middle" x="969" y="-446.3" font-family="Times,serif" font-size="14.00">term.h</text>
</a>
</g>
</g>
<!-- 16&#45;&gt;20 -->
<g id="edge14" class="edge">
<title>16&#45;&gt;20</title>
<g id="a_edge14"><a xlink:title="include">
<path fill="none" stroke="#1414ce" d="M375.08,-517.95C472.64,-506.95 806.59,-469.31 926.06,-455.84"/>
<polygon fill="#1414ce" stroke="#1414ce" points="926.74,-459.29 936.28,-454.69 925.95,-452.33 926.74,-459.29"/>
</a>
</g>
</g>
<!-- 2&#45;&gt;4 -->
<g id="edge16" class="edge">
<title>2&#45;&gt;4</title>
<g id="a_edge16"><a xlink:title="include">
<path fill="none" stroke="#1414ce" d="M485.64,-590.41C701.44,-580.81 1392,-542.91 1392,-451 1392,-451 1392,-451 1392,-305 1392,-258.31 1357.56,-213.84 1332.27,-187.49"/>
<polygon fill="#1414ce" stroke="#1414ce" points="1334.61,-184.88 1325.09,-180.23 1329.63,-189.8 1334.61,-184.88"/>
</a>
</g>
</g>
<!-- 2&#45;&gt;6 -->
<g id="edge17" class="edge">
<title>2&#45;&gt;6</title>
<g id="a_edge17"><a xlink:title="include">
<path fill="none" stroke="#1414ce" d="M485.8,-592.81C599.51,-589.72 841.18,-570.49 1011,-468 1096.02,-416.69 1157.28,-310.65 1182.39,-261.31"/>
<polygon fill="#1414ce" stroke="#1414ce" points="1185.59,-262.74 1186.93,-252.23 1179.33,-259.61 1185.59,-262.74"/>
</a>
</g>
</g>
<!-- 2&#45;&gt;12 -->
<g id="edge18" class="edge">
<title>2&#45;&gt;12</title>
<g id="a_edge18"><a xlink:title="include">
<path fill="none" stroke="#1414ce" d="M431.02,-575.9C461.6,-518.41 562.18,-333.12 612,-288 638.81,-263.72 658.13,-276.22 685,-252 704.49,-234.43 719.74,-208.54 729.38,-189.21"/>
<polygon fill="#1414ce" stroke="#1414ce" points="732.6,-190.57 733.77,-180.04 726.29,-187.54 732.6,-190.57"/>
</a>
</g>
</g>
<!-- 2&#45;&gt;16 -->
<g id="edge19" class="edge">
<title>2&#45;&gt;16</title>
<g id="a_edge19"><a xlink:title="include">
<path fill="none" stroke="#1414ce" d="M403.71,-575.7C394.57,-567.05 383.36,-556.45 373.4,-547.03"/>
<polygon fill="#1414ce" stroke="#1414ce" points="375.75,-544.43 366.08,-540.1 370.94,-549.52 375.75,-544.43"/>
</a>
</g>
</g>
<!-- 2&#45;&gt;17 -->
<g id="edge20" class="edge">
<title>2&#45;&gt;17</title>
<g id="a_edge20"><a xlink:title="include">
<path fill="none" stroke="#1414ce" d="M358.47,-577.87C333.62,-569.67 306.09,-557.52 285,-540 249.23,-510.29 230,-497.5 230,-451 230,-451 230,-451 230,-305 230,-259.64 260.52,-214.75 282.88,-187.95"/>
<polygon fill="#1414ce" stroke="#1414ce" points="285.64,-190.09 289.51,-180.23 280.34,-185.53 285.64,-190.09"/>
</a>
</g>
</g>
<!-- 27 -->
<g id="node9" class="node">
<title>27</title>
<g id="a_node9"><a xlink:title="mailbox.h">
<polygon fill="#ffffff" stroke="black" points="676,-252 590,-252 590,-216 676,-216 676,-252"/>
<text text-anchor="middle" x="633" y="-230.3" font-family="Times,serif" font-size="14.00">mailbox.h</text>
</a>
</g>
</g>
<!-- 2&#45;&gt;27 -->
<g id="edge21" class="edge">
<title>2&#45;&gt;27</title>
<g id="a_edge21"><a xlink:title="include">
<path fill="none" stroke="#1414ce" d="M425.84,-575.61C431.4,-548.94 441,-496.27 441,-451 441,-451 441,-451 441,-377 441,-307.43 523.48,-268.06 580.32,-249.18"/>
<polygon fill="#1414ce" stroke="#1414ce" points="581.46,-252.49 589.91,-246.11 579.32,-245.83 581.46,-252.49"/>
</a>
</g>
</g>
<!-- 19 -->
<g id="node13" class="node">
<title>19</title>
<g id="a_node13"><a xlink:title="smp.h">
<polygon fill="#ffffff" stroke="black" points="445,-180 385,-180 385,-144 445,-144 445,-180"/>
<text text-anchor="middle" x="415" y="-158.3" font-family="Times,serif" font-size="14.00">smp.h</text>
</a>
</g>
</g>
<!-- 2&#45;&gt;19 -->
<g id="edge22" class="edge">
<title>2&#45;&gt;19</title>
<g id="a_edge22"><a xlink:title="include">
<path fill="none" stroke="#1414ce" d="M358.34,-576.46C340.25,-568.5 322.6,-556.87 312,-540 291.39,-507.19 232.55,-473.24 364,-216 369.38,-205.47 377.55,-195.62 385.78,-187.33"/>
<polygon fill="#1414ce" stroke="#1414ce" points="388.45,-189.62 393.28,-180.19 383.62,-184.55 388.45,-189.62"/>
</a>
</g>
</g>
<!-- 2&#45;&gt;18 -->
<g id="edge23" class="edge">
<title>2&#45;&gt;18</title>
<g id="a_edge23"><a xlink:title="include">
<path fill="none" stroke="#1414ce" d="M418.16,-575.61C412.6,-548.94 403,-496.27 403,-451 403,-451 403,-451 403,-377 403,-336.85 407.82,-290.55 411.35,-262.02"/>
<polygon fill="#1414ce" stroke="#1414ce" points="414.84,-262.37 412.63,-252.01 407.89,-261.49 414.84,-262.37"/>
</a>
</g>
</g>
<!-- 2&#45;&gt;20 -->
<g id="edge24" class="edge">
<title>2&#45;&gt;20</title>
<g id="a_edge24"><a xlink:title="include">
<path fill="none" stroke="#1414ce" d="M485.55,-576.5C598.41,-547.2 830.93,-486.84 926.53,-462.03"/>
<polygon fill="#1414ce" stroke="#1414ce" points="927.62,-465.36 936.42,-459.46 925.86,-458.58 927.62,-465.36"/>
</a>
</g>
</g>
<!-- 28 -->
<g id="node17" class="node">
<title>28</title>
<g id="a_node17"><a xlink:title="timer_list.h">
<polygon fill="#ffffff" stroke="black" points="164,-252 66,-252 66,-216 164,-216 164,-252"/>
<text text-anchor="middle" x="115" y="-230.3" font-family="Times,serif" font-size="14.00">timer_list.h</text>
</a>
</g>
</g>
<!-- 2&#45;&gt;28 -->
<g id="edge25" class="edge">
<title>2&#45;&gt;28</title>
<g id="a_edge25"><a xlink:title="include">
<path fill="none" stroke="#1414ce" d="M358.29,-583.77C305.52,-574.86 236.06,-559.83 216,-540 186.86,-511.2 192,-491.97 192,-451 192,-451 192,-451 192,-377 192,-331.51 161.08,-286.65 138.43,-259.89"/>
<polygon fill="#1414ce" stroke="#1414ce" points="140.92,-257.42 131.71,-252.19 135.64,-262.02 140.92,-257.42"/>
</a>
</g>
</g>
<!-- 29 -->
<g id="node19" class="node">
<title>29</title>
<g id="a_node19"><a xlink:title="valueshashtable.h">
<polygon fill="#ffffff" stroke="black" points="1503,-180 1357,-180 1357,-144 1503,-144 1503,-180"/>
<text text-anchor="middle" x="1430" y="-158.3" font-family="Times,serif" font-size="14.00">valueshashtable.h</text>
</a>
</g>
</g>
<!-- 2&#45;&gt;29 -->
<g id="edge26" class="edge">
<title>2&#45;&gt;29</title>
<g id="a_edge26"><a xlink:title="include">
<path fill="none" stroke="#1414ce" d="M485.58,-591.41C649.72,-586.89 1084.64,-572.15 1225,-540 1321.82,-517.83 1430,-550.33 1430,-451 1430,-451 1430,-451 1430,-305 1430,-265 1430,-218.65 1430,-190.08"/>
<polygon fill="#1414ce" stroke="#1414ce" points="1433.5,-190.05 1430,-180.05 1426.5,-190.05 1433.5,-190.05"/>
</a>
</g>
</g>
<!-- 2&#45;&gt;3 -->
<g id="edge15" class="edge">
<title>2&#45;&gt;3</title>
<g id="a_edge15"><a xlink:title="include">
<path fill="none" stroke="#1414ce" d="M358.3,-584.85C298.83,-576.12 215.51,-560.69 190,-540 69.1,-441.95 -11.55,-355.76 57,-216 106.19,-115.71 156.44,-105.52 263,-72 443.56,-15.2 925.64,-54.61 1114,-36 1134.68,-33.96 1157.41,-30.59 1176.74,-27.39"/>
<polygon fill="#1414ce" stroke="#1414ce" points="1177.52,-30.81 1186.8,-25.69 1176.35,-23.91 1177.52,-30.81"/>
</a>
</g>
</g>
<!-- 23 -->
<g id="node7" class="node">
<title>23</title>
<g id="a_node7"><a xlink:title="intn.h">
<polygon fill="#ffffff" stroke="black" points="969.5,-396 910.5,-396 910.5,-360 969.5,-360 969.5,-396"/>
<text text-anchor="middle" x="940" y="-374.3" font-family="Times,serif" font-size="14.00">intn.h</text>
</a>
</g>
</g>
<!-- 23&#45;&gt;8 -->
<g id="edge29" class="edge">
<title>23&#45;&gt;8</title>
<g id="a_edge29"><a xlink:title="include">
<path fill="none" stroke="#1414ce" d="M930.69,-359.75C921.77,-340.62 911.62,-309.62 926,-288 948.96,-253.5 978.14,-275.89 1012,-252 1036.98,-234.37 1059.87,-207.82 1074.9,-188.3"/>
<polygon fill="#1414ce" stroke="#1414ce" points="1077.82,-190.24 1081.03,-180.15 1072.22,-186.03 1077.82,-190.24"/>
</a>
</g>
</g>
<!-- 23&#45;&gt;7 -->
<g id="edge27" class="edge">
<title>23&#45;&gt;7</title>
<g id="a_edge27"><a xlink:title="include">
<path fill="none" stroke="#1414ce" d="M914.09,-359.97C839.46,-310.89 623.94,-169.2 539.51,-113.69"/>
<polygon fill="#1414ce" stroke="#1414ce" points="541.33,-110.69 531.05,-108.13 537.48,-116.54 541.33,-110.69"/>
</a>
</g>
</g>
<!-- 22 -->
<g id="node28" class="node">
<title>22</title>
<g id="a_node28"><a xlink:title="string.h">
<polygon fill="#ffffff" stroke="black" points="1007.5,-324 934.5,-324 934.5,-288 1007.5,-288 1007.5,-324"/>
<text text-anchor="middle" x="971" y="-302.3" font-family="Times,serif" font-size="14.00">string.h</text>
</a>
</g>
</g>
<!-- 23&#45;&gt;22 -->
<g id="edge28" class="edge">
<title>23&#45;&gt;22</title>
<g id="a_edge28"><a xlink:title="include">
<path fill="none" stroke="#1414ce" d="M947.66,-359.7C951.19,-351.73 955.46,-342.1 959.37,-333.26"/>
<polygon fill="#1414ce" stroke="#1414ce" points="962.58,-334.67 963.43,-324.1 956.18,-331.83 962.58,-334.67"/>
</a>
</g>
</g>
<!-- 17&#45;&gt;7 -->
<g id="edge30" class="edge">
<title>17&#45;&gt;7</title>
<g id="a_edge30"><a xlink:title="include">
<path fill="none" stroke="#1414ce" d="M333.25,-151.41C364.16,-140.54 415.26,-122.57 453.7,-109.05"/>
<polygon fill="#1414ce" stroke="#1414ce" points="454.91,-112.33 463.18,-105.71 452.58,-105.73 454.91,-112.33"/>
</a>
</g>
</g>
<!-- 27&#45;&gt;17 -->
<g id="edge32" class="edge">
<title>27&#45;&gt;17</title>
<g id="a_edge32"><a xlink:title="include">
<path fill="none" stroke="#1414ce" d="M589.7,-224.55C538.54,-214.45 450.9,-196.81 376,-180 365.27,-177.59 353.66,-174.83 343.03,-172.25"/>
<polygon fill="#1414ce" stroke="#1414ce" points="343.75,-168.82 333.21,-169.84 342.09,-175.62 343.75,-168.82"/>
</a>
</g>
</g>
<!-- 27&#45;&gt;13 -->
<g id="edge33" class="edge">
<title>27&#45;&gt;13</title>
<g id="a_edge33"><a xlink:title="include">
<path fill="none" stroke="#1414ce" d="M641.26,-215.79C651.47,-196.11 670.52,-164.04 695,-144 711.43,-130.55 731.8,-119.92 751.15,-111.83"/>
<polygon fill="#1414ce" stroke="#1414ce" points="752.58,-115.03 760.55,-108.05 749.97,-108.53 752.58,-115.03"/>
</a>
</g>
</g>
<!-- 27&#45;&gt;8 -->
<g id="edge34" class="edge">
<title>27&#45;&gt;8</title>
<g id="a_edge34"><a xlink:title="include">
<path fill="none" stroke="#1414ce" d="M676.28,-226.41C764.71,-212.96 965.11,-182.46 1051.78,-169.27"/>
<polygon fill="#1414ce" stroke="#1414ce" points="1052.41,-172.72 1061.77,-167.75 1051.36,-165.8 1052.41,-172.72"/>
</a>
</g>
</g>
<!-- 27&#45;&gt;7 -->
<g id="edge31" class="edge">
<title>27&#45;&gt;7</title>
<g id="a_edge31"><a xlink:title="include">
<path fill="none" stroke="#1414ce" d="M617.56,-215.87C595.07,-190.92 553.18,-144.45 527.33,-115.77"/>
<polygon fill="#1414ce" stroke="#1414ce" points="529.79,-113.27 520.49,-108.19 524.59,-117.96 529.79,-113.27"/>
</a>
</g>
</g>
<!-- 24 -->
<g id="node10" class="node">
<title>24</title>
<g id="a_node10"><a xlink:title="memory.h">
<polygon fill="#ffffff" stroke="black" points="932,-252 846,-252 846,-216 932,-216 932,-252"/>
<text text-anchor="middle" x="889" y="-230.3" font-family="Times,serif" font-size="14.00">memory.h</text>
</a>
</g>
</g>
<!-- 24&#45;&gt;12 -->
<g id="edge37" class="edge">
<title>24&#45;&gt;12</title>
<g id="a_edge37"><a xlink:title="include">
<path fill="none" stroke="#1414ce" d="M852.8,-215.88C832.74,-206.39 807.63,-194.51 786.29,-184.42"/>
<polygon fill="#1414ce" stroke="#1414ce" points="787.62,-181.18 777.09,-180.07 784.63,-187.51 787.62,-181.18"/>
</a>
</g>
</g>
<!-- 24&#45;&gt;13 -->
<g id="edge38" class="edge">
<title>24&#45;&gt;13</title>
<g id="a_edge38"><a xlink:title="include">
<path fill="none" stroke="#1414ce" d="M880.32,-215.87C867.88,-191.35 844.9,-146.03 830.31,-117.26"/>
<polygon fill="#1414ce" stroke="#1414ce" points="833.36,-115.53 825.72,-108.19 827.12,-118.69 833.36,-115.53"/>
</a>
</g>
</g>
<!-- 24&#45;&gt;8 -->
<g id="edge39" class="edge">
<title>24&#45;&gt;8</title>
<g id="a_edge39"><a xlink:title="include">
<path fill="none" stroke="#1414ce" d="M932.26,-218.15C967.6,-206.03 1017.22,-189 1051.95,-177.09"/>
<polygon fill="#1414ce" stroke="#1414ce" points="1053.44,-180.27 1061.77,-173.72 1051.17,-173.65 1053.44,-180.27"/>
</a>
</g>
</g>
<!-- 24&#45;&gt;3 -->
<g id="edge35" class="edge">
<title>24&#45;&gt;3</title>
<g id="a_edge35"><a xlink:title="include">
<path fill="none" stroke="#1414ce" d="M889.03,-215.88C890.08,-182.72 897.41,-109.7 940,-72 948.84,-64.17 1098.9,-39.01 1176.83,-26.38"/>
<polygon fill="#1414ce" stroke="#1414ce" points="1177.55,-29.81 1186.87,-24.76 1176.44,-22.9 1177.55,-29.81"/>
</a>
</g>
</g>
<!-- 24&#45;&gt;5 -->
<g id="edge36" class="edge">
<title>24&#45;&gt;5</title>
<g id="a_edge36"><a xlink:title="include">
<path fill="none" stroke="#1414ce" d="M904.86,-215.83C922.66,-197.06 952.88,-166.62 982,-144 996.1,-133.04 1012.57,-122.35 1027.23,-113.47"/>
<polygon fill="#1414ce" stroke="#1414ce" points="1029.29,-116.32 1036.09,-108.19 1025.71,-110.3 1029.29,-116.32"/>
</a>
</g>
</g>
<!-- 25 -->
<g id="node11" class="node">
<title>25</title>
<g id="a_node11"><a xlink:title="refc_binary.h">
<polygon fill="#ffffff" stroke="black" points="725,-396 617,-396 617,-360 725,-360 725,-396"/>
<text text-anchor="middle" x="671" y="-374.3" font-family="Times,serif" font-size="14.00">refc_binary.h</text>
</a>
</g>
</g>
<!-- 25&#45;&gt;17 -->
<g id="edge42" class="edge">
<title>25&#45;&gt;17</title>
<g id="a_edge42"><a xlink:title="include">
<path fill="none" stroke="#1414ce" d="M616.75,-365.45C551.05,-349.27 439.79,-314.54 364,-252 343.46,-235.05 327.64,-208.91 317.75,-189.34"/>
<polygon fill="#1414ce" stroke="#1414ce" points="320.89,-187.8 313.38,-180.33 314.6,-190.85 320.89,-187.8"/>
</a>
</g>
</g>
<!-- 26 -->
<g id="node12" class="node">
<title>26</title>
<g id="a_node12"><a xlink:title="resources.h">
<polygon fill="#ffffff" stroke="black" points="721,-324 621,-324 621,-288 721,-288 721,-324"/>
<text text-anchor="middle" x="671" y="-302.3" font-family="Times,serif" font-size="14.00">resources.h</text>
</a>
</g>
</g>
<!-- 25&#45;&gt;26 -->
<g id="edge43" class="edge">
<title>25&#45;&gt;26</title>
<g id="a_edge43"><a xlink:title="include">
<path fill="none" stroke="#1414ce" d="M671,-359.7C671,-351.98 671,-342.71 671,-334.11"/>
<polygon fill="#1414ce" stroke="#1414ce" points="674.5,-334.1 671,-324.1 667.5,-334.1 674.5,-334.1"/>
</a>
</g>
</g>
<!-- 25&#45;&gt;7 -->
<g id="edge40" class="edge">
<title>25&#45;&gt;7</title>
<g id="a_edge40"><a xlink:title="include">
<path fill="none" stroke="#1414ce" d="M647.9,-359.99C636.05,-350.41 622.04,-337.64 612,-324 562.54,-256.83 528.15,-163.14 513.28,-117.75"/>
<polygon fill="#1414ce" stroke="#1414ce" points="516.55,-116.51 510.16,-108.06 509.89,-118.65 516.55,-116.51"/>
</a>
</g>
</g>
<!-- 25&#45;&gt;5 -->
<g id="edge41" class="edge">
<title>25&#45;&gt;5</title>
<g id="a_edge41"><a xlink:title="include">
<path fill="none" stroke="#1414ce" d="M722.15,-359.97C797.38,-334.24 933.26,-284.97 973,-252 1016.76,-215.7 1044.72,-153.41 1057.97,-117.89"/>
<polygon fill="#1414ce" stroke="#1414ce" points="1061.36,-118.8 1061.46,-108.21 1054.77,-116.43 1061.36,-118.8"/>
</a>
</g>
</g>
<!-- 26&#45;&gt;12 -->
<g id="edge45" class="edge">
<title>26&#45;&gt;12</title>
<g id="a_edge45"><a xlink:title="include">
<path fill="none" stroke="#1414ce" d="M689.89,-288C699.58,-278.32 710.83,-265.46 718,-252 728.28,-232.69 734.15,-208.54 737.38,-190.27"/>
<polygon fill="#1414ce" stroke="#1414ce" points="740.85,-190.7 738.99,-180.27 733.94,-189.59 740.85,-190.7"/>
</a>
</g>
</g>
<!-- 26&#45;&gt;17 -->
<g id="edge46" class="edge">
<title>26&#45;&gt;17</title>
<g id="a_edge46"><a xlink:title="include">
<path fill="none" stroke="#1414ce" d="M634.57,-287.88C594.09,-269.14 526.56,-238.74 467,-216 424.89,-199.93 375.54,-184.11 342.69,-174.01"/>
<polygon fill="#1414ce" stroke="#1414ce" points="343.63,-170.63 333.05,-171.06 341.59,-177.33 343.63,-170.63"/>
</a>
</g>
</g>
<!-- 26&#45;&gt;27 -->
<g id="edge47" class="edge">
<title>26&#45;&gt;27</title>
<g id="a_edge47"><a xlink:title="include">
<path fill="none" stroke="#1414ce" d="M661.61,-287.7C657.24,-279.64 651.94,-269.89 647.1,-260.98"/>
<polygon fill="#1414ce" stroke="#1414ce" points="650.13,-259.22 642.29,-252.1 643.98,-262.56 650.13,-259.22"/>
</a>
</g>
</g>
<!-- 26&#45;&gt;24 -->
<g id="edge48" class="edge">
<title>26&#45;&gt;24</title>
<g id="a_edge48"><a xlink:title="include">
<path fill="none" stroke="#1414ce" d="M721.01,-288.94C755.48,-277.87 801.22,-263.19 836.26,-251.93"/>
<polygon fill="#1414ce" stroke="#1414ce" points="837.39,-255.25 845.84,-248.86 835.25,-248.58 837.39,-255.25"/>
</a>
</g>
</g>
<!-- 26&#45;&gt;18 -->
<g id="edge49" class="edge">
<title>26&#45;&gt;18</title>
<g id="a_edge49"><a xlink:title="include">
<path fill="none" stroke="#1414ce" d="M620.73,-291.25C576.46,-279.15 512.23,-261.59 467.35,-249.32"/>
<polygon fill="#1414ce" stroke="#1414ce" points="468.09,-245.89 457.52,-246.63 466.24,-252.64 468.09,-245.89"/>
</a>
</g>
</g>
<!-- 26&#45;&gt;5 -->
<g id="edge44" class="edge">
<title>26&#45;&gt;5</title>
<g id="a_edge44"><a xlink:title="include">
<path fill="none" stroke="#1414ce" d="M721.17,-296.13C796.67,-282.63 931.74,-257.89 941,-252 991.18,-220.08 982.67,-190.3 1020,-144 1027.56,-134.62 1036.22,-124.65 1044.03,-115.92"/>
<polygon fill="#1414ce" stroke="#1414ce" points="1046.81,-118.08 1050.91,-108.31 1041.61,-113.38 1046.81,-118.08"/>
</a>
</g>
</g>
<!-- 19&#45;&gt;7 -->
<g id="edge50" class="edge">
<title>19&#45;&gt;7</title>
<g id="a_edge50"><a xlink:title="include">
<path fill="none" stroke="#1414ce" d="M437.25,-143.7C448.58,-134.88 462.53,-124.03 474.82,-114.47"/>
<polygon fill="#1414ce" stroke="#1414ce" points="477.26,-117.01 483.01,-108.1 472.97,-111.48 477.26,-117.01"/>
</a>
</g>
</g>
<!-- 18&#45;&gt;17 -->
<g id="edge52" class="edge">
<title>18&#45;&gt;17</title>
<g id="a_edge52"><a xlink:title="include">
<path fill="none" stroke="#1414ce" d="M388.34,-215.88C374.22,-206.81 356.69,-195.55 341.44,-185.76"/>
<polygon fill="#1414ce" stroke="#1414ce" points="343.07,-182.65 332.77,-180.19 339.29,-188.54 343.07,-182.65"/>
</a>
</g>
</g>
<!-- 18&#45;&gt;19 -->
<g id="edge53" class="edge">
<title>18&#45;&gt;19</title>
<g id="a_edge53"><a xlink:title="include">
<path fill="none" stroke="#1414ce" d="M415,-215.7C415,-207.98 415,-198.71 415,-190.11"/>
<polygon fill="#1414ce" stroke="#1414ce" points="418.5,-190.1 415,-180.1 411.5,-190.1 418.5,-190.1"/>
</a>
</g>
</g>
<!-- 11 -->
<g id="node26" class="node">
<title>11</title>
<g id="a_node26"><a xlink:title="stdio.h">
<polygon fill="#ffffff" stroke="black" points="1013.5,-108 948.5,-108 948.5,-72 1013.5,-72 1013.5,-108"/>
<text text-anchor="middle" x="981" y="-86.3" font-family="Times,serif" font-size="14.00">stdio.h</text>
</a>
</g>
</g>
<!-- 18&#45;&gt;11 -->
<g id="edge51" class="edge">
<title>18&#45;&gt;11</title>
<g id="a_edge51"><a xlink:title="include">
<path fill="none" stroke="#1414ce" d="M457.69,-217.6C512.19,-198.36 609.65,-165.38 695,-144 696.48,-143.63 858.82,-113.59 938.23,-98.91"/>
<polygon fill="#1414ce" stroke="#1414ce" points="939.2,-102.29 948.4,-97.03 937.93,-95.4 939.2,-102.29"/>
</a>
</g>
</g>
<!-- 20&#45;&gt;4 -->
<g id="edge60" class="edge">
<title>20&#45;&gt;4</title>
<g id="a_edge60"><a xlink:title="include">
<path fill="none" stroke="#1414ce" d="M1001.71,-447.28C1074.25,-442.91 1245.82,-429.24 1292,-396 1358.36,-348.23 1347.25,-295.92 1330,-216 1328.04,-206.92 1324.39,-197.52 1320.51,-189.2"/>
<polygon fill="#1414ce" stroke="#1414ce" points="1323.54,-187.42 1315.95,-180.02 1317.27,-190.53 1323.54,-187.42"/>
</a>
</g>
</g>
<!-- 20&#45;&gt;23 -->
<g id="edge61" class="edge">
<title>20&#45;&gt;23</title>
<g id="a_edge61"><a xlink:title="include">
<path fill="none" stroke="#1414ce" d="M961.83,-431.7C958.57,-423.81 954.63,-414.3 951,-405.55"/>
<polygon fill="#1414ce" stroke="#1414ce" points="954.15,-404 947.09,-396.1 947.68,-406.68 954.15,-404"/>
</a>
</g>
</g>
<!-- 20&#45;&gt;24 -->
<g id="edge62" class="edge">
<title>20&#45;&gt;24</title>
<g id="a_edge62"><a xlink:title="include">
<path fill="none" stroke="#1414ce" d="M983.07,-431.6C1006.44,-400.44 1047.79,-334.08 1017,-288 1000.28,-262.98 969.32,-249.75 942.04,-242.77"/>
<polygon fill="#1414ce" stroke="#1414ce" points="942.72,-239.34 932.19,-240.47 941.13,-246.15 942.72,-239.34"/>
</a>
</g>
</g>
<!-- 20&#45;&gt;25 -->
<g id="edge63" class="edge">
<title>20&#45;&gt;25</title>
<g id="a_edge63"><a xlink:title="include">
<path fill="none" stroke="#1414ce" d="M936.26,-441.31C888.06,-429.99 797.07,-408.61 735.24,-394.09"/>
<polygon fill="#1414ce" stroke="#1414ce" points="735.73,-390.61 725.2,-391.73 734.13,-397.43 735.73,-390.61"/>
</a>
</g>
</g>
<!-- 20&#45;&gt;13 -->
<g id="edge65" class="edge">
<title>20&#45;&gt;13</title>
<g id="a_edge65"><a xlink:title="include">
<path fill="none" stroke="#1414ce" d="M936.28,-444.22C888.92,-436.54 804.92,-419.89 787,-396 754.34,-352.47 793.03,-183.77 809.9,-117.73"/>
<polygon fill="#1414ce" stroke="#1414ce" points="813.28,-118.6 812.4,-108.04 806.51,-116.85 813.28,-118.6"/>
</a>
</g>
</g>
<!-- 20&#45;&gt;8 -->
<g id="edge64" class="edge">
<title>20&#45;&gt;8</title>
<g id="a_edge64"><a xlink:title="include">
<path fill="none" stroke="#1414ce" d="M993.88,-431.9C1005.78,-422.56 1019.29,-410.04 1028,-396 1069.42,-329.27 1085.01,-235.7 1090.41,-190.11"/>
<polygon fill="#1414ce" stroke="#1414ce" points="1093.89,-190.43 1091.52,-180.11 1086.93,-189.66 1093.89,-190.43"/>
</a>
</g>
</g>
<!-- 20&#45;&gt;7 -->
<g id="edge55" class="edge">
<title>20&#45;&gt;7</title>
<g id="a_edge55"><a xlink:title="include">
<path fill="none" stroke="#1414ce" d="M936.39,-448.23C857.47,-445.74 658.95,-435.61 608,-396 519.55,-327.23 506.47,-179.14 504.95,-118.12"/>
<polygon fill="#1414ce" stroke="#1414ce" points="508.45,-118.05 504.79,-108.11 501.45,-118.17 508.45,-118.05"/>
</a>
</g>
</g>
<!-- 20&#45;&gt;3 -->
<g id="edge56" class="edge">
<title>20&#45;&gt;3</title>
<g id="a_edge56"><a xlink:title="include">
<path fill="none" stroke="#1414ce" d="M1001.69,-442.94C1037.94,-435.36 1097.44,-420.34 1144,-396 1189.7,-372.11 1201.4,-363.13 1235,-324 1258.99,-296.06 1266.57,-287.6 1276,-252 1280.1,-236.53 1278.56,-231.79 1276,-216 1273.3,-199.35 1268.75,-196.18 1264,-180 1250.28,-133.25 1236.81,-78.11 1229.24,-45.99"/>
<polygon fill="#1414ce" stroke="#1414ce" points="1232.6,-44.97 1226.91,-36.03 1225.78,-46.57 1232.6,-44.97"/>
</a>
</g>
</g>
<!-- 20&#45;&gt;11 -->
<g id="edge57" class="edge">
<title>20&#45;&gt;11</title>
<g id="a_edge57"><a xlink:title="include">
<path fill="none" stroke="#1414ce" d="M1001.66,-433.97C1018.28,-424.94 1037.73,-412.08 1051,-396 1069.13,-374.03 1124.62,-227.02 1133,-180 1135.81,-164.25 1142.39,-156.95 1133,-144 1104.52,-104.71 1074.88,-123.23 1023.44,-107.75"/>
<polygon fill="#1414ce" stroke="#1414ce" points="1024.53,-104.43 1013.93,-104.58 1022.31,-111.07 1024.53,-104.43"/>
</a>
</g>
</g>
<!-- 20&#45;&gt;5 -->
<g id="edge58" class="edge">
<title>20&#45;&gt;5</title>
<g id="a_edge58"><a xlink:title="include">
<path fill="none" stroke="#1414ce" d="M1001.67,-438.94C1065.9,-417.12 1206.87,-358.63 1259,-252 1289.09,-190.45 1206.43,-181.36 1149,-144 1133.7,-134.05 1116.77,-123.1 1102.28,-113.74"/>
<polygon fill="#1414ce" stroke="#1414ce" points="1103.91,-110.63 1093.61,-108.15 1100.12,-116.51 1103.91,-110.63"/>
</a>
</g>
</g>
<!-- 20&#45;&gt;22 -->
<g id="edge59" class="edge">
<title>20&#45;&gt;22</title>
<g id="a_edge59"><a xlink:title="include">
<path fill="none" stroke="#1414ce" d="M973.06,-431.93C975.31,-421.6 977.87,-408.12 979,-396 980.49,-380.07 980.2,-375.96 979,-360 978.36,-351.52 977.16,-342.34 975.88,-334.04"/>
<polygon fill="#1414ce" stroke="#1414ce" points="979.32,-333.41 974.25,-324.11 972.42,-334.55 979.32,-333.41"/>
</a>
</g>
</g>
<!-- 21 -->
<g id="node29" class="node">
<title>21</title>
<g id="a_node29"><a xlink:title="sys/types.h">
<polygon fill="#ffffff" stroke="black" points="892.5,-396 795.5,-396 795.5,-360 892.5,-360 892.5,-396"/>
<text text-anchor="middle" x="844" y="-374.3" font-family="Times,serif" font-size="14.00">sys/types.h</text>
</a>
</g>
</g>
<!-- 20&#45;&gt;21 -->
<g id="edge54" class="edge">
<title>20&#45;&gt;21</title>
<g id="a_edge54"><a xlink:title="include">
<path fill="none" stroke="#1414ce" d="M938.42,-431.88C921.93,-422.64 901.38,-411.13 883.66,-401.21"/>
<polygon fill="#1414ce" stroke="#1414ce" points="885.13,-398.02 874.7,-396.19 881.71,-404.13 885.13,-398.02"/>
</a>
</g>
</g>
<!-- 14 -->
<g id="node20" class="node">
<title>14</title>
<g id="a_node20"><a xlink:title="assert.h">
<polygon fill="#ffffff" stroke="black" points="795,-36 721,-36 721,0 795,0 795,-36"/>
<text text-anchor="middle" x="758" y="-14.3" font-family="Times,serif" font-size="14.00">assert.h</text>
</a>
</g>
</g>
<!-- 13&#45;&gt;14 -->
<g id="edge66" class="edge">
<title>13&#45;&gt;14</title>
<g id="a_edge66"><a xlink:title="include">
<path fill="none" stroke="#1414ce" d="M802.42,-71.7C795.34,-63.3 786.72,-53.07 778.95,-43.86"/>
<polygon fill="#1414ce" stroke="#1414ce" points="781.54,-41.49 772.42,-36.1 776.19,-46.01 781.54,-41.49"/>
</a>
</g>
</g>
<!-- 9 -->
<g id="node21" class="node">
<title>9</title>
<g id="a_node21"><a xlink:title="inttypes.h">
<polygon fill="#ffffff" stroke="black" points="1104.5,-36 1015.5,-36 1015.5,0 1104.5,0 1104.5,-36"/>
<text text-anchor="middle" x="1060" y="-14.3" font-family="Times,serif" font-size="14.00">inttypes.h</text>
</a>
</g>
</g>
<!-- 13&#45;&gt;9 -->
<g id="edge68" class="edge">
<title>13&#45;&gt;9</title>
<g id="a_edge68"><a xlink:title="include">
<path fill="none" stroke="#1414ce" d="M876.13,-71.97C915.47,-60.64 966.76,-45.86 1005.18,-34.79"/>
<polygon fill="#1414ce" stroke="#1414ce" points="1006.51,-38.05 1015.15,-31.92 1004.57,-31.32 1006.51,-38.05"/>
</a>
</g>
</g>
<!-- 15 -->
<g id="node22" class="node">
<title>15</title>
<g id="a_node22"><a xlink:title="limits.h">
<polygon fill="#ffffff" stroke="black" points="884.5,-36 813.5,-36 813.5,0 884.5,0 884.5,-36"/>
<text text-anchor="middle" x="849" y="-14.3" font-family="Times,serif" font-size="14.00">limits.h</text>
</a>
</g>
</g>
<!-- 13&#45;&gt;15 -->
<g id="edge67" class="edge">
<title>13&#45;&gt;15</title>
<g id="a_edge67"><a xlink:title="include">
<path fill="none" stroke="#1414ce" d="M824.91,-71.7C828.55,-63.73 832.95,-54.1 836.99,-45.26"/>
<polygon fill="#1414ce" stroke="#1414ce" points="840.21,-46.65 841.18,-36.1 833.84,-43.74 840.21,-46.65"/>
</a>
</g>
</g>
<!-- 13&#45;&gt;3 -->
<g id="edge69" class="edge">
<title>13&#45;&gt;3</title>
<g id="a_edge69"><a xlink:title="include">
<path fill="none" stroke="#1414ce" d="M879.69,-76.84C888.52,-75.18 897.48,-73.53 906,-72 1002.05,-54.8 1114.81,-36.37 1176.62,-26.41"/>
<polygon fill="#1414ce" stroke="#1414ce" points="1177.5,-29.81 1186.82,-24.77 1176.39,-22.9 1177.5,-29.81"/>
</a>
</g>
</g>
<!-- 28&#45;&gt;17 -->
<g id="edge72" class="edge">
<title>28&#45;&gt;17</title>
<g id="a_edge72"><a xlink:title="include">
<path fill="none" stroke="#1414ce" d="M161.72,-215.88C194.91,-203.71 238.84,-187.62 269.47,-176.39"/>
<polygon fill="#1414ce" stroke="#1414ce" points="270.73,-179.65 278.91,-172.93 268.32,-173.08 270.73,-179.65"/>
</a>
</g>
</g>
<!-- 28&#45;&gt;7 -->
<g id="edge70" class="edge">
<title>28&#45;&gt;7</title>
<g id="a_edge70"><a xlink:title="include">
<path fill="none" stroke="#1414ce" d="M139.34,-215.92C168.93,-195.92 220.99,-163.09 270,-144 330.76,-120.33 404.67,-105.83 453.18,-98.11"/>
<polygon fill="#1414ce" stroke="#1414ce" points="453.79,-101.56 463.14,-96.57 452.72,-94.64 453.79,-101.56"/>
</a>
</g>
</g>
<!-- 28&#45;&gt;3 -->
<g id="edge71" class="edge">
<title>28&#45;&gt;3</title>
<g id="a_edge71"><a xlink:title="include">
<path fill="none" stroke="#1414ce" d="M125.85,-215.91C139.55,-195.74 164.97,-162.59 195,-144 296.95,-80.88 336.67,-91.38 455,-72 744.47,-24.58 822.28,-66.64 1114,-36 1134.67,-33.83 1157.39,-30.45 1176.72,-27.27"/>
<polygon fill="#1414ce" stroke="#1414ce" points="1177.5,-30.68 1186.79,-25.58 1176.34,-23.78 1177.5,-30.68"/>
</a>
</g>
</g>
<!-- 8&#45;&gt;9 -->
<g id="edge73" class="edge">
<title>8&#45;&gt;9</title>
<g id="a_edge73"><a xlink:title="include">
<path fill="none" stroke="#1414ce" d="M1102.56,-143.74C1111.38,-125.4 1121.74,-95.84 1112,-72 1107.51,-61.02 1099.53,-51.08 1091.15,-42.86"/>
<polygon fill="#1414ce" stroke="#1414ce" points="1093.49,-40.26 1083.75,-36.09 1088.76,-45.42 1093.49,-40.26"/>
</a>
</g>
</g>
<!-- 8&#45;&gt;7 -->
<g id="edge74" class="edge">
<title>8&#45;&gt;7</title>
<g id="a_edge74"><a xlink:title="include">
<path fill="none" stroke="#1414ce" d="M1061.8,-157.29C966.06,-145.89 675.74,-111.33 556.73,-97.16"/>
<polygon fill="#1414ce" stroke="#1414ce" points="557.12,-93.68 546.77,-95.97 556.29,-100.63 557.12,-93.68"/>
</a>
</g>
</g>
<!-- 8&#45;&gt;10 -->
<g id="edge75" class="edge">
<title>8&#45;&gt;10</title>
<g id="a_edge75"><a xlink:title="include">
<path fill="none" stroke="#1414ce" d="M1124.1,-154.54C1183.43,-142.22 1313.07,-115.29 1383.02,-100.76"/>
<polygon fill="#1414ce" stroke="#1414ce" points="1383.81,-104.17 1392.89,-98.71 1382.39,-97.32 1383.81,-104.17"/>
</a>
</g>
</g>
<!-- 8&#45;&gt;11 -->
<g id="edge76" class="edge">
<title>8&#45;&gt;11</title>
<g id="a_edge76"><a xlink:title="include">
<path fill="none" stroke="#1414ce" d="M1065.6,-143.88C1051.09,-134.81 1033.08,-123.55 1017.41,-113.76"/>
<polygon fill="#1414ce" stroke="#1414ce" points="1018.84,-110.52 1008.5,-108.19 1015.13,-116.46 1018.84,-110.52"/>
</a>
</g>
</g>
<!-- 8&#45;&gt;5 -->
<g id="edge77" class="edge">
<title>8&#45;&gt;5</title>
<g id="a_edge77"><a xlink:title="include">
<path fill="none" stroke="#1414ce" d="M1086.57,-143.7C1083.64,-135.81 1080.11,-126.3 1076.86,-117.55"/>
<polygon fill="#1414ce" stroke="#1414ce" points="1080.12,-116.26 1073.35,-108.1 1073.55,-118.7 1080.12,-116.26"/>
</a>
</g>
</g>
<!-- 29&#45;&gt;10 -->
<g id="edge78" class="edge">
<title>29&#45;&gt;10</title>
<g id="a_edge78"><a xlink:title="include">
<path fill="none" stroke="#1414ce" d="M1430,-143.7C1430,-135.98 1430,-126.71 1430,-118.11"/>
<polygon fill="#1414ce" stroke="#1414ce" points="1433.5,-118.1 1430,-108.1 1426.5,-118.1 1433.5,-118.1"/>
</a>
</g>
</g>
<!-- 29&#45;&gt;3 -->
<g id="edge79" class="edge">
<title>29&#45;&gt;3</title>
<g id="a_edge79"><a xlink:title="include">
<path fill="none" stroke="#1414ce" d="M1405.03,-143.87C1367.89,-118.39 1298.01,-70.45 1256.47,-41.96"/>
<polygon fill="#1414ce" stroke="#1414ce" points="1258.28,-38.96 1248.06,-36.19 1254.32,-44.73 1258.28,-38.96"/>
</a>
</g>
</g>
</g>
</svg>
