<?xml version="1.0" encoding="UTF-8" standalone="no"?>
<!DOCTYPE svg PUBLIC "-//W3C//DTD SVG 1.1//EN"
 "http://www.w3.org/Graphics/SVG/1.1/DTD/svg11.dtd">
<!-- Generated by graphviz version 2.43.0 (0)
 -->
<!-- Title: %3 Pages: 1 -->
<svg width="3614pt" height="188pt"
 viewBox="0.00 0.00 3614.00 188.00" xmlns="http://www.w3.org/2000/svg" xmlns:xlink="http://www.w3.org/1999/xlink">
<g id="graph0" class="graph" transform="scale(1 1) rotate(0) translate(4 184)">
<title>%3</title>
<polygon fill="transparent" stroke="transparent" points="-4,4 -4,-184 3610,-184 3610,4 -4,4"/>
<!-- 4 -->
<g id="node1" class="node">
<title>4</title>
<g id="a_node1"><a xlink:title="/__w/AtomVM/AtomVM/src/libAtomVM/nifs.c">
<polygon fill="#ffffff" stroke="black" points="332,-108 0,-108 0,-72 332,-72 332,-108"/>
<text text-anchor="middle" x="166" y="-86.3" font-family="Times,serif" font-size="14.00">/__w/AtomVM/AtomVM/src/libAtomVM/nifs.c</text>
</a>
</g>
</g>
<!-- 1 -->
<g id="node2" class="node">
<title>1</title>
<g id="a_node2"><a xlink:title="/__w/AtomVM/AtomVM/src/libAtomVM/nifs.h">
<polygon fill="#bfbfbf" stroke="black" points="1965.5,-180 1632.5,-180 1632.5,-144 1965.5,-144 1965.5,-180"/>
<text text-anchor="middle" x="1799" y="-158.3" font-family="Times,serif" font-size="14.00">/__w/AtomVM/AtomVM/src/libAtomVM/nifs.h</text>
</a>
</g>
</g>
<!-- 1&#45;&gt;4 -->
<g id="edge3" class="edge">
<title>1&#45;&gt;4</title>
<g id="a_edge3"><a xlink:title="include">
<path fill="none" stroke="#1414ce" d="M1622.39,-157.84C1348.73,-152.21 805.84,-138.08 346,-108 341.46,-107.7 336.85,-107.39 332.21,-107.05"/>
<polygon fill="#1414ce" stroke="#1414ce" points="1622.34,-161.34 1632.41,-158.05 1622.49,-154.34 1622.34,-161.34"/>
</a>
</g>
</g>
<!-- 5 -->
<g id="node3" class="node">
<title>5</title>
<g id="a_node3"><a xlink:title="/__w/AtomVM/AtomVM/src/libAtomVM/otp_crypto.c">
<polygon fill="#ffffff" stroke="black" points="660.5,-36 279.5,-36 279.5,0 660.5,0 660.5,-36"/>
<text text-anchor="middle" x="470" y="-14.3" font-family="Times,serif" font-size="14.00">/__w/AtomVM/AtomVM/src/libAtomVM/otp_crypto.c</text>
</a>
</g>
</g>
<!-- 1&#45;&gt;5 -->
<g id="edge4" class="edge">
<title>1&#45;&gt;5</title>
<g id="a_edge4"><a xlink:title="include">
<path fill="none" stroke="#1414ce" d="M1622.24,-160.86C1250.95,-159.68 420.49,-152.1 378,-108 366.9,-96.48 369.99,-85.85 378,-72 387.32,-55.88 403.6,-44.23 419.91,-36.03"/>
<polygon fill="#1414ce" stroke="#1414ce" points="1622.27,-164.36 1632.28,-160.89 1622.29,-157.36 1622.27,-164.36"/>
</a>
</g>
</g>
<!-- 6 -->
<g id="node5" class="node">
<title>6</title>
<g id="a_node5"><a xlink:title="/__w/AtomVM/AtomVM/src/libAtomVM/otp_crypto.h">
<polygon fill="#ffffff" stroke="black" points="770.5,-108 387.5,-108 387.5,-72 770.5,-72 770.5,-108"/>
<text text-anchor="middle" x="579" y="-86.3" font-family="Times,serif" font-size="14.00">/__w/AtomVM/AtomVM/src/libAtomVM/otp_crypto.h</text>
</a>
</g>
</g>
<!-- 1&#45;&gt;6 -->
<g id="edge5" class="edge">
<title>1&#45;&gt;6</title>
<g id="a_edge5"><a xlink:title="include">
<path fill="none" stroke="#1414ce" d="M1621.92,-153.53C1418.58,-144.55 1075.03,-128.14 780,-108 776.94,-107.79 773.86,-107.58 770.76,-107.36"/>
<polygon fill="#1414ce" stroke="#1414ce" points="1621.96,-157.04 1632.1,-153.98 1622.26,-150.04 1621.96,-157.04"/>
</a>
</g>
</g>
<!-- 13 -->
<g id="node6" class="node">
<title>13</title>
<g id="a_node6"><a xlink:title="/__w/AtomVM/AtomVM/src/libAtomVM/portnifloader.h">
<polygon fill="#ffffff" stroke="black" points="1187,-108 789,-108 789,-72 1187,-72 1187,-108"/>
<text text-anchor="middle" x="988" y="-86.3" font-family="Times,serif" font-size="14.00">/__w/AtomVM/AtomVM/src/libAtomVM/portnifloader.h</text>
</a>
</g>
</g>
<!-- 1&#45;&gt;13 -->
<g id="edge12" class="edge">
<title>1&#45;&gt;13</title>
<g id="a_edge12"><a xlink:title="include">
<path fill="none" stroke="#1414ce" d="M1622.45,-145.76C1493.5,-134.63 1318.6,-119.53 1185.09,-108.01"/>
<polygon fill="#1414ce" stroke="#1414ce" points="1622.17,-149.25 1632.43,-146.62 1622.77,-142.28 1622.17,-149.25"/>
</a>
</g>
</g>
<!-- 3 -->
<g id="node7" class="node">
<title>3</title>
<g id="a_node7"><a xlink:title="/__w/AtomVM/AtomVM/src/libAtomVM/module.c">
<polygon fill="#ffffff" stroke="black" points="1563,-108 1205,-108 1205,-72 1563,-72 1563,-108"/>
<text text-anchor="middle" x="1384" y="-86.3" font-family="Times,serif" font-size="14.00">/__w/AtomVM/AtomVM/src/libAtomVM/module.c</text>
</a>
</g>
</g>
<!-- 1&#45;&gt;3 -->
<g id="edge2" class="edge">
<title>1&#45;&gt;3</title>
<g id="a_edge2"><a xlink:title="include">
<path fill="none" stroke="#1414ce" d="M1688.02,-142.28C1624.91,-131.64 1546.48,-118.41 1485.08,-108.05"/>
<polygon fill="#1414ce" stroke="#1414ce" points="1687.57,-145.75 1698.01,-143.97 1688.73,-138.85 1687.57,-145.75"/>
</a>
</g>
</g>
<!-- 7 -->
<g id="node8" class="node">
<title>7</title>
<g id="a_node8"><a xlink:title="/__w/AtomVM/AtomVM/src/libAtomVM/otp_net.c">
<polygon fill="#ffffff" stroke="black" points="1874.5,-36 1515.5,-36 1515.5,0 1874.5,0 1874.5,-36"/>
<text text-anchor="middle" x="1695" y="-14.3" font-family="Times,serif" font-size="14.00">/__w/AtomVM/AtomVM/src/libAtomVM/otp_net.c</text>
</a>
</g>
</g>
<!-- 1&#45;&gt;7 -->
<g id="edge6" class="edge">
<title>1&#45;&gt;7</title>
<g id="a_edge6"><a xlink:title="include">
<path fill="none" stroke="#1414ce" d="M1687.89,-141.67C1652.87,-133.16 1620.54,-121.9 1610,-108 1600.33,-95.25 1602.24,-85.99 1610,-72 1618.78,-56.19 1634.45,-44.47 1649.97,-36.14"/>
<polygon fill="#1414ce" stroke="#1414ce" points="1687.28,-145.12 1697.82,-143.99 1688.88,-138.3 1687.28,-145.12"/>
</a>
</g>
</g>
<!-- 8 -->
<g id="node9" class="node">
<title>8</title>
<g id="a_node9"><a xlink:title="/__w/AtomVM/AtomVM/src/libAtomVM/otp_net.h">
<polygon fill="#ffffff" stroke="black" points="1979,-108 1619,-108 1619,-72 1979,-72 1979,-108"/>
<text text-anchor="middle" x="1799" y="-86.3" font-family="Times,serif" font-size="14.00">/__w/AtomVM/AtomVM/src/libAtomVM/otp_net.h</text>
</a>
</g>
</g>
<!-- 1&#45;&gt;8 -->
<g id="edge7" class="edge">
<title>1&#45;&gt;8</title>
<g id="a_edge7"><a xlink:title="include">
<path fill="none" stroke="#1414ce" d="M1799,-133.67C1799,-125.05 1799,-115.79 1799,-108.1"/>
<polygon fill="#1414ce" stroke="#1414ce" points="1795.5,-133.7 1799,-143.7 1802.5,-133.7 1795.5,-133.7"/>
</a>
</g>
</g>
<!-- 2 -->
<g id="node10" class="node">
<title>2</title>
<g id="a_node10"><a xlink:title="/__w/AtomVM/AtomVM/src/libAtomVM/dist_nifs.c">
<polygon fill="#ffffff" stroke="black" points="2362.5,-108 1997.5,-108 1997.5,-72 2362.5,-72 2362.5,-108"/>
<text text-anchor="middle" x="2180" y="-86.3" font-family="Times,serif" font-size="14.00">/__w/AtomVM/AtomVM/src/libAtomVM/dist_nifs.c</text>
</a>
</g>
</g>
<!-- 1&#45;&gt;2 -->
<g id="edge1" class="edge">
<title>1&#45;&gt;2</title>
<g id="a_edge1"><a xlink:title="include">
<path fill="none" stroke="#1414ce" d="M1901.61,-142.15C1959.42,-131.53 2031.07,-118.36 2087.2,-108.05"/>
<polygon fill="#1414ce" stroke="#1414ce" points="1900.92,-138.72 1891.72,-143.97 1902.18,-145.6 1900.92,-138.72"/>
</a>
</g>
</g>
<!-- 9 -->
<g id="node11" class="node">
<title>9</title>
<g id="a_node11"><a xlink:title="/__w/AtomVM/AtomVM/src/libAtomVM/otp_socket.c">
<polygon fill="#ffffff" stroke="black" points="2606.5,-36 2225.5,-36 2225.5,0 2606.5,0 2606.5,-36"/>
<text text-anchor="middle" x="2416" y="-14.3" font-family="Times,serif" font-size="14.00">/__w/AtomVM/AtomVM/src/libAtomVM/otp_socket.c</text>
</a>
</g>
</g>
<!-- 1&#45;&gt;9 -->
<g id="edge8" class="edge">
<title>1&#45;&gt;9</title>
<g id="a_edge8"><a xlink:title="include">
<path fill="none" stroke="#1414ce" d="M1975.89,-153.18C2131.67,-144.91 2338.7,-129.98 2371,-108 2395.62,-91.25 2407.47,-56.83 2412.6,-36.05"/>
<polygon fill="#1414ce" stroke="#1414ce" points="1975.51,-149.7 1965.7,-153.72 1975.87,-156.69 1975.51,-149.7"/>
</a>
</g>
</g>
<!-- 10 -->
<g id="node12" class="node">
<title>10</title>
<g id="a_node12"><a xlink:title="/__w/AtomVM/AtomVM/src/libAtomVM/otp_socket.h">
<polygon fill="#ffffff" stroke="black" points="2800.5,-108 2417.5,-108 2417.5,-72 2800.5,-72 2800.5,-108"/>
<text text-anchor="middle" x="2609" y="-86.3" font-family="Times,serif" font-size="14.00">/__w/AtomVM/AtomVM/src/libAtomVM/otp_socket.h</text>
</a>
</g>
</g>
<!-- 1&#45;&gt;10 -->
<g id="edge9" class="edge">
<title>1&#45;&gt;10</title>
<g id="a_edge9"><a xlink:title="include">
<path fill="none" stroke="#1414ce" d="M1975.95,-145.71C2106.41,-134.43 2283.71,-119.11 2417.49,-107.55"/>
<polygon fill="#1414ce" stroke="#1414ce" points="1975.51,-142.23 1965.85,-146.58 1976.11,-149.21 1975.51,-142.23"/>
</a>
</g>
</g>
<!-- 11 -->
<g id="node13" class="node">
<title>11</title>
<g id="a_node13"><a xlink:title="/__w/AtomVM/AtomVM/src/libAtomVM/otp_ssl.c">
<polygon fill="#ffffff" stroke="black" points="3005.5,-36 2650.5,-36 2650.5,0 3005.5,0 3005.5,-36"/>
<text text-anchor="middle" x="2828" y="-14.3" font-family="Times,serif" font-size="14.00">/__w/AtomVM/AtomVM/src/libAtomVM/otp_ssl.c</text>
</a>
</g>
</g>
<!-- 1&#45;&gt;11 -->
<g id="edge10" class="edge">
<title>1&#45;&gt;11</title>
<g id="a_edge10"><a xlink:title="include">
<path fill="none" stroke="#1414ce" d="M1975.82,-157.26C2257.04,-150.53 2777.89,-134.55 2809,-108 2829.55,-90.46 2831.12,-56.64 2829.9,-36.12"/>
<polygon fill="#1414ce" stroke="#1414ce" points="1975.42,-153.77 1965.51,-157.5 1975.59,-160.76 1975.42,-153.77"/>
</a>
</g>
</g>
<!-- 12 -->
<g id="node14" class="node">
<title>12</title>
<g id="a_node14"><a xlink:title="/__w/AtomVM/AtomVM/src/libAtomVM/otp_ssl.h">
<polygon fill="#ffffff" stroke="black" points="3212,-108 2856,-108 2856,-72 3212,-72 3212,-108"/>
<text text-anchor="middle" x="3034" y="-86.3" font-family="Times,serif" font-size="14.00">/__w/AtomVM/AtomVM/src/libAtomVM/otp_ssl.h</text>
</a>
</g>
</g>
<!-- 1&#45;&gt;12 -->
<g id="edge11" class="edge">
<title>1&#45;&gt;12</title>
<g id="a_edge11"><a xlink:title="include">
<path fill="none" stroke="#1414ce" d="M1975.84,-154.04C2183.4,-145.4 2537.92,-129.18 2842,-108 2846.59,-107.68 2851.24,-107.35 2855.93,-107"/>
<polygon fill="#1414ce" stroke="#1414ce" points="1975.6,-150.55 1965.76,-154.46 1975.89,-157.54 1975.6,-150.55"/>
</a>
</g>
</g>
<!-- 15 -->
<g id="node15" class="node">
<title>15</title>
<g id="a_node15"><a xlink:title="/__w/AtomVM/AtomVM/src/libAtomVM/posix_nifs.c">
<polygon fill="#ffffff" stroke="black" points="3606,-108 3230,-108 3230,-72 3606,-72 3606,-108"/>
<text text-anchor="middle" x="3418" y="-86.3" font-family="Times,serif" font-size="14.00">/__w/AtomVM/AtomVM/src/libAtomVM/posix_nifs.c</text>
</a>
</g>
</g>
<!-- 1&#45;&gt;15 -->
<g id="edge13" class="edge">
<title>1&#45;&gt;15</title>
<g id="a_edge13"><a xlink:title="include">
<path fill="none" stroke="#1414ce" d="M1975.76,-157.19C2244.78,-150.75 2773.06,-135.66 3221,-108 3223.91,-107.82 3226.85,-107.63 3229.8,-107.44"/>
<polygon fill="#1414ce" stroke="#1414ce" points="1975.42,-153.69 1965.51,-157.43 1975.59,-160.69 1975.42,-153.69"/>
</a>
</g>
</g>
<!-- 14 -->
<g id="node4" class="node">
<title>14</title>
<g id="a_node4"><a xlink:title="/__w/AtomVM/AtomVM/src/libAtomVM/portnifloader.c">
<polygon fill="#ffffff" stroke="black" points="1186.5,-36 789.5,-36 789.5,0 1186.5,0 1186.5,-36"/>
<text text-anchor="middle" x="988" y="-14.3" font-family="Times,serif" font-size="14.00">/__w/AtomVM/AtomVM/src/libAtomVM/portnifloader.c</text>
</a>
</g>
</g>
<!-- 6&#45;&gt;5 -->
<g id="edge14" class="edge">
<title>6&#45;&gt;5</title>
<g id="a_edge14"><a xlink:title="include">
<path fill="none" stroke="#1414ce" d="M543.67,-66.31C528.43,-56.53 510.9,-45.27 496.77,-36.19"/>
<polygon fill="#1414ce" stroke="#1414ce" points="542.03,-69.42 552.34,-71.88 545.81,-63.53 542.03,-69.42"/>
</a>
</g>
</g>
<!-- 13&#45;&gt;14 -->
<g id="edge15" class="edge">
<title>13&#45;&gt;14</title>
<g id="a_edge15"><a xlink:title="include">
<path fill="none" stroke="#1414ce" d="M988,-61.67C988,-53.05 988,-43.79 988,-36.1"/>
<polygon fill="#1414ce" stroke="#1414ce" points="984.5,-61.7 988,-71.7 991.5,-61.7 984.5,-61.7"/>
</a>
</g>
</g>
<!-- 8&#45;&gt;7 -->
<g id="edge16" class="edge">
<title>8&#45;&gt;7</title>
<g id="a_edge16"><a xlink:title="include">
<path fill="none" stroke="#1414ce" d="M1764.88,-66.04C1750.44,-56.32 1733.9,-45.18 1720.54,-36.19"/>
<polygon fill="#1414ce" stroke="#1414ce" points="1763.31,-69.2 1773.56,-71.88 1767.22,-63.39 1763.31,-69.2"/>
</a>
</g>
</g>
<!-- 10&#45;&gt;9 -->
<g id="edge17" class="edge">
<title>10&#45;&gt;9</title>
<g id="a_edge17"><a xlink:title="include">
<path fill="none" stroke="#1414ce" d="M2552.02,-68.33C2523.7,-58.06 2489.89,-45.8 2463.06,-36.07"/>
<polygon fill="#1414ce" stroke="#1414ce" points="2551.19,-71.76 2561.79,-71.88 2553.58,-65.18 2551.19,-71.76"/>
</a>
</g>
</g>
<!-- 10&#45;&gt;11 -->
<g id="edge18" class="edge">
<title>10&#45;&gt;11</title>
<g id="a_edge18"><a xlink:title="include">
<path fill="none" stroke="#1414ce" d="M2672.12,-68.83C2704.52,-58.47 2743.56,-45.99 2774.47,-36.11"/>
<polygon fill="#1414ce" stroke="#1414ce" points="2670.75,-65.59 2662.29,-71.97 2672.88,-72.25 2670.75,-65.59"/>
</a>
</g>
</g>
<!-- 12&#45;&gt;11 -->
<g id="edge19" class="edge">
<title>12&#45;&gt;11</title>
<g id="a_edge19"><a xlink:title="include">
<path fill="none" stroke="#1414ce" d="M2974.23,-68.69C2943.84,-58.36 2907.3,-45.95 2878.35,-36.11"/>
<polygon fill="#1414ce" stroke="#1414ce" points="2973.28,-72.06 2983.87,-71.97 2975.53,-65.43 2973.28,-72.06"/>
</a>
</g>
</g>
</g>
</svg>
