<?xml version="1.0" encoding="UTF-8" standalone="no"?>
<!DOCTYPE svg PUBLIC "-//W3C//DTD SVG 1.1//EN"
 "http://www.w3.org/Graphics/SVG/1.1/DTD/svg11.dtd">
<!-- Generated by graphviz version 2.43.0 (0)
 -->
<!-- Title: %3 Pages: 1 -->
<svg width="1441pt" height="836pt"
 viewBox="0.00 0.00 1441.00 836.00" xmlns="http://www.w3.org/2000/svg" xmlns:xlink="http://www.w3.org/1999/xlink">
<g id="graph0" class="graph" transform="scale(1 1) rotate(0) translate(4 832)">
<title>%3</title>
<polygon fill="transparent" stroke="transparent" points="-4,4 -4,-832 1437,-832 1437,4 -4,4"/>
<!-- 8 -->
<g id="node1" class="node">
<title>8</title>
<g id="a_node1"><a xlink:title="stdbool.h">
<polygon fill="#ffffff" stroke="black" points="527.5,-108 444.5,-108 444.5,-72 527.5,-72 527.5,-108"/>
<text text-anchor="middle" x="486" y="-86.3" font-family="Times,serif" font-size="14.00">stdbool.h</text>
</a>
</g>
</g>
<!-- 25 -->
<g id="node2" class="node">
<title>25</title>
<g id="a_node2"><a xlink:title="refc_binary.h">
<polygon fill="#ffffff" stroke="black" points="790,-396 682,-396 682,-360 790,-360 790,-396"/>
<text text-anchor="middle" x="736" y="-374.3" font-family="Times,serif" font-size="14.00">refc_binary.h</text>
</a>
</g>
</g>
<!-- 25&#45;&gt;8 -->
<g id="edge1" class="edge">
<title>25&#45;&gt;8</title>
<g id="a_edge1"><a xlink:title="include">
<path fill="none" stroke="#1414ce" d="M710.62,-359.95C699.29,-350.79 687.12,-338.4 681,-324 674.74,-309.28 674.78,-302.74 681,-288 689.93,-266.86 709.07,-273.14 718,-252 736.67,-207.78 747.92,-181.53 718,-144 695.9,-116.29 599.22,-101.91 537.85,-95.45"/>
<polygon fill="#1414ce" stroke="#1414ce" points="537.87,-91.93 527.57,-94.4 537.16,-98.9 537.87,-91.93"/>
</a>
</g>
</g>
<!-- 15 -->
<g id="node7" class="node">
<title>15</title>
<g id="a_node7"><a xlink:title="list.h">
<polygon fill="#ffffff" stroke="black" points="475,-180 421,-180 421,-144 475,-144 475,-180"/>
<text text-anchor="middle" x="448" y="-158.3" font-family="Times,serif" font-size="14.00">list.h</text>
</a>
</g>
</g>
<!-- 25&#45;&gt;15 -->
<g id="edge3" class="edge">
<title>25&#45;&gt;15</title>
<g id="a_edge3"><a xlink:title="include">
<path fill="none" stroke="#1414ce" d="M685.84,-359.85C634.31,-340.24 554.21,-303.99 500,-252 481.63,-234.38 467.63,-208.87 458.8,-189.68"/>
<polygon fill="#1414ce" stroke="#1414ce" points="461.9,-188.03 454.66,-180.29 455.49,-190.85 461.9,-188.03"/>
</a>
</g>
</g>
<!-- 6 -->
<g id="node9" class="node">
<title>6</title>
<g id="a_node9"><a xlink:title="stdlib.h">
<polygon fill="#ffffff" stroke="black" points="1186.5,-108 1115.5,-108 1115.5,-72 1186.5,-72 1186.5,-108"/>
<text text-anchor="middle" x="1151" y="-86.3" font-family="Times,serif" font-size="14.00">stdlib.h</text>
</a>
</g>
</g>
<!-- 25&#45;&gt;6 -->
<g id="edge2" class="edge">
<title>25&#45;&gt;6</title>
<g id="a_edge2"><a xlink:title="include">
<path fill="none" stroke="#1414ce" d="M790.25,-376.1C875.77,-371.59 1041.37,-349.87 1131,-252 1164.27,-215.67 1161.42,-153.83 1156.27,-118.29"/>
<polygon fill="#1414ce" stroke="#1414ce" points="1159.68,-117.48 1154.63,-108.17 1152.77,-118.6 1159.68,-117.48"/>
</a>
</g>
</g>
<!-- 26 -->
<g id="node14" class="node">
<title>26</title>
<g id="a_node14"><a xlink:title="resources.h">
<polygon fill="#ffffff" stroke="black" points="790,-324 690,-324 690,-288 790,-288 790,-324"/>
<text text-anchor="middle" x="740" y="-302.3" font-family="Times,serif" font-size="14.00">resources.h</text>
</a>
</g>
</g>
<!-- 25&#45;&gt;26 -->
<g id="edge4" class="edge">
<title>25&#45;&gt;26</title>
<g id="a_edge4"><a xlink:title="include">
<path fill="none" stroke="#1414ce" d="M736.99,-359.7C737.43,-351.98 737.96,-342.71 738.45,-334.11"/>
<polygon fill="#1414ce" stroke="#1414ce" points="741.95,-334.29 739.02,-324.1 734.96,-333.89 741.95,-334.29"/>
</a>
</g>
</g>
<!-- 5 -->
<g id="node3" class="node">
<title>5</title>
<g id="a_node3"><a xlink:title="atom.h">
<polygon fill="#ffffff" stroke="black" points="913,-468 847,-468 847,-432 913,-432 913,-468"/>
<text text-anchor="middle" x="880" y="-446.3" font-family="Times,serif" font-size="14.00">atom.h</text>
</a>
</g>
</g>
<!-- 4 -->
<g id="node8" class="node">
<title>4</title>
<g id="a_node8"><a xlink:title="stdint.h">
<polygon fill="#ffffff" stroke="black" points="859,-36 787,-36 787,0 859,0 859,-36"/>
<text text-anchor="middle" x="823" y="-14.3" font-family="Times,serif" font-size="14.00">stdint.h</text>
</a>
</g>
</g>
<!-- 5&#45;&gt;4 -->
<g id="edge5" class="edge">
<title>5&#45;&gt;4</title>
<g id="a_edge5"><a xlink:title="include">
<path fill="none" stroke="#1414ce" d="M877.73,-431.88C868.97,-365.8 837.33,-127.08 826.59,-46.1"/>
<polygon fill="#1414ce" stroke="#1414ce" points="830.06,-45.62 825.28,-36.17 823.12,-46.54 830.06,-45.62"/>
</a>
</g>
</g>
<!-- 5&#45;&gt;6 -->
<g id="edge6" class="edge">
<title>5&#45;&gt;6</title>
<g id="a_edge6"><a xlink:title="include">
<path fill="none" stroke="#1414ce" d="M913,-434.81C1009.87,-392.43 1289.67,-264.43 1338,-180 1345.95,-166.11 1347.83,-156.63 1338,-144 1299.89,-95.02 1261.85,-124.45 1196.57,-107.73"/>
<polygon fill="#1414ce" stroke="#1414ce" points="1197.31,-104.3 1186.73,-104.92 1195.38,-111.03 1197.31,-104.3"/>
</a>
</g>
</g>
<!-- 11 -->
<g id="node4" class="node">
<title>11</title>
<g id="a_node4"><a xlink:title="assert.h">
<polygon fill="#ffffff" stroke="black" points="1213,-36 1139,-36 1139,0 1213,0 1213,-36"/>
<text text-anchor="middle" x="1176" y="-14.3" font-family="Times,serif" font-size="14.00">assert.h</text>
</a>
</g>
</g>
<!-- 23 -->
<g id="node5" class="node">
<title>23</title>
<g id="a_node5"><a xlink:title="utils.h">
<polygon fill="#ffffff" stroke="black" points="971,-180 909,-180 909,-144 971,-144 971,-180"/>
<text text-anchor="middle" x="940" y="-158.3" font-family="Times,serif" font-size="14.00">utils.h</text>
</a>
</g>
</g>
<!-- 23&#45;&gt;6 -->
<g id="edge9" class="edge">
<title>23&#45;&gt;6</title>
<g id="a_edge9"><a xlink:title="include">
<path fill="none" stroke="#1414ce" d="M971.13,-150.67C1006.61,-138.9 1064.92,-119.56 1105.49,-106.1"/>
<polygon fill="#1414ce" stroke="#1414ce" points="1106.75,-109.37 1115.14,-102.9 1104.55,-102.72 1106.75,-109.37"/>
</a>
</g>
</g>
<!-- 24 -->
<g id="node16" class="node">
<title>24</title>
<g id="a_node16"><a xlink:title="stddef.h">
<polygon fill="#ffffff" stroke="black" points="1009,-108 935,-108 935,-72 1009,-72 1009,-108"/>
<text text-anchor="middle" x="972" y="-86.3" font-family="Times,serif" font-size="14.00">stddef.h</text>
</a>
</g>
</g>
<!-- 23&#45;&gt;24 -->
<g id="edge7" class="edge">
<title>23&#45;&gt;24</title>
<g id="a_edge7"><a xlink:title="include">
<path fill="none" stroke="#1414ce" d="M947.91,-143.7C951.55,-135.73 955.95,-126.1 959.99,-117.26"/>
<polygon fill="#1414ce" stroke="#1414ce" points="963.21,-118.65 964.18,-108.1 956.84,-115.74 963.21,-118.65"/>
</a>
</g>
</g>
<!-- 17 -->
<g id="node30" class="node">
<title>17</title>
<g id="a_node30"><a xlink:title="stdio.h">
<polygon fill="#ffffff" stroke="black" points="916.5,-108 851.5,-108 851.5,-72 916.5,-72 916.5,-108"/>
<text text-anchor="middle" x="884" y="-86.3" font-family="Times,serif" font-size="14.00">stdio.h</text>
</a>
</g>
</g>
<!-- 23&#45;&gt;17 -->
<g id="edge8" class="edge">
<title>23&#45;&gt;17</title>
<g id="a_edge8"><a xlink:title="include">
<path fill="none" stroke="#1414ce" d="M926.16,-143.7C919.51,-135.39 911.42,-125.28 904.11,-116.14"/>
<polygon fill="#1414ce" stroke="#1414ce" points="906.66,-113.73 897.68,-108.1 901.2,-118.1 906.66,-113.73"/>
</a>
</g>
</g>
<!-- 16 -->
<g id="node6" class="node">
<title>16</title>
<g id="a_node6"><a xlink:title="synclist.h">
<polygon fill="#ffffff" stroke="black" points="419.5,-252 334.5,-252 334.5,-216 419.5,-216 419.5,-252"/>
<text text-anchor="middle" x="377" y="-230.3" font-family="Times,serif" font-size="14.00">synclist.h</text>
</a>
</g>
</g>
<!-- 16&#45;&gt;15 -->
<g id="edge11" class="edge">
<title>16&#45;&gt;15</title>
<g id="a_edge11"><a xlink:title="include">
<path fill="none" stroke="#1414ce" d="M394.55,-215.7C403.23,-207.14 413.86,-196.66 423.35,-187.3"/>
<polygon fill="#1414ce" stroke="#1414ce" points="425.99,-189.62 430.65,-180.1 421.07,-184.63 425.99,-189.62"/>
</a>
</g>
</g>
<!-- 18 -->
<g id="node25" class="node">
<title>18</title>
<g id="a_node25"><a xlink:title="smp.h">
<polygon fill="#ffffff" stroke="black" points="215,-180 155,-180 155,-144 215,-144 215,-180"/>
<text text-anchor="middle" x="185" y="-158.3" font-family="Times,serif" font-size="14.00">smp.h</text>
</a>
</g>
</g>
<!-- 16&#45;&gt;18 -->
<g id="edge12" class="edge">
<title>16&#45;&gt;18</title>
<g id="a_edge12"><a xlink:title="include">
<path fill="none" stroke="#1414ce" d="M334.39,-217.46C301.65,-205.53 256.76,-189.16 224.76,-177.5"/>
<polygon fill="#1414ce" stroke="#1414ce" points="225.86,-174.17 215.27,-174.03 223.46,-180.75 225.86,-174.17"/>
</a>
</g>
</g>
<!-- 16&#45;&gt;17 -->
<g id="edge10" class="edge">
<title>16&#45;&gt;17</title>
<g id="a_edge10"><a xlink:title="include">
<path fill="none" stroke="#1414ce" d="M419.79,-221.02C515.5,-194.21 745.92,-129.67 841.43,-102.92"/>
<polygon fill="#1414ce" stroke="#1414ce" points="842.63,-106.22 851.32,-100.15 840.74,-99.48 842.63,-106.22"/>
</a>
</g>
</g>
<!-- 15&#45;&gt;8 -->
<g id="edge13" class="edge">
<title>15&#45;&gt;8</title>
<g id="a_edge13"><a xlink:title="include">
<path fill="none" stroke="#1414ce" d="M457.39,-143.7C461.76,-135.64 467.06,-125.89 471.9,-116.98"/>
<polygon fill="#1414ce" stroke="#1414ce" points="475.02,-118.56 476.71,-108.1 468.87,-115.22 475.02,-118.56"/>
</a>
</g>
</g>
<!-- 2 -->
<g id="node10" class="node">
<title>2</title>
<g id="a_node10"><a xlink:title="context.h">
<polygon fill="#ffffff" stroke="black" points="342.5,-684 259.5,-684 259.5,-648 342.5,-648 342.5,-684"/>
<text text-anchor="middle" x="301" y="-662.3" font-family="Times,serif" font-size="14.00">context.h</text>
</a>
</g>
</g>
<!-- 2&#45;&gt;15 -->
<g id="edge15" class="edge">
<title>2&#45;&gt;15</title>
<g id="a_edge15"><a xlink:title="include">
<path fill="none" stroke="#1414ce" d="M294.47,-647.6C271.32,-582.59 199.9,-350.82 304,-216 329.34,-183.18 377.1,-170.68 410.65,-165.92"/>
<polygon fill="#1414ce" stroke="#1414ce" points="411.51,-169.34 421,-164.63 410.64,-162.39 411.51,-169.34"/>
</a>
</g>
</g>
<!-- 19 -->
<g id="node15" class="node">
<title>19</title>
<g id="a_node15"><a xlink:title="term.h">
<polygon fill="#ffffff" stroke="black" points="1039.5,-468 974.5,-468 974.5,-432 1039.5,-432 1039.5,-468"/>
<text text-anchor="middle" x="1007" y="-446.3" font-family="Times,serif" font-size="14.00">term.h</text>
</a>
</g>
</g>
<!-- 2&#45;&gt;19 -->
<g id="edge18" class="edge">
<title>2&#45;&gt;19</title>
<g id="a_edge18"><a xlink:title="include">
<path fill="none" stroke="#1414ce" d="M342.57,-658.08C409.36,-646.82 537.56,-624.5 582,-612 726.04,-571.47 889.89,-502.64 965.17,-469.68"/>
<polygon fill="#1414ce" stroke="#1414ce" points="966.58,-472.88 974.33,-465.65 963.77,-466.47 966.58,-472.88"/>
</a>
</g>
</g>
<!-- 3 -->
<g id="node24" class="node">
<title>3</title>
<g id="a_node24"><a xlink:title="globalcontext.h">
<polygon fill="#ffffff" stroke="black" points="573.5,-612 446.5,-612 446.5,-576 573.5,-576 573.5,-612"/>
<text text-anchor="middle" x="510" y="-590.3" font-family="Times,serif" font-size="14.00">globalcontext.h</text>
</a>
</g>
</g>
<!-- 2&#45;&gt;3 -->
<g id="edge14" class="edge">
<title>2&#45;&gt;3</title>
<g id="a_edge14"><a xlink:title="include">
<path fill="none" stroke="#1414ce" d="M342.54,-651.09C372.99,-640.89 414.8,-626.88 449.03,-615.42"/>
<polygon fill="#1414ce" stroke="#1414ce" points="450.55,-618.6 458.92,-612.11 448.33,-611.96 450.55,-618.6"/>
</a>
</g>
</g>
<!-- 2&#45;&gt;18 -->
<g id="edge17" class="edge">
<title>2&#45;&gt;18</title>
<g id="a_edge17"><a xlink:title="include">
<path fill="none" stroke="#1414ce" d="M259.4,-660.17C222.7,-654.13 169.39,-640.81 132,-612 94.98,-583.47 76,-569.73 76,-523 76,-523 76,-523 76,-305 76,-261.81 88.25,-249.91 115,-216 124.04,-204.54 136.11,-194.24 147.68,-185.83"/>
<polygon fill="#1414ce" stroke="#1414ce" points="149.76,-188.64 155.97,-180.05 145.76,-182.9 149.76,-188.64"/>
</a>
</g>
</g>
<!-- 28 -->
<g id="node28" class="node">
<title>28</title>
<g id="a_node28"><a xlink:title="timer_list.h">
<polygon fill="#ffffff" stroke="black" points="240,-252 142,-252 142,-216 240,-216 240,-252"/>
<text text-anchor="middle" x="191" y="-230.3" font-family="Times,serif" font-size="14.00">timer_list.h</text>
</a>
</g>
</g>
<!-- 2&#45;&gt;28 -->
<g id="edge19" class="edge">
<title>2&#45;&gt;28</title>
<g id="a_edge19"><a xlink:title="include">
<path fill="none" stroke="#1414ce" d="M259.32,-662.53C224.77,-658.02 177.63,-645.63 154,-612 76.69,-501.95 146.51,-327.14 177.73,-261.27"/>
<polygon fill="#1414ce" stroke="#1414ce" points="181,-262.54 182.2,-252.01 174.7,-259.49 181,-262.54"/>
</a>
</g>
</g>
<!-- 27 -->
<g id="node29" class="node">
<title>27</title>
<g id="a_node29"><a xlink:title="mailbox.h">
<polygon fill="#ffffff" stroke="black" points="638,-252 552,-252 552,-216 638,-216 638,-252"/>
<text text-anchor="middle" x="595" y="-230.3" font-family="Times,serif" font-size="14.00">mailbox.h</text>
</a>
</g>
</g>
<!-- 2&#45;&gt;27 -->
<g id="edge16" class="edge">
<title>2&#45;&gt;27</title>
<g id="a_edge16"><a xlink:title="include">
<path fill="none" stroke="#1414ce" d="M304.6,-647.83C311.37,-617.6 327.61,-553.37 353,-504 407.64,-397.76 425.87,-369.74 513,-288 525.17,-276.58 540.1,-266.11 553.88,-257.54"/>
<polygon fill="#1414ce" stroke="#1414ce" points="555.97,-260.37 562.72,-252.2 552.35,-254.38 555.97,-260.37"/>
</a>
</g>
</g>
<!-- 22 -->
<g id="node11" class="node">
<title>22</title>
<g id="a_node11"><a xlink:title="memory.h">
<polygon fill="#ffffff" stroke="black" points="1122,-252 1036,-252 1036,-216 1122,-216 1122,-252"/>
<text text-anchor="middle" x="1079" y="-230.3" font-family="Times,serif" font-size="14.00">memory.h</text>
</a>
</g>
</g>
<!-- 22&#45;&gt;23 -->
<g id="edge24" class="edge">
<title>22&#45;&gt;23</title>
<g id="a_edge24"><a xlink:title="include">
<path fill="none" stroke="#1414ce" d="M1045,-215.88C1025.48,-206.05 1000.86,-193.65 980.37,-183.33"/>
<polygon fill="#1414ce" stroke="#1414ce" points="981.78,-180.12 971.28,-178.75 978.63,-186.37 981.78,-180.12"/>
</a>
</g>
</g>
<!-- 22&#45;&gt;4 -->
<g id="edge20" class="edge">
<title>22&#45;&gt;4</title>
<g id="a_edge20"><a xlink:title="include">
<path fill="none" stroke="#1414ce" d="M1081.58,-215.78C1085.43,-183.09 1088.61,-111.79 1051,-72 1026.57,-46.16 929.01,-30.88 869.7,-23.8"/>
<polygon fill="#1414ce" stroke="#1414ce" points="869.8,-20.29 859.46,-22.61 868.99,-27.24 869.8,-20.29"/>
</a>
</g>
</g>
<!-- 22&#45;&gt;6 -->
<g id="edge21" class="edge">
<title>22&#45;&gt;6</title>
<g id="a_edge21"><a xlink:title="include">
<path fill="none" stroke="#1414ce" d="M1098.72,-215.56C1108.5,-205.95 1119.74,-193.29 1127,-180 1137.51,-160.74 1143.65,-136.59 1147.08,-118.3"/>
<polygon fill="#1414ce" stroke="#1414ce" points="1150.56,-118.74 1148.8,-108.3 1143.66,-117.56 1150.56,-118.74"/>
</a>
</g>
</g>
<!-- 9 -->
<g id="node17" class="node">
<title>9</title>
<g id="a_node17"><a xlink:title="erl_nif.h">
<polygon fill="#ffffff" stroke="black" points="1329,-180 1255,-180 1255,-144 1329,-144 1329,-180"/>
<text text-anchor="middle" x="1292" y="-158.3" font-family="Times,serif" font-size="14.00">erl_nif.h</text>
</a>
</g>
</g>
<!-- 22&#45;&gt;9 -->
<g id="edge22" class="edge">
<title>22&#45;&gt;9</title>
<g id="a_edge22"><a xlink:title="include">
<path fill="none" stroke="#1414ce" d="M1122.1,-218.83C1157.66,-207.15 1208.04,-190.59 1244.7,-178.54"/>
<polygon fill="#1414ce" stroke="#1414ce" points="1246.25,-181.72 1254.65,-175.27 1244.06,-175.07 1246.25,-181.72"/>
</a>
</g>
</g>
<!-- 10 -->
<g id="node23" class="node">
<title>10</title>
<g id="a_node23"><a xlink:title="term_typedef.h">
<polygon fill="#ffffff" stroke="black" points="1329.5,-108 1204.5,-108 1204.5,-72 1329.5,-72 1329.5,-108"/>
<text text-anchor="middle" x="1267" y="-86.3" font-family="Times,serif" font-size="14.00">term_typedef.h</text>
</a>
</g>
</g>
<!-- 22&#45;&gt;10 -->
<g id="edge23" class="edge">
<title>22&#45;&gt;10</title>
<g id="a_edge23"><a xlink:title="include">
<path fill="none" stroke="#1414ce" d="M1101.68,-215.87C1135.27,-190.5 1198.35,-142.85 1236.13,-114.32"/>
<polygon fill="#1414ce" stroke="#1414ce" points="1238.37,-117.01 1244.24,-108.19 1234.15,-111.42 1238.37,-117.01"/>
</a>
</g>
</g>
<!-- 29 -->
<g id="node12" class="node">
<title>29</title>
<g id="a_node12"><a xlink:title="module.h">
<polygon fill="#ffffff" stroke="black" points="653.5,-756 570.5,-756 570.5,-720 653.5,-720 653.5,-756"/>
<text text-anchor="middle" x="612" y="-734.3" font-family="Times,serif" font-size="14.00">module.h</text>
</a>
</g>
</g>
<!-- 29&#45;&gt;8 -->
<g id="edge25" class="edge">
<title>29&#45;&gt;8</title>
<g id="a_edge25"><a xlink:title="include">
<path fill="none" stroke="#1414ce" d="M570.26,-735.64C438.17,-730.21 38,-704.71 38,-595 38,-595 38,-595 38,-305 38,-218.84 70.85,-186.16 146,-144 194.4,-116.84 351.65,-101.19 434.25,-94.64"/>
<polygon fill="#1414ce" stroke="#1414ce" points="434.72,-98.12 444.42,-93.85 434.18,-91.14 434.72,-98.12"/>
</a>
</g>
</g>
<!-- 29&#45;&gt;5 -->
<g id="edge27" class="edge">
<title>29&#45;&gt;5</title>
<g id="a_edge27"><a xlink:title="include">
<path fill="none" stroke="#1414ce" d="M627.96,-719.97C673.38,-671.5 803.47,-532.67 856.79,-475.77"/>
<polygon fill="#1414ce" stroke="#1414ce" points="859.5,-478 863.78,-468.31 854.39,-473.21 859.5,-478"/>
</a>
</g>
</g>
<!-- 29&#45;&gt;4 -->
<g id="edge26" class="edge">
<title>29&#45;&gt;4</title>
<g id="a_edge26"><a xlink:title="include">
<path fill="none" stroke="#1414ce" d="M570.25,-736.92C459.33,-736.09 159.92,-729.57 74,-684 28.55,-659.9 0,-646.44 0,-595 0,-595 0,-595 0,-161 0,-66.94 101.08,-96.08 192,-72 302.6,-42.71 650.5,-26.01 776.69,-20.79"/>
<polygon fill="#1414ce" stroke="#1414ce" points="776.95,-24.28 786.8,-20.38 776.67,-17.29 776.95,-24.28"/>
</a>
</g>
</g>
<!-- 29&#45;&gt;2 -->
<g id="edge30" class="edge">
<title>29&#45;&gt;2</title>
<g id="a_edge30"><a xlink:title="include">
<path fill="none" stroke="#1414ce" d="M570.38,-727.63C514.09,-714.96 413.74,-692.38 352.69,-678.63"/>
<polygon fill="#1414ce" stroke="#1414ce" points="353.39,-675.21 342.87,-676.42 351.86,-682.03 353.39,-675.21"/>
</a>
</g>
</g>
<!-- 32 -->
<g id="node13" class="node">
<title>32</title>
<g id="a_node13"><a xlink:title="valueshashtable.h">
<polygon fill="#ffffff" stroke="black" points="565,-684 419,-684 419,-648 565,-648 565,-684"/>
<text text-anchor="middle" x="492" y="-662.3" font-family="Times,serif" font-size="14.00">valueshashtable.h</text>
</a>
</g>
</g>
<!-- 29&#45;&gt;32 -->
<g id="edge34" class="edge">
<title>29&#45;&gt;32</title>
<g id="a_edge34"><a xlink:title="include">
<path fill="none" stroke="#1414ce" d="M582.64,-719.88C566.95,-710.72 547.44,-699.34 530.55,-689.48"/>
<polygon fill="#1414ce" stroke="#1414ce" points="531.87,-686.21 521.47,-684.19 528.34,-692.25 531.87,-686.21"/>
</a>
</g>
</g>
<!-- 29&#45;&gt;19 -->
<g id="edge33" class="edge">
<title>29&#45;&gt;19</title>
<g id="a_edge33"><a xlink:title="include">
<path fill="none" stroke="#1414ce" d="M653.7,-737.86C734.49,-736.96 911.02,-721.83 986,-612 1013.39,-571.88 1013.42,-512.81 1010.51,-478.49"/>
<polygon fill="#1414ce" stroke="#1414ce" points="1013.97,-477.87 1009.5,-468.27 1007,-478.56 1013.97,-477.87"/>
</a>
</g>
</g>
<!-- 31 -->
<g id="node18" class="node">
<title>31</title>
<g id="a_node18"><a xlink:title="exportedfunction.h">
<polygon fill="#ffffff" stroke="black" points="1186,-612 1034,-612 1034,-576 1186,-576 1186,-612"/>
<text text-anchor="middle" x="1110" y="-590.3" font-family="Times,serif" font-size="14.00">exportedfunction.h</text>
</a>
</g>
</g>
<!-- 29&#45;&gt;31 -->
<g id="edge31" class="edge">
<title>29&#45;&gt;31</title>
<g id="a_edge31"><a xlink:title="include">
<path fill="none" stroke="#1414ce" d="M653.83,-734.95C744.49,-729.96 956.06,-715.24 1020,-684 1049.85,-669.42 1075.83,-641.02 1092.1,-620.21"/>
<polygon fill="#1414ce" stroke="#1414ce" points="1095,-622.18 1098.26,-612.1 1089.42,-617.95 1095,-622.18"/>
</a>
</g>
</g>
<!-- 7 -->
<g id="node20" class="node">
<title>7</title>
<g id="a_node20"><a xlink:title="atom_table.h">
<polygon fill="#ffffff" stroke="black" points="685.5,-540 576.5,-540 576.5,-504 685.5,-504 685.5,-540"/>
<text text-anchor="middle" x="631" y="-518.3" font-family="Times,serif" font-size="14.00">atom_table.h</text>
</a>
</g>
</g>
<!-- 29&#45;&gt;7 -->
<g id="edge28" class="edge">
<title>29&#45;&gt;7</title>
<g id="a_edge28"><a xlink:title="include">
<path fill="none" stroke="#1414ce" d="M613.52,-719.85C616.81,-682.83 624.59,-595.18 628.57,-550.39"/>
<polygon fill="#1414ce" stroke="#1414ce" points="632.07,-550.5 629.47,-540.23 625.1,-549.88 632.07,-550.5"/>
</a>
</g>
</g>
<!-- 29&#45;&gt;3 -->
<g id="edge32" class="edge">
<title>29&#45;&gt;3</title>
<g id="a_edge32"><a xlink:title="include">
<path fill="none" stroke="#1414ce" d="M607.3,-719.68C601.58,-700.76 590.58,-670.21 574,-648 565.68,-636.85 554.55,-626.59 543.9,-618.11"/>
<polygon fill="#1414ce" stroke="#1414ce" points="545.98,-615.3 535.91,-612 541.73,-620.86 545.98,-615.3"/>
</a>
</g>
</g>
<!-- 30 -->
<g id="node26" class="node">
<title>30</title>
<g id="a_node26"><a xlink:title="atomshashtable.h">
<polygon fill="#ffffff" stroke="black" points="977.5,-612 834.5,-612 834.5,-576 977.5,-576 977.5,-612"/>
<text text-anchor="middle" x="906" y="-590.3" font-family="Times,serif" font-size="14.00">atomshashtable.h</text>
</a>
</g>
</g>
<!-- 29&#45;&gt;30 -->
<g id="edge29" class="edge">
<title>29&#45;&gt;30</title>
<g id="a_edge29"><a xlink:title="include">
<path fill="none" stroke="#1414ce" d="M653.61,-733.17C697.51,-727.65 767.47,-714.5 820,-684 847.64,-667.95 872.2,-640.51 887.92,-620.32"/>
<polygon fill="#1414ce" stroke="#1414ce" points="890.85,-622.26 894.1,-612.17 885.27,-618.03 890.85,-622.26"/>
</a>
</g>
</g>
<!-- 26&#45;&gt;16 -->
<g id="edge40" class="edge">
<title>26&#45;&gt;16</title>
<g id="a_edge40"><a xlink:title="include">
<path fill="none" stroke="#1414ce" d="M689.91,-295.34C621.41,-282.13 499.1,-258.54 429.41,-245.11"/>
<polygon fill="#1414ce" stroke="#1414ce" points="430,-241.66 419.52,-243.2 428.68,-248.53 430,-241.66"/>
</a>
</g>
</g>
<!-- 26&#45;&gt;15 -->
<g id="edge37" class="edge">
<title>26&#45;&gt;15</title>
<g id="a_edge37"><a xlink:title="include">
<path fill="none" stroke="#1414ce" d="M689.69,-298.41C648.28,-291.41 589.11,-277.66 543,-252 527.21,-243.21 494.07,-210.67 471.43,-187.49"/>
<polygon fill="#1414ce" stroke="#1414ce" points="473.67,-184.77 464.19,-180.03 468.64,-189.64 473.67,-184.77"/>
</a>
</g>
</g>
<!-- 26&#45;&gt;6 -->
<g id="edge35" class="edge">
<title>26&#45;&gt;6</title>
<g id="a_edge35"><a xlink:title="include">
<path fill="none" stroke="#1414ce" d="M772.94,-287.85C847.13,-249.22 1027.23,-155.45 1109.17,-112.78"/>
<polygon fill="#1414ce" stroke="#1414ce" points="1110.94,-115.81 1118.19,-108.08 1107.7,-109.6 1110.94,-115.81"/>
</a>
</g>
</g>
<!-- 26&#45;&gt;22 -->
<g id="edge39" class="edge">
<title>26&#45;&gt;22</title>
<g id="a_edge39"><a xlink:title="include">
<path fill="none" stroke="#1414ce" d="M790.02,-294.67C853.13,-281.64 961.21,-259.32 1025.79,-245.99"/>
<polygon fill="#1414ce" stroke="#1414ce" points="1026.68,-249.38 1035.77,-243.93 1025.27,-242.52 1026.68,-249.38"/>
</a>
</g>
</g>
<!-- 26&#45;&gt;9 -->
<g id="edge36" class="edge">
<title>26&#45;&gt;9</title>
<g id="a_edge36"><a xlink:title="include">
<path fill="none" stroke="#1414ce" d="M790.08,-304.08C865.77,-301.39 1012.97,-291.09 1131,-252 1178.53,-236.26 1228.22,-206.42 1259.6,-185.66"/>
<polygon fill="#1414ce" stroke="#1414ce" points="1261.59,-188.54 1267.95,-180.06 1257.7,-182.72 1261.59,-188.54"/>
</a>
</g>
</g>
<!-- 26&#45;&gt;27 -->
<g id="edge38" class="edge">
<title>26&#45;&gt;27</title>
<g id="a_edge38"><a xlink:title="include">
<path fill="none" stroke="#1414ce" d="M704.53,-287.88C684.88,-278.39 660.28,-266.51 639.37,-256.42"/>
<polygon fill="#1414ce" stroke="#1414ce" points="640.88,-253.26 630.36,-252.07 637.84,-259.57 640.88,-253.26"/>
</a>
</g>
</g>
<!-- 19&#45;&gt;8 -->
<g id="edge42" class="edge">
<title>19&#45;&gt;8</title>
<g id="a_edge42"><a xlink:title="include">
<path fill="none" stroke="#1414ce" d="M974.38,-442.05C958.6,-438.8 939.35,-434.99 922,-432 866.9,-422.51 709.6,-438.27 673,-396 599.66,-311.29 747.99,-233.06 680,-144 662.77,-121.43 589.12,-106.14 537.7,-98"/>
<polygon fill="#1414ce" stroke="#1414ce" points="538.15,-94.53 527.73,-96.46 537.08,-101.45 538.15,-94.53"/>
</a>
</g>
</g>
<!-- 19&#45;&gt;25 -->
<g id="edge48" class="edge">
<title>19&#45;&gt;25</title>
<g id="a_edge48"><a xlink:title="include">
<path fill="none" stroke="#1414ce" d="M974.31,-440.56C931.31,-429.45 854.78,-409.68 800.05,-395.54"/>
<polygon fill="#1414ce" stroke="#1414ce" points="800.65,-392.08 790.09,-392.97 798.9,-398.86 800.65,-392.08"/>
</a>
</g>
</g>
<!-- 19&#45;&gt;23 -->
<g id="edge49" class="edge">
<title>19&#45;&gt;23</title>
<g id="a_edge49"><a xlink:title="include">
<path fill="none" stroke="#1414ce" d="M1002.73,-431.83C1000.17,-421.46 996.86,-407.98 994,-396 976.24,-321.56 956.07,-233.54 946.16,-190.07"/>
<polygon fill="#1414ce" stroke="#1414ce" points="949.56,-189.24 943.92,-180.26 942.73,-190.79 949.56,-189.24"/>
</a>
</g>
</g>
<!-- 19&#45;&gt;4 -->
<g id="edge43" class="edge">
<title>19&#45;&gt;4</title>
<g id="a_edge43"><a xlink:title="include">
<path fill="none" stroke="#1414ce" d="M1008.75,-431.87C1015.7,-362 1040.02,-100.81 1018,-72 1000.02,-48.48 921.01,-32.94 869.25,-25.08"/>
<polygon fill="#1414ce" stroke="#1414ce" points="869.69,-21.61 859.28,-23.61 868.67,-28.53 869.69,-21.61"/>
</a>
</g>
</g>
<!-- 19&#45;&gt;6 -->
<g id="edge45" class="edge">
<title>19&#45;&gt;6</title>
<g id="a_edge45"><a xlink:title="include">
<path fill="none" stroke="#1414ce" d="M1039.65,-449.78C1097.6,-449.82 1220.75,-443.7 1310,-396 1358.24,-370.22 1395,-361.7 1395,-307 1395,-307 1395,-307 1395,-233 1395,-192.03 1400.83,-172.08 1371,-144 1315.44,-91.7 1275.49,-127.08 1196.52,-107.71"/>
<polygon fill="#1414ce" stroke="#1414ce" points="1197.25,-104.28 1186.69,-105.07 1195.44,-111.04 1197.25,-104.28"/>
</a>
</g>
</g>
<!-- 19&#45;&gt;22 -->
<g id="edge47" class="edge">
<title>19&#45;&gt;22</title>
<g id="a_edge47"><a xlink:title="include">
<path fill="none" stroke="#1414ce" d="M1012.77,-431.85C1025.28,-394.68 1054.96,-306.44 1069.98,-261.82"/>
<polygon fill="#1414ce" stroke="#1414ce" points="1073.33,-262.83 1073.2,-252.23 1066.7,-260.59 1073.33,-262.83"/>
</a>
</g>
</g>
<!-- 20 -->
<g id="node21" class="node">
<title>20</title>
<g id="a_node21"><a xlink:title="sys/types.h">
<polygon fill="#ffffff" stroke="black" points="1209.5,-396 1112.5,-396 1112.5,-360 1209.5,-360 1209.5,-396"/>
<text text-anchor="middle" x="1161" y="-374.3" font-family="Times,serif" font-size="14.00">sys/types.h</text>
</a>
</g>
</g>
<!-- 19&#45;&gt;20 -->
<g id="edge41" class="edge">
<title>19&#45;&gt;20</title>
<g id="a_edge41"><a xlink:title="include">
<path fill="none" stroke="#1414ce" d="M1039.66,-434.15C1061.33,-424.31 1090.1,-411.23 1114.19,-400.28"/>
<polygon fill="#1414ce" stroke="#1414ce" points="1115.86,-403.36 1123.51,-396.04 1112.96,-396.99 1115.86,-403.36"/>
</a>
</g>
</g>
<!-- 21 -->
<g id="node22" class="node">
<title>21</title>
<g id="a_node22"><a xlink:title="string.h">
<polygon fill="#ffffff" stroke="black" points="1300.5,-396 1227.5,-396 1227.5,-360 1300.5,-360 1300.5,-396"/>
<text text-anchor="middle" x="1264" y="-374.3" font-family="Times,serif" font-size="14.00">string.h</text>
</a>
</g>
</g>
<!-- 19&#45;&gt;21 -->
<g id="edge46" class="edge">
<title>19&#45;&gt;21</title>
<g id="a_edge46"><a xlink:title="include">
<path fill="none" stroke="#1414ce" d="M1039.65,-442.08C1079.68,-433.32 1149.71,-417.13 1217.71,-396.25"/>
<polygon fill="#1414ce" stroke="#1414ce" points="1218.77,-399.58 1227.28,-393.27 1216.7,-392.89 1218.77,-399.58"/>
</a>
</g>
</g>
<!-- 19&#45;&gt;10 -->
<g id="edge50" class="edge">
<title>19&#45;&gt;10</title>
<g id="a_edge50"><a xlink:title="include">
<path fill="none" stroke="#1414ce" d="M1039.69,-446.88C1115.49,-441.51 1300.87,-425.65 1355,-396 1401.13,-370.73 1433,-359.6 1433,-307 1433,-307 1433,-307 1433,-233 1433,-190.16 1426.35,-174.23 1396,-144 1380.37,-128.44 1359.54,-117.24 1339.18,-109.27"/>
<polygon fill="#1414ce" stroke="#1414ce" points="1340.16,-105.9 1329.56,-105.73 1337.74,-112.47 1340.16,-105.9"/>
</a>
</g>
</g>
<!-- 19&#45;&gt;17 -->
<g id="edge44" class="edge">
<title>19&#45;&gt;17</title>
<g id="a_edge44"><a xlink:title="include">
<path fill="none" stroke="#1414ce" d="M998.64,-431.83C978.56,-389.86 927.25,-278.32 900,-180 894.35,-159.61 890.21,-136.02 887.56,-118.25"/>
<polygon fill="#1414ce" stroke="#1414ce" points="891.02,-117.68 886.14,-108.27 884.09,-118.67 891.02,-117.68"/>
</a>
</g>
</g>
<!-- 9&#45;&gt;10 -->
<g id="edge51" class="edge">
<title>9&#45;&gt;10</title>
<g id="a_edge51"><a xlink:title="include">
<path fill="none" stroke="#1414ce" d="M1285.82,-143.7C1283,-135.81 1279.61,-126.3 1276.48,-117.55"/>
<polygon fill="#1414ce" stroke="#1414ce" points="1279.77,-116.34 1273.11,-108.1 1273.18,-118.7 1279.77,-116.34"/>
</a>
</g>
</g>
<!-- 31&#45;&gt;19 -->
<g id="edge52" class="edge">
<title>31&#45;&gt;19</title>
<g id="a_edge52"><a xlink:title="include">
<path fill="none" stroke="#1414ce" d="M1097.58,-575.87C1079.63,-551.14 1046.34,-505.24 1025.51,-476.51"/>
<polygon fill="#1414ce" stroke="#1414ce" points="1028.17,-474.23 1019.47,-468.19 1022.51,-478.34 1028.17,-474.23"/>
</a>
</g>
</g>
<!-- 12 -->
<g id="node19" class="node">
<title>12</title>
<g id="a_node19"><a xlink:title="limits.h">
<polygon fill="#ffffff" stroke="black" points="1302.5,-36 1231.5,-36 1231.5,0 1302.5,0 1302.5,-36"/>
<text text-anchor="middle" x="1267" y="-14.3" font-family="Times,serif" font-size="14.00">limits.h</text>
</a>
</g>
</g>
<!-- 7&#45;&gt;8 -->
<g id="edge53" class="edge">
<title>7&#45;&gt;8</title>
<g id="a_edge53"><a xlink:title="include">
<path fill="none" stroke="#1414ce" d="M632.88,-503.72C639.34,-443.03 659.6,-241.86 647,-216 623.68,-168.14 572.17,-133.37 533.65,-112.82"/>
<polygon fill="#1414ce" stroke="#1414ce" points="535.15,-109.66 524.66,-108.16 531.93,-115.87 535.15,-109.66"/>
</a>
</g>
</g>
<!-- 7&#45;&gt;5 -->
<g id="edge54" class="edge">
<title>7&#45;&gt;5</title>
<g id="a_edge54"><a xlink:title="include">
<path fill="none" stroke="#1414ce" d="M685.64,-505.64C731.24,-492.82 795.31,-474.81 837.23,-463.02"/>
<polygon fill="#1414ce" stroke="#1414ce" points="838.18,-466.39 846.86,-460.32 836.29,-459.65 838.18,-466.39"/>
</a>
</g>
</g>
<!-- 10&#45;&gt;11 -->
<g id="edge55" class="edge">
<title>10&#45;&gt;11</title>
<g id="a_edge55"><a xlink:title="include">
<path fill="none" stroke="#1414ce" d="M1244.51,-71.7C1233.04,-62.88 1218.94,-52.03 1206.52,-42.47"/>
<polygon fill="#1414ce" stroke="#1414ce" points="1208.3,-39.43 1198.24,-36.1 1204.03,-44.98 1208.3,-39.43"/>
</a>
</g>
</g>
<!-- 10&#45;&gt;4 -->
<g id="edge58" class="edge">
<title>10&#45;&gt;4</title>
<g id="a_edge58"><a xlink:title="include">
<path fill="none" stroke="#1414ce" d="M1204.35,-73.66C1201.53,-73.08 1198.74,-72.52 1196,-72 1079.27,-49.78 940.37,-32.41 869.55,-24.19"/>
<polygon fill="#1414ce" stroke="#1414ce" points="869.53,-20.66 859.19,-23 868.73,-27.62 869.53,-20.66"/>
</a>
</g>
</g>
<!-- 10&#45;&gt;12 -->
<g id="edge56" class="edge">
<title>10&#45;&gt;12</title>
<g id="a_edge56"><a xlink:title="include">
<path fill="none" stroke="#1414ce" d="M1267,-71.7C1267,-63.98 1267,-54.71 1267,-46.11"/>
<polygon fill="#1414ce" stroke="#1414ce" points="1270.5,-46.1 1267,-36.1 1263.5,-46.1 1270.5,-46.1"/>
</a>
</g>
</g>
<!-- 13 -->
<g id="node32" class="node">
<title>13</title>
<g id="a_node32"><a xlink:title="inttypes.h">
<polygon fill="#ffffff" stroke="black" points="1409.5,-36 1320.5,-36 1320.5,0 1409.5,0 1409.5,-36"/>
<text text-anchor="middle" x="1365" y="-14.3" font-family="Times,serif" font-size="14.00">inttypes.h</text>
</a>
</g>
</g>
<!-- 10&#45;&gt;13 -->
<g id="edge57" class="edge">
<title>10&#45;&gt;13</title>
<g id="a_edge57"><a xlink:title="include">
<path fill="none" stroke="#1414ce" d="M1290.97,-71.88C1303.55,-62.89 1319.13,-51.76 1332.75,-42.03"/>
<polygon fill="#1414ce" stroke="#1414ce" points="1334.83,-44.85 1340.93,-36.19 1330.76,-39.15 1334.83,-44.85"/>
</a>
</g>
</g>
<!-- 3&#45;&gt;5 -->
<g id="edge60" class="edge">
<title>3&#45;&gt;5</title>
<g id="a_edge60"><a xlink:title="include">
<path fill="none" stroke="#1414ce" d="M573.74,-581.32C610.32,-573.02 656.32,-559.77 694,-540 716.38,-528.26 716.09,-516.59 738,-504 769.33,-486 807.9,-472.06 836.94,-463.01"/>
<polygon fill="#1414ce" stroke="#1414ce" points="838.23,-466.27 846.78,-460.01 836.19,-459.57 838.23,-466.27"/>
</a>
</g>
</g>
<!-- 3&#45;&gt;16 -->
<g id="edge67" class="edge">
<title>3&#45;&gt;16</title>
<g id="a_edge67"><a xlink:title="include">
<path fill="none" stroke="#1414ce" d="M464.73,-575.93C445.92,-567.24 424.83,-555.25 409,-540 376.17,-508.37 358,-496.59 358,-451 358,-451 358,-451 358,-377 358,-336.86 365.55,-290.9 371.13,-262.4"/>
<polygon fill="#1414ce" stroke="#1414ce" points="374.61,-262.88 373.16,-252.39 367.74,-261.5 374.61,-262.88"/>
</a>
</g>
</g>
<!-- 3&#45;&gt;15 -->
<g id="edge64" class="edge">
<title>3&#45;&gt;15</title>
<g id="a_edge64"><a xlink:title="include">
<path fill="none" stroke="#1414ce" d="M446.34,-582.42C419.56,-574.86 390.23,-561.96 371,-540 349.34,-515.26 360.05,-500.32 354,-468 333.27,-357.18 263.03,-310.18 325,-216 343.9,-187.28 381.99,-174.06 410.81,-168.01"/>
<polygon fill="#1414ce" stroke="#1414ce" points="411.77,-171.39 420.95,-166.09 410.47,-164.51 411.77,-171.39"/>
</a>
</g>
</g>
<!-- 3&#45;&gt;4 -->
<g id="edge59" class="edge">
<title>3&#45;&gt;4</title>
<g id="a_edge59"><a xlink:title="include">
<path fill="none" stroke="#1414ce" d="M517.35,-575.87C526.5,-556.28 543.79,-524.29 567,-504 652.63,-429.14 734.84,-489.91 799,-396 818.59,-367.33 822.19,-128.12 822.85,-46.31"/>
<polygon fill="#1414ce" stroke="#1414ce" points="826.35,-46.09 822.93,-36.06 819.35,-46.04 826.35,-46.09"/>
</a>
</g>
</g>
<!-- 3&#45;&gt;19 -->
<g id="edge68" class="edge">
<title>3&#45;&gt;19</title>
<g id="a_edge68"><a xlink:title="include">
<path fill="none" stroke="#1414ce" d="M573.59,-585.04C618.89,-577.64 680.3,-564.02 730,-540 753.37,-528.7 752.56,-515.17 776,-504 792.89,-495.95 902.37,-472.59 964.36,-459.73"/>
<polygon fill="#1414ce" stroke="#1414ce" points="965.17,-463.14 974.25,-457.69 963.75,-456.29 965.17,-463.14"/>
</a>
</g>
</g>
<!-- 3&#45;&gt;9 -->
<g id="edge62" class="edge">
<title>3&#45;&gt;9</title>
<g id="a_edge62"><a xlink:title="include">
<path fill="none" stroke="#1414ce" d="M573.7,-587.36C746.94,-570.57 1219.77,-514.49 1310,-396 1356.7,-334.67 1324.17,-236.04 1304.29,-189.26"/>
<polygon fill="#1414ce" stroke="#1414ce" points="1307.49,-187.84 1300.27,-180.09 1301.08,-190.65 1307.49,-187.84"/>
</a>
</g>
</g>
<!-- 3&#45;&gt;7 -->
<g id="edge61" class="edge">
<title>3&#45;&gt;7</title>
<g id="a_edge61"><a xlink:title="include">
<path fill="none" stroke="#1414ce" d="M539.6,-575.88C555.57,-566.64 575.46,-555.13 592.61,-545.21"/>
<polygon fill="#1414ce" stroke="#1414ce" points="594.38,-548.23 601.29,-540.19 590.88,-542.17 594.38,-548.23"/>
</a>
</g>
</g>
<!-- 3&#45;&gt;18 -->
<g id="edge66" class="edge">
<title>3&#45;&gt;18</title>
<g id="a_edge66"><a xlink:title="include">
<path fill="none" stroke="#1414ce" d="M446.38,-587.48C334.44,-573.92 114,-528.26 114,-379 114,-379 114,-379 114,-305 114,-264.55 113.85,-251.63 133,-216 138.71,-205.37 147.2,-195.43 155.66,-187.1"/>
<polygon fill="#1414ce" stroke="#1414ce" points="158.12,-189.6 163.03,-180.21 153.33,-184.48 158.12,-189.6"/>
</a>
</g>
</g>
<!-- 3&#45;&gt;28 -->
<g id="edge69" class="edge">
<title>3&#45;&gt;28</title>
<g id="a_edge69"><a xlink:title="include">
<path fill="none" stroke="#1414ce" d="M446.24,-591.36C401.95,-586.98 344.24,-574.37 306,-540 222.2,-464.67 199.19,-322.02 193.1,-262.33"/>
<polygon fill="#1414ce" stroke="#1414ce" points="196.57,-261.82 192.15,-252.19 189.6,-262.47 196.57,-261.82"/>
</a>
</g>
</g>
<!-- 3&#45;&gt;27 -->
<g id="edge65" class="edge">
<title>3&#45;&gt;27</title>
<g id="a_edge65"><a xlink:title="include">
<path fill="none" stroke="#1414ce" d="M510,-575.95C510,-549.29 510,-496.11 510,-451 510,-451 510,-451 510,-377 510,-336.03 512.26,-322.72 534,-288 540.99,-276.83 551.06,-266.73 561.01,-258.41"/>
<polygon fill="#1414ce" stroke="#1414ce" points="563.25,-261.1 568.9,-252.13 558.9,-255.62 563.25,-261.1"/>
</a>
</g>
</g>
<!-- 14 -->
<g id="node31" class="node">
<title>14</title>
<g id="a_node31"><a xlink:title="ets.h">
<polygon fill="#ffffff" stroke="black" points="472,-540 418,-540 418,-504 472,-504 472,-540"/>
<text text-anchor="middle" x="445" y="-518.3" font-family="Times,serif" font-size="14.00">ets.h</text>
</a>
</g>
</g>
<!-- 3&#45;&gt;14 -->
<g id="edge63" class="edge">
<title>3&#45;&gt;14</title>
<g id="a_edge63"><a xlink:title="include">
<path fill="none" stroke="#1414ce" d="M493.93,-575.7C486.06,-567.22 476.44,-556.86 467.83,-547.58"/>
<polygon fill="#1414ce" stroke="#1414ce" points="470.25,-545.05 460.88,-540.1 465.12,-549.81 470.25,-545.05"/>
</a>
</g>
</g>
<!-- 18&#45;&gt;8 -->
<g id="edge70" class="edge">
<title>18&#45;&gt;8</title>
<g id="a_edge70"><a xlink:title="include">
<path fill="none" stroke="#1414ce" d="M215.24,-153.97C266.61,-142.02 371.46,-117.64 434.55,-102.96"/>
<polygon fill="#1414ce" stroke="#1414ce" points="435.36,-106.37 444.3,-100.7 433.77,-99.55 435.36,-106.37"/>
</a>
</g>
</g>
<!-- 30&#45;&gt;5 -->
<g id="edge71" class="edge">
<title>30&#45;&gt;5</title>
<g id="a_edge71"><a xlink:title="include">
<path fill="none" stroke="#1414ce" d="M902.86,-575.87C898.43,-551.67 890.29,-507.21 885.02,-478.39"/>
<polygon fill="#1414ce" stroke="#1414ce" points="888.39,-477.4 883.15,-468.19 881.51,-478.66 888.39,-477.4"/>
</a>
</g>
</g>
<!-- 1 -->
<g id="node27" class="node">
<title>1</title>
<g id="a_node27"><a xlink:title="/__w/AtomVM/AtomVM/src/libAtomVM/stacktrace.h">
<polygon fill="#bfbfbf" stroke="black" points="802.5,-828 421.5,-828 421.5,-792 802.5,-792 802.5,-828"/>
<text text-anchor="middle" x="612" y="-806.3" font-family="Times,serif" font-size="14.00">/__w/AtomVM/AtomVM/src/libAtomVM/stacktrace.h</text>
</a>
</g>
</g>
<!-- 1&#45;&gt;2 -->
<g id="edge72" class="edge">
<title>1&#45;&gt;2</title>
<g id="a_edge72"><a xlink:title="include">
<path fill="none" stroke="#1414ce" d="M574.49,-791.87C517.63,-765.91 409.72,-716.64 347.81,-688.37"/>
<polygon fill="#1414ce" stroke="#1414ce" points="349.2,-685.16 338.65,-684.19 346.29,-691.53 349.2,-685.16"/>
</a>
</g>
</g>
<!-- 1&#45;&gt;29 -->
<g id="edge73" class="edge">
<title>1&#45;&gt;29</title>
<g id="a_edge73"><a xlink:title="include">
<path fill="none" stroke="#1414ce" d="M612,-791.7C612,-783.98 612,-774.71 612,-766.11"/>
<polygon fill="#1414ce" stroke="#1414ce" points="615.5,-766.1 612,-756.1 608.5,-766.1 615.5,-766.1"/>
</a>
</g>
</g>
<!-- 1&#45;&gt;19 -->
<g id="edge74" class="edge">
<title>1&#45;&gt;19</title>
<g id="a_edge74"><a xlink:title="include">
<path fill="none" stroke="#1414ce" d="M802.89,-800.28C979.21,-786.84 1214,-752.84 1214,-667 1214,-667 1214,-667 1214,-593 1214,-514.11 1110.49,-475.78 1049.86,-460.1"/>
<polygon fill="#1414ce" stroke="#1414ce" points="1050.35,-456.62 1039.8,-457.61 1048.66,-463.41 1050.35,-456.62"/>
</a>
</g>
</g>
<!-- 28&#45;&gt;8 -->
<g id="edge75" class="edge">
<title>28&#45;&gt;8</title>
<g id="a_edge75"><a xlink:title="include">
<path fill="none" stroke="#1414ce" d="M226.58,-215.87C280.4,-189.96 382.45,-140.84 441.24,-112.55"/>
<polygon fill="#1414ce" stroke="#1414ce" points="442.8,-115.68 450.29,-108.19 439.76,-109.37 442.8,-115.68"/>
</a>
</g>
</g>
<!-- 28&#45;&gt;15 -->
<g id="edge77" class="edge">
<title>28&#45;&gt;15</title>
<g id="a_edge77"><a xlink:title="include">
<path fill="none" stroke="#1414ce" d="M240.25,-219.59C290.01,-206.03 365.78,-185.39 410.75,-173.15"/>
<polygon fill="#1414ce" stroke="#1414ce" points="411.94,-176.45 420.67,-170.44 410.1,-169.69 411.94,-176.45"/>
</a>
</g>
</g>
<!-- 28&#45;&gt;4 -->
<g id="edge76" class="edge">
<title>28&#45;&gt;4</title>
<g id="a_edge76"><a xlink:title="include">
<path fill="none" stroke="#1414ce" d="M171.32,-215.79C152.19,-196.98 128.41,-166.51 146,-144 223.91,-44.3 636.06,-24.01 776.26,-19.98"/>
<polygon fill="#1414ce" stroke="#1414ce" points="776.76,-23.46 786.66,-19.69 776.56,-16.47 776.76,-23.46"/>
</a>
</g>
</g>
<!-- 27&#45;&gt;8 -->
<g id="edge78" class="edge">
<title>27&#45;&gt;8</title>
<g id="a_edge78"><a xlink:title="include">
<path fill="none" stroke="#1414ce" d="M581.85,-215.87C562.78,-191.03 527.33,-144.85 505.3,-116.14"/>
<polygon fill="#1414ce" stroke="#1414ce" points="508.06,-113.99 499.19,-108.19 502.51,-118.25 508.06,-113.99"/>
</a>
</g>
</g>
<!-- 27&#45;&gt;23 -->
<g id="edge81" class="edge">
<title>27&#45;&gt;23</title>
<g id="a_edge81"><a xlink:title="include">
<path fill="none" stroke="#1414ce" d="M638.35,-224.21C705.34,-210.61 833.16,-184.68 898.82,-171.36"/>
<polygon fill="#1414ce" stroke="#1414ce" points="899.7,-174.75 908.8,-169.33 898.31,-167.89 899.7,-174.75"/>
</a>
</g>
</g>
<!-- 27&#45;&gt;15 -->
<g id="edge79" class="edge">
<title>27&#45;&gt;15</title>
<g id="a_edge79"><a xlink:title="include">
<path fill="none" stroke="#1414ce" d="M559.04,-215.88C536.43,-205.11 507.34,-191.26 484.61,-180.43"/>
<polygon fill="#1414ce" stroke="#1414ce" points="485.83,-177.14 475.29,-176 482.82,-183.46 485.83,-177.14"/>
</a>
</g>
</g>
<!-- 27&#45;&gt;10 -->
<g id="edge80" class="edge">
<title>27&#45;&gt;10</title>
<g id="a_edge80"><a xlink:title="include">
<path fill="none" stroke="#1414ce" d="M638.14,-229.39C709.77,-222.87 857.5,-207.23 980,-180 1061.6,-161.86 1153.48,-131.56 1210.81,-111.43"/>
<polygon fill="#1414ce" stroke="#1414ce" points="1212.14,-114.67 1220.41,-108.04 1209.81,-108.07 1212.14,-114.67"/>
</a>
</g>
</g>
<!-- 14&#45;&gt;16 -->
<g id="edge83" class="edge">
<title>14&#45;&gt;16</title>
<g id="a_edge83"><a xlink:title="include">
<path fill="none" stroke="#1414ce" d="M435.49,-503.8C430.24,-493.65 423.99,-480.4 420,-468 396.69,-395.63 384.62,-306.3 379.72,-262.23"/>
<polygon fill="#1414ce" stroke="#1414ce" points="383.17,-261.6 378.62,-252.04 376.21,-262.35 383.17,-261.6"/>
</a>
</g>
</g>
<!-- 14&#45;&gt;15 -->
<g id="edge82" class="edge">
<title>14&#45;&gt;15</title>
<g id="a_edge82"><a xlink:title="include">
<path fill="none" stroke="#1414ce" d="M445.14,-503.73C445.63,-446.19 447.18,-260.66 447.77,-190.35"/>
<polygon fill="#1414ce" stroke="#1414ce" points="451.27,-190.12 447.86,-180.09 444.27,-190.06 451.27,-190.12"/>
</a>
</g>
</g>
<!-- 14&#45;&gt;19 -->
<g id="edge84" class="edge">
<title>14&#45;&gt;19</title>
<g id="a_edge84"><a xlink:title="include">
<path fill="none" stroke="#1414ce" d="M472.1,-516.93C496.8,-513.29 534.3,-507.93 567,-504 724.45,-485.05 765.18,-491.58 922,-468 935.88,-465.91 950.92,-463.09 964.44,-460.35"/>
<polygon fill="#1414ce" stroke="#1414ce" points="965.35,-463.73 974.43,-458.28 963.93,-456.88 965.35,-463.73"/>
</a>
</g>
</g>
</g>
</svg>
