<?xml version="1.0" encoding="UTF-8" standalone="no"?>
<!DOCTYPE svg PUBLIC "-//W3C//DTD SVG 1.1//EN"
 "http://www.w3.org/Graphics/SVG/1.1/DTD/svg11.dtd">
<!-- Generated by graphviz version 2.43.0 (0)
 -->
<!-- Title: %3 Pages: 1 -->
<svg width="1688pt" height="836pt"
 viewBox="0.00 0.00 1688.00 836.00" xmlns="http://www.w3.org/2000/svg" xmlns:xlink="http://www.w3.org/1999/xlink">
<g id="graph0" class="graph" transform="scale(1 1) rotate(0) translate(4 832)">
<title>%3</title>
<polygon fill="transparent" stroke="transparent" points="-4,4 -4,-832 1684,-832 1684,4 -4,4"/>
<!-- 9 -->
<g id="node1" class="node">
<title>9</title>
<g id="a_node1"><a xlink:title="stdbool.h">
<polygon fill="#ffffff" stroke="black" points="688.5,-108 605.5,-108 605.5,-72 688.5,-72 688.5,-108"/>
<text text-anchor="middle" x="647" y="-86.3" font-family="Times,serif" font-size="14.00">stdbool.h</text>
</a>
</g>
</g>
<!-- 2 -->
<g id="node2" class="node">
<title>2</title>
<g id="a_node2"><a xlink:title="interop.h">
<polygon fill="#ffffff" stroke="black" points="1299,-756 1217,-756 1217,-720 1299,-720 1299,-756"/>
<text text-anchor="middle" x="1258" y="-734.3" font-family="Times,serif" font-size="14.00">interop.h</text>
</a>
</g>
</g>
<!-- 3 -->
<g id="node12" class="node">
<title>3</title>
<g id="a_node12"><a xlink:title="context.h">
<polygon fill="#ffffff" stroke="black" points="608.5,-684 525.5,-684 525.5,-648 608.5,-648 608.5,-684"/>
<text text-anchor="middle" x="567" y="-662.3" font-family="Times,serif" font-size="14.00">context.h</text>
</a>
</g>
</g>
<!-- 2&#45;&gt;3 -->
<g id="edge1" class="edge">
<title>2&#45;&gt;3</title>
<g id="a_edge1"><a xlink:title="include">
<path fill="none" stroke="#1414ce" d="M1216.84,-732.83C1097.47,-720.74 751.2,-685.66 619.07,-672.27"/>
<polygon fill="#1414ce" stroke="#1414ce" points="619.12,-668.76 608.81,-671.24 618.41,-675.73 619.12,-668.76"/>
</a>
</g>
</g>
<!-- 22 -->
<g id="node17" class="node">
<title>22</title>
<g id="a_node17"><a xlink:title="term.h">
<polygon fill="#ffffff" stroke="black" points="1148.5,-468 1083.5,-468 1083.5,-432 1148.5,-432 1148.5,-468"/>
<text text-anchor="middle" x="1116" y="-446.3" font-family="Times,serif" font-size="14.00">term.h</text>
</a>
</g>
</g>
<!-- 2&#45;&gt;22 -->
<g id="edge2" class="edge">
<title>2&#45;&gt;22</title>
<g id="a_edge2"><a xlink:title="include">
<path fill="none" stroke="#1414ce" d="M1259.89,-719.83C1263.5,-678.37 1267.14,-571.28 1218,-504 1203.51,-484.15 1179.36,-471.14 1158.19,-462.97"/>
<polygon fill="#1414ce" stroke="#1414ce" points="1159.32,-459.66 1148.72,-459.56 1156.94,-466.24 1159.32,-459.66"/>
</a>
</g>
</g>
<!-- 26 -->
<g id="node3" class="node">
<title>26</title>
<g id="a_node3"><a xlink:title="refc_binary.h">
<polygon fill="#ffffff" stroke="black" points="973,-396 865,-396 865,-360 973,-360 973,-396"/>
<text text-anchor="middle" x="919" y="-374.3" font-family="Times,serif" font-size="14.00">refc_binary.h</text>
</a>
</g>
</g>
<!-- 26&#45;&gt;9 -->
<g id="edge3" class="edge">
<title>26&#45;&gt;9</title>
<g id="a_edge3"><a xlink:title="include">
<path fill="none" stroke="#1414ce" d="M898.18,-359.98C886.47,-350 871.85,-336.86 860,-324 791.86,-250.08 795.55,-213.6 723,-144 711.49,-132.96 697.5,-122.53 684.68,-113.88"/>
<polygon fill="#1414ce" stroke="#1414ce" points="686.31,-110.76 676.03,-108.2 682.46,-116.61 686.31,-110.76"/>
</a>
</g>
</g>
<!-- 19 -->
<g id="node8" class="node">
<title>19</title>
<g id="a_node8"><a xlink:title="list.h">
<polygon fill="#ffffff" stroke="black" points="476,-180 422,-180 422,-144 476,-144 476,-180"/>
<text text-anchor="middle" x="449" y="-158.3" font-family="Times,serif" font-size="14.00">list.h</text>
</a>
</g>
</g>
<!-- 26&#45;&gt;19 -->
<g id="edge5" class="edge">
<title>26&#45;&gt;19</title>
<g id="a_edge5"><a xlink:title="include">
<path fill="none" stroke="#1414ce" d="M864.97,-373.23C779.56,-364.76 611.8,-337.65 502,-252 481.38,-235.91 467.08,-209.38 458.58,-189.46"/>
<polygon fill="#1414ce" stroke="#1414ce" points="461.75,-187.98 454.76,-180.02 455.26,-190.6 461.75,-187.98"/>
</a>
</g>
</g>
<!-- 7 -->
<g id="node11" class="node">
<title>7</title>
<g id="a_node11"><a xlink:title="stdlib.h">
<polygon fill="#ffffff" stroke="black" points="1274.5,-108 1203.5,-108 1203.5,-72 1274.5,-72 1274.5,-108"/>
<text text-anchor="middle" x="1239" y="-86.3" font-family="Times,serif" font-size="14.00">stdlib.h</text>
</a>
</g>
</g>
<!-- 26&#45;&gt;7 -->
<g id="edge4" class="edge">
<title>26&#45;&gt;7</title>
<g id="a_edge4"><a xlink:title="include">
<path fill="none" stroke="#1414ce" d="M961.93,-359.99C1026.5,-332.18 1148.06,-270.83 1214,-180 1227.14,-161.89 1233.39,-137.11 1236.35,-118.3"/>
<polygon fill="#1414ce" stroke="#1414ce" points="1239.83,-118.65 1237.71,-108.27 1232.89,-117.71 1239.83,-118.65"/>
</a>
</g>
</g>
<!-- 27 -->
<g id="node15" class="node">
<title>27</title>
<g id="a_node15"><a xlink:title="resources.h">
<polygon fill="#ffffff" stroke="black" points="969,-324 869,-324 869,-288 969,-288 969,-324"/>
<text text-anchor="middle" x="919" y="-302.3" font-family="Times,serif" font-size="14.00">resources.h</text>
</a>
</g>
</g>
<!-- 26&#45;&gt;27 -->
<g id="edge6" class="edge">
<title>26&#45;&gt;27</title>
<g id="a_edge6"><a xlink:title="include">
<path fill="none" stroke="#1414ce" d="M919,-359.7C919,-351.98 919,-342.71 919,-334.11"/>
<polygon fill="#1414ce" stroke="#1414ce" points="922.5,-334.1 919,-324.1 915.5,-334.1 922.5,-334.1"/>
</a>
</g>
</g>
<!-- 6 -->
<g id="node4" class="node">
<title>6</title>
<g id="a_node4"><a xlink:title="atom.h">
<polygon fill="#ffffff" stroke="black" points="1021,-180 955,-180 955,-144 1021,-144 1021,-180"/>
<text text-anchor="middle" x="988" y="-158.3" font-family="Times,serif" font-size="14.00">atom.h</text>
</a>
</g>
</g>
<!-- 5 -->
<g id="node9" class="node">
<title>5</title>
<g id="a_node9"><a xlink:title="stdint.h">
<polygon fill="#ffffff" stroke="black" points="1024,-36 952,-36 952,0 1024,0 1024,-36"/>
<text text-anchor="middle" x="988" y="-14.3" font-family="Times,serif" font-size="14.00">stdint.h</text>
</a>
</g>
</g>
<!-- 6&#45;&gt;5 -->
<g id="edge7" class="edge">
<title>6&#45;&gt;5</title>
<g id="a_edge7"><a xlink:title="include">
<path fill="none" stroke="#1414ce" d="M988,-143.87C988,-119.67 988,-75.21 988,-46.39"/>
<polygon fill="#1414ce" stroke="#1414ce" points="991.5,-46.19 988,-36.19 984.5,-46.19 991.5,-46.19"/>
</a>
</g>
</g>
<!-- 6&#45;&gt;7 -->
<g id="edge8" class="edge">
<title>6&#45;&gt;7</title>
<g id="a_edge8"><a xlink:title="include">
<path fill="none" stroke="#1414ce" d="M1021.11,-153.15C1061.3,-143.42 1131.03,-125.94 1190,-108 1191.21,-107.63 1192.44,-107.25 1193.67,-106.86"/>
<polygon fill="#1414ce" stroke="#1414ce" points="1194.81,-110.18 1203.24,-103.76 1192.65,-103.52 1194.81,-110.18"/>
</a>
</g>
</g>
<!-- 15 -->
<g id="node5" class="node">
<title>15</title>
<g id="a_node5"><a xlink:title="assert.h">
<polygon fill="#ffffff" stroke="black" points="1680,-36 1606,-36 1606,0 1680,0 1680,-36"/>
<text text-anchor="middle" x="1643" y="-14.3" font-family="Times,serif" font-size="14.00">assert.h</text>
</a>
</g>
</g>
<!-- 10 -->
<g id="node6" class="node">
<title>10</title>
<g id="a_node6"><a xlink:title="utils.h">
<polygon fill="#ffffff" stroke="black" points="1177,-180 1115,-180 1115,-144 1177,-144 1177,-180"/>
<text text-anchor="middle" x="1146" y="-158.3" font-family="Times,serif" font-size="14.00">utils.h</text>
</a>
</g>
</g>
<!-- 10&#45;&gt;7 -->
<g id="edge11" class="edge">
<title>10&#45;&gt;7</title>
<g id="a_edge11"><a xlink:title="include">
<path fill="none" stroke="#1414ce" d="M1168.99,-143.7C1180.81,-134.8 1195.39,-123.82 1208.18,-114.2"/>
<polygon fill="#1414ce" stroke="#1414ce" points="1210.39,-116.91 1216.28,-108.1 1206.18,-111.32 1210.39,-116.91"/>
</a>
</g>
</g>
<!-- 11 -->
<g id="node18" class="node">
<title>11</title>
<g id="a_node18"><a xlink:title="stddef.h">
<polygon fill="#ffffff" stroke="black" points="958,-108 884,-108 884,-72 958,-72 958,-108"/>
<text text-anchor="middle" x="921" y="-86.3" font-family="Times,serif" font-size="14.00">stddef.h</text>
</a>
</g>
</g>
<!-- 10&#45;&gt;11 -->
<g id="edge9" class="edge">
<title>10&#45;&gt;11</title>
<g id="a_edge9"><a xlink:title="include">
<path fill="none" stroke="#1414ce" d="M1114.71,-151.27C1076.66,-139.43 1012.05,-119.33 968,-105.62"/>
<polygon fill="#1414ce" stroke="#1414ce" points="968.97,-102.26 958.38,-102.63 966.89,-108.94 968.97,-102.26"/>
</a>
</g>
</g>
<!-- 12 -->
<g id="node32" class="node">
<title>12</title>
<g id="a_node32"><a xlink:title="stdio.h">
<polygon fill="#ffffff" stroke="black" points="1180.5,-108 1115.5,-108 1115.5,-72 1180.5,-72 1180.5,-108"/>
<text text-anchor="middle" x="1148" y="-86.3" font-family="Times,serif" font-size="14.00">stdio.h</text>
</a>
</g>
</g>
<!-- 10&#45;&gt;12 -->
<g id="edge10" class="edge">
<title>10&#45;&gt;12</title>
<g id="a_edge10"><a xlink:title="include">
<path fill="none" stroke="#1414ce" d="M1146.49,-143.7C1146.71,-135.98 1146.98,-126.71 1147.23,-118.11"/>
<polygon fill="#1414ce" stroke="#1414ce" points="1150.72,-118.2 1147.51,-108.1 1143.73,-118 1150.72,-118.2"/>
</a>
</g>
</g>
<!-- 20 -->
<g id="node7" class="node">
<title>20</title>
<g id="a_node7"><a xlink:title="synclist.h">
<polygon fill="#ffffff" stroke="black" points="437.5,-252 352.5,-252 352.5,-216 437.5,-216 437.5,-252"/>
<text text-anchor="middle" x="395" y="-230.3" font-family="Times,serif" font-size="14.00">synclist.h</text>
</a>
</g>
</g>
<!-- 20&#45;&gt;19 -->
<g id="edge13" class="edge">
<title>20&#45;&gt;19</title>
<g id="a_edge13"><a xlink:title="include">
<path fill="none" stroke="#1414ce" d="M408.35,-215.7C414.76,-207.39 422.56,-197.28 429.61,-188.14"/>
<polygon fill="#1414ce" stroke="#1414ce" points="432.47,-190.16 435.81,-180.1 426.93,-185.88 432.47,-190.16"/>
</a>
</g>
</g>
<!-- 21 -->
<g id="node28" class="node">
<title>21</title>
<g id="a_node28"><a xlink:title="smp.h">
<polygon fill="#ffffff" stroke="black" points="366,-180 306,-180 306,-144 366,-144 366,-180"/>
<text text-anchor="middle" x="336" y="-158.3" font-family="Times,serif" font-size="14.00">smp.h</text>
</a>
</g>
</g>
<!-- 20&#45;&gt;21 -->
<g id="edge14" class="edge">
<title>20&#45;&gt;21</title>
<g id="a_edge14"><a xlink:title="include">
<path fill="none" stroke="#1414ce" d="M380.42,-215.7C373.34,-207.3 364.72,-197.07 356.95,-187.86"/>
<polygon fill="#1414ce" stroke="#1414ce" points="359.54,-185.49 350.42,-180.1 354.19,-190.01 359.54,-185.49"/>
</a>
</g>
</g>
<!-- 20&#45;&gt;12 -->
<g id="edge12" class="edge">
<title>20&#45;&gt;12</title>
<g id="a_edge12"><a xlink:title="include">
<path fill="none" stroke="#1414ce" d="M437.79,-228.6C560.91,-215.94 907.33,-180.31 908,-180 929.14,-170.29 925.67,-155.31 946,-144 996.64,-115.84 1062.78,-102.18 1105.33,-95.9"/>
<polygon fill="#1414ce" stroke="#1414ce" points="1105.94,-99.35 1115.35,-94.49 1104.96,-92.41 1105.94,-99.35"/>
</a>
</g>
</g>
<!-- 19&#45;&gt;9 -->
<g id="edge15" class="edge">
<title>19&#45;&gt;9</title>
<g id="a_edge15"><a xlink:title="include">
<path fill="none" stroke="#1414ce" d="M476.25,-149.4C480.82,-147.54 485.53,-145.68 490,-144 524.99,-130.86 564.91,-117.4 595.74,-107.34"/>
<polygon fill="#1414ce" stroke="#1414ce" points="596.98,-110.61 605.41,-104.19 594.82,-103.96 596.98,-110.61"/>
</a>
</g>
</g>
<!-- 31 -->
<g id="node10" class="node">
<title>31</title>
<g id="a_node10"><a xlink:title="jit.h">
<polygon fill="#ffffff" stroke="black" points="945,-612 891,-612 891,-576 945,-576 945,-612"/>
<text text-anchor="middle" x="918" y="-590.3" font-family="Times,serif" font-size="14.00">jit.h</text>
</a>
</g>
</g>
<!-- 31&#45;&gt;9 -->
<g id="edge20" class="edge">
<title>31&#45;&gt;9</title>
<g id="a_edge20"><a xlink:title="include">
<path fill="none" stroke="#1414ce" d="M890.99,-584.99C827.85,-564.76 670.25,-505.28 595,-396 548.83,-328.94 536.84,-293.75 561,-216 573.15,-176.9 602.25,-139.2 623.24,-115.62"/>
<polygon fill="#1414ce" stroke="#1414ce" points="625.86,-117.93 630.01,-108.18 620.69,-113.22 625.86,-117.93"/>
</a>
</g>
</g>
<!-- 31&#45;&gt;22 -->
<g id="edge18" class="edge">
<title>31&#45;&gt;22</title>
<g id="a_edge18"><a xlink:title="include">
<path fill="none" stroke="#1414ce" d="M938.31,-575.9C960.54,-557.45 997.49,-527.54 1031,-504 1045.97,-493.49 1062.98,-482.67 1077.84,-473.57"/>
<polygon fill="#1414ce" stroke="#1414ce" points="1080.04,-476.32 1086.77,-468.14 1076.41,-470.34 1080.04,-476.32"/>
</a>
</g>
</g>
<!-- 34 -->
<g id="node20" class="node">
<title>34</title>
<g id="a_node20"><a xlink:title="exportedfunction.h">
<polygon fill="#ffffff" stroke="black" points="1192,-540 1040,-540 1040,-504 1192,-504 1192,-540"/>
<text text-anchor="middle" x="1116" y="-518.3" font-family="Times,serif" font-size="14.00">exportedfunction.h</text>
</a>
</g>
</g>
<!-- 31&#45;&gt;34 -->
<g id="edge17" class="edge">
<title>31&#45;&gt;34</title>
<g id="a_edge17"><a xlink:title="include">
<path fill="none" stroke="#1414ce" d="M945.12,-583.41C973.99,-573.21 1020.57,-556.74 1057.81,-543.57"/>
<polygon fill="#1414ce" stroke="#1414ce" points="1059.29,-546.76 1067.55,-540.13 1056.95,-540.16 1059.29,-546.76"/>
</a>
</g>
</g>
<!-- 14 -->
<g id="node25" class="node">
<title>14</title>
<g id="a_node25"><a xlink:title="term_typedef.h">
<polygon fill="#ffffff" stroke="black" points="1605.5,-108 1480.5,-108 1480.5,-72 1605.5,-72 1605.5,-108"/>
<text text-anchor="middle" x="1543" y="-86.3" font-family="Times,serif" font-size="14.00">term_typedef.h</text>
</a>
</g>
</g>
<!-- 31&#45;&gt;14 -->
<g id="edge19" class="edge">
<title>31&#45;&gt;14</title>
<g id="a_edge19"><a xlink:title="include">
<path fill="none" stroke="#1414ce" d="M945.07,-590.19C996.1,-584.4 1109.57,-569.17 1201,-540 1327.96,-499.5 1361.72,-481.43 1464,-396 1547.15,-326.54 1565.18,-287.7 1577,-180 1578.75,-164.1 1581.5,-159.35 1577,-144 1574.2,-134.45 1569.09,-124.98 1563.67,-116.76"/>
<polygon fill="#1414ce" stroke="#1414ce" points="1566.38,-114.52 1557.75,-108.37 1560.65,-118.56 1566.38,-114.52"/>
</a>
</g>
</g>
<!-- 32 -->
<g id="node27" class="node">
<title>32</title>
<g id="a_node27"><a xlink:title="bitstring.h">
<polygon fill="#ffffff" stroke="black" points="908,-540 816,-540 816,-504 908,-504 908,-540"/>
<text text-anchor="middle" x="862" y="-518.3" font-family="Times,serif" font-size="14.00">bitstring.h</text>
</a>
</g>
</g>
<!-- 31&#45;&gt;32 -->
<g id="edge16" class="edge">
<title>31&#45;&gt;32</title>
<g id="a_edge16"><a xlink:title="include">
<path fill="none" stroke="#1414ce" d="M904.16,-575.7C897.51,-567.39 889.42,-557.28 882.11,-548.14"/>
<polygon fill="#1414ce" stroke="#1414ce" points="884.66,-545.73 875.68,-540.1 879.2,-550.1 884.66,-545.73"/>
</a>
</g>
</g>
<!-- 3&#45;&gt;19 -->
<g id="edge23" class="edge">
<title>3&#45;&gt;19</title>
<g id="a_edge23"><a xlink:title="include">
<path fill="none" stroke="#1414ce" d="M525.14,-661.92C406.4,-652.04 76,-616.17 76,-523 76,-523 76,-523 76,-449 76,-308.09 171.77,-291.09 291,-216 337.04,-187.01 356.81,-198.44 408,-180 409.4,-179.49 410.83,-178.97 412.27,-178.43"/>
<polygon fill="#1414ce" stroke="#1414ce" points="413.75,-181.6 421.79,-174.7 411.21,-175.08 413.75,-181.6"/>
</a>
</g>
</g>
<!-- 3&#45;&gt;31 -->
<g id="edge22" class="edge">
<title>3&#45;&gt;31</title>
<g id="a_edge22"><a xlink:title="include">
<path fill="none" stroke="#1414ce" d="M608.64,-656.7C677.76,-642.91 815.09,-615.52 881.01,-602.38"/>
<polygon fill="#1414ce" stroke="#1414ce" points="881.83,-605.78 890.95,-600.39 880.46,-598.92 881.83,-605.78"/>
</a>
</g>
</g>
<!-- 3&#45;&gt;22 -->
<g id="edge26" class="edge">
<title>3&#45;&gt;22</title>
<g id="a_edge26"><a xlink:title="include">
<path fill="none" stroke="#1414ce" d="M608.58,-663.69C738.01,-658.64 1129.3,-635.58 1201,-540 1210.6,-527.2 1208.76,-517.99 1201,-504 1191.6,-487.06 1174.29,-474.83 1157.73,-466.42"/>
<polygon fill="#1414ce" stroke="#1414ce" points="1159.2,-463.24 1148.67,-462.13 1156.21,-469.57 1159.2,-463.24"/>
</a>
</g>
</g>
<!-- 4 -->
<g id="node26" class="node">
<title>4</title>
<g id="a_node26"><a xlink:title="globalcontext.h">
<polygon fill="#ffffff" stroke="black" points="513.5,-612 386.5,-612 386.5,-576 513.5,-576 513.5,-612"/>
<text text-anchor="middle" x="450" y="-590.3" font-family="Times,serif" font-size="14.00">globalcontext.h</text>
</a>
</g>
</g>
<!-- 3&#45;&gt;4 -->
<g id="edge21" class="edge">
<title>3&#45;&gt;4</title>
<g id="a_edge21"><a xlink:title="include">
<path fill="none" stroke="#1414ce" d="M538.38,-647.88C523.08,-638.72 504.06,-627.34 487.58,-617.48"/>
<polygon fill="#1414ce" stroke="#1414ce" points="489.11,-614.32 478.73,-612.19 485.52,-620.33 489.11,-614.32"/>
</a>
</g>
</g>
<!-- 3&#45;&gt;21 -->
<g id="edge25" class="edge">
<title>3&#45;&gt;21</title>
<g id="a_edge25"><a xlink:title="include">
<path fill="none" stroke="#1414ce" d="M525.41,-663.33C406.95,-658.23 73.86,-641.4 35,-612 1.1,-586.35 0,-565.5 0,-523 0,-523 0,-523 0,-377 0,-291.81 33.25,-263.45 104,-216 173.85,-169.15 210.85,-202.95 295.83,-179.88"/>
<polygon fill="#1414ce" stroke="#1414ce" points="296.97,-183.19 305.59,-177.03 295.01,-176.47 296.97,-183.19"/>
</a>
</g>
</g>
<!-- 29 -->
<g id="node30" class="node">
<title>29</title>
<g id="a_node30"><a xlink:title="timer_list.h">
<polygon fill="#ffffff" stroke="black" points="220,-252 122,-252 122,-216 220,-216 220,-252"/>
<text text-anchor="middle" x="171" y="-230.3" font-family="Times,serif" font-size="14.00">timer_list.h</text>
</a>
</g>
</g>
<!-- 3&#45;&gt;29 -->
<g id="edge27" class="edge">
<title>3&#45;&gt;29</title>
<g id="a_edge27"><a xlink:title="include">
<path fill="none" stroke="#1414ce" d="M525.32,-663.3C410.71,-658.26 97.01,-641.85 62,-612 30.82,-585.42 38,-563.97 38,-523 38,-523 38,-523 38,-449 38,-408.03 42.71,-396.14 62,-360 83.16,-320.35 119.05,-282.57 143.83,-259.13"/>
<polygon fill="#1414ce" stroke="#1414ce" points="146.51,-261.41 151.45,-252.04 141.75,-256.29 146.51,-261.41"/>
</a>
</g>
</g>
<!-- 28 -->
<g id="node31" class="node">
<title>28</title>
<g id="a_node31"><a xlink:title="mailbox.h">
<polygon fill="#ffffff" stroke="black" points="656,-252 570,-252 570,-216 656,-216 656,-252"/>
<text text-anchor="middle" x="613" y="-230.3" font-family="Times,serif" font-size="14.00">mailbox.h</text>
</a>
</g>
</g>
<!-- 3&#45;&gt;28 -->
<g id="edge24" class="edge">
<title>3&#45;&gt;28</title>
<g id="a_edge24"><a xlink:title="include">
<path fill="none" stroke="#1414ce" d="M569.59,-647.64C573.13,-623.52 579.55,-578.51 584,-540 595.82,-437.67 606.35,-315.62 610.78,-262.25"/>
<polygon fill="#1414ce" stroke="#1414ce" points="614.27,-262.48 611.61,-252.22 607.3,-261.9 614.27,-262.48"/>
</a>
</g>
</g>
<!-- 25 -->
<g id="node13" class="node">
<title>25</title>
<g id="a_node13"><a xlink:title="memory.h">
<polygon fill="#ffffff" stroke="black" points="1478,-252 1392,-252 1392,-216 1478,-216 1478,-252"/>
<text text-anchor="middle" x="1435" y="-230.3" font-family="Times,serif" font-size="14.00">memory.h</text>
</a>
</g>
</g>
<!-- 25&#45;&gt;10 -->
<g id="edge32" class="edge">
<title>25&#45;&gt;10</title>
<g id="a_edge32"><a xlink:title="include">
<path fill="none" stroke="#1414ce" d="M1391.73,-222.52C1336.41,-209.12 1241.29,-186.08 1187.05,-172.94"/>
<polygon fill="#1414ce" stroke="#1414ce" points="1187.64,-169.48 1177.1,-170.53 1185.99,-176.29 1187.64,-169.48"/>
</a>
</g>
</g>
<!-- 25&#45;&gt;5 -->
<g id="edge28" class="edge">
<title>25&#45;&gt;5</title>
<g id="a_edge28"><a xlink:title="include">
<path fill="none" stroke="#1414ce" d="M1431.92,-215.92C1427.72,-196.66 1418.63,-165.27 1401,-144 1362.04,-96.99 1341.05,-93.76 1284,-72 1199.56,-39.79 1093.97,-26.91 1034.45,-21.94"/>
<polygon fill="#1414ce" stroke="#1414ce" points="1034.48,-18.43 1024.24,-21.13 1033.93,-25.41 1034.48,-18.43"/>
</a>
</g>
</g>
<!-- 25&#45;&gt;7 -->
<g id="edge29" class="edge">
<title>25&#45;&gt;7</title>
<g id="a_edge29"><a xlink:title="include">
<path fill="none" stroke="#1414ce" d="M1426.43,-215.67C1415.87,-195.89 1396.17,-163.72 1371,-144 1345.46,-123.99 1311.38,-110.56 1284.24,-102.23"/>
<polygon fill="#1414ce" stroke="#1414ce" points="1285.16,-98.85 1274.58,-99.39 1283.19,-105.57 1285.16,-98.85"/>
</a>
</g>
</g>
<!-- 13 -->
<g id="node19" class="node">
<title>13</title>
<g id="a_node19"><a xlink:title="erl_nif.h">
<polygon fill="#ffffff" stroke="black" points="1535,-180 1461,-180 1461,-144 1535,-144 1535,-180"/>
<text text-anchor="middle" x="1498" y="-158.3" font-family="Times,serif" font-size="14.00">erl_nif.h</text>
</a>
</g>
</g>
<!-- 25&#45;&gt;13 -->
<g id="edge30" class="edge">
<title>25&#45;&gt;13</title>
<g id="a_edge30"><a xlink:title="include">
<path fill="none" stroke="#1414ce" d="M1450.57,-215.7C1458.2,-207.22 1467.52,-196.86 1475.88,-187.58"/>
<polygon fill="#1414ce" stroke="#1414ce" points="1478.52,-189.88 1482.61,-180.1 1473.31,-185.2 1478.52,-189.88"/>
</a>
</g>
</g>
<!-- 25&#45;&gt;14 -->
<g id="edge31" class="edge">
<title>25&#45;&gt;14</title>
<g id="a_edge31"><a xlink:title="include">
<path fill="none" stroke="#1414ce" d="M1478.23,-223.8C1502.04,-216.29 1529.6,-203.01 1544,-180 1555.43,-161.74 1554.11,-136.97 1550.54,-118.2"/>
<polygon fill="#1414ce" stroke="#1414ce" points="1553.91,-117.21 1548.33,-108.2 1547.07,-118.72 1553.91,-117.21"/>
</a>
</g>
</g>
<!-- 30 -->
<g id="node14" class="node">
<title>30</title>
<g id="a_node14"><a xlink:title="valueshashtable.h">
<polygon fill="#ffffff" stroke="black" points="288,-180 142,-180 142,-144 288,-144 288,-180"/>
<text text-anchor="middle" x="215" y="-158.3" font-family="Times,serif" font-size="14.00">valueshashtable.h</text>
</a>
</g>
</g>
<!-- 30&#45;&gt;5 -->
<g id="edge34" class="edge">
<title>30&#45;&gt;5</title>
<g id="a_edge34"><a xlink:title="include">
<path fill="none" stroke="#1414ce" d="M279.32,-144C354.76,-124.52 483.77,-92.65 596,-72 720.08,-49.17 867.95,-31.81 941.57,-23.83"/>
<polygon fill="#1414ce" stroke="#1414ce" points="942.31,-27.27 951.88,-22.72 941.56,-20.31 942.31,-27.27"/>
</a>
</g>
</g>
<!-- 30&#45;&gt;11 -->
<g id="edge33" class="edge">
<title>30&#45;&gt;11</title>
<g id="a_edge33"><a xlink:title="include">
<path fill="none" stroke="#1414ce" d="M288.24,-145.36C291.19,-144.88 294.12,-144.42 297,-144 353.56,-135.77 738.19,-105.3 873.8,-94.68"/>
<polygon fill="#1414ce" stroke="#1414ce" points="874.18,-98.16 883.88,-93.89 873.64,-91.18 874.18,-98.16"/>
</a>
</g>
</g>
<!-- 27&#45;&gt;20 -->
<g id="edge40" class="edge">
<title>27&#45;&gt;20</title>
<g id="a_edge40"><a xlink:title="include">
<path fill="none" stroke="#1414ce" d="M868.76,-298.29C769.45,-285.02 548.9,-255.56 447.66,-242.03"/>
<polygon fill="#1414ce" stroke="#1414ce" points="448.04,-238.55 437.66,-240.7 447.11,-245.49 448.04,-238.55"/>
</a>
</g>
</g>
<!-- 27&#45;&gt;19 -->
<g id="edge37" class="edge">
<title>27&#45;&gt;19</title>
<g id="a_edge37"><a xlink:title="include">
<path fill="none" stroke="#1414ce" d="M868.72,-305.64C797.35,-304.79 663.89,-296.62 561,-252 526.3,-236.95 493.25,-208.31 472.16,-187.57"/>
<polygon fill="#1414ce" stroke="#1414ce" points="474.49,-184.95 464.96,-180.33 469.53,-189.89 474.49,-184.95"/>
</a>
</g>
</g>
<!-- 27&#45;&gt;7 -->
<g id="edge35" class="edge">
<title>27&#45;&gt;7</title>
<g id="a_edge35"><a xlink:title="include">
<path fill="none" stroke="#1414ce" d="M942.55,-287.83C970.39,-268.2 1018.66,-236.18 1064,-216 1115.65,-193.01 1141.35,-214.68 1186,-180 1206.66,-163.96 1220.95,-137.42 1229.44,-117.49"/>
<polygon fill="#1414ce" stroke="#1414ce" points="1232.76,-118.62 1233.25,-108.04 1226.27,-116 1232.76,-118.62"/>
</a>
</g>
</g>
<!-- 27&#45;&gt;25 -->
<g id="edge39" class="edge">
<title>27&#45;&gt;25</title>
<g id="a_edge39"><a xlink:title="include">
<path fill="none" stroke="#1414ce" d="M969.42,-298.16C1067.14,-284.9 1281.51,-255.82 1381.58,-242.25"/>
<polygon fill="#1414ce" stroke="#1414ce" points="1382.32,-245.68 1391.76,-240.87 1381.38,-238.74 1382.32,-245.68"/>
</a>
</g>
</g>
<!-- 27&#45;&gt;13 -->
<g id="edge36" class="edge">
<title>27&#45;&gt;13</title>
<g id="a_edge36"><a xlink:title="include">
<path fill="none" stroke="#1414ce" d="M969.12,-292.71C1079.7,-265.59 1343.29,-200.94 1450.96,-174.54"/>
<polygon fill="#1414ce" stroke="#1414ce" points="1452.01,-177.88 1460.88,-172.1 1450.34,-171.09 1452.01,-177.88"/>
</a>
</g>
</g>
<!-- 27&#45;&gt;28 -->
<g id="edge38" class="edge">
<title>27&#45;&gt;28</title>
<g id="a_edge38"><a xlink:title="include">
<path fill="none" stroke="#1414ce" d="M868.81,-293.52C812.99,-280.75 723.18,-260.21 666.18,-247.17"/>
<polygon fill="#1414ce" stroke="#1414ce" points="666.81,-243.72 656.28,-244.9 665.25,-250.54 666.81,-243.72"/>
</a>
</g>
</g>
<!-- 1 -->
<g id="node16" class="node">
<title>1</title>
<g id="a_node16"><a xlink:title="/__w/AtomVM/AtomVM/src/libAtomVM/inet.h">
<polygon fill="#bfbfbf" stroke="black" points="1552.5,-828 1217.5,-828 1217.5,-792 1552.5,-792 1552.5,-828"/>
<text text-anchor="middle" x="1385" y="-806.3" font-family="Times,serif" font-size="14.00">/__w/AtomVM/AtomVM/src/libAtomVM/inet.h</text>
</a>
</g>
</g>
<!-- 1&#45;&gt;2 -->
<g id="edge41" class="edge">
<title>1&#45;&gt;2</title>
<g id="a_edge41"><a xlink:title="include">
<path fill="none" stroke="#1414ce" d="M1353.93,-791.88C1337.17,-782.64 1316.29,-771.13 1298.3,-761.21"/>
<polygon fill="#1414ce" stroke="#1414ce" points="1299.63,-757.95 1289.19,-756.19 1296.26,-764.08 1299.63,-757.95"/>
</a>
</g>
</g>
<!-- 1&#45;&gt;25 -->
<g id="edge42" class="edge">
<title>1&#45;&gt;25</title>
<g id="a_edge42"><a xlink:title="include">
<path fill="none" stroke="#1414ce" d="M1416.97,-791.81C1454.88,-768.82 1513,-724.25 1513,-667 1513,-667 1513,-667 1513,-377 1513,-331.37 1481.68,-286.55 1458.73,-259.84"/>
<polygon fill="#1414ce" stroke="#1414ce" points="1461.17,-257.31 1451.92,-252.15 1455.93,-261.95 1461.17,-257.31"/>
</a>
</g>
</g>
<!-- 22&#45;&gt;9 -->
<g id="edge44" class="edge">
<title>22&#45;&gt;9</title>
<g id="a_edge44"><a xlink:title="include">
<path fill="none" stroke="#1414ce" d="M1083.21,-445.46C1021.93,-438.33 892.89,-420.8 856,-396 776.21,-342.35 790.46,-295.24 736,-216 713.79,-183.68 707.76,-175.93 685,-144 678.59,-135.01 671.55,-125.18 665.29,-116.45"/>
<polygon fill="#1414ce" stroke="#1414ce" points="668.02,-114.25 659.35,-108.17 662.34,-118.33 668.02,-114.25"/>
</a>
</g>
</g>
<!-- 22&#45;&gt;26 -->
<g id="edge51" class="edge">
<title>22&#45;&gt;26</title>
<g id="a_edge51"><a xlink:title="include">
<path fill="none" stroke="#1414ce" d="M1083.47,-437.44C1054.5,-427.15 1011.44,-411.85 976.65,-399.48"/>
<polygon fill="#1414ce" stroke="#1414ce" points="977.67,-396.13 967.07,-396.08 975.32,-402.73 977.67,-396.13"/>
</a>
</g>
</g>
<!-- 22&#45;&gt;6 -->
<g id="edge49" class="edge">
<title>22&#45;&gt;6</title>
<g id="a_edge49"><a xlink:title="include">
<path fill="none" stroke="#1414ce" d="M1095.14,-431.92C1084.55,-422.32 1072.23,-409.55 1064,-396 1022.81,-328.15 1001.3,-235.46 992.65,-190.16"/>
<polygon fill="#1414ce" stroke="#1414ce" points="996.07,-189.42 990.82,-180.22 989.19,-190.69 996.07,-189.42"/>
</a>
</g>
</g>
<!-- 22&#45;&gt;10 -->
<g id="edge52" class="edge">
<title>22&#45;&gt;10</title>
<g id="a_edge52"><a xlink:title="include">
<path fill="none" stroke="#1414ce" d="M1117.3,-431.73C1119.27,-413.14 1124.15,-383.11 1136,-360 1145.77,-340.95 1160.39,-344.01 1168,-324 1185.06,-279.13 1177.38,-263.07 1168,-216 1166.21,-207.01 1162.86,-197.64 1159.31,-189.32"/>
<polygon fill="#1414ce" stroke="#1414ce" points="1162.46,-187.77 1155.13,-180.12 1156.08,-190.67 1162.46,-187.77"/>
</a>
</g>
</g>
<!-- 22&#45;&gt;5 -->
<g id="edge45" class="edge">
<title>22&#45;&gt;5</title>
<g id="a_edge45"><a xlink:title="include">
<path fill="none" stroke="#1414ce" d="M1115.25,-431.81C1114.78,-413.78 1114.88,-384.7 1119,-360 1121.75,-343.5 1127.53,-340.55 1130,-324 1137.09,-276.53 1143.91,-261.94 1130,-216 1124.43,-197.6 1114.94,-197.03 1106,-180 1081.98,-134.26 1094.97,-112.58 1063,-72 1053.79,-60.31 1041.33,-50.1 1029.2,-41.84"/>
<polygon fill="#1414ce" stroke="#1414ce" points="1030.78,-38.69 1020.49,-36.18 1026.97,-44.56 1030.78,-38.69"/>
</a>
</g>
</g>
<!-- 22&#45;&gt;7 -->
<g id="edge47" class="edge">
<title>22&#45;&gt;7</title>
<g id="a_edge47"><a xlink:title="include">
<path fill="none" stroke="#1414ce" d="M1148.69,-446.85C1209.56,-442.11 1336.6,-428.47 1364,-396 1438.02,-308.28 1319.33,-170.8 1264.46,-115.37"/>
<polygon fill="#1414ce" stroke="#1414ce" points="1266.72,-112.68 1257.16,-108.11 1261.78,-117.64 1266.72,-112.68"/>
</a>
</g>
</g>
<!-- 22&#45;&gt;25 -->
<g id="edge50" class="edge">
<title>22&#45;&gt;25</title>
<g id="a_edge50"><a xlink:title="include">
<path fill="none" stroke="#1414ce" d="M1148.51,-447.87C1217.86,-444.74 1376.95,-433.55 1413,-396 1447.26,-360.31 1444.91,-297.97 1440.03,-262.24"/>
<polygon fill="#1414ce" stroke="#1414ce" points="1443.44,-261.42 1438.47,-252.06 1436.52,-262.48 1443.44,-261.42"/>
</a>
</g>
</g>
<!-- 23 -->
<g id="node23" class="node">
<title>23</title>
<g id="a_node23"><a xlink:title="sys/types.h">
<polygon fill="#ffffff" stroke="black" points="1241.5,-396 1144.5,-396 1144.5,-360 1241.5,-360 1241.5,-396"/>
<text text-anchor="middle" x="1193" y="-374.3" font-family="Times,serif" font-size="14.00">sys/types.h</text>
</a>
</g>
</g>
<!-- 22&#45;&gt;23 -->
<g id="edge43" class="edge">
<title>22&#45;&gt;23</title>
<g id="a_edge43"><a xlink:title="include">
<path fill="none" stroke="#1414ce" d="M1135.03,-431.7C1144.54,-423.05 1156.21,-412.45 1166.57,-403.03"/>
<polygon fill="#1414ce" stroke="#1414ce" points="1169.14,-405.42 1174.19,-396.1 1164.43,-400.24 1169.14,-405.42"/>
</a>
</g>
</g>
<!-- 24 -->
<g id="node24" class="node">
<title>24</title>
<g id="a_node24"><a xlink:title="string.h">
<polygon fill="#ffffff" stroke="black" points="1332.5,-396 1259.5,-396 1259.5,-360 1332.5,-360 1332.5,-396"/>
<text text-anchor="middle" x="1296" y="-374.3" font-family="Times,serif" font-size="14.00">string.h</text>
</a>
</g>
</g>
<!-- 22&#45;&gt;24 -->
<g id="edge48" class="edge">
<title>22&#45;&gt;24</title>
<g id="a_edge48"><a xlink:title="include">
<path fill="none" stroke="#1414ce" d="M1148.6,-436.32C1176.87,-425.33 1218.13,-409.28 1249.81,-396.96"/>
<polygon fill="#1414ce" stroke="#1414ce" points="1251.25,-400.16 1259.31,-393.27 1248.72,-393.63 1251.25,-400.16"/>
</a>
</g>
</g>
<!-- 22&#45;&gt;14 -->
<g id="edge53" class="edge">
<title>22&#45;&gt;14</title>
<g id="a_edge53"><a xlink:title="include">
<path fill="none" stroke="#1414ce" d="M1148.69,-447.11C1220.75,-442.4 1390.54,-428.12 1437,-396 1528.23,-332.92 1533.24,-287.12 1562,-180 1567.55,-159.34 1561.91,-135.63 1555.37,-117.88"/>
<polygon fill="#1414ce" stroke="#1414ce" points="1558.45,-116.17 1551.49,-108.19 1551.95,-118.77 1558.45,-116.17"/>
</a>
</g>
</g>
<!-- 22&#45;&gt;12 -->
<g id="edge46" class="edge">
<title>22&#45;&gt;12</title>
<g id="a_edge46"><a xlink:title="include">
<path fill="none" stroke="#1414ce" d="M1148.58,-446.23C1205.25,-440.67 1318.22,-426 1342,-396 1420.1,-297.46 1257.12,-166.34 1182.58,-114"/>
<polygon fill="#1414ce" stroke="#1414ce" points="1184.16,-110.84 1173.95,-108.01 1180.17,-116.59 1184.16,-110.84"/>
</a>
</g>
</g>
<!-- 13&#45;&gt;14 -->
<g id="edge54" class="edge">
<title>13&#45;&gt;14</title>
<g id="a_edge54"><a xlink:title="include">
<path fill="none" stroke="#1414ce" d="M1509.12,-143.7C1514.36,-135.56 1520.7,-125.69 1526.48,-116.7"/>
<polygon fill="#1414ce" stroke="#1414ce" points="1529.54,-118.41 1532,-108.1 1523.65,-114.62 1529.54,-118.41"/>
</a>
</g>
</g>
<!-- 34&#45;&gt;22 -->
<g id="edge55" class="edge">
<title>34&#45;&gt;22</title>
<g id="a_edge55"><a xlink:title="include">
<path fill="none" stroke="#1414ce" d="M1116,-503.7C1116,-495.98 1116,-486.71 1116,-478.11"/>
<polygon fill="#1414ce" stroke="#1414ce" points="1119.5,-478.1 1116,-468.1 1112.5,-478.1 1119.5,-478.1"/>
</a>
</g>
</g>
<!-- 16 -->
<g id="node21" class="node">
<title>16</title>
<g id="a_node21"><a xlink:title="limits.h">
<polygon fill="#ffffff" stroke="black" points="1480.5,-36 1409.5,-36 1409.5,0 1480.5,0 1480.5,-36"/>
<text text-anchor="middle" x="1445" y="-14.3" font-family="Times,serif" font-size="14.00">limits.h</text>
</a>
</g>
</g>
<!-- 8 -->
<g id="node22" class="node">
<title>8</title>
<g id="a_node22"><a xlink:title="atom_table.h">
<polygon fill="#ffffff" stroke="black" points="973.5,-252 864.5,-252 864.5,-216 973.5,-216 973.5,-252"/>
<text text-anchor="middle" x="919" y="-230.3" font-family="Times,serif" font-size="14.00">atom_table.h</text>
</a>
</g>
</g>
<!-- 8&#45;&gt;9 -->
<g id="edge56" class="edge">
<title>8&#45;&gt;9</title>
<g id="a_edge56"><a xlink:title="include">
<path fill="none" stroke="#1414ce" d="M874.99,-215.97C852.95,-206.64 826.29,-194.11 804,-180 782.94,-166.67 782.04,-157.37 761,-144 741.36,-131.52 718.31,-120.24 698.09,-111.33"/>
<polygon fill="#1414ce" stroke="#1414ce" points="699.29,-108.04 688.72,-107.28 696.51,-114.46 699.29,-108.04"/>
</a>
</g>
</g>
<!-- 8&#45;&gt;6 -->
<g id="edge57" class="edge">
<title>8&#45;&gt;6</title>
<g id="a_edge57"><a xlink:title="include">
<path fill="none" stroke="#1414ce" d="M936.06,-215.7C944.5,-207.14 954.82,-196.66 964.04,-187.3"/>
<polygon fill="#1414ce" stroke="#1414ce" points="966.61,-189.68 971.14,-180.1 961.63,-184.77 966.61,-189.68"/>
</a>
</g>
</g>
<!-- 8&#45;&gt;10 -->
<g id="edge58" class="edge">
<title>8&#45;&gt;10</title>
<g id="a_edge58"><a xlink:title="include">
<path fill="none" stroke="#1414ce" d="M973.66,-216.14C1014.07,-203.68 1068.24,-186.98 1104.98,-175.65"/>
<polygon fill="#1414ce" stroke="#1414ce" points="1106.33,-178.89 1114.86,-172.6 1104.27,-172.21 1106.33,-178.89"/>
</a>
</g>
</g>
<!-- 14&#45;&gt;15 -->
<g id="edge59" class="edge">
<title>14&#45;&gt;15</title>
<g id="a_edge59"><a xlink:title="include">
<path fill="none" stroke="#1414ce" d="M1567.46,-71.88C1580.3,-62.89 1596.2,-51.76 1610.09,-42.03"/>
<polygon fill="#1414ce" stroke="#1414ce" points="1612.26,-44.79 1618.44,-36.19 1608.24,-39.06 1612.26,-44.79"/>
</a>
</g>
</g>
<!-- 14&#45;&gt;5 -->
<g id="edge62" class="edge">
<title>14&#45;&gt;5</title>
<g id="a_edge62"><a xlink:title="include">
<path fill="none" stroke="#1414ce" d="M1480.35,-77.34C1469.26,-75.44 1457.8,-73.58 1447,-72 1296.48,-50 1117.08,-31.51 1034.19,-23.4"/>
<polygon fill="#1414ce" stroke="#1414ce" points="1034.39,-19.91 1024.1,-22.42 1033.71,-26.87 1034.39,-19.91"/>
</a>
</g>
</g>
<!-- 14&#45;&gt;16 -->
<g id="edge60" class="edge">
<title>14&#45;&gt;16</title>
<g id="a_edge60"><a xlink:title="include">
<path fill="none" stroke="#1414ce" d="M1519.03,-71.88C1506.45,-62.89 1490.87,-51.76 1477.25,-42.03"/>
<polygon fill="#1414ce" stroke="#1414ce" points="1479.24,-39.15 1469.07,-36.19 1475.17,-44.85 1479.24,-39.15"/>
</a>
</g>
</g>
<!-- 17 -->
<g id="node34" class="node">
<title>17</title>
<g id="a_node34"><a xlink:title="inttypes.h">
<polygon fill="#ffffff" stroke="black" points="1587.5,-36 1498.5,-36 1498.5,0 1587.5,0 1587.5,-36"/>
<text text-anchor="middle" x="1543" y="-14.3" font-family="Times,serif" font-size="14.00">inttypes.h</text>
</a>
</g>
</g>
<!-- 14&#45;&gt;17 -->
<g id="edge61" class="edge">
<title>14&#45;&gt;17</title>
<g id="a_edge61"><a xlink:title="include">
<path fill="none" stroke="#1414ce" d="M1543,-71.7C1543,-63.98 1543,-54.71 1543,-46.11"/>
<polygon fill="#1414ce" stroke="#1414ce" points="1546.5,-46.1 1543,-36.1 1539.5,-46.1 1546.5,-46.1"/>
</a>
</g>
</g>
<!-- 4&#45;&gt;6 -->
<g id="edge64" class="edge">
<title>4&#45;&gt;6</title>
<g id="a_edge64"><a xlink:title="include">
<path fill="none" stroke="#1414ce" d="M475.34,-575.95C489.7,-565.96 507.79,-552.81 523,-540 680.96,-407 682.91,-328.6 856,-216 863.92,-210.85 909.58,-192.9 945.01,-179.31"/>
<polygon fill="#1414ce" stroke="#1414ce" points="946.6,-182.44 954.69,-175.6 944.1,-175.91 946.6,-182.44"/>
</a>
</g>
</g>
<!-- 4&#45;&gt;20 -->
<g id="edge71" class="edge">
<title>4&#45;&gt;20</title>
<g id="a_edge71"><a xlink:title="include">
<path fill="none" stroke="#1414ce" d="M450,-575.95C450,-549.29 450,-496.11 450,-451 450,-451 450,-451 450,-377 450,-334.01 427.81,-288.34 411.62,-260.74"/>
<polygon fill="#1414ce" stroke="#1414ce" points="414.56,-258.85 406.4,-252.1 408.57,-262.47 414.56,-258.85"/>
</a>
</g>
</g>
<!-- 4&#45;&gt;19 -->
<g id="edge68" class="edge">
<title>4&#45;&gt;19</title>
<g id="a_edge68"><a xlink:title="include">
<path fill="none" stroke="#1414ce" d="M403.44,-575.87C354.96,-554.67 286,-513.52 286,-451 286,-451 286,-451 286,-305 286,-262.33 291.99,-246.34 322,-216 322.43,-215.56 374.92,-193.73 412.28,-178.23"/>
<polygon fill="#1414ce" stroke="#1414ce" points="413.99,-181.31 421.88,-174.24 411.3,-174.84 413.99,-181.31"/>
</a>
</g>
</g>
<!-- 4&#45;&gt;5 -->
<g id="edge63" class="edge">
<title>4&#45;&gt;5</title>
<g id="a_edge63"><a xlink:title="include">
<path fill="none" stroke="#1414ce" d="M386.46,-586.57C320.28,-578.73 222.23,-563.54 193,-540 53.8,-427.9 18.33,-288.87 123,-144 153.82,-101.34 167.77,-90.59 217,-72 350.62,-21.53 795.32,-18.35 941.2,-18.71"/>
<polygon fill="#1414ce" stroke="#1414ce" points="941.57,-22.21 951.58,-18.74 941.6,-15.21 941.57,-22.21"/>
</a>
</g>
</g>
<!-- 4&#45;&gt;30 -->
<g id="edge74" class="edge">
<title>4&#45;&gt;30</title>
<g id="a_edge74"><a xlink:title="include">
<path fill="none" stroke="#1414ce" d="M386.35,-585.09C326.96,-576.54 243.88,-561.24 219,-540 189.95,-515.19 83.62,-248.31 104,-216 112.63,-202.31 125.88,-192.09 140.25,-184.47"/>
<polygon fill="#1414ce" stroke="#1414ce" points="141.86,-187.58 149.32,-180.05 138.79,-181.29 141.86,-187.58"/>
</a>
</g>
</g>
<!-- 4&#45;&gt;22 -->
<g id="edge72" class="edge">
<title>4&#45;&gt;22</title>
<g id="a_edge72"><a xlink:title="include">
<path fill="none" stroke="#1414ce" d="M513.7,-593.95C605.26,-593.51 778.33,-585.88 917,-540 947.25,-529.99 950.28,-517.79 979,-504 1009.92,-489.16 1046.16,-475.28 1073.6,-465.45"/>
<polygon fill="#1414ce" stroke="#1414ce" points="1075.03,-468.66 1083.28,-462.02 1072.69,-462.06 1075.03,-468.66"/>
</a>
</g>
</g>
<!-- 4&#45;&gt;13 -->
<g id="edge66" class="edge">
<title>4&#45;&gt;13</title>
<g id="a_edge66"><a xlink:title="include">
<path fill="none" stroke="#1414ce" d="M513.67,-589.41C631.63,-582.25 879.63,-564.76 962,-540 995.13,-530.04 998.76,-516.52 1031,-504 1205.05,-436.4 1300.16,-523.04 1437,-396 1495.4,-341.78 1500.66,-239.15 1499.53,-190.24"/>
<polygon fill="#1414ce" stroke="#1414ce" points="1503.02,-189.99 1499.18,-180.11 1496.02,-190.23 1503.02,-189.99"/>
</a>
</g>
</g>
<!-- 4&#45;&gt;8 -->
<g id="edge65" class="edge">
<title>4&#45;&gt;8</title>
<g id="a_edge65"><a xlink:title="include">
<path fill="none" stroke="#1414ce" d="M505.95,-576C530.85,-567.16 559.92,-555.04 584,-540 619.22,-518 829.22,-315.88 860,-288 870.47,-278.52 882.02,-268.13 892.11,-259.08"/>
<polygon fill="#1414ce" stroke="#1414ce" points="894.73,-261.43 899.83,-252.15 890.05,-256.22 894.73,-261.43"/>
</a>
</g>
</g>
<!-- 4&#45;&gt;21 -->
<g id="edge70" class="edge">
<title>4&#45;&gt;21</title>
<g id="a_edge70"><a xlink:title="include">
<path fill="none" stroke="#1414ce" d="M386.38,-589.91C344.38,-584.76 290.54,-571.84 254,-540 162.26,-460.07 213.6,-389.83 147,-288 134.95,-269.58 121.13,-272.45 113,-252 81.7,-173.27 204.04,-203.76 295.7,-179.85"/>
<polygon fill="#1414ce" stroke="#1414ce" points="296.94,-183.13 305.58,-177.01 295.01,-176.4 296.94,-183.13"/>
</a>
</g>
</g>
<!-- 4&#45;&gt;29 -->
<g id="edge73" class="edge">
<title>4&#45;&gt;29</title>
<g id="a_edge73"><a xlink:title="include">
<path fill="none" stroke="#1414ce" d="M386.24,-588.53C348.57,-582.7 302.43,-569.52 272,-540 261.58,-529.89 201.27,-334.38 179.14,-261.81"/>
<polygon fill="#1414ce" stroke="#1414ce" points="182.42,-260.58 176.16,-252.03 175.73,-262.62 182.42,-260.58"/>
</a>
</g>
</g>
<!-- 4&#45;&gt;28 -->
<g id="edge69" class="edge">
<title>4&#45;&gt;28</title>
<g id="a_edge69"><a xlink:title="include">
<path fill="none" stroke="#1414ce" d="M468.2,-575.6C492.36,-550.53 532,-501.67 532,-451 532,-451 532,-451 532,-377 532,-330.96 564.52,-286.25 588.35,-259.67"/>
<polygon fill="#1414ce" stroke="#1414ce" points="591.21,-261.74 595.42,-252.02 586.07,-256.99 591.21,-261.74"/>
</a>
</g>
</g>
<!-- 18 -->
<g id="node33" class="node">
<title>18</title>
<g id="a_node33"><a xlink:title="ets.h">
<polygon fill="#ffffff" stroke="black" points="422,-540 368,-540 368,-504 422,-504 422,-540"/>
<text text-anchor="middle" x="395" y="-518.3" font-family="Times,serif" font-size="14.00">ets.h</text>
</a>
</g>
</g>
<!-- 4&#45;&gt;18 -->
<g id="edge67" class="edge">
<title>4&#45;&gt;18</title>
<g id="a_edge67"><a xlink:title="include">
<path fill="none" stroke="#1414ce" d="M436.4,-575.7C429.88,-567.39 421.93,-557.28 414.75,-548.14"/>
<polygon fill="#1414ce" stroke="#1414ce" points="417.37,-545.81 408.44,-540.1 411.87,-550.13 417.37,-545.81"/>
</a>
</g>
</g>
<!-- 32&#45;&gt;9 -->
<g id="edge77" class="edge">
<title>32&#45;&gt;9</title>
<g id="a_edge77"><a xlink:title="include">
<path fill="none" stroke="#1414ce" d="M825.58,-503.81C784.1,-481.42 722,-438.03 722,-379 722,-379 722,-379 722,-305 722,-267.25 679.91,-165.95 658.79,-117.51"/>
<polygon fill="#1414ce" stroke="#1414ce" points="661.97,-116.04 654.74,-108.29 655.56,-118.85 661.97,-116.04"/>
</a>
</g>
</g>
<!-- 32&#45;&gt;5 -->
<g id="edge78" class="edge">
<title>32&#45;&gt;5</title>
<g id="a_edge78"><a xlink:title="include">
<path fill="none" stroke="#1414ce" d="M884.77,-503.75C912.13,-481.78 957.41,-441.18 982,-396 1036.5,-295.86 1048.4,-256.52 1030,-144 1024.29,-109.05 1010.14,-70.7 999.84,-45.82"/>
<polygon fill="#1414ce" stroke="#1414ce" points="1002.95,-44.19 995.84,-36.34 996.51,-46.92 1002.95,-44.19"/>
</a>
</g>
</g>
<!-- 32&#45;&gt;22 -->
<g id="edge75" class="edge">
<title>32&#45;&gt;22</title>
<g id="a_edge75"><a xlink:title="include">
<path fill="none" stroke="#1414ce" d="M908.17,-507.87C912.84,-506.55 917.51,-505.25 922,-504 980.59,-487.71 995.34,-484.04 1054,-468 1060.22,-466.3 1066.78,-464.5 1073.23,-462.74"/>
<polygon fill="#1414ce" stroke="#1414ce" points="1074.46,-466.03 1083.18,-460.01 1072.61,-459.28 1074.46,-466.03"/>
</a>
</g>
</g>
<!-- 33 -->
<g id="node29" class="node">
<title>33</title>
<g id="a_node29"><a xlink:title="unicode.h">
<polygon fill="#ffffff" stroke="black" points="899,-180 813,-180 813,-144 899,-144 899,-180"/>
<text text-anchor="middle" x="856" y="-158.3" font-family="Times,serif" font-size="14.00">unicode.h</text>
</a>
</g>
</g>
<!-- 32&#45;&gt;33 -->
<g id="edge76" class="edge">
<title>32&#45;&gt;33</title>
<g id="a_edge76"><a xlink:title="include">
<path fill="none" stroke="#1414ce" d="M848.43,-503.76C829.64,-478.1 798,-427.67 798,-379 798,-379 798,-379 798,-305 798,-261.7 821.4,-216.11 838.48,-188.61"/>
<polygon fill="#1414ce" stroke="#1414ce" points="841.54,-190.32 843.98,-180.01 835.64,-186.55 841.54,-190.32"/>
</a>
</g>
</g>
<!-- 21&#45;&gt;9 -->
<g id="edge79" class="edge">
<title>21&#45;&gt;9</title>
<g id="a_edge79"><a xlink:title="include">
<path fill="none" stroke="#1414ce" d="M366.06,-148.6C370.69,-146.92 375.44,-145.32 380,-144 453.55,-122.66 540.98,-107.1 595.24,-98.55"/>
<polygon fill="#1414ce" stroke="#1414ce" points="595.96,-101.98 605.3,-96.99 594.88,-95.07 595.96,-101.98"/>
</a>
</g>
</g>
<!-- 33&#45;&gt;9 -->
<g id="edge80" class="edge">
<title>33&#45;&gt;9</title>
<g id="a_edge80"><a xlink:title="include">
<path fill="none" stroke="#1414ce" d="M812.95,-146.58C779.63,-135.42 733.4,-119.94 698.19,-108.14"/>
<polygon fill="#1414ce" stroke="#1414ce" points="699.16,-104.78 688.57,-104.92 696.94,-111.42 699.16,-104.78"/>
</a>
</g>
</g>
<!-- 33&#45;&gt;5 -->
<g id="edge82" class="edge">
<title>33&#45;&gt;5</title>
<g id="a_edge82"><a xlink:title="include">
<path fill="none" stroke="#1414ce" d="M855.34,-143.7C855.5,-124.24 858.59,-92.66 875,-72 891.69,-50.99 918.66,-37.91 942.08,-30"/>
<polygon fill="#1414ce" stroke="#1414ce" points="943.37,-33.26 951.85,-26.91 941.26,-26.58 943.37,-33.26"/>
</a>
</g>
</g>
<!-- 33&#45;&gt;11 -->
<g id="edge81" class="edge">
<title>33&#45;&gt;11</title>
<g id="a_edge81"><a xlink:title="include">
<path fill="none" stroke="#1414ce" d="M872.07,-143.7C879.94,-135.22 889.56,-124.86 898.17,-115.58"/>
<polygon fill="#1414ce" stroke="#1414ce" points="900.88,-117.81 905.12,-108.1 895.75,-113.05 900.88,-117.81"/>
</a>
</g>
</g>
<!-- 29&#45;&gt;9 -->
<g id="edge83" class="edge">
<title>29&#45;&gt;9</title>
<g id="a_edge83"><a xlink:title="include">
<path fill="none" stroke="#1414ce" d="M220.16,-219.66C224.84,-218.42 229.51,-217.18 234,-216 296.56,-199.57 318.37,-211.24 375,-180 395.37,-168.76 392.48,-154.96 413,-144 470.8,-113.13 545.92,-100.19 595.25,-94.79"/>
<polygon fill="#1414ce" stroke="#1414ce" points="595.78,-98.26 605.37,-93.75 595.07,-91.29 595.78,-98.26"/>
</a>
</g>
</g>
<!-- 29&#45;&gt;19 -->
<g id="edge85" class="edge">
<title>29&#45;&gt;19</title>
<g id="a_edge85"><a xlink:title="include">
<path fill="none" stroke="#1414ce" d="M220.11,-219.45C224.79,-218.24 229.48,-217.08 234,-216 310.82,-197.7 332.52,-203.23 408,-180 409.43,-179.56 410.87,-179.09 412.33,-178.6"/>
<polygon fill="#1414ce" stroke="#1414ce" points="413.74,-181.81 421.92,-175.07 411.32,-175.24 413.74,-181.81"/>
</a>
</g>
</g>
<!-- 29&#45;&gt;5 -->
<g id="edge84" class="edge">
<title>29&#45;&gt;5</title>
<g id="a_edge84"><a xlink:title="include">
<path fill="none" stroke="#1414ce" d="M153.84,-215.87C136.88,-196.86 115.8,-165.95 133,-144 183.55,-79.48 770.93,-34.02 941.7,-22.1"/>
<polygon fill="#1414ce" stroke="#1414ce" points="942.14,-25.58 951.87,-21.4 941.66,-18.6 942.14,-25.58"/>
</a>
</g>
</g>
<!-- 28&#45;&gt;9 -->
<g id="edge86" class="edge">
<title>28&#45;&gt;9</title>
<g id="a_edge86"><a xlink:title="include">
<path fill="none" stroke="#1414ce" d="M617.1,-215.87C622.92,-191.56 633.63,-146.82 640.53,-118.01"/>
<polygon fill="#1414ce" stroke="#1414ce" points="643.96,-118.73 642.88,-108.19 637.15,-117.1 643.96,-118.73"/>
</a>
</g>
</g>
<!-- 28&#45;&gt;10 -->
<g id="edge89" class="edge">
<title>28&#45;&gt;10</title>
<g id="a_edge89"><a xlink:title="include">
<path fill="none" stroke="#1414ce" d="M656.26,-227.78C732.04,-218.57 893.71,-198.65 1030,-180 1054.72,-176.62 1082.37,-172.58 1104.46,-169.28"/>
<polygon fill="#1414ce" stroke="#1414ce" points="1105.14,-172.72 1114.51,-167.78 1104.11,-165.8 1105.14,-172.72"/>
</a>
</g>
</g>
<!-- 28&#45;&gt;19 -->
<g id="edge87" class="edge">
<title>28&#45;&gt;19</title>
<g id="a_edge87"><a xlink:title="include">
<path fill="none" stroke="#1414ce" d="M572.88,-215.88C546.31,-204.53 511.72,-189.77 485.84,-178.73"/>
<polygon fill="#1414ce" stroke="#1414ce" points="486.96,-175.4 476.39,-174.69 484.21,-181.84 486.96,-175.4"/>
</a>
</g>
</g>
<!-- 28&#45;&gt;14 -->
<g id="edge88" class="edge">
<title>28&#45;&gt;14</title>
<g id="a_edge88"><a xlink:title="include">
<path fill="none" stroke="#1414ce" d="M656.32,-229.85C771.58,-221.34 1083.94,-197.34 1186,-180 1288.55,-162.58 1405.08,-131.31 1476.32,-110.86"/>
<polygon fill="#1414ce" stroke="#1414ce" points="1477.43,-114.18 1486.06,-108.05 1475.49,-107.46 1477.43,-114.18"/>
</a>
</g>
</g>
<!-- 18&#45;&gt;20 -->
<g id="edge91" class="edge">
<title>18&#45;&gt;20</title>
<g id="a_edge91"><a xlink:title="include">
<path fill="none" stroke="#1414ce" d="M395,-503.97C395,-456.29 395,-321.18 395,-262.63"/>
<polygon fill="#1414ce" stroke="#1414ce" points="398.5,-262.31 395,-252.31 391.5,-262.31 398.5,-262.31"/>
</a>
</g>
</g>
<!-- 18&#45;&gt;19 -->
<g id="edge90" class="edge">
<title>18&#45;&gt;19</title>
<g id="a_edge90"><a xlink:title="include">
<path fill="none" stroke="#1414ce" d="M379.59,-503.58C358.71,-478.1 324,-428.34 324,-379 324,-379 324,-379 324,-305 324,-264.55 318.24,-247.98 343,-216 347.75,-209.86 383.75,-192.54 412.5,-179.35"/>
<polygon fill="#1414ce" stroke="#1414ce" points="414.26,-182.39 421.91,-175.06 411.36,-176.02 414.26,-182.39"/>
</a>
</g>
</g>
<!-- 18&#45;&gt;22 -->
<g id="edge92" class="edge">
<title>18&#45;&gt;22</title>
<g id="a_edge92"><a xlink:title="include">
<path fill="none" stroke="#1414ce" d="M422.38,-518.34C531.95,-507.7 939.3,-468.16 1073.11,-455.16"/>
<polygon fill="#1414ce" stroke="#1414ce" points="1073.75,-458.62 1083.36,-454.17 1073.07,-451.65 1073.75,-458.62"/>
</a>
</g>
</g>
</g>
</svg>
