<?xml version="1.0" encoding="UTF-8" standalone="no"?>
<!DOCTYPE svg PUBLIC "-//W3C//DTD SVG 1.1//EN"
 "http://www.w3.org/Graphics/SVG/1.1/DTD/svg11.dtd">
<!-- Generated by graphviz version 2.43.0 (0)
 -->
<!-- Title: %3 Pages: 1 -->
<svg width="1748pt" height="764pt"
 viewBox="0.00 0.00 1747.50 764.00" xmlns="http://www.w3.org/2000/svg" xmlns:xlink="http://www.w3.org/1999/xlink">
<g id="graph0" class="graph" transform="scale(1 1) rotate(0) translate(4 760)">
<title>%3</title>
<polygon fill="transparent" stroke="transparent" points="-4,4 -4,-760 1743.5,-760 1743.5,4 -4,4"/>
<!-- 8 -->
<g id="node1" class="node">
<title>8</title>
<g id="a_node1"><a xlink:title="stdbool.h">
<polygon fill="#ffffff" stroke="black" points="678.5,-108 595.5,-108 595.5,-72 678.5,-72 678.5,-108"/>
<text text-anchor="middle" x="637" y="-86.3" font-family="Times,serif" font-size="14.00">stdbool.h</text>
</a>
</g>
</g>
<!-- 25 -->
<g id="node2" class="node">
<title>25</title>
<g id="a_node2"><a xlink:title="refc_binary.h">
<polygon fill="#ffffff" stroke="black" points="991,-396 883,-396 883,-360 991,-360 991,-396"/>
<text text-anchor="middle" x="937" y="-374.3" font-family="Times,serif" font-size="14.00">refc_binary.h</text>
</a>
</g>
</g>
<!-- 25&#45;&gt;8 -->
<g id="edge1" class="edge">
<title>25&#45;&gt;8</title>
<g id="a_edge1"><a xlink:title="include">
<path fill="none" stroke="#1414ce" d="M950.04,-359.79C963.02,-340.41 978.77,-308.91 962,-288 915.85,-230.47 860.98,-293.5 800,-252 752.1,-219.4 769.22,-183.67 727,-144 714.2,-131.97 698.19,-121.45 683.24,-113.03"/>
<polygon fill="#1414ce" stroke="#1414ce" points="684.57,-109.76 674.11,-108.06 681.22,-115.91 684.57,-109.76"/>
</a>
</g>
</g>
<!-- 18 -->
<g id="node7" class="node">
<title>18</title>
<g id="a_node7"><a xlink:title="list.h">
<polygon fill="#ffffff" stroke="black" points="475,-180 421,-180 421,-144 475,-144 475,-180"/>
<text text-anchor="middle" x="448" y="-158.3" font-family="Times,serif" font-size="14.00">list.h</text>
</a>
</g>
</g>
<!-- 25&#45;&gt;18 -->
<g id="edge3" class="edge">
<title>25&#45;&gt;18</title>
<g id="a_edge3"><a xlink:title="include">
<path fill="none" stroke="#1414ce" d="M882.8,-372.36C796.95,-362.69 627.6,-333.96 512,-252 489.21,-235.85 471.52,-208.96 460.57,-188.96"/>
<polygon fill="#1414ce" stroke="#1414ce" points="463.63,-187.27 455.88,-180.05 457.44,-190.53 463.63,-187.27"/>
</a>
</g>
</g>
<!-- 6 -->
<g id="node10" class="node">
<title>6</title>
<g id="a_node10"><a xlink:title="stdlib.h">
<polygon fill="#ffffff" stroke="black" points="1206.5,-108 1135.5,-108 1135.5,-72 1206.5,-72 1206.5,-108"/>
<text text-anchor="middle" x="1171" y="-86.3" font-family="Times,serif" font-size="14.00">stdlib.h</text>
</a>
</g>
</g>
<!-- 25&#45;&gt;6 -->
<g id="edge2" class="edge">
<title>25&#45;&gt;6</title>
<g id="a_edge2"><a xlink:title="include">
<path fill="none" stroke="#1414ce" d="M957.32,-359.83C968.8,-349.79 983.16,-336.65 995,-324 1060.29,-254.22 1124.86,-160.86 1154.37,-116.49"/>
<polygon fill="#1414ce" stroke="#1414ce" points="1157.36,-118.31 1159.96,-108.04 1151.52,-114.45 1157.36,-118.31"/>
</a>
</g>
</g>
<!-- 26 -->
<g id="node14" class="node">
<title>26</title>
<g id="a_node14"><a xlink:title="resources.h">
<polygon fill="#ffffff" stroke="black" points="953,-324 853,-324 853,-288 953,-288 953,-324"/>
<text text-anchor="middle" x="903" y="-302.3" font-family="Times,serif" font-size="14.00">resources.h</text>
</a>
</g>
</g>
<!-- 25&#45;&gt;26 -->
<g id="edge4" class="edge">
<title>25&#45;&gt;26</title>
<g id="a_edge4"><a xlink:title="include">
<path fill="none" stroke="#1414ce" d="M928.6,-359.7C924.73,-351.73 920.05,-342.1 915.76,-333.26"/>
<polygon fill="#1414ce" stroke="#1414ce" points="918.83,-331.57 911.31,-324.1 912.53,-334.63 918.83,-331.57"/>
</a>
</g>
</g>
<!-- 5 -->
<g id="node3" class="node">
<title>5</title>
<g id="a_node3"><a xlink:title="atom.h">
<polygon fill="#ffffff" stroke="black" points="883,-180 817,-180 817,-144 883,-144 883,-180"/>
<text text-anchor="middle" x="850" y="-158.3" font-family="Times,serif" font-size="14.00">atom.h</text>
</a>
</g>
</g>
<!-- 4 -->
<g id="node8" class="node">
<title>4</title>
<g id="a_node8"><a xlink:title="stdint.h">
<polygon fill="#ffffff" stroke="black" points="1016,-36 944,-36 944,0 1016,0 1016,-36"/>
<text text-anchor="middle" x="980" y="-14.3" font-family="Times,serif" font-size="14.00">stdint.h</text>
</a>
</g>
</g>
<!-- 5&#45;&gt;4 -->
<g id="edge5" class="edge">
<title>5&#45;&gt;4</title>
<g id="a_edge5"><a xlink:title="include">
<path fill="none" stroke="#1414ce" d="M849.37,-143.72C849.55,-124.28 852.66,-92.72 869,-72 885.26,-51.39 911.5,-38.35 934.39,-30.36"/>
<polygon fill="#1414ce" stroke="#1414ce" points="935.53,-33.67 943.95,-27.24 933.36,-27.02 935.53,-33.67"/>
</a>
</g>
</g>
<!-- 5&#45;&gt;6 -->
<g id="edge6" class="edge">
<title>5&#45;&gt;6</title>
<g id="a_edge6"><a xlink:title="include">
<path fill="none" stroke="#1414ce" d="M883.26,-146.84C886.19,-145.81 889.13,-144.84 892,-144 974.89,-119.68 998.15,-124.19 1083,-108 1096.76,-105.37 1111.73,-102.49 1125.36,-99.86"/>
<polygon fill="#1414ce" stroke="#1414ce" points="1126.32,-103.24 1135.47,-97.9 1124.99,-96.37 1126.32,-103.24"/>
</a>
</g>
</g>
<!-- 14 -->
<g id="node4" class="node">
<title>14</title>
<g id="a_node4"><a xlink:title="assert.h">
<polygon fill="#ffffff" stroke="black" points="1650,-36 1576,-36 1576,0 1650,0 1650,-36"/>
<text text-anchor="middle" x="1613" y="-14.3" font-family="Times,serif" font-size="14.00">assert.h</text>
</a>
</g>
</g>
<!-- 9 -->
<g id="node5" class="node">
<title>9</title>
<g id="a_node5"><a xlink:title="utils.h">
<polygon fill="#ffffff" stroke="black" points="1067,-180 1005,-180 1005,-144 1067,-144 1067,-180"/>
<text text-anchor="middle" x="1036" y="-158.3" font-family="Times,serif" font-size="14.00">utils.h</text>
</a>
</g>
</g>
<!-- 9&#45;&gt;6 -->
<g id="edge9" class="edge">
<title>9&#45;&gt;6</title>
<g id="a_edge9"><a xlink:title="include">
<path fill="none" stroke="#1414ce" d="M1067.31,-144.76C1085.68,-135.24 1109.13,-123.08 1129.09,-112.73"/>
<polygon fill="#1414ce" stroke="#1414ce" points="1130.71,-115.83 1137.98,-108.12 1127.49,-109.62 1130.71,-115.83"/>
</a>
</g>
</g>
<!-- 10 -->
<g id="node16" class="node">
<title>10</title>
<g id="a_node16"><a xlink:title="stddef.h">
<polygon fill="#ffffff" stroke="black" points="952,-108 878,-108 878,-72 952,-72 952,-108"/>
<text text-anchor="middle" x="915" y="-86.3" font-family="Times,serif" font-size="14.00">stddef.h</text>
</a>
</g>
</g>
<!-- 9&#45;&gt;10 -->
<g id="edge7" class="edge">
<title>9&#45;&gt;10</title>
<g id="a_edge7"><a xlink:title="include">
<path fill="none" stroke="#1414ce" d="M1006.4,-143.88C990.43,-134.64 970.54,-123.13 953.39,-113.21"/>
<polygon fill="#1414ce" stroke="#1414ce" points="955.12,-110.17 944.71,-108.19 951.62,-116.23 955.12,-110.17"/>
</a>
</g>
</g>
<!-- 11 -->
<g id="node31" class="node">
<title>11</title>
<g id="a_node31"><a xlink:title="stdio.h">
<polygon fill="#ffffff" stroke="black" points="1073.5,-108 1008.5,-108 1008.5,-72 1073.5,-72 1073.5,-108"/>
<text text-anchor="middle" x="1041" y="-86.3" font-family="Times,serif" font-size="14.00">stdio.h</text>
</a>
</g>
</g>
<!-- 9&#45;&gt;11 -->
<g id="edge8" class="edge">
<title>9&#45;&gt;11</title>
<g id="a_edge8"><a xlink:title="include">
<path fill="none" stroke="#1414ce" d="M1037.24,-143.7C1037.79,-135.98 1038.45,-126.71 1039.06,-118.11"/>
<polygon fill="#1414ce" stroke="#1414ce" points="1042.56,-118.33 1039.78,-108.1 1035.57,-117.83 1042.56,-118.33"/>
</a>
</g>
</g>
<!-- 19 -->
<g id="node6" class="node">
<title>19</title>
<g id="a_node6"><a xlink:title="synclist.h">
<polygon fill="#ffffff" stroke="black" points="343.5,-252 258.5,-252 258.5,-216 343.5,-216 343.5,-252"/>
<text text-anchor="middle" x="301" y="-230.3" font-family="Times,serif" font-size="14.00">synclist.h</text>
</a>
</g>
</g>
<!-- 19&#45;&gt;18 -->
<g id="edge11" class="edge">
<title>19&#45;&gt;18</title>
<g id="a_edge11"><a xlink:title="include">
<path fill="none" stroke="#1414ce" d="M336.96,-215.88C359.57,-205.11 388.66,-191.26 411.39,-180.43"/>
<polygon fill="#1414ce" stroke="#1414ce" points="413.18,-183.46 420.71,-176 410.17,-177.14 413.18,-183.46"/>
</a>
</g>
</g>
<!-- 20 -->
<g id="node27" class="node">
<title>20</title>
<g id="a_node27"><a xlink:title="smp.h">
<polygon fill="#ffffff" stroke="black" points="331,-180 271,-180 271,-144 331,-144 331,-180"/>
<text text-anchor="middle" x="301" y="-158.3" font-family="Times,serif" font-size="14.00">smp.h</text>
</a>
</g>
</g>
<!-- 19&#45;&gt;20 -->
<g id="edge12" class="edge">
<title>19&#45;&gt;20</title>
<g id="a_edge12"><a xlink:title="include">
<path fill="none" stroke="#1414ce" d="M301,-215.7C301,-207.98 301,-198.71 301,-190.11"/>
<polygon fill="#1414ce" stroke="#1414ce" points="304.5,-190.1 301,-180.1 297.5,-190.1 304.5,-190.1"/>
</a>
</g>
</g>
<!-- 19&#45;&gt;11 -->
<g id="edge10" class="edge">
<title>19&#45;&gt;11</title>
<g id="a_edge10"><a xlink:title="include">
<path fill="none" stroke="#1414ce" d="M343.53,-225.28C448.51,-206.16 728.33,-154.75 961,-108 973.18,-105.55 986.38,-102.79 998.48,-100.22"/>
<polygon fill="#1414ce" stroke="#1414ce" points="999.29,-103.62 1008.34,-98.11 997.83,-96.78 999.29,-103.62"/>
</a>
</g>
</g>
<!-- 18&#45;&gt;8 -->
<g id="edge13" class="edge">
<title>18&#45;&gt;8</title>
<g id="a_edge13"><a xlink:title="include">
<path fill="none" stroke="#1414ce" d="M475.08,-150.97C503.82,-140.33 549.91,-123.26 585.58,-110.05"/>
<polygon fill="#1414ce" stroke="#1414ce" points="587.18,-113.18 595.34,-106.43 584.75,-106.62 587.18,-113.18"/>
</a>
</g>
</g>
<!-- 30 -->
<g id="node9" class="node">
<title>30</title>
<g id="a_node9"><a xlink:title="jit.h">
<polygon fill="#ffffff" stroke="black" points="1238,-612 1184,-612 1184,-576 1238,-576 1238,-612"/>
<text text-anchor="middle" x="1211" y="-590.3" font-family="Times,serif" font-size="14.00">jit.h</text>
</a>
</g>
</g>
<!-- 30&#45;&gt;8 -->
<g id="edge18" class="edge">
<title>30&#45;&gt;8</title>
<g id="a_edge18"><a xlink:title="include">
<path fill="none" stroke="#1414ce" d="M1183.64,-590.57C1055.87,-578.48 524,-519.7 524,-379 524,-379 524,-379 524,-233 524,-182.17 568.88,-139.01 602.07,-114.04"/>
<polygon fill="#1414ce" stroke="#1414ce" points="604.21,-116.82 610.22,-108.09 600.08,-111.16 604.21,-116.82"/>
</a>
</g>
</g>
<!-- 21 -->
<g id="node15" class="node">
<title>21</title>
<g id="a_node15"><a xlink:title="term.h">
<polygon fill="#ffffff" stroke="black" points="1165.5,-468 1100.5,-468 1100.5,-432 1165.5,-432 1165.5,-468"/>
<text text-anchor="middle" x="1133" y="-446.3" font-family="Times,serif" font-size="14.00">term.h</text>
</a>
</g>
</g>
<!-- 30&#45;&gt;21 -->
<g id="edge16" class="edge">
<title>30&#45;&gt;21</title>
<g id="a_edge16"><a xlink:title="include">
<path fill="none" stroke="#1414ce" d="M1238.22,-590.5C1268.87,-586.06 1317.35,-573.79 1340,-540 1348.91,-526.71 1349.81,-516.64 1340,-504 1320.07,-478.33 1230.46,-462.97 1175.88,-455.83"/>
<polygon fill="#1414ce" stroke="#1414ce" points="1176.16,-452.34 1165.8,-454.56 1175.28,-459.28 1176.16,-452.34"/>
</a>
</g>
</g>
<!-- 33 -->
<g id="node18" class="node">
<title>33</title>
<g id="a_node18"><a xlink:title="exportedfunction.h">
<polygon fill="#ffffff" stroke="black" points="1331,-540 1179,-540 1179,-504 1331,-504 1331,-540"/>
<text text-anchor="middle" x="1255" y="-518.3" font-family="Times,serif" font-size="14.00">exportedfunction.h</text>
</a>
</g>
</g>
<!-- 30&#45;&gt;33 -->
<g id="edge15" class="edge">
<title>30&#45;&gt;33</title>
<g id="a_edge15"><a xlink:title="include">
<path fill="none" stroke="#1414ce" d="M1221.88,-575.7C1226.99,-567.56 1233.2,-557.69 1238.84,-548.7"/>
<polygon fill="#1414ce" stroke="#1414ce" points="1241.89,-550.43 1244.25,-540.1 1235.96,-546.71 1241.89,-550.43"/>
</a>
</g>
</g>
<!-- 13 -->
<g id="node23" class="node">
<title>13</title>
<g id="a_node23"><a xlink:title="term_typedef.h">
<polygon fill="#ffffff" stroke="black" points="1675.5,-108 1550.5,-108 1550.5,-72 1675.5,-72 1675.5,-108"/>
<text text-anchor="middle" x="1613" y="-86.3" font-family="Times,serif" font-size="14.00">term_typedef.h</text>
</a>
</g>
</g>
<!-- 30&#45;&gt;13 -->
<g id="edge17" class="edge">
<title>30&#45;&gt;13</title>
<g id="a_edge17"><a xlink:title="include">
<path fill="none" stroke="#1414ce" d="M1238.15,-589.27C1327.39,-576.25 1606,-529.34 1606,-451 1606,-451 1606,-451 1606,-233 1606,-192.95 1608.81,-146.62 1610.87,-118.06"/>
<polygon fill="#1414ce" stroke="#1414ce" points="1614.37,-118.27 1611.62,-108.04 1607.39,-117.75 1614.37,-118.27"/>
</a>
</g>
</g>
<!-- 31 -->
<g id="node25" class="node">
<title>31</title>
<g id="a_node25"><a xlink:title="bitstring.h">
<polygon fill="#ffffff" stroke="black" points="1085,-540 993,-540 993,-504 1085,-504 1085,-540"/>
<text text-anchor="middle" x="1039" y="-518.3" font-family="Times,serif" font-size="14.00">bitstring.h</text>
</a>
</g>
</g>
<!-- 30&#45;&gt;31 -->
<g id="edge14" class="edge">
<title>30&#45;&gt;31</title>
<g id="a_edge14"><a xlink:title="include">
<path fill="none" stroke="#1414ce" d="M1183.75,-581.91C1158.68,-571.71 1120.86,-556.31 1090.16,-543.82"/>
<polygon fill="#1414ce" stroke="#1414ce" points="1091.47,-540.57 1080.89,-540.05 1088.83,-547.06 1091.47,-540.57"/>
</a>
</g>
</g>
<!-- 2 -->
<g id="node11" class="node">
<title>2</title>
<g id="a_node11"><a xlink:title="context.h">
<polygon fill="#ffffff" stroke="black" points="559.5,-684 476.5,-684 476.5,-648 559.5,-648 559.5,-684"/>
<text text-anchor="middle" x="518" y="-662.3" font-family="Times,serif" font-size="14.00">context.h</text>
</a>
</g>
</g>
<!-- 2&#45;&gt;18 -->
<g id="edge21" class="edge">
<title>2&#45;&gt;18</title>
<g id="a_edge21"><a xlink:title="include">
<path fill="none" stroke="#1414ce" d="M512.62,-647.74C496.23,-594.52 448,-433.31 448,-379 448,-379 448,-379 448,-305 448,-265 448,-218.65 448,-190.08"/>
<polygon fill="#1414ce" stroke="#1414ce" points="451.5,-190.05 448,-180.05 444.5,-190.05 451.5,-190.05"/>
</a>
</g>
</g>
<!-- 2&#45;&gt;30 -->
<g id="edge20" class="edge">
<title>2&#45;&gt;30</title>
<g id="a_edge20"><a xlink:title="include">
<path fill="none" stroke="#1414ce" d="M559.54,-663.01C658.31,-657.91 914.82,-642.6 1127,-612 1142.41,-609.78 1159.25,-606.53 1173.78,-603.47"/>
<polygon fill="#1414ce" stroke="#1414ce" points="1174.86,-606.82 1183.9,-601.29 1173.38,-599.98 1174.86,-606.82"/>
</a>
</g>
</g>
<!-- 2&#45;&gt;21 -->
<g id="edge24" class="edge">
<title>2&#45;&gt;21</title>
<g id="a_edge24"><a xlink:title="include">
<path fill="none" stroke="#1414ce" d="M559.9,-660.84C678.11,-648.37 1011.04,-607.88 1094,-540 1112.9,-524.53 1122.9,-498.1 1128.01,-478.05"/>
<polygon fill="#1414ce" stroke="#1414ce" points="1131.44,-478.76 1130.27,-468.24 1124.62,-477.2 1131.44,-478.76"/>
</a>
</g>
</g>
<!-- 3 -->
<g id="node24" class="node">
<title>3</title>
<g id="a_node24"><a xlink:title="globalcontext.h">
<polygon fill="#ffffff" stroke="black" points="478.5,-612 351.5,-612 351.5,-576 478.5,-576 478.5,-612"/>
<text text-anchor="middle" x="415" y="-590.3" font-family="Times,serif" font-size="14.00">globalcontext.h</text>
</a>
</g>
</g>
<!-- 2&#45;&gt;3 -->
<g id="edge19" class="edge">
<title>2&#45;&gt;3</title>
<g id="a_edge19"><a xlink:title="include">
<path fill="none" stroke="#1414ce" d="M492.8,-647.88C479.59,-638.89 463.21,-627.76 448.89,-618.03"/>
<polygon fill="#1414ce" stroke="#1414ce" points="450.53,-614.92 440.29,-612.19 446.6,-620.71 450.53,-614.92"/>
</a>
</g>
</g>
<!-- 2&#45;&gt;20 -->
<g id="edge23" class="edge">
<title>2&#45;&gt;20</title>
<g id="a_edge23"><a xlink:title="include">
<path fill="none" stroke="#1414ce" d="M476.15,-662.98C424.86,-659.01 336.57,-647.17 270,-612 188.01,-568.67 161.01,-550.67 119,-468 68.23,-368.09 36.18,-300.33 110,-216 120.06,-204.51 208.05,-183.46 261.02,-171.64"/>
<polygon fill="#1414ce" stroke="#1414ce" points="261.79,-175.06 270.8,-169.48 260.28,-168.22 261.79,-175.06"/>
</a>
</g>
</g>
<!-- 28 -->
<g id="node29" class="node">
<title>28</title>
<g id="a_node29"><a xlink:title="timer_list.h">
<polygon fill="#ffffff" stroke="black" points="240,-252 142,-252 142,-216 240,-216 240,-252"/>
<text text-anchor="middle" x="191" y="-230.3" font-family="Times,serif" font-size="14.00">timer_list.h</text>
</a>
</g>
</g>
<!-- 2&#45;&gt;28 -->
<g id="edge25" class="edge">
<title>2&#45;&gt;28</title>
<g id="a_edge25"><a xlink:title="include">
<path fill="none" stroke="#1414ce" d="M476.42,-659.58C413.54,-648.95 295.68,-619.07 240,-540 179.08,-453.49 182.96,-319.18 187.94,-262.12"/>
<polygon fill="#1414ce" stroke="#1414ce" points="191.43,-262.37 188.9,-252.08 184.46,-261.71 191.43,-262.37"/>
</a>
</g>
</g>
<!-- 27 -->
<g id="node30" class="node">
<title>27</title>
<g id="a_node30"><a xlink:title="mailbox.h">
<polygon fill="#ffffff" stroke="black" points="676,-252 590,-252 590,-216 676,-216 676,-252"/>
<text text-anchor="middle" x="633" y="-230.3" font-family="Times,serif" font-size="14.00">mailbox.h</text>
</a>
</g>
</g>
<!-- 2&#45;&gt;27 -->
<g id="edge22" class="edge">
<title>2&#45;&gt;27</title>
<g id="a_edge22"><a xlink:title="include">
<path fill="none" stroke="#1414ce" d="M524.99,-647.99C529.08,-637.68 534.17,-624.2 538,-612 578.57,-482.62 613.96,-324.16 627.33,-261.91"/>
<polygon fill="#1414ce" stroke="#1414ce" points="630.76,-262.61 629.42,-252.1 623.91,-261.15 630.76,-262.61"/>
</a>
</g>
</g>
<!-- 24 -->
<g id="node12" class="node">
<title>24</title>
<g id="a_node12"><a xlink:title="memory.h">
<polygon fill="#ffffff" stroke="black" points="1366,-252 1280,-252 1280,-216 1366,-216 1366,-252"/>
<text text-anchor="middle" x="1323" y="-230.3" font-family="Times,serif" font-size="14.00">memory.h</text>
</a>
</g>
</g>
<!-- 24&#45;&gt;9 -->
<g id="edge30" class="edge">
<title>24&#45;&gt;9</title>
<g id="a_edge30"><a xlink:title="include">
<path fill="none" stroke="#1414ce" d="M1279.72,-222.44C1224.85,-209.06 1130.92,-186.15 1077.11,-173.03"/>
<polygon fill="#1414ce" stroke="#1414ce" points="1077.77,-169.58 1067.22,-170.61 1076.11,-176.38 1077.77,-169.58"/>
</a>
</g>
</g>
<!-- 24&#45;&gt;4 -->
<g id="edge26" class="edge">
<title>24&#45;&gt;4</title>
<g id="a_edge26"><a xlink:title="include">
<path fill="none" stroke="#1414ce" d="M1318.82,-215.92C1313.73,-197.22 1303.92,-166.85 1289,-144 1264.08,-105.85 1256,-93.84 1216,-72 1155.61,-39.03 1075.85,-26.55 1026.25,-21.84"/>
<polygon fill="#1414ce" stroke="#1414ce" points="1026.41,-18.34 1016.14,-20.95 1025.8,-25.32 1026.41,-18.34"/>
</a>
</g>
</g>
<!-- 24&#45;&gt;6 -->
<g id="edge27" class="edge">
<title>24&#45;&gt;6</title>
<g id="a_edge27"><a xlink:title="include">
<path fill="none" stroke="#1414ce" d="M1314.09,-215.96C1303.42,-196.74 1284.07,-165.37 1261,-144 1247.66,-131.64 1230.95,-120.83 1215.57,-112.25"/>
<polygon fill="#1414ce" stroke="#1414ce" points="1217.16,-109.13 1206.7,-107.46 1213.84,-115.29 1217.16,-109.13"/>
</a>
</g>
</g>
<!-- 12 -->
<g id="node17" class="node">
<title>12</title>
<g id="a_node17"><a xlink:title="erl_nif.h">
<polygon fill="#ffffff" stroke="black" points="1463,-180 1389,-180 1389,-144 1463,-144 1463,-180"/>
<text text-anchor="middle" x="1426" y="-158.3" font-family="Times,serif" font-size="14.00">erl_nif.h</text>
</a>
</g>
</g>
<!-- 24&#45;&gt;12 -->
<g id="edge28" class="edge">
<title>24&#45;&gt;12</title>
<g id="a_edge28"><a xlink:title="include">
<path fill="none" stroke="#1414ce" d="M1348.2,-215.88C1361.41,-206.89 1377.79,-195.76 1392.11,-186.03"/>
<polygon fill="#1414ce" stroke="#1414ce" points="1394.4,-188.71 1400.71,-180.19 1390.47,-182.92 1394.4,-188.71"/>
</a>
</g>
</g>
<!-- 24&#45;&gt;13 -->
<g id="edge29" class="edge">
<title>24&#45;&gt;13</title>
<g id="a_edge29"><a xlink:title="include">
<path fill="none" stroke="#1414ce" d="M1329.33,-215.69C1337.72,-195.29 1354.48,-161.93 1380,-144 1426.9,-111.05 1491.05,-98.23 1540.17,-93.41"/>
<polygon fill="#1414ce" stroke="#1414ce" points="1540.76,-96.87 1550.41,-92.49 1540.14,-89.9 1540.76,-96.87"/>
</a>
</g>
</g>
<!-- 29 -->
<g id="node13" class="node">
<title>29</title>
<g id="a_node13"><a xlink:title="valueshashtable.h">
<polygon fill="#ffffff" stroke="black" points="215,-180 69,-180 69,-144 215,-144 215,-180"/>
<text text-anchor="middle" x="142" y="-158.3" font-family="Times,serif" font-size="14.00">valueshashtable.h</text>
</a>
</g>
</g>
<!-- 29&#45;&gt;4 -->
<g id="edge32" class="edge">
<title>29&#45;&gt;4</title>
<g id="a_edge32"><a xlink:title="include">
<path fill="none" stroke="#1414ce" d="M152.81,-143.95C167.27,-122.83 195.08,-87.71 229,-72 292.84,-42.44 780.5,-25.11 933.94,-20.35"/>
<polygon fill="#1414ce" stroke="#1414ce" points="934.09,-23.85 943.97,-20.04 933.87,-16.85 934.09,-23.85"/>
</a>
</g>
</g>
<!-- 29&#45;&gt;10 -->
<g id="edge31" class="edge">
<title>29&#45;&gt;10</title>
<g id="a_edge31"><a xlink:title="include">
<path fill="none" stroke="#1414ce" d="M215.21,-149.92C230.64,-147.78 246.84,-145.69 262,-144 379.77,-130.89 738.4,-104.01 867.81,-94.46"/>
<polygon fill="#1414ce" stroke="#1414ce" points="868.09,-97.95 877.8,-93.72 867.57,-90.97 868.09,-97.95"/>
</a>
</g>
</g>
<!-- 26&#45;&gt;19 -->
<g id="edge38" class="edge">
<title>26&#45;&gt;19</title>
<g id="a_edge38"><a xlink:title="include">
<path fill="none" stroke="#1414ce" d="M852.97,-299.18C740.54,-286.11 468.78,-254.51 353.8,-241.14"/>
<polygon fill="#1414ce" stroke="#1414ce" points="354.16,-237.66 343.82,-239.98 353.35,-244.61 354.16,-237.66"/>
</a>
</g>
</g>
<!-- 26&#45;&gt;18 -->
<g id="edge35" class="edge">
<title>26&#45;&gt;18</title>
<g id="a_edge35"><a xlink:title="include">
<path fill="none" stroke="#1414ce" d="M852.94,-296.63C836.41,-293.87 817.92,-290.79 801,-288 703.25,-271.86 673.16,-288.38 581,-252 541.12,-236.26 501,-207.16 475.41,-186.53"/>
<polygon fill="#1414ce" stroke="#1414ce" points="477.59,-183.78 467.64,-180.15 473.15,-189.2 477.59,-183.78"/>
</a>
</g>
</g>
<!-- 26&#45;&gt;6 -->
<g id="edge33" class="edge">
<title>26&#45;&gt;6</title>
<g id="a_edge33"><a xlink:title="include">
<path fill="none" stroke="#1414ce" d="M928.67,-287.96C963.13,-264.76 1025.81,-221.36 1076,-180 1101.03,-159.38 1127.85,-133.91 1146.59,-115.51"/>
<polygon fill="#1414ce" stroke="#1414ce" points="1149.44,-117.61 1154.09,-108.09 1144.52,-112.63 1149.44,-117.61"/>
</a>
</g>
</g>
<!-- 26&#45;&gt;24 -->
<g id="edge37" class="edge">
<title>26&#45;&gt;24</title>
<g id="a_edge37"><a xlink:title="include">
<path fill="none" stroke="#1414ce" d="M953.24,-296.63C1033.11,-283.31 1188.33,-257.45 1269.93,-243.84"/>
<polygon fill="#1414ce" stroke="#1414ce" points="1270.7,-247.27 1279.99,-242.17 1269.55,-240.36 1270.7,-247.27"/>
</a>
</g>
</g>
<!-- 26&#45;&gt;12 -->
<g id="edge34" class="edge">
<title>26&#45;&gt;12</title>
<g id="a_edge34"><a xlink:title="include">
<path fill="none" stroke="#1414ce" d="M953.39,-304.98C1060.49,-304.05 1306.59,-296.93 1375,-252 1397,-237.55 1410.6,-210.12 1418.16,-189.51"/>
<polygon fill="#1414ce" stroke="#1414ce" points="1421.48,-190.62 1421.4,-180.03 1414.86,-188.36 1421.48,-190.62"/>
</a>
</g>
</g>
<!-- 26&#45;&gt;27 -->
<g id="edge36" class="edge">
<title>26&#45;&gt;27</title>
<g id="a_edge36"><a xlink:title="include">
<path fill="none" stroke="#1414ce" d="M852.85,-292C805.44,-279.71 734.55,-261.33 686.17,-248.78"/>
<polygon fill="#1414ce" stroke="#1414ce" points="686.76,-245.32 676.2,-246.2 685.01,-252.1 686.76,-245.32"/>
</a>
</g>
</g>
<!-- 21&#45;&gt;8 -->
<g id="edge40" class="edge">
<title>21&#45;&gt;8</title>
<g id="a_edge40"><a xlink:title="include">
<path fill="none" stroke="#1414ce" d="M1100.49,-449.4C1048.66,-448.57 945.84,-440.84 874,-396 756.13,-322.44 777.26,-251.31 689,-144 681.02,-134.3 671.58,-124.3 662.95,-115.64"/>
<polygon fill="#1414ce" stroke="#1414ce" points="665.2,-112.95 655.63,-108.42 660.29,-117.93 665.2,-112.95"/>
</a>
</g>
</g>
<!-- 21&#45;&gt;25 -->
<g id="edge47" class="edge">
<title>21&#45;&gt;25</title>
<g id="a_edge47"><a xlink:title="include">
<path fill="none" stroke="#1414ce" d="M1100.19,-437.28C1071.31,-426.97 1028.59,-411.71 994.1,-399.39"/>
<polygon fill="#1414ce" stroke="#1414ce" points="995.21,-396.07 984.61,-396 992.85,-402.66 995.21,-396.07"/>
</a>
</g>
</g>
<!-- 21&#45;&gt;5 -->
<g id="edge45" class="edge">
<title>21&#45;&gt;5</title>
<g id="a_edge45"><a xlink:title="include">
<path fill="none" stroke="#1414ce" d="M1121.75,-431.71C1090.21,-383.61 1000.59,-249.54 960,-216 948.87,-206.8 918.42,-192.38 892.37,-180.9"/>
<polygon fill="#1414ce" stroke="#1414ce" points="893.59,-177.61 883.02,-176.82 890.79,-184.03 893.59,-177.61"/>
</a>
</g>
</g>
<!-- 21&#45;&gt;9 -->
<g id="edge48" class="edge">
<title>21&#45;&gt;9</title>
<g id="a_edge48"><a xlink:title="include">
<path fill="none" stroke="#1414ce" d="M1127.22,-431.97C1110.99,-384.09 1064.85,-248.06 1045.12,-189.9"/>
<polygon fill="#1414ce" stroke="#1414ce" points="1048.4,-188.65 1041.87,-180.31 1041.77,-190.9 1048.4,-188.65"/>
</a>
</g>
</g>
<!-- 21&#45;&gt;4 -->
<g id="edge41" class="edge">
<title>21&#45;&gt;4</title>
<g id="a_edge41"><a xlink:title="include">
<path fill="none" stroke="#1414ce" d="M1165.69,-447.19C1232.2,-442.84 1380.06,-429.56 1416,-396 1499.86,-317.7 1539.28,-236.94 1472,-144 1419.32,-71.22 1138.48,-35.08 1026.32,-23.38"/>
<polygon fill="#1414ce" stroke="#1414ce" points="1026.62,-19.9 1016.32,-22.36 1025.91,-26.86 1026.62,-19.9"/>
</a>
</g>
</g>
<!-- 21&#45;&gt;6 -->
<g id="edge43" class="edge">
<title>21&#45;&gt;6</title>
<g id="a_edge43"><a xlink:title="include">
<path fill="none" stroke="#1414ce" d="M1142.69,-431.89C1155.36,-408.44 1176.9,-364.57 1185,-324 1199.66,-250.57 1185.87,-161.77 1177.05,-118.03"/>
<polygon fill="#1414ce" stroke="#1414ce" points="1180.46,-117.23 1175,-108.16 1173.61,-118.66 1180.46,-117.23"/>
</a>
</g>
</g>
<!-- 21&#45;&gt;24 -->
<g id="edge46" class="edge">
<title>21&#45;&gt;24</title>
<g id="a_edge46"><a xlink:title="include">
<path fill="none" stroke="#1414ce" d="M1165.9,-447.41C1230.06,-443.55 1368.12,-431.26 1397,-396 1431.62,-353.74 1382.61,-292.65 1349.33,-259.18"/>
<polygon fill="#1414ce" stroke="#1414ce" points="1351.68,-256.58 1342.09,-252.08 1346.78,-261.58 1351.68,-256.58"/>
</a>
</g>
</g>
<!-- 22 -->
<g id="node21" class="node">
<title>22</title>
<g id="a_node21"><a xlink:title="sys/types.h">
<polygon fill="#ffffff" stroke="black" points="1296.5,-396 1199.5,-396 1199.5,-360 1296.5,-360 1296.5,-396"/>
<text text-anchor="middle" x="1248" y="-374.3" font-family="Times,serif" font-size="14.00">sys/types.h</text>
</a>
</g>
</g>
<!-- 21&#45;&gt;22 -->
<g id="edge39" class="edge">
<title>21&#45;&gt;22</title>
<g id="a_edge39"><a xlink:title="include">
<path fill="none" stroke="#1414ce" d="M1161.13,-431.88C1176.17,-422.72 1194.87,-411.34 1211.06,-401.48"/>
<polygon fill="#1414ce" stroke="#1414ce" points="1213.04,-404.38 1219.76,-396.19 1209.4,-398.4 1213.04,-404.38"/>
</a>
</g>
</g>
<!-- 23 -->
<g id="node22" class="node">
<title>23</title>
<g id="a_node22"><a xlink:title="string.h">
<polygon fill="#ffffff" stroke="black" points="1387.5,-396 1314.5,-396 1314.5,-360 1387.5,-360 1387.5,-396"/>
<text text-anchor="middle" x="1351" y="-374.3" font-family="Times,serif" font-size="14.00">string.h</text>
</a>
</g>
</g>
<!-- 21&#45;&gt;23 -->
<g id="edge44" class="edge">
<title>21&#45;&gt;23</title>
<g id="a_edge44"><a xlink:title="include">
<path fill="none" stroke="#1414ce" d="M1165.72,-439.65C1198.68,-430.09 1251.17,-414.45 1304.6,-396.39"/>
<polygon fill="#1414ce" stroke="#1414ce" points="1305.89,-399.65 1314.23,-393.11 1303.64,-393.02 1305.89,-399.65"/>
</a>
</g>
</g>
<!-- 21&#45;&gt;13 -->
<g id="edge49" class="edge">
<title>21&#45;&gt;13</title>
<g id="a_edge49"><a xlink:title="include">
<path fill="none" stroke="#1414ce" d="M1165.62,-447.65C1240.22,-443.96 1420.49,-431.52 1468,-396 1492.34,-377.81 1572.34,-189.07 1601.9,-117.93"/>
<polygon fill="#1414ce" stroke="#1414ce" points="1605.29,-118.9 1605.88,-108.32 1598.82,-116.22 1605.29,-118.9"/>
</a>
</g>
</g>
<!-- 21&#45;&gt;11 -->
<g id="edge42" class="edge">
<title>21&#45;&gt;11</title>
<g id="a_edge42"><a xlink:title="include">
<path fill="none" stroke="#1414ce" d="M1132.23,-431.78C1129.61,-384.21 1118.61,-247.63 1076,-144 1072.08,-134.46 1066.35,-124.82 1060.66,-116.42"/>
<polygon fill="#1414ce" stroke="#1414ce" points="1063.46,-114.32 1054.82,-108.18 1057.75,-118.36 1063.46,-114.32"/>
</a>
</g>
</g>
<!-- 12&#45;&gt;13 -->
<g id="edge50" class="edge">
<title>12&#45;&gt;13</title>
<g id="a_edge50"><a xlink:title="include">
<path fill="none" stroke="#1414ce" d="M1463.39,-147C1490.42,-136.89 1527.37,-123.05 1557.78,-111.67"/>
<polygon fill="#1414ce" stroke="#1414ce" points="1559.27,-114.85 1567.41,-108.07 1556.82,-108.29 1559.27,-114.85"/>
</a>
</g>
</g>
<!-- 33&#45;&gt;21 -->
<g id="edge51" class="edge">
<title>33&#45;&gt;21</title>
<g id="a_edge51"><a xlink:title="include">
<path fill="none" stroke="#1414ce" d="M1225.16,-503.88C1209.06,-494.64 1189,-483.13 1171.71,-473.21"/>
<polygon fill="#1414ce" stroke="#1414ce" points="1173.37,-470.13 1162.96,-468.19 1169.89,-476.2 1173.37,-470.13"/>
</a>
</g>
</g>
<!-- 15 -->
<g id="node19" class="node">
<title>15</title>
<g id="a_node19"><a xlink:title="limits.h">
<polygon fill="#ffffff" stroke="black" points="1739.5,-36 1668.5,-36 1668.5,0 1739.5,0 1739.5,-36"/>
<text text-anchor="middle" x="1704" y="-14.3" font-family="Times,serif" font-size="14.00">limits.h</text>
</a>
</g>
</g>
<!-- 7 -->
<g id="node20" class="node">
<title>7</title>
<g id="a_node20"><a xlink:title="atom_table.h">
<polygon fill="#ffffff" stroke="black" points="917.5,-252 808.5,-252 808.5,-216 917.5,-216 917.5,-252"/>
<text text-anchor="middle" x="863" y="-230.3" font-family="Times,serif" font-size="14.00">atom_table.h</text>
</a>
</g>
</g>
<!-- 7&#45;&gt;8 -->
<g id="edge52" class="edge">
<title>7&#45;&gt;8</title>
<g id="a_edge52"><a xlink:title="include">
<path fill="none" stroke="#1414ce" d="M845.67,-215.92C822.45,-193.27 782.18,-154.89 765,-144 741.15,-128.88 712.25,-116.48 687.95,-107.49"/>
<polygon fill="#1414ce" stroke="#1414ce" points="689.13,-104.19 678.54,-104.09 686.76,-110.78 689.13,-104.19"/>
</a>
</g>
</g>
<!-- 7&#45;&gt;5 -->
<g id="edge53" class="edge">
<title>7&#45;&gt;5</title>
<g id="a_edge53"><a xlink:title="include">
<path fill="none" stroke="#1414ce" d="M859.79,-215.7C858.35,-207.98 856.63,-198.71 855.04,-190.11"/>
<polygon fill="#1414ce" stroke="#1414ce" points="858.44,-189.3 853.18,-180.1 851.56,-190.58 858.44,-189.3"/>
</a>
</g>
</g>
<!-- 7&#45;&gt;9 -->
<g id="edge54" class="edge">
<title>7&#45;&gt;9</title>
<g id="a_edge54"><a xlink:title="include">
<path fill="none" stroke="#1414ce" d="M906.53,-215.94C930.42,-206.52 960.76,-194.43 995.24,-180.28"/>
<polygon fill="#1414ce" stroke="#1414ce" points="996.67,-183.47 1004.59,-176.43 994.01,-177 996.67,-183.47"/>
</a>
</g>
</g>
<!-- 13&#45;&gt;14 -->
<g id="edge55" class="edge">
<title>13&#45;&gt;14</title>
<g id="a_edge55"><a xlink:title="include">
<path fill="none" stroke="#1414ce" d="M1613,-71.7C1613,-63.98 1613,-54.71 1613,-46.11"/>
<polygon fill="#1414ce" stroke="#1414ce" points="1616.5,-46.1 1613,-36.1 1609.5,-46.1 1616.5,-46.1"/>
</a>
</g>
</g>
<!-- 13&#45;&gt;4 -->
<g id="edge58" class="edge">
<title>13&#45;&gt;4</title>
<g id="a_edge58"><a xlink:title="include">
<path fill="none" stroke="#1414ce" d="M1550.09,-74.45C1545.33,-73.56 1540.6,-72.72 1536,-72 1348.35,-42.46 1122.3,-27.09 1026.51,-21.51"/>
<polygon fill="#1414ce" stroke="#1414ce" points="1026.48,-18 1016.29,-20.92 1026.08,-24.99 1026.48,-18"/>
</a>
</g>
</g>
<!-- 13&#45;&gt;15 -->
<g id="edge56" class="edge">
<title>13&#45;&gt;15</title>
<g id="a_edge56"><a xlink:title="include">
<path fill="none" stroke="#1414ce" d="M1635.49,-71.7C1646.96,-62.88 1661.06,-52.03 1673.48,-42.47"/>
<polygon fill="#1414ce" stroke="#1414ce" points="1675.97,-44.98 1681.76,-36.1 1671.7,-39.43 1675.97,-44.98"/>
</a>
</g>
</g>
<!-- 16 -->
<g id="node33" class="node">
<title>16</title>
<g id="a_node33"><a xlink:title="inttypes.h">
<polygon fill="#ffffff" stroke="black" points="1557.5,-36 1468.5,-36 1468.5,0 1557.5,0 1557.5,-36"/>
<text text-anchor="middle" x="1513" y="-14.3" font-family="Times,serif" font-size="14.00">inttypes.h</text>
</a>
</g>
</g>
<!-- 13&#45;&gt;16 -->
<g id="edge57" class="edge">
<title>13&#45;&gt;16</title>
<g id="a_edge57"><a xlink:title="include">
<path fill="none" stroke="#1414ce" d="M1588.54,-71.88C1575.7,-62.89 1559.8,-51.76 1545.91,-42.03"/>
<polygon fill="#1414ce" stroke="#1414ce" points="1547.76,-39.06 1537.56,-36.19 1543.74,-44.79 1547.76,-39.06"/>
</a>
</g>
</g>
<!-- 3&#45;&gt;5 -->
<g id="edge60" class="edge">
<title>3&#45;&gt;5</title>
<g id="a_edge60"><a xlink:title="include">
<path fill="none" stroke="#1414ce" d="M445.54,-575.83C462.94,-565.8 484.99,-552.66 504,-540 660.56,-435.75 681.1,-382.04 844,-288 878.82,-267.9 904.94,-285.62 927,-252 935.78,-238.62 934.44,-230.16 927,-216 919.38,-201.51 905.81,-190.2 892.15,-181.83"/>
<polygon fill="#1414ce" stroke="#1414ce" points="893.65,-178.66 883.23,-176.74 890.19,-184.74 893.65,-178.66"/>
</a>
</g>
</g>
<!-- 3&#45;&gt;19 -->
<g id="edge67" class="edge">
<title>3&#45;&gt;19</title>
<g id="a_edge67"><a xlink:title="include">
<path fill="none" stroke="#1414ce" d="M366.99,-575.92C349.6,-567.55 331.25,-555.8 319,-540 293.96,-507.72 296,-491.86 296,-451 296,-451 296,-451 296,-377 296,-336.97 298.01,-290.63 299.48,-262.07"/>
<polygon fill="#1414ce" stroke="#1414ce" points="302.98,-262.21 300.01,-252.04 295.99,-261.84 302.98,-262.21"/>
</a>
</g>
</g>
<!-- 3&#45;&gt;18 -->
<g id="edge64" class="edge">
<title>3&#45;&gt;18</title>
<g id="a_edge64"><a xlink:title="include">
<path fill="none" stroke="#1414ce" d="M414.01,-575.96C412.56,-549.31 410,-496.14 410,-451 410,-451 410,-451 410,-305 410,-263.63 425.23,-217.72 436.41,-189.61"/>
<polygon fill="#1414ce" stroke="#1414ce" points="439.76,-190.67 440.31,-180.09 433.28,-188.02 439.76,-190.67"/>
</a>
</g>
</g>
<!-- 3&#45;&gt;4 -->
<g id="edge59" class="edge">
<title>3&#45;&gt;4</title>
<g id="a_edge59"><a xlink:title="include">
<path fill="none" stroke="#1414ce" d="M351.39,-587.06C280.06,-579.35 169.93,-563.97 136,-540 38.07,-470.81 0,-426.91 0,-307 0,-307 0,-307 0,-161 0,-71.76 93.82,-95.17 180,-72 323.74,-33.35 785.65,-22.29 933.8,-19.69"/>
<polygon fill="#1414ce" stroke="#1414ce" points="933.98,-23.19 943.92,-19.52 933.86,-16.19 933.98,-23.19"/>
</a>
</g>
</g>
<!-- 3&#45;&gt;29 -->
<g id="edge70" class="edge">
<title>3&#45;&gt;29</title>
<g id="a_edge70"><a xlink:title="include">
<path fill="none" stroke="#1414ce" d="M351.39,-588.79C302.72,-583.2 235.45,-570.21 184,-540 146.83,-518.17 137.08,-507.14 119,-468 72,-366.26 72.56,-321.63 110,-216 113.32,-206.63 118.42,-197.1 123.58,-188.77"/>
<polygon fill="#1414ce" stroke="#1414ce" points="126.61,-190.54 129.12,-180.25 120.74,-186.72 126.61,-190.54"/>
</a>
</g>
</g>
<!-- 3&#45;&gt;21 -->
<g id="edge68" class="edge">
<title>3&#45;&gt;21</title>
<g id="a_edge68"><a xlink:title="include">
<path fill="none" stroke="#1414ce" d="M478.72,-580.4C622.45,-551.97 968.8,-483.47 1090.14,-459.48"/>
<polygon fill="#1414ce" stroke="#1414ce" points="1091.03,-462.87 1100.16,-457.49 1089.67,-456 1091.03,-462.87"/>
</a>
</g>
</g>
<!-- 3&#45;&gt;12 -->
<g id="edge62" class="edge">
<title>3&#45;&gt;12</title>
<g id="a_edge62"><a xlink:title="include">
<path fill="none" stroke="#1414ce" d="M478.57,-590.98C624.32,-585.88 978.88,-570.64 1094,-540 1130.12,-530.39 1136,-519.51 1170,-504 1278.63,-454.44 1348.58,-494.55 1416,-396 1459.06,-333.07 1444.17,-236.63 1433.3,-190.04"/>
<polygon fill="#1414ce" stroke="#1414ce" points="1436.64,-188.98 1430.86,-180.1 1429.84,-190.65 1436.64,-188.98"/>
</a>
</g>
</g>
<!-- 3&#45;&gt;7 -->
<g id="edge61" class="edge">
<title>3&#45;&gt;7</title>
<g id="a_edge61"><a xlink:title="include">
<path fill="none" stroke="#1414ce" d="M433.12,-575.88C476.3,-535.08 581.99,-435.29 586,-432 669.21,-363.77 774.42,-292.79 828.07,-257.59"/>
<polygon fill="#1414ce" stroke="#1414ce" points="830.09,-260.46 836.54,-252.06 826.26,-254.6 830.09,-260.46"/>
</a>
</g>
</g>
<!-- 3&#45;&gt;20 -->
<g id="edge66" class="edge">
<title>3&#45;&gt;20</title>
<g id="a_edge66"><a xlink:title="include">
<path fill="none" stroke="#1414ce" d="M351.4,-583.45C316.25,-575.9 273.13,-562.69 240,-540 165.03,-488.66 114,-469.86 114,-379 114,-379 114,-379 114,-305 114,-264.55 105.79,-245.93 133,-216 141.82,-206.3 214.15,-185.83 260.99,-173.36"/>
<polygon fill="#1414ce" stroke="#1414ce" points="262.08,-176.69 270.85,-170.75 260.29,-169.92 262.08,-176.69"/>
</a>
</g>
</g>
<!-- 3&#45;&gt;28 -->
<g id="edge69" class="edge">
<title>3&#45;&gt;28</title>
<g id="a_edge69"><a xlink:title="include">
<path fill="none" stroke="#1414ce" d="M354.57,-575.96C298.61,-556.05 224,-517.11 224,-451 224,-451 224,-451 224,-377 224,-335.97 210.77,-289.97 201.06,-261.74"/>
<polygon fill="#1414ce" stroke="#1414ce" points="204.32,-260.45 197.68,-252.19 197.72,-262.78 204.32,-260.45"/>
</a>
</g>
</g>
<!-- 3&#45;&gt;27 -->
<g id="edge65" class="edge">
<title>3&#45;&gt;27</title>
<g id="a_edge65"><a xlink:title="include">
<path fill="none" stroke="#1414ce" d="M424.85,-576C441.94,-546.54 478.34,-484.16 510,-432 547.52,-370.2 592.82,-298.33 616.6,-260.81"/>
<polygon fill="#1414ce" stroke="#1414ce" points="619.76,-262.36 622.16,-252.04 613.85,-258.61 619.76,-262.36"/>
</a>
</g>
</g>
<!-- 17 -->
<g id="node32" class="node">
<title>17</title>
<g id="a_node32"><a xlink:title="ets.h">
<polygon fill="#ffffff" stroke="black" points="382,-540 328,-540 328,-504 382,-504 382,-540"/>
<text text-anchor="middle" x="355" y="-518.3" font-family="Times,serif" font-size="14.00">ets.h</text>
</a>
</g>
</g>
<!-- 3&#45;&gt;17 -->
<g id="edge63" class="edge">
<title>3&#45;&gt;17</title>
<g id="a_edge63"><a xlink:title="include">
<path fill="none" stroke="#1414ce" d="M400.17,-575.7C392.98,-567.3 384.2,-557.07 376.31,-547.86"/>
<polygon fill="#1414ce" stroke="#1414ce" points="378.83,-545.42 369.66,-540.1 373.51,-549.97 378.83,-545.42"/>
</a>
</g>
</g>
<!-- 31&#45;&gt;8 -->
<g id="edge73" class="edge">
<title>31&#45;&gt;8</title>
<g id="a_edge73"><a xlink:title="include">
<path fill="none" stroke="#1414ce" d="M999.54,-503.85C954,-482.81 878.41,-443.97 824,-396 731.48,-314.44 669.98,-175.89 647.04,-117.84"/>
<polygon fill="#1414ce" stroke="#1414ce" points="650.21,-116.34 643.33,-108.29 643.69,-118.87 650.21,-116.34"/>
</a>
</g>
</g>
<!-- 31&#45;&gt;4 -->
<g id="edge74" class="edge">
<title>31&#45;&gt;4</title>
<g id="a_edge74"><a xlink:title="include">
<path fill="none" stroke="#1414ce" d="M1085.11,-505.49C1086.76,-504.98 1088.39,-504.48 1090,-504 1267.59,-450.66 1347.44,-510.87 1493,-396 1533.06,-364.38 1536.55,-338.83 1532,-288 1526.12,-222.29 1535.94,-196.51 1496,-144 1460.63,-97.49 1440.79,-92.29 1386,-72 1261.85,-26.02 1103.46,-18.89 1026.36,-18.42"/>
<polygon fill="#1414ce" stroke="#1414ce" points="1026.04,-14.92 1016.03,-18.39 1026.02,-21.92 1026.04,-14.92"/>
</a>
</g>
</g>
<!-- 31&#45;&gt;21 -->
<g id="edge71" class="edge">
<title>31&#45;&gt;21</title>
<g id="a_edge71"><a xlink:title="include">
<path fill="none" stroke="#1414ce" d="M1062.24,-503.7C1074.19,-494.8 1088.92,-483.82 1101.85,-474.2"/>
<polygon fill="#1414ce" stroke="#1414ce" points="1104.1,-476.88 1110.03,-468.1 1099.92,-471.27 1104.1,-476.88"/>
</a>
</g>
</g>
<!-- 32 -->
<g id="node28" class="node">
<title>32</title>
<g id="a_node28"><a xlink:title="unicode.h">
<polygon fill="#ffffff" stroke="black" points="987,-180 901,-180 901,-144 987,-144 987,-180"/>
<text text-anchor="middle" x="944" y="-158.3" font-family="Times,serif" font-size="14.00">unicode.h</text>
</a>
</g>
</g>
<!-- 31&#45;&gt;32 -->
<g id="edge72" class="edge">
<title>31&#45;&gt;32</title>
<g id="a_edge72"><a xlink:title="include">
<path fill="none" stroke="#1414ce" d="M1034.98,-503.56C1028.1,-473.97 1013.53,-412.05 1000,-360 983.29,-295.71 978.49,-279.8 960,-216 957.53,-207.47 954.75,-198.19 952.22,-189.81"/>
<polygon fill="#1414ce" stroke="#1414ce" points="955.54,-188.71 949.28,-180.16 948.85,-190.74 955.54,-188.71"/>
</a>
</g>
</g>
<!-- 1 -->
<g id="node26" class="node">
<title>1</title>
<g id="a_node26"><a xlink:title="/__w/AtomVM/AtomVM/src/libAtomVM/scheduler.h">
<polygon fill="#bfbfbf" stroke="black" points="659.5,-756 284.5,-756 284.5,-720 659.5,-720 659.5,-756"/>
<text text-anchor="middle" x="472" y="-734.3" font-family="Times,serif" font-size="14.00">/__w/AtomVM/AtomVM/src/libAtomVM/scheduler.h</text>
</a>
</g>
</g>
<!-- 1&#45;&gt;2 -->
<g id="edge75" class="edge">
<title>1&#45;&gt;2</title>
<g id="a_edge75"><a xlink:title="include">
<path fill="none" stroke="#1414ce" d="M483.37,-719.7C488.72,-711.56 495.2,-701.69 501.11,-692.7"/>
<polygon fill="#1414ce" stroke="#1414ce" points="504.19,-694.38 506.76,-684.1 498.34,-690.54 504.19,-694.38"/>
</a>
</g>
</g>
<!-- 1&#45;&gt;3 -->
<g id="edge76" class="edge">
<title>1&#45;&gt;3</title>
<g id="a_edge76"><a xlink:title="include">
<path fill="none" stroke="#1414ce" d="M465.12,-719.87C455.32,-695.46 437.25,-650.43 425.69,-621.64"/>
<polygon fill="#1414ce" stroke="#1414ce" points="428.87,-620.17 421.9,-612.19 422.38,-622.77 428.87,-620.17"/>
</a>
</g>
</g>
<!-- 20&#45;&gt;8 -->
<g id="edge77" class="edge">
<title>20&#45;&gt;8</title>
<g id="a_edge77"><a xlink:title="include">
<path fill="none" stroke="#1414ce" d="M331.28,-152.04C341.04,-149.29 351.94,-146.37 362,-144 439.3,-125.81 529.91,-109.26 585.38,-99.66"/>
<polygon fill="#1414ce" stroke="#1414ce" points="586.05,-103.09 595.31,-97.95 584.86,-96.19 586.05,-103.09"/>
</a>
</g>
</g>
<!-- 32&#45;&gt;8 -->
<g id="edge78" class="edge">
<title>32&#45;&gt;8</title>
<g id="a_edge78"><a xlink:title="include">
<path fill="none" stroke="#1414ce" d="M900.98,-146.53C897.95,-145.64 894.94,-144.78 892,-144 822.37,-125.44 740.6,-109.45 688.8,-100.02"/>
<polygon fill="#1414ce" stroke="#1414ce" points="689.31,-96.56 678.85,-98.22 688.07,-103.45 689.31,-96.56"/>
</a>
</g>
</g>
<!-- 32&#45;&gt;4 -->
<g id="edge80" class="edge">
<title>32&#45;&gt;4</title>
<g id="a_edge80"><a xlink:title="include">
<path fill="none" stroke="#1414ce" d="M949.95,-143.94C953.43,-133.62 957.77,-120.14 961,-108 966.46,-87.52 971.41,-64.06 974.89,-46.37"/>
<polygon fill="#1414ce" stroke="#1414ce" points="978.4,-46.66 976.86,-36.18 971.53,-45.34 978.4,-46.66"/>
</a>
</g>
</g>
<!-- 32&#45;&gt;10 -->
<g id="edge79" class="edge">
<title>32&#45;&gt;10</title>
<g id="a_edge79"><a xlink:title="include">
<path fill="none" stroke="#1414ce" d="M936.83,-143.7C933.57,-135.81 929.63,-126.3 926,-117.55"/>
<polygon fill="#1414ce" stroke="#1414ce" points="929.15,-116 922.09,-108.1 922.68,-118.68 929.15,-116"/>
</a>
</g>
</g>
<!-- 28&#45;&gt;8 -->
<g id="edge81" class="edge">
<title>28&#45;&gt;8</title>
<g id="a_edge81"><a xlink:title="include">
<path fill="none" stroke="#1414ce" d="M240.23,-217.17C269.54,-207.33 307.29,-193.93 340,-180 372.92,-165.98 378.36,-156.18 412,-144 469.71,-123.1 538.76,-108.26 585.02,-99.69"/>
<polygon fill="#1414ce" stroke="#1414ce" points="585.89,-103.09 595.1,-97.86 584.64,-96.2 585.89,-103.09"/>
</a>
</g>
</g>
<!-- 28&#45;&gt;18 -->
<g id="edge83" class="edge">
<title>28&#45;&gt;18</title>
<g id="a_edge83"><a xlink:title="include">
<path fill="none" stroke="#1414ce" d="M240.01,-218.5C243.05,-217.64 246.07,-216.8 249,-216 311.38,-198.9 327.62,-197.1 390,-180 396.8,-178.14 404.02,-176.08 410.98,-174.06"/>
<polygon fill="#1414ce" stroke="#1414ce" points="412.3,-177.32 420.91,-171.15 410.33,-170.61 412.3,-177.32"/>
</a>
</g>
</g>
<!-- 28&#45;&gt;4 -->
<g id="edge82" class="edge">
<title>28&#45;&gt;4</title>
<g id="a_edge82"><a xlink:title="include">
<path fill="none" stroke="#1414ce" d="M202.6,-215.84C218.58,-192.7 247.08,-153.32 262,-144 375.74,-73 793.29,-33.88 933.64,-22.52"/>
<polygon fill="#1414ce" stroke="#1414ce" points="933.95,-26.01 943.64,-21.72 933.39,-19.03 933.95,-26.01"/>
</a>
</g>
</g>
<!-- 27&#45;&gt;8 -->
<g id="edge84" class="edge">
<title>27&#45;&gt;8</title>
<g id="a_edge84"><a xlink:title="include">
<path fill="none" stroke="#1414ce" d="M633.48,-215.87C634.16,-191.67 635.42,-147.21 636.23,-118.39"/>
<polygon fill="#1414ce" stroke="#1414ce" points="639.73,-118.28 636.52,-108.19 632.74,-118.09 639.73,-118.28"/>
</a>
</g>
</g>
<!-- 27&#45;&gt;9 -->
<g id="edge87" class="edge">
<title>27&#45;&gt;9</title>
<g id="a_edge87"><a xlink:title="include">
<path fill="none" stroke="#1414ce" d="M676.09,-228.12C755.01,-218.95 920.74,-198.62 994.98,-179.79"/>
<polygon fill="#1414ce" stroke="#1414ce" points="996.08,-183.12 1004.83,-177.14 994.27,-176.36 996.08,-183.12"/>
</a>
</g>
</g>
<!-- 27&#45;&gt;18 -->
<g id="edge85" class="edge">
<title>27&#45;&gt;18</title>
<g id="a_edge85"><a xlink:title="include">
<path fill="none" stroke="#1414ce" d="M589.63,-216.59C557.77,-204.53 514.96,-188.34 484.78,-176.92"/>
<polygon fill="#1414ce" stroke="#1414ce" points="485.65,-173.5 475.06,-173.24 483.17,-180.05 485.65,-173.5"/>
</a>
</g>
</g>
<!-- 27&#45;&gt;13 -->
<g id="edge86" class="edge">
<title>27&#45;&gt;13</title>
<g id="a_edge86"><a xlink:title="include">
<path fill="none" stroke="#1414ce" d="M676.16,-228.49C755.48,-220.06 929.73,-200.86 1076,-180 1242.59,-156.24 1437.25,-122.47 1540.32,-104.12"/>
<polygon fill="#1414ce" stroke="#1414ce" points="1541.08,-107.54 1550.31,-102.33 1539.85,-100.64 1541.08,-107.54"/>
</a>
</g>
</g>
<!-- 17&#45;&gt;19 -->
<g id="edge89" class="edge">
<title>17&#45;&gt;19</title>
<g id="a_edge89"><a xlink:title="include">
<path fill="none" stroke="#1414ce" d="M351.78,-503.97C342.76,-456.19 317.17,-320.62 306.15,-262.27"/>
<polygon fill="#1414ce" stroke="#1414ce" points="309.56,-261.48 304.27,-252.31 302.68,-262.78 309.56,-261.48"/>
</a>
</g>
</g>
<!-- 17&#45;&gt;18 -->
<g id="edge88" class="edge">
<title>17&#45;&gt;18</title>
<g id="a_edge88"><a xlink:title="include">
<path fill="none" stroke="#1414ce" d="M358.44,-503.59C363.41,-476.9 372,-424.19 372,-379 372,-379 372,-379 372,-305 372,-264.03 375.66,-251.56 396,-216 402.04,-205.44 410.69,-195.47 419.21,-187.08"/>
<polygon fill="#1414ce" stroke="#1414ce" points="421.7,-189.54 426.59,-180.14 416.91,-184.44 421.7,-189.54"/>
</a>
</g>
</g>
<!-- 17&#45;&gt;21 -->
<g id="edge90" class="edge">
<title>17&#45;&gt;21</title>
<g id="a_edge90"><a xlink:title="include">
<path fill="none" stroke="#1414ce" d="M382.23,-518.55C497.81,-508.15 948.29,-467.62 1090.04,-454.86"/>
<polygon fill="#1414ce" stroke="#1414ce" points="1090.45,-458.34 1100.1,-453.96 1089.82,-451.37 1090.45,-458.34"/>
</a>
</g>
</g>
</g>
</svg>
