<?xml version="1.0" encoding="UTF-8" standalone="no"?>
<!DOCTYPE svg PUBLIC "-//W3C//DTD SVG 1.1//EN"
 "http://www.w3.org/Graphics/SVG/1.1/DTD/svg11.dtd">
<!-- Generated by graphviz version 2.43.0 (0)
 -->
<!-- Title: %3 Pages: 1 -->
<svg width="382pt" height="260pt"
 viewBox="0.00 0.00 382.00 260.00" xmlns="http://www.w3.org/2000/svg" xmlns:xlink="http://www.w3.org/1999/xlink">
<g id="graph0" class="graph" transform="scale(1 1) rotate(0) translate(4 256)">
<title>%3</title>
<polygon fill="transparent" stroke="transparent" points="-4,4 -4,-256 378,-256 378,4 -4,4"/>
<!-- 5 -->
<g id="node1" class="node">
<title>5</title>
<g id="a_node1"><a xlink:title="list.h">
<polygon fill="#ffffff" stroke="black" points="159,-108 105,-108 105,-72 159,-72 159,-108"/>
<text text-anchor="middle" x="132" y="-86.3" font-family="Times,serif" font-size="14.00">list.h</text>
</a>
</g>
</g>
<!-- 3 -->
<g id="node4" class="node">
<title>3</title>
<g id="a_node4"><a xlink:title="stdbool.h">
<polygon fill="#ffffff" stroke="black" points="200.5,-36 117.5,-36 117.5,0 200.5,0 200.5,-36"/>
<text text-anchor="middle" x="159" y="-14.3" font-family="Times,serif" font-size="14.00">stdbool.h</text>
</a>
</g>
</g>
<!-- 5&#45;&gt;3 -->
<g id="edge1" class="edge">
<title>5&#45;&gt;3</title>
<g id="a_edge1"><a xlink:title="include">
<path fill="none" stroke="#1414ce" d="M138.67,-71.7C141.71,-63.81 145.38,-54.3 148.76,-45.55"/>
<polygon fill="#1414ce" stroke="#1414ce" points="152.07,-46.69 152.4,-36.1 145.54,-44.17 152.07,-46.69"/>
</a>
</g>
</g>
<!-- 1 -->
<g id="node2" class="node">
<title>1</title>
<g id="a_node2"><a xlink:title="/__w/AtomVM/AtomVM/src/libAtomVM/timer_list.c">
<polygon fill="#bfbfbf" stroke="black" points="374,-252 0,-252 0,-216 374,-216 374,-252"/>
<text text-anchor="middle" x="187" y="-230.3" font-family="Times,serif" font-size="14.00">/__w/AtomVM/AtomVM/src/libAtomVM/timer_list.c</text>
</a>
</g>
</g>
<!-- 2 -->
<g id="node3" class="node">
<title>2</title>
<g id="a_node3"><a xlink:title="timer_list.h">
<polygon fill="#ffffff" stroke="black" points="236,-180 138,-180 138,-144 236,-144 236,-180"/>
<text text-anchor="middle" x="187" y="-158.3" font-family="Times,serif" font-size="14.00">timer_list.h</text>
</a>
</g>
</g>
<!-- 1&#45;&gt;2 -->
<g id="edge2" class="edge">
<title>1&#45;&gt;2</title>
<g id="a_edge2"><a xlink:title="include">
<path fill="none" stroke="#1414ce" d="M187,-215.7C187,-207.98 187,-198.71 187,-190.11"/>
<polygon fill="#1414ce" stroke="#1414ce" points="190.5,-190.1 187,-180.1 183.5,-190.1 190.5,-190.1"/>
</a>
</g>
</g>
<!-- 2&#45;&gt;5 -->
<g id="edge5" class="edge">
<title>2&#45;&gt;5</title>
<g id="a_edge5"><a xlink:title="include">
<path fill="none" stroke="#1414ce" d="M173.4,-143.7C166.88,-135.39 158.93,-125.28 151.75,-116.14"/>
<polygon fill="#1414ce" stroke="#1414ce" points="154.37,-113.81 145.44,-108.1 148.87,-118.13 154.37,-113.81"/>
</a>
</g>
</g>
<!-- 2&#45;&gt;3 -->
<g id="edge3" class="edge">
<title>2&#45;&gt;3</title>
<g id="a_edge3"><a xlink:title="include">
<path fill="none" stroke="#1414ce" d="M183.62,-143.87C178.83,-119.56 170.01,-74.82 164.33,-46.01"/>
<polygon fill="#1414ce" stroke="#1414ce" points="167.76,-45.32 162.39,-36.19 160.89,-46.68 167.76,-45.32"/>
</a>
</g>
</g>
<!-- 4 -->
<g id="node5" class="node">
<title>4</title>
<g id="a_node5"><a xlink:title="stdint.h">
<polygon fill="#ffffff" stroke="black" points="287,-108 215,-108 215,-72 287,-72 287,-108"/>
<text text-anchor="middle" x="251" y="-86.3" font-family="Times,serif" font-size="14.00">stdint.h</text>
</a>
</g>
</g>
<!-- 2&#45;&gt;4 -->
<g id="edge4" class="edge">
<title>2&#45;&gt;4</title>
<g id="a_edge4"><a xlink:title="include">
<path fill="none" stroke="#1414ce" d="M202.82,-143.7C210.57,-135.22 220.04,-124.86 228.52,-115.58"/>
<polygon fill="#1414ce" stroke="#1414ce" points="231.2,-117.85 235.36,-108.1 226.03,-113.12 231.2,-117.85"/>
</a>
</g>
</g>
</g>
</svg>
