<?xml version="1.0" encoding="UTF-8" standalone="no"?>
<!DOCTYPE svg PUBLIC "-//W3C//DTD SVG 1.1//EN"
 "http://www.w3.org/Graphics/SVG/1.1/DTD/svg11.dtd">
<!-- Generated by graphviz version 2.43.0 (0)
 -->
<!-- Title: %3 Pages: 1 -->
<svg width="1514pt" height="836pt"
 viewBox="0.00 0.00 1514.00 836.00" xmlns="http://www.w3.org/2000/svg" xmlns:xlink="http://www.w3.org/1999/xlink">
<g id="graph0" class="graph" transform="scale(1 1) rotate(0) translate(4 832)">
<title>%3</title>
<polygon fill="transparent" stroke="transparent" points="-4,4 -4,-832 1510,-832 1510,4 -4,4"/>
<!-- 8 -->
<g id="node1" class="node">
<title>8</title>
<g id="a_node1"><a xlink:title="stdbool.h">
<polygon fill="#ffffff" stroke="black" points="524.5,-108 441.5,-108 441.5,-72 524.5,-72 524.5,-108"/>
<text text-anchor="middle" x="483" y="-86.3" font-family="Times,serif" font-size="14.00">stdbool.h</text>
</a>
</g>
</g>
<!-- 25 -->
<g id="node2" class="node">
<title>25</title>
<g id="a_node2"><a xlink:title="refc_binary.h">
<polygon fill="#ffffff" stroke="black" points="768,-396 660,-396 660,-360 768,-360 768,-396"/>
<text text-anchor="middle" x="714" y="-374.3" font-family="Times,serif" font-size="14.00">refc_binary.h</text>
</a>
</g>
</g>
<!-- 25&#45;&gt;8 -->
<g id="edge1" class="edge">
<title>25&#45;&gt;8</title>
<g id="a_edge1"><a xlink:title="include">
<path fill="none" stroke="#1414ce" d="M728.33,-359.57C735.45,-349.76 743.31,-336.92 747,-324 760.66,-276.21 754.55,-249.67 718,-216 678.3,-179.43 650.07,-204.55 602,-180 578.25,-167.87 575.35,-159.98 554,-144 540.99,-134.27 526.63,-123.54 514.25,-114.3"/>
<polygon fill="#1414ce" stroke="#1414ce" points="516.14,-111.35 506.03,-108.17 511.95,-116.96 516.14,-111.35"/>
</a>
</g>
</g>
<!-- 18 -->
<g id="node7" class="node">
<title>18</title>
<g id="a_node7"><a xlink:title="list.h">
<polygon fill="#ffffff" stroke="black" points="436,-180 382,-180 382,-144 436,-144 436,-180"/>
<text text-anchor="middle" x="409" y="-158.3" font-family="Times,serif" font-size="14.00">list.h</text>
</a>
</g>
</g>
<!-- 25&#45;&gt;18 -->
<g id="edge3" class="edge">
<title>25&#45;&gt;18</title>
<g id="a_edge3"><a xlink:title="include">
<path fill="none" stroke="#1414ce" d="M677.94,-359.95C633.74,-338.16 557.61,-297.76 500,-252 482.77,-238.31 481.62,-231.5 466,-216 456.24,-206.31 445.23,-195.95 435.5,-186.98"/>
<polygon fill="#1414ce" stroke="#1414ce" points="437.77,-184.31 428.03,-180.12 433.03,-189.46 437.77,-184.31"/>
</a>
</g>
</g>
<!-- 6 -->
<g id="node9" class="node">
<title>6</title>
<g id="a_node9"><a xlink:title="stdlib.h">
<polygon fill="#ffffff" stroke="black" points="1180.5,-108 1109.5,-108 1109.5,-72 1180.5,-72 1180.5,-108"/>
<text text-anchor="middle" x="1145" y="-86.3" font-family="Times,serif" font-size="14.00">stdlib.h</text>
</a>
</g>
</g>
<!-- 25&#45;&gt;6 -->
<g id="edge2" class="edge">
<title>25&#45;&gt;6</title>
<g id="a_edge2"><a xlink:title="include">
<path fill="none" stroke="#1414ce" d="M755.23,-359.96C824.57,-330.09 966.95,-263.42 1069,-180 1091.78,-161.38 1113.11,-135.34 1127.34,-116.24"/>
<polygon fill="#1414ce" stroke="#1414ce" points="1130.28,-118.14 1133.36,-108 1124.63,-114.01 1130.28,-118.14"/>
</a>
</g>
</g>
<!-- 26 -->
<g id="node14" class="node">
<title>26</title>
<g id="a_node14"><a xlink:title="resources.h">
<polygon fill="#ffffff" stroke="black" points="738,-324 638,-324 638,-288 738,-288 738,-324"/>
<text text-anchor="middle" x="688" y="-302.3" font-family="Times,serif" font-size="14.00">resources.h</text>
</a>
</g>
</g>
<!-- 25&#45;&gt;26 -->
<g id="edge4" class="edge">
<title>25&#45;&gt;26</title>
<g id="a_edge4"><a xlink:title="include">
<path fill="none" stroke="#1414ce" d="M707.57,-359.7C704.64,-351.81 701.11,-342.3 697.86,-333.55"/>
<polygon fill="#1414ce" stroke="#1414ce" points="701.12,-332.26 694.35,-324.1 694.55,-334.7 701.12,-332.26"/>
</a>
</g>
</g>
<!-- 5 -->
<g id="node3" class="node">
<title>5</title>
<g id="a_node3"><a xlink:title="atom.h">
<polygon fill="#ffffff" stroke="black" points="928,-396 862,-396 862,-360 928,-360 928,-396"/>
<text text-anchor="middle" x="895" y="-374.3" font-family="Times,serif" font-size="14.00">atom.h</text>
</a>
</g>
</g>
<!-- 4 -->
<g id="node8" class="node">
<title>4</title>
<g id="a_node8"><a xlink:title="stdint.h">
<polygon fill="#ffffff" stroke="black" points="816,-36 744,-36 744,0 816,0 816,-36"/>
<text text-anchor="middle" x="780" y="-14.3" font-family="Times,serif" font-size="14.00">stdint.h</text>
</a>
</g>
</g>
<!-- 5&#45;&gt;4 -->
<g id="edge5" class="edge">
<title>5&#45;&gt;4</title>
<g id="a_edge5"><a xlink:title="include">
<path fill="none" stroke="#1414ce" d="M889.45,-359.73C870.93,-302.08 811.13,-115.89 788.65,-45.92"/>
<polygon fill="#1414ce" stroke="#1414ce" points="791.88,-44.54 785.49,-36.09 785.22,-46.69 791.88,-44.54"/>
</a>
</g>
</g>
<!-- 5&#45;&gt;6 -->
<g id="edge6" class="edge">
<title>5&#45;&gt;6</title>
<g id="a_edge6"><a xlink:title="include">
<path fill="none" stroke="#1414ce" d="M928.44,-361.91C984.16,-334.7 1094.38,-271.61 1140,-180 1149.52,-160.89 1150.23,-136.54 1148.86,-118.14"/>
<polygon fill="#1414ce" stroke="#1414ce" points="1152.34,-117.69 1147.87,-108.08 1145.37,-118.37 1152.34,-117.69"/>
</a>
</g>
</g>
<!-- 14 -->
<g id="node4" class="node">
<title>14</title>
<g id="a_node4"><a xlink:title="assert.h">
<polygon fill="#ffffff" stroke="black" points="1506,-36 1432,-36 1432,0 1506,0 1506,-36"/>
<text text-anchor="middle" x="1469" y="-14.3" font-family="Times,serif" font-size="14.00">assert.h</text>
</a>
</g>
</g>
<!-- 9 -->
<g id="node5" class="node">
<title>9</title>
<g id="a_node5"><a xlink:title="utils.h">
<polygon fill="#ffffff" stroke="black" points="1060,-180 998,-180 998,-144 1060,-144 1060,-180"/>
<text text-anchor="middle" x="1029" y="-158.3" font-family="Times,serif" font-size="14.00">utils.h</text>
</a>
</g>
</g>
<!-- 9&#45;&gt;6 -->
<g id="edge9" class="edge">
<title>9&#45;&gt;6</title>
<g id="a_edge9"><a xlink:title="include">
<path fill="none" stroke="#1414ce" d="M1057.38,-143.88C1072.54,-134.72 1091.41,-123.34 1107.74,-113.48"/>
<polygon fill="#1414ce" stroke="#1414ce" points="1109.76,-116.35 1116.51,-108.19 1106.14,-110.36 1109.76,-116.35"/>
</a>
</g>
</g>
<!-- 10 -->
<g id="node16" class="node">
<title>10</title>
<g id="a_node16"><a xlink:title="stddef.h">
<polygon fill="#ffffff" stroke="black" points="904,-108 830,-108 830,-72 904,-72 904,-108"/>
<text text-anchor="middle" x="867" y="-86.3" font-family="Times,serif" font-size="14.00">stddef.h</text>
</a>
</g>
</g>
<!-- 9&#45;&gt;10 -->
<g id="edge7" class="edge">
<title>9&#45;&gt;10</title>
<g id="a_edge7"><a xlink:title="include">
<path fill="none" stroke="#1414ce" d="M997.76,-147.5C973.83,-137.16 940.43,-122.73 913.38,-111.04"/>
<polygon fill="#1414ce" stroke="#1414ce" points="914.67,-107.79 904.1,-107.03 911.89,-114.21 914.67,-107.79"/>
</a>
</g>
</g>
<!-- 11 -->
<g id="node29" class="node">
<title>11</title>
<g id="a_node29"><a xlink:title="stdio.h">
<polygon fill="#ffffff" stroke="black" points="1061.5,-108 996.5,-108 996.5,-72 1061.5,-72 1061.5,-108"/>
<text text-anchor="middle" x="1029" y="-86.3" font-family="Times,serif" font-size="14.00">stdio.h</text>
</a>
</g>
</g>
<!-- 9&#45;&gt;11 -->
<g id="edge8" class="edge">
<title>9&#45;&gt;11</title>
<g id="a_edge8"><a xlink:title="include">
<path fill="none" stroke="#1414ce" d="M1029,-143.7C1029,-135.98 1029,-126.71 1029,-118.11"/>
<polygon fill="#1414ce" stroke="#1414ce" points="1032.5,-118.1 1029,-108.1 1025.5,-118.1 1032.5,-118.1"/>
</a>
</g>
</g>
<!-- 19 -->
<g id="node6" class="node">
<title>19</title>
<g id="a_node6"><a xlink:title="synclist.h">
<polygon fill="#ffffff" stroke="black" points="457.5,-252 372.5,-252 372.5,-216 457.5,-216 457.5,-252"/>
<text text-anchor="middle" x="415" y="-230.3" font-family="Times,serif" font-size="14.00">synclist.h</text>
</a>
</g>
</g>
<!-- 19&#45;&gt;18 -->
<g id="edge11" class="edge">
<title>19&#45;&gt;18</title>
<g id="a_edge11"><a xlink:title="include">
<path fill="none" stroke="#1414ce" d="M413.52,-215.7C412.86,-207.98 412.06,-198.71 411.32,-190.11"/>
<polygon fill="#1414ce" stroke="#1414ce" points="414.81,-189.77 410.47,-180.1 407.83,-190.37 414.81,-189.77"/>
</a>
</g>
</g>
<!-- 20 -->
<g id="node25" class="node">
<title>20</title>
<g id="a_node25"><a xlink:title="smp.h">
<polygon fill="#ffffff" stroke="black" points="333,-180 273,-180 273,-144 333,-144 333,-180"/>
<text text-anchor="middle" x="303" y="-158.3" font-family="Times,serif" font-size="14.00">smp.h</text>
</a>
</g>
</g>
<!-- 19&#45;&gt;20 -->
<g id="edge12" class="edge">
<title>19&#45;&gt;20</title>
<g id="a_edge12"><a xlink:title="include">
<path fill="none" stroke="#1414ce" d="M387.6,-215.88C373.09,-206.81 355.08,-195.55 339.41,-185.76"/>
<polygon fill="#1414ce" stroke="#1414ce" points="340.84,-182.52 330.5,-180.19 337.13,-188.46 340.84,-182.52"/>
</a>
</g>
</g>
<!-- 19&#45;&gt;11 -->
<g id="edge10" class="edge">
<title>19&#45;&gt;11</title>
<g id="a_edge10"><a xlink:title="include">
<path fill="none" stroke="#1414ce" d="M457.59,-227.28C555.89,-214.06 790.82,-182.33 799,-180 836.89,-169.2 843.41,-158.61 880,-144 915.62,-129.77 956.74,-115.29 986.75,-105.07"/>
<polygon fill="#1414ce" stroke="#1414ce" points="988.12,-108.3 996.47,-101.77 985.88,-101.67 988.12,-108.3"/>
</a>
</g>
</g>
<!-- 18&#45;&gt;8 -->
<g id="edge13" class="edge">
<title>18&#45;&gt;8</title>
<g id="a_edge13"><a xlink:title="include">
<path fill="none" stroke="#1414ce" d="M427.29,-143.7C436.43,-135.05 447.64,-124.45 457.6,-115.03"/>
<polygon fill="#1414ce" stroke="#1414ce" points="460.06,-117.52 464.92,-108.1 455.25,-112.43 460.06,-117.52"/>
</a>
</g>
</g>
<!-- 2 -->
<g id="node10" class="node">
<title>2</title>
<g id="a_node10"><a xlink:title="context.h">
<polygon fill="#ffffff" stroke="black" points="427.5,-684 344.5,-684 344.5,-648 427.5,-648 427.5,-684"/>
<text text-anchor="middle" x="386" y="-662.3" font-family="Times,serif" font-size="14.00">context.h</text>
</a>
</g>
</g>
<!-- 2&#45;&gt;18 -->
<g id="edge15" class="edge">
<title>2&#45;&gt;18</title>
<g id="a_edge15"><a xlink:title="include">
<path fill="none" stroke="#1414ce" d="M344.3,-654.05C288.37,-636.54 196,-596.51 196,-523 196,-523 196,-523 196,-377 196,-278.23 311.39,-208.93 372.31,-179.22"/>
<polygon fill="#1414ce" stroke="#1414ce" points="374.07,-182.25 381.59,-174.79 371.06,-175.94 374.07,-182.25"/>
</a>
</g>
</g>
<!-- 21 -->
<g id="node15" class="node">
<title>21</title>
<g id="a_node15"><a xlink:title="term.h">
<polygon fill="#ffffff" stroke="black" points="1078.5,-468 1013.5,-468 1013.5,-432 1078.5,-432 1078.5,-468"/>
<text text-anchor="middle" x="1046" y="-446.3" font-family="Times,serif" font-size="14.00">term.h</text>
</a>
</g>
</g>
<!-- 2&#45;&gt;21 -->
<g id="edge18" class="edge">
<title>2&#45;&gt;21</title>
<g id="a_edge18"><a xlink:title="include">
<path fill="none" stroke="#1414ce" d="M427.69,-650.78C535.66,-613.96 819.02,-517.45 862,-504 910.14,-488.93 965.85,-473.11 1003.25,-462.72"/>
<polygon fill="#1414ce" stroke="#1414ce" points="1004.59,-465.98 1013.29,-459.93 1002.72,-459.23 1004.59,-465.98"/>
</a>
</g>
</g>
<!-- 3 -->
<g id="node24" class="node">
<title>3</title>
<g id="a_node24"><a xlink:title="globalcontext.h">
<polygon fill="#ffffff" stroke="black" points="532.5,-612 405.5,-612 405.5,-576 532.5,-576 532.5,-612"/>
<text text-anchor="middle" x="469" y="-590.3" font-family="Times,serif" font-size="14.00">globalcontext.h</text>
</a>
</g>
</g>
<!-- 2&#45;&gt;3 -->
<g id="edge14" class="edge">
<title>2&#45;&gt;3</title>
<g id="a_edge14"><a xlink:title="include">
<path fill="none" stroke="#1414ce" d="M406.52,-647.7C416.87,-638.97 429.59,-628.24 440.84,-618.75"/>
<polygon fill="#1414ce" stroke="#1414ce" points="443.33,-621.23 448.72,-612.1 438.82,-615.88 443.33,-621.23"/>
</a>
</g>
</g>
<!-- 2&#45;&gt;20 -->
<g id="edge17" class="edge">
<title>2&#45;&gt;20</title>
<g id="a_edge17"><a xlink:title="include">
<path fill="none" stroke="#1414ce" d="M344.44,-661.66C269.62,-653.13 120,-623.51 120,-523 120,-523 120,-523 120,-377 120,-289.02 210.45,-218.97 264.17,-185.13"/>
<polygon fill="#1414ce" stroke="#1414ce" points="266.11,-188.05 272.78,-179.82 262.43,-182.09 266.11,-188.05"/>
</a>
</g>
</g>
<!-- 28 -->
<g id="node27" class="node">
<title>28</title>
<g id="a_node27"><a xlink:title="timer_list.h">
<polygon fill="#ffffff" stroke="black" points="164,-252 66,-252 66,-216 164,-216 164,-252"/>
<text text-anchor="middle" x="115" y="-230.3" font-family="Times,serif" font-size="14.00">timer_list.h</text>
</a>
</g>
</g>
<!-- 2&#45;&gt;28 -->
<g id="edge19" class="edge">
<title>2&#45;&gt;28</title>
<g id="a_edge19"><a xlink:title="include">
<path fill="none" stroke="#1414ce" d="M344.35,-663.39C273.86,-659.7 135.79,-647.96 106,-612 20.38,-508.66 77.64,-329.11 103.87,-261.64"/>
<polygon fill="#1414ce" stroke="#1414ce" points="107.19,-262.75 107.64,-252.16 100.69,-260.16 107.19,-262.75"/>
</a>
</g>
</g>
<!-- 27 -->
<g id="node28" class="node">
<title>27</title>
<g id="a_node28"><a xlink:title="mailbox.h">
<polygon fill="#ffffff" stroke="black" points="638,-252 552,-252 552,-216 638,-216 638,-252"/>
<text text-anchor="middle" x="595" y="-230.3" font-family="Times,serif" font-size="14.00">mailbox.h</text>
</a>
</g>
</g>
<!-- 2&#45;&gt;27 -->
<g id="edge16" class="edge">
<title>2&#45;&gt;27</title>
<g id="a_edge16"><a xlink:title="include">
<path fill="none" stroke="#1414ce" d="M386.02,-647.84C387.01,-589.54 397.98,-396.69 497,-288 509.41,-274.37 526.16,-263.55 542.3,-255.33"/>
<polygon fill="#1414ce" stroke="#1414ce" points="544.22,-258.29 551.7,-250.78 541.17,-251.99 544.22,-258.29"/>
</a>
</g>
</g>
<!-- 24 -->
<g id="node11" class="node">
<title>24</title>
<g id="a_node11"><a xlink:title="memory.h">
<polygon fill="#ffffff" stroke="black" points="1283,-252 1197,-252 1197,-216 1283,-216 1283,-252"/>
<text text-anchor="middle" x="1240" y="-230.3" font-family="Times,serif" font-size="14.00">memory.h</text>
</a>
</g>
</g>
<!-- 24&#45;&gt;9 -->
<g id="edge24" class="edge">
<title>24&#45;&gt;9</title>
<g id="a_edge24"><a xlink:title="include">
<path fill="none" stroke="#1414ce" d="M1196.79,-218.67C1159.65,-206.34 1106.47,-188.7 1069.99,-176.6"/>
<polygon fill="#1414ce" stroke="#1414ce" points="1070.76,-173.17 1060.17,-173.34 1068.56,-179.81 1070.76,-173.17"/>
</a>
</g>
</g>
<!-- 24&#45;&gt;4 -->
<g id="edge20" class="edge">
<title>24&#45;&gt;4</title>
<g id="a_edge20"><a xlink:title="include">
<path fill="none" stroke="#1414ce" d="M1242.11,-215.81C1243.73,-197.54 1244.59,-168.03 1237,-144 1225.49,-107.56 1222.37,-92.32 1190,-72 1130.23,-34.49 920.4,-23.33 826.28,-20.18"/>
<polygon fill="#1414ce" stroke="#1414ce" points="826.31,-16.68 816.2,-19.85 826.09,-23.67 826.31,-16.68"/>
</a>
</g>
</g>
<!-- 24&#45;&gt;6 -->
<g id="edge21" class="edge">
<title>24&#45;&gt;6</title>
<g id="a_edge21"><a xlink:title="include">
<path fill="none" stroke="#1414ce" d="M1238.72,-215.88C1236.58,-196.88 1230.92,-165.98 1216,-144 1208.08,-132.34 1196.73,-122.23 1185.43,-114.07"/>
<polygon fill="#1414ce" stroke="#1414ce" points="1187.08,-110.96 1176.85,-108.2 1183.13,-116.74 1187.08,-110.96"/>
</a>
</g>
</g>
<!-- 12 -->
<g id="node17" class="node">
<title>12</title>
<g id="a_node17"><a xlink:title="erl_nif.h">
<polygon fill="#ffffff" stroke="black" points="1418,-180 1344,-180 1344,-144 1418,-144 1418,-180"/>
<text text-anchor="middle" x="1381" y="-158.3" font-family="Times,serif" font-size="14.00">erl_nif.h</text>
</a>
</g>
</g>
<!-- 24&#45;&gt;12 -->
<g id="edge22" class="edge">
<title>24&#45;&gt;12</title>
<g id="a_edge22"><a xlink:title="include">
<path fill="none" stroke="#1414ce" d="M1274.49,-215.88C1293.44,-206.47 1317.13,-194.71 1337.36,-184.67"/>
<polygon fill="#1414ce" stroke="#1414ce" points="1338.97,-187.77 1346.37,-180.19 1335.86,-181.5 1338.97,-187.77"/>
</a>
</g>
</g>
<!-- 13 -->
<g id="node23" class="node">
<title>13</title>
<g id="a_node23"><a xlink:title="term_typedef.h">
<polygon fill="#ffffff" stroke="black" points="1431.5,-108 1306.5,-108 1306.5,-72 1431.5,-72 1431.5,-108"/>
<text text-anchor="middle" x="1369" y="-86.3" font-family="Times,serif" font-size="14.00">term_typedef.h</text>
</a>
</g>
</g>
<!-- 24&#45;&gt;13 -->
<g id="edge23" class="edge">
<title>24&#45;&gt;13</title>
<g id="a_edge23"><a xlink:title="include">
<path fill="none" stroke="#1414ce" d="M1257.61,-215.6C1267.82,-205.38 1280.82,-192.13 1292,-180 1311.57,-158.76 1333,-133.84 1348.28,-115.78"/>
<polygon fill="#1414ce" stroke="#1414ce" points="1351.06,-117.91 1354.83,-108.01 1345.71,-113.4 1351.06,-117.91"/>
</a>
</g>
</g>
<!-- 30 -->
<g id="node12" class="node">
<title>30</title>
<g id="a_node12"><a xlink:title="module.h">
<polygon fill="#ffffff" stroke="black" points="788.5,-756 705.5,-756 705.5,-720 788.5,-720 788.5,-756"/>
<text text-anchor="middle" x="747" y="-734.3" font-family="Times,serif" font-size="14.00">module.h</text>
</a>
</g>
</g>
<!-- 30&#45;&gt;8 -->
<g id="edge25" class="edge">
<title>30&#45;&gt;8</title>
<g id="a_edge25"><a xlink:title="include">
<path fill="none" stroke="#1414ce" d="M732.64,-719.9C699.68,-679.38 619.26,-573.05 591,-468 577.19,-416.65 595.99,-330.34 616,-288 625.02,-268.91 639.65,-271.79 647,-252 652.57,-237 656.7,-228.72 647,-216 610.4,-167.98 560.51,-220.8 516,-180 498.6,-164.05 490.34,-138.08 486.44,-118.3"/>
<polygon fill="#1414ce" stroke="#1414ce" points="489.87,-117.6 484.73,-108.33 482.97,-118.78 489.87,-117.6"/>
</a>
</g>
</g>
<!-- 30&#45;&gt;5 -->
<g id="edge27" class="edge">
<title>30&#45;&gt;5</title>
<g id="a_edge27"><a xlink:title="include">
<path fill="none" stroke="#1414ce" d="M767.65,-719.58C794.5,-694.87 838,-646.83 838,-595 838,-595 838,-595 838,-521 838,-477.8 861,-432.19 877.78,-404.66"/>
<polygon fill="#1414ce" stroke="#1414ce" points="880.83,-406.37 883.19,-396.04 874.91,-402.65 880.83,-406.37"/>
</a>
</g>
</g>
<!-- 30&#45;&gt;4 -->
<g id="edge26" class="edge">
<title>30&#45;&gt;4</title>
<g id="a_edge26"><a xlink:title="include">
<path fill="none" stroke="#1414ce" d="M705.24,-733.53C547.92,-719.93 0,-667.36 0,-595 0,-595 0,-595 0,-161 0,-114.96 13.83,-96.19 53,-72 110.77,-36.33 582.56,-23.22 733.64,-19.91"/>
<polygon fill="#1414ce" stroke="#1414ce" points="734.03,-23.4 743.96,-19.69 733.88,-16.41 734.03,-23.4"/>
</a>
</g>
</g>
<!-- 30&#45;&gt;2 -->
<g id="edge29" class="edge">
<title>30&#45;&gt;2</title>
<g id="a_edge29"><a xlink:title="include">
<path fill="none" stroke="#1414ce" d="M705.24,-728.9C638.99,-716.06 509.95,-691.04 437.87,-677.06"/>
<polygon fill="#1414ce" stroke="#1414ce" points="438.15,-673.55 427.67,-675.08 436.82,-680.42 438.15,-673.55"/>
</a>
</g>
</g>
<!-- 30&#45;&gt;21 -->
<g id="edge32" class="edge">
<title>30&#45;&gt;21</title>
<g id="a_edge32"><a xlink:title="include">
<path fill="none" stroke="#1414ce" d="M788.58,-724.05C809.94,-715.59 834.97,-702.6 852,-684 886.88,-645.89 864.6,-617.77 895,-576 926.25,-533.06 975.51,-496.02 1009.21,-473.65"/>
<polygon fill="#1414ce" stroke="#1414ce" points="1011.39,-476.4 1017.85,-468 1007.57,-470.54 1011.39,-476.4"/>
</a>
</g>
</g>
<!-- 31 -->
<g id="node18" class="node">
<title>31</title>
<g id="a_node18"><a xlink:title="exportedfunction.h">
<polygon fill="#ffffff" stroke="black" points="1056,-612 904,-612 904,-576 1056,-576 1056,-612"/>
<text text-anchor="middle" x="980" y="-590.3" font-family="Times,serif" font-size="14.00">exportedfunction.h</text>
</a>
</g>
</g>
<!-- 30&#45;&gt;31 -->
<g id="edge30" class="edge">
<title>30&#45;&gt;31</title>
<g id="a_edge30"><a xlink:title="include">
<path fill="none" stroke="#1414ce" d="M788.59,-726.67C818.33,-718.1 858.52,-704.06 890,-684 917.36,-666.56 943.1,-639.63 959.99,-619.96"/>
<polygon fill="#1414ce" stroke="#1414ce" points="962.68,-622.19 966.44,-612.29 957.33,-617.69 962.68,-622.19"/>
</a>
</g>
</g>
<!-- 7 -->
<g id="node20" class="node">
<title>7</title>
<g id="a_node20"><a xlink:title="atom_table.h">
<polygon fill="#ffffff" stroke="black" points="709.5,-468 600.5,-468 600.5,-432 709.5,-432 709.5,-468"/>
<text text-anchor="middle" x="655" y="-446.3" font-family="Times,serif" font-size="14.00">atom_table.h</text>
</a>
</g>
</g>
<!-- 30&#45;&gt;7 -->
<g id="edge28" class="edge">
<title>30&#45;&gt;7</title>
<g id="a_edge28"><a xlink:title="include">
<path fill="none" stroke="#1414ce" d="M743.8,-719.82C738.05,-690.1 724.97,-627.33 708,-576 696.44,-541.03 679.24,-502.18 667.6,-477.21"/>
<polygon fill="#1414ce" stroke="#1414ce" points="670.71,-475.6 663.28,-468.05 664.38,-478.59 670.71,-475.6"/>
</a>
</g>
</g>
<!-- 30&#45;&gt;3 -->
<g id="edge31" class="edge">
<title>30&#45;&gt;3</title>
<g id="a_edge31"><a xlink:title="include">
<path fill="none" stroke="#1414ce" d="M713.47,-719.87C662.96,-694.07 567.37,-645.25 511.87,-616.9"/>
<polygon fill="#1414ce" stroke="#1414ce" points="513.15,-613.62 502.65,-612.19 509.97,-619.86 513.15,-613.62"/>
</a>
</g>
</g>
<!-- 29 -->
<g id="node13" class="node">
<title>29</title>
<g id="a_node13"><a xlink:title="valueshashtable.h">
<polygon fill="#ffffff" stroke="black" points="790,-180 644,-180 644,-144 790,-144 790,-180"/>
<text text-anchor="middle" x="717" y="-158.3" font-family="Times,serif" font-size="14.00">valueshashtable.h</text>
</a>
</g>
</g>
<!-- 29&#45;&gt;4 -->
<g id="edge34" class="edge">
<title>29&#45;&gt;4</title>
<g id="a_edge34"><a xlink:title="include">
<path fill="none" stroke="#1414ce" d="M724.6,-143.87C735.43,-119.46 755.41,-74.43 768.18,-45.64"/>
<polygon fill="#1414ce" stroke="#1414ce" points="771.52,-46.75 772.37,-36.19 765.12,-43.91 771.52,-46.75"/>
</a>
</g>
</g>
<!-- 29&#45;&gt;10 -->
<g id="edge33" class="edge">
<title>29&#45;&gt;10</title>
<g id="a_edge33"><a xlink:title="include">
<path fill="none" stroke="#1414ce" d="M753.69,-143.88C774.02,-134.39 799.47,-122.51 821.1,-112.42"/>
<polygon fill="#1414ce" stroke="#1414ce" points="822.84,-115.47 830.43,-108.07 819.88,-109.13 822.84,-115.47"/>
</a>
</g>
</g>
<!-- 26&#45;&gt;19 -->
<g id="edge40" class="edge">
<title>26&#45;&gt;19</title>
<g id="a_edge40"><a xlink:title="include">
<path fill="none" stroke="#1414ce" d="M637.93,-292.16C589.54,-279.75 516.54,-261.04 467.38,-248.43"/>
<polygon fill="#1414ce" stroke="#1414ce" points="468.14,-245.01 457.58,-245.92 466.4,-251.79 468.14,-245.01"/>
</a>
</g>
</g>
<!-- 26&#45;&gt;18 -->
<g id="edge37" class="edge">
<title>26&#45;&gt;18</title>
<g id="a_edge37"><a xlink:title="include">
<path fill="none" stroke="#1414ce" d="M637.78,-291.37C608.96,-282.41 572.71,-269.16 543,-252 521.42,-239.53 520.4,-230.32 500,-216 482.58,-203.77 462.18,-191.7 445.11,-182.17"/>
<polygon fill="#1414ce" stroke="#1414ce" points="446.47,-178.92 436.02,-177.16 443.09,-185.05 446.47,-178.92"/>
</a>
</g>
</g>
<!-- 26&#45;&gt;6 -->
<g id="edge35" class="edge">
<title>26&#45;&gt;6</title>
<g id="a_edge35"><a xlink:title="include">
<path fill="none" stroke="#1414ce" d="M716.28,-287.85C768.72,-256.5 885.16,-189.05 989,-144 1025.35,-128.23 1068.03,-114.01 1099.55,-104.28"/>
<polygon fill="#1414ce" stroke="#1414ce" points="1100.83,-107.55 1109.37,-101.28 1098.79,-100.85 1100.83,-107.55"/>
</a>
</g>
</g>
<!-- 26&#45;&gt;24 -->
<g id="edge39" class="edge">
<title>26&#45;&gt;24</title>
<g id="a_edge39"><a xlink:title="include">
<path fill="none" stroke="#1414ce" d="M738.45,-298.6C842.51,-285.41 1080.11,-255.28 1186.62,-241.77"/>
<polygon fill="#1414ce" stroke="#1414ce" points="1187.34,-245.21 1196.82,-240.48 1186.46,-238.26 1187.34,-245.21"/>
</a>
</g>
</g>
<!-- 26&#45;&gt;12 -->
<g id="edge36" class="edge">
<title>26&#45;&gt;12</title>
<g id="a_edge36"><a xlink:title="include">
<path fill="none" stroke="#1414ce" d="M738.26,-304.96C864.92,-304.18 1194.1,-297.67 1292,-252 1321.94,-238.04 1347.55,-209.53 1363.51,-188.52"/>
<polygon fill="#1414ce" stroke="#1414ce" points="1366.44,-190.46 1369.54,-180.33 1360.8,-186.31 1366.44,-190.46"/>
</a>
</g>
</g>
<!-- 26&#45;&gt;27 -->
<g id="edge38" class="edge">
<title>26&#45;&gt;27</title>
<g id="a_edge38"><a xlink:title="include">
<path fill="none" stroke="#1414ce" d="M665.01,-287.7C653.19,-278.8 638.61,-267.82 625.82,-258.2"/>
<polygon fill="#1414ce" stroke="#1414ce" points="627.82,-255.32 617.72,-252.1 623.61,-260.91 627.82,-255.32"/>
</a>
</g>
</g>
<!-- 21&#45;&gt;8 -->
<g id="edge42" class="edge">
<title>21&#45;&gt;8</title>
<g id="a_edge42"><a xlink:title="include">
<path fill="none" stroke="#1414ce" d="M1024.51,-431.92C1011.56,-421.59 994.77,-408.11 980,-396 960.73,-380.2 956.49,-375.53 937,-360 854.13,-293.97 840.99,-264.91 747,-216 700.62,-191.87 680.78,-205.25 635,-180 613.17,-167.96 612.92,-157.55 592,-144 573.56,-132.06 552.03,-121.04 533,-112.18"/>
<polygon fill="#1414ce" stroke="#1414ce" points="534.43,-108.98 523.88,-108.01 531.52,-115.35 534.43,-108.98"/>
</a>
</g>
</g>
<!-- 21&#45;&gt;25 -->
<g id="edge49" class="edge">
<title>21&#45;&gt;25</title>
<g id="a_edge49"><a xlink:title="include">
<path fill="none" stroke="#1414ce" d="M1013.26,-442.1C958.76,-430.61 848.5,-407.36 778.11,-392.52"/>
<polygon fill="#1414ce" stroke="#1414ce" points="778.53,-389.03 768.02,-390.39 777.08,-395.88 778.53,-389.03"/>
</a>
</g>
</g>
<!-- 21&#45;&gt;5 -->
<g id="edge47" class="edge">
<title>21&#45;&gt;5</title>
<g id="a_edge47"><a xlink:title="include">
<path fill="none" stroke="#1414ce" d="M1013.24,-433.81C991.03,-423.52 961.47,-409.81 937.46,-398.68"/>
<polygon fill="#1414ce" stroke="#1414ce" points="938.77,-395.43 928.22,-394.4 935.82,-401.78 938.77,-395.43"/>
</a>
</g>
</g>
<!-- 21&#45;&gt;9 -->
<g id="edge50" class="edge">
<title>21&#45;&gt;9</title>
<g id="a_edge50"><a xlink:title="include">
<path fill="none" stroke="#1414ce" d="M1044.99,-431.97C1042.15,-384.29 1034.12,-249.18 1030.64,-190.63"/>
<polygon fill="#1414ce" stroke="#1414ce" points="1034.12,-190.08 1030.03,-180.31 1027.13,-190.5 1034.12,-190.08"/>
</a>
</g>
</g>
<!-- 21&#45;&gt;4 -->
<g id="edge43" class="edge">
<title>21&#45;&gt;4</title>
<g id="a_edge43"><a xlink:title="include">
<path fill="none" stroke="#1414ce" d="M1041.99,-432C1026.1,-365.91 965.89,-127.05 913,-72 889.89,-47.95 854.47,-34.55 825.99,-27.24"/>
<polygon fill="#1414ce" stroke="#1414ce" points="826.78,-23.83 816.24,-24.91 825.15,-30.64 826.78,-23.83"/>
</a>
</g>
</g>
<!-- 21&#45;&gt;6 -->
<g id="edge45" class="edge">
<title>21&#45;&gt;6</title>
<g id="a_edge45"><a xlink:title="include">
<path fill="none" stroke="#1414ce" d="M1058.36,-431.91C1065.31,-421.8 1073.81,-408.55 1080,-396 1125.17,-304.47 1140.4,-280.54 1158,-180 1161.65,-159.17 1157.8,-135.47 1153.36,-117.77"/>
<polygon fill="#1414ce" stroke="#1414ce" points="1156.74,-116.84 1150.74,-108.11 1149.98,-118.68 1156.74,-116.84"/>
</a>
</g>
</g>
<!-- 21&#45;&gt;24 -->
<g id="edge48" class="edge">
<title>21&#45;&gt;24</title>
<g id="a_edge48"><a xlink:title="include">
<path fill="none" stroke="#1414ce" d="M1078.59,-442.89C1107.11,-436 1147.94,-422.15 1174,-396 1211.1,-358.77 1228.26,-297.77 1235.44,-262.51"/>
<polygon fill="#1414ce" stroke="#1414ce" points="1238.93,-262.93 1237.36,-252.45 1232.05,-261.62 1238.93,-262.93"/>
</a>
</g>
</g>
<!-- 22 -->
<g id="node21" class="node">
<title>22</title>
<g id="a_node21"><a xlink:title="sys/types.h">
<polygon fill="#ffffff" stroke="black" points="1323.5,-396 1226.5,-396 1226.5,-360 1323.5,-360 1323.5,-396"/>
<text text-anchor="middle" x="1275" y="-374.3" font-family="Times,serif" font-size="14.00">sys/types.h</text>
</a>
</g>
</g>
<!-- 21&#45;&gt;22 -->
<g id="edge41" class="edge">
<title>21&#45;&gt;22</title>
<g id="a_edge41"><a xlink:title="include">
<path fill="none" stroke="#1414ce" d="M1078.81,-438.97C1114.68,-428.01 1172.88,-410.22 1216.59,-396.85"/>
<polygon fill="#1414ce" stroke="#1414ce" points="1217.7,-400.17 1226.24,-393.9 1215.66,-393.48 1217.7,-400.17"/>
</a>
</g>
</g>
<!-- 23 -->
<g id="node22" class="node">
<title>23</title>
<g id="a_node22"><a xlink:title="string.h">
<polygon fill="#ffffff" stroke="black" points="1414.5,-396 1341.5,-396 1341.5,-360 1414.5,-360 1414.5,-396"/>
<text text-anchor="middle" x="1378" y="-374.3" font-family="Times,serif" font-size="14.00">string.h</text>
</a>
</g>
</g>
<!-- 21&#45;&gt;23 -->
<g id="edge46" class="edge">
<title>21&#45;&gt;23</title>
<g id="a_edge46"><a xlink:title="include">
<path fill="none" stroke="#1414ce" d="M1078.71,-444.9C1130.66,-437.97 1235.22,-422.33 1331.46,-396.19"/>
<polygon fill="#1414ce" stroke="#1414ce" points="1332.63,-399.5 1341.34,-393.46 1330.77,-392.75 1332.63,-399.5"/>
</a>
</g>
</g>
<!-- 21&#45;&gt;13 -->
<g id="edge51" class="edge">
<title>21&#45;&gt;13</title>
<g id="a_edge51"><a xlink:title="include">
<path fill="none" stroke="#1414ce" d="M1078.76,-449.59C1162.13,-450.31 1378.91,-447.13 1424,-396 1498.08,-311.99 1472.18,-246.49 1427,-144 1422.01,-132.69 1413.29,-122.74 1404.1,-114.62"/>
<polygon fill="#1414ce" stroke="#1414ce" points="1406.28,-111.88 1396.34,-108.23 1401.83,-117.28 1406.28,-111.88"/>
</a>
</g>
</g>
<!-- 21&#45;&gt;11 -->
<g id="edge44" class="edge">
<title>21&#45;&gt;11</title>
<g id="a_edge44"><a xlink:title="include">
<path fill="none" stroke="#1414ce" d="M1051.82,-431.9C1066.97,-384.62 1104.09,-248.73 1069,-144 1065.65,-134 1059.58,-124.38 1053.17,-116.14"/>
<polygon fill="#1414ce" stroke="#1414ce" points="1055.82,-113.85 1046.73,-108.4 1050.44,-118.33 1055.82,-113.85"/>
</a>
</g>
</g>
<!-- 12&#45;&gt;13 -->
<g id="edge52" class="edge">
<title>12&#45;&gt;13</title>
<g id="a_edge52"><a xlink:title="include">
<path fill="none" stroke="#1414ce" d="M1378.03,-143.7C1376.71,-135.98 1375.12,-126.71 1373.65,-118.11"/>
<polygon fill="#1414ce" stroke="#1414ce" points="1377.07,-117.37 1371.93,-108.1 1370.17,-118.55 1377.07,-117.37"/>
</a>
</g>
</g>
<!-- 31&#45;&gt;21 -->
<g id="edge53" class="edge">
<title>31&#45;&gt;21</title>
<g id="a_edge53"><a xlink:title="include">
<path fill="none" stroke="#1414ce" d="M987.96,-575.87C999.36,-551.35 1020.42,-506.03 1033.8,-477.26"/>
<polygon fill="#1414ce" stroke="#1414ce" points="1036.97,-478.73 1038.01,-468.19 1030.62,-475.78 1036.97,-478.73"/>
</a>
</g>
</g>
<!-- 15 -->
<g id="node19" class="node">
<title>15</title>
<g id="a_node19"><a xlink:title="limits.h">
<polygon fill="#ffffff" stroke="black" points="1306.5,-36 1235.5,-36 1235.5,0 1306.5,0 1306.5,-36"/>
<text text-anchor="middle" x="1271" y="-14.3" font-family="Times,serif" font-size="14.00">limits.h</text>
</a>
</g>
</g>
<!-- 7&#45;&gt;8 -->
<g id="edge54" class="edge">
<title>7&#45;&gt;8</title>
<g id="a_edge54"><a xlink:title="include">
<path fill="none" stroke="#1414ce" d="M645.77,-431.94C630.56,-401.31 604.25,-335.76 629,-288 641.76,-263.37 667.24,-276.63 680,-252 687.36,-237.79 689.64,-228.77 680,-216 644.93,-169.5 602.46,-212.3 554,-180 529.75,-163.84 509.89,-136.78 497.4,-116.73"/>
<polygon fill="#1414ce" stroke="#1414ce" points="500.34,-114.84 492.19,-108.07 494.35,-118.45 500.34,-114.84"/>
</a>
</g>
</g>
<!-- 7&#45;&gt;5 -->
<g id="edge55" class="edge">
<title>7&#45;&gt;5</title>
<g id="a_edge55"><a xlink:title="include">
<path fill="none" stroke="#1414ce" d="M709.83,-435.18C748.64,-425.09 801.8,-410.67 848,-396 849.42,-395.55 850.86,-395.08 852.32,-394.6"/>
<polygon fill="#1414ce" stroke="#1414ce" points="853.65,-397.85 861.99,-391.31 851.39,-391.22 853.65,-397.85"/>
</a>
</g>
</g>
<!-- 7&#45;&gt;9 -->
<g id="edge56" class="edge">
<title>7&#45;&gt;9</title>
<g id="a_edge56"><a xlink:title="include">
<path fill="none" stroke="#1414ce" d="M709.56,-437.3C740.66,-428.98 779.41,-415.73 810,-396 856.48,-366.02 963.29,-241.53 1008.35,-187.84"/>
<polygon fill="#1414ce" stroke="#1414ce" points="1011.05,-190.06 1014.79,-180.15 1005.68,-185.57 1011.05,-190.06"/>
</a>
</g>
</g>
<!-- 13&#45;&gt;14 -->
<g id="edge57" class="edge">
<title>13&#45;&gt;14</title>
<g id="a_edge57"><a xlink:title="include">
<path fill="none" stroke="#1414ce" d="M1393.46,-71.88C1406.3,-62.89 1422.2,-51.76 1436.09,-42.03"/>
<polygon fill="#1414ce" stroke="#1414ce" points="1438.26,-44.79 1444.44,-36.19 1434.24,-39.06 1438.26,-44.79"/>
</a>
</g>
</g>
<!-- 13&#45;&gt;4 -->
<g id="edge60" class="edge">
<title>13&#45;&gt;4</title>
<g id="a_edge60"><a xlink:title="include">
<path fill="none" stroke="#1414ce" d="M1306.5,-74.58C1301.61,-73.64 1296.73,-72.76 1292,-72 1121.43,-44.44 916.46,-28.28 826.34,-22.02"/>
<polygon fill="#1414ce" stroke="#1414ce" points="826.41,-18.51 816.19,-21.32 825.93,-25.5 826.41,-18.51"/>
</a>
</g>
</g>
<!-- 13&#45;&gt;15 -->
<g id="edge58" class="edge">
<title>13&#45;&gt;15</title>
<g id="a_edge58"><a xlink:title="include">
<path fill="none" stroke="#1414ce" d="M1345.03,-71.88C1332.45,-62.89 1316.87,-51.76 1303.25,-42.03"/>
<polygon fill="#1414ce" stroke="#1414ce" points="1305.24,-39.15 1295.07,-36.19 1301.17,-44.85 1305.24,-39.15"/>
</a>
</g>
</g>
<!-- 16 -->
<g id="node31" class="node">
<title>16</title>
<g id="a_node31"><a xlink:title="inttypes.h">
<polygon fill="#ffffff" stroke="black" points="1413.5,-36 1324.5,-36 1324.5,0 1413.5,0 1413.5,-36"/>
<text text-anchor="middle" x="1369" y="-14.3" font-family="Times,serif" font-size="14.00">inttypes.h</text>
</a>
</g>
</g>
<!-- 13&#45;&gt;16 -->
<g id="edge59" class="edge">
<title>13&#45;&gt;16</title>
<g id="a_edge59"><a xlink:title="include">
<path fill="none" stroke="#1414ce" d="M1369,-71.7C1369,-63.98 1369,-54.71 1369,-46.11"/>
<polygon fill="#1414ce" stroke="#1414ce" points="1372.5,-46.1 1369,-36.1 1365.5,-46.1 1372.5,-46.1"/>
</a>
</g>
</g>
<!-- 3&#45;&gt;5 -->
<g id="edge62" class="edge">
<title>3&#45;&gt;5</title>
<g id="a_edge62"><a xlink:title="include">
<path fill="none" stroke="#1414ce" d="M524.46,-575.99C552.92,-566.58 587.86,-553.97 618,-540 709.11,-497.76 809.49,-435.01 860.75,-401.7"/>
<polygon fill="#1414ce" stroke="#1414ce" points="862.68,-404.62 869.14,-396.22 858.85,-398.76 862.68,-404.62"/>
</a>
</g>
</g>
<!-- 3&#45;&gt;19 -->
<g id="edge69" class="edge">
<title>3&#45;&gt;19</title>
<g id="a_edge69"><a xlink:title="include">
<path fill="none" stroke="#1414ce" d="M438.23,-575.91C425.46,-567.02 412,-554.88 405,-540 360.84,-446.09 390.11,-317.33 406.3,-262.03"/>
<polygon fill="#1414ce" stroke="#1414ce" points="409.7,-262.87 409.24,-252.28 403,-260.84 409.7,-262.87"/>
</a>
</g>
</g>
<!-- 3&#45;&gt;18 -->
<g id="edge66" class="edge">
<title>3&#45;&gt;18</title>
<g id="a_edge66"><a xlink:title="include">
<path fill="none" stroke="#1414ce" d="M429.69,-575.87C414.57,-567.28 398.64,-555.39 389,-540 312.19,-417.37 302.26,-349.95 357,-216 361.49,-205.02 369.47,-195.08 377.85,-186.86"/>
<polygon fill="#1414ce" stroke="#1414ce" points="380.24,-189.42 385.25,-180.09 375.51,-184.26 380.24,-189.42"/>
</a>
</g>
</g>
<!-- 3&#45;&gt;4 -->
<g id="edge61" class="edge">
<title>3&#45;&gt;4</title>
<g id="a_edge61"><a xlink:title="include">
<path fill="none" stroke="#1414ce" d="M405.4,-588.01C329.41,-580.97 207.88,-566 171,-540 73.54,-471.3 38,-426.24 38,-307 38,-307 38,-307 38,-161 38,-54.7 156.78,-97.42 260,-72 431.17,-29.85 642,-21.15 733.73,-19.41"/>
<polygon fill="#1414ce" stroke="#1414ce" points="733.85,-22.91 743.79,-19.23 733.73,-15.91 733.85,-22.91"/>
</a>
</g>
</g>
<!-- 3&#45;&gt;29 -->
<g id="edge72" class="edge">
<title>3&#45;&gt;29</title>
<g id="a_edge72"><a xlink:title="include">
<path fill="none" stroke="#1414ce" d="M479.69,-575.92C503.51,-538.37 561.23,-450.53 591,-432 662.48,-387.5 723.42,-460.95 777,-396 827.82,-334.4 769.27,-234.86 736.37,-188.4"/>
<polygon fill="#1414ce" stroke="#1414ce" points="739.06,-186.15 730.36,-180.11 733.39,-190.26 739.06,-186.15"/>
</a>
</g>
</g>
<!-- 3&#45;&gt;21 -->
<g id="edge70" class="edge">
<title>3&#45;&gt;21</title>
<g id="a_edge70"><a xlink:title="include">
<path fill="none" stroke="#1414ce" d="M532.59,-585.69C580.34,-578.5 646.44,-564.86 700,-540 724.19,-528.77 723.54,-514.62 748,-504 833.48,-466.87 943.55,-455.75 1003.11,-452.42"/>
<polygon fill="#1414ce" stroke="#1414ce" points="1003.46,-455.91 1013.27,-451.9 1003.11,-448.92 1003.46,-455.91"/>
</a>
</g>
</g>
<!-- 3&#45;&gt;12 -->
<g id="edge64" class="edge">
<title>3&#45;&gt;12</title>
<g id="a_edge64"><a xlink:title="include">
<path fill="none" stroke="#1414ce" d="M532.56,-589.99C727.55,-579.28 1310.92,-535.88 1424,-396 1473.34,-334.97 1425.26,-235.5 1397.56,-188.78"/>
<polygon fill="#1414ce" stroke="#1414ce" points="1400.51,-186.89 1392.32,-180.17 1394.52,-190.53 1400.51,-186.89"/>
</a>
</g>
</g>
<!-- 3&#45;&gt;7 -->
<g id="edge63" class="edge">
<title>3&#45;&gt;7</title>
<g id="a_edge63"><a xlink:title="include">
<path fill="none" stroke="#1414ce" d="M520.68,-575.9C542.22,-567.23 566.66,-555.27 586,-540 608.25,-522.43 627.44,-496.2 639.89,-476.77"/>
<polygon fill="#1414ce" stroke="#1414ce" points="642.97,-478.44 645.28,-468.1 637.03,-474.74 642.97,-478.44"/>
</a>
</g>
</g>
<!-- 3&#45;&gt;20 -->
<g id="edge68" class="edge">
<title>3&#45;&gt;20</title>
<g id="a_edge68"><a xlink:title="include">
<path fill="none" stroke="#1414ce" d="M418.83,-575.91C399.79,-567.47 379.09,-555.66 364,-540 339.58,-514.64 341.32,-501.66 331,-468 300.75,-369.31 300.27,-244.91 301.81,-190.54"/>
<polygon fill="#1414ce" stroke="#1414ce" points="305.32,-190.44 302.15,-180.33 298.32,-190.21 305.32,-190.44"/>
</a>
</g>
</g>
<!-- 3&#45;&gt;28 -->
<g id="edge71" class="edge">
<title>3&#45;&gt;28</title>
<g id="a_edge71"><a xlink:title="include">
<path fill="none" stroke="#1414ce" d="M405.31,-591.29C314.33,-585.08 158,-558.73 158,-451 158,-451 158,-451 158,-377 158,-335.29 140.8,-289.54 128.16,-261.54"/>
<polygon fill="#1414ce" stroke="#1414ce" points="131.3,-260.01 123.91,-252.42 124.95,-262.96 131.3,-260.01"/>
</a>
</g>
</g>
<!-- 3&#45;&gt;27 -->
<g id="edge67" class="edge">
<title>3&#45;&gt;27</title>
<g id="a_edge67"><a xlink:title="include">
<path fill="none" stroke="#1414ce" d="M474.46,-575.71C482.35,-549.18 496,-496.67 496,-451 496,-451 496,-451 496,-377 496,-336.03 496.55,-321.59 520,-288 528.37,-276.01 540.38,-265.8 552.33,-257.65"/>
<polygon fill="#1414ce" stroke="#1414ce" points="554.47,-260.43 560.98,-252.07 550.68,-254.55 554.47,-260.43"/>
</a>
</g>
</g>
<!-- 17 -->
<g id="node30" class="node">
<title>17</title>
<g id="a_node30"><a xlink:title="ets.h">
<polygon fill="#ffffff" stroke="black" points="468,-540 414,-540 414,-504 468,-504 468,-540"/>
<text text-anchor="middle" x="441" y="-518.3" font-family="Times,serif" font-size="14.00">ets.h</text>
</a>
</g>
</g>
<!-- 3&#45;&gt;17 -->
<g id="edge65" class="edge">
<title>3&#45;&gt;17</title>
<g id="a_edge65"><a xlink:title="include">
<path fill="none" stroke="#1414ce" d="M462.08,-575.7C458.93,-567.81 455.12,-558.3 451.62,-549.55"/>
<polygon fill="#1414ce" stroke="#1414ce" points="454.81,-548.09 447.84,-540.1 448.31,-550.69 454.81,-548.09"/>
</a>
</g>
</g>
<!-- 20&#45;&gt;8 -->
<g id="edge73" class="edge">
<title>20&#45;&gt;8</title>
<g id="a_edge73"><a xlink:title="include">
<path fill="none" stroke="#1414ce" d="M333.13,-149.28C359.97,-138.84 399.83,-123.34 431.69,-110.95"/>
<polygon fill="#1414ce" stroke="#1414ce" points="433.25,-114.1 441.3,-107.22 430.71,-107.58 433.25,-114.1"/>
</a>
</g>
</g>
<!-- 1 -->
<g id="node26" class="node">
<title>1</title>
<g id="a_node26"><a xlink:title="/__w/AtomVM/AtomVM/src/libAtomVM/stacktrace.h">
<polygon fill="#bfbfbf" stroke="black" points="937.5,-828 556.5,-828 556.5,-792 937.5,-792 937.5,-828"/>
<text text-anchor="middle" x="747" y="-806.3" font-family="Times,serif" font-size="14.00">/__w/AtomVM/AtomVM/src/libAtomVM/stacktrace.h</text>
</a>
</g>
</g>
<!-- 1&#45;&gt;2 -->
<g id="edge74" class="edge">
<title>1&#45;&gt;2</title>
<g id="a_edge74"><a xlink:title="include">
<path fill="none" stroke="#1414ce" d="M703.45,-791.87C636.56,-765.56 508.78,-715.3 437.43,-687.23"/>
<polygon fill="#1414ce" stroke="#1414ce" points="438.33,-683.82 427.75,-683.42 435.77,-690.34 438.33,-683.82"/>
</a>
</g>
</g>
<!-- 1&#45;&gt;30 -->
<g id="edge75" class="edge">
<title>1&#45;&gt;30</title>
<g id="a_edge75"><a xlink:title="include">
<path fill="none" stroke="#1414ce" d="M747,-791.7C747,-783.98 747,-774.71 747,-766.11"/>
<polygon fill="#1414ce" stroke="#1414ce" points="750.5,-766.1 747,-756.1 743.5,-766.1 750.5,-766.1"/>
</a>
</g>
</g>
<!-- 1&#45;&gt;21 -->
<g id="edge76" class="edge">
<title>1&#45;&gt;21</title>
<g id="a_edge76"><a xlink:title="include">
<path fill="none" stroke="#1414ce" d="M937.66,-794.46C1013.91,-777.17 1084,-741.12 1084,-667 1084,-667 1084,-667 1084,-593 1084,-551.63 1068.77,-505.72 1057.59,-477.61"/>
<polygon fill="#1414ce" stroke="#1414ce" points="1060.72,-476.02 1053.69,-468.09 1054.24,-478.67 1060.72,-476.02"/>
</a>
</g>
</g>
<!-- 28&#45;&gt;8 -->
<g id="edge77" class="edge">
<title>28&#45;&gt;8</title>
<g id="a_edge77"><a xlink:title="include">
<path fill="none" stroke="#1414ce" d="M138.6,-215.82C167.03,-195.88 216.86,-163.26 264,-144 319.21,-121.44 386.34,-106.95 431.61,-98.92"/>
<polygon fill="#1414ce" stroke="#1414ce" points="432.23,-102.37 441.49,-97.21 431.04,-95.47 432.23,-102.37"/>
</a>
</g>
</g>
<!-- 28&#45;&gt;18 -->
<g id="edge79" class="edge">
<title>28&#45;&gt;18</title>
<g id="a_edge79"><a xlink:title="include">
<path fill="none" stroke="#1414ce" d="M164.22,-221.79C210.24,-211.25 280.86,-194.89 342,-180 351.78,-177.62 362.34,-174.97 372.12,-172.49"/>
<polygon fill="#1414ce" stroke="#1414ce" points="373.14,-175.84 381.97,-169.98 371.42,-169.06 373.14,-175.84"/>
</a>
</g>
</g>
<!-- 28&#45;&gt;4 -->
<g id="edge78" class="edge">
<title>28&#45;&gt;4</title>
<g id="a_edge78"><a xlink:title="include">
<path fill="none" stroke="#1414ce" d="M125.79,-215.66C139.16,-195.56 163.8,-162.79 193,-144 368.34,-31.14 628.27,-18.35 733.38,-18.14"/>
<polygon fill="#1414ce" stroke="#1414ce" points="733.64,-21.64 743.65,-18.16 733.66,-14.64 733.64,-21.64"/>
</a>
</g>
</g>
<!-- 27&#45;&gt;8 -->
<g id="edge80" class="edge">
<title>27&#45;&gt;8</title>
<g id="a_edge80"><a xlink:title="include">
<path fill="none" stroke="#1414ce" d="M551.92,-216.85C525.7,-206.09 495.8,-191.81 488,-180 476.11,-161.99 475.69,-137.21 477.77,-118.36"/>
<polygon fill="#1414ce" stroke="#1414ce" points="481.26,-118.7 479.17,-108.32 474.32,-117.74 481.26,-118.7"/>
</a>
</g>
</g>
<!-- 27&#45;&gt;9 -->
<g id="edge83" class="edge">
<title>27&#45;&gt;9</title>
<g id="a_edge83"><a xlink:title="include">
<path fill="none" stroke="#1414ce" d="M638.2,-230.31C710.64,-225.09 860.78,-211.24 984,-180 985.28,-179.68 986.56,-179.33 987.86,-178.96"/>
<polygon fill="#1414ce" stroke="#1414ce" points="989.34,-182.16 997.82,-175.81 987.23,-175.49 989.34,-182.16"/>
</a>
</g>
</g>
<!-- 27&#45;&gt;18 -->
<g id="edge81" class="edge">
<title>27&#45;&gt;18</title>
<g id="a_edge81"><a xlink:title="include">
<path fill="none" stroke="#1414ce" d="M551.99,-217.82C523.05,-207.48 484.09,-193.29 450,-180 448.61,-179.46 447.19,-178.9 445.77,-178.33"/>
<polygon fill="#1414ce" stroke="#1414ce" points="446.86,-175 436.28,-174.5 444.24,-181.49 446.86,-175"/>
</a>
</g>
</g>
<!-- 27&#45;&gt;13 -->
<g id="edge82" class="edge">
<title>27&#45;&gt;13</title>
<g id="a_edge82"><a xlink:title="include">
<path fill="none" stroke="#1414ce" d="M638.25,-224.96C689.81,-215.18 778.5,-197.78 854,-180 914.44,-165.77 928.14,-156.31 989,-144 1095.07,-122.54 1219.54,-106.98 1296.35,-98.46"/>
<polygon fill="#1414ce" stroke="#1414ce" points="1296.84,-101.93 1306.4,-97.36 1296.08,-94.97 1296.84,-101.93"/>
</a>
</g>
</g>
<!-- 17&#45;&gt;19 -->
<g id="edge85" class="edge">
<title>17&#45;&gt;19</title>
<g id="a_edge85"><a xlink:title="include">
<path fill="none" stroke="#1414ce" d="M439.45,-503.97C435.11,-456.19 422.78,-320.62 417.48,-262.27"/>
<polygon fill="#1414ce" stroke="#1414ce" points="420.96,-261.95 416.57,-252.31 413.99,-262.58 420.96,-261.95"/>
</a>
</g>
</g>
<!-- 17&#45;&gt;18 -->
<g id="edge84" class="edge">
<title>17&#45;&gt;18</title>
<g id="a_edge84"><a xlink:title="include">
<path fill="none" stroke="#1414ce" d="M432.73,-503.84C416.96,-470.24 382.86,-393 368,-324 361.25,-292.64 364.11,-284.06 363,-252 362.45,-236.01 357.4,-230.99 363,-216 366.88,-205.62 373.8,-195.93 381.12,-187.74"/>
<polygon fill="#1414ce" stroke="#1414ce" points="383.78,-190.03 388.18,-180.38 378.73,-185.18 383.78,-190.03"/>
</a>
</g>
</g>
<!-- 17&#45;&gt;21 -->
<g id="edge86" class="edge">
<title>17&#45;&gt;21</title>
<g id="a_edge86"><a xlink:title="include">
<path fill="none" stroke="#1414ce" d="M468.17,-517.86C563.92,-506.78 886.16,-469.49 1003.13,-455.96"/>
<polygon fill="#1414ce" stroke="#1414ce" points="1003.61,-459.43 1013.14,-454.8 1002.81,-452.47 1003.61,-459.43"/>
</a>
</g>
</g>
</g>
</svg>
