<?xml version="1.0" encoding="UTF-8" standalone="no"?>
<!DOCTYPE svg PUBLIC "-//W3C//DTD SVG 1.1//EN"
 "http://www.w3.org/Graphics/SVG/1.1/DTD/svg11.dtd">
<!-- Generated by graphviz version 2.43.0 (0)
 -->
<!-- Title: %3 Pages: 1 -->
<svg width="3803pt" height="116pt"
 viewBox="0.00 0.00 3802.50 116.00" xmlns="http://www.w3.org/2000/svg" xmlns:xlink="http://www.w3.org/1999/xlink">
<g id="graph0" class="graph" transform="scale(1 1) rotate(0) translate(4 112)">
<title>%3</title>
<polygon fill="transparent" stroke="transparent" points="-4,4 -4,-112 3798.5,-112 3798.5,4 -4,4"/>
<!-- 11 -->
<g id="node1" class="node">
<title>11</title>
<g id="a_node1"><a xlink:title="/__w/AtomVM/AtomVM/src/libAtomVM/refc_binary.c">
<polygon fill="#ffffff" stroke="black" points="383,-36 0,-36 0,0 383,0 383,-36"/>
<text text-anchor="middle" x="191.5" y="-14.3" font-family="Times,serif" font-size="14.00">/__w/AtomVM/AtomVM/src/libAtomVM/refc_binary.c</text>
</a>
</g>
</g>
<!-- 4 -->
<g id="node2" class="node">
<title>4</title>
<g id="a_node2"><a xlink:title="/__w/AtomVM/AtomVM/src/libAtomVM/jit.c">
<polygon fill="#ffffff" stroke="black" points="721.5,-36 401.5,-36 401.5,0 721.5,0 721.5,-36"/>
<text text-anchor="middle" x="561.5" y="-14.3" font-family="Times,serif" font-size="14.00">/__w/AtomVM/AtomVM/src/libAtomVM/jit.c</text>
</a>
</g>
</g>
<!-- 2 -->
<g id="node3" class="node">
<title>2</title>
<g id="a_node3"><a xlink:title="/__w/AtomVM/AtomVM/src/libAtomVM/bif.c">
<polygon fill="#ffffff" stroke="black" points="1063,-36 740,-36 740,0 1063,0 1063,-36"/>
<text text-anchor="middle" x="901.5" y="-14.3" font-family="Times,serif" font-size="14.00">/__w/AtomVM/AtomVM/src/libAtomVM/bif.c</text>
</a>
</g>
</g>
<!-- 7 -->
<g id="node4" class="node">
<title>7</title>
<g id="a_node4"><a xlink:title="/__w/AtomVM/AtomVM/src/libAtomVM/otp_crypto.c">
<polygon fill="#ffffff" stroke="black" points="1462,-36 1081,-36 1081,0 1462,0 1462,-36"/>
<text text-anchor="middle" x="1271.5" y="-14.3" font-family="Times,serif" font-size="14.00">/__w/AtomVM/AtomVM/src/libAtomVM/otp_crypto.c</text>
</a>
</g>
</g>
<!-- 3 -->
<g id="node5" class="node">
<title>3</title>
<g id="a_node5"><a xlink:title="/__w/AtomVM/AtomVM/src/libAtomVM/ets_hashtable.c">
<polygon fill="#ffffff" stroke="black" points="1884.5,-36 1480.5,-36 1480.5,0 1884.5,0 1884.5,-36"/>
<text text-anchor="middle" x="1682.5" y="-14.3" font-family="Times,serif" font-size="14.00">/__w/AtomVM/AtomVM/src/libAtomVM/ets_hashtable.c</text>
</a>
</g>
</g>
<!-- 6 -->
<g id="node6" class="node">
<title>6</title>
<g id="a_node6"><a xlink:title="/__w/AtomVM/AtomVM/src/libAtomVM/memory.c">
<polygon fill="#ffffff" stroke="black" points="2264.5,-36 1902.5,-36 1902.5,0 2264.5,0 2264.5,-36"/>
<text text-anchor="middle" x="2083.5" y="-14.3" font-family="Times,serif" font-size="14.00">/__w/AtomVM/AtomVM/src/libAtomVM/memory.c</text>
</a>
</g>
</g>
<!-- 8 -->
<g id="node7" class="node">
<title>8</title>
<g id="a_node7"><a xlink:title="/__w/AtomVM/AtomVM/src/libAtomVM/otp_net.c">
<polygon fill="#ffffff" stroke="black" points="2642,-36 2283,-36 2283,0 2642,0 2642,-36"/>
<text text-anchor="middle" x="2462.5" y="-14.3" font-family="Times,serif" font-size="14.00">/__w/AtomVM/AtomVM/src/libAtomVM/otp_net.c</text>
</a>
</g>
</g>
<!-- 9 -->
<g id="node8" class="node">
<title>9</title>
<g id="a_node8"><a xlink:title="/__w/AtomVM/AtomVM/src/libAtomVM/otp_socket.c">
<polygon fill="#ffffff" stroke="black" points="3041,-36 2660,-36 2660,0 3041,0 3041,-36"/>
<text text-anchor="middle" x="2850.5" y="-14.3" font-family="Times,serif" font-size="14.00">/__w/AtomVM/AtomVM/src/libAtomVM/otp_socket.c</text>
</a>
</g>
</g>
<!-- 10 -->
<g id="node9" class="node">
<title>10</title>
<g id="a_node9"><a xlink:title="/__w/AtomVM/AtomVM/src/libAtomVM/otp_ssl.c">
<polygon fill="#ffffff" stroke="black" points="3414,-36 3059,-36 3059,0 3414,0 3414,-36"/>
<text text-anchor="middle" x="3236.5" y="-14.3" font-family="Times,serif" font-size="14.00">/__w/AtomVM/AtomVM/src/libAtomVM/otp_ssl.c</text>
</a>
</g>
</g>
<!-- 5 -->
<g id="node10" class="node">
<title>5</title>
<g id="a_node10"><a xlink:title="/__w/AtomVM/AtomVM/src/libAtomVM/mailbox.c">
<polygon fill="#ffffff" stroke="black" points="3794.5,-36 3432.5,-36 3432.5,0 3794.5,0 3794.5,-36"/>
<text text-anchor="middle" x="3613.5" y="-14.3" font-family="Times,serif" font-size="14.00">/__w/AtomVM/AtomVM/src/libAtomVM/mailbox.c</text>
</a>
</g>
</g>
<!-- 1 -->
<g id="node11" class="node">
<title>1</title>
<g id="a_node11"><a xlink:title="/__w/AtomVM/AtomVM/src/libAtomVM/trace.h">
<polygon fill="#bfbfbf" stroke="black" points="2054.5,-108 1710.5,-108 1710.5,-72 2054.5,-72 2054.5,-108"/>
<text text-anchor="middle" x="1882.5" y="-86.3" font-family="Times,serif" font-size="14.00">/__w/AtomVM/AtomVM/src/libAtomVM/trace.h</text>
</a>
</g>
</g>
<!-- 1&#45;&gt;11 -->
<g id="edge10" class="edge">
<title>1&#45;&gt;11</title>
<g id="a_edge10"><a xlink:title="include">
<path fill="none" stroke="#1414ce" d="M1700,-85.38C1418.97,-79.15 863.39,-64.27 392.5,-36 389.44,-35.82 386.36,-35.63 383.25,-35.43"/>
<polygon fill="#1414ce" stroke="#1414ce" points="1700.22,-88.88 1710.29,-85.6 1700.37,-81.88 1700.22,-88.88"/>
</a>
</g>
</g>
<!-- 1&#45;&gt;4 -->
<g id="edge3" class="edge">
<title>1&#45;&gt;4</title>
<g id="a_edge3"><a xlink:title="include">
<path fill="none" stroke="#1414ce" d="M1700.07,-83.66C1472.78,-76.31 1072.6,-61.06 730.5,-36 727.56,-35.78 724.59,-35.56 721.6,-35.33"/>
<polygon fill="#1414ce" stroke="#1414ce" points="1699.98,-87.16 1710.09,-83.99 1700.21,-80.17 1699.98,-87.16"/>
</a>
</g>
</g>
<!-- 1&#45;&gt;2 -->
<g id="edge1" class="edge">
<title>1&#45;&gt;2</title>
<g id="a_edge1"><a xlink:title="include">
<path fill="none" stroke="#1414ce" d="M1700.1,-78.88C1535.65,-69.32 1287.23,-53.83 1071.5,-36 1068.69,-35.77 1065.86,-35.53 1063,-35.29"/>
<polygon fill="#1414ce" stroke="#1414ce" points="1700.14,-82.39 1710.32,-79.47 1700.54,-75.4 1700.14,-82.39"/>
</a>
</g>
</g>
<!-- 1&#45;&gt;7 -->
<g id="edge6" class="edge">
<title>1&#45;&gt;7</title>
<g id="a_edge6"><a xlink:title="include">
<path fill="none" stroke="#1414ce" d="M1723.66,-70.8C1629.9,-60.06 1511.97,-46.55 1420.06,-36.02"/>
<polygon fill="#1414ce" stroke="#1414ce" points="1723.48,-74.3 1733.81,-71.97 1724.28,-67.35 1723.48,-74.3"/>
</a>
</g>
</g>
<!-- 1&#45;&gt;3 -->
<g id="edge2" class="edge">
<title>1&#45;&gt;3</title>
<g id="a_edge2"><a xlink:title="include">
<path fill="none" stroke="#1414ce" d="M1824.09,-68.56C1794.66,-58.25 1759.37,-45.9 1731.39,-36.11"/>
<polygon fill="#1414ce" stroke="#1414ce" points="1823.24,-71.97 1833.83,-71.97 1825.55,-65.36 1823.24,-71.97"/>
</a>
</g>
</g>
<!-- 1&#45;&gt;6 -->
<g id="edge5" class="edge">
<title>1&#45;&gt;6</title>
<g id="a_edge5"><a xlink:title="include">
<path fill="none" stroke="#1414ce" d="M1941.2,-68.56C1970.78,-58.25 2006.25,-45.9 2034.37,-36.11"/>
<polygon fill="#1414ce" stroke="#1414ce" points="1939.71,-65.37 1931.41,-71.97 1942.01,-71.98 1939.71,-65.37"/>
</a>
</g>
</g>
<!-- 1&#45;&gt;8 -->
<g id="edge7" class="edge">
<title>1&#45;&gt;8</title>
<g id="a_edge7"><a xlink:title="include">
<path fill="none" stroke="#1414ce" d="M2033.82,-70.74C2122.74,-60.01 2234.41,-46.53 2321.48,-36.02"/>
<polygon fill="#1414ce" stroke="#1414ce" points="2033.15,-67.29 2023.64,-71.97 2033.99,-74.24 2033.15,-67.29"/>
</a>
</g>
</g>
<!-- 1&#45;&gt;9 -->
<g id="edge8" class="edge">
<title>1&#45;&gt;9</title>
<g id="a_edge8"><a xlink:title="include">
<path fill="none" stroke="#1414ce" d="M2064.9,-77.27C2220.75,-67.05 2450.93,-51.48 2651.5,-36 2654.27,-35.79 2657.05,-35.57 2659.86,-35.35"/>
<polygon fill="#1414ce" stroke="#1414ce" points="2064.49,-73.79 2054.74,-77.94 2064.95,-80.78 2064.49,-73.79"/>
</a>
</g>
</g>
<!-- 1&#45;&gt;10 -->
<g id="edge9" class="edge">
<title>1&#45;&gt;10</title>
<g id="a_edge9"><a xlink:title="include">
<path fill="none" stroke="#1414ce" d="M2064.95,-83.31C2294.92,-75.54 2702.29,-59.8 3050.5,-36 3053.25,-35.81 3056.02,-35.62 3058.81,-35.42"/>
<polygon fill="#1414ce" stroke="#1414ce" points="2064.69,-79.82 2054.81,-83.65 2064.93,-86.81 2064.69,-79.82"/>
</a>
</g>
</g>
<!-- 1&#45;&gt;5 -->
<g id="edge4" class="edge">
<title>1&#45;&gt;5</title>
<g id="a_edge4"><a xlink:title="include">
<path fill="none" stroke="#1414ce" d="M2064.67,-85.97C2353.19,-80.44 2932.86,-66.36 3423.5,-36 3426.47,-35.82 3429.48,-35.62 3432.5,-35.42"/>
<polygon fill="#1414ce" stroke="#1414ce" points="2064.47,-82.47 2054.53,-86.16 2064.6,-89.47 2064.47,-82.47"/>
</a>
</g>
</g>
</g>
</svg>
