<?xml version="1.0" encoding="UTF-8" standalone="no"?>
<!DOCTYPE svg PUBLIC "-//W3C//DTD SVG 1.1//EN"
 "http://www.w3.org/Graphics/SVG/1.1/DTD/svg11.dtd">
<!-- Generated by graphviz version 2.43.0 (0)
 -->
<!-- Title: %3 Pages: 1 -->
<svg width="1839pt" height="836pt"
 viewBox="0.00 0.00 1838.86 836.00" xmlns="http://www.w3.org/2000/svg" xmlns:xlink="http://www.w3.org/1999/xlink">
<g id="graph0" class="graph" transform="scale(1 1) rotate(0) translate(4 832)">
<title>%3</title>
<polygon fill="transparent" stroke="transparent" points="-4,4 -4,-832 1834.86,-832 1834.86,4 -4,4"/>
<!-- 2 -->
<g id="node1" class="node">
<title>2</title>
<g id="a_node1"><a xlink:title="stdbool.h">
<polygon fill="#ffffff" stroke="black" points="530.5,-108 447.5,-108 447.5,-72 530.5,-72 530.5,-108"/>
<text text-anchor="middle" x="489" y="-86.3" font-family="Times,serif" font-size="14.00">stdbool.h</text>
</a>
</g>
</g>
<!-- 32 -->
<g id="node2" class="node">
<title>32</title>
<g id="a_node2"><a xlink:title="erl_nif_priv.h">
<polygon fill="#ffffff" stroke="black" points="1138,-756 1030,-756 1030,-720 1138,-720 1138,-756"/>
<text text-anchor="middle" x="1084" y="-734.3" font-family="Times,serif" font-size="14.00">erl_nif_priv.h</text>
</a>
</g>
</g>
<!-- 6 -->
<g id="node12" class="node">
<title>6</title>
<g id="a_node12"><a xlink:title="context.h">
<polygon fill="#ffffff" stroke="black" points="605.5,-684 522.5,-684 522.5,-648 605.5,-648 605.5,-684"/>
<text text-anchor="middle" x="564" y="-662.3" font-family="Times,serif" font-size="14.00">context.h</text>
</a>
</g>
</g>
<!-- 32&#45;&gt;6 -->
<g id="edge1" class="edge">
<title>32&#45;&gt;6</title>
<g id="a_edge1"><a xlink:title="include">
<path fill="none" stroke="#1414ce" d="M1029.82,-729.71C929.2,-716.16 714.74,-687.29 615.88,-673.98"/>
<polygon fill="#1414ce" stroke="#1414ce" points="616.21,-670.5 605.83,-672.63 615.27,-677.43 616.21,-670.5"/>
</a>
</g>
</g>
<!-- 24 -->
<g id="node14" class="node">
<title>24</title>
<g id="a_node14"><a xlink:title="memory.h">
<polygon fill="#ffffff" stroke="black" points="1440,-252 1354,-252 1354,-216 1440,-216 1440,-252"/>
<text text-anchor="middle" x="1397" y="-230.3" font-family="Times,serif" font-size="14.00">memory.h</text>
</a>
</g>
</g>
<!-- 32&#45;&gt;24 -->
<g id="edge2" class="edge">
<title>32&#45;&gt;24</title>
<g id="a_edge2"><a xlink:title="include">
<path fill="none" stroke="#1414ce" d="M1115.44,-719.97C1190.45,-677.28 1378.88,-557.47 1449,-396 1469.11,-349.7 1438.79,-293.01 1416.68,-260.75"/>
<polygon fill="#1414ce" stroke="#1414ce" points="1419.35,-258.46 1410.71,-252.32 1413.64,-262.51 1419.35,-258.46"/>
</a>
</g>
</g>
<!-- 26 -->
<g id="node16" class="node">
<title>26</title>
<g id="a_node16"><a xlink:title="resources.h">
<polygon fill="#ffffff" stroke="black" points="958,-324 858,-324 858,-288 958,-288 958,-324"/>
<text text-anchor="middle" x="908" y="-302.3" font-family="Times,serif" font-size="14.00">resources.h</text>
</a>
</g>
</g>
<!-- 32&#45;&gt;26 -->
<g id="edge3" class="edge">
<title>32&#45;&gt;26</title>
<g id="a_edge3"><a xlink:title="include">
<path fill="none" stroke="#1414ce" d="M1076.99,-719.88C1049.89,-653.67 951.84,-414.11 918.89,-333.6"/>
<polygon fill="#1414ce" stroke="#1414ce" points="922.06,-332.1 915.03,-324.17 915.58,-334.75 922.06,-332.1"/>
</a>
</g>
</g>
<!-- 25 -->
<g id="node3" class="node">
<title>25</title>
<g id="a_node3"><a xlink:title="refc_binary.h">
<polygon fill="#ffffff" stroke="black" points="890,-396 782,-396 782,-360 890,-360 890,-396"/>
<text text-anchor="middle" x="836" y="-374.3" font-family="Times,serif" font-size="14.00">refc_binary.h</text>
</a>
</g>
</g>
<!-- 25&#45;&gt;2 -->
<g id="edge4" class="edge">
<title>25&#45;&gt;2</title>
<g id="a_edge4"><a xlink:title="include">
<path fill="none" stroke="#1414ce" d="M832.31,-359.82C824.33,-326.89 802.34,-254.73 756,-216 711.96,-179.2 681.79,-208.54 632,-180 611.82,-168.43 613.03,-157.38 594,-144 576.93,-132 556.76,-121.13 538.68,-112.41"/>
<polygon fill="#1414ce" stroke="#1414ce" points="539.98,-109.15 529.45,-108.05 536.99,-115.48 539.98,-109.15"/>
</a>
</g>
</g>
<!-- 19 -->
<g id="node9" class="node">
<title>19</title>
<g id="a_node9"><a xlink:title="list.h">
<polygon fill="#ffffff" stroke="black" points="480,-180 426,-180 426,-144 480,-144 480,-180"/>
<text text-anchor="middle" x="453" y="-158.3" font-family="Times,serif" font-size="14.00">list.h</text>
</a>
</g>
</g>
<!-- 25&#45;&gt;19 -->
<g id="edge6" class="edge">
<title>25&#45;&gt;19</title>
<g id="a_edge6"><a xlink:title="include">
<path fill="none" stroke="#1414ce" d="M788.16,-359.97C762.27,-350.29 729.96,-337.43 702,-324 643.86,-296.07 627.78,-290.45 576,-252 557.32,-238.13 556.41,-230.23 538,-216 522.7,-204.18 504.66,-192.63 489.14,-183.34"/>
<polygon fill="#1414ce" stroke="#1414ce" points="490.73,-180.22 480.34,-178.15 487.17,-186.25 490.73,-180.22"/>
</a>
</g>
</g>
<!-- 4 -->
<g id="node11" class="node">
<title>4</title>
<g id="a_node11"><a xlink:title="stdlib.h">
<polygon fill="#ffffff" stroke="black" points="1247.5,-108 1176.5,-108 1176.5,-72 1247.5,-72 1247.5,-108"/>
<text text-anchor="middle" x="1212" y="-86.3" font-family="Times,serif" font-size="14.00">stdlib.h</text>
</a>
</g>
</g>
<!-- 25&#45;&gt;4 -->
<g id="edge5" class="edge">
<title>25&#45;&gt;4</title>
<g id="a_edge5"><a xlink:title="include">
<path fill="none" stroke="#1414ce" d="M884.97,-359.9C910.05,-350.47 940.75,-337.87 967,-324 1061.93,-273.82 1092.07,-262.33 1161,-180 1177.06,-160.81 1190.86,-135.88 1200.03,-117.28"/>
<polygon fill="#1414ce" stroke="#1414ce" points="1203.22,-118.73 1204.4,-108.2 1196.91,-115.7 1203.22,-118.73"/>
</a>
</g>
</g>
<!-- 25&#45;&gt;26 -->
<g id="edge7" class="edge">
<title>25&#45;&gt;26</title>
<g id="a_edge7"><a xlink:title="include">
<path fill="none" stroke="#1414ce" d="M853.8,-359.7C862.6,-351.14 873.38,-340.66 883,-331.3"/>
<polygon fill="#1414ce" stroke="#1414ce" points="885.68,-333.58 890.41,-324.1 880.8,-328.57 885.68,-333.58"/>
</a>
</g>
</g>
<!-- 9 -->
<g id="node4" class="node">
<title>9</title>
<g id="a_node4"><a xlink:title="atom.h">
<polygon fill="#ffffff" stroke="black" points="1108,-180 1042,-180 1042,-144 1108,-144 1108,-180"/>
<text text-anchor="middle" x="1075" y="-158.3" font-family="Times,serif" font-size="14.00">atom.h</text>
</a>
</g>
</g>
<!-- 8 -->
<g id="node10" class="node">
<title>8</title>
<g id="a_node10"><a xlink:title="stdint.h">
<polygon fill="#ffffff" stroke="black" points="1111,-36 1039,-36 1039,0 1111,0 1111,-36"/>
<text text-anchor="middle" x="1075" y="-14.3" font-family="Times,serif" font-size="14.00">stdint.h</text>
</a>
</g>
</g>
<!-- 9&#45;&gt;8 -->
<g id="edge8" class="edge">
<title>9&#45;&gt;8</title>
<g id="a_edge8"><a xlink:title="include">
<path fill="none" stroke="#1414ce" d="M1075,-143.87C1075,-119.67 1075,-75.21 1075,-46.39"/>
<polygon fill="#1414ce" stroke="#1414ce" points="1078.5,-46.19 1075,-36.19 1071.5,-46.19 1078.5,-46.19"/>
</a>
</g>
</g>
<!-- 9&#45;&gt;4 -->
<g id="edge9" class="edge">
<title>9&#45;&gt;4</title>
<g id="a_edge9"><a xlink:title="include">
<path fill="none" stroke="#1414ce" d="M1108.16,-144.05C1126.62,-134.62 1149.79,-122.78 1169.56,-112.68"/>
<polygon fill="#1414ce" stroke="#1414ce" points="1171.35,-115.7 1178.67,-108.03 1168.17,-109.46 1171.35,-115.7"/>
</a>
</g>
</g>
<!-- 15 -->
<g id="node5" class="node">
<title>15</title>
<g id="a_node5"><a xlink:title="assert.h">
<polygon fill="#ffffff" stroke="black" points="1492,-36 1418,-36 1418,0 1492,0 1492,-36"/>
<text text-anchor="middle" x="1455" y="-14.3" font-family="Times,serif" font-size="14.00">assert.h</text>
</a>
</g>
</g>
<!-- 31 -->
<g id="node6" class="node">
<title>31</title>
<g id="a_node6"><a xlink:title="dictionary.h">
<polygon fill="#ffffff" stroke="black" points="964,-540 864,-540 864,-504 964,-504 964,-540"/>
<text text-anchor="middle" x="914" y="-518.3" font-family="Times,serif" font-size="14.00">dictionary.h</text>
</a>
</g>
</g>
<!-- 31&#45;&gt;19 -->
<g id="edge10" class="edge">
<title>31&#45;&gt;19</title>
<g id="a_edge10"><a xlink:title="include">
<path fill="none" stroke="#1414ce" d="M884.76,-503.72C818.89,-464.05 655.47,-361.4 538,-252 521.89,-237 519.19,-231.93 504,-216 495.14,-206.71 485.37,-196.54 476.78,-187.61"/>
<polygon fill="#1414ce" stroke="#1414ce" points="479.04,-184.92 469.58,-180.15 474,-189.78 479.04,-184.92"/>
</a>
</g>
</g>
<!-- 22 -->
<g id="node17" class="node">
<title>22</title>
<g id="a_node17"><a xlink:title="term.h">
<polygon fill="#ffffff" stroke="black" points="1103.5,-468 1038.5,-468 1038.5,-432 1103.5,-432 1103.5,-468"/>
<text text-anchor="middle" x="1071" y="-446.3" font-family="Times,serif" font-size="14.00">term.h</text>
</a>
</g>
</g>
<!-- 31&#45;&gt;22 -->
<g id="edge11" class="edge">
<title>31&#45;&gt;22</title>
<g id="a_edge11"><a xlink:title="include">
<path fill="none" stroke="#1414ce" d="M952.41,-503.88C975.65,-493.51 1005.3,-480.29 1029.14,-469.66"/>
<polygon fill="#1414ce" stroke="#1414ce" points="1030.59,-472.85 1038.3,-465.58 1027.74,-466.46 1030.59,-472.85"/>
</a>
</g>
</g>
<!-- 11 -->
<g id="node7" class="node">
<title>11</title>
<g id="a_node7"><a xlink:title="utils.h">
<polygon fill="#ffffff" stroke="black" points="1024,-180 962,-180 962,-144 1024,-144 1024,-180"/>
<text text-anchor="middle" x="993" y="-158.3" font-family="Times,serif" font-size="14.00">utils.h</text>
</a>
</g>
</g>
<!-- 11&#45;&gt;4 -->
<g id="edge14" class="edge">
<title>11&#45;&gt;4</title>
<g id="a_edge14"><a xlink:title="include">
<path fill="none" stroke="#1414ce" d="M1024.31,-147.29C1027.23,-146.14 1030.16,-145.02 1033,-144 1077.75,-127.93 1129.99,-112.87 1166.45,-102.94"/>
<polygon fill="#1414ce" stroke="#1414ce" points="1167.55,-106.27 1176.29,-100.28 1165.73,-99.51 1167.55,-106.27"/>
</a>
</g>
</g>
<!-- 12 -->
<g id="node18" class="node">
<title>12</title>
<g id="a_node18"><a xlink:title="stddef.h">
<polygon fill="#ffffff" stroke="black" points="880,-108 806,-108 806,-72 880,-72 880,-108"/>
<text text-anchor="middle" x="843" y="-86.3" font-family="Times,serif" font-size="14.00">stddef.h</text>
</a>
</g>
</g>
<!-- 11&#45;&gt;12 -->
<g id="edge12" class="edge">
<title>11&#45;&gt;12</title>
<g id="a_edge12"><a xlink:title="include">
<path fill="none" stroke="#1414ce" d="M961.92,-146.5C940.78,-136.63 912.46,-123.42 888.76,-112.36"/>
<polygon fill="#1414ce" stroke="#1414ce" points="890.14,-109.13 879.59,-108.08 887.18,-115.48 890.14,-109.13"/>
</a>
</g>
</g>
<!-- 3 -->
<g id="node32" class="node">
<title>3</title>
<g id="a_node32"><a xlink:title="stdio.h">
<polygon fill="#ffffff" stroke="black" points="1004.5,-108 939.5,-108 939.5,-72 1004.5,-72 1004.5,-108"/>
<text text-anchor="middle" x="972" y="-86.3" font-family="Times,serif" font-size="14.00">stdio.h</text>
</a>
</g>
</g>
<!-- 11&#45;&gt;3 -->
<g id="edge13" class="edge">
<title>11&#45;&gt;3</title>
<g id="a_edge13"><a xlink:title="include">
<path fill="none" stroke="#1414ce" d="M987.81,-143.7C985.47,-135.9 982.65,-126.51 980.05,-117.83"/>
<polygon fill="#1414ce" stroke="#1414ce" points="983.36,-116.68 977.13,-108.1 976.65,-118.69 983.36,-116.68"/>
</a>
</g>
</g>
<!-- 20 -->
<g id="node8" class="node">
<title>20</title>
<g id="a_node8"><a xlink:title="synclist.h">
<polygon fill="#ffffff" stroke="black" points="495.5,-252 410.5,-252 410.5,-216 495.5,-216 495.5,-252"/>
<text text-anchor="middle" x="453" y="-230.3" font-family="Times,serif" font-size="14.00">synclist.h</text>
</a>
</g>
</g>
<!-- 20&#45;&gt;19 -->
<g id="edge16" class="edge">
<title>20&#45;&gt;19</title>
<g id="a_edge16"><a xlink:title="include">
<path fill="none" stroke="#1414ce" d="M453,-215.7C453,-207.98 453,-198.71 453,-190.11"/>
<polygon fill="#1414ce" stroke="#1414ce" points="456.5,-190.1 453,-180.1 449.5,-190.1 456.5,-190.1"/>
</a>
</g>
</g>
<!-- 21 -->
<g id="node27" class="node">
<title>21</title>
<g id="a_node27"><a xlink:title="smp.h">
<polygon fill="#ffffff" stroke="black" points="366,-180 306,-180 306,-144 366,-144 366,-180"/>
<text text-anchor="middle" x="336" y="-158.3" font-family="Times,serif" font-size="14.00">smp.h</text>
</a>
</g>
</g>
<!-- 20&#45;&gt;21 -->
<g id="edge17" class="edge">
<title>20&#45;&gt;21</title>
<g id="a_edge17"><a xlink:title="include">
<path fill="none" stroke="#1414ce" d="M424.38,-215.88C409.08,-206.72 390.06,-195.34 373.58,-185.48"/>
<polygon fill="#1414ce" stroke="#1414ce" points="375.11,-182.32 364.73,-180.19 371.52,-188.33 375.11,-182.32"/>
</a>
</g>
</g>
<!-- 20&#45;&gt;3 -->
<g id="edge15" class="edge">
<title>20&#45;&gt;3</title>
<g id="a_edge15"><a xlink:title="include">
<path fill="none" stroke="#1414ce" d="M495.54,-228.5C589.33,-218.4 808.03,-193.71 839,-180 861.79,-169.91 861.64,-158.37 882,-144 897.48,-133.07 915.32,-122.24 931.01,-113.24"/>
<polygon fill="#1414ce" stroke="#1414ce" points="932.99,-116.14 939.97,-108.16 929.54,-110.05 932.99,-116.14"/>
</a>
</g>
</g>
<!-- 19&#45;&gt;2 -->
<g id="edge18" class="edge">
<title>19&#45;&gt;2</title>
<g id="a_edge18"><a xlink:title="include">
<path fill="none" stroke="#1414ce" d="M461.9,-143.7C466,-135.73 470.95,-126.1 475.49,-117.26"/>
<polygon fill="#1414ce" stroke="#1414ce" points="478.74,-118.6 480.2,-108.1 472.52,-115.4 478.74,-118.6"/>
</a>
</g>
</g>
<!-- 6&#45;&gt;19 -->
<g id="edge20" class="edge">
<title>6&#45;&gt;19</title>
<g id="a_edge20"><a xlink:title="include">
<path fill="none" stroke="#1414ce" d="M522.37,-654.64C497.48,-646.59 466.76,-633.16 446,-612 372.94,-537.5 374.87,-498.24 354,-396 337.88,-317.03 329.21,-281.62 376,-216 386.46,-201.34 402.32,-189.43 416.93,-180.64"/>
<polygon fill="#1414ce" stroke="#1414ce" points="418.86,-183.57 425.81,-175.57 415.39,-177.49 418.86,-183.57"/>
</a>
</g>
</g>
<!-- 6&#45;&gt;22 -->
<g id="edge23" class="edge">
<title>6&#45;&gt;22</title>
<g id="a_edge23"><a xlink:title="include">
<path fill="none" stroke="#1414ce" d="M605.56,-662.46C689.1,-655.5 880.26,-630.16 1008,-540 1030.7,-523.98 1048.08,-497.08 1058.77,-477.04"/>
<polygon fill="#1414ce" stroke="#1414ce" points="1061.91,-478.6 1063.35,-468.1 1055.68,-475.41 1061.91,-478.6"/>
</a>
</g>
</g>
<!-- 7 -->
<g id="node26" class="node">
<title>7</title>
<g id="a_node26"><a xlink:title="globalcontext.h">
<polygon fill="#ffffff" stroke="black" points="627.5,-612 500.5,-612 500.5,-576 627.5,-576 627.5,-612"/>
<text text-anchor="middle" x="564" y="-590.3" font-family="Times,serif" font-size="14.00">globalcontext.h</text>
</a>
</g>
</g>
<!-- 6&#45;&gt;7 -->
<g id="edge19" class="edge">
<title>6&#45;&gt;7</title>
<g id="a_edge19"><a xlink:title="include">
<path fill="none" stroke="#1414ce" d="M564,-647.7C564,-639.98 564,-630.71 564,-622.11"/>
<polygon fill="#1414ce" stroke="#1414ce" points="567.5,-622.1 564,-612.1 560.5,-622.1 567.5,-622.1"/>
</a>
</g>
</g>
<!-- 6&#45;&gt;21 -->
<g id="edge22" class="edge">
<title>6&#45;&gt;21</title>
<g id="a_edge22"><a xlink:title="include">
<path fill="none" stroke="#1414ce" d="M522.32,-658.37C424.43,-641.62 188,-593.82 188,-523 188,-523 188,-523 188,-449 188,-336.83 223.5,-309.81 285,-216 291.71,-205.76 300.56,-195.75 308.99,-187.24"/>
<polygon fill="#1414ce" stroke="#1414ce" points="311.51,-189.67 316.23,-180.18 306.63,-184.66 311.51,-189.67"/>
</a>
</g>
</g>
<!-- 28 -->
<g id="node28" class="node">
<title>28</title>
<g id="a_node28"><a xlink:title="timer_list.h">
<polygon fill="#ffffff" stroke="black" points="164,-252 66,-252 66,-216 164,-216 164,-252"/>
<text text-anchor="middle" x="115" y="-230.3" font-family="Times,serif" font-size="14.00">timer_list.h</text>
</a>
</g>
</g>
<!-- 6&#45;&gt;28 -->
<g id="edge24" class="edge">
<title>6&#45;&gt;28</title>
<g id="a_edge24"><a xlink:title="include">
<path fill="none" stroke="#1414ce" d="M522.18,-664.98C432.35,-664.08 224.94,-657.03 174,-612 71.79,-521.64 95.84,-332.71 109.16,-262.26"/>
<polygon fill="#1414ce" stroke="#1414ce" points="112.61,-262.86 111.11,-252.37 105.74,-261.51 112.61,-262.86"/>
</a>
</g>
</g>
<!-- 27 -->
<g id="node30" class="node">
<title>27</title>
<g id="a_node30"><a xlink:title="mailbox.h">
<polygon fill="#ffffff" stroke="black" points="714,-252 628,-252 628,-216 714,-216 714,-252"/>
<text text-anchor="middle" x="671" y="-230.3" font-family="Times,serif" font-size="14.00">mailbox.h</text>
</a>
</g>
</g>
<!-- 6&#45;&gt;27 -->
<g id="edge21" class="edge">
<title>6&#45;&gt;27</title>
<g id="a_edge21"><a xlink:title="include">
<path fill="none" stroke="#1414ce" d="M532.5,-647.84C487.77,-620.95 413.49,-565.54 435,-504 473.6,-393.55 583.13,-300.02 638.34,-258.3"/>
<polygon fill="#1414ce" stroke="#1414ce" points="640.48,-261.07 646.4,-252.29 636.29,-255.46 640.48,-261.07"/>
</a>
</g>
</g>
<!-- 1 -->
<g id="node13" class="node">
<title>1</title>
<g id="a_node13"><a xlink:title="/__w/AtomVM/AtomVM/src/libAtomVM/memory.c">
<polygon fill="#bfbfbf" stroke="black" points="1306,-828 944,-828 944,-792 1306,-792 1306,-828"/>
<text text-anchor="middle" x="1125" y="-806.3" font-family="Times,serif" font-size="14.00">/__w/AtomVM/AtomVM/src/libAtomVM/memory.c</text>
</a>
</g>
</g>
<!-- 1&#45;&gt;2 -->
<g id="edge25" class="edge">
<title>1&#45;&gt;2</title>
<g id="a_edge25"><a xlink:title="include">
<path fill="none" stroke="#1414ce" d="M943.78,-804.1C726.69,-797.17 376.22,-782.32 248,-756 133.29,-732.45 0,-784.1 0,-667 0,-667 0,-667 0,-305 0,-115.72 311.31,-92.25 437.15,-90.5"/>
<polygon fill="#1414ce" stroke="#1414ce" points="437.34,-93.99 447.31,-90.4 437.27,-86.99 437.34,-93.99"/>
</a>
</g>
</g>
<!-- 1&#45;&gt;32 -->
<g id="edge32" class="edge">
<title>1&#45;&gt;32</title>
<g id="a_edge32"><a xlink:title="include">
<path fill="none" stroke="#1414ce" d="M1114.87,-791.7C1110.15,-783.64 1104.44,-773.89 1099.22,-764.98"/>
<polygon fill="#1414ce" stroke="#1414ce" points="1102.09,-762.96 1094.02,-756.1 1096.05,-766.5 1102.09,-762.96"/>
</a>
</g>
</g>
<!-- 1&#45;&gt;25 -->
<g id="edge36" class="edge">
<title>1&#45;&gt;25</title>
<g id="a_edge36"><a xlink:title="include">
<path fill="none" stroke="#1414ce" d="M981.77,-791.97C909.1,-774.47 836,-738.98 836,-667 836,-667 836,-667 836,-521 836,-481 836,-434.65 836,-406.08"/>
<polygon fill="#1414ce" stroke="#1414ce" points="839.5,-406.05 836,-396.05 832.5,-406.05 839.5,-406.05"/>
</a>
</g>
</g>
<!-- 1&#45;&gt;31 -->
<g id="edge31" class="edge">
<title>1&#45;&gt;31</title>
<g id="a_edge31"><a xlink:title="include">
<path fill="none" stroke="#1414ce" d="M1075.58,-791.93C1056.65,-783.47 1036.02,-771.64 1021,-756 962.68,-695.25 932.12,-597.04 920.14,-549.91"/>
<polygon fill="#1414ce" stroke="#1414ce" points="923.53,-549.01 917.74,-540.13 916.73,-550.68 923.53,-549.01"/>
</a>
</g>
</g>
<!-- 1&#45;&gt;11 -->
<g id="edge40" class="edge">
<title>1&#45;&gt;11</title>
<g id="a_edge40"><a xlink:title="include">
<path fill="none" stroke="#1414ce" d="M1177.03,-791.84C1228.62,-771.15 1300,-730.97 1300,-667 1300,-667 1300,-667 1300,-449 1300,-375.44 1108.92,-239.94 1028.26,-186.01"/>
<polygon fill="#1414ce" stroke="#1414ce" points="1029.71,-182.77 1019.44,-180.15 1025.83,-188.6 1029.71,-182.77"/>
</a>
</g>
</g>
<!-- 1&#45;&gt;19 -->
<g id="edge34" class="edge">
<title>1&#45;&gt;19</title>
<g id="a_edge34"><a xlink:title="include">
<path fill="none" stroke="#1414ce" d="M943.89,-800.67C661.93,-785.25 150,-746.33 150,-667 150,-667 150,-667 150,-449 150,-303.9 336.04,-210.59 416.57,-177"/>
<polygon fill="#1414ce" stroke="#1414ce" points="417.92,-180.23 425.84,-173.2 415.26,-173.75 417.92,-180.23"/>
</a>
</g>
</g>
<!-- 1&#45;&gt;4 -->
<g id="edge27" class="edge">
<title>1&#45;&gt;4</title>
<g id="a_edge27"><a xlink:title="include">
<path fill="none" stroke="#1414ce" d="M1306.22,-806.73C1407.38,-801.7 1520.42,-788.6 1558,-756 1588.95,-729.15 1582,-707.97 1582,-667 1582,-667 1582,-667 1582,-305 1582,-227.15 1574.02,-192.35 1513,-144 1493.25,-128.35 1337.06,-106.74 1257.8,-96.64"/>
<polygon fill="#1414ce" stroke="#1414ce" points="1257.97,-93.13 1247.61,-95.35 1257.09,-100.07 1257.97,-93.13"/>
</a>
</g>
</g>
<!-- 1&#45;&gt;6 -->
<g id="edge29" class="edge">
<title>1&#45;&gt;6</title>
<g id="a_edge29"><a xlink:title="include">
<path fill="none" stroke="#1414ce" d="M945.92,-791.99C888.11,-783.99 824.21,-772.46 767,-756 708.5,-739.17 644.79,-709.16 604.65,-688.68"/>
<polygon fill="#1414ce" stroke="#1414ce" points="606.2,-685.55 595.71,-684.08 603,-691.77 606.2,-685.55"/>
</a>
</g>
</g>
<!-- 1&#45;&gt;24 -->
<g id="edge35" class="edge">
<title>1&#45;&gt;24</title>
<g id="a_edge35"><a xlink:title="include">
<path fill="none" stroke="#1414ce" d="M1306.24,-806C1496.08,-801.13 1771.86,-788.5 1809,-756 1839.44,-729.36 1828,-707.45 1828,-667 1828,-667 1828,-667 1828,-377 1828,-298.33 1565.67,-255.98 1450.33,-241.16"/>
<polygon fill="#1414ce" stroke="#1414ce" points="1450.66,-237.68 1440.3,-239.9 1449.78,-244.62 1450.66,-237.68"/>
</a>
</g>
</g>
<!-- 1&#45;&gt;22 -->
<g id="edge38" class="edge">
<title>1&#45;&gt;22</title>
<g id="a_edge38"><a xlink:title="include">
<path fill="none" stroke="#1414ce" d="M1133.3,-791.97C1145.28,-765.77 1166,-713.7 1166,-667 1166,-667 1166,-667 1166,-593 1166,-545.01 1128.06,-500.96 1100.13,-475.04"/>
<polygon fill="#1414ce" stroke="#1414ce" points="1102.33,-472.31 1092.56,-468.22 1097.65,-477.52 1102.33,-472.31"/>
</a>
</g>
</g>
<!-- 30 -->
<g id="node20" class="node">
<title>30</title>
<g id="a_node20"><a xlink:title="debug.h">
<polygon fill="#ffffff" stroke="black" points="617,-756 543,-756 543,-720 617,-720 617,-756"/>
<text text-anchor="middle" x="580" y="-734.3" font-family="Times,serif" font-size="14.00">debug.h</text>
</a>
</g>
</g>
<!-- 1&#45;&gt;30 -->
<g id="edge30" class="edge">
<title>1&#45;&gt;30</title>
<g id="a_edge30"><a xlink:title="include">
<path fill="none" stroke="#1414ce" d="M980.43,-791.96C897.19,-781.95 790.64,-768.78 696,-756 673.29,-752.93 648.12,-749.28 627.05,-746.14"/>
<polygon fill="#1414ce" stroke="#1414ce" points="627.47,-742.67 617.06,-744.65 626.43,-749.59 627.47,-742.67"/>
</a>
</g>
</g>
<!-- 5 -->
<g id="node24" class="node">
<title>5</title>
<g id="a_node24"><a xlink:title="string.h">
<polygon fill="#ffffff" stroke="black" points="1439.5,-396 1366.5,-396 1366.5,-360 1439.5,-360 1439.5,-396"/>
<text text-anchor="middle" x="1403" y="-374.3" font-family="Times,serif" font-size="14.00">string.h</text>
</a>
</g>
</g>
<!-- 1&#45;&gt;5 -->
<g id="edge28" class="edge">
<title>1&#45;&gt;5</title>
<g id="a_edge28"><a xlink:title="include">
<path fill="none" stroke="#1414ce" d="M1249,-791.97C1320.36,-774.41 1396,-738.84 1396,-667 1396,-667 1396,-667 1396,-521 1396,-480.95 1398.81,-434.62 1400.87,-406.06"/>
<polygon fill="#1414ce" stroke="#1414ce" points="1404.37,-406.27 1401.62,-396.04 1397.39,-405.75 1404.37,-406.27"/>
</a>
</g>
</g>
<!-- 1&#45;&gt;7 -->
<g id="edge33" class="edge">
<title>1&#45;&gt;7</title>
<g id="a_edge33"><a xlink:title="include">
<path fill="none" stroke="#1414ce" d="M960.32,-791.98C914.57,-784.11 865.52,-772.65 822,-756 731.71,-721.44 638.59,-653.96 592.88,-618.32"/>
<polygon fill="#1414ce" stroke="#1414ce" points="594.93,-615.48 584.91,-612.06 590.61,-620.99 594.93,-615.48"/>
</a>
</g>
</g>
<!-- 33 -->
<g id="node29" class="node">
<title>33</title>
<g id="a_node29"><a xlink:title="tempstack.h">
<polygon fill="#ffffff" stroke="black" points="1714,-756 1610,-756 1610,-720 1714,-720 1714,-756"/>
<text text-anchor="middle" x="1662" y="-734.3" font-family="Times,serif" font-size="14.00">tempstack.h</text>
</a>
</g>
</g>
<!-- 1&#45;&gt;33 -->
<g id="edge37" class="edge">
<title>1&#45;&gt;33</title>
<g id="a_edge37"><a xlink:title="include">
<path fill="none" stroke="#1414ce" d="M1306.2,-794.59C1394.11,-786.08 1501.01,-773.49 1596,-756 1597.28,-755.76 1598.56,-755.52 1599.86,-755.26"/>
<polygon fill="#1414ce" stroke="#1414ce" points="1600.85,-758.63 1609.91,-753.14 1599.4,-751.78 1600.85,-758.63"/>
</a>
</g>
</g>
<!-- 34 -->
<g id="node31" class="node">
<title>34</title>
<g id="a_node31"><a xlink:title="trace.h">
<polygon fill="#ffffff" stroke="black" points="1799.5,-756 1732.5,-756 1732.5,-720 1799.5,-720 1799.5,-756"/>
<text text-anchor="middle" x="1766" y="-734.3" font-family="Times,serif" font-size="14.00">trace.h</text>
</a>
</g>
</g>
<!-- 1&#45;&gt;34 -->
<g id="edge39" class="edge">
<title>1&#45;&gt;34</title>
<g id="a_edge39"><a xlink:title="include">
<path fill="none" stroke="#1414ce" d="M1306.07,-806.46C1423.11,-801.61 1578.29,-789.14 1722.57,-755.65"/>
<polygon fill="#1414ce" stroke="#1414ce" points="1723.57,-759.01 1732.49,-753.3 1721.96,-752.19 1723.57,-759.01"/>
</a>
</g>
</g>
<!-- 1&#45;&gt;3 -->
<g id="edge26" class="edge">
<title>1&#45;&gt;3</title>
<g id="a_edge26"><a xlink:title="include">
<path fill="none" stroke="#1414ce" d="M1245.91,-792C1369.67,-771.1 1544,-730.41 1544,-667 1544,-667 1544,-667 1544,-449 1544,-361.85 1402.12,-286.55 1117,-144 1083.62,-127.31 1043.64,-113.09 1014.13,-103.6"/>
<polygon fill="#1414ce" stroke="#1414ce" points="1015.14,-100.25 1004.55,-100.56 1013.03,-106.92 1015.14,-100.25"/>
</a>
</g>
</g>
<!-- 24&#45;&gt;11 -->
<g id="edge45" class="edge">
<title>24&#45;&gt;11</title>
<g id="a_edge45"><a xlink:title="include">
<path fill="none" stroke="#1414ce" d="M1353.95,-230.33C1286.88,-225.39 1153.57,-212.46 1033.86,-179.84"/>
<polygon fill="#1414ce" stroke="#1414ce" points="1034.74,-176.45 1024.17,-177.15 1032.87,-183.19 1034.74,-176.45"/>
</a>
</g>
</g>
<!-- 24&#45;&gt;8 -->
<g id="edge41" class="edge">
<title>24&#45;&gt;8</title>
<g id="a_edge41"><a xlink:title="include">
<path fill="none" stroke="#1414ce" d="M1391.91,-215.8C1381.14,-182.51 1352.74,-109.27 1302,-72 1248.56,-32.75 1170.54,-22.03 1121.29,-19.4"/>
<polygon fill="#1414ce" stroke="#1414ce" points="1121.39,-15.9 1111.24,-18.95 1121.08,-22.89 1121.39,-15.9"/>
</a>
</g>
</g>
<!-- 24&#45;&gt;4 -->
<g id="edge42" class="edge">
<title>24&#45;&gt;4</title>
<g id="a_edge42"><a xlink:title="include">
<path fill="none" stroke="#1414ce" d="M1374.68,-215.87C1341.63,-190.5 1279.56,-142.85 1242.38,-114.32"/>
<polygon fill="#1414ce" stroke="#1414ce" points="1244.46,-111.5 1234.39,-108.19 1240.2,-117.05 1244.46,-111.5"/>
</a>
</g>
</g>
<!-- 13 -->
<g id="node19" class="node">
<title>13</title>
<g id="a_node19"><a xlink:title="erl_nif.h">
<polygon fill="#ffffff" stroke="black" points="1504,-180 1430,-180 1430,-144 1504,-144 1504,-180"/>
<text text-anchor="middle" x="1467" y="-158.3" font-family="Times,serif" font-size="14.00">erl_nif.h</text>
</a>
</g>
</g>
<!-- 24&#45;&gt;13 -->
<g id="edge43" class="edge">
<title>24&#45;&gt;13</title>
<g id="a_edge43"><a xlink:title="include">
<path fill="none" stroke="#1414ce" d="M1414.3,-215.7C1422.86,-207.14 1433.34,-196.66 1442.7,-187.3"/>
<polygon fill="#1414ce" stroke="#1414ce" points="1445.3,-189.65 1449.9,-180.1 1440.35,-184.7 1445.3,-189.65"/>
</a>
</g>
</g>
<!-- 14 -->
<g id="node25" class="node">
<title>14</title>
<g id="a_node25"><a xlink:title="term_typedef.h">
<polygon fill="#ffffff" stroke="black" points="1517.5,-108 1392.5,-108 1392.5,-72 1517.5,-72 1517.5,-108"/>
<text text-anchor="middle" x="1455" y="-86.3" font-family="Times,serif" font-size="14.00">term_typedef.h</text>
</a>
</g>
</g>
<!-- 24&#45;&gt;14 -->
<g id="edge44" class="edge">
<title>24&#45;&gt;14</title>
<g id="a_edge44"><a xlink:title="include">
<path fill="none" stroke="#1414ce" d="M1400.02,-215.74C1403.6,-197.41 1410.44,-167.85 1421,-144 1425.14,-134.65 1430.79,-125.06 1436.3,-116.65"/>
<polygon fill="#1414ce" stroke="#1414ce" points="1439.2,-118.62 1441.92,-108.38 1433.4,-114.69 1439.2,-118.62"/>
</a>
</g>
</g>
<!-- 29 -->
<g id="node15" class="node">
<title>29</title>
<g id="a_node15"><a xlink:title="valueshashtable.h">
<polygon fill="#ffffff" stroke="black" points="830,-180 684,-180 684,-144 830,-144 830,-180"/>
<text text-anchor="middle" x="757" y="-158.3" font-family="Times,serif" font-size="14.00">valueshashtable.h</text>
</a>
</g>
</g>
<!-- 29&#45;&gt;8 -->
<g id="edge47" class="edge">
<title>29&#45;&gt;8</title>
<g id="a_edge47"><a xlink:title="include">
<path fill="none" stroke="#1414ce" d="M759.86,-143.66C764.18,-123.24 774.4,-89.85 797,-72 832.26,-44.16 958.99,-29.05 1028.53,-22.69"/>
<polygon fill="#1414ce" stroke="#1414ce" points="1029.11,-26.15 1038.76,-21.78 1028.49,-19.18 1029.11,-26.15"/>
</a>
</g>
</g>
<!-- 29&#45;&gt;12 -->
<g id="edge46" class="edge">
<title>29&#45;&gt;12</title>
<g id="a_edge46"><a xlink:title="include">
<path fill="none" stroke="#1414ce" d="M778.26,-143.7C789.09,-134.88 802.42,-124.03 814.16,-114.47"/>
<polygon fill="#1414ce" stroke="#1414ce" points="816.44,-117.13 821.99,-108.1 812.02,-111.7 816.44,-117.13"/>
</a>
</g>
</g>
<!-- 26&#45;&gt;20 -->
<g id="edge53" class="edge">
<title>26&#45;&gt;20</title>
<g id="a_edge53"><a xlink:title="include">
<path fill="none" stroke="#1414ce" d="M857.57,-297.24C770.77,-283.89 593.97,-256.69 505.66,-243.1"/>
<polygon fill="#1414ce" stroke="#1414ce" points="506.01,-239.61 495.59,-241.55 504.95,-246.53 506.01,-239.61"/>
</a>
</g>
</g>
<!-- 26&#45;&gt;19 -->
<g id="edge50" class="edge">
<title>26&#45;&gt;19</title>
<g id="a_edge50"><a xlink:title="include">
<path fill="none" stroke="#1414ce" d="M857.85,-303.51C798.28,-300.05 697.14,-288.71 619,-252 596.44,-241.4 597.22,-229.07 576,-216 548.56,-199.1 514.78,-184.97 489.56,-175.55"/>
<polygon fill="#1414ce" stroke="#1414ce" points="490.6,-172.21 480.01,-172.06 488.2,-178.78 490.6,-172.21"/>
</a>
</g>
</g>
<!-- 26&#45;&gt;4 -->
<g id="edge48" class="edge">
<title>26&#45;&gt;4</title>
<g id="a_edge48"><a xlink:title="include">
<path fill="none" stroke="#1414ce" d="M958.21,-288.65C982.63,-279.61 1011.85,-267.13 1036,-252 1098.38,-212.92 1158.99,-150.49 1190.21,-115.98"/>
<polygon fill="#1414ce" stroke="#1414ce" points="1193.07,-118.03 1197.13,-108.24 1187.86,-113.36 1193.07,-118.03"/>
</a>
</g>
</g>
<!-- 26&#45;&gt;24 -->
<g id="edge52" class="edge">
<title>26&#45;&gt;24</title>
<g id="a_edge52"><a xlink:title="include">
<path fill="none" stroke="#1414ce" d="M958.03,-297.84C1050.8,-284.56 1248.68,-256.23 1343.79,-242.62"/>
<polygon fill="#1414ce" stroke="#1414ce" points="1344.37,-246.07 1353.77,-241.19 1343.38,-239.14 1344.37,-246.07"/>
</a>
</g>
</g>
<!-- 26&#45;&gt;13 -->
<g id="edge49" class="edge">
<title>26&#45;&gt;13</title>
<g id="a_edge49"><a xlink:title="include">
<path fill="none" stroke="#1414ce" d="M958.19,-303.44C1085.4,-299.01 1412.97,-284.53 1449,-252 1465.86,-236.78 1469.44,-210.49 1469.35,-190.42"/>
<polygon fill="#1414ce" stroke="#1414ce" points="1472.85,-190.18 1469,-180.3 1465.85,-190.42 1472.85,-190.18"/>
</a>
</g>
</g>
<!-- 26&#45;&gt;27 -->
<g id="edge51" class="edge">
<title>26&#45;&gt;27</title>
<g id="a_edge51"><a xlink:title="include">
<path fill="none" stroke="#1414ce" d="M857.74,-290.15C818.41,-278.54 763.86,-262.43 723.87,-250.62"/>
<polygon fill="#1414ce" stroke="#1414ce" points="724.62,-247.19 714.04,-247.71 722.64,-253.9 724.62,-247.19"/>
</a>
</g>
</g>
<!-- 22&#45;&gt;2 -->
<g id="edge55" class="edge">
<title>22&#45;&gt;2</title>
<g id="a_edge55"><a xlink:title="include">
<path fill="none" stroke="#1414ce" d="M1038.49,-447.49C969.5,-443.63 811.59,-431.09 773,-396 711.57,-340.14 781.68,-274.75 723,-216 680.94,-173.88 644.49,-211.52 594,-180 575.84,-168.66 577.87,-158.37 562,-144 550.21,-133.32 536.29,-122.77 523.78,-113.93"/>
<polygon fill="#1414ce" stroke="#1414ce" points="525.6,-110.94 515.39,-108.11 521.6,-116.69 525.6,-110.94"/>
</a>
</g>
</g>
<!-- 22&#45;&gt;25 -->
<g id="edge62" class="edge">
<title>22&#45;&gt;25</title>
<g id="a_edge62"><a xlink:title="include">
<path fill="none" stroke="#1414ce" d="M1038.32,-439.27C1002.61,-428.63 944.49,-411.32 899.69,-397.97"/>
<polygon fill="#1414ce" stroke="#1414ce" points="900.64,-394.6 890.06,-395.1 898.65,-401.31 900.64,-394.6"/>
</a>
</g>
</g>
<!-- 22&#45;&gt;9 -->
<g id="edge60" class="edge">
<title>22&#45;&gt;9</title>
<g id="a_edge60"><a xlink:title="include">
<path fill="none" stroke="#1414ce" d="M1095.48,-431.77C1106.4,-422.56 1118.12,-410.19 1124,-396 1153.62,-324.49 1113.69,-232.92 1090.11,-188.91"/>
<polygon fill="#1414ce" stroke="#1414ce" points="1093.1,-187.09 1085.22,-180.01 1086.97,-190.46 1093.1,-187.09"/>
</a>
</g>
</g>
<!-- 22&#45;&gt;11 -->
<g id="edge63" class="edge">
<title>22&#45;&gt;11</title>
<g id="a_edge63"><a xlink:title="include">
<path fill="none" stroke="#1414ce" d="M1079.15,-431.9C1086.65,-413.95 1095.8,-384.93 1090,-360 1074.66,-294.11 1033.97,-224.91 1010.46,-188.64"/>
<polygon fill="#1414ce" stroke="#1414ce" points="1013.29,-186.59 1004.87,-180.16 1007.44,-190.43 1013.29,-186.59"/>
</a>
</g>
</g>
<!-- 22&#45;&gt;8 -->
<g id="edge56" class="edge">
<title>22&#45;&gt;8</title>
<g id="a_edge56"><a xlink:title="include">
<path fill="none" stroke="#1414ce" d="M1103.95,-437.24C1124.37,-428.54 1149.87,-414.9 1167,-396 1267.38,-285.28 1346.7,-191.54 1257,-72 1240.68,-50.25 1169.6,-34.5 1121.25,-26.06"/>
<polygon fill="#1414ce" stroke="#1414ce" points="1121.75,-22.59 1111.3,-24.37 1120.58,-29.5 1121.75,-22.59"/>
</a>
</g>
</g>
<!-- 22&#45;&gt;4 -->
<g id="edge58" class="edge">
<title>22&#45;&gt;4</title>
<g id="a_edge58"><a xlink:title="include">
<path fill="none" stroke="#1414ce" d="M1103.57,-432.07C1117.71,-423.15 1133.23,-410.94 1143,-396 1201.38,-306.77 1210.79,-174.93 1212.01,-118.38"/>
<polygon fill="#1414ce" stroke="#1414ce" points="1215.52,-118.16 1212.16,-108.11 1208.52,-118.06 1215.52,-118.16"/>
</a>
</g>
</g>
<!-- 22&#45;&gt;24 -->
<g id="edge61" class="edge">
<title>22&#45;&gt;24</title>
<g id="a_edge61"><a xlink:title="include">
<path fill="none" stroke="#1414ce" d="M1103.72,-443.48C1138.89,-436.48 1195.46,-422.05 1238,-396 1297.76,-359.4 1351.44,-295.64 1378.5,-260.33"/>
<polygon fill="#1414ce" stroke="#1414ce" points="1381.55,-262.09 1384.79,-252 1375.97,-257.87 1381.55,-262.09"/>
</a>
</g>
</g>
<!-- 23 -->
<g id="node23" class="node">
<title>23</title>
<g id="a_node23"><a xlink:title="sys/types.h">
<polygon fill="#ffffff" stroke="black" points="1081.5,-396 984.5,-396 984.5,-360 1081.5,-360 1081.5,-396"/>
<text text-anchor="middle" x="1033" y="-374.3" font-family="Times,serif" font-size="14.00">sys/types.h</text>
</a>
</g>
</g>
<!-- 22&#45;&gt;23 -->
<g id="edge54" class="edge">
<title>22&#45;&gt;23</title>
<g id="a_edge54"><a xlink:title="include">
<path fill="none" stroke="#1414ce" d="M1061.61,-431.7C1057.24,-423.64 1051.94,-413.89 1047.1,-404.98"/>
<polygon fill="#1414ce" stroke="#1414ce" points="1050.13,-403.22 1042.29,-396.1 1043.98,-406.56 1050.13,-403.22"/>
</a>
</g>
</g>
<!-- 22&#45;&gt;5 -->
<g id="edge59" class="edge">
<title>22&#45;&gt;5</title>
<g id="a_edge59"><a xlink:title="include">
<path fill="none" stroke="#1414ce" d="M1103.77,-444.29C1156.52,-436.39 1263.35,-419.02 1352,-396 1353.47,-395.62 1354.96,-395.22 1356.45,-394.8"/>
<polygon fill="#1414ce" stroke="#1414ce" points="1357.81,-398.05 1366.41,-391.86 1355.82,-391.34 1357.81,-398.05"/>
</a>
</g>
</g>
<!-- 22&#45;&gt;14 -->
<g id="edge64" class="edge">
<title>22&#45;&gt;14</title>
<g id="a_edge64"><a xlink:title="include">
<path fill="none" stroke="#1414ce" d="M1103.75,-444.39C1145.17,-437.7 1217.96,-423.04 1275,-396 1373,-349.54 1399.79,-332.92 1472,-252 1506.19,-213.69 1533.71,-190.98 1513,-144 1508.01,-132.69 1499.29,-122.74 1490.1,-114.62"/>
<polygon fill="#1414ce" stroke="#1414ce" points="1492.28,-111.88 1482.34,-108.23 1487.83,-117.28 1492.28,-111.88"/>
</a>
</g>
</g>
<!-- 22&#45;&gt;3 -->
<g id="edge57" class="edge">
<title>22&#45;&gt;3</title>
<g id="a_edge57"><a xlink:title="include">
<path fill="none" stroke="#1414ce" d="M1038.12,-439.87C1016.36,-431.99 989.28,-418.28 975,-396 949.02,-355.48 995.58,-326.72 967,-288 940.92,-252.67 899.75,-288.27 875,-252 842.63,-204.57 900.6,-146.27 940.01,-114.45"/>
<polygon fill="#1414ce" stroke="#1414ce" points="942.4,-117.02 948.09,-108.08 938.07,-111.52 942.4,-117.02"/>
</a>
</g>
</g>
<!-- 13&#45;&gt;14 -->
<g id="edge65" class="edge">
<title>13&#45;&gt;14</title>
<g id="a_edge65"><a xlink:title="include">
<path fill="none" stroke="#1414ce" d="M1464.03,-143.7C1462.71,-135.98 1461.12,-126.71 1459.65,-118.11"/>
<polygon fill="#1414ce" stroke="#1414ce" points="1463.07,-117.37 1457.93,-108.1 1456.17,-118.55 1463.07,-117.37"/>
</a>
</g>
</g>
<!-- 30&#45;&gt;6 -->
<g id="edge66" class="edge">
<title>30&#45;&gt;6</title>
<g id="a_edge66"><a xlink:title="include">
<path fill="none" stroke="#1414ce" d="M576.04,-719.7C574.28,-711.98 572.16,-702.71 570.2,-694.11"/>
<polygon fill="#1414ce" stroke="#1414ce" points="573.55,-693.07 567.91,-684.1 566.73,-694.63 573.55,-693.07"/>
</a>
</g>
</g>
<!-- 16 -->
<g id="node21" class="node">
<title>16</title>
<g id="a_node21"><a xlink:title="limits.h">
<polygon fill="#ffffff" stroke="black" points="1581.5,-36 1510.5,-36 1510.5,0 1581.5,0 1581.5,-36"/>
<text text-anchor="middle" x="1546" y="-14.3" font-family="Times,serif" font-size="14.00">limits.h</text>
</a>
</g>
</g>
<!-- 10 -->
<g id="node22" class="node">
<title>10</title>
<g id="a_node22"><a xlink:title="atom_table.h">
<polygon fill="#ffffff" stroke="black" points="993.5,-252 884.5,-252 884.5,-216 993.5,-216 993.5,-252"/>
<text text-anchor="middle" x="939" y="-230.3" font-family="Times,serif" font-size="14.00">atom_table.h</text>
</a>
</g>
</g>
<!-- 10&#45;&gt;2 -->
<g id="edge67" class="edge">
<title>10&#45;&gt;2</title>
<g id="a_edge67"><a xlink:title="include">
<path fill="none" stroke="#1414ce" d="M884.38,-225.29C818.27,-215.4 711.3,-197.42 675,-180 652.53,-169.21 653.56,-156.51 632,-144 603.32,-127.35 568.48,-114.31 540.37,-105.33"/>
<polygon fill="#1414ce" stroke="#1414ce" points="541.32,-101.96 530.73,-102.32 539.23,-108.64 541.32,-101.96"/>
</a>
</g>
</g>
<!-- 10&#45;&gt;9 -->
<g id="edge68" class="edge">
<title>10&#45;&gt;9</title>
<g id="a_edge68"><a xlink:title="include">
<path fill="none" stroke="#1414ce" d="M972.27,-215.88C990.46,-206.51 1013.19,-194.81 1032.64,-184.8"/>
<polygon fill="#1414ce" stroke="#1414ce" points="1034.31,-187.88 1041.6,-180.19 1031.11,-181.65 1034.31,-187.88"/>
</a>
</g>
</g>
<!-- 10&#45;&gt;11 -->
<g id="edge69" class="edge">
<title>10&#45;&gt;11</title>
<g id="a_edge69"><a xlink:title="include">
<path fill="none" stroke="#1414ce" d="M952.35,-215.7C958.76,-207.39 966.56,-197.28 973.61,-188.14"/>
<polygon fill="#1414ce" stroke="#1414ce" points="976.47,-190.16 979.81,-180.1 970.93,-185.88 976.47,-190.16"/>
</a>
</g>
</g>
<!-- 14&#45;&gt;15 -->
<g id="edge70" class="edge">
<title>14&#45;&gt;15</title>
<g id="a_edge70"><a xlink:title="include">
<path fill="none" stroke="#1414ce" d="M1455,-71.7C1455,-63.98 1455,-54.71 1455,-46.11"/>
<polygon fill="#1414ce" stroke="#1414ce" points="1458.5,-46.1 1455,-36.1 1451.5,-46.1 1458.5,-46.1"/>
</a>
</g>
</g>
<!-- 14&#45;&gt;8 -->
<g id="edge73" class="edge">
<title>14&#45;&gt;8</title>
<g id="a_edge73"><a xlink:title="include">
<path fill="none" stroke="#1414ce" d="M1392.43,-74.94C1387.55,-73.92 1382.7,-72.93 1378,-72 1287.31,-54.07 1180.73,-36.15 1121.21,-26.43"/>
<polygon fill="#1414ce" stroke="#1414ce" points="1121.44,-22.92 1111.01,-24.77 1120.32,-29.83 1121.44,-22.92"/>
</a>
</g>
</g>
<!-- 14&#45;&gt;16 -->
<g id="edge71" class="edge">
<title>14&#45;&gt;16</title>
<g id="a_edge71"><a xlink:title="include">
<path fill="none" stroke="#1414ce" d="M1477.49,-71.7C1488.96,-62.88 1503.06,-52.03 1515.48,-42.47"/>
<polygon fill="#1414ce" stroke="#1414ce" points="1517.97,-44.98 1523.76,-36.1 1513.7,-39.43 1517.97,-44.98"/>
</a>
</g>
</g>
<!-- 17 -->
<g id="node34" class="node">
<title>17</title>
<g id="a_node34"><a xlink:title="inttypes.h">
<polygon fill="#ffffff" stroke="black" points="1399.5,-36 1310.5,-36 1310.5,0 1399.5,0 1399.5,-36"/>
<text text-anchor="middle" x="1355" y="-14.3" font-family="Times,serif" font-size="14.00">inttypes.h</text>
</a>
</g>
</g>
<!-- 14&#45;&gt;17 -->
<g id="edge72" class="edge">
<title>14&#45;&gt;17</title>
<g id="a_edge72"><a xlink:title="include">
<path fill="none" stroke="#1414ce" d="M1430.54,-71.88C1417.7,-62.89 1401.8,-51.76 1387.91,-42.03"/>
<polygon fill="#1414ce" stroke="#1414ce" points="1389.76,-39.06 1379.56,-36.19 1385.74,-44.79 1389.76,-39.06"/>
</a>
</g>
</g>
<!-- 7&#45;&gt;9 -->
<g id="edge75" class="edge">
<title>7&#45;&gt;9</title>
<g id="a_edge75"><a xlink:title="include">
<path fill="none" stroke="#1414ce" d="M618.86,-575.92C639.23,-567.54 661.39,-555.79 678,-540 743.56,-477.67 718.33,-432.07 773,-360 780.03,-350.73 838.76,-293.52 849,-288 910.48,-254.83 942.72,-288.96 1002,-252 1027,-236.41 1047.42,-209.26 1060.24,-189.04"/>
<polygon fill="#1414ce" stroke="#1414ce" points="1063.35,-190.66 1065.58,-180.3 1057.38,-187 1063.35,-190.66"/>
</a>
</g>
</g>
<!-- 7&#45;&gt;20 -->
<g id="edge82" class="edge">
<title>7&#45;&gt;20</title>
<g id="a_edge82"><a xlink:title="include">
<path fill="none" stroke="#1414ce" d="M559.12,-575.71C545.88,-529.04 507.86,-396.73 472,-288 469.17,-279.42 465.91,-270.13 462.89,-261.76"/>
<polygon fill="#1414ce" stroke="#1414ce" points="466.09,-260.31 459.38,-252.11 459.51,-262.7 466.09,-260.31"/>
</a>
</g>
</g>
<!-- 7&#45;&gt;19 -->
<g id="edge79" class="edge">
<title>7&#45;&gt;19</title>
<g id="a_edge79"><a xlink:title="include">
<path fill="none" stroke="#1414ce" d="M500.33,-580.88C476.36,-573.13 451.04,-560.5 435,-540 345.55,-425.69 334.89,-348.57 394,-216 399.17,-204.41 408.27,-194.29 417.79,-186.09"/>
<polygon fill="#1414ce" stroke="#1414ce" points="420.2,-188.65 425.82,-179.66 415.83,-183.18 420.2,-188.65"/>
</a>
</g>
</g>
<!-- 7&#45;&gt;8 -->
<g id="edge74" class="edge">
<title>7&#45;&gt;8</title>
<g id="a_edge74"><a xlink:title="include">
<path fill="none" stroke="#1414ce" d="M500.29,-587.86C360.25,-572.73 38,-515.28 38,-307 38,-307 38,-307 38,-161 38,-45.98 168.48,-95.85 281,-72 425.36,-41.4 881.68,-24.96 1028.8,-20.36"/>
<polygon fill="#1414ce" stroke="#1414ce" points="1028.96,-23.86 1038.85,-20.05 1028.75,-16.86 1028.96,-23.86"/>
</a>
</g>
</g>
<!-- 7&#45;&gt;29 -->
<g id="edge85" class="edge">
<title>7&#45;&gt;29</title>
<g id="a_edge85"><a xlink:title="include">
<path fill="none" stroke="#1414ce" d="M572.55,-575.81C597.13,-526.15 669.63,-378.01 723,-252 731.74,-231.37 740.74,-207.66 747.29,-189.91"/>
<polygon fill="#1414ce" stroke="#1414ce" points="750.69,-190.8 750.84,-180.21 744.12,-188.39 750.69,-190.8"/>
</a>
</g>
</g>
<!-- 7&#45;&gt;22 -->
<g id="edge83" class="edge">
<title>7&#45;&gt;22</title>
<g id="a_edge83"><a xlink:title="include">
<path fill="none" stroke="#1414ce" d="M627.86,-589.39C727.07,-583.01 913.05,-567.72 973,-540 981.59,-536.03 1019.71,-500.31 1045.79,-475.35"/>
<polygon fill="#1414ce" stroke="#1414ce" points="1048.33,-477.77 1053.12,-468.32 1043.49,-472.72 1048.33,-477.77"/>
</a>
</g>
</g>
<!-- 7&#45;&gt;13 -->
<g id="edge77" class="edge">
<title>7&#45;&gt;13</title>
<g id="a_edge77"><a xlink:title="include">
<path fill="none" stroke="#1414ce" d="M627.74,-588.48C812.39,-573.98 1341.42,-521.98 1449,-396 1498.97,-337.49 1484.78,-237.79 1474.07,-190.05"/>
<polygon fill="#1414ce" stroke="#1414ce" points="1477.43,-189.07 1471.73,-180.14 1470.62,-190.68 1477.43,-189.07"/>
</a>
</g>
</g>
<!-- 7&#45;&gt;10 -->
<g id="edge76" class="edge">
<title>7&#45;&gt;10</title>
<g id="a_edge76"><a xlink:title="include">
<path fill="none" stroke="#1414ce" d="M607.58,-575.98C624.29,-567.46 642.15,-555.6 654,-540 704.08,-474.07 650.84,-425.1 702,-360 722.64,-333.73 739.9,-342.07 768,-324 790.43,-309.58 792.93,-301.37 816,-288 837.12,-275.76 861.6,-264.65 883.13,-255.8"/>
<polygon fill="#1414ce" stroke="#1414ce" points="884.52,-259.01 892.48,-252.02 881.89,-252.52 884.52,-259.01"/>
</a>
</g>
</g>
<!-- 7&#45;&gt;21 -->
<g id="edge81" class="edge">
<title>7&#45;&gt;21</title>
<g id="a_edge81"><a xlink:title="include">
<path fill="none" stroke="#1414ce" d="M500.39,-583.33C468.84,-575.86 431.85,-562.77 405,-540 351.01,-494.2 304.01,-323.23 292,-252 289.34,-236.22 286.57,-231.05 292,-216 295.75,-205.6 302.54,-195.8 309.67,-187.52"/>
<polygon fill="#1414ce" stroke="#1414ce" points="312.32,-189.81 316.53,-180.08 307.17,-185.06 312.32,-189.81"/>
</a>
</g>
</g>
<!-- 7&#45;&gt;28 -->
<g id="edge84" class="edge">
<title>7&#45;&gt;28</title>
<g id="a_edge84"><a xlink:title="include">
<path fill="none" stroke="#1414ce" d="M500.36,-584.88C459.35,-577.6 406.03,-564.19 364,-540 244.74,-471.37 159.08,-322.09 127.91,-261.43"/>
<polygon fill="#1414ce" stroke="#1414ce" points="130.86,-259.49 123.22,-252.15 124.61,-262.65 130.86,-259.49"/>
</a>
</g>
</g>
<!-- 7&#45;&gt;27 -->
<g id="edge80" class="edge">
<title>7&#45;&gt;27</title>
<g id="a_edge80"><a xlink:title="include">
<path fill="none" stroke="#1414ce" d="M564.53,-575.86C566.6,-527.92 576.77,-389.34 626,-288 630.96,-277.8 638.34,-267.94 645.7,-259.56"/>
<polygon fill="#1414ce" stroke="#1414ce" points="648.46,-261.73 652.66,-252 643.31,-256.98 648.46,-261.73"/>
</a>
</g>
</g>
<!-- 18 -->
<g id="node33" class="node">
<title>18</title>
<g id="a_node33"><a xlink:title="ets.h">
<polygon fill="#ffffff" stroke="black" points="498,-540 444,-540 444,-504 498,-504 498,-540"/>
<text text-anchor="middle" x="471" y="-518.3" font-family="Times,serif" font-size="14.00">ets.h</text>
</a>
</g>
</g>
<!-- 7&#45;&gt;18 -->
<g id="edge78" class="edge">
<title>7&#45;&gt;18</title>
<g id="a_edge78"><a xlink:title="include">
<path fill="none" stroke="#1414ce" d="M541.01,-575.7C529.19,-566.8 514.61,-555.82 501.82,-546.2"/>
<polygon fill="#1414ce" stroke="#1414ce" points="503.82,-543.32 493.72,-540.1 499.61,-548.91 503.82,-543.32"/>
</a>
</g>
</g>
<!-- 21&#45;&gt;2 -->
<g id="edge86" class="edge">
<title>21&#45;&gt;2</title>
<g id="a_edge86"><a xlink:title="include">
<path fill="none" stroke="#1414ce" d="M366.23,-147.17C388,-137.21 417.79,-123.58 442.58,-112.24"/>
<polygon fill="#1414ce" stroke="#1414ce" points="444.16,-115.36 451.8,-108.02 441.25,-109 444.16,-115.36"/>
</a>
</g>
</g>
<!-- 28&#45;&gt;2 -->
<g id="edge87" class="edge">
<title>28&#45;&gt;2</title>
<g id="a_edge87"><a xlink:title="include">
<path fill="none" stroke="#1414ce" d="M145.46,-215.93C180.99,-196.53 241.91,-164.87 297,-144 343.56,-126.37 398.47,-111.8 437.62,-102.44"/>
<polygon fill="#1414ce" stroke="#1414ce" points="438.54,-105.81 447.47,-100.11 436.93,-99 438.54,-105.81"/>
</a>
</g>
</g>
<!-- 28&#45;&gt;19 -->
<g id="edge89" class="edge">
<title>28&#45;&gt;19</title>
<g id="a_edge89"><a xlink:title="include">
<path fill="none" stroke="#1414ce" d="M164.4,-223.14C216.73,-212.64 301.75,-195.45 375,-180 388.38,-177.18 403.02,-174.01 415.98,-171.18"/>
<polygon fill="#1414ce" stroke="#1414ce" points="416.93,-174.55 425.95,-168.99 415.43,-167.71 416.93,-174.55"/>
</a>
</g>
</g>
<!-- 28&#45;&gt;8 -->
<g id="edge88" class="edge">
<title>28&#45;&gt;8</title>
<g id="a_edge88"><a xlink:title="include">
<path fill="none" stroke="#1414ce" d="M129.42,-215.86C147.02,-195.95 178.59,-163.37 212,-144 303.2,-91.12 334.59,-92.5 438,-72 656.07,-28.77 922.92,-20.74 1028.67,-19.3"/>
<polygon fill="#1414ce" stroke="#1414ce" points="1028.73,-22.8 1038.69,-19.17 1028.64,-15.8 1028.73,-22.8"/>
</a>
</g>
</g>
<!-- 27&#45;&gt;2 -->
<g id="edge90" class="edge">
<title>27&#45;&gt;2</title>
<g id="a_edge90"><a xlink:title="include">
<path fill="none" stroke="#1414ce" d="M628.15,-215.97C608.19,-206.92 584.76,-194.63 566,-180 542.67,-161.8 521.09,-135.71 506.75,-116.48"/>
<polygon fill="#1414ce" stroke="#1414ce" points="509.42,-114.19 500.69,-108.18 503.76,-118.32 509.42,-114.19"/>
</a>
</g>
</g>
<!-- 27&#45;&gt;11 -->
<g id="edge93" class="edge">
<title>27&#45;&gt;11</title>
<g id="a_edge93"><a xlink:title="include">
<path fill="none" stroke="#1414ce" d="M714.24,-227.09C769.2,-219.03 866.72,-202.95 948,-180 949.41,-179.6 950.83,-179.18 952.26,-178.74"/>
<polygon fill="#1414ce" stroke="#1414ce" points="953.37,-182.06 961.76,-175.59 951.17,-175.42 953.37,-182.06"/>
</a>
</g>
</g>
<!-- 27&#45;&gt;19 -->
<g id="edge91" class="edge">
<title>27&#45;&gt;19</title>
<g id="a_edge91"><a xlink:title="include">
<path fill="none" stroke="#1414ce" d="M627.93,-219.17C587.61,-206.22 528,-187.08 489.83,-174.83"/>
<polygon fill="#1414ce" stroke="#1414ce" points="490.74,-171.44 480.15,-171.72 488.6,-178.11 490.74,-171.44"/>
</a>
</g>
</g>
<!-- 27&#45;&gt;14 -->
<g id="edge92" class="edge">
<title>27&#45;&gt;14</title>
<g id="a_edge92"><a xlink:title="include">
<path fill="none" stroke="#1414ce" d="M714.26,-224.11C756.02,-214.99 820.73,-199.4 875,-180 910.95,-167.15 916.19,-154.14 953,-144 993.31,-132.9 1252.47,-108.9 1381.81,-97.4"/>
<polygon fill="#1414ce" stroke="#1414ce" points="1382.37,-100.86 1392.02,-96.49 1381.75,-93.89 1382.37,-100.86"/>
</a>
</g>
</g>
<!-- 18&#45;&gt;20 -->
<g id="edge95" class="edge">
<title>18&#45;&gt;20</title>
<g id="a_edge95"><a xlink:title="include">
<path fill="none" stroke="#1414ce" d="M469.93,-503.97C466.93,-456.29 458.42,-321.18 454.74,-262.63"/>
<polygon fill="#1414ce" stroke="#1414ce" points="458.21,-262.07 454.09,-252.31 451.22,-262.51 458.21,-262.07"/>
</a>
</g>
</g>
<!-- 18&#45;&gt;19 -->
<g id="edge94" class="edge">
<title>18&#45;&gt;19</title>
<g id="a_edge94"><a xlink:title="include">
<path fill="none" stroke="#1414ce" d="M464.95,-503.99C450.35,-461.93 413.47,-349.41 401,-252 398.97,-236.13 394.95,-230.81 401,-216 405.49,-205.02 413.47,-195.08 421.85,-186.86"/>
<polygon fill="#1414ce" stroke="#1414ce" points="424.24,-189.42 429.25,-180.09 419.51,-184.26 424.24,-189.42"/>
</a>
</g>
</g>
<!-- 18&#45;&gt;22 -->
<g id="edge96" class="edge">
<title>18&#45;&gt;22</title>
<g id="a_edge96"><a xlink:title="include">
<path fill="none" stroke="#1414ce" d="M498.34,-517.81C593.71,-506.68 912.17,-469.53 1028.22,-455.99"/>
<polygon fill="#1414ce" stroke="#1414ce" points="1028.96,-459.43 1038.49,-454.79 1028.15,-452.48 1028.96,-459.43"/>
</a>
</g>
</g>
</g>
</svg>
