<?xml version="1.0" encoding="UTF-8" standalone="no"?>
<!DOCTYPE svg PUBLIC "-//W3C//DTD SVG 1.1//EN"
 "http://www.w3.org/Graphics/SVG/1.1/DTD/svg11.dtd">
<!-- Generated by graphviz version 2.43.0 (0)
 -->
<!-- Title: %3 Pages: 1 -->
<svg width="1409pt" height="548pt"
 viewBox="0.00 0.00 1408.50 548.00" xmlns="http://www.w3.org/2000/svg" xmlns:xlink="http://www.w3.org/1999/xlink">
<g id="graph0" class="graph" transform="scale(1 1) rotate(0) translate(4 544)">
<title>%3</title>
<polygon fill="transparent" stroke="transparent" points="-4,4 -4,-544 1404.5,-544 1404.5,4 -4,4"/>
<!-- 14 -->
<g id="node1" class="node">
<title>14</title>
<g id="a_node1"><a xlink:title="AtomTable">
<polygon fill="#ffffff" stroke="black" points="168.5,-324 76.5,-324 76.5,-288 168.5,-288 168.5,-324"/>
<text text-anchor="middle" x="122.5" y="-302.3" font-family="Times,serif" font-size="14.00">AtomTable</text>
</a>
</g>
</g>
<!-- 15 -->
<g id="node7" class="node">
<title>15</title>
<g id="a_node7"><a xlink:title="HNode">
<polygon fill="#ffffff" stroke="black" points="125.5,-180 59.5,-180 59.5,-144 125.5,-144 125.5,-180"/>
<text text-anchor="middle" x="92.5" y="-158.3" font-family="Times,serif" font-size="14.00">HNode</text>
</a>
</g>
</g>
<!-- 14&#45;&gt;15 -->
<g id="edge1" class="edge">
<title>14&#45;&gt;15</title>
<g id="a_edge1"><a xlink:title="usage">
<path fill="none" stroke="#1414ce" d="M91.73,-287.91C78.96,-279.02 65.5,-266.88 58.5,-252 48.64,-231.03 59.75,-206.36 71.83,-188.32"/>
<polygon fill="#1414ce" stroke="#1414ce" points="74.78,-190.21 77.76,-180.04 69.09,-186.14 74.78,-190.21"/>
</a>
</g>
</g>
<!-- 18 -->
<g id="node8" class="node">
<title>18</title>
<g id="a_node8"><a xlink:title="HNodeGroup">
<polygon fill="#ffffff" stroke="black" points="177.5,-252 67.5,-252 67.5,-216 177.5,-216 177.5,-252"/>
<text text-anchor="middle" x="122.5" y="-230.3" font-family="Times,serif" font-size="14.00">HNodeGroup</text>
</a>
</g>
</g>
<!-- 14&#45;&gt;18 -->
<g id="edge2" class="edge">
<title>14&#45;&gt;18</title>
<g id="a_edge2"><a xlink:title="usage">
<path fill="none" stroke="#1414ce" d="M122.5,-287.7C122.5,-279.98 122.5,-270.71 122.5,-262.11"/>
<polygon fill="#1414ce" stroke="#1414ce" points="126,-262.1 122.5,-252.1 119,-262.1 126,-262.1"/>
</a>
</g>
</g>
<!-- 1 -->
<g id="node2" class="node">
<title>1</title>
<g id="a_node2"><a xlink:title="Bif">
<polygon fill="#bfbfbf" stroke="black" points="1047.5,-540 993.5,-540 993.5,-504 1047.5,-504 1047.5,-540"/>
<text text-anchor="middle" x="1020.5" y="-518.3" font-family="Times,serif" font-size="14.00">Bif</text>
</a>
</g>
</g>
<!-- 3 -->
<g id="node3" class="node">
<title>3</title>
<g id="a_node3"><a xlink:title="Context">
<polygon fill="#ffffff" stroke="black" points="1016,-468 943,-468 943,-432 1016,-432 1016,-468"/>
<text text-anchor="middle" x="979.5" y="-446.3" font-family="Times,serif" font-size="14.00">Context</text>
</a>
</g>
</g>
<!-- 1&#45;&gt;3 -->
<g id="edge4" class="edge">
<title>1&#45;&gt;3</title>
<g id="a_edge4"><a xlink:title="usage">
<path fill="none" stroke="#1414ce" d="M1010.37,-503.7C1005.65,-495.64 999.94,-485.89 994.72,-476.98"/>
<polygon fill="#1414ce" stroke="#1414ce" points="997.59,-474.96 989.52,-468.1 991.55,-478.5 997.59,-474.96"/>
</a>
</g>
</g>
<!-- 2 -->
<g id="node5" class="node">
<title>2</title>
<g id="a_node5"><a xlink:title="ExportedFunction">
<polygon fill="#ffffff" stroke="black" points="1278.5,-252 1132.5,-252 1132.5,-216 1278.5,-216 1278.5,-252"/>
<text text-anchor="middle" x="1205.5" y="-230.3" font-family="Times,serif" font-size="14.00">ExportedFunction</text>
</a>
</g>
</g>
<!-- 1&#45;&gt;2 -->
<g id="edge3" class="edge">
<title>1&#45;&gt;2</title>
<g id="a_edge3"><a xlink:title="usage">
<path fill="none" stroke="#1414ce" d="M1047.75,-507.46C1083.74,-488.05 1146.22,-448.74 1177.5,-396 1202.31,-354.16 1206.45,-296.15 1206.47,-262.4"/>
<polygon fill="#1414ce" stroke="#1414ce" points="1209.97,-262.3 1206.36,-252.34 1202.97,-262.38 1209.97,-262.3"/>
</a>
</g>
</g>
<!-- 3&#45;&gt;3 -->
<g id="edge10" class="edge">
<title>3&#45;&gt;3</title>
<g id="a_edge10"><a xlink:title="usage">
<path fill="none" stroke="#1414ce" d="M1016.18,-463.42C1026.28,-462.77 1034,-458.3 1034,-450 1034,-444.81 1030.98,-441.12 1026.26,-438.93"/>
<polygon fill="#1414ce" stroke="#1414ce" points="1026.71,-435.44 1016.18,-436.58 1025.13,-442.26 1026.71,-435.44"/>
</a>
</g>
</g>
<!-- 4 -->
<g id="node6" class="node">
<title>4</title>
<g id="a_node6"><a xlink:title="GlobalContext">
<polygon fill="#ffffff" stroke="black" points="781,-396 662,-396 662,-360 781,-360 781,-396"/>
<text text-anchor="middle" x="721.5" y="-374.3" font-family="Times,serif" font-size="14.00">GlobalContext</text>
</a>
</g>
</g>
<!-- 3&#45;&gt;4 -->
<g id="edge5" class="edge">
<title>3&#45;&gt;4</title>
<g id="a_edge5"><a xlink:title="usage">
<path fill="none" stroke="#1414ce" d="M942.81,-439.05C903.5,-428.38 840.19,-411.2 791.33,-397.95"/>
<polygon fill="#1414ce" stroke="#1414ce" points="792.01,-394.51 781.45,-395.26 790.18,-401.26 792.01,-394.51"/>
</a>
</g>
</g>
<!-- 16 -->
<g id="node9" class="node">
<title>16</title>
<g id="a_node9"><a xlink:title="Heap">
<polygon fill="#ffffff" stroke="black" points="89.5,-108 35.5,-108 35.5,-72 89.5,-72 89.5,-108"/>
<text text-anchor="middle" x="62.5" y="-86.3" font-family="Times,serif" font-size="14.00">Heap</text>
</a>
</g>
</g>
<!-- 3&#45;&gt;16 -->
<g id="edge6" class="edge">
<title>3&#45;&gt;16</title>
<g id="a_edge6"><a xlink:title="usage">
<path fill="none" stroke="#1414ce" d="M942.95,-447.62C765.4,-440.47 1.5,-404.05 1.5,-307 1.5,-307 1.5,-307 1.5,-233 1.5,-189.61 25.84,-144.37 43.77,-116.94"/>
<polygon fill="#1414ce" stroke="#1414ce" points="46.88,-118.59 49.56,-108.34 41.07,-114.68 46.88,-118.59"/>
</a>
</g>
</g>
<!-- 5 -->
<g id="node11" class="node">
<title>5</title>
<g id="a_node11"><a xlink:title="ListHead">
<polygon fill="#ffffff" stroke="black" points="641,-36 560,-36 560,0 641,0 641,-36"/>
<text text-anchor="middle" x="600.5" y="-14.3" font-family="Times,serif" font-size="14.00">ListHead</text>
</a>
</g>
</g>
<!-- 3&#45;&gt;5 -->
<g id="edge7" class="edge">
<title>3&#45;&gt;5</title>
<g id="a_edge7"><a xlink:title="usage">
<path fill="none" stroke="#1414ce" d="M942.87,-448.23C812.6,-444.51 379.5,-423.41 379.5,-307 379.5,-307 379.5,-307 379.5,-161 379.5,-114.96 396.4,-100.58 432.5,-72 466.22,-45.31 513.58,-31.95 549.43,-25.33"/>
<polygon fill="#1414ce" stroke="#1414ce" points="550.43,-28.71 559.68,-23.56 549.24,-21.81 550.43,-28.71"/>
</a>
</g>
</g>
<!-- 24 -->
<g id="node13" class="node">
<title>24</title>
<g id="a_node13"><a xlink:title="Mailbox">
<polygon fill="#ffffff" stroke="black" points="1168.5,-396 1094.5,-396 1094.5,-360 1168.5,-360 1168.5,-396"/>
<text text-anchor="middle" x="1131.5" y="-374.3" font-family="Times,serif" font-size="14.00">Mailbox</text>
</a>
</g>
</g>
<!-- 3&#45;&gt;24 -->
<g id="edge11" class="edge">
<title>3&#45;&gt;24</title>
<g id="a_edge11"><a xlink:title="usage">
<path fill="none" stroke="#1414ce" d="M1016.29,-432.05C1037.05,-422.5 1063.18,-410.46 1085.31,-400.27"/>
<polygon fill="#1414ce" stroke="#1414ce" points="1086.9,-403.39 1094.52,-396.03 1083.97,-397.04 1086.9,-403.39"/>
</a>
</g>
</g>
<!-- 20 -->
<g id="node16" class="node">
<title>20</title>
<g id="a_node16"><a xlink:title="Module">
<polygon fill="#ffffff" stroke="black" points="1303.5,-324 1233.5,-324 1233.5,-288 1303.5,-288 1303.5,-324"/>
<text text-anchor="middle" x="1268.5" y="-302.3" font-family="Times,serif" font-size="14.00">Module</text>
</a>
</g>
</g>
<!-- 3&#45;&gt;20 -->
<g id="edge9" class="edge">
<title>3&#45;&gt;20</title>
<g id="a_edge9"><a xlink:title="usage">
<path fill="none" stroke="#1414ce" d="M1016.35,-443.82C1056.08,-437.41 1119.8,-423.75 1168.5,-396 1197.32,-379.58 1223.62,-351.83 1242.27,-331.67"/>
<polygon fill="#1414ce" stroke="#1414ce" points="1245.06,-333.81 1249.28,-324.09 1239.92,-329.05 1245.06,-333.81"/>
</a>
</g>
</g>
<!-- 23 -->
<g id="node23" class="node">
<title>23</title>
<g id="a_node23"><a xlink:title="TimerListItem">
<polygon fill="#ffffff" stroke="black" points="945,-180 826,-180 826,-144 945,-144 945,-180"/>
<text text-anchor="middle" x="885.5" y="-158.3" font-family="Times,serif" font-size="14.00">TimerListItem</text>
</a>
</g>
</g>
<!-- 3&#45;&gt;23 -->
<g id="edge8" class="edge">
<title>3&#45;&gt;23</title>
<g id="a_edge8"><a xlink:title="usage">
<path fill="none" stroke="#1414ce" d="M952.61,-431.92C922.18,-410.81 874.29,-371.78 854.5,-324 835.84,-278.96 856.03,-222.12 871.43,-189.43"/>
<polygon fill="#1414ce" stroke="#1414ce" points="874.75,-190.62 876.01,-180.1 868.46,-187.53 874.75,-190.62"/>
</a>
</g>
</g>
<!-- 13 -->
<g id="node4" class="node">
<title>13</title>
<g id="a_node4"><a xlink:title="Ets">
<polygon fill="#ffffff" stroke="black" points="731.5,-180 677.5,-180 677.5,-144 731.5,-144 731.5,-180"/>
<text text-anchor="middle" x="704.5" y="-158.3" font-family="Times,serif" font-size="14.00">Ets</text>
</a>
</g>
</g>
<!-- 12 -->
<g id="node21" class="node">
<title>12</title>
<g id="a_node21"><a xlink:title="SyncList">
<polygon fill="#ffffff" stroke="black" points="721.5,-108 643.5,-108 643.5,-72 721.5,-72 721.5,-108"/>
<text text-anchor="middle" x="682.5" y="-86.3" font-family="Times,serif" font-size="14.00">SyncList</text>
</a>
</g>
</g>
<!-- 13&#45;&gt;12 -->
<g id="edge12" class="edge">
<title>13&#45;&gt;12</title>
<g id="a_edge12"><a xlink:title="usage">
<path fill="none" stroke="#1414ce" d="M699.06,-143.7C696.61,-135.9 693.66,-126.51 690.93,-117.83"/>
<polygon fill="#1414ce" stroke="#1414ce" points="694.21,-116.59 687.88,-108.1 687.54,-118.69 694.21,-116.59"/>
</a>
</g>
</g>
<!-- 4&#45;&gt;14 -->
<g id="edge19" class="edge">
<title>4&#45;&gt;14</title>
<g id="a_edge19"><a xlink:title="usage">
<path fill="none" stroke="#1414ce" d="M661.88,-370.03C546.09,-356.5 292.26,-326.84 179,-313.6"/>
<polygon fill="#1414ce" stroke="#1414ce" points="179.15,-310.1 168.81,-312.41 178.34,-317.05 179.15,-310.1"/>
</a>
</g>
</g>
<!-- 4&#45;&gt;13 -->
<g id="edge18" class="edge">
<title>4&#45;&gt;13</title>
<g id="a_edge18"><a xlink:title="usage">
<path fill="none" stroke="#1414ce" d="M720.14,-359.85C717.2,-322.83 710.23,-235.18 706.68,-190.39"/>
<polygon fill="#1414ce" stroke="#1414ce" points="710.15,-189.92 705.87,-180.23 703.17,-190.48 710.15,-189.92"/>
</a>
</g>
</g>
<!-- 4&#45;&gt;5 -->
<g id="edge13" class="edge">
<title>4&#45;&gt;5</title>
<g id="a_edge13"><a xlink:title="usage">
<path fill="none" stroke="#1414ce" d="M661.85,-373.55C587.91,-368.02 467.82,-354.5 436.5,-324 407.52,-295.78 417.5,-275.45 417.5,-235 417.5,-235 417.5,-235 417.5,-161 417.5,-93.47 496.23,-53.44 550.42,-33.88"/>
<polygon fill="#1414ce" stroke="#1414ce" points="551.6,-37.18 559.89,-30.58 549.29,-30.57 551.6,-37.18"/>
</a>
</g>
</g>
<!-- 7 -->
<g id="node15" class="node">
<title>7</title>
<g id="a_node15"><a xlink:title="MessageQueueItem">
<polygon fill="#ffffff" stroke="black" points="1021.5,-324 863.5,-324 863.5,-288 1021.5,-288 1021.5,-324"/>
<text text-anchor="middle" x="942.5" y="-302.3" font-family="Times,serif" font-size="14.00">MessageQueueItem</text>
</a>
</g>
</g>
<!-- 4&#45;&gt;7 -->
<g id="edge15" class="edge">
<title>4&#45;&gt;7</title>
<g id="a_edge15"><a xlink:title="usage">
<path fill="none" stroke="#1414ce" d="M775.28,-359.97C806.43,-350.1 845.82,-337.62 878.55,-327.25"/>
<polygon fill="#1414ce" stroke="#1414ce" points="880,-330.47 888.48,-324.11 877.89,-323.79 880,-330.47"/>
</a>
</g>
</g>
<!-- 4&#45;&gt;20 -->
<g id="edge21" class="edge">
<title>4&#45;&gt;20</title>
<g id="a_edge21"><a xlink:title="usage">
<path fill="none" stroke="#1414ce" d="M781.3,-369.91C863.92,-360.03 1017.62,-341.39 1148.5,-324 1173.28,-320.71 1200.9,-316.81 1223.4,-313.58"/>
<polygon fill="#1414ce" stroke="#1414ce" points="1223.94,-317.03 1233.34,-312.14 1222.94,-310.11 1223.94,-317.03"/>
</a>
</g>
</g>
<!-- 9 -->
<g id="node18" class="node">
<title>9</title>
<g id="a_node18"><a xlink:title="RefcBinaryQueueItem">
<polygon fill="#ffffff" stroke="black" points="619.5,-324 445.5,-324 445.5,-288 619.5,-288 619.5,-324"/>
<text text-anchor="middle" x="532.5" y="-302.3" font-family="Times,serif" font-size="14.00">RefcBinaryQueueItem</text>
</a>
</g>
</g>
<!-- 4&#45;&gt;9 -->
<g id="edge16" class="edge">
<title>4&#45;&gt;9</title>
<g id="a_edge16"><a xlink:title="usage">
<path fill="none" stroke="#1414ce" d="M675.27,-359.88C648.97,-350.14 615.86,-337.87 588.14,-327.61"/>
<polygon fill="#1414ce" stroke="#1414ce" points="589.18,-324.26 578.58,-324.07 586.75,-330.82 589.18,-324.26"/>
</a>
</g>
</g>
<!-- 11 -->
<g id="node19" class="node">
<title>11</title>
<g id="a_node19"><a xlink:title="ResourceType">
<polygon fill="#ffffff" stroke="black" points="659,-180 542,-180 542,-144 659,-144 659,-180"/>
<text text-anchor="middle" x="600.5" y="-158.3" font-family="Times,serif" font-size="14.00">ResourceType</text>
</a>
</g>
</g>
<!-- 4&#45;&gt;11 -->
<g id="edge23" class="edge">
<title>4&#45;&gt;11</title>
<g id="a_edge23"><a xlink:title="usage">
<path fill="none" stroke="#1414ce" d="M707.93,-359.85C683.25,-322.52 632.78,-233.69 610.73,-189.26"/>
<polygon fill="#1414ce" stroke="#1414ce" points="613.87,-187.71 606.36,-180.23 607.57,-190.76 613.87,-187.71"/>
</a>
</g>
</g>
<!-- 6 -->
<g id="node20" class="node">
<title>6</title>
<g id="a_node20"><a xlink:title="SpinLock">
<polygon fill="#ffffff" stroke="black" points="1139.5,-324 1057.5,-324 1057.5,-288 1139.5,-288 1139.5,-324"/>
<text text-anchor="middle" x="1098.5" y="-302.3" font-family="Times,serif" font-size="14.00">SpinLock</text>
</a>
</g>
</g>
<!-- 4&#45;&gt;6 -->
<g id="edge14" class="edge">
<title>4&#45;&gt;6</title>
<g id="a_edge14"><a xlink:title="usage">
<path fill="none" stroke="#1414ce" d="M781.18,-370.37C845.07,-362.59 949.43,-347.93 1047.67,-323.98"/>
<polygon fill="#1414ce" stroke="#1414ce" points="1048.6,-327.36 1057.46,-321.56 1046.91,-320.56 1048.6,-327.36"/>
</a>
</g>
</g>
<!-- 4&#45;&gt;12 -->
<g id="edge17" class="edge">
<title>4&#45;&gt;12</title>
<g id="a_edge17"><a xlink:title="usage">
<path fill="none" stroke="#1414ce" d="M728.2,-359.99C742.77,-320.21 773.49,-218.83 740.5,-144 735.51,-132.69 726.79,-122.74 717.6,-114.62"/>
<polygon fill="#1414ce" stroke="#1414ce" points="719.78,-111.88 709.84,-108.23 715.33,-117.28 719.78,-111.88"/>
</a>
</g>
</g>
<!-- 22 -->
<g id="node22" class="node">
<title>22</title>
<g id="a_node22"><a xlink:title="TimerList">
<polygon fill="#ffffff" stroke="black" points="832.5,-108 746.5,-108 746.5,-72 832.5,-72 832.5,-108"/>
<text text-anchor="middle" x="789.5" y="-86.3" font-family="Times,serif" font-size="14.00">TimerList</text>
</a>
</g>
</g>
<!-- 4&#45;&gt;22 -->
<g id="edge22" class="edge">
<title>4&#45;&gt;22</title>
<g id="a_edge22"><a xlink:title="usage">
<path fill="none" stroke="#1414ce" d="M735.96,-359.97C743.58,-350.09 752.38,-337.05 757.5,-324 785.21,-253.43 789.56,-162.64 789.85,-118.1"/>
<polygon fill="#1414ce" stroke="#1414ce" points="793.35,-118.07 789.86,-108.06 786.35,-118.06 793.35,-118.07"/>
</a>
</g>
</g>
<!-- 19 -->
<g id="node24" class="node">
<title>19</title>
<g id="a_node24"><a xlink:title="ValuesHashTable">
<polygon fill="#ffffff" stroke="black" points="351.5,-252 213.5,-252 213.5,-216 351.5,-216 351.5,-252"/>
<text text-anchor="middle" x="282.5" y="-230.3" font-family="Times,serif" font-size="14.00">ValuesHashTable</text>
</a>
</g>
</g>
<!-- 4&#45;&gt;19 -->
<g id="edge20" class="edge">
<title>4&#45;&gt;19</title>
<g id="a_edge20"><a xlink:title="usage">
<path fill="none" stroke="#1414ce" d="M661.77,-375.29C596.08,-371.56 488.57,-359.93 403.5,-324 366.75,-308.48 330.72,-279.73 307.67,-259.1"/>
<polygon fill="#1414ce" stroke="#1414ce" points="309.82,-256.33 300.07,-252.18 305.11,-261.5 309.82,-256.33"/>
</a>
</g>
</g>
<!-- 15&#45;&gt;15 -->
<g id="edge24" class="edge">
<title>15&#45;&gt;15</title>
<g id="a_edge24"><a xlink:title="usage">
<path fill="none" stroke="#1414ce" d="M125.85,-175.47C135.78,-175.07 143.5,-170.58 143.5,-162 143.5,-156.64 140.48,-152.87 135.8,-150.71"/>
<polygon fill="#1414ce" stroke="#1414ce" points="136.37,-147.25 125.85,-148.53 134.87,-154.09 136.37,-147.25"/>
</a>
</g>
</g>
<!-- 15&#45;&gt;16 -->
<g id="edge25" class="edge">
<title>15&#45;&gt;16</title>
<g id="a_edge25"><a xlink:title="usage">
<path fill="none" stroke="#1414ce" d="M85.08,-143.7C81.71,-135.81 77.63,-126.3 73.88,-117.55"/>
<polygon fill="#1414ce" stroke="#1414ce" points="76.99,-115.92 69.83,-108.1 70.55,-118.67 76.99,-115.92"/>
</a>
</g>
</g>
<!-- 18&#45;&gt;15 -->
<g id="edge27" class="edge">
<title>18&#45;&gt;15</title>
<g id="a_edge27"><a xlink:title="usage">
<path fill="none" stroke="#1414ce" d="M115.08,-215.7C111.71,-207.81 107.63,-198.3 103.88,-189.55"/>
<polygon fill="#1414ce" stroke="#1414ce" points="106.99,-187.92 99.83,-180.1 100.55,-190.67 106.99,-187.92"/>
</a>
</g>
</g>
<!-- 18&#45;&gt;18 -->
<g id="edge26" class="edge">
<title>18&#45;&gt;18</title>
<g id="a_edge26"><a xlink:title="usage">
<path fill="none" stroke="#1414ce" d="M177.57,-246.85C188.07,-245.32 195.5,-241.03 195.5,-234 195.5,-229.5 192.45,-226.12 187.5,-223.87"/>
<polygon fill="#1414ce" stroke="#1414ce" points="188.14,-220.42 177.57,-221.15 186.29,-227.17 188.14,-220.42"/>
</a>
</g>
</g>
<!-- 17 -->
<g id="node10" class="node">
<title>17</title>
<g id="a_node10"><a xlink:title="HeapFragment">
<polygon fill="#ffffff" stroke="black" points="125,-36 0,-36 0,0 125,0 125,-36"/>
<text text-anchor="middle" x="62.5" y="-14.3" font-family="Times,serif" font-size="14.00">HeapFragment</text>
</a>
</g>
</g>
<!-- 16&#45;&gt;17 -->
<g id="edge28" class="edge">
<title>16&#45;&gt;17</title>
<g id="a_edge28"><a xlink:title="usage">
<path fill="none" stroke="#1414ce" d="M62.5,-71.7C62.5,-63.98 62.5,-54.71 62.5,-46.11"/>
<polygon fill="#1414ce" stroke="#1414ce" points="66,-46.1 62.5,-36.1 59,-46.1 66,-46.1"/>
</a>
</g>
</g>
<!-- 17&#45;&gt;17 -->
<g id="edge29" class="edge">
<title>17&#45;&gt;17</title>
<g id="a_edge29"><a xlink:title="usage">
<path fill="none" stroke="#1414ce" d="M125.28,-30.55C135.76,-28.79 143,-24.61 143,-18 143,-13.77 140.03,-10.53 135.14,-8.29"/>
<polygon fill="#1414ce" stroke="#1414ce" points="135.86,-4.85 125.28,-5.45 133.92,-11.58 135.86,-4.85"/>
</a>
</g>
</g>
<!-- 5&#45;&gt;5 -->
<g id="edge30" class="edge">
<title>5&#45;&gt;5</title>
<g id="a_edge30"><a xlink:title="usage">
<path fill="none" stroke="#1414ce" d="M641.23,-31.31C651.4,-30.38 659,-25.95 659,-18 659,-12.91 655.88,-9.26 650.97,-7.05"/>
<polygon fill="#1414ce" stroke="#1414ce" points="651.78,-3.64 641.23,-4.69 650.13,-10.45 651.78,-3.64"/>
</a>
</g>
</g>
<!-- 21 -->
<g id="node12" class="node">
<title>21</title>
<g id="a_node12"><a xlink:title="LiteralEntry">
<polygon fill="#ffffff" stroke="black" points="1400.5,-252 1296.5,-252 1296.5,-216 1400.5,-216 1400.5,-252"/>
<text text-anchor="middle" x="1348.5" y="-230.3" font-family="Times,serif" font-size="14.00">LiteralEntry</text>
</a>
</g>
</g>
<!-- 8 -->
<g id="node14" class="node">
<title>8</title>
<g id="a_node14"><a xlink:title="MailboxMessage">
<polygon fill="#ffffff" stroke="black" points="1054,-252 917,-252 917,-216 1054,-216 1054,-252"/>
<text text-anchor="middle" x="985.5" y="-230.3" font-family="Times,serif" font-size="14.00">MailboxMessage</text>
</a>
</g>
</g>
<!-- 24&#45;&gt;8 -->
<g id="edge31" class="edge">
<title>24&#45;&gt;8</title>
<g id="a_edge31"><a xlink:title="usage">
<path fill="none" stroke="#1414ce" d="M1141.83,-359.92C1152,-340.65 1163.94,-309.25 1148.5,-288 1129.09,-261.28 1095.87,-247.77 1064.47,-241.03"/>
<polygon fill="#1414ce" stroke="#1414ce" points="1064.84,-237.54 1054.36,-239.07 1063.51,-244.41 1064.84,-237.54"/>
</a>
</g>
</g>
<!-- 8&#45;&gt;8 -->
<g id="edge32" class="edge">
<title>8&#45;&gt;8</title>
<g id="a_edge32"><a xlink:title="usage">
<path fill="none" stroke="#1414ce" d="M1054.03,-246.37C1064.71,-244.52 1072,-240.4 1072,-234 1072,-229.8 1068.86,-226.58 1063.68,-224.34"/>
<polygon fill="#1414ce" stroke="#1414ce" points="1064.6,-220.96 1054.03,-221.63 1062.71,-227.7 1064.6,-220.96"/>
</a>
</g>
</g>
<!-- 7&#45;&gt;8 -->
<g id="edge34" class="edge">
<title>7&#45;&gt;8</title>
<g id="a_edge34"><a xlink:title="usage">
<path fill="none" stroke="#1414ce" d="M953.13,-287.7C958.13,-279.56 964.19,-269.69 969.71,-260.7"/>
<polygon fill="#1414ce" stroke="#1414ce" points="972.74,-262.46 974.99,-252.1 966.78,-258.79 972.74,-262.46"/>
</a>
</g>
</g>
<!-- 7&#45;&gt;7 -->
<g id="edge33" class="edge">
<title>7&#45;&gt;7</title>
<g id="a_edge33"><a xlink:title="usage">
<path fill="none" stroke="#1414ce" d="M1021.66,-317.98C1032.37,-315.97 1039.5,-311.98 1039.5,-306 1039.5,-302.08 1036.43,-299.01 1031.29,-296.8"/>
<polygon fill="#1414ce" stroke="#1414ce" points="1032.24,-293.43 1021.66,-294.02 1030.3,-300.15 1032.24,-293.43"/>
</a>
</g>
</g>
<!-- 20&#45;&gt;3 -->
<g id="edge35" class="edge">
<title>20&#45;&gt;3</title>
<g id="a_edge35"><a xlink:title="usage">
<path fill="none" stroke="#1414ce" d="M1262.01,-324.09C1248.56,-344.26 1219.14,-377.4 1186.5,-396 1136.41,-424.54 1070.42,-438.18 1026.43,-444.36"/>
<polygon fill="#1414ce" stroke="#1414ce" points="1025.75,-440.92 1016.3,-445.7 1026.67,-447.85 1025.75,-440.92"/>
</a>
</g>
</g>
<!-- 20&#45;&gt;2 -->
<g id="edge36" class="edge">
<title>20&#45;&gt;2</title>
<g id="a_edge36"><a xlink:title="usage">
<path fill="none" stroke="#1414ce" d="M1252.93,-287.7C1245.3,-279.22 1235.98,-268.86 1227.62,-259.58"/>
<polygon fill="#1414ce" stroke="#1414ce" points="1230.19,-257.2 1220.89,-252.1 1224.98,-261.88 1230.19,-257.2"/>
</a>
</g>
</g>
<!-- 20&#45;&gt;21 -->
<g id="edge37" class="edge">
<title>20&#45;&gt;21</title>
<g id="a_edge37"><a xlink:title="usage">
<path fill="none" stroke="#1414ce" d="M1288.28,-287.7C1298.25,-278.97 1310.51,-268.24 1321.36,-258.75"/>
<polygon fill="#1414ce" stroke="#1414ce" points="1323.73,-261.32 1328.95,-252.1 1319.12,-256.06 1323.73,-261.32"/>
</a>
</g>
</g>
<!-- 10 -->
<g id="node17" class="node">
<title>10</title>
<g id="a_node17"><a xlink:title="RefcBinary">
<polygon fill="#ffffff" stroke="black" points="580,-252 485,-252 485,-216 580,-216 580,-252"/>
<text text-anchor="middle" x="532.5" y="-230.3" font-family="Times,serif" font-size="14.00">RefcBinary</text>
</a>
</g>
</g>
<!-- 10&#45;&gt;5 -->
<g id="edge38" class="edge">
<title>10&#45;&gt;5</title>
<g id="a_edge38"><a xlink:title="usage">
<path fill="none" stroke="#1414ce" d="M530.32,-215.96C528.54,-197.81 527.23,-168.39 533.5,-144 543.06,-106.83 565.81,-68.59 582.15,-44.36"/>
<polygon fill="#1414ce" stroke="#1414ce" points="585.05,-46.31 587.84,-36.09 579.29,-42.34 585.05,-46.31"/>
</a>
</g>
</g>
<!-- 10&#45;&gt;11 -->
<g id="edge39" class="edge">
<title>10&#45;&gt;11</title>
<g id="a_edge39"><a xlink:title="usage">
<path fill="none" stroke="#1414ce" d="M549.31,-215.7C557.63,-207.14 567.81,-196.66 576.89,-187.3"/>
<polygon fill="#1414ce" stroke="#1414ce" points="579.43,-189.72 583.88,-180.1 574.41,-184.84 579.43,-189.72"/>
</a>
</g>
</g>
<!-- 9&#45;&gt;10 -->
<g id="edge41" class="edge">
<title>9&#45;&gt;10</title>
<g id="a_edge41"><a xlink:title="usage">
<path fill="none" stroke="#1414ce" d="M532.5,-287.7C532.5,-279.98 532.5,-270.71 532.5,-262.11"/>
<polygon fill="#1414ce" stroke="#1414ce" points="536,-262.1 532.5,-252.1 529,-262.1 536,-262.1"/>
</a>
</g>
</g>
<!-- 9&#45;&gt;9 -->
<g id="edge40" class="edge">
<title>9&#45;&gt;9</title>
<g id="a_edge40"><a xlink:title="usage">
<path fill="none" stroke="#1414ce" d="M619.8,-317.68C630.49,-315.59 637.5,-311.7 637.5,-306 637.5,-302.35 634.62,-299.44 629.75,-297.27"/>
<polygon fill="#1414ce" stroke="#1414ce" points="630.38,-293.81 619.8,-294.32 628.39,-300.52 630.38,-293.81"/>
</a>
</g>
</g>
<!-- 11&#45;&gt;4 -->
<g id="edge43" class="edge">
<title>11&#45;&gt;4</title>
<g id="a_edge43"><a xlink:title="usage">
<path fill="none" stroke="#1414ce" d="M614.13,-180.23C638.84,-217.64 689.31,-306.47 711.32,-350.84"/>
<polygon fill="#1414ce" stroke="#1414ce" points="708.17,-352.37 715.68,-359.85 714.47,-349.32 708.17,-352.37"/>
</a>
</g>
</g>
<!-- 11&#45;&gt;5 -->
<g id="edge42" class="edge">
<title>11&#45;&gt;5</title>
<g id="a_edge42"><a xlink:title="usage">
<path fill="none" stroke="#1414ce" d="M600.5,-143.87C600.5,-119.67 600.5,-75.21 600.5,-46.39"/>
<polygon fill="#1414ce" stroke="#1414ce" points="604,-46.19 600.5,-36.19 597,-46.19 604,-46.19"/>
</a>
</g>
</g>
<!-- 11&#45;&gt;12 -->
<g id="edge44" class="edge">
<title>11&#45;&gt;12</title>
<g id="a_edge44"><a xlink:title="usage">
<path fill="none" stroke="#1414ce" d="M620.77,-143.7C631,-134.97 643.56,-124.24 654.68,-114.75"/>
<polygon fill="#1414ce" stroke="#1414ce" points="657.13,-117.26 662.46,-108.1 652.59,-111.94 657.13,-117.26"/>
</a>
</g>
</g>
<!-- 12&#45;&gt;5 -->
<g id="edge45" class="edge">
<title>12&#45;&gt;5</title>
<g id="a_edge45"><a xlink:title="usage">
<path fill="none" stroke="#1414ce" d="M662.23,-71.7C652,-62.97 639.44,-52.24 628.32,-42.75"/>
<polygon fill="#1414ce" stroke="#1414ce" points="630.41,-39.94 620.54,-36.1 625.87,-45.26 630.41,-39.94"/>
</a>
</g>
</g>
<!-- 22&#45;&gt;5 -->
<g id="edge46" class="edge">
<title>22&#45;&gt;5</title>
<g id="a_edge46"><a xlink:title="usage">
<path fill="none" stroke="#1414ce" d="M746.14,-72.94C717.74,-62.42 680.53,-48.64 650.83,-37.64"/>
<polygon fill="#1414ce" stroke="#1414ce" points="651.67,-34.22 641.07,-34.03 649.23,-40.78 651.67,-34.22"/>
</a>
</g>
</g>
<!-- 23&#45;&gt;5 -->
<g id="edge47" class="edge">
<title>23&#45;&gt;5</title>
<g id="a_edge47"><a xlink:title="usage">
<path fill="none" stroke="#1414ce" d="M881.75,-143.73C876.41,-123.38 864.58,-90.06 841.5,-72 812.34,-49.18 712.66,-33.01 651,-24.92"/>
<polygon fill="#1414ce" stroke="#1414ce" points="651.44,-21.44 641.08,-23.64 650.55,-28.39 651.44,-21.44"/>
</a>
</g>
</g>
<!-- 19&#45;&gt;15 -->
<g id="edge48" class="edge">
<title>19&#45;&gt;15</title>
<g id="a_edge48"><a xlink:title="usage">
<path fill="none" stroke="#1414ce" d="M236.02,-215.88C205.32,-204.57 165.39,-189.85 135.44,-178.82"/>
<polygon fill="#1414ce" stroke="#1414ce" points="136.29,-175.4 125.69,-175.23 133.87,-181.97 136.29,-175.4"/>
</a>
</g>
</g>
</g>
</svg>
