<?xml version="1.0" encoding="UTF-8" standalone="no"?>
<!DOCTYPE svg PUBLIC "-//W3C//DTD SVG 1.1//EN"
 "http://www.w3.org/Graphics/SVG/1.1/DTD/svg11.dtd">
<!-- Generated by graphviz version 2.43.0 (0)
 -->
<!-- Title: %3 Pages: 1 -->
<svg width="1009pt" height="548pt"
 viewBox="0.00 0.00 1009.14 548.00" xmlns="http://www.w3.org/2000/svg" xmlns:xlink="http://www.w3.org/1999/xlink">
<g id="graph0" class="graph" transform="scale(1 1) rotate(0) translate(4 544)">
<title>%3</title>
<polygon fill="transparent" stroke="transparent" points="-4,4 -4,-544 1005.14,-544 1005.14,4 -4,4"/>
<!-- 12 -->
<g id="node1" class="node">
<title>12</title>
<g id="a_node1"><a xlink:title="atom.h">
<polygon fill="#ffffff" stroke="black" points="96.64,-396 30.64,-396 30.64,-360 96.64,-360 96.64,-396"/>
<text text-anchor="middle" x="63.64" y="-374.3" font-family="Times,serif" font-size="14.00">atom.h</text>
</a>
</g>
</g>
<!-- 9 -->
<g id="node19" class="node">
<title>9</title>
<g id="a_node19"><a xlink:title="stdint.h">
<polygon fill="#ffffff" stroke="black" points="200.64,-36 128.64,-36 128.64,0 200.64,0 200.64,-36"/>
<text text-anchor="middle" x="164.64" y="-14.3" font-family="Times,serif" font-size="14.00">stdint.h</text>
</a>
</g>
</g>
<!-- 12&#45;&gt;9 -->
<g id="edge1" class="edge">
<title>12&#45;&gt;9</title>
<g id="a_edge1"><a xlink:title="include">
<path fill="none" stroke="#1414ce" d="M60.6,-359.57C56.22,-332.86 48.64,-280.12 48.64,-235 48.64,-235 48.64,-235 48.64,-161 48.64,-109.79 94.44,-66.87 128.48,-42.04"/>
<polygon fill="#1414ce" stroke="#1414ce" points="130.71,-44.75 136.85,-36.12 126.66,-39.04 130.71,-44.75"/>
</a>
</g>
</g>
<!-- 10 -->
<g id="node21" class="node">
<title>10</title>
<g id="a_node21"><a xlink:title="stdlib.h">
<polygon fill="#ffffff" stroke="black" points="230.14,-108 159.14,-108 159.14,-72 230.14,-72 230.14,-108"/>
<text text-anchor="middle" x="194.64" y="-86.3" font-family="Times,serif" font-size="14.00">stdlib.h</text>
</a>
</g>
</g>
<!-- 12&#45;&gt;10 -->
<g id="edge2" class="edge">
<title>12&#45;&gt;10</title>
<g id="a_edge2"><a xlink:title="include">
<path fill="none" stroke="#1414ce" d="M62.72,-359.74C61.41,-318.55 63.21,-212.8 110.64,-144 120.44,-129.77 135.44,-118.56 150.06,-110.19"/>
<polygon fill="#1414ce" stroke="#1414ce" points="151.93,-113.16 159.07,-105.34 148.61,-107 151.93,-113.16"/>
</a>
</g>
</g>
<!-- 14 -->
<g id="node2" class="node">
<title>14</title>
<g id="a_node2"><a xlink:title="erl_nif.h">
<polygon fill="#ffffff" stroke="black" points="547.64,-180 473.64,-180 473.64,-144 547.64,-144 547.64,-180"/>
<text text-anchor="middle" x="510.64" y="-158.3" font-family="Times,serif" font-size="14.00">erl_nif.h</text>
</a>
</g>
</g>
<!-- 15 -->
<g id="node12" class="node">
<title>15</title>
<g id="a_node12"><a xlink:title="term_typedef.h">
<polygon fill="#ffffff" stroke="black" points="523.14,-108 398.14,-108 398.14,-72 523.14,-72 523.14,-108"/>
<text text-anchor="middle" x="460.64" y="-86.3" font-family="Times,serif" font-size="14.00">term_typedef.h</text>
</a>
</g>
</g>
<!-- 14&#45;&gt;15 -->
<g id="edge3" class="edge">
<title>14&#45;&gt;15</title>
<g id="a_edge3"><a xlink:title="include">
<path fill="none" stroke="#1414ce" d="M498.28,-143.7C492.4,-135.47 485.27,-125.48 478.79,-116.42"/>
<polygon fill="#1414ce" stroke="#1414ce" points="481.51,-114.21 472.85,-108.1 475.82,-118.28 481.51,-114.21"/>
</a>
</g>
</g>
<!-- 1 -->
<g id="node3" class="node">
<title>1</title>
<g id="a_node3"><a xlink:title="/__w/AtomVM/AtomVM/src/libAtomVM/ets.h">
<polygon fill="#bfbfbf" stroke="black" points="1001.14,-540 672.14,-540 672.14,-504 1001.14,-504 1001.14,-540"/>
<text text-anchor="middle" x="836.64" y="-518.3" font-family="Times,serif" font-size="14.00">/__w/AtomVM/AtomVM/src/libAtomVM/ets.h</text>
</a>
</g>
</g>
<!-- 2 -->
<g id="node4" class="node">
<title>2</title>
<g id="a_node4"><a xlink:title="list.h">
<polygon fill="#ffffff" stroke="black" points="707.64,-180 653.64,-180 653.64,-144 707.64,-144 707.64,-180"/>
<text text-anchor="middle" x="680.64" y="-158.3" font-family="Times,serif" font-size="14.00">list.h</text>
</a>
</g>
</g>
<!-- 1&#45;&gt;2 -->
<g id="edge4" class="edge">
<title>1&#45;&gt;2</title>
<g id="a_edge4"><a xlink:title="include">
<path fill="none" stroke="#1414ce" d="M829.11,-503.73C803.93,-445.96 722.52,-259.13 692.18,-189.49"/>
<polygon fill="#1414ce" stroke="#1414ce" points="695.29,-187.86 688.08,-180.09 688.87,-190.66 695.29,-187.86"/>
</a>
</g>
</g>
<!-- 4 -->
<g id="node10" class="node">
<title>4</title>
<g id="a_node10"><a xlink:title="synclist.h">
<polygon fill="#ffffff" stroke="black" points="891.14,-252 806.14,-252 806.14,-216 891.14,-216 891.14,-252"/>
<text text-anchor="middle" x="848.64" y="-230.3" font-family="Times,serif" font-size="14.00">synclist.h</text>
</a>
</g>
</g>
<!-- 1&#45;&gt;4 -->
<g id="edge5" class="edge">
<title>1&#45;&gt;4</title>
<g id="a_edge5"><a xlink:title="include">
<path fill="none" stroke="#1414ce" d="M842.46,-503.56C845.57,-493.33 849.07,-480.08 850.64,-468 860.24,-394.04 854.97,-305.75 851.27,-262.14"/>
<polygon fill="#1414ce" stroke="#1414ce" points="854.75,-261.7 850.38,-252.05 847.78,-262.32 854.75,-261.7"/>
</a>
</g>
</g>
<!-- 7 -->
<g id="node11" class="node">
<title>7</title>
<g id="a_node11"><a xlink:title="term.h">
<polygon fill="#ffffff" stroke="black" points="421.14,-468 356.14,-468 356.14,-432 421.14,-432 421.14,-468"/>
<text text-anchor="middle" x="388.64" y="-446.3" font-family="Times,serif" font-size="14.00">term.h</text>
</a>
</g>
</g>
<!-- 1&#45;&gt;7 -->
<g id="edge6" class="edge">
<title>1&#45;&gt;7</title>
<g id="a_edge6"><a xlink:title="include">
<path fill="none" stroke="#1414ce" d="M727.61,-503.97C632.47,-489.1 499.36,-468.3 431.74,-457.73"/>
<polygon fill="#1414ce" stroke="#1414ce" points="431.88,-454.21 421.46,-456.13 430.8,-461.13 431.88,-454.21"/>
</a>
</g>
</g>
<!-- 3 -->
<g id="node17" class="node">
<title>3</title>
<g id="a_node17"><a xlink:title="stdbool.h">
<polygon fill="#ffffff" stroke="black" points="781.14,-108 698.14,-108 698.14,-72 781.14,-72 781.14,-108"/>
<text text-anchor="middle" x="739.64" y="-86.3" font-family="Times,serif" font-size="14.00">stdbool.h</text>
</a>
</g>
</g>
<!-- 2&#45;&gt;3 -->
<g id="edge7" class="edge">
<title>2&#45;&gt;3</title>
<g id="a_edge7"><a xlink:title="include">
<path fill="none" stroke="#1414ce" d="M695.22,-143.7C702.29,-135.3 710.92,-125.07 718.68,-115.86"/>
<polygon fill="#1414ce" stroke="#1414ce" points="721.45,-118.01 725.22,-108.1 716.1,-113.49 721.45,-118.01"/>
</a>
</g>
</g>
<!-- 23 -->
<g id="node5" class="node">
<title>23</title>
<g id="a_node5"><a xlink:title="mailbox.h">
<polygon fill="#ffffff" stroke="black" points="597.64,-252 511.64,-252 511.64,-216 597.64,-216 597.64,-252"/>
<text text-anchor="middle" x="554.64" y="-230.3" font-family="Times,serif" font-size="14.00">mailbox.h</text>
</a>
</g>
</g>
<!-- 23&#45;&gt;2 -->
<g id="edge9" class="edge">
<title>23&#45;&gt;2</title>
<g id="a_edge9"><a xlink:title="include">
<path fill="none" stroke="#1414ce" d="M585.46,-215.88C603.36,-205.93 626.01,-193.35 644.72,-182.95"/>
<polygon fill="#1414ce" stroke="#1414ce" points="646.51,-185.96 653.55,-178.05 643.11,-179.84 646.51,-185.96"/>
</a>
</g>
</g>
<!-- 23&#45;&gt;15 -->
<g id="edge10" class="edge">
<title>23&#45;&gt;15</title>
<g id="a_edge10"><a xlink:title="include">
<path fill="none" stroke="#1414ce" d="M560.04,-215.93C564.96,-196.96 569.68,-166.09 556.64,-144 548.78,-130.69 536.24,-120.48 522.79,-112.76"/>
<polygon fill="#1414ce" stroke="#1414ce" points="524.34,-109.62 513.86,-108.04 521.06,-115.81 524.34,-109.62"/>
</a>
</g>
</g>
<!-- 19 -->
<g id="node13" class="node">
<title>19</title>
<g id="a_node13"><a xlink:title="utils.h">
<polygon fill="#ffffff" stroke="black" points="341.64,-180 279.64,-180 279.64,-144 341.64,-144 341.64,-180"/>
<text text-anchor="middle" x="310.64" y="-158.3" font-family="Times,serif" font-size="14.00">utils.h</text>
</a>
</g>
</g>
<!-- 23&#45;&gt;19 -->
<g id="edge11" class="edge">
<title>23&#45;&gt;19</title>
<g id="a_edge11"><a xlink:title="include">
<path fill="none" stroke="#1414ce" d="M511.57,-220.65C466.39,-207.68 395.89,-187.46 351.53,-174.73"/>
<polygon fill="#1414ce" stroke="#1414ce" points="352.24,-171.3 341.67,-171.9 350.31,-178.02 352.24,-171.3"/>
</a>
</g>
</g>
<!-- 23&#45;&gt;3 -->
<g id="edge8" class="edge">
<title>23&#45;&gt;3</title>
<g id="a_edge8"><a xlink:title="include">
<path fill="none" stroke="#1414ce" d="M569.37,-215.86C586.29,-196.83 615.47,-165.91 644.64,-144 660.05,-132.42 678.28,-121.64 694.63,-112.88"/>
<polygon fill="#1414ce" stroke="#1414ce" points="696.26,-115.97 703.48,-108.22 693,-109.78 696.26,-115.97"/>
</a>
</g>
</g>
<!-- 13 -->
<g id="node6" class="node">
<title>13</title>
<g id="a_node6"><a xlink:title="memory.h">
<polygon fill="#ffffff" stroke="black" points="417.64,-252 331.64,-252 331.64,-216 417.64,-216 417.64,-252"/>
<text text-anchor="middle" x="374.64" y="-230.3" font-family="Times,serif" font-size="14.00">memory.h</text>
</a>
</g>
</g>
<!-- 13&#45;&gt;14 -->
<g id="edge14" class="edge">
<title>13&#45;&gt;14</title>
<g id="a_edge14"><a xlink:title="include">
<path fill="none" stroke="#1414ce" d="M407.9,-215.88C426.1,-206.51 448.83,-194.81 468.28,-184.8"/>
<polygon fill="#1414ce" stroke="#1414ce" points="469.95,-187.88 477.24,-180.19 466.74,-181.65 469.95,-187.88"/>
</a>
</g>
</g>
<!-- 13&#45;&gt;15 -->
<g id="edge15" class="edge">
<title>13&#45;&gt;15</title>
<g id="a_edge15"><a xlink:title="include">
<path fill="none" stroke="#1414ce" d="M385.01,-215.87C399.92,-191.24 427.54,-145.64 444.96,-116.88"/>
<polygon fill="#1414ce" stroke="#1414ce" points="448.04,-118.56 450.22,-108.19 442.05,-114.93 448.04,-118.56"/>
</a>
</g>
</g>
<!-- 13&#45;&gt;19 -->
<g id="edge16" class="edge">
<title>13&#45;&gt;19</title>
<g id="a_edge16"><a xlink:title="include">
<path fill="none" stroke="#1414ce" d="M358.81,-215.7C351.06,-207.22 341.6,-196.86 333.11,-187.58"/>
<polygon fill="#1414ce" stroke="#1414ce" points="335.6,-185.12 326.27,-180.1 330.44,-189.85 335.6,-185.12"/>
</a>
</g>
</g>
<!-- 13&#45;&gt;9 -->
<g id="edge12" class="edge">
<title>13&#45;&gt;9</title>
<g id="a_edge12"><a xlink:title="include">
<path fill="none" stroke="#1414ce" d="M377.53,-215.99C381.99,-183.68 386.62,-112.98 350.64,-72 315.84,-32.38 253.73,-21.42 210.92,-18.87"/>
<polygon fill="#1414ce" stroke="#1414ce" points="210.9,-15.37 200.75,-18.4 210.58,-22.36 210.9,-15.37"/>
</a>
</g>
</g>
<!-- 13&#45;&gt;10 -->
<g id="edge13" class="edge">
<title>13&#45;&gt;10</title>
<g id="a_edge13"><a xlink:title="include">
<path fill="none" stroke="#1414ce" d="M332.16,-215.96C312.38,-206.91 289.17,-194.62 270.64,-180 247.53,-161.78 226.24,-135.69 212.11,-116.47"/>
<polygon fill="#1414ce" stroke="#1414ce" points="214.83,-114.25 206.14,-108.17 209.14,-118.34 214.83,-114.25"/>
</a>
</g>
</g>
<!-- 21 -->
<g id="node7" class="node">
<title>21</title>
<g id="a_node7"><a xlink:title="refc_binary.h">
<polygon fill="#ffffff" stroke="black" points="595.64,-396 487.64,-396 487.64,-360 595.64,-360 595.64,-396"/>
<text text-anchor="middle" x="541.64" y="-374.3" font-family="Times,serif" font-size="14.00">refc_binary.h</text>
</a>
</g>
</g>
<!-- 21&#45;&gt;2 -->
<g id="edge19" class="edge">
<title>21&#45;&gt;2</title>
<g id="a_edge19"><a xlink:title="include">
<path fill="none" stroke="#1414ce" d="M564.49,-359.81C576.27,-350.17 590.29,-337.41 600.64,-324 633.45,-281.44 658.31,-223.29 671.08,-189.79"/>
<polygon fill="#1414ce" stroke="#1414ce" points="674.43,-190.81 674.65,-180.22 667.87,-188.37 674.43,-190.81"/>
</a>
</g>
</g>
<!-- 22 -->
<g id="node8" class="node">
<title>22</title>
<g id="a_node8"><a xlink:title="resources.h">
<polygon fill="#ffffff" stroke="black" points="591.64,-324 491.64,-324 491.64,-288 591.64,-288 591.64,-324"/>
<text text-anchor="middle" x="541.64" y="-302.3" font-family="Times,serif" font-size="14.00">resources.h</text>
</a>
</g>
</g>
<!-- 21&#45;&gt;22 -->
<g id="edge20" class="edge">
<title>21&#45;&gt;22</title>
<g id="a_edge20"><a xlink:title="include">
<path fill="none" stroke="#1414ce" d="M541.64,-359.7C541.64,-351.98 541.64,-342.71 541.64,-334.11"/>
<polygon fill="#1414ce" stroke="#1414ce" points="545.14,-334.1 541.64,-324.1 538.14,-334.1 545.14,-334.1"/>
</a>
</g>
</g>
<!-- 21&#45;&gt;3 -->
<g id="edge17" class="edge">
<title>21&#45;&gt;3</title>
<g id="a_edge17"><a xlink:title="include">
<path fill="none" stroke="#1414ce" d="M576.87,-359.81C593.25,-350.69 612.24,-338.38 626.64,-324 680.03,-270.66 686.85,-249.34 716.64,-180 725.22,-160.02 731.18,-136.1 734.88,-118.09"/>
<polygon fill="#1414ce" stroke="#1414ce" points="738.32,-118.72 736.8,-108.24 731.45,-117.39 738.32,-118.72"/>
</a>
</g>
</g>
<!-- 21&#45;&gt;10 -->
<g id="edge18" class="edge">
<title>21&#45;&gt;10</title>
<g id="a_edge18"><a xlink:title="include">
<path fill="none" stroke="#1414ce" d="M487.46,-362.36C427.06,-344.03 328.79,-308.07 259.64,-252 228.97,-227.14 222.47,-216.58 207.64,-180 199.63,-160.25 196.46,-136.27 195.25,-118.18"/>
<polygon fill="#1414ce" stroke="#1414ce" points="198.74,-117.84 194.74,-108.03 191.75,-118.19 198.74,-117.84"/>
</a>
</g>
</g>
<!-- 22&#45;&gt;14 -->
<g id="edge22" class="edge">
<title>22&#45;&gt;14</title>
<g id="a_edge22"><a xlink:title="include">
<path fill="none" stroke="#1414ce" d="M524.75,-287.99C516.34,-278.31 507.05,-265.46 502.64,-252 496.04,-231.92 498.73,-208 502.69,-190.02"/>
<polygon fill="#1414ce" stroke="#1414ce" points="506.12,-190.74 505.11,-180.19 499.32,-189.06 506.12,-190.74"/>
</a>
</g>
</g>
<!-- 22&#45;&gt;2 -->
<g id="edge23" class="edge">
<title>22&#45;&gt;2</title>
<g id="a_edge23"><a xlink:title="include">
<path fill="none" stroke="#1414ce" d="M564.81,-287.87C577.65,-277.95 593.6,-264.91 606.64,-252 626.94,-231.89 647.52,-206.66 661.81,-188.2"/>
<polygon fill="#1414ce" stroke="#1414ce" points="664.6,-190.3 667.9,-180.24 659.05,-186.05 664.6,-190.3"/>
</a>
</g>
</g>
<!-- 22&#45;&gt;23 -->
<g id="edge24" class="edge">
<title>22&#45;&gt;23</title>
<g id="a_edge24"><a xlink:title="include">
<path fill="none" stroke="#1414ce" d="M544.85,-287.7C546.28,-279.98 548,-270.71 549.6,-262.11"/>
<polygon fill="#1414ce" stroke="#1414ce" points="553.07,-262.58 551.46,-252.1 546.19,-261.3 553.07,-262.58"/>
</a>
</g>
</g>
<!-- 22&#45;&gt;13 -->
<g id="edge25" class="edge">
<title>22&#45;&gt;13</title>
<g id="a_edge25"><a xlink:title="include">
<path fill="none" stroke="#1414ce" d="M500.78,-287.88C477.85,-278.26 449.05,-266.19 424.77,-256.01"/>
<polygon fill="#1414ce" stroke="#1414ce" points="425.93,-252.71 415.36,-252.07 423.22,-259.16 425.93,-252.71"/>
</a>
</g>
</g>
<!-- 22&#45;&gt;4 -->
<g id="edge26" class="edge">
<title>22&#45;&gt;4</title>
<g id="a_edge26"><a xlink:title="include">
<path fill="none" stroke="#1414ce" d="M591.64,-293.6C647.9,-280.77 738.88,-260.03 796.14,-246.97"/>
<polygon fill="#1414ce" stroke="#1414ce" points="797.1,-250.34 806.07,-244.7 795.55,-243.52 797.1,-250.34"/>
</a>
</g>
</g>
<!-- 22&#45;&gt;10 -->
<g id="edge21" class="edge">
<title>22&#45;&gt;10</title>
<g id="a_edge21"><a xlink:title="include">
<path fill="none" stroke="#1414ce" d="M491.31,-299.03C445.54,-292.18 377.04,-278.33 322.64,-252 275.9,-229.38 261.87,-221.47 230.64,-180 216.59,-161.35 207.14,-136.47 201.46,-117.75"/>
<polygon fill="#1414ce" stroke="#1414ce" points="204.8,-116.72 198.68,-108.07 198.07,-118.65 204.8,-116.72"/>
</a>
</g>
</g>
<!-- 6 -->
<g id="node9" class="node">
<title>6</title>
<g id="a_node9"><a xlink:title="smp.h">
<polygon fill="#ffffff" stroke="black" points="865.64,-180 805.64,-180 805.64,-144 865.64,-144 865.64,-180"/>
<text text-anchor="middle" x="835.64" y="-158.3" font-family="Times,serif" font-size="14.00">smp.h</text>
</a>
</g>
</g>
<!-- 6&#45;&gt;3 -->
<g id="edge27" class="edge">
<title>6&#45;&gt;3</title>
<g id="a_edge27"><a xlink:title="include">
<path fill="none" stroke="#1414ce" d="M811.9,-143.7C799.7,-134.8 784.65,-123.82 771.45,-114.2"/>
<polygon fill="#1414ce" stroke="#1414ce" points="773.23,-111.17 763.09,-108.1 769.11,-116.82 773.23,-111.17"/>
</a>
</g>
</g>
<!-- 4&#45;&gt;2 -->
<g id="edge29" class="edge">
<title>4&#45;&gt;2</title>
<g id="a_edge29"><a xlink:title="include">
<path fill="none" stroke="#1414ce" d="M807.54,-215.88C779.85,-204.34 743.67,-189.26 717.02,-178.16"/>
<polygon fill="#1414ce" stroke="#1414ce" points="718.25,-174.88 707.67,-174.27 715.56,-181.34 718.25,-174.88"/>
</a>
</g>
</g>
<!-- 4&#45;&gt;6 -->
<g id="edge30" class="edge">
<title>4&#45;&gt;6</title>
<g id="a_edge30"><a xlink:title="include">
<path fill="none" stroke="#1414ce" d="M845.42,-215.7C843.99,-207.98 842.27,-198.71 840.67,-190.11"/>
<polygon fill="#1414ce" stroke="#1414ce" points="844.08,-189.3 838.81,-180.1 837.2,-190.58 844.08,-189.3"/>
</a>
</g>
</g>
<!-- 5 -->
<g id="node20" class="node">
<title>5</title>
<g id="a_node20"><a xlink:title="stdio.h">
<polygon fill="#ffffff" stroke="black" points="926.14,-108 861.14,-108 861.14,-72 926.14,-72 926.14,-108"/>
<text text-anchor="middle" x="893.64" y="-86.3" font-family="Times,serif" font-size="14.00">stdio.h</text>
</a>
</g>
</g>
<!-- 4&#45;&gt;5 -->
<g id="edge28" class="edge">
<title>4&#45;&gt;5</title>
<g id="a_edge28"><a xlink:title="include">
<path fill="none" stroke="#1414ce" d="M858.42,-215.8C863.84,-205.65 870.34,-192.4 874.64,-180 881.64,-159.75 886.56,-135.98 889.63,-118.1"/>
<polygon fill="#1414ce" stroke="#1414ce" points="893.11,-118.5 891.27,-108.07 886.2,-117.37 893.11,-118.5"/>
</a>
</g>
</g>
<!-- 7&#45;&gt;12 -->
<g id="edge37" class="edge">
<title>7&#45;&gt;12</title>
<g id="a_edge37"><a xlink:title="include">
<path fill="none" stroke="#1414ce" d="M355.72,-444.46C303.29,-436.83 197.82,-419.92 110.64,-396 109.22,-395.61 107.79,-395.2 106.35,-394.77"/>
<polygon fill="#1414ce" stroke="#1414ce" points="107.39,-391.43 96.8,-391.73 105.27,-398.1 107.39,-391.43"/>
</a>
</g>
</g>
<!-- 7&#45;&gt;13 -->
<g id="edge38" class="edge">
<title>7&#45;&gt;13</title>
<g id="a_edge38"><a xlink:title="include">
<path fill="none" stroke="#1414ce" d="M387.76,-431.93C386.81,-414.01 385.24,-385.02 383.64,-360 381.48,-326.37 378.64,-287.68 376.73,-262.36"/>
<polygon fill="#1414ce" stroke="#1414ce" points="380.22,-262.09 375.97,-252.38 373.24,-262.62 380.22,-262.09"/>
</a>
</g>
</g>
<!-- 7&#45;&gt;21 -->
<g id="edge39" class="edge">
<title>7&#45;&gt;21</title>
<g id="a_edge39"><a xlink:title="include">
<path fill="none" stroke="#1414ce" d="M421.46,-433.98C442.93,-424.16 471.31,-411.18 495.09,-400.29"/>
<polygon fill="#1414ce" stroke="#1414ce" points="496.66,-403.43 504.3,-396.08 493.75,-397.06 496.66,-403.43"/>
</a>
</g>
</g>
<!-- 7&#45;&gt;15 -->
<g id="edge41" class="edge">
<title>7&#45;&gt;15</title>
<g id="a_edge41"><a xlink:title="include">
<path fill="none" stroke="#1414ce" d="M400.45,-431.96C417.14,-406.16 445.64,-355.08 445.64,-307 445.64,-307 445.64,-307 445.64,-233 445.64,-192.99 451.6,-147 456,-118.46"/>
<polygon fill="#1414ce" stroke="#1414ce" points="459.48,-118.85 457.6,-108.43 452.57,-117.75 459.48,-118.85"/>
</a>
</g>
</g>
<!-- 7&#45;&gt;19 -->
<g id="edge40" class="edge">
<title>7&#45;&gt;19</title>
<g id="a_edge40"><a xlink:title="include">
<path fill="none" stroke="#1414ce" d="M381.69,-431.92C368.22,-398.15 338.5,-320.15 322.64,-252 317.89,-231.63 314.83,-208.17 312.98,-190.45"/>
<polygon fill="#1414ce" stroke="#1414ce" points="316.44,-189.85 311.99,-180.24 309.47,-190.53 316.44,-189.85"/>
</a>
</g>
</g>
<!-- 7&#45;&gt;3 -->
<g id="edge32" class="edge">
<title>7&#45;&gt;3</title>
<g id="a_edge32"><a xlink:title="include">
<path fill="none" stroke="#1414ce" d="M421.46,-447.88C466.4,-444.91 547.96,-434.19 604.64,-396 697.94,-333.13 712.72,-289.93 736.64,-180 741.04,-159.73 741.66,-136.27 741.24,-118.52"/>
<polygon fill="#1414ce" stroke="#1414ce" points="744.73,-118.16 740.87,-108.29 737.73,-118.41 744.73,-118.16"/>
</a>
</g>
</g>
<!-- 7&#45;&gt;9 -->
<g id="edge33" class="edge">
<title>7&#45;&gt;9</title>
<g id="a_edge33"><a xlink:title="include">
<path fill="none" stroke="#1414ce" d="M355.89,-448.89C275.17,-447.91 69.71,-440.96 21.64,-396 -7.91,-368.37 2.64,-347.45 2.64,-307 2.64,-307 2.64,-307 2.64,-161 2.64,-98.76 71.09,-57.44 119,-36.14"/>
<polygon fill="#1414ce" stroke="#1414ce" points="120.48,-39.31 128.28,-32.14 117.71,-32.88 120.48,-39.31"/>
</a>
</g>
</g>
<!-- 7&#45;&gt;5 -->
<g id="edge34" class="edge">
<title>7&#45;&gt;5</title>
<g id="a_edge34"><a xlink:title="include">
<path fill="none" stroke="#1414ce" d="M421.43,-448.93C517.66,-446.68 798.87,-425.01 900.64,-252 925.06,-210.48 913.46,-151.97 903.25,-118.12"/>
<polygon fill="#1414ce" stroke="#1414ce" points="906.54,-116.91 900.17,-108.45 899.87,-119.04 906.54,-116.91"/>
</a>
</g>
</g>
<!-- 7&#45;&gt;10 -->
<g id="edge35" class="edge">
<title>7&#45;&gt;10</title>
<g id="a_edge35"><a xlink:title="include">
<path fill="none" stroke="#1414ce" d="M355.89,-446.27C296.2,-440.6 173.14,-425.58 143.64,-396 115.07,-367.36 124.64,-347.45 124.64,-307 124.64,-307 124.64,-307 124.64,-233 124.64,-188.36 152.81,-143.2 173.41,-116.16"/>
<polygon fill="#1414ce" stroke="#1414ce" points="176.37,-118.06 179.79,-108.03 170.86,-113.74 176.37,-118.06"/>
</a>
</g>
</g>
<!-- 11 -->
<g id="node22" class="node">
<title>11</title>
<g id="a_node22"><a xlink:title="string.h">
<polygon fill="#ffffff" stroke="black" points="226.14,-396 153.14,-396 153.14,-360 226.14,-360 226.14,-396"/>
<text text-anchor="middle" x="189.64" y="-374.3" font-family="Times,serif" font-size="14.00">string.h</text>
</a>
</g>
</g>
<!-- 7&#45;&gt;11 -->
<g id="edge36" class="edge">
<title>7&#45;&gt;11</title>
<g id="a_edge36"><a xlink:title="include">
<path fill="none" stroke="#1414ce" d="M356.09,-438.11C326.87,-428.27 282.57,-413.17 236.08,-396.48"/>
<polygon fill="#1414ce" stroke="#1414ce" points="237.03,-393.1 226.44,-393.01 234.66,-399.69 237.03,-393.1"/>
</a>
</g>
</g>
<!-- 8 -->
<g id="node23" class="node">
<title>8</title>
<g id="a_node23"><a xlink:title="sys/types.h">
<polygon fill="#ffffff" stroke="black" points="341.14,-396 244.14,-396 244.14,-360 341.14,-360 341.14,-396"/>
<text text-anchor="middle" x="292.64" y="-374.3" font-family="Times,serif" font-size="14.00">sys/types.h</text>
</a>
</g>
</g>
<!-- 7&#45;&gt;8 -->
<g id="edge31" class="edge">
<title>7&#45;&gt;8</title>
<g id="a_edge31"><a xlink:title="include">
<path fill="none" stroke="#1414ce" d="M364.9,-431.7C352.7,-422.8 337.65,-411.82 324.45,-402.2"/>
<polygon fill="#1414ce" stroke="#1414ce" points="326.23,-399.17 316.09,-396.1 322.11,-404.82 326.23,-399.17"/>
</a>
</g>
</g>
<!-- 16 -->
<g id="node14" class="node">
<title>16</title>
<g id="a_node14"><a xlink:title="assert.h">
<polygon fill="#ffffff" stroke="black" points="497.64,-36 423.64,-36 423.64,0 497.64,0 497.64,-36"/>
<text text-anchor="middle" x="460.64" y="-14.3" font-family="Times,serif" font-size="14.00">assert.h</text>
</a>
</g>
</g>
<!-- 15&#45;&gt;16 -->
<g id="edge42" class="edge">
<title>15&#45;&gt;16</title>
<g id="a_edge42"><a xlink:title="include">
<path fill="none" stroke="#1414ce" d="M460.64,-71.7C460.64,-63.98 460.64,-54.71 460.64,-46.11"/>
<polygon fill="#1414ce" stroke="#1414ce" points="464.14,-46.1 460.64,-36.1 457.14,-46.1 464.14,-46.1"/>
</a>
</g>
</g>
<!-- 18 -->
<g id="node15" class="node">
<title>18</title>
<g id="a_node15"><a xlink:title="inttypes.h">
<polygon fill="#ffffff" stroke="black" points="605.14,-36 516.14,-36 516.14,0 605.14,0 605.14,-36"/>
<text text-anchor="middle" x="560.64" y="-14.3" font-family="Times,serif" font-size="14.00">inttypes.h</text>
</a>
</g>
</g>
<!-- 15&#45;&gt;18 -->
<g id="edge44" class="edge">
<title>15&#45;&gt;18</title>
<g id="a_edge44"><a xlink:title="include">
<path fill="none" stroke="#1414ce" d="M485.1,-71.88C497.93,-62.89 513.83,-51.76 527.73,-42.03"/>
<polygon fill="#1414ce" stroke="#1414ce" points="529.89,-44.79 536.08,-36.19 525.88,-39.06 529.89,-44.79"/>
</a>
</g>
</g>
<!-- 17 -->
<g id="node16" class="node">
<title>17</title>
<g id="a_node16"><a xlink:title="limits.h">
<polygon fill="#ffffff" stroke="black" points="405.14,-36 334.14,-36 334.14,0 405.14,0 405.14,-36"/>
<text text-anchor="middle" x="369.64" y="-14.3" font-family="Times,serif" font-size="14.00">limits.h</text>
</a>
</g>
</g>
<!-- 15&#45;&gt;17 -->
<g id="edge43" class="edge">
<title>15&#45;&gt;17</title>
<g id="a_edge43"><a xlink:title="include">
<path fill="none" stroke="#1414ce" d="M438.14,-71.7C426.68,-62.88 412.58,-52.03 400.15,-42.47"/>
<polygon fill="#1414ce" stroke="#1414ce" points="401.93,-39.43 391.87,-36.1 397.66,-44.98 401.93,-39.43"/>
</a>
</g>
</g>
<!-- 15&#45;&gt;9 -->
<g id="edge45" class="edge">
<title>15&#45;&gt;9</title>
<g id="a_edge45"><a xlink:title="include">
<path fill="none" stroke="#1414ce" d="M397.86,-74.15C341.82,-60.9 261.04,-41.8 210.75,-29.91"/>
<polygon fill="#1414ce" stroke="#1414ce" points="211.35,-26.45 200.81,-27.55 209.74,-33.26 211.35,-26.45"/>
</a>
</g>
</g>
<!-- 20 -->
<g id="node18" class="node">
<title>20</title>
<g id="a_node18"><a xlink:title="stddef.h">
<polygon fill="#ffffff" stroke="black" points="341.64,-108 267.64,-108 267.64,-72 341.64,-72 341.64,-108"/>
<text text-anchor="middle" x="304.64" y="-86.3" font-family="Times,serif" font-size="14.00">stddef.h</text>
</a>
</g>
</g>
<!-- 19&#45;&gt;20 -->
<g id="edge46" class="edge">
<title>19&#45;&gt;20</title>
<g id="a_edge46"><a xlink:title="include">
<path fill="none" stroke="#1414ce" d="M309.15,-143.7C308.49,-135.98 307.7,-126.71 306.96,-118.11"/>
<polygon fill="#1414ce" stroke="#1414ce" points="310.44,-117.77 306.1,-108.1 303.47,-118.37 310.44,-117.77"/>
</a>
</g>
</g>
<!-- 19&#45;&gt;5 -->
<g id="edge47" class="edge">
<title>19&#45;&gt;5</title>
<g id="a_edge47"><a xlink:title="include">
<path fill="none" stroke="#1414ce" d="M341.71,-157.57C447.91,-145.85 789.93,-108.1 790.64,-108 810.48,-105.27 832.39,-101.73 850.88,-98.58"/>
<polygon fill="#1414ce" stroke="#1414ce" points="851.51,-102.03 860.77,-96.89 850.32,-95.13 851.51,-102.03"/>
</a>
</g>
</g>
<!-- 19&#45;&gt;10 -->
<g id="edge48" class="edge">
<title>19&#45;&gt;10</title>
<g id="a_edge48"><a xlink:title="include">
<path fill="none" stroke="#1414ce" d="M282.26,-143.88C267.09,-134.72 248.23,-123.34 231.9,-113.48"/>
<polygon fill="#1414ce" stroke="#1414ce" points="233.49,-110.36 223.12,-108.19 229.87,-116.35 233.49,-110.36"/>
</a>
</g>
</g>
</g>
</svg>
