<?xml version="1.0" encoding="UTF-8" standalone="no"?>
<!DOCTYPE svg PUBLIC "-//W3C//DTD SVG 1.1//EN"
 "http://www.w3.org/Graphics/SVG/1.1/DTD/svg11.dtd">
<!-- Generated by graphviz version 2.43.0 (0)
 -->
<!-- Title: %3 Pages: 1 -->
<svg width="1636pt" height="764pt"
 viewBox="0.00 0.00 1636.00 764.00" xmlns="http://www.w3.org/2000/svg" xmlns:xlink="http://www.w3.org/1999/xlink">
<g id="graph0" class="graph" transform="scale(1 1) rotate(0) translate(4 760)">
<title>%3</title>
<polygon fill="transparent" stroke="transparent" points="-4,4 -4,-760 1632,-760 1632,4 -4,4"/>
<!-- 5 -->
<g id="node1" class="node">
<title>5</title>
<g id="a_node1"><a xlink:title="atom.h">
<polygon fill="#ffffff" stroke="black" points="1010,-180 944,-180 944,-144 1010,-144 1010,-180"/>
<text text-anchor="middle" x="977" y="-158.3" font-family="Times,serif" font-size="14.00">atom.h</text>
</a>
</g>
</g>
<!-- 4 -->
<g id="node30" class="node">
<title>4</title>
<g id="a_node30"><a xlink:title="stdint.h">
<polygon fill="#ffffff" stroke="black" points="1013,-36 941,-36 941,0 1013,0 1013,-36"/>
<text text-anchor="middle" x="977" y="-14.3" font-family="Times,serif" font-size="14.00">stdint.h</text>
</a>
</g>
</g>
<!-- 5&#45;&gt;4 -->
<g id="edge1" class="edge">
<title>5&#45;&gt;4</title>
<g id="a_edge1"><a xlink:title="include">
<path fill="none" stroke="#1414ce" d="M977,-143.87C977,-119.67 977,-75.21 977,-46.39"/>
<polygon fill="#1414ce" stroke="#1414ce" points="980.5,-46.19 977,-36.19 973.5,-46.19 980.5,-46.19"/>
</a>
</g>
</g>
<!-- 6 -->
<g id="node32" class="node">
<title>6</title>
<g id="a_node32"><a xlink:title="stdlib.h">
<polygon fill="#ffffff" stroke="black" points="1230.5,-108 1159.5,-108 1159.5,-72 1230.5,-72 1230.5,-108"/>
<text text-anchor="middle" x="1195" y="-86.3" font-family="Times,serif" font-size="14.00">stdlib.h</text>
</a>
</g>
</g>
<!-- 5&#45;&gt;6 -->
<g id="edge2" class="edge">
<title>5&#45;&gt;6</title>
<g id="a_edge2"><a xlink:title="include">
<path fill="none" stroke="#1414ce" d="M1010.36,-147.17C1013.27,-146.07 1016.18,-144.99 1019,-144 1062.88,-128.55 1113.87,-113.51 1149.63,-103.42"/>
<polygon fill="#1414ce" stroke="#1414ce" points="1150.61,-106.78 1159.29,-100.71 1148.72,-100.04 1150.61,-106.78"/>
</a>
</g>
</g>
<!-- 7 -->
<g id="node2" class="node">
<title>7</title>
<g id="a_node2"><a xlink:title="atom_table.h">
<polygon fill="#ffffff" stroke="black" points="1031.5,-252 922.5,-252 922.5,-216 1031.5,-216 1031.5,-252"/>
<text text-anchor="middle" x="977" y="-230.3" font-family="Times,serif" font-size="14.00">atom_table.h</text>
</a>
</g>
</g>
<!-- 7&#45;&gt;5 -->
<g id="edge4" class="edge">
<title>7&#45;&gt;5</title>
<g id="a_edge4"><a xlink:title="include">
<path fill="none" stroke="#1414ce" d="M977,-215.7C977,-207.98 977,-198.71 977,-190.11"/>
<polygon fill="#1414ce" stroke="#1414ce" points="980.5,-190.1 977,-180.1 973.5,-190.1 980.5,-190.1"/>
</a>
</g>
</g>
<!-- 9 -->
<g id="node23" class="node">
<title>9</title>
<g id="a_node23"><a xlink:title="utils.h">
<polygon fill="#ffffff" stroke="black" points="1090,-180 1028,-180 1028,-144 1090,-144 1090,-180"/>
<text text-anchor="middle" x="1059" y="-158.3" font-family="Times,serif" font-size="14.00">utils.h</text>
</a>
</g>
</g>
<!-- 7&#45;&gt;9 -->
<g id="edge5" class="edge">
<title>7&#45;&gt;9</title>
<g id="a_edge5"><a xlink:title="include">
<path fill="none" stroke="#1414ce" d="M997.27,-215.7C1007.5,-206.97 1020.06,-196.24 1031.18,-186.75"/>
<polygon fill="#1414ce" stroke="#1414ce" points="1033.63,-189.26 1038.96,-180.1 1029.09,-183.94 1033.63,-189.26"/>
</a>
</g>
</g>
<!-- 8 -->
<g id="node28" class="node">
<title>8</title>
<g id="a_node28"><a xlink:title="stdbool.h">
<polygon fill="#ffffff" stroke="black" points="764.5,-108 681.5,-108 681.5,-72 764.5,-72 764.5,-108"/>
<text text-anchor="middle" x="723" y="-86.3" font-family="Times,serif" font-size="14.00">stdbool.h</text>
</a>
</g>
</g>
<!-- 7&#45;&gt;8 -->
<g id="edge3" class="edge">
<title>7&#45;&gt;8</title>
<g id="a_edge3"><a xlink:title="include">
<path fill="none" stroke="#1414ce" d="M964.85,-215.75C949.89,-195.74 922.67,-163.06 892,-144 855.99,-121.62 809.74,-107.97 774.73,-100.14"/>
<polygon fill="#1414ce" stroke="#1414ce" points="775.22,-96.67 764.71,-97.99 773.76,-103.51 775.22,-96.67"/>
</a>
</g>
</g>
<!-- 32 -->
<g id="node3" class="node">
<title>32</title>
<g id="a_node3"><a xlink:title="bitstring.h">
<polygon fill="#ffffff" stroke="black" points="938,-540 846,-540 846,-504 938,-504 938,-540"/>
<text text-anchor="middle" x="892" y="-518.3" font-family="Times,serif" font-size="14.00">bitstring.h</text>
</a>
</g>
</g>
<!-- 24 -->
<g id="node9" class="node">
<title>24</title>
<g id="a_node9"><a xlink:title="intn.h">
<polygon fill="#ffffff" stroke="black" points="915.5,-396 856.5,-396 856.5,-360 915.5,-360 915.5,-396"/>
<text text-anchor="middle" x="886" y="-374.3" font-family="Times,serif" font-size="14.00">intn.h</text>
</a>
</g>
</g>
<!-- 32&#45;&gt;24 -->
<g id="edge6" class="edge">
<title>32&#45;&gt;24</title>
<g id="a_edge6"><a xlink:title="include">
<path fill="none" stroke="#1414ce" d="M891.28,-503.87C890.25,-479.67 888.38,-435.21 887.16,-406.39"/>
<polygon fill="#1414ce" stroke="#1414ce" points="890.65,-406.03 886.73,-396.19 883.65,-406.33 890.65,-406.03"/>
</a>
</g>
</g>
<!-- 21 -->
<g id="node19" class="node">
<title>21</title>
<g id="a_node19"><a xlink:title="term.h">
<polygon fill="#ffffff" stroke="black" points="1178.5,-468 1113.5,-468 1113.5,-432 1178.5,-432 1178.5,-468"/>
<text text-anchor="middle" x="1146" y="-446.3" font-family="Times,serif" font-size="14.00">term.h</text>
</a>
</g>
</g>
<!-- 32&#45;&gt;21 -->
<g id="edge7" class="edge">
<title>32&#45;&gt;21</title>
<g id="a_edge7"><a xlink:title="include">
<path fill="none" stroke="#1414ce" d="M938.18,-507.87C942.84,-506.56 947.51,-505.25 952,-504 1004.14,-489.49 1064.26,-473.12 1103.59,-462.46"/>
<polygon fill="#1414ce" stroke="#1414ce" points="1104.63,-465.81 1113.37,-459.82 1102.8,-459.05 1104.63,-465.81"/>
</a>
</g>
</g>
<!-- 33 -->
<g id="node22" class="node">
<title>33</title>
<g id="a_node22"><a xlink:title="unicode.h">
<polygon fill="#ffffff" stroke="black" points="600,-180 514,-180 514,-144 600,-144 600,-180"/>
<text text-anchor="middle" x="557" y="-158.3" font-family="Times,serif" font-size="14.00">unicode.h</text>
</a>
</g>
</g>
<!-- 32&#45;&gt;33 -->
<g id="edge8" class="edge">
<title>32&#45;&gt;33</title>
<g id="a_edge8"><a xlink:title="include">
<path fill="none" stroke="#1414ce" d="M845.9,-515.38C810.39,-509.03 761.8,-495.68 728,-468 634.29,-391.26 582.78,-248.87 564.61,-189.78"/>
<polygon fill="#1414ce" stroke="#1414ce" points="567.93,-188.64 561.7,-180.07 561.22,-190.65 567.93,-188.64"/>
</a>
</g>
</g>
<!-- 32&#45;&gt;8 -->
<g id="edge9" class="edge">
<title>32&#45;&gt;8</title>
<g id="a_edge9"><a xlink:title="include">
<path fill="none" stroke="#1414ce" d="M851.8,-503.94C807.37,-482.08 742,-439.6 742,-379 742,-379 742,-379 742,-233 742,-192.86 734.45,-146.9 728.87,-118.4"/>
<polygon fill="#1414ce" stroke="#1414ce" points="732.26,-117.5 726.84,-108.39 725.39,-118.88 732.26,-117.5"/>
</a>
</g>
</g>
<!-- 32&#45;&gt;4 -->
<g id="edge10" class="edge">
<title>32&#45;&gt;4</title>
<g id="a_edge10"><a xlink:title="include">
<path fill="none" stroke="#1414ce" d="M938.38,-511.61C951.2,-509.07 965.13,-506.38 978,-504 1201.15,-462.82 1285.26,-517.35 1477,-396 1550.87,-349.25 1590,-322.42 1590,-235 1590,-235 1590,-235 1590,-161 1590,-107.52 1556.83,-95.93 1509,-72 1433.93,-34.44 1216.5,-44.55 1133,-36 1096.11,-32.22 1054.35,-27.66 1023.32,-24.21"/>
<polygon fill="#1414ce" stroke="#1414ce" points="1023.56,-20.71 1013.24,-23.08 1022.79,-27.67 1023.56,-20.71"/>
</a>
</g>
</g>
<!-- 2 -->
<g id="node4" class="node">
<title>2</title>
<g id="a_node4"><a xlink:title="context.h">
<polygon fill="#ffffff" stroke="black" points="554.5,-684 471.5,-684 471.5,-648 554.5,-648 554.5,-684"/>
<text text-anchor="middle" x="513" y="-662.3" font-family="Times,serif" font-size="14.00">context.h</text>
</a>
</g>
</g>
<!-- 3 -->
<g id="node8" class="node">
<title>3</title>
<g id="a_node8"><a xlink:title="globalcontext.h">
<polygon fill="#ffffff" stroke="black" points="490.5,-612 363.5,-612 363.5,-576 490.5,-576 490.5,-612"/>
<text text-anchor="middle" x="427" y="-590.3" font-family="Times,serif" font-size="14.00">globalcontext.h</text>
</a>
</g>
</g>
<!-- 2&#45;&gt;3 -->
<g id="edge11" class="edge">
<title>2&#45;&gt;3</title>
<g id="a_edge11"><a xlink:title="include">
<path fill="none" stroke="#1414ce" d="M491.74,-647.7C480.91,-638.88 467.58,-628.03 455.84,-618.47"/>
<polygon fill="#1414ce" stroke="#1414ce" points="457.98,-615.7 448.01,-612.1 453.56,-621.13 457.98,-615.7"/>
</a>
</g>
</g>
<!-- 31 -->
<g id="node10" class="node">
<title>31</title>
<g id="a_node10"><a xlink:title="jit.h">
<polygon fill="#ffffff" stroke="black" points="1027,-612 973,-612 973,-576 1027,-576 1027,-612"/>
<text text-anchor="middle" x="1000" y="-590.3" font-family="Times,serif" font-size="14.00">jit.h</text>
</a>
</g>
</g>
<!-- 2&#45;&gt;31 -->
<g id="edge12" class="edge">
<title>2&#45;&gt;31</title>
<g id="a_edge12"><a xlink:title="include">
<path fill="none" stroke="#1414ce" d="M554.52,-659.03C648,-645.59 873.76,-613.15 962.9,-600.33"/>
<polygon fill="#1414ce" stroke="#1414ce" points="963.43,-603.79 972.83,-598.91 962.43,-596.86 963.43,-603.79"/>
</a>
</g>
</g>
<!-- 18 -->
<g id="node11" class="node">
<title>18</title>
<g id="a_node11"><a xlink:title="list.h">
<polygon fill="#ffffff" stroke="black" points="352,-180 298,-180 298,-144 352,-144 352,-180"/>
<text text-anchor="middle" x="325" y="-158.3" font-family="Times,serif" font-size="14.00">list.h</text>
</a>
</g>
</g>
<!-- 2&#45;&gt;18 -->
<g id="edge13" class="edge">
<title>2&#45;&gt;18</title>
<g id="a_edge13"><a xlink:title="include">
<path fill="none" stroke="#1414ce" d="M471.36,-657.77C411.68,-645.08 302.86,-612.9 247,-540 201.01,-479.98 192,-454.62 192,-379 192,-379 192,-379 192,-305 192,-248.24 249.3,-204.82 288.68,-181.67"/>
<polygon fill="#1414ce" stroke="#1414ce" points="290.8,-184.49 297.76,-176.5 287.34,-178.41 290.8,-184.49"/>
</a>
</g>
</g>
<!-- 28 -->
<g id="node12" class="node">
<title>28</title>
<g id="a_node12"><a xlink:title="mailbox.h">
<polygon fill="#ffffff" stroke="black" points="714,-252 628,-252 628,-216 714,-216 714,-252"/>
<text text-anchor="middle" x="671" y="-230.3" font-family="Times,serif" font-size="14.00">mailbox.h</text>
</a>
</g>
</g>
<!-- 2&#45;&gt;28 -->
<g id="edge14" class="edge">
<title>2&#45;&gt;28</title>
<g id="a_edge14"><a xlink:title="include">
<path fill="none" stroke="#1414ce" d="M522.91,-647.62C536.2,-623.86 559.96,-579.65 576,-540 616.46,-439.99 650.28,-315.85 664.2,-262.01"/>
<polygon fill="#1414ce" stroke="#1414ce" points="667.62,-262.76 666.71,-252.21 660.84,-261.02 667.62,-262.76"/>
</a>
</g>
</g>
<!-- 20 -->
<g id="node17" class="node">
<title>20</title>
<g id="a_node17"><a xlink:title="smp.h">
<polygon fill="#ffffff" stroke="black" points="496,-180 436,-180 436,-144 496,-144 496,-180"/>
<text text-anchor="middle" x="466" y="-158.3" font-family="Times,serif" font-size="14.00">smp.h</text>
</a>
</g>
</g>
<!-- 2&#45;&gt;20 -->
<g id="edge15" class="edge">
<title>2&#45;&gt;20</title>
<g id="a_edge15"><a xlink:title="include">
<path fill="none" stroke="#1414ce" d="M513.03,-647.72C512.89,-587.61 510.14,-382.27 481,-216 479.51,-207.52 477.22,-198.46 474.87,-190.26"/>
<polygon fill="#1414ce" stroke="#1414ce" points="478.15,-189.02 471.92,-180.46 471.45,-191.04 478.15,-189.02"/>
</a>
</g>
</g>
<!-- 2&#45;&gt;21 -->
<g id="edge16" class="edge">
<title>2&#45;&gt;21</title>
<g id="a_edge16"><a xlink:title="include">
<path fill="none" stroke="#1414ce" d="M554.73,-664.89C644.3,-663.76 861.03,-656.25 1036,-612 1116.74,-591.58 1162.79,-609.29 1209,-540 1217.88,-526.69 1215.75,-518.51 1209,-504 1203.57,-492.34 1194.18,-482.34 1184.28,-474.26"/>
<polygon fill="#1414ce" stroke="#1414ce" points="1186.38,-471.45 1176.3,-468.2 1182.15,-477.03 1186.38,-471.45"/>
</a>
</g>
</g>
<!-- 29 -->
<g id="node21" class="node">
<title>29</title>
<g id="a_node21"><a xlink:title="timer_list.h">
<polygon fill="#ffffff" stroke="black" points="164,-252 66,-252 66,-216 164,-216 164,-252"/>
<text text-anchor="middle" x="115" y="-230.3" font-family="Times,serif" font-size="14.00">timer_list.h</text>
</a>
</g>
</g>
<!-- 2&#45;&gt;29 -->
<g id="edge17" class="edge">
<title>2&#45;&gt;29</title>
<g id="a_edge17"><a xlink:title="include">
<path fill="none" stroke="#1414ce" d="M471.38,-663.18C365.23,-658.12 90.86,-642.21 64,-612 -26.31,-510.4 61.56,-328.48 99.48,-261.07"/>
<polygon fill="#1414ce" stroke="#1414ce" points="102.55,-262.75 104.47,-252.33 96.47,-259.28 102.55,-262.75"/>
</a>
</g>
</g>
<!-- 13 -->
<g id="node5" class="node">
<title>13</title>
<g id="a_node5"><a xlink:title="erl_nif.h">
<polygon fill="#ffffff" stroke="black" points="1486,-180 1412,-180 1412,-144 1486,-144 1486,-180"/>
<text text-anchor="middle" x="1449" y="-158.3" font-family="Times,serif" font-size="14.00">erl_nif.h</text>
</a>
</g>
</g>
<!-- 14 -->
<g id="node20" class="node">
<title>14</title>
<g id="a_node20"><a xlink:title="term_typedef.h">
<polygon fill="#ffffff" stroke="black" points="1499.5,-108 1374.5,-108 1374.5,-72 1499.5,-72 1499.5,-108"/>
<text text-anchor="middle" x="1437" y="-86.3" font-family="Times,serif" font-size="14.00">term_typedef.h</text>
</a>
</g>
</g>
<!-- 13&#45;&gt;14 -->
<g id="edge18" class="edge">
<title>13&#45;&gt;14</title>
<g id="a_edge18"><a xlink:title="include">
<path fill="none" stroke="#1414ce" d="M1446.03,-143.7C1444.71,-135.98 1443.12,-126.71 1441.65,-118.11"/>
<polygon fill="#1414ce" stroke="#1414ce" points="1445.07,-117.37 1439.93,-108.1 1438.17,-118.55 1445.07,-117.37"/>
</a>
</g>
</g>
<!-- 17 -->
<g id="node6" class="node">
<title>17</title>
<g id="a_node6"><a xlink:title="ets.h">
<polygon fill="#ffffff" stroke="black" points="410,-540 356,-540 356,-504 410,-504 410,-540"/>
<text text-anchor="middle" x="383" y="-518.3" font-family="Times,serif" font-size="14.00">ets.h</text>
</a>
</g>
</g>
<!-- 17&#45;&gt;18 -->
<g id="edge19" class="edge">
<title>17&#45;&gt;18</title>
<g id="a_edge19"><a xlink:title="include">
<path fill="none" stroke="#1414ce" d="M377.21,-503.97C363.23,-461.85 327.92,-349.21 316,-252 313.46,-231.32 316.06,-207.87 319.1,-190.24"/>
<polygon fill="#1414ce" stroke="#1414ce" points="322.6,-190.56 321.01,-180.09 315.72,-189.27 322.6,-190.56"/>
</a>
</g>
</g>
<!-- 19 -->
<g id="node18" class="node">
<title>19</title>
<g id="a_node18"><a xlink:title="synclist.h">
<polygon fill="#ffffff" stroke="black" points="457.5,-252 372.5,-252 372.5,-216 457.5,-216 457.5,-252"/>
<text text-anchor="middle" x="415" y="-230.3" font-family="Times,serif" font-size="14.00">synclist.h</text>
</a>
</g>
</g>
<!-- 17&#45;&gt;19 -->
<g id="edge20" class="edge">
<title>17&#45;&gt;19</title>
<g id="a_edge20"><a xlink:title="include">
<path fill="none" stroke="#1414ce" d="M384.91,-503.97C390.25,-456.19 405.42,-320.62 411.95,-262.27"/>
<polygon fill="#1414ce" stroke="#1414ce" points="415.43,-262.63 413.06,-252.31 408.47,-261.86 415.43,-262.63"/>
</a>
</g>
</g>
<!-- 17&#45;&gt;21 -->
<g id="edge21" class="edge">
<title>17&#45;&gt;21</title>
<g id="a_edge21"><a xlink:title="include">
<path fill="none" stroke="#1414ce" d="M410.16,-518.51C524,-508.06 963.33,-467.76 1103.07,-454.94"/>
<polygon fill="#1414ce" stroke="#1414ce" points="1103.73,-458.39 1113.37,-453.99 1103.09,-451.42 1103.73,-458.39"/>
</a>
</g>
</g>
<!-- 34 -->
<g id="node7" class="node">
<title>34</title>
<g id="a_node7"><a xlink:title="exportedfunction.h">
<polygon fill="#ffffff" stroke="black" points="1184,-540 1032,-540 1032,-504 1184,-504 1184,-540"/>
<text text-anchor="middle" x="1108" y="-518.3" font-family="Times,serif" font-size="14.00">exportedfunction.h</text>
</a>
</g>
</g>
<!-- 34&#45;&gt;21 -->
<g id="edge22" class="edge">
<title>34&#45;&gt;21</title>
<g id="a_edge22"><a xlink:title="include">
<path fill="none" stroke="#1414ce" d="M1117.39,-503.7C1121.76,-495.64 1127.06,-485.89 1131.9,-476.98"/>
<polygon fill="#1414ce" stroke="#1414ce" points="1135.02,-478.56 1136.71,-468.1 1128.87,-475.22 1135.02,-478.56"/>
</a>
</g>
</g>
<!-- 3&#45;&gt;5 -->
<g id="edge24" class="edge">
<title>3&#45;&gt;5</title>
<g id="a_edge24"><a xlink:title="include">
<path fill="none" stroke="#1414ce" d="M447.69,-575.92C459.89,-565.7 475.53,-552.34 489,-540 539.51,-493.71 546.48,-476 599,-432 718.06,-332.25 872.24,-230.14 941.07,-185.83"/>
<polygon fill="#1414ce" stroke="#1414ce" points="943.29,-188.56 949.81,-180.21 939.51,-182.67 943.29,-188.56"/>
</a>
</g>
</g>
<!-- 3&#45;&gt;7 -->
<g id="edge25" class="edge">
<title>3&#45;&gt;7</title>
<g id="a_edge25"><a xlink:title="include">
<path fill="none" stroke="#1414ce" d="M490.69,-583.38C601.49,-564.83 818,-519.79 818,-451 818,-451 818,-451 818,-377 818,-319.18 877.22,-279.04 923.38,-256.54"/>
<polygon fill="#1414ce" stroke="#1414ce" points="925.16,-259.57 932.71,-252.14 922.17,-253.24 925.16,-259.57"/>
</a>
</g>
</g>
<!-- 3&#45;&gt;13 -->
<g id="edge26" class="edge">
<title>3&#45;&gt;13</title>
<g id="a_edge26"><a xlink:title="include">
<path fill="none" stroke="#1414ce" d="M490.79,-591.81C617.28,-588.65 895.15,-577.53 982,-540 1004.26,-530.38 1001.35,-514.93 1023,-504 1090,-470.16 1115.53,-487.55 1188,-468 1288.55,-440.87 1340.63,-472.78 1411,-396 1463.52,-338.7 1459.08,-238.42 1453.25,-190.29"/>
<polygon fill="#1414ce" stroke="#1414ce" points="1456.71,-189.76 1451.93,-180.31 1449.77,-190.68 1456.71,-189.76"/>
</a>
</g>
</g>
<!-- 3&#45;&gt;17 -->
<g id="edge27" class="edge">
<title>3&#45;&gt;17</title>
<g id="a_edge27"><a xlink:title="include">
<path fill="none" stroke="#1414ce" d="M416.12,-575.7C411.01,-567.56 404.8,-557.69 399.16,-548.7"/>
<polygon fill="#1414ce" stroke="#1414ce" points="402.04,-546.71 393.75,-540.1 396.11,-550.43 402.04,-546.71"/>
</a>
</g>
</g>
<!-- 3&#45;&gt;18 -->
<g id="edge28" class="edge">
<title>3&#45;&gt;18</title>
<g id="a_edge28"><a xlink:title="include">
<path fill="none" stroke="#1414ce" d="M363.31,-576.07C305.76,-556.46 230,-517.93 230,-451 230,-451 230,-451 230,-305 230,-257.01 267.94,-212.96 295.87,-187.04"/>
<polygon fill="#1414ce" stroke="#1414ce" points="298.35,-189.52 303.44,-180.22 293.67,-184.31 298.35,-189.52"/>
</a>
</g>
</g>
<!-- 3&#45;&gt;28 -->
<g id="edge29" class="edge">
<title>3&#45;&gt;28</title>
<g id="a_edge29"><a xlink:title="include">
<path fill="none" stroke="#1414ce" d="M438.77,-575.73C478.31,-517.72 606.53,-329.59 653.53,-260.64"/>
<polygon fill="#1414ce" stroke="#1414ce" points="656.61,-262.33 659.35,-252.09 650.83,-258.39 656.61,-262.33"/>
</a>
</g>
</g>
<!-- 3&#45;&gt;20 -->
<g id="edge30" class="edge">
<title>3&#45;&gt;20</title>
<g id="a_edge30"><a xlink:title="include">
<path fill="none" stroke="#1414ce" d="M429.17,-575.98C432.38,-549.37 438,-496.25 438,-451 438,-451 438,-451 438,-377 438,-320.07 459.74,-308.59 466,-252 468.28,-231.4 468.17,-207.95 467.55,-190.29"/>
<polygon fill="#1414ce" stroke="#1414ce" points="471.04,-189.96 467.11,-180.12 464.04,-190.26 471.04,-189.96"/>
</a>
</g>
</g>
<!-- 3&#45;&gt;19 -->
<g id="edge31" class="edge">
<title>3&#45;&gt;19</title>
<g id="a_edge31"><a xlink:title="include">
<path fill="none" stroke="#1414ce" d="M392.68,-575.95C377.18,-566.93 359.58,-554.67 347,-540 318.66,-506.94 306,-494.55 306,-451 306,-451 306,-451 306,-377 306,-326.93 349.17,-283.64 381.17,-258.43"/>
<polygon fill="#1414ce" stroke="#1414ce" points="383.62,-260.96 389.44,-252.11 379.37,-255.4 383.62,-260.96"/>
</a>
</g>
</g>
<!-- 3&#45;&gt;21 -->
<g id="edge32" class="edge">
<title>3&#45;&gt;21</title>
<g id="a_edge32"><a xlink:title="include">
<path fill="none" stroke="#1414ce" d="M490.85,-591.15C611.08,-586.91 866.21,-574.09 947,-540 969.96,-530.31 968.27,-516.22 990,-504 1026,-483.76 1071.01,-469.49 1103.42,-460.9"/>
<polygon fill="#1414ce" stroke="#1414ce" points="1104.66,-464.19 1113.47,-458.31 1102.91,-457.41 1104.66,-464.19"/>
</a>
</g>
</g>
<!-- 3&#45;&gt;29 -->
<g id="edge33" class="edge">
<title>3&#45;&gt;29</title>
<g id="a_edge33"><a xlink:title="include">
<path fill="none" stroke="#1414ce" d="M363.35,-583.89C309.34,-574.95 237.31,-559.79 216,-540 174.1,-501.08 134.53,-328.86 120.43,-261.83"/>
<polygon fill="#1414ce" stroke="#1414ce" points="123.86,-261.09 118.39,-252.01 117,-262.51 123.86,-261.09"/>
</a>
</g>
</g>
<!-- 30 -->
<g id="node24" class="node">
<title>30</title>
<g id="a_node24"><a xlink:title="valueshashtable.h">
<polygon fill="#ffffff" stroke="black" points="204,-180 58,-180 58,-144 204,-144 204,-180"/>
<text text-anchor="middle" x="131" y="-158.3" font-family="Times,serif" font-size="14.00">valueshashtable.h</text>
</a>
</g>
</g>
<!-- 3&#45;&gt;30 -->
<g id="edge34" class="edge">
<title>3&#45;&gt;30</title>
<g id="a_edge34"><a xlink:title="include">
<path fill="none" stroke="#1414ce" d="M363.38,-585.29C302.26,-576.77 215.41,-561.36 189,-540 79.52,-451.46 87.02,-389.57 57,-252 53.59,-236.37 49.69,-230.23 57,-216 63.27,-203.79 73.81,-193.77 84.99,-185.85"/>
<polygon fill="#1414ce" stroke="#1414ce" points="87.16,-188.61 93.61,-180.2 83.33,-182.75 87.16,-188.61"/>
</a>
</g>
</g>
<!-- 3&#45;&gt;4 -->
<g id="edge23" class="edge">
<title>3&#45;&gt;4</title>
<g id="a_edge23"><a xlink:title="include">
<path fill="none" stroke="#1414ce" d="M363.22,-586.69C291.66,-578.63 180.99,-562.92 146,-540 67.32,-488.47 0,-286.2 0,-235 0,-235 0,-235 0,-161 0,-76.11 87.3,-95.06 169,-72 313.84,-31.12 781.61,-21.55 930.81,-19.51"/>
<polygon fill="#1414ce" stroke="#1414ce" points="931.04,-23.01 941,-19.37 930.95,-16.01 931.04,-23.01"/>
</a>
</g>
</g>
<!-- 24&#45;&gt;9 -->
<g id="edge37" class="edge">
<title>24&#45;&gt;9</title>
<g id="a_edge37"><a xlink:title="include">
<path fill="none" stroke="#1414ce" d="M886.7,-359.76C888.45,-339.75 894.37,-307.08 914,-288 956.07,-247.11 1001.14,-295.04 1041,-252 1056.27,-235.51 1060.12,-209.78 1060.52,-190.21"/>
<polygon fill="#1414ce" stroke="#1414ce" points="1064.02,-190.05 1060.45,-180.08 1057.02,-190.1 1064.02,-190.05"/>
</a>
</g>
</g>
<!-- 24&#45;&gt;8 -->
<g id="edge35" class="edge">
<title>24&#45;&gt;8</title>
<g id="a_edge35"><a xlink:title="include">
<path fill="none" stroke="#1414ce" d="M882.63,-359.89C873.92,-319.03 847.49,-213.96 794,-144 785.13,-132.4 773.07,-122.11 761.41,-113.76"/>
<polygon fill="#1414ce" stroke="#1414ce" points="763.27,-110.79 753.04,-108.03 759.31,-116.57 763.27,-110.79"/>
</a>
</g>
</g>
<!-- 23 -->
<g id="node33" class="node">
<title>23</title>
<g id="a_node33"><a xlink:title="string.h">
<polygon fill="#ffffff" stroke="black" points="995.5,-324 922.5,-324 922.5,-288 995.5,-288 995.5,-324"/>
<text text-anchor="middle" x="959" y="-302.3" font-family="Times,serif" font-size="14.00">string.h</text>
</a>
</g>
</g>
<!-- 24&#45;&gt;23 -->
<g id="edge36" class="edge">
<title>24&#45;&gt;23</title>
<g id="a_edge36"><a xlink:title="include">
<path fill="none" stroke="#1414ce" d="M904.04,-359.7C913.06,-351.05 924.12,-340.45 933.94,-331.03"/>
<polygon fill="#1414ce" stroke="#1414ce" points="936.37,-333.55 941.16,-324.1 931.52,-328.5 936.37,-333.55"/>
</a>
</g>
</g>
<!-- 31&#45;&gt;32 -->
<g id="edge38" class="edge">
<title>31&#45;&gt;32</title>
<g id="a_edge38"><a xlink:title="include">
<path fill="none" stroke="#1414ce" d="M973.58,-575.88C959.59,-566.81 942.22,-555.55 927.11,-545.76"/>
<polygon fill="#1414ce" stroke="#1414ce" points="928.82,-542.69 918.52,-540.19 925.01,-548.57 928.82,-542.69"/>
</a>
</g>
</g>
<!-- 31&#45;&gt;34 -->
<g id="edge39" class="edge">
<title>31&#45;&gt;34</title>
<g id="a_edge39"><a xlink:title="include">
<path fill="none" stroke="#1414ce" d="M1026.42,-575.88C1040.41,-566.81 1057.78,-555.55 1072.89,-545.76"/>
<polygon fill="#1414ce" stroke="#1414ce" points="1074.99,-548.57 1081.48,-540.19 1071.18,-542.69 1074.99,-548.57"/>
</a>
</g>
</g>
<!-- 31&#45;&gt;21 -->
<g id="edge40" class="edge">
<title>31&#45;&gt;21</title>
<g id="a_edge40"><a xlink:title="include">
<path fill="none" stroke="#1414ce" d="M1027.12,-589.59C1075.35,-582.9 1172.88,-566.39 1193,-540 1208.3,-519.94 1191.39,-494.2 1173.74,-475.56"/>
<polygon fill="#1414ce" stroke="#1414ce" points="1175.77,-472.64 1166.22,-468.05 1170.82,-477.6 1175.77,-472.64"/>
</a>
</g>
</g>
<!-- 31&#45;&gt;14 -->
<g id="edge41" class="edge">
<title>31&#45;&gt;14</title>
<g id="a_edge41"><a xlink:title="include">
<path fill="none" stroke="#1414ce" d="M1027.39,-592.76C1148.26,-590.98 1628,-576.05 1628,-451 1628,-451 1628,-451 1628,-233 1628,-170.63 1561.6,-132.45 1507.1,-111.61"/>
<polygon fill="#1414ce" stroke="#1414ce" points="1508.03,-108.22 1497.43,-108.04 1505.6,-114.78 1508.03,-108.22"/>
</a>
</g>
</g>
<!-- 31&#45;&gt;8 -->
<g id="edge42" class="edge">
<title>31&#45;&gt;8</title>
<g id="a_edge42"><a xlink:title="include">
<path fill="none" stroke="#1414ce" d="M972.77,-590.13C895.92,-580.29 679.16,-540.11 622,-396 592.5,-321.63 591.79,-291.24 619,-216 633.88,-174.86 668.85,-137.72 694.14,-114.82"/>
<polygon fill="#1414ce" stroke="#1414ce" points="696.48,-117.42 701.65,-108.18 691.84,-112.18 696.48,-117.42"/>
</a>
</g>
</g>
<!-- 18&#45;&gt;8 -->
<g id="edge43" class="edge">
<title>18&#45;&gt;8</title>
<g id="a_edge43"><a xlink:title="include">
<path fill="none" stroke="#1414ce" d="M352.04,-156.24C417.61,-144.71 585.94,-115.11 671.47,-100.06"/>
<polygon fill="#1414ce" stroke="#1414ce" points="672.23,-103.48 681.47,-98.3 671.02,-96.59 672.23,-103.48"/>
</a>
</g>
</g>
<!-- 28&#45;&gt;18 -->
<g id="edge45" class="edge">
<title>28&#45;&gt;18</title>
<g id="a_edge45"><a xlink:title="include">
<path fill="none" stroke="#1414ce" d="M627.88,-224.28C559.41,-210.42 426.98,-183.63 362.33,-170.55"/>
<polygon fill="#1414ce" stroke="#1414ce" points="362.68,-167.05 352.18,-168.5 361.29,-173.91 362.68,-167.05"/>
</a>
</g>
</g>
<!-- 28&#45;&gt;14 -->
<g id="edge46" class="edge">
<title>28&#45;&gt;14</title>
<g id="a_edge46"><a xlink:title="include">
<path fill="none" stroke="#1414ce" d="M714.13,-229.59C791.65,-223.03 959.49,-206.88 1099,-180 1195.12,-161.48 1304.31,-130.96 1371.94,-110.92"/>
<polygon fill="#1414ce" stroke="#1414ce" points="1373.02,-114.25 1381.61,-108.04 1371.02,-107.54 1373.02,-114.25"/>
</a>
</g>
</g>
<!-- 28&#45;&gt;9 -->
<g id="edge47" class="edge">
<title>28&#45;&gt;9</title>
<g id="a_edge47"><a xlink:title="include">
<path fill="none" stroke="#1414ce" d="M714.05,-229.93C778.65,-224.57 904.33,-211.23 1017.93,-179.91"/>
<polygon fill="#1414ce" stroke="#1414ce" points="1019.15,-183.2 1027.83,-177.12 1017.25,-176.46 1019.15,-183.2"/>
</a>
</g>
</g>
<!-- 28&#45;&gt;8 -->
<g id="edge44" class="edge">
<title>28&#45;&gt;8</title>
<g id="a_edge44"><a xlink:title="include">
<path fill="none" stroke="#1414ce" d="M677.27,-215.87C686.21,-191.46 702.7,-146.43 713.25,-117.64"/>
<polygon fill="#1414ce" stroke="#1414ce" points="716.55,-118.78 716.71,-108.19 709.98,-116.38 716.55,-118.78"/>
</a>
</g>
</g>
<!-- 25 -->
<g id="node13" class="node">
<title>25</title>
<g id="a_node13"><a xlink:title="memory.h">
<polygon fill="#ffffff" stroke="black" points="1410,-252 1324,-252 1324,-216 1410,-216 1410,-252"/>
<text text-anchor="middle" x="1367" y="-230.3" font-family="Times,serif" font-size="14.00">memory.h</text>
</a>
</g>
</g>
<!-- 25&#45;&gt;13 -->
<g id="edge50" class="edge">
<title>25&#45;&gt;13</title>
<g id="a_edge50"><a xlink:title="include">
<path fill="none" stroke="#1414ce" d="M1387.27,-215.7C1397.5,-206.97 1410.06,-196.24 1421.18,-186.75"/>
<polygon fill="#1414ce" stroke="#1414ce" points="1423.63,-189.26 1428.96,-180.1 1419.09,-183.94 1423.63,-189.26"/>
</a>
</g>
</g>
<!-- 25&#45;&gt;14 -->
<g id="edge51" class="edge">
<title>25&#45;&gt;14</title>
<g id="a_edge51"><a xlink:title="include">
<path fill="none" stroke="#1414ce" d="M1372.86,-215.85C1379.34,-197.61 1390.52,-168.13 1403,-144 1407.77,-134.78 1413.68,-125.1 1419.23,-116.58"/>
<polygon fill="#1414ce" stroke="#1414ce" points="1422.2,-118.44 1424.82,-108.18 1416.37,-114.56 1422.2,-118.44"/>
</a>
</g>
</g>
<!-- 25&#45;&gt;9 -->
<g id="edge52" class="edge">
<title>25&#45;&gt;9</title>
<g id="a_edge52"><a xlink:title="include">
<path fill="none" stroke="#1414ce" d="M1323.85,-223.19C1264.5,-209.7 1158.43,-185.6 1100.15,-172.35"/>
<polygon fill="#1414ce" stroke="#1414ce" points="1100.72,-168.89 1090.19,-170.09 1099.17,-175.72 1100.72,-168.89"/>
</a>
</g>
</g>
<!-- 25&#45;&gt;4 -->
<g id="edge48" class="edge">
<title>25&#45;&gt;4</title>
<g id="a_edge48"><a xlink:title="include">
<path fill="none" stroke="#1414ce" d="M1363.47,-215.85C1355.61,-182.32 1333.32,-108.18 1284,-72 1263.29,-56.81 1104.26,-34.98 1023.6,-24.73"/>
<polygon fill="#1414ce" stroke="#1414ce" points="1023.59,-21.2 1013.23,-23.42 1022.71,-28.14 1023.59,-21.2"/>
</a>
</g>
</g>
<!-- 25&#45;&gt;6 -->
<g id="edge49" class="edge">
<title>25&#45;&gt;6</title>
<g id="a_edge49"><a xlink:title="include">
<path fill="none" stroke="#1414ce" d="M1346.25,-215.87C1315.65,-190.6 1258.29,-143.25 1223.68,-114.68"/>
<polygon fill="#1414ce" stroke="#1414ce" points="1225.76,-111.86 1215.82,-108.19 1221.3,-117.25 1225.76,-111.86"/>
</a>
</g>
</g>
<!-- 26 -->
<g id="node14" class="node">
<title>26</title>
<g id="a_node14"><a xlink:title="refc_binary.h">
<polygon fill="#ffffff" stroke="black" points="1080,-396 972,-396 972,-360 1080,-360 1080,-396"/>
<text text-anchor="middle" x="1026" y="-374.3" font-family="Times,serif" font-size="14.00">refc_binary.h</text>
</a>
</g>
</g>
<!-- 26&#45;&gt;18 -->
<g id="edge55" class="edge">
<title>26&#45;&gt;18</title>
<g id="a_edge55"><a xlink:title="include">
<path fill="none" stroke="#1414ce" d="M971.9,-367.67C809.9,-339.67 339.49,-257.93 334,-252 318.96,-235.74 317.89,-209.98 319.88,-190.35"/>
<polygon fill="#1414ce" stroke="#1414ce" points="323.39,-190.55 321.24,-180.17 316.45,-189.62 323.39,-190.55"/>
</a>
</g>
</g>
<!-- 27 -->
<g id="node15" class="node">
<title>27</title>
<g id="a_node15"><a xlink:title="resources.h">
<polygon fill="#ffffff" stroke="black" points="1152,-324 1052,-324 1052,-288 1152,-288 1152,-324"/>
<text text-anchor="middle" x="1102" y="-302.3" font-family="Times,serif" font-size="14.00">resources.h</text>
</a>
</g>
</g>
<!-- 26&#45;&gt;27 -->
<g id="edge56" class="edge">
<title>26&#45;&gt;27</title>
<g id="a_edge56"><a xlink:title="include">
<path fill="none" stroke="#1414ce" d="M1044.79,-359.7C1054.17,-351.05 1065.68,-340.45 1075.91,-331.03"/>
<polygon fill="#1414ce" stroke="#1414ce" points="1078.45,-333.45 1083.43,-324.1 1073.7,-328.3 1078.45,-333.45"/>
</a>
</g>
</g>
<!-- 26&#45;&gt;8 -->
<g id="edge53" class="edge">
<title>26&#45;&gt;8</title>
<g id="a_edge53"><a xlink:title="include">
<path fill="none" stroke="#1414ce" d="M1026.45,-359.83C1026.04,-340.2 1022.44,-308.18 1005,-288 976.55,-255.1 949.57,-277.02 914,-252 861.71,-215.22 868.83,-184.04 819,-144 804.24,-132.14 786.45,-121.49 770.22,-112.91"/>
<polygon fill="#1414ce" stroke="#1414ce" points="771.37,-109.56 760.88,-108.1 768.17,-115.79 771.37,-109.56"/>
</a>
</g>
</g>
<!-- 26&#45;&gt;6 -->
<g id="edge54" class="edge">
<title>26&#45;&gt;6</title>
<g id="a_edge54"><a xlink:title="include">
<path fill="none" stroke="#1414ce" d="M1080.16,-369.02C1108.53,-361.97 1141.36,-348.75 1161,-324 1208.97,-263.54 1204.68,-165.54 1199.12,-118.24"/>
<polygon fill="#1414ce" stroke="#1414ce" points="1202.57,-117.63 1197.82,-108.16 1195.63,-118.52 1202.57,-117.63"/>
</a>
</g>
</g>
<!-- 27&#45;&gt;13 -->
<g id="edge58" class="edge">
<title>27&#45;&gt;13</title>
<g id="a_edge58"><a xlink:title="include">
<path fill="none" stroke="#1414ce" d="M1152.24,-302.77C1231.26,-298.28 1379.66,-285.52 1419,-252 1436.89,-236.76 1444.14,-210.48 1447.07,-190.41"/>
<polygon fill="#1414ce" stroke="#1414ce" points="1450.56,-190.64 1448.26,-180.3 1443.61,-189.82 1450.56,-190.64"/>
</a>
</g>
</g>
<!-- 27&#45;&gt;18 -->
<g id="edge59" class="edge">
<title>27&#45;&gt;18</title>
<g id="a_edge59"><a xlink:title="include">
<path fill="none" stroke="#1414ce" d="M1051.82,-295.05C1036.81,-292.39 1020.29,-289.76 1005,-288 934.02,-279.82 421.49,-293.02 363,-252 342.85,-237.87 333.32,-210.77 328.85,-190.18"/>
<polygon fill="#1414ce" stroke="#1414ce" points="332.24,-189.27 326.95,-180.1 325.37,-190.57 332.24,-189.27"/>
</a>
</g>
</g>
<!-- 27&#45;&gt;28 -->
<g id="edge60" class="edge">
<title>27&#45;&gt;28</title>
<g id="a_edge60"><a xlink:title="include">
<path fill="none" stroke="#1414ce" d="M1051.68,-296.02C1036.67,-293.39 1020.18,-290.53 1005,-288 905.92,-271.46 790.08,-253.35 724.15,-243.16"/>
<polygon fill="#1414ce" stroke="#1414ce" points="724.42,-239.66 714.01,-241.6 723.36,-246.58 724.42,-239.66"/>
</a>
</g>
</g>
<!-- 27&#45;&gt;25 -->
<g id="edge61" class="edge">
<title>27&#45;&gt;25</title>
<g id="a_edge61"><a xlink:title="include">
<path fill="none" stroke="#1414ce" d="M1152.16,-291.75C1198.38,-279.54 1266.77,-261.48 1313.91,-249.02"/>
<polygon fill="#1414ce" stroke="#1414ce" points="1314.85,-252.39 1323.63,-246.46 1313.07,-245.63 1314.85,-252.39"/>
</a>
</g>
</g>
<!-- 27&#45;&gt;19 -->
<g id="edge62" class="edge">
<title>27&#45;&gt;19</title>
<g id="a_edge62"><a xlink:title="include">
<path fill="none" stroke="#1414ce" d="M1051.78,-295.37C1036.77,-292.72 1020.25,-290.02 1005,-288 952.52,-281.06 602.84,-251 467.94,-239.5"/>
<polygon fill="#1414ce" stroke="#1414ce" points="468.11,-236 457.85,-238.64 467.51,-242.98 468.11,-236"/>
</a>
</g>
</g>
<!-- 27&#45;&gt;6 -->
<g id="edge57" class="edge">
<title>27&#45;&gt;6</title>
<g id="a_edge57"><a xlink:title="include">
<path fill="none" stroke="#1414ce" d="M1109.45,-287.85C1125.64,-250.6 1164.12,-162.07 1183.47,-117.54"/>
<polygon fill="#1414ce" stroke="#1414ce" points="1186.74,-118.8 1187.51,-108.23 1180.32,-116.01 1186.74,-118.8"/>
</a>
</g>
</g>
<!-- 1 -->
<g id="node16" class="node">
<title>1</title>
<g id="a_node16"><a xlink:title="/__w/AtomVM/AtomVM/src/libAtomVM/scheduler.h">
<polygon fill="#bfbfbf" stroke="black" points="660.5,-756 285.5,-756 285.5,-720 660.5,-720 660.5,-756"/>
<text text-anchor="middle" x="473" y="-734.3" font-family="Times,serif" font-size="14.00">/__w/AtomVM/AtomVM/src/libAtomVM/scheduler.h</text>
</a>
</g>
</g>
<!-- 1&#45;&gt;2 -->
<g id="edge63" class="edge">
<title>1&#45;&gt;2</title>
<g id="a_edge63"><a xlink:title="include">
<path fill="none" stroke="#1414ce" d="M482.89,-719.7C487.49,-711.64 493.06,-701.89 498.15,-692.98"/>
<polygon fill="#1414ce" stroke="#1414ce" points="501.3,-694.52 503.23,-684.1 495.23,-691.05 501.3,-694.52"/>
</a>
</g>
</g>
<!-- 1&#45;&gt;3 -->
<g id="edge64" class="edge">
<title>1&#45;&gt;3</title>
<g id="a_edge64"><a xlink:title="include">
<path fill="none" stroke="#1414ce" d="M467.45,-719.87C459.58,-695.56 445.08,-650.82 435.75,-622.01"/>
<polygon fill="#1414ce" stroke="#1414ce" points="438.98,-620.62 432.57,-612.19 432.32,-622.78 438.98,-620.62"/>
</a>
</g>
</g>
<!-- 20&#45;&gt;8 -->
<g id="edge65" class="edge">
<title>20&#45;&gt;8</title>
<g id="a_edge65"><a xlink:title="include">
<path fill="none" stroke="#1414ce" d="M496.03,-147.3C499.03,-146.11 502.06,-144.99 505,-144 560.82,-125.21 626.76,-110.12 671.39,-100.92"/>
<polygon fill="#1414ce" stroke="#1414ce" points="672.31,-104.31 681.41,-98.88 670.92,-97.45 672.31,-104.31"/>
</a>
</g>
</g>
<!-- 19&#45;&gt;18 -->
<g id="edge67" class="edge">
<title>19&#45;&gt;18</title>
<g id="a_edge67"><a xlink:title="include">
<path fill="none" stroke="#1414ce" d="M392.75,-215.7C381.42,-206.88 367.47,-196.03 355.18,-186.47"/>
<polygon fill="#1414ce" stroke="#1414ce" points="357.03,-183.48 346.99,-180.1 352.74,-189.01 357.03,-183.48"/>
</a>
</g>
</g>
<!-- 19&#45;&gt;20 -->
<g id="edge68" class="edge">
<title>19&#45;&gt;20</title>
<g id="a_edge68"><a xlink:title="include">
<path fill="none" stroke="#1414ce" d="M427.61,-215.7C433.6,-207.47 440.88,-197.48 447.48,-188.42"/>
<polygon fill="#1414ce" stroke="#1414ce" points="450.48,-190.25 453.54,-180.1 444.82,-186.13 450.48,-190.25"/>
</a>
</g>
</g>
<!-- 12 -->
<g id="node31" class="node">
<title>12</title>
<g id="a_node31"><a xlink:title="stdio.h">
<polygon fill="#ffffff" stroke="black" points="1091.5,-108 1026.5,-108 1026.5,-72 1091.5,-72 1091.5,-108"/>
<text text-anchor="middle" x="1059" y="-86.3" font-family="Times,serif" font-size="14.00">stdio.h</text>
</a>
</g>
</g>
<!-- 19&#45;&gt;12 -->
<g id="edge66" class="edge">
<title>19&#45;&gt;12</title>
<g id="a_edge66"><a xlink:title="include">
<path fill="none" stroke="#1414ce" d="M457.5,-223.63C574.26,-197.88 899,-126.28 1016.16,-100.45"/>
<polygon fill="#1414ce" stroke="#1414ce" points="1017.18,-103.81 1026.19,-98.24 1015.67,-96.97 1017.18,-103.81"/>
</a>
</g>
</g>
<!-- 21&#45;&gt;5 -->
<g id="edge75" class="edge">
<title>21&#45;&gt;5</title>
<g id="a_edge75"><a xlink:title="include">
<path fill="none" stroke="#1414ce" d="M1153.45,-431.81C1165.61,-400.99 1185.96,-335.14 1161,-288 1145.43,-258.6 1067.49,-212.16 1018.17,-184.93"/>
<polygon fill="#1414ce" stroke="#1414ce" points="1019.77,-181.82 1009.32,-180.08 1016.41,-187.95 1019.77,-181.82"/>
</a>
</g>
</g>
<!-- 21&#45;&gt;24 -->
<g id="edge76" class="edge">
<title>21&#45;&gt;24</title>
<g id="a_edge76"><a xlink:title="include">
<path fill="none" stroke="#1414ce" d="M1113.44,-442.37C1070.85,-433.4 994.09,-416.15 930,-396 928.39,-395.49 926.75,-394.96 925.1,-394.4"/>
<polygon fill="#1414ce" stroke="#1414ce" points="926.23,-391.09 915.64,-391.04 923.89,-397.69 926.23,-391.09"/>
</a>
</g>
</g>
<!-- 21&#45;&gt;25 -->
<g id="edge77" class="edge">
<title>21&#45;&gt;25</title>
<g id="a_edge77"><a xlink:title="include">
<path fill="none" stroke="#1414ce" d="M1178.76,-446.83C1239.04,-442.08 1363.81,-428.48 1390,-396 1421.1,-357.42 1398.75,-296.07 1381.62,-261.3"/>
<polygon fill="#1414ce" stroke="#1414ce" points="1384.65,-259.54 1376.97,-252.24 1378.42,-262.74 1384.65,-259.54"/>
</a>
</g>
</g>
<!-- 21&#45;&gt;26 -->
<g id="edge78" class="edge">
<title>21&#45;&gt;26</title>
<g id="a_edge78"><a xlink:title="include">
<path fill="none" stroke="#1414ce" d="M1116.64,-431.88C1100.95,-422.72 1081.44,-411.34 1064.55,-401.48"/>
<polygon fill="#1414ce" stroke="#1414ce" points="1065.87,-398.21 1055.47,-396.19 1062.34,-404.25 1065.87,-398.21"/>
</a>
</g>
</g>
<!-- 21&#45;&gt;27 -->
<g id="edge79" class="edge">
<title>21&#45;&gt;27</title>
<g id="a_edge79"><a xlink:title="include">
<path fill="none" stroke="#1414ce" d="M1140.69,-431.87C1133.16,-407.56 1119.3,-362.82 1110.37,-334.01"/>
<polygon fill="#1414ce" stroke="#1414ce" points="1113.63,-332.71 1107.33,-324.19 1106.94,-334.78 1113.63,-332.71"/>
</a>
</g>
</g>
<!-- 21&#45;&gt;14 -->
<g id="edge81" class="edge">
<title>21&#45;&gt;14</title>
<g id="a_edge81"><a xlink:title="include">
<path fill="none" stroke="#1414ce" d="M1178.62,-446.49C1246.31,-440.75 1399.3,-424.88 1442,-396 1538.19,-330.94 1564.07,-247.29 1511,-144 1504.73,-131.79 1494.19,-121.77 1483.01,-113.85"/>
<polygon fill="#1414ce" stroke="#1414ce" points="1484.67,-110.75 1474.39,-108.2 1480.84,-116.61 1484.67,-110.75"/>
</a>
</g>
</g>
<!-- 21&#45;&gt;9 -->
<g id="edge80" class="edge">
<title>21&#45;&gt;9</title>
<g id="a_edge80"><a xlink:title="include">
<path fill="none" stroke="#1414ce" d="M1157.31,-431.79C1175.14,-402.52 1206.53,-341.08 1194,-288 1185.78,-253.18 1182.94,-241.65 1158,-216 1148.94,-206.68 1122.47,-192.7 1099.18,-181.43"/>
<polygon fill="#1414ce" stroke="#1414ce" points="1100.65,-178.26 1090.12,-177.11 1097.64,-184.58 1100.65,-178.26"/>
</a>
</g>
</g>
<!-- 21&#45;&gt;8 -->
<g id="edge70" class="edge">
<title>21&#45;&gt;8</title>
<g id="a_edge70"><a xlink:title="include">
<path fill="none" stroke="#1414ce" d="M1113.37,-446.19C1045.62,-439.88 892.31,-423 848,-396 805.49,-370.1 780,-356.78 780,-307 780,-307 780,-307 780,-233 780,-192.03 772.34,-181.57 756,-144 752,-134.8 746.58,-125.33 741.29,-116.98"/>
<polygon fill="#1414ce" stroke="#1414ce" points="744.09,-114.87 735.67,-108.43 738.24,-118.71 744.09,-114.87"/>
</a>
</g>
</g>
<!-- 21&#45;&gt;4 -->
<g id="edge71" class="edge">
<title>21&#45;&gt;4</title>
<g id="a_edge71"><a xlink:title="include">
<path fill="none" stroke="#1414ce" d="M1178.74,-444.59C1227.68,-437.25 1316.16,-420.85 1335,-396 1344.67,-383.25 1337.54,-375.8 1335,-360 1324.31,-293.46 1290.42,-116.72 1240,-72 1208.45,-44.02 1089.97,-29.11 1023.3,-22.77"/>
<polygon fill="#1414ce" stroke="#1414ce" points="1023.35,-19.26 1013.07,-21.83 1022.71,-26.23 1023.35,-19.26"/>
</a>
</g>
</g>
<!-- 21&#45;&gt;12 -->
<g id="edge72" class="edge">
<title>21&#45;&gt;12</title>
<g id="a_edge72"><a xlink:title="include">
<path fill="none" stroke="#1414ce" d="M1178.57,-449.68C1219.04,-448.54 1286.69,-439.69 1319,-396 1328.51,-383.14 1324.88,-374.88 1319,-360 1274.04,-246.3 1154.62,-154.37 1094.55,-113.66"/>
<polygon fill="#1414ce" stroke="#1414ce" points="1096.39,-110.68 1086.14,-108.03 1092.5,-116.5 1096.39,-110.68"/>
</a>
</g>
</g>
<!-- 21&#45;&gt;6 -->
<g id="edge73" class="edge">
<title>21&#45;&gt;6</title>
<g id="a_edge73"><a xlink:title="include">
<path fill="none" stroke="#1414ce" d="M1178.97,-446.33C1241.94,-440.62 1376.15,-425.27 1411,-396 1489.87,-329.75 1476.01,-281.24 1495,-180 1497.95,-164.27 1505.28,-156.26 1495,-144 1478.84,-124.73 1321.07,-104.84 1241.05,-95.88"/>
<polygon fill="#1414ce" stroke="#1414ce" points="1241.09,-92.37 1230.77,-94.75 1240.32,-99.32 1241.09,-92.37"/>
</a>
</g>
</g>
<!-- 21&#45;&gt;23 -->
<g id="edge74" class="edge">
<title>21&#45;&gt;23</title>
<g id="a_edge74"><a xlink:title="include">
<path fill="none" stroke="#1414ce" d="M1113.24,-444.14C1065.79,-436.37 981.57,-419.59 963,-396 949.44,-378.77 949.67,-353.34 952.58,-334.06"/>
<polygon fill="#1414ce" stroke="#1414ce" points="956.05,-334.55 954.4,-324.08 949.16,-333.29 956.05,-334.55"/>
</a>
</g>
</g>
<!-- 22 -->
<g id="node34" class="node">
<title>22</title>
<g id="a_node34"><a xlink:title="sys/types.h">
<polygon fill="#ffffff" stroke="black" points="1309.5,-396 1212.5,-396 1212.5,-360 1309.5,-360 1309.5,-396"/>
<text text-anchor="middle" x="1261" y="-374.3" font-family="Times,serif" font-size="14.00">sys/types.h</text>
</a>
</g>
</g>
<!-- 21&#45;&gt;22 -->
<g id="edge69" class="edge">
<title>21&#45;&gt;22</title>
<g id="a_edge69"><a xlink:title="include">
<path fill="none" stroke="#1414ce" d="M1174.13,-431.88C1189.17,-422.72 1207.87,-411.34 1224.06,-401.48"/>
<polygon fill="#1414ce" stroke="#1414ce" points="1226.04,-404.38 1232.76,-396.19 1222.4,-398.4 1226.04,-404.38"/>
</a>
</g>
</g>
<!-- 15 -->
<g id="node25" class="node">
<title>15</title>
<g id="a_node25"><a xlink:title="assert.h">
<polygon fill="#ffffff" stroke="black" points="1428,-36 1354,-36 1354,0 1428,0 1428,-36"/>
<text text-anchor="middle" x="1391" y="-14.3" font-family="Times,serif" font-size="14.00">assert.h</text>
</a>
</g>
</g>
<!-- 14&#45;&gt;15 -->
<g id="edge82" class="edge">
<title>14&#45;&gt;15</title>
<g id="a_edge82"><a xlink:title="include">
<path fill="none" stroke="#1414ce" d="M1425.63,-71.7C1420.28,-63.56 1413.8,-53.69 1407.89,-44.7"/>
<polygon fill="#1414ce" stroke="#1414ce" points="1410.66,-42.54 1402.24,-36.1 1404.81,-46.38 1410.66,-42.54"/>
</a>
</g>
</g>
<!-- 10 -->
<g id="node26" class="node">
<title>10</title>
<g id="a_node26"><a xlink:title="inttypes.h">
<polygon fill="#ffffff" stroke="black" points="1230.5,-36 1141.5,-36 1141.5,0 1230.5,0 1230.5,-36"/>
<text text-anchor="middle" x="1186" y="-14.3" font-family="Times,serif" font-size="14.00">inttypes.h</text>
</a>
</g>
</g>
<!-- 14&#45;&gt;10 -->
<g id="edge84" class="edge">
<title>14&#45;&gt;10</title>
<g id="a_edge84"><a xlink:title="include">
<path fill="none" stroke="#1414ce" d="M1375.92,-71.97C1334.58,-60.44 1280.45,-45.34 1240.56,-34.22"/>
<polygon fill="#1414ce" stroke="#1414ce" points="1241.32,-30.79 1230.75,-31.48 1239.44,-37.54 1241.32,-30.79"/>
</a>
</g>
</g>
<!-- 16 -->
<g id="node27" class="node">
<title>16</title>
<g id="a_node27"><a xlink:title="limits.h">
<polygon fill="#ffffff" stroke="black" points="1517.5,-36 1446.5,-36 1446.5,0 1517.5,0 1517.5,-36"/>
<text text-anchor="middle" x="1482" y="-14.3" font-family="Times,serif" font-size="14.00">limits.h</text>
</a>
</g>
</g>
<!-- 14&#45;&gt;16 -->
<g id="edge83" class="edge">
<title>14&#45;&gt;16</title>
<g id="a_edge83"><a xlink:title="include">
<path fill="none" stroke="#1414ce" d="M1448.12,-71.7C1453.36,-63.56 1459.7,-53.69 1465.48,-44.7"/>
<polygon fill="#1414ce" stroke="#1414ce" points="1468.54,-46.41 1471,-36.1 1462.65,-42.62 1468.54,-46.41"/>
</a>
</g>
</g>
<!-- 14&#45;&gt;4 -->
<g id="edge85" class="edge">
<title>14&#45;&gt;4</title>
<g id="a_edge85"><a xlink:title="include">
<path fill="none" stroke="#1414ce" d="M1374.47,-74.76C1369.58,-73.78 1364.72,-72.85 1360,-72 1239.09,-50.32 1095.33,-32.55 1023.17,-24.18"/>
<polygon fill="#1414ce" stroke="#1414ce" points="1023.39,-20.69 1013.06,-23.02 1022.59,-27.64 1023.39,-20.69"/>
</a>
</g>
</g>
<!-- 29&#45;&gt;18 -->
<g id="edge88" class="edge">
<title>29&#45;&gt;18</title>
<g id="a_edge88"><a xlink:title="include">
<path fill="none" stroke="#1414ce" d="M164.2,-218.83C198.12,-208.76 244.12,-194.49 284,-180 285.4,-179.49 286.83,-178.96 288.27,-178.42"/>
<polygon fill="#1414ce" stroke="#1414ce" points="289.75,-181.59 297.79,-174.68 287.2,-175.07 289.75,-181.59"/>
</a>
</g>
</g>
<!-- 29&#45;&gt;8 -->
<g id="edge86" class="edge">
<title>29&#45;&gt;8</title>
<g id="a_edge86"><a xlink:title="include">
<path fill="none" stroke="#1414ce" d="M164.01,-217.3C189.38,-208.17 220.34,-195.41 246,-180 267.37,-167.17 266.1,-153.83 289,-144 418.07,-88.58 463.67,-125.85 603,-108 625.42,-105.13 650.15,-101.67 671.31,-98.63"/>
<polygon fill="#1414ce" stroke="#1414ce" points="671.99,-102.07 681.39,-97.17 670.99,-95.14 671.99,-102.07"/>
</a>
</g>
</g>
<!-- 29&#45;&gt;4 -->
<g id="edge87" class="edge">
<title>29&#45;&gt;4</title>
<g id="a_edge87"><a xlink:title="include">
<path fill="none" stroke="#1414ce" d="M153.56,-215.87C172.4,-206.6 194.85,-194.15 213,-180 230.12,-166.65 227.46,-155.29 246,-144 362.8,-72.86 789.12,-33.71 930.84,-22.45"/>
<polygon fill="#1414ce" stroke="#1414ce" points="931.24,-25.93 940.94,-21.65 930.69,-18.95 931.24,-25.93"/>
</a>
</g>
</g>
<!-- 33&#45;&gt;8 -->
<g id="edge89" class="edge">
<title>33&#45;&gt;8</title>
<g id="a_edge89"><a xlink:title="include">
<path fill="none" stroke="#1414ce" d="M597.61,-143.88C620.4,-134.26 649.03,-122.19 673.17,-112.01"/>
<polygon fill="#1414ce" stroke="#1414ce" points="674.67,-115.18 682.52,-108.07 671.95,-108.73 674.67,-115.18"/>
</a>
</g>
</g>
<!-- 11 -->
<g id="node29" class="node">
<title>11</title>
<g id="a_node29"><a xlink:title="stddef.h">
<polygon fill="#ffffff" stroke="black" points="594,-108 520,-108 520,-72 594,-72 594,-108"/>
<text text-anchor="middle" x="557" y="-86.3" font-family="Times,serif" font-size="14.00">stddef.h</text>
</a>
</g>
</g>
<!-- 33&#45;&gt;11 -->
<g id="edge90" class="edge">
<title>33&#45;&gt;11</title>
<g id="a_edge90"><a xlink:title="include">
<path fill="none" stroke="#1414ce" d="M557,-143.7C557,-135.98 557,-126.71 557,-118.11"/>
<polygon fill="#1414ce" stroke="#1414ce" points="560.5,-118.1 557,-108.1 553.5,-118.1 560.5,-118.1"/>
</a>
</g>
</g>
<!-- 33&#45;&gt;4 -->
<g id="edge91" class="edge">
<title>33&#45;&gt;4</title>
<g id="a_edge91"><a xlink:title="include">
<path fill="none" stroke="#1414ce" d="M573.73,-143.85C594.85,-123.29 633.25,-89.44 673,-72 758.79,-34.35 869.24,-23.41 930.62,-20.25"/>
<polygon fill="#1414ce" stroke="#1414ce" points="930.94,-23.74 940.76,-19.78 930.61,-16.75 930.94,-23.74"/>
</a>
</g>
</g>
<!-- 9&#45;&gt;10 -->
<g id="edge92" class="edge">
<title>9&#45;&gt;10</title>
<g id="a_edge92"><a xlink:title="include">
<path fill="none" stroke="#1414ce" d="M1074.32,-143.87C1096.63,-118.92 1138.2,-72.45 1163.84,-43.77"/>
<polygon fill="#1414ce" stroke="#1414ce" points="1166.57,-45.98 1170.63,-36.19 1161.35,-41.31 1166.57,-45.98"/>
</a>
</g>
</g>
<!-- 9&#45;&gt;8 -->
<g id="edge93" class="edge">
<title>9&#45;&gt;8</title>
<g id="a_edge93"><a xlink:title="include">
<path fill="none" stroke="#1414ce" d="M1027.8,-146.96C1024.86,-145.87 1021.89,-144.86 1019,-144 935.28,-119.06 834.55,-104.08 774.81,-96.7"/>
<polygon fill="#1414ce" stroke="#1414ce" points="775.22,-93.22 764.87,-95.49 774.37,-100.17 775.22,-93.22"/>
</a>
</g>
</g>
<!-- 9&#45;&gt;11 -->
<g id="edge94" class="edge">
<title>9&#45;&gt;11</title>
<g id="a_edge94"><a xlink:title="include">
<path fill="none" stroke="#1414ce" d="M1027.87,-146.73C1024.91,-145.69 1021.92,-144.75 1019,-144 869.31,-105.33 826.41,-127.21 673,-108 650.26,-105.15 625.09,-101.52 604.02,-98.35"/>
<polygon fill="#1414ce" stroke="#1414ce" points="604.45,-94.87 594.04,-96.83 603.4,-101.79 604.45,-94.87"/>
</a>
</g>
</g>
<!-- 9&#45;&gt;12 -->
<g id="edge95" class="edge">
<title>9&#45;&gt;12</title>
<g id="a_edge95"><a xlink:title="include">
<path fill="none" stroke="#1414ce" d="M1059,-143.7C1059,-135.98 1059,-126.71 1059,-118.11"/>
<polygon fill="#1414ce" stroke="#1414ce" points="1062.5,-118.1 1059,-108.1 1055.5,-118.1 1062.5,-118.1"/>
</a>
</g>
</g>
<!-- 9&#45;&gt;6 -->
<g id="edge96" class="edge">
<title>9&#45;&gt;6</title>
<g id="a_edge96"><a xlink:title="include">
<path fill="none" stroke="#1414ce" d="M1090.2,-144.94C1108.7,-135.42 1132.4,-123.22 1152.57,-112.84"/>
<polygon fill="#1414ce" stroke="#1414ce" points="1154.28,-115.9 1161.57,-108.21 1151.07,-109.67 1154.28,-115.9"/>
</a>
</g>
</g>
<!-- 30&#45;&gt;11 -->
<g id="edge97" class="edge">
<title>30&#45;&gt;11</title>
<g id="a_edge97"><a xlink:title="include">
<path fill="none" stroke="#1414ce" d="M204.23,-148.97C291.82,-134.57 435.86,-110.91 509.87,-98.74"/>
<polygon fill="#1414ce" stroke="#1414ce" points="510.53,-102.18 519.83,-97.11 509.4,-95.28 510.53,-102.18"/>
</a>
</g>
</g>
<!-- 30&#45;&gt;4 -->
<g id="edge98" class="edge">
<title>30&#45;&gt;4</title>
<g id="a_edge98"><a xlink:title="include">
<path fill="none" stroke="#1414ce" d="M141.81,-143.95C156.27,-122.82 184.07,-87.69 218,-72 282.53,-42.15 775.38,-25.02 930.45,-20.33"/>
<polygon fill="#1414ce" stroke="#1414ce" points="930.7,-23.82 940.59,-20.03 930.49,-16.83 930.7,-23.82"/>
</a>
</g>
</g>
</g>
</svg>
