<?xml version="1.0" encoding="UTF-8" standalone="no"?>
<!DOCTYPE svg PUBLIC "-//W3C//DTD SVG 1.1//EN"
 "http://www.w3.org/Graphics/SVG/1.1/DTD/svg11.dtd">
<!-- Generated by graphviz version 2.43.0 (0)
 -->
<!-- Title: %3 Pages: 1 -->
<svg width="1463pt" height="620pt"
 viewBox="0.00 0.00 1463.00 620.00" xmlns="http://www.w3.org/2000/svg" xmlns:xlink="http://www.w3.org/1999/xlink">
<g id="graph0" class="graph" transform="scale(1 1) rotate(0) translate(4 616)">
<title>%3</title>
<polygon fill="transparent" stroke="transparent" points="-4,4 -4,-616 1459,-616 1459,4 -4,4"/>
<!-- 3 -->
<g id="node1" class="node">
<title>3</title>
<g id="a_node1"><a xlink:title="atom.h">
<polygon fill="#ffffff" stroke="black" points="86,-180 20,-180 20,-144 86,-144 86,-180"/>
<text text-anchor="middle" x="53" y="-158.3" font-family="Times,serif" font-size="14.00">atom.h</text>
</a>
</g>
</g>
<!-- 2 -->
<g id="node24" class="node">
<title>2</title>
<g id="a_node24"><a xlink:title="stdint.h">
<polygon fill="#ffffff" stroke="black" points="1251,-36 1179,-36 1179,0 1251,0 1251,-36"/>
<text text-anchor="middle" x="1215" y="-14.3" font-family="Times,serif" font-size="14.00">stdint.h</text>
</a>
</g>
</g>
<!-- 3&#45;&gt;2 -->
<g id="edge1" class="edge">
<title>3&#45;&gt;2</title>
<g id="a_edge1"><a xlink:title="include">
<path fill="none" stroke="#1414ce" d="M74.43,-143.79C102.35,-122.49 153.59,-87.18 204,-72 296.97,-44.01 982.63,-24.85 1168.59,-20.13"/>
<polygon fill="#1414ce" stroke="#1414ce" points="1168.94,-23.63 1178.85,-19.88 1168.76,-16.63 1168.94,-23.63"/>
</a>
</g>
</g>
<!-- 4 -->
<g id="node26" class="node">
<title>4</title>
<g id="a_node26"><a xlink:title="stdlib.h">
<polygon fill="#ffffff" stroke="black" points="284.5,-108 213.5,-108 213.5,-72 284.5,-72 284.5,-108"/>
<text text-anchor="middle" x="249" y="-86.3" font-family="Times,serif" font-size="14.00">stdlib.h</text>
</a>
</g>
</g>
<!-- 3&#45;&gt;4 -->
<g id="edge2" class="edge">
<title>3&#45;&gt;4</title>
<g id="a_edge2"><a xlink:title="include">
<path fill="none" stroke="#1414ce" d="M86.12,-149C90.78,-147.31 95.51,-145.61 100,-144 134.83,-131.51 174.28,-117.48 203.83,-107"/>
<polygon fill="#1414ce" stroke="#1414ce" points="205.2,-110.22 213.46,-103.58 202.86,-103.63 205.2,-110.22"/>
</a>
</g>
</g>
<!-- 5 -->
<g id="node2" class="node">
<title>5</title>
<g id="a_node2"><a xlink:title="atom_table.h">
<polygon fill="#ffffff" stroke="black" points="327.5,-252 218.5,-252 218.5,-216 327.5,-216 327.5,-252"/>
<text text-anchor="middle" x="273" y="-230.3" font-family="Times,serif" font-size="14.00">atom_table.h</text>
</a>
</g>
</g>
<!-- 5&#45;&gt;3 -->
<g id="edge4" class="edge">
<title>5&#45;&gt;3</title>
<g id="a_edge4"><a xlink:title="include">
<path fill="none" stroke="#1414ce" d="M219.46,-215.97C181.45,-203.87 131.09,-187.85 95.75,-176.6"/>
<polygon fill="#1414ce" stroke="#1414ce" points="96.79,-173.26 86.2,-173.56 94.67,-179.93 96.79,-173.26"/>
</a>
</g>
</g>
<!-- 7 -->
<g id="node17" class="node">
<title>7</title>
<g id="a_node17"><a xlink:title="utils.h">
<polygon fill="#ffffff" stroke="black" points="667,-180 605,-180 605,-144 667,-144 667,-180"/>
<text text-anchor="middle" x="636" y="-158.3" font-family="Times,serif" font-size="14.00">utils.h</text>
</a>
</g>
</g>
<!-- 5&#45;&gt;7 -->
<g id="edge5" class="edge">
<title>5&#45;&gt;7</title>
<g id="a_edge5"><a xlink:title="include">
<path fill="none" stroke="#1414ce" d="M327.74,-222.44C401.06,-208.31 529.51,-183.54 595.03,-170.9"/>
<polygon fill="#1414ce" stroke="#1414ce" points="595.83,-174.31 604.99,-168.98 594.51,-167.44 595.83,-174.31"/>
</a>
</g>
</g>
<!-- 6 -->
<g id="node22" class="node">
<title>6</title>
<g id="a_node22"><a xlink:title="stdbool.h">
<polygon fill="#ffffff" stroke="black" points="871.5,-108 788.5,-108 788.5,-72 871.5,-72 871.5,-108"/>
<text text-anchor="middle" x="830" y="-86.3" font-family="Times,serif" font-size="14.00">stdbool.h</text>
</a>
</g>
</g>
<!-- 5&#45;&gt;6 -->
<g id="edge3" class="edge">
<title>5&#45;&gt;6</title>
<g id="a_edge3"><a xlink:title="include">
<path fill="none" stroke="#1414ce" d="M275.72,-215.66C279.97,-194.92 290.31,-160.88 314,-144 380.02,-96.97 596.38,-116.48 677,-108 710.76,-104.45 748.69,-100.24 778.33,-96.89"/>
<polygon fill="#1414ce" stroke="#1414ce" points="778.91,-100.35 788.45,-95.75 778.12,-93.4 778.91,-100.35"/>
</a>
</g>
</g>
<!-- 11 -->
<g id="node3" class="node">
<title>11</title>
<g id="a_node3"><a xlink:title="erl_nif.h">
<polygon fill="#ffffff" stroke="black" points="397,-180 323,-180 323,-144 397,-144 397,-180"/>
<text text-anchor="middle" x="360" y="-158.3" font-family="Times,serif" font-size="14.00">erl_nif.h</text>
</a>
</g>
</g>
<!-- 12 -->
<g id="node15" class="node">
<title>12</title>
<g id="a_node15"><a xlink:title="term_typedef.h">
<polygon fill="#ffffff" stroke="black" points="470.5,-108 345.5,-108 345.5,-72 470.5,-72 470.5,-108"/>
<text text-anchor="middle" x="408" y="-86.3" font-family="Times,serif" font-size="14.00">term_typedef.h</text>
</a>
</g>
</g>
<!-- 11&#45;&gt;12 -->
<g id="edge6" class="edge">
<title>11&#45;&gt;12</title>
<g id="a_edge6"><a xlink:title="include">
<path fill="none" stroke="#1414ce" d="M371.87,-143.7C377.5,-135.47 384.35,-125.48 390.57,-116.42"/>
<polygon fill="#1414ce" stroke="#1414ce" points="393.5,-118.33 396.27,-108.1 387.73,-114.37 393.5,-118.33"/>
</a>
</g>
</g>
<!-- 15 -->
<g id="node4" class="node">
<title>15</title>
<g id="a_node4"><a xlink:title="ets.h">
<polygon fill="#ffffff" stroke="black" points="1064,-540 1010,-540 1010,-504 1064,-504 1064,-540"/>
<text text-anchor="middle" x="1037" y="-518.3" font-family="Times,serif" font-size="14.00">ets.h</text>
</a>
</g>
</g>
<!-- 16 -->
<g id="node7" class="node">
<title>16</title>
<g id="a_node7"><a xlink:title="list.h">
<polygon fill="#ffffff" stroke="black" points="979,-180 925,-180 925,-144 979,-144 979,-180"/>
<text text-anchor="middle" x="952" y="-158.3" font-family="Times,serif" font-size="14.00">list.h</text>
</a>
</g>
</g>
<!-- 15&#45;&gt;16 -->
<g id="edge7" class="edge">
<title>15&#45;&gt;16</title>
<g id="a_edge7"><a xlink:title="include">
<path fill="none" stroke="#1414ce" d="M1033.56,-503.59C1028.59,-476.9 1020,-424.19 1020,-379 1020,-379 1020,-379 1020,-305 1020,-264.03 1014.85,-252.37 996,-216 990.83,-206.02 983.53,-196.23 976.35,-187.83"/>
<polygon fill="#1414ce" stroke="#1414ce" points="978.86,-185.38 969.59,-180.24 973.63,-190.03 978.86,-185.38"/>
</a>
</g>
</g>
<!-- 17 -->
<g id="node13" class="node">
<title>17</title>
<g id="a_node13"><a xlink:title="synclist.h">
<polygon fill="#ffffff" stroke="black" points="1133.5,-252 1048.5,-252 1048.5,-216 1133.5,-216 1133.5,-252"/>
<text text-anchor="middle" x="1091" y="-230.3" font-family="Times,serif" font-size="14.00">synclist.h</text>
</a>
</g>
</g>
<!-- 15&#45;&gt;17 -->
<g id="edge8" class="edge">
<title>15&#45;&gt;17</title>
<g id="a_edge8"><a xlink:title="include">
<path fill="none" stroke="#1414ce" d="M1040.22,-503.97C1049.24,-456.19 1074.83,-320.62 1085.85,-262.27"/>
<polygon fill="#1414ce" stroke="#1414ce" points="1089.32,-262.78 1087.73,-252.31 1082.44,-261.48 1089.32,-262.78"/>
</a>
</g>
</g>
<!-- 19 -->
<g id="node14" class="node">
<title>19</title>
<g id="a_node14"><a xlink:title="term.h">
<polygon fill="#ffffff" stroke="black" points="591.5,-468 526.5,-468 526.5,-432 591.5,-432 591.5,-468"/>
<text text-anchor="middle" x="559" y="-446.3" font-family="Times,serif" font-size="14.00">term.h</text>
</a>
</g>
</g>
<!-- 15&#45;&gt;19 -->
<g id="edge9" class="edge">
<title>15&#45;&gt;19</title>
<g id="a_edge9"><a xlink:title="include">
<path fill="none" stroke="#1414ce" d="M1009.93,-517.04C930.57,-505.41 698,-471.36 601.61,-457.24"/>
<polygon fill="#1414ce" stroke="#1414ce" points="602.03,-453.76 591.63,-455.78 601.01,-460.69 602.03,-453.76"/>
</a>
</g>
</g>
<!-- 1 -->
<g id="node5" class="node">
<title>1</title>
<g id="a_node5"><a xlink:title="/__w/AtomVM/AtomVM/src/libAtomVM/globalcontext.h">
<polygon fill="#bfbfbf" stroke="black" points="1211,-612 807,-612 807,-576 1211,-576 1211,-612"/>
<text text-anchor="middle" x="1009" y="-590.3" font-family="Times,serif" font-size="14.00">/__w/AtomVM/AtomVM/src/libAtomVM/globalcontext.h</text>
</a>
</g>
</g>
<!-- 1&#45;&gt;3 -->
<g id="edge11" class="edge">
<title>1&#45;&gt;3</title>
<g id="a_edge11"><a xlink:title="include">
<path fill="none" stroke="#1414ce" d="M806.94,-584.55C512.44,-569.49 0,-531.68 0,-451 0,-451 0,-451 0,-305 0,-262.21 21.39,-216.48 36.99,-188.82"/>
<polygon fill="#1414ce" stroke="#1414ce" points="40.02,-190.56 42.02,-180.16 33.97,-187.05 40.02,-190.56"/>
</a>
</g>
</g>
<!-- 1&#45;&gt;5 -->
<g id="edge12" class="edge">
<title>1&#45;&gt;5</title>
<g id="a_edge12"><a xlink:title="include">
<path fill="none" stroke="#1414ce" d="M806.94,-588.99C622.96,-583.42 374.81,-570.33 340,-540 258.43,-468.92 263.32,-323.29 269.44,-262.56"/>
<polygon fill="#1414ce" stroke="#1414ce" points="272.96,-262.56 270.58,-252.24 266,-261.8 272.96,-262.56"/>
</a>
</g>
</g>
<!-- 1&#45;&gt;11 -->
<g id="edge13" class="edge">
<title>1&#45;&gt;11</title>
<g id="a_edge13"><a xlink:title="include">
<path fill="none" stroke="#1414ce" d="M806.69,-587.62C614.28,-576.83 354,-544.89 354,-451 354,-451 354,-451 354,-377 354,-309.93 356.98,-231.08 358.74,-190.39"/>
<polygon fill="#1414ce" stroke="#1414ce" points="362.25,-190.34 359.19,-180.19 355.25,-190.03 362.25,-190.34"/>
</a>
</g>
</g>
<!-- 1&#45;&gt;15 -->
<g id="edge14" class="edge">
<title>1&#45;&gt;15</title>
<g id="a_edge14"><a xlink:title="include">
<path fill="none" stroke="#1414ce" d="M1015.92,-575.7C1019.07,-567.81 1022.88,-558.3 1026.38,-549.55"/>
<polygon fill="#1414ce" stroke="#1414ce" points="1029.69,-550.69 1030.16,-540.1 1023.19,-548.09 1029.69,-550.69"/>
</a>
</g>
</g>
<!-- 1&#45;&gt;16 -->
<g id="edge15" class="edge">
<title>1&#45;&gt;16</title>
<g id="a_edge15"><a xlink:title="include">
<path fill="none" stroke="#1414ce" d="M1003.54,-575.71C995.65,-549.18 982,-496.67 982,-451 982,-451 982,-451 982,-305 982,-264.16 969.97,-218.11 961.15,-189.82"/>
<polygon fill="#1414ce" stroke="#1414ce" points="964.46,-188.69 958.07,-180.24 957.8,-190.83 964.46,-188.69"/>
</a>
</g>
</g>
<!-- 26 -->
<g id="node8" class="node">
<title>26</title>
<g id="a_node8"><a xlink:title="mailbox.h">
<polygon fill="#ffffff" stroke="black" points="802,-252 716,-252 716,-216 802,-216 802,-252"/>
<text text-anchor="middle" x="759" y="-230.3" font-family="Times,serif" font-size="14.00">mailbox.h</text>
</a>
</g>
</g>
<!-- 1&#45;&gt;26 -->
<g id="edge16" class="edge">
<title>1&#45;&gt;26</title>
<g id="a_edge16"><a xlink:title="include">
<path fill="none" stroke="#1414ce" d="M972.32,-575.88C930.54,-553.55 868,-510.23 868,-451 868,-451 868,-451 868,-377 868,-326.93 824.83,-283.64 792.83,-258.43"/>
<polygon fill="#1414ce" stroke="#1414ce" points="794.63,-255.4 784.56,-252.11 790.38,-260.96 794.63,-255.4"/>
</a>
</g>
</g>
<!-- 18 -->
<g id="node12" class="node">
<title>18</title>
<g id="a_node12"><a xlink:title="smp.h">
<polygon fill="#ffffff" stroke="black" points="1121,-180 1061,-180 1061,-144 1121,-144 1121,-180"/>
<text text-anchor="middle" x="1091" y="-158.3" font-family="Times,serif" font-size="14.00">smp.h</text>
</a>
</g>
</g>
<!-- 1&#45;&gt;18 -->
<g id="edge17" class="edge">
<title>1&#45;&gt;18</title>
<g id="a_edge17"><a xlink:title="include">
<path fill="none" stroke="#1414ce" d="M1054.84,-575.98C1103.05,-554.76 1172,-513.49 1172,-451 1172,-451 1172,-451 1172,-377 1172,-304.21 1175.3,-280.72 1142,-216 1136.59,-205.48 1128.41,-195.63 1120.19,-187.35"/>
<polygon fill="#1414ce" stroke="#1414ce" points="1122.35,-184.57 1112.69,-180.21 1117.52,-189.64 1122.35,-184.57"/>
</a>
</g>
</g>
<!-- 1&#45;&gt;17 -->
<g id="edge18" class="edge">
<title>1&#45;&gt;17</title>
<g id="a_edge18"><a xlink:title="include">
<path fill="none" stroke="#1414ce" d="M1039.9,-575.82C1076.91,-552.69 1134,-507.82 1134,-451 1134,-451 1134,-451 1134,-377 1134,-335.29 1116.8,-289.54 1104.16,-261.54"/>
<polygon fill="#1414ce" stroke="#1414ce" points="1107.3,-260.01 1099.91,-252.42 1100.95,-262.96 1107.3,-260.01"/>
</a>
</g>
</g>
<!-- 1&#45;&gt;19 -->
<g id="edge19" class="edge">
<title>1&#45;&gt;19</title>
<g id="a_edge19"><a xlink:title="include">
<path fill="none" stroke="#1414ce" d="M954.72,-575.87C863.95,-547.23 683.25,-490.21 601.24,-464.33"/>
<polygon fill="#1414ce" stroke="#1414ce" points="602.09,-460.93 591.5,-461.26 599.99,-467.6 602.09,-460.93"/>
</a>
</g>
</g>
<!-- 27 -->
<g id="node16" class="node">
<title>27</title>
<g id="a_node16"><a xlink:title="timer_list.h">
<polygon fill="#ffffff" stroke="black" points="1288,-252 1190,-252 1190,-216 1288,-216 1288,-252"/>
<text text-anchor="middle" x="1239" y="-230.3" font-family="Times,serif" font-size="14.00">timer_list.h</text>
</a>
</g>
</g>
<!-- 1&#45;&gt;27 -->
<g id="edge20" class="edge">
<title>1&#45;&gt;27</title>
<g id="a_edge20"><a xlink:title="include">
<path fill="none" stroke="#1414ce" d="M1119.08,-575.96C1143.21,-568.12 1167.14,-556.69 1186,-540 1218.34,-511.38 1225,-494.19 1225,-451 1225,-451 1225,-451 1225,-377 1225,-337.02 1230.56,-291.02 1234.68,-262.47"/>
<polygon fill="#1414ce" stroke="#1414ce" points="1238.16,-262.84 1236.17,-252.43 1231.24,-261.81 1238.16,-262.84"/>
</a>
</g>
</g>
<!-- 28 -->
<g id="node18" class="node">
<title>28</title>
<g id="a_node18"><a xlink:title="valueshashtable.h">
<polygon fill="#ffffff" stroke="black" points="1427,-180 1281,-180 1281,-144 1427,-144 1427,-180"/>
<text text-anchor="middle" x="1354" y="-158.3" font-family="Times,serif" font-size="14.00">valueshashtable.h</text>
</a>
</g>
</g>
<!-- 1&#45;&gt;28 -->
<g id="edge21" class="edge">
<title>1&#45;&gt;28</title>
<g id="a_edge21"><a xlink:title="include">
<path fill="none" stroke="#1414ce" d="M1092.51,-575.97C1194.62,-552.7 1354,-507.35 1354,-451 1354,-451 1354,-451 1354,-305 1354,-265 1354,-218.65 1354,-190.08"/>
<polygon fill="#1414ce" stroke="#1414ce" points="1357.5,-190.05 1354,-180.05 1350.5,-190.05 1357.5,-190.05"/>
</a>
</g>
</g>
<!-- 1&#45;&gt;2 -->
<g id="edge10" class="edge">
<title>1&#45;&gt;2</title>
<g id="a_edge10"><a xlink:title="include">
<path fill="none" stroke="#1414ce" d="M1147.06,-575.97C1278.05,-555.84 1455,-516.52 1455,-451 1455,-451 1455,-451 1455,-161 1455,-71.83 1330.76,-37.46 1261.06,-25.2"/>
<polygon fill="#1414ce" stroke="#1414ce" points="1261.63,-21.75 1251.19,-23.55 1260.47,-28.65 1261.63,-21.75"/>
</a>
</g>
</g>
<!-- 22 -->
<g id="node6" class="node">
<title>22</title>
<g id="a_node6"><a xlink:title="intn.h">
<polygon fill="#ffffff" stroke="black" points="559.5,-396 500.5,-396 500.5,-360 559.5,-360 559.5,-396"/>
<text text-anchor="middle" x="530" y="-374.3" font-family="Times,serif" font-size="14.00">intn.h</text>
</a>
</g>
</g>
<!-- 22&#45;&gt;7 -->
<g id="edge24" class="edge">
<title>22&#45;&gt;7</title>
<g id="a_edge24"><a xlink:title="include">
<path fill="none" stroke="#1414ce" d="M538.5,-359.85C556.99,-322.52 600.98,-233.69 622.99,-189.26"/>
<polygon fill="#1414ce" stroke="#1414ce" points="626.16,-190.75 627.46,-180.23 619.89,-187.64 626.16,-190.75"/>
</a>
</g>
</g>
<!-- 22&#45;&gt;6 -->
<g id="edge22" class="edge">
<title>22&#45;&gt;6</title>
<g id="a_edge22"><a xlink:title="include">
<path fill="none" stroke="#1414ce" d="M547.87,-359.97C598.81,-311.4 744.93,-172.1 804.38,-115.42"/>
<polygon fill="#1414ce" stroke="#1414ce" points="807.02,-117.74 811.85,-108.31 802.19,-112.67 807.02,-117.74"/>
</a>
</g>
</g>
<!-- 21 -->
<g id="node27" class="node">
<title>21</title>
<g id="a_node27"><a xlink:title="string.h">
<polygon fill="#ffffff" stroke="black" points="531.5,-324 458.5,-324 458.5,-288 531.5,-288 531.5,-324"/>
<text text-anchor="middle" x="495" y="-302.3" font-family="Times,serif" font-size="14.00">string.h</text>
</a>
</g>
</g>
<!-- 22&#45;&gt;21 -->
<g id="edge23" class="edge">
<title>22&#45;&gt;21</title>
<g id="a_edge23"><a xlink:title="include">
<path fill="none" stroke="#1414ce" d="M521.35,-359.7C517.36,-351.73 512.55,-342.1 508.13,-333.26"/>
<polygon fill="#1414ce" stroke="#1414ce" points="511.15,-331.48 503.55,-324.1 504.89,-334.61 511.15,-331.48"/>
</a>
</g>
</g>
<!-- 16&#45;&gt;6 -->
<g id="edge25" class="edge">
<title>16&#45;&gt;6</title>
<g id="a_edge25"><a xlink:title="include">
<path fill="none" stroke="#1414ce" d="M924.92,-145.46C908.39,-135.98 886.99,-123.7 868.69,-113.2"/>
<polygon fill="#1414ce" stroke="#1414ce" points="870.41,-110.15 860,-108.21 866.93,-116.22 870.41,-110.15"/>
</a>
</g>
</g>
<!-- 26&#45;&gt;16 -->
<g id="edge27" class="edge">
<title>26&#45;&gt;16</title>
<g id="a_edge27"><a xlink:title="include">
<path fill="none" stroke="#1414ce" d="M802.31,-217.29C836.36,-204.94 883.24,-187.94 915.42,-176.27"/>
<polygon fill="#1414ce" stroke="#1414ce" points="916.69,-179.53 924.9,-172.83 914.31,-172.95 916.69,-179.53"/>
</a>
</g>
</g>
<!-- 26&#45;&gt;12 -->
<g id="edge28" class="edge">
<title>26&#45;&gt;12</title>
<g id="a_edge28"><a xlink:title="include">
<path fill="none" stroke="#1414ce" d="M748.07,-215.89C734,-195.38 707.57,-161.57 676,-144 615.62,-110.4 537.17,-97.88 480.77,-93.33"/>
<polygon fill="#1414ce" stroke="#1414ce" points="480.74,-89.82 470.51,-92.57 480.22,-96.8 480.74,-89.82"/>
</a>
</g>
</g>
<!-- 26&#45;&gt;7 -->
<g id="edge29" class="edge">
<title>26&#45;&gt;7</title>
<g id="a_edge29"><a xlink:title="include">
<path fill="none" stroke="#1414ce" d="M728.91,-215.88C712.68,-206.64 692.46,-195.13 675.03,-185.21"/>
<polygon fill="#1414ce" stroke="#1414ce" points="676.63,-182.09 666.2,-180.19 673.16,-188.18 676.63,-182.09"/>
</a>
</g>
</g>
<!-- 26&#45;&gt;6 -->
<g id="edge26" class="edge">
<title>26&#45;&gt;6</title>
<g id="a_edge26"><a xlink:title="include">
<path fill="none" stroke="#1414ce" d="M767.56,-215.87C779.82,-191.35 802.48,-146.03 816.87,-117.26"/>
<polygon fill="#1414ce" stroke="#1414ce" points="820.06,-118.7 821.41,-108.19 813.8,-115.57 820.06,-118.7"/>
</a>
</g>
</g>
<!-- 23 -->
<g id="node9" class="node">
<title>23</title>
<g id="a_node9"><a xlink:title="memory.h">
<polygon fill="#ffffff" stroke="black" points="508,-252 422,-252 422,-216 508,-216 508,-252"/>
<text text-anchor="middle" x="465" y="-230.3" font-family="Times,serif" font-size="14.00">memory.h</text>
</a>
</g>
</g>
<!-- 23&#45;&gt;11 -->
<g id="edge32" class="edge">
<title>23&#45;&gt;11</title>
<g id="a_edge32"><a xlink:title="include">
<path fill="none" stroke="#1414ce" d="M439.31,-215.88C425.71,-206.81 408.83,-195.55 394.14,-185.76"/>
<polygon fill="#1414ce" stroke="#1414ce" points="396.05,-182.82 385.78,-180.19 392.16,-188.65 396.05,-182.82"/>
</a>
</g>
</g>
<!-- 23&#45;&gt;12 -->
<g id="edge33" class="edge">
<title>23&#45;&gt;12</title>
<g id="a_edge33"><a xlink:title="include">
<path fill="none" stroke="#1414ce" d="M461.31,-215.84C457.08,-197.59 449.38,-168.1 439,-144 435.04,-134.8 429.8,-125.21 424.77,-116.75"/>
<polygon fill="#1414ce" stroke="#1414ce" points="427.67,-114.79 419.45,-108.1 421.7,-118.45 427.67,-114.79"/>
</a>
</g>
</g>
<!-- 23&#45;&gt;7 -->
<g id="edge34" class="edge">
<title>23&#45;&gt;7</title>
<g id="a_edge34"><a xlink:title="include">
<path fill="none" stroke="#1414ce" d="M506.83,-215.88C533.78,-204.85 568.64,-190.58 595.35,-179.64"/>
<polygon fill="#1414ce" stroke="#1414ce" points="596.86,-182.8 604.79,-175.78 594.21,-176.33 596.86,-182.8"/>
</a>
</g>
</g>
<!-- 23&#45;&gt;2 -->
<g id="edge30" class="edge">
<title>23&#45;&gt;2</title>
<g id="a_edge30"><a xlink:title="include">
<path fill="none" stroke="#1414ce" d="M472.86,-215.8C489.57,-181.48 532.22,-104.97 594,-72 693.47,-18.92 1042.5,-17.14 1168.88,-18.31"/>
<polygon fill="#1414ce" stroke="#1414ce" points="1168.96,-21.81 1179,-18.41 1169.03,-14.81 1168.96,-21.81"/>
</a>
</g>
</g>
<!-- 23&#45;&gt;4 -->
<g id="edge31" class="edge">
<title>23&#45;&gt;4</title>
<g id="a_edge31"><a xlink:title="include">
<path fill="none" stroke="#1414ce" d="M457.79,-215.77C448.59,-195.77 430.84,-163.1 406,-144 373.34,-118.89 328.1,-105.29 294.57,-98.18"/>
<polygon fill="#1414ce" stroke="#1414ce" points="295.06,-94.71 284.57,-96.17 293.68,-101.57 295.06,-94.71"/>
</a>
</g>
</g>
<!-- 24 -->
<g id="node10" class="node">
<title>24</title>
<g id="a_node10"><a xlink:title="refc_binary.h">
<polygon fill="#ffffff" stroke="black" points="724,-396 616,-396 616,-360 724,-360 724,-396"/>
<text text-anchor="middle" x="670" y="-374.3" font-family="Times,serif" font-size="14.00">refc_binary.h</text>
</a>
</g>
</g>
<!-- 24&#45;&gt;16 -->
<g id="edge37" class="edge">
<title>24&#45;&gt;16</title>
<g id="a_edge37"><a xlink:title="include">
<path fill="none" stroke="#1414ce" d="M724.31,-361.41C773.47,-347.15 838.97,-327.73 844,-324 891.83,-288.55 925.12,-225.23 941.13,-189.48"/>
<polygon fill="#1414ce" stroke="#1414ce" points="944.4,-190.73 945.19,-180.17 937.98,-187.94 944.4,-190.73"/>
</a>
</g>
</g>
<!-- 25 -->
<g id="node11" class="node">
<title>25</title>
<g id="a_node11"><a xlink:title="resources.h">
<polygon fill="#ffffff" stroke="black" points="802,-324 702,-324 702,-288 802,-288 802,-324"/>
<text text-anchor="middle" x="752" y="-302.3" font-family="Times,serif" font-size="14.00">resources.h</text>
</a>
</g>
</g>
<!-- 24&#45;&gt;25 -->
<g id="edge38" class="edge">
<title>24&#45;&gt;25</title>
<g id="a_edge38"><a xlink:title="include">
<path fill="none" stroke="#1414ce" d="M690.27,-359.7C700.5,-350.97 713.06,-340.24 724.18,-330.75"/>
<polygon fill="#1414ce" stroke="#1414ce" points="726.63,-333.26 731.96,-324.1 722.09,-327.94 726.63,-333.26"/>
</a>
</g>
</g>
<!-- 24&#45;&gt;6 -->
<g id="edge35" class="edge">
<title>24&#45;&gt;6</title>
<g id="a_edge35"><a xlink:title="include">
<path fill="none" stroke="#1414ce" d="M723.71,-359.89C761.12,-347.46 805.31,-331.54 811,-324 857.15,-262.83 845.56,-165.16 836.3,-118.1"/>
<polygon fill="#1414ce" stroke="#1414ce" points="839.67,-117.13 834.21,-108.06 832.82,-118.56 839.67,-117.13"/>
</a>
</g>
</g>
<!-- 24&#45;&gt;4 -->
<g id="edge36" class="edge">
<title>24&#45;&gt;4</title>
<g id="a_edge36"><a xlink:title="include">
<path fill="none" stroke="#1414ce" d="M651.45,-359.81C627.64,-338.89 584.12,-304.32 540,-288 470.61,-262.33 258.41,-307.07 209,-252 175.1,-214.22 206.84,-152.14 229.9,-117.14"/>
<polygon fill="#1414ce" stroke="#1414ce" points="233.09,-118.67 235.83,-108.44 227.31,-114.74 233.09,-118.67"/>
</a>
</g>
</g>
<!-- 25&#45;&gt;11 -->
<g id="edge40" class="edge">
<title>25&#45;&gt;11</title>
<g id="a_edge40"><a xlink:title="include">
<path fill="none" stroke="#1414ce" d="M701.74,-299.53C613.21,-289.53 436.53,-267.91 413,-252 391.11,-237.2 376.88,-210.06 368.74,-189.63"/>
<polygon fill="#1414ce" stroke="#1414ce" points="372,-188.37 365.22,-180.22 365.45,-190.82 372,-188.37"/>
</a>
</g>
</g>
<!-- 25&#45;&gt;16 -->
<g id="edge41" class="edge">
<title>25&#45;&gt;16</title>
<g id="a_edge41"><a xlink:title="include">
<path fill="none" stroke="#1414ce" d="M776.12,-287.87C811.94,-262.44 879.25,-214.65 919.41,-186.14"/>
<polygon fill="#1414ce" stroke="#1414ce" points="921.66,-188.83 927.79,-180.19 917.61,-183.12 921.66,-188.83"/>
</a>
</g>
</g>
<!-- 25&#45;&gt;26 -->
<g id="edge42" class="edge">
<title>25&#45;&gt;26</title>
<g id="a_edge42"><a xlink:title="include">
<path fill="none" stroke="#1414ce" d="M753.73,-287.7C754.5,-279.98 755.43,-270.71 756.29,-262.11"/>
<polygon fill="#1414ce" stroke="#1414ce" points="759.78,-262.4 757.29,-252.1 752.81,-261.71 759.78,-262.4"/>
</a>
</g>
</g>
<!-- 25&#45;&gt;23 -->
<g id="edge43" class="edge">
<title>25&#45;&gt;23</title>
<g id="a_edge43"><a xlink:title="include">
<path fill="none" stroke="#1414ce" d="M701.97,-294.43C655.23,-284.33 583.61,-268.27 522,-252 520.74,-251.67 519.46,-251.32 518.17,-250.97"/>
<polygon fill="#1414ce" stroke="#1414ce" points="518.75,-247.5 508.18,-248.19 516.87,-254.25 518.75,-247.5"/>
</a>
</g>
</g>
<!-- 25&#45;&gt;17 -->
<g id="edge44" class="edge">
<title>25&#45;&gt;17</title>
<g id="a_edge44"><a xlink:title="include">
<path fill="none" stroke="#1414ce" d="M802.02,-294.67C865.31,-281.6 973.81,-259.2 1038.33,-245.88"/>
<polygon fill="#1414ce" stroke="#1414ce" points="1039.21,-249.27 1048.29,-243.82 1037.79,-242.41 1039.21,-249.27"/>
</a>
</g>
</g>
<!-- 25&#45;&gt;4 -->
<g id="edge39" class="edge">
<title>25&#45;&gt;4</title>
<g id="a_edge39"><a xlink:title="include">
<path fill="none" stroke="#1414ce" d="M723.26,-287.94C668.78,-256.14 546.06,-187.16 436,-144 388.99,-125.57 333.05,-110.58 294.68,-101.3"/>
<polygon fill="#1414ce" stroke="#1414ce" points="295.37,-97.87 284.83,-98.95 293.75,-104.68 295.37,-97.87"/>
</a>
</g>
</g>
<!-- 18&#45;&gt;6 -->
<g id="edge45" class="edge">
<title>18&#45;&gt;6</title>
<g id="a_edge45"><a xlink:title="include">
<path fill="none" stroke="#1414ce" d="M1060.93,-152.54C1051.08,-149.79 1040.08,-146.74 1030,-144 979.67,-130.32 922.1,-115.11 881.68,-104.5"/>
<polygon fill="#1414ce" stroke="#1414ce" points="882.36,-101.06 871.79,-101.91 880.58,-107.83 882.36,-101.06"/>
</a>
</g>
</g>
<!-- 17&#45;&gt;16 -->
<g id="edge47" class="edge">
<title>17&#45;&gt;16</title>
<g id="a_edge47"><a xlink:title="include">
<path fill="none" stroke="#1414ce" d="M1057,-215.88C1036.13,-205.37 1009.44,-191.92 988.18,-181.22"/>
<polygon fill="#1414ce" stroke="#1414ce" points="989.65,-178.04 979.14,-176.67 986.5,-184.29 989.65,-178.04"/>
</a>
</g>
</g>
<!-- 17&#45;&gt;18 -->
<g id="edge48" class="edge">
<title>17&#45;&gt;18</title>
<g id="a_edge48"><a xlink:title="include">
<path fill="none" stroke="#1414ce" d="M1091,-215.7C1091,-207.98 1091,-198.71 1091,-190.11"/>
<polygon fill="#1414ce" stroke="#1414ce" points="1094.5,-190.1 1091,-180.1 1087.5,-190.1 1094.5,-190.1"/>
</a>
</g>
</g>
<!-- 10 -->
<g id="node25" class="node">
<title>10</title>
<g id="a_node25"><a xlink:title="stdio.h">
<polygon fill="#ffffff" stroke="black" points="668.5,-108 603.5,-108 603.5,-72 668.5,-72 668.5,-108"/>
<text text-anchor="middle" x="636" y="-86.3" font-family="Times,serif" font-size="14.00">stdio.h</text>
</a>
</g>
</g>
<!-- 17&#45;&gt;10 -->
<g id="edge46" class="edge">
<title>17&#45;&gt;10</title>
<g id="a_edge46"><a xlink:title="include">
<path fill="none" stroke="#1414ce" d="M1076.62,-215.66C1058.34,-194.92 1024.72,-160.88 988,-144 960.31,-131.27 766.35,-106.7 678.76,-96.08"/>
<polygon fill="#1414ce" stroke="#1414ce" points="678.97,-92.58 668.62,-94.86 678.13,-99.53 678.97,-92.58"/>
</a>
</g>
</g>
<!-- 19&#45;&gt;3 -->
<g id="edge55" class="edge">
<title>19&#45;&gt;3</title>
<g id="a_edge55"><a xlink:title="include">
<path fill="none" stroke="#1414ce" d="M526.46,-447.43C426.93,-442.32 131.37,-424.84 100,-396 42.1,-342.77 44.36,-239.66 49.3,-190.44"/>
<polygon fill="#1414ce" stroke="#1414ce" points="52.8,-190.57 50.44,-180.24 45.85,-189.79 52.8,-190.57"/>
</a>
</g>
</g>
<!-- 19&#45;&gt;22 -->
<g id="edge56" class="edge">
<title>19&#45;&gt;22</title>
<g id="a_edge56"><a xlink:title="include">
<path fill="none" stroke="#1414ce" d="M551.83,-431.7C548.57,-423.81 544.63,-414.3 541,-405.55"/>
<polygon fill="#1414ce" stroke="#1414ce" points="544.15,-404 537.09,-396.1 537.68,-406.68 544.15,-404"/>
</a>
</g>
</g>
<!-- 19&#45;&gt;23 -->
<g id="edge57" class="edge">
<title>19&#45;&gt;23</title>
<g id="a_edge57"><a xlink:title="include">
<path fill="none" stroke="#1414ce" d="M526.48,-447.19C492.51,-443.37 440.8,-431.64 416,-396 388.58,-356.6 398.5,-332.7 416,-288 420.2,-277.28 427.69,-267.43 435.58,-259.2"/>
<polygon fill="#1414ce" stroke="#1414ce" points="438.12,-261.61 442.85,-252.13 433.24,-256.59 438.12,-261.61"/>
</a>
</g>
</g>
<!-- 19&#45;&gt;24 -->
<g id="edge58" class="edge">
<title>19&#45;&gt;24</title>
<g id="a_edge58"><a xlink:title="include">
<path fill="none" stroke="#1414ce" d="M586.15,-431.88C600.53,-422.81 618.38,-411.55 633.91,-401.76"/>
<polygon fill="#1414ce" stroke="#1414ce" points="636.15,-404.48 642.74,-396.19 632.42,-398.56 636.15,-404.48"/>
</a>
</g>
</g>
<!-- 19&#45;&gt;12 -->
<g id="edge60" class="edge">
<title>19&#45;&gt;12</title>
<g id="a_edge60"><a xlink:title="include">
<path fill="none" stroke="#1414ce" d="M526.38,-444.79C429.8,-431.44 152,-386.14 152,-307 152,-307 152,-307 152,-233 152,-148.61 259.7,-113.95 335.39,-100.02"/>
<polygon fill="#1414ce" stroke="#1414ce" points="336.13,-103.44 345.38,-98.26 334.92,-96.55 336.13,-103.44"/>
</a>
</g>
</g>
<!-- 19&#45;&gt;7 -->
<g id="edge59" class="edge">
<title>19&#45;&gt;7</title>
<g id="a_edge59"><a xlink:title="include">
<path fill="none" stroke="#1414ce" d="M564.13,-431.94C574.31,-397.88 597.6,-318.93 615,-252 620.36,-231.39 625.87,-207.94 629.9,-190.28"/>
<polygon fill="#1414ce" stroke="#1414ce" points="633.41,-190.64 632.2,-180.12 626.58,-189.1 633.41,-190.64"/>
</a>
</g>
</g>
<!-- 19&#45;&gt;6 -->
<g id="edge50" class="edge">
<title>19&#45;&gt;6</title>
<g id="a_edge50"><a xlink:title="include">
<path fill="none" stroke="#1414ce" d="M591.68,-447.94C660.11,-444.98 814.87,-434.11 848,-396 921.49,-311.44 877.64,-253.51 854,-144 852.04,-134.92 848.39,-125.52 844.51,-117.2"/>
<polygon fill="#1414ce" stroke="#1414ce" points="847.54,-115.42 839.95,-108.02 841.27,-118.53 847.54,-115.42"/>
</a>
</g>
</g>
<!-- 19&#45;&gt;2 -->
<g id="edge51" class="edge">
<title>19&#45;&gt;2</title>
<g id="a_edge51"><a xlink:title="include">
<path fill="none" stroke="#1414ce" d="M591.83,-445.64C723.69,-431.4 1211.74,-371.18 1297,-252 1306.31,-238.99 1301.78,-231.27 1297,-216 1291.18,-197.41 1280.58,-197.49 1272,-180 1249.84,-134.82 1255.6,-119.15 1238,-72 1234.72,-63.22 1230.77,-53.79 1227.08,-45.35"/>
<polygon fill="#1414ce" stroke="#1414ce" points="1230.18,-43.71 1222.92,-36 1223.79,-46.56 1230.18,-43.71"/>
</a>
</g>
</g>
<!-- 19&#45;&gt;10 -->
<g id="edge52" class="edge">
<title>19&#45;&gt;10</title>
<g id="a_edge52"><a xlink:title="include">
<path fill="none" stroke="#1414ce" d="M526.24,-432.32C510.93,-423.24 493.39,-410.82 481,-396 448.9,-357.58 423.18,-330.89 449,-288 466.64,-258.7 491.14,-274.37 517,-252 561.98,-213.1 560.53,-191.74 596,-144 602.77,-134.88 610.26,-124.94 616.9,-116.15"/>
<polygon fill="#1414ce" stroke="#1414ce" points="619.72,-118.22 622.96,-108.14 614.14,-114 619.72,-118.22"/>
</a>
</g>
</g>
<!-- 19&#45;&gt;4 -->
<g id="edge53" class="edge">
<title>19&#45;&gt;4</title>
<g id="a_edge53"><a xlink:title="include">
<path fill="none" stroke="#1414ce" d="M526.42,-446.91C448.95,-441.52 255.96,-425.45 199,-396 150.42,-370.87 114,-361.7 114,-307 114,-307 114,-307 114,-233 114,-178.76 166.37,-137 205.87,-113.22"/>
<polygon fill="#1414ce" stroke="#1414ce" points="207.71,-116.2 214.58,-108.13 204.18,-110.15 207.71,-116.2"/>
</a>
</g>
</g>
<!-- 19&#45;&gt;21 -->
<g id="edge54" class="edge">
<title>19&#45;&gt;21</title>
<g id="a_edge54"><a xlink:title="include">
<path fill="none" stroke="#1414ce" d="M526.36,-432.32C512.79,-423.52 498.49,-411.33 491,-396 481.59,-376.74 483.54,-352.25 487.31,-333.84"/>
<polygon fill="#1414ce" stroke="#1414ce" points="490.73,-334.58 489.6,-324.05 483.91,-332.99 490.73,-334.58"/>
</a>
</g>
</g>
<!-- 20 -->
<g id="node28" class="node">
<title>20</title>
<g id="a_node28"><a xlink:title="sys/types.h">
<polygon fill="#ffffff" stroke="black" points="839.5,-396 742.5,-396 742.5,-360 839.5,-360 839.5,-396"/>
<text text-anchor="middle" x="791" y="-374.3" font-family="Times,serif" font-size="14.00">sys/types.h</text>
</a>
</g>
</g>
<!-- 19&#45;&gt;20 -->
<g id="edge49" class="edge">
<title>19&#45;&gt;20</title>
<g id="a_edge49"><a xlink:title="include">
<path fill="none" stroke="#1414ce" d="M591.75,-439.12C628.21,-428.12 687.87,-410.12 732.42,-396.68"/>
<polygon fill="#1414ce" stroke="#1414ce" points="733.69,-399.95 742.25,-393.71 731.66,-393.25 733.69,-399.95"/>
</a>
</g>
</g>
<!-- 13 -->
<g id="node19" class="node">
<title>13</title>
<g id="a_node19"><a xlink:title="assert.h">
<polygon fill="#ffffff" stroke="black" points="351,-36 277,-36 277,0 351,0 351,-36"/>
<text text-anchor="middle" x="314" y="-14.3" font-family="Times,serif" font-size="14.00">assert.h</text>
</a>
</g>
</g>
<!-- 12&#45;&gt;13 -->
<g id="edge61" class="edge">
<title>12&#45;&gt;13</title>
<g id="a_edge61"><a xlink:title="include">
<path fill="none" stroke="#1414ce" d="M384.76,-71.7C372.81,-62.8 358.08,-51.82 345.15,-42.2"/>
<polygon fill="#1414ce" stroke="#1414ce" points="347.08,-39.27 336.97,-36.1 342.9,-44.88 347.08,-39.27"/>
</a>
</g>
</g>
<!-- 8 -->
<g id="node20" class="node">
<title>8</title>
<g id="a_node20"><a xlink:title="inttypes.h">
<polygon fill="#ffffff" stroke="black" points="547.5,-36 458.5,-36 458.5,0 547.5,0 547.5,-36"/>
<text text-anchor="middle" x="503" y="-14.3" font-family="Times,serif" font-size="14.00">inttypes.h</text>
</a>
</g>
</g>
<!-- 12&#45;&gt;8 -->
<g id="edge63" class="edge">
<title>12&#45;&gt;8</title>
<g id="a_edge63"><a xlink:title="include">
<path fill="none" stroke="#1414ce" d="M431.48,-71.7C443.56,-62.8 458.45,-51.82 471.52,-42.2"/>
<polygon fill="#1414ce" stroke="#1414ce" points="473.81,-44.85 479.79,-36.1 469.66,-39.22 473.81,-44.85"/>
</a>
</g>
</g>
<!-- 14 -->
<g id="node21" class="node">
<title>14</title>
<g id="a_node21"><a xlink:title="limits.h">
<polygon fill="#ffffff" stroke="black" points="440.5,-36 369.5,-36 369.5,0 440.5,0 440.5,-36"/>
<text text-anchor="middle" x="405" y="-14.3" font-family="Times,serif" font-size="14.00">limits.h</text>
</a>
</g>
</g>
<!-- 12&#45;&gt;14 -->
<g id="edge62" class="edge">
<title>12&#45;&gt;14</title>
<g id="a_edge62"><a xlink:title="include">
<path fill="none" stroke="#1414ce" d="M407.26,-71.7C406.93,-63.98 406.53,-54.71 406.16,-46.11"/>
<polygon fill="#1414ce" stroke="#1414ce" points="409.66,-45.95 405.73,-36.1 402.66,-46.25 409.66,-45.95"/>
</a>
</g>
</g>
<!-- 12&#45;&gt;2 -->
<g id="edge64" class="edge">
<title>12&#45;&gt;2</title>
<g id="a_edge64"><a xlink:title="include">
<path fill="none" stroke="#1414ce" d="M470.75,-79.09C488.27,-76.53 507.35,-73.96 525,-72 766.48,-45.21 1057.02,-27.67 1168.42,-21.49"/>
<polygon fill="#1414ce" stroke="#1414ce" points="1168.84,-24.97 1178.64,-20.92 1168.46,-17.98 1168.84,-24.97"/>
</a>
</g>
</g>
<!-- 27&#45;&gt;16 -->
<g id="edge67" class="edge">
<title>27&#45;&gt;16</title>
<g id="a_edge67"><a xlink:title="include">
<path fill="none" stroke="#1414ce" d="M1189.99,-221.05C1133.07,-207.16 1040.46,-184.57 989.16,-172.06"/>
<polygon fill="#1414ce" stroke="#1414ce" points="989.71,-168.6 979.17,-169.63 988.05,-175.4 989.71,-168.6"/>
</a>
</g>
</g>
<!-- 27&#45;&gt;6 -->
<g id="edge65" class="edge">
<title>27&#45;&gt;6</title>
<g id="a_edge65"><a xlink:title="include">
<path fill="none" stroke="#1414ce" d="M1223.49,-215.84C1203.85,-195.27 1167.98,-161.41 1130,-144 1048.64,-106.71 943.77,-95.56 882.01,-92.29"/>
<polygon fill="#1414ce" stroke="#1414ce" points="881.89,-88.78 871.74,-91.79 881.56,-95.77 881.89,-88.78"/>
</a>
</g>
</g>
<!-- 27&#45;&gt;2 -->
<g id="edge66" class="edge">
<title>27&#45;&gt;2</title>
<g id="a_edge66"><a xlink:title="include">
<path fill="none" stroke="#1414ce" d="M1237.08,-215.85C1232.93,-178.83 1223.1,-91.18 1218.07,-46.39"/>
<polygon fill="#1414ce" stroke="#1414ce" points="1221.53,-45.78 1216.93,-36.23 1214.57,-46.56 1221.53,-45.78"/>
</a>
</g>
</g>
<!-- 7&#45;&gt;8 -->
<g id="edge68" class="edge">
<title>7&#45;&gt;8</title>
<g id="a_edge68"><a xlink:title="include">
<path fill="none" stroke="#1414ce" d="M619.96,-143.87C596.59,-118.92 553.06,-72.45 526.2,-43.77"/>
<polygon fill="#1414ce" stroke="#1414ce" points="528.49,-41.1 519.1,-36.19 523.38,-45.88 528.49,-41.1"/>
</a>
</g>
</g>
<!-- 7&#45;&gt;6 -->
<g id="edge69" class="edge">
<title>7&#45;&gt;6</title>
<g id="a_edge69"><a xlink:title="include">
<path fill="none" stroke="#1414ce" d="M667.17,-149.75C697.23,-138.91 743.25,-122.3 778.71,-109.51"/>
<polygon fill="#1414ce" stroke="#1414ce" points="780.19,-112.69 788.41,-106.01 777.81,-106.11 780.19,-112.69"/>
</a>
</g>
</g>
<!-- 9 -->
<g id="node23" class="node">
<title>9</title>
<g id="a_node23"><a xlink:title="stddef.h">
<polygon fill="#ffffff" stroke="black" points="1355,-108 1281,-108 1281,-72 1355,-72 1355,-108"/>
<text text-anchor="middle" x="1318" y="-86.3" font-family="Times,serif" font-size="14.00">stddef.h</text>
</a>
</g>
</g>
<!-- 7&#45;&gt;9 -->
<g id="edge70" class="edge">
<title>7&#45;&gt;9</title>
<g id="a_edge70"><a xlink:title="include">
<path fill="none" stroke="#1414ce" d="M667.08,-157.81C775.79,-146.65 1139.53,-109.32 1270.5,-95.88"/>
<polygon fill="#1414ce" stroke="#1414ce" points="1271.03,-99.34 1280.62,-94.84 1270.31,-92.38 1271.03,-99.34"/>
</a>
</g>
</g>
<!-- 7&#45;&gt;10 -->
<g id="edge71" class="edge">
<title>7&#45;&gt;10</title>
<g id="a_edge71"><a xlink:title="include">
<path fill="none" stroke="#1414ce" d="M636,-143.7C636,-135.98 636,-126.71 636,-118.11"/>
<polygon fill="#1414ce" stroke="#1414ce" points="639.5,-118.1 636,-108.1 632.5,-118.1 639.5,-118.1"/>
</a>
</g>
</g>
<!-- 7&#45;&gt;4 -->
<g id="edge72" class="edge">
<title>7&#45;&gt;4</title>
<g id="a_edge72"><a xlink:title="include">
<path fill="none" stroke="#1414ce" d="M604.87,-155.69C550.34,-146.35 434.02,-126.23 336,-108 322.5,-105.49 307.83,-102.66 294.46,-100.04"/>
<polygon fill="#1414ce" stroke="#1414ce" points="295.02,-96.59 284.53,-98.09 293.67,-103.46 295.02,-96.59"/>
</a>
</g>
</g>
<!-- 28&#45;&gt;9 -->
<g id="edge73" class="edge">
<title>28&#45;&gt;9</title>
<g id="a_edge73"><a xlink:title="include">
<path fill="none" stroke="#1414ce" d="M1345.1,-143.7C1341,-135.73 1336.05,-126.1 1331.51,-117.26"/>
<polygon fill="#1414ce" stroke="#1414ce" points="1334.48,-115.4 1326.8,-108.1 1328.26,-118.6 1334.48,-115.4"/>
</a>
</g>
</g>
<!-- 28&#45;&gt;2 -->
<g id="edge74" class="edge">
<title>28&#45;&gt;2</title>
<g id="a_edge74"><a xlink:title="include">
<path fill="none" stroke="#1414ce" d="M1362.21,-143.9C1370.15,-124.63 1378.97,-93.22 1364,-72 1340.97,-39.37 1296.01,-26.71 1261.48,-21.86"/>
<polygon fill="#1414ce" stroke="#1414ce" points="1261.48,-18.33 1251.13,-20.59 1260.63,-25.28 1261.48,-18.33"/>
</a>
</g>
</g>
</g>
</svg>
