<?xml version="1.0" encoding="UTF-8" standalone="no"?>
<!DOCTYPE svg PUBLIC "-//W3C//DTD SVG 1.1//EN"
 "http://www.w3.org/Graphics/SVG/1.1/DTD/svg11.dtd">
<!-- Generated by graphviz version 2.43.0 (0)
 -->
<!-- Title: %3 Pages: 1 -->
<svg width="4786pt" height="188pt"
 viewBox="0.00 0.00 4785.50 188.00" xmlns="http://www.w3.org/2000/svg" xmlns:xlink="http://www.w3.org/1999/xlink">
<g id="graph0" class="graph" transform="scale(1 1) rotate(0) translate(4 184)">
<title>%3</title>
<polygon fill="transparent" stroke="transparent" points="-4,4 -4,-184 4781.5,-184 4781.5,4 -4,4"/>
<!-- 2 -->
<g id="node1" class="node">
<title>2</title>
<g id="a_node1"><a xlink:title="/__w/AtomVM/AtomVM/src/libAtomVM/dist_nifs.c">
<polygon fill="#ffffff" stroke="black" points="365,-108 0,-108 0,-72 365,-72 365,-108"/>
<text text-anchor="middle" x="182.5" y="-86.3" font-family="Times,serif" font-size="14.00">/__w/AtomVM/AtomVM/src/libAtomVM/dist_nifs.c</text>
</a>
</g>
</g>
<!-- 9 -->
<g id="node2" class="node">
<title>9</title>
<g id="a_node2"><a xlink:title="/__w/AtomVM/AtomVM/src/libAtomVM/globalcontext.c">
<polygon fill="#ffffff" stroke="black" points="2327.5,-36 1925.5,-36 1925.5,0 2327.5,0 2327.5,-36"/>
<text text-anchor="middle" x="2126.5" y="-14.3" font-family="Times,serif" font-size="14.00">/__w/AtomVM/AtomVM/src/libAtomVM/globalcontext.c</text>
</a>
</g>
</g>
<!-- 3 -->
<g id="node3" class="node">
<title>3</title>
<g id="a_node3"><a xlink:title="/__w/AtomVM/AtomVM/src/libAtomVM/jit.c">
<polygon fill="#ffffff" stroke="black" points="703.5,-108 383.5,-108 383.5,-72 703.5,-72 703.5,-108"/>
<text text-anchor="middle" x="543.5" y="-86.3" font-family="Times,serif" font-size="14.00">/__w/AtomVM/AtomVM/src/libAtomVM/jit.c</text>
</a>
</g>
</g>
<!-- 4 -->
<g id="node4" class="node">
<title>4</title>
<g id="a_node4"><a xlink:title="/__w/AtomVM/AtomVM/src/libAtomVM/jit_stream_flash.c">
<polygon fill="#ffffff" stroke="black" points="1139.5,-108 721.5,-108 721.5,-72 1139.5,-72 1139.5,-108"/>
<text text-anchor="middle" x="930.5" y="-86.3" font-family="Times,serif" font-size="14.00">/__w/AtomVM/AtomVM/src/libAtomVM/jit_stream_flash.c</text>
</a>
</g>
</g>
<!-- 5 -->
<g id="node5" class="node">
<title>5</title>
<g id="a_node5"><a xlink:title="/__w/AtomVM/AtomVM/src/libAtomVM/module.c">
<polygon fill="#ffffff" stroke="black" points="1515.5,-108 1157.5,-108 1157.5,-72 1515.5,-72 1515.5,-108"/>
<text text-anchor="middle" x="1336.5" y="-86.3" font-family="Times,serif" font-size="14.00">/__w/AtomVM/AtomVM/src/libAtomVM/module.c</text>
</a>
</g>
</g>
<!-- 6 -->
<g id="node6" class="node">
<title>6</title>
<g id="a_node6"><a xlink:title="/__w/AtomVM/AtomVM/src/libAtomVM/nifs.c">
<polygon fill="#ffffff" stroke="black" points="1865.5,-108 1533.5,-108 1533.5,-72 1865.5,-72 1865.5,-108"/>
<text text-anchor="middle" x="1699.5" y="-86.3" font-family="Times,serif" font-size="14.00">/__w/AtomVM/AtomVM/src/libAtomVM/nifs.c</text>
</a>
</g>
</g>
<!-- 1 -->
<g id="node7" class="node">
<title>1</title>
<g id="a_node7"><a xlink:title="/__w/AtomVM/AtomVM/src/libAtomVM/nifs.h">
<polygon fill="#bfbfbf" stroke="black" points="2602,-180 2269,-180 2269,-144 2602,-144 2602,-180"/>
<text text-anchor="middle" x="2435.5" y="-158.3" font-family="Times,serif" font-size="14.00">/__w/AtomVM/AtomVM/src/libAtomVM/nifs.h</text>
</a>
</g>
</g>
<!-- 1&#45;&gt;2 -->
<g id="edge1" class="edge">
<title>1&#45;&gt;2</title>
<g id="a_edge1"><a xlink:title="include">
<path fill="none" stroke="#1414ce" d="M2258.57,-160.18C1901.88,-157.7 1071.11,-147.76 374.5,-108 371.41,-107.82 368.29,-107.64 365.15,-107.44"/>
<polygon fill="#1414ce" stroke="#1414ce" points="2258.7,-163.68 2268.72,-160.25 2258.74,-156.68 2258.7,-163.68"/>
</a>
</g>
</g>
<!-- 1&#45;&gt;3 -->
<g id="edge2" class="edge">
<title>1&#45;&gt;3</title>
<g id="a_edge2"><a xlink:title="include">
<path fill="none" stroke="#1414ce" d="M2258.94,-159.61C1946.71,-156.26 1276.76,-145.01 712.5,-108 709.56,-107.81 706.59,-107.6 703.6,-107.39"/>
<polygon fill="#1414ce" stroke="#1414ce" points="2258.95,-163.11 2268.99,-159.72 2259.02,-156.12 2258.95,-163.11"/>
</a>
</g>
</g>
<!-- 1&#45;&gt;4 -->
<g id="edge3" class="edge">
<title>1&#45;&gt;4</title>
<g id="a_edge3"><a xlink:title="include">
<path fill="none" stroke="#1414ce" d="M2258.61,-155.77C2010.43,-147.96 1544.82,-131.61 1148.5,-108 1145.56,-107.83 1142.6,-107.65 1139.63,-107.46"/>
<polygon fill="#1414ce" stroke="#1414ce" points="2258.7,-159.27 2268.8,-156.09 2258.92,-152.28 2258.7,-159.27"/>
</a>
</g>
</g>
<!-- 1&#45;&gt;5 -->
<g id="edge4" class="edge">
<title>1&#45;&gt;5</title>
<g id="a_edge4"><a xlink:title="include">
<path fill="none" stroke="#1414ce" d="M2258.72,-152.4C2075.09,-143.07 1779.51,-126.94 1524.5,-108 1521.56,-107.78 1518.59,-107.56 1515.6,-107.33"/>
<polygon fill="#1414ce" stroke="#1414ce" points="2258.58,-155.89 2268.74,-152.91 2258.93,-148.9 2258.58,-155.89"/>
</a>
</g>
</g>
<!-- 1&#45;&gt;6 -->
<g id="edge5" class="edge">
<title>1&#45;&gt;6</title>
<g id="a_edge5"><a xlink:title="include">
<path fill="none" stroke="#1414ce" d="M2258.97,-144.21C2139.57,-132.85 1982.91,-117.95 1865.74,-106.81"/>
<polygon fill="#1414ce" stroke="#1414ce" points="2258.66,-147.7 2268.95,-145.16 2259.33,-140.73 2258.66,-147.7"/>
</a>
</g>
</g>
<!-- 7 -->
<g id="node8" class="node">
<title>7</title>
<g id="a_node8"><a xlink:title="/__w/AtomVM/AtomVM/src/libAtomVM/otp_crypto.c">
<polygon fill="#ffffff" stroke="black" points="1907,-36 1526,-36 1526,0 1907,0 1907,-36"/>
<text text-anchor="middle" x="1716.5" y="-14.3" font-family="Times,serif" font-size="14.00">/__w/AtomVM/AtomVM/src/libAtomVM/otp_crypto.c</text>
</a>
</g>
</g>
<!-- 1&#45;&gt;7 -->
<g id="edge6" class="edge">
<title>1&#45;&gt;7</title>
<g id="a_edge6"><a xlink:title="include">
<path fill="none" stroke="#1414ce" d="M2258.5,-155.51C2131.06,-149.24 1971.46,-135.95 1911.5,-108 1890.71,-98.31 1894.09,-83.95 1874.5,-72 1848.56,-56.18 1817.32,-44.42 1789.49,-36.06"/>
<polygon fill="#1414ce" stroke="#1414ce" points="2258.62,-159.02 2268.78,-156 2258.96,-152.03 2258.62,-159.02"/>
</a>
</g>
</g>
<!-- 8 -->
<g id="node9" class="node">
<title>8</title>
<g id="a_node9"><a xlink:title="/__w/AtomVM/AtomVM/src/libAtomVM/otp_crypto.h">
<polygon fill="#ffffff" stroke="black" points="2304,-108 1921,-108 1921,-72 2304,-72 2304,-108"/>
<text text-anchor="middle" x="2112.5" y="-86.3" font-family="Times,serif" font-size="14.00">/__w/AtomVM/AtomVM/src/libAtomVM/otp_crypto.h</text>
</a>
</g>
</g>
<!-- 1&#45;&gt;8 -->
<g id="edge7" class="edge">
<title>1&#45;&gt;8</title>
<g id="a_edge7"><a xlink:title="include">
<path fill="none" stroke="#1414ce" d="M2346.99,-141.82C2298.25,-131.25 2238.27,-118.26 2191.17,-108.05"/>
<polygon fill="#1414ce" stroke="#1414ce" points="2346.38,-145.27 2356.9,-143.97 2347.87,-138.43 2346.38,-145.27"/>
</a>
</g>
</g>
<!-- 10 -->
<g id="node10" class="node">
<title>10</title>
<g id="a_node10"><a xlink:title="/__w/AtomVM/AtomVM/src/libAtomVM/otp_net.c">
<polygon fill="#ffffff" stroke="black" points="2705,-36 2346,-36 2346,0 2705,0 2705,-36"/>
<text text-anchor="middle" x="2525.5" y="-14.3" font-family="Times,serif" font-size="14.00">/__w/AtomVM/AtomVM/src/libAtomVM/otp_net.c</text>
</a>
</g>
</g>
<!-- 1&#45;&gt;10 -->
<g id="edge8" class="edge">
<title>1&#45;&gt;10</title>
<g id="a_edge8"><a xlink:title="include">
<path fill="none" stroke="#1414ce" d="M2381.77,-138.81C2369.31,-130.99 2357.63,-120.85 2350.5,-108 2342.74,-94.01 2340.97,-84.85 2350.5,-72 2362.61,-55.68 2379.6,-44.21 2398.27,-36.19"/>
<polygon fill="#1414ce" stroke="#1414ce" points="2380.06,-141.87 2390.47,-143.86 2383.58,-135.81 2380.06,-141.87"/>
</a>
</g>
</g>
<!-- 11 -->
<g id="node11" class="node">
<title>11</title>
<g id="a_node11"><a xlink:title="/__w/AtomVM/AtomVM/src/libAtomVM/otp_net.h">
<polygon fill="#ffffff" stroke="black" points="2719.5,-108 2359.5,-108 2359.5,-72 2719.5,-72 2719.5,-108"/>
<text text-anchor="middle" x="2539.5" y="-86.3" font-family="Times,serif" font-size="14.00">/__w/AtomVM/AtomVM/src/libAtomVM/otp_net.h</text>
</a>
</g>
</g>
<!-- 1&#45;&gt;11 -->
<g id="edge9" class="edge">
<title>1&#45;&gt;11</title>
<g id="a_edge9"><a xlink:title="include">
<path fill="none" stroke="#1414ce" d="M2469.62,-138.04C2484.06,-128.32 2500.6,-117.18 2513.96,-108.19"/>
<polygon fill="#1414ce" stroke="#1414ce" points="2467.28,-135.39 2460.94,-143.88 2471.19,-141.2 2467.28,-135.39"/>
</a>
</g>
</g>
<!-- 12 -->
<g id="node12" class="node">
<title>12</title>
<g id="a_node12"><a xlink:title="/__w/AtomVM/AtomVM/src/libAtomVM/otp_socket.c">
<polygon fill="#ffffff" stroke="black" points="3104,-36 2723,-36 2723,0 3104,0 3104,-36"/>
<text text-anchor="middle" x="2913.5" y="-14.3" font-family="Times,serif" font-size="14.00">/__w/AtomVM/AtomVM/src/libAtomVM/otp_socket.c</text>
</a>
</g>
</g>
<!-- 1&#45;&gt;12 -->
<g id="edge10" class="edge">
<title>1&#45;&gt;12</title>
<g id="a_edge10"><a xlink:title="include">
<path fill="none" stroke="#1414ce" d="M2612.34,-146.35C2652.04,-138.4 2692.91,-126.32 2728.5,-108 2748.9,-97.5 2746.03,-84.14 2765.5,-72 2790.51,-56.4 2820.76,-44.53 2847.37,-36.02"/>
<polygon fill="#1414ce" stroke="#1414ce" points="2611.44,-142.96 2602.28,-148.28 2612.76,-149.84 2611.44,-142.96"/>
</a>
</g>
</g>
<!-- 13 -->
<g id="node13" class="node">
<title>13</title>
<g id="a_node13"><a xlink:title="/__w/AtomVM/AtomVM/src/libAtomVM/otp_socket.h">
<polygon fill="#ffffff" stroke="black" points="3158,-108 2775,-108 2775,-72 3158,-72 3158,-108"/>
<text text-anchor="middle" x="2966.5" y="-86.3" font-family="Times,serif" font-size="14.00">/__w/AtomVM/AtomVM/src/libAtomVM/otp_socket.h</text>
</a>
</g>
</g>
<!-- 1&#45;&gt;13 -->
<g id="edge11" class="edge">
<title>1&#45;&gt;13</title>
<g id="a_edge11"><a xlink:title="include">
<path fill="none" stroke="#1414ce" d="M2575.02,-142.61C2656.18,-131.91 2757.8,-118.51 2837.16,-108.05"/>
<polygon fill="#1414ce" stroke="#1414ce" points="2574.17,-139.19 2564.72,-143.97 2575.09,-146.13 2574.17,-139.19"/>
</a>
</g>
</g>
<!-- 14 -->
<g id="node14" class="node">
<title>14</title>
<g id="a_node14"><a xlink:title="/__w/AtomVM/AtomVM/src/libAtomVM/otp_ssl.c">
<polygon fill="#ffffff" stroke="black" points="3477,-36 3122,-36 3122,0 3477,0 3477,-36"/>
<text text-anchor="middle" x="3299.5" y="-14.3" font-family="Times,serif" font-size="14.00">/__w/AtomVM/AtomVM/src/libAtomVM/otp_ssl.c</text>
</a>
</g>
</g>
<!-- 1&#45;&gt;14 -->
<g id="edge12" class="edge">
<title>1&#45;&gt;14</title>
<g id="a_edge12"><a xlink:title="include">
<path fill="none" stroke="#1414ce" d="M2612.29,-161.71C2796.3,-160.07 3070.76,-150.23 3166.5,-108 3187.79,-98.61 3185.75,-85.77 3204.5,-72 3223.07,-58.36 3245.51,-45.68 3263.93,-36.15"/>
<polygon fill="#1414ce" stroke="#1414ce" points="2612.2,-158.21 2602.23,-161.8 2612.25,-165.21 2612.2,-158.21"/>
</a>
</g>
</g>
<!-- 15 -->
<g id="node15" class="node">
<title>15</title>
<g id="a_node15"><a xlink:title="/__w/AtomVM/AtomVM/src/libAtomVM/otp_ssl.h">
<polygon fill="#ffffff" stroke="black" points="3569.5,-108 3213.5,-108 3213.5,-72 3569.5,-72 3569.5,-108"/>
<text text-anchor="middle" x="3391.5" y="-86.3" font-family="Times,serif" font-size="14.00">/__w/AtomVM/AtomVM/src/libAtomVM/otp_ssl.h</text>
</a>
</g>
</g>
<!-- 1&#45;&gt;15 -->
<g id="edge13" class="edge">
<title>1&#45;&gt;15</title>
<g id="a_edge13"><a xlink:title="include">
<path fill="none" stroke="#1414ce" d="M2612.21,-149.7C2767.1,-139.57 2998.31,-123.88 3199.5,-108 3204.09,-107.64 3208.74,-107.27 3213.42,-106.89"/>
<polygon fill="#1414ce" stroke="#1414ce" points="2611.87,-146.21 2602.12,-150.36 2612.32,-153.2 2611.87,-146.21"/>
</a>
</g>
</g>
<!-- 16 -->
<g id="node17" class="node">
<title>16</title>
<g id="a_node17"><a xlink:title="/__w/AtomVM/AtomVM/src/libAtomVM/portnifloader.h">
<polygon fill="#ffffff" stroke="black" points="3985.5,-108 3587.5,-108 3587.5,-72 3985.5,-72 3985.5,-108"/>
<text text-anchor="middle" x="3786.5" y="-86.3" font-family="Times,serif" font-size="14.00">/__w/AtomVM/AtomVM/src/libAtomVM/portnifloader.h</text>
</a>
</g>
</g>
<!-- 1&#45;&gt;16 -->
<g id="edge14" class="edge">
<title>1&#45;&gt;16</title>
<g id="a_edge14"><a xlink:title="include">
<path fill="none" stroke="#1414ce" d="M2612.42,-154.73C2837.13,-146.32 3236.82,-129.88 3578.5,-108 3581.39,-107.81 3584.31,-107.62 3587.24,-107.43"/>
<polygon fill="#1414ce" stroke="#1414ce" points="2612.04,-151.24 2602.18,-155.11 2612.3,-158.24 2612.04,-151.24"/>
</a>
</g>
</g>
<!-- 18 -->
<g id="node18" class="node">
<title>18</title>
<g id="a_node18"><a xlink:title="/__w/AtomVM/AtomVM/src/libAtomVM/posix_nifs.c">
<polygon fill="#ffffff" stroke="black" points="4379.5,-108 4003.5,-108 4003.5,-72 4379.5,-72 4379.5,-108"/>
<text text-anchor="middle" x="4191.5" y="-86.3" font-family="Times,serif" font-size="14.00">/__w/AtomVM/AtomVM/src/libAtomVM/posix_nifs.c</text>
</a>
</g>
</g>
<!-- 1&#45;&gt;18 -->
<g id="edge15" class="edge">
<title>1&#45;&gt;18</title>
<g id="a_edge15"><a xlink:title="include">
<path fill="none" stroke="#1414ce" d="M2612.2,-157.99C2901.4,-152.39 3493.74,-138.1 3994.5,-108 3997.41,-107.82 4000.35,-107.64 4003.3,-107.45"/>
<polygon fill="#1414ce" stroke="#1414ce" points="2611.97,-154.49 2602.04,-158.18 2612.11,-161.49 2611.97,-154.49"/>
</a>
</g>
</g>
<!-- 19 -->
<g id="node19" class="node">
<title>19</title>
<g id="a_node19"><a xlink:title="/__w/AtomVM/AtomVM/src/libAtomVM/stacktrace.c">
<polygon fill="#ffffff" stroke="black" points="4777.5,-108 4397.5,-108 4397.5,-72 4777.5,-72 4777.5,-108"/>
<text text-anchor="middle" x="4587.5" y="-86.3" font-family="Times,serif" font-size="14.00">/__w/AtomVM/AtomVM/src/libAtomVM/stacktrace.c</text>
</a>
</g>
</g>
<!-- 1&#45;&gt;19 -->
<g id="edge16" class="edge">
<title>1&#45;&gt;19</title>
<g id="a_edge16"><a xlink:title="include">
<path fill="none" stroke="#1414ce" d="M2612.2,-159.64C2955,-156.24 3734.16,-144.8 4388.5,-108 4391.44,-107.83 4394.41,-107.66 4397.4,-107.48"/>
<polygon fill="#1414ce" stroke="#1414ce" points="2612.15,-156.14 2602.18,-159.74 2612.22,-163.14 2612.15,-156.14"/>
</a>
</g>
</g>
<!-- 8&#45;&gt;9 -->
<g id="edge17" class="edge">
<title>8&#45;&gt;9</title>
<g id="a_edge17"><a xlink:title="include">
<path fill="none" stroke="#1414ce" d="M2117.97,-61.67C2119.69,-53.05 2121.54,-43.79 2123.08,-36.1"/>
<polygon fill="#1414ce" stroke="#1414ce" points="2114.49,-61.2 2115.96,-71.7 2121.35,-62.58 2114.49,-61.2"/>
</a>
</g>
</g>
<!-- 8&#45;&gt;7 -->
<g id="edge18" class="edge">
<title>8&#45;&gt;7</title>
<g id="a_edge18"><a xlink:title="include">
<path fill="none" stroke="#1414ce" d="M2006.23,-70.21C1946.07,-59.58 1871.42,-46.38 1812.95,-36.05"/>
<polygon fill="#1414ce" stroke="#1414ce" points="2005.68,-73.67 2016.13,-71.97 2006.9,-66.78 2005.68,-73.67"/>
</a>
</g>
</g>
<!-- 11&#45;&gt;10 -->
<g id="edge19" class="edge">
<title>11&#45;&gt;10</title>
<g id="a_edge19"><a xlink:title="include">
<path fill="none" stroke="#1414ce" d="M2534.03,-61.67C2532.31,-53.05 2530.46,-43.79 2528.92,-36.1"/>
<polygon fill="#1414ce" stroke="#1414ce" points="2530.65,-62.58 2536.04,-71.7 2537.51,-61.2 2530.65,-62.58"/>
</a>
</g>
</g>
<!-- 13&#45;&gt;12 -->
<g id="edge20" class="edge">
<title>13&#45;&gt;12</title>
<g id="a_edge20"><a xlink:title="include">
<path fill="none" stroke="#1414ce" d="M2947.3,-63.64C2940.37,-54.49 2932.72,-44.38 2926.45,-36.1"/>
<polygon fill="#1414ce" stroke="#1414ce" points="2944.57,-65.84 2953.4,-71.7 2950.15,-61.61 2944.57,-65.84"/>
</a>
</g>
</g>
<!-- 13&#45;&gt;14 -->
<g id="edge21" class="edge">
<title>13&#45;&gt;14</title>
<g id="a_edge21"><a xlink:title="include">
<path fill="none" stroke="#1414ce" d="M3057.43,-69.88C3107.74,-59.31 3169.74,-46.28 3218.39,-36.05"/>
<polygon fill="#1414ce" stroke="#1414ce" points="3056.6,-66.48 3047.54,-71.97 3058.04,-73.33 3056.6,-66.48"/>
</a>
</g>
</g>
<!-- 15&#45;&gt;14 -->
<g id="edge22" class="edge">
<title>15&#45;&gt;14</title>
<g id="a_edge22"><a xlink:title="include">
<path fill="none" stroke="#1414ce" d="M3360.73,-65.59C3348.05,-55.94 3333.64,-44.97 3321.98,-36.1"/>
<polygon fill="#1414ce" stroke="#1414ce" points="3358.68,-68.43 3368.76,-71.7 3362.92,-62.86 3358.68,-68.43"/>
</a>
</g>
</g>
<!-- 17 -->
<g id="node16" class="node">
<title>17</title>
<g id="a_node16"><a xlink:title="/__w/AtomVM/AtomVM/src/libAtomVM/portnifloader.c">
<polygon fill="#ffffff" stroke="black" points="3985,-36 3588,-36 3588,0 3985,0 3985,-36"/>
<text text-anchor="middle" x="3786.5" y="-14.3" font-family="Times,serif" font-size="14.00">/__w/AtomVM/AtomVM/src/libAtomVM/portnifloader.c</text>
</a>
</g>
</g>
<!-- 16&#45;&gt;17 -->
<g id="edge23" class="edge">
<title>16&#45;&gt;17</title>
<g id="a_edge23"><a xlink:title="include">
<path fill="none" stroke="#1414ce" d="M3786.5,-61.67C3786.5,-53.05 3786.5,-43.79 3786.5,-36.1"/>
<polygon fill="#1414ce" stroke="#1414ce" points="3783,-61.7 3786.5,-71.7 3790,-61.7 3783,-61.7"/>
</a>
</g>
</g>
</g>
</svg>
