<?xml version="1.0" encoding="UTF-8" standalone="no"?>
<!DOCTYPE svg PUBLIC "-//W3C//DTD SVG 1.1//EN"
 "http://www.w3.org/Graphics/SVG/1.1/DTD/svg11.dtd">
<!-- Generated by graphviz version 2.43.0 (0)
 -->
<!-- Title: %3 Pages: 1 -->
<svg width="2306pt" height="116pt"
 viewBox="0.00 0.00 2306.00 116.00" xmlns="http://www.w3.org/2000/svg" xmlns:xlink="http://www.w3.org/1999/xlink">
<g id="graph0" class="graph" transform="scale(1 1) rotate(0) translate(4 112)">
<title>%3</title>
<polygon fill="transparent" stroke="transparent" points="-4,4 -4,-112 2302,-112 2302,4 -4,4"/>
<!-- 2 -->
<g id="node1" class="node">
<title>2</title>
<g id="a_node1"><a xlink:title="/__w/AtomVM/AtomVM/src/libAtomVM/context.c">
<polygon fill="#ffffff" stroke="black" points="359,-36 0,-36 0,0 359,0 359,-36"/>
<text text-anchor="middle" x="179.5" y="-14.3" font-family="Times,serif" font-size="14.00">/__w/AtomVM/AtomVM/src/libAtomVM/context.c</text>
</a>
</g>
</g>
<!-- 3 -->
<g id="node2" class="node">
<title>3</title>
<g id="a_node2"><a xlink:title="/__w/AtomVM/AtomVM/src/libAtomVM/globalcontext.c">
<polygon fill="#ffffff" stroke="black" points="779.5,-36 377.5,-36 377.5,0 779.5,0 779.5,-36"/>
<text text-anchor="middle" x="578.5" y="-14.3" font-family="Times,serif" font-size="14.00">/__w/AtomVM/AtomVM/src/libAtomVM/globalcontext.c</text>
</a>
</g>
</g>
<!-- 4 -->
<g id="node3" class="node">
<title>4</title>
<g id="a_node3"><a xlink:title="/__w/AtomVM/AtomVM/src/libAtomVM/module.c">
<polygon fill="#ffffff" stroke="black" points="1155.5,-36 797.5,-36 797.5,0 1155.5,0 1155.5,-36"/>
<text text-anchor="middle" x="976.5" y="-14.3" font-family="Times,serif" font-size="14.00">/__w/AtomVM/AtomVM/src/libAtomVM/module.c</text>
</a>
</g>
</g>
<!-- 5 -->
<g id="node4" class="node">
<title>5</title>
<g id="a_node4"><a xlink:title="/__w/AtomVM/AtomVM/src/libAtomVM/nifs.c">
<polygon fill="#ffffff" stroke="black" points="1505.5,-36 1173.5,-36 1173.5,0 1505.5,0 1505.5,-36"/>
<text text-anchor="middle" x="1339.5" y="-14.3" font-family="Times,serif" font-size="14.00">/__w/AtomVM/AtomVM/src/libAtomVM/nifs.c</text>
</a>
</g>
</g>
<!-- 6 -->
<g id="node5" class="node">
<title>6</title>
<g id="a_node5"><a xlink:title="/__w/AtomVM/AtomVM/src/libAtomVM/otp_socket.c">
<polygon fill="#ffffff" stroke="black" points="1905,-36 1524,-36 1524,0 1905,0 1905,-36"/>
<text text-anchor="middle" x="1714.5" y="-14.3" font-family="Times,serif" font-size="14.00">/__w/AtomVM/AtomVM/src/libAtomVM/otp_socket.c</text>
</a>
</g>
</g>
<!-- 7 -->
<g id="node6" class="node">
<title>7</title>
<g id="a_node6"><a xlink:title="/__w/AtomVM/AtomVM/src/libAtomVM/resources.c">
<polygon fill="#ffffff" stroke="black" points="2298,-36 1923,-36 1923,0 2298,0 2298,-36"/>
<text text-anchor="middle" x="2110.5" y="-14.3" font-family="Times,serif" font-size="14.00">/__w/AtomVM/AtomVM/src/libAtomVM/resources.c</text>
</a>
</g>
</g>
<!-- 1 -->
<g id="node7" class="node">
<title>1</title>
<g id="a_node7"><a xlink:title="/__w/AtomVM/AtomVM/src/libAtomVM/sys.h">
<polygon fill="#bfbfbf" stroke="black" points="1322.5,-108 992.5,-108 992.5,-72 1322.5,-72 1322.5,-108"/>
<text text-anchor="middle" x="1157.5" y="-86.3" font-family="Times,serif" font-size="14.00">/__w/AtomVM/AtomVM/src/libAtomVM/sys.h</text>
</a>
</g>
</g>
<!-- 1&#45;&gt;2 -->
<g id="edge1" class="edge">
<title>1&#45;&gt;2</title>
<g id="a_edge1"><a xlink:title="include">
<path fill="none" stroke="#1414ce" d="M981.91,-78.35C821.96,-68.37 579.27,-52.56 368.5,-36 365.38,-35.75 362.23,-35.5 359.06,-35.25"/>
<polygon fill="#1414ce" stroke="#1414ce" points="982.13,-81.87 992.32,-79 982.56,-74.88 982.13,-81.87"/>
</a>
</g>
</g>
<!-- 1&#45;&gt;3 -->
<g id="edge2" class="edge">
<title>1&#45;&gt;3</title>
<g id="a_edge2"><a xlink:title="include">
<path fill="none" stroke="#1414ce" d="M1006.44,-70.74C917.68,-60.01 806.2,-46.53 719.28,-36.02"/>
<polygon fill="#1414ce" stroke="#1414ce" points="1006.25,-74.24 1016.6,-71.97 1007.09,-67.29 1006.25,-74.24"/>
</a>
</g>
</g>
<!-- 1&#45;&gt;4 -->
<g id="edge3" class="edge">
<title>1&#45;&gt;4</title>
<g id="a_edge3"><a xlink:title="include">
<path fill="none" stroke="#1414ce" d="M1103.71,-68.2C1077.22,-57.95 1045.68,-45.76 1020.63,-36.07"/>
<polygon fill="#1414ce" stroke="#1414ce" points="1102.63,-71.53 1113.22,-71.88 1105.16,-65 1102.63,-71.53"/>
</a>
</g>
</g>
<!-- 1&#45;&gt;5 -->
<g id="edge4" class="edge">
<title>1&#45;&gt;5</title>
<g id="a_edge4"><a xlink:title="include">
<path fill="none" stroke="#1414ce" d="M1211.58,-68.2C1238.22,-57.95 1269.94,-45.76 1295.12,-36.07"/>
<polygon fill="#1414ce" stroke="#1414ce" points="1210.1,-65.02 1202.02,-71.88 1212.61,-71.55 1210.1,-65.02"/>
</a>
</g>
</g>
<!-- 1&#45;&gt;6 -->
<g id="edge5" class="edge">
<title>1&#45;&gt;6</title>
<g id="a_edge5"><a xlink:title="include">
<path fill="none" stroke="#1414ce" d="M1303.07,-70.71C1388.34,-59.99 1495.33,-46.54 1578.83,-36.05"/>
<polygon fill="#1414ce" stroke="#1414ce" points="1302.53,-67.25 1293.05,-71.97 1303.4,-74.19 1302.53,-67.25"/>
</a>
</g>
</g>
<!-- 1&#45;&gt;7 -->
<g id="edge6" class="edge">
<title>1&#45;&gt;7</title>
<g id="a_edge6"><a xlink:title="include">
<path fill="none" stroke="#1414ce" d="M1332.58,-77.57C1486.05,-67.35 1715.13,-51.62 1914.5,-36 1917.31,-35.78 1920.14,-35.56 1922.99,-35.33"/>
<polygon fill="#1414ce" stroke="#1414ce" points="1332.33,-74.08 1322.58,-78.24 1332.79,-81.06 1332.33,-74.08"/>
</a>
</g>
</g>
</g>
</svg>
