<?xml version="1.0" encoding="UTF-8" standalone="no"?>
<!DOCTYPE svg PUBLIC "-//W3C//DTD SVG 1.1//EN"
 "http://www.w3.org/Graphics/SVG/1.1/DTD/svg11.dtd">
<!-- Generated by graphviz version 2.43.0 (0)
 -->
<!-- Title: %3 Pages: 1 -->
<svg width="1931pt" height="116pt"
 viewBox="0.00 0.00 1931.00 116.00" xmlns="http://www.w3.org/2000/svg" xmlns:xlink="http://www.w3.org/1999/xlink">
<g id="graph0" class="graph" transform="scale(1 1) rotate(0) translate(4 112)">
<title>%3</title>
<polygon fill="transparent" stroke="transparent" points="-4,4 -4,-112 1927,-112 1927,4 -4,4"/>
<!-- 2 -->
<g id="node1" class="node">
<title>2</title>
<g id="a_node1"><a xlink:title="/__w/AtomVM/AtomVM/src/libAtomVM/globalcontext.c">
<polygon fill="#ffffff" stroke="black" points="402,-36 0,-36 0,0 402,0 402,-36"/>
<text text-anchor="middle" x="201" y="-14.3" font-family="Times,serif" font-size="14.00">/__w/AtomVM/AtomVM/src/libAtomVM/globalcontext.c</text>
</a>
</g>
</g>
<!-- 3 -->
<g id="node2" class="node">
<title>3</title>
<g id="a_node2"><a xlink:title="/__w/AtomVM/AtomVM/src/libAtomVM/nifs.c">
<polygon fill="#ffffff" stroke="black" points="752,-36 420,-36 420,0 752,0 752,-36"/>
<text text-anchor="middle" x="586" y="-14.3" font-family="Times,serif" font-size="14.00">/__w/AtomVM/AtomVM/src/libAtomVM/nifs.c</text>
</a>
</g>
</g>
<!-- 4 -->
<g id="node3" class="node">
<title>4</title>
<g id="a_node3"><a xlink:title="/__w/AtomVM/AtomVM/src/libAtomVM/otp_net.c">
<polygon fill="#ffffff" stroke="black" points="1129.5,-36 770.5,-36 770.5,0 1129.5,0 1129.5,-36"/>
<text text-anchor="middle" x="950" y="-14.3" font-family="Times,serif" font-size="14.00">/__w/AtomVM/AtomVM/src/libAtomVM/otp_net.c</text>
</a>
</g>
</g>
<!-- 5 -->
<g id="node4" class="node">
<title>5</title>
<g id="a_node4"><a xlink:title="/__w/AtomVM/AtomVM/src/libAtomVM/otp_socket.c">
<polygon fill="#ffffff" stroke="black" points="1528.5,-36 1147.5,-36 1147.5,0 1528.5,0 1528.5,-36"/>
<text text-anchor="middle" x="1338" y="-14.3" font-family="Times,serif" font-size="14.00">/__w/AtomVM/AtomVM/src/libAtomVM/otp_socket.c</text>
</a>
</g>
</g>
<!-- 6 -->
<g id="node5" class="node">
<title>6</title>
<g id="a_node5"><a xlink:title="/__w/AtomVM/AtomVM/src/libAtomVM/posix_nifs.c">
<polygon fill="#ffffff" stroke="black" points="1923,-36 1547,-36 1547,0 1923,0 1923,-36"/>
<text text-anchor="middle" x="1735" y="-14.3" font-family="Times,serif" font-size="14.00">/__w/AtomVM/AtomVM/src/libAtomVM/posix_nifs.c</text>
</a>
</g>
</g>
<!-- 1 -->
<g id="node6" class="node">
<title>1</title>
<g id="a_node6"><a xlink:title="/__w/AtomVM/AtomVM/src/libAtomVM/posix_nifs.h">
<polygon fill="#bfbfbf" stroke="black" points="1138.5,-108 761.5,-108 761.5,-72 1138.5,-72 1138.5,-108"/>
<text text-anchor="middle" x="950" y="-86.3" font-family="Times,serif" font-size="14.00">/__w/AtomVM/AtomVM/src/libAtomVM/posix_nifs.h</text>
</a>
</g>
</g>
<!-- 1&#45;&gt;2 -->
<g id="edge1" class="edge">
<title>1&#45;&gt;2</title>
<g id="a_edge1"><a xlink:title="include">
<path fill="none" stroke="#1414ce" d="M757.73,-71.03C642.4,-60.25 496.58,-46.62 383.11,-36.02"/>
<polygon fill="#1414ce" stroke="#1414ce" points="757.45,-74.52 767.73,-71.97 758.1,-67.55 757.45,-74.52"/>
</a>
</g>
</g>
<!-- 1&#45;&gt;3 -->
<g id="edge2" class="edge">
<title>1&#45;&gt;3</title>
<g id="a_edge2"><a xlink:title="include">
<path fill="none" stroke="#1414ce" d="M851.29,-70.02C796.17,-59.42 728.07,-46.32 674.66,-36.05"/>
<polygon fill="#1414ce" stroke="#1414ce" points="850.94,-73.51 861.42,-71.97 852.26,-66.64 850.94,-73.51"/>
</a>
</g>
</g>
<!-- 1&#45;&gt;4 -->
<g id="edge3" class="edge">
<title>1&#45;&gt;4</title>
<g id="a_edge3"><a xlink:title="include">
<path fill="none" stroke="#1414ce" d="M950,-61.67C950,-53.05 950,-43.79 950,-36.1"/>
<polygon fill="#1414ce" stroke="#1414ce" points="946.5,-61.7 950,-71.7 953.5,-61.7 946.5,-61.7"/>
</a>
</g>
</g>
<!-- 1&#45;&gt;5 -->
<g id="edge4" class="edge">
<title>1&#45;&gt;5</title>
<g id="a_edge4"><a xlink:title="include">
<path fill="none" stroke="#1414ce" d="M1054.49,-70.15C1113.37,-59.53 1186.33,-46.36 1243.49,-36.05"/>
<polygon fill="#1414ce" stroke="#1414ce" points="1053.64,-66.75 1044.42,-71.97 1054.88,-73.63 1053.64,-66.75"/>
</a>
</g>
</g>
<!-- 1&#45;&gt;6 -->
<g id="edge5" class="edge">
<title>1&#45;&gt;6</title>
<g id="a_edge5"><a xlink:title="include">
<path fill="none" stroke="#1414ce" d="M1148.75,-71.28C1270.92,-60.38 1426.51,-46.51 1546.7,-35.79"/>
<polygon fill="#1414ce" stroke="#1414ce" points="1148.18,-67.81 1138.53,-72.19 1148.8,-74.79 1148.18,-67.81"/>
</a>
</g>
</g>
</g>
</svg>
