<?xml version="1.0" encoding="UTF-8" standalone="no"?>
<!DOCTYPE svg PUBLIC "-//W3C//DTD SVG 1.1//EN"
 "http://www.w3.org/Graphics/SVG/1.1/DTD/svg11.dtd">
<!-- Generated by graphviz version 2.43.0 (0)
 -->
<!-- Title: %3 Pages: 1 -->
<svg width="371pt" height="188pt"
 viewBox="0.00 0.00 371.00 188.00" xmlns="http://www.w3.org/2000/svg" xmlns:xlink="http://www.w3.org/1999/xlink">
<g id="graph0" class="graph" transform="scale(1 1) rotate(0) translate(4 184)">
<title>%3</title>
<polygon fill="transparent" stroke="transparent" points="-4,4 -4,-184 367,-184 367,4 -4,4"/>
<!-- 3 -->
<g id="node1" class="node">
<title>3</title>
<g id="a_node1"><a xlink:title="assert.h">
<polygon fill="#ffffff" stroke="black" points="76.5,-36 2.5,-36 2.5,0 76.5,0 76.5,-36"/>
<text text-anchor="middle" x="39.5" y="-14.3" font-family="Times,serif" font-size="14.00">assert.h</text>
</a>
</g>
</g>
<!-- 6 -->
<g id="node2" class="node">
<title>6</title>
<g id="a_node2"><a xlink:title="stdint.h">
<polygon fill="#ffffff" stroke="black" points="166.5,-36 94.5,-36 94.5,0 166.5,0 166.5,-36"/>
<text text-anchor="middle" x="130.5" y="-14.3" font-family="Times,serif" font-size="14.00">stdint.h</text>
</a>
</g>
</g>
<!-- 1 -->
<g id="node3" class="node">
<title>1</title>
<g id="a_node3"><a xlink:title="/__w/AtomVM/AtomVM/src/libAtomVM/erl_nif.h">
<polygon fill="#bfbfbf" stroke="black" points="351,-180 0,-180 0,-144 351,-144 351,-180"/>
<text text-anchor="middle" x="175.5" y="-158.3" font-family="Times,serif" font-size="14.00">/__w/AtomVM/AtomVM/src/libAtomVM/erl_nif.h</text>
</a>
</g>
</g>
<!-- 2 -->
<g id="node5" class="node">
<title>2</title>
<g id="a_node5"><a xlink:title="term_typedef.h">
<polygon fill="#ffffff" stroke="black" points="238,-108 113,-108 113,-72 238,-72 238,-108"/>
<text text-anchor="middle" x="175.5" y="-86.3" font-family="Times,serif" font-size="14.00">term_typedef.h</text>
</a>
</g>
</g>
<!-- 1&#45;&gt;2 -->
<g id="edge1" class="edge">
<title>1&#45;&gt;2</title>
<g id="a_edge1"><a xlink:title="include">
<path fill="none" stroke="#1414ce" d="M175.5,-143.7C175.5,-135.98 175.5,-126.71 175.5,-118.11"/>
<polygon fill="#1414ce" stroke="#1414ce" points="179,-118.1 175.5,-108.1 172,-118.1 179,-118.1"/>
</a>
</g>
</g>
<!-- 4 -->
<g id="node4" class="node">
<title>4</title>
<g id="a_node4"><a xlink:title="limits.h">
<polygon fill="#ffffff" stroke="black" points="256,-36 185,-36 185,0 256,0 256,-36"/>
<text text-anchor="middle" x="220.5" y="-14.3" font-family="Times,serif" font-size="14.00">limits.h</text>
</a>
</g>
</g>
<!-- 2&#45;&gt;3 -->
<g id="edge2" class="edge">
<title>2&#45;&gt;3</title>
<g id="a_edge2"><a xlink:title="include">
<path fill="none" stroke="#1414ce" d="M142.23,-71.88C124.04,-62.51 101.31,-50.81 81.86,-40.8"/>
<polygon fill="#1414ce" stroke="#1414ce" points="83.39,-37.65 72.9,-36.19 80.19,-43.88 83.39,-37.65"/>
</a>
</g>
</g>
<!-- 2&#45;&gt;6 -->
<g id="edge5" class="edge">
<title>2&#45;&gt;6</title>
<g id="a_edge5"><a xlink:title="include">
<path fill="none" stroke="#1414ce" d="M164.38,-71.7C159.14,-63.56 152.8,-53.69 147.02,-44.7"/>
<polygon fill="#1414ce" stroke="#1414ce" points="149.85,-42.62 141.5,-36.1 143.96,-46.41 149.85,-42.62"/>
</a>
</g>
</g>
<!-- 2&#45;&gt;4 -->
<g id="edge3" class="edge">
<title>2&#45;&gt;4</title>
<g id="a_edge3"><a xlink:title="include">
<path fill="none" stroke="#1414ce" d="M186.62,-71.7C191.86,-63.56 198.2,-53.69 203.98,-44.7"/>
<polygon fill="#1414ce" stroke="#1414ce" points="207.04,-46.41 209.5,-36.1 201.15,-42.62 207.04,-46.41"/>
</a>
</g>
</g>
<!-- 5 -->
<g id="node6" class="node">
<title>5</title>
<g id="a_node6"><a xlink:title="inttypes.h">
<polygon fill="#ffffff" stroke="black" points="363,-36 274,-36 274,0 363,0 363,-36"/>
<text text-anchor="middle" x="318.5" y="-14.3" font-family="Times,serif" font-size="14.00">inttypes.h</text>
</a>
</g>
</g>
<!-- 2&#45;&gt;5 -->
<g id="edge4" class="edge">
<title>2&#45;&gt;5</title>
<g id="a_edge4"><a xlink:title="include">
<path fill="none" stroke="#1414ce" d="M210.48,-71.88C229.7,-62.47 253.73,-50.71 274.24,-40.67"/>
<polygon fill="#1414ce" stroke="#1414ce" points="275.94,-43.73 283.38,-36.19 272.86,-37.44 275.94,-43.73"/>
</a>
</g>
</g>
</g>
</svg>
