<?xml version="1.0" encoding="UTF-8" standalone="no"?>
<!DOCTYPE svg PUBLIC "-//W3C//DTD SVG 1.1//EN"
 "http://www.w3.org/Graphics/SVG/1.1/DTD/svg11.dtd">
<!-- Generated by graphviz version 2.43.0 (0)
 -->
<!-- Title: %3 Pages: 1 -->
<svg width="1566pt" height="908pt"
 viewBox="0.00 0.00 1566.00 908.00" xmlns="http://www.w3.org/2000/svg" xmlns:xlink="http://www.w3.org/1999/xlink">
<g id="graph0" class="graph" transform="scale(1 1) rotate(0) translate(4 904)">
<title>%3</title>
<polygon fill="transparent" stroke="transparent" points="-4,4 -4,-904 1562,-904 1562,4 -4,4"/>
<!-- 10 -->
<g id="node1" class="node">
<title>10</title>
<g id="a_node1"><a xlink:title="stdbool.h">
<polygon fill="#ffffff" stroke="black" points="943,-108 860,-108 860,-72 943,-72 943,-108"/>
<text text-anchor="middle" x="901.5" y="-86.3" font-family="Times,serif" font-size="14.00">stdbool.h</text>
</a>
</g>
</g>
<!-- 3 -->
<g id="node2" class="node">
<title>3</title>
<g id="a_node2"><a xlink:title="interop.h">
<polygon fill="#ffffff" stroke="black" points="236.5,-756 154.5,-756 154.5,-720 236.5,-720 236.5,-756"/>
<text text-anchor="middle" x="195.5" y="-734.3" font-family="Times,serif" font-size="14.00">interop.h</text>
</a>
</g>
</g>
<!-- 4 -->
<g id="node12" class="node">
<title>4</title>
<g id="a_node12"><a xlink:title="context.h">
<polygon fill="#ffffff" stroke="black" points="906,-684 823,-684 823,-648 906,-648 906,-684"/>
<text text-anchor="middle" x="864.5" y="-662.3" font-family="Times,serif" font-size="14.00">context.h</text>
</a>
</g>
</g>
<!-- 3&#45;&gt;4 -->
<g id="edge1" class="edge">
<title>3&#45;&gt;4</title>
<g id="a_edge1"><a xlink:title="include">
<path fill="none" stroke="#1414ce" d="M236.59,-732.7C352.98,-720.52 684.73,-685.81 812.99,-672.39"/>
<polygon fill="#1414ce" stroke="#1414ce" points="813.38,-675.87 822.96,-671.35 812.65,-668.91 813.38,-675.87"/>
</a>
</g>
</g>
<!-- 23 -->
<g id="node18" class="node">
<title>23</title>
<g id="a_node18"><a xlink:title="term.h">
<polygon fill="#ffffff" stroke="black" points="550,-468 485,-468 485,-432 550,-432 550,-468"/>
<text text-anchor="middle" x="517.5" y="-446.3" font-family="Times,serif" font-size="14.00">term.h</text>
</a>
</g>
</g>
<!-- 3&#45;&gt;23 -->
<g id="edge2" class="edge">
<title>3&#45;&gt;23</title>
<g id="a_edge2"><a xlink:title="include">
<path fill="none" stroke="#1414ce" d="M214.68,-719.97C269.47,-671.3 426.83,-531.53 490.39,-475.08"/>
<polygon fill="#1414ce" stroke="#1414ce" points="492.86,-477.56 498.02,-468.31 488.21,-472.33 492.86,-477.56"/>
</a>
</g>
</g>
<!-- 27 -->
<g id="node3" class="node">
<title>27</title>
<g id="a_node3"><a xlink:title="refc_binary.h">
<polygon fill="#ffffff" stroke="black" points="767.5,-396 659.5,-396 659.5,-360 767.5,-360 767.5,-396"/>
<text text-anchor="middle" x="713.5" y="-374.3" font-family="Times,serif" font-size="14.00">refc_binary.h</text>
</a>
</g>
</g>
<!-- 27&#45;&gt;10 -->
<g id="edge3" class="edge">
<title>27&#45;&gt;10</title>
<g id="a_edge3"><a xlink:title="include">
<path fill="none" stroke="#1414ce" d="M724.72,-359.81C735.14,-341.54 747.65,-312.03 737.5,-288 728.57,-266.86 709.43,-273.14 700.5,-252 694.28,-237.26 693.99,-230.62 700.5,-216 702.93,-210.54 775.48,-147.24 780.5,-144 802.17,-130.02 828.15,-118.1 850.47,-109.12"/>
<polygon fill="#1414ce" stroke="#1414ce" points="851.76,-112.38 859.78,-105.46 849.2,-105.86 851.76,-112.38"/>
</a>
</g>
</g>
<!-- 20 -->
<g id="node9" class="node">
<title>20</title>
<g id="a_node9"><a xlink:title="list.h">
<polygon fill="#ffffff" stroke="black" points="1085.5,-180 1031.5,-180 1031.5,-144 1085.5,-144 1085.5,-180"/>
<text text-anchor="middle" x="1058.5" y="-158.3" font-family="Times,serif" font-size="14.00">list.h</text>
</a>
</g>
</g>
<!-- 27&#45;&gt;20 -->
<g id="edge5" class="edge">
<title>27&#45;&gt;20</title>
<g id="a_edge5"><a xlink:title="include">
<path fill="none" stroke="#1414ce" d="M767.77,-363.37C829.31,-345.77 930.11,-310.3 999.5,-252 1019.99,-234.78 1036.14,-208.68 1046.32,-189.19"/>
<polygon fill="#1414ce" stroke="#1414ce" points="1049.46,-190.72 1050.83,-180.22 1043.21,-187.58 1049.46,-190.72"/>
</a>
</g>
</g>
<!-- 8 -->
<g id="node11" class="node">
<title>8</title>
<g id="a_node11"><a xlink:title="stdlib.h">
<polygon fill="#ffffff" stroke="black" points="598,-108 527,-108 527,-72 598,-72 598,-108"/>
<text text-anchor="middle" x="562.5" y="-86.3" font-family="Times,serif" font-size="14.00">stdlib.h</text>
</a>
</g>
</g>
<!-- 27&#45;&gt;8 -->
<g id="edge4" class="edge">
<title>27&#45;&gt;8</title>
<g id="a_edge4"><a xlink:title="include">
<path fill="none" stroke="#1414ce" d="M666.37,-359.8C649.33,-351.41 631.38,-339.68 619.5,-324 572.22,-261.63 563.64,-165.27 562.42,-118.43"/>
<polygon fill="#1414ce" stroke="#1414ce" points="565.91,-118.1 562.25,-108.16 558.91,-118.22 565.91,-118.1"/>
</a>
</g>
</g>
<!-- 28 -->
<g id="node15" class="node">
<title>28</title>
<g id="a_node15"><a xlink:title="resources.h">
<polygon fill="#ffffff" stroke="black" points="728.5,-324 628.5,-324 628.5,-288 728.5,-288 728.5,-324"/>
<text text-anchor="middle" x="678.5" y="-302.3" font-family="Times,serif" font-size="14.00">resources.h</text>
</a>
</g>
</g>
<!-- 27&#45;&gt;28 -->
<g id="edge6" class="edge">
<title>27&#45;&gt;28</title>
<g id="a_edge6"><a xlink:title="include">
<path fill="none" stroke="#1414ce" d="M704.85,-359.7C700.86,-351.73 696.05,-342.1 691.63,-333.26"/>
<polygon fill="#1414ce" stroke="#1414ce" points="694.65,-331.48 687.05,-324.1 688.39,-334.61 694.65,-331.48"/>
</a>
</g>
</g>
<!-- 33 -->
<g id="node4" class="node">
<title>33</title>
<g id="a_node4"><a xlink:title="defaultatoms.h">
<polygon fill="#ffffff" stroke="black" points="1178.5,-684 1054.5,-684 1054.5,-648 1178.5,-648 1178.5,-684"/>
<text text-anchor="middle" x="1116.5" y="-662.3" font-family="Times,serif" font-size="14.00">defaultatoms.h</text>
</a>
</g>
</g>
<!-- 34 -->
<g id="node21" class="node">
<title>34</title>
<g id="a_node21"><a xlink:title="defaultatoms.def">
<polygon fill="#ffffff" stroke="black" points="1558,-612 1421,-612 1421,-576 1558,-576 1558,-612"/>
<text text-anchor="middle" x="1489.5" y="-590.3" font-family="Times,serif" font-size="14.00">defaultatoms.def</text>
</a>
</g>
</g>
<!-- 33&#45;&gt;34 -->
<g id="edge8" class="edge">
<title>33&#45;&gt;34</title>
<g id="a_edge8"><a xlink:title="include">
<path fill="none" stroke="#1414ce" d="M1178.52,-654.06C1237.28,-643.6 1327.99,-627.21 1406.5,-612 1407.8,-611.75 1409.11,-611.49 1410.43,-611.24"/>
<polygon fill="#1414ce" stroke="#1414ce" points="1411.55,-614.58 1420.68,-609.21 1410.19,-607.71 1411.55,-614.58"/>
</a>
</g>
</g>
<!-- 5 -->
<g id="node27" class="node">
<title>5</title>
<g id="a_node27"><a xlink:title="globalcontext.h">
<polygon fill="#ffffff" stroke="black" points="1180,-612 1053,-612 1053,-576 1180,-576 1180,-612"/>
<text text-anchor="middle" x="1116.5" y="-590.3" font-family="Times,serif" font-size="14.00">globalcontext.h</text>
</a>
</g>
</g>
<!-- 33&#45;&gt;5 -->
<g id="edge7" class="edge">
<title>33&#45;&gt;5</title>
<g id="a_edge7"><a xlink:title="include">
<path fill="none" stroke="#1414ce" d="M1116.5,-647.7C1116.5,-639.98 1116.5,-630.71 1116.5,-622.11"/>
<polygon fill="#1414ce" stroke="#1414ce" points="1120,-622.1 1116.5,-612.1 1113,-622.1 1120,-622.1"/>
</a>
</g>
</g>
<!-- 7 -->
<g id="node5" class="node">
<title>7</title>
<g id="a_node5"><a xlink:title="atom.h">
<polygon fill="#ffffff" stroke="black" points="534.5,-180 468.5,-180 468.5,-144 534.5,-144 534.5,-180"/>
<text text-anchor="middle" x="501.5" y="-158.3" font-family="Times,serif" font-size="14.00">atom.h</text>
</a>
</g>
</g>
<!-- 6 -->
<g id="node10" class="node">
<title>6</title>
<g id="a_node10"><a xlink:title="stdint.h">
<polygon fill="#ffffff" stroke="black" points="534.5,-36 462.5,-36 462.5,0 534.5,0 534.5,-36"/>
<text text-anchor="middle" x="498.5" y="-14.3" font-family="Times,serif" font-size="14.00">stdint.h</text>
</a>
</g>
</g>
<!-- 7&#45;&gt;6 -->
<g id="edge9" class="edge">
<title>7&#45;&gt;6</title>
<g id="a_edge9"><a xlink:title="include">
<path fill="none" stroke="#1414ce" d="M501.14,-143.87C500.63,-119.67 499.69,-75.21 499.08,-46.39"/>
<polygon fill="#1414ce" stroke="#1414ce" points="502.57,-46.11 498.86,-36.19 495.58,-46.26 502.57,-46.11"/>
</a>
</g>
</g>
<!-- 7&#45;&gt;8 -->
<g id="edge10" class="edge">
<title>7&#45;&gt;8</title>
<g id="a_edge10"><a xlink:title="include">
<path fill="none" stroke="#1414ce" d="M516.58,-143.7C523.89,-135.3 532.81,-125.07 540.84,-115.86"/>
<polygon fill="#1414ce" stroke="#1414ce" points="543.66,-117.94 547.59,-108.1 538.39,-113.34 543.66,-117.94"/>
</a>
</g>
</g>
<!-- 16 -->
<g id="node6" class="node">
<title>16</title>
<g id="a_node6"><a xlink:title="assert.h">
<polygon fill="#ffffff" stroke="black" points="272.5,-36 198.5,-36 198.5,0 272.5,0 272.5,-36"/>
<text text-anchor="middle" x="235.5" y="-14.3" font-family="Times,serif" font-size="14.00">assert.h</text>
</a>
</g>
</g>
<!-- 11 -->
<g id="node7" class="node">
<title>11</title>
<g id="a_node7"><a xlink:title="utils.h">
<polygon fill="#ffffff" stroke="black" points="728.5,-180 666.5,-180 666.5,-144 728.5,-144 728.5,-180"/>
<text text-anchor="middle" x="697.5" y="-158.3" font-family="Times,serif" font-size="14.00">utils.h</text>
</a>
</g>
</g>
<!-- 11&#45;&gt;8 -->
<g id="edge13" class="edge">
<title>11&#45;&gt;8</title>
<g id="a_edge13"><a xlink:title="include">
<path fill="none" stroke="#1414ce" d="M666.19,-144.76C647.82,-135.24 624.37,-123.08 604.41,-112.73"/>
<polygon fill="#1414ce" stroke="#1414ce" points="606.01,-109.62 595.52,-108.12 602.79,-115.83 606.01,-109.62"/>
</a>
</g>
</g>
<!-- 12 -->
<g id="node19" class="node">
<title>12</title>
<g id="a_node19"><a xlink:title="stddef.h">
<polygon fill="#ffffff" stroke="black" points="831.5,-108 757.5,-108 757.5,-72 831.5,-72 831.5,-108"/>
<text text-anchor="middle" x="794.5" y="-86.3" font-family="Times,serif" font-size="14.00">stddef.h</text>
</a>
</g>
</g>
<!-- 11&#45;&gt;12 -->
<g id="edge11" class="edge">
<title>11&#45;&gt;12</title>
<g id="a_edge11"><a xlink:title="include">
<path fill="none" stroke="#1414ce" d="M721.48,-143.7C733.81,-134.8 749.02,-123.82 762.35,-114.2"/>
<polygon fill="#1414ce" stroke="#1414ce" points="764.74,-116.79 770.8,-108.1 760.64,-111.12 764.74,-116.79"/>
</a>
</g>
</g>
<!-- 13 -->
<g id="node32" class="node">
<title>13</title>
<g id="a_node32"><a xlink:title="stdio.h">
<polygon fill="#ffffff" stroke="black" points="730,-108 665,-108 665,-72 730,-72 730,-108"/>
<text text-anchor="middle" x="697.5" y="-86.3" font-family="Times,serif" font-size="14.00">stdio.h</text>
</a>
</g>
</g>
<!-- 11&#45;&gt;13 -->
<g id="edge12" class="edge">
<title>11&#45;&gt;13</title>
<g id="a_edge12"><a xlink:title="include">
<path fill="none" stroke="#1414ce" d="M697.5,-143.7C697.5,-135.98 697.5,-126.71 697.5,-118.11"/>
<polygon fill="#1414ce" stroke="#1414ce" points="701,-118.1 697.5,-108.1 694,-118.1 701,-118.1"/>
</a>
</g>
</g>
<!-- 21 -->
<g id="node8" class="node">
<title>21</title>
<g id="a_node8"><a xlink:title="synclist.h">
<polygon fill="#ffffff" stroke="black" points="1212,-252 1127,-252 1127,-216 1212,-216 1212,-252"/>
<text text-anchor="middle" x="1169.5" y="-230.3" font-family="Times,serif" font-size="14.00">synclist.h</text>
</a>
</g>
</g>
<!-- 21&#45;&gt;20 -->
<g id="edge15" class="edge">
<title>21&#45;&gt;20</title>
<g id="a_edge15"><a xlink:title="include">
<path fill="none" stroke="#1414ce" d="M1142.35,-215.88C1127.97,-206.81 1110.12,-195.55 1094.59,-185.76"/>
<polygon fill="#1414ce" stroke="#1414ce" points="1096.08,-182.56 1085.76,-180.19 1092.35,-188.48 1096.08,-182.56"/>
</a>
</g>
</g>
<!-- 22 -->
<g id="node28" class="node">
<title>22</title>
<g id="a_node28"><a xlink:title="smp.h">
<polygon fill="#ffffff" stroke="black" points="1201.5,-180 1141.5,-180 1141.5,-144 1201.5,-144 1201.5,-180"/>
<text text-anchor="middle" x="1171.5" y="-158.3" font-family="Times,serif" font-size="14.00">smp.h</text>
</a>
</g>
</g>
<!-- 21&#45;&gt;22 -->
<g id="edge16" class="edge">
<title>21&#45;&gt;22</title>
<g id="a_edge16"><a xlink:title="include">
<path fill="none" stroke="#1414ce" d="M1169.99,-215.7C1170.21,-207.98 1170.48,-198.71 1170.73,-190.11"/>
<polygon fill="#1414ce" stroke="#1414ce" points="1174.22,-190.2 1171.01,-180.1 1167.23,-190 1174.22,-190.2"/>
</a>
</g>
</g>
<!-- 21&#45;&gt;13 -->
<g id="edge14" class="edge">
<title>21&#45;&gt;13</title>
<g id="a_edge14"><a xlink:title="include">
<path fill="none" stroke="#1414ce" d="M1157.56,-215.99C1140.78,-192.6 1110.48,-152.46 1094.5,-144 957.88,-71.63 899.62,-140.64 748.5,-108 745.68,-107.39 742.79,-106.68 739.9,-105.9"/>
<polygon fill="#1414ce" stroke="#1414ce" points="740.71,-102.49 730.13,-103.04 738.74,-109.21 740.71,-102.49"/>
</a>
</g>
</g>
<!-- 20&#45;&gt;10 -->
<g id="edge17" class="edge">
<title>20&#45;&gt;10</title>
<g id="a_edge17"><a xlink:title="include">
<path fill="none" stroke="#1414ce" d="M1031.15,-148.81C1008.52,-138.72 975.84,-124.14 948.95,-112.16"/>
<polygon fill="#1414ce" stroke="#1414ce" points="950.26,-108.91 939.71,-108.03 947.41,-115.3 950.26,-108.91"/>
</a>
</g>
</g>
<!-- 4&#45;&gt;20 -->
<g id="edge19" class="edge">
<title>4&#45;&gt;20</title>
<g id="a_edge19"><a xlink:title="include">
<path fill="none" stroke="#1414ce" d="M906.28,-648.99C953.38,-627.89 1023.5,-585.92 1023.5,-523 1023.5,-523 1023.5,-523 1023.5,-377 1023.5,-308.92 1040.97,-230.24 1051.22,-189.9"/>
<polygon fill="#1414ce" stroke="#1414ce" points="1054.66,-190.6 1053.78,-180.04 1047.88,-188.84 1054.66,-190.6"/>
</a>
</g>
</g>
<!-- 4&#45;&gt;23 -->
<g id="edge22" class="edge">
<title>4&#45;&gt;23</title>
<g id="a_edge22"><a xlink:title="include">
<path fill="none" stroke="#1414ce" d="M836.69,-647.85C774.51,-609.5 624.22,-516.82 554.35,-473.73"/>
<polygon fill="#1414ce" stroke="#1414ce" points="555.79,-470.5 545.44,-468.23 552.12,-476.46 555.79,-470.5"/>
</a>
</g>
</g>
<!-- 4&#45;&gt;5 -->
<g id="edge18" class="edge">
<title>4&#45;&gt;5</title>
<g id="a_edge18"><a xlink:title="include">
<path fill="none" stroke="#1414ce" d="M906.11,-653.44C943.88,-642.95 1000.37,-627.26 1045.31,-614.77"/>
<polygon fill="#1414ce" stroke="#1414ce" points="1046.31,-618.13 1055,-612.08 1044.43,-611.39 1046.31,-618.13"/>
</a>
</g>
</g>
<!-- 4&#45;&gt;22 -->
<g id="edge21" class="edge">
<title>4&#45;&gt;22</title>
<g id="a_edge21"><a xlink:title="include">
<path fill="none" stroke="#1414ce" d="M906.19,-660.89C982.05,-652.98 1139.47,-634.4 1189.5,-612 1297.14,-563.81 1316.5,-496.94 1316.5,-379 1316.5,-379 1316.5,-379 1316.5,-305 1316.5,-261.81 1307.25,-247.3 1277.5,-216 1276.18,-214.61 1240.54,-196.91 1210.95,-182.34"/>
<polygon fill="#1414ce" stroke="#1414ce" points="1212.12,-179.02 1201.61,-177.75 1209.03,-185.3 1212.12,-179.02"/>
</a>
</g>
</g>
<!-- 30 -->
<g id="node29" class="node">
<title>30</title>
<g id="a_node29"><a xlink:title="timer_list.h">
<polygon fill="#ffffff" stroke="black" points="1442.5,-252 1344.5,-252 1344.5,-216 1442.5,-216 1442.5,-252"/>
<text text-anchor="middle" x="1393.5" y="-230.3" font-family="Times,serif" font-size="14.00">timer_list.h</text>
</a>
</g>
</g>
<!-- 4&#45;&gt;30 -->
<g id="edge23" class="edge">
<title>4&#45;&gt;30</title>
<g id="a_edge23"><a xlink:title="include">
<path fill="none" stroke="#1414ce" d="M906.19,-660.93C1026.17,-649.17 1364.1,-615.76 1368.5,-612 1399.67,-585.42 1392.5,-563.97 1392.5,-523 1392.5,-523 1392.5,-523 1392.5,-377 1392.5,-337 1392.9,-290.65 1393.2,-262.08"/>
<polygon fill="#1414ce" stroke="#1414ce" points="1396.7,-262.09 1393.3,-252.05 1389.7,-262.01 1396.7,-262.09"/>
</a>
</g>
</g>
<!-- 29 -->
<g id="node30" class="node">
<title>29</title>
<g id="a_node30"><a xlink:title="mailbox.h">
<polygon fill="#ffffff" stroke="black" points="828.5,-252 742.5,-252 742.5,-216 828.5,-216 828.5,-252"/>
<text text-anchor="middle" x="785.5" y="-230.3" font-family="Times,serif" font-size="14.00">mailbox.h</text>
</a>
</g>
</g>
<!-- 4&#45;&gt;29 -->
<g id="edge20" class="edge">
<title>4&#45;&gt;29</title>
<g id="a_edge20"><a xlink:title="include">
<path fill="none" stroke="#1414ce" d="M858.23,-647.78C849.17,-621.32 833.5,-568.92 833.5,-523 833.5,-523 833.5,-523 833.5,-377 833.5,-334.87 814.3,-289.23 800.19,-261.37"/>
<polygon fill="#1414ce" stroke="#1414ce" points="803.18,-259.54 795.45,-252.29 796.97,-262.78 803.18,-259.54"/>
</a>
</g>
</g>
<!-- 26 -->
<g id="node13" class="node">
<title>26</title>
<g id="a_node13"><a xlink:title="memory.h">
<polygon fill="#ffffff" stroke="black" points="309.5,-252 223.5,-252 223.5,-216 309.5,-216 309.5,-252"/>
<text text-anchor="middle" x="266.5" y="-230.3" font-family="Times,serif" font-size="14.00">memory.h</text>
</a>
</g>
</g>
<!-- 26&#45;&gt;11 -->
<g id="edge28" class="edge">
<title>26&#45;&gt;11</title>
<g id="a_edge28"><a xlink:title="include">
<path fill="none" stroke="#1414ce" d="M309.8,-225.97C393.12,-212.44 574.71,-182.94 656.33,-169.69"/>
<polygon fill="#1414ce" stroke="#1414ce" points="656.92,-173.14 666.23,-168.08 655.8,-166.23 656.92,-173.14"/>
</a>
</g>
</g>
<!-- 26&#45;&gt;6 -->
<g id="edge24" class="edge">
<title>26&#45;&gt;6</title>
<g id="a_edge24"><a xlink:title="include">
<path fill="none" stroke="#1414ce" d="M270.92,-215.81C280.18,-183.19 304.63,-111.98 350.5,-72 379.28,-46.92 420.79,-33.42 452.53,-26.34"/>
<polygon fill="#1414ce" stroke="#1414ce" points="453.39,-29.74 462.46,-24.26 451.95,-22.89 453.39,-29.74"/>
</a>
</g>
</g>
<!-- 26&#45;&gt;8 -->
<g id="edge25" class="edge">
<title>26&#45;&gt;8</title>
<g id="a_edge25"><a xlink:title="include">
<path fill="none" stroke="#1414ce" d="M294.5,-215.89C325.97,-197.03 378.9,-166.39 426.5,-144 456.11,-130.07 490.46,-116.71 517.22,-106.89"/>
<polygon fill="#1414ce" stroke="#1414ce" points="518.52,-110.14 526.72,-103.43 516.13,-103.56 518.52,-110.14"/>
</a>
</g>
</g>
<!-- 14 -->
<g id="node20" class="node">
<title>14</title>
<g id="a_node20"><a xlink:title="erl_nif.h">
<polygon fill="#ffffff" stroke="black" points="222.5,-180 148.5,-180 148.5,-144 222.5,-144 222.5,-180"/>
<text text-anchor="middle" x="185.5" y="-158.3" font-family="Times,serif" font-size="14.00">erl_nif.h</text>
</a>
</g>
</g>
<!-- 26&#45;&gt;14 -->
<g id="edge26" class="edge">
<title>26&#45;&gt;14</title>
<g id="a_edge26"><a xlink:title="include">
<path fill="none" stroke="#1414ce" d="M246.48,-215.7C236.37,-206.97 223.96,-196.24 212.98,-186.75"/>
<polygon fill="#1414ce" stroke="#1414ce" points="215.15,-183.99 205.29,-180.1 210.57,-189.29 215.15,-183.99"/>
</a>
</g>
</g>
<!-- 15 -->
<g id="node26" class="node">
<title>15</title>
<g id="a_node26"><a xlink:title="term_typedef.h">
<polygon fill="#ffffff" stroke="black" points="298,-108 173,-108 173,-72 298,-72 298,-108"/>
<text text-anchor="middle" x="235.5" y="-86.3" font-family="Times,serif" font-size="14.00">term_typedef.h</text>
</a>
</g>
</g>
<!-- 26&#45;&gt;15 -->
<g id="edge27" class="edge">
<title>26&#45;&gt;15</title>
<g id="a_edge27"><a xlink:title="include">
<path fill="none" stroke="#1414ce" d="M262.76,-215.87C257.45,-191.56 247.69,-146.82 241.4,-118.01"/>
<polygon fill="#1414ce" stroke="#1414ce" points="244.8,-117.21 239.25,-108.19 237.97,-118.71 244.8,-117.21"/>
</a>
</g>
</g>
<!-- 31 -->
<g id="node14" class="node">
<title>31</title>
<g id="a_node14"><a xlink:title="valueshashtable.h">
<polygon fill="#ffffff" stroke="black" points="1441.5,-180 1295.5,-180 1295.5,-144 1441.5,-144 1441.5,-180"/>
<text text-anchor="middle" x="1368.5" y="-158.3" font-family="Times,serif" font-size="14.00">valueshashtable.h</text>
</a>
</g>
</g>
<!-- 31&#45;&gt;6 -->
<g id="edge30" class="edge">
<title>31&#45;&gt;6</title>
<g id="a_edge30"><a xlink:title="include">
<path fill="none" stroke="#1414ce" d="M1357.7,-143.94C1343.24,-122.8 1315.44,-87.66 1281.5,-72 1214.68,-41.18 703.02,-24.63 544.9,-20.22"/>
<polygon fill="#1414ce" stroke="#1414ce" points="544.67,-16.71 534.57,-19.93 544.47,-23.71 544.67,-16.71"/>
</a>
</g>
</g>
<!-- 31&#45;&gt;12 -->
<g id="edge29" class="edge">
<title>31&#45;&gt;12</title>
<g id="a_edge29"><a xlink:title="include">
<path fill="none" stroke="#1414ce" d="M1295.36,-153.02C1268.66,-150.13 1238.22,-146.88 1210.5,-144 1051,-127.42 1008.82,-139.06 851.5,-108 848.26,-107.36 844.94,-106.61 841.6,-105.8"/>
<polygon fill="#1414ce" stroke="#1414ce" points="842.21,-102.34 831.65,-103.18 840.43,-109.11 842.21,-102.34"/>
</a>
</g>
</g>
<!-- 28&#45;&gt;21 -->
<g id="edge36" class="edge">
<title>28&#45;&gt;21</title>
<g id="a_edge36"><a xlink:title="include">
<path fill="none" stroke="#1414ce" d="M728.74,-297.84C822.12,-284.52 1021.58,-256.09 1116.8,-242.51"/>
<polygon fill="#1414ce" stroke="#1414ce" points="1117.38,-245.97 1126.78,-241.09 1116.39,-239.04 1117.38,-245.97"/>
</a>
</g>
</g>
<!-- 28&#45;&gt;20 -->
<g id="edge33" class="edge">
<title>28&#45;&gt;20</title>
<g id="a_edge33"><a xlink:title="include">
<path fill="none" stroke="#1414ce" d="M728.73,-304.33C788.31,-301.64 889.16,-291.07 965.5,-252 981.41,-243.86 1013.73,-211.16 1035.76,-187.76"/>
<polygon fill="#1414ce" stroke="#1414ce" points="1038.52,-189.92 1042.79,-180.23 1033.41,-185.15 1038.52,-189.92"/>
</a>
</g>
</g>
<!-- 28&#45;&gt;8 -->
<g id="edge31" class="edge">
<title>28&#45;&gt;8</title>
<g id="a_edge31"><a xlink:title="include">
<path fill="none" stroke="#1414ce" d="M669.2,-287.85C648.97,-250.52 600.82,-161.69 576.73,-117.26"/>
<polygon fill="#1414ce" stroke="#1414ce" points="579.68,-115.36 571.84,-108.23 573.53,-118.69 579.68,-115.36"/>
</a>
</g>
</g>
<!-- 28&#45;&gt;26 -->
<g id="edge35" class="edge">
<title>28&#45;&gt;26</title>
<g id="a_edge35"><a xlink:title="include">
<path fill="none" stroke="#1414ce" d="M628.39,-296.49C550.14,-283.19 399.62,-257.62 319.58,-244.02"/>
<polygon fill="#1414ce" stroke="#1414ce" points="320.15,-240.57 309.71,-242.34 318.98,-247.47 320.15,-240.57"/>
</a>
</g>
</g>
<!-- 28&#45;&gt;14 -->
<g id="edge32" class="edge">
<title>28&#45;&gt;14</title>
<g id="a_edge32"><a xlink:title="include">
<path fill="none" stroke="#1414ce" d="M628.22,-305.88C521.47,-306.73 276.83,-302.9 214.5,-252 196.25,-237.1 189.37,-210.54 186.84,-190.3"/>
<polygon fill="#1414ce" stroke="#1414ce" points="190.3,-189.72 185.85,-180.11 183.33,-190.4 190.3,-189.72"/>
</a>
</g>
</g>
<!-- 28&#45;&gt;29 -->
<g id="edge34" class="edge">
<title>28&#45;&gt;29</title>
<g id="a_edge34"><a xlink:title="include">
<path fill="none" stroke="#1414ce" d="M704.68,-287.88C718.54,-278.81 735.74,-267.55 750.71,-257.76"/>
<polygon fill="#1414ce" stroke="#1414ce" points="752.77,-260.59 759.22,-252.19 748.94,-254.74 752.77,-260.59"/>
</a>
</g>
</g>
<!-- 1 -->
<g id="node16" class="node">
<title>1</title>
<g id="a_node16"><a xlink:title="/__w/AtomVM/AtomVM/src/libAtomVM/inet.c">
<polygon fill="#bfbfbf" stroke="black" points="333,-900 0,-900 0,-864 333,-864 333,-900"/>
<text text-anchor="middle" x="166.5" y="-878.3" font-family="Times,serif" font-size="14.00">/__w/AtomVM/AtomVM/src/libAtomVM/inet.c</text>
</a>
</g>
</g>
<!-- 2 -->
<g id="node17" class="node">
<title>2</title>
<g id="a_node17"><a xlink:title="inet.h">
<polygon fill="#ffffff" stroke="black" points="195.5,-828 137.5,-828 137.5,-792 195.5,-792 195.5,-828"/>
<text text-anchor="middle" x="166.5" y="-806.3" font-family="Times,serif" font-size="14.00">inet.h</text>
</a>
</g>
</g>
<!-- 1&#45;&gt;2 -->
<g id="edge37" class="edge">
<title>1&#45;&gt;2</title>
<g id="a_edge37"><a xlink:title="include">
<path fill="none" stroke="#1414ce" d="M166.5,-863.7C166.5,-855.98 166.5,-846.71 166.5,-838.11"/>
<polygon fill="#1414ce" stroke="#1414ce" points="170,-838.1 166.5,-828.1 163,-838.1 170,-838.1"/>
</a>
</g>
</g>
<!-- 1&#45;&gt;23 -->
<g id="edge38" class="edge">
<title>1&#45;&gt;23</title>
<g id="a_edge38"><a xlink:title="include">
<path fill="none" stroke="#1414ce" d="M147.64,-863.73C122.59,-838.82 81.5,-790.14 81.5,-739 81.5,-739 81.5,-739 81.5,-665 81.5,-491.01 364.76,-458.47 474.65,-452.39"/>
<polygon fill="#1414ce" stroke="#1414ce" points="474.92,-455.88 484.73,-451.88 474.57,-448.89 474.92,-455.88"/>
</a>
</g>
</g>
<!-- 32 -->
<g id="node31" class="node">
<title>32</title>
<g id="a_node31"><a xlink:title="port.h">
<polygon fill="#ffffff" stroke="black" points="645.5,-756 585.5,-756 585.5,-720 645.5,-720 645.5,-756"/>
<text text-anchor="middle" x="615.5" y="-734.3" font-family="Times,serif" font-size="14.00">port.h</text>
</a>
</g>
</g>
<!-- 1&#45;&gt;32 -->
<g id="edge39" class="edge">
<title>1&#45;&gt;32</title>
<g id="a_edge39"><a xlink:title="include">
<path fill="none" stroke="#1414ce" d="M220.66,-863.87C312.03,-834.97 494.73,-777.19 575.51,-751.65"/>
<polygon fill="#1414ce" stroke="#1414ce" points="576.82,-754.9 585.3,-748.55 574.71,-748.23 576.82,-754.9"/>
</a>
</g>
</g>
<!-- 2&#45;&gt;3 -->
<g id="edge40" class="edge">
<title>2&#45;&gt;3</title>
<g id="a_edge40"><a xlink:title="include">
<path fill="none" stroke="#1414ce" d="M173.67,-791.7C176.93,-783.81 180.87,-774.3 184.5,-765.55"/>
<polygon fill="#1414ce" stroke="#1414ce" points="187.82,-766.68 188.41,-756.1 181.35,-764 187.82,-766.68"/>
</a>
</g>
</g>
<!-- 2&#45;&gt;26 -->
<g id="edge41" class="edge">
<title>2&#45;&gt;26</title>
<g id="a_edge41"><a xlink:title="include">
<path fill="none" stroke="#1414ce" d="M158.74,-791.6C154.4,-781.38 149.15,-768.13 145.5,-756 105.62,-623.36 81.5,-589.51 81.5,-451 81.5,-451 81.5,-451 81.5,-377 81.5,-309.97 158.87,-270.25 213.55,-250.55"/>
<polygon fill="#1414ce" stroke="#1414ce" points="214.83,-253.81 223.13,-247.21 212.53,-247.19 214.83,-253.81"/>
</a>
</g>
</g>
<!-- 23&#45;&gt;10 -->
<g id="edge43" class="edge">
<title>23&#45;&gt;10</title>
<g id="a_edge43"><a xlink:title="include">
<path fill="none" stroke="#1414ce" d="M550.27,-447.28C613.43,-443.21 748.28,-430.58 776.5,-396 786.62,-383.6 779.06,-375.79 776.5,-360 771.1,-326.7 765.75,-319.02 752.5,-288 745.39,-271.36 737.85,-269.56 733.5,-252 729.65,-236.47 726.49,-230.38 733.5,-216 740.66,-201.31 820.64,-145.59 867.62,-113.72"/>
<polygon fill="#1414ce" stroke="#1414ce" points="869.66,-116.57 875.98,-108.07 865.73,-110.77 869.66,-116.57"/>
</a>
</g>
</g>
<!-- 23&#45;&gt;27 -->
<g id="edge50" class="edge">
<title>23&#45;&gt;27</title>
<g id="a_edge50"><a xlink:title="include">
<path fill="none" stroke="#1414ce" d="M550.31,-437.28C579.19,-426.97 621.91,-411.71 656.4,-399.39"/>
<polygon fill="#1414ce" stroke="#1414ce" points="657.65,-402.66 665.89,-396 655.29,-396.07 657.65,-402.66"/>
</a>
</g>
</g>
<!-- 23&#45;&gt;7 -->
<g id="edge48" class="edge">
<title>23&#45;&gt;7</title>
<g id="a_edge48"><a xlink:title="include">
<path fill="none" stroke="#1414ce" d="M515.98,-431.95C513.86,-413.55 509.02,-383.68 498.5,-360 490.49,-341.96 478.57,-342.78 472.5,-324 457.73,-278.33 460.61,-262.5 472.5,-216 474.88,-206.7 479.26,-197.27 483.92,-189"/>
<polygon fill="#1414ce" stroke="#1414ce" points="487.04,-190.59 489.19,-180.22 481.04,-186.99 487.04,-190.59"/>
</a>
</g>
</g>
<!-- 23&#45;&gt;11 -->
<g id="edge51" class="edge">
<title>23&#45;&gt;11</title>
<g id="a_edge51"><a xlink:title="include">
<path fill="none" stroke="#1414ce" d="M537.22,-431.98C547.73,-422.2 560.34,-409.26 569.5,-396 599.57,-352.49 594.79,-334.77 619.5,-288 636.91,-255.04 642.67,-247.56 662.5,-216 668.16,-206.99 674.53,-197.25 680.26,-188.6"/>
<polygon fill="#1414ce" stroke="#1414ce" points="683.32,-190.32 685.95,-180.06 677.49,-186.44 683.32,-190.32"/>
</a>
</g>
</g>
<!-- 23&#45;&gt;6 -->
<g id="edge44" class="edge">
<title>23&#45;&gt;6</title>
<g id="a_edge44"><a xlink:title="include">
<path fill="none" stroke="#1414ce" d="M484.98,-443.05C459.04,-436.4 424.36,-422.84 407.5,-396 334.3,-279.47 435.99,-108.7 479.97,-44.58"/>
<polygon fill="#1414ce" stroke="#1414ce" points="482.92,-46.47 485.77,-36.26 477.18,-42.46 482.92,-46.47"/>
</a>
</g>
</g>
<!-- 23&#45;&gt;8 -->
<g id="edge46" class="edge">
<title>23&#45;&gt;8</title>
<g id="a_edge46"><a xlink:title="include">
<path fill="none" stroke="#1414ce" d="M484.97,-447.46C420.79,-443.67 281.58,-431.47 252.5,-396 242.36,-383.63 246.53,-374.85 252.5,-360 277.29,-298.31 406.21,-183.75 459.5,-144 477.29,-130.73 498.88,-119.05 517.69,-110.06"/>
<polygon fill="#1414ce" stroke="#1414ce" points="519.37,-113.14 526.96,-105.74 516.41,-106.79 519.37,-113.14"/>
</a>
</g>
</g>
<!-- 23&#45;&gt;26 -->
<g id="edge49" class="edge">
<title>23&#45;&gt;26</title>
<g id="a_edge49"><a xlink:title="include">
<path fill="none" stroke="#1414ce" d="M484.75,-448.25C414.52,-445.87 253.08,-436.08 219.5,-396 186.4,-356.49 221.54,-294.65 246.38,-260.25"/>
<polygon fill="#1414ce" stroke="#1414ce" points="249.26,-262.23 252.42,-252.12 243.65,-258.06 249.26,-262.23"/>
</a>
</g>
</g>
<!-- 24 -->
<g id="node24" class="node">
<title>24</title>
<g id="a_node24"><a xlink:title="sys/types.h">
<polygon fill="#ffffff" stroke="black" points="359,-396 262,-396 262,-360 359,-360 359,-396"/>
<text text-anchor="middle" x="310.5" y="-374.3" font-family="Times,serif" font-size="14.00">sys/types.h</text>
</a>
</g>
</g>
<!-- 23&#45;&gt;24 -->
<g id="edge42" class="edge">
<title>23&#45;&gt;24</title>
<g id="a_edge42"><a xlink:title="include">
<path fill="none" stroke="#1414ce" d="M484.7,-437.91C453.72,-427.43 406.56,-411.49 369.12,-398.82"/>
<polygon fill="#1414ce" stroke="#1414ce" points="369.93,-395.4 359.33,-395.51 367.69,-402.03 369.93,-395.4"/>
</a>
</g>
</g>
<!-- 25 -->
<g id="node25" class="node">
<title>25</title>
<g id="a_node25"><a xlink:title="string.h">
<polygon fill="#ffffff" stroke="black" points="489,-396 416,-396 416,-360 489,-360 489,-396"/>
<text text-anchor="middle" x="452.5" y="-374.3" font-family="Times,serif" font-size="14.00">string.h</text>
</a>
</g>
</g>
<!-- 23&#45;&gt;25 -->
<g id="edge47" class="edge">
<title>23&#45;&gt;25</title>
<g id="a_edge47"><a xlink:title="include">
<path fill="none" stroke="#1414ce" d="M501.43,-431.7C493.56,-423.22 483.94,-412.86 475.33,-403.58"/>
<polygon fill="#1414ce" stroke="#1414ce" points="477.75,-401.05 468.38,-396.1 472.62,-405.81 477.75,-401.05"/>
</a>
</g>
</g>
<!-- 23&#45;&gt;15 -->
<g id="edge52" class="edge">
<title>23&#45;&gt;15</title>
<g id="a_edge52"><a xlink:title="include">
<path fill="none" stroke="#1414ce" d="M484.82,-447.79C412.89,-444.47 243.94,-432.85 202.5,-396 116.23,-319.28 80.82,-243.42 139.5,-144 147.36,-130.69 159.89,-120.48 173.34,-112.76"/>
<polygon fill="#1414ce" stroke="#1414ce" points="175.07,-115.81 182.28,-108.04 171.8,-109.62 175.07,-115.81"/>
</a>
</g>
</g>
<!-- 23&#45;&gt;13 -->
<g id="edge45" class="edge">
<title>23&#45;&gt;13</title>
<g id="a_edge45"><a xlink:title="include">
<path fill="none" stroke="#1414ce" d="M523.87,-431.83C541.77,-384.36 595.36,-248.04 657.5,-144 663.09,-134.65 670,-124.98 676.5,-116.5"/>
<polygon fill="#1414ce" stroke="#1414ce" points="679.37,-118.5 682.79,-108.47 673.87,-114.18 679.37,-118.5"/>
</a>
</g>
</g>
<!-- 14&#45;&gt;15 -->
<g id="edge53" class="edge">
<title>14&#45;&gt;15</title>
<g id="a_edge53"><a xlink:title="include">
<path fill="none" stroke="#1414ce" d="M197.86,-143.7C203.73,-135.47 210.87,-125.48 217.34,-116.42"/>
<polygon fill="#1414ce" stroke="#1414ce" points="220.32,-118.28 223.28,-108.1 214.62,-114.21 220.32,-118.28"/>
</a>
</g>
</g>
<!-- 17 -->
<g id="node22" class="node">
<title>17</title>
<g id="a_node22"><a xlink:title="limits.h">
<polygon fill="#ffffff" stroke="black" points="362,-36 291,-36 291,0 362,0 362,-36"/>
<text text-anchor="middle" x="326.5" y="-14.3" font-family="Times,serif" font-size="14.00">limits.h</text>
</a>
</g>
</g>
<!-- 9 -->
<g id="node23" class="node">
<title>9</title>
<g id="a_node23"><a xlink:title="atom_table.h">
<polygon fill="#ffffff" stroke="black" points="956,-252 847,-252 847,-216 956,-216 956,-252"/>
<text text-anchor="middle" x="901.5" y="-230.3" font-family="Times,serif" font-size="14.00">atom_table.h</text>
</a>
</g>
</g>
<!-- 9&#45;&gt;10 -->
<g id="edge54" class="edge">
<title>9&#45;&gt;10</title>
<g id="a_edge54"><a xlink:title="include">
<path fill="none" stroke="#1414ce" d="M901.5,-215.87C901.5,-191.67 901.5,-147.21 901.5,-118.39"/>
<polygon fill="#1414ce" stroke="#1414ce" points="905,-118.19 901.5,-108.19 898,-118.19 905,-118.19"/>
</a>
</g>
</g>
<!-- 9&#45;&gt;7 -->
<g id="edge55" class="edge">
<title>9&#45;&gt;7</title>
<g id="a_edge55"><a xlink:title="include">
<path fill="none" stroke="#1414ce" d="M846.78,-218.07C843.65,-217.34 840.54,-216.64 837.5,-216 733.23,-193.99 609.01,-176.67 544.77,-168.37"/>
<polygon fill="#1414ce" stroke="#1414ce" points="544.98,-164.87 534.61,-167.07 544.09,-171.81 544.98,-164.87"/>
</a>
</g>
</g>
<!-- 9&#45;&gt;11 -->
<g id="edge56" class="edge">
<title>9&#45;&gt;11</title>
<g id="a_edge56"><a xlink:title="include">
<path fill="none" stroke="#1414ce" d="M851.86,-215.97C817.01,-204.01 770.99,-188.22 738.28,-176.99"/>
<polygon fill="#1414ce" stroke="#1414ce" points="739.18,-173.6 728.59,-173.67 736.91,-180.22 739.18,-173.6"/>
</a>
</g>
</g>
<!-- 15&#45;&gt;16 -->
<g id="edge57" class="edge">
<title>15&#45;&gt;16</title>
<g id="a_edge57"><a xlink:title="include">
<path fill="none" stroke="#1414ce" d="M235.5,-71.7C235.5,-63.98 235.5,-54.71 235.5,-46.11"/>
<polygon fill="#1414ce" stroke="#1414ce" points="239,-46.1 235.5,-36.1 232,-46.1 239,-46.1"/>
</a>
</g>
</g>
<!-- 15&#45;&gt;6 -->
<g id="edge60" class="edge">
<title>15&#45;&gt;6</title>
<g id="a_edge60"><a xlink:title="include">
<path fill="none" stroke="#1414ce" d="M298.16,-72.32C345.56,-59.71 409.58,-42.67 452.37,-31.28"/>
<polygon fill="#1414ce" stroke="#1414ce" points="453.47,-34.61 462.23,-28.65 451.67,-27.84 453.47,-34.61"/>
</a>
</g>
</g>
<!-- 15&#45;&gt;17 -->
<g id="edge58" class="edge">
<title>15&#45;&gt;17</title>
<g id="a_edge58"><a xlink:title="include">
<path fill="none" stroke="#1414ce" d="M257.99,-71.7C269.46,-62.88 283.56,-52.03 295.98,-42.47"/>
<polygon fill="#1414ce" stroke="#1414ce" points="298.47,-44.98 304.26,-36.1 294.2,-39.43 298.47,-44.98"/>
</a>
</g>
</g>
<!-- 18 -->
<g id="node34" class="node">
<title>18</title>
<g id="a_node34"><a xlink:title="inttypes.h">
<polygon fill="#ffffff" stroke="black" points="180,-36 91,-36 91,0 180,0 180,-36"/>
<text text-anchor="middle" x="135.5" y="-14.3" font-family="Times,serif" font-size="14.00">inttypes.h</text>
</a>
</g>
</g>
<!-- 15&#45;&gt;18 -->
<g id="edge59" class="edge">
<title>15&#45;&gt;18</title>
<g id="a_edge59"><a xlink:title="include">
<path fill="none" stroke="#1414ce" d="M211.04,-71.88C198.2,-62.89 182.3,-51.76 168.41,-42.03"/>
<polygon fill="#1414ce" stroke="#1414ce" points="170.26,-39.06 160.06,-36.19 166.24,-44.79 170.26,-39.06"/>
</a>
</g>
</g>
<!-- 5&#45;&gt;7 -->
<g id="edge62" class="edge">
<title>5&#45;&gt;7</title>
<g id="a_edge62"><a xlink:title="include">
<path fill="none" stroke="#1414ce" d="M1052.81,-577.83C957.44,-552.68 775.41,-495.06 650.5,-396 578.67,-339.04 531.11,-237.45 511.57,-189.47"/>
<polygon fill="#1414ce" stroke="#1414ce" points="514.78,-188.08 507.82,-180.09 508.28,-190.67 514.78,-188.08"/>
</a>
</g>
</g>
<!-- 5&#45;&gt;21 -->
<g id="edge69" class="edge">
<title>5&#45;&gt;21</title>
<g id="a_edge69"><a xlink:title="include">
<path fill="none" stroke="#1414ce" d="M1130.45,-575.76C1137.91,-565.81 1146.72,-552.77 1152.5,-540 1169.34,-502.78 1175.5,-491.86 1175.5,-451 1175.5,-451 1175.5,-451 1175.5,-377 1175.5,-336.96 1173.09,-290.63 1171.32,-262.07"/>
<polygon fill="#1414ce" stroke="#1414ce" points="1174.81,-261.8 1170.69,-252.04 1167.83,-262.24 1174.81,-261.8"/>
</a>
</g>
</g>
<!-- 5&#45;&gt;20 -->
<g id="edge66" class="edge">
<title>5&#45;&gt;20</title>
<g id="a_edge66"><a xlink:title="include">
<path fill="none" stroke="#1414ce" d="M1146.83,-575.96C1183.54,-552.82 1240.5,-507.79 1240.5,-451 1240.5,-451 1240.5,-451 1240.5,-305 1240.5,-264.55 1248.57,-246.05 1221.5,-216 1212.84,-206.39 1140.77,-185.39 1095.41,-172.9"/>
<polygon fill="#1414ce" stroke="#1414ce" points="1096.18,-169.48 1085.61,-170.22 1094.33,-176.24 1096.18,-169.48"/>
</a>
</g>
</g>
<!-- 5&#45;&gt;6 -->
<g id="edge61" class="edge">
<title>5&#45;&gt;6</title>
<g id="a_edge61"><a xlink:title="include">
<path fill="none" stroke="#1414ce" d="M1180.02,-589.69C1238.55,-584.65 1326.66,-571.97 1396.5,-540 1454.31,-513.54 1508.5,-514.58 1508.5,-451 1508.5,-451 1508.5,-451 1508.5,-161 1508.5,-67.35 1408.23,-95.2 1317.5,-72 1169.72,-34.21 696.23,-22.56 545.24,-19.76"/>
<polygon fill="#1414ce" stroke="#1414ce" points="544.99,-16.25 534.93,-19.57 544.87,-23.25 544.99,-16.25"/>
</a>
</g>
</g>
<!-- 5&#45;&gt;31 -->
<g id="edge72" class="edge">
<title>5&#45;&gt;31</title>
<g id="a_edge72"><a xlink:title="include">
<path fill="none" stroke="#1414ce" d="M1180.2,-581.02C1282.12,-560.02 1470.5,-512.83 1470.5,-451 1470.5,-451 1470.5,-451 1470.5,-305 1470.5,-264.55 1474.55,-249.24 1451.5,-216 1442.87,-203.56 1430.28,-193.38 1417.5,-185.39"/>
<polygon fill="#1414ce" stroke="#1414ce" points="1419.06,-182.25 1408.67,-180.21 1415.52,-188.29 1419.06,-182.25"/>
</a>
</g>
</g>
<!-- 5&#45;&gt;23 -->
<g id="edge70" class="edge">
<title>5&#45;&gt;23</title>
<g id="a_edge70"><a xlink:title="include">
<path fill="none" stroke="#1414ce" d="M1052.96,-577.94C930.29,-548.86 663.78,-485.68 560.03,-461.08"/>
<polygon fill="#1414ce" stroke="#1414ce" points="560.76,-457.66 550.22,-458.76 559.14,-464.47 560.76,-457.66"/>
</a>
</g>
</g>
<!-- 5&#45;&gt;14 -->
<g id="edge64" class="edge">
<title>5&#45;&gt;14</title>
<g id="a_edge64"><a xlink:title="include">
<path fill="none" stroke="#1414ce" d="M1052.74,-586.36C977.8,-578.01 849.91,-562.06 741.5,-540 498.52,-490.56 410.9,-530.37 202.5,-396 167.73,-373.58 157.42,-362.96 143.5,-324 126.87,-277.46 151.23,-221.2 169.22,-189.02"/>
<polygon fill="#1414ce" stroke="#1414ce" points="172.33,-190.63 174.32,-180.22 166.27,-187.12 172.33,-190.63"/>
</a>
</g>
</g>
<!-- 5&#45;&gt;9 -->
<g id="edge63" class="edge">
<title>5&#45;&gt;9</title>
<g id="a_edge63"><a xlink:title="include">
<path fill="none" stroke="#1414ce" d="M1102.34,-575.85C1094.81,-565.93 1086,-552.89 1080.5,-540 1064.62,-502.8 1061.5,-491.45 1061.5,-451 1061.5,-451 1061.5,-451 1061.5,-377 1061.5,-318.85 1001.66,-278.72 955.17,-256.31"/>
<polygon fill="#1414ce" stroke="#1414ce" points="956.61,-253.12 946.07,-252.07 953.65,-259.47 956.61,-253.12"/>
</a>
</g>
</g>
<!-- 5&#45;&gt;22 -->
<g id="edge68" class="edge">
<title>5&#45;&gt;22</title>
<g id="a_edge68"><a xlink:title="include">
<path fill="none" stroke="#1414ce" d="M1180.1,-581.82C1206.43,-574.16 1235.25,-561.35 1254.5,-540 1281.94,-509.57 1278.5,-491.97 1278.5,-451 1278.5,-451 1278.5,-451 1278.5,-305 1278.5,-264.03 1278.73,-249.03 1254.5,-216 1248.26,-207.49 1228.73,-194.86 1210.19,-184.07"/>
<polygon fill="#1414ce" stroke="#1414ce" points="1211.93,-181.03 1201.51,-179.1 1208.45,-187.11 1211.93,-181.03"/>
</a>
</g>
</g>
<!-- 5&#45;&gt;30 -->
<g id="edge71" class="edge">
<title>5&#45;&gt;30</title>
<g id="a_edge71"><a xlink:title="include">
<path fill="none" stroke="#1414ce" d="M1180.4,-588.22C1217.5,-582.25 1262.65,-569.04 1292.5,-540 1302.91,-529.87 1363.22,-334.38 1385.36,-261.81"/>
<polygon fill="#1414ce" stroke="#1414ce" points="1388.77,-262.62 1388.34,-252.03 1382.07,-260.58 1388.77,-262.62"/>
</a>
</g>
</g>
<!-- 5&#45;&gt;29 -->
<g id="edge67" class="edge">
<title>5&#45;&gt;29</title>
<g id="a_edge67"><a xlink:title="include">
<path fill="none" stroke="#1414ce" d="M1067.62,-575.9C1017.71,-554.94 947.5,-514.23 947.5,-451 947.5,-451 947.5,-451 947.5,-377 947.5,-317.74 885.45,-277.44 838.15,-255.33"/>
<polygon fill="#1414ce" stroke="#1414ce" points="839.47,-252.09 828.91,-251.15 836.58,-258.46 839.47,-252.09"/>
</a>
</g>
</g>
<!-- 19 -->
<g id="node33" class="node">
<title>19</title>
<g id="a_node33"><a xlink:title="ets.h">
<polygon fill="#ffffff" stroke="black" points="1143.5,-540 1089.5,-540 1089.5,-504 1143.5,-504 1143.5,-540"/>
<text text-anchor="middle" x="1116.5" y="-518.3" font-family="Times,serif" font-size="14.00">ets.h</text>
</a>
</g>
</g>
<!-- 5&#45;&gt;19 -->
<g id="edge65" class="edge">
<title>5&#45;&gt;19</title>
<g id="a_edge65"><a xlink:title="include">
<path fill="none" stroke="#1414ce" d="M1116.5,-575.7C1116.5,-567.98 1116.5,-558.71 1116.5,-550.11"/>
<polygon fill="#1414ce" stroke="#1414ce" points="1120,-550.1 1116.5,-540.1 1113,-550.1 1120,-550.1"/>
</a>
</g>
</g>
<!-- 22&#45;&gt;10 -->
<g id="edge73" class="edge">
<title>22&#45;&gt;10</title>
<g id="a_edge73"><a xlink:title="include">
<path fill="none" stroke="#1414ce" d="M1141.4,-148.74C1136.78,-147.04 1132.04,-145.4 1127.5,-144 1068.61,-125.81 999.43,-110.44 953.26,-101.01"/>
<polygon fill="#1414ce" stroke="#1414ce" points="953.7,-97.53 943.2,-98.98 952.31,-104.39 953.7,-97.53"/>
</a>
</g>
</g>
<!-- 30&#45;&gt;10 -->
<g id="edge74" class="edge">
<title>30&#45;&gt;10</title>
<g id="a_edge74"><a xlink:title="include">
<path fill="none" stroke="#1414ce" d="M1344.38,-218.89C1316.66,-209.84 1281.99,-196.67 1253.5,-180 1231.99,-167.41 1233.12,-154.47 1210.5,-144 1126.04,-104.91 1016.56,-94.4 953.16,-91.72"/>
<polygon fill="#1414ce" stroke="#1414ce" points="953.13,-88.22 943.01,-91.34 952.87,-95.21 953.13,-88.22"/>
</a>
</g>
</g>
<!-- 30&#45;&gt;20 -->
<g id="edge76" class="edge">
<title>30&#45;&gt;20</title>
<g id="a_edge76"><a xlink:title="include">
<path fill="none" stroke="#1414ce" d="M1344.36,-223.41C1291.83,-213.07 1206.16,-195.94 1132.5,-180 1120.44,-177.39 1107.31,-174.42 1095.5,-171.7"/>
<polygon fill="#1414ce" stroke="#1414ce" points="1096.06,-168.23 1085.53,-169.38 1094.48,-175.05 1096.06,-168.23"/>
</a>
</g>
</g>
<!-- 30&#45;&gt;6 -->
<g id="edge75" class="edge">
<title>30&#45;&gt;6</title>
<g id="a_edge75"><a xlink:title="include">
<path fill="none" stroke="#1414ce" d="M1353,-215.98C1332.38,-206.56 1307.34,-193.96 1286.5,-180 1266.35,-166.5 1267,-155.21 1245.5,-144 1121.52,-79.34 687.97,-35.84 544.79,-22.97"/>
<polygon fill="#1414ce" stroke="#1414ce" points="544.86,-19.47 534.59,-22.06 544.24,-26.44 544.86,-19.47"/>
</a>
</g>
</g>
<!-- 29&#45;&gt;10 -->
<g id="edge77" class="edge">
<title>29&#45;&gt;10</title>
<g id="a_edge77"><a xlink:title="include">
<path fill="none" stroke="#1414ce" d="M799.49,-215.87C819.78,-191.03 857.51,-144.85 880.96,-116.14"/>
<polygon fill="#1414ce" stroke="#1414ce" points="883.84,-118.15 887.46,-108.19 878.42,-113.72 883.84,-118.15"/>
</a>
</g>
</g>
<!-- 29&#45;&gt;11 -->
<g id="edge80" class="edge">
<title>29&#45;&gt;11</title>
<g id="a_edge80"><a xlink:title="include">
<path fill="none" stroke="#1414ce" d="M763.75,-215.7C752.66,-206.88 739.03,-196.03 727.01,-186.47"/>
<polygon fill="#1414ce" stroke="#1414ce" points="729.01,-183.59 719,-180.1 724.65,-189.07 729.01,-183.59"/>
</a>
</g>
</g>
<!-- 29&#45;&gt;20 -->
<g id="edge78" class="edge">
<title>29&#45;&gt;20</title>
<g id="a_edge78"><a xlink:title="include">
<path fill="none" stroke="#1414ce" d="M828.52,-218.91C831.89,-217.89 835.24,-216.91 838.5,-216 902.24,-198.13 977.38,-180.82 1021.3,-171.08"/>
<polygon fill="#1414ce" stroke="#1414ce" points="1022.23,-174.46 1031.24,-168.89 1020.72,-167.62 1022.23,-174.46"/>
</a>
</g>
</g>
<!-- 29&#45;&gt;15 -->
<g id="edge79" class="edge">
<title>29&#45;&gt;15</title>
<g id="a_edge79"><a xlink:title="include">
<path fill="none" stroke="#1414ce" d="M742.4,-229C679.4,-222.49 558.84,-207.46 459.5,-180 395.67,-162.36 325.17,-132.52 280.62,-112.3"/>
<polygon fill="#1414ce" stroke="#1414ce" points="282.07,-109.12 271.52,-108.14 279.16,-115.49 282.07,-109.12"/>
</a>
</g>
</g>
<!-- 32&#45;&gt;33 -->
<g id="edge82" class="edge">
<title>32&#45;&gt;33</title>
<g id="a_edge82"><a xlink:title="include">
<path fill="none" stroke="#1414ce" d="M645.71,-732.78C723.57,-721.9 932.73,-692.68 1044.21,-677.1"/>
<polygon fill="#1414ce" stroke="#1414ce" points="1044.94,-680.53 1054.36,-675.68 1043.97,-673.6 1044.94,-680.53"/>
</a>
</g>
</g>
<!-- 32&#45;&gt;4 -->
<g id="edge81" class="edge">
<title>32&#45;&gt;4</title>
<g id="a_edge81"><a xlink:title="include">
<path fill="none" stroke="#1414ce" d="M645.54,-728.56C687.01,-716.9 762.41,-695.7 812.98,-681.48"/>
<polygon fill="#1414ce" stroke="#1414ce" points="814.06,-684.82 822.74,-678.74 812.17,-678.08 814.06,-684.82"/>
</a>
</g>
</g>
<!-- 32&#45;&gt;26 -->
<g id="edge84" class="edge">
<title>32&#45;&gt;26</title>
<g id="a_edge84"><a xlink:title="include">
<path fill="none" stroke="#1414ce" d="M585.21,-723.58C504.46,-685.89 284.63,-570.33 202.5,-396 194.37,-378.75 201.52,-302.21 208.5,-288 214.05,-276.71 223.12,-266.68 232.46,-258.47"/>
<polygon fill="#1414ce" stroke="#1414ce" points="234.81,-261.07 240.3,-252.01 230.36,-255.67 234.81,-261.07"/>
</a>
</g>
</g>
<!-- 32&#45;&gt;23 -->
<g id="edge85" class="edge">
<title>32&#45;&gt;23</title>
<g id="a_edge85"><a xlink:title="include">
<path fill="none" stroke="#1414ce" d="M609.66,-719.97C593.26,-672.09 546.65,-536.06 526.72,-477.9"/>
<polygon fill="#1414ce" stroke="#1414ce" points="529.98,-476.63 523.43,-468.31 523.36,-478.9 529.98,-476.63"/>
</a>
</g>
</g>
<!-- 32&#45;&gt;5 -->
<g id="edge83" class="edge">
<title>32&#45;&gt;5</title>
<g id="a_edge83"><a xlink:title="include">
<path fill="none" stroke="#1414ce" d="M645.87,-734.09C700.68,-728.3 819.38,-713.3 915.5,-684 972.78,-666.54 1035.36,-637.04 1075.22,-616.83"/>
<polygon fill="#1414ce" stroke="#1414ce" points="1077.05,-619.83 1084.36,-612.16 1073.86,-613.59 1077.05,-619.83"/>
</a>
</g>
</g>
<!-- 19&#45;&gt;21 -->
<g id="edge87" class="edge">
<title>19&#45;&gt;21</title>
<g id="a_edge87"><a xlink:title="include">
<path fill="none" stroke="#1414ce" d="M1119.66,-503.97C1128.51,-456.19 1153.63,-320.62 1164.45,-262.27"/>
<polygon fill="#1414ce" stroke="#1414ce" points="1167.91,-262.78 1166.29,-252.31 1161.03,-261.5 1167.91,-262.78"/>
</a>
</g>
</g>
<!-- 19&#45;&gt;20 -->
<g id="edge86" class="edge">
<title>19&#45;&gt;20</title>
<g id="a_edge86"><a xlink:title="include">
<path fill="none" stroke="#1414ce" d="M1115.1,-503.97C1111.06,-457.44 1098.16,-324.36 1074.5,-216 1072.6,-207.32 1069.99,-198 1067.43,-189.63"/>
<polygon fill="#1414ce" stroke="#1414ce" points="1070.73,-188.48 1064.38,-180.01 1064.06,-190.6 1070.73,-188.48"/>
</a>
</g>
</g>
<!-- 19&#45;&gt;23 -->
<g id="edge88" class="edge">
<title>19&#45;&gt;23</title>
<g id="a_edge88"><a xlink:title="include">
<path fill="none" stroke="#1414ce" d="M1089.21,-517.81C994.1,-506.7 676.81,-469.62 560.61,-456.04"/>
<polygon fill="#1414ce" stroke="#1414ce" points="560.67,-452.52 550.33,-454.84 559.86,-459.47 560.67,-452.52"/>
</a>
</g>
</g>
</g>
</svg>
