<?xml version="1.0" encoding="UTF-8" standalone="no"?>
<!DOCTYPE svg PUBLIC "-//W3C//DTD SVG 1.1//EN"
 "http://www.w3.org/Graphics/SVG/1.1/DTD/svg11.dtd">
<!-- Generated by graphviz version 2.43.0 (0)
 -->
<!-- Title: %3 Pages: 1 -->
<svg width="1040pt" height="548pt"
 viewBox="0.00 0.00 1040.00 548.00" xmlns="http://www.w3.org/2000/svg" xmlns:xlink="http://www.w3.org/1999/xlink">
<g id="graph0" class="graph" transform="scale(1 1) rotate(0) translate(4 544)">
<title>%3</title>
<polygon fill="transparent" stroke="transparent" points="-4,4 -4,-544 1036,-544 1036,4 -4,4"/>
<!-- 9 -->
<g id="node1" class="node">
<title>9</title>
<g id="a_node1"><a xlink:title="atom.h">
<polygon fill="#ffffff" stroke="black" points="834,-396 768,-396 768,-360 834,-360 834,-396"/>
<text text-anchor="middle" x="801" y="-374.3" font-family="Times,serif" font-size="14.00">atom.h</text>
</a>
</g>
</g>
<!-- 5 -->
<g id="node20" class="node">
<title>5</title>
<g id="a_node20"><a xlink:title="stdint.h">
<polygon fill="#ffffff" stroke="black" points="928,-36 856,-36 856,0 928,0 928,-36"/>
<text text-anchor="middle" x="892" y="-14.3" font-family="Times,serif" font-size="14.00">stdint.h</text>
</a>
</g>
</g>
<!-- 9&#45;&gt;5 -->
<g id="edge1" class="edge">
<title>9&#45;&gt;5</title>
<g id="a_edge1"><a xlink:title="include">
<path fill="none" stroke="#1414ce" d="M821.65,-359.58C848.5,-334.87 892,-286.83 892,-235 892,-235 892,-235 892,-161 892,-121 892,-74.65 892,-46.08"/>
<polygon fill="#1414ce" stroke="#1414ce" points="895.5,-46.05 892,-36.05 888.5,-46.05 895.5,-46.05"/>
</a>
</g>
</g>
<!-- 7 -->
<g id="node22" class="node">
<title>7</title>
<g id="a_node22"><a xlink:title="stdlib.h">
<polygon fill="#ffffff" stroke="black" points="794.5,-108 723.5,-108 723.5,-72 794.5,-72 794.5,-108"/>
<text text-anchor="middle" x="759" y="-86.3" font-family="Times,serif" font-size="14.00">stdlib.h</text>
</a>
</g>
</g>
<!-- 9&#45;&gt;7 -->
<g id="edge2" class="edge">
<title>9&#45;&gt;7</title>
<g id="a_edge2"><a xlink:title="include">
<path fill="none" stroke="#1414ce" d="M813.31,-359.78C819.65,-349.84 826.73,-336.8 830,-324 849.82,-246.49 865.86,-215.51 830,-144 823.9,-131.84 813.54,-121.75 802.59,-113.76"/>
<polygon fill="#1414ce" stroke="#1414ce" points="804.41,-110.76 794.17,-108.06 800.49,-116.56 804.41,-110.76"/>
</a>
</g>
</g>
<!-- 15 -->
<g id="node2" class="node">
<title>15</title>
<g id="a_node2"><a xlink:title="erl_nif.h">
<polygon fill="#ffffff" stroke="black" points="140,-180 66,-180 66,-144 140,-144 140,-180"/>
<text text-anchor="middle" x="103" y="-158.3" font-family="Times,serif" font-size="14.00">erl_nif.h</text>
</a>
</g>
</g>
<!-- 16 -->
<g id="node13" class="node">
<title>16</title>
<g id="a_node13"><a xlink:title="term_typedef.h">
<polygon fill="#ffffff" stroke="black" points="177.5,-108 52.5,-108 52.5,-72 177.5,-72 177.5,-108"/>
<text text-anchor="middle" x="115" y="-86.3" font-family="Times,serif" font-size="14.00">term_typedef.h</text>
</a>
</g>
</g>
<!-- 15&#45;&gt;16 -->
<g id="edge3" class="edge">
<title>15&#45;&gt;16</title>
<g id="a_edge3"><a xlink:title="include">
<path fill="none" stroke="#1414ce" d="M105.97,-143.7C107.29,-135.98 108.88,-126.71 110.35,-118.11"/>
<polygon fill="#1414ce" stroke="#1414ce" points="113.83,-118.55 112.07,-108.1 106.93,-117.37 113.83,-118.55"/>
</a>
</g>
</g>
<!-- 10 -->
<g id="node3" class="node">
<title>10</title>
<g id="a_node3"><a xlink:title="intn.h">
<polygon fill="#ffffff" stroke="black" points="304.5,-396 245.5,-396 245.5,-360 304.5,-360 304.5,-396"/>
<text text-anchor="middle" x="275" y="-374.3" font-family="Times,serif" font-size="14.00">intn.h</text>
</a>
</g>
</g>
<!-- 11 -->
<g id="node14" class="node">
<title>11</title>
<g id="a_node14"><a xlink:title="utils.h">
<polygon fill="#ffffff" stroke="black" points="334,-180 272,-180 272,-144 334,-144 334,-180"/>
<text text-anchor="middle" x="303" y="-158.3" font-family="Times,serif" font-size="14.00">utils.h</text>
</a>
</g>
</g>
<!-- 10&#45;&gt;11 -->
<g id="edge6" class="edge">
<title>10&#45;&gt;11</title>
<g id="a_edge6"><a xlink:title="include">
<path fill="none" stroke="#1414ce" d="M275.76,-359.97C277.26,-330.48 281.24,-268.04 290,-216 291.44,-207.46 293.51,-198.26 295.57,-189.96"/>
<polygon fill="#1414ce" stroke="#1414ce" points="299.02,-190.61 298.14,-180.05 292.24,-188.86 299.02,-190.61"/>
</a>
</g>
</g>
<!-- 4 -->
<g id="node18" class="node">
<title>4</title>
<g id="a_node18"><a xlink:title="stdbool.h">
<polygon fill="#ffffff" stroke="black" points="575.5,-108 492.5,-108 492.5,-72 575.5,-72 575.5,-108"/>
<text text-anchor="middle" x="534" y="-86.3" font-family="Times,serif" font-size="14.00">stdbool.h</text>
</a>
</g>
</g>
<!-- 10&#45;&gt;4 -->
<g id="edge4" class="edge">
<title>10&#45;&gt;4</title>
<g id="a_edge4"><a xlink:title="include">
<path fill="none" stroke="#1414ce" d="M281.43,-359.57C293.54,-328.35 322.03,-261.9 361,-216 398.41,-171.93 454.46,-135.16 492.55,-113.15"/>
<polygon fill="#1414ce" stroke="#1414ce" points="494.39,-116.13 501.35,-108.14 490.92,-110.05 494.39,-116.13"/>
</a>
</g>
</g>
<!-- 8 -->
<g id="node23" class="node">
<title>8</title>
<g id="a_node23"><a xlink:title="string.h">
<polygon fill="#ffffff" stroke="black" points="237.5,-324 164.5,-324 164.5,-288 237.5,-288 237.5,-324"/>
<text text-anchor="middle" x="201" y="-302.3" font-family="Times,serif" font-size="14.00">string.h</text>
</a>
</g>
</g>
<!-- 10&#45;&gt;8 -->
<g id="edge5" class="edge">
<title>10&#45;&gt;8</title>
<g id="a_edge5"><a xlink:title="include">
<path fill="none" stroke="#1414ce" d="M256.71,-359.7C247.57,-351.05 236.36,-340.45 226.4,-331.03"/>
<polygon fill="#1414ce" stroke="#1414ce" points="228.75,-328.43 219.08,-324.1 223.94,-333.52 228.75,-328.43"/>
</a>
</g>
</g>
<!-- 20 -->
<g id="node4" class="node">
<title>20</title>
<g id="a_node4"><a xlink:title="list.h">
<polygon fill="#ffffff" stroke="black" points="636,-180 582,-180 582,-144 636,-144 636,-180"/>
<text text-anchor="middle" x="609" y="-158.3" font-family="Times,serif" font-size="14.00">list.h</text>
</a>
</g>
</g>
<!-- 20&#45;&gt;4 -->
<g id="edge7" class="edge">
<title>20&#45;&gt;4</title>
<g id="a_edge7"><a xlink:title="include">
<path fill="none" stroke="#1414ce" d="M590.46,-143.7C581.2,-135.05 569.84,-124.45 559.74,-115.03"/>
<polygon fill="#1414ce" stroke="#1414ce" points="562.02,-112.37 552.33,-108.1 557.25,-117.49 562.02,-112.37"/>
</a>
</g>
</g>
<!-- 22 -->
<g id="node5" class="node">
<title>22</title>
<g id="a_node5"><a xlink:title="mailbox.h">
<polygon fill="#ffffff" stroke="black" points="456,-252 370,-252 370,-216 456,-216 456,-252"/>
<text text-anchor="middle" x="413" y="-230.3" font-family="Times,serif" font-size="14.00">mailbox.h</text>
</a>
</g>
</g>
<!-- 22&#45;&gt;20 -->
<g id="edge9" class="edge">
<title>22&#45;&gt;20</title>
<g id="a_edge9"><a xlink:title="include">
<path fill="none" stroke="#1414ce" d="M456.22,-218.98C494.1,-206.65 546.17,-189.59 572.02,-180.05"/>
<polygon fill="#1414ce" stroke="#1414ce" points="573.56,-183.2 581.63,-176.34 571.04,-176.67 573.56,-183.2"/>
</a>
</g>
</g>
<!-- 22&#45;&gt;16 -->
<g id="edge10" class="edge">
<title>22&#45;&gt;16</title>
<g id="a_edge10"><a xlink:title="include">
<path fill="none" stroke="#1414ce" d="M369.73,-220.27C339.26,-210.69 297.85,-196.43 263,-180 221.96,-160.65 177.71,-133.07 148.4,-113.76"/>
<polygon fill="#1414ce" stroke="#1414ce" points="150.07,-110.67 139.8,-108.05 146.2,-116.5 150.07,-110.67"/>
</a>
</g>
</g>
<!-- 22&#45;&gt;11 -->
<g id="edge11" class="edge">
<title>22&#45;&gt;11</title>
<g id="a_edge11"><a xlink:title="include">
<path fill="none" stroke="#1414ce" d="M386.09,-215.88C371.84,-206.81 354.15,-195.55 338.76,-185.76"/>
<polygon fill="#1414ce" stroke="#1414ce" points="340.33,-182.61 330.01,-180.19 336.57,-188.51 340.33,-182.61"/>
</a>
</g>
</g>
<!-- 22&#45;&gt;4 -->
<g id="edge8" class="edge">
<title>22&#45;&gt;4</title>
<g id="a_edge8"><a xlink:title="include">
<path fill="none" stroke="#1414ce" d="M427.6,-215.87C448.76,-191.03 488.12,-144.85 512.58,-116.14"/>
<polygon fill="#1414ce" stroke="#1414ce" points="515.53,-118.07 519.35,-108.19 510.2,-113.53 515.53,-118.07"/>
</a>
</g>
</g>
<!-- 14 -->
<g id="node6" class="node">
<title>14</title>
<g id="a_node6"><a xlink:title="memory.h">
<polygon fill="#ffffff" stroke="black" points="238,-252 152,-252 152,-216 238,-216 238,-252"/>
<text text-anchor="middle" x="195" y="-230.3" font-family="Times,serif" font-size="14.00">memory.h</text>
</a>
</g>
</g>
<!-- 14&#45;&gt;15 -->
<g id="edge14" class="edge">
<title>14&#45;&gt;15</title>
<g id="a_edge14"><a xlink:title="include">
<path fill="none" stroke="#1414ce" d="M172.26,-215.7C160.56,-206.8 146.14,-195.82 133.49,-186.2"/>
<polygon fill="#1414ce" stroke="#1414ce" points="135.56,-183.37 125.48,-180.1 131.32,-188.94 135.56,-183.37"/>
</a>
</g>
</g>
<!-- 14&#45;&gt;16 -->
<g id="edge15" class="edge">
<title>14&#45;&gt;16</title>
<g id="a_edge15"><a xlink:title="include">
<path fill="none" stroke="#1414ce" d="M186.65,-215.68C177.77,-197.56 163.09,-168.4 149,-144 143.81,-135.01 137.79,-125.39 132.27,-116.85"/>
<polygon fill="#1414ce" stroke="#1414ce" points="135.15,-114.87 126.75,-108.41 129.29,-118.7 135.15,-114.87"/>
</a>
</g>
</g>
<!-- 14&#45;&gt;11 -->
<g id="edge16" class="edge">
<title>14&#45;&gt;11</title>
<g id="a_edge16"><a xlink:title="include">
<path fill="none" stroke="#1414ce" d="M221.42,-215.88C235.41,-206.81 252.78,-195.55 267.89,-185.76"/>
<polygon fill="#1414ce" stroke="#1414ce" points="269.99,-188.57 276.48,-180.19 266.18,-182.69 269.99,-188.57"/>
</a>
</g>
</g>
<!-- 14&#45;&gt;5 -->
<g id="edge12" class="edge">
<title>14&#45;&gt;5</title>
<g id="a_edge12"><a xlink:title="include">
<path fill="none" stroke="#1414ce" d="M192.25,-216C187.94,-182.71 183.9,-109 225,-72 270.96,-30.63 701.87,-21.41 845.6,-19.48"/>
<polygon fill="#1414ce" stroke="#1414ce" points="845.89,-22.98 855.84,-19.35 845.8,-15.98 845.89,-22.98"/>
</a>
</g>
</g>
<!-- 14&#45;&gt;7 -->
<g id="edge13" class="edge">
<title>14&#45;&gt;7</title>
<g id="a_edge13"><a xlink:title="include">
<path fill="none" stroke="#1414ce" d="M238.38,-218.79C296.42,-200.08 402.73,-166.9 495,-144 570.93,-125.16 660.4,-108.3 713.26,-98.89"/>
<polygon fill="#1414ce" stroke="#1414ce" points="714.09,-102.29 723.33,-97.1 712.87,-95.4 714.09,-102.29"/>
</a>
</g>
</g>
<!-- 1 -->
<g id="node7" class="node">
<title>1</title>
<g id="a_node7"><a xlink:title="/__w/AtomVM/AtomVM/src/libAtomVM/overflow_helpers.h">
<polygon fill="#bfbfbf" stroke="black" points="1032,-540 604,-540 604,-504 1032,-504 1032,-540"/>
<text text-anchor="middle" x="818" y="-518.3" font-family="Times,serif" font-size="14.00">/__w/AtomVM/AtomVM/src/libAtomVM/overflow_helpers.h</text>
</a>
</g>
</g>
<!-- 2 -->
<g id="node12" class="node">
<title>2</title>
<g id="a_node12"><a xlink:title="term.h">
<polygon fill="#ffffff" stroke="black" points="652.5,-468 587.5,-468 587.5,-432 652.5,-432 652.5,-468"/>
<text text-anchor="middle" x="620" y="-446.3" font-family="Times,serif" font-size="14.00">term.h</text>
</a>
</g>
</g>
<!-- 1&#45;&gt;2 -->
<g id="edge17" class="edge">
<title>1&#45;&gt;2</title>
<g id="a_edge17"><a xlink:title="include">
<path fill="none" stroke="#1414ce" d="M769.82,-503.97C736.97,-492.35 693.88,-477.12 662.35,-465.97"/>
<polygon fill="#1414ce" stroke="#1414ce" points="663.14,-462.54 652.55,-462.51 660.81,-469.14 663.14,-462.54"/>
</a>
</g>
</g>
<!-- 1&#45;&gt;5 -->
<g id="edge18" class="edge">
<title>1&#45;&gt;5</title>
<g id="a_edge18"><a xlink:title="include">
<path fill="none" stroke="#1414ce" d="M882.56,-503.98C940.34,-484.38 1016,-445.94 1016,-379 1016,-379 1016,-379 1016,-161 1016,-108.43 967.18,-65.93 930.81,-41.55"/>
<polygon fill="#1414ce" stroke="#1414ce" points="932.63,-38.56 922.33,-36.04 928.81,-44.43 932.63,-38.56"/>
</a>
</g>
</g>
<!-- 19 -->
<g id="node8" class="node">
<title>19</title>
<g id="a_node8"><a xlink:title="refc_binary.h">
<polygon fill="#ffffff" stroke="black" points="674,-396 566,-396 566,-360 674,-360 674,-396"/>
<text text-anchor="middle" x="620" y="-374.3" font-family="Times,serif" font-size="14.00">refc_binary.h</text>
</a>
</g>
</g>
<!-- 19&#45;&gt;20 -->
<g id="edge21" class="edge">
<title>19&#45;&gt;20</title>
<g id="a_edge21"><a xlink:title="include">
<path fill="none" stroke="#1414ce" d="M619.12,-359.85C617.22,-322.83 612.71,-235.18 610.41,-190.39"/>
<polygon fill="#1414ce" stroke="#1414ce" points="613.89,-190.04 609.89,-180.23 606.9,-190.4 613.89,-190.04"/>
</a>
</g>
</g>
<!-- 21 -->
<g id="node9" class="node">
<title>21</title>
<g id="a_node9"><a xlink:title="resources.h">
<polygon fill="#ffffff" stroke="black" points="567,-324 467,-324 467,-288 567,-288 567,-324"/>
<text text-anchor="middle" x="517" y="-302.3" font-family="Times,serif" font-size="14.00">resources.h</text>
</a>
</g>
</g>
<!-- 19&#45;&gt;21 -->
<g id="edge22" class="edge">
<title>19&#45;&gt;21</title>
<g id="a_edge22"><a xlink:title="include">
<path fill="none" stroke="#1414ce" d="M594.8,-359.88C581.59,-350.89 565.21,-339.76 550.89,-330.03"/>
<polygon fill="#1414ce" stroke="#1414ce" points="552.53,-326.92 542.29,-324.19 548.6,-332.71 552.53,-326.92"/>
</a>
</g>
</g>
<!-- 19&#45;&gt;4 -->
<g id="edge19" class="edge">
<title>19&#45;&gt;4</title>
<g id="a_edge19"><a xlink:title="include">
<path fill="none" stroke="#1414ce" d="M628.58,-359.86C647.73,-318.92 688.95,-213.68 645,-144 631.8,-123.07 607.82,-110.23 585.51,-102.45"/>
<polygon fill="#1414ce" stroke="#1414ce" points="586.35,-99.04 575.76,-99.31 584.21,-105.7 586.35,-99.04"/>
</a>
</g>
</g>
<!-- 19&#45;&gt;7 -->
<g id="edge20" class="edge">
<title>19&#45;&gt;7</title>
<g id="a_edge20"><a xlink:title="include">
<path fill="none" stroke="#1414ce" d="M636.1,-359.81C644.84,-349.87 655.37,-336.83 663,-324 704.59,-254.01 736.44,-162.66 750.74,-117.99"/>
<polygon fill="#1414ce" stroke="#1414ce" points="754.16,-118.76 753.83,-108.18 747.48,-116.66 754.16,-118.76"/>
</a>
</g>
</g>
<!-- 21&#45;&gt;15 -->
<g id="edge24" class="edge">
<title>21&#45;&gt;15</title>
<g id="a_edge24"><a xlink:title="include">
<path fill="none" stroke="#1414ce" d="M466.95,-303.78C377.09,-300.64 193.13,-289.68 143,-252 123.28,-237.18 113.05,-210.42 107.9,-190.1"/>
<polygon fill="#1414ce" stroke="#1414ce" points="111.27,-189.14 105.64,-180.16 104.44,-190.69 111.27,-189.14"/>
</a>
</g>
</g>
<!-- 21&#45;&gt;20 -->
<g id="edge25" class="edge">
<title>21&#45;&gt;20</title>
<g id="a_edge25"><a xlink:title="include">
<path fill="none" stroke="#1414ce" d="M537.03,-287.79C547.5,-278.05 559.99,-265.2 569,-252 582.22,-232.64 592.83,-208.21 599.8,-189.84"/>
<polygon fill="#1414ce" stroke="#1414ce" points="603.13,-190.93 603.29,-180.33 596.56,-188.52 603.13,-190.93"/>
</a>
</g>
</g>
<!-- 21&#45;&gt;22 -->
<g id="edge26" class="edge">
<title>21&#45;&gt;22</title>
<g id="a_edge26"><a xlink:title="include">
<path fill="none" stroke="#1414ce" d="M491.56,-287.88C478.21,-278.89 461.68,-267.76 447.22,-258.03"/>
<polygon fill="#1414ce" stroke="#1414ce" points="448.79,-254.87 438.54,-252.19 444.88,-260.68 448.79,-254.87"/>
</a>
</g>
</g>
<!-- 21&#45;&gt;14 -->
<g id="edge27" class="edge">
<title>21&#45;&gt;14</title>
<g id="a_edge27"><a xlink:title="include">
<path fill="none" stroke="#1414ce" d="M466.69,-294.06C407.25,-281.14 308.79,-259.74 248.14,-246.55"/>
<polygon fill="#1414ce" stroke="#1414ce" points="248.52,-243.05 238.01,-244.35 247.04,-249.89 248.52,-243.05"/>
</a>
</g>
</g>
<!-- 23 -->
<g id="node11" class="node">
<title>23</title>
<g id="a_node11"><a xlink:title="synclist.h">
<polygon fill="#ffffff" stroke="black" points="559.5,-252 474.5,-252 474.5,-216 559.5,-216 559.5,-252"/>
<text text-anchor="middle" x="517" y="-230.3" font-family="Times,serif" font-size="14.00">synclist.h</text>
</a>
</g>
</g>
<!-- 21&#45;&gt;23 -->
<g id="edge28" class="edge">
<title>21&#45;&gt;23</title>
<g id="a_edge28"><a xlink:title="include">
<path fill="none" stroke="#1414ce" d="M517,-287.7C517,-279.98 517,-270.71 517,-262.11"/>
<polygon fill="#1414ce" stroke="#1414ce" points="520.5,-262.1 517,-252.1 513.5,-262.1 520.5,-262.1"/>
</a>
</g>
</g>
<!-- 21&#45;&gt;7 -->
<g id="edge23" class="edge">
<title>21&#45;&gt;7</title>
<g id="a_edge23"><a xlink:title="include">
<path fill="none" stroke="#1414ce" d="M543.4,-287.79C558.11,-277.84 576.52,-264.81 592,-252 646.3,-207.08 704.38,-148.35 735.72,-115.68"/>
<polygon fill="#1414ce" stroke="#1414ce" points="738.35,-117.99 742.72,-108.34 733.29,-113.16 738.35,-117.99"/>
</a>
</g>
</g>
<!-- 24 -->
<g id="node10" class="node">
<title>24</title>
<g id="a_node10"><a xlink:title="smp.h">
<polygon fill="#ffffff" stroke="black" points="564,-180 504,-180 504,-144 564,-144 564,-180"/>
<text text-anchor="middle" x="534" y="-158.3" font-family="Times,serif" font-size="14.00">smp.h</text>
</a>
</g>
</g>
<!-- 24&#45;&gt;4 -->
<g id="edge29" class="edge">
<title>24&#45;&gt;4</title>
<g id="a_edge29"><a xlink:title="include">
<path fill="none" stroke="#1414ce" d="M534,-143.7C534,-135.98 534,-126.71 534,-118.11"/>
<polygon fill="#1414ce" stroke="#1414ce" points="537.5,-118.1 534,-108.1 530.5,-118.1 537.5,-118.1"/>
</a>
</g>
</g>
<!-- 23&#45;&gt;20 -->
<g id="edge31" class="edge">
<title>23&#45;&gt;20</title>
<g id="a_edge31"><a xlink:title="include">
<path fill="none" stroke="#1414ce" d="M539.74,-215.7C551.44,-206.8 565.86,-195.82 578.51,-186.2"/>
<polygon fill="#1414ce" stroke="#1414ce" points="580.68,-188.94 586.52,-180.1 576.44,-183.37 580.68,-188.94"/>
</a>
</g>
</g>
<!-- 23&#45;&gt;24 -->
<g id="edge32" class="edge">
<title>23&#45;&gt;24</title>
<g id="a_edge32"><a xlink:title="include">
<path fill="none" stroke="#1414ce" d="M521.2,-215.7C523.1,-207.9 525.38,-198.51 527.48,-189.83"/>
<polygon fill="#1414ce" stroke="#1414ce" points="530.89,-190.65 529.85,-180.1 524.08,-189 530.89,-190.65"/>
</a>
</g>
</g>
<!-- 6 -->
<g id="node21" class="node">
<title>6</title>
<g id="a_node21"><a xlink:title="stdio.h">
<polygon fill="#ffffff" stroke="black" points="299.5,-108 234.5,-108 234.5,-72 299.5,-72 299.5,-108"/>
<text text-anchor="middle" x="267" y="-86.3" font-family="Times,serif" font-size="14.00">stdio.h</text>
</a>
</g>
</g>
<!-- 23&#45;&gt;6 -->
<g id="edge30" class="edge">
<title>23&#45;&gt;6</title>
<g id="a_edge30"><a xlink:title="include">
<path fill="none" stroke="#1414ce" d="M486.84,-215.87C441.61,-190.18 356.17,-141.65 306.17,-113.25"/>
<polygon fill="#1414ce" stroke="#1414ce" points="307.69,-110.08 297.26,-108.19 304.23,-116.17 307.69,-110.08"/>
</a>
</g>
</g>
<!-- 2&#45;&gt;9 -->
<g id="edge39" class="edge">
<title>2&#45;&gt;9</title>
<g id="a_edge39"><a xlink:title="include">
<path fill="none" stroke="#1414ce" d="M652.78,-436.32C682.32,-424.9 725.95,-408.03 758.23,-395.54"/>
<polygon fill="#1414ce" stroke="#1414ce" points="759.79,-398.69 767.85,-391.82 757.27,-392.16 759.79,-398.69"/>
</a>
</g>
</g>
<!-- 2&#45;&gt;10 -->
<g id="edge40" class="edge">
<title>2&#45;&gt;10</title>
<g id="a_edge40"><a xlink:title="include">
<path fill="none" stroke="#1414ce" d="M587.3,-444.49C532.99,-436.69 420.97,-419.24 328,-396 323.56,-394.89 318.94,-393.61 314.37,-392.25"/>
<polygon fill="#1414ce" stroke="#1414ce" points="315.1,-388.82 304.52,-389.22 313.04,-395.51 315.1,-388.82"/>
</a>
</g>
</g>
<!-- 2&#45;&gt;14 -->
<g id="edge41" class="edge">
<title>2&#45;&gt;14</title>
<g id="a_edge41"><a xlink:title="include">
<path fill="none" stroke="#1414ce" d="M587.25,-448.07C501.44,-445.12 272.24,-433.82 208,-396 161.92,-368.87 138.02,-338.7 155,-288 158.35,-278 164.42,-268.38 170.83,-260.14"/>
<polygon fill="#1414ce" stroke="#1414ce" points="173.56,-262.33 177.27,-252.4 168.18,-257.85 173.56,-262.33"/>
</a>
</g>
</g>
<!-- 2&#45;&gt;19 -->
<g id="edge42" class="edge">
<title>2&#45;&gt;19</title>
<g id="a_edge42"><a xlink:title="include">
<path fill="none" stroke="#1414ce" d="M620,-431.7C620,-423.98 620,-414.71 620,-406.11"/>
<polygon fill="#1414ce" stroke="#1414ce" points="623.5,-406.1 620,-396.1 616.5,-406.1 623.5,-406.1"/>
</a>
</g>
</g>
<!-- 2&#45;&gt;16 -->
<g id="edge44" class="edge">
<title>2&#45;&gt;16</title>
<g id="a_edge44"><a xlink:title="include">
<path fill="none" stroke="#1414ce" d="M587.35,-449.49C481.58,-450.55 149.94,-449.43 60,-396 18.99,-371.64 0,-354.7 0,-307 0,-307 0,-307 0,-233 0,-190.66 7.44,-176.97 34,-144 43.77,-131.88 57.07,-121.59 70.07,-113.4"/>
<polygon fill="#1414ce" stroke="#1414ce" points="72.2,-116.2 78.98,-108.06 68.6,-110.2 72.2,-116.2"/>
</a>
</g>
</g>
<!-- 2&#45;&gt;11 -->
<g id="edge43" class="edge">
<title>2&#45;&gt;11</title>
<g id="a_edge43"><a xlink:title="include">
<path fill="none" stroke="#1414ce" d="M591.41,-431.9C540.79,-400.68 433.9,-330.4 361,-252 343.27,-232.94 327.46,-207.84 316.84,-189.15"/>
<polygon fill="#1414ce" stroke="#1414ce" points="319.84,-187.34 311.92,-180.29 313.72,-190.74 319.84,-187.34"/>
</a>
</g>
</g>
<!-- 2&#45;&gt;4 -->
<g id="edge34" class="edge">
<title>2&#45;&gt;4</title>
<g id="a_edge34"><a xlink:title="include">
<path fill="none" stroke="#1414ce" d="M647.94,-431.77C660.49,-422.64 674.39,-410.34 683,-396 703.82,-361.33 702,-347.45 702,-307 702,-307 702,-307 702,-233 702,-190.33 696.21,-174.13 666,-144 644.2,-122.26 612.32,-109.12 585.35,-101.36"/>
<polygon fill="#1414ce" stroke="#1414ce" points="586.24,-97.98 575.67,-98.75 584.41,-104.73 586.24,-97.98"/>
</a>
</g>
</g>
<!-- 2&#45;&gt;5 -->
<g id="edge35" class="edge">
<title>2&#45;&gt;5</title>
<g id="a_edge35"><a xlink:title="include">
<path fill="none" stroke="#1414ce" d="M652.77,-448.45C729.04,-446.47 915.24,-437.4 959,-396 988.38,-368.2 978,-347.45 978,-307 978,-307 978,-307 978,-161 978,-114.31 943.56,-69.84 918.27,-43.49"/>
<polygon fill="#1414ce" stroke="#1414ce" points="920.61,-40.88 911.09,-36.23 915.63,-45.8 920.61,-40.88"/>
</a>
</g>
</g>
<!-- 2&#45;&gt;6 -->
<g id="edge36" class="edge">
<title>2&#45;&gt;6</title>
<g id="a_edge36"><a xlink:title="include">
<path fill="none" stroke="#1414ce" d="M587.5,-447.38C496.24,-442.51 239.23,-426.4 161,-396 98.11,-371.56 38,-374.48 38,-307 38,-307 38,-307 38,-233 38,-192.55 28.93,-173.12 57,-144 62.89,-137.89 164.93,-114.03 224.57,-100.5"/>
<polygon fill="#1414ce" stroke="#1414ce" points="225.48,-103.89 234.46,-98.27 223.94,-97.06 225.48,-103.89"/>
</a>
</g>
</g>
<!-- 2&#45;&gt;7 -->
<g id="edge37" class="edge">
<title>2&#45;&gt;7</title>
<g id="a_edge37"><a xlink:title="include">
<path fill="none" stroke="#1414ce" d="M652.56,-436.1C670.42,-427.38 691.42,-414.13 704,-396 764.52,-308.79 764.42,-174.86 761.2,-118.01"/>
<polygon fill="#1414ce" stroke="#1414ce" points="764.69,-117.77 760.55,-108.01 757.7,-118.22 764.69,-117.77"/>
</a>
</g>
</g>
<!-- 2&#45;&gt;8 -->
<g id="edge38" class="edge">
<title>2&#45;&gt;8</title>
<g id="a_edge38"><a xlink:title="include">
<path fill="none" stroke="#1414ce" d="M587.41,-448.62C504.88,-447.02 290.34,-438.76 236,-396 217,-381.05 208.29,-354.31 204.31,-334.03"/>
<polygon fill="#1414ce" stroke="#1414ce" points="207.75,-333.39 202.63,-324.11 200.85,-334.56 207.75,-333.39"/>
</a>
</g>
</g>
<!-- 3 -->
<g id="node24" class="node">
<title>3</title>
<g id="a_node24"><a xlink:title="sys/types.h">
<polygon fill="#ffffff" stroke="black" points="949.5,-396 852.5,-396 852.5,-360 949.5,-360 949.5,-396"/>
<text text-anchor="middle" x="901" y="-374.3" font-family="Times,serif" font-size="14.00">sys/types.h</text>
</a>
</g>
</g>
<!-- 2&#45;&gt;3 -->
<g id="edge33" class="edge">
<title>2&#45;&gt;3</title>
<g id="a_edge33"><a xlink:title="include">
<path fill="none" stroke="#1414ce" d="M652.63,-441.8C694.32,-432.48 768.92,-415.4 842.43,-396.08"/>
<polygon fill="#1414ce" stroke="#1414ce" points="843.54,-399.41 852.32,-393.47 841.75,-392.64 843.54,-399.41"/>
</a>
</g>
</g>
<!-- 17 -->
<g id="node15" class="node">
<title>17</title>
<g id="a_node15"><a xlink:title="assert.h">
<polygon fill="#ffffff" stroke="black" points="107,-36 33,-36 33,0 107,0 107,-36"/>
<text text-anchor="middle" x="70" y="-14.3" font-family="Times,serif" font-size="14.00">assert.h</text>
</a>
</g>
</g>
<!-- 16&#45;&gt;17 -->
<g id="edge45" class="edge">
<title>16&#45;&gt;17</title>
<g id="a_edge45"><a xlink:title="include">
<path fill="none" stroke="#1414ce" d="M103.88,-71.7C98.64,-63.56 92.3,-53.69 86.52,-44.7"/>
<polygon fill="#1414ce" stroke="#1414ce" points="89.35,-42.62 81,-36.1 83.46,-46.41 89.35,-42.62"/>
</a>
</g>
</g>
<!-- 12 -->
<g id="node16" class="node">
<title>12</title>
<g id="a_node16"><a xlink:title="inttypes.h">
<polygon fill="#ffffff" stroke="black" points="338.5,-36 249.5,-36 249.5,0 338.5,0 338.5,-36"/>
<text text-anchor="middle" x="294" y="-14.3" font-family="Times,serif" font-size="14.00">inttypes.h</text>
</a>
</g>
</g>
<!-- 16&#45;&gt;12 -->
<g id="edge47" class="edge">
<title>16&#45;&gt;12</title>
<g id="a_edge47"><a xlink:title="include">
<path fill="none" stroke="#1414ce" d="M158.79,-71.88C183.58,-62.18 214.78,-49.98 240.96,-39.74"/>
<polygon fill="#1414ce" stroke="#1414ce" points="242.32,-42.97 250.35,-36.07 239.77,-36.45 242.32,-42.97"/>
</a>
</g>
</g>
<!-- 18 -->
<g id="node17" class="node">
<title>18</title>
<g id="a_node17"><a xlink:title="limits.h">
<polygon fill="#ffffff" stroke="black" points="196.5,-36 125.5,-36 125.5,0 196.5,0 196.5,-36"/>
<text text-anchor="middle" x="161" y="-14.3" font-family="Times,serif" font-size="14.00">limits.h</text>
</a>
</g>
</g>
<!-- 16&#45;&gt;18 -->
<g id="edge46" class="edge">
<title>16&#45;&gt;18</title>
<g id="a_edge46"><a xlink:title="include">
<path fill="none" stroke="#1414ce" d="M126.37,-71.7C131.72,-63.56 138.2,-53.69 144.11,-44.7"/>
<polygon fill="#1414ce" stroke="#1414ce" points="147.19,-46.38 149.76,-36.1 141.34,-42.54 147.19,-46.38"/>
</a>
</g>
</g>
<!-- 16&#45;&gt;5 -->
<g id="edge48" class="edge">
<title>16&#45;&gt;5</title>
<g id="a_edge48"><a xlink:title="include">
<path fill="none" stroke="#1414ce" d="M177.9,-74.35C182.66,-73.48 187.4,-72.68 192,-72 436.41,-35.95 732.66,-23.76 845.4,-20.25"/>
<polygon fill="#1414ce" stroke="#1414ce" points="845.85,-23.74 855.73,-19.93 845.63,-16.74 845.85,-23.74"/>
</a>
</g>
</g>
<!-- 11&#45;&gt;12 -->
<g id="edge49" class="edge">
<title>11&#45;&gt;12</title>
<g id="a_edge49"><a xlink:title="include">
<path fill="none" stroke="#1414ce" d="M305.83,-143.87C308.37,-125.9 311.23,-96.86 308,-72 306.9,-63.51 304.84,-54.43 302.63,-46.24"/>
<polygon fill="#1414ce" stroke="#1414ce" points="305.95,-45.09 299.82,-36.44 299.22,-47.02 305.95,-45.09"/>
</a>
</g>
</g>
<!-- 11&#45;&gt;4 -->
<g id="edge50" class="edge">
<title>11&#45;&gt;4</title>
<g id="a_edge50"><a xlink:title="include">
<path fill="none" stroke="#1414ce" d="M334.35,-148.77C338.91,-147.11 343.56,-145.47 348,-144 393.07,-129.1 445.08,-114.49 482.62,-104.4"/>
<polygon fill="#1414ce" stroke="#1414ce" points="483.57,-107.77 492.33,-101.8 481.76,-101.01 483.57,-107.77"/>
</a>
</g>
</g>
<!-- 13 -->
<g id="node19" class="node">
<title>13</title>
<g id="a_node19"><a xlink:title="stddef.h">
<polygon fill="#ffffff" stroke="black" points="430,-108 356,-108 356,-72 430,-72 430,-108"/>
<text text-anchor="middle" x="393" y="-86.3" font-family="Times,serif" font-size="14.00">stddef.h</text>
</a>
</g>
</g>
<!-- 11&#45;&gt;13 -->
<g id="edge51" class="edge">
<title>11&#45;&gt;13</title>
<g id="a_edge51"><a xlink:title="include">
<path fill="none" stroke="#1414ce" d="M325.25,-143.7C336.58,-134.88 350.53,-124.03 362.82,-114.47"/>
<polygon fill="#1414ce" stroke="#1414ce" points="365.26,-117.01 371.01,-108.1 360.97,-111.48 365.26,-117.01"/>
</a>
</g>
</g>
<!-- 11&#45;&gt;6 -->
<g id="edge52" class="edge">
<title>11&#45;&gt;6</title>
<g id="a_edge52"><a xlink:title="include">
<path fill="none" stroke="#1414ce" d="M294.1,-143.7C290,-135.73 285.05,-126.1 280.51,-117.26"/>
<polygon fill="#1414ce" stroke="#1414ce" points="283.48,-115.4 275.8,-108.1 277.26,-118.6 283.48,-115.4"/>
</a>
</g>
</g>
<!-- 11&#45;&gt;7 -->
<g id="edge53" class="edge">
<title>11&#45;&gt;7</title>
<g id="a_edge53"><a xlink:title="include">
<path fill="none" stroke="#1414ce" d="M334.34,-156.19C413.38,-144.06 621.06,-112.17 713.5,-97.98"/>
<polygon fill="#1414ce" stroke="#1414ce" points="714.04,-101.44 723.4,-96.47 712.98,-94.52 714.04,-101.44"/>
</a>
</g>
</g>
</g>
</svg>
