<?xml version="1.0" encoding="UTF-8" standalone="no"?>
<!DOCTYPE svg PUBLIC "-//W3C//DTD SVG 1.1//EN"
 "http://www.w3.org/Graphics/SVG/1.1/DTD/svg11.dtd">
<!-- Generated by graphviz version 2.43.0 (0)
 -->
<!-- Title: %3 Pages: 1 -->
<svg width="1420pt" height="764pt"
 viewBox="0.00 0.00 1420.00 764.00" xmlns="http://www.w3.org/2000/svg" xmlns:xlink="http://www.w3.org/1999/xlink">
<g id="graph0" class="graph" transform="scale(1 1) rotate(0) translate(4 760)">
<title>%3</title>
<polygon fill="transparent" stroke="transparent" points="-4,4 -4,-760 1416,-760 1416,4 -4,4"/>
<!-- 2 -->
<g id="node1" class="node">
<title>2</title>
<g id="a_node1"><a xlink:title="stdbool.h">
<polygon fill="#ffffff" stroke="black" points="527.5,-108 444.5,-108 444.5,-72 527.5,-72 527.5,-108"/>
<text text-anchor="middle" x="486" y="-86.3" font-family="Times,serif" font-size="14.00">stdbool.h</text>
</a>
</g>
</g>
<!-- 26 -->
<g id="node2" class="node">
<title>26</title>
<g id="a_node2"><a xlink:title="refc_binary.h">
<polygon fill="#ffffff" stroke="black" points="873,-396 765,-396 765,-360 873,-360 873,-396"/>
<text text-anchor="middle" x="819" y="-374.3" font-family="Times,serif" font-size="14.00">refc_binary.h</text>
</a>
</g>
</g>
<!-- 26&#45;&gt;2 -->
<g id="edge1" class="edge">
<title>26&#45;&gt;2</title>
<g id="a_edge1"><a xlink:title="include">
<path fill="none" stroke="#1414ce" d="M828.39,-359.84C850.15,-317.48 898.22,-206.84 844,-144 824.27,-121.13 632.19,-102.71 537.81,-94.96"/>
<polygon fill="#1414ce" stroke="#1414ce" points="537.88,-91.46 527.63,-94.14 537.31,-98.44 537.88,-91.46"/>
</a>
</g>
</g>
<!-- 16 -->
<g id="node7" class="node">
<title>16</title>
<g id="a_node7"><a xlink:title="list.h">
<polygon fill="#ffffff" stroke="black" points="480,-180 426,-180 426,-144 480,-144 480,-180"/>
<text text-anchor="middle" x="453" y="-158.3" font-family="Times,serif" font-size="14.00">list.h</text>
</a>
</g>
</g>
<!-- 26&#45;&gt;16 -->
<g id="edge3" class="edge">
<title>26&#45;&gt;16</title>
<g id="a_edge3"><a xlink:title="include">
<path fill="none" stroke="#1414ce" d="M764.81,-373.38C687.78,-365.2 547.59,-338.59 472,-252 457.27,-235.13 453.03,-209.65 452.17,-190.28"/>
<polygon fill="#1414ce" stroke="#1414ce" points="455.67,-190.17 452,-180.23 448.67,-190.29 455.67,-190.17"/>
</a>
</g>
</g>
<!-- 5 -->
<g id="node9" class="node">
<title>5</title>
<g id="a_node9"><a xlink:title="stdlib.h">
<polygon fill="#ffffff" stroke="black" points="1225.5,-108 1154.5,-108 1154.5,-72 1225.5,-72 1225.5,-108"/>
<text text-anchor="middle" x="1190" y="-86.3" font-family="Times,serif" font-size="14.00">stdlib.h</text>
</a>
</g>
</g>
<!-- 26&#45;&gt;5 -->
<g id="edge2" class="edge">
<title>26&#45;&gt;5</title>
<g id="a_edge2"><a xlink:title="include">
<path fill="none" stroke="#1414ce" d="M871.16,-359.92C944.22,-333.28 1076.12,-274.84 1148,-180 1162.37,-161.04 1173.53,-136.38 1180.72,-117.83"/>
<polygon fill="#1414ce" stroke="#1414ce" points="1184.09,-118.82 1184.31,-108.23 1177.53,-116.37 1184.09,-118.82"/>
</a>
</g>
</g>
<!-- 27 -->
<g id="node14" class="node">
<title>27</title>
<g id="a_node14"><a xlink:title="resources.h">
<polygon fill="#ffffff" stroke="black" points="835,-324 735,-324 735,-288 835,-288 835,-324"/>
<text text-anchor="middle" x="785" y="-302.3" font-family="Times,serif" font-size="14.00">resources.h</text>
</a>
</g>
</g>
<!-- 26&#45;&gt;27 -->
<g id="edge4" class="edge">
<title>26&#45;&gt;27</title>
<g id="a_edge4"><a xlink:title="include">
<path fill="none" stroke="#1414ce" d="M810.6,-359.7C806.73,-351.73 802.05,-342.1 797.76,-333.26"/>
<polygon fill="#1414ce" stroke="#1414ce" points="800.83,-331.57 793.31,-324.1 794.53,-334.63 800.83,-331.57"/>
</a>
</g>
</g>
<!-- 4 -->
<g id="node3" class="node">
<title>4</title>
<g id="a_node3"><a xlink:title="atom.h">
<polygon fill="#ffffff" stroke="black" points="1084,-468 1018,-468 1018,-432 1084,-432 1084,-468"/>
<text text-anchor="middle" x="1051" y="-446.3" font-family="Times,serif" font-size="14.00">atom.h</text>
</a>
</g>
</g>
<!-- 3 -->
<g id="node8" class="node">
<title>3</title>
<g id="a_node8"><a xlink:title="stdint.h">
<polygon fill="#ffffff" stroke="black" points="1095,-36 1023,-36 1023,0 1095,0 1095,-36"/>
<text text-anchor="middle" x="1059" y="-14.3" font-family="Times,serif" font-size="14.00">stdint.h</text>
</a>
</g>
</g>
<!-- 4&#45;&gt;3 -->
<g id="edge5" class="edge">
<title>4&#45;&gt;3</title>
<g id="a_edge5"><a xlink:title="include">
<path fill="none" stroke="#1414ce" d="M1084.16,-447.5C1153.69,-443.68 1311.51,-431.25 1350,-396 1380.21,-368.33 1374,-347.97 1374,-307 1374,-307 1374,-307 1374,-161 1374,-120.03 1380.15,-99.74 1350,-72 1315.02,-39.81 1178.43,-26.46 1105.5,-21.54"/>
<polygon fill="#1414ce" stroke="#1414ce" points="1105.42,-18.02 1095.22,-20.87 1104.97,-25.01 1105.42,-18.02"/>
</a>
</g>
</g>
<!-- 4&#45;&gt;5 -->
<g id="edge6" class="edge">
<title>4&#45;&gt;5</title>
<g id="a_edge6"><a xlink:title="include">
<path fill="none" stroke="#1414ce" d="M1084.16,-445.28C1139.47,-438.42 1247.16,-422.05 1274,-396 1303.4,-367.47 1298,-347.97 1298,-307 1298,-307 1298,-307 1298,-233 1298,-192.03 1298.32,-176.97 1274,-144 1263.83,-130.21 1248.89,-119.14 1234.43,-110.76"/>
<polygon fill="#1414ce" stroke="#1414ce" points="1235.98,-107.62 1225.53,-105.88 1232.62,-113.76 1235.98,-107.62"/>
</a>
</g>
</g>
<!-- 12 -->
<g id="node4" class="node">
<title>12</title>
<g id="a_node4"><a xlink:title="assert.h">
<polygon fill="#ffffff" stroke="black" points="929,-36 855,-36 855,0 929,0 929,-36"/>
<text text-anchor="middle" x="892" y="-14.3" font-family="Times,serif" font-size="14.00">assert.h</text>
</a>
</g>
</g>
<!-- 24 -->
<g id="node5" class="node">
<title>24</title>
<g id="a_node5"><a xlink:title="utils.h">
<polygon fill="#ffffff" stroke="black" points="1029,-180 967,-180 967,-144 1029,-144 1029,-180"/>
<text text-anchor="middle" x="998" y="-158.3" font-family="Times,serif" font-size="14.00">utils.h</text>
</a>
</g>
</g>
<!-- 24&#45;&gt;5 -->
<g id="edge9" class="edge">
<title>24&#45;&gt;5</title>
<g id="a_edge9"><a xlink:title="include">
<path fill="none" stroke="#1414ce" d="M1029.28,-149.6C1060.65,-138.16 1109.28,-120.43 1144.84,-107.46"/>
<polygon fill="#1414ce" stroke="#1414ce" points="1146.3,-110.66 1154.5,-103.94 1143.9,-104.08 1146.3,-110.66"/>
</a>
</g>
</g>
<!-- 25 -->
<g id="node16" class="node">
<title>25</title>
<g id="a_node16"><a xlink:title="stddef.h">
<polygon fill="#ffffff" stroke="black" points="947,-108 873,-108 873,-72 947,-72 947,-108"/>
<text text-anchor="middle" x="910" y="-86.3" font-family="Times,serif" font-size="14.00">stddef.h</text>
</a>
</g>
</g>
<!-- 24&#45;&gt;25 -->
<g id="edge7" class="edge">
<title>24&#45;&gt;25</title>
<g id="a_edge7"><a xlink:title="include">
<path fill="none" stroke="#1414ce" d="M976.25,-143.7C965.16,-134.88 951.53,-124.03 939.51,-114.47"/>
<polygon fill="#1414ce" stroke="#1414ce" points="941.51,-111.59 931.5,-108.1 937.15,-117.07 941.51,-111.59"/>
</a>
</g>
</g>
<!-- 18 -->
<g id="node29" class="node">
<title>18</title>
<g id="a_node29"><a xlink:title="stdio.h">
<polygon fill="#ffffff" stroke="black" points="1030.5,-108 965.5,-108 965.5,-72 1030.5,-72 1030.5,-108"/>
<text text-anchor="middle" x="998" y="-86.3" font-family="Times,serif" font-size="14.00">stdio.h</text>
</a>
</g>
</g>
<!-- 24&#45;&gt;18 -->
<g id="edge8" class="edge">
<title>24&#45;&gt;18</title>
<g id="a_edge8"><a xlink:title="include">
<path fill="none" stroke="#1414ce" d="M998,-143.7C998,-135.98 998,-126.71 998,-118.11"/>
<polygon fill="#1414ce" stroke="#1414ce" points="1001.5,-118.1 998,-108.1 994.5,-118.1 1001.5,-118.1"/>
</a>
</g>
</g>
<!-- 17 -->
<g id="node6" class="node">
<title>17</title>
<g id="a_node6"><a xlink:title="synclist.h">
<polygon fill="#ffffff" stroke="black" points="348.5,-252 263.5,-252 263.5,-216 348.5,-216 348.5,-252"/>
<text text-anchor="middle" x="306" y="-230.3" font-family="Times,serif" font-size="14.00">synclist.h</text>
</a>
</g>
</g>
<!-- 17&#45;&gt;16 -->
<g id="edge11" class="edge">
<title>17&#45;&gt;16</title>
<g id="a_edge11"><a xlink:title="include">
<path fill="none" stroke="#1414ce" d="M341.96,-215.88C364.57,-205.11 393.66,-191.26 416.39,-180.43"/>
<polygon fill="#1414ce" stroke="#1414ce" points="418.18,-183.46 425.71,-176 415.17,-177.14 418.18,-183.46"/>
</a>
</g>
</g>
<!-- 19 -->
<g id="node25" class="node">
<title>19</title>
<g id="a_node25"><a xlink:title="smp.h">
<polygon fill="#ffffff" stroke="black" points="292,-180 232,-180 232,-144 292,-144 292,-180"/>
<text text-anchor="middle" x="262" y="-158.3" font-family="Times,serif" font-size="14.00">smp.h</text>
</a>
</g>
</g>
<!-- 17&#45;&gt;19 -->
<g id="edge12" class="edge">
<title>17&#45;&gt;19</title>
<g id="a_edge12"><a xlink:title="include">
<path fill="none" stroke="#1414ce" d="M295.12,-215.7C290.01,-207.56 283.8,-197.69 278.16,-188.7"/>
<polygon fill="#1414ce" stroke="#1414ce" points="281.04,-186.71 272.75,-180.1 275.11,-190.43 281.04,-186.71"/>
</a>
</g>
</g>
<!-- 17&#45;&gt;18 -->
<g id="edge10" class="edge">
<title>17&#45;&gt;18</title>
<g id="a_edge10"><a xlink:title="include">
<path fill="none" stroke="#1414ce" d="M320.88,-215.89C340.49,-194.7 377.18,-159.5 417,-144 526.03,-101.55 823.38,-133.16 955.34,-107.51"/>
<polygon fill="#1414ce" stroke="#1414ce" points="956.25,-110.89 965.31,-105.38 954.8,-104.04 956.25,-110.89"/>
</a>
</g>
</g>
<!-- 16&#45;&gt;2 -->
<g id="edge13" class="edge">
<title>16&#45;&gt;2</title>
<g id="a_edge13"><a xlink:title="include">
<path fill="none" stroke="#1414ce" d="M461.16,-143.7C464.91,-135.73 469.45,-126.1 473.62,-117.26"/>
<polygon fill="#1414ce" stroke="#1414ce" points="476.84,-118.64 477.94,-108.1 470.51,-115.66 476.84,-118.64"/>
</a>
</g>
</g>
<!-- 8 -->
<g id="node10" class="node">
<title>8</title>
<g id="a_node10"><a xlink:title="context.h">
<polygon fill="#ffffff" stroke="black" points="625.5,-684 542.5,-684 542.5,-648 625.5,-648 625.5,-684"/>
<text text-anchor="middle" x="584" y="-662.3" font-family="Times,serif" font-size="14.00">context.h</text>
</a>
</g>
</g>
<!-- 8&#45;&gt;16 -->
<g id="edge15" class="edge">
<title>8&#45;&gt;16</title>
<g id="a_edge15"><a xlink:title="include">
<path fill="none" stroke="#1414ce" d="M576.34,-647.76C552.03,-591.98 476.76,-410.79 452,-252 448.81,-231.52 449.23,-208.06 450.37,-190.37"/>
<polygon fill="#1414ce" stroke="#1414ce" points="453.87,-190.42 451.13,-180.18 446.89,-189.89 453.87,-190.42"/>
</a>
</g>
</g>
<!-- 20 -->
<g id="node15" class="node">
<title>20</title>
<g id="a_node15"><a xlink:title="term.h">
<polygon fill="#ffffff" stroke="black" points="971.5,-468 906.5,-468 906.5,-432 971.5,-432 971.5,-468"/>
<text text-anchor="middle" x="939" y="-446.3" font-family="Times,serif" font-size="14.00">term.h</text>
</a>
</g>
</g>
<!-- 8&#45;&gt;20 -->
<g id="edge18" class="edge">
<title>8&#45;&gt;20</title>
<g id="a_edge18"><a xlink:title="include">
<path fill="none" stroke="#1414ce" d="M612.45,-647.85C676.2,-609.42 830.45,-516.44 901.74,-473.46"/>
<polygon fill="#1414ce" stroke="#1414ce" points="903.66,-476.39 910.41,-468.23 900.04,-470.4 903.66,-476.39"/>
</a>
</g>
</g>
<!-- 9 -->
<g id="node24" class="node">
<title>9</title>
<g id="a_node24"><a xlink:title="globalcontext.h">
<polygon fill="#ffffff" stroke="black" points="495.5,-612 368.5,-612 368.5,-576 495.5,-576 495.5,-612"/>
<text text-anchor="middle" x="432" y="-590.3" font-family="Times,serif" font-size="14.00">globalcontext.h</text>
</a>
</g>
</g>
<!-- 8&#45;&gt;9 -->
<g id="edge14" class="edge">
<title>8&#45;&gt;9</title>
<g id="a_edge14"><a xlink:title="include">
<path fill="none" stroke="#1414ce" d="M546.82,-647.88C526.13,-638.35 500.2,-626.41 478.22,-616.28"/>
<polygon fill="#1414ce" stroke="#1414ce" points="479.61,-613.07 469.06,-612.07 476.68,-619.43 479.61,-613.07"/>
</a>
</g>
</g>
<!-- 8&#45;&gt;19 -->
<g id="edge17" class="edge">
<title>8&#45;&gt;19</title>
<g id="a_edge17"><a xlink:title="include">
<path fill="none" stroke="#1414ce" d="M542.42,-660.06C435.86,-646.56 157.01,-605.58 95,-540 67.21,-510.61 76,-491.45 76,-451 76,-451 76,-451 76,-305 76,-232.14 167.28,-191.68 221.95,-173.97"/>
<polygon fill="#1414ce" stroke="#1414ce" points="223.2,-177.25 231.7,-170.93 221.11,-170.57 223.2,-177.25"/>
</a>
</g>
</g>
<!-- 29 -->
<g id="node27" class="node">
<title>29</title>
<g id="a_node27"><a xlink:title="timer_list.h">
<polygon fill="#ffffff" stroke="black" points="579,-252 481,-252 481,-216 579,-216 579,-252"/>
<text text-anchor="middle" x="530" y="-230.3" font-family="Times,serif" font-size="14.00">timer_list.h</text>
</a>
</g>
</g>
<!-- 8&#45;&gt;29 -->
<g id="edge19" class="edge">
<title>8&#45;&gt;29</title>
<g id="a_edge19"><a xlink:title="include">
<path fill="none" stroke="#1414ce" d="M581.85,-647.88C573.55,-581.8 543.57,-343.08 533.4,-262.1"/>
<polygon fill="#1414ce" stroke="#1414ce" points="536.88,-261.66 532.16,-252.17 529.93,-262.53 536.88,-261.66"/>
</a>
</g>
</g>
<!-- 28 -->
<g id="node28" class="node">
<title>28</title>
<g id="a_node28"><a xlink:title="mailbox.h">
<polygon fill="#ffffff" stroke="black" points="759,-252 673,-252 673,-216 759,-216 759,-252"/>
<text text-anchor="middle" x="716" y="-230.3" font-family="Times,serif" font-size="14.00">mailbox.h</text>
</a>
</g>
</g>
<!-- 8&#45;&gt;28 -->
<g id="edge16" class="edge">
<title>8&#45;&gt;28</title>
<g id="a_edge16"><a xlink:title="include">
<path fill="none" stroke="#1414ce" d="M589.26,-647.88C609.54,-581.8 682.82,-343.08 707.68,-262.1"/>
<polygon fill="#1414ce" stroke="#1414ce" points="711.14,-262.76 710.73,-252.17 704.45,-260.7 711.14,-262.76"/>
</a>
</g>
</g>
<!-- 23 -->
<g id="node11" class="node">
<title>23</title>
<g id="a_node11"><a xlink:title="memory.h">
<polygon fill="#ffffff" stroke="black" points="1015,-252 929,-252 929,-216 1015,-216 1015,-252"/>
<text text-anchor="middle" x="972" y="-230.3" font-family="Times,serif" font-size="14.00">memory.h</text>
</a>
</g>
</g>
<!-- 23&#45;&gt;24 -->
<g id="edge24" class="edge">
<title>23&#45;&gt;24</title>
<g id="a_edge24"><a xlink:title="include">
<path fill="none" stroke="#1414ce" d="M978.43,-215.7C981.36,-207.81 984.89,-198.3 988.14,-189.55"/>
<polygon fill="#1414ce" stroke="#1414ce" points="991.45,-190.7 991.65,-180.1 984.88,-188.26 991.45,-190.7"/>
</a>
</g>
</g>
<!-- 23&#45;&gt;3 -->
<g id="edge20" class="edge">
<title>23&#45;&gt;3</title>
<g id="a_edge20"><a xlink:title="include">
<path fill="none" stroke="#1414ce" d="M1002.48,-215.89C1015.56,-206.92 1029.72,-194.73 1038,-180 1061.67,-137.87 1063.06,-79.96 1061.39,-46.3"/>
<polygon fill="#1414ce" stroke="#1414ce" points="1064.88,-46.04 1060.76,-36.28 1057.89,-46.47 1064.88,-46.04"/>
</a>
</g>
</g>
<!-- 23&#45;&gt;5 -->
<g id="edge21" class="edge">
<title>23&#45;&gt;5</title>
<g id="a_edge21"><a xlink:title="include">
<path fill="none" stroke="#1414ce" d="M1007.09,-215.85C1026.36,-206.03 1050.44,-193.09 1071,-180 1103.12,-159.55 1137.76,-133.1 1161.34,-114.36"/>
<polygon fill="#1414ce" stroke="#1414ce" points="1163.57,-117.06 1169.19,-108.08 1159.2,-111.59 1163.57,-117.06"/>
</a>
</g>
</g>
<!-- 10 -->
<g id="node17" class="node">
<title>10</title>
<g id="a_node17"><a xlink:title="erl_nif.h">
<polygon fill="#ffffff" stroke="black" points="835,-180 761,-180 761,-144 835,-144 835,-180"/>
<text text-anchor="middle" x="798" y="-158.3" font-family="Times,serif" font-size="14.00">erl_nif.h</text>
</a>
</g>
</g>
<!-- 23&#45;&gt;10 -->
<g id="edge22" class="edge">
<title>23&#45;&gt;10</title>
<g id="a_edge22"><a xlink:title="include">
<path fill="none" stroke="#1414ce" d="M929.43,-215.88C903.72,-205.53 870.92,-192.34 844.52,-181.72"/>
<polygon fill="#1414ce" stroke="#1414ce" points="845.69,-178.41 835.11,-177.93 843.08,-184.91 845.69,-178.41"/>
</a>
</g>
</g>
<!-- 11 -->
<g id="node23" class="node">
<title>11</title>
<g id="a_node23"><a xlink:title="term_typedef.h">
<polygon fill="#ffffff" stroke="black" points="854.5,-108 729.5,-108 729.5,-72 854.5,-72 854.5,-108"/>
<text text-anchor="middle" x="792" y="-86.3" font-family="Times,serif" font-size="14.00">term_typedef.h</text>
</a>
</g>
</g>
<!-- 23&#45;&gt;11 -->
<g id="edge23" class="edge">
<title>23&#45;&gt;11</title>
<g id="a_edge23"><a xlink:title="include">
<path fill="none" stroke="#1414ce" d="M964.75,-215.75C955.7,-196.05 938.5,-163.95 915,-144 899.01,-130.42 879.01,-119.83 859.81,-111.8"/>
<polygon fill="#1414ce" stroke="#1414ce" points="861.06,-108.53 850.47,-108.07 858.46,-115.03 861.06,-108.53"/>
</a>
</g>
</g>
<!-- 1 -->
<g id="node12" class="node">
<title>1</title>
<g id="a_node12"><a xlink:title="/__w/AtomVM/AtomVM/src/libAtomVM/module.h">
<polygon fill="#bfbfbf" stroke="black" points="964.5,-756 605.5,-756 605.5,-720 964.5,-720 964.5,-756"/>
<text text-anchor="middle" x="785" y="-734.3" font-family="Times,serif" font-size="14.00">/__w/AtomVM/AtomVM/src/libAtomVM/module.h</text>
</a>
</g>
</g>
<!-- 1&#45;&gt;2 -->
<g id="edge25" class="edge">
<title>1&#45;&gt;2</title>
<g id="a_edge25"><a xlink:title="include">
<path fill="none" stroke="#1414ce" d="M605.12,-720.4C384.09,-697.52 38,-652.51 38,-595 38,-595 38,-595 38,-233 38,-161.13 106.14,-170.34 173,-144 260.55,-109.51 370.55,-97.45 434.11,-93.24"/>
<polygon fill="#1414ce" stroke="#1414ce" points="434.52,-96.72 444.28,-92.61 434.08,-89.74 434.52,-96.72"/>
</a>
</g>
</g>
<!-- 1&#45;&gt;4 -->
<g id="edge27" class="edge">
<title>1&#45;&gt;4</title>
<g id="a_edge27"><a xlink:title="include">
<path fill="none" stroke="#1414ce" d="M833.32,-719.99C853.53,-711.32 876.37,-699.32 894,-684 963.96,-623.23 1016.55,-524.33 1039.02,-477.37"/>
<polygon fill="#1414ce" stroke="#1414ce" points="1042.26,-478.7 1043.35,-468.17 1035.93,-475.72 1042.26,-478.7"/>
</a>
</g>
</g>
<!-- 1&#45;&gt;3 -->
<g id="edge26" class="edge">
<title>1&#45;&gt;3</title>
<g id="a_edge26"><a xlink:title="include">
<path fill="none" stroke="#1414ce" d="M964.67,-730.94C1149.95,-719.65 1412,-687.36 1412,-595 1412,-595 1412,-595 1412,-161 1412,-118.16 1408.54,-98.65 1375,-72 1334.08,-39.48 1182.97,-26.15 1105.49,-21.35"/>
<polygon fill="#1414ce" stroke="#1414ce" points="1105.25,-17.83 1095.06,-20.73 1104.84,-24.82 1105.25,-17.83"/>
</a>
</g>
</g>
<!-- 1&#45;&gt;8 -->
<g id="edge30" class="edge">
<title>1&#45;&gt;8</title>
<g id="a_edge30"><a xlink:title="include">
<path fill="none" stroke="#1414ce" d="M736.09,-719.97C705.57,-709.34 666.36,-695.68 635.39,-684.9"/>
<polygon fill="#1414ce" stroke="#1414ce" points="636.24,-681.49 625.64,-681.5 633.94,-688.1 636.24,-681.49"/>
</a>
</g>
</g>
<!-- 31 -->
<g id="node13" class="node">
<title>31</title>
<g id="a_node13"><a xlink:title="valueshashtable.h">
<polygon fill="#ffffff" stroke="black" points="808,-684 662,-684 662,-648 808,-648 808,-684"/>
<text text-anchor="middle" x="735" y="-662.3" font-family="Times,serif" font-size="14.00">valueshashtable.h</text>
</a>
</g>
</g>
<!-- 1&#45;&gt;31 -->
<g id="edge34" class="edge">
<title>1&#45;&gt;31</title>
<g id="a_edge34"><a xlink:title="include">
<path fill="none" stroke="#1414ce" d="M772.64,-719.7C766.77,-711.47 759.63,-701.48 753.16,-692.42"/>
<polygon fill="#1414ce" stroke="#1414ce" points="755.88,-690.21 747.22,-684.1 750.18,-694.28 755.88,-690.21"/>
</a>
</g>
</g>
<!-- 1&#45;&gt;20 -->
<g id="edge33" class="edge">
<title>1&#45;&gt;20</title>
<g id="a_edge33"><a xlink:title="include">
<path fill="none" stroke="#1414ce" d="M813.52,-719.88C845.67,-698.87 896.63,-660.05 921,-612 942.72,-569.18 943.48,-511.88 941.57,-478.45"/>
<polygon fill="#1414ce" stroke="#1414ce" points="945.03,-477.82 940.85,-468.08 938.05,-478.3 945.03,-477.82"/>
</a>
</g>
</g>
<!-- 30 -->
<g id="node18" class="node">
<title>30</title>
<g id="a_node18"><a xlink:title="exportedfunction.h">
<polygon fill="#ffffff" stroke="black" points="912,-612 760,-612 760,-576 912,-576 912,-612"/>
<text text-anchor="middle" x="836" y="-590.3" font-family="Times,serif" font-size="14.00">exportedfunction.h</text>
</a>
</g>
</g>
<!-- 1&#45;&gt;30 -->
<g id="edge31" class="edge">
<title>1&#45;&gt;30</title>
<g id="a_edge31"><a xlink:title="include">
<path fill="none" stroke="#1414ce" d="M797.52,-719.62C804.19,-709.63 812.02,-696.59 817,-684 824.88,-664.08 829.75,-640.28 832.58,-622.31"/>
<polygon fill="#1414ce" stroke="#1414ce" points="836.07,-622.62 834.05,-612.22 829.14,-621.61 836.07,-622.62"/>
</a>
</g>
</g>
<!-- 6 -->
<g id="node20" class="node">
<title>6</title>
<g id="a_node20"><a xlink:title="atom_table.h">
<polygon fill="#ffffff" stroke="black" points="213.5,-540 104.5,-540 104.5,-504 213.5,-504 213.5,-540"/>
<text text-anchor="middle" x="159" y="-518.3" font-family="Times,serif" font-size="14.00">atom_table.h</text>
</a>
</g>
</g>
<!-- 1&#45;&gt;6 -->
<g id="edge28" class="edge">
<title>1&#45;&gt;6</title>
<g id="a_edge28"><a xlink:title="include">
<path fill="none" stroke="#1414ce" d="M634.59,-719.97C584.33,-711.91 528.53,-700.35 479,-684 370.25,-648.1 252.37,-580.54 194.77,-545.45"/>
<polygon fill="#1414ce" stroke="#1414ce" points="196.41,-542.34 186.06,-540.1 192.75,-548.31 196.41,-542.34"/>
</a>
</g>
</g>
<!-- 1&#45;&gt;9 -->
<g id="edge32" class="edge">
<title>1&#45;&gt;9</title>
<g id="a_edge32"><a xlink:title="include">
<path fill="none" stroke="#1414ce" d="M641.07,-719.96C604.55,-712.12 566.27,-700.68 533,-684 501.65,-668.28 472.34,-640.4 453.46,-620.03"/>
<polygon fill="#1414ce" stroke="#1414ce" points="455.82,-617.42 446.51,-612.35 450.63,-622.12 455.82,-617.42"/>
</a>
</g>
</g>
<!-- 7 -->
<g id="node26" class="node">
<title>7</title>
<g id="a_node26"><a xlink:title="atomshashtable.h">
<polygon fill="#ffffff" stroke="black" points="1149.5,-612 1006.5,-612 1006.5,-576 1149.5,-576 1149.5,-612"/>
<text text-anchor="middle" x="1078" y="-590.3" font-family="Times,serif" font-size="14.00">atomshashtable.h</text>
</a>
</g>
</g>
<!-- 1&#45;&gt;7 -->
<g id="edge29" class="edge">
<title>1&#45;&gt;7</title>
<g id="a_edge29"><a xlink:title="include">
<path fill="none" stroke="#1414ce" d="M897.9,-719.95C929.74,-712.06 963.46,-700.59 992,-684 1019.63,-667.94 1044.19,-640.49 1059.91,-620.32"/>
<polygon fill="#1414ce" stroke="#1414ce" points="1062.84,-622.25 1066.1,-612.17 1057.26,-618.02 1062.84,-622.25"/>
</a>
</g>
</g>
<!-- 27&#45;&gt;17 -->
<g id="edge40" class="edge">
<title>27&#45;&gt;17</title>
<g id="a_edge40"><a xlink:title="include">
<path fill="none" stroke="#1414ce" d="M734.64,-297.64C643.43,-284.31 451.7,-256.29 358.75,-242.71"/>
<polygon fill="#1414ce" stroke="#1414ce" points="359.13,-239.23 348.73,-241.24 358.12,-246.15 359.13,-239.23"/>
</a>
</g>
</g>
<!-- 27&#45;&gt;16 -->
<g id="edge37" class="edge">
<title>27&#45;&gt;16</title>
<g id="a_edge37"><a xlink:title="include">
<path fill="none" stroke="#1414ce" d="M745.36,-287.99C721.67,-277.73 691.03,-264.32 664,-252 629.99,-236.5 622.3,-230.84 588,-216 555.07,-201.76 516.97,-186.95 489.66,-176.62"/>
<polygon fill="#1414ce" stroke="#1414ce" points="490.71,-173.27 480.12,-173.02 488.24,-179.82 490.71,-173.27"/>
</a>
</g>
</g>
<!-- 27&#45;&gt;5 -->
<g id="edge35" class="edge">
<title>27&#45;&gt;5</title>
<g id="a_edge35"><a xlink:title="include">
<path fill="none" stroke="#1414ce" d="M835.32,-300.78C885.31,-295.02 963.1,-281.78 1024,-252 1089.11,-220.16 1144.94,-153.16 1172.2,-116.43"/>
<polygon fill="#1414ce" stroke="#1414ce" points="1175.13,-118.35 1178.2,-108.21 1169.47,-114.23 1175.13,-118.35"/>
</a>
</g>
</g>
<!-- 27&#45;&gt;23 -->
<g id="edge39" class="edge">
<title>27&#45;&gt;23</title>
<g id="a_edge39"><a xlink:title="include">
<path fill="none" stroke="#1414ce" d="M830.75,-287.88C857.54,-277.85 891.48,-265.14 919.38,-254.7"/>
<polygon fill="#1414ce" stroke="#1414ce" points="920.83,-257.89 928.97,-251.11 918.38,-251.33 920.83,-257.89"/>
</a>
</g>
</g>
<!-- 27&#45;&gt;10 -->
<g id="edge36" class="edge">
<title>27&#45;&gt;10</title>
<g id="a_edge36"><a xlink:title="include">
<path fill="none" stroke="#1414ce" d="M791.65,-287.63C795.2,-277.42 799.2,-264.17 801,-252 804.03,-231.48 803.06,-208.03 801.45,-190.35"/>
<polygon fill="#1414ce" stroke="#1414ce" points="804.91,-189.75 800.4,-180.16 797.94,-190.47 804.91,-189.75"/>
</a>
</g>
</g>
<!-- 27&#45;&gt;28 -->
<g id="edge38" class="edge">
<title>27&#45;&gt;28</title>
<g id="a_edge38"><a xlink:title="include">
<path fill="none" stroke="#1414ce" d="M767.94,-287.7C759.5,-279.14 749.18,-268.66 739.96,-259.3"/>
<polygon fill="#1414ce" stroke="#1414ce" points="742.37,-256.77 732.86,-252.1 737.39,-261.68 742.37,-256.77"/>
</a>
</g>
</g>
<!-- 20&#45;&gt;2 -->
<g id="edge42" class="edge">
<title>20&#45;&gt;2</title>
<g id="a_edge42"><a xlink:title="include">
<path fill="none" stroke="#1414ce" d="M906.18,-447.84C866.06,-444.73 798.31,-433.78 756,-396 718.84,-362.82 705.18,-333.26 726,-288 736.27,-265.66 757.73,-274.34 768,-252 774.69,-237.46 776.57,-229.51 768,-216 717.82,-136.92 604.58,-107.55 537.87,-96.88"/>
<polygon fill="#1414ce" stroke="#1414ce" points="537.99,-93.36 527.58,-95.32 536.94,-100.28 537.99,-93.36"/>
</a>
</g>
</g>
<!-- 20&#45;&gt;26 -->
<g id="edge48" class="edge">
<title>20&#45;&gt;26</title>
<g id="a_edge48"><a xlink:title="include">
<path fill="none" stroke="#1414ce" d="M909.64,-431.88C893.95,-422.72 874.44,-411.34 857.55,-401.48"/>
<polygon fill="#1414ce" stroke="#1414ce" points="858.87,-398.21 848.47,-396.19 855.34,-404.25 858.87,-398.21"/>
</a>
</g>
</g>
<!-- 20&#45;&gt;24 -->
<g id="edge49" class="edge">
<title>20&#45;&gt;24</title>
<g id="a_edge49"><a xlink:title="include">
<path fill="none" stroke="#1414ce" d="M949.31,-431.88C968.65,-398.65 1009.69,-322.45 1024,-252 1027.18,-236.32 1027.62,-231.59 1024,-216 1021.9,-206.96 1018.03,-197.68 1013.91,-189.47"/>
<polygon fill="#1414ce" stroke="#1414ce" points="1016.86,-187.55 1009.05,-180.39 1010.69,-190.86 1016.86,-187.55"/>
</a>
</g>
</g>
<!-- 20&#45;&gt;3 -->
<g id="edge43" class="edge">
<title>20&#45;&gt;3</title>
<g id="a_edge43"><a xlink:title="include">
<path fill="none" stroke="#1414ce" d="M971.62,-440.38C983.35,-437.46 996.72,-434.35 1009,-432 1121.41,-410.47 1164.41,-452.42 1264,-396 1308.27,-370.92 1336,-357.88 1336,-307 1336,-307 1336,-307 1336,-161 1336,-58.6 1184.23,-29.99 1105.37,-22.04"/>
<polygon fill="#1414ce" stroke="#1414ce" points="1105.5,-18.53 1095.21,-21.09 1104.84,-25.5 1105.5,-18.53"/>
</a>
</g>
</g>
<!-- 20&#45;&gt;5 -->
<g id="edge45" class="edge">
<title>20&#45;&gt;5</title>
<g id="a_edge45"><a xlink:title="include">
<path fill="none" stroke="#1414ce" d="M971.64,-440.47C983.37,-437.56 996.73,-434.44 1009,-432 1060.17,-421.83 1203.08,-431.84 1241,-396 1270.4,-368.22 1260,-347.45 1260,-307 1260,-307 1260,-307 1260,-233 1260,-188.36 1231.82,-143.2 1211.22,-116.16"/>
<polygon fill="#1414ce" stroke="#1414ce" points="1213.77,-113.74 1204.85,-108.03 1208.27,-118.06 1213.77,-113.74"/>
</a>
</g>
</g>
<!-- 20&#45;&gt;23 -->
<g id="edge47" class="edge">
<title>20&#45;&gt;23</title>
<g id="a_edge47"><a xlink:title="include">
<path fill="none" stroke="#1414ce" d="M941.64,-431.85C947.35,-394.83 960.87,-307.18 967.78,-262.39"/>
<polygon fill="#1414ce" stroke="#1414ce" points="971.28,-262.65 969.34,-252.23 964.36,-261.58 971.28,-262.65"/>
</a>
</g>
</g>
<!-- 21 -->
<g id="node21" class="node">
<title>21</title>
<g id="a_node21"><a xlink:title="sys/types.h">
<polygon fill="#ffffff" stroke="black" points="1140.5,-396 1043.5,-396 1043.5,-360 1140.5,-360 1140.5,-396"/>
<text text-anchor="middle" x="1092" y="-374.3" font-family="Times,serif" font-size="14.00">sys/types.h</text>
</a>
</g>
</g>
<!-- 20&#45;&gt;21 -->
<g id="edge41" class="edge">
<title>20&#45;&gt;21</title>
<g id="a_edge41"><a xlink:title="include">
<path fill="none" stroke="#1414ce" d="M971.82,-433.98C993.29,-424.16 1021.67,-411.18 1045.46,-400.29"/>
<polygon fill="#1414ce" stroke="#1414ce" points="1047.02,-403.43 1054.66,-396.08 1044.11,-397.06 1047.02,-403.43"/>
</a>
</g>
</g>
<!-- 22 -->
<g id="node22" class="node">
<title>22</title>
<g id="a_node22"><a xlink:title="string.h">
<polygon fill="#ffffff" stroke="black" points="1231.5,-396 1158.5,-396 1158.5,-360 1231.5,-360 1231.5,-396"/>
<text text-anchor="middle" x="1195" y="-374.3" font-family="Times,serif" font-size="14.00">string.h</text>
</a>
</g>
</g>
<!-- 20&#45;&gt;22 -->
<g id="edge46" class="edge">
<title>20&#45;&gt;22</title>
<g id="a_edge46"><a xlink:title="include">
<path fill="none" stroke="#1414ce" d="M971.57,-440.98C1020.88,-428.82 1111.89,-406.25 1148.58,-395.83"/>
<polygon fill="#1414ce" stroke="#1414ce" points="1149.87,-399.1 1158.46,-392.9 1147.88,-392.39 1149.87,-399.1"/>
</a>
</g>
</g>
<!-- 20&#45;&gt;11 -->
<g id="edge50" class="edge">
<title>20&#45;&gt;11</title>
<g id="a_edge50"><a xlink:title="include">
<path fill="none" stroke="#1414ce" d="M931.31,-431.91C920.21,-405.62 901,-353.45 901,-307 901,-307 901,-307 901,-233 901,-190.81 893.81,-177.37 868,-144 858.89,-132.23 846.44,-122.04 834.25,-113.83"/>
<polygon fill="#1414ce" stroke="#1414ce" points="835.78,-110.65 825.47,-108.21 832,-116.55 835.78,-110.65"/>
</a>
</g>
</g>
<!-- 20&#45;&gt;18 -->
<g id="edge44" class="edge">
<title>20&#45;&gt;18</title>
<g id="a_edge44"><a xlink:title="include">
<path fill="none" stroke="#1414ce" d="M959.52,-431.91C970.22,-422.21 982.94,-409.35 992,-396 1029.87,-340.17 1032.2,-319.01 1040,-252 1042.49,-230.63 1039.87,-149.33 1038,-144 1034.51,-134.05 1028.41,-124.44 1022,-116.2"/>
<polygon fill="#1414ce" stroke="#1414ce" points="1024.66,-113.92 1015.58,-108.45 1019.27,-118.39 1024.66,-113.92"/>
</a>
</g>
</g>
<!-- 10&#45;&gt;11 -->
<g id="edge51" class="edge">
<title>10&#45;&gt;11</title>
<g id="a_edge51"><a xlink:title="include">
<path fill="none" stroke="#1414ce" d="M796.52,-143.7C795.86,-135.98 795.06,-126.71 794.32,-118.11"/>
<polygon fill="#1414ce" stroke="#1414ce" points="797.81,-117.77 793.47,-108.1 790.83,-118.37 797.81,-117.77"/>
</a>
</g>
</g>
<!-- 30&#45;&gt;20 -->
<g id="edge52" class="edge">
<title>30&#45;&gt;20</title>
<g id="a_edge52"><a xlink:title="include">
<path fill="none" stroke="#1414ce" d="M848.42,-575.87C866.37,-551.14 899.66,-505.24 920.49,-476.51"/>
<polygon fill="#1414ce" stroke="#1414ce" points="923.49,-478.34 926.53,-468.19 917.83,-474.23 923.49,-478.34"/>
</a>
</g>
</g>
<!-- 13 -->
<g id="node19" class="node">
<title>13</title>
<g id="a_node19"><a xlink:title="limits.h">
<polygon fill="#ffffff" stroke="black" points="729.5,-36 658.5,-36 658.5,0 729.5,0 729.5,-36"/>
<text text-anchor="middle" x="694" y="-14.3" font-family="Times,serif" font-size="14.00">limits.h</text>
</a>
</g>
</g>
<!-- 6&#45;&gt;2 -->
<g id="edge53" class="edge">
<title>6&#45;&gt;2</title>
<g id="a_edge53"><a xlink:title="include">
<path fill="none" stroke="#1414ce" d="M159,-503.95C159,-477.29 159,-424.11 159,-379 159,-379 159,-379 159,-233 159,-114.55 341.74,-93.84 434,-90.93"/>
<polygon fill="#1414ce" stroke="#1414ce" points="434.35,-94.43 444.25,-90.67 434.17,-87.43 434.35,-94.43"/>
</a>
</g>
</g>
<!-- 6&#45;&gt;4 -->
<g id="edge54" class="edge">
<title>6&#45;&gt;4</title>
<g id="a_edge54"><a xlink:title="include">
<path fill="none" stroke="#1414ce" d="M213.51,-515.38C249.64,-511.78 298.12,-507.21 341,-504 624.66,-482.77 698.56,-509.28 980,-468 989.02,-466.68 998.58,-464.76 1007.66,-462.68"/>
<polygon fill="#1414ce" stroke="#1414ce" points="1008.74,-466.02 1017.65,-460.28 1007.11,-459.21 1008.74,-466.02"/>
</a>
</g>
</g>
<!-- 11&#45;&gt;12 -->
<g id="edge55" class="edge">
<title>11&#45;&gt;12</title>
<g id="a_edge55"><a xlink:title="include">
<path fill="none" stroke="#1414ce" d="M816.46,-71.88C829.3,-62.89 845.2,-51.76 859.09,-42.03"/>
<polygon fill="#1414ce" stroke="#1414ce" points="861.26,-44.79 867.44,-36.19 857.24,-39.06 861.26,-44.79"/>
</a>
</g>
</g>
<!-- 11&#45;&gt;3 -->
<g id="edge58" class="edge">
<title>11&#45;&gt;3</title>
<g id="a_edge58"><a xlink:title="include">
<path fill="none" stroke="#1414ce" d="M854.6,-72.59C903.08,-59.88 969.12,-42.56 1012.86,-31.1"/>
<polygon fill="#1414ce" stroke="#1414ce" points="1013.87,-34.45 1022.66,-28.53 1012.1,-27.68 1013.87,-34.45"/>
</a>
</g>
</g>
<!-- 11&#45;&gt;13 -->
<g id="edge56" class="edge">
<title>11&#45;&gt;13</title>
<g id="a_edge56"><a xlink:title="include">
<path fill="none" stroke="#1414ce" d="M768.03,-71.88C755.45,-62.89 739.87,-51.76 726.25,-42.03"/>
<polygon fill="#1414ce" stroke="#1414ce" points="728.24,-39.15 718.07,-36.19 724.17,-44.85 728.24,-39.15"/>
</a>
</g>
</g>
<!-- 14 -->
<g id="node31" class="node">
<title>14</title>
<g id="a_node31"><a xlink:title="inttypes.h">
<polygon fill="#ffffff" stroke="black" points="836.5,-36 747.5,-36 747.5,0 836.5,0 836.5,-36"/>
<text text-anchor="middle" x="792" y="-14.3" font-family="Times,serif" font-size="14.00">inttypes.h</text>
</a>
</g>
</g>
<!-- 11&#45;&gt;14 -->
<g id="edge57" class="edge">
<title>11&#45;&gt;14</title>
<g id="a_edge57"><a xlink:title="include">
<path fill="none" stroke="#1414ce" d="M792,-71.7C792,-63.98 792,-54.71 792,-46.11"/>
<polygon fill="#1414ce" stroke="#1414ce" points="795.5,-46.1 792,-36.1 788.5,-46.1 795.5,-46.1"/>
</a>
</g>
</g>
<!-- 9&#45;&gt;4 -->
<g id="edge60" class="edge">
<title>9&#45;&gt;4</title>
<g id="a_edge60"><a xlink:title="include">
<path fill="none" stroke="#1414ce" d="M495.75,-579.32C544.58,-568.77 613.6,-553.72 674,-540 810.24,-509.05 844.06,-500.27 980,-468 989.06,-465.85 998.76,-463.54 1007.99,-461.33"/>
<polygon fill="#1414ce" stroke="#1414ce" points="1008.87,-464.72 1017.78,-458.98 1007.24,-457.91 1008.87,-464.72"/>
</a>
</g>
</g>
<!-- 9&#45;&gt;17 -->
<g id="edge67" class="edge">
<title>9&#45;&gt;17</title>
<g id="a_edge67"><a xlink:title="include">
<path fill="none" stroke="#1414ce" d="M384.86,-575.96C368.38,-567.64 351.41,-555.91 341,-540 283.57,-452.22 293.76,-319.13 301.54,-262.29"/>
<polygon fill="#1414ce" stroke="#1414ce" points="305.02,-262.68 302.99,-252.28 298.09,-261.68 305.02,-262.68"/>
</a>
</g>
</g>
<!-- 9&#45;&gt;16 -->
<g id="edge64" class="edge">
<title>9&#45;&gt;16</title>
<g id="a_edge64"><a xlink:title="include">
<path fill="none" stroke="#1414ce" d="M372.89,-575.93C353.7,-567.8 333.82,-556.2 320,-540 272.31,-484.1 209.23,-274.26 254,-216 273.57,-190.54 363.65,-174.72 415.66,-167.54"/>
<polygon fill="#1414ce" stroke="#1414ce" points="416.38,-170.97 425.83,-166.18 415.45,-164.04 416.38,-170.97"/>
</a>
</g>
</g>
<!-- 9&#45;&gt;3 -->
<g id="edge59" class="edge">
<title>9&#45;&gt;3</title>
<g id="a_edge59"><a xlink:title="include">
<path fill="none" stroke="#1414ce" d="M368.27,-587.48C284.36,-579.44 141.96,-562.94 95,-540 43.01,-514.61 0,-508.86 0,-451 0,-451 0,-451 0,-161 0,-48.89 905.59,-39.43 938,-36 962.79,-33.37 990.31,-29.58 1012.84,-26.24"/>
<polygon fill="#1414ce" stroke="#1414ce" points="1013.44,-29.69 1022.81,-24.74 1012.4,-22.76 1013.44,-29.69"/>
</a>
</g>
</g>
<!-- 9&#45;&gt;20 -->
<g id="edge68" class="edge">
<title>9&#45;&gt;20</title>
<g id="a_edge68"><a xlink:title="include">
<path fill="none" stroke="#1414ce" d="M483.55,-575.92C540.77,-557.21 636.01,-526.84 719,-504 780.32,-487.12 852.07,-470.4 896.53,-460.38"/>
<polygon fill="#1414ce" stroke="#1414ce" points="897.41,-463.77 906.4,-458.16 895.88,-456.94 897.41,-463.77"/>
</a>
</g>
</g>
<!-- 9&#45;&gt;10 -->
<g id="edge62" class="edge">
<title>9&#45;&gt;10</title>
<g id="a_edge62"><a xlink:title="include">
<path fill="none" stroke="#1414ce" d="M437.66,-575.77C458.03,-516.42 533.43,-318.51 664,-216 689.59,-195.91 723.75,-182.56 751.18,-174.28"/>
<polygon fill="#1414ce" stroke="#1414ce" points="752.32,-177.59 760.95,-171.45 750.37,-170.87 752.32,-177.59"/>
</a>
</g>
</g>
<!-- 9&#45;&gt;6 -->
<g id="edge61" class="edge">
<title>9&#45;&gt;6</title>
<g id="a_edge61"><a xlink:title="include">
<path fill="none" stroke="#1414ce" d="M368.34,-576.68C324.78,-565.51 267.22,-550.75 223.49,-539.54"/>
<polygon fill="#1414ce" stroke="#1414ce" points="224.09,-536.08 213.53,-536.98 222.35,-542.86 224.09,-536.08"/>
</a>
</g>
</g>
<!-- 9&#45;&gt;19 -->
<g id="edge66" class="edge">
<title>9&#45;&gt;19</title>
<g id="a_edge66"><a xlink:title="include">
<path fill="none" stroke="#1414ce" d="M368.18,-580.27C342.43,-572.37 314.12,-559.8 294,-540 212.01,-459.32 233.4,-403.02 235,-288 235.44,-255.99 229.57,-247.14 237,-216 239.2,-206.8 243.1,-197.29 247.17,-188.91"/>
<polygon fill="#1414ce" stroke="#1414ce" points="250.29,-190.49 251.77,-180 244.07,-187.28 250.29,-190.49"/>
</a>
</g>
</g>
<!-- 9&#45;&gt;29 -->
<g id="edge69" class="edge">
<title>9&#45;&gt;29</title>
<g id="a_edge69"><a xlink:title="include">
<path fill="none" stroke="#1414ce" d="M431.56,-575.9C431.03,-536.76 432.36,-438.03 456,-360 467.33,-322.6 492.06,-284.67 509.81,-260.56"/>
<polygon fill="#1414ce" stroke="#1414ce" points="512.79,-262.43 516,-252.33 507.2,-258.22 512.79,-262.43"/>
</a>
</g>
</g>
<!-- 9&#45;&gt;28 -->
<g id="edge65" class="edge">
<title>9&#45;&gt;28</title>
<g id="a_edge65"><a xlink:title="include">
<path fill="none" stroke="#1414ce" d="M450.77,-575.7C461.11,-565.73 473.87,-552.69 484,-540 567.06,-435.94 555.53,-385.69 646,-288 656.17,-277.02 668.83,-266.67 680.58,-258.08"/>
<polygon fill="#1414ce" stroke="#1414ce" points="682.8,-260.79 688.93,-252.15 678.75,-255.09 682.8,-260.79"/>
</a>
</g>
</g>
<!-- 15 -->
<g id="node30" class="node">
<title>15</title>
<g id="a_node30"><a xlink:title="ets.h">
<polygon fill="#ffffff" stroke="black" points="404,-540 350,-540 350,-504 404,-504 404,-540"/>
<text text-anchor="middle" x="377" y="-518.3" font-family="Times,serif" font-size="14.00">ets.h</text>
</a>
</g>
</g>
<!-- 9&#45;&gt;15 -->
<g id="edge63" class="edge">
<title>9&#45;&gt;15</title>
<g id="a_edge63"><a xlink:title="include">
<path fill="none" stroke="#1414ce" d="M418.4,-575.7C411.88,-567.39 403.93,-557.28 396.75,-548.14"/>
<polygon fill="#1414ce" stroke="#1414ce" points="399.37,-545.81 390.44,-540.1 393.87,-550.13 399.37,-545.81"/>
</a>
</g>
</g>
<!-- 19&#45;&gt;2 -->
<g id="edge70" class="edge">
<title>19&#45;&gt;2</title>
<g id="a_edge70"><a xlink:title="include">
<path fill="none" stroke="#1414ce" d="M292.21,-151.56C328.74,-140.15 390.78,-120.76 434.82,-106.99"/>
<polygon fill="#1414ce" stroke="#1414ce" points="435.98,-110.3 444.48,-103.97 433.9,-103.62 435.98,-110.3"/>
</a>
</g>
</g>
<!-- 7&#45;&gt;4 -->
<g id="edge71" class="edge">
<title>7&#45;&gt;4</title>
<g id="a_edge71"><a xlink:title="include">
<path fill="none" stroke="#1414ce" d="M1074.74,-575.87C1070.14,-551.67 1061.69,-507.21 1056.21,-478.39"/>
<polygon fill="#1414ce" stroke="#1414ce" points="1059.57,-477.36 1054.27,-468.19 1052.7,-478.67 1059.57,-477.36"/>
</a>
</g>
</g>
<!-- 29&#45;&gt;2 -->
<g id="edge72" class="edge">
<title>29&#45;&gt;2</title>
<g id="a_edge72"><a xlink:title="include">
<path fill="none" stroke="#1414ce" d="M524.69,-215.87C517.16,-191.56 503.3,-146.82 494.37,-118.01"/>
<polygon fill="#1414ce" stroke="#1414ce" points="497.63,-116.71 491.33,-108.19 490.94,-118.78 497.63,-116.71"/>
</a>
</g>
</g>
<!-- 29&#45;&gt;16 -->
<g id="edge74" class="edge">
<title>29&#45;&gt;16</title>
<g id="a_edge74"><a xlink:title="include">
<path fill="none" stroke="#1414ce" d="M510.97,-215.7C501.46,-207.05 489.79,-196.45 479.43,-187.03"/>
<polygon fill="#1414ce" stroke="#1414ce" points="481.57,-184.24 471.81,-180.1 476.86,-189.42 481.57,-184.24"/>
</a>
</g>
</g>
<!-- 29&#45;&gt;3 -->
<g id="edge73" class="edge">
<title>29&#45;&gt;3</title>
<g id="a_edge73"><a xlink:title="include">
<path fill="none" stroke="#1414ce" d="M544.16,-215.91C573.22,-182.13 643.33,-107.07 720,-72 733.21,-65.96 923.04,-38.36 1012.72,-25.56"/>
<polygon fill="#1414ce" stroke="#1414ce" points="1013.48,-28.99 1022.88,-24.11 1012.49,-22.06 1013.48,-28.99"/>
</a>
</g>
</g>
<!-- 28&#45;&gt;2 -->
<g id="edge75" class="edge">
<title>28&#45;&gt;2</title>
<g id="a_edge75"><a xlink:title="include">
<path fill="none" stroke="#1414ce" d="M688.26,-215.87C646.81,-190.28 568.69,-142.05 522.61,-113.6"/>
<polygon fill="#1414ce" stroke="#1414ce" points="524.19,-110.46 513.84,-108.19 520.51,-116.42 524.19,-110.46"/>
</a>
</g>
</g>
<!-- 28&#45;&gt;24 -->
<g id="edge78" class="edge">
<title>28&#45;&gt;24</title>
<g id="a_edge78"><a xlink:title="include">
<path fill="none" stroke="#1414ce" d="M759.14,-222.29C812.91,-208.94 904.16,-186.29 956.95,-173.19"/>
<polygon fill="#1414ce" stroke="#1414ce" points="957.79,-176.59 966.66,-170.78 956.11,-169.79 957.79,-176.59"/>
</a>
</g>
</g>
<!-- 28&#45;&gt;16 -->
<g id="edge76" class="edge">
<title>28&#45;&gt;16</title>
<g id="a_edge76"><a xlink:title="include">
<path fill="none" stroke="#1414ce" d="M672.87,-221.52C621.85,-207.94 537.8,-185.57 489.75,-172.78"/>
<polygon fill="#1414ce" stroke="#1414ce" points="490.63,-169.39 480.06,-170.2 488.83,-176.16 490.63,-169.39"/>
</a>
</g>
</g>
<!-- 28&#45;&gt;11 -->
<g id="edge77" class="edge">
<title>28&#45;&gt;11</title>
<g id="a_edge77"><a xlink:title="include">
<path fill="none" stroke="#1414ce" d="M721.39,-215.99C727.54,-197.62 738.53,-167.78 752,-144 757.37,-134.52 764.23,-124.82 770.74,-116.35"/>
<polygon fill="#1414ce" stroke="#1414ce" points="773.61,-118.36 777.07,-108.34 768.12,-114.02 773.61,-118.36"/>
</a>
</g>
</g>
<!-- 15&#45;&gt;17 -->
<g id="edge80" class="edge">
<title>15&#45;&gt;17</title>
<g id="a_edge80"><a xlink:title="include">
<path fill="none" stroke="#1414ce" d="M372.38,-503.83C369.61,-493.47 366.05,-479.99 363,-468 344.08,-393.62 322.86,-305.57 312.46,-262.09"/>
<polygon fill="#1414ce" stroke="#1414ce" points="315.84,-261.19 310.11,-252.27 309.03,-262.81 315.84,-261.19"/>
</a>
</g>
</g>
<!-- 15&#45;&gt;16 -->
<g id="edge79" class="edge">
<title>15&#45;&gt;16</title>
<g id="a_edge79"><a xlink:title="include">
<path fill="none" stroke="#1414ce" d="M377,-503.95C377,-477.29 377,-424.11 377,-379 377,-379 377,-379 377,-305 377,-264.03 380.66,-251.56 401,-216 407.04,-205.44 415.69,-195.47 424.21,-187.08"/>
<polygon fill="#1414ce" stroke="#1414ce" points="426.7,-189.54 431.59,-180.14 421.91,-184.44 426.7,-189.54"/>
</a>
</g>
</g>
<!-- 15&#45;&gt;20 -->
<g id="edge81" class="edge">
<title>15&#45;&gt;20</title>
<g id="a_edge81"><a xlink:title="include">
<path fill="none" stroke="#1414ce" d="M404.11,-517.62C494.49,-506.37 786.04,-470.05 896.26,-456.32"/>
<polygon fill="#1414ce" stroke="#1414ce" points="896.85,-459.78 906.35,-455.07 895.99,-452.83 896.85,-459.78"/>
</a>
</g>
</g>
</g>
</svg>
