<?xml version="1.0" encoding="UTF-8" standalone="no"?>
<!DOCTYPE svg PUBLIC "-//W3C//DTD SVG 1.1//EN"
 "http://www.w3.org/Graphics/SVG/1.1/DTD/svg11.dtd">
<!-- Generated by graphviz version 2.43.0 (0)
 -->
<!-- Title: %3 Pages: 1 -->
<svg width="175pt" height="188pt"
 viewBox="0.00 0.00 175.00 188.00" xmlns="http://www.w3.org/2000/svg" xmlns:xlink="http://www.w3.org/1999/xlink">
<g id="graph0" class="graph" transform="scale(1 1) rotate(0) translate(4 184)">
<title>%3</title>
<polygon fill="transparent" stroke="transparent" points="-4,4 -4,-184 171,-184 171,4 -4,4"/>
<!-- 3 -->
<g id="node1" class="node">
<title>3</title>
<g id="a_node1"><a xlink:title="HeapFragment">
<polygon fill="#ffffff" stroke="black" points="146,-36 21,-36 21,0 146,0 146,-36"/>
<text text-anchor="middle" x="83.5" y="-14.3" font-family="Times,serif" font-size="14.00">HeapFragment</text>
</a>
</g>
</g>
<!-- 3&#45;&gt;3 -->
<g id="edge1" class="edge">
<title>3&#45;&gt;3</title>
<g id="a_edge1"><a xlink:title="usage">
<path fill="none" stroke="#1414ce" d="M146.28,-30.55C156.76,-28.79 164,-24.61 164,-18 164,-13.77 161.03,-10.53 156.14,-8.29"/>
<polygon fill="#1414ce" stroke="#1414ce" points="156.86,-4.85 146.28,-5.45 154.92,-11.58 156.86,-4.85"/>
</a>
</g>
</g>
<!-- 2 -->
<g id="node2" class="node">
<title>2</title>
<g id="a_node2"><a xlink:title="Heap">
<polygon fill="#ffffff" stroke="black" points="110.5,-108 56.5,-108 56.5,-72 110.5,-72 110.5,-108"/>
<text text-anchor="middle" x="83.5" y="-86.3" font-family="Times,serif" font-size="14.00">Heap</text>
</a>
</g>
</g>
<!-- 2&#45;&gt;3 -->
<g id="edge2" class="edge">
<title>2&#45;&gt;3</title>
<g id="a_edge2"><a xlink:title="usage">
<path fill="none" stroke="#1414ce" d="M83.5,-71.7C83.5,-63.98 83.5,-54.71 83.5,-46.11"/>
<polygon fill="#1414ce" stroke="#1414ce" points="87,-46.1 83.5,-36.1 80,-46.1 87,-46.1"/>
</a>
</g>
</g>
<!-- 1 -->
<g id="node3" class="node">
<title>1</title>
<g id="a_node3"><a xlink:title="CharDataToBytesAcc">
<polygon fill="#bfbfbf" stroke="black" points="167,-180 0,-180 0,-144 167,-144 167,-180"/>
<text text-anchor="middle" x="83.5" y="-158.3" font-family="Times,serif" font-size="14.00">CharDataToBytesAcc</text>
</a>
</g>
</g>
<!-- 1&#45;&gt;2 -->
<g id="edge3" class="edge">
<title>1&#45;&gt;2</title>
<g id="a_edge3"><a xlink:title="usage">
<path fill="none" stroke="#1414ce" d="M83.5,-143.7C83.5,-135.98 83.5,-126.71 83.5,-118.11"/>
<polygon fill="#1414ce" stroke="#1414ce" points="87,-118.1 83.5,-108.1 80,-118.1 87,-118.1"/>
</a>
</g>
</g>
</g>
</svg>
