<?xml version="1.0" encoding="UTF-8" standalone="no"?>
<!DOCTYPE svg PUBLIC "-//W3C//DTD SVG 1.1//EN"
 "http://www.w3.org/Graphics/SVG/1.1/DTD/svg11.dtd">
<!-- Generated by graphviz version 2.43.0 (0)
 -->
<!-- Title: %3 Pages: 1 -->
<svg width="1471pt" height="692pt"
 viewBox="0.00 0.00 1471.00 692.00" xmlns="http://www.w3.org/2000/svg" xmlns:xlink="http://www.w3.org/1999/xlink">
<g id="graph0" class="graph" transform="scale(1 1) rotate(0) translate(4 688)">
<title>%3</title>
<polygon fill="transparent" stroke="transparent" points="-4,4 -4,-688 1467,-688 1467,4 -4,4"/>
<!-- 4 -->
<g id="node1" class="node">
<title>4</title>
<g id="a_node1"><a xlink:title="atom.h">
<polygon fill="#ffffff" stroke="black" points="1157,-180 1091,-180 1091,-144 1157,-144 1157,-180"/>
<text text-anchor="middle" x="1124" y="-158.3" font-family="Times,serif" font-size="14.00">atom.h</text>
</a>
</g>
</g>
<!-- 3 -->
<g id="node25" class="node">
<title>3</title>
<g id="a_node25"><a xlink:title="stdint.h">
<polygon fill="#ffffff" stroke="black" points="1259,-36 1187,-36 1187,0 1259,0 1259,-36"/>
<text text-anchor="middle" x="1223" y="-14.3" font-family="Times,serif" font-size="14.00">stdint.h</text>
</a>
</g>
</g>
<!-- 4&#45;&gt;3 -->
<g id="edge1" class="edge">
<title>4&#45;&gt;3</title>
<g id="a_edge1"><a xlink:title="include">
<path fill="none" stroke="#1414ce" d="M1135.94,-143.87C1153.19,-119.14 1185.18,-73.24 1205.21,-44.51"/>
<polygon fill="#1414ce" stroke="#1414ce" points="1208.17,-46.39 1211.02,-36.19 1202.43,-42.39 1208.17,-46.39"/>
</a>
</g>
</g>
<!-- 5 -->
<g id="node27" class="node">
<title>5</title>
<g id="a_node27"><a xlink:title="stdlib.h">
<polygon fill="#ffffff" stroke="black" points="393.5,-108 322.5,-108 322.5,-72 393.5,-72 393.5,-108"/>
<text text-anchor="middle" x="358" y="-86.3" font-family="Times,serif" font-size="14.00">stdlib.h</text>
</a>
</g>
</g>
<!-- 4&#45;&gt;5 -->
<g id="edge2" class="edge">
<title>4&#45;&gt;5</title>
<g id="a_edge2"><a xlink:title="include">
<path fill="none" stroke="#1414ce" d="M1090.55,-158.68C959.14,-149.54 481.98,-116.22 403.71,-107.23"/>
<polygon fill="#1414ce" stroke="#1414ce" points="404.14,-103.75 393.75,-105.8 403.15,-110.68 404.14,-103.75"/>
</a>
</g>
</g>
<!-- 6 -->
<g id="node2" class="node">
<title>6</title>
<g id="a_node2"><a xlink:title="atom_table.h">
<polygon fill="#ffffff" stroke="black" points="1097.5,-252 988.5,-252 988.5,-216 1097.5,-216 1097.5,-252"/>
<text text-anchor="middle" x="1043" y="-230.3" font-family="Times,serif" font-size="14.00">atom_table.h</text>
</a>
</g>
</g>
<!-- 6&#45;&gt;4 -->
<g id="edge4" class="edge">
<title>6&#45;&gt;4</title>
<g id="a_edge4"><a xlink:title="include">
<path fill="none" stroke="#1414ce" d="M1063.02,-215.7C1073.13,-206.97 1085.54,-196.24 1096.52,-186.75"/>
<polygon fill="#1414ce" stroke="#1414ce" points="1098.93,-189.29 1104.21,-180.1 1094.35,-183.99 1098.93,-189.29"/>
</a>
</g>
</g>
<!-- 8 -->
<g id="node18" class="node">
<title>8</title>
<g id="a_node18"><a xlink:title="utils.h">
<polygon fill="#ffffff" stroke="black" points="530,-180 468,-180 468,-144 530,-144 530,-180"/>
<text text-anchor="middle" x="499" y="-158.3" font-family="Times,serif" font-size="14.00">utils.h</text>
</a>
</g>
</g>
<!-- 6&#45;&gt;8 -->
<g id="edge5" class="edge">
<title>6&#45;&gt;8</title>
<g id="a_edge5"><a xlink:title="include">
<path fill="none" stroke="#1414ce" d="M988.35,-225.97C879.29,-211.93 636.85,-180.74 540.06,-168.28"/>
<polygon fill="#1414ce" stroke="#1414ce" points="540.44,-164.8 530.08,-167 539.55,-171.75 540.44,-164.8"/>
</a>
</g>
</g>
<!-- 7 -->
<g id="node23" class="node">
<title>7</title>
<g id="a_node23"><a xlink:title="stdbool.h">
<polygon fill="#ffffff" stroke="black" points="751.5,-108 668.5,-108 668.5,-72 751.5,-72 751.5,-108"/>
<text text-anchor="middle" x="710" y="-86.3" font-family="Times,serif" font-size="14.00">stdbool.h</text>
</a>
</g>
</g>
<!-- 6&#45;&gt;7 -->
<g id="edge3" class="edge">
<title>6&#45;&gt;7</title>
<g id="a_edge3"><a xlink:title="include">
<path fill="none" stroke="#1414ce" d="M1015.38,-215.86C983.43,-196.54 928.82,-165.09 879,-144 840.6,-127.74 795.46,-113.83 761.49,-104.35"/>
<polygon fill="#1414ce" stroke="#1414ce" points="762.35,-100.96 751.78,-101.67 760.49,-107.71 762.35,-100.96"/>
</a>
</g>
</g>
<!-- 12 -->
<g id="node3" class="node">
<title>12</title>
<g id="a_node3"><a xlink:title="erl_nif.h">
<polygon fill="#ffffff" stroke="black" points="146,-180 72,-180 72,-144 146,-144 146,-180"/>
<text text-anchor="middle" x="109" y="-158.3" font-family="Times,serif" font-size="14.00">erl_nif.h</text>
</a>
</g>
</g>
<!-- 13 -->
<g id="node16" class="node">
<title>13</title>
<g id="a_node16"><a xlink:title="term_typedef.h">
<polygon fill="#ffffff" stroke="black" points="183.5,-108 58.5,-108 58.5,-72 183.5,-72 183.5,-108"/>
<text text-anchor="middle" x="121" y="-86.3" font-family="Times,serif" font-size="14.00">term_typedef.h</text>
</a>
</g>
</g>
<!-- 12&#45;&gt;13 -->
<g id="edge6" class="edge">
<title>12&#45;&gt;13</title>
<g id="a_edge6"><a xlink:title="include">
<path fill="none" stroke="#1414ce" d="M111.97,-143.7C113.29,-135.98 114.88,-126.71 116.35,-118.11"/>
<polygon fill="#1414ce" stroke="#1414ce" points="119.83,-118.55 118.07,-108.1 112.93,-117.37 119.83,-118.55"/>
</a>
</g>
</g>
<!-- 16 -->
<g id="node4" class="node">
<title>16</title>
<g id="a_node4"><a xlink:title="ets.h">
<polygon fill="#ffffff" stroke="black" points="902,-540 848,-540 848,-504 902,-504 902,-540"/>
<text text-anchor="middle" x="875" y="-518.3" font-family="Times,serif" font-size="14.00">ets.h</text>
</a>
</g>
</g>
<!-- 17 -->
<g id="node8" class="node">
<title>17</title>
<g id="a_node8"><a xlink:title="list.h">
<polygon fill="#ffffff" stroke="black" points="792,-180 738,-180 738,-144 792,-144 792,-180"/>
<text text-anchor="middle" x="765" y="-158.3" font-family="Times,serif" font-size="14.00">list.h</text>
</a>
</g>
</g>
<!-- 16&#45;&gt;17 -->
<g id="edge7" class="edge">
<title>16&#45;&gt;17</title>
<g id="a_edge7"><a xlink:title="include">
<path fill="none" stroke="#1414ce" d="M879.91,-503.76C892.88,-454.37 923.22,-309.89 864,-216 860.16,-209.92 827.84,-193.23 801.16,-180.19"/>
<polygon fill="#1414ce" stroke="#1414ce" points="802.53,-176.97 792.01,-175.75 799.48,-183.26 802.53,-176.97"/>
</a>
</g>
</g>
<!-- 18 -->
<g id="node14" class="node">
<title>18</title>
<g id="a_node14"><a xlink:title="synclist.h">
<polygon fill="#ffffff" stroke="black" points="855.5,-252 770.5,-252 770.5,-216 855.5,-216 855.5,-252"/>
<text text-anchor="middle" x="813" y="-230.3" font-family="Times,serif" font-size="14.00">synclist.h</text>
</a>
</g>
</g>
<!-- 16&#45;&gt;18 -->
<g id="edge8" class="edge">
<title>16&#45;&gt;18</title>
<g id="a_edge8"><a xlink:title="include">
<path fill="none" stroke="#1414ce" d="M871.31,-503.97C860.95,-456.19 831.56,-320.62 818.91,-262.27"/>
<polygon fill="#1414ce" stroke="#1414ce" points="822.29,-261.34 816.75,-252.31 815.45,-262.82 822.29,-261.34"/>
</a>
</g>
</g>
<!-- 20 -->
<g id="node15" class="node">
<title>20</title>
<g id="a_node15"><a xlink:title="term.h">
<polygon fill="#ffffff" stroke="black" points="481.5,-468 416.5,-468 416.5,-432 481.5,-432 481.5,-468"/>
<text text-anchor="middle" x="449" y="-446.3" font-family="Times,serif" font-size="14.00">term.h</text>
</a>
</g>
</g>
<!-- 16&#45;&gt;20 -->
<g id="edge9" class="edge">
<title>16&#45;&gt;20</title>
<g id="a_edge9"><a xlink:title="include">
<path fill="none" stroke="#1414ce" d="M847.7,-516.51C775.53,-504.66 579.23,-472.4 491.89,-458.05"/>
<polygon fill="#1414ce" stroke="#1414ce" points="492.23,-454.56 481.8,-456.39 491.1,-461.46 492.23,-454.56"/>
</a>
</g>
</g>
<!-- 1 -->
<g id="node5" class="node">
<title>1</title>
<g id="a_node5"><a xlink:title="/__w/AtomVM/AtomVM/src/libAtomVM/ets_hashtable.h">
<polygon fill="#bfbfbf" stroke="black" points="651.5,-684 246.5,-684 246.5,-648 651.5,-648 651.5,-684"/>
<text text-anchor="middle" x="449" y="-662.3" font-family="Times,serif" font-size="14.00">/__w/AtomVM/AtomVM/src/libAtomVM/ets_hashtable.h</text>
</a>
</g>
</g>
<!-- 2 -->
<g id="node6" class="node">
<title>2</title>
<g id="a_node6"><a xlink:title="globalcontext.h">
<polygon fill="#ffffff" stroke="black" points="1033.5,-612 906.5,-612 906.5,-576 1033.5,-576 1033.5,-612"/>
<text text-anchor="middle" x="970" y="-590.3" font-family="Times,serif" font-size="14.00">globalcontext.h</text>
</a>
</g>
</g>
<!-- 1&#45;&gt;2 -->
<g id="edge10" class="edge">
<title>1&#45;&gt;2</title>
<g id="a_edge10"><a xlink:title="include">
<path fill="none" stroke="#1414ce" d="M575.78,-647.97C676.26,-634.47 813.15,-616.07 896.36,-604.89"/>
<polygon fill="#1414ce" stroke="#1414ce" points="897.04,-608.33 906.48,-603.53 896.11,-601.4 897.04,-608.33"/>
</a>
</g>
</g>
<!-- 1&#45;&gt;20 -->
<g id="edge11" class="edge">
<title>1&#45;&gt;20</title>
<g id="a_edge11"><a xlink:title="include">
<path fill="none" stroke="#1414ce" d="M449,-647.85C449,-610.83 449,-523.18 449,-478.39"/>
<polygon fill="#1414ce" stroke="#1414ce" points="452.5,-478.23 449,-468.23 445.5,-478.23 452.5,-478.23"/>
</a>
</g>
</g>
<!-- 1&#45;&gt;5 -->
<g id="edge12" class="edge">
<title>1&#45;&gt;5</title>
<g id="a_edge12"><a xlink:title="include">
<path fill="none" stroke="#1414ce" d="M309.09,-647.99C177.31,-627.95 0,-588.76 0,-523 0,-523 0,-523 0,-233 0,-184.54 22.1,-170 63,-144 103.7,-118.12 240.15,-101.93 312.33,-94.97"/>
<polygon fill="#1414ce" stroke="#1414ce" points="312.87,-98.43 322.5,-94.01 312.21,-91.46 312.87,-98.43"/>
</a>
</g>
</g>
<!-- 2&#45;&gt;4 -->
<g id="edge14" class="edge">
<title>2&#45;&gt;4</title>
<g id="a_edge14"><a xlink:title="include">
<path fill="none" stroke="#1414ce" d="M1032.18,-575.97C1088.93,-556.19 1164,-517.47 1164,-451 1164,-451 1164,-451 1164,-305 1164,-263.48 1147.96,-217.61 1136.2,-189.54"/>
<polygon fill="#1414ce" stroke="#1414ce" points="1139.27,-187.84 1132.09,-180.05 1132.85,-190.62 1139.27,-187.84"/>
</a>
</g>
</g>
<!-- 2&#45;&gt;6 -->
<g id="edge15" class="edge">
<title>2&#45;&gt;6</title>
<g id="a_edge15"><a xlink:title="include">
<path fill="none" stroke="#1414ce" d="M991.41,-575.86C1002.01,-566.33 1014.19,-553.65 1022,-540 1042.34,-504.44 1046,-491.97 1046,-451 1046,-451 1046,-451 1046,-377 1046,-336.99 1044.79,-290.65 1043.91,-262.08"/>
<polygon fill="#1414ce" stroke="#1414ce" points="1047.41,-261.93 1043.59,-252.05 1040.41,-262.15 1047.41,-261.93"/>
</a>
</g>
</g>
<!-- 2&#45;&gt;12 -->
<g id="edge16" class="edge">
<title>2&#45;&gt;12</title>
<g id="a_edge16"><a xlink:title="include">
<path fill="none" stroke="#1414ce" d="M906.31,-590.03C696.14,-579.38 38,-539.03 38,-451 38,-451 38,-451 38,-305 38,-260.48 66.26,-215.61 87.13,-188.56"/>
<polygon fill="#1414ce" stroke="#1414ce" points="90.11,-190.43 93.59,-180.42 84.63,-186.07 90.11,-190.43"/>
</a>
</g>
</g>
<!-- 2&#45;&gt;16 -->
<g id="edge17" class="edge">
<title>2&#45;&gt;16</title>
<g id="a_edge17"><a xlink:title="include">
<path fill="none" stroke="#1414ce" d="M946.52,-575.7C934.44,-566.8 919.55,-555.82 906.48,-546.2"/>
<polygon fill="#1414ce" stroke="#1414ce" points="908.34,-543.22 898.21,-540.1 904.19,-548.85 908.34,-543.22"/>
</a>
</g>
</g>
<!-- 2&#45;&gt;17 -->
<g id="edge18" class="edge">
<title>2&#45;&gt;17</title>
<g id="a_edge18"><a xlink:title="include">
<path fill="none" stroke="#1414ce" d="M970,-575.95C970,-549.29 970,-496.11 970,-451 970,-451 970,-451 970,-377 970,-296.5 946.14,-270.62 887,-216 858.7,-189.87 841.41,-195.77 801.52,-179.93"/>
<polygon fill="#1414ce" stroke="#1414ce" points="802.64,-176.61 792.07,-175.94 799.92,-183.05 802.64,-176.61"/>
</a>
</g>
</g>
<!-- 27 -->
<g id="node9" class="node">
<title>27</title>
<g id="a_node9"><a xlink:title="mailbox.h">
<polygon fill="#ffffff" stroke="black" points="600,-252 514,-252 514,-216 600,-216 600,-252"/>
<text text-anchor="middle" x="557" y="-230.3" font-family="Times,serif" font-size="14.00">mailbox.h</text>
</a>
</g>
</g>
<!-- 2&#45;&gt;27 -->
<g id="edge19" class="edge">
<title>2&#45;&gt;27</title>
<g id="a_edge19"><a xlink:title="include">
<path fill="none" stroke="#1414ce" d="M906.29,-586.76C827.59,-575.14 704,-542.35 704,-451 704,-451 704,-451 704,-377 704,-320.85 647.83,-279.86 604.93,-256.74"/>
<polygon fill="#1414ce" stroke="#1414ce" points="606.49,-253.61 596.01,-252.08 603.25,-259.81 606.49,-253.61"/>
</a>
</g>
</g>
<!-- 19 -->
<g id="node13" class="node">
<title>19</title>
<g id="a_node13"><a xlink:title="smp.h">
<polygon fill="#ffffff" stroke="black" points="870,-180 810,-180 810,-144 870,-144 870,-180"/>
<text text-anchor="middle" x="840" y="-158.3" font-family="Times,serif" font-size="14.00">smp.h</text>
</a>
</g>
</g>
<!-- 2&#45;&gt;19 -->
<g id="edge20" class="edge">
<title>2&#45;&gt;19</title>
<g id="a_edge20"><a xlink:title="include">
<path fill="none" stroke="#1414ce" d="M977.69,-575.91C988.79,-549.62 1008,-497.45 1008,-451 1008,-451 1008,-451 1008,-377 1008,-298.62 993.69,-269.06 936,-216 926.76,-207.5 901.58,-193.7 879.32,-182.31"/>
<polygon fill="#1414ce" stroke="#1414ce" points="880.84,-179.16 870.34,-177.76 877.68,-185.4 880.84,-179.16"/>
</a>
</g>
</g>
<!-- 2&#45;&gt;18 -->
<g id="edge21" class="edge">
<title>2&#45;&gt;18</title>
<g id="a_edge21"><a xlink:title="include">
<path fill="none" stroke="#1414ce" d="M910.14,-575.96C854.45,-556.01 780,-516.99 780,-451 780,-451 780,-451 780,-377 780,-335.97 793.23,-289.97 802.94,-261.74"/>
<polygon fill="#1414ce" stroke="#1414ce" points="806.28,-262.78 806.32,-252.19 799.68,-260.45 806.28,-262.78"/>
</a>
</g>
</g>
<!-- 2&#45;&gt;20 -->
<g id="edge22" class="edge">
<title>2&#45;&gt;20</title>
<g id="a_edge22"><a xlink:title="include">
<path fill="none" stroke="#1414ce" d="M906.48,-584.07C849.27,-575.3 763.18,-560.29 690,-540 618.63,-520.21 538.44,-488.65 490.91,-468.91"/>
<polygon fill="#1414ce" stroke="#1414ce" points="492.14,-465.63 481.56,-465.01 489.44,-472.09 492.14,-465.63"/>
</a>
</g>
</g>
<!-- 28 -->
<g id="node17" class="node">
<title>28</title>
<g id="a_node17"><a xlink:title="timer_list.h">
<polygon fill="#ffffff" stroke="black" points="1290,-252 1192,-252 1192,-216 1290,-216 1290,-252"/>
<text text-anchor="middle" x="1241" y="-230.3" font-family="Times,serif" font-size="14.00">timer_list.h</text>
</a>
</g>
</g>
<!-- 2&#45;&gt;28 -->
<g id="edge23" class="edge">
<title>2&#45;&gt;28</title>
<g id="a_edge23"><a xlink:title="include">
<path fill="none" stroke="#1414ce" d="M1033.96,-590.49C1078.63,-585.69 1137.31,-572.95 1178,-540 1212.29,-512.23 1222,-495.13 1222,-451 1222,-451 1222,-451 1222,-377 1222,-336.86 1229.55,-290.9 1235.13,-262.4"/>
<polygon fill="#1414ce" stroke="#1414ce" points="1238.61,-262.88 1237.16,-252.39 1231.74,-261.5 1238.61,-262.88"/>
</a>
</g>
</g>
<!-- 29 -->
<g id="node19" class="node">
<title>29</title>
<g id="a_node19"><a xlink:title="valueshashtable.h">
<polygon fill="#ffffff" stroke="black" points="1435,-180 1289,-180 1289,-144 1435,-144 1435,-180"/>
<text text-anchor="middle" x="1362" y="-158.3" font-family="Times,serif" font-size="14.00">valueshashtable.h</text>
</a>
</g>
</g>
<!-- 2&#45;&gt;29 -->
<g id="edge24" class="edge">
<title>2&#45;&gt;29</title>
<g id="a_edge24"><a xlink:title="include">
<path fill="none" stroke="#1414ce" d="M1033.53,-583.35C1144.04,-564.75 1360,-519.63 1360,-451 1360,-451 1360,-451 1360,-305 1360,-264.99 1360.8,-218.65 1361.39,-190.08"/>
<polygon fill="#1414ce" stroke="#1414ce" points="1364.89,-190.12 1361.6,-180.05 1357.89,-189.97 1364.89,-190.12"/>
</a>
</g>
</g>
<!-- 2&#45;&gt;3 -->
<g id="edge13" class="edge">
<title>2&#45;&gt;3</title>
<g id="a_edge13"><a xlink:title="include">
<path fill="none" stroke="#1414ce" d="M1033.69,-588.08C1166.97,-576.04 1463,-539.35 1463,-451 1463,-451 1463,-451 1463,-161 1463,-71.83 1338.76,-37.46 1269.06,-25.2"/>
<polygon fill="#1414ce" stroke="#1414ce" points="1269.63,-21.75 1259.19,-23.55 1268.47,-28.65 1269.63,-21.75"/>
</a>
</g>
</g>
<!-- 23 -->
<g id="node7" class="node">
<title>23</title>
<g id="a_node7"><a xlink:title="intn.h">
<polygon fill="#ffffff" stroke="black" points="507.5,-396 448.5,-396 448.5,-360 507.5,-360 507.5,-396"/>
<text text-anchor="middle" x="478" y="-374.3" font-family="Times,serif" font-size="14.00">intn.h</text>
</a>
</g>
</g>
<!-- 23&#45;&gt;8 -->
<g id="edge27" class="edge">
<title>23&#45;&gt;8</title>
<g id="a_edge27"><a xlink:title="include">
<path fill="none" stroke="#1414ce" d="M450.66,-359.77C438.89,-350.72 426.38,-338.48 420,-324 413.55,-309.36 415.55,-303.37 420,-288 431.11,-249.62 457.92,-211.7 477.22,-187.87"/>
<polygon fill="#1414ce" stroke="#1414ce" points="480.01,-189.99 483.7,-180.05 474.62,-185.52 480.01,-189.99"/>
</a>
</g>
</g>
<!-- 23&#45;&gt;7 -->
<g id="edge25" class="edge">
<title>23&#45;&gt;7</title>
<g id="a_edge25"><a xlink:title="include">
<path fill="none" stroke="#1414ce" d="M476.55,-359.86C474.78,-328.54 475.1,-261.12 505,-216 524.86,-186.03 611.06,-139.68 665.16,-112.65"/>
<polygon fill="#1414ce" stroke="#1414ce" points="666.8,-115.74 674.2,-108.15 663.69,-109.47 666.8,-115.74"/>
</a>
</g>
</g>
<!-- 22 -->
<g id="node28" class="node">
<title>22</title>
<g id="a_node28"><a xlink:title="string.h">
<polygon fill="#ffffff" stroke="black" points="329.5,-324 256.5,-324 256.5,-288 329.5,-288 329.5,-324"/>
<text text-anchor="middle" x="293" y="-302.3" font-family="Times,serif" font-size="14.00">string.h</text>
</a>
</g>
</g>
<!-- 23&#45;&gt;22 -->
<g id="edge26" class="edge">
<title>23&#45;&gt;22</title>
<g id="a_edge26"><a xlink:title="include">
<path fill="none" stroke="#1414ce" d="M448.28,-365.75C418.9,-354.64 373.53,-337.47 339.4,-324.56"/>
<polygon fill="#1414ce" stroke="#1414ce" points="340.25,-321.13 329.65,-320.87 337.77,-327.68 340.25,-321.13"/>
</a>
</g>
</g>
<!-- 17&#45;&gt;7 -->
<g id="edge28" class="edge">
<title>17&#45;&gt;7</title>
<g id="a_edge28"><a xlink:title="include">
<path fill="none" stroke="#1414ce" d="M751.4,-143.7C744.88,-135.39 736.93,-125.28 729.75,-116.14"/>
<polygon fill="#1414ce" stroke="#1414ce" points="732.37,-113.81 723.44,-108.1 726.87,-118.13 732.37,-113.81"/>
</a>
</g>
</g>
<!-- 27&#45;&gt;17 -->
<g id="edge30" class="edge">
<title>27&#45;&gt;17</title>
<g id="a_edge30"><a xlink:title="include">
<path fill="none" stroke="#1414ce" d="M600.1,-218.5C637.95,-205.76 692.42,-187.43 728.25,-175.37"/>
<polygon fill="#1414ce" stroke="#1414ce" points="729.47,-178.65 737.83,-172.14 727.23,-172.02 729.47,-178.65"/>
</a>
</g>
</g>
<!-- 27&#45;&gt;13 -->
<g id="edge31" class="edge">
<title>27&#45;&gt;13</title>
<g id="a_edge31"><a xlink:title="include">
<path fill="none" stroke="#1414ce" d="M513.6,-218.87C435.85,-193.54 272.59,-140.37 183.04,-111.2"/>
<polygon fill="#1414ce" stroke="#1414ce" points="183.88,-107.8 173.28,-108.03 181.71,-114.45 183.88,-107.8"/>
</a>
</g>
</g>
<!-- 27&#45;&gt;8 -->
<g id="edge32" class="edge">
<title>27&#45;&gt;8</title>
<g id="a_edge32"><a xlink:title="include">
<path fill="none" stroke="#1414ce" d="M542.66,-215.7C535.71,-207.3 527.23,-197.07 519.6,-187.86"/>
<polygon fill="#1414ce" stroke="#1414ce" points="522.25,-185.57 513.17,-180.1 516.86,-190.04 522.25,-185.57"/>
</a>
</g>
</g>
<!-- 27&#45;&gt;7 -->
<g id="edge29" class="edge">
<title>27&#45;&gt;7</title>
<g id="a_edge29"><a xlink:title="include">
<path fill="none" stroke="#1414ce" d="M575.46,-215.87C602.57,-190.71 653.27,-143.65 684.1,-115.04"/>
<polygon fill="#1414ce" stroke="#1414ce" points="686.53,-117.56 691.48,-108.19 681.77,-112.43 686.53,-117.56"/>
</a>
</g>
</g>
<!-- 24 -->
<g id="node10" class="node">
<title>24</title>
<g id="a_node10"><a xlink:title="memory.h">
<polygon fill="#ffffff" stroke="black" points="266,-252 180,-252 180,-216 266,-216 266,-252"/>
<text text-anchor="middle" x="223" y="-230.3" font-family="Times,serif" font-size="14.00">memory.h</text>
</a>
</g>
</g>
<!-- 24&#45;&gt;12 -->
<g id="edge35" class="edge">
<title>24&#45;&gt;12</title>
<g id="a_edge35"><a xlink:title="include">
<path fill="none" stroke="#1414ce" d="M195.11,-215.88C180.21,-206.72 161.67,-195.34 145.62,-185.48"/>
<polygon fill="#1414ce" stroke="#1414ce" points="147.35,-182.44 136.99,-180.19 143.69,-188.41 147.35,-182.44"/>
</a>
</g>
</g>
<!-- 24&#45;&gt;13 -->
<g id="edge36" class="edge">
<title>24&#45;&gt;13</title>
<g id="a_edge36"><a xlink:title="include">
<path fill="none" stroke="#1414ce" d="M210.7,-215.87C192.93,-191.14 159.96,-145.24 139.33,-116.51"/>
<polygon fill="#1414ce" stroke="#1414ce" points="142.02,-114.27 133.35,-108.19 136.34,-118.35 142.02,-114.27"/>
</a>
</g>
</g>
<!-- 24&#45;&gt;8 -->
<g id="edge37" class="edge">
<title>24&#45;&gt;8</title>
<g id="a_edge37"><a xlink:title="include">
<path fill="none" stroke="#1414ce" d="M266.12,-222.06C318.57,-208.76 406.46,-186.47 457.95,-173.41"/>
<polygon fill="#1414ce" stroke="#1414ce" points="458.91,-176.78 467.74,-170.93 457.19,-169.99 458.91,-176.78"/>
</a>
</g>
</g>
<!-- 24&#45;&gt;3 -->
<g id="edge33" class="edge">
<title>24&#45;&gt;3</title>
<g id="a_edge33"><a xlink:title="include">
<path fill="none" stroke="#1414ce" d="M226.76,-215.76C235.29,-181.37 259.64,-104.75 313,-72 386.94,-26.62 1001.83,-20.1 1176.74,-19.16"/>
<polygon fill="#1414ce" stroke="#1414ce" points="1176.92,-22.66 1186.91,-19.11 1176.89,-15.66 1176.92,-22.66"/>
</a>
</g>
</g>
<!-- 24&#45;&gt;5 -->
<g id="edge34" class="edge">
<title>24&#45;&gt;5</title>
<g id="a_edge34"><a xlink:title="include">
<path fill="none" stroke="#1414ce" d="M239.28,-215.87C263,-190.92 307.19,-144.45 334.45,-115.77"/>
<polygon fill="#1414ce" stroke="#1414ce" points="337.3,-117.85 341.66,-108.19 332.23,-113.03 337.3,-117.85"/>
</a>
</g>
</g>
<!-- 25 -->
<g id="node11" class="node">
<title>25</title>
<g id="a_node11"><a xlink:title="refc_binary.h">
<polygon fill="#ffffff" stroke="black" points="634,-396 526,-396 526,-360 634,-360 634,-396"/>
<text text-anchor="middle" x="580" y="-374.3" font-family="Times,serif" font-size="14.00">refc_binary.h</text>
</a>
</g>
</g>
<!-- 25&#45;&gt;17 -->
<g id="edge40" class="edge">
<title>25&#45;&gt;17</title>
<g id="a_edge40"><a xlink:title="include">
<path fill="none" stroke="#1414ce" d="M602.24,-359.9C614.52,-350 629.73,-336.96 642,-324 683.77,-279.87 725.18,-221.98 747.69,-189"/>
<polygon fill="#1414ce" stroke="#1414ce" points="750.81,-190.63 753.53,-180.39 745.02,-186.71 750.81,-190.63"/>
</a>
</g>
</g>
<!-- 26 -->
<g id="node12" class="node">
<title>26</title>
<g id="a_node12"><a xlink:title="resources.h">
<polygon fill="#ffffff" stroke="black" points="600,-324 500,-324 500,-288 600,-288 600,-324"/>
<text text-anchor="middle" x="550" y="-302.3" font-family="Times,serif" font-size="14.00">resources.h</text>
</a>
</g>
</g>
<!-- 25&#45;&gt;26 -->
<g id="edge41" class="edge">
<title>25&#45;&gt;26</title>
<g id="a_edge41"><a xlink:title="include">
<path fill="none" stroke="#1414ce" d="M572.58,-359.7C569.21,-351.81 565.13,-342.3 561.38,-333.55"/>
<polygon fill="#1414ce" stroke="#1414ce" points="564.49,-331.92 557.33,-324.1 558.05,-334.67 564.49,-331.92"/>
</a>
</g>
</g>
<!-- 25&#45;&gt;7 -->
<g id="edge38" class="edge">
<title>25&#45;&gt;7</title>
<g id="a_edge38"><a xlink:title="include">
<path fill="none" stroke="#1414ce" d="M590.08,-359.55C595.85,-349.31 603.1,-336.06 609,-324 644.94,-250.51 681.84,-161.15 699.43,-117.53"/>
<polygon fill="#1414ce" stroke="#1414ce" points="702.7,-118.78 703.18,-108.2 696.2,-116.17 702.7,-118.78"/>
</a>
</g>
</g>
<!-- 25&#45;&gt;5 -->
<g id="edge39" class="edge">
<title>25&#45;&gt;5</title>
<g id="a_edge39"><a xlink:title="include">
<path fill="none" stroke="#1414ce" d="M542.57,-359.94C525.5,-350.92 505.84,-338.67 491,-324 428.36,-262.07 385.68,-164.48 367.66,-117.72"/>
<polygon fill="#1414ce" stroke="#1414ce" points="370.9,-116.39 364.1,-108.28 364.36,-118.87 370.9,-116.39"/>
</a>
</g>
</g>
<!-- 26&#45;&gt;12 -->
<g id="edge43" class="edge">
<title>26&#45;&gt;12</title>
<g id="a_edge43"><a xlink:title="include">
<path fill="none" stroke="#1414ce" d="M499.66,-300.22C403,-290.72 198.53,-268.9 171,-252 147.31,-237.45 130.33,-210.09 120.19,-189.53"/>
<polygon fill="#1414ce" stroke="#1414ce" points="123.3,-187.92 115.89,-180.35 116.96,-190.89 123.3,-187.92"/>
</a>
</g>
</g>
<!-- 26&#45;&gt;17 -->
<g id="edge44" class="edge">
<title>26&#45;&gt;17</title>
<g id="a_edge44"><a xlink:title="include">
<path fill="none" stroke="#1414ce" d="M575.93,-287.87C614.59,-262.34 687.4,-214.25 730.51,-185.78"/>
<polygon fill="#1414ce" stroke="#1414ce" points="732.56,-188.62 738.97,-180.19 728.7,-182.78 732.56,-188.62"/>
</a>
</g>
</g>
<!-- 26&#45;&gt;27 -->
<g id="edge45" class="edge">
<title>26&#45;&gt;27</title>
<g id="a_edge45"><a xlink:title="include">
<path fill="none" stroke="#1414ce" d="M551.73,-287.7C552.5,-279.98 553.43,-270.71 554.29,-262.11"/>
<polygon fill="#1414ce" stroke="#1414ce" points="557.78,-262.4 555.29,-252.1 550.81,-261.71 557.78,-262.4"/>
</a>
</g>
</g>
<!-- 26&#45;&gt;24 -->
<g id="edge46" class="edge">
<title>26&#45;&gt;24</title>
<g id="a_edge46"><a xlink:title="include">
<path fill="none" stroke="#1414ce" d="M499.98,-294.29C439.48,-281.34 338.06,-259.63 276.18,-246.38"/>
<polygon fill="#1414ce" stroke="#1414ce" points="276.73,-242.92 266.22,-244.25 275.27,-249.77 276.73,-242.92"/>
</a>
</g>
</g>
<!-- 26&#45;&gt;18 -->
<g id="edge47" class="edge">
<title>26&#45;&gt;18</title>
<g id="a_edge47"><a xlink:title="include">
<path fill="none" stroke="#1414ce" d="M600.09,-291.67C646.05,-279.44 713.88,-261.38 760.56,-248.96"/>
<polygon fill="#1414ce" stroke="#1414ce" points="761.72,-252.27 770.48,-246.32 759.92,-245.51 761.72,-252.27"/>
</a>
</g>
</g>
<!-- 26&#45;&gt;5 -->
<g id="edge42" class="edge">
<title>26&#45;&gt;5</title>
<g id="a_edge42"><a xlink:title="include">
<path fill="none" stroke="#1414ce" d="M534.61,-287.85C500.77,-250.13 419.75,-159.83 380.32,-115.88"/>
<polygon fill="#1414ce" stroke="#1414ce" points="382.74,-113.34 373.46,-108.23 377.53,-118.01 382.74,-113.34"/>
</a>
</g>
</g>
<!-- 19&#45;&gt;7 -->
<g id="edge48" class="edge">
<title>19&#45;&gt;7</title>
<g id="a_edge48"><a xlink:title="include">
<path fill="none" stroke="#1414ce" d="M809.85,-144.76C792.24,-135.28 769.78,-123.19 750.62,-112.87"/>
<polygon fill="#1414ce" stroke="#1414ce" points="752.27,-109.78 741.8,-108.12 748.95,-115.95 752.27,-109.78"/>
</a>
</g>
</g>
<!-- 18&#45;&gt;17 -->
<g id="edge50" class="edge">
<title>18&#45;&gt;17</title>
<g id="a_edge50"><a xlink:title="include">
<path fill="none" stroke="#1414ce" d="M801.13,-215.7C795.5,-207.47 788.65,-197.48 782.43,-188.42"/>
<polygon fill="#1414ce" stroke="#1414ce" points="785.27,-186.37 776.73,-180.1 779.5,-190.33 785.27,-186.37"/>
</a>
</g>
</g>
<!-- 18&#45;&gt;19 -->
<g id="edge51" class="edge">
<title>18&#45;&gt;19</title>
<g id="a_edge51"><a xlink:title="include">
<path fill="none" stroke="#1414ce" d="M819.67,-215.7C822.71,-207.81 826.38,-198.3 829.76,-189.55"/>
<polygon fill="#1414ce" stroke="#1414ce" points="833.07,-190.69 833.4,-180.1 826.54,-188.17 833.07,-190.69"/>
</a>
</g>
</g>
<!-- 11 -->
<g id="node26" class="node">
<title>11</title>
<g id="a_node26"><a xlink:title="stdio.h">
<polygon fill="#ffffff" stroke="black" points="476.5,-108 411.5,-108 411.5,-72 476.5,-72 476.5,-108"/>
<text text-anchor="middle" x="444" y="-86.3" font-family="Times,serif" font-size="14.00">stdio.h</text>
</a>
</g>
</g>
<!-- 18&#45;&gt;11 -->
<g id="edge49" class="edge">
<title>18&#45;&gt;11</title>
<g id="a_edge49"><a xlink:title="include">
<path fill="none" stroke="#1414ce" d="M770.31,-216.57C699.1,-189.17 556.93,-134.46 486.11,-107.2"/>
<polygon fill="#1414ce" stroke="#1414ce" points="487.2,-103.87 476.61,-103.55 484.68,-110.41 487.2,-103.87"/>
</a>
</g>
</g>
<!-- 20&#45;&gt;4 -->
<g id="edge58" class="edge">
<title>20&#45;&gt;4</title>
<g id="a_edge58"><a xlink:title="include">
<path fill="none" stroke="#1414ce" d="M481.57,-447.79C538.97,-444.71 661.05,-433.87 756,-396 836.38,-363.95 837.92,-320.79 918,-288 996.73,-255.77 1045.53,-311.84 1106,-252 1122.07,-236.09 1125.78,-210.07 1125.94,-190.26"/>
<polygon fill="#1414ce" stroke="#1414ce" points="1129.44,-189.92 1125.72,-180 1122.44,-190.07 1129.44,-189.92"/>
</a>
</g>
</g>
<!-- 20&#45;&gt;23 -->
<g id="edge59" class="edge">
<title>20&#45;&gt;23</title>
<g id="a_edge59"><a xlink:title="include">
<path fill="none" stroke="#1414ce" d="M456.17,-431.7C459.43,-423.81 463.37,-414.3 467,-405.55"/>
<polygon fill="#1414ce" stroke="#1414ce" points="470.32,-406.68 470.91,-396.1 463.85,-404 470.32,-406.68"/>
</a>
</g>
</g>
<!-- 20&#45;&gt;24 -->
<g id="edge60" class="edge">
<title>20&#45;&gt;24</title>
<g id="a_edge60"><a xlink:title="include">
<path fill="none" stroke="#1414ce" d="M416.07,-446.52C357.48,-441.34 238.94,-427.2 214,-396 183.45,-357.79 198.8,-296.73 211.62,-261.81"/>
<polygon fill="#1414ce" stroke="#1414ce" points="214.96,-262.87 215.3,-252.28 208.43,-260.35 214.96,-262.87"/>
</a>
</g>
</g>
<!-- 20&#45;&gt;25 -->
<g id="edge61" class="edge">
<title>20&#45;&gt;25</title>
<g id="a_edge61"><a xlink:title="include">
<path fill="none" stroke="#1414ce" d="M481.05,-431.88C498.49,-422.55 520.27,-410.92 538.94,-400.94"/>
<polygon fill="#1414ce" stroke="#1414ce" points="540.66,-403.99 547.83,-396.19 537.36,-397.82 540.66,-403.99"/>
</a>
</g>
</g>
<!-- 20&#45;&gt;13 -->
<g id="edge63" class="edge">
<title>20&#45;&gt;13</title>
<g id="a_edge63"><a xlink:title="include">
<path fill="none" stroke="#1414ce" d="M416.44,-446.69C350.1,-441.41 202.24,-426.47 163,-396 79.44,-331.12 85.75,-283.31 63,-180 59.56,-164.37 56.55,-158.64 63,-144 67.99,-132.69 76.71,-122.74 85.9,-114.62"/>
<polygon fill="#1414ce" stroke="#1414ce" points="88.17,-117.28 93.66,-108.23 83.72,-111.88 88.17,-117.28"/>
</a>
</g>
</g>
<!-- 20&#45;&gt;8 -->
<g id="edge62" class="edge">
<title>20&#45;&gt;8</title>
<g id="a_edge62"><a xlink:title="include">
<path fill="none" stroke="#1414ce" d="M440.81,-431.8C427.84,-402.55 404.76,-341.14 412,-288 416.49,-255.09 413.63,-243.67 432,-216 439.65,-204.48 450.61,-194.32 461.46,-186.06"/>
<polygon fill="#1414ce" stroke="#1414ce" points="463.63,-188.82 469.68,-180.12 459.53,-183.14 463.63,-188.82"/>
</a>
</g>
</g>
<!-- 20&#45;&gt;7 -->
<g id="edge53" class="edge">
<title>20&#45;&gt;7</title>
<g id="a_edge53"><a xlink:title="include">
<path fill="none" stroke="#1414ce" d="M481.83,-449.62C524.99,-448.57 600.34,-439.98 643,-396 717.98,-318.7 716.94,-177.73 712.71,-118.44"/>
<polygon fill="#1414ce" stroke="#1414ce" points="716.19,-118.04 711.9,-108.35 709.21,-118.6 716.19,-118.04"/>
</a>
</g>
</g>
<!-- 20&#45;&gt;3 -->
<g id="edge54" class="edge">
<title>20&#45;&gt;3</title>
<g id="a_edge54"><a xlink:title="include">
<path fill="none" stroke="#1414ce" d="M481.7,-446.82C625.28,-436.5 1197.24,-387.28 1299,-252 1308.62,-239.21 1302.85,-231.53 1299,-216 1294.65,-198.44 1287.11,-196.64 1280,-180 1260.13,-133.47 1261.33,-119.54 1244,-72 1240.83,-63.31 1237.18,-53.9 1233.82,-45.46"/>
<polygon fill="#1414ce" stroke="#1414ce" points="1237.03,-44.07 1230.05,-36.09 1230.54,-46.68 1237.03,-44.07"/>
</a>
</g>
</g>
<!-- 20&#45;&gt;11 -->
<g id="edge55" class="edge">
<title>20&#45;&gt;11</title>
<g id="a_edge55"><a xlink:title="include">
<path fill="none" stroke="#1414ce" d="M416.43,-447.73C377.45,-444.5 312.5,-433.42 273,-396 248.3,-372.6 252.87,-357.51 247,-324 244.24,-308.24 240.88,-302.78 247,-288 256.05,-266.16 366.13,-162.82 417.68,-115.17"/>
<polygon fill="#1414ce" stroke="#1414ce" points="420.16,-117.65 425.14,-108.29 415.41,-112.5 420.16,-117.65"/>
</a>
</g>
</g>
<!-- 20&#45;&gt;5 -->
<g id="edge56" class="edge">
<title>20&#45;&gt;5</title>
<g id="a_edge56"><a xlink:title="include">
<path fill="none" stroke="#1414ce" d="M416.37,-446.69C354.86,-441.63 225.19,-427.44 195,-396 139.1,-337.79 134.2,-287.83 171,-216 199.92,-159.54 267.43,-124.4 312.92,-106.26"/>
<polygon fill="#1414ce" stroke="#1414ce" points="314.2,-109.52 322.27,-102.64 311.68,-102.99 314.2,-109.52"/>
</a>
</g>
</g>
<!-- 20&#45;&gt;22 -->
<g id="edge57" class="edge">
<title>20&#45;&gt;22</title>
<g id="a_edge57"><a xlink:title="include">
<path fill="none" stroke="#1414ce" d="M416.38,-449.02C377.8,-447.06 315.02,-437.25 285,-396 272.08,-378.24 275.89,-352.91 281.89,-333.81"/>
<polygon fill="#1414ce" stroke="#1414ce" points="285.25,-334.79 285.24,-324.2 278.64,-332.48 285.25,-334.79"/>
</a>
</g>
</g>
<!-- 21 -->
<g id="node29" class="node">
<title>21</title>
<g id="a_node29"><a xlink:title="sys/types.h">
<polygon fill="#ffffff" stroke="black" points="391.5,-396 294.5,-396 294.5,-360 391.5,-360 391.5,-396"/>
<text text-anchor="middle" x="343" y="-374.3" font-family="Times,serif" font-size="14.00">sys/types.h</text>
</a>
</g>
</g>
<!-- 20&#45;&gt;21 -->
<g id="edge52" class="edge">
<title>20&#45;&gt;21</title>
<g id="a_edge52"><a xlink:title="include">
<path fill="none" stroke="#1414ce" d="M423.07,-431.88C409.34,-422.81 392.29,-411.55 377.46,-401.76"/>
<polygon fill="#1414ce" stroke="#1414ce" points="379.3,-398.78 369.03,-396.19 375.45,-404.62 379.3,-398.78"/>
</a>
</g>
</g>
<!-- 14 -->
<g id="node20" class="node">
<title>14</title>
<g id="a_node20"><a xlink:title="assert.h">
<polygon fill="#ffffff" stroke="black" points="204,-36 130,-36 130,0 204,0 204,-36"/>
<text text-anchor="middle" x="167" y="-14.3" font-family="Times,serif" font-size="14.00">assert.h</text>
</a>
</g>
</g>
<!-- 13&#45;&gt;14 -->
<g id="edge64" class="edge">
<title>13&#45;&gt;14</title>
<g id="a_edge64"><a xlink:title="include">
<path fill="none" stroke="#1414ce" d="M132.37,-71.7C137.72,-63.56 144.2,-53.69 150.11,-44.7"/>
<polygon fill="#1414ce" stroke="#1414ce" points="153.19,-46.38 155.76,-36.1 147.34,-42.54 153.19,-46.38"/>
</a>
</g>
</g>
<!-- 9 -->
<g id="node21" class="node">
<title>9</title>
<g id="a_node21"><a xlink:title="inttypes.h">
<polygon fill="#ffffff" stroke="black" points="433.5,-36 344.5,-36 344.5,0 433.5,0 433.5,-36"/>
<text text-anchor="middle" x="389" y="-14.3" font-family="Times,serif" font-size="14.00">inttypes.h</text>
</a>
</g>
</g>
<!-- 13&#45;&gt;9 -->
<g id="edge66" class="edge">
<title>13&#45;&gt;9</title>
<g id="a_edge66"><a xlink:title="include">
<path fill="none" stroke="#1414ce" d="M183.83,-72.59C229.48,-60.67 290.64,-44.69 334.28,-33.29"/>
<polygon fill="#1414ce" stroke="#1414ce" points="335.35,-36.63 344.15,-30.72 333.59,-29.86 335.35,-36.63"/>
</a>
</g>
</g>
<!-- 15 -->
<g id="node22" class="node">
<title>15</title>
<g id="a_node22"><a xlink:title="limits.h">
<polygon fill="#ffffff" stroke="black" points="111.5,-36 40.5,-36 40.5,0 111.5,0 111.5,-36"/>
<text text-anchor="middle" x="76" y="-14.3" font-family="Times,serif" font-size="14.00">limits.h</text>
</a>
</g>
</g>
<!-- 13&#45;&gt;15 -->
<g id="edge65" class="edge">
<title>13&#45;&gt;15</title>
<g id="a_edge65"><a xlink:title="include">
<path fill="none" stroke="#1414ce" d="M109.88,-71.7C104.64,-63.56 98.3,-53.69 92.52,-44.7"/>
<polygon fill="#1414ce" stroke="#1414ce" points="95.35,-42.62 87,-36.1 89.46,-46.41 95.35,-42.62"/>
</a>
</g>
</g>
<!-- 13&#45;&gt;3 -->
<g id="edge67" class="edge">
<title>13&#45;&gt;3</title>
<g id="a_edge67"><a xlink:title="include">
<path fill="none" stroke="#1414ce" d="M183.88,-74.23C188.64,-73.38 193.39,-72.62 198,-72 573.12,-21.25 1031.49,-18.23 1176.64,-18.67"/>
<polygon fill="#1414ce" stroke="#1414ce" points="1176.93,-22.17 1186.94,-18.71 1176.95,-15.17 1176.93,-22.17"/>
</a>
</g>
</g>
<!-- 28&#45;&gt;17 -->
<g id="edge70" class="edge">
<title>28&#45;&gt;17</title>
<g id="a_edge70"><a xlink:title="include">
<path fill="none" stroke="#1414ce" d="M1191.96,-226.73C1166.35,-223.48 1134.49,-219.48 1106,-216 973.68,-199.86 934.05,-216.8 801.84,-179.71"/>
<polygon fill="#1414ce" stroke="#1414ce" points="802.74,-176.32 792.16,-176.94 800.81,-183.05 802.74,-176.32"/>
</a>
</g>
</g>
<!-- 28&#45;&gt;7 -->
<g id="edge68" class="edge">
<title>28&#45;&gt;7</title>
<g id="a_edge68"><a xlink:title="include">
<path fill="none" stroke="#1414ce" d="M1231.96,-215.86C1219.95,-194.97 1196.61,-160.45 1166,-144 1097.19,-107.02 866.41,-95.6 762.04,-92.28"/>
<polygon fill="#1414ce" stroke="#1414ce" points="761.85,-88.77 751.74,-91.96 761.63,-95.76 761.85,-88.77"/>
</a>
</g>
</g>
<!-- 28&#45;&gt;3 -->
<g id="edge69" class="edge">
<title>28&#45;&gt;3</title>
<g id="a_edge69"><a xlink:title="include">
<path fill="none" stroke="#1414ce" d="M1239.56,-215.85C1236.44,-178.83 1229.07,-91.18 1225.3,-46.39"/>
<polygon fill="#1414ce" stroke="#1414ce" points="1228.78,-45.9 1224.45,-36.23 1221.8,-46.49 1228.78,-45.9"/>
</a>
</g>
</g>
<!-- 8&#45;&gt;9 -->
<g id="edge71" class="edge">
<title>8&#45;&gt;9</title>
<g id="a_edge71"><a xlink:title="include">
<path fill="none" stroke="#1414ce" d="M500.54,-143.97C501.38,-124.75 499.99,-93.39 485,-72 474.68,-57.27 458.91,-46.2 443.11,-38.08"/>
<polygon fill="#1414ce" stroke="#1414ce" points="444.37,-34.81 433.84,-33.64 441.35,-41.12 444.37,-34.81"/>
</a>
</g>
</g>
<!-- 8&#45;&gt;7 -->
<g id="edge72" class="edge">
<title>8&#45;&gt;7</title>
<g id="a_edge72"><a xlink:title="include">
<path fill="none" stroke="#1414ce" d="M530.13,-150.67C563.92,-139.46 618.4,-121.39 658.56,-108.07"/>
<polygon fill="#1414ce" stroke="#1414ce" points="659.79,-111.34 668.18,-104.87 657.59,-104.7 659.79,-111.34"/>
</a>
</g>
</g>
<!-- 10 -->
<g id="node24" class="node">
<title>10</title>
<g id="a_node24"><a xlink:title="stddef.h">
<polygon fill="#ffffff" stroke="black" points="1363,-108 1289,-108 1289,-72 1363,-72 1363,-108"/>
<text text-anchor="middle" x="1326" y="-86.3" font-family="Times,serif" font-size="14.00">stddef.h</text>
</a>
</g>
</g>
<!-- 8&#45;&gt;10 -->
<g id="edge73" class="edge">
<title>8&#45;&gt;10</title>
<g id="a_edge73"><a xlink:title="include">
<path fill="none" stroke="#1414ce" d="M530.41,-158.34C656.47,-147.67 1126.14,-107.92 1278.18,-95.05"/>
<polygon fill="#1414ce" stroke="#1414ce" points="1278.9,-98.5 1288.57,-94.17 1278.31,-91.52 1278.9,-98.5"/>
</a>
</g>
</g>
<!-- 8&#45;&gt;11 -->
<g id="edge74" class="edge">
<title>8&#45;&gt;11</title>
<g id="a_edge74"><a xlink:title="include">
<path fill="none" stroke="#1414ce" d="M485.4,-143.7C478.88,-135.39 470.93,-125.28 463.75,-116.14"/>
<polygon fill="#1414ce" stroke="#1414ce" points="466.37,-113.81 457.44,-108.1 460.87,-118.13 466.37,-113.81"/>
</a>
</g>
</g>
<!-- 8&#45;&gt;5 -->
<g id="edge75" class="edge">
<title>8&#45;&gt;5</title>
<g id="a_edge75"><a xlink:title="include">
<path fill="none" stroke="#1414ce" d="M467.71,-145.46C448.27,-135.82 423.01,-123.27 401.62,-112.66"/>
<polygon fill="#1414ce" stroke="#1414ce" points="402.93,-109.4 392.42,-108.09 399.82,-115.67 402.93,-109.4"/>
</a>
</g>
</g>
<!-- 29&#45;&gt;10 -->
<g id="edge76" class="edge">
<title>29&#45;&gt;10</title>
<g id="a_edge76"><a xlink:title="include">
<path fill="none" stroke="#1414ce" d="M1353.1,-143.7C1349,-135.73 1344.05,-126.1 1339.51,-117.26"/>
<polygon fill="#1414ce" stroke="#1414ce" points="1342.48,-115.4 1334.8,-108.1 1336.26,-118.6 1342.48,-115.4"/>
</a>
</g>
</g>
<!-- 29&#45;&gt;3 -->
<g id="edge77" class="edge">
<title>29&#45;&gt;3</title>
<g id="a_edge77"><a xlink:title="include">
<path fill="none" stroke="#1414ce" d="M1370.21,-143.9C1378.15,-124.63 1386.97,-93.22 1372,-72 1348.97,-39.37 1304.01,-26.71 1269.48,-21.86"/>
<polygon fill="#1414ce" stroke="#1414ce" points="1269.48,-18.33 1259.13,-20.59 1268.63,-25.28 1269.48,-18.33"/>
</a>
</g>
</g>
</g>
</svg>
