<?xml version="1.0" encoding="UTF-8" standalone="no"?>
<!DOCTYPE svg PUBLIC "-//W3C//DTD SVG 1.1//EN"
 "http://www.w3.org/Graphics/SVG/1.1/DTD/svg11.dtd">
<!-- Generated by graphviz version 2.43.0 (0)
 -->
<!-- Title: %3 Pages: 1 -->
<svg width="1796pt" height="764pt"
 viewBox="0.00 0.00 1795.50 764.00" xmlns="http://www.w3.org/2000/svg" xmlns:xlink="http://www.w3.org/1999/xlink">
<g id="graph0" class="graph" transform="scale(1 1) rotate(0) translate(4 760)">
<title>%3</title>
<polygon fill="transparent" stroke="transparent" points="-4,4 -4,-760 1791.5,-760 1791.5,4 -4,4"/>
<!-- 5 -->
<g id="node1" class="node">
<title>5</title>
<g id="a_node1"><a xlink:title="atom.h">
<polygon fill="#ffffff" stroke="black" points="674,-180 608,-180 608,-144 674,-144 674,-180"/>
<text text-anchor="middle" x="641" y="-158.3" font-family="Times,serif" font-size="14.00">atom.h</text>
</a>
</g>
</g>
<!-- 4 -->
<g id="node31" class="node">
<title>4</title>
<g id="a_node31"><a xlink:title="stdint.h">
<polygon fill="#ffffff" stroke="black" points="747,-36 675,-36 675,0 747,0 747,-36"/>
<text text-anchor="middle" x="711" y="-14.3" font-family="Times,serif" font-size="14.00">stdint.h</text>
</a>
</g>
</g>
<!-- 5&#45;&gt;4 -->
<g id="edge1" class="edge">
<title>5&#45;&gt;4</title>
<g id="a_edge1"><a xlink:title="include">
<path fill="none" stroke="#1414ce" d="M649.44,-143.87C661.53,-119.35 683.87,-74.03 698.06,-45.26"/>
<polygon fill="#1414ce" stroke="#1414ce" points="701.24,-46.71 702.53,-36.19 694.97,-43.61 701.24,-46.71"/>
</a>
</g>
</g>
<!-- 6 -->
<g id="node33" class="node">
<title>6</title>
<g id="a_node33"><a xlink:title="stdlib.h">
<polygon fill="#ffffff" stroke="black" points="445.5,-108 374.5,-108 374.5,-72 445.5,-72 445.5,-108"/>
<text text-anchor="middle" x="410" y="-86.3" font-family="Times,serif" font-size="14.00">stdlib.h</text>
</a>
</g>
</g>
<!-- 5&#45;&gt;6 -->
<g id="edge2" class="edge">
<title>5&#45;&gt;6</title>
<g id="a_edge2"><a xlink:title="include">
<path fill="none" stroke="#1414ce" d="M607.9,-150.97C567.89,-138.85 500.34,-118.38 455.46,-104.78"/>
<polygon fill="#1414ce" stroke="#1414ce" points="456.28,-101.37 445.69,-101.82 454.25,-108.07 456.28,-101.37"/>
</a>
</g>
</g>
<!-- 7 -->
<g id="node2" class="node">
<title>7</title>
<g id="a_node2"><a xlink:title="atom_table.h">
<polygon fill="#ffffff" stroke="black" points="749.5,-252 640.5,-252 640.5,-216 749.5,-216 749.5,-252"/>
<text text-anchor="middle" x="695" y="-230.3" font-family="Times,serif" font-size="14.00">atom_table.h</text>
</a>
</g>
</g>
<!-- 7&#45;&gt;5 -->
<g id="edge4" class="edge">
<title>7&#45;&gt;5</title>
<g id="a_edge4"><a xlink:title="include">
<path fill="none" stroke="#1414ce" d="M681.65,-215.7C675.24,-207.39 667.44,-197.28 660.39,-188.14"/>
<polygon fill="#1414ce" stroke="#1414ce" points="663.07,-185.88 654.19,-180.1 657.53,-190.16 663.07,-185.88"/>
</a>
</g>
</g>
<!-- 9 -->
<g id="node23" class="node">
<title>9</title>
<g id="a_node23"><a xlink:title="utils.h">
<polygon fill="#ffffff" stroke="black" points="552,-180 490,-180 490,-144 552,-144 552,-180"/>
<text text-anchor="middle" x="521" y="-158.3" font-family="Times,serif" font-size="14.00">utils.h</text>
</a>
</g>
</g>
<!-- 7&#45;&gt;9 -->
<g id="edge5" class="edge">
<title>7&#45;&gt;9</title>
<g id="a_edge5"><a xlink:title="include">
<path fill="none" stroke="#1414ce" d="M652.43,-215.88C624.84,-204.77 589.08,-190.39 561.83,-179.43"/>
<polygon fill="#1414ce" stroke="#1414ce" points="562.79,-176.04 552.21,-175.56 560.18,-182.54 562.79,-176.04"/>
</a>
</g>
</g>
<!-- 8 -->
<g id="node29" class="node">
<title>8</title>
<g id="a_node29"><a xlink:title="stdbool.h">
<polygon fill="#ffffff" stroke="black" points="1056.5,-108 973.5,-108 973.5,-72 1056.5,-72 1056.5,-108"/>
<text text-anchor="middle" x="1015" y="-86.3" font-family="Times,serif" font-size="14.00">stdbool.h</text>
</a>
</g>
</g>
<!-- 7&#45;&gt;8 -->
<g id="edge3" class="edge">
<title>7&#45;&gt;8</title>
<g id="a_edge3"><a xlink:title="include">
<path fill="none" stroke="#1414ce" d="M738.57,-215.88C763.92,-205.76 796.42,-192.51 825,-180 875.3,-157.98 932.23,-131.04 970.55,-112.6"/>
<polygon fill="#1414ce" stroke="#1414ce" points="972.39,-115.6 979.88,-108.11 969.35,-109.3 972.39,-115.6"/>
</a>
</g>
</g>
<!-- 31 -->
<g id="node3" class="node">
<title>31</title>
<g id="a_node3"><a xlink:title="bitstring.h">
<polygon fill="#ffffff" stroke="black" points="936,-540 844,-540 844,-504 936,-504 936,-540"/>
<text text-anchor="middle" x="890" y="-518.3" font-family="Times,serif" font-size="14.00">bitstring.h</text>
</a>
</g>
</g>
<!-- 21 -->
<g id="node19" class="node">
<title>21</title>
<g id="a_node19"><a xlink:title="term.h">
<polygon fill="#ffffff" stroke="black" points="529.5,-468 464.5,-468 464.5,-432 529.5,-432 529.5,-468"/>
<text text-anchor="middle" x="497" y="-446.3" font-family="Times,serif" font-size="14.00">term.h</text>
</a>
</g>
</g>
<!-- 31&#45;&gt;21 -->
<g id="edge6" class="edge">
<title>31&#45;&gt;21</title>
<g id="a_edge6"><a xlink:title="include">
<path fill="none" stroke="#1414ce" d="M843.76,-512.76C766.93,-499.08 614.05,-471.85 539.66,-458.6"/>
<polygon fill="#1414ce" stroke="#1414ce" points="540.15,-455.13 529.7,-456.82 538.93,-462.02 540.15,-455.13"/>
</a>
</g>
</g>
<!-- 32 -->
<g id="node22" class="node">
<title>32</title>
<g id="a_node22"><a xlink:title="unicode.h">
<polygon fill="#ffffff" stroke="black" points="816,-180 730,-180 730,-144 816,-144 816,-180"/>
<text text-anchor="middle" x="773" y="-158.3" font-family="Times,serif" font-size="14.00">unicode.h</text>
</a>
</g>
</g>
<!-- 31&#45;&gt;32 -->
<g id="edge7" class="edge">
<title>31&#45;&gt;32</title>
<g id="a_edge7"><a xlink:title="include">
<path fill="none" stroke="#1414ce" d="M885.97,-503.82C876.69,-464.94 852.47,-367.37 825,-288 812.99,-253.29 796.27,-214.38 785.06,-189.33"/>
<polygon fill="#1414ce" stroke="#1414ce" points="788.21,-187.81 780.91,-180.13 781.83,-190.69 788.21,-187.81"/>
</a>
</g>
</g>
<!-- 31&#45;&gt;8 -->
<g id="edge8" class="edge">
<title>31&#45;&gt;8</title>
<g id="a_edge8"><a xlink:title="include">
<path fill="none" stroke="#1414ce" d="M914.58,-503.93C945.9,-479.96 996,-433.14 996,-379 996,-379 996,-379 996,-233 996,-192.86 1003.55,-146.9 1009.13,-118.4"/>
<polygon fill="#1414ce" stroke="#1414ce" points="1012.61,-118.88 1011.16,-108.39 1005.74,-117.5 1012.61,-118.88"/>
</a>
</g>
</g>
<!-- 31&#45;&gt;4 -->
<g id="edge9" class="edge">
<title>31&#45;&gt;4</title>
<g id="a_edge9"><a xlink:title="include">
<path fill="none" stroke="#1414ce" d="M892.77,-503.74C902.11,-439.25 926.34,-209.07 822,-72 806.04,-51.04 779.68,-37.97 756.66,-30.06"/>
<polygon fill="#1414ce" stroke="#1414ce" points="757.62,-26.69 747.03,-26.97 755.49,-33.36 757.62,-26.69"/>
</a>
</g>
</g>
<!-- 2 -->
<g id="node4" class="node">
<title>2</title>
<g id="a_node4"><a xlink:title="context.h">
<polygon fill="#ffffff" stroke="black" points="1132.5,-684 1049.5,-684 1049.5,-648 1132.5,-648 1132.5,-684"/>
<text text-anchor="middle" x="1091" y="-662.3" font-family="Times,serif" font-size="14.00">context.h</text>
</a>
</g>
</g>
<!-- 3 -->
<g id="node9" class="node">
<title>3</title>
<g id="a_node9"><a xlink:title="globalcontext.h">
<polygon fill="#ffffff" stroke="black" points="1265.5,-612 1138.5,-612 1138.5,-576 1265.5,-576 1265.5,-612"/>
<text text-anchor="middle" x="1202" y="-590.3" font-family="Times,serif" font-size="14.00">globalcontext.h</text>
</a>
</g>
</g>
<!-- 2&#45;&gt;3 -->
<g id="edge10" class="edge">
<title>2&#45;&gt;3</title>
<g id="a_edge10"><a xlink:title="include">
<path fill="none" stroke="#1414ce" d="M1118.15,-647.88C1132.53,-638.81 1150.38,-627.55 1165.91,-617.76"/>
<polygon fill="#1414ce" stroke="#1414ce" points="1168.15,-620.48 1174.74,-612.19 1164.42,-614.56 1168.15,-620.48"/>
</a>
</g>
</g>
<!-- 30 -->
<g id="node10" class="node">
<title>30</title>
<g id="a_node10"><a xlink:title="jit.h">
<polygon fill="#ffffff" stroke="black" points="740,-612 686,-612 686,-576 740,-576 740,-612"/>
<text text-anchor="middle" x="713" y="-590.3" font-family="Times,serif" font-size="14.00">jit.h</text>
</a>
</g>
</g>
<!-- 2&#45;&gt;30 -->
<g id="edge11" class="edge">
<title>2&#45;&gt;30</title>
<g id="a_edge11"><a xlink:title="include">
<path fill="none" stroke="#1414ce" d="M1049.47,-657.31C975.25,-643.57 821.02,-615 750.12,-601.87"/>
<polygon fill="#1414ce" stroke="#1414ce" points="750.75,-598.43 740.28,-600.05 749.48,-605.31 750.75,-598.43"/>
</a>
</g>
</g>
<!-- 18 -->
<g id="node11" class="node">
<title>18</title>
<g id="a_node11"><a xlink:title="list.h">
<polygon fill="#ffffff" stroke="black" points="1459,-180 1405,-180 1405,-144 1459,-144 1459,-180"/>
<text text-anchor="middle" x="1432" y="-158.3" font-family="Times,serif" font-size="14.00">list.h</text>
</a>
</g>
</g>
<!-- 2&#45;&gt;18 -->
<g id="edge12" class="edge">
<title>2&#45;&gt;18</title>
<g id="a_edge12"><a xlink:title="include">
<path fill="none" stroke="#1414ce" d="M1132.65,-656.47C1223.27,-637.21 1434.46,-588.25 1488,-540 1571.95,-464.34 1538.7,-399.77 1522,-288 1517.06,-254.91 1518.97,-243.57 1500,-216 1491.53,-203.7 1479.34,-192.93 1467.6,-184.38"/>
<polygon fill="#1414ce" stroke="#1414ce" points="1469.41,-181.37 1459.2,-178.55 1465.42,-187.12 1469.41,-181.37"/>
</a>
</g>
</g>
<!-- 27 -->
<g id="node12" class="node">
<title>27</title>
<g id="a_node12"><a xlink:title="mailbox.h">
<polygon fill="#ffffff" stroke="black" points="1148,-252 1062,-252 1062,-216 1148,-216 1148,-252"/>
<text text-anchor="middle" x="1105" y="-230.3" font-family="Times,serif" font-size="14.00">mailbox.h</text>
</a>
</g>
</g>
<!-- 2&#45;&gt;27 -->
<g id="edge13" class="edge">
<title>2&#45;&gt;27</title>
<g id="a_edge13"><a xlink:title="include">
<path fill="none" stroke="#1414ce" d="M1087.16,-647.61C1081.6,-620.94 1072,-568.27 1072,-523 1072,-523 1072,-523 1072,-377 1072,-335.97 1085.23,-289.97 1094.94,-261.74"/>
<polygon fill="#1414ce" stroke="#1414ce" points="1098.28,-262.78 1098.32,-252.19 1091.68,-260.45 1098.28,-262.78"/>
</a>
</g>
</g>
<!-- 20 -->
<g id="node17" class="node">
<title>20</title>
<g id="a_node17"><a xlink:title="smp.h">
<polygon fill="#ffffff" stroke="black" points="1324,-180 1264,-180 1264,-144 1324,-144 1324,-180"/>
<text text-anchor="middle" x="1294" y="-158.3" font-family="Times,serif" font-size="14.00">smp.h</text>
</a>
</g>
</g>
<!-- 2&#45;&gt;20 -->
<g id="edge14" class="edge">
<title>2&#45;&gt;20</title>
<g id="a_edge14"><a xlink:title="include">
<path fill="none" stroke="#1414ce" d="M1096.18,-647.78C1114.72,-587.04 1180.98,-377.74 1261,-216 1265.57,-206.77 1271.29,-197.09 1276.68,-188.57"/>
<polygon fill="#1414ce" stroke="#1414ce" points="1279.62,-190.47 1282.11,-180.17 1273.74,-186.67 1279.62,-190.47"/>
</a>
</g>
</g>
<!-- 2&#45;&gt;21 -->
<g id="edge15" class="edge">
<title>2&#45;&gt;21</title>
<g id="a_edge15"><a xlink:title="include">
<path fill="none" stroke="#1414ce" d="M1049.18,-664.87C905.48,-663.45 435.83,-650.3 347,-540 313.21,-498.04 398.85,-471.41 454.23,-459.08"/>
<polygon fill="#1414ce" stroke="#1414ce" points="455.14,-462.46 464.18,-456.94 453.67,-455.62 455.14,-462.46"/>
</a>
</g>
</g>
<!-- 28 -->
<g id="node21" class="node">
<title>28</title>
<g id="a_node21"><a xlink:title="timer_list.h">
<polygon fill="#ffffff" stroke="black" points="1672,-252 1574,-252 1574,-216 1672,-216 1672,-252"/>
<text text-anchor="middle" x="1623" y="-230.3" font-family="Times,serif" font-size="14.00">timer_list.h</text>
</a>
</g>
</g>
<!-- 2&#45;&gt;28 -->
<g id="edge16" class="edge">
<title>2&#45;&gt;28</title>
<g id="a_edge16"><a xlink:title="include">
<path fill="none" stroke="#1414ce" d="M1132.51,-656.15C1147.43,-653.22 1164.42,-650.15 1180,-648 1272.36,-635.24 1526.49,-671.82 1598,-612 1629.42,-585.71 1622,-563.97 1622,-523 1622,-523 1622,-523 1622,-377 1622,-337 1622.4,-290.65 1622.7,-262.08"/>
<polygon fill="#1414ce" stroke="#1414ce" points="1626.2,-262.09 1622.8,-252.05 1619.2,-262.01 1626.2,-262.09"/>
</a>
</g>
</g>
<!-- 34 -->
<g id="node5" class="node">
<title>34</title>
<g id="a_node5"><a xlink:title="defaultatoms.h">
<polygon fill="#ffffff" stroke="black" points="1313,-684 1189,-684 1189,-648 1313,-648 1313,-684"/>
<text text-anchor="middle" x="1251" y="-662.3" font-family="Times,serif" font-size="14.00">defaultatoms.h</text>
</a>
</g>
</g>
<!-- 34&#45;&gt;3 -->
<g id="edge17" class="edge">
<title>34&#45;&gt;3</title>
<g id="a_edge17"><a xlink:title="include">
<path fill="none" stroke="#1414ce" d="M1238.89,-647.7C1233.13,-639.47 1226.14,-629.48 1219.79,-620.42"/>
<polygon fill="#1414ce" stroke="#1414ce" points="1222.58,-618.29 1213.97,-612.1 1216.84,-622.3 1222.58,-618.29"/>
</a>
</g>
</g>
<!-- 35 -->
<g id="node26" class="node">
<title>35</title>
<g id="a_node26"><a xlink:title="defaultatoms.def">
<polygon fill="#ffffff" stroke="black" points="1787.5,-612 1650.5,-612 1650.5,-576 1787.5,-576 1787.5,-612"/>
<text text-anchor="middle" x="1719" y="-590.3" font-family="Times,serif" font-size="14.00">defaultatoms.def</text>
</a>
</g>
</g>
<!-- 34&#45;&gt;35 -->
<g id="edge18" class="edge">
<title>34&#45;&gt;35</title>
<g id="a_edge18"><a xlink:title="include">
<path fill="none" stroke="#1414ce" d="M1313.2,-657.7C1389.48,-648.47 1522.61,-631.4 1636,-612 1637.3,-611.78 1638.62,-611.55 1639.94,-611.32"/>
<polygon fill="#1414ce" stroke="#1414ce" points="1641.01,-614.68 1650.22,-609.45 1639.76,-607.79 1641.01,-614.68"/>
</a>
</g>
</g>
<!-- 12 -->
<g id="node6" class="node">
<title>12</title>
<g id="a_node6"><a xlink:title="erl_nif.h">
<polygon fill="#ffffff" stroke="black" points="168,-180 94,-180 94,-144 168,-144 168,-180"/>
<text text-anchor="middle" x="131" y="-158.3" font-family="Times,serif" font-size="14.00">erl_nif.h</text>
</a>
</g>
</g>
<!-- 13 -->
<g id="node20" class="node">
<title>13</title>
<g id="a_node20"><a xlink:title="term_typedef.h">
<polygon fill="#ffffff" stroke="black" points="199.5,-108 74.5,-108 74.5,-72 199.5,-72 199.5,-108"/>
<text text-anchor="middle" x="137" y="-86.3" font-family="Times,serif" font-size="14.00">term_typedef.h</text>
</a>
</g>
</g>
<!-- 12&#45;&gt;13 -->
<g id="edge19" class="edge">
<title>12&#45;&gt;13</title>
<g id="a_edge19"><a xlink:title="include">
<path fill="none" stroke="#1414ce" d="M132.48,-143.7C133.14,-135.98 133.94,-126.71 134.68,-118.11"/>
<polygon fill="#1414ce" stroke="#1414ce" points="138.17,-118.37 135.53,-108.1 131.19,-117.77 138.17,-118.37"/>
</a>
</g>
</g>
<!-- 17 -->
<g id="node7" class="node">
<title>17</title>
<g id="a_node7"><a xlink:title="ets.h">
<polygon fill="#ffffff" stroke="black" points="1382,-540 1328,-540 1328,-504 1382,-504 1382,-540"/>
<text text-anchor="middle" x="1355" y="-518.3" font-family="Times,serif" font-size="14.00">ets.h</text>
</a>
</g>
</g>
<!-- 17&#45;&gt;18 -->
<g id="edge20" class="edge">
<title>17&#45;&gt;18</title>
<g id="a_edge20"><a xlink:title="include">
<path fill="none" stroke="#1414ce" d="M1382.25,-504.02C1416.26,-480.49 1470,-434.52 1470,-379 1470,-379 1470,-379 1470,-305 1470,-263.63 1454.77,-217.72 1443.59,-189.61"/>
<polygon fill="#1414ce" stroke="#1414ce" points="1446.72,-188.02 1439.69,-180.09 1440.24,-190.67 1446.72,-188.02"/>
</a>
</g>
</g>
<!-- 19 -->
<g id="node18" class="node">
<title>19</title>
<g id="a_node18"><a xlink:title="synclist.h">
<polygon fill="#ffffff" stroke="black" points="1365.5,-252 1280.5,-252 1280.5,-216 1365.5,-216 1365.5,-252"/>
<text text-anchor="middle" x="1323" y="-230.3" font-family="Times,serif" font-size="14.00">synclist.h</text>
</a>
</g>
</g>
<!-- 17&#45;&gt;19 -->
<g id="edge21" class="edge">
<title>17&#45;&gt;19</title>
<g id="a_edge21"><a xlink:title="include">
<path fill="none" stroke="#1414ce" d="M1353.09,-503.97C1347.75,-456.19 1332.58,-320.62 1326.05,-262.27"/>
<polygon fill="#1414ce" stroke="#1414ce" points="1329.53,-261.86 1324.94,-252.31 1322.57,-262.63 1329.53,-261.86"/>
</a>
</g>
</g>
<!-- 17&#45;&gt;21 -->
<g id="edge22" class="edge">
<title>17&#45;&gt;21</title>
<g id="a_edge22"><a xlink:title="include">
<path fill="none" stroke="#1414ce" d="M1327.9,-518.79C1204.26,-508.7 693.02,-466.99 540.28,-454.53"/>
<polygon fill="#1414ce" stroke="#1414ce" points="540.17,-451.01 529.92,-453.69 539.6,-457.99 540.17,-451.01"/>
</a>
</g>
</g>
<!-- 33 -->
<g id="node8" class="node">
<title>33</title>
<g id="a_node8"><a xlink:title="exportedfunction.h">
<polygon fill="#ffffff" stroke="black" points="508,-540 356,-540 356,-504 508,-504 508,-540"/>
<text text-anchor="middle" x="432" y="-518.3" font-family="Times,serif" font-size="14.00">exportedfunction.h</text>
</a>
</g>
</g>
<!-- 33&#45;&gt;21 -->
<g id="edge23" class="edge">
<title>33&#45;&gt;21</title>
<g id="a_edge23"><a xlink:title="include">
<path fill="none" stroke="#1414ce" d="M448.07,-503.7C455.94,-495.22 465.56,-484.86 474.17,-475.58"/>
<polygon fill="#1414ce" stroke="#1414ce" points="476.88,-477.81 481.12,-468.1 471.75,-473.05 476.88,-477.81"/>
</a>
</g>
</g>
<!-- 3&#45;&gt;5 -->
<g id="edge25" class="edge">
<title>3&#45;&gt;5</title>
<g id="a_edge25"><a xlink:title="include">
<path fill="none" stroke="#1414ce" d="M1138.46,-588.84C1000.94,-578.09 688,-543.46 688,-451 688,-451 688,-451 688,-377 688,-336.55 684.57,-321.66 707,-288 722.59,-264.61 745.95,-276.9 759,-252 766.43,-237.83 767.69,-229.43 759,-216 758.85,-215.78 717.18,-197.09 683.4,-181.97"/>
<polygon fill="#1414ce" stroke="#1414ce" points="684.68,-178.71 674.13,-177.81 681.82,-185.09 684.68,-178.71"/>
</a>
</g>
</g>
<!-- 3&#45;&gt;7 -->
<g id="edge26" class="edge">
<title>3&#45;&gt;7</title>
<g id="a_edge26"><a xlink:title="include">
<path fill="none" stroke="#1414ce" d="M1138.33,-590.62C1005.61,-585.08 708.77,-569.51 674,-540 642.76,-513.49 650,-491.97 650,-451 650,-451 650,-451 650,-377 650,-335.13 668,-289.42 681.23,-261.48"/>
<polygon fill="#1414ce" stroke="#1414ce" points="684.44,-262.89 685.68,-252.37 678.15,-259.82 684.44,-262.89"/>
</a>
</g>
</g>
<!-- 3&#45;&gt;12 -->
<g id="edge27" class="edge">
<title>3&#45;&gt;12</title>
<g id="a_edge27"><a xlink:title="include">
<path fill="none" stroke="#1414ce" d="M1138.44,-590.59C1003.03,-584.94 690.12,-569.11 588,-540 553.98,-530.3 549.78,-517.3 517,-504 442.17,-473.63 223.1,-456.85 170,-396 118.97,-337.51 122.07,-238.16 127.16,-190.33"/>
<polygon fill="#1414ce" stroke="#1414ce" points="130.67,-190.47 128.36,-180.13 123.72,-189.65 130.67,-190.47"/>
</a>
</g>
</g>
<!-- 3&#45;&gt;17 -->
<g id="edge28" class="edge">
<title>3&#45;&gt;17</title>
<g id="a_edge28"><a xlink:title="include">
<path fill="none" stroke="#1414ce" d="M1239.43,-575.88C1263.48,-564.87 1294.58,-550.64 1318.46,-539.72"/>
<polygon fill="#1414ce" stroke="#1414ce" points="1319.92,-542.9 1327.56,-535.56 1317.01,-536.53 1319.92,-542.9"/>
</a>
</g>
</g>
<!-- 3&#45;&gt;18 -->
<g id="edge29" class="edge">
<title>3&#45;&gt;18</title>
<g id="a_edge29"><a xlink:title="include">
<path fill="none" stroke="#1414ce" d="M1265.78,-590.84C1355.45,-584.02 1508,-556.86 1508,-451 1508,-451 1508,-451 1508,-305 1508,-259.64 1477.48,-214.75 1455.12,-187.95"/>
<polygon fill="#1414ce" stroke="#1414ce" points="1457.66,-185.53 1448.49,-180.23 1452.36,-190.09 1457.66,-185.53"/>
</a>
</g>
</g>
<!-- 3&#45;&gt;27 -->
<g id="edge30" class="edge">
<title>3&#45;&gt;27</title>
<g id="a_edge30"><a xlink:title="include">
<path fill="none" stroke="#1414ce" d="M1190.63,-575.98C1184.34,-565.89 1176.84,-552.64 1172,-540 1134.28,-441.48 1115.19,-316.51 1108.2,-262.22"/>
<polygon fill="#1414ce" stroke="#1414ce" points="1111.65,-261.53 1106.93,-252.04 1104.7,-262.4 1111.65,-261.53"/>
</a>
</g>
</g>
<!-- 3&#45;&gt;20 -->
<g id="edge31" class="edge">
<title>3&#45;&gt;20</title>
<g id="a_edge31"><a xlink:title="include">
<path fill="none" stroke="#1414ce" d="M1214.72,-575.62C1232.34,-549.81 1262,-499.17 1262,-451 1262,-451 1262,-451 1262,-377 1262,-305.31 1255.81,-285.84 1272,-216 1274.07,-207.07 1277.49,-197.71 1281.03,-189.39"/>
<polygon fill="#1414ce" stroke="#1414ce" points="1284.26,-190.74 1285.16,-180.18 1277.87,-187.88 1284.26,-190.74"/>
</a>
</g>
</g>
<!-- 3&#45;&gt;19 -->
<g id="edge32" class="edge">
<title>3&#45;&gt;19</title>
<g id="a_edge32"><a xlink:title="include">
<path fill="none" stroke="#1414ce" d="M1235.57,-575.83C1249.94,-566.93 1265.73,-554.8 1276,-540 1299.35,-506.33 1300,-491.97 1300,-451 1300,-451 1300,-451 1300,-377 1300,-336.7 1309.14,-290.78 1315.9,-262.34"/>
<polygon fill="#1414ce" stroke="#1414ce" points="1319.37,-262.89 1318.35,-252.34 1312.57,-261.22 1319.37,-262.89"/>
</a>
</g>
</g>
<!-- 3&#45;&gt;21 -->
<g id="edge33" class="edge">
<title>3&#45;&gt;21</title>
<g id="a_edge33"><a xlink:title="include">
<path fill="none" stroke="#1414ce" d="M1138.17,-591.37C1010.07,-587.4 726.23,-574.83 636,-540 611.12,-530.4 610.23,-518.74 588,-504 571.82,-493.27 553.41,-482.33 537.4,-473.19"/>
<polygon fill="#1414ce" stroke="#1414ce" points="538.72,-469.91 528.29,-468.04 535.27,-476.01 538.72,-469.91"/>
</a>
</g>
</g>
<!-- 3&#45;&gt;28 -->
<g id="edge34" class="edge">
<title>3&#45;&gt;28</title>
<g id="a_edge34"><a xlink:title="include">
<path fill="none" stroke="#1414ce" d="M1265.54,-590.12C1347.6,-585.15 1484.39,-572.16 1522,-540 1533.03,-530.56 1592.96,-334.63 1614.92,-261.88"/>
<polygon fill="#1414ce" stroke="#1414ce" points="1618.34,-262.66 1617.88,-252.08 1611.64,-260.64 1618.34,-262.66"/>
</a>
</g>
</g>
<!-- 29 -->
<g id="node24" class="node">
<title>29</title>
<g id="a_node24"><a xlink:title="valueshashtable.h">
<polygon fill="#ffffff" stroke="black" points="1246,-180 1100,-180 1100,-144 1246,-144 1246,-180"/>
<text text-anchor="middle" x="1173" y="-158.3" font-family="Times,serif" font-size="14.00">valueshashtable.h</text>
</a>
</g>
</g>
<!-- 3&#45;&gt;29 -->
<g id="edge35" class="edge">
<title>3&#45;&gt;29</title>
<g id="a_edge35"><a xlink:title="include">
<path fill="none" stroke="#1414ce" d="M1198.76,-575.58C1194.09,-548.87 1186,-496.15 1186,-451 1186,-451 1186,-451 1186,-377 1186,-309.83 1179.54,-231.02 1175.73,-190.36"/>
<polygon fill="#1414ce" stroke="#1414ce" points="1179.19,-189.8 1174.75,-180.18 1172.22,-190.46 1179.19,-189.8"/>
</a>
</g>
</g>
<!-- 3&#45;&gt;4 -->
<g id="edge24" class="edge">
<title>3&#45;&gt;4</title>
<g id="a_edge24"><a xlink:title="include">
<path fill="none" stroke="#1414ce" d="M1265.58,-588.28C1399.83,-576.55 1700,-540.34 1700,-451 1700,-451 1700,-451 1700,-161 1700,-64.5 952.7,-28.47 757.29,-20.7"/>
<polygon fill="#1414ce" stroke="#1414ce" points="757.21,-17.19 747.08,-20.3 756.93,-24.19 757.21,-17.19"/>
</a>
</g>
</g>
<!-- 30&#45;&gt;31 -->
<g id="edge36" class="edge">
<title>30&#45;&gt;31</title>
<g id="a_edge36"><a xlink:title="include">
<path fill="none" stroke="#1414ce" d="M740.27,-582.22C766.02,-572.03 805.33,-556.48 837.21,-543.88"/>
<polygon fill="#1414ce" stroke="#1414ce" points="838.83,-547 846.85,-540.07 836.26,-540.49 838.83,-547"/>
</a>
</g>
</g>
<!-- 30&#45;&gt;33 -->
<g id="edge37" class="edge">
<title>30&#45;&gt;33</title>
<g id="a_edge37"><a xlink:title="include">
<path fill="none" stroke="#1414ce" d="M685.8,-586.22C645.63,-576.22 568.88,-557.1 510.26,-542.49"/>
<polygon fill="#1414ce" stroke="#1414ce" points="510.82,-539.03 500.27,-540.01 509.13,-545.82 510.82,-539.03"/>
</a>
</g>
</g>
<!-- 30&#45;&gt;21 -->
<g id="edge38" class="edge">
<title>30&#45;&gt;21</title>
<g id="a_edge38"><a xlink:title="include">
<path fill="none" stroke="#1414ce" d="M685.82,-583.08C661.76,-573.7 626.19,-558.35 598,-540 569.12,-521.2 540.01,-494.54 520.51,-475.3"/>
<polygon fill="#1414ce" stroke="#1414ce" points="522.82,-472.66 513.27,-468.07 517.87,-477.62 522.82,-472.66"/>
</a>
</g>
</g>
<!-- 30&#45;&gt;13 -->
<g id="edge39" class="edge">
<title>30&#45;&gt;13</title>
<g id="a_edge39"><a xlink:title="include">
<path fill="none" stroke="#1414ce" d="M685.93,-592.76C624.02,-591.43 468.11,-583.64 347,-540 289.2,-519.17 278.81,-503.96 229,-468 188.86,-439.02 171.23,-437.35 144,-396 88.8,-312.16 92.83,-279.28 78,-180 75.64,-164.18 71.48,-158.61 78,-144 83.08,-132.6 91.96,-122.63 101.31,-114.51"/>
<polygon fill="#1414ce" stroke="#1414ce" points="103.63,-117.14 109.2,-108.13 99.22,-111.69 103.63,-117.14"/>
</a>
</g>
</g>
<!-- 30&#45;&gt;8 -->
<g id="edge40" class="edge">
<title>30&#45;&gt;8</title>
<g id="a_edge40"><a xlink:title="include">
<path fill="none" stroke="#1414ce" d="M740.09,-593.29C817.48,-592.58 1034,-579.12 1034,-451 1034,-451 1034,-451 1034,-233 1034,-192.86 1026.45,-146.9 1020.87,-118.4"/>
<polygon fill="#1414ce" stroke="#1414ce" points="1024.26,-117.5 1018.84,-108.39 1017.39,-118.88 1024.26,-117.5"/>
</a>
</g>
</g>
<!-- 18&#45;&gt;8 -->
<g id="edge41" class="edge">
<title>18&#45;&gt;8</title>
<g id="a_edge41"><a xlink:title="include">
<path fill="none" stroke="#1414ce" d="M1404.69,-156.27C1384.81,-152.84 1357.24,-148.1 1333,-144 1239.17,-128.12 1129.69,-109.96 1066.75,-99.54"/>
<polygon fill="#1414ce" stroke="#1414ce" points="1067.12,-96.06 1056.68,-97.88 1065.98,-102.96 1067.12,-96.06"/>
</a>
</g>
</g>
<!-- 27&#45;&gt;18 -->
<g id="edge43" class="edge">
<title>27&#45;&gt;18</title>
<g id="a_edge43"><a xlink:title="include">
<path fill="none" stroke="#1414ce" d="M1148.09,-223.78C1212.68,-209.95 1333.54,-184.08 1394.62,-171"/>
<polygon fill="#1414ce" stroke="#1414ce" points="1395.55,-174.38 1404.6,-168.87 1394.09,-167.54 1395.55,-174.38"/>
</a>
</g>
</g>
<!-- 27&#45;&gt;13 -->
<g id="edge44" class="edge">
<title>27&#45;&gt;13</title>
<g id="a_edge44"><a xlink:title="include">
<path fill="none" stroke="#1414ce" d="M1061.94,-231.84C960.2,-228.55 697.23,-216.88 481,-180 381.89,-163.09 269.54,-131.64 200.99,-111.01"/>
<polygon fill="#1414ce" stroke="#1414ce" points="201.78,-107.6 191.2,-108.05 199.76,-114.3 201.78,-107.6"/>
</a>
</g>
</g>
<!-- 27&#45;&gt;9 -->
<g id="edge45" class="edge">
<title>27&#45;&gt;9</title>
<g id="a_edge45"><a xlink:title="include">
<path fill="none" stroke="#1414ce" d="M1061.81,-230.09C974.15,-223.83 769.27,-207.39 599,-180 587.04,-178.08 574.16,-175.48 562.37,-172.91"/>
<polygon fill="#1414ce" stroke="#1414ce" points="562.87,-169.43 552.35,-170.66 561.34,-176.26 562.87,-169.43"/>
</a>
</g>
</g>
<!-- 27&#45;&gt;8 -->
<g id="edge42" class="edge">
<title>27&#45;&gt;8</title>
<g id="a_edge42"><a xlink:title="include">
<path fill="none" stroke="#1414ce" d="M1094.14,-215.87C1078.53,-191.24 1049.63,-145.64 1031.41,-116.88"/>
<polygon fill="#1414ce" stroke="#1414ce" points="1034.2,-114.76 1025.89,-108.19 1028.29,-118.51 1034.2,-114.76"/>
</a>
</g>
</g>
<!-- 24 -->
<g id="node13" class="node">
<title>24</title>
<g id="a_node13"><a xlink:title="memory.h">
<polygon fill="#ffffff" stroke="black" points="278,-252 192,-252 192,-216 278,-216 278,-252"/>
<text text-anchor="middle" x="235" y="-230.3" font-family="Times,serif" font-size="14.00">memory.h</text>
</a>
</g>
</g>
<!-- 24&#45;&gt;12 -->
<g id="edge48" class="edge">
<title>24&#45;&gt;12</title>
<g id="a_edge48"><a xlink:title="include">
<path fill="none" stroke="#1414ce" d="M209.56,-215.88C196.21,-206.89 179.68,-195.76 165.22,-186.03"/>
<polygon fill="#1414ce" stroke="#1414ce" points="166.79,-182.87 156.54,-180.19 162.88,-188.68 166.79,-182.87"/>
</a>
</g>
</g>
<!-- 24&#45;&gt;13 -->
<g id="edge49" class="edge">
<title>24&#45;&gt;13</title>
<g id="a_edge49"><a xlink:title="include">
<path fill="none" stroke="#1414ce" d="M224.23,-215.7C212.83,-197.6 194.17,-168.45 177,-144 170.64,-134.94 163.43,-125.22 156.89,-116.62"/>
<polygon fill="#1414ce" stroke="#1414ce" points="159.5,-114.26 150.64,-108.44 153.94,-118.51 159.5,-114.26"/>
</a>
</g>
</g>
<!-- 24&#45;&gt;9 -->
<g id="edge50" class="edge">
<title>24&#45;&gt;9</title>
<g id="a_edge50"><a xlink:title="include">
<path fill="none" stroke="#1414ce" d="M278.13,-222.44C332.81,-209.06 426.41,-186.15 480.04,-173.03"/>
<polygon fill="#1414ce" stroke="#1414ce" points="481.01,-176.39 489.89,-170.61 479.34,-169.59 481.01,-176.39"/>
</a>
</g>
</g>
<!-- 24&#45;&gt;4 -->
<g id="edge46" class="edge">
<title>24&#45;&gt;4</title>
<g id="a_edge46"><a xlink:title="include">
<path fill="none" stroke="#1414ce" d="M236.83,-215.78C239.58,-196.68 246.26,-165.7 262,-144 294.8,-98.79 313.15,-92.77 365,-72 466.61,-31.3 596.51,-21.63 664.6,-19.48"/>
<polygon fill="#1414ce" stroke="#1414ce" points="665.08,-22.97 674.98,-19.2 664.89,-15.97 665.08,-22.97"/>
</a>
</g>
</g>
<!-- 24&#45;&gt;6 -->
<g id="edge47" class="edge">
<title>24&#45;&gt;6</title>
<g id="a_edge47"><a xlink:title="include">
<path fill="none" stroke="#1414ce" d="M243.15,-215.89C253.22,-196.31 271.98,-164.34 296,-144 316.02,-127.05 342.38,-114.33 364.7,-105.61"/>
<polygon fill="#1414ce" stroke="#1414ce" points="366.19,-108.79 374.32,-102 363.73,-102.23 366.19,-108.79"/>
</a>
</g>
</g>
<!-- 1 -->
<g id="node14" class="node">
<title>1</title>
<g id="a_node14"><a xlink:title="/__w/AtomVM/AtomVM/src/libAtomVM/port.h">
<polygon fill="#bfbfbf" stroke="black" points="1259.5,-756 922.5,-756 922.5,-720 1259.5,-720 1259.5,-756"/>
<text text-anchor="middle" x="1091" y="-734.3" font-family="Times,serif" font-size="14.00">/__w/AtomVM/AtomVM/src/libAtomVM/port.h</text>
</a>
</g>
</g>
<!-- 1&#45;&gt;2 -->
<g id="edge51" class="edge">
<title>1&#45;&gt;2</title>
<g id="a_edge51"><a xlink:title="include">
<path fill="none" stroke="#1414ce" d="M1091,-719.7C1091,-711.98 1091,-702.71 1091,-694.11"/>
<polygon fill="#1414ce" stroke="#1414ce" points="1094.5,-694.1 1091,-684.1 1087.5,-694.1 1094.5,-694.1"/>
</a>
</g>
</g>
<!-- 1&#45;&gt;34 -->
<g id="edge52" class="edge">
<title>1&#45;&gt;34</title>
<g id="a_edge52"><a xlink:title="include">
<path fill="none" stroke="#1414ce" d="M1130.14,-719.88C1152.01,-710.31 1179.46,-698.3 1202.66,-688.15"/>
<polygon fill="#1414ce" stroke="#1414ce" points="1204.23,-691.28 1211.99,-684.07 1201.42,-684.87 1204.23,-691.28"/>
</a>
</g>
</g>
<!-- 1&#45;&gt;3 -->
<g id="edge53" class="edge">
<title>1&#45;&gt;3</title>
<g id="a_edge53"><a xlink:title="include">
<path fill="none" stroke="#1414ce" d="M1109.27,-719.56C1119.37,-709.55 1131.89,-696.51 1142,-684 1158.36,-663.76 1174.72,-639.12 1186.22,-620.9"/>
<polygon fill="#1414ce" stroke="#1414ce" points="1189.44,-622.35 1191.76,-612.01 1183.5,-618.64 1189.44,-622.35"/>
</a>
</g>
</g>
<!-- 1&#45;&gt;24 -->
<g id="edge54" class="edge">
<title>1&#45;&gt;24</title>
<g id="a_edge54"><a xlink:title="include">
<path fill="none" stroke="#1414ce" d="M922.45,-728.73C649.01,-713.04 139,-673.28 139,-595 139,-595 139,-595 139,-449 139,-375.18 187.14,-298.59 215.24,-260.18"/>
<polygon fill="#1414ce" stroke="#1414ce" points="218.07,-262.24 221.25,-252.14 212.46,-258.06 218.07,-262.24"/>
</a>
</g>
</g>
<!-- 1&#45;&gt;21 -->
<g id="edge55" class="edge">
<title>1&#45;&gt;21</title>
<g id="a_edge55"><a xlink:title="include">
<path fill="none" stroke="#1414ce" d="M926.85,-719.98C751.56,-699.61 487.1,-661.9 399,-612 350.65,-584.61 303.42,-549.02 336,-504 362.73,-467.06 416.07,-455.42 454.03,-451.99"/>
<polygon fill="#1414ce" stroke="#1414ce" points="454.58,-455.46 464.29,-451.22 454.06,-448.48 454.58,-455.46"/>
</a>
</g>
</g>
<!-- 25 -->
<g id="node15" class="node">
<title>25</title>
<g id="a_node15"><a xlink:title="refc_binary.h">
<polygon fill="#ffffff" stroke="black" points="824,-396 716,-396 716,-360 824,-360 824,-396"/>
<text text-anchor="middle" x="770" y="-374.3" font-family="Times,serif" font-size="14.00">refc_binary.h</text>
</a>
</g>
</g>
<!-- 25&#45;&gt;18 -->
<g id="edge58" class="edge">
<title>25&#45;&gt;18</title>
<g id="a_edge58"><a xlink:title="include">
<path fill="none" stroke="#1414ce" d="M824.14,-373.39C961.6,-363.14 1319.33,-329.49 1405,-252 1422.26,-236.39 1428.64,-210.16 1430.92,-190.2"/>
<polygon fill="#1414ce" stroke="#1414ce" points="1434.42,-190.42 1431.8,-180.15 1427.45,-189.81 1434.42,-190.42"/>
</a>
</g>
</g>
<!-- 26 -->
<g id="node16" class="node">
<title>26</title>
<g id="a_node16"><a xlink:title="resources.h">
<polygon fill="#ffffff" stroke="black" points="816,-324 716,-324 716,-288 816,-288 816,-324"/>
<text text-anchor="middle" x="766" y="-302.3" font-family="Times,serif" font-size="14.00">resources.h</text>
</a>
</g>
</g>
<!-- 25&#45;&gt;26 -->
<g id="edge59" class="edge">
<title>25&#45;&gt;26</title>
<g id="a_edge59"><a xlink:title="include">
<path fill="none" stroke="#1414ce" d="M769.01,-359.7C768.57,-351.98 768.04,-342.71 767.55,-334.11"/>
<polygon fill="#1414ce" stroke="#1414ce" points="771.04,-333.89 766.98,-324.1 764.05,-334.29 771.04,-333.89"/>
</a>
</g>
</g>
<!-- 25&#45;&gt;8 -->
<g id="edge56" class="edge">
<title>25&#45;&gt;8</title>
<g id="a_edge56"><a xlink:title="include">
<path fill="none" stroke="#1414ce" d="M789.88,-359.81C800.82,-349.88 814.31,-336.84 825,-324 886.34,-250.28 878.15,-213.72 944,-144 954.37,-133.02 967.23,-122.67 979.14,-114.08"/>
<polygon fill="#1414ce" stroke="#1414ce" points="981.42,-116.75 987.6,-108.15 977.4,-111.02 981.42,-116.75"/>
</a>
</g>
</g>
<!-- 25&#45;&gt;6 -->
<g id="edge57" class="edge">
<title>25&#45;&gt;6</title>
<g id="a_edge57"><a xlink:title="include">
<path fill="none" stroke="#1414ce" d="M716.67,-359.91C643.19,-333.52 512.08,-275.63 443,-180 429.55,-161.38 420.96,-136.64 415.93,-117.98"/>
<polygon fill="#1414ce" stroke="#1414ce" points="419.26,-116.89 413.43,-108.04 412.48,-118.6 419.26,-116.89"/>
</a>
</g>
</g>
<!-- 26&#45;&gt;12 -->
<g id="edge61" class="edge">
<title>26&#45;&gt;12</title>
<g id="a_edge61"><a xlink:title="include">
<path fill="none" stroke="#1414ce" d="M715.94,-303.06C582.88,-297.54 227.49,-280.29 183,-252 160.68,-237.81 146.8,-210.33 139.05,-189.65"/>
<polygon fill="#1414ce" stroke="#1414ce" points="142.33,-188.41 135.73,-180.12 135.72,-190.72 142.33,-188.41"/>
</a>
</g>
</g>
<!-- 26&#45;&gt;18 -->
<g id="edge62" class="edge">
<title>26&#45;&gt;18</title>
<g id="a_edge62"><a xlink:title="include">
<path fill="none" stroke="#1414ce" d="M816.23,-303.16C953.46,-297.78 1327.67,-280.63 1375,-252 1398.21,-237.96 1413.62,-210.46 1422.5,-189.73"/>
<polygon fill="#1414ce" stroke="#1414ce" points="1425.85,-190.77 1426.34,-180.18 1419.36,-188.15 1425.85,-190.77"/>
</a>
</g>
</g>
<!-- 26&#45;&gt;27 -->
<g id="edge63" class="edge">
<title>26&#45;&gt;27</title>
<g id="a_edge63"><a xlink:title="include">
<path fill="none" stroke="#1414ce" d="M816.02,-294.67C879.13,-281.64 987.21,-259.32 1051.79,-245.99"/>
<polygon fill="#1414ce" stroke="#1414ce" points="1052.68,-249.38 1061.77,-243.93 1051.27,-242.52 1052.68,-249.38"/>
</a>
</g>
</g>
<!-- 26&#45;&gt;24 -->
<g id="edge64" class="edge">
<title>26&#45;&gt;24</title>
<g id="a_edge64"><a xlink:title="include">
<path fill="none" stroke="#1414ce" d="M715.57,-298.35C615.2,-285.12 391.3,-255.6 288.48,-242.05"/>
<polygon fill="#1414ce" stroke="#1414ce" points="288.7,-238.55 278.33,-240.71 287.79,-245.49 288.7,-238.55"/>
</a>
</g>
</g>
<!-- 26&#45;&gt;19 -->
<g id="edge65" class="edge">
<title>26&#45;&gt;19</title>
<g id="a_edge65"><a xlink:title="include">
<path fill="none" stroke="#1414ce" d="M816.41,-298.66C921.5,-285.46 1163.1,-255.09 1270.21,-241.63"/>
<polygon fill="#1414ce" stroke="#1414ce" points="1270.97,-245.07 1280.46,-240.35 1270.1,-238.12 1270.97,-245.07"/>
</a>
</g>
</g>
<!-- 26&#45;&gt;6 -->
<g id="edge60" class="edge">
<title>26&#45;&gt;6</title>
<g id="a_edge60"><a xlink:title="include">
<path fill="none" stroke="#1414ce" d="M715.74,-291.58C655.3,-273.61 553.03,-237.21 481,-180 458.69,-162.28 438.99,-136.29 426.03,-116.97"/>
<polygon fill="#1414ce" stroke="#1414ce" points="428.8,-114.81 420.4,-108.35 422.94,-118.63 428.8,-114.81"/>
</a>
</g>
</g>
<!-- 20&#45;&gt;8 -->
<g id="edge66" class="edge">
<title>20&#45;&gt;8</title>
<g id="a_edge66"><a xlink:title="include">
<path fill="none" stroke="#1414ce" d="M1263.99,-147.23C1260.98,-146.06 1257.95,-144.96 1255,-144 1191.54,-123.38 1116.06,-108.17 1066.92,-99.46"/>
<polygon fill="#1414ce" stroke="#1414ce" points="1067.3,-95.98 1056.85,-97.7 1066.09,-102.87 1067.3,-95.98"/>
</a>
</g>
</g>
<!-- 19&#45;&gt;18 -->
<g id="edge68" class="edge">
<title>19&#45;&gt;18</title>
<g id="a_edge68"><a xlink:title="include">
<path fill="none" stroke="#1414ce" d="M1349.66,-215.88C1363.78,-206.81 1381.31,-195.55 1396.56,-185.76"/>
<polygon fill="#1414ce" stroke="#1414ce" points="1398.71,-188.54 1405.23,-180.19 1394.93,-182.65 1398.71,-188.54"/>
</a>
</g>
</g>
<!-- 19&#45;&gt;20 -->
<g id="edge69" class="edge">
<title>19&#45;&gt;20</title>
<g id="a_edge69"><a xlink:title="include">
<path fill="none" stroke="#1414ce" d="M1315.83,-215.7C1312.57,-207.81 1308.63,-198.3 1305,-189.55"/>
<polygon fill="#1414ce" stroke="#1414ce" points="1308.15,-188 1301.09,-180.1 1301.68,-190.68 1308.15,-188"/>
</a>
</g>
</g>
<!-- 11 -->
<g id="node32" class="node">
<title>11</title>
<g id="a_node32"><a xlink:title="stdio.h">
<polygon fill="#ffffff" stroke="black" points="551.5,-108 486.5,-108 486.5,-72 551.5,-72 551.5,-108"/>
<text text-anchor="middle" x="519" y="-86.3" font-family="Times,serif" font-size="14.00">stdio.h</text>
</a>
</g>
</g>
<!-- 19&#45;&gt;11 -->
<g id="edge67" class="edge">
<title>19&#45;&gt;11</title>
<g id="a_edge67"><a xlink:title="include">
<path fill="none" stroke="#1414ce" d="M1280.38,-228.4C1246.86,-224.84 1198.97,-219.88 1157,-216 1060.19,-207.05 809.75,-219.68 721,-180 699.76,-170.51 703.01,-155.87 683,-144 644.99,-121.45 596.24,-107.27 561.8,-99.32"/>
<polygon fill="#1414ce" stroke="#1414ce" points="562.12,-95.81 551.6,-97.05 560.6,-102.64 562.12,-95.81"/>
</a>
</g>
</g>
<!-- 21&#45;&gt;5 -->
<g id="edge76" class="edge">
<title>21&#45;&gt;5</title>
<g id="a_edge76"><a xlink:title="include">
<path fill="none" stroke="#1414ce" d="M529.87,-437.62C549.61,-429.14 573.6,-415.6 588,-396 600.22,-379.36 625.49,-247.66 636.12,-189.94"/>
<polygon fill="#1414ce" stroke="#1414ce" points="639.57,-190.54 637.93,-180.07 632.69,-189.28 639.57,-190.54"/>
</a>
</g>
</g>
<!-- 21&#45;&gt;24 -->
<g id="edge77" class="edge">
<title>21&#45;&gt;24</title>
<g id="a_edge77"><a xlink:title="include">
<path fill="none" stroke="#1414ce" d="M464.26,-444.57C398.07,-435.29 253.43,-413.25 239,-396 207.79,-358.68 217.16,-297.71 226.36,-262.49"/>
<polygon fill="#1414ce" stroke="#1414ce" points="229.85,-263.01 229.17,-252.44 223.11,-261.13 229.85,-263.01"/>
</a>
</g>
</g>
<!-- 21&#45;&gt;25 -->
<g id="edge78" class="edge">
<title>21&#45;&gt;25</title>
<g id="a_edge78"><a xlink:title="include">
<path fill="none" stroke="#1414ce" d="M529.66,-440.63C573.12,-429.48 650.89,-409.54 706.2,-395.36"/>
<polygon fill="#1414ce" stroke="#1414ce" points="707.08,-398.75 715.9,-392.87 705.35,-391.96 707.08,-398.75"/>
</a>
</g>
</g>
<!-- 21&#45;&gt;13 -->
<g id="edge80" class="edge">
<title>21&#45;&gt;13</title>
<g id="a_edge80"><a xlink:title="include">
<path fill="none" stroke="#1414ce" d="M464.41,-444.32C395.19,-434.16 238.17,-409.9 218,-396 125.16,-332.04 115.72,-288.47 85,-180 80.64,-164.61 78.95,-158.81 85,-144 89.49,-133.02 97.47,-123.08 105.85,-114.86"/>
<polygon fill="#1414ce" stroke="#1414ce" points="108.24,-117.42 113.25,-108.09 103.51,-112.26 108.24,-117.42"/>
</a>
</g>
</g>
<!-- 21&#45;&gt;9 -->
<g id="edge79" class="edge">
<title>21&#45;&gt;9</title>
<g id="a_edge79"><a xlink:title="include">
<path fill="none" stroke="#1414ce" d="M504.79,-431.73C508.98,-421.55 513.73,-408.3 516,-396 529.56,-322.64 526.18,-234.09 523.23,-190.28"/>
<polygon fill="#1414ce" stroke="#1414ce" points="526.71,-189.87 522.5,-180.15 519.73,-190.37 526.71,-189.87"/>
</a>
</g>
</g>
<!-- 21&#45;&gt;8 -->
<g id="edge71" class="edge">
<title>21&#45;&gt;8</title>
<g id="a_edge71"><a xlink:title="include">
<path fill="none" stroke="#1414ce" d="M529.51,-447.36C603.88,-443.07 783.78,-429.43 833,-396 940.63,-322.89 914.5,-255.23 982,-144 987.43,-135.06 993.45,-125.33 998.85,-116.68"/>
<polygon fill="#1414ce" stroke="#1414ce" points="1001.86,-118.46 1004.2,-108.12 995.93,-114.75 1001.86,-118.46"/>
</a>
</g>
</g>
<!-- 21&#45;&gt;4 -->
<g id="edge72" class="edge">
<title>21&#45;&gt;4</title>
<g id="a_edge72"><a xlink:title="include">
<path fill="none" stroke="#1414ce" d="M510.94,-431.75C518.39,-421.8 527.2,-408.76 533,-396 580.89,-290.59 544.37,-246.08 599,-144 620.43,-103.96 657.29,-66.33 682.84,-43.03"/>
<polygon fill="#1414ce" stroke="#1414ce" points="685.27,-45.55 690.38,-36.27 680.59,-40.34 685.27,-45.55"/>
</a>
</g>
</g>
<!-- 21&#45;&gt;11 -->
<g id="edge73" class="edge">
<title>21&#45;&gt;11</title>
<g id="a_edge73"><a xlink:title="include">
<path fill="none" stroke="#1414ce" d="M464.2,-444.48C415.7,-437.04 328.57,-420.56 310,-396 300.35,-383.24 304.81,-375.14 310,-360 346.24,-254.28 442.87,-158.05 490.98,-114.92"/>
<polygon fill="#1414ce" stroke="#1414ce" points="493.38,-117.47 498.54,-108.22 488.74,-112.23 493.38,-117.47"/>
</a>
</g>
</g>
<!-- 21&#45;&gt;6 -->
<g id="edge74" class="edge">
<title>21&#45;&gt;6</title>
<g id="a_edge74"><a xlink:title="include">
<path fill="none" stroke="#1414ce" d="M464.3,-444.95C413.85,-437.95 320.77,-421.82 301,-396 232.75,-306.84 337.28,-171.21 386.58,-115.85"/>
<polygon fill="#1414ce" stroke="#1414ce" points="389.32,-118.04 393.43,-108.27 384.13,-113.34 389.32,-118.04"/>
</a>
</g>
</g>
<!-- 23 -->
<g id="node34" class="node">
<title>23</title>
<g id="a_node34"><a xlink:title="string.h">
<polygon fill="#ffffff" stroke="black" points="392.5,-396 319.5,-396 319.5,-360 392.5,-360 392.5,-396"/>
<text text-anchor="middle" x="356" y="-374.3" font-family="Times,serif" font-size="14.00">string.h</text>
</a>
</g>
</g>
<!-- 21&#45;&gt;23 -->
<g id="edge75" class="edge">
<title>21&#45;&gt;23</title>
<g id="a_edge75"><a xlink:title="include">
<path fill="none" stroke="#1414ce" d="M464.3,-432.76C445.02,-423.2 420.39,-410.97 399.5,-400.59"/>
<polygon fill="#1414ce" stroke="#1414ce" points="401.01,-397.44 390.49,-396.12 397.89,-403.71 401.01,-397.44"/>
</a>
</g>
</g>
<!-- 22 -->
<g id="node35" class="node">
<title>22</title>
<g id="a_node35"><a xlink:title="sys/types.h">
<polygon fill="#ffffff" stroke="black" points="507.5,-396 410.5,-396 410.5,-360 507.5,-360 507.5,-396"/>
<text text-anchor="middle" x="459" y="-374.3" font-family="Times,serif" font-size="14.00">sys/types.h</text>
</a>
</g>
</g>
<!-- 21&#45;&gt;22 -->
<g id="edge70" class="edge">
<title>21&#45;&gt;22</title>
<g id="a_edge70"><a xlink:title="include">
<path fill="none" stroke="#1414ce" d="M487.61,-431.7C483.24,-423.64 477.94,-413.89 473.1,-404.98"/>
<polygon fill="#1414ce" stroke="#1414ce" points="476.13,-403.22 468.29,-396.1 469.98,-406.56 476.13,-403.22"/>
</a>
</g>
</g>
<!-- 14 -->
<g id="node25" class="node">
<title>14</title>
<g id="a_node25"><a xlink:title="assert.h">
<polygon fill="#ffffff" stroke="black" points="74,-36 0,-36 0,0 74,0 74,-36"/>
<text text-anchor="middle" x="37" y="-14.3" font-family="Times,serif" font-size="14.00">assert.h</text>
</a>
</g>
</g>
<!-- 13&#45;&gt;14 -->
<g id="edge81" class="edge">
<title>13&#45;&gt;14</title>
<g id="a_edge81"><a xlink:title="include">
<path fill="none" stroke="#1414ce" d="M112.54,-71.88C99.7,-62.89 83.8,-51.76 69.91,-42.03"/>
<polygon fill="#1414ce" stroke="#1414ce" points="71.76,-39.06 61.56,-36.19 67.74,-44.79 71.76,-39.06"/>
</a>
</g>
</g>
<!-- 16 -->
<g id="node27" class="node">
<title>16</title>
<g id="a_node27"><a xlink:title="inttypes.h">
<polygon fill="#ffffff" stroke="black" points="181.5,-36 92.5,-36 92.5,0 181.5,0 181.5,-36"/>
<text text-anchor="middle" x="137" y="-14.3" font-family="Times,serif" font-size="14.00">inttypes.h</text>
</a>
</g>
</g>
<!-- 13&#45;&gt;16 -->
<g id="edge83" class="edge">
<title>13&#45;&gt;16</title>
<g id="a_edge83"><a xlink:title="include">
<path fill="none" stroke="#1414ce" d="M137,-71.7C137,-63.98 137,-54.71 137,-46.11"/>
<polygon fill="#1414ce" stroke="#1414ce" points="140.5,-46.1 137,-36.1 133.5,-46.1 140.5,-46.1"/>
</a>
</g>
</g>
<!-- 15 -->
<g id="node28" class="node">
<title>15</title>
<g id="a_node28"><a xlink:title="limits.h">
<polygon fill="#ffffff" stroke="black" points="270.5,-36 199.5,-36 199.5,0 270.5,0 270.5,-36"/>
<text text-anchor="middle" x="235" y="-14.3" font-family="Times,serif" font-size="14.00">limits.h</text>
</a>
</g>
</g>
<!-- 13&#45;&gt;15 -->
<g id="edge82" class="edge">
<title>13&#45;&gt;15</title>
<g id="a_edge82"><a xlink:title="include">
<path fill="none" stroke="#1414ce" d="M160.97,-71.88C173.55,-62.89 189.13,-51.76 202.75,-42.03"/>
<polygon fill="#1414ce" stroke="#1414ce" points="204.83,-44.85 210.93,-36.19 200.76,-39.15 204.83,-44.85"/>
</a>
</g>
</g>
<!-- 13&#45;&gt;4 -->
<g id="edge84" class="edge">
<title>13&#45;&gt;4</title>
<g id="a_edge84"><a xlink:title="include">
<path fill="none" stroke="#1414ce" d="M199.88,-75.47C206.65,-74.21 213.46,-73.02 220,-72 382.6,-46.63 577.41,-29.51 664.71,-22.53"/>
<polygon fill="#1414ce" stroke="#1414ce" points="665.12,-26.01 674.81,-21.73 664.56,-19.03 665.12,-26.01"/>
</a>
</g>
</g>
<!-- 28&#45;&gt;18 -->
<g id="edge87" class="edge">
<title>28&#45;&gt;18</title>
<g id="a_edge87"><a xlink:title="include">
<path fill="none" stroke="#1414ce" d="M1576.28,-215.88C1543.09,-203.71 1499.16,-187.62 1468.53,-176.39"/>
<polygon fill="#1414ce" stroke="#1414ce" points="1469.68,-173.08 1459.09,-172.93 1467.27,-179.65 1469.68,-173.08"/>
</a>
</g>
</g>
<!-- 28&#45;&gt;8 -->
<g id="edge85" class="edge">
<title>28&#45;&gt;8</title>
<g id="a_edge85"><a xlink:title="include">
<path fill="none" stroke="#1414ce" d="M1600.26,-215.95C1571.23,-195.16 1518.68,-160.73 1468,-144 1328.33,-97.89 1152.85,-90.79 1067.06,-90.37"/>
<polygon fill="#1414ce" stroke="#1414ce" points="1066.81,-86.87 1056.8,-90.35 1066.79,-93.87 1066.81,-86.87"/>
</a>
</g>
</g>
<!-- 28&#45;&gt;4 -->
<g id="edge86" class="edge">
<title>28&#45;&gt;4</title>
<g id="a_edge86"><a xlink:title="include">
<path fill="none" stroke="#1414ce" d="M1608.38,-215.81C1589.82,-195.21 1555.76,-161.32 1519,-144 1381.53,-79.24 908.8,-35.37 757.78,-22.74"/>
<polygon fill="#1414ce" stroke="#1414ce" points="757.72,-19.23 747.47,-21.89 757.15,-26.2 757.72,-19.23"/>
</a>
</g>
</g>
<!-- 32&#45;&gt;8 -->
<g id="edge88" class="edge">
<title>32&#45;&gt;8</title>
<g id="a_edge88"><a xlink:title="include">
<path fill="none" stroke="#1414ce" d="M816.26,-148.49C857.51,-136.56 919.65,-118.58 963.44,-105.91"/>
<polygon fill="#1414ce" stroke="#1414ce" points="964.69,-109.2 973.32,-103.06 962.74,-102.47 964.69,-109.2"/>
</a>
</g>
</g>
<!-- 10 -->
<g id="node30" class="node">
<title>10</title>
<g id="a_node30"><a xlink:title="stddef.h">
<polygon fill="#ffffff" stroke="black" points="813,-108 739,-108 739,-72 813,-72 813,-108"/>
<text text-anchor="middle" x="776" y="-86.3" font-family="Times,serif" font-size="14.00">stddef.h</text>
</a>
</g>
</g>
<!-- 32&#45;&gt;10 -->
<g id="edge89" class="edge">
<title>32&#45;&gt;10</title>
<g id="a_edge89"><a xlink:title="include">
<path fill="none" stroke="#1414ce" d="M773.74,-143.7C774.07,-135.98 774.47,-126.71 774.84,-118.11"/>
<polygon fill="#1414ce" stroke="#1414ce" points="778.34,-118.25 775.27,-108.1 771.34,-117.95 778.34,-118.25"/>
</a>
</g>
</g>
<!-- 32&#45;&gt;4 -->
<g id="edge90" class="edge">
<title>32&#45;&gt;4</title>
<g id="a_edge90"><a xlink:title="include">
<path fill="none" stroke="#1414ce" d="M755.55,-143.83C746.62,-134.1 736.34,-121.26 730,-108 720.66,-88.46 715.87,-64.32 713.44,-46.12"/>
<polygon fill="#1414ce" stroke="#1414ce" points="716.92,-45.68 712.27,-36.16 709.96,-46.51 716.92,-45.68"/>
</a>
</g>
</g>
<!-- 9&#45;&gt;10 -->
<g id="edge91" class="edge">
<title>9&#45;&gt;10</title>
<g id="a_edge91"><a xlink:title="include">
<path fill="none" stroke="#1414ce" d="M552.01,-152.49C596.06,-140.39 677.12,-118.14 728.69,-103.99"/>
<polygon fill="#1414ce" stroke="#1414ce" points="729.88,-107.29 738.6,-101.27 728.03,-100.54 729.88,-107.29"/>
</a>
</g>
</g>
<!-- 9&#45;&gt;11 -->
<g id="edge92" class="edge">
<title>9&#45;&gt;11</title>
<g id="a_edge92"><a xlink:title="include">
<path fill="none" stroke="#1414ce" d="M520.51,-143.7C520.29,-135.98 520.02,-126.71 519.77,-118.11"/>
<polygon fill="#1414ce" stroke="#1414ce" points="523.27,-118 519.49,-108.1 516.28,-118.2 523.27,-118"/>
</a>
</g>
</g>
<!-- 9&#45;&gt;6 -->
<g id="edge93" class="edge">
<title>9&#45;&gt;6</title>
<g id="a_edge93"><a xlink:title="include">
<path fill="none" stroke="#1414ce" d="M493.85,-143.88C479.47,-134.81 461.62,-123.55 446.09,-113.76"/>
<polygon fill="#1414ce" stroke="#1414ce" points="447.58,-110.56 437.26,-108.19 443.85,-116.48 447.58,-110.56"/>
</a>
</g>
</g>
<!-- 29&#45;&gt;10 -->
<g id="edge94" class="edge">
<title>29&#45;&gt;10</title>
<g id="a_edge94"><a xlink:title="include">
<path fill="none" stroke="#1414ce" d="M1099.72,-148.08C1019.06,-133.86 891.78,-111.41 823.32,-99.34"/>
<polygon fill="#1414ce" stroke="#1414ce" points="823.71,-95.86 813.25,-97.57 822.49,-102.75 823.71,-95.86"/>
</a>
</g>
</g>
<!-- 29&#45;&gt;4 -->
<g id="edge95" class="edge">
<title>29&#45;&gt;4</title>
<g id="a_edge95"><a xlink:title="include">
<path fill="none" stroke="#1414ce" d="M1157.92,-143.67C1138.78,-122.92 1103.71,-88.89 1066,-72 962.68,-25.73 827.22,-18.44 757.27,-18.11"/>
<polygon fill="#1414ce" stroke="#1414ce" points="757.03,-14.61 747.03,-18.11 757.03,-21.61 757.03,-14.61"/>
</a>
</g>
</g>
</g>
</svg>
