<?xml version="1.0" encoding="UTF-8" standalone="no"?>
<!DOCTYPE svg PUBLIC "-//W3C//DTD SVG 1.1//EN"
 "http://www.w3.org/Graphics/SVG/1.1/DTD/svg11.dtd">
<!-- Generated by graphviz version 2.43.0 (0)
 -->
<!-- Title: %3 Pages: 1 -->
<svg width="1068pt" height="476pt"
 viewBox="0.00 0.00 1068.22 476.00" xmlns="http://www.w3.org/2000/svg" xmlns:xlink="http://www.w3.org/1999/xlink">
<g id="graph0" class="graph" transform="scale(1 1) rotate(0) translate(4 472)">
<title>%3</title>
<polygon fill="transparent" stroke="transparent" points="-4,4 -4,-472 1064.22,-472 1064.22,4 -4,4"/>
<!-- 8 -->
<g id="node1" class="node">
<title>8</title>
<g id="a_node1"><a xlink:title="atom.h">
<polygon fill="#ffffff" stroke="black" points="96.72,-396 30.72,-396 30.72,-360 96.72,-360 96.72,-396"/>
<text text-anchor="middle" x="63.72" y="-374.3" font-family="Times,serif" font-size="14.00">atom.h</text>
</a>
</g>
</g>
<!-- 4 -->
<g id="node19" class="node">
<title>4</title>
<g id="a_node19"><a xlink:title="stdint.h">
<polygon fill="#ffffff" stroke="black" points="168.72,-36 96.72,-36 96.72,0 168.72,0 168.72,-36"/>
<text text-anchor="middle" x="132.72" y="-14.3" font-family="Times,serif" font-size="14.00">stdint.h</text>
</a>
</g>
</g>
<!-- 8&#45;&gt;4 -->
<g id="edge1" class="edge">
<title>8&#45;&gt;4</title>
<g id="a_edge1"><a xlink:title="include">
<path fill="none" stroke="#1414ce" d="M59.47,-359.63C53.33,-332.99 42.72,-280.36 42.72,-235 42.72,-235 42.72,-235 42.72,-161 42.72,-113.71 78.76,-69.41 105.23,-43.25"/>
<polygon fill="#1414ce" stroke="#1414ce" points="107.95,-45.49 112.74,-36.05 103.1,-40.44 107.95,-45.49"/>
</a>
</g>
</g>
<!-- 6 -->
<g id="node21" class="node">
<title>6</title>
<g id="a_node21"><a xlink:title="stdlib.h">
<polygon fill="#ffffff" stroke="black" points="211.22,-108 140.22,-108 140.22,-72 211.22,-72 211.22,-108"/>
<text text-anchor="middle" x="175.72" y="-86.3" font-family="Times,serif" font-size="14.00">stdlib.h</text>
</a>
</g>
</g>
<!-- 8&#45;&gt;6 -->
<g id="edge2" class="edge">
<title>8&#45;&gt;6</title>
<g id="a_edge2"><a xlink:title="include">
<path fill="none" stroke="#1414ce" d="M62.61,-359.7C60.84,-318.88 61.22,-214.65 104.72,-144 112.04,-132.1 123.11,-121.97 134.34,-113.86"/>
<polygon fill="#1414ce" stroke="#1414ce" points="136.59,-116.56 142.9,-108.05 132.66,-110.77 136.59,-116.56"/>
</a>
</g>
</g>
<!-- 14 -->
<g id="node2" class="node">
<title>14</title>
<g id="a_node2"><a xlink:title="erl_nif.h">
<polygon fill="#ffffff" stroke="black" points="448.72,-180 374.72,-180 374.72,-144 448.72,-144 448.72,-180"/>
<text text-anchor="middle" x="411.72" y="-158.3" font-family="Times,serif" font-size="14.00">erl_nif.h</text>
</a>
</g>
</g>
<!-- 15 -->
<g id="node12" class="node">
<title>15</title>
<g id="a_node12"><a xlink:title="term_typedef.h">
<polygon fill="#ffffff" stroke="black" points="424.22,-108 299.22,-108 299.22,-72 424.22,-72 424.22,-108"/>
<text text-anchor="middle" x="361.72" y="-86.3" font-family="Times,serif" font-size="14.00">term_typedef.h</text>
</a>
</g>
</g>
<!-- 14&#45;&gt;15 -->
<g id="edge3" class="edge">
<title>14&#45;&gt;15</title>
<g id="a_edge3"><a xlink:title="include">
<path fill="none" stroke="#1414ce" d="M399.36,-143.7C393.49,-135.47 386.35,-125.48 379.88,-116.42"/>
<polygon fill="#1414ce" stroke="#1414ce" points="382.6,-114.21 373.94,-108.1 376.9,-118.28 382.6,-114.21"/>
</a>
</g>
</g>
<!-- 9 -->
<g id="node3" class="node">
<title>9</title>
<g id="a_node3"><a xlink:title="intn.h">
<polygon fill="#ffffff" stroke="black" points="721.22,-396 662.22,-396 662.22,-360 721.22,-360 721.22,-396"/>
<text text-anchor="middle" x="691.72" y="-374.3" font-family="Times,serif" font-size="14.00">intn.h</text>
</a>
</g>
</g>
<!-- 10 -->
<g id="node13" class="node">
<title>10</title>
<g id="a_node13"><a xlink:title="utils.h">
<polygon fill="#ffffff" stroke="black" points="566.72,-180 504.72,-180 504.72,-144 566.72,-144 566.72,-180"/>
<text text-anchor="middle" x="535.72" y="-158.3" font-family="Times,serif" font-size="14.00">utils.h</text>
</a>
</g>
</g>
<!-- 9&#45;&gt;10 -->
<g id="edge6" class="edge">
<title>9&#45;&gt;10</title>
<g id="a_edge6"><a xlink:title="include">
<path fill="none" stroke="#1414ce" d="M681.45,-359.99C663.09,-329.99 622.89,-266.12 583.72,-216 576.23,-206.41 567.44,-196.4 559.44,-187.69"/>
<polygon fill="#1414ce" stroke="#1414ce" points="561.76,-185.04 552.38,-180.11 556.63,-189.81 561.76,-185.04"/>
</a>
</g>
</g>
<!-- 3 -->
<g id="node17" class="node">
<title>3</title>
<g id="a_node17"><a xlink:title="stdbool.h">
<polygon fill="#ffffff" stroke="black" points="749.22,-108 666.22,-108 666.22,-72 749.22,-72 749.22,-108"/>
<text text-anchor="middle" x="707.72" y="-86.3" font-family="Times,serif" font-size="14.00">stdbool.h</text>
</a>
</g>
</g>
<!-- 9&#45;&gt;3 -->
<g id="edge4" class="edge">
<title>9&#45;&gt;3</title>
<g id="a_edge4"><a xlink:title="include">
<path fill="none" stroke="#1414ce" d="M709.05,-359.67C727.7,-341.29 758.5,-311.68 786.72,-288 807.15,-270.86 822.79,-275.85 834.72,-252 856.18,-209.07 861.33,-183.95 834.72,-144 830.06,-137.01 792.2,-121.71 759.02,-109.33"/>
<polygon fill="#1414ce" stroke="#1414ce" points="759.96,-105.95 749.37,-105.77 757.53,-112.52 759.96,-105.95"/>
</a>
</g>
</g>
<!-- 7 -->
<g id="node22" class="node">
<title>7</title>
<g id="a_node22"><a xlink:title="string.h">
<polygon fill="#ffffff" stroke="black" points="868.22,-324 795.22,-324 795.22,-288 868.22,-288 868.22,-324"/>
<text text-anchor="middle" x="831.72" y="-302.3" font-family="Times,serif" font-size="14.00">string.h</text>
</a>
</g>
</g>
<!-- 9&#45;&gt;7 -->
<g id="edge5" class="edge">
<title>9&#45;&gt;7</title>
<g id="a_edge5"><a xlink:title="include">
<path fill="none" stroke="#1414ce" d="M721.41,-362.15C740.93,-352.39 766.8,-339.46 788.58,-328.57"/>
<polygon fill="#1414ce" stroke="#1414ce" points="790.26,-331.64 797.64,-324.04 787.13,-325.38 790.26,-331.64"/>
</a>
</g>
</g>
<!-- 19 -->
<g id="node4" class="node">
<title>19</title>
<g id="a_node4"><a xlink:title="list.h">
<polygon fill="#ffffff" stroke="black" points="676.72,-180 622.72,-180 622.72,-144 676.72,-144 676.72,-180"/>
<text text-anchor="middle" x="649.72" y="-158.3" font-family="Times,serif" font-size="14.00">list.h</text>
</a>
</g>
</g>
<!-- 19&#45;&gt;3 -->
<g id="edge7" class="edge">
<title>19&#45;&gt;3</title>
<g id="a_edge7"><a xlink:title="include">
<path fill="none" stroke="#1414ce" d="M664.05,-143.7C671.01,-135.3 679.49,-125.07 687.12,-115.86"/>
<polygon fill="#1414ce" stroke="#1414ce" points="689.86,-118.04 693.55,-108.1 684.47,-113.57 689.86,-118.04"/>
</a>
</g>
</g>
<!-- 21 -->
<g id="node5" class="node">
<title>21</title>
<g id="a_node5"><a xlink:title="mailbox.h">
<polygon fill="#ffffff" stroke="black" points="574.72,-252 488.72,-252 488.72,-216 574.72,-216 574.72,-252"/>
<text text-anchor="middle" x="531.72" y="-230.3" font-family="Times,serif" font-size="14.00">mailbox.h</text>
</a>
</g>
</g>
<!-- 21&#45;&gt;19 -->
<g id="edge9" class="edge">
<title>21&#45;&gt;19</title>
<g id="a_edge9"><a xlink:title="include">
<path fill="none" stroke="#1414ce" d="M560.58,-215.88C576.47,-206.45 596.35,-194.66 613.3,-184.61"/>
<polygon fill="#1414ce" stroke="#1414ce" points="615.55,-187.34 622.37,-179.23 611.98,-181.32 615.55,-187.34"/>
</a>
</g>
</g>
<!-- 21&#45;&gt;15 -->
<g id="edge10" class="edge">
<title>21&#45;&gt;15</title>
<g id="a_edge10"><a xlink:title="include">
<path fill="none" stroke="#1414ce" d="M520.48,-215.96C507.19,-196.74 483.58,-165.38 457.72,-144 443.24,-132.03 425.67,-121.42 409.54,-112.89"/>
<polygon fill="#1414ce" stroke="#1414ce" points="410.73,-109.57 400.24,-108.12 407.54,-115.8 410.73,-109.57"/>
</a>
</g>
</g>
<!-- 21&#45;&gt;10 -->
<g id="edge11" class="edge">
<title>21&#45;&gt;10</title>
<g id="a_edge11"><a xlink:title="include">
<path fill="none" stroke="#1414ce" d="M532.71,-215.7C533.15,-207.98 533.68,-198.71 534.17,-190.11"/>
<polygon fill="#1414ce" stroke="#1414ce" points="537.66,-190.29 534.74,-180.1 530.68,-189.89 537.66,-190.29"/>
</a>
</g>
</g>
<!-- 21&#45;&gt;3 -->
<g id="edge8" class="edge">
<title>21&#45;&gt;3</title>
<g id="a_edge8"><a xlink:title="include">
<path fill="none" stroke="#1414ce" d="M546.49,-215.72C565.9,-193.24 599.22,-155.48 613.72,-144 628.45,-132.33 646.07,-121.67 662.05,-113.02"/>
<polygon fill="#1414ce" stroke="#1414ce" points="664.03,-115.93 671.24,-108.16 660.76,-109.74 664.03,-115.93"/>
</a>
</g>
</g>
<!-- 13 -->
<g id="node6" class="node">
<title>13</title>
<g id="a_node6"><a xlink:title="memory.h">
<polygon fill="#ffffff" stroke="black" points="394.72,-252 308.72,-252 308.72,-216 394.72,-216 394.72,-252"/>
<text text-anchor="middle" x="351.72" y="-230.3" font-family="Times,serif" font-size="14.00">memory.h</text>
</a>
</g>
</g>
<!-- 13&#45;&gt;14 -->
<g id="edge14" class="edge">
<title>13&#45;&gt;14</title>
<g id="a_edge14"><a xlink:title="include">
<path fill="none" stroke="#1414ce" d="M366.55,-215.7C373.74,-207.3 382.51,-197.07 390.41,-187.86"/>
<polygon fill="#1414ce" stroke="#1414ce" points="393.21,-189.97 397.06,-180.1 387.89,-185.42 393.21,-189.97"/>
</a>
</g>
</g>
<!-- 13&#45;&gt;15 -->
<g id="edge15" class="edge">
<title>13&#45;&gt;15</title>
<g id="a_edge15"><a xlink:title="include">
<path fill="none" stroke="#1414ce" d="M352.92,-215.87C354.63,-191.67 357.76,-147.21 359.79,-118.39"/>
<polygon fill="#1414ce" stroke="#1414ce" points="363.3,-118.41 360.51,-108.19 356.31,-117.92 363.3,-118.41"/>
</a>
</g>
</g>
<!-- 13&#45;&gt;10 -->
<g id="edge16" class="edge">
<title>13&#45;&gt;10</title>
<g id="a_edge16"><a xlink:title="include">
<path fill="none" stroke="#1414ce" d="M394.86,-216.59C425.11,-205.08 465.29,-189.79 495,-178.49"/>
<polygon fill="#1414ce" stroke="#1414ce" points="496.54,-181.65 504.64,-174.82 494.05,-175.11 496.54,-181.65"/>
</a>
</g>
</g>
<!-- 13&#45;&gt;4 -->
<g id="edge12" class="edge">
<title>13&#45;&gt;4</title>
<g id="a_edge12"><a xlink:title="include">
<path fill="none" stroke="#1414ce" d="M340.72,-215.86C320.03,-184.53 272.69,-117.12 220.72,-72 207.33,-60.38 191.08,-49.8 176.2,-41.19"/>
<polygon fill="#1414ce" stroke="#1414ce" points="177.59,-37.96 167.15,-36.1 174.15,-44.06 177.59,-37.96"/>
</a>
</g>
</g>
<!-- 13&#45;&gt;6 -->
<g id="edge13" class="edge">
<title>13&#45;&gt;6</title>
<g id="a_edge13"><a xlink:title="include">
<path fill="none" stroke="#1414ce" d="M314.8,-215.94C296.46,-206.61 274.47,-194.09 256.72,-180 233.05,-161.22 210.28,-135.26 194.94,-116.23"/>
<polygon fill="#1414ce" stroke="#1414ce" points="197.59,-113.94 188.64,-108.27 192.1,-118.29 197.59,-113.94"/>
</a>
</g>
</g>
<!-- 18 -->
<g id="node7" class="node">
<title>18</title>
<g id="a_node7"><a xlink:title="refc_binary.h">
<polygon fill="#ffffff" stroke="black" points="568.72,-396 460.72,-396 460.72,-360 568.72,-360 568.72,-396"/>
<text text-anchor="middle" x="514.72" y="-374.3" font-family="Times,serif" font-size="14.00">refc_binary.h</text>
</a>
</g>
</g>
<!-- 18&#45;&gt;19 -->
<g id="edge19" class="edge">
<title>18&#45;&gt;19</title>
<g id="a_edge19"><a xlink:title="include">
<path fill="none" stroke="#1414ce" d="M537.23,-360C549.05,-350.32 563.22,-337.46 573.72,-324 606.44,-282.03 629.53,-223.68 641.14,-189.98"/>
<polygon fill="#1414ce" stroke="#1414ce" points="644.5,-190.95 644.37,-180.35 637.87,-188.72 644.5,-190.95"/>
</a>
</g>
</g>
<!-- 20 -->
<g id="node8" class="node">
<title>20</title>
<g id="a_node8"><a xlink:title="resources.h">
<polygon fill="#ffffff" stroke="black" points="564.72,-324 464.72,-324 464.72,-288 564.72,-288 564.72,-324"/>
<text text-anchor="middle" x="514.72" y="-302.3" font-family="Times,serif" font-size="14.00">resources.h</text>
</a>
</g>
</g>
<!-- 18&#45;&gt;20 -->
<g id="edge20" class="edge">
<title>18&#45;&gt;20</title>
<g id="a_edge20"><a xlink:title="include">
<path fill="none" stroke="#1414ce" d="M514.72,-359.7C514.72,-351.98 514.72,-342.71 514.72,-334.11"/>
<polygon fill="#1414ce" stroke="#1414ce" points="518.22,-334.1 514.72,-324.1 511.22,-334.1 518.22,-334.1"/>
</a>
</g>
</g>
<!-- 18&#45;&gt;3 -->
<g id="edge17" class="edge">
<title>18&#45;&gt;3</title>
<g id="a_edge17"><a xlink:title="include">
<path fill="none" stroke="#1414ce" d="M561.13,-359.98C638.71,-331.07 787.68,-273.42 801.72,-252 832.93,-204.36 776.81,-146.13 738.68,-114.39"/>
<polygon fill="#1414ce" stroke="#1414ce" points="740.82,-111.62 730.85,-108.03 736.41,-117.06 740.82,-111.62"/>
</a>
</g>
</g>
<!-- 18&#45;&gt;6 -->
<g id="edge18" class="edge">
<title>18&#45;&gt;6</title>
<g id="a_edge18"><a xlink:title="include">
<path fill="none" stroke="#1414ce" d="M460.53,-361.43C402.06,-342.64 308.51,-306.59 242.72,-252 212.54,-226.96 206.88,-216.16 191.72,-180 183.43,-160.24 179.43,-136.26 177.51,-118.17"/>
<polygon fill="#1414ce" stroke="#1414ce" points="180.97,-117.66 176.57,-108.02 174,-118.3 180.97,-117.66"/>
</a>
</g>
</g>
<!-- 20&#45;&gt;14 -->
<g id="edge22" class="edge">
<title>20&#45;&gt;14</title>
<g id="a_edge22"><a xlink:title="include">
<path fill="none" stroke="#1414ce" d="M502.29,-287.87C484.35,-263.14 451.06,-217.24 430.22,-188.51"/>
<polygon fill="#1414ce" stroke="#1414ce" points="432.89,-186.23 424.19,-180.19 427.22,-190.34 432.89,-186.23"/>
</a>
</g>
</g>
<!-- 20&#45;&gt;19 -->
<g id="edge23" class="edge">
<title>20&#45;&gt;19</title>
<g id="a_edge23"><a xlink:title="include">
<path fill="none" stroke="#1414ce" d="M540.36,-287.91C553.99,-278.21 570.59,-265.36 583.72,-252 602.84,-232.55 621.03,-207.34 633.45,-188.72"/>
<polygon fill="#1414ce" stroke="#1414ce" points="636.51,-190.44 639.06,-180.16 630.65,-186.61 636.51,-190.44"/>
</a>
</g>
</g>
<!-- 20&#45;&gt;21 -->
<g id="edge24" class="edge">
<title>20&#45;&gt;21</title>
<g id="a_edge24"><a xlink:title="include">
<path fill="none" stroke="#1414ce" d="M518.92,-287.7C520.81,-279.9 523.09,-270.51 525.2,-261.83"/>
<polygon fill="#1414ce" stroke="#1414ce" points="528.61,-262.65 527.56,-252.1 521.8,-261 528.61,-262.65"/>
</a>
</g>
</g>
<!-- 20&#45;&gt;13 -->
<g id="edge25" class="edge">
<title>20&#45;&gt;13</title>
<g id="a_edge25"><a xlink:title="include">
<path fill="none" stroke="#1414ce" d="M474.84,-287.88C452.56,-278.31 424.6,-266.3 400.96,-256.15"/>
<polygon fill="#1414ce" stroke="#1414ce" points="402.03,-252.8 391.46,-252.07 399.27,-259.23 402.03,-252.8"/>
</a>
</g>
</g>
<!-- 22 -->
<g id="node10" class="node">
<title>22</title>
<g id="a_node10"><a xlink:title="synclist.h">
<polygon fill="#ffffff" stroke="black" points="792.22,-252 707.22,-252 707.22,-216 792.22,-216 792.22,-252"/>
<text text-anchor="middle" x="749.72" y="-230.3" font-family="Times,serif" font-size="14.00">synclist.h</text>
</a>
</g>
</g>
<!-- 20&#45;&gt;22 -->
<g id="edge26" class="edge">
<title>20&#45;&gt;22</title>
<g id="a_edge26"><a xlink:title="include">
<path fill="none" stroke="#1414ce" d="M564.84,-290.07C603.86,-278.45 657.86,-262.36 697.42,-250.58"/>
<polygon fill="#1414ce" stroke="#1414ce" points="698.56,-253.89 707.15,-247.68 696.56,-247.18 698.56,-253.89"/>
</a>
</g>
</g>
<!-- 20&#45;&gt;6 -->
<g id="edge21" class="edge">
<title>20&#45;&gt;6</title>
<g id="a_edge21"><a xlink:title="include">
<path fill="none" stroke="#1414ce" d="M464.56,-299.44C419.41,-292.89 352.28,-279.24 299.72,-252 256.36,-229.53 246.04,-219.05 216.72,-180 202.5,-161.06 191.62,-136.4 184.65,-117.84"/>
<polygon fill="#1414ce" stroke="#1414ce" points="187.87,-116.45 181.19,-108.23 181.29,-118.83 187.87,-116.45"/>
</a>
</g>
</g>
<!-- 23 -->
<g id="node9" class="node">
<title>23</title>
<g id="a_node9"><a xlink:title="smp.h">
<polygon fill="#ffffff" stroke="black" points="754.72,-180 694.72,-180 694.72,-144 754.72,-144 754.72,-180"/>
<text text-anchor="middle" x="724.72" y="-158.3" font-family="Times,serif" font-size="14.00">smp.h</text>
</a>
</g>
</g>
<!-- 23&#45;&gt;3 -->
<g id="edge27" class="edge">
<title>23&#45;&gt;3</title>
<g id="a_edge27"><a xlink:title="include">
<path fill="none" stroke="#1414ce" d="M720.52,-143.7C718.62,-135.9 716.34,-126.51 714.23,-117.83"/>
<polygon fill="#1414ce" stroke="#1414ce" points="717.63,-117 711.87,-108.1 710.83,-118.65 717.63,-117"/>
</a>
</g>
</g>
<!-- 22&#45;&gt;19 -->
<g id="edge29" class="edge">
<title>22&#45;&gt;19</title>
<g id="a_edge29"><a xlink:title="include">
<path fill="none" stroke="#1414ce" d="M725.26,-215.88C712.42,-206.89 696.52,-195.76 682.62,-186.03"/>
<polygon fill="#1414ce" stroke="#1414ce" points="684.47,-183.06 674.27,-180.19 680.46,-188.79 684.47,-183.06"/>
</a>
</g>
</g>
<!-- 22&#45;&gt;23 -->
<g id="edge30" class="edge">
<title>22&#45;&gt;23</title>
<g id="a_edge30"><a xlink:title="include">
<path fill="none" stroke="#1414ce" d="M743.54,-215.7C740.72,-207.81 737.33,-198.3 734.2,-189.55"/>
<polygon fill="#1414ce" stroke="#1414ce" points="737.49,-188.34 730.83,-180.1 730.89,-190.7 737.49,-188.34"/>
</a>
</g>
</g>
<!-- 5 -->
<g id="node20" class="node">
<title>5</title>
<g id="a_node20"><a xlink:title="stdio.h">
<polygon fill="#ffffff" stroke="black" points="832.22,-108 767.22,-108 767.22,-72 832.22,-72 832.22,-108"/>
<text text-anchor="middle" x="799.72" y="-86.3" font-family="Times,serif" font-size="14.00">stdio.h</text>
</a>
</g>
</g>
<!-- 22&#45;&gt;5 -->
<g id="edge28" class="edge">
<title>22&#45;&gt;5</title>
<g id="a_edge28"><a xlink:title="include">
<path fill="none" stroke="#1414ce" d="M755.75,-215.87C764.35,-191.46 780.2,-146.43 790.34,-117.64"/>
<polygon fill="#1414ce" stroke="#1414ce" points="793.65,-118.78 793.67,-108.19 787.04,-116.46 793.65,-118.78"/>
</a>
</g>
</g>
<!-- 1 -->
<g id="node11" class="node">
<title>1</title>
<g id="a_node11"><a xlink:title="/__w/AtomVM/AtomVM/src/libAtomVM/term.h">
<polygon fill="#bfbfbf" stroke="black" points="634.22,-468 293.22,-468 293.22,-432 634.22,-432 634.22,-468"/>
<text text-anchor="middle" x="463.72" y="-446.3" font-family="Times,serif" font-size="14.00">/__w/AtomVM/AtomVM/src/libAtomVM/term.h</text>
</a>
</g>
</g>
<!-- 1&#45;&gt;8 -->
<g id="edge37" class="edge">
<title>1&#45;&gt;8</title>
<g id="a_edge37"><a xlink:title="include">
<path fill="none" stroke="#1414ce" d="M305.12,-431.99C243.84,-423.65 173.5,-411.9 110.72,-396 109.3,-395.64 107.86,-395.25 106.42,-394.85"/>
<polygon fill="#1414ce" stroke="#1414ce" points="107.43,-391.5 96.84,-391.9 105.37,-398.19 107.43,-391.5"/>
</a>
</g>
</g>
<!-- 1&#45;&gt;9 -->
<g id="edge38" class="edge">
<title>1&#45;&gt;9</title>
<g id="a_edge38"><a xlink:title="include">
<path fill="none" stroke="#1414ce" d="M519.2,-431.97C560.41,-419.31 615.61,-402.37 652.35,-391.09"/>
<polygon fill="#1414ce" stroke="#1414ce" points="653.67,-394.34 662.2,-388.06 651.61,-387.65 653.67,-394.34"/>
</a>
</g>
</g>
<!-- 1&#45;&gt;13 -->
<g id="edge39" class="edge">
<title>1&#45;&gt;13</title>
<g id="a_edge39"><a xlink:title="include">
<path fill="none" stroke="#1414ce" d="M441.48,-431.82C430.38,-422.28 417.48,-409.6 408.72,-396 381.2,-353.26 364.97,-295.56 357.26,-262.1"/>
<polygon fill="#1414ce" stroke="#1414ce" points="360.63,-261.15 355.05,-252.14 353.8,-262.66 360.63,-261.15"/>
</a>
</g>
</g>
<!-- 1&#45;&gt;18 -->
<g id="edge40" class="edge">
<title>1&#45;&gt;18</title>
<g id="a_edge40"><a xlink:title="include">
<path fill="none" stroke="#1414ce" d="M476.32,-431.7C482.32,-423.47 489.59,-413.48 496.2,-404.42"/>
<polygon fill="#1414ce" stroke="#1414ce" points="499.2,-406.25 502.26,-396.1 493.54,-402.13 499.2,-406.25"/>
</a>
</g>
</g>
<!-- 1&#45;&gt;15 -->
<g id="edge42" class="edge">
<title>1&#45;&gt;15</title>
<g id="a_edge42"><a xlink:title="include">
<path fill="none" stroke="#1414ce" d="M432.1,-431.89C416.88,-422.62 399.09,-410.17 385.72,-396 334.57,-341.77 319.54,-323.86 299.72,-252 286.1,-202.65 318.31,-147.42 341.22,-116.17"/>
<polygon fill="#1414ce" stroke="#1414ce" points="344.14,-118.1 347.39,-108.02 338.56,-113.88 344.14,-118.1"/>
</a>
</g>
</g>
<!-- 1&#45;&gt;10 -->
<g id="edge41" class="edge">
<title>1&#45;&gt;10</title>
<g id="a_edge41"><a xlink:title="include">
<path fill="none" stroke="#1414ce" d="M458.85,-431.98C456.15,-421.67 453.08,-408.19 451.72,-396 446.38,-348.26 446.71,-335.18 455.72,-288 462.04,-254.87 461.59,-244.45 479.72,-216 486.57,-205.24 496.09,-195.15 505.33,-186.71"/>
<polygon fill="#1414ce" stroke="#1414ce" points="507.74,-189.26 512.96,-180.04 503.13,-183.99 507.74,-189.26"/>
</a>
</g>
</g>
<!-- 1&#45;&gt;3 -->
<g id="edge32" class="edge">
<title>1&#45;&gt;3</title>
<g id="a_edge32"><a xlink:title="include">
<path fill="none" stroke="#1414ce" d="M634.34,-432.32C679.4,-424.47 727.28,-412.94 769.72,-396 833.73,-370.45 896.72,-375.92 896.72,-307 896.72,-307 896.72,-307 896.72,-233 896.72,-189.63 888.59,-173.4 856.72,-144 852.86,-140.44 800.34,-122.19 758.73,-108.08"/>
<polygon fill="#1414ce" stroke="#1414ce" points="759.83,-104.76 749.24,-104.87 757.59,-111.39 759.83,-104.76"/>
</a>
</g>
</g>
<!-- 1&#45;&gt;4 -->
<g id="edge33" class="edge">
<title>1&#45;&gt;4</title>
<g id="a_edge33"><a xlink:title="include">
<path fill="none" stroke="#1414ce" d="M293.01,-438C177.41,-428.96 42.11,-414.61 21.72,-396 -8.15,-368.73 2.72,-347.45 2.72,-307 2.72,-307 2.72,-307 2.72,-161 2.72,-107.62 53.31,-65.58 91.37,-41.51"/>
<polygon fill="#1414ce" stroke="#1414ce" points="93.55,-44.27 100.25,-36.06 89.89,-38.3 93.55,-44.27"/>
</a>
</g>
</g>
<!-- 1&#45;&gt;5 -->
<g id="edge34" class="edge">
<title>1&#45;&gt;5</title>
<g id="a_edge34"><a xlink:title="include">
<path fill="none" stroke="#1414ce" d="M634.63,-434C713.81,-425.14 798.14,-412.41 833.72,-396 888.04,-370.93 934.72,-366.83 934.72,-307 934.72,-307 934.72,-307 934.72,-233 934.72,-177.97 880.81,-135.79 841.13,-112.19"/>
<polygon fill="#1414ce" stroke="#1414ce" points="842.81,-109.12 832.4,-107.16 839.31,-115.18 842.81,-109.12"/>
</a>
</g>
</g>
<!-- 1&#45;&gt;6 -->
<g id="edge35" class="edge">
<title>1&#45;&gt;6</title>
<g id="a_edge35"><a xlink:title="include">
<path fill="none" stroke="#1414ce" d="M417.21,-431.98C395.43,-422.93 369.73,-410.64 348.72,-396 274.46,-344.25 254.18,-327.8 204.72,-252 185.95,-223.25 183.24,-213.71 176.72,-180 172.78,-159.65 172.7,-136.18 173.51,-118.46"/>
<polygon fill="#1414ce" stroke="#1414ce" points="177.01,-118.43 174.1,-108.25 170.03,-118.03 177.01,-118.43"/>
</a>
</g>
</g>
<!-- 1&#45;&gt;7 -->
<g id="edge36" class="edge">
<title>1&#45;&gt;7</title>
<g id="a_edge36"><a xlink:title="include">
<path fill="none" stroke="#1414ce" d="M621.08,-431.98C658.29,-424.14 696.93,-412.7 730.72,-396 762.35,-380.36 791.79,-352.22 810.63,-331.76"/>
<polygon fill="#1414ce" stroke="#1414ce" points="813.47,-333.84 817.56,-324.06 808.27,-329.16 813.47,-333.84"/>
</a>
</g>
</g>
<!-- 2 -->
<g id="node23" class="node">
<title>2</title>
<g id="a_node23"><a xlink:title="sys/types.h">
<polygon fill="#ffffff" stroke="black" points="1060.22,-396 963.22,-396 963.22,-360 1060.22,-360 1060.22,-396"/>
<text text-anchor="middle" x="1011.72" y="-374.3" font-family="Times,serif" font-size="14.00">sys/types.h</text>
</a>
</g>
</g>
<!-- 1&#45;&gt;2 -->
<g id="edge31" class="edge">
<title>1&#45;&gt;2</title>
<g id="a_edge31"><a xlink:title="include">
<path fill="none" stroke="#1414ce" d="M634.41,-436.84C727.78,-428.57 845.19,-415.5 948.72,-396 950.18,-395.72 951.66,-395.43 953.14,-395.13"/>
<polygon fill="#1414ce" stroke="#1414ce" points="954.05,-398.51 963.05,-392.93 952.53,-391.68 954.05,-398.51"/>
</a>
</g>
</g>
<!-- 16 -->
<g id="node14" class="node">
<title>16</title>
<g id="a_node14"><a xlink:title="assert.h">
<polygon fill="#ffffff" stroke="black" points="328.72,-36 254.72,-36 254.72,0 328.72,0 328.72,-36"/>
<text text-anchor="middle" x="291.72" y="-14.3" font-family="Times,serif" font-size="14.00">assert.h</text>
</a>
</g>
</g>
<!-- 15&#45;&gt;16 -->
<g id="edge43" class="edge">
<title>15&#45;&gt;16</title>
<g id="a_edge43"><a xlink:title="include">
<path fill="none" stroke="#1414ce" d="M344.41,-71.7C335.85,-63.14 325.37,-52.66 316.02,-43.3"/>
<polygon fill="#1414ce" stroke="#1414ce" points="318.37,-40.7 308.82,-36.1 313.42,-45.65 318.37,-40.7"/>
</a>
</g>
</g>
<!-- 11 -->
<g id="node15" class="node">
<title>11</title>
<g id="a_node15"><a xlink:title="inttypes.h">
<polygon fill="#ffffff" stroke="black" points="567.22,-36 478.22,-36 478.22,0 567.22,0 567.22,-36"/>
<text text-anchor="middle" x="522.72" y="-14.3" font-family="Times,serif" font-size="14.00">inttypes.h</text>
</a>
</g>
</g>
<!-- 15&#45;&gt;11 -->
<g id="edge45" class="edge">
<title>15&#45;&gt;11</title>
<g id="a_edge45"><a xlink:title="include">
<path fill="none" stroke="#1414ce" d="M401.1,-71.88C423.11,-62.31 450.73,-50.3 474.08,-40.15"/>
<polygon fill="#1414ce" stroke="#1414ce" points="475.69,-43.27 483.46,-36.07 472.89,-36.85 475.69,-43.27"/>
</a>
</g>
</g>
<!-- 17 -->
<g id="node16" class="node">
<title>17</title>
<g id="a_node16"><a xlink:title="limits.h">
<polygon fill="#ffffff" stroke="black" points="418.22,-36 347.22,-36 347.22,0 418.22,0 418.22,-36"/>
<text text-anchor="middle" x="382.72" y="-14.3" font-family="Times,serif" font-size="14.00">limits.h</text>
</a>
</g>
</g>
<!-- 15&#45;&gt;17 -->
<g id="edge44" class="edge">
<title>15&#45;&gt;17</title>
<g id="a_edge44"><a xlink:title="include">
<path fill="none" stroke="#1414ce" d="M366.91,-71.7C369.25,-63.9 372.07,-54.51 374.67,-45.83"/>
<polygon fill="#1414ce" stroke="#1414ce" points="378.07,-46.69 377.59,-36.1 371.36,-44.68 378.07,-46.69"/>
</a>
</g>
</g>
<!-- 15&#45;&gt;4 -->
<g id="edge46" class="edge">
<title>15&#45;&gt;4</title>
<g id="a_edge46"><a xlink:title="include">
<path fill="none" stroke="#1414ce" d="M305.99,-71.97C267.02,-60.05 215.6,-44.33 178.91,-33.12"/>
<polygon fill="#1414ce" stroke="#1414ce" points="179.57,-29.66 168.98,-30.08 177.52,-36.36 179.57,-29.66"/>
</a>
</g>
</g>
<!-- 10&#45;&gt;11 -->
<g id="edge47" class="edge">
<title>10&#45;&gt;11</title>
<g id="a_edge47"><a xlink:title="include">
<path fill="none" stroke="#1414ce" d="M534.15,-143.87C531.93,-119.67 527.86,-75.21 525.23,-46.39"/>
<polygon fill="#1414ce" stroke="#1414ce" points="528.69,-45.83 524.29,-36.19 521.72,-46.47 528.69,-45.83"/>
</a>
</g>
</g>
<!-- 10&#45;&gt;3 -->
<g id="edge48" class="edge">
<title>10&#45;&gt;3</title>
<g id="a_edge48"><a xlink:title="include">
<path fill="none" stroke="#1414ce" d="M566.87,-148.32C591.83,-138.16 627.37,-123.7 656.51,-111.84"/>
<polygon fill="#1414ce" stroke="#1414ce" points="658.18,-114.94 666.12,-107.93 655.54,-108.46 658.18,-114.94"/>
</a>
</g>
</g>
<!-- 12 -->
<g id="node18" class="node">
<title>12</title>
<g id="a_node18"><a xlink:title="stddef.h">
<polygon fill="#ffffff" stroke="black" points="516.72,-108 442.72,-108 442.72,-72 516.72,-72 516.72,-108"/>
<text text-anchor="middle" x="479.72" y="-86.3" font-family="Times,serif" font-size="14.00">stddef.h</text>
</a>
</g>
</g>
<!-- 10&#45;&gt;12 -->
<g id="edge49" class="edge">
<title>10&#45;&gt;12</title>
<g id="a_edge49"><a xlink:title="include">
<path fill="none" stroke="#1414ce" d="M521.88,-143.7C515.23,-135.39 507.14,-125.28 499.83,-116.14"/>
<polygon fill="#1414ce" stroke="#1414ce" points="502.38,-113.73 493.4,-108.1 496.92,-118.1 502.38,-113.73"/>
</a>
</g>
</g>
<!-- 10&#45;&gt;5 -->
<g id="edge50" class="edge">
<title>10&#45;&gt;5</title>
<g id="a_edge50"><a xlink:title="include">
<path fill="none" stroke="#1414ce" d="M567.03,-154.21C615.96,-143.49 709.21,-122.64 757.02,-108.25"/>
<polygon fill="#1414ce" stroke="#1414ce" points="758.27,-111.52 766.77,-105.19 756.18,-104.84 758.27,-111.52"/>
</a>
</g>
</g>
<!-- 10&#45;&gt;6 -->
<g id="edge51" class="edge">
<title>10&#45;&gt;6</title>
<g id="a_edge51"><a xlink:title="include">
<path fill="none" stroke="#1414ce" d="M504.64,-154.01C490.36,-150.86 473.2,-147.14 457.72,-144 374.53,-127.12 277.15,-109.23 221.32,-99.15"/>
<polygon fill="#1414ce" stroke="#1414ce" points="221.86,-95.69 211.4,-97.36 220.62,-102.58 221.86,-95.69"/>
</a>
</g>
</g>
</g>
</svg>
