<?xml version="1.0" encoding="UTF-8" standalone="no"?>
<!DOCTYPE svg PUBLIC "-//W3C//DTD SVG 1.1//EN"
 "http://www.w3.org/Graphics/SVG/1.1/DTD/svg11.dtd">
<!-- Generated by graphviz version 2.43.0 (0)
 -->
<!-- Title: %3 Pages: 1 -->
<svg width="1568pt" height="836pt"
 viewBox="0.00 0.00 1567.50 836.00" xmlns="http://www.w3.org/2000/svg" xmlns:xlink="http://www.w3.org/1999/xlink">
<g id="graph0" class="graph" transform="scale(1 1) rotate(0) translate(4 832)">
<title>%3</title>
<polygon fill="transparent" stroke="transparent" points="-4,4 -4,-832 1563.5,-832 1563.5,4 -4,4"/>
<!-- 9 -->
<g id="node1" class="node">
<title>9</title>
<g id="a_node1"><a xlink:title="stdbool.h">
<polygon fill="#ffffff" stroke="black" points="697,-108 614,-108 614,-72 697,-72 697,-108"/>
<text text-anchor="middle" x="655.5" y="-86.3" font-family="Times,serif" font-size="14.00">stdbool.h</text>
</a>
</g>
</g>
<!-- 26 -->
<g id="node2" class="node">
<title>26</title>
<g id="a_node2"><a xlink:title="refc_binary.h">
<polygon fill="#ffffff" stroke="black" points="1032.5,-396 924.5,-396 924.5,-360 1032.5,-360 1032.5,-396"/>
<text text-anchor="middle" x="978.5" y="-374.3" font-family="Times,serif" font-size="14.00">refc_binary.h</text>
</a>
</g>
</g>
<!-- 26&#45;&gt;9 -->
<g id="edge1" class="edge">
<title>26&#45;&gt;9</title>
<g id="a_edge1"><a xlink:title="include">
<path fill="none" stroke="#1414ce" d="M962.33,-359.96C924.13,-320.11 824.63,-218.58 732.5,-144 719.46,-133.45 704.4,-122.77 691.08,-113.8"/>
<polygon fill="#1414ce" stroke="#1414ce" points="692.87,-110.79 682.61,-108.17 688.99,-116.62 692.87,-110.79"/>
</a>
</g>
</g>
<!-- 16 -->
<g id="node8" class="node">
<title>16</title>
<g id="a_node8"><a xlink:title="list.h">
<polygon fill="#ffffff" stroke="black" points="682.5,-180 628.5,-180 628.5,-144 682.5,-144 682.5,-180"/>
<text text-anchor="middle" x="655.5" y="-158.3" font-family="Times,serif" font-size="14.00">list.h</text>
</a>
</g>
</g>
<!-- 26&#45;&gt;16 -->
<g id="edge3" class="edge">
<title>26&#45;&gt;16</title>
<g id="a_edge3"><a xlink:title="include">
<path fill="none" stroke="#1414ce" d="M937.65,-359.9C916.21,-350.34 889.84,-337.62 867.5,-324 797.32,-281.21 722.33,-220.17 683.09,-186.89"/>
<polygon fill="#1414ce" stroke="#1414ce" points="685.15,-184.05 675.27,-180.23 680.61,-189.38 685.15,-184.05"/>
</a>
</g>
</g>
<!-- 7 -->
<g id="node10" class="node">
<title>7</title>
<g id="a_node10"><a xlink:title="stdlib.h">
<polygon fill="#ffffff" stroke="black" points="1097,-108 1026,-108 1026,-72 1097,-72 1097,-108"/>
<text text-anchor="middle" x="1061.5" y="-86.3" font-family="Times,serif" font-size="14.00">stdlib.h</text>
</a>
</g>
</g>
<!-- 26&#45;&gt;7 -->
<g id="edge2" class="edge">
<title>26&#45;&gt;7</title>
<g id="a_edge2"><a xlink:title="include">
<path fill="none" stroke="#1414ce" d="M983.44,-359.97C997.31,-312.19 1036.65,-176.62 1053.59,-118.27"/>
<polygon fill="#1414ce" stroke="#1414ce" points="1057.05,-118.89 1056.48,-108.31 1050.33,-116.93 1057.05,-118.89"/>
</a>
</g>
</g>
<!-- 27 -->
<g id="node13" class="node">
<title>27</title>
<g id="a_node13"><a xlink:title="resources.h">
<polygon fill="#ffffff" stroke="black" points="1120.5,-324 1020.5,-324 1020.5,-288 1120.5,-288 1120.5,-324"/>
<text text-anchor="middle" x="1070.5" y="-302.3" font-family="Times,serif" font-size="14.00">resources.h</text>
</a>
</g>
</g>
<!-- 26&#45;&gt;27 -->
<g id="edge4" class="edge">
<title>26&#45;&gt;27</title>
<g id="a_edge4"><a xlink:title="include">
<path fill="none" stroke="#1414ce" d="M1001.24,-359.7C1012.94,-350.8 1027.36,-339.82 1040.01,-330.2"/>
<polygon fill="#1414ce" stroke="#1414ce" points="1042.18,-332.94 1048.02,-324.1 1037.94,-327.37 1042.18,-332.94"/>
</a>
</g>
</g>
<!-- 30 -->
<g id="node3" class="node">
<title>30</title>
<g id="a_node3"><a xlink:title="defaultatoms.h">
<polygon fill="#ffffff" stroke="black" points="524.5,-684 400.5,-684 400.5,-648 524.5,-648 524.5,-684"/>
<text text-anchor="middle" x="462.5" y="-662.3" font-family="Times,serif" font-size="14.00">defaultatoms.h</text>
</a>
</g>
</g>
<!-- 31 -->
<g id="node17" class="node">
<title>31</title>
<g id="a_node17"><a xlink:title="defaultatoms.def">
<polygon fill="#ffffff" stroke="black" points="137,-612 0,-612 0,-576 137,-576 137,-612"/>
<text text-anchor="middle" x="68.5" y="-590.3" font-family="Times,serif" font-size="14.00">defaultatoms.def</text>
</a>
</g>
</g>
<!-- 30&#45;&gt;31 -->
<g id="edge6" class="edge">
<title>30&#45;&gt;31</title>
<g id="a_edge6"><a xlink:title="include">
<path fill="none" stroke="#1414ce" d="M400.43,-655.05C337.58,-644.82 237.63,-628.16 151.5,-612 150.2,-611.76 148.89,-611.51 147.57,-611.26"/>
<polygon fill="#1414ce" stroke="#1414ce" points="147.79,-607.74 137.31,-609.28 146.46,-614.61 147.79,-607.74"/>
</a>
</g>
</g>
<!-- 4 -->
<g id="node23" class="node">
<title>4</title>
<g id="a_node23"><a xlink:title="globalcontext.h">
<polygon fill="#ffffff" stroke="black" points="526,-612 399,-612 399,-576 526,-576 526,-612"/>
<text text-anchor="middle" x="462.5" y="-590.3" font-family="Times,serif" font-size="14.00">globalcontext.h</text>
</a>
</g>
</g>
<!-- 30&#45;&gt;4 -->
<g id="edge5" class="edge">
<title>30&#45;&gt;4</title>
<g id="a_edge5"><a xlink:title="include">
<path fill="none" stroke="#1414ce" d="M462.5,-647.7C462.5,-639.98 462.5,-630.71 462.5,-622.11"/>
<polygon fill="#1414ce" stroke="#1414ce" points="466,-622.1 462.5,-612.1 459,-622.1 466,-622.1"/>
</a>
</g>
</g>
<!-- 6 -->
<g id="node4" class="node">
<title>6</title>
<g id="a_node4"><a xlink:title="atom.h">
<polygon fill="#ffffff" stroke="black" points="260.5,-180 194.5,-180 194.5,-144 260.5,-144 260.5,-180"/>
<text text-anchor="middle" x="227.5" y="-158.3" font-family="Times,serif" font-size="14.00">atom.h</text>
</a>
</g>
</g>
<!-- 5 -->
<g id="node9" class="node">
<title>5</title>
<g id="a_node9"><a xlink:title="stdint.h">
<polygon fill="#ffffff" stroke="black" points="858.5,-36 786.5,-36 786.5,0 858.5,0 858.5,-36"/>
<text text-anchor="middle" x="822.5" y="-14.3" font-family="Times,serif" font-size="14.00">stdint.h</text>
</a>
</g>
</g>
<!-- 6&#45;&gt;5 -->
<g id="edge7" class="edge">
<title>6&#45;&gt;5</title>
<g id="a_edge7"><a xlink:title="include">
<path fill="none" stroke="#1414ce" d="M255.01,-143.97C289.67,-123.38 351.72,-89.32 409.5,-72 538.46,-33.34 698.37,-22.88 775.94,-20.05"/>
<polygon fill="#1414ce" stroke="#1414ce" points="776.45,-23.54 786.33,-19.7 776.21,-16.54 776.45,-23.54"/>
</a>
</g>
</g>
<!-- 6&#45;&gt;7 -->
<g id="edge8" class="edge">
<title>6&#45;&gt;7</title>
<g id="a_edge8"><a xlink:title="include">
<path fill="none" stroke="#1414ce" d="M260.72,-158.51C357.26,-151.24 646.05,-129.21 885.5,-108 929.75,-104.08 980.21,-99.16 1015.73,-95.62"/>
<polygon fill="#1414ce" stroke="#1414ce" points="1016.18,-99.09 1025.78,-94.62 1015.49,-92.13 1016.18,-99.09"/>
</a>
</g>
</g>
<!-- 12 -->
<g id="node5" class="node">
<title>12</title>
<g id="a_node5"><a xlink:title="assert.h">
<polygon fill="#ffffff" stroke="black" points="1559.5,-36 1485.5,-36 1485.5,0 1559.5,0 1559.5,-36"/>
<text text-anchor="middle" x="1522.5" y="-14.3" font-family="Times,serif" font-size="14.00">assert.h</text>
</a>
</g>
</g>
<!-- 24 -->
<g id="node6" class="node">
<title>24</title>
<g id="a_node6"><a xlink:title="utils.h">
<polygon fill="#ffffff" stroke="black" points="1189.5,-180 1127.5,-180 1127.5,-144 1189.5,-144 1189.5,-180"/>
<text text-anchor="middle" x="1158.5" y="-158.3" font-family="Times,serif" font-size="14.00">utils.h</text>
</a>
</g>
</g>
<!-- 24&#45;&gt;7 -->
<g id="edge11" class="edge">
<title>24&#45;&gt;7</title>
<g id="a_edge11"><a xlink:title="include">
<path fill="none" stroke="#1414ce" d="M1134.52,-143.7C1122.19,-134.8 1106.98,-123.82 1093.65,-114.2"/>
<polygon fill="#1414ce" stroke="#1414ce" points="1095.36,-111.12 1085.2,-108.1 1091.26,-116.79 1095.36,-111.12"/>
</a>
</g>
</g>
<!-- 25 -->
<g id="node15" class="node">
<title>25</title>
<g id="a_node15"><a xlink:title="stddef.h">
<polygon fill="#ffffff" stroke="black" points="1189.5,-108 1115.5,-108 1115.5,-72 1189.5,-72 1189.5,-108"/>
<text text-anchor="middle" x="1152.5" y="-86.3" font-family="Times,serif" font-size="14.00">stddef.h</text>
</a>
</g>
</g>
<!-- 24&#45;&gt;25 -->
<g id="edge9" class="edge">
<title>24&#45;&gt;25</title>
<g id="a_edge9"><a xlink:title="include">
<path fill="none" stroke="#1414ce" d="M1157.02,-143.7C1156.36,-135.98 1155.56,-126.71 1154.82,-118.11"/>
<polygon fill="#1414ce" stroke="#1414ce" points="1158.31,-117.77 1153.97,-108.1 1151.33,-118.37 1158.31,-117.77"/>
</a>
</g>
</g>
<!-- 18 -->
<g id="node29" class="node">
<title>18</title>
<g id="a_node29"><a xlink:title="stdio.h">
<polygon fill="#ffffff" stroke="black" points="876,-108 811,-108 811,-72 876,-72 876,-108"/>
<text text-anchor="middle" x="843.5" y="-86.3" font-family="Times,serif" font-size="14.00">stdio.h</text>
</a>
</g>
</g>
<!-- 24&#45;&gt;18 -->
<g id="edge10" class="edge">
<title>24&#45;&gt;18</title>
<g id="a_edge10"><a xlink:title="include">
<path fill="none" stroke="#1414ce" d="M1127.43,-154.1C1070.71,-141.49 950.31,-114.74 886.03,-100.45"/>
<polygon fill="#1414ce" stroke="#1414ce" points="886.73,-97.02 876.21,-98.27 885.21,-103.86 886.73,-97.02"/>
</a>
</g>
</g>
<!-- 17 -->
<g id="node7" class="node">
<title>17</title>
<g id="a_node7"><a xlink:title="synclist.h">
<polygon fill="#ffffff" stroke="black" points="614,-252 529,-252 529,-216 614,-216 614,-252"/>
<text text-anchor="middle" x="571.5" y="-230.3" font-family="Times,serif" font-size="14.00">synclist.h</text>
</a>
</g>
</g>
<!-- 17&#45;&gt;16 -->
<g id="edge13" class="edge">
<title>17&#45;&gt;16</title>
<g id="a_edge13"><a xlink:title="include">
<path fill="none" stroke="#1414ce" d="M592.26,-215.7C602.74,-206.97 615.61,-196.24 627,-186.75"/>
<polygon fill="#1414ce" stroke="#1414ce" points="629.53,-189.19 634.97,-180.1 625.05,-183.82 629.53,-189.19"/>
</a>
</g>
</g>
<!-- 19 -->
<g id="node24" class="node">
<title>19</title>
<g id="a_node24"><a xlink:title="smp.h">
<polygon fill="#ffffff" stroke="black" points="567.5,-180 507.5,-180 507.5,-144 567.5,-144 567.5,-180"/>
<text text-anchor="middle" x="537.5" y="-158.3" font-family="Times,serif" font-size="14.00">smp.h</text>
</a>
</g>
</g>
<!-- 17&#45;&gt;19 -->
<g id="edge14" class="edge">
<title>17&#45;&gt;19</title>
<g id="a_edge14"><a xlink:title="include">
<path fill="none" stroke="#1414ce" d="M563.1,-215.7C559.23,-207.73 554.55,-198.1 550.26,-189.26"/>
<polygon fill="#1414ce" stroke="#1414ce" points="553.33,-187.57 545.81,-180.1 547.03,-190.63 553.33,-187.57"/>
</a>
</g>
</g>
<!-- 17&#45;&gt;18 -->
<g id="edge12" class="edge">
<title>17&#45;&gt;18</title>
<g id="a_edge12"><a xlink:title="include">
<path fill="none" stroke="#1414ce" d="M576.09,-215.77C582.42,-195.45 595.82,-162.16 619.5,-144 647.56,-122.48 743.89,-105.38 800.67,-96.88"/>
<polygon fill="#1414ce" stroke="#1414ce" points="801.41,-100.31 810.79,-95.39 800.39,-93.38 801.41,-100.31"/>
</a>
</g>
</g>
<!-- 16&#45;&gt;9 -->
<g id="edge15" class="edge">
<title>16&#45;&gt;9</title>
<g id="a_edge15"><a xlink:title="include">
<path fill="none" stroke="#1414ce" d="M655.5,-143.7C655.5,-135.98 655.5,-126.71 655.5,-118.11"/>
<polygon fill="#1414ce" stroke="#1414ce" points="659,-118.1 655.5,-108.1 652,-118.1 659,-118.1"/>
</a>
</g>
</g>
<!-- 3 -->
<g id="node11" class="node">
<title>3</title>
<g id="a_node11"><a xlink:title="context.h">
<polygon fill="#ffffff" stroke="black" points="708,-684 625,-684 625,-648 708,-648 708,-684"/>
<text text-anchor="middle" x="666.5" y="-662.3" font-family="Times,serif" font-size="14.00">context.h</text>
</a>
</g>
</g>
<!-- 3&#45;&gt;16 -->
<g id="edge17" class="edge">
<title>3&#45;&gt;16</title>
<g id="a_edge17"><a xlink:title="include">
<path fill="none" stroke="#1414ce" d="M671.36,-647.67C678.37,-621.08 690.5,-568.5 690.5,-523 690.5,-523 690.5,-523 690.5,-449 690.5,-353.26 670.94,-240.82 661.06,-190.16"/>
<polygon fill="#1414ce" stroke="#1414ce" points="664.49,-189.45 659.11,-180.32 657.62,-190.81 664.49,-189.45"/>
</a>
</g>
</g>
<!-- 20 -->
<g id="node14" class="node">
<title>20</title>
<g id="a_node14"><a xlink:title="term.h">
<polygon fill="#ffffff" stroke="black" points="1071,-468 1006,-468 1006,-432 1071,-432 1071,-468"/>
<text text-anchor="middle" x="1038.5" y="-446.3" font-family="Times,serif" font-size="14.00">term.h</text>
</a>
</g>
</g>
<!-- 3&#45;&gt;20 -->
<g id="edge20" class="edge">
<title>3&#45;&gt;20</title>
<g id="a_edge20"><a xlink:title="include">
<path fill="none" stroke="#1414ce" d="M706.39,-647.9C728.55,-638.04 756.42,-625.05 780.5,-612 863.53,-567.01 956.49,-506.29 1004.96,-473.79"/>
<polygon fill="#1414ce" stroke="#1414ce" points="1007.14,-476.54 1013.48,-468.06 1003.23,-470.73 1007.14,-476.54"/>
</a>
</g>
</g>
<!-- 3&#45;&gt;4 -->
<g id="edge16" class="edge">
<title>3&#45;&gt;4</title>
<g id="a_edge16"><a xlink:title="include">
<path fill="none" stroke="#1414ce" d="M624.73,-650.67C595.02,-640.47 554.69,-626.64 521.68,-615.31"/>
<polygon fill="#1414ce" stroke="#1414ce" points="522.73,-611.97 512.14,-612.03 520.46,-618.59 522.73,-611.97"/>
</a>
</g>
</g>
<!-- 3&#45;&gt;19 -->
<g id="edge19" class="edge">
<title>3&#45;&gt;19</title>
<g id="a_edge19"><a xlink:title="include">
<path fill="none" stroke="#1414ce" d="M646.76,-647.63C622.59,-625.21 582.2,-583.87 560.5,-540 502.41,-422.56 511.58,-382.27 497.5,-252 495.78,-236.09 492.42,-231.17 497.5,-216 500.85,-206 506.92,-196.38 513.33,-188.14"/>
<polygon fill="#1414ce" stroke="#1414ce" points="516.06,-190.33 519.77,-180.4 510.68,-185.85 516.06,-190.33"/>
</a>
</g>
</g>
<!-- 29 -->
<g id="node25" class="node">
<title>29</title>
<g id="a_node25"><a xlink:title="timer_list.h">
<polygon fill="#ffffff" stroke="black" points="396.5,-252 298.5,-252 298.5,-216 396.5,-216 396.5,-252"/>
<text text-anchor="middle" x="347.5" y="-230.3" font-family="Times,serif" font-size="14.00">timer_list.h</text>
</a>
</g>
</g>
<!-- 3&#45;&gt;29 -->
<g id="edge21" class="edge">
<title>3&#45;&gt;29</title>
<g id="a_edge21"><a xlink:title="include">
<path fill="none" stroke="#1414ce" d="M624.62,-659.51C569.86,-651.76 471.29,-635.84 389.5,-612 286.65,-582.02 165.5,-630.13 165.5,-523 165.5,-523 165.5,-523 165.5,-377 165.5,-313.3 235.67,-273.95 288.87,-253.28"/>
<polygon fill="#1414ce" stroke="#1414ce" points="290.12,-256.55 298.25,-249.76 287.66,-250 290.12,-256.55"/>
</a>
</g>
</g>
<!-- 28 -->
<g id="node27" class="node">
<title>28</title>
<g id="a_node27"><a xlink:title="mailbox.h">
<polygon fill="#ffffff" stroke="black" points="995.5,-252 909.5,-252 909.5,-216 995.5,-216 995.5,-252"/>
<text text-anchor="middle" x="952.5" y="-230.3" font-family="Times,serif" font-size="14.00">mailbox.h</text>
</a>
</g>
</g>
<!-- 3&#45;&gt;28 -->
<g id="edge18" class="edge">
<title>3&#45;&gt;28</title>
<g id="a_edge18"><a xlink:title="include">
<path fill="none" stroke="#1414ce" d="M689.69,-647.61C719.23,-623.28 766.5,-576.07 766.5,-523 766.5,-523 766.5,-523 766.5,-449 766.5,-360.87 857.47,-291.34 912.17,-257.5"/>
<polygon fill="#1414ce" stroke="#1414ce" points="914.21,-260.36 920.95,-252.18 910.58,-254.37 914.21,-260.36"/>
</a>
</g>
</g>
<!-- 23 -->
<g id="node12" class="node">
<title>23</title>
<g id="a_node12"><a xlink:title="memory.h">
<polygon fill="#ffffff" stroke="black" points="1370.5,-252 1284.5,-252 1284.5,-216 1370.5,-216 1370.5,-252"/>
<text text-anchor="middle" x="1327.5" y="-230.3" font-family="Times,serif" font-size="14.00">memory.h</text>
</a>
</g>
</g>
<!-- 23&#45;&gt;24 -->
<g id="edge26" class="edge">
<title>23&#45;&gt;24</title>
<g id="a_edge26"><a xlink:title="include">
<path fill="none" stroke="#1414ce" d="M1286.16,-215.88C1259.61,-204.88 1225.3,-190.67 1198.94,-179.75"/>
<polygon fill="#1414ce" stroke="#1414ce" points="1200.19,-176.48 1189.61,-175.89 1197.51,-182.95 1200.19,-176.48"/>
</a>
</g>
</g>
<!-- 23&#45;&gt;5 -->
<g id="edge22" class="edge">
<title>23&#45;&gt;5</title>
<g id="a_edge22"><a xlink:title="include">
<path fill="none" stroke="#1414ce" d="M1322.78,-215.87C1312.48,-182.01 1284.55,-106.83 1231.5,-72 1172.66,-33.36 962.92,-22.81 868.8,-20"/>
<polygon fill="#1414ce" stroke="#1414ce" points="868.81,-16.49 858.71,-19.71 868.61,-23.49 868.81,-16.49"/>
</a>
</g>
</g>
<!-- 23&#45;&gt;7 -->
<g id="edge23" class="edge">
<title>23&#45;&gt;7</title>
<g id="a_edge23"><a xlink:title="include">
<path fill="none" stroke="#1414ce" d="M1306.13,-215.91C1281.32,-196.65 1238.67,-165.25 1198.5,-144 1194.14,-141.69 1144.91,-122.78 1106.7,-108.2"/>
<polygon fill="#1414ce" stroke="#1414ce" points="1107.85,-104.89 1097.26,-104.59 1105.35,-111.43 1107.85,-104.89"/>
</a>
</g>
</g>
<!-- 10 -->
<g id="node16" class="node">
<title>10</title>
<g id="a_node16"><a xlink:title="erl_nif.h">
<polygon fill="#ffffff" stroke="black" points="1471.5,-180 1397.5,-180 1397.5,-144 1471.5,-144 1471.5,-180"/>
<text text-anchor="middle" x="1434.5" y="-158.3" font-family="Times,serif" font-size="14.00">erl_nif.h</text>
</a>
</g>
</g>
<!-- 23&#45;&gt;10 -->
<g id="edge24" class="edge">
<title>23&#45;&gt;10</title>
<g id="a_edge24"><a xlink:title="include">
<path fill="none" stroke="#1414ce" d="M1353.68,-215.88C1367.54,-206.81 1384.74,-195.55 1399.71,-185.76"/>
<polygon fill="#1414ce" stroke="#1414ce" points="1401.77,-188.59 1408.22,-180.19 1397.94,-182.74 1401.77,-188.59"/>
</a>
</g>
</g>
<!-- 11 -->
<g id="node22" class="node">
<title>11</title>
<g id="a_node22"><a xlink:title="term_typedef.h">
<polygon fill="#ffffff" stroke="black" points="1485,-108 1360,-108 1360,-72 1485,-72 1485,-108"/>
<text text-anchor="middle" x="1422.5" y="-86.3" font-family="Times,serif" font-size="14.00">term_typedef.h</text>
</a>
</g>
</g>
<!-- 23&#45;&gt;11 -->
<g id="edge25" class="edge">
<title>23&#45;&gt;11</title>
<g id="a_edge25"><a xlink:title="include">
<path fill="none" stroke="#1414ce" d="M1338.96,-215.87C1355.51,-191.14 1386.21,-145.24 1405.43,-116.51"/>
<polygon fill="#1414ce" stroke="#1414ce" points="1408.35,-118.45 1411,-108.19 1402.53,-114.55 1408.35,-118.45"/>
</a>
</g>
</g>
<!-- 27&#45;&gt;17 -->
<g id="edge32" class="edge">
<title>27&#45;&gt;17</title>
<g id="a_edge32"><a xlink:title="include">
<path fill="none" stroke="#1414ce" d="M1020.37,-297.97C925.58,-284.67 720.93,-255.96 624.2,-242.39"/>
<polygon fill="#1414ce" stroke="#1414ce" points="624.46,-238.89 614.07,-240.97 623.48,-245.83 624.46,-238.89"/>
</a>
</g>
</g>
<!-- 27&#45;&gt;16 -->
<g id="edge29" class="edge">
<title>27&#45;&gt;16</title>
<g id="a_edge29"><a xlink:title="include">
<path fill="none" stroke="#1414ce" d="M1020.47,-290.07C986.5,-279.76 940.63,-265.54 900.5,-252 826.04,-226.88 739.87,-194.89 692.13,-176.91"/>
<polygon fill="#1414ce" stroke="#1414ce" points="693.14,-173.55 682.55,-173.29 690.67,-180.1 693.14,-173.55"/>
</a>
</g>
</g>
<!-- 27&#45;&gt;7 -->
<g id="edge27" class="edge">
<title>27&#45;&gt;7</title>
<g id="a_edge27"><a xlink:title="include">
<path fill="none" stroke="#1414ce" d="M1069.78,-287.85C1068.22,-250.83 1064.54,-163.18 1062.65,-118.39"/>
<polygon fill="#1414ce" stroke="#1414ce" points="1066.14,-118.08 1062.22,-108.23 1059.15,-118.37 1066.14,-118.08"/>
</a>
</g>
</g>
<!-- 27&#45;&gt;23 -->
<g id="edge31" class="edge">
<title>27&#45;&gt;23</title>
<g id="a_edge31"><a xlink:title="include">
<path fill="none" stroke="#1414ce" d="M1120.66,-291.34C1164.94,-279.28 1229.27,-261.76 1274.4,-249.46"/>
<polygon fill="#1414ce" stroke="#1414ce" points="1275.57,-252.77 1284.3,-246.77 1273.73,-246.02 1275.57,-252.77"/>
</a>
</g>
</g>
<!-- 27&#45;&gt;10 -->
<g id="edge28" class="edge">
<title>27&#45;&gt;10</title>
<g id="a_edge28"><a xlink:title="include">
<path fill="none" stroke="#1414ce" d="M1120.54,-301.4C1196.91,-295.09 1338.05,-279.97 1379.5,-252 1401.63,-237.07 1416.47,-209.95 1425.11,-189.56"/>
<polygon fill="#1414ce" stroke="#1414ce" points="1428.4,-190.76 1428.85,-180.17 1421.9,-188.17 1428.4,-190.76"/>
</a>
</g>
</g>
<!-- 27&#45;&gt;28 -->
<g id="edge30" class="edge">
<title>27&#45;&gt;28</title>
<g id="a_edge30"><a xlink:title="include">
<path fill="none" stroke="#1414ce" d="M1041.63,-287.88C1026.21,-278.72 1007.02,-267.34 990.4,-257.48"/>
<polygon fill="#1414ce" stroke="#1414ce" points="991.86,-254.28 981.48,-252.19 988.29,-260.3 991.86,-254.28"/>
</a>
</g>
</g>
<!-- 20&#45;&gt;9 -->
<g id="edge34" class="edge">
<title>20&#45;&gt;9</title>
<g id="a_edge34"><a xlink:title="include">
<path fill="none" stroke="#1414ce" d="M1005.83,-445.41C948.19,-438.5 831.58,-421.69 800.5,-396 706.45,-318.25 750.27,-250.95 691.5,-144 686.41,-134.74 680.14,-125.05 674.27,-116.53"/>
<polygon fill="#1414ce" stroke="#1414ce" points="676.98,-114.3 668.36,-108.14 671.26,-118.33 676.98,-114.3"/>
</a>
</g>
</g>
<!-- 20&#45;&gt;26 -->
<g id="edge40" class="edge">
<title>20&#45;&gt;26</title>
<g id="a_edge40"><a xlink:title="include">
<path fill="none" stroke="#1414ce" d="M1023.67,-431.7C1016.48,-423.3 1007.7,-413.07 999.81,-403.86"/>
<polygon fill="#1414ce" stroke="#1414ce" points="1002.33,-401.42 993.16,-396.1 997.01,-405.97 1002.33,-401.42"/>
</a>
</g>
</g>
<!-- 20&#45;&gt;24 -->
<g id="edge41" class="edge">
<title>20&#45;&gt;24</title>
<g id="a_edge41"><a xlink:title="include">
<path fill="none" stroke="#1414ce" d="M1071.04,-448.03C1107.02,-445.01 1163.47,-434.05 1190.5,-396 1235.31,-332.91 1196.24,-235.54 1172.92,-189.22"/>
<polygon fill="#1414ce" stroke="#1414ce" points="1175.93,-187.41 1168.22,-180.14 1169.71,-190.63 1175.93,-187.41"/>
</a>
</g>
</g>
<!-- 20&#45;&gt;5 -->
<g id="edge35" class="edge">
<title>20&#45;&gt;5</title>
<g id="a_edge35"><a xlink:title="include">
<path fill="none" stroke="#1414ce" d="M1071,-448.73C1110.43,-446.54 1176,-436.53 1211.5,-396 1272.42,-326.44 1228.65,-102.9 1198.5,-72 1153.67,-26.04 959.37,-19.34 869.02,-18.76"/>
<polygon fill="#1414ce" stroke="#1414ce" points="868.81,-15.26 858.79,-18.72 868.78,-22.26 868.81,-15.26"/>
</a>
</g>
</g>
<!-- 20&#45;&gt;7 -->
<g id="edge37" class="edge">
<title>20&#45;&gt;7</title>
<g id="a_edge37"><a xlink:title="include">
<path fill="none" stroke="#1414ce" d="M1071.09,-444.38C1099.32,-438.46 1138.53,-425.21 1157.5,-396 1188.41,-348.39 1108.68,-182.21 1075.34,-117.28"/>
<polygon fill="#1414ce" stroke="#1414ce" points="1078.3,-115.39 1070.6,-108.11 1072.09,-118.6 1078.3,-115.39"/>
</a>
</g>
</g>
<!-- 20&#45;&gt;23 -->
<g id="edge39" class="edge">
<title>20&#45;&gt;23</title>
<g id="a_edge39"><a xlink:title="include">
<path fill="none" stroke="#1414ce" d="M1071.24,-445.2C1127.09,-438.12 1237.59,-421.28 1266.5,-396 1306.06,-361.41 1320.05,-298.39 1324.94,-262.31"/>
<polygon fill="#1414ce" stroke="#1414ce" points="1328.45,-262.39 1326.18,-252.04 1321.51,-261.55 1328.45,-262.39"/>
</a>
</g>
</g>
<!-- 21 -->
<g id="node20" class="node">
<title>21</title>
<g id="a_node20"><a xlink:title="sys/types.h">
<polygon fill="#ffffff" stroke="black" points="1148,-396 1051,-396 1051,-360 1148,-360 1148,-396"/>
<text text-anchor="middle" x="1099.5" y="-374.3" font-family="Times,serif" font-size="14.00">sys/types.h</text>
</a>
</g>
</g>
<!-- 20&#45;&gt;21 -->
<g id="edge33" class="edge">
<title>20&#45;&gt;21</title>
<g id="a_edge33"><a xlink:title="include">
<path fill="none" stroke="#1414ce" d="M1053.58,-431.7C1060.89,-423.3 1069.81,-413.07 1077.84,-403.86"/>
<polygon fill="#1414ce" stroke="#1414ce" points="1080.66,-405.94 1084.59,-396.1 1075.39,-401.34 1080.66,-405.94"/>
</a>
</g>
</g>
<!-- 22 -->
<g id="node21" class="node">
<title>22</title>
<g id="a_node21"><a xlink:title="string.h">
<polygon fill="#ffffff" stroke="black" points="906,-396 833,-396 833,-360 906,-360 906,-396"/>
<text text-anchor="middle" x="869.5" y="-374.3" font-family="Times,serif" font-size="14.00">string.h</text>
</a>
</g>
</g>
<!-- 20&#45;&gt;22 -->
<g id="edge38" class="edge">
<title>20&#45;&gt;22</title>
<g id="a_edge38"><a xlink:title="include">
<path fill="none" stroke="#1414ce" d="M1005.92,-435.5C980.23,-424.87 944.11,-409.9 915.49,-398.05"/>
<polygon fill="#1414ce" stroke="#1414ce" points="916.67,-394.75 906.09,-394.16 913.99,-401.22 916.67,-394.75"/>
</a>
</g>
</g>
<!-- 20&#45;&gt;11 -->
<g id="edge42" class="edge">
<title>20&#45;&gt;11</title>
<g id="a_edge42"><a xlink:title="include">
<path fill="none" stroke="#1414ce" d="M1071.06,-448.77C1121.96,-447.03 1221.96,-438.02 1293.5,-396 1402.99,-331.69 1436.15,-298.98 1480.5,-180 1486.09,-165.01 1486.95,-158.64 1480.5,-144 1475.51,-132.69 1466.79,-122.74 1457.6,-114.62"/>
<polygon fill="#1414ce" stroke="#1414ce" points="1459.78,-111.88 1449.84,-108.23 1455.33,-117.28 1459.78,-111.88"/>
</a>
</g>
</g>
<!-- 20&#45;&gt;18 -->
<g id="edge36" class="edge">
<title>20&#45;&gt;18</title>
<g id="a_edge36"><a xlink:title="include">
<path fill="none" stroke="#1414ce" d="M1005.77,-445.79C951.29,-439.7 845.79,-424.45 823.5,-396 758.51,-313.05 806.38,-175.27 831.12,-117.63"/>
<polygon fill="#1414ce" stroke="#1414ce" points="834.47,-118.71 835.3,-108.15 828.07,-115.89 834.47,-118.71"/>
</a>
</g>
</g>
<!-- 10&#45;&gt;11 -->
<g id="edge43" class="edge">
<title>10&#45;&gt;11</title>
<g id="a_edge43"><a xlink:title="include">
<path fill="none" stroke="#1414ce" d="M1431.53,-143.7C1430.21,-135.98 1428.62,-126.71 1427.15,-118.11"/>
<polygon fill="#1414ce" stroke="#1414ce" points="1430.57,-117.37 1425.43,-108.1 1423.67,-118.55 1430.57,-117.37"/>
</a>
</g>
</g>
<!-- 13 -->
<g id="node18" class="node">
<title>13</title>
<g id="a_node18"><a xlink:title="limits.h">
<polygon fill="#ffffff" stroke="black" points="1360,-36 1289,-36 1289,0 1360,0 1360,-36"/>
<text text-anchor="middle" x="1324.5" y="-14.3" font-family="Times,serif" font-size="14.00">limits.h</text>
</a>
</g>
</g>
<!-- 8 -->
<g id="node19" class="node">
<title>8</title>
<g id="a_node19"><a xlink:title="atom_table.h">
<polygon fill="#ffffff" stroke="black" points="280,-252 171,-252 171,-216 280,-216 280,-252"/>
<text text-anchor="middle" x="225.5" y="-230.3" font-family="Times,serif" font-size="14.00">atom_table.h</text>
</a>
</g>
</g>
<!-- 8&#45;&gt;9 -->
<g id="edge44" class="edge">
<title>8&#45;&gt;9</title>
<g id="a_edge44"><a xlink:title="include">
<path fill="none" stroke="#1414ce" d="M260.49,-215.85C301.27,-196.38 371.04,-164.65 433.5,-144 490.86,-125.03 558.64,-109.86 604.09,-100.69"/>
<polygon fill="#1414ce" stroke="#1414ce" points="604.88,-104.1 614,-98.71 603.51,-97.23 604.88,-104.1"/>
</a>
</g>
</g>
<!-- 8&#45;&gt;6 -->
<g id="edge45" class="edge">
<title>8&#45;&gt;6</title>
<g id="a_edge45"><a xlink:title="include">
<path fill="none" stroke="#1414ce" d="M225.99,-215.7C226.21,-207.98 226.48,-198.71 226.73,-190.11"/>
<polygon fill="#1414ce" stroke="#1414ce" points="230.22,-190.2 227.01,-180.1 223.23,-190 230.22,-190.2"/>
</a>
</g>
</g>
<!-- 11&#45;&gt;12 -->
<g id="edge46" class="edge">
<title>11&#45;&gt;12</title>
<g id="a_edge46"><a xlink:title="include">
<path fill="none" stroke="#1414ce" d="M1446.96,-71.88C1459.8,-62.89 1475.7,-51.76 1489.59,-42.03"/>
<polygon fill="#1414ce" stroke="#1414ce" points="1491.76,-44.79 1497.94,-36.19 1487.74,-39.06 1491.76,-44.79"/>
</a>
</g>
</g>
<!-- 11&#45;&gt;5 -->
<g id="edge49" class="edge">
<title>11&#45;&gt;5</title>
<g id="a_edge49"><a xlink:title="include">
<path fill="none" stroke="#1414ce" d="M1359.58,-74.48C1354.83,-73.58 1350.1,-72.74 1345.5,-72 1170.45,-43.9 959.91,-27.93 868.54,-21.86"/>
<polygon fill="#1414ce" stroke="#1414ce" points="868.72,-18.36 858.51,-21.2 868.26,-25.35 868.72,-18.36"/>
</a>
</g>
</g>
<!-- 11&#45;&gt;13 -->
<g id="edge47" class="edge">
<title>11&#45;&gt;13</title>
<g id="a_edge47"><a xlink:title="include">
<path fill="none" stroke="#1414ce" d="M1398.53,-71.88C1385.95,-62.89 1370.37,-51.76 1356.75,-42.03"/>
<polygon fill="#1414ce" stroke="#1414ce" points="1358.74,-39.15 1348.57,-36.19 1354.67,-44.85 1358.74,-39.15"/>
</a>
</g>
</g>
<!-- 14 -->
<g id="node31" class="node">
<title>14</title>
<g id="a_node31"><a xlink:title="inttypes.h">
<polygon fill="#ffffff" stroke="black" points="1467,-36 1378,-36 1378,0 1467,0 1467,-36"/>
<text text-anchor="middle" x="1422.5" y="-14.3" font-family="Times,serif" font-size="14.00">inttypes.h</text>
</a>
</g>
</g>
<!-- 11&#45;&gt;14 -->
<g id="edge48" class="edge">
<title>11&#45;&gt;14</title>
<g id="a_edge48"><a xlink:title="include">
<path fill="none" stroke="#1414ce" d="M1422.5,-71.7C1422.5,-63.98 1422.5,-54.71 1422.5,-46.11"/>
<polygon fill="#1414ce" stroke="#1414ce" points="1426,-46.1 1422.5,-36.1 1419,-46.1 1426,-46.1"/>
</a>
</g>
</g>
<!-- 4&#45;&gt;6 -->
<g id="edge51" class="edge">
<title>4&#45;&gt;6</title>
<g id="a_edge51"><a xlink:title="include">
<path fill="none" stroke="#1414ce" d="M398.81,-585.93C322.12,-573.47 203.5,-539.84 203.5,-451 203.5,-451 203.5,-451 203.5,-377 203.5,-303.05 129.53,-282.68 161.5,-216 167.17,-204.18 176.89,-194.17 187.16,-186.14"/>
<polygon fill="#1414ce" stroke="#1414ce" points="189.41,-188.83 195.45,-180.12 185.3,-183.16 189.41,-188.83"/>
</a>
</g>
</g>
<!-- 4&#45;&gt;17 -->
<g id="edge58" class="edge">
<title>4&#45;&gt;17</title>
<g id="a_edge58"><a xlink:title="include">
<path fill="none" stroke="#1414ce" d="M467.76,-575.73C485.31,-518.08 542,-331.89 563.3,-261.92"/>
<polygon fill="#1414ce" stroke="#1414ce" points="566.73,-262.68 566.3,-252.09 560.03,-260.64 566.73,-262.68"/>
</a>
</g>
</g>
<!-- 4&#45;&gt;16 -->
<g id="edge55" class="edge">
<title>4&#45;&gt;16</title>
<g id="a_edge55"><a xlink:title="include">
<path fill="none" stroke="#1414ce" d="M470.19,-575.91C481.29,-549.62 500.5,-497.45 500.5,-451 500.5,-451 500.5,-451 500.5,-305 500.5,-264.55 493.3,-246.81 519.5,-216 532.69,-200.5 582.88,-183.58 618.44,-173.13"/>
<polygon fill="#1414ce" stroke="#1414ce" points="619.85,-176.36 628.49,-170.23 617.91,-169.64 619.85,-176.36"/>
</a>
</g>
</g>
<!-- 4&#45;&gt;5 -->
<g id="edge50" class="edge">
<title>4&#45;&gt;5</title>
<g id="a_edge50"><a xlink:title="include">
<path fill="none" stroke="#1414ce" d="M398.81,-587.21C347.81,-580.73 275.47,-567.3 217.5,-540 159.66,-512.76 104.5,-514.93 104.5,-451 104.5,-451 104.5,-451 104.5,-161 104.5,-23.59 616.98,-17.01 776.01,-18.27"/>
<polygon fill="#1414ce" stroke="#1414ce" points="776.37,-21.77 786.4,-18.37 776.44,-14.77 776.37,-21.77"/>
</a>
</g>
</g>
<!-- 4&#45;&gt;20 -->
<g id="edge59" class="edge">
<title>4&#45;&gt;20</title>
<g id="a_edge59"><a xlink:title="include">
<path fill="none" stroke="#1414ce" d="M526.07,-577.33C644.44,-548.15 895.73,-486.2 995.95,-461.49"/>
<polygon fill="#1414ce" stroke="#1414ce" points="996.85,-464.87 1005.72,-459.08 995.18,-458.08 996.85,-464.87"/>
</a>
</g>
</g>
<!-- 4&#45;&gt;10 -->
<g id="edge53" class="edge">
<title>4&#45;&gt;10</title>
<g id="a_edge53"><a xlink:title="include">
<path fill="none" stroke="#1414ce" d="M526.01,-586.1C705.18,-565.5 1209.81,-499.4 1335.5,-396 1400.19,-342.78 1423.43,-239.66 1431.08,-190.44"/>
<polygon fill="#1414ce" stroke="#1414ce" points="1434.59,-190.64 1432.56,-180.24 1427.66,-189.64 1434.59,-190.64"/>
</a>
</g>
</g>
<!-- 4&#45;&gt;8 -->
<g id="edge52" class="edge">
<title>4&#45;&gt;8</title>
<g id="a_edge52"><a xlink:title="include">
<path fill="none" stroke="#1414ce" d="M419.46,-575.82C373.28,-554.2 306.5,-512.34 306.5,-451 306.5,-451 306.5,-451 306.5,-377 306.5,-330.96 273.98,-286.25 250.15,-259.67"/>
<polygon fill="#1414ce" stroke="#1414ce" points="252.43,-256.99 243.08,-252.02 247.29,-261.74 252.43,-256.99"/>
</a>
</g>
</g>
<!-- 4&#45;&gt;19 -->
<g id="edge57" class="edge">
<title>4&#45;&gt;19</title>
<g id="a_edge57"><a xlink:title="include">
<path fill="none" stroke="#1414ce" d="M454.81,-575.91C443.71,-549.62 424.5,-497.45 424.5,-451 424.5,-451 424.5,-451 424.5,-305 424.5,-264.03 423.75,-248.65 448.5,-216 461.06,-199.43 480.42,-187.02 497.88,-178.39"/>
<polygon fill="#1414ce" stroke="#1414ce" points="499.75,-181.38 507.33,-173.98 496.79,-175.04 499.75,-181.38"/>
</a>
</g>
</g>
<!-- 4&#45;&gt;29 -->
<g id="edge60" class="edge">
<title>4&#45;&gt;29</title>
<g id="a_edge60"><a xlink:title="include">
<path fill="none" stroke="#1414ce" d="M440.94,-575.78C412.91,-551.28 367.5,-503.5 367.5,-451 367.5,-451 367.5,-451 367.5,-377 367.5,-336.82 359.55,-290.87 353.68,-262.39"/>
<polygon fill="#1414ce" stroke="#1414ce" points="357.05,-261.43 351.55,-252.38 350.2,-262.89 357.05,-261.43"/>
</a>
</g>
</g>
<!-- 4&#45;&gt;28 -->
<g id="edge56" class="edge">
<title>4&#45;&gt;28</title>
<g id="a_edge56"><a xlink:title="include">
<path fill="none" stroke="#1414ce" d="M526.28,-585.66C561.05,-578.81 602.91,-565.57 632.5,-540 726.5,-458.76 657.81,-367.25 753.5,-288 794.67,-253.9 855.63,-241.56 899.22,-237.18"/>
<polygon fill="#1414ce" stroke="#1414ce" points="899.7,-240.65 909.35,-236.28 899.08,-233.68 899.7,-240.65"/>
</a>
</g>
</g>
<!-- 15 -->
<g id="node30" class="node">
<title>15</title>
<g id="a_node30"><a xlink:title="ets.h">
<polygon fill="#ffffff" stroke="black" points="623.5,-540 569.5,-540 569.5,-504 623.5,-504 623.5,-540"/>
<text text-anchor="middle" x="596.5" y="-518.3" font-family="Times,serif" font-size="14.00">ets.h</text>
</a>
</g>
</g>
<!-- 4&#45;&gt;15 -->
<g id="edge54" class="edge">
<title>4&#45;&gt;15</title>
<g id="a_edge54"><a xlink:title="include">
<path fill="none" stroke="#1414ce" d="M495.28,-575.88C515.03,-565.56 540.21,-552.4 560.52,-541.8"/>
<polygon fill="#1414ce" stroke="#1414ce" points="562.22,-544.86 569.46,-537.12 558.98,-538.65 562.22,-544.86"/>
</a>
</g>
</g>
<!-- 19&#45;&gt;9 -->
<g id="edge61" class="edge">
<title>19&#45;&gt;9</title>
<g id="a_edge61"><a xlink:title="include">
<path fill="none" stroke="#1414ce" d="M566.37,-143.88C581.79,-134.72 600.98,-123.34 617.6,-113.48"/>
<polygon fill="#1414ce" stroke="#1414ce" points="619.71,-116.3 626.52,-108.19 616.14,-110.28 619.71,-116.3"/>
</a>
</g>
</g>
<!-- 29&#45;&gt;9 -->
<g id="edge62" class="edge">
<title>29&#45;&gt;9</title>
<g id="a_edge62"><a xlink:title="include">
<path fill="none" stroke="#1414ce" d="M376.69,-215.82C394.3,-205.45 417.19,-191.97 437.5,-180 464.62,-164.01 469.88,-157.1 498.5,-144 532.72,-128.33 572.98,-114.83 604.15,-105.38"/>
<polygon fill="#1414ce" stroke="#1414ce" points="605.36,-108.67 613.94,-102.46 603.35,-101.97 605.36,-108.67"/>
</a>
</g>
</g>
<!-- 29&#45;&gt;16 -->
<g id="edge64" class="edge">
<title>29&#45;&gt;16</title>
<g id="a_edge64"><a xlink:title="include">
<path fill="none" stroke="#1414ce" d="M396.64,-221.83C458.39,-207.8 562.97,-184.03 618.42,-171.43"/>
<polygon fill="#1414ce" stroke="#1414ce" points="619.52,-174.77 628.5,-169.14 617.97,-167.94 619.52,-174.77"/>
</a>
</g>
</g>
<!-- 29&#45;&gt;5 -->
<g id="edge63" class="edge">
<title>29&#45;&gt;5</title>
<g id="a_edge63"><a xlink:title="include">
<path fill="none" stroke="#1414ce" d="M361.24,-216C377.7,-196.52 406.89,-164.64 437.5,-144 545.86,-70.9 700,-38.04 776.19,-25.53"/>
<polygon fill="#1414ce" stroke="#1414ce" points="777.09,-28.93 786.41,-23.9 775.99,-22.02 777.09,-28.93"/>
</a>
</g>
</g>
<!-- 1 -->
<g id="node26" class="node">
<title>1</title>
<g id="a_node26"><a xlink:title="/__w/AtomVM/AtomVM/src/libAtomVM/port.c">
<polygon fill="#bfbfbf" stroke="black" points="778,-828 443,-828 443,-792 778,-792 778,-828"/>
<text text-anchor="middle" x="610.5" y="-806.3" font-family="Times,serif" font-size="14.00">/__w/AtomVM/AtomVM/src/libAtomVM/port.c</text>
</a>
</g>
</g>
<!-- 1&#45;&gt;30 -->
<g id="edge67" class="edge">
<title>1&#45;&gt;30</title>
<g id="a_edge67"><a xlink:title="include">
<path fill="none" stroke="#1414ce" d="M584.39,-791.95C570.2,-782.16 552.71,-769.21 538.5,-756 517.21,-736.2 495.98,-710.73 481.39,-692.11"/>
<polygon fill="#1414ce" stroke="#1414ce" points="484.07,-689.85 475.18,-684.09 478.53,-694.14 484.07,-689.85"/>
</a>
</g>
</g>
<!-- 1&#45;&gt;3 -->
<g id="edge66" class="edge">
<title>1&#45;&gt;3</title>
<g id="a_edge66"><a xlink:title="include">
<path fill="none" stroke="#1414ce" d="M626.39,-791.61C634.51,-781.82 643.83,-768.98 649.5,-756 658.09,-736.33 662.35,-712.34 664.46,-694.23"/>
<polygon fill="#1414ce" stroke="#1414ce" points="667.96,-694.36 665.49,-684.06 661,-693.66 667.96,-694.36"/>
</a>
</g>
</g>
<!-- 1&#45;&gt;4 -->
<g id="edge68" class="edge">
<title>1&#45;&gt;4</title>
<g id="a_edge68"><a xlink:title="include">
<path fill="none" stroke="#1414ce" d="M595.75,-791.72C587.78,-781.76 578.23,-768.73 571.5,-756 547.72,-711.02 563.64,-689 533.5,-648 524.92,-636.33 513.05,-626.08 501.47,-617.78"/>
<polygon fill="#1414ce" stroke="#1414ce" points="503.37,-614.83 493.14,-612.08 499.42,-620.61 503.37,-614.83"/>
</a>
</g>
</g>
<!-- 1&#45;&gt;28 -->
<g id="edge69" class="edge">
<title>1&#45;&gt;28</title>
<g id="a_edge69"><a xlink:title="include">
<path fill="none" stroke="#1414ce" d="M778.4,-795.59C1011.41,-774.68 1404.5,-730.06 1404.5,-667 1404.5,-667 1404.5,-667 1404.5,-377 1404.5,-294.28 1125.47,-253.89 1005.88,-240.37"/>
<polygon fill="#1414ce" stroke="#1414ce" points="1006.16,-236.88 995.84,-239.26 1005.39,-243.84 1006.16,-236.88"/>
</a>
</g>
</g>
<!-- 2 -->
<g id="node28" class="node">
<title>2</title>
<g id="a_node28"><a xlink:title="port.h">
<polygon fill="#ffffff" stroke="black" points="640.5,-756 580.5,-756 580.5,-720 640.5,-720 640.5,-756"/>
<text text-anchor="middle" x="610.5" y="-734.3" font-family="Times,serif" font-size="14.00">port.h</text>
</a>
</g>
</g>
<!-- 1&#45;&gt;2 -->
<g id="edge65" class="edge">
<title>1&#45;&gt;2</title>
<g id="a_edge65"><a xlink:title="include">
<path fill="none" stroke="#1414ce" d="M610.5,-791.7C610.5,-783.98 610.5,-774.71 610.5,-766.11"/>
<polygon fill="#1414ce" stroke="#1414ce" points="614,-766.1 610.5,-756.1 607,-766.1 614,-766.1"/>
</a>
</g>
</g>
<!-- 28&#45;&gt;9 -->
<g id="edge70" class="edge">
<title>28&#45;&gt;9</title>
<g id="a_edge70"><a xlink:title="include">
<path fill="none" stroke="#1414ce" d="M946.18,-215.66C937.82,-195.24 921.08,-161.85 895.5,-144 865.56,-123.11 768.43,-106.47 707.3,-97.73"/>
<polygon fill="#1414ce" stroke="#1414ce" points="707.46,-94.22 697.07,-96.29 706.49,-101.15 707.46,-94.22"/>
</a>
</g>
</g>
<!-- 28&#45;&gt;24 -->
<g id="edge73" class="edge">
<title>28&#45;&gt;24</title>
<g id="a_edge73"><a xlink:title="include">
<path fill="none" stroke="#1414ce" d="M995.68,-218.33C1031.7,-206.09 1082.66,-188.77 1117.93,-176.79"/>
<polygon fill="#1414ce" stroke="#1414ce" points="1119.09,-180.09 1127.43,-173.56 1116.84,-173.46 1119.09,-180.09"/>
</a>
</g>
</g>
<!-- 28&#45;&gt;16 -->
<g id="edge71" class="edge">
<title>28&#45;&gt;16</title>
<g id="a_edge71"><a xlink:title="include">
<path fill="none" stroke="#1414ce" d="M909.31,-222.82C850.97,-209.07 747.95,-184.79 692.81,-171.79"/>
<polygon fill="#1414ce" stroke="#1414ce" points="693.3,-168.31 682.77,-169.43 691.7,-175.13 693.3,-168.31"/>
</a>
</g>
</g>
<!-- 28&#45;&gt;11 -->
<g id="edge72" class="edge">
<title>28&#45;&gt;11</title>
<g id="a_edge72"><a xlink:title="include">
<path fill="none" stroke="#1414ce" d="M995.71,-225.93C1045.28,-217.31 1128.7,-201.23 1198.5,-180 1261.29,-160.91 1331.23,-131.8 1375.98,-112.12"/>
<polygon fill="#1414ce" stroke="#1414ce" points="1377.4,-115.32 1385.13,-108.07 1374.57,-108.91 1377.4,-115.32"/>
</a>
</g>
</g>
<!-- 2&#45;&gt;30 -->
<g id="edge75" class="edge">
<title>2&#45;&gt;30</title>
<g id="a_edge75"><a xlink:title="include">
<path fill="none" stroke="#1414ce" d="M580.19,-722.67C559.29,-712.78 531.14,-699.46 507.61,-688.33"/>
<polygon fill="#1414ce" stroke="#1414ce" points="509.05,-685.14 498.51,-684.03 506.05,-691.47 509.05,-685.14"/>
</a>
</g>
</g>
<!-- 2&#45;&gt;3 -->
<g id="edge74" class="edge">
<title>2&#45;&gt;3</title>
<g id="a_edge74"><a xlink:title="include">
<path fill="none" stroke="#1414ce" d="M624.34,-719.7C630.99,-711.39 639.08,-701.28 646.39,-692.14"/>
<polygon fill="#1414ce" stroke="#1414ce" points="649.3,-694.1 652.82,-684.1 643.84,-689.73 649.3,-694.1"/>
</a>
</g>
</g>
<!-- 2&#45;&gt;23 -->
<g id="edge77" class="edge">
<title>2&#45;&gt;23</title>
<g id="a_edge77"><a xlink:title="include">
<path fill="none" stroke="#1414ce" d="M640.6,-734.6C781.21,-723 1366.5,-670.2 1366.5,-595 1366.5,-595 1366.5,-595 1366.5,-521 1366.5,-425.09 1344.7,-312.74 1333.7,-262.13"/>
<polygon fill="#1414ce" stroke="#1414ce" points="1337.1,-261.31 1331.53,-252.3 1330.27,-262.82 1337.1,-261.31"/>
</a>
</g>
</g>
<!-- 2&#45;&gt;20 -->
<g id="edge78" class="edge">
<title>2&#45;&gt;20</title>
<g id="a_edge78"><a xlink:title="include">
<path fill="none" stroke="#1414ce" d="M640.61,-722.93C662.06,-712.67 691.41,-698.15 716.5,-684 820.9,-625.13 849.87,-613.55 944.5,-540 970.12,-520.09 996.74,-494.33 1015.08,-475.65"/>
<polygon fill="#1414ce" stroke="#1414ce" points="1017.95,-477.73 1022.41,-468.12 1012.93,-472.84 1017.95,-477.73"/>
</a>
</g>
</g>
<!-- 2&#45;&gt;4 -->
<g id="edge76" class="edge">
<title>2&#45;&gt;4</title>
<g id="a_edge76"><a xlink:title="include">
<path fill="none" stroke="#1414ce" d="M605.69,-719.98C599.44,-700.49 586.85,-668.6 566.5,-648 553.64,-634.98 536.92,-624.56 520.66,-616.51"/>
<polygon fill="#1414ce" stroke="#1414ce" points="521.7,-613.14 511.17,-612.05 518.72,-619.47 521.7,-613.14"/>
</a>
</g>
</g>
<!-- 15&#45;&gt;17 -->
<g id="edge80" class="edge">
<title>15&#45;&gt;17</title>
<g id="a_edge80"><a xlink:title="include">
<path fill="none" stroke="#1414ce" d="M595.01,-503.97C590.84,-456.29 579.03,-321.18 573.92,-262.63"/>
<polygon fill="#1414ce" stroke="#1414ce" points="577.37,-261.96 573.01,-252.31 570.4,-262.57 577.37,-261.96"/>
</a>
</g>
</g>
<!-- 15&#45;&gt;16 -->
<g id="edge79" class="edge">
<title>15&#45;&gt;16</title>
<g id="a_edge79"><a xlink:title="include">
<path fill="none" stroke="#1414ce" d="M599.35,-503.73C608.83,-446.19 639.41,-260.66 650.99,-190.35"/>
<polygon fill="#1414ce" stroke="#1414ce" points="654.51,-190.53 652.68,-180.09 647.6,-189.39 654.51,-190.53"/>
</a>
</g>
</g>
<!-- 15&#45;&gt;20 -->
<g id="edge81" class="edge">
<title>15&#45;&gt;20</title>
<g id="a_edge81"><a xlink:title="include">
<path fill="none" stroke="#1414ce" d="M623.82,-516.67C698.32,-504.88 905.47,-472.07 995.65,-457.79"/>
<polygon fill="#1414ce" stroke="#1414ce" points="996.46,-461.2 1005.79,-456.18 995.37,-454.29 996.46,-461.2"/>
</a>
</g>
</g>
</g>
</svg>
