<?xml version="1.0" encoding="UTF-8" standalone="no"?>
<!DOCTYPE svg PUBLIC "-//W3C//DTD SVG 1.1//EN"
 "http://www.w3.org/Graphics/SVG/1.1/DTD/svg11.dtd">
<!-- Generated by graphviz version 2.43.0 (0)
 -->
<!-- Title: %3 Pages: 1 -->
<svg width="1308pt" height="404pt"
 viewBox="0.00 0.00 1307.50 404.00" xmlns="http://www.w3.org/2000/svg" xmlns:xlink="http://www.w3.org/1999/xlink">
<g id="graph0" class="graph" transform="scale(1 1) rotate(0) translate(4 400)">
<title>%3</title>
<polygon fill="transparent" stroke="transparent" points="-4,4 -4,-400 1303.5,-400 1303.5,4 -4,4"/>
<!-- 20 -->
<g id="node1" class="node">
<title>20</title>
<g id="a_node1"><a xlink:title="SpinLock">
<polygon fill="#ffffff" stroke="black" points="82,-324 0,-324 0,-288 82,-288 82,-324"/>
<text text-anchor="middle" x="41" y="-302.3" font-family="Times,serif" font-size="14.00">SpinLock</text>
</a>
</g>
</g>
<!-- 2 -->
<g id="node2" class="node">
<title>2</title>
<g id="a_node2"><a xlink:title="ResourceType">
<polygon fill="#ffffff" stroke="black" points="423.5,-180 306.5,-180 306.5,-144 423.5,-144 423.5,-180"/>
<text text-anchor="middle" x="365" y="-158.3" font-family="Times,serif" font-size="14.00">ResourceType</text>
</a>
</g>
</g>
<!-- 4 -->
<g id="node4" class="node">
<title>4</title>
<g id="a_node4"><a xlink:title="ListHead">
<polygon fill="#ffffff" stroke="black" points="310.5,-36 229.5,-36 229.5,0 310.5,0 310.5,-36"/>
<text text-anchor="middle" x="270" y="-14.3" font-family="Times,serif" font-size="14.00">ListHead</text>
</a>
</g>
</g>
<!-- 2&#45;&gt;4 -->
<g id="edge3" class="edge">
<title>2&#45;&gt;4</title>
<g id="a_edge3"><a xlink:title="usage">
<path fill="none" stroke="#1414ce" d="M353.54,-143.87C336.99,-119.14 306.29,-73.24 287.07,-44.51"/>
<polygon fill="#1414ce" stroke="#1414ce" points="289.97,-42.55 281.5,-36.19 284.15,-46.45 289.97,-42.55"/>
</a>
</g>
</g>
<!-- 1 -->
<g id="node7" class="node">
<title>1</title>
<g id="a_node7"><a xlink:title="GlobalContext">
<polygon fill="#bfbfbf" stroke="black" points="487.5,-396 368.5,-396 368.5,-360 487.5,-360 487.5,-396"/>
<text text-anchor="middle" x="428" y="-374.3" font-family="Times,serif" font-size="14.00">GlobalContext</text>
</a>
</g>
</g>
<!-- 2&#45;&gt;1 -->
<g id="edge2" class="edge">
<title>2&#45;&gt;1</title>
<g id="a_edge2"><a xlink:title="usage">
<path fill="none" stroke="#1414ce" d="M373.96,-180.23C388.44,-217.4 414.59,-305.35 424.72,-350"/>
<polygon fill="#1414ce" stroke="#1414ce" points="421.31,-350.8 426.83,-359.85 428.16,-349.34 421.31,-350.8"/>
</a>
</g>
</g>
<!-- 3 -->
<g id="node19" class="node">
<title>3</title>
<g id="a_node19"><a xlink:title="SyncList">
<polygon fill="#ffffff" stroke="black" points="465,-108 387,-108 387,-72 465,-72 465,-108"/>
<text text-anchor="middle" x="426" y="-86.3" font-family="Times,serif" font-size="14.00">SyncList</text>
</a>
</g>
</g>
<!-- 2&#45;&gt;3 -->
<g id="edge1" class="edge">
<title>2&#45;&gt;3</title>
<g id="a_edge1"><a xlink:title="usage">
<path fill="none" stroke="#1414ce" d="M380.08,-143.7C387.39,-135.3 396.31,-125.07 404.34,-115.86"/>
<polygon fill="#1414ce" stroke="#1414ce" points="407.16,-117.94 411.09,-108.1 401.89,-113.34 407.16,-117.94"/>
</a>
</g>
</g>
<!-- 15 -->
<g id="node3" class="node">
<title>15</title>
<g id="a_node3"><a xlink:title="Module">
<polygon fill="#ffffff" stroke="black" points="605,-324 535,-324 535,-288 605,-288 605,-324"/>
<text text-anchor="middle" x="570" y="-302.3" font-family="Times,serif" font-size="14.00">Module</text>
</a>
</g>
</g>
<!-- 17 -->
<g id="node11" class="node">
<title>17</title>
<g id="a_node11"><a xlink:title="LiteralEntry">
<polygon fill="#ffffff" stroke="black" points="622,-252 518,-252 518,-216 622,-216 622,-252"/>
<text text-anchor="middle" x="570" y="-230.3" font-family="Times,serif" font-size="14.00">LiteralEntry</text>
</a>
</g>
</g>
<!-- 15&#45;&gt;17 -->
<g id="edge5" class="edge">
<title>15&#45;&gt;17</title>
<g id="a_edge5"><a xlink:title="usage">
<path fill="none" stroke="#1414ce" d="M570,-287.7C570,-279.98 570,-270.71 570,-262.11"/>
<polygon fill="#1414ce" stroke="#1414ce" points="573.5,-262.1 570,-252.1 566.5,-262.1 573.5,-262.1"/>
</a>
</g>
</g>
<!-- 16 -->
<g id="node18" class="node">
<title>16</title>
<g id="a_node18"><a xlink:title="ExportedFunction">
<polygon fill="#ffffff" stroke="black" points="786,-252 640,-252 640,-216 786,-216 786,-252"/>
<text text-anchor="middle" x="713" y="-230.3" font-family="Times,serif" font-size="14.00">ExportedFunction</text>
</a>
</g>
</g>
<!-- 15&#45;&gt;16 -->
<g id="edge4" class="edge">
<title>15&#45;&gt;16</title>
<g id="a_edge4"><a xlink:title="usage">
<path fill="none" stroke="#1414ce" d="M604.98,-287.88C624.2,-278.47 648.23,-266.71 668.74,-256.67"/>
<polygon fill="#1414ce" stroke="#1414ce" points="670.44,-259.73 677.88,-252.19 667.36,-253.44 670.44,-259.73"/>
</a>
</g>
</g>
<!-- 4&#45;&gt;4 -->
<g id="edge6" class="edge">
<title>4&#45;&gt;4</title>
<g id="a_edge6"><a xlink:title="usage">
<path fill="none" stroke="#1414ce" d="M310.73,-31.31C320.9,-30.38 328.5,-25.95 328.5,-18 328.5,-12.91 325.38,-9.26 320.47,-7.05"/>
<polygon fill="#1414ce" stroke="#1414ce" points="321.28,-3.64 310.73,-4.69 319.63,-10.45 321.28,-3.64"/>
</a>
</g>
</g>
<!-- 11 -->
<g id="node5" class="node">
<title>11</title>
<g id="a_node5"><a xlink:title="HeapFragment">
<polygon fill="#ffffff" stroke="black" points="1196.5,-36 1071.5,-36 1071.5,0 1196.5,0 1196.5,-36"/>
<text text-anchor="middle" x="1134" y="-14.3" font-family="Times,serif" font-size="14.00">HeapFragment</text>
</a>
</g>
</g>
<!-- 11&#45;&gt;11 -->
<g id="edge7" class="edge">
<title>11&#45;&gt;11</title>
<g id="a_edge7"><a xlink:title="usage">
<path fill="none" stroke="#1414ce" d="M1196.78,-30.55C1207.26,-28.79 1214.5,-24.61 1214.5,-18 1214.5,-13.77 1211.53,-10.53 1206.64,-8.29"/>
<polygon fill="#1414ce" stroke="#1414ce" points="1207.36,-4.85 1196.78,-5.45 1205.42,-11.58 1207.36,-4.85"/>
</a>
</g>
</g>
<!-- 13 -->
<g id="node6" class="node">
<title>13</title>
<g id="a_node6"><a xlink:title="RefcBinaryQueueItem">
<polygon fill="#ffffff" stroke="black" points="350,-324 176,-324 176,-288 350,-288 350,-324"/>
<text text-anchor="middle" x="263" y="-302.3" font-family="Times,serif" font-size="14.00">RefcBinaryQueueItem</text>
</a>
</g>
</g>
<!-- 13&#45;&gt;13 -->
<g id="edge9" class="edge">
<title>13&#45;&gt;13</title>
<g id="a_edge9"><a xlink:title="usage">
<path fill="none" stroke="#1414ce" d="M350.3,-317.68C360.99,-315.59 368,-311.7 368,-306 368,-302.35 365.12,-299.44 360.25,-297.27"/>
<polygon fill="#1414ce" stroke="#1414ce" points="360.88,-293.81 350.3,-294.32 358.89,-300.52 360.88,-293.81"/>
</a>
</g>
</g>
<!-- 14 -->
<g id="node16" class="node">
<title>14</title>
<g id="a_node16"><a xlink:title="RefcBinary">
<polygon fill="#ffffff" stroke="black" points="317.5,-252 222.5,-252 222.5,-216 317.5,-216 317.5,-252"/>
<text text-anchor="middle" x="270" y="-230.3" font-family="Times,serif" font-size="14.00">RefcBinary</text>
</a>
</g>
</g>
<!-- 13&#45;&gt;14 -->
<g id="edge8" class="edge">
<title>13&#45;&gt;14</title>
<g id="a_edge8"><a xlink:title="usage">
<path fill="none" stroke="#1414ce" d="M264.73,-287.7C265.5,-279.98 266.43,-270.71 267.29,-262.11"/>
<polygon fill="#1414ce" stroke="#1414ce" points="270.78,-262.4 268.29,-252.1 263.81,-261.71 270.78,-262.4"/>
</a>
</g>
</g>
<!-- 1&#45;&gt;20 -->
<g id="edge19" class="edge">
<title>1&#45;&gt;20</title>
<g id="a_edge19"><a xlink:title="usage">
<path fill="none" stroke="#1414ce" d="M368.44,-370.07C301.61,-361.71 190.22,-345.97 96,-324 94.74,-323.71 93.47,-323.4 92.19,-323.08"/>
<polygon fill="#1414ce" stroke="#1414ce" points="92.84,-319.63 82.27,-320.44 91.04,-326.4 92.84,-319.63"/>
</a>
</g>
</g>
<!-- 1&#45;&gt;2 -->
<g id="edge10" class="edge">
<title>1&#45;&gt;2</title>
<g id="a_edge10"><a xlink:title="usage">
<path fill="none" stroke="#1414ce" d="M419.07,-359.85C404.61,-322.75 378.45,-234.81 368.31,-190.1"/>
<polygon fill="#1414ce" stroke="#1414ce" points="371.71,-189.28 366.19,-180.23 364.86,-190.74 371.71,-189.28"/>
</a>
</g>
</g>
<!-- 1&#45;&gt;15 -->
<g id="edge16" class="edge">
<title>1&#45;&gt;15</title>
<g id="a_edge16"><a xlink:title="usage">
<path fill="none" stroke="#1414ce" d="M462.74,-359.88C481.82,-350.47 505.68,-338.71 526.05,-328.67"/>
<polygon fill="#1414ce" stroke="#1414ce" points="527.71,-331.75 535.13,-324.19 524.61,-325.47 527.71,-331.75"/>
</a>
</g>
</g>
<!-- 1&#45;&gt;4 -->
<g id="edge20" class="edge">
<title>1&#45;&gt;4</title>
<g id="a_edge20"><a xlink:title="usage">
<path fill="none" stroke="#1414ce" d="M368.31,-372.16C296.71,-365.26 182.16,-350.42 149,-324 115.22,-297.09 110,-278.19 110,-235 110,-235 110,-235 110,-161 110,-101.29 173.11,-60.57 220.06,-38.54"/>
<polygon fill="#1414ce" stroke="#1414ce" points="221.55,-41.7 229.21,-34.38 218.66,-35.33 221.55,-41.7"/>
</a>
</g>
</g>
<!-- 1&#45;&gt;13 -->
<g id="edge14" class="edge">
<title>1&#45;&gt;13</title>
<g id="a_edge14"><a xlink:title="usage">
<path fill="none" stroke="#1414ce" d="M387.64,-359.88C364.98,-350.26 336.53,-338.19 312.53,-328.01"/>
<polygon fill="#1414ce" stroke="#1414ce" points="313.81,-324.75 303.23,-324.07 311.07,-331.2 313.81,-324.75"/>
</a>
</g>
</g>
<!-- 5 -->
<g id="node8" class="node">
<title>5</title>
<g id="a_node8"><a xlink:title="Ets">
<polygon fill="#ffffff" stroke="black" points="534,-180 480,-180 480,-144 534,-144 534,-180"/>
<text text-anchor="middle" x="507" y="-158.3" font-family="Times,serif" font-size="14.00">Ets</text>
</a>
</g>
</g>
<!-- 1&#45;&gt;5 -->
<g id="edge11" class="edge">
<title>1&#45;&gt;5</title>
<g id="a_edge11"><a xlink:title="usage">
<path fill="none" stroke="#1414ce" d="M442.79,-359.88C450.68,-349.97 459.98,-336.93 466,-324 486.67,-279.6 497.96,-223.27 503.22,-190.36"/>
<polygon fill="#1414ce" stroke="#1414ce" points="506.73,-190.57 504.77,-180.16 499.81,-189.51 506.73,-190.57"/>
</a>
</g>
</g>
<!-- 19 -->
<g id="node10" class="node">
<title>19</title>
<g id="a_node10"><a xlink:title="TimerList">
<polygon fill="#ffffff" stroke="black" points="237,-180 151,-180 151,-144 237,-144 237,-180"/>
<text text-anchor="middle" x="194" y="-158.3" font-family="Times,serif" font-size="14.00">TimerList</text>
</a>
</g>
</g>
<!-- 1&#45;&gt;19 -->
<g id="edge18" class="edge">
<title>1&#45;&gt;19</title>
<g id="a_edge18"><a xlink:title="usage">
<path fill="none" stroke="#1414ce" d="M368.45,-373.43C299.44,-367.9 191.95,-354.52 167,-324 135.52,-285.49 159.89,-224.11 178.33,-189.32"/>
<polygon fill="#1414ce" stroke="#1414ce" points="181.57,-190.7 183.32,-180.26 175.43,-187.33 181.57,-190.7"/>
</a>
</g>
</g>
<!-- 6 -->
<g id="node14" class="node">
<title>6</title>
<g id="a_node14"><a xlink:title="MessageQueueItem">
<polygon fill="#ffffff" stroke="black" points="866,-324 708,-324 708,-288 866,-288 866,-324"/>
<text text-anchor="middle" x="787" y="-302.3" font-family="Times,serif" font-size="14.00">MessageQueueItem</text>
</a>
</g>
</g>
<!-- 1&#45;&gt;6 -->
<g id="edge12" class="edge">
<title>1&#45;&gt;6</title>
<g id="a_edge12"><a xlink:title="usage">
<path fill="none" stroke="#1414ce" d="M487.68,-365.36C545.05,-354.18 632.47,-337.13 698.04,-324.35"/>
<polygon fill="#1414ce" stroke="#1414ce" points="698.82,-327.76 707.96,-322.41 697.48,-320.89 698.82,-327.76"/>
</a>
</g>
</g>
<!-- 18 -->
<g id="node15" class="node">
<title>18</title>
<g id="a_node15"><a xlink:title="AtomsHashTable">
<polygon fill="#ffffff" stroke="black" points="1299.5,-252 1162.5,-252 1162.5,-216 1299.5,-216 1299.5,-252"/>
<text text-anchor="middle" x="1231" y="-230.3" font-family="Times,serif" font-size="14.00">AtomsHashTable</text>
</a>
</g>
</g>
<!-- 1&#45;&gt;18 -->
<g id="edge17" class="edge">
<title>1&#45;&gt;18</title>
<g id="a_edge17"><a xlink:title="usage">
<path fill="none" stroke="#1414ce" d="M487.68,-375.8C628.4,-372.41 977.39,-360.46 1088,-324 1131.54,-309.65 1175.39,-279.49 1202.83,-258.28"/>
<polygon fill="#1414ce" stroke="#1414ce" points="1205.11,-260.94 1210.8,-252.01 1200.78,-255.44 1205.11,-260.94"/>
</a>
</g>
</g>
<!-- 8 -->
<g id="node17" class="node">
<title>8</title>
<g id="a_node17"><a xlink:title="AtomTable">
<polygon fill="#ffffff" stroke="black" points="1079,-324 987,-324 987,-288 1079,-288 1079,-324"/>
<text text-anchor="middle" x="1033" y="-302.3" font-family="Times,serif" font-size="14.00">AtomTable</text>
</a>
</g>
</g>
<!-- 1&#45;&gt;8 -->
<g id="edge13" class="edge">
<title>1&#45;&gt;8</title>
<g id="a_edge13"><a xlink:title="usage">
<path fill="none" stroke="#1414ce" d="M487.84,-370.32C576.39,-360.41 747.55,-341.12 893,-324 920.57,-320.76 951.18,-317.05 976.73,-313.93"/>
<polygon fill="#1414ce" stroke="#1414ce" points="977.48,-317.36 986.98,-312.67 976.63,-310.41 977.48,-317.36"/>
</a>
</g>
</g>
<!-- 1&#45;&gt;3 -->
<g id="edge15" class="edge">
<title>1&#45;&gt;3</title>
<g id="a_edge15"><a xlink:title="usage">
<path fill="none" stroke="#1414ce" d="M429.16,-359.74C431.58,-321.07 436.55,-224.58 432,-144 431.52,-135.55 430.62,-126.38 429.66,-118.07"/>
<polygon fill="#1414ce" stroke="#1414ce" points="433.13,-117.64 428.44,-108.14 426.19,-118.5 433.13,-117.64"/>
</a>
</g>
</g>
<!-- 5&#45;&gt;3 -->
<g id="edge21" class="edge">
<title>5&#45;&gt;3</title>
<g id="a_edge21"><a xlink:title="usage">
<path fill="none" stroke="#1414ce" d="M486.98,-143.7C476.87,-134.97 464.46,-124.24 453.48,-114.75"/>
<polygon fill="#1414ce" stroke="#1414ce" points="455.65,-111.99 445.79,-108.1 451.07,-117.29 455.65,-111.99"/>
</a>
</g>
</g>
<!-- 12 -->
<g id="node9" class="node">
<title>12</title>
<g id="a_node9"><a xlink:title="HNodeGroup">
<polygon fill="#ffffff" stroke="black" points="1088,-252 978,-252 978,-216 1088,-216 1088,-252"/>
<text text-anchor="middle" x="1033" y="-230.3" font-family="Times,serif" font-size="14.00">HNodeGroup</text>
</a>
</g>
</g>
<!-- 12&#45;&gt;12 -->
<g id="edge23" class="edge">
<title>12&#45;&gt;12</title>
<g id="a_edge23"><a xlink:title="usage">
<path fill="none" stroke="#1414ce" d="M1088.07,-246.85C1098.57,-245.32 1106,-241.03 1106,-234 1106,-229.5 1102.95,-226.12 1098,-223.87"/>
<polygon fill="#1414ce" stroke="#1414ce" points="1098.64,-220.42 1088.07,-221.15 1096.79,-227.17 1098.64,-220.42"/>
</a>
</g>
</g>
<!-- 9 -->
<g id="node20" class="node">
<title>9</title>
<g id="a_node20"><a xlink:title="HNode">
<polygon fill="#ffffff" stroke="black" points="1167,-180 1101,-180 1101,-144 1167,-144 1167,-180"/>
<text text-anchor="middle" x="1134" y="-158.3" font-family="Times,serif" font-size="14.00">HNode</text>
</a>
</g>
</g>
<!-- 12&#45;&gt;9 -->
<g id="edge22" class="edge">
<title>12&#45;&gt;9</title>
<g id="a_edge22"><a xlink:title="usage">
<path fill="none" stroke="#1414ce" d="M1057.71,-215.88C1070.67,-206.89 1086.73,-195.76 1100.77,-186.03"/>
<polygon fill="#1414ce" stroke="#1414ce" points="1102.97,-188.76 1109.2,-180.19 1098.98,-183.01 1102.97,-188.76"/>
</a>
</g>
</g>
<!-- 19&#45;&gt;4 -->
<g id="edge24" class="edge">
<title>19&#45;&gt;4</title>
<g id="a_edge24"><a xlink:title="usage">
<path fill="none" stroke="#1414ce" d="M203.17,-143.87C216.29,-119.35 240.55,-74.03 255.95,-45.26"/>
<polygon fill="#1414ce" stroke="#1414ce" points="259.17,-46.66 260.8,-36.19 253,-43.35 259.17,-46.66"/>
</a>
</g>
</g>
<!-- 7 -->
<g id="node12" class="node">
<title>7</title>
<g id="a_node12"><a xlink:title="MailboxMessage">
<polygon fill="#ffffff" stroke="black" points="941.5,-252 804.5,-252 804.5,-216 941.5,-216 941.5,-252"/>
<text text-anchor="middle" x="873" y="-230.3" font-family="Times,serif" font-size="14.00">MailboxMessage</text>
</a>
</g>
</g>
<!-- 7&#45;&gt;7 -->
<g id="edge25" class="edge">
<title>7&#45;&gt;7</title>
<g id="a_edge25"><a xlink:title="usage">
<path fill="none" stroke="#1414ce" d="M941.53,-246.37C952.21,-244.52 959.5,-240.4 959.5,-234 959.5,-229.8 956.36,-226.58 951.18,-224.34"/>
<polygon fill="#1414ce" stroke="#1414ce" points="952.1,-220.96 941.53,-221.63 950.21,-227.7 952.1,-220.96"/>
</a>
</g>
</g>
<!-- 10 -->
<g id="node13" class="node">
<title>10</title>
<g id="a_node13"><a xlink:title="Heap">
<polygon fill="#ffffff" stroke="black" points="1161,-108 1107,-108 1107,-72 1161,-72 1161,-108"/>
<text text-anchor="middle" x="1134" y="-86.3" font-family="Times,serif" font-size="14.00">Heap</text>
</a>
</g>
</g>
<!-- 10&#45;&gt;11 -->
<g id="edge26" class="edge">
<title>10&#45;&gt;11</title>
<g id="a_edge26"><a xlink:title="usage">
<path fill="none" stroke="#1414ce" d="M1134,-71.7C1134,-63.98 1134,-54.71 1134,-46.11"/>
<polygon fill="#1414ce" stroke="#1414ce" points="1137.5,-46.1 1134,-36.1 1130.5,-46.1 1137.5,-46.1"/>
</a>
</g>
</g>
<!-- 6&#45;&gt;7 -->
<g id="edge27" class="edge">
<title>6&#45;&gt;7</title>
<g id="a_edge27"><a xlink:title="usage">
<path fill="none" stroke="#1414ce" d="M808.26,-287.7C819.09,-278.88 832.42,-268.03 844.16,-258.47"/>
<polygon fill="#1414ce" stroke="#1414ce" points="846.44,-261.13 851.99,-252.1 842.02,-255.7 846.44,-261.13"/>
</a>
</g>
</g>
<!-- 6&#45;&gt;6 -->
<g id="edge28" class="edge">
<title>6&#45;&gt;6</title>
<g id="a_edge28"><a xlink:title="usage">
<path fill="none" stroke="#1414ce" d="M866.16,-317.98C876.87,-315.97 884,-311.98 884,-306 884,-302.08 880.93,-299.01 875.79,-296.8"/>
<polygon fill="#1414ce" stroke="#1414ce" points="876.74,-293.43 866.16,-294.02 874.8,-300.15 876.74,-293.43"/>
</a>
</g>
</g>
<!-- 18&#45;&gt;9 -->
<g id="edge29" class="edge">
<title>18&#45;&gt;9</title>
<g id="a_edge29"><a xlink:title="usage">
<path fill="none" stroke="#1414ce" d="M1207.02,-215.7C1194.69,-206.8 1179.48,-195.82 1166.15,-186.2"/>
<polygon fill="#1414ce" stroke="#1414ce" points="1167.86,-183.12 1157.7,-180.1 1163.76,-188.79 1167.86,-183.12"/>
</a>
</g>
</g>
<!-- 14&#45;&gt;2 -->
<g id="edge30" class="edge">
<title>14&#45;&gt;2</title>
<g id="a_edge30"><a xlink:title="usage">
<path fill="none" stroke="#1414ce" d="M293.48,-215.7C305.56,-206.8 320.45,-195.82 333.52,-186.2"/>
<polygon fill="#1414ce" stroke="#1414ce" points="335.81,-188.85 341.79,-180.1 331.66,-183.22 335.81,-188.85"/>
</a>
</g>
</g>
<!-- 14&#45;&gt;4 -->
<g id="edge31" class="edge">
<title>14&#45;&gt;4</title>
<g id="a_edge31"><a xlink:title="usage">
<path fill="none" stroke="#1414ce" d="M270,-215.85C270,-178.83 270,-91.18 270,-46.39"/>
<polygon fill="#1414ce" stroke="#1414ce" points="273.5,-46.23 270,-36.23 266.5,-46.23 273.5,-46.23"/>
</a>
</g>
</g>
<!-- 8&#45;&gt;12 -->
<g id="edge33" class="edge">
<title>8&#45;&gt;12</title>
<g id="a_edge33"><a xlink:title="usage">
<path fill="none" stroke="#1414ce" d="M1033,-287.7C1033,-279.98 1033,-270.71 1033,-262.11"/>
<polygon fill="#1414ce" stroke="#1414ce" points="1036.5,-262.1 1033,-252.1 1029.5,-262.1 1036.5,-262.1"/>
</a>
</g>
</g>
<!-- 8&#45;&gt;9 -->
<g id="edge32" class="edge">
<title>8&#45;&gt;9</title>
<g id="a_edge32"><a xlink:title="usage">
<path fill="none" stroke="#1414ce" d="M1072.26,-287.93C1087.79,-279.29 1104.42,-267.35 1115,-252 1127.5,-233.87 1132.02,-209.09 1133.55,-190.28"/>
<polygon fill="#1414ce" stroke="#1414ce" points="1137.04,-190.45 1134.13,-180.26 1130.06,-190.04 1137.04,-190.45"/>
</a>
</g>
</g>
<!-- 3&#45;&gt;4 -->
<g id="edge34" class="edge">
<title>3&#45;&gt;4</title>
<g id="a_edge34"><a xlink:title="usage">
<path fill="none" stroke="#1414ce" d="M387.84,-71.88C366.61,-62.35 339.99,-50.41 317.43,-40.28"/>
<polygon fill="#1414ce" stroke="#1414ce" points="318.59,-36.97 308.04,-36.07 315.73,-43.36 318.59,-36.97"/>
</a>
</g>
</g>
<!-- 9&#45;&gt;10 -->
<g id="edge36" class="edge">
<title>9&#45;&gt;10</title>
<g id="a_edge36"><a xlink:title="usage">
<path fill="none" stroke="#1414ce" d="M1134,-143.7C1134,-135.98 1134,-126.71 1134,-118.11"/>
<polygon fill="#1414ce" stroke="#1414ce" points="1137.5,-118.1 1134,-108.1 1130.5,-118.1 1137.5,-118.1"/>
</a>
</g>
</g>
<!-- 9&#45;&gt;9 -->
<g id="edge35" class="edge">
<title>9&#45;&gt;9</title>
<g id="a_edge35"><a xlink:title="usage">
<path fill="none" stroke="#1414ce" d="M1167.35,-175.47C1177.28,-175.07 1185,-170.58 1185,-162 1185,-156.64 1181.98,-152.87 1177.3,-150.71"/>
<polygon fill="#1414ce" stroke="#1414ce" points="1177.87,-147.25 1167.35,-148.53 1176.37,-154.09 1177.87,-147.25"/>
</a>
</g>
</g>
</g>
</svg>
