<?xml version="1.0" encoding="UTF-8" standalone="no"?>
<!DOCTYPE svg PUBLIC "-//W3C//DTD SVG 1.1//EN"
 "http://www.w3.org/Graphics/SVG/1.1/DTD/svg11.dtd">
<!-- Generated by graphviz version 2.43.0 (0)
 -->
<!-- Title: %3 Pages: 1 -->
<svg width="1493pt" height="692pt"
 viewBox="0.00 0.00 1493.49 692.00" xmlns="http://www.w3.org/2000/svg" xmlns:xlink="http://www.w3.org/1999/xlink">
<g id="graph0" class="graph" transform="scale(1 1) rotate(0) translate(4 688)">
<title>%3</title>
<polygon fill="transparent" stroke="transparent" points="-4,4 -4,-688 1489.49,-688 1489.49,4 -4,4"/>
<!-- 7 -->
<g id="node1" class="node">
<title>7</title>
<g id="a_node1"><a xlink:title="stdbool.h">
<polygon fill="#ffffff" stroke="black" points="986,-108 903,-108 903,-72 986,-72 986,-108"/>
<text text-anchor="middle" x="944.5" y="-86.3" font-family="Times,serif" font-size="14.00">stdbool.h</text>
</a>
</g>
</g>
<!-- 24 -->
<g id="node2" class="node">
<title>24</title>
<g id="a_node2"><a xlink:title="refc_binary.h">
<polygon fill="#ffffff" stroke="black" points="714.5,-396 606.5,-396 606.5,-360 714.5,-360 714.5,-396"/>
<text text-anchor="middle" x="660.5" y="-374.3" font-family="Times,serif" font-size="14.00">refc_binary.h</text>
</a>
</g>
</g>
<!-- 24&#45;&gt;7 -->
<g id="edge1" class="edge">
<title>24&#45;&gt;7</title>
<g id="a_edge1"><a xlink:title="include">
<path fill="none" stroke="#1414ce" d="M683.34,-359.8C695.12,-350.16 709.14,-337.4 719.5,-324 774.56,-252.75 745.87,-204.57 812.5,-144 835.02,-123.52 866.45,-110.48 893,-102.46"/>
<polygon fill="#1414ce" stroke="#1414ce" points="894.25,-105.74 902.9,-99.62 892.33,-99.01 894.25,-105.74"/>
</a>
</g>
</g>
<!-- 14 -->
<g id="node7" class="node">
<title>14</title>
<g id="a_node7"><a xlink:title="list.h">
<polygon fill="#ffffff" stroke="black" points="1026.5,-180 972.5,-180 972.5,-144 1026.5,-144 1026.5,-180"/>
<text text-anchor="middle" x="999.5" y="-158.3" font-family="Times,serif" font-size="14.00">list.h</text>
</a>
</g>
</g>
<!-- 24&#45;&gt;14 -->
<g id="edge3" class="edge">
<title>24&#45;&gt;14</title>
<g id="a_edge3"><a xlink:title="include">
<path fill="none" stroke="#1414ce" d="M696.74,-359.97C717.01,-350.08 742.55,-337.04 764.5,-324 840.24,-279.01 924.35,-218.68 968.52,-186.14"/>
<polygon fill="#1414ce" stroke="#1414ce" points="970.84,-188.78 976.8,-180.02 966.68,-183.15 970.84,-188.78"/>
</a>
</g>
</g>
<!-- 5 -->
<g id="node9" class="node">
<title>5</title>
<g id="a_node9"><a xlink:title="stdlib.h">
<polygon fill="#ffffff" stroke="black" points="551,-108 480,-108 480,-72 551,-72 551,-108"/>
<text text-anchor="middle" x="515.5" y="-86.3" font-family="Times,serif" font-size="14.00">stdlib.h</text>
</a>
</g>
</g>
<!-- 24&#45;&gt;5 -->
<g id="edge2" class="edge">
<title>24&#45;&gt;5</title>
<g id="a_edge2"><a xlink:title="include">
<path fill="none" stroke="#1414ce" d="M636.39,-359.83C624.55,-350.38 610.86,-337.79 601.5,-324 589.45,-306.25 544.15,-175.24 524.59,-117.83"/>
<polygon fill="#1414ce" stroke="#1414ce" points="527.89,-116.66 521.35,-108.32 521.26,-118.92 527.89,-116.66"/>
</a>
</g>
</g>
<!-- 25 -->
<g id="node12" class="node">
<title>25</title>
<g id="a_node12"><a xlink:title="resources.h">
<polygon fill="#ffffff" stroke="black" points="710.5,-324 610.5,-324 610.5,-288 710.5,-288 710.5,-324"/>
<text text-anchor="middle" x="660.5" y="-302.3" font-family="Times,serif" font-size="14.00">resources.h</text>
</a>
</g>
</g>
<!-- 24&#45;&gt;25 -->
<g id="edge4" class="edge">
<title>24&#45;&gt;25</title>
<g id="a_edge4"><a xlink:title="include">
<path fill="none" stroke="#1414ce" d="M660.5,-359.7C660.5,-351.98 660.5,-342.71 660.5,-334.11"/>
<polygon fill="#1414ce" stroke="#1414ce" points="664,-334.1 660.5,-324.1 657,-334.1 664,-334.1"/>
</a>
</g>
</g>
<!-- 4 -->
<g id="node3" class="node">
<title>4</title>
<g id="a_node3"><a xlink:title="atom.h">
<polygon fill="#ffffff" stroke="black" points="760.5,-180 694.5,-180 694.5,-144 760.5,-144 760.5,-180"/>
<text text-anchor="middle" x="727.5" y="-158.3" font-family="Times,serif" font-size="14.00">atom.h</text>
</a>
</g>
</g>
<!-- 3 -->
<g id="node8" class="node">
<title>3</title>
<g id="a_node8"><a xlink:title="stdint.h">
<polygon fill="#ffffff" stroke="black" points="559.5,-36 487.5,-36 487.5,0 559.5,0 559.5,-36"/>
<text text-anchor="middle" x="523.5" y="-14.3" font-family="Times,serif" font-size="14.00">stdint.h</text>
</a>
</g>
</g>
<!-- 4&#45;&gt;3 -->
<g id="edge5" class="edge">
<title>4&#45;&gt;3</title>
<g id="a_edge5"><a xlink:title="include">
<path fill="none" stroke="#1414ce" d="M714.88,-143.98C699.72,-124.49 672.65,-92.6 643.5,-72 620.78,-55.94 592.41,-43.14 568.97,-34.15"/>
<polygon fill="#1414ce" stroke="#1414ce" points="570.18,-30.86 559.58,-30.65 567.73,-37.42 570.18,-30.86"/>
</a>
</g>
</g>
<!-- 4&#45;&gt;5 -->
<g id="edge6" class="edge">
<title>4&#45;&gt;5</title>
<g id="a_edge6"><a xlink:title="include">
<path fill="none" stroke="#1414ce" d="M694.37,-151.06C662.53,-141.38 612.87,-125.96 561,-108.09"/>
<polygon fill="#1414ce" stroke="#1414ce" points="561.89,-104.69 551.3,-104.72 559.6,-111.3 561.89,-104.69"/>
</a>
</g>
</g>
<!-- 10 -->
<g id="node4" class="node">
<title>10</title>
<g id="a_node4"><a xlink:title="assert.h">
<polygon fill="#ffffff" stroke="black" points="181.5,-36 107.5,-36 107.5,0 181.5,0 181.5,-36"/>
<text text-anchor="middle" x="144.5" y="-14.3" font-family="Times,serif" font-size="14.00">assert.h</text>
</a>
</g>
</g>
<!-- 22 -->
<g id="node5" class="node">
<title>22</title>
<g id="a_node5"><a xlink:title="utils.h">
<polygon fill="#ffffff" stroke="black" points="524.5,-180 462.5,-180 462.5,-144 524.5,-144 524.5,-180"/>
<text text-anchor="middle" x="493.5" y="-158.3" font-family="Times,serif" font-size="14.00">utils.h</text>
</a>
</g>
</g>
<!-- 22&#45;&gt;5 -->
<g id="edge9" class="edge">
<title>22&#45;&gt;5</title>
<g id="a_edge9"><a xlink:title="include">
<path fill="none" stroke="#1414ce" d="M498.94,-143.7C501.39,-135.9 504.34,-126.51 507.07,-117.83"/>
<polygon fill="#1414ce" stroke="#1414ce" points="510.46,-118.69 510.12,-108.1 503.79,-116.59 510.46,-118.69"/>
</a>
</g>
</g>
<!-- 23 -->
<g id="node14" class="node">
<title>23</title>
<g id="a_node14"><a xlink:title="stddef.h">
<polygon fill="#ffffff" stroke="black" points="461.5,-108 387.5,-108 387.5,-72 461.5,-72 461.5,-108"/>
<text text-anchor="middle" x="424.5" y="-86.3" font-family="Times,serif" font-size="14.00">stddef.h</text>
</a>
</g>
</g>
<!-- 22&#45;&gt;23 -->
<g id="edge7" class="edge">
<title>22&#45;&gt;23</title>
<g id="a_edge7"><a xlink:title="include">
<path fill="none" stroke="#1414ce" d="M476.44,-143.7C468,-135.14 457.68,-124.66 448.46,-115.3"/>
<polygon fill="#1414ce" stroke="#1414ce" points="450.87,-112.77 441.36,-108.1 445.89,-117.68 450.87,-112.77"/>
</a>
</g>
</g>
<!-- 16 -->
<g id="node25" class="node">
<title>16</title>
<g id="a_node25"><a xlink:title="stdio.h">
<polygon fill="#ffffff" stroke="black" points="634,-108 569,-108 569,-72 634,-72 634,-108"/>
<text text-anchor="middle" x="601.5" y="-86.3" font-family="Times,serif" font-size="14.00">stdio.h</text>
</a>
</g>
</g>
<!-- 22&#45;&gt;16 -->
<g id="edge8" class="edge">
<title>22&#45;&gt;16</title>
<g id="a_edge8"><a xlink:title="include">
<path fill="none" stroke="#1414ce" d="M519.92,-143.88C533.91,-134.81 551.28,-123.55 566.39,-113.76"/>
<polygon fill="#1414ce" stroke="#1414ce" points="568.49,-116.57 574.98,-108.19 564.68,-110.69 568.49,-116.57"/>
</a>
</g>
</g>
<!-- 15 -->
<g id="node6" class="node">
<title>15</title>
<g id="a_node6"><a xlink:title="synclist.h">
<polygon fill="#ffffff" stroke="black" points="1220,-252 1135,-252 1135,-216 1220,-216 1220,-252"/>
<text text-anchor="middle" x="1177.5" y="-230.3" font-family="Times,serif" font-size="14.00">synclist.h</text>
</a>
</g>
</g>
<!-- 15&#45;&gt;14 -->
<g id="edge11" class="edge">
<title>15&#45;&gt;14</title>
<g id="a_edge11"><a xlink:title="include">
<path fill="none" stroke="#1414ce" d="M1134.86,-216.23C1104.78,-204.4 1064.89,-188.71 1036.21,-177.44"/>
<polygon fill="#1414ce" stroke="#1414ce" points="1037.16,-174.05 1026.57,-173.65 1034.6,-180.56 1037.16,-174.05"/>
</a>
</g>
</g>
<!-- 17 -->
<g id="node22" class="node">
<title>17</title>
<g id="a_node22"><a xlink:title="smp.h">
<polygon fill="#ffffff" stroke="black" points="1280.5,-180 1220.5,-180 1220.5,-144 1280.5,-144 1280.5,-180"/>
<text text-anchor="middle" x="1250.5" y="-158.3" font-family="Times,serif" font-size="14.00">smp.h</text>
</a>
</g>
</g>
<!-- 15&#45;&gt;17 -->
<g id="edge12" class="edge">
<title>15&#45;&gt;17</title>
<g id="a_edge12"><a xlink:title="include">
<path fill="none" stroke="#1414ce" d="M1195.54,-215.7C1204.56,-207.05 1215.62,-196.45 1225.44,-187.03"/>
<polygon fill="#1414ce" stroke="#1414ce" points="1227.87,-189.55 1232.66,-180.1 1223.02,-184.5 1227.87,-189.55"/>
</a>
</g>
</g>
<!-- 15&#45;&gt;16 -->
<g id="edge10" class="edge">
<title>15&#45;&gt;16</title>
<g id="a_edge10"><a xlink:title="include">
<path fill="none" stroke="#1414ce" d="M1156.9,-215.94C1130.55,-195.15 1082.67,-160.72 1035.5,-144 898.56,-95.45 723.78,-89.87 644.29,-90.15"/>
<polygon fill="#1414ce" stroke="#1414ce" points="644.15,-86.65 634.18,-90.22 644.2,-93.65 644.15,-86.65"/>
</a>
</g>
</g>
<!-- 14&#45;&gt;7 -->
<g id="edge13" class="edge">
<title>14&#45;&gt;7</title>
<g id="a_edge13"><a xlink:title="include">
<path fill="none" stroke="#1414ce" d="M985.9,-143.7C979.38,-135.39 971.43,-125.28 964.25,-116.14"/>
<polygon fill="#1414ce" stroke="#1414ce" points="966.87,-113.81 957.94,-108.1 961.37,-118.13 966.87,-113.81"/>
</a>
</g>
</g>
<!-- 1 -->
<g id="node10" class="node">
<title>1</title>
<g id="a_node10"><a xlink:title="/__w/AtomVM/AtomVM/src/libAtomVM/context.h">
<polygon fill="#bfbfbf" stroke="black" points="1184.5,-684 824.5,-684 824.5,-648 1184.5,-648 1184.5,-684"/>
<text text-anchor="middle" x="1004.5" y="-662.3" font-family="Times,serif" font-size="14.00">/__w/AtomVM/AtomVM/src/libAtomVM/context.h</text>
</a>
</g>
</g>
<!-- 1&#45;&gt;14 -->
<g id="edge15" class="edge">
<title>1&#45;&gt;14</title>
<g id="a_edge15"><a xlink:title="include">
<path fill="none" stroke="#1414ce" d="M992.77,-647.72C977.64,-624.42 951.93,-581.11 940.5,-540 901.84,-401 907.68,-350.26 960.5,-216 964.39,-206.11 970.6,-196.42 976.93,-188.07"/>
<polygon fill="#1414ce" stroke="#1414ce" points="979.7,-190.22 983.22,-180.23 974.24,-185.84 979.7,-190.22"/>
</a>
</g>
</g>
<!-- 18 -->
<g id="node13" class="node">
<title>18</title>
<g id="a_node13"><a xlink:title="term.h">
<polygon fill="#ffffff" stroke="black" points="489,-468 424,-468 424,-432 489,-432 489,-468"/>
<text text-anchor="middle" x="456.5" y="-446.3" font-family="Times,serif" font-size="14.00">term.h</text>
</a>
</g>
</g>
<!-- 1&#45;&gt;18 -->
<g id="edge18" class="edge">
<title>1&#45;&gt;18</title>
<g id="a_edge18"><a xlink:title="include">
<path fill="none" stroke="#1414ce" d="M932.55,-647.97C896.15,-638.64 851.52,-626.11 812.5,-612 695.77,-569.78 564.01,-505.65 498.36,-472.51"/>
<polygon fill="#1414ce" stroke="#1414ce" points="499.66,-469.25 489.16,-467.85 496.5,-475.49 499.66,-469.25"/>
</a>
</g>
</g>
<!-- 2 -->
<g id="node21" class="node">
<title>2</title>
<g id="a_node21"><a xlink:title="globalcontext.h">
<polygon fill="#ffffff" stroke="black" points="1122,-612 995,-612 995,-576 1122,-576 1122,-612"/>
<text text-anchor="middle" x="1058.5" y="-590.3" font-family="Times,serif" font-size="14.00">globalcontext.h</text>
</a>
</g>
</g>
<!-- 1&#45;&gt;2 -->
<g id="edge14" class="edge">
<title>1&#45;&gt;2</title>
<g id="a_edge14"><a xlink:title="include">
<path fill="none" stroke="#1414ce" d="M1017.85,-647.7C1024.26,-639.39 1032.06,-629.28 1039.11,-620.14"/>
<polygon fill="#1414ce" stroke="#1414ce" points="1041.97,-622.16 1045.31,-612.1 1036.43,-617.88 1041.97,-622.16"/>
</a>
</g>
</g>
<!-- 1&#45;&gt;17 -->
<g id="edge17" class="edge">
<title>1&#45;&gt;17</title>
<g id="a_edge17"><a xlink:title="include">
<path fill="none" stroke="#1414ce" d="M1123.73,-647.95C1192.8,-631.79 1275.69,-600.47 1325.5,-540 1393.73,-457.17 1292.26,-224.3 1288.5,-216 1284.09,-206.25 1277.76,-196.48 1271.52,-188.03"/>
<polygon fill="#1414ce" stroke="#1414ce" points="1274.27,-185.86 1265.4,-180.07 1268.72,-190.12 1274.27,-185.86"/>
</a>
</g>
</g>
<!-- 27 -->
<g id="node23" class="node">
<title>27</title>
<g id="a_node23"><a xlink:title="timer_list.h">
<polygon fill="#ffffff" stroke="black" points="1450.5,-252 1352.5,-252 1352.5,-216 1450.5,-216 1450.5,-252"/>
<text text-anchor="middle" x="1401.5" y="-230.3" font-family="Times,serif" font-size="14.00">timer_list.h</text>
</a>
</g>
</g>
<!-- 1&#45;&gt;27 -->
<g id="edge19" class="edge">
<title>1&#45;&gt;27</title>
<g id="a_edge19"><a xlink:title="include">
<path fill="none" stroke="#1414ce" d="M1184.65,-661.1C1278.2,-655.36 1380.04,-642.1 1414.5,-612 1445.35,-585.05 1438.5,-563.97 1438.5,-523 1438.5,-523 1438.5,-523 1438.5,-377 1438.5,-335.71 1423.67,-289.77 1412.78,-261.63"/>
<polygon fill="#1414ce" stroke="#1414ce" points="1415.94,-260.11 1408.99,-252.11 1409.44,-262.7 1415.94,-260.11"/>
</a>
</g>
</g>
<!-- 26 -->
<g id="node24" class="node">
<title>26</title>
<g id="a_node24"><a xlink:title="mailbox.h">
<polygon fill="#ffffff" stroke="black" points="722.5,-252 636.5,-252 636.5,-216 722.5,-216 722.5,-252"/>
<text text-anchor="middle" x="679.5" y="-230.3" font-family="Times,serif" font-size="14.00">mailbox.h</text>
</a>
</g>
</g>
<!-- 1&#45;&gt;26 -->
<g id="edge16" class="edge">
<title>1&#45;&gt;26</title>
<g id="a_edge16"><a xlink:title="include">
<path fill="none" stroke="#1414ce" d="M951.09,-647.91C898.66,-627.39 826.5,-587.44 826.5,-523 826.5,-523 826.5,-523 826.5,-377 826.5,-320.85 770.33,-279.86 727.43,-256.74"/>
<polygon fill="#1414ce" stroke="#1414ce" points="728.99,-253.61 718.51,-252.08 725.75,-259.81 728.99,-253.61"/>
</a>
</g>
</g>
<!-- 21 -->
<g id="node11" class="node">
<title>21</title>
<g id="a_node11"><a xlink:title="memory.h">
<polygon fill="#ffffff" stroke="black" points="363.5,-252 277.5,-252 277.5,-216 363.5,-216 363.5,-252"/>
<text text-anchor="middle" x="320.5" y="-230.3" font-family="Times,serif" font-size="14.00">memory.h</text>
</a>
</g>
</g>
<!-- 21&#45;&gt;22 -->
<g id="edge24" class="edge">
<title>21&#45;&gt;22</title>
<g id="a_edge24"><a xlink:title="include">
<path fill="none" stroke="#1414ce" d="M362.82,-215.88C390.26,-204.77 425.81,-190.39 452.9,-179.43"/>
<polygon fill="#1414ce" stroke="#1414ce" points="454.51,-182.55 462.47,-175.56 451.89,-176.06 454.51,-182.55"/>
</a>
</g>
</g>
<!-- 21&#45;&gt;3 -->
<g id="edge20" class="edge">
<title>21&#45;&gt;3</title>
<g id="a_edge20"><a xlink:title="include">
<path fill="none" stroke="#1414ce" d="M321.96,-215.93C325.62,-183.51 338.05,-112.64 378.5,-72 404.95,-45.43 445.78,-32.07 477.38,-25.42"/>
<polygon fill="#1414ce" stroke="#1414ce" points="478.14,-28.84 487.28,-23.49 476.8,-21.97 478.14,-28.84"/>
</a>
</g>
</g>
<!-- 21&#45;&gt;5 -->
<g id="edge21" class="edge">
<title>21&#45;&gt;5</title>
<g id="a_edge21"><a xlink:title="include">
<path fill="none" stroke="#1414ce" d="M337.58,-215.68C356.74,-196.77 389.25,-166.22 420.5,-144 436.47,-132.64 455.11,-121.78 471.62,-112.88"/>
<polygon fill="#1414ce" stroke="#1414ce" points="473.35,-115.93 480.55,-108.15 470.07,-109.74 473.35,-115.93"/>
</a>
</g>
</g>
<!-- 8 -->
<g id="node15" class="node">
<title>8</title>
<g id="a_node15"><a xlink:title="erl_nif.h">
<polygon fill="#ffffff" stroke="black" points="254.5,-180 180.5,-180 180.5,-144 254.5,-144 254.5,-180"/>
<text text-anchor="middle" x="217.5" y="-158.3" font-family="Times,serif" font-size="14.00">erl_nif.h</text>
</a>
</g>
</g>
<!-- 21&#45;&gt;8 -->
<g id="edge22" class="edge">
<title>21&#45;&gt;8</title>
<g id="a_edge22"><a xlink:title="include">
<path fill="none" stroke="#1414ce" d="M295.3,-215.88C282.09,-206.89 265.71,-195.76 251.39,-186.03"/>
<polygon fill="#1414ce" stroke="#1414ce" points="253.03,-182.92 242.79,-180.19 249.1,-188.71 253.03,-182.92"/>
</a>
</g>
</g>
<!-- 9 -->
<g id="node20" class="node">
<title>9</title>
<g id="a_node20"><a xlink:title="term_typedef.h">
<polygon fill="#ffffff" stroke="black" points="207,-108 82,-108 82,-72 207,-72 207,-108"/>
<text text-anchor="middle" x="144.5" y="-86.3" font-family="Times,serif" font-size="14.00">term_typedef.h</text>
</a>
</g>
</g>
<!-- 21&#45;&gt;9 -->
<g id="edge23" class="edge">
<title>21&#45;&gt;9</title>
<g id="a_edge23"><a xlink:title="include">
<path fill="none" stroke="#1414ce" d="M313.21,-215.8C304.12,-196.14 286.88,-164.1 263.5,-144 247.88,-130.57 228.3,-119.98 209.56,-111.92"/>
<polygon fill="#1414ce" stroke="#1414ce" points="210.74,-108.62 200.16,-108.05 208.08,-115.09 210.74,-108.62"/>
</a>
</g>
</g>
<!-- 25&#45;&gt;15 -->
<g id="edge30" class="edge">
<title>25&#45;&gt;15</title>
<g id="a_edge30"><a xlink:title="include">
<path fill="none" stroke="#1414ce" d="M710.6,-299.82C790.52,-291.32 951.7,-273.23 1087.5,-252 1099.53,-250.12 1112.41,-247.84 1124.56,-245.58"/>
<polygon fill="#1414ce" stroke="#1414ce" points="1125.39,-248.98 1134.56,-243.68 1124.09,-242.1 1125.39,-248.98"/>
</a>
</g>
</g>
<!-- 25&#45;&gt;14 -->
<g id="edge27" class="edge">
<title>25&#45;&gt;14</title>
<g id="a_edge27"><a xlink:title="include">
<path fill="none" stroke="#1414ce" d="M694.38,-287.92C732.05,-269.21 794.91,-238.85 850.5,-216 888.15,-200.53 932.16,-185.2 962.54,-175.04"/>
<polygon fill="#1414ce" stroke="#1414ce" points="963.9,-178.28 972.29,-171.8 961.69,-171.63 963.9,-178.28"/>
</a>
</g>
</g>
<!-- 25&#45;&gt;5 -->
<g id="edge25" class="edge">
<title>25&#45;&gt;5</title>
<g id="a_edge25"><a xlink:title="include">
<path fill="none" stroke="#1414ce" d="M647.57,-287.68C640.68,-277.7 632.61,-264.67 627.5,-252 609.14,-206.49 633.09,-183.89 604.5,-144 593.55,-128.73 576.72,-117.09 560.62,-108.67"/>
<polygon fill="#1414ce" stroke="#1414ce" points="561.8,-105.35 551.28,-104.08 558.71,-111.63 561.8,-105.35"/>
</a>
</g>
</g>
<!-- 25&#45;&gt;21 -->
<g id="edge29" class="edge">
<title>25&#45;&gt;21</title>
<g id="a_edge29"><a xlink:title="include">
<path fill="none" stroke="#1414ce" d="M610.33,-294.67C546.95,-281.62 438.34,-259.26 373.6,-245.93"/>
<polygon fill="#1414ce" stroke="#1414ce" points="374.1,-242.46 363.6,-243.87 372.69,-249.32 374.1,-242.46"/>
</a>
</g>
</g>
<!-- 25&#45;&gt;8 -->
<g id="edge26" class="edge">
<title>25&#45;&gt;8</title>
<g id="a_edge26"><a xlink:title="include">
<path fill="none" stroke="#1414ce" d="M610.23,-303.65C517.35,-300.28 323.34,-288.91 268.5,-252 246.89,-237.45 233.32,-210.47 225.66,-190.01"/>
<polygon fill="#1414ce" stroke="#1414ce" points="228.87,-188.59 222.28,-180.3 222.26,-190.89 228.87,-188.59"/>
</a>
</g>
</g>
<!-- 25&#45;&gt;26 -->
<g id="edge28" class="edge">
<title>25&#45;&gt;26</title>
<g id="a_edge28"><a xlink:title="include">
<path fill="none" stroke="#1414ce" d="M665.2,-287.7C667.31,-279.9 669.86,-270.51 672.22,-261.83"/>
<polygon fill="#1414ce" stroke="#1414ce" points="675.62,-262.67 674.86,-252.1 668.86,-260.84 675.62,-262.67"/>
</a>
</g>
</g>
<!-- 18&#45;&gt;7 -->
<g id="edge32" class="edge">
<title>18&#45;&gt;7</title>
<g id="a_edge32"><a xlink:title="include">
<path fill="none" stroke="#1414ce" d="M489.13,-445.57C551.55,-438.53 685.06,-420.97 723.5,-396 805.6,-342.66 792.85,-295.13 850.5,-216 875.81,-181.25 905.77,-141.67 924.95,-116.53"/>
<polygon fill="#1414ce" stroke="#1414ce" points="927.97,-118.34 931.25,-108.27 922.4,-114.09 927.97,-118.34"/>
</a>
</g>
</g>
<!-- 18&#45;&gt;24 -->
<g id="edge38" class="edge">
<title>18&#45;&gt;24</title>
<g id="a_edge38"><a xlink:title="include">
<path fill="none" stroke="#1414ce" d="M489.28,-437.75C519.36,-427.43 564.66,-411.89 601.11,-399.38"/>
<polygon fill="#1414ce" stroke="#1414ce" points="602.33,-402.66 610.66,-396.1 600.06,-396.04 602.33,-402.66"/>
</a>
</g>
</g>
<!-- 18&#45;&gt;22 -->
<g id="edge39" class="edge">
<title>18&#45;&gt;22</title>
<g id="a_edge39"><a xlink:title="include">
<path fill="none" stroke="#1414ce" d="M461.74,-431.97C464.73,-421.65 468.31,-408.18 470.5,-396 483.79,-322.24 489.87,-233.87 492.23,-190.19"/>
<polygon fill="#1414ce" stroke="#1414ce" points="495.73,-190.25 492.75,-180.09 488.74,-189.89 495.73,-190.25"/>
</a>
</g>
</g>
<!-- 18&#45;&gt;3 -->
<g id="edge33" class="edge">
<title>18&#45;&gt;3</title>
<g id="a_edge33"><a xlink:title="include">
<path fill="none" stroke="#1414ce" d="M423.79,-446.17C364.86,-440.39 244.28,-425.23 215.5,-396 135.73,-314.98 107.94,-238.27 171.5,-144 206.63,-91.89 390.35,-47.03 477.51,-28.32"/>
<polygon fill="#1414ce" stroke="#1414ce" points="478.34,-31.72 487.4,-26.22 476.89,-24.87 478.34,-31.72"/>
</a>
</g>
</g>
<!-- 18&#45;&gt;5 -->
<g id="edge35" class="edge">
<title>18&#45;&gt;5</title>
<g id="a_edge35"><a xlink:title="include">
<path fill="none" stroke="#1414ce" d="M454.42,-431.62C447.9,-374.85 429.73,-195.58 453.5,-144 458.82,-132.44 468.05,-122.47 477.78,-114.4"/>
<polygon fill="#1414ce" stroke="#1414ce" points="480.21,-116.94 486,-108.06 475.94,-111.39 480.21,-116.94"/>
</a>
</g>
</g>
<!-- 18&#45;&gt;21 -->
<g id="edge37" class="edge">
<title>18&#45;&gt;21</title>
<g id="a_edge37"><a xlink:title="include">
<path fill="none" stroke="#1414ce" d="M423.92,-446.23C367.25,-440.67 254.28,-426 230.5,-396 195.22,-351.49 252.04,-291.36 290.27,-258.63"/>
<polygon fill="#1414ce" stroke="#1414ce" points="292.68,-261.18 298.1,-252.08 288.19,-255.81 292.68,-261.18"/>
</a>
</g>
</g>
<!-- 19 -->
<g id="node18" class="node">
<title>19</title>
<g id="a_node18"><a xlink:title="sys/types.h">
<polygon fill="#ffffff" stroke="black" points="337,-396 240,-396 240,-360 337,-360 337,-396"/>
<text text-anchor="middle" x="288.5" y="-374.3" font-family="Times,serif" font-size="14.00">sys/types.h</text>
</a>
</g>
</g>
<!-- 18&#45;&gt;19 -->
<g id="edge31" class="edge">
<title>18&#45;&gt;19</title>
<g id="a_edge31"><a xlink:title="include">
<path fill="none" stroke="#1414ce" d="M423.71,-435.34C399.62,-425.3 366.45,-411.48 338.99,-400.04"/>
<polygon fill="#1414ce" stroke="#1414ce" points="340.12,-396.71 329.54,-396.1 337.42,-403.18 340.12,-396.71"/>
</a>
</g>
</g>
<!-- 20 -->
<g id="node19" class="node">
<title>20</title>
<g id="a_node19"><a xlink:title="string.h">
<polygon fill="#ffffff" stroke="black" points="428,-396 355,-396 355,-360 428,-360 428,-396"/>
<text text-anchor="middle" x="391.5" y="-374.3" font-family="Times,serif" font-size="14.00">string.h</text>
</a>
</g>
</g>
<!-- 18&#45;&gt;20 -->
<g id="edge36" class="edge">
<title>18&#45;&gt;20</title>
<g id="a_edge36"><a xlink:title="include">
<path fill="none" stroke="#1414ce" d="M440.43,-431.7C432.56,-423.22 422.94,-412.86 414.33,-403.58"/>
<polygon fill="#1414ce" stroke="#1414ce" points="416.75,-401.05 407.38,-396.1 411.62,-405.81 416.75,-401.05"/>
</a>
</g>
</g>
<!-- 18&#45;&gt;9 -->
<g id="edge40" class="edge">
<title>18&#45;&gt;9</title>
<g id="a_edge40"><a xlink:title="include">
<path fill="none" stroke="#1414ce" d="M423.88,-447.97C354.31,-445.05 194.81,-434.24 159.5,-396 87.91,-318.47 118.58,-177.11 135.77,-118.06"/>
<polygon fill="#1414ce" stroke="#1414ce" points="139.16,-118.93 138.69,-108.34 132.46,-116.91 139.16,-118.93"/>
</a>
</g>
</g>
<!-- 18&#45;&gt;16 -->
<g id="edge34" class="edge">
<title>18&#45;&gt;16</title>
<g id="a_edge34"><a xlink:title="include">
<path fill="none" stroke="#1414ce" d="M467.61,-431.74C473.9,-421.57 481.65,-408.32 487.5,-396 534.68,-296.67 575.99,-172.18 593.1,-118.13"/>
<polygon fill="#1414ce" stroke="#1414ce" points="596.53,-118.87 596.19,-108.29 589.86,-116.77 596.53,-118.87"/>
</a>
</g>
</g>
<!-- 8&#45;&gt;9 -->
<g id="edge41" class="edge">
<title>8&#45;&gt;9</title>
<g id="a_edge41"><a xlink:title="include">
<path fill="none" stroke="#1414ce" d="M199.46,-143.7C190.44,-135.05 179.38,-124.45 169.56,-115.03"/>
<polygon fill="#1414ce" stroke="#1414ce" points="171.98,-112.5 162.34,-108.1 167.13,-117.55 171.98,-112.5"/>
</a>
</g>
</g>
<!-- 11 -->
<g id="node16" class="node">
<title>11</title>
<g id="a_node16"><a xlink:title="limits.h">
<polygon fill="#ffffff" stroke="black" points="271,-36 200,-36 200,0 271,0 271,-36"/>
<text text-anchor="middle" x="235.5" y="-14.3" font-family="Times,serif" font-size="14.00">limits.h</text>
</a>
</g>
</g>
<!-- 6 -->
<g id="node17" class="node">
<title>6</title>
<g id="a_node17"><a xlink:title="atom_table.h">
<polygon fill="#ffffff" stroke="black" points="1078,-252 969,-252 969,-216 1078,-216 1078,-252"/>
<text text-anchor="middle" x="1023.5" y="-230.3" font-family="Times,serif" font-size="14.00">atom_table.h</text>
</a>
</g>
</g>
<!-- 6&#45;&gt;7 -->
<g id="edge42" class="edge">
<title>6&#45;&gt;7</title>
<g id="a_edge42"><a xlink:title="include">
<path fill="none" stroke="#1414ce" d="M997.51,-215.98C985.4,-206.74 971.84,-194.28 963.5,-180 952.51,-161.18 947.84,-136.81 945.88,-118.32"/>
<polygon fill="#1414ce" stroke="#1414ce" points="949.36,-117.87 945.01,-108.21 942.38,-118.47 949.36,-117.87"/>
</a>
</g>
</g>
<!-- 6&#45;&gt;4 -->
<g id="edge43" class="edge">
<title>6&#45;&gt;4</title>
<g id="a_edge43"><a xlink:title="include">
<path fill="none" stroke="#1414ce" d="M968.9,-219.48C964.03,-218.3 959.18,-217.12 954.5,-216 890.47,-200.64 816.14,-183.4 770.47,-172.87"/>
<polygon fill="#1414ce" stroke="#1414ce" points="771.14,-169.43 760.61,-170.6 769.57,-176.25 771.14,-169.43"/>
</a>
</g>
</g>
<!-- 9&#45;&gt;10 -->
<g id="edge44" class="edge">
<title>9&#45;&gt;10</title>
<g id="a_edge44"><a xlink:title="include">
<path fill="none" stroke="#1414ce" d="M144.5,-71.7C144.5,-63.98 144.5,-54.71 144.5,-46.11"/>
<polygon fill="#1414ce" stroke="#1414ce" points="148,-46.1 144.5,-36.1 141,-46.1 148,-46.1"/>
</a>
</g>
</g>
<!-- 9&#45;&gt;3 -->
<g id="edge47" class="edge">
<title>9&#45;&gt;3</title>
<g id="a_edge47"><a xlink:title="include">
<path fill="none" stroke="#1414ce" d="M207.07,-74.95C211.95,-73.92 216.8,-72.93 221.5,-72 311.65,-54.15 417.55,-36.27 476.96,-26.52"/>
<polygon fill="#1414ce" stroke="#1414ce" points="477.84,-29.92 487.15,-24.85 476.71,-23.02 477.84,-29.92"/>
</a>
</g>
</g>
<!-- 9&#45;&gt;11 -->
<g id="edge45" class="edge">
<title>9&#45;&gt;11</title>
<g id="a_edge45"><a xlink:title="include">
<path fill="none" stroke="#1414ce" d="M166.99,-71.7C178.46,-62.88 192.56,-52.03 204.98,-42.47"/>
<polygon fill="#1414ce" stroke="#1414ce" points="207.47,-44.98 213.26,-36.1 203.2,-39.43 207.47,-44.98"/>
</a>
</g>
</g>
<!-- 12 -->
<g id="node27" class="node">
<title>12</title>
<g id="a_node27"><a xlink:title="inttypes.h">
<polygon fill="#ffffff" stroke="black" points="89,-36 0,-36 0,0 89,0 89,-36"/>
<text text-anchor="middle" x="44.5" y="-14.3" font-family="Times,serif" font-size="14.00">inttypes.h</text>
</a>
</g>
</g>
<!-- 9&#45;&gt;12 -->
<g id="edge46" class="edge">
<title>9&#45;&gt;12</title>
<g id="a_edge46"><a xlink:title="include">
<path fill="none" stroke="#1414ce" d="M120.04,-71.88C107.2,-62.89 91.3,-51.76 77.41,-42.03"/>
<polygon fill="#1414ce" stroke="#1414ce" points="79.26,-39.06 69.06,-36.19 75.24,-44.79 79.26,-39.06"/>
</a>
</g>
</g>
<!-- 2&#45;&gt;4 -->
<g id="edge49" class="edge">
<title>2&#45;&gt;4</title>
<g id="a_edge49"><a xlink:title="include">
<path fill="none" stroke="#1414ce" d="M1041.14,-575.93C1017.61,-550.89 978.5,-501.65 978.5,-451 978.5,-451 978.5,-451 978.5,-377 978.5,-268.85 841.88,-203.8 770.23,-177.12"/>
<polygon fill="#1414ce" stroke="#1414ce" points="771.17,-173.73 760.57,-173.61 768.77,-180.31 771.17,-173.73"/>
</a>
</g>
</g>
<!-- 2&#45;&gt;15 -->
<g id="edge56" class="edge">
<title>2&#45;&gt;15</title>
<g id="a_edge56"><a xlink:title="include">
<path fill="none" stroke="#1414ce" d="M1088.83,-575.96C1125.54,-552.82 1182.5,-507.79 1182.5,-451 1182.5,-451 1182.5,-451 1182.5,-377 1182.5,-336.97 1180.49,-290.63 1179.02,-262.07"/>
<polygon fill="#1414ce" stroke="#1414ce" points="1182.51,-261.84 1178.49,-252.04 1175.52,-262.21 1182.51,-261.84"/>
</a>
</g>
</g>
<!-- 2&#45;&gt;14 -->
<g id="edge53" class="edge">
<title>2&#45;&gt;14</title>
<g id="a_edge53"><a xlink:title="include">
<path fill="none" stroke="#1414ce" d="M1118.36,-575.96C1174.05,-556.01 1248.5,-516.99 1248.5,-451 1248.5,-451 1248.5,-451 1248.5,-305 1248.5,-264.55 1257.87,-244.83 1229.5,-216 1202.98,-189.05 1095.21,-173.42 1037.08,-166.79"/>
<polygon fill="#1414ce" stroke="#1414ce" points="1037.16,-163.27 1026.84,-165.65 1036.39,-170.23 1037.16,-163.27"/>
</a>
</g>
</g>
<!-- 2&#45;&gt;3 -->
<g id="edge48" class="edge">
<title>2&#45;&gt;3</title>
<g id="a_edge48"><a xlink:title="include">
<path fill="none" stroke="#1414ce" d="M1122.24,-587C1190.92,-579.41 1294.56,-564.3 1325.5,-540 1448.06,-443.77 1529.54,-355.2 1459.5,-216 1435.37,-168.04 1409.7,-169.6 1362.5,-144 1281.66,-100.15 1258.28,-91.95 1168.5,-72 948.25,-23.05 676.65,-18.28 569.79,-18.5"/>
<polygon fill="#1414ce" stroke="#1414ce" points="569.66,-15 559.67,-18.54 569.69,-22 569.66,-15"/>
</a>
</g>
</g>
<!-- 2&#45;&gt;18 -->
<g id="edge57" class="edge">
<title>2&#45;&gt;18</title>
<g id="a_edge57"><a xlink:title="include">
<path fill="none" stroke="#1414ce" d="M994.93,-578C871.64,-548.92 603.04,-485.56 498.92,-461.01"/>
<polygon fill="#1414ce" stroke="#1414ce" points="499.62,-457.57 489.08,-458.68 498.01,-464.39 499.62,-457.57"/>
</a>
</g>
</g>
<!-- 2&#45;&gt;8 -->
<g id="edge51" class="edge">
<title>2&#45;&gt;8</title>
<g id="a_edge51"><a xlink:title="include">
<path fill="none" stroke="#1414ce" d="M994.74,-589.1C809.49,-576.27 278.24,-528.34 180.5,-396 134.29,-333.43 177,-235.46 202.14,-189.05"/>
<polygon fill="#1414ce" stroke="#1414ce" points="205.25,-190.67 207.05,-180.23 199.13,-187.26 205.25,-190.67"/>
</a>
</g>
</g>
<!-- 2&#45;&gt;6 -->
<g id="edge50" class="edge">
<title>2&#45;&gt;6</title>
<g id="a_edge50"><a xlink:title="include">
<path fill="none" stroke="#1414ce" d="M1054.25,-575.63C1048.11,-548.99 1037.5,-496.36 1037.5,-451 1037.5,-451 1037.5,-451 1037.5,-377 1037.5,-337.02 1031.94,-291.02 1027.82,-262.47"/>
<polygon fill="#1414ce" stroke="#1414ce" points="1031.26,-261.81 1026.33,-252.43 1024.34,-262.84 1031.26,-261.81"/>
</a>
</g>
</g>
<!-- 2&#45;&gt;17 -->
<g id="edge55" class="edge">
<title>2&#45;&gt;17</title>
<g id="a_edge55"><a xlink:title="include">
<path fill="none" stroke="#1414ce" d="M1122.01,-581.68C1189.47,-565.58 1286.5,-528.88 1286.5,-451 1286.5,-451 1286.5,-451 1286.5,-305 1286.5,-263.78 1272.07,-217.83 1261.48,-189.66"/>
<polygon fill="#1414ce" stroke="#1414ce" points="1264.66,-188.19 1257.79,-180.13 1258.14,-190.72 1264.66,-188.19"/>
</a>
</g>
</g>
<!-- 2&#45;&gt;27 -->
<g id="edge58" class="edge">
<title>2&#45;&gt;27</title>
<g id="a_edge58"><a xlink:title="include">
<path fill="none" stroke="#1414ce" d="M1122.22,-586.53C1185.07,-578.88 1275.28,-564.04 1300.5,-540 1330.15,-511.73 1324.5,-491.97 1324.5,-451 1324.5,-451 1324.5,-451 1324.5,-377 1324.5,-331.51 1355.42,-286.65 1378.07,-259.89"/>
<polygon fill="#1414ce" stroke="#1414ce" points="1380.86,-262.02 1384.79,-252.19 1375.58,-257.42 1380.86,-262.02"/>
</a>
</g>
</g>
<!-- 2&#45;&gt;26 -->
<g id="edge54" class="edge">
<title>2&#45;&gt;26</title>
<g id="a_edge54"><a xlink:title="include">
<path fill="none" stroke="#1414ce" d="M1012.05,-575.89C994.89,-567.47 976.68,-555.68 964.5,-540 939.37,-507.65 940.5,-491.97 940.5,-451 940.5,-451 940.5,-451 940.5,-377 940.5,-283.2 808.82,-251.01 732.52,-240.23"/>
<polygon fill="#1414ce" stroke="#1414ce" points="732.97,-236.76 722.6,-238.9 732.05,-243.7 732.97,-236.76"/>
</a>
</g>
</g>
<!-- 13 -->
<g id="node26" class="node">
<title>13</title>
<g id="a_node26"><a xlink:title="ets.h">
<polygon fill="#ffffff" stroke="black" points="1126.5,-540 1072.5,-540 1072.5,-504 1126.5,-504 1126.5,-540"/>
<text text-anchor="middle" x="1099.5" y="-518.3" font-family="Times,serif" font-size="14.00">ets.h</text>
</a>
</g>
</g>
<!-- 2&#45;&gt;13 -->
<g id="edge52" class="edge">
<title>2&#45;&gt;13</title>
<g id="a_edge52"><a xlink:title="include">
<path fill="none" stroke="#1414ce" d="M1068.63,-575.7C1073.35,-567.64 1079.06,-557.89 1084.28,-548.98"/>
<polygon fill="#1414ce" stroke="#1414ce" points="1087.45,-550.5 1089.48,-540.1 1081.41,-546.96 1087.45,-550.5"/>
</a>
</g>
</g>
<!-- 17&#45;&gt;7 -->
<g id="edge59" class="edge">
<title>17&#45;&gt;7</title>
<g id="a_edge59"><a xlink:title="include">
<path fill="none" stroke="#1414ce" d="M1220.32,-154.1C1168.08,-142.15 1060.24,-117.48 995.97,-102.77"/>
<polygon fill="#1414ce" stroke="#1414ce" points="996.57,-99.32 986.04,-100.5 995.01,-106.15 996.57,-99.32"/>
</a>
</g>
</g>
<!-- 27&#45;&gt;7 -->
<g id="edge60" class="edge">
<title>27&#45;&gt;7</title>
<g id="a_edge60"><a xlink:title="include">
<path fill="none" stroke="#1414ce" d="M1385.53,-215.7C1365.32,-195 1328.42,-161 1289.5,-144 1192.05,-101.42 1066.08,-92.31 996.49,-90.79"/>
<polygon fill="#1414ce" stroke="#1414ce" points="996.29,-87.29 986.23,-90.62 996.17,-94.29 996.29,-87.29"/>
</a>
</g>
</g>
<!-- 27&#45;&gt;14 -->
<g id="edge62" class="edge">
<title>27&#45;&gt;14</title>
<g id="a_edge62"><a xlink:title="include">
<path fill="none" stroke="#1414ce" d="M1352.21,-224.42C1270.68,-210.22 1109.53,-182.16 1036.74,-169.48"/>
<polygon fill="#1414ce" stroke="#1414ce" points="1037.11,-166 1026.66,-167.73 1035.91,-172.89 1037.11,-166"/>
</a>
</g>
</g>
<!-- 27&#45;&gt;3 -->
<g id="edge61" class="edge">
<title>27&#45;&gt;3</title>
<g id="a_edge61"><a xlink:title="include">
<path fill="none" stroke="#1414ce" d="M1392.72,-215.97C1381.26,-195.53 1359.23,-161.8 1330.5,-144 1201.32,-63.99 722.67,-30.33 570.36,-21.5"/>
<polygon fill="#1414ce" stroke="#1414ce" points="570.15,-17.98 559.97,-20.9 569.75,-24.97 570.15,-17.98"/>
</a>
</g>
</g>
<!-- 26&#45;&gt;7 -->
<g id="edge63" class="edge">
<title>26&#45;&gt;7</title>
<g id="a_edge63"><a xlink:title="include">
<path fill="none" stroke="#1414ce" d="M675.14,-215.98C671.18,-196.18 668.28,-163.71 685.5,-144 712.14,-113.51 825.09,-99.87 892.72,-94.34"/>
<polygon fill="#1414ce" stroke="#1414ce" points="893.07,-97.82 902.76,-93.55 892.52,-90.85 893.07,-97.82"/>
</a>
</g>
</g>
<!-- 26&#45;&gt;22 -->
<g id="edge66" class="edge">
<title>26&#45;&gt;22</title>
<g id="a_edge66"><a xlink:title="include">
<path fill="none" stroke="#1414ce" d="M636.36,-216.76C605.47,-205.14 564.16,-189.59 533.91,-178.21"/>
<polygon fill="#1414ce" stroke="#1414ce" points="535.09,-174.91 524.5,-174.67 532.63,-181.47 535.09,-174.91"/>
</a>
</g>
</g>
<!-- 26&#45;&gt;14 -->
<g id="edge64" class="edge">
<title>26&#45;&gt;14</title>
<g id="a_edge64"><a xlink:title="include">
<path fill="none" stroke="#1414ce" d="M722.66,-223.56C785.9,-209.72 902.71,-184.17 962.35,-171.13"/>
<polygon fill="#1414ce" stroke="#1414ce" points="963.43,-174.47 972.45,-168.92 961.93,-167.63 963.43,-174.47"/>
</a>
</g>
</g>
<!-- 26&#45;&gt;9 -->
<g id="edge65" class="edge">
<title>26&#45;&gt;9</title>
<g id="a_edge65"><a xlink:title="include">
<path fill="none" stroke="#1414ce" d="M636.44,-223.58C590.85,-213.44 516.86,-196.54 453.5,-180 369.03,-157.94 272.45,-129.62 210.08,-110.92"/>
<polygon fill="#1414ce" stroke="#1414ce" points="210.95,-107.53 200.37,-108.01 208.94,-114.23 210.95,-107.53"/>
</a>
</g>
</g>
<!-- 13&#45;&gt;15 -->
<g id="edge68" class="edge">
<title>13&#45;&gt;15</title>
<g id="a_edge68"><a xlink:title="include">
<path fill="none" stroke="#1414ce" d="M1107.11,-503.55C1111.4,-493.32 1116.65,-480.07 1120.5,-468 1143.87,-394.69 1163.2,-305.83 1172.14,-262.05"/>
<polygon fill="#1414ce" stroke="#1414ce" points="1175.59,-262.67 1174.14,-252.18 1168.73,-261.29 1175.59,-262.67"/>
</a>
</g>
</g>
<!-- 13&#45;&gt;14 -->
<g id="edge67" class="edge">
<title>13&#45;&gt;14</title>
<g id="a_edge67"><a xlink:title="include">
<path fill="none" stroke="#1414ce" d="M1100.88,-503.96C1102.92,-477.32 1106.5,-424.17 1106.5,-379 1106.5,-379 1106.5,-379 1106.5,-305 1106.5,-264.55 1110.99,-248.93 1087.5,-216 1083.89,-210.94 1058.09,-195.66 1035.35,-182.8"/>
<polygon fill="#1414ce" stroke="#1414ce" points="1036.95,-179.68 1026.52,-177.83 1033.52,-185.78 1036.95,-179.68"/>
</a>
</g>
</g>
<!-- 13&#45;&gt;18 -->
<g id="edge69" class="edge">
<title>13&#45;&gt;18</title>
<g id="a_edge69"><a xlink:title="include">
<path fill="none" stroke="#1414ce" d="M1072.28,-518.04C971.94,-507.11 622.23,-469.04 499.48,-455.68"/>
<polygon fill="#1414ce" stroke="#1414ce" points="499.66,-452.18 489.34,-454.58 498.9,-459.14 499.66,-452.18"/>
</a>
</g>
</g>
</g>
</svg>
