<?xml version="1.0" encoding="UTF-8" standalone="no"?>
<!DOCTYPE svg PUBLIC "-//W3C//DTD SVG 1.1//EN"
 "http://www.w3.org/Graphics/SVG/1.1/DTD/svg11.dtd">
<!-- Generated by graphviz version 2.43.0 (0)
 -->
<!-- Title: %3 Pages: 1 -->
<svg width="1317pt" height="764pt"
 viewBox="0.00 0.00 1316.59 764.00" xmlns="http://www.w3.org/2000/svg" xmlns:xlink="http://www.w3.org/1999/xlink">
<g id="graph0" class="graph" transform="scale(1 1) rotate(0) translate(4 760)">
<title>%3</title>
<polygon fill="transparent" stroke="transparent" points="-4,4 -4,-760 1312.59,-760 1312.59,4 -4,4"/>
<!-- 8 -->
<g id="node1" class="node">
<title>8</title>
<g id="a_node1"><a xlink:title="stdbool.h">
<polygon fill="#ffffff" stroke="black" points="841.5,-108 758.5,-108 758.5,-72 841.5,-72 841.5,-108"/>
<text text-anchor="middle" x="800" y="-86.3" font-family="Times,serif" font-size="14.00">stdbool.h</text>
</a>
</g>
</g>
<!-- 25 -->
<g id="node2" class="node">
<title>25</title>
<g id="a_node2"><a xlink:title="refc_binary.h">
<polygon fill="#ffffff" stroke="black" points="676,-396 568,-396 568,-360 676,-360 676,-396"/>
<text text-anchor="middle" x="622" y="-374.3" font-family="Times,serif" font-size="14.00">refc_binary.h</text>
</a>
</g>
</g>
<!-- 25&#45;&gt;8 -->
<g id="edge1" class="edge">
<title>25&#45;&gt;8</title>
<g id="a_edge1"><a xlink:title="include">
<path fill="none" stroke="#1414ce" d="M619.39,-359.99C615.48,-329.98 610.19,-266.11 627,-216 639.47,-178.82 647.56,-168.72 678,-144 698.62,-127.25 725.36,-114.85 748.54,-106.27"/>
<polygon fill="#1414ce" stroke="#1414ce" points="749.98,-109.47 758.23,-102.83 747.63,-102.88 749.98,-109.47"/>
</a>
</g>
</g>
<!-- 15 -->
<g id="node7" class="node">
<title>15</title>
<g id="a_node7"><a xlink:title="list.h">
<polygon fill="#ffffff" stroke="black" points="827,-180 773,-180 773,-144 827,-144 827,-180"/>
<text text-anchor="middle" x="800" y="-158.3" font-family="Times,serif" font-size="14.00">list.h</text>
</a>
</g>
</g>
<!-- 25&#45;&gt;15 -->
<g id="edge3" class="edge">
<title>25&#45;&gt;15</title>
<g id="a_edge3"><a xlink:title="include">
<path fill="none" stroke="#1414ce" d="M647.83,-359.96C679.07,-338.2 731.52,-297.82 764,-252 777.42,-233.07 786.89,-208.41 792.74,-189.85"/>
<polygon fill="#1414ce" stroke="#1414ce" points="796.1,-190.82 795.62,-180.24 789.39,-188.81 796.1,-190.82"/>
</a>
</g>
</g>
<!-- 6 -->
<g id="node9" class="node">
<title>6</title>
<g id="a_node9"><a xlink:title="stdlib.h">
<polygon fill="#ffffff" stroke="black" points="536.5,-108 465.5,-108 465.5,-72 536.5,-72 536.5,-108"/>
<text text-anchor="middle" x="501" y="-86.3" font-family="Times,serif" font-size="14.00">stdlib.h</text>
</a>
</g>
</g>
<!-- 25&#45;&gt;6 -->
<g id="edge2" class="edge">
<title>25&#45;&gt;6</title>
<g id="a_edge2"><a xlink:title="include">
<path fill="none" stroke="#1414ce" d="M609.31,-359.57C602.51,-349.57 594.43,-336.53 589,-324 556.09,-248.03 577.28,-218.42 541,-144 536.23,-134.21 529.53,-124.42 522.97,-115.97"/>
<polygon fill="#1414ce" stroke="#1414ce" points="525.55,-113.6 516.55,-108.02 520.11,-118 525.55,-113.6"/>
</a>
</g>
</g>
<!-- 26 -->
<g id="node12" class="node">
<title>26</title>
<g id="a_node12"><a xlink:title="resources.h">
<polygon fill="#ffffff" stroke="black" points="461,-324 361,-324 361,-288 461,-288 461,-324"/>
<text text-anchor="middle" x="411" y="-302.3" font-family="Times,serif" font-size="14.00">resources.h</text>
</a>
</g>
</g>
<!-- 25&#45;&gt;26 -->
<g id="edge4" class="edge">
<title>25&#45;&gt;26</title>
<g id="a_edge4"><a xlink:title="include">
<path fill="none" stroke="#1414ce" d="M570.65,-359.97C540.47,-349.95 502.18,-337.25 470.66,-326.79"/>
<polygon fill="#1414ce" stroke="#1414ce" points="471.71,-323.45 461.12,-323.63 469.51,-330.1 471.71,-323.45"/>
</a>
</g>
</g>
<!-- 5 -->
<g id="node3" class="node">
<title>5</title>
<g id="a_node3"><a xlink:title="atom.h">
<polygon fill="#ffffff" stroke="black" points="1097,-180 1031,-180 1031,-144 1097,-144 1097,-180"/>
<text text-anchor="middle" x="1064" y="-158.3" font-family="Times,serif" font-size="14.00">atom.h</text>
</a>
</g>
</g>
<!-- 4 -->
<g id="node8" class="node">
<title>4</title>
<g id="a_node8"><a xlink:title="stdint.h">
<polygon fill="#ffffff" stroke="black" points="1199,-36 1127,-36 1127,0 1199,0 1199,-36"/>
<text text-anchor="middle" x="1163" y="-14.3" font-family="Times,serif" font-size="14.00">stdint.h</text>
</a>
</g>
</g>
<!-- 5&#45;&gt;4 -->
<g id="edge5" class="edge">
<title>5&#45;&gt;4</title>
<g id="a_edge5"><a xlink:title="include">
<path fill="none" stroke="#1414ce" d="M1075.94,-143.87C1093.19,-119.14 1125.18,-73.24 1145.21,-44.51"/>
<polygon fill="#1414ce" stroke="#1414ce" points="1148.17,-46.39 1151.02,-36.19 1142.43,-42.39 1148.17,-46.39"/>
</a>
</g>
</g>
<!-- 5&#45;&gt;6 -->
<g id="edge6" class="edge">
<title>5&#45;&gt;6</title>
<g id="a_edge6"><a xlink:title="include">
<path fill="none" stroke="#1414ce" d="M1030.88,-156.88C934.98,-144.96 656.87,-110.38 546.71,-96.68"/>
<polygon fill="#1414ce" stroke="#1414ce" points="546.94,-93.19 536.59,-95.42 546.08,-100.13 546.94,-93.19"/>
</a>
</g>
</g>
<!-- 11 -->
<g id="node4" class="node">
<title>11</title>
<g id="a_node4"><a xlink:title="assert.h">
<polygon fill="#ffffff" stroke="black" points="74,-36 0,-36 0,0 74,0 74,-36"/>
<text text-anchor="middle" x="37" y="-14.3" font-family="Times,serif" font-size="14.00">assert.h</text>
</a>
</g>
</g>
<!-- 23 -->
<g id="node5" class="node">
<title>23</title>
<g id="a_node5"><a xlink:title="utils.h">
<polygon fill="#ffffff" stroke="black" points="385,-180 323,-180 323,-144 385,-144 385,-180"/>
<text text-anchor="middle" x="354" y="-158.3" font-family="Times,serif" font-size="14.00">utils.h</text>
</a>
</g>
</g>
<!-- 23&#45;&gt;6 -->
<g id="edge9" class="edge">
<title>23&#45;&gt;6</title>
<g id="a_edge9"><a xlink:title="include">
<path fill="none" stroke="#1414ce" d="M385.17,-146.15C405.84,-136.31 433.28,-123.25 456.26,-112.3"/>
<polygon fill="#1414ce" stroke="#1414ce" points="457.96,-115.37 465.48,-107.91 454.95,-109.05 457.96,-115.37"/>
</a>
</g>
</g>
<!-- 24 -->
<g id="node14" class="node">
<title>24</title>
<g id="a_node14"><a xlink:title="stddef.h">
<polygon fill="#ffffff" stroke="black" points="349,-108 275,-108 275,-72 349,-72 349,-108"/>
<text text-anchor="middle" x="312" y="-86.3" font-family="Times,serif" font-size="14.00">stddef.h</text>
</a>
</g>
</g>
<!-- 23&#45;&gt;24 -->
<g id="edge7" class="edge">
<title>23&#45;&gt;24</title>
<g id="a_edge7"><a xlink:title="include">
<path fill="none" stroke="#1414ce" d="M343.62,-143.7C338.74,-135.56 332.81,-125.69 327.42,-116.7"/>
<polygon fill="#1414ce" stroke="#1414ce" points="330.41,-114.88 322.26,-108.1 324.41,-118.48 330.41,-114.88"/>
</a>
</g>
</g>
<!-- 17 -->
<g id="node26" class="node">
<title>17</title>
<g id="a_node26"><a xlink:title="stdio.h">
<polygon fill="#ffffff" stroke="black" points="432.5,-108 367.5,-108 367.5,-72 432.5,-72 432.5,-108"/>
<text text-anchor="middle" x="400" y="-86.3" font-family="Times,serif" font-size="14.00">stdio.h</text>
</a>
</g>
</g>
<!-- 23&#45;&gt;17 -->
<g id="edge8" class="edge">
<title>23&#45;&gt;17</title>
<g id="a_edge8"><a xlink:title="include">
<path fill="none" stroke="#1414ce" d="M365.37,-143.7C370.72,-135.56 377.2,-125.69 383.11,-116.7"/>
<polygon fill="#1414ce" stroke="#1414ce" points="386.19,-118.38 388.76,-108.1 380.34,-114.54 386.19,-118.38"/>
</a>
</g>
</g>
<!-- 16 -->
<g id="node6" class="node">
<title>16</title>
<g id="a_node6"><a xlink:title="synclist.h">
<polygon fill="#ffffff" stroke="black" points="754.5,-252 669.5,-252 669.5,-216 754.5,-216 754.5,-252"/>
<text text-anchor="middle" x="712" y="-230.3" font-family="Times,serif" font-size="14.00">synclist.h</text>
</a>
</g>
</g>
<!-- 16&#45;&gt;15 -->
<g id="edge11" class="edge">
<title>16&#45;&gt;15</title>
<g id="a_edge11"><a xlink:title="include">
<path fill="none" stroke="#1414ce" d="M733.75,-215.7C744.84,-206.88 758.47,-196.03 770.49,-186.47"/>
<polygon fill="#1414ce" stroke="#1414ce" points="772.85,-189.07 778.5,-180.1 768.49,-183.59 772.85,-189.07"/>
</a>
</g>
</g>
<!-- 18 -->
<g id="node23" class="node">
<title>18</title>
<g id="a_node23"><a xlink:title="smp.h">
<polygon fill="#ffffff" stroke="black" points="747,-180 687,-180 687,-144 747,-144 747,-180"/>
<text text-anchor="middle" x="717" y="-158.3" font-family="Times,serif" font-size="14.00">smp.h</text>
</a>
</g>
</g>
<!-- 16&#45;&gt;18 -->
<g id="edge12" class="edge">
<title>16&#45;&gt;18</title>
<g id="a_edge12"><a xlink:title="include">
<path fill="none" stroke="#1414ce" d="M713.24,-215.7C713.79,-207.98 714.45,-198.71 715.06,-190.11"/>
<polygon fill="#1414ce" stroke="#1414ce" points="718.56,-190.33 715.78,-180.1 711.57,-189.83 718.56,-190.33"/>
</a>
</g>
</g>
<!-- 16&#45;&gt;17 -->
<g id="edge10" class="edge">
<title>16&#45;&gt;17</title>
<g id="a_edge10"><a xlink:title="include">
<path fill="none" stroke="#1414ce" d="M674.37,-215.87C615.75,-189.19 503.05,-137.9 441.92,-110.08"/>
<polygon fill="#1414ce" stroke="#1414ce" points="443.12,-106.78 432.56,-105.82 440.22,-113.15 443.12,-106.78"/>
</a>
</g>
</g>
<!-- 15&#45;&gt;8 -->
<g id="edge13" class="edge">
<title>15&#45;&gt;8</title>
<g id="a_edge13"><a xlink:title="include">
<path fill="none" stroke="#1414ce" d="M800,-143.7C800,-135.98 800,-126.71 800,-118.11"/>
<polygon fill="#1414ce" stroke="#1414ce" points="803.5,-118.1 800,-108.1 796.5,-118.1 803.5,-118.1"/>
</a>
</g>
</g>
<!-- 2 -->
<g id="node10" class="node">
<title>2</title>
<g id="a_node10"><a xlink:title="context.h">
<polygon fill="#ffffff" stroke="black" points="997.5,-684 914.5,-684 914.5,-648 997.5,-648 997.5,-684"/>
<text text-anchor="middle" x="956" y="-662.3" font-family="Times,serif" font-size="14.00">context.h</text>
</a>
</g>
</g>
<!-- 2&#45;&gt;15 -->
<g id="edge15" class="edge">
<title>2&#45;&gt;15</title>
<g id="a_edge15"><a xlink:title="include">
<path fill="none" stroke="#1414ce" d="M997.51,-658.83C1046.07,-650.66 1122.01,-634.61 1139,-612 1207.05,-521.45 1163.55,-454.43 1101,-360 1035.39,-260.95 901.08,-200.32 836.4,-175.71"/>
<polygon fill="#1414ce" stroke="#1414ce" points="837.6,-172.42 827.01,-172.21 835.15,-178.98 837.6,-172.42"/>
</a>
</g>
</g>
<!-- 19 -->
<g id="node13" class="node">
<title>19</title>
<g id="a_node13"><a xlink:title="term.h">
<polygon fill="#ffffff" stroke="black" points="442.5,-468 377.5,-468 377.5,-432 442.5,-432 442.5,-468"/>
<text text-anchor="middle" x="410" y="-446.3" font-family="Times,serif" font-size="14.00">term.h</text>
</a>
</g>
</g>
<!-- 2&#45;&gt;19 -->
<g id="edge18" class="edge">
<title>2&#45;&gt;19</title>
<g id="a_edge18"><a xlink:title="include">
<path fill="none" stroke="#1414ce" d="M914.47,-654.41C842.68,-635.48 691.43,-592.84 570,-540 525.7,-520.72 477.6,-492.96 445.83,-473.59"/>
<polygon fill="#1414ce" stroke="#1414ce" points="447.27,-470.37 436.92,-468.11 443.61,-476.33 447.27,-470.37"/>
</a>
</g>
</g>
<!-- 3 -->
<g id="node21" class="node">
<title>3</title>
<g id="a_node21"><a xlink:title="globalcontext.h">
<polygon fill="#ffffff" stroke="black" points="949.5,-612 822.5,-612 822.5,-576 949.5,-576 949.5,-612"/>
<text text-anchor="middle" x="886" y="-590.3" font-family="Times,serif" font-size="14.00">globalcontext.h</text>
</a>
</g>
</g>
<!-- 2&#45;&gt;3 -->
<g id="edge14" class="edge">
<title>2&#45;&gt;3</title>
<g id="a_edge14"><a xlink:title="include">
<path fill="none" stroke="#1414ce" d="M938.7,-647.7C930.14,-639.14 919.66,-628.66 910.3,-619.3"/>
<polygon fill="#1414ce" stroke="#1414ce" points="912.65,-616.7 903.1,-612.1 907.7,-621.65 912.65,-616.7"/>
</a>
</g>
</g>
<!-- 2&#45;&gt;18 -->
<g id="edge17" class="edge">
<title>2&#45;&gt;18</title>
<g id="a_edge17"><a xlink:title="include">
<path fill="none" stroke="#1414ce" d="M967.74,-647.83C986.51,-618.11 1019.42,-555.36 1001,-504 949.86,-361.37 809.68,-236.63 747.45,-186.47"/>
<polygon fill="#1414ce" stroke="#1414ce" points="749.56,-183.68 739.56,-180.17 745.19,-189.15 749.56,-183.68"/>
</a>
</g>
</g>
<!-- 28 -->
<g id="node24" class="node">
<title>28</title>
<g id="a_node24"><a xlink:title="timer_list.h">
<polygon fill="#ffffff" stroke="black" points="1265,-252 1167,-252 1167,-216 1265,-216 1265,-252"/>
<text text-anchor="middle" x="1216" y="-230.3" font-family="Times,serif" font-size="14.00">timer_list.h</text>
</a>
</g>
</g>
<!-- 2&#45;&gt;28 -->
<g id="edge19" class="edge">
<title>2&#45;&gt;28</title>
<g id="a_edge19"><a xlink:title="include">
<path fill="none" stroke="#1414ce" d="M997.8,-659.8C1054.29,-651.98 1150.96,-635.56 1177,-612 1208.06,-583.9 1208,-564.89 1208,-523 1208,-523 1208,-523 1208,-377 1208,-336.93 1211.21,-290.61 1213.57,-262.05"/>
<polygon fill="#1414ce" stroke="#1414ce" points="1217.06,-262.29 1214.42,-252.03 1210.09,-261.7 1217.06,-262.29"/>
</a>
</g>
</g>
<!-- 27 -->
<g id="node25" class="node">
<title>27</title>
<g id="a_node25"><a xlink:title="mailbox.h">
<polygon fill="#ffffff" stroke="black" points="371,-252 285,-252 285,-216 371,-216 371,-252"/>
<text text-anchor="middle" x="328" y="-230.3" font-family="Times,serif" font-size="14.00">mailbox.h</text>
</a>
</g>
</g>
<!-- 2&#45;&gt;27 -->
<g id="edge16" class="edge">
<title>2&#45;&gt;27</title>
<g id="a_edge16"><a xlink:title="include">
<path fill="none" stroke="#1414ce" d="M914.49,-662.74C740.26,-652.72 77,-608.94 77,-523 77,-523 77,-523 77,-449 77,-345.69 201.64,-281.72 275.26,-252.94"/>
<polygon fill="#1414ce" stroke="#1414ce" points="276.76,-256.11 284.85,-249.27 274.26,-249.57 276.76,-256.11"/>
</a>
</g>
</g>
<!-- 22 -->
<g id="node11" class="node">
<title>22</title>
<g id="a_node11"><a xlink:title="memory.h">
<polygon fill="#ffffff" stroke="black" points="229,-252 143,-252 143,-216 229,-216 229,-252"/>
<text text-anchor="middle" x="186" y="-230.3" font-family="Times,serif" font-size="14.00">memory.h</text>
</a>
</g>
</g>
<!-- 22&#45;&gt;23 -->
<g id="edge24" class="edge">
<title>22&#45;&gt;23</title>
<g id="a_edge24"><a xlink:title="include">
<path fill="none" stroke="#1414ce" d="M227.1,-215.88C253.4,-204.92 287.37,-190.76 313.54,-179.86"/>
<polygon fill="#1414ce" stroke="#1414ce" points="314.92,-183.07 322.81,-176 312.23,-176.61 314.92,-183.07"/>
</a>
</g>
</g>
<!-- 22&#45;&gt;4 -->
<g id="edge20" class="edge">
<title>22&#45;&gt;4</title>
<g id="a_edge20"><a xlink:title="include">
<path fill="none" stroke="#1414ce" d="M188.76,-215.91C195.29,-181.8 215.1,-105.66 266,-72 337.25,-24.88 943.18,-19.59 1116.73,-19.05"/>
<polygon fill="#1414ce" stroke="#1414ce" points="1116.82,-22.55 1126.81,-19.02 1116.81,-15.55 1116.82,-22.55"/>
</a>
</g>
</g>
<!-- 22&#45;&gt;6 -->
<g id="edge21" class="edge">
<title>22&#45;&gt;6</title>
<g id="a_edge21"><a xlink:title="include">
<path fill="none" stroke="#1414ce" d="M229.27,-224.33C281.37,-213.48 365.45,-194.56 394,-180 426.45,-163.45 457.78,-135.53 478.06,-115.37"/>
<polygon fill="#1414ce" stroke="#1414ce" points="480.74,-117.64 485.28,-108.06 475.76,-112.72 480.74,-117.64"/>
</a>
</g>
</g>
<!-- 9 -->
<g id="node15" class="node">
<title>9</title>
<g id="a_node15"><a xlink:title="erl_nif.h">
<polygon fill="#ffffff" stroke="black" points="153,-180 79,-180 79,-144 153,-144 153,-180"/>
<text text-anchor="middle" x="116" y="-158.3" font-family="Times,serif" font-size="14.00">erl_nif.h</text>
</a>
</g>
</g>
<!-- 22&#45;&gt;9 -->
<g id="edge22" class="edge">
<title>22&#45;&gt;9</title>
<g id="a_edge22"><a xlink:title="include">
<path fill="none" stroke="#1414ce" d="M168.7,-215.7C160.14,-207.14 149.66,-196.66 140.3,-187.3"/>
<polygon fill="#1414ce" stroke="#1414ce" points="142.65,-184.7 133.1,-180.1 137.7,-189.65 142.65,-184.7"/>
</a>
</g>
</g>
<!-- 10 -->
<g id="node20" class="node">
<title>10</title>
<g id="a_node20"><a xlink:title="term_typedef.h">
<polygon fill="#ffffff" stroke="black" points="190.5,-108 65.5,-108 65.5,-72 190.5,-72 190.5,-108"/>
<text text-anchor="middle" x="128" y="-86.3" font-family="Times,serif" font-size="14.00">term_typedef.h</text>
</a>
</g>
</g>
<!-- 22&#45;&gt;10 -->
<g id="edge23" class="edge">
<title>22&#45;&gt;10</title>
<g id="a_edge23"><a xlink:title="include">
<path fill="none" stroke="#1414ce" d="M182.98,-215.74C179.4,-197.41 172.56,-167.85 162,-144 157.86,-134.65 152.21,-125.06 146.7,-116.65"/>
<polygon fill="#1414ce" stroke="#1414ce" points="149.6,-114.69 141.08,-108.38 143.8,-118.62 149.6,-114.69"/>
</a>
</g>
</g>
<!-- 26&#45;&gt;16 -->
<g id="edge30" class="edge">
<title>26&#45;&gt;16</title>
<g id="a_edge30"><a xlink:title="include">
<path fill="none" stroke="#1414ce" d="M461.04,-293.36C515.81,-280.63 603.24,-260.29 659.11,-247.3"/>
<polygon fill="#1414ce" stroke="#1414ce" points="660.21,-250.64 669.16,-244.96 658.62,-243.82 660.21,-250.64"/>
</a>
</g>
</g>
<!-- 26&#45;&gt;15 -->
<g id="edge27" class="edge">
<title>26&#45;&gt;15</title>
<g id="a_edge27"><a xlink:title="include">
<path fill="none" stroke="#1414ce" d="M459.12,-287.93C525.9,-264.15 650.4,-219.53 756,-180 758.35,-179.12 760.77,-178.21 763.2,-177.28"/>
<polygon fill="#1414ce" stroke="#1414ce" points="764.48,-180.54 772.57,-173.7 761.98,-174 764.48,-180.54"/>
</a>
</g>
</g>
<!-- 26&#45;&gt;6 -->
<g id="edge25" class="edge">
<title>26&#45;&gt;6</title>
<g id="a_edge25"><a xlink:title="include">
<path fill="none" stroke="#1414ce" d="M418.21,-287.85C433.88,-250.6 471.11,-162.07 489.84,-117.54"/>
<polygon fill="#1414ce" stroke="#1414ce" points="493.1,-118.81 493.75,-108.23 486.65,-116.09 493.1,-118.81"/>
</a>
</g>
</g>
<!-- 26&#45;&gt;22 -->
<g id="edge29" class="edge">
<title>26&#45;&gt;22</title>
<g id="a_edge29"><a xlink:title="include">
<path fill="none" stroke="#1414ce" d="M360.79,-289.38C324.52,-278.1 275.65,-262.89 238.81,-251.43"/>
<polygon fill="#1414ce" stroke="#1414ce" points="239.83,-248.08 229.24,-248.45 237.75,-254.76 239.83,-248.08"/>
</a>
</g>
</g>
<!-- 26&#45;&gt;9 -->
<g id="edge26" class="edge">
<title>26&#45;&gt;9</title>
<g id="a_edge26"><a xlink:title="include">
<path fill="none" stroke="#1414ce" d="M360.83,-301.98C289.89,-296.64 165.37,-283.04 134,-252 117.93,-236.1 114.21,-210.07 114.06,-190.26"/>
<polygon fill="#1414ce" stroke="#1414ce" points="117.56,-190.08 114.28,-180 110.56,-189.92 117.56,-190.08"/>
</a>
</g>
</g>
<!-- 26&#45;&gt;27 -->
<g id="edge28" class="edge">
<title>26&#45;&gt;27</title>
<g id="a_edge28"><a xlink:title="include">
<path fill="none" stroke="#1414ce" d="M390.48,-287.7C380.13,-278.97 367.41,-268.24 356.16,-258.75"/>
<polygon fill="#1414ce" stroke="#1414ce" points="358.18,-255.88 348.28,-252.1 353.67,-261.23 358.18,-255.88"/>
</a>
</g>
</g>
<!-- 19&#45;&gt;8 -->
<g id="edge32" class="edge">
<title>19&#45;&gt;8</title>
<g id="a_edge32"><a xlink:title="include">
<path fill="none" stroke="#1414ce" d="M442.61,-445.78C506.45,-438.99 645.15,-421.68 685,-396 783.46,-332.55 801.52,-291.94 836,-180 840.71,-164.71 840.7,-159.29 836,-144 832.99,-134.22 827.49,-124.62 821.68,-116.33"/>
<polygon fill="#1414ce" stroke="#1414ce" points="824.41,-114.13 815.61,-108.23 818.81,-118.33 824.41,-114.13"/>
</a>
</g>
</g>
<!-- 19&#45;&gt;25 -->
<g id="edge38" class="edge">
<title>19&#45;&gt;25</title>
<g id="a_edge38"><a xlink:title="include">
<path fill="none" stroke="#1414ce" d="M442.66,-438.22C474.03,-427.86 522.22,-411.95 560.74,-399.23"/>
<polygon fill="#1414ce" stroke="#1414ce" points="561.92,-402.53 570.31,-396.07 559.72,-395.88 561.92,-402.53"/>
</a>
</g>
</g>
<!-- 19&#45;&gt;23 -->
<g id="edge39" class="edge">
<title>19&#45;&gt;23</title>
<g id="a_edge39"><a xlink:title="include">
<path fill="none" stroke="#1414ce" d="M377.38,-439.37C356.67,-431.37 331.48,-417.72 319,-396 311.03,-382.13 315.59,-375.63 319,-360 326.51,-325.61 333.74,-318.09 352,-288 362.52,-270.67 373.42,-271.17 380,-252 387.14,-231.19 379.24,-207.23 370.33,-189.41"/>
<polygon fill="#1414ce" stroke="#1414ce" points="373.19,-187.35 365.37,-180.21 367.03,-190.67 373.19,-187.35"/>
</a>
</g>
</g>
<!-- 19&#45;&gt;4 -->
<g id="edge33" class="edge">
<title>19&#45;&gt;4</title>
<g id="a_edge33"><a xlink:title="include">
<path fill="none" stroke="#1414ce" d="M442.67,-446.89C587.47,-436.81 1168.8,-388.23 1274,-252 1326.4,-184.14 1238.45,-87.55 1190.69,-43.09"/>
<polygon fill="#1414ce" stroke="#1414ce" points="1192.86,-40.33 1183.12,-36.17 1188.13,-45.5 1192.86,-40.33"/>
</a>
</g>
</g>
<!-- 19&#45;&gt;6 -->
<g id="edge35" class="edge">
<title>19&#45;&gt;6</title>
<g id="a_edge35"><a xlink:title="include">
<path fill="none" stroke="#1414ce" d="M383.42,-431.91C371.76,-422.81 359.31,-410.49 353,-396 346.61,-381.33 343.49,-372.87 353,-360 385.32,-316.24 434.86,-365.53 470,-324 519.89,-265.04 512.96,-165.91 505.95,-118.23"/>
<polygon fill="#1414ce" stroke="#1414ce" points="509.36,-117.4 504.34,-108.07 502.45,-118.49 509.36,-117.4"/>
</a>
</g>
</g>
<!-- 19&#45;&gt;22 -->
<g id="edge37" class="edge">
<title>19&#45;&gt;22</title>
<g id="a_edge37"><a xlink:title="include">
<path fill="none" stroke="#1414ce" d="M377.39,-447.11C340.17,-443.26 279.73,-431.53 243,-396 205.73,-359.94 192.78,-298 188.32,-262.38"/>
<polygon fill="#1414ce" stroke="#1414ce" points="191.77,-261.77 187.18,-252.22 184.81,-262.55 191.77,-261.77"/>
</a>
</g>
</g>
<!-- 20 -->
<g id="node18" class="node">
<title>20</title>
<g id="a_node18"><a xlink:title="sys/types.h">
<polygon fill="#ffffff" stroke="black" points="458.5,-396 361.5,-396 361.5,-360 458.5,-360 458.5,-396"/>
<text text-anchor="middle" x="410" y="-374.3" font-family="Times,serif" font-size="14.00">sys/types.h</text>
</a>
</g>
</g>
<!-- 19&#45;&gt;20 -->
<g id="edge31" class="edge">
<title>19&#45;&gt;20</title>
<g id="a_edge31"><a xlink:title="include">
<path fill="none" stroke="#1414ce" d="M410,-431.7C410,-423.98 410,-414.71 410,-406.11"/>
<polygon fill="#1414ce" stroke="#1414ce" points="413.5,-406.1 410,-396.1 406.5,-406.1 413.5,-406.1"/>
</a>
</g>
</g>
<!-- 21 -->
<g id="node19" class="node">
<title>21</title>
<g id="a_node19"><a xlink:title="string.h">
<polygon fill="#ffffff" stroke="black" points="549.5,-396 476.5,-396 476.5,-360 549.5,-360 549.5,-396"/>
<text text-anchor="middle" x="513" y="-374.3" font-family="Times,serif" font-size="14.00">string.h</text>
</a>
</g>
</g>
<!-- 19&#45;&gt;21 -->
<g id="edge36" class="edge">
<title>19&#45;&gt;21</title>
<g id="a_edge36"><a xlink:title="include">
<path fill="none" stroke="#1414ce" d="M435.2,-431.88C448.41,-422.89 464.79,-411.76 479.11,-402.03"/>
<polygon fill="#1414ce" stroke="#1414ce" points="481.4,-404.71 487.71,-396.19 477.47,-398.92 481.4,-404.71"/>
</a>
</g>
</g>
<!-- 19&#45;&gt;10 -->
<g id="edge40" class="edge">
<title>19&#45;&gt;10</title>
<g id="a_edge40"><a xlink:title="include">
<path fill="none" stroke="#1414ce" d="M377.3,-446.94C335.88,-442.91 263.93,-431.02 214,-396 119.54,-329.75 100.68,-291.22 70,-180 65.74,-164.58 63.55,-158.64 70,-144 74.99,-132.69 83.71,-122.74 92.9,-114.62"/>
<polygon fill="#1414ce" stroke="#1414ce" points="95.17,-117.28 100.66,-108.23 90.72,-111.88 95.17,-117.28"/>
</a>
</g>
</g>
<!-- 19&#45;&gt;17 -->
<g id="edge34" class="edge">
<title>19&#45;&gt;17</title>
<g id="a_edge34"><a xlink:title="include">
<path fill="none" stroke="#1414ce" d="M377.18,-435.96C332.22,-415.69 257,-372.05 257,-307 257,-307 257,-307 257,-233 257,-175.47 316,-133.26 358.2,-110.42"/>
<polygon fill="#1414ce" stroke="#1414ce" points="359.96,-113.45 367.19,-105.71 356.71,-107.25 359.96,-113.45"/>
</a>
</g>
</g>
<!-- 9&#45;&gt;10 -->
<g id="edge41" class="edge">
<title>9&#45;&gt;10</title>
<g id="a_edge41"><a xlink:title="include">
<path fill="none" stroke="#1414ce" d="M118.97,-143.7C120.29,-135.98 121.88,-126.71 123.35,-118.11"/>
<polygon fill="#1414ce" stroke="#1414ce" points="126.83,-118.55 125.07,-108.1 119.93,-117.37 126.83,-118.55"/>
</a>
</g>
</g>
<!-- 12 -->
<g id="node16" class="node">
<title>12</title>
<g id="a_node16"><a xlink:title="limits.h">
<polygon fill="#ffffff" stroke="black" points="163.5,-36 92.5,-36 92.5,0 163.5,0 163.5,-36"/>
<text text-anchor="middle" x="128" y="-14.3" font-family="Times,serif" font-size="14.00">limits.h</text>
</a>
</g>
</g>
<!-- 7 -->
<g id="node17" class="node">
<title>7</title>
<g id="a_node17"><a xlink:title="atom_table.h">
<polygon fill="#ffffff" stroke="black" points="1110.5,-252 1001.5,-252 1001.5,-216 1110.5,-216 1110.5,-252"/>
<text text-anchor="middle" x="1056" y="-230.3" font-family="Times,serif" font-size="14.00">atom_table.h</text>
</a>
</g>
</g>
<!-- 7&#45;&gt;8 -->
<g id="edge42" class="edge">
<title>7&#45;&gt;8</title>
<g id="a_edge42"><a xlink:title="include">
<path fill="none" stroke="#1414ce" d="M1025.12,-215.87C978.7,-190.12 890.95,-141.45 839.79,-113.07"/>
<polygon fill="#1414ce" stroke="#1414ce" points="841.43,-109.98 830.99,-108.19 838.04,-116.1 841.43,-109.98"/>
</a>
</g>
</g>
<!-- 7&#45;&gt;5 -->
<g id="edge43" class="edge">
<title>7&#45;&gt;5</title>
<g id="a_edge43"><a xlink:title="include">
<path fill="none" stroke="#1414ce" d="M1057.98,-215.7C1058.86,-207.98 1059.92,-198.71 1060.9,-190.11"/>
<polygon fill="#1414ce" stroke="#1414ce" points="1064.39,-190.44 1062.05,-180.1 1057.43,-189.64 1064.39,-190.44"/>
</a>
</g>
</g>
<!-- 10&#45;&gt;11 -->
<g id="edge44" class="edge">
<title>10&#45;&gt;11</title>
<g id="a_edge44"><a xlink:title="include">
<path fill="none" stroke="#1414ce" d="M105.51,-71.7C94.04,-62.88 79.94,-52.03 67.52,-42.47"/>
<polygon fill="#1414ce" stroke="#1414ce" points="69.3,-39.43 59.24,-36.1 65.03,-44.98 69.3,-39.43"/>
</a>
</g>
</g>
<!-- 10&#45;&gt;4 -->
<g id="edge47" class="edge">
<title>10&#45;&gt;4</title>
<g id="a_edge47"><a xlink:title="include">
<path fill="none" stroke="#1414ce" d="M190.88,-74.25C195.64,-73.4 200.39,-72.63 205,-72 552.81,-24.3 977.25,-19.22 1116.41,-18.91"/>
<polygon fill="#1414ce" stroke="#1414ce" points="1116.7,-22.41 1126.69,-18.9 1116.69,-15.41 1116.7,-22.41"/>
</a>
</g>
</g>
<!-- 10&#45;&gt;12 -->
<g id="edge45" class="edge">
<title>10&#45;&gt;12</title>
<g id="a_edge45"><a xlink:title="include">
<path fill="none" stroke="#1414ce" d="M128,-71.7C128,-63.98 128,-54.71 128,-46.11"/>
<polygon fill="#1414ce" stroke="#1414ce" points="131.5,-46.1 128,-36.1 124.5,-46.1 131.5,-46.1"/>
</a>
</g>
</g>
<!-- 13 -->
<g id="node28" class="node">
<title>13</title>
<g id="a_node28"><a xlink:title="inttypes.h">
<polygon fill="#ffffff" stroke="black" points="270.5,-36 181.5,-36 181.5,0 270.5,0 270.5,-36"/>
<text text-anchor="middle" x="226" y="-14.3" font-family="Times,serif" font-size="14.00">inttypes.h</text>
</a>
</g>
</g>
<!-- 10&#45;&gt;13 -->
<g id="edge46" class="edge">
<title>10&#45;&gt;13</title>
<g id="a_edge46"><a xlink:title="include">
<path fill="none" stroke="#1414ce" d="M151.97,-71.88C164.55,-62.89 180.13,-51.76 193.75,-42.03"/>
<polygon fill="#1414ce" stroke="#1414ce" points="195.83,-44.85 201.93,-36.19 191.76,-39.15 195.83,-44.85"/>
</a>
</g>
</g>
<!-- 3&#45;&gt;5 -->
<g id="edge49" class="edge">
<title>3&#45;&gt;5</title>
<g id="a_edge49"><a xlink:title="include">
<path fill="none" stroke="#1414ce" d="M923.06,-575.95C939.56,-567 958.3,-554.8 972,-540 1069.74,-434.37 1086.16,-391.88 1120,-252 1123.76,-236.45 1126.33,-230.7 1120,-216 1115.21,-204.87 1106.81,-194.99 1097.95,-186.86"/>
<polygon fill="#1414ce" stroke="#1414ce" points="1100,-184.01 1090.12,-180.18 1095.46,-189.34 1100,-184.01"/>
</a>
</g>
</g>
<!-- 3&#45;&gt;16 -->
<g id="edge56" class="edge">
<title>3&#45;&gt;16</title>
<g id="a_edge56"><a xlink:title="include">
<path fill="none" stroke="#1414ce" d="M846.52,-575.89C830.44,-567.19 812.89,-555.21 801,-540 733.99,-454.25 717.41,-319.53 713.32,-262.24"/>
<polygon fill="#1414ce" stroke="#1414ce" points="716.81,-261.92 712.68,-252.16 709.82,-262.37 716.81,-261.92"/>
</a>
</g>
</g>
<!-- 3&#45;&gt;15 -->
<g id="edge53" class="edge">
<title>3&#45;&gt;15</title>
<g id="a_edge53"><a xlink:title="include">
<path fill="none" stroke="#1414ce" d="M896.15,-575.73C910.51,-549.64 935,-498.2 935,-451 935,-451 935,-451 935,-305 935,-247.57 876.27,-204.12 836.29,-181.2"/>
<polygon fill="#1414ce" stroke="#1414ce" points="837.76,-178.01 827.32,-176.22 834.36,-184.13 837.76,-178.01"/>
</a>
</g>
</g>
<!-- 3&#45;&gt;4 -->
<g id="edge48" class="edge">
<title>3&#45;&gt;4</title>
<g id="a_edge48"><a xlink:title="include">
<path fill="none" stroke="#1414ce" d="M949.61,-581.89C982.73,-573.98 1022.74,-560.92 1054,-540 1192.71,-447.17 1238.02,-408.88 1295,-252 1323.23,-174.29 1306.5,-130.43 1248,-72 1236.19,-60.2 1221.29,-49.8 1207.27,-41.41"/>
<polygon fill="#1414ce" stroke="#1414ce" points="1208.64,-38.16 1198.23,-36.19 1205.14,-44.22 1208.64,-38.16"/>
</a>
</g>
</g>
<!-- 3&#45;&gt;19 -->
<g id="edge57" class="edge">
<title>3&#45;&gt;19</title>
<g id="a_edge57"><a xlink:title="include">
<path fill="none" stroke="#1414ce" d="M822.25,-576.51C783.82,-566.39 733.96,-552.92 690,-540 605.23,-515.08 506.98,-483.14 452.31,-465.08"/>
<polygon fill="#1414ce" stroke="#1414ce" points="453.21,-461.7 442.62,-461.88 451.01,-468.34 453.21,-461.7"/>
</a>
</g>
</g>
<!-- 3&#45;&gt;9 -->
<g id="edge51" class="edge">
<title>3&#45;&gt;9</title>
<g id="a_edge51"><a xlink:title="include">
<path fill="none" stroke="#1414ce" d="M822.26,-590.22C683.54,-583.76 358.11,-566.25 251,-540 151.75,-515.67 39,-553.19 39,-451 39,-451 39,-451 39,-305 39,-259.51 69.92,-214.65 92.57,-187.89"/>
<polygon fill="#1414ce" stroke="#1414ce" points="95.36,-190.02 99.29,-180.19 90.08,-185.42 95.36,-190.02"/>
</a>
</g>
</g>
<!-- 3&#45;&gt;7 -->
<g id="edge50" class="edge">
<title>3&#45;&gt;7</title>
<g id="a_edge50"><a xlink:title="include">
<path fill="none" stroke="#1414ce" d="M913.28,-575.8C925.84,-566.59 939.94,-554.22 949,-540 971.02,-505.45 973,-491.97 973,-451 973,-451 973,-451 973,-377 973,-330.74 1006.24,-286.16 1030.65,-259.66"/>
<polygon fill="#1414ce" stroke="#1414ce" points="1033.24,-262.02 1037.58,-252.36 1028.16,-257.2 1033.24,-262.02"/>
</a>
</g>
</g>
<!-- 3&#45;&gt;18 -->
<g id="edge55" class="edge">
<title>3&#45;&gt;18</title>
<g id="a_edge55"><a xlink:title="include">
<path fill="none" stroke="#1414ce" d="M829.9,-575.92C809.96,-567.63 788.62,-555.94 773,-540 748.49,-514.99 754.2,-500.44 741,-468 702.41,-373.18 679.06,-352.77 661,-252 658.18,-236.25 654.67,-230.7 661,-216 665.79,-204.87 674.19,-194.99 683.05,-186.86"/>
<polygon fill="#1414ce" stroke="#1414ce" points="685.54,-189.34 690.88,-180.18 681,-184.01 685.54,-189.34"/>
</a>
</g>
</g>
<!-- 3&#45;&gt;28 -->
<g id="edge58" class="edge">
<title>3&#45;&gt;28</title>
<g id="a_edge58"><a xlink:title="include">
<path fill="none" stroke="#1414ce" d="M949.7,-578.21C975.08,-570.02 1003.35,-557.79 1025,-540 1074.58,-499.27 1167.55,-327.55 1202.37,-261.26"/>
<polygon fill="#1414ce" stroke="#1414ce" points="1205.54,-262.76 1207.08,-252.28 1199.34,-259.51 1205.54,-262.76"/>
</a>
</g>
</g>
<!-- 3&#45;&gt;27 -->
<g id="edge54" class="edge">
<title>3&#45;&gt;27</title>
<g id="a_edge54"><a xlink:title="include">
<path fill="none" stroke="#1414ce" d="M822.35,-592.86C655.63,-590.77 219,-573.61 219,-451 219,-451 219,-451 219,-377 219,-326.93 262.17,-283.64 294.17,-258.43"/>
<polygon fill="#1414ce" stroke="#1414ce" points="296.62,-260.96 302.44,-252.11 292.37,-255.4 296.62,-260.96"/>
</a>
</g>
</g>
<!-- 14 -->
<g id="node27" class="node">
<title>14</title>
<g id="a_node27"><a xlink:title="ets.h">
<polygon fill="#ffffff" stroke="black" points="864,-540 810,-540 810,-504 864,-504 864,-540"/>
<text text-anchor="middle" x="837" y="-518.3" font-family="Times,serif" font-size="14.00">ets.h</text>
</a>
</g>
</g>
<!-- 3&#45;&gt;14 -->
<g id="edge52" class="edge">
<title>3&#45;&gt;14</title>
<g id="a_edge52"><a xlink:title="include">
<path fill="none" stroke="#1414ce" d="M873.89,-575.7C868.13,-567.47 861.14,-557.48 854.79,-548.42"/>
<polygon fill="#1414ce" stroke="#1414ce" points="857.58,-546.29 848.97,-540.1 851.84,-550.3 857.58,-546.29"/>
</a>
</g>
</g>
<!-- 1 -->
<g id="node22" class="node">
<title>1</title>
<g id="a_node22"><a xlink:title="/__w/AtomVM/AtomVM/src/libAtomVM/scheduler.h">
<polygon fill="#bfbfbf" stroke="black" points="1108.5,-756 733.5,-756 733.5,-720 1108.5,-720 1108.5,-756"/>
<text text-anchor="middle" x="921" y="-734.3" font-family="Times,serif" font-size="14.00">/__w/AtomVM/AtomVM/src/libAtomVM/scheduler.h</text>
</a>
</g>
</g>
<!-- 1&#45;&gt;2 -->
<g id="edge59" class="edge">
<title>1&#45;&gt;2</title>
<g id="a_edge59"><a xlink:title="include">
<path fill="none" stroke="#1414ce" d="M929.65,-719.7C933.64,-711.73 938.45,-702.1 942.87,-693.26"/>
<polygon fill="#1414ce" stroke="#1414ce" points="946.11,-694.61 947.45,-684.1 939.85,-691.48 946.11,-694.61"/>
</a>
</g>
</g>
<!-- 1&#45;&gt;3 -->
<g id="edge60" class="edge">
<title>1&#45;&gt;3</title>
<g id="a_edge60"><a xlink:title="include">
<path fill="none" stroke="#1414ce" d="M915.9,-719.88C912.88,-709.53 909.06,-696.05 906,-684 900.78,-663.41 895.53,-639.96 891.73,-622.3"/>
<polygon fill="#1414ce" stroke="#1414ce" points="895.07,-621.18 889.56,-612.13 888.22,-622.64 895.07,-621.18"/>
</a>
</g>
</g>
<!-- 18&#45;&gt;8 -->
<g id="edge61" class="edge">
<title>18&#45;&gt;8</title>
<g id="a_edge61"><a xlink:title="include">
<path fill="none" stroke="#1414ce" d="M737.52,-143.7C747.87,-134.97 760.59,-124.24 771.84,-114.75"/>
<polygon fill="#1414ce" stroke="#1414ce" points="774.33,-117.23 779.72,-108.1 769.82,-111.88 774.33,-117.23"/>
</a>
</g>
</g>
<!-- 28&#45;&gt;8 -->
<g id="edge62" class="edge">
<title>28&#45;&gt;8</title>
<g id="a_edge62"><a xlink:title="include">
<path fill="none" stroke="#1414ce" d="M1200.32,-215.82C1180.48,-195.23 1144.25,-161.35 1106,-144 1022.28,-106.02 914.34,-95.12 851.58,-92.08"/>
<polygon fill="#1414ce" stroke="#1414ce" points="851.67,-88.58 841.53,-91.64 851.36,-95.57 851.67,-88.58"/>
</a>
</g>
</g>
<!-- 28&#45;&gt;15 -->
<g id="edge64" class="edge">
<title>28&#45;&gt;15</title>
<g id="a_edge64"><a xlink:title="include">
<path fill="none" stroke="#1414ce" d="M1166.69,-224.16C1151.7,-221.5 1135.18,-218.6 1120,-216 1017.9,-198.51 897.3,-178.79 837.51,-169.07"/>
<polygon fill="#1414ce" stroke="#1414ce" points="837.84,-165.58 827.41,-167.43 836.72,-172.49 837.84,-165.58"/>
</a>
</g>
</g>
<!-- 28&#45;&gt;4 -->
<g id="edge63" class="edge">
<title>28&#45;&gt;4</title>
<g id="a_edge63"><a xlink:title="include">
<path fill="none" stroke="#1414ce" d="M1211.75,-215.85C1202.57,-178.75 1180.78,-90.81 1169.71,-46.1"/>
<polygon fill="#1414ce" stroke="#1414ce" points="1173.07,-45.1 1167.27,-36.23 1166.27,-46.78 1173.07,-45.1"/>
</a>
</g>
</g>
<!-- 27&#45;&gt;8 -->
<g id="edge65" class="edge">
<title>27&#45;&gt;8</title>
<g id="a_edge65"><a xlink:title="include">
<path fill="none" stroke="#1414ce" d="M371.14,-220.02C458.31,-193.8 655.08,-134.6 748.68,-106.44"/>
<polygon fill="#1414ce" stroke="#1414ce" points="749.92,-109.72 758.49,-103.49 747.9,-103.02 749.92,-109.72"/>
</a>
</g>
</g>
<!-- 27&#45;&gt;23 -->
<g id="edge68" class="edge">
<title>27&#45;&gt;23</title>
<g id="a_edge68"><a xlink:title="include">
<path fill="none" stroke="#1414ce" d="M334.43,-215.7C337.36,-207.81 340.89,-198.3 344.14,-189.55"/>
<polygon fill="#1414ce" stroke="#1414ce" points="347.45,-190.7 347.65,-180.1 340.88,-188.26 347.45,-190.7"/>
</a>
</g>
</g>
<!-- 27&#45;&gt;15 -->
<g id="edge66" class="edge">
<title>27&#45;&gt;15</title>
<g id="a_edge66"><a xlink:title="include">
<path fill="none" stroke="#1414ce" d="M371.11,-229.02C464.65,-220.16 683.65,-198.16 756,-180 758.43,-179.39 760.91,-178.68 763.39,-177.91"/>
<polygon fill="#1414ce" stroke="#1414ce" points="764.54,-181.21 772.88,-174.67 762.28,-174.59 764.54,-181.21"/>
</a>
</g>
</g>
<!-- 27&#45;&gt;10 -->
<g id="edge67" class="edge">
<title>27&#45;&gt;10</title>
<g id="a_edge67"><a xlink:title="include">
<path fill="none" stroke="#1414ce" d="M303.88,-215.87C268.06,-190.44 200.75,-142.65 160.59,-114.14"/>
<polygon fill="#1414ce" stroke="#1414ce" points="162.39,-111.12 152.21,-108.19 158.34,-116.83 162.39,-111.12"/>
</a>
</g>
</g>
<!-- 14&#45;&gt;16 -->
<g id="edge70" class="edge">
<title>14&#45;&gt;16</title>
<g id="a_edge70"><a xlink:title="include">
<path fill="none" stroke="#1414ce" d="M829.56,-503.97C808.59,-455.99 748.93,-319.5 723.6,-261.54"/>
<polygon fill="#1414ce" stroke="#1414ce" points="726.78,-260.07 719.56,-252.31 720.36,-262.87 726.78,-260.07"/>
</a>
</g>
</g>
<!-- 14&#45;&gt;15 -->
<g id="edge69" class="edge">
<title>14&#45;&gt;15</title>
<g id="a_edge69"><a xlink:title="include">
<path fill="none" stroke="#1414ce" d="M835.22,-503.73C829.27,-446.19 810.09,-260.66 802.83,-190.35"/>
<polygon fill="#1414ce" stroke="#1414ce" points="806.28,-189.68 801.77,-180.09 799.31,-190.4 806.28,-189.68"/>
</a>
</g>
</g>
<!-- 14&#45;&gt;19 -->
<g id="edge71" class="edge">
<title>14&#45;&gt;19</title>
<g id="a_edge71"><a xlink:title="include">
<path fill="none" stroke="#1414ce" d="M809.97,-516.57C737.83,-504.74 540.32,-472.36 452.76,-458.01"/>
<polygon fill="#1414ce" stroke="#1414ce" points="453.08,-454.52 442.65,-456.35 451.95,-461.42 453.08,-454.52"/>
</a>
</g>
</g>
</g>
</svg>
