<?xml version="1.0" encoding="UTF-8" standalone="no"?>
<!DOCTYPE svg PUBLIC "-//W3C//DTD SVG 1.1//EN"
 "http://www.w3.org/Graphics/SVG/1.1/DTD/svg11.dtd">
<!-- Generated by graphviz version 2.43.0 (0)
 -->
<!-- Title: %3 Pages: 1 -->
<svg width="1452pt" height="908pt"
 viewBox="0.00 0.00 1451.50 908.00" xmlns="http://www.w3.org/2000/svg" xmlns:xlink="http://www.w3.org/1999/xlink">
<g id="graph0" class="graph" transform="scale(1 1) rotate(0) translate(4 904)">
<title>%3</title>
<polygon fill="transparent" stroke="transparent" points="-4,4 -4,-904 1447.5,-904 1447.5,4 -4,4"/>
<!-- 9 -->
<g id="node1" class="node">
<title>9</title>
<g id="a_node1"><a xlink:title="stdbool.h">
<polygon fill="#ffffff" stroke="black" points="707.5,-108 624.5,-108 624.5,-72 707.5,-72 707.5,-108"/>
<text text-anchor="middle" x="666" y="-86.3" font-family="Times,serif" font-size="14.00">stdbool.h</text>
</a>
</g>
</g>
<!-- 26 -->
<g id="node2" class="node">
<title>26</title>
<g id="a_node2"><a xlink:title="refc_binary.h">
<polygon fill="#ffffff" stroke="black" points="721,-396 613,-396 613,-360 721,-360 721,-396"/>
<text text-anchor="middle" x="667" y="-374.3" font-family="Times,serif" font-size="14.00">refc_binary.h</text>
</a>
</g>
</g>
<!-- 26&#45;&gt;9 -->
<g id="edge1" class="edge">
<title>26&#45;&gt;9</title>
<g id="a_edge1"><a xlink:title="include">
<path fill="none" stroke="#1414ce" d="M708.18,-360C723.21,-351.54 738.57,-339.71 747,-324 754.57,-309.9 749.31,-303.83 747,-288 737.34,-221.91 733.42,-203.96 704,-144 699.29,-134.39 692.88,-124.66 686.66,-116.2"/>
<polygon fill="#1414ce" stroke="#1414ce" points="689.43,-114.05 680.58,-108.21 683.86,-118.29 689.43,-114.05"/>
</a>
</g>
</g>
<!-- 19 -->
<g id="node8" class="node">
<title>19</title>
<g id="a_node8"><a xlink:title="list.h">
<polygon fill="#ffffff" stroke="black" points="513,-180 459,-180 459,-144 513,-144 513,-180"/>
<text text-anchor="middle" x="486" y="-158.3" font-family="Times,serif" font-size="14.00">list.h</text>
</a>
</g>
</g>
<!-- 26&#45;&gt;19 -->
<g id="edge3" class="edge">
<title>26&#45;&gt;19</title>
<g id="a_edge3"><a xlink:title="include">
<path fill="none" stroke="#1414ce" d="M646.31,-359.81C619.56,-336.95 572.44,-294.46 539,-252 523.46,-232.27 509.1,-207.58 499.26,-189.21"/>
<polygon fill="#1414ce" stroke="#1414ce" points="502.3,-187.47 494.54,-180.24 496.1,-190.72 502.3,-187.47"/>
</a>
</g>
</g>
<!-- 7 -->
<g id="node10" class="node">
<title>7</title>
<g id="a_node10"><a xlink:title="stdlib.h">
<polygon fill="#ffffff" stroke="black" points="1131.5,-108 1060.5,-108 1060.5,-72 1131.5,-72 1131.5,-108"/>
<text text-anchor="middle" x="1096" y="-86.3" font-family="Times,serif" font-size="14.00">stdlib.h</text>
</a>
</g>
</g>
<!-- 26&#45;&gt;7 -->
<g id="edge2" class="edge">
<title>26&#45;&gt;7</title>
<g id="a_edge2"><a xlink:title="include">
<path fill="none" stroke="#1414ce" d="M700.44,-359.8C719.16,-349.87 742.73,-336.83 763,-324 878.69,-250.78 899.7,-220.87 1013,-144 1028.11,-133.75 1045.07,-122.82 1059.69,-113.57"/>
<polygon fill="#1414ce" stroke="#1414ce" points="1061.86,-116.34 1068.46,-108.05 1058.13,-110.41 1061.86,-116.34"/>
</a>
</g>
</g>
<!-- 27 -->
<g id="node15" class="node">
<title>27</title>
<g id="a_node15"><a xlink:title="resources.h">
<polygon fill="#ffffff" stroke="black" points="738,-324 638,-324 638,-288 738,-288 738,-324"/>
<text text-anchor="middle" x="688" y="-302.3" font-family="Times,serif" font-size="14.00">resources.h</text>
</a>
</g>
</g>
<!-- 26&#45;&gt;27 -->
<g id="edge4" class="edge">
<title>26&#45;&gt;27</title>
<g id="a_edge4"><a xlink:title="include">
<path fill="none" stroke="#1414ce" d="M672.19,-359.7C674.53,-351.9 677.35,-342.51 679.95,-333.83"/>
<polygon fill="#1414ce" stroke="#1414ce" points="683.35,-334.69 682.87,-324.1 676.64,-332.68 683.35,-334.69"/>
</a>
</g>
</g>
<!-- 33 -->
<g id="node3" class="node">
<title>33</title>
<g id="a_node3"><a xlink:title="defaultatoms.h">
<polygon fill="#ffffff" stroke="black" points="419,-828 295,-828 295,-792 419,-792 419,-828"/>
<text text-anchor="middle" x="357" y="-806.3" font-family="Times,serif" font-size="14.00">defaultatoms.h</text>
</a>
</g>
</g>
<!-- 34 -->
<g id="node20" class="node">
<title>34</title>
<g id="a_node20"><a xlink:title="defaultatoms.def">
<polygon fill="#ffffff" stroke="black" points="380.5,-756 243.5,-756 243.5,-720 380.5,-720 380.5,-756"/>
<text text-anchor="middle" x="312" y="-734.3" font-family="Times,serif" font-size="14.00">defaultatoms.def</text>
</a>
</g>
</g>
<!-- 33&#45;&gt;34 -->
<g id="edge6" class="edge">
<title>33&#45;&gt;34</title>
<g id="a_edge6"><a xlink:title="include">
<path fill="none" stroke="#1414ce" d="M345.88,-791.7C340.64,-783.56 334.3,-773.69 328.52,-764.7"/>
<polygon fill="#1414ce" stroke="#1414ce" points="331.35,-762.62 323,-756.1 325.46,-766.41 331.35,-762.62"/>
</a>
</g>
</g>
<!-- 4 -->
<g id="node26" class="node">
<title>4</title>
<g id="a_node26"><a xlink:title="globalcontext.h">
<polygon fill="#ffffff" stroke="black" points="480.5,-612 353.5,-612 353.5,-576 480.5,-576 480.5,-612"/>
<text text-anchor="middle" x="417" y="-590.3" font-family="Times,serif" font-size="14.00">globalcontext.h</text>
</a>
</g>
</g>
<!-- 33&#45;&gt;4 -->
<g id="edge5" class="edge">
<title>33&#45;&gt;4</title>
<g id="a_edge5"><a xlink:title="include">
<path fill="none" stroke="#1414ce" d="M369.71,-791.69C376.43,-781.72 384.26,-768.69 389,-756 405.78,-711.11 412.6,-655.37 415.31,-622.64"/>
<polygon fill="#1414ce" stroke="#1414ce" points="418.81,-622.7 416.08,-612.47 411.83,-622.18 418.81,-622.7"/>
</a>
</g>
</g>
<!-- 6 -->
<g id="node4" class="node">
<title>6</title>
<g id="a_node4"><a xlink:title="atom.h">
<polygon fill="#ffffff" stroke="black" points="1354,-396 1288,-396 1288,-360 1354,-360 1354,-396"/>
<text text-anchor="middle" x="1321" y="-374.3" font-family="Times,serif" font-size="14.00">atom.h</text>
</a>
</g>
</g>
<!-- 5 -->
<g id="node9" class="node">
<title>5</title>
<g id="a_node9"><a xlink:title="stdint.h">
<polygon fill="#ffffff" stroke="black" points="596,-36 524,-36 524,0 596,0 596,-36"/>
<text text-anchor="middle" x="560" y="-14.3" font-family="Times,serif" font-size="14.00">stdint.h</text>
</a>
</g>
</g>
<!-- 6&#45;&gt;5 -->
<g id="edge7" class="edge">
<title>6&#45;&gt;5</title>
<g id="a_edge7"><a xlink:title="include">
<path fill="none" stroke="#1414ce" d="M1334.39,-359.82C1358.96,-327.09 1410.42,-252.55 1429,-180 1441.7,-130.41 1432.27,-99.35 1389,-72 1322.76,-30.12 771.41,-21.15 606.45,-19.4"/>
<polygon fill="#1414ce" stroke="#1414ce" points="606.18,-15.89 596.15,-19.29 606.11,-22.89 606.18,-15.89"/>
</a>
</g>
</g>
<!-- 6&#45;&gt;7 -->
<g id="edge8" class="edge">
<title>6&#45;&gt;7</title>
<g id="a_edge8"><a xlink:title="include">
<path fill="none" stroke="#1414ce" d="M1319.28,-359.91C1315.42,-328.66 1303.66,-261.37 1271,-216 1237.2,-169.05 1180.22,-133.15 1140.49,-112.11"/>
<polygon fill="#1414ce" stroke="#1414ce" points="1142.03,-108.97 1131.54,-107.47 1138.8,-115.18 1142.03,-108.97"/>
</a>
</g>
</g>
<!-- 15 -->
<g id="node5" class="node">
<title>15</title>
<g id="a_node5"><a xlink:title="assert.h">
<polygon fill="#ffffff" stroke="black" points="1354,-36 1280,-36 1280,0 1354,0 1354,-36"/>
<text text-anchor="middle" x="1317" y="-14.3" font-family="Times,serif" font-size="14.00">assert.h</text>
</a>
</g>
</g>
<!-- 10 -->
<g id="node6" class="node">
<title>10</title>
<g id="a_node6"><a xlink:title="utils.h">
<polygon fill="#ffffff" stroke="black" points="1084,-180 1022,-180 1022,-144 1084,-144 1084,-180"/>
<text text-anchor="middle" x="1053" y="-158.3" font-family="Times,serif" font-size="14.00">utils.h</text>
</a>
</g>
</g>
<!-- 10&#45;&gt;7 -->
<g id="edge11" class="edge">
<title>10&#45;&gt;7</title>
<g id="a_edge11"><a xlink:title="include">
<path fill="none" stroke="#1414ce" d="M1063.63,-143.7C1068.63,-135.56 1074.69,-125.69 1080.21,-116.7"/>
<polygon fill="#1414ce" stroke="#1414ce" points="1083.24,-118.46 1085.49,-108.1 1077.28,-114.79 1083.24,-118.46"/>
</a>
</g>
</g>
<!-- 11 -->
<g id="node17" class="node">
<title>11</title>
<g id="a_node17"><a xlink:title="stddef.h">
<polygon fill="#ffffff" stroke="black" points="174,-108 100,-108 100,-72 174,-72 174,-108"/>
<text text-anchor="middle" x="137" y="-86.3" font-family="Times,serif" font-size="14.00">stddef.h</text>
</a>
</g>
</g>
<!-- 10&#45;&gt;11 -->
<g id="edge9" class="edge">
<title>10&#45;&gt;11</title>
<g id="a_edge9"><a xlink:title="include">
<path fill="none" stroke="#1414ce" d="M1022,-158.63C886.76,-148.3 347.9,-107.12 184.33,-94.62"/>
<polygon fill="#1414ce" stroke="#1414ce" points="184.34,-91.11 174.1,-93.84 183.81,-98.09 184.34,-91.11"/>
</a>
</g>
</g>
<!-- 12 -->
<g id="node32" class="node">
<title>12</title>
<g id="a_node32"><a xlink:title="stdio.h">
<polygon fill="#ffffff" stroke="black" points="1026.5,-108 961.5,-108 961.5,-72 1026.5,-72 1026.5,-108"/>
<text text-anchor="middle" x="994" y="-86.3" font-family="Times,serif" font-size="14.00">stdio.h</text>
</a>
</g>
</g>
<!-- 10&#45;&gt;12 -->
<g id="edge10" class="edge">
<title>10&#45;&gt;12</title>
<g id="a_edge10"><a xlink:title="include">
<path fill="none" stroke="#1414ce" d="M1038.42,-143.7C1031.34,-135.3 1022.72,-125.07 1014.95,-115.86"/>
<polygon fill="#1414ce" stroke="#1414ce" points="1017.54,-113.49 1008.42,-108.1 1012.19,-118.01 1017.54,-113.49"/>
</a>
</g>
</g>
<!-- 20 -->
<g id="node7" class="node">
<title>20</title>
<g id="a_node7"><a xlink:title="synclist.h">
<polygon fill="#ffffff" stroke="black" points="457.5,-252 372.5,-252 372.5,-216 457.5,-216 457.5,-252"/>
<text text-anchor="middle" x="415" y="-230.3" font-family="Times,serif" font-size="14.00">synclist.h</text>
</a>
</g>
</g>
<!-- 20&#45;&gt;19 -->
<g id="edge13" class="edge">
<title>20&#45;&gt;19</title>
<g id="a_edge13"><a xlink:title="include">
<path fill="none" stroke="#1414ce" d="M432.55,-215.7C441.23,-207.14 451.86,-196.66 461.35,-187.3"/>
<polygon fill="#1414ce" stroke="#1414ce" points="463.99,-189.62 468.65,-180.1 459.07,-184.63 463.99,-189.62"/>
</a>
</g>
</g>
<!-- 21 -->
<g id="node27" class="node">
<title>21</title>
<g id="a_node27"><a xlink:title="smp.h">
<polygon fill="#ffffff" stroke="black" points="413,-180 353,-180 353,-144 413,-144 413,-180"/>
<text text-anchor="middle" x="383" y="-158.3" font-family="Times,serif" font-size="14.00">smp.h</text>
</a>
</g>
</g>
<!-- 20&#45;&gt;21 -->
<g id="edge14" class="edge">
<title>20&#45;&gt;21</title>
<g id="a_edge14"><a xlink:title="include">
<path fill="none" stroke="#1414ce" d="M407.09,-215.7C403.45,-207.73 399.05,-198.1 395.01,-189.26"/>
<polygon fill="#1414ce" stroke="#1414ce" points="398.16,-187.74 390.82,-180.1 391.79,-190.65 398.16,-187.74"/>
</a>
</g>
</g>
<!-- 20&#45;&gt;12 -->
<g id="edge12" class="edge">
<title>20&#45;&gt;12</title>
<g id="a_edge12"><a xlink:title="include">
<path fill="none" stroke="#1414ce" d="M457.58,-222.56C564.72,-196.28 844.58,-127.64 951.57,-101.41"/>
<polygon fill="#1414ce" stroke="#1414ce" points="952.49,-104.78 961.37,-99 950.83,-97.98 952.49,-104.78"/>
</a>
</g>
</g>
<!-- 19&#45;&gt;9 -->
<g id="edge15" class="edge">
<title>19&#45;&gt;9</title>
<g id="a_edge15"><a xlink:title="include">
<path fill="none" stroke="#1414ce" d="M513.34,-150.37C540.19,-139.93 581.82,-123.74 614.83,-110.9"/>
<polygon fill="#1414ce" stroke="#1414ce" points="616.28,-114.09 624.33,-107.21 613.74,-107.57 616.28,-114.09"/>
</a>
</g>
</g>
<!-- 3 -->
<g id="node11" class="node">
<title>3</title>
<g id="a_node11"><a xlink:title="context.h">
<polygon fill="#ffffff" stroke="black" points="558.5,-684 475.5,-684 475.5,-648 558.5,-648 558.5,-684"/>
<text text-anchor="middle" x="517" y="-662.3" font-family="Times,serif" font-size="14.00">context.h</text>
</a>
</g>
</g>
<!-- 3&#45;&gt;19 -->
<g id="edge17" class="edge">
<title>3&#45;&gt;19</title>
<g id="a_edge17"><a xlink:title="include">
<path fill="none" stroke="#1414ce" d="M475.41,-664.86C434.96,-662.27 375.18,-651.42 344,-612 284.33,-536.54 333.11,-492.15 330,-396 327.41,-315.89 290.23,-278.02 341,-216 348.16,-207.26 408.78,-187.04 449.34,-174.26"/>
<polygon fill="#1414ce" stroke="#1414ce" points="450.42,-177.59 458.92,-171.26 448.33,-170.91 450.42,-177.59"/>
</a>
</g>
</g>
<!-- 22 -->
<g id="node16" class="node">
<title>22</title>
<g id="a_node16"><a xlink:title="term.h">
<polygon fill="#ffffff" stroke="black" points="1026.5,-468 961.5,-468 961.5,-432 1026.5,-432 1026.5,-468"/>
<text text-anchor="middle" x="994" y="-446.3" font-family="Times,serif" font-size="14.00">term.h</text>
</a>
</g>
</g>
<!-- 3&#45;&gt;22 -->
<g id="edge20" class="edge">
<title>3&#45;&gt;22</title>
<g id="a_edge20"><a xlink:title="include">
<path fill="none" stroke="#1414ce" d="M555.23,-647.85C643.41,-608.29 860.51,-510.89 952.13,-469.79"/>
<polygon fill="#1414ce" stroke="#1414ce" points="953.68,-472.93 961.37,-465.64 950.81,-466.54 953.68,-472.93"/>
</a>
</g>
</g>
<!-- 3&#45;&gt;4 -->
<g id="edge16" class="edge">
<title>3&#45;&gt;4</title>
<g id="a_edge16"><a xlink:title="include">
<path fill="none" stroke="#1414ce" d="M492.54,-647.88C479.7,-638.89 463.8,-627.76 449.91,-618.03"/>
<polygon fill="#1414ce" stroke="#1414ce" points="451.76,-615.06 441.56,-612.19 447.74,-620.79 451.76,-615.06"/>
</a>
</g>
</g>
<!-- 3&#45;&gt;21 -->
<g id="edge19" class="edge">
<title>3&#45;&gt;21</title>
<g id="a_edge19"><a xlink:title="include">
<path fill="none" stroke="#1414ce" d="M475.46,-659.24C423.77,-651.2 339.76,-634.97 319,-612 200.55,-480.95 194.03,-367.42 285,-216 297.7,-194.86 322.05,-181.64 343.3,-173.68"/>
<polygon fill="#1414ce" stroke="#1414ce" points="344.49,-176.97 352.79,-170.39 342.2,-170.36 344.49,-176.97"/>
</a>
</g>
</g>
<!-- 29 -->
<g id="node30" class="node">
<title>29</title>
<g id="a_node30"><a xlink:title="timer_list.h">
<polygon fill="#ffffff" stroke="black" points="202,-252 104,-252 104,-216 202,-216 202,-252"/>
<text text-anchor="middle" x="153" y="-230.3" font-family="Times,serif" font-size="14.00">timer_list.h</text>
</a>
</g>
</g>
<!-- 3&#45;&gt;29 -->
<g id="edge21" class="edge">
<title>3&#45;&gt;29</title>
<g id="a_edge21"><a xlink:title="include">
<path fill="none" stroke="#1414ce" d="M475.37,-665.72C377.21,-666.53 135.11,-663.16 76,-612 45.02,-585.19 52,-563.97 52,-523 52,-523 52,-523 52,-377 52,-328.19 92.11,-284.51 121.78,-258.87"/>
<polygon fill="#1414ce" stroke="#1414ce" points="124.41,-261.23 129.83,-252.13 119.91,-255.87 124.41,-261.23"/>
</a>
</g>
</g>
<!-- 28 -->
<g id="node31" class="node">
<title>28</title>
<g id="a_node31"><a xlink:title="mailbox.h">
<polygon fill="#ffffff" stroke="black" points="676,-252 590,-252 590,-216 676,-216 676,-252"/>
<text text-anchor="middle" x="633" y="-230.3" font-family="Times,serif" font-size="14.00">mailbox.h</text>
</a>
</g>
</g>
<!-- 3&#45;&gt;28 -->
<g id="edge18" class="edge">
<title>3&#45;&gt;28</title>
<g id="a_edge18"><a xlink:title="include">
<path fill="none" stroke="#1414ce" d="M515.42,-647.97C513.09,-621.33 509,-568.19 509,-523 509,-523 509,-523 509,-449 509,-371.83 529.71,-351.19 574,-288 581.61,-277.15 591.84,-266.96 601.64,-258.48"/>
<polygon fill="#1414ce" stroke="#1414ce" points="603.91,-261.14 609.35,-252.06 599.43,-255.76 603.91,-261.14"/>
</a>
</g>
</g>
<!-- 25 -->
<g id="node12" class="node">
<title>25</title>
<g id="a_node12"><a xlink:title="memory.h">
<polygon fill="#ffffff" stroke="black" points="1262,-252 1176,-252 1176,-216 1262,-216 1262,-252"/>
<text text-anchor="middle" x="1219" y="-230.3" font-family="Times,serif" font-size="14.00">memory.h</text>
</a>
</g>
</g>
<!-- 25&#45;&gt;10 -->
<g id="edge26" class="edge">
<title>25&#45;&gt;10</title>
<g id="a_edge26"><a xlink:title="include">
<path fill="none" stroke="#1414ce" d="M1178.39,-215.88C1152.6,-205 1119.35,-190.98 1093.57,-180.11"/>
<polygon fill="#1414ce" stroke="#1414ce" points="1094.66,-176.77 1084.09,-176.11 1091.94,-183.22 1094.66,-176.77"/>
</a>
</g>
</g>
<!-- 25&#45;&gt;5 -->
<g id="edge22" class="edge">
<title>25&#45;&gt;5</title>
<g id="a_edge22"><a xlink:title="include">
<path fill="none" stroke="#1414ce" d="M1216.31,-215.8C1209.99,-181.84 1190.8,-106.46 1141,-72 1097.36,-41.8 735.79,-25.53 606.09,-20.62"/>
<polygon fill="#1414ce" stroke="#1414ce" points="606.19,-17.12 596.07,-20.24 605.93,-24.11 606.19,-17.12"/>
</a>
</g>
</g>
<!-- 25&#45;&gt;7 -->
<g id="edge23" class="edge">
<title>25&#45;&gt;7</title>
<g id="a_edge23"><a xlink:title="include">
<path fill="none" stroke="#1414ce" d="M1204.16,-215.87C1182.55,-190.92 1142.3,-144.45 1117.46,-115.77"/>
<polygon fill="#1414ce" stroke="#1414ce" points="1120.08,-113.46 1110.89,-108.19 1114.79,-118.04 1120.08,-113.46"/>
</a>
</g>
</g>
<!-- 13 -->
<g id="node18" class="node">
<title>13</title>
<g id="a_node18"><a xlink:title="erl_nif.h">
<polygon fill="#ffffff" stroke="black" points="1404,-180 1330,-180 1330,-144 1404,-144 1404,-180"/>
<text text-anchor="middle" x="1367" y="-158.3" font-family="Times,serif" font-size="14.00">erl_nif.h</text>
</a>
</g>
</g>
<!-- 25&#45;&gt;13 -->
<g id="edge24" class="edge">
<title>25&#45;&gt;13</title>
<g id="a_edge24"><a xlink:title="include">
<path fill="none" stroke="#1414ce" d="M1255.2,-215.88C1275.26,-206.39 1300.37,-194.51 1321.71,-184.42"/>
<polygon fill="#1414ce" stroke="#1414ce" points="1323.37,-187.51 1330.91,-180.07 1320.38,-181.18 1323.37,-187.51"/>
</a>
</g>
</g>
<!-- 14 -->
<g id="node25" class="node">
<title>14</title>
<g id="a_node25"><a xlink:title="term_typedef.h">
<polygon fill="#ffffff" stroke="black" points="1379.5,-108 1254.5,-108 1254.5,-72 1379.5,-72 1379.5,-108"/>
<text text-anchor="middle" x="1317" y="-86.3" font-family="Times,serif" font-size="14.00">term_typedef.h</text>
</a>
</g>
</g>
<!-- 25&#45;&gt;14 -->
<g id="edge25" class="edge">
<title>25&#45;&gt;14</title>
<g id="a_edge25"><a xlink:title="include">
<path fill="none" stroke="#1414ce" d="M1230.82,-215.87C1247.89,-191.14 1279.57,-145.24 1299.39,-116.51"/>
<polygon fill="#1414ce" stroke="#1414ce" points="1302.34,-118.41 1305.14,-108.19 1296.58,-114.43 1302.34,-118.41"/>
</a>
</g>
</g>
<!-- 31 -->
<g id="node13" class="node">
<title>31</title>
<g id="a_node13"><a xlink:title="module.h">
<polygon fill="#ffffff" stroke="black" points="790.5,-756 707.5,-756 707.5,-720 790.5,-720 790.5,-756"/>
<text text-anchor="middle" x="749" y="-734.3" font-family="Times,serif" font-size="14.00">module.h</text>
</a>
</g>
</g>
<!-- 31&#45;&gt;9 -->
<g id="edge27" class="edge">
<title>31&#45;&gt;9</title>
<g id="a_edge27"><a xlink:title="include">
<path fill="none" stroke="#1414ce" d="M749,-719.95C749,-693.29 749,-640.11 749,-595 749,-595 749,-595 749,-449 749,-377.17 768.44,-359.62 763,-288 760.55,-255.72 759.79,-247.42 752,-216 743.85,-183.12 745.98,-172.06 727,-144 719.56,-133 709.27,-122.88 699.27,-114.51"/>
<polygon fill="#1414ce" stroke="#1414ce" points="701.36,-111.7 691.37,-108.18 696.98,-117.16 701.36,-111.7"/>
</a>
</g>
</g>
<!-- 31&#45;&gt;6 -->
<g id="edge29" class="edge">
<title>31&#45;&gt;6</title>
<g id="a_edge29"><a xlink:title="include">
<path fill="none" stroke="#1414ce" d="M790.87,-735.32C920.4,-729.01 1306,-701.28 1306,-595 1306,-595 1306,-595 1306,-521 1306,-480.99 1311.96,-435 1316.37,-406.46"/>
<polygon fill="#1414ce" stroke="#1414ce" points="1319.85,-406.85 1317.96,-396.43 1312.94,-405.75 1319.85,-406.85"/>
</a>
</g>
</g>
<!-- 31&#45;&gt;5 -->
<g id="edge28" class="edge">
<title>31&#45;&gt;5</title>
<g id="a_edge28"><a xlink:title="include">
<path fill="none" stroke="#1414ce" d="M707.39,-733.57C550.02,-720.04 0,-667.59 0,-595 0,-595 0,-595 0,-161 0,-108.4 31.36,-96.3 78,-72 153.14,-32.85 408.13,-22.5 513.67,-19.86"/>
<polygon fill="#1414ce" stroke="#1414ce" points="513.79,-23.36 523.71,-19.62 513.63,-16.36 513.79,-23.36"/>
</a>
</g>
</g>
<!-- 31&#45;&gt;3 -->
<g id="edge31" class="edge">
<title>31&#45;&gt;3</title>
<g id="a_edge31"><a xlink:title="include">
<path fill="none" stroke="#1414ce" d="M707.26,-724.4C668.37,-712.67 610.27,-695.14 568.51,-682.54"/>
<polygon fill="#1414ce" stroke="#1414ce" points="569.39,-679.15 558.8,-679.61 567.36,-685.85 569.39,-679.15"/>
</a>
</g>
</g>
<!-- 31&#45;&gt;22 -->
<g id="edge34" class="edge">
<title>31&#45;&gt;22</title>
<g id="a_edge34"><a xlink:title="include">
<path fill="none" stroke="#1414ce" d="M790.59,-723.92C839.08,-706.43 917.95,-670.65 960,-612 988.69,-571.99 994.16,-512.88 994.67,-478.52"/>
<polygon fill="#1414ce" stroke="#1414ce" points="998.17,-478.3 994.69,-468.29 991.17,-478.29 998.17,-478.3"/>
</a>
</g>
</g>
<!-- 32 -->
<g id="node19" class="node">
<title>32</title>
<g id="a_node19"><a xlink:title="exportedfunction.h">
<polygon fill="#ffffff" stroke="black" points="951,-612 799,-612 799,-576 951,-576 951,-612"/>
<text text-anchor="middle" x="875" y="-590.3" font-family="Times,serif" font-size="14.00">exportedfunction.h</text>
</a>
</g>
</g>
<!-- 31&#45;&gt;32 -->
<g id="edge32" class="edge">
<title>31&#45;&gt;32</title>
<g id="a_edge32"><a xlink:title="include">
<path fill="none" stroke="#1414ce" d="M764.2,-719.87C786.34,-694.92 827.57,-648.45 853.02,-619.77"/>
<polygon fill="#1414ce" stroke="#1414ce" points="855.73,-621.99 859.75,-612.19 850.49,-617.35 855.73,-621.99"/>
</a>
</g>
</g>
<!-- 8 -->
<g id="node22" class="node">
<title>8</title>
<g id="a_node22"><a xlink:title="atom_table.h">
<polygon fill="#ffffff" stroke="black" points="1157.5,-468 1048.5,-468 1048.5,-432 1157.5,-432 1157.5,-468"/>
<text text-anchor="middle" x="1103" y="-446.3" font-family="Times,serif" font-size="14.00">atom_table.h</text>
</a>
</g>
</g>
<!-- 31&#45;&gt;8 -->
<g id="edge30" class="edge">
<title>31&#45;&gt;8</title>
<g id="a_edge30"><a xlink:title="include">
<path fill="none" stroke="#1414ce" d="M790.65,-729.96C826.06,-722.59 877.19,-708.57 916,-684 1000.23,-630.68 1063.38,-526.1 1089.64,-477.28"/>
<polygon fill="#1414ce" stroke="#1414ce" points="1092.81,-478.76 1094.39,-468.29 1086.62,-475.49 1092.81,-478.76"/>
</a>
</g>
</g>
<!-- 31&#45;&gt;4 -->
<g id="edge33" class="edge">
<title>31&#45;&gt;4</title>
<g id="a_edge33"><a xlink:title="include">
<path fill="none" stroke="#1414ce" d="M716.97,-719.94C681.02,-701.12 620.68,-670.52 567,-648 538.76,-636.15 506.84,-624.62 479.73,-615.36"/>
<polygon fill="#1414ce" stroke="#1414ce" points="480.57,-611.95 469.98,-612.06 478.32,-618.58 480.57,-611.95"/>
</a>
</g>
</g>
<!-- 30 -->
<g id="node14" class="node">
<title>30</title>
<g id="a_node14"><a xlink:title="valueshashtable.h">
<polygon fill="#ffffff" stroke="black" points="174,-180 28,-180 28,-144 174,-144 174,-180"/>
<text text-anchor="middle" x="101" y="-158.3" font-family="Times,serif" font-size="14.00">valueshashtable.h</text>
</a>
</g>
</g>
<!-- 30&#45;&gt;5 -->
<g id="edge36" class="edge">
<title>30&#45;&gt;5</title>
<g id="a_edge36"><a xlink:title="include">
<path fill="none" stroke="#1414ce" d="M92.25,-143.94C83.46,-124.11 73.49,-91.6 91,-72 118.89,-40.78 401.15,-25.63 513.87,-20.79"/>
<polygon fill="#1414ce" stroke="#1414ce" points="514.07,-24.28 523.92,-20.36 513.78,-17.29 514.07,-24.28"/>
</a>
</g>
</g>
<!-- 30&#45;&gt;11 -->
<g id="edge35" class="edge">
<title>30&#45;&gt;11</title>
<g id="a_edge35"><a xlink:title="include">
<path fill="none" stroke="#1414ce" d="M109.9,-143.7C114,-135.73 118.95,-126.1 123.49,-117.26"/>
<polygon fill="#1414ce" stroke="#1414ce" points="126.74,-118.6 128.2,-108.1 120.52,-115.4 126.74,-118.6"/>
</a>
</g>
</g>
<!-- 27&#45;&gt;20 -->
<g id="edge42" class="edge">
<title>27&#45;&gt;20</title>
<g id="a_edge42"><a xlink:title="include">
<path fill="none" stroke="#1414ce" d="M637.93,-292.16C589.54,-279.75 516.54,-261.04 467.38,-248.43"/>
<polygon fill="#1414ce" stroke="#1414ce" points="468.14,-245.01 457.58,-245.92 466.4,-251.79 468.14,-245.01"/>
</a>
</g>
</g>
<!-- 27&#45;&gt;19 -->
<g id="edge39" class="edge">
<title>27&#45;&gt;19</title>
<g id="a_edge39"><a xlink:title="include">
<path fill="none" stroke="#1414ce" d="M646.54,-287.91C626.02,-278.6 601.36,-266.12 581,-252 566.32,-241.82 533.53,-210.26 510.6,-187.62"/>
<polygon fill="#1414ce" stroke="#1414ce" points="512.81,-184.88 503.25,-180.32 507.88,-189.85 512.81,-184.88"/>
</a>
</g>
</g>
<!-- 27&#45;&gt;7 -->
<g id="edge37" class="edge">
<title>27&#45;&gt;7</title>
<g id="a_edge37"><a xlink:title="include">
<path fill="none" stroke="#1414ce" d="M710.75,-287.99C753.95,-256.28 851.66,-187.44 942,-144 977.18,-127.08 1019.2,-113 1050.46,-103.61"/>
<polygon fill="#1414ce" stroke="#1414ce" points="1051.61,-106.92 1060.21,-100.73 1049.62,-100.21 1051.61,-106.92"/>
</a>
</g>
</g>
<!-- 27&#45;&gt;25 -->
<g id="edge41" class="edge">
<title>27&#45;&gt;25</title>
<g id="a_edge41"><a xlink:title="include">
<path fill="none" stroke="#1414ce" d="M738.43,-298.35C838.8,-285.12 1062.7,-255.6 1165.52,-242.05"/>
<polygon fill="#1414ce" stroke="#1414ce" points="1166.21,-245.49 1175.67,-240.71 1165.3,-238.55 1166.21,-245.49"/>
</a>
</g>
</g>
<!-- 27&#45;&gt;13 -->
<g id="edge38" class="edge">
<title>27&#45;&gt;13</title>
<g id="a_edge38"><a xlink:title="include">
<path fill="none" stroke="#1414ce" d="M738.22,-304.56C861.55,-302.82 1176.19,-294.24 1271,-252 1302.52,-237.96 1330.43,-209.26 1347.91,-188.24"/>
<polygon fill="#1414ce" stroke="#1414ce" points="1350.74,-190.3 1354.31,-180.32 1345.3,-185.9 1350.74,-190.3"/>
</a>
</g>
</g>
<!-- 27&#45;&gt;28 -->
<g id="edge40" class="edge">
<title>27&#45;&gt;28</title>
<g id="a_edge40"><a xlink:title="include">
<path fill="none" stroke="#1414ce" d="M674.4,-287.7C667.88,-279.39 659.93,-269.28 652.75,-260.14"/>
<polygon fill="#1414ce" stroke="#1414ce" points="655.37,-257.81 646.44,-252.1 649.87,-262.13 655.37,-257.81"/>
</a>
</g>
</g>
<!-- 22&#45;&gt;9 -->
<g id="edge44" class="edge">
<title>22&#45;&gt;9</title>
<g id="a_edge44"><a xlink:title="include">
<path fill="none" stroke="#1414ce" d="M961.44,-446.99C871.98,-441.16 627.46,-422.86 604,-396 582.25,-371.09 621.53,-297.49 629,-288 647.3,-264.75 670.82,-277.97 685,-252 708.22,-209.46 691.61,-151.31 678.24,-117.79"/>
<polygon fill="#1414ce" stroke="#1414ce" points="681.33,-116.1 674.25,-108.23 674.87,-118.8 681.33,-116.1"/>
</a>
</g>
</g>
<!-- 22&#45;&gt;26 -->
<g id="edge51" class="edge">
<title>22&#45;&gt;26</title>
<g id="a_edge51"><a xlink:title="include">
<path fill="none" stroke="#1414ce" d="M961.45,-442.03C907.95,-430.58 800.44,-407.57 731.2,-392.74"/>
<polygon fill="#1414ce" stroke="#1414ce" points="731.78,-389.29 721.27,-390.62 730.32,-396.13 731.78,-389.29"/>
</a>
</g>
</g>
<!-- 22&#45;&gt;6 -->
<g id="edge49" class="edge">
<title>22&#45;&gt;6</title>
<g id="a_edge49"><a xlink:title="include">
<path fill="none" stroke="#1414ce" d="M1026.66,-436.02C1031.1,-434.52 1035.63,-433.13 1040,-432 1141.87,-405.63 1172.04,-422.02 1274,-396 1275.42,-395.64 1276.85,-395.25 1278.3,-394.84"/>
<polygon fill="#1414ce" stroke="#1414ce" points="1279.35,-398.18 1287.87,-391.89 1277.28,-391.49 1279.35,-398.18"/>
</a>
</g>
</g>
<!-- 22&#45;&gt;10 -->
<g id="edge52" class="edge">
<title>22&#45;&gt;10</title>
<g id="a_edge52"><a xlink:title="include">
<path fill="none" stroke="#1414ce" d="M1017.57,-431.83C1028.33,-422.56 1039.98,-410.11 1046,-396 1075.53,-326.72 1065.83,-235.05 1058.33,-190.14"/>
<polygon fill="#1414ce" stroke="#1414ce" points="1061.77,-189.52 1056.59,-180.28 1054.88,-190.74 1061.77,-189.52"/>
</a>
</g>
</g>
<!-- 22&#45;&gt;5 -->
<g id="edge45" class="edge">
<title>22&#45;&gt;5</title>
<g id="a_edge45"><a xlink:title="include">
<path fill="none" stroke="#1414ce" d="M991.5,-431.98C988.57,-413.85 983.08,-384.45 975,-360 955.85,-302.02 918,-296.06 918,-235 918,-235 918,-235 918,-161 918,-94.71 703.25,-45.92 606.4,-27.29"/>
<polygon fill="#1414ce" stroke="#1414ce" points="606.77,-23.8 596.3,-25.38 605.47,-30.68 606.77,-23.8"/>
</a>
</g>
</g>
<!-- 22&#45;&gt;7 -->
<g id="edge47" class="edge">
<title>22&#45;&gt;7</title>
<g id="a_edge47"><a xlink:title="include">
<path fill="none" stroke="#1414ce" d="M1026.69,-431.88C1040.57,-422.98 1055.67,-410.85 1065,-396 1120.71,-307.29 1109.08,-174.71 1100.73,-118.14"/>
<polygon fill="#1414ce" stroke="#1414ce" points="1104.18,-117.53 1099.17,-108.19 1097.26,-118.61 1104.18,-117.53"/>
</a>
</g>
</g>
<!-- 22&#45;&gt;25 -->
<g id="edge50" class="edge">
<title>22&#45;&gt;25</title>
<g id="a_edge50"><a xlink:title="include">
<path fill="none" stroke="#1414ce" d="M1026.58,-436.67C1031.07,-435.06 1035.64,-433.46 1040,-432 1092.81,-414.34 1119.47,-434.18 1160,-396 1198,-360.21 1211.62,-297.91 1216.44,-262.21"/>
<polygon fill="#1414ce" stroke="#1414ce" points="1219.94,-262.39 1217.66,-252.04 1212.99,-261.55 1219.94,-262.39"/>
</a>
</g>
</g>
<!-- 23 -->
<g id="node23" class="node">
<title>23</title>
<g id="a_node23"><a xlink:title="sys/types.h">
<polygon fill="#ffffff" stroke="black" points="874.5,-396 777.5,-396 777.5,-360 874.5,-360 874.5,-396"/>
<text text-anchor="middle" x="826" y="-374.3" font-family="Times,serif" font-size="14.00">sys/types.h</text>
</a>
</g>
</g>
<!-- 22&#45;&gt;23 -->
<g id="edge43" class="edge">
<title>22&#45;&gt;23</title>
<g id="a_edge43"><a xlink:title="include">
<path fill="none" stroke="#1414ce" d="M961.21,-435.34C937.12,-425.3 903.95,-411.48 876.49,-400.04"/>
<polygon fill="#1414ce" stroke="#1414ce" points="877.62,-396.71 867.04,-396.1 874.92,-403.18 877.62,-396.71"/>
</a>
</g>
</g>
<!-- 24 -->
<g id="node24" class="node">
<title>24</title>
<g id="a_node24"><a xlink:title="string.h">
<polygon fill="#ffffff" stroke="black" points="965.5,-396 892.5,-396 892.5,-360 965.5,-360 965.5,-396"/>
<text text-anchor="middle" x="929" y="-374.3" font-family="Times,serif" font-size="14.00">string.h</text>
</a>
</g>
</g>
<!-- 22&#45;&gt;24 -->
<g id="edge48" class="edge">
<title>22&#45;&gt;24</title>
<g id="a_edge48"><a xlink:title="include">
<path fill="none" stroke="#1414ce" d="M977.93,-431.7C970.06,-423.22 960.44,-412.86 951.83,-403.58"/>
<polygon fill="#1414ce" stroke="#1414ce" points="954.25,-401.05 944.88,-396.1 949.12,-405.81 954.25,-401.05"/>
</a>
</g>
</g>
<!-- 22&#45;&gt;14 -->
<g id="edge53" class="edge">
<title>22&#45;&gt;14</title>
<g id="a_edge53"><a xlink:title="include">
<path fill="none" stroke="#1414ce" d="M1026.51,-436.47C1031.02,-434.89 1035.6,-433.35 1040,-432 1103.89,-412.39 1127.39,-428.11 1186,-396 1216.53,-379.27 1399.28,-212 1413,-180 1419.31,-165.3 1421.13,-157.78 1413,-144 1405.14,-130.69 1392.61,-120.48 1379.16,-112.76"/>
<polygon fill="#1414ce" stroke="#1414ce" points="1380.7,-109.62 1370.22,-108.04 1377.43,-115.81 1380.7,-109.62"/>
</a>
</g>
</g>
<!-- 22&#45;&gt;12 -->
<g id="edge46" class="edge">
<title>22&#45;&gt;12</title>
<g id="a_edge46"><a xlink:title="include">
<path fill="none" stroke="#1414ce" d="M999.82,-431.56C1002.93,-421.33 1006.43,-408.08 1008,-396 1010.06,-380.13 1008.42,-375.99 1008,-360 1005.7,-271.56 999.15,-166.92 995.89,-118.33"/>
<polygon fill="#1414ce" stroke="#1414ce" points="999.38,-118.04 995.21,-108.3 992.4,-118.51 999.38,-118.04"/>
</a>
</g>
</g>
<!-- 13&#45;&gt;14 -->
<g id="edge54" class="edge">
<title>13&#45;&gt;14</title>
<g id="a_edge54"><a xlink:title="include">
<path fill="none" stroke="#1414ce" d="M1354.64,-143.7C1348.77,-135.47 1341.63,-125.48 1335.16,-116.42"/>
<polygon fill="#1414ce" stroke="#1414ce" points="1337.88,-114.21 1329.22,-108.1 1332.18,-118.28 1337.88,-114.21"/>
</a>
</g>
</g>
<!-- 32&#45;&gt;22 -->
<g id="edge55" class="edge">
<title>32&#45;&gt;22</title>
<g id="a_edge55"><a xlink:title="include">
<path fill="none" stroke="#1414ce" d="M889.35,-575.87C910.17,-551.03 948.88,-504.85 972.93,-476.14"/>
<polygon fill="#1414ce" stroke="#1414ce" points="975.85,-478.1 979.59,-468.19 970.49,-473.61 975.85,-478.1"/>
</a>
</g>
</g>
<!-- 16 -->
<g id="node21" class="node">
<title>16</title>
<g id="a_node21"><a xlink:title="limits.h">
<polygon fill="#ffffff" stroke="black" points="1443.5,-36 1372.5,-36 1372.5,0 1443.5,0 1443.5,-36"/>
<text text-anchor="middle" x="1408" y="-14.3" font-family="Times,serif" font-size="14.00">limits.h</text>
</a>
</g>
</g>
<!-- 8&#45;&gt;9 -->
<g id="edge56" class="edge">
<title>8&#45;&gt;9</title>
<g id="a_edge56"><a xlink:title="include">
<path fill="none" stroke="#1414ce" d="M1091.55,-431.78C1056.65,-380.54 946.12,-227.47 818,-144 787.36,-124.04 748.34,-110.64 717.5,-102.31"/>
<polygon fill="#1414ce" stroke="#1414ce" points="718.36,-98.91 707.8,-99.78 716.59,-105.69 718.36,-98.91"/>
</a>
</g>
</g>
<!-- 8&#45;&gt;6 -->
<g id="edge57" class="edge">
<title>8&#45;&gt;6</title>
<g id="a_edge57"><a xlink:title="include">
<path fill="none" stroke="#1414ce" d="M1157.5,-432.81C1191.19,-422.63 1235.25,-409 1274,-396 1275.41,-395.53 1276.85,-395.04 1278.3,-394.54"/>
<polygon fill="#1414ce" stroke="#1414ce" points="1279.66,-397.77 1287.94,-391.17 1277.35,-391.17 1279.66,-397.77"/>
</a>
</g>
</g>
<!-- 8&#45;&gt;10 -->
<g id="edge58" class="edge">
<title>8&#45;&gt;10</title>
<g id="a_edge58"><a xlink:title="include">
<path fill="none" stroke="#1414ce" d="M1110.89,-431.75C1115.11,-421.58 1119.86,-408.33 1122,-396 1124.74,-380.24 1124.06,-375.87 1122,-360 1113.48,-294.36 1109.39,-277.13 1084,-216 1080.16,-206.75 1074.96,-197.14 1069.91,-188.69"/>
<polygon fill="#1414ce" stroke="#1414ce" points="1072.81,-186.72 1064.58,-180.05 1066.85,-190.4 1072.81,-186.72"/>
</a>
</g>
</g>
<!-- 14&#45;&gt;15 -->
<g id="edge59" class="edge">
<title>14&#45;&gt;15</title>
<g id="a_edge59"><a xlink:title="include">
<path fill="none" stroke="#1414ce" d="M1317,-71.7C1317,-63.98 1317,-54.71 1317,-46.11"/>
<polygon fill="#1414ce" stroke="#1414ce" points="1320.5,-46.1 1317,-36.1 1313.5,-46.1 1320.5,-46.1"/>
</a>
</g>
</g>
<!-- 14&#45;&gt;5 -->
<g id="edge62" class="edge">
<title>14&#45;&gt;5</title>
<g id="a_edge62"><a xlink:title="include">
<path fill="none" stroke="#1414ce" d="M1254.1,-74.36C1249.34,-73.49 1244.6,-72.68 1240,-72 1003.42,-36.84 716.85,-24.17 606.45,-20.39"/>
<polygon fill="#1414ce" stroke="#1414ce" points="606.43,-16.88 596.32,-20.05 606.2,-23.88 606.43,-16.88"/>
</a>
</g>
</g>
<!-- 14&#45;&gt;16 -->
<g id="edge60" class="edge">
<title>14&#45;&gt;16</title>
<g id="a_edge60"><a xlink:title="include">
<path fill="none" stroke="#1414ce" d="M1339.49,-71.7C1350.96,-62.88 1365.06,-52.03 1377.48,-42.47"/>
<polygon fill="#1414ce" stroke="#1414ce" points="1379.97,-44.98 1385.76,-36.1 1375.7,-39.43 1379.97,-44.98"/>
</a>
</g>
</g>
<!-- 17 -->
<g id="node34" class="node">
<title>17</title>
<g id="a_node34"><a xlink:title="inttypes.h">
<polygon fill="#ffffff" stroke="black" points="1261.5,-36 1172.5,-36 1172.5,0 1261.5,0 1261.5,-36"/>
<text text-anchor="middle" x="1217" y="-14.3" font-family="Times,serif" font-size="14.00">inttypes.h</text>
</a>
</g>
</g>
<!-- 14&#45;&gt;17 -->
<g id="edge61" class="edge">
<title>14&#45;&gt;17</title>
<g id="a_edge61"><a xlink:title="include">
<path fill="none" stroke="#1414ce" d="M1292.54,-71.88C1279.7,-62.89 1263.8,-51.76 1249.91,-42.03"/>
<polygon fill="#1414ce" stroke="#1414ce" points="1251.76,-39.06 1241.56,-36.19 1247.74,-44.79 1251.76,-39.06"/>
</a>
</g>
</g>
<!-- 4&#45;&gt;6 -->
<g id="edge64" class="edge">
<title>4&#45;&gt;6</title>
<g id="a_edge64"><a xlink:title="include">
<path fill="none" stroke="#1414ce" d="M480.79,-585.57C638.04,-566.75 1040.68,-515.31 1167,-468 1190.83,-459.08 1247.79,-424.76 1285.36,-401.44"/>
<polygon fill="#1414ce" stroke="#1414ce" points="1287.35,-404.33 1293.99,-396.07 1283.65,-398.38 1287.35,-404.33"/>
</a>
</g>
</g>
<!-- 4&#45;&gt;20 -->
<g id="edge71" class="edge">
<title>4&#45;&gt;20</title>
<g id="a_edge71"><a xlink:title="include">
<path fill="none" stroke="#1414ce" d="M409.92,-575.85C399.69,-549.49 382,-497.21 382,-451 382,-451 382,-451 382,-377 382,-335.97 395.23,-289.97 404.94,-261.74"/>
<polygon fill="#1414ce" stroke="#1414ce" points="408.28,-262.78 408.32,-252.19 401.68,-260.45 408.28,-262.78"/>
</a>
</g>
</g>
<!-- 4&#45;&gt;19 -->
<g id="edge68" class="edge">
<title>4&#45;&gt;19</title>
<g id="a_edge68"><a xlink:title="include">
<path fill="none" stroke="#1414ce" d="M401.16,-575.65C379.69,-550.27 344,-500.62 344,-451 344,-451 344,-451 344,-305 344,-264.55 337.34,-247.27 363,-216 374.46,-202.03 417.34,-185.49 449.27,-174.65"/>
<polygon fill="#1414ce" stroke="#1414ce" points="450.4,-177.96 458.78,-171.47 448.18,-171.32 450.4,-177.96"/>
</a>
</g>
</g>
<!-- 4&#45;&gt;5 -->
<g id="edge63" class="edge">
<title>4&#45;&gt;5</title>
<g id="a_edge63"><a xlink:title="include">
<path fill="none" stroke="#1414ce" d="M353.46,-577.08C305.11,-564.52 245.33,-547.86 236,-540 175.95,-489.4 51.23,-281.19 95,-216 118.55,-180.92 144.52,-197.46 183,-180 215.58,-165.22 222.42,-158.79 255,-144 345.82,-102.76 454.35,-59.73 514.38,-36.47"/>
<polygon fill="#1414ce" stroke="#1414ce" points="515.88,-39.64 523.94,-32.77 513.35,-33.11 515.88,-39.64"/>
</a>
</g>
</g>
<!-- 4&#45;&gt;30 -->
<g id="edge74" class="edge">
<title>4&#45;&gt;30</title>
<g id="a_edge74"><a xlink:title="include">
<path fill="none" stroke="#1414ce" d="M353.23,-584.56C295.08,-575.74 214.6,-560.34 190,-540 82.06,-450.73 91.08,-389.02 62,-252 58.68,-236.35 57.01,-231.2 62,-216 65.31,-205.91 71.37,-196.15 77.73,-187.82"/>
<polygon fill="#1414ce" stroke="#1414ce" points="80.5,-189.97 84.11,-180.01 75.08,-185.54 80.5,-189.97"/>
</a>
</g>
</g>
<!-- 4&#45;&gt;22 -->
<g id="edge72" class="edge">
<title>4&#45;&gt;22</title>
<g id="a_edge72"><a xlink:title="include">
<path fill="none" stroke="#1414ce" d="M465.22,-575.91C493.29,-565.79 529.29,-552.54 561,-540 599.15,-524.91 606.53,-515.18 646,-504 753.45,-473.58 884.8,-459.59 951.2,-454.06"/>
<polygon fill="#1414ce" stroke="#1414ce" points="951.6,-457.54 961.28,-453.25 951.03,-450.57 951.6,-457.54"/>
</a>
</g>
</g>
<!-- 4&#45;&gt;13 -->
<g id="edge66" class="edge">
<title>4&#45;&gt;13</title>
<g id="a_edge66"><a xlink:title="include">
<path fill="none" stroke="#1414ce" d="M480.55,-591.31C618.33,-585.88 953.13,-563.12 1214,-468 1283.1,-442.81 1323.38,-457.96 1363,-396 1403.95,-331.97 1386.95,-236.44 1375,-190.12"/>
<polygon fill="#1414ce" stroke="#1414ce" points="1378.32,-188.97 1372.33,-180.23 1371.56,-190.8 1378.32,-188.97"/>
</a>
</g>
</g>
<!-- 4&#45;&gt;8 -->
<g id="edge65" class="edge">
<title>4&#45;&gt;8</title>
<g id="a_edge65"><a xlink:title="include">
<path fill="none" stroke="#1414ce" d="M480.93,-581.16C593.49,-560.09 834.23,-513.94 1036,-468 1036.75,-467.83 1037.5,-467.66 1038.25,-467.48"/>
<polygon fill="#1414ce" stroke="#1414ce" points="1039.28,-470.84 1048.21,-465.14 1037.67,-464.03 1039.28,-470.84"/>
</a>
</g>
</g>
<!-- 4&#45;&gt;21 -->
<g id="edge70" class="edge">
<title>4&#45;&gt;21</title>
<g id="a_edge70"><a xlink:title="include">
<path fill="none" stroke="#1414ce" d="M372.94,-575.91C356.91,-567.49 340.23,-555.71 330,-540 259.52,-431.82 300.46,-380.83 292,-252 290.95,-236.03 284.03,-229.87 292,-216 303.07,-196.75 324.12,-183.83 343.19,-175.57"/>
<polygon fill="#1414ce" stroke="#1414ce" points="344.66,-178.76 352.63,-171.78 342.05,-172.26 344.66,-178.76"/>
</a>
</g>
</g>
<!-- 4&#45;&gt;29 -->
<g id="edge73" class="edge">
<title>4&#45;&gt;29</title>
<g id="a_edge73"><a xlink:title="include">
<path fill="none" stroke="#1414ce" d="M353.3,-584.58C323.04,-577.45 288.64,-564.29 266,-540 186.83,-455.05 250.63,-391 197,-288 191.81,-278.03 184.5,-268.24 177.33,-259.84"/>
<polygon fill="#1414ce" stroke="#1414ce" points="179.83,-257.39 170.57,-252.25 174.61,-262.05 179.83,-257.39"/>
</a>
</g>
</g>
<!-- 4&#45;&gt;28 -->
<g id="edge69" class="edge">
<title>4&#45;&gt;28</title>
<g id="a_edge69"><a xlink:title="include">
<path fill="none" stroke="#1414ce" d="M442.77,-575.89C455.51,-566.46 470.39,-553.86 481,-540 555.86,-442.26 534.96,-394.91 596,-288 601.34,-278.64 607.88,-268.85 613.97,-260.27"/>
<polygon fill="#1414ce" stroke="#1414ce" points="616.82,-262.3 619.84,-252.14 611.14,-258.2 616.82,-262.3"/>
</a>
</g>
</g>
<!-- 18 -->
<g id="node33" class="node">
<title>18</title>
<g id="a_node33"><a xlink:title="ets.h">
<polygon fill="#ffffff" stroke="black" points="472,-540 418,-540 418,-504 472,-504 472,-540"/>
<text text-anchor="middle" x="445" y="-518.3" font-family="Times,serif" font-size="14.00">ets.h</text>
</a>
</g>
</g>
<!-- 4&#45;&gt;18 -->
<g id="edge67" class="edge">
<title>4&#45;&gt;18</title>
<g id="a_edge67"><a xlink:title="include">
<path fill="none" stroke="#1414ce" d="M423.92,-575.7C427.07,-567.81 430.88,-558.3 434.38,-549.55"/>
<polygon fill="#1414ce" stroke="#1414ce" points="437.69,-550.69 438.16,-540.1 431.19,-548.09 437.69,-550.69"/>
</a>
</g>
</g>
<!-- 21&#45;&gt;9 -->
<g id="edge75" class="edge">
<title>21&#45;&gt;9</title>
<g id="a_edge75"><a xlink:title="include">
<path fill="none" stroke="#1414ce" d="M413,-153.33C424.56,-150.39 437.89,-147.02 450,-144 506.13,-129.99 570.55,-114.23 614.32,-103.56"/>
<polygon fill="#1414ce" stroke="#1414ce" points="615.28,-106.93 624.16,-101.16 613.62,-100.13 615.28,-106.93"/>
</a>
</g>
</g>
<!-- 1 -->
<g id="node28" class="node">
<title>1</title>
<g id="a_node28"><a xlink:title="/__w/AtomVM/AtomVM/src/libAtomVM/stacktrace.c">
<polygon fill="#bfbfbf" stroke="black" points="749,-900 369,-900 369,-864 749,-864 749,-900"/>
<text text-anchor="middle" x="559" y="-878.3" font-family="Times,serif" font-size="14.00">/__w/AtomVM/AtomVM/src/libAtomVM/stacktrace.c</text>
</a>
</g>
</g>
<!-- 1&#45;&gt;33 -->
<g id="edge77" class="edge">
<title>1&#45;&gt;33</title>
<g id="a_edge77"><a xlink:title="include">
<path fill="none" stroke="#1414ce" d="M509.84,-863.97C481.5,-854.14 445.68,-841.73 415.84,-831.39"/>
<polygon fill="#1414ce" stroke="#1414ce" points="416.97,-828.08 406.38,-828.11 414.68,-834.69 416.97,-828.08"/>
</a>
</g>
</g>
<!-- 1&#45;&gt;25 -->
<g id="edge79" class="edge">
<title>1&#45;&gt;25</title>
<g id="a_edge79"><a xlink:title="include">
<path fill="none" stroke="#1414ce" d="M749.02,-868.34C1002.57,-848.85 1420,-806.51 1420,-739 1420,-739 1420,-739 1420,-449 1420,-358.1 1322.45,-289.99 1263.26,-257.03"/>
<polygon fill="#1414ce" stroke="#1414ce" points="1264.93,-253.95 1254.47,-252.24 1261.58,-260.1 1264.93,-253.95"/>
</a>
</g>
</g>
<!-- 1&#45;&gt;4 -->
<g id="edge78" class="edge">
<title>1&#45;&gt;4</title>
<g id="a_edge78"><a xlink:title="include">
<path fill="none" stroke="#1414ce" d="M550.54,-863.97C526.72,-815.99 458.95,-679.5 430.18,-621.54"/>
<polygon fill="#1414ce" stroke="#1414ce" points="433.17,-619.71 425.59,-612.31 426.9,-622.82 433.17,-619.71"/>
</a>
</g>
</g>
<!-- 2 -->
<g id="node29" class="node">
<title>2</title>
<g id="a_node29"><a xlink:title="stacktrace.h">
<polygon fill="#ffffff" stroke="black" points="738,-828 634,-828 634,-792 738,-792 738,-828"/>
<text text-anchor="middle" x="686" y="-806.3" font-family="Times,serif" font-size="14.00">stacktrace.h</text>
</a>
</g>
</g>
<!-- 1&#45;&gt;2 -->
<g id="edge76" class="edge">
<title>1&#45;&gt;2</title>
<g id="a_edge76"><a xlink:title="include">
<path fill="none" stroke="#1414ce" d="M590.07,-863.88C606.83,-854.64 627.71,-843.13 645.7,-833.21"/>
<polygon fill="#1414ce" stroke="#1414ce" points="647.74,-836.08 654.81,-828.19 644.37,-829.95 647.74,-836.08"/>
</a>
</g>
</g>
<!-- 2&#45;&gt;3 -->
<g id="edge80" class="edge">
<title>2&#45;&gt;3</title>
<g id="a_edge80"><a xlink:title="include">
<path fill="none" stroke="#1414ce" d="M665.61,-791.87C635.54,-766.6 579.19,-719.25 545.18,-690.68"/>
<polygon fill="#1414ce" stroke="#1414ce" points="547.37,-687.94 537.46,-684.19 542.86,-693.3 547.37,-687.94"/>
</a>
</g>
</g>
<!-- 2&#45;&gt;31 -->
<g id="edge81" class="edge">
<title>2&#45;&gt;31</title>
<g id="a_edge81"><a xlink:title="include">
<path fill="none" stroke="#1414ce" d="M701.57,-791.7C709.2,-783.22 718.52,-772.86 726.88,-763.58"/>
<polygon fill="#1414ce" stroke="#1414ce" points="729.52,-765.88 733.61,-756.1 724.31,-761.2 729.52,-765.88"/>
</a>
</g>
</g>
<!-- 2&#45;&gt;22 -->
<g id="edge82" class="edge">
<title>2&#45;&gt;22</title>
<g id="a_edge82"><a xlink:title="include">
<path fill="none" stroke="#1414ce" d="M738.4,-801.83C847.71,-785.41 1090,-740.69 1090,-667 1090,-667 1090,-667 1090,-593 1090,-544.85 1051.66,-500.85 1023.44,-474.98"/>
<polygon fill="#1414ce" stroke="#1414ce" points="1025.58,-472.2 1015.78,-468.17 1020.93,-477.43 1025.58,-472.2"/>
</a>
</g>
</g>
<!-- 29&#45;&gt;9 -->
<g id="edge83" class="edge">
<title>29&#45;&gt;9</title>
<g id="a_edge83"><a xlink:title="include">
<path fill="none" stroke="#1414ce" d="M183.07,-215.83C219.85,-195.58 284.58,-162.35 344,-144 436.68,-115.37 549.43,-101.33 613.94,-95.17"/>
<polygon fill="#1414ce" stroke="#1414ce" points="614.62,-98.62 624.25,-94.21 613.97,-91.65 614.62,-98.62"/>
</a>
</g>
</g>
<!-- 29&#45;&gt;19 -->
<g id="edge85" class="edge">
<title>29&#45;&gt;19</title>
<g id="a_edge85"><a xlink:title="include">
<path fill="none" stroke="#1414ce" d="M202.29,-224.28C256.39,-214.49 345.71,-197.63 422,-180 430.69,-177.99 440,-175.64 448.75,-173.33"/>
<polygon fill="#1414ce" stroke="#1414ce" points="449.93,-176.64 458.69,-170.67 448.13,-169.88 449.93,-176.64"/>
</a>
</g>
</g>
<!-- 29&#45;&gt;5 -->
<g id="edge84" class="edge">
<title>29&#45;&gt;5</title>
<g id="a_edge84"><a xlink:title="include">
<path fill="none" stroke="#1414ce" d="M103.88,-227.32C73.95,-221.04 37.92,-207.83 19,-180 -11.75,-134.77 29.92,-98.07 78,-72 152.57,-31.56 408.46,-21.94 513.96,-19.68"/>
<polygon fill="#1414ce" stroke="#1414ce" points="514.06,-23.18 523.99,-19.48 513.92,-16.18 514.06,-23.18"/>
</a>
</g>
</g>
<!-- 28&#45;&gt;9 -->
<g id="edge86" class="edge">
<title>28&#45;&gt;9</title>
<g id="a_edge86"><a xlink:title="include">
<path fill="none" stroke="#1414ce" d="M636.98,-215.87C642.63,-191.56 653.03,-146.82 659.72,-118.01"/>
<polygon fill="#1414ce" stroke="#1414ce" points="663.15,-118.72 662.01,-108.19 656.33,-117.14 663.15,-118.72"/>
</a>
</g>
</g>
<!-- 28&#45;&gt;10 -->
<g id="edge89" class="edge">
<title>28&#45;&gt;10</title>
<g id="a_edge89"><a xlink:title="include">
<path fill="none" stroke="#1414ce" d="M676.37,-225.77C757.7,-212.22 932.12,-183.15 1011.78,-169.87"/>
<polygon fill="#1414ce" stroke="#1414ce" points="1012.63,-173.28 1021.92,-168.18 1011.48,-166.37 1012.63,-173.28"/>
</a>
</g>
</g>
<!-- 28&#45;&gt;19 -->
<g id="edge87" class="edge">
<title>28&#45;&gt;19</title>
<g id="a_edge87"><a xlink:title="include">
<path fill="none" stroke="#1414ce" d="M597.04,-215.88C574.43,-205.11 545.34,-191.26 522.61,-180.43"/>
<polygon fill="#1414ce" stroke="#1414ce" points="523.83,-177.14 513.29,-176 520.82,-183.46 523.83,-177.14"/>
</a>
</g>
</g>
<!-- 28&#45;&gt;14 -->
<g id="edge88" class="edge">
<title>28&#45;&gt;14</title>
<g id="a_edge88"><a xlink:title="include">
<path fill="none" stroke="#1414ce" d="M676.17,-231.8C758.45,-228.7 942.93,-217.75 1093,-180 1157.65,-163.74 1228.58,-133.25 1272.94,-112.54"/>
<polygon fill="#1414ce" stroke="#1414ce" points="1274.71,-115.57 1282.27,-108.15 1271.73,-109.24 1274.71,-115.57"/>
</a>
</g>
</g>
<!-- 18&#45;&gt;20 -->
<g id="edge91" class="edge">
<title>18&#45;&gt;20</title>
<g id="a_edge91"><a xlink:title="include">
<path fill="none" stroke="#1414ce" d="M443.21,-503.97C438.2,-456.19 423.98,-320.62 417.86,-262.27"/>
<polygon fill="#1414ce" stroke="#1414ce" points="421.34,-261.89 416.82,-252.31 414.38,-262.62 421.34,-261.89"/>
</a>
</g>
</g>
<!-- 18&#45;&gt;19 -->
<g id="edge90" class="edge">
<title>18&#45;&gt;19</title>
<g id="a_edge90"><a xlink:title="include">
<path fill="none" stroke="#1414ce" d="M446.98,-503.73C453.57,-446.19 474.82,-260.66 482.87,-190.35"/>
<polygon fill="#1414ce" stroke="#1414ce" points="486.38,-190.43 484.04,-180.09 479.43,-189.63 486.38,-190.43"/>
</a>
</g>
</g>
<!-- 18&#45;&gt;22 -->
<g id="edge92" class="edge">
<title>18&#45;&gt;22</title>
<g id="a_edge92"><a xlink:title="include">
<path fill="none" stroke="#1414ce" d="M472.22,-517.53C561.01,-506.21 842.62,-470.3 950.95,-456.49"/>
<polygon fill="#1414ce" stroke="#1414ce" points="951.71,-459.92 961.19,-455.18 950.82,-452.98 951.71,-459.92"/>
</a>
</g>
</g>
</g>
</svg>
