<?xml version="1.0" encoding="UTF-8" standalone="no"?>
<!DOCTYPE svg PUBLIC "-//W3C//DTD SVG 1.1//EN"
 "http://www.w3.org/Graphics/SVG/1.1/DTD/svg11.dtd">
<!-- Generated by graphviz version 2.43.0 (0)
 -->
<!-- Title: %3 Pages: 1 -->
<svg width="1621pt" height="764pt"
 viewBox="0.00 0.00 1621.35 764.00" xmlns="http://www.w3.org/2000/svg" xmlns:xlink="http://www.w3.org/1999/xlink">
<g id="graph0" class="graph" transform="scale(1 1) rotate(0) translate(4 760)">
<title>%3</title>
<polygon fill="transparent" stroke="transparent" points="-4,4 -4,-760 1617.35,-760 1617.35,4 -4,4"/>
<!-- 2 -->
<g id="node1" class="node">
<title>2</title>
<g id="a_node1"><a xlink:title="atom.h">
<polygon fill="#ffffff" stroke="black" points="1079.35,-396 1013.35,-396 1013.35,-360 1079.35,-360 1079.35,-396"/>
<text text-anchor="middle" x="1046.35" y="-374.3" font-family="Times,serif" font-size="14.00">atom.h</text>
</a>
</g>
</g>
<!-- 3 -->
<g id="node29" class="node">
<title>3</title>
<g id="a_node29"><a xlink:title="stdint.h">
<polygon fill="#ffffff" stroke="black" points="955.35,-36 883.35,-36 883.35,0 955.35,0 955.35,-36"/>
<text text-anchor="middle" x="919.35" y="-14.3" font-family="Times,serif" font-size="14.00">stdint.h</text>
</a>
</g>
</g>
<!-- 2&#45;&gt;3 -->
<g id="edge1" class="edge">
<title>2&#45;&gt;3</title>
<g id="a_edge1"><a xlink:title="include">
<path fill="none" stroke="#1414ce" d="M1040.23,-359.73C1019.77,-302.08 953.73,-115.89 928.9,-45.92"/>
<polygon fill="#1414ce" stroke="#1414ce" points="932.06,-44.35 925.42,-36.09 925.46,-46.69 932.06,-44.35"/>
</a>
</g>
</g>
<!-- 4 -->
<g id="node31" class="node">
<title>4</title>
<g id="a_node31"><a xlink:title="stdlib.h">
<polygon fill="#ffffff" stroke="black" points="1233.85,-108 1162.85,-108 1162.85,-72 1233.85,-72 1233.85,-108"/>
<text text-anchor="middle" x="1198.35" y="-86.3" font-family="Times,serif" font-size="14.00">stdlib.h</text>
</a>
</g>
</g>
<!-- 2&#45;&gt;4 -->
<g id="edge2" class="edge">
<title>2&#45;&gt;4</title>
<g id="a_edge2"><a xlink:title="include">
<path fill="none" stroke="#1414ce" d="M1072.11,-359.89C1102.04,-338.48 1150.39,-298.88 1174.35,-252 1196.31,-209.05 1199.66,-151.79 1199.45,-118.4"/>
<polygon fill="#1414ce" stroke="#1414ce" points="1202.94,-117.99 1199.26,-108.05 1195.94,-118.11 1202.94,-117.99"/>
</a>
</g>
</g>
<!-- 7 -->
<g id="node2" class="node">
<title>7</title>
<g id="a_node2"><a xlink:title="atom_table.h">
<polygon fill="#ffffff" stroke="black" points="866.85,-468 757.85,-468 757.85,-432 866.85,-432 866.85,-468"/>
<text text-anchor="middle" x="812.35" y="-446.3" font-family="Times,serif" font-size="14.00">atom_table.h</text>
</a>
</g>
</g>
<!-- 7&#45;&gt;2 -->
<g id="edge4" class="edge">
<title>7&#45;&gt;2</title>
<g id="a_edge4"><a xlink:title="include">
<path fill="none" stroke="#1414ce" d="M866.92,-432.68C908.45,-420.25 964.82,-403.39 1003.23,-391.9"/>
<polygon fill="#1414ce" stroke="#1414ce" points="1004.49,-395.18 1013.07,-388.96 1002.48,-388.47 1004.49,-395.18"/>
</a>
</g>
</g>
<!-- 9 -->
<g id="node22" class="node">
<title>9</title>
<g id="a_node22"><a xlink:title="utils.h">
<polygon fill="#ffffff" stroke="black" points="1094.35,-180 1032.35,-180 1032.35,-144 1094.35,-144 1094.35,-180"/>
<text text-anchor="middle" x="1063.35" y="-158.3" font-family="Times,serif" font-size="14.00">utils.h</text>
</a>
</g>
</g>
<!-- 7&#45;&gt;9 -->
<g id="edge5" class="edge">
<title>7&#45;&gt;9</title>
<g id="a_edge5"><a xlink:title="include">
<path fill="none" stroke="#1414ce" d="M866.99,-438.36C894.97,-430.58 927.97,-417.5 951.35,-396 1014.01,-338.38 1045.3,-238.25 1057.31,-190.23"/>
<polygon fill="#1414ce" stroke="#1414ce" points="1060.77,-190.81 1059.71,-180.26 1053.97,-189.17 1060.77,-190.81"/>
</a>
</g>
</g>
<!-- 8 -->
<g id="node27" class="node">
<title>8</title>
<g id="a_node27"><a xlink:title="stdbool.h">
<polygon fill="#ffffff" stroke="black" points="492.85,-108 409.85,-108 409.85,-72 492.85,-72 492.85,-108"/>
<text text-anchor="middle" x="451.35" y="-86.3" font-family="Times,serif" font-size="14.00">stdbool.h</text>
</a>
</g>
</g>
<!-- 7&#45;&gt;8 -->
<g id="edge3" class="edge">
<title>7&#45;&gt;8</title>
<g id="a_edge3"><a xlink:title="include">
<path fill="none" stroke="#1414ce" d="M796.04,-431.91C786.22,-421.57 773.5,-408.09 762.35,-396 725.89,-356.43 645.49,-245.3 600.35,-216 556.85,-187.76 527.64,-214.99 489.35,-180 471.59,-163.76 461.8,-137.83 456.63,-118.14"/>
<polygon fill="#1414ce" stroke="#1414ce" points="459.99,-117.13 454.27,-108.21 453.18,-118.75 459.99,-117.13"/>
</a>
</g>
</g>
<!-- 31 -->
<g id="node3" class="node">
<title>31</title>
<g id="a_node3"><a xlink:title="bitstring.h">
<polygon fill="#ffffff" stroke="black" points="746.35,-540 654.35,-540 654.35,-504 746.35,-504 746.35,-540"/>
<text text-anchor="middle" x="700.35" y="-518.3" font-family="Times,serif" font-size="14.00">bitstring.h</text>
</a>
</g>
</g>
<!-- 21 -->
<g id="node18" class="node">
<title>21</title>
<g id="a_node18"><a xlink:title="term.h">
<polygon fill="#ffffff" stroke="black" points="1154.85,-468 1089.85,-468 1089.85,-432 1154.85,-432 1154.85,-468"/>
<text text-anchor="middle" x="1122.35" y="-446.3" font-family="Times,serif" font-size="14.00">term.h</text>
</a>
</g>
</g>
<!-- 31&#45;&gt;21 -->
<g id="edge6" class="edge">
<title>31&#45;&gt;21</title>
<g id="a_edge6"><a xlink:title="include">
<path fill="none" stroke="#1414ce" d="M746.72,-513.31C829.1,-499.64 999.77,-471.33 1079.53,-458.1"/>
<polygon fill="#1414ce" stroke="#1414ce" points="1080.41,-461.5 1089.71,-456.42 1079.27,-454.6 1080.41,-461.5"/>
</a>
</g>
</g>
<!-- 32 -->
<g id="node21" class="node">
<title>32</title>
<g id="a_node21"><a xlink:title="unicode.h">
<polygon fill="#ffffff" stroke="black" points="900.35,-180 814.35,-180 814.35,-144 900.35,-144 900.35,-180"/>
<text text-anchor="middle" x="857.35" y="-158.3" font-family="Times,serif" font-size="14.00">unicode.h</text>
</a>
</g>
</g>
<!-- 31&#45;&gt;32 -->
<g id="edge7" class="edge">
<title>31&#45;&gt;32</title>
<g id="a_edge7"><a xlink:title="include">
<path fill="none" stroke="#1414ce" d="M706.53,-503.94C717.3,-474.4 740.49,-411.89 762.35,-360 776.02,-327.56 780.2,-319.77 795.35,-288 811.72,-253.68 831.32,-214.46 844.04,-189.25"/>
<polygon fill="#1414ce" stroke="#1414ce" points="847.17,-190.81 848.56,-180.31 840.92,-187.66 847.17,-190.81"/>
</a>
</g>
</g>
<!-- 31&#45;&gt;8 -->
<g id="edge8" class="edge">
<title>31&#45;&gt;8</title>
<g id="a_edge8"><a xlink:title="include">
<path fill="none" stroke="#1414ce" d="M680.76,-503.9C670.29,-494.09 657.67,-481.15 648.35,-468 576.17,-366.16 609.53,-307.25 524.35,-216 502.61,-192.71 479.92,-206.59 462.35,-180 450.39,-161.89 448.19,-137.11 448.67,-118.3"/>
<polygon fill="#1414ce" stroke="#1414ce" points="452.17,-118.44 449.19,-108.27 445.18,-118.08 452.17,-118.44"/>
</a>
</g>
</g>
<!-- 31&#45;&gt;3 -->
<g id="edge9" class="edge">
<title>31&#45;&gt;3</title>
<g id="a_edge9"><a xlink:title="include">
<path fill="none" stroke="#1414ce" d="M703.06,-503.87C705.98,-485.89 710.95,-456.85 716.35,-432 725.12,-391.66 782.14,-103.9 808.35,-72 824.96,-51.79 851.09,-38.78 873.83,-30.72"/>
<polygon fill="#1414ce" stroke="#1414ce" points="874.94,-34.03 883.33,-27.56 872.73,-27.39 874.94,-34.03"/>
</a>
</g>
</g>
<!-- 5 -->
<g id="node4" class="node">
<title>5</title>
<g id="a_node4"><a xlink:title="context.h">
<polygon fill="#ffffff" stroke="black" points="570.85,-684 487.85,-684 487.85,-648 570.85,-648 570.85,-684"/>
<text text-anchor="middle" x="529.35" y="-662.3" font-family="Times,serif" font-size="14.00">context.h</text>
</a>
</g>
</g>
<!-- 6 -->
<g id="node8" class="node">
<title>6</title>
<g id="a_node8"><a xlink:title="globalcontext.h">
<polygon fill="#ffffff" stroke="black" points="535.85,-612 408.85,-612 408.85,-576 535.85,-576 535.85,-612"/>
<text text-anchor="middle" x="472.35" y="-590.3" font-family="Times,serif" font-size="14.00">globalcontext.h</text>
</a>
</g>
</g>
<!-- 5&#45;&gt;6 -->
<g id="edge10" class="edge">
<title>5&#45;&gt;6</title>
<g id="a_edge10"><a xlink:title="include">
<path fill="none" stroke="#1414ce" d="M515.26,-647.7C508.43,-639.3 500.1,-629.07 492.6,-619.86"/>
<polygon fill="#1414ce" stroke="#1414ce" points="495.31,-617.65 486.28,-612.1 489.88,-622.07 495.31,-617.65"/>
</a>
</g>
</g>
<!-- 30 -->
<g id="node9" class="node">
<title>30</title>
<g id="a_node9"><a xlink:title="jit.h">
<polygon fill="#ffffff" stroke="black" points="854.35,-612 800.35,-612 800.35,-576 854.35,-576 854.35,-612"/>
<text text-anchor="middle" x="827.35" y="-590.3" font-family="Times,serif" font-size="14.00">jit.h</text>
</a>
</g>
</g>
<!-- 5&#45;&gt;30 -->
<g id="edge11" class="edge">
<title>5&#45;&gt;30</title>
<g id="a_edge11"><a xlink:title="include">
<path fill="none" stroke="#1414ce" d="M571.1,-655.19C629.46,-641.48 734.52,-616.81 790.26,-603.71"/>
<polygon fill="#1414ce" stroke="#1414ce" points="791.14,-607.1 800.07,-601.41 789.54,-600.29 791.14,-607.1"/>
</a>
</g>
</g>
<!-- 18 -->
<g id="node10" class="node">
<title>18</title>
<g id="a_node10"><a xlink:title="list.h">
<polygon fill="#ffffff" stroke="black" points="366.35,-180 312.35,-180 312.35,-144 366.35,-144 366.35,-180"/>
<text text-anchor="middle" x="339.35" y="-158.3" font-family="Times,serif" font-size="14.00">list.h</text>
</a>
</g>
</g>
<!-- 5&#45;&gt;18 -->
<g id="edge12" class="edge">
<title>5&#45;&gt;18</title>
<g id="a_edge12"><a xlink:title="include">
<path fill="none" stroke="#1414ce" d="M487.69,-656.93C429.04,-643.35 322.89,-610.21 265.35,-540 217.94,-482.15 216.35,-453.8 216.35,-379 216.35,-379 216.35,-379 216.35,-305 216.35,-251.25 267.32,-207.86 303.64,-183.76"/>
<polygon fill="#1414ce" stroke="#1414ce" points="305.54,-186.7 312.06,-178.35 301.75,-180.82 305.54,-186.7"/>
</a>
</g>
</g>
<!-- 27 -->
<g id="node11" class="node">
<title>27</title>
<g id="a_node11"><a xlink:title="mailbox.h">
<polygon fill="#ffffff" stroke="black" points="738.35,-252 652.35,-252 652.35,-216 738.35,-216 738.35,-252"/>
<text text-anchor="middle" x="695.35" y="-230.3" font-family="Times,serif" font-size="14.00">mailbox.h</text>
</a>
</g>
</g>
<!-- 5&#45;&gt;27 -->
<g id="edge13" class="edge">
<title>5&#45;&gt;27</title>
<g id="a_edge13"><a xlink:title="include">
<path fill="none" stroke="#1414ce" d="M541.16,-647.96C557.86,-622.16 586.35,-571.08 586.35,-523 586.35,-523 586.35,-523 586.35,-377 586.35,-326.93 629.52,-283.64 661.52,-258.43"/>
<polygon fill="#1414ce" stroke="#1414ce" points="663.97,-260.96 669.8,-252.11 659.73,-255.4 663.97,-260.96"/>
</a>
</g>
</g>
<!-- 20 -->
<g id="node16" class="node">
<title>20</title>
<g id="a_node16"><a xlink:title="smp.h">
<polygon fill="#ffffff" stroke="black" points="251.35,-180 191.35,-180 191.35,-144 251.35,-144 251.35,-180"/>
<text text-anchor="middle" x="221.35" y="-158.3" font-family="Times,serif" font-size="14.00">smp.h</text>
</a>
</g>
</g>
<!-- 5&#45;&gt;20 -->
<g id="edge14" class="edge">
<title>5&#45;&gt;20</title>
<g id="a_edge14"><a xlink:title="include">
<path fill="none" stroke="#1414ce" d="M487.45,-663.05C439.02,-659.13 358.43,-647.35 299.35,-612 227.86,-569.22 210.77,-545.16 179.35,-468 137.11,-364.26 135.64,-317.34 183.35,-216 187.91,-206.32 194.28,-196.56 200.51,-188.11"/>
<polygon fill="#1414ce" stroke="#1414ce" points="203.31,-190.2 206.61,-180.14 197.75,-185.95 203.31,-190.2"/>
</a>
</g>
</g>
<!-- 5&#45;&gt;21 -->
<g id="edge15" class="edge">
<title>5&#45;&gt;21</title>
<g id="a_edge15"><a xlink:title="include">
<path fill="none" stroke="#1414ce" d="M571.07,-665.73C666.36,-665.31 903.42,-652.24 1054.35,-540 1077.12,-523.07 1096.02,-496.53 1108.07,-476.83"/>
<polygon fill="#1414ce" stroke="#1414ce" points="1111.18,-478.44 1113.27,-468.06 1105.16,-474.88 1111.18,-478.44"/>
</a>
</g>
</g>
<!-- 28 -->
<g id="node20" class="node">
<title>28</title>
<g id="a_node20"><a xlink:title="timer_list.h">
<polygon fill="#ffffff" stroke="black" points="112.35,-252 14.35,-252 14.35,-216 112.35,-216 112.35,-252"/>
<text text-anchor="middle" x="63.35" y="-230.3" font-family="Times,serif" font-size="14.00">timer_list.h</text>
</a>
</g>
</g>
<!-- 5&#45;&gt;28 -->
<g id="edge16" class="edge">
<title>5&#45;&gt;28</title>
<g id="a_edge16"><a xlink:title="include">
<path fill="none" stroke="#1414ce" d="M487.84,-663.06C377.53,-657.52 83.3,-640.25 50.35,-612 19.25,-585.33 26.35,-563.97 26.35,-523 26.35,-523 26.35,-523 26.35,-377 26.35,-335.71 41.19,-289.77 52.07,-261.63"/>
<polygon fill="#1414ce" stroke="#1414ce" points="55.41,-262.7 55.87,-252.11 48.91,-260.11 55.41,-262.7"/>
</a>
</g>
</g>
<!-- 12 -->
<g id="node5" class="node">
<title>12</title>
<g id="a_node5"><a xlink:title="erl_nif.h">
<polygon fill="#ffffff" stroke="black" points="1528.35,-180 1454.35,-180 1454.35,-144 1528.35,-144 1528.35,-180"/>
<text text-anchor="middle" x="1491.35" y="-158.3" font-family="Times,serif" font-size="14.00">erl_nif.h</text>
</a>
</g>
</g>
<!-- 13 -->
<g id="node19" class="node">
<title>13</title>
<g id="a_node19"><a xlink:title="term_typedef.h">
<polygon fill="#ffffff" stroke="black" points="1547.85,-108 1422.85,-108 1422.85,-72 1547.85,-72 1547.85,-108"/>
<text text-anchor="middle" x="1485.35" y="-86.3" font-family="Times,serif" font-size="14.00">term_typedef.h</text>
</a>
</g>
</g>
<!-- 12&#45;&gt;13 -->
<g id="edge17" class="edge">
<title>12&#45;&gt;13</title>
<g id="a_edge17"><a xlink:title="include">
<path fill="none" stroke="#1414ce" d="M1489.87,-143.7C1489.21,-135.98 1488.41,-126.71 1487.68,-118.11"/>
<polygon fill="#1414ce" stroke="#1414ce" points="1491.16,-117.77 1486.82,-108.1 1484.19,-118.37 1491.16,-117.77"/>
</a>
</g>
</g>
<!-- 17 -->
<g id="node6" class="node">
<title>17</title>
<g id="a_node6"><a xlink:title="ets.h">
<polygon fill="#ffffff" stroke="black" points="368.35,-540 314.35,-540 314.35,-504 368.35,-504 368.35,-540"/>
<text text-anchor="middle" x="341.35" y="-518.3" font-family="Times,serif" font-size="14.00">ets.h</text>
</a>
</g>
</g>
<!-- 17&#45;&gt;18 -->
<g id="edge18" class="edge">
<title>17&#45;&gt;18</title>
<g id="a_edge18"><a xlink:title="include">
<path fill="none" stroke="#1414ce" d="M331.2,-503.73C316.85,-477.64 292.35,-426.2 292.35,-379 292.35,-379 292.35,-379 292.35,-305 292.35,-264.55 297.55,-254.02 311.35,-216 314.66,-206.9 319.25,-197.42 323.77,-189.03"/>
<polygon fill="#1414ce" stroke="#1414ce" points="326.93,-190.55 328.76,-180.11 320.83,-187.13 326.93,-190.55"/>
</a>
</g>
</g>
<!-- 19 -->
<g id="node17" class="node">
<title>19</title>
<g id="a_node17"><a xlink:title="synclist.h">
<polygon fill="#ffffff" stroke="black" points="405.85,-252 320.85,-252 320.85,-216 405.85,-216 405.85,-252"/>
<text text-anchor="middle" x="363.35" y="-230.3" font-family="Times,serif" font-size="14.00">synclist.h</text>
</a>
</g>
</g>
<!-- 17&#45;&gt;19 -->
<g id="edge19" class="edge">
<title>17&#45;&gt;19</title>
<g id="a_edge19"><a xlink:title="include">
<path fill="none" stroke="#1414ce" d="M342.66,-503.97C346.33,-456.29 356.72,-321.18 361.23,-262.63"/>
<polygon fill="#1414ce" stroke="#1414ce" points="364.74,-262.55 362.02,-252.31 357.77,-262.01 364.74,-262.55"/>
</a>
</g>
</g>
<!-- 17&#45;&gt;21 -->
<g id="edge20" class="edge">
<title>17&#45;&gt;21</title>
<g id="a_edge20"><a xlink:title="include">
<path fill="none" stroke="#1414ce" d="M368.69,-518.55C484.85,-508.14 937.95,-467.53 1079.72,-454.82"/>
<polygon fill="#1414ce" stroke="#1414ce" points="1080.12,-458.3 1089.76,-453.92 1079.49,-451.33 1080.12,-458.3"/>
</a>
</g>
</g>
<!-- 33 -->
<g id="node7" class="node">
<title>33</title>
<g id="a_node7"><a xlink:title="exportedfunction.h">
<polygon fill="#ffffff" stroke="black" points="1465.35,-540 1313.35,-540 1313.35,-504 1465.35,-504 1465.35,-540"/>
<text text-anchor="middle" x="1389.35" y="-518.3" font-family="Times,serif" font-size="14.00">exportedfunction.h</text>
</a>
</g>
</g>
<!-- 33&#45;&gt;21 -->
<g id="edge21" class="edge">
<title>33&#45;&gt;21</title>
<g id="a_edge21"><a xlink:title="include">
<path fill="none" stroke="#1414ce" d="M1324.38,-503.97C1274.79,-490.97 1207.9,-473.43 1164.94,-462.16"/>
<polygon fill="#1414ce" stroke="#1414ce" points="1165.65,-458.73 1155.09,-459.58 1163.87,-465.5 1165.65,-458.73"/>
</a>
</g>
</g>
<!-- 6&#45;&gt;2 -->
<g id="edge23" class="edge">
<title>6&#45;&gt;2</title>
<g id="a_edge23"><a xlink:title="include">
<path fill="none" stroke="#1414ce" d="M535.88,-589.48C600.67,-584.25 703.21,-571.38 786.35,-540 877.31,-505.68 971.16,-438.09 1017.24,-402.38"/>
<polygon fill="#1414ce" stroke="#1414ce" points="1019.55,-405.01 1025.27,-396.1 1015.24,-399.5 1019.55,-405.01"/>
</a>
</g>
</g>
<!-- 6&#45;&gt;7 -->
<g id="edge24" class="edge">
<title>6&#45;&gt;7</title>
<g id="a_edge24"><a xlink:title="include">
<path fill="none" stroke="#1414ce" d="M536.06,-586.98C608.22,-579.15 720.33,-563.61 755.35,-540 777.71,-524.93 793.18,-497.83 802.31,-477.48"/>
<polygon fill="#1414ce" stroke="#1414ce" points="805.6,-478.69 806.28,-468.12 799.15,-475.96 805.6,-478.69"/>
</a>
</g>
</g>
<!-- 6&#45;&gt;12 -->
<g id="edge25" class="edge">
<title>6&#45;&gt;12</title>
<g id="a_edge25"><a xlink:title="include">
<path fill="none" stroke="#1414ce" d="M536.09,-590.23C636.15,-585.08 835.86,-571.53 1002.35,-540 1118.27,-518.05 1442.14,-490.06 1513.35,-396 1559.95,-334.46 1525.27,-235.93 1504.28,-189.21"/>
<polygon fill="#1414ce" stroke="#1414ce" points="1507.42,-187.67 1500.05,-180.06 1501.07,-190.61 1507.42,-187.67"/>
</a>
</g>
</g>
<!-- 6&#45;&gt;17 -->
<g id="edge26" class="edge">
<title>6&#45;&gt;17</title>
<g id="a_edge26"><a xlink:title="include">
<path fill="none" stroke="#1414ce" d="M440.31,-575.88C421.34,-565.74 397.27,-552.88 377.61,-542.37"/>
<polygon fill="#1414ce" stroke="#1414ce" points="379.11,-539.21 368.64,-537.58 375.81,-545.38 379.11,-539.21"/>
</a>
</g>
</g>
<!-- 6&#45;&gt;18 -->
<g id="edge27" class="edge">
<title>6&#45;&gt;18</title>
<g id="a_edge27"><a xlink:title="include">
<path fill="none" stroke="#1414ce" d="M408.76,-584.24C375.13,-576.97 334.83,-563.78 305.35,-540 269.87,-511.37 254.35,-496.59 254.35,-451 254.35,-451 254.35,-451 254.35,-305 254.35,-258.45 288.39,-213.95 313.39,-187.55"/>
<polygon fill="#1414ce" stroke="#1414ce" points="316.01,-189.87 320.49,-180.27 311,-184.98 316.01,-189.87"/>
</a>
</g>
</g>
<!-- 6&#45;&gt;27 -->
<g id="edge28" class="edge">
<title>6&#45;&gt;27</title>
<g id="a_edge28"><a xlink:title="include">
<path fill="none" stroke="#1414ce" d="M472.35,-575.95C472.35,-549.29 472.35,-496.11 472.35,-451 472.35,-451 472.35,-451 472.35,-377 472.35,-296.78 576.3,-259.91 642.25,-244.59"/>
<polygon fill="#1414ce" stroke="#1414ce" points="643.09,-247.99 652.09,-242.39 641.57,-241.15 643.09,-247.99"/>
</a>
</g>
</g>
<!-- 6&#45;&gt;20 -->
<g id="edge29" class="edge">
<title>6&#45;&gt;20</title>
<g id="a_edge29"><a xlink:title="include">
<path fill="none" stroke="#1414ce" d="M408.58,-589.91C364.36,-584.82 306.29,-571.97 265.35,-540 201.25,-489.94 178.35,-460.33 178.35,-379 178.35,-379 178.35,-379 178.35,-305 178.35,-263.29 195.55,-217.54 208.2,-189.54"/>
<polygon fill="#1414ce" stroke="#1414ce" points="211.4,-190.96 212.44,-180.42 205.05,-188.01 211.4,-190.96"/>
</a>
</g>
</g>
<!-- 6&#45;&gt;19 -->
<g id="edge30" class="edge">
<title>6&#45;&gt;19</title>
<g id="a_edge30"><a xlink:title="include">
<path fill="none" stroke="#1414ce" d="M455.86,-575.77C433.51,-550.53 396.35,-501.05 396.35,-451 396.35,-451 396.35,-451 396.35,-377 396.35,-335.97 383.12,-289.97 373.42,-261.74"/>
<polygon fill="#1414ce" stroke="#1414ce" points="376.67,-260.45 370.03,-252.19 370.07,-262.78 376.67,-260.45"/>
</a>
</g>
</g>
<!-- 6&#45;&gt;21 -->
<g id="edge31" class="edge">
<title>6&#45;&gt;21</title>
<g id="a_edge31"><a xlink:title="include">
<path fill="none" stroke="#1414ce" d="M536.12,-589.93C650.28,-583.79 884.81,-568.14 961.35,-540 988.08,-530.17 989.73,-518.31 1014.35,-504 1035.55,-491.68 1060.02,-479.51 1080.31,-469.95"/>
<polygon fill="#1414ce" stroke="#1414ce" points="1082.02,-473.01 1089.6,-465.61 1079.06,-466.67 1082.02,-473.01"/>
</a>
</g>
</g>
<!-- 6&#45;&gt;28 -->
<g id="edge32" class="edge">
<title>6&#45;&gt;28</title>
<g id="a_edge32"><a xlink:title="include">
<path fill="none" stroke="#1414ce" d="M408.75,-586.87C339.51,-579.11 234.36,-563.8 202.35,-540 154.39,-504.32 93.88,-329.46 71.86,-261.8"/>
<polygon fill="#1414ce" stroke="#1414ce" points="75.18,-260.71 68.78,-252.26 68.52,-262.86 75.18,-260.71"/>
</a>
</g>
</g>
<!-- 29 -->
<g id="node23" class="node">
<title>29</title>
<g id="a_node23"><a xlink:title="valueshashtable.h">
<polygon fill="#ffffff" stroke="black" points="758.35,-180 612.35,-180 612.35,-144 758.35,-144 758.35,-180"/>
<text text-anchor="middle" x="685.35" y="-158.3" font-family="Times,serif" font-size="14.00">valueshashtable.h</text>
</a>
</g>
</g>
<!-- 6&#45;&gt;29 -->
<g id="edge33" class="edge">
<title>6&#45;&gt;29</title>
<g id="a_edge33"><a xlink:title="include">
<path fill="none" stroke="#1414ce" d="M488.84,-575.77C511.2,-550.53 548.35,-501.05 548.35,-451 548.35,-451 548.35,-451 548.35,-305 548.35,-250.54 601.19,-208.96 641.23,-185.26"/>
<polygon fill="#1414ce" stroke="#1414ce" points="643.14,-188.21 650.07,-180.19 639.66,-182.13 643.14,-188.21"/>
</a>
</g>
</g>
<!-- 6&#45;&gt;3 -->
<g id="edge22" class="edge">
<title>6&#45;&gt;3</title>
<g id="a_edge22"><a xlink:title="include">
<path fill="none" stroke="#1414ce" d="M408.58,-588.15C331.63,-581.23 207.87,-566.34 170.35,-540 104.23,-493.57 -27.52,-289.81 5.35,-216 48.46,-119.21 94.99,-105.97 195.35,-72 321.59,-29.28 733.38,-20.97 872.75,-19.38"/>
<polygon fill="#1414ce" stroke="#1414ce" points="873.12,-22.87 883.08,-19.26 873.04,-15.87 873.12,-22.87"/>
</a>
</g>
</g>
<!-- 30&#45;&gt;31 -->
<g id="edge34" class="edge">
<title>30&#45;&gt;31</title>
<g id="a_edge34"><a xlink:title="include">
<path fill="none" stroke="#1414ce" d="M800.11,-577.98C782.74,-568.41 759.94,-555.84 740.51,-545.14"/>
<polygon fill="#1414ce" stroke="#1414ce" points="742.02,-541.97 731.58,-540.21 738.64,-548.1 742.02,-541.97"/>
</a>
</g>
</g>
<!-- 30&#45;&gt;33 -->
<g id="edge35" class="edge">
<title>30&#45;&gt;33</title>
<g id="a_edge35"><a xlink:title="include">
<path fill="none" stroke="#1414ce" d="M854.58,-590.66C927.12,-584.28 1130.97,-565.32 1299.35,-540 1300.64,-539.81 1301.93,-539.61 1303.23,-539.41"/>
<polygon fill="#1414ce" stroke="#1414ce" points="1304,-542.83 1313.31,-537.78 1302.88,-535.92 1304,-542.83"/>
</a>
</g>
</g>
<!-- 30&#45;&gt;21 -->
<g id="edge36" class="edge">
<title>30&#45;&gt;21</title>
<g id="a_edge36"><a xlink:title="include">
<path fill="none" stroke="#1414ce" d="M854.35,-588.95C891.92,-582.53 961.3,-567.8 1014.35,-540 1046.6,-523.1 1078.1,-495.49 1098.68,-475.5"/>
<polygon fill="#1414ce" stroke="#1414ce" points="1101.36,-477.77 1106.01,-468.25 1096.44,-472.79 1101.36,-477.77"/>
</a>
</g>
</g>
<!-- 30&#45;&gt;13 -->
<g id="edge37" class="edge">
<title>30&#45;&gt;13</title>
<g id="a_edge37"><a xlink:title="include">
<path fill="none" stroke="#1414ce" d="M854.51,-592.74C962.08,-591.39 1357.97,-583.53 1474.35,-540 1536.88,-516.61 1595.35,-517.76 1595.35,-451 1595.35,-451 1595.35,-451 1595.35,-233 1595.35,-189.99 1584.06,-177.72 1557.35,-144 1548.2,-132.45 1535.93,-122.17 1524.12,-113.82"/>
<polygon fill="#1414ce" stroke="#1414ce" points="1525.89,-110.79 1515.65,-108.08 1521.97,-116.59 1525.89,-110.79"/>
</a>
</g>
</g>
<!-- 30&#45;&gt;8 -->
<g id="edge38" class="edge">
<title>30&#45;&gt;8</title>
<g id="a_edge38"><a xlink:title="include">
<path fill="none" stroke="#1414ce" d="M800.31,-590.62C762.54,-586.16 693.27,-573.69 645.35,-540 495.8,-434.85 472.21,-360.98 446.35,-180 443.42,-159.45 444.93,-135.99 447.04,-118.32"/>
<polygon fill="#1414ce" stroke="#1414ce" points="450.54,-118.52 448.39,-108.15 443.6,-117.6 450.54,-118.52"/>
</a>
</g>
</g>
<!-- 18&#45;&gt;8 -->
<g id="edge39" class="edge">
<title>18&#45;&gt;8</title>
<g id="a_edge39"><a xlink:title="include">
<path fill="none" stroke="#1414ce" d="M366.47,-144.05C381.21,-134.84 399.64,-123.32 415.56,-113.37"/>
<polygon fill="#1414ce" stroke="#1414ce" points="417.48,-116.3 424.1,-108.03 413.77,-110.36 417.48,-116.3"/>
</a>
</g>
</g>
<!-- 27&#45;&gt;18 -->
<g id="edge41" class="edge">
<title>27&#45;&gt;18</title>
<g id="a_edge41"><a xlink:title="include">
<path fill="none" stroke="#1414ce" d="M652.06,-224.49C581.52,-210.62 443.04,-183.39 376.61,-170.33"/>
<polygon fill="#1414ce" stroke="#1414ce" points="377.08,-166.85 366.6,-168.36 375.73,-173.72 377.08,-166.85"/>
</a>
</g>
</g>
<!-- 27&#45;&gt;13 -->
<g id="edge42" class="edge">
<title>27&#45;&gt;13</title>
<g id="a_edge42"><a xlink:title="include">
<path fill="none" stroke="#1414ce" d="M738.45,-228.83C813.12,-221.29 971.21,-203.91 1103.35,-180 1211.89,-160.36 1336.01,-129.94 1412.54,-110.25"/>
<polygon fill="#1414ce" stroke="#1414ce" points="1413.75,-113.55 1422.55,-107.66 1412,-106.77 1413.75,-113.55"/>
</a>
</g>
</g>
<!-- 27&#45;&gt;9 -->
<g id="edge43" class="edge">
<title>27&#45;&gt;9</title>
<g id="a_edge43"><a xlink:title="include">
<path fill="none" stroke="#1414ce" d="M738.65,-224.76C810.12,-211.17 951.86,-184.21 1022.02,-170.86"/>
<polygon fill="#1414ce" stroke="#1414ce" points="1023.07,-174.23 1032.24,-168.92 1021.76,-167.35 1023.07,-174.23"/>
</a>
</g>
</g>
<!-- 27&#45;&gt;8 -->
<g id="edge40" class="edge">
<title>27&#45;&gt;8</title>
<g id="a_edge40"><a xlink:title="include">
<path fill="none" stroke="#1414ce" d="M652.26,-219.59C605.75,-205.03 537.59,-183.38 532.35,-180 506.52,-163.31 483.61,-136.39 468.81,-116.52"/>
<polygon fill="#1414ce" stroke="#1414ce" points="471.49,-114.25 462.78,-108.21 465.82,-118.36 471.49,-114.25"/>
</a>
</g>
</g>
<!-- 24 -->
<g id="node12" class="node">
<title>24</title>
<g id="a_node12"><a xlink:title="memory.h">
<polygon fill="#ffffff" stroke="black" points="1431.35,-252 1345.35,-252 1345.35,-216 1431.35,-216 1431.35,-252"/>
<text text-anchor="middle" x="1388.35" y="-230.3" font-family="Times,serif" font-size="14.00">memory.h</text>
</a>
</g>
</g>
<!-- 24&#45;&gt;12 -->
<g id="edge46" class="edge">
<title>24&#45;&gt;12</title>
<g id="a_edge46"><a xlink:title="include">
<path fill="none" stroke="#1414ce" d="M1413.55,-215.88C1426.77,-206.89 1443.15,-195.76 1457.46,-186.03"/>
<polygon fill="#1414ce" stroke="#1414ce" points="1459.76,-188.71 1466.06,-180.19 1455.82,-182.92 1459.76,-188.71"/>
</a>
</g>
</g>
<!-- 24&#45;&gt;13 -->
<g id="edge47" class="edge">
<title>24&#45;&gt;13</title>
<g id="a_edge47"><a xlink:title="include">
<path fill="none" stroke="#1414ce" d="M1398.9,-215.68C1410.06,-197.56 1428.37,-168.4 1445.35,-144 1451.68,-134.92 1458.88,-125.19 1465.42,-116.59"/>
<polygon fill="#1414ce" stroke="#1414ce" points="1468.37,-118.48 1471.68,-108.42 1462.82,-114.23 1468.37,-118.48"/>
</a>
</g>
</g>
<!-- 24&#45;&gt;9 -->
<g id="edge48" class="edge">
<title>24&#45;&gt;9</title>
<g id="a_edge48"><a xlink:title="include">
<path fill="none" stroke="#1414ce" d="M1345.2,-223.7C1282.22,-210.14 1165.96,-185.1 1104.28,-171.81"/>
<polygon fill="#1414ce" stroke="#1414ce" points="1105.02,-168.39 1094.5,-169.71 1103.54,-175.24 1105.02,-168.39"/>
</a>
</g>
</g>
<!-- 24&#45;&gt;3 -->
<g id="edge44" class="edge">
<title>24&#45;&gt;3</title>
<g id="a_edge44"><a xlink:title="include">
<path fill="none" stroke="#1414ce" d="M1385.43,-215.97C1381.42,-196.76 1372.64,-165.41 1355.35,-144 1317.94,-97.67 1297.98,-93.25 1242.35,-72 1148.32,-36.07 1029.77,-24.49 965.65,-20.76"/>
<polygon fill="#1414ce" stroke="#1414ce" points="965.64,-17.26 955.46,-20.21 965.26,-24.25 965.64,-17.26"/>
</a>
</g>
</g>
<!-- 24&#45;&gt;4 -->
<g id="edge45" class="edge">
<title>24&#45;&gt;4</title>
<g id="a_edge45"><a xlink:title="include">
<path fill="none" stroke="#1414ce" d="M1380.15,-215.71C1370,-195.96 1351,-163.83 1326.35,-144 1302.17,-124.55 1269.86,-111.24 1243.74,-102.83"/>
<polygon fill="#1414ce" stroke="#1414ce" points="1244.66,-99.45 1234.07,-99.84 1242.59,-106.13 1244.66,-99.45"/>
</a>
</g>
</g>
<!-- 1 -->
<g id="node13" class="node">
<title>1</title>
<g id="a_node13"><a xlink:title="/__w/AtomVM/AtomVM/src/libAtomVM/nifs.h">
<polygon fill="#bfbfbf" stroke="black" points="1212.85,-756 879.85,-756 879.85,-720 1212.85,-720 1212.85,-756"/>
<text text-anchor="middle" x="1046.35" y="-734.3" font-family="Times,serif" font-size="14.00">/__w/AtomVM/AtomVM/src/libAtomVM/nifs.h</text>
</a>
</g>
</g>
<!-- 1&#45;&gt;2 -->
<g id="edge49" class="edge">
<title>1&#45;&gt;2</title>
<g id="a_edge49"><a xlink:title="include">
<path fill="none" stroke="#1414ce" d="M1046.35,-719.95C1046.35,-693.29 1046.35,-640.11 1046.35,-595 1046.35,-595 1046.35,-595 1046.35,-521 1046.35,-481 1046.35,-434.65 1046.35,-406.08"/>
<polygon fill="#1414ce" stroke="#1414ce" points="1049.85,-406.05 1046.35,-396.05 1042.85,-406.05 1049.85,-406.05"/>
</a>
</g>
</g>
<!-- 1&#45;&gt;5 -->
<g id="edge50" class="edge">
<title>1&#45;&gt;5</title>
<g id="a_edge50"><a xlink:title="include">
<path fill="none" stroke="#1414ce" d="M920.54,-719.97C811.7,-705.23 659.8,-684.66 581.15,-674.01"/>
<polygon fill="#1414ce" stroke="#1414ce" points="581.38,-670.51 571.01,-672.64 580.45,-677.45 581.38,-670.51"/>
</a>
</g>
</g>
<!-- 1&#45;&gt;33 -->
<g id="edge51" class="edge">
<title>1&#45;&gt;33</title>
<g id="a_edge51"><a xlink:title="include">
<path fill="none" stroke="#1414ce" d="M1073.84,-719.85C1135.31,-681.5 1283.86,-588.82 1352.93,-545.73"/>
<polygon fill="#1414ce" stroke="#1414ce" points="1355.1,-548.5 1361.73,-540.23 1351.4,-542.56 1355.1,-548.5"/>
</a>
</g>
</g>
<!-- 25 -->
<g id="node14" class="node">
<title>25</title>
<g id="a_node14"><a xlink:title="refc_binary.h">
<polygon fill="#ffffff" stroke="black" points="942.35,-396 834.35,-396 834.35,-360 942.35,-360 942.35,-396"/>
<text text-anchor="middle" x="888.35" y="-374.3" font-family="Times,serif" font-size="14.00">refc_binary.h</text>
</a>
</g>
</g>
<!-- 25&#45;&gt;18 -->
<g id="edge54" class="edge">
<title>25&#45;&gt;18</title>
<g id="a_edge54"><a xlink:title="include">
<path fill="none" stroke="#1414ce" d="M834.17,-361.64C760.59,-340.17 625.5,-298.53 514.35,-252 465,-231.34 410.37,-202.55 375.5,-183.37"/>
<polygon fill="#1414ce" stroke="#1414ce" points="377.08,-180.25 366.64,-178.47 373.7,-186.38 377.08,-180.25"/>
</a>
</g>
</g>
<!-- 26 -->
<g id="node15" class="node">
<title>26</title>
<g id="a_node15"><a xlink:title="resources.h">
<polygon fill="#ffffff" stroke="black" points="904.35,-324 804.35,-324 804.35,-288 904.35,-288 904.35,-324"/>
<text text-anchor="middle" x="854.35" y="-302.3" font-family="Times,serif" font-size="14.00">resources.h</text>
</a>
</g>
</g>
<!-- 25&#45;&gt;26 -->
<g id="edge55" class="edge">
<title>25&#45;&gt;26</title>
<g id="a_edge55"><a xlink:title="include">
<path fill="none" stroke="#1414ce" d="M879.95,-359.7C876.08,-351.73 871.4,-342.1 867.11,-333.26"/>
<polygon fill="#1414ce" stroke="#1414ce" points="870.18,-331.57 862.66,-324.1 863.88,-334.63 870.18,-331.57"/>
</a>
</g>
</g>
<!-- 25&#45;&gt;8 -->
<g id="edge52" class="edge">
<title>25&#45;&gt;8</title>
<g id="a_edge52"><a xlink:title="include">
<path fill="none" stroke="#1414ce" d="M899.45,-359.75C909.62,-341.67 921.9,-312.56 913.35,-288 899.94,-249.45 891.75,-236.32 856.35,-216 757.86,-159.44 707.1,-226.23 603.35,-180 580.59,-169.86 581.27,-157.55 560.35,-144 541.91,-132.06 520.38,-121.04 501.35,-112.18"/>
<polygon fill="#1414ce" stroke="#1414ce" points="502.78,-108.98 492.23,-108.01 499.87,-115.35 502.78,-108.98"/>
</a>
</g>
</g>
<!-- 25&#45;&gt;4 -->
<g id="edge53" class="edge">
<title>25&#45;&gt;4</title>
<g id="a_edge53"><a xlink:title="include">
<path fill="none" stroke="#1414ce" d="M915.39,-359.81C963.81,-328.19 1066.92,-256.94 1138.35,-180 1156.25,-160.72 1172.65,-135.65 1183.77,-117.03"/>
<polygon fill="#1414ce" stroke="#1414ce" points="1186.9,-118.6 1188.93,-108.2 1180.86,-115.07 1186.9,-118.6"/>
</a>
</g>
</g>
<!-- 26&#45;&gt;12 -->
<g id="edge57" class="edge">
<title>26&#45;&gt;12</title>
<g id="a_edge57"><a xlink:title="include">
<path fill="none" stroke="#1414ce" d="M904.68,-303.09C1038.46,-297.66 1395.75,-280.61 1440.35,-252 1462.51,-237.79 1476.08,-210.32 1483.6,-189.64"/>
<polygon fill="#1414ce" stroke="#1414ce" points="1486.93,-190.71 1486.81,-180.12 1480.3,-188.47 1486.93,-190.71"/>
</a>
</g>
</g>
<!-- 26&#45;&gt;18 -->
<g id="edge58" class="edge">
<title>26&#45;&gt;18</title>
<g id="a_edge58"><a xlink:title="include">
<path fill="none" stroke="#1414ce" d="M804.33,-293.01C761.49,-282.61 698.21,-266.91 643.35,-252 546.48,-225.66 433.2,-191.64 376.15,-174.27"/>
<polygon fill="#1414ce" stroke="#1414ce" points="377.09,-170.9 366.5,-171.33 375.05,-177.6 377.09,-170.9"/>
</a>
</g>
</g>
<!-- 26&#45;&gt;27 -->
<g id="edge59" class="edge">
<title>26&#45;&gt;27</title>
<g id="a_edge59"><a xlink:title="include">
<path fill="none" stroke="#1414ce" d="M815.46,-287.88C793.72,-278.31 766.45,-266.3 743.39,-256.15"/>
<polygon fill="#1414ce" stroke="#1414ce" points="744.69,-252.89 734.12,-252.07 741.86,-259.3 744.69,-252.89"/>
</a>
</g>
</g>
<!-- 26&#45;&gt;24 -->
<g id="edge60" class="edge">
<title>26&#45;&gt;24</title>
<g id="a_edge60"><a xlink:title="include">
<path fill="none" stroke="#1414ce" d="M904.59,-298.41C1005.37,-285.2 1231.4,-255.57 1334.83,-242.02"/>
<polygon fill="#1414ce" stroke="#1414ce" points="1335.59,-245.45 1345.05,-240.68 1334.68,-238.51 1335.59,-245.45"/>
</a>
</g>
</g>
<!-- 26&#45;&gt;19 -->
<g id="edge61" class="edge">
<title>26&#45;&gt;19</title>
<g id="a_edge61"><a xlink:title="include">
<path fill="none" stroke="#1414ce" d="M804.24,-299.01C728.99,-289.86 582.39,-271.39 458.35,-252 444.77,-249.88 430.13,-247.37 416.5,-244.94"/>
<polygon fill="#1414ce" stroke="#1414ce" points="416.78,-241.43 406.32,-243.1 415.54,-248.32 416.78,-241.43"/>
</a>
</g>
</g>
<!-- 26&#45;&gt;4 -->
<g id="edge56" class="edge">
<title>26&#45;&gt;4</title>
<g id="a_edge56"><a xlink:title="include">
<path fill="none" stroke="#1414ce" d="M897.39,-287.9C948.75,-266.49 1036.11,-226.9 1103.35,-180 1118.01,-169.78 1150.8,-138.23 1173.74,-115.6"/>
<polygon fill="#1414ce" stroke="#1414ce" points="1176.46,-117.83 1181.1,-108.31 1171.53,-112.86 1176.46,-117.83"/>
</a>
</g>
</g>
<!-- 20&#45;&gt;8 -->
<g id="edge62" class="edge">
<title>20&#45;&gt;8</title>
<g id="a_edge62"><a xlink:title="include">
<path fill="none" stroke="#1414ce" d="M251.42,-151.85C289.08,-140.39 354.21,-120.57 399.87,-106.67"/>
<polygon fill="#1414ce" stroke="#1414ce" points="401.04,-109.97 409.59,-103.71 399,-103.28 401.04,-109.97"/>
</a>
</g>
</g>
<!-- 19&#45;&gt;18 -->
<g id="edge64" class="edge">
<title>19&#45;&gt;18</title>
<g id="a_edge64"><a xlink:title="include">
<path fill="none" stroke="#1414ce" d="M357.42,-215.7C354.75,-207.9 351.53,-198.51 348.55,-189.83"/>
<polygon fill="#1414ce" stroke="#1414ce" points="351.77,-188.43 345.22,-180.1 345.15,-190.7 351.77,-188.43"/>
</a>
</g>
</g>
<!-- 19&#45;&gt;20 -->
<g id="edge65" class="edge">
<title>19&#45;&gt;20</title>
<g id="a_edge65"><a xlink:title="include">
<path fill="none" stroke="#1414ce" d="M328.62,-215.88C308.02,-205.72 281.85,-192.82 260.52,-182.31"/>
<polygon fill="#1414ce" stroke="#1414ce" points="261.92,-179.1 251.4,-177.81 258.82,-185.37 261.92,-179.1"/>
</a>
</g>
</g>
<!-- 11 -->
<g id="node30" class="node">
<title>11</title>
<g id="a_node30"><a xlink:title="stdio.h">
<polygon fill="#ffffff" stroke="black" points="1097.85,-108 1032.85,-108 1032.85,-72 1097.85,-72 1097.85,-108"/>
<text text-anchor="middle" x="1065.35" y="-86.3" font-family="Times,serif" font-size="14.00">stdio.h</text>
</a>
</g>
</g>
<!-- 19&#45;&gt;11 -->
<g id="edge63" class="edge">
<title>19&#45;&gt;11</title>
<g id="a_edge63"><a xlink:title="include">
<path fill="none" stroke="#1414ce" d="M406.15,-229.88C526.42,-220.98 861.81,-195.1 909.35,-180 956.01,-165.18 1004.11,-135.06 1034.34,-113.98"/>
<polygon fill="#1414ce" stroke="#1414ce" points="1036.61,-116.67 1042.75,-108.03 1032.57,-110.95 1036.61,-116.67"/>
</a>
</g>
</g>
<!-- 21&#45;&gt;2 -->
<g id="edge72" class="edge">
<title>21&#45;&gt;2</title>
<g id="a_edge72"><a xlink:title="include">
<path fill="none" stroke="#1414ce" d="M1103.57,-431.7C1094.18,-423.05 1082.67,-412.45 1072.44,-403.03"/>
<polygon fill="#1414ce" stroke="#1414ce" points="1074.65,-400.3 1064.92,-396.1 1069.91,-405.45 1074.65,-400.3"/>
</a>
</g>
</g>
<!-- 21&#45;&gt;24 -->
<g id="edge73" class="edge">
<title>21&#45;&gt;24</title>
<g id="a_edge73"><a xlink:title="include">
<path fill="none" stroke="#1414ce" d="M1154.97,-449.05C1232.23,-448.4 1422.92,-442.06 1462.35,-396 1497.88,-354.51 1448.52,-293.11 1414.94,-259.39"/>
<polygon fill="#1414ce" stroke="#1414ce" points="1417.23,-256.73 1407.63,-252.24 1412.33,-261.73 1417.23,-256.73"/>
</a>
</g>
</g>
<!-- 21&#45;&gt;25 -->
<g id="edge74" class="edge">
<title>21&#45;&gt;25</title>
<g id="a_edge74"><a xlink:title="include">
<path fill="none" stroke="#1414ce" d="M1089.82,-439.27C1054.37,-428.66 996.77,-411.43 952.22,-398.1"/>
<polygon fill="#1414ce" stroke="#1414ce" points="953.22,-394.75 942.63,-395.24 951.21,-401.46 953.22,-394.75"/>
</a>
</g>
</g>
<!-- 21&#45;&gt;13 -->
<g id="edge76" class="edge">
<title>21&#45;&gt;13</title>
<g id="a_edge76"><a xlink:title="include">
<path fill="none" stroke="#1414ce" d="M1154.96,-448.67C1234.31,-447.19 1434.5,-439.15 1482.35,-396 1567.48,-319.23 1580.72,-250.12 1537.35,-144 1532.87,-133.02 1524.88,-123.08 1516.5,-114.86"/>
<polygon fill="#1414ce" stroke="#1414ce" points="1518.84,-112.26 1509.11,-108.09 1514.12,-117.42 1518.84,-112.26"/>
</a>
</g>
</g>
<!-- 21&#45;&gt;9 -->
<g id="edge75" class="edge">
<title>21&#45;&gt;9</title>
<g id="a_edge75"><a xlink:title="include">
<path fill="none" stroke="#1414ce" d="M1128.18,-431.56C1131.28,-421.33 1134.78,-408.08 1136.35,-396 1142.53,-348.4 1147.89,-334.59 1136.35,-288 1126.99,-250.2 1102.21,-212.36 1084.11,-188.38"/>
<polygon fill="#1414ce" stroke="#1414ce" points="1086.67,-185.97 1077.79,-180.19 1081.14,-190.25 1086.67,-185.97"/>
</a>
</g>
</g>
<!-- 21&#45;&gt;8 -->
<g id="edge67" class="edge">
<title>21&#45;&gt;8</title>
<g id="a_edge67"><a xlink:title="include">
<path fill="none" stroke="#1414ce" d="M1089.79,-447.02C1021.45,-442.28 866.02,-428.17 825.35,-396 756.97,-341.91 815.36,-270.55 747.35,-216 681.33,-163.04 634.24,-221.28 560.35,-180 541.4,-169.41 543.69,-158.29 527.35,-144 514.94,-133.14 500.28,-122.47 487.16,-113.59"/>
<polygon fill="#1414ce" stroke="#1414ce" points="489.07,-110.66 478.8,-108.03 485.19,-116.48 489.07,-110.66"/>
</a>
</g>
</g>
<!-- 21&#45;&gt;3 -->
<g id="edge68" class="edge">
<title>21&#45;&gt;3</title>
<g id="a_edge68"><a xlink:title="include">
<path fill="none" stroke="#1414ce" d="M1116.13,-431.82C1109.53,-413.81 1098.65,-384.74 1088.35,-360 1034.38,-230.35 1029.25,-193.23 958.35,-72 952.82,-62.53 945.95,-52.71 939.53,-44.14"/>
<polygon fill="#1414ce" stroke="#1414ce" points="942.18,-41.84 933.32,-36.03 936.62,-46.1 942.18,-41.84"/>
</a>
</g>
</g>
<!-- 21&#45;&gt;11 -->
<g id="edge69" class="edge">
<title>21&#45;&gt;11</title>
<g id="a_edge69"><a xlink:title="include">
<path fill="none" stroke="#1414ce" d="M1135.43,-431.89C1142.18,-421.98 1149.75,-408.94 1153.35,-396 1166.23,-349.76 1162.48,-335.31 1154.35,-288 1142.85,-221.09 1134.78,-204.18 1103.35,-144 1098.4,-134.52 1091.93,-124.81 1085.73,-116.34"/>
<polygon fill="#1414ce" stroke="#1414ce" points="1088.51,-114.21 1079.69,-108.34 1082.92,-118.43 1088.51,-114.21"/>
</a>
</g>
</g>
<!-- 21&#45;&gt;4 -->
<g id="edge70" class="edge">
<title>21&#45;&gt;4</title>
<g id="a_edge70"><a xlink:title="include">
<path fill="none" stroke="#1414ce" d="M1143.73,-431.89C1153.93,-422.46 1165.21,-409.86 1171.35,-396 1213.46,-301.01 1207.01,-173.26 1201.6,-118.16"/>
<polygon fill="#1414ce" stroke="#1414ce" points="1205.07,-117.72 1200.55,-108.14 1198.11,-118.45 1205.07,-117.72"/>
</a>
</g>
</g>
<!-- 23 -->
<g id="node32" class="node">
<title>23</title>
<g id="a_node32"><a xlink:title="string.h">
<polygon fill="#ffffff" stroke="black" points="1337.85,-396 1264.85,-396 1264.85,-360 1337.85,-360 1337.85,-396"/>
<text text-anchor="middle" x="1301.35" y="-374.3" font-family="Times,serif" font-size="14.00">string.h</text>
</a>
</g>
</g>
<!-- 21&#45;&gt;23 -->
<g id="edge71" class="edge">
<title>21&#45;&gt;23</title>
<g id="a_edge71"><a xlink:title="include">
<path fill="none" stroke="#1414ce" d="M1155.18,-436.16C1183.26,-425.18 1223.99,-409.25 1255.32,-397"/>
<polygon fill="#1414ce" stroke="#1414ce" points="1256.68,-400.23 1264.72,-393.33 1254.13,-393.71 1256.68,-400.23"/>
</a>
</g>
</g>
<!-- 22 -->
<g id="node33" class="node">
<title>22</title>
<g id="a_node33"><a xlink:title="sys/types.h">
<polygon fill="#ffffff" stroke="black" points="1452.85,-396 1355.85,-396 1355.85,-360 1452.85,-360 1452.85,-396"/>
<text text-anchor="middle" x="1404.35" y="-374.3" font-family="Times,serif" font-size="14.00">sys/types.h</text>
</a>
</g>
</g>
<!-- 21&#45;&gt;22 -->
<g id="edge66" class="edge">
<title>21&#45;&gt;22</title>
<g id="a_edge66"><a xlink:title="include">
<path fill="none" stroke="#1414ce" d="M1154.92,-441.96C1196.92,-432.74 1272.45,-415.69 1345.73,-396.36"/>
<polygon fill="#1414ce" stroke="#1414ce" points="1346.82,-399.7 1355.59,-393.75 1345.03,-392.93 1346.82,-399.7"/>
</a>
</g>
</g>
<!-- 14 -->
<g id="node24" class="node">
<title>14</title>
<g id="a_node24"><a xlink:title="assert.h">
<polygon fill="#ffffff" stroke="black" points="1613.35,-36 1539.35,-36 1539.35,0 1613.35,0 1613.35,-36"/>
<text text-anchor="middle" x="1576.35" y="-14.3" font-family="Times,serif" font-size="14.00">assert.h</text>
</a>
</g>
</g>
<!-- 13&#45;&gt;14 -->
<g id="edge77" class="edge">
<title>13&#45;&gt;14</title>
<g id="a_edge77"><a xlink:title="include">
<path fill="none" stroke="#1414ce" d="M1507.85,-71.7C1519.31,-62.88 1533.41,-52.03 1545.84,-42.47"/>
<polygon fill="#1414ce" stroke="#1414ce" points="1548.33,-44.98 1554.12,-36.1 1544.06,-39.43 1548.33,-44.98"/>
</a>
</g>
</g>
<!-- 16 -->
<g id="node25" class="node">
<title>16</title>
<g id="a_node25"><a xlink:title="inttypes.h">
<polygon fill="#ffffff" stroke="black" points="1431.85,-36 1342.85,-36 1342.85,0 1431.85,0 1431.85,-36"/>
<text text-anchor="middle" x="1387.35" y="-14.3" font-family="Times,serif" font-size="14.00">inttypes.h</text>
</a>
</g>
</g>
<!-- 13&#45;&gt;16 -->
<g id="edge79" class="edge">
<title>13&#45;&gt;16</title>
<g id="a_edge79"><a xlink:title="include">
<path fill="none" stroke="#1414ce" d="M1461.38,-71.88C1448.8,-62.89 1433.22,-51.76 1419.6,-42.03"/>
<polygon fill="#1414ce" stroke="#1414ce" points="1421.59,-39.15 1411.42,-36.19 1417.52,-44.85 1421.59,-39.15"/>
</a>
</g>
</g>
<!-- 15 -->
<g id="node26" class="node">
<title>15</title>
<g id="a_node26"><a xlink:title="limits.h">
<polygon fill="#ffffff" stroke="black" points="1520.85,-36 1449.85,-36 1449.85,0 1520.85,0 1520.85,-36"/>
<text text-anchor="middle" x="1485.35" y="-14.3" font-family="Times,serif" font-size="14.00">limits.h</text>
</a>
</g>
</g>
<!-- 13&#45;&gt;15 -->
<g id="edge78" class="edge">
<title>13&#45;&gt;15</title>
<g id="a_edge78"><a xlink:title="include">
<path fill="none" stroke="#1414ce" d="M1485.35,-71.7C1485.35,-63.98 1485.35,-54.71 1485.35,-46.11"/>
<polygon fill="#1414ce" stroke="#1414ce" points="1488.85,-46.1 1485.35,-36.1 1481.85,-46.1 1488.85,-46.1"/>
</a>
</g>
</g>
<!-- 13&#45;&gt;3 -->
<g id="edge80" class="edge">
<title>13&#45;&gt;3</title>
<g id="a_edge80"><a xlink:title="include">
<path fill="none" stroke="#1414ce" d="M1422.47,-75.48C1415.7,-74.22 1408.89,-73.03 1402.35,-72 1242.79,-46.96 1051.73,-29.73 965.54,-22.63"/>
<polygon fill="#1414ce" stroke="#1414ce" points="965.81,-19.14 955.56,-21.82 965.24,-26.12 965.81,-19.14"/>
</a>
</g>
</g>
<!-- 28&#45;&gt;18 -->
<g id="edge83" class="edge">
<title>28&#45;&gt;18</title>
<g id="a_edge83"><a xlink:title="include">
<path fill="none" stroke="#1414ce" d="M112.38,-220.57C166.75,-206.77 253.26,-184.84 302.28,-172.4"/>
<polygon fill="#1414ce" stroke="#1414ce" points="303.31,-175.75 312.15,-169.9 301.59,-168.97 303.31,-175.75"/>
</a>
</g>
</g>
<!-- 28&#45;&gt;8 -->
<g id="edge81" class="edge">
<title>28&#45;&gt;8</title>
<g id="a_edge81"><a xlink:title="include">
<path fill="none" stroke="#1414ce" d="M81.05,-215.65C102.95,-195.22 142.28,-161.82 182.35,-144 253.6,-112.32 343.8,-99.49 399.54,-94.35"/>
<polygon fill="#1414ce" stroke="#1414ce" points="399.87,-97.83 409.53,-93.47 399.26,-90.86 399.87,-97.83"/>
</a>
</g>
</g>
<!-- 28&#45;&gt;3 -->
<g id="edge82" class="edge">
<title>28&#45;&gt;3</title>
<g id="a_edge82"><a xlink:title="include">
<path fill="none" stroke="#1414ce" d="M69.77,-215.81C78.24,-195.53 95.08,-162.29 120.35,-144 242.4,-55.68 721.3,-27.59 873,-20.82"/>
<polygon fill="#1414ce" stroke="#1414ce" points="873.51,-24.3 883.35,-20.37 873.2,-17.31 873.51,-24.3"/>
</a>
</g>
</g>
<!-- 32&#45;&gt;8 -->
<g id="edge84" class="edge">
<title>32&#45;&gt;8</title>
<g id="a_edge84"><a xlink:title="include">
<path fill="none" stroke="#1414ce" d="M813.9,-152.61C799.14,-149.8 782.54,-146.71 767.35,-144 674.37,-127.42 565.71,-109.52 503.08,-99.34"/>
<polygon fill="#1414ce" stroke="#1414ce" points="503.49,-95.86 493.06,-97.72 502.37,-102.77 503.49,-95.86"/>
</a>
</g>
</g>
<!-- 10 -->
<g id="node28" class="node">
<title>10</title>
<g id="a_node28"><a xlink:title="stddef.h">
<polygon fill="#ffffff" stroke="black" points="891.35,-108 817.35,-108 817.35,-72 891.35,-72 891.35,-108"/>
<text text-anchor="middle" x="854.35" y="-86.3" font-family="Times,serif" font-size="14.00">stddef.h</text>
</a>
</g>
</g>
<!-- 32&#45;&gt;10 -->
<g id="edge85" class="edge">
<title>32&#45;&gt;10</title>
<g id="a_edge85"><a xlink:title="include">
<path fill="none" stroke="#1414ce" d="M856.61,-143.7C856.28,-135.98 855.88,-126.71 855.52,-118.11"/>
<polygon fill="#1414ce" stroke="#1414ce" points="859.01,-117.95 855.09,-108.1 852.02,-118.25 859.01,-117.95"/>
</a>
</g>
</g>
<!-- 32&#45;&gt;3 -->
<g id="edge86" class="edge">
<title>32&#45;&gt;3</title>
<g id="a_edge86"><a xlink:title="include">
<path fill="none" stroke="#1414ce" d="M874.81,-143.83C883.73,-134.1 894.02,-121.26 900.35,-108 909.7,-88.46 914.48,-64.32 916.91,-46.12"/>
<polygon fill="#1414ce" stroke="#1414ce" points="920.39,-46.51 918.09,-36.16 913.44,-45.68 920.39,-46.51"/>
</a>
</g>
</g>
<!-- 9&#45;&gt;10 -->
<g id="edge87" class="edge">
<title>9&#45;&gt;10</title>
<g id="a_edge87"><a xlink:title="include">
<path fill="none" stroke="#1414ce" d="M1032.06,-150.52C997.35,-138.89 940.97,-120.01 901.03,-106.63"/>
<polygon fill="#1414ce" stroke="#1414ce" points="902.1,-103.3 891.51,-103.44 899.88,-109.94 902.1,-103.3"/>
</a>
</g>
</g>
<!-- 9&#45;&gt;11 -->
<g id="edge88" class="edge">
<title>9&#45;&gt;11</title>
<g id="a_edge88"><a xlink:title="include">
<path fill="none" stroke="#1414ce" d="M1063.85,-143.7C1064.07,-135.98 1064.33,-126.71 1064.58,-118.11"/>
<polygon fill="#1414ce" stroke="#1414ce" points="1068.08,-118.2 1064.86,-108.1 1061.08,-118 1068.08,-118.2"/>
</a>
</g>
</g>
<!-- 9&#45;&gt;4 -->
<g id="edge89" class="edge">
<title>9&#45;&gt;4</title>
<g id="a_edge89"><a xlink:title="include">
<path fill="none" stroke="#1414ce" d="M1094.66,-144.76C1113.04,-135.24 1136.49,-123.08 1156.44,-112.73"/>
<polygon fill="#1414ce" stroke="#1414ce" points="1158.06,-115.83 1165.33,-108.12 1154.84,-109.62 1158.06,-115.83"/>
</a>
</g>
</g>
<!-- 29&#45;&gt;10 -->
<g id="edge90" class="edge">
<title>29&#45;&gt;10</title>
<g id="a_edge90"><a xlink:title="include">
<path fill="none" stroke="#1414ce" d="M726.7,-143.88C751.22,-133.72 782.37,-120.82 807.76,-110.3"/>
<polygon fill="#1414ce" stroke="#1414ce" points="809.28,-113.46 817.18,-106.4 806.6,-106.99 809.28,-113.46"/>
</a>
</g>
</g>
<!-- 29&#45;&gt;3 -->
<g id="edge91" class="edge">
<title>29&#45;&gt;3</title>
<g id="a_edge91"><a xlink:title="include">
<path fill="none" stroke="#1414ce" d="M698.03,-143.99C713.56,-124.21 741.64,-91.75 772.35,-72 803.41,-52.03 843,-38.31 873.27,-29.84"/>
<polygon fill="#1414ce" stroke="#1414ce" points="874.41,-33.16 883.15,-27.17 872.58,-26.4 874.41,-33.16"/>
</a>
</g>
</g>
</g>
</svg>
