<?xml version="1.0" encoding="UTF-8" standalone="no"?>
<!DOCTYPE svg PUBLIC "-//W3C//DTD SVG 1.1//EN"
 "http://www.w3.org/Graphics/SVG/1.1/DTD/svg11.dtd">
<!-- Generated by graphviz version 2.43.0 (0)
 -->
<!-- Title: %3 Pages: 1 -->
<svg width="1624pt" height="764pt"
 viewBox="0.00 0.00 1623.58 764.00" xmlns="http://www.w3.org/2000/svg" xmlns:xlink="http://www.w3.org/1999/xlink">
<g id="graph0" class="graph" transform="scale(1 1) rotate(0) translate(4 760)">
<title>%3</title>
<polygon fill="transparent" stroke="transparent" points="-4,4 -4,-760 1619.58,-760 1619.58,4 -4,4"/>
<!-- 4 -->
<g id="node1" class="node">
<title>4</title>
<g id="a_node1"><a xlink:title="stdbool.h">
<polygon fill="#ffffff" stroke="black" points="1023,-108 940,-108 940,-72 1023,-72 1023,-108"/>
<text text-anchor="middle" x="981.5" y="-86.3" font-family="Times,serif" font-size="14.00">stdbool.h</text>
</a>
</g>
</g>
<!-- 21 -->
<g id="node2" class="node">
<title>21</title>
<g id="a_node2"><a xlink:title="refc_binary.h">
<polygon fill="#ffffff" stroke="black" points="778.5,-396 670.5,-396 670.5,-360 778.5,-360 778.5,-396"/>
<text text-anchor="middle" x="724.5" y="-374.3" font-family="Times,serif" font-size="14.00">refc_binary.h</text>
</a>
</g>
</g>
<!-- 21&#45;&gt;4 -->
<g id="edge1" class="edge">
<title>21&#45;&gt;4</title>
<g id="a_edge1"><a xlink:title="include">
<path fill="none" stroke="#1414ce" d="M749.88,-359.95C761.21,-350.79 773.38,-338.4 779.5,-324 785.76,-309.28 785.72,-302.74 779.5,-288 770.57,-266.86 751.43,-273.14 742.5,-252 723.83,-207.78 712.46,-181.44 742.5,-144 765.53,-115.31 866.7,-101.19 929.8,-95.05"/>
<polygon fill="#1414ce" stroke="#1414ce" points="930.34,-98.51 939.97,-94.1 929.68,-91.54 930.34,-98.51"/>
</a>
</g>
</g>
<!-- 3 -->
<g id="node8" class="node">
<title>3</title>
<g id="a_node8"><a xlink:title="list.h">
<polygon fill="#ffffff" stroke="black" points="1204.5,-180 1150.5,-180 1150.5,-144 1204.5,-144 1204.5,-180"/>
<text text-anchor="middle" x="1177.5" y="-158.3" font-family="Times,serif" font-size="14.00">list.h</text>
</a>
</g>
</g>
<!-- 21&#45;&gt;3 -->
<g id="edge3" class="edge">
<title>21&#45;&gt;3</title>
<g id="a_edge3"><a xlink:title="include">
<path fill="none" stroke="#1414ce" d="M778.72,-365.23C851.18,-347.92 981.9,-311.11 1080.5,-252 1096.15,-242.62 1130.03,-210.3 1153.3,-187.32"/>
<polygon fill="#1414ce" stroke="#1414ce" points="1155.81,-189.75 1160.45,-180.22 1150.88,-184.79 1155.81,-189.75"/>
</a>
</g>
</g>
<!-- 11 -->
<g id="node10" class="node">
<title>11</title>
<g id="a_node10"><a xlink:title="stdlib.h">
<polygon fill="#ffffff" stroke="black" points="602,-108 531,-108 531,-72 602,-72 602,-108"/>
<text text-anchor="middle" x="566.5" y="-86.3" font-family="Times,serif" font-size="14.00">stdlib.h</text>
</a>
</g>
</g>
<!-- 21&#45;&gt;11 -->
<g id="edge2" class="edge">
<title>21&#45;&gt;11</title>
<g id="a_edge2"><a xlink:title="include">
<path fill="none" stroke="#1414ce" d="M698.91,-359.99C686.31,-350.59 671.68,-337.98 661.5,-324 636.32,-289.41 594.06,-171.35 575.59,-117.8"/>
<polygon fill="#1414ce" stroke="#1414ce" points="578.89,-116.61 572.33,-108.29 572.26,-118.88 578.89,-116.61"/>
</a>
</g>
</g>
<!-- 22 -->
<g id="node14" class="node">
<title>22</title>
<g id="a_node14"><a xlink:title="resources.h">
<polygon fill="#ffffff" stroke="black" points="770.5,-324 670.5,-324 670.5,-288 770.5,-288 770.5,-324"/>
<text text-anchor="middle" x="720.5" y="-302.3" font-family="Times,serif" font-size="14.00">resources.h</text>
</a>
</g>
</g>
<!-- 21&#45;&gt;22 -->
<g id="edge4" class="edge">
<title>21&#45;&gt;22</title>
<g id="a_edge4"><a xlink:title="include">
<path fill="none" stroke="#1414ce" d="M723.51,-359.7C723.07,-351.98 722.54,-342.71 722.05,-334.11"/>
<polygon fill="#1414ce" stroke="#1414ce" points="725.54,-333.89 721.48,-324.1 718.55,-334.29 725.54,-333.89"/>
</a>
</g>
</g>
<!-- 29 -->
<g id="node3" class="node">
<title>29</title>
<g id="a_node3"><a xlink:title="defaultatoms.h">
<polygon fill="#ffffff" stroke="black" points="1280.5,-684 1156.5,-684 1156.5,-648 1280.5,-648 1280.5,-684"/>
<text text-anchor="middle" x="1218.5" y="-662.3" font-family="Times,serif" font-size="14.00">defaultatoms.h</text>
</a>
</g>
</g>
<!-- 30 -->
<g id="node18" class="node">
<title>30</title>
<g id="a_node18"><a xlink:title="defaultatoms.def">
<polygon fill="#ffffff" stroke="black" points="1600,-612 1463,-612 1463,-576 1600,-576 1600,-612"/>
<text text-anchor="middle" x="1531.5" y="-590.3" font-family="Times,serif" font-size="14.00">defaultatoms.def</text>
</a>
</g>
</g>
<!-- 29&#45;&gt;30 -->
<g id="edge6" class="edge">
<title>29&#45;&gt;30</title>
<g id="a_edge6"><a xlink:title="include">
<path fill="none" stroke="#1414ce" d="M1280.71,-651.09C1330.12,-640.04 1399.52,-624.52 1452.79,-612.6"/>
<polygon fill="#1414ce" stroke="#1414ce" points="1453.89,-615.94 1462.88,-610.35 1452.36,-609.11 1453.89,-615.94"/>
</a>
</g>
</g>
<!-- 25 -->
<g id="node24" class="node">
<title>25</title>
<g id="a_node24"><a xlink:title="globalcontext.h">
<polygon fill="#ffffff" stroke="black" points="1221,-612 1094,-612 1094,-576 1221,-576 1221,-612"/>
<text text-anchor="middle" x="1157.5" y="-590.3" font-family="Times,serif" font-size="14.00">globalcontext.h</text>
</a>
</g>
</g>
<!-- 29&#45;&gt;25 -->
<g id="edge5" class="edge">
<title>29&#45;&gt;25</title>
<g id="a_edge5"><a xlink:title="include">
<path fill="none" stroke="#1414ce" d="M1203.42,-647.7C1196.11,-639.3 1187.19,-629.07 1179.16,-619.86"/>
<polygon fill="#1414ce" stroke="#1414ce" points="1181.61,-617.34 1172.41,-612.1 1176.34,-621.94 1181.61,-617.34"/>
</a>
</g>
</g>
<!-- 26 -->
<g id="node4" class="node">
<title>26</title>
<g id="a_node4"><a xlink:title="atom.h">
<polygon fill="#ffffff" stroke="black" points="867.5,-180 801.5,-180 801.5,-144 867.5,-144 867.5,-180"/>
<text text-anchor="middle" x="834.5" y="-158.3" font-family="Times,serif" font-size="14.00">atom.h</text>
</a>
</g>
</g>
<!-- 10 -->
<g id="node9" class="node">
<title>10</title>
<g id="a_node9"><a xlink:title="stdint.h">
<polygon fill="#ffffff" stroke="black" points="401.5,-36 329.5,-36 329.5,0 401.5,0 401.5,-36"/>
<text text-anchor="middle" x="365.5" y="-14.3" font-family="Times,serif" font-size="14.00">stdint.h</text>
</a>
</g>
</g>
<!-- 26&#45;&gt;10 -->
<g id="edge7" class="edge">
<title>26&#45;&gt;10</title>
<g id="a_edge7"><a xlink:title="include">
<path fill="none" stroke="#1414ce" d="M813.67,-143.86C787.54,-123.32 740.54,-89.49 694.5,-72 598.44,-35.51 477.31,-24.14 412.13,-20.6"/>
<polygon fill="#1414ce" stroke="#1414ce" points="411.94,-17.09 401.78,-20.08 411.59,-24.08 411.94,-17.09"/>
</a>
</g>
</g>
<!-- 26&#45;&gt;11 -->
<g id="edge8" class="edge">
<title>26&#45;&gt;11</title>
<g id="a_edge8"><a xlink:title="include">
<path fill="none" stroke="#1414ce" d="M801.27,-154.49C759.27,-145.96 684.66,-129.81 611.99,-107.94"/>
<polygon fill="#1414ce" stroke="#1414ce" points="612.8,-104.53 602.22,-104.97 610.76,-111.23 612.8,-104.53"/>
</a>
</g>
</g>
<!-- 16 -->
<g id="node5" class="node">
<title>16</title>
<g id="a_node5"><a xlink:title="assert.h">
<polygon fill="#ffffff" stroke="black" points="114.5,-36 40.5,-36 40.5,0 114.5,0 114.5,-36"/>
<text text-anchor="middle" x="77.5" y="-14.3" font-family="Times,serif" font-size="14.00">assert.h</text>
</a>
</g>
</g>
<!-- 19 -->
<g id="node6" class="node">
<title>19</title>
<g id="a_node6"><a xlink:title="utils.h">
<polygon fill="#ffffff" stroke="black" points="538.5,-180 476.5,-180 476.5,-144 538.5,-144 538.5,-180"/>
<text text-anchor="middle" x="507.5" y="-158.3" font-family="Times,serif" font-size="14.00">utils.h</text>
</a>
</g>
</g>
<!-- 19&#45;&gt;11 -->
<g id="edge11" class="edge">
<title>19&#45;&gt;11</title>
<g id="a_edge11"><a xlink:title="include">
<path fill="none" stroke="#1414ce" d="M522.08,-143.7C529.16,-135.3 537.78,-125.07 545.55,-115.86"/>
<polygon fill="#1414ce" stroke="#1414ce" points="548.31,-118.01 552.08,-108.1 542.96,-113.49 548.31,-118.01"/>
</a>
</g>
</g>
<!-- 20 -->
<g id="node16" class="node">
<title>20</title>
<g id="a_node16"><a xlink:title="stddef.h">
<polygon fill="#ffffff" stroke="black" points="512.5,-108 438.5,-108 438.5,-72 512.5,-72 512.5,-108"/>
<text text-anchor="middle" x="475.5" y="-86.3" font-family="Times,serif" font-size="14.00">stddef.h</text>
</a>
</g>
</g>
<!-- 19&#45;&gt;20 -->
<g id="edge9" class="edge">
<title>19&#45;&gt;20</title>
<g id="a_edge9"><a xlink:title="include">
<path fill="none" stroke="#1414ce" d="M499.59,-143.7C495.95,-135.73 491.55,-126.1 487.51,-117.26"/>
<polygon fill="#1414ce" stroke="#1414ce" points="490.66,-115.74 483.32,-108.1 484.29,-118.65 490.66,-115.74"/>
</a>
</g>
</g>
<!-- 6 -->
<g id="node29" class="node">
<title>6</title>
<g id="a_node29"><a xlink:title="stdio.h">
<polygon fill="#ffffff" stroke="black" points="685,-108 620,-108 620,-72 685,-72 685,-108"/>
<text text-anchor="middle" x="652.5" y="-86.3" font-family="Times,serif" font-size="14.00">stdio.h</text>
</a>
</g>
</g>
<!-- 19&#45;&gt;6 -->
<g id="edge10" class="edge">
<title>19&#45;&gt;6</title>
<g id="a_edge10"><a xlink:title="include">
<path fill="none" stroke="#1414ce" d="M538.61,-145.98C559.67,-135.81 587.74,-122.26 610.75,-111.16"/>
<polygon fill="#1414ce" stroke="#1414ce" points="612.45,-114.22 619.94,-106.72 609.41,-107.92 612.45,-114.22"/>
</a>
</g>
</g>
<!-- 5 -->
<g id="node7" class="node">
<title>5</title>
<g id="a_node7"><a xlink:title="synclist.h">
<polygon fill="#ffffff" stroke="black" points="1254,-252 1169,-252 1169,-216 1254,-216 1254,-252"/>
<text text-anchor="middle" x="1211.5" y="-230.3" font-family="Times,serif" font-size="14.00">synclist.h</text>
</a>
</g>
</g>
<!-- 5&#45;&gt;3 -->
<g id="edge13" class="edge">
<title>5&#45;&gt;3</title>
<g id="a_edge13"><a xlink:title="include">
<path fill="none" stroke="#1414ce" d="M1203.1,-215.7C1199.23,-207.73 1194.55,-198.1 1190.26,-189.26"/>
<polygon fill="#1414ce" stroke="#1414ce" points="1193.33,-187.57 1185.81,-180.1 1187.03,-190.63 1193.33,-187.57"/>
</a>
</g>
</g>
<!-- 7 -->
<g id="node26" class="node">
<title>7</title>
<g id="a_node26"><a xlink:title="smp.h">
<polygon fill="#ffffff" stroke="black" points="1371.5,-180 1311.5,-180 1311.5,-144 1371.5,-144 1371.5,-180"/>
<text text-anchor="middle" x="1341.5" y="-158.3" font-family="Times,serif" font-size="14.00">smp.h</text>
</a>
</g>
</g>
<!-- 5&#45;&gt;7 -->
<g id="edge14" class="edge">
<title>5&#45;&gt;7</title>
<g id="a_edge14"><a xlink:title="include">
<path fill="none" stroke="#1414ce" d="M1243.3,-215.88C1261.13,-206.28 1283.51,-194.22 1302.41,-184.05"/>
<polygon fill="#1414ce" stroke="#1414ce" points="1304.22,-187.05 1311.37,-179.23 1300.9,-180.89 1304.22,-187.05"/>
</a>
</g>
</g>
<!-- 5&#45;&gt;6 -->
<g id="edge12" class="edge">
<title>5&#45;&gt;6</title>
<g id="a_edge12"><a xlink:title="include">
<path fill="none" stroke="#1414ce" d="M1168.76,-221.25C1105.18,-203.85 981.85,-170.45 876.5,-144 813.57,-128.2 740.37,-111.12 695.23,-100.74"/>
<polygon fill="#1414ce" stroke="#1414ce" points="695.74,-97.27 685.21,-98.45 694.18,-104.09 695.74,-97.27"/>
</a>
</g>
</g>
<!-- 3&#45;&gt;4 -->
<g id="edge15" class="edge">
<title>3&#45;&gt;4</title>
<g id="a_edge15"><a xlink:title="include">
<path fill="none" stroke="#1414ce" d="M1150.25,-151.27C1120.02,-140.47 1070.58,-122.81 1033.01,-109.39"/>
<polygon fill="#1414ce" stroke="#1414ce" points="1033.83,-105.97 1023.24,-105.91 1031.48,-112.57 1033.83,-105.97"/>
</a>
</g>
</g>
<!-- 24 -->
<g id="node11" class="node">
<title>24</title>
<g id="a_node11"><a xlink:title="context.h">
<polygon fill="#ffffff" stroke="black" points="1138,-684 1055,-684 1055,-648 1138,-648 1138,-684"/>
<text text-anchor="middle" x="1096.5" y="-662.3" font-family="Times,serif" font-size="14.00">context.h</text>
</a>
</g>
</g>
<!-- 24&#45;&gt;3 -->
<g id="edge17" class="edge">
<title>24&#45;&gt;3</title>
<g id="a_edge17"><a xlink:title="include">
<path fill="none" stroke="#1414ce" d="M1138.06,-651.37C1165.1,-641.82 1200.73,-627.96 1230.5,-612 1291.57,-579.26 1358.5,-592.29 1358.5,-523 1358.5,-523 1358.5,-523 1358.5,-449 1358.5,-394.74 1320.83,-257.18 1285.5,-216 1267.06,-194.5 1237.84,-180.91 1214.45,-172.87"/>
<polygon fill="#1414ce" stroke="#1414ce" points="1215.42,-169.51 1204.82,-169.77 1213.26,-176.17 1215.42,-169.51"/>
</a>
</g>
</g>
<!-- 8 -->
<g id="node15" class="node">
<title>8</title>
<g id="a_node15"><a xlink:title="term.h">
<polygon fill="#ffffff" stroke="black" points="561,-468 496,-468 496,-432 561,-432 561,-468"/>
<text text-anchor="middle" x="528.5" y="-446.3" font-family="Times,serif" font-size="14.00">term.h</text>
</a>
</g>
</g>
<!-- 24&#45;&gt;8 -->
<g id="edge20" class="edge">
<title>24&#45;&gt;8</title>
<g id="a_edge20"><a xlink:title="include">
<path fill="none" stroke="#1414ce" d="M1054.62,-657.09C1010.79,-648.25 940.32,-632.46 881.5,-612 765.08,-571.5 634.72,-506.63 569.84,-472.93"/>
<polygon fill="#1414ce" stroke="#1414ce" points="571.24,-469.71 560.75,-468.19 568,-475.92 571.24,-469.71"/>
</a>
</g>
</g>
<!-- 24&#45;&gt;25 -->
<g id="edge16" class="edge">
<title>24&#45;&gt;25</title>
<g id="a_edge16"><a xlink:title="include">
<path fill="none" stroke="#1414ce" d="M1111.58,-647.7C1118.89,-639.3 1127.81,-629.07 1135.84,-619.86"/>
<polygon fill="#1414ce" stroke="#1414ce" points="1138.66,-621.94 1142.59,-612.1 1133.39,-617.34 1138.66,-621.94"/>
</a>
</g>
</g>
<!-- 24&#45;&gt;7 -->
<g id="edge19" class="edge">
<title>24&#45;&gt;7</title>
<g id="a_edge19"><a xlink:title="include">
<path fill="none" stroke="#1414ce" d="M1138.17,-650.82C1141.32,-649.83 1144.45,-648.88 1147.5,-648 1211.27,-629.49 1233.95,-643.32 1292.5,-612 1399.43,-554.8 1434.5,-500.27 1434.5,-379 1434.5,-379 1434.5,-379 1434.5,-305 1434.5,-257.32 1397.35,-213.19 1370.02,-187.17"/>
<polygon fill="#1414ce" stroke="#1414ce" points="1372.32,-184.54 1362.6,-180.32 1367.57,-189.68 1372.32,-184.54"/>
</a>
</g>
</g>
<!-- 28 -->
<g id="node27" class="node">
<title>28</title>
<g id="a_node27"><a xlink:title="timer_list.h">
<polygon fill="#ffffff" stroke="black" points="1560.5,-252 1462.5,-252 1462.5,-216 1560.5,-216 1560.5,-252"/>
<text text-anchor="middle" x="1511.5" y="-230.3" font-family="Times,serif" font-size="14.00">timer_list.h</text>
</a>
</g>
</g>
<!-- 24&#45;&gt;28 -->
<g id="edge21" class="edge">
<title>24&#45;&gt;28</title>
<g id="a_edge21"><a xlink:title="include">
<path fill="none" stroke="#1414ce" d="M1138.07,-650.44C1141.24,-649.55 1144.41,-648.72 1147.5,-648 1262.4,-621.23 1302.34,-659.12 1410.5,-612 1433.66,-601.91 1433.37,-589.85 1454.5,-576 1483.76,-556.82 1502.51,-567.21 1524.5,-540 1550.25,-508.13 1548.5,-491.97 1548.5,-451 1548.5,-451 1548.5,-451 1548.5,-377 1548.5,-335.71 1533.67,-289.77 1522.78,-261.63"/>
<polygon fill="#1414ce" stroke="#1414ce" points="1525.94,-260.11 1518.99,-252.11 1519.44,-262.7 1525.94,-260.11"/>
</a>
</g>
</g>
<!-- 23 -->
<g id="node28" class="node">
<title>23</title>
<g id="a_node28"><a xlink:title="mailbox.h">
<polygon fill="#ffffff" stroke="black" points="870.5,-252 784.5,-252 784.5,-216 870.5,-216 870.5,-252"/>
<text text-anchor="middle" x="827.5" y="-230.3" font-family="Times,serif" font-size="14.00">mailbox.h</text>
</a>
</g>
</g>
<!-- 24&#45;&gt;23 -->
<g id="edge18" class="edge">
<title>24&#45;&gt;23</title>
<g id="a_edge18"><a xlink:title="include">
<path fill="none" stroke="#1414ce" d="M1054.85,-655.49C995.98,-639.3 895.5,-600.33 895.5,-523 895.5,-523 895.5,-523 895.5,-377 895.5,-332.6 868.13,-287.38 848.12,-260.25"/>
<polygon fill="#1414ce" stroke="#1414ce" points="850.76,-257.95 841.92,-252.11 845.19,-262.18 850.76,-257.95"/>
</a>
</g>
</g>
<!-- 31 -->
<g id="node12" class="node">
<title>31</title>
<g id="a_node12"><a xlink:title="ets_hashtable.h">
<polygon fill="#ffffff" stroke="black" points="741.5,-684 613.5,-684 613.5,-648 741.5,-648 741.5,-684"/>
<text text-anchor="middle" x="677.5" y="-662.3" font-family="Times,serif" font-size="14.00">ets_hashtable.h</text>
</a>
</g>
</g>
<!-- 31&#45;&gt;11 -->
<g id="edge24" class="edge">
<title>31&#45;&gt;11</title>
<g id="a_edge24"><a xlink:title="include">
<path fill="none" stroke="#1414ce" d="M670.42,-647.85C660.19,-621.49 642.5,-569.21 642.5,-523 642.5,-523 642.5,-523 642.5,-449 642.5,-326.41 605.25,-300.27 581.5,-180 577.43,-159.38 573.5,-135.93 570.69,-118.28"/>
<polygon fill="#1414ce" stroke="#1414ce" points="574.1,-117.45 569.09,-108.11 567.19,-118.54 574.1,-117.45"/>
</a>
</g>
</g>
<!-- 31&#45;&gt;8 -->
<g id="edge23" class="edge">
<title>31&#45;&gt;8</title>
<g id="a_edge23"><a xlink:title="include">
<path fill="none" stroke="#1414ce" d="M613.18,-651.52C590.73,-643.65 567.44,-631.29 552.5,-612 522.52,-573.29 522.13,-513.23 525.01,-478.46"/>
<polygon fill="#1414ce" stroke="#1414ce" points="528.53,-478.41 526.02,-468.11 521.56,-477.72 528.53,-478.41"/>
</a>
</g>
</g>
<!-- 31&#45;&gt;25 -->
<g id="edge22" class="edge">
<title>31&#45;&gt;25</title>
<g id="a_edge22"><a xlink:title="include">
<path fill="none" stroke="#1414ce" d="M741.74,-655.63C830.47,-642.69 990.16,-619.4 1083.69,-605.76"/>
<polygon fill="#1414ce" stroke="#1414ce" points="1084.25,-609.22 1093.64,-604.31 1083.24,-602.29 1084.25,-609.22"/>
</a>
</g>
</g>
<!-- 13 -->
<g id="node13" class="node">
<title>13</title>
<g id="a_node13"><a xlink:title="memory.h">
<polygon fill="#ffffff" stroke="black" points="375.5,-252 289.5,-252 289.5,-216 375.5,-216 375.5,-252"/>
<text text-anchor="middle" x="332.5" y="-230.3" font-family="Times,serif" font-size="14.00">memory.h</text>
</a>
</g>
</g>
<!-- 13&#45;&gt;19 -->
<g id="edge29" class="edge">
<title>13&#45;&gt;19</title>
<g id="a_edge29"><a xlink:title="include">
<path fill="none" stroke="#1414ce" d="M375.31,-215.88C403.28,-204.69 439.58,-190.17 467.06,-179.18"/>
<polygon fill="#1414ce" stroke="#1414ce" points="468.4,-182.41 476.38,-175.45 465.8,-175.91 468.4,-182.41"/>
</a>
</g>
</g>
<!-- 13&#45;&gt;10 -->
<g id="edge25" class="edge">
<title>13&#45;&gt;10</title>
<g id="a_edge25"><a xlink:title="include">
<path fill="none" stroke="#1414ce" d="M335.14,-215.85C340.85,-178.83 354.37,-91.18 361.28,-46.39"/>
<polygon fill="#1414ce" stroke="#1414ce" points="364.78,-46.65 362.84,-36.23 357.86,-45.58 364.78,-46.65"/>
</a>
</g>
</g>
<!-- 13&#45;&gt;11 -->
<g id="edge26" class="edge">
<title>13&#45;&gt;11</title>
<g id="a_edge26"><a xlink:title="include">
<path fill="none" stroke="#1414ce" d="M348.44,-215.99C367.43,-196.51 400.83,-164.62 434.5,-144 442.39,-139.17 486.3,-121.82 521.34,-108.27"/>
<polygon fill="#1414ce" stroke="#1414ce" points="522.88,-111.43 530.95,-104.57 520.37,-104.9 522.88,-111.43"/>
</a>
</g>
</g>
<!-- 14 -->
<g id="node17" class="node">
<title>14</title>
<g id="a_node17"><a xlink:title="erl_nif.h">
<polygon fill="#ffffff" stroke="black" points="230.5,-180 156.5,-180 156.5,-144 230.5,-144 230.5,-180"/>
<text text-anchor="middle" x="193.5" y="-158.3" font-family="Times,serif" font-size="14.00">erl_nif.h</text>
</a>
</g>
</g>
<!-- 13&#45;&gt;14 -->
<g id="edge27" class="edge">
<title>13&#45;&gt;14</title>
<g id="a_edge27"><a xlink:title="include">
<path fill="none" stroke="#1414ce" d="M298.5,-215.88C279.9,-206.51 256.67,-194.81 236.79,-184.8"/>
<polygon fill="#1414ce" stroke="#1414ce" points="238.14,-181.56 227.63,-180.19 234.99,-187.81 238.14,-181.56"/>
</a>
</g>
</g>
<!-- 15 -->
<g id="node23" class="node">
<title>15</title>
<g id="a_node23"><a xlink:title="term_typedef.h">
<polygon fill="#ffffff" stroke="black" points="262,-108 137,-108 137,-72 262,-72 262,-108"/>
<text text-anchor="middle" x="199.5" y="-86.3" font-family="Times,serif" font-size="14.00">term_typedef.h</text>
</a>
</g>
</g>
<!-- 13&#45;&gt;15 -->
<g id="edge28" class="edge">
<title>13&#45;&gt;15</title>
<g id="a_edge28"><a xlink:title="include">
<path fill="none" stroke="#1414ce" d="M316.46,-215.87C293.09,-190.92 249.56,-144.45 222.7,-115.77"/>
<polygon fill="#1414ce" stroke="#1414ce" points="224.99,-113.1 215.6,-108.19 219.88,-117.88 224.99,-113.1"/>
</a>
</g>
</g>
<!-- 22&#45;&gt;5 -->
<g id="edge35" class="edge">
<title>22&#45;&gt;5</title>
<g id="a_edge35"><a xlink:title="include">
<path fill="none" stroke="#1414ce" d="M770.74,-297.84C864.12,-284.52 1063.58,-256.09 1158.8,-242.51"/>
<polygon fill="#1414ce" stroke="#1414ce" points="1159.38,-245.97 1168.78,-241.09 1158.39,-239.04 1159.38,-245.97"/>
</a>
</g>
</g>
<!-- 22&#45;&gt;3 -->
<g id="edge32" class="edge">
<title>22&#45;&gt;3</title>
<g id="a_edge32"><a xlink:title="include">
<path fill="none" stroke="#1414ce" d="M770.77,-304.93C836.74,-303.07 954.79,-293.53 1045.5,-252 1068.16,-241.62 1068.17,-230.42 1088.5,-216 1105.33,-204.06 1124.95,-192.17 1141.49,-182.69"/>
<polygon fill="#1414ce" stroke="#1414ce" points="1143.34,-185.67 1150.32,-177.69 1139.89,-179.58 1143.34,-185.67"/>
</a>
</g>
</g>
<!-- 22&#45;&gt;11 -->
<g id="edge30" class="edge">
<title>22&#45;&gt;11</title>
<g id="a_edge30"><a xlink:title="include">
<path fill="none" stroke="#1414ce" d="M711.18,-287.76C694.43,-257.41 657.35,-193.01 618.5,-144 610.7,-134.16 601.3,-124.13 592.65,-115.48"/>
<polygon fill="#1414ce" stroke="#1414ce" points="594.89,-112.78 585.3,-108.27 589.99,-117.77 594.89,-112.78"/>
</a>
</g>
</g>
<!-- 22&#45;&gt;13 -->
<g id="edge34" class="edge">
<title>22&#45;&gt;13</title>
<g id="a_edge34"><a xlink:title="include">
<path fill="none" stroke="#1414ce" d="M670.17,-295.92C596.74,-282.67 460.81,-258.15 385.75,-244.61"/>
<polygon fill="#1414ce" stroke="#1414ce" points="386.04,-241.1 375.58,-242.77 384.8,-247.99 386.04,-241.1"/>
</a>
</g>
</g>
<!-- 22&#45;&gt;14 -->
<g id="edge31" class="edge">
<title>22&#45;&gt;14</title>
<g id="a_edge31"><a xlink:title="include">
<path fill="none" stroke="#1414ce" d="M670.46,-303.13C570.12,-298.71 348.12,-285.36 280.5,-252 251.21,-237.55 226.17,-209.13 210.58,-188.28"/>
<polygon fill="#1414ce" stroke="#1414ce" points="213.39,-186.19 204.69,-180.15 207.72,-190.3 213.39,-186.19"/>
</a>
</g>
</g>
<!-- 22&#45;&gt;23 -->
<g id="edge33" class="edge">
<title>22&#45;&gt;23</title>
<g id="a_edge33"><a xlink:title="include">
<path fill="none" stroke="#1414ce" d="M746.68,-287.88C760.54,-278.81 777.74,-267.55 792.71,-257.76"/>
<polygon fill="#1414ce" stroke="#1414ce" points="794.77,-260.59 801.22,-252.19 790.94,-254.74 794.77,-260.59"/>
</a>
</g>
</g>
<!-- 8&#45;&gt;4 -->
<g id="edge37" class="edge">
<title>8&#45;&gt;4</title>
<g id="a_edge37"><a xlink:title="include">
<path fill="none" stroke="#1414ce" d="M561.44,-446.97C624.22,-442.36 757.49,-428.88 787.5,-396 819.95,-360.45 807.57,-334.59 795.5,-288 790.91,-270.28 780.09,-269.72 775.5,-252 771.49,-236.51 773.65,-231.89 775.5,-216 779.3,-183.34 769.74,-167.73 792.5,-144 827.92,-107.08 886.79,-95.24 929.43,-91.75"/>
<polygon fill="#1414ce" stroke="#1414ce" points="929.89,-95.23 939.62,-91.05 929.41,-88.25 929.89,-95.23"/>
</a>
</g>
</g>
<!-- 8&#45;&gt;21 -->
<g id="edge43" class="edge">
<title>8&#45;&gt;21</title>
<g id="a_edge43"><a xlink:title="include">
<path fill="none" stroke="#1414ce" d="M561.31,-437.28C590.19,-426.97 632.91,-411.71 667.4,-399.39"/>
<polygon fill="#1414ce" stroke="#1414ce" points="668.65,-402.66 676.89,-396 666.29,-396.07 668.65,-402.66"/>
</a>
</g>
</g>
<!-- 8&#45;&gt;19 -->
<g id="edge44" class="edge">
<title>8&#45;&gt;19</title>
<g id="a_edge44"><a xlink:title="include">
<path fill="none" stroke="#1414ce" d="M534.32,-431.56C537.43,-421.33 540.93,-408.08 542.5,-396 552.21,-321.24 529.8,-233.36 516.48,-190"/>
<polygon fill="#1414ce" stroke="#1414ce" points="519.74,-188.7 513.4,-180.21 513.07,-190.8 519.74,-188.7"/>
</a>
</g>
</g>
<!-- 8&#45;&gt;10 -->
<g id="edge38" class="edge">
<title>8&#45;&gt;10</title>
<g id="a_edge38"><a xlink:title="include">
<path fill="none" stroke="#1414ce" d="M495.83,-446.29C437.68,-440.76 319.82,-426.04 293.5,-396 203.12,-292.85 304.61,-111.87 347.87,-44.89"/>
<polygon fill="#1414ce" stroke="#1414ce" points="351,-46.49 353.56,-36.21 345.15,-42.65 351,-46.49"/>
</a>
</g>
</g>
<!-- 8&#45;&gt;11 -->
<g id="edge40" class="edge">
<title>8&#45;&gt;11</title>
<g id="a_edge40"><a xlink:title="include">
<path fill="none" stroke="#1414ce" d="M524.68,-431.93C520.67,-414.02 514.16,-385.02 508.5,-360 486.94,-264.69 417.29,-227.83 467.5,-144 473.88,-133.34 498.45,-120.16 521.51,-109.61"/>
<polygon fill="#1414ce" stroke="#1414ce" points="523.2,-112.69 530.9,-105.41 520.34,-106.3 523.2,-112.69"/>
</a>
</g>
</g>
<!-- 8&#45;&gt;13 -->
<g id="edge42" class="edge">
<title>8&#45;&gt;13</title>
<g id="a_edge42"><a xlink:title="include">
<path fill="none" stroke="#1414ce" d="M495.92,-446.23C439.25,-440.67 326.28,-426 302.5,-396 286.3,-375.56 308.72,-301.74 322.73,-261.54"/>
<polygon fill="#1414ce" stroke="#1414ce" points="326.04,-262.69 326.09,-252.09 319.44,-260.35 326.04,-262.69"/>
</a>
</g>
</g>
<!-- 9 -->
<g id="node21" class="node">
<title>9</title>
<g id="a_node21"><a xlink:title="sys/types.h">
<polygon fill="#ffffff" stroke="black" points="409,-396 312,-396 312,-360 409,-360 409,-396"/>
<text text-anchor="middle" x="360.5" y="-374.3" font-family="Times,serif" font-size="14.00">sys/types.h</text>
</a>
</g>
</g>
<!-- 8&#45;&gt;9 -->
<g id="edge36" class="edge">
<title>8&#45;&gt;9</title>
<g id="a_edge36"><a xlink:title="include">
<path fill="none" stroke="#1414ce" d="M495.71,-435.34C471.62,-425.3 438.45,-411.48 410.99,-400.04"/>
<polygon fill="#1414ce" stroke="#1414ce" points="412.12,-396.71 401.54,-396.1 409.42,-403.18 412.12,-396.71"/>
</a>
</g>
</g>
<!-- 12 -->
<g id="node22" class="node">
<title>12</title>
<g id="a_node22"><a xlink:title="string.h">
<polygon fill="#ffffff" stroke="black" points="500,-396 427,-396 427,-360 500,-360 500,-396"/>
<text text-anchor="middle" x="463.5" y="-374.3" font-family="Times,serif" font-size="14.00">string.h</text>
</a>
</g>
</g>
<!-- 8&#45;&gt;12 -->
<g id="edge41" class="edge">
<title>8&#45;&gt;12</title>
<g id="a_edge41"><a xlink:title="include">
<path fill="none" stroke="#1414ce" d="M512.43,-431.7C504.56,-423.22 494.94,-412.86 486.33,-403.58"/>
<polygon fill="#1414ce" stroke="#1414ce" points="488.75,-401.05 479.38,-396.1 483.62,-405.81 488.75,-401.05"/>
</a>
</g>
</g>
<!-- 8&#45;&gt;15 -->
<g id="edge45" class="edge">
<title>8&#45;&gt;15</title>
<g id="a_edge45"><a xlink:title="include">
<path fill="none" stroke="#1414ce" d="M495.84,-447.14C427.31,-442.63 271.55,-428.94 231.5,-396 151.94,-330.57 166.49,-281.24 147.5,-180 144.55,-164.27 141.45,-158.81 147.5,-144 151.99,-133.02 159.97,-123.08 168.35,-114.86"/>
<polygon fill="#1414ce" stroke="#1414ce" points="170.74,-117.42 175.75,-108.09 166.01,-112.26 170.74,-117.42"/>
</a>
</g>
</g>
<!-- 8&#45;&gt;6 -->
<g id="edge39" class="edge">
<title>8&#45;&gt;6</title>
<g id="a_edge39"><a xlink:title="include">
<path fill="none" stroke="#1414ce" d="M539.48,-431.82C545.64,-421.68 553.14,-408.43 558.5,-396 601.17,-297.02 633.27,-172.35 646.22,-118.19"/>
<polygon fill="#1414ce" stroke="#1414ce" points="649.66,-118.86 648.56,-108.32 642.85,-117.25 649.66,-118.86"/>
</a>
</g>
</g>
<!-- 14&#45;&gt;15 -->
<g id="edge46" class="edge">
<title>14&#45;&gt;15</title>
<g id="a_edge46"><a xlink:title="include">
<path fill="none" stroke="#1414ce" d="M194.98,-143.7C195.64,-135.98 196.44,-126.71 197.18,-118.11"/>
<polygon fill="#1414ce" stroke="#1414ce" points="200.67,-118.37 198.03,-108.1 193.69,-117.77 200.67,-118.37"/>
</a>
</g>
</g>
<!-- 17 -->
<g id="node19" class="node">
<title>17</title>
<g id="a_node19"><a xlink:title="limits.h">
<polygon fill="#ffffff" stroke="black" points="204,-36 133,-36 133,0 204,0 204,-36"/>
<text text-anchor="middle" x="168.5" y="-14.3" font-family="Times,serif" font-size="14.00">limits.h</text>
</a>
</g>
</g>
<!-- 27 -->
<g id="node20" class="node">
<title>27</title>
<g id="a_node20"><a xlink:title="atom_table.h">
<polygon fill="#ffffff" stroke="black" points="1036,-252 927,-252 927,-216 1036,-216 1036,-252"/>
<text text-anchor="middle" x="981.5" y="-230.3" font-family="Times,serif" font-size="14.00">atom_table.h</text>
</a>
</g>
</g>
<!-- 27&#45;&gt;4 -->
<g id="edge47" class="edge">
<title>27&#45;&gt;4</title>
<g id="a_edge47"><a xlink:title="include">
<path fill="none" stroke="#1414ce" d="M981.5,-215.87C981.5,-191.67 981.5,-147.21 981.5,-118.39"/>
<polygon fill="#1414ce" stroke="#1414ce" points="985,-118.19 981.5,-108.19 978,-118.19 985,-118.19"/>
</a>
</g>
</g>
<!-- 27&#45;&gt;26 -->
<g id="edge48" class="edge">
<title>27&#45;&gt;26</title>
<g id="a_edge48"><a xlink:title="include">
<path fill="none" stroke="#1414ce" d="M945.54,-215.88C924.72,-205.96 898.39,-193.43 876.61,-183.05"/>
<polygon fill="#1414ce" stroke="#1414ce" points="878.11,-179.89 867.58,-178.75 875.1,-186.21 878.11,-179.89"/>
</a>
</g>
</g>
<!-- 15&#45;&gt;16 -->
<g id="edge49" class="edge">
<title>15&#45;&gt;16</title>
<g id="a_edge49"><a xlink:title="include">
<path fill="none" stroke="#1414ce" d="M169.66,-71.88C153.56,-62.64 133.5,-51.13 116.21,-41.21"/>
<polygon fill="#1414ce" stroke="#1414ce" points="117.87,-38.13 107.46,-36.19 114.39,-44.2 117.87,-38.13"/>
</a>
</g>
</g>
<!-- 15&#45;&gt;10 -->
<g id="edge52" class="edge">
<title>15&#45;&gt;10</title>
<g id="a_edge52"><a xlink:title="include">
<path fill="none" stroke="#1414ce" d="M240.11,-71.88C264.28,-61.68 295.01,-48.73 320,-38.19"/>
<polygon fill="#1414ce" stroke="#1414ce" points="321.41,-41.39 329.27,-34.28 318.69,-34.94 321.41,-41.39"/>
</a>
</g>
</g>
<!-- 15&#45;&gt;17 -->
<g id="edge50" class="edge">
<title>15&#45;&gt;17</title>
<g id="a_edge50"><a xlink:title="include">
<path fill="none" stroke="#1414ce" d="M191.84,-71.7C188.31,-63.73 184.04,-54.1 180.13,-45.26"/>
<polygon fill="#1414ce" stroke="#1414ce" points="183.32,-43.83 176.07,-36.1 176.92,-46.67 183.32,-43.83"/>
</a>
</g>
</g>
<!-- 18 -->
<g id="node32" class="node">
<title>18</title>
<g id="a_node32"><a xlink:title="inttypes.h">
<polygon fill="#ffffff" stroke="black" points="311,-36 222,-36 222,0 311,0 311,-36"/>
<text text-anchor="middle" x="266.5" y="-14.3" font-family="Times,serif" font-size="14.00">inttypes.h</text>
</a>
</g>
</g>
<!-- 15&#45;&gt;18 -->
<g id="edge51" class="edge">
<title>15&#45;&gt;18</title>
<g id="a_edge51"><a xlink:title="include">
<path fill="none" stroke="#1414ce" d="M216.06,-71.7C224.18,-63.22 234.09,-52.86 242.97,-43.58"/>
<polygon fill="#1414ce" stroke="#1414ce" points="245.74,-45.75 250.13,-36.1 240.69,-40.91 245.74,-45.75"/>
</a>
</g>
</g>
<!-- 25&#45;&gt;26 -->
<g id="edge54" class="edge">
<title>25&#45;&gt;26</title>
<g id="a_edge54"><a xlink:title="include">
<path fill="none" stroke="#1414ce" d="M1150.79,-575.98C1134.69,-536.19 1091.27,-434.78 1038.5,-360 1013.12,-324.04 1003.89,-316.68 970.5,-288 949.18,-269.68 939.82,-270.32 918.5,-252 895.34,-232.1 871.71,-206.49 855.43,-187.85"/>
<polygon fill="#1414ce" stroke="#1414ce" points="857.9,-185.36 848.72,-180.08 852.61,-189.94 857.9,-185.36"/>
</a>
</g>
</g>
<!-- 25&#45;&gt;5 -->
<g id="edge61" class="edge">
<title>25&#45;&gt;5</title>
<g id="a_edge61"><a xlink:title="include">
<path fill="none" stroke="#1414ce" d="M1170.17,-575.57C1176.97,-565.56 1185.05,-552.52 1190.5,-540 1206.84,-502.43 1214.5,-491.97 1214.5,-451 1214.5,-451 1214.5,-451 1214.5,-377 1214.5,-336.99 1213.29,-290.65 1212.41,-262.08"/>
<polygon fill="#1414ce" stroke="#1414ce" points="1215.91,-261.93 1212.09,-252.05 1208.91,-262.15 1215.91,-261.93"/>
</a>
</g>
</g>
<!-- 25&#45;&gt;3 -->
<g id="edge58" class="edge">
<title>25&#45;&gt;3</title>
<g id="a_edge58"><a xlink:title="include">
<path fill="none" stroke="#1414ce" d="M1188.4,-575.82C1225.41,-552.69 1282.5,-507.82 1282.5,-451 1282.5,-451 1282.5,-451 1282.5,-305 1282.5,-264.55 1286.82,-249.05 1263.5,-216 1251.3,-198.71 1231.5,-185.94 1213.97,-177.28"/>
<polygon fill="#1414ce" stroke="#1414ce" points="1215.07,-173.93 1204.53,-172.88 1212.11,-180.28 1215.07,-173.93"/>
</a>
</g>
</g>
<!-- 25&#45;&gt;10 -->
<g id="edge53" class="edge">
<title>25&#45;&gt;10</title>
<g id="a_edge53"><a xlink:title="include">
<path fill="none" stroke="#1414ce" d="M1221.04,-587.69C1296.62,-580.35 1417.25,-565.1 1454.5,-540 1493.26,-513.89 1510.5,-497.73 1510.5,-451 1510.5,-451 1510.5,-451 1510.5,-377 1510.5,-300.79 1605.32,-283.27 1569.5,-216 1495.25,-76.55 1399.66,-101.78 1244.5,-72 1082.69,-40.95 570.21,-24.61 412.29,-20.23"/>
<polygon fill="#1414ce" stroke="#1414ce" points="412.06,-16.72 401.97,-19.94 411.87,-23.72 412.06,-16.72"/>
</a>
</g>
</g>
<!-- 25&#45;&gt;8 -->
<g id="edge62" class="edge">
<title>25&#45;&gt;8</title>
<g id="a_edge62"><a xlink:title="include">
<path fill="none" stroke="#1414ce" d="M1093.73,-578.6C965.44,-549.64 679.21,-485.02 571.02,-460.6"/>
<polygon fill="#1414ce" stroke="#1414ce" points="571.64,-457.15 561.12,-458.36 570.1,-463.98 571.64,-457.15"/>
</a>
</g>
</g>
<!-- 25&#45;&gt;14 -->
<g id="edge56" class="edge">
<title>25&#45;&gt;14</title>
<g id="a_edge56"><a xlink:title="include">
<path fill="none" stroke="#1414ce" d="M1093.81,-590.31C897.01,-580.5 305.15,-539.36 193.5,-396 146.38,-335.49 169.05,-236.82 183.99,-189.69"/>
<polygon fill="#1414ce" stroke="#1414ce" points="187.31,-190.78 187.12,-180.18 180.66,-188.59 187.31,-190.78"/>
</a>
</g>
</g>
<!-- 25&#45;&gt;27 -->
<g id="edge55" class="edge">
<title>25&#45;&gt;27</title>
<g id="a_edge55"><a xlink:title="include">
<path fill="none" stroke="#1414ce" d="M1159.47,-575.71C1162.33,-545.83 1165.93,-482.83 1152.5,-432 1134.01,-362.03 1127.07,-339.76 1076.5,-288 1064.14,-275.35 1048.12,-264.87 1032.76,-256.65"/>
<polygon fill="#1414ce" stroke="#1414ce" points="1034.32,-253.52 1023.83,-252.08 1031.14,-259.75 1034.32,-253.52"/>
</a>
</g>
</g>
<!-- 25&#45;&gt;7 -->
<g id="edge60" class="edge">
<title>25&#45;&gt;7</title>
<g id="a_edge60"><a xlink:title="include">
<path fill="none" stroke="#1414ce" d="M1209.63,-575.92C1228.83,-567.55 1249.52,-555.8 1264.5,-540 1358.73,-440.6 1351.41,-258.6 1344.76,-190.06"/>
<polygon fill="#1414ce" stroke="#1414ce" points="1348.24,-189.65 1343.72,-180.07 1341.28,-190.38 1348.24,-189.65"/>
</a>
</g>
</g>
<!-- 25&#45;&gt;28 -->
<g id="edge63" class="edge">
<title>25&#45;&gt;28</title>
<g id="a_edge63"><a xlink:title="include">
<path fill="none" stroke="#1414ce" d="M1221.24,-591.63C1313.29,-585.89 1472.5,-560.18 1472.5,-451 1472.5,-451 1472.5,-451 1472.5,-377 1472.5,-335.56 1488.14,-289.67 1499.61,-261.58"/>
<polygon fill="#1414ce" stroke="#1414ce" points="1502.95,-262.65 1503.61,-252.07 1496.5,-259.93 1502.95,-262.65"/>
</a>
</g>
</g>
<!-- 25&#45;&gt;23 -->
<g id="edge59" class="edge">
<title>25&#45;&gt;23</title>
<g id="a_edge59"><a xlink:title="include">
<path fill="none" stroke="#1414ce" d="M1123.94,-575.93C1084.54,-553.23 1024.5,-509.1 1024.5,-451 1024.5,-451 1024.5,-451 1024.5,-377 1024.5,-339.68 930.29,-286.07 872.17,-256.55"/>
<polygon fill="#1414ce" stroke="#1414ce" points="873.68,-253.39 863.18,-252.02 870.54,-259.64 873.68,-253.39"/>
</a>
</g>
</g>
<!-- 2 -->
<g id="node31" class="node">
<title>2</title>
<g id="a_node31"><a xlink:title="ets.h">
<polygon fill="#ffffff" stroke="black" points="996.5,-540 942.5,-540 942.5,-504 996.5,-504 996.5,-540"/>
<text text-anchor="middle" x="969.5" y="-518.3" font-family="Times,serif" font-size="14.00">ets.h</text>
</a>
</g>
</g>
<!-- 25&#45;&gt;2 -->
<g id="edge57" class="edge">
<title>25&#45;&gt;2</title>
<g id="a_edge57"><a xlink:title="include">
<path fill="none" stroke="#1414ce" d="M1108.29,-575.91C1079.63,-565.79 1042.88,-552.54 1010.5,-540 1009.11,-539.46 1007.69,-538.91 1006.26,-538.34"/>
<polygon fill="#1414ce" stroke="#1414ce" points="1007.36,-535.01 996.78,-534.52 1004.74,-541.5 1007.36,-535.01"/>
</a>
</g>
</g>
<!-- 32 -->
<g id="node25" class="node">
<title>32</title>
<g id="a_node25"><a xlink:title="overflow_helpers.h">
<polygon fill="#ffffff" stroke="black" points="151,-540 0,-540 0,-504 151,-504 151,-540"/>
<text text-anchor="middle" x="75.5" y="-518.3" font-family="Times,serif" font-size="14.00">overflow_helpers.h</text>
</a>
</g>
</g>
<!-- 32&#45;&gt;10 -->
<g id="edge65" class="edge">
<title>32&#45;&gt;10</title>
<g id="a_edge65"><a xlink:title="include">
<path fill="none" stroke="#1414ce" d="M77.87,-503.99C81.37,-477.38 87.5,-424.28 87.5,-379 87.5,-379 87.5,-379 87.5,-161 87.5,-117.63 93.42,-98.82 127.5,-72 195.72,-18.3 235.82,-59.13 319.5,-36 319.6,-35.97 319.7,-35.94 319.8,-35.92"/>
<polygon fill="#1414ce" stroke="#1414ce" points="320.73,-39.29 329.28,-33.03 318.69,-32.6 320.73,-39.29"/>
</a>
</g>
</g>
<!-- 32&#45;&gt;8 -->
<g id="edge64" class="edge">
<title>32&#45;&gt;8</title>
<g id="a_edge64"><a xlink:title="include">
<path fill="none" stroke="#1414ce" d="M151.07,-509.32C246.87,-494.52 408.81,-469.5 485.61,-457.63"/>
<polygon fill="#1414ce" stroke="#1414ce" points="486.52,-461.03 495.87,-456.04 485.45,-454.11 486.52,-461.03"/>
</a>
</g>
</g>
<!-- 7&#45;&gt;4 -->
<g id="edge66" class="edge">
<title>7&#45;&gt;4</title>
<g id="a_edge66"><a xlink:title="include">
<path fill="none" stroke="#1414ce" d="M1311.43,-155.15C1249.97,-143.2 1109.36,-115.86 1033.05,-101.02"/>
<polygon fill="#1414ce" stroke="#1414ce" points="1033.66,-97.58 1023.18,-99.1 1032.32,-104.45 1033.66,-97.58"/>
</a>
</g>
</g>
<!-- 28&#45;&gt;4 -->
<g id="edge67" class="edge">
<title>28&#45;&gt;4</title>
<g id="a_edge67"><a xlink:title="include">
<path fill="none" stroke="#1414ce" d="M1492.72,-215.99C1468.63,-195.24 1424.69,-160.85 1380.5,-144 1262.09,-98.83 1111.2,-91.06 1033.28,-90.37"/>
<polygon fill="#1414ce" stroke="#1414ce" points="1033.26,-86.87 1023.24,-90.32 1033.22,-93.87 1033.26,-86.87"/>
</a>
</g>
</g>
<!-- 28&#45;&gt;3 -->
<g id="edge69" class="edge">
<title>28&#45;&gt;3</title>
<g id="a_edge69"><a xlink:title="include">
<path fill="none" stroke="#1414ce" d="M1462.22,-222.67C1394.63,-208.51 1274.71,-183.37 1214.36,-170.73"/>
<polygon fill="#1414ce" stroke="#1414ce" points="1215.01,-167.29 1204.51,-168.66 1213.58,-174.14 1215.01,-167.29"/>
</a>
</g>
</g>
<!-- 28&#45;&gt;10 -->
<g id="edge68" class="edge">
<title>28&#45;&gt;10</title>
<g id="a_edge68"><a xlink:title="include">
<path fill="none" stroke="#1414ce" d="M1500.25,-215.82C1485.78,-195.23 1458.66,-161.34 1426.5,-144 1246.93,-47.16 592.46,-24.45 411.91,-19.98"/>
<polygon fill="#1414ce" stroke="#1414ce" points="411.77,-16.47 401.69,-19.73 411.6,-23.47 411.77,-16.47"/>
</a>
</g>
</g>
<!-- 23&#45;&gt;4 -->
<g id="edge70" class="edge">
<title>23&#45;&gt;4</title>
<g id="a_edge70"><a xlink:title="include">
<path fill="none" stroke="#1414ce" d="M846.08,-215.87C873.36,-190.71 924.4,-143.65 955.43,-115.04"/>
<polygon fill="#1414ce" stroke="#1414ce" points="957.88,-117.54 962.86,-108.19 953.13,-112.4 957.88,-117.54"/>
</a>
</g>
</g>
<!-- 23&#45;&gt;19 -->
<g id="edge73" class="edge">
<title>23&#45;&gt;19</title>
<g id="a_edge73"><a xlink:title="include">
<path fill="none" stroke="#1414ce" d="M784.34,-223.56C722.58,-210.05 609.73,-185.36 548.93,-172.06"/>
<polygon fill="#1414ce" stroke="#1414ce" points="549.44,-168.59 538.92,-169.87 547.94,-175.43 549.44,-168.59"/>
</a>
</g>
</g>
<!-- 23&#45;&gt;3 -->
<g id="edge71" class="edge">
<title>23&#45;&gt;3</title>
<g id="a_edge71"><a xlink:title="include">
<path fill="none" stroke="#1414ce" d="M870.77,-224.35C940.21,-210.46 1075.34,-183.43 1140.55,-170.39"/>
<polygon fill="#1414ce" stroke="#1414ce" points="1141.27,-173.82 1150.39,-168.42 1139.9,-166.95 1141.27,-173.82"/>
</a>
</g>
</g>
<!-- 23&#45;&gt;15 -->
<g id="edge72" class="edge">
<title>23&#45;&gt;15</title>
<g id="a_edge72"><a xlink:title="include">
<path fill="none" stroke="#1414ce" d="M784.37,-229.11C716.35,-222.42 580.28,-206.81 467.5,-180 391.39,-161.91 306.04,-131.79 252.53,-111.67"/>
<polygon fill="#1414ce" stroke="#1414ce" points="253.52,-108.3 242.92,-108.03 251.04,-114.85 253.52,-108.3"/>
</a>
</g>
</g>
<!-- 1 -->
<g id="node30" class="node">
<title>1</title>
<g id="a_node30"><a xlink:title="/__w/AtomVM/AtomVM/src/libAtomVM/ets.c">
<polygon fill="#bfbfbf" stroke="black" points="938,-756 611,-756 611,-720 938,-720 938,-756"/>
<text text-anchor="middle" x="774.5" y="-734.3" font-family="Times,serif" font-size="14.00">/__w/AtomVM/AtomVM/src/libAtomVM/ets.c</text>
</a>
</g>
</g>
<!-- 1&#45;&gt;29 -->
<g id="edge76" class="edge">
<title>1&#45;&gt;29</title>
<g id="a_edge76"><a xlink:title="include">
<path fill="none" stroke="#1414ce" d="M916.71,-719.98C983.78,-711.18 1065.05,-699.39 1146.32,-684.14"/>
<polygon fill="#1414ce" stroke="#1414ce" points="1147.06,-687.56 1156.23,-682.26 1145.76,-680.68 1147.06,-687.56"/>
</a>
</g>
</g>
<!-- 1&#45;&gt;3 -->
<g id="edge78" class="edge">
<title>1&#45;&gt;3</title>
<g id="a_edge78"><a xlink:title="include">
<path fill="none" stroke="#1414ce" d="M938.28,-724.31C1169.47,-704.66 1568.15,-663.69 1609.5,-612 1619.5,-599.51 1614.97,-591.04 1609.5,-576 1573.79,-477.87 1525.35,-476.22 1458.5,-396 1392.02,-316.22 1393.38,-277.23 1309.5,-216 1280.72,-194.99 1242.45,-180.83 1214.53,-172.47"/>
<polygon fill="#1414ce" stroke="#1414ce" points="1215.33,-169.06 1204.75,-169.65 1213.39,-175.78 1215.33,-169.06"/>
</a>
</g>
</g>
<!-- 1&#45;&gt;24 -->
<g id="edge75" class="edge">
<title>1&#45;&gt;24</title>
<g id="a_edge75"><a xlink:title="include">
<path fill="none" stroke="#1414ce" d="M852.86,-719.97C912.55,-706.99 993.02,-689.5 1044.84,-678.23"/>
<polygon fill="#1414ce" stroke="#1414ce" points="1045.78,-681.61 1054.81,-676.06 1044.3,-674.77 1045.78,-681.61"/>
</a>
</g>
</g>
<!-- 1&#45;&gt;31 -->
<g id="edge77" class="edge">
<title>1&#45;&gt;31</title>
<g id="a_edge77"><a xlink:title="include">
<path fill="none" stroke="#1414ce" d="M750.52,-719.7C738.19,-710.8 722.98,-699.82 709.65,-690.2"/>
<polygon fill="#1414ce" stroke="#1414ce" points="711.36,-687.12 701.2,-684.1 707.26,-692.79 711.36,-687.12"/>
</a>
</g>
</g>
<!-- 1&#45;&gt;13 -->
<g id="edge79" class="edge">
<title>1&#45;&gt;13</title>
<g id="a_edge79"><a xlink:title="include">
<path fill="none" stroke="#1414ce" d="M648.76,-719.99C616.86,-712.15 583.68,-700.7 555.5,-684 406.64,-595.77 355.93,-557.39 293.5,-396 286.22,-377.18 296.75,-299.31 300.5,-288 303.63,-278.56 308.68,-269.02 313.85,-260.68"/>
<polygon fill="#1414ce" stroke="#1414ce" points="316.87,-262.46 319.42,-252.18 311.01,-258.62 316.87,-262.46"/>
</a>
</g>
</g>
<!-- 1&#45;&gt;8 -->
<g id="edge81" class="edge">
<title>1&#45;&gt;8</title>
<g id="a_edge81"><a xlink:title="include">
<path fill="none" stroke="#1414ce" d="M688.45,-719.97C631,-703.38 560.65,-671.56 530.5,-612 508.86,-569.24 515.31,-511.54 521.93,-478.09"/>
<polygon fill="#1414ce" stroke="#1414ce" points="525.39,-478.65 524.05,-468.14 518.54,-477.19 525.39,-478.65"/>
</a>
</g>
</g>
<!-- 1&#45;&gt;32 -->
<g id="edge80" class="edge">
<title>1&#45;&gt;32</title>
<g id="a_edge80"><a xlink:title="include">
<path fill="none" stroke="#1414ce" d="M610.76,-730.61C443.16,-722.82 202.15,-707.7 165.5,-684 117.65,-653.06 92.84,-587.35 82.15,-550.15"/>
<polygon fill="#1414ce" stroke="#1414ce" points="85.4,-548.76 79.4,-540.03 78.65,-550.6 85.4,-548.76"/>
</a>
</g>
</g>
<!-- 1&#45;&gt;2 -->
<g id="edge74" class="edge">
<title>1&#45;&gt;2</title>
<g id="a_edge74"><a xlink:title="include">
<path fill="none" stroke="#1414ce" d="M790.13,-719.85C824.5,-682.13 906.78,-591.83 946.83,-547.88"/>
<polygon fill="#1414ce" stroke="#1414ce" points="949.65,-549.98 953.8,-540.23 944.48,-545.27 949.65,-549.98"/>
</a>
</g>
</g>
<!-- 2&#45;&gt;5 -->
<g id="edge83" class="edge">
<title>2&#45;&gt;5</title>
<g id="a_edge83"><a xlink:title="include">
<path fill="none" stroke="#1414ce" d="M996.74,-512.53C1020.09,-504.19 1053.5,-489.54 1076.5,-468 1141.18,-407.4 1184.1,-308.77 1202.02,-261.67"/>
<polygon fill="#1414ce" stroke="#1414ce" points="1205.35,-262.76 1205.56,-252.17 1198.79,-260.32 1205.35,-262.76"/>
</a>
</g>
</g>
<!-- 2&#45;&gt;3 -->
<g id="edge82" class="edge">
<title>2&#45;&gt;3</title>
<g id="a_edge82"><a xlink:title="include">
<path fill="none" stroke="#1414ce" d="M979.53,-503.73C1013.17,-445.84 1122.09,-258.36 1162.36,-189.06"/>
<polygon fill="#1414ce" stroke="#1414ce" points="1165.57,-190.5 1167.57,-180.09 1159.52,-186.98 1165.57,-190.5"/>
</a>
</g>
</g>
<!-- 2&#45;&gt;8 -->
<g id="edge84" class="edge">
<title>2&#45;&gt;8</title>
<g id="a_edge84"><a xlink:title="include">
<path fill="none" stroke="#1414ce" d="M942.25,-516.67C867.91,-504.88 661.22,-472.07 571.26,-457.79"/>
<polygon fill="#1414ce" stroke="#1414ce" points="571.56,-454.29 561.13,-456.18 570.46,-461.2 571.56,-454.29"/>
</a>
</g>
</g>
</g>
</svg>
