<?xml version="1.0" encoding="UTF-8" standalone="no"?>
<!DOCTYPE svg PUBLIC "-//W3C//DTD SVG 1.1//EN"
 "http://www.w3.org/Graphics/SVG/1.1/DTD/svg11.dtd">
<!-- Generated by graphviz version 2.43.0 (0)
 -->
<!-- Title: %3 Pages: 1 -->
<svg width="553pt" height="188pt"
 viewBox="0.00 0.00 552.50 188.00" xmlns="http://www.w3.org/2000/svg" xmlns:xlink="http://www.w3.org/1999/xlink">
<g id="graph0" class="graph" transform="scale(1 1) rotate(0) translate(4 184)">
<title>%3</title>
<polygon fill="transparent" stroke="transparent" points="-4,4 -4,-184 548.5,-184 548.5,4 -4,4"/>
<!-- 10 -->
<g id="node1" class="node">
<title>10</title>
<g id="a_node1"><a xlink:title="smp.h">
<polygon fill="#ffffff" stroke="black" points="135.5,-108 75.5,-108 75.5,-72 135.5,-72 135.5,-108"/>
<text text-anchor="middle" x="105.5" y="-86.3" font-family="Times,serif" font-size="14.00">smp.h</text>
</a>
</g>
</g>
<!-- 7 -->
<g id="node6" class="node">
<title>7</title>
<g id="a_node6"><a xlink:title="stdbool.h">
<polygon fill="#ffffff" stroke="black" points="83,-36 0,-36 0,0 83,0 83,-36"/>
<text text-anchor="middle" x="41.5" y="-14.3" font-family="Times,serif" font-size="14.00">stdbool.h</text>
</a>
</g>
</g>
<!-- 10&#45;&gt;7 -->
<g id="edge1" class="edge">
<title>10&#45;&gt;7</title>
<g id="a_edge1"><a xlink:title="include">
<path fill="none" stroke="#1414ce" d="M89.68,-71.7C81.93,-63.22 72.46,-52.86 63.98,-43.58"/>
<polygon fill="#1414ce" stroke="#1414ce" points="66.47,-41.12 57.14,-36.1 61.3,-45.85 66.47,-41.12"/>
</a>
</g>
</g>
<!-- 5 -->
<g id="node2" class="node">
<title>5</title>
<g id="a_node2"><a xlink:title="utils.h">
<polygon fill="#ffffff" stroke="black" points="275.5,-108 213.5,-108 213.5,-72 275.5,-72 275.5,-108"/>
<text text-anchor="middle" x="244.5" y="-86.3" font-family="Times,serif" font-size="14.00">utils.h</text>
</a>
</g>
</g>
<!-- 6 -->
<g id="node5" class="node">
<title>6</title>
<g id="a_node5"><a xlink:title="inttypes.h">
<polygon fill="#ffffff" stroke="black" points="190,-36 101,-36 101,0 190,0 190,-36"/>
<text text-anchor="middle" x="145.5" y="-14.3" font-family="Times,serif" font-size="14.00">inttypes.h</text>
</a>
</g>
</g>
<!-- 5&#45;&gt;6 -->
<g id="edge2" class="edge">
<title>5&#45;&gt;6</title>
<g id="a_edge2"><a xlink:title="include">
<path fill="none" stroke="#1414ce" d="M220.28,-71.88C207.58,-62.89 191.84,-51.76 178.08,-42.03"/>
<polygon fill="#1414ce" stroke="#1414ce" points="180,-39.11 169.81,-36.19 175.96,-44.82 180,-39.11"/>
</a>
</g>
</g>
<!-- 5&#45;&gt;7 -->
<g id="edge3" class="edge">
<title>5&#45;&gt;7</title>
<g id="a_edge3"><a xlink:title="include">
<path fill="none" stroke="#1414ce" d="M213.23,-78.22C181.17,-67.16 130.78,-49.79 92.86,-36.71"/>
<polygon fill="#1414ce" stroke="#1414ce" points="93.61,-33.27 83.01,-33.32 91.33,-39.88 93.61,-33.27"/>
</a>
</g>
</g>
<!-- 3 -->
<g id="node7" class="node">
<title>3</title>
<g id="a_node7"><a xlink:title="stddef.h">
<polygon fill="#ffffff" stroke="black" points="454.5,-36 380.5,-36 380.5,0 454.5,0 454.5,-36"/>
<text text-anchor="middle" x="417.5" y="-14.3" font-family="Times,serif" font-size="14.00">stddef.h</text>
</a>
</g>
</g>
<!-- 5&#45;&gt;3 -->
<g id="edge4" class="edge">
<title>5&#45;&gt;3</title>
<g id="a_edge4"><a xlink:title="include">
<path fill="none" stroke="#1414ce" d="M275.83,-76.32C302.36,-65.59 340.79,-50.04 370.92,-37.85"/>
<polygon fill="#1414ce" stroke="#1414ce" points="372.44,-41.01 380.39,-34.01 369.81,-34.52 372.44,-41.01"/>
</a>
</g>
</g>
<!-- 8 -->
<g id="node9" class="node">
<title>8</title>
<g id="a_node9"><a xlink:title="stdio.h">
<polygon fill="#ffffff" stroke="black" points="273,-36 208,-36 208,0 273,0 273,-36"/>
<text text-anchor="middle" x="240.5" y="-14.3" font-family="Times,serif" font-size="14.00">stdio.h</text>
</a>
</g>
</g>
<!-- 5&#45;&gt;8 -->
<g id="edge5" class="edge">
<title>5&#45;&gt;8</title>
<g id="a_edge5"><a xlink:title="include">
<path fill="none" stroke="#1414ce" d="M243.51,-71.7C243.07,-63.98 242.54,-54.71 242.05,-46.11"/>
<polygon fill="#1414ce" stroke="#1414ce" points="245.54,-45.89 241.48,-36.1 238.55,-46.29 245.54,-45.89"/>
</a>
</g>
</g>
<!-- 9 -->
<g id="node10" class="node">
<title>9</title>
<g id="a_node10"><a xlink:title="stdlib.h">
<polygon fill="#ffffff" stroke="black" points="362,-36 291,-36 291,0 362,0 362,-36"/>
<text text-anchor="middle" x="326.5" y="-14.3" font-family="Times,serif" font-size="14.00">stdlib.h</text>
</a>
</g>
</g>
<!-- 5&#45;&gt;9 -->
<g id="edge6" class="edge">
<title>5&#45;&gt;9</title>
<g id="a_edge6"><a xlink:title="include">
<path fill="none" stroke="#1414ce" d="M264.77,-71.7C275,-62.97 287.56,-52.24 298.68,-42.75"/>
<polygon fill="#1414ce" stroke="#1414ce" points="301.13,-45.26 306.46,-36.1 296.59,-39.94 301.13,-45.26"/>
</a>
</g>
</g>
<!-- 1 -->
<g id="node3" class="node">
<title>1</title>
<g id="a_node3"><a xlink:title="/__w/AtomVM/AtomVM/src/libAtomVM/valueshashtable.c">
<polygon fill="#bfbfbf" stroke="black" points="489,-180 68,-180 68,-144 489,-144 489,-180"/>
<text text-anchor="middle" x="278.5" y="-158.3" font-family="Times,serif" font-size="14.00">/__w/AtomVM/AtomVM/src/libAtomVM/valueshashtable.c</text>
</a>
</g>
</g>
<!-- 1&#45;&gt;10 -->
<g id="edge10" class="edge">
<title>1&#45;&gt;10</title>
<g id="a_edge10"><a xlink:title="include">
<path fill="none" stroke="#1414ce" d="M236.18,-143.88C208.47,-132.67 172.5,-118.11 145.31,-107.11"/>
<polygon fill="#1414ce" stroke="#1414ce" points="146.31,-103.74 135.72,-103.23 143.68,-110.22 146.31,-103.74"/>
</a>
</g>
</g>
<!-- 1&#45;&gt;5 -->
<g id="edge8" class="edge">
<title>1&#45;&gt;5</title>
<g id="a_edge8"><a xlink:title="include">
<path fill="none" stroke="#1414ce" d="M270.1,-143.7C266.23,-135.73 261.55,-126.1 257.26,-117.26"/>
<polygon fill="#1414ce" stroke="#1414ce" points="260.33,-115.57 252.81,-108.1 254.03,-118.63 260.33,-115.57"/>
</a>
</g>
</g>
<!-- 2 -->
<g id="node4" class="node">
<title>2</title>
<g id="a_node4"><a xlink:title="valueshashtable.h">
<polygon fill="#ffffff" stroke="black" points="490.5,-108 344.5,-108 344.5,-72 490.5,-72 490.5,-108"/>
<text text-anchor="middle" x="417.5" y="-86.3" font-family="Times,serif" font-size="14.00">valueshashtable.h</text>
</a>
</g>
</g>
<!-- 1&#45;&gt;2 -->
<g id="edge7" class="edge">
<title>1&#45;&gt;2</title>
<g id="a_edge7"><a xlink:title="include">
<path fill="none" stroke="#1414ce" d="M312.5,-143.88C331.1,-134.51 354.33,-122.81 374.21,-112.8"/>
<polygon fill="#1414ce" stroke="#1414ce" points="376.01,-115.81 383.37,-108.19 372.86,-109.56 376.01,-115.81"/>
</a>
</g>
</g>
<!-- 1&#45;&gt;9 -->
<g id="edge9" class="edge">
<title>1&#45;&gt;9</title>
<g id="a_edge9"><a xlink:title="include">
<path fill="none" stroke="#1414ce" d="M284.29,-143.87C292.51,-119.56 307.63,-74.82 317.37,-46.01"/>
<polygon fill="#1414ce" stroke="#1414ce" points="320.8,-46.78 320.69,-36.19 314.17,-44.54 320.8,-46.78"/>
</a>
</g>
</g>
<!-- 2&#45;&gt;3 -->
<g id="edge11" class="edge">
<title>2&#45;&gt;3</title>
<g id="a_edge11"><a xlink:title="include">
<path fill="none" stroke="#1414ce" d="M417.5,-71.7C417.5,-63.98 417.5,-54.71 417.5,-46.11"/>
<polygon fill="#1414ce" stroke="#1414ce" points="421,-46.1 417.5,-36.1 414,-46.1 421,-46.1"/>
</a>
</g>
</g>
<!-- 4 -->
<g id="node8" class="node">
<title>4</title>
<g id="a_node8"><a xlink:title="stdint.h">
<polygon fill="#ffffff" stroke="black" points="544.5,-36 472.5,-36 472.5,0 544.5,0 544.5,-36"/>
<text text-anchor="middle" x="508.5" y="-14.3" font-family="Times,serif" font-size="14.00">stdint.h</text>
</a>
</g>
</g>
<!-- 2&#45;&gt;4 -->
<g id="edge12" class="edge">
<title>2&#45;&gt;4</title>
<g id="a_edge12"><a xlink:title="include">
<path fill="none" stroke="#1414ce" d="M439.99,-71.7C451.46,-62.88 465.56,-52.03 477.98,-42.47"/>
<polygon fill="#1414ce" stroke="#1414ce" points="480.47,-44.98 486.26,-36.1 476.2,-39.43 480.47,-44.98"/>
</a>
</g>
</g>
</g>
</svg>
