<?xml version="1.0" encoding="UTF-8" standalone="no"?>
<!DOCTYPE svg PUBLIC "-//W3C//DTD SVG 1.1//EN"
 "http://www.w3.org/Graphics/SVG/1.1/DTD/svg11.dtd">
<!-- Generated by graphviz version 2.43.0 (0)
 -->
<!-- Title: %3 Pages: 1 -->
<svg width="1326pt" height="548pt"
 viewBox="0.00 0.00 1326.00 548.00" xmlns="http://www.w3.org/2000/svg" xmlns:xlink="http://www.w3.org/1999/xlink">
<g id="graph0" class="graph" transform="scale(1 1) rotate(0) translate(4 544)">
<title>%3</title>
<polygon fill="transparent" stroke="transparent" points="-4,4 -4,-544 1322,-544 1322,4 -4,4"/>
<!-- 1 -->
<g id="node1" class="node">
<title>1</title>
<g id="a_node1"><a xlink:title="GCBif">
<polygon fill="#bfbfbf" stroke="black" points="1121.5,-540 1062.5,-540 1062.5,-504 1121.5,-504 1121.5,-540"/>
<text text-anchor="middle" x="1092" y="-518.3" font-family="Times,serif" font-size="14.00">GCBif</text>
</a>
</g>
</g>
<!-- 3 -->
<g id="node15" class="node">
<title>3</title>
<g id="a_node15"><a xlink:title="Context">
<polygon fill="#ffffff" stroke="black" points="1046.5,-468 973.5,-468 973.5,-432 1046.5,-432 1046.5,-468"/>
<text text-anchor="middle" x="1010" y="-446.3" font-family="Times,serif" font-size="14.00">Context</text>
</a>
</g>
</g>
<!-- 1&#45;&gt;3 -->
<g id="edge2" class="edge">
<title>1&#45;&gt;3</title>
<g id="a_edge2"><a xlink:title="usage">
<path fill="none" stroke="#1414ce" d="M1071.73,-503.7C1061.5,-494.97 1048.94,-484.24 1037.82,-474.75"/>
<polygon fill="#1414ce" stroke="#1414ce" points="1039.91,-471.94 1030.04,-468.1 1035.37,-477.26 1039.91,-471.94"/>
</a>
</g>
</g>
<!-- 2 -->
<g id="node21" class="node">
<title>2</title>
<g id="a_node21"><a xlink:title="ExportedFunction">
<polygon fill="#ffffff" stroke="black" points="1318,-252 1172,-252 1172,-216 1318,-216 1318,-252"/>
<text text-anchor="middle" x="1245" y="-230.3" font-family="Times,serif" font-size="14.00">ExportedFunction</text>
</a>
</g>
</g>
<!-- 1&#45;&gt;2 -->
<g id="edge1" class="edge">
<title>1&#45;&gt;2</title>
<g id="a_edge1"><a xlink:title="usage">
<path fill="none" stroke="#1414ce" d="M1101.11,-503.97C1126.83,-455.89 1200.1,-318.93 1230.99,-261.19"/>
<polygon fill="#1414ce" stroke="#1414ce" points="1234.11,-262.78 1235.74,-252.31 1227.94,-259.47 1234.11,-262.78"/>
</a>
</g>
</g>
<!-- 24 -->
<g id="node2" class="node">
<title>24</title>
<g id="a_node2"><a xlink:title="SpinLock">
<polygon fill="#ffffff" stroke="black" points="564,-324 482,-324 482,-288 564,-288 564,-324"/>
<text text-anchor="middle" x="523" y="-302.3" font-family="Times,serif" font-size="14.00">SpinLock</text>
</a>
</g>
</g>
<!-- 13 -->
<g id="node3" class="node">
<title>13</title>
<g id="a_node3"><a xlink:title="ResourceType">
<polygon fill="#ffffff" stroke="black" points="255.5,-180 138.5,-180 138.5,-144 255.5,-144 255.5,-180"/>
<text text-anchor="middle" x="197" y="-158.3" font-family="Times,serif" font-size="14.00">ResourceType</text>
</a>
</g>
</g>
<!-- 7 -->
<g id="node5" class="node">
<title>7</title>
<g id="a_node5"><a xlink:title="ListHead">
<polygon fill="#ffffff" stroke="black" points="308.5,-36 227.5,-36 227.5,0 308.5,0 308.5,-36"/>
<text text-anchor="middle" x="268" y="-14.3" font-family="Times,serif" font-size="14.00">ListHead</text>
</a>
</g>
</g>
<!-- 13&#45;&gt;7 -->
<g id="edge5" class="edge">
<title>13&#45;&gt;7</title>
<g id="a_edge5"><a xlink:title="usage">
<path fill="none" stroke="#1414ce" d="M197.82,-143.96C199.33,-125.3 203.66,-94.96 216,-72 221.71,-61.37 230.2,-51.43 238.66,-43.1"/>
<polygon fill="#1414ce" stroke="#1414ce" points="241.12,-45.6 246.03,-36.21 236.33,-40.48 241.12,-45.6"/>
</a>
</g>
</g>
<!-- 12 -->
<g id="node8" class="node">
<title>12</title>
<g id="a_node8"><a xlink:title="GlobalContext">
<polygon fill="#ffffff" stroke="black" points="418.5,-396 299.5,-396 299.5,-360 418.5,-360 418.5,-396"/>
<text text-anchor="middle" x="359" y="-374.3" font-family="Times,serif" font-size="14.00">GlobalContext</text>
</a>
</g>
</g>
<!-- 13&#45;&gt;12 -->
<g id="edge4" class="edge">
<title>13&#45;&gt;12</title>
<g id="a_edge4"><a xlink:title="usage">
<path fill="none" stroke="#1414ce" d="M200.81,-180.24C202.97,-212.34 204.06,-281.8 239,-324 252.21,-339.95 271,-351.16 289.82,-359.02"/>
<polygon fill="#1414ce" stroke="#1414ce" points="288.75,-362.36 299.34,-362.72 291.29,-355.83 288.75,-362.36"/>
</a>
</g>
</g>
<!-- 14 -->
<g id="node23" class="node">
<title>14</title>
<g id="a_node23"><a xlink:title="SyncList">
<polygon fill="#ffffff" stroke="black" points="151,-108 73,-108 73,-72 151,-72 151,-108"/>
<text text-anchor="middle" x="112" y="-86.3" font-family="Times,serif" font-size="14.00">SyncList</text>
</a>
</g>
</g>
<!-- 13&#45;&gt;14 -->
<g id="edge3" class="edge">
<title>13&#45;&gt;14</title>
<g id="a_edge3"><a xlink:title="usage">
<path fill="none" stroke="#1414ce" d="M175.99,-143.7C165.28,-134.88 152.11,-124.03 140.5,-114.47"/>
<polygon fill="#1414ce" stroke="#1414ce" points="142.71,-111.76 132.77,-108.1 138.26,-117.16 142.71,-111.76"/>
</a>
</g>
</g>
<!-- 8 -->
<g id="node4" class="node">
<title>8</title>
<g id="a_node4"><a xlink:title="Module">
<polygon fill="#ffffff" stroke="black" points="1108,-324 1038,-324 1038,-288 1108,-288 1108,-324"/>
<text text-anchor="middle" x="1073" y="-302.3" font-family="Times,serif" font-size="14.00">Module</text>
</a>
</g>
</g>
<!-- 9 -->
<g id="node12" class="node">
<title>9</title>
<g id="a_node12"><a xlink:title="LiteralEntry">
<polygon fill="#ffffff" stroke="black" points="1116,-252 1012,-252 1012,-216 1116,-216 1116,-252"/>
<text text-anchor="middle" x="1064" y="-230.3" font-family="Times,serif" font-size="14.00">LiteralEntry</text>
</a>
</g>
</g>
<!-- 8&#45;&gt;9 -->
<g id="edge7" class="edge">
<title>8&#45;&gt;9</title>
<g id="a_edge7"><a xlink:title="usage">
<path fill="none" stroke="#1414ce" d="M1070.78,-287.7C1069.78,-279.98 1068.59,-270.71 1067.49,-262.11"/>
<polygon fill="#1414ce" stroke="#1414ce" points="1070.95,-261.58 1066.2,-252.1 1064,-262.47 1070.95,-261.58"/>
</a>
</g>
</g>
<!-- 8&#45;&gt;2 -->
<g id="edge6" class="edge">
<title>8&#45;&gt;2</title>
<g id="a_edge6"><a xlink:title="usage">
<path fill="none" stroke="#1414ce" d="M1108.22,-290.67C1132.84,-280.65 1166.1,-267.11 1193.66,-255.89"/>
<polygon fill="#1414ce" stroke="#1414ce" points="1195.21,-259.04 1203.15,-252.03 1192.57,-252.56 1195.21,-259.04"/>
</a>
</g>
</g>
<!-- 7&#45;&gt;7 -->
<g id="edge8" class="edge">
<title>7&#45;&gt;7</title>
<g id="a_edge8"><a xlink:title="usage">
<path fill="none" stroke="#1414ce" d="M308.73,-31.31C318.9,-30.38 326.5,-25.95 326.5,-18 326.5,-12.91 323.38,-9.26 318.47,-7.05"/>
<polygon fill="#1414ce" stroke="#1414ce" points="319.28,-3.64 308.73,-4.69 317.63,-10.45 319.28,-3.64"/>
</a>
</g>
</g>
<!-- 11 -->
<g id="node6" class="node">
<title>11</title>
<g id="a_node6"><a xlink:title="HeapFragment">
<polygon fill="#ffffff" stroke="black" points="1153.5,-36 1028.5,-36 1028.5,0 1153.5,0 1153.5,-36"/>
<text text-anchor="middle" x="1091" y="-14.3" font-family="Times,serif" font-size="14.00">HeapFragment</text>
</a>
</g>
</g>
<!-- 11&#45;&gt;11 -->
<g id="edge9" class="edge">
<title>11&#45;&gt;11</title>
<g id="a_edge9"><a xlink:title="usage">
<path fill="none" stroke="#1414ce" d="M1153.78,-30.55C1164.26,-28.79 1171.5,-24.61 1171.5,-18 1171.5,-13.77 1168.53,-10.53 1163.64,-8.29"/>
<polygon fill="#1414ce" stroke="#1414ce" points="1164.36,-4.85 1153.78,-5.45 1162.42,-11.58 1164.36,-4.85"/>
</a>
</g>
</g>
<!-- 20 -->
<g id="node7" class="node">
<title>20</title>
<g id="a_node7"><a xlink:title="RefcBinaryQueueItem">
<polygon fill="#ffffff" stroke="black" points="446,-324 272,-324 272,-288 446,-288 446,-324"/>
<text text-anchor="middle" x="359" y="-302.3" font-family="Times,serif" font-size="14.00">RefcBinaryQueueItem</text>
</a>
</g>
</g>
<!-- 20&#45;&gt;20 -->
<g id="edge11" class="edge">
<title>20&#45;&gt;20</title>
<g id="a_edge11"><a xlink:title="usage">
<path fill="none" stroke="#1414ce" d="M446.3,-317.68C456.99,-315.59 464,-311.7 464,-306 464,-302.35 461.12,-299.44 456.25,-297.27"/>
<polygon fill="#1414ce" stroke="#1414ce" points="456.88,-293.81 446.3,-294.32 454.89,-300.52 456.88,-293.81"/>
</a>
</g>
</g>
<!-- 21 -->
<g id="node18" class="node">
<title>21</title>
<g id="a_node18"><a xlink:title="RefcBinary">
<polygon fill="#ffffff" stroke="black" points="372.5,-252 277.5,-252 277.5,-216 372.5,-216 372.5,-252"/>
<text text-anchor="middle" x="325" y="-230.3" font-family="Times,serif" font-size="14.00">RefcBinary</text>
</a>
</g>
</g>
<!-- 20&#45;&gt;21 -->
<g id="edge10" class="edge">
<title>20&#45;&gt;21</title>
<g id="a_edge10"><a xlink:title="usage">
<path fill="none" stroke="#1414ce" d="M350.6,-287.7C346.73,-279.73 342.05,-270.1 337.76,-261.26"/>
<polygon fill="#1414ce" stroke="#1414ce" points="340.83,-259.57 333.31,-252.1 334.53,-262.63 340.83,-259.57"/>
</a>
</g>
</g>
<!-- 12&#45;&gt;24 -->
<g id="edge21" class="edge">
<title>12&#45;&gt;24</title>
<g id="a_edge21"><a xlink:title="usage">
<path fill="none" stroke="#1414ce" d="M399.12,-359.88C421.64,-350.26 449.92,-338.19 473.77,-328.01"/>
<polygon fill="#1414ce" stroke="#1414ce" points="475.19,-331.21 483.01,-324.07 472.44,-324.77 475.19,-331.21"/>
</a>
</g>
</g>
<!-- 12&#45;&gt;13 -->
<g id="edge12" class="edge">
<title>12&#45;&gt;13</title>
<g id="a_edge12"><a xlink:title="usage">
<path fill="none" stroke="#1414ce" d="M299.44,-367.88C271.51,-360.49 240.3,-347.31 221,-324 189.34,-285.76 185.47,-225.12 189.07,-190.2"/>
<polygon fill="#1414ce" stroke="#1414ce" points="192.54,-190.62 190.4,-180.24 185.61,-189.69 192.54,-190.62"/>
</a>
</g>
</g>
<!-- 12&#45;&gt;8 -->
<g id="edge18" class="edge">
<title>12&#45;&gt;8</title>
<g id="a_edge18"><a xlink:title="usage">
<path fill="none" stroke="#1414ce" d="M418.54,-372.71C525.65,-364.77 757.84,-346.52 953,-324 977.83,-321.14 1005.46,-317.27 1027.94,-313.95"/>
<polygon fill="#1414ce" stroke="#1414ce" points="1028.51,-317.4 1037.88,-312.46 1027.47,-310.48 1028.51,-317.4"/>
</a>
</g>
</g>
<!-- 12&#45;&gt;7 -->
<g id="edge22" class="edge">
<title>12&#45;&gt;7</title>
<g id="a_edge22"><a xlink:title="usage">
<path fill="none" stroke="#1414ce" d="M299.49,-371.39C248.81,-364.91 175.04,-351.41 116,-324 57.06,-296.64 0,-299.98 0,-235 0,-235 0,-235 0,-161 0,-63.74 139.52,-32.91 217.22,-23.28"/>
<polygon fill="#1414ce" stroke="#1414ce" points="217.77,-26.74 227.3,-22.1 216.96,-19.78 217.77,-26.74"/>
</a>
</g>
</g>
<!-- 12&#45;&gt;20 -->
<g id="edge16" class="edge">
<title>12&#45;&gt;20</title>
<g id="a_edge16"><a xlink:title="usage">
<path fill="none" stroke="#1414ce" d="M359,-359.7C359,-351.98 359,-342.71 359,-334.11"/>
<polygon fill="#1414ce" stroke="#1414ce" points="362.5,-334.1 359,-324.1 355.5,-334.1 362.5,-334.1"/>
</a>
</g>
</g>
<!-- 15 -->
<g id="node9" class="node">
<title>15</title>
<g id="a_node9"><a xlink:title="Ets">
<polygon fill="#ffffff" stroke="black" points="120,-180 66,-180 66,-144 120,-144 120,-180"/>
<text text-anchor="middle" x="93" y="-158.3" font-family="Times,serif" font-size="14.00">Ets</text>
</a>
</g>
</g>
<!-- 12&#45;&gt;15 -->
<g id="edge13" class="edge">
<title>12&#45;&gt;15</title>
<g id="a_edge13"><a xlink:title="usage">
<path fill="none" stroke="#1414ce" d="M299.26,-365.51C269.12,-357.55 233.27,-344.57 206,-324 157.9,-287.73 122.43,-224.99 105.03,-189.49"/>
<polygon fill="#1414ce" stroke="#1414ce" points="108.08,-187.75 100.6,-180.24 101.76,-190.77 108.08,-187.75"/>
</a>
</g>
</g>
<!-- 23 -->
<g id="node11" class="node">
<title>23</title>
<g id="a_node11"><a xlink:title="TimerList">
<polygon fill="#ffffff" stroke="black" points="311,-108 225,-108 225,-72 311,-72 311,-108"/>
<text text-anchor="middle" x="268" y="-86.3" font-family="Times,serif" font-size="14.00">TimerList</text>
</a>
</g>
</g>
<!-- 12&#45;&gt;23 -->
<g id="edge20" class="edge">
<title>12&#45;&gt;23</title>
<g id="a_edge20"><a xlink:title="usage">
<path fill="none" stroke="#1414ce" d="M305.78,-359.96C289.11,-351.84 272.58,-340.23 263,-324 260.42,-319.63 264.95,-179.16 267.03,-118.47"/>
<polygon fill="#1414ce" stroke="#1414ce" points="270.54,-118.24 267.39,-108.12 263.55,-117.99 270.54,-118.24"/>
</a>
</g>
</g>
<!-- 16 -->
<g id="node16" class="node">
<title>16</title>
<g id="a_node16"><a xlink:title="MessageQueueItem">
<polygon fill="#ffffff" stroke="black" points="926,-324 768,-324 768,-288 926,-288 926,-324"/>
<text text-anchor="middle" x="847" y="-302.3" font-family="Times,serif" font-size="14.00">MessageQueueItem</text>
</a>
</g>
</g>
<!-- 12&#45;&gt;16 -->
<g id="edge14" class="edge">
<title>12&#45;&gt;16</title>
<g id="a_edge14"><a xlink:title="usage">
<path fill="none" stroke="#1414ce" d="M418.84,-368.42C503.61,-356.26 659.27,-333.93 757.73,-319.81"/>
<polygon fill="#1414ce" stroke="#1414ce" points="758.26,-323.27 767.66,-318.38 757.27,-316.34 758.26,-323.27"/>
</a>
</g>
</g>
<!-- 22 -->
<g id="node17" class="node">
<title>22</title>
<g id="a_node17"><a xlink:title="AtomsHashTable">
<polygon fill="#ffffff" stroke="black" points="527.5,-252 390.5,-252 390.5,-216 527.5,-216 527.5,-252"/>
<text text-anchor="middle" x="459" y="-230.3" font-family="Times,serif" font-size="14.00">AtomsHashTable</text>
</a>
</g>
</g>
<!-- 12&#45;&gt;22 -->
<g id="edge19" class="edge">
<title>12&#45;&gt;22</title>
<g id="a_edge19"><a xlink:title="usage">
<path fill="none" stroke="#1414ce" d="M418.75,-370.4C475.25,-362.79 554.13,-348.11 573,-324 582.86,-311.4 581.6,-301.49 573,-288 564.25,-274.29 550.93,-264.06 536.45,-256.46"/>
<polygon fill="#1414ce" stroke="#1414ce" points="537.84,-253.25 527.31,-252.06 534.8,-259.56 537.84,-253.25"/>
</a>
</g>
</g>
<!-- 17 -->
<g id="node20" class="node">
<title>17</title>
<g id="a_node20"><a xlink:title="AtomTable">
<polygon fill="#ffffff" stroke="black" points="712,-324 620,-324 620,-288 712,-288 712,-324"/>
<text text-anchor="middle" x="666" y="-302.3" font-family="Times,serif" font-size="14.00">AtomTable</text>
</a>
</g>
</g>
<!-- 12&#45;&gt;17 -->
<g id="edge15" class="edge">
<title>12&#45;&gt;17</title>
<g id="a_edge15"><a xlink:title="usage">
<path fill="none" stroke="#1414ce" d="M418.64,-365.33C468.82,-355.24 542.37,-339.82 606,-324 607.27,-323.68 608.56,-323.36 609.85,-323.03"/>
<polygon fill="#1414ce" stroke="#1414ce" points="611.11,-326.32 619.89,-320.39 609.33,-319.55 611.11,-326.32"/>
</a>
</g>
</g>
<!-- 12&#45;&gt;14 -->
<g id="edge17" class="edge">
<title>12&#45;&gt;14</title>
<g id="a_edge17"><a xlink:title="usage">
<path fill="none" stroke="#1414ce" d="M299.09,-370.74C258.68,-364.19 205.7,-350.89 166,-324 99.55,-278.98 82.55,-256.09 57,-180 51.91,-164.83 50.74,-158.72 57,-144 61.73,-132.86 70.08,-122.93 78.87,-114.76"/>
<polygon fill="#1414ce" stroke="#1414ce" points="81.35,-117.24 86.62,-108.05 76.77,-111.95 81.35,-117.24"/>
</a>
</g>
</g>
<!-- 15&#45;&gt;14 -->
<g id="edge23" class="edge">
<title>15&#45;&gt;14</title>
<g id="a_edge23"><a xlink:title="usage">
<path fill="none" stroke="#1414ce" d="M97.7,-143.7C99.81,-135.9 102.36,-126.51 104.72,-117.83"/>
<polygon fill="#1414ce" stroke="#1414ce" points="108.12,-118.67 107.36,-108.1 101.36,-116.84 108.12,-118.67"/>
</a>
</g>
</g>
<!-- 19 -->
<g id="node10" class="node">
<title>19</title>
<g id="a_node10"><a xlink:title="HNodeGroup">
<polygon fill="#ffffff" stroke="black" points="656,-252 546,-252 546,-216 656,-216 656,-252"/>
<text text-anchor="middle" x="601" y="-230.3" font-family="Times,serif" font-size="14.00">HNodeGroup</text>
</a>
</g>
</g>
<!-- 19&#45;&gt;19 -->
<g id="edge25" class="edge">
<title>19&#45;&gt;19</title>
<g id="a_edge25"><a xlink:title="usage">
<path fill="none" stroke="#1414ce" d="M656.07,-246.85C666.57,-245.32 674,-241.03 674,-234 674,-229.5 670.95,-226.12 666,-223.87"/>
<polygon fill="#1414ce" stroke="#1414ce" points="666.64,-220.42 656.07,-221.15 664.79,-227.17 666.64,-220.42"/>
</a>
</g>
</g>
<!-- 18 -->
<g id="node24" class="node">
<title>18</title>
<g id="a_node24"><a xlink:title="HNode">
<polygon fill="#ffffff" stroke="black" points="636,-180 570,-180 570,-144 636,-144 636,-180"/>
<text text-anchor="middle" x="603" y="-158.3" font-family="Times,serif" font-size="14.00">HNode</text>
</a>
</g>
</g>
<!-- 19&#45;&gt;18 -->
<g id="edge24" class="edge">
<title>19&#45;&gt;18</title>
<g id="a_edge24"><a xlink:title="usage">
<path fill="none" stroke="#1414ce" d="M601.49,-215.7C601.71,-207.98 601.98,-198.71 602.23,-190.11"/>
<polygon fill="#1414ce" stroke="#1414ce" points="605.72,-190.2 602.51,-180.1 598.73,-190 605.72,-190.2"/>
</a>
</g>
</g>
<!-- 23&#45;&gt;7 -->
<g id="edge26" class="edge">
<title>23&#45;&gt;7</title>
<g id="a_edge26"><a xlink:title="usage">
<path fill="none" stroke="#1414ce" d="M268,-71.7C268,-63.98 268,-54.71 268,-46.11"/>
<polygon fill="#1414ce" stroke="#1414ce" points="271.5,-46.1 268,-36.1 264.5,-46.1 271.5,-46.1"/>
</a>
</g>
</g>
<!-- 5 -->
<g id="node13" class="node">
<title>5</title>
<g id="a_node13"><a xlink:title="MailboxMessage">
<polygon fill="#ffffff" stroke="black" points="926.5,-252 789.5,-252 789.5,-216 926.5,-216 926.5,-252"/>
<text text-anchor="middle" x="858" y="-230.3" font-family="Times,serif" font-size="14.00">MailboxMessage</text>
</a>
</g>
</g>
<!-- 5&#45;&gt;5 -->
<g id="edge27" class="edge">
<title>5&#45;&gt;5</title>
<g id="a_edge27"><a xlink:title="usage">
<path fill="none" stroke="#1414ce" d="M926.53,-246.37C937.21,-244.52 944.5,-240.4 944.5,-234 944.5,-229.8 941.36,-226.58 936.18,-224.34"/>
<polygon fill="#1414ce" stroke="#1414ce" points="937.1,-220.96 926.53,-221.63 935.21,-227.7 937.1,-220.96"/>
</a>
</g>
</g>
<!-- 10 -->
<g id="node14" class="node">
<title>10</title>
<g id="a_node14"><a xlink:title="Heap">
<polygon fill="#ffffff" stroke="black" points="1118,-108 1064,-108 1064,-72 1118,-72 1118,-108"/>
<text text-anchor="middle" x="1091" y="-86.3" font-family="Times,serif" font-size="14.00">Heap</text>
</a>
</g>
</g>
<!-- 10&#45;&gt;11 -->
<g id="edge28" class="edge">
<title>10&#45;&gt;11</title>
<g id="a_edge28"><a xlink:title="usage">
<path fill="none" stroke="#1414ce" d="M1091,-71.7C1091,-63.98 1091,-54.71 1091,-46.11"/>
<polygon fill="#1414ce" stroke="#1414ce" points="1094.5,-46.1 1091,-36.1 1087.5,-46.1 1094.5,-46.1"/>
</a>
</g>
</g>
<!-- 3&#45;&gt;8 -->
<g id="edge32" class="edge">
<title>3&#45;&gt;8</title>
<g id="a_edge32"><a xlink:title="usage">
<path fill="none" stroke="#1414ce" d="M1017.6,-431.87C1028.43,-407.46 1048.41,-362.43 1061.18,-333.64"/>
<polygon fill="#1414ce" stroke="#1414ce" points="1064.52,-334.75 1065.37,-324.19 1058.12,-331.91 1064.52,-334.75"/>
</a>
</g>
</g>
<!-- 3&#45;&gt;7 -->
<g id="edge35" class="edge">
<title>3&#45;&gt;7</title>
<g id="a_edge35"><a xlink:title="usage">
<path fill="none" stroke="#1414ce" d="M1010.67,-431.89C1011.39,-390.1 1007.63,-281.51 954,-216 871.59,-115.35 462.91,-47.28 318.58,-26.06"/>
<polygon fill="#1414ce" stroke="#1414ce" points="319.06,-22.59 308.66,-24.61 318.05,-29.52 319.06,-22.59"/>
</a>
</g>
</g>
<!-- 3&#45;&gt;12 -->
<g id="edge34" class="edge">
<title>3&#45;&gt;12</title>
<g id="a_edge34"><a xlink:title="usage">
<path fill="none" stroke="#1414ce" d="M973.13,-445.04C868.17,-433.75 566.45,-401.31 428.87,-386.51"/>
<polygon fill="#1414ce" stroke="#1414ce" points="429.18,-383.03 418.86,-385.44 428.43,-389.99 429.18,-383.03"/>
</a>
</g>
</g>
<!-- 3&#45;&gt;10 -->
<g id="edge33" class="edge">
<title>3&#45;&gt;10</title>
<g id="a_edge33"><a xlink:title="usage">
<path fill="none" stroke="#1414ce" d="M1043.81,-432C1083.51,-409.36 1144,-365.3 1144,-307 1144,-307 1144,-307 1144,-233 1144,-190.21 1122.61,-144.48 1107.01,-116.82"/>
<polygon fill="#1414ce" stroke="#1414ce" points="1110.03,-115.05 1101.98,-108.16 1103.98,-118.56 1110.03,-115.05"/>
</a>
</g>
</g>
<!-- 3&#45;&gt;3 -->
<g id="edge29" class="edge">
<title>3&#45;&gt;3</title>
<g id="a_edge29"><a xlink:title="usage">
<path fill="none" stroke="#1414ce" d="M1046.68,-463.42C1056.78,-462.77 1064.5,-458.3 1064.5,-450 1064.5,-444.81 1061.48,-441.12 1056.76,-438.93"/>
<polygon fill="#1414ce" stroke="#1414ce" points="1057.21,-435.44 1046.68,-436.58 1055.63,-442.26 1057.21,-435.44"/>
</a>
</g>
</g>
<!-- 4 -->
<g id="node19" class="node">
<title>4</title>
<g id="a_node19"><a xlink:title="Mailbox">
<polygon fill="#ffffff" stroke="black" points="982,-396 908,-396 908,-360 982,-360 982,-396"/>
<text text-anchor="middle" x="945" y="-374.3" font-family="Times,serif" font-size="14.00">Mailbox</text>
</a>
</g>
</g>
<!-- 3&#45;&gt;4 -->
<g id="edge30" class="edge">
<title>3&#45;&gt;4</title>
<g id="a_edge30"><a xlink:title="usage">
<path fill="none" stroke="#1414ce" d="M993.93,-431.7C986.06,-423.22 976.44,-412.86 967.83,-403.58"/>
<polygon fill="#1414ce" stroke="#1414ce" points="970.25,-401.05 960.88,-396.1 965.12,-405.81 970.25,-401.05"/>
</a>
</g>
</g>
<!-- 6 -->
<g id="node22" class="node">
<title>6</title>
<g id="a_node22"><a xlink:title="TimerListItem">
<polygon fill="#ffffff" stroke="black" points="796.5,-180 677.5,-180 677.5,-144 796.5,-144 796.5,-180"/>
<text text-anchor="middle" x="737" y="-158.3" font-family="Times,serif" font-size="14.00">TimerListItem</text>
</a>
</g>
</g>
<!-- 3&#45;&gt;6 -->
<g id="edge31" class="edge">
<title>3&#45;&gt;6</title>
<g id="a_edge31"><a xlink:title="usage">
<path fill="none" stroke="#1414ce" d="M973.42,-442.15C917.19,-429.53 810.6,-396.92 759,-324 730.84,-284.21 730.67,-224.78 733.54,-190.35"/>
<polygon fill="#1414ce" stroke="#1414ce" points="737.05,-190.41 734.54,-180.11 730.08,-189.72 737.05,-190.41"/>
</a>
</g>
</g>
<!-- 16&#45;&gt;5 -->
<g id="edge36" class="edge">
<title>16&#45;&gt;5</title>
<g id="a_edge36"><a xlink:title="usage">
<path fill="none" stroke="#1414ce" d="M849.72,-287.7C850.93,-279.98 852.39,-270.71 853.74,-262.11"/>
<polygon fill="#1414ce" stroke="#1414ce" points="857.22,-262.53 855.31,-252.1 850.3,-261.44 857.22,-262.53"/>
</a>
</g>
</g>
<!-- 16&#45;&gt;16 -->
<g id="edge37" class="edge">
<title>16&#45;&gt;16</title>
<g id="a_edge37"><a xlink:title="usage">
<path fill="none" stroke="#1414ce" d="M926.16,-317.98C936.87,-315.97 944,-311.98 944,-306 944,-302.08 940.93,-299.01 935.79,-296.8"/>
<polygon fill="#1414ce" stroke="#1414ce" points="936.74,-293.43 926.16,-294.02 934.8,-300.15 936.74,-293.43"/>
</a>
</g>
</g>
<!-- 22&#45;&gt;18 -->
<g id="edge38" class="edge">
<title>22&#45;&gt;18</title>
<g id="a_edge38"><a xlink:title="usage">
<path fill="none" stroke="#1414ce" d="M494.23,-215.88C514.24,-206.14 539.45,-193.89 560.55,-183.63"/>
<polygon fill="#1414ce" stroke="#1414ce" points="562.16,-186.75 569.62,-179.23 559.1,-180.45 562.16,-186.75"/>
</a>
</g>
</g>
<!-- 21&#45;&gt;13 -->
<g id="edge39" class="edge">
<title>21&#45;&gt;13</title>
<g id="a_edge39"><a xlink:title="usage">
<path fill="none" stroke="#1414ce" d="M293.69,-215.88C276.8,-206.64 255.75,-195.13 237.62,-185.21"/>
<polygon fill="#1414ce" stroke="#1414ce" points="238.89,-181.92 228.43,-180.19 235.53,-188.06 238.89,-181.92"/>
</a>
</g>
</g>
<!-- 21&#45;&gt;7 -->
<g id="edge40" class="edge">
<title>21&#45;&gt;7</title>
<g id="a_edge40"><a xlink:title="usage">
<path fill="none" stroke="#1414ce" d="M328.42,-215.68C333.59,-185.2 340.75,-120.61 320,-72 315.34,-61.09 307.31,-51.17 298.94,-42.95"/>
<polygon fill="#1414ce" stroke="#1414ce" points="301.29,-40.36 291.56,-36.17 296.56,-45.51 301.29,-40.36"/>
</a>
</g>
</g>
<!-- 4&#45;&gt;5 -->
<g id="edge41" class="edge">
<title>4&#45;&gt;5</title>
<g id="a_edge41"><a xlink:title="usage">
<path fill="none" stroke="#1414ce" d="M952.11,-359.97C958.81,-341.04 966.04,-310.21 953,-288 945.23,-274.77 932.83,-264.61 919.52,-256.89"/>
<polygon fill="#1414ce" stroke="#1414ce" points="921.15,-253.79 910.68,-252.16 917.85,-259.96 921.15,-253.79"/>
</a>
</g>
</g>
<!-- 17&#45;&gt;19 -->
<g id="edge43" class="edge">
<title>17&#45;&gt;19</title>
<g id="a_edge43"><a xlink:title="usage">
<path fill="none" stroke="#1414ce" d="M649.93,-287.7C642.06,-279.22 632.44,-268.86 623.83,-259.58"/>
<polygon fill="#1414ce" stroke="#1414ce" points="626.25,-257.05 616.88,-252.1 621.12,-261.81 626.25,-257.05"/>
</a>
</g>
</g>
<!-- 17&#45;&gt;18 -->
<g id="edge42" class="edge">
<title>17&#45;&gt;18</title>
<g id="a_edge42"><a xlink:title="usage">
<path fill="none" stroke="#1414ce" d="M675.57,-287.93C684.67,-269.23 695.28,-238.87 683,-216 674.78,-200.68 659.96,-189.05 645.3,-180.64"/>
<polygon fill="#1414ce" stroke="#1414ce" points="646.72,-177.43 636.25,-175.81 643.43,-183.61 646.72,-177.43"/>
</a>
</g>
</g>
<!-- 6&#45;&gt;7 -->
<g id="edge44" class="edge">
<title>6&#45;&gt;7</title>
<g id="a_edge44"><a xlink:title="usage">
<path fill="none" stroke="#1414ce" d="M680.43,-143.87C588.12,-115.92 406.57,-60.95 318.41,-34.26"/>
<polygon fill="#1414ce" stroke="#1414ce" points="319.23,-30.85 308.64,-31.31 317.2,-37.55 319.23,-30.85"/>
</a>
</g>
</g>
<!-- 14&#45;&gt;7 -->
<g id="edge45" class="edge">
<title>14&#45;&gt;7</title>
<g id="a_edge45"><a xlink:title="usage">
<path fill="none" stroke="#1414ce" d="M150.16,-71.88C171.39,-62.35 198.01,-50.41 220.57,-40.28"/>
<polygon fill="#1414ce" stroke="#1414ce" points="222.27,-43.36 229.96,-36.07 219.41,-36.97 222.27,-43.36"/>
</a>
</g>
</g>
<!-- 18&#45;&gt;10 -->
<g id="edge47" class="edge">
<title>18&#45;&gt;10</title>
<g id="a_edge47"><a xlink:title="usage">
<path fill="none" stroke="#1414ce" d="M636.21,-151.42C646.35,-148.74 657.58,-146.01 668,-144 809.14,-116.82 979.56,-100.38 1053.62,-94.02"/>
<polygon fill="#1414ce" stroke="#1414ce" points="1054.17,-97.49 1063.84,-93.16 1053.58,-90.52 1054.17,-97.49"/>
</a>
</g>
</g>
<!-- 18&#45;&gt;18 -->
<g id="edge46" class="edge">
<title>18&#45;&gt;18</title>
<g id="a_edge46"><a xlink:title="usage">
<path fill="none" stroke="#1414ce" d="M636.35,-175.47C646.28,-175.07 654,-170.58 654,-162 654,-156.64 650.98,-152.87 646.3,-150.71"/>
<polygon fill="#1414ce" stroke="#1414ce" points="646.87,-147.25 636.35,-148.53 645.37,-154.09 646.87,-147.25"/>
</a>
</g>
</g>
</g>
</svg>
