<?xml version="1.0" encoding="UTF-8" standalone="no"?>
<!DOCTYPE svg PUBLIC "-//W3C//DTD SVG 1.1//EN"
 "http://www.w3.org/Graphics/SVG/1.1/DTD/svg11.dtd">
<!-- Generated by graphviz version 2.43.0 (0)
 -->
<!-- Title: %3 Pages: 1 -->
<svg width="935pt" height="548pt"
 viewBox="0.00 0.00 935.00 548.00" xmlns="http://www.w3.org/2000/svg" xmlns:xlink="http://www.w3.org/1999/xlink">
<g id="graph0" class="graph" transform="scale(1 1) rotate(0) translate(4 544)">
<title>%3</title>
<polygon fill="transparent" stroke="transparent" points="-4,4 -4,-544 931,-544 931,4 -4,4"/>
<!-- 4 -->
<g id="node1" class="node">
<title>4</title>
<g id="a_node1"><a xlink:title="stdbool.h">
<polygon fill="#ffffff" stroke="black" points="134.5,-108 51.5,-108 51.5,-72 134.5,-72 134.5,-108"/>
<text text-anchor="middle" x="93" y="-86.3" font-family="Times,serif" font-size="14.00">stdbool.h</text>
</a>
</g>
</g>
<!-- 17 -->
<g id="node2" class="node">
<title>17</title>
<g id="a_node2"><a xlink:title="refc_binary.h">
<polygon fill="#ffffff" stroke="black" points="332,-396 224,-396 224,-360 332,-360 332,-396"/>
<text text-anchor="middle" x="278" y="-374.3" font-family="Times,serif" font-size="14.00">refc_binary.h</text>
</a>
</g>
</g>
<!-- 17&#45;&gt;4 -->
<g id="edge1" class="edge">
<title>17&#45;&gt;4</title>
<g id="a_edge1"><a xlink:title="include">
<path fill="none" stroke="#1414ce" d="M223.84,-366.64C194.43,-358.85 158.9,-345.67 133,-324 77.49,-277.57 72.83,-250.61 57,-180 53.5,-164.39 52.3,-159.29 57,-144 60.01,-134.22 65.51,-124.62 71.32,-116.33"/>
<polygon fill="#1414ce" stroke="#1414ce" points="74.19,-118.33 77.39,-108.23 68.59,-114.13 74.19,-118.33"/>
</a>
</g>
</g>
<!-- 18 -->
<g id="node6" class="node">
<title>18</title>
<g id="a_node6"><a xlink:title="list.h">
<polygon fill="#ffffff" stroke="black" points="120,-180 66,-180 66,-144 120,-144 120,-180"/>
<text text-anchor="middle" x="93" y="-158.3" font-family="Times,serif" font-size="14.00">list.h</text>
</a>
</g>
</g>
<!-- 17&#45;&gt;18 -->
<g id="edge3" class="edge">
<title>17&#45;&gt;18</title>
<g id="a_edge3"><a xlink:title="include">
<path fill="none" stroke="#1414ce" d="M238.72,-359.88C198.35,-340.09 137.13,-303.49 106,-252 94.79,-233.46 91.91,-208.87 91.63,-190.23"/>
<polygon fill="#1414ce" stroke="#1414ce" points="95.13,-190.07 91.72,-180.04 88.13,-190.01 95.13,-190.07"/>
</a>
</g>
</g>
<!-- 7 -->
<g id="node8" class="node">
<title>7</title>
<g id="a_node8"><a xlink:title="stdlib.h">
<polygon fill="#ffffff" stroke="black" points="737.5,-108 666.5,-108 666.5,-72 737.5,-72 737.5,-108"/>
<text text-anchor="middle" x="702" y="-86.3" font-family="Times,serif" font-size="14.00">stdlib.h</text>
</a>
</g>
</g>
<!-- 17&#45;&gt;7 -->
<g id="edge2" class="edge">
<title>17&#45;&gt;7</title>
<g id="a_edge2"><a xlink:title="include">
<path fill="none" stroke="#1414ce" d="M332.35,-366.05C418.69,-345.63 586,-293.13 670,-180 683.65,-161.62 691.92,-136.86 696.63,-118.13"/>
<polygon fill="#1414ce" stroke="#1414ce" points="700.09,-118.68 698.94,-108.15 693.27,-117.1 700.09,-118.68"/>
</a>
</g>
</g>
<!-- 19 -->
<g id="node10" class="node">
<title>19</title>
<g id="a_node10"><a xlink:title="resources.h">
<polygon fill="#ffffff" stroke="black" points="332,-324 232,-324 232,-288 332,-288 332,-324"/>
<text text-anchor="middle" x="282" y="-302.3" font-family="Times,serif" font-size="14.00">resources.h</text>
</a>
</g>
</g>
<!-- 17&#45;&gt;19 -->
<g id="edge4" class="edge">
<title>17&#45;&gt;19</title>
<g id="a_edge4"><a xlink:title="include">
<path fill="none" stroke="#1414ce" d="M278.99,-359.7C279.43,-351.98 279.96,-342.71 280.45,-334.11"/>
<polygon fill="#1414ce" stroke="#1414ce" points="283.95,-334.29 281.02,-324.1 276.96,-333.89 283.95,-334.29"/>
</a>
</g>
</g>
<!-- 12 -->
<g id="node3" class="node">
<title>12</title>
<g id="a_node3"><a xlink:title="assert.h">
<polygon fill="#ffffff" stroke="black" points="471,-36 397,-36 397,0 471,0 471,-36"/>
<text text-anchor="middle" x="434" y="-14.3" font-family="Times,serif" font-size="14.00">assert.h</text>
</a>
</g>
</g>
<!-- 15 -->
<g id="node4" class="node">
<title>15</title>
<g id="a_node4"><a xlink:title="utils.h">
<polygon fill="#ffffff" stroke="black" points="560,-180 498,-180 498,-144 560,-144 560,-180"/>
<text text-anchor="middle" x="529" y="-158.3" font-family="Times,serif" font-size="14.00">utils.h</text>
</a>
</g>
</g>
<!-- 15&#45;&gt;7 -->
<g id="edge7" class="edge">
<title>15&#45;&gt;7</title>
<g id="a_edge7"><a xlink:title="include">
<path fill="none" stroke="#1414ce" d="M560.33,-148.32C587.3,-137.41 626.56,-121.52 656.91,-109.24"/>
<polygon fill="#1414ce" stroke="#1414ce" points="658.47,-112.39 666.43,-105.39 655.85,-105.9 658.47,-112.39"/>
</a>
</g>
</g>
<!-- 16 -->
<g id="node12" class="node">
<title>16</title>
<g id="a_node12"><a xlink:title="stddef.h">
<polygon fill="#ffffff" stroke="black" points="572,-108 498,-108 498,-72 572,-72 572,-108"/>
<text text-anchor="middle" x="535" y="-86.3" font-family="Times,serif" font-size="14.00">stddef.h</text>
</a>
</g>
</g>
<!-- 15&#45;&gt;16 -->
<g id="edge5" class="edge">
<title>15&#45;&gt;16</title>
<g id="a_edge5"><a xlink:title="include">
<path fill="none" stroke="#1414ce" d="M530.48,-143.7C531.14,-135.98 531.94,-126.71 532.68,-118.11"/>
<polygon fill="#1414ce" stroke="#1414ce" points="536.17,-118.37 533.53,-108.1 529.19,-117.77 536.17,-118.37"/>
</a>
</g>
</g>
<!-- 6 -->
<g id="node21" class="node">
<title>6</title>
<g id="a_node21"><a xlink:title="stdio.h">
<polygon fill="#ffffff" stroke="black" points="479.5,-108 414.5,-108 414.5,-72 479.5,-72 479.5,-108"/>
<text text-anchor="middle" x="447" y="-86.3" font-family="Times,serif" font-size="14.00">stdio.h</text>
</a>
</g>
</g>
<!-- 15&#45;&gt;6 -->
<g id="edge6" class="edge">
<title>15&#45;&gt;6</title>
<g id="a_edge6"><a xlink:title="include">
<path fill="none" stroke="#1414ce" d="M508.73,-143.7C498.5,-134.97 485.94,-124.24 474.82,-114.75"/>
<polygon fill="#1414ce" stroke="#1414ce" points="476.91,-111.94 467.04,-108.1 472.37,-117.26 476.91,-111.94"/>
</a>
</g>
</g>
<!-- 21 -->
<g id="node5" class="node">
<title>21</title>
<g id="a_node5"><a xlink:title="synclist.h">
<polygon fill="#ffffff" stroke="black" points="227.5,-252 142.5,-252 142.5,-216 227.5,-216 227.5,-252"/>
<text text-anchor="middle" x="185" y="-230.3" font-family="Times,serif" font-size="14.00">synclist.h</text>
</a>
</g>
</g>
<!-- 21&#45;&gt;18 -->
<g id="edge9" class="edge">
<title>21&#45;&gt;18</title>
<g id="a_edge9"><a xlink:title="include">
<path fill="none" stroke="#1414ce" d="M162.26,-215.7C150.56,-206.8 136.14,-195.82 123.49,-186.2"/>
<polygon fill="#1414ce" stroke="#1414ce" points="125.56,-183.37 115.48,-180.1 121.32,-188.94 125.56,-183.37"/>
</a>
</g>
</g>
<!-- 22 -->
<g id="node19" class="node">
<title>22</title>
<g id="a_node19"><a xlink:title="smp.h">
<polygon fill="#ffffff" stroke="black" points="198,-180 138,-180 138,-144 198,-144 198,-180"/>
<text text-anchor="middle" x="168" y="-158.3" font-family="Times,serif" font-size="14.00">smp.h</text>
</a>
</g>
</g>
<!-- 21&#45;&gt;22 -->
<g id="edge10" class="edge">
<title>21&#45;&gt;22</title>
<g id="a_edge10"><a xlink:title="include">
<path fill="none" stroke="#1414ce" d="M180.8,-215.7C178.9,-207.9 176.62,-198.51 174.52,-189.83"/>
<polygon fill="#1414ce" stroke="#1414ce" points="177.92,-189 172.15,-180.1 171.11,-190.65 177.92,-189"/>
</a>
</g>
</g>
<!-- 21&#45;&gt;6 -->
<g id="edge8" class="edge">
<title>21&#45;&gt;6</title>
<g id="a_edge8"><a xlink:title="include">
<path fill="none" stroke="#1414ce" d="M216.6,-215.87C264.11,-190.12 353.92,-141.45 406.28,-113.07"/>
<polygon fill="#1414ce" stroke="#1414ce" points="408.16,-116.03 415.28,-108.19 404.83,-109.88 408.16,-116.03"/>
</a>
</g>
</g>
<!-- 18&#45;&gt;4 -->
<g id="edge11" class="edge">
<title>18&#45;&gt;4</title>
<g id="a_edge11"><a xlink:title="include">
<path fill="none" stroke="#1414ce" d="M93,-143.7C93,-135.98 93,-126.71 93,-118.11"/>
<polygon fill="#1414ce" stroke="#1414ce" points="96.5,-118.1 93,-108.1 89.5,-118.1 96.5,-118.1"/>
</a>
</g>
</g>
<!-- 5 -->
<g id="node7" class="node">
<title>5</title>
<g id="a_node7"><a xlink:title="stdint.h">
<polygon fill="#ffffff" stroke="black" points="744,-36 672,-36 672,0 744,0 744,-36"/>
<text text-anchor="middle" x="708" y="-14.3" font-family="Times,serif" font-size="14.00">stdint.h</text>
</a>
</g>
</g>
<!-- 9 -->
<g id="node9" class="node">
<title>9</title>
<g id="a_node9"><a xlink:title="memory.h">
<polygon fill="#ffffff" stroke="black" points="512,-252 426,-252 426,-216 512,-216 512,-252"/>
<text text-anchor="middle" x="469" y="-230.3" font-family="Times,serif" font-size="14.00">memory.h</text>
</a>
</g>
</g>
<!-- 9&#45;&gt;15 -->
<g id="edge16" class="edge">
<title>9&#45;&gt;15</title>
<g id="a_edge16"><a xlink:title="include">
<path fill="none" stroke="#1414ce" d="M483.83,-215.7C491.02,-207.3 499.8,-197.07 507.69,-187.86"/>
<polygon fill="#1414ce" stroke="#1414ce" points="510.49,-189.97 514.34,-180.1 505.17,-185.42 510.49,-189.97"/>
</a>
</g>
</g>
<!-- 9&#45;&gt;5 -->
<g id="edge12" class="edge">
<title>9&#45;&gt;5</title>
<g id="a_edge12"><a xlink:title="include">
<path fill="none" stroke="#1414ce" d="M509.71,-215.99C528.81,-206.91 551.23,-194.58 569,-180 592.93,-160.36 636.47,-95.17 657,-72 665.38,-62.54 674.91,-52.47 683.44,-43.67"/>
<polygon fill="#1414ce" stroke="#1414ce" points="686.14,-45.92 690.63,-36.32 681.13,-41.03 686.14,-45.92"/>
</a>
</g>
</g>
<!-- 9&#45;&gt;7 -->
<g id="edge13" class="edge">
<title>9&#45;&gt;7</title>
<g id="a_edge13"><a xlink:title="include">
<path fill="none" stroke="#1414ce" d="M512.13,-220.08C539.07,-211 573.87,-197.37 602,-180 631.33,-161.89 660.24,-134.89 679.37,-115.38"/>
<polygon fill="#1414ce" stroke="#1414ce" points="682.02,-117.67 686.45,-108.05 676.99,-112.81 682.02,-117.67"/>
</a>
</g>
</g>
<!-- 10 -->
<g id="node13" class="node">
<title>10</title>
<g id="a_node13"><a xlink:title="erl_nif.h">
<polygon fill="#ffffff" stroke="black" points="442,-180 368,-180 368,-144 442,-144 442,-180"/>
<text text-anchor="middle" x="405" y="-158.3" font-family="Times,serif" font-size="14.00">erl_nif.h</text>
</a>
</g>
</g>
<!-- 9&#45;&gt;10 -->
<g id="edge14" class="edge">
<title>9&#45;&gt;10</title>
<g id="a_edge14"><a xlink:title="include">
<path fill="none" stroke="#1414ce" d="M453.18,-215.7C445.43,-207.22 435.96,-196.86 427.48,-187.58"/>
<polygon fill="#1414ce" stroke="#1414ce" points="429.97,-185.12 420.64,-180.1 424.8,-189.85 429.97,-185.12"/>
</a>
</g>
</g>
<!-- 11 -->
<g id="node17" class="node">
<title>11</title>
<g id="a_node17"><a xlink:title="term_typedef.h">
<polygon fill="#ffffff" stroke="black" points="396.5,-108 271.5,-108 271.5,-72 396.5,-72 396.5,-108"/>
<text text-anchor="middle" x="334" y="-86.3" font-family="Times,serif" font-size="14.00">term_typedef.h</text>
</a>
</g>
</g>
<!-- 9&#45;&gt;11 -->
<g id="edge15" class="edge">
<title>9&#45;&gt;11</title>
<g id="a_edge15"><a xlink:title="include">
<path fill="none" stroke="#1414ce" d="M469.93,-215.68C470.06,-196.19 467.4,-164.59 451,-144 439.4,-129.43 422.91,-118.72 405.96,-110.91"/>
<polygon fill="#1414ce" stroke="#1414ce" points="407.09,-107.59 396.52,-106.87 404.33,-114.02 407.09,-107.59"/>
</a>
</g>
</g>
<!-- 19&#45;&gt;21 -->
<g id="edge22" class="edge">
<title>19&#45;&gt;21</title>
<g id="a_edge22"><a xlink:title="include">
<path fill="none" stroke="#1414ce" d="M258.02,-287.7C245.69,-278.8 230.48,-267.82 217.15,-258.2"/>
<polygon fill="#1414ce" stroke="#1414ce" points="218.86,-255.12 208.7,-252.1 214.76,-260.79 218.86,-255.12"/>
</a>
</g>
</g>
<!-- 19&#45;&gt;18 -->
<g id="edge19" class="edge">
<title>19&#45;&gt;18</title>
<g id="a_edge19"><a xlink:title="include">
<path fill="none" stroke="#1414ce" d="M231.86,-297.52C200.19,-290.5 160.24,-277.13 133,-252 115.16,-235.55 104.76,-209.64 99.06,-190.01"/>
<polygon fill="#1414ce" stroke="#1414ce" points="102.39,-188.89 96.43,-180.12 95.62,-190.69 102.39,-188.89"/>
</a>
</g>
</g>
<!-- 19&#45;&gt;7 -->
<g id="edge17" class="edge">
<title>19&#45;&gt;7</title>
<g id="a_edge17"><a xlink:title="include">
<path fill="none" stroke="#1414ce" d="M332.22,-300.29C408.13,-290.64 552.48,-262.07 640,-180 659.6,-161.63 676.61,-136.09 687.83,-117.08"/>
<polygon fill="#1414ce" stroke="#1414ce" points="690.9,-118.75 692.85,-108.34 684.84,-115.26 690.9,-118.75"/>
</a>
</g>
</g>
<!-- 19&#45;&gt;9 -->
<g id="edge21" class="edge">
<title>19&#45;&gt;9</title>
<g id="a_edge21"><a xlink:title="include">
<path fill="none" stroke="#1414ce" d="M327.75,-287.88C354.54,-277.85 388.48,-265.14 416.38,-254.7"/>
<polygon fill="#1414ce" stroke="#1414ce" points="417.83,-257.89 425.97,-251.11 415.38,-251.33 417.83,-257.89"/>
</a>
</g>
</g>
<!-- 19&#45;&gt;10 -->
<g id="edge18" class="edge">
<title>19&#45;&gt;10</title>
<g id="a_edge18"><a xlink:title="include">
<path fill="none" stroke="#1414ce" d="M303.23,-287.87C314.94,-277.96 329.42,-264.91 341,-252 358.91,-232.03 376.5,-207.08 388.69,-188.68"/>
<polygon fill="#1414ce" stroke="#1414ce" points="391.68,-190.5 394.22,-180.22 385.82,-186.67 391.68,-190.5"/>
</a>
</g>
</g>
<!-- 20 -->
<g id="node20" class="node">
<title>20</title>
<g id="a_node20"><a xlink:title="mailbox.h">
<polygon fill="#ffffff" stroke="black" points="332,-252 246,-252 246,-216 332,-216 332,-252"/>
<text text-anchor="middle" x="289" y="-230.3" font-family="Times,serif" font-size="14.00">mailbox.h</text>
</a>
</g>
</g>
<!-- 19&#45;&gt;20 -->
<g id="edge20" class="edge">
<title>19&#45;&gt;20</title>
<g id="a_edge20"><a xlink:title="include">
<path fill="none" stroke="#1414ce" d="M283.73,-287.7C284.5,-279.98 285.43,-270.71 286.29,-262.11"/>
<polygon fill="#1414ce" stroke="#1414ce" points="289.78,-262.4 287.29,-252.1 282.81,-261.71 289.78,-262.4"/>
</a>
</g>
</g>
<!-- 2 -->
<g id="node11" class="node">
<title>2</title>
<g id="a_node11"><a xlink:title="term.h">
<polygon fill="#ffffff" stroke="black" points="604.5,-468 539.5,-468 539.5,-432 604.5,-432 604.5,-468"/>
<text text-anchor="middle" x="572" y="-446.3" font-family="Times,serif" font-size="14.00">term.h</text>
</a>
</g>
</g>
<!-- 2&#45;&gt;4 -->
<g id="edge24" class="edge">
<title>2&#45;&gt;4</title>
<g id="a_edge24"><a xlink:title="include">
<path fill="none" stroke="#1414ce" d="M539.19,-447.96C417.65,-443.25 0,-418.91 0,-307 0,-307 0,-307 0,-233 0,-185.32 37.15,-141.19 64.48,-115.17"/>
<polygon fill="#1414ce" stroke="#1414ce" points="66.93,-117.68 71.9,-108.32 62.18,-112.54 66.93,-117.68"/>
</a>
</g>
</g>
<!-- 2&#45;&gt;17 -->
<g id="edge30" class="edge">
<title>2&#45;&gt;17</title>
<g id="a_edge30"><a xlink:title="include">
<path fill="none" stroke="#1414ce" d="M539.4,-441.51C495.44,-431.38 414.74,-412.65 346,-396 344.74,-395.69 343.46,-395.38 342.17,-395.07"/>
<polygon fill="#1414ce" stroke="#1414ce" points="342.72,-391.6 332.17,-392.62 341.05,-398.4 342.72,-391.6"/>
</a>
</g>
</g>
<!-- 2&#45;&gt;15 -->
<g id="edge31" class="edge">
<title>2&#45;&gt;15</title>
<g id="a_edge31"><a xlink:title="include">
<path fill="none" stroke="#1414ce" d="M544.66,-431.77C532.89,-422.72 520.38,-410.48 514,-396 509.91,-386.72 521.37,-249.66 526.58,-190.2"/>
<polygon fill="#1414ce" stroke="#1414ce" points="530.08,-190.31 527.47,-180.04 523.11,-189.7 530.08,-190.31"/>
</a>
</g>
</g>
<!-- 2&#45;&gt;5 -->
<g id="edge25" class="edge">
<title>2&#45;&gt;5</title>
<g id="a_edge25"><a xlink:title="include">
<path fill="none" stroke="#1414ce" d="M604.8,-447.76C646.6,-444.6 719.16,-433.63 767,-396 802.49,-368.09 816,-352.15 816,-307 816,-307 816,-307 816,-161 816,-111.1 773.23,-67.77 741.52,-42.5"/>
<polygon fill="#1414ce" stroke="#1414ce" points="743.37,-39.51 733.32,-36.17 739.09,-45.05 743.37,-39.51"/>
</a>
</g>
</g>
<!-- 2&#45;&gt;7 -->
<g id="edge27" class="edge">
<title>2&#45;&gt;7</title>
<g id="a_edge27"><a xlink:title="include">
<path fill="none" stroke="#1414ce" d="M604.65,-446.28C640.98,-441.65 699.5,-429.22 737,-396 769.6,-367.12 778,-350.55 778,-307 778,-307 778,-307 778,-233 778,-187.64 747.48,-142.75 725.12,-115.95"/>
<polygon fill="#1414ce" stroke="#1414ce" points="727.66,-113.53 718.49,-108.23 722.36,-118.09 727.66,-113.53"/>
</a>
</g>
</g>
<!-- 2&#45;&gt;9 -->
<g id="edge29" class="edge">
<title>2&#45;&gt;9</title>
<g id="a_edge29"><a xlink:title="include">
<path fill="none" stroke="#1414ce" d="M539.45,-438.88C519.04,-430.72 494.18,-417.08 481,-396 455.38,-355.04 458.82,-296.26 463.8,-262.22"/>
<polygon fill="#1414ce" stroke="#1414ce" points="467.3,-262.52 465.44,-252.09 460.39,-261.4 467.3,-262.52"/>
</a>
</g>
</g>
<!-- 3 -->
<g id="node15" class="node">
<title>3</title>
<g id="a_node15"><a xlink:title="sys/types.h">
<polygon fill="#ffffff" stroke="black" points="620.5,-396 523.5,-396 523.5,-360 620.5,-360 620.5,-396"/>
<text text-anchor="middle" x="572" y="-374.3" font-family="Times,serif" font-size="14.00">sys/types.h</text>
</a>
</g>
</g>
<!-- 2&#45;&gt;3 -->
<g id="edge23" class="edge">
<title>2&#45;&gt;3</title>
<g id="a_edge23"><a xlink:title="include">
<path fill="none" stroke="#1414ce" d="M572,-431.7C572,-423.98 572,-414.71 572,-406.11"/>
<polygon fill="#1414ce" stroke="#1414ce" points="575.5,-406.1 572,-396.1 568.5,-406.1 575.5,-406.1"/>
</a>
</g>
</g>
<!-- 8 -->
<g id="node16" class="node">
<title>8</title>
<g id="a_node16"><a xlink:title="string.h">
<polygon fill="#ffffff" stroke="black" points="711.5,-396 638.5,-396 638.5,-360 711.5,-360 711.5,-396"/>
<text text-anchor="middle" x="675" y="-374.3" font-family="Times,serif" font-size="14.00">string.h</text>
</a>
</g>
</g>
<!-- 2&#45;&gt;8 -->
<g id="edge28" class="edge">
<title>2&#45;&gt;8</title>
<g id="a_edge28"><a xlink:title="include">
<path fill="none" stroke="#1414ce" d="M597.2,-431.88C610.41,-422.89 626.79,-411.76 641.11,-402.03"/>
<polygon fill="#1414ce" stroke="#1414ce" points="643.4,-404.71 649.71,-396.19 639.47,-398.92 643.4,-404.71"/>
</a>
</g>
</g>
<!-- 2&#45;&gt;11 -->
<g id="edge32" class="edge">
<title>2&#45;&gt;11</title>
<g id="a_edge32"><a xlink:title="include">
<path fill="none" stroke="#1414ce" d="M539.45,-439.6C515.76,-431.36 484.24,-417.32 463,-396 382.59,-315.28 349.37,-176.77 338.47,-118.31"/>
<polygon fill="#1414ce" stroke="#1414ce" points="341.89,-117.58 336.68,-108.35 335,-118.81 341.89,-117.58"/>
</a>
</g>
</g>
<!-- 2&#45;&gt;6 -->
<g id="edge26" class="edge">
<title>2&#45;&gt;6</title>
<g id="a_edge26"><a xlink:title="include">
<path fill="none" stroke="#1414ce" d="M604.66,-447.66C639.76,-444.26 694,-432.93 720,-396 729.21,-382.92 724.81,-375.26 720,-360 684.82,-248.28 659.69,-218.13 569,-144 565.59,-141.21 522.87,-122.9 488.93,-108.58"/>
<polygon fill="#1414ce" stroke="#1414ce" points="490.2,-105.32 479.63,-104.66 487.49,-111.77 490.2,-105.32"/>
</a>
</g>
</g>
<!-- 10&#45;&gt;11 -->
<g id="edge33" class="edge">
<title>10&#45;&gt;11</title>
<g id="a_edge33"><a xlink:title="include">
<path fill="none" stroke="#1414ce" d="M387.45,-143.7C378.77,-135.14 368.14,-124.66 358.65,-115.3"/>
<polygon fill="#1414ce" stroke="#1414ce" points="360.93,-112.63 351.35,-108.1 356.01,-117.62 360.93,-112.63"/>
</a>
</g>
</g>
<!-- 13 -->
<g id="node14" class="node">
<title>13</title>
<g id="a_node14"><a xlink:title="limits.h">
<polygon fill="#ffffff" stroke="black" points="271.5,-36 200.5,-36 200.5,0 271.5,0 271.5,-36"/>
<text text-anchor="middle" x="236" y="-14.3" font-family="Times,serif" font-size="14.00">limits.h</text>
</a>
</g>
</g>
<!-- 11&#45;&gt;12 -->
<g id="edge34" class="edge">
<title>11&#45;&gt;12</title>
<g id="a_edge34"><a xlink:title="include">
<path fill="none" stroke="#1414ce" d="M358.46,-71.88C371.3,-62.89 387.2,-51.76 401.09,-42.03"/>
<polygon fill="#1414ce" stroke="#1414ce" points="403.26,-44.79 409.44,-36.19 399.24,-39.06 403.26,-44.79"/>
</a>
</g>
</g>
<!-- 11&#45;&gt;5 -->
<g id="edge37" class="edge">
<title>11&#45;&gt;5</title>
<g id="a_edge37"><a xlink:title="include">
<path fill="none" stroke="#1414ce" d="M396.67,-73.77C399.48,-73.16 402.27,-72.57 405,-72 495.53,-53.26 602.17,-35.63 661.74,-26.18"/>
<polygon fill="#1414ce" stroke="#1414ce" points="662.62,-29.58 671.95,-24.57 661.52,-22.67 662.62,-29.58"/>
</a>
</g>
</g>
<!-- 11&#45;&gt;13 -->
<g id="edge35" class="edge">
<title>11&#45;&gt;13</title>
<g id="a_edge35"><a xlink:title="include">
<path fill="none" stroke="#1414ce" d="M310.03,-71.88C297.45,-62.89 281.87,-51.76 268.25,-42.03"/>
<polygon fill="#1414ce" stroke="#1414ce" points="270.24,-39.15 260.07,-36.19 266.17,-44.85 270.24,-39.15"/>
</a>
</g>
</g>
<!-- 14 -->
<g id="node22" class="node">
<title>14</title>
<g id="a_node22"><a xlink:title="inttypes.h">
<polygon fill="#ffffff" stroke="black" points="378.5,-36 289.5,-36 289.5,0 378.5,0 378.5,-36"/>
<text text-anchor="middle" x="334" y="-14.3" font-family="Times,serif" font-size="14.00">inttypes.h</text>
</a>
</g>
</g>
<!-- 11&#45;&gt;14 -->
<g id="edge36" class="edge">
<title>11&#45;&gt;14</title>
<g id="a_edge36"><a xlink:title="include">
<path fill="none" stroke="#1414ce" d="M334,-71.7C334,-63.98 334,-54.71 334,-46.11"/>
<polygon fill="#1414ce" stroke="#1414ce" points="337.5,-46.1 334,-36.1 330.5,-46.1 337.5,-46.1"/>
</a>
</g>
</g>
<!-- 1 -->
<g id="node18" class="node">
<title>1</title>
<g id="a_node18"><a xlink:title="/__w/AtomVM/AtomVM/src/libAtomVM/overflow_helpers.h">
<polygon fill="#bfbfbf" stroke="black" points="927,-540 499,-540 499,-504 927,-504 927,-540"/>
<text text-anchor="middle" x="713" y="-518.3" font-family="Times,serif" font-size="14.00">/__w/AtomVM/AtomVM/src/libAtomVM/overflow_helpers.h</text>
</a>
</g>
</g>
<!-- 1&#45;&gt;5 -->
<g id="edge39" class="edge">
<title>1&#45;&gt;5</title>
<g id="a_edge39"><a xlink:title="include">
<path fill="none" stroke="#1414ce" d="M749.68,-503.88C791.46,-481.55 854,-438.23 854,-379 854,-379 854,-379 854,-161 854,-103.89 795.89,-62.32 752.99,-39.41"/>
<polygon fill="#1414ce" stroke="#1414ce" points="754.58,-36.3 744.09,-34.81 751.36,-42.51 754.58,-36.3"/>
</a>
</g>
</g>
<!-- 1&#45;&gt;2 -->
<g id="edge38" class="edge">
<title>1&#45;&gt;2</title>
<g id="a_edge38"><a xlink:title="include">
<path fill="none" stroke="#1414ce" d="M678.51,-503.88C658.99,-494.19 634.45,-482 613.84,-471.77"/>
<polygon fill="#1414ce" stroke="#1414ce" points="615.2,-468.54 604.68,-467.23 612.08,-474.81 615.2,-468.54"/>
</a>
</g>
</g>
<!-- 22&#45;&gt;4 -->
<g id="edge40" class="edge">
<title>22&#45;&gt;4</title>
<g id="a_edge40"><a xlink:title="include">
<path fill="none" stroke="#1414ce" d="M149.46,-143.7C140.2,-135.05 128.84,-124.45 118.74,-115.03"/>
<polygon fill="#1414ce" stroke="#1414ce" points="121.02,-112.37 111.33,-108.1 116.25,-117.49 121.02,-112.37"/>
</a>
</g>
</g>
<!-- 20&#45;&gt;4 -->
<g id="edge41" class="edge">
<title>20&#45;&gt;4</title>
<g id="a_edge41"><a xlink:title="include">
<path fill="none" stroke="#1414ce" d="M276.43,-215.71C261.6,-196.26 235.34,-164.69 207,-144 187.89,-130.05 164.53,-118.41 143.94,-109.62"/>
<polygon fill="#1414ce" stroke="#1414ce" points="145.27,-106.39 134.7,-105.79 142.59,-112.86 145.27,-106.39"/>
</a>
</g>
</g>
<!-- 20&#45;&gt;15 -->
<g id="edge44" class="edge">
<title>20&#45;&gt;15</title>
<g id="a_edge44"><a xlink:title="include">
<path fill="none" stroke="#1414ce" d="M332.18,-220.4C376.51,-207.48 444.95,-187.52 488.33,-174.86"/>
<polygon fill="#1414ce" stroke="#1414ce" points="489.37,-178.21 497.99,-172.05 487.41,-171.49 489.37,-178.21"/>
</a>
</g>
</g>
<!-- 20&#45;&gt;18 -->
<g id="edge42" class="edge">
<title>20&#45;&gt;18</title>
<g id="a_edge42"><a xlink:title="include">
<path fill="none" stroke="#1414ce" d="M245.78,-218.98C207.9,-206.65 155.83,-189.59 129.98,-180.05"/>
<polygon fill="#1414ce" stroke="#1414ce" points="130.96,-176.67 120.37,-176.34 128.44,-183.2 130.96,-176.67"/>
</a>
</g>
</g>
<!-- 20&#45;&gt;11 -->
<g id="edge43" class="edge">
<title>20&#45;&gt;11</title>
<g id="a_edge43"><a xlink:title="include">
<path fill="none" stroke="#1414ce" d="M294.43,-215.87C302.13,-191.56 316.31,-146.82 325.44,-118.01"/>
<polygon fill="#1414ce" stroke="#1414ce" points="328.87,-118.78 328.55,-108.19 322.2,-116.66 328.87,-118.78"/>
</a>
</g>
</g>
</g>
</svg>
