<?xml version="1.0" encoding="UTF-8" standalone="no"?>
<!DOCTYPE svg PUBLIC "-//W3C//DTD SVG 1.1//EN"
 "http://www.w3.org/Graphics/SVG/1.1/DTD/svg11.dtd">
<!-- Generated by graphviz version 2.43.0 (0)
 -->
<!-- Title: %3 Pages: 1 -->
<svg width="1478pt" height="692pt"
 viewBox="0.00 0.00 1478.34 692.00" xmlns="http://www.w3.org/2000/svg" xmlns:xlink="http://www.w3.org/1999/xlink">
<g id="graph0" class="graph" transform="scale(1 1) rotate(0) translate(4 688)">
<title>%3</title>
<polygon fill="transparent" stroke="transparent" points="-4,4 -4,-688 1474.34,-688 1474.34,4 -4,4"/>
<!-- 4 -->
<g id="node1" class="node">
<title>4</title>
<g id="a_node1"><a xlink:title="atom.h">
<polygon fill="#ffffff" stroke="black" points="270,-180 204,-180 204,-144 270,-144 270,-180"/>
<text text-anchor="middle" x="237" y="-158.3" font-family="Times,serif" font-size="14.00">atom.h</text>
</a>
</g>
</g>
<!-- 3 -->
<g id="node26" class="node">
<title>3</title>
<g id="a_node26"><a xlink:title="stdint.h">
<polygon fill="#ffffff" stroke="black" points="410,-36 338,-36 338,0 410,0 410,-36"/>
<text text-anchor="middle" x="374" y="-14.3" font-family="Times,serif" font-size="14.00">stdint.h</text>
</a>
</g>
</g>
<!-- 4&#45;&gt;3 -->
<g id="edge1" class="edge">
<title>4&#45;&gt;3</title>
<g id="a_edge1"><a xlink:title="include">
<path fill="none" stroke="#1414ce" d="M253.53,-143.87C277.7,-118.82 322.82,-72.05 350.45,-43.41"/>
<polygon fill="#1414ce" stroke="#1414ce" points="352.99,-45.82 357.42,-36.19 347.95,-40.96 352.99,-45.82"/>
</a>
</g>
</g>
<!-- 5 -->
<g id="node28" class="node">
<title>5</title>
<g id="a_node28"><a xlink:title="stdlib.h">
<polygon fill="#ffffff" stroke="black" points="479.5,-108 408.5,-108 408.5,-72 479.5,-72 479.5,-108"/>
<text text-anchor="middle" x="444" y="-86.3" font-family="Times,serif" font-size="14.00">stdlib.h</text>
</a>
</g>
</g>
<!-- 4&#45;&gt;5 -->
<g id="edge2" class="edge">
<title>4&#45;&gt;5</title>
<g id="a_edge2"><a xlink:title="include">
<path fill="none" stroke="#1414ce" d="M270.08,-148.91C274.75,-147.24 279.49,-145.56 284,-144 322.59,-130.63 366.66,-116.09 398.76,-105.62"/>
<polygon fill="#1414ce" stroke="#1414ce" points="399.89,-108.93 408.32,-102.51 397.73,-102.28 399.89,-108.93"/>
</a>
</g>
</g>
<!-- 6 -->
<g id="node2" class="node">
<title>6</title>
<g id="a_node2"><a xlink:title="atom_table.h">
<polygon fill="#ffffff" stroke="black" points="680.5,-252 571.5,-252 571.5,-216 680.5,-216 680.5,-252"/>
<text text-anchor="middle" x="626" y="-230.3" font-family="Times,serif" font-size="14.00">atom_table.h</text>
</a>
</g>
</g>
<!-- 6&#45;&gt;4 -->
<g id="edge4" class="edge">
<title>6&#45;&gt;4</title>
<g id="a_edge4"><a xlink:title="include">
<path fill="none" stroke="#1414ce" d="M571.28,-223.88C510.37,-213.63 409.02,-196.29 322,-180 308.33,-177.44 293.44,-174.51 280.01,-171.82"/>
<polygon fill="#1414ce" stroke="#1414ce" points="280.56,-168.36 270.06,-169.81 279.17,-175.22 280.56,-168.36"/>
</a>
</g>
</g>
<!-- 8 -->
<g id="node18" class="node">
<title>8</title>
<g id="a_node18"><a xlink:title="utils.h">
<polygon fill="#ffffff" stroke="black" points="657,-180 595,-180 595,-144 657,-144 657,-180"/>
<text text-anchor="middle" x="626" y="-158.3" font-family="Times,serif" font-size="14.00">utils.h</text>
</a>
</g>
</g>
<!-- 6&#45;&gt;8 -->
<g id="edge5" class="edge">
<title>6&#45;&gt;8</title>
<g id="a_edge5"><a xlink:title="include">
<path fill="none" stroke="#1414ce" d="M626,-215.7C626,-207.98 626,-198.71 626,-190.11"/>
<polygon fill="#1414ce" stroke="#1414ce" points="629.5,-190.1 626,-180.1 622.5,-190.1 629.5,-190.1"/>
</a>
</g>
</g>
<!-- 7 -->
<g id="node24" class="node">
<title>7</title>
<g id="a_node24"><a xlink:title="stdbool.h">
<polygon fill="#ffffff" stroke="black" points="930.5,-108 847.5,-108 847.5,-72 930.5,-72 930.5,-108"/>
<text text-anchor="middle" x="889" y="-86.3" font-family="Times,serif" font-size="14.00">stdbool.h</text>
</a>
</g>
</g>
<!-- 6&#45;&gt;7 -->
<g id="edge3" class="edge">
<title>6&#45;&gt;7</title>
<g id="a_edge3"><a xlink:title="include">
<path fill="none" stroke="#1414ce" d="M657.72,-215.87C705.41,-190.12 795.56,-141.45 848.12,-113.07"/>
<polygon fill="#1414ce" stroke="#1414ce" points="850.03,-116.02 857.16,-108.19 846.7,-109.86 850.03,-116.02"/>
</a>
</g>
</g>
<!-- 1 -->
<g id="node3" class="node">
<title>1</title>
<g id="a_node3"><a xlink:title="/__w/AtomVM/AtomVM/src/libAtomVM/defaultatoms.h">
<polygon fill="#bfbfbf" stroke="black" points="1343.5,-684 942.5,-684 942.5,-648 1343.5,-648 1343.5,-684"/>
<text text-anchor="middle" x="1143" y="-662.3" font-family="Times,serif" font-size="14.00">/__w/AtomVM/AtomVM/src/libAtomVM/defaultatoms.h</text>
</a>
</g>
</g>
<!-- 2 -->
<g id="node6" class="node">
<title>2</title>
<g id="a_node6"><a xlink:title="globalcontext.h">
<polygon fill="#ffffff" stroke="black" points="1131.5,-612 1004.5,-612 1004.5,-576 1131.5,-576 1131.5,-612"/>
<text text-anchor="middle" x="1068" y="-590.3" font-family="Times,serif" font-size="14.00">globalcontext.h</text>
</a>
</g>
</g>
<!-- 1&#45;&gt;2 -->
<g id="edge6" class="edge">
<title>1&#45;&gt;2</title>
<g id="a_edge6"><a xlink:title="include">
<path fill="none" stroke="#1414ce" d="M1124.46,-647.7C1115.2,-639.05 1103.84,-628.45 1093.74,-619.03"/>
<polygon fill="#1414ce" stroke="#1414ce" points="1096.02,-616.37 1086.33,-612.1 1091.25,-621.49 1096.02,-616.37"/>
</a>
</g>
</g>
<!-- 30 -->
<g id="node21" class="node">
<title>30</title>
<g id="a_node21"><a xlink:title="defaultatoms.def">
<polygon fill="#ffffff" stroke="black" points="1286.5,-612 1149.5,-612 1149.5,-576 1286.5,-576 1286.5,-612"/>
<text text-anchor="middle" x="1218" y="-590.3" font-family="Times,serif" font-size="14.00">defaultatoms.def</text>
</a>
</g>
</g>
<!-- 1&#45;&gt;30 -->
<g id="edge7" class="edge">
<title>1&#45;&gt;30</title>
<g id="a_edge7"><a xlink:title="include">
<path fill="none" stroke="#1414ce" d="M1161.54,-647.7C1170.8,-639.05 1182.16,-628.45 1192.26,-619.03"/>
<polygon fill="#1414ce" stroke="#1414ce" points="1194.75,-621.49 1199.67,-612.1 1189.98,-616.37 1194.75,-621.49"/>
</a>
</g>
</g>
<!-- 12 -->
<g id="node4" class="node">
<title>12</title>
<g id="a_node4"><a xlink:title="erl_nif.h">
<polygon fill="#ffffff" stroke="black" points="148,-180 74,-180 74,-144 148,-144 148,-180"/>
<text text-anchor="middle" x="111" y="-158.3" font-family="Times,serif" font-size="14.00">erl_nif.h</text>
</a>
</g>
</g>
<!-- 13 -->
<g id="node16" class="node">
<title>13</title>
<g id="a_node16"><a xlink:title="term_typedef.h">
<polygon fill="#ffffff" stroke="black" points="173.5,-108 48.5,-108 48.5,-72 173.5,-72 173.5,-108"/>
<text text-anchor="middle" x="111" y="-86.3" font-family="Times,serif" font-size="14.00">term_typedef.h</text>
</a>
</g>
</g>
<!-- 12&#45;&gt;13 -->
<g id="edge8" class="edge">
<title>12&#45;&gt;13</title>
<g id="a_edge8"><a xlink:title="include">
<path fill="none" stroke="#1414ce" d="M111,-143.7C111,-135.98 111,-126.71 111,-118.11"/>
<polygon fill="#1414ce" stroke="#1414ce" points="114.5,-118.1 111,-108.1 107.5,-118.1 114.5,-118.1"/>
</a>
</g>
</g>
<!-- 16 -->
<g id="node5" class="node">
<title>16</title>
<g id="a_node5"><a xlink:title="ets.h">
<polygon fill="#ffffff" stroke="black" points="1123,-540 1069,-540 1069,-504 1123,-504 1123,-540"/>
<text text-anchor="middle" x="1096" y="-518.3" font-family="Times,serif" font-size="14.00">ets.h</text>
</a>
</g>
</g>
<!-- 17 -->
<g id="node8" class="node">
<title>17</title>
<g id="a_node8"><a xlink:title="list.h">
<polygon fill="#ffffff" stroke="black" points="1064,-180 1010,-180 1010,-144 1064,-144 1064,-180"/>
<text text-anchor="middle" x="1037" y="-158.3" font-family="Times,serif" font-size="14.00">list.h</text>
</a>
</g>
</g>
<!-- 16&#45;&gt;17 -->
<g id="edge9" class="edge">
<title>16&#45;&gt;17</title>
<g id="a_edge9"><a xlink:title="include">
<path fill="none" stroke="#1414ce" d="M1092.56,-503.59C1087.59,-476.9 1079,-424.19 1079,-379 1079,-379 1079,-379 1079,-305 1079,-263.15 1062.01,-217.1 1049.65,-189.11"/>
<polygon fill="#1414ce" stroke="#1414ce" points="1052.83,-187.66 1045.5,-180.01 1046.46,-190.56 1052.83,-187.66"/>
</a>
</g>
</g>
<!-- 18 -->
<g id="node14" class="node">
<title>18</title>
<g id="a_node14"><a xlink:title="synclist.h">
<polygon fill="#ffffff" stroke="black" points="1192.5,-252 1107.5,-252 1107.5,-216 1192.5,-216 1192.5,-252"/>
<text text-anchor="middle" x="1150" y="-230.3" font-family="Times,serif" font-size="14.00">synclist.h</text>
</a>
</g>
</g>
<!-- 16&#45;&gt;18 -->
<g id="edge10" class="edge">
<title>16&#45;&gt;18</title>
<g id="a_edge10"><a xlink:title="include">
<path fill="none" stroke="#1414ce" d="M1099.22,-503.97C1108.24,-456.19 1133.83,-320.62 1144.85,-262.27"/>
<polygon fill="#1414ce" stroke="#1414ce" points="1148.32,-262.78 1146.73,-252.31 1141.44,-261.48 1148.32,-262.78"/>
</a>
</g>
</g>
<!-- 20 -->
<g id="node15" class="node">
<title>20</title>
<g id="a_node15"><a xlink:title="term.h">
<polygon fill="#ffffff" stroke="black" points="536.5,-468 471.5,-468 471.5,-432 536.5,-432 536.5,-468"/>
<text text-anchor="middle" x="504" y="-446.3" font-family="Times,serif" font-size="14.00">term.h</text>
</a>
</g>
</g>
<!-- 16&#45;&gt;20 -->
<g id="edge11" class="edge">
<title>16&#45;&gt;20</title>
<g id="a_edge11"><a xlink:title="include">
<path fill="none" stroke="#1414ce" d="M1068.63,-517.76C974.25,-506.6 661.85,-469.67 546.92,-456.08"/>
<polygon fill="#1414ce" stroke="#1414ce" points="547.09,-452.57 536.75,-454.87 546.27,-459.52 547.09,-452.57"/>
</a>
</g>
</g>
<!-- 2&#45;&gt;4 -->
<g id="edge13" class="edge">
<title>2&#45;&gt;4</title>
<g id="a_edge13"><a xlink:title="include">
<path fill="none" stroke="#1414ce" d="M1004.23,-588.13C823.36,-572.87 313.61,-519.51 212,-396 161.16,-334.2 185.5,-292.79 208,-216 210.7,-206.79 215.18,-197.38 219.82,-189.11"/>
<polygon fill="#1414ce" stroke="#1414ce" points="222.94,-190.7 225.03,-180.31 216.92,-187.12 222.94,-190.7"/>
</a>
</g>
</g>
<!-- 2&#45;&gt;6 -->
<g id="edge14" class="edge">
<title>2&#45;&gt;6</title>
<g id="a_edge14"><a xlink:title="include">
<path fill="none" stroke="#1414ce" d="M1043.23,-575.91C995.54,-542.73 888.17,-466.63 803,-396 784.84,-380.94 781.41,-375.92 764,-360 725.57,-324.86 680.86,-284.44 652.99,-259.31"/>
<polygon fill="#1414ce" stroke="#1414ce" points="655.02,-256.43 645.25,-252.33 650.33,-261.63 655.02,-256.43"/>
</a>
</g>
</g>
<!-- 2&#45;&gt;12 -->
<g id="edge15" class="edge">
<title>2&#45;&gt;12</title>
<g id="a_edge15"><a xlink:title="include">
<path fill="none" stroke="#1414ce" d="M1004.23,-593.11C890.91,-592.09 647.58,-584.35 448,-540 357.41,-519.87 329.09,-519.67 252,-468 154.63,-402.74 123.24,-252.02 114.25,-190.21"/>
<polygon fill="#1414ce" stroke="#1414ce" points="117.69,-189.5 112.86,-180.07 110.75,-190.45 117.69,-189.5"/>
</a>
</g>
</g>
<!-- 2&#45;&gt;16 -->
<g id="edge16" class="edge">
<title>2&#45;&gt;16</title>
<g id="a_edge16"><a xlink:title="include">
<path fill="none" stroke="#1414ce" d="M1074.92,-575.7C1078.07,-567.81 1081.88,-558.3 1085.38,-549.55"/>
<polygon fill="#1414ce" stroke="#1414ce" points="1088.69,-550.69 1089.16,-540.1 1082.19,-548.09 1088.69,-550.69"/>
</a>
</g>
</g>
<!-- 2&#45;&gt;17 -->
<g id="edge17" class="edge">
<title>2&#45;&gt;17</title>
<g id="a_edge17"><a xlink:title="include">
<path fill="none" stroke="#1414ce" d="M1062.54,-575.71C1054.65,-549.18 1041,-496.67 1041,-451 1041,-451 1041,-451 1041,-305 1041,-264.98 1039.39,-218.64 1038.22,-190.07"/>
<polygon fill="#1414ce" stroke="#1414ce" points="1041.71,-189.89 1037.79,-180.04 1034.72,-190.18 1041.71,-189.89"/>
</a>
</g>
</g>
<!-- 27 -->
<g id="node9" class="node">
<title>27</title>
<g id="a_node9"><a xlink:title="mailbox.h">
<polygon fill="#ffffff" stroke="black" points="823,-252 737,-252 737,-216 823,-216 823,-252"/>
<text text-anchor="middle" x="780" y="-230.3" font-family="Times,serif" font-size="14.00">mailbox.h</text>
</a>
</g>
</g>
<!-- 2&#45;&gt;27 -->
<g id="edge18" class="edge">
<title>2&#45;&gt;27</title>
<g id="a_edge18"><a xlink:title="include">
<path fill="none" stroke="#1414ce" d="M1052.32,-575.9C1043.89,-566 1033.85,-552.96 1027,-540 971.93,-435.89 1028.44,-371.13 945,-288 915.41,-258.53 869.41,-245.43 833.48,-239.62"/>
<polygon fill="#1414ce" stroke="#1414ce" points="833.57,-236.1 823.16,-238.11 832.55,-243.02 833.57,-236.1"/>
</a>
</g>
</g>
<!-- 19 -->
<g id="node13" class="node">
<title>19</title>
<g id="a_node13"><a xlink:title="smp.h">
<polygon fill="#ffffff" stroke="black" points="1180,-180 1120,-180 1120,-144 1180,-144 1180,-180"/>
<text text-anchor="middle" x="1150" y="-158.3" font-family="Times,serif" font-size="14.00">smp.h</text>
</a>
</g>
</g>
<!-- 2&#45;&gt;19 -->
<g id="edge19" class="edge">
<title>2&#45;&gt;19</title>
<g id="a_edge19"><a xlink:title="include">
<path fill="none" stroke="#1414ce" d="M1109.4,-575.97C1154.72,-554.26 1221,-512.06 1221,-451 1221,-451 1221,-451 1221,-305 1221,-264.46 1220.21,-251.7 1201,-216 1195.29,-205.39 1186.86,-195.4 1178.49,-187.02"/>
<polygon fill="#1414ce" stroke="#1414ce" points="1180.88,-184.45 1171.22,-180.09 1176.05,-189.52 1180.88,-184.45"/>
</a>
</g>
</g>
<!-- 2&#45;&gt;18 -->
<g id="edge20" class="edge">
<title>2&#45;&gt;18</title>
<g id="a_edge20"><a xlink:title="include">
<path fill="none" stroke="#1414ce" d="M1095.78,-575.93C1108.56,-566.75 1122.87,-554.37 1132,-540 1153.91,-505.52 1155,-491.86 1155,-451 1155,-451 1155,-451 1155,-377 1155,-336.97 1152.99,-290.63 1151.52,-262.07"/>
<polygon fill="#1414ce" stroke="#1414ce" points="1155.01,-261.84 1150.99,-252.04 1148.02,-262.21 1155.01,-261.84"/>
</a>
</g>
</g>
<!-- 2&#45;&gt;20 -->
<g id="edge21" class="edge">
<title>2&#45;&gt;20</title>
<g id="a_edge21"><a xlink:title="include">
<path fill="none" stroke="#1414ce" d="M1004.35,-584.45C943.62,-575.64 849.82,-560.33 770,-540 689.54,-519.5 598.25,-486.83 546.26,-467.29"/>
<polygon fill="#1414ce" stroke="#1414ce" points="547.3,-463.94 536.71,-463.68 544.83,-470.49 547.3,-463.94"/>
</a>
</g>
</g>
<!-- 28 -->
<g id="node17" class="node">
<title>28</title>
<g id="a_node17"><a xlink:title="timer_list.h">
<polygon fill="#ffffff" stroke="black" points="1347,-252 1249,-252 1249,-216 1347,-216 1347,-252"/>
<text text-anchor="middle" x="1298" y="-230.3" font-family="Times,serif" font-size="14.00">timer_list.h</text>
</a>
</g>
</g>
<!-- 2&#45;&gt;28 -->
<g id="edge22" class="edge">
<title>2&#45;&gt;28</title>
<g id="a_edge22"><a xlink:title="include">
<path fill="none" stroke="#1414ce" d="M1129.81,-575.95C1173.83,-563.38 1226.64,-547.25 1235,-540 1268.2,-511.23 1278,-494.93 1278,-451 1278,-451 1278,-451 1278,-377 1278,-336.82 1285.95,-290.87 1291.82,-262.39"/>
<polygon fill="#1414ce" stroke="#1414ce" points="1295.3,-262.89 1293.95,-252.38 1288.45,-261.43 1295.3,-262.89"/>
</a>
</g>
</g>
<!-- 29 -->
<g id="node19" class="node">
<title>29</title>
<g id="a_node19"><a xlink:title="valueshashtable.h">
<polygon fill="#ffffff" stroke="black" points="1420,-180 1274,-180 1274,-144 1420,-144 1420,-180"/>
<text text-anchor="middle" x="1347" y="-158.3" font-family="Times,serif" font-size="14.00">valueshashtable.h</text>
</a>
</g>
</g>
<!-- 2&#45;&gt;29 -->
<g id="edge23" class="edge">
<title>2&#45;&gt;29</title>
<g id="a_edge23"><a xlink:title="include">
<path fill="none" stroke="#1414ce" d="M1131.7,-577.37C1184.85,-564.1 1253.82,-546.23 1266,-540 1321.67,-511.5 1375,-513.54 1375,-451 1375,-451 1375,-451 1375,-305 1375,-264.27 1363.77,-218.19 1355.54,-189.86"/>
<polygon fill="#1414ce" stroke="#1414ce" points="1358.89,-188.85 1352.67,-180.27 1352.18,-190.86 1358.89,-188.85"/>
</a>
</g>
</g>
<!-- 2&#45;&gt;3 -->
<g id="edge12" class="edge">
<title>2&#45;&gt;3</title>
<g id="a_edge12"><a xlink:title="include">
<path fill="none" stroke="#1414ce" d="M1131.57,-577.86C1134.42,-577.22 1137.24,-576.6 1140,-576 1284.38,-544.69 1448,-598.73 1448,-451 1448,-451 1448,-451 1448,-161 1448,-123.43 1554.17,-145.49 1297,-72 1129.66,-24.18 583.47,-19.34 420.39,-18.98"/>
<polygon fill="#1414ce" stroke="#1414ce" points="420.21,-15.48 410.21,-18.97 420.2,-22.48 420.21,-15.48"/>
</a>
</g>
</g>
<!-- 23 -->
<g id="node7" class="node">
<title>23</title>
<g id="a_node7"><a xlink:title="intn.h">
<polygon fill="#ffffff" stroke="black" points="871.5,-396 812.5,-396 812.5,-360 871.5,-360 871.5,-396"/>
<text text-anchor="middle" x="842" y="-374.3" font-family="Times,serif" font-size="14.00">intn.h</text>
</a>
</g>
</g>
<!-- 23&#45;&gt;8 -->
<g id="edge26" class="edge">
<title>23&#45;&gt;8</title>
<g id="a_edge26"><a xlink:title="include">
<path fill="none" stroke="#1414ce" d="M826.95,-359.95C800.17,-329.9 742.07,-265.95 689,-216 678.38,-206.01 666.23,-195.56 655.44,-186.62"/>
<polygon fill="#1414ce" stroke="#1414ce" points="657.46,-183.74 647.51,-180.1 653.01,-189.15 657.46,-183.74"/>
</a>
</g>
</g>
<!-- 23&#45;&gt;7 -->
<g id="edge24" class="edge">
<title>23&#45;&gt;7</title>
<g id="a_edge24"><a xlink:title="include">
<path fill="none" stroke="#1414ce" d="M843.48,-359.79C845.23,-341.76 848.6,-312.67 854,-288 857.57,-271.66 861.31,-268.32 865,-252 875.52,-205.44 882.61,-150.23 886.21,-118.06"/>
<polygon fill="#1414ce" stroke="#1414ce" points="889.69,-118.4 887.3,-108.07 882.74,-117.64 889.69,-118.4"/>
</a>
</g>
</g>
<!-- 22 -->
<g id="node29" class="node">
<title>22</title>
<g id="a_node29"><a xlink:title="string.h">
<polygon fill="#ffffff" stroke="black" points="936.5,-324 863.5,-324 863.5,-288 936.5,-288 936.5,-324"/>
<text text-anchor="middle" x="900" y="-302.3" font-family="Times,serif" font-size="14.00">string.h</text>
</a>
</g>
</g>
<!-- 23&#45;&gt;22 -->
<g id="edge25" class="edge">
<title>23&#45;&gt;22</title>
<g id="a_edge25"><a xlink:title="include">
<path fill="none" stroke="#1414ce" d="M856.34,-359.7C863.29,-351.3 871.77,-341.07 879.4,-331.86"/>
<polygon fill="#1414ce" stroke="#1414ce" points="882.14,-334.04 885.83,-324.1 876.75,-329.57 882.14,-334.04"/>
</a>
</g>
</g>
<!-- 17&#45;&gt;7 -->
<g id="edge27" class="edge">
<title>17&#45;&gt;7</title>
<g id="a_edge27"><a xlink:title="include">
<path fill="none" stroke="#1414ce" d="M1009.85,-148.16C988.77,-138.19 959.05,-124.13 934.37,-112.46"/>
<polygon fill="#1414ce" stroke="#1414ce" points="935.71,-109.22 925.18,-108.11 932.72,-115.55 935.71,-109.22"/>
</a>
</g>
</g>
<!-- 27&#45;&gt;17 -->
<g id="edge29" class="edge">
<title>27&#45;&gt;17</title>
<g id="a_edge29"><a xlink:title="include">
<path fill="none" stroke="#1414ce" d="M823.02,-221.28C872.54,-207.79 953.06,-185.86 999.93,-173.1"/>
<polygon fill="#1414ce" stroke="#1414ce" points="1000.95,-176.45 1009.68,-170.44 999.11,-169.69 1000.95,-176.45"/>
</a>
</g>
</g>
<!-- 27&#45;&gt;13 -->
<g id="edge30" class="edge">
<title>27&#45;&gt;13</title>
<g id="a_edge30"><a xlink:title="include">
<path fill="none" stroke="#1414ce" d="M736.88,-223.85C624.82,-200.06 323.46,-136.1 183.84,-106.46"/>
<polygon fill="#1414ce" stroke="#1414ce" points="184.18,-102.95 173.67,-104.3 182.73,-109.8 184.18,-102.95"/>
</a>
</g>
</g>
<!-- 27&#45;&gt;8 -->
<g id="edge31" class="edge">
<title>27&#45;&gt;8</title>
<g id="a_edge31"><a xlink:title="include">
<path fill="none" stroke="#1414ce" d="M742.33,-215.88C719.32,-205.42 689.9,-192.05 666.41,-181.37"/>
<polygon fill="#1414ce" stroke="#1414ce" points="667.62,-178.07 657.07,-177.12 664.73,-184.45 667.62,-178.07"/>
</a>
</g>
</g>
<!-- 27&#45;&gt;7 -->
<g id="edge28" class="edge">
<title>27&#45;&gt;7</title>
<g id="a_edge28"><a xlink:title="include">
<path fill="none" stroke="#1414ce" d="M789.53,-215.9C800.13,-197.44 818.25,-167.54 837,-144 844.83,-134.17 854.23,-124.15 862.88,-115.5"/>
<polygon fill="#1414ce" stroke="#1414ce" points="865.53,-117.8 870.22,-108.29 860.63,-112.8 865.53,-117.8"/>
</a>
</g>
</g>
<!-- 24 -->
<g id="node10" class="node">
<title>24</title>
<g id="a_node10"><a xlink:title="memory.h">
<polygon fill="#ffffff" stroke="black" points="401,-252 315,-252 315,-216 401,-216 401,-252"/>
<text text-anchor="middle" x="358" y="-230.3" font-family="Times,serif" font-size="14.00">memory.h</text>
</a>
</g>
</g>
<!-- 24&#45;&gt;12 -->
<g id="edge34" class="edge">
<title>24&#45;&gt;12</title>
<g id="a_edge34"><a xlink:title="include">
<path fill="none" stroke="#1414ce" d="M314.79,-219.93C310.14,-218.58 305.48,-217.25 301,-216 239.52,-198.88 223.2,-198.1 162,-180 160.74,-179.63 159.47,-179.25 158.18,-178.85"/>
<polygon fill="#1414ce" stroke="#1414ce" points="158.82,-175.39 148.23,-175.74 156.73,-182.07 158.82,-175.39"/>
</a>
</g>
</g>
<!-- 24&#45;&gt;13 -->
<g id="edge35" class="edge">
<title>24&#45;&gt;13</title>
<g id="a_edge35"><a xlink:title="include">
<path fill="none" stroke="#1414ce" d="M314.79,-220.16C270.09,-206.68 205.37,-186.57 195,-180 180.79,-171 152.02,-139.09 132.14,-116.05"/>
<polygon fill="#1414ce" stroke="#1414ce" points="134.69,-113.64 125.52,-108.32 129.37,-118.19 134.69,-113.64"/>
</a>
</g>
</g>
<!-- 24&#45;&gt;8 -->
<g id="edge36" class="edge">
<title>24&#45;&gt;8</title>
<g id="a_edge36"><a xlink:title="include">
<path fill="none" stroke="#1414ce" d="M401.06,-221.75C451.72,-208.52 535.23,-186.71 584.99,-173.71"/>
<polygon fill="#1414ce" stroke="#1414ce" points="585.98,-177.07 594.77,-171.16 584.21,-170.3 585.98,-177.07"/>
</a>
</g>
</g>
<!-- 24&#45;&gt;3 -->
<g id="edge32" class="edge">
<title>24&#45;&gt;3</title>
<g id="a_edge32"><a xlink:title="include">
<path fill="none" stroke="#1414ce" d="M359.28,-215.85C362.05,-178.83 368.6,-91.18 371.95,-46.39"/>
<polygon fill="#1414ce" stroke="#1414ce" points="375.46,-46.47 372.71,-36.23 368.48,-45.94 375.46,-46.47"/>
</a>
</g>
</g>
<!-- 24&#45;&gt;5 -->
<g id="edge33" class="edge">
<title>24&#45;&gt;5</title>
<g id="a_edge33"><a xlink:title="include">
<path fill="none" stroke="#1414ce" d="M368.37,-215.87C383.29,-191.24 410.91,-145.64 428.32,-116.88"/>
<polygon fill="#1414ce" stroke="#1414ce" points="431.4,-118.56 433.59,-108.19 425.42,-114.93 431.4,-118.56"/>
</a>
</g>
</g>
<!-- 25 -->
<g id="node11" class="node">
<title>25</title>
<g id="a_node11"><a xlink:title="refc_binary.h">
<polygon fill="#ffffff" stroke="black" points="640,-396 532,-396 532,-360 640,-360 640,-396"/>
<text text-anchor="middle" x="586" y="-374.3" font-family="Times,serif" font-size="14.00">refc_binary.h</text>
</a>
</g>
</g>
<!-- 25&#45;&gt;17 -->
<g id="edge39" class="edge">
<title>25&#45;&gt;17</title>
<g id="a_edge39"><a xlink:title="include">
<path fill="none" stroke="#1414ce" d="M637.45,-359.95C666.35,-350.06 702.95,-337.02 735,-324 806.12,-295.11 824.28,-288.14 892,-252 930.97,-231.2 973.88,-204.34 1002.84,-185.59"/>
<polygon fill="#1414ce" stroke="#1414ce" points="1004.89,-188.43 1011.36,-180.04 1001.07,-182.56 1004.89,-188.43"/>
</a>
</g>
</g>
<!-- 26 -->
<g id="node12" class="node">
<title>26</title>
<g id="a_node12"><a xlink:title="resources.h">
<polygon fill="#ffffff" stroke="black" points="594,-324 494,-324 494,-288 594,-288 594,-324"/>
<text text-anchor="middle" x="544" y="-302.3" font-family="Times,serif" font-size="14.00">resources.h</text>
</a>
</g>
</g>
<!-- 25&#45;&gt;26 -->
<g id="edge40" class="edge">
<title>25&#45;&gt;26</title>
<g id="a_edge40"><a xlink:title="include">
<path fill="none" stroke="#1414ce" d="M575.62,-359.7C570.74,-351.56 564.81,-341.69 559.42,-332.7"/>
<polygon fill="#1414ce" stroke="#1414ce" points="562.41,-330.88 554.26,-324.1 556.41,-334.48 562.41,-330.88"/>
</a>
</g>
</g>
<!-- 25&#45;&gt;7 -->
<g id="edge37" class="edge">
<title>25&#45;&gt;7</title>
<g id="a_edge37"><a xlink:title="include">
<path fill="none" stroke="#1414ce" d="M611.31,-359.92C640.34,-340.81 689.76,-309.68 735,-288 776.47,-268.13 799.73,-284.76 832,-252 841.73,-242.12 867.66,-160.76 880.93,-117.63"/>
<polygon fill="#1414ce" stroke="#1414ce" points="884.28,-118.63 883.86,-108.04 877.59,-116.58 884.28,-118.63"/>
</a>
</g>
</g>
<!-- 25&#45;&gt;5 -->
<g id="edge38" class="edge">
<title>25&#45;&gt;5</title>
<g id="a_edge38"><a xlink:title="include">
<path fill="none" stroke="#1414ce" d="M595.13,-359.88C603.67,-341.42 613.64,-311.5 603,-288 593,-265.91 578.38,-269.89 562,-252 521.57,-207.84 481.97,-149.96 460.49,-116.99"/>
<polygon fill="#1414ce" stroke="#1414ce" points="463.3,-114.88 454.93,-108.38 457.42,-118.68 463.3,-114.88"/>
</a>
</g>
</g>
<!-- 26&#45;&gt;12 -->
<g id="edge42" class="edge">
<title>26&#45;&gt;12</title>
<g id="a_edge42"><a xlink:title="include">
<path fill="none" stroke="#1414ce" d="M493.95,-297C445.21,-288.47 369.41,-273.27 306,-252 250.96,-233.54 190.59,-204.53 151.83,-184.68"/>
<polygon fill="#1414ce" stroke="#1414ce" points="153.43,-181.57 142.93,-180.1 150.22,-187.79 153.43,-181.57"/>
</a>
</g>
</g>
<!-- 26&#45;&gt;17 -->
<g id="edge43" class="edge">
<title>26&#45;&gt;17</title>
<g id="a_edge43"><a xlink:title="include">
<path fill="none" stroke="#1414ce" d="M594.25,-299.28C652.39,-291.85 750.54,-276.82 832,-252 893.16,-233.36 960.53,-201.84 1000.77,-181.75"/>
<polygon fill="#1414ce" stroke="#1414ce" points="1002.54,-184.77 1009.9,-177.15 999.4,-178.52 1002.54,-184.77"/>
</a>
</g>
</g>
<!-- 26&#45;&gt;27 -->
<g id="edge44" class="edge">
<title>26&#45;&gt;27</title>
<g id="a_edge44"><a xlink:title="include">
<path fill="none" stroke="#1414ce" d="M594.05,-290.15C633.09,-278.57 687.19,-262.53 726.97,-250.73"/>
<polygon fill="#1414ce" stroke="#1414ce" points="728.17,-254.03 736.76,-247.83 726.17,-247.31 728.17,-254.03"/>
</a>
</g>
</g>
<!-- 26&#45;&gt;24 -->
<g id="edge45" class="edge">
<title>26&#45;&gt;24</title>
<g id="a_edge45"><a xlink:title="include">
<path fill="none" stroke="#1414ce" d="M498.5,-287.88C471.95,-277.88 438.33,-265.23 410.64,-254.81"/>
<polygon fill="#1414ce" stroke="#1414ce" points="411.71,-251.47 401.11,-251.23 409.24,-258.02 411.71,-251.47"/>
</a>
</g>
</g>
<!-- 26&#45;&gt;18 -->
<g id="edge46" class="edge">
<title>26&#45;&gt;18</title>
<g id="a_edge46"><a xlink:title="include">
<path fill="none" stroke="#1414ce" d="M594.11,-299.21C707.24,-286.14 981.59,-254.45 1097.22,-241.1"/>
<polygon fill="#1414ce" stroke="#1414ce" points="1097.71,-244.56 1107.24,-239.94 1096.91,-237.61 1097.71,-244.56"/>
</a>
</g>
</g>
<!-- 26&#45;&gt;5 -->
<g id="edge41" class="edge">
<title>26&#45;&gt;5</title>
<g id="a_edge41"><a xlink:title="include">
<path fill="none" stroke="#1414ce" d="M522.29,-287.87C511.51,-278.34 499.09,-265.66 491,-252 465.56,-209.05 453.11,-151.42 447.67,-118.03"/>
<polygon fill="#1414ce" stroke="#1414ce" points="451.12,-117.45 446.14,-108.09 444.2,-118.51 451.12,-117.45"/>
</a>
</g>
</g>
<!-- 19&#45;&gt;7 -->
<g id="edge47" class="edge">
<title>19&#45;&gt;7</title>
<g id="a_edge47"><a xlink:title="include">
<path fill="none" stroke="#1414ce" d="M1119.89,-148.78C1115.27,-147.07 1110.53,-145.42 1106,-144 1050.22,-126.49 984.88,-111.22 940.59,-101.63"/>
<polygon fill="#1414ce" stroke="#1414ce" points="941.15,-98.17 930.63,-99.49 939.68,-105.01 941.15,-98.17"/>
</a>
</g>
</g>
<!-- 18&#45;&gt;17 -->
<g id="edge49" class="edge">
<title>18&#45;&gt;17</title>
<g id="a_edge49"><a xlink:title="include">
<path fill="none" stroke="#1414ce" d="M1122.36,-215.88C1107.47,-206.66 1088.93,-195.17 1072.94,-185.26"/>
<polygon fill="#1414ce" stroke="#1414ce" points="1074.7,-182.24 1064.36,-179.95 1071.02,-188.19 1074.7,-182.24"/>
</a>
</g>
</g>
<!-- 18&#45;&gt;19 -->
<g id="edge50" class="edge">
<title>18&#45;&gt;19</title>
<g id="a_edge50"><a xlink:title="include">
<path fill="none" stroke="#1414ce" d="M1150,-215.7C1150,-207.98 1150,-198.71 1150,-190.11"/>
<polygon fill="#1414ce" stroke="#1414ce" points="1153.5,-190.1 1150,-180.1 1146.5,-190.1 1153.5,-190.1"/>
</a>
</g>
</g>
<!-- 11 -->
<g id="node27" class="node">
<title>11</title>
<g id="a_node27"><a xlink:title="stdio.h">
<polygon fill="#ffffff" stroke="black" points="597.5,-108 532.5,-108 532.5,-72 597.5,-72 597.5,-108"/>
<text text-anchor="middle" x="565" y="-86.3" font-family="Times,serif" font-size="14.00">stdio.h</text>
</a>
</g>
</g>
<!-- 18&#45;&gt;11 -->
<g id="edge48" class="edge">
<title>18&#45;&gt;11</title>
<g id="a_edge48"><a xlink:title="include">
<path fill="none" stroke="#1414ce" d="M1137.69,-215.98C1120.4,-192.6 1089.21,-152.46 1073,-144 1032.16,-122.7 723.01,-101.06 607.96,-93.67"/>
<polygon fill="#1414ce" stroke="#1414ce" points="607.97,-90.16 597.77,-93.02 607.52,-97.15 607.97,-90.16"/>
</a>
</g>
</g>
<!-- 20&#45;&gt;4 -->
<g id="edge57" class="edge">
<title>20&#45;&gt;4</title>
<g id="a_edge57"><a xlink:title="include">
<path fill="none" stroke="#1414ce" d="M471.48,-447.57C406.57,-443.96 264.63,-432.03 235,-396 186.17,-336.61 210.95,-236.98 226.95,-189.6"/>
<polygon fill="#1414ce" stroke="#1414ce" points="230.29,-190.64 230.3,-180.04 223.69,-188.32 230.29,-190.64"/>
</a>
</g>
</g>
<!-- 20&#45;&gt;23 -->
<g id="edge58" class="edge">
<title>20&#45;&gt;23</title>
<g id="a_edge58"><a xlink:title="include">
<path fill="none" stroke="#1414ce" d="M536.86,-442.45C586.22,-432.58 682.41,-413.21 764,-396 776.5,-393.36 790.11,-390.42 802.42,-387.74"/>
<polygon fill="#1414ce" stroke="#1414ce" points="803.37,-391.11 812.39,-385.55 801.87,-384.27 803.37,-391.11"/>
</a>
</g>
</g>
<!-- 20&#45;&gt;24 -->
<g id="edge59" class="edge">
<title>20&#45;&gt;24</title>
<g id="a_edge59"><a xlink:title="include">
<path fill="none" stroke="#1414ce" d="M471.35,-436.57C452.27,-427.82 429.06,-414.37 414,-396 381.58,-356.45 367.41,-296.94 361.63,-262.43"/>
<polygon fill="#1414ce" stroke="#1414ce" points="365.03,-261.51 360.03,-252.16 358.11,-262.58 365.03,-261.51"/>
</a>
</g>
</g>
<!-- 20&#45;&gt;25 -->
<g id="edge60" class="edge">
<title>20&#45;&gt;25</title>
<g id="a_edge60"><a xlink:title="include">
<path fill="none" stroke="#1414ce" d="M524.27,-431.7C534.5,-422.97 547.06,-412.24 558.18,-402.75"/>
<polygon fill="#1414ce" stroke="#1414ce" points="560.63,-405.26 565.96,-396.1 556.09,-399.94 560.63,-405.26"/>
</a>
</g>
</g>
<!-- 20&#45;&gt;26 -->
<g id="edge61" class="edge">
<title>20&#45;&gt;26</title>
<g id="a_edge61"><a xlink:title="include">
<path fill="none" stroke="#1414ce" d="M506.81,-431.72C509.95,-413.63 515.59,-384.5 523,-360 525.64,-351.28 529.09,-341.99 532.43,-333.65"/>
<polygon fill="#1414ce" stroke="#1414ce" points="535.67,-334.98 536.25,-324.41 529.2,-332.31 535.67,-334.98"/>
</a>
</g>
</g>
<!-- 20&#45;&gt;13 -->
<g id="edge63" class="edge">
<title>20&#45;&gt;13</title>
<g id="a_edge63"><a xlink:title="include">
<path fill="none" stroke="#1414ce" d="M471.19,-447.9C408.75,-444.94 269.2,-434.25 159,-396 97.7,-374.72 64.66,-380.06 32,-324 -8.27,-254.88 -5.65,-214.59 32,-144 38.69,-131.45 49.82,-121.35 61.64,-113.47"/>
<polygon fill="#1414ce" stroke="#1414ce" points="63.64,-116.34 70.32,-108.12 59.97,-110.39 63.64,-116.34"/>
</a>
</g>
</g>
<!-- 20&#45;&gt;8 -->
<g id="edge62" class="edge">
<title>20&#45;&gt;8</title>
<g id="a_edge62"><a xlink:title="include">
<path fill="none" stroke="#1414ce" d="M496.43,-431.72C484.27,-401.3 463.82,-336.8 485,-288 505.03,-241.86 551.86,-206.05 586.08,-184.81"/>
<polygon fill="#1414ce" stroke="#1414ce" points="588.17,-187.63 594.92,-179.47 584.55,-181.64 588.17,-187.63"/>
</a>
</g>
</g>
<!-- 20&#45;&gt;7 -->
<g id="edge52" class="edge">
<title>20&#45;&gt;7</title>
<g id="a_edge52"><a xlink:title="include">
<path fill="none" stroke="#1414ce" d="M536.66,-448.34C621.07,-446.08 844.07,-436.34 904,-396 993.13,-336.01 931.74,-179.86 902.29,-117.39"/>
<polygon fill="#1414ce" stroke="#1414ce" points="905.36,-115.69 897.87,-108.2 899.05,-118.73 905.36,-115.69"/>
</a>
</g>
</g>
<!-- 20&#45;&gt;3 -->
<g id="edge53" class="edge">
<title>20&#45;&gt;3</title>
<g id="a_edge53"><a xlink:title="include">
<path fill="none" stroke="#1414ce" d="M471.4,-446.26C404.53,-440.13 254.55,-423.66 212,-396 114.64,-332.71 99.18,-290.98 65,-180 60.29,-164.71 55.49,-156.87 65,-144 97.32,-100.24 131.2,-127.49 182,-108 234.49,-87.86 292.84,-60 331.28,-40.84"/>
<polygon fill="#1414ce" stroke="#1414ce" points="333.23,-43.77 340.61,-36.17 330.1,-37.52 333.23,-43.77"/>
</a>
</g>
</g>
<!-- 20&#45;&gt;11 -->
<g id="edge54" class="edge">
<title>20&#45;&gt;11</title>
<g id="a_edge54"><a xlink:title="include">
<path fill="none" stroke="#1414ce" d="M491.34,-431.83C484.8,-421.9 477.48,-408.86 474,-396 461.45,-349.67 463.04,-334.96 473,-288 486.91,-222.47 525.74,-153.13 548.26,-116.75"/>
<polygon fill="#1414ce" stroke="#1414ce" points="551.26,-118.56 553.61,-108.23 545.33,-114.84 551.26,-118.56"/>
</a>
</g>
</g>
<!-- 20&#45;&gt;5 -->
<g id="edge55" class="edge">
<title>20&#45;&gt;5</title>
<g id="a_edge55"><a xlink:title="include">
<path fill="none" stroke="#1414ce" d="M471.42,-439.95C446.54,-431.74 412.62,-417.57 389,-396 334.44,-346.2 325.09,-323.36 306,-252 289.86,-191.7 355.65,-140.64 401.91,-113.04"/>
<polygon fill="#1414ce" stroke="#1414ce" points="403.7,-116.05 410.59,-108 400.18,-110 403.7,-116.05"/>
</a>
</g>
</g>
<!-- 20&#45;&gt;22 -->
<g id="edge56" class="edge">
<title>20&#45;&gt;22</title>
<g id="a_edge56"><a xlink:title="include">
<path fill="none" stroke="#1414ce" d="M536.61,-448.98C618.58,-448.25 830.26,-441.86 880,-396 896.78,-380.53 901,-354.28 901.49,-334.28"/>
<polygon fill="#1414ce" stroke="#1414ce" points="904.99,-334.19 901.45,-324.2 897.99,-334.22 904.99,-334.19"/>
</a>
</g>
</g>
<!-- 21 -->
<g id="node30" class="node">
<title>21</title>
<g id="a_node30"><a xlink:title="sys/types.h">
<polygon fill="#ffffff" stroke="black" points="755.5,-396 658.5,-396 658.5,-360 755.5,-360 755.5,-396"/>
<text text-anchor="middle" x="707" y="-374.3" font-family="Times,serif" font-size="14.00">sys/types.h</text>
</a>
</g>
</g>
<!-- 20&#45;&gt;21 -->
<g id="edge51" class="edge">
<title>20&#45;&gt;21</title>
<g id="a_edge51"><a xlink:title="include">
<path fill="none" stroke="#1414ce" d="M536.62,-437.75C566.76,-427.36 612.25,-411.67 648.65,-399.12"/>
<polygon fill="#1414ce" stroke="#1414ce" points="649.86,-402.41 658.17,-395.84 647.58,-395.79 649.86,-402.41"/>
</a>
</g>
</g>
<!-- 14 -->
<g id="node20" class="node">
<title>14</title>
<g id="a_node20"><a xlink:title="assert.h">
<polygon fill="#ffffff" stroke="black" points="74,-36 0,-36 0,0 74,0 74,-36"/>
<text text-anchor="middle" x="37" y="-14.3" font-family="Times,serif" font-size="14.00">assert.h</text>
</a>
</g>
</g>
<!-- 13&#45;&gt;14 -->
<g id="edge64" class="edge">
<title>13&#45;&gt;14</title>
<g id="a_edge64"><a xlink:title="include">
<path fill="none" stroke="#1414ce" d="M92.71,-71.7C83.57,-63.05 72.36,-52.45 62.4,-43.03"/>
<polygon fill="#1414ce" stroke="#1414ce" points="64.75,-40.43 55.08,-36.1 59.94,-45.52 64.75,-40.43"/>
</a>
</g>
</g>
<!-- 9 -->
<g id="node22" class="node">
<title>9</title>
<g id="a_node22"><a xlink:title="inttypes.h">
<polygon fill="#ffffff" stroke="black" points="303.5,-36 214.5,-36 214.5,0 303.5,0 303.5,-36"/>
<text text-anchor="middle" x="259" y="-14.3" font-family="Times,serif" font-size="14.00">inttypes.h</text>
</a>
</g>
</g>
<!-- 13&#45;&gt;9 -->
<g id="edge66" class="edge">
<title>13&#45;&gt;9</title>
<g id="a_edge66"><a xlink:title="include">
<path fill="none" stroke="#1414ce" d="M147.2,-71.88C167.26,-62.39 192.37,-50.51 213.71,-40.42"/>
<polygon fill="#1414ce" stroke="#1414ce" points="215.37,-43.51 222.91,-36.07 212.38,-37.18 215.37,-43.51"/>
</a>
</g>
</g>
<!-- 15 -->
<g id="node23" class="node">
<title>15</title>
<g id="a_node23"><a xlink:title="limits.h">
<polygon fill="#ffffff" stroke="black" points="163.5,-36 92.5,-36 92.5,0 163.5,0 163.5,-36"/>
<text text-anchor="middle" x="128" y="-14.3" font-family="Times,serif" font-size="14.00">limits.h</text>
</a>
</g>
</g>
<!-- 13&#45;&gt;15 -->
<g id="edge65" class="edge">
<title>13&#45;&gt;15</title>
<g id="a_edge65"><a xlink:title="include">
<path fill="none" stroke="#1414ce" d="M115.2,-71.7C117.1,-63.9 119.38,-54.51 121.48,-45.83"/>
<polygon fill="#1414ce" stroke="#1414ce" points="124.89,-46.65 123.85,-36.1 118.08,-45 124.89,-46.65"/>
</a>
</g>
</g>
<!-- 13&#45;&gt;3 -->
<g id="edge67" class="edge">
<title>13&#45;&gt;3</title>
<g id="a_edge67"><a xlink:title="include">
<path fill="none" stroke="#1414ce" d="M173.51,-72.68C213.21,-62.28 265.65,-48.47 312,-36 317.25,-34.59 322.76,-33.1 328.22,-31.61"/>
<polygon fill="#1414ce" stroke="#1414ce" points="329.23,-34.96 337.95,-28.95 327.38,-28.21 329.23,-34.96"/>
</a>
</g>
</g>
<!-- 28&#45;&gt;17 -->
<g id="edge70" class="edge">
<title>28&#45;&gt;17</title>
<g id="a_edge70"><a xlink:title="include">
<path fill="none" stroke="#1414ce" d="M1248.91,-219.83C1198.11,-206.21 1119.92,-185.24 1074.07,-172.94"/>
<polygon fill="#1414ce" stroke="#1414ce" points="1074.82,-169.52 1064.25,-170.31 1073,-176.28 1074.82,-169.52"/>
</a>
</g>
</g>
<!-- 28&#45;&gt;7 -->
<g id="edge68" class="edge">
<title>28&#45;&gt;7</title>
<g id="a_edge68"><a xlink:title="include">
<path fill="none" stroke="#1414ce" d="M1276.51,-215.92C1263.56,-205.59 1246.77,-192.11 1232,-180 1212.73,-164.2 1211.59,-154.52 1189,-144 1145.73,-123.84 1014.32,-105.76 940.59,-96.85"/>
<polygon fill="#1414ce" stroke="#1414ce" points="940.93,-93.37 930.58,-95.65 940.09,-100.32 940.93,-93.37"/>
</a>
</g>
</g>
<!-- 28&#45;&gt;3 -->
<g id="edge69" class="edge">
<title>28&#45;&gt;3</title>
<g id="a_edge69"><a xlink:title="include">
<path fill="none" stroke="#1414ce" d="M1287.21,-215.75C1263.83,-180.24 1204.5,-99.98 1130,-72 999.02,-22.81 563.89,-18.77 420.37,-18.81"/>
<polygon fill="#1414ce" stroke="#1414ce" points="420.15,-15.31 410.15,-18.82 420.16,-22.31 420.15,-15.31"/>
</a>
</g>
</g>
<!-- 8&#45;&gt;9 -->
<g id="edge71" class="edge">
<title>8&#45;&gt;9</title>
<g id="a_edge71"><a xlink:title="include">
<path fill="none" stroke="#1414ce" d="M627.48,-143.76C628.18,-123.44 625.89,-90.14 606,-72 560.14,-30.17 390.03,-47.34 329,-36 323.98,-35.07 318.78,-34 313.59,-32.86"/>
<polygon fill="#1414ce" stroke="#1414ce" points="314.18,-29.41 303.65,-30.61 312.63,-36.24 314.18,-29.41"/>
</a>
</g>
</g>
<!-- 8&#45;&gt;7 -->
<g id="edge72" class="edge">
<title>8&#45;&gt;7</title>
<g id="a_edge72"><a xlink:title="include">
<path fill="none" stroke="#1414ce" d="M657.2,-152.7C701.69,-140.86 783.87,-118.98 837.47,-104.71"/>
<polygon fill="#1414ce" stroke="#1414ce" points="838.7,-108.01 847.46,-102.06 836.9,-101.25 838.7,-108.01"/>
</a>
</g>
</g>
<!-- 10 -->
<g id="node25" class="node">
<title>10</title>
<g id="a_node25"><a xlink:title="stddef.h">
<polygon fill="#ffffff" stroke="black" points="1121,-108 1047,-108 1047,-72 1121,-72 1121,-108"/>
<text text-anchor="middle" x="1084" y="-86.3" font-family="Times,serif" font-size="14.00">stddef.h</text>
</a>
</g>
</g>
<!-- 8&#45;&gt;10 -->
<g id="edge73" class="edge">
<title>8&#45;&gt;10</title>
<g id="a_edge73"><a xlink:title="include">
<path fill="none" stroke="#1414ce" d="M657.12,-156.24C735.81,-144.22 943.12,-112.53 1036.82,-98.21"/>
<polygon fill="#1414ce" stroke="#1414ce" points="1037.51,-101.65 1046.87,-96.67 1036.46,-94.73 1037.51,-101.65"/>
</a>
</g>
</g>
<!-- 8&#45;&gt;11 -->
<g id="edge74" class="edge">
<title>8&#45;&gt;11</title>
<g id="a_edge74"><a xlink:title="include">
<path fill="none" stroke="#1414ce" d="M610.92,-143.7C603.61,-135.3 594.69,-125.07 586.66,-115.86"/>
<polygon fill="#1414ce" stroke="#1414ce" points="589.11,-113.34 579.91,-108.1 583.84,-117.94 589.11,-113.34"/>
</a>
</g>
</g>
<!-- 8&#45;&gt;5 -->
<g id="edge75" class="edge">
<title>8&#45;&gt;5</title>
<g id="a_edge75"><a xlink:title="include">
<path fill="none" stroke="#1414ce" d="M594.71,-148.97C565.57,-137.76 521.81,-120.93 488.94,-108.28"/>
<polygon fill="#1414ce" stroke="#1414ce" points="490.14,-105 479.55,-104.67 487.63,-111.53 490.14,-105"/>
</a>
</g>
</g>
<!-- 29&#45;&gt;10 -->
<g id="edge76" class="edge">
<title>29&#45;&gt;10</title>
<g id="a_edge76"><a xlink:title="include">
<path fill="none" stroke="#1414ce" d="M1283,-143.97C1235.98,-131.45 1173.18,-114.74 1130.8,-103.46"/>
<polygon fill="#1414ce" stroke="#1414ce" points="1131.58,-100.04 1121.02,-100.85 1129.78,-106.81 1131.58,-100.04"/>
</a>
</g>
</g>
<!-- 29&#45;&gt;3 -->
<g id="edge77" class="edge">
<title>29&#45;&gt;3</title>
<g id="a_edge77"><a xlink:title="include">
<path fill="none" stroke="#1414ce" d="M1336.22,-143.9C1321.78,-122.71 1294.01,-87.52 1260,-72 1183.41,-37.04 591.86,-23.14 420.42,-19.83"/>
<polygon fill="#1414ce" stroke="#1414ce" points="420.28,-16.32 410.21,-19.63 420.14,-23.32 420.28,-16.32"/>
</a>
</g>
</g>
</g>
</svg>
