<?xml version="1.0" encoding="UTF-8" standalone="no"?>
<!DOCTYPE svg PUBLIC "-//W3C//DTD SVG 1.1//EN"
 "http://www.w3.org/Graphics/SVG/1.1/DTD/svg11.dtd">
<!-- Generated by graphviz version 2.43.0 (0)
 -->
<!-- Title: %3 Pages: 1 -->
<svg width="1378pt" height="404pt"
 viewBox="0.00 0.00 1377.92 404.00" xmlns="http://www.w3.org/2000/svg" xmlns:xlink="http://www.w3.org/1999/xlink">
<g id="graph0" class="graph" transform="scale(1 1) rotate(0) translate(4 400)">
<title>%3</title>
<polygon fill="transparent" stroke="transparent" points="-4,4 -4,-400 1373.92,-400 1373.92,4 -4,4"/>
<!-- 23 -->
<g id="node1" class="node">
<title>23</title>
<g id="a_node1"><a xlink:title="SpinLock">
<polygon fill="#ffffff" stroke="black" points="1249.42,-324 1167.42,-324 1167.42,-288 1249.42,-288 1249.42,-324"/>
<text text-anchor="middle" x="1208.42" y="-302.3" font-family="Times,serif" font-size="14.00">SpinLock</text>
</a>
</g>
</g>
<!-- 6 -->
<g id="node2" class="node">
<title>6</title>
<g id="a_node2"><a xlink:title="ResourceType">
<polygon fill="#ffffff" stroke="black" points="493.92,-180 376.92,-180 376.92,-144 493.92,-144 493.92,-180"/>
<text text-anchor="middle" x="435.42" y="-158.3" font-family="Times,serif" font-size="14.00">ResourceType</text>
</a>
</g>
</g>
<!-- 4 -->
<g id="node5" class="node">
<title>4</title>
<g id="a_node5"><a xlink:title="ListHead">
<polygon fill="#ffffff" stroke="black" points="284.92,-36 203.92,-36 203.92,0 284.92,0 284.92,-36"/>
<text text-anchor="middle" x="244.42" y="-14.3" font-family="Times,serif" font-size="14.00">ListHead</text>
</a>
</g>
</g>
<!-- 6&#45;&gt;4 -->
<g id="edge3" class="edge">
<title>6&#45;&gt;4</title>
<g id="a_edge3"><a xlink:title="usage">
<path fill="none" stroke="#1414ce" d="M420.14,-143.83C402.61,-124.78 372.41,-93.84 342.42,-72 326.46,-60.37 307.64,-49.59 290.79,-40.83"/>
<polygon fill="#1414ce" stroke="#1414ce" points="292.15,-37.6 281.66,-36.17 288.98,-43.83 292.15,-37.6"/>
</a>
</g>
</g>
<!-- 8 -->
<g id="node8" class="node">
<title>8</title>
<g id="a_node8"><a xlink:title="GlobalContext">
<polygon fill="#ffffff" stroke="black" points="600.92,-396 481.92,-396 481.92,-360 600.92,-360 600.92,-396"/>
<text text-anchor="middle" x="541.42" y="-374.3" font-family="Times,serif" font-size="14.00">GlobalContext</text>
</a>
</g>
</g>
<!-- 6&#45;&gt;8 -->
<g id="edge2" class="edge">
<title>6&#45;&gt;8</title>
<g id="a_edge2"><a xlink:title="usage">
<path fill="none" stroke="#1414ce" d="M447.81,-180.28C463.59,-210.15 490.2,-273.13 517.42,-324 522.18,-332.89 527.83,-342.31 532.68,-350.71"/>
<polygon fill="#1414ce" stroke="#1414ce" points="529.76,-352.67 537.71,-359.67 535.86,-349.24 529.76,-352.67"/>
</a>
</g>
</g>
<!-- 7 -->
<g id="node22" class="node">
<title>7</title>
<g id="a_node22"><a xlink:title="SyncList">
<polygon fill="#ffffff" stroke="black" points="477.42,-108 399.42,-108 399.42,-72 477.42,-72 477.42,-108"/>
<text text-anchor="middle" x="438.42" y="-86.3" font-family="Times,serif" font-size="14.00">SyncList</text>
</a>
</g>
</g>
<!-- 6&#45;&gt;7 -->
<g id="edge1" class="edge">
<title>6&#45;&gt;7</title>
<g id="a_edge1"><a xlink:title="usage">
<path fill="none" stroke="#1414ce" d="M436.16,-143.7C436.49,-135.98 436.89,-126.71 437.26,-118.11"/>
<polygon fill="#1414ce" stroke="#1414ce" points="440.76,-118.25 437.69,-108.1 433.76,-117.95 440.76,-118.25"/>
</a>
</g>
</g>
<!-- 18 -->
<g id="node3" class="node">
<title>18</title>
<g id="a_node3"><a xlink:title="Module">
<polygon fill="#ffffff" stroke="black" points="696.42,-324 626.42,-324 626.42,-288 696.42,-288 696.42,-324"/>
<text text-anchor="middle" x="661.42" y="-302.3" font-family="Times,serif" font-size="14.00">Module</text>
</a>
</g>
</g>
<!-- 20 -->
<g id="node13" class="node">
<title>20</title>
<g id="a_node13"><a xlink:title="LiteralEntry">
<polygon fill="#ffffff" stroke="black" points="856.42,-252 752.42,-252 752.42,-216 856.42,-216 856.42,-252"/>
<text text-anchor="middle" x="804.42" y="-230.3" font-family="Times,serif" font-size="14.00">LiteralEntry</text>
</a>
</g>
</g>
<!-- 18&#45;&gt;20 -->
<g id="edge5" class="edge">
<title>18&#45;&gt;20</title>
<g id="a_edge5"><a xlink:title="usage">
<path fill="none" stroke="#1414ce" d="M696.4,-287.88C715.62,-278.47 739.65,-266.71 760.16,-256.67"/>
<polygon fill="#1414ce" stroke="#1414ce" points="761.86,-259.73 769.31,-252.19 758.79,-253.44 761.86,-259.73"/>
</a>
</g>
</g>
<!-- 19 -->
<g id="node21" class="node">
<title>19</title>
<g id="a_node21"><a xlink:title="ExportedFunction">
<polygon fill="#ffffff" stroke="black" points="734.42,-252 588.42,-252 588.42,-216 734.42,-216 734.42,-252"/>
<text text-anchor="middle" x="661.42" y="-230.3" font-family="Times,serif" font-size="14.00">ExportedFunction</text>
</a>
</g>
</g>
<!-- 18&#45;&gt;19 -->
<g id="edge4" class="edge">
<title>18&#45;&gt;19</title>
<g id="a_edge4"><a xlink:title="usage">
<path fill="none" stroke="#1414ce" d="M661.42,-287.7C661.42,-279.98 661.42,-270.71 661.42,-262.11"/>
<polygon fill="#1414ce" stroke="#1414ce" points="664.92,-262.1 661.42,-252.1 657.92,-262.1 664.92,-262.1"/>
</a>
</g>
</g>
<!-- 2 -->
<g id="node4" class="node">
<title>2</title>
<g id="a_node4"><a xlink:title="AVMPackData">
<polygon fill="#ffffff" stroke="black" points="211.92,-252 94.92,-252 94.92,-216 211.92,-216 211.92,-252"/>
<text text-anchor="middle" x="153.42" y="-230.3" font-family="Times,serif" font-size="14.00">AVMPackData</text>
</a>
</g>
</g>
<!-- 2&#45;&gt;4 -->
<g id="edge7" class="edge">
<title>2&#45;&gt;4</title>
<g id="a_edge7"><a xlink:title="usage">
<path fill="none" stroke="#1414ce" d="M155.47,-215.82C158.01,-197.55 163.19,-168.04 172.42,-144 186.41,-107.56 210.05,-69.16 226.41,-44.69"/>
<polygon fill="#1414ce" stroke="#1414ce" points="229.36,-46.58 232.08,-36.33 223.57,-42.65 229.36,-46.58"/>
</a>
</g>
</g>
<!-- 3 -->
<g id="node9" class="node">
<title>3</title>
<g id="a_node9"><a xlink:title="AVMPackInfo">
<polygon fill="#ffffff" stroke="black" points="292.92,-180 181.92,-180 181.92,-144 292.92,-144 292.92,-180"/>
<text text-anchor="middle" x="237.42" y="-158.3" font-family="Times,serif" font-size="14.00">AVMPackInfo</text>
</a>
</g>
</g>
<!-- 2&#45;&gt;3 -->
<g id="edge6" class="edge">
<title>2&#45;&gt;3</title>
<g id="a_edge6"><a xlink:title="usage">
<path fill="none" stroke="#1414ce" d="M174.19,-215.7C184.66,-206.97 197.53,-196.24 208.92,-186.75"/>
<polygon fill="#1414ce" stroke="#1414ce" points="211.46,-189.19 216.9,-180.1 206.97,-183.82 211.46,-189.19"/>
</a>
</g>
</g>
<!-- 4&#45;&gt;4 -->
<g id="edge8" class="edge">
<title>4&#45;&gt;4</title>
<g id="a_edge8"><a xlink:title="usage">
<path fill="none" stroke="#1414ce" d="M285.16,-31.31C295.32,-30.38 302.92,-25.95 302.92,-18 302.92,-12.91 299.8,-9.26 294.89,-7.05"/>
<polygon fill="#1414ce" stroke="#1414ce" points="295.7,-3.64 285.16,-4.69 294.05,-10.45 295.7,-3.64"/>
</a>
</g>
</g>
<!-- 15 -->
<g id="node6" class="node">
<title>15</title>
<g id="a_node6"><a xlink:title="HeapFragment">
<polygon fill="#ffffff" stroke="black" points="1266.92,-36 1141.92,-36 1141.92,0 1266.92,0 1266.92,-36"/>
<text text-anchor="middle" x="1204.42" y="-14.3" font-family="Times,serif" font-size="14.00">HeapFragment</text>
</a>
</g>
</g>
<!-- 15&#45;&gt;15 -->
<g id="edge9" class="edge">
<title>15&#45;&gt;15</title>
<g id="a_edge9"><a xlink:title="usage">
<path fill="none" stroke="#1414ce" d="M1267.2,-30.55C1277.69,-28.79 1284.92,-24.61 1284.92,-18 1284.92,-13.77 1281.95,-10.53 1277.06,-8.29"/>
<polygon fill="#1414ce" stroke="#1414ce" points="1277.78,-4.85 1267.2,-5.45 1275.84,-11.58 1277.78,-4.85"/>
</a>
</g>
</g>
<!-- 17 -->
<g id="node7" class="node">
<title>17</title>
<g id="a_node7"><a xlink:title="RefcBinaryQueueItem">
<polygon fill="#ffffff" stroke="black" points="420.42,-324 246.42,-324 246.42,-288 420.42,-288 420.42,-324"/>
<text text-anchor="middle" x="333.42" y="-302.3" font-family="Times,serif" font-size="14.00">RefcBinaryQueueItem</text>
</a>
</g>
</g>
<!-- 17&#45;&gt;17 -->
<g id="edge11" class="edge">
<title>17&#45;&gt;17</title>
<g id="a_edge11"><a xlink:title="usage">
<path fill="none" stroke="#1414ce" d="M420.72,-317.68C431.41,-315.59 438.42,-311.7 438.42,-306 438.42,-302.35 435.55,-299.44 430.67,-297.27"/>
<polygon fill="#1414ce" stroke="#1414ce" points="431.31,-293.81 420.72,-294.32 429.31,-300.52 431.31,-293.81"/>
</a>
</g>
</g>
<!-- 5 -->
<g id="node19" class="node">
<title>5</title>
<g id="a_node19"><a xlink:title="RefcBinary">
<polygon fill="#ffffff" stroke="black" points="379.92,-252 284.92,-252 284.92,-216 379.92,-216 379.92,-252"/>
<text text-anchor="middle" x="332.42" y="-230.3" font-family="Times,serif" font-size="14.00">RefcBinary</text>
</a>
</g>
</g>
<!-- 17&#45;&gt;5 -->
<g id="edge10" class="edge">
<title>17&#45;&gt;5</title>
<g id="a_edge10"><a xlink:title="usage">
<path fill="none" stroke="#1414ce" d="M333.17,-287.7C333.06,-279.98 332.93,-270.71 332.81,-262.11"/>
<polygon fill="#1414ce" stroke="#1414ce" points="336.31,-262.05 332.67,-252.1 329.31,-262.15 336.31,-262.05"/>
</a>
</g>
</g>
<!-- 8&#45;&gt;23 -->
<g id="edge21" class="edge">
<title>8&#45;&gt;23</title>
<g id="a_edge21"><a xlink:title="usage">
<path fill="none" stroke="#1414ce" d="M601.09,-376.04C711.23,-373.35 953.51,-363.09 1153.42,-324 1154.69,-323.75 1155.97,-323.49 1157.26,-323.2"/>
<polygon fill="#1414ce" stroke="#1414ce" points="1158.34,-326.54 1167.22,-320.77 1156.67,-319.74 1158.34,-326.54"/>
</a>
</g>
</g>
<!-- 8&#45;&gt;6 -->
<g id="edge12" class="edge">
<title>8&#45;&gt;6</title>
<g id="a_edge12"><a xlink:title="usage">
<path fill="none" stroke="#1414ce" d="M521.96,-359.67C514.22,-349.48 505.97,-336.23 499.42,-324 474.86,-278.09 450.79,-222.33 439.97,-189.93"/>
<polygon fill="#1414ce" stroke="#1414ce" points="443.28,-188.77 436.94,-180.28 436.6,-190.86 443.28,-188.77"/>
</a>
</g>
</g>
<!-- 8&#45;&gt;18 -->
<g id="edge18" class="edge">
<title>8&#45;&gt;18</title>
<g id="a_edge18"><a xlink:title="usage">
<path fill="none" stroke="#1414ce" d="M570.78,-359.88C586.47,-350.72 605.98,-339.34 622.88,-329.48"/>
<polygon fill="#1414ce" stroke="#1414ce" points="625.08,-332.25 631.95,-324.19 621.55,-326.21 625.08,-332.25"/>
</a>
</g>
</g>
<!-- 8&#45;&gt;4 -->
<g id="edge22" class="edge">
<title>8&#45;&gt;4</title>
<g id="a_edge22"><a xlink:title="usage">
<path fill="none" stroke="#1414ce" d="M481.45,-374.23C354.89,-367.88 69.25,-350.75 34.42,-324 0.84,-298.21 0.42,-277.34 0.42,-235 0.42,-235 0.42,-235 0.42,-161 0.42,-120.03 -4.94,-100.58 24.42,-72 48.19,-48.86 136.32,-33.19 193.57,-25.2"/>
<polygon fill="#1414ce" stroke="#1414ce" points="194.09,-28.66 203.52,-23.84 193.14,-21.73 194.09,-28.66"/>
</a>
</g>
</g>
<!-- 8&#45;&gt;17 -->
<g id="edge16" class="edge">
<title>8&#45;&gt;17</title>
<g id="a_edge16"><a xlink:title="usage">
<path fill="none" stroke="#1414ce" d="M490.81,-359.97C461.62,-350.14 424.73,-337.73 394.01,-327.39"/>
<polygon fill="#1414ce" stroke="#1414ce" points="394.86,-323.98 384.27,-324.11 392.63,-330.62 394.86,-323.98"/>
</a>
</g>
</g>
<!-- 9 -->
<g id="node10" class="node">
<title>9</title>
<g id="a_node10"><a xlink:title="Ets">
<polygon fill="#ffffff" stroke="black" points="604.42,-180 550.42,-180 550.42,-144 604.42,-144 604.42,-180"/>
<text text-anchor="middle" x="577.42" y="-158.3" font-family="Times,serif" font-size="14.00">Ets</text>
</a>
</g>
</g>
<!-- 8&#45;&gt;9 -->
<g id="edge13" class="edge">
<title>8&#45;&gt;9</title>
<g id="a_edge13"><a xlink:title="usage">
<path fill="none" stroke="#1414ce" d="M544.31,-359.85C550.55,-322.75 565.34,-234.81 572.86,-190.1"/>
<polygon fill="#1414ce" stroke="#1414ce" points="576.32,-190.67 574.52,-180.23 569.41,-189.51 576.32,-190.67"/>
</a>
</g>
</g>
<!-- 22 -->
<g id="node12" class="node">
<title>22</title>
<g id="a_node12"><a xlink:title="TimerList">
<polygon fill="#ffffff" stroke="black" points="119.42,-108 33.42,-108 33.42,-72 119.42,-72 119.42,-108"/>
<text text-anchor="middle" x="76.42" y="-86.3" font-family="Times,serif" font-size="14.00">TimerList</text>
</a>
</g>
</g>
<!-- 8&#45;&gt;22 -->
<g id="edge20" class="edge">
<title>8&#45;&gt;22</title>
<g id="a_edge20"><a xlink:title="usage">
<path fill="none" stroke="#1414ce" d="M481.51,-374.83C358.23,-369.75 85.28,-355.08 57.42,-324 5.72,-266.32 41.67,-165.15 63.31,-117.38"/>
<polygon fill="#1414ce" stroke="#1414ce" points="66.49,-118.85 67.55,-108.3 60.15,-115.89 66.49,-118.85"/>
</a>
</g>
</g>
<!-- 10 -->
<g id="node17" class="node">
<title>10</title>
<g id="a_node17"><a xlink:title="MessageQueueItem">
<polygon fill="#ffffff" stroke="black" points="946.42,-324 788.42,-324 788.42,-288 946.42,-288 946.42,-324"/>
<text text-anchor="middle" x="867.42" y="-302.3" font-family="Times,serif" font-size="14.00">MessageQueueItem</text>
</a>
</g>
</g>
<!-- 8&#45;&gt;10 -->
<g id="edge14" class="edge">
<title>8&#45;&gt;10</title>
<g id="a_edge14"><a xlink:title="usage">
<path fill="none" stroke="#1414ce" d="M601.22,-364.16C650.81,-353.51 722.06,-338.21 778.36,-326.12"/>
<polygon fill="#1414ce" stroke="#1414ce" points="779.3,-329.5 788.34,-323.98 777.83,-322.66 779.3,-329.5"/>
</a>
</g>
</g>
<!-- 21 -->
<g id="node18" class="node">
<title>21</title>
<g id="a_node18"><a xlink:title="AtomsHashTable">
<polygon fill="#ffffff" stroke="black" points="1369.92,-252 1232.92,-252 1232.92,-216 1369.92,-216 1369.92,-252"/>
<text text-anchor="middle" x="1301.42" y="-230.3" font-family="Times,serif" font-size="14.00">AtomsHashTable</text>
</a>
</g>
</g>
<!-- 8&#45;&gt;21 -->
<g id="edge19" class="edge">
<title>8&#45;&gt;21</title>
<g id="a_edge19"><a xlink:title="usage">
<path fill="none" stroke="#1414ce" d="M601.14,-376.44C729.8,-374.46 1028.91,-365.4 1120.42,-324 1141.62,-314.41 1138.67,-300.29 1158.42,-288 1180.15,-274.48 1205.87,-263.61 1229.46,-255.32"/>
<polygon fill="#1414ce" stroke="#1414ce" points="1230.73,-258.58 1239.07,-252.04 1228.47,-251.95 1230.73,-258.58"/>
</a>
</g>
</g>
<!-- 12 -->
<g id="node20" class="node">
<title>12</title>
<g id="a_node20"><a xlink:title="AtomTable">
<polygon fill="#ffffff" stroke="black" points="1111.42,-324 1019.42,-324 1019.42,-288 1111.42,-288 1111.42,-324"/>
<text text-anchor="middle" x="1065.42" y="-302.3" font-family="Times,serif" font-size="14.00">AtomTable</text>
</a>
</g>
</g>
<!-- 8&#45;&gt;12 -->
<g id="edge15" class="edge">
<title>8&#45;&gt;12</title>
<g id="a_edge15"><a xlink:title="usage">
<path fill="none" stroke="#1414ce" d="M600.98,-370.85C684.44,-361.97 840.85,-344.36 973.42,-324 984.97,-322.23 997.29,-320.11 1009.04,-317.98"/>
<polygon fill="#1414ce" stroke="#1414ce" points="1009.98,-321.36 1019.18,-316.11 1008.72,-314.48 1009.98,-321.36"/>
</a>
</g>
</g>
<!-- 8&#45;&gt;7 -->
<g id="edge17" class="edge">
<title>8&#45;&gt;7</title>
<g id="a_edge17"><a xlink:title="usage">
<path fill="none" stroke="#1414ce" d="M542.47,-359.86C544.15,-319.36 543.77,-215.79 502.42,-144 495.83,-132.56 485.77,-122.52 475.57,-114.35"/>
<polygon fill="#1414ce" stroke="#1414ce" points="477.51,-111.43 467.42,-108.2 473.29,-117.02 477.51,-111.43"/>
</a>
</g>
</g>
<!-- 9&#45;&gt;7 -->
<g id="edge23" class="edge">
<title>9&#45;&gt;7</title>
<g id="a_edge23"><a xlink:title="usage">
<path fill="none" stroke="#1414ce" d="M550.29,-147.34C530.71,-137.48 503.87,-123.96 481.39,-112.64"/>
<polygon fill="#1414ce" stroke="#1414ce" points="482.88,-109.47 472.38,-108.1 479.73,-115.72 482.88,-109.47"/>
</a>
</g>
</g>
<!-- 16 -->
<g id="node11" class="node">
<title>16</title>
<g id="a_node11"><a xlink:title="HNodeGroup">
<polygon fill="#ffffff" stroke="black" points="1158.42,-252 1048.42,-252 1048.42,-216 1158.42,-216 1158.42,-252"/>
<text text-anchor="middle" x="1103.42" y="-230.3" font-family="Times,serif" font-size="14.00">HNodeGroup</text>
</a>
</g>
</g>
<!-- 16&#45;&gt;16 -->
<g id="edge25" class="edge">
<title>16&#45;&gt;16</title>
<g id="a_edge25"><a xlink:title="usage">
<path fill="none" stroke="#1414ce" d="M1158.5,-246.85C1169,-245.32 1176.42,-241.03 1176.42,-234 1176.42,-229.5 1173.37,-226.12 1168.42,-223.87"/>
<polygon fill="#1414ce" stroke="#1414ce" points="1169.06,-220.42 1158.5,-221.15 1167.21,-227.17 1169.06,-220.42"/>
</a>
</g>
</g>
<!-- 13 -->
<g id="node23" class="node">
<title>13</title>
<g id="a_node23"><a xlink:title="HNode">
<polygon fill="#ffffff" stroke="black" points="1237.42,-180 1171.42,-180 1171.42,-144 1237.42,-144 1237.42,-180"/>
<text text-anchor="middle" x="1204.42" y="-158.3" font-family="Times,serif" font-size="14.00">HNode</text>
</a>
</g>
</g>
<!-- 16&#45;&gt;13 -->
<g id="edge24" class="edge">
<title>16&#45;&gt;13</title>
<g id="a_edge24"><a xlink:title="usage">
<path fill="none" stroke="#1414ce" d="M1128.13,-215.88C1141.09,-206.89 1157.15,-195.76 1171.19,-186.03"/>
<polygon fill="#1414ce" stroke="#1414ce" points="1173.39,-188.76 1179.62,-180.19 1169.41,-183.01 1173.39,-188.76"/>
</a>
</g>
</g>
<!-- 22&#45;&gt;4 -->
<g id="edge26" class="edge">
<title>22&#45;&gt;4</title>
<g id="a_edge26"><a xlink:title="usage">
<path fill="none" stroke="#1414ce" d="M117.52,-71.88C140.67,-62.23 169.77,-50.1 194.26,-39.9"/>
<polygon fill="#1414ce" stroke="#1414ce" points="195.86,-43.02 203.75,-35.95 193.17,-36.56 195.86,-43.02"/>
</a>
</g>
</g>
<!-- 11 -->
<g id="node14" class="node">
<title>11</title>
<g id="a_node14"><a xlink:title="MailboxMessage">
<polygon fill="#ffffff" stroke="black" points="1011.92,-252 874.92,-252 874.92,-216 1011.92,-216 1011.92,-252"/>
<text text-anchor="middle" x="943.42" y="-230.3" font-family="Times,serif" font-size="14.00">MailboxMessage</text>
</a>
</g>
</g>
<!-- 11&#45;&gt;11 -->
<g id="edge27" class="edge">
<title>11&#45;&gt;11</title>
<g id="a_edge27"><a xlink:title="usage">
<path fill="none" stroke="#1414ce" d="M1011.95,-246.37C1022.64,-244.52 1029.92,-240.4 1029.92,-234 1029.92,-229.8 1026.78,-226.58 1021.61,-224.34"/>
<polygon fill="#1414ce" stroke="#1414ce" points="1022.52,-220.96 1011.95,-221.63 1020.63,-227.7 1022.52,-220.96"/>
</a>
</g>
</g>
<!-- 14 -->
<g id="node15" class="node">
<title>14</title>
<g id="a_node15"><a xlink:title="Heap">
<polygon fill="#ffffff" stroke="black" points="1231.42,-108 1177.42,-108 1177.42,-72 1231.42,-72 1231.42,-108"/>
<text text-anchor="middle" x="1204.42" y="-86.3" font-family="Times,serif" font-size="14.00">Heap</text>
</a>
</g>
</g>
<!-- 14&#45;&gt;15 -->
<g id="edge28" class="edge">
<title>14&#45;&gt;15</title>
<g id="a_edge28"><a xlink:title="usage">
<path fill="none" stroke="#1414ce" d="M1204.42,-71.7C1204.42,-63.98 1204.42,-54.71 1204.42,-46.11"/>
<polygon fill="#1414ce" stroke="#1414ce" points="1207.92,-46.1 1204.42,-36.1 1200.92,-46.1 1207.92,-46.1"/>
</a>
</g>
</g>
<!-- 1 -->
<g id="node16" class="node">
<title>1</title>
<g id="a_node16"><a xlink:title="RefcBinaryAVMPack">
<polygon fill="#bfbfbf" stroke="black" points="228.42,-324 66.42,-324 66.42,-288 228.42,-288 228.42,-324"/>
<text text-anchor="middle" x="147.42" y="-302.3" font-family="Times,serif" font-size="14.00">RefcBinaryAVMPack</text>
</a>
</g>
</g>
<!-- 1&#45;&gt;2 -->
<g id="edge29" class="edge">
<title>1&#45;&gt;2</title>
<g id="a_edge29"><a xlink:title="usage">
<path fill="none" stroke="#1414ce" d="M148.91,-287.7C149.57,-279.98 150.36,-270.71 151.1,-262.11"/>
<polygon fill="#1414ce" stroke="#1414ce" points="154.59,-262.37 151.96,-252.1 147.61,-261.77 154.59,-262.37"/>
</a>
</g>
</g>
<!-- 1&#45;&gt;5 -->
<g id="edge30" class="edge">
<title>1&#45;&gt;5</title>
<g id="a_edge30"><a xlink:title="usage">
<path fill="none" stroke="#1414ce" d="M192.68,-287.88C218.42,-278.14 250.83,-265.87 277.96,-255.61"/>
<polygon fill="#1414ce" stroke="#1414ce" points="279.2,-258.88 287.31,-252.07 276.72,-252.33 279.2,-258.88"/>
</a>
</g>
</g>
<!-- 10&#45;&gt;11 -->
<g id="edge31" class="edge">
<title>10&#45;&gt;11</title>
<g id="a_edge31"><a xlink:title="usage">
<path fill="none" stroke="#1414ce" d="M886.21,-287.7C895.6,-279.05 907.11,-268.45 917.34,-259.03"/>
<polygon fill="#1414ce" stroke="#1414ce" points="919.87,-261.45 924.85,-252.1 915.12,-256.3 919.87,-261.45"/>
</a>
</g>
</g>
<!-- 10&#45;&gt;10 -->
<g id="edge32" class="edge">
<title>10&#45;&gt;10</title>
<g id="a_edge32"><a xlink:title="usage">
<path fill="none" stroke="#1414ce" d="M946.59,-317.98C957.29,-315.97 964.42,-311.98 964.42,-306 964.42,-302.08 961.35,-299.01 956.21,-296.8"/>
<polygon fill="#1414ce" stroke="#1414ce" points="957.16,-293.43 946.59,-294.02 955.23,-300.15 957.16,-293.43"/>
</a>
</g>
</g>
<!-- 21&#45;&gt;13 -->
<g id="edge33" class="edge">
<title>21&#45;&gt;13</title>
<g id="a_edge33"><a xlink:title="usage">
<path fill="none" stroke="#1414ce" d="M1277.44,-215.7C1265.11,-206.8 1249.91,-195.82 1236.57,-186.2"/>
<polygon fill="#1414ce" stroke="#1414ce" points="1238.28,-183.12 1228.12,-180.1 1234.18,-188.79 1238.28,-183.12"/>
</a>
</g>
</g>
<!-- 5&#45;&gt;6 -->
<g id="edge34" class="edge">
<title>5&#45;&gt;6</title>
<g id="a_edge34"><a xlink:title="usage">
<path fill="none" stroke="#1414ce" d="M357.62,-215.88C370.84,-206.89 387.21,-195.76 401.53,-186.03"/>
<polygon fill="#1414ce" stroke="#1414ce" points="403.83,-188.71 410.13,-180.19 399.89,-182.92 403.83,-188.71"/>
</a>
</g>
</g>
<!-- 5&#45;&gt;4 -->
<g id="edge35" class="edge">
<title>5&#45;&gt;4</title>
<g id="a_edge35"><a xlink:title="usage">
<path fill="none" stroke="#1414ce" d="M326.94,-215.76C321.08,-197.71 311.29,-168.6 301.42,-144 287.55,-109.41 269.37,-70.48 257.32,-45.39"/>
<polygon fill="#1414ce" stroke="#1414ce" points="260.37,-43.65 252.87,-36.17 254.06,-46.7 260.37,-43.65"/>
</a>
</g>
</g>
<!-- 12&#45;&gt;16 -->
<g id="edge37" class="edge">
<title>12&#45;&gt;16</title>
<g id="a_edge37"><a xlink:title="usage">
<path fill="none" stroke="#1414ce" d="M1074.82,-287.7C1079.19,-279.64 1084.48,-269.89 1089.32,-260.98"/>
<polygon fill="#1414ce" stroke="#1414ce" points="1092.44,-262.56 1094.14,-252.1 1086.29,-259.22 1092.44,-262.56"/>
</a>
</g>
</g>
<!-- 12&#45;&gt;13 -->
<g id="edge36" class="edge">
<title>12&#45;&gt;13</title>
<g id="a_edge36"><a xlink:title="usage">
<path fill="none" stroke="#1414ce" d="M1111.45,-289.6C1140.92,-278.85 1175.44,-264.28 1185.42,-252 1199.48,-234.7 1203.82,-209.44 1204.87,-190.24"/>
<polygon fill="#1414ce" stroke="#1414ce" points="1208.38,-190.11 1205.17,-180.02 1201.38,-189.91 1208.38,-190.11"/>
</a>
</g>
</g>
<!-- 7&#45;&gt;4 -->
<g id="edge38" class="edge">
<title>7&#45;&gt;4</title>
<g id="a_edge38"><a xlink:title="usage">
<path fill="none" stroke="#1414ce" d="M399.16,-74.83C369.06,-63.97 327.3,-48.9 294.74,-37.16"/>
<polygon fill="#1414ce" stroke="#1414ce" points="295.55,-33.73 284.96,-33.63 293.18,-40.31 295.55,-33.73"/>
</a>
</g>
</g>
<!-- 13&#45;&gt;14 -->
<g id="edge40" class="edge">
<title>13&#45;&gt;14</title>
<g id="a_edge40"><a xlink:title="usage">
<path fill="none" stroke="#1414ce" d="M1204.42,-143.7C1204.42,-135.98 1204.42,-126.71 1204.42,-118.11"/>
<polygon fill="#1414ce" stroke="#1414ce" points="1207.92,-118.1 1204.42,-108.1 1200.92,-118.1 1207.92,-118.1"/>
</a>
</g>
</g>
<!-- 13&#45;&gt;13 -->
<g id="edge39" class="edge">
<title>13&#45;&gt;13</title>
<g id="a_edge39"><a xlink:title="usage">
<path fill="none" stroke="#1414ce" d="M1237.78,-175.47C1247.7,-175.07 1255.42,-170.58 1255.42,-162 1255.42,-156.64 1252.41,-152.87 1247.72,-150.71"/>
<polygon fill="#1414ce" stroke="#1414ce" points="1248.29,-147.25 1237.78,-148.53 1246.8,-154.09 1248.29,-147.25"/>
</a>
</g>
</g>
</g>
</svg>
