<?xml version="1.0" encoding="UTF-8" standalone="no"?>
<!DOCTYPE svg PUBLIC "-//W3C//DTD SVG 1.1//EN"
 "http://www.w3.org/Graphics/SVG/1.1/DTD/svg11.dtd">
<!-- Generated by graphviz version 2.43.0 (0)
 -->
<!-- Title: %3 Pages: 1 -->
<svg width="1613pt" height="692pt"
 viewBox="0.00 0.00 1612.50 692.00" xmlns="http://www.w3.org/2000/svg" xmlns:xlink="http://www.w3.org/1999/xlink">
<g id="graph0" class="graph" transform="scale(1 1) rotate(0) translate(4 688)">
<title>%3</title>
<polygon fill="transparent" stroke="transparent" points="-4,4 -4,-688 1608.5,-688 1608.5,4 -4,4"/>
<!-- 4 -->
<g id="node1" class="node">
<title>4</title>
<g id="a_node1"><a xlink:title="atom.h">
<polygon fill="#ffffff" stroke="black" points="1302,-180 1236,-180 1236,-144 1302,-144 1302,-180"/>
<text text-anchor="middle" x="1269" y="-158.3" font-family="Times,serif" font-size="14.00">atom.h</text>
</a>
</g>
</g>
<!-- 3 -->
<g id="node25" class="node">
<title>3</title>
<g id="a_node25"><a xlink:title="stdint.h">
<polygon fill="#ffffff" stroke="black" points="1244,-36 1172,-36 1172,0 1244,0 1244,-36"/>
<text text-anchor="middle" x="1208" y="-14.3" font-family="Times,serif" font-size="14.00">stdint.h</text>
</a>
</g>
</g>
<!-- 4&#45;&gt;3 -->
<g id="edge1" class="edge">
<title>4&#45;&gt;3</title>
<g id="a_edge1"><a xlink:title="include">
<path fill="none" stroke="#1414ce" d="M1261.64,-143.87C1251.15,-119.46 1231.81,-74.43 1219.44,-45.64"/>
<polygon fill="#1414ce" stroke="#1414ce" points="1222.55,-44 1215.38,-36.19 1216.12,-46.76 1222.55,-44"/>
</a>
</g>
</g>
<!-- 5 -->
<g id="node27" class="node">
<title>5</title>
<g id="a_node27"><a xlink:title="stdlib.h">
<polygon fill="#ffffff" stroke="black" points="1167.5,-108 1096.5,-108 1096.5,-72 1167.5,-72 1167.5,-108"/>
<text text-anchor="middle" x="1132" y="-86.3" font-family="Times,serif" font-size="14.00">stdlib.h</text>
</a>
</g>
</g>
<!-- 4&#45;&gt;5 -->
<g id="edge2" class="edge">
<title>4&#45;&gt;5</title>
<g id="a_edge2"><a xlink:title="include">
<path fill="none" stroke="#1414ce" d="M1235.84,-144.05C1217.38,-134.62 1194.21,-122.78 1174.44,-112.68"/>
<polygon fill="#1414ce" stroke="#1414ce" points="1175.83,-109.46 1165.33,-108.03 1172.65,-115.7 1175.83,-109.46"/>
</a>
</g>
</g>
<!-- 6 -->
<g id="node2" class="node">
<title>6</title>
<g id="a_node2"><a xlink:title="atom_table.h">
<polygon fill="#ffffff" stroke="black" points="955.5,-252 846.5,-252 846.5,-216 955.5,-216 955.5,-252"/>
<text text-anchor="middle" x="901" y="-230.3" font-family="Times,serif" font-size="14.00">atom_table.h</text>
</a>
</g>
</g>
<!-- 6&#45;&gt;4 -->
<g id="edge4" class="edge">
<title>6&#45;&gt;4</title>
<g id="a_edge4"><a xlink:title="include">
<path fill="none" stroke="#1414ce" d="M955.7,-222.6C1029.25,-208.61 1158.54,-184.01 1225.72,-171.23"/>
<polygon fill="#1414ce" stroke="#1414ce" points="1226.78,-174.59 1235.95,-169.29 1225.47,-167.72 1226.78,-174.59"/>
</a>
</g>
</g>
<!-- 8 -->
<g id="node18" class="node">
<title>8</title>
<g id="a_node18"><a xlink:title="utils.h">
<polygon fill="#ffffff" stroke="black" points="984,-180 922,-180 922,-144 984,-144 984,-180"/>
<text text-anchor="middle" x="953" y="-158.3" font-family="Times,serif" font-size="14.00">utils.h</text>
</a>
</g>
</g>
<!-- 6&#45;&gt;8 -->
<g id="edge5" class="edge">
<title>6&#45;&gt;8</title>
<g id="a_edge5"><a xlink:title="include">
<path fill="none" stroke="#1414ce" d="M913.85,-215.7C920.03,-207.39 927.54,-197.28 934.32,-188.14"/>
<polygon fill="#1414ce" stroke="#1414ce" points="937.14,-190.22 940.29,-180.1 931.52,-186.04 937.14,-190.22"/>
</a>
</g>
</g>
<!-- 7 -->
<g id="node23" class="node">
<title>7</title>
<g id="a_node23"><a xlink:title="stdbool.h">
<polygon fill="#ffffff" stroke="black" points="527.5,-108 444.5,-108 444.5,-72 527.5,-72 527.5,-108"/>
<text text-anchor="middle" x="486" y="-86.3" font-family="Times,serif" font-size="14.00">stdbool.h</text>
</a>
</g>
</g>
<!-- 6&#45;&gt;7 -->
<g id="edge3" class="edge">
<title>6&#45;&gt;7</title>
<g id="a_edge3"><a xlink:title="include">
<path fill="none" stroke="#1414ce" d="M879.44,-215.75C852.92,-195.42 805.75,-162.12 760,-144 686,-114.69 594.14,-101.18 537.82,-95.25"/>
<polygon fill="#1414ce" stroke="#1414ce" points="538.03,-91.75 527.73,-94.23 537.33,-98.72 538.03,-91.75"/>
</a>
</g>
</g>
<!-- 12 -->
<g id="node3" class="node">
<title>12</title>
<g id="a_node3"><a xlink:title="erl_nif.h">
<polygon fill="#ffffff" stroke="black" points="751,-180 677,-180 677,-144 751,-144 751,-180"/>
<text text-anchor="middle" x="714" y="-158.3" font-family="Times,serif" font-size="14.00">erl_nif.h</text>
</a>
</g>
</g>
<!-- 13 -->
<g id="node16" class="node">
<title>13</title>
<g id="a_node16"><a xlink:title="term_typedef.h">
<polygon fill="#ffffff" stroke="black" points="786.5,-108 661.5,-108 661.5,-72 786.5,-72 786.5,-108"/>
<text text-anchor="middle" x="724" y="-86.3" font-family="Times,serif" font-size="14.00">term_typedef.h</text>
</a>
</g>
</g>
<!-- 12&#45;&gt;13 -->
<g id="edge6" class="edge">
<title>12&#45;&gt;13</title>
<g id="a_edge6"><a xlink:title="include">
<path fill="none" stroke="#1414ce" d="M716.47,-143.7C717.57,-135.98 718.9,-126.71 720.13,-118.11"/>
<polygon fill="#1414ce" stroke="#1414ce" points="723.61,-118.5 721.56,-108.1 716.68,-117.51 723.61,-118.5"/>
</a>
</g>
</g>
<!-- 16 -->
<g id="node4" class="node">
<title>16</title>
<g id="a_node4"><a xlink:title="ets.h">
<polygon fill="#ffffff" stroke="black" points="349,-540 295,-540 295,-504 349,-504 349,-540"/>
<text text-anchor="middle" x="322" y="-518.3" font-family="Times,serif" font-size="14.00">ets.h</text>
</a>
</g>
</g>
<!-- 17 -->
<g id="node8" class="node">
<title>17</title>
<g id="a_node8"><a xlink:title="list.h">
<polygon fill="#ffffff" stroke="black" points="316,-180 262,-180 262,-144 316,-144 316,-180"/>
<text text-anchor="middle" x="289" y="-158.3" font-family="Times,serif" font-size="14.00">list.h</text>
</a>
</g>
</g>
<!-- 16&#45;&gt;17 -->
<g id="edge7" class="edge">
<title>16&#45;&gt;17</title>
<g id="a_edge7"><a xlink:title="include">
<path fill="none" stroke="#1414ce" d="M313.13,-504C292,-462.4 239.09,-351.64 221,-252 218.14,-236.26 213.98,-230.38 221,-216 227.89,-201.9 240.53,-190.47 253.07,-181.87"/>
<polygon fill="#1414ce" stroke="#1414ce" points="255.12,-184.72 261.66,-176.38 251.35,-178.82 255.12,-184.72"/>
</a>
</g>
</g>
<!-- 18 -->
<g id="node14" class="node">
<title>18</title>
<g id="a_node14"><a xlink:title="synclist.h">
<polygon fill="#ffffff" stroke="black" points="315.5,-252 230.5,-252 230.5,-216 315.5,-216 315.5,-252"/>
<text text-anchor="middle" x="273" y="-230.3" font-family="Times,serif" font-size="14.00">synclist.h</text>
</a>
</g>
</g>
<!-- 16&#45;&gt;18 -->
<g id="edge8" class="edge">
<title>16&#45;&gt;18</title>
<g id="a_edge8"><a xlink:title="include">
<path fill="none" stroke="#1414ce" d="M319.08,-503.97C310.9,-456.19 287.67,-320.62 277.67,-262.27"/>
<polygon fill="#1414ce" stroke="#1414ce" points="281.1,-261.57 275.97,-252.31 274.2,-262.75 281.1,-261.57"/>
</a>
</g>
</g>
<!-- 20 -->
<g id="node15" class="node">
<title>20</title>
<g id="a_node15"><a xlink:title="term.h">
<polygon fill="#ffffff" stroke="black" points="977.5,-468 912.5,-468 912.5,-432 977.5,-432 977.5,-468"/>
<text text-anchor="middle" x="945" y="-446.3" font-family="Times,serif" font-size="14.00">term.h</text>
</a>
</g>
</g>
<!-- 16&#45;&gt;20 -->
<g id="edge9" class="edge">
<title>16&#45;&gt;20</title>
<g id="a_edge9"><a xlink:title="include">
<path fill="none" stroke="#1414ce" d="M349.17,-517.95C447.04,-506.95 782.07,-469.31 901.93,-455.84"/>
<polygon fill="#1414ce" stroke="#1414ce" points="902.63,-459.28 912.18,-454.69 901.85,-452.33 902.63,-459.28"/>
</a>
</g>
</g>
<!-- 1 -->
<g id="node5" class="node">
<title>1</title>
<g id="a_node5"><a xlink:title="/__w/AtomVM/AtomVM/src/libAtomVM/ets_hashtable.h">
<polygon fill="#bfbfbf" stroke="black" points="1604.5,-684 1199.5,-684 1199.5,-648 1604.5,-648 1604.5,-684"/>
<text text-anchor="middle" x="1402" y="-662.3" font-family="Times,serif" font-size="14.00">/__w/AtomVM/AtomVM/src/libAtomVM/ets_hashtable.h</text>
</a>
</g>
</g>
<!-- 2 -->
<g id="node6" class="node">
<title>2</title>
<g id="a_node6"><a xlink:title="globalcontext.h">
<polygon fill="#ffffff" stroke="black" points="614.5,-612 487.5,-612 487.5,-576 614.5,-576 614.5,-612"/>
<text text-anchor="middle" x="551" y="-590.3" font-family="Times,serif" font-size="14.00">globalcontext.h</text>
</a>
</g>
</g>
<!-- 1&#45;&gt;2 -->
<g id="edge10" class="edge">
<title>1&#45;&gt;2</title>
<g id="a_edge10"><a xlink:title="include">
<path fill="none" stroke="#1414ce" d="M1199.25,-648.32C1014.25,-633.1 751.01,-611.45 624.48,-601.04"/>
<polygon fill="#1414ce" stroke="#1414ce" points="624.76,-597.56 614.5,-600.22 624.18,-604.53 624.76,-597.56"/>
</a>
</g>
</g>
<!-- 1&#45;&gt;20 -->
<g id="edge11" class="edge">
<title>1&#45;&gt;20</title>
<g id="a_edge11"><a xlink:title="include">
<path fill="none" stroke="#1414ce" d="M1365.37,-647.85C1281.48,-608.57 1075.83,-512.26 986.99,-470.66"/>
<polygon fill="#1414ce" stroke="#1414ce" points="988.3,-467.41 977.76,-466.34 985.33,-473.75 988.3,-467.41"/>
</a>
</g>
</g>
<!-- 1&#45;&gt;5 -->
<g id="edge12" class="edge">
<title>1&#45;&gt;5</title>
<g id="a_edge12"><a xlink:title="include">
<path fill="none" stroke="#1414ce" d="M1404.79,-647.92C1415.46,-576.22 1446.62,-296.18 1311,-144 1277.5,-106.42 1218.75,-94.93 1177.73,-91.71"/>
<polygon fill="#1414ce" stroke="#1414ce" points="1177.91,-88.21 1167.71,-91.05 1177.46,-95.2 1177.91,-88.21"/>
</a>
</g>
</g>
<!-- 2&#45;&gt;4 -->
<g id="edge14" class="edge">
<title>2&#45;&gt;4</title>
<g id="a_edge14"><a xlink:title="include">
<path fill="none" stroke="#1414ce" d="M614.79,-587.43C793.83,-570.95 1288,-519.29 1288,-451 1288,-451 1288,-451 1288,-305 1288,-264.86 1280.45,-218.9 1274.87,-190.4"/>
<polygon fill="#1414ce" stroke="#1414ce" points="1278.26,-189.5 1272.84,-180.39 1271.39,-190.88 1278.26,-189.5"/>
</a>
</g>
</g>
<!-- 2&#45;&gt;6 -->
<g id="edge15" class="edge">
<title>2&#45;&gt;6</title>
<g id="a_edge15"><a xlink:title="include">
<path fill="none" stroke="#1414ce" d="M572.48,-575.9C613.25,-543 703.9,-467.78 772,-396 814.77,-350.92 858.82,-293 882.77,-260.34"/>
<polygon fill="#1414ce" stroke="#1414ce" points="885.63,-262.36 888.69,-252.22 879.97,-258.24 885.63,-262.36"/>
</a>
</g>
</g>
<!-- 2&#45;&gt;12 -->
<g id="edge16" class="edge">
<title>2&#45;&gt;12</title>
<g id="a_edge16"><a xlink:title="include">
<path fill="none" stroke="#1414ce" d="M551,-575.95C551,-549.29 551,-496.11 551,-451 551,-451 551,-451 551,-377 551,-292.85 631.75,-221.14 679.58,-186.05"/>
<polygon fill="#1414ce" stroke="#1414ce" points="681.73,-188.81 687.81,-180.13 677.65,-183.13 681.73,-188.81"/>
</a>
</g>
</g>
<!-- 2&#45;&gt;16 -->
<g id="edge17" class="edge">
<title>2&#45;&gt;16</title>
<g id="a_edge17"><a xlink:title="include">
<path fill="none" stroke="#1414ce" d="M495.27,-575.97C452.92,-563.02 395.84,-545.57 358.98,-534.3"/>
<polygon fill="#1414ce" stroke="#1414ce" points="359.73,-530.87 349.15,-531.3 357.69,-537.57 359.73,-530.87"/>
</a>
</g>
</g>
<!-- 2&#45;&gt;17 -->
<g id="edge18" class="edge">
<title>2&#45;&gt;17</title>
<g id="a_edge18"><a xlink:title="include">
<path fill="none" stroke="#1414ce" d="M487.33,-588.94C404.07,-582.59 263.77,-568.03 221,-540 181.71,-514.25 164,-497.97 164,-451 164,-451 164,-451 164,-305 164,-250.57 216.38,-207.11 253.32,-183.22"/>
<polygon fill="#1414ce" stroke="#1414ce" points="255.26,-186.13 261.88,-177.86 251.55,-180.2 255.26,-186.13"/>
</a>
</g>
</g>
<!-- 27 -->
<g id="node9" class="node">
<title>27</title>
<g id="a_node9"><a xlink:title="mailbox.h">
<polygon fill="#ffffff" stroke="black" points="534,-252 448,-252 448,-216 534,-216 534,-252"/>
<text text-anchor="middle" x="491" y="-230.3" font-family="Times,serif" font-size="14.00">mailbox.h</text>
</a>
</g>
</g>
<!-- 2&#45;&gt;27 -->
<g id="edge19" class="edge">
<title>2&#45;&gt;27</title>
<g id="a_edge19"><a xlink:title="include">
<path fill="none" stroke="#1414ce" d="M517.94,-575.8C479.14,-552.96 420,-508.69 420,-451 420,-451 420,-451 420,-377 420,-332.48 448.26,-287.61 469.13,-260.56"/>
<polygon fill="#1414ce" stroke="#1414ce" points="472.11,-262.43 475.59,-252.42 466.63,-258.07 472.11,-262.43"/>
</a>
</g>
</g>
<!-- 19 -->
<g id="node13" class="node">
<title>19</title>
<g id="a_node13"><a xlink:title="smp.h">
<polygon fill="#ffffff" stroke="black" points="244,-180 184,-180 184,-144 244,-144 244,-180"/>
<text text-anchor="middle" x="214" y="-158.3" font-family="Times,serif" font-size="14.00">smp.h</text>
</a>
</g>
</g>
<!-- 2&#45;&gt;19 -->
<g id="edge20" class="edge">
<title>2&#45;&gt;19</title>
<g id="a_edge20"><a xlink:title="include">
<path fill="none" stroke="#1414ce" d="M487.29,-590.81C393.59,-586.48 224.38,-574.06 175,-540 137.83,-514.36 126,-496.15 126,-451 126,-451 126,-451 126,-305 126,-258.01 161.24,-213.63 187.12,-187.37"/>
<polygon fill="#1414ce" stroke="#1414ce" points="189.8,-189.65 194.47,-180.14 184.89,-184.66 189.8,-189.65"/>
</a>
</g>
</g>
<!-- 2&#45;&gt;18 -->
<g id="edge21" class="edge">
<title>2&#45;&gt;18</title>
<g id="a_edge21"><a xlink:title="include">
<path fill="none" stroke="#1414ce" d="M487.32,-591.06C431.19,-586.92 348.79,-574.78 286,-540 238.42,-513.64 202,-505.39 202,-451 202,-451 202,-451 202,-377 202,-332.48 230.26,-287.61 251.13,-260.56"/>
<polygon fill="#1414ce" stroke="#1414ce" points="254.11,-262.43 257.59,-252.42 248.63,-258.07 254.11,-262.43"/>
</a>
</g>
</g>
<!-- 2&#45;&gt;20 -->
<g id="edge22" class="edge">
<title>2&#45;&gt;20</title>
<g id="a_edge22"><a xlink:title="include">
<path fill="none" stroke="#1414ce" d="M614.7,-586.17C667.23,-579.03 742.92,-565.23 805,-540 845.93,-523.37 888.08,-494.71 915.29,-474.41"/>
<polygon fill="#1414ce" stroke="#1414ce" points="917.71,-476.97 923.57,-468.14 913.49,-471.39 917.71,-476.97"/>
</a>
</g>
</g>
<!-- 28 -->
<g id="node17" class="node">
<title>28</title>
<g id="a_node17"><a xlink:title="timer_list.h">
<polygon fill="#ffffff" stroke="black" points="98,-252 0,-252 0,-216 98,-216 98,-252"/>
<text text-anchor="middle" x="49" y="-230.3" font-family="Times,serif" font-size="14.00">timer_list.h</text>
</a>
</g>
</g>
<!-- 2&#45;&gt;28 -->
<g id="edge23" class="edge">
<title>2&#45;&gt;28</title>
<g id="a_edge23"><a xlink:title="include">
<path fill="none" stroke="#1414ce" d="M487.39,-592.66C380.5,-590.9 170.79,-582.01 112,-540 76.26,-514.46 69,-494.93 69,-451 69,-451 69,-451 69,-377 69,-336.82 61.05,-290.87 55.18,-262.39"/>
<polygon fill="#1414ce" stroke="#1414ce" points="58.55,-261.43 53.05,-252.38 51.7,-262.89 58.55,-261.43"/>
</a>
</g>
</g>
<!-- 29 -->
<g id="node19" class="node">
<title>29</title>
<g id="a_node19"><a xlink:title="valueshashtable.h">
<polygon fill="#ffffff" stroke="black" points="1504,-180 1358,-180 1358,-144 1504,-144 1504,-180"/>
<text text-anchor="middle" x="1431" y="-158.3" font-family="Times,serif" font-size="14.00">valueshashtable.h</text>
</a>
</g>
</g>
<!-- 2&#45;&gt;29 -->
<g id="edge24" class="edge">
<title>2&#45;&gt;29</title>
<g id="a_edge24"><a xlink:title="include">
<path fill="none" stroke="#1414ce" d="M614.59,-592.98C720.64,-591.63 939.69,-583.27 1119,-540 1202.76,-519.79 1237.23,-528.07 1299,-468 1381.16,-388.1 1415.29,-248.56 1426.46,-190.04"/>
<polygon fill="#1414ce" stroke="#1414ce" points="1429.93,-190.56 1428.29,-180.09 1423.04,-189.3 1429.93,-190.56"/>
</a>
</g>
</g>
<!-- 2&#45;&gt;3 -->
<g id="edge13" class="edge">
<title>2&#45;&gt;3</title>
<g id="a_edge13"><a xlink:title="include">
<path fill="none" stroke="#1414ce" d="M614.53,-591.27C755.75,-586.85 1091.76,-573.12 1200,-540 1262.41,-520.9 1280.13,-512.38 1328,-468 1449.6,-355.26 1590.29,-290.71 1513,-144 1463.75,-50.5 1326.84,-26.85 1254.37,-20.93"/>
<polygon fill="#1414ce" stroke="#1414ce" points="1254.4,-17.42 1244.17,-20.18 1253.88,-24.4 1254.4,-17.42"/>
</a>
</g>
</g>
<!-- 23 -->
<g id="node7" class="node">
<title>23</title>
<g id="a_node7"><a xlink:title="intn.h">
<polygon fill="#ffffff" stroke="black" points="916.5,-396 857.5,-396 857.5,-360 916.5,-360 916.5,-396"/>
<text text-anchor="middle" x="887" y="-374.3" font-family="Times,serif" font-size="14.00">intn.h</text>
</a>
</g>
</g>
<!-- 23&#45;&gt;8 -->
<g id="edge27" class="edge">
<title>23&#45;&gt;8</title>
<g id="a_edge27"><a xlink:title="include">
<path fill="none" stroke="#1414ce" d="M901.92,-359.88C920.68,-337.08 951.91,-294.67 964,-252 969.78,-231.59 966.29,-207.69 961.76,-189.8"/>
<polygon fill="#1414ce" stroke="#1414ce" points="965.1,-188.73 959.04,-180.04 958.35,-190.61 965.1,-188.73"/>
</a>
</g>
</g>
<!-- 23&#45;&gt;7 -->
<g id="edge25" class="edge">
<title>23&#45;&gt;7</title>
<g id="a_edge25"><a xlink:title="include">
<path fill="none" stroke="#1414ce" d="M864.83,-359.72C813.86,-320.21 684.07,-220.77 571,-144 555.6,-133.55 538.23,-122.57 523.22,-113.34"/>
<polygon fill="#1414ce" stroke="#1414ce" points="525.04,-110.35 514.69,-108.12 521.39,-116.33 525.04,-110.35"/>
</a>
</g>
</g>
<!-- 22 -->
<g id="node28" class="node">
<title>22</title>
<g id="a_node28"><a xlink:title="string.h">
<polygon fill="#ffffff" stroke="black" points="1069.5,-324 996.5,-324 996.5,-288 1069.5,-288 1069.5,-324"/>
<text text-anchor="middle" x="1033" y="-302.3" font-family="Times,serif" font-size="14.00">string.h</text>
</a>
</g>
</g>
<!-- 23&#45;&gt;22 -->
<g id="edge26" class="edge">
<title>23&#45;&gt;22</title>
<g id="a_edge26"><a xlink:title="include">
<path fill="none" stroke="#1414ce" d="M916.55,-362.83C937.05,-353 964.75,-339.72 987.99,-328.58"/>
<polygon fill="#1414ce" stroke="#1414ce" points="989.8,-331.59 997.31,-324.11 986.78,-325.28 989.8,-331.59"/>
</a>
</g>
</g>
<!-- 17&#45;&gt;7 -->
<g id="edge28" class="edge">
<title>17&#45;&gt;7</title>
<g id="a_edge28"><a xlink:title="include">
<path fill="none" stroke="#1414ce" d="M316.25,-149.41C320.82,-147.55 325.53,-145.68 330,-144 364.66,-130.94 404.17,-117.53 434.75,-107.47"/>
<polygon fill="#1414ce" stroke="#1414ce" points="435.94,-110.77 444.35,-104.33 433.76,-104.11 435.94,-110.77"/>
</a>
</g>
</g>
<!-- 27&#45;&gt;17 -->
<g id="edge30" class="edge">
<title>27&#45;&gt;17</title>
<g id="a_edge30"><a xlink:title="include">
<path fill="none" stroke="#1414ce" d="M447.67,-217.98C411.37,-205.41 360.13,-187.65 325.8,-175.75"/>
<polygon fill="#1414ce" stroke="#1414ce" points="326.75,-172.38 316.16,-172.41 324.46,-178.99 326.75,-172.38"/>
</a>
</g>
</g>
<!-- 27&#45;&gt;13 -->
<g id="edge31" class="edge">
<title>27&#45;&gt;13</title>
<g id="a_edge31"><a xlink:title="include">
<path fill="none" stroke="#1414ce" d="M516.38,-215.94C543.83,-197.65 589.04,-168 629,-144 646.49,-133.5 666.13,-122.42 682.99,-113.13"/>
<polygon fill="#1414ce" stroke="#1414ce" points="684.96,-116.04 692.04,-108.17 681.59,-109.91 684.96,-116.04"/>
</a>
</g>
</g>
<!-- 27&#45;&gt;8 -->
<g id="edge32" class="edge">
<title>27&#45;&gt;8</title>
<g id="a_edge32"><a xlink:title="include">
<path fill="none" stroke="#1414ce" d="M534.05,-226.48C622.73,-213.04 824.77,-182.43 911.83,-169.24"/>
<polygon fill="#1414ce" stroke="#1414ce" points="912.5,-172.68 921.86,-167.72 911.45,-165.76 912.5,-172.68"/>
</a>
</g>
</g>
<!-- 27&#45;&gt;7 -->
<g id="edge29" class="edge">
<title>27&#45;&gt;7</title>
<g id="a_edge29"><a xlink:title="include">
<path fill="none" stroke="#1414ce" d="M490.4,-215.87C489.54,-191.67 487.98,-147.21 486.96,-118.39"/>
<polygon fill="#1414ce" stroke="#1414ce" points="490.46,-118.06 486.61,-108.19 483.46,-118.31 490.46,-118.06"/>
</a>
</g>
</g>
<!-- 24 -->
<g id="node10" class="node">
<title>24</title>
<g id="a_node10"><a xlink:title="memory.h">
<polygon fill="#ffffff" stroke="black" points="828,-252 742,-252 742,-216 828,-216 828,-252"/>
<text text-anchor="middle" x="785" y="-230.3" font-family="Times,serif" font-size="14.00">memory.h</text>
</a>
</g>
</g>
<!-- 24&#45;&gt;12 -->
<g id="edge35" class="edge">
<title>24&#45;&gt;12</title>
<g id="a_edge35"><a xlink:title="include">
<path fill="none" stroke="#1414ce" d="M767.45,-215.7C758.77,-207.14 748.14,-196.66 738.65,-187.3"/>
<polygon fill="#1414ce" stroke="#1414ce" points="740.93,-184.63 731.35,-180.1 736.01,-189.62 740.93,-184.63"/>
</a>
</g>
</g>
<!-- 24&#45;&gt;13 -->
<g id="edge36" class="edge">
<title>24&#45;&gt;13</title>
<g id="a_edge36"><a xlink:title="include">
<path fill="none" stroke="#1414ce" d="M781.87,-215.69C778.15,-197.32 771.03,-167.72 760,-144 755.61,-134.57 749.63,-124.95 743.8,-116.55"/>
<polygon fill="#1414ce" stroke="#1414ce" points="746.53,-114.36 737.85,-108.29 740.85,-118.45 746.53,-114.36"/>
</a>
</g>
</g>
<!-- 24&#45;&gt;8 -->
<g id="edge37" class="edge">
<title>24&#45;&gt;8</title>
<g id="a_edge37"><a xlink:title="include">
<path fill="none" stroke="#1414ce" d="M826.1,-215.88C852.4,-204.92 886.37,-190.76 912.54,-179.86"/>
<polygon fill="#1414ce" stroke="#1414ce" points="913.92,-183.07 921.81,-176 911.23,-176.61 913.92,-183.07"/>
</a>
</g>
</g>
<!-- 24&#45;&gt;3 -->
<g id="edge33" class="edge">
<title>24&#45;&gt;3</title>
<g id="a_edge33"><a xlink:title="include">
<path fill="none" stroke="#1414ce" d="M793.18,-215.75C810.16,-182.04 852.61,-107.6 912,-72 953.4,-47.18 1089.42,-30.57 1161.77,-23.25"/>
<polygon fill="#1414ce" stroke="#1414ce" points="1162.36,-26.71 1171.97,-22.24 1161.67,-19.74 1162.36,-26.71"/>
</a>
</g>
</g>
<!-- 24&#45;&gt;5 -->
<g id="edge34" class="edge">
<title>24&#45;&gt;5</title>
<g id="a_edge34"><a xlink:title="include">
<path fill="none" stroke="#1414ce" d="M813.96,-215.94C830.42,-205.94 851.23,-192.8 869,-180 889.5,-165.23 890.38,-155.25 913,-144 969.01,-116.14 1040.49,-102.41 1086.27,-96.02"/>
<polygon fill="#1414ce" stroke="#1414ce" points="1086.75,-99.49 1096.2,-94.7 1085.82,-92.55 1086.75,-99.49"/>
</a>
</g>
</g>
<!-- 25 -->
<g id="node11" class="node">
<title>25</title>
<g id="a_node11"><a xlink:title="refc_binary.h">
<polygon fill="#ffffff" stroke="black" points="763,-396 655,-396 655,-360 763,-360 763,-396"/>
<text text-anchor="middle" x="709" y="-374.3" font-family="Times,serif" font-size="14.00">refc_binary.h</text>
</a>
</g>
</g>
<!-- 25&#45;&gt;17 -->
<g id="edge40" class="edge">
<title>25&#45;&gt;17</title>
<g id="a_edge40"><a xlink:title="include">
<path fill="none" stroke="#1414ce" d="M654.85,-361.12C590.49,-340.97 481.1,-302.65 396,-252 365.25,-233.7 334.28,-206.79 313.62,-187.36"/>
<polygon fill="#1414ce" stroke="#1414ce" points="315.88,-184.68 306.23,-180.31 311.05,-189.74 315.88,-184.68"/>
</a>
</g>
</g>
<!-- 26 -->
<g id="node12" class="node">
<title>26</title>
<g id="a_node12"><a xlink:title="resources.h">
<polygon fill="#ffffff" stroke="black" points="717,-324 617,-324 617,-288 717,-288 717,-324"/>
<text text-anchor="middle" x="667" y="-302.3" font-family="Times,serif" font-size="14.00">resources.h</text>
</a>
</g>
</g>
<!-- 25&#45;&gt;26 -->
<g id="edge41" class="edge">
<title>25&#45;&gt;26</title>
<g id="a_edge41"><a xlink:title="include">
<path fill="none" stroke="#1414ce" d="M698.62,-359.7C693.74,-351.56 687.81,-341.69 682.42,-332.7"/>
<polygon fill="#1414ce" stroke="#1414ce" points="685.41,-330.88 677.26,-324.1 679.41,-334.48 685.41,-330.88"/>
</a>
</g>
</g>
<!-- 25&#45;&gt;7 -->
<g id="edge38" class="edge">
<title>25&#45;&gt;7</title>
<g id="a_edge38"><a xlink:title="include">
<path fill="none" stroke="#1414ce" d="M718.88,-359.75C728.25,-340.9 739.1,-310.41 726,-288 709.52,-259.83 688.43,-271.14 662,-252 603,-209.28 541.99,-149.26 509.58,-115.88"/>
<polygon fill="#1414ce" stroke="#1414ce" points="511.82,-113.15 502.35,-108.39 506.78,-118.01 511.82,-113.15"/>
</a>
</g>
</g>
<!-- 25&#45;&gt;5 -->
<g id="edge39" class="edge">
<title>25&#45;&gt;5</title>
<g id="a_edge39"><a xlink:title="include">
<path fill="none" stroke="#1414ce" d="M762.4,-359.96C823.55,-339.23 925.52,-300.86 1005,-252 1047.18,-226.07 1059.86,-219.28 1090,-180 1104.48,-161.13 1115.63,-136.46 1122.79,-117.88"/>
<polygon fill="#1414ce" stroke="#1414ce" points="1126.16,-118.86 1126.36,-108.26 1119.6,-116.43 1126.16,-118.86"/>
</a>
</g>
</g>
<!-- 26&#45;&gt;12 -->
<g id="edge43" class="edge">
<title>26&#45;&gt;12</title>
<g id="a_edge43"><a xlink:title="include">
<path fill="none" stroke="#1414ce" d="M672.67,-287.87C680.71,-263.56 695.52,-218.82 705.06,-190.01"/>
<polygon fill="#1414ce" stroke="#1414ce" points="708.49,-190.78 708.31,-180.19 701.85,-188.58 708.49,-190.78"/>
</a>
</g>
</g>
<!-- 26&#45;&gt;17 -->
<g id="edge44" class="edge">
<title>26&#45;&gt;17</title>
<g id="a_edge44"><a xlink:title="include">
<path fill="none" stroke="#1414ce" d="M616.69,-300.13C568.91,-293.96 496.09,-280.48 439,-252 416.7,-240.87 416.87,-229.63 396,-216 373.72,-201.45 346.89,-188.17 325.67,-178.54"/>
<polygon fill="#1414ce" stroke="#1414ce" points="326.9,-175.26 316.35,-174.38 324.05,-181.65 326.9,-175.26"/>
</a>
</g>
</g>
<!-- 26&#45;&gt;27 -->
<g id="edge45" class="edge">
<title>26&#45;&gt;27</title>
<g id="a_edge45"><a xlink:title="include">
<path fill="none" stroke="#1414ce" d="M623.95,-287.88C599.67,-278.22 569.16,-266.09 543.49,-255.88"/>
<polygon fill="#1414ce" stroke="#1414ce" points="544.5,-252.51 533.91,-252.07 541.91,-259.02 544.5,-252.51"/>
</a>
</g>
</g>
<!-- 26&#45;&gt;24 -->
<g id="edge46" class="edge">
<title>26&#45;&gt;24</title>
<g id="a_edge46"><a xlink:title="include">
<path fill="none" stroke="#1414ce" d="M695.87,-287.88C711.29,-278.72 730.48,-267.34 747.1,-257.48"/>
<polygon fill="#1414ce" stroke="#1414ce" points="749.21,-260.3 756.02,-252.19 745.64,-254.28 749.21,-260.3"/>
</a>
</g>
</g>
<!-- 26&#45;&gt;18 -->
<g id="edge47" class="edge">
<title>26&#45;&gt;18</title>
<g id="a_edge47"><a xlink:title="include">
<path fill="none" stroke="#1414ce" d="M616.7,-296.06C541.85,-282.77 401.81,-257.89 325.63,-244.35"/>
<polygon fill="#1414ce" stroke="#1414ce" points="326.23,-240.9 315.77,-242.6 325.01,-247.79 326.23,-240.9"/>
</a>
</g>
</g>
<!-- 26&#45;&gt;5 -->
<g id="edge42" class="edge">
<title>26&#45;&gt;5</title>
<g id="a_edge42"><a xlink:title="include">
<path fill="none" stroke="#1414ce" d="M717.08,-304.78C778.47,-302.6 884.16,-292.59 964,-252 1028.84,-219.03 1085.58,-152.79 1113.54,-116.39"/>
<polygon fill="#1414ce" stroke="#1414ce" points="1116.46,-118.33 1119.7,-108.25 1110.88,-114.11 1116.46,-118.33"/>
</a>
</g>
</g>
<!-- 19&#45;&gt;7 -->
<g id="edge48" class="edge">
<title>19&#45;&gt;7</title>
<g id="a_edge48"><a xlink:title="include">
<path fill="none" stroke="#1414ce" d="M244.02,-147.25C247.02,-146.08 250.05,-144.97 253,-144 313.95,-123.98 386.29,-108.81 434.02,-99.93"/>
<polygon fill="#1414ce" stroke="#1414ce" points="434.91,-103.32 444.11,-98.08 433.65,-96.44 434.91,-103.32"/>
</a>
</g>
</g>
<!-- 18&#45;&gt;17 -->
<g id="edge50" class="edge">
<title>18&#45;&gt;17</title>
<g id="a_edge50"><a xlink:title="include">
<path fill="none" stroke="#1414ce" d="M276.96,-215.7C278.72,-207.98 280.84,-198.71 282.8,-190.11"/>
<polygon fill="#1414ce" stroke="#1414ce" points="286.27,-190.63 285.09,-180.1 279.45,-189.07 286.27,-190.63"/>
</a>
</g>
</g>
<!-- 18&#45;&gt;19 -->
<g id="edge51" class="edge">
<title>18&#45;&gt;19</title>
<g id="a_edge51"><a xlink:title="include">
<path fill="none" stroke="#1414ce" d="M258.42,-215.7C251.34,-207.3 242.72,-197.07 234.95,-187.86"/>
<polygon fill="#1414ce" stroke="#1414ce" points="237.54,-185.49 228.42,-180.1 232.19,-190.01 237.54,-185.49"/>
</a>
</g>
</g>
<!-- 11 -->
<g id="node26" class="node">
<title>11</title>
<g id="a_node26"><a xlink:title="stdio.h">
<polygon fill="#ffffff" stroke="black" points="986.5,-108 921.5,-108 921.5,-72 986.5,-72 986.5,-108"/>
<text text-anchor="middle" x="954" y="-86.3" font-family="Times,serif" font-size="14.00">stdio.h</text>
</a>
</g>
</g>
<!-- 18&#45;&gt;11 -->
<g id="edge49" class="edge">
<title>18&#45;&gt;11</title>
<g id="a_edge49"><a xlink:title="include">
<path fill="none" stroke="#1414ce" d="M315.55,-222.85C387.82,-205.74 539.23,-170.43 668,-144 754.15,-126.32 855.45,-108.17 911.42,-98.37"/>
<polygon fill="#1414ce" stroke="#1414ce" points="912.07,-101.8 921.32,-96.63 910.87,-94.91 912.07,-101.8"/>
</a>
</g>
</g>
<!-- 20&#45;&gt;4 -->
<g id="edge58" class="edge">
<title>20&#45;&gt;4</title>
<g id="a_edge58"><a xlink:title="include">
<path fill="none" stroke="#1414ce" d="M977.65,-447.36C1044.07,-443.32 1191.53,-430.6 1226,-396 1254.51,-367.38 1264.58,-245.53 1267.73,-190.35"/>
<polygon fill="#1414ce" stroke="#1414ce" points="1271.23,-190.42 1268.27,-180.25 1264.24,-190.05 1271.23,-190.42"/>
</a>
</g>
</g>
<!-- 20&#45;&gt;23 -->
<g id="edge59" class="edge">
<title>20&#45;&gt;23</title>
<g id="a_edge59"><a xlink:title="include">
<path fill="none" stroke="#1414ce" d="M930.66,-431.7C923.71,-423.3 915.23,-413.07 907.6,-403.86"/>
<polygon fill="#1414ce" stroke="#1414ce" points="910.25,-401.57 901.17,-396.1 904.86,-406.04 910.25,-401.57"/>
</a>
</g>
</g>
<!-- 20&#45;&gt;24 -->
<g id="edge60" class="edge">
<title>20&#45;&gt;24</title>
<g id="a_edge60"><a xlink:title="include">
<path fill="none" stroke="#1414ce" d="M912.41,-437.89C891.54,-429.32 865.25,-415.59 848,-396 813.49,-356.8 796.79,-296.51 789.63,-261.91"/>
<polygon fill="#1414ce" stroke="#1414ce" points="793.05,-261.19 787.7,-252.05 786.18,-262.53 793.05,-261.19"/>
</a>
</g>
</g>
<!-- 20&#45;&gt;25 -->
<g id="edge61" class="edge">
<title>20&#45;&gt;25</title>
<g id="a_edge61"><a xlink:title="include">
<path fill="none" stroke="#1414ce" d="M912.19,-439.27C876.31,-428.63 817.96,-411.32 772.96,-397.97"/>
<polygon fill="#1414ce" stroke="#1414ce" points="773.87,-394.59 763.29,-395.1 771.88,-401.3 773.87,-394.59"/>
</a>
</g>
</g>
<!-- 20&#45;&gt;26 -->
<g id="edge62" class="edge">
<title>20&#45;&gt;26</title>
<g id="a_edge62"><a xlink:title="include">
<path fill="none" stroke="#1414ce" d="M912.41,-448.27C842.09,-445.95 679.74,-436.25 646,-396 631.27,-378.44 639.84,-352.38 650.1,-332.99"/>
<polygon fill="#1414ce" stroke="#1414ce" points="653.28,-334.49 655.19,-324.07 647.19,-331.03 653.28,-334.49"/>
</a>
</g>
</g>
<!-- 20&#45;&gt;13 -->
<g id="edge64" class="edge">
<title>20&#45;&gt;13</title>
<g id="a_edge64"><a xlink:title="include">
<path fill="none" stroke="#1414ce" d="M912.5,-447.46C841.8,-443.5 676.98,-430.7 635,-396 547.93,-324.04 603.86,-236.98 668,-144 675.3,-133.41 685.01,-123.3 694.3,-114.81"/>
<polygon fill="#1414ce" stroke="#1414ce" points="696.75,-117.32 701.93,-108.08 692.12,-112.07 696.75,-117.32"/>
</a>
</g>
</g>
<!-- 20&#45;&gt;8 -->
<g id="edge63" class="edge">
<title>20&#45;&gt;8</title>
<g id="a_edge63"><a xlink:title="include">
<path fill="none" stroke="#1414ce" d="M977.57,-441.66C1003,-434.29 1037.37,-420.41 1058,-396 1079.44,-370.63 1073.51,-356.91 1078,-324 1080.16,-308.15 1084.12,-302.78 1078,-288 1059.91,-244.33 1018.34,-207.96 988.09,-185.91"/>
<polygon fill="#1414ce" stroke="#1414ce" points="990.07,-183.02 979.89,-180.08 986.01,-188.73 990.07,-183.02"/>
</a>
</g>
</g>
<!-- 20&#45;&gt;7 -->
<g id="edge53" class="edge">
<title>20&#45;&gt;7</title>
<g id="a_edge53"><a xlink:title="include">
<path fill="none" stroke="#1414ce" d="M912.36,-446.34C837.58,-439.87 656.09,-421.92 601,-396 513.83,-354.99 478.46,-339.88 439,-252 418.5,-206.35 446.7,-149.44 467.46,-116.96"/>
<polygon fill="#1414ce" stroke="#1414ce" points="470.47,-118.75 473.07,-108.47 464.63,-114.88 470.47,-118.75"/>
</a>
</g>
</g>
<!-- 20&#45;&gt;3 -->
<g id="edge54" class="edge">
<title>20&#45;&gt;3</title>
<g id="a_edge54"><a xlink:title="include">
<path fill="none" stroke="#1414ce" d="M977.72,-447.87C1017.69,-444.79 1085.15,-433.87 1127,-396 1229,-303.68 1219.44,-116.63 1211.69,-46.44"/>
<polygon fill="#1414ce" stroke="#1414ce" points="1215.13,-45.73 1210.48,-36.21 1208.18,-46.55 1215.13,-45.73"/>
</a>
</g>
</g>
<!-- 20&#45;&gt;11 -->
<g id="edge55" class="edge">
<title>20&#45;&gt;11</title>
<g id="a_edge55"><a xlink:title="include">
<path fill="none" stroke="#1414ce" d="M977.75,-445.33C1009.13,-440.02 1055.39,-427.1 1081,-396 1101.67,-370.9 1091.1,-356.39 1094,-324 1095.43,-308.06 1097.93,-303.51 1094,-288 1075.79,-216.16 1016.06,-149.66 980.77,-115.34"/>
<polygon fill="#1414ce" stroke="#1414ce" points="982.86,-112.5 973.21,-108.12 978.02,-117.56 982.86,-112.5"/>
</a>
</g>
</g>
<!-- 20&#45;&gt;5 -->
<g id="edge56" class="edge">
<title>20&#45;&gt;5</title>
<g id="a_edge56"><a xlink:title="include">
<path fill="none" stroke="#1414ce" d="M977.81,-447.8C1014.24,-444.57 1071.87,-433.42 1102,-396 1168.13,-313.88 1149.86,-176.14 1138.22,-118.09"/>
<polygon fill="#1414ce" stroke="#1414ce" points="1141.63,-117.28 1136.15,-108.21 1134.78,-118.72 1141.63,-117.28"/>
</a>
</g>
</g>
<!-- 20&#45;&gt;22 -->
<g id="edge57" class="edge">
<title>20&#45;&gt;22</title>
<g id="a_edge57"><a xlink:title="include">
<path fill="none" stroke="#1414ce" d="M977.59,-440.26C999.45,-432.51 1026.61,-418.8 1040,-396 1050.99,-377.28 1047.86,-352.4 1042.77,-333.71"/>
<polygon fill="#1414ce" stroke="#1414ce" points="1046.09,-332.58 1039.82,-324.04 1039.39,-334.63 1046.09,-332.58"/>
</a>
</g>
</g>
<!-- 21 -->
<g id="node29" class="node">
<title>21</title>
<g id="a_node29"><a xlink:title="sys/types.h">
<polygon fill="#ffffff" stroke="black" points="1031.5,-396 934.5,-396 934.5,-360 1031.5,-360 1031.5,-396"/>
<text text-anchor="middle" x="983" y="-374.3" font-family="Times,serif" font-size="14.00">sys/types.h</text>
</a>
</g>
</g>
<!-- 20&#45;&gt;21 -->
<g id="edge52" class="edge">
<title>20&#45;&gt;21</title>
<g id="a_edge52"><a xlink:title="include">
<path fill="none" stroke="#1414ce" d="M954.39,-431.7C958.76,-423.64 964.06,-413.89 968.9,-404.98"/>
<polygon fill="#1414ce" stroke="#1414ce" points="972.02,-406.56 973.71,-396.1 965.87,-403.22 972.02,-406.56"/>
</a>
</g>
</g>
<!-- 14 -->
<g id="node20" class="node">
<title>14</title>
<g id="a_node20"><a xlink:title="assert.h">
<polygon fill="#ffffff" stroke="black" points="781,-36 707,-36 707,0 781,0 781,-36"/>
<text text-anchor="middle" x="744" y="-14.3" font-family="Times,serif" font-size="14.00">assert.h</text>
</a>
</g>
</g>
<!-- 13&#45;&gt;14 -->
<g id="edge65" class="edge">
<title>13&#45;&gt;14</title>
<g id="a_edge65"><a xlink:title="include">
<path fill="none" stroke="#1414ce" d="M728.94,-71.7C731.17,-63.9 733.85,-54.51 736.33,-45.83"/>
<polygon fill="#1414ce" stroke="#1414ce" points="739.73,-46.68 739.11,-36.1 733,-44.76 739.73,-46.68"/>
</a>
</g>
</g>
<!-- 9 -->
<g id="node21" class="node">
<title>9</title>
<g id="a_node21"><a xlink:title="inttypes.h">
<polygon fill="#ffffff" stroke="black" points="898.5,-36 809.5,-36 809.5,0 898.5,0 898.5,-36"/>
<text text-anchor="middle" x="854" y="-14.3" font-family="Times,serif" font-size="14.00">inttypes.h</text>
</a>
</g>
</g>
<!-- 13&#45;&gt;9 -->
<g id="edge67" class="edge">
<title>13&#45;&gt;9</title>
<g id="a_edge67"><a xlink:title="include">
<path fill="none" stroke="#1414ce" d="M755.8,-71.88C773.11,-62.55 794.72,-50.92 813.26,-40.94"/>
<polygon fill="#1414ce" stroke="#1414ce" points="814.93,-44.01 822.08,-36.19 811.61,-37.85 814.93,-44.01"/>
</a>
</g>
</g>
<!-- 15 -->
<g id="node22" class="node">
<title>15</title>
<g id="a_node22"><a xlink:title="limits.h">
<polygon fill="#ffffff" stroke="black" points="688.5,-36 617.5,-36 617.5,0 688.5,0 688.5,-36"/>
<text text-anchor="middle" x="653" y="-14.3" font-family="Times,serif" font-size="14.00">limits.h</text>
</a>
</g>
</g>
<!-- 13&#45;&gt;15 -->
<g id="edge66" class="edge">
<title>13&#45;&gt;15</title>
<g id="a_edge66"><a xlink:title="include">
<path fill="none" stroke="#1414ce" d="M706.45,-71.7C697.77,-63.14 687.14,-52.66 677.65,-43.3"/>
<polygon fill="#1414ce" stroke="#1414ce" points="679.93,-40.63 670.35,-36.1 675.01,-45.62 679.93,-40.63"/>
</a>
</g>
</g>
<!-- 13&#45;&gt;3 -->
<g id="edge68" class="edge">
<title>13&#45;&gt;3</title>
<g id="a_edge68"><a xlink:title="include">
<path fill="none" stroke="#1414ce" d="M786.54,-79.9C804.15,-77.34 823.33,-74.56 841,-72 956.29,-55.3 1091.97,-35.73 1161.61,-25.69"/>
<polygon fill="#1414ce" stroke="#1414ce" points="1162.4,-29.11 1171.8,-24.22 1161.4,-22.18 1162.4,-29.11"/>
</a>
</g>
</g>
<!-- 28&#45;&gt;17 -->
<g id="edge71" class="edge">
<title>28&#45;&gt;17</title>
<g id="a_edge71"><a xlink:title="include">
<path fill="none" stroke="#1414ce" d="M98,-222.98C137.61,-214.27 194.8,-200.33 252.13,-179.99"/>
<polygon fill="#1414ce" stroke="#1414ce" points="253.49,-183.22 261.71,-176.53 251.11,-176.64 253.49,-183.22"/>
</a>
</g>
</g>
<!-- 28&#45;&gt;7 -->
<g id="edge69" class="edge">
<title>28&#45;&gt;7</title>
<g id="a_edge69"><a xlink:title="include">
<path fill="none" stroke="#1414ce" d="M67.45,-215.87C90.67,-195.33 132.68,-161.49 175,-144 261.43,-108.28 370.92,-96.63 434.25,-92.83"/>
<polygon fill="#1414ce" stroke="#1414ce" points="434.6,-96.32 444.39,-92.27 434.21,-89.33 434.6,-96.32"/>
</a>
</g>
</g>
<!-- 28&#45;&gt;3 -->
<g id="edge70" class="edge">
<title>28&#45;&gt;3</title>
<g id="a_edge70"><a xlink:title="include">
<path fill="none" stroke="#1414ce" d="M56.09,-215.65C65.37,-195.22 83.61,-161.82 110,-144 232.61,-61.2 288.57,-93.12 435,-72 506.74,-61.65 1005.68,-31.16 1161.57,-21.78"/>
<polygon fill="#1414ce" stroke="#1414ce" points="1161.99,-25.26 1171.76,-21.16 1161.57,-18.27 1161.99,-25.26"/>
</a>
</g>
</g>
<!-- 8&#45;&gt;9 -->
<g id="edge72" class="edge">
<title>8&#45;&gt;9</title>
<g id="a_edge72"><a xlink:title="include">
<path fill="none" stroke="#1414ce" d="M938.97,-143.6C930.88,-133.39 920.63,-120.14 912,-108 897.17,-87.14 881.37,-62.73 870.01,-44.76"/>
<polygon fill="#1414ce" stroke="#1414ce" points="872.79,-42.61 864.51,-36 866.86,-46.33 872.79,-42.61"/>
</a>
</g>
</g>
<!-- 8&#45;&gt;7 -->
<g id="edge73" class="edge">
<title>8&#45;&gt;7</title>
<g id="a_edge73"><a xlink:title="include">
<path fill="none" stroke="#1414ce" d="M922,-156.35C843.3,-144.56 635.13,-113.35 537.68,-98.75"/>
<polygon fill="#1414ce" stroke="#1414ce" points="538.17,-95.28 527.76,-97.26 537.13,-102.2 538.17,-95.28"/>
</a>
</g>
</g>
<!-- 10 -->
<g id="node24" class="node">
<title>10</title>
<g id="a_node24"><a xlink:title="stddef.h">
<polygon fill="#ffffff" stroke="black" points="1371,-108 1297,-108 1297,-72 1371,-72 1371,-108"/>
<text text-anchor="middle" x="1334" y="-86.3" font-family="Times,serif" font-size="14.00">stddef.h</text>
</a>
</g>
</g>
<!-- 8&#45;&gt;10 -->
<g id="edge74" class="edge">
<title>8&#45;&gt;10</title>
<g id="a_edge74"><a xlink:title="include">
<path fill="none" stroke="#1414ce" d="M984.18,-155.27C1050.85,-143.02 1207.63,-114.22 1286.68,-99.69"/>
<polygon fill="#1414ce" stroke="#1414ce" points="1287.64,-103.08 1296.84,-97.83 1286.37,-96.19 1287.64,-103.08"/>
</a>
</g>
</g>
<!-- 8&#45;&gt;11 -->
<g id="edge75" class="edge">
<title>8&#45;&gt;11</title>
<g id="a_edge75"><a xlink:title="include">
<path fill="none" stroke="#1414ce" d="M953.25,-143.7C953.36,-135.98 953.49,-126.71 953.61,-118.11"/>
<polygon fill="#1414ce" stroke="#1414ce" points="957.11,-118.15 953.76,-108.1 950.11,-118.05 957.11,-118.15"/>
</a>
</g>
</g>
<!-- 8&#45;&gt;5 -->
<g id="edge76" class="edge">
<title>8&#45;&gt;5</title>
<g id="a_edge76"><a xlink:title="include">
<path fill="none" stroke="#1414ce" d="M984.18,-148.81C1012.5,-137.73 1054.62,-121.26 1086.67,-108.73"/>
<polygon fill="#1414ce" stroke="#1414ce" points="1088.22,-111.88 1096.26,-104.98 1085.67,-105.36 1088.22,-111.88"/>
</a>
</g>
</g>
<!-- 29&#45;&gt;10 -->
<g id="edge77" class="edge">
<title>29&#45;&gt;10</title>
<g id="a_edge77"><a xlink:title="include">
<path fill="none" stroke="#1414ce" d="M1407.02,-143.7C1394.69,-134.8 1379.48,-123.82 1366.15,-114.2"/>
<polygon fill="#1414ce" stroke="#1414ce" points="1367.86,-111.12 1357.7,-108.1 1363.76,-116.79 1367.86,-111.12"/>
</a>
</g>
</g>
<!-- 29&#45;&gt;3 -->
<g id="edge78" class="edge">
<title>29&#45;&gt;3</title>
<g id="a_edge78"><a xlink:title="include">
<path fill="none" stroke="#1414ce" d="M1425.48,-143.66C1418.2,-123.56 1403.5,-90.8 1380,-72 1343.76,-43.01 1291.67,-29.82 1254.32,-23.85"/>
<polygon fill="#1414ce" stroke="#1414ce" points="1254.61,-20.36 1244.2,-22.35 1253.58,-27.28 1254.61,-20.36"/>
</a>
</g>
</g>
</g>
</svg>
