<?xml version="1.0" encoding="UTF-8" standalone="no"?>
<!DOCTYPE svg PUBLIC "-//W3C//DTD SVG 1.1//EN"
 "http://www.w3.org/Graphics/SVG/1.1/DTD/svg11.dtd">
<!-- Generated by graphviz version 2.43.0 (0)
 -->
<!-- Title: %3 Pages: 1 -->
<svg width="1503pt" height="836pt"
 viewBox="0.00 0.00 1503.00 836.00" xmlns="http://www.w3.org/2000/svg" xmlns:xlink="http://www.w3.org/1999/xlink">
<g id="graph0" class="graph" transform="scale(1 1) rotate(0) translate(4 832)">
<title>%3</title>
<polygon fill="transparent" stroke="transparent" points="-4,4 -4,-832 1499,-832 1499,4 -4,4"/>
<!-- 7 -->
<g id="node1" class="node">
<title>7</title>
<g id="a_node1"><a xlink:title="stdbool.h">
<polygon fill="#ffffff" stroke="black" points="606.5,-108 523.5,-108 523.5,-72 606.5,-72 606.5,-108"/>
<text text-anchor="middle" x="565" y="-86.3" font-family="Times,serif" font-size="14.00">stdbool.h</text>
</a>
</g>
</g>
<!-- 24 -->
<g id="node2" class="node">
<title>24</title>
<g id="a_node2"><a xlink:title="refc_binary.h">
<polygon fill="#ffffff" stroke="black" points="790,-396 682,-396 682,-360 790,-360 790,-396"/>
<text text-anchor="middle" x="736" y="-374.3" font-family="Times,serif" font-size="14.00">refc_binary.h</text>
</a>
</g>
</g>
<!-- 24&#45;&gt;7 -->
<g id="edge1" class="edge">
<title>24&#45;&gt;7</title>
<g id="a_edge1"><a xlink:title="include">
<path fill="none" stroke="#1414ce" d="M710.62,-359.95C699.29,-350.79 687.12,-338.4 681,-324 674.74,-309.28 674.78,-302.74 681,-288 689.93,-266.86 709.07,-273.14 718,-252 724.22,-237.26 724.86,-230.46 718,-216 695.78,-169.15 646.44,-134.04 609.76,-113.14"/>
<polygon fill="#1414ce" stroke="#1414ce" points="611.18,-109.92 600.74,-108.14 607.79,-116.05 611.18,-109.92"/>
</a>
</g>
</g>
<!-- 14 -->
<g id="node7" class="node">
<title>14</title>
<g id="a_node7"><a xlink:title="list.h">
<polygon fill="#ffffff" stroke="black" points="397,-180 343,-180 343,-144 397,-144 397,-180"/>
<text text-anchor="middle" x="370" y="-158.3" font-family="Times,serif" font-size="14.00">list.h</text>
</a>
</g>
</g>
<!-- 24&#45;&gt;14 -->
<g id="edge3" class="edge">
<title>24&#45;&gt;14</title>
<g id="a_edge3"><a xlink:title="include">
<path fill="none" stroke="#1414ce" d="M681.72,-372.99C605.29,-364.35 466.83,-337.17 391,-252 376.04,-235.19 371.2,-209.71 369.87,-190.31"/>
<polygon fill="#1414ce" stroke="#1414ce" points="373.37,-190.1 369.45,-180.26 366.37,-190.4 373.37,-190.1"/>
</a>
</g>
</g>
<!-- 5 -->
<g id="node9" class="node">
<title>5</title>
<g id="a_node9"><a xlink:title="stdlib.h">
<polygon fill="#ffffff" stroke="black" points="1180.5,-108 1109.5,-108 1109.5,-72 1180.5,-72 1180.5,-108"/>
<text text-anchor="middle" x="1145" y="-86.3" font-family="Times,serif" font-size="14.00">stdlib.h</text>
</a>
</g>
</g>
<!-- 24&#45;&gt;5 -->
<g id="edge2" class="edge">
<title>24&#45;&gt;5</title>
<g id="a_edge2"><a xlink:title="include">
<path fill="none" stroke="#1414ce" d="M786.76,-359.92C845.42,-339.01 943.66,-300.35 1020,-252 1061.26,-225.87 1073.5,-218.92 1103,-180 1117.37,-161.04 1128.53,-136.38 1135.72,-117.83"/>
<polygon fill="#1414ce" stroke="#1414ce" points="1139.09,-118.82 1139.31,-108.23 1132.53,-116.37 1139.09,-118.82"/>
</a>
</g>
</g>
<!-- 25 -->
<g id="node15" class="node">
<title>25</title>
<g id="a_node15"><a xlink:title="resources.h">
<polygon fill="#ffffff" stroke="black" points="790,-324 690,-324 690,-288 790,-288 790,-324"/>
<text text-anchor="middle" x="740" y="-302.3" font-family="Times,serif" font-size="14.00">resources.h</text>
</a>
</g>
</g>
<!-- 24&#45;&gt;25 -->
<g id="edge4" class="edge">
<title>24&#45;&gt;25</title>
<g id="a_edge4"><a xlink:title="include">
<path fill="none" stroke="#1414ce" d="M736.99,-359.7C737.43,-351.98 737.96,-342.71 738.45,-334.11"/>
<polygon fill="#1414ce" stroke="#1414ce" points="741.95,-334.29 739.02,-324.1 734.96,-333.89 741.95,-334.29"/>
</a>
</g>
</g>
<!-- 4 -->
<g id="node3" class="node">
<title>4</title>
<g id="a_node3"><a xlink:title="atom.h">
<polygon fill="#ffffff" stroke="black" points="1062,-468 996,-468 996,-432 1062,-432 1062,-468"/>
<text text-anchor="middle" x="1029" y="-446.3" font-family="Times,serif" font-size="14.00">atom.h</text>
</a>
</g>
</g>
<!-- 3 -->
<g id="node8" class="node">
<title>3</title>
<g id="a_node8"><a xlink:title="stdint.h">
<polygon fill="#ffffff" stroke="black" points="1199,-36 1127,-36 1127,0 1199,0 1199,-36"/>
<text text-anchor="middle" x="1163" y="-14.3" font-family="Times,serif" font-size="14.00">stdint.h</text>
</a>
</g>
</g>
<!-- 4&#45;&gt;3 -->
<g id="edge5" class="edge">
<title>4&#45;&gt;3</title>
<g id="a_edge5"><a xlink:title="include">
<path fill="none" stroke="#1414ce" d="M1062.25,-448.3C1140.36,-444.72 1329,-423.98 1329,-307 1329,-307 1329,-307 1329,-161 1329,-120.03 1332.58,-102.3 1305,-72 1280.33,-44.9 1240.48,-31.6 1209.27,-25.11"/>
<polygon fill="#1414ce" stroke="#1414ce" points="1209.53,-21.59 1199.05,-23.16 1208.21,-28.47 1209.53,-21.59"/>
</a>
</g>
</g>
<!-- 4&#45;&gt;5 -->
<g id="edge6" class="edge">
<title>4&#45;&gt;5</title>
<g id="a_edge6"><a xlink:title="include">
<path fill="none" stroke="#1414ce" d="M1062.36,-445.05C1113.83,-438.2 1208.79,-422.26 1229,-396 1297.3,-307.24 1283.08,-242.08 1229,-144 1220.37,-128.35 1204.96,-116.68 1189.67,-108.34"/>
<polygon fill="#1414ce" stroke="#1414ce" points="1191.23,-105.21 1180.73,-103.81 1188.07,-111.45 1191.23,-105.21"/>
</a>
</g>
</g>
<!-- 10 -->
<g id="node4" class="node">
<title>10</title>
<g id="a_node4"><a xlink:title="assert.h">
<polygon fill="#ffffff" stroke="black" points="906,-36 832,-36 832,0 906,0 906,-36"/>
<text text-anchor="middle" x="869" y="-14.3" font-family="Times,serif" font-size="14.00">assert.h</text>
</a>
</g>
</g>
<!-- 22 -->
<g id="node5" class="node">
<title>22</title>
<g id="a_node5"><a xlink:title="utils.h">
<polygon fill="#ffffff" stroke="black" points="984,-180 922,-180 922,-144 984,-144 984,-180"/>
<text text-anchor="middle" x="953" y="-158.3" font-family="Times,serif" font-size="14.00">utils.h</text>
</a>
</g>
</g>
<!-- 22&#45;&gt;5 -->
<g id="edge9" class="edge">
<title>22&#45;&gt;5</title>
<g id="a_edge9"><a xlink:title="include">
<path fill="none" stroke="#1414ce" d="M984.28,-149.6C1015.65,-138.16 1064.28,-120.43 1099.84,-107.46"/>
<polygon fill="#1414ce" stroke="#1414ce" points="1101.3,-110.66 1109.5,-103.94 1098.9,-104.08 1101.3,-110.66"/>
</a>
</g>
</g>
<!-- 23 -->
<g id="node17" class="node">
<title>23</title>
<g id="a_node17"><a xlink:title="stddef.h">
<polygon fill="#ffffff" stroke="black" points="924,-108 850,-108 850,-72 924,-72 924,-108"/>
<text text-anchor="middle" x="887" y="-86.3" font-family="Times,serif" font-size="14.00">stddef.h</text>
</a>
</g>
</g>
<!-- 22&#45;&gt;23 -->
<g id="edge7" class="edge">
<title>22&#45;&gt;23</title>
<g id="a_edge7"><a xlink:title="include">
<path fill="none" stroke="#1414ce" d="M936.69,-143.7C928.69,-135.22 918.93,-124.86 910.18,-115.58"/>
<polygon fill="#1414ce" stroke="#1414ce" points="912.53,-112.98 903.13,-108.1 907.44,-117.78 912.53,-112.98"/>
</a>
</g>
</g>
<!-- 16 -->
<g id="node31" class="node">
<title>16</title>
<g id="a_node31"><a xlink:title="stdio.h">
<polygon fill="#ffffff" stroke="black" points="1007.5,-108 942.5,-108 942.5,-72 1007.5,-72 1007.5,-108"/>
<text text-anchor="middle" x="975" y="-86.3" font-family="Times,serif" font-size="14.00">stdio.h</text>
</a>
</g>
</g>
<!-- 22&#45;&gt;16 -->
<g id="edge8" class="edge">
<title>22&#45;&gt;16</title>
<g id="a_edge8"><a xlink:title="include">
<path fill="none" stroke="#1414ce" d="M958.44,-143.7C960.89,-135.9 963.84,-126.51 966.57,-117.83"/>
<polygon fill="#1414ce" stroke="#1414ce" points="969.96,-118.69 969.62,-108.1 963.29,-116.59 969.96,-118.69"/>
</a>
</g>
</g>
<!-- 15 -->
<g id="node6" class="node">
<title>15</title>
<g id="a_node6"><a xlink:title="synclist.h">
<polygon fill="#ffffff" stroke="black" points="303.5,-252 218.5,-252 218.5,-216 303.5,-216 303.5,-252"/>
<text text-anchor="middle" x="261" y="-230.3" font-family="Times,serif" font-size="14.00">synclist.h</text>
</a>
</g>
</g>
<!-- 15&#45;&gt;14 -->
<g id="edge11" class="edge">
<title>15&#45;&gt;14</title>
<g id="a_edge11"><a xlink:title="include">
<path fill="none" stroke="#1414ce" d="M287.66,-215.88C301.78,-206.81 319.31,-195.55 334.56,-185.76"/>
<polygon fill="#1414ce" stroke="#1414ce" points="336.71,-188.54 343.23,-180.19 332.93,-182.65 336.71,-188.54"/>
</a>
</g>
</g>
<!-- 17 -->
<g id="node26" class="node">
<title>17</title>
<g id="a_node26"><a xlink:title="smp.h">
<polygon fill="#ffffff" stroke="black" points="215,-180 155,-180 155,-144 215,-144 215,-180"/>
<text text-anchor="middle" x="185" y="-158.3" font-family="Times,serif" font-size="14.00">smp.h</text>
</a>
</g>
</g>
<!-- 15&#45;&gt;17 -->
<g id="edge12" class="edge">
<title>15&#45;&gt;17</title>
<g id="a_edge12"><a xlink:title="include">
<path fill="none" stroke="#1414ce" d="M242.21,-215.7C232.83,-207.05 221.32,-196.45 211.09,-187.03"/>
<polygon fill="#1414ce" stroke="#1414ce" points="213.3,-184.3 203.57,-180.1 208.55,-189.45 213.3,-184.3"/>
</a>
</g>
</g>
<!-- 15&#45;&gt;16 -->
<g id="edge10" class="edge">
<title>15&#45;&gt;16</title>
<g id="a_edge10"><a xlink:title="include">
<path fill="none" stroke="#1414ce" d="M269.33,-215.96C280.69,-194.84 303.21,-159.72 334,-144 449.99,-84.8 786.64,-134.93 932.17,-107.51"/>
<polygon fill="#1414ce" stroke="#1414ce" points="933.23,-110.87 942.31,-105.4 931.81,-104.01 933.23,-110.87"/>
</a>
</g>
</g>
<!-- 14&#45;&gt;7 -->
<g id="edge13" class="edge">
<title>14&#45;&gt;7</title>
<g id="a_edge13"><a xlink:title="include">
<path fill="none" stroke="#1414ce" d="M397.11,-151.27C427.18,-140.47 476.37,-122.81 513.76,-109.39"/>
<polygon fill="#1414ce" stroke="#1414ce" points="515.24,-112.58 523.47,-105.91 512.88,-105.99 515.24,-112.58"/>
</a>
</g>
</g>
<!-- 30 -->
<g id="node10" class="node">
<title>30</title>
<g id="a_node10"><a xlink:title="context.h">
<polygon fill="#ffffff" stroke="black" points="719.5,-684 636.5,-684 636.5,-648 719.5,-648 719.5,-684"/>
<text text-anchor="middle" x="678" y="-662.3" font-family="Times,serif" font-size="14.00">context.h</text>
</a>
</g>
</g>
<!-- 30&#45;&gt;14 -->
<g id="edge15" class="edge">
<title>30&#45;&gt;14</title>
<g id="a_edge15"><a xlink:title="include">
<path fill="none" stroke="#1414ce" d="M645.71,-647.88C630.14,-638.61 611.87,-626.16 598,-612 465.46,-476.71 422.75,-433.89 370,-252 364.16,-231.87 364.51,-208.09 366.13,-190.18"/>
<polygon fill="#1414ce" stroke="#1414ce" points="369.62,-190.45 367.22,-180.13 362.66,-189.69 369.62,-190.45"/>
</a>
</g>
</g>
<!-- 18 -->
<g id="node16" class="node">
<title>18</title>
<g id="a_node16"><a xlink:title="term.h">
<polygon fill="#ffffff" stroke="black" points="926.5,-468 861.5,-468 861.5,-432 926.5,-432 926.5,-468"/>
<text text-anchor="middle" x="894" y="-446.3" font-family="Times,serif" font-size="14.00">term.h</text>
</a>
</g>
</g>
<!-- 30&#45;&gt;18 -->
<g id="edge18" class="edge">
<title>30&#45;&gt;18</title>
<g id="a_edge18"><a xlink:title="include">
<path fill="none" stroke="#1414ce" d="M695.02,-647.69C712.94,-629.58 742.11,-600.43 768,-576 785.4,-559.59 790.79,-556.61 808,-540 830.05,-518.72 854.22,-493.52 871.31,-475.38"/>
<polygon fill="#1414ce" stroke="#1414ce" points="873.88,-477.76 878.17,-468.07 868.78,-472.97 873.88,-477.76"/>
</a>
</g>
</g>
<!-- 2 -->
<g id="node25" class="node">
<title>2</title>
<g id="a_node25"><a xlink:title="globalcontext.h">
<polygon fill="#ffffff" stroke="black" points="477.5,-612 350.5,-612 350.5,-576 477.5,-576 477.5,-612"/>
<text text-anchor="middle" x="414" y="-590.3" font-family="Times,serif" font-size="14.00">globalcontext.h</text>
</a>
</g>
</g>
<!-- 30&#45;&gt;2 -->
<g id="edge14" class="edge">
<title>30&#45;&gt;2</title>
<g id="a_edge14"><a xlink:title="include">
<path fill="none" stroke="#1414ce" d="M636.47,-652.16C631.6,-650.73 626.7,-649.31 622,-648 577.66,-635.63 527.68,-622.85 487.83,-612.95"/>
<polygon fill="#1414ce" stroke="#1414ce" points="488.47,-609.5 477.92,-610.49 486.79,-616.3 488.47,-609.5"/>
</a>
</g>
</g>
<!-- 30&#45;&gt;17 -->
<g id="edge17" class="edge">
<title>30&#45;&gt;17</title>
<g id="a_edge17"><a xlink:title="include">
<path fill="none" stroke="#1414ce" d="M636.41,-656.66C621.49,-653.77 604.51,-650.61 589,-648 473.29,-628.56 76,-640.34 76,-523 76,-523 76,-523 76,-305 76,-254.93 119.17,-211.64 151.17,-186.43"/>
<polygon fill="#1414ce" stroke="#1414ce" points="153.62,-188.96 159.44,-180.11 149.37,-183.4 153.62,-188.96"/>
</a>
</g>
</g>
<!-- 27 -->
<g id="node29" class="node">
<title>27</title>
<g id="a_node29"><a xlink:title="timer_list.h">
<polygon fill="#ffffff" stroke="black" points="534,-252 436,-252 436,-216 534,-216 534,-252"/>
<text text-anchor="middle" x="485" y="-230.3" font-family="Times,serif" font-size="14.00">timer_list.h</text>
</a>
</g>
</g>
<!-- 30&#45;&gt;27 -->
<g id="edge19" class="edge">
<title>30&#45;&gt;27</title>
<g id="a_edge19"><a xlink:title="include">
<path fill="none" stroke="#1414ce" d="M670.32,-647.88C640.6,-581.67 533.07,-342.11 496.94,-261.6"/>
<polygon fill="#1414ce" stroke="#1414ce" points="499.99,-259.86 492.71,-252.17 493.61,-262.73 499.99,-259.86"/>
</a>
</g>
</g>
<!-- 26 -->
<g id="node30" class="node">
<title>26</title>
<g id="a_node30"><a xlink:title="mailbox.h">
<polygon fill="#ffffff" stroke="black" points="676,-252 590,-252 590,-216 676,-216 676,-252"/>
<text text-anchor="middle" x="633" y="-230.3" font-family="Times,serif" font-size="14.00">mailbox.h</text>
</a>
</g>
</g>
<!-- 30&#45;&gt;26 -->
<g id="edge16" class="edge">
<title>30&#45;&gt;26</title>
<g id="a_edge16"><a xlink:title="include">
<path fill="none" stroke="#1414ce" d="M657.12,-647.63C629.98,-622.97 586,-574.99 586,-523 586,-523 586,-523 586,-377 586,-334.96 604.8,-289.29 618.62,-261.41"/>
<polygon fill="#1414ce" stroke="#1414ce" points="621.83,-262.82 623.26,-252.32 615.6,-259.63 621.83,-262.82"/>
</a>
</g>
</g>
<!-- 21 -->
<g id="node11" class="node">
<title>21</title>
<g id="a_node11"><a xlink:title="memory.h">
<polygon fill="#ffffff" stroke="black" points="970,-252 884,-252 884,-216 970,-216 970,-252"/>
<text text-anchor="middle" x="927" y="-230.3" font-family="Times,serif" font-size="14.00">memory.h</text>
</a>
</g>
</g>
<!-- 21&#45;&gt;22 -->
<g id="edge24" class="edge">
<title>21&#45;&gt;22</title>
<g id="a_edge24"><a xlink:title="include">
<path fill="none" stroke="#1414ce" d="M933.43,-215.7C936.36,-207.81 939.89,-198.3 943.14,-189.55"/>
<polygon fill="#1414ce" stroke="#1414ce" points="946.45,-190.7 946.65,-180.1 939.88,-188.26 946.45,-190.7"/>
</a>
</g>
</g>
<!-- 21&#45;&gt;3 -->
<g id="edge20" class="edge">
<title>21&#45;&gt;3</title>
<g id="a_edge20"><a xlink:title="include">
<path fill="none" stroke="#1414ce" d="M950.01,-215.91C963.03,-205.9 979.38,-192.76 993,-180 1008.84,-165.16 1010.83,-159.52 1026,-144 1058.29,-110.95 1066.76,-103.03 1101,-72 1111.79,-62.23 1123.91,-51.76 1134.55,-42.72"/>
<polygon fill="#1414ce" stroke="#1414ce" points="1136.98,-45.26 1142.36,-36.13 1132.46,-39.91 1136.98,-45.26"/>
</a>
</g>
</g>
<!-- 21&#45;&gt;5 -->
<g id="edge21" class="edge">
<title>21&#45;&gt;5</title>
<g id="a_edge21"><a xlink:title="include">
<path fill="none" stroke="#1414ce" d="M962.09,-215.85C981.36,-206.03 1005.44,-193.09 1026,-180 1058.12,-159.55 1092.76,-133.1 1116.34,-114.36"/>
<polygon fill="#1414ce" stroke="#1414ce" points="1118.57,-117.06 1124.19,-108.08 1114.2,-111.59 1118.57,-117.06"/>
</a>
</g>
</g>
<!-- 8 -->
<g id="node18" class="node">
<title>8</title>
<g id="a_node18"><a xlink:title="erl_nif.h">
<polygon fill="#ffffff" stroke="black" points="828,-180 754,-180 754,-144 828,-144 828,-180"/>
<text text-anchor="middle" x="791" y="-158.3" font-family="Times,serif" font-size="14.00">erl_nif.h</text>
</a>
</g>
</g>
<!-- 21&#45;&gt;8 -->
<g id="edge22" class="edge">
<title>21&#45;&gt;8</title>
<g id="a_edge22"><a xlink:title="include">
<path fill="none" stroke="#1414ce" d="M893.73,-215.88C875.54,-206.51 852.81,-194.81 833.36,-184.8"/>
<polygon fill="#1414ce" stroke="#1414ce" points="834.89,-181.65 824.4,-180.19 831.69,-187.88 834.89,-181.65"/>
</a>
</g>
</g>
<!-- 9 -->
<g id="node24" class="node">
<title>9</title>
<g id="a_node24"><a xlink:title="term_typedef.h">
<polygon fill="#ffffff" stroke="black" points="831.5,-108 706.5,-108 706.5,-72 831.5,-72 831.5,-108"/>
<text text-anchor="middle" x="769" y="-86.3" font-family="Times,serif" font-size="14.00">term_typedef.h</text>
</a>
</g>
</g>
<!-- 21&#45;&gt;9 -->
<g id="edge23" class="edge">
<title>21&#45;&gt;9</title>
<g id="a_edge23"><a xlink:title="include">
<path fill="none" stroke="#1414ce" d="M919.31,-215.72C909.96,-196.28 892.58,-164.71 870,-144 856.15,-131.29 838.68,-120.73 822.19,-112.45"/>
<polygon fill="#1414ce" stroke="#1414ce" points="823.68,-109.29 813.15,-108.1 820.64,-115.59 823.68,-109.29"/>
</a>
</g>
</g>
<!-- 1 -->
<g id="node12" class="node">
<title>1</title>
<g id="a_node12"><a xlink:title="/__w/AtomVM/AtomVM/src/libAtomVM/sys.h">
<polygon fill="#bfbfbf" stroke="black" points="1288,-828 958,-828 958,-792 1288,-792 1288,-828"/>
<text text-anchor="middle" x="1123" y="-806.3" font-family="Times,serif" font-size="14.00">/__w/AtomVM/AtomVM/src/libAtomVM/sys.h</text>
</a>
</g>
</g>
<!-- 1&#45;&gt;3 -->
<g id="edge27" class="edge">
<title>1&#45;&gt;3</title>
<g id="a_edge27"><a xlink:title="include">
<path fill="none" stroke="#1414ce" d="M1258.63,-791.96C1330.87,-774.44 1405,-738.94 1405,-667 1405,-667 1405,-667 1405,-161 1405,-116.06 1392.19,-99.96 1357,-72 1314.45,-38.19 1251.91,-25.9 1209.43,-21.46"/>
<polygon fill="#1414ce" stroke="#1414ce" points="1209.64,-17.96 1199.36,-20.52 1208.99,-24.93 1209.64,-17.96"/>
</a>
</g>
</g>
<!-- 28 -->
<g id="node13" class="node">
<title>28</title>
<g id="a_node13"><a xlink:title="module.h">
<polygon fill="#ffffff" stroke="black" points="894.5,-756 811.5,-756 811.5,-720 894.5,-720 894.5,-756"/>
<text text-anchor="middle" x="853" y="-734.3" font-family="Times,serif" font-size="14.00">module.h</text>
</a>
</g>
</g>
<!-- 1&#45;&gt;28 -->
<g id="edge26" class="edge">
<title>1&#45;&gt;28</title>
<g id="a_edge26"><a xlink:title="include">
<path fill="none" stroke="#1414ce" d="M1057.3,-791.97C1010.23,-779.76 947.75,-763.56 904.33,-752.31"/>
<polygon fill="#1414ce" stroke="#1414ce" points="905.11,-748.89 894.55,-749.77 903.35,-755.67 905.11,-748.89"/>
</a>
</g>
</g>
<!-- 1&#45;&gt;2 -->
<g id="edge25" class="edge">
<title>1&#45;&gt;2</title>
<g id="a_edge25"><a xlink:title="include">
<path fill="none" stroke="#1414ce" d="M957.73,-801.63C774.61,-789.77 495.73,-759.54 425,-684 409.83,-667.79 408.14,-642.03 409.63,-622.38"/>
<polygon fill="#1414ce" stroke="#1414ce" points="413.14,-622.51 410.72,-612.2 406.18,-621.77 413.14,-622.51"/>
</a>
</g>
</g>
<!-- 33 -->
<g id="node28" class="node">
<title>33</title>
<g id="a_node28"><a xlink:title="time.h">
<polygon fill="#ffffff" stroke="black" points="1495,-756 1433,-756 1433,-720 1495,-720 1495,-756"/>
<text text-anchor="middle" x="1464" y="-734.3" font-family="Times,serif" font-size="14.00">time.h</text>
</a>
</g>
</g>
<!-- 1&#45;&gt;33 -->
<g id="edge28" class="edge">
<title>1&#45;&gt;33</title>
<g id="a_edge28"><a xlink:title="include">
<path fill="none" stroke="#1414ce" d="M1247.27,-791.97C1300.64,-783.31 1363.39,-771.34 1419,-756 1420.41,-755.61 1421.84,-755.2 1423.27,-754.76"/>
<polygon fill="#1414ce" stroke="#1414ce" points="1424.37,-758.08 1432.77,-751.64 1422.18,-751.43 1424.37,-758.08"/>
</a>
</g>
</g>
<!-- 28&#45;&gt;7 -->
<g id="edge29" class="edge">
<title>28&#45;&gt;7</title>
<g id="a_edge29"><a xlink:title="include">
<path fill="none" stroke="#1414ce" d="M811.28,-734.52C640.02,-723.82 0,-678.23 0,-595 0,-595 0,-595 0,-233 0,-127.67 374.02,-99.74 513.44,-92.98"/>
<polygon fill="#1414ce" stroke="#1414ce" points="513.63,-96.48 523.45,-92.51 513.3,-89.49 513.63,-96.48"/>
</a>
</g>
</g>
<!-- 28&#45;&gt;4 -->
<g id="edge31" class="edge">
<title>28&#45;&gt;4</title>
<g id="a_edge31"><a xlink:title="include">
<path fill="none" stroke="#1414ce" d="M883.19,-719.84C897.32,-710.64 913.51,-698.26 925,-684 977.2,-619.19 1008.79,-524.02 1021.91,-477.96"/>
<polygon fill="#1414ce" stroke="#1414ce" points="1025.34,-478.69 1024.64,-468.12 1018.6,-476.82 1025.34,-478.69"/>
</a>
</g>
</g>
<!-- 28&#45;&gt;3 -->
<g id="edge30" class="edge">
<title>28&#45;&gt;3</title>
<g id="a_edge30"><a xlink:title="include">
<path fill="none" stroke="#1414ce" d="M894.63,-734.46C1016.99,-725.88 1367,-692.79 1367,-595 1367,-595 1367,-595 1367,-161 1367,-117.99 1360.82,-100.94 1329,-72 1295.86,-41.85 1245.52,-28.85 1208.96,-23.24"/>
<polygon fill="#1414ce" stroke="#1414ce" points="1209.43,-19.78 1199.04,-21.85 1208.46,-26.71 1209.43,-19.78"/>
</a>
</g>
</g>
<!-- 28&#45;&gt;30 -->
<g id="edge34" class="edge">
<title>28&#45;&gt;30</title>
<g id="a_edge34"><a xlink:title="include">
<path fill="none" stroke="#1414ce" d="M811.08,-720.23C786.41,-710.36 755.02,-697.81 728.93,-687.37"/>
<polygon fill="#1414ce" stroke="#1414ce" points="730.16,-684.09 719.57,-683.63 727.56,-690.59 730.16,-684.09"/>
</a>
</g>
</g>
<!-- 32 -->
<g id="node14" class="node">
<title>32</title>
<g id="a_node14"><a xlink:title="valueshashtable.h">
<polygon fill="#ffffff" stroke="black" points="580,-684 434,-684 434,-648 580,-648 580,-684"/>
<text text-anchor="middle" x="507" y="-662.3" font-family="Times,serif" font-size="14.00">valueshashtable.h</text>
</a>
</g>
</g>
<!-- 28&#45;&gt;32 -->
<g id="edge38" class="edge">
<title>28&#45;&gt;32</title>
<g id="a_edge38"><a xlink:title="include">
<path fill="none" stroke="#1414ce" d="M811.26,-728.56C756.79,-717.53 660.18,-697.99 590.42,-683.88"/>
<polygon fill="#1414ce" stroke="#1414ce" points="590.82,-680.39 580.33,-681.84 589.44,-687.25 590.82,-680.39"/>
</a>
</g>
</g>
<!-- 28&#45;&gt;18 -->
<g id="edge37" class="edge">
<title>28&#45;&gt;18</title>
<g id="a_edge37"><a xlink:title="include">
<path fill="none" stroke="#1414ce" d="M869.8,-719.79C890.52,-697.22 924.64,-655.39 938,-612 952.59,-564.61 928.02,-508.64 910.12,-476.74"/>
<polygon fill="#1414ce" stroke="#1414ce" points="913.11,-474.91 905.06,-468.02 907.05,-478.43 913.11,-474.91"/>
</a>
</g>
</g>
<!-- 31 -->
<g id="node19" class="node">
<title>31</title>
<g id="a_node19"><a xlink:title="exportedfunction.h">
<polygon fill="#ffffff" stroke="black" points="929,-612 777,-612 777,-576 929,-576 929,-612"/>
<text text-anchor="middle" x="853" y="-590.3" font-family="Times,serif" font-size="14.00">exportedfunction.h</text>
</a>
</g>
</g>
<!-- 28&#45;&gt;31 -->
<g id="edge35" class="edge">
<title>28&#45;&gt;31</title>
<g id="a_edge35"><a xlink:title="include">
<path fill="none" stroke="#1414ce" d="M853,-719.87C853,-695.67 853,-651.21 853,-622.39"/>
<polygon fill="#1414ce" stroke="#1414ce" points="856.5,-622.19 853,-612.19 849.5,-622.19 856.5,-622.19"/>
</a>
</g>
</g>
<!-- 6 -->
<g id="node21" class="node">
<title>6</title>
<g id="a_node21"><a xlink:title="atom_table.h">
<polygon fill="#ffffff" stroke="black" points="799.5,-540 690.5,-540 690.5,-504 799.5,-504 799.5,-540"/>
<text text-anchor="middle" x="745" y="-518.3" font-family="Times,serif" font-size="14.00">atom_table.h</text>
</a>
</g>
</g>
<!-- 28&#45;&gt;6 -->
<g id="edge32" class="edge">
<title>28&#45;&gt;6</title>
<g id="a_edge32"><a xlink:title="include">
<path fill="none" stroke="#1414ce" d="M838.54,-719.94C819.7,-696.89 786.94,-653.84 768,-612 759.03,-592.19 753.1,-568.25 749.5,-550.2"/>
<polygon fill="#1414ce" stroke="#1414ce" points="752.93,-549.51 747.65,-540.32 746.05,-550.79 752.93,-549.51"/>
</a>
</g>
</g>
<!-- 28&#45;&gt;2 -->
<g id="edge36" class="edge">
<title>28&#45;&gt;2</title>
<g id="a_edge36"><a xlink:title="include">
<path fill="none" stroke="#1414ce" d="M811.1,-733.77C763.9,-728.68 686.07,-715.84 627,-684 606.52,-672.96 609.12,-659.69 589,-648 571.31,-637.73 527.08,-624.36 487.52,-613.63"/>
<polygon fill="#1414ce" stroke="#1414ce" points="488.41,-610.24 477.84,-611.03 486.59,-617 488.41,-610.24"/>
</a>
</g>
</g>
<!-- 29 -->
<g id="node27" class="node">
<title>29</title>
<g id="a_node27"><a xlink:title="atomshashtable.h">
<polygon fill="#ffffff" stroke="black" points="1166.5,-612 1023.5,-612 1023.5,-576 1166.5,-576 1166.5,-612"/>
<text text-anchor="middle" x="1095" y="-590.3" font-family="Times,serif" font-size="14.00">atomshashtable.h</text>
</a>
</g>
</g>
<!-- 28&#45;&gt;29 -->
<g id="edge33" class="edge">
<title>28&#45;&gt;29</title>
<g id="a_edge33"><a xlink:title="include">
<path fill="none" stroke="#1414ce" d="M894.78,-728.52C927.64,-720.55 973.61,-706.44 1009,-684 1035.83,-666.99 1060.36,-639.93 1076.3,-620.11"/>
<polygon fill="#1414ce" stroke="#1414ce" points="1079.16,-622.14 1082.58,-612.11 1073.65,-617.82 1079.16,-622.14"/>
</a>
</g>
</g>
<!-- 25&#45;&gt;15 -->
<g id="edge44" class="edge">
<title>25&#45;&gt;15</title>
<g id="a_edge44"><a xlink:title="include">
<path fill="none" stroke="#1414ce" d="M689.64,-297.64C598.43,-284.31 406.7,-256.29 313.75,-242.71"/>
<polygon fill="#1414ce" stroke="#1414ce" points="314.13,-239.23 303.73,-241.24 313.12,-246.15 314.13,-239.23"/>
</a>
</g>
</g>
<!-- 25&#45;&gt;14 -->
<g id="edge41" class="edge">
<title>25&#45;&gt;14</title>
<g id="a_edge41"><a xlink:title="include">
<path fill="none" stroke="#1414ce" d="M689.69,-301.42C612.48,-295.12 469.29,-279.98 427,-252 404.51,-237.12 389.06,-210 379.97,-189.59"/>
<polygon fill="#1414ce" stroke="#1414ce" points="383.13,-188.06 376.02,-180.19 376.67,-190.77 383.13,-188.06"/>
</a>
</g>
</g>
<!-- 25&#45;&gt;5 -->
<g id="edge39" class="edge">
<title>25&#45;&gt;5</title>
<g id="a_edge39"><a xlink:title="include">
<path fill="none" stroke="#1414ce" d="M790.32,-300.78C840.31,-295.02 918.1,-281.78 979,-252 1044.11,-220.16 1099.94,-153.16 1127.2,-116.43"/>
<polygon fill="#1414ce" stroke="#1414ce" points="1130.13,-118.35 1133.2,-108.21 1124.47,-114.23 1130.13,-118.35"/>
</a>
</g>
</g>
<!-- 25&#45;&gt;21 -->
<g id="edge43" class="edge">
<title>25&#45;&gt;21</title>
<g id="a_edge43"><a xlink:title="include">
<path fill="none" stroke="#1414ce" d="M785.75,-287.88C812.54,-277.85 846.48,-265.14 874.38,-254.7"/>
<polygon fill="#1414ce" stroke="#1414ce" points="875.83,-257.89 883.97,-251.11 873.38,-251.33 875.83,-257.89"/>
</a>
</g>
</g>
<!-- 25&#45;&gt;8 -->
<g id="edge40" class="edge">
<title>25&#45;&gt;8</title>
<g id="a_edge40"><a xlink:title="include">
<path fill="none" stroke="#1414ce" d="M746.15,-287.87C754.92,-263.46 771.09,-218.43 781.43,-189.64"/>
<polygon fill="#1414ce" stroke="#1414ce" points="784.74,-190.78 784.83,-180.19 778.15,-188.42 784.74,-190.78"/>
</a>
</g>
</g>
<!-- 25&#45;&gt;26 -->
<g id="edge42" class="edge">
<title>25&#45;&gt;26</title>
<g id="a_edge42"><a xlink:title="include">
<path fill="none" stroke="#1414ce" d="M713.82,-287.88C699.96,-278.81 682.76,-267.55 667.79,-257.76"/>
<polygon fill="#1414ce" stroke="#1414ce" points="669.56,-254.74 659.28,-252.19 665.73,-260.59 669.56,-254.74"/>
</a>
</g>
</g>
<!-- 18&#45;&gt;7 -->
<g id="edge46" class="edge">
<title>18&#45;&gt;7</title>
<g id="a_edge46"><a xlink:title="include">
<path fill="none" stroke="#1414ce" d="M882.73,-431.97C875.99,-421.65 867.33,-408.17 860,-396 790.28,-280.28 796.57,-227.04 690,-144 668.27,-127.06 640.32,-114.54 616.36,-105.94"/>
<polygon fill="#1414ce" stroke="#1414ce" points="617.31,-102.56 606.71,-102.6 615.02,-109.18 617.31,-102.56"/>
</a>
</g>
</g>
<!-- 18&#45;&gt;24 -->
<g id="edge52" class="edge">
<title>18&#45;&gt;24</title>
<g id="a_edge52"><a xlink:title="include">
<path fill="none" stroke="#1414ce" d="M861.26,-434.5C838.9,-424.59 808.9,-411.3 783.87,-400.21"/>
<polygon fill="#1414ce" stroke="#1414ce" points="785.11,-396.93 774.55,-396.08 782.27,-403.33 785.11,-396.93"/>
</a>
</g>
</g>
<!-- 18&#45;&gt;22 -->
<g id="edge53" class="edge">
<title>18&#45;&gt;22</title>
<g id="a_edge53"><a xlink:title="include">
<path fill="none" stroke="#1414ce" d="M904.31,-431.88C923.65,-398.65 964.69,-322.45 979,-252 982.18,-236.32 982.62,-231.59 979,-216 976.9,-206.96 973.03,-197.68 968.91,-189.47"/>
<polygon fill="#1414ce" stroke="#1414ce" points="971.86,-187.55 964.05,-180.39 965.69,-190.86 971.86,-187.55"/>
</a>
</g>
</g>
<!-- 18&#45;&gt;3 -->
<g id="edge47" class="edge">
<title>18&#45;&gt;3</title>
<g id="a_edge47"><a xlink:title="include">
<path fill="none" stroke="#1414ce" d="M926.67,-442.81C944.49,-439.49 966.93,-435.39 987,-432 1038.44,-423.31 1182.4,-433.18 1219,-396 1314.75,-298.71 1219.82,-113.4 1179.34,-45.11"/>
<polygon fill="#1414ce" stroke="#1414ce" points="1182.18,-43.03 1174.02,-36.28 1176.18,-46.65 1182.18,-43.03"/>
</a>
</g>
</g>
<!-- 18&#45;&gt;5 -->
<g id="edge49" class="edge">
<title>18&#45;&gt;5</title>
<g id="a_edge49"><a xlink:title="include">
<path fill="none" stroke="#1414ce" d="M926.7,-442.94C944.51,-439.66 966.96,-435.56 987,-432 1033.4,-423.76 1162.02,-428.66 1196,-396 1225.16,-367.97 1215,-347.45 1215,-307 1215,-307 1215,-307 1215,-233 1215,-188.36 1186.82,-143.2 1166.22,-116.16"/>
<polygon fill="#1414ce" stroke="#1414ce" points="1168.77,-113.74 1159.85,-108.03 1163.27,-118.06 1168.77,-113.74"/>
</a>
</g>
</g>
<!-- 18&#45;&gt;21 -->
<g id="edge51" class="edge">
<title>18&#45;&gt;21</title>
<g id="a_edge51"><a xlink:title="include">
<path fill="none" stroke="#1414ce" d="M896.64,-431.85C902.35,-394.83 915.87,-307.18 922.78,-262.39"/>
<polygon fill="#1414ce" stroke="#1414ce" points="926.28,-262.65 924.34,-252.23 919.36,-261.58 926.28,-262.65"/>
</a>
</g>
</g>
<!-- 19 -->
<g id="node22" class="node">
<title>19</title>
<g id="a_node22"><a xlink:title="sys/types.h">
<polygon fill="#ffffff" stroke="black" points="1095.5,-396 998.5,-396 998.5,-360 1095.5,-360 1095.5,-396"/>
<text text-anchor="middle" x="1047" y="-374.3" font-family="Times,serif" font-size="14.00">sys/types.h</text>
</a>
</g>
</g>
<!-- 18&#45;&gt;19 -->
<g id="edge45" class="edge">
<title>18&#45;&gt;19</title>
<g id="a_edge45"><a xlink:title="include">
<path fill="none" stroke="#1414ce" d="M926.82,-433.98C948.29,-424.16 976.67,-411.18 1000.46,-400.29"/>
<polygon fill="#1414ce" stroke="#1414ce" points="1002.02,-403.43 1009.66,-396.08 999.11,-397.06 1002.02,-403.43"/>
</a>
</g>
</g>
<!-- 20 -->
<g id="node23" class="node">
<title>20</title>
<g id="a_node23"><a xlink:title="string.h">
<polygon fill="#ffffff" stroke="black" points="1186.5,-396 1113.5,-396 1113.5,-360 1186.5,-360 1186.5,-396"/>
<text text-anchor="middle" x="1150" y="-374.3" font-family="Times,serif" font-size="14.00">string.h</text>
</a>
</g>
</g>
<!-- 18&#45;&gt;20 -->
<g id="edge50" class="edge">
<title>18&#45;&gt;20</title>
<g id="a_edge50"><a xlink:title="include">
<path fill="none" stroke="#1414ce" d="M926.68,-441.89C966.37,-433.01 1035.48,-416.75 1103.83,-395.88"/>
<polygon fill="#1414ce" stroke="#1414ce" points="1104.94,-399.2 1113.46,-392.9 1102.87,-392.51 1104.94,-399.2"/>
</a>
</g>
</g>
<!-- 18&#45;&gt;9 -->
<g id="edge54" class="edge">
<title>18&#45;&gt;9</title>
<g id="a_edge54"><a xlink:title="include">
<path fill="none" stroke="#1414ce" d="M886.31,-431.91C875.21,-405.62 856,-353.45 856,-307 856,-307 856,-307 856,-233 856,-192.55 858.47,-178.28 837,-144 829.66,-132.27 818.75,-122.11 807.81,-113.9"/>
<polygon fill="#1414ce" stroke="#1414ce" points="809.68,-110.94 799.5,-108.01 805.64,-116.65 809.68,-110.94"/>
</a>
</g>
</g>
<!-- 18&#45;&gt;16 -->
<g id="edge48" class="edge">
<title>18&#45;&gt;16</title>
<g id="a_edge48"><a xlink:title="include">
<path fill="none" stroke="#1414ce" d="M914.52,-431.91C925.22,-422.21 937.94,-409.35 947,-396 984.87,-340.17 987.2,-319.01 995,-252 997.31,-232.17 994.51,-152.41 993,-144 991.44,-135.3 988.71,-126.08 985.85,-117.82"/>
<polygon fill="#1414ce" stroke="#1414ce" points="989.09,-116.5 982.35,-108.32 982.52,-118.91 989.09,-116.5"/>
</a>
</g>
</g>
<!-- 8&#45;&gt;9 -->
<g id="edge55" class="edge">
<title>8&#45;&gt;9</title>
<g id="a_edge55"><a xlink:title="include">
<path fill="none" stroke="#1414ce" d="M785.56,-143.7C783.11,-135.9 780.16,-126.51 777.43,-117.83"/>
<polygon fill="#1414ce" stroke="#1414ce" points="780.71,-116.59 774.38,-108.1 774.04,-118.69 780.71,-116.59"/>
</a>
</g>
</g>
<!-- 31&#45;&gt;18 -->
<g id="edge56" class="edge">
<title>31&#45;&gt;18</title>
<g id="a_edge56"><a xlink:title="include">
<path fill="none" stroke="#1414ce" d="M857.95,-575.87C864.96,-551.56 877.88,-506.82 886.2,-478.01"/>
<polygon fill="#1414ce" stroke="#1414ce" points="889.63,-478.77 889.04,-468.19 882.9,-476.83 889.63,-478.77"/>
</a>
</g>
</g>
<!-- 11 -->
<g id="node20" class="node">
<title>11</title>
<g id="a_node20"><a xlink:title="limits.h">
<polygon fill="#ffffff" stroke="black" points="706.5,-36 635.5,-36 635.5,0 706.5,0 706.5,-36"/>
<text text-anchor="middle" x="671" y="-14.3" font-family="Times,serif" font-size="14.00">limits.h</text>
</a>
</g>
</g>
<!-- 6&#45;&gt;7 -->
<g id="edge57" class="edge">
<title>6&#45;&gt;7</title>
<g id="a_edge57"><a xlink:title="include">
<path fill="none" stroke="#1414ce" d="M731.04,-503.7C713.47,-480.72 684.26,-438.1 673,-396 660.6,-349.63 665.31,-335.38 673,-288 675.7,-271.35 682.3,-268.65 685,-252 687.56,-236.21 690.97,-230.84 685,-216 682.46,-209.69 623.64,-149.93 589.31,-115.37"/>
<polygon fill="#1414ce" stroke="#1414ce" points="591.51,-112.62 581.98,-108 586.55,-117.56 591.51,-112.62"/>
</a>
</g>
</g>
<!-- 6&#45;&gt;4 -->
<g id="edge58" class="edge">
<title>6&#45;&gt;4</title>
<g id="a_edge58"><a xlink:title="include">
<path fill="none" stroke="#1414ce" d="M799.76,-507.5C854.04,-494.12 936.11,-473.9 985.91,-461.62"/>
<polygon fill="#1414ce" stroke="#1414ce" points="986.85,-464.99 995.73,-459.2 985.18,-458.2 986.85,-464.99"/>
</a>
</g>
</g>
<!-- 9&#45;&gt;10 -->
<g id="edge59" class="edge">
<title>9&#45;&gt;10</title>
<g id="a_edge59"><a xlink:title="include">
<path fill="none" stroke="#1414ce" d="M793.46,-71.88C806.3,-62.89 822.2,-51.76 836.09,-42.03"/>
<polygon fill="#1414ce" stroke="#1414ce" points="838.26,-44.79 844.44,-36.19 834.24,-39.06 838.26,-44.79"/>
</a>
</g>
</g>
<!-- 9&#45;&gt;3 -->
<g id="edge62" class="edge">
<title>9&#45;&gt;3</title>
<g id="a_edge62"><a xlink:title="include">
<path fill="none" stroke="#1414ce" d="M831.77,-73.91C834.89,-73.25 837.98,-72.6 841,-72 938.62,-52.47 1053.93,-34.78 1116.66,-25.6"/>
<polygon fill="#1414ce" stroke="#1414ce" points="1117.24,-29.06 1126.64,-24.15 1116.24,-22.13 1117.24,-29.06"/>
</a>
</g>
</g>
<!-- 9&#45;&gt;11 -->
<g id="edge60" class="edge">
<title>9&#45;&gt;11</title>
<g id="a_edge60"><a xlink:title="include">
<path fill="none" stroke="#1414ce" d="M745.03,-71.88C732.45,-62.89 716.87,-51.76 703.25,-42.03"/>
<polygon fill="#1414ce" stroke="#1414ce" points="705.24,-39.15 695.07,-36.19 701.17,-44.85 705.24,-39.15"/>
</a>
</g>
</g>
<!-- 12 -->
<g id="node33" class="node">
<title>12</title>
<g id="a_node33"><a xlink:title="inttypes.h">
<polygon fill="#ffffff" stroke="black" points="813.5,-36 724.5,-36 724.5,0 813.5,0 813.5,-36"/>
<text text-anchor="middle" x="769" y="-14.3" font-family="Times,serif" font-size="14.00">inttypes.h</text>
</a>
</g>
</g>
<!-- 9&#45;&gt;12 -->
<g id="edge61" class="edge">
<title>9&#45;&gt;12</title>
<g id="a_edge61"><a xlink:title="include">
<path fill="none" stroke="#1414ce" d="M769,-71.7C769,-63.98 769,-54.71 769,-46.11"/>
<polygon fill="#1414ce" stroke="#1414ce" points="772.5,-46.1 769,-36.1 765.5,-46.1 772.5,-46.1"/>
</a>
</g>
</g>
<!-- 2&#45;&gt;4 -->
<g id="edge64" class="edge">
<title>2&#45;&gt;4</title>
<g id="a_edge64"><a xlink:title="include">
<path fill="none" stroke="#1414ce" d="M469.46,-575.98C502.04,-565.84 543.98,-552.53 581,-540 625.74,-524.85 635.15,-515.37 681,-504 791.66,-476.55 822.44,-486.15 935,-468 951.65,-465.31 969.91,-462.08 985.87,-459.16"/>
<polygon fill="#1414ce" stroke="#1414ce" points="986.79,-462.55 995.99,-457.29 985.52,-455.66 986.79,-462.55"/>
</a>
</g>
</g>
<!-- 2&#45;&gt;15 -->
<g id="edge71" class="edge">
<title>2&#45;&gt;15</title>
<g id="a_edge71"><a xlink:title="include">
<path fill="none" stroke="#1414ce" d="M384.95,-575.91C349.44,-552.58 294,-507.16 294,-451 294,-451 294,-451 294,-377 294,-335.97 280.77,-289.97 271.06,-261.74"/>
<polygon fill="#1414ce" stroke="#1414ce" points="274.32,-260.45 267.68,-252.19 267.72,-262.78 274.32,-260.45"/>
</a>
</g>
</g>
<!-- 2&#45;&gt;14 -->
<g id="edge68" class="edge">
<title>2&#45;&gt;14</title>
<g id="a_edge68"><a xlink:title="include">
<path fill="none" stroke="#1414ce" d="M350.22,-589.99C305.15,-584.97 245.45,-572.16 203,-540 166.66,-512.47 152,-496.59 152,-451 152,-451 152,-451 152,-305 152,-262.5 155.58,-244.63 187,-216 227.48,-179.11 292.16,-167.77 332.79,-164.36"/>
<polygon fill="#1414ce" stroke="#1414ce" points="333.1,-167.85 342.83,-163.64 332.6,-160.86 333.1,-167.85"/>
</a>
</g>
</g>
<!-- 2&#45;&gt;3 -->
<g id="edge63" class="edge">
<title>2&#45;&gt;3</title>
<g id="a_edge63"><a xlink:title="include">
<path fill="none" stroke="#1414ce" d="M350.41,-592.58C288.83,-589.69 194.54,-578.55 123,-540 74.85,-514.05 38,-505.7 38,-451 38,-451 38,-451 38,-161 38,42.44 285.47,-99.78 487,-72 549.01,-63.45 974.55,-32.53 1116.8,-22.31"/>
<polygon fill="#1414ce" stroke="#1414ce" points="1117.22,-25.78 1126.94,-21.58 1116.71,-18.8 1117.22,-25.78"/>
</a>
</g>
</g>
<!-- 2&#45;&gt;18 -->
<g id="edge72" class="edge">
<title>2&#45;&gt;18</title>
<g id="a_edge72"><a xlink:title="include">
<path fill="none" stroke="#1414ce" d="M445.32,-575.91C483.25,-555.89 549.59,-523.04 610,-504 693.54,-477.67 795.26,-462.6 851.48,-455.68"/>
<polygon fill="#1414ce" stroke="#1414ce" points="851.93,-459.15 861.44,-454.48 851.09,-452.2 851.93,-459.15"/>
</a>
</g>
</g>
<!-- 2&#45;&gt;8 -->
<g id="edge66" class="edge">
<title>2&#45;&gt;8</title>
<g id="a_edge66"><a xlink:title="include">
<path fill="none" stroke="#1414ce" d="M417.83,-575.7C422.03,-557.58 429.33,-528.43 438,-504 461.88,-436.65 524.47,-259.7 581,-216 628.29,-179.44 697.83,-167.85 743.75,-164.31"/>
<polygon fill="#1414ce" stroke="#1414ce" points="744,-167.8 753.74,-163.64 743.53,-160.82 744,-167.8"/>
</a>
</g>
</g>
<!-- 2&#45;&gt;6 -->
<g id="edge65" class="edge">
<title>2&#45;&gt;6</title>
<g id="a_edge65"><a xlink:title="include">
<path fill="none" stroke="#1414ce" d="M477.82,-579.5C536.16,-567.17 622.01,-549.01 680.55,-536.63"/>
<polygon fill="#1414ce" stroke="#1414ce" points="681.36,-540.04 690.42,-534.54 679.92,-533.19 681.36,-540.04"/>
</a>
</g>
</g>
<!-- 2&#45;&gt;17 -->
<g id="edge70" class="edge">
<title>2&#45;&gt;17</title>
<g id="a_edge70"><a xlink:title="include">
<path fill="none" stroke="#1414ce" d="M350.24,-585.77C285.66,-577.38 191.23,-561.84 162,-540 126,-513.1 114,-495.94 114,-451 114,-451 114,-451 114,-305 114,-260.48 142.26,-215.61 163.13,-188.56"/>
<polygon fill="#1414ce" stroke="#1414ce" points="166.11,-190.43 169.59,-180.42 160.63,-186.07 166.11,-190.43"/>
</a>
</g>
</g>
<!-- 2&#45;&gt;27 -->
<g id="edge73" class="edge">
<title>2&#45;&gt;27</title>
<g id="a_edge73"><a xlink:title="include">
<path fill="none" stroke="#1414ce" d="M418.05,-575.62C423.89,-548.97 434,-496.31 434,-451 434,-451 434,-451 434,-377 434,-334.59 454.4,-289.02 469.4,-261.26"/>
<polygon fill="#1414ce" stroke="#1414ce" points="472.63,-262.65 474.43,-252.21 466.51,-259.25 472.63,-262.65"/>
</a>
</g>
</g>
<!-- 2&#45;&gt;26 -->
<g id="edge69" class="edge">
<title>2&#45;&gt;26</title>
<g id="a_edge69"><a xlink:title="include">
<path fill="none" stroke="#1414ce" d="M423.12,-575.84C428.62,-565.47 435.74,-551.99 442,-540 500.32,-428.28 494.15,-387.1 572,-288 580.41,-277.29 591.21,-267.09 601.38,-258.54"/>
<polygon fill="#1414ce" stroke="#1414ce" points="603.8,-261.09 609.35,-252.06 599.38,-255.66 603.8,-261.09"/>
</a>
</g>
</g>
<!-- 13 -->
<g id="node32" class="node">
<title>13</title>
<g id="a_node32"><a xlink:title="ets.h">
<polygon fill="#ffffff" stroke="black" points="266,-540 212,-540 212,-504 266,-504 266,-540"/>
<text text-anchor="middle" x="239" y="-518.3" font-family="Times,serif" font-size="14.00">ets.h</text>
</a>
</g>
</g>
<!-- 2&#45;&gt;13 -->
<g id="edge67" class="edge">
<title>2&#45;&gt;13</title>
<g id="a_edge67"><a xlink:title="include">
<path fill="none" stroke="#1414ce" d="M370.48,-575.99C344.23,-565.69 310.14,-552.21 280,-540 278.62,-539.44 277.21,-538.87 275.78,-538.29"/>
<polygon fill="#1414ce" stroke="#1414ce" points="276.9,-534.96 266.32,-534.4 274.24,-541.44 276.9,-534.96"/>
</a>
</g>
</g>
<!-- 17&#45;&gt;7 -->
<g id="edge74" class="edge">
<title>17&#45;&gt;7</title>
<g id="a_edge74"><a xlink:title="include">
<path fill="none" stroke="#1414ce" d="M215.06,-155.19C232.3,-151.88 254.36,-147.66 274,-144 357.58,-128.41 454.76,-110.82 513,-100.33"/>
<polygon fill="#1414ce" stroke="#1414ce" points="513.83,-103.74 523.05,-98.52 512.59,-96.85 513.83,-103.74"/>
</a>
</g>
</g>
<!-- 29&#45;&gt;4 -->
<g id="edge75" class="edge">
<title>29&#45;&gt;4</title>
<g id="a_edge75"><a xlink:title="include">
<path fill="none" stroke="#1414ce" d="M1087.04,-575.87C1075.64,-551.35 1054.58,-506.03 1041.2,-477.26"/>
<polygon fill="#1414ce" stroke="#1414ce" points="1044.38,-475.78 1036.99,-468.19 1038.03,-478.73 1044.38,-475.78"/>
</a>
</g>
</g>
<!-- 27&#45;&gt;7 -->
<g id="edge76" class="edge">
<title>27&#45;&gt;7</title>
<g id="a_edge76"><a xlink:title="include">
<path fill="none" stroke="#1414ce" d="M494.65,-215.87C508.46,-191.35 534,-146.03 550.21,-117.26"/>
<polygon fill="#1414ce" stroke="#1414ce" points="553.46,-118.62 555.32,-108.19 547.36,-115.18 553.46,-118.62"/>
</a>
</g>
</g>
<!-- 27&#45;&gt;14 -->
<g id="edge78" class="edge">
<title>27&#45;&gt;14</title>
<g id="a_edge78"><a xlink:title="include">
<path fill="none" stroke="#1414ce" d="M456.87,-215.88C441.49,-206.52 422.29,-194.83 405.86,-184.83"/>
<polygon fill="#1414ce" stroke="#1414ce" points="407.41,-181.67 397.05,-179.47 403.77,-187.65 407.41,-181.67"/>
</a>
</g>
</g>
<!-- 27&#45;&gt;3 -->
<g id="edge77" class="edge">
<title>27&#45;&gt;3</title>
<g id="a_edge77"><a xlink:title="include">
<path fill="none" stroke="#1414ce" d="M482.1,-215.76C477.58,-182.4 473.2,-109.03 514,-72 519.59,-66.92 968.79,-33.34 1116.5,-22.42"/>
<polygon fill="#1414ce" stroke="#1414ce" points="1116.89,-25.9 1126.61,-21.68 1116.38,-18.92 1116.89,-25.9"/>
</a>
</g>
</g>
<!-- 26&#45;&gt;7 -->
<g id="edge79" class="edge">
<title>26&#45;&gt;7</title>
<g id="a_edge79"><a xlink:title="include">
<path fill="none" stroke="#1414ce" d="M620.29,-215.94C613.13,-205.84 604.38,-192.59 598,-180 587.8,-159.88 579.07,-135.83 573.16,-117.8"/>
<polygon fill="#1414ce" stroke="#1414ce" points="576.47,-116.68 570.09,-108.22 569.8,-118.81 576.47,-116.68"/>
</a>
</g>
</g>
<!-- 26&#45;&gt;22 -->
<g id="edge82" class="edge">
<title>26&#45;&gt;22</title>
<g id="a_edge82"><a xlink:title="include">
<path fill="none" stroke="#1414ce" d="M676.16,-223.56C737.92,-210.05 850.77,-185.36 911.57,-172.06"/>
<polygon fill="#1414ce" stroke="#1414ce" points="912.56,-175.43 921.58,-169.87 911.06,-168.59 912.56,-175.43"/>
</a>
</g>
</g>
<!-- 26&#45;&gt;14 -->
<g id="edge80" class="edge">
<title>26&#45;&gt;14</title>
<g id="a_edge80"><a xlink:title="include">
<path fill="none" stroke="#1414ce" d="M589.87,-221.52C538.85,-207.94 454.8,-185.57 406.75,-172.78"/>
<polygon fill="#1414ce" stroke="#1414ce" points="407.63,-169.39 397.06,-170.2 405.83,-176.16 407.63,-169.39"/>
</a>
</g>
</g>
<!-- 26&#45;&gt;9 -->
<g id="edge81" class="edge">
<title>26&#45;&gt;9</title>
<g id="a_edge81"><a xlink:title="include">
<path fill="none" stroke="#1414ce" d="M649.4,-215.87C673.3,-190.92 717.81,-144.45 745.27,-115.77"/>
<polygon fill="#1414ce" stroke="#1414ce" points="748.15,-117.83 752.54,-108.19 743.09,-112.99 748.15,-117.83"/>
</a>
</g>
</g>
<!-- 13&#45;&gt;15 -->
<g id="edge84" class="edge">
<title>13&#45;&gt;15</title>
<g id="a_edge84"><a xlink:title="include">
<path fill="none" stroke="#1414ce" d="M240.31,-503.97C243.98,-456.29 254.37,-321.18 258.87,-262.63"/>
<polygon fill="#1414ce" stroke="#1414ce" points="262.39,-262.55 259.67,-252.31 255.41,-262.01 262.39,-262.55"/>
</a>
</g>
</g>
<!-- 13&#45;&gt;14 -->
<g id="edge83" class="edge">
<title>13&#45;&gt;14</title>
<g id="a_edge83"><a xlink:title="include">
<path fill="none" stroke="#1414ce" d="M228.85,-503.73C214.49,-477.64 190,-426.2 190,-379 190,-379 190,-379 190,-305 190,-264.55 181.98,-246.1 209,-216 240.49,-180.92 295.61,-168.99 332.46,-164.97"/>
<polygon fill="#1414ce" stroke="#1414ce" points="333.17,-168.42 342.79,-164 332.51,-161.45 333.17,-168.42"/>
</a>
</g>
</g>
<!-- 13&#45;&gt;18 -->
<g id="edge85" class="edge">
<title>13&#45;&gt;18</title>
<g id="a_edge85"><a xlink:title="include">
<path fill="none" stroke="#1414ce" d="M266.31,-518.08C368.18,-507.19 726.49,-468.9 850.99,-455.6"/>
<polygon fill="#1414ce" stroke="#1414ce" points="851.7,-459.04 861.27,-454.5 850.95,-452.08 851.7,-459.04"/>
</a>
</g>
</g>
</g>
</svg>
