<?xml version="1.0" encoding="UTF-8" standalone="no"?>
<!DOCTYPE svg PUBLIC "-//W3C//DTD SVG 1.1//EN"
 "http://www.w3.org/Graphics/SVG/1.1/DTD/svg11.dtd">
<!-- Generated by graphviz version 2.43.0 (0)
 -->
<!-- Title: %3 Pages: 1 -->
<svg width="1052pt" height="620pt"
 viewBox="0.00 0.00 1052.00 620.00" xmlns="http://www.w3.org/2000/svg" xmlns:xlink="http://www.w3.org/1999/xlink">
<g id="graph0" class="graph" transform="scale(1 1) rotate(0) translate(4 616)">
<title>%3</title>
<polygon fill="transparent" stroke="transparent" points="-4,4 -4,-616 1048,-616 1048,4 -4,4"/>
<!-- 5 -->
<g id="node1" class="node">
<title>5</title>
<g id="a_node1"><a xlink:title="stdbool.h">
<polygon fill="#ffffff" stroke="black" points="840.5,-108 757.5,-108 757.5,-72 840.5,-72 840.5,-108"/>
<text text-anchor="middle" x="799" y="-86.3" font-family="Times,serif" font-size="14.00">stdbool.h</text>
</a>
</g>
</g>
<!-- 18 -->
<g id="node2" class="node">
<title>18</title>
<g id="a_node2"><a xlink:title="refc_binary.h">
<polygon fill="#ffffff" stroke="black" points="675,-396 567,-396 567,-360 675,-360 675,-396"/>
<text text-anchor="middle" x="621" y="-374.3" font-family="Times,serif" font-size="14.00">refc_binary.h</text>
</a>
</g>
</g>
<!-- 18&#45;&gt;5 -->
<g id="edge1" class="edge">
<title>18&#45;&gt;5</title>
<g id="a_edge1"><a xlink:title="include">
<path fill="none" stroke="#1414ce" d="M669.64,-359.9C690.68,-351.11 714.83,-339.05 734,-324 766.32,-298.62 768.52,-285.72 792,-252 821.52,-209.6 850.19,-193.38 835,-144 831.99,-134.22 826.49,-124.62 820.68,-116.33"/>
<polygon fill="#1414ce" stroke="#1414ce" points="823.41,-114.13 814.61,-108.23 817.81,-118.33 823.41,-114.13"/>
</a>
</g>
</g>
<!-- 19 -->
<g id="node6" class="node">
<title>19</title>
<g id="a_node6"><a xlink:title="list.h">
<polygon fill="#ffffff" stroke="black" points="826,-180 772,-180 772,-144 826,-144 826,-180"/>
<text text-anchor="middle" x="799" y="-158.3" font-family="Times,serif" font-size="14.00">list.h</text>
</a>
</g>
</g>
<!-- 18&#45;&gt;19 -->
<g id="edge3" class="edge">
<title>18&#45;&gt;19</title>
<g id="a_edge3"><a xlink:title="include">
<path fill="none" stroke="#1414ce" d="M649.87,-359.89C683.36,-338.62 738.07,-299.29 770,-252 782.6,-233.34 790.06,-208.8 794.25,-190.22"/>
<polygon fill="#1414ce" stroke="#1414ce" points="797.7,-190.82 796.3,-180.32 790.84,-189.4 797.7,-190.82"/>
</a>
</g>
</g>
<!-- 8 -->
<g id="node8" class="node">
<title>8</title>
<g id="a_node8"><a xlink:title="stdlib.h">
<polygon fill="#ffffff" stroke="black" points="225.5,-108 154.5,-108 154.5,-72 225.5,-72 225.5,-108"/>
<text text-anchor="middle" x="190" y="-86.3" font-family="Times,serif" font-size="14.00">stdlib.h</text>
</a>
</g>
</g>
<!-- 18&#45;&gt;8 -->
<g id="edge2" class="edge">
<title>18&#45;&gt;8</title>
<g id="a_edge2"><a xlink:title="include">
<path fill="none" stroke="#1414ce" d="M566.78,-370.96C488.62,-359.78 343.22,-329.48 248,-252 207.38,-218.95 195.2,-155.08 191.55,-118.51"/>
<polygon fill="#1414ce" stroke="#1414ce" points="195,-117.77 190.67,-108.1 188.03,-118.36 195,-117.77"/>
</a>
</g>
</g>
<!-- 20 -->
<g id="node10" class="node">
<title>20</title>
<g id="a_node10"><a xlink:title="resources.h">
<polygon fill="#ffffff" stroke="black" points="671,-324 571,-324 571,-288 671,-288 671,-324"/>
<text text-anchor="middle" x="621" y="-302.3" font-family="Times,serif" font-size="14.00">resources.h</text>
</a>
</g>
</g>
<!-- 18&#45;&gt;20 -->
<g id="edge4" class="edge">
<title>18&#45;&gt;20</title>
<g id="a_edge4"><a xlink:title="include">
<path fill="none" stroke="#1414ce" d="M621,-359.7C621,-351.98 621,-342.71 621,-334.11"/>
<polygon fill="#1414ce" stroke="#1414ce" points="624.5,-334.1 621,-324.1 617.5,-334.1 624.5,-334.1"/>
</a>
</g>
</g>
<!-- 13 -->
<g id="node3" class="node">
<title>13</title>
<g id="a_node3"><a xlink:title="assert.h">
<polygon fill="#ffffff" stroke="black" points="144,-36 70,-36 70,0 144,0 144,-36"/>
<text text-anchor="middle" x="107" y="-14.3" font-family="Times,serif" font-size="14.00">assert.h</text>
</a>
</g>
</g>
<!-- 16 -->
<g id="node4" class="node">
<title>16</title>
<g id="a_node4"><a xlink:title="utils.h">
<polygon fill="#ffffff" stroke="black" points="524,-180 462,-180 462,-144 524,-144 524,-180"/>
<text text-anchor="middle" x="493" y="-158.3" font-family="Times,serif" font-size="14.00">utils.h</text>
</a>
</g>
</g>
<!-- 16&#45;&gt;8 -->
<g id="edge7" class="edge">
<title>16&#45;&gt;8</title>
<g id="a_edge7"><a xlink:title="include">
<path fill="none" stroke="#1414ce" d="M461.78,-147.02C458.84,-145.92 455.88,-144.89 453,-144 378.54,-120.94 289.05,-105.38 235.99,-97.37"/>
<polygon fill="#1414ce" stroke="#1414ce" points="236.29,-93.87 225.88,-95.87 235.26,-100.8 236.29,-93.87"/>
</a>
</g>
</g>
<!-- 17 -->
<g id="node12" class="node">
<title>17</title>
<g id="a_node12"><a xlink:title="stddef.h">
<polygon fill="#ffffff" stroke="black" points="686,-108 612,-108 612,-72 686,-72 686,-108"/>
<text text-anchor="middle" x="649" y="-86.3" font-family="Times,serif" font-size="14.00">stddef.h</text>
</a>
</g>
</g>
<!-- 16&#45;&gt;17 -->
<g id="edge5" class="edge">
<title>16&#45;&gt;17</title>
<g id="a_edge5"><a xlink:title="include">
<path fill="none" stroke="#1414ce" d="M524.19,-147C546.59,-136.96 577.14,-123.24 602.42,-111.9"/>
<polygon fill="#1414ce" stroke="#1414ce" points="604.13,-114.97 611.82,-107.68 601.26,-108.59 604.13,-114.97"/>
</a>
</g>
</g>
<!-- 7 -->
<g id="node24" class="node">
<title>7</title>
<g id="a_node24"><a xlink:title="stdio.h">
<polygon fill="#ffffff" stroke="black" points="397.5,-108 332.5,-108 332.5,-72 397.5,-72 397.5,-108"/>
<text text-anchor="middle" x="365" y="-86.3" font-family="Times,serif" font-size="14.00">stdio.h</text>
</a>
</g>
</g>
<!-- 16&#45;&gt;7 -->
<g id="edge6" class="edge">
<title>16&#45;&gt;7</title>
<g id="a_edge6"><a xlink:title="include">
<path fill="none" stroke="#1414ce" d="M461.69,-143.88C444.8,-134.64 423.75,-123.13 405.62,-113.21"/>
<polygon fill="#1414ce" stroke="#1414ce" points="406.89,-109.92 396.43,-108.19 403.53,-116.06 406.89,-109.92"/>
</a>
</g>
</g>
<!-- 22 -->
<g id="node5" class="node">
<title>22</title>
<g id="a_node5"><a xlink:title="synclist.h">
<polygon fill="#ffffff" stroke="black" points="732.5,-252 647.5,-252 647.5,-216 732.5,-216 732.5,-252"/>
<text text-anchor="middle" x="690" y="-230.3" font-family="Times,serif" font-size="14.00">synclist.h</text>
</a>
</g>
</g>
<!-- 22&#45;&gt;19 -->
<g id="edge9" class="edge">
<title>22&#45;&gt;19</title>
<g id="a_edge9"><a xlink:title="include">
<path fill="none" stroke="#1414ce" d="M716.66,-215.88C730.78,-206.81 748.31,-195.55 763.56,-185.76"/>
<polygon fill="#1414ce" stroke="#1414ce" points="765.71,-188.54 772.23,-180.19 761.93,-182.65 765.71,-188.54"/>
</a>
</g>
</g>
<!-- 23 -->
<g id="node20" class="node">
<title>23</title>
<g id="a_node20"><a xlink:title="smp.h">
<polygon fill="#ffffff" stroke="black" points="754,-180 694,-180 694,-144 754,-144 754,-180"/>
<text text-anchor="middle" x="724" y="-158.3" font-family="Times,serif" font-size="14.00">smp.h</text>
</a>
</g>
</g>
<!-- 22&#45;&gt;23 -->
<g id="edge10" class="edge">
<title>22&#45;&gt;23</title>
<g id="a_edge10"><a xlink:title="include">
<path fill="none" stroke="#1414ce" d="M698.4,-215.7C702.27,-207.73 706.95,-198.1 711.24,-189.26"/>
<polygon fill="#1414ce" stroke="#1414ce" points="714.47,-190.63 715.69,-180.1 708.17,-187.57 714.47,-190.63"/>
</a>
</g>
</g>
<!-- 22&#45;&gt;7 -->
<g id="edge8" class="edge">
<title>22&#45;&gt;7</title>
<g id="a_edge8"><a xlink:title="include">
<path fill="none" stroke="#1414ce" d="M664.31,-215.9C633.99,-196.32 581.54,-164.35 533,-144 482.12,-122.67 463.99,-126.45 407.66,-108"/>
<polygon fill="#1414ce" stroke="#1414ce" points="408.48,-104.58 397.89,-104.7 406.25,-111.21 408.48,-104.58"/>
</a>
</g>
</g>
<!-- 19&#45;&gt;5 -->
<g id="edge11" class="edge">
<title>19&#45;&gt;5</title>
<g id="a_edge11"><a xlink:title="include">
<path fill="none" stroke="#1414ce" d="M799,-143.7C799,-135.98 799,-126.71 799,-118.11"/>
<polygon fill="#1414ce" stroke="#1414ce" points="802.5,-118.1 799,-108.1 795.5,-118.1 802.5,-118.1"/>
</a>
</g>
</g>
<!-- 6 -->
<g id="node7" class="node">
<title>6</title>
<g id="a_node7"><a xlink:title="stdint.h">
<polygon fill="#ffffff" stroke="black" points="340,-36 268,-36 268,0 340,0 340,-36"/>
<text text-anchor="middle" x="304" y="-14.3" font-family="Times,serif" font-size="14.00">stdint.h</text>
</a>
</g>
</g>
<!-- 10 -->
<g id="node9" class="node">
<title>10</title>
<g id="a_node9"><a xlink:title="memory.h">
<polygon fill="#ffffff" stroke="black" points="385,-252 299,-252 299,-216 385,-216 385,-252"/>
<text text-anchor="middle" x="342" y="-230.3" font-family="Times,serif" font-size="14.00">memory.h</text>
</a>
</g>
</g>
<!-- 10&#45;&gt;16 -->
<g id="edge16" class="edge">
<title>10&#45;&gt;16</title>
<g id="a_edge16"><a xlink:title="include">
<path fill="none" stroke="#1414ce" d="M378.94,-215.88C401.19,-205.56 429.56,-192.41 452.43,-181.81"/>
<polygon fill="#1414ce" stroke="#1414ce" points="453.94,-184.96 461.55,-177.58 451,-178.61 453.94,-184.96"/>
</a>
</g>
</g>
<!-- 10&#45;&gt;6 -->
<g id="edge12" class="edge">
<title>10&#45;&gt;6</title>
<g id="a_edge12"><a xlink:title="include">
<path fill="none" stroke="#1414ce" d="M338.95,-215.85C332.37,-178.75 316.75,-90.81 308.81,-46.1"/>
<polygon fill="#1414ce" stroke="#1414ce" points="312.25,-45.47 307.06,-36.23 305.36,-46.69 312.25,-45.47"/>
</a>
</g>
</g>
<!-- 10&#45;&gt;8 -->
<g id="edge13" class="edge">
<title>10&#45;&gt;8</title>
<g id="a_edge13"><a xlink:title="include">
<path fill="none" stroke="#1414ce" d="M323.67,-215.87C296.73,-190.71 246.36,-143.65 215.73,-115.04"/>
<polygon fill="#1414ce" stroke="#1414ce" points="218.1,-112.46 208.4,-108.19 213.32,-117.57 218.1,-112.46"/>
</a>
</g>
</g>
<!-- 11 -->
<g id="node13" class="node">
<title>11</title>
<g id="a_node13"><a xlink:title="erl_nif.h">
<polygon fill="#ffffff" stroke="black" points="444,-180 370,-180 370,-144 444,-144 444,-180"/>
<text text-anchor="middle" x="407" y="-158.3" font-family="Times,serif" font-size="14.00">erl_nif.h</text>
</a>
</g>
</g>
<!-- 10&#45;&gt;11 -->
<g id="edge14" class="edge">
<title>10&#45;&gt;11</title>
<g id="a_edge14"><a xlink:title="include">
<path fill="none" stroke="#1414ce" d="M358.07,-215.7C365.94,-207.22 375.56,-196.86 384.17,-187.58"/>
<polygon fill="#1414ce" stroke="#1414ce" points="386.88,-189.81 391.12,-180.1 381.75,-185.05 386.88,-189.81"/>
</a>
</g>
</g>
<!-- 12 -->
<g id="node17" class="node">
<title>12</title>
<g id="a_node17"><a xlink:title="term_typedef.h">
<polygon fill="#ffffff" stroke="black" points="540.5,-108 415.5,-108 415.5,-72 540.5,-72 540.5,-108"/>
<text text-anchor="middle" x="478" y="-86.3" font-family="Times,serif" font-size="14.00">term_typedef.h</text>
</a>
</g>
</g>
<!-- 10&#45;&gt;12 -->
<g id="edge15" class="edge">
<title>10&#45;&gt;12</title>
<g id="a_edge15"><a xlink:title="include">
<path fill="none" stroke="#1414ce" d="M341.29,-215.66C341.41,-196.16 344.45,-164.55 361,-144 372.62,-129.56 389.03,-118.92 405.89,-111.12"/>
<polygon fill="#1414ce" stroke="#1414ce" points="407.48,-114.24 415.28,-107.07 404.71,-107.82 407.48,-114.24"/>
</a>
</g>
</g>
<!-- 20&#45;&gt;22 -->
<g id="edge22" class="edge">
<title>20&#45;&gt;22</title>
<g id="a_edge22"><a xlink:title="include">
<path fill="none" stroke="#1414ce" d="M638.06,-287.7C646.5,-279.14 656.82,-268.66 666.04,-259.3"/>
<polygon fill="#1414ce" stroke="#1414ce" points="668.61,-261.68 673.14,-252.1 663.63,-256.77 668.61,-261.68"/>
</a>
</g>
</g>
<!-- 20&#45;&gt;19 -->
<g id="edge19" class="edge">
<title>20&#45;&gt;19</title>
<g id="a_edge19"><a xlink:title="include">
<path fill="none" stroke="#1414ce" d="M671.24,-290.51C694.57,-282 721.6,-269.43 742,-252 762.05,-234.87 777.55,-208.92 787.29,-189.46"/>
<polygon fill="#1414ce" stroke="#1414ce" points="790.56,-190.75 791.73,-180.22 784.25,-187.72 790.56,-190.75"/>
</a>
</g>
</g>
<!-- 20&#45;&gt;8 -->
<g id="edge17" class="edge">
<title>20&#45;&gt;8</title>
<g id="a_edge17"><a xlink:title="include">
<path fill="none" stroke="#1414ce" d="M570.83,-291.04C566.17,-289.93 561.51,-288.9 557,-288 439.57,-264.58 391.24,-315.93 290,-252 240.41,-220.69 211.4,-154.93 198.35,-117.87"/>
<polygon fill="#1414ce" stroke="#1414ce" points="201.61,-116.58 195.09,-108.23 194.98,-118.83 201.61,-116.58"/>
</a>
</g>
</g>
<!-- 20&#45;&gt;10 -->
<g id="edge21" class="edge">
<title>20&#45;&gt;10</title>
<g id="a_edge21"><a xlink:title="include">
<path fill="none" stroke="#1414ce" d="M570.73,-291.49C566.09,-290.29 561.46,-289.11 557,-288 488.37,-270.92 470.49,-269.64 402,-252 399.7,-251.41 397.35,-250.79 394.99,-250.16"/>
<polygon fill="#1414ce" stroke="#1414ce" points="395.76,-246.74 385.19,-247.5 393.93,-253.5 395.76,-246.74"/>
</a>
</g>
</g>
<!-- 20&#45;&gt;11 -->
<g id="edge18" class="edge">
<title>20&#45;&gt;11</title>
<g id="a_edge18"><a xlink:title="include">
<path fill="none" stroke="#1414ce" d="M591.71,-287.79C574.7,-277.64 552.95,-264.39 534,-252 501,-230.42 464.2,-204.4 438.74,-186.09"/>
<polygon fill="#1414ce" stroke="#1414ce" points="440.72,-183.2 430.56,-180.19 436.63,-188.88 440.72,-183.2"/>
</a>
</g>
</g>
<!-- 21 -->
<g id="node23" class="node">
<title>21</title>
<g id="a_node23"><a xlink:title="mailbox.h">
<polygon fill="#ffffff" stroke="black" points="629,-252 543,-252 543,-216 629,-216 629,-252"/>
<text text-anchor="middle" x="586" y="-230.3" font-family="Times,serif" font-size="14.00">mailbox.h</text>
</a>
</g>
</g>
<!-- 20&#45;&gt;21 -->
<g id="edge20" class="edge">
<title>20&#45;&gt;21</title>
<g id="a_edge20"><a xlink:title="include">
<path fill="none" stroke="#1414ce" d="M612.35,-287.7C608.36,-279.73 603.55,-270.1 599.13,-261.26"/>
<polygon fill="#1414ce" stroke="#1414ce" points="602.15,-259.48 594.55,-252.1 595.89,-262.61 602.15,-259.48"/>
</a>
</g>
</g>
<!-- 3 -->
<g id="node11" class="node">
<title>3</title>
<g id="a_node11"><a xlink:title="term.h">
<polygon fill="#ffffff" stroke="black" points="428.5,-468 363.5,-468 363.5,-432 428.5,-432 428.5,-468"/>
<text text-anchor="middle" x="396" y="-446.3" font-family="Times,serif" font-size="14.00">term.h</text>
</a>
</g>
</g>
<!-- 3&#45;&gt;5 -->
<g id="edge24" class="edge">
<title>3&#45;&gt;5</title>
<g id="a_edge24"><a xlink:title="include">
<path fill="none" stroke="#1414ce" d="M424.44,-431.99C437.92,-422.75 453.37,-410.29 464,-396 515.25,-327.14 481.29,-283.75 534,-216 587.11,-147.73 686.58,-115.01 747.39,-100.73"/>
<polygon fill="#1414ce" stroke="#1414ce" points="748.19,-104.13 757.17,-98.51 746.65,-97.31 748.19,-104.13"/>
</a>
</g>
</g>
<!-- 3&#45;&gt;18 -->
<g id="edge30" class="edge">
<title>3&#45;&gt;18</title>
<g id="a_edge30"><a xlink:title="include">
<path fill="none" stroke="#1414ce" d="M428.72,-438.82C462.3,-428.37 515.42,-411.85 557.33,-398.81"/>
<polygon fill="#1414ce" stroke="#1414ce" points="558.4,-402.14 566.91,-395.83 556.32,-395.46 558.4,-402.14"/>
</a>
</g>
</g>
<!-- 3&#45;&gt;16 -->
<g id="edge31" class="edge">
<title>3&#45;&gt;16</title>
<g id="a_edge31"><a xlink:title="include">
<path fill="none" stroke="#1414ce" d="M415.58,-431.64C425.23,-422.05 436.23,-409.39 443,-396 477.77,-327.28 488.41,-235.3 491.63,-190.22"/>
<polygon fill="#1414ce" stroke="#1414ce" points="495.13,-190.27 492.28,-180.07 488.15,-189.82 495.13,-190.27"/>
</a>
</g>
</g>
<!-- 3&#45;&gt;6 -->
<g id="edge25" class="edge">
<title>3&#45;&gt;6</title>
<g id="a_edge25"><a xlink:title="include">
<path fill="none" stroke="#1414ce" d="M363.26,-449.18C281.7,-447.74 76,-431.75 76,-307 76,-307 76,-307 76,-161 76,-76.06 191.43,-40.1 258.02,-26.43"/>
<polygon fill="#1414ce" stroke="#1414ce" points="258.73,-29.85 267.87,-24.49 257.39,-22.99 258.73,-29.85"/>
</a>
</g>
</g>
<!-- 3&#45;&gt;8 -->
<g id="edge27" class="edge">
<title>3&#45;&gt;8</title>
<g id="a_edge27"><a xlink:title="include">
<path fill="none" stroke="#1414ce" d="M363.38,-447.47C289.14,-442.06 114,-417.59 114,-307 114,-307 114,-307 114,-233 114,-187.64 144.52,-142.75 166.88,-115.95"/>
<polygon fill="#1414ce" stroke="#1414ce" points="169.64,-118.09 173.51,-108.23 164.34,-113.53 169.64,-118.09"/>
</a>
</g>
</g>
<!-- 3&#45;&gt;10 -->
<g id="edge29" class="edge">
<title>3&#45;&gt;10</title>
<g id="a_edge29"><a xlink:title="include">
<path fill="none" stroke="#1414ce" d="M363.15,-444.73C313.54,-437.53 223.22,-421.24 204,-396 164.68,-344.36 244.97,-287.49 298.77,-257.08"/>
<polygon fill="#1414ce" stroke="#1414ce" points="300.76,-259.98 307.81,-252.08 297.37,-253.86 300.76,-259.98"/>
</a>
</g>
</g>
<!-- 4 -->
<g id="node15" class="node">
<title>4</title>
<g id="a_node15"><a xlink:title="sys/types.h">
<polygon fill="#ffffff" stroke="black" points="309.5,-396 212.5,-396 212.5,-360 309.5,-360 309.5,-396"/>
<text text-anchor="middle" x="261" y="-374.3" font-family="Times,serif" font-size="14.00">sys/types.h</text>
</a>
</g>
</g>
<!-- 3&#45;&gt;4 -->
<g id="edge23" class="edge">
<title>3&#45;&gt;4</title>
<g id="a_edge23"><a xlink:title="include">
<path fill="none" stroke="#1414ce" d="M363.32,-432.05C345.13,-422.62 322.3,-410.78 302.82,-400.68"/>
<polygon fill="#1414ce" stroke="#1414ce" points="304.34,-397.53 293.85,-396.03 301.11,-403.74 304.34,-397.53"/>
</a>
</g>
</g>
<!-- 9 -->
<g id="node16" class="node">
<title>9</title>
<g id="a_node16"><a xlink:title="string.h">
<polygon fill="#ffffff" stroke="black" points="400.5,-396 327.5,-396 327.5,-360 400.5,-360 400.5,-396"/>
<text text-anchor="middle" x="364" y="-374.3" font-family="Times,serif" font-size="14.00">string.h</text>
</a>
</g>
</g>
<!-- 3&#45;&gt;9 -->
<g id="edge28" class="edge">
<title>3&#45;&gt;9</title>
<g id="a_edge28"><a xlink:title="include">
<path fill="none" stroke="#1414ce" d="M388.09,-431.7C384.45,-423.73 380.05,-414.1 376.01,-405.26"/>
<polygon fill="#1414ce" stroke="#1414ce" points="379.16,-403.74 371.82,-396.1 372.79,-406.65 379.16,-403.74"/>
</a>
</g>
</g>
<!-- 3&#45;&gt;12 -->
<g id="edge32" class="edge">
<title>3&#45;&gt;12</title>
<g id="a_edge32"><a xlink:title="include">
<path fill="none" stroke="#1414ce" d="M428.56,-446C494.58,-439.45 641.54,-422.31 684,-396 783.57,-334.31 803.85,-292.91 835,-180 839.26,-164.58 845.45,-156.12 835,-144 832.68,-141.31 654.76,-115.87 551,-101.24"/>
<polygon fill="#1414ce" stroke="#1414ce" points="551.29,-97.74 540.89,-99.81 550.31,-104.67 551.29,-97.74"/>
</a>
</g>
</g>
<!-- 3&#45;&gt;7 -->
<g id="edge26" class="edge">
<title>3&#45;&gt;7</title>
<g id="a_edge26"><a xlink:title="include">
<path fill="none" stroke="#1414ce" d="M404.17,-431.86C411.76,-413.37 420.44,-383.43 410,-360 380.81,-294.45 319.19,-317.55 290,-252 268.37,-203.44 309.88,-147.27 339.31,-115.76"/>
<polygon fill="#1414ce" stroke="#1414ce" points="342.07,-117.94 346.48,-108.3 337.02,-113.09 342.07,-117.94"/>
</a>
</g>
</g>
<!-- 11&#45;&gt;12 -->
<g id="edge33" class="edge">
<title>11&#45;&gt;12</title>
<g id="a_edge33"><a xlink:title="include">
<path fill="none" stroke="#1414ce" d="M424.55,-143.7C433.23,-135.14 443.86,-124.66 453.35,-115.3"/>
<polygon fill="#1414ce" stroke="#1414ce" points="455.99,-117.62 460.65,-108.1 451.07,-112.63 455.99,-117.62"/>
</a>
</g>
</g>
<!-- 14 -->
<g id="node14" class="node">
<title>14</title>
<g id="a_node14"><a xlink:title="limits.h">
<polygon fill="#ffffff" stroke="black" points="471.5,-36 400.5,-36 400.5,0 471.5,0 471.5,-36"/>
<text text-anchor="middle" x="436" y="-14.3" font-family="Times,serif" font-size="14.00">limits.h</text>
</a>
</g>
</g>
<!-- 12&#45;&gt;13 -->
<g id="edge34" class="edge">
<title>12&#45;&gt;13</title>
<g id="a_edge34"><a xlink:title="include">
<path fill="none" stroke="#1414ce" d="M415.33,-73.78C412.52,-73.16 409.73,-72.57 407,-72 318.09,-53.52 213.5,-35.99 154.25,-26.45"/>
<polygon fill="#1414ce" stroke="#1414ce" points="154.51,-22.94 144.08,-24.81 153.4,-29.85 154.51,-22.94"/>
</a>
</g>
</g>
<!-- 12&#45;&gt;6 -->
<g id="edge37" class="edge">
<title>12&#45;&gt;6</title>
<g id="a_edge37"><a xlink:title="include">
<path fill="none" stroke="#1414ce" d="M435.43,-71.88C409.45,-61.42 376.23,-48.06 349.7,-37.38"/>
<polygon fill="#1414ce" stroke="#1414ce" points="350.83,-34.07 340.25,-33.58 348.22,-40.56 350.83,-34.07"/>
</a>
</g>
</g>
<!-- 12&#45;&gt;14 -->
<g id="edge35" class="edge">
<title>12&#45;&gt;14</title>
<g id="a_edge35"><a xlink:title="include">
<path fill="none" stroke="#1414ce" d="M467.62,-71.7C462.74,-63.56 456.81,-53.69 451.42,-44.7"/>
<polygon fill="#1414ce" stroke="#1414ce" points="454.41,-42.88 446.26,-36.1 448.41,-46.48 454.41,-42.88"/>
</a>
</g>
</g>
<!-- 15 -->
<g id="node25" class="node">
<title>15</title>
<g id="a_node25"><a xlink:title="inttypes.h">
<polygon fill="#ffffff" stroke="black" points="578.5,-36 489.5,-36 489.5,0 578.5,0 578.5,-36"/>
<text text-anchor="middle" x="534" y="-14.3" font-family="Times,serif" font-size="14.00">inttypes.h</text>
</a>
</g>
</g>
<!-- 12&#45;&gt;15 -->
<g id="edge36" class="edge">
<title>12&#45;&gt;15</title>
<g id="a_edge36"><a xlink:title="include">
<path fill="none" stroke="#1414ce" d="M491.84,-71.7C498.49,-63.39 506.58,-53.28 513.89,-44.14"/>
<polygon fill="#1414ce" stroke="#1414ce" points="516.8,-46.1 520.32,-36.1 511.34,-41.73 516.8,-46.1"/>
</a>
</g>
</g>
<!-- 1 -->
<g id="node18" class="node">
<title>1</title>
<g id="a_node18"><a xlink:title="/__w/AtomVM/AtomVM/src/libAtomVM/bitstring.c">
<polygon fill="#bfbfbf" stroke="black" points="580,-612 212,-612 212,-576 580,-576 580,-612"/>
<text text-anchor="middle" x="396" y="-590.3" font-family="Times,serif" font-size="14.00">/__w/AtomVM/AtomVM/src/libAtomVM/bitstring.c</text>
</a>
</g>
</g>
<!-- 1&#45;&gt;13 -->
<g id="edge39" class="edge">
<title>1&#45;&gt;13</title>
<g id="a_edge39"><a xlink:title="include">
<path fill="none" stroke="#1414ce" d="M288.05,-575.99C170.8,-554.4 0,-512.4 0,-451 0,-451 0,-451 0,-161 0,-111.13 42.62,-67.65 74.06,-42.35"/>
<polygon fill="#1414ce" stroke="#1414ce" points="76.45,-44.93 82.18,-36.02 72.15,-39.41 76.45,-44.93"/>
</a>
</g>
</g>
<!-- 2 -->
<g id="node19" class="node">
<title>2</title>
<g id="a_node19"><a xlink:title="bitstring.h">
<polygon fill="#ffffff" stroke="black" points="442,-540 350,-540 350,-504 442,-504 442,-540"/>
<text text-anchor="middle" x="396" y="-518.3" font-family="Times,serif" font-size="14.00">bitstring.h</text>
</a>
</g>
</g>
<!-- 1&#45;&gt;2 -->
<g id="edge38" class="edge">
<title>1&#45;&gt;2</title>
<g id="a_edge38"><a xlink:title="include">
<path fill="none" stroke="#1414ce" d="M396,-575.7C396,-567.98 396,-558.71 396,-550.11"/>
<polygon fill="#1414ce" stroke="#1414ce" points="399.5,-550.1 396,-540.1 392.5,-550.1 399.5,-550.1"/>
</a>
</g>
</g>
<!-- 25 -->
<g id="node21" class="node">
<title>25</title>
<g id="a_node21"><a xlink:title="math.h">
<polygon fill="#ffffff" stroke="black" points="527.5,-540 460.5,-540 460.5,-504 527.5,-504 527.5,-540"/>
<text text-anchor="middle" x="494" y="-518.3" font-family="Times,serif" font-size="14.00">math.h</text>
</a>
</g>
</g>
<!-- 1&#45;&gt;25 -->
<g id="edge40" class="edge">
<title>1&#45;&gt;25</title>
<g id="a_edge40"><a xlink:title="include">
<path fill="none" stroke="#1414ce" d="M419.97,-575.88C432.55,-566.89 448.13,-555.76 461.75,-546.03"/>
<polygon fill="#1414ce" stroke="#1414ce" points="463.83,-548.85 469.93,-540.19 459.76,-543.15 463.83,-548.85"/>
</a>
</g>
</g>
<!-- 2&#45;&gt;5 -->
<g id="edge43" class="edge">
<title>2&#45;&gt;5</title>
<g id="a_edge43"><a xlink:title="include">
<path fill="none" stroke="#1414ce" d="M442.1,-506.85C445.45,-505.87 448.77,-504.91 452,-504 663.32,-444.32 930,-598.59 930,-379 930,-379 930,-379 930,-233 930,-179.59 879.32,-137.68 841,-113.64"/>
<polygon fill="#1414ce" stroke="#1414ce" points="842.42,-110.4 832.06,-108.2 838.78,-116.38 842.42,-110.4"/>
</a>
</g>
</g>
<!-- 2&#45;&gt;6 -->
<g id="edge44" class="edge">
<title>2&#45;&gt;6</title>
<g id="a_edge44"><a xlink:title="include">
<path fill="none" stroke="#1414ce" d="M349.93,-512.77C253.24,-494.19 38,-445.36 38,-379 38,-379 38,-379 38,-161 38,-114.73 54.76,-99.45 92,-72 140.97,-35.9 211.79,-24.23 257.86,-20.55"/>
<polygon fill="#1414ce" stroke="#1414ce" points="258.13,-24.04 267.86,-19.84 257.64,-17.06 258.13,-24.04"/>
</a>
</g>
</g>
<!-- 2&#45;&gt;3 -->
<g id="edge41" class="edge">
<title>2&#45;&gt;3</title>
<g id="a_edge41"><a xlink:title="include">
<path fill="none" stroke="#1414ce" d="M396,-503.7C396,-495.98 396,-486.71 396,-478.11"/>
<polygon fill="#1414ce" stroke="#1414ce" points="399.5,-478.1 396,-468.1 392.5,-478.1 399.5,-478.1"/>
</a>
</g>
</g>
<!-- 24 -->
<g id="node22" class="node">
<title>24</title>
<g id="a_node22"><a xlink:title="unicode.h">
<polygon fill="#ffffff" stroke="black" points="1044,-180 958,-180 958,-144 1044,-144 1044,-180"/>
<text text-anchor="middle" x="1001" y="-158.3" font-family="Times,serif" font-size="14.00">unicode.h</text>
</a>
</g>
</g>
<!-- 2&#45;&gt;24 -->
<g id="edge42" class="edge">
<title>2&#45;&gt;24</title>
<g id="a_edge42"><a xlink:title="include">
<path fill="none" stroke="#1414ce" d="M442.25,-506.1C445.53,-505.31 448.8,-504.59 452,-504 559.78,-483.95 854.19,-530.87 944,-468 979.53,-443.13 984,-422.37 984,-379 984,-379 984,-379 984,-305 984,-264.93 990.76,-218.95 995.75,-190.43"/>
<polygon fill="#1414ce" stroke="#1414ce" points="999.23,-190.87 997.56,-180.41 992.34,-189.63 999.23,-190.87"/>
</a>
</g>
</g>
<!-- 23&#45;&gt;5 -->
<g id="edge45" class="edge">
<title>23&#45;&gt;5</title>
<g id="a_edge45"><a xlink:title="include">
<path fill="none" stroke="#1414ce" d="M742.54,-143.7C751.8,-135.05 763.16,-124.45 773.26,-115.03"/>
<polygon fill="#1414ce" stroke="#1414ce" points="775.75,-117.49 780.67,-108.1 770.98,-112.37 775.75,-117.49"/>
</a>
</g>
</g>
<!-- 24&#45;&gt;5 -->
<g id="edge46" class="edge">
<title>24&#45;&gt;5</title>
<g id="a_edge46"><a xlink:title="include">
<path fill="none" stroke="#1414ce" d="M957.67,-145.98C926.12,-135.05 883.28,-120.21 850.07,-108.7"/>
<polygon fill="#1414ce" stroke="#1414ce" points="851.13,-105.36 840.54,-105.39 848.84,-111.98 851.13,-105.36"/>
</a>
</g>
</g>
<!-- 24&#45;&gt;6 -->
<g id="edge48" class="edge">
<title>24&#45;&gt;6</title>
<g id="a_edge48"><a xlink:title="include">
<path fill="none" stroke="#1414ce" d="M979.51,-143.99C951.51,-122.91 900.21,-87.83 850,-72 655.27,-10.58 594.34,-63.41 392,-36 378.36,-34.15 363.64,-31.55 350.22,-28.94"/>
<polygon fill="#1414ce" stroke="#1414ce" points="350.73,-25.47 340.24,-26.95 349.36,-32.34 350.73,-25.47"/>
</a>
</g>
</g>
<!-- 24&#45;&gt;17 -->
<g id="edge47" class="edge">
<title>24&#45;&gt;17</title>
<g id="a_edge47"><a xlink:title="include">
<path fill="none" stroke="#1414ce" d="M957.84,-152.42C891.48,-139.22 764.9,-114.05 696.2,-100.39"/>
<polygon fill="#1414ce" stroke="#1414ce" points="696.58,-96.89 686.09,-98.38 695.21,-103.76 696.58,-96.89"/>
</a>
</g>
</g>
<!-- 21&#45;&gt;5 -->
<g id="edge49" class="edge">
<title>21&#45;&gt;5</title>
<g id="a_edge49"><a xlink:title="include">
<path fill="none" stroke="#1414ce" d="M601.9,-215.92C620.48,-196.66 652.79,-165.27 685,-144 704.5,-131.12 727.62,-119.75 747.93,-110.87"/>
<polygon fill="#1414ce" stroke="#1414ce" points="749.52,-114 757.34,-106.84 746.77,-107.56 749.52,-114"/>
</a>
</g>
</g>
<!-- 21&#45;&gt;16 -->
<g id="edge52" class="edge">
<title>21&#45;&gt;16</title>
<g id="a_edge52"><a xlink:title="include">
<path fill="none" stroke="#1414ce" d="M563.01,-215.7C551.19,-206.8 536.61,-195.82 523.82,-186.2"/>
<polygon fill="#1414ce" stroke="#1414ce" points="525.82,-183.32 515.72,-180.1 521.61,-188.91 525.82,-183.32"/>
</a>
</g>
</g>
<!-- 21&#45;&gt;19 -->
<g id="edge50" class="edge">
<title>21&#45;&gt;19</title>
<g id="a_edge50"><a xlink:title="include">
<path fill="none" stroke="#1414ce" d="M629.07,-219.08C632.42,-218.02 635.77,-216.99 639,-216 690.99,-200.12 707.59,-200.25 762.19,-180.02"/>
<polygon fill="#1414ce" stroke="#1414ce" points="763.55,-183.25 771.68,-176.45 761.08,-176.7 763.55,-183.25"/>
</a>
</g>
</g>
<!-- 21&#45;&gt;12 -->
<g id="edge51" class="edge">
<title>21&#45;&gt;12</title>
<g id="a_edge51"><a xlink:title="include">
<path fill="none" stroke="#1414ce" d="M577.49,-215.73C567.92,-197.13 551.33,-167.11 533,-144 524.95,-133.85 515.04,-123.74 505.86,-115.1"/>
<polygon fill="#1414ce" stroke="#1414ce" points="508.11,-112.41 498.38,-108.23 503.37,-117.57 508.11,-112.41"/>
</a>
</g>
</g>
</g>
</svg>
