<?xml version="1.0" encoding="UTF-8" standalone="no"?>
<!DOCTYPE svg PUBLIC "-//W3C//DTD SVG 1.1//EN"
 "http://www.w3.org/Graphics/SVG/1.1/DTD/svg11.dtd">
<!-- Generated by graphviz version 2.43.0 (0)
 -->
<!-- Title: %3 Pages: 1 -->
<svg width="1386pt" height="836pt"
 viewBox="0.00 0.00 1386.00 836.00" xmlns="http://www.w3.org/2000/svg" xmlns:xlink="http://www.w3.org/1999/xlink">
<g id="graph0" class="graph" transform="scale(1 1) rotate(0) translate(4 832)">
<title>%3</title>
<polygon fill="transparent" stroke="transparent" points="-4,4 -4,-832 1382,-832 1382,4 -4,4"/>
<!-- 7 -->
<g id="node1" class="node">
<title>7</title>
<g id="a_node1"><a xlink:title="stdbool.h">
<polygon fill="#ffffff" stroke="black" points="926.5,-108 843.5,-108 843.5,-72 926.5,-72 926.5,-108"/>
<text text-anchor="middle" x="885" y="-86.3" font-family="Times,serif" font-size="14.00">stdbool.h</text>
</a>
</g>
</g>
<!-- 24 -->
<g id="node2" class="node">
<title>24</title>
<g id="a_node2"><a xlink:title="refc_binary.h">
<polygon fill="#ffffff" stroke="black" points="756,-396 648,-396 648,-360 756,-360 756,-396"/>
<text text-anchor="middle" x="702" y="-374.3" font-family="Times,serif" font-size="14.00">refc_binary.h</text>
</a>
</g>
</g>
<!-- 24&#45;&gt;7 -->
<g id="edge1" class="edge">
<title>24&#45;&gt;7</title>
<g id="a_edge1"><a xlink:title="include">
<path fill="none" stroke="#1414ce" d="M698.08,-359.77C689.6,-317.71 674.23,-208.56 726,-144 751.68,-111.97 797.34,-99.15 833.16,-94.09"/>
<polygon fill="#1414ce" stroke="#1414ce" points="833.97,-97.52 843.46,-92.81 833.1,-90.57 833.97,-97.52"/>
</a>
</g>
</g>
<!-- 14 -->
<g id="node8" class="node">
<title>14</title>
<g id="a_node8"><a xlink:title="list.h">
<polygon fill="#ffffff" stroke="black" points="987,-180 933,-180 933,-144 987,-144 987,-180"/>
<text text-anchor="middle" x="960" y="-158.3" font-family="Times,serif" font-size="14.00">list.h</text>
</a>
</g>
</g>
<!-- 24&#45;&gt;14 -->
<g id="edge3" class="edge">
<title>24&#45;&gt;14</title>
<g id="a_edge3"><a xlink:title="include">
<path fill="none" stroke="#1414ce" d="M756.25,-362.76C810.73,-345.61 893.02,-311.41 939,-252 952.63,-234.39 957.63,-209.36 959.36,-190.33"/>
<polygon fill="#1414ce" stroke="#1414ce" points="962.86,-190.4 960.03,-180.19 955.88,-189.93 962.86,-190.4"/>
</a>
</g>
</g>
<!-- 5 -->
<g id="node10" class="node">
<title>5</title>
<g id="a_node10"><a xlink:title="stdlib.h">
<polygon fill="#ffffff" stroke="black" points="604.5,-108 533.5,-108 533.5,-72 604.5,-72 604.5,-108"/>
<text text-anchor="middle" x="569" y="-86.3" font-family="Times,serif" font-size="14.00">stdlib.h</text>
</a>
</g>
</g>
<!-- 24&#45;&gt;5 -->
<g id="edge2" class="edge">
<title>24&#45;&gt;5</title>
<g id="a_edge2"><a xlink:title="include">
<path fill="none" stroke="#1414ce" d="M694.08,-359.97C671.77,-311.99 608.29,-175.5 581.34,-117.54"/>
<polygon fill="#1414ce" stroke="#1414ce" points="584.44,-115.9 577.05,-108.31 578.09,-118.85 584.44,-115.9"/>
</a>
</g>
</g>
<!-- 25 -->
<g id="node14" class="node">
<title>25</title>
<g id="a_node14"><a xlink:title="resources.h">
<polygon fill="#ffffff" stroke="black" points="598,-324 498,-324 498,-288 598,-288 598,-324"/>
<text text-anchor="middle" x="548" y="-302.3" font-family="Times,serif" font-size="14.00">resources.h</text>
</a>
</g>
</g>
<!-- 24&#45;&gt;25 -->
<g id="edge4" class="edge">
<title>24&#45;&gt;25</title>
<g id="a_edge4"><a xlink:title="include">
<path fill="none" stroke="#1414ce" d="M664.33,-359.88C643.37,-350.35 617.1,-338.41 594.82,-328.28"/>
<polygon fill="#1414ce" stroke="#1414ce" points="596.1,-325.02 585.55,-324.07 593.21,-331.39 596.1,-325.02"/>
</a>
</g>
</g>
<!-- 28 -->
<g id="node3" class="node">
<title>28</title>
<g id="a_node3"><a xlink:title="nifs.h">
<polygon fill="#ffffff" stroke="black" points="1075,-756 1019,-756 1019,-720 1075,-720 1075,-756"/>
<text text-anchor="middle" x="1047" y="-734.3" font-family="Times,serif" font-size="14.00">nifs.h</text>
</a>
</g>
</g>
<!-- 4 -->
<g id="node4" class="node">
<title>4</title>
<g id="a_node4"><a xlink:title="atom.h">
<polygon fill="#ffffff" stroke="black" points="1109,-468 1043,-468 1043,-432 1109,-432 1109,-468"/>
<text text-anchor="middle" x="1076" y="-446.3" font-family="Times,serif" font-size="14.00">atom.h</text>
</a>
</g>
</g>
<!-- 28&#45;&gt;4 -->
<g id="edge5" class="edge">
<title>28&#45;&gt;4</title>
<g id="a_edge5"><a xlink:title="include">
<path fill="none" stroke="#1414ce" d="M1075.13,-725.86C1092.64,-717.27 1113.73,-703.54 1124,-684 1160.15,-615.23 1117.25,-521.71 1091.96,-476.95"/>
<polygon fill="#1414ce" stroke="#1414ce" points="1094.91,-475.06 1086.87,-468.17 1088.85,-478.57 1094.91,-475.06"/>
</a>
</g>
</g>
<!-- 29 -->
<g id="node11" class="node">
<title>29</title>
<g id="a_node11"><a xlink:title="context.h">
<polygon fill="#ffffff" stroke="black" points="1114.5,-684 1031.5,-684 1031.5,-648 1114.5,-648 1114.5,-684"/>
<text text-anchor="middle" x="1073" y="-662.3" font-family="Times,serif" font-size="14.00">context.h</text>
</a>
</g>
</g>
<!-- 28&#45;&gt;29 -->
<g id="edge6" class="edge">
<title>28&#45;&gt;29</title>
<g id="a_edge6"><a xlink:title="include">
<path fill="none" stroke="#1414ce" d="M1053.43,-719.7C1056.36,-711.81 1059.89,-702.3 1063.14,-693.55"/>
<polygon fill="#1414ce" stroke="#1414ce" points="1066.45,-694.7 1066.65,-684.1 1059.88,-692.26 1066.45,-694.7"/>
</a>
</g>
</g>
<!-- 30 -->
<g id="node18" class="node">
<title>30</title>
<g id="a_node18"><a xlink:title="exportedfunction.h">
<polygon fill="#ffffff" stroke="black" points="152,-612 0,-612 0,-576 152,-576 152,-612"/>
<text text-anchor="middle" x="76" y="-590.3" font-family="Times,serif" font-size="14.00">exportedfunction.h</text>
</a>
</g>
</g>
<!-- 28&#45;&gt;30 -->
<g id="edge7" class="edge">
<title>28&#45;&gt;30</title>
<g id="a_edge7"><a xlink:title="include">
<path fill="none" stroke="#1414ce" d="M1018.78,-733.47C909.09,-719.67 500.55,-667.3 166,-612 164.72,-611.79 163.43,-611.57 162.13,-611.35"/>
<polygon fill="#1414ce" stroke="#1414ce" points="162.51,-607.87 152.07,-609.62 161.33,-614.77 162.51,-607.87"/>
</a>
</g>
</g>
<!-- 3 -->
<g id="node9" class="node">
<title>3</title>
<g id="a_node9"><a xlink:title="stdint.h">
<polygon fill="#ffffff" stroke="black" points="999,-36 927,-36 927,0 999,0 999,-36"/>
<text text-anchor="middle" x="963" y="-14.3" font-family="Times,serif" font-size="14.00">stdint.h</text>
</a>
</g>
</g>
<!-- 4&#45;&gt;3 -->
<g id="edge8" class="edge">
<title>4&#45;&gt;3</title>
<g id="a_edge8"><a xlink:title="include">
<path fill="none" stroke="#1414ce" d="M1109.17,-439.44C1180.07,-416.76 1340,-352.56 1340,-235 1340,-235 1340,-235 1340,-161 1340,-91.02 1109.61,-43.67 1009.04,-26.34"/>
<polygon fill="#1414ce" stroke="#1414ce" points="1009.59,-22.88 999.15,-24.66 1008.42,-29.78 1009.59,-22.88"/>
</a>
</g>
</g>
<!-- 4&#45;&gt;5 -->
<g id="edge9" class="edge">
<title>4&#45;&gt;5</title>
<g id="a_edge9"><a xlink:title="include">
<path fill="none" stroke="#1414ce" d="M1077.46,-431.84C1080.88,-379.44 1083.34,-220.43 996,-144 967.67,-119.21 719.21,-100.6 614.85,-93.81"/>
<polygon fill="#1414ce" stroke="#1414ce" points="614.82,-90.3 604.62,-93.15 614.37,-97.28 614.82,-90.3"/>
</a>
</g>
</g>
<!-- 10 -->
<g id="node5" class="node">
<title>10</title>
<g id="a_node5"><a xlink:title="assert.h">
<polygon fill="#ffffff" stroke="black" points="97,-36 23,-36 23,0 97,0 97,-36"/>
<text text-anchor="middle" x="60" y="-14.3" font-family="Times,serif" font-size="14.00">assert.h</text>
</a>
</g>
</g>
<!-- 22 -->
<g id="node6" class="node">
<title>22</title>
<g id="a_node6"><a xlink:title="utils.h">
<polygon fill="#ffffff" stroke="black" points="408,-180 346,-180 346,-144 408,-144 408,-180"/>
<text text-anchor="middle" x="377" y="-158.3" font-family="Times,serif" font-size="14.00">utils.h</text>
</a>
</g>
</g>
<!-- 22&#45;&gt;5 -->
<g id="edge12" class="edge">
<title>22&#45;&gt;5</title>
<g id="a_edge12"><a xlink:title="include">
<path fill="none" stroke="#1414ce" d="M408.28,-149.6C439.65,-138.16 488.28,-120.43 523.84,-107.46"/>
<polygon fill="#1414ce" stroke="#1414ce" points="525.3,-110.66 533.5,-103.94 522.9,-104.08 525.3,-110.66"/>
</a>
</g>
</g>
<!-- 23 -->
<g id="node16" class="node">
<title>23</title>
<g id="a_node16"><a xlink:title="stddef.h">
<polygon fill="#ffffff" stroke="black" points="481,-108 407,-108 407,-72 481,-72 481,-108"/>
<text text-anchor="middle" x="444" y="-86.3" font-family="Times,serif" font-size="14.00">stddef.h</text>
</a>
</g>
</g>
<!-- 22&#45;&gt;23 -->
<g id="edge10" class="edge">
<title>22&#45;&gt;23</title>
<g id="a_edge10"><a xlink:title="include">
<path fill="none" stroke="#1414ce" d="M393.56,-143.7C401.68,-135.22 411.59,-124.86 420.47,-115.58"/>
<polygon fill="#1414ce" stroke="#1414ce" points="423.24,-117.75 427.63,-108.1 418.19,-112.91 423.24,-117.75"/>
</a>
</g>
</g>
<!-- 16 -->
<g id="node28" class="node">
<title>16</title>
<g id="a_node28"><a xlink:title="stdio.h">
<polygon fill="#ffffff" stroke="black" points="388.5,-108 323.5,-108 323.5,-72 388.5,-72 388.5,-108"/>
<text text-anchor="middle" x="356" y="-86.3" font-family="Times,serif" font-size="14.00">stdio.h</text>
</a>
</g>
</g>
<!-- 22&#45;&gt;16 -->
<g id="edge11" class="edge">
<title>22&#45;&gt;16</title>
<g id="a_edge11"><a xlink:title="include">
<path fill="none" stroke="#1414ce" d="M371.81,-143.7C369.47,-135.9 366.65,-126.51 364.05,-117.83"/>
<polygon fill="#1414ce" stroke="#1414ce" points="367.36,-116.68 361.13,-108.1 360.65,-118.69 367.36,-116.68"/>
</a>
</g>
</g>
<!-- 15 -->
<g id="node7" class="node">
<title>15</title>
<g id="a_node7"><a xlink:title="synclist.h">
<polygon fill="#ffffff" stroke="black" points="929.5,-252 844.5,-252 844.5,-216 929.5,-216 929.5,-252"/>
<text text-anchor="middle" x="887" y="-230.3" font-family="Times,serif" font-size="14.00">synclist.h</text>
</a>
</g>
</g>
<!-- 15&#45;&gt;14 -->
<g id="edge14" class="edge">
<title>15&#45;&gt;14</title>
<g id="a_edge14"><a xlink:title="include">
<path fill="none" stroke="#1414ce" d="M905.04,-215.7C914.06,-207.05 925.12,-196.45 934.94,-187.03"/>
<polygon fill="#1414ce" stroke="#1414ce" points="937.37,-189.55 942.16,-180.1 932.52,-184.5 937.37,-189.55"/>
</a>
</g>
</g>
<!-- 17 -->
<g id="node25" class="node">
<title>17</title>
<g id="a_node25"><a xlink:title="smp.h">
<polygon fill="#ffffff" stroke="black" points="915,-180 855,-180 855,-144 915,-144 915,-180"/>
<text text-anchor="middle" x="885" y="-158.3" font-family="Times,serif" font-size="14.00">smp.h</text>
</a>
</g>
</g>
<!-- 15&#45;&gt;17 -->
<g id="edge15" class="edge">
<title>15&#45;&gt;17</title>
<g id="a_edge15"><a xlink:title="include">
<path fill="none" stroke="#1414ce" d="M886.51,-215.7C886.29,-207.98 886.02,-198.71 885.77,-190.11"/>
<polygon fill="#1414ce" stroke="#1414ce" points="889.27,-190 885.49,-180.1 882.28,-190.2 889.27,-190"/>
</a>
</g>
</g>
<!-- 15&#45;&gt;16 -->
<g id="edge13" class="edge">
<title>15&#45;&gt;16</title>
<g id="a_edge13"><a xlink:title="include">
<path fill="none" stroke="#1414ce" d="M844.26,-224.1C760.17,-206.17 567.45,-162.91 398.42,-107.92"/>
<polygon fill="#1414ce" stroke="#1414ce" points="399.45,-104.57 388.86,-104.79 397.27,-111.23 399.45,-104.57"/>
</a>
</g>
</g>
<!-- 14&#45;&gt;7 -->
<g id="edge16" class="edge">
<title>14&#45;&gt;7</title>
<g id="a_edge16"><a xlink:title="include">
<path fill="none" stroke="#1414ce" d="M941.46,-143.7C932.2,-135.05 920.84,-124.45 910.74,-115.03"/>
<polygon fill="#1414ce" stroke="#1414ce" points="913.02,-112.37 903.33,-108.1 908.25,-117.49 913.02,-112.37"/>
</a>
</g>
</g>
<!-- 29&#45;&gt;14 -->
<g id="edge18" class="edge">
<title>29&#45;&gt;14</title>
<g id="a_edge18"><a xlink:title="include">
<path fill="none" stroke="#1414ce" d="M1114.53,-661.46C1174.06,-655.43 1279.02,-640.91 1302,-612 1331.87,-574.43 1310.42,-551.26 1302,-504 1290.04,-436.86 1290.95,-413.77 1249,-360 1179.15,-270.48 1057.15,-206.63 996.45,-178.71"/>
<polygon fill="#1414ce" stroke="#1414ce" points="997.8,-175.48 987.25,-174.54 994.91,-181.86 997.8,-175.48"/>
</a>
</g>
</g>
<!-- 18 -->
<g id="node15" class="node">
<title>18</title>
<g id="a_node15"><a xlink:title="term.h">
<polygon fill="#ffffff" stroke="black" points="521.5,-468 456.5,-468 456.5,-432 521.5,-432 521.5,-468"/>
<text text-anchor="middle" x="489" y="-446.3" font-family="Times,serif" font-size="14.00">term.h</text>
</a>
</g>
</g>
<!-- 29&#45;&gt;18 -->
<g id="edge21" class="edge">
<title>29&#45;&gt;18</title>
<g id="a_edge21"><a xlink:title="include">
<path fill="none" stroke="#1414ce" d="M1031.46,-653.03C994.93,-642.45 940.35,-626.48 893,-612 791.78,-581.05 764.03,-579.9 666,-540 617.31,-520.18 563.67,-492.3 528.34,-473.05"/>
<polygon fill="#1414ce" stroke="#1414ce" points="529.78,-469.85 519.33,-468.11 526.41,-475.99 529.78,-469.85"/>
</a>
</g>
</g>
<!-- 2 -->
<g id="node24" class="node">
<title>2</title>
<g id="a_node24"><a xlink:title="globalcontext.h">
<polygon fill="#ffffff" stroke="black" points="1028.5,-612 901.5,-612 901.5,-576 1028.5,-576 1028.5,-612"/>
<text text-anchor="middle" x="965" y="-590.3" font-family="Times,serif" font-size="14.00">globalcontext.h</text>
</a>
</g>
</g>
<!-- 29&#45;&gt;2 -->
<g id="edge17" class="edge">
<title>29&#45;&gt;2</title>
<g id="a_edge17"><a xlink:title="include">
<path fill="none" stroke="#1414ce" d="M1046.58,-647.88C1032.59,-638.81 1015.22,-627.55 1000.11,-617.76"/>
<polygon fill="#1414ce" stroke="#1414ce" points="1001.82,-614.69 991.52,-612.19 998.01,-620.57 1001.82,-614.69"/>
</a>
</g>
</g>
<!-- 29&#45;&gt;17 -->
<g id="edge20" class="edge">
<title>29&#45;&gt;17</title>
<g id="a_edge20"><a xlink:title="include">
<path fill="none" stroke="#1414ce" d="M1097.69,-647.8C1133.96,-620.2 1195.63,-563.11 1179,-504 1137.48,-356.44 987.04,-234.84 918.92,-186.03"/>
<polygon fill="#1414ce" stroke="#1414ce" points="920.83,-183.09 910.65,-180.17 916.79,-188.8 920.83,-183.09"/>
</a>
</g>
</g>
<!-- 27 -->
<g id="node26" class="node">
<title>27</title>
<g id="a_node26"><a xlink:title="timer_list.h">
<polygon fill="#ffffff" stroke="black" points="1312,-252 1214,-252 1214,-216 1312,-216 1312,-252"/>
<text text-anchor="middle" x="1263" y="-230.3" font-family="Times,serif" font-size="14.00">timer_list.h</text>
</a>
</g>
</g>
<!-- 29&#45;&gt;27 -->
<g id="edge22" class="edge">
<title>29&#45;&gt;27</title>
<g id="a_edge22"><a xlink:title="include">
<path fill="none" stroke="#1414ce" d="M1114.62,-662.97C1182.42,-658.69 1311.96,-646.15 1340,-612 1427.04,-505.98 1324.91,-327.48 1281.08,-260.99"/>
<polygon fill="#1414ce" stroke="#1414ce" points="1283.78,-258.73 1275.31,-252.37 1277.96,-262.63 1283.78,-258.73"/>
</a>
</g>
</g>
<!-- 26 -->
<g id="node27" class="node">
<title>26</title>
<g id="a_node27"><a xlink:title="mailbox.h">
<polygon fill="#ffffff" stroke="black" points="451,-252 365,-252 365,-216 451,-216 451,-252"/>
<text text-anchor="middle" x="408" y="-230.3" font-family="Times,serif" font-size="14.00">mailbox.h</text>
</a>
</g>
</g>
<!-- 29&#45;&gt;26 -->
<g id="edge19" class="edge">
<title>29&#45;&gt;26</title>
<g id="a_edge19"><a xlink:title="include">
<path fill="none" stroke="#1414ce" d="M1031.42,-662.84C855.34,-653.17 180,-610.37 180,-523 180,-523 180,-523 180,-377 180,-295.05 287.43,-258.7 354.81,-243.96"/>
<polygon fill="#1414ce" stroke="#1414ce" points="355.78,-247.33 364.85,-241.86 354.34,-240.48 355.78,-247.33"/>
</a>
</g>
</g>
<!-- 21 -->
<g id="node12" class="node">
<title>21</title>
<g id="a_node12"><a xlink:title="memory.h">
<polygon fill="#ffffff" stroke="black" points="271,-252 185,-252 185,-216 271,-216 271,-252"/>
<text text-anchor="middle" x="228" y="-230.3" font-family="Times,serif" font-size="14.00">memory.h</text>
</a>
</g>
</g>
<!-- 21&#45;&gt;22 -->
<g id="edge27" class="edge">
<title>21&#45;&gt;22</title>
<g id="a_edge27"><a xlink:title="include">
<path fill="none" stroke="#1414ce" d="M264.45,-215.88C286.31,-205.61 314.15,-192.53 336.67,-181.95"/>
<polygon fill="#1414ce" stroke="#1414ce" points="338.4,-185 345.96,-177.58 335.42,-178.67 338.4,-185"/>
</a>
</g>
</g>
<!-- 21&#45;&gt;3 -->
<g id="edge23" class="edge">
<title>21&#45;&gt;3</title>
<g id="a_edge23"><a xlink:title="include">
<path fill="none" stroke="#1414ce" d="M231.23,-215.78C238.78,-181.07 261.19,-103.34 315,-72 366.63,-41.93 776.13,-25.34 916.21,-20.51"/>
<polygon fill="#1414ce" stroke="#1414ce" points="916.72,-23.99 926.59,-20.15 916.48,-17 916.72,-23.99"/>
</a>
</g>
</g>
<!-- 21&#45;&gt;5 -->
<g id="edge24" class="edge">
<title>21&#45;&gt;5</title>
<g id="a_edge24"><a xlink:title="include">
<path fill="none" stroke="#1414ce" d="M271.1,-224.23C310.11,-215.53 368.69,-200.51 417,-180 460.17,-161.67 506.16,-133.36 536.11,-113.61"/>
<polygon fill="#1414ce" stroke="#1414ce" points="538.11,-116.48 544.49,-108.03 534.23,-110.66 538.11,-116.48"/>
</a>
</g>
</g>
<!-- 8 -->
<g id="node17" class="node">
<title>8</title>
<g id="a_node17"><a xlink:title="erl_nif.h">
<polygon fill="#ffffff" stroke="black" points="176,-180 102,-180 102,-144 176,-144 176,-180"/>
<text text-anchor="middle" x="139" y="-158.3" font-family="Times,serif" font-size="14.00">erl_nif.h</text>
</a>
</g>
</g>
<!-- 21&#45;&gt;8 -->
<g id="edge25" class="edge">
<title>21&#45;&gt;8</title>
<g id="a_edge25"><a xlink:title="include">
<path fill="none" stroke="#1414ce" d="M206,-215.7C194.79,-206.88 181,-196.03 168.85,-186.47"/>
<polygon fill="#1414ce" stroke="#1414ce" points="170.77,-183.54 160.75,-180.1 166.44,-189.04 170.77,-183.54"/>
</a>
</g>
</g>
<!-- 9 -->
<g id="node23" class="node">
<title>9</title>
<g id="a_node23"><a xlink:title="term_typedef.h">
<polygon fill="#ffffff" stroke="black" points="213.5,-108 88.5,-108 88.5,-72 213.5,-72 213.5,-108"/>
<text text-anchor="middle" x="151" y="-86.3" font-family="Times,serif" font-size="14.00">term_typedef.h</text>
</a>
</g>
</g>
<!-- 21&#45;&gt;9 -->
<g id="edge26" class="edge">
<title>21&#45;&gt;9</title>
<g id="a_edge26"><a xlink:title="include">
<path fill="none" stroke="#1414ce" d="M220.51,-215.96C212.36,-197.82 198.66,-168.41 185,-144 179.93,-134.94 173.94,-125.3 168.41,-116.77"/>
<polygon fill="#1414ce" stroke="#1414ce" points="171.29,-114.78 162.87,-108.34 165.44,-118.62 171.29,-114.78"/>
</a>
</g>
</g>
<!-- 1 -->
<g id="node13" class="node">
<title>1</title>
<g id="a_node13"><a xlink:title="/__w/AtomVM/AtomVM/src/libAtomVM/otp_net.h">
<polygon fill="#bfbfbf" stroke="black" points="1173,-828 813,-828 813,-792 1173,-792 1173,-828"/>
<text text-anchor="middle" x="993" y="-806.3" font-family="Times,serif" font-size="14.00">/__w/AtomVM/AtomVM/src/libAtomVM/otp_net.h</text>
</a>
</g>
</g>
<!-- 1&#45;&gt;28 -->
<g id="edge29" class="edge">
<title>1&#45;&gt;28</title>
<g id="a_edge29"><a xlink:title="include">
<path fill="none" stroke="#1414ce" d="M1006.35,-791.7C1012.76,-783.39 1020.56,-773.28 1027.61,-764.14"/>
<polygon fill="#1414ce" stroke="#1414ce" points="1030.47,-766.16 1033.81,-756.1 1024.93,-761.88 1030.47,-766.16"/>
</a>
</g>
</g>
<!-- 1&#45;&gt;2 -->
<g id="edge28" class="edge">
<title>1&#45;&gt;2</title>
<g id="a_edge28"><a xlink:title="include">
<path fill="none" stroke="#1414ce" d="M990.76,-791.85C985.91,-754.83 974.44,-667.18 968.58,-622.39"/>
<polygon fill="#1414ce" stroke="#1414ce" points="972.02,-621.69 967.25,-612.23 965.08,-622.6 972.02,-621.69"/>
</a>
</g>
</g>
<!-- 25&#45;&gt;15 -->
<g id="edge35" class="edge">
<title>25&#45;&gt;15</title>
<g id="a_edge35"><a xlink:title="include">
<path fill="none" stroke="#1414ce" d="M598.02,-294.67C661.31,-281.6 769.81,-259.2 834.33,-245.88"/>
<polygon fill="#1414ce" stroke="#1414ce" points="835.21,-249.27 844.29,-243.82 833.79,-242.41 835.21,-249.27"/>
</a>
</g>
</g>
<!-- 25&#45;&gt;14 -->
<g id="edge32" class="edge">
<title>25&#45;&gt;14</title>
<g id="a_edge32"><a xlink:title="include">
<path fill="none" stroke="#1414ce" d="M598.26,-290.4C669.18,-269.33 802.55,-228.03 923.23,-180.1"/>
<polygon fill="#1414ce" stroke="#1414ce" points="924.65,-183.3 932.63,-176.34 922.05,-176.8 924.65,-183.3"/>
</a>
</g>
</g>
<!-- 25&#45;&gt;5 -->
<g id="edge30" class="edge">
<title>25&#45;&gt;5</title>
<g id="a_edge30"><a xlink:title="include">
<path fill="none" stroke="#1414ce" d="M550.62,-287.65C554.16,-263.56 560.45,-218.56 564,-180 565.9,-159.33 567.18,-135.88 567.97,-118.24"/>
<polygon fill="#1414ce" stroke="#1414ce" points="571.48,-118.23 568.4,-108.09 564.48,-117.93 571.48,-118.23"/>
</a>
</g>
</g>
<!-- 25&#45;&gt;21 -->
<g id="edge34" class="edge">
<title>25&#45;&gt;21</title>
<g id="a_edge34"><a xlink:title="include">
<path fill="none" stroke="#1414ce" d="M497.65,-293.99C438.75,-281.1 341.65,-259.86 281.45,-246.69"/>
<polygon fill="#1414ce" stroke="#1414ce" points="281.9,-243.21 271.39,-244.49 280.41,-250.05 281.9,-243.21"/>
</a>
</g>
</g>
<!-- 25&#45;&gt;8 -->
<g id="edge31" class="edge">
<title>25&#45;&gt;8</title>
<g id="a_edge31"><a xlink:title="include">
<path fill="none" stroke="#1414ce" d="M497.76,-303.86C408.08,-300.88 225.25,-290.16 176,-252 156.74,-237.08 147.42,-210.33 142.96,-190.05"/>
<polygon fill="#1414ce" stroke="#1414ce" points="146.38,-189.28 141.05,-180.12 139.5,-190.61 146.38,-189.28"/>
</a>
</g>
</g>
<!-- 25&#45;&gt;26 -->
<g id="edge33" class="edge">
<title>25&#45;&gt;26</title>
<g id="a_edge33"><a xlink:title="include">
<path fill="none" stroke="#1414ce" d="M513.75,-287.88C494.94,-278.47 471.42,-266.71 451.33,-256.67"/>
<polygon fill="#1414ce" stroke="#1414ce" points="452.89,-253.53 442.38,-252.19 449.76,-259.79 452.89,-253.53"/>
</a>
</g>
</g>
<!-- 18&#45;&gt;7 -->
<g id="edge37" class="edge">
<title>18&#45;&gt;7</title>
<g id="a_edge37"><a xlink:title="include">
<path fill="none" stroke="#1414ce" d="M521.77,-447.17C587.26,-442.81 730.97,-429.59 765,-396 823.13,-338.63 772.04,-291.98 802,-216 816.88,-178.28 844.34,-140.22 863.59,-116.18"/>
<polygon fill="#1414ce" stroke="#1414ce" points="866.42,-118.24 870.03,-108.28 861,-113.82 866.42,-118.24"/>
</a>
</g>
</g>
<!-- 18&#45;&gt;24 -->
<g id="edge43" class="edge">
<title>18&#45;&gt;24</title>
<g id="a_edge43"><a xlink:title="include">
<path fill="none" stroke="#1414ce" d="M521.81,-438.22C553.34,-427.86 601.75,-411.95 640.45,-399.23"/>
<polygon fill="#1414ce" stroke="#1414ce" points="641.66,-402.51 650.07,-396.07 639.48,-395.86 641.66,-402.51"/>
</a>
</g>
</g>
<!-- 18&#45;&gt;22 -->
<g id="edge44" class="edge">
<title>18&#45;&gt;22</title>
<g id="a_edge44"><a xlink:title="include">
<path fill="none" stroke="#1414ce" d="M456.32,-445.32C426.06,-440.01 382.59,-427.13 361,-396 317.29,-332.99 346.9,-235.92 365.35,-189.5"/>
<polygon fill="#1414ce" stroke="#1414ce" points="368.63,-190.71 369.19,-180.13 362.16,-188.05 368.63,-190.71"/>
</a>
</g>
</g>
<!-- 18&#45;&gt;3 -->
<g id="edge38" class="edge">
<title>18&#45;&gt;3</title>
<g id="a_edge38"><a xlink:title="include">
<path fill="none" stroke="#1414ce" d="M521.65,-440.69C546.38,-432.87 579.64,-418.88 601,-396 653.43,-339.82 664,-311.84 664,-235 664,-235 664,-235 664,-161 664,-50.39 833.02,-25.84 916.9,-20.46"/>
<polygon fill="#1414ce" stroke="#1414ce" points="917.15,-23.95 926.93,-19.88 916.75,-16.96 917.15,-23.95"/>
</a>
</g>
</g>
<!-- 18&#45;&gt;5 -->
<g id="edge40" class="edge">
<title>18&#45;&gt;5</title>
<g id="a_edge40"><a xlink:title="include">
<path fill="none" stroke="#1414ce" d="M456.27,-440C434.72,-432.18 408.14,-418.49 395,-396 386.93,-382.18 390.47,-375.35 395,-360 399.04,-346.31 508.55,-181.51 551.73,-116.82"/>
<polygon fill="#1414ce" stroke="#1414ce" points="554.72,-118.65 557.37,-108.39 548.9,-114.76 554.72,-118.65"/>
</a>
</g>
</g>
<!-- 18&#45;&gt;21 -->
<g id="edge42" class="edge">
<title>18&#45;&gt;21</title>
<g id="a_edge42"><a xlink:title="include">
<path fill="none" stroke="#1414ce" d="M456.34,-449.48C411.98,-448.36 332.73,-439.79 285,-396 246.68,-360.85 234.12,-298.31 230,-262.4"/>
<polygon fill="#1414ce" stroke="#1414ce" points="233.45,-261.77 228.97,-252.17 226.49,-262.47 233.45,-261.77"/>
</a>
</g>
</g>
<!-- 19 -->
<g id="node21" class="node">
<title>19</title>
<g id="a_node21"><a xlink:title="sys/types.h">
<polygon fill="#ffffff" stroke="black" points="500.5,-396 403.5,-396 403.5,-360 500.5,-360 500.5,-396"/>
<text text-anchor="middle" x="452" y="-374.3" font-family="Times,serif" font-size="14.00">sys/types.h</text>
</a>
</g>
</g>
<!-- 18&#45;&gt;19 -->
<g id="edge36" class="edge">
<title>18&#45;&gt;19</title>
<g id="a_edge36"><a xlink:title="include">
<path fill="none" stroke="#1414ce" d="M479.85,-431.7C475.6,-423.64 470.44,-413.89 465.73,-404.98"/>
<polygon fill="#1414ce" stroke="#1414ce" points="468.81,-403.31 461.04,-396.1 462.62,-406.58 468.81,-403.31"/>
</a>
</g>
</g>
<!-- 20 -->
<g id="node22" class="node">
<title>20</title>
<g id="a_node22"><a xlink:title="string.h">
<polygon fill="#ffffff" stroke="black" points="591.5,-396 518.5,-396 518.5,-360 591.5,-360 591.5,-396"/>
<text text-anchor="middle" x="555" y="-374.3" font-family="Times,serif" font-size="14.00">string.h</text>
</a>
</g>
</g>
<!-- 18&#45;&gt;20 -->
<g id="edge41" class="edge">
<title>18&#45;&gt;20</title>
<g id="a_edge41"><a xlink:title="include">
<path fill="none" stroke="#1414ce" d="M505.31,-431.7C513.31,-423.22 523.07,-412.86 531.82,-403.58"/>
<polygon fill="#1414ce" stroke="#1414ce" points="534.56,-405.78 538.87,-396.1 529.47,-400.98 534.56,-405.78"/>
</a>
</g>
</g>
<!-- 18&#45;&gt;9 -->
<g id="edge45" class="edge">
<title>18&#45;&gt;9</title>
<g id="a_edge45"><a xlink:title="include">
<path fill="none" stroke="#1414ce" d="M456.17,-448.48C408.42,-446.28 318.71,-436.55 256,-396 155.01,-330.7 131.2,-294.04 93,-180 87.92,-164.83 86.55,-158.64 93,-144 97.99,-132.69 106.71,-122.74 115.9,-114.62"/>
<polygon fill="#1414ce" stroke="#1414ce" points="118.17,-117.28 123.66,-108.23 113.72,-111.88 118.17,-117.28"/>
</a>
</g>
</g>
<!-- 18&#45;&gt;16 -->
<g id="edge39" class="edge">
<title>18&#45;&gt;16</title>
<g id="a_edge39"><a xlink:title="include">
<path fill="none" stroke="#1414ce" d="M456.38,-447.28C421.54,-443.54 367.64,-431.9 340,-396 275.77,-312.57 320.81,-175.05 344.25,-117.56"/>
<polygon fill="#1414ce" stroke="#1414ce" points="347.58,-118.67 348.21,-108.1 341.12,-115.97 347.58,-118.67"/>
</a>
</g>
</g>
<!-- 8&#45;&gt;9 -->
<g id="edge46" class="edge">
<title>8&#45;&gt;9</title>
<g id="a_edge46"><a xlink:title="include">
<path fill="none" stroke="#1414ce" d="M141.97,-143.7C143.29,-135.98 144.88,-126.71 146.35,-118.11"/>
<polygon fill="#1414ce" stroke="#1414ce" points="149.83,-118.55 148.07,-108.1 142.93,-117.37 149.83,-118.55"/>
</a>
</g>
</g>
<!-- 30&#45;&gt;18 -->
<g id="edge47" class="edge">
<title>30&#45;&gt;18</title>
<g id="a_edge47"><a xlink:title="include">
<path fill="none" stroke="#1414ce" d="M125.82,-575.87C207.74,-547.7 369.48,-492.09 446.41,-465.64"/>
<polygon fill="#1414ce" stroke="#1414ce" points="447.93,-468.82 456.25,-462.26 445.65,-462.2 447.93,-468.82"/>
</a>
</g>
</g>
<!-- 11 -->
<g id="node19" class="node">
<title>11</title>
<g id="a_node19"><a xlink:title="limits.h">
<polygon fill="#ffffff" stroke="black" points="186.5,-36 115.5,-36 115.5,0 186.5,0 186.5,-36"/>
<text text-anchor="middle" x="151" y="-14.3" font-family="Times,serif" font-size="14.00">limits.h</text>
</a>
</g>
</g>
<!-- 6 -->
<g id="node20" class="node">
<title>6</title>
<g id="a_node20"><a xlink:title="atom_table.h">
<polygon fill="#ffffff" stroke="black" points="1069.5,-540 960.5,-540 960.5,-504 1069.5,-504 1069.5,-540"/>
<text text-anchor="middle" x="1015" y="-518.3" font-family="Times,serif" font-size="14.00">atom_table.h</text>
</a>
</g>
</g>
<!-- 6&#45;&gt;7 -->
<g id="edge48" class="edge">
<title>6&#45;&gt;7</title>
<g id="a_edge48"><a xlink:title="include">
<path fill="none" stroke="#1414ce" d="M1018.04,-503.8C1029.29,-438.02 1065.84,-203.13 1025,-144 1005.21,-115.35 967.78,-102.17 936.6,-96.11"/>
<polygon fill="#1414ce" stroke="#1414ce" points="937.18,-92.66 926.72,-94.39 935.97,-99.56 937.18,-92.66"/>
</a>
</g>
</g>
<!-- 6&#45;&gt;4 -->
<g id="edge49" class="edge">
<title>6&#45;&gt;4</title>
<g id="a_edge49"><a xlink:title="include">
<path fill="none" stroke="#1414ce" d="M1030.08,-503.7C1037.39,-495.3 1046.31,-485.07 1054.34,-475.86"/>
<polygon fill="#1414ce" stroke="#1414ce" points="1057.16,-477.94 1061.09,-468.1 1051.89,-473.34 1057.16,-477.94"/>
</a>
</g>
</g>
<!-- 9&#45;&gt;10 -->
<g id="edge50" class="edge">
<title>9&#45;&gt;10</title>
<g id="a_edge50"><a xlink:title="include">
<path fill="none" stroke="#1414ce" d="M128.51,-71.7C117.04,-62.88 102.94,-52.03 90.52,-42.47"/>
<polygon fill="#1414ce" stroke="#1414ce" points="92.3,-39.43 82.24,-36.1 88.03,-44.98 92.3,-39.43"/>
</a>
</g>
</g>
<!-- 9&#45;&gt;3 -->
<g id="edge53" class="edge">
<title>9&#45;&gt;3</title>
<g id="a_edge53"><a xlink:title="include">
<path fill="none" stroke="#1414ce" d="M213.89,-74.33C218.65,-73.46 223.39,-72.67 228,-72 486.42,-34.36 800.04,-23.05 916.53,-20.01"/>
<polygon fill="#1414ce" stroke="#1414ce" points="916.95,-23.5 926.85,-19.75 916.77,-16.5 916.95,-23.5"/>
</a>
</g>
</g>
<!-- 9&#45;&gt;11 -->
<g id="edge51" class="edge">
<title>9&#45;&gt;11</title>
<g id="a_edge51"><a xlink:title="include">
<path fill="none" stroke="#1414ce" d="M151,-71.7C151,-63.98 151,-54.71 151,-46.11"/>
<polygon fill="#1414ce" stroke="#1414ce" points="154.5,-46.1 151,-36.1 147.5,-46.1 154.5,-46.1"/>
</a>
</g>
</g>
<!-- 12 -->
<g id="node30" class="node">
<title>12</title>
<g id="a_node30"><a xlink:title="inttypes.h">
<polygon fill="#ffffff" stroke="black" points="293.5,-36 204.5,-36 204.5,0 293.5,0 293.5,-36"/>
<text text-anchor="middle" x="249" y="-14.3" font-family="Times,serif" font-size="14.00">inttypes.h</text>
</a>
</g>
</g>
<!-- 9&#45;&gt;12 -->
<g id="edge52" class="edge">
<title>9&#45;&gt;12</title>
<g id="a_edge52"><a xlink:title="include">
<path fill="none" stroke="#1414ce" d="M174.97,-71.88C187.55,-62.89 203.13,-51.76 216.75,-42.03"/>
<polygon fill="#1414ce" stroke="#1414ce" points="218.83,-44.85 224.93,-36.19 214.76,-39.15 218.83,-44.85"/>
</a>
</g>
</g>
<!-- 2&#45;&gt;4 -->
<g id="edge55" class="edge">
<title>2&#45;&gt;4</title>
<g id="a_edge55"><a xlink:title="include">
<path fill="none" stroke="#1414ce" d="M1028.53,-577.96C1048.09,-570.03 1067.5,-558.03 1079,-540 1090.65,-521.74 1088.65,-496.82 1084.45,-478"/>
<polygon fill="#1414ce" stroke="#1414ce" points="1087.83,-477.07 1081.97,-468.24 1081.05,-478.8 1087.83,-477.07"/>
</a>
</g>
</g>
<!-- 2&#45;&gt;15 -->
<g id="edge62" class="edge">
<title>2&#45;&gt;15</title>
<g id="a_edge62"><a xlink:title="include">
<path fill="none" stroke="#1414ce" d="M919.45,-575.98C903.75,-567.66 887.89,-555.93 879,-540 828.19,-449 860.21,-317.72 877.75,-261.82"/>
<polygon fill="#1414ce" stroke="#1414ce" points="881.08,-262.88 880.83,-252.29 874.42,-260.73 881.08,-262.88"/>
</a>
</g>
</g>
<!-- 2&#45;&gt;14 -->
<g id="edge59" class="edge">
<title>2&#45;&gt;14</title>
<g id="a_edge59"><a xlink:title="include">
<path fill="none" stroke="#1414ce" d="M1028.72,-580.04C1053.04,-572.16 1079.17,-559.67 1097,-540 1129.84,-503.77 1130.83,-479.19 1118,-432 1091.04,-332.86 1017.28,-232.94 980.88,-187.84"/>
<polygon fill="#1414ce" stroke="#1414ce" points="983.57,-185.6 974.54,-180.07 978.15,-190.03 983.57,-185.6"/>
</a>
</g>
</g>
<!-- 2&#45;&gt;3 -->
<g id="edge54" class="edge">
<title>2&#45;&gt;3</title>
<g id="a_edge54"><a xlink:title="include">
<path fill="none" stroke="#1414ce" d="M1028.92,-587.56C1073.68,-581.37 1133.41,-568.16 1179,-540 1294.86,-468.43 1378,-443.18 1378,-307 1378,-307 1378,-307 1378,-161 1378,-96.72 1322.73,-98.13 1264,-72 1179.45,-34.38 1070.39,-23.42 1009.47,-20.26"/>
<polygon fill="#1414ce" stroke="#1414ce" points="1009.55,-16.76 999.39,-19.78 1009.22,-23.75 1009.55,-16.76"/>
</a>
</g>
</g>
<!-- 2&#45;&gt;18 -->
<g id="edge63" class="edge">
<title>2&#45;&gt;18</title>
<g id="a_edge63"><a xlink:title="include">
<path fill="none" stroke="#1414ce" d="M907.58,-575.87C810.66,-546.96 616.8,-489.13 531.24,-463.6"/>
<polygon fill="#1414ce" stroke="#1414ce" points="532.18,-460.23 521.6,-460.73 530.18,-466.94 532.18,-460.23"/>
</a>
</g>
</g>
<!-- 2&#45;&gt;8 -->
<g id="edge57" class="edge">
<title>2&#45;&gt;8</title>
<g id="a_edge57"><a xlink:title="include">
<path fill="none" stroke="#1414ce" d="M901.35,-589.11C794.09,-581.96 582.17,-565.13 512,-540 392.42,-497.17 150.55,-256.88 148,-252 138.08,-233.01 136.24,-208.65 136.65,-190.22"/>
<polygon fill="#1414ce" stroke="#1414ce" points="140.15,-190.28 137.1,-180.13 133.15,-189.96 140.15,-190.28"/>
</a>
</g>
</g>
<!-- 2&#45;&gt;6 -->
<g id="edge56" class="edge">
<title>2&#45;&gt;6</title>
<g id="a_edge56"><a xlink:title="include">
<path fill="none" stroke="#1414ce" d="M977.36,-575.7C983.23,-567.47 990.37,-557.48 996.84,-548.42"/>
<polygon fill="#1414ce" stroke="#1414ce" points="999.82,-550.28 1002.78,-540.1 994.12,-546.21 999.82,-550.28"/>
</a>
</g>
</g>
<!-- 2&#45;&gt;17 -->
<g id="edge61" class="edge">
<title>2&#45;&gt;17</title>
<g id="a_edge61"><a xlink:title="include">
<path fill="none" stroke="#1414ce" d="M908.6,-575.93C890.53,-567.8 872.09,-556.2 860,-540 816.83,-482.13 809.68,-283.23 836,-216 840.2,-205.28 847.69,-195.43 855.58,-187.2"/>
<polygon fill="#1414ce" stroke="#1414ce" points="858.12,-189.61 862.85,-180.13 853.24,-184.59 858.12,-189.61"/>
</a>
</g>
</g>
<!-- 2&#45;&gt;27 -->
<g id="edge64" class="edge">
<title>2&#45;&gt;27</title>
<g id="a_edge64"><a xlink:title="include">
<path fill="none" stroke="#1414ce" d="M1028.63,-589.1C1068.02,-583.53 1117.17,-570.43 1150,-540 1232.46,-463.57 1255.01,-321.53 1260.96,-262.17"/>
<polygon fill="#1414ce" stroke="#1414ce" points="1264.45,-262.36 1261.88,-252.08 1257.48,-261.72 1264.45,-262.36"/>
</a>
</g>
</g>
<!-- 2&#45;&gt;26 -->
<g id="edge60" class="edge">
<title>2&#45;&gt;26</title>
<g id="a_edge60"><a xlink:title="include">
<path fill="none" stroke="#1414ce" d="M901.36,-591.45C797.88,-586.08 590.39,-563.22 448,-468 412.9,-444.52 400.7,-435.59 386,-396 369.26,-350.9 384.58,-294.43 396.68,-261.77"/>
<polygon fill="#1414ce" stroke="#1414ce" points="400.1,-262.63 400.45,-252.04 393.58,-260.1 400.1,-262.63"/>
</a>
</g>
</g>
<!-- 13 -->
<g id="node29" class="node">
<title>13</title>
<g id="a_node29"><a xlink:title="ets.h">
<polygon fill="#ffffff" stroke="black" points="942,-540 888,-540 888,-504 942,-504 942,-540"/>
<text text-anchor="middle" x="915" y="-518.3" font-family="Times,serif" font-size="14.00">ets.h</text>
</a>
</g>
</g>
<!-- 2&#45;&gt;13 -->
<g id="edge58" class="edge">
<title>2&#45;&gt;13</title>
<g id="a_edge58"><a xlink:title="include">
<path fill="none" stroke="#1414ce" d="M952.64,-575.7C946.77,-567.47 939.63,-557.48 933.16,-548.42"/>
<polygon fill="#1414ce" stroke="#1414ce" points="935.88,-546.21 927.22,-540.1 930.18,-550.28 935.88,-546.21"/>
</a>
</g>
</g>
<!-- 17&#45;&gt;7 -->
<g id="edge65" class="edge">
<title>17&#45;&gt;7</title>
<g id="a_edge65"><a xlink:title="include">
<path fill="none" stroke="#1414ce" d="M885,-143.7C885,-135.98 885,-126.71 885,-118.11"/>
<polygon fill="#1414ce" stroke="#1414ce" points="888.5,-118.1 885,-108.1 881.5,-118.1 888.5,-118.1"/>
</a>
</g>
</g>
<!-- 27&#45;&gt;7 -->
<g id="edge66" class="edge">
<title>27&#45;&gt;7</title>
<g id="a_edge66"><a xlink:title="include">
<path fill="none" stroke="#1414ce" d="M1255.84,-215.77C1246.31,-195.14 1227.41,-161.22 1200,-144 1157.02,-117.01 1014.48,-101.52 936.71,-94.88"/>
<polygon fill="#1414ce" stroke="#1414ce" points="936.9,-91.39 926.64,-94.04 936.32,-98.36 936.9,-91.39"/>
</a>
</g>
</g>
<!-- 27&#45;&gt;14 -->
<g id="edge68" class="edge">
<title>27&#45;&gt;14</title>
<g id="a_edge68"><a xlink:title="include">
<path fill="none" stroke="#1414ce" d="M1213.98,-221.68C1153.4,-207.68 1051.67,-184.18 997.15,-171.58"/>
<polygon fill="#1414ce" stroke="#1414ce" points="997.76,-168.13 987.23,-169.29 996.18,-174.95 997.76,-168.13"/>
</a>
</g>
</g>
<!-- 27&#45;&gt;3 -->
<g id="edge67" class="edge">
<title>27&#45;&gt;3</title>
<g id="a_edge67"><a xlink:title="include">
<path fill="none" stroke="#1414ce" d="M1260.85,-215.9C1257.57,-196.34 1249.6,-164.38 1231,-144 1170.64,-77.86 1068.13,-43.82 1008.92,-28.84"/>
<polygon fill="#1414ce" stroke="#1414ce" points="1009.64,-25.42 999.1,-26.43 1007.97,-32.22 1009.64,-25.42"/>
</a>
</g>
</g>
<!-- 26&#45;&gt;7 -->
<g id="edge69" class="edge">
<title>26&#45;&gt;7</title>
<g id="a_edge69"><a xlink:title="include">
<path fill="none" stroke="#1414ce" d="M451.46,-218.52C506.36,-200.38 603.81,-168.69 688,-144 737.19,-129.57 793.73,-114.52 833.58,-104.16"/>
<polygon fill="#1414ce" stroke="#1414ce" points="834.54,-107.52 843.34,-101.63 832.78,-100.75 834.54,-107.52"/>
</a>
</g>
</g>
<!-- 26&#45;&gt;22 -->
<g id="edge72" class="edge">
<title>26&#45;&gt;22</title>
<g id="a_edge72"><a xlink:title="include">
<path fill="none" stroke="#1414ce" d="M400.34,-215.7C396.81,-207.73 392.54,-198.1 388.63,-189.26"/>
<polygon fill="#1414ce" stroke="#1414ce" points="391.82,-187.83 384.57,-180.1 385.42,-190.67 391.82,-187.83"/>
</a>
</g>
</g>
<!-- 26&#45;&gt;14 -->
<g id="edge70" class="edge">
<title>26&#45;&gt;14</title>
<g id="a_edge70"><a xlink:title="include">
<path fill="none" stroke="#1414ce" d="M451.04,-233.44C539.13,-233.31 745.89,-227.71 923.1,-179.68"/>
<polygon fill="#1414ce" stroke="#1414ce" points="924.15,-183.02 932.85,-176.99 922.28,-176.28 924.15,-183.02"/>
</a>
</g>
</g>
<!-- 26&#45;&gt;9 -->
<g id="edge71" class="edge">
<title>26&#45;&gt;9</title>
<g id="a_edge71"><a xlink:title="include">
<path fill="none" stroke="#1414ce" d="M377,-215.87C330.4,-190.12 242.3,-141.45 190.95,-113.07"/>
<polygon fill="#1414ce" stroke="#1414ce" points="192.56,-109.96 182.11,-108.19 189.17,-116.09 192.56,-109.96"/>
</a>
</g>
</g>
<!-- 13&#45;&gt;15 -->
<g id="edge74" class="edge">
<title>13&#45;&gt;15</title>
<g id="a_edge74"><a xlink:title="include">
<path fill="none" stroke="#1414ce" d="M916.11,-503.84C918.23,-464.99 921.4,-367.48 906,-288 904.31,-279.27 901.42,-270.05 898.4,-261.79"/>
<polygon fill="#1414ce" stroke="#1414ce" points="901.59,-260.35 894.71,-252.29 895.06,-262.88 901.59,-260.35"/>
</a>
</g>
</g>
<!-- 13&#45;&gt;14 -->
<g id="edge73" class="edge">
<title>13&#45;&gt;14</title>
<g id="a_edge73"><a xlink:title="include">
<path fill="none" stroke="#1414ce" d="M920.89,-504C924.27,-493.69 928.35,-480.21 931,-468 951.51,-373.33 953.54,-348.65 960,-252 961.38,-231.32 961.32,-207.87 960.94,-190.24"/>
<polygon fill="#1414ce" stroke="#1414ce" points="964.43,-189.99 960.68,-180.08 957.44,-190.17 964.43,-189.99"/>
</a>
</g>
</g>
<!-- 13&#45;&gt;18 -->
<g id="edge75" class="edge">
<title>13&#45;&gt;18</title>
<g id="a_edge75"><a xlink:title="include">
<path fill="none" stroke="#1414ce" d="M887.7,-516.51C815.53,-504.66 619.23,-472.4 531.89,-458.05"/>
<polygon fill="#1414ce" stroke="#1414ce" points="532.23,-454.56 521.8,-456.39 531.1,-461.46 532.23,-454.56"/>
</a>
</g>
</g>
</g>
</svg>
