<?xml version="1.0" encoding="UTF-8" standalone="no"?>
<!DOCTYPE svg PUBLIC "-//W3C//DTD SVG 1.1//EN"
 "http://www.w3.org/Graphics/SVG/1.1/DTD/svg11.dtd">
<!-- Generated by graphviz version 2.43.0 (0)
 -->
<!-- Title: %3 Pages: 1 -->
<svg width="3047pt" height="188pt"
 viewBox="0.00 0.00 3047.00 188.00" xmlns="http://www.w3.org/2000/svg" xmlns:xlink="http://www.w3.org/1999/xlink">
<g id="graph0" class="graph" transform="scale(1 1) rotate(0) translate(4 184)">
<title>%3</title>
<polygon fill="transparent" stroke="transparent" points="-4,4 -4,-184 3043,-184 3043,4 -4,4"/>
<!-- 5 -->
<g id="node1" class="node">
<title>5</title>
<g id="a_node1"><a xlink:title="/__w/AtomVM/AtomVM/src/libAtomVM/nifs.c">
<polygon fill="#ffffff" stroke="black" points="332,-36 0,-36 0,0 332,0 332,-36"/>
<text text-anchor="middle" x="166" y="-14.3" font-family="Times,serif" font-size="14.00">/__w/AtomVM/AtomVM/src/libAtomVM/nifs.c</text>
</a>
</g>
</g>
<!-- 10 -->
<g id="node2" class="node">
<title>10</title>
<g id="a_node2"><a xlink:title="/__w/AtomVM/AtomVM/src/libAtomVM/context.c">
<polygon fill="#ffffff" stroke="black" points="1427.5,-36 1068.5,-36 1068.5,0 1427.5,0 1427.5,-36"/>
<text text-anchor="middle" x="1248" y="-14.3" font-family="Times,serif" font-size="14.00">/__w/AtomVM/AtomVM/src/libAtomVM/context.c</text>
</a>
</g>
</g>
<!-- 3 -->
<g id="node3" class="node">
<title>3</title>
<g id="a_node3"><a xlink:title="/__w/AtomVM/AtomVM/src/libAtomVM/bif.c">
<polygon fill="#ffffff" stroke="black" points="673.5,-36 350.5,-36 350.5,0 673.5,0 673.5,-36"/>
<text text-anchor="middle" x="512" y="-14.3" font-family="Times,serif" font-size="14.00">/__w/AtomVM/AtomVM/src/libAtomVM/bif.c</text>
</a>
</g>
</g>
<!-- 2 -->
<g id="node4" class="node">
<title>2</title>
<g id="a_node4"><a xlink:title="/__w/AtomVM/AtomVM/src/libAtomVM/bif.h">
<polygon fill="#ffffff" stroke="black" points="937.5,-108 612.5,-108 612.5,-72 937.5,-72 937.5,-108"/>
<text text-anchor="middle" x="775" y="-86.3" font-family="Times,serif" font-size="14.00">/__w/AtomVM/AtomVM/src/libAtomVM/bif.h</text>
</a>
</g>
</g>
<!-- 2&#45;&gt;5 -->
<g id="edge3" class="edge">
<title>2&#45;&gt;5</title>
<g id="a_edge3"><a xlink:title="include">
<path fill="none" stroke="#1414ce" d="M616.68,-70.8C523.23,-60.06 405.68,-46.55 314.07,-36.02"/>
<polygon fill="#1414ce" stroke="#1414ce" points="616.47,-74.3 626.8,-71.97 617.27,-67.35 616.47,-74.3"/>
</a>
</g>
</g>
<!-- 2&#45;&gt;3 -->
<g id="edge1" class="edge">
<title>2&#45;&gt;3</title>
<g id="a_edge1"><a xlink:title="include">
<path fill="none" stroke="#1414ce" d="M701.21,-69.36C661.91,-58.9 614.04,-46.16 576.29,-36.11"/>
<polygon fill="#1414ce" stroke="#1414ce" points="700.44,-72.78 711,-71.97 702.24,-66.01 700.44,-72.78"/>
</a>
</g>
</g>
<!-- 4 -->
<g id="node6" class="node">
<title>4</title>
<g id="a_node6"><a xlink:title="/__w/AtomVM/AtomVM/src/libAtomVM/module.c">
<polygon fill="#ffffff" stroke="black" points="1050,-36 692,-36 692,0 1050,0 1050,-36"/>
<text text-anchor="middle" x="871" y="-14.3" font-family="Times,serif" font-size="14.00">/__w/AtomVM/AtomVM/src/libAtomVM/module.c</text>
</a>
</g>
</g>
<!-- 2&#45;&gt;4 -->
<g id="edge2" class="edge">
<title>2&#45;&gt;4</title>
<g id="a_edge2"><a xlink:title="include">
<path fill="none" stroke="#1414ce" d="M807.11,-65.59C820.34,-55.94 835.38,-44.97 847.54,-36.1"/>
<polygon fill="#1414ce" stroke="#1414ce" points="804.75,-62.98 798.73,-71.7 808.87,-68.63 804.75,-62.98"/>
</a>
</g>
</g>
<!-- 9 -->
<g id="node5" class="node">
<title>9</title>
<g id="a_node5"><a xlink:title="/__w/AtomVM/AtomVM/src/libAtomVM/sys.h">
<polygon fill="#ffffff" stroke="black" points="1368,-108 1038,-108 1038,-72 1368,-72 1368,-108"/>
<text text-anchor="middle" x="1203" y="-86.3" font-family="Times,serif" font-size="14.00">/__w/AtomVM/AtomVM/src/libAtomVM/sys.h</text>
</a>
</g>
</g>
<!-- 9&#45;&gt;5 -->
<g id="edge7" class="edge">
<title>9&#45;&gt;5</title>
<g id="a_edge7"><a xlink:title="include">
<path fill="none" stroke="#1414ce" d="M1027.46,-77.18C1000.52,-75.41 973.02,-73.64 947,-72 677.72,-55.06 609.99,-57.05 341,-36 338.11,-35.77 335.19,-35.54 332.25,-35.3"/>
<polygon fill="#1414ce" stroke="#1414ce" points="1027.55,-80.69 1037.76,-77.86 1028.01,-73.71 1027.55,-80.69"/>
</a>
</g>
</g>
<!-- 9&#45;&gt;10 -->
<g id="edge4" class="edge">
<title>9&#45;&gt;10</title>
<g id="a_edge4"><a xlink:title="include">
<path fill="none" stroke="#1414ce" d="M1219.66,-63.08C1225.45,-54.08 1231.79,-44.21 1237,-36.1"/>
<polygon fill="#1414ce" stroke="#1414ce" points="1216.59,-61.39 1214.12,-71.7 1222.48,-65.18 1216.59,-61.39"/>
</a>
</g>
</g>
<!-- 9&#45;&gt;4 -->
<g id="edge6" class="edge">
<title>9&#45;&gt;4</title>
<g id="a_edge6"><a xlink:title="include">
<path fill="none" stroke="#1414ce" d="M1112.34,-69.88C1062.18,-59.31 1000.37,-46.28 951.87,-36.05"/>
<polygon fill="#1414ce" stroke="#1414ce" points="1111.7,-73.33 1122.21,-71.97 1113.15,-66.48 1111.7,-73.33"/>
</a>
</g>
</g>
<!-- 13 -->
<g id="node8" class="node">
<title>13</title>
<g id="a_node8"><a xlink:title="/__w/AtomVM/AtomVM/src/libAtomVM/resources.c">
<polygon fill="#ffffff" stroke="black" points="1820.5,-36 1445.5,-36 1445.5,0 1820.5,0 1820.5,-36"/>
<text text-anchor="middle" x="1633" y="-14.3" font-family="Times,serif" font-size="14.00">/__w/AtomVM/AtomVM/src/libAtomVM/resources.c</text>
</a>
</g>
</g>
<!-- 9&#45;&gt;13 -->
<g id="edge9" class="edge">
<title>9&#45;&gt;13</title>
<g id="a_edge9"><a xlink:title="include">
<path fill="none" stroke="#1414ce" d="M1317.59,-70.35C1383.05,-59.69 1464.52,-46.43 1528.26,-36.05"/>
<polygon fill="#1414ce" stroke="#1414ce" points="1316.95,-66.9 1307.64,-71.97 1318.07,-73.81 1316.95,-66.9"/>
</a>
</g>
</g>
<!-- 11 -->
<g id="node10" class="node">
<title>11</title>
<g id="a_node10"><a xlink:title="/__w/AtomVM/AtomVM/src/libAtomVM/globalcontext.c">
<polygon fill="#ffffff" stroke="black" points="2241,-36 1839,-36 1839,0 2241,0 2241,-36"/>
<text text-anchor="middle" x="2040" y="-14.3" font-family="Times,serif" font-size="14.00">/__w/AtomVM/AtomVM/src/libAtomVM/globalcontext.c</text>
</a>
</g>
</g>
<!-- 9&#45;&gt;11 -->
<g id="edge5" class="edge">
<title>9&#45;&gt;11</title>
<g id="a_edge5"><a xlink:title="include">
<path fill="none" stroke="#1414ce" d="M1378.33,-71.89C1579.85,-54.11 1631.92,-51.89 1830,-36 1832.92,-35.77 1835.86,-35.53 1838.81,-35.29"/>
<polygon fill="#1414ce" stroke="#1414ce" points="1377.96,-68.41 1368.31,-72.78 1378.58,-75.38 1377.96,-68.41"/>
</a>
</g>
</g>
<!-- 12 -->
<g id="node12" class="node">
<title>12</title>
<g id="a_node12"><a xlink:title="/__w/AtomVM/AtomVM/src/libAtomVM/otp_socket.c">
<polygon fill="#ffffff" stroke="black" points="2640.5,-36 2259.5,-36 2259.5,0 2640.5,0 2640.5,-36"/>
<text text-anchor="middle" x="2450" y="-14.3" font-family="Times,serif" font-size="14.00">/__w/AtomVM/AtomVM/src/libAtomVM/otp_socket.c</text>
</a>
</g>
</g>
<!-- 9&#45;&gt;12 -->
<g id="edge8" class="edge">
<title>9&#45;&gt;12</title>
<g id="a_edge8"><a xlink:title="include">
<path fill="none" stroke="#1414ce" d="M1378.39,-71.93C1766.09,-45.37 1865.75,-60.24 2250,-36 2253.13,-35.8 2256.29,-35.6 2259.47,-35.39"/>
<polygon fill="#1414ce" stroke="#1414ce" points="1378.03,-68.44 1368.3,-72.62 1378.52,-75.43 1378.03,-68.44"/>
</a>
</g>
</g>
<!-- 1 -->
<g id="node7" class="node">
<title>1</title>
<g id="a_node7"><a xlink:title="/__w/AtomVM/AtomVM/src/libAtomVM/module.h">
<polygon fill="#bfbfbf" stroke="black" points="1144.5,-180 785.5,-180 785.5,-144 1144.5,-144 1144.5,-180"/>
<text text-anchor="middle" x="965" y="-158.3" font-family="Times,serif" font-size="14.00">/__w/AtomVM/AtomVM/src/libAtomVM/module.h</text>
</a>
</g>
</g>
<!-- 1&#45;&gt;5 -->
<g id="edge12" class="edge">
<title>1&#45;&gt;5</title>
<g id="a_edge12"><a xlink:title="include">
<path fill="none" stroke="#1414ce" d="M775.17,-159.97C558.27,-156.97 227.49,-146.1 184,-108 163.72,-90.24 162.5,-56.49 163.93,-36.04"/>
<polygon fill="#1414ce" stroke="#1414ce" points="775.37,-163.47 785.42,-160.11 775.46,-156.47 775.37,-163.47"/>
</a>
</g>
</g>
<!-- 1&#45;&gt;2 -->
<g id="edge10" class="edge">
<title>1&#45;&gt;2</title>
<g id="a_edge10"><a xlink:title="include">
<path fill="none" stroke="#1414ce" d="M908.9,-140.33C881.02,-130.06 847.74,-117.8 821.33,-108.07"/>
<polygon fill="#1414ce" stroke="#1414ce" points="907.93,-143.7 918.52,-143.88 910.35,-137.13 907.93,-143.7"/>
</a>
</g>
</g>
<!-- 1&#45;&gt;9 -->
<g id="edge15" class="edge">
<title>1&#45;&gt;9</title>
<g id="a_edge15"><a xlink:title="include">
<path fill="none" stroke="#1414ce" d="M1032.69,-141.09C1068.07,-130.68 1110.94,-118.08 1144.82,-108.11"/>
<polygon fill="#1414ce" stroke="#1414ce" points="1031.52,-137.79 1022.92,-143.97 1033.5,-144.5 1031.52,-137.79"/>
</a>
</g>
</g>
<!-- 1&#45;&gt;4 -->
<g id="edge11" class="edge">
<title>1&#45;&gt;4</title>
<g id="a_edge11"><a xlink:title="include">
<path fill="none" stroke="#1414ce" d="M964.68,-133.61C963.28,-114.9 959,-90.29 947,-72 937.12,-56.94 921.33,-44.91 906.71,-36.14"/>
<polygon fill="#1414ce" stroke="#1414ce" points="961.2,-134.04 965.21,-143.85 968.19,-133.68 961.2,-134.04"/>
</a>
</g>
</g>
<!-- 14 -->
<g id="node9" class="node">
<title>14</title>
<g id="a_node9"><a xlink:title="/__w/AtomVM/AtomVM/src/libAtomVM/term.c">
<polygon fill="#ffffff" stroke="black" points="1726,-108 1386,-108 1386,-72 1726,-72 1726,-108"/>
<text text-anchor="middle" x="1556" y="-86.3" font-family="Times,serif" font-size="14.00">/__w/AtomVM/AtomVM/src/libAtomVM/term.c</text>
</a>
</g>
</g>
<!-- 1&#45;&gt;14 -->
<g id="edge16" class="edge">
<title>1&#45;&gt;14</title>
<g id="a_edge16"><a xlink:title="include">
<path fill="none" stroke="#1414ce" d="M1118.91,-142.77C1209.56,-132.03 1323.49,-118.54 1412.31,-108.02"/>
<polygon fill="#1414ce" stroke="#1414ce" points="1118.34,-139.31 1108.82,-143.97 1119.16,-146.26 1118.34,-139.31"/>
</a>
</g>
</g>
<!-- 6 -->
<g id="node11" class="node">
<title>6</title>
<g id="a_node11"><a xlink:title="/__w/AtomVM/AtomVM/src/libAtomVM/platform_nifs.h">
<polygon fill="#ffffff" stroke="black" points="594.5,-108 193.5,-108 193.5,-72 594.5,-72 594.5,-108"/>
<text text-anchor="middle" x="394" y="-86.3" font-family="Times,serif" font-size="14.00">/__w/AtomVM/AtomVM/src/libAtomVM/platform_nifs.h</text>
</a>
</g>
</g>
<!-- 1&#45;&gt;6 -->
<g id="edge13" class="edge">
<title>1&#45;&gt;6</title>
<g id="a_edge13"><a xlink:title="include">
<path fill="none" stroke="#1414ce" d="M816.04,-142.74C728.58,-132.02 618.77,-118.55 533.08,-108.05"/>
<polygon fill="#1414ce" stroke="#1414ce" points="815.7,-146.22 826.05,-143.97 816.55,-139.27 815.7,-146.22"/>
</a>
</g>
</g>
<!-- 7 -->
<g id="node14" class="node">
<title>7</title>
<g id="a_node14"><a xlink:title="/__w/AtomVM/AtomVM/src/libAtomVM/stacktrace.h">
<polygon fill="#ffffff" stroke="black" points="2582.5,-108 2201.5,-108 2201.5,-72 2582.5,-72 2582.5,-108"/>
<text text-anchor="middle" x="2392" y="-86.3" font-family="Times,serif" font-size="14.00">/__w/AtomVM/AtomVM/src/libAtomVM/stacktrace.h</text>
</a>
</g>
</g>
<!-- 1&#45;&gt;7 -->
<g id="edge14" class="edge">
<title>1&#45;&gt;7</title>
<g id="a_edge14"><a xlink:title="include">
<path fill="none" stroke="#1414ce" d="M1154.66,-151.7C1427.5,-138.31 1927.95,-113.76 2201.35,-100.35"/>
<polygon fill="#1414ce" stroke="#1414ce" points="1154.46,-148.2 1144.65,-152.19 1154.81,-155.19 1154.46,-148.2"/>
</a>
</g>
</g>
<!-- 6&#45;&gt;5 -->
<g id="edge17" class="edge">
<title>6&#45;&gt;5</title>
<g id="a_edge17"><a xlink:title="include">
<path fill="none" stroke="#1414ce" d="M328.72,-68.96C294.91,-58.58 254.05,-46.03 221.73,-36.11"/>
<polygon fill="#1414ce" stroke="#1414ce" points="327.93,-72.38 338.52,-71.97 329.98,-65.68 327.93,-72.38"/>
</a>
</g>
</g>
<!-- 8 -->
<g id="node13" class="node">
<title>8</title>
<g id="a_node13"><a xlink:title="/__w/AtomVM/AtomVM/src/libAtomVM/stacktrace.c">
<polygon fill="#ffffff" stroke="black" points="3039,-36 2659,-36 2659,0 3039,0 3039,-36"/>
<text text-anchor="middle" x="2849" y="-14.3" font-family="Times,serif" font-size="14.00">/__w/AtomVM/AtomVM/src/libAtomVM/stacktrace.c</text>
</a>
</g>
</g>
<!-- 7&#45;&gt;8 -->
<g id="edge18" class="edge">
<title>7&#45;&gt;8</title>
<g id="a_edge18"><a xlink:title="include">
<path fill="none" stroke="#1414ce" d="M2513.36,-70.41C2583,-59.74 2669.8,-46.45 2737.69,-36.05"/>
<polygon fill="#1414ce" stroke="#1414ce" points="2512.57,-66.99 2503.21,-71.97 2513.63,-73.91 2512.57,-66.99"/>
</a>
</g>
</g>
</g>
</svg>
