<?xml version="1.0" encoding="UTF-8" standalone="no"?>
<!DOCTYPE svg PUBLIC "-//W3C//DTD SVG 1.1//EN"
 "http://www.w3.org/Graphics/SVG/1.1/DTD/svg11.dtd">
<!-- Generated by graphviz version 2.43.0 (0)
 -->
<!-- Title: %3 Pages: 1 -->
<svg width="1609pt" height="836pt"
 viewBox="0.00 0.00 1609.00 836.00" xmlns="http://www.w3.org/2000/svg" xmlns:xlink="http://www.w3.org/1999/xlink">
<g id="graph0" class="graph" transform="scale(1 1) rotate(0) translate(4 832)">
<title>%3</title>
<polygon fill="transparent" stroke="transparent" points="-4,4 -4,-832 1605,-832 1605,4 -4,4"/>
<!-- 2 -->
<g id="node1" class="node">
<title>2</title>
<g id="a_node1"><a xlink:title="stdbool.h">
<polygon fill="#ffffff" stroke="black" points="1241.5,-108 1158.5,-108 1158.5,-72 1241.5,-72 1241.5,-108"/>
<text text-anchor="middle" x="1200" y="-86.3" font-family="Times,serif" font-size="14.00">stdbool.h</text>
</a>
</g>
</g>
<!-- 25 -->
<g id="node2" class="node">
<title>25</title>
<g id="a_node2"><a xlink:title="refc_binary.h">
<polygon fill="#ffffff" stroke="black" points="925,-396 817,-396 817,-360 925,-360 925,-396"/>
<text text-anchor="middle" x="871" y="-374.3" font-family="Times,serif" font-size="14.00">refc_binary.h</text>
</a>
</g>
</g>
<!-- 25&#45;&gt;2 -->
<g id="edge1" class="edge">
<title>25&#45;&gt;2</title>
<g id="a_edge1"><a xlink:title="include">
<path fill="none" stroke="#1414ce" d="M872.99,-359.71C878.96,-310.96 898.27,-174.06 930,-144 960.76,-114.86 1078.54,-100.66 1147.96,-94.68"/>
<polygon fill="#1414ce" stroke="#1414ce" points="1148.58,-98.14 1158.26,-93.82 1148,-91.17 1148.58,-98.14"/>
</a>
</g>
</g>
<!-- 18 -->
<g id="node7" class="node">
<title>18</title>
<g id="a_node7"><a xlink:title="list.h">
<polygon fill="#ffffff" stroke="black" points="1227,-180 1173,-180 1173,-144 1227,-144 1227,-180"/>
<text text-anchor="middle" x="1200" y="-158.3" font-family="Times,serif" font-size="14.00">list.h</text>
</a>
</g>
</g>
<!-- 25&#45;&gt;18 -->
<g id="edge3" class="edge">
<title>25&#45;&gt;18</title>
<g id="a_edge3"><a xlink:title="include">
<path fill="none" stroke="#1414ce" d="M907,-359.82C952.55,-337.46 1032.71,-296 1096,-252 1124.55,-232.15 1154.44,-205.92 1174.81,-187.09"/>
<polygon fill="#1414ce" stroke="#1414ce" points="1177.2,-189.64 1182.12,-180.26 1172.42,-184.52 1177.2,-189.64"/>
</a>
</g>
</g>
<!-- 5 -->
<g id="node9" class="node">
<title>5</title>
<g id="a_node9"><a xlink:title="stdlib.h">
<polygon fill="#ffffff" stroke="black" points="446.5,-108 375.5,-108 375.5,-72 446.5,-72 446.5,-108"/>
<text text-anchor="middle" x="411" y="-86.3" font-family="Times,serif" font-size="14.00">stdlib.h</text>
</a>
</g>
</g>
<!-- 25&#45;&gt;5 -->
<g id="edge2" class="edge">
<title>25&#45;&gt;5</title>
<g id="a_edge2"><a xlink:title="include">
<path fill="none" stroke="#1414ce" d="M816.7,-367.9C739.51,-353.11 595.79,-318.56 491,-252 453.85,-228.4 441.96,-219.72 423,-180 413.79,-160.71 411,-136.56 410.4,-118.28"/>
<polygon fill="#1414ce" stroke="#1414ce" points="413.9,-118.23 410.27,-108.28 406.9,-118.33 413.9,-118.23"/>
</a>
</g>
</g>
<!-- 26 -->
<g id="node15" class="node">
<title>26</title>
<g id="a_node15"><a xlink:title="resources.h">
<polygon fill="#ffffff" stroke="black" points="866,-324 766,-324 766,-288 866,-288 866,-324"/>
<text text-anchor="middle" x="816" y="-302.3" font-family="Times,serif" font-size="14.00">resources.h</text>
</a>
</g>
</g>
<!-- 25&#45;&gt;26 -->
<g id="edge4" class="edge">
<title>25&#45;&gt;26</title>
<g id="a_edge4"><a xlink:title="include">
<path fill="none" stroke="#1414ce" d="M857.4,-359.7C850.88,-351.39 842.93,-341.28 835.75,-332.14"/>
<polygon fill="#1414ce" stroke="#1414ce" points="838.37,-329.81 829.44,-324.1 832.87,-334.13 838.37,-329.81"/>
</a>
</g>
</g>
<!-- 3 -->
<g id="node3" class="node">
<title>3</title>
<g id="a_node3"><a xlink:title="atom.h">
<polygon fill="#ffffff" stroke="black" points="212,-396 146,-396 146,-360 212,-360 212,-396"/>
<text text-anchor="middle" x="179" y="-374.3" font-family="Times,serif" font-size="14.00">atom.h</text>
</a>
</g>
</g>
<!-- 4 -->
<g id="node8" class="node">
<title>4</title>
<g id="a_node8"><a xlink:title="stdint.h">
<polygon fill="#ffffff" stroke="black" points="458,-36 386,-36 386,0 458,0 458,-36"/>
<text text-anchor="middle" x="422" y="-14.3" font-family="Times,serif" font-size="14.00">stdint.h</text>
</a>
</g>
</g>
<!-- 3&#45;&gt;4 -->
<g id="edge5" class="edge">
<title>3&#45;&gt;4</title>
<g id="a_edge5"><a xlink:title="include">
<path fill="none" stroke="#1414ce" d="M145.94,-361.79C104.27,-340.08 38,-295.97 38,-235 38,-235 38,-235 38,-161 38,-146.23 -6.8,-142.94 140,-72 217.06,-34.76 317.7,-23.63 375.56,-20.34"/>
<polygon fill="#1414ce" stroke="#1414ce" points="376.05,-23.82 385.85,-19.82 375.69,-16.83 376.05,-23.82"/>
</a>
</g>
</g>
<!-- 3&#45;&gt;5 -->
<g id="edge6" class="edge">
<title>3&#45;&gt;5</title>
<g id="a_edge6"><a xlink:title="include">
<path fill="none" stroke="#1414ce" d="M183.96,-359.79C196.84,-317.78 235.1,-208.72 302,-144 319.9,-126.68 344.55,-114.05 365.88,-105.47"/>
<polygon fill="#1414ce" stroke="#1414ce" points="367.33,-108.66 375.42,-101.81 364.83,-102.13 367.33,-108.66"/>
</a>
</g>
</g>
<!-- 14 -->
<g id="node4" class="node">
<title>14</title>
<g id="a_node4"><a xlink:title="assert.h">
<polygon fill="#ffffff" stroke="black" points="890,-36 816,-36 816,0 890,0 890,-36"/>
<text text-anchor="middle" x="853" y="-14.3" font-family="Times,serif" font-size="14.00">assert.h</text>
</a>
</g>
</g>
<!-- 9 -->
<g id="node5" class="node">
<title>9</title>
<g id="a_node5"><a xlink:title="utils.h">
<polygon fill="#ffffff" stroke="black" points="520,-180 458,-180 458,-144 520,-144 520,-180"/>
<text text-anchor="middle" x="489" y="-158.3" font-family="Times,serif" font-size="14.00">utils.h</text>
</a>
</g>
</g>
<!-- 9&#45;&gt;5 -->
<g id="edge9" class="edge">
<title>9&#45;&gt;5</title>
<g id="a_edge9"><a xlink:title="include">
<path fill="none" stroke="#1414ce" d="M469.72,-143.7C460.08,-135.05 448.27,-124.45 437.77,-115.03"/>
<polygon fill="#1414ce" stroke="#1414ce" points="439.84,-112.18 430.06,-108.1 435.16,-117.39 439.84,-112.18"/>
</a>
</g>
</g>
<!-- 10 -->
<g id="node17" class="node">
<title>10</title>
<g id="a_node17"><a xlink:title="stddef.h">
<polygon fill="#ffffff" stroke="black" points="246,-108 172,-108 172,-72 246,-72 246,-108"/>
<text text-anchor="middle" x="209" y="-86.3" font-family="Times,serif" font-size="14.00">stddef.h</text>
</a>
</g>
</g>
<!-- 9&#45;&gt;10 -->
<g id="edge7" class="edge">
<title>9&#45;&gt;10</title>
<g id="a_edge7"><a xlink:title="include">
<path fill="none" stroke="#1414ce" d="M457.97,-153.24C409.07,-141.02 313.78,-117.19 256.31,-102.83"/>
<polygon fill="#1414ce" stroke="#1414ce" points="256.94,-99.38 246.39,-100.35 255.24,-106.17 256.94,-99.38"/>
</a>
</g>
</g>
<!-- 11 -->
<g id="node29" class="node">
<title>11</title>
<g id="a_node29"><a xlink:title="stdio.h">
<polygon fill="#ffffff" stroke="black" points="580.5,-108 515.5,-108 515.5,-72 580.5,-72 580.5,-108"/>
<text text-anchor="middle" x="548" y="-86.3" font-family="Times,serif" font-size="14.00">stdio.h</text>
</a>
</g>
</g>
<!-- 9&#45;&gt;11 -->
<g id="edge8" class="edge">
<title>9&#45;&gt;11</title>
<g id="a_edge8"><a xlink:title="include">
<path fill="none" stroke="#1414ce" d="M503.58,-143.7C510.66,-135.3 519.28,-125.07 527.05,-115.86"/>
<polygon fill="#1414ce" stroke="#1414ce" points="529.81,-118.01 533.58,-108.1 524.46,-113.49 529.81,-118.01"/>
</a>
</g>
</g>
<!-- 19 -->
<g id="node6" class="node">
<title>19</title>
<g id="a_node6"><a xlink:title="synclist.h">
<polygon fill="#ffffff" stroke="black" points="1086.5,-252 1001.5,-252 1001.5,-216 1086.5,-216 1086.5,-252"/>
<text text-anchor="middle" x="1044" y="-230.3" font-family="Times,serif" font-size="14.00">synclist.h</text>
</a>
</g>
</g>
<!-- 19&#45;&gt;18 -->
<g id="edge11" class="edge">
<title>19&#45;&gt;18</title>
<g id="a_edge11"><a xlink:title="include">
<path fill="none" stroke="#1414ce" d="M1082.16,-215.88C1107.01,-204.73 1139.22,-190.27 1163.69,-179.29"/>
<polygon fill="#1414ce" stroke="#1414ce" points="1165.3,-182.41 1172.99,-175.12 1162.43,-176.02 1165.3,-182.41"/>
</a>
</g>
</g>
<!-- 20 -->
<g id="node26" class="node">
<title>20</title>
<g id="a_node26"><a xlink:title="smp.h">
<polygon fill="#ffffff" stroke="black" points="1153,-180 1093,-180 1093,-144 1153,-144 1153,-180"/>
<text text-anchor="middle" x="1123" y="-158.3" font-family="Times,serif" font-size="14.00">smp.h</text>
</a>
</g>
</g>
<!-- 19&#45;&gt;20 -->
<g id="edge12" class="edge">
<title>19&#45;&gt;20</title>
<g id="a_edge12"><a xlink:title="include">
<path fill="none" stroke="#1414ce" d="M1063.53,-215.7C1073.38,-206.97 1085.49,-196.24 1096.2,-186.75"/>
<polygon fill="#1414ce" stroke="#1414ce" points="1098.53,-189.36 1103.7,-180.1 1093.89,-184.12 1098.53,-189.36"/>
</a>
</g>
</g>
<!-- 19&#45;&gt;11 -->
<g id="edge10" class="edge">
<title>19&#45;&gt;11</title>
<g id="a_edge10"><a xlink:title="include">
<path fill="none" stroke="#1414ce" d="M1013.22,-215.97C975.58,-195.86 909.41,-162.77 849,-144 801.43,-129.22 661.71,-107.61 590.61,-97.14"/>
<polygon fill="#1414ce" stroke="#1414ce" points="591.04,-93.66 580.64,-95.68 590.03,-100.59 591.04,-93.66"/>
</a>
</g>
</g>
<!-- 18&#45;&gt;2 -->
<g id="edge13" class="edge">
<title>18&#45;&gt;2</title>
<g id="a_edge13"><a xlink:title="include">
<path fill="none" stroke="#1414ce" d="M1200,-143.7C1200,-135.98 1200,-126.71 1200,-118.11"/>
<polygon fill="#1414ce" stroke="#1414ce" points="1203.5,-118.1 1200,-108.1 1196.5,-118.1 1203.5,-118.1"/>
</a>
</g>
</g>
<!-- 6 -->
<g id="node10" class="node">
<title>6</title>
<g id="a_node10"><a xlink:title="context.h">
<polygon fill="#ffffff" stroke="black" points="1211.5,-684 1128.5,-684 1128.5,-648 1211.5,-648 1211.5,-684"/>
<text text-anchor="middle" x="1170" y="-662.3" font-family="Times,serif" font-size="14.00">context.h</text>
</a>
</g>
</g>
<!-- 6&#45;&gt;18 -->
<g id="edge15" class="edge">
<title>6&#45;&gt;18</title>
<g id="a_edge15"><a xlink:title="include">
<path fill="none" stroke="#1414ce" d="M1211.84,-659.77C1267.21,-652.02 1360.68,-635.8 1385,-612 1414.28,-583.35 1409,-563.97 1409,-523 1409,-523 1409,-523 1409,-305 1409,-264.03 1413.74,-245.19 1385,-216 1364.42,-195.09 1285.02,-177.93 1237.18,-169.21"/>
<polygon fill="#1414ce" stroke="#1414ce" points="1237.65,-165.74 1227.2,-167.43 1236.43,-172.63 1237.65,-165.74"/>
</a>
</g>
</g>
<!-- 21 -->
<g id="node16" class="node">
<title>21</title>
<g id="a_node16"><a xlink:title="term.h">
<polygon fill="#ffffff" stroke="black" points="570.5,-468 505.5,-468 505.5,-432 570.5,-432 570.5,-468"/>
<text text-anchor="middle" x="538" y="-446.3" font-family="Times,serif" font-size="14.00">term.h</text>
</a>
</g>
</g>
<!-- 6&#45;&gt;21 -->
<g id="edge18" class="edge">
<title>6&#45;&gt;21</title>
<g id="a_edge18"><a xlink:title="include">
<path fill="none" stroke="#1414ce" d="M1128.39,-659.28C1073.43,-651.23 973.92,-634.94 891,-612 801.56,-587.26 779.2,-579.01 695,-540 652.05,-520.1 605.11,-492.69 573.85,-473.56"/>
<polygon fill="#1414ce" stroke="#1414ce" points="575.42,-470.42 565.07,-468.16 571.75,-476.38 575.42,-470.42"/>
</a>
</g>
</g>
<!-- 7 -->
<g id="node25" class="node">
<title>7</title>
<g id="a_node25"><a xlink:title="globalcontext.h">
<polygon fill="#ffffff" stroke="black" points="1026.5,-612 899.5,-612 899.5,-576 1026.5,-576 1026.5,-612"/>
<text text-anchor="middle" x="963" y="-590.3" font-family="Times,serif" font-size="14.00">globalcontext.h</text>
</a>
</g>
</g>
<!-- 6&#45;&gt;7 -->
<g id="edge14" class="edge">
<title>6&#45;&gt;7</title>
<g id="a_edge14"><a xlink:title="include">
<path fill="none" stroke="#1414ce" d="M1128.11,-650.83C1098,-640.65 1056.96,-626.77 1023.33,-615.4"/>
<polygon fill="#1414ce" stroke="#1414ce" points="1024.2,-612 1013.6,-612.11 1021.96,-618.63 1024.2,-612"/>
</a>
</g>
</g>
<!-- 6&#45;&gt;20 -->
<g id="edge17" class="edge">
<title>6&#45;&gt;20</title>
<g id="a_edge17"><a xlink:title="include">
<path fill="none" stroke="#1414ce" d="M1211.65,-655.49C1270.52,-639.3 1371,-600.33 1371,-523 1371,-523 1371,-523 1371,-305 1371,-264.55 1380.9,-244.3 1352,-216 1291.21,-156.48 1245.49,-204.42 1164,-180 1163.56,-179.87 1163.11,-179.73 1162.67,-179.59"/>
<polygon fill="#1414ce" stroke="#1414ce" points="1163.79,-176.28 1153.2,-176.33 1161.51,-182.9 1163.79,-176.28"/>
</a>
</g>
</g>
<!-- 28 -->
<g id="node27" class="node">
<title>28</title>
<g id="a_node27"><a xlink:title="timer_list.h">
<polygon fill="#ffffff" stroke="black" points="1535,-252 1437,-252 1437,-216 1535,-216 1535,-252"/>
<text text-anchor="middle" x="1486" y="-230.3" font-family="Times,serif" font-size="14.00">timer_list.h</text>
</a>
</g>
</g>
<!-- 6&#45;&gt;28 -->
<g id="edge19" class="edge">
<title>6&#45;&gt;28</title>
<g id="a_edge19"><a xlink:title="include">
<path fill="none" stroke="#1414ce" d="M1211.64,-664.76C1297.44,-661.86 1486,-641.94 1486,-523 1486,-523 1486,-523 1486,-377 1486,-337 1486,-290.65 1486,-262.08"/>
<polygon fill="#1414ce" stroke="#1414ce" points="1489.5,-262.05 1486,-252.05 1482.5,-262.05 1489.5,-262.05"/>
</a>
</g>
</g>
<!-- 27 -->
<g id="node28" class="node">
<title>27</title>
<g id="a_node28"><a xlink:title="mailbox.h">
<polygon fill="#ffffff" stroke="black" points="1343,-252 1257,-252 1257,-216 1343,-216 1343,-252"/>
<text text-anchor="middle" x="1300" y="-230.3" font-family="Times,serif" font-size="14.00">mailbox.h</text>
</a>
</g>
</g>
<!-- 6&#45;&gt;27 -->
<g id="edge16" class="edge">
<title>6&#45;&gt;27</title>
<g id="a_edge16"><a xlink:title="include">
<path fill="none" stroke="#1414ce" d="M1211.55,-649.84C1259.85,-629.22 1333,-587.37 1333,-523 1333,-523 1333,-523 1333,-377 1333,-335.97 1319.77,-289.97 1310.06,-261.74"/>
<polygon fill="#1414ce" stroke="#1414ce" points="1313.32,-260.45 1306.68,-252.19 1306.72,-262.78 1313.32,-260.45"/>
</a>
</g>
</g>
<!-- 1 -->
<g id="node11" class="node">
<title>1</title>
<g id="a_node11"><a xlink:title="/__w/AtomVM/AtomVM/src/libAtomVM/bif.h">
<polygon fill="#bfbfbf" stroke="black" points="492.5,-828 167.5,-828 167.5,-792 492.5,-792 492.5,-828"/>
<text text-anchor="middle" x="330" y="-806.3" font-family="Times,serif" font-size="14.00">/__w/AtomVM/AtomVM/src/libAtomVM/bif.h</text>
</a>
</g>
</g>
<!-- 1&#45;&gt;2 -->
<g id="edge20" class="edge">
<title>1&#45;&gt;2</title>
<g id="a_edge20"><a xlink:title="include">
<path fill="none" stroke="#1414ce" d="M492.59,-807.42C835.39,-801.92 1601,-777.29 1601,-667 1601,-667 1601,-667 1601,-233 1601,-169.77 1547.52,-170.26 1490,-144 1412.04,-108.41 1311.99,-96.7 1252.11,-92.86"/>
<polygon fill="#1414ce" stroke="#1414ce" points="1251.96,-89.35 1241.77,-92.25 1251.55,-96.33 1251.96,-89.35"/>
</a>
</g>
</g>
<!-- 1&#45;&gt;3 -->
<g id="edge21" class="edge">
<title>1&#45;&gt;3</title>
<g id="a_edge21"><a xlink:title="include">
<path fill="none" stroke="#1414ce" d="M223.11,-791.92C159.83,-775.69 84.69,-744.3 46,-684 -16.12,-587.18 98.88,-456.44 153.03,-403.13"/>
<polygon fill="#1414ce" stroke="#1414ce" points="155.5,-405.61 160.25,-396.13 150.63,-400.58 155.5,-405.61"/>
</a>
</g>
</g>
<!-- 1&#45;&gt;6 -->
<g id="edge22" class="edge">
<title>1&#45;&gt;6</title>
<g id="a_edge22"><a xlink:title="include">
<path fill="none" stroke="#1414ce" d="M430.91,-791.94C611.04,-761.49 981.85,-698.81 1118.21,-675.75"/>
<polygon fill="#1414ce" stroke="#1414ce" points="1119.11,-679.15 1128.38,-674.03 1117.94,-672.25 1119.11,-679.15"/>
</a>
</g>
</g>
<!-- 31 -->
<g id="node13" class="node">
<title>31</title>
<g id="a_node13"><a xlink:title="module.h">
<polygon fill="#ffffff" stroke="black" points="371.5,-756 288.5,-756 288.5,-720 371.5,-720 371.5,-756"/>
<text text-anchor="middle" x="330" y="-734.3" font-family="Times,serif" font-size="14.00">module.h</text>
</a>
</g>
</g>
<!-- 1&#45;&gt;31 -->
<g id="edge24" class="edge">
<title>1&#45;&gt;31</title>
<g id="a_edge24"><a xlink:title="include">
<path fill="none" stroke="#1414ce" d="M330,-791.7C330,-783.98 330,-774.71 330,-766.11"/>
<polygon fill="#1414ce" stroke="#1414ce" points="333.5,-766.1 330,-756.1 326.5,-766.1 333.5,-766.1"/>
</a>
</g>
</g>
<!-- 30 -->
<g id="node19" class="node">
<title>30</title>
<g id="a_node19"><a xlink:title="exportedfunction.h">
<polygon fill="#ffffff" stroke="black" points="207,-684 55,-684 55,-648 207,-648 207,-684"/>
<text text-anchor="middle" x="131" y="-662.3" font-family="Times,serif" font-size="14.00">exportedfunction.h</text>
</a>
</g>
</g>
<!-- 1&#45;&gt;30 -->
<g id="edge23" class="edge">
<title>1&#45;&gt;30</title>
<g id="a_edge23"><a xlink:title="include">
<path fill="none" stroke="#1414ce" d="M306,-791.87C270.36,-766.44 203.39,-718.65 163.43,-690.14"/>
<polygon fill="#1414ce" stroke="#1414ce" points="165.26,-687.15 155.09,-684.19 161.2,-692.85 165.26,-687.15"/>
</a>
</g>
</g>
<!-- 24 -->
<g id="node12" class="node">
<title>24</title>
<g id="a_node12"><a xlink:title="memory.h">
<polygon fill="#ffffff" stroke="black" points="705,-252 619,-252 619,-216 705,-216 705,-252"/>
<text text-anchor="middle" x="662" y="-230.3" font-family="Times,serif" font-size="14.00">memory.h</text>
</a>
</g>
</g>
<!-- 24&#45;&gt;9 -->
<g id="edge29" class="edge">
<title>24&#45;&gt;9</title>
<g id="a_edge29"><a xlink:title="include">
<path fill="none" stroke="#1414ce" d="M619.68,-215.88C592.24,-204.77 556.69,-190.39 529.6,-179.43"/>
<polygon fill="#1414ce" stroke="#1414ce" points="530.61,-176.06 520.03,-175.56 527.99,-182.55 530.61,-176.06"/>
</a>
</g>
</g>
<!-- 24&#45;&gt;4 -->
<g id="edge25" class="edge">
<title>24&#45;&gt;4</title>
<g id="a_edge25"><a xlink:title="include">
<path fill="none" stroke="#1414ce" d="M665.03,-215.87C669.72,-183.35 674.74,-112.31 638,-72 615.53,-47.35 525.03,-31.83 468.55,-24.35"/>
<polygon fill="#1414ce" stroke="#1414ce" points="468.78,-20.85 458.42,-23.04 467.89,-27.79 468.78,-20.85"/>
</a>
</g>
</g>
<!-- 24&#45;&gt;5 -->
<g id="edge26" class="edge">
<title>24&#45;&gt;5</title>
<g id="a_edge26"><a xlink:title="include">
<path fill="none" stroke="#1414ce" d="M638.73,-215.68C612.76,-196.77 569.1,-166.22 529,-144 505.54,-131 478.28,-118.59 455.88,-109.06"/>
<polygon fill="#1414ce" stroke="#1414ce" points="457.18,-105.81 446.6,-105.15 454.46,-112.26 457.18,-105.81"/>
</a>
</g>
</g>
<!-- 12 -->
<g id="node18" class="node">
<title>12</title>
<g id="a_node18"><a xlink:title="erl_nif.h">
<polygon fill="#ffffff" stroke="black" points="840,-180 766,-180 766,-144 840,-144 840,-180"/>
<text text-anchor="middle" x="803" y="-158.3" font-family="Times,serif" font-size="14.00">erl_nif.h</text>
</a>
</g>
</g>
<!-- 24&#45;&gt;12 -->
<g id="edge27" class="edge">
<title>24&#45;&gt;12</title>
<g id="a_edge27"><a xlink:title="include">
<path fill="none" stroke="#1414ce" d="M696.49,-215.88C715.44,-206.47 739.13,-194.71 759.36,-184.67"/>
<polygon fill="#1414ce" stroke="#1414ce" points="760.97,-187.77 768.37,-180.19 757.86,-181.5 760.97,-187.77"/>
</a>
</g>
</g>
<!-- 13 -->
<g id="node24" class="node">
<title>13</title>
<g id="a_node24"><a xlink:title="term_typedef.h">
<polygon fill="#ffffff" stroke="black" points="815.5,-108 690.5,-108 690.5,-72 815.5,-72 815.5,-108"/>
<text text-anchor="middle" x="753" y="-86.3" font-family="Times,serif" font-size="14.00">term_typedef.h</text>
</a>
</g>
</g>
<!-- 24&#45;&gt;13 -->
<g id="edge28" class="edge">
<title>24&#45;&gt;13</title>
<g id="a_edge28"><a xlink:title="include">
<path fill="none" stroke="#1414ce" d="M672.98,-215.87C688.76,-191.24 717.99,-145.64 736.41,-116.88"/>
<polygon fill="#1414ce" stroke="#1414ce" points="739.54,-118.5 741.98,-108.19 733.64,-114.72 739.54,-118.5"/>
</a>
</g>
</g>
<!-- 31&#45;&gt;2 -->
<g id="edge30" class="edge">
<title>31&#45;&gt;2</title>
<g id="a_edge30"><a xlink:title="include">
<path fill="none" stroke="#1414ce" d="M371.73,-736.68C587.11,-734.47 1563,-717.69 1563,-595 1563,-595 1563,-595 1563,-305 1563,-264.55 1570.27,-246.76 1544,-216 1469.32,-128.55 1328.29,-102.27 1252.06,-94.38"/>
<polygon fill="#1414ce" stroke="#1414ce" points="1252.04,-90.86 1241.75,-93.39 1251.37,-97.83 1252.04,-90.86"/>
</a>
</g>
</g>
<!-- 31&#45;&gt;3 -->
<g id="edge32" class="edge">
<title>31&#45;&gt;3</title>
<g id="a_edge32"><a xlink:title="include">
<path fill="none" stroke="#1414ce" d="M322.48,-719.74C303.95,-677.12 254.7,-563.43 215,-468 206.33,-447.16 196.76,-423.46 189.67,-405.76"/>
<polygon fill="#1414ce" stroke="#1414ce" points="192.77,-404.09 185.8,-396.1 186.27,-406.69 192.77,-404.09"/>
</a>
</g>
</g>
<!-- 31&#45;&gt;4 -->
<g id="edge31" class="edge">
<title>31&#45;&gt;4</title>
<g id="a_edge31"><a xlink:title="include">
<path fill="none" stroke="#1414ce" d="M308.09,-720C234.39,-661.95 0,-470.19 0,-379 0,-379 0,-379 0,-161 0,-110.68 26.5,-97.31 70,-72 121.1,-42.27 292.42,-27.38 375.73,-21.75"/>
<polygon fill="#1414ce" stroke="#1414ce" points="376.17,-25.23 385.92,-21.08 375.71,-18.24 376.17,-25.23"/>
</a>
</g>
</g>
<!-- 31&#45;&gt;6 -->
<g id="edge34" class="edge">
<title>31&#45;&gt;6</title>
<g id="a_edge34"><a xlink:title="include">
<path fill="none" stroke="#1414ce" d="M371.66,-733.53C511.45,-721.88 963.75,-684.19 1117.94,-671.34"/>
<polygon fill="#1414ce" stroke="#1414ce" points="1118.42,-674.81 1128.09,-670.49 1117.84,-667.83 1118.42,-674.81"/>
</a>
</g>
</g>
<!-- 31&#45;&gt;21 -->
<g id="edge37" class="edge">
<title>31&#45;&gt;21</title>
<g id="a_edge37"><a xlink:title="include">
<path fill="none" stroke="#1414ce" d="M342.39,-719.97C377.49,-671.7 477.78,-533.8 519.47,-476.47"/>
<polygon fill="#1414ce" stroke="#1414ce" points="522.36,-478.45 525.41,-468.31 516.7,-474.34 522.36,-478.45"/>
</a>
</g>
</g>
<!-- 31&#45;&gt;30 -->
<g id="edge35" class="edge">
<title>31&#45;&gt;30</title>
<g id="a_edge35"><a xlink:title="include">
<path fill="none" stroke="#1414ce" d="M288.28,-722.33C259.57,-712.23 221.03,-698.67 189.29,-687.5"/>
<polygon fill="#1414ce" stroke="#1414ce" points="190.27,-684.14 179.67,-684.12 187.95,-690.74 190.27,-684.14"/>
</a>
</g>
</g>
<!-- 8 -->
<g id="node21" class="node">
<title>8</title>
<g id="a_node21"><a xlink:title="atom_table.h">
<polygon fill="#ffffff" stroke="black" points="371.5,-468 262.5,-468 262.5,-432 371.5,-432 371.5,-468"/>
<text text-anchor="middle" x="317" y="-446.3" font-family="Times,serif" font-size="14.00">atom_table.h</text>
</a>
</g>
</g>
<!-- 31&#45;&gt;8 -->
<g id="edge33" class="edge">
<title>31&#45;&gt;8</title>
<g id="a_edge33"><a xlink:title="include">
<path fill="none" stroke="#1414ce" d="M329.23,-719.97C327.06,-672.29 320.92,-537.18 318.26,-478.63"/>
<polygon fill="#1414ce" stroke="#1414ce" points="321.74,-478.14 317.79,-468.31 314.74,-478.46 321.74,-478.14"/>
</a>
</g>
</g>
<!-- 31&#45;&gt;7 -->
<g id="edge36" class="edge">
<title>31&#45;&gt;7</title>
<g id="a_edge36"><a xlink:title="include">
<path fill="none" stroke="#1414ce" d="M371.53,-727.68C476.85,-704.06 755.47,-641.56 889.26,-611.54"/>
<polygon fill="#1414ce" stroke="#1414ce" points="890.03,-614.96 899.02,-609.35 888.5,-608.13 890.03,-614.96"/>
</a>
</g>
</g>
<!-- 29 -->
<g id="node14" class="node">
<title>29</title>
<g id="a_node14"><a xlink:title="valueshashtable.h">
<polygon fill="#ffffff" stroke="black" points="212,-180 66,-180 66,-144 212,-144 212,-180"/>
<text text-anchor="middle" x="139" y="-158.3" font-family="Times,serif" font-size="14.00">valueshashtable.h</text>
</a>
</g>
</g>
<!-- 29&#45;&gt;4 -->
<g id="edge39" class="edge">
<title>29&#45;&gt;4</title>
<g id="a_edge39"><a xlink:title="include">
<path fill="none" stroke="#1414ce" d="M138.6,-143.93C139.1,-123.77 143.18,-90.64 163,-72 193.15,-43.65 309.37,-28.94 375.42,-22.72"/>
<polygon fill="#1414ce" stroke="#1414ce" points="375.92,-26.19 385.57,-21.8 375.29,-19.22 375.92,-26.19"/>
</a>
</g>
</g>
<!-- 29&#45;&gt;10 -->
<g id="edge38" class="edge">
<title>29&#45;&gt;10</title>
<g id="a_edge38"><a xlink:title="include">
<path fill="none" stroke="#1414ce" d="M156.3,-143.7C164.86,-135.14 175.34,-124.66 184.7,-115.3"/>
<polygon fill="#1414ce" stroke="#1414ce" points="187.3,-117.65 191.9,-108.1 182.35,-112.7 187.3,-117.65"/>
</a>
</g>
</g>
<!-- 26&#45;&gt;19 -->
<g id="edge45" class="edge">
<title>26&#45;&gt;19</title>
<g id="a_edge45"><a xlink:title="include">
<path fill="none" stroke="#1414ce" d="M866.04,-289.64C903.22,-278.22 953.82,-262.69 991.57,-251.1"/>
<polygon fill="#1414ce" stroke="#1414ce" points="992.83,-254.37 1001.36,-248.09 990.77,-247.68 992.83,-254.37"/>
</a>
</g>
</g>
<!-- 26&#45;&gt;18 -->
<g id="edge42" class="edge">
<title>26&#45;&gt;18</title>
<g id="a_edge42"><a xlink:title="include">
<path fill="none" stroke="#1414ce" d="M844.43,-287.83C878.59,-267.88 938.16,-235.27 993,-216 1065.45,-190.54 1088.99,-203.81 1162,-180 1162.45,-179.85 1162.9,-179.71 1163.34,-179.55"/>
<polygon fill="#1414ce" stroke="#1414ce" points="1164.75,-182.76 1172.87,-175.96 1162.28,-176.21 1164.75,-182.76"/>
</a>
</g>
</g>
<!-- 26&#45;&gt;5 -->
<g id="edge40" class="edge">
<title>26&#45;&gt;5</title>
<g id="a_edge40"><a xlink:title="include">
<path fill="none" stroke="#1414ce" d="M765.84,-301.86C687.43,-294.25 535.83,-268.32 449,-180 432.23,-162.94 422.36,-137.32 416.9,-117.94"/>
<polygon fill="#1414ce" stroke="#1414ce" points="420.27,-116.99 414.37,-108.18 413.49,-118.74 420.27,-116.99"/>
</a>
</g>
</g>
<!-- 26&#45;&gt;24 -->
<g id="edge44" class="edge">
<title>26&#45;&gt;24</title>
<g id="a_edge44"><a xlink:title="include">
<path fill="none" stroke="#1414ce" d="M778.33,-287.88C757.37,-278.35 731.1,-266.41 708.82,-256.28"/>
<polygon fill="#1414ce" stroke="#1414ce" points="710.1,-253.02 699.55,-252.07 707.21,-259.39 710.1,-253.02"/>
</a>
</g>
</g>
<!-- 26&#45;&gt;12 -->
<g id="edge41" class="edge">
<title>26&#45;&gt;12</title>
<g id="a_edge41"><a xlink:title="include">
<path fill="none" stroke="#1414ce" d="M814.43,-287.87C812.22,-263.67 808.15,-219.21 805.51,-190.39"/>
<polygon fill="#1414ce" stroke="#1414ce" points="808.97,-189.83 804.57,-180.19 802,-190.47 808.97,-189.83"/>
</a>
</g>
</g>
<!-- 26&#45;&gt;27 -->
<g id="edge43" class="edge">
<title>26&#45;&gt;27</title>
<g id="a_edge43"><a xlink:title="include">
<path fill="none" stroke="#1414ce" d="M866.43,-297.71C958.37,-284.41 1152.46,-256.34 1246.57,-242.73"/>
<polygon fill="#1414ce" stroke="#1414ce" points="1247.33,-246.15 1256.73,-241.26 1246.33,-239.23 1247.33,-246.15"/>
</a>
</g>
</g>
<!-- 21&#45;&gt;2 -->
<g id="edge47" class="edge">
<title>21&#45;&gt;2</title>
<g id="a_edge47"><a xlink:title="include">
<path fill="none" stroke="#1414ce" d="M570.51,-448.96C655.04,-448.19 878.93,-441.78 934,-396 998.74,-342.18 944.83,-285.05 993,-216 1030.86,-161.72 1100.59,-126.89 1148.58,-108.14"/>
<polygon fill="#1414ce" stroke="#1414ce" points="1150.06,-111.32 1158.17,-104.49 1147.58,-104.78 1150.06,-111.32"/>
</a>
</g>
</g>
<!-- 21&#45;&gt;25 -->
<g id="edge54" class="edge">
<title>21&#45;&gt;25</title>
<g id="a_edge54"><a xlink:title="include">
<path fill="none" stroke="#1414ce" d="M570.74,-442.97C620.9,-433.62 719.69,-414.73 803,-396 804.27,-395.71 805.55,-395.42 806.84,-395.13"/>
<polygon fill="#1414ce" stroke="#1414ce" points="807.93,-398.47 816.86,-392.78 806.33,-391.65 807.93,-398.47"/>
</a>
</g>
</g>
<!-- 21&#45;&gt;3 -->
<g id="edge52" class="edge">
<title>21&#45;&gt;3</title>
<g id="a_edge52"><a xlink:title="include">
<path fill="none" stroke="#1414ce" d="M505.19,-442.6C440.19,-429.93 295.06,-401.63 222.31,-387.45"/>
<polygon fill="#1414ce" stroke="#1414ce" points="222.61,-383.94 212.12,-385.46 221.27,-390.81 222.61,-383.94"/>
</a>
</g>
</g>
<!-- 21&#45;&gt;9 -->
<g id="edge55" class="edge">
<title>21&#45;&gt;9</title>
<g id="a_edge55"><a xlink:title="include">
<path fill="none" stroke="#1414ce" d="M505.28,-437.58C486.65,-429.2 464.91,-415.78 454,-396 416.83,-328.59 453.22,-234.38 475.11,-189.19"/>
<polygon fill="#1414ce" stroke="#1414ce" points="478.33,-190.58 479.66,-180.07 472.06,-187.46 478.33,-190.58"/>
</a>
</g>
</g>
<!-- 21&#45;&gt;4 -->
<g id="edge48" class="edge">
<title>21&#45;&gt;4</title>
<g id="a_edge48"><a xlink:title="include">
<path fill="none" stroke="#1414ce" d="M539.11,-431.89C540.38,-413.94 542.71,-384.92 546,-360 562.95,-231.63 666.56,-176.43 590,-72 562.36,-34.3 507.84,-22.73 468.39,-19.52"/>
<polygon fill="#1414ce" stroke="#1414ce" points="468.41,-16.01 458.2,-18.85 467.95,-23 468.41,-16.01"/>
</a>
</g>
</g>
<!-- 21&#45;&gt;5 -->
<g id="edge50" class="edge">
<title>21&#45;&gt;5</title>
<g id="a_edge50"><a xlink:title="include">
<path fill="none" stroke="#1414ce" d="M505.18,-440.29C482.56,-432.5 453.84,-418.73 438,-396 378.05,-309.95 394.47,-175.39 405.15,-118.19"/>
<polygon fill="#1414ce" stroke="#1414ce" points="408.63,-118.62 407.12,-108.13 401.76,-117.27 408.63,-118.62"/>
</a>
</g>
</g>
<!-- 21&#45;&gt;24 -->
<g id="edge53" class="edge">
<title>21&#45;&gt;24</title>
<g id="a_edge53"><a xlink:title="include">
<path fill="none" stroke="#1414ce" d="M540.99,-431.88C544.66,-413.4 551.94,-383.48 564,-360 583.7,-321.66 615.88,-283.53 637.96,-259.65"/>
<polygon fill="#1414ce" stroke="#1414ce" points="640.74,-261.81 645.03,-252.12 635.63,-257.02 640.74,-261.81"/>
</a>
</g>
</g>
<!-- 22 -->
<g id="node22" class="node">
<title>22</title>
<g id="a_node22"><a xlink:title="sys/types.h">
<polygon fill="#ffffff" stroke="black" points="669.5,-396 572.5,-396 572.5,-360 669.5,-360 669.5,-396"/>
<text text-anchor="middle" x="621" y="-374.3" font-family="Times,serif" font-size="14.00">sys/types.h</text>
</a>
</g>
</g>
<!-- 21&#45;&gt;22 -->
<g id="edge46" class="edge">
<title>21&#45;&gt;22</title>
<g id="a_edge46"><a xlink:title="include">
<path fill="none" stroke="#1414ce" d="M558.52,-431.7C568.87,-422.97 581.59,-412.24 592.84,-402.75"/>
<polygon fill="#1414ce" stroke="#1414ce" points="595.33,-405.23 600.72,-396.1 590.82,-399.88 595.33,-405.23"/>
</a>
</g>
</g>
<!-- 23 -->
<g id="node23" class="node">
<title>23</title>
<g id="a_node23"><a xlink:title="string.h">
<polygon fill="#ffffff" stroke="black" points="760.5,-396 687.5,-396 687.5,-360 760.5,-360 760.5,-396"/>
<text text-anchor="middle" x="724" y="-374.3" font-family="Times,serif" font-size="14.00">string.h</text>
</a>
</g>
</g>
<!-- 21&#45;&gt;23 -->
<g id="edge51" class="edge">
<title>21&#45;&gt;23</title>
<g id="a_edge51"><a xlink:title="include">
<path fill="none" stroke="#1414ce" d="M570.77,-436.7C597.34,-426.72 636.01,-412.19 677.67,-396.5"/>
<polygon fill="#1414ce" stroke="#1414ce" points="679.04,-399.72 687.16,-392.92 676.57,-393.17 679.04,-399.72"/>
</a>
</g>
</g>
<!-- 21&#45;&gt;13 -->
<g id="edge56" class="edge">
<title>21&#45;&gt;13</title>
<g id="a_edge56"><a xlink:title="include">
<path fill="none" stroke="#1414ce" d="M570.52,-446.45C628.36,-441.17 745.4,-426.85 770,-396 790.27,-370.57 762.88,-355.98 757,-324 743.51,-250.64 747.38,-162.09 750.6,-118.28"/>
<polygon fill="#1414ce" stroke="#1414ce" points="754.1,-118.39 751.39,-108.15 747.12,-117.84 754.1,-118.39"/>
</a>
</g>
</g>
<!-- 21&#45;&gt;11 -->
<g id="edge49" class="edge">
<title>21&#45;&gt;11</title>
<g id="a_edge49"><a xlink:title="include">
<path fill="none" stroke="#1414ce" d="M517.18,-431.62C507.54,-422.2 497.11,-409.7 492,-396 486.4,-381.01 490.36,-375.92 492,-360 493.25,-347.89 528.11,-184.05 542.19,-118.16"/>
<polygon fill="#1414ce" stroke="#1414ce" points="545.67,-118.62 544.34,-108.11 538.82,-117.16 545.67,-118.62"/>
</a>
</g>
</g>
<!-- 12&#45;&gt;13 -->
<g id="edge57" class="edge">
<title>12&#45;&gt;13</title>
<g id="a_edge57"><a xlink:title="include">
<path fill="none" stroke="#1414ce" d="M790.64,-143.7C784.77,-135.47 777.63,-125.48 771.16,-116.42"/>
<polygon fill="#1414ce" stroke="#1414ce" points="773.88,-114.21 765.22,-108.1 768.18,-118.28 773.88,-114.21"/>
</a>
</g>
</g>
<!-- 30&#45;&gt;21 -->
<g id="edge58" class="edge">
<title>30&#45;&gt;21</title>
<g id="a_edge58"><a xlink:title="include">
<path fill="none" stroke="#1414ce" d="M147.56,-647.85C180.29,-614.97 256.84,-542.9 335,-504 386.97,-478.14 452.9,-463.94 495.27,-456.9"/>
<polygon fill="#1414ce" stroke="#1414ce" points="495.93,-460.34 505.25,-455.3 494.82,-453.43 495.93,-460.34"/>
</a>
</g>
</g>
<!-- 15 -->
<g id="node20" class="node">
<title>15</title>
<g id="a_node20"><a xlink:title="limits.h">
<polygon fill="#ffffff" stroke="black" points="690.5,-36 619.5,-36 619.5,0 690.5,0 690.5,-36"/>
<text text-anchor="middle" x="655" y="-14.3" font-family="Times,serif" font-size="14.00">limits.h</text>
</a>
</g>
</g>
<!-- 8&#45;&gt;2 -->
<g id="edge59" class="edge">
<title>8&#45;&gt;2</title>
<g id="a_edge59"><a xlink:title="include">
<path fill="none" stroke="#1414ce" d="M318.26,-431.84C323.24,-378.01 346.67,-212.06 449,-144 478.09,-124.65 982.43,-100.65 1147.89,-93.27"/>
<polygon fill="#1414ce" stroke="#1414ce" points="1148.46,-96.75 1158.29,-92.81 1148.14,-89.75 1148.46,-96.75"/>
</a>
</g>
</g>
<!-- 8&#45;&gt;3 -->
<g id="edge60" class="edge">
<title>8&#45;&gt;3</title>
<g id="a_edge60"><a xlink:title="include">
<path fill="none" stroke="#1414ce" d="M283.24,-431.88C264.64,-422.44 241.37,-410.64 221.54,-400.58"/>
<polygon fill="#1414ce" stroke="#1414ce" points="222.91,-397.35 212.41,-395.95 219.75,-403.59 222.91,-397.35"/>
</a>
</g>
</g>
<!-- 8&#45;&gt;9 -->
<g id="edge61" class="edge">
<title>8&#45;&gt;9</title>
<g id="a_edge61"><a xlink:title="include">
<path fill="none" stroke="#1414ce" d="M325.4,-431.78C344.87,-392.4 395.37,-293.2 447,-216 453.33,-206.53 460.89,-196.63 467.85,-187.98"/>
<polygon fill="#1414ce" stroke="#1414ce" points="470.65,-190.09 474.27,-180.13 465.23,-185.66 470.65,-190.09"/>
</a>
</g>
</g>
<!-- 13&#45;&gt;14 -->
<g id="edge62" class="edge">
<title>13&#45;&gt;14</title>
<g id="a_edge62"><a xlink:title="include">
<path fill="none" stroke="#1414ce" d="M777.46,-71.88C790.3,-62.89 806.2,-51.76 820.09,-42.03"/>
<polygon fill="#1414ce" stroke="#1414ce" points="822.26,-44.79 828.44,-36.19 818.24,-39.06 822.26,-44.79"/>
</a>
</g>
</g>
<!-- 13&#45;&gt;4 -->
<g id="edge65" class="edge">
<title>13&#45;&gt;4</title>
<g id="a_edge65"><a xlink:title="include">
<path fill="none" stroke="#1414ce" d="M690.4,-75.12C685.53,-74.05 680.68,-73.01 676,-72 603.48,-56.43 519.17,-38.96 468.24,-28.48"/>
<polygon fill="#1414ce" stroke="#1414ce" points="468.7,-25 458.2,-26.42 467.29,-31.86 468.7,-25"/>
</a>
</g>
</g>
<!-- 13&#45;&gt;15 -->
<g id="edge63" class="edge">
<title>13&#45;&gt;15</title>
<g id="a_edge63"><a xlink:title="include">
<path fill="none" stroke="#1414ce" d="M729.03,-71.88C716.45,-62.89 700.87,-51.76 687.25,-42.03"/>
<polygon fill="#1414ce" stroke="#1414ce" points="689.24,-39.15 679.07,-36.19 685.17,-44.85 689.24,-39.15"/>
</a>
</g>
</g>
<!-- 16 -->
<g id="node31" class="node">
<title>16</title>
<g id="a_node31"><a xlink:title="inttypes.h">
<polygon fill="#ffffff" stroke="black" points="797.5,-36 708.5,-36 708.5,0 797.5,0 797.5,-36"/>
<text text-anchor="middle" x="753" y="-14.3" font-family="Times,serif" font-size="14.00">inttypes.h</text>
</a>
</g>
</g>
<!-- 13&#45;&gt;16 -->
<g id="edge64" class="edge">
<title>13&#45;&gt;16</title>
<g id="a_edge64"><a xlink:title="include">
<path fill="none" stroke="#1414ce" d="M753,-71.7C753,-63.98 753,-54.71 753,-46.11"/>
<polygon fill="#1414ce" stroke="#1414ce" points="756.5,-46.1 753,-36.1 749.5,-46.1 756.5,-46.1"/>
</a>
</g>
</g>
<!-- 7&#45;&gt;3 -->
<g id="edge67" class="edge">
<title>7&#45;&gt;3</title>
<g id="a_edge67"><a xlink:title="include">
<path fill="none" stroke="#1414ce" d="M899.22,-590.56C768.89,-585.03 476.31,-569.65 381,-540 318.67,-520.61 303.14,-509.79 253,-468 230.64,-449.37 209.9,-423.34 196.1,-404.24"/>
<polygon fill="#1414ce" stroke="#1414ce" points="198.9,-402.14 190.27,-396 193.19,-406.18 198.9,-402.14"/>
</a>
</g>
</g>
<!-- 7&#45;&gt;19 -->
<g id="edge74" class="edge">
<title>7&#45;&gt;19</title>
<g id="a_edge74"><a xlink:title="include">
<path fill="none" stroke="#1414ce" d="M980.2,-575.84C988.96,-566.12 999.01,-553.27 1005,-540 1047.96,-444.91 1048.06,-317.21 1045.7,-262.14"/>
<polygon fill="#1414ce" stroke="#1414ce" points="1049.19,-261.94 1045.2,-252.13 1042.2,-262.29 1049.19,-261.94"/>
</a>
</g>
</g>
<!-- 7&#45;&gt;18 -->
<g id="edge71" class="edge">
<title>7&#45;&gt;18</title>
<g id="a_edge71"><a xlink:title="include">
<path fill="none" stroke="#1414ce" d="M1026.61,-585.57C1102.43,-572.76 1219,-538.8 1219,-451 1219,-451 1219,-451 1219,-377 1219,-309.55 1209.52,-230.61 1203.95,-190.06"/>
<polygon fill="#1414ce" stroke="#1414ce" points="1207.42,-189.57 1202.56,-180.15 1200.48,-190.54 1207.42,-189.57"/>
</a>
</g>
</g>
<!-- 7&#45;&gt;4 -->
<g id="edge66" class="edge">
<title>7&#45;&gt;4</title>
<g id="a_edge66"><a xlink:title="include">
<path fill="none" stroke="#1414ce" d="M899.28,-583.2C844.58,-574.13 763.89,-559.15 695,-540 604.38,-514.8 576.82,-516.11 496,-468 435.07,-431.73 278,-305.91 278,-235 278,-235 278,-235 278,-161 278,-104.74 334.42,-63.27 376.63,-40.12"/>
<polygon fill="#1414ce" stroke="#1414ce" points="378.47,-43.11 385.66,-35.33 375.19,-36.93 378.47,-43.11"/>
</a>
</g>
</g>
<!-- 7&#45;&gt;29 -->
<g id="edge77" class="edge">
<title>7&#45;&gt;29</title>
<g id="a_edge77"><a xlink:title="include">
<path fill="none" stroke="#1414ce" d="M899.47,-591.14C787.07,-586.99 558.3,-574.48 487,-540 426.17,-510.58 428.91,-478.62 380,-432 362.69,-415.5 357.57,-412.23 340,-396 305.82,-364.43 295.25,-358.48 264,-324 222.95,-278.7 180.38,-221.22 157.03,-188.63"/>
<polygon fill="#1414ce" stroke="#1414ce" points="159.63,-186.24 150.98,-180.13 153.93,-190.3 159.63,-186.24"/>
</a>
</g>
</g>
<!-- 7&#45;&gt;21 -->
<g id="edge75" class="edge">
<title>7&#45;&gt;21</title>
<g id="a_edge75"><a xlink:title="include">
<path fill="none" stroke="#1414ce" d="M911.74,-575.87C826.84,-547.5 658.64,-491.31 580.16,-465.09"/>
<polygon fill="#1414ce" stroke="#1414ce" points="581.19,-461.74 570.6,-461.89 578.97,-468.38 581.19,-461.74"/>
</a>
</g>
</g>
<!-- 7&#45;&gt;12 -->
<g id="edge69" class="edge">
<title>7&#45;&gt;12</title>
<g id="a_edge69"><a xlink:title="include">
<path fill="none" stroke="#1414ce" d="M967.06,-575.91C970.77,-557.96 975.24,-528.95 972,-504 963.48,-438.36 961.14,-420.37 934,-360 903.99,-293.24 852.28,-223.96 823.62,-188.02"/>
<polygon fill="#1414ce" stroke="#1414ce" points="826.2,-185.63 817.2,-180.04 820.74,-190.02 826.2,-185.63"/>
</a>
</g>
</g>
<!-- 7&#45;&gt;8 -->
<g id="edge68" class="edge">
<title>7&#45;&gt;8</title>
<g id="a_edge68"><a xlink:title="include">
<path fill="none" stroke="#1414ce" d="M899.26,-590.29C780.55,-584.61 530.28,-569.48 449,-540 408.67,-525.37 368.73,-495.77 343.52,-474.72"/>
<polygon fill="#1414ce" stroke="#1414ce" points="345.76,-472.03 335.87,-468.22 341.23,-477.37 345.76,-472.03"/>
</a>
</g>
</g>
<!-- 7&#45;&gt;20 -->
<g id="edge73" class="edge">
<title>7&#45;&gt;20</title>
<g id="a_edge73"><a xlink:title="include">
<path fill="none" stroke="#1414ce" d="M1026.64,-580.02C1090.99,-562.75 1181,-525.3 1181,-451 1181,-451 1181,-451 1181,-377 1181,-307.27 1151.96,-229.07 1134.98,-189.3"/>
<polygon fill="#1414ce" stroke="#1414ce" points="1138.15,-187.82 1130.94,-180.05 1131.73,-190.61 1138.15,-187.82"/>
</a>
</g>
</g>
<!-- 7&#45;&gt;28 -->
<g id="edge76" class="edge">
<title>7&#45;&gt;28</title>
<g id="a_edge76"><a xlink:title="include">
<path fill="none" stroke="#1414ce" d="M1026.78,-587.05C1101.59,-579.13 1220.2,-563.35 1258,-540 1371.22,-470.07 1447.36,-321.54 1474.73,-261.25"/>
<polygon fill="#1414ce" stroke="#1414ce" points="1477.96,-262.59 1478.84,-252.03 1471.57,-259.74 1477.96,-262.59"/>
</a>
</g>
</g>
<!-- 7&#45;&gt;27 -->
<g id="edge72" class="edge">
<title>7&#45;&gt;27</title>
<g id="a_edge72"><a xlink:title="include">
<path fill="none" stroke="#1414ce" d="M1026.69,-588.19C1096.87,-581.6 1203.7,-567.33 1233,-540 1262.96,-512.06 1257,-491.97 1257,-451 1257,-451 1257,-451 1257,-377 1257,-335.29 1274.2,-289.54 1286.84,-261.54"/>
<polygon fill="#1414ce" stroke="#1414ce" points="1290.05,-262.96 1291.09,-252.42 1283.7,-260.01 1290.05,-262.96"/>
</a>
</g>
</g>
<!-- 17 -->
<g id="node30" class="node">
<title>17</title>
<g id="a_node30"><a xlink:title="ets.h">
<polygon fill="#ffffff" stroke="black" points="963,-540 909,-540 909,-504 963,-504 963,-540"/>
<text text-anchor="middle" x="936" y="-518.3" font-family="Times,serif" font-size="14.00">ets.h</text>
</a>
</g>
</g>
<!-- 7&#45;&gt;17 -->
<g id="edge70" class="edge">
<title>7&#45;&gt;17</title>
<g id="a_edge70"><a xlink:title="include">
<path fill="none" stroke="#1414ce" d="M956.33,-575.7C953.29,-567.81 949.62,-558.3 946.24,-549.55"/>
<polygon fill="#1414ce" stroke="#1414ce" points="949.46,-548.17 942.6,-540.1 942.93,-550.69 949.46,-548.17"/>
</a>
</g>
</g>
<!-- 20&#45;&gt;2 -->
<g id="edge78" class="edge">
<title>20&#45;&gt;2</title>
<g id="a_edge78"><a xlink:title="include">
<path fill="none" stroke="#1414ce" d="M1142.03,-143.7C1151.54,-135.05 1163.21,-124.45 1173.57,-115.03"/>
<polygon fill="#1414ce" stroke="#1414ce" points="1176.14,-117.42 1181.19,-108.1 1171.43,-112.24 1176.14,-117.42"/>
</a>
</g>
</g>
<!-- 28&#45;&gt;2 -->
<g id="edge79" class="edge">
<title>28&#45;&gt;2</title>
<g id="a_edge79"><a xlink:title="include">
<path fill="none" stroke="#1414ce" d="M1451.5,-215.87C1399.43,-190.02 1300.79,-141.04 1243.75,-112.72"/>
<polygon fill="#1414ce" stroke="#1414ce" points="1245.13,-109.5 1234.62,-108.19 1242.02,-115.77 1245.13,-109.5"/>
</a>
</g>
</g>
<!-- 28&#45;&gt;18 -->
<g id="edge81" class="edge">
<title>28&#45;&gt;18</title>
<g id="a_edge81"><a xlink:title="include">
<path fill="none" stroke="#1414ce" d="M1436.86,-219.59C1432.18,-218.35 1427.5,-217.14 1423,-216 1357.83,-199.47 1281.55,-181.67 1237.21,-171.48"/>
<polygon fill="#1414ce" stroke="#1414ce" points="1237.71,-168.01 1227.18,-169.18 1236.15,-174.83 1237.71,-168.01"/>
</a>
</g>
</g>
<!-- 28&#45;&gt;4 -->
<g id="edge80" class="edge">
<title>28&#45;&gt;4</title>
<g id="a_edge80"><a xlink:title="include">
<path fill="none" stroke="#1414ce" d="M1468.45,-215.74C1431.79,-180.95 1342.81,-103.08 1251,-72 1116.07,-26.32 753.07,-46.38 611,-36 562.35,-32.44 506.74,-27.31 468.51,-23.62"/>
<polygon fill="#1414ce" stroke="#1414ce" points="468.49,-20.1 458.2,-22.62 467.82,-27.07 468.49,-20.1"/>
</a>
</g>
</g>
<!-- 27&#45;&gt;2 -->
<g id="edge82" class="edge">
<title>27&#45;&gt;2</title>
<g id="a_edge82"><a xlink:title="include">
<path fill="none" stroke="#1414ce" d="M1297.35,-215.88C1293.73,-196.87 1285.81,-165.97 1270,-144 1261.62,-132.35 1249.93,-122.1 1238.51,-113.8"/>
<polygon fill="#1414ce" stroke="#1414ce" points="1240.5,-110.92 1230.29,-108.11 1236.51,-116.68 1240.5,-110.92"/>
</a>
</g>
</g>
<!-- 27&#45;&gt;9 -->
<g id="edge85" class="edge">
<title>27&#45;&gt;9</title>
<g id="a_edge85"><a xlink:title="include">
<path fill="none" stroke="#1414ce" d="M1256.97,-229.29C1115.9,-217.11 668.57,-178.5 530.2,-166.56"/>
<polygon fill="#1414ce" stroke="#1414ce" points="530.29,-163.05 520.02,-165.68 529.68,-170.02 530.29,-163.05"/>
</a>
</g>
</g>
<!-- 27&#45;&gt;18 -->
<g id="edge83" class="edge">
<title>27&#45;&gt;18</title>
<g id="a_edge83"><a xlink:title="include">
<path fill="none" stroke="#1414ce" d="M1275.54,-215.88C1262.7,-206.89 1246.8,-195.76 1232.91,-186.03"/>
<polygon fill="#1414ce" stroke="#1414ce" points="1234.76,-183.06 1224.56,-180.19 1230.74,-188.79 1234.76,-183.06"/>
</a>
</g>
</g>
<!-- 27&#45;&gt;13 -->
<g id="edge84" class="edge">
<title>27&#45;&gt;13</title>
<g id="a_edge84"><a xlink:title="include">
<path fill="none" stroke="#1414ce" d="M1289.87,-215.63C1275.86,-192.23 1250.63,-152.54 1236,-144 1168.2,-104.42 943.65,-94.38 826.14,-91.84"/>
<polygon fill="#1414ce" stroke="#1414ce" points="825.87,-88.34 815.8,-91.64 825.73,-95.34 825.87,-88.34"/>
</a>
</g>
</g>
<!-- 17&#45;&gt;19 -->
<g id="edge87" class="edge">
<title>17&#45;&gt;19</title>
<g id="a_edge87"><a xlink:title="include">
<path fill="none" stroke="#1414ce" d="M947.37,-503.92C962.5,-480.49 989.18,-436.66 1005,-396 1022.61,-350.73 1033.96,-295.11 1039.64,-262.5"/>
<polygon fill="#1414ce" stroke="#1414ce" points="1043.14,-262.82 1041.36,-252.38 1036.24,-261.66 1043.14,-262.82"/>
</a>
</g>
</g>
<!-- 17&#45;&gt;18 -->
<g id="edge86" class="edge">
<title>17&#45;&gt;18</title>
<g id="a_edge86"><a xlink:title="include">
<path fill="none" stroke="#1414ce" d="M956.19,-503.81C967.32,-493.88 981.06,-480.84 992,-468 1073.93,-371.85 1153,-242.96 1185.05,-188.74"/>
<polygon fill="#1414ce" stroke="#1414ce" points="1188.07,-190.49 1190.13,-180.1 1182.04,-186.94 1188.07,-190.49"/>
</a>
</g>
</g>
<!-- 17&#45;&gt;21 -->
<g id="edge88" class="edge">
<title>17&#45;&gt;21</title>
<g id="a_edge88"><a xlink:title="include">
<path fill="none" stroke="#1414ce" d="M908.96,-516.24C841,-504.29 662.69,-472.93 580.54,-458.48"/>
<polygon fill="#1414ce" stroke="#1414ce" points="581,-455.01 570.55,-456.72 579.79,-461.9 581,-455.01"/>
</a>
</g>
</g>
</g>
</svg>
