<?xml version="1.0" encoding="UTF-8" standalone="no"?>
<!DOCTYPE svg PUBLIC "-//W3C//DTD SVG 1.1//EN"
 "http://www.w3.org/Graphics/SVG/1.1/DTD/svg11.dtd">
<!-- Generated by graphviz version 2.42.4 (0)
 -->
<!-- Pages: 1 -->
<svg width="732pt" height="260pt"
 viewBox="0.00 0.00 731.50 260.00" xmlns="http://www.w3.org/2000/svg" xmlns:xlink="http://www.w3.org/1999/xlink">
<g id="graph0" class="graph" transform="scale(1 1) rotate(0) translate(4 256)">
<polygon fill="transparent" stroke="transparent" points="-4,4 -4,-256 727.5,-256 727.5,4 -4,4"/>
<!-- 1 -->
<g id="node1" class="node">
<title>1</title>
<g id="a_node1"><a xlink:title="/__w/AtomVM/AtomVM/src/libAtomVM/float_utils.c">
<polygon fill="#bfbfbf" stroke="black" points="613.5,-252 238.5,-252 238.5,-216 613.5,-216 613.5,-252"/>
<text text-anchor="middle" x="426" y="-230.3" font-family="Times,serif" font-size="14.00">/__w/AtomVM/AtomVM/src/libAtomVM/float_utils.c</text>
</a>
</g>
</g>
<!-- 2 -->
<g id="node2" class="node">
<title>2</title>
<g id="a_node2"><a xlink:title="float_utils.h">
<polygon fill="#ffffff" stroke="black" points="182,-180 82,-180 82,-144 182,-144 182,-180"/>
<text text-anchor="middle" x="132" y="-158.3" font-family="Times,serif" font-size="14.00">float_utils.h</text>
</a>
</g>
</g>
<!-- 1&#45;&gt;2 -->
<g id="edge1" class="edge">
<title>1&#45;&gt;2</title>
<g id="a_edge1"><a xlink:title="include">
<path fill="none" stroke="#1414ce" d="M350.06,-215.99C305.41,-205.85 247.91,-192.55 197,-180 195.33,-179.59 193.63,-179.17 191.92,-178.74"/>
<polygon fill="#1414ce" stroke="#1414ce" points="192.55,-175.29 182,-176.23 190.84,-182.08 192.55,-175.29"/>
</a>
</g>
</g>
<!-- 12 -->
<g id="node4" class="node">
<title>12</title>
<g id="a_node4"><a xlink:title="unlocalized.h">
<polygon fill="#ffffff" stroke="black" points="316,-180 206,-180 206,-144 316,-144 316,-180"/>
<text text-anchor="middle" x="261" y="-158.3" font-family="Times,serif" font-size="14.00">unlocalized.h</text>
</a>
</g>
</g>
<!-- 1&#45;&gt;12 -->
<g id="edge7" class="edge">
<title>1&#45;&gt;12</title>
<g id="a_edge7"><a xlink:title="include">
<path fill="none" stroke="#1414ce" d="M385.64,-215.88C362.98,-206.26 334.53,-194.19 310.53,-184.01"/>
<polygon fill="#1414ce" stroke="#1414ce" points="311.81,-180.75 301.23,-180.07 309.07,-187.2 311.81,-180.75"/>
</a>
</g>
</g>
<!-- 14 -->
<g id="node5" class="node">
<title>14</title>
<g id="a_node5"><a xlink:title="utils.h">
<polygon fill="#ffffff" stroke="black" points="417,-180 355,-180 355,-144 417,-144 417,-180"/>
<text text-anchor="middle" x="386" y="-158.3" font-family="Times,serif" font-size="14.00">utils.h</text>
</a>
</g>
</g>
<!-- 1&#45;&gt;14 -->
<g id="edge8" class="edge">
<title>1&#45;&gt;14</title>
<g id="a_edge8"><a xlink:title="include">
<path fill="none" stroke="#1414ce" d="M416.11,-215.7C411.51,-207.64 405.94,-197.89 400.85,-188.98"/>
<polygon fill="#1414ce" stroke="#1414ce" points="403.77,-187.05 395.77,-180.1 397.7,-190.52 403.77,-187.05"/>
</a>
</g>
</g>
<!-- 6 -->
<g id="node6" class="node">
<title>6</title>
<g id="a_node6"><a xlink:title="assert.h">
<polygon fill="#ffffff" stroke="black" points="584,-36 510,-36 510,0 584,0 584,-36"/>
<text text-anchor="middle" x="547" y="-14.3" font-family="Times,serif" font-size="14.00">assert.h</text>
</a>
</g>
</g>
<!-- 1&#45;&gt;6 -->
<g id="edge2" class="edge">
<title>1&#45;&gt;6</title>
<g id="a_edge2"><a xlink:title="include">
<path fill="none" stroke="#1414ce" d="M543.87,-215.93C562.72,-207.97 579.95,-196.49 592,-180 622.02,-138.91 589.81,-78.58 566.53,-44.64"/>
<polygon fill="#1414ce" stroke="#1414ce" points="569.19,-42.35 560.55,-36.21 563.48,-46.39 569.19,-42.35"/>
</a>
</g>
</g>
<!-- 9 -->
<g id="node7" class="node">
<title>9</title>
<g id="a_node7"><a xlink:title="float.h">
<polygon fill="#ffffff" stroke="black" points="497,-180 435,-180 435,-144 497,-144 497,-180"/>
<text text-anchor="middle" x="466" y="-158.3" font-family="Times,serif" font-size="14.00">float.h</text>
</a>
</g>
</g>
<!-- 1&#45;&gt;9 -->
<g id="edge3" class="edge">
<title>1&#45;&gt;9</title>
<g id="a_edge3"><a xlink:title="include">
<path fill="none" stroke="#1414ce" d="M435.89,-215.7C440.49,-207.64 446.06,-197.89 451.15,-188.98"/>
<polygon fill="#1414ce" stroke="#1414ce" points="454.3,-190.52 456.23,-180.1 448.23,-187.05 454.3,-190.52"/>
</a>
</g>
</g>
<!-- 10 -->
<g id="node10" class="node">
<title>10</title>
<g id="a_node10"><a xlink:title="math.h">
<polygon fill="#ffffff" stroke="black" points="582.5,-180 515.5,-180 515.5,-144 582.5,-144 582.5,-180"/>
<text text-anchor="middle" x="549" y="-158.3" font-family="Times,serif" font-size="14.00">math.h</text>
</a>
</g>
</g>
<!-- 1&#45;&gt;10 -->
<g id="edge4" class="edge">
<title>1&#45;&gt;10</title>
<g id="a_edge4"><a xlink:title="include">
<path fill="none" stroke="#1414ce" d="M456.09,-215.88C472.32,-206.64 492.54,-195.13 509.97,-185.21"/>
<polygon fill="#1414ce" stroke="#1414ce" points="511.84,-188.18 518.8,-180.19 508.37,-182.09 511.84,-188.18"/>
</a>
</g>
</g>
<!-- 4 -->
<g id="node13" class="node">
<title>4</title>
<g id="a_node13"><a xlink:title="stdint.h">
<polygon fill="#ffffff" stroke="black" points="72,-36 0,-36 0,0 72,0 72,-36"/>
<text text-anchor="middle" x="36" y="-14.3" font-family="Times,serif" font-size="14.00">stdint.h</text>
</a>
</g>
</g>
<!-- 1&#45;&gt;4 -->
<g id="edge5" class="edge">
<title>1&#45;&gt;4</title>
<g id="a_edge5"><a xlink:title="include">
<path fill="none" stroke="#1414ce" d="M238.47,-220.38C169.01,-212.52 100.45,-199.94 73,-180 31.71,-150.01 29.94,-83.93 32.7,-46.42"/>
<polygon fill="#1414ce" stroke="#1414ce" points="36.21,-46.48 33.62,-36.21 29.24,-45.85 36.21,-46.48"/>
</a>
</g>
</g>
<!-- 11 -->
<g id="node16" class="node">
<title>11</title>
<g id="a_node16"><a xlink:title="string.h">
<polygon fill="#ffffff" stroke="black" points="723.5,-180 650.5,-180 650.5,-144 723.5,-144 723.5,-180"/>
<text text-anchor="middle" x="687" y="-158.3" font-family="Times,serif" font-size="14.00">string.h</text>
</a>
</g>
</g>
<!-- 1&#45;&gt;11 -->
<g id="edge6" class="edge">
<title>1&#45;&gt;11</title>
<g id="a_edge6"><a xlink:title="include">
<path fill="none" stroke="#1414ce" d="M499.25,-215.93C539.76,-206.14 590.89,-193.19 636,-180 637.46,-179.57 638.93,-179.13 640.42,-178.68"/>
<polygon fill="#1414ce" stroke="#1414ce" points="641.83,-181.91 650.33,-175.59 639.74,-175.23 641.83,-181.91"/>
</a>
</g>
</g>
<!-- 5 -->
<g id="node3" class="node">
<title>5</title>
<g id="a_node3"><a xlink:title="term_typedef.h">
<polygon fill="#ffffff" stroke="black" points="189.5,-108 64.5,-108 64.5,-72 189.5,-72 189.5,-108"/>
<text text-anchor="middle" x="127" y="-86.3" font-family="Times,serif" font-size="14.00">term_typedef.h</text>
</a>
</g>
</g>
<!-- 2&#45;&gt;5 -->
<g id="edge11" class="edge">
<title>2&#45;&gt;5</title>
<g id="a_edge11"><a xlink:title="include">
<path fill="none" stroke="#1414ce" d="M130.76,-143.7C130.21,-135.98 129.55,-126.71 128.94,-118.11"/>
<polygon fill="#1414ce" stroke="#1414ce" points="132.43,-117.83 128.22,-108.1 125.44,-118.33 132.43,-117.83"/>
</a>
</g>
</g>
<!-- 3 -->
<g id="node12" class="node">
<title>3</title>
<g id="a_node12"><a xlink:title="stddef.h">
<polygon fill="#ffffff" stroke="black" points="282,-108 208,-108 208,-72 282,-72 282,-108"/>
<text text-anchor="middle" x="245" y="-86.3" font-family="Times,serif" font-size="14.00">stddef.h</text>
</a>
</g>
</g>
<!-- 2&#45;&gt;3 -->
<g id="edge9" class="edge">
<title>2&#45;&gt;3</title>
<g id="a_edge9"><a xlink:title="include">
<path fill="none" stroke="#1414ce" d="M159.64,-143.88C174.42,-134.72 192.79,-123.34 208.7,-113.48"/>
<polygon fill="#1414ce" stroke="#1414ce" points="210.59,-116.43 217.25,-108.19 206.91,-110.48 210.59,-116.43"/>
</a>
</g>
</g>
<!-- 2&#45;&gt;4 -->
<g id="edge10" class="edge">
<title>2&#45;&gt;4</title>
<g id="a_edge10"><a xlink:title="include">
<path fill="none" stroke="#1414ce" d="M95.91,-143.9C81.1,-135.15 65.1,-123.11 55,-108 42.76,-89.69 38.22,-64.92 36.62,-46.17"/>
<polygon fill="#1414ce" stroke="#1414ce" points="40.11,-45.94 35.99,-36.18 33.12,-46.38 40.11,-45.94"/>
</a>
</g>
</g>
<!-- 5&#45;&gt;6 -->
<g id="edge12" class="edge">
<title>5&#45;&gt;6</title>
<g id="a_edge12"><a xlink:title="include">
<path fill="none" stroke="#1414ce" d="M189.76,-73.87C192.88,-73.21 195.97,-72.59 199,-72 255.74,-61 418.63,-37.32 499.82,-25.7"/>
<polygon fill="#1414ce" stroke="#1414ce" points="500.37,-29.16 509.78,-24.28 499.38,-22.23 500.37,-29.16"/>
</a>
</g>
</g>
<!-- 8 -->
<g id="node8" class="node">
<title>8</title>
<g id="a_node8"><a xlink:title="inttypes.h">
<polygon fill="#ffffff" stroke="black" points="417.5,-36 328.5,-36 328.5,0 417.5,0 417.5,-36"/>
<text text-anchor="middle" x="373" y="-14.3" font-family="Times,serif" font-size="14.00">inttypes.h</text>
</a>
</g>
</g>
<!-- 5&#45;&gt;8 -->
<g id="edge14" class="edge">
<title>5&#45;&gt;8</title>
<g id="a_edge14"><a xlink:title="include">
<path fill="none" stroke="#1414ce" d="M186.86,-71.97C226.94,-60.56 279.29,-45.66 318.27,-34.57"/>
<polygon fill="#1414ce" stroke="#1414ce" points="319.71,-37.8 328.37,-31.7 317.8,-31.07 319.71,-37.8"/>
</a>
</g>
</g>
<!-- 7 -->
<g id="node9" class="node">
<title>7</title>
<g id="a_node9"><a xlink:title="limits.h">
<polygon fill="#ffffff" stroke="black" points="162.5,-36 91.5,-36 91.5,0 162.5,0 162.5,-36"/>
<text text-anchor="middle" x="127" y="-14.3" font-family="Times,serif" font-size="14.00">limits.h</text>
</a>
</g>
</g>
<!-- 5&#45;&gt;7 -->
<g id="edge13" class="edge">
<title>5&#45;&gt;7</title>
<g id="a_edge13"><a xlink:title="include">
<path fill="none" stroke="#1414ce" d="M127,-71.7C127,-63.98 127,-54.71 127,-46.11"/>
<polygon fill="#1414ce" stroke="#1414ce" points="130.5,-46.1 127,-36.1 123.5,-46.1 130.5,-46.1"/>
</a>
</g>
</g>
<!-- 5&#45;&gt;4 -->
<g id="edge15" class="edge">
<title>5&#45;&gt;4</title>
<g id="a_edge15"><a xlink:title="include">
<path fill="none" stroke="#1414ce" d="M104.51,-71.7C93.04,-62.88 78.94,-52.03 66.52,-42.47"/>
<polygon fill="#1414ce" stroke="#1414ce" points="68.3,-39.43 58.24,-36.1 64.03,-44.98 68.3,-39.43"/>
</a>
</g>
</g>
<!-- 12&#45;&gt;5 -->
<g id="edge18" class="edge">
<title>12&#45;&gt;5</title>
<g id="a_edge18"><a xlink:title="include">
<path fill="none" stroke="#1414ce" d="M228.22,-143.88C210.37,-134.55 188.1,-122.92 169,-112.94"/>
<polygon fill="#1414ce" stroke="#1414ce" points="170.39,-109.72 159.91,-108.19 167.15,-115.92 170.39,-109.72"/>
</a>
</g>
</g>
<!-- 13 -->
<g id="node11" class="node">
<title>13</title>
<g id="a_node11"><a xlink:title="stdbool.h">
<polygon fill="#ffffff" stroke="black" points="383.5,-108 300.5,-108 300.5,-72 383.5,-72 383.5,-108"/>
<text text-anchor="middle" x="342" y="-86.3" font-family="Times,serif" font-size="14.00">stdbool.h</text>
</a>
</g>
</g>
<!-- 12&#45;&gt;13 -->
<g id="edge16" class="edge">
<title>12&#45;&gt;13</title>
<g id="a_edge16"><a xlink:title="include">
<path fill="none" stroke="#1414ce" d="M281.02,-143.7C291.13,-134.97 303.54,-124.24 314.52,-114.75"/>
<polygon fill="#1414ce" stroke="#1414ce" points="316.93,-117.29 322.21,-108.1 312.35,-111.99 316.93,-117.29"/>
</a>
</g>
</g>
<!-- 12&#45;&gt;3 -->
<g id="edge17" class="edge">
<title>12&#45;&gt;3</title>
<g id="a_edge17"><a xlink:title="include">
<path fill="none" stroke="#1414ce" d="M257.04,-143.7C255.28,-135.98 253.16,-126.71 251.2,-118.11"/>
<polygon fill="#1414ce" stroke="#1414ce" points="254.55,-117.07 248.91,-108.1 247.73,-118.63 254.55,-117.07"/>
</a>
</g>
</g>
<!-- 14&#45;&gt;8 -->
<g id="edge19" class="edge">
<title>14&#45;&gt;8</title>
<g id="a_edge19"><a xlink:title="include">
<path fill="none" stroke="#1414ce" d="M417.27,-147.19C420.2,-146.05 423.14,-144.97 426,-144 486.42,-123.46 525.94,-158.47 565,-108 574.79,-95.35 574.69,-84.73 565,-72 548.39,-50.19 478.69,-35.06 428.04,-26.71"/>
<polygon fill="#1414ce" stroke="#1414ce" points="428.3,-23.2 417.87,-25.08 427.19,-30.12 428.3,-23.2"/>
</a>
</g>
</g>
<!-- 14&#45;&gt;13 -->
<g id="edge20" class="edge">
<title>14&#45;&gt;13</title>
<g id="a_edge20"><a xlink:title="include">
<path fill="none" stroke="#1414ce" d="M375.12,-143.7C370.01,-135.56 363.8,-125.69 358.16,-116.7"/>
<polygon fill="#1414ce" stroke="#1414ce" points="361.04,-114.71 352.75,-108.1 355.11,-118.43 361.04,-114.71"/>
</a>
</g>
</g>
<!-- 14&#45;&gt;3 -->
<g id="edge21" class="edge">
<title>14&#45;&gt;3</title>
<g id="a_edge21"><a xlink:title="include">
<path fill="none" stroke="#1414ce" d="M354.71,-145.46C335.27,-135.82 310.01,-123.27 288.62,-112.66"/>
<polygon fill="#1414ce" stroke="#1414ce" points="289.93,-109.4 279.42,-108.09 286.82,-115.67 289.93,-109.4"/>
</a>
</g>
</g>
<!-- 15 -->
<g id="node14" class="node">
<title>15</title>
<g id="a_node14"><a xlink:title="stdio.h">
<polygon fill="#ffffff" stroke="black" points="466.5,-108 401.5,-108 401.5,-72 466.5,-72 466.5,-108"/>
<text text-anchor="middle" x="434" y="-86.3" font-family="Times,serif" font-size="14.00">stdio.h</text>
</a>
</g>
</g>
<!-- 14&#45;&gt;15 -->
<g id="edge22" class="edge">
<title>14&#45;&gt;15</title>
<g id="a_edge22"><a xlink:title="include">
<path fill="none" stroke="#1414ce" d="M397.87,-143.7C403.5,-135.47 410.35,-125.48 416.57,-116.42"/>
<polygon fill="#1414ce" stroke="#1414ce" points="419.5,-118.33 422.27,-108.1 413.73,-114.37 419.5,-118.33"/>
</a>
</g>
</g>
<!-- 16 -->
<g id="node15" class="node">
<title>16</title>
<g id="a_node15"><a xlink:title="stdlib.h">
<polygon fill="#ffffff" stroke="black" points="555.5,-108 484.5,-108 484.5,-72 555.5,-72 555.5,-108"/>
<text text-anchor="middle" x="520" y="-86.3" font-family="Times,serif" font-size="14.00">stdlib.h</text>
</a>
</g>
</g>
<!-- 14&#45;&gt;16 -->
<g id="edge23" class="edge">
<title>14&#45;&gt;16</title>
<g id="a_edge23"><a xlink:title="include">
<path fill="none" stroke="#1414ce" d="M417.08,-144.76C435.23,-135.28 458.38,-123.19 478.13,-112.87"/>
<polygon fill="#1414ce" stroke="#1414ce" points="479.98,-115.86 487.22,-108.12 476.74,-109.65 479.98,-115.86"/>
</a>
</g>
</g>
</g>
</svg>
