<?xml version="1.0" encoding="UTF-8" standalone="no"?>
<!DOCTYPE svg PUBLIC "-//W3C//DTD SVG 1.1//EN"
 "http://www.w3.org/Graphics/SVG/1.1/DTD/svg11.dtd">
<!-- Generated by graphviz version 2.43.0 (0)
 -->
<!-- Title: %3 Pages: 1 -->
<svg width="1472pt" height="548pt"
 viewBox="0.00 0.00 1471.50 548.00" xmlns="http://www.w3.org/2000/svg" xmlns:xlink="http://www.w3.org/1999/xlink">
<g id="graph0" class="graph" transform="scale(1 1) rotate(0) translate(4 544)">
<title>%3</title>
<polygon fill="transparent" stroke="transparent" points="-4,4 -4,-544 1467.5,-544 1467.5,4 -4,4"/>
<!-- 25 -->
<g id="node1" class="node">
<title>25</title>
<g id="a_node1"><a xlink:title="AVMPackData">
<polygon fill="#ffffff" stroke="black" points="198,-468 81,-468 81,-432 198,-432 198,-468"/>
<text text-anchor="middle" x="139.5" y="-446.3" font-family="Times,serif" font-size="14.00">AVMPackData</text>
</a>
</g>
</g>
<!-- 26 -->
<g id="node2" class="node">
<title>26</title>
<g id="a_node2"><a xlink:title="AVMPackInfo">
<polygon fill="#ffffff" stroke="black" points="111,-396 0,-396 0,-360 111,-360 111,-396"/>
<text text-anchor="middle" x="55.5" y="-374.3" font-family="Times,serif" font-size="14.00">AVMPackInfo</text>
</a>
</g>
</g>
<!-- 25&#45;&gt;26 -->
<g id="edge1" class="edge">
<title>25&#45;&gt;26</title>
<g id="a_edge1"><a xlink:title="usage">
<path fill="none" stroke="#1414ce" d="M118.74,-431.7C108.26,-422.97 95.39,-412.24 84,-402.75"/>
<polygon fill="#1414ce" stroke="#1414ce" points="85.95,-399.82 76.03,-396.1 81.47,-405.19 85.95,-399.82"/>
</a>
</g>
</g>
<!-- 4 -->
<g id="node13" class="node">
<title>4</title>
<g id="a_node13"><a xlink:title="ListHead">
<polygon fill="#ffffff" stroke="black" points="702,-36 621,-36 621,0 702,0 702,-36"/>
<text text-anchor="middle" x="661.5" y="-14.3" font-family="Times,serif" font-size="14.00">ListHead</text>
</a>
</g>
</g>
<!-- 25&#45;&gt;4 -->
<g id="edge2" class="edge">
<title>25&#45;&gt;4</title>
<g id="a_edge2"><a xlink:title="usage">
<path fill="none" stroke="#1414ce" d="M139.5,-431.95C139.5,-405.29 139.5,-352.11 139.5,-307 139.5,-307 139.5,-307 139.5,-161 139.5,-137.58 81.33,-142.23 258.5,-72 321.57,-47 517.27,-29.65 610.77,-22.57"/>
<polygon fill="#1414ce" stroke="#1414ce" points="611.13,-26.05 620.84,-21.81 610.6,-19.07 611.13,-26.05"/>
</a>
</g>
</g>
<!-- 13 -->
<g id="node3" class="node">
<title>13</title>
<g id="a_node3"><a xlink:title="AtomTable">
<polygon fill="#ffffff" stroke="black" points="1069.5,-324 977.5,-324 977.5,-288 1069.5,-288 1069.5,-324"/>
<text text-anchor="middle" x="1023.5" y="-302.3" font-family="Times,serif" font-size="14.00">AtomTable</text>
</a>
</g>
</g>
<!-- 14 -->
<g id="node9" class="node">
<title>14</title>
<g id="a_node9"><a xlink:title="HNode">
<polygon fill="#ffffff" stroke="black" points="1233.5,-180 1167.5,-180 1167.5,-144 1233.5,-144 1233.5,-180"/>
<text text-anchor="middle" x="1200.5" y="-158.3" font-family="Times,serif" font-size="14.00">HNode</text>
</a>
</g>
</g>
<!-- 13&#45;&gt;14 -->
<g id="edge3" class="edge">
<title>13&#45;&gt;14</title>
<g id="a_edge3"><a xlink:title="usage">
<path fill="none" stroke="#1414ce" d="M1069.65,-290.48C1072.64,-289.62 1075.61,-288.78 1078.5,-288 1146.34,-269.61 1188.82,-307.07 1232.5,-252 1247.28,-233.37 1235.09,-207.34 1221.73,-188.24"/>
<polygon fill="#1414ce" stroke="#1414ce" points="1224.37,-185.93 1215.59,-180 1218.76,-190.11 1224.37,-185.93"/>
</a>
</g>
</g>
<!-- 17 -->
<g id="node10" class="node">
<title>17</title>
<g id="a_node10"><a xlink:title="HNodeGroup">
<polygon fill="#ffffff" stroke="black" points="1205.5,-252 1095.5,-252 1095.5,-216 1205.5,-216 1205.5,-252"/>
<text text-anchor="middle" x="1150.5" y="-230.3" font-family="Times,serif" font-size="14.00">HNodeGroup</text>
</a>
</g>
</g>
<!-- 13&#45;&gt;17 -->
<g id="edge4" class="edge">
<title>13&#45;&gt;17</title>
<g id="a_edge4"><a xlink:title="usage">
<path fill="none" stroke="#1414ce" d="M1054.57,-287.88C1071.33,-278.64 1092.21,-267.13 1110.2,-257.21"/>
<polygon fill="#1414ce" stroke="#1414ce" points="1112.24,-260.08 1119.31,-252.19 1108.87,-253.95 1112.24,-260.08"/>
</a>
</g>
</g>
<!-- 1 -->
<g id="node4" class="node">
<title>1</title>
<g id="a_node4"><a xlink:title="CodeAllAvailableAcc">
<polygon fill="#bfbfbf" stroke="black" points="384,-540 223,-540 223,-504 384,-504 384,-540"/>
<text text-anchor="middle" x="303.5" y="-518.3" font-family="Times,serif" font-size="14.00">CodeAllAvailableAcc</text>
</a>
</g>
</g>
<!-- 1&#45;&gt;25 -->
<g id="edge6" class="edge">
<title>1&#45;&gt;25</title>
<g id="a_edge6"><a xlink:title="usage">
<path fill="none" stroke="#1414ce" d="M263.38,-503.88C240.86,-494.26 212.58,-482.19 188.73,-472.01"/>
<polygon fill="#1414ce" stroke="#1414ce" points="190.06,-468.77 179.49,-468.07 187.31,-475.21 190.06,-468.77"/>
</a>
</g>
</g>
<!-- 2 -->
<g id="node5" class="node">
<title>2</title>
<g id="a_node5"><a xlink:title="Context">
<polygon fill="#ffffff" stroke="black" points="505,-468 432,-468 432,-432 505,-432 505,-468"/>
<text text-anchor="middle" x="468.5" y="-446.3" font-family="Times,serif" font-size="14.00">Context</text>
</a>
</g>
</g>
<!-- 1&#45;&gt;2 -->
<g id="edge5" class="edge">
<title>1&#45;&gt;2</title>
<g id="a_edge5"><a xlink:title="usage">
<path fill="none" stroke="#1414ce" d="M343.86,-503.88C367.62,-493.8 397.74,-481.02 422.42,-470.55"/>
<polygon fill="#1414ce" stroke="#1414ce" points="424.09,-473.64 431.93,-466.51 421.36,-467.2 424.09,-473.64"/>
</a>
</g>
</g>
<!-- 2&#45;&gt;2 -->
<g id="edge12" class="edge">
<title>2&#45;&gt;2</title>
<g id="a_edge12"><a xlink:title="usage">
<path fill="none" stroke="#1414ce" d="M505.18,-463.42C515.28,-462.77 523,-458.3 523,-450 523,-444.81 519.98,-441.12 515.26,-438.93"/>
<polygon fill="#1414ce" stroke="#1414ce" points="515.71,-435.44 505.18,-436.58 514.13,-442.26 515.71,-435.44"/>
</a>
</g>
</g>
<!-- 3 -->
<g id="node8" class="node">
<title>3</title>
<g id="a_node8"><a xlink:title="GlobalContext">
<polygon fill="#ffffff" stroke="black" points="886,-396 767,-396 767,-360 886,-360 886,-396"/>
<text text-anchor="middle" x="826.5" y="-374.3" font-family="Times,serif" font-size="14.00">GlobalContext</text>
</a>
</g>
</g>
<!-- 2&#45;&gt;3 -->
<g id="edge7" class="edge">
<title>2&#45;&gt;3</title>
<g id="a_edge7"><a xlink:title="usage">
<path fill="none" stroke="#1414ce" d="M505.13,-441.84C564.23,-430.28 681.58,-407.34 756.94,-392.6"/>
<polygon fill="#1414ce" stroke="#1414ce" points="757.69,-396.02 766.83,-390.67 756.34,-389.15 757.69,-396.02"/>
</a>
</g>
</g>
<!-- 15 -->
<g id="node11" class="node">
<title>15</title>
<g id="a_node11"><a xlink:title="Heap">
<polygon fill="#ffffff" stroke="black" points="1383.5,-108 1329.5,-108 1329.5,-72 1383.5,-72 1383.5,-108"/>
<text text-anchor="middle" x="1356.5" y="-86.3" font-family="Times,serif" font-size="14.00">Heap</text>
</a>
</g>
</g>
<!-- 2&#45;&gt;15 -->
<g id="edge8" class="edge">
<title>2&#45;&gt;15</title>
<g id="a_edge8"><a xlink:title="usage">
<path fill="none" stroke="#1414ce" d="M505.01,-447.7C635,-442.88 1074.81,-424.76 1212.5,-396 1328.36,-371.8 1463.5,-425.36 1463.5,-307 1463.5,-307 1463.5,-307 1463.5,-233 1463.5,-183.13 1420.88,-139.65 1389.44,-114.35"/>
<polygon fill="#1414ce" stroke="#1414ce" points="1391.35,-111.41 1381.32,-108.02 1387.05,-116.93 1391.35,-111.41"/>
</a>
</g>
</g>
<!-- 2&#45;&gt;4 -->
<g id="edge9" class="edge">
<title>2&#45;&gt;4</title>
<g id="a_edge9"><a xlink:title="usage">
<path fill="none" stroke="#1414ce" d="M436.3,-431.98C370.61,-394.94 231.62,-303.29 284.5,-216 356.38,-97.34 525.79,-46.75 610.87,-28.22"/>
<polygon fill="#1414ce" stroke="#1414ce" points="611.76,-31.61 620.82,-26.12 610.31,-24.76 611.76,-31.61"/>
</a>
</g>
</g>
<!-- 24 -->
<g id="node15" class="node">
<title>24</title>
<g id="a_node15"><a xlink:title="Mailbox">
<polygon fill="#ffffff" stroke="black" points="1203.5,-396 1129.5,-396 1129.5,-360 1203.5,-360 1203.5,-396"/>
<text text-anchor="middle" x="1166.5" y="-374.3" font-family="Times,serif" font-size="14.00">Mailbox</text>
</a>
</g>
</g>
<!-- 2&#45;&gt;24 -->
<g id="edge13" class="edge">
<title>2&#45;&gt;24</title>
<g id="a_edge13"><a xlink:title="usage">
<path fill="none" stroke="#1414ce" d="M505.04,-445.34C622.21,-433.59 988.42,-396.86 1119.36,-383.73"/>
<polygon fill="#1414ce" stroke="#1414ce" points="1119.87,-387.19 1129.47,-382.71 1119.18,-380.23 1119.87,-387.19"/>
</a>
</g>
</g>
<!-- 19 -->
<g id="node18" class="node">
<title>19</title>
<g id="a_node18"><a xlink:title="Module">
<polygon fill="#ffffff" stroke="black" points="503.5,-324 433.5,-324 433.5,-288 503.5,-288 503.5,-324"/>
<text text-anchor="middle" x="468.5" y="-302.3" font-family="Times,serif" font-size="14.00">Module</text>
</a>
</g>
</g>
<!-- 2&#45;&gt;19 -->
<g id="edge11" class="edge">
<title>2&#45;&gt;19</title>
<g id="a_edge11"><a xlink:title="usage">
<path fill="none" stroke="#1414ce" d="M463.92,-431.87C461.36,-407.67 461.07,-363.21 463.04,-334.39"/>
<polygon fill="#1414ce" stroke="#1414ce" points="466.55,-334.45 463.91,-324.19 459.57,-333.86 466.55,-334.45"/>
</a>
</g>
</g>
<!-- 23 -->
<g id="node25" class="node">
<title>23</title>
<g id="a_node25"><a xlink:title="TimerListItem">
<polygon fill="#ffffff" stroke="black" points="287,-180 168,-180 168,-144 287,-144 287,-180"/>
<text text-anchor="middle" x="227.5" y="-158.3" font-family="Times,serif" font-size="14.00">TimerListItem</text>
</a>
</g>
</g>
<!-- 2&#45;&gt;23 -->
<g id="edge10" class="edge">
<title>2&#45;&gt;23</title>
<g id="a_edge10"><a xlink:title="usage">
<path fill="none" stroke="#1414ce" d="M431.77,-445.11C376.24,-438.42 274.88,-422.82 251.5,-396 200.82,-337.86 212.06,-237.98 221.29,-190.12"/>
<polygon fill="#1414ce" stroke="#1414ce" points="224.74,-190.69 223.32,-180.19 217.89,-189.29 224.74,-190.69"/>
</a>
</g>
</g>
<!-- 12 -->
<g id="node6" class="node">
<title>12</title>
<g id="a_node6"><a xlink:title="Ets">
<polygon fill="#ffffff" stroke="black" points="709.5,-180 655.5,-180 655.5,-144 709.5,-144 709.5,-180"/>
<text text-anchor="middle" x="682.5" y="-158.3" font-family="Times,serif" font-size="14.00">Ets</text>
</a>
</g>
</g>
<!-- 11 -->
<g id="node23" class="node">
<title>11</title>
<g id="a_node23"><a xlink:title="SyncList">
<polygon fill="#ffffff" stroke="black" points="733.5,-108 655.5,-108 655.5,-72 733.5,-72 733.5,-108"/>
<text text-anchor="middle" x="694.5" y="-86.3" font-family="Times,serif" font-size="14.00">SyncList</text>
</a>
</g>
</g>
<!-- 12&#45;&gt;11 -->
<g id="edge14" class="edge">
<title>12&#45;&gt;11</title>
<g id="a_edge14"><a xlink:title="usage">
<path fill="none" stroke="#1414ce" d="M685.47,-143.7C686.79,-135.98 688.38,-126.71 689.85,-118.11"/>
<polygon fill="#1414ce" stroke="#1414ce" points="693.33,-118.55 691.57,-108.1 686.43,-117.37 693.33,-118.55"/>
</a>
</g>
</g>
<!-- 20 -->
<g id="node7" class="node">
<title>20</title>
<g id="a_node7"><a xlink:title="ExportedFunction">
<polygon fill="#ffffff" stroke="black" points="561.5,-252 415.5,-252 415.5,-216 561.5,-216 561.5,-252"/>
<text text-anchor="middle" x="488.5" y="-230.3" font-family="Times,serif" font-size="14.00">ExportedFunction</text>
</a>
</g>
</g>
<!-- 3&#45;&gt;13 -->
<g id="edge21" class="edge">
<title>3&#45;&gt;13</title>
<g id="a_edge21"><a xlink:title="usage">
<path fill="none" stroke="#1414ce" d="M874.44,-359.97C902.58,-349.97 938.27,-337.28 967.67,-326.84"/>
<polygon fill="#1414ce" stroke="#1414ce" points="969.13,-330.03 977.38,-323.39 966.79,-323.44 969.13,-330.03"/>
</a>
</g>
</g>
<!-- 3&#45;&gt;12 -->
<g id="edge20" class="edge">
<title>3&#45;&gt;12</title>
<g id="a_edge20"><a xlink:title="usage">
<path fill="none" stroke="#1414ce" d="M815.97,-359.81C797.63,-330.07 758.34,-267.28 722.5,-216 716.16,-206.93 708.95,-197.21 702.41,-188.6"/>
<polygon fill="#1414ce" stroke="#1414ce" points="705.02,-186.24 696.16,-180.43 699.46,-190.5 705.02,-186.24"/>
</a>
</g>
</g>
<!-- 3&#45;&gt;4 -->
<g id="edge15" class="edge">
<title>3&#45;&gt;4</title>
<g id="a_edge15"><a xlink:title="usage">
<path fill="none" stroke="#1414ce" d="M845.36,-359.73C870.41,-334.82 911.5,-286.14 911.5,-235 911.5,-235 911.5,-235 911.5,-161 911.5,-120.36 919.3,-100.68 890.5,-72 865.76,-47.37 771.79,-31.99 712.19,-24.49"/>
<polygon fill="#1414ce" stroke="#1414ce" points="712.56,-21.01 702.21,-23.27 711.71,-27.96 712.56,-21.01"/>
</a>
</g>
</g>
<!-- 6 -->
<g id="node17" class="node">
<title>6</title>
<g id="a_node17"><a xlink:title="MessageQueueItem">
<polygon fill="#ffffff" stroke="black" points="1245.5,-324 1087.5,-324 1087.5,-288 1245.5,-288 1245.5,-324"/>
<text text-anchor="middle" x="1166.5" y="-302.3" font-family="Times,serif" font-size="14.00">MessageQueueItem</text>
</a>
</g>
</g>
<!-- 3&#45;&gt;6 -->
<g id="edge17" class="edge">
<title>3&#45;&gt;6</title>
<g id="a_edge17"><a xlink:title="usage">
<path fill="none" stroke="#1414ce" d="M886.11,-364.73C939.06,-353.83 1017.18,-337.74 1077.53,-325.32"/>
<polygon fill="#1414ce" stroke="#1414ce" points="1078.34,-328.72 1087.43,-323.28 1076.93,-321.87 1078.34,-328.72"/>
</a>
</g>
</g>
<!-- 3&#45;&gt;19 -->
<g id="edge23" class="edge">
<title>3&#45;&gt;19</title>
<g id="a_edge23"><a xlink:title="usage">
<path fill="none" stroke="#1414ce" d="M766.94,-369.74C704.26,-361.41 603.02,-346.01 517.5,-324 516.08,-323.64 514.65,-323.25 513.2,-322.84"/>
<polygon fill="#1414ce" stroke="#1414ce" points="514.2,-319.49 503.62,-319.96 512.18,-326.19 514.2,-319.49"/>
</a>
</g>
</g>
<!-- 8 -->
<g id="node20" class="node">
<title>8</title>
<g id="a_node20"><a xlink:title="RefcBinaryQueueItem">
<polygon fill="#ffffff" stroke="black" points="733.5,-324 559.5,-324 559.5,-288 733.5,-288 733.5,-324"/>
<text text-anchor="middle" x="646.5" y="-302.3" font-family="Times,serif" font-size="14.00">RefcBinaryQueueItem</text>
</a>
</g>
</g>
<!-- 3&#45;&gt;8 -->
<g id="edge18" class="edge">
<title>3&#45;&gt;8</title>
<g id="a_edge18"><a xlink:title="usage">
<path fill="none" stroke="#1414ce" d="M782.47,-359.88C757.53,-350.18 726.16,-337.98 699.84,-327.74"/>
<polygon fill="#1414ce" stroke="#1414ce" points="700.98,-324.43 690.39,-324.07 698.44,-330.95 700.98,-324.43"/>
</a>
</g>
</g>
<!-- 10 -->
<g id="node21" class="node">
<title>10</title>
<g id="a_node21"><a xlink:title="ResourceType">
<polygon fill="#ffffff" stroke="black" points="845,-180 728,-180 728,-144 845,-144 845,-180"/>
<text text-anchor="middle" x="786.5" y="-158.3" font-family="Times,serif" font-size="14.00">ResourceType</text>
</a>
</g>
</g>
<!-- 3&#45;&gt;10 -->
<g id="edge25" class="edge">
<title>3&#45;&gt;10</title>
<g id="a_edge25"><a xlink:title="usage">
<path fill="none" stroke="#1414ce" d="M819.42,-359.85C808.96,-322.83 792.31,-235.18 786.93,-190.39"/>
<polygon fill="#1414ce" stroke="#1414ce" points="790.38,-189.8 785.84,-180.23 783.42,-190.55 790.38,-189.8"/>
</a>
</g>
</g>
<!-- 5 -->
<g id="node22" class="node">
<title>5</title>
<g id="a_node22"><a xlink:title="SpinLock">
<polygon fill="#ffffff" stroke="black" points="1363.5,-324 1281.5,-324 1281.5,-288 1363.5,-288 1363.5,-324"/>
<text text-anchor="middle" x="1322.5" y="-302.3" font-family="Times,serif" font-size="14.00">SpinLock</text>
</a>
</g>
</g>
<!-- 3&#45;&gt;5 -->
<g id="edge16" class="edge">
<title>3&#45;&gt;5</title>
<g id="a_edge16"><a xlink:title="usage">
<path fill="none" stroke="#1414ce" d="M886.33,-373.88C970.63,-368.6 1129.06,-355.48 1271.69,-323.91"/>
<polygon fill="#1414ce" stroke="#1414ce" points="1272.51,-327.31 1281.5,-321.7 1270.97,-320.48 1272.51,-327.31"/>
</a>
</g>
</g>
<!-- 3&#45;&gt;11 -->
<g id="edge19" class="edge">
<title>3&#45;&gt;11</title>
<g id="a_edge19"><a xlink:title="usage">
<path fill="none" stroke="#1414ce" d="M766.75,-374.16C693.98,-369.3 577.38,-356.54 550.5,-324 540.31,-311.67 545.86,-303.31 550.5,-288 556.07,-269.6 634.68,-159.17 646.5,-144 653.98,-134.4 662.76,-124.39 670.76,-115.68"/>
<polygon fill="#1414ce" stroke="#1414ce" points="673.57,-117.8 677.83,-108.1 668.45,-113.03 673.57,-117.8"/>
</a>
</g>
</g>
<!-- 22 -->
<g id="node24" class="node">
<title>22</title>
<g id="a_node24"><a xlink:title="TimerList">
<polygon fill="#ffffff" stroke="black" points="881.5,-108 795.5,-108 795.5,-72 881.5,-72 881.5,-108"/>
<text text-anchor="middle" x="838.5" y="-86.3" font-family="Times,serif" font-size="14.00">TimerList</text>
</a>
</g>
</g>
<!-- 3&#45;&gt;22 -->
<g id="edge24" class="edge">
<title>3&#45;&gt;22</title>
<g id="a_edge24"><a xlink:title="usage">
<path fill="none" stroke="#1414ce" d="M831.72,-359.71C842.74,-320.99 866.37,-224.41 854.5,-144 853.22,-135.35 850.83,-126.15 848.28,-117.89"/>
<polygon fill="#1414ce" stroke="#1414ce" points="851.6,-116.78 845.15,-108.37 844.95,-118.96 851.6,-116.78"/>
</a>
</g>
</g>
<!-- 18 -->
<g id="node26" class="node">
<title>18</title>
<g id="a_node26"><a xlink:title="ValuesHashTable">
<polygon fill="#ffffff" stroke="black" points="1077.5,-252 939.5,-252 939.5,-216 1077.5,-216 1077.5,-252"/>
<text text-anchor="middle" x="1008.5" y="-230.3" font-family="Times,serif" font-size="14.00">ValuesHashTable</text>
</a>
</g>
</g>
<!-- 3&#45;&gt;18 -->
<g id="edge22" class="edge">
<title>3&#45;&gt;18</title>
<g id="a_edge22"><a xlink:title="usage">
<path fill="none" stroke="#1414ce" d="M865.42,-359.87C884.43,-350.6 907.11,-338.15 925.5,-324 949.71,-305.37 973.05,-279.39 988.78,-260.31"/>
<polygon fill="#1414ce" stroke="#1414ce" points="991.67,-262.31 995.24,-252.33 986.23,-257.9 991.67,-262.31"/>
</a>
</g>
</g>
<!-- 14&#45;&gt;14 -->
<g id="edge26" class="edge">
<title>14&#45;&gt;14</title>
<g id="a_edge26"><a xlink:title="usage">
<path fill="none" stroke="#1414ce" d="M1233.85,-175.47C1243.78,-175.07 1251.5,-170.58 1251.5,-162 1251.5,-156.64 1248.48,-152.87 1243.8,-150.71"/>
<polygon fill="#1414ce" stroke="#1414ce" points="1244.37,-147.25 1233.85,-148.53 1242.87,-154.09 1244.37,-147.25"/>
</a>
</g>
</g>
<!-- 14&#45;&gt;15 -->
<g id="edge27" class="edge">
<title>14&#45;&gt;15</title>
<g id="a_edge27"><a xlink:title="usage">
<path fill="none" stroke="#1414ce" d="M1233.58,-146.15C1258.99,-134.75 1294.05,-119.02 1320.23,-107.28"/>
<polygon fill="#1414ce" stroke="#1414ce" points="1321.74,-110.43 1329.43,-103.15 1318.88,-104.05 1321.74,-110.43"/>
</a>
</g>
</g>
<!-- 17&#45;&gt;14 -->
<g id="edge29" class="edge">
<title>17&#45;&gt;14</title>
<g id="a_edge29"><a xlink:title="usage">
<path fill="none" stroke="#1414ce" d="M1162.86,-215.7C1168.73,-207.47 1175.87,-197.48 1182.34,-188.42"/>
<polygon fill="#1414ce" stroke="#1414ce" points="1185.32,-190.28 1188.28,-180.1 1179.62,-186.21 1185.32,-190.28"/>
</a>
</g>
</g>
<!-- 17&#45;&gt;17 -->
<g id="edge28" class="edge">
<title>17&#45;&gt;17</title>
<g id="a_edge28"><a xlink:title="usage">
<path fill="none" stroke="#1414ce" d="M1205.57,-246.85C1216.07,-245.32 1223.5,-241.03 1223.5,-234 1223.5,-229.5 1220.45,-226.12 1215.5,-223.87"/>
<polygon fill="#1414ce" stroke="#1414ce" points="1216.14,-220.42 1205.57,-221.15 1214.29,-227.17 1216.14,-220.42"/>
</a>
</g>
</g>
<!-- 16 -->
<g id="node12" class="node">
<title>16</title>
<g id="a_node12"><a xlink:title="HeapFragment">
<polygon fill="#ffffff" stroke="black" points="1419,-36 1294,-36 1294,0 1419,0 1419,-36"/>
<text text-anchor="middle" x="1356.5" y="-14.3" font-family="Times,serif" font-size="14.00">HeapFragment</text>
</a>
</g>
</g>
<!-- 15&#45;&gt;16 -->
<g id="edge30" class="edge">
<title>15&#45;&gt;16</title>
<g id="a_edge30"><a xlink:title="usage">
<path fill="none" stroke="#1414ce" d="M1356.5,-71.7C1356.5,-63.98 1356.5,-54.71 1356.5,-46.11"/>
<polygon fill="#1414ce" stroke="#1414ce" points="1360,-46.1 1356.5,-36.1 1353,-46.1 1360,-46.1"/>
</a>
</g>
</g>
<!-- 16&#45;&gt;16 -->
<g id="edge31" class="edge">
<title>16&#45;&gt;16</title>
<g id="a_edge31"><a xlink:title="usage">
<path fill="none" stroke="#1414ce" d="M1419.28,-30.55C1429.76,-28.79 1437,-24.61 1437,-18 1437,-13.77 1434.03,-10.53 1429.14,-8.29"/>
<polygon fill="#1414ce" stroke="#1414ce" points="1429.86,-4.85 1419.28,-5.45 1427.92,-11.58 1429.86,-4.85"/>
</a>
</g>
</g>
<!-- 4&#45;&gt;4 -->
<g id="edge32" class="edge">
<title>4&#45;&gt;4</title>
<g id="a_edge32"><a xlink:title="usage">
<path fill="none" stroke="#1414ce" d="M702.23,-31.31C712.4,-30.38 720,-25.95 720,-18 720,-12.91 716.88,-9.26 711.97,-7.05"/>
<polygon fill="#1414ce" stroke="#1414ce" points="712.78,-3.64 702.23,-4.69 711.13,-10.45 712.78,-3.64"/>
</a>
</g>
</g>
<!-- 21 -->
<g id="node14" class="node">
<title>21</title>
<g id="a_node14"><a xlink:title="LiteralEntry">
<polygon fill="#ffffff" stroke="black" points="397.5,-252 293.5,-252 293.5,-216 397.5,-216 397.5,-252"/>
<text text-anchor="middle" x="345.5" y="-230.3" font-family="Times,serif" font-size="14.00">LiteralEntry</text>
</a>
</g>
</g>
<!-- 7 -->
<g id="node16" class="node">
<title>7</title>
<g id="a_node16"><a xlink:title="MailboxMessage">
<polygon fill="#ffffff" stroke="black" points="1417,-252 1280,-252 1280,-216 1417,-216 1417,-252"/>
<text text-anchor="middle" x="1348.5" y="-230.3" font-family="Times,serif" font-size="14.00">MailboxMessage</text>
</a>
</g>
</g>
<!-- 24&#45;&gt;7 -->
<g id="edge33" class="edge">
<title>24&#45;&gt;7</title>
<g id="a_edge33"><a xlink:title="usage">
<path fill="none" stroke="#1414ce" d="M1203.91,-372.82C1257.52,-365.97 1352.02,-350.41 1372.5,-324 1386.64,-305.77 1377.24,-279.84 1366.33,-260.67"/>
<polygon fill="#1414ce" stroke="#1414ce" points="1369.32,-258.85 1361.12,-252.13 1363.34,-262.49 1369.32,-258.85"/>
</a>
</g>
</g>
<!-- 7&#45;&gt;7 -->
<g id="edge34" class="edge">
<title>7&#45;&gt;7</title>
<g id="a_edge34"><a xlink:title="usage">
<path fill="none" stroke="#1414ce" d="M1417.03,-246.37C1427.71,-244.52 1435,-240.4 1435,-234 1435,-229.8 1431.86,-226.58 1426.68,-224.34"/>
<polygon fill="#1414ce" stroke="#1414ce" points="1427.6,-220.96 1417.03,-221.63 1425.71,-227.7 1427.6,-220.96"/>
</a>
</g>
</g>
<!-- 6&#45;&gt;7 -->
<g id="edge36" class="edge">
<title>6&#45;&gt;7</title>
<g id="a_edge36"><a xlink:title="usage">
<path fill="none" stroke="#1414ce" d="M1211.02,-287.88C1236.23,-278.18 1267.95,-265.98 1294.57,-255.74"/>
<polygon fill="#1414ce" stroke="#1414ce" points="1296.05,-258.92 1304.12,-252.07 1293.53,-252.39 1296.05,-258.92"/>
</a>
</g>
</g>
<!-- 6&#45;&gt;6 -->
<g id="edge35" class="edge">
<title>6&#45;&gt;6</title>
<g id="a_edge35"><a xlink:title="usage">
<path fill="none" stroke="#1414ce" d="M1245.66,-317.98C1256.37,-315.97 1263.5,-311.98 1263.5,-306 1263.5,-302.08 1260.43,-299.01 1255.29,-296.8"/>
<polygon fill="#1414ce" stroke="#1414ce" points="1256.24,-293.43 1245.66,-294.02 1254.3,-300.15 1256.24,-293.43"/>
</a>
</g>
</g>
<!-- 19&#45;&gt;2 -->
<g id="edge37" class="edge">
<title>19&#45;&gt;2</title>
<g id="a_edge37"><a xlink:title="usage">
<path fill="none" stroke="#1414ce" d="M473.09,-324.19C475.65,-348.42 475.93,-392.89 473.95,-421.68"/>
<polygon fill="#1414ce" stroke="#1414ce" points="470.45,-421.61 473.08,-431.87 477.42,-422.21 470.45,-421.61"/>
</a>
</g>
</g>
<!-- 19&#45;&gt;20 -->
<g id="edge38" class="edge">
<title>19&#45;&gt;20</title>
<g id="a_edge38"><a xlink:title="usage">
<path fill="none" stroke="#1414ce" d="M473.44,-287.7C475.67,-279.9 478.35,-270.51 480.83,-261.83"/>
<polygon fill="#1414ce" stroke="#1414ce" points="484.23,-262.68 483.61,-252.1 477.5,-260.76 484.23,-262.68"/>
</a>
</g>
</g>
<!-- 19&#45;&gt;21 -->
<g id="edge39" class="edge">
<title>19&#45;&gt;21</title>
<g id="a_edge39"><a xlink:title="usage">
<path fill="none" stroke="#1414ce" d="M438.41,-287.88C422.18,-278.64 401.96,-267.13 384.53,-257.21"/>
<polygon fill="#1414ce" stroke="#1414ce" points="386.13,-254.09 375.7,-252.19 382.66,-260.18 386.13,-254.09"/>
</a>
</g>
</g>
<!-- 9 -->
<g id="node19" class="node">
<title>9</title>
<g id="a_node19"><a xlink:title="RefcBinary">
<polygon fill="#ffffff" stroke="black" points="713,-252 618,-252 618,-216 713,-216 713,-252"/>
<text text-anchor="middle" x="665.5" y="-230.3" font-family="Times,serif" font-size="14.00">RefcBinary</text>
</a>
</g>
</g>
<!-- 9&#45;&gt;4 -->
<g id="edge40" class="edge">
<title>9&#45;&gt;4</title>
<g id="a_edge40"><a xlink:title="usage">
<path fill="none" stroke="#1414ce" d="M657.61,-215.75C653.39,-205.58 648.64,-192.33 646.5,-180 638.28,-132.71 639.9,-119.54 646.5,-72 647.68,-63.48 649.89,-54.39 652.25,-46.2"/>
<polygon fill="#1414ce" stroke="#1414ce" points="655.67,-46.99 655.26,-36.41 648.98,-44.94 655.67,-46.99"/>
</a>
</g>
</g>
<!-- 9&#45;&gt;10 -->
<g id="edge41" class="edge">
<title>9&#45;&gt;10</title>
<g id="a_edge41"><a xlink:title="usage">
<path fill="none" stroke="#1414ce" d="M695.1,-215.88C711.07,-206.64 730.96,-195.13 748.11,-185.21"/>
<polygon fill="#1414ce" stroke="#1414ce" points="749.88,-188.23 756.79,-180.19 746.38,-182.17 749.88,-188.23"/>
</a>
</g>
</g>
<!-- 8&#45;&gt;9 -->
<g id="edge43" class="edge">
<title>8&#45;&gt;9</title>
<g id="a_edge43"><a xlink:title="usage">
<path fill="none" stroke="#1414ce" d="M651.2,-287.7C653.31,-279.9 655.86,-270.51 658.22,-261.83"/>
<polygon fill="#1414ce" stroke="#1414ce" points="661.62,-262.67 660.86,-252.1 654.86,-260.84 661.62,-262.67"/>
</a>
</g>
</g>
<!-- 8&#45;&gt;8 -->
<g id="edge42" class="edge">
<title>8&#45;&gt;8</title>
<g id="a_edge42"><a xlink:title="usage">
<path fill="none" stroke="#1414ce" d="M733.8,-317.68C744.49,-315.59 751.5,-311.7 751.5,-306 751.5,-302.35 748.62,-299.44 743.75,-297.27"/>
<polygon fill="#1414ce" stroke="#1414ce" points="744.38,-293.81 733.8,-294.32 742.39,-300.52 744.38,-293.81"/>
</a>
</g>
</g>
<!-- 10&#45;&gt;3 -->
<g id="edge45" class="edge">
<title>10&#45;&gt;3</title>
<g id="a_edge45"><a xlink:title="usage">
<path fill="none" stroke="#1414ce" d="M793.61,-180.23C804.07,-217.32 820.72,-304.98 826.09,-349.71"/>
<polygon fill="#1414ce" stroke="#1414ce" points="822.63,-350.28 827.17,-359.85 829.59,-349.53 822.63,-350.28"/>
</a>
</g>
</g>
<!-- 10&#45;&gt;4 -->
<g id="edge44" class="edge">
<title>10&#45;&gt;4</title>
<g id="a_edge44"><a xlink:title="usage">
<path fill="none" stroke="#1414ce" d="M781.05,-143.67C774.35,-124.48 761.48,-93.41 742.5,-72 731.89,-60.03 717.98,-49.64 704.68,-41.3"/>
<polygon fill="#1414ce" stroke="#1414ce" points="706.45,-38.28 696.08,-36.13 702.84,-44.28 706.45,-38.28"/>
</a>
</g>
</g>
<!-- 10&#45;&gt;11 -->
<g id="edge46" class="edge">
<title>10&#45;&gt;11</title>
<g id="a_edge46"><a xlink:title="usage">
<path fill="none" stroke="#1414ce" d="M763.76,-143.7C752.06,-134.8 737.64,-123.82 724.99,-114.2"/>
<polygon fill="#1414ce" stroke="#1414ce" points="727.06,-111.37 716.98,-108.1 722.82,-116.94 727.06,-111.37"/>
</a>
</g>
</g>
<!-- 11&#45;&gt;4 -->
<g id="edge47" class="edge">
<title>11&#45;&gt;4</title>
<g id="a_edge47"><a xlink:title="usage">
<path fill="none" stroke="#1414ce" d="M686.34,-71.7C682.59,-63.73 678.05,-54.1 673.88,-45.26"/>
<polygon fill="#1414ce" stroke="#1414ce" points="676.99,-43.66 669.56,-36.1 670.66,-46.64 676.99,-43.66"/>
</a>
</g>
</g>
<!-- 22&#45;&gt;4 -->
<g id="edge48" class="edge">
<title>22&#45;&gt;4</title>
<g id="a_edge48"><a xlink:title="usage">
<path fill="none" stroke="#1414ce" d="M795.2,-71.88C769.95,-61.89 737.99,-49.25 711.65,-38.83"/>
<polygon fill="#1414ce" stroke="#1414ce" points="712.81,-35.53 702.23,-35.11 710.24,-42.04 712.81,-35.53"/>
</a>
</g>
</g>
<!-- 23&#45;&gt;4 -->
<g id="edge49" class="edge">
<title>23&#45;&gt;4</title>
<g id="a_edge49"><a xlink:title="usage">
<path fill="none" stroke="#1414ce" d="M236.65,-143.64C248.59,-122.88 271.54,-88.82 301.5,-72 353.5,-42.8 524.65,-27.84 610.89,-22"/>
<polygon fill="#1414ce" stroke="#1414ce" points="611.22,-25.49 620.97,-21.33 610.76,-18.5 611.22,-25.49"/>
</a>
</g>
</g>
<!-- 18&#45;&gt;14 -->
<g id="edge50" class="edge">
<title>18&#45;&gt;14</title>
<g id="a_edge50"><a xlink:title="usage">
<path fill="none" stroke="#1414ce" d="M1055.47,-215.88C1086.72,-204.48 1127.46,-189.63 1157.8,-178.57"/>
<polygon fill="#1414ce" stroke="#1414ce" points="1159.06,-181.83 1167.25,-175.12 1156.66,-175.26 1159.06,-181.83"/>
</a>
</g>
</g>
</g>
</svg>
