<?xml version="1.0" encoding="UTF-8" standalone="no"?>
<!DOCTYPE svg PUBLIC "-//W3C//DTD SVG 1.1//EN"
 "http://www.w3.org/Graphics/SVG/1.1/DTD/svg11.dtd">
<!-- Generated by graphviz version 2.43.0 (0)
 -->
<!-- Title: %3 Pages: 1 -->
<svg width="1405pt" height="764pt"
 viewBox="0.00 0.00 1404.92 764.00" xmlns="http://www.w3.org/2000/svg" xmlns:xlink="http://www.w3.org/1999/xlink">
<g id="graph0" class="graph" transform="scale(1 1) rotate(0) translate(4 760)">
<title>%3</title>
<polygon fill="transparent" stroke="transparent" points="-4,4 -4,-760 1400.92,-760 1400.92,4 -4,4"/>
<!-- 8 -->
<g id="node1" class="node">
<title>8</title>
<g id="a_node1"><a xlink:title="stdbool.h">
<polygon fill="#ffffff" stroke="black" points="570.92,-108 487.92,-108 487.92,-72 570.92,-72 570.92,-108"/>
<text text-anchor="middle" x="529.42" y="-86.3" font-family="Times,serif" font-size="14.00">stdbool.h</text>
</a>
</g>
</g>
<!-- 1 -->
<g id="node2" class="node">
<title>1</title>
<g id="a_node2"><a xlink:title="/__w/AtomVM/AtomVM/src/libAtomVM/erl_nif_priv.h">
<polygon fill="#bfbfbf" stroke="black" points="1396.92,-756 1011.92,-756 1011.92,-720 1396.92,-720 1396.92,-756"/>
<text text-anchor="middle" x="1204.42" y="-734.3" font-family="Times,serif" font-size="14.00">/__w/AtomVM/AtomVM/src/libAtomVM/erl_nif_priv.h</text>
</a>
</g>
</g>
<!-- 2 -->
<g id="node11" class="node">
<title>2</title>
<g id="a_node11"><a xlink:title="context.h">
<polygon fill="#ffffff" stroke="black" points="494.92,-684 411.92,-684 411.92,-648 494.92,-648 494.92,-684"/>
<text text-anchor="middle" x="453.42" y="-662.3" font-family="Times,serif" font-size="14.00">context.h</text>
</a>
</g>
</g>
<!-- 1&#45;&gt;2 -->
<g id="edge1" class="edge">
<title>1&#45;&gt;2</title>
<g id="a_edge1"><a xlink:title="include">
<path fill="none" stroke="#1414ce" d="M1021.67,-719.97C851.91,-704.14 610.05,-681.6 505.2,-671.83"/>
<polygon fill="#1414ce" stroke="#1414ce" points="505.48,-668.34 495.19,-670.89 504.83,-675.31 505.48,-668.34"/>
</a>
</g>
</g>
<!-- 22 -->
<g id="node12" class="node">
<title>22</title>
<g id="a_node12"><a xlink:title="memory.h">
<polygon fill="#ffffff" stroke="black" points="1219.42,-252 1133.42,-252 1133.42,-216 1219.42,-216 1219.42,-252"/>
<text text-anchor="middle" x="1176.42" y="-230.3" font-family="Times,serif" font-size="14.00">memory.h</text>
</a>
</g>
</g>
<!-- 1&#45;&gt;22 -->
<g id="edge2" class="edge">
<title>1&#45;&gt;22</title>
<g id="a_edge2"><a xlink:title="include">
<path fill="none" stroke="#1414ce" d="M1220.91,-719.77C1243.27,-694.53 1280.42,-645.05 1280.42,-595 1280.42,-595 1280.42,-595 1280.42,-377 1280.42,-327.63 1239,-284.02 1208.44,-258.56"/>
<polygon fill="#1414ce" stroke="#1414ce" points="1210.52,-255.74 1200.54,-252.18 1206.12,-261.19 1210.52,-255.74"/>
</a>
</g>
</g>
<!-- 26 -->
<g id="node13" class="node">
<title>26</title>
<g id="a_node13"><a xlink:title="resources.h">
<polygon fill="#ffffff" stroke="black" points="1100.42,-324 1000.42,-324 1000.42,-288 1100.42,-288 1100.42,-324"/>
<text text-anchor="middle" x="1050.42" y="-302.3" font-family="Times,serif" font-size="14.00">resources.h</text>
</a>
</g>
</g>
<!-- 1&#45;&gt;26 -->
<g id="edge3" class="edge">
<title>1&#45;&gt;26</title>
<g id="a_edge3"><a xlink:title="include">
<path fill="none" stroke="#1414ce" d="M1204.42,-719.95C1204.42,-693.29 1204.42,-640.11 1204.42,-595 1204.42,-595 1204.42,-595 1204.42,-449 1204.42,-391.84 1146.37,-351.34 1101.56,-328.59"/>
<polygon fill="#1414ce" stroke="#1414ce" points="1103.02,-325.41 1092.5,-324.14 1099.93,-331.7 1103.02,-325.41"/>
</a>
</g>
</g>
<!-- 25 -->
<g id="node3" class="node">
<title>25</title>
<g id="a_node3"><a xlink:title="refc_binary.h">
<polygon fill="#ffffff" stroke="black" points="703.42,-396 595.42,-396 595.42,-360 703.42,-360 703.42,-396"/>
<text text-anchor="middle" x="649.42" y="-374.3" font-family="Times,serif" font-size="14.00">refc_binary.h</text>
</a>
</g>
</g>
<!-- 25&#45;&gt;8 -->
<g id="edge4" class="edge">
<title>25&#45;&gt;8</title>
<g id="a_edge4"><a xlink:title="include">
<path fill="none" stroke="#1414ce" d="M639.95,-359.94C626.96,-336.17 603.31,-291.56 586.42,-252 566.67,-205.74 548.07,-150.09 537.76,-117.81"/>
<polygon fill="#1414ce" stroke="#1414ce" points="541.07,-116.67 534.72,-108.19 534.4,-118.78 541.07,-116.67"/>
</a>
</g>
</g>
<!-- 15 -->
<g id="node8" class="node">
<title>15</title>
<g id="a_node8"><a xlink:title="list.h">
<polygon fill="#ffffff" stroke="black" points="338.42,-180 284.42,-180 284.42,-144 338.42,-144 338.42,-180"/>
<text text-anchor="middle" x="311.42" y="-158.3" font-family="Times,serif" font-size="14.00">list.h</text>
</a>
</g>
</g>
<!-- 25&#45;&gt;15 -->
<g id="edge6" class="edge">
<title>25&#45;&gt;15</title>
<g id="a_edge6"><a xlink:title="include">
<path fill="none" stroke="#1414ce" d="M595.28,-371.39C523.54,-360.96 398.17,-331.81 330.42,-252 315.93,-234.93 311.66,-209.47 310.74,-190.16"/>
<polygon fill="#1414ce" stroke="#1414ce" points="314.24,-190.07 310.53,-180.15 307.24,-190.22 314.24,-190.07"/>
</a>
</g>
</g>
<!-- 6 -->
<g id="node10" class="node">
<title>6</title>
<g id="a_node10"><a xlink:title="stdlib.h">
<polygon fill="#ffffff" stroke="black" points="966.92,-108 895.92,-108 895.92,-72 966.92,-72 966.92,-108"/>
<text text-anchor="middle" x="931.42" y="-86.3" font-family="Times,serif" font-size="14.00">stdlib.h</text>
</a>
</g>
</g>
<!-- 25&#45;&gt;6 -->
<g id="edge5" class="edge">
<title>25&#45;&gt;6</title>
<g id="a_edge5"><a xlink:title="include">
<path fill="none" stroke="#1414ce" d="M666.22,-359.97C714.01,-311.5 850.9,-172.67 907,-115.77"/>
<polygon fill="#1414ce" stroke="#1414ce" points="909.83,-117.88 914.36,-108.31 904.84,-112.97 909.83,-117.88"/>
</a>
</g>
</g>
<!-- 25&#45;&gt;26 -->
<g id="edge7" class="edge">
<title>25&#45;&gt;26</title>
<g id="a_edge7"><a xlink:title="include">
<path fill="none" stroke="#1414ce" d="M703.5,-367.56C778.18,-354.52 912.44,-331.09 990.22,-317.51"/>
<polygon fill="#1414ce" stroke="#1414ce" points="991.1,-320.91 1000.35,-315.74 989.9,-314.01 991.1,-320.91"/>
</a>
</g>
</g>
<!-- 5 -->
<g id="node4" class="node">
<title>5</title>
<g id="a_node4"><a xlink:title="atom.h">
<polygon fill="#ffffff" stroke="black" points="743.42,-180 677.42,-180 677.42,-144 743.42,-144 743.42,-180"/>
<text text-anchor="middle" x="710.42" y="-158.3" font-family="Times,serif" font-size="14.00">atom.h</text>
</a>
</g>
</g>
<!-- 4 -->
<g id="node9" class="node">
<title>4</title>
<g id="a_node9"><a xlink:title="stdint.h">
<polygon fill="#ffffff" stroke="black" points="788.42,-36 716.42,-36 716.42,0 788.42,0 788.42,-36"/>
<text text-anchor="middle" x="752.42" y="-14.3" font-family="Times,serif" font-size="14.00">stdint.h</text>
</a>
</g>
</g>
<!-- 5&#45;&gt;4 -->
<g id="edge8" class="edge">
<title>5&#45;&gt;4</title>
<g id="a_edge8"><a xlink:title="include">
<path fill="none" stroke="#1414ce" d="M715.49,-143.87C722.68,-119.56 735.91,-74.82 744.43,-46.01"/>
<polygon fill="#1414ce" stroke="#1414ce" points="747.86,-46.77 747.34,-36.19 741.15,-44.79 747.86,-46.77"/>
</a>
</g>
</g>
<!-- 5&#45;&gt;6 -->
<g id="edge9" class="edge">
<title>5&#45;&gt;6</title>
<g id="a_edge9"><a xlink:title="include">
<path fill="none" stroke="#1414ce" d="M743.61,-151.89C777.41,-142.44 831.48,-126.81 886.02,-108.37"/>
<polygon fill="#1414ce" stroke="#1414ce" points="887.15,-111.69 895.49,-105.15 884.89,-105.06 887.15,-111.69"/>
</a>
</g>
</g>
<!-- 11 -->
<g id="node5" class="node">
<title>11</title>
<g id="a_node5"><a xlink:title="assert.h">
<polygon fill="#ffffff" stroke="black" points="1383.42,-36 1309.42,-36 1309.42,0 1383.42,0 1383.42,-36"/>
<text text-anchor="middle" x="1346.42" y="-14.3" font-family="Times,serif" font-size="14.00">assert.h</text>
</a>
</g>
</g>
<!-- 23 -->
<g id="node6" class="node">
<title>23</title>
<g id="a_node6"><a xlink:title="utils.h">
<polygon fill="#ffffff" stroke="black" points="1051.42,-180 989.42,-180 989.42,-144 1051.42,-144 1051.42,-180"/>
<text text-anchor="middle" x="1020.42" y="-158.3" font-family="Times,serif" font-size="14.00">utils.h</text>
</a>
</g>
</g>
<!-- 23&#45;&gt;6 -->
<g id="edge12" class="edge">
<title>23&#45;&gt;6</title>
<g id="a_edge12"><a xlink:title="include">
<path fill="none" stroke="#1414ce" d="M998.42,-143.7C987.21,-134.88 973.42,-124.03 961.27,-114.47"/>
<polygon fill="#1414ce" stroke="#1414ce" points="963.19,-111.54 953.17,-108.1 958.87,-117.04 963.19,-111.54"/>
</a>
</g>
</g>
<!-- 24 -->
<g id="node15" class="node">
<title>24</title>
<g id="a_node15"><a xlink:title="stddef.h">
<polygon fill="#ffffff" stroke="black" points="1059.42,-108 985.42,-108 985.42,-72 1059.42,-72 1059.42,-108"/>
<text text-anchor="middle" x="1022.42" y="-86.3" font-family="Times,serif" font-size="14.00">stddef.h</text>
</a>
</g>
</g>
<!-- 23&#45;&gt;24 -->
<g id="edge10" class="edge">
<title>23&#45;&gt;24</title>
<g id="a_edge10"><a xlink:title="include">
<path fill="none" stroke="#1414ce" d="M1020.92,-143.7C1021.14,-135.98 1021.4,-126.71 1021.65,-118.11"/>
<polygon fill="#1414ce" stroke="#1414ce" points="1025.15,-118.2 1021.93,-108.1 1018.15,-118 1025.15,-118.2"/>
</a>
</g>
</g>
<!-- 17 -->
<g id="node26" class="node">
<title>17</title>
<g id="a_node26"><a xlink:title="stdio.h">
<polygon fill="#ffffff" stroke="black" points="877.92,-108 812.92,-108 812.92,-72 877.92,-72 877.92,-108"/>
<text text-anchor="middle" x="845.42" y="-86.3" font-family="Times,serif" font-size="14.00">stdio.h</text>
</a>
</g>
</g>
<!-- 23&#45;&gt;17 -->
<g id="edge11" class="edge">
<title>23&#45;&gt;17</title>
<g id="a_edge11"><a xlink:title="include">
<path fill="none" stroke="#1414ce" d="M989.23,-148.63C962.27,-137.91 922.25,-121.99 887.42,-108 887.33,-107.96 887.23,-107.92 887.13,-107.88"/>
<polygon fill="#1414ce" stroke="#1414ce" points="888.56,-104.68 877.97,-104.2 885.94,-111.18 888.56,-104.68"/>
</a>
</g>
</g>
<!-- 16 -->
<g id="node7" class="node">
<title>16</title>
<g id="a_node7"><a xlink:title="synclist.h">
<polygon fill="#ffffff" stroke="black" points="424.92,-252 339.92,-252 339.92,-216 424.92,-216 424.92,-252"/>
<text text-anchor="middle" x="382.42" y="-230.3" font-family="Times,serif" font-size="14.00">synclist.h</text>
</a>
</g>
</g>
<!-- 16&#45;&gt;15 -->
<g id="edge14" class="edge">
<title>16&#45;&gt;15</title>
<g id="a_edge14"><a xlink:title="include">
<path fill="none" stroke="#1414ce" d="M364.87,-215.7C356.19,-207.14 345.56,-196.66 336.07,-187.3"/>
<polygon fill="#1414ce" stroke="#1414ce" points="338.35,-184.63 328.77,-180.1 333.43,-189.62 338.35,-184.63"/>
</a>
</g>
</g>
<!-- 18 -->
<g id="node23" class="node">
<title>18</title>
<g id="a_node23"><a xlink:title="smp.h">
<polygon fill="#ffffff" stroke="black" points="458.42,-180 398.42,-180 398.42,-144 458.42,-144 458.42,-180"/>
<text text-anchor="middle" x="428.42" y="-158.3" font-family="Times,serif" font-size="14.00">smp.h</text>
</a>
</g>
</g>
<!-- 16&#45;&gt;18 -->
<g id="edge15" class="edge">
<title>16&#45;&gt;18</title>
<g id="a_edge15"><a xlink:title="include">
<path fill="none" stroke="#1414ce" d="M393.79,-215.7C399.14,-207.56 405.63,-197.69 411.53,-188.7"/>
<polygon fill="#1414ce" stroke="#1414ce" points="414.62,-190.38 417.18,-180.1 408.77,-186.54 414.62,-190.38"/>
</a>
</g>
</g>
<!-- 16&#45;&gt;17 -->
<g id="edge13" class="edge">
<title>16&#45;&gt;17</title>
<g id="a_edge13"><a xlink:title="include">
<path fill="none" stroke="#1414ce" d="M425.02,-219.59C480.86,-202.04 581.88,-170.42 668.42,-144 714.41,-129.96 767.23,-114.19 803.12,-103.53"/>
<polygon fill="#1414ce" stroke="#1414ce" points="804.18,-106.86 812.77,-100.66 802.19,-100.15 804.18,-106.86"/>
</a>
</g>
</g>
<!-- 15&#45;&gt;8 -->
<g id="edge16" class="edge">
<title>15&#45;&gt;8</title>
<g id="a_edge16"><a xlink:title="include">
<path fill="none" stroke="#1414ce" d="M338.59,-152.28C373.4,-141.1 434.43,-121.5 478.11,-107.48"/>
<polygon fill="#1414ce" stroke="#1414ce" points="479.25,-110.79 487.7,-104.4 477.11,-104.12 479.25,-110.79"/>
</a>
</g>
</g>
<!-- 2&#45;&gt;15 -->
<g id="edge18" class="edge">
<title>2&#45;&gt;15</title>
<g id="a_edge18"><a xlink:title="include">
<path fill="none" stroke="#1414ce" d="M411.71,-665.57C322.54,-664.4 121.42,-647.91 121.42,-523 121.42,-523 121.42,-523 121.42,-377 121.42,-285.23 220.34,-214.48 275.43,-182.19"/>
<polygon fill="#1414ce" stroke="#1414ce" points="277.27,-185.17 284.2,-177.16 273.78,-179.1 277.27,-185.17"/>
</a>
</g>
</g>
<!-- 19 -->
<g id="node14" class="node">
<title>19</title>
<g id="a_node14"><a xlink:title="term.h">
<polygon fill="#ffffff" stroke="black" points="916.92,-468 851.92,-468 851.92,-432 916.92,-432 916.92,-468"/>
<text text-anchor="middle" x="884.42" y="-446.3" font-family="Times,serif" font-size="14.00">term.h</text>
</a>
</g>
</g>
<!-- 2&#45;&gt;19 -->
<g id="edge21" class="edge">
<title>2&#45;&gt;19</title>
<g id="a_edge21"><a xlink:title="include">
<path fill="none" stroke="#1414ce" d="M495.03,-663.67C574.97,-658.89 751.06,-637.24 852.42,-540 869.4,-523.72 877.39,-497.79 881.15,-478.11"/>
<polygon fill="#1414ce" stroke="#1414ce" points="884.61,-478.63 882.79,-468.19 877.7,-477.49 884.61,-478.63"/>
</a>
</g>
</g>
<!-- 3 -->
<g id="node22" class="node">
<title>3</title>
<g id="a_node22"><a xlink:title="globalcontext.h">
<polygon fill="#ffffff" stroke="black" points="516.92,-612 389.92,-612 389.92,-576 516.92,-576 516.92,-612"/>
<text text-anchor="middle" x="453.42" y="-590.3" font-family="Times,serif" font-size="14.00">globalcontext.h</text>
</a>
</g>
</g>
<!-- 2&#45;&gt;3 -->
<g id="edge17" class="edge">
<title>2&#45;&gt;3</title>
<g id="a_edge17"><a xlink:title="include">
<path fill="none" stroke="#1414ce" d="M453.42,-647.7C453.42,-639.98 453.42,-630.71 453.42,-622.11"/>
<polygon fill="#1414ce" stroke="#1414ce" points="456.92,-622.1 453.42,-612.1 449.92,-622.1 456.92,-622.1"/>
</a>
</g>
</g>
<!-- 2&#45;&gt;18 -->
<g id="edge20" class="edge">
<title>2&#45;&gt;18</title>
<g id="a_edge20"><a xlink:title="include">
<path fill="none" stroke="#1414ce" d="M426.44,-647.93C412.06,-638.24 394.49,-625.38 380.42,-612 350.65,-583.68 339.99,-577.15 322.42,-540 294.65,-481.28 301.9,-460.8 297.42,-396 291.81,-314.86 281.19,-280.74 330.42,-216 344.98,-196.86 368.51,-183.81 388.86,-175.45"/>
<polygon fill="#1414ce" stroke="#1414ce" points="390.18,-178.69 398.24,-171.83 387.65,-172.16 390.18,-178.69"/>
</a>
</g>
</g>
<!-- 28 -->
<g id="node24" class="node">
<title>28</title>
<g id="a_node24"><a xlink:title="timer_list.h">
<polygon fill="#ffffff" stroke="black" points="131.42,-252 33.42,-252 33.42,-216 131.42,-216 131.42,-252"/>
<text text-anchor="middle" x="82.42" y="-230.3" font-family="Times,serif" font-size="14.00">timer_list.h</text>
</a>
</g>
</g>
<!-- 2&#45;&gt;28 -->
<g id="edge22" class="edge">
<title>2&#45;&gt;28</title>
<g id="a_edge22"><a xlink:title="include">
<path fill="none" stroke="#1414ce" d="M411.8,-662.7C331.25,-657.61 157.58,-643.25 107.42,-612 66.51,-586.51 45.42,-571.21 45.42,-523 45.42,-523 45.42,-523 45.42,-377 45.42,-335.71 60.26,-289.77 71.14,-261.63"/>
<polygon fill="#1414ce" stroke="#1414ce" points="74.48,-262.7 74.94,-252.11 67.98,-260.11 74.48,-262.7"/>
</a>
</g>
</g>
<!-- 27 -->
<g id="node25" class="node">
<title>27</title>
<g id="a_node25"><a xlink:title="mailbox.h">
<polygon fill="#ffffff" stroke="black" points="1010.42,-252 924.42,-252 924.42,-216 1010.42,-216 1010.42,-252"/>
<text text-anchor="middle" x="967.42" y="-230.3" font-family="Times,serif" font-size="14.00">mailbox.h</text>
</a>
</g>
</g>
<!-- 2&#45;&gt;27 -->
<g id="edge19" class="edge">
<title>2&#45;&gt;27</title>
<g id="a_edge19"><a xlink:title="include">
<path fill="none" stroke="#1414ce" d="M495.22,-664.65C636.93,-662.33 1090.42,-645.37 1090.42,-523 1090.42,-523 1090.42,-523 1090.42,-449 1090.42,-405.63 1079.1,-392.53 1050.42,-360 1030.11,-336.96 1009.85,-348.58 991.42,-324 977.96,-306.04 972.05,-281.04 969.45,-262.11"/>
<polygon fill="#1414ce" stroke="#1414ce" points="972.91,-261.57 968.3,-252.04 965.96,-262.37 972.91,-261.57"/>
</a>
</g>
</g>
<!-- 22&#45;&gt;23 -->
<g id="edge27" class="edge">
<title>22&#45;&gt;23</title>
<g id="a_edge27"><a xlink:title="include">
<path fill="none" stroke="#1414ce" d="M1138.26,-215.88C1114.77,-205.34 1084.69,-191.84 1060.8,-181.12"/>
<polygon fill="#1414ce" stroke="#1414ce" points="1062.2,-177.91 1051.64,-177.01 1059.33,-184.3 1062.2,-177.91"/>
</a>
</g>
</g>
<!-- 22&#45;&gt;4 -->
<g id="edge23" class="edge">
<title>22&#45;&gt;4</title>
<g id="a_edge23"><a xlink:title="include">
<path fill="none" stroke="#1414ce" d="M1170.34,-215.99C1157.37,-182.37 1123.57,-107.59 1068.42,-72 1024.62,-43.73 875.56,-28.45 798.86,-22.29"/>
<polygon fill="#1414ce" stroke="#1414ce" points="798.78,-18.77 788.53,-21.48 798.23,-25.75 798.78,-18.77"/>
</a>
</g>
</g>
<!-- 22&#45;&gt;6 -->
<g id="edge24" class="edge">
<title>22&#45;&gt;6</title>
<g id="a_edge24"><a xlink:title="include">
<path fill="none" stroke="#1414ce" d="M1157.43,-215.87C1135.33,-196.57 1097.16,-165.14 1060.42,-144 1045.49,-135.41 1007.31,-120 976.33,-108"/>
<polygon fill="#1414ce" stroke="#1414ce" points="977.58,-104.73 966.99,-104.4 975.06,-111.26 977.58,-104.73"/>
</a>
</g>
</g>
<!-- 9 -->
<g id="node16" class="node">
<title>9</title>
<g id="a_node16"><a xlink:title="erl_nif.h">
<polygon fill="#ffffff" stroke="black" points="1295.42,-180 1221.42,-180 1221.42,-144 1295.42,-144 1295.42,-180"/>
<text text-anchor="middle" x="1258.42" y="-158.3" font-family="Times,serif" font-size="14.00">erl_nif.h</text>
</a>
</g>
</g>
<!-- 22&#45;&gt;9 -->
<g id="edge25" class="edge">
<title>22&#45;&gt;9</title>
<g id="a_edge25"><a xlink:title="include">
<path fill="none" stroke="#1414ce" d="M1196.69,-215.7C1206.92,-206.97 1219.48,-196.24 1230.6,-186.75"/>
<polygon fill="#1414ce" stroke="#1414ce" points="1233.05,-189.26 1238.39,-180.1 1228.51,-183.94 1233.05,-189.26"/>
</a>
</g>
</g>
<!-- 10 -->
<g id="node21" class="node">
<title>10</title>
<g id="a_node21"><a xlink:title="term_typedef.h">
<polygon fill="#ffffff" stroke="black" points="1308.92,-108 1183.92,-108 1183.92,-72 1308.92,-72 1308.92,-108"/>
<text text-anchor="middle" x="1246.42" y="-86.3" font-family="Times,serif" font-size="14.00">term_typedef.h</text>
</a>
</g>
</g>
<!-- 22&#45;&gt;10 -->
<g id="edge26" class="edge">
<title>22&#45;&gt;10</title>
<g id="a_edge26"><a xlink:title="include">
<path fill="none" stroke="#1414ce" d="M1182.28,-215.85C1188.76,-197.61 1199.94,-168.13 1212.42,-144 1217.19,-134.78 1223.11,-125.1 1228.66,-116.58"/>
<polygon fill="#1414ce" stroke="#1414ce" points="1231.62,-118.44 1234.24,-108.18 1225.79,-114.56 1231.62,-118.44"/>
</a>
</g>
</g>
<!-- 26&#45;&gt;16 -->
<g id="edge33" class="edge">
<title>26&#45;&gt;16</title>
<g id="a_edge33"><a xlink:title="include">
<path fill="none" stroke="#1414ce" d="M1000.05,-304.08C894.95,-301.42 644.95,-291.14 439.42,-252 437.96,-251.72 436.49,-251.42 435.01,-251.1"/>
<polygon fill="#1414ce" stroke="#1414ce" points="435.68,-247.67 425.14,-248.76 434.06,-254.48 435.68,-247.67"/>
</a>
</g>
</g>
<!-- 26&#45;&gt;15 -->
<g id="edge30" class="edge">
<title>26&#45;&gt;15</title>
<g id="a_edge30"><a xlink:title="include">
<path fill="none" stroke="#1414ce" d="M1000.11,-302.54C914.36,-297.62 734.8,-284.15 586.42,-252 499.11,-233.08 400.25,-197.44 348.12,-177.48"/>
<polygon fill="#1414ce" stroke="#1414ce" points="349.23,-174.15 338.64,-173.82 346.71,-180.68 349.23,-174.15"/>
</a>
</g>
</g>
<!-- 26&#45;&gt;6 -->
<g id="edge28" class="edge">
<title>26&#45;&gt;6</title>
<g id="a_edge28"><a xlink:title="include">
<path fill="none" stroke="#1414ce" d="M1047.07,-287.82C1042.82,-269.02 1034.22,-238.58 1019.42,-216 1006.49,-196.27 994.97,-198.57 980.42,-180 965.21,-160.58 952,-135.81 943.14,-117.34"/>
<polygon fill="#1414ce" stroke="#1414ce" points="946.2,-115.63 938.79,-108.06 939.86,-118.6 946.2,-115.63"/>
</a>
</g>
</g>
<!-- 26&#45;&gt;22 -->
<g id="edge32" class="edge">
<title>26&#45;&gt;22</title>
<g id="a_edge32"><a xlink:title="include">
<path fill="none" stroke="#1414ce" d="M1081.25,-287.88C1097.87,-278.64 1118.59,-267.13 1136.44,-257.21"/>
<polygon fill="#1414ce" stroke="#1414ce" points="1138.44,-260.11 1145.48,-252.19 1135.04,-253.99 1138.44,-260.11"/>
</a>
</g>
</g>
<!-- 26&#45;&gt;9 -->
<g id="edge29" class="edge">
<title>26&#45;&gt;9</title>
<g id="a_edge29"><a xlink:title="include">
<path fill="none" stroke="#1414ce" d="M1100.8,-302.3C1140.32,-297.59 1194.2,-285.02 1228.42,-252 1245.23,-235.78 1252.62,-209.84 1255.87,-190.15"/>
<polygon fill="#1414ce" stroke="#1414ce" points="1259.34,-190.61 1257.25,-180.22 1252.41,-189.64 1259.34,-190.61"/>
</a>
</g>
</g>
<!-- 26&#45;&gt;27 -->
<g id="edge31" class="edge">
<title>26&#45;&gt;27</title>
<g id="a_edge31"><a xlink:title="include">
<path fill="none" stroke="#1414ce" d="M1029.91,-287.7C1019.55,-278.97 1006.84,-268.24 995.58,-258.75"/>
<polygon fill="#1414ce" stroke="#1414ce" points="997.6,-255.88 987.7,-252.1 993.09,-261.23 997.6,-255.88"/>
</a>
</g>
</g>
<!-- 19&#45;&gt;8 -->
<g id="edge35" class="edge">
<title>19&#45;&gt;8</title>
<g id="a_edge35"><a xlink:title="include">
<path fill="none" stroke="#1414ce" d="M851.87,-446.5C783.9,-440.75 629.64,-424.85 586.42,-396 547.35,-369.92 529.42,-353.97 529.42,-307 529.42,-307 529.42,-307 529.42,-233 529.42,-193 529.42,-146.65 529.42,-118.08"/>
<polygon fill="#1414ce" stroke="#1414ce" points="532.92,-118.05 529.42,-108.05 525.92,-118.05 532.92,-118.05"/>
</a>
</g>
</g>
<!-- 19&#45;&gt;25 -->
<g id="edge41" class="edge">
<title>19&#45;&gt;25</title>
<g id="a_edge41"><a xlink:title="include">
<path fill="none" stroke="#1414ce" d="M851.75,-439.27C816.03,-428.63 757.92,-411.32 713.12,-397.97"/>
<polygon fill="#1414ce" stroke="#1414ce" points="714.07,-394.6 703.48,-395.1 712.07,-401.31 714.07,-394.6"/>
</a>
</g>
</g>
<!-- 19&#45;&gt;23 -->
<g id="edge42" class="edge">
<title>19&#45;&gt;23</title>
<g id="a_edge42"><a xlink:title="include">
<path fill="none" stroke="#1414ce" d="M917.25,-446.66C956.42,-442.36 1022.15,-430.21 1066.42,-396 1095.92,-373.21 1099.51,-359.93 1109.42,-324 1123.91,-271.49 1079.59,-217.49 1048.39,-187.29"/>
<polygon fill="#1414ce" stroke="#1414ce" points="1050.47,-184.44 1040.79,-180.14 1045.68,-189.54 1050.47,-184.44"/>
</a>
</g>
</g>
<!-- 19&#45;&gt;4 -->
<g id="edge36" class="edge">
<title>19&#45;&gt;4</title>
<g id="a_edge36"><a xlink:title="include">
<path fill="none" stroke="#1414ce" d="M851.69,-432.92C837.05,-424.04 820.99,-411.63 811.42,-396 775.26,-336.89 758.8,-122.61 753.99,-46.25"/>
<polygon fill="#1414ce" stroke="#1414ce" points="757.47,-45.79 753.36,-36.02 750.48,-46.22 757.47,-45.79"/>
</a>
</g>
</g>
<!-- 19&#45;&gt;6 -->
<g id="edge38" class="edge">
<title>19&#45;&gt;6</title>
<g id="a_edge38"><a xlink:title="include">
<path fill="none" stroke="#1414ce" d="M916.98,-447.76C952.3,-444.47 1007.14,-433.24 1033.42,-396 1042.65,-382.93 1041.94,-373.54 1033.42,-360 1013.73,-328.71 985.73,-348.93 958.42,-324 930.9,-298.87 925.34,-287.93 915.42,-252 902.75,-206.07 913.9,-150.31 922.86,-117.92"/>
<polygon fill="#1414ce" stroke="#1414ce" points="926.24,-118.85 925.66,-108.27 919.51,-116.9 926.24,-118.85"/>
</a>
</g>
</g>
<!-- 19&#45;&gt;22 -->
<g id="edge40" class="edge">
<title>19&#45;&gt;22</title>
<g id="a_edge40"><a xlink:title="include">
<path fill="none" stroke="#1414ce" d="M916.96,-446.68C979.02,-441.59 1110.97,-427.28 1142.42,-396 1177.94,-360.67 1180.75,-298.2 1179,-262.35"/>
<polygon fill="#1414ce" stroke="#1414ce" points="1182.48,-261.89 1178.34,-252.13 1175.49,-262.34 1182.48,-261.89"/>
</a>
</g>
</g>
<!-- 20 -->
<g id="node19" class="node">
<title>20</title>
<g id="a_node19"><a xlink:title="sys/types.h">
<polygon fill="#ffffff" stroke="black" points="932.92,-396 835.92,-396 835.92,-360 932.92,-360 932.92,-396"/>
<text text-anchor="middle" x="884.42" y="-374.3" font-family="Times,serif" font-size="14.00">sys/types.h</text>
</a>
</g>
</g>
<!-- 19&#45;&gt;20 -->
<g id="edge34" class="edge">
<title>19&#45;&gt;20</title>
<g id="a_edge34"><a xlink:title="include">
<path fill="none" stroke="#1414ce" d="M884.42,-431.7C884.42,-423.98 884.42,-414.71 884.42,-406.11"/>
<polygon fill="#1414ce" stroke="#1414ce" points="887.92,-406.1 884.42,-396.1 880.92,-406.1 887.92,-406.1"/>
</a>
</g>
</g>
<!-- 21 -->
<g id="node20" class="node">
<title>21</title>
<g id="a_node20"><a xlink:title="string.h">
<polygon fill="#ffffff" stroke="black" points="1023.92,-396 950.92,-396 950.92,-360 1023.92,-360 1023.92,-396"/>
<text text-anchor="middle" x="987.42" y="-374.3" font-family="Times,serif" font-size="14.00">string.h</text>
</a>
</g>
</g>
<!-- 19&#45;&gt;21 -->
<g id="edge39" class="edge">
<title>19&#45;&gt;21</title>
<g id="a_edge39"><a xlink:title="include">
<path fill="none" stroke="#1414ce" d="M909.62,-431.88C922.84,-422.89 939.21,-411.76 953.53,-402.03"/>
<polygon fill="#1414ce" stroke="#1414ce" points="955.83,-404.71 962.13,-396.19 951.89,-398.92 955.83,-404.71"/>
</a>
</g>
</g>
<!-- 19&#45;&gt;10 -->
<g id="edge43" class="edge">
<title>19&#45;&gt;10</title>
<g id="a_edge43"><a xlink:title="include">
<path fill="none" stroke="#1414ce" d="M917.09,-446.16C982.52,-439.94 1126.86,-423.47 1167.42,-396 1261.55,-332.25 1272.72,-289.17 1304.42,-180 1308.88,-164.63 1310.88,-158.64 1304.42,-144 1299.44,-132.69 1290.71,-122.74 1281.52,-114.62"/>
<polygon fill="#1414ce" stroke="#1414ce" points="1283.71,-111.88 1273.76,-108.23 1279.26,-117.28 1283.71,-111.88"/>
</a>
</g>
</g>
<!-- 19&#45;&gt;17 -->
<g id="edge37" class="edge">
<title>19&#45;&gt;17</title>
<g id="a_edge37"><a xlink:title="include">
<path fill="none" stroke="#1414ce" d="M857.84,-431.91C846.19,-422.81 833.74,-410.49 827.42,-396 785.92,-300.75 818.47,-172.7 836.04,-117.81"/>
<polygon fill="#1414ce" stroke="#1414ce" points="839.43,-118.73 839.23,-108.13 832.78,-116.53 839.43,-118.73"/>
</a>
</g>
</g>
<!-- 9&#45;&gt;10 -->
<g id="edge44" class="edge">
<title>9&#45;&gt;10</title>
<g id="a_edge44"><a xlink:title="include">
<path fill="none" stroke="#1414ce" d="M1255.46,-143.7C1254.13,-135.98 1252.54,-126.71 1251.07,-118.11"/>
<polygon fill="#1414ce" stroke="#1414ce" points="1254.49,-117.37 1249.35,-108.1 1247.59,-118.55 1254.49,-117.37"/>
</a>
</g>
</g>
<!-- 12 -->
<g id="node17" class="node">
<title>12</title>
<g id="a_node17"><a xlink:title="limits.h">
<polygon fill="#ffffff" stroke="black" points="1183.92,-36 1112.92,-36 1112.92,0 1183.92,0 1183.92,-36"/>
<text text-anchor="middle" x="1148.42" y="-14.3" font-family="Times,serif" font-size="14.00">limits.h</text>
</a>
</g>
</g>
<!-- 7 -->
<g id="node18" class="node">
<title>7</title>
<g id="a_node18"><a xlink:title="atom_table.h">
<polygon fill="#ffffff" stroke="black" points="704.92,-252 595.92,-252 595.92,-216 704.92,-216 704.92,-252"/>
<text text-anchor="middle" x="650.42" y="-230.3" font-family="Times,serif" font-size="14.00">atom_table.h</text>
</a>
</g>
</g>
<!-- 7&#45;&gt;8 -->
<g id="edge45" class="edge">
<title>7&#45;&gt;8</title>
<g id="a_edge45"><a xlink:title="include">
<path fill="none" stroke="#1414ce" d="M638.02,-215.8C624.62,-197.52 602.38,-168.01 581.42,-144 572.95,-134.29 563.16,-124.08 554.37,-115.24"/>
<polygon fill="#1414ce" stroke="#1414ce" points="556.84,-112.75 547.28,-108.18 551.9,-117.71 556.84,-112.75"/>
</a>
</g>
</g>
<!-- 7&#45;&gt;5 -->
<g id="edge46" class="edge">
<title>7&#45;&gt;5</title>
<g id="a_edge46"><a xlink:title="include">
<path fill="none" stroke="#1414ce" d="M665.25,-215.7C672.45,-207.3 681.22,-197.07 689.11,-187.86"/>
<polygon fill="#1414ce" stroke="#1414ce" points="691.91,-189.97 695.76,-180.1 686.6,-185.42 691.91,-189.97"/>
</a>
</g>
</g>
<!-- 10&#45;&gt;11 -->
<g id="edge47" class="edge">
<title>10&#45;&gt;11</title>
<g id="a_edge47"><a xlink:title="include">
<path fill="none" stroke="#1414ce" d="M1270.89,-71.88C1283.72,-62.89 1299.62,-51.76 1313.52,-42.03"/>
<polygon fill="#1414ce" stroke="#1414ce" points="1315.68,-44.79 1321.87,-36.19 1311.67,-39.06 1315.68,-44.79"/>
</a>
</g>
</g>
<!-- 10&#45;&gt;4 -->
<g id="edge50" class="edge">
<title>10&#45;&gt;4</title>
<g id="a_edge50"><a xlink:title="include">
<path fill="none" stroke="#1414ce" d="M1183.9,-74.7C1179.01,-73.73 1174.14,-72.82 1169.42,-72 1035.68,-48.79 876.15,-31.33 798.91,-23.51"/>
<polygon fill="#1414ce" stroke="#1414ce" points="798.86,-19.99 788.56,-22.48 798.16,-26.96 798.86,-19.99"/>
</a>
</g>
</g>
<!-- 10&#45;&gt;12 -->
<g id="edge48" class="edge">
<title>10&#45;&gt;12</title>
<g id="a_edge48"><a xlink:title="include">
<path fill="none" stroke="#1414ce" d="M1222.45,-71.88C1209.87,-62.89 1194.29,-51.76 1180.67,-42.03"/>
<polygon fill="#1414ce" stroke="#1414ce" points="1182.66,-39.15 1172.49,-36.19 1178.59,-44.85 1182.66,-39.15"/>
</a>
</g>
</g>
<!-- 13 -->
<g id="node28" class="node">
<title>13</title>
<g id="a_node28"><a xlink:title="inttypes.h">
<polygon fill="#ffffff" stroke="black" points="1290.92,-36 1201.92,-36 1201.92,0 1290.92,0 1290.92,-36"/>
<text text-anchor="middle" x="1246.42" y="-14.3" font-family="Times,serif" font-size="14.00">inttypes.h</text>
</a>
</g>
</g>
<!-- 10&#45;&gt;13 -->
<g id="edge49" class="edge">
<title>10&#45;&gt;13</title>
<g id="a_edge49"><a xlink:title="include">
<path fill="none" stroke="#1414ce" d="M1246.42,-71.7C1246.42,-63.98 1246.42,-54.71 1246.42,-46.11"/>
<polygon fill="#1414ce" stroke="#1414ce" points="1249.92,-46.1 1246.42,-36.1 1242.92,-46.1 1249.92,-46.1"/>
</a>
</g>
</g>
<!-- 3&#45;&gt;5 -->
<g id="edge52" class="edge">
<title>3&#45;&gt;5</title>
<g id="a_edge52"><a xlink:title="include">
<path fill="none" stroke="#1414ce" d="M467.94,-575.93C476.19,-565.82 486.44,-552.57 494.42,-540 542.56,-464.14 530.68,-430.46 586.42,-360 632.39,-301.89 682.33,-319.26 713.42,-252 722.32,-232.76 720.82,-208.6 717.52,-190.31"/>
<polygon fill="#1414ce" stroke="#1414ce" points="720.9,-189.38 715.43,-180.3 714.05,-190.81 720.9,-189.38"/>
</a>
</g>
</g>
<!-- 3&#45;&gt;16 -->
<g id="edge59" class="edge">
<title>3&#45;&gt;16</title>
<g id="a_edge59"><a xlink:title="include">
<path fill="none" stroke="#1414ce" d="M410.1,-575.83C392.16,-567.12 372.16,-555.15 357.42,-540 326.37,-508.09 311.42,-495.53 311.42,-451 311.42,-451 311.42,-451 311.42,-377 311.42,-332.48 339.69,-287.61 360.55,-260.56"/>
<polygon fill="#1414ce" stroke="#1414ce" points="363.53,-262.43 367.02,-252.42 358.05,-258.07 363.53,-262.43"/>
</a>
</g>
</g>
<!-- 3&#45;&gt;15 -->
<g id="edge56" class="edge">
<title>3&#45;&gt;15</title>
<g id="a_edge56"><a xlink:title="include">
<path fill="none" stroke="#1414ce" d="M389.83,-580.24C365.65,-572.39 339.77,-559.87 322.42,-540 225.52,-429.03 192.42,-350.55 252.42,-216 257.59,-204.41 266.69,-194.29 276.22,-186.09"/>
<polygon fill="#1414ce" stroke="#1414ce" points="278.62,-188.65 284.24,-179.66 274.25,-183.18 278.62,-188.65"/>
</a>
</g>
</g>
<!-- 3&#45;&gt;4 -->
<g id="edge51" class="edge">
<title>3&#45;&gt;4</title>
<g id="a_edge51"><a xlink:title="include">
<path fill="none" stroke="#1414ce" d="M389.82,-590.75C338.45,-586.31 266.13,-573.9 212.42,-540 71.64,-451.13 -54.14,-362.79 24.42,-216 83.12,-106.33 145.72,-109.21 264.42,-72 420.9,-22.95 617.86,-17.69 706.04,-18.11"/>
<polygon fill="#1414ce" stroke="#1414ce" points="706.21,-21.61 716.24,-18.18 706.27,-14.61 706.21,-21.61"/>
</a>
</g>
</g>
<!-- 3&#45;&gt;19 -->
<g id="edge60" class="edge">
<title>3&#45;&gt;19</title>
<g id="a_edge60"><a xlink:title="include">
<path fill="none" stroke="#1414ce" d="M517.22,-589.84C608.71,-584.32 771.66,-570.44 821.42,-540 845.26,-525.42 862.56,-498.06 872.93,-477.51"/>
<polygon fill="#1414ce" stroke="#1414ce" points="876.16,-478.86 877.33,-468.33 869.85,-475.83 876.16,-478.86"/>
</a>
</g>
</g>
<!-- 3&#45;&gt;9 -->
<g id="edge54" class="edge">
<title>3&#45;&gt;9</title>
<g id="a_edge54"><a xlink:title="include">
<path fill="none" stroke="#1414ce" d="M517.11,-593.49C653.76,-591.12 977.99,-566.61 1167.42,-396 1222.65,-346.26 1230.44,-322.99 1252.42,-252 1258.63,-231.94 1259.95,-208.15 1259.81,-190.22"/>
<polygon fill="#1414ce" stroke="#1414ce" points="1263.31,-190.07 1259.58,-180.16 1256.31,-190.23 1263.31,-190.07"/>
</a>
</g>
</g>
<!-- 3&#45;&gt;7 -->
<g id="edge53" class="edge">
<title>3&#45;&gt;7</title>
<g id="a_edge53"><a xlink:title="include">
<path fill="none" stroke="#1414ce" d="M461.11,-575.91C472.22,-549.62 491.42,-497.45 491.42,-451 491.42,-451 491.42,-451 491.42,-377 491.42,-319.18 550.64,-279.04 596.8,-256.54"/>
<polygon fill="#1414ce" stroke="#1414ce" points="598.58,-259.57 606.13,-252.14 595.59,-253.24 598.58,-259.57"/>
</a>
</g>
</g>
<!-- 3&#45;&gt;18 -->
<g id="edge58" class="edge">
<title>3&#45;&gt;18</title>
<g id="a_edge58"><a xlink:title="include">
<path fill="none" stroke="#1414ce" d="M453.42,-575.95C453.42,-549.29 453.42,-496.11 453.42,-451 453.42,-451 453.42,-451 453.42,-377 453.42,-309.36 440.95,-230.49 433.62,-190.02"/>
<polygon fill="#1414ce" stroke="#1414ce" points="437.05,-189.32 431.79,-180.12 430.17,-190.59 437.05,-189.32"/>
</a>
</g>
</g>
<!-- 3&#45;&gt;28 -->
<g id="edge61" class="edge">
<title>3&#45;&gt;28</title>
<g id="a_edge61"><a xlink:title="include">
<path fill="none" stroke="#1414ce" d="M389.62,-584.7C349.97,-577.4 299.16,-564.03 259.42,-540 153.95,-476.2 104.89,-324.08 88.76,-262.04"/>
<polygon fill="#1414ce" stroke="#1414ce" points="92.12,-261.05 86.28,-252.21 85.33,-262.76 92.12,-261.05"/>
</a>
</g>
</g>
<!-- 3&#45;&gt;27 -->
<g id="edge57" class="edge">
<title>3&#45;&gt;27</title>
<g id="a_edge57"><a xlink:title="include">
<path fill="none" stroke="#1414ce" d="M503.57,-575.92C527.84,-566.75 556.94,-554.36 581.42,-540 657.83,-495.17 863.86,-322.72 939.27,-258.92"/>
<polygon fill="#1414ce" stroke="#1414ce" points="941.62,-261.52 946.98,-252.39 937.09,-256.18 941.62,-261.52"/>
</a>
</g>
</g>
<!-- 14 -->
<g id="node27" class="node">
<title>14</title>
<g id="a_node27"><a xlink:title="ets.h">
<polygon fill="#ffffff" stroke="black" points="420.42,-540 366.42,-540 366.42,-504 420.42,-504 420.42,-540"/>
<text text-anchor="middle" x="393.42" y="-518.3" font-family="Times,serif" font-size="14.00">ets.h</text>
</a>
</g>
</g>
<!-- 3&#45;&gt;14 -->
<g id="edge55" class="edge">
<title>3&#45;&gt;14</title>
<g id="a_edge55"><a xlink:title="include">
<path fill="none" stroke="#1414ce" d="M438.59,-575.7C431.4,-567.3 422.63,-557.07 414.73,-547.86"/>
<polygon fill="#1414ce" stroke="#1414ce" points="417.25,-545.42 408.08,-540.1 411.93,-549.97 417.25,-545.42"/>
</a>
</g>
</g>
<!-- 18&#45;&gt;8 -->
<g id="edge62" class="edge">
<title>18&#45;&gt;8</title>
<g id="a_edge62"><a xlink:title="include">
<path fill="none" stroke="#1414ce" d="M453.13,-143.88C466.09,-134.89 482.15,-123.76 496.19,-114.03"/>
<polygon fill="#1414ce" stroke="#1414ce" points="498.39,-116.76 504.62,-108.19 494.41,-111.01 498.39,-116.76"/>
</a>
</g>
</g>
<!-- 28&#45;&gt;8 -->
<g id="edge63" class="edge">
<title>28&#45;&gt;8</title>
<g id="a_edge63"><a xlink:title="include">
<path fill="none" stroke="#1414ce" d="M113.63,-215.92C151.07,-196.07 216.21,-163.55 275.42,-144 343.8,-121.43 425.81,-106.38 477.78,-98.26"/>
<polygon fill="#1414ce" stroke="#1414ce" points="478.4,-101.71 487.76,-96.73 477.34,-94.79 478.4,-101.71"/>
</a>
</g>
</g>
<!-- 28&#45;&gt;15 -->
<g id="edge65" class="edge">
<title>28&#45;&gt;15</title>
<g id="a_edge65"><a xlink:title="include">
<path fill="none" stroke="#1414ce" d="M131.55,-217.98C174.38,-204.89 235.55,-186.19 274.37,-174.32"/>
<polygon fill="#1414ce" stroke="#1414ce" points="275.68,-177.59 284.22,-171.32 273.63,-170.89 275.68,-177.59"/>
</a>
</g>
</g>
<!-- 28&#45;&gt;4 -->
<g id="edge64" class="edge">
<title>28&#45;&gt;4</title>
<g id="a_edge64"><a xlink:title="include">
<path fill="none" stroke="#1414ce" d="M97.4,-215.86C116.02,-195.63 149.73,-162.44 185.42,-144 363.18,-52.18 606.12,-27.6 706.33,-21.19"/>
<polygon fill="#1414ce" stroke="#1414ce" points="706.65,-24.68 716.42,-20.58 706.23,-17.69 706.65,-24.68"/>
</a>
</g>
</g>
<!-- 27&#45;&gt;8 -->
<g id="edge66" class="edge">
<title>27&#45;&gt;8</title>
<g id="a_edge66"><a xlink:title="include">
<path fill="none" stroke="#1414ce" d="M931.19,-215.91C888.98,-196.5 816.8,-164.83 752.42,-144 694.7,-125.32 626.63,-110.09 581.02,-100.83"/>
<polygon fill="#1414ce" stroke="#1414ce" points="581.56,-97.37 571.07,-98.83 580.18,-104.23 581.56,-97.37"/>
</a>
</g>
</g>
<!-- 27&#45;&gt;23 -->
<g id="edge69" class="edge">
<title>27&#45;&gt;23</title>
<g id="a_edge69"><a xlink:title="include">
<path fill="none" stroke="#1414ce" d="M980.52,-215.7C986.81,-207.39 994.47,-197.28 1001.39,-188.14"/>
<polygon fill="#1414ce" stroke="#1414ce" points="1004.23,-190.19 1007.47,-180.1 998.65,-185.96 1004.23,-190.19"/>
</a>
</g>
</g>
<!-- 27&#45;&gt;15 -->
<g id="edge67" class="edge">
<title>27&#45;&gt;15</title>
<g id="a_edge67"><a xlink:title="include">
<path fill="none" stroke="#1414ce" d="M924.17,-229.73C808.31,-220.86 492.75,-195.94 389.42,-180 376.02,-177.93 361.47,-174.96 348.6,-172.08"/>
<polygon fill="#1414ce" stroke="#1414ce" points="349.23,-168.63 338.7,-169.81 347.67,-175.46 349.23,-168.63"/>
</a>
</g>
</g>
<!-- 27&#45;&gt;10 -->
<g id="edge68" class="edge">
<title>27&#45;&gt;10</title>
<g id="a_edge68"><a xlink:title="include">
<path fill="none" stroke="#1414ce" d="M1001.08,-215.87C1051.77,-190.07 1147.7,-141.25 1203.4,-112.9"/>
<polygon fill="#1414ce" stroke="#1414ce" points="1205.32,-115.84 1212.65,-108.19 1202.15,-109.61 1205.32,-115.84"/>
</a>
</g>
</g>
<!-- 14&#45;&gt;16 -->
<g id="edge71" class="edge">
<title>14&#45;&gt;16</title>
<g id="a_edge71"><a xlink:title="include">
<path fill="none" stroke="#1414ce" d="M392.77,-503.97C390.93,-456.29 385.74,-321.18 383.49,-262.63"/>
<polygon fill="#1414ce" stroke="#1414ce" points="386.97,-262.16 383.09,-252.31 379.98,-262.43 386.97,-262.16"/>
</a>
</g>
</g>
<!-- 14&#45;&gt;15 -->
<g id="edge70" class="edge">
<title>14&#45;&gt;15</title>
<g id="a_edge70"><a xlink:title="include">
<path fill="none" stroke="#1414ce" d="M381.27,-503.84C353.04,-462.77 283.56,-354.59 259.42,-252 255.76,-236.43 253.37,-230.81 259.42,-216 263.91,-205.02 271.89,-195.08 280.28,-186.86"/>
<polygon fill="#1414ce" stroke="#1414ce" points="282.66,-189.42 287.67,-180.09 277.93,-184.26 282.66,-189.42"/>
</a>
</g>
</g>
<!-- 14&#45;&gt;19 -->
<g id="edge72" class="edge">
<title>14&#45;&gt;19</title>
<g id="a_edge72"><a xlink:title="include">
<path fill="none" stroke="#1414ce" d="M420.52,-517.14C501.68,-505.57 743.28,-471.12 841.84,-457.07"/>
<polygon fill="#1414ce" stroke="#1414ce" points="842.35,-460.53 851.75,-455.66 841.36,-453.6 842.35,-460.53"/>
</a>
</g>
</g>
</g>
</svg>
