<?xml version="1.0" encoding="UTF-8" standalone="no"?>
<!DOCTYPE svg PUBLIC "-//W3C//DTD SVG 1.1//EN"
 "http://www.w3.org/Graphics/SVG/1.1/DTD/svg11.dtd">
<!-- Generated by graphviz version 2.43.0 (0)
 -->
<!-- Title: %3 Pages: 1 -->
<svg width="1389pt" height="476pt"
 viewBox="0.00 0.00 1388.50 476.00" xmlns="http://www.w3.org/2000/svg" xmlns:xlink="http://www.w3.org/1999/xlink">
<g id="graph0" class="graph" transform="scale(1 1) rotate(0) translate(4 472)">
<title>%3</title>
<polygon fill="transparent" stroke="transparent" points="-4,4 -4,-472 1384.5,-472 1384.5,4 -4,4"/>
<!-- 14 -->
<g id="node1" class="node">
<title>14</title>
<g id="a_node1"><a xlink:title="AtomTable">
<polygon fill="#ffffff" stroke="black" points="1231,-324 1139,-324 1139,-288 1231,-288 1231,-324"/>
<text text-anchor="middle" x="1185" y="-302.3" font-family="Times,serif" font-size="14.00">AtomTable</text>
</a>
</g>
</g>
<!-- 15 -->
<g id="node7" class="node">
<title>15</title>
<g id="a_node7"><a xlink:title="HNode">
<polygon fill="#ffffff" stroke="black" points="1302,-180 1236,-180 1236,-144 1302,-144 1302,-180"/>
<text text-anchor="middle" x="1269" y="-158.3" font-family="Times,serif" font-size="14.00">HNode</text>
</a>
</g>
</g>
<!-- 14&#45;&gt;15 -->
<g id="edge1" class="edge">
<title>14&#45;&gt;15</title>
<g id="a_edge1"><a xlink:title="usage">
<path fill="none" stroke="#1414ce" d="M1231,-291.03C1279.48,-276.2 1349.14,-254.54 1351,-252 1360.44,-239.08 1358.65,-230.05 1351,-216 1342.33,-200.07 1326.58,-188.2 1311.19,-179.77"/>
<polygon fill="#1414ce" stroke="#1414ce" points="1312.72,-176.63 1302.22,-175.21 1309.54,-182.86 1312.72,-176.63"/>
</a>
</g>
</g>
<!-- 16 -->
<g id="node8" class="node">
<title>16</title>
<g id="a_node8"><a xlink:title="HNodeGroup">
<polygon fill="#ffffff" stroke="black" points="1324,-252 1214,-252 1214,-216 1324,-216 1324,-252"/>
<text text-anchor="middle" x="1269" y="-230.3" font-family="Times,serif" font-size="14.00">HNodeGroup</text>
</a>
</g>
</g>
<!-- 14&#45;&gt;16 -->
<g id="edge2" class="edge">
<title>14&#45;&gt;16</title>
<g id="a_edge2"><a xlink:title="usage">
<path fill="none" stroke="#1414ce" d="M1205.76,-287.7C1216.24,-278.97 1229.11,-268.24 1240.5,-258.75"/>
<polygon fill="#1414ce" stroke="#1414ce" points="1243.03,-261.19 1248.47,-252.1 1238.55,-255.82 1243.03,-261.19"/>
</a>
</g>
</g>
<!-- 19 -->
<g id="node2" class="node">
<title>19</title>
<g id="a_node2"><a xlink:title="Context">
<polygon fill="#ffffff" stroke="black" points="501.5,-252 428.5,-252 428.5,-216 501.5,-216 501.5,-252"/>
<text text-anchor="middle" x="465" y="-230.3" font-family="Times,serif" font-size="14.00">Context</text>
</a>
</g>
</g>
<!-- 19&#45;&gt;19 -->
<g id="edge8" class="edge">
<title>19&#45;&gt;19</title>
<g id="a_edge8"><a xlink:title="usage">
<path fill="none" stroke="#1414ce" d="M501.68,-247.42C511.78,-246.77 519.5,-242.3 519.5,-234 519.5,-228.81 516.48,-225.12 511.76,-222.93"/>
<polygon fill="#1414ce" stroke="#1414ce" points="512.21,-219.44 501.68,-220.58 510.63,-226.26 512.21,-219.44"/>
</a>
</g>
</g>
<!-- 6 -->
<g id="node6" class="node">
<title>6</title>
<g id="a_node6"><a xlink:title="GlobalContext">
<polygon fill="#ffffff" stroke="black" points="764.5,-396 645.5,-396 645.5,-360 764.5,-360 764.5,-396"/>
<text text-anchor="middle" x="705" y="-374.3" font-family="Times,serif" font-size="14.00">GlobalContext</text>
</a>
</g>
</g>
<!-- 19&#45;&gt;6 -->
<g id="edge3" class="edge">
<title>19&#45;&gt;6</title>
<g id="a_edge3"><a xlink:title="usage">
<path fill="none" stroke="#1414ce" d="M474.08,-252.33C485.47,-272.42 506.84,-305.18 534,-324 563.98,-344.77 602.41,-357.64 635.24,-365.48"/>
<polygon fill="#1414ce" stroke="#1414ce" points="634.71,-368.95 645.24,-367.76 636.26,-362.12 634.71,-368.95"/>
</a>
</g>
</g>
<!-- 20 -->
<g id="node9" class="node">
<title>20</title>
<g id="a_node9"><a xlink:title="Heap">
<polygon fill="#ffffff" stroke="black" points="327,-180 273,-180 273,-144 327,-144 327,-180"/>
<text text-anchor="middle" x="300" y="-158.3" font-family="Times,serif" font-size="14.00">Heap</text>
</a>
</g>
</g>
<!-- 19&#45;&gt;20 -->
<g id="edge4" class="edge">
<title>19&#45;&gt;20</title>
<g id="a_edge4"><a xlink:title="usage">
<path fill="none" stroke="#1414ce" d="M428.38,-217.46C400.95,-205.83 363.59,-189.98 336.25,-178.38"/>
<polygon fill="#1414ce" stroke="#1414ce" points="337.6,-175.15 327.03,-174.47 334.87,-181.59 337.6,-175.15"/>
</a>
</g>
</g>
<!-- 5 -->
<g id="node12" class="node">
<title>5</title>
<g id="a_node12"><a xlink:title="ListHead">
<polygon fill="#ffffff" stroke="black" points="636.5,-36 555.5,-36 555.5,0 636.5,0 636.5,-36"/>
<text text-anchor="middle" x="596" y="-14.3" font-family="Times,serif" font-size="14.00">ListHead</text>
</a>
</g>
</g>
<!-- 19&#45;&gt;5 -->
<g id="edge5" class="edge">
<title>19&#45;&gt;5</title>
<g id="a_edge5"><a xlink:title="usage">
<path fill="none" stroke="#1414ce" d="M428.48,-219.03C425.29,-217.96 422.1,-216.93 419,-216 351.25,-195.7 320.92,-221.98 264,-180 222.55,-149.43 188.23,-110.89 222,-72 263.24,-24.5 452.73,-18.43 545.09,-18.37"/>
<polygon fill="#1414ce" stroke="#1414ce" points="545.32,-21.87 555.33,-18.39 545.33,-14.87 545.32,-21.87"/>
</a>
</g>
</g>
<!-- 23 -->
<g id="node14" class="node">
<title>23</title>
<g id="a_node14"><a xlink:title="Mailbox">
<polygon fill="#ffffff" stroke="black" points="464,-180 390,-180 390,-144 464,-144 464,-180"/>
<text text-anchor="middle" x="427" y="-158.3" font-family="Times,serif" font-size="14.00">Mailbox</text>
</a>
</g>
</g>
<!-- 19&#45;&gt;23 -->
<g id="edge9" class="edge">
<title>19&#45;&gt;23</title>
<g id="a_edge9"><a xlink:title="usage">
<path fill="none" stroke="#1414ce" d="M455.61,-215.7C451.24,-207.64 445.94,-197.89 441.1,-188.98"/>
<polygon fill="#1414ce" stroke="#1414ce" points="444.13,-187.22 436.29,-180.1 437.98,-190.56 444.13,-187.22"/>
</a>
</g>
</g>
<!-- 18 -->
<g id="node17" class="node">
<title>18</title>
<g id="a_node17"><a xlink:title="Module">
<polygon fill="#ffffff" stroke="black" points="482,-324 412,-324 412,-288 482,-288 482,-324"/>
<text text-anchor="middle" x="447" y="-302.3" font-family="Times,serif" font-size="14.00">Module</text>
</a>
</g>
</g>
<!-- 19&#45;&gt;18 -->
<g id="edge7" class="edge">
<title>19&#45;&gt;18</title>
<g id="a_edge7"><a xlink:title="usage">
<path fill="none" stroke="#1414ce" d="M466.5,-252.1C465.31,-259.88 463.13,-269.26 460.55,-277.95"/>
<polygon fill="#1414ce" stroke="#1414ce" points="457.14,-277.1 457.37,-287.7 463.8,-279.28 457.14,-277.1"/>
</a>
</g>
</g>
<!-- 22 -->
<g id="node25" class="node">
<title>22</title>
<g id="a_node25"><a xlink:title="TimerListItem">
<polygon fill="#ffffff" stroke="black" points="510.5,-108 391.5,-108 391.5,-72 510.5,-72 510.5,-108"/>
<text text-anchor="middle" x="451" y="-86.3" font-family="Times,serif" font-size="14.00">TimerListItem</text>
</a>
</g>
</g>
<!-- 19&#45;&gt;22 -->
<g id="edge6" class="edge">
<title>19&#45;&gt;22</title>
<g id="a_edge6"><a xlink:title="usage">
<path fill="none" stroke="#1414ce" d="M428.4,-219.78C410.71,-211.32 391.16,-198.42 381,-180 373.27,-165.99 373.88,-158.33 381,-144 387,-131.93 397.21,-121.87 408.01,-113.88"/>
<polygon fill="#1414ce" stroke="#1414ce" points="410.06,-116.71 416.32,-108.17 406.09,-110.95 410.06,-116.71"/>
</a>
</g>
</g>
<!-- 3 -->
<g id="node3" class="node">
<title>3</title>
<g id="a_node3"><a xlink:title="ErlNifMonitor">
<polygon fill="#ffffff" stroke="black" points="1195.5,-252 1078.5,-252 1078.5,-216 1195.5,-216 1195.5,-252"/>
<text text-anchor="middle" x="1137" y="-230.3" font-family="Times,serif" font-size="14.00">ErlNifMonitor</text>
</a>
</g>
</g>
<!-- 4 -->
<g id="node20" class="node">
<title>4</title>
<g id="a_node20"><a xlink:title="ResourceType">
<polygon fill="#ffffff" stroke="black" points="903.5,-180 786.5,-180 786.5,-144 903.5,-144 903.5,-180"/>
<text text-anchor="middle" x="845" y="-158.3" font-family="Times,serif" font-size="14.00">ResourceType</text>
</a>
</g>
</g>
<!-- 3&#45;&gt;4 -->
<g id="edge10" class="edge">
<title>3&#45;&gt;4</title>
<g id="a_edge10"><a xlink:title="usage">
<path fill="none" stroke="#1414ce" d="M1078.41,-218.3C1075.23,-217.52 1072.07,-216.75 1069,-216 1016.84,-203.31 957.73,-189.34 913.34,-178.93"/>
<polygon fill="#1414ce" stroke="#1414ce" points="914.07,-175.51 903.53,-176.64 912.47,-182.32 914.07,-175.51"/>
</a>
</g>
</g>
<!-- 13 -->
<g id="node4" class="node">
<title>13</title>
<g id="a_node4"><a xlink:title="Ets">
<polygon fill="#ffffff" stroke="black" points="768,-180 714,-180 714,-144 768,-144 768,-180"/>
<text text-anchor="middle" x="741" y="-158.3" font-family="Times,serif" font-size="14.00">Ets</text>
</a>
</g>
</g>
<!-- 12 -->
<g id="node23" class="node">
<title>12</title>
<g id="a_node23"><a xlink:title="SyncList">
<polygon fill="#ffffff" stroke="black" points="780,-108 702,-108 702,-72 780,-72 780,-108"/>
<text text-anchor="middle" x="741" y="-86.3" font-family="Times,serif" font-size="14.00">SyncList</text>
</a>
</g>
</g>
<!-- 13&#45;&gt;12 -->
<g id="edge11" class="edge">
<title>13&#45;&gt;12</title>
<g id="a_edge11"><a xlink:title="usage">
<path fill="none" stroke="#1414ce" d="M741,-143.7C741,-135.98 741,-126.71 741,-118.11"/>
<polygon fill="#1414ce" stroke="#1414ce" points="744.5,-118.1 741,-108.1 737.5,-118.1 744.5,-118.1"/>
</a>
</g>
</g>
<!-- 24 -->
<g id="node5" class="node">
<title>24</title>
<g id="a_node5"><a xlink:title="ExportedFunction">
<polygon fill="#ffffff" stroke="black" points="410,-252 264,-252 264,-216 410,-216 410,-252"/>
<text text-anchor="middle" x="337" y="-230.3" font-family="Times,serif" font-size="14.00">ExportedFunction</text>
</a>
</g>
</g>
<!-- 6&#45;&gt;14 -->
<g id="edge18" class="edge">
<title>6&#45;&gt;14</title>
<g id="a_edge18"><a xlink:title="usage">
<path fill="none" stroke="#1414ce" d="M764.82,-368.28C858.23,-354.65 1037.44,-328.52 1128.66,-315.22"/>
<polygon fill="#1414ce" stroke="#1414ce" points="1129.42,-318.64 1138.81,-313.74 1128.41,-311.72 1129.42,-318.64"/>
</a>
</g>
</g>
<!-- 6&#45;&gt;13 -->
<g id="edge17" class="edge">
<title>6&#45;&gt;13</title>
<g id="a_edge17"><a xlink:title="usage">
<path fill="none" stroke="#1414ce" d="M707.89,-359.85C714.13,-322.75 728.92,-234.81 736.44,-190.1"/>
<polygon fill="#1414ce" stroke="#1414ce" points="739.89,-190.67 738.1,-180.23 732.99,-189.51 739.89,-190.67"/>
</a>
</g>
</g>
<!-- 6&#45;&gt;5 -->
<g id="edge12" class="edge">
<title>6&#45;&gt;5</title>
<g id="a_edge12"><a xlink:title="usage">
<path fill="none" stroke="#1414ce" d="M645.35,-375.27C495.29,-369.31 114,-343.49 114,-235 114,-235 114,-235 114,-161 114,-104.74 153.52,-96.83 204,-72 263.04,-42.96 453.32,-27.7 545.29,-21.86"/>
<polygon fill="#1414ce" stroke="#1414ce" points="545.71,-25.34 555.47,-21.23 545.27,-18.35 545.71,-25.34"/>
</a>
</g>
</g>
<!-- 8 -->
<g id="node16" class="node">
<title>8</title>
<g id="a_node16"><a xlink:title="MessageQueueItem">
<polygon fill="#ffffff" stroke="black" points="640,-180 482,-180 482,-144 640,-144 640,-180"/>
<text text-anchor="middle" x="561" y="-158.3" font-family="Times,serif" font-size="14.00">MessageQueueItem</text>
</a>
</g>
</g>
<!-- 6&#45;&gt;8 -->
<g id="edge14" class="edge">
<title>6&#45;&gt;8</title>
<g id="a_edge14"><a xlink:title="usage">
<path fill="none" stroke="#1414ce" d="M645.41,-369.4C616.88,-362.48 585.06,-349.26 567,-324 538.77,-284.51 546.06,-224.57 553.68,-190.06"/>
<polygon fill="#1414ce" stroke="#1414ce" points="557.11,-190.75 556.02,-180.21 550.3,-189.13 557.11,-190.75"/>
</a>
</g>
</g>
<!-- 6&#45;&gt;18 -->
<g id="edge20" class="edge">
<title>6&#45;&gt;18</title>
<g id="a_edge20"><a xlink:title="usage">
<path fill="none" stroke="#1414ce" d="M645.17,-363.27C603.18,-353.28 545.84,-338.94 496,-324 494.6,-323.58 493.18,-323.14 491.74,-322.7"/>
<polygon fill="#1414ce" stroke="#1414ce" points="492.8,-319.36 482.21,-319.62 490.65,-326.02 492.8,-319.36"/>
</a>
</g>
</g>
<!-- 10 -->
<g id="node19" class="node">
<title>10</title>
<g id="a_node19"><a xlink:title="RefcBinaryQueueItem">
<polygon fill="#ffffff" stroke="black" points="982,-324 808,-324 808,-288 982,-288 982,-324"/>
<text text-anchor="middle" x="895" y="-302.3" font-family="Times,serif" font-size="14.00">RefcBinaryQueueItem</text>
</a>
</g>
</g>
<!-- 6&#45;&gt;10 -->
<g id="edge15" class="edge">
<title>6&#45;&gt;10</title>
<g id="a_edge15"><a xlink:title="usage">
<path fill="none" stroke="#1414ce" d="M751.48,-359.88C777.92,-350.14 811.2,-337.87 839.06,-327.61"/>
<polygon fill="#1414ce" stroke="#1414ce" points="840.5,-330.81 848.67,-324.07 838.08,-324.24 840.5,-330.81"/>
</a>
</g>
</g>
<!-- 6&#45;&gt;4 -->
<g id="edge22" class="edge">
<title>6&#45;&gt;4</title>
<g id="a_edge22"><a xlink:title="usage">
<path fill="none" stroke="#1414ce" d="M708.43,-359.96C720.6,-329.91 755.43,-265.98 791,-216 797.93,-206.26 806.23,-196.13 814.32,-187.37"/>
<polygon fill="#1414ce" stroke="#1414ce" points="816.94,-189.69 821.34,-180.06 811.89,-184.84 816.94,-189.69"/>
</a>
</g>
</g>
<!-- 7 -->
<g id="node22" class="node">
<title>7</title>
<g id="a_node22"><a xlink:title="SpinLock">
<polygon fill="#ffffff" stroke="black" points="658,-324 576,-324 576,-288 658,-288 658,-324"/>
<text text-anchor="middle" x="617" y="-302.3" font-family="Times,serif" font-size="14.00">SpinLock</text>
</a>
</g>
</g>
<!-- 6&#45;&gt;7 -->
<g id="edge13" class="edge">
<title>6&#45;&gt;7</title>
<g id="a_edge13"><a xlink:title="usage">
<path fill="none" stroke="#1414ce" d="M683.25,-359.7C672.16,-350.88 658.53,-340.03 646.51,-330.47"/>
<polygon fill="#1414ce" stroke="#1414ce" points="648.51,-327.59 638.5,-324.1 644.15,-333.07 648.51,-327.59"/>
</a>
</g>
</g>
<!-- 6&#45;&gt;12 -->
<g id="edge16" class="edge">
<title>6&#45;&gt;12</title>
<g id="a_edge16"><a xlink:title="usage">
<path fill="none" stroke="#1414ce" d="M701.64,-359.83C694.66,-320.54 681.16,-221.52 705,-144 708.01,-134.22 713.51,-124.62 719.32,-116.33"/>
<polygon fill="#1414ce" stroke="#1414ce" points="722.19,-118.33 725.39,-108.23 716.59,-114.13 722.19,-118.33"/>
</a>
</g>
</g>
<!-- 26 -->
<g id="node24" class="node">
<title>26</title>
<g id="a_node24"><a xlink:title="TimerList">
<polygon fill="#ffffff" stroke="black" points="86,-108 0,-108 0,-72 86,-72 86,-108"/>
<text text-anchor="middle" x="43" y="-86.3" font-family="Times,serif" font-size="14.00">TimerList</text>
</a>
</g>
</g>
<!-- 6&#45;&gt;26 -->
<g id="edge21" class="edge">
<title>6&#45;&gt;26</title>
<g id="a_edge21"><a xlink:title="usage">
<path fill="none" stroke="#1414ce" d="M645.31,-375.66C500.76,-371.88 140.81,-359.02 100,-324 39.62,-272.19 37.62,-167.94 40.49,-118.38"/>
<polygon fill="#1414ce" stroke="#1414ce" points="44,-118.34 41.2,-108.12 37.01,-117.85 44,-118.34"/>
</a>
</g>
</g>
<!-- 17 -->
<g id="node26" class="node">
<title>17</title>
<g id="a_node26"><a xlink:title="ValuesHashTable">
<polygon fill="#ffffff" stroke="black" points="1060,-252 922,-252 922,-216 1060,-216 1060,-252"/>
<text text-anchor="middle" x="991" y="-230.3" font-family="Times,serif" font-size="14.00">ValuesHashTable</text>
</a>
</g>
</g>
<!-- 6&#45;&gt;17 -->
<g id="edge19" class="edge">
<title>6&#45;&gt;17</title>
<g id="a_edge19"><a xlink:title="usage">
<path fill="none" stroke="#1414ce" d="M764.59,-375.37C844.09,-371.8 978.4,-360.39 1009,-324 1023.65,-306.58 1016.05,-280.5 1006.64,-261.07"/>
<polygon fill="#1414ce" stroke="#1414ce" points="1009.7,-259.37 1001.96,-252.13 1003.5,-262.62 1009.7,-259.37"/>
</a>
</g>
</g>
<!-- 15&#45;&gt;15 -->
<g id="edge23" class="edge">
<title>15&#45;&gt;15</title>
<g id="a_edge23"><a xlink:title="usage">
<path fill="none" stroke="#1414ce" d="M1302.35,-175.47C1312.28,-175.07 1320,-170.58 1320,-162 1320,-156.64 1316.98,-152.87 1312.3,-150.71"/>
<polygon fill="#1414ce" stroke="#1414ce" points="1312.87,-147.25 1302.35,-148.53 1311.37,-154.09 1312.87,-147.25"/>
</a>
</g>
</g>
<!-- 16&#45;&gt;15 -->
<g id="edge25" class="edge">
<title>16&#45;&gt;15</title>
<g id="a_edge25"><a xlink:title="usage">
<path fill="none" stroke="#1414ce" d="M1269,-215.7C1269,-207.98 1269,-198.71 1269,-190.11"/>
<polygon fill="#1414ce" stroke="#1414ce" points="1272.5,-190.1 1269,-180.1 1265.5,-190.1 1272.5,-190.1"/>
</a>
</g>
</g>
<!-- 16&#45;&gt;16 -->
<g id="edge24" class="edge">
<title>16&#45;&gt;16</title>
<g id="a_edge24"><a xlink:title="usage">
<path fill="none" stroke="#1414ce" d="M1324.07,-246.85C1334.57,-245.32 1342,-241.03 1342,-234 1342,-229.5 1338.95,-226.12 1334,-223.87"/>
<polygon fill="#1414ce" stroke="#1414ce" points="1334.64,-220.42 1324.07,-221.15 1332.79,-227.17 1334.64,-220.42"/>
</a>
</g>
</g>
<!-- 21 -->
<g id="node10" class="node">
<title>21</title>
<g id="a_node10"><a xlink:title="HeapFragment">
<polygon fill="#ffffff" stroke="black" points="355.5,-108 230.5,-108 230.5,-72 355.5,-72 355.5,-108"/>
<text text-anchor="middle" x="293" y="-86.3" font-family="Times,serif" font-size="14.00">HeapFragment</text>
</a>
</g>
</g>
<!-- 20&#45;&gt;21 -->
<g id="edge26" class="edge">
<title>20&#45;&gt;21</title>
<g id="a_edge26"><a xlink:title="usage">
<path fill="none" stroke="#1414ce" d="M298.27,-143.7C297.5,-135.98 296.57,-126.71 295.71,-118.11"/>
<polygon fill="#1414ce" stroke="#1414ce" points="299.19,-117.71 294.71,-108.1 292.22,-118.4 299.19,-117.71"/>
</a>
</g>
</g>
<!-- 21&#45;&gt;21 -->
<g id="edge27" class="edge">
<title>21&#45;&gt;21</title>
<g id="a_edge27"><a xlink:title="usage">
<path fill="none" stroke="#1414ce" d="M355.78,-102.55C366.26,-100.79 373.5,-96.61 373.5,-90 373.5,-85.77 370.53,-82.53 365.64,-80.29"/>
<polygon fill="#1414ce" stroke="#1414ce" points="366.36,-76.85 355.78,-77.45 364.42,-83.58 366.36,-76.85"/>
</a>
</g>
</g>
<!-- 1 -->
<g id="node11" class="node">
<title>1</title>
<g id="a_node11"><a xlink:title="LWIPEvent">
<polygon fill="#bfbfbf" stroke="black" points="797,-468 701,-468 701,-432 797,-432 797,-468"/>
<text text-anchor="middle" x="749" y="-446.3" font-family="Times,serif" font-size="14.00">LWIPEvent</text>
</a>
</g>
</g>
<!-- 1&#45;&gt;6 -->
<g id="edge29" class="edge">
<title>1&#45;&gt;6</title>
<g id="a_edge29"><a xlink:title="usage">
<path fill="none" stroke="#1414ce" d="M738.12,-431.7C733.01,-423.56 726.8,-413.69 721.16,-404.7"/>
<polygon fill="#1414ce" stroke="#1414ce" points="724.04,-402.71 715.75,-396.1 718.11,-406.43 724.04,-402.71"/>
</a>
</g>
</g>
<!-- 2 -->
<g id="node21" class="node">
<title>2</title>
<g id="a_node21"><a xlink:title="SocketResource">
<polygon fill="#ffffff" stroke="black" points="1380.5,-324 1249.5,-324 1249.5,-288 1380.5,-288 1380.5,-324"/>
<text text-anchor="middle" x="1315" y="-302.3" font-family="Times,serif" font-size="14.00">SocketResource</text>
</a>
</g>
</g>
<!-- 1&#45;&gt;2 -->
<g id="edge28" class="edge">
<title>1&#45;&gt;2</title>
<g id="a_edge28"><a xlink:title="usage">
<path fill="none" stroke="#1414ce" d="M797.26,-436.89C895.94,-412.14 1121.43,-355.56 1239.6,-325.92"/>
<polygon fill="#1414ce" stroke="#1414ce" points="1240.46,-329.31 1249.31,-323.48 1238.76,-322.52 1240.46,-329.31"/>
</a>
</g>
</g>
<!-- 5&#45;&gt;5 -->
<g id="edge30" class="edge">
<title>5&#45;&gt;5</title>
<g id="a_edge30"><a xlink:title="usage">
<path fill="none" stroke="#1414ce" d="M636.73,-31.31C646.9,-30.38 654.5,-25.95 654.5,-18 654.5,-12.91 651.38,-9.26 646.47,-7.05"/>
<polygon fill="#1414ce" stroke="#1414ce" points="647.28,-3.64 636.73,-4.69 645.63,-10.45 647.28,-3.64"/>
</a>
</g>
</g>
<!-- 25 -->
<g id="node13" class="node">
<title>25</title>
<g id="a_node13"><a xlink:title="LiteralEntry">
<polygon fill="#ffffff" stroke="black" points="246,-252 142,-252 142,-216 246,-216 246,-252"/>
<text text-anchor="middle" x="194" y="-230.3" font-family="Times,serif" font-size="14.00">LiteralEntry</text>
</a>
</g>
</g>
<!-- 9 -->
<g id="node15" class="node">
<title>9</title>
<g id="a_node15"><a xlink:title="MailboxMessage">
<polygon fill="#ffffff" stroke="black" points="665.5,-108 528.5,-108 528.5,-72 665.5,-72 665.5,-108"/>
<text text-anchor="middle" x="597" y="-86.3" font-family="Times,serif" font-size="14.00">MailboxMessage</text>
</a>
</g>
</g>
<!-- 23&#45;&gt;9 -->
<g id="edge31" class="edge">
<title>23&#45;&gt;9</title>
<g id="a_edge31"><a xlink:title="usage">
<path fill="none" stroke="#1414ce" d="M464.31,-145.64C488.33,-135.75 519.87,-122.76 546.18,-111.93"/>
<polygon fill="#1414ce" stroke="#1414ce" points="547.69,-115.09 555.61,-108.04 545.03,-108.62 547.69,-115.09"/>
</a>
</g>
</g>
<!-- 9&#45;&gt;9 -->
<g id="edge32" class="edge">
<title>9&#45;&gt;9</title>
<g id="a_edge32"><a xlink:title="usage">
<path fill="none" stroke="#1414ce" d="M665.53,-102.37C676.21,-100.52 683.5,-96.4 683.5,-90 683.5,-85.8 680.36,-82.58 675.18,-80.34"/>
<polygon fill="#1414ce" stroke="#1414ce" points="676.1,-76.96 665.53,-77.63 674.21,-83.7 676.1,-76.96"/>
</a>
</g>
</g>
<!-- 8&#45;&gt;9 -->
<g id="edge34" class="edge">
<title>8&#45;&gt;9</title>
<g id="a_edge34"><a xlink:title="usage">
<path fill="none" stroke="#1414ce" d="M569.9,-143.7C574,-135.73 578.95,-126.1 583.49,-117.26"/>
<polygon fill="#1414ce" stroke="#1414ce" points="586.74,-118.6 588.2,-108.1 580.52,-115.4 586.74,-118.6"/>
</a>
</g>
</g>
<!-- 8&#45;&gt;8 -->
<g id="edge33" class="edge">
<title>8&#45;&gt;8</title>
<g id="a_edge33"><a xlink:title="usage">
<path fill="none" stroke="#1414ce" d="M640.16,-173.98C650.87,-171.97 658,-167.98 658,-162 658,-158.08 654.93,-155.01 649.79,-152.8"/>
<polygon fill="#1414ce" stroke="#1414ce" points="650.74,-149.43 640.16,-150.02 648.8,-156.15 650.74,-149.43"/>
</a>
</g>
</g>
<!-- 18&#45;&gt;19 -->
<g id="edge35" class="edge">
<title>18&#45;&gt;19</title>
<g id="a_edge35"><a xlink:title="usage">
<path fill="none" stroke="#1414ce" d="M445.53,-287.7C446.73,-279.9 448.93,-270.51 451.52,-261.83"/>
<polygon fill="#1414ce" stroke="#1414ce" points="454.92,-262.7 454.71,-252.1 448.26,-260.52 454.92,-262.7"/>
</a>
</g>
</g>
<!-- 18&#45;&gt;24 -->
<g id="edge36" class="edge">
<title>18&#45;&gt;24</title>
<g id="a_edge36"><a xlink:title="usage">
<path fill="none" stroke="#1414ce" d="M420.09,-287.88C405.84,-278.81 388.15,-267.55 372.76,-257.76"/>
<polygon fill="#1414ce" stroke="#1414ce" points="374.33,-254.61 364.01,-252.19 370.57,-260.51 374.33,-254.61"/>
</a>
</g>
</g>
<!-- 18&#45;&gt;25 -->
<g id="edge37" class="edge">
<title>18&#45;&gt;25</title>
<g id="a_edge37"><a xlink:title="usage">
<path fill="none" stroke="#1414ce" d="M411.96,-295.35C375.42,-285.29 316.21,-268.97 255.92,-252.25"/>
<polygon fill="#1414ce" stroke="#1414ce" points="256.81,-248.87 246.24,-249.57 254.94,-255.61 256.81,-248.87"/>
</a>
</g>
</g>
<!-- 11 -->
<g id="node18" class="node">
<title>11</title>
<g id="a_node18"><a xlink:title="RefcBinary">
<polygon fill="#ffffff" stroke="black" points="903.5,-252 808.5,-252 808.5,-216 903.5,-216 903.5,-252"/>
<text text-anchor="middle" x="856" y="-230.3" font-family="Times,serif" font-size="14.00">RefcBinary</text>
</a>
</g>
</g>
<!-- 11&#45;&gt;5 -->
<g id="edge38" class="edge">
<title>11&#45;&gt;5</title>
<g id="a_edge38"><a xlink:title="usage">
<path fill="none" stroke="#1414ce" d="M882.58,-215.91C894.24,-206.81 906.69,-194.49 913,-180 919.39,-165.33 920.12,-158.33 913,-144 864.86,-47.1 723.7,-24.86 647.01,-20.05"/>
<polygon fill="#1414ce" stroke="#1414ce" points="646.81,-16.54 636.63,-19.49 646.42,-23.53 646.81,-16.54"/>
</a>
</g>
</g>
<!-- 11&#45;&gt;4 -->
<g id="edge39" class="edge">
<title>11&#45;&gt;4</title>
<g id="a_edge39"><a xlink:title="usage">
<path fill="none" stroke="#1414ce" d="M853.28,-215.7C852.07,-207.98 850.61,-198.71 849.26,-190.11"/>
<polygon fill="#1414ce" stroke="#1414ce" points="852.7,-189.44 847.69,-180.1 845.78,-190.53 852.7,-189.44"/>
</a>
</g>
</g>
<!-- 10&#45;&gt;11 -->
<g id="edge41" class="edge">
<title>10&#45;&gt;11</title>
<g id="a_edge41"><a xlink:title="usage">
<path fill="none" stroke="#1414ce" d="M885.36,-287.7C880.87,-279.64 875.44,-269.89 870.48,-260.98"/>
<polygon fill="#1414ce" stroke="#1414ce" points="873.45,-259.14 865.53,-252.1 867.34,-262.54 873.45,-259.14"/>
</a>
</g>
</g>
<!-- 10&#45;&gt;10 -->
<g id="edge40" class="edge">
<title>10&#45;&gt;10</title>
<g id="a_edge40"><a xlink:title="usage">
<path fill="none" stroke="#1414ce" d="M982.3,-317.68C992.99,-315.59 1000,-311.7 1000,-306 1000,-302.35 997.12,-299.44 992.25,-297.27"/>
<polygon fill="#1414ce" stroke="#1414ce" points="992.88,-293.81 982.3,-294.32 990.89,-300.52 992.88,-293.81"/>
</a>
</g>
</g>
<!-- 4&#45;&gt;6 -->
<g id="edge43" class="edge">
<title>4&#45;&gt;6</title>
<g id="a_edge43"><a xlink:title="usage">
<path fill="none" stroke="#1414ce" d="M837.09,-180.06C829.21,-190.16 817.96,-203.41 809,-216 776.49,-261.68 744.59,-319.03 724.52,-351.49"/>
<polygon fill="#1414ce" stroke="#1414ce" points="721.56,-349.63 719.19,-359.96 727.48,-353.37 721.56,-349.63"/>
</a>
</g>
</g>
<!-- 4&#45;&gt;5 -->
<g id="edge42" class="edge">
<title>4&#45;&gt;5</title>
<g id="a_edge42"><a xlink:title="usage">
<path fill="none" stroke="#1414ce" d="M838.72,-143.88C830.44,-123.68 813.92,-90.5 789,-72 747.24,-41 688.35,-28.13 646.62,-22.79"/>
<polygon fill="#1414ce" stroke="#1414ce" points="647.01,-19.31 636.67,-21.62 646.19,-26.27 647.01,-19.31"/>
</a>
</g>
</g>
<!-- 4&#45;&gt;12 -->
<g id="edge44" class="edge">
<title>4&#45;&gt;12</title>
<g id="a_edge44"><a xlink:title="usage">
<path fill="none" stroke="#1414ce" d="M819.56,-143.88C806.21,-134.89 789.68,-123.76 775.22,-114.03"/>
<polygon fill="#1414ce" stroke="#1414ce" points="776.79,-110.87 766.54,-108.19 772.88,-116.68 776.79,-110.87"/>
</a>
</g>
</g>
<!-- 2&#45;&gt;3 -->
<g id="edge45" class="edge">
<title>2&#45;&gt;3</title>
<g id="a_edge45"><a xlink:title="usage">
<path fill="none" stroke="#1414ce" d="M1271.46,-287.88C1246.8,-278.18 1215.78,-265.98 1189.75,-255.74"/>
<polygon fill="#1414ce" stroke="#1414ce" points="1190.99,-252.47 1180.4,-252.07 1188.43,-258.99 1190.99,-252.47"/>
</a>
</g>
</g>
<!-- 2&#45;&gt;5 -->
<g id="edge46" class="edge">
<title>2&#45;&gt;5</title>
<g id="a_edge46"><a xlink:title="usage">
<path fill="none" stroke="#1414ce" d="M1339.48,-287.77C1350.4,-278.56 1362.12,-266.19 1368,-252 1387.53,-204.85 1370.49,-173.72 1329,-144 1218.57,-64.89 794.35,-31.37 646.87,-21.95"/>
<polygon fill="#1414ce" stroke="#1414ce" points="646.94,-18.45 636.74,-21.31 646.5,-25.43 646.94,-18.45"/>
</a>
</g>
</g>
<!-- 12&#45;&gt;5 -->
<g id="edge47" class="edge">
<title>12&#45;&gt;5</title>
<g id="a_edge47"><a xlink:title="usage">
<path fill="none" stroke="#1414ce" d="M705.53,-71.88C685.88,-62.39 661.28,-50.51 640.37,-40.42"/>
<polygon fill="#1414ce" stroke="#1414ce" points="641.88,-37.26 631.36,-36.07 638.84,-43.57 641.88,-37.26"/>
</a>
</g>
</g>
<!-- 26&#45;&gt;5 -->
<g id="edge48" class="edge">
<title>26&#45;&gt;5</title>
<g id="a_edge48"><a xlink:title="usage">
<path fill="none" stroke="#1414ce" d="M86.05,-75.26C90.73,-74.03 95.44,-72.91 100,-72 260.69,-39.74 454.87,-26.21 545.2,-21.35"/>
<polygon fill="#1414ce" stroke="#1414ce" points="545.63,-24.83 555.44,-20.81 545.27,-17.84 545.63,-24.83"/>
</a>
</g>
</g>
<!-- 22&#45;&gt;5 -->
<g id="edge49" class="edge">
<title>22&#45;&gt;5</title>
<g id="a_edge49"><a xlink:title="usage">
<path fill="none" stroke="#1414ce" d="M486.47,-71.88C506.12,-62.39 530.72,-50.51 551.63,-40.42"/>
<polygon fill="#1414ce" stroke="#1414ce" points="553.16,-43.57 560.64,-36.07 550.12,-37.26 553.16,-43.57"/>
</a>
</g>
</g>
<!-- 17&#45;&gt;15 -->
<g id="edge50" class="edge">
<title>17&#45;&gt;15</title>
<g id="a_edge50"><a xlink:title="usage">
<path fill="none" stroke="#1414ce" d="M1058.65,-215.97C1110.69,-202.86 1181.03,-185.15 1225.72,-173.9"/>
<polygon fill="#1414ce" stroke="#1414ce" points="1226.83,-177.23 1235.67,-171.39 1225.12,-170.44 1226.83,-177.23"/>
</a>
</g>
</g>
</g>
</svg>
