<?xml version="1.0" encoding="UTF-8" standalone="no"?>
<!DOCTYPE svg PUBLIC "-//W3C//DTD SVG 1.1//EN"
 "http://www.w3.org/Graphics/SVG/1.1/DTD/svg11.dtd">
<!-- Generated by graphviz version 2.43.0 (0)
 -->
<!-- Title: %3 Pages: 1 -->
<svg width="1411pt" height="692pt"
 viewBox="0.00 0.00 1410.50 692.00" xmlns="http://www.w3.org/2000/svg" xmlns:xlink="http://www.w3.org/1999/xlink">
<g id="graph0" class="graph" transform="scale(1 1) rotate(0) translate(4 688)">
<title>%3</title>
<polygon fill="transparent" stroke="transparent" points="-4,4 -4,-688 1406.5,-688 1406.5,4 -4,4"/>
<!-- 5 -->
<g id="node1" class="node">
<title>5</title>
<g id="a_node1"><a xlink:title="stdbool.h">
<polygon fill="#ffffff" stroke="black" points="1088,-108 1005,-108 1005,-72 1088,-72 1088,-108"/>
<text text-anchor="middle" x="1046.5" y="-86.3" font-family="Times,serif" font-size="14.00">stdbool.h</text>
</a>
</g>
</g>
<!-- 19 -->
<g id="node2" class="node">
<title>19</title>
<g id="a_node2"><a xlink:title="refc_binary.h">
<polygon fill="#ffffff" stroke="black" points="819.5,-396 711.5,-396 711.5,-360 819.5,-360 819.5,-396"/>
<text text-anchor="middle" x="765.5" y="-374.3" font-family="Times,serif" font-size="14.00">refc_binary.h</text>
</a>
</g>
</g>
<!-- 19&#45;&gt;5 -->
<g id="edge1" class="edge">
<title>19&#45;&gt;5</title>
<g id="a_edge1"><a xlink:title="include">
<path fill="none" stroke="#1414ce" d="M784.68,-359.86C796.24,-349.51 811.25,-336.03 824.5,-324 859.55,-292.18 949.94,-215.29 981.5,-180 999.48,-159.9 1017.36,-134.96 1029.81,-116.59"/>
<polygon fill="#1414ce" stroke="#1414ce" points="1032.8,-118.42 1035.45,-108.16 1026.98,-114.52 1032.8,-118.42"/>
</a>
</g>
</g>
<!-- 20 -->
<g id="node7" class="node">
<title>20</title>
<g id="a_node7"><a xlink:title="list.h">
<polygon fill="#ffffff" stroke="black" points="1128.5,-180 1074.5,-180 1074.5,-144 1128.5,-144 1128.5,-180"/>
<text text-anchor="middle" x="1101.5" y="-158.3" font-family="Times,serif" font-size="14.00">list.h</text>
</a>
</g>
</g>
<!-- 19&#45;&gt;20 -->
<g id="edge3" class="edge">
<title>19&#45;&gt;20</title>
<g id="a_edge3"><a xlink:title="include">
<path fill="none" stroke="#1414ce" d="M800.27,-359.78C819.75,-349.83 844.3,-336.79 865.5,-324 941.1,-278.37 1025.68,-218.35 1070.19,-186.01"/>
<polygon fill="#1414ce" stroke="#1414ce" points="1072.27,-188.83 1078.29,-180.12 1068.14,-183.17 1072.27,-188.83"/>
</a>
</g>
</g>
<!-- 8 -->
<g id="node9" class="node">
<title>8</title>
<g id="a_node9"><a xlink:title="stdlib.h">
<polygon fill="#ffffff" stroke="black" points="464,-108 393,-108 393,-72 464,-72 464,-108"/>
<text text-anchor="middle" x="428.5" y="-86.3" font-family="Times,serif" font-size="14.00">stdlib.h</text>
</a>
</g>
</g>
<!-- 19&#45;&gt;8 -->
<g id="edge2" class="edge">
<title>19&#45;&gt;8</title>
<g id="a_edge2"><a xlink:title="include">
<path fill="none" stroke="#1414ce" d="M719.78,-359.94C653.22,-332.63 530.72,-272.57 467.5,-180 454.25,-160.61 443.88,-135.98 437.17,-117.56"/>
<polygon fill="#1414ce" stroke="#1414ce" points="440.44,-116.31 433.83,-108.03 433.84,-118.62 440.44,-116.31"/>
</a>
</g>
</g>
<!-- 21 -->
<g id="node13" class="node">
<title>21</title>
<g id="a_node13"><a xlink:title="resources.h">
<polygon fill="#ffffff" stroke="black" points="815.5,-324 715.5,-324 715.5,-288 815.5,-288 815.5,-324"/>
<text text-anchor="middle" x="765.5" y="-302.3" font-family="Times,serif" font-size="14.00">resources.h</text>
</a>
</g>
</g>
<!-- 19&#45;&gt;21 -->
<g id="edge4" class="edge">
<title>19&#45;&gt;21</title>
<g id="a_edge4"><a xlink:title="include">
<path fill="none" stroke="#1414ce" d="M765.5,-359.7C765.5,-351.98 765.5,-342.71 765.5,-334.11"/>
<polygon fill="#1414ce" stroke="#1414ce" points="769,-334.1 765.5,-324.1 762,-334.1 769,-334.1"/>
</a>
</g>
</g>
<!-- 10 -->
<g id="node3" class="node">
<title>10</title>
<g id="a_node3"><a xlink:title="atom.h">
<polygon fill="#ffffff" stroke="black" points="702.5,-180 636.5,-180 636.5,-144 702.5,-144 702.5,-180"/>
<text text-anchor="middle" x="669.5" y="-158.3" font-family="Times,serif" font-size="14.00">atom.h</text>
</a>
</g>
</g>
<!-- 6 -->
<g id="node8" class="node">
<title>6</title>
<g id="a_node8"><a xlink:title="stdint.h">
<polygon fill="#ffffff" stroke="black" points="745.5,-36 673.5,-36 673.5,0 745.5,0 745.5,-36"/>
<text text-anchor="middle" x="709.5" y="-14.3" font-family="Times,serif" font-size="14.00">stdint.h</text>
</a>
</g>
</g>
<!-- 10&#45;&gt;6 -->
<g id="edge5" class="edge">
<title>10&#45;&gt;6</title>
<g id="a_edge5"><a xlink:title="include">
<path fill="none" stroke="#1414ce" d="M677.25,-143.59C681.58,-133.38 686.83,-120.13 690.5,-108 696.67,-87.62 701.61,-64.02 704.9,-46.25"/>
<polygon fill="#1414ce" stroke="#1414ce" points="708.37,-46.74 706.69,-36.28 701.48,-45.5 708.37,-46.74"/>
</a>
</g>
</g>
<!-- 10&#45;&gt;8 -->
<g id="edge6" class="edge">
<title>10&#45;&gt;8</title>
<g id="a_edge6"><a xlink:title="include">
<path fill="none" stroke="#1414ce" d="M636.17,-147.07C633.25,-145.99 630.34,-144.95 627.5,-144 575.61,-126.66 514.64,-111.11 474,-101.41"/>
<polygon fill="#1414ce" stroke="#1414ce" points="474.66,-97.97 464.12,-99.07 473.05,-104.78 474.66,-97.97"/>
</a>
</g>
</g>
<!-- 14 -->
<g id="node4" class="node">
<title>14</title>
<g id="a_node4"><a xlink:title="assert.h">
<polygon fill="#ffffff" stroke="black" points="270.5,-36 196.5,-36 196.5,0 270.5,0 270.5,-36"/>
<text text-anchor="middle" x="233.5" y="-14.3" font-family="Times,serif" font-size="14.00">assert.h</text>
</a>
</g>
</g>
<!-- 17 -->
<g id="node5" class="node">
<title>17</title>
<g id="a_node5"><a xlink:title="utils.h">
<polygon fill="#ffffff" stroke="black" points="618.5,-180 556.5,-180 556.5,-144 618.5,-144 618.5,-180"/>
<text text-anchor="middle" x="587.5" y="-158.3" font-family="Times,serif" font-size="14.00">utils.h</text>
</a>
</g>
</g>
<!-- 17&#45;&gt;8 -->
<g id="edge9" class="edge">
<title>17&#45;&gt;8</title>
<g id="a_edge9"><a xlink:title="include">
<path fill="none" stroke="#1414ce" d="M556.47,-147.34C532.88,-136.95 500.1,-122.52 473.62,-110.86"/>
<polygon fill="#1414ce" stroke="#1414ce" points="474.74,-107.53 464.17,-106.71 471.92,-113.94 474.74,-107.53"/>
</a>
</g>
</g>
<!-- 18 -->
<g id="node15" class="node">
<title>18</title>
<g id="a_node15"><a xlink:title="stddef.h">
<polygon fill="#ffffff" stroke="black" points="681.5,-108 607.5,-108 607.5,-72 681.5,-72 681.5,-108"/>
<text text-anchor="middle" x="644.5" y="-86.3" font-family="Times,serif" font-size="14.00">stddef.h</text>
</a>
</g>
</g>
<!-- 17&#45;&gt;18 -->
<g id="edge7" class="edge">
<title>17&#45;&gt;18</title>
<g id="a_edge7"><a xlink:title="include">
<path fill="none" stroke="#1414ce" d="M601.59,-143.7C608.42,-135.3 616.76,-125.07 624.26,-115.86"/>
<polygon fill="#1414ce" stroke="#1414ce" points="626.97,-118.07 630.57,-108.1 621.54,-113.65 626.97,-118.07"/>
</a>
</g>
</g>
<!-- 7 -->
<g id="node27" class="node">
<title>7</title>
<g id="a_node27"><a xlink:title="stdio.h">
<polygon fill="#ffffff" stroke="black" points="589,-108 524,-108 524,-72 589,-72 589,-108"/>
<text text-anchor="middle" x="556.5" y="-86.3" font-family="Times,serif" font-size="14.00">stdio.h</text>
</a>
</g>
</g>
<!-- 17&#45;&gt;7 -->
<g id="edge8" class="edge">
<title>17&#45;&gt;7</title>
<g id="a_edge8"><a xlink:title="include">
<path fill="none" stroke="#1414ce" d="M579.84,-143.7C576.31,-135.73 572.04,-126.1 568.13,-117.26"/>
<polygon fill="#1414ce" stroke="#1414ce" points="571.32,-115.83 564.07,-108.1 564.92,-118.67 571.32,-115.83"/>
</a>
</g>
</g>
<!-- 23 -->
<g id="node6" class="node">
<title>23</title>
<g id="a_node6"><a xlink:title="synclist.h">
<polygon fill="#ffffff" stroke="black" points="1144,-252 1059,-252 1059,-216 1144,-216 1144,-252"/>
<text text-anchor="middle" x="1101.5" y="-230.3" font-family="Times,serif" font-size="14.00">synclist.h</text>
</a>
</g>
</g>
<!-- 23&#45;&gt;20 -->
<g id="edge11" class="edge">
<title>23&#45;&gt;20</title>
<g id="a_edge11"><a xlink:title="include">
<path fill="none" stroke="#1414ce" d="M1101.5,-215.7C1101.5,-207.98 1101.5,-198.71 1101.5,-190.11"/>
<polygon fill="#1414ce" stroke="#1414ce" points="1105,-190.1 1101.5,-180.1 1098,-190.1 1105,-190.1"/>
</a>
</g>
</g>
<!-- 24 -->
<g id="node24" class="node">
<title>24</title>
<g id="a_node24"><a xlink:title="smp.h">
<polygon fill="#ffffff" stroke="black" points="1206.5,-180 1146.5,-180 1146.5,-144 1206.5,-144 1206.5,-180"/>
<text text-anchor="middle" x="1176.5" y="-158.3" font-family="Times,serif" font-size="14.00">smp.h</text>
</a>
</g>
</g>
<!-- 23&#45;&gt;24 -->
<g id="edge12" class="edge">
<title>23&#45;&gt;24</title>
<g id="a_edge12"><a xlink:title="include">
<path fill="none" stroke="#1414ce" d="M1120.04,-215.7C1129.3,-207.05 1140.66,-196.45 1150.76,-187.03"/>
<polygon fill="#1414ce" stroke="#1414ce" points="1153.25,-189.49 1158.17,-180.1 1148.48,-184.37 1153.25,-189.49"/>
</a>
</g>
</g>
<!-- 23&#45;&gt;7 -->
<g id="edge10" class="edge">
<title>23&#45;&gt;7</title>
<g id="a_edge10"><a xlink:title="include">
<path fill="none" stroke="#1414ce" d="M1058.73,-229.78C977.29,-223.13 803.31,-206.25 749.5,-180 728.59,-169.8 731.53,-155.83 711.5,-144 668.68,-118.72 650.21,-125.03 599.01,-107.94"/>
<polygon fill="#1414ce" stroke="#1414ce" points="600.02,-104.59 589.42,-104.6 597.71,-111.2 600.02,-104.59"/>
</a>
</g>
</g>
<!-- 20&#45;&gt;5 -->
<g id="edge13" class="edge">
<title>20&#45;&gt;5</title>
<g id="a_edge13"><a xlink:title="include">
<path fill="none" stroke="#1414ce" d="M1087.9,-143.7C1081.38,-135.39 1073.43,-125.28 1066.25,-116.14"/>
<polygon fill="#1414ce" stroke="#1414ce" points="1068.87,-113.81 1059.94,-108.1 1063.37,-118.13 1068.87,-113.81"/>
</a>
</g>
</g>
<!-- 11 -->
<g id="node10" class="node">
<title>11</title>
<g id="a_node10"><a xlink:title="memory.h">
<polygon fill="#ffffff" stroke="black" points="343.5,-252 257.5,-252 257.5,-216 343.5,-216 343.5,-252"/>
<text text-anchor="middle" x="300.5" y="-230.3" font-family="Times,serif" font-size="14.00">memory.h</text>
</a>
</g>
</g>
<!-- 11&#45;&gt;17 -->
<g id="edge18" class="edge">
<title>11&#45;&gt;17</title>
<g id="a_edge18"><a xlink:title="include">
<path fill="none" stroke="#1414ce" d="M343.78,-222.44C398.65,-209.06 492.58,-186.15 546.39,-173.03"/>
<polygon fill="#1414ce" stroke="#1414ce" points="547.39,-176.38 556.28,-170.61 545.73,-169.58 547.39,-176.38"/>
</a>
</g>
</g>
<!-- 11&#45;&gt;6 -->
<g id="edge14" class="edge">
<title>11&#45;&gt;6</title>
<g id="a_edge14"><a xlink:title="include">
<path fill="none" stroke="#1414ce" d="M303.4,-215.95C310.26,-181.56 331.06,-104.39 383.5,-72 429.55,-43.56 584.95,-28.25 663.39,-22.16"/>
<polygon fill="#1414ce" stroke="#1414ce" points="663.77,-25.64 673.47,-21.4 663.24,-18.66 663.77,-25.64"/>
</a>
</g>
</g>
<!-- 11&#45;&gt;8 -->
<g id="edge15" class="edge">
<title>11&#45;&gt;8</title>
<g id="a_edge15"><a xlink:title="include">
<path fill="none" stroke="#1414ce" d="M310.39,-215.86C321.67,-197.12 341.29,-166.71 362.5,-144 372.41,-133.39 384.51,-123.07 395.62,-114.4"/>
<polygon fill="#1414ce" stroke="#1414ce" points="398.04,-116.96 403.88,-108.12 393.8,-111.39 398.04,-116.96"/>
</a>
</g>
</g>
<!-- 12 -->
<g id="node16" class="node">
<title>12</title>
<g id="a_node16"><a xlink:title="erl_nif.h">
<polygon fill="#ffffff" stroke="black" points="234.5,-180 160.5,-180 160.5,-144 234.5,-144 234.5,-180"/>
<text text-anchor="middle" x="197.5" y="-158.3" font-family="Times,serif" font-size="14.00">erl_nif.h</text>
</a>
</g>
</g>
<!-- 11&#45;&gt;12 -->
<g id="edge16" class="edge">
<title>11&#45;&gt;12</title>
<g id="a_edge16"><a xlink:title="include">
<path fill="none" stroke="#1414ce" d="M275.3,-215.88C262.09,-206.89 245.71,-195.76 231.39,-186.03"/>
<polygon fill="#1414ce" stroke="#1414ce" points="233.03,-182.92 222.79,-180.19 229.1,-188.71 233.03,-182.92"/>
</a>
</g>
</g>
<!-- 13 -->
<g id="node22" class="node">
<title>13</title>
<g id="a_node22"><a xlink:title="term_typedef.h">
<polygon fill="#ffffff" stroke="black" points="196,-108 71,-108 71,-72 196,-72 196,-108"/>
<text text-anchor="middle" x="133.5" y="-86.3" font-family="Times,serif" font-size="14.00">term_typedef.h</text>
</a>
</g>
</g>
<!-- 11&#45;&gt;13 -->
<g id="edge17" class="edge">
<title>11&#45;&gt;13</title>
<g id="a_edge17"><a xlink:title="include">
<path fill="none" stroke="#1414ce" d="M293.1,-215.93C283.91,-196.38 266.57,-164.44 243.5,-144 228.84,-131.01 210.44,-120.49 192.9,-112.36"/>
<polygon fill="#1414ce" stroke="#1414ce" points="193.83,-108.94 183.27,-108.08 190.99,-115.34 193.83,-108.94"/>
</a>
</g>
</g>
<!-- 1 -->
<g id="node11" class="node">
<title>1</title>
<g id="a_node11"><a xlink:title="/__w/AtomVM/AtomVM/src/libAtomVM/dist_nifs.h">
<polygon fill="#bfbfbf" stroke="black" points="687,-684 320,-684 320,-648 687,-648 687,-684"/>
<text text-anchor="middle" x="503.5" y="-662.3" font-family="Times,serif" font-size="14.00">/__w/AtomVM/AtomVM/src/libAtomVM/dist_nifs.h</text>
</a>
</g>
</g>
<!-- 3 -->
<g id="node14" class="node">
<title>3</title>
<g id="a_node14"><a xlink:title="term.h">
<polygon fill="#ffffff" stroke="black" points="527,-468 462,-468 462,-432 527,-432 527,-468"/>
<text text-anchor="middle" x="494.5" y="-446.3" font-family="Times,serif" font-size="14.00">term.h</text>
</a>
</g>
</g>
<!-- 1&#45;&gt;3 -->
<g id="edge21" class="edge">
<title>1&#45;&gt;3</title>
<g id="a_edge21"><a xlink:title="include">
<path fill="none" stroke="#1414ce" d="M486.7,-647.79C465.98,-625.22 431.86,-583.39 418.5,-540 413.79,-524.71 411.1,-518.19 418.5,-504 426.01,-489.61 439.4,-478.33 452.88,-469.94"/>
<polygon fill="#1414ce" stroke="#1414ce" points="454.78,-472.89 461.69,-464.85 451.28,-466.83 454.78,-472.89"/>
</a>
</g>
</g>
<!-- 2 -->
<g id="node17" class="node">
<title>2</title>
<g id="a_node17"><a xlink:title="exportedfunction.h">
<polygon fill="#ffffff" stroke="black" points="579.5,-540 427.5,-540 427.5,-504 579.5,-504 579.5,-540"/>
<text text-anchor="middle" x="503.5" y="-518.3" font-family="Times,serif" font-size="14.00">exportedfunction.h</text>
</a>
</g>
</g>
<!-- 1&#45;&gt;2 -->
<g id="edge19" class="edge">
<title>1&#45;&gt;2</title>
<g id="a_edge19"><a xlink:title="include">
<path fill="none" stroke="#1414ce" d="M503.5,-647.87C503.5,-623.67 503.5,-579.21 503.5,-550.39"/>
<polygon fill="#1414ce" stroke="#1414ce" points="507,-550.19 503.5,-540.19 500,-550.19 507,-550.19"/>
</a>
</g>
</g>
<!-- 25 -->
<g id="node23" class="node">
<title>25</title>
<g id="a_node23"><a xlink:title="globalcontext.h">
<polygon fill="#ffffff" stroke="black" points="1105,-612 978,-612 978,-576 1105,-576 1105,-612"/>
<text text-anchor="middle" x="1041.5" y="-590.3" font-family="Times,serif" font-size="14.00">globalcontext.h</text>
</a>
</g>
</g>
<!-- 1&#45;&gt;25 -->
<g id="edge20" class="edge">
<title>1&#45;&gt;25</title>
<g id="a_edge20"><a xlink:title="include">
<path fill="none" stroke="#1414ce" d="M634.42,-647.97C739.03,-634.35 881.86,-615.77 967.56,-604.62"/>
<polygon fill="#1414ce" stroke="#1414ce" points="968.26,-608.06 977.72,-603.3 967.36,-601.12 968.26,-608.06"/>
</a>
</g>
</g>
<!-- 29 -->
<g id="node12" class="node">
<title>29</title>
<g id="a_node12"><a xlink:title="valueshashtable.h">
<polygon fill="#ffffff" stroke="black" points="904.5,-180 758.5,-180 758.5,-144 904.5,-144 904.5,-180"/>
<text text-anchor="middle" x="831.5" y="-158.3" font-family="Times,serif" font-size="14.00">valueshashtable.h</text>
</a>
</g>
</g>
<!-- 29&#45;&gt;6 -->
<g id="edge23" class="edge">
<title>29&#45;&gt;6</title>
<g id="a_edge23"><a xlink:title="include">
<path fill="none" stroke="#1414ce" d="M816.78,-143.87C795.44,-119.03 755.76,-72.85 731.1,-44.14"/>
<polygon fill="#1414ce" stroke="#1414ce" points="733.44,-41.49 724.27,-36.19 728.13,-46.06 733.44,-41.49"/>
</a>
</g>
</g>
<!-- 29&#45;&gt;18 -->
<g id="edge22" class="edge">
<title>29&#45;&gt;18</title>
<g id="a_edge22"><a xlink:title="include">
<path fill="none" stroke="#1414ce" d="M785.75,-143.88C757,-133.11 720.01,-119.26 691.09,-108.44"/>
<polygon fill="#1414ce" stroke="#1414ce" points="692.21,-105.12 681.62,-104.9 689.76,-111.68 692.21,-105.12"/>
</a>
</g>
</g>
<!-- 21&#45;&gt;23 -->
<g id="edge29" class="edge">
<title>21&#45;&gt;23</title>
<g id="a_edge29"><a xlink:title="include">
<path fill="none" stroke="#1414ce" d="M815.8,-294.52C878.54,-281.45 985.27,-259.21 1049.01,-245.94"/>
<polygon fill="#1414ce" stroke="#1414ce" points="1049.78,-249.35 1058.85,-243.88 1048.35,-242.5 1049.78,-249.35"/>
</a>
</g>
</g>
<!-- 21&#45;&gt;20 -->
<g id="edge26" class="edge">
<title>21&#45;&gt;20</title>
<g id="a_edge26"><a xlink:title="include">
<path fill="none" stroke="#1414ce" d="M806.03,-287.87C871.97,-260 1001.47,-205.28 1064.83,-178.5"/>
<polygon fill="#1414ce" stroke="#1414ce" points="1066.56,-181.57 1074.41,-174.45 1063.84,-175.12 1066.56,-181.57"/>
</a>
</g>
</g>
<!-- 21&#45;&gt;8 -->
<g id="edge24" class="edge">
<title>21&#45;&gt;8</title>
<g id="a_edge24"><a xlink:title="include">
<path fill="none" stroke="#1414ce" d="M715.33,-291.24C667.29,-277.86 600.52,-258.59 589.5,-252 528.98,-215.81 474.63,-151.88 447.24,-116.45"/>
<polygon fill="#1414ce" stroke="#1414ce" points="449.71,-113.92 440.86,-108.08 444.14,-118.16 449.71,-113.92"/>
</a>
</g>
</g>
<!-- 21&#45;&gt;11 -->
<g id="edge28" class="edge">
<title>21&#45;&gt;11</title>
<g id="a_edge28"><a xlink:title="include">
<path fill="none" stroke="#1414ce" d="M715.3,-297.44C626.88,-284.13 444.21,-256.63 353.71,-243.01"/>
<polygon fill="#1414ce" stroke="#1414ce" points="354.07,-239.53 343.67,-241.5 353.03,-246.45 354.07,-239.53"/>
</a>
</g>
</g>
<!-- 21&#45;&gt;12 -->
<g id="edge25" class="edge">
<title>21&#45;&gt;12</title>
<g id="a_edge25"><a xlink:title="include">
<path fill="none" stroke="#1414ce" d="M715.12,-305.55C600.57,-305.92 324.63,-301.47 248.5,-252 226.43,-237.66 212.84,-210.21 205.3,-189.57"/>
<polygon fill="#1414ce" stroke="#1414ce" points="208.6,-188.41 202.07,-180.07 201.98,-190.66 208.6,-188.41"/>
</a>
</g>
</g>
<!-- 22 -->
<g id="node26" class="node">
<title>22</title>
<g id="a_node26"><a xlink:title="mailbox.h">
<polygon fill="#ffffff" stroke="black" points="812.5,-252 726.5,-252 726.5,-216 812.5,-216 812.5,-252"/>
<text text-anchor="middle" x="769.5" y="-230.3" font-family="Times,serif" font-size="14.00">mailbox.h</text>
</a>
</g>
</g>
<!-- 21&#45;&gt;22 -->
<g id="edge27" class="edge">
<title>21&#45;&gt;22</title>
<g id="a_edge27"><a xlink:title="include">
<path fill="none" stroke="#1414ce" d="M766.49,-287.7C766.93,-279.98 767.46,-270.71 767.95,-262.11"/>
<polygon fill="#1414ce" stroke="#1414ce" points="771.45,-262.29 768.52,-252.1 764.46,-261.89 771.45,-262.29"/>
</a>
</g>
</g>
<!-- 3&#45;&gt;5 -->
<g id="edge31" class="edge">
<title>3&#45;&gt;5</title>
<g id="a_edge31"><a xlink:title="include">
<path fill="none" stroke="#1414ce" d="M527.02,-446.74C600.54,-441.17 777.16,-425.08 828.5,-396 937.48,-334.27 944.49,-287.06 1009.5,-180 1021.46,-160.3 1031.26,-136.04 1037.77,-117.82"/>
<polygon fill="#1414ce" stroke="#1414ce" points="1041.16,-118.73 1041.12,-108.13 1034.54,-116.44 1041.16,-118.73"/>
</a>
</g>
</g>
<!-- 3&#45;&gt;19 -->
<g id="edge38" class="edge">
<title>3&#45;&gt;19</title>
<g id="a_edge38"><a xlink:title="include">
<path fill="none" stroke="#1414ce" d="M527.19,-440.56C570.19,-429.45 646.72,-409.68 701.45,-395.54"/>
<polygon fill="#1414ce" stroke="#1414ce" points="702.6,-398.86 711.41,-392.97 700.85,-392.08 702.6,-398.86"/>
</a>
</g>
</g>
<!-- 3&#45;&gt;10 -->
<g id="edge36" class="edge">
<title>3&#45;&gt;10</title>
<g id="a_edge36"><a xlink:title="include">
<path fill="none" stroke="#1414ce" d="M506.53,-431.9C513.29,-421.78 521.54,-408.53 527.5,-396 563.87,-319.6 537.71,-282.91 589.5,-216 599.54,-203.03 613.69,-192.2 627.3,-183.78"/>
<polygon fill="#1414ce" stroke="#1414ce" points="629.27,-186.68 636.12,-178.6 625.72,-180.65 629.27,-186.68"/>
</a>
</g>
</g>
<!-- 3&#45;&gt;17 -->
<g id="edge39" class="edge">
<title>3&#45;&gt;17</title>
<g id="a_edge39"><a xlink:title="include">
<path fill="none" stroke="#1414ce" d="M499.07,-431.7C513.22,-378.16 555.43,-218.57 556.5,-216 560.35,-206.75 565.56,-197.15 570.6,-188.7"/>
<polygon fill="#1414ce" stroke="#1414ce" points="573.66,-190.4 575.93,-180.05 567.7,-186.72 573.66,-190.4"/>
</a>
</g>
</g>
<!-- 3&#45;&gt;6 -->
<g id="edge32" class="edge">
<title>3&#45;&gt;6</title>
<g id="a_edge32"><a xlink:title="include">
<path fill="none" stroke="#1414ce" d="M461.88,-446.84C397.01,-441.89 255.02,-427.67 219.5,-396 176.2,-357.4 118.46,-191.67 151.5,-144 177.46,-106.55 299.36,-83.33 343.5,-72 456.33,-43.03 593.07,-28.5 663.15,-22.5"/>
<polygon fill="#1414ce" stroke="#1414ce" points="663.74,-25.96 673.41,-21.64 663.15,-18.99 663.74,-25.96"/>
</a>
</g>
</g>
<!-- 3&#45;&gt;8 -->
<g id="edge34" class="edge">
<title>3&#45;&gt;8</title>
<g id="a_edge34"><a xlink:title="include">
<path fill="none" stroke="#1414ce" d="M461.92,-446.23C405.25,-440.67 292.28,-426 268.5,-396 227.05,-343.7 316.77,-310.14 352.5,-252 380.22,-206.89 404.87,-150.07 418.15,-117.41"/>
<polygon fill="#1414ce" stroke="#1414ce" points="421.41,-118.67 421.89,-108.08 414.92,-116.06 421.41,-118.67"/>
</a>
</g>
</g>
<!-- 3&#45;&gt;11 -->
<g id="edge37" class="edge">
<title>3&#45;&gt;11</title>
<g id="a_edge37"><a xlink:title="include">
<path fill="none" stroke="#1414ce" d="M461.73,-447.28C398.57,-443.21 263.72,-430.58 235.5,-396 201.8,-354.71 245.67,-293.64 276.02,-259.82"/>
<polygon fill="#1414ce" stroke="#1414ce" points="278.81,-261.96 283.02,-252.24 273.66,-257.22 278.81,-261.96"/>
</a>
</g>
</g>
<!-- 4 -->
<g id="node20" class="node">
<title>4</title>
<g id="a_node20"><a xlink:title="sys/types.h">
<polygon fill="#ffffff" stroke="black" points="375,-396 278,-396 278,-360 375,-360 375,-396"/>
<text text-anchor="middle" x="326.5" y="-374.3" font-family="Times,serif" font-size="14.00">sys/types.h</text>
</a>
</g>
</g>
<!-- 3&#45;&gt;4 -->
<g id="edge30" class="edge">
<title>3&#45;&gt;4</title>
<g id="a_edge30"><a xlink:title="include">
<path fill="none" stroke="#1414ce" d="M461.71,-435.34C437.62,-425.3 404.45,-411.48 376.99,-400.04"/>
<polygon fill="#1414ce" stroke="#1414ce" points="378.12,-396.71 367.54,-396.1 375.42,-403.18 378.12,-396.71"/>
</a>
</g>
</g>
<!-- 9 -->
<g id="node21" class="node">
<title>9</title>
<g id="a_node21"><a xlink:title="string.h">
<polygon fill="#ffffff" stroke="black" points="466,-396 393,-396 393,-360 466,-360 466,-396"/>
<text text-anchor="middle" x="429.5" y="-374.3" font-family="Times,serif" font-size="14.00">string.h</text>
</a>
</g>
</g>
<!-- 3&#45;&gt;9 -->
<g id="edge35" class="edge">
<title>3&#45;&gt;9</title>
<g id="a_edge35"><a xlink:title="include">
<path fill="none" stroke="#1414ce" d="M478.43,-431.7C470.56,-423.22 460.94,-412.86 452.33,-403.58"/>
<polygon fill="#1414ce" stroke="#1414ce" points="454.75,-401.05 445.38,-396.1 449.62,-405.81 454.75,-401.05"/>
</a>
</g>
</g>
<!-- 3&#45;&gt;13 -->
<g id="edge40" class="edge">
<title>3&#45;&gt;13</title>
<g id="a_edge40"><a xlink:title="include">
<path fill="none" stroke="#1414ce" d="M461.73,-448.54C385.47,-446.75 199.37,-438.08 156.5,-396 86.94,-327.72 126.98,-277.11 118.5,-180 117.11,-164.06 116.3,-159.85 118.5,-144 119.68,-135.48 121.89,-126.39 124.25,-118.2"/>
<polygon fill="#1414ce" stroke="#1414ce" points="127.67,-118.99 127.26,-108.41 120.98,-116.94 127.67,-118.99"/>
</a>
</g>
</g>
<!-- 3&#45;&gt;7 -->
<g id="edge33" class="edge">
<title>3&#45;&gt;7</title>
<g id="a_edge33"><a xlink:title="include">
<path fill="none" stroke="#1414ce" d="M497.08,-431.92C499.81,-413.99 504.31,-384.99 508.5,-360 523.36,-271.49 542.47,-166.88 551.43,-118.31"/>
<polygon fill="#1414ce" stroke="#1414ce" points="554.91,-118.76 553.29,-108.29 548.03,-117.48 554.91,-118.76"/>
</a>
</g>
</g>
<!-- 12&#45;&gt;13 -->
<g id="edge41" class="edge">
<title>12&#45;&gt;13</title>
<g id="a_edge41"><a xlink:title="include">
<path fill="none" stroke="#1414ce" d="M181.68,-143.7C173.93,-135.22 164.46,-124.86 155.98,-115.58"/>
<polygon fill="#1414ce" stroke="#1414ce" points="158.47,-113.12 149.14,-108.1 153.3,-117.85 158.47,-113.12"/>
</a>
</g>
</g>
<!-- 2&#45;&gt;3 -->
<g id="edge42" class="edge">
<title>2&#45;&gt;3</title>
<g id="a_edge42"><a xlink:title="include">
<path fill="none" stroke="#1414ce" d="M501.28,-503.7C500.28,-495.98 499.09,-486.71 497.99,-478.11"/>
<polygon fill="#1414ce" stroke="#1414ce" points="501.45,-477.58 496.7,-468.1 494.5,-478.47 501.45,-477.58"/>
</a>
</g>
</g>
<!-- 15 -->
<g id="node18" class="node">
<title>15</title>
<g id="a_node18"><a xlink:title="limits.h">
<polygon fill="#ffffff" stroke="black" points="71,-36 0,-36 0,0 71,0 71,-36"/>
<text text-anchor="middle" x="35.5" y="-14.3" font-family="Times,serif" font-size="14.00">limits.h</text>
</a>
</g>
</g>
<!-- 26 -->
<g id="node19" class="node">
<title>26</title>
<g id="a_node19"><a xlink:title="atom_table.h">
<polygon fill="#ffffff" stroke="black" points="708,-252 599,-252 599,-216 708,-216 708,-252"/>
<text text-anchor="middle" x="653.5" y="-230.3" font-family="Times,serif" font-size="14.00">atom_table.h</text>
</a>
</g>
</g>
<!-- 26&#45;&gt;5 -->
<g id="edge43" class="edge">
<title>26&#45;&gt;5</title>
<g id="a_edge43"><a xlink:title="include">
<path fill="none" stroke="#1414ce" d="M708.24,-218.16C711.37,-217.4 714.47,-216.68 717.5,-216 803.92,-196.62 836,-222.87 913.5,-180 932.49,-169.49 929.33,-157.28 946.5,-144 962.11,-131.93 980.86,-121.18 997.88,-112.56"/>
<polygon fill="#1414ce" stroke="#1414ce" points="999.71,-115.57 1007.13,-108 996.61,-109.29 999.71,-115.57"/>
</a>
</g>
</g>
<!-- 26&#45;&gt;10 -->
<g id="edge44" class="edge">
<title>26&#45;&gt;10</title>
<g id="a_edge44"><a xlink:title="include">
<path fill="none" stroke="#1414ce" d="M657.46,-215.7C659.22,-207.98 661.34,-198.71 663.3,-190.11"/>
<polygon fill="#1414ce" stroke="#1414ce" points="666.77,-190.63 665.59,-180.1 659.95,-189.07 666.77,-190.63"/>
</a>
</g>
</g>
<!-- 26&#45;&gt;17 -->
<g id="edge45" class="edge">
<title>26&#45;&gt;17</title>
<g id="a_edge45"><a xlink:title="include">
<path fill="none" stroke="#1414ce" d="M637.19,-215.7C629.19,-207.22 619.43,-196.86 610.68,-187.58"/>
<polygon fill="#1414ce" stroke="#1414ce" points="613.03,-184.98 603.63,-180.1 607.94,-189.78 613.03,-184.98"/>
</a>
</g>
</g>
<!-- 13&#45;&gt;14 -->
<g id="edge46" class="edge">
<title>13&#45;&gt;14</title>
<g id="a_edge46"><a xlink:title="include">
<path fill="none" stroke="#1414ce" d="M157.96,-71.88C170.8,-62.89 186.7,-51.76 200.59,-42.03"/>
<polygon fill="#1414ce" stroke="#1414ce" points="202.76,-44.79 208.94,-36.19 198.74,-39.06 202.76,-44.79"/>
</a>
</g>
</g>
<!-- 13&#45;&gt;6 -->
<g id="edge49" class="edge">
<title>13&#45;&gt;6</title>
<g id="a_edge49"><a xlink:title="include">
<path fill="none" stroke="#1414ce" d="M196,-74.59C200.9,-73.65 205.77,-72.77 210.5,-72 375.96,-45.03 574.62,-28.66 663.08,-22.19"/>
<polygon fill="#1414ce" stroke="#1414ce" points="663.59,-25.67 673.31,-21.45 663.08,-18.68 663.59,-25.67"/>
</a>
</g>
</g>
<!-- 13&#45;&gt;15 -->
<g id="edge47" class="edge">
<title>13&#45;&gt;15</title>
<g id="a_edge47"><a xlink:title="include">
<path fill="none" stroke="#1414ce" d="M109.53,-71.88C96.95,-62.89 81.37,-51.76 67.75,-42.03"/>
<polygon fill="#1414ce" stroke="#1414ce" points="69.74,-39.15 59.57,-36.19 65.67,-44.85 69.74,-39.15"/>
</a>
</g>
</g>
<!-- 16 -->
<g id="node29" class="node">
<title>16</title>
<g id="a_node29"><a xlink:title="inttypes.h">
<polygon fill="#ffffff" stroke="black" points="178,-36 89,-36 89,0 178,0 178,-36"/>
<text text-anchor="middle" x="133.5" y="-14.3" font-family="Times,serif" font-size="14.00">inttypes.h</text>
</a>
</g>
</g>
<!-- 13&#45;&gt;16 -->
<g id="edge48" class="edge">
<title>13&#45;&gt;16</title>
<g id="a_edge48"><a xlink:title="include">
<path fill="none" stroke="#1414ce" d="M133.5,-71.7C133.5,-63.98 133.5,-54.71 133.5,-46.11"/>
<polygon fill="#1414ce" stroke="#1414ce" points="137,-46.1 133.5,-36.1 130,-46.1 137,-46.1"/>
</a>
</g>
</g>
<!-- 25&#45;&gt;10 -->
<g id="edge51" class="edge">
<title>25&#45;&gt;10</title>
<g id="a_edge51"><a xlink:title="include">
<path fill="none" stroke="#1414ce" d="M1036.43,-575.75C1018.08,-516.33 949.37,-318.19 821.5,-216 782.51,-184.84 760,-197.12 712.15,-181.46"/>
<polygon fill="#1414ce" stroke="#1414ce" points="713.16,-178.1 702.57,-178.06 710.82,-184.7 713.16,-178.1"/>
</a>
</g>
</g>
<!-- 25&#45;&gt;23 -->
<g id="edge58" class="edge">
<title>25&#45;&gt;23</title>
<g id="a_edge58"><a xlink:title="include">
<path fill="none" stroke="#1414ce" d="M1091.06,-575.85C1107.19,-567.64 1123.3,-556.01 1132.5,-540 1184.8,-449.02 1138.15,-317.27 1113.95,-261.51"/>
<polygon fill="#1414ce" stroke="#1414ce" points="1117.12,-260.03 1109.86,-252.31 1110.72,-262.87 1117.12,-260.03"/>
</a>
</g>
</g>
<!-- 25&#45;&gt;20 -->
<g id="edge55" class="edge">
<title>25&#45;&gt;20</title>
<g id="a_edge55"><a xlink:title="include">
<path fill="none" stroke="#1414ce" d="M1090.38,-575.9C1140.29,-554.94 1210.5,-514.23 1210.5,-451 1210.5,-451 1210.5,-451 1210.5,-305 1210.5,-261.26 1195.7,-250.25 1168.5,-216 1159.68,-204.89 1148.1,-194.69 1137.05,-186.26"/>
<polygon fill="#1414ce" stroke="#1414ce" points="1138.9,-183.28 1128.76,-180.18 1134.76,-188.92 1138.9,-183.28"/>
</a>
</g>
</g>
<!-- 25&#45;&gt;6 -->
<g id="edge50" class="edge">
<title>25&#45;&gt;6</title>
<g id="a_edge50"><a xlink:title="include">
<path fill="none" stroke="#1414ce" d="M1105.25,-587.88C1157.63,-581.75 1232.68,-568.47 1292.5,-540 1349.28,-512.98 1402.5,-513.89 1402.5,-451 1402.5,-451 1402.5,-451 1402.5,-161 1402.5,-28.64 911.21,-18.5 755.94,-18.6"/>
<polygon fill="#1414ce" stroke="#1414ce" points="755.78,-15.1 745.78,-18.62 755.79,-22.1 755.78,-15.1"/>
</a>
</g>
</g>
<!-- 25&#45;&gt;29 -->
<g id="edge61" class="edge">
<title>25&#45;&gt;29</title>
<g id="a_edge61"><a xlink:title="include">
<path fill="none" stroke="#1414ce" d="M1041.5,-575.95C1041.5,-549.29 1041.5,-496.11 1041.5,-451 1041.5,-451 1041.5,-451 1041.5,-377 1041.5,-336.03 1041.35,-321.31 1017.5,-288 983.11,-239.96 924.07,-204.93 881.73,-184.38"/>
<polygon fill="#1414ce" stroke="#1414ce" points="883.23,-181.21 872.69,-180.09 880.22,-187.54 883.23,-181.21"/>
</a>
</g>
</g>
<!-- 25&#45;&gt;3 -->
<g id="edge59" class="edge">
<title>25&#45;&gt;3</title>
<g id="a_edge59"><a xlink:title="include">
<path fill="none" stroke="#1414ce" d="M977.61,-589.12C878.34,-582.37 692.15,-566.56 631.5,-540 608.67,-530 609,-518.18 588.5,-504 571.99,-492.58 552.83,-481.43 536.14,-472.33"/>
<polygon fill="#1414ce" stroke="#1414ce" points="537.61,-469.15 527.15,-467.5 534.3,-475.32 537.61,-469.15"/>
</a>
</g>
</g>
<!-- 25&#45;&gt;12 -->
<g id="edge53" class="edge">
<title>25&#45;&gt;12</title>
<g id="a_edge53"><a xlink:title="include">
<path fill="none" stroke="#1414ce" d="M977.82,-591.4C840.55,-587.34 520.88,-574.39 418.5,-540 304.89,-501.83 248.35,-500.96 190.5,-396 153.89,-329.58 174.63,-235.54 188.38,-189.92"/>
<polygon fill="#1414ce" stroke="#1414ce" points="191.78,-190.76 191.43,-180.17 185.1,-188.67 191.78,-190.76"/>
</a>
</g>
</g>
<!-- 25&#45;&gt;26 -->
<g id="edge52" class="edge">
<title>25&#45;&gt;26</title>
<g id="a_edge52"><a xlink:title="include">
<path fill="none" stroke="#1414ce" d="M977.88,-583.68C865.94,-565.46 645.5,-520.75 645.5,-451 645.5,-451 645.5,-451 645.5,-377 645.5,-336.93 648.71,-290.61 651.07,-262.05"/>
<polygon fill="#1414ce" stroke="#1414ce" points="654.56,-262.29 651.92,-252.03 647.59,-261.7 654.56,-262.29"/>
</a>
</g>
</g>
<!-- 25&#45;&gt;24 -->
<g id="edge57" class="edge">
<title>25&#45;&gt;24</title>
<g id="a_edge57"><a xlink:title="include">
<path fill="none" stroke="#1414ce" d="M1105.01,-578.09C1165.86,-559.59 1248.5,-521.49 1248.5,-451 1248.5,-451 1248.5,-451 1248.5,-305 1248.5,-260.35 1219.84,-215.52 1198.68,-188.51"/>
<polygon fill="#1414ce" stroke="#1414ce" points="1201.13,-185.96 1192.12,-180.38 1195.68,-190.36 1201.13,-185.96"/>
</a>
</g>
</g>
<!-- 28 -->
<g id="node25" class="node">
<title>28</title>
<g id="a_node25"><a xlink:title="timer_list.h">
<polygon fill="#ffffff" stroke="black" points="1374.5,-252 1276.5,-252 1276.5,-216 1374.5,-216 1374.5,-252"/>
<text text-anchor="middle" x="1325.5" y="-230.3" font-family="Times,serif" font-size="14.00">timer_list.h</text>
</a>
</g>
</g>
<!-- 25&#45;&gt;28 -->
<g id="edge60" class="edge">
<title>25&#45;&gt;28</title>
<g id="a_edge60"><a xlink:title="include">
<path fill="none" stroke="#1414ce" d="M1105.48,-591.95C1153.41,-588.04 1218.1,-575.76 1262.5,-540 1296.71,-512.44 1305.5,-494.93 1305.5,-451 1305.5,-451 1305.5,-451 1305.5,-377 1305.5,-336.82 1313.45,-290.87 1319.32,-262.39"/>
<polygon fill="#1414ce" stroke="#1414ce" points="1322.8,-262.89 1321.45,-252.38 1315.95,-261.43 1322.8,-262.89"/>
</a>
</g>
</g>
<!-- 25&#45;&gt;22 -->
<g id="edge56" class="edge">
<title>25&#45;&gt;22</title>
<g id="a_edge56"><a xlink:title="include">
<path fill="none" stroke="#1414ce" d="M1030.99,-576C1001.26,-528.41 912.94,-390.65 824.5,-288 815.91,-278.03 805.72,-267.83 796.46,-259.07"/>
<polygon fill="#1414ce" stroke="#1414ce" points="798.66,-256.34 788.95,-252.09 793.89,-261.46 798.66,-256.34"/>
</a>
</g>
</g>
<!-- 27 -->
<g id="node28" class="node">
<title>27</title>
<g id="a_node28"><a xlink:title="ets.h">
<polygon fill="#ffffff" stroke="black" points="1123.5,-540 1069.5,-540 1069.5,-504 1123.5,-504 1123.5,-540"/>
<text text-anchor="middle" x="1096.5" y="-518.3" font-family="Times,serif" font-size="14.00">ets.h</text>
</a>
</g>
</g>
<!-- 25&#45;&gt;27 -->
<g id="edge54" class="edge">
<title>25&#45;&gt;27</title>
<g id="a_edge54"><a xlink:title="include">
<path fill="none" stroke="#1414ce" d="M1055.1,-575.7C1061.62,-567.39 1069.57,-557.28 1076.75,-548.14"/>
<polygon fill="#1414ce" stroke="#1414ce" points="1079.63,-550.13 1083.06,-540.1 1074.13,-545.81 1079.63,-550.13"/>
</a>
</g>
</g>
<!-- 24&#45;&gt;5 -->
<g id="edge62" class="edge">
<title>24&#45;&gt;5</title>
<g id="a_edge62"><a xlink:title="include">
<path fill="none" stroke="#1414ce" d="M1146.35,-144.76C1128.74,-135.28 1106.28,-123.19 1087.12,-112.87"/>
<polygon fill="#1414ce" stroke="#1414ce" points="1088.77,-109.78 1078.3,-108.12 1085.45,-115.95 1088.77,-109.78"/>
</a>
</g>
</g>
<!-- 28&#45;&gt;5 -->
<g id="edge63" class="edge">
<title>28&#45;&gt;5</title>
<g id="a_edge63"><a xlink:title="include">
<path fill="none" stroke="#1414ce" d="M1308.7,-215.95C1288.31,-196.12 1252.09,-163.61 1215.5,-144 1178.38,-124.1 1132.6,-110.32 1098.05,-101.81"/>
<polygon fill="#1414ce" stroke="#1414ce" points="1098.71,-98.37 1088.17,-99.44 1097.08,-105.18 1098.71,-98.37"/>
</a>
</g>
</g>
<!-- 28&#45;&gt;20 -->
<g id="edge65" class="edge">
<title>28&#45;&gt;20</title>
<g id="a_edge65"><a xlink:title="include">
<path fill="none" stroke="#1414ce" d="M1276.49,-221.56C1240.37,-212.6 1190.03,-199 1138.46,-180.07"/>
<polygon fill="#1414ce" stroke="#1414ce" points="1139.41,-176.69 1128.81,-176.47 1136.96,-183.25 1139.41,-176.69"/>
</a>
</g>
</g>
<!-- 28&#45;&gt;6 -->
<g id="edge64" class="edge">
<title>28&#45;&gt;6</title>
<g id="a_edge64"><a xlink:title="include">
<path fill="none" stroke="#1414ce" d="M1315.37,-215.93C1303.06,-196.39 1280.66,-164.46 1254.5,-144 1194.03,-96.71 1171.21,-93.43 1097.5,-72 977.41,-37.09 829.56,-24.99 755.86,-20.94"/>
<polygon fill="#1414ce" stroke="#1414ce" points="755.71,-17.42 745.54,-20.4 755.34,-24.41 755.71,-17.42"/>
</a>
</g>
</g>
<!-- 22&#45;&gt;5 -->
<g id="edge66" class="edge">
<title>22&#45;&gt;5</title>
<g id="a_edge66"><a xlink:title="include">
<path fill="none" stroke="#1414ce" d="M812.69,-225.56C849.87,-217.9 904.07,-203.69 946.5,-180 962.71,-170.95 997.61,-138.55 1021.58,-115.46"/>
<polygon fill="#1414ce" stroke="#1414ce" points="1024.19,-117.8 1028.94,-108.33 1019.32,-112.78 1024.19,-117.8"/>
</a>
</g>
</g>
<!-- 22&#45;&gt;17 -->
<g id="edge69" class="edge">
<title>22&#45;&gt;17</title>
<g id="a_edge69"><a xlink:title="include">
<path fill="none" stroke="#1414ce" d="M726.43,-217.49C700.39,-207.99 666.33,-195.33 628.57,-180.35"/>
<polygon fill="#1414ce" stroke="#1414ce" points="629.47,-176.95 618.89,-176.5 626.88,-183.45 629.47,-176.95"/>
</a>
</g>
</g>
<!-- 22&#45;&gt;20 -->
<g id="edge67" class="edge">
<title>22&#45;&gt;20</title>
<g id="a_edge67"><a xlink:title="include">
<path fill="none" stroke="#1414ce" d="M812.56,-223.92C878.24,-210.07 1002.34,-183.91 1064.32,-170.84"/>
<polygon fill="#1414ce" stroke="#1414ce" points="1065.36,-174.2 1074.43,-168.71 1063.92,-167.35 1065.36,-174.2"/>
</a>
</g>
</g>
<!-- 22&#45;&gt;13 -->
<g id="edge68" class="edge">
<title>22&#45;&gt;13</title>
<g id="a_edge68"><a xlink:title="include">
<path fill="none" stroke="#1414ce" d="M726.22,-218.73C722.94,-217.77 719.67,-216.85 716.5,-216 642.29,-196.25 622.6,-196.07 547.5,-180 427.82,-154.39 288.71,-124.45 206.06,-106.64"/>
<polygon fill="#1414ce" stroke="#1414ce" points="206.78,-103.22 196.27,-104.53 205.3,-110.06 206.78,-103.22"/>
</a>
</g>
</g>
<!-- 27&#45;&gt;23 -->
<g id="edge71" class="edge">
<title>27&#45;&gt;23</title>
<g id="a_edge71"><a xlink:title="include">
<path fill="none" stroke="#1414ce" d="M1096.8,-503.97C1097.63,-456.29 1099.99,-321.18 1101.02,-262.63"/>
<polygon fill="#1414ce" stroke="#1414ce" points="1104.52,-262.37 1101.2,-252.31 1097.52,-262.24 1104.52,-262.37"/>
</a>
</g>
</g>
<!-- 27&#45;&gt;20 -->
<g id="edge70" class="edge">
<title>27&#45;&gt;20</title>
<g id="a_edge70"><a xlink:title="include">
<path fill="none" stroke="#1414ce" d="M1101.73,-503.91C1104.8,-493.57 1108.62,-480.09 1111.5,-468 1134.17,-372.87 1144.12,-349.35 1153.5,-252 1155.03,-236.07 1159.55,-230.81 1153.5,-216 1149.01,-205.02 1141.03,-195.08 1132.65,-186.86"/>
<polygon fill="#1414ce" stroke="#1414ce" points="1134.99,-184.26 1125.25,-180.09 1130.26,-189.42 1134.99,-184.26"/>
</a>
</g>
</g>
<!-- 27&#45;&gt;3 -->
<g id="edge72" class="edge">
<title>27&#45;&gt;3</title>
<g id="a_edge72"><a xlink:title="include">
<path fill="none" stroke="#1414ce" d="M1069.46,-517.86C974.19,-506.78 653.54,-469.49 537.16,-455.96"/>
<polygon fill="#1414ce" stroke="#1414ce" points="537.53,-452.48 527.19,-454.8 536.72,-459.43 537.53,-452.48"/>
</a>
</g>
</g>
</g>
</svg>
