<?xml version="1.0" encoding="UTF-8" standalone="no"?>
<!DOCTYPE svg PUBLIC "-//W3C//DTD SVG 1.1//EN"
 "http://www.w3.org/Graphics/SVG/1.1/DTD/svg11.dtd">
<!-- Generated by graphviz version 2.43.0 (0)
 -->
<!-- Title: %3 Pages: 1 -->
<svg width="1524pt" height="836pt"
 viewBox="0.00 0.00 1523.50 836.00" xmlns="http://www.w3.org/2000/svg" xmlns:xlink="http://www.w3.org/1999/xlink">
<g id="graph0" class="graph" transform="scale(1 1) rotate(0) translate(4 832)">
<title>%3</title>
<polygon fill="transparent" stroke="transparent" points="-4,4 -4,-832 1519.5,-832 1519.5,4 -4,4"/>
<!-- 9 -->
<g id="node1" class="node">
<title>9</title>
<g id="a_node1"><a xlink:title="stdbool.h">
<polygon fill="#ffffff" stroke="black" points="610.5,-108 527.5,-108 527.5,-72 610.5,-72 610.5,-108"/>
<text text-anchor="middle" x="569" y="-86.3" font-family="Times,serif" font-size="14.00">stdbool.h</text>
</a>
</g>
</g>
<!-- 2 -->
<g id="node2" class="node">
<title>2</title>
<g id="a_node2"><a xlink:title="interop.h">
<polygon fill="#ffffff" stroke="black" points="1229,-756 1147,-756 1147,-720 1229,-720 1229,-756"/>
<text text-anchor="middle" x="1188" y="-734.3" font-family="Times,serif" font-size="14.00">interop.h</text>
</a>
</g>
</g>
<!-- 3 -->
<g id="node11" class="node">
<title>3</title>
<g id="a_node11"><a xlink:title="context.h">
<polygon fill="#ffffff" stroke="black" points="451.5,-684 368.5,-684 368.5,-648 451.5,-648 451.5,-684"/>
<text text-anchor="middle" x="410" y="-662.3" font-family="Times,serif" font-size="14.00">context.h</text>
</a>
</g>
</g>
<!-- 2&#45;&gt;3 -->
<g id="edge1" class="edge">
<title>2&#45;&gt;3</title>
<g id="a_edge1"><a xlink:title="include">
<path fill="none" stroke="#1414ce" d="M1146.99,-733.31C1015.85,-721.51 606.78,-684.7 461.68,-671.65"/>
<polygon fill="#1414ce" stroke="#1414ce" points="461.97,-668.16 451.7,-670.75 461.34,-675.13 461.97,-668.16"/>
</a>
</g>
</g>
<!-- 20 -->
<g id="node15" class="node">
<title>20</title>
<g id="a_node15"><a xlink:title="term.h">
<polygon fill="#ffffff" stroke="black" points="1111.5,-468 1046.5,-468 1046.5,-432 1111.5,-432 1111.5,-468"/>
<text text-anchor="middle" x="1079" y="-446.3" font-family="Times,serif" font-size="14.00">term.h</text>
</a>
</g>
</g>
<!-- 2&#45;&gt;20 -->
<g id="edge2" class="edge">
<title>2&#45;&gt;20</title>
<g id="a_edge2"><a xlink:title="include">
<path fill="none" stroke="#1414ce" d="M1181.51,-719.97C1163.26,-672.09 1111.42,-536.06 1089.25,-477.9"/>
<polygon fill="#1414ce" stroke="#1414ce" points="1092.43,-476.4 1085.6,-468.31 1085.89,-478.9 1092.43,-476.4"/>
</a>
</g>
</g>
<!-- 26 -->
<g id="node3" class="node">
<title>26</title>
<g id="a_node3"><a xlink:title="refc_binary.h">
<polygon fill="#ffffff" stroke="black" points="926,-396 818,-396 818,-360 926,-360 926,-396"/>
<text text-anchor="middle" x="872" y="-374.3" font-family="Times,serif" font-size="14.00">refc_binary.h</text>
</a>
</g>
</g>
<!-- 26&#45;&gt;9 -->
<g id="edge3" class="edge">
<title>26&#45;&gt;9</title>
<g id="a_edge3"><a xlink:title="include">
<path fill="none" stroke="#1414ce" d="M845.29,-359.87C832.71,-350.6 818.44,-338.15 809,-324 781.08,-282.13 802.22,-258.33 775,-216 749.13,-175.77 735.39,-169.63 695,-144 671.84,-129.3 643.91,-117.07 620.24,-108.08"/>
<polygon fill="#1414ce" stroke="#1414ce" points="621.31,-104.75 610.72,-104.55 618.88,-111.31 621.31,-104.75"/>
</a>
</g>
</g>
<!-- 16 -->
<g id="node8" class="node">
<title>16</title>
<g id="a_node8"><a xlink:title="list.h">
<polygon fill="#ffffff" stroke="black" points="437,-180 383,-180 383,-144 437,-144 437,-180"/>
<text text-anchor="middle" x="410" y="-158.3" font-family="Times,serif" font-size="14.00">list.h</text>
</a>
</g>
</g>
<!-- 26&#45;&gt;16 -->
<g id="edge5" class="edge">
<title>26&#45;&gt;16</title>
<g id="a_edge5"><a xlink:title="include">
<path fill="none" stroke="#1414ce" d="M817.75,-372.98C733.33,-364.19 569.12,-336.69 462,-252 441.7,-235.95 427.75,-209.65 419.44,-189.79"/>
<polygon fill="#1414ce" stroke="#1414ce" points="422.65,-188.37 415.71,-180.35 416.14,-190.94 422.65,-188.37"/>
</a>
</g>
</g>
<!-- 7 -->
<g id="node10" class="node">
<title>7</title>
<g id="a_node10"><a xlink:title="stdlib.h">
<polygon fill="#ffffff" stroke="black" points="1012.5,-108 941.5,-108 941.5,-72 1012.5,-72 1012.5,-108"/>
<text text-anchor="middle" x="977" y="-86.3" font-family="Times,serif" font-size="14.00">stdlib.h</text>
</a>
</g>
</g>
<!-- 26&#45;&gt;7 -->
<g id="edge4" class="edge">
<title>26&#45;&gt;7</title>
<g id="a_edge4"><a xlink:title="include">
<path fill="none" stroke="#1414ce" d="M895.54,-359.8C906.72,-350.43 919.29,-337.92 927,-324 966.63,-252.48 947.53,-223.87 965,-144 966.84,-135.58 968.9,-126.41 970.78,-118.11"/>
<polygon fill="#1414ce" stroke="#1414ce" points="974.24,-118.7 973.05,-108.17 967.41,-117.14 974.24,-118.7"/>
</a>
</g>
</g>
<!-- 27 -->
<g id="node13" class="node">
<title>27</title>
<g id="a_node13"><a xlink:title="resources.h">
<polygon fill="#ffffff" stroke="black" points="918,-324 818,-324 818,-288 918,-288 918,-324"/>
<text text-anchor="middle" x="868" y="-302.3" font-family="Times,serif" font-size="14.00">resources.h</text>
</a>
</g>
</g>
<!-- 26&#45;&gt;27 -->
<g id="edge6" class="edge">
<title>26&#45;&gt;27</title>
<g id="a_edge6"><a xlink:title="include">
<path fill="none" stroke="#1414ce" d="M871.01,-359.7C870.57,-351.98 870.04,-342.71 869.55,-334.11"/>
<polygon fill="#1414ce" stroke="#1414ce" points="873.04,-333.89 868.98,-324.1 866.05,-334.29 873.04,-333.89"/>
</a>
</g>
</g>
<!-- 6 -->
<g id="node4" class="node">
<title>6</title>
<g id="a_node4"><a xlink:title="atom.h">
<polygon fill="#ffffff" stroke="black" points="842,-180 776,-180 776,-144 842,-144 842,-180"/>
<text text-anchor="middle" x="809" y="-158.3" font-family="Times,serif" font-size="14.00">atom.h</text>
</a>
</g>
</g>
<!-- 5 -->
<g id="node9" class="node">
<title>5</title>
<g id="a_node9"><a xlink:title="stdint.h">
<polygon fill="#ffffff" stroke="black" points="998,-36 926,-36 926,0 998,0 998,-36"/>
<text text-anchor="middle" x="962" y="-14.3" font-family="Times,serif" font-size="14.00">stdint.h</text>
</a>
</g>
</g>
<!-- 6&#45;&gt;5 -->
<g id="edge7" class="edge">
<title>6&#45;&gt;5</title>
<g id="a_edge7"><a xlink:title="include">
<path fill="none" stroke="#1414ce" d="M812.85,-143.87C818.05,-124.28 829.04,-92.29 849,-72 867.34,-53.37 893.49,-40.52 916.01,-32.15"/>
<polygon fill="#1414ce" stroke="#1414ce" points="917.47,-35.35 925.74,-28.73 915.14,-28.75 917.47,-35.35"/>
</a>
</g>
</g>
<!-- 6&#45;&gt;7 -->
<g id="edge8" class="edge">
<title>6&#45;&gt;7</title>
<g id="a_edge8"><a xlink:title="include">
<path fill="none" stroke="#1414ce" d="M842.19,-147.17C867.88,-136.47 903.72,-121.53 931.99,-109.75"/>
<polygon fill="#1414ce" stroke="#1414ce" points="933.38,-112.97 941.26,-105.89 930.69,-106.51 933.38,-112.97"/>
</a>
</g>
</g>
<!-- 12 -->
<g id="node5" class="node">
<title>12</title>
<g id="a_node5"><a xlink:title="assert.h">
<polygon fill="#ffffff" stroke="black" points="1344,-36 1270,-36 1270,0 1344,0 1344,-36"/>
<text text-anchor="middle" x="1307" y="-14.3" font-family="Times,serif" font-size="14.00">assert.h</text>
</a>
</g>
</g>
<!-- 24 -->
<g id="node6" class="node">
<title>24</title>
<g id="a_node6"><a xlink:title="utils.h">
<polygon fill="#ffffff" stroke="black" points="1036,-180 974,-180 974,-144 1036,-144 1036,-180"/>
<text text-anchor="middle" x="1005" y="-158.3" font-family="Times,serif" font-size="14.00">utils.h</text>
</a>
</g>
</g>
<!-- 24&#45;&gt;7 -->
<g id="edge11" class="edge">
<title>24&#45;&gt;7</title>
<g id="a_edge11"><a xlink:title="include">
<path fill="none" stroke="#1414ce" d="M998.08,-143.7C994.93,-135.81 991.12,-126.3 987.62,-117.55"/>
<polygon fill="#1414ce" stroke="#1414ce" points="990.81,-116.09 983.84,-108.1 984.31,-118.69 990.81,-116.09"/>
</a>
</g>
</g>
<!-- 25 -->
<g id="node16" class="node">
<title>25</title>
<g id="a_node16"><a xlink:title="stddef.h">
<polygon fill="#ffffff" stroke="black" points="1105,-108 1031,-108 1031,-72 1105,-72 1105,-108"/>
<text text-anchor="middle" x="1068" y="-86.3" font-family="Times,serif" font-size="14.00">stddef.h</text>
</a>
</g>
</g>
<!-- 24&#45;&gt;25 -->
<g id="edge9" class="edge">
<title>24&#45;&gt;25</title>
<g id="a_edge9"><a xlink:title="include">
<path fill="none" stroke="#1414ce" d="M1020.57,-143.7C1028.2,-135.22 1037.52,-124.86 1045.88,-115.58"/>
<polygon fill="#1414ce" stroke="#1414ce" points="1048.52,-117.88 1052.61,-108.1 1043.31,-113.2 1048.52,-117.88"/>
</a>
</g>
</g>
<!-- 18 -->
<g id="node27" class="node">
<title>18</title>
<g id="a_node27"><a xlink:title="stdio.h">
<polygon fill="#ffffff" stroke="black" points="923.5,-108 858.5,-108 858.5,-72 923.5,-72 923.5,-108"/>
<text text-anchor="middle" x="891" y="-86.3" font-family="Times,serif" font-size="14.00">stdio.h</text>
</a>
</g>
</g>
<!-- 24&#45;&gt;18 -->
<g id="edge10" class="edge">
<title>24&#45;&gt;18</title>
<g id="a_edge10"><a xlink:title="include">
<path fill="none" stroke="#1414ce" d="M977.11,-143.88C962.21,-134.72 943.67,-123.34 927.62,-113.48"/>
<polygon fill="#1414ce" stroke="#1414ce" points="929.35,-110.44 918.99,-108.19 925.69,-116.41 929.35,-110.44"/>
</a>
</g>
</g>
<!-- 17 -->
<g id="node7" class="node">
<title>17</title>
<g id="a_node7"><a xlink:title="synclist.h">
<polygon fill="#ffffff" stroke="black" points="381.5,-252 296.5,-252 296.5,-216 381.5,-216 381.5,-252"/>
<text text-anchor="middle" x="339" y="-230.3" font-family="Times,serif" font-size="14.00">synclist.h</text>
</a>
</g>
</g>
<!-- 17&#45;&gt;16 -->
<g id="edge13" class="edge">
<title>17&#45;&gt;16</title>
<g id="a_edge13"><a xlink:title="include">
<path fill="none" stroke="#1414ce" d="M356.55,-215.7C365.23,-207.14 375.86,-196.66 385.35,-187.3"/>
<polygon fill="#1414ce" stroke="#1414ce" points="387.99,-189.62 392.65,-180.1 383.07,-184.63 387.99,-189.62"/>
</a>
</g>
</g>
<!-- 19 -->
<g id="node24" class="node">
<title>19</title>
<g id="a_node24"><a xlink:title="smp.h">
<polygon fill="#ffffff" stroke="black" points="207,-180 147,-180 147,-144 207,-144 207,-180"/>
<text text-anchor="middle" x="177" y="-158.3" font-family="Times,serif" font-size="14.00">smp.h</text>
</a>
</g>
</g>
<!-- 17&#45;&gt;19 -->
<g id="edge14" class="edge">
<title>17&#45;&gt;19</title>
<g id="a_edge14"><a xlink:title="include">
<path fill="none" stroke="#1414ce" d="M299.37,-215.88C274.12,-204.97 241.54,-190.89 216.34,-180"/>
<polygon fill="#1414ce" stroke="#1414ce" points="217.65,-176.75 207.08,-176 214.87,-183.18 217.65,-176.75"/>
</a>
</g>
</g>
<!-- 17&#45;&gt;18 -->
<g id="edge12" class="edge">
<title>17&#45;&gt;18</title>
<g id="a_edge12"><a xlink:title="include">
<path fill="none" stroke="#1414ce" d="M381.86,-221.98C484.94,-195.46 745.8,-128.35 848.51,-101.93"/>
<polygon fill="#1414ce" stroke="#1414ce" points="849.42,-105.31 858.24,-99.43 847.68,-98.53 849.42,-105.31"/>
</a>
</g>
</g>
<!-- 16&#45;&gt;9 -->
<g id="edge15" class="edge">
<title>16&#45;&gt;9</title>
<g id="a_edge15"><a xlink:title="include">
<path fill="none" stroke="#1414ce" d="M437.33,-148.97C460.21,-138.9 493.4,-124.28 520.73,-112.25"/>
<polygon fill="#1414ce" stroke="#1414ce" points="522.39,-115.35 530.13,-108.11 519.57,-108.94 522.39,-115.35"/>
</a>
</g>
</g>
<!-- 3&#45;&gt;16 -->
<g id="edge17" class="edge">
<title>3&#45;&gt;16</title>
<g id="a_edge17"><a xlink:title="include">
<path fill="none" stroke="#1414ce" d="M368.22,-663.63C286.63,-658.48 114,-634.43 114,-523 114,-523 114,-523 114,-449 114,-325.6 168.51,-292.93 265,-216 282,-202.45 335.69,-184.78 372.74,-173.66"/>
<polygon fill="#1414ce" stroke="#1414ce" points="374.11,-176.91 382.71,-170.71 372.12,-170.2 374.11,-176.91"/>
</a>
</g>
</g>
<!-- 3&#45;&gt;20 -->
<g id="edge20" class="edge">
<title>3&#45;&gt;20</title>
<g id="a_edge20"><a xlink:title="include">
<path fill="none" stroke="#1414ce" d="M451.72,-661.6C513.27,-655.78 631.55,-641.58 728,-612 846.52,-575.65 976.94,-507.82 1040.25,-472.94"/>
<polygon fill="#1414ce" stroke="#1414ce" points="1042.04,-475.95 1049.09,-468.05 1038.65,-469.83 1042.04,-475.95"/>
</a>
</g>
</g>
<!-- 4 -->
<g id="node23" class="node">
<title>4</title>
<g id="a_node23"><a xlink:title="globalcontext.h">
<polygon fill="#ffffff" stroke="black" points="473.5,-612 346.5,-612 346.5,-576 473.5,-576 473.5,-612"/>
<text text-anchor="middle" x="410" y="-590.3" font-family="Times,serif" font-size="14.00">globalcontext.h</text>
</a>
</g>
</g>
<!-- 3&#45;&gt;4 -->
<g id="edge16" class="edge">
<title>3&#45;&gt;4</title>
<g id="a_edge16"><a xlink:title="include">
<path fill="none" stroke="#1414ce" d="M410,-647.7C410,-639.98 410,-630.71 410,-622.11"/>
<polygon fill="#1414ce" stroke="#1414ce" points="413.5,-622.1 410,-612.1 406.5,-622.1 413.5,-622.1"/>
</a>
</g>
</g>
<!-- 3&#45;&gt;19 -->
<g id="edge19" class="edge">
<title>3&#45;&gt;19</title>
<g id="a_edge19"><a xlink:title="include">
<path fill="none" stroke="#1414ce" d="M368.28,-662.09C289.79,-656.02 123.61,-640.19 74,-612 29.28,-586.58 0,-574.44 0,-523 0,-523 0,-523 0,-305 0,-235.05 85.15,-193.82 137.33,-175.12"/>
<polygon fill="#1414ce" stroke="#1414ce" points="138.67,-178.36 146.97,-171.79 136.38,-171.75 138.67,-178.36"/>
</a>
</g>
</g>
<!-- 29 -->
<g id="node25" class="node">
<title>29</title>
<g id="a_node25"><a xlink:title="timer_list.h">
<polygon fill="#ffffff" stroke="black" points="202,-252 104,-252 104,-216 202,-216 202,-252"/>
<text text-anchor="middle" x="153" y="-230.3" font-family="Times,serif" font-size="14.00">timer_list.h</text>
</a>
</g>
</g>
<!-- 3&#45;&gt;29 -->
<g id="edge21" class="edge">
<title>3&#45;&gt;29</title>
<g id="a_edge21"><a xlink:title="include">
<path fill="none" stroke="#1414ce" d="M368.24,-663.3C292.95,-659.39 138.66,-647.19 100,-612 69.7,-584.42 76,-563.97 76,-523 76,-523 76,-523 76,-377 76,-331.51 106.92,-286.65 129.57,-259.89"/>
<polygon fill="#1414ce" stroke="#1414ce" points="132.36,-262.02 136.29,-252.19 127.08,-257.42 132.36,-262.02"/>
</a>
</g>
</g>
<!-- 28 -->
<g id="node26" class="node">
<title>28</title>
<g id="a_node26"><a xlink:title="mailbox.h">
<polygon fill="#ffffff" stroke="black" points="766,-252 680,-252 680,-216 766,-216 766,-252"/>
<text text-anchor="middle" x="723" y="-230.3" font-family="Times,serif" font-size="14.00">mailbox.h</text>
</a>
</g>
</g>
<!-- 3&#45;&gt;28 -->
<g id="edge18" class="edge">
<title>3&#45;&gt;28</title>
<g id="a_edge18"><a xlink:title="include">
<path fill="none" stroke="#1414ce" d="M451.63,-664.1C534.89,-659.87 714,-637.46 714,-523 714,-523 714,-523 714,-377 714,-336.92 717.62,-290.59 720.26,-262.05"/>
<polygon fill="#1414ce" stroke="#1414ce" points="723.75,-262.31 721.22,-252.03 716.79,-261.65 723.75,-262.31"/>
</a>
</g>
</g>
<!-- 23 -->
<g id="node12" class="node">
<title>23</title>
<g id="a_node12"><a xlink:title="memory.h">
<polygon fill="#ffffff" stroke="black" points="1257,-252 1171,-252 1171,-216 1257,-216 1257,-252"/>
<text text-anchor="middle" x="1214" y="-230.3" font-family="Times,serif" font-size="14.00">memory.h</text>
</a>
</g>
</g>
<!-- 23&#45;&gt;24 -->
<g id="edge26" class="edge">
<title>23&#45;&gt;24</title>
<g id="a_edge26"><a xlink:title="include">
<path fill="none" stroke="#1414ce" d="M1170.95,-218.58C1134.25,-206.29 1081.87,-188.74 1045.82,-176.67"/>
<polygon fill="#1414ce" stroke="#1414ce" points="1046.71,-173.28 1036.11,-173.42 1044.48,-179.92 1046.71,-173.28"/>
</a>
</g>
</g>
<!-- 23&#45;&gt;5 -->
<g id="edge22" class="edge">
<title>23&#45;&gt;5</title>
<g id="a_edge22"><a xlink:title="include">
<path fill="none" stroke="#1414ce" d="M1212.63,-215.87C1209.06,-183.02 1196.56,-110.99 1154,-72 1114.08,-35.42 1051.16,-23.76 1008.31,-20.22"/>
<polygon fill="#1414ce" stroke="#1414ce" points="1008.37,-16.72 998.15,-19.5 1007.87,-23.7 1008.37,-16.72"/>
</a>
</g>
</g>
<!-- 23&#45;&gt;7 -->
<g id="edge23" class="edge">
<title>23&#45;&gt;7</title>
<g id="a_edge23"><a xlink:title="include">
<path fill="none" stroke="#1414ce" d="M1189.39,-215.86C1162.49,-197.38 1117.9,-167.45 1078,-144 1059.54,-133.15 1038.65,-122.01 1020.68,-112.76"/>
<polygon fill="#1414ce" stroke="#1414ce" points="1022.07,-109.54 1011.58,-108.1 1018.89,-115.77 1022.07,-109.54"/>
</a>
</g>
</g>
<!-- 10 -->
<g id="node17" class="node">
<title>10</title>
<g id="a_node17"><a xlink:title="erl_nif.h">
<polygon fill="#ffffff" stroke="black" points="1356,-180 1282,-180 1282,-144 1356,-144 1356,-180"/>
<text text-anchor="middle" x="1319" y="-158.3" font-family="Times,serif" font-size="14.00">erl_nif.h</text>
</a>
</g>
</g>
<!-- 23&#45;&gt;10 -->
<g id="edge24" class="edge">
<title>23&#45;&gt;10</title>
<g id="a_edge24"><a xlink:title="include">
<path fill="none" stroke="#1414ce" d="M1239.69,-215.88C1253.29,-206.81 1270.17,-195.55 1284.86,-185.76"/>
<polygon fill="#1414ce" stroke="#1414ce" points="1286.84,-188.65 1293.22,-180.19 1282.95,-182.82 1286.84,-188.65"/>
</a>
</g>
</g>
<!-- 11 -->
<g id="node22" class="node">
<title>11</title>
<g id="a_node22"><a xlink:title="term_typedef.h">
<polygon fill="#ffffff" stroke="black" points="1369.5,-108 1244.5,-108 1244.5,-72 1369.5,-72 1369.5,-108"/>
<text text-anchor="middle" x="1307" y="-86.3" font-family="Times,serif" font-size="14.00">term_typedef.h</text>
</a>
</g>
</g>
<!-- 23&#45;&gt;11 -->
<g id="edge25" class="edge">
<title>23&#45;&gt;11</title>
<g id="a_edge25"><a xlink:title="include">
<path fill="none" stroke="#1414ce" d="M1225.22,-215.87C1241.35,-191.24 1271.22,-145.64 1290.05,-116.88"/>
<polygon fill="#1414ce" stroke="#1414ce" points="1293.19,-118.47 1295.74,-108.19 1287.34,-114.64 1293.19,-118.47"/>
</a>
</g>
</g>
<!-- 27&#45;&gt;17 -->
<g id="edge32" class="edge">
<title>27&#45;&gt;17</title>
<g id="a_edge32"><a xlink:title="include">
<path fill="none" stroke="#1414ce" d="M817.76,-298.35C717.65,-285.1 494.15,-255.53 391.9,-242"/>
<polygon fill="#1414ce" stroke="#1414ce" points="392.18,-238.51 381.8,-240.66 391.26,-245.45 392.18,-238.51"/>
</a>
</g>
</g>
<!-- 27&#45;&gt;16 -->
<g id="edge29" class="edge">
<title>27&#45;&gt;16</title>
<g id="a_edge29"><a xlink:title="include">
<path fill="none" stroke="#1414ce" d="M817.91,-301.4C731.69,-294.6 559.3,-278.15 505,-252 496.65,-247.98 460,-212.57 434.74,-187.65"/>
<polygon fill="#1414ce" stroke="#1414ce" points="436.88,-184.84 427.31,-180.3 431.96,-189.82 436.88,-184.84"/>
</a>
</g>
</g>
<!-- 27&#45;&gt;7 -->
<g id="edge27" class="edge">
<title>27&#45;&gt;7</title>
<g id="a_edge27"><a xlink:title="include">
<path fill="none" stroke="#1414ce" d="M872.84,-287.7C881.79,-257.26 902.72,-192.73 932,-144 937.94,-134.12 945.71,-124.24 953.11,-115.73"/>
<polygon fill="#1414ce" stroke="#1414ce" points="955.95,-117.81 960.03,-108.04 950.74,-113.13 955.95,-117.81"/>
</a>
</g>
</g>
<!-- 27&#45;&gt;23 -->
<g id="edge31" class="edge">
<title>27&#45;&gt;23</title>
<g id="a_edge31"><a xlink:title="include">
<path fill="none" stroke="#1414ce" d="M918.31,-294.82C982.89,-281.76 1094.47,-259.18 1160.54,-245.82"/>
<polygon fill="#1414ce" stroke="#1414ce" points="1161.63,-249.17 1170.74,-243.75 1160.24,-242.31 1161.63,-249.17"/>
</a>
</g>
</g>
<!-- 27&#45;&gt;10 -->
<g id="edge28" class="edge">
<title>27&#45;&gt;10</title>
<g id="a_edge28"><a xlink:title="include">
<path fill="none" stroke="#1414ce" d="M918.42,-289.12C1006.42,-261.42 1186.79,-204.63 1272.19,-177.74"/>
<polygon fill="#1414ce" stroke="#1414ce" points="1273.39,-181.03 1281.87,-174.69 1271.28,-174.35 1273.39,-181.03"/>
</a>
</g>
</g>
<!-- 27&#45;&gt;28 -->
<g id="edge30" class="edge">
<title>27&#45;&gt;28</title>
<g id="a_edge30"><a xlink:title="include">
<path fill="none" stroke="#1414ce" d="M832.53,-287.88C812.88,-278.39 788.28,-266.51 767.37,-256.42"/>
<polygon fill="#1414ce" stroke="#1414ce" points="768.88,-253.26 758.36,-252.07 765.84,-259.57 768.88,-253.26"/>
</a>
</g>
</g>
<!-- 1 -->
<g id="node14" class="node">
<title>1</title>
<g id="a_node14"><a xlink:title="/__w/AtomVM/AtomVM/src/libAtomVM/inet.h">
<polygon fill="#bfbfbf" stroke="black" points="1515.5,-828 1180.5,-828 1180.5,-792 1515.5,-792 1515.5,-828"/>
<text text-anchor="middle" x="1348" y="-806.3" font-family="Times,serif" font-size="14.00">/__w/AtomVM/AtomVM/src/libAtomVM/inet.h</text>
</a>
</g>
</g>
<!-- 1&#45;&gt;2 -->
<g id="edge33" class="edge">
<title>1&#45;&gt;2</title>
<g id="a_edge33"><a xlink:title="include">
<path fill="none" stroke="#1414ce" d="M1308.86,-791.88C1286.99,-782.31 1259.54,-770.3 1236.34,-760.15"/>
<polygon fill="#1414ce" stroke="#1414ce" points="1237.58,-756.87 1227.01,-756.07 1234.77,-763.28 1237.58,-756.87"/>
</a>
</g>
</g>
<!-- 1&#45;&gt;23 -->
<g id="edge34" class="edge">
<title>1&#45;&gt;23</title>
<g id="a_edge34"><a xlink:title="include">
<path fill="none" stroke="#1414ce" d="M1363.41,-791.58C1384.29,-766.1 1419,-716.34 1419,-667 1419,-667 1419,-667 1419,-449 1419,-357.24 1319.51,-289.47 1259.15,-256.8"/>
<polygon fill="#1414ce" stroke="#1414ce" points="1260.65,-253.64 1250.18,-252.05 1257.37,-259.82 1260.65,-253.64"/>
</a>
</g>
</g>
<!-- 20&#45;&gt;9 -->
<g id="edge36" class="edge">
<title>20&#45;&gt;9</title>
<g id="a_edge36"><a xlink:title="include">
<path fill="none" stroke="#1414ce" d="M1046.11,-448.81C993.02,-447.19 886.54,-438.39 809,-396 689.71,-330.79 609.37,-178.91 580.69,-117.49"/>
<polygon fill="#1414ce" stroke="#1414ce" points="583.73,-115.73 576.38,-108.1 577.37,-118.65 583.73,-115.73"/>
</a>
</g>
</g>
<!-- 20&#45;&gt;26 -->
<g id="edge42" class="edge">
<title>20&#45;&gt;26</title>
<g id="a_edge42"><a xlink:title="include">
<path fill="none" stroke="#1414ce" d="M1046.2,-437.91C1015.64,-427.57 969.34,-411.92 932.14,-399.34"/>
<polygon fill="#1414ce" stroke="#1414ce" points="933,-395.93 922.41,-396.05 930.76,-402.57 933,-395.93"/>
</a>
</g>
</g>
<!-- 20&#45;&gt;24 -->
<g id="edge43" class="edge">
<title>20&#45;&gt;24</title>
<g id="a_edge43"><a xlink:title="include">
<path fill="none" stroke="#1414ce" d="M1074.59,-431.97C1062.23,-384.19 1027.15,-248.62 1012.05,-190.27"/>
<polygon fill="#1414ce" stroke="#1414ce" points="1015.37,-189.11 1009.48,-180.31 1008.59,-190.86 1015.37,-189.11"/>
</a>
</g>
</g>
<!-- 20&#45;&gt;5 -->
<g id="edge37" class="edge">
<title>20&#45;&gt;5</title>
<g id="a_edge37"><a xlink:title="include">
<path fill="none" stroke="#1414ce" d="M1083.48,-431.78C1100.18,-365.93 1155.78,-130.81 1114,-72 1090.21,-38.51 1043.63,-26.01 1008.27,-21.43"/>
<polygon fill="#1414ce" stroke="#1414ce" points="1008.49,-17.93 998.16,-20.29 1007.71,-24.89 1008.49,-17.93"/>
</a>
</g>
</g>
<!-- 20&#45;&gt;7 -->
<g id="edge39" class="edge">
<title>20&#45;&gt;7</title>
<g id="a_edge39"><a xlink:title="include">
<path fill="none" stroke="#1414ce" d="M1081.61,-431.69C1088.1,-382.7 1100.65,-240.45 1045,-144 1038.2,-132.22 1027.67,-122.13 1016.9,-114.01"/>
<polygon fill="#1414ce" stroke="#1414ce" points="1018.87,-111.11 1008.68,-108.19 1014.82,-116.82 1018.87,-111.11"/>
</a>
</g>
</g>
<!-- 20&#45;&gt;23 -->
<g id="edge41" class="edge">
<title>20&#45;&gt;23</title>
<g id="a_edge41"><a xlink:title="include">
<path fill="none" stroke="#1414ce" d="M1089.82,-431.85C1113.47,-394.36 1169.87,-304.95 1197.79,-260.7"/>
<polygon fill="#1414ce" stroke="#1414ce" points="1200.75,-262.56 1203.13,-252.23 1194.83,-258.82 1200.75,-262.56"/>
</a>
</g>
</g>
<!-- 21 -->
<g id="node20" class="node">
<title>21</title>
<g id="a_node20"><a xlink:title="sys/types.h">
<polygon fill="#ffffff" stroke="black" points="1261.5,-396 1164.5,-396 1164.5,-360 1261.5,-360 1261.5,-396"/>
<text text-anchor="middle" x="1213" y="-374.3" font-family="Times,serif" font-size="14.00">sys/types.h</text>
</a>
</g>
</g>
<!-- 20&#45;&gt;21 -->
<g id="edge35" class="edge">
<title>20&#45;&gt;21</title>
<g id="a_edge35"><a xlink:title="include">
<path fill="none" stroke="#1414ce" d="M1111.78,-431.88C1129.63,-422.55 1151.9,-410.92 1171,-400.94"/>
<polygon fill="#1414ce" stroke="#1414ce" points="1172.85,-403.92 1180.09,-396.19 1169.61,-397.72 1172.85,-403.92"/>
</a>
</g>
</g>
<!-- 22 -->
<g id="node21" class="node">
<title>22</title>
<g id="a_node21"><a xlink:title="string.h">
<polygon fill="#ffffff" stroke="black" points="1352.5,-396 1279.5,-396 1279.5,-360 1352.5,-360 1352.5,-396"/>
<text text-anchor="middle" x="1316" y="-374.3" font-family="Times,serif" font-size="14.00">string.h</text>
</a>
</g>
</g>
<!-- 20&#45;&gt;22 -->
<g id="edge40" class="edge">
<title>20&#45;&gt;22</title>
<g id="a_edge40"><a xlink:title="include">
<path fill="none" stroke="#1414ce" d="M1111.54,-440.99C1148,-431.8 1209.01,-415.8 1269.55,-396.35"/>
<polygon fill="#1414ce" stroke="#1414ce" points="1270.83,-399.61 1279.26,-393.19 1268.67,-392.95 1270.83,-399.61"/>
</a>
</g>
</g>
<!-- 20&#45;&gt;11 -->
<g id="edge44" class="edge">
<title>20&#45;&gt;11</title>
<g id="a_edge44"><a xlink:title="include">
<path fill="none" stroke="#1414ce" d="M1111.66,-445.21C1182.64,-436.66 1345.92,-415.1 1362,-396 1434.14,-310.32 1410.18,-246.49 1365,-144 1360.01,-132.69 1351.29,-122.74 1342.1,-114.62"/>
<polygon fill="#1414ce" stroke="#1414ce" points="1344.28,-111.88 1334.34,-108.23 1339.83,-117.28 1344.28,-111.88"/>
</a>
</g>
</g>
<!-- 20&#45;&gt;18 -->
<g id="edge38" class="edge">
<title>20&#45;&gt;18</title>
<g id="a_edge38"><a xlink:title="include">
<path fill="none" stroke="#1414ce" d="M1048.54,-431.78C1034.63,-422.65 1018.86,-410.35 1008,-396 940.63,-307 907.7,-174.57 896.07,-118.1"/>
<polygon fill="#1414ce" stroke="#1414ce" points="899.47,-117.28 894.08,-108.16 892.61,-118.65 899.47,-117.28"/>
</a>
</g>
</g>
<!-- 10&#45;&gt;11 -->
<g id="edge45" class="edge">
<title>10&#45;&gt;11</title>
<g id="a_edge45"><a xlink:title="include">
<path fill="none" stroke="#1414ce" d="M1316.03,-143.7C1314.71,-135.98 1313.12,-126.71 1311.65,-118.11"/>
<polygon fill="#1414ce" stroke="#1414ce" points="1315.07,-117.37 1309.93,-108.1 1308.17,-118.55 1315.07,-117.37"/>
</a>
</g>
</g>
<!-- 13 -->
<g id="node18" class="node">
<title>13</title>
<g id="a_node18"><a xlink:title="limits.h">
<polygon fill="#ffffff" stroke="black" points="1433.5,-36 1362.5,-36 1362.5,0 1433.5,0 1433.5,-36"/>
<text text-anchor="middle" x="1398" y="-14.3" font-family="Times,serif" font-size="14.00">limits.h</text>
</a>
</g>
</g>
<!-- 8 -->
<g id="node19" class="node">
<title>8</title>
<g id="a_node19"><a xlink:title="atom_table.h">
<polygon fill="#ffffff" stroke="black" points="623.5,-252 514.5,-252 514.5,-216 623.5,-216 623.5,-252"/>
<text text-anchor="middle" x="569" y="-230.3" font-family="Times,serif" font-size="14.00">atom_table.h</text>
</a>
</g>
</g>
<!-- 8&#45;&gt;9 -->
<g id="edge46" class="edge">
<title>8&#45;&gt;9</title>
<g id="a_edge46"><a xlink:title="include">
<path fill="none" stroke="#1414ce" d="M569,-215.87C569,-191.67 569,-147.21 569,-118.39"/>
<polygon fill="#1414ce" stroke="#1414ce" points="572.5,-118.19 569,-108.19 565.5,-118.19 572.5,-118.19"/>
</a>
</g>
</g>
<!-- 8&#45;&gt;6 -->
<g id="edge47" class="edge">
<title>8&#45;&gt;6</title>
<g id="a_edge47"><a xlink:title="include">
<path fill="none" stroke="#1414ce" d="M623.76,-217.03C667,-204.42 726.46,-187.07 766.24,-175.47"/>
<polygon fill="#1414ce" stroke="#1414ce" points="767.29,-178.81 775.91,-172.65 765.33,-172.09 767.29,-178.81"/>
</a>
</g>
</g>
<!-- 11&#45;&gt;12 -->
<g id="edge48" class="edge">
<title>11&#45;&gt;12</title>
<g id="a_edge48"><a xlink:title="include">
<path fill="none" stroke="#1414ce" d="M1307,-71.7C1307,-63.98 1307,-54.71 1307,-46.11"/>
<polygon fill="#1414ce" stroke="#1414ce" points="1310.5,-46.1 1307,-36.1 1303.5,-46.1 1310.5,-46.1"/>
</a>
</g>
</g>
<!-- 11&#45;&gt;5 -->
<g id="edge51" class="edge">
<title>11&#45;&gt;5</title>
<g id="a_edge51"><a xlink:title="include">
<path fill="none" stroke="#1414ce" d="M1244.41,-75.06C1239.54,-74.01 1234.69,-72.98 1230,-72 1152.15,-55.71 1061.3,-38.02 1007.88,-27.75"/>
<polygon fill="#1414ce" stroke="#1414ce" points="1008.51,-24.31 998.03,-25.86 1007.19,-31.19 1008.51,-24.31"/>
</a>
</g>
</g>
<!-- 11&#45;&gt;13 -->
<g id="edge49" class="edge">
<title>11&#45;&gt;13</title>
<g id="a_edge49"><a xlink:title="include">
<path fill="none" stroke="#1414ce" d="M1329.49,-71.7C1340.96,-62.88 1355.06,-52.03 1367.48,-42.47"/>
<polygon fill="#1414ce" stroke="#1414ce" points="1369.97,-44.98 1375.76,-36.1 1365.7,-39.43 1369.97,-44.98"/>
</a>
</g>
</g>
<!-- 14 -->
<g id="node29" class="node">
<title>14</title>
<g id="a_node29"><a xlink:title="inttypes.h">
<polygon fill="#ffffff" stroke="black" points="1251.5,-36 1162.5,-36 1162.5,0 1251.5,0 1251.5,-36"/>
<text text-anchor="middle" x="1207" y="-14.3" font-family="Times,serif" font-size="14.00">inttypes.h</text>
</a>
</g>
</g>
<!-- 11&#45;&gt;14 -->
<g id="edge50" class="edge">
<title>11&#45;&gt;14</title>
<g id="a_edge50"><a xlink:title="include">
<path fill="none" stroke="#1414ce" d="M1282.54,-71.88C1269.7,-62.89 1253.8,-51.76 1239.91,-42.03"/>
<polygon fill="#1414ce" stroke="#1414ce" points="1241.76,-39.06 1231.56,-36.19 1237.74,-44.79 1241.76,-39.06"/>
</a>
</g>
</g>
<!-- 4&#45;&gt;6 -->
<g id="edge53" class="edge">
<title>4&#45;&gt;6</title>
<g id="a_edge53"><a xlink:title="include">
<path fill="none" stroke="#1414ce" d="M473.52,-588.63C525.14,-582.95 598.55,-569.9 656,-540 707.61,-513.14 752,-509.18 752,-451 752,-451 752,-451 752,-377 752,-340.12 784.01,-238.33 800.06,-189.63"/>
<polygon fill="#1414ce" stroke="#1414ce" points="803.4,-190.68 803.22,-180.09 796.75,-188.48 803.4,-190.68"/>
</a>
</g>
</g>
<!-- 4&#45;&gt;17 -->
<g id="edge60" class="edge">
<title>4&#45;&gt;17</title>
<g id="a_edge60"><a xlink:title="include">
<path fill="none" stroke="#1414ce" d="M393.51,-575.77C371.16,-550.53 334,-501.05 334,-451 334,-451 334,-451 334,-377 334,-336.97 336.01,-290.63 337.48,-262.07"/>
<polygon fill="#1414ce" stroke="#1414ce" points="340.98,-262.21 338.01,-252.04 333.99,-261.84 340.98,-262.21"/>
</a>
</g>
</g>
<!-- 4&#45;&gt;16 -->
<g id="edge57" class="edge">
<title>4&#45;&gt;16</title>
<g id="a_edge57"><a xlink:title="include">
<path fill="none" stroke="#1414ce" d="M373.06,-575.95C330.99,-553.69 268,-510.44 268,-451 268,-451 268,-451 268,-305 268,-264.55 261.34,-247.27 287,-216 298.46,-202.03 341.34,-185.49 373.27,-174.65"/>
<polygon fill="#1414ce" stroke="#1414ce" points="374.4,-177.96 382.78,-171.47 372.18,-171.32 374.4,-177.96"/>
</a>
</g>
</g>
<!-- 4&#45;&gt;5 -->
<g id="edge52" class="edge">
<title>4&#45;&gt;5</title>
<g id="a_edge52"><a xlink:title="include">
<path fill="none" stroke="#1414ce" d="M346.04,-591.01C299.74,-586.53 237.99,-573.96 195,-540 75.36,-445.5 38,-387.46 38,-235 38,-235 38,-235 38,-161 38,-71.2 728.59,-30.54 915.71,-21.17"/>
<polygon fill="#1414ce" stroke="#1414ce" points="915.96,-24.66 925.78,-20.67 915.62,-17.67 915.96,-24.66"/>
</a>
</g>
</g>
<!-- 4&#45;&gt;20 -->
<g id="edge61" class="edge">
<title>4&#45;&gt;20</title>
<g id="a_edge61"><a xlink:title="include">
<path fill="none" stroke="#1414ce" d="M473.79,-586.02C545.38,-577.61 664.76,-561.83 766,-540 864.14,-518.83 976.87,-484.16 1036.63,-464.94"/>
<polygon fill="#1414ce" stroke="#1414ce" points="1038.02,-468.17 1046.46,-461.76 1035.86,-461.51 1038.02,-468.17"/>
</a>
</g>
</g>
<!-- 4&#45;&gt;10 -->
<g id="edge55" class="edge">
<title>4&#45;&gt;10</title>
<g id="a_edge55"><a xlink:title="include">
<path fill="none" stroke="#1414ce" d="M473.84,-590.33C669.64,-580.61 1254.87,-539.81 1362,-396 1408.67,-333.35 1362.43,-235.42 1335.45,-189.04"/>
<polygon fill="#1414ce" stroke="#1414ce" points="1338.31,-187.01 1330.18,-180.21 1332.3,-190.6 1338.31,-187.01"/>
</a>
</g>
</g>
<!-- 4&#45;&gt;8 -->
<g id="edge54" class="edge">
<title>4&#45;&gt;8</title>
<g id="a_edge54"><a xlink:title="include">
<path fill="none" stroke="#1414ce" d="M438.26,-575.99C473.17,-552.59 528,-506.93 528,-451 528,-451 528,-451 528,-377 528,-335.41 544.44,-289.56 556.5,-261.51"/>
<polygon fill="#1414ce" stroke="#1414ce" points="559.85,-262.59 560.7,-252.03 553.45,-259.75 559.85,-262.59"/>
</a>
</g>
</g>
<!-- 4&#45;&gt;19 -->
<g id="edge59" class="edge">
<title>4&#45;&gt;19</title>
<g id="a_edge59"><a xlink:title="include">
<path fill="none" stroke="#1414ce" d="M346.41,-589.58C306.79,-584.22 257.37,-571.17 225,-540 164.36,-481.6 202.55,-435.84 166,-360 141.06,-308.25 111.47,-307.03 95,-252 90.41,-236.67 87.35,-230.05 95,-216 104.15,-199.2 121.16,-186.91 137.33,-178.42"/>
<polygon fill="#1414ce" stroke="#1414ce" points="139.24,-181.39 146.69,-173.86 136.17,-175.1 139.24,-181.39"/>
</a>
</g>
</g>
<!-- 4&#45;&gt;29 -->
<g id="edge62" class="edge">
<title>4&#45;&gt;29</title>
<g id="a_edge62"><a xlink:title="include">
<path fill="none" stroke="#1414ce" d="M346.22,-585.49C314.52,-578.59 277.97,-565.36 254,-540 196.97,-479.65 230.84,-438.57 204,-360 192.16,-325.34 175.77,-286.42 164.8,-261.36"/>
<polygon fill="#1414ce" stroke="#1414ce" points="167.98,-259.89 160.74,-252.15 161.57,-262.71 167.98,-259.89"/>
</a>
</g>
</g>
<!-- 4&#45;&gt;28 -->
<g id="edge58" class="edge">
<title>4&#45;&gt;28</title>
<g id="a_edge58"><a xlink:title="include">
<path fill="none" stroke="#1414ce" d="M473.71,-586.76C552.41,-575.14 676,-542.35 676,-451 676,-451 676,-451 676,-377 676,-334.96 694.8,-289.29 708.62,-261.41"/>
<polygon fill="#1414ce" stroke="#1414ce" points="711.83,-262.82 713.26,-252.32 705.6,-259.63 711.83,-262.82"/>
</a>
</g>
</g>
<!-- 15 -->
<g id="node28" class="node">
<title>15</title>
<g id="a_node28"><a xlink:title="ets.h">
<polygon fill="#ffffff" stroke="black" points="437,-540 383,-540 383,-504 437,-504 437,-540"/>
<text text-anchor="middle" x="410" y="-518.3" font-family="Times,serif" font-size="14.00">ets.h</text>
</a>
</g>
</g>
<!-- 4&#45;&gt;15 -->
<g id="edge56" class="edge">
<title>4&#45;&gt;15</title>
<g id="a_edge56"><a xlink:title="include">
<path fill="none" stroke="#1414ce" d="M410,-575.7C410,-567.98 410,-558.71 410,-550.11"/>
<polygon fill="#1414ce" stroke="#1414ce" points="413.5,-550.1 410,-540.1 406.5,-550.1 413.5,-550.1"/>
</a>
</g>
</g>
<!-- 19&#45;&gt;9 -->
<g id="edge63" class="edge">
<title>19&#45;&gt;9</title>
<g id="a_edge63"><a xlink:title="include">
<path fill="none" stroke="#1414ce" d="M207.11,-155.62C273.71,-143.73 434.19,-115.07 517.25,-100.24"/>
<polygon fill="#1414ce" stroke="#1414ce" points="518,-103.66 527.23,-98.46 516.77,-96.77 518,-103.66"/>
</a>
</g>
</g>
<!-- 29&#45;&gt;9 -->
<g id="edge64" class="edge">
<title>29&#45;&gt;9</title>
<g id="a_edge64"><a xlink:title="include">
<path fill="none" stroke="#1414ce" d="M198.2,-215.98C224.99,-205.78 259.53,-192.42 290,-180 327.61,-164.67 335.64,-157.36 374,-144 421.85,-127.34 477.77,-112.6 517.43,-102.93"/>
<polygon fill="#1414ce" stroke="#1414ce" points="518.51,-106.27 527.4,-100.52 516.86,-99.47 518.51,-106.27"/>
</a>
</g>
</g>
<!-- 29&#45;&gt;16 -->
<g id="edge66" class="edge">
<title>29&#45;&gt;16</title>
<g id="a_edge66"><a xlink:title="include">
<path fill="none" stroke="#1414ce" d="M202.45,-219.65C255.72,-205.26 334.81,-183.9 349,-180 356.83,-177.85 365.21,-175.53 373.18,-173.31"/>
<polygon fill="#1414ce" stroke="#1414ce" points="374.29,-176.63 382.99,-170.58 372.41,-169.89 374.29,-176.63"/>
</a>
</g>
</g>
<!-- 29&#45;&gt;5 -->
<g id="edge65" class="edge">
<title>29&#45;&gt;5</title>
<g id="a_edge65"><a xlink:title="include">
<path fill="none" stroke="#1414ce" d="M175.16,-215.89C201.37,-196.31 246.91,-164.34 290,-144 508.02,-41.1 803.21,-22.8 915.79,-19.63"/>
<polygon fill="#1414ce" stroke="#1414ce" points="915.89,-23.12 925.79,-19.37 915.71,-16.13 915.89,-23.12"/>
</a>
</g>
</g>
<!-- 28&#45;&gt;9 -->
<g id="edge67" class="edge">
<title>28&#45;&gt;9</title>
<g id="a_edge67"><a xlink:title="include">
<path fill="none" stroke="#1414ce" d="M715.25,-215.79C705.84,-196.41 688.41,-164.9 666,-144 652.63,-131.53 635.77,-120.99 619.87,-112.69"/>
<polygon fill="#1414ce" stroke="#1414ce" points="621.17,-109.42 610.66,-108.06 618.02,-115.68 621.17,-109.42"/>
</a>
</g>
</g>
<!-- 28&#45;&gt;24 -->
<g id="edge70" class="edge">
<title>28&#45;&gt;24</title>
<g id="a_edge70"><a xlink:title="include">
<path fill="none" stroke="#1414ce" d="M766.14,-222.29C819.91,-208.94 911.16,-186.29 963.95,-173.19"/>
<polygon fill="#1414ce" stroke="#1414ce" points="964.79,-176.59 973.66,-170.78 963.11,-169.79 964.79,-176.59"/>
</a>
</g>
</g>
<!-- 28&#45;&gt;16 -->
<g id="edge68" class="edge">
<title>28&#45;&gt;16</title>
<g id="a_edge68"><a xlink:title="include">
<path fill="none" stroke="#1414ce" d="M679.81,-223.34C617.95,-209.51 505.19,-184.29 446.97,-171.27"/>
<polygon fill="#1414ce" stroke="#1414ce" points="447.62,-167.83 437.1,-169.06 446.09,-174.66 447.62,-167.83"/>
</a>
</g>
</g>
<!-- 28&#45;&gt;11 -->
<g id="edge69" class="edge">
<title>28&#45;&gt;11</title>
<g id="a_edge69"><a xlink:title="include">
<path fill="none" stroke="#1414ce" d="M766.17,-228.18C828.39,-220.73 946.62,-204.63 1045,-180 1119.14,-161.44 1202.32,-131.57 1254.67,-111.62"/>
<polygon fill="#1414ce" stroke="#1414ce" points="1255.99,-114.87 1264.08,-108.02 1253.49,-108.33 1255.99,-114.87"/>
</a>
</g>
</g>
<!-- 15&#45;&gt;17 -->
<g id="edge72" class="edge">
<title>15&#45;&gt;17</title>
<g id="a_edge72"><a xlink:title="include">
<path fill="none" stroke="#1414ce" d="M405.38,-503.83C402.61,-493.47 399.05,-479.99 396,-468 377.08,-393.62 355.86,-305.57 345.46,-262.09"/>
<polygon fill="#1414ce" stroke="#1414ce" points="348.84,-261.19 343.11,-252.27 342.03,-262.81 348.84,-261.19"/>
</a>
</g>
</g>
<!-- 15&#45;&gt;16 -->
<g id="edge71" class="edge">
<title>15&#45;&gt;16</title>
<g id="a_edge71"><a xlink:title="include">
<path fill="none" stroke="#1414ce" d="M410,-503.95C410,-477.29 410,-424.11 410,-379 410,-379 410,-379 410,-305 410,-265 410,-218.65 410,-190.08"/>
<polygon fill="#1414ce" stroke="#1414ce" points="413.5,-190.05 410,-180.05 406.5,-190.05 413.5,-190.05"/>
</a>
</g>
</g>
<!-- 15&#45;&gt;20 -->
<g id="edge73" class="edge">
<title>15&#45;&gt;20</title>
<g id="a_edge73"><a xlink:title="include">
<path fill="none" stroke="#1414ce" d="M437.05,-518.17C540.25,-507.37 909.65,-468.72 1036.15,-455.48"/>
<polygon fill="#1414ce" stroke="#1414ce" points="1036.65,-458.95 1046.23,-454.43 1035.92,-451.99 1036.65,-458.95"/>
</a>
</g>
</g>
</g>
</svg>
