<?xml version="1.0" encoding="UTF-8" standalone="no"?>
<!DOCTYPE svg PUBLIC "-//W3C//DTD SVG 1.1//EN"
 "http://www.w3.org/Graphics/SVG/1.1/DTD/svg11.dtd">
<!-- Generated by graphviz version 2.43.0 (0)
 -->
<!-- Title: %3 Pages: 1 -->
<svg width="110pt" height="116pt"
 viewBox="0.00 0.00 109.50 116.00" xmlns="http://www.w3.org/2000/svg" xmlns:xlink="http://www.w3.org/1999/xlink">
<g id="graph0" class="graph" transform="scale(1 1) rotate(0) translate(4 112)">
<title>%3</title>
<polygon fill="transparent" stroke="transparent" points="-4,4 -4,-112 105.5,-112 105.5,4 -4,4"/>
<!-- 2 -->
<g id="node1" class="node">
<title>2</title>
<g id="a_node1"><a xlink:title="ListHead">
<polygon fill="#ffffff" stroke="black" points="83.5,-36 2.5,-36 2.5,0 83.5,0 83.5,-36"/>
<text text-anchor="middle" x="43" y="-14.3" font-family="Times,serif" font-size="14.00">ListHead</text>
</a>
</g>
</g>
<!-- 2&#45;&gt;2 -->
<g id="edge1" class="edge">
<title>2&#45;&gt;2</title>
<g id="a_edge1"><a xlink:title="usage">
<path fill="none" stroke="#1414ce" d="M83.73,-31.31C93.9,-30.38 101.5,-25.95 101.5,-18 101.5,-12.91 98.38,-9.26 93.47,-7.05"/>
<polygon fill="#1414ce" stroke="#1414ce" points="94.28,-3.64 83.73,-4.69 92.63,-10.45 94.28,-3.64"/>
</a>
</g>
</g>
<!-- 1 -->
<g id="node2" class="node">
<title>1</title>
<g id="a_node2"><a xlink:title="DictEntry">
<polygon fill="#bfbfbf" stroke="black" points="86,-108 0,-108 0,-72 86,-72 86,-108"/>
<text text-anchor="middle" x="43" y="-86.3" font-family="Times,serif" font-size="14.00">DictEntry</text>
</a>
</g>
</g>
<!-- 1&#45;&gt;2 -->
<g id="edge2" class="edge">
<title>1&#45;&gt;2</title>
<g id="a_edge2"><a xlink:title="usage">
<path fill="none" stroke="#1414ce" d="M43,-71.7C43,-63.98 43,-54.71 43,-46.11"/>
<polygon fill="#1414ce" stroke="#1414ce" points="46.5,-46.1 43,-36.1 39.5,-46.1 46.5,-46.1"/>
</a>
</g>
</g>
</g>
</svg>
