<?xml version="1.0" encoding="UTF-8" standalone="no"?>
<!DOCTYPE svg PUBLIC "-//W3C//DTD SVG 1.1//EN"
 "http://www.w3.org/Graphics/SVG/1.1/DTD/svg11.dtd">
<!-- Generated by graphviz version 2.43.0 (0)
 -->
<!-- Title: %3 Pages: 1 -->
<svg width="1884pt" height="836pt"
 viewBox="0.00 0.00 1883.50 836.00" xmlns="http://www.w3.org/2000/svg" xmlns:xlink="http://www.w3.org/1999/xlink">
<g id="graph0" class="graph" transform="scale(1 1) rotate(0) translate(4 832)">
<title>%3</title>
<polygon fill="transparent" stroke="transparent" points="-4,4 -4,-832 1879.5,-832 1879.5,4 -4,4"/>
<!-- 6 -->
<g id="node1" class="node">
<title>6</title>
<g id="a_node1"><a xlink:title="atom.h">
<polygon fill="#ffffff" stroke="black" points="788.5,-180 722.5,-180 722.5,-144 788.5,-144 788.5,-180"/>
<text text-anchor="middle" x="755.5" y="-158.3" font-family="Times,serif" font-size="14.00">atom.h</text>
</a>
</g>
</g>
<!-- 5 -->
<g id="node30" class="node">
<title>5</title>
<g id="a_node30"><a xlink:title="stdint.h">
<polygon fill="#ffffff" stroke="black" points="791.5,-36 719.5,-36 719.5,0 791.5,0 791.5,-36"/>
<text text-anchor="middle" x="755.5" y="-14.3" font-family="Times,serif" font-size="14.00">stdint.h</text>
</a>
</g>
</g>
<!-- 6&#45;&gt;5 -->
<g id="edge1" class="edge">
<title>6&#45;&gt;5</title>
<g id="a_edge1"><a xlink:title="include">
<path fill="none" stroke="#1414ce" d="M755.5,-143.87C755.5,-119.67 755.5,-75.21 755.5,-46.39"/>
<polygon fill="#1414ce" stroke="#1414ce" points="759,-46.19 755.5,-36.19 752,-46.19 759,-46.19"/>
</a>
</g>
</g>
<!-- 7 -->
<g id="node32" class="node">
<title>7</title>
<g id="a_node32"><a xlink:title="stdlib.h">
<polygon fill="#ffffff" stroke="black" points="598,-108 527,-108 527,-72 598,-72 598,-108"/>
<text text-anchor="middle" x="562.5" y="-86.3" font-family="Times,serif" font-size="14.00">stdlib.h</text>
</a>
</g>
</g>
<!-- 6&#45;&gt;7 -->
<g id="edge2" class="edge">
<title>6&#45;&gt;7</title>
<g id="a_edge2"><a xlink:title="include">
<path fill="none" stroke="#1414ce" d="M722.09,-147.31C719.19,-146.17 716.3,-145.06 713.5,-144 678.24,-130.68 637.94,-116.6 607.85,-106.3"/>
<polygon fill="#1414ce" stroke="#1414ce" points="608.66,-102.87 598.06,-102.95 606.4,-109.5 608.66,-102.87"/>
</a>
</g>
</g>
<!-- 8 -->
<g id="node2" class="node">
<title>8</title>
<g id="a_node2"><a xlink:title="atom_table.h">
<polygon fill="#ffffff" stroke="black" points="1181,-252 1072,-252 1072,-216 1181,-216 1181,-252"/>
<text text-anchor="middle" x="1126.5" y="-230.3" font-family="Times,serif" font-size="14.00">atom_table.h</text>
</a>
</g>
</g>
<!-- 8&#45;&gt;6 -->
<g id="edge4" class="edge">
<title>8&#45;&gt;6</title>
<g id="a_edge4"><a xlink:title="include">
<path fill="none" stroke="#1414ce" d="M1071.79,-218C1068.66,-217.28 1065.54,-216.61 1062.5,-216 948.14,-192.98 915.75,-207.99 802.5,-180 801.08,-179.65 799.64,-179.27 798.19,-178.87"/>
<polygon fill="#1414ce" stroke="#1414ce" points="799.2,-175.52 788.61,-175.95 797.16,-182.21 799.2,-175.52"/>
</a>
</g>
</g>
<!-- 10 -->
<g id="node23" class="node">
<title>10</title>
<g id="a_node23"><a xlink:title="utils.h">
<polygon fill="#ffffff" stroke="black" points="704.5,-180 642.5,-180 642.5,-144 704.5,-144 704.5,-180"/>
<text text-anchor="middle" x="673.5" y="-158.3" font-family="Times,serif" font-size="14.00">utils.h</text>
</a>
</g>
</g>
<!-- 8&#45;&gt;10 -->
<g id="edge5" class="edge">
<title>8&#45;&gt;10</title>
<g id="a_edge5"><a xlink:title="include">
<path fill="none" stroke="#1414ce" d="M1071.81,-217.87C1068.67,-217.19 1065.55,-216.56 1062.5,-216 912.26,-188.47 866.37,-217.68 714.33,-179.75"/>
<polygon fill="#1414ce" stroke="#1414ce" points="715.19,-176.36 704.63,-177.28 713.46,-183.14 715.19,-176.36"/>
</a>
</g>
</g>
<!-- 9 -->
<g id="node28" class="node">
<title>9</title>
<g id="a_node28"><a xlink:title="stdbool.h">
<polygon fill="#ffffff" stroke="black" points="1141,-108 1058,-108 1058,-72 1141,-72 1141,-108"/>
<text text-anchor="middle" x="1099.5" y="-86.3" font-family="Times,serif" font-size="14.00">stdbool.h</text>
</a>
</g>
</g>
<!-- 8&#45;&gt;9 -->
<g id="edge3" class="edge">
<title>8&#45;&gt;9</title>
<g id="a_edge3"><a xlink:title="include">
<path fill="none" stroke="#1414ce" d="M1123.24,-215.87C1118.64,-191.67 1110.19,-147.21 1104.71,-118.39"/>
<polygon fill="#1414ce" stroke="#1414ce" points="1108.07,-117.36 1102.77,-108.19 1101.2,-118.67 1108.07,-117.36"/>
</a>
</g>
</g>
<!-- 32 -->
<g id="node3" class="node">
<title>32</title>
<g id="a_node3"><a xlink:title="bitstring.h">
<polygon fill="#ffffff" stroke="black" points="826.5,-540 734.5,-540 734.5,-504 826.5,-504 826.5,-540"/>
<text text-anchor="middle" x="780.5" y="-518.3" font-family="Times,serif" font-size="14.00">bitstring.h</text>
</a>
</g>
</g>
<!-- 22 -->
<g id="node19" class="node">
<title>22</title>
<g id="a_node19"><a xlink:title="term.h">
<polygon fill="#ffffff" stroke="black" points="663,-468 598,-468 598,-432 663,-432 663,-468"/>
<text text-anchor="middle" x="630.5" y="-446.3" font-family="Times,serif" font-size="14.00">term.h</text>
</a>
</g>
</g>
<!-- 32&#45;&gt;22 -->
<g id="edge6" class="edge">
<title>32&#45;&gt;22</title>
<g id="a_edge6"><a xlink:title="include">
<path fill="none" stroke="#1414ce" d="M743.81,-503.88C722.25,-493.82 694.93,-481.07 672.52,-470.61"/>
<polygon fill="#1414ce" stroke="#1414ce" points="673.78,-467.34 663.24,-466.28 670.82,-473.68 673.78,-467.34"/>
</a>
</g>
</g>
<!-- 33 -->
<g id="node22" class="node">
<title>33</title>
<g id="a_node22"><a xlink:title="unicode.h">
<polygon fill="#ffffff" stroke="black" points="930.5,-180 844.5,-180 844.5,-144 930.5,-144 930.5,-180"/>
<text text-anchor="middle" x="887.5" y="-158.3" font-family="Times,serif" font-size="14.00">unicode.h</text>
</a>
</g>
</g>
<!-- 32&#45;&gt;33 -->
<g id="edge7" class="edge">
<title>32&#45;&gt;33</title>
<g id="a_edge7"><a xlink:title="include">
<path fill="none" stroke="#1414ce" d="M814.45,-503.92C850.4,-483.71 905.13,-446.33 928.5,-396 935.62,-380.67 932.54,-305.66 924.5,-288 914.99,-267.12 896.43,-273.14 887.5,-252 879.26,-232.49 879.85,-208.35 882.17,-190.14"/>
<polygon fill="#1414ce" stroke="#1414ce" points="885.64,-190.59 883.68,-180.18 878.72,-189.54 885.64,-190.59"/>
</a>
</g>
</g>
<!-- 32&#45;&gt;9 -->
<g id="edge8" class="edge">
<title>32&#45;&gt;9</title>
<g id="a_edge8"><a xlink:title="include">
<path fill="none" stroke="#1414ce" d="M826.58,-507.91C850.57,-499.4 879.24,-486.42 900.5,-468 929.02,-443.29 933.8,-431.88 945.5,-396 970.38,-319.75 918.43,-285.48 958.5,-216 972.73,-191.33 989.61,-198.21 1011.5,-180 1018.31,-174.33 1052.17,-139.75 1075.85,-115.41"/>
<polygon fill="#1414ce" stroke="#1414ce" points="1078.37,-117.83 1082.83,-108.22 1073.35,-112.96 1078.37,-117.83"/>
</a>
</g>
</g>
<!-- 32&#45;&gt;5 -->
<g id="edge9" class="edge">
<title>32&#45;&gt;5</title>
<g id="a_edge9"><a xlink:title="include">
<path fill="none" stroke="#1414ce" d="M734.39,-511.81C636.39,-491.62 411.18,-441.57 348.5,-396 295.88,-357.74 161.76,-196.99 199.5,-144 258.96,-60.5 586.43,-30.28 709.09,-21.79"/>
<polygon fill="#1414ce" stroke="#1414ce" points="709.54,-25.27 719.28,-21.1 709.07,-18.29 709.54,-25.27"/>
</a>
</g>
</g>
<!-- 3 -->
<g id="node4" class="node">
<title>3</title>
<g id="a_node4"><a xlink:title="context.h">
<polygon fill="#ffffff" stroke="black" points="1288,-684 1205,-684 1205,-648 1288,-648 1288,-684"/>
<text text-anchor="middle" x="1246.5" y="-662.3" font-family="Times,serif" font-size="14.00">context.h</text>
</a>
</g>
</g>
<!-- 4 -->
<g id="node8" class="node">
<title>4</title>
<g id="a_node8"><a xlink:title="globalcontext.h">
<polygon fill="#ffffff" stroke="black" points="1387,-612 1260,-612 1260,-576 1387,-576 1387,-612"/>
<text text-anchor="middle" x="1323.5" y="-590.3" font-family="Times,serif" font-size="14.00">globalcontext.h</text>
</a>
</g>
</g>
<!-- 3&#45;&gt;4 -->
<g id="edge10" class="edge">
<title>3&#45;&gt;4</title>
<g id="a_edge10"><a xlink:title="include">
<path fill="none" stroke="#1414ce" d="M1265.53,-647.7C1275.04,-639.05 1286.71,-628.45 1297.07,-619.03"/>
<polygon fill="#1414ce" stroke="#1414ce" points="1299.64,-621.42 1304.69,-612.1 1294.93,-616.24 1299.64,-621.42"/>
</a>
</g>
</g>
<!-- 31 -->
<g id="node11" class="node">
<title>31</title>
<g id="a_node11"><a xlink:title="jit.h">
<polygon fill="#ffffff" stroke="black" points="667.5,-612 613.5,-612 613.5,-576 667.5,-576 667.5,-612"/>
<text text-anchor="middle" x="640.5" y="-590.3" font-family="Times,serif" font-size="14.00">jit.h</text>
</a>
</g>
</g>
<!-- 3&#45;&gt;31 -->
<g id="edge11" class="edge">
<title>3&#45;&gt;31</title>
<g id="a_edge11"><a xlink:title="include">
<path fill="none" stroke="#1414ce" d="M1204.68,-664.14C1111.66,-661.54 880.96,-651.32 692.5,-612 687.64,-610.99 682.6,-609.68 677.65,-608.24"/>
<polygon fill="#1414ce" stroke="#1414ce" points="678.31,-604.78 667.72,-605.15 676.23,-611.46 678.31,-604.78"/>
</a>
</g>
</g>
<!-- 19 -->
<g id="node12" class="node">
<title>19</title>
<g id="a_node12"><a xlink:title="list.h">
<polygon fill="#ffffff" stroke="black" points="1367.5,-180 1313.5,-180 1313.5,-144 1367.5,-144 1367.5,-180"/>
<text text-anchor="middle" x="1340.5" y="-158.3" font-family="Times,serif" font-size="14.00">list.h</text>
</a>
</g>
</g>
<!-- 3&#45;&gt;19 -->
<g id="edge12" class="edge">
<title>3&#45;&gt;19</title>
<g id="a_edge12"><a xlink:title="include">
<path fill="none" stroke="#1414ce" d="M1288.24,-659.31C1348.7,-648.47 1457.83,-618.48 1498.5,-540 1538.51,-462.79 1785.48,-608.5 1484.5,-216 1454.61,-177.02 1424.54,-197.46 1376.99,-181.39"/>
<polygon fill="#1414ce" stroke="#1414ce" points="1378.16,-178.09 1367.57,-177.8 1375.67,-184.63 1378.16,-178.09"/>
</a>
</g>
</g>
<!-- 28 -->
<g id="node13" class="node">
<title>28</title>
<g id="a_node13"><a xlink:title="mailbox.h">
<polygon fill="#ffffff" stroke="black" points="1053.5,-252 967.5,-252 967.5,-216 1053.5,-216 1053.5,-252"/>
<text text-anchor="middle" x="1010.5" y="-230.3" font-family="Times,serif" font-size="14.00">mailbox.h</text>
</a>
</g>
</g>
<!-- 3&#45;&gt;28 -->
<g id="edge13" class="edge">
<title>3&#45;&gt;28</title>
<g id="a_edge13"><a xlink:title="include">
<path fill="none" stroke="#1414ce" d="M1241.41,-647.85C1224.25,-591.93 1164.34,-411.4 1071.5,-288 1063.38,-277.21 1052.74,-267.04 1042.63,-258.55"/>
<polygon fill="#1414ce" stroke="#1414ce" points="1044.66,-255.69 1034.68,-252.12 1040.26,-261.13 1044.66,-255.69"/>
</a>
</g>
</g>
<!-- 21 -->
<g id="node17" class="node">
<title>21</title>
<g id="a_node17"><a xlink:title="smp.h">
<polygon fill="#ffffff" stroke="black" points="1509.5,-180 1449.5,-180 1449.5,-144 1509.5,-144 1509.5,-180"/>
<text text-anchor="middle" x="1479.5" y="-158.3" font-family="Times,serif" font-size="14.00">smp.h</text>
</a>
</g>
</g>
<!-- 3&#45;&gt;21 -->
<g id="edge14" class="edge">
<title>3&#45;&gt;21</title>
<g id="a_edge14"><a xlink:title="include">
<path fill="none" stroke="#1414ce" d="M1288.1,-664.41C1375.92,-662.35 1576.43,-653.16 1628.5,-612 1664.5,-583.55 1695.5,-422.95 1695.5,-379 1695.5,-379 1695.5,-379 1695.5,-305 1695.5,-261.45 1687.34,-244.61 1654.5,-216 1616.65,-183.03 1558.79,-170.57 1520.08,-165.86"/>
<polygon fill="#1414ce" stroke="#1414ce" points="1520.02,-162.33 1509.7,-164.73 1519.26,-169.29 1520.02,-162.33"/>
</a>
</g>
</g>
<!-- 3&#45;&gt;22 -->
<g id="edge15" class="edge">
<title>3&#45;&gt;22</title>
<g id="a_edge15"><a xlink:title="include">
<path fill="none" stroke="#1414ce" d="M1204.75,-662.23C1112.89,-654.63 888.46,-627.79 725.5,-540 695.64,-523.91 668.14,-496.1 650.5,-475.84"/>
<polygon fill="#1414ce" stroke="#1414ce" points="653.15,-473.56 644.01,-468.21 647.82,-478.1 653.15,-473.56"/>
</a>
</g>
</g>
<!-- 29 -->
<g id="node21" class="node">
<title>29</title>
<g id="a_node21"><a xlink:title="timer_list.h">
<polygon fill="#ffffff" stroke="black" points="1629.5,-252 1531.5,-252 1531.5,-216 1629.5,-216 1629.5,-252"/>
<text text-anchor="middle" x="1580.5" y="-230.3" font-family="Times,serif" font-size="14.00">timer_list.h</text>
</a>
</g>
</g>
<!-- 3&#45;&gt;29 -->
<g id="edge16" class="edge">
<title>3&#45;&gt;29</title>
<g id="a_edge16"><a xlink:title="include">
<path fill="none" stroke="#1414ce" d="M1288.22,-665.3C1373.51,-664.93 1563.19,-658.74 1603.5,-612 1691.47,-510.01 1623.47,-328.99 1593.15,-261.41"/>
<polygon fill="#1414ce" stroke="#1414ce" points="1596.32,-259.92 1588.97,-252.29 1589.95,-262.84 1596.32,-259.92"/>
</a>
</g>
</g>
<!-- 13 -->
<g id="node5" class="node">
<title>13</title>
<g id="a_node5"><a xlink:title="erl_nif.h">
<polygon fill="#ffffff" stroke="black" points="282.5,-180 208.5,-180 208.5,-144 282.5,-144 282.5,-180"/>
<text text-anchor="middle" x="245.5" y="-158.3" font-family="Times,serif" font-size="14.00">erl_nif.h</text>
</a>
</g>
</g>
<!-- 14 -->
<g id="node20" class="node">
<title>14</title>
<g id="a_node20"><a xlink:title="term_typedef.h">
<polygon fill="#ffffff" stroke="black" points="205,-108 80,-108 80,-72 205,-72 205,-108"/>
<text text-anchor="middle" x="142.5" y="-86.3" font-family="Times,serif" font-size="14.00">term_typedef.h</text>
</a>
</g>
</g>
<!-- 13&#45;&gt;14 -->
<g id="edge17" class="edge">
<title>13&#45;&gt;14</title>
<g id="a_edge17"><a xlink:title="include">
<path fill="none" stroke="#1414ce" d="M220.3,-143.88C207.09,-134.89 190.71,-123.76 176.39,-114.03"/>
<polygon fill="#1414ce" stroke="#1414ce" points="178.03,-110.92 167.79,-108.19 174.1,-116.71 178.03,-110.92"/>
</a>
</g>
</g>
<!-- 18 -->
<g id="node6" class="node">
<title>18</title>
<g id="a_node6"><a xlink:title="ets.h">
<polygon fill="#ffffff" stroke="black" points="1405.5,-540 1351.5,-540 1351.5,-504 1405.5,-504 1405.5,-540"/>
<text text-anchor="middle" x="1378.5" y="-518.3" font-family="Times,serif" font-size="14.00">ets.h</text>
</a>
</g>
</g>
<!-- 18&#45;&gt;19 -->
<g id="edge18" class="edge">
<title>18&#45;&gt;19</title>
<g id="a_edge18"><a xlink:title="include">
<path fill="none" stroke="#1414ce" d="M1375.06,-503.59C1370.09,-476.9 1361.5,-424.19 1361.5,-379 1361.5,-379 1361.5,-379 1361.5,-305 1361.5,-264.78 1353.15,-218.84 1346.99,-190.37"/>
<polygon fill="#1414ce" stroke="#1414ce" points="1350.35,-189.36 1344.75,-180.37 1343.51,-190.89 1350.35,-189.36"/>
</a>
</g>
</g>
<!-- 20 -->
<g id="node18" class="node">
<title>20</title>
<g id="a_node18"><a xlink:title="synclist.h">
<polygon fill="#ffffff" stroke="black" points="1475,-252 1390,-252 1390,-216 1475,-216 1475,-252"/>
<text text-anchor="middle" x="1432.5" y="-230.3" font-family="Times,serif" font-size="14.00">synclist.h</text>
</a>
</g>
</g>
<!-- 18&#45;&gt;20 -->
<g id="edge19" class="edge">
<title>18&#45;&gt;20</title>
<g id="a_edge19"><a xlink:title="include">
<path fill="none" stroke="#1414ce" d="M1381.72,-503.97C1390.74,-456.19 1416.33,-320.62 1427.35,-262.27"/>
<polygon fill="#1414ce" stroke="#1414ce" points="1430.82,-262.78 1429.23,-252.31 1423.94,-261.48 1430.82,-262.78"/>
</a>
</g>
</g>
<!-- 18&#45;&gt;22 -->
<g id="edge20" class="edge">
<title>18&#45;&gt;22</title>
<g id="a_edge20"><a xlink:title="include">
<path fill="none" stroke="#1414ce" d="M1351.44,-518.47C1239.37,-507.98 811.16,-467.91 673.44,-455.02"/>
<polygon fill="#1414ce" stroke="#1414ce" points="673.56,-451.51 663.28,-454.07 672.91,-458.48 673.56,-451.51"/>
</a>
</g>
</g>
<!-- 34 -->
<g id="node7" class="node">
<title>34</title>
<g id="a_node7"><a xlink:title="exportedfunction.h">
<polygon fill="#ffffff" stroke="black" points="602.5,-540 450.5,-540 450.5,-504 602.5,-504 602.5,-540"/>
<text text-anchor="middle" x="526.5" y="-518.3" font-family="Times,serif" font-size="14.00">exportedfunction.h</text>
</a>
</g>
</g>
<!-- 34&#45;&gt;22 -->
<g id="edge21" class="edge">
<title>34&#45;&gt;22</title>
<g id="a_edge21"><a xlink:title="include">
<path fill="none" stroke="#1414ce" d="M551.94,-503.88C565.29,-494.89 581.82,-483.76 596.28,-474.03"/>
<polygon fill="#1414ce" stroke="#1414ce" points="598.62,-476.68 604.96,-468.19 594.71,-470.87 598.62,-476.68"/>
</a>
</g>
</g>
<!-- 4&#45;&gt;6 -->
<g id="edge23" class="edge">
<title>4&#45;&gt;6</title>
<g id="a_edge23"><a xlink:title="include">
<path fill="none" stroke="#1414ce" d="M1259.73,-577.14C1134.57,-544.74 863.62,-467.95 802.5,-396 752.06,-336.62 750.46,-238.1 753.09,-190.47"/>
<polygon fill="#1414ce" stroke="#1414ce" points="756.59,-190.51 753.76,-180.3 749.61,-190.05 756.59,-190.51"/>
</a>
</g>
</g>
<!-- 4&#45;&gt;8 -->
<g id="edge24" class="edge">
<title>4&#45;&gt;8</title>
<g id="a_edge24"><a xlink:title="include">
<path fill="none" stroke="#1414ce" d="M1315.81,-575.91C1304.71,-549.62 1285.5,-497.45 1285.5,-451 1285.5,-451 1285.5,-451 1285.5,-377 1285.5,-319.18 1226.28,-279.04 1180.12,-256.54"/>
<polygon fill="#1414ce" stroke="#1414ce" points="1181.33,-253.24 1170.79,-252.14 1178.34,-259.57 1181.33,-253.24"/>
</a>
</g>
</g>
<!-- 4&#45;&gt;13 -->
<g id="edge25" class="edge">
<title>4&#45;&gt;13</title>
<g id="a_edge25"><a xlink:title="include">
<path fill="none" stroke="#1414ce" d="M1259.57,-591.88C1149.47,-588.94 917.39,-578.33 725.5,-540 673.4,-529.59 663.56,-514.64 611.5,-504 530.78,-487.51 297.86,-529.02 242.5,-468 171.68,-389.93 212.8,-248.87 234.61,-189.98"/>
<polygon fill="#1414ce" stroke="#1414ce" points="238.01,-190.88 238.3,-180.29 231.47,-188.39 238.01,-190.88"/>
</a>
</g>
</g>
<!-- 4&#45;&gt;18 -->
<g id="edge26" class="edge">
<title>4&#45;&gt;18</title>
<g id="a_edge26"><a xlink:title="include">
<path fill="none" stroke="#1414ce" d="M1337.1,-575.7C1343.62,-567.39 1351.57,-557.28 1358.75,-548.14"/>
<polygon fill="#1414ce" stroke="#1414ce" points="1361.63,-550.13 1365.06,-540.1 1356.13,-545.81 1361.63,-550.13"/>
</a>
</g>
</g>
<!-- 4&#45;&gt;19 -->
<g id="edge27" class="edge">
<title>4&#45;&gt;19</title>
<g id="a_edge27"><a xlink:title="include">
<path fill="none" stroke="#1414ce" d="M1323.5,-575.95C1323.5,-549.29 1323.5,-496.11 1323.5,-451 1323.5,-451 1323.5,-451 1323.5,-305 1323.5,-264.93 1330.26,-218.95 1335.25,-190.43"/>
<polygon fill="#1414ce" stroke="#1414ce" points="1338.73,-190.87 1337.06,-180.41 1331.84,-189.63 1338.73,-190.87"/>
</a>
</g>
</g>
<!-- 4&#45;&gt;28 -->
<g id="edge28" class="edge">
<title>4&#45;&gt;28</title>
<g id="a_edge28"><a xlink:title="include">
<path fill="none" stroke="#1414ce" d="M1311.23,-575.7C1304.23,-565.52 1295.48,-552.27 1288.5,-540 1226.97,-431.84 1259.75,-370.4 1166.5,-288 1164.42,-286.16 1107.59,-267.09 1063.12,-252.35"/>
<polygon fill="#1414ce" stroke="#1414ce" points="1064.15,-249 1053.55,-249.18 1061.94,-255.65 1064.15,-249"/>
</a>
</g>
</g>
<!-- 4&#45;&gt;21 -->
<g id="edge29" class="edge">
<title>4&#45;&gt;21</title>
<g id="a_edge29"><a xlink:title="include">
<path fill="none" stroke="#1414ce" d="M1387.19,-578.89C1413.23,-570.76 1442.38,-558.39 1464.5,-540 1579.51,-444.41 1598.36,-396.06 1638.5,-252 1642.79,-236.59 1647.86,-228.98 1638.5,-216 1611.6,-178.67 1557.26,-167.24 1519.65,-163.95"/>
<polygon fill="#1414ce" stroke="#1414ce" points="1519.75,-160.45 1509.52,-163.22 1519.25,-167.43 1519.75,-160.45"/>
</a>
</g>
</g>
<!-- 4&#45;&gt;20 -->
<g id="edge30" class="edge">
<title>4&#45;&gt;20</title>
<g id="a_edge30"><a xlink:title="include">
<path fill="none" stroke="#1414ce" d="M1368.09,-575.89C1384.85,-567.41 1402.69,-555.6 1414.5,-540 1439.16,-507.43 1437.5,-491.86 1437.5,-451 1437.5,-451 1437.5,-451 1437.5,-377 1437.5,-336.97 1435.49,-290.63 1434.02,-262.07"/>
<polygon fill="#1414ce" stroke="#1414ce" points="1437.51,-261.84 1433.49,-252.04 1430.52,-262.21 1437.51,-261.84"/>
</a>
</g>
</g>
<!-- 4&#45;&gt;22 -->
<g id="edge31" class="edge">
<title>4&#45;&gt;22</title>
<g id="a_edge31"><a xlink:title="include">
<path fill="none" stroke="#1414ce" d="M1259.86,-579.96C1120.35,-551.37 790.74,-483.83 673.12,-459.73"/>
<polygon fill="#1414ce" stroke="#1414ce" points="673.56,-456.25 663.06,-457.67 672.16,-463.11 673.56,-456.25"/>
</a>
</g>
</g>
<!-- 4&#45;&gt;29 -->
<g id="edge32" class="edge">
<title>4&#45;&gt;29</title>
<g id="a_edge32"><a xlink:title="include">
<path fill="none" stroke="#1414ce" d="M1380.81,-575.9C1400.76,-567.65 1422.01,-555.99 1437.5,-540 1467.43,-509.11 1475.5,-494.01 1475.5,-451 1475.5,-451 1475.5,-451 1475.5,-377 1475.5,-327.46 1517.32,-283.9 1548.18,-258.49"/>
<polygon fill="#1414ce" stroke="#1414ce" points="1550.52,-261.1 1556.15,-252.13 1546.15,-255.63 1550.52,-261.1"/>
</a>
</g>
</g>
<!-- 30 -->
<g id="node24" class="node">
<title>30</title>
<g id="a_node24"><a xlink:title="valueshashtable.h">
<polygon fill="#ffffff" stroke="black" points="1875.5,-180 1729.5,-180 1729.5,-144 1875.5,-144 1875.5,-180"/>
<text text-anchor="middle" x="1802.5" y="-158.3" font-family="Times,serif" font-size="14.00">valueshashtable.h</text>
</a>
</g>
</g>
<!-- 4&#45;&gt;30 -->
<g id="edge33" class="edge">
<title>4&#45;&gt;30</title>
<g id="a_edge33"><a xlink:title="include">
<path fill="none" stroke="#1414ce" d="M1387.19,-582.62C1493.31,-564 1699.46,-521.82 1747.5,-468 1774.78,-437.44 1771.5,-419.97 1771.5,-379 1771.5,-379 1771.5,-379 1771.5,-305 1771.5,-264.1 1783.93,-218.06 1793.05,-189.79"/>
<polygon fill="#1414ce" stroke="#1414ce" points="1796.39,-190.82 1796.23,-180.22 1789.75,-188.61 1796.39,-190.82"/>
</a>
</g>
</g>
<!-- 4&#45;&gt;5 -->
<g id="edge22" class="edge">
<title>4&#45;&gt;5</title>
<g id="a_edge22"><a xlink:title="include">
<path fill="none" stroke="#1414ce" d="M1387.21,-578.73C1421.18,-569.89 1463.15,-556.96 1498.5,-540 1555.57,-512.62 1733.5,-442.3 1733.5,-379 1733.5,-379 1733.5,-379 1733.5,-305 1733.5,-196.34 1648.09,-189.69 1549.5,-144 1470.2,-107.25 1451.59,-91.98 1366.5,-72 1159.81,-23.46 904.41,-18.38 801.58,-18.51"/>
<polygon fill="#1414ce" stroke="#1414ce" points="801.52,-15.01 791.54,-18.54 801.55,-22.01 801.52,-15.01"/>
</a>
</g>
</g>
<!-- 1 -->
<g id="node9" class="node">
<title>1</title>
<g id="a_node9"><a xlink:title="/__w/AtomVM/AtomVM/src/libAtomVM/inet.h">
<polygon fill="#bfbfbf" stroke="black" points="450,-828 115,-828 115,-792 450,-792 450,-828"/>
<text text-anchor="middle" x="282.5" y="-806.3" font-family="Times,serif" font-size="14.00">/__w/AtomVM/AtomVM/src/libAtomVM/inet.h</text>
</a>
</g>
</g>
<!-- 2 -->
<g id="node10" class="node">
<title>2</title>
<g id="a_node10"><a xlink:title="interop.h">
<polygon fill="#ffffff" stroke="black" points="463.5,-756 381.5,-756 381.5,-720 463.5,-720 463.5,-756"/>
<text text-anchor="middle" x="422.5" y="-734.3" font-family="Times,serif" font-size="14.00">interop.h</text>
</a>
</g>
</g>
<!-- 1&#45;&gt;2 -->
<g id="edge34" class="edge">
<title>1&#45;&gt;2</title>
<g id="a_edge34"><a xlink:title="include">
<path fill="none" stroke="#1414ce" d="M316.75,-791.88C335.56,-782.47 359.08,-770.71 379.17,-760.67"/>
<polygon fill="#1414ce" stroke="#1414ce" points="380.74,-763.79 388.12,-756.19 377.61,-757.53 380.74,-763.79"/>
</a>
</g>
</g>
<!-- 25 -->
<g id="node14" class="node">
<title>25</title>
<g id="a_node14"><a xlink:title="memory.h">
<polygon fill="#ffffff" stroke="black" points="391.5,-252 305.5,-252 305.5,-216 391.5,-216 391.5,-252"/>
<text text-anchor="middle" x="348.5" y="-230.3" font-family="Times,serif" font-size="14.00">memory.h</text>
</a>
</g>
</g>
<!-- 1&#45;&gt;25 -->
<g id="edge35" class="edge">
<title>1&#45;&gt;25</title>
<g id="a_edge35"><a xlink:title="include">
<path fill="none" stroke="#1414ce" d="M246.08,-791.81C204.6,-769.42 142.5,-726.03 142.5,-667 142.5,-667 142.5,-667 142.5,-521 142.5,-404.06 257.29,-302.34 315.5,-258.28"/>
<polygon fill="#1414ce" stroke="#1414ce" points="317.72,-260.98 323.65,-252.2 313.54,-255.37 317.72,-260.98"/>
</a>
</g>
</g>
<!-- 2&#45;&gt;3 -->
<g id="edge36" class="edge">
<title>2&#45;&gt;3</title>
<g id="a_edge36"><a xlink:title="include">
<path fill="none" stroke="#1414ce" d="M463.64,-733.5C600.96,-721.84 1043.36,-684.26 1194.96,-671.38"/>
<polygon fill="#1414ce" stroke="#1414ce" points="1195.28,-674.86 1204.95,-670.53 1194.69,-667.89 1195.28,-674.86"/>
</a>
</g>
</g>
<!-- 2&#45;&gt;22 -->
<g id="edge37" class="edge">
<title>2&#45;&gt;22</title>
<g id="a_edge37"><a xlink:title="include">
<path fill="none" stroke="#1414ce" d="M418.01,-719.97C408.04,-677.91 388.84,-567.89 441.5,-504 460.02,-481.54 538,-465.45 587.82,-457.23"/>
<polygon fill="#1414ce" stroke="#1414ce" points="588.68,-460.64 598,-455.6 587.57,-453.73 588.68,-460.64"/>
</a>
</g>
</g>
<!-- 31&#45;&gt;32 -->
<g id="edge38" class="edge">
<title>31&#45;&gt;32</title>
<g id="a_edge38"><a xlink:title="include">
<path fill="none" stroke="#1414ce" d="M667.83,-579.34C687.55,-569.48 714.58,-555.96 737.22,-544.64"/>
<polygon fill="#1414ce" stroke="#1414ce" points="738.92,-547.7 746.3,-540.1 735.79,-541.44 738.92,-547.7"/>
</a>
</g>
</g>
<!-- 31&#45;&gt;34 -->
<g id="edge39" class="edge">
<title>31&#45;&gt;34</title>
<g id="a_edge39"><a xlink:title="include">
<path fill="none" stroke="#1414ce" d="M613.48,-576.41C598.48,-567.2 579.61,-555.61 563.28,-545.59"/>
<polygon fill="#1414ce" stroke="#1414ce" points="564.87,-542.45 554.51,-540.2 561.2,-548.42 564.87,-542.45"/>
</a>
</g>
</g>
<!-- 31&#45;&gt;22 -->
<g id="edge40" class="edge">
<title>31&#45;&gt;22</title>
<g id="a_edge40"><a xlink:title="include">
<path fill="none" stroke="#1414ce" d="M639.29,-575.87C637.59,-551.67 634.46,-507.21 632.43,-478.39"/>
<polygon fill="#1414ce" stroke="#1414ce" points="635.9,-477.92 631.71,-468.19 628.92,-478.41 635.9,-477.92"/>
</a>
</g>
</g>
<!-- 31&#45;&gt;14 -->
<g id="edge41" class="edge">
<title>31&#45;&gt;14</title>
<g id="a_edge41"><a xlink:title="include">
<path fill="none" stroke="#1414ce" d="M613.18,-591.5C503.96,-583.88 104.5,-540.1 104.5,-307 104.5,-307 104.5,-307 104.5,-233 104.5,-191.63 119.73,-145.72 130.91,-117.61"/>
<polygon fill="#1414ce" stroke="#1414ce" points="134.26,-118.67 134.81,-108.09 127.78,-116.02 134.26,-118.67"/>
</a>
</g>
</g>
<!-- 31&#45;&gt;9 -->
<g id="edge42" class="edge">
<title>31&#45;&gt;9</title>
<g id="a_edge42"><a xlink:title="include">
<path fill="none" stroke="#1414ce" d="M667.54,-589.06C706.31,-582.67 779.22,-567.85 835.5,-540 931.57,-492.46 1153.3,-331.08 1190.5,-252 1214.2,-201.63 1164.05,-145.63 1129.22,-114.74"/>
<polygon fill="#1414ce" stroke="#1414ce" points="1131.47,-112.06 1121.62,-108.18 1126.9,-117.36 1131.47,-112.06"/>
</a>
</g>
</g>
<!-- 19&#45;&gt;9 -->
<g id="edge43" class="edge">
<title>19&#45;&gt;9</title>
<g id="a_edge43"><a xlink:title="include">
<path fill="none" stroke="#1414ce" d="M1313.35,-149.14C1308.76,-147.32 1304.03,-145.53 1299.5,-144 1249.94,-127.24 1192.03,-112.4 1151.32,-102.71"/>
<polygon fill="#1414ce" stroke="#1414ce" points="1151.89,-99.25 1141.35,-100.36 1150.28,-106.06 1151.89,-99.25"/>
</a>
</g>
</g>
<!-- 28&#45;&gt;19 -->
<g id="edge45" class="edge">
<title>28&#45;&gt;19</title>
<g id="a_edge45"><a xlink:title="include">
<path fill="none" stroke="#1414ce" d="M1053.76,-218.65C1057.04,-217.71 1060.32,-216.81 1063.5,-216 1148.23,-194.39 1249.55,-177.14 1303.08,-168.68"/>
<polygon fill="#1414ce" stroke="#1414ce" points="1303.79,-172.11 1313.13,-167.11 1302.71,-165.19 1303.79,-172.11"/>
</a>
</g>
</g>
<!-- 28&#45;&gt;14 -->
<g id="edge46" class="edge">
<title>28&#45;&gt;14</title>
<g id="a_edge46"><a xlink:title="include">
<path fill="none" stroke="#1414ce" d="M967.45,-227.51C897.35,-218.45 754.22,-199.42 633.5,-180 484.39,-156.01 310.67,-123.42 215,-105.07"/>
<polygon fill="#1414ce" stroke="#1414ce" points="215.63,-101.63 205.14,-103.18 214.3,-108.5 215.63,-101.63"/>
</a>
</g>
</g>
<!-- 28&#45;&gt;10 -->
<g id="edge47" class="edge">
<title>28&#45;&gt;10</title>
<g id="a_edge47"><a xlink:title="include">
<path fill="none" stroke="#1414ce" d="M967.25,-228.38C910.74,-221.67 808.79,-207.25 714.39,-179.91"/>
<polygon fill="#1414ce" stroke="#1414ce" points="715.28,-176.52 704.7,-177.05 713.3,-183.23 715.28,-176.52"/>
</a>
</g>
</g>
<!-- 28&#45;&gt;9 -->
<g id="edge44" class="edge">
<title>28&#45;&gt;9</title>
<g id="a_edge44"><a xlink:title="include">
<path fill="none" stroke="#1414ce" d="M1023.62,-215.64C1031.16,-205.44 1040.66,-192.19 1048.5,-180 1061.74,-159.4 1075.47,-135.24 1085.35,-117.3"/>
<polygon fill="#1414ce" stroke="#1414ce" points="1088.69,-118.49 1090.41,-108.03 1082.55,-115.13 1088.69,-118.49"/>
</a>
</g>
</g>
<!-- 25&#45;&gt;13 -->
<g id="edge50" class="edge">
<title>25&#45;&gt;13</title>
<g id="a_edge50"><a xlink:title="include">
<path fill="none" stroke="#1414ce" d="M323.3,-215.88C310.09,-206.89 293.71,-195.76 279.39,-186.03"/>
<polygon fill="#1414ce" stroke="#1414ce" points="281.03,-182.92 270.79,-180.19 277.1,-188.71 281.03,-182.92"/>
</a>
</g>
</g>
<!-- 25&#45;&gt;14 -->
<g id="edge51" class="edge">
<title>25&#45;&gt;14</title>
<g id="a_edge51"><a xlink:title="include">
<path fill="none" stroke="#1414ce" d="M341.64,-215.83C332.84,-195.9 315.78,-163.29 291.5,-144 269.39,-126.43 240.99,-114.42 214.93,-106.35"/>
<polygon fill="#1414ce" stroke="#1414ce" points="215.66,-102.91 205.07,-103.44 213.68,-109.62 215.66,-102.91"/>
</a>
</g>
</g>
<!-- 25&#45;&gt;10 -->
<g id="edge52" class="edge">
<title>25&#45;&gt;10</title>
<g id="a_edge52"><a xlink:title="include">
<path fill="none" stroke="#1414ce" d="M391.66,-223.7C454.63,-210.14 570.89,-185.1 632.57,-171.81"/>
<polygon fill="#1414ce" stroke="#1414ce" points="633.31,-175.24 642.35,-169.71 631.84,-168.39 633.31,-175.24"/>
</a>
</g>
</g>
<!-- 25&#45;&gt;5 -->
<g id="edge48" class="edge">
<title>25&#45;&gt;5</title>
<g id="a_edge48"><a xlink:title="include">
<path fill="none" stroke="#1414ce" d="M353.85,-215.78C365.28,-182.12 395.43,-107.76 448.5,-72 490.32,-43.82 634.11,-28.57 709.13,-22.37"/>
<polygon fill="#1414ce" stroke="#1414ce" points="709.55,-25.85 719.24,-21.55 708.99,-18.87 709.55,-25.85"/>
</a>
</g>
</g>
<!-- 25&#45;&gt;7 -->
<g id="edge49" class="edge">
<title>25&#45;&gt;7</title>
<g id="a_edge49"><a xlink:title="include">
<path fill="none" stroke="#1414ce" d="M374.31,-215.87C412.79,-190.34 485.26,-142.25 528.17,-113.78"/>
<polygon fill="#1414ce" stroke="#1414ce" points="530.2,-116.63 536.6,-108.19 526.33,-110.8 530.2,-116.63"/>
</a>
</g>
</g>
<!-- 26 -->
<g id="node15" class="node">
<title>26</title>
<g id="a_node15"><a xlink:title="refc_binary.h">
<polygon fill="#ffffff" stroke="black" points="919.5,-396 811.5,-396 811.5,-360 919.5,-360 919.5,-396"/>
<text text-anchor="middle" x="865.5" y="-374.3" font-family="Times,serif" font-size="14.00">refc_binary.h</text>
</a>
</g>
</g>
<!-- 26&#45;&gt;19 -->
<g id="edge55" class="edge">
<title>26&#45;&gt;19</title>
<g id="a_edge55"><a xlink:title="include">
<path fill="none" stroke="#1414ce" d="M919.62,-364.1C992.1,-345.53 1123.4,-307.3 1225.5,-252 1258.71,-234.01 1292.39,-206.65 1314.64,-187.01"/>
<polygon fill="#1414ce" stroke="#1414ce" points="1317.18,-189.44 1322.3,-180.16 1312.51,-184.22 1317.18,-189.44"/>
</a>
</g>
</g>
<!-- 27 -->
<g id="node16" class="node">
<title>27</title>
<g id="a_node16"><a xlink:title="resources.h">
<polygon fill="#ffffff" stroke="black" points="915.5,-324 815.5,-324 815.5,-288 915.5,-288 915.5,-324"/>
<text text-anchor="middle" x="865.5" y="-302.3" font-family="Times,serif" font-size="14.00">resources.h</text>
</a>
</g>
</g>
<!-- 26&#45;&gt;27 -->
<g id="edge56" class="edge">
<title>26&#45;&gt;27</title>
<g id="a_edge56"><a xlink:title="include">
<path fill="none" stroke="#1414ce" d="M865.5,-359.7C865.5,-351.98 865.5,-342.71 865.5,-334.11"/>
<polygon fill="#1414ce" stroke="#1414ce" points="869,-334.1 865.5,-324.1 862,-334.1 869,-334.1"/>
</a>
</g>
</g>
<!-- 26&#45;&gt;9 -->
<g id="edge53" class="edge">
<title>26&#45;&gt;9</title>
<g id="a_edge53"><a xlink:title="include">
<path fill="none" stroke="#1414ce" d="M837.7,-359.87C825.73,-350.84 813,-338.59 806.5,-324 799.98,-309.39 799.95,-302.6 806.5,-288 837.69,-218.54 878.94,-226.16 939.5,-180 959.32,-164.89 961.4,-157.26 982.5,-144 1003.05,-131.08 1027.27,-119.57 1048.33,-110.6"/>
<polygon fill="#1414ce" stroke="#1414ce" points="1049.88,-113.75 1057.76,-106.67 1047.18,-107.29 1049.88,-113.75"/>
</a>
</g>
</g>
<!-- 26&#45;&gt;7 -->
<g id="edge54" class="edge">
<title>26&#45;&gt;7</title>
<g id="a_edge54"><a xlink:title="include">
<path fill="none" stroke="#1414ce" d="M827.87,-359.85C769.17,-331.14 656.28,-267.78 595.5,-180 582.5,-161.23 573.9,-136.7 568.75,-118.15"/>
<polygon fill="#1414ce" stroke="#1414ce" points="572.09,-117.06 566.18,-108.27 565.31,-118.83 572.09,-117.06"/>
</a>
</g>
</g>
<!-- 27&#45;&gt;13 -->
<g id="edge58" class="edge">
<title>27&#45;&gt;13</title>
<g id="a_edge58"><a xlink:title="include">
<path fill="none" stroke="#1414ce" d="M815.21,-302.95C684.22,-297.24 339.63,-279.74 296.5,-252 274.36,-237.76 260.79,-210.29 253.27,-189.62"/>
<polygon fill="#1414ce" stroke="#1414ce" points="256.57,-188.46 250.05,-180.11 249.94,-190.7 256.57,-188.46"/>
</a>
</g>
</g>
<!-- 27&#45;&gt;19 -->
<g id="edge59" class="edge">
<title>27&#45;&gt;19</title>
<g id="a_edge59"><a xlink:title="include">
<path fill="none" stroke="#1414ce" d="M915.56,-296.61C932.09,-293.85 950.58,-290.78 967.5,-288 1066.57,-271.75 1099.18,-293.72 1190.5,-252 1213.17,-241.64 1212.63,-229.63 1233.5,-216 1255.78,-201.45 1282.61,-188.17 1303.83,-178.54"/>
<polygon fill="#1414ce" stroke="#1414ce" points="1305.45,-181.65 1313.15,-174.38 1302.6,-175.26 1305.45,-181.65"/>
</a>
</g>
</g>
<!-- 27&#45;&gt;28 -->
<g id="edge60" class="edge">
<title>27&#45;&gt;28</title>
<g id="a_edge60"><a xlink:title="include">
<path fill="none" stroke="#1414ce" d="M900.97,-287.88C920.62,-278.39 945.22,-266.51 966.13,-256.42"/>
<polygon fill="#1414ce" stroke="#1414ce" points="967.66,-259.57 975.14,-252.07 964.62,-253.26 967.66,-259.57"/>
</a>
</g>
</g>
<!-- 27&#45;&gt;25 -->
<g id="edge61" class="edge">
<title>27&#45;&gt;25</title>
<g id="a_edge61"><a xlink:title="include">
<path fill="none" stroke="#1414ce" d="M815.46,-298.22C717.68,-284.99 502.08,-255.79 401.77,-242.21"/>
<polygon fill="#1414ce" stroke="#1414ce" points="401.94,-238.7 391.56,-240.83 401,-245.64 401.94,-238.7"/>
</a>
</g>
</g>
<!-- 27&#45;&gt;20 -->
<g id="edge62" class="edge">
<title>27&#45;&gt;20</title>
<g id="a_edge62"><a xlink:title="include">
<path fill="none" stroke="#1414ce" d="M915.82,-298.79C1022.55,-285.61 1270.75,-254.97 1379.67,-241.52"/>
<polygon fill="#1414ce" stroke="#1414ce" points="1380.27,-244.98 1389.76,-240.28 1379.41,-238.03 1380.27,-244.98"/>
</a>
</g>
</g>
<!-- 27&#45;&gt;7 -->
<g id="edge57" class="edge">
<title>27&#45;&gt;7</title>
<g id="a_edge57"><a xlink:title="include">
<path fill="none" stroke="#1414ce" d="M822.14,-287.94C773,-267.25 692.14,-228.98 633.5,-180 611.63,-161.73 591.87,-135.82 578.79,-116.66"/>
<polygon fill="#1414ce" stroke="#1414ce" points="581.55,-114.49 573.09,-108.12 575.73,-118.38 581.55,-114.49"/>
</a>
</g>
</g>
<!-- 21&#45;&gt;9 -->
<g id="edge63" class="edge">
<title>21&#45;&gt;9</title>
<g id="a_edge63"><a xlink:title="include">
<path fill="none" stroke="#1414ce" d="M1449.25,-151.88C1439.49,-149.12 1428.59,-146.24 1418.5,-144 1325.05,-123.28 1214.57,-106.65 1151.2,-97.85"/>
<polygon fill="#1414ce" stroke="#1414ce" points="1151.45,-94.35 1141.07,-96.46 1150.5,-101.29 1151.45,-94.35"/>
</a>
</g>
</g>
<!-- 20&#45;&gt;19 -->
<g id="edge65" class="edge">
<title>20&#45;&gt;19</title>
<g id="a_edge65"><a xlink:title="include">
<path fill="none" stroke="#1414ce" d="M1409.76,-215.7C1398.06,-206.8 1383.64,-195.82 1370.99,-186.2"/>
<polygon fill="#1414ce" stroke="#1414ce" points="1373.06,-183.37 1362.98,-180.1 1368.82,-188.94 1373.06,-183.37"/>
</a>
</g>
</g>
<!-- 20&#45;&gt;21 -->
<g id="edge66" class="edge">
<title>20&#45;&gt;21</title>
<g id="a_edge66"><a xlink:title="include">
<path fill="none" stroke="#1414ce" d="M1444.12,-215.7C1449.64,-207.47 1456.35,-197.48 1462.43,-188.42"/>
<polygon fill="#1414ce" stroke="#1414ce" points="1465.35,-190.36 1468.02,-180.1 1459.54,-186.46 1465.35,-190.36"/>
</a>
</g>
</g>
<!-- 12 -->
<g id="node31" class="node">
<title>12</title>
<g id="a_node31"><a xlink:title="stdio.h">
<polygon fill="#ffffff" stroke="black" points="706,-108 641,-108 641,-72 706,-72 706,-108"/>
<text text-anchor="middle" x="673.5" y="-86.3" font-family="Times,serif" font-size="14.00">stdio.h</text>
</a>
</g>
</g>
<!-- 20&#45;&gt;12 -->
<g id="edge64" class="edge">
<title>20&#45;&gt;12</title>
<g id="a_edge64"><a xlink:title="include">
<path fill="none" stroke="#1414ce" d="M1389.77,-229.98C1257.27,-220.52 860.76,-191.38 835.5,-180 814.29,-170.44 816.95,-156.77 797.5,-144 772.11,-127.32 740.59,-113.93 715.69,-104.78"/>
<polygon fill="#1414ce" stroke="#1414ce" points="716.75,-101.44 706.15,-101.37 714.39,-108.03 716.75,-101.44"/>
</a>
</g>
</g>
<!-- 22&#45;&gt;6 -->
<g id="edge73" class="edge">
<title>22&#45;&gt;6</title>
<g id="a_edge73"><a xlink:title="include">
<path fill="none" stroke="#1414ce" d="M663.28,-433.52C678.5,-424.65 695.42,-412.07 705.5,-396 748.61,-327.3 714.42,-294.31 735.5,-216 737.83,-207.36 741.03,-198.16 744.18,-189.9"/>
<polygon fill="#1414ce" stroke="#1414ce" points="747.53,-190.97 747.95,-180.38 741.02,-188.39 747.53,-190.97"/>
</a>
</g>
</g>
<!-- 22&#45;&gt;25 -->
<g id="edge74" class="edge">
<title>22&#45;&gt;25</title>
<g id="a_edge74"><a xlink:title="include">
<path fill="none" stroke="#1414ce" d="M597.8,-446.85C535.44,-442.04 403,-428.21 372.5,-396 338.43,-360.01 339.77,-297.78 344,-262.15"/>
<polygon fill="#1414ce" stroke="#1414ce" points="347.5,-262.38 345.37,-252 340.56,-261.45 347.5,-262.38"/>
</a>
</g>
</g>
<!-- 22&#45;&gt;26 -->
<g id="edge75" class="edge">
<title>22&#45;&gt;26</title>
<g id="a_edge75"><a xlink:title="include">
<path fill="none" stroke="#1414ce" d="M663.18,-439.27C698.89,-428.63 757.01,-411.32 801.81,-397.97"/>
<polygon fill="#1414ce" stroke="#1414ce" points="802.85,-401.31 811.44,-395.1 800.86,-394.6 802.85,-401.31"/>
</a>
</g>
</g>
<!-- 22&#45;&gt;14 -->
<g id="edge77" class="edge">
<title>22&#45;&gt;14</title>
<g id="a_edge77"><a xlink:title="include">
<path fill="none" stroke="#1414ce" d="M597.6,-448.99C542.78,-447.67 430.67,-439.36 348.5,-396 237.48,-337.41 212.42,-296.83 166.5,-180 158.52,-159.71 152.24,-135.8 148.1,-117.88"/>
<polygon fill="#1414ce" stroke="#1414ce" points="151.51,-117.09 145.92,-108.09 144.68,-118.61 151.51,-117.09"/>
</a>
</g>
</g>
<!-- 22&#45;&gt;10 -->
<g id="edge76" class="edge">
<title>22&#45;&gt;10</title>
<g id="a_edge76"><a xlink:title="include">
<path fill="none" stroke="#1414ce" d="M657.84,-431.77C669.61,-422.72 682.12,-410.48 688.5,-396 704.45,-359.82 687.38,-243.5 678.36,-190.17"/>
<polygon fill="#1414ce" stroke="#1414ce" points="681.77,-189.35 676.62,-180.09 674.87,-190.54 681.77,-189.35"/>
</a>
</g>
</g>
<!-- 22&#45;&gt;9 -->
<g id="edge68" class="edge">
<title>22&#45;&gt;9</title>
<g id="a_edge68"><a xlink:title="include">
<path fill="none" stroke="#1414ce" d="M663.25,-448.25C733.48,-445.87 894.92,-436.08 928.5,-396 954.19,-365.33 907.43,-251.69 925.5,-216 937.7,-191.89 952.97,-196.33 974.5,-180 995.19,-164.31 999.48,-159.24 1020.5,-144 1034.54,-133.82 1050.35,-123.07 1064.12,-113.94"/>
<polygon fill="#1414ce" stroke="#1414ce" points="1066.41,-116.62 1072.83,-108.19 1062.56,-110.78 1066.41,-116.62"/>
</a>
</g>
</g>
<!-- 22&#45;&gt;5 -->
<g id="edge69" class="edge">
<title>22&#45;&gt;5</title>
<g id="a_edge69"><a xlink:title="include">
<path fill="none" stroke="#1414ce" d="M597.95,-449.56C557,-448.33 487.78,-439.42 452.5,-396 402.02,-333.86 437.09,-292.86 459.5,-216 478.86,-149.6 465.64,-116.61 518.5,-72 546.9,-48.03 648.59,-31.94 709.15,-24.24"/>
<polygon fill="#1414ce" stroke="#1414ce" points="709.73,-27.7 719.22,-22.99 708.87,-20.75 709.73,-27.7"/>
</a>
</g>
</g>
<!-- 22&#45;&gt;12 -->
<g id="edge70" class="edge">
<title>22&#45;&gt;12</title>
<g id="a_edge70"><a xlink:title="include">
<path fill="none" stroke="#1414ce" d="M597.84,-447.66C562.74,-444.26 508.5,-432.93 482.5,-396 473.29,-382.92 477.69,-375.26 482.5,-360 515.1,-256.45 604.13,-158.78 648.15,-115.04"/>
<polygon fill="#1414ce" stroke="#1414ce" points="650.64,-117.51 655.32,-108 645.74,-112.51 650.64,-117.51"/>
</a>
</g>
</g>
<!-- 22&#45;&gt;7 -->
<g id="edge71" class="edge">
<title>22&#45;&gt;7</title>
<g id="a_edge71"><a xlink:title="include">
<path fill="none" stroke="#1414ce" d="M597.72,-448.53C560.41,-446.02 500.97,-435.58 472.5,-396 408.26,-306.69 498.56,-171.62 541.74,-116.14"/>
<polygon fill="#1414ce" stroke="#1414ce" points="544.52,-118.25 547.99,-108.24 539.04,-113.91 544.52,-118.25"/>
</a>
</g>
</g>
<!-- 24 -->
<g id="node33" class="node">
<title>24</title>
<g id="a_node33"><a xlink:title="string.h">
<polygon fill="#ffffff" stroke="black" points="564,-396 491,-396 491,-360 564,-360 564,-396"/>
<text text-anchor="middle" x="527.5" y="-374.3" font-family="Times,serif" font-size="14.00">string.h</text>
</a>
</g>
</g>
<!-- 22&#45;&gt;24 -->
<g id="edge72" class="edge">
<title>22&#45;&gt;24</title>
<g id="a_edge72"><a xlink:title="include">
<path fill="none" stroke="#1414ce" d="M605.3,-431.88C592.09,-422.89 575.71,-411.76 561.39,-402.03"/>
<polygon fill="#1414ce" stroke="#1414ce" points="563.03,-398.92 552.79,-396.19 559.1,-404.71 563.03,-398.92"/>
</a>
</g>
</g>
<!-- 23 -->
<g id="node34" class="node">
<title>23</title>
<g id="a_node34"><a xlink:title="sys/types.h">
<polygon fill="#ffffff" stroke="black" points="679,-396 582,-396 582,-360 679,-360 679,-396"/>
<text text-anchor="middle" x="630.5" y="-374.3" font-family="Times,serif" font-size="14.00">sys/types.h</text>
</a>
</g>
</g>
<!-- 22&#45;&gt;23 -->
<g id="edge67" class="edge">
<title>22&#45;&gt;23</title>
<g id="a_edge67"><a xlink:title="include">
<path fill="none" stroke="#1414ce" d="M630.5,-431.7C630.5,-423.98 630.5,-414.71 630.5,-406.11"/>
<polygon fill="#1414ce" stroke="#1414ce" points="634,-406.1 630.5,-396.1 627,-406.1 634,-406.1"/>
</a>
</g>
</g>
<!-- 15 -->
<g id="node25" class="node">
<title>15</title>
<g id="a_node25"><a xlink:title="assert.h">
<polygon fill="#ffffff" stroke="black" points="270.5,-36 196.5,-36 196.5,0 270.5,0 270.5,-36"/>
<text text-anchor="middle" x="233.5" y="-14.3" font-family="Times,serif" font-size="14.00">assert.h</text>
</a>
</g>
</g>
<!-- 14&#45;&gt;15 -->
<g id="edge78" class="edge">
<title>14&#45;&gt;15</title>
<g id="a_edge78"><a xlink:title="include">
<path fill="none" stroke="#1414ce" d="M164.99,-71.7C176.46,-62.88 190.56,-52.03 202.98,-42.47"/>
<polygon fill="#1414ce" stroke="#1414ce" points="205.47,-44.98 211.26,-36.1 201.2,-39.43 205.47,-44.98"/>
</a>
</g>
</g>
<!-- 17 -->
<g id="node26" class="node">
<title>17</title>
<g id="a_node26"><a xlink:title="inttypes.h">
<polygon fill="#ffffff" stroke="black" points="89,-36 0,-36 0,0 89,0 89,-36"/>
<text text-anchor="middle" x="44.5" y="-14.3" font-family="Times,serif" font-size="14.00">inttypes.h</text>
</a>
</g>
</g>
<!-- 14&#45;&gt;17 -->
<g id="edge80" class="edge">
<title>14&#45;&gt;17</title>
<g id="a_edge80"><a xlink:title="include">
<path fill="none" stroke="#1414ce" d="M118.53,-71.88C105.95,-62.89 90.37,-51.76 76.75,-42.03"/>
<polygon fill="#1414ce" stroke="#1414ce" points="78.74,-39.15 68.57,-36.19 74.67,-44.85 78.74,-39.15"/>
</a>
</g>
</g>
<!-- 16 -->
<g id="node27" class="node">
<title>16</title>
<g id="a_node27"><a xlink:title="limits.h">
<polygon fill="#ffffff" stroke="black" points="178,-36 107,-36 107,0 178,0 178,-36"/>
<text text-anchor="middle" x="142.5" y="-14.3" font-family="Times,serif" font-size="14.00">limits.h</text>
</a>
</g>
</g>
<!-- 14&#45;&gt;16 -->
<g id="edge79" class="edge">
<title>14&#45;&gt;16</title>
<g id="a_edge79"><a xlink:title="include">
<path fill="none" stroke="#1414ce" d="M142.5,-71.7C142.5,-63.98 142.5,-54.71 142.5,-46.11"/>
<polygon fill="#1414ce" stroke="#1414ce" points="146,-46.1 142.5,-36.1 139,-46.1 146,-46.1"/>
</a>
</g>
</g>
<!-- 14&#45;&gt;5 -->
<g id="edge81" class="edge">
<title>14&#45;&gt;5</title>
<g id="a_edge81"><a xlink:title="include">
<path fill="none" stroke="#1414ce" d="M205.42,-74.47C210.17,-73.57 214.9,-72.73 219.5,-72 399.34,-43.36 615.74,-27.62 709.01,-21.73"/>
<polygon fill="#1414ce" stroke="#1414ce" points="709.47,-25.21 719.24,-21.09 709.04,-18.22 709.47,-25.21"/>
</a>
</g>
</g>
<!-- 29&#45;&gt;19 -->
<g id="edge84" class="edge">
<title>29&#45;&gt;19</title>
<g id="a_edge84"><a xlink:title="include">
<path fill="none" stroke="#1414ce" d="M1531.42,-219.64C1484.35,-206.77 1416.67,-188.09 1390.5,-180 1386.2,-178.67 1381.7,-177.22 1377.25,-175.75"/>
<polygon fill="#1414ce" stroke="#1414ce" points="1378.25,-172.4 1367.66,-172.54 1376.03,-179.04 1378.25,-172.4"/>
</a>
</g>
</g>
<!-- 29&#45;&gt;9 -->
<g id="edge82" class="edge">
<title>29&#45;&gt;9</title>
<g id="a_edge82"><a xlink:title="include">
<path fill="none" stroke="#1414ce" d="M1531.49,-216.49C1504.27,-206.82 1470.05,-193.81 1440.5,-180 1410.93,-166.18 1407.15,-155.21 1376.5,-144 1300.96,-116.37 1208.31,-102.37 1151.61,-95.89"/>
<polygon fill="#1414ce" stroke="#1414ce" points="1151.78,-92.39 1141.45,-94.77 1151.01,-99.35 1151.78,-92.39"/>
</a>
</g>
</g>
<!-- 29&#45;&gt;5 -->
<g id="edge83" class="edge">
<title>29&#45;&gt;5</title>
<g id="a_edge83"><a xlink:title="include">
<path fill="none" stroke="#1414ce" d="M1573.45,-215.9C1564.08,-195.39 1545.47,-161.59 1518.5,-144 1398.54,-65.78 948.47,-31.11 801.93,-21.74"/>
<polygon fill="#1414ce" stroke="#1414ce" points="802.11,-18.24 791.91,-21.1 801.67,-25.23 802.11,-18.24"/>
</a>
</g>
</g>
<!-- 33&#45;&gt;9 -->
<g id="edge85" class="edge">
<title>33&#45;&gt;9</title>
<g id="a_edge85"><a xlink:title="include">
<path fill="none" stroke="#1414ce" d="M930.66,-146.75C964.63,-135.53 1012.08,-119.86 1048.03,-107.99"/>
<polygon fill="#1414ce" stroke="#1414ce" points="1049.45,-111.21 1057.85,-104.75 1047.25,-104.57 1049.45,-111.21"/>
</a>
</g>
</g>
<!-- 11 -->
<g id="node29" class="node">
<title>11</title>
<g id="a_node29"><a xlink:title="stddef.h">
<polygon fill="#ffffff" stroke="black" points="859.5,-108 785.5,-108 785.5,-72 859.5,-72 859.5,-108"/>
<text text-anchor="middle" x="822.5" y="-86.3" font-family="Times,serif" font-size="14.00">stddef.h</text>
</a>
</g>
</g>
<!-- 33&#45;&gt;11 -->
<g id="edge86" class="edge">
<title>33&#45;&gt;11</title>
<g id="a_edge86"><a xlink:title="include">
<path fill="none" stroke="#1414ce" d="M871.43,-143.7C863.56,-135.22 853.94,-124.86 845.33,-115.58"/>
<polygon fill="#1414ce" stroke="#1414ce" points="847.75,-113.05 838.38,-108.1 842.62,-117.81 847.75,-113.05"/>
</a>
</g>
</g>
<!-- 33&#45;&gt;5 -->
<g id="edge87" class="edge">
<title>33&#45;&gt;5</title>
<g id="a_edge87"><a xlink:title="include">
<path fill="none" stroke="#1414ce" d="M888.16,-143.7C888,-124.24 884.91,-92.66 868.5,-72 851.81,-50.99 824.84,-37.91 801.42,-30"/>
<polygon fill="#1414ce" stroke="#1414ce" points="802.24,-26.58 791.65,-26.91 800.13,-33.26 802.24,-26.58"/>
</a>
</g>
</g>
<!-- 10&#45;&gt;11 -->
<g id="edge88" class="edge">
<title>10&#45;&gt;11</title>
<g id="a_edge88"><a xlink:title="include">
<path fill="none" stroke="#1414ce" d="M704.74,-146.33C725.68,-136.49 753.6,-123.37 777,-112.37"/>
<polygon fill="#1414ce" stroke="#1414ce" points="778.49,-115.54 786.05,-108.12 775.52,-109.21 778.49,-115.54"/>
</a>
</g>
</g>
<!-- 10&#45;&gt;12 -->
<g id="edge89" class="edge">
<title>10&#45;&gt;12</title>
<g id="a_edge89"><a xlink:title="include">
<path fill="none" stroke="#1414ce" d="M673.5,-143.7C673.5,-135.98 673.5,-126.71 673.5,-118.11"/>
<polygon fill="#1414ce" stroke="#1414ce" points="677,-118.1 673.5,-108.1 670,-118.1 677,-118.1"/>
</a>
</g>
</g>
<!-- 10&#45;&gt;7 -->
<g id="edge90" class="edge">
<title>10&#45;&gt;7</title>
<g id="a_edge90"><a xlink:title="include">
<path fill="none" stroke="#1414ce" d="M646.35,-143.88C631.97,-134.81 614.12,-123.55 598.59,-113.76"/>
<polygon fill="#1414ce" stroke="#1414ce" points="600.08,-110.56 589.76,-108.19 596.35,-116.48 600.08,-110.56"/>
</a>
</g>
</g>
<!-- 30&#45;&gt;11 -->
<g id="edge91" class="edge">
<title>30&#45;&gt;11</title>
<g id="a_edge91"><a xlink:title="include">
<path fill="none" stroke="#1414ce" d="M1729.27,-155.96C1594.66,-146.66 1298.83,-126.11 1049.5,-108 987.52,-103.5 916.03,-98.11 870.1,-94.63"/>
<polygon fill="#1414ce" stroke="#1414ce" points="870.09,-91.12 859.85,-93.85 869.56,-98.1 870.09,-91.12"/>
</a>
</g>
</g>
<!-- 30&#45;&gt;5 -->
<g id="edge92" class="edge">
<title>30&#45;&gt;5</title>
<g id="a_edge92"><a xlink:title="include">
<path fill="none" stroke="#1414ce" d="M1791.73,-143.87C1777.3,-122.66 1749.54,-87.45 1715.5,-72 1631.85,-34.05 982.32,-22.18 801.87,-19.59"/>
<polygon fill="#1414ce" stroke="#1414ce" points="801.7,-16.09 791.65,-19.45 801.6,-23.09 801.7,-16.09"/>
</a>
</g>
</g>
</g>
</svg>
