<?xml version="1.0" encoding="UTF-8" standalone="no"?>
<!DOCTYPE svg PUBLIC "-//W3C//DTD SVG 1.1//EN"
 "http://www.w3.org/Graphics/SVG/1.1/DTD/svg11.dtd">
<!-- Generated by graphviz version 2.43.0 (0)
 -->
<!-- Title: %3 Pages: 1 -->
<svg width="1449pt" height="620pt"
 viewBox="0.00 0.00 1449.00 620.00" xmlns="http://www.w3.org/2000/svg" xmlns:xlink="http://www.w3.org/1999/xlink">
<g id="graph0" class="graph" transform="scale(1 1) rotate(0) translate(4 616)">
<title>%3</title>
<polygon fill="transparent" stroke="transparent" points="-4,4 -4,-616 1445,-616 1445,4 -4,4"/>
<!-- 3 -->
<g id="node1" class="node">
<title>3</title>
<g id="a_node1"><a xlink:title="atom.h">
<polygon fill="#ffffff" stroke="black" points="230,-180 164,-180 164,-144 230,-144 230,-180"/>
<text text-anchor="middle" x="197" y="-158.3" font-family="Times,serif" font-size="14.00">atom.h</text>
</a>
</g>
</g>
<!-- 2 -->
<g id="node23" class="node">
<title>2</title>
<g id="a_node23"><a xlink:title="stdint.h">
<polygon fill="#ffffff" stroke="black" points="631,-36 559,-36 559,0 631,0 631,-36"/>
<text text-anchor="middle" x="595" y="-14.3" font-family="Times,serif" font-size="14.00">stdint.h</text>
</a>
</g>
</g>
<!-- 3&#45;&gt;2 -->
<g id="edge1" class="edge">
<title>3&#45;&gt;2</title>
<g id="a_edge1"><a xlink:title="include">
<path fill="none" stroke="#1414ce" d="M201.05,-143.8C206.85,-123.2 219.64,-89.3 244,-72 292.18,-37.79 465.11,-25.1 548.88,-20.88"/>
<polygon fill="#1414ce" stroke="#1414ce" points="549.06,-24.37 558.88,-20.39 548.72,-17.38 549.06,-24.37"/>
</a>
</g>
</g>
<!-- 4 -->
<g id="node25" class="node">
<title>4</title>
<g id="a_node25"><a xlink:title="stdlib.h">
<polygon fill="#ffffff" stroke="black" points="401.5,-108 330.5,-108 330.5,-72 401.5,-72 401.5,-108"/>
<text text-anchor="middle" x="366" y="-86.3" font-family="Times,serif" font-size="14.00">stdlib.h</text>
</a>
</g>
</g>
<!-- 3&#45;&gt;4 -->
<g id="edge2" class="edge">
<title>3&#45;&gt;4</title>
<g id="a_edge2"><a xlink:title="include">
<path fill="none" stroke="#1414ce" d="M230.39,-147.17C256.32,-136.43 292.53,-121.43 321.01,-109.64"/>
<polygon fill="#1414ce" stroke="#1414ce" points="322.45,-112.83 330.35,-105.77 319.77,-106.36 322.45,-112.83"/>
</a>
</g>
</g>
<!-- 5 -->
<g id="node2" class="node">
<title>5</title>
<g id="a_node2"><a xlink:title="atom_table.h">
<polygon fill="#ffffff" stroke="black" points="471.5,-252 362.5,-252 362.5,-216 471.5,-216 471.5,-252"/>
<text text-anchor="middle" x="417" y="-230.3" font-family="Times,serif" font-size="14.00">atom_table.h</text>
</a>
</g>
</g>
<!-- 5&#45;&gt;3 -->
<g id="edge4" class="edge">
<title>5&#45;&gt;3</title>
<g id="a_edge4"><a xlink:title="include">
<path fill="none" stroke="#1414ce" d="M363.46,-215.97C325.45,-203.87 275.09,-187.85 239.75,-176.6"/>
<polygon fill="#1414ce" stroke="#1414ce" points="240.79,-173.26 230.2,-173.56 238.67,-179.93 240.79,-173.26"/>
</a>
</g>
</g>
<!-- 7 -->
<g id="node16" class="node">
<title>7</title>
<g id="a_node16"><a xlink:title="utils.h">
<polygon fill="#ffffff" stroke="black" points="435,-180 373,-180 373,-144 435,-144 435,-180"/>
<text text-anchor="middle" x="404" y="-158.3" font-family="Times,serif" font-size="14.00">utils.h</text>
</a>
</g>
</g>
<!-- 5&#45;&gt;7 -->
<g id="edge5" class="edge">
<title>5&#45;&gt;7</title>
<g id="a_edge5"><a xlink:title="include">
<path fill="none" stroke="#1414ce" d="M413.79,-215.7C412.35,-207.98 410.63,-198.71 409.04,-190.11"/>
<polygon fill="#1414ce" stroke="#1414ce" points="412.44,-189.3 407.18,-180.1 405.56,-190.58 412.44,-189.3"/>
</a>
</g>
</g>
<!-- 6 -->
<g id="node21" class="node">
<title>6</title>
<g id="a_node21"><a xlink:title="stdbool.h">
<polygon fill="#ffffff" stroke="black" points="1014.5,-108 931.5,-108 931.5,-72 1014.5,-72 1014.5,-108"/>
<text text-anchor="middle" x="973" y="-86.3" font-family="Times,serif" font-size="14.00">stdbool.h</text>
</a>
</g>
</g>
<!-- 5&#45;&gt;6 -->
<g id="edge3" class="edge">
<title>5&#45;&gt;6</title>
<g id="a_edge3"><a xlink:title="include">
<path fill="none" stroke="#1414ce" d="M459.21,-215.9C509.26,-196.18 595.55,-163.93 672,-144 758.15,-121.54 860.68,-105.75 921.1,-97.54"/>
<polygon fill="#1414ce" stroke="#1414ce" points="921.71,-100.99 931.16,-96.19 920.78,-94.05 921.71,-100.99"/>
</a>
</g>
</g>
<!-- 10 -->
<g id="node3" class="node">
<title>10</title>
<g id="a_node3"><a xlink:title="erl_nif.h">
<polygon fill="#ffffff" stroke="black" points="755,-180 681,-180 681,-144 755,-144 755,-180"/>
<text text-anchor="middle" x="718" y="-158.3" font-family="Times,serif" font-size="14.00">erl_nif.h</text>
</a>
</g>
</g>
<!-- 11 -->
<g id="node14" class="node">
<title>11</title>
<g id="a_node14"><a xlink:title="term_typedef.h">
<polygon fill="#ffffff" stroke="black" points="799.5,-108 674.5,-108 674.5,-72 799.5,-72 799.5,-108"/>
<text text-anchor="middle" x="737" y="-86.3" font-family="Times,serif" font-size="14.00">term_typedef.h</text>
</a>
</g>
</g>
<!-- 10&#45;&gt;11 -->
<g id="edge6" class="edge">
<title>10&#45;&gt;11</title>
<g id="a_edge6"><a xlink:title="include">
<path fill="none" stroke="#1414ce" d="M722.7,-143.7C724.81,-135.9 727.36,-126.51 729.72,-117.83"/>
<polygon fill="#1414ce" stroke="#1414ce" points="733.12,-118.67 732.36,-108.1 726.36,-116.84 733.12,-118.67"/>
</a>
</g>
</g>
<!-- 15 -->
<g id="node4" class="node">
<title>15</title>
<g id="a_node4"><a xlink:title="ets.h">
<polygon fill="#ffffff" stroke="black" points="1143,-540 1089,-540 1089,-504 1143,-504 1143,-540"/>
<text text-anchor="middle" x="1116" y="-518.3" font-family="Times,serif" font-size="14.00">ets.h</text>
</a>
</g>
</g>
<!-- 16 -->
<g id="node6" class="node">
<title>16</title>
<g id="a_node6"><a xlink:title="list.h">
<polygon fill="#ffffff" stroke="black" points="1077,-180 1023,-180 1023,-144 1077,-144 1077,-180"/>
<text text-anchor="middle" x="1050" y="-158.3" font-family="Times,serif" font-size="14.00">list.h</text>
</a>
</g>
</g>
<!-- 15&#45;&gt;16 -->
<g id="edge7" class="edge">
<title>15&#45;&gt;16</title>
<g id="a_edge7"><a xlink:title="include">
<path fill="none" stroke="#1414ce" d="M1123.72,-503.74C1148.79,-446.56 1224.37,-264.19 1191,-216 1187.85,-211.46 1127.37,-189.8 1086.65,-175.61"/>
<polygon fill="#1414ce" stroke="#1414ce" points="1087.62,-172.25 1077.03,-172.27 1085.32,-178.86 1087.62,-172.25"/>
</a>
</g>
</g>
<!-- 17 -->
<g id="node12" class="node">
<title>17</title>
<g id="a_node12"><a xlink:title="synclist.h">
<polygon fill="#ffffff" stroke="black" points="1182.5,-252 1097.5,-252 1097.5,-216 1182.5,-216 1182.5,-252"/>
<text text-anchor="middle" x="1140" y="-230.3" font-family="Times,serif" font-size="14.00">synclist.h</text>
</a>
</g>
</g>
<!-- 15&#45;&gt;17 -->
<g id="edge8" class="edge">
<title>15&#45;&gt;17</title>
<g id="a_edge8"><a xlink:title="include">
<path fill="none" stroke="#1414ce" d="M1114.5,-503.85C1111.51,-465.02 1106.29,-367.57 1121,-288 1122.62,-279.25 1125.49,-270.03 1128.51,-261.77"/>
<polygon fill="#1414ce" stroke="#1414ce" points="1131.84,-262.86 1132.21,-252.27 1125.32,-260.32 1131.84,-262.86"/>
</a>
</g>
</g>
<!-- 19 -->
<g id="node13" class="node">
<title>19</title>
<g id="a_node13"><a xlink:title="term.h">
<polygon fill="#ffffff" stroke="black" points="648.5,-468 583.5,-468 583.5,-432 648.5,-432 648.5,-468"/>
<text text-anchor="middle" x="616" y="-446.3" font-family="Times,serif" font-size="14.00">term.h</text>
</a>
</g>
</g>
<!-- 15&#45;&gt;19 -->
<g id="edge9" class="edge">
<title>15&#45;&gt;19</title>
<g id="a_edge9"><a xlink:title="include">
<path fill="none" stroke="#1414ce" d="M1088.76,-517.19C1006.29,-505.64 758.85,-471 658.74,-456.98"/>
<polygon fill="#1414ce" stroke="#1414ce" points="659.06,-453.5 648.68,-455.57 658.09,-460.43 659.06,-453.5"/>
</a>
</g>
</g>
<!-- 1 -->
<g id="node5" class="node">
<title>1</title>
<g id="a_node5"><a xlink:title="/__w/AtomVM/AtomVM/src/libAtomVM/globalcontext.h">
<polygon fill="#bfbfbf" stroke="black" points="1347,-612 943,-612 943,-576 1347,-576 1347,-612"/>
<text text-anchor="middle" x="1145" y="-590.3" font-family="Times,serif" font-size="14.00">/__w/AtomVM/AtomVM/src/libAtomVM/globalcontext.h</text>
</a>
</g>
</g>
<!-- 1&#45;&gt;3 -->
<g id="edge11" class="edge">
<title>1&#45;&gt;3</title>
<g id="a_edge11"><a xlink:title="include">
<path fill="none" stroke="#1414ce" d="M942.86,-584.06C766.72,-575.15 525.17,-559.94 431,-540 316.03,-515.65 182,-568.52 182,-451 182,-451 182,-451 182,-305 182,-264.99 187.96,-219 192.37,-190.46"/>
<polygon fill="#1414ce" stroke="#1414ce" points="195.85,-190.85 193.96,-180.43 188.94,-189.75 195.85,-190.85"/>
</a>
</g>
</g>
<!-- 1&#45;&gt;5 -->
<g id="edge12" class="edge">
<title>1&#45;&gt;5</title>
<g id="a_edge12"><a xlink:title="include">
<path fill="none" stroke="#1414ce" d="M942.96,-577.25C702.76,-555.75 334,-512.69 334,-451 334,-451 334,-451 334,-377 334,-330.74 367.24,-286.16 391.65,-259.66"/>
<polygon fill="#1414ce" stroke="#1414ce" points="394.24,-262.02 398.58,-252.36 389.16,-257.2 394.24,-262.02"/>
</a>
</g>
</g>
<!-- 1&#45;&gt;10 -->
<g id="edge13" class="edge">
<title>1&#45;&gt;10</title>
<g id="a_edge13"><a xlink:title="include">
<path fill="none" stroke="#1414ce" d="M1159,-575.82C1178.37,-550.26 1211,-499.93 1211,-451 1211,-451 1211,-451 1211,-377 1211,-235.37 1067.65,-268.21 936,-216 869.45,-189.61 848.39,-197.61 779,-180 774.38,-178.83 769.58,-177.56 764.78,-176.28"/>
<polygon fill="#1414ce" stroke="#1414ce" points="765.59,-172.87 755.02,-173.61 763.75,-179.62 765.59,-172.87"/>
</a>
</g>
</g>
<!-- 1&#45;&gt;15 -->
<g id="edge14" class="edge">
<title>1&#45;&gt;15</title>
<g id="a_edge14"><a xlink:title="include">
<path fill="none" stroke="#1414ce" d="M1137.83,-575.7C1134.57,-567.81 1130.63,-558.3 1127,-549.55"/>
<polygon fill="#1414ce" stroke="#1414ce" points="1130.15,-548 1123.09,-540.1 1123.68,-550.68 1130.15,-548"/>
</a>
</g>
</g>
<!-- 1&#45;&gt;16 -->
<g id="edge15" class="edge">
<title>1&#45;&gt;16</title>
<g id="a_edge15"><a xlink:title="include">
<path fill="none" stroke="#1414ce" d="M1182.1,-575.93C1197.41,-567.17 1214.09,-555.14 1225,-540 1248.96,-506.77 1249,-491.97 1249,-451 1249,-451 1249,-451 1249,-305 1249,-261.81 1241.94,-245.07 1210,-216 1172.27,-181.66 1149.42,-196.07 1101,-180 1096.42,-178.48 1091.62,-176.88 1086.86,-175.3"/>
<polygon fill="#1414ce" stroke="#1414ce" points="1087.85,-171.94 1077.26,-172.1 1085.64,-178.58 1087.85,-171.94"/>
</a>
</g>
</g>
<!-- 25 -->
<g id="node7" class="node">
<title>25</title>
<g id="a_node7"><a xlink:title="mailbox.h">
<polygon fill="#ffffff" stroke="black" points="927,-252 841,-252 841,-216 927,-216 927,-252"/>
<text text-anchor="middle" x="884" y="-230.3" font-family="Times,serif" font-size="14.00">mailbox.h</text>
</a>
</g>
</g>
<!-- 1&#45;&gt;25 -->
<g id="edge16" class="edge">
<title>1&#45;&gt;25</title>
<g id="a_edge16"><a xlink:title="include">
<path fill="none" stroke="#1414ce" d="M1116.31,-575.86C1103.39,-566.75 1089.04,-554.44 1080,-540 1058.44,-505.55 1059,-491.64 1059,-451 1059,-451 1059,-451 1059,-377 1059,-313.28 988.17,-273.16 936.64,-252.41"/>
<polygon fill="#1414ce" stroke="#1414ce" points="937.85,-249.12 927.26,-248.76 935.31,-255.65 937.85,-249.12"/>
</a>
</g>
</g>
<!-- 18 -->
<g id="node11" class="node">
<title>18</title>
<g id="a_node11"><a xlink:title="smp.h">
<polygon fill="#ffffff" stroke="black" points="1170,-180 1110,-180 1110,-144 1170,-144 1170,-180"/>
<text text-anchor="middle" x="1140" y="-158.3" font-family="Times,serif" font-size="14.00">smp.h</text>
</a>
</g>
</g>
<!-- 1&#45;&gt;18 -->
<g id="edge17" class="edge">
<title>1&#45;&gt;18</title>
<g id="a_edge17"><a xlink:title="include">
<path fill="none" stroke="#1414ce" d="M1209.27,-575.99C1228.92,-567.96 1249.01,-556.41 1263,-540 1289.58,-508.83 1287,-491.97 1287,-451 1287,-451 1287,-451 1287,-305 1287,-264.03 1290.1,-246.72 1263,-216 1237.12,-186.66 1216.8,-195.57 1179.43,-181.6"/>
<polygon fill="#1414ce" stroke="#1414ce" points="1180.69,-178.34 1170.11,-177.77 1178.03,-184.81 1180.69,-178.34"/>
</a>
</g>
</g>
<!-- 1&#45;&gt;17 -->
<g id="edge18" class="edge">
<title>1&#45;&gt;17</title>
<g id="a_edge18"><a xlink:title="include">
<path fill="none" stroke="#1414ce" d="M1150.67,-575.73C1158.85,-549.21 1173,-496.73 1173,-451 1173,-451 1173,-451 1173,-377 1173,-335.97 1159.77,-289.97 1150.06,-261.74"/>
<polygon fill="#1414ce" stroke="#1414ce" points="1153.32,-260.45 1146.68,-252.19 1146.72,-262.78 1153.32,-260.45"/>
</a>
</g>
</g>
<!-- 1&#45;&gt;19 -->
<g id="edge19" class="edge">
<title>1&#45;&gt;19</title>
<g id="a_edge19"><a xlink:title="include">
<path fill="none" stroke="#1414ce" d="M1081.45,-575.94C972.17,-546.61 751.46,-487.36 658.65,-462.45"/>
<polygon fill="#1414ce" stroke="#1414ce" points="659.33,-459.01 648.76,-459.79 657.51,-465.77 659.33,-459.01"/>
</a>
</g>
</g>
<!-- 26 -->
<g id="node15" class="node">
<title>26</title>
<g id="a_node15"><a xlink:title="timer_list.h">
<polygon fill="#ffffff" stroke="black" points="1413,-252 1315,-252 1315,-216 1413,-216 1413,-252"/>
<text text-anchor="middle" x="1364" y="-230.3" font-family="Times,serif" font-size="14.00">timer_list.h</text>
</a>
</g>
</g>
<!-- 1&#45;&gt;26 -->
<g id="edge20" class="edge">
<title>1&#45;&gt;26</title>
<g id="a_edge20"><a xlink:title="include">
<path fill="none" stroke="#1414ce" d="M1233.91,-575.92C1257.72,-568.04 1282.07,-556.59 1301,-540 1334.19,-510.92 1345,-495.13 1345,-451 1345,-451 1345,-451 1345,-377 1345,-336.86 1352.55,-290.9 1358.13,-262.4"/>
<polygon fill="#1414ce" stroke="#1414ce" points="1361.61,-262.88 1360.16,-252.39 1354.74,-261.5 1361.61,-262.88"/>
</a>
</g>
</g>
<!-- 27 -->
<g id="node17" class="node">
<title>27</title>
<g id="a_node17"><a xlink:title="valueshashtable.h">
<polygon fill="#ffffff" stroke="black" points="146,-180 0,-180 0,-144 146,-144 146,-180"/>
<text text-anchor="middle" x="73" y="-158.3" font-family="Times,serif" font-size="14.00">valueshashtable.h</text>
</a>
</g>
</g>
<!-- 1&#45;&gt;27 -->
<g id="edge21" class="edge">
<title>1&#45;&gt;27</title>
<g id="a_edge21"><a xlink:title="include">
<path fill="none" stroke="#1414ce" d="M942.88,-589.47C684.36,-583.77 261.99,-569.97 196,-540 145.63,-517.13 109,-506.32 109,-451 109,-451 109,-451 109,-305 109,-263.78 94.57,-217.83 83.98,-189.66"/>
<polygon fill="#1414ce" stroke="#1414ce" points="87.16,-188.19 80.29,-180.13 80.64,-190.72 87.16,-188.19"/>
</a>
</g>
</g>
<!-- 1&#45;&gt;2 -->
<g id="edge10" class="edge">
<title>1&#45;&gt;2</title>
<g id="a_edge10"><a xlink:title="include">
<path fill="none" stroke="#1414ce" d="M1296.03,-576C1369.01,-558.48 1441,-522.96 1441,-451 1441,-451 1441,-451 1441,-161 1441,-53.25 773.35,-56.63 641.24,-35.55"/>
<polygon fill="#1414ce" stroke="#1414ce" points="641.55,-32.04 631.08,-33.64 640.26,-38.92 641.55,-32.04"/>
</a>
</g>
</g>
<!-- 16&#45;&gt;6 -->
<g id="edge22" class="edge">
<title>16&#45;&gt;6</title>
<g id="a_edge22"><a xlink:title="include">
<path fill="none" stroke="#1414ce" d="M1030.97,-143.7C1021.46,-135.05 1009.79,-124.45 999.43,-115.03"/>
<polygon fill="#1414ce" stroke="#1414ce" points="1001.57,-112.24 991.81,-108.1 996.86,-117.42 1001.57,-112.24"/>
</a>
</g>
</g>
<!-- 25&#45;&gt;16 -->
<g id="edge24" class="edge">
<title>25&#45;&gt;16</title>
<g id="a_edge24"><a xlink:title="include">
<path fill="none" stroke="#1414ce" d="M924.61,-215.88C951.79,-204.41 987.27,-189.45 1013.55,-178.37"/>
<polygon fill="#1414ce" stroke="#1414ce" points="1014.93,-181.59 1022.78,-174.48 1012.21,-175.14 1014.93,-181.59"/>
</a>
</g>
</g>
<!-- 25&#45;&gt;11 -->
<g id="edge25" class="edge">
<title>25&#45;&gt;11</title>
<g id="a_edge25"><a xlink:title="include">
<path fill="none" stroke="#1414ce" d="M868,-215.91C850.82,-197.71 822.53,-168.27 797,-144 786.65,-134.16 774.93,-123.67 764.62,-114.65"/>
<polygon fill="#1414ce" stroke="#1414ce" points="766.9,-111.99 757.05,-108.07 762.3,-117.27 766.9,-111.99"/>
</a>
</g>
</g>
<!-- 25&#45;&gt;7 -->
<g id="edge26" class="edge">
<title>25&#45;&gt;7</title>
<g id="a_edge26"><a xlink:title="include">
<path fill="none" stroke="#1414ce" d="M840.98,-226.73C749.23,-213.35 535.38,-182.16 445.24,-169.01"/>
<polygon fill="#1414ce" stroke="#1414ce" points="445.53,-165.52 435.13,-167.54 444.52,-172.45 445.53,-165.52"/>
</a>
</g>
</g>
<!-- 25&#45;&gt;6 -->
<g id="edge23" class="edge">
<title>25&#45;&gt;6</title>
<g id="a_edge23"><a xlink:title="include">
<path fill="none" stroke="#1414ce" d="M894.74,-215.87C910.17,-191.24 938.76,-145.64 956.78,-116.88"/>
<polygon fill="#1414ce" stroke="#1414ce" points="959.88,-118.52 962.23,-108.19 953.95,-114.8 959.88,-118.52"/>
</a>
</g>
</g>
<!-- 22 -->
<g id="node8" class="node">
<title>22</title>
<g id="a_node8"><a xlink:title="memory.h">
<polygon fill="#ffffff" stroke="black" points="690,-252 604,-252 604,-216 690,-216 690,-252"/>
<text text-anchor="middle" x="647" y="-230.3" font-family="Times,serif" font-size="14.00">memory.h</text>
</a>
</g>
</g>
<!-- 22&#45;&gt;10 -->
<g id="edge29" class="edge">
<title>22&#45;&gt;10</title>
<g id="a_edge29"><a xlink:title="include">
<path fill="none" stroke="#1414ce" d="M664.55,-215.7C673.23,-207.14 683.86,-196.66 693.35,-187.3"/>
<polygon fill="#1414ce" stroke="#1414ce" points="695.99,-189.62 700.65,-180.1 691.07,-184.63 695.99,-189.62"/>
</a>
</g>
</g>
<!-- 22&#45;&gt;11 -->
<g id="edge30" class="edge">
<title>22&#45;&gt;11</title>
<g id="a_edge30"><a xlink:title="include">
<path fill="none" stroke="#1414ce" d="M648.68,-216C651.22,-197.09 657.39,-166.28 672,-144 679.51,-132.55 690.27,-122.36 700.88,-114.05"/>
<polygon fill="#1414ce" stroke="#1414ce" points="702.98,-116.85 708.91,-108.07 698.8,-111.24 702.98,-116.85"/>
</a>
</g>
</g>
<!-- 22&#45;&gt;7 -->
<g id="edge31" class="edge">
<title>22&#45;&gt;7</title>
<g id="a_edge31"><a xlink:title="include">
<path fill="none" stroke="#1414ce" d="M603.84,-220.57C558.92,-207.63 489.1,-187.51 445,-174.81"/>
<polygon fill="#1414ce" stroke="#1414ce" points="445.77,-171.39 435.19,-171.98 443.83,-178.12 445.77,-171.39"/>
</a>
</g>
</g>
<!-- 22&#45;&gt;2 -->
<g id="edge27" class="edge">
<title>22&#45;&gt;2</title>
<g id="a_edge27"><a xlink:title="include">
<path fill="none" stroke="#1414ce" d="M642.83,-215.85C633.82,-178.75 612.45,-90.81 601.59,-46.1"/>
<polygon fill="#1414ce" stroke="#1414ce" points="604.95,-45.12 599.19,-36.23 598.15,-46.78 604.95,-45.12"/>
</a>
</g>
</g>
<!-- 22&#45;&gt;4 -->
<g id="edge28" class="edge">
<title>22&#45;&gt;4</title>
<g id="a_edge28"><a xlink:title="include">
<path fill="none" stroke="#1414ce" d="M615.22,-215.92C581.2,-197.73 525.56,-168.3 477,-144 455.4,-133.19 431.22,-121.59 410.96,-112.01"/>
<polygon fill="#1414ce" stroke="#1414ce" points="412.19,-108.72 401.65,-107.62 409.2,-115.05 412.19,-108.72"/>
</a>
</g>
</g>
<!-- 23 -->
<g id="node9" class="node">
<title>23</title>
<g id="a_node9"><a xlink:title="refc_binary.h">
<polygon fill="#ffffff" stroke="black" points="970,-396 862,-396 862,-360 970,-360 970,-396"/>
<text text-anchor="middle" x="916" y="-374.3" font-family="Times,serif" font-size="14.00">refc_binary.h</text>
</a>
</g>
</g>
<!-- 23&#45;&gt;16 -->
<g id="edge34" class="edge">
<title>23&#45;&gt;16</title>
<g id="a_edge34"><a xlink:title="include">
<path fill="none" stroke="#1414ce" d="M943.88,-359.8C957.12,-350.51 972.35,-338.07 983,-324 1014.46,-282.44 1033.91,-223.95 1043.28,-190.11"/>
<polygon fill="#1414ce" stroke="#1414ce" points="1046.66,-191.01 1045.86,-180.44 1039.9,-189.2 1046.66,-191.01"/>
</a>
</g>
</g>
<!-- 24 -->
<g id="node10" class="node">
<title>24</title>
<g id="a_node10"><a xlink:title="resources.h">
<polygon fill="#ffffff" stroke="black" points="941,-324 841,-324 841,-288 941,-288 941,-324"/>
<text text-anchor="middle" x="891" y="-302.3" font-family="Times,serif" font-size="14.00">resources.h</text>
</a>
</g>
</g>
<!-- 23&#45;&gt;24 -->
<g id="edge35" class="edge">
<title>23&#45;&gt;24</title>
<g id="a_edge35"><a xlink:title="include">
<path fill="none" stroke="#1414ce" d="M909.82,-359.7C907,-351.81 903.61,-342.3 900.48,-333.55"/>
<polygon fill="#1414ce" stroke="#1414ce" points="903.77,-332.34 897.11,-324.1 897.18,-334.7 903.77,-332.34"/>
</a>
</g>
</g>
<!-- 23&#45;&gt;6 -->
<g id="edge32" class="edge">
<title>23&#45;&gt;6</title>
<g id="a_edge32"><a xlink:title="include">
<path fill="none" stroke="#1414ce" d="M929.9,-359.94C937.17,-350.05 945.48,-337.01 950,-324 974.71,-252.88 975.7,-162.7 974.36,-118.27"/>
<polygon fill="#1414ce" stroke="#1414ce" points="977.86,-118.12 974,-108.25 970.87,-118.37 977.86,-118.12"/>
</a>
</g>
</g>
<!-- 23&#45;&gt;4 -->
<g id="edge33" class="edge">
<title>23&#45;&gt;4</title>
<g id="a_edge33"><a xlink:title="include">
<path fill="none" stroke="#1414ce" d="M861.69,-368.86C726.82,-348.1 385.11,-292.02 353,-252 322.33,-213.78 339.59,-152.72 353.64,-117.81"/>
<polygon fill="#1414ce" stroke="#1414ce" points="356.99,-118.86 357.65,-108.28 350.54,-116.14 356.99,-118.86"/>
</a>
</g>
</g>
<!-- 24&#45;&gt;10 -->
<g id="edge37" class="edge">
<title>24&#45;&gt;10</title>
<g id="a_edge37"><a xlink:title="include">
<path fill="none" stroke="#1414ce" d="M870.13,-287.87C839.35,-262.6 781.66,-215.25 746.85,-186.68"/>
<polygon fill="#1414ce" stroke="#1414ce" points="748.89,-183.83 738.94,-180.19 744.45,-189.24 748.89,-183.83"/>
</a>
</g>
</g>
<!-- 24&#45;&gt;16 -->
<g id="edge38" class="edge">
<title>24&#45;&gt;16</title>
<g id="a_edge38"><a xlink:title="include">
<path fill="none" stroke="#1414ce" d="M910.18,-287.87C938.35,-262.71 991.04,-215.65 1023.08,-187.04"/>
<polygon fill="#1414ce" stroke="#1414ce" points="1025.63,-189.46 1030.75,-180.19 1020.96,-184.24 1025.63,-189.46"/>
</a>
</g>
</g>
<!-- 24&#45;&gt;25 -->
<g id="edge39" class="edge">
<title>24&#45;&gt;25</title>
<g id="a_edge39"><a xlink:title="include">
<path fill="none" stroke="#1414ce" d="M889.27,-287.7C888.5,-279.98 887.57,-270.71 886.71,-262.11"/>
<polygon fill="#1414ce" stroke="#1414ce" points="890.19,-261.71 885.71,-252.1 883.22,-262.4 890.19,-261.71"/>
</a>
</g>
</g>
<!-- 24&#45;&gt;22 -->
<g id="edge40" class="edge">
<title>24&#45;&gt;22</title>
<g id="a_edge40"><a xlink:title="include">
<path fill="none" stroke="#1414ce" d="M840.74,-290.58C799.67,-278.8 741.77,-262.19 699.98,-250.2"/>
<polygon fill="#1414ce" stroke="#1414ce" points="700.84,-246.8 690.26,-247.41 698.91,-253.53 700.84,-246.8"/>
</a>
</g>
</g>
<!-- 24&#45;&gt;17 -->
<g id="edge41" class="edge">
<title>24&#45;&gt;17</title>
<g id="a_edge41"><a xlink:title="include">
<path fill="none" stroke="#1414ce" d="M941.09,-290.92C983.65,-278.96 1044.52,-261.84 1087.7,-249.7"/>
<polygon fill="#1414ce" stroke="#1414ce" points="1088.77,-253.04 1097.45,-246.96 1086.87,-246.3 1088.77,-253.04"/>
</a>
</g>
</g>
<!-- 24&#45;&gt;4 -->
<g id="edge36" class="edge">
<title>24&#45;&gt;4</title>
<g id="a_edge36"><a xlink:title="include">
<path fill="none" stroke="#1414ce" d="M840.81,-291.13C836.16,-290.01 831.5,-288.94 827,-288 724.88,-266.58 692.99,-287.87 595,-252 537.31,-230.88 524.45,-219.03 477,-180 460.24,-166.21 460.42,-158.19 444,-144 431.4,-133.11 416.5,-122.51 403.12,-113.68"/>
<polygon fill="#1414ce" stroke="#1414ce" points="404.87,-110.65 394.58,-108.15 401.07,-116.53 404.87,-110.65"/>
</a>
</g>
</g>
<!-- 18&#45;&gt;6 -->
<g id="edge42" class="edge">
<title>18&#45;&gt;6</title>
<g id="a_edge42"><a xlink:title="include">
<path fill="none" stroke="#1414ce" d="M1109.76,-148.32C1085.61,-138.2 1051.25,-123.8 1023.02,-111.97"/>
<polygon fill="#1414ce" stroke="#1414ce" points="1024.28,-108.7 1013.7,-108.06 1021.57,-115.15 1024.28,-108.7"/>
</a>
</g>
</g>
<!-- 17&#45;&gt;16 -->
<g id="edge44" class="edge">
<title>17&#45;&gt;16</title>
<g id="a_edge44"><a xlink:title="include">
<path fill="none" stroke="#1414ce" d="M1117.75,-215.7C1106.42,-206.88 1092.47,-196.03 1080.18,-186.47"/>
<polygon fill="#1414ce" stroke="#1414ce" points="1082.03,-183.48 1071.99,-180.1 1077.74,-189.01 1082.03,-183.48"/>
</a>
</g>
</g>
<!-- 17&#45;&gt;18 -->
<g id="edge45" class="edge">
<title>17&#45;&gt;18</title>
<g id="a_edge45"><a xlink:title="include">
<path fill="none" stroke="#1414ce" d="M1140,-215.7C1140,-207.98 1140,-198.71 1140,-190.11"/>
<polygon fill="#1414ce" stroke="#1414ce" points="1143.5,-190.1 1140,-180.1 1136.5,-190.1 1143.5,-190.1"/>
</a>
</g>
</g>
<!-- 9 -->
<g id="node24" class="node">
<title>9</title>
<g id="a_node24"><a xlink:title="stdio.h">
<polygon fill="#ffffff" stroke="black" points="533.5,-108 468.5,-108 468.5,-72 533.5,-72 533.5,-108"/>
<text text-anchor="middle" x="501" y="-86.3" font-family="Times,serif" font-size="14.00">stdio.h</text>
</a>
</g>
</g>
<!-- 17&#45;&gt;9 -->
<g id="edge43" class="edge">
<title>17&#45;&gt;9</title>
<g id="a_edge43"><a xlink:title="include">
<path fill="none" stroke="#1414ce" d="M1097.45,-219.97C1092.59,-218.58 1087.7,-217.23 1083,-216 883.08,-163.69 640.38,-116.83 543.71,-98.83"/>
<polygon fill="#1414ce" stroke="#1414ce" points="544.21,-95.36 533.74,-96.97 542.93,-102.24 544.21,-95.36"/>
</a>
</g>
</g>
<!-- 19&#45;&gt;3 -->
<g id="edge52" class="edge">
<title>19&#45;&gt;3</title>
<g id="a_edge52"><a xlink:title="include">
<path fill="none" stroke="#1414ce" d="M583.38,-448.99C501.92,-448.28 292.62,-441.9 244,-396 214.53,-368.18 202.62,-245.9 198.66,-190.48"/>
<polygon fill="#1414ce" stroke="#1414ce" points="202.15,-190.07 197.98,-180.33 195.16,-190.55 202.15,-190.07"/>
</a>
</g>
</g>
<!-- 19&#45;&gt;22 -->
<g id="edge53" class="edge">
<title>19&#45;&gt;22</title>
<g id="a_edge53"><a xlink:title="include">
<path fill="none" stroke="#1414ce" d="M595.18,-431.62C585.54,-422.2 575.11,-409.7 570,-396 564.4,-381.01 565.64,-375.39 570,-360 580.81,-321.83 606.94,-283.87 625.76,-259.97"/>
<polygon fill="#1414ce" stroke="#1414ce" points="628.54,-262.11 632.08,-252.12 623.08,-257.72 628.54,-262.11"/>
</a>
</g>
</g>
<!-- 19&#45;&gt;23 -->
<g id="edge54" class="edge">
<title>19&#45;&gt;23</title>
<g id="a_edge54"><a xlink:title="include">
<path fill="none" stroke="#1414ce" d="M648.71,-441.75C693.67,-431.73 777.08,-412.96 848,-396 849.26,-395.7 850.54,-395.39 851.83,-395.08"/>
<polygon fill="#1414ce" stroke="#1414ce" points="852.94,-398.41 861.83,-392.65 851.29,-391.61 852.94,-398.41"/>
</a>
</g>
</g>
<!-- 19&#45;&gt;11 -->
<g id="edge56" class="edge">
<title>19&#45;&gt;11</title>
<g id="a_edge56"><a xlink:title="include">
<path fill="none" stroke="#1414ce" d="M648.51,-448.71C686.23,-446.41 746.96,-436.21 776,-396 838.04,-310.09 780.41,-174.01 751.4,-117.23"/>
<polygon fill="#1414ce" stroke="#1414ce" points="754.42,-115.44 746.68,-108.2 748.21,-118.69 754.42,-115.44"/>
</a>
</g>
</g>
<!-- 19&#45;&gt;7 -->
<g id="edge55" class="edge">
<title>19&#45;&gt;7</title>
<g id="a_edge55"><a xlink:title="include">
<path fill="none" stroke="#1414ce" d="M583.31,-443.41C556.12,-436.92 518.78,-423.39 499,-396 451.91,-330.78 520.91,-285.27 480,-216 475.16,-207.8 458.55,-195.86 442.08,-185.38"/>
<polygon fill="#1414ce" stroke="#1414ce" points="443.89,-182.38 433.55,-180.06 440.19,-188.32 443.89,-182.38"/>
</a>
</g>
</g>
<!-- 19&#45;&gt;6 -->
<g id="edge47" class="edge">
<title>19&#45;&gt;6</title>
<g id="a_edge47"><a xlink:title="include">
<path fill="none" stroke="#1414ce" d="M648.8,-446.81C684.8,-442.66 741.97,-430.66 776,-396 834.7,-336.22 786.54,-286.38 832,-216 859.58,-173.3 905.63,-136.38 937.56,-113.96"/>
<polygon fill="#1414ce" stroke="#1414ce" points="939.92,-116.58 946.17,-108.03 935.95,-110.82 939.92,-116.58"/>
</a>
</g>
</g>
<!-- 19&#45;&gt;2 -->
<g id="edge48" class="edge">
<title>19&#45;&gt;2</title>
<g id="a_edge48"><a xlink:title="include">
<path fill="none" stroke="#1414ce" d="M583.28,-443.29C494.9,-426.94 258,-376.62 258,-307 258,-307 258,-307 258,-161 258,-36.29 456.41,-19.36 548.75,-18.23"/>
<polygon fill="#1414ce" stroke="#1414ce" points="548.96,-21.73 558.94,-18.16 548.91,-14.73 548.96,-21.73"/>
</a>
</g>
</g>
<!-- 19&#45;&gt;9 -->
<g id="edge49" class="edge">
<title>19&#45;&gt;9</title>
<g id="a_edge49"><a xlink:title="include">
<path fill="none" stroke="#1414ce" d="M593.54,-431.9C582.7,-422.47 570.45,-409.87 563,-396 512.9,-302.73 503.17,-173.56 501.36,-118.09"/>
<polygon fill="#1414ce" stroke="#1414ce" points="504.86,-117.91 501.1,-108.01 497.86,-118.1 504.86,-117.91"/>
</a>
</g>
</g>
<!-- 19&#45;&gt;4 -->
<g id="edge50" class="edge">
<title>19&#45;&gt;4</title>
<g id="a_edge50"><a xlink:title="include">
<path fill="none" stroke="#1414ce" d="M583.47,-440.41C554.76,-431.9 512.54,-417.09 480,-396 403.52,-346.43 369.17,-336.08 334,-252 315.48,-207.72 321.12,-190.24 334,-144 336.67,-134.42 341.59,-124.84 346.78,-116.51"/>
<polygon fill="#1414ce" stroke="#1414ce" points="349.8,-118.29 352.44,-108.03 343.98,-114.41 349.8,-118.29"/>
</a>
</g>
</g>
<!-- 21 -->
<g id="node26" class="node">
<title>21</title>
<g id="a_node26"><a xlink:title="string.h">
<polygon fill="#ffffff" stroke="black" points="652.5,-396 579.5,-396 579.5,-360 652.5,-360 652.5,-396"/>
<text text-anchor="middle" x="616" y="-374.3" font-family="Times,serif" font-size="14.00">string.h</text>
</a>
</g>
</g>
<!-- 19&#45;&gt;21 -->
<g id="edge51" class="edge">
<title>19&#45;&gt;21</title>
<g id="a_edge51"><a xlink:title="include">
<path fill="none" stroke="#1414ce" d="M616,-431.7C616,-423.98 616,-414.71 616,-406.11"/>
<polygon fill="#1414ce" stroke="#1414ce" points="619.5,-406.1 616,-396.1 612.5,-406.1 619.5,-406.1"/>
</a>
</g>
</g>
<!-- 20 -->
<g id="node27" class="node">
<title>20</title>
<g id="a_node27"><a xlink:title="sys/types.h">
<polygon fill="#ffffff" stroke="black" points="767.5,-396 670.5,-396 670.5,-360 767.5,-360 767.5,-396"/>
<text text-anchor="middle" x="719" y="-374.3" font-family="Times,serif" font-size="14.00">sys/types.h</text>
</a>
</g>
</g>
<!-- 19&#45;&gt;20 -->
<g id="edge46" class="edge">
<title>19&#45;&gt;20</title>
<g id="a_edge46"><a xlink:title="include">
<path fill="none" stroke="#1414ce" d="M641.2,-431.88C654.41,-422.89 670.79,-411.76 685.11,-402.03"/>
<polygon fill="#1414ce" stroke="#1414ce" points="687.4,-404.71 693.71,-396.19 683.47,-398.92 687.4,-404.71"/>
</a>
</g>
</g>
<!-- 12 -->
<g id="node18" class="node">
<title>12</title>
<g id="a_node18"><a xlink:title="assert.h">
<polygon fill="#ffffff" stroke="black" points="813,-36 739,-36 739,0 813,0 813,-36"/>
<text text-anchor="middle" x="776" y="-14.3" font-family="Times,serif" font-size="14.00">assert.h</text>
</a>
</g>
</g>
<!-- 11&#45;&gt;12 -->
<g id="edge57" class="edge">
<title>11&#45;&gt;12</title>
<g id="a_edge57"><a xlink:title="include">
<path fill="none" stroke="#1414ce" d="M746.64,-71.7C751.13,-63.64 756.56,-53.89 761.52,-44.98"/>
<polygon fill="#1414ce" stroke="#1414ce" points="764.66,-46.54 766.47,-36.1 758.55,-43.14 764.66,-46.54"/>
</a>
</g>
</g>
<!-- 14 -->
<g id="node19" class="node">
<title>14</title>
<g id="a_node19"><a xlink:title="inttypes.h">
<polygon fill="#ffffff" stroke="black" points="920.5,-36 831.5,-36 831.5,0 920.5,0 920.5,-36"/>
<text text-anchor="middle" x="876" y="-14.3" font-family="Times,serif" font-size="14.00">inttypes.h</text>
</a>
</g>
</g>
<!-- 11&#45;&gt;14 -->
<g id="edge59" class="edge">
<title>11&#45;&gt;14</title>
<g id="a_edge59"><a xlink:title="include">
<path fill="none" stroke="#1414ce" d="M771,-71.88C789.6,-62.51 812.83,-50.81 832.71,-40.8"/>
<polygon fill="#1414ce" stroke="#1414ce" points="834.51,-43.81 841.87,-36.19 831.36,-37.56 834.51,-43.81"/>
</a>
</g>
</g>
<!-- 13 -->
<g id="node20" class="node">
<title>13</title>
<g id="a_node20"><a xlink:title="limits.h">
<polygon fill="#ffffff" stroke="black" points="720.5,-36 649.5,-36 649.5,0 720.5,0 720.5,-36"/>
<text text-anchor="middle" x="685" y="-14.3" font-family="Times,serif" font-size="14.00">limits.h</text>
</a>
</g>
</g>
<!-- 11&#45;&gt;13 -->
<g id="edge58" class="edge">
<title>11&#45;&gt;13</title>
<g id="a_edge58"><a xlink:title="include">
<path fill="none" stroke="#1414ce" d="M724.15,-71.7C717.97,-63.39 710.46,-53.28 703.68,-44.14"/>
<polygon fill="#1414ce" stroke="#1414ce" points="706.48,-42.04 697.71,-36.1 700.86,-46.22 706.48,-42.04"/>
</a>
</g>
</g>
<!-- 11&#45;&gt;2 -->
<g id="edge60" class="edge">
<title>11&#45;&gt;2</title>
<g id="a_edge60"><a xlink:title="include">
<path fill="none" stroke="#1414ce" d="M702.26,-71.88C683.18,-62.47 659.32,-50.71 638.95,-40.67"/>
<polygon fill="#1414ce" stroke="#1414ce" points="640.39,-37.47 629.87,-36.19 637.29,-43.75 640.39,-37.47"/>
</a>
</g>
</g>
<!-- 26&#45;&gt;16 -->
<g id="edge63" class="edge">
<title>26&#45;&gt;16</title>
<g id="a_edge63"><a xlink:title="include">
<path fill="none" stroke="#1414ce" d="M1314.63,-224.92C1261.46,-215.78 1174.59,-199.6 1101,-180 1096.34,-178.76 1091.49,-177.33 1086.7,-175.83"/>
<polygon fill="#1414ce" stroke="#1414ce" points="1087.67,-172.46 1077.07,-172.71 1085.51,-179.12 1087.67,-172.46"/>
</a>
</g>
</g>
<!-- 26&#45;&gt;6 -->
<g id="edge61" class="edge">
<title>26&#45;&gt;6</title>
<g id="a_edge61"><a xlink:title="include">
<path fill="none" stroke="#1414ce" d="M1333.39,-215.96C1297.34,-196.45 1235.25,-164.54 1179,-144 1127.73,-125.28 1066.99,-110.51 1024.8,-101.36"/>
<polygon fill="#1414ce" stroke="#1414ce" points="1025.28,-97.89 1014.77,-99.22 1023.81,-104.73 1025.28,-97.89"/>
</a>
</g>
</g>
<!-- 26&#45;&gt;2 -->
<g id="edge62" class="edge">
<title>26&#45;&gt;2</title>
<g id="a_edge62"><a xlink:title="include">
<path fill="none" stroke="#1414ce" d="M1343.23,-215.96C1318.64,-196.44 1275.84,-164.52 1235,-144 1146.09,-99.32 1120.31,-92.8 1023,-72 858.99,-36.95 808.49,-73.12 640.98,-35.84"/>
<polygon fill="#1414ce" stroke="#1414ce" points="641.62,-32.4 631.09,-33.58 640.06,-39.22 641.62,-32.4"/>
</a>
</g>
</g>
<!-- 8 -->
<g id="node22" class="node">
<title>8</title>
<g id="a_node22"><a xlink:title="stddef.h">
<polygon fill="#ffffff" stroke="black" points="186,-108 112,-108 112,-72 186,-72 186,-108"/>
<text text-anchor="middle" x="149" y="-86.3" font-family="Times,serif" font-size="14.00">stddef.h</text>
</a>
</g>
</g>
<!-- 7&#45;&gt;8 -->
<g id="edge64" class="edge">
<title>7&#45;&gt;8</title>
<g id="a_edge64"><a xlink:title="include">
<path fill="none" stroke="#1414ce" d="M372.99,-152.49C328.94,-140.39 247.88,-118.14 196.31,-103.99"/>
<polygon fill="#1414ce" stroke="#1414ce" points="196.97,-100.54 186.4,-101.27 195.12,-107.29 196.97,-100.54"/>
</a>
</g>
</g>
<!-- 7&#45;&gt;9 -->
<g id="edge65" class="edge">
<title>7&#45;&gt;9</title>
<g id="a_edge65"><a xlink:title="include">
<path fill="none" stroke="#1414ce" d="M427.98,-143.7C440.31,-134.8 455.52,-123.82 468.85,-114.2"/>
<polygon fill="#1414ce" stroke="#1414ce" points="471.24,-116.79 477.3,-108.1 467.14,-111.12 471.24,-116.79"/>
</a>
</g>
</g>
<!-- 7&#45;&gt;4 -->
<g id="edge66" class="edge">
<title>7&#45;&gt;4</title>
<g id="a_edge66"><a xlink:title="include">
<path fill="none" stroke="#1414ce" d="M394.61,-143.7C390.24,-135.64 384.94,-125.89 380.1,-116.98"/>
<polygon fill="#1414ce" stroke="#1414ce" points="383.13,-115.22 375.29,-108.1 376.98,-118.56 383.13,-115.22"/>
</a>
</g>
</g>
<!-- 27&#45;&gt;8 -->
<g id="edge67" class="edge">
<title>27&#45;&gt;8</title>
<g id="a_edge67"><a xlink:title="include">
<path fill="none" stroke="#1414ce" d="M91.79,-143.7C101.17,-135.05 112.68,-124.45 122.91,-115.03"/>
<polygon fill="#1414ce" stroke="#1414ce" points="125.45,-117.45 130.43,-108.1 120.7,-112.3 125.45,-117.45"/>
</a>
</g>
</g>
<!-- 27&#45;&gt;2 -->
<g id="edge68" class="edge">
<title>27&#45;&gt;2</title>
<g id="a_edge68"><a xlink:title="include">
<path fill="none" stroke="#1414ce" d="M73.53,-143.85C75.18,-123.3 81.26,-89.46 103,-72 137.35,-44.42 432.45,-27.01 548.45,-21.18"/>
<polygon fill="#1414ce" stroke="#1414ce" points="548.97,-24.66 558.78,-20.67 548.62,-17.67 548.97,-24.66"/>
</a>
</g>
</g>
</g>
</svg>
