<?xml version="1.0" encoding="UTF-8" standalone="no"?>
<!DOCTYPE svg PUBLIC "-//W3C//DTD SVG 1.1//EN"
 "http://www.w3.org/Graphics/SVG/1.1/DTD/svg11.dtd">
<!-- Generated by graphviz version 2.43.0 (0)
 -->
<!-- Title: %3 Pages: 1 -->
<svg width="1599pt" height="692pt"
 viewBox="0.00 0.00 1598.99 692.00" xmlns="http://www.w3.org/2000/svg" xmlns:xlink="http://www.w3.org/1999/xlink">
<g id="graph0" class="graph" transform="scale(1 1) rotate(0) translate(4 688)">
<title>%3</title>
<polygon fill="transparent" stroke="transparent" points="-4,4 -4,-688 1594.99,-688 1594.99,4 -4,4"/>
<!-- 7 -->
<g id="node1" class="node">
<title>7</title>
<g id="a_node1"><a xlink:title="stdbool.h">
<polygon fill="#ffffff" stroke="black" points="606.5,-108 523.5,-108 523.5,-72 606.5,-72 606.5,-108"/>
<text text-anchor="middle" x="565" y="-86.3" font-family="Times,serif" font-size="14.00">stdbool.h</text>
</a>
</g>
</g>
<!-- 24 -->
<g id="node2" class="node">
<title>24</title>
<g id="a_node2"><a xlink:title="refc_binary.h">
<polygon fill="#ffffff" stroke="black" points="1075,-396 967,-396 967,-360 1075,-360 1075,-396"/>
<text text-anchor="middle" x="1021" y="-374.3" font-family="Times,serif" font-size="14.00">refc_binary.h</text>
</a>
</g>
</g>
<!-- 24&#45;&gt;7 -->
<g id="edge1" class="edge">
<title>24&#45;&gt;7</title>
<g id="a_edge1"><a xlink:title="include">
<path fill="none" stroke="#1414ce" d="M966.95,-362.3C911.03,-347.07 831.35,-325.3 828,-324 762.8,-298.6 741.46,-297.14 688,-252 642.15,-213.29 643.64,-191.52 607,-144 599.94,-134.84 592.09,-124.88 585.11,-116.1"/>
<polygon fill="#1414ce" stroke="#1414ce" points="587.7,-113.73 578.74,-108.09 582.23,-118.1 587.7,-113.73"/>
</a>
</g>
</g>
<!-- 17 -->
<g id="node7" class="node">
<title>17</title>
<g id="a_node7"><a xlink:title="list.h">
<polygon fill="#ffffff" stroke="black" points="538,-180 484,-180 484,-144 538,-144 538,-180"/>
<text text-anchor="middle" x="511" y="-158.3" font-family="Times,serif" font-size="14.00">list.h</text>
</a>
</g>
</g>
<!-- 24&#45;&gt;17 -->
<g id="edge3" class="edge">
<title>24&#45;&gt;17</title>
<g id="a_edge3"><a xlink:title="include">
<path fill="none" stroke="#1414ce" d="M966.78,-362.05C963.81,-361.33 960.87,-360.64 958,-360 869,-340.1 842.86,-351.76 756,-324 684.8,-301.24 665.57,-294.39 604,-252 576.98,-233.4 550.37,-206.87 532.59,-187.62"/>
<polygon fill="#1414ce" stroke="#1414ce" points="535.08,-185.16 525.76,-180.12 529.9,-189.87 535.08,-185.16"/>
</a>
</g>
</g>
<!-- 5 -->
<g id="node9" class="node">
<title>5</title>
<g id="a_node9"><a xlink:title="stdlib.h">
<polygon fill="#ffffff" stroke="black" points="1144.5,-108 1073.5,-108 1073.5,-72 1144.5,-72 1144.5,-108"/>
<text text-anchor="middle" x="1109" y="-86.3" font-family="Times,serif" font-size="14.00">stdlib.h</text>
</a>
</g>
</g>
<!-- 24&#45;&gt;5 -->
<g id="edge2" class="edge">
<title>24&#45;&gt;5</title>
<g id="a_edge2"><a xlink:title="include">
<path fill="none" stroke="#1414ce" d="M1027.66,-359.81C1040.66,-325.84 1069.82,-247.52 1089,-180 1094.8,-159.56 1100.02,-136.1 1103.67,-118.4"/>
<polygon fill="#1414ce" stroke="#1414ce" points="1107.18,-118.7 1105.73,-108.2 1100.31,-117.31 1107.18,-118.7"/>
</a>
</g>
</g>
<!-- 25 -->
<g id="node12" class="node">
<title>25</title>
<g id="a_node12"><a xlink:title="resources.h">
<polygon fill="#ffffff" stroke="black" points="937,-324 837,-324 837,-288 937,-288 937,-324"/>
<text text-anchor="middle" x="887" y="-302.3" font-family="Times,serif" font-size="14.00">resources.h</text>
</a>
</g>
</g>
<!-- 24&#45;&gt;25 -->
<g id="edge4" class="edge">
<title>24&#45;&gt;25</title>
<g id="a_edge4"><a xlink:title="include">
<path fill="none" stroke="#1414ce" d="M988.22,-359.88C970.37,-350.55 948.1,-338.92 929,-328.94"/>
<polygon fill="#1414ce" stroke="#1414ce" points="930.39,-325.72 919.91,-324.19 927.15,-331.92 930.39,-325.72"/>
</a>
</g>
</g>
<!-- 4 -->
<g id="node3" class="node">
<title>4</title>
<g id="a_node3"><a xlink:title="atom.h">
<polygon fill="#ffffff" stroke="black" points="1398,-180 1332,-180 1332,-144 1398,-144 1398,-180"/>
<text text-anchor="middle" x="1365" y="-158.3" font-family="Times,serif" font-size="14.00">atom.h</text>
</a>
</g>
</g>
<!-- 3 -->
<g id="node8" class="node">
<title>3</title>
<g id="a_node8"><a xlink:title="stdint.h">
<polygon fill="#ffffff" stroke="black" points="987,-36 915,-36 915,0 987,0 987,-36"/>
<text text-anchor="middle" x="951" y="-14.3" font-family="Times,serif" font-size="14.00">stdint.h</text>
</a>
</g>
</g>
<!-- 4&#45;&gt;3 -->
<g id="edge5" class="edge">
<title>4&#45;&gt;3</title>
<g id="a_edge5"><a xlink:title="include">
<path fill="none" stroke="#1414ce" d="M1360.97,-143.78C1355.19,-123.14 1342.42,-89.22 1318,-72 1267.19,-36.17 1084.14,-24.24 997.31,-20.54"/>
<polygon fill="#1414ce" stroke="#1414ce" points="997.35,-17.04 987.22,-20.12 997.07,-24.03 997.35,-17.04"/>
</a>
</g>
</g>
<!-- 4&#45;&gt;5 -->
<g id="edge6" class="edge">
<title>4&#45;&gt;5</title>
<g id="a_edge6"><a xlink:title="include">
<path fill="none" stroke="#1414ce" d="M1331.96,-153.32C1291.1,-143.63 1219.52,-126.04 1159,-108 1157.54,-107.57 1156.07,-107.12 1154.58,-106.66"/>
<polygon fill="#1414ce" stroke="#1414ce" points="1155.26,-103.2 1144.67,-103.5 1153.14,-109.87 1155.26,-103.2"/>
</a>
</g>
</g>
<!-- 13 -->
<g id="node4" class="node">
<title>13</title>
<g id="a_node4"><a xlink:title="assert.h">
<polygon fill="#ffffff" stroke="black" points="700,-36 626,-36 626,0 700,0 700,-36"/>
<text text-anchor="middle" x="663" y="-14.3" font-family="Times,serif" font-size="14.00">assert.h</text>
</a>
</g>
</g>
<!-- 8 -->
<g id="node5" class="node">
<title>8</title>
<g id="a_node5"><a xlink:title="utils.h">
<polygon fill="#ffffff" stroke="black" points="1231,-180 1169,-180 1169,-144 1231,-144 1231,-180"/>
<text text-anchor="middle" x="1200" y="-158.3" font-family="Times,serif" font-size="14.00">utils.h</text>
</a>
</g>
</g>
<!-- 8&#45;&gt;5 -->
<g id="edge9" class="edge">
<title>8&#45;&gt;5</title>
<g id="a_edge9"><a xlink:title="include">
<path fill="none" stroke="#1414ce" d="M1177.51,-143.7C1166.04,-134.88 1151.94,-124.03 1139.52,-114.47"/>
<polygon fill="#1414ce" stroke="#1414ce" points="1141.3,-111.43 1131.24,-108.1 1137.03,-116.98 1141.3,-111.43"/>
</a>
</g>
</g>
<!-- 9 -->
<g id="node14" class="node">
<title>9</title>
<g id="a_node14"><a xlink:title="stddef.h">
<polygon fill="#ffffff" stroke="black" points="1526,-108 1452,-108 1452,-72 1526,-72 1526,-108"/>
<text text-anchor="middle" x="1489" y="-86.3" font-family="Times,serif" font-size="14.00">stddef.h</text>
</a>
</g>
</g>
<!-- 8&#45;&gt;9 -->
<g id="edge7" class="edge">
<title>8&#45;&gt;9</title>
<g id="a_edge7"><a xlink:title="include">
<path fill="none" stroke="#1414ce" d="M1231.2,-153.44C1281.84,-141.18 1382.22,-116.86 1441.68,-102.46"/>
<polygon fill="#1414ce" stroke="#1414ce" points="1442.68,-105.82 1451.57,-100.07 1441.03,-99.02 1442.68,-105.82"/>
</a>
</g>
</g>
<!-- 10 -->
<g id="node26" class="node">
<title>10</title>
<g id="a_node26"><a xlink:title="stdio.h">
<polygon fill="#ffffff" stroke="black" points="1232.5,-108 1167.5,-108 1167.5,-72 1232.5,-72 1232.5,-108"/>
<text text-anchor="middle" x="1200" y="-86.3" font-family="Times,serif" font-size="14.00">stdio.h</text>
</a>
</g>
</g>
<!-- 8&#45;&gt;10 -->
<g id="edge8" class="edge">
<title>8&#45;&gt;10</title>
<g id="a_edge8"><a xlink:title="include">
<path fill="none" stroke="#1414ce" d="M1200,-143.7C1200,-135.98 1200,-126.71 1200,-118.11"/>
<polygon fill="#1414ce" stroke="#1414ce" points="1203.5,-118.1 1200,-108.1 1196.5,-118.1 1203.5,-118.1"/>
</a>
</g>
</g>
<!-- 18 -->
<g id="node6" class="node">
<title>18</title>
<g id="a_node6"><a xlink:title="synclist.h">
<polygon fill="#ffffff" stroke="black" points="526.5,-252 441.5,-252 441.5,-216 526.5,-216 526.5,-252"/>
<text text-anchor="middle" x="484" y="-230.3" font-family="Times,serif" font-size="14.00">synclist.h</text>
</a>
</g>
</g>
<!-- 18&#45;&gt;17 -->
<g id="edge11" class="edge">
<title>18&#45;&gt;17</title>
<g id="a_edge11"><a xlink:title="include">
<path fill="none" stroke="#1414ce" d="M490.67,-215.7C493.71,-207.81 497.38,-198.3 500.76,-189.55"/>
<polygon fill="#1414ce" stroke="#1414ce" points="504.07,-190.69 504.4,-180.1 497.54,-188.17 504.07,-190.69"/>
</a>
</g>
</g>
<!-- 19 -->
<g id="node23" class="node">
<title>19</title>
<g id="a_node23"><a xlink:title="smp.h">
<polygon fill="#ffffff" stroke="black" points="466,-180 406,-180 406,-144 466,-144 466,-180"/>
<text text-anchor="middle" x="436" y="-158.3" font-family="Times,serif" font-size="14.00">smp.h</text>
</a>
</g>
</g>
<!-- 18&#45;&gt;19 -->
<g id="edge12" class="edge">
<title>18&#45;&gt;19</title>
<g id="a_edge12"><a xlink:title="include">
<path fill="none" stroke="#1414ce" d="M472.13,-215.7C466.5,-207.47 459.65,-197.48 453.43,-188.42"/>
<polygon fill="#1414ce" stroke="#1414ce" points="456.27,-186.37 447.73,-180.1 450.5,-190.33 456.27,-186.37"/>
</a>
</g>
</g>
<!-- 18&#45;&gt;10 -->
<g id="edge10" class="edge">
<title>18&#45;&gt;10</title>
<g id="a_edge10"><a xlink:title="include">
<path fill="none" stroke="#1414ce" d="M526.65,-218.54C587.16,-198.61 701.74,-163.01 802,-144 956.51,-114.7 1000.81,-143.54 1154,-108 1155.24,-107.71 1156.48,-107.4 1157.74,-107.07"/>
<polygon fill="#1414ce" stroke="#1414ce" points="1158.81,-110.4 1167.39,-104.19 1156.81,-103.7 1158.81,-110.4"/>
</a>
</g>
</g>
<!-- 17&#45;&gt;7 -->
<g id="edge13" class="edge">
<title>17&#45;&gt;7</title>
<g id="a_edge13"><a xlink:title="include">
<path fill="none" stroke="#1414ce" d="M524.35,-143.7C530.76,-135.39 538.56,-125.28 545.61,-116.14"/>
<polygon fill="#1414ce" stroke="#1414ce" points="548.47,-118.16 551.81,-108.1 542.93,-113.88 548.47,-118.16"/>
</a>
</g>
</g>
<!-- 23 -->
<g id="node10" class="node">
<title>23</title>
<g id="a_node10"><a xlink:title="memory.h">
<polygon fill="#ffffff" stroke="black" points="1001,-252 915,-252 915,-216 1001,-216 1001,-252"/>
<text text-anchor="middle" x="958" y="-230.3" font-family="Times,serif" font-size="14.00">memory.h</text>
</a>
</g>
</g>
<!-- 23&#45;&gt;8 -->
<g id="edge18" class="edge">
<title>23&#45;&gt;8</title>
<g id="a_edge18"><a xlink:title="include">
<path fill="none" stroke="#1414ce" d="M1001.26,-220.49C1045.91,-207.57 1115.05,-187.57 1158.89,-174.89"/>
<polygon fill="#1414ce" stroke="#1414ce" points="1160.02,-178.21 1168.65,-172.07 1158.07,-171.48 1160.02,-178.21"/>
</a>
</g>
</g>
<!-- 23&#45;&gt;3 -->
<g id="edge14" class="edge">
<title>23&#45;&gt;3</title>
<g id="a_edge14"><a xlink:title="include">
<path fill="none" stroke="#1414ce" d="M957.44,-215.85C956.23,-178.83 953.36,-91.18 951.9,-46.39"/>
<polygon fill="#1414ce" stroke="#1414ce" points="955.39,-46.11 951.56,-36.23 948.39,-46.34 955.39,-46.11"/>
</a>
</g>
</g>
<!-- 23&#45;&gt;5 -->
<g id="edge15" class="edge">
<title>23&#45;&gt;5</title>
<g id="a_edge15"><a xlink:title="include">
<path fill="none" stroke="#1414ce" d="M975.71,-215.82C994.34,-197.8 1024.56,-168.73 1051,-144 1061.22,-134.44 1072.56,-124.04 1082.49,-114.99"/>
<polygon fill="#1414ce" stroke="#1414ce" points="1085.05,-117.39 1090.09,-108.08 1080.34,-112.21 1085.05,-117.39"/>
</a>
</g>
</g>
<!-- 11 -->
<g id="node15" class="node">
<title>11</title>
<g id="a_node15"><a xlink:title="erl_nif.h">
<polygon fill="#ffffff" stroke="black" points="885,-180 811,-180 811,-144 885,-144 885,-180"/>
<text text-anchor="middle" x="848" y="-158.3" font-family="Times,serif" font-size="14.00">erl_nif.h</text>
</a>
</g>
</g>
<!-- 23&#45;&gt;11 -->
<g id="edge16" class="edge">
<title>23&#45;&gt;11</title>
<g id="a_edge16"><a xlink:title="include">
<path fill="none" stroke="#1414ce" d="M931.09,-215.88C916.84,-206.81 899.15,-195.55 883.76,-185.76"/>
<polygon fill="#1414ce" stroke="#1414ce" points="885.33,-182.61 875.01,-180.19 881.57,-188.51 885.33,-182.61"/>
</a>
</g>
</g>
<!-- 12 -->
<g id="node21" class="node">
<title>12</title>
<g id="a_node21"><a xlink:title="term_typedef.h">
<polygon fill="#ffffff" stroke="black" points="863.5,-108 738.5,-108 738.5,-72 863.5,-72 863.5,-108"/>
<text text-anchor="middle" x="801" y="-86.3" font-family="Times,serif" font-size="14.00">term_typedef.h</text>
</a>
</g>
</g>
<!-- 23&#45;&gt;12 -->
<g id="edge17" class="edge">
<title>23&#45;&gt;12</title>
<g id="a_edge17"><a xlink:title="include">
<path fill="none" stroke="#1414ce" d="M948.74,-215.92C937.66,-196.66 917.63,-165.26 894,-144 880.49,-131.84 863.73,-121.24 848.17,-112.78"/>
<polygon fill="#1414ce" stroke="#1414ce" points="849.66,-109.61 839.18,-108.05 846.4,-115.8 849.66,-109.61"/>
</a>
</g>
</g>
<!-- 28 -->
<g id="node11" class="node">
<title>28</title>
<g id="a_node11"><a xlink:title="valueshashtable.h">
<polygon fill="#ffffff" stroke="black" points="1562,-180 1416,-180 1416,-144 1562,-144 1562,-180"/>
<text text-anchor="middle" x="1489" y="-158.3" font-family="Times,serif" font-size="14.00">valueshashtable.h</text>
</a>
</g>
</g>
<!-- 28&#45;&gt;3 -->
<g id="edge20" class="edge">
<title>28&#45;&gt;3</title>
<g id="a_edge20"><a xlink:title="include">
<path fill="none" stroke="#1414ce" d="M1467.74,-143.67C1441.05,-122.94 1393.06,-88.91 1346,-72 1225.36,-28.64 1072.43,-20.28 997.15,-18.97"/>
<polygon fill="#1414ce" stroke="#1414ce" points="997.1,-15.47 987.06,-18.83 997.01,-22.47 997.1,-15.47"/>
</a>
</g>
</g>
<!-- 28&#45;&gt;9 -->
<g id="edge19" class="edge">
<title>28&#45;&gt;9</title>
<g id="a_edge19"><a xlink:title="include">
<path fill="none" stroke="#1414ce" d="M1489,-143.7C1489,-135.98 1489,-126.71 1489,-118.11"/>
<polygon fill="#1414ce" stroke="#1414ce" points="1492.5,-118.1 1489,-108.1 1485.5,-118.1 1492.5,-118.1"/>
</a>
</g>
</g>
<!-- 25&#45;&gt;18 -->
<g id="edge26" class="edge">
<title>25&#45;&gt;18</title>
<g id="a_edge26"><a xlink:title="include">
<path fill="none" stroke="#1414ce" d="M836.77,-296.28C760.14,-282.96 614.72,-257.7 536.66,-244.15"/>
<polygon fill="#1414ce" stroke="#1414ce" points="537.01,-240.66 526.56,-242.39 535.81,-247.55 537.01,-240.66"/>
</a>
</g>
</g>
<!-- 25&#45;&gt;17 -->
<g id="edge23" class="edge">
<title>25&#45;&gt;17</title>
<g id="a_edge23"><a xlink:title="include">
<path fill="none" stroke="#1414ce" d="M836.63,-294.6C795.85,-285.47 737.3,-270.73 688,-252 637.38,-232.77 582.08,-203.53 547,-183.87"/>
<polygon fill="#1414ce" stroke="#1414ce" points="548.53,-180.71 538.1,-178.84 545.09,-186.81 548.53,-180.71"/>
</a>
</g>
</g>
<!-- 25&#45;&gt;5 -->
<g id="edge21" class="edge">
<title>25&#45;&gt;5</title>
<g id="a_edge21"><a xlink:title="include">
<path fill="none" stroke="#1414ce" d="M937.3,-291.16C961.26,-282.72 989.16,-270.03 1010,-252 1053.37,-214.49 1083.66,-153.17 1098.52,-118.02"/>
<polygon fill="#1414ce" stroke="#1414ce" points="1101.9,-119.01 1102.47,-108.43 1095.42,-116.34 1101.9,-119.01"/>
</a>
</g>
</g>
<!-- 25&#45;&gt;23 -->
<g id="edge25" class="edge">
<title>25&#45;&gt;23</title>
<g id="a_edge25"><a xlink:title="include">
<path fill="none" stroke="#1414ce" d="M904.55,-287.7C913.23,-279.14 923.86,-268.66 933.35,-259.3"/>
<polygon fill="#1414ce" stroke="#1414ce" points="935.99,-261.62 940.65,-252.1 931.07,-256.63 935.99,-261.62"/>
</a>
</g>
</g>
<!-- 25&#45;&gt;11 -->
<g id="edge22" class="edge">
<title>25&#45;&gt;11</title>
<g id="a_edge22"><a xlink:title="include">
<path fill="none" stroke="#1414ce" d="M882.46,-287.92C877.68,-269.99 869.91,-240.99 863,-216 860.65,-207.48 858.04,-198.21 855.66,-189.83"/>
<polygon fill="#1414ce" stroke="#1414ce" points="859.02,-188.83 852.92,-180.17 852.29,-190.75 859.02,-188.83"/>
</a>
</g>
</g>
<!-- 26 -->
<g id="node25" class="node">
<title>26</title>
<g id="a_node25"><a xlink:title="mailbox.h">
<polygon fill="#ffffff" stroke="black" points="783,-252 697,-252 697,-216 783,-216 783,-252"/>
<text text-anchor="middle" x="740" y="-230.3" font-family="Times,serif" font-size="14.00">mailbox.h</text>
</a>
</g>
</g>
<!-- 25&#45;&gt;26 -->
<g id="edge24" class="edge">
<title>25&#45;&gt;26</title>
<g id="a_edge24"><a xlink:title="include">
<path fill="none" stroke="#1414ce" d="M851.04,-287.88C831.12,-278.39 806.18,-266.51 784.98,-256.42"/>
<polygon fill="#1414ce" stroke="#1414ce" points="786.38,-253.21 775.84,-252.07 783.37,-259.53 786.38,-253.21"/>
</a>
</g>
</g>
<!-- 20 -->
<g id="node13" class="node">
<title>20</title>
<g id="a_node13"><a xlink:title="term.h">
<polygon fill="#ffffff" stroke="black" points="1053.5,-468 988.5,-468 988.5,-432 1053.5,-432 1053.5,-468"/>
<text text-anchor="middle" x="1021" y="-446.3" font-family="Times,serif" font-size="14.00">term.h</text>
</a>
</g>
</g>
<!-- 20&#45;&gt;7 -->
<g id="edge28" class="edge">
<title>20&#45;&gt;7</title>
<g id="a_edge28"><a xlink:title="include">
<path fill="none" stroke="#1414ce" d="M988.19,-446.06C923.23,-439.72 781.06,-423.09 741,-396 639.48,-327.34 589.03,-179.19 571.92,-118.14"/>
<polygon fill="#1414ce" stroke="#1414ce" points="575.2,-116.85 569.2,-108.12 568.44,-118.69 575.2,-116.85"/>
</a>
</g>
</g>
<!-- 20&#45;&gt;24 -->
<g id="edge35" class="edge">
<title>20&#45;&gt;24</title>
<g id="a_edge35"><a xlink:title="include">
<path fill="none" stroke="#1414ce" d="M1021,-431.7C1021,-423.98 1021,-414.71 1021,-406.11"/>
<polygon fill="#1414ce" stroke="#1414ce" points="1024.5,-406.1 1021,-396.1 1017.5,-406.1 1024.5,-406.1"/>
</a>
</g>
</g>
<!-- 20&#45;&gt;4 -->
<g id="edge33" class="edge">
<title>20&#45;&gt;4</title>
<g id="a_edge33"><a xlink:title="include">
<path fill="none" stroke="#1414ce" d="M1053.55,-448.29C1129.31,-445.98 1314.41,-436.24 1359,-396 1419.7,-341.22 1418.93,-294.77 1397,-216 1394.33,-206.42 1389.41,-196.84 1384.22,-188.51"/>
<polygon fill="#1414ce" stroke="#1414ce" points="1387.02,-186.41 1378.56,-180.03 1381.2,-190.29 1387.02,-186.41"/>
</a>
</g>
</g>
<!-- 20&#45;&gt;8 -->
<g id="edge36" class="edge">
<title>20&#45;&gt;8</title>
<g id="a_edge36"><a xlink:title="include">
<path fill="none" stroke="#1414ce" d="M1053.78,-445.02C1084.64,-439.48 1129.76,-426.42 1155,-396 1180.77,-364.93 1193.45,-244.93 1197.99,-190.33"/>
<polygon fill="#1414ce" stroke="#1414ce" points="1201.48,-190.57 1198.79,-180.33 1194.5,-190.02 1201.48,-190.57"/>
</a>
</g>
</g>
<!-- 20&#45;&gt;3 -->
<g id="edge29" class="edge">
<title>20&#45;&gt;3</title>
<g id="a_edge29"><a xlink:title="include">
<path fill="none" stroke="#1414ce" d="M1053.84,-442.97C1151.06,-423.42 1426.87,-354.87 1364,-216 1354,-193.91 1339.47,-197.79 1323,-180 1282.24,-135.97 1293.03,-103.55 1242,-72 1201.72,-47.1 1068.44,-30.57 997.07,-23.27"/>
<polygon fill="#1414ce" stroke="#1414ce" points="997.31,-19.78 987.01,-22.26 996.61,-26.74 997.31,-19.78"/>
</a>
</g>
</g>
<!-- 20&#45;&gt;5 -->
<g id="edge31" class="edge">
<title>20&#45;&gt;5</title>
<g id="a_edge31"><a xlink:title="include">
<path fill="none" stroke="#1414ce" d="M1053.71,-432.56C1069.29,-423.46 1087.25,-410.96 1100,-396 1128.25,-362.85 1141,-350.55 1141,-307 1141,-307 1141,-307 1141,-233 1141,-192.04 1128.17,-146.02 1118.76,-117.77"/>
<polygon fill="#1414ce" stroke="#1414ce" points="1122.03,-116.53 1115.48,-108.21 1115.41,-118.8 1122.03,-116.53"/>
</a>
</g>
</g>
<!-- 20&#45;&gt;23 -->
<g id="edge34" class="edge">
<title>20&#45;&gt;23</title>
<g id="a_edge34"><a xlink:title="include">
<path fill="none" stroke="#1414ce" d="M1051.3,-431.8C1063.88,-422.9 1077.12,-410.77 1084,-396 1090.75,-381.49 1090.15,-374.77 1084,-360 1065.75,-316.19 1023.85,-279.85 993.37,-257.85"/>
<polygon fill="#1414ce" stroke="#1414ce" points="995.29,-254.92 985.1,-252.03 991.26,-260.65 995.29,-254.92"/>
</a>
</g>
</g>
<!-- 21 -->
<g id="node19" class="node">
<title>21</title>
<g id="a_node19"><a xlink:title="sys/types.h">
<polygon fill="#ffffff" stroke="black" points="857.5,-396 760.5,-396 760.5,-360 857.5,-360 857.5,-396"/>
<text text-anchor="middle" x="809" y="-374.3" font-family="Times,serif" font-size="14.00">sys/types.h</text>
</a>
</g>
</g>
<!-- 20&#45;&gt;21 -->
<g id="edge27" class="edge">
<title>20&#45;&gt;21</title>
<g id="a_edge27"><a xlink:title="include">
<path fill="none" stroke="#1414ce" d="M988.34,-438.22C956.22,-427.61 906.47,-411.18 867.51,-398.32"/>
<polygon fill="#1414ce" stroke="#1414ce" points="868.45,-394.94 857.86,-395.13 866.26,-401.59 868.45,-394.94"/>
</a>
</g>
</g>
<!-- 22 -->
<g id="node20" class="node">
<title>22</title>
<g id="a_node20"><a xlink:title="string.h">
<polygon fill="#ffffff" stroke="black" points="948.5,-396 875.5,-396 875.5,-360 948.5,-360 948.5,-396"/>
<text text-anchor="middle" x="912" y="-374.3" font-family="Times,serif" font-size="14.00">string.h</text>
</a>
</g>
</g>
<!-- 20&#45;&gt;22 -->
<g id="edge32" class="edge">
<title>20&#45;&gt;22</title>
<g id="a_edge32"><a xlink:title="include">
<path fill="none" stroke="#1414ce" d="M994.34,-431.88C980.22,-422.81 962.69,-411.55 947.44,-401.76"/>
<polygon fill="#1414ce" stroke="#1414ce" points="949.07,-398.65 938.77,-396.19 945.29,-404.54 949.07,-398.65"/>
</a>
</g>
</g>
<!-- 20&#45;&gt;12 -->
<g id="edge37" class="edge">
<title>20&#45;&gt;12</title>
<g id="a_edge37"><a xlink:title="include">
<path fill="none" stroke="#1414ce" d="M988.48,-447.57C923.57,-443.96 781.63,-432.03 752,-396 729.09,-368.14 777.6,-321.17 792,-252 801.64,-205.71 802.48,-150.41 801.93,-118.15"/>
<polygon fill="#1414ce" stroke="#1414ce" points="805.43,-118.06 801.7,-108.14 798.43,-118.21 805.43,-118.06"/>
</a>
</g>
</g>
<!-- 20&#45;&gt;10 -->
<g id="edge30" class="edge">
<title>20&#45;&gt;10</title>
<g id="a_edge30"><a xlink:title="include">
<path fill="none" stroke="#1414ce" d="M1053.52,-446.51C1088.51,-442.09 1143.51,-429.86 1176,-396 1245.32,-323.75 1225.63,-279.09 1240,-180 1242.3,-164.17 1245.08,-159.17 1240,-144 1236.65,-134 1230.58,-124.38 1224.17,-116.14"/>
<polygon fill="#1414ce" stroke="#1414ce" points="1226.82,-113.85 1217.73,-108.4 1221.44,-118.33 1226.82,-113.85"/>
</a>
</g>
</g>
<!-- 11&#45;&gt;12 -->
<g id="edge38" class="edge">
<title>11&#45;&gt;12</title>
<g id="a_edge38"><a xlink:title="include">
<path fill="none" stroke="#1414ce" d="M836.38,-143.7C830.86,-135.47 824.15,-125.48 818.07,-116.42"/>
<polygon fill="#1414ce" stroke="#1414ce" points="820.96,-114.46 812.48,-108.1 815.15,-118.36 820.96,-114.46"/>
</a>
</g>
</g>
<!-- 14 -->
<g id="node16" class="node">
<title>14</title>
<g id="a_node16"><a xlink:title="limits.h">
<polygon fill="#ffffff" stroke="black" points="789.5,-36 718.5,-36 718.5,0 789.5,0 789.5,-36"/>
<text text-anchor="middle" x="754" y="-14.3" font-family="Times,serif" font-size="14.00">limits.h</text>
</a>
</g>
</g>
<!-- 6 -->
<g id="node17" class="node">
<title>6</title>
<g id="a_node17"><a xlink:title="atom_table.h">
<polygon fill="#ffffff" stroke="black" points="1354.5,-252 1245.5,-252 1245.5,-216 1354.5,-216 1354.5,-252"/>
<text text-anchor="middle" x="1300" y="-230.3" font-family="Times,serif" font-size="14.00">atom_table.h</text>
</a>
</g>
</g>
<!-- 6&#45;&gt;7 -->
<g id="edge39" class="edge">
<title>6&#45;&gt;7</title>
<g id="a_edge39"><a xlink:title="include">
<path fill="none" stroke="#1414ce" d="M1245.37,-220C1167.59,-201.73 1020.36,-168.01 894,-144 796.35,-125.45 681.58,-107.92 616.66,-98.41"/>
<polygon fill="#1414ce" stroke="#1414ce" points="617.08,-94.93 606.68,-96.95 616.07,-101.86 617.08,-94.93"/>
</a>
</g>
</g>
<!-- 6&#45;&gt;4 -->
<g id="edge40" class="edge">
<title>6&#45;&gt;4</title>
<g id="a_edge40"><a xlink:title="include">
<path fill="none" stroke="#1414ce" d="M1316.07,-215.7C1323.94,-207.22 1333.56,-196.86 1342.17,-187.58"/>
<polygon fill="#1414ce" stroke="#1414ce" points="1344.88,-189.81 1349.12,-180.1 1339.75,-185.05 1344.88,-189.81"/>
</a>
</g>
</g>
<!-- 6&#45;&gt;8 -->
<g id="edge41" class="edge">
<title>6&#45;&gt;8</title>
<g id="a_edge41"><a xlink:title="include">
<path fill="none" stroke="#1414ce" d="M1275.54,-215.88C1262.7,-206.89 1246.8,-195.76 1232.91,-186.03"/>
<polygon fill="#1414ce" stroke="#1414ce" points="1234.76,-183.06 1224.56,-180.19 1230.74,-188.79 1234.76,-183.06"/>
</a>
</g>
</g>
<!-- 1 -->
<g id="node18" class="node">
<title>1</title>
<g id="a_node18"><a xlink:title="/__w/AtomVM/AtomVM/src/libAtomVM/avmpack.h">
<polygon fill="#bfbfbf" stroke="black" points="370,-684 0,-684 0,-648 370,-648 370,-684"/>
<text text-anchor="middle" x="185" y="-662.3" font-family="Times,serif" font-size="14.00">/__w/AtomVM/AtomVM/src/libAtomVM/avmpack.h</text>
</a>
</g>
</g>
<!-- 1&#45;&gt;7 -->
<g id="edge44" class="edge">
<title>1&#45;&gt;7</title>
<g id="a_edge44"><a xlink:title="include">
<path fill="none" stroke="#1414ce" d="M176.91,-647.95C165.22,-621.72 145,-569.61 145,-523 145,-523 145,-523 145,-305 145,-264.55 138.78,-247.62 164,-216 208.07,-160.73 415.41,-117.48 513.42,-99.74"/>
<polygon fill="#1414ce" stroke="#1414ce" points="514.18,-103.16 523.4,-97.96 512.94,-96.27 514.18,-103.16"/>
</a>
</g>
</g>
<!-- 1&#45;&gt;17 -->
<g id="edge43" class="edge">
<title>1&#45;&gt;17</title>
<g id="a_edge43"><a xlink:title="include">
<path fill="none" stroke="#1414ce" d="M187.94,-647.71C199.98,-582.12 251.35,-345.82 386,-216 414.62,-188.41 433.24,-195.84 474.49,-179.89"/>
<polygon fill="#1414ce" stroke="#1414ce" points="476.05,-183.03 483.95,-175.98 473.37,-176.56 476.05,-183.03"/>
</a>
</g>
</g>
<!-- 1&#45;&gt;3 -->
<g id="edge46" class="edge">
<title>1&#45;&gt;3</title>
<g id="a_edge46"><a xlink:title="include">
<path fill="none" stroke="#1414ce" d="M157.22,-647.88C122.9,-624.35 69,-578.55 69,-523 69,-523 69,-523 69,-161 69,-116.06 78.94,-95.91 117,-72 189.06,-26.73 782.49,-52.08 904.89,-35.43"/>
<polygon fill="#1414ce" stroke="#1414ce" points="905.66,-38.85 914.94,-33.74 904.5,-31.94 905.66,-38.85"/>
</a>
</g>
</g>
<!-- 1&#45;&gt;9 -->
<g id="edge45" class="edge">
<title>1&#45;&gt;9</title>
<g id="a_edge45"><a xlink:title="include">
<path fill="none" stroke="#1414ce" d="M370.12,-665.12C751.64,-662.89 1590,-644.2 1590,-523 1590,-523 1590,-523 1590,-233 1590,-192.55 1593.96,-177.3 1571,-144 1561.92,-130.84 1548.4,-120.18 1534.94,-111.96"/>
<polygon fill="#1414ce" stroke="#1414ce" points="1536.57,-108.86 1526.15,-106.92 1533.08,-114.93 1536.57,-108.86"/>
</a>
</g>
</g>
<!-- 2 -->
<g id="node22" class="node">
<title>2</title>
<g id="a_node22"><a xlink:title="globalcontext.h">
<polygon fill="#ffffff" stroke="black" points="590.5,-612 463.5,-612 463.5,-576 590.5,-576 590.5,-612"/>
<text text-anchor="middle" x="527" y="-590.3" font-family="Times,serif" font-size="14.00">globalcontext.h</text>
</a>
</g>
</g>
<!-- 1&#45;&gt;2 -->
<g id="edge42" class="edge">
<title>1&#45;&gt;2</title>
<g id="a_edge42"><a xlink:title="include">
<path fill="none" stroke="#1414ce" d="M268.23,-647.97C324.81,-636.38 398.99,-621.2 453.41,-610.06"/>
<polygon fill="#1414ce" stroke="#1414ce" points="454.24,-613.46 463.34,-608.03 452.84,-606.61 454.24,-613.46"/>
</a>
</g>
</g>
<!-- 12&#45;&gt;13 -->
<g id="edge47" class="edge">
<title>12&#45;&gt;13</title>
<g id="a_edge47"><a xlink:title="include">
<path fill="none" stroke="#1414ce" d="M767.24,-71.88C748.78,-62.51 725.72,-50.81 705.98,-40.8"/>
<polygon fill="#1414ce" stroke="#1414ce" points="707.39,-37.59 696.89,-36.19 704.22,-43.83 707.39,-37.59"/>
</a>
</g>
</g>
<!-- 12&#45;&gt;3 -->
<g id="edge50" class="edge">
<title>12&#45;&gt;3</title>
<g id="a_edge50"><a xlink:title="include">
<path fill="none" stroke="#1414ce" d="M837.69,-71.88C858.26,-62.28 884.08,-50.23 905.88,-40.06"/>
<polygon fill="#1414ce" stroke="#1414ce" points="907.36,-43.23 914.94,-35.83 904.4,-36.88 907.36,-43.23"/>
</a>
</g>
</g>
<!-- 12&#45;&gt;14 -->
<g id="edge48" class="edge">
<title>12&#45;&gt;14</title>
<g id="a_edge48"><a xlink:title="include">
<path fill="none" stroke="#1414ce" d="M789.38,-71.7C783.86,-63.47 777.15,-53.48 771.07,-44.42"/>
<polygon fill="#1414ce" stroke="#1414ce" points="773.96,-42.46 765.48,-36.1 768.15,-46.36 773.96,-42.46"/>
</a>
</g>
</g>
<!-- 15 -->
<g id="node28" class="node">
<title>15</title>
<g id="a_node28"><a xlink:title="inttypes.h">
<polygon fill="#ffffff" stroke="black" points="896.5,-36 807.5,-36 807.5,0 896.5,0 896.5,-36"/>
<text text-anchor="middle" x="852" y="-14.3" font-family="Times,serif" font-size="14.00">inttypes.h</text>
</a>
</g>
</g>
<!-- 12&#45;&gt;15 -->
<g id="edge49" class="edge">
<title>12&#45;&gt;15</title>
<g id="a_edge49"><a xlink:title="include">
<path fill="none" stroke="#1414ce" d="M813.61,-71.7C819.6,-63.47 826.88,-53.48 833.48,-44.42"/>
<polygon fill="#1414ce" stroke="#1414ce" points="836.48,-46.25 839.54,-36.1 830.82,-42.13 836.48,-46.25"/>
</a>
</g>
</g>
<!-- 2&#45;&gt;4 -->
<g id="edge52" class="edge">
<title>2&#45;&gt;4</title>
<g id="a_edge52"><a xlink:title="include">
<path fill="none" stroke="#1414ce" d="M590.69,-590.03C800.86,-579.38 1459,-539.03 1459,-451 1459,-451 1459,-451 1459,-305 1459,-257.17 1421.46,-213.08 1393.82,-187.11"/>
<polygon fill="#1414ce" stroke="#1414ce" points="1396.08,-184.42 1386.33,-180.27 1391.36,-189.6 1396.08,-184.42"/>
</a>
</g>
</g>
<!-- 2&#45;&gt;18 -->
<g id="edge59" class="edge">
<title>2&#45;&gt;18</title>
<g id="a_edge59"><a xlink:title="include">
<path fill="none" stroke="#1414ce" d="M510.51,-575.77C488.16,-550.53 451,-501.05 451,-451 451,-451 451,-451 451,-377 451,-335.97 464.23,-289.97 473.94,-261.74"/>
<polygon fill="#1414ce" stroke="#1414ce" points="477.28,-262.78 477.32,-252.19 470.68,-260.45 477.28,-262.78"/>
</a>
</g>
</g>
<!-- 2&#45;&gt;17 -->
<g id="edge56" class="edge">
<title>2&#45;&gt;17</title>
<g id="a_edge56"><a xlink:title="include">
<path fill="none" stroke="#1414ce" d="M485.87,-575.9C440.85,-554.12 375,-511.85 375,-451 375,-451 375,-451 375,-305 375,-259.85 392.78,-248.62 424,-216 432.04,-207.6 454.79,-193.84 475,-182.44"/>
<polygon fill="#1414ce" stroke="#1414ce" points="476.73,-185.49 483.76,-177.57 473.32,-179.38 476.73,-185.49"/>
</a>
</g>
</g>
<!-- 2&#45;&gt;3 -->
<g id="edge51" class="edge">
<title>2&#45;&gt;3</title>
<g id="a_edge51"><a xlink:title="include">
<path fill="none" stroke="#1414ce" d="M463.21,-589.19C345.72,-578.37 107,-536.94 107,-379 107,-379 107,-379 107,-161 107,-30 259.31,-96.49 388,-72 611.5,-29.47 678.65,-83.72 905.07,-35.79"/>
<polygon fill="#1414ce" stroke="#1414ce" points="905.89,-39.2 914.93,-33.66 904.41,-32.35 905.89,-39.2"/>
</a>
</g>
</g>
<!-- 2&#45;&gt;28 -->
<g id="edge62" class="edge">
<title>2&#45;&gt;28</title>
<g id="a_edge62"><a xlink:title="include">
<path fill="none" stroke="#1414ce" d="M590.5,-591.04C748.15,-585.77 1154.15,-569.67 1286,-540 1385.3,-517.65 1497,-552.78 1497,-451 1497,-451 1497,-451 1497,-305 1497,-264.93 1493.79,-218.61 1491.43,-190.05"/>
<polygon fill="#1414ce" stroke="#1414ce" points="1494.91,-189.7 1490.58,-180.03 1487.94,-190.29 1494.91,-189.7"/>
</a>
</g>
</g>
<!-- 2&#45;&gt;20 -->
<g id="edge60" class="edge">
<title>2&#45;&gt;20</title>
<g id="a_edge60"><a xlink:title="include">
<path fill="none" stroke="#1414ce" d="M586.59,-575.87C687.77,-546.79 890.75,-488.44 978.73,-463.15"/>
<polygon fill="#1414ce" stroke="#1414ce" points="979.73,-466.5 988.37,-460.38 977.8,-459.78 979.73,-466.5"/>
</a>
</g>
</g>
<!-- 2&#45;&gt;11 -->
<g id="edge54" class="edge">
<title>2&#45;&gt;11</title>
<g id="a_edge54"><a xlink:title="include">
<path fill="none" stroke="#1414ce" d="M578.34,-575.95C598.35,-567.46 620.4,-555.61 637,-540 694.39,-486.03 799.67,-266.78 835.6,-189.84"/>
<polygon fill="#1414ce" stroke="#1414ce" points="838.97,-190.91 840.01,-180.37 832.62,-187.96 838.97,-190.91"/>
</a>
</g>
</g>
<!-- 2&#45;&gt;6 -->
<g id="edge53" class="edge">
<title>2&#45;&gt;6</title>
<g id="a_edge53"><a xlink:title="include">
<path fill="none" stroke="#1414ce" d="M590.51,-592.69C722.35,-588.6 1028.1,-560.73 1204,-396 1245.51,-357.13 1275.08,-296.3 1289.67,-261.61"/>
<polygon fill="#1414ce" stroke="#1414ce" points="1293,-262.73 1293.55,-252.15 1286.52,-260.07 1293,-262.73"/>
</a>
</g>
</g>
<!-- 2&#45;&gt;19 -->
<g id="edge58" class="edge">
<title>2&#45;&gt;19</title>
<g id="a_edge58"><a xlink:title="include">
<path fill="none" stroke="#1414ce" d="M463.49,-578.45C438.24,-570.3 410.22,-558.03 389,-540 354.09,-510.33 337,-496.81 337,-451 337,-451 337,-451 337,-305 337,-256.38 376.54,-212.5 405.65,-186.78"/>
<polygon fill="#1414ce" stroke="#1414ce" points="408.22,-189.19 413.54,-180.03 403.66,-183.87 408.22,-189.19"/>
</a>
</g>
</g>
<!-- 27 -->
<g id="node24" class="node">
<title>27</title>
<g id="a_node24"><a xlink:title="timer_list.h">
<polygon fill="#ffffff" stroke="black" points="271,-252 173,-252 173,-216 271,-216 271,-252"/>
<text text-anchor="middle" x="222" y="-230.3" font-family="Times,serif" font-size="14.00">timer_list.h</text>
</a>
</g>
</g>
<!-- 2&#45;&gt;27 -->
<g id="edge61" class="edge">
<title>2&#45;&gt;27</title>
<g id="a_edge61"><a xlink:title="include">
<path fill="none" stroke="#1414ce" d="M463.29,-586.76C384.59,-575.14 261,-542.35 261,-451 261,-451 261,-451 261,-377 261,-335.56 245.36,-289.67 233.89,-261.58"/>
<polygon fill="#1414ce" stroke="#1414ce" points="237,-259.93 229.89,-252.07 230.55,-262.65 237,-259.93"/>
</a>
</g>
</g>
<!-- 2&#45;&gt;26 -->
<g id="edge57" class="edge">
<title>2&#45;&gt;26</title>
<g id="a_edge57"><a xlink:title="include">
<path fill="none" stroke="#1414ce" d="M559.22,-575.87C597.43,-552.95 656,-508.45 656,-451 656,-451 656,-451 656,-377 656,-330.6 689.64,-286.06 714.34,-259.6"/>
<polygon fill="#1414ce" stroke="#1414ce" points="716.95,-261.95 721.36,-252.31 711.9,-257.09 716.95,-261.95"/>
</a>
</g>
</g>
<!-- 16 -->
<g id="node27" class="node">
<title>16</title>
<g id="a_node27"><a xlink:title="ets.h">
<polygon fill="#ffffff" stroke="black" points="554,-540 500,-540 500,-504 554,-504 554,-540"/>
<text text-anchor="middle" x="527" y="-518.3" font-family="Times,serif" font-size="14.00">ets.h</text>
</a>
</g>
</g>
<!-- 2&#45;&gt;16 -->
<g id="edge55" class="edge">
<title>2&#45;&gt;16</title>
<g id="a_edge55"><a xlink:title="include">
<path fill="none" stroke="#1414ce" d="M527,-575.7C527,-567.98 527,-558.71 527,-550.11"/>
<polygon fill="#1414ce" stroke="#1414ce" points="530.5,-550.1 527,-540.1 523.5,-550.1 530.5,-550.1"/>
</a>
</g>
</g>
<!-- 19&#45;&gt;7 -->
<g id="edge63" class="edge">
<title>19&#45;&gt;7</title>
<g id="a_edge63"><a xlink:title="include">
<path fill="none" stroke="#1414ce" d="M466.24,-144.59C483.65,-135.14 505.75,-123.15 524.62,-112.91"/>
<polygon fill="#1414ce" stroke="#1414ce" points="526.48,-115.89 533.6,-108.04 523.14,-109.73 526.48,-115.89"/>
</a>
</g>
</g>
<!-- 27&#45;&gt;7 -->
<g id="edge64" class="edge">
<title>27&#45;&gt;7</title>
<g id="a_edge64"><a xlink:title="include">
<path fill="none" stroke="#1414ce" d="M251.95,-215.85C286.24,-196.66 344.47,-165.47 397,-144 435.26,-128.36 479.95,-114.46 513.62,-104.82"/>
<polygon fill="#1414ce" stroke="#1414ce" points="514.58,-108.19 523.25,-102.1 512.67,-101.45 514.58,-108.19"/>
</a>
</g>
</g>
<!-- 27&#45;&gt;17 -->
<g id="edge66" class="edge">
<title>27&#45;&gt;17</title>
<g id="a_edge66"><a xlink:title="include">
<path fill="none" stroke="#1414ce" d="M271.09,-219.37C275.78,-218.18 280.47,-217.04 285,-216 365.75,-197.48 391.41,-205.9 474.22,-179.81"/>
<polygon fill="#1414ce" stroke="#1414ce" points="475.33,-183.13 483.78,-176.73 473.18,-176.47 475.33,-183.13"/>
</a>
</g>
</g>
<!-- 27&#45;&gt;3 -->
<g id="edge65" class="edge">
<title>27&#45;&gt;3</title>
<g id="a_edge65"><a xlink:title="include">
<path fill="none" stroke="#1414ce" d="M236.88,-215.76C254.68,-196.06 286.21,-163.98 319,-144 542.65,-7.73 644.9,-93.33 904.81,-35.88"/>
<polygon fill="#1414ce" stroke="#1414ce" points="905.93,-39.21 914.91,-33.59 904.38,-32.39 905.93,-39.21"/>
</a>
</g>
</g>
<!-- 26&#45;&gt;7 -->
<g id="edge67" class="edge">
<title>26&#45;&gt;7</title>
<g id="a_edge67"><a xlink:title="include">
<path fill="none" stroke="#1414ce" d="M723.28,-215.68C704.89,-197.05 674.08,-166.99 645,-144 631.49,-133.32 615.85,-122.63 602,-113.67"/>
<polygon fill="#1414ce" stroke="#1414ce" points="603.51,-110.48 593.2,-108.05 599.74,-116.38 603.51,-110.48"/>
</a>
</g>
</g>
<!-- 26&#45;&gt;8 -->
<g id="edge70" class="edge">
<title>26&#45;&gt;8</title>
<g id="a_edge70"><a xlink:title="include">
<path fill="none" stroke="#1414ce" d="M783.28,-226.41C871.71,-212.96 1072.11,-182.46 1158.78,-169.27"/>
<polygon fill="#1414ce" stroke="#1414ce" points="1159.41,-172.72 1168.77,-167.75 1158.36,-165.8 1159.41,-172.72"/>
</a>
</g>
</g>
<!-- 26&#45;&gt;17 -->
<g id="edge68" class="edge">
<title>26&#45;&gt;17</title>
<g id="a_edge68"><a xlink:title="include">
<path fill="none" stroke="#1414ce" d="M696.93,-219.83C653.93,-206.69 588.55,-186.71 547.88,-174.27"/>
<polygon fill="#1414ce" stroke="#1414ce" points="548.68,-170.86 538.1,-171.28 546.64,-177.55 548.68,-170.86"/>
</a>
</g>
</g>
<!-- 26&#45;&gt;12 -->
<g id="edge69" class="edge">
<title>26&#45;&gt;12</title>
<g id="a_edge69"><a xlink:title="include">
<path fill="none" stroke="#1414ce" d="M733.07,-215.96C726.63,-197.29 719.59,-166.95 731,-144 737,-131.93 747.21,-121.87 758.01,-113.88"/>
<polygon fill="#1414ce" stroke="#1414ce" points="760.06,-116.71 766.32,-108.17 756.09,-110.95 760.06,-116.71"/>
</a>
</g>
</g>
<!-- 16&#45;&gt;18 -->
<g id="edge72" class="edge">
<title>16&#45;&gt;18</title>
<g id="a_edge72"><a xlink:title="include">
<path fill="none" stroke="#1414ce" d="M524.42,-503.61C520.05,-474.08 510.87,-412.26 503,-360 497.94,-326.38 492.05,-287.69 488.18,-262.37"/>
<polygon fill="#1414ce" stroke="#1414ce" points="491.63,-261.75 486.66,-252.39 484.71,-262.8 491.63,-261.75"/>
</a>
</g>
</g>
<!-- 16&#45;&gt;17 -->
<g id="edge71" class="edge">
<title>16&#45;&gt;17</title>
<g id="a_edge71"><a xlink:title="include">
<path fill="none" stroke="#1414ce" d="M518.74,-503.92C499.06,-462.14 449.8,-351.01 433,-252 430.32,-236.23 425.51,-230.14 433,-216 437.84,-206.86 456.9,-193.84 474.96,-182.98"/>
<polygon fill="#1414ce" stroke="#1414ce" points="476.83,-185.94 483.68,-177.86 473.29,-179.91 476.83,-185.94"/>
</a>
</g>
</g>
<!-- 16&#45;&gt;20 -->
<g id="edge73" class="edge">
<title>16&#45;&gt;20</title>
<g id="a_edge73"><a xlink:title="include">
<path fill="none" stroke="#1414ce" d="M554.26,-517.14C636.02,-505.55 879.57,-471.04 978.51,-457.02"/>
<polygon fill="#1414ce" stroke="#1414ce" points="979.05,-460.48 988.46,-455.61 978.07,-453.55 979.05,-460.48"/>
</a>
</g>
</g>
</g>
</svg>
