<?xml version="1.0" encoding="UTF-8" standalone="no"?>
<!DOCTYPE svg PUBLIC "-//W3C//DTD SVG 1.1//EN"
 "http://www.w3.org/Graphics/SVG/1.1/DTD/svg11.dtd">
<!-- Generated by graphviz version 2.43.0 (0)
 -->
<!-- Title: %3 Pages: 1 -->
<svg width="1609pt" height="692pt"
 viewBox="0.00 0.00 1609.00 692.00" xmlns="http://www.w3.org/2000/svg" xmlns:xlink="http://www.w3.org/1999/xlink">
<g id="graph0" class="graph" transform="scale(1 1) rotate(0) translate(4 688)">
<title>%3</title>
<polygon fill="transparent" stroke="transparent" points="-4,4 -4,-688 1605,-688 1605,4 -4,4"/>
<!-- 10 -->
<g id="node1" class="node">
<title>10</title>
<g id="a_node1"><a xlink:title="atom.h">
<polygon fill="#ffffff" stroke="black" points="868,-180 802,-180 802,-144 868,-144 868,-180"/>
<text text-anchor="middle" x="835" y="-158.3" font-family="Times,serif" font-size="14.00">atom.h</text>
</a>
</g>
</g>
<!-- 6 -->
<g id="node26" class="node">
<title>6</title>
<g id="a_node26"><a xlink:title="stdint.h">
<polygon fill="#ffffff" stroke="black" points="871,-36 799,-36 799,0 871,0 871,-36"/>
<text text-anchor="middle" x="835" y="-14.3" font-family="Times,serif" font-size="14.00">stdint.h</text>
</a>
</g>
</g>
<!-- 10&#45;&gt;6 -->
<g id="edge1" class="edge">
<title>10&#45;&gt;6</title>
<g id="a_edge1"><a xlink:title="include">
<path fill="none" stroke="#1414ce" d="M835,-143.87C835,-119.67 835,-75.21 835,-46.39"/>
<polygon fill="#1414ce" stroke="#1414ce" points="838.5,-46.19 835,-36.19 831.5,-46.19 838.5,-46.19"/>
</a>
</g>
</g>
<!-- 8 -->
<g id="node28" class="node">
<title>8</title>
<g id="a_node28"><a xlink:title="stdlib.h">
<polygon fill="#ffffff" stroke="black" points="557.5,-108 486.5,-108 486.5,-72 557.5,-72 557.5,-108"/>
<text text-anchor="middle" x="522" y="-86.3" font-family="Times,serif" font-size="14.00">stdlib.h</text>
</a>
</g>
</g>
<!-- 10&#45;&gt;8 -->
<g id="edge2" class="edge">
<title>10&#45;&gt;8</title>
<g id="a_edge2"><a xlink:title="include">
<path fill="none" stroke="#1414ce" d="M801.8,-153.58C745.5,-140.98 631.21,-115.42 567.5,-101.18"/>
<polygon fill="#1414ce" stroke="#1414ce" points="568.25,-97.76 557.73,-98.99 566.72,-104.59 568.25,-97.76"/>
</a>
</g>
</g>
<!-- 27 -->
<g id="node2" class="node">
<title>27</title>
<g id="a_node2"><a xlink:title="atom_table.h">
<polygon fill="#ffffff" stroke="black" points="905.5,-252 796.5,-252 796.5,-216 905.5,-216 905.5,-252"/>
<text text-anchor="middle" x="851" y="-230.3" font-family="Times,serif" font-size="14.00">atom_table.h</text>
</a>
</g>
</g>
<!-- 27&#45;&gt;10 -->
<g id="edge4" class="edge">
<title>27&#45;&gt;10</title>
<g id="a_edge4"><a xlink:title="include">
<path fill="none" stroke="#1414ce" d="M847.04,-215.7C845.28,-207.98 843.16,-198.71 841.2,-190.11"/>
<polygon fill="#1414ce" stroke="#1414ce" points="844.55,-189.07 838.91,-180.1 837.73,-190.63 844.55,-189.07"/>
</a>
</g>
</g>
<!-- 12 -->
<g id="node19" class="node">
<title>12</title>
<g id="a_node19"><a xlink:title="utils.h">
<polygon fill="#ffffff" stroke="black" points="670,-180 608,-180 608,-144 670,-144 670,-180"/>
<text text-anchor="middle" x="639" y="-158.3" font-family="Times,serif" font-size="14.00">utils.h</text>
</a>
</g>
</g>
<!-- 27&#45;&gt;12 -->
<g id="edge5" class="edge">
<title>27&#45;&gt;12</title>
<g id="a_edge5"><a xlink:title="include">
<path fill="none" stroke="#1414ce" d="M799.41,-215.97C762.6,-203.81 713.77,-187.69 679.7,-176.44"/>
<polygon fill="#1414ce" stroke="#1414ce" points="680.66,-173.07 670.07,-173.26 678.46,-179.72 680.66,-173.07"/>
</a>
</g>
</g>
<!-- 5 -->
<g id="node24" class="node">
<title>5</title>
<g id="a_node24"><a xlink:title="stdbool.h">
<polygon fill="#ffffff" stroke="black" points="1013.5,-108 930.5,-108 930.5,-72 1013.5,-72 1013.5,-108"/>
<text text-anchor="middle" x="972" y="-86.3" font-family="Times,serif" font-size="14.00">stdbool.h</text>
</a>
</g>
</g>
<!-- 27&#45;&gt;5 -->
<g id="edge3" class="edge">
<title>27&#45;&gt;5</title>
<g id="a_edge3"><a xlink:title="include">
<path fill="none" stroke="#1414ce" d="M865.6,-215.87C886.76,-191.03 926.12,-144.85 950.58,-116.14"/>
<polygon fill="#1414ce" stroke="#1414ce" points="953.53,-118.07 957.35,-108.19 948.2,-113.53 953.53,-118.07"/>
</a>
</g>
</g>
<!-- 16 -->
<g id="node3" class="node">
<title>16</title>
<g id="a_node3"><a xlink:title="erl_nif.h">
<polygon fill="#ffffff" stroke="black" points="253,-180 179,-180 179,-144 253,-144 253,-180"/>
<text text-anchor="middle" x="216" y="-158.3" font-family="Times,serif" font-size="14.00">erl_nif.h</text>
</a>
</g>
</g>
<!-- 17 -->
<g id="node17" class="node">
<title>17</title>
<g id="a_node17"><a xlink:title="term_typedef.h">
<polygon fill="#ffffff" stroke="black" points="290.5,-108 165.5,-108 165.5,-72 290.5,-72 290.5,-108"/>
<text text-anchor="middle" x="228" y="-86.3" font-family="Times,serif" font-size="14.00">term_typedef.h</text>
</a>
</g>
</g>
<!-- 16&#45;&gt;17 -->
<g id="edge6" class="edge">
<title>16&#45;&gt;17</title>
<g id="a_edge6"><a xlink:title="include">
<path fill="none" stroke="#1414ce" d="M218.97,-143.7C220.29,-135.98 221.88,-126.71 223.35,-118.11"/>
<polygon fill="#1414ce" stroke="#1414ce" points="226.83,-118.55 225.07,-108.1 219.93,-117.37 226.83,-118.55"/>
</a>
</g>
</g>
<!-- 28 -->
<g id="node4" class="node">
<title>28</title>
<g id="a_node4"><a xlink:title="ets.h">
<polygon fill="#ffffff" stroke="black" points="1206,-540 1152,-540 1152,-504 1206,-504 1206,-540"/>
<text text-anchor="middle" x="1179" y="-518.3" font-family="Times,serif" font-size="14.00">ets.h</text>
</a>
</g>
</g>
<!-- 21 -->
<g id="node8" class="node">
<title>21</title>
<g id="a_node8"><a xlink:title="list.h">
<polygon fill="#ffffff" stroke="black" points="1101,-180 1047,-180 1047,-144 1101,-144 1101,-180"/>
<text text-anchor="middle" x="1074" y="-158.3" font-family="Times,serif" font-size="14.00">list.h</text>
</a>
</g>
</g>
<!-- 28&#45;&gt;21 -->
<g id="edge7" class="edge">
<title>28&#45;&gt;21</title>
<g id="a_edge7"><a xlink:title="include">
<path fill="none" stroke="#1414ce" d="M1189.15,-503.73C1203.51,-477.64 1228,-426.2 1228,-379 1228,-379 1228,-379 1228,-305 1228,-264.46 1234.35,-246.81 1208,-216 1207.15,-215.01 1150.17,-192.67 1110.79,-177.32"/>
<polygon fill="#1414ce" stroke="#1414ce" points="1111.79,-173.95 1101.21,-173.58 1109.25,-180.47 1111.79,-173.95"/>
</a>
</g>
</g>
<!-- 24 -->
<g id="node15" class="node">
<title>24</title>
<g id="a_node15"><a xlink:title="synclist.h">
<polygon fill="#ffffff" stroke="black" points="1199.5,-252 1114.5,-252 1114.5,-216 1199.5,-216 1199.5,-252"/>
<text text-anchor="middle" x="1157" y="-230.3" font-family="Times,serif" font-size="14.00">synclist.h</text>
</a>
</g>
</g>
<!-- 28&#45;&gt;24 -->
<g id="edge8" class="edge">
<title>28&#45;&gt;24</title>
<g id="a_edge8"><a xlink:title="include">
<path fill="none" stroke="#1414ce" d="M1177.69,-503.97C1174.02,-456.29 1163.63,-321.18 1159.13,-262.63"/>
<polygon fill="#1414ce" stroke="#1414ce" points="1162.59,-262.01 1158.33,-252.31 1155.61,-262.55 1162.59,-262.01"/>
</a>
</g>
</g>
<!-- 3 -->
<g id="node16" class="node">
<title>3</title>
<g id="a_node16"><a xlink:title="term.h">
<polygon fill="#ffffff" stroke="black" points="553.5,-468 488.5,-468 488.5,-432 553.5,-432 553.5,-468"/>
<text text-anchor="middle" x="521" y="-446.3" font-family="Times,serif" font-size="14.00">term.h</text>
</a>
</g>
</g>
<!-- 28&#45;&gt;3 -->
<g id="edge9" class="edge">
<title>28&#45;&gt;3</title>
<g id="a_edge9"><a xlink:title="include">
<path fill="none" stroke="#1414ce" d="M1151.98,-518.13C1050.11,-507.29 688.79,-468.85 563.86,-455.56"/>
<polygon fill="#1414ce" stroke="#1414ce" points="563.87,-452.04 553.56,-454.46 563.13,-459 563.87,-452.04"/>
</a>
</g>
</g>
<!-- 2 -->
<g id="node5" class="node">
<title>2</title>
<g id="a_node5"><a xlink:title="exportedfunction.h">
<polygon fill="#ffffff" stroke="black" points="152,-540 0,-540 0,-504 152,-504 152,-540"/>
<text text-anchor="middle" x="76" y="-518.3" font-family="Times,serif" font-size="14.00">exportedfunction.h</text>
</a>
</g>
</g>
<!-- 2&#45;&gt;3 -->
<g id="edge10" class="edge">
<title>2&#45;&gt;3</title>
<g id="a_edge10"><a xlink:title="include">
<path fill="none" stroke="#1414ce" d="M152.25,-509.01C246.42,-494.19 403.35,-469.51 478.43,-457.7"/>
<polygon fill="#1414ce" stroke="#1414ce" points="479.14,-461.13 488.47,-456.12 478.05,-454.21 479.14,-461.13"/>
</a>
</g>
</g>
<!-- 26 -->
<g id="node6" class="node">
<title>26</title>
<g id="a_node6"><a xlink:title="globalcontext.h">
<polygon fill="#ffffff" stroke="black" points="1187.5,-612 1060.5,-612 1060.5,-576 1187.5,-576 1187.5,-612"/>
<text text-anchor="middle" x="1124" y="-590.3" font-family="Times,serif" font-size="14.00">globalcontext.h</text>
</a>
</g>
</g>
<!-- 26&#45;&gt;10 -->
<g id="edge12" class="edge">
<title>26&#45;&gt;10</title>
<g id="a_edge12"><a xlink:title="include">
<path fill="none" stroke="#1414ce" d="M1116.31,-575.91C1105.21,-549.62 1086,-497.45 1086,-451 1086,-451 1086,-451 1086,-305 1086,-257.72 949.38,-202.91 877.73,-177.42"/>
<polygon fill="#1414ce" stroke="#1414ce" points="878.67,-174.04 868.07,-174.02 876.34,-180.64 878.67,-174.04"/>
</a>
</g>
</g>
<!-- 26&#45;&gt;27 -->
<g id="edge13" class="edge">
<title>26&#45;&gt;27</title>
<g id="a_edge13"><a xlink:title="include">
<path fill="none" stroke="#1414ce" d="M1105.23,-575.7C1094.89,-565.73 1082.13,-552.69 1072,-540 988.94,-435.94 996.3,-389.39 910,-288 901.2,-277.66 890.42,-267.42 880.5,-258.74"/>
<polygon fill="#1414ce" stroke="#1414ce" points="882.65,-255.97 872.77,-252.14 878.1,-261.29 882.65,-255.97"/>
</a>
</g>
</g>
<!-- 26&#45;&gt;16 -->
<g id="edge14" class="edge">
<title>26&#45;&gt;16</title>
<g id="a_edge14"><a xlink:title="include">
<path fill="none" stroke="#1414ce" d="M1060.23,-590.15C848.16,-579.83 180,-540.24 180,-451 180,-451 180,-451 180,-305 180,-263.78 194.43,-217.83 205.02,-189.66"/>
<polygon fill="#1414ce" stroke="#1414ce" points="208.36,-190.72 208.71,-180.13 201.84,-188.19 208.36,-190.72"/>
</a>
</g>
</g>
<!-- 26&#45;&gt;28 -->
<g id="edge15" class="edge">
<title>26&#45;&gt;28</title>
<g id="a_edge15"><a xlink:title="include">
<path fill="none" stroke="#1414ce" d="M1137.6,-575.7C1144.12,-567.39 1152.07,-557.28 1159.25,-548.14"/>
<polygon fill="#1414ce" stroke="#1414ce" points="1162.13,-550.13 1165.56,-540.1 1156.63,-545.81 1162.13,-550.13"/>
</a>
</g>
</g>
<!-- 26&#45;&gt;21 -->
<g id="edge16" class="edge">
<title>26&#45;&gt;21</title>
<g id="a_edge16"><a xlink:title="include">
<path fill="none" stroke="#1414ce" d="M1160.94,-575.95C1203.01,-553.69 1266,-510.44 1266,-451 1266,-451 1266,-451 1266,-305 1266,-262.66 1262.81,-245.04 1232,-216 1193.34,-179.55 1168.14,-197.58 1118,-180 1115.63,-179.17 1113.2,-178.3 1110.76,-177.4"/>
<polygon fill="#1414ce" stroke="#1414ce" points="1111.96,-174.11 1101.36,-173.88 1109.5,-180.66 1111.96,-174.11"/>
</a>
</g>
</g>
<!-- 23 -->
<g id="node9" class="node">
<title>23</title>
<g id="a_node9"><a xlink:title="mailbox.h">
<polygon fill="#ffffff" stroke="black" points="740,-252 654,-252 654,-216 740,-216 740,-252"/>
<text text-anchor="middle" x="697" y="-230.3" font-family="Times,serif" font-size="14.00">mailbox.h</text>
</a>
</g>
</g>
<!-- 26&#45;&gt;23 -->
<g id="edge17" class="edge">
<title>26&#45;&gt;23</title>
<g id="a_edge17"><a xlink:title="include">
<path fill="none" stroke="#1414ce" d="M1060.49,-581.68C993.03,-565.58 896,-528.88 896,-451 896,-451 896,-451 896,-377 896,-305.18 809.06,-266.27 750.11,-248.13"/>
<polygon fill="#1414ce" stroke="#1414ce" points="750.76,-244.68 740.18,-245.19 748.77,-251.39 750.76,-244.68"/>
</a>
</g>
</g>
<!-- 25 -->
<g id="node14" class="node">
<title>25</title>
<g id="a_node14"><a xlink:title="smp.h">
<polygon fill="#ffffff" stroke="black" points="1187,-180 1127,-180 1127,-144 1187,-144 1187,-180"/>
<text text-anchor="middle" x="1157" y="-158.3" font-family="Times,serif" font-size="14.00">smp.h</text>
</a>
</g>
</g>
<!-- 26&#45;&gt;25 -->
<g id="edge18" class="edge">
<title>26&#45;&gt;25</title>
<g id="a_edge18"><a xlink:title="include">
<path fill="none" stroke="#1414ce" d="M1187.86,-585.56C1219.58,-578.68 1256.13,-565.45 1280,-540 1308.03,-510.12 1304,-491.97 1304,-451 1304,-451 1304,-451 1304,-305 1304,-264.03 1307.1,-246.72 1280,-216 1254.12,-186.66 1233.8,-195.57 1196.43,-181.6"/>
<polygon fill="#1414ce" stroke="#1414ce" points="1197.69,-178.34 1187.11,-177.77 1195.03,-184.81 1197.69,-178.34"/>
</a>
</g>
</g>
<!-- 26&#45;&gt;24 -->
<g id="edge19" class="edge">
<title>26&#45;&gt;24</title>
<g id="a_edge19"><a xlink:title="include">
<path fill="none" stroke="#1414ce" d="M1124,-575.95C1124,-549.29 1124,-496.11 1124,-451 1124,-451 1124,-451 1124,-377 1124,-335.97 1137.23,-289.97 1146.94,-261.74"/>
<polygon fill="#1414ce" stroke="#1414ce" points="1150.28,-262.78 1150.32,-252.19 1143.68,-260.45 1150.28,-262.78"/>
</a>
</g>
</g>
<!-- 26&#45;&gt;3 -->
<g id="edge20" class="edge">
<title>26&#45;&gt;3</title>
<g id="a_edge20"><a xlink:title="include">
<path fill="none" stroke="#1414ce" d="M1060.46,-579.56C1011.59,-569.11 942.43,-554.06 882,-540 766.59,-513.14 631.06,-479.04 563.62,-461.89"/>
<polygon fill="#1414ce" stroke="#1414ce" points="564.34,-458.46 553.78,-459.39 562.61,-465.24 564.34,-458.46"/>
</a>
</g>
</g>
<!-- 29 -->
<g id="node18" class="node">
<title>29</title>
<g id="a_node18"><a xlink:title="timer_list.h">
<polygon fill="#ffffff" stroke="black" points="1430,-252 1332,-252 1332,-216 1430,-216 1430,-252"/>
<text text-anchor="middle" x="1381" y="-230.3" font-family="Times,serif" font-size="14.00">timer_list.h</text>
</a>
</g>
</g>
<!-- 26&#45;&gt;29 -->
<g id="edge21" class="edge">
<title>26&#45;&gt;29</title>
<g id="a_edge21"><a xlink:title="include">
<path fill="none" stroke="#1414ce" d="M1187.85,-588.99C1229.02,-583.42 1281.49,-570.36 1318,-540 1351.78,-511.91 1361,-494.93 1361,-451 1361,-451 1361,-451 1361,-377 1361,-336.82 1368.95,-290.87 1374.82,-262.39"/>
<polygon fill="#1414ce" stroke="#1414ce" points="1378.3,-262.89 1376.95,-252.38 1371.45,-261.43 1378.3,-262.89"/>
</a>
</g>
</g>
<!-- 30 -->
<g id="node20" class="node">
<title>30</title>
<g id="a_node20"><a xlink:title="valueshashtable.h">
<polygon fill="#ffffff" stroke="black" points="1601,-180 1455,-180 1455,-144 1601,-144 1601,-180"/>
<text text-anchor="middle" x="1528" y="-158.3" font-family="Times,serif" font-size="14.00">valueshashtable.h</text>
</a>
</g>
</g>
<!-- 26&#45;&gt;30 -->
<g id="edge22" class="edge">
<title>26&#45;&gt;30</title>
<g id="a_edge22"><a xlink:title="include">
<path fill="none" stroke="#1414ce" d="M1187.86,-590.7C1276.05,-586.31 1429.09,-573.91 1472,-540 1505.48,-513.54 1508,-493.67 1508,-451 1508,-451 1508,-451 1508,-305 1508,-264.82 1515.95,-218.87 1521.82,-190.39"/>
<polygon fill="#1414ce" stroke="#1414ce" points="1525.3,-190.89 1523.95,-180.38 1518.45,-189.43 1525.3,-190.89"/>
</a>
</g>
</g>
<!-- 26&#45;&gt;6 -->
<g id="edge11" class="edge">
<title>26&#45;&gt;6</title>
<g id="a_edge11"><a xlink:title="include">
<path fill="none" stroke="#1414ce" d="M1187.61,-593.16C1284.52,-589.69 1458,-567.25 1458,-451 1458,-451 1458,-451 1458,-305 1458,-170.25 1387.81,-125.18 1264,-72 1195.89,-42.74 977.43,-27.08 881.23,-21.45"/>
<polygon fill="#1414ce" stroke="#1414ce" points="881.39,-17.96 871.21,-20.88 880.99,-24.94 881.39,-17.96"/>
</a>
</g>
</g>
<!-- 11 -->
<g id="node7" class="node">
<title>11</title>
<g id="a_node7"><a xlink:title="intn.h">
<polygon fill="#ffffff" stroke="black" points="469.5,-396 410.5,-396 410.5,-360 469.5,-360 469.5,-396"/>
<text text-anchor="middle" x="440" y="-374.3" font-family="Times,serif" font-size="14.00">intn.h</text>
</a>
</g>
</g>
<!-- 11&#45;&gt;12 -->
<g id="edge25" class="edge">
<title>11&#45;&gt;12</title>
<g id="a_edge25"><a xlink:title="include">
<path fill="none" stroke="#1414ce" d="M436.57,-359.58C431.26,-327.19 425.03,-257.25 460,-216 493.91,-176.01 556.45,-165.39 597.89,-163"/>
<polygon fill="#1414ce" stroke="#1414ce" points="598.11,-166.49 607.94,-162.56 597.8,-159.5 598.11,-166.49"/>
</a>
</g>
</g>
<!-- 11&#45;&gt;5 -->
<g id="edge23" class="edge">
<title>11&#45;&gt;5</title>
<g id="a_edge23"><a xlink:title="include">
<path fill="none" stroke="#1414ce" d="M456.64,-359.86C500.25,-316.07 623.3,-199.57 750,-144 805.67,-119.59 874.33,-105.4 920.43,-97.95"/>
<polygon fill="#1414ce" stroke="#1414ce" points="921.15,-101.38 930.49,-96.37 920.06,-94.47 921.15,-101.38"/>
</a>
</g>
</g>
<!-- 9 -->
<g id="node29" class="node">
<title>9</title>
<g id="a_node29"><a xlink:title="string.h">
<polygon fill="#ffffff" stroke="black" points="407.5,-324 334.5,-324 334.5,-288 407.5,-288 407.5,-324"/>
<text text-anchor="middle" x="371" y="-302.3" font-family="Times,serif" font-size="14.00">string.h</text>
</a>
</g>
</g>
<!-- 11&#45;&gt;9 -->
<g id="edge24" class="edge">
<title>11&#45;&gt;9</title>
<g id="a_edge24"><a xlink:title="include">
<path fill="none" stroke="#1414ce" d="M422.94,-359.7C414.5,-351.14 404.18,-340.66 394.96,-331.3"/>
<polygon fill="#1414ce" stroke="#1414ce" points="397.37,-328.77 387.86,-324.1 392.39,-333.68 397.37,-328.77"/>
</a>
</g>
</g>
<!-- 21&#45;&gt;5 -->
<g id="edge26" class="edge">
<title>21&#45;&gt;5</title>
<g id="a_edge26"><a xlink:title="include">
<path fill="none" stroke="#1414ce" d="M1049.05,-143.88C1035.96,-134.89 1019.74,-123.76 1005.56,-114.03"/>
<polygon fill="#1414ce" stroke="#1414ce" points="1007.27,-110.96 997.05,-108.19 1003.31,-116.73 1007.27,-110.96"/>
</a>
</g>
</g>
<!-- 23&#45;&gt;21 -->
<g id="edge28" class="edge">
<title>23&#45;&gt;21</title>
<g id="a_edge28"><a xlink:title="include">
<path fill="none" stroke="#1414ce" d="M740.03,-224.84C754.9,-222.02 771.68,-218.86 787,-216 876.61,-199.26 982.01,-179.88 1036.75,-169.83"/>
<polygon fill="#1414ce" stroke="#1414ce" points="1037.48,-173.25 1046.69,-168.01 1036.22,-166.37 1037.48,-173.25"/>
</a>
</g>
</g>
<!-- 23&#45;&gt;17 -->
<g id="edge29" class="edge">
<title>23&#45;&gt;17</title>
<g id="a_edge29"><a xlink:title="include">
<path fill="none" stroke="#1414ce" d="M653.72,-219.9C571.39,-194.97 391.78,-140.59 294.24,-111.05"/>
<polygon fill="#1414ce" stroke="#1414ce" points="295.07,-107.65 284.48,-108.1 293.04,-114.35 295.07,-107.65"/>
</a>
</g>
</g>
<!-- 23&#45;&gt;12 -->
<g id="edge30" class="edge">
<title>23&#45;&gt;12</title>
<g id="a_edge30"><a xlink:title="include">
<path fill="none" stroke="#1414ce" d="M682.66,-215.7C675.71,-207.3 667.23,-197.07 659.6,-187.86"/>
<polygon fill="#1414ce" stroke="#1414ce" points="662.25,-185.57 653.17,-180.1 656.86,-190.04 662.25,-185.57"/>
</a>
</g>
</g>
<!-- 23&#45;&gt;5 -->
<g id="edge27" class="edge">
<title>23&#45;&gt;5</title>
<g id="a_edge27"><a xlink:title="include">
<path fill="none" stroke="#1414ce" d="M714.59,-215.87C739.77,-191.47 784.06,-149.09 793,-144 832.77,-121.35 883.14,-107.56 920.3,-99.75"/>
<polygon fill="#1414ce" stroke="#1414ce" points="921.31,-103.12 930.42,-97.7 919.92,-96.25 921.31,-103.12"/>
</a>
</g>
</g>
<!-- 15 -->
<g id="node10" class="node">
<title>15</title>
<g id="a_node10"><a xlink:title="memory.h">
<polygon fill="#ffffff" stroke="black" points="408,-252 322,-252 322,-216 408,-216 408,-252"/>
<text text-anchor="middle" x="365" y="-230.3" font-family="Times,serif" font-size="14.00">memory.h</text>
</a>
</g>
</g>
<!-- 15&#45;&gt;16 -->
<g id="edge33" class="edge">
<title>15&#45;&gt;16</title>
<g id="a_edge33"><a xlink:title="include">
<path fill="none" stroke="#1414ce" d="M328.55,-215.88C308.36,-206.39 283.08,-194.51 261.59,-184.42"/>
<polygon fill="#1414ce" stroke="#1414ce" points="262.87,-181.15 252.33,-180.07 259.89,-187.49 262.87,-181.15"/>
</a>
</g>
</g>
<!-- 15&#45;&gt;17 -->
<g id="edge34" class="edge">
<title>15&#45;&gt;17</title>
<g id="a_edge34"><a xlink:title="include">
<path fill="none" stroke="#1414ce" d="M348.47,-215.87C324.3,-190.82 279.18,-144.05 251.55,-115.41"/>
<polygon fill="#1414ce" stroke="#1414ce" points="254.05,-112.96 244.58,-108.19 249.01,-117.82 254.05,-112.96"/>
</a>
</g>
</g>
<!-- 15&#45;&gt;12 -->
<g id="edge35" class="edge">
<title>15&#45;&gt;12</title>
<g id="a_edge35"><a xlink:title="include">
<path fill="none" stroke="#1414ce" d="M408.19,-219.87C412.85,-218.53 417.51,-217.22 422,-216 482.99,-199.47 554.25,-182.51 598,-172.37"/>
<polygon fill="#1414ce" stroke="#1414ce" points="599.02,-175.72 607.97,-170.06 597.44,-168.9 599.02,-175.72"/>
</a>
</g>
</g>
<!-- 15&#45;&gt;6 -->
<g id="edge31" class="edge">
<title>15&#45;&gt;6</title>
<g id="a_edge31"><a xlink:title="include">
<path fill="none" stroke="#1414ce" d="M371.18,-215.9C384.51,-181.76 419.51,-105.56 477,-72 529.09,-41.59 704.41,-26.99 788.82,-21.58"/>
<polygon fill="#1414ce" stroke="#1414ce" points="789.13,-25.07 798.89,-20.95 788.69,-18.08 789.13,-25.07"/>
</a>
</g>
</g>
<!-- 15&#45;&gt;8 -->
<g id="edge32" class="edge">
<title>15&#45;&gt;8</title>
<g id="a_edge32"><a xlink:title="include">
<path fill="none" stroke="#1414ce" d="M383.94,-215.87C411.76,-190.71 463.78,-143.65 495.42,-115.04"/>
<polygon fill="#1414ce" stroke="#1414ce" points="497.93,-117.49 502.99,-108.19 493.23,-112.3 497.93,-117.49"/>
</a>
</g>
</g>
<!-- 1 -->
<g id="node11" class="node">
<title>1</title>
<g id="a_node11"><a xlink:title="/__w/AtomVM/AtomVM/src/libAtomVM/posix_nifs.h">
<polygon fill="#bfbfbf" stroke="black" points="709.5,-684 332.5,-684 332.5,-648 709.5,-648 709.5,-684"/>
<text text-anchor="middle" x="521" y="-662.3" font-family="Times,serif" font-size="14.00">/__w/AtomVM/AtomVM/src/libAtomVM/posix_nifs.h</text>
</a>
</g>
</g>
<!-- 1&#45;&gt;2 -->
<g id="edge36" class="edge">
<title>1&#45;&gt;2</title>
<g id="a_edge36"><a xlink:title="include">
<path fill="none" stroke="#1414ce" d="M467.32,-647.87C384.77,-621.53 227,-571.19 139.1,-543.14"/>
<polygon fill="#1414ce" stroke="#1414ce" points="140.11,-539.78 129.52,-540.08 137.98,-546.45 140.11,-539.78"/>
</a>
</g>
</g>
<!-- 1&#45;&gt;26 -->
<g id="edge37" class="edge">
<title>1&#45;&gt;26</title>
<g id="a_edge37"><a xlink:title="include">
<path fill="none" stroke="#1414ce" d="M667.74,-647.97C788.83,-633.91 955.61,-614.55 1050.36,-603.55"/>
<polygon fill="#1414ce" stroke="#1414ce" points="1050.89,-607.01 1060.42,-602.38 1050.08,-600.06 1050.89,-607.01"/>
</a>
</g>
</g>
<!-- 1&#45;&gt;3 -->
<g id="edge38" class="edge">
<title>1&#45;&gt;3</title>
<g id="a_edge38"><a xlink:title="include">
<path fill="none" stroke="#1414ce" d="M521,-647.85C521,-610.83 521,-523.18 521,-478.39"/>
<polygon fill="#1414ce" stroke="#1414ce" points="524.5,-478.23 521,-468.23 517.5,-478.23 524.5,-478.23"/>
</a>
</g>
</g>
<!-- 20 -->
<g id="node12" class="node">
<title>20</title>
<g id="a_node12"><a xlink:title="refc_binary.h">
<polygon fill="#ffffff" stroke="black" points="830,-396 722,-396 722,-360 830,-360 830,-396"/>
<text text-anchor="middle" x="776" y="-374.3" font-family="Times,serif" font-size="14.00">refc_binary.h</text>
</a>
</g>
</g>
<!-- 20&#45;&gt;21 -->
<g id="edge41" class="edge">
<title>20&#45;&gt;21</title>
<g id="a_edge41"><a xlink:title="include">
<path fill="none" stroke="#1414ce" d="M830.35,-375.11C876.11,-370.96 941.11,-358.76 986,-324 1030.47,-289.56 1055.46,-226.04 1066.69,-189.93"/>
<polygon fill="#1414ce" stroke="#1414ce" points="1070.11,-190.68 1069.61,-180.1 1063.41,-188.68 1070.11,-190.68"/>
</a>
</g>
</g>
<!-- 22 -->
<g id="node13" class="node">
<title>22</title>
<g id="a_node13"><a xlink:title="resources.h">
<polygon fill="#ffffff" stroke="black" points="678,-324 578,-324 578,-288 678,-288 678,-324"/>
<text text-anchor="middle" x="628" y="-302.3" font-family="Times,serif" font-size="14.00">resources.h</text>
</a>
</g>
</g>
<!-- 20&#45;&gt;22 -->
<g id="edge42" class="edge">
<title>20&#45;&gt;22</title>
<g id="a_edge42"><a xlink:title="include">
<path fill="none" stroke="#1414ce" d="M739.8,-359.88C719.74,-350.39 694.63,-338.51 673.29,-328.42"/>
<polygon fill="#1414ce" stroke="#1414ce" points="674.62,-325.18 664.09,-324.07 671.63,-331.51 674.62,-325.18"/>
</a>
</g>
</g>
<!-- 20&#45;&gt;5 -->
<g id="edge39" class="edge">
<title>20&#45;&gt;5</title>
<g id="a_edge39"><a xlink:title="include">
<path fill="none" stroke="#1414ce" d="M801.36,-360C832,-338.27 883.23,-297.92 914,-252 942.35,-209.68 958.74,-151.84 966.48,-118.24"/>
<polygon fill="#1414ce" stroke="#1414ce" points="969.95,-118.75 968.69,-108.23 963.11,-117.24 969.95,-118.75"/>
</a>
</g>
</g>
<!-- 20&#45;&gt;8 -->
<g id="edge40" class="edge">
<title>20&#45;&gt;8</title>
<g id="a_edge40"><a xlink:title="include">
<path fill="none" stroke="#1414ce" d="M759.64,-359.88C742.07,-341.66 713.13,-312.2 687,-288 668.96,-271.3 661.89,-269.87 645,-252 603.26,-207.84 561.84,-149.96 539.32,-116.99"/>
<polygon fill="#1414ce" stroke="#1414ce" points="541.99,-114.7 533.48,-108.38 536.2,-118.62 541.99,-114.7"/>
</a>
</g>
</g>
<!-- 22&#45;&gt;16 -->
<g id="edge44" class="edge">
<title>22&#45;&gt;16</title>
<g id="a_edge44"><a xlink:title="include">
<path fill="none" stroke="#1414ce" d="M577.88,-305.2C513.4,-303.57 399.45,-294.24 313,-252 282,-236.85 253.83,-208.62 235.93,-188"/>
<polygon fill="#1414ce" stroke="#1414ce" points="238.5,-185.62 229.37,-180.24 233.16,-190.14 238.5,-185.62"/>
</a>
</g>
</g>
<!-- 22&#45;&gt;21 -->
<g id="edge45" class="edge">
<title>22&#45;&gt;21</title>
<g id="a_edge45"><a xlink:title="include">
<path fill="none" stroke="#1414ce" d="M678.11,-300.67C736.24,-294.53 834.29,-280.68 914,-252 960.41,-235.3 1009.35,-206.14 1040.69,-185.77"/>
<polygon fill="#1414ce" stroke="#1414ce" points="1043.01,-188.43 1049.44,-180.01 1039.17,-182.58 1043.01,-188.43"/>
</a>
</g>
</g>
<!-- 22&#45;&gt;23 -->
<g id="edge46" class="edge">
<title>22&#45;&gt;23</title>
<g id="a_edge46"><a xlink:title="include">
<path fill="none" stroke="#1414ce" d="M645.06,-287.7C653.5,-279.14 663.82,-268.66 673.04,-259.3"/>
<polygon fill="#1414ce" stroke="#1414ce" points="675.61,-261.68 680.14,-252.1 670.63,-256.77 675.61,-261.68"/>
</a>
</g>
</g>
<!-- 22&#45;&gt;15 -->
<g id="edge47" class="edge">
<title>22&#45;&gt;15</title>
<g id="a_edge47"><a xlink:title="include">
<path fill="none" stroke="#1414ce" d="M577.91,-291.67C532.23,-279.51 464.94,-261.6 418.28,-249.18"/>
<polygon fill="#1414ce" stroke="#1414ce" points="418.93,-245.73 408.36,-246.54 417.13,-252.5 418.93,-245.73"/>
</a>
</g>
</g>
<!-- 22&#45;&gt;24 -->
<g id="edge48" class="edge">
<title>22&#45;&gt;24</title>
<g id="a_edge48"><a xlink:title="include">
<path fill="none" stroke="#1414ce" d="M678.24,-298.35C778.35,-285.1 1001.85,-255.53 1104.1,-242"/>
<polygon fill="#1414ce" stroke="#1414ce" points="1104.74,-245.45 1114.2,-240.66 1103.82,-238.51 1104.74,-245.45"/>
</a>
</g>
</g>
<!-- 22&#45;&gt;8 -->
<g id="edge43" class="edge">
<title>22&#45;&gt;8</title>
<g id="a_edge43"><a xlink:title="include">
<path fill="none" stroke="#1414ce" d="M606.03,-287.84C595.08,-278.31 582.43,-265.63 574,-252 547.52,-209.16 533.19,-151.49 526.61,-118.07"/>
<polygon fill="#1414ce" stroke="#1414ce" points="530.02,-117.3 524.74,-108.12 523.14,-118.59 530.02,-117.3"/>
</a>
</g>
</g>
<!-- 25&#45;&gt;5 -->
<g id="edge49" class="edge">
<title>25&#45;&gt;5</title>
<g id="a_edge49"><a xlink:title="include">
<path fill="none" stroke="#1414ce" d="M1126.86,-149.6C1098.82,-138.98 1056.44,-122.95 1023.11,-110.34"/>
<polygon fill="#1414ce" stroke="#1414ce" points="1024.12,-106.98 1013.52,-106.71 1021.64,-113.52 1024.12,-106.98"/>
</a>
</g>
</g>
<!-- 24&#45;&gt;21 -->
<g id="edge51" class="edge">
<title>24&#45;&gt;21</title>
<g id="a_edge51"><a xlink:title="include">
<path fill="none" stroke="#1414ce" d="M1136.48,-215.7C1126.13,-206.97 1113.41,-196.24 1102.16,-186.75"/>
<polygon fill="#1414ce" stroke="#1414ce" points="1104.18,-183.88 1094.28,-180.1 1099.67,-189.23 1104.18,-183.88"/>
</a>
</g>
</g>
<!-- 24&#45;&gt;25 -->
<g id="edge52" class="edge">
<title>24&#45;&gt;25</title>
<g id="a_edge52"><a xlink:title="include">
<path fill="none" stroke="#1414ce" d="M1157,-215.7C1157,-207.98 1157,-198.71 1157,-190.11"/>
<polygon fill="#1414ce" stroke="#1414ce" points="1160.5,-190.1 1157,-180.1 1153.5,-190.1 1160.5,-190.1"/>
</a>
</g>
</g>
<!-- 7 -->
<g id="node27" class="node">
<title>7</title>
<g id="a_node27"><a xlink:title="stdio.h">
<polygon fill="#ffffff" stroke="black" points="768.5,-108 703.5,-108 703.5,-72 768.5,-72 768.5,-108"/>
<text text-anchor="middle" x="736" y="-86.3" font-family="Times,serif" font-size="14.00">stdio.h</text>
</a>
</g>
</g>
<!-- 24&#45;&gt;7 -->
<g id="edge50" class="edge">
<title>24&#45;&gt;7</title>
<g id="a_edge50"><a xlink:title="include">
<path fill="none" stroke="#1414ce" d="M1114.32,-218.6C1033.53,-191.35 859.15,-132.54 778.5,-105.34"/>
<polygon fill="#1414ce" stroke="#1414ce" points="779.28,-101.9 768.68,-102.02 777.04,-108.54 779.28,-101.9"/>
</a>
</g>
</g>
<!-- 3&#45;&gt;10 -->
<g id="edge59" class="edge">
<title>3&#45;&gt;10</title>
<g id="a_edge59"><a xlink:title="include">
<path fill="none" stroke="#1414ce" d="M553.69,-448.66C627.34,-447.11 802.64,-438.92 839,-396 866.7,-363.3 802.96,-321.92 787,-252 783.44,-236.4 781.24,-230.93 787,-216 791.1,-205.36 798.44,-195.53 806.17,-187.3"/>
<polygon fill="#1414ce" stroke="#1414ce" points="808.67,-189.75 813.29,-180.21 803.73,-184.78 808.67,-189.75"/>
</a>
</g>
</g>
<!-- 3&#45;&gt;11 -->
<g id="edge60" class="edge">
<title>3&#45;&gt;11</title>
<g id="a_edge60"><a xlink:title="include">
<path fill="none" stroke="#1414ce" d="M500.98,-431.7C490.87,-422.97 478.46,-412.24 467.48,-402.75"/>
<polygon fill="#1414ce" stroke="#1414ce" points="469.65,-399.99 459.79,-396.1 465.07,-405.29 469.65,-399.99"/>
</a>
</g>
</g>
<!-- 3&#45;&gt;15 -->
<g id="edge61" class="edge">
<title>3&#45;&gt;15</title>
<g id="a_edge61"><a xlink:title="include">
<path fill="none" stroke="#1414ce" d="M488.28,-442.57C457.46,-435.28 411.2,-421.01 378,-396 335.29,-363.83 308.02,-338.7 325,-288 328.35,-278 334.42,-268.38 340.83,-260.14"/>
<polygon fill="#1414ce" stroke="#1414ce" points="343.56,-262.33 347.27,-252.4 338.18,-257.85 343.56,-262.33"/>
</a>
</g>
</g>
<!-- 3&#45;&gt;20 -->
<g id="edge62" class="edge">
<title>3&#45;&gt;20</title>
<g id="a_edge62"><a xlink:title="include">
<path fill="none" stroke="#1414ce" d="M553.55,-440.06C593.33,-429.14 661.55,-410.42 711.98,-396.57"/>
<polygon fill="#1414ce" stroke="#1414ce" points="713.1,-399.9 721.82,-393.87 711.25,-393.15 713.1,-399.9"/>
</a>
</g>
</g>
<!-- 3&#45;&gt;22 -->
<g id="edge63" class="edge">
<title>3&#45;&gt;22</title>
<g id="a_edge63"><a xlink:title="include">
<path fill="none" stroke="#1414ce" d="M533.91,-431.87C552.54,-407.14 587.13,-361.24 608.78,-332.51"/>
<polygon fill="#1414ce" stroke="#1414ce" points="611.82,-334.28 615.05,-324.19 606.23,-330.07 611.82,-334.28"/>
</a>
</g>
</g>
<!-- 3&#45;&gt;17 -->
<g id="edge65" class="edge">
<title>3&#45;&gt;17</title>
<g id="a_edge65"><a xlink:title="include">
<path fill="none" stroke="#1414ce" d="M488.37,-446.74C417.28,-441.32 251.04,-425.75 204,-396 163.26,-370.23 142,-355.21 142,-307 142,-307 142,-307 142,-233 142,-191.53 147.71,-178.96 170,-144 176.93,-133.13 186.65,-123.06 196.16,-114.68"/>
<polygon fill="#1414ce" stroke="#1414ce" points="198.63,-117.18 204.03,-108.06 194.12,-111.82 198.63,-117.18"/>
</a>
</g>
</g>
<!-- 3&#45;&gt;12 -->
<g id="edge64" class="edge">
<title>3&#45;&gt;12</title>
<g id="a_edge64"><a xlink:title="include">
<path fill="none" stroke="#1414ce" d="M519.16,-431.67C516.66,-401.18 514.68,-336.58 536,-288 553.54,-248.04 587.67,-210.59 611.83,-187.29"/>
<polygon fill="#1414ce" stroke="#1414ce" points="614.43,-189.65 619.29,-180.24 609.62,-184.56 614.43,-189.65"/>
</a>
</g>
</g>
<!-- 3&#45;&gt;5 -->
<g id="edge54" class="edge">
<title>3&#45;&gt;5</title>
<g id="a_edge54"><a xlink:title="include">
<path fill="none" stroke="#1414ce" d="M553.56,-447.43C628.03,-443.29 808.15,-429.96 857,-396 945.79,-334.28 945.39,-285.53 969,-180 973.53,-159.76 974.13,-136.29 973.69,-118.54"/>
<polygon fill="#1414ce" stroke="#1414ce" points="977.17,-118.16 973.3,-108.3 970.18,-118.43 977.17,-118.16"/>
</a>
</g>
</g>
<!-- 3&#45;&gt;6 -->
<g id="edge55" class="edge">
<title>3&#45;&gt;6</title>
<g id="a_edge55"><a xlink:title="include">
<path fill="none" stroke="#1414ce" d="M488.11,-445.62C433.95,-439.3 329.7,-423.79 307,-396 256.4,-334.04 276.68,-290.43 306,-216 337.28,-136.6 357.69,-112.13 433,-72 493.79,-39.61 696.58,-25.77 788.72,-21.04"/>
<polygon fill="#1414ce" stroke="#1414ce" points="789.06,-24.53 798.87,-20.54 788.71,-17.54 789.06,-24.53"/>
</a>
</g>
</g>
<!-- 3&#45;&gt;7 -->
<g id="edge56" class="edge">
<title>3&#45;&gt;7</title>
<g id="a_edge56"><a xlink:title="include">
<path fill="none" stroke="#1414ce" d="M523.22,-431.88C527.82,-401.16 540.41,-335.47 569,-288 604.35,-229.31 635.81,-233.18 679,-180 695.23,-160.02 710.79,-135.21 721.54,-116.86"/>
<polygon fill="#1414ce" stroke="#1414ce" points="724.59,-118.58 726.56,-108.17 718.53,-115.08 724.59,-118.58"/>
</a>
</g>
</g>
<!-- 3&#45;&gt;8 -->
<g id="edge57" class="edge">
<title>3&#45;&gt;8</title>
<g id="a_edge57"><a xlink:title="include">
<path fill="none" stroke="#1414ce" d="M488.31,-449.15C446.57,-447.49 374.86,-438.16 334,-396 288.99,-349.56 314.35,-316.66 313,-252 312.67,-236 305.45,-230.11 313,-216 340.22,-165.14 371.39,-173.44 421,-144 439.42,-133.07 460.3,-121.92 478.28,-112.68"/>
<polygon fill="#1414ce" stroke="#1414ce" points="480.06,-115.69 487.38,-108.03 476.88,-109.46 480.06,-115.69"/>
</a>
</g>
</g>
<!-- 3&#45;&gt;9 -->
<g id="edge58" class="edge">
<title>3&#45;&gt;9</title>
<g id="a_edge58"><a xlink:title="include">
<path fill="none" stroke="#1414ce" d="M488.43,-442.31C461.52,-435.18 424.11,-421.31 401,-396 385.41,-378.93 377.89,-353.48 374.28,-334.16"/>
<polygon fill="#1414ce" stroke="#1414ce" points="377.71,-333.46 372.65,-324.15 370.8,-334.58 377.71,-333.46"/>
</a>
</g>
</g>
<!-- 4 -->
<g id="node30" class="node">
<title>4</title>
<g id="a_node30"><a xlink:title="sys/types.h">
<polygon fill="#ffffff" stroke="black" points="703.5,-396 606.5,-396 606.5,-360 703.5,-360 703.5,-396"/>
<text text-anchor="middle" x="655" y="-374.3" font-family="Times,serif" font-size="14.00">sys/types.h</text>
</a>
</g>
</g>
<!-- 3&#45;&gt;4 -->
<g id="edge53" class="edge">
<title>3&#45;&gt;4</title>
<g id="a_edge53"><a xlink:title="include">
<path fill="none" stroke="#1414ce" d="M553.78,-431.88C571.63,-422.55 593.9,-410.92 613,-400.94"/>
<polygon fill="#1414ce" stroke="#1414ce" points="614.85,-403.92 622.09,-396.19 611.61,-397.72 614.85,-403.92"/>
</a>
</g>
</g>
<!-- 18 -->
<g id="node21" class="node">
<title>18</title>
<g id="a_node21"><a xlink:title="assert.h">
<polygon fill="#ffffff" stroke="black" points="311,-36 237,-36 237,0 311,0 311,-36"/>
<text text-anchor="middle" x="274" y="-14.3" font-family="Times,serif" font-size="14.00">assert.h</text>
</a>
</g>
</g>
<!-- 17&#45;&gt;18 -->
<g id="edge66" class="edge">
<title>17&#45;&gt;18</title>
<g id="a_edge66"><a xlink:title="include">
<path fill="none" stroke="#1414ce" d="M239.37,-71.7C244.72,-63.56 251.2,-53.69 257.11,-44.7"/>
<polygon fill="#1414ce" stroke="#1414ce" points="260.19,-46.38 262.76,-36.1 254.34,-42.54 260.19,-46.38"/>
</a>
</g>
</g>
<!-- 13 -->
<g id="node22" class="node">
<title>13</title>
<g id="a_node22"><a xlink:title="inttypes.h">
<polygon fill="#ffffff" stroke="black" points="520.5,-36 431.5,-36 431.5,0 520.5,0 520.5,-36"/>
<text text-anchor="middle" x="476" y="-14.3" font-family="Times,serif" font-size="14.00">inttypes.h</text>
</a>
</g>
</g>
<!-- 17&#45;&gt;13 -->
<g id="edge68" class="edge">
<title>17&#45;&gt;13</title>
<g id="a_edge68"><a xlink:title="include">
<path fill="none" stroke="#1414ce" d="M288.35,-71.97C329.06,-60.47 382.33,-45.44 421.71,-34.33"/>
<polygon fill="#1414ce" stroke="#1414ce" points="422.73,-37.67 431.4,-31.59 420.83,-30.94 422.73,-37.67"/>
</a>
</g>
</g>
<!-- 19 -->
<g id="node23" class="node">
<title>19</title>
<g id="a_node23"><a xlink:title="limits.h">
<polygon fill="#ffffff" stroke="black" points="218.5,-36 147.5,-36 147.5,0 218.5,0 218.5,-36"/>
<text text-anchor="middle" x="183" y="-14.3" font-family="Times,serif" font-size="14.00">limits.h</text>
</a>
</g>
</g>
<!-- 17&#45;&gt;19 -->
<g id="edge67" class="edge">
<title>17&#45;&gt;19</title>
<g id="a_edge67"><a xlink:title="include">
<path fill="none" stroke="#1414ce" d="M216.88,-71.7C211.64,-63.56 205.3,-53.69 199.52,-44.7"/>
<polygon fill="#1414ce" stroke="#1414ce" points="202.35,-42.62 194,-36.1 196.46,-46.41 202.35,-42.62"/>
</a>
</g>
</g>
<!-- 17&#45;&gt;6 -->
<g id="edge69" class="edge">
<title>17&#45;&gt;6</title>
<g id="a_edge69"><a xlink:title="include">
<path fill="none" stroke="#1414ce" d="M290.92,-74.48C295.67,-73.57 300.4,-72.73 305,-72 482.61,-43.61 696.28,-27.77 788.69,-21.79"/>
<polygon fill="#1414ce" stroke="#1414ce" points="789.07,-25.27 798.82,-21.14 788.62,-18.29 789.07,-25.27"/>
</a>
</g>
</g>
<!-- 29&#45;&gt;21 -->
<g id="edge72" class="edge">
<title>29&#45;&gt;21</title>
<g id="a_edge72"><a xlink:title="include">
<path fill="none" stroke="#1414ce" d="M1331.8,-224.12C1267.21,-212.28 1157.4,-191.49 1118,-180 1115.59,-179.3 1113.13,-178.52 1110.66,-177.7"/>
<polygon fill="#1414ce" stroke="#1414ce" points="1111.81,-174.39 1101.21,-174.34 1109.47,-180.98 1111.81,-174.39"/>
</a>
</g>
</g>
<!-- 29&#45;&gt;5 -->
<g id="edge70" class="edge">
<title>29&#45;&gt;5</title>
<g id="a_edge70"><a xlink:title="include">
<path fill="none" stroke="#1414ce" d="M1350.78,-215.94C1314.85,-196.26 1252.61,-164.05 1196,-144 1138.39,-123.6 1069.67,-108.66 1023.67,-99.93"/>
<polygon fill="#1414ce" stroke="#1414ce" points="1024.12,-96.46 1013.64,-98.06 1022.83,-103.34 1024.12,-96.46"/>
</a>
</g>
</g>
<!-- 29&#45;&gt;6 -->
<g id="edge71" class="edge">
<title>29&#45;&gt;6</title>
<g id="a_edge71"><a xlink:title="include">
<path fill="none" stroke="#1414ce" d="M1370.09,-215.77C1347.49,-181.74 1291.99,-106.25 1224,-72 1164.79,-42.17 970.92,-27.07 881.25,-21.54"/>
<polygon fill="#1414ce" stroke="#1414ce" points="881.3,-18.04 871.1,-20.93 880.87,-25.02 881.3,-18.04"/>
</a>
</g>
</g>
<!-- 12&#45;&gt;13 -->
<g id="edge73" class="edge">
<title>12&#45;&gt;13</title>
<g id="a_edge73"><a xlink:title="include">
<path fill="none" stroke="#1414ce" d="M627.62,-143.73C614.41,-124.59 591.2,-93.57 566,-72 552.3,-60.27 535.65,-49.65 520.43,-41.06"/>
<polygon fill="#1414ce" stroke="#1414ce" points="522.1,-37.98 511.65,-36.23 518.73,-44.12 522.1,-37.98"/>
</a>
</g>
</g>
<!-- 12&#45;&gt;5 -->
<g id="edge74" class="edge">
<title>12&#45;&gt;5</title>
<g id="a_edge74"><a xlink:title="include">
<path fill="none" stroke="#1414ce" d="M670.23,-148.38C674.81,-146.77 679.49,-145.25 684,-144 765.32,-121.36 862.3,-105.79 920.42,-97.65"/>
<polygon fill="#1414ce" stroke="#1414ce" points="921.03,-101.1 930.46,-96.26 920.07,-94.16 921.03,-101.1"/>
</a>
</g>
</g>
<!-- 14 -->
<g id="node25" class="node">
<title>14</title>
<g id="a_node25"><a xlink:title="stddef.h">
<polygon fill="#ffffff" stroke="black" points="1215,-108 1141,-108 1141,-72 1215,-72 1215,-108"/>
<text text-anchor="middle" x="1178" y="-86.3" font-family="Times,serif" font-size="14.00">stddef.h</text>
</a>
</g>
</g>
<!-- 12&#45;&gt;14 -->
<g id="edge75" class="edge">
<title>12&#45;&gt;14</title>
<g id="a_edge75"><a xlink:title="include">
<path fill="none" stroke="#1414ce" d="M670.31,-156.93C760.75,-145.19 1022.77,-111.16 1130.69,-97.14"/>
<polygon fill="#1414ce" stroke="#1414ce" points="1131.18,-100.61 1140.64,-95.85 1130.27,-93.67 1131.18,-100.61"/>
</a>
</g>
</g>
<!-- 12&#45;&gt;7 -->
<g id="edge76" class="edge">
<title>12&#45;&gt;7</title>
<g id="a_edge76"><a xlink:title="include">
<path fill="none" stroke="#1414ce" d="M662.98,-143.7C675.31,-134.8 690.52,-123.82 703.85,-114.2"/>
<polygon fill="#1414ce" stroke="#1414ce" points="706.24,-116.79 712.3,-108.1 702.14,-111.12 706.24,-116.79"/>
</a>
</g>
</g>
<!-- 12&#45;&gt;8 -->
<g id="edge77" class="edge">
<title>12&#45;&gt;8</title>
<g id="a_edge77"><a xlink:title="include">
<path fill="none" stroke="#1414ce" d="M610.38,-143.88C595.08,-134.72 576.06,-123.34 559.58,-113.48"/>
<polygon fill="#1414ce" stroke="#1414ce" points="561.11,-110.32 550.73,-108.19 557.52,-116.33 561.11,-110.32"/>
</a>
</g>
</g>
<!-- 30&#45;&gt;14 -->
<g id="edge78" class="edge">
<title>30&#45;&gt;14</title>
<g id="a_edge78"><a xlink:title="include">
<path fill="none" stroke="#1414ce" d="M1454.63,-146.33C1385.61,-132.52 1284.31,-112.26 1225.36,-100.47"/>
<polygon fill="#1414ce" stroke="#1414ce" points="1225.71,-96.97 1215.22,-98.44 1224.34,-103.84 1225.71,-96.97"/>
</a>
</g>
</g>
<!-- 30&#45;&gt;6 -->
<g id="edge79" class="edge">
<title>30&#45;&gt;6</title>
<g id="a_edge79"><a xlink:title="include">
<path fill="none" stroke="#1414ce" d="M1516.9,-143.68C1502.32,-122.61 1474.59,-87.9 1441,-72 1341.98,-25.14 1005.49,-19.42 881.43,-18.94"/>
<polygon fill="#1414ce" stroke="#1414ce" points="881.14,-15.44 871.13,-18.91 881.12,-22.44 881.14,-15.44"/>
</a>
</g>
</g>
</g>
</svg>
