<?xml version="1.0" encoding="UTF-8" standalone="no"?>
<!DOCTYPE svg PUBLIC "-//W3C//DTD SVG 1.1//EN"
 "http://www.w3.org/Graphics/SVG/1.1/DTD/svg11.dtd">
<!-- Generated by graphviz version 2.43.0 (0)
 -->
<!-- Title: %3 Pages: 1 -->
<svg width="158pt" height="116pt"
 viewBox="0.00 0.00 158.00 116.00" xmlns="http://www.w3.org/2000/svg" xmlns:xlink="http://www.w3.org/1999/xlink">
<g id="graph0" class="graph" transform="scale(1 1) rotate(0) translate(4 112)">
<title>%3</title>
<polygon fill="transparent" stroke="transparent" points="-4,4 -4,-112 154,-112 154,4 -4,4"/>
<!-- 2 -->
<g id="node1" class="node">
<title>2</title>
<g id="a_node1"><a xlink:title="ListHead">
<polygon fill="#ffffff" stroke="black" points="115.5,-36 34.5,-36 34.5,0 115.5,0 115.5,-36"/>
<text text-anchor="middle" x="75" y="-14.3" font-family="Times,serif" font-size="14.00">ListHead</text>
</a>
</g>
</g>
<!-- 2&#45;&gt;2 -->
<g id="edge1" class="edge">
<title>2&#45;&gt;2</title>
<g id="a_edge1"><a xlink:title="usage">
<path fill="none" stroke="#1414ce" d="M115.73,-31.31C125.9,-30.38 133.5,-25.95 133.5,-18 133.5,-12.91 130.38,-9.26 125.47,-7.05"/>
<polygon fill="#1414ce" stroke="#1414ce" points="126.28,-3.64 115.73,-4.69 124.63,-10.45 126.28,-3.64"/>
</a>
</g>
</g>
<!-- 1 -->
<g id="node2" class="node">
<title>1</title>
<g id="a_node2"><a xlink:title="DistributionPacket">
<polygon fill="#bfbfbf" stroke="black" points="150,-108 0,-108 0,-72 150,-72 150,-108"/>
<text text-anchor="middle" x="75" y="-86.3" font-family="Times,serif" font-size="14.00">DistributionPacket</text>
</a>
</g>
</g>
<!-- 1&#45;&gt;2 -->
<g id="edge2" class="edge">
<title>1&#45;&gt;2</title>
<g id="a_edge2"><a xlink:title="usage">
<path fill="none" stroke="#1414ce" d="M75,-71.7C75,-63.98 75,-54.71 75,-46.11"/>
<polygon fill="#1414ce" stroke="#1414ce" points="78.5,-46.1 75,-36.1 71.5,-46.1 78.5,-46.1"/>
</a>
</g>
</g>
</g>
</svg>
