<?xml version="1.0" encoding="UTF-8" standalone="no"?>
<!DOCTYPE svg PUBLIC "-//W3C//DTD SVG 1.1//EN"
 "http://www.w3.org/Graphics/SVG/1.1/DTD/svg11.dtd">
<!-- Generated by graphviz version 2.43.0 (0)
 -->
<!-- Title: %3 Pages: 1 -->
<svg width="1461pt" height="836pt"
 viewBox="0.00 0.00 1460.50 836.00" xmlns="http://www.w3.org/2000/svg" xmlns:xlink="http://www.w3.org/1999/xlink">
<g id="graph0" class="graph" transform="scale(1 1) rotate(0) translate(4 832)">
<title>%3</title>
<polygon fill="transparent" stroke="transparent" points="-4,4 -4,-832 1456.5,-832 1456.5,4 -4,4"/>
<!-- 7 -->
<g id="node1" class="node">
<title>7</title>
<g id="a_node1"><a xlink:title="stdbool.h">
<polygon fill="#ffffff" stroke="black" points="970,-108 887,-108 887,-72 970,-72 970,-108"/>
<text text-anchor="middle" x="928.5" y="-86.3" font-family="Times,serif" font-size="14.00">stdbool.h</text>
</a>
</g>
</g>
<!-- 24 -->
<g id="node2" class="node">
<title>24</title>
<g id="a_node2"><a xlink:title="refc_binary.h">
<polygon fill="#ffffff" stroke="black" points="756.5,-396 648.5,-396 648.5,-360 756.5,-360 756.5,-396"/>
<text text-anchor="middle" x="702.5" y="-374.3" font-family="Times,serif" font-size="14.00">refc_binary.h</text>
</a>
</g>
</g>
<!-- 24&#45;&gt;7 -->
<g id="edge1" class="edge">
<title>24&#45;&gt;7</title>
<g id="a_edge1"><a xlink:title="include">
<path fill="none" stroke="#1414ce" d="M715.21,-359.92C754.57,-307.01 872.13,-149.1 876.5,-144 884.89,-134.21 894.66,-123.98 903.45,-115.15"/>
<polygon fill="#1414ce" stroke="#1414ce" points="905.92,-117.63 910.55,-108.1 900.99,-112.66 905.92,-117.63"/>
</a>
</g>
</g>
<!-- 17 -->
<g id="node8" class="node">
<title>17</title>
<g id="a_node8"><a xlink:title="list.h">
<polygon fill="#ffffff" stroke="black" points="1020.5,-180 966.5,-180 966.5,-144 1020.5,-144 1020.5,-180"/>
<text text-anchor="middle" x="993.5" y="-158.3" font-family="Times,serif" font-size="14.00">list.h</text>
</a>
</g>
</g>
<!-- 24&#45;&gt;17 -->
<g id="edge3" class="edge">
<title>24&#45;&gt;17</title>
<g id="a_edge3"><a xlink:title="include">
<path fill="none" stroke="#1414ce" d="M725.82,-359.85C777.76,-321.66 902.98,-229.57 961.87,-186.26"/>
<polygon fill="#1414ce" stroke="#1414ce" points="964.08,-188.98 970.07,-180.23 959.94,-183.34 964.08,-188.98"/>
</a>
</g>
</g>
<!-- 5 -->
<g id="node10" class="node">
<title>5</title>
<g id="a_node10"><a xlink:title="stdlib.h">
<polygon fill="#ffffff" stroke="black" points="537,-108 466,-108 466,-72 537,-72 537,-108"/>
<text text-anchor="middle" x="501.5" y="-86.3" font-family="Times,serif" font-size="14.00">stdlib.h</text>
</a>
</g>
</g>
<!-- 24&#45;&gt;5 -->
<g id="edge2" class="edge">
<title>24&#45;&gt;5</title>
<g id="a_edge2"><a xlink:title="include">
<path fill="none" stroke="#1414ce" d="M665.49,-359.92C609.63,-331.73 506.3,-269.53 468.5,-180 459.66,-159.06 469.93,-134.84 481.28,-116.96"/>
<polygon fill="#1414ce" stroke="#1414ce" points="484.48,-118.47 487.22,-108.24 478.7,-114.53 484.48,-118.47"/>
</a>
</g>
</g>
<!-- 25 -->
<g id="node15" class="node">
<title>25</title>
<g id="a_node15"><a xlink:title="resources.h">
<polygon fill="#ffffff" stroke="black" points="725.5,-324 625.5,-324 625.5,-288 725.5,-288 725.5,-324"/>
<text text-anchor="middle" x="675.5" y="-302.3" font-family="Times,serif" font-size="14.00">resources.h</text>
</a>
</g>
</g>
<!-- 24&#45;&gt;25 -->
<g id="edge4" class="edge">
<title>24&#45;&gt;25</title>
<g id="a_edge4"><a xlink:title="include">
<path fill="none" stroke="#1414ce" d="M695.83,-359.7C692.79,-351.81 689.12,-342.3 685.74,-333.55"/>
<polygon fill="#1414ce" stroke="#1414ce" points="688.96,-332.17 682.1,-324.1 682.43,-334.69 688.96,-332.17"/>
</a>
</g>
</g>
<!-- 29 -->
<g id="node3" class="node">
<title>29</title>
<g id="a_node3"><a xlink:title="nifs.h">
<polygon fill="#ffffff" stroke="black" points="850.5,-756 794.5,-756 794.5,-720 850.5,-720 850.5,-756"/>
<text text-anchor="middle" x="822.5" y="-734.3" font-family="Times,serif" font-size="14.00">nifs.h</text>
</a>
</g>
</g>
<!-- 4 -->
<g id="node4" class="node">
<title>4</title>
<g id="a_node4"><a xlink:title="atom.h">
<polygon fill="#ffffff" stroke="black" points="630.5,-396 564.5,-396 564.5,-360 630.5,-360 630.5,-396"/>
<text text-anchor="middle" x="597.5" y="-374.3" font-family="Times,serif" font-size="14.00">atom.h</text>
</a>
</g>
</g>
<!-- 29&#45;&gt;4 -->
<g id="edge5" class="edge">
<title>29&#45;&gt;4</title>
<g id="a_edge5"><a xlink:title="include">
<path fill="none" stroke="#1414ce" d="M800.49,-719.88C771.87,-695.5 725.5,-647.84 725.5,-595 725.5,-595 725.5,-595 725.5,-521 725.5,-468 675.69,-425.86 638.21,-401.66"/>
<polygon fill="#1414ce" stroke="#1414ce" points="639.8,-398.53 629.47,-396.19 636.09,-404.46 639.8,-398.53"/>
</a>
</g>
</g>
<!-- 30 -->
<g id="node11" class="node">
<title>30</title>
<g id="a_node11"><a xlink:title="context.h">
<polygon fill="#ffffff" stroke="black" points="947,-684 864,-684 864,-648 947,-648 947,-684"/>
<text text-anchor="middle" x="905.5" y="-662.3" font-family="Times,serif" font-size="14.00">context.h</text>
</a>
</g>
</g>
<!-- 29&#45;&gt;30 -->
<g id="edge6" class="edge">
<title>29&#45;&gt;30</title>
<g id="a_edge6"><a xlink:title="include">
<path fill="none" stroke="#1414ce" d="M843.02,-719.7C853.37,-710.97 866.09,-700.24 877.34,-690.75"/>
<polygon fill="#1414ce" stroke="#1414ce" points="879.83,-693.23 885.22,-684.1 875.32,-687.88 879.83,-693.23"/>
</a>
</g>
</g>
<!-- 31 -->
<g id="node19" class="node">
<title>31</title>
<g id="a_node19"><a xlink:title="exportedfunction.h">
<polygon fill="#ffffff" stroke="black" points="669.5,-612 517.5,-612 517.5,-576 669.5,-576 669.5,-612"/>
<text text-anchor="middle" x="593.5" y="-590.3" font-family="Times,serif" font-size="14.00">exportedfunction.h</text>
</a>
</g>
</g>
<!-- 29&#45;&gt;31 -->
<g id="edge7" class="edge">
<title>29&#45;&gt;31</title>
<g id="a_edge7"><a xlink:title="include">
<path fill="none" stroke="#1414ce" d="M794.33,-725.42C771.39,-715.56 738.51,-700.41 711.5,-684 678.93,-664.22 644.45,-637.44 621.22,-618.44"/>
<polygon fill="#1414ce" stroke="#1414ce" points="623.44,-615.73 613.5,-612.07 618.98,-621.13 623.44,-615.73"/>
</a>
</g>
</g>
<!-- 3 -->
<g id="node9" class="node">
<title>3</title>
<g id="a_node9"><a xlink:title="stdint.h">
<polygon fill="#ffffff" stroke="black" points="750.5,-36 678.5,-36 678.5,0 750.5,0 750.5,-36"/>
<text text-anchor="middle" x="714.5" y="-14.3" font-family="Times,serif" font-size="14.00">stdint.h</text>
</a>
</g>
</g>
<!-- 4&#45;&gt;3 -->
<g id="edge8" class="edge">
<title>4&#45;&gt;3</title>
<g id="a_edge8"><a xlink:title="include">
<path fill="none" stroke="#1414ce" d="M599,-359.94C601.09,-341.52 605.91,-311.65 616.5,-288 640.8,-233.72 673.74,-235.35 695.5,-180 712.98,-135.52 715.63,-79.21 715.43,-46.34"/>
<polygon fill="#1414ce" stroke="#1414ce" points="718.93,-46.08 715.28,-36.14 711.93,-46.19 718.93,-46.08"/>
</a>
</g>
</g>
<!-- 4&#45;&gt;5 -->
<g id="edge9" class="edge">
<title>4&#45;&gt;5</title>
<g id="a_edge9"><a xlink:title="include">
<path fill="none" stroke="#1414ce" d="M591.78,-359.97C575.71,-312.09 530.05,-176.06 510.53,-117.9"/>
<polygon fill="#1414ce" stroke="#1414ce" points="513.81,-116.67 507.31,-108.31 507.17,-118.9 513.81,-116.67"/>
</a>
</g>
</g>
<!-- 13 -->
<g id="node5" class="node">
<title>13</title>
<g id="a_node5"><a xlink:title="assert.h">
<polygon fill="#ffffff" stroke="black" points="181.5,-36 107.5,-36 107.5,0 181.5,0 181.5,-36"/>
<text text-anchor="middle" x="144.5" y="-14.3" font-family="Times,serif" font-size="14.00">assert.h</text>
</a>
</g>
</g>
<!-- 8 -->
<g id="node6" class="node">
<title>8</title>
<g id="a_node6"><a xlink:title="utils.h">
<polygon fill="#ffffff" stroke="black" points="686.5,-180 624.5,-180 624.5,-144 686.5,-144 686.5,-180"/>
<text text-anchor="middle" x="655.5" y="-158.3" font-family="Times,serif" font-size="14.00">utils.h</text>
</a>
</g>
</g>
<!-- 8&#45;&gt;5 -->
<g id="edge12" class="edge">
<title>8&#45;&gt;5</title>
<g id="a_edge12"><a xlink:title="include">
<path fill="none" stroke="#1414ce" d="M624.34,-146.83C601.97,-136.67 571.49,-122.81 546.49,-111.45"/>
<polygon fill="#1414ce" stroke="#1414ce" points="547.75,-108.18 537.2,-107.23 544.86,-114.55 547.75,-108.18"/>
</a>
</g>
</g>
<!-- 9 -->
<g id="node17" class="node">
<title>9</title>
<g id="a_node17"><a xlink:title="stddef.h">
<polygon fill="#ffffff" stroke="black" points="1118.5,-108 1044.5,-108 1044.5,-72 1118.5,-72 1118.5,-108"/>
<text text-anchor="middle" x="1081.5" y="-86.3" font-family="Times,serif" font-size="14.00">stddef.h</text>
</a>
</g>
</g>
<!-- 8&#45;&gt;9 -->
<g id="edge10" class="edge">
<title>8&#45;&gt;9</title>
<g id="a_edge10"><a xlink:title="include">
<path fill="none" stroke="#1414ce" d="M686.78,-155.91C744.6,-146.51 872.09,-125.74 979.5,-108 997.25,-105.07 1016.73,-101.83 1033.87,-98.97"/>
<polygon fill="#1414ce" stroke="#1414ce" points="1034.91,-102.34 1044.2,-97.24 1033.76,-95.44 1034.91,-102.34"/>
</a>
</g>
</g>
<!-- 10 -->
<g id="node29" class="node">
<title>10</title>
<g id="a_node29"><a xlink:title="stdio.h">
<polygon fill="#ffffff" stroke="black" points="686,-108 621,-108 621,-72 686,-72 686,-108"/>
<text text-anchor="middle" x="653.5" y="-86.3" font-family="Times,serif" font-size="14.00">stdio.h</text>
</a>
</g>
</g>
<!-- 8&#45;&gt;10 -->
<g id="edge11" class="edge">
<title>8&#45;&gt;10</title>
<g id="a_edge11"><a xlink:title="include">
<path fill="none" stroke="#1414ce" d="M655.01,-143.7C654.79,-135.98 654.52,-126.71 654.27,-118.11"/>
<polygon fill="#1414ce" stroke="#1414ce" points="657.77,-118 653.99,-108.1 650.78,-118.2 657.77,-118"/>
</a>
</g>
</g>
<!-- 18 -->
<g id="node7" class="node">
<title>18</title>
<g id="a_node7"><a xlink:title="synclist.h">
<polygon fill="#ffffff" stroke="black" points="1156,-252 1071,-252 1071,-216 1156,-216 1156,-252"/>
<text text-anchor="middle" x="1113.5" y="-230.3" font-family="Times,serif" font-size="14.00">synclist.h</text>
</a>
</g>
</g>
<!-- 18&#45;&gt;17 -->
<g id="edge14" class="edge">
<title>18&#45;&gt;17</title>
<g id="a_edge14"><a xlink:title="include">
<path fill="none" stroke="#1414ce" d="M1084.14,-215.88C1067.6,-206.23 1046.81,-194.1 1029.31,-183.89"/>
<polygon fill="#1414ce" stroke="#1414ce" points="1030.9,-180.77 1020.5,-178.75 1027.37,-186.81 1030.9,-180.77"/>
</a>
</g>
</g>
<!-- 19 -->
<g id="node26" class="node">
<title>19</title>
<g id="a_node26"><a xlink:title="smp.h">
<polygon fill="#ffffff" stroke="black" points="1174.5,-180 1114.5,-180 1114.5,-144 1174.5,-144 1174.5,-180"/>
<text text-anchor="middle" x="1144.5" y="-158.3" font-family="Times,serif" font-size="14.00">smp.h</text>
</a>
</g>
</g>
<!-- 18&#45;&gt;19 -->
<g id="edge15" class="edge">
<title>18&#45;&gt;19</title>
<g id="a_edge15"><a xlink:title="include">
<path fill="none" stroke="#1414ce" d="M1121.16,-215.7C1124.69,-207.73 1128.96,-198.1 1132.87,-189.26"/>
<polygon fill="#1414ce" stroke="#1414ce" points="1136.08,-190.67 1136.93,-180.1 1129.68,-187.83 1136.08,-190.67"/>
</a>
</g>
</g>
<!-- 18&#45;&gt;10 -->
<g id="edge13" class="edge">
<title>18&#45;&gt;10</title>
<g id="a_edge13"><a xlink:title="include">
<path fill="none" stroke="#1414ce" d="M1096.86,-215.91C1086.84,-205.58 1073.86,-192.1 1062.5,-180 1047.64,-164.18 1048.71,-154.11 1029.5,-144 972.31,-113.9 782.16,-98.82 696.27,-93.41"/>
<polygon fill="#1414ce" stroke="#1414ce" points="696.28,-89.9 686.08,-92.78 695.84,-96.89 696.28,-89.9"/>
</a>
</g>
</g>
<!-- 17&#45;&gt;7 -->
<g id="edge16" class="edge">
<title>17&#45;&gt;7</title>
<g id="a_edge16"><a xlink:title="include">
<path fill="none" stroke="#1414ce" d="M977.43,-143.7C969.56,-135.22 959.94,-124.86 951.33,-115.58"/>
<polygon fill="#1414ce" stroke="#1414ce" points="953.75,-113.05 944.38,-108.1 948.62,-117.81 953.75,-113.05"/>
</a>
</g>
</g>
<!-- 30&#45;&gt;17 -->
<g id="edge18" class="edge">
<title>30&#45;&gt;17</title>
<g id="a_edge18"><a xlink:title="include">
<path fill="none" stroke="#1414ce" d="M911.6,-647.86C923.4,-613.98 949.36,-535.81 962.5,-468 982.16,-366.57 989.83,-243.58 992.39,-190.06"/>
<polygon fill="#1414ce" stroke="#1414ce" points="995.89,-190.17 992.85,-180.02 988.89,-189.85 995.89,-190.17"/>
</a>
</g>
</g>
<!-- 20 -->
<g id="node16" class="node">
<title>20</title>
<g id="a_node16"><a xlink:title="term.h">
<polygon fill="#ffffff" stroke="black" points="554,-468 489,-468 489,-432 554,-432 554,-468"/>
<text text-anchor="middle" x="521.5" y="-446.3" font-family="Times,serif" font-size="14.00">term.h</text>
</a>
</g>
</g>
<!-- 30&#45;&gt;20 -->
<g id="edge21" class="edge">
<title>30&#45;&gt;20</title>
<g id="a_edge21"><a xlink:title="include">
<path fill="none" stroke="#1414ce" d="M870.6,-647.77C850.31,-637.61 824.31,-624.36 801.5,-612 713.65,-564.4 612.44,-505.06 559.03,-473.39"/>
<polygon fill="#1414ce" stroke="#1414ce" points="560.64,-470.27 550.25,-468.17 557.06,-476.29 560.64,-470.27"/>
</a>
</g>
</g>
<!-- 2 -->
<g id="node25" class="node">
<title>2</title>
<g id="a_node25"><a xlink:title="globalcontext.h">
<polygon fill="#ffffff" stroke="black" points="1110,-612 983,-612 983,-576 1110,-576 1110,-612"/>
<text text-anchor="middle" x="1046.5" y="-590.3" font-family="Times,serif" font-size="14.00">globalcontext.h</text>
</a>
</g>
</g>
<!-- 30&#45;&gt;2 -->
<g id="edge17" class="edge">
<title>30&#45;&gt;2</title>
<g id="a_edge17"><a xlink:title="include">
<path fill="none" stroke="#1414ce" d="M939.99,-647.88C958.94,-638.47 982.63,-626.71 1002.86,-616.67"/>
<polygon fill="#1414ce" stroke="#1414ce" points="1004.47,-619.77 1011.87,-612.19 1001.36,-613.5 1004.47,-619.77"/>
</a>
</g>
</g>
<!-- 30&#45;&gt;19 -->
<g id="edge20" class="edge">
<title>30&#45;&gt;19</title>
<g id="a_edge20"><a xlink:title="include">
<path fill="none" stroke="#1414ce" d="M947.31,-662.24C1035.79,-655.95 1239.07,-638.97 1302.5,-612 1361.01,-587.12 1414.5,-586.58 1414.5,-523 1414.5,-523 1414.5,-523 1414.5,-377 1414.5,-297.29 1396.84,-266.9 1335.5,-216 1323.8,-206.29 1237.24,-184.73 1184.74,-172.31"/>
<polygon fill="#1414ce" stroke="#1414ce" points="1185.27,-168.84 1174.73,-169.95 1183.66,-175.65 1185.27,-168.84"/>
</a>
</g>
</g>
<!-- 27 -->
<g id="node27" class="node">
<title>27</title>
<g id="a_node27"><a xlink:title="timer_list.h">
<polygon fill="#ffffff" stroke="black" points="1310.5,-252 1212.5,-252 1212.5,-216 1310.5,-216 1310.5,-252"/>
<text text-anchor="middle" x="1261.5" y="-230.3" font-family="Times,serif" font-size="14.00">timer_list.h</text>
</a>
</g>
</g>
<!-- 30&#45;&gt;27 -->
<g id="edge22" class="edge">
<title>30&#45;&gt;27</title>
<g id="a_edge22"><a xlink:title="include">
<path fill="none" stroke="#1414ce" d="M947.3,-661.42C1062.57,-650.42 1376.5,-612.25 1376.5,-523 1376.5,-523 1376.5,-523 1376.5,-377 1376.5,-325.97 1331.09,-283 1297.34,-258.11"/>
<polygon fill="#1414ce" stroke="#1414ce" points="1299.22,-255.15 1289.05,-252.18 1295.14,-260.84 1299.22,-255.15"/>
</a>
</g>
</g>
<!-- 26 -->
<g id="node28" class="node">
<title>26</title>
<g id="a_node28"><a xlink:title="mailbox.h">
<polygon fill="#ffffff" stroke="black" points="786.5,-252 700.5,-252 700.5,-216 786.5,-216 786.5,-252"/>
<text text-anchor="middle" x="743.5" y="-230.3" font-family="Times,serif" font-size="14.00">mailbox.h</text>
</a>
</g>
</g>
<!-- 30&#45;&gt;26 -->
<g id="edge19" class="edge">
<title>30&#45;&gt;26</title>
<g id="a_edge19"><a xlink:title="include">
<path fill="none" stroke="#1414ce" d="M899.05,-647.88C874.11,-581.67 783.85,-342.11 753.52,-261.6"/>
<polygon fill="#1414ce" stroke="#1414ce" points="756.77,-260.29 749.97,-252.17 750.22,-262.76 756.77,-260.29"/>
</a>
</g>
</g>
<!-- 23 -->
<g id="node12" class="node">
<title>23</title>
<g id="a_node12"><a xlink:title="memory.h">
<polygon fill="#ffffff" stroke="black" points="373.5,-252 287.5,-252 287.5,-216 373.5,-216 373.5,-252"/>
<text text-anchor="middle" x="330.5" y="-230.3" font-family="Times,serif" font-size="14.00">memory.h</text>
</a>
</g>
</g>
<!-- 23&#45;&gt;8 -->
<g id="edge27" class="edge">
<title>23&#45;&gt;8</title>
<g id="a_edge27"><a xlink:title="include">
<path fill="none" stroke="#1414ce" d="M373.66,-223.7C436.63,-210.14 552.89,-185.1 614.57,-171.81"/>
<polygon fill="#1414ce" stroke="#1414ce" points="615.31,-175.24 624.35,-169.71 613.84,-168.39 615.31,-175.24"/>
</a>
</g>
</g>
<!-- 23&#45;&gt;3 -->
<g id="edge23" class="edge">
<title>23&#45;&gt;3</title>
<g id="a_edge23"><a xlink:title="include">
<path fill="none" stroke="#1414ce" d="M332.14,-215.81C334.68,-196.74 341.02,-165.78 356.5,-144 388.43,-99.06 406.97,-94.04 457.5,-72 527.18,-41.6 615.22,-28.31 668.08,-22.75"/>
<polygon fill="#1414ce" stroke="#1414ce" points="668.56,-26.21 678.16,-21.73 667.86,-19.25 668.56,-26.21"/>
</a>
</g>
</g>
<!-- 23&#45;&gt;5 -->
<g id="edge24" class="edge">
<title>23&#45;&gt;5</title>
<g id="a_edge24"><a xlink:title="include">
<path fill="none" stroke="#1414ce" d="M338.92,-215.97C349.27,-196.46 368.46,-164.56 392.5,-144 411.22,-127.99 435.62,-115.54 456.58,-106.74"/>
<polygon fill="#1414ce" stroke="#1414ce" points="457.98,-109.95 465.94,-102.96 455.35,-103.46 457.98,-109.95"/>
</a>
</g>
</g>
<!-- 11 -->
<g id="node18" class="node">
<title>11</title>
<g id="a_node18"><a xlink:title="erl_nif.h">
<polygon fill="#ffffff" stroke="black" points="264.5,-180 190.5,-180 190.5,-144 264.5,-144 264.5,-180"/>
<text text-anchor="middle" x="227.5" y="-158.3" font-family="Times,serif" font-size="14.00">erl_nif.h</text>
</a>
</g>
</g>
<!-- 23&#45;&gt;11 -->
<g id="edge25" class="edge">
<title>23&#45;&gt;11</title>
<g id="a_edge25"><a xlink:title="include">
<path fill="none" stroke="#1414ce" d="M305.3,-215.88C292.09,-206.89 275.71,-195.76 261.39,-186.03"/>
<polygon fill="#1414ce" stroke="#1414ce" points="263.03,-182.92 252.79,-180.19 259.1,-188.71 263.03,-182.92"/>
</a>
</g>
</g>
<!-- 12 -->
<g id="node24" class="node">
<title>12</title>
<g id="a_node24"><a xlink:title="term_typedef.h">
<polygon fill="#ffffff" stroke="black" points="207,-108 82,-108 82,-72 207,-72 207,-108"/>
<text text-anchor="middle" x="144.5" y="-86.3" font-family="Times,serif" font-size="14.00">term_typedef.h</text>
</a>
</g>
</g>
<!-- 23&#45;&gt;12 -->
<g id="edge26" class="edge">
<title>23&#45;&gt;12</title>
<g id="a_edge26"><a xlink:title="include">
<path fill="none" stroke="#1414ce" d="M323.31,-215.68C314.32,-195.91 297.17,-163.75 273.5,-144 256.97,-130.2 236.36,-119.6 216.5,-111.63"/>
<polygon fill="#1414ce" stroke="#1414ce" points="217.73,-108.35 207.14,-108.04 215.22,-114.89 217.73,-108.35"/>
</a>
</g>
</g>
<!-- 1 -->
<g id="node13" class="node">
<title>1</title>
<g id="a_node13"><a xlink:title="/__w/AtomVM/AtomVM/src/libAtomVM/otp_net.h">
<polygon fill="#bfbfbf" stroke="black" points="1037.5,-828 677.5,-828 677.5,-792 1037.5,-792 1037.5,-828"/>
<text text-anchor="middle" x="857.5" y="-806.3" font-family="Times,serif" font-size="14.00">/__w/AtomVM/AtomVM/src/libAtomVM/otp_net.h</text>
</a>
</g>
</g>
<!-- 1&#45;&gt;29 -->
<g id="edge29" class="edge">
<title>1&#45;&gt;29</title>
<g id="a_edge29"><a xlink:title="include">
<path fill="none" stroke="#1414ce" d="M848.85,-791.7C844.86,-783.73 840.05,-774.1 835.63,-765.26"/>
<polygon fill="#1414ce" stroke="#1414ce" points="838.65,-763.48 831.05,-756.1 832.39,-766.61 838.65,-763.48"/>
</a>
</g>
</g>
<!-- 1&#45;&gt;2 -->
<g id="edge28" class="edge">
<title>1&#45;&gt;2</title>
<g id="a_edge28"><a xlink:title="include">
<path fill="none" stroke="#1414ce" d="M872.65,-791.85C905.96,-754.13 985.71,-663.83 1024.53,-619.88"/>
<polygon fill="#1414ce" stroke="#1414ce" points="1027.28,-622.04 1031.28,-612.23 1022.04,-617.41 1027.28,-622.04"/>
</a>
</g>
</g>
<!-- 28 -->
<g id="node14" class="node">
<title>28</title>
<g id="a_node14"><a xlink:title="valueshashtable.h">
<polygon fill="#ffffff" stroke="black" points="1376.5,-180 1230.5,-180 1230.5,-144 1376.5,-144 1376.5,-180"/>
<text text-anchor="middle" x="1303.5" y="-158.3" font-family="Times,serif" font-size="14.00">valueshashtable.h</text>
</a>
</g>
</g>
<!-- 28&#45;&gt;3 -->
<g id="edge31" class="edge">
<title>28&#45;&gt;3</title>
<g id="a_edge31"><a xlink:title="include">
<path fill="none" stroke="#1414ce" d="M1292.35,-143.77C1277.72,-122.81 1249.95,-88.2 1216.5,-72 1136.73,-33.37 869.64,-22.7 761.02,-19.92"/>
<polygon fill="#1414ce" stroke="#1414ce" points="760.8,-16.41 750.71,-19.67 760.63,-23.41 760.8,-16.41"/>
</a>
</g>
</g>
<!-- 28&#45;&gt;9 -->
<g id="edge30" class="edge">
<title>28&#45;&gt;9</title>
<g id="a_edge30"><a xlink:title="include">
<path fill="none" stroke="#1414ce" d="M1249.48,-143.97C1212.4,-132.28 1163.7,-116.92 1128.29,-105.75"/>
<polygon fill="#1414ce" stroke="#1414ce" points="1129.26,-102.39 1118.67,-102.72 1127.16,-109.07 1129.26,-102.39"/>
</a>
</g>
</g>
<!-- 25&#45;&gt;18 -->
<g id="edge37" class="edge">
<title>25&#45;&gt;18</title>
<g id="a_edge37"><a xlink:title="include">
<path fill="none" stroke="#1414ce" d="M725.74,-296.97C809.31,-283.62 976.05,-256.97 1061.05,-243.38"/>
<polygon fill="#1414ce" stroke="#1414ce" points="1061.68,-246.83 1071,-241.79 1060.57,-239.91 1061.68,-246.83"/>
</a>
</g>
</g>
<!-- 25&#45;&gt;17 -->
<g id="edge34" class="edge">
<title>25&#45;&gt;17</title>
<g id="a_edge34"><a xlink:title="include">
<path fill="none" stroke="#1414ce" d="M714.17,-288C737.7,-277.63 768.35,-264.1 795.5,-252 851.95,-226.85 917.32,-197.4 957.02,-179.48"/>
<polygon fill="#1414ce" stroke="#1414ce" points="958.63,-182.6 966.3,-175.29 955.75,-176.22 958.63,-182.6"/>
</a>
</g>
</g>
<!-- 25&#45;&gt;5 -->
<g id="edge32" class="edge">
<title>25&#45;&gt;5</title>
<g id="a_edge32"><a xlink:title="include">
<path fill="none" stroke="#1414ce" d="M656.14,-287.83C645.23,-277.8 631.61,-264.66 620.5,-252 580.9,-206.86 540.55,-149.33 518.5,-116.68"/>
<polygon fill="#1414ce" stroke="#1414ce" points="521.26,-114.52 512.78,-108.16 515.45,-118.42 521.26,-114.52"/>
</a>
</g>
</g>
<!-- 25&#45;&gt;23 -->
<g id="edge36" class="edge">
<title>25&#45;&gt;23</title>
<g id="a_edge36"><a xlink:title="include">
<path fill="none" stroke="#1414ce" d="M625.33,-294.82C560.94,-281.76 449.69,-259.18 383.81,-245.82"/>
<polygon fill="#1414ce" stroke="#1414ce" points="384.14,-242.31 373.64,-243.75 382.74,-249.17 384.14,-242.31"/>
</a>
</g>
</g>
<!-- 25&#45;&gt;11 -->
<g id="edge33" class="edge">
<title>25&#45;&gt;11</title>
<g id="a_edge33"><a xlink:title="include">
<path fill="none" stroke="#1414ce" d="M625.32,-303.75C531.56,-300.54 334.2,-289.42 278.5,-252 256.88,-237.47 243.31,-210.49 235.66,-190.02"/>
<polygon fill="#1414ce" stroke="#1414ce" points="238.87,-188.6 232.27,-180.3 232.26,-190.9 238.87,-188.6"/>
</a>
</g>
</g>
<!-- 25&#45;&gt;26 -->
<g id="edge35" class="edge">
<title>25&#45;&gt;26</title>
<g id="a_edge35"><a xlink:title="include">
<path fill="none" stroke="#1414ce" d="M692.31,-287.7C700.63,-279.14 710.81,-268.66 719.89,-259.3"/>
<polygon fill="#1414ce" stroke="#1414ce" points="722.43,-261.72 726.88,-252.1 717.41,-256.84 722.43,-261.72"/>
</a>
</g>
</g>
<!-- 20&#45;&gt;7 -->
<g id="edge39" class="edge">
<title>20&#45;&gt;7</title>
<g id="a_edge39"><a xlink:title="include">
<path fill="none" stroke="#1414ce" d="M554.31,-445.31C612.9,-438.17 732.47,-420.95 765.5,-396 861.31,-323.63 906.9,-178.19 922.27,-118.02"/>
<polygon fill="#1414ce" stroke="#1414ce" points="925.71,-118.68 924.71,-108.13 918.91,-117 925.71,-118.68"/>
</a>
</g>
</g>
<!-- 20&#45;&gt;24 -->
<g id="edge46" class="edge">
<title>20&#45;&gt;24</title>
<g id="a_edge46"><a xlink:title="include">
<path fill="none" stroke="#1414ce" d="M554.28,-436.32C580.57,-426.16 618.01,-411.67 648.69,-399.81"/>
<polygon fill="#1414ce" stroke="#1414ce" points="650.32,-402.93 658.39,-396.06 647.8,-396.4 650.32,-402.93"/>
</a>
</g>
</g>
<!-- 20&#45;&gt;4 -->
<g id="edge44" class="edge">
<title>20&#45;&gt;4</title>
<g id="a_edge44"><a xlink:title="include">
<path fill="none" stroke="#1414ce" d="M540.29,-431.7C549.67,-423.05 561.18,-412.45 571.41,-403.03"/>
<polygon fill="#1414ce" stroke="#1414ce" points="573.95,-405.45 578.93,-396.1 569.2,-400.3 573.95,-405.45"/>
</a>
</g>
</g>
<!-- 20&#45;&gt;8 -->
<g id="edge47" class="edge">
<title>20&#45;&gt;8</title>
<g id="a_edge47"><a xlink:title="include">
<path fill="none" stroke="#1414ce" d="M527.99,-431.93C534.81,-414 545.86,-385 555.5,-360 580.75,-294.48 585.05,-276.61 620.5,-216 625.79,-206.96 631.97,-197.33 637.66,-188.79"/>
<polygon fill="#1414ce" stroke="#1414ce" points="640.65,-190.61 643.34,-180.36 634.85,-186.69 640.65,-190.61"/>
</a>
</g>
</g>
<!-- 20&#45;&gt;3 -->
<g id="edge40" class="edge">
<title>20&#45;&gt;3</title>
<g id="a_edge40"><a xlink:title="include">
<path fill="none" stroke="#1414ce" d="M488.75,-447.32C417.03,-443.05 248.94,-429.63 204.5,-396 169.62,-369.61 162.5,-350.74 162.5,-307 162.5,-307 162.5,-307 162.5,-233 162.5,-192.55 154.83,-174.4 181.5,-144 245.92,-70.57 550.5,-34.47 668.06,-23.1"/>
<polygon fill="#1414ce" stroke="#1414ce" points="668.56,-26.56 678.18,-22.13 667.89,-19.6 668.56,-26.56"/>
</a>
</g>
</g>
<!-- 20&#45;&gt;5 -->
<g id="edge42" class="edge">
<title>20&#45;&gt;5</title>
<g id="a_edge42"><a xlink:title="include">
<path fill="none" stroke="#1414ce" d="M498,-431.8C487.26,-422.52 475.6,-410.08 469.5,-396 424.95,-293.16 424.27,-250.05 460.5,-144 463.94,-133.93 470.16,-124.28 476.73,-116.05"/>
<polygon fill="#1414ce" stroke="#1414ce" points="479.5,-118.2 483.33,-108.32 474.18,-113.65 479.5,-118.2"/>
</a>
</g>
</g>
<!-- 20&#45;&gt;23 -->
<g id="edge45" class="edge">
<title>20&#45;&gt;23</title>
<g id="a_edge45"><a xlink:title="include">
<path fill="none" stroke="#1414ce" d="M488.96,-448.32C418.32,-446.08 254.53,-436.54 220.5,-396 181.76,-349.84 250.09,-290.02 295.32,-257.86"/>
<polygon fill="#1414ce" stroke="#1414ce" points="297.53,-260.59 303.74,-252 293.53,-254.84 297.53,-260.59"/>
</a>
</g>
</g>
<!-- 21 -->
<g id="node22" class="node">
<title>21</title>
<g id="a_node22"><a xlink:title="sys/types.h">
<polygon fill="#ffffff" stroke="black" points="326,-396 229,-396 229,-360 326,-360 326,-396"/>
<text text-anchor="middle" x="277.5" y="-374.3" font-family="Times,serif" font-size="14.00">sys/types.h</text>
</a>
</g>
</g>
<!-- 20&#45;&gt;21 -->
<g id="edge38" class="edge">
<title>20&#45;&gt;21</title>
<g id="a_edge38"><a xlink:title="include">
<path fill="none" stroke="#1414ce" d="M488.89,-439.79C453.69,-429.83 395.73,-413.37 336.18,-396.19"/>
<polygon fill="#1414ce" stroke="#1414ce" points="336.81,-392.72 326.23,-393.31 334.86,-399.45 336.81,-392.72"/>
</a>
</g>
</g>
<!-- 22 -->
<g id="node23" class="node">
<title>22</title>
<g id="a_node23"><a xlink:title="string.h">
<polygon fill="#ffffff" stroke="black" points="417,-396 344,-396 344,-360 417,-360 417,-396"/>
<text text-anchor="middle" x="380.5" y="-374.3" font-family="Times,serif" font-size="14.00">string.h</text>
</a>
</g>
</g>
<!-- 20&#45;&gt;22 -->
<g id="edge43" class="edge">
<title>20&#45;&gt;22</title>
<g id="a_edge43"><a xlink:title="include">
<path fill="none" stroke="#1414ce" d="M488.8,-432.76C469.52,-423.2 444.89,-410.97 424,-400.59"/>
<polygon fill="#1414ce" stroke="#1414ce" points="425.51,-397.44 414.99,-396.12 422.39,-403.71 425.51,-397.44"/>
</a>
</g>
</g>
<!-- 20&#45;&gt;12 -->
<g id="edge48" class="edge">
<title>20&#45;&gt;12</title>
<g id="a_edge48"><a xlink:title="include">
<path fill="none" stroke="#1414ce" d="M488.91,-447.67C408.94,-443.89 205.39,-431.01 148.5,-396 107.45,-370.73 86.5,-355.21 86.5,-307 86.5,-307 86.5,-307 86.5,-233 86.5,-189.7 109.9,-144.11 126.98,-116.61"/>
<polygon fill="#1414ce" stroke="#1414ce" points="130.04,-118.32 132.48,-108.01 124.14,-114.55 130.04,-118.32"/>
</a>
</g>
</g>
<!-- 20&#45;&gt;10 -->
<g id="edge41" class="edge">
<title>20&#45;&gt;10</title>
<g id="a_edge41"><a xlink:title="include">
<path fill="none" stroke="#1414ce" d="M523.72,-431.75C526.25,-413.68 530.91,-384.56 537.5,-360 563.96,-261.42 567.98,-234.33 615.5,-144 620.48,-134.53 626.96,-124.83 633.16,-116.36"/>
<polygon fill="#1414ce" stroke="#1414ce" points="635.97,-118.45 639.19,-108.35 630.38,-114.23 635.97,-118.45"/>
</a>
</g>
</g>
<!-- 11&#45;&gt;12 -->
<g id="edge49" class="edge">
<title>11&#45;&gt;12</title>
<g id="a_edge49"><a xlink:title="include">
<path fill="none" stroke="#1414ce" d="M206.98,-143.7C196.63,-134.97 183.91,-124.24 172.66,-114.75"/>
<polygon fill="#1414ce" stroke="#1414ce" points="174.68,-111.88 164.78,-108.1 170.17,-117.23 174.68,-111.88"/>
</a>
</g>
</g>
<!-- 31&#45;&gt;20 -->
<g id="edge50" class="edge">
<title>31&#45;&gt;20</title>
<g id="a_edge50"><a xlink:title="include">
<path fill="none" stroke="#1414ce" d="M584.82,-575.87C572.38,-551.35 549.4,-506.03 534.81,-477.26"/>
<polygon fill="#1414ce" stroke="#1414ce" points="537.86,-475.53 530.22,-468.19 531.62,-478.69 537.86,-475.53"/>
</a>
</g>
</g>
<!-- 14 -->
<g id="node20" class="node">
<title>14</title>
<g id="a_node20"><a xlink:title="limits.h">
<polygon fill="#ffffff" stroke="black" points="271,-36 200,-36 200,0 271,0 271,-36"/>
<text text-anchor="middle" x="235.5" y="-14.3" font-family="Times,serif" font-size="14.00">limits.h</text>
</a>
</g>
</g>
<!-- 6 -->
<g id="node21" class="node">
<title>6</title>
<g id="a_node21"><a xlink:title="atom_table.h">
<polygon fill="#ffffff" stroke="black" points="953,-468 844,-468 844,-432 953,-432 953,-468"/>
<text text-anchor="middle" x="898.5" y="-446.3" font-family="Times,serif" font-size="14.00">atom_table.h</text>
</a>
</g>
</g>
<!-- 6&#45;&gt;7 -->
<g id="edge51" class="edge">
<title>6&#45;&gt;7</title>
<g id="a_edge51"><a xlink:title="include">
<path fill="none" stroke="#1414ce" d="M902.13,-431.7C907,-407.67 915.51,-362.75 919.5,-324 927.14,-249.75 928.44,-161.59 928.57,-118.08"/>
<polygon fill="#1414ce" stroke="#1414ce" points="932.07,-118.01 928.59,-108.01 925.07,-118 932.07,-118.01"/>
</a>
</g>
</g>
<!-- 6&#45;&gt;4 -->
<g id="edge52" class="edge">
<title>6&#45;&gt;4</title>
<g id="a_edge52"><a xlink:title="include">
<path fill="none" stroke="#1414ce" d="M843.96,-440.82C793.22,-432.54 715.51,-418.17 640.39,-396"/>
<polygon fill="#1414ce" stroke="#1414ce" points="641.36,-392.63 630.77,-393.11 639.34,-399.33 641.36,-392.63"/>
</a>
</g>
</g>
<!-- 6&#45;&gt;8 -->
<g id="edge53" class="edge">
<title>6&#45;&gt;8</title>
<g id="a_edge53"><a xlink:title="include">
<path fill="none" stroke="#1414ce" d="M881.69,-431.62C852.47,-401.6 790.06,-338.39 734.5,-288 716.04,-271.26 706.17,-272.15 691.5,-252 677.85,-233.24 668.4,-208.56 662.62,-189.95"/>
<polygon fill="#1414ce" stroke="#1414ce" points="665.96,-188.92 659.78,-180.31 659.25,-190.89 665.96,-188.92"/>
</a>
</g>
</g>
<!-- 12&#45;&gt;13 -->
<g id="edge54" class="edge">
<title>12&#45;&gt;13</title>
<g id="a_edge54"><a xlink:title="include">
<path fill="none" stroke="#1414ce" d="M144.5,-71.7C144.5,-63.98 144.5,-54.71 144.5,-46.11"/>
<polygon fill="#1414ce" stroke="#1414ce" points="148,-46.1 144.5,-36.1 141,-46.1 148,-46.1"/>
</a>
</g>
</g>
<!-- 12&#45;&gt;3 -->
<g id="edge57" class="edge">
<title>12&#45;&gt;3</title>
<g id="a_edge57"><a xlink:title="include">
<path fill="none" stroke="#1414ce" d="M207,-74.6C211.9,-73.65 216.77,-72.77 221.5,-72 384.77,-45.28 580.75,-28.81 668.31,-22.26"/>
<polygon fill="#1414ce" stroke="#1414ce" points="668.73,-25.74 678.44,-21.51 668.21,-18.76 668.73,-25.74"/>
</a>
</g>
</g>
<!-- 12&#45;&gt;14 -->
<g id="edge55" class="edge">
<title>12&#45;&gt;14</title>
<g id="a_edge55"><a xlink:title="include">
<path fill="none" stroke="#1414ce" d="M166.99,-71.7C178.46,-62.88 192.56,-52.03 204.98,-42.47"/>
<polygon fill="#1414ce" stroke="#1414ce" points="207.47,-44.98 213.26,-36.1 203.2,-39.43 207.47,-44.98"/>
</a>
</g>
</g>
<!-- 15 -->
<g id="node31" class="node">
<title>15</title>
<g id="a_node31"><a xlink:title="inttypes.h">
<polygon fill="#ffffff" stroke="black" points="89,-36 0,-36 0,0 89,0 89,-36"/>
<text text-anchor="middle" x="44.5" y="-14.3" font-family="Times,serif" font-size="14.00">inttypes.h</text>
</a>
</g>
</g>
<!-- 12&#45;&gt;15 -->
<g id="edge56" class="edge">
<title>12&#45;&gt;15</title>
<g id="a_edge56"><a xlink:title="include">
<path fill="none" stroke="#1414ce" d="M120.04,-71.88C107.2,-62.89 91.3,-51.76 77.41,-42.03"/>
<polygon fill="#1414ce" stroke="#1414ce" points="79.26,-39.06 69.06,-36.19 75.24,-44.79 79.26,-39.06"/>
</a>
</g>
</g>
<!-- 2&#45;&gt;4 -->
<g id="edge59" class="edge">
<title>2&#45;&gt;4</title>
<g id="a_edge59"><a xlink:title="include">
<path fill="none" stroke="#1414ce" d="M1017.1,-575.84C963.2,-544.77 844.45,-478.15 739.5,-432 698.96,-414.17 685.32,-412.95 640.35,-396.23"/>
<polygon fill="#1414ce" stroke="#1414ce" points="641.52,-392.93 630.92,-392.67 639.04,-399.47 641.52,-392.93"/>
</a>
</g>
</g>
<!-- 2&#45;&gt;18 -->
<g id="edge66" class="edge">
<title>2&#45;&gt;18</title>
<g id="a_edge66"><a xlink:title="include">
<path fill="none" stroke="#1414ce" d="M1074.28,-575.93C1087.06,-566.75 1101.37,-554.37 1110.5,-540 1132.41,-505.52 1133.5,-491.86 1133.5,-451 1133.5,-451 1133.5,-451 1133.5,-377 1133.5,-336.82 1125.55,-290.87 1119.68,-262.39"/>
<polygon fill="#1414ce" stroke="#1414ce" points="1123.05,-261.43 1117.55,-252.38 1116.2,-262.89 1123.05,-261.43"/>
</a>
</g>
</g>
<!-- 2&#45;&gt;17 -->
<g id="edge63" class="edge">
<title>2&#45;&gt;17</title>
<g id="a_edge63"><a xlink:title="include">
<path fill="none" stroke="#1414ce" d="M1082.04,-575.87C1122.93,-553.39 1184.5,-509.78 1184.5,-451 1184.5,-451 1184.5,-451 1184.5,-305 1184.5,-264.55 1192.81,-245.84 1165.5,-216 1160.8,-210.86 1079.28,-187.19 1030.18,-173.28"/>
<polygon fill="#1414ce" stroke="#1414ce" points="1031.11,-169.91 1020.53,-170.56 1029.2,-176.64 1031.11,-169.91"/>
</a>
</g>
</g>
<!-- 2&#45;&gt;3 -->
<g id="edge58" class="edge">
<title>2&#45;&gt;3</title>
<g id="a_edge58"><a xlink:title="include">
<path fill="none" stroke="#1414ce" d="M1110.34,-590.78C1157.95,-586.23 1222.43,-573.67 1268.5,-540 1396.31,-446.58 1452.5,-393.31 1452.5,-235 1452.5,-235 1452.5,-235 1452.5,-161 1452.5,-63.71 1346.56,-96.87 1252.5,-72 1075.18,-25.12 855.07,-18.93 760.83,-18.62"/>
<polygon fill="#1414ce" stroke="#1414ce" points="760.77,-15.12 750.77,-18.61 760.77,-22.12 760.77,-15.12"/>
</a>
</g>
</g>
<!-- 2&#45;&gt;28 -->
<g id="edge69" class="edge">
<title>2&#45;&gt;28</title>
<g id="a_edge69"><a xlink:title="include">
<path fill="none" stroke="#1414ce" d="M1110.23,-590.6C1152.55,-585.78 1206.71,-572.95 1242.5,-540 1291.98,-494.44 1325.99,-318.58 1335.5,-252 1337.76,-236.16 1339.79,-231.41 1335.5,-216 1332.83,-206.42 1327.91,-196.84 1322.72,-188.51"/>
<polygon fill="#1414ce" stroke="#1414ce" points="1325.52,-186.41 1317.06,-180.03 1319.7,-190.29 1325.52,-186.41"/>
</a>
</g>
</g>
<!-- 2&#45;&gt;20 -->
<g id="edge67" class="edge">
<title>2&#45;&gt;20</title>
<g id="a_edge67"><a xlink:title="include">
<path fill="none" stroke="#1414ce" d="M983.43,-575.94C874.98,-546.61 655.93,-487.36 563.82,-462.45"/>
<polygon fill="#1414ce" stroke="#1414ce" points="564.58,-459.03 554.01,-459.79 562.75,-465.78 564.58,-459.03"/>
</a>
</g>
</g>
<!-- 2&#45;&gt;11 -->
<g id="edge61" class="edge">
<title>2&#45;&gt;11</title>
<g id="a_edge61"><a xlink:title="include">
<path fill="none" stroke="#1414ce" d="M982.76,-589.92C774.07,-578.99 124.5,-538 124.5,-451 124.5,-451 124.5,-451 124.5,-305 124.5,-255.66 165.76,-211.89 196.05,-186.41"/>
<polygon fill="#1414ce" stroke="#1414ce" points="198.34,-189.06 203.87,-180.03 193.91,-183.64 198.34,-189.06"/>
</a>
</g>
</g>
<!-- 2&#45;&gt;6 -->
<g id="edge60" class="edge">
<title>2&#45;&gt;6</title>
<g id="a_edge60"><a xlink:title="include">
<path fill="none" stroke="#1414ce" d="M1030.03,-576C1012.36,-557.88 983.35,-528.5 957.5,-504 947.33,-494.36 935.92,-484 925.86,-475.03"/>
<polygon fill="#1414ce" stroke="#1414ce" points="927.94,-472.19 918.14,-468.17 923.29,-477.43 927.94,-472.19"/>
</a>
</g>
</g>
<!-- 2&#45;&gt;19 -->
<g id="edge65" class="edge">
<title>2&#45;&gt;19</title>
<g id="a_edge65"><a xlink:title="include">
<path fill="none" stroke="#1414ce" d="M1110.35,-588.16C1147.43,-582.17 1192.58,-568.97 1222.5,-540 1228.56,-534.13 1318.13,-260.33 1319.5,-252 1322.09,-236.21 1329.03,-228.85 1319.5,-216 1311.29,-204.93 1233.7,-184.49 1184.63,-172.49"/>
<polygon fill="#1414ce" stroke="#1414ce" points="1185.17,-169.02 1174.62,-170.06 1183.52,-175.82 1185.17,-169.02"/>
</a>
</g>
</g>
<!-- 2&#45;&gt;27 -->
<g id="edge68" class="edge">
<title>2&#45;&gt;27</title>
<g id="a_edge68"><a xlink:title="include">
<path fill="none" stroke="#1414ce" d="M1110.17,-584.71C1140.69,-577.61 1175.53,-564.43 1198.5,-540 1226.64,-510.07 1223.5,-492.09 1223.5,-451 1223.5,-451 1223.5,-451 1223.5,-377 1223.5,-335.63 1238.73,-289.72 1249.91,-261.61"/>
<polygon fill="#1414ce" stroke="#1414ce" points="1253.26,-262.67 1253.81,-252.09 1246.78,-260.02 1253.26,-262.67"/>
</a>
</g>
</g>
<!-- 2&#45;&gt;26 -->
<g id="edge64" class="edge">
<title>2&#45;&gt;26</title>
<g id="a_edge64"><a xlink:title="include">
<path fill="none" stroke="#1414ce" d="M1041.41,-575.62C1024.01,-517.23 965.37,-329.42 919.5,-288 885.69,-257.48 834.86,-244.51 796.51,-239.02"/>
<polygon fill="#1414ce" stroke="#1414ce" points="796.92,-235.54 786.55,-237.72 796.01,-242.48 796.92,-235.54"/>
</a>
</g>
</g>
<!-- 16 -->
<g id="node30" class="node">
<title>16</title>
<g id="a_node30"><a xlink:title="ets.h">
<polygon fill="#ffffff" stroke="black" points="1101.5,-540 1047.5,-540 1047.5,-504 1101.5,-504 1101.5,-540"/>
<text text-anchor="middle" x="1074.5" y="-518.3" font-family="Times,serif" font-size="14.00">ets.h</text>
</a>
</g>
</g>
<!-- 2&#45;&gt;16 -->
<g id="edge62" class="edge">
<title>2&#45;&gt;16</title>
<g id="a_edge62"><a xlink:title="include">
<path fill="none" stroke="#1414ce" d="M1053.42,-575.7C1056.57,-567.81 1060.38,-558.3 1063.88,-549.55"/>
<polygon fill="#1414ce" stroke="#1414ce" points="1067.19,-550.69 1067.66,-540.1 1060.69,-548.09 1067.19,-550.69"/>
</a>
</g>
</g>
<!-- 19&#45;&gt;7 -->
<g id="edge70" class="edge">
<title>19&#45;&gt;7</title>
<g id="a_edge70"><a xlink:title="include">
<path fill="none" stroke="#1414ce" d="M1114.31,-149.02C1109.7,-147.28 1104.99,-145.56 1100.5,-144 1060.33,-130.07 1014.27,-115.97 979.93,-105.83"/>
<polygon fill="#1414ce" stroke="#1414ce" points="980.7,-102.4 970.12,-102.94 978.73,-109.12 980.7,-102.4"/>
</a>
</g>
</g>
<!-- 27&#45;&gt;7 -->
<g id="edge71" class="edge">
<title>27&#45;&gt;7</title>
<g id="a_edge71"><a xlink:title="include">
<path fill="none" stroke="#1414ce" d="M1212.26,-218.44C1173.87,-206.69 1124.07,-190.45 1105.5,-180 1083.77,-167.78 1083.92,-156.75 1062.5,-144 1036.67,-128.63 1005.57,-116.01 979.83,-106.95"/>
<polygon fill="#1414ce" stroke="#1414ce" points="980.85,-103.6 970.26,-103.65 978.57,-110.22 980.85,-103.6"/>
</a>
</g>
</g>
<!-- 27&#45;&gt;17 -->
<g id="edge73" class="edge">
<title>27&#45;&gt;17</title>
<g id="a_edge73"><a xlink:title="include">
<path fill="none" stroke="#1414ce" d="M1212.33,-219.68C1207.66,-218.43 1202.99,-217.19 1198.5,-216 1139.85,-200.51 1071.63,-182.97 1030.55,-172.45"/>
<polygon fill="#1414ce" stroke="#1414ce" points="1031.27,-169.03 1020.72,-169.94 1029.54,-175.81 1031.27,-169.03"/>
</a>
</g>
</g>
<!-- 27&#45;&gt;3 -->
<g id="edge72" class="edge">
<title>27&#45;&gt;3</title>
<g id="a_edge72"><a xlink:title="include">
<path fill="none" stroke="#1414ce" d="M1248.28,-215.71C1217.72,-175.97 1143.6,-80.84 1127.5,-72 1065.2,-37.79 854.96,-24.87 760.79,-20.71"/>
<polygon fill="#1414ce" stroke="#1414ce" points="760.84,-17.21 750.7,-20.28 760.54,-24.2 760.84,-17.21"/>
</a>
</g>
</g>
<!-- 26&#45;&gt;7 -->
<g id="edge74" class="edge">
<title>26&#45;&gt;7</title>
<g id="a_edge74"><a xlink:title="include">
<path fill="none" stroke="#1414ce" d="M759.66,-215.73C777.81,-196.86 808.65,-166.34 838.5,-144 853.43,-132.83 870.88,-122.08 886.43,-113.22"/>
<polygon fill="#1414ce" stroke="#1414ce" points="888.31,-116.17 895.32,-108.23 884.89,-110.07 888.31,-116.17"/>
</a>
</g>
</g>
<!-- 26&#45;&gt;8 -->
<g id="edge77" class="edge">
<title>26&#45;&gt;8</title>
<g id="a_edge77"><a xlink:title="include">
<path fill="none" stroke="#1414ce" d="M721.75,-215.7C710.66,-206.88 697.03,-196.03 685.01,-186.47"/>
<polygon fill="#1414ce" stroke="#1414ce" points="687.01,-183.59 677,-180.1 682.65,-189.07 687.01,-183.59"/>
</a>
</g>
</g>
<!-- 26&#45;&gt;17 -->
<g id="edge75" class="edge">
<title>26&#45;&gt;17</title>
<g id="a_edge75"><a xlink:title="include">
<path fill="none" stroke="#1414ce" d="M786.73,-220C791.37,-218.63 796.03,-217.28 800.5,-216 854.62,-200.5 917.54,-183.39 956.45,-172.92"/>
<polygon fill="#1414ce" stroke="#1414ce" points="957.53,-176.25 966.28,-170.27 955.71,-169.49 957.53,-176.25"/>
</a>
</g>
</g>
<!-- 26&#45;&gt;12 -->
<g id="edge76" class="edge">
<title>26&#45;&gt;12</title>
<g id="a_edge76"><a xlink:title="include">
<path fill="none" stroke="#1414ce" d="M700.42,-222.79C598.82,-198.7 343.33,-138.14 217.22,-108.24"/>
<polygon fill="#1414ce" stroke="#1414ce" points="217.81,-104.78 207.27,-105.88 216.19,-111.59 217.81,-104.78"/>
</a>
</g>
</g>
<!-- 16&#45;&gt;18 -->
<g id="edge79" class="edge">
<title>16&#45;&gt;18</title>
<g id="a_edge79"><a xlink:title="include">
<path fill="none" stroke="#1414ce" d="M1076.82,-503.97C1083.34,-456.19 1101.82,-320.62 1109.78,-262.27"/>
<polygon fill="#1414ce" stroke="#1414ce" points="1113.26,-262.69 1111.14,-252.31 1106.32,-261.74 1113.26,-262.69"/>
</a>
</g>
</g>
<!-- 16&#45;&gt;17 -->
<g id="edge78" class="edge">
<title>16&#45;&gt;17</title>
<g id="a_edge78"><a xlink:title="include">
<path fill="none" stroke="#1414ce" d="M1073.05,-503.71C1068.73,-456.52 1053.97,-321.93 1018.5,-216 1015.53,-207.12 1011.46,-197.78 1007.48,-189.46"/>
<polygon fill="#1414ce" stroke="#1414ce" points="1010.48,-187.64 1002.9,-180.24 1004.21,-190.75 1010.48,-187.64"/>
</a>
</g>
</g>
<!-- 16&#45;&gt;20 -->
<g id="edge80" class="edge">
<title>16&#45;&gt;20</title>
<g id="a_edge80"><a xlink:title="include">
<path fill="none" stroke="#1414ce" d="M1047.45,-517.58C958.28,-506.29 673.05,-470.18 564.23,-456.41"/>
<polygon fill="#1414ce" stroke="#1414ce" points="564.63,-452.93 554.27,-455.15 563.75,-459.88 564.63,-452.93"/>
</a>
</g>
</g>
</g>
</svg>
