<?xml version="1.0" encoding="UTF-8" standalone="no"?>
<!DOCTYPE svg PUBLIC "-//W3C//DTD SVG 1.1//EN"
 "http://www.w3.org/Graphics/SVG/1.1/DTD/svg11.dtd">
<!-- Generated by graphviz version 2.43.0 (0)
 -->
<!-- Title: %3 Pages: 1 -->
<svg width="1635pt" height="692pt"
 viewBox="0.00 0.00 1635.42 692.00" xmlns="http://www.w3.org/2000/svg" xmlns:xlink="http://www.w3.org/1999/xlink">
<g id="graph0" class="graph" transform="scale(1 1) rotate(0) translate(4 688)">
<title>%3</title>
<polygon fill="transparent" stroke="transparent" points="-4,4 -4,-688 1631.42,-688 1631.42,4 -4,4"/>
<!-- 4 -->
<g id="node1" class="node">
<title>4</title>
<g id="a_node1"><a xlink:title="atom.h">
<polygon fill="#ffffff" stroke="black" points="1359.42,-180 1293.42,-180 1293.42,-144 1359.42,-144 1359.42,-180"/>
<text text-anchor="middle" x="1326.42" y="-158.3" font-family="Times,serif" font-size="14.00">atom.h</text>
</a>
</g>
</g>
<!-- 3 -->
<g id="node25" class="node">
<title>3</title>
<g id="a_node25"><a xlink:title="stdint.h">
<polygon fill="#ffffff" stroke="black" points="1325.42,-36 1253.42,-36 1253.42,0 1325.42,0 1325.42,-36"/>
<text text-anchor="middle" x="1289.42" y="-14.3" font-family="Times,serif" font-size="14.00">stdint.h</text>
</a>
</g>
</g>
<!-- 4&#45;&gt;3 -->
<g id="edge1" class="edge">
<title>4&#45;&gt;3</title>
<g id="a_edge1"><a xlink:title="include">
<path fill="none" stroke="#1414ce" d="M1321.95,-143.87C1315.62,-119.56 1303.96,-74.82 1296.45,-46.01"/>
<polygon fill="#1414ce" stroke="#1414ce" points="1299.8,-44.98 1293.89,-36.19 1293.03,-46.75 1299.8,-44.98"/>
</a>
</g>
</g>
<!-- 5 -->
<g id="node27" class="node">
<title>5</title>
<g id="a_node27"><a xlink:title="stdlib.h">
<polygon fill="#ffffff" stroke="black" points="1119.92,-108 1048.92,-108 1048.92,-72 1119.92,-72 1119.92,-108"/>
<text text-anchor="middle" x="1084.42" y="-86.3" font-family="Times,serif" font-size="14.00">stdlib.h</text>
</a>
</g>
</g>
<!-- 4&#45;&gt;5 -->
<g id="edge2" class="edge">
<title>4&#45;&gt;5</title>
<g id="a_edge2"><a xlink:title="include">
<path fill="none" stroke="#1414ce" d="M1293.27,-151.41C1250.98,-139.18 1177.6,-117.95 1130.04,-104.2"/>
<polygon fill="#1414ce" stroke="#1414ce" points="1130.88,-100.8 1120.3,-101.38 1128.94,-107.52 1130.88,-100.8"/>
</a>
</g>
</g>
<!-- 6 -->
<g id="node2" class="node">
<title>6</title>
<g id="a_node2"><a xlink:title="atom_table.h">
<polygon fill="#ffffff" stroke="black" points="1221.92,-252 1112.92,-252 1112.92,-216 1221.92,-216 1221.92,-252"/>
<text text-anchor="middle" x="1167.42" y="-230.3" font-family="Times,serif" font-size="14.00">atom_table.h</text>
</a>
</g>
</g>
<!-- 6&#45;&gt;4 -->
<g id="edge4" class="edge">
<title>6&#45;&gt;4</title>
<g id="a_edge4"><a xlink:title="include">
<path fill="none" stroke="#1414ce" d="M1206.31,-215.88C1229.85,-205.51 1259.88,-192.29 1284.02,-181.66"/>
<polygon fill="#1414ce" stroke="#1414ce" points="1285.55,-184.81 1293.29,-177.58 1282.73,-178.41 1285.55,-184.81"/>
</a>
</g>
</g>
<!-- 8 -->
<g id="node18" class="node">
<title>8</title>
<g id="a_node18"><a xlink:title="utils.h">
<polygon fill="#ffffff" stroke="black" points="904.42,-180 842.42,-180 842.42,-144 904.42,-144 904.42,-180"/>
<text text-anchor="middle" x="873.42" y="-158.3" font-family="Times,serif" font-size="14.00">utils.h</text>
</a>
</g>
</g>
<!-- 6&#45;&gt;8 -->
<g id="edge5" class="edge">
<title>6&#45;&gt;8</title>
<g id="a_edge5"><a xlink:title="include">
<path fill="none" stroke="#1414ce" d="M1112.81,-220C1055.36,-206.32 966.26,-185.1 914.5,-172.78"/>
<polygon fill="#1414ce" stroke="#1414ce" points="915.21,-169.35 904.67,-170.44 913.58,-176.16 915.21,-169.35"/>
</a>
</g>
</g>
<!-- 7 -->
<g id="node23" class="node">
<title>7</title>
<g id="a_node23"><a xlink:title="stdbool.h">
<polygon fill="#ffffff" stroke="black" points="535.92,-108 452.92,-108 452.92,-72 535.92,-72 535.92,-108"/>
<text text-anchor="middle" x="494.42" y="-86.3" font-family="Times,serif" font-size="14.00">stdbool.h</text>
</a>
</g>
</g>
<!-- 6&#45;&gt;7 -->
<g id="edge3" class="edge">
<title>6&#45;&gt;7</title>
<g id="a_edge3"><a xlink:title="include">
<path fill="none" stroke="#1414ce" d="M1127.29,-215.96C1077.88,-195.68 990.96,-162.27 913.42,-144 895.74,-139.84 654.5,-110.38 546.29,-97.27"/>
<polygon fill="#1414ce" stroke="#1414ce" points="546.6,-93.78 536.25,-96.05 545.76,-100.73 546.6,-93.78"/>
</a>
</g>
</g>
<!-- 1 -->
<g id="node3" class="node">
<title>1</title>
<g id="a_node3"><a xlink:title="/__w/AtomVM/AtomVM/src/libAtomVM/avmpack.h">
<polygon fill="#bfbfbf" stroke="black" points="679.42,-684 309.42,-684 309.42,-648 679.42,-648 679.42,-684"/>
<text text-anchor="middle" x="494.42" y="-662.3" font-family="Times,serif" font-size="14.00">/__w/AtomVM/AtomVM/src/libAtomVM/avmpack.h</text>
</a>
</g>
</g>
<!-- 2 -->
<g id="node6" class="node">
<title>2</title>
<g id="a_node6"><a xlink:title="globalcontext.h">
<polygon fill="#ffffff" stroke="black" points="557.92,-612 430.92,-612 430.92,-576 557.92,-576 557.92,-612"/>
<text text-anchor="middle" x="494.42" y="-590.3" font-family="Times,serif" font-size="14.00">globalcontext.h</text>
</a>
</g>
</g>
<!-- 1&#45;&gt;2 -->
<g id="edge6" class="edge">
<title>1&#45;&gt;2</title>
<g id="a_edge6"><a xlink:title="include">
<path fill="none" stroke="#1414ce" d="M494.42,-647.7C494.42,-639.98 494.42,-630.71 494.42,-622.11"/>
<polygon fill="#1414ce" stroke="#1414ce" points="497.92,-622.1 494.42,-612.1 490.92,-622.1 497.92,-622.1"/>
</a>
</g>
</g>
<!-- 18 -->
<g id="node8" class="node">
<title>18</title>
<g id="a_node8"><a xlink:title="list.h">
<polygon fill="#ffffff" stroke="black" points="428.42,-180 374.42,-180 374.42,-144 428.42,-144 428.42,-180"/>
<text text-anchor="middle" x="401.42" y="-158.3" font-family="Times,serif" font-size="14.00">list.h</text>
</a>
</g>
</g>
<!-- 1&#45;&gt;18 -->
<g id="edge7" class="edge">
<title>1&#45;&gt;18</title>
<g id="a_edge7"><a xlink:title="include">
<path fill="none" stroke="#1414ce" d="M309.16,-649.63C233.94,-632.21 164.42,-596.29 164.42,-523 164.42,-523 164.42,-523 164.42,-305 164.42,-202.88 263.01,-221 365.11,-179.87"/>
<polygon fill="#1414ce" stroke="#1414ce" points="366.5,-183.08 374.36,-175.98 363.79,-176.63 366.5,-183.08"/>
</a>
</g>
</g>
<!-- 1&#45;&gt;7 -->
<g id="edge8" class="edge">
<title>1&#45;&gt;7</title>
<g id="a_edge8"><a xlink:title="include">
<path fill="none" stroke="#1414ce" d="M328.87,-647.96C188.71,-628.79 10.42,-591.03 10.42,-523 10.42,-523 10.42,-523 10.42,-233 10.42,-208.25 -52.15,-217.19 133.42,-144 237.88,-102.8 370.78,-93.24 442.64,-91.26"/>
<polygon fill="#1414ce" stroke="#1414ce" points="442.87,-94.76 452.79,-91.02 442.71,-87.76 442.87,-94.76"/>
</a>
</g>
</g>
<!-- 10 -->
<g id="node24" class="node">
<title>10</title>
<g id="a_node24"><a xlink:title="stddef.h">
<polygon fill="#ffffff" stroke="black" points="1424.42,-108 1350.42,-108 1350.42,-72 1424.42,-72 1424.42,-108"/>
<text text-anchor="middle" x="1387.42" y="-86.3" font-family="Times,serif" font-size="14.00">stddef.h</text>
</a>
</g>
</g>
<!-- 1&#45;&gt;10 -->
<g id="edge9" class="edge">
<title>1&#45;&gt;10</title>
<g id="a_edge9"><a xlink:title="include">
<path fill="none" stroke="#1414ce" d="M679.5,-656.71C964.54,-641.44 1478.42,-602.83 1478.42,-523 1478.42,-523 1478.42,-523 1478.42,-377 1478.42,-283.78 1432.21,-269.58 1406.42,-180 1400.55,-159.63 1395.61,-136.17 1392.24,-118.45"/>
<polygon fill="#1414ce" stroke="#1414ce" points="1395.62,-117.43 1390.35,-108.24 1388.73,-118.71 1395.62,-117.43"/>
</a>
</g>
</g>
<!-- 1&#45;&gt;3 -->
<g id="edge10" class="edge">
<title>1&#45;&gt;3</title>
<g id="a_edge10"><a xlink:title="include">
<path fill="none" stroke="#1414ce" d="M679.61,-660.39C1000.85,-649.9 1627.42,-617.35 1627.42,-523 1627.42,-523 1627.42,-523 1627.42,-161 1627.42,-35.97 1428.42,-19.21 1335.8,-18.18"/>
<polygon fill="#1414ce" stroke="#1414ce" points="1335.61,-14.68 1325.59,-18.12 1335.57,-21.68 1335.61,-14.68"/>
</a>
</g>
</g>
<!-- 12 -->
<g id="node4" class="node">
<title>12</title>
<g id="a_node4"><a xlink:title="erl_nif.h">
<polygon fill="#ffffff" stroke="black" points="748.42,-180 674.42,-180 674.42,-144 748.42,-144 748.42,-180"/>
<text text-anchor="middle" x="711.42" y="-158.3" font-family="Times,serif" font-size="14.00">erl_nif.h</text>
</a>
</g>
</g>
<!-- 13 -->
<g id="node16" class="node">
<title>13</title>
<g id="a_node16"><a xlink:title="term_typedef.h">
<polygon fill="#ffffff" stroke="black" points="773.92,-108 648.92,-108 648.92,-72 773.92,-72 773.92,-108"/>
<text text-anchor="middle" x="711.42" y="-86.3" font-family="Times,serif" font-size="14.00">term_typedef.h</text>
</a>
</g>
</g>
<!-- 12&#45;&gt;13 -->
<g id="edge11" class="edge">
<title>12&#45;&gt;13</title>
<g id="a_edge11"><a xlink:title="include">
<path fill="none" stroke="#1414ce" d="M711.42,-143.7C711.42,-135.98 711.42,-126.71 711.42,-118.11"/>
<polygon fill="#1414ce" stroke="#1414ce" points="714.92,-118.1 711.42,-108.1 707.92,-118.1 714.92,-118.1"/>
</a>
</g>
</g>
<!-- 16 -->
<g id="node5" class="node">
<title>16</title>
<g id="a_node5"><a xlink:title="ets.h">
<polygon fill="#ffffff" stroke="black" points="384.42,-540 330.42,-540 330.42,-504 384.42,-504 384.42,-540"/>
<text text-anchor="middle" x="357.42" y="-518.3" font-family="Times,serif" font-size="14.00">ets.h</text>
</a>
</g>
</g>
<!-- 17 -->
<g id="node14" class="node">
<title>17</title>
<g id="a_node14"><a xlink:title="synclist.h">
<polygon fill="#ffffff" stroke="black" points="391.92,-252 306.92,-252 306.92,-216 391.92,-216 391.92,-252"/>
<text text-anchor="middle" x="349.42" y="-230.3" font-family="Times,serif" font-size="14.00">synclist.h</text>
</a>
</g>
</g>
<!-- 16&#45;&gt;17 -->
<g id="edge13" class="edge">
<title>16&#45;&gt;17</title>
<g id="a_edge13"><a xlink:title="include">
<path fill="none" stroke="#1414ce" d="M356.94,-503.97C355.61,-456.29 351.83,-321.18 350.19,-262.63"/>
<polygon fill="#1414ce" stroke="#1414ce" points="353.68,-262.2 349.9,-252.31 346.68,-262.4 353.68,-262.2"/>
</a>
</g>
</g>
<!-- 20 -->
<g id="node15" class="node">
<title>20</title>
<g id="a_node15"><a xlink:title="term.h">
<polygon fill="#ffffff" stroke="black" points="920.92,-468 855.92,-468 855.92,-432 920.92,-432 920.92,-468"/>
<text text-anchor="middle" x="888.42" y="-446.3" font-family="Times,serif" font-size="14.00">term.h</text>
</a>
</g>
</g>
<!-- 16&#45;&gt;20 -->
<g id="edge14" class="edge">
<title>16&#45;&gt;20</title>
<g id="a_edge14"><a xlink:title="include">
<path fill="none" stroke="#1414ce" d="M384.48,-517.43C470.89,-506.04 740.68,-470.48 845.84,-456.61"/>
<polygon fill="#1414ce" stroke="#1414ce" points="846.33,-460.08 855.79,-455.3 845.42,-453.14 846.33,-460.08"/>
</a>
</g>
</g>
<!-- 16&#45;&gt;7 -->
<g id="edge12" class="edge">
<title>16&#45;&gt;7</title>
<g id="a_edge12"><a xlink:title="include">
<path fill="none" stroke="#1414ce" d="M345.48,-503.66C306.55,-444.8 191.12,-250.34 287.42,-144 308,-121.27 388.35,-105.79 442.67,-97.68"/>
<polygon fill="#1414ce" stroke="#1414ce" points="443.43,-101.11 452.82,-96.2 442.43,-94.18 443.43,-101.11"/>
</a>
</g>
</g>
<!-- 2&#45;&gt;4 -->
<g id="edge16" class="edge">
<title>2&#45;&gt;4</title>
<g id="a_edge16"><a xlink:title="include">
<path fill="none" stroke="#1414ce" d="M558.04,-589.33C758.6,-576.94 1364.42,-532.73 1364.42,-451 1364.42,-451 1364.42,-451 1364.42,-305 1364.42,-263.63 1349.18,-217.72 1338,-189.61"/>
<polygon fill="#1414ce" stroke="#1414ce" points="1341.14,-188.02 1334.11,-180.09 1334.66,-190.67 1341.14,-188.02"/>
</a>
</g>
</g>
<!-- 2&#45;&gt;6 -->
<g id="edge17" class="edge">
<title>2&#45;&gt;6</title>
<g id="a_edge17"><a xlink:title="include">
<path fill="none" stroke="#1414ce" d="M558.22,-587.37C673.06,-574.03 916.19,-530.73 1062.42,-396 1105.3,-356.48 1138.56,-295.9 1155.36,-261.42"/>
<polygon fill="#1414ce" stroke="#1414ce" points="1158.7,-262.55 1159.84,-252.02 1152.38,-259.53 1158.7,-262.55"/>
</a>
</g>
</g>
<!-- 2&#45;&gt;12 -->
<g id="edge18" class="edge">
<title>2&#45;&gt;12</title>
<g id="a_edge18"><a xlink:title="include">
<path fill="none" stroke="#1414ce" d="M502.11,-575.91C513.21,-549.62 532.42,-497.45 532.42,-451 532.42,-451 532.42,-451 532.42,-377 532.42,-303.29 594.39,-308.76 641.42,-252 658.87,-230.92 678.05,-206.45 691.9,-188.51"/>
<polygon fill="#1414ce" stroke="#1414ce" points="694.92,-190.33 698.25,-180.27 689.38,-186.05 694.92,-190.33"/>
</a>
</g>
</g>
<!-- 2&#45;&gt;16 -->
<g id="edge19" class="edge">
<title>2&#45;&gt;16</title>
<g id="a_edge19"><a xlink:title="include">
<path fill="none" stroke="#1414ce" d="M460.9,-575.88C440.57,-565.49 414.61,-552.22 393.78,-541.58"/>
<polygon fill="#1414ce" stroke="#1414ce" points="395.11,-538.33 384.61,-536.9 391.92,-544.56 395.11,-538.33"/>
</a>
</g>
</g>
<!-- 2&#45;&gt;18 -->
<g id="edge20" class="edge">
<title>2&#45;&gt;18</title>
<g id="a_edge20"><a xlink:title="include">
<path fill="none" stroke="#1414ce" d="M430.8,-586.13C395.18,-579.43 351.93,-566.18 321.42,-540 288.07,-511.4 278.42,-494.93 278.42,-451 278.42,-451 278.42,-451 278.42,-305 278.42,-264.55 272.78,-248.08 297.42,-216 299.76,-212.95 336.01,-194.82 365.06,-180.61"/>
<polygon fill="#1414ce" stroke="#1414ce" points="366.73,-183.69 374.18,-176.16 363.66,-177.4 366.73,-183.69"/>
</a>
</g>
</g>
<!-- 27 -->
<g id="node9" class="node">
<title>27</title>
<g id="a_node9"><a xlink:title="mailbox.h">
<polygon fill="#ffffff" stroke="black" points="610.42,-252 524.42,-252 524.42,-216 610.42,-216 610.42,-252"/>
<text text-anchor="middle" x="567.42" y="-230.3" font-family="Times,serif" font-size="14.00">mailbox.h</text>
</a>
</g>
</g>
<!-- 2&#45;&gt;27 -->
<g id="edge21" class="edge">
<title>2&#45;&gt;27</title>
<g id="a_edge21"><a xlink:title="include">
<path fill="none" stroke="#1414ce" d="M486.73,-575.91C475.62,-549.62 456.42,-497.45 456.42,-451 456.42,-451 456.42,-451 456.42,-377 456.42,-336.03 455.83,-320.77 480.42,-288 489.9,-275.35 503.38,-265.07 516.9,-257.05"/>
<polygon fill="#1414ce" stroke="#1414ce" points="518.72,-260.04 525.74,-252.1 515.31,-253.93 518.72,-260.04"/>
</a>
</g>
</g>
<!-- 19 -->
<g id="node13" class="node">
<title>19</title>
<g id="a_node13"><a xlink:title="smp.h">
<polygon fill="#ffffff" stroke="black" points="356.42,-180 296.42,-180 296.42,-144 356.42,-144 356.42,-180"/>
<text text-anchor="middle" x="326.42" y="-158.3" font-family="Times,serif" font-size="14.00">smp.h</text>
</a>
</g>
</g>
<!-- 2&#45;&gt;19 -->
<g id="edge22" class="edge">
<title>2&#45;&gt;19</title>
<g id="a_edge22"><a xlink:title="include">
<path fill="none" stroke="#1414ce" d="M430.81,-584.67C376.72,-576.24 304.82,-561.38 285.42,-540 188.6,-433.33 212.37,-345.04 276.42,-216 281.63,-205.5 289.61,-195.66 297.68,-187.38"/>
<polygon fill="#1414ce" stroke="#1414ce" points="300.31,-189.71 305.04,-180.23 295.43,-184.69 300.31,-189.71"/>
</a>
</g>
</g>
<!-- 2&#45;&gt;17 -->
<g id="edge23" class="edge">
<title>2&#45;&gt;17</title>
<g id="a_edge23"><a xlink:title="include">
<path fill="none" stroke="#1414ce" d="M477.06,-575.93C453.53,-550.89 414.42,-501.65 414.42,-451 414.42,-451 414.42,-451 414.42,-377 414.42,-332.96 388.25,-287.64 369.12,-260.4"/>
<polygon fill="#1414ce" stroke="#1414ce" points="371.9,-258.26 363.2,-252.21 366.22,-262.36 371.9,-258.26"/>
</a>
</g>
</g>
<!-- 2&#45;&gt;20 -->
<g id="edge24" class="edge">
<title>2&#45;&gt;20</title>
<g id="a_edge24"><a xlink:title="include">
<path fill="none" stroke="#1414ce" d="M541.94,-575.87C619.61,-547.88 772.46,-492.79 846.4,-466.14"/>
<polygon fill="#1414ce" stroke="#1414ce" points="847.64,-469.41 855.86,-462.73 845.27,-462.83 847.64,-469.41"/>
</a>
</g>
</g>
<!-- 28 -->
<g id="node17" class="node">
<title>28</title>
<g id="a_node17"><a xlink:title="timer_list.h">
<polygon fill="#ffffff" stroke="black" points="136.42,-252 38.42,-252 38.42,-216 136.42,-216 136.42,-252"/>
<text text-anchor="middle" x="87.42" y="-230.3" font-family="Times,serif" font-size="14.00">timer_list.h</text>
</a>
</g>
</g>
<!-- 2&#45;&gt;28 -->
<g id="edge25" class="edge">
<title>2&#45;&gt;28</title>
<g id="a_edge25"><a xlink:title="include">
<path fill="none" stroke="#1414ce" d="M430.69,-586.83C353.63,-578.53 229.19,-562.22 188.42,-540 141.19,-514.27 106.42,-504.79 106.42,-451 106.42,-451 106.42,-451 106.42,-377 106.42,-336.86 98.86,-290.9 93.28,-262.4"/>
<polygon fill="#1414ce" stroke="#1414ce" points="96.67,-261.5 91.26,-252.39 89.81,-262.88 96.67,-261.5"/>
</a>
</g>
</g>
<!-- 29 -->
<g id="node19" class="node">
<title>29</title>
<g id="a_node19"><a xlink:title="valueshashtable.h">
<polygon fill="#ffffff" stroke="black" points="1561.42,-180 1415.42,-180 1415.42,-144 1561.42,-144 1561.42,-180"/>
<text text-anchor="middle" x="1488.42" y="-158.3" font-family="Times,serif" font-size="14.00">valueshashtable.h</text>
</a>
</g>
</g>
<!-- 2&#45;&gt;29 -->
<g id="edge26" class="edge">
<title>2&#45;&gt;29</title>
<g id="a_edge26"><a xlink:title="include">
<path fill="none" stroke="#1414ce" d="M558.03,-590.41C705.27,-584.03 1066.01,-566.19 1184.42,-540 1286.6,-517.4 1402.42,-555.65 1402.42,-451 1402.42,-451 1402.42,-451 1402.42,-305 1402.42,-258.31 1436.86,-213.84 1462.15,-187.49"/>
<polygon fill="#1414ce" stroke="#1414ce" points="1464.79,-189.8 1469.33,-180.23 1459.81,-184.88 1464.79,-189.8"/>
</a>
</g>
</g>
<!-- 2&#45;&gt;3 -->
<g id="edge15" class="edge">
<title>2&#45;&gt;3</title>
<g id="a_edge15"><a xlink:title="include">
<path fill="none" stroke="#1414ce" d="M558.13,-592.71C723.09,-591.34 1160.9,-583.57 1298.42,-540 1369.42,-517.5 1440.42,-525.48 1440.42,-451 1440.42,-451 1440.42,-451 1440.42,-377 1440.42,-258.42 1626.37,-248.55 1570.42,-144 1524.8,-58.76 1403.14,-31.57 1335.83,-22.95"/>
<polygon fill="#1414ce" stroke="#1414ce" points="1335.85,-19.43 1325.51,-21.72 1335.02,-26.38 1335.85,-19.43"/>
</a>
</g>
</g>
<!-- 23 -->
<g id="node7" class="node">
<title>23</title>
<g id="a_node7"><a xlink:title="intn.h">
<polygon fill="#ffffff" stroke="black" points="734.92,-396 675.92,-396 675.92,-360 734.92,-360 734.92,-396"/>
<text text-anchor="middle" x="705.42" y="-374.3" font-family="Times,serif" font-size="14.00">intn.h</text>
</a>
</g>
</g>
<!-- 23&#45;&gt;8 -->
<g id="edge29" class="edge">
<title>23&#45;&gt;8</title>
<g id="a_edge29"><a xlink:title="include">
<path fill="none" stroke="#1414ce" d="M675.61,-360.7C655.93,-349.24 632.82,-334.2 627.42,-324 619.93,-309.86 619.05,-301.64 627.42,-288 633.34,-278.35 764.74,-214.75 833.02,-182.17"/>
<polygon fill="#1414ce" stroke="#1414ce" points="834.69,-185.25 842.21,-177.79 831.68,-178.93 834.69,-185.25"/>
</a>
</g>
</g>
<!-- 23&#45;&gt;7 -->
<g id="edge27" class="edge">
<title>23&#45;&gt;7</title>
<g id="a_edge27"><a xlink:title="include">
<path fill="none" stroke="#1414ce" d="M675.62,-361.53C627.12,-335.71 534.56,-283.57 515.42,-252 490.35,-210.68 489.44,-152.49 491.57,-118.57"/>
<polygon fill="#1414ce" stroke="#1414ce" points="495.07,-118.69 492.34,-108.45 488.09,-118.16 495.07,-118.69"/>
</a>
</g>
</g>
<!-- 22 -->
<g id="node28" class="node">
<title>22</title>
<g id="a_node28"><a xlink:title="string.h">
<polygon fill="#ffffff" stroke="black" points="709.92,-324 636.92,-324 636.92,-288 709.92,-288 709.92,-324"/>
<text text-anchor="middle" x="673.42" y="-302.3" font-family="Times,serif" font-size="14.00">string.h</text>
</a>
</g>
</g>
<!-- 23&#45;&gt;22 -->
<g id="edge28" class="edge">
<title>23&#45;&gt;22</title>
<g id="a_edge28"><a xlink:title="include">
<path fill="none" stroke="#1414ce" d="M697.51,-359.7C693.86,-351.73 689.46,-342.1 685.42,-333.26"/>
<polygon fill="#1414ce" stroke="#1414ce" points="688.58,-331.74 681.23,-324.1 682.21,-334.65 688.58,-331.74"/>
</a>
</g>
</g>
<!-- 18&#45;&gt;7 -->
<g id="edge30" class="edge">
<title>18&#45;&gt;7</title>
<g id="a_edge30"><a xlink:title="include">
<path fill="none" stroke="#1414ce" d="M424.4,-143.7C436.23,-134.8 450.81,-123.82 463.59,-114.2"/>
<polygon fill="#1414ce" stroke="#1414ce" points="465.81,-116.91 471.69,-108.1 461.6,-111.32 465.81,-116.91"/>
</a>
</g>
</g>
<!-- 27&#45;&gt;18 -->
<g id="edge32" class="edge">
<title>27&#45;&gt;18</title>
<g id="a_edge32"><a xlink:title="include">
<path fill="none" stroke="#1414ce" d="M526.81,-215.88C499.62,-204.41 464.14,-189.45 437.87,-178.37"/>
<polygon fill="#1414ce" stroke="#1414ce" points="439.21,-175.14 428.63,-174.48 436.49,-181.59 439.21,-175.14"/>
</a>
</g>
</g>
<!-- 27&#45;&gt;13 -->
<g id="edge33" class="edge">
<title>27&#45;&gt;13</title>
<g id="a_edge33"><a xlink:title="include">
<path fill="none" stroke="#1414ce" d="M577.38,-215.89C588.98,-196.9 609.51,-166.01 632.42,-144 644.24,-132.64 658.77,-122.12 672.13,-113.5"/>
<polygon fill="#1414ce" stroke="#1414ce" points="674.09,-116.4 680.7,-108.12 670.37,-110.47 674.09,-116.4"/>
</a>
</g>
</g>
<!-- 27&#45;&gt;8 -->
<g id="edge34" class="edge">
<title>27&#45;&gt;8</title>
<g id="a_edge34"><a xlink:title="include">
<path fill="none" stroke="#1414ce" d="M610.61,-223.12C669.51,-209.64 774.3,-185.67 832.17,-172.43"/>
<polygon fill="#1414ce" stroke="#1414ce" points="833.1,-175.81 842.07,-170.17 831.54,-168.99 833.1,-175.81"/>
</a>
</g>
</g>
<!-- 27&#45;&gt;7 -->
<g id="edge31" class="edge">
<title>27&#45;&gt;7</title>
<g id="a_edge31"><a xlink:title="include">
<path fill="none" stroke="#1414ce" d="M558.61,-215.87C546,-191.35 522.71,-146.03 507.91,-117.26"/>
<polygon fill="#1414ce" stroke="#1414ce" points="510.94,-115.48 503.25,-108.19 504.71,-118.68 510.94,-115.48"/>
</a>
</g>
</g>
<!-- 24 -->
<g id="node10" class="node">
<title>24</title>
<g id="a_node10"><a xlink:title="memory.h">
<polygon fill="#ffffff" stroke="black" points="942.42,-252 856.42,-252 856.42,-216 942.42,-216 942.42,-252"/>
<text text-anchor="middle" x="899.42" y="-230.3" font-family="Times,serif" font-size="14.00">memory.h</text>
</a>
</g>
</g>
<!-- 24&#45;&gt;12 -->
<g id="edge37" class="edge">
<title>24&#45;&gt;12</title>
<g id="a_edge37"><a xlink:title="include">
<path fill="none" stroke="#1414ce" d="M856.28,-216.94C826.94,-206.01 788.13,-191.56 758.06,-180.37"/>
<polygon fill="#1414ce" stroke="#1414ce" points="759.22,-177.07 748.63,-176.86 756.78,-183.63 759.22,-177.07"/>
</a>
</g>
</g>
<!-- 24&#45;&gt;13 -->
<g id="edge38" class="edge">
<title>24&#45;&gt;13</title>
<g id="a_edge38"><a xlink:title="include">
<path fill="none" stroke="#1414ce" d="M877.92,-215.92C864.98,-205.59 848.19,-192.11 833.42,-180 814.14,-164.2 810.35,-158.96 790.42,-144 776.66,-133.67 761.01,-122.97 747.3,-113.91"/>
<polygon fill="#1414ce" stroke="#1414ce" points="748.88,-110.77 738.6,-108.22 745.05,-116.62 748.88,-110.77"/>
</a>
</g>
</g>
<!-- 24&#45;&gt;8 -->
<g id="edge39" class="edge">
<title>24&#45;&gt;8</title>
<g id="a_edge39"><a xlink:title="include">
<path fill="none" stroke="#1414ce" d="M892.99,-215.7C890.06,-207.81 886.53,-198.3 883.28,-189.55"/>
<polygon fill="#1414ce" stroke="#1414ce" points="886.53,-188.26 879.77,-180.1 879.97,-190.7 886.53,-188.26"/>
</a>
</g>
</g>
<!-- 24&#45;&gt;3 -->
<g id="edge35" class="edge">
<title>24&#45;&gt;3</title>
<g id="a_edge35"><a xlink:title="include">
<path fill="none" stroke="#1414ce" d="M908.64,-215.76C927.87,-181.73 975.81,-106.23 1039.42,-72 1104.61,-36.91 1191.04,-25.05 1243.32,-21.04"/>
<polygon fill="#1414ce" stroke="#1414ce" points="1243.57,-24.53 1253.3,-20.34 1243.08,-17.55 1243.57,-24.53"/>
</a>
</g>
</g>
<!-- 24&#45;&gt;5 -->
<g id="edge36" class="edge">
<title>24&#45;&gt;5</title>
<g id="a_edge36"><a xlink:title="include">
<path fill="none" stroke="#1414ce" d="M921.73,-215.87C954.79,-190.5 1016.86,-142.85 1054.04,-114.32"/>
<polygon fill="#1414ce" stroke="#1414ce" points="1056.22,-117.05 1062.02,-108.19 1051.96,-111.5 1056.22,-117.05"/>
</a>
</g>
</g>
<!-- 25 -->
<g id="node11" class="node">
<title>25</title>
<g id="a_node11"><a xlink:title="refc_binary.h">
<polygon fill="#ffffff" stroke="black" points="942.42,-396 834.42,-396 834.42,-360 942.42,-360 942.42,-396"/>
<text text-anchor="middle" x="888.42" y="-374.3" font-family="Times,serif" font-size="14.00">refc_binary.h</text>
</a>
</g>
</g>
<!-- 25&#45;&gt;18 -->
<g id="edge42" class="edge">
<title>25&#45;&gt;18</title>
<g id="a_edge42"><a xlink:title="include">
<path fill="none" stroke="#1414ce" d="M834.34,-360.11C809.85,-351.23 781.14,-339.04 757.42,-324 737.49,-311.37 739.75,-298.06 718.42,-288 611.71,-237.67 554.05,-316.73 455.42,-252 433.21,-237.43 418.7,-210.26 410.38,-189.76"/>
<polygon fill="#1414ce" stroke="#1414ce" points="413.61,-188.41 406.78,-180.31 407.07,-190.9 413.61,-188.41"/>
</a>
</g>
</g>
<!-- 26 -->
<g id="node12" class="node">
<title>26</title>
<g id="a_node12"><a xlink:title="resources.h">
<polygon fill="#ffffff" stroke="black" points="866.42,-324 766.42,-324 766.42,-288 866.42,-288 866.42,-324"/>
<text text-anchor="middle" x="816.42" y="-302.3" font-family="Times,serif" font-size="14.00">resources.h</text>
</a>
</g>
</g>
<!-- 25&#45;&gt;26 -->
<g id="edge43" class="edge">
<title>25&#45;&gt;26</title>
<g id="a_edge43"><a xlink:title="include">
<path fill="none" stroke="#1414ce" d="M870.62,-359.7C861.81,-351.14 851.03,-340.66 841.41,-331.3"/>
<polygon fill="#1414ce" stroke="#1414ce" points="843.62,-328.57 834.01,-324.1 838.74,-333.58 843.62,-328.57"/>
</a>
</g>
</g>
<!-- 25&#45;&gt;7 -->
<g id="edge40" class="edge">
<title>25&#45;&gt;7</title>
<g id="a_edge40"><a xlink:title="include">
<path fill="none" stroke="#1414ce" d="M890.29,-359.9C891.49,-340.63 890.58,-309.22 875.42,-288 867.79,-277.33 677.07,-186.03 665.42,-180 621.21,-157.13 570.66,-130.8 536.05,-112.74"/>
<polygon fill="#1414ce" stroke="#1414ce" points="537.66,-109.63 527.17,-108.11 534.42,-115.84 537.66,-109.63"/>
</a>
</g>
</g>
<!-- 25&#45;&gt;5 -->
<g id="edge41" class="edge">
<title>25&#45;&gt;5</title>
<g id="a_edge41"><a xlink:title="include">
<path fill="none" stroke="#1414ce" d="M906.34,-359.87C939.32,-327.51 1010.09,-253.97 1052.42,-180 1063.65,-160.37 1072.06,-136.1 1077.43,-117.87"/>
<polygon fill="#1414ce" stroke="#1414ce" points="1080.82,-118.74 1080.17,-108.17 1074.08,-116.84 1080.82,-118.74"/>
</a>
</g>
</g>
<!-- 26&#45;&gt;12 -->
<g id="edge45" class="edge">
<title>26&#45;&gt;12</title>
<g id="a_edge45"><a xlink:title="include">
<path fill="none" stroke="#1414ce" d="M803.75,-287.87C785.46,-263.14 751.52,-217.24 730.28,-188.51"/>
<polygon fill="#1414ce" stroke="#1414ce" points="732.89,-186.15 724.13,-180.19 727.26,-190.31 732.89,-186.15"/>
</a>
</g>
</g>
<!-- 26&#45;&gt;18 -->
<g id="edge46" class="edge">
<title>26&#45;&gt;18</title>
<g id="a_edge46"><a xlink:title="include">
<path fill="none" stroke="#1414ce" d="M766.23,-291.12C761.58,-290 756.92,-288.94 752.42,-288 648.11,-266.29 613.26,-294.16 515.42,-252 480.3,-236.87 446.62,-208.24 425.09,-187.53"/>
<polygon fill="#1414ce" stroke="#1414ce" points="427.32,-184.81 417.73,-180.3 422.41,-189.81 427.32,-184.81"/>
</a>
</g>
</g>
<!-- 26&#45;&gt;27 -->
<g id="edge47" class="edge">
<title>26&#45;&gt;27</title>
<g id="a_edge47"><a xlink:title="include">
<path fill="none" stroke="#1414ce" d="M766.33,-290.92C724.03,-279.03 663.65,-262.05 620.52,-249.93"/>
<polygon fill="#1414ce" stroke="#1414ce" points="621.35,-246.53 610.77,-247.19 619.45,-253.26 621.35,-246.53"/>
</a>
</g>
</g>
<!-- 26&#45;&gt;24 -->
<g id="edge48" class="edge">
<title>26&#45;&gt;24</title>
<g id="a_edge48"><a xlink:title="include">
<path fill="none" stroke="#1414ce" d="M836.93,-287.7C847.28,-278.97 860,-268.24 871.25,-258.75"/>
<polygon fill="#1414ce" stroke="#1414ce" points="873.75,-261.23 879.13,-252.1 869.23,-255.88 873.75,-261.23"/>
</a>
</g>
</g>
<!-- 26&#45;&gt;17 -->
<g id="edge49" class="edge">
<title>26&#45;&gt;17</title>
<g id="a_edge49"><a xlink:title="include">
<path fill="none" stroke="#1414ce" d="M766.37,-295.91C751.01,-293.23 734.04,-290.38 718.42,-288 596.99,-269.5 565.79,-270.82 444.42,-252 430.83,-249.89 416.18,-247.39 402.56,-244.96"/>
<polygon fill="#1414ce" stroke="#1414ce" points="402.84,-241.45 392.38,-243.12 401.6,-248.34 402.84,-241.45"/>
</a>
</g>
</g>
<!-- 26&#45;&gt;5 -->
<g id="edge44" class="edge">
<title>26&#45;&gt;5</title>
<g id="a_edge44"><a xlink:title="include">
<path fill="none" stroke="#1414ce" d="M866.59,-291.98C893.41,-283.44 926.03,-270.4 951.42,-252 1003.15,-214.5 1046.69,-152.32 1068.8,-117.22"/>
<polygon fill="#1414ce" stroke="#1414ce" points="1071.91,-118.84 1074.2,-108.5 1065.96,-115.15 1071.91,-118.84"/>
</a>
</g>
</g>
<!-- 19&#45;&gt;7 -->
<g id="edge50" class="edge">
<title>19&#45;&gt;7</title>
<g id="a_edge50"><a xlink:title="include">
<path fill="none" stroke="#1414ce" d="M356.62,-147.76C359.59,-146.48 362.56,-145.21 365.42,-144 390.99,-133.17 419.54,-121.41 443.27,-111.72"/>
<polygon fill="#1414ce" stroke="#1414ce" points="444.85,-114.86 452.78,-107.84 442.2,-108.38 444.85,-114.86"/>
</a>
</g>
</g>
<!-- 17&#45;&gt;18 -->
<g id="edge52" class="edge">
<title>17&#45;&gt;18</title>
<g id="a_edge52"><a xlink:title="include">
<path fill="none" stroke="#1414ce" d="M362.27,-215.7C368.44,-207.39 375.95,-197.28 382.74,-188.14"/>
<polygon fill="#1414ce" stroke="#1414ce" points="385.56,-190.22 388.71,-180.1 379.94,-186.04 385.56,-190.22"/>
</a>
</g>
</g>
<!-- 17&#45;&gt;19 -->
<g id="edge53" class="edge">
<title>17&#45;&gt;19</title>
<g id="a_edge53"><a xlink:title="include">
<path fill="none" stroke="#1414ce" d="M343.73,-215.7C341.17,-207.9 338.08,-198.51 335.23,-189.83"/>
<polygon fill="#1414ce" stroke="#1414ce" points="338.48,-188.51 332.04,-180.1 331.83,-190.7 338.48,-188.51"/>
</a>
</g>
</g>
<!-- 11 -->
<g id="node26" class="node">
<title>11</title>
<g id="a_node26"><a xlink:title="stdio.h">
<polygon fill="#ffffff" stroke="black" points="856.92,-108 791.92,-108 791.92,-72 856.92,-72 856.92,-108"/>
<text text-anchor="middle" x="824.42" y="-86.3" font-family="Times,serif" font-size="14.00">stdio.h</text>
</a>
</g>
</g>
<!-- 17&#45;&gt;11 -->
<g id="edge51" class="edge">
<title>17&#45;&gt;11</title>
<g id="a_edge51"><a xlink:title="include">
<path fill="none" stroke="#1414ce" d="M392.21,-220.92C488.22,-193.78 716.9,-128.91 781.69,-107.97"/>
<polygon fill="#1414ce" stroke="#1414ce" points="783.14,-111.17 791.52,-104.69 780.93,-104.53 783.14,-111.17"/>
</a>
</g>
</g>
<!-- 20&#45;&gt;4 -->
<g id="edge60" class="edge">
<title>20&#45;&gt;4</title>
<g id="a_edge60"><a xlink:title="include">
<path fill="none" stroke="#1414ce" d="M920.95,-448.14C1001.78,-445.44 1209.2,-434.81 1264.42,-396 1330.3,-349.7 1332.18,-241.4 1329.04,-190.44"/>
<polygon fill="#1414ce" stroke="#1414ce" points="1332.51,-189.91 1328.29,-180.19 1325.53,-190.42 1332.51,-189.91"/>
</a>
</g>
</g>
<!-- 20&#45;&gt;23 -->
<g id="edge61" class="edge">
<title>20&#45;&gt;23</title>
<g id="a_edge61"><a xlink:title="include">
<path fill="none" stroke="#1414ce" d="M855.7,-436.49C824.54,-424.57 777.61,-406.62 744.5,-393.95"/>
<polygon fill="#1414ce" stroke="#1414ce" points="745.71,-390.67 735.12,-390.36 743.21,-397.21 745.71,-390.67"/>
</a>
</g>
</g>
<!-- 20&#45;&gt;24 -->
<g id="edge62" class="edge">
<title>20&#45;&gt;24</title>
<g id="a_edge62"><a xlink:title="include">
<path fill="none" stroke="#1414ce" d="M921.34,-440.35C943.43,-432.65 970.87,-418.95 984.42,-396 1008.81,-354.66 1007.71,-329.97 984.42,-288 977.01,-274.66 964.7,-264.23 951.71,-256.3"/>
<polygon fill="#1414ce" stroke="#1414ce" points="953.09,-253.06 942.66,-251.19 949.65,-259.15 953.09,-253.06"/>
</a>
</g>
</g>
<!-- 20&#45;&gt;25 -->
<g id="edge63" class="edge">
<title>20&#45;&gt;25</title>
<g id="a_edge63"><a xlink:title="include">
<path fill="none" stroke="#1414ce" d="M888.42,-431.7C888.42,-423.98 888.42,-414.71 888.42,-406.11"/>
<polygon fill="#1414ce" stroke="#1414ce" points="891.92,-406.1 888.42,-396.1 884.92,-406.1 891.92,-406.1"/>
</a>
</g>
</g>
<!-- 20&#45;&gt;26 -->
<g id="edge64" class="edge">
<title>20&#45;&gt;26</title>
<g id="a_edge64"><a xlink:title="include">
<path fill="none" stroke="#1414ce" d="M859.45,-431.94C846.82,-422.92 833.16,-410.66 825.42,-396 815.41,-377.06 813.57,-352.69 814.01,-334.25"/>
<polygon fill="#1414ce" stroke="#1414ce" points="817.51,-334.31 814.48,-324.15 810.52,-333.98 817.51,-334.31"/>
</a>
</g>
</g>
<!-- 20&#45;&gt;13 -->
<g id="edge66" class="edge">
<title>20&#45;&gt;13</title>
<g id="a_edge66"><a xlink:title="include">
<path fill="none" stroke="#1414ce" d="M855.8,-449C779.03,-448.23 590.43,-441.63 551.42,-396 541.02,-383.84 546.98,-375.37 551.42,-360 567.14,-305.5 593.11,-302.25 619.42,-252 643.61,-205.78 637.76,-188.24 665.42,-144 671.65,-134.03 679.71,-124.05 687.35,-115.48"/>
<polygon fill="#1414ce" stroke="#1414ce" points="689.99,-117.78 694.17,-108.05 684.83,-113.05 689.99,-117.78"/>
</a>
</g>
</g>
<!-- 20&#45;&gt;8 -->
<g id="edge65" class="edge">
<title>20&#45;&gt;8</title>
<g id="a_edge65"><a xlink:title="include">
<path fill="none" stroke="#1414ce" d="M921.01,-444.23C948.99,-438.23 987.69,-424.94 1006.42,-396 1032.49,-355.7 1021.8,-333.47 1006.42,-288 990.9,-242.12 946.5,-206.47 913.24,-185.18"/>
<polygon fill="#1414ce" stroke="#1414ce" points="914.96,-182.13 904.62,-179.83 911.26,-188.08 914.96,-182.13"/>
</a>
</g>
</g>
<!-- 20&#45;&gt;7 -->
<g id="edge55" class="edge">
<title>20&#45;&gt;7</title>
<g id="a_edge55"><a xlink:title="include">
<path fill="none" stroke="#1414ce" d="M918.72,-431.8C931.29,-422.9 944.54,-410.77 951.42,-396 958.17,-381.49 956.54,-375.16 951.42,-360 938.51,-321.85 925.15,-316.21 896.42,-288 877.13,-269.07 867.1,-270.52 847.42,-252 836.04,-241.3 770.83,-152 757.42,-144 722.43,-123.15 612.49,-106.05 546.35,-97.31"/>
<polygon fill="#1414ce" stroke="#1414ce" points="546.5,-93.8 536.13,-95.98 545.59,-100.74 546.5,-93.8"/>
</a>
</g>
</g>
<!-- 20&#45;&gt;3 -->
<g id="edge56" class="edge">
<title>20&#45;&gt;3</title>
<g id="a_edge56"><a xlink:title="include">
<path fill="none" stroke="#1414ce" d="M921.09,-445.57C966.14,-439.91 1049.07,-426.09 1113.42,-396 1161.73,-373.41 1174.79,-364.57 1209.42,-324 1279.69,-241.65 1289.13,-104.53 1289.79,-46.39"/>
<polygon fill="#1414ce" stroke="#1414ce" points="1293.29,-46.18 1289.82,-36.17 1286.29,-46.16 1293.29,-46.18"/>
</a>
</g>
</g>
<!-- 20&#45;&gt;11 -->
<g id="edge57" class="edge">
<title>20&#45;&gt;11</title>
<g id="a_edge57"><a xlink:title="include">
<path fill="none" stroke="#1414ce" d="M921.15,-442.87C951.62,-435.82 996.93,-421.75 1028.42,-396 1064.59,-366.41 1084.42,-353.73 1084.42,-307 1084.42,-307 1084.42,-307 1084.42,-233 1084.42,-135.32 941.33,-104.42 867.45,-94.98"/>
<polygon fill="#1414ce" stroke="#1414ce" points="867.43,-91.45 857.08,-93.73 866.59,-98.4 867.43,-91.45"/>
</a>
</g>
</g>
<!-- 20&#45;&gt;5 -->
<g id="edge58" class="edge">
<title>20&#45;&gt;5</title>
<g id="a_edge58"><a xlink:title="include">
<path fill="none" stroke="#1414ce" d="M921.02,-442.95C994.85,-427.21 1172.87,-377.13 1230.42,-252 1257.63,-192.82 1181.75,-140.24 1129.44,-112.27"/>
<polygon fill="#1414ce" stroke="#1414ce" points="1130.78,-109.03 1120.3,-107.51 1127.55,-115.23 1130.78,-109.03"/>
</a>
</g>
</g>
<!-- 20&#45;&gt;22 -->
<g id="edge59" class="edge">
<title>20&#45;&gt;22</title>
<g id="a_edge59"><a xlink:title="include">
<path fill="none" stroke="#1414ce" d="M862.48,-431.87C823.82,-406.34 751.02,-358.25 707.91,-329.78"/>
<polygon fill="#1414ce" stroke="#1414ce" points="709.71,-326.78 699.44,-324.19 705.86,-332.62 709.71,-326.78"/>
</a>
</g>
</g>
<!-- 21 -->
<g id="node29" class="node">
<title>21</title>
<g id="a_node29"><a xlink:title="sys/types.h">
<polygon fill="#ffffff" stroke="black" points="657.92,-396 560.92,-396 560.92,-360 657.92,-360 657.92,-396"/>
<text text-anchor="middle" x="609.42" y="-374.3" font-family="Times,serif" font-size="14.00">sys/types.h</text>
</a>
</g>
</g>
<!-- 20&#45;&gt;21 -->
<g id="edge54" class="edge">
<title>20&#45;&gt;21</title>
<g id="a_edge54"><a xlink:title="include">
<path fill="none" stroke="#1414ce" d="M855.55,-441.75C813.95,-432.45 739.91,-415.46 667.87,-396.33"/>
<polygon fill="#1414ce" stroke="#1414ce" points="668.75,-392.94 658.18,-393.74 666.94,-399.7 668.75,-392.94"/>
</a>
</g>
</g>
<!-- 14 -->
<g id="node20" class="node">
<title>14</title>
<g id="a_node20"><a xlink:title="assert.h">
<polygon fill="#ffffff" stroke="black" points="676.42,-36 602.42,-36 602.42,0 676.42,0 676.42,-36"/>
<text text-anchor="middle" x="639.42" y="-14.3" font-family="Times,serif" font-size="14.00">assert.h</text>
</a>
</g>
</g>
<!-- 13&#45;&gt;14 -->
<g id="edge67" class="edge">
<title>13&#45;&gt;14</title>
<g id="a_edge67"><a xlink:title="include">
<path fill="none" stroke="#1414ce" d="M693.62,-71.7C684.81,-63.14 674.03,-52.66 664.41,-43.3"/>
<polygon fill="#1414ce" stroke="#1414ce" points="666.62,-40.57 657.01,-36.1 661.74,-45.58 666.62,-40.57"/>
</a>
</g>
</g>
<!-- 9 -->
<g id="node21" class="node">
<title>9</title>
<g id="a_node21"><a xlink:title="inttypes.h">
<polygon fill="#ffffff" stroke="black" points="910.92,-36 821.92,-36 821.92,0 910.92,0 910.92,-36"/>
<text text-anchor="middle" x="866.42" y="-14.3" font-family="Times,serif" font-size="14.00">inttypes.h</text>
</a>
</g>
</g>
<!-- 13&#45;&gt;9 -->
<g id="edge69" class="edge">
<title>13&#45;&gt;9</title>
<g id="a_edge69"><a xlink:title="include">
<path fill="none" stroke="#1414ce" d="M749.33,-71.88C770.43,-62.35 796.87,-50.41 819.29,-40.28"/>
<polygon fill="#1414ce" stroke="#1414ce" points="820.95,-43.37 828.62,-36.07 818.07,-36.99 820.95,-43.37"/>
</a>
</g>
</g>
<!-- 15 -->
<g id="node22" class="node">
<title>15</title>
<g id="a_node22"><a xlink:title="limits.h">
<polygon fill="#ffffff" stroke="black" points="765.92,-36 694.92,-36 694.92,0 765.92,0 765.92,-36"/>
<text text-anchor="middle" x="730.42" y="-14.3" font-family="Times,serif" font-size="14.00">limits.h</text>
</a>
</g>
</g>
<!-- 13&#45;&gt;15 -->
<g id="edge68" class="edge">
<title>13&#45;&gt;15</title>
<g id="a_edge68"><a xlink:title="include">
<path fill="none" stroke="#1414ce" d="M716.11,-71.7C718.23,-63.9 720.78,-54.51 723.13,-45.83"/>
<polygon fill="#1414ce" stroke="#1414ce" points="726.53,-46.67 725.77,-36.1 719.78,-44.84 726.53,-46.67"/>
</a>
</g>
</g>
<!-- 13&#45;&gt;3 -->
<g id="edge70" class="edge">
<title>13&#45;&gt;3</title>
<g id="a_edge70"><a xlink:title="include">
<path fill="none" stroke="#1414ce" d="M774.04,-73.53C776.87,-72.99 779.67,-72.47 782.42,-72 950.86,-43.16 1153.66,-27.67 1243.15,-21.8"/>
<polygon fill="#1414ce" stroke="#1414ce" points="1243.48,-25.29 1253.23,-21.15 1243.03,-18.3 1243.48,-25.29"/>
</a>
</g>
</g>
<!-- 28&#45;&gt;18 -->
<g id="edge73" class="edge">
<title>28&#45;&gt;18</title>
<g id="a_edge73"><a xlink:title="include">
<path fill="none" stroke="#1414ce" d="M136.48,-219.26C141.18,-218.1 145.88,-216.99 150.42,-216 242.03,-196.02 271.09,-208.12 364.65,-179.77"/>
<polygon fill="#1414ce" stroke="#1414ce" points="365.7,-183.1 374.21,-176.8 363.62,-176.42 365.7,-183.1"/>
</a>
</g>
</g>
<!-- 28&#45;&gt;7 -->
<g id="edge71" class="edge">
<title>28&#45;&gt;7</title>
<g id="a_edge71"><a xlink:title="include">
<path fill="none" stroke="#1414ce" d="M101.51,-215.79C119.42,-195.18 152.38,-161.27 188.42,-144 271.43,-104.21 379.83,-93.92 442.83,-91.48"/>
<polygon fill="#1414ce" stroke="#1414ce" points="443.04,-94.98 452.91,-91.14 442.8,-87.98 443.04,-94.98"/>
</a>
</g>
</g>
<!-- 28&#45;&gt;3 -->
<g id="edge72" class="edge">
<title>28&#45;&gt;3</title>
<g id="a_edge72"><a xlink:title="include">
<path fill="none" stroke="#1414ce" d="M91.6,-215.76C97.45,-195.44 110.07,-162.15 133.42,-144 245.07,-57.17 303.46,-92.49 443.42,-72 599.81,-49.1 1089.42,-27.31 1242.91,-20.9"/>
<polygon fill="#1414ce" stroke="#1414ce" points="1243.11,-24.39 1252.95,-20.48 1242.82,-17.4 1243.11,-24.39"/>
</a>
</g>
</g>
<!-- 8&#45;&gt;9 -->
<g id="edge74" class="edge">
<title>8&#45;&gt;9</title>
<g id="a_edge74"><a xlink:title="include">
<path fill="none" stroke="#1414ce" d="M872.57,-143.87C871.38,-119.67 869.19,-75.21 867.77,-46.39"/>
<polygon fill="#1414ce" stroke="#1414ce" points="871.25,-46 867.26,-36.19 864.26,-46.35 871.25,-46"/>
</a>
</g>
</g>
<!-- 8&#45;&gt;7 -->
<g id="edge75" class="edge">
<title>8&#45;&gt;7</title>
<g id="a_edge75"><a xlink:title="include">
<path fill="none" stroke="#1414ce" d="M842.31,-154.44C826.75,-151.2 807.61,-147.3 790.42,-144 705.05,-127.62 605.51,-110.13 546.35,-99.9"/>
<polygon fill="#1414ce" stroke="#1414ce" points="546.59,-96.39 536.14,-98.13 545.4,-103.28 546.59,-96.39"/>
</a>
</g>
</g>
<!-- 8&#45;&gt;10 -->
<g id="edge76" class="edge">
<title>8&#45;&gt;10</title>
<g id="a_edge76"><a xlink:title="include">
<path fill="none" stroke="#1414ce" d="M904.79,-156.73C991.82,-144.87 1236.63,-111.53 1340.2,-97.43"/>
<polygon fill="#1414ce" stroke="#1414ce" points="1340.92,-100.86 1350.36,-96.05 1339.98,-93.93 1340.92,-100.86"/>
</a>
</g>
</g>
<!-- 8&#45;&gt;11 -->
<g id="edge77" class="edge">
<title>8&#45;&gt;11</title>
<g id="a_edge77"><a xlink:title="include">
<path fill="none" stroke="#1414ce" d="M861.3,-143.7C855.55,-135.47 848.55,-125.48 842.21,-116.42"/>
<polygon fill="#1414ce" stroke="#1414ce" points="844.99,-114.29 836.39,-108.1 839.26,-118.3 844.99,-114.29"/>
</a>
</g>
</g>
<!-- 8&#45;&gt;5 -->
<g id="edge78" class="edge">
<title>8&#45;&gt;5</title>
<g id="a_edge78"><a xlink:title="include">
<path fill="none" stroke="#1414ce" d="M904.55,-150.67C940.03,-138.9 998.33,-119.56 1038.91,-106.1"/>
<polygon fill="#1414ce" stroke="#1414ce" points="1040.17,-109.37 1048.56,-102.9 1037.97,-102.72 1040.17,-109.37"/>
</a>
</g>
</g>
<!-- 29&#45;&gt;10 -->
<g id="edge79" class="edge">
<title>29&#45;&gt;10</title>
<g id="a_edge79"><a xlink:title="include">
<path fill="none" stroke="#1414ce" d="M1463.71,-143.88C1450.75,-134.89 1434.69,-123.76 1420.65,-114.03"/>
<polygon fill="#1414ce" stroke="#1414ce" points="1422.43,-111.01 1412.22,-108.19 1418.44,-116.76 1422.43,-111.01"/>
</a>
</g>
</g>
<!-- 29&#45;&gt;3 -->
<g id="edge80" class="edge">
<title>29&#45;&gt;3</title>
<g id="a_edge80"><a xlink:title="include">
<path fill="none" stroke="#1414ce" d="M1481.91,-143.88C1473.54,-123.99 1457.19,-91.42 1433.42,-72 1405.15,-48.91 1365.89,-35.35 1335.5,-27.74"/>
<polygon fill="#1414ce" stroke="#1414ce" points="1336.11,-24.29 1325.57,-25.38 1334.49,-31.1 1336.11,-24.29"/>
</a>
</g>
</g>
</g>
</svg>
