<?xml version="1.0" encoding="UTF-8" standalone="no"?>
<!DOCTYPE svg PUBLIC "-//W3C//DTD SVG 1.1//EN"
 "http://www.w3.org/Graphics/SVG/1.1/DTD/svg11.dtd">
<!-- Generated by graphviz version 2.43.0 (0)
 -->
<!-- Title: %3 Pages: 1 -->
<svg width="1774pt" height="764pt"
 viewBox="0.00 0.00 1773.50 764.00" xmlns="http://www.w3.org/2000/svg" xmlns:xlink="http://www.w3.org/1999/xlink">
<g id="graph0" class="graph" transform="scale(1 1) rotate(0) translate(4 760)">
<title>%3</title>
<polygon fill="transparent" stroke="transparent" points="-4,4 -4,-760 1769.5,-760 1769.5,4 -4,4"/>
<!-- 5 -->
<g id="node1" class="node">
<title>5</title>
<g id="a_node1"><a xlink:title="atom.h">
<polygon fill="#ffffff" stroke="black" points="518.5,-180 452.5,-180 452.5,-144 518.5,-144 518.5,-180"/>
<text text-anchor="middle" x="485.5" y="-158.3" font-family="Times,serif" font-size="14.00">atom.h</text>
</a>
</g>
</g>
<!-- 4 -->
<g id="node30" class="node">
<title>4</title>
<g id="a_node30"><a xlink:title="stdint.h">
<polygon fill="#ffffff" stroke="black" points="521.5,-36 449.5,-36 449.5,0 521.5,0 521.5,-36"/>
<text text-anchor="middle" x="485.5" y="-14.3" font-family="Times,serif" font-size="14.00">stdint.h</text>
</a>
</g>
</g>
<!-- 5&#45;&gt;4 -->
<g id="edge1" class="edge">
<title>5&#45;&gt;4</title>
<g id="a_edge1"><a xlink:title="include">
<path fill="none" stroke="#1414ce" d="M485.5,-143.87C485.5,-119.67 485.5,-75.21 485.5,-46.39"/>
<polygon fill="#1414ce" stroke="#1414ce" points="489,-46.19 485.5,-36.19 482,-46.19 489,-46.19"/>
</a>
</g>
</g>
<!-- 6 -->
<g id="node32" class="node">
<title>6</title>
<g id="a_node32"><a xlink:title="stdlib.h">
<polygon fill="#ffffff" stroke="black" points="439,-108 368,-108 368,-72 439,-72 439,-108"/>
<text text-anchor="middle" x="403.5" y="-86.3" font-family="Times,serif" font-size="14.00">stdlib.h</text>
</a>
</g>
</g>
<!-- 5&#45;&gt;6 -->
<g id="edge2" class="edge">
<title>5&#45;&gt;6</title>
<g id="a_edge2"><a xlink:title="include">
<path fill="none" stroke="#1414ce" d="M465.23,-143.7C455,-134.97 442.44,-124.24 431.32,-114.75"/>
<polygon fill="#1414ce" stroke="#1414ce" points="433.41,-111.94 423.54,-108.1 428.87,-117.26 433.41,-111.94"/>
</a>
</g>
</g>
<!-- 7 -->
<g id="node2" class="node">
<title>7</title>
<g id="a_node2"><a xlink:title="atom_table.h">
<polygon fill="#ffffff" stroke="black" points="766,-252 657,-252 657,-216 766,-216 766,-252"/>
<text text-anchor="middle" x="711.5" y="-230.3" font-family="Times,serif" font-size="14.00">atom_table.h</text>
</a>
</g>
</g>
<!-- 7&#45;&gt;5 -->
<g id="edge4" class="edge">
<title>7&#45;&gt;5</title>
<g id="a_edge4"><a xlink:title="include">
<path fill="none" stroke="#1414ce" d="M656.79,-216.05C617.39,-203.85 564.96,-187.61 528.53,-176.33"/>
<polygon fill="#1414ce" stroke="#1414ce" points="529.29,-172.9 518.7,-173.28 527.22,-179.59 529.29,-172.9"/>
</a>
</g>
</g>
<!-- 9 -->
<g id="node23" class="node">
<title>9</title>
<g id="a_node23"><a xlink:title="utils.h">
<polygon fill="#ffffff" stroke="black" points="674.5,-180 612.5,-180 612.5,-144 674.5,-144 674.5,-180"/>
<text text-anchor="middle" x="643.5" y="-158.3" font-family="Times,serif" font-size="14.00">utils.h</text>
</a>
</g>
</g>
<!-- 7&#45;&gt;9 -->
<g id="edge5" class="edge">
<title>7&#45;&gt;9</title>
<g id="a_edge5"><a xlink:title="include">
<path fill="none" stroke="#1414ce" d="M694.69,-215.7C686.37,-207.14 676.19,-196.66 667.11,-187.3"/>
<polygon fill="#1414ce" stroke="#1414ce" points="669.59,-184.84 660.12,-180.1 664.57,-189.72 669.59,-184.84"/>
</a>
</g>
</g>
<!-- 8 -->
<g id="node28" class="node">
<title>8</title>
<g id="a_node28"><a xlink:title="stdbool.h">
<polygon fill="#ffffff" stroke="black" points="1019,-108 936,-108 936,-72 1019,-72 1019,-108"/>
<text text-anchor="middle" x="977.5" y="-86.3" font-family="Times,serif" font-size="14.00">stdbool.h</text>
</a>
</g>
</g>
<!-- 7&#45;&gt;8 -->
<g id="edge3" class="edge">
<title>7&#45;&gt;8</title>
<g id="a_edge3"><a xlink:title="include">
<path fill="none" stroke="#1414ce" d="M755.12,-215.91C776.96,-206.57 803.39,-194.05 825.5,-180 846.54,-166.63 847.58,-157.55 868.5,-144 886.94,-132.06 908.47,-121.04 927.5,-112.18"/>
<polygon fill="#1414ce" stroke="#1414ce" points="928.98,-115.35 936.62,-108.01 926.07,-108.98 928.98,-115.35"/>
</a>
</g>
</g>
<!-- 32 -->
<g id="node3" class="node">
<title>32</title>
<g id="a_node3"><a xlink:title="bitstring.h">
<polygon fill="#ffffff" stroke="black" points="662.5,-540 570.5,-540 570.5,-504 662.5,-504 662.5,-540"/>
<text text-anchor="middle" x="616.5" y="-518.3" font-family="Times,serif" font-size="14.00">bitstring.h</text>
</a>
</g>
</g>
<!-- 24 -->
<g id="node10" class="node">
<title>24</title>
<g id="a_node10"><a xlink:title="intn.h">
<polygon fill="#ffffff" stroke="black" points="652,-396 593,-396 593,-360 652,-360 652,-396"/>
<text text-anchor="middle" x="622.5" y="-374.3" font-family="Times,serif" font-size="14.00">intn.h</text>
</a>
</g>
</g>
<!-- 32&#45;&gt;24 -->
<g id="edge6" class="edge">
<title>32&#45;&gt;24</title>
<g id="a_edge6"><a xlink:title="include">
<path fill="none" stroke="#1414ce" d="M617.22,-503.87C618.25,-479.67 620.12,-435.21 621.34,-406.39"/>
<polygon fill="#1414ce" stroke="#1414ce" points="624.85,-406.33 621.77,-396.19 617.85,-406.03 624.85,-406.33"/>
</a>
</g>
</g>
<!-- 21 -->
<g id="node19" class="node">
<title>21</title>
<g id="a_node19"><a xlink:title="term.h">
<polygon fill="#ffffff" stroke="black" points="441,-468 376,-468 376,-432 441,-432 441,-468"/>
<text text-anchor="middle" x="408.5" y="-446.3" font-family="Times,serif" font-size="14.00">term.h</text>
</a>
</g>
</g>
<!-- 32&#45;&gt;21 -->
<g id="edge7" class="edge">
<title>32&#45;&gt;21</title>
<g id="a_edge7"><a xlink:title="include">
<path fill="none" stroke="#1414ce" d="M570.34,-505.46C534.72,-493.48 485.82,-477.02 451.12,-465.34"/>
<polygon fill="#1414ce" stroke="#1414ce" points="451.88,-461.91 441.29,-462.03 449.65,-468.54 451.88,-461.91"/>
</a>
</g>
</g>
<!-- 33 -->
<g id="node22" class="node">
<title>33</title>
<g id="a_node22"><a xlink:title="unicode.h">
<polygon fill="#ffffff" stroke="black" points="816.5,-180 730.5,-180 730.5,-144 816.5,-144 816.5,-180"/>
<text text-anchor="middle" x="773.5" y="-158.3" font-family="Times,serif" font-size="14.00">unicode.h</text>
</a>
</g>
</g>
<!-- 32&#45;&gt;33 -->
<g id="edge8" class="edge">
<title>32&#45;&gt;33</title>
<g id="a_edge8"><a xlink:title="include">
<path fill="none" stroke="#1414ce" d="M631.04,-503.93C664.42,-463.5 745.86,-357.31 774.5,-252 780,-231.78 779.39,-208 777.6,-190.12"/>
<polygon fill="#1414ce" stroke="#1414ce" points="781.07,-189.6 776.42,-180.08 774.12,-190.42 781.07,-189.6"/>
</a>
</g>
</g>
<!-- 32&#45;&gt;8 -->
<g id="edge9" class="edge">
<title>32&#45;&gt;8</title>
<g id="a_edge9"><a xlink:title="include">
<path fill="none" stroke="#1414ce" d="M662.66,-521.37C744.51,-519.21 913.61,-501.47 989.5,-396 998.84,-383.01 989.83,-376 989.5,-360 988.83,-327.98 991.07,-319.7 986.5,-288 984.14,-271.68 979.52,-268.37 977.5,-252 971.76,-205.35 973.56,-150.51 975.47,-118.37"/>
<polygon fill="#1414ce" stroke="#1414ce" points="978.99,-118.21 976.14,-108 972,-117.76 978.99,-118.21"/>
</a>
</g>
</g>
<!-- 32&#45;&gt;4 -->
<g id="edge10" class="edge">
<title>32&#45;&gt;4</title>
<g id="a_edge10"><a xlink:title="include">
<path fill="none" stroke="#1414ce" d="M611.98,-503.92C598.45,-453.16 558.31,-305.62 544.5,-288 525.31,-263.53 508.74,-271.49 484.5,-252 418.22,-198.71 386.78,-188.2 358.5,-108 353.18,-92.91 349.63,-85.32 358.5,-72 376.45,-45.05 410.99,-31.79 439.52,-25.26"/>
<polygon fill="#1414ce" stroke="#1414ce" points="440.24,-28.69 449.32,-23.23 438.82,-21.83 440.24,-28.69"/>
</a>
</g>
</g>
<!-- 2 -->
<g id="node4" class="node">
<title>2</title>
<g id="a_node4"><a xlink:title="context.h">
<polygon fill="#ffffff" stroke="black" points="1151,-684 1068,-684 1068,-648 1151,-648 1151,-684"/>
<text text-anchor="middle" x="1109.5" y="-662.3" font-family="Times,serif" font-size="14.00">context.h</text>
</a>
</g>
</g>
<!-- 3 -->
<g id="node8" class="node">
<title>3</title>
<g id="a_node8"><a xlink:title="globalcontext.h">
<polygon fill="#ffffff" stroke="black" points="1344,-612 1217,-612 1217,-576 1344,-576 1344,-612"/>
<text text-anchor="middle" x="1280.5" y="-590.3" font-family="Times,serif" font-size="14.00">globalcontext.h</text>
</a>
</g>
</g>
<!-- 2&#45;&gt;3 -->
<g id="edge11" class="edge">
<title>2&#45;&gt;3</title>
<g id="a_edge11"><a xlink:title="include">
<path fill="none" stroke="#1414ce" d="M1151.33,-647.88C1174.92,-638.22 1204.56,-626.09 1229.5,-615.88"/>
<polygon fill="#1414ce" stroke="#1414ce" points="1230.88,-619.1 1238.8,-612.07 1228.22,-612.62 1230.88,-619.1"/>
</a>
</g>
</g>
<!-- 31 -->
<g id="node11" class="node">
<title>31</title>
<g id="a_node11"><a xlink:title="jit.h">
<polygon fill="#ffffff" stroke="black" points="541.5,-612 487.5,-612 487.5,-576 541.5,-576 541.5,-612"/>
<text text-anchor="middle" x="514.5" y="-590.3" font-family="Times,serif" font-size="14.00">jit.h</text>
</a>
</g>
</g>
<!-- 2&#45;&gt;31 -->
<g id="edge12" class="edge">
<title>2&#45;&gt;31</title>
<g id="a_edge12"><a xlink:title="include">
<path fill="none" stroke="#1414ce" d="M1067.66,-660.08C956.93,-647.05 657.48,-611.82 551.94,-599.4"/>
<polygon fill="#1414ce" stroke="#1414ce" points="552.1,-595.9 541.76,-598.21 551.29,-602.85 552.1,-595.9"/>
</a>
</g>
</g>
<!-- 18 -->
<g id="node12" class="node">
<title>18</title>
<g id="a_node12"><a xlink:title="list.h">
<polygon fill="#ffffff" stroke="black" points="1258.5,-180 1204.5,-180 1204.5,-144 1258.5,-144 1258.5,-180"/>
<text text-anchor="middle" x="1231.5" y="-158.3" font-family="Times,serif" font-size="14.00">list.h</text>
</a>
</g>
</g>
<!-- 2&#45;&gt;18 -->
<g id="edge13" class="edge">
<title>2&#45;&gt;18</title>
<g id="a_edge13"><a xlink:title="include">
<path fill="none" stroke="#1414ce" d="M1120.74,-647.75C1147.82,-604.45 1214.5,-486.9 1214.5,-379 1214.5,-379 1214.5,-379 1214.5,-305 1214.5,-264.93 1221.26,-218.95 1226.25,-190.43"/>
<polygon fill="#1414ce" stroke="#1414ce" points="1229.73,-190.87 1228.06,-180.41 1222.84,-189.63 1229.73,-190.87"/>
</a>
</g>
</g>
<!-- 28 -->
<g id="node13" class="node">
<title>28</title>
<g id="a_node13"><a xlink:title="mailbox.h">
<polygon fill="#ffffff" stroke="black" points="1072.5,-252 986.5,-252 986.5,-216 1072.5,-216 1072.5,-252"/>
<text text-anchor="middle" x="1029.5" y="-230.3" font-family="Times,serif" font-size="14.00">mailbox.h</text>
</a>
</g>
</g>
<!-- 2&#45;&gt;28 -->
<g id="edge14" class="edge">
<title>2&#45;&gt;28</title>
<g id="a_edge14"><a xlink:title="include">
<path fill="none" stroke="#1414ce" d="M1109.41,-647.79C1108.87,-583 1104.94,-354.08 1076.5,-288 1071.96,-277.45 1064.47,-267.54 1056.8,-259.21"/>
<polygon fill="#1414ce" stroke="#1414ce" points="1059.27,-256.73 1049.78,-252.03 1054.27,-261.63 1059.27,-256.73"/>
</a>
</g>
</g>
<!-- 20 -->
<g id="node17" class="node">
<title>20</title>
<g id="a_node17"><a xlink:title="smp.h">
<polygon fill="#ffffff" stroke="black" points="1548.5,-180 1488.5,-180 1488.5,-144 1548.5,-144 1548.5,-180"/>
<text text-anchor="middle" x="1518.5" y="-158.3" font-family="Times,serif" font-size="14.00">smp.h</text>
</a>
</g>
</g>
<!-- 2&#45;&gt;20 -->
<g id="edge15" class="edge">
<title>2&#45;&gt;20</title>
<g id="a_edge15"><a xlink:title="include">
<path fill="none" stroke="#1414ce" d="M1151.05,-664.21C1215.35,-661.71 1341.82,-651.66 1440.5,-612 1492.66,-591.03 1513.44,-586.86 1544.5,-540 1596.5,-461.54 1544.19,-218.62 1543.5,-216 1541.09,-206.85 1537.13,-197.35 1533.07,-188.97"/>
<polygon fill="#1414ce" stroke="#1414ce" points="1536.18,-187.37 1528.51,-180.05 1529.95,-190.55 1536.18,-187.37"/>
</a>
</g>
</g>
<!-- 2&#45;&gt;21 -->
<g id="edge16" class="edge">
<title>2&#45;&gt;21</title>
<g id="a_edge16"><a xlink:title="include">
<path fill="none" stroke="#1414ce" d="M1067.84,-663.31C945.82,-658.09 590.71,-640.77 478.5,-612 402.18,-592.43 359.43,-606.07 316.5,-540 307.78,-526.58 308.49,-517.85 316.5,-504 327.39,-485.16 347.8,-472.42 366.64,-464.17"/>
<polygon fill="#1414ce" stroke="#1414ce" points="368.05,-467.37 375.99,-460.36 365.41,-460.89 368.05,-467.37"/>
</a>
</g>
</g>
<!-- 29 -->
<g id="node21" class="node">
<title>29</title>
<g id="a_node21"><a xlink:title="timer_list.h">
<polygon fill="#ffffff" stroke="black" points="1520.5,-252 1422.5,-252 1422.5,-216 1520.5,-216 1520.5,-252"/>
<text text-anchor="middle" x="1471.5" y="-230.3" font-family="Times,serif" font-size="14.00">timer_list.h</text>
</a>
</g>
</g>
<!-- 2&#45;&gt;29 -->
<g id="edge17" class="edge">
<title>2&#45;&gt;29</title>
<g id="a_edge17"><a xlink:title="include">
<path fill="none" stroke="#1414ce" d="M1151.31,-659.09C1247.76,-644.46 1480.78,-603.12 1522.5,-540 1581.12,-451.3 1518.52,-317.31 1487.17,-261.18"/>
<polygon fill="#1414ce" stroke="#1414ce" points="1490.07,-259.2 1482.08,-252.25 1483.99,-262.67 1490.07,-259.2"/>
</a>
</g>
</g>
<!-- 13 -->
<g id="node5" class="node">
<title>13</title>
<g id="a_node5"><a xlink:title="erl_nif.h">
<polygon fill="#ffffff" stroke="black" points="130.5,-180 56.5,-180 56.5,-144 130.5,-144 130.5,-180"/>
<text text-anchor="middle" x="93.5" y="-158.3" font-family="Times,serif" font-size="14.00">erl_nif.h</text>
</a>
</g>
</g>
<!-- 14 -->
<g id="node20" class="node">
<title>14</title>
<g id="a_node20"><a xlink:title="term_typedef.h">
<polygon fill="#ffffff" stroke="black" points="143,-108 18,-108 18,-72 143,-72 143,-108"/>
<text text-anchor="middle" x="80.5" y="-86.3" font-family="Times,serif" font-size="14.00">term_typedef.h</text>
</a>
</g>
</g>
<!-- 13&#45;&gt;14 -->
<g id="edge18" class="edge">
<title>13&#45;&gt;14</title>
<g id="a_edge18"><a xlink:title="include">
<path fill="none" stroke="#1414ce" d="M90.29,-143.7C88.85,-135.98 87.13,-126.71 85.54,-118.11"/>
<polygon fill="#1414ce" stroke="#1414ce" points="88.94,-117.3 83.68,-108.1 82.06,-118.58 88.94,-117.3"/>
</a>
</g>
</g>
<!-- 17 -->
<g id="node6" class="node">
<title>17</title>
<g id="a_node6"><a xlink:title="ets.h">
<polygon fill="#ffffff" stroke="black" points="1362.5,-540 1308.5,-540 1308.5,-504 1362.5,-504 1362.5,-540"/>
<text text-anchor="middle" x="1335.5" y="-518.3" font-family="Times,serif" font-size="14.00">ets.h</text>
</a>
</g>
</g>
<!-- 17&#45;&gt;18 -->
<g id="edge19" class="edge">
<title>17&#45;&gt;18</title>
<g id="a_edge19"><a xlink:title="include">
<path fill="none" stroke="#1414ce" d="M1339.75,-503.63C1345.89,-476.99 1356.5,-424.36 1356.5,-379 1356.5,-379 1356.5,-379 1356.5,-305 1356.5,-264.55 1362.43,-247.85 1337.5,-216 1316.89,-189.68 1299.37,-195.25 1267.94,-181.86"/>
<polygon fill="#1414ce" stroke="#1414ce" points="1269.24,-178.6 1258.7,-177.53 1266.28,-184.94 1269.24,-178.6"/>
</a>
</g>
</g>
<!-- 19 -->
<g id="node18" class="node">
<title>19</title>
<g id="a_node18"><a xlink:title="synclist.h">
<polygon fill="#ffffff" stroke="black" points="1328,-252 1243,-252 1243,-216 1328,-216 1328,-252"/>
<text text-anchor="middle" x="1285.5" y="-230.3" font-family="Times,serif" font-size="14.00">synclist.h</text>
</a>
</g>
</g>
<!-- 17&#45;&gt;19 -->
<g id="edge20" class="edge">
<title>17&#45;&gt;19</title>
<g id="a_edge20"><a xlink:title="include">
<path fill="none" stroke="#1414ce" d="M1332.52,-503.97C1324.17,-456.19 1300.47,-320.62 1290.27,-262.27"/>
<polygon fill="#1414ce" stroke="#1414ce" points="1293.7,-261.55 1288.53,-252.31 1286.8,-262.76 1293.7,-261.55"/>
</a>
</g>
</g>
<!-- 17&#45;&gt;21 -->
<g id="edge21" class="edge">
<title>17&#45;&gt;21</title>
<g id="a_edge21"><a xlink:title="include">
<path fill="none" stroke="#1414ce" d="M1308.26,-518.94C1177.3,-509.05 612.22,-466.38 451.37,-454.24"/>
<polygon fill="#1414ce" stroke="#1414ce" points="451.6,-450.74 441.37,-453.48 451.08,-457.73 451.6,-450.74"/>
</a>
</g>
</g>
<!-- 34 -->
<g id="node7" class="node">
<title>34</title>
<g id="a_node7"><a xlink:title="exportedfunction.h">
<polygon fill="#ffffff" stroke="black" points="487.5,-540 335.5,-540 335.5,-504 487.5,-504 487.5,-540"/>
<text text-anchor="middle" x="411.5" y="-518.3" font-family="Times,serif" font-size="14.00">exportedfunction.h</text>
</a>
</g>
</g>
<!-- 34&#45;&gt;21 -->
<g id="edge22" class="edge">
<title>34&#45;&gt;21</title>
<g id="a_edge22"><a xlink:title="include">
<path fill="none" stroke="#1414ce" d="M410.76,-503.7C410.43,-495.98 410.03,-486.71 409.66,-478.11"/>
<polygon fill="#1414ce" stroke="#1414ce" points="413.16,-477.95 409.23,-468.1 406.16,-478.25 413.16,-477.95"/>
</a>
</g>
</g>
<!-- 3&#45;&gt;5 -->
<g id="edge24" class="edge">
<title>3&#45;&gt;5</title>
<g id="a_edge24"><a xlink:title="include">
<path fill="none" stroke="#1414ce" d="M1216.86,-577.04C1141.03,-556.82 1011.51,-518.43 907.5,-468 842.66,-436.56 607.82,-260.58 596.5,-252 567.93,-230.33 536.07,-204.62 513.83,-186.42"/>
<polygon fill="#1414ce" stroke="#1414ce" points="516.05,-183.71 506.1,-180.07 511.61,-189.12 516.05,-183.71"/>
</a>
</g>
</g>
<!-- 3&#45;&gt;7 -->
<g id="edge25" class="edge">
<title>3&#45;&gt;7</title>
<g id="a_edge25"><a xlink:title="include">
<path fill="none" stroke="#1414ce" d="M1265.53,-575.89C1247.28,-556 1214.63,-523.44 1180.5,-504 1043.1,-425.73 972.01,-485.28 841.5,-396 788.83,-359.97 746.66,-296.43 725.78,-260.9"/>
<polygon fill="#1414ce" stroke="#1414ce" points="728.73,-259 720.7,-252.08 722.66,-262.5 728.73,-259"/>
</a>
</g>
</g>
<!-- 3&#45;&gt;13 -->
<g id="edge26" class="edge">
<title>3&#45;&gt;13</title>
<g id="a_edge26"><a xlink:title="include">
<path fill="none" stroke="#1414ce" d="M1216.75,-591.92C1016.45,-588.18 408.15,-574.11 326.5,-540 238.53,-503.25 219.04,-476.21 167.5,-396 124.59,-329.23 104.88,-235.67 97.38,-190.1"/>
<polygon fill="#1414ce" stroke="#1414ce" points="100.82,-189.43 95.8,-180.1 93.9,-190.52 100.82,-189.43"/>
</a>
</g>
</g>
<!-- 3&#45;&gt;17 -->
<g id="edge27" class="edge">
<title>3&#45;&gt;17</title>
<g id="a_edge27"><a xlink:title="include">
<path fill="none" stroke="#1414ce" d="M1294.1,-575.7C1300.62,-567.39 1308.57,-557.28 1315.75,-548.14"/>
<polygon fill="#1414ce" stroke="#1414ce" points="1318.63,-550.13 1322.06,-540.1 1313.13,-545.81 1318.63,-550.13"/>
</a>
</g>
</g>
<!-- 3&#45;&gt;18 -->
<g id="edge28" class="edge">
<title>3&#45;&gt;18</title>
<g id="a_edge28"><a xlink:title="include">
<path fill="none" stroke="#1414ce" d="M1325.09,-575.89C1341.85,-567.41 1359.69,-555.6 1371.5,-540 1396.16,-507.43 1394.5,-491.86 1394.5,-451 1394.5,-451 1394.5,-451 1394.5,-305 1394.5,-262.5 1389.79,-245.82 1359.5,-216 1329.31,-186.28 1308.18,-196.89 1268.06,-181.64"/>
<polygon fill="#1414ce" stroke="#1414ce" points="1269.19,-178.32 1258.61,-177.71 1266.5,-184.79 1269.19,-178.32"/>
</a>
</g>
</g>
<!-- 3&#45;&gt;28 -->
<g id="edge29" class="edge">
<title>3&#45;&gt;28</title>
<g id="a_edge29"><a xlink:title="include">
<path fill="none" stroke="#1414ce" d="M1274.76,-575.92C1257.41,-526.35 1201.34,-380.13 1114.5,-288 1103.15,-275.96 1088.49,-265.55 1074.56,-257.21"/>
<polygon fill="#1414ce" stroke="#1414ce" points="1075.96,-253.98 1065.54,-252.04 1072.48,-260.06 1075.96,-253.98"/>
</a>
</g>
</g>
<!-- 3&#45;&gt;20 -->
<g id="edge30" class="edge">
<title>3&#45;&gt;20</title>
<g id="a_edge30"><a xlink:title="include">
<path fill="none" stroke="#1414ce" d="M1344.02,-584.11C1374.33,-576.87 1409.01,-563.74 1432.5,-540 1456.25,-516 1524.04,-285.32 1529.5,-252 1532.88,-231.39 1529.69,-207.94 1525.9,-190.28"/>
<polygon fill="#1414ce" stroke="#1414ce" points="1529.21,-189.05 1523.51,-180.12 1522.39,-190.65 1529.21,-189.05"/>
</a>
</g>
</g>
<!-- 3&#45;&gt;19 -->
<g id="edge31" class="edge">
<title>3&#45;&gt;19</title>
<g id="a_edge31"><a xlink:title="include">
<path fill="none" stroke="#1414ce" d="M1280.5,-575.95C1280.5,-549.29 1280.5,-496.11 1280.5,-451 1280.5,-451 1280.5,-451 1280.5,-377 1280.5,-336.97 1282.51,-290.63 1283.98,-262.07"/>
<polygon fill="#1414ce" stroke="#1414ce" points="1287.48,-262.21 1284.51,-252.04 1280.49,-261.84 1287.48,-262.21"/>
</a>
</g>
</g>
<!-- 3&#45;&gt;21 -->
<g id="edge32" class="edge">
<title>3&#45;&gt;21</title>
<g id="a_edge32"><a xlink:title="include">
<path fill="none" stroke="#1414ce" d="M1216.98,-591.97C1064.8,-588.91 683.01,-577.62 561.5,-540 555.23,-538.06 489.19,-499.07 445.94,-473.35"/>
<polygon fill="#1414ce" stroke="#1414ce" points="447.47,-470.18 437.09,-468.08 443.89,-476.2 447.47,-470.18"/>
</a>
</g>
</g>
<!-- 3&#45;&gt;29 -->
<g id="edge33" class="edge">
<title>3&#45;&gt;29</title>
<g id="a_edge33"><a xlink:title="include">
<path fill="none" stroke="#1414ce" d="M1344.17,-579.24C1367.3,-571.3 1391.83,-558.97 1408.5,-540 1435.54,-509.22 1432.5,-491.97 1432.5,-451 1432.5,-451 1432.5,-451 1432.5,-377 1432.5,-335.56 1448.14,-289.67 1459.61,-261.58"/>
<polygon fill="#1414ce" stroke="#1414ce" points="1462.95,-262.65 1463.61,-252.07 1456.5,-259.93 1462.95,-262.65"/>
</a>
</g>
</g>
<!-- 30 -->
<g id="node24" class="node">
<title>30</title>
<g id="a_node24"><a xlink:title="valueshashtable.h">
<polygon fill="#ffffff" stroke="black" points="1765.5,-180 1619.5,-180 1619.5,-144 1765.5,-144 1765.5,-180"/>
<text text-anchor="middle" x="1692.5" y="-158.3" font-family="Times,serif" font-size="14.00">valueshashtable.h</text>
</a>
</g>
</g>
<!-- 3&#45;&gt;30 -->
<g id="edge34" class="edge">
<title>3&#45;&gt;30</title>
<g id="a_edge34"><a xlink:title="include">
<path fill="none" stroke="#1414ce" d="M1344.04,-585.18C1406,-576.5 1494.83,-560.9 1522.5,-540 1640.52,-450.88 1678.68,-261.1 1689.08,-190.35"/>
<polygon fill="#1414ce" stroke="#1414ce" points="1692.6,-190.43 1690.52,-180.05 1685.67,-189.47 1692.6,-190.43"/>
</a>
</g>
</g>
<!-- 3&#45;&gt;4 -->
<g id="edge23" class="edge">
<title>3&#45;&gt;4</title>
<g id="a_edge23"><a xlink:title="include">
<path fill="none" stroke="#1414ce" d="M1344.26,-579.78C1387.21,-569.75 1438.93,-555.16 1455.5,-540 1589.59,-417.32 1673.5,-283.91 1557.5,-144 1490.9,-63.67 728.49,-28.49 531.65,-20.71"/>
<polygon fill="#1414ce" stroke="#1414ce" points="531.76,-17.21 521.63,-20.32 531.49,-24.21 531.76,-17.21"/>
</a>
</g>
</g>
<!-- 1 -->
<g id="node9" class="node">
<title>1</title>
<g id="a_node9"><a xlink:title="/__w/AtomVM/AtomVM/src/libAtomVM/interop.h">
<polygon fill="#bfbfbf" stroke="black" points="675,-756 316,-756 316,-720 675,-720 675,-756"/>
<text text-anchor="middle" x="495.5" y="-734.3" font-family="Times,serif" font-size="14.00">/__w/AtomVM/AtomVM/src/libAtomVM/interop.h</text>
</a>
</g>
</g>
<!-- 1&#45;&gt;2 -->
<g id="edge35" class="edge">
<title>1&#45;&gt;2</title>
<g id="a_edge35"><a xlink:title="include">
<path fill="none" stroke="#1414ce" d="M644.92,-719.97C778.9,-704.69 967.83,-683.15 1057.87,-672.89"/>
<polygon fill="#1414ce" stroke="#1414ce" points="1058.29,-676.36 1067.83,-671.75 1057.5,-669.41 1058.29,-676.36"/>
</a>
</g>
</g>
<!-- 1&#45;&gt;21 -->
<g id="edge36" class="edge">
<title>1&#45;&gt;21</title>
<g id="a_edge36"><a xlink:title="include">
<path fill="none" stroke="#1414ce" d="M465.41,-719.77C417.88,-690.31 328.55,-625.11 306.5,-540 302.49,-524.51 298.19,-517.68 306.5,-504 319.44,-482.7 344.02,-469.57 365.81,-461.71"/>
<polygon fill="#1414ce" stroke="#1414ce" points="367.2,-464.93 375.58,-458.45 364.98,-458.29 367.2,-464.93"/>
</a>
</g>
</g>
<!-- 24&#45;&gt;9 -->
<g id="edge39" class="edge">
<title>24&#45;&gt;9</title>
<g id="a_edge39"><a xlink:title="include">
<path fill="none" stroke="#1414ce" d="M624.18,-359.85C627.82,-322.83 636.42,-235.18 640.81,-190.39"/>
<polygon fill="#1414ce" stroke="#1414ce" points="644.32,-190.53 641.81,-180.23 637.35,-189.84 644.32,-190.53"/>
</a>
</g>
</g>
<!-- 24&#45;&gt;8 -->
<g id="edge37" class="edge">
<title>24&#45;&gt;8</title>
<g id="a_edge37"><a xlink:title="include">
<path fill="none" stroke="#1414ce" d="M643.87,-359.93C686,-326.15 782.53,-248.16 861.5,-180 879.61,-164.37 882.77,-158.87 901.5,-144 914.63,-133.58 929.66,-122.87 942.86,-113.82"/>
<polygon fill="#1414ce" stroke="#1414ce" points="944.93,-116.65 951.24,-108.14 941,-110.85 944.93,-116.65"/>
</a>
</g>
</g>
<!-- 23 -->
<g id="node33" class="node">
<title>23</title>
<g id="a_node33"><a xlink:title="string.h">
<polygon fill="#ffffff" stroke="black" points="536,-324 463,-324 463,-288 536,-288 536,-324"/>
<text text-anchor="middle" x="499.5" y="-302.3" font-family="Times,serif" font-size="14.00">string.h</text>
</a>
</g>
</g>
<!-- 24&#45;&gt;23 -->
<g id="edge38" class="edge">
<title>24&#45;&gt;23</title>
<g id="a_edge38"><a xlink:title="include">
<path fill="none" stroke="#1414ce" d="M592.73,-360.05C576.38,-350.75 555.91,-339.11 538.33,-329.1"/>
<polygon fill="#1414ce" stroke="#1414ce" points="539.85,-325.94 529.43,-324.03 536.39,-332.02 539.85,-325.94"/>
</a>
</g>
</g>
<!-- 31&#45;&gt;32 -->
<g id="edge40" class="edge">
<title>31&#45;&gt;32</title>
<g id="a_edge40"><a xlink:title="include">
<path fill="none" stroke="#1414ce" d="M539.45,-575.88C552.54,-566.89 568.76,-555.76 582.94,-546.03"/>
<polygon fill="#1414ce" stroke="#1414ce" points="585.19,-548.73 591.45,-540.19 581.23,-542.96 585.19,-548.73"/>
</a>
</g>
</g>
<!-- 31&#45;&gt;34 -->
<g id="edge41" class="edge">
<title>31&#45;&gt;34</title>
<g id="a_edge41"><a xlink:title="include">
<path fill="none" stroke="#1414ce" d="M489.3,-575.88C476.09,-566.89 459.71,-555.76 445.39,-546.03"/>
<polygon fill="#1414ce" stroke="#1414ce" points="447.03,-542.92 436.79,-540.19 443.1,-548.71 447.03,-542.92"/>
</a>
</g>
</g>
<!-- 31&#45;&gt;21 -->
<g id="edge42" class="edge">
<title>31&#45;&gt;21</title>
<g id="a_edge42"><a xlink:title="include">
<path fill="none" stroke="#1414ce" d="M487.33,-589.37C440.08,-582.44 345.95,-565.69 326.5,-540 316.84,-527.24 318.85,-518.05 326.5,-504 335.24,-487.95 351.17,-476.01 366.67,-467.58"/>
<polygon fill="#1414ce" stroke="#1414ce" points="368.36,-470.65 375.7,-463.01 365.2,-464.4 368.36,-470.65"/>
</a>
</g>
</g>
<!-- 31&#45;&gt;14 -->
<g id="edge43" class="edge">
<title>31&#45;&gt;14</title>
<g id="a_edge43"><a xlink:title="include">
<path fill="none" stroke="#1414ce" d="M487.23,-587.93C448.4,-580.22 375.36,-563.87 316.5,-540 177.92,-483.79 120.49,-460.09 58.5,-324 25.19,-250.87 16.44,-220.35 41.5,-144 44.81,-133.91 50.87,-124.15 57.23,-115.82"/>
<polygon fill="#1414ce" stroke="#1414ce" points="60,-117.97 63.61,-108.01 54.58,-113.54 60,-117.97"/>
</a>
</g>
</g>
<!-- 31&#45;&gt;8 -->
<g id="edge44" class="edge">
<title>31&#45;&gt;8</title>
<g id="a_edge44"><a xlink:title="include">
<path fill="none" stroke="#1414ce" d="M541.72,-590.38C612.85,-582.45 808.08,-553.79 942.5,-468 1038.73,-406.58 1054.05,-362.81 1081.5,-252 1095.09,-197.13 1044.85,-144.18 1009.5,-114.77"/>
<polygon fill="#1414ce" stroke="#1414ce" points="1011.31,-111.73 1001.33,-108.16 1006.91,-117.17 1011.31,-111.73"/>
</a>
</g>
</g>
<!-- 18&#45;&gt;8 -->
<g id="edge45" class="edge">
<title>18&#45;&gt;8</title>
<g id="a_edge45"><a xlink:title="include">
<path fill="none" stroke="#1414ce" d="M1204.37,-149.09C1199.78,-147.26 1195.04,-145.5 1190.5,-144 1136.28,-126.12 1072.56,-111.02 1029.04,-101.56"/>
<polygon fill="#1414ce" stroke="#1414ce" points="1029.76,-98.14 1019.25,-99.46 1028.29,-104.98 1029.76,-98.14"/>
</a>
</g>
</g>
<!-- 28&#45;&gt;18 -->
<g id="edge47" class="edge">
<title>28&#45;&gt;18</title>
<g id="a_edge47"><a xlink:title="include">
<path fill="none" stroke="#1414ce" d="M1072.83,-217.98C1109.13,-205.41 1160.37,-187.65 1194.7,-175.75"/>
<polygon fill="#1414ce" stroke="#1414ce" points="1196.04,-178.99 1204.34,-172.41 1193.75,-172.38 1196.04,-178.99"/>
</a>
</g>
</g>
<!-- 28&#45;&gt;14 -->
<g id="edge48" class="edge">
<title>28&#45;&gt;14</title>
<g id="a_edge48"><a xlink:title="include">
<path fill="none" stroke="#1414ce" d="M986.27,-232.13C908.27,-229.59 739.47,-219.55 603.5,-180 567.61,-169.56 563.42,-154.34 527.5,-144 399.14,-107.06 242.94,-95.82 153.28,-92.43"/>
<polygon fill="#1414ce" stroke="#1414ce" points="153.33,-88.93 143.21,-92.07 153.08,-95.93 153.33,-88.93"/>
</a>
</g>
</g>
<!-- 28&#45;&gt;9 -->
<g id="edge49" class="edge">
<title>28&#45;&gt;9</title>
<g id="a_edge49"><a xlink:title="include">
<path fill="none" stroke="#1414ce" d="M986.39,-229.19C921.11,-222.77 793.65,-207.71 688.5,-180 687.23,-179.66 685.94,-179.31 684.65,-178.93"/>
<polygon fill="#1414ce" stroke="#1414ce" points="685.29,-175.46 674.7,-175.73 683.15,-182.12 685.29,-175.46"/>
</a>
</g>
</g>
<!-- 28&#45;&gt;8 -->
<g id="edge46" class="edge">
<title>28&#45;&gt;8</title>
<g id="a_edge46"><a xlink:title="include">
<path fill="none" stroke="#1414ce" d="M1027.62,-215.75C1025.21,-197.43 1020.14,-167.88 1010.5,-144 1006.75,-134.7 1001.39,-125.2 996.09,-116.86"/>
<polygon fill="#1414ce" stroke="#1414ce" points="998.88,-114.72 990.43,-108.32 993.04,-118.59 998.88,-114.72"/>
</a>
</g>
</g>
<!-- 25 -->
<g id="node14" class="node">
<title>25</title>
<g id="a_node14"><a xlink:title="memory.h">
<polygon fill="#ffffff" stroke="black" points="330.5,-252 244.5,-252 244.5,-216 330.5,-216 330.5,-252"/>
<text text-anchor="middle" x="287.5" y="-230.3" font-family="Times,serif" font-size="14.00">memory.h</text>
</a>
</g>
</g>
<!-- 25&#45;&gt;13 -->
<g id="edge52" class="edge">
<title>25&#45;&gt;13</title>
<g id="a_edge52"><a xlink:title="include">
<path fill="none" stroke="#1414ce" d="M244.45,-217.46C213.49,-206.3 171.79,-191.25 140.06,-179.8"/>
<polygon fill="#1414ce" stroke="#1414ce" points="141.15,-176.47 130.55,-176.37 138.77,-183.06 141.15,-176.47"/>
</a>
</g>
</g>
<!-- 25&#45;&gt;14 -->
<g id="edge53" class="edge">
<title>25&#45;&gt;14</title>
<g id="a_edge53"><a xlink:title="include">
<path fill="none" stroke="#1414ce" d="M262.53,-215.87C225.39,-190.39 155.51,-142.45 113.97,-113.96"/>
<polygon fill="#1414ce" stroke="#1414ce" points="115.78,-110.96 105.56,-108.19 111.82,-116.73 115.78,-110.96"/>
</a>
</g>
</g>
<!-- 25&#45;&gt;9 -->
<g id="edge54" class="edge">
<title>25&#45;&gt;9</title>
<g id="a_edge54"><a xlink:title="include">
<path fill="none" stroke="#1414ce" d="M330.8,-224.49C400.06,-210.87 534.87,-184.36 602.6,-171.04"/>
<polygon fill="#1414ce" stroke="#1414ce" points="603.34,-174.46 612.48,-169.1 601.99,-167.6 603.34,-174.46"/>
</a>
</g>
</g>
<!-- 25&#45;&gt;4 -->
<g id="edge50" class="edge">
<title>25&#45;&gt;4</title>
<g id="a_edge50"><a xlink:title="include">
<path fill="none" stroke="#1414ce" d="M282.6,-215.7C274.61,-183.52 262.84,-113.91 296.5,-72 314.32,-49.81 389.31,-34.02 439.31,-25.72"/>
<polygon fill="#1414ce" stroke="#1414ce" points="439.95,-29.16 449.26,-24.11 438.83,-22.25 439.95,-29.16"/>
</a>
</g>
</g>
<!-- 25&#45;&gt;6 -->
<g id="edge51" class="edge">
<title>25&#45;&gt;6</title>
<g id="a_edge51"><a xlink:title="include">
<path fill="none" stroke="#1414ce" d="M301.49,-215.87C321.78,-191.03 359.51,-144.85 382.96,-116.14"/>
<polygon fill="#1414ce" stroke="#1414ce" points="385.84,-118.15 389.46,-108.19 380.42,-113.72 385.84,-118.15"/>
</a>
</g>
</g>
<!-- 26 -->
<g id="node15" class="node">
<title>26</title>
<g id="a_node15"><a xlink:title="refc_binary.h">
<polygon fill="#ffffff" stroke="black" points="958.5,-396 850.5,-396 850.5,-360 958.5,-360 958.5,-396"/>
<text text-anchor="middle" x="904.5" y="-374.3" font-family="Times,serif" font-size="14.00">refc_binary.h</text>
</a>
</g>
</g>
<!-- 26&#45;&gt;18 -->
<g id="edge57" class="edge">
<title>26&#45;&gt;18</title>
<g id="a_edge57"><a xlink:title="include">
<path fill="none" stroke="#1414ce" d="M936.15,-359.98C978.27,-336.96 1054.61,-293.95 1116.5,-252 1147.02,-231.31 1180.15,-205.26 1202.98,-186.7"/>
<polygon fill="#1414ce" stroke="#1414ce" points="1205.37,-189.26 1210.9,-180.22 1200.94,-183.84 1205.37,-189.26"/>
</a>
</g>
</g>
<!-- 27 -->
<g id="node16" class="node">
<title>27</title>
<g id="a_node16"><a xlink:title="resources.h">
<polygon fill="#ffffff" stroke="black" points="958.5,-324 858.5,-324 858.5,-288 958.5,-288 958.5,-324"/>
<text text-anchor="middle" x="908.5" y="-302.3" font-family="Times,serif" font-size="14.00">resources.h</text>
</a>
</g>
</g>
<!-- 26&#45;&gt;27 -->
<g id="edge58" class="edge">
<title>26&#45;&gt;27</title>
<g id="a_edge58"><a xlink:title="include">
<path fill="none" stroke="#1414ce" d="M905.49,-359.7C905.93,-351.98 906.46,-342.71 906.95,-334.11"/>
<polygon fill="#1414ce" stroke="#1414ce" points="910.45,-334.29 907.52,-324.1 903.46,-333.89 910.45,-334.29"/>
</a>
</g>
</g>
<!-- 26&#45;&gt;8 -->
<g id="edge55" class="edge">
<title>26&#45;&gt;8</title>
<g id="a_edge55"><a xlink:title="include">
<path fill="none" stroke="#1414ce" d="M879.12,-359.95C867.79,-350.79 855.62,-338.4 849.5,-324 843.24,-309.28 844.95,-303.34 849.5,-288 869.99,-218.85 923.24,-151.24 954.22,-116.03"/>
<polygon fill="#1414ce" stroke="#1414ce" points="957.16,-117.99 961.22,-108.21 951.94,-113.33 957.16,-117.99"/>
</a>
</g>
</g>
<!-- 26&#45;&gt;6 -->
<g id="edge56" class="edge">
<title>26&#45;&gt;6</title>
<g id="a_edge56"><a xlink:title="include">
<path fill="none" stroke="#1414ce" d="M850.37,-367.77C755.64,-348.93 558.95,-297.48 443.5,-180 426.59,-162.79 416.12,-137.19 410.15,-117.86"/>
<polygon fill="#1414ce" stroke="#1414ce" points="413.48,-116.77 407.36,-108.12 406.75,-118.7 413.48,-116.77"/>
</a>
</g>
</g>
<!-- 27&#45;&gt;13 -->
<g id="edge60" class="edge">
<title>27&#45;&gt;13</title>
<g id="a_edge60"><a xlink:title="include">
<path fill="none" stroke="#1414ce" d="M858.35,-302.43C712.34,-294.77 294.13,-271.38 235.5,-252 192.19,-237.68 148.67,-207.52 121.44,-186.29"/>
<polygon fill="#1414ce" stroke="#1414ce" points="123.54,-183.49 113.53,-180.02 119.19,-188.98 123.54,-183.49"/>
</a>
</g>
</g>
<!-- 27&#45;&gt;18 -->
<g id="edge61" class="edge">
<title>27&#45;&gt;18</title>
<g id="a_edge61"><a xlink:title="include">
<path fill="none" stroke="#1414ce" d="M958.58,-290.76C1005.64,-277.2 1070.46,-257.99 1081.5,-252 1103.41,-240.11 1103.63,-229.63 1124.5,-216 1146.78,-201.45 1173.61,-188.17 1194.83,-178.54"/>
<polygon fill="#1414ce" stroke="#1414ce" points="1196.45,-181.65 1204.15,-174.38 1193.6,-175.26 1196.45,-181.65"/>
</a>
</g>
</g>
<!-- 27&#45;&gt;28 -->
<g id="edge62" class="edge">
<title>27&#45;&gt;28</title>
<g id="a_edge62"><a xlink:title="include">
<path fill="none" stroke="#1414ce" d="M938.1,-287.88C954.07,-278.64 973.96,-267.13 991.11,-257.21"/>
<polygon fill="#1414ce" stroke="#1414ce" points="992.88,-260.23 999.79,-252.19 989.38,-254.17 992.88,-260.23"/>
</a>
</g>
</g>
<!-- 27&#45;&gt;25 -->
<g id="edge63" class="edge">
<title>27&#45;&gt;25</title>
<g id="a_edge63"><a xlink:title="include">
<path fill="none" stroke="#1414ce" d="M858.47,-299.36C743.18,-286.36 459.63,-254.4 341.02,-241.03"/>
<polygon fill="#1414ce" stroke="#1414ce" points="341.07,-237.52 330.74,-239.87 340.29,-244.47 341.07,-237.52"/>
</a>
</g>
</g>
<!-- 27&#45;&gt;19 -->
<g id="edge64" class="edge">
<title>27&#45;&gt;19</title>
<g id="a_edge64"><a xlink:title="include">
<path fill="none" stroke="#1414ce" d="M958.56,-295.7C1029.92,-282.46 1160.25,-258.26 1232.95,-244.76"/>
<polygon fill="#1414ce" stroke="#1414ce" points="1233.62,-248.19 1242.81,-242.93 1232.34,-241.31 1233.62,-248.19"/>
</a>
</g>
</g>
<!-- 27&#45;&gt;6 -->
<g id="edge59" class="edge">
<title>27&#45;&gt;6</title>
<g id="a_edge59"><a xlink:title="include">
<path fill="none" stroke="#1414ce" d="M858.34,-302.64C803.83,-298.34 715.43,-286.21 647.5,-252 583.42,-219.72 587.97,-182.62 527.5,-144 526.57,-143.41 483.96,-125.23 448.94,-110.32"/>
<polygon fill="#1414ce" stroke="#1414ce" points="449.88,-106.92 439.31,-106.22 447.14,-113.36 449.88,-106.92"/>
</a>
</g>
</g>
<!-- 20&#45;&gt;8 -->
<g id="edge65" class="edge">
<title>20&#45;&gt;8</title>
<g id="a_edge65"><a xlink:title="include">
<path fill="none" stroke="#1414ce" d="M1488.25,-157.09C1399.78,-145.64 1140.72,-112.12 1029.36,-97.71"/>
<polygon fill="#1414ce" stroke="#1414ce" points="1029.74,-94.23 1019.37,-96.42 1028.84,-101.17 1029.74,-94.23"/>
</a>
</g>
</g>
<!-- 19&#45;&gt;18 -->
<g id="edge67" class="edge">
<title>19&#45;&gt;18</title>
<g id="a_edge67"><a xlink:title="include">
<path fill="none" stroke="#1414ce" d="M1272.15,-215.7C1265.74,-207.39 1257.94,-197.28 1250.89,-188.14"/>
<polygon fill="#1414ce" stroke="#1414ce" points="1253.57,-185.88 1244.69,-180.1 1248.03,-190.16 1253.57,-185.88"/>
</a>
</g>
</g>
<!-- 19&#45;&gt;20 -->
<g id="edge68" class="edge">
<title>19&#45;&gt;20</title>
<g id="a_edge68"><a xlink:title="include">
<path fill="none" stroke="#1414ce" d="M1328.24,-220.16C1371.17,-207.26 1436.81,-187.54 1478.68,-174.96"/>
<polygon fill="#1414ce" stroke="#1414ce" points="1479.7,-178.31 1488.27,-172.08 1477.68,-171.61 1479.7,-178.31"/>
</a>
</g>
</g>
<!-- 12 -->
<g id="node31" class="node">
<title>12</title>
<g id="a_node31"><a xlink:title="stdio.h">
<polygon fill="#ffffff" stroke="black" points="665,-108 600,-108 600,-72 665,-72 665,-108"/>
<text text-anchor="middle" x="632.5" y="-86.3" font-family="Times,serif" font-size="14.00">stdio.h</text>
</a>
</g>
</g>
<!-- 19&#45;&gt;12 -->
<g id="edge66" class="edge">
<title>19&#45;&gt;12</title>
<g id="a_edge66"><a xlink:title="include">
<path fill="none" stroke="#1414ce" d="M1242.75,-229.37C1113.23,-218.33 733.31,-185.55 721.5,-180 717.38,-178.06 680.95,-140.97 655.99,-115.29"/>
<polygon fill="#1414ce" stroke="#1414ce" points="658.46,-112.8 648.98,-108.06 653.43,-117.68 658.46,-112.8"/>
</a>
</g>
</g>
<!-- 21&#45;&gt;5 -->
<g id="edge75" class="edge">
<title>21&#45;&gt;5</title>
<g id="a_edge75"><a xlink:title="include">
<path fill="none" stroke="#1414ce" d="M407.54,-431.68C406.37,-401.76 406.09,-338.69 420.5,-288 430.88,-251.49 452.56,-213.31 468.02,-188.91"/>
<polygon fill="#1414ce" stroke="#1414ce" points="471.12,-190.56 473.61,-180.26 465.24,-186.76 471.12,-190.56"/>
</a>
</g>
</g>
<!-- 21&#45;&gt;24 -->
<g id="edge76" class="edge">
<title>21&#45;&gt;24</title>
<g id="a_edge76"><a xlink:title="include">
<path fill="none" stroke="#1414ce" d="M441,-438.37C479.13,-425.9 542.32,-405.23 583.18,-391.86"/>
<polygon fill="#1414ce" stroke="#1414ce" points="584.39,-395.15 592.8,-388.71 582.21,-388.5 584.39,-395.15"/>
</a>
</g>
</g>
<!-- 21&#45;&gt;25 -->
<g id="edge77" class="edge">
<title>21&#45;&gt;25</title>
<g id="a_edge77"><a xlink:title="include">
<path fill="none" stroke="#1414ce" d="M388.38,-431.85C377.88,-422.13 365.4,-409.28 356.5,-396 327.48,-352.69 306.38,-295.18 295.61,-261.91"/>
<polygon fill="#1414ce" stroke="#1414ce" points="298.83,-260.49 292.48,-252.01 292.16,-262.6 298.83,-260.49"/>
</a>
</g>
</g>
<!-- 21&#45;&gt;26 -->
<g id="edge78" class="edge">
<title>21&#45;&gt;26</title>
<g id="a_edge78"><a xlink:title="include">
<path fill="none" stroke="#1414ce" d="M441.04,-444.41C521.95,-432.99 733.35,-403.15 840.4,-388.05"/>
<polygon fill="#1414ce" stroke="#1414ce" points="841.02,-391.49 850.43,-386.63 840.04,-384.56 841.02,-391.49"/>
</a>
</g>
</g>
<!-- 21&#45;&gt;14 -->
<g id="edge80" class="edge">
<title>21&#45;&gt;14</title>
<g id="a_edge80"><a xlink:title="include">
<path fill="none" stroke="#1414ce" d="M375.93,-446.87C310.01,-441.93 163.84,-427.64 126.5,-396 48.51,-329.92 65.33,-280.65 47.5,-180 44.71,-164.25 43.1,-159.38 47.5,-144 50.21,-134.51 55.17,-125.06 60.43,-116.83"/>
<polygon fill="#1414ce" stroke="#1414ce" points="63.42,-118.67 66.17,-108.43 57.64,-114.72 63.42,-118.67"/>
</a>
</g>
</g>
<!-- 21&#45;&gt;9 -->
<g id="edge79" class="edge">
<title>21&#45;&gt;9</title>
<g id="a_edge79"><a xlink:title="include">
<path fill="none" stroke="#1414ce" d="M413.13,-431.84C424.17,-390.96 451.32,-290.98 453.5,-288 491.82,-235.53 559.38,-198.86 602.76,-179.37"/>
<polygon fill="#1414ce" stroke="#1414ce" points="604.41,-182.46 612.16,-175.24 601.6,-176.05 604.41,-182.46"/>
</a>
</g>
</g>
<!-- 21&#45;&gt;8 -->
<g id="edge70" class="edge">
<title>21&#45;&gt;8</title>
<g id="a_edge70"><a xlink:title="include">
<path fill="none" stroke="#1414ce" d="M441.39,-448.4C555.87,-445.98 931.95,-435.08 967.5,-396 999.8,-360.49 980.96,-334.07 967.5,-288 962.18,-269.78 949.82,-270.22 944.5,-252 940.01,-236.64 942.44,-231.87 944.5,-216 948.99,-181.37 960.21,-142.67 968.32,-117.63"/>
<polygon fill="#1414ce" stroke="#1414ce" points="971.66,-118.7 971.47,-108.11 965.01,-116.5 971.66,-118.7"/>
</a>
</g>
</g>
<!-- 21&#45;&gt;4 -->
<g id="edge71" class="edge">
<title>21&#45;&gt;4</title>
<g id="a_edge71"><a xlink:title="include">
<path fill="none" stroke="#1414ce" d="M375.84,-446.47C317.75,-441.23 200.21,-426.97 175.5,-396 169.99,-389.1 169.59,-322.28 177.5,-288 201.21,-185.28 194.6,-139.59 275.5,-72 300.1,-51.45 385.09,-34.76 439.12,-25.91"/>
<polygon fill="#1414ce" stroke="#1414ce" points="439.83,-29.34 449.15,-24.29 438.72,-22.43 439.83,-29.34"/>
</a>
</g>
</g>
<!-- 21&#45;&gt;12 -->
<g id="edge72" class="edge">
<title>21&#45;&gt;12</title>
<g id="a_edge72"><a xlink:title="include">
<path fill="none" stroke="#1414ce" d="M404.23,-431.93C392.48,-380.46 365.46,-225.35 443.5,-144 481.53,-104.36 546.61,-93.62 589.59,-91.11"/>
<polygon fill="#1414ce" stroke="#1414ce" points="589.92,-94.6 599.75,-90.65 589.6,-87.61 589.92,-94.6"/>
</a>
</g>
</g>
<!-- 21&#45;&gt;6 -->
<g id="edge73" class="edge">
<title>21&#45;&gt;6</title>
<g id="a_edge73"><a xlink:title="include">
<path fill="none" stroke="#1414ce" d="M375.94,-445.64C322.34,-439.37 219.28,-423.92 197.5,-396 167.41,-357.41 165.76,-321.3 235.5,-216 266.26,-169.56 320.38,-133.93 358.88,-112.81"/>
<polygon fill="#1414ce" stroke="#1414ce" points="360.66,-115.83 367.81,-108.01 357.35,-109.66 360.66,-115.83"/>
</a>
</g>
</g>
<!-- 21&#45;&gt;23 -->
<g id="edge74" class="edge">
<title>21&#45;&gt;23</title>
<g id="a_edge74"><a xlink:title="include">
<path fill="none" stroke="#1414ce" d="M428.58,-431.82C439.07,-422.09 451.55,-409.24 460.5,-396 473.65,-376.54 484.03,-351.93 490.77,-333.52"/>
<polygon fill="#1414ce" stroke="#1414ce" points="494.1,-334.6 494.13,-324 487.5,-332.26 494.1,-334.6"/>
</a>
</g>
</g>
<!-- 22 -->
<g id="node34" class="node">
<title>22</title>
<g id="a_node34"><a xlink:title="sys/types.h">
<polygon fill="#ffffff" stroke="black" points="304,-396 207,-396 207,-360 304,-360 304,-396"/>
<text text-anchor="middle" x="255.5" y="-374.3" font-family="Times,serif" font-size="14.00">sys/types.h</text>
</a>
</g>
</g>
<!-- 21&#45;&gt;22 -->
<g id="edge69" class="edge">
<title>21&#45;&gt;22</title>
<g id="a_edge69"><a xlink:title="include">
<path fill="none" stroke="#1414ce" d="M375.68,-433.98C354.21,-424.16 325.83,-411.18 302.04,-400.29"/>
<polygon fill="#1414ce" stroke="#1414ce" points="303.39,-397.06 292.84,-396.08 300.48,-403.43 303.39,-397.06"/>
</a>
</g>
</g>
<!-- 15 -->
<g id="node25" class="node">
<title>15</title>
<g id="a_node25"><a xlink:title="assert.h">
<polygon fill="#ffffff" stroke="black" points="163.5,-36 89.5,-36 89.5,0 163.5,0 163.5,-36"/>
<text text-anchor="middle" x="126.5" y="-14.3" font-family="Times,serif" font-size="14.00">assert.h</text>
</a>
</g>
</g>
<!-- 14&#45;&gt;15 -->
<g id="edge81" class="edge">
<title>14&#45;&gt;15</title>
<g id="a_edge81"><a xlink:title="include">
<path fill="none" stroke="#1414ce" d="M91.87,-71.7C97.22,-63.56 103.7,-53.69 109.61,-44.7"/>
<polygon fill="#1414ce" stroke="#1414ce" points="112.69,-46.38 115.26,-36.1 106.84,-42.54 112.69,-46.38"/>
</a>
</g>
</g>
<!-- 10 -->
<g id="node26" class="node">
<title>10</title>
<g id="a_node26"><a xlink:title="inttypes.h">
<polygon fill="#ffffff" stroke="black" points="358,-36 269,-36 269,0 358,0 358,-36"/>
<text text-anchor="middle" x="313.5" y="-14.3" font-family="Times,serif" font-size="14.00">inttypes.h</text>
</a>
</g>
</g>
<!-- 14&#45;&gt;10 -->
<g id="edge83" class="edge">
<title>14&#45;&gt;10</title>
<g id="a_edge83"><a xlink:title="include">
<path fill="none" stroke="#1414ce" d="M137.2,-71.97C174.14,-60.87 222.08,-46.46 258.65,-35.48"/>
<polygon fill="#1414ce" stroke="#1414ce" points="260.07,-38.71 268.64,-32.48 258.05,-32 260.07,-38.71"/>
</a>
</g>
</g>
<!-- 16 -->
<g id="node27" class="node">
<title>16</title>
<g id="a_node27"><a xlink:title="limits.h">
<polygon fill="#ffffff" stroke="black" points="71,-36 0,-36 0,0 71,0 71,-36"/>
<text text-anchor="middle" x="35.5" y="-14.3" font-family="Times,serif" font-size="14.00">limits.h</text>
</a>
</g>
</g>
<!-- 14&#45;&gt;16 -->
<g id="edge82" class="edge">
<title>14&#45;&gt;16</title>
<g id="a_edge82"><a xlink:title="include">
<path fill="none" stroke="#1414ce" d="M69.38,-71.7C64.14,-63.56 57.8,-53.69 52.02,-44.7"/>
<polygon fill="#1414ce" stroke="#1414ce" points="54.85,-42.62 46.5,-36.1 48.96,-46.41 54.85,-42.62"/>
</a>
</g>
</g>
<!-- 14&#45;&gt;4 -->
<g id="edge84" class="edge">
<title>14&#45;&gt;4</title>
<g id="a_edge84"><a xlink:title="include">
<path fill="none" stroke="#1414ce" d="M143.05,-74.88C147.93,-73.87 152.79,-72.9 157.5,-72 257.6,-52.88 375.74,-34.91 439.36,-25.61"/>
<polygon fill="#1414ce" stroke="#1414ce" points="440.07,-29.04 449.47,-24.13 439.07,-22.11 440.07,-29.04"/>
</a>
</g>
</g>
<!-- 29&#45;&gt;18 -->
<g id="edge87" class="edge">
<title>29&#45;&gt;18</title>
<g id="a_edge87"><a xlink:title="include">
<path fill="none" stroke="#1414ce" d="M1422.35,-218.67C1376.62,-205.33 1309.49,-185.75 1268.24,-173.72"/>
<polygon fill="#1414ce" stroke="#1414ce" points="1269.17,-170.34 1258.59,-170.9 1267.21,-177.06 1269.17,-170.34"/>
</a>
</g>
</g>
<!-- 29&#45;&gt;8 -->
<g id="edge85" class="edge">
<title>29&#45;&gt;8</title>
<g id="a_edge85"><a xlink:title="include">
<path fill="none" stroke="#1414ce" d="M1438.82,-215.93C1399.27,-195.93 1330.15,-163.11 1267.5,-144 1185.99,-119.14 1087.83,-104.2 1029.16,-96.79"/>
<polygon fill="#1414ce" stroke="#1414ce" points="1029.39,-93.29 1019.03,-95.53 1028.53,-100.24 1029.39,-93.29"/>
</a>
</g>
</g>
<!-- 29&#45;&gt;4 -->
<g id="edge86" class="edge">
<title>29&#45;&gt;4</title>
<g id="a_edge86"><a xlink:title="include">
<path fill="none" stroke="#1414ce" d="M1448.61,-215.79C1421.02,-195.8 1372.6,-163.15 1326.5,-144 1041.82,-25.72 661.91,-17.23 531.62,-18.12"/>
<polygon fill="#1414ce" stroke="#1414ce" points="531.55,-14.62 521.59,-18.21 531.62,-21.62 531.55,-14.62"/>
</a>
</g>
</g>
<!-- 33&#45;&gt;8 -->
<g id="edge88" class="edge">
<title>33&#45;&gt;8</title>
<g id="a_edge88"><a xlink:title="include">
<path fill="none" stroke="#1414ce" d="M816.76,-146.15C848.7,-135.2 892.29,-120.24 926.01,-108.67"/>
<polygon fill="#1414ce" stroke="#1414ce" points="927.37,-111.9 935.69,-105.35 925.1,-105.28 927.37,-111.9"/>
</a>
</g>
</g>
<!-- 11 -->
<g id="node29" class="node">
<title>11</title>
<g id="a_node29"><a xlink:title="stddef.h">
<polygon fill="#ffffff" stroke="black" points="757.5,-108 683.5,-108 683.5,-72 757.5,-72 757.5,-108"/>
<text text-anchor="middle" x="720.5" y="-86.3" font-family="Times,serif" font-size="14.00">stddef.h</text>
</a>
</g>
</g>
<!-- 33&#45;&gt;11 -->
<g id="edge89" class="edge">
<title>33&#45;&gt;11</title>
<g id="a_edge89"><a xlink:title="include">
<path fill="none" stroke="#1414ce" d="M760.4,-143.7C754.11,-135.39 746.45,-125.28 739.54,-116.14"/>
<polygon fill="#1414ce" stroke="#1414ce" points="742.28,-113.96 733.45,-108.1 736.7,-118.19 742.28,-113.96"/>
</a>
</g>
</g>
<!-- 33&#45;&gt;4 -->
<g id="edge90" class="edge">
<title>33&#45;&gt;4</title>
<g id="a_edge90"><a xlink:title="include">
<path fill="none" stroke="#1414ce" d="M777.69,-143.9C781.44,-124.04 784,-91.49 766.5,-72 735.88,-37.89 603.22,-25.41 531.66,-21.11"/>
<polygon fill="#1414ce" stroke="#1414ce" points="531.75,-17.61 521.57,-20.53 531.35,-24.59 531.75,-17.61"/>
</a>
</g>
</g>
<!-- 9&#45;&gt;10 -->
<g id="edge91" class="edge">
<title>9&#45;&gt;10</title>
<g id="a_edge91"><a xlink:title="include">
<path fill="none" stroke="#1414ce" d="M612.48,-146.34C574.02,-128.29 506.32,-96.97 447.5,-72 421.38,-60.91 392.09,-49.24 367.58,-39.69"/>
<polygon fill="#1414ce" stroke="#1414ce" points="368.68,-36.36 358.09,-36 366.14,-42.88 368.68,-36.36"/>
</a>
</g>
</g>
<!-- 9&#45;&gt;8 -->
<g id="edge92" class="edge">
<title>9&#45;&gt;8</title>
<g id="a_edge92"><a xlink:title="include">
<path fill="none" stroke="#1414ce" d="M674.61,-154.14C688.89,-151.01 706.05,-147.28 721.5,-144 792.26,-128.97 874.13,-112.11 925.86,-101.53"/>
<polygon fill="#1414ce" stroke="#1414ce" points="926.7,-104.93 935.79,-99.5 925.29,-98.07 926.7,-104.93"/>
</a>
</g>
</g>
<!-- 9&#45;&gt;11 -->
<g id="edge93" class="edge">
<title>9&#45;&gt;11</title>
<g id="a_edge93"><a xlink:title="include">
<path fill="none" stroke="#1414ce" d="M662.53,-143.7C672.04,-135.05 683.71,-124.45 694.07,-115.03"/>
<polygon fill="#1414ce" stroke="#1414ce" points="696.64,-117.42 701.69,-108.1 691.93,-112.24 696.64,-117.42"/>
</a>
</g>
</g>
<!-- 9&#45;&gt;12 -->
<g id="edge94" class="edge">
<title>9&#45;&gt;12</title>
<g id="a_edge94"><a xlink:title="include">
<path fill="none" stroke="#1414ce" d="M640.78,-143.7C639.57,-135.98 638.11,-126.71 636.76,-118.11"/>
<polygon fill="#1414ce" stroke="#1414ce" points="640.2,-117.44 635.19,-108.1 633.28,-118.53 640.2,-117.44"/>
</a>
</g>
</g>
<!-- 9&#45;&gt;6 -->
<g id="edge95" class="edge">
<title>9&#45;&gt;6</title>
<g id="a_edge95"><a xlink:title="include">
<path fill="none" stroke="#1414ce" d="M612.16,-148.72C607.61,-147.07 602.95,-145.44 598.5,-144 547.84,-127.59 488.7,-112.01 448.95,-102.04"/>
<polygon fill="#1414ce" stroke="#1414ce" points="449.58,-98.59 439.03,-99.57 447.88,-105.38 449.58,-98.59"/>
</a>
</g>
</g>
<!-- 30&#45;&gt;11 -->
<g id="edge96" class="edge">
<title>30&#45;&gt;11</title>
<g id="a_edge96"><a xlink:title="include">
<path fill="none" stroke="#1414ce" d="M1619.38,-150.87C1599.35,-148.35 1577.61,-145.84 1557.5,-144 1278.21,-118.47 1207.28,-127.48 927.5,-108 872.78,-104.19 810.01,-98.91 768.07,-95.24"/>
<polygon fill="#1414ce" stroke="#1414ce" points="768.14,-91.74 757.87,-94.35 767.53,-98.71 768.14,-91.74"/>
</a>
</g>
</g>
<!-- 30&#45;&gt;4 -->
<g id="edge97" class="edge">
<title>30&#45;&gt;4</title>
<g id="a_edge97"><a xlink:title="include">
<path fill="none" stroke="#1414ce" d="M1681.75,-143.83C1667.34,-122.57 1639.6,-87.31 1605.5,-72 1506.55,-27.57 730.9,-20.33 531.9,-19.2"/>
<polygon fill="#1414ce" stroke="#1414ce" points="531.8,-15.7 521.78,-19.15 531.76,-22.7 531.8,-15.7"/>
</a>
</g>
</g>
</g>
</svg>
