<?xml version="1.0" encoding="UTF-8" standalone="no"?>
<!DOCTYPE svg PUBLIC "-//W3C//DTD SVG 1.1//EN"
 "http://www.w3.org/Graphics/SVG/1.1/DTD/svg11.dtd">
<!-- Generated by graphviz version 2.43.0 (0)
 -->
<!-- Title: %3 Pages: 1 -->
<svg width="1252pt" height="404pt"
 viewBox="0.00 0.00 1252.00 404.00" xmlns="http://www.w3.org/2000/svg" xmlns:xlink="http://www.w3.org/1999/xlink">
<g id="graph0" class="graph" transform="scale(1 1) rotate(0) translate(4 400)">
<title>%3</title>
<polygon fill="transparent" stroke="transparent" points="-4,4 -4,-400 1248,-400 1248,4 -4,4"/>
<!-- 23 -->
<g id="node1" class="node">
<title>23</title>
<g id="a_node1"><a xlink:title="SpinLock">
<polygon fill="#ffffff" stroke="black" points="82,-324 0,-324 0,-288 82,-288 82,-324"/>
<text text-anchor="middle" x="41" y="-302.3" font-family="Times,serif" font-size="14.00">SpinLock</text>
</a>
</g>
</g>
<!-- 1 -->
<g id="node2" class="node">
<title>1</title>
<g id="a_node2"><a xlink:title="ResourceType">
<polygon fill="#bfbfbf" stroke="black" points="369.5,-180 252.5,-180 252.5,-144 369.5,-144 369.5,-180"/>
<text text-anchor="middle" x="311" y="-158.3" font-family="Times,serif" font-size="14.00">ResourceType</text>
</a>
</g>
</g>
<!-- 3 -->
<g id="node4" class="node">
<title>3</title>
<g id="a_node4"><a xlink:title="ListHead">
<polygon fill="#ffffff" stroke="black" points="388.5,-36 307.5,-36 307.5,0 388.5,0 388.5,-36"/>
<text text-anchor="middle" x="348" y="-14.3" font-family="Times,serif" font-size="14.00">ListHead</text>
</a>
</g>
</g>
<!-- 1&#45;&gt;3 -->
<g id="edge3" class="edge">
<title>1&#45;&gt;3</title>
<g id="a_edge3"><a xlink:title="usage">
<path fill="none" stroke="#1414ce" d="M317.35,-143.97C321.05,-133.66 325.64,-120.18 329,-108 334.63,-87.57 339.58,-64.11 343.01,-46.4"/>
<polygon fill="#1414ce" stroke="#1414ce" points="346.52,-46.68 344.95,-36.21 339.64,-45.38 346.52,-46.68"/>
</a>
</g>
</g>
<!-- 4 -->
<g id="node7" class="node">
<title>4</title>
<g id="a_node7"><a xlink:title="GlobalContext">
<polygon fill="#ffffff" stroke="black" points="364.5,-396 245.5,-396 245.5,-360 364.5,-360 364.5,-396"/>
<text text-anchor="middle" x="305" y="-374.3" font-family="Times,serif" font-size="14.00">GlobalContext</text>
</a>
</g>
</g>
<!-- 1&#45;&gt;4 -->
<g id="edge2" class="edge">
<title>1&#45;&gt;4</title>
<g id="a_edge2"><a xlink:title="usage">
<path fill="none" stroke="#1414ce" d="M314.4,-180.23C316.89,-217.32 314.7,-304.98 310.45,-349.71"/>
<polygon fill="#1414ce" stroke="#1414ce" points="306.95,-349.53 309.36,-359.85 313.91,-350.28 306.95,-349.53"/>
</a>
</g>
</g>
<!-- 2 -->
<g id="node22" class="node">
<title>2</title>
<g id="a_node22"><a xlink:title="SyncList">
<polygon fill="#ffffff" stroke="black" points="320,-108 242,-108 242,-72 320,-72 320,-108"/>
<text text-anchor="middle" x="281" y="-86.3" font-family="Times,serif" font-size="14.00">SyncList</text>
</a>
</g>
</g>
<!-- 1&#45;&gt;2 -->
<g id="edge1" class="edge">
<title>1&#45;&gt;2</title>
<g id="a_edge1"><a xlink:title="usage">
<path fill="none" stroke="#1414ce" d="M303.58,-143.7C300.21,-135.81 296.13,-126.3 292.38,-117.55"/>
<polygon fill="#1414ce" stroke="#1414ce" points="295.49,-115.92 288.33,-108.1 289.05,-118.67 295.49,-115.92"/>
</a>
</g>
</g>
<!-- 16 -->
<g id="node3" class="node">
<title>16</title>
<g id="a_node3"><a xlink:title="Module">
<polygon fill="#ffffff" stroke="black" points="686,-324 616,-324 616,-288 686,-288 686,-324"/>
<text text-anchor="middle" x="651" y="-302.3" font-family="Times,serif" font-size="14.00">Module</text>
</a>
</g>
</g>
<!-- 21 -->
<g id="node11" class="node">
<title>21</title>
<g id="a_node11"><a xlink:title="LiteralEntry">
<polygon fill="#ffffff" stroke="black" points="560,-252 456,-252 456,-216 560,-216 560,-252"/>
<text text-anchor="middle" x="508" y="-230.3" font-family="Times,serif" font-size="14.00">LiteralEntry</text>
</a>
</g>
</g>
<!-- 16&#45;&gt;21 -->
<g id="edge6" class="edge">
<title>16&#45;&gt;21</title>
<g id="a_edge6"><a xlink:title="usage">
<path fill="none" stroke="#1414ce" d="M616.02,-287.88C596.8,-278.47 572.77,-266.71 552.26,-256.67"/>
<polygon fill="#1414ce" stroke="#1414ce" points="553.64,-253.44 543.12,-252.19 550.56,-259.73 553.64,-253.44"/>
</a>
</g>
</g>
<!-- 18 -->
<g id="node14" class="node">
<title>18</title>
<g id="a_node14"><a xlink:title="Context">
<polygon fill="#ffffff" stroke="black" points="815.5,-252 742.5,-252 742.5,-216 815.5,-216 815.5,-252"/>
<text text-anchor="middle" x="779" y="-230.3" font-family="Times,serif" font-size="14.00">Context</text>
</a>
</g>
</g>
<!-- 16&#45;&gt;18 -->
<g id="edge5" class="edge">
<title>16&#45;&gt;18</title>
<g id="a_edge5"><a xlink:title="usage">
<path fill="none" stroke="#1414ce" d="M676.42,-287.88C692.68,-278.44 714.13,-266.64 733.25,-256.58"/>
<polygon fill="#1414ce" stroke="#1414ce" points="734.89,-259.68 742.13,-251.95 731.65,-253.47 734.89,-259.68"/>
</a>
</g>
</g>
<!-- 17 -->
<g id="node20" class="node">
<title>17</title>
<g id="a_node20"><a xlink:title="ExportedFunction">
<polygon fill="#ffffff" stroke="black" points="724,-252 578,-252 578,-216 724,-216 724,-252"/>
<text text-anchor="middle" x="651" y="-230.3" font-family="Times,serif" font-size="14.00">ExportedFunction</text>
</a>
</g>
</g>
<!-- 16&#45;&gt;17 -->
<g id="edge4" class="edge">
<title>16&#45;&gt;17</title>
<g id="a_edge4"><a xlink:title="usage">
<path fill="none" stroke="#1414ce" d="M651,-287.7C651,-279.98 651,-270.71 651,-262.11"/>
<polygon fill="#1414ce" stroke="#1414ce" points="654.5,-262.1 651,-252.1 647.5,-262.1 654.5,-262.1"/>
</a>
</g>
</g>
<!-- 3&#45;&gt;3 -->
<g id="edge7" class="edge">
<title>3&#45;&gt;3</title>
<g id="a_edge7"><a xlink:title="usage">
<path fill="none" stroke="#1414ce" d="M388.73,-31.31C398.9,-30.38 406.5,-25.95 406.5,-18 406.5,-12.91 403.38,-9.26 398.47,-7.05"/>
<polygon fill="#1414ce" stroke="#1414ce" points="399.28,-3.64 388.73,-4.69 397.63,-10.45 399.28,-3.64"/>
</a>
</g>
</g>
<!-- 9 -->
<g id="node5" class="node">
<title>9</title>
<g id="a_node5"><a xlink:title="HeapFragment">
<polygon fill="#ffffff" stroke="black" points="876.5,-36 751.5,-36 751.5,0 876.5,0 876.5,-36"/>
<text text-anchor="middle" x="814" y="-14.3" font-family="Times,serif" font-size="14.00">HeapFragment</text>
</a>
</g>
</g>
<!-- 9&#45;&gt;9 -->
<g id="edge8" class="edge">
<title>9&#45;&gt;9</title>
<g id="a_edge8"><a xlink:title="usage">
<path fill="none" stroke="#1414ce" d="M876.78,-30.55C887.26,-28.79 894.5,-24.61 894.5,-18 894.5,-13.77 891.53,-10.53 886.64,-8.29"/>
<polygon fill="#1414ce" stroke="#1414ce" points="887.36,-4.85 876.78,-5.45 885.42,-11.58 887.36,-4.85"/>
</a>
</g>
</g>
<!-- 14 -->
<g id="node6" class="node">
<title>14</title>
<g id="a_node6"><a xlink:title="RefcBinaryQueueItem">
<polygon fill="#ffffff" stroke="black" points="516,-324 342,-324 342,-288 516,-288 516,-324"/>
<text text-anchor="middle" x="429" y="-302.3" font-family="Times,serif" font-size="14.00">RefcBinaryQueueItem</text>
</a>
</g>
</g>
<!-- 14&#45;&gt;14 -->
<g id="edge10" class="edge">
<title>14&#45;&gt;14</title>
<g id="a_edge10"><a xlink:title="usage">
<path fill="none" stroke="#1414ce" d="M516.3,-317.68C526.99,-315.59 534,-311.7 534,-306 534,-302.35 531.12,-299.44 526.25,-297.27"/>
<polygon fill="#1414ce" stroke="#1414ce" points="526.88,-293.81 516.3,-294.32 524.89,-300.52 526.88,-293.81"/>
</a>
</g>
</g>
<!-- 15 -->
<g id="node16" class="node">
<title>15</title>
<g id="a_node16"><a xlink:title="RefcBinary">
<polygon fill="#ffffff" stroke="black" points="437.5,-252 342.5,-252 342.5,-216 437.5,-216 437.5,-252"/>
<text text-anchor="middle" x="390" y="-230.3" font-family="Times,serif" font-size="14.00">RefcBinary</text>
</a>
</g>
</g>
<!-- 14&#45;&gt;15 -->
<g id="edge9" class="edge">
<title>14&#45;&gt;15</title>
<g id="a_edge9"><a xlink:title="usage">
<path fill="none" stroke="#1414ce" d="M419.36,-287.7C414.87,-279.64 409.44,-269.89 404.48,-260.98"/>
<polygon fill="#1414ce" stroke="#1414ce" points="407.45,-259.14 399.53,-252.1 401.34,-262.54 407.45,-259.14"/>
</a>
</g>
</g>
<!-- 4&#45;&gt;23 -->
<g id="edge20" class="edge">
<title>4&#45;&gt;23</title>
<g id="a_edge20"><a xlink:title="usage">
<path fill="none" stroke="#1414ce" d="M245.33,-362.73C203.4,-352.5 146.09,-338.08 96,-324 94.59,-323.6 93.15,-323.2 91.71,-322.78"/>
<polygon fill="#1414ce" stroke="#1414ce" points="92.66,-319.41 82.08,-319.95 90.69,-326.13 92.66,-319.41"/>
</a>
</g>
</g>
<!-- 4&#45;&gt;1 -->
<g id="edge11" class="edge">
<title>4&#45;&gt;1</title>
<g id="a_edge11"><a xlink:title="usage">
<path fill="none" stroke="#1414ce" d="M301.6,-359.85C299.11,-322.83 301.29,-235.18 305.54,-190.39"/>
<polygon fill="#1414ce" stroke="#1414ce" points="309.04,-190.55 306.63,-180.23 302.08,-189.8 309.04,-190.55"/>
</a>
</g>
</g>
<!-- 4&#45;&gt;16 -->
<g id="edge18" class="edge">
<title>4&#45;&gt;16</title>
<g id="a_edge18"><a xlink:title="usage">
<path fill="none" stroke="#1414ce" d="M364.87,-364.89C433.4,-351.02 544.09,-328.63 605.78,-316.15"/>
<polygon fill="#1414ce" stroke="#1414ce" points="606.5,-319.57 615.61,-314.16 605.12,-312.71 606.5,-319.57"/>
</a>
</g>
</g>
<!-- 4&#45;&gt;3 -->
<g id="edge21" class="edge">
<title>4&#45;&gt;3</title>
<g id="a_edge21"><a xlink:title="usage">
<path fill="none" stroke="#1414ce" d="M245.43,-361.07C188.09,-341.69 110,-302.84 110,-235 110,-235 110,-235 110,-161 110,-120.55 100.79,-100.99 129,-72 152.04,-48.33 239.97,-32.83 297.16,-25.01"/>
<polygon fill="#1414ce" stroke="#1414ce" points="297.66,-28.48 307.11,-23.69 296.73,-21.54 297.66,-28.48"/>
</a>
</g>
</g>
<!-- 4&#45;&gt;14 -->
<g id="edge16" class="edge">
<title>4&#45;&gt;14</title>
<g id="a_edge16"><a xlink:title="usage">
<path fill="none" stroke="#1414ce" d="M335.33,-359.88C351.7,-350.64 372.08,-339.13 389.65,-329.21"/>
<polygon fill="#1414ce" stroke="#1414ce" points="391.56,-332.15 398.55,-324.19 388.12,-326.06 391.56,-332.15"/>
</a>
</g>
</g>
<!-- 5 -->
<g id="node8" class="node">
<title>5</title>
<g id="a_node8"><a xlink:title="Ets">
<polygon fill="#ffffff" stroke="black" points="268,-324 214,-324 214,-288 268,-288 268,-324"/>
<text text-anchor="middle" x="241" y="-302.3" font-family="Times,serif" font-size="14.00">Ets</text>
</a>
</g>
</g>
<!-- 4&#45;&gt;5 -->
<g id="edge12" class="edge">
<title>4&#45;&gt;5</title>
<g id="a_edge12"><a xlink:title="usage">
<path fill="none" stroke="#1414ce" d="M289.18,-359.7C281.43,-351.22 271.96,-340.86 263.48,-331.58"/>
<polygon fill="#1414ce" stroke="#1414ce" points="265.97,-329.12 256.64,-324.1 260.8,-333.85 265.97,-329.12"/>
</a>
</g>
</g>
<!-- 22 -->
<g id="node10" class="node">
<title>22</title>
<g id="a_node10"><a xlink:title="TimerList">
<polygon fill="#ffffff" stroke="black" points="224,-108 138,-108 138,-72 224,-72 224,-108"/>
<text text-anchor="middle" x="181" y="-86.3" font-family="Times,serif" font-size="14.00">TimerList</text>
</a>
</g>
</g>
<!-- 4&#45;&gt;22 -->
<g id="edge19" class="edge">
<title>4&#45;&gt;22</title>
<g id="a_edge19"><a xlink:title="usage">
<path fill="none" stroke="#1414ce" d="M245.37,-364.11C223.63,-356.26 201.17,-343.76 188,-324 145.74,-260.57 161.87,-164.37 173.35,-117.94"/>
<polygon fill="#1414ce" stroke="#1414ce" points="176.8,-118.59 175.92,-108.03 170.02,-116.84 176.8,-118.59"/>
</a>
</g>
</g>
<!-- 10 -->
<g id="node15" class="node">
<title>10</title>
<g id="a_node15"><a xlink:title="MessageQueueItem">
<polygon fill="#ffffff" stroke="black" points="1226,-180 1068,-180 1068,-144 1226,-144 1226,-180"/>
<text text-anchor="middle" x="1147" y="-158.3" font-family="Times,serif" font-size="14.00">MessageQueueItem</text>
</a>
</g>
</g>
<!-- 4&#45;&gt;10 -->
<g id="edge14" class="edge">
<title>4&#45;&gt;10</title>
<g id="a_edge14"><a xlink:title="usage">
<path fill="none" stroke="#1414ce" d="M364.51,-377.37C482.49,-377 753.84,-370.6 976,-324 1071.33,-304 1126.56,-331.39 1183,-252 1196.88,-232.48 1183.83,-206.82 1169.71,-188.07"/>
<polygon fill="#1414ce" stroke="#1414ce" points="1172.43,-185.87 1163.45,-180.25 1166.96,-190.24 1172.43,-185.87"/>
</a>
</g>
</g>
<!-- 6 -->
<g id="node17" class="node">
<title>6</title>
<g id="a_node17"><a xlink:title="ValuesHashTable">
<polygon fill="#ffffff" stroke="black" points="1174,-252 1036,-252 1036,-216 1174,-216 1174,-252"/>
<text text-anchor="middle" x="1105" y="-230.3" font-family="Times,serif" font-size="14.00">ValuesHashTable</text>
</a>
</g>
</g>
<!-- 4&#45;&gt;6 -->
<g id="edge13" class="edge">
<title>4&#45;&gt;6</title>
<g id="a_edge13"><a xlink:title="usage">
<path fill="none" stroke="#1414ce" d="M364.77,-374.52C497.64,-368.58 813.93,-351.89 917,-324 972.43,-309 1031.54,-278.29 1068.37,-257.18"/>
<polygon fill="#1414ce" stroke="#1414ce" points="1070.34,-260.08 1077.24,-252.04 1066.83,-254.03 1070.34,-260.08"/>
</a>
</g>
</g>
<!-- 12 -->
<g id="node19" class="node">
<title>12</title>
<g id="a_node19"><a xlink:title="AtomTable">
<polygon fill="#ffffff" stroke="black" points="908,-324 816,-324 816,-288 908,-288 908,-324"/>
<text text-anchor="middle" x="862" y="-302.3" font-family="Times,serif" font-size="14.00">AtomTable</text>
</a>
</g>
</g>
<!-- 4&#45;&gt;12 -->
<g id="edge15" class="edge">
<title>4&#45;&gt;12</title>
<g id="a_edge15"><a xlink:title="usage">
<path fill="none" stroke="#1414ce" d="M364.52,-371.06C451.7,-362.14 619.17,-344.17 761,-324 775.59,-321.93 791.32,-319.41 805.92,-316.96"/>
<polygon fill="#1414ce" stroke="#1414ce" points="806.55,-320.41 815.82,-315.28 805.37,-313.51 806.55,-320.41"/>
</a>
</g>
</g>
<!-- 4&#45;&gt;2 -->
<g id="edge17" class="edge">
<title>4&#45;&gt;2</title>
<g id="a_edge17"><a xlink:title="usage">
<path fill="none" stroke="#1414ce" d="M248.56,-359.96C231.56,-351.89 214.83,-340.33 205,-324 182.78,-287.08 180.54,-246.38 232,-144 237.26,-133.54 245.2,-123.66 253.17,-115.33"/>
<polygon fill="#1414ce" stroke="#1414ce" points="255.79,-117.66 260.42,-108.13 250.86,-112.69 255.79,-117.66"/>
</a>
</g>
</g>
<!-- 5&#45;&gt;2 -->
<g id="edge22" class="edge">
<title>5&#45;&gt;2</title>
<g id="a_edge22"><a xlink:title="usage">
<path fill="none" stroke="#1414ce" d="M238.09,-287.54C233.76,-257.38 227.76,-193.99 244,-144 247.19,-134.18 252.87,-124.57 258.83,-116.29"/>
<polygon fill="#1414ce" stroke="#1414ce" points="261.74,-118.25 265.06,-108.19 256.19,-113.98 261.74,-118.25"/>
</a>
</g>
</g>
<!-- 13 -->
<g id="node9" class="node">
<title>13</title>
<g id="a_node9"><a xlink:title="HNodeGroup">
<polygon fill="#ffffff" stroke="black" points="1000,-252 890,-252 890,-216 1000,-216 1000,-252"/>
<text text-anchor="middle" x="945" y="-230.3" font-family="Times,serif" font-size="14.00">HNodeGroup</text>
</a>
</g>
</g>
<!-- 13&#45;&gt;13 -->
<g id="edge24" class="edge">
<title>13&#45;&gt;13</title>
<g id="a_edge24"><a xlink:title="usage">
<path fill="none" stroke="#1414ce" d="M1000.07,-246.85C1010.57,-245.32 1018,-241.03 1018,-234 1018,-229.5 1014.95,-226.12 1010,-223.87"/>
<polygon fill="#1414ce" stroke="#1414ce" points="1010.64,-220.42 1000.07,-221.15 1008.79,-227.17 1010.64,-220.42"/>
</a>
</g>
</g>
<!-- 7 -->
<g id="node23" class="node">
<title>7</title>
<g id="a_node23"><a xlink:title="HNode">
<polygon fill="#ffffff" stroke="black" points="976,-180 910,-180 910,-144 976,-144 976,-180"/>
<text text-anchor="middle" x="943" y="-158.3" font-family="Times,serif" font-size="14.00">HNode</text>
</a>
</g>
</g>
<!-- 13&#45;&gt;7 -->
<g id="edge23" class="edge">
<title>13&#45;&gt;7</title>
<g id="a_edge23"><a xlink:title="usage">
<path fill="none" stroke="#1414ce" d="M944.51,-215.7C944.29,-207.98 944.02,-198.71 943.77,-190.11"/>
<polygon fill="#1414ce" stroke="#1414ce" points="947.27,-190 943.49,-180.1 940.28,-190.2 947.27,-190"/>
</a>
</g>
</g>
<!-- 22&#45;&gt;3 -->
<g id="edge25" class="edge">
<title>22&#45;&gt;3</title>
<g id="a_edge25"><a xlink:title="usage">
<path fill="none" stroke="#1414ce" d="M221.85,-71.88C244.78,-62.26 273.58,-50.19 297.87,-40.01"/>
<polygon fill="#1414ce" stroke="#1414ce" points="299.41,-43.16 307.28,-36.07 296.7,-36.71 299.41,-43.16"/>
</a>
</g>
</g>
<!-- 11 -->
<g id="node12" class="node">
<title>11</title>
<g id="a_node12"><a xlink:title="MailboxMessage">
<polygon fill="#ffffff" stroke="black" points="1105.5,-108 968.5,-108 968.5,-72 1105.5,-72 1105.5,-108"/>
<text text-anchor="middle" x="1037" y="-86.3" font-family="Times,serif" font-size="14.00">MailboxMessage</text>
</a>
</g>
</g>
<!-- 11&#45;&gt;11 -->
<g id="edge26" class="edge">
<title>11&#45;&gt;11</title>
<g id="a_edge26"><a xlink:title="usage">
<path fill="none" stroke="#1414ce" d="M1105.53,-102.37C1116.21,-100.52 1123.5,-96.4 1123.5,-90 1123.5,-85.8 1120.36,-82.58 1115.18,-80.34"/>
<polygon fill="#1414ce" stroke="#1414ce" points="1116.1,-76.96 1105.53,-77.63 1114.21,-83.7 1116.1,-76.96"/>
</a>
</g>
</g>
<!-- 8 -->
<g id="node13" class="node">
<title>8</title>
<g id="a_node13"><a xlink:title="Heap">
<polygon fill="#ffffff" stroke="black" points="841,-108 787,-108 787,-72 841,-72 841,-108"/>
<text text-anchor="middle" x="814" y="-86.3" font-family="Times,serif" font-size="14.00">Heap</text>
</a>
</g>
</g>
<!-- 8&#45;&gt;9 -->
<g id="edge27" class="edge">
<title>8&#45;&gt;9</title>
<g id="a_edge27"><a xlink:title="usage">
<path fill="none" stroke="#1414ce" d="M814,-71.7C814,-63.98 814,-54.71 814,-46.11"/>
<polygon fill="#1414ce" stroke="#1414ce" points="817.5,-46.1 814,-36.1 810.5,-46.1 817.5,-46.1"/>
</a>
</g>
</g>
<!-- 18&#45;&gt;16 -->
<g id="edge31" class="edge">
<title>18&#45;&gt;16</title>
<g id="a_edge31"><a xlink:title="usage">
<path fill="none" stroke="#1414ce" d="M753.44,-252.21C736.74,-261.89 714.62,-274.05 695.16,-284.26"/>
<polygon fill="#1414ce" stroke="#1414ce" points="693.4,-281.22 686.15,-288.94 696.63,-287.43 693.4,-281.22"/>
</a>
</g>
</g>
<!-- 18&#45;&gt;3 -->
<g id="edge34" class="edge">
<title>18&#45;&gt;3</title>
<g id="a_edge34"><a xlink:title="usage">
<path fill="none" stroke="#1414ce" d="M744.46,-215.85C666.58,-177.18 477.41,-83.26 391.61,-40.65"/>
<polygon fill="#1414ce" stroke="#1414ce" points="392.92,-37.4 382.41,-36.08 389.81,-43.67 392.92,-37.4"/>
</a>
</g>
</g>
<!-- 18&#45;&gt;4 -->
<g id="edge33" class="edge">
<title>18&#45;&gt;4</title>
<g id="a_edge33"><a xlink:title="usage">
<path fill="none" stroke="#1414ce" d="M768.3,-252.06C754.25,-272.86 727.5,-307.3 695,-324 640.56,-351.98 471.3,-366.75 374.6,-373.1"/>
<polygon fill="#1414ce" stroke="#1414ce" points="374.37,-369.61 364.62,-373.75 374.82,-376.6 374.37,-369.61"/>
</a>
</g>
</g>
<!-- 18&#45;&gt;8 -->
<g id="edge32" class="edge">
<title>18&#45;&gt;8</title>
<g id="a_edge32"><a xlink:title="usage">
<path fill="none" stroke="#1414ce" d="M783.22,-215.87C789.21,-191.56 800.24,-146.82 807.34,-118.01"/>
<polygon fill="#1414ce" stroke="#1414ce" points="810.77,-118.74 809.76,-108.19 803.97,-117.06 810.77,-118.74"/>
</a>
</g>
</g>
<!-- 18&#45;&gt;18 -->
<g id="edge28" class="edge">
<title>18&#45;&gt;18</title>
<g id="a_edge28"><a xlink:title="usage">
<path fill="none" stroke="#1414ce" d="M815.68,-247.42C825.78,-246.77 833.5,-242.3 833.5,-234 833.5,-228.81 830.48,-225.12 825.76,-222.93"/>
<polygon fill="#1414ce" stroke="#1414ce" points="826.21,-219.44 815.68,-220.58 824.63,-226.26 826.21,-219.44"/>
</a>
</g>
</g>
<!-- 19 -->
<g id="node18" class="node">
<title>19</title>
<g id="a_node18"><a xlink:title="Mailbox">
<polygon fill="#ffffff" stroke="black" points="889,-180 815,-180 815,-144 889,-144 889,-180"/>
<text text-anchor="middle" x="852" y="-158.3" font-family="Times,serif" font-size="14.00">Mailbox</text>
</a>
</g>
</g>
<!-- 18&#45;&gt;19 -->
<g id="edge29" class="edge">
<title>18&#45;&gt;19</title>
<g id="a_edge29"><a xlink:title="usage">
<path fill="none" stroke="#1414ce" d="M797.04,-215.7C806.06,-207.05 817.12,-196.45 826.94,-187.03"/>
<polygon fill="#1414ce" stroke="#1414ce" points="829.37,-189.55 834.16,-180.1 824.52,-184.5 829.37,-189.55"/>
</a>
</g>
</g>
<!-- 20 -->
<g id="node21" class="node">
<title>20</title>
<g id="a_node21"><a xlink:title="TimerListItem">
<polygon fill="#ffffff" stroke="black" points="722.5,-108 603.5,-108 603.5,-72 722.5,-72 722.5,-108"/>
<text text-anchor="middle" x="663" y="-86.3" font-family="Times,serif" font-size="14.00">TimerListItem</text>
</a>
</g>
</g>
<!-- 18&#45;&gt;20 -->
<g id="edge30" class="edge">
<title>18&#45;&gt;20</title>
<g id="a_edge30"><a xlink:title="usage">
<path fill="none" stroke="#1414ce" d="M765.01,-215.87C744.72,-191.03 706.99,-144.85 683.54,-116.14"/>
<polygon fill="#1414ce" stroke="#1414ce" points="686.08,-113.72 677.04,-108.19 680.66,-118.15 686.08,-113.72"/>
</a>
</g>
</g>
<!-- 10&#45;&gt;11 -->
<g id="edge35" class="edge">
<title>10&#45;&gt;11</title>
<g id="a_edge35"><a xlink:title="usage">
<path fill="none" stroke="#1414ce" d="M1120.09,-143.88C1105.84,-134.81 1088.15,-123.55 1072.76,-113.76"/>
<polygon fill="#1414ce" stroke="#1414ce" points="1074.33,-110.61 1064.01,-108.19 1070.57,-116.51 1074.33,-110.61"/>
</a>
</g>
</g>
<!-- 10&#45;&gt;10 -->
<g id="edge36" class="edge">
<title>10&#45;&gt;10</title>
<g id="a_edge36"><a xlink:title="usage">
<path fill="none" stroke="#1414ce" d="M1226.16,-173.98C1236.87,-171.97 1244,-167.98 1244,-162 1244,-158.08 1240.93,-155.01 1235.79,-152.8"/>
<polygon fill="#1414ce" stroke="#1414ce" points="1236.74,-149.43 1226.16,-150.02 1234.8,-156.15 1236.74,-149.43"/>
</a>
</g>
</g>
<!-- 15&#45;&gt;1 -->
<g id="edge37" class="edge">
<title>15&#45;&gt;1</title>
<g id="a_edge37"><a xlink:title="usage">
<path fill="none" stroke="#1414ce" d="M370.47,-215.7C360.62,-206.97 348.51,-196.24 337.8,-186.75"/>
<polygon fill="#1414ce" stroke="#1414ce" points="340.11,-184.12 330.3,-180.1 335.47,-189.36 340.11,-184.12"/>
</a>
</g>
</g>
<!-- 15&#45;&gt;3 -->
<g id="edge38" class="edge">
<title>15&#45;&gt;3</title>
<g id="a_edge38"><a xlink:title="usage">
<path fill="none" stroke="#1414ce" d="M388.5,-215.84C386.78,-197.85 383.59,-168.8 379,-144 372.7,-109.95 362.67,-71.35 355.74,-46.17"/>
<polygon fill="#1414ce" stroke="#1414ce" points="359.03,-44.94 352.98,-36.25 352.29,-46.82 359.03,-44.94"/>
</a>
</g>
</g>
<!-- 6&#45;&gt;7 -->
<g id="edge39" class="edge">
<title>6&#45;&gt;7</title>
<g id="a_edge39"><a xlink:title="usage">
<path fill="none" stroke="#1414ce" d="M1065.37,-215.88C1041.22,-205.44 1010.37,-192.11 985.69,-181.45"/>
<polygon fill="#1414ce" stroke="#1414ce" points="986.78,-178.11 976.21,-177.35 984.01,-184.53 986.78,-178.11"/>
</a>
</g>
</g>
<!-- 19&#45;&gt;11 -->
<g id="edge40" class="edge">
<title>19&#45;&gt;11</title>
<g id="a_edge40"><a xlink:title="usage">
<path fill="none" stroke="#1414ce" d="M889.44,-146.83C916.11,-136.74 952.39,-123.01 982.31,-111.69"/>
<polygon fill="#1414ce" stroke="#1414ce" points="983.66,-114.93 991.77,-108.11 981.18,-108.38 983.66,-114.93"/>
</a>
</g>
</g>
<!-- 12&#45;&gt;13 -->
<g id="edge42" class="edge">
<title>12&#45;&gt;13</title>
<g id="a_edge42"><a xlink:title="usage">
<path fill="none" stroke="#1414ce" d="M882.52,-287.7C892.87,-278.97 905.59,-268.24 916.84,-258.75"/>
<polygon fill="#1414ce" stroke="#1414ce" points="919.33,-261.23 924.72,-252.1 914.82,-255.88 919.33,-261.23"/>
</a>
</g>
</g>
<!-- 12&#45;&gt;7 -->
<g id="edge41" class="edge">
<title>12&#45;&gt;7</title>
<g id="a_edge41"><a xlink:title="usage">
<path fill="none" stroke="#1414ce" d="M862.44,-287.75C863.63,-268.9 867.67,-238.4 881,-216 887.74,-204.67 897.78,-194.57 907.83,-186.31"/>
<polygon fill="#1414ce" stroke="#1414ce" points="910.08,-188.99 915.83,-180.08 905.78,-183.46 910.08,-188.99"/>
</a>
</g>
</g>
<!-- 20&#45;&gt;3 -->
<g id="edge43" class="edge">
<title>20&#45;&gt;3</title>
<g id="a_edge43"><a xlink:title="usage">
<path fill="none" stroke="#1414ce" d="M603.38,-75.75C544.28,-62.62 454.7,-42.71 398.86,-30.3"/>
<polygon fill="#1414ce" stroke="#1414ce" points="399.36,-26.83 388.84,-28.08 397.84,-33.66 399.36,-26.83"/>
</a>
</g>
</g>
<!-- 2&#45;&gt;3 -->
<g id="edge44" class="edge">
<title>2&#45;&gt;3</title>
<g id="a_edge44"><a xlink:title="usage">
<path fill="none" stroke="#1414ce" d="M297.56,-71.7C305.68,-63.22 315.59,-52.86 324.47,-43.58"/>
<polygon fill="#1414ce" stroke="#1414ce" points="327.24,-45.75 331.63,-36.1 322.19,-40.91 327.24,-45.75"/>
</a>
</g>
</g>
<!-- 7&#45;&gt;8 -->
<g id="edge46" class="edge">
<title>7&#45;&gt;8</title>
<g id="a_edge46"><a xlink:title="usage">
<path fill="none" stroke="#1414ce" d="M911.44,-143.88C892.9,-133.81 869.39,-121.05 850.1,-110.59"/>
<polygon fill="#1414ce" stroke="#1414ce" points="851.76,-107.51 841.3,-105.81 848.42,-113.66 851.76,-107.51"/>
</a>
</g>
</g>
<!-- 7&#45;&gt;7 -->
<g id="edge45" class="edge">
<title>7&#45;&gt;7</title>
<g id="a_edge45"><a xlink:title="usage">
<path fill="none" stroke="#1414ce" d="M976.35,-175.47C986.28,-175.07 994,-170.58 994,-162 994,-156.64 990.98,-152.87 986.3,-150.71"/>
<polygon fill="#1414ce" stroke="#1414ce" points="986.87,-147.25 976.35,-148.53 985.37,-154.09 986.87,-147.25"/>
</a>
</g>
</g>
</g>
</svg>
