<?xml version="1.0" encoding="UTF-8" standalone="no"?>
<!DOCTYPE svg PUBLIC "-//W3C//DTD SVG 1.1//EN"
 "http://www.w3.org/Graphics/SVG/1.1/DTD/svg11.dtd">
<!-- Generated by graphviz version 2.43.0 (0)
 -->
<!-- Title: %3 Pages: 1 -->
<svg width="1174pt" height="620pt"
 viewBox="0.00 0.00 1173.50 620.00" xmlns="http://www.w3.org/2000/svg" xmlns:xlink="http://www.w3.org/1999/xlink">
<g id="graph0" class="graph" transform="scale(1 1) rotate(0) translate(4 616)">
<title>%3</title>
<polygon fill="transparent" stroke="transparent" points="-4,4 -4,-616 1169.5,-616 1169.5,4 -4,4"/>
<!-- 10 -->
<g id="node1" class="node">
<title>10</title>
<g id="a_node1"><a xlink:title="atom.h">
<polygon fill="#ffffff" stroke="black" points="832.5,-396 766.5,-396 766.5,-360 832.5,-360 832.5,-396"/>
<text text-anchor="middle" x="799.5" y="-374.3" font-family="Times,serif" font-size="14.00">atom.h</text>
</a>
</g>
</g>
<!-- 6 -->
<g id="node22" class="node">
<title>6</title>
<g id="a_node22"><a xlink:title="stdint.h">
<polygon fill="#ffffff" stroke="black" points="1097.5,-36 1025.5,-36 1025.5,0 1097.5,0 1097.5,-36"/>
<text text-anchor="middle" x="1061.5" y="-14.3" font-family="Times,serif" font-size="14.00">stdint.h</text>
</a>
</g>
</g>
<!-- 10&#45;&gt;6 -->
<g id="edge1" class="edge">
<title>10&#45;&gt;6</title>
<g id="a_edge1"><a xlink:title="include">
<path fill="none" stroke="#1414ce" d="M814.88,-359.7C832.18,-340.81 861.64,-310.28 890.5,-288 964.35,-230.99 1024.53,-261.19 1070.5,-180 1094.25,-138.05 1081.98,-79.7 1071.4,-45.98"/>
<polygon fill="#1414ce" stroke="#1414ce" points="1074.68,-44.75 1068.21,-36.36 1068.03,-46.95 1074.68,-44.75"/>
</a>
</g>
</g>
<!-- 8 -->
<g id="node24" class="node">
<title>8</title>
<g id="a_node24"><a xlink:title="stdlib.h">
<polygon fill="#ffffff" stroke="black" points="430,-108 359,-108 359,-72 430,-72 430,-108"/>
<text text-anchor="middle" x="394.5" y="-86.3" font-family="Times,serif" font-size="14.00">stdlib.h</text>
</a>
</g>
</g>
<!-- 10&#45;&gt;8 -->
<g id="edge2" class="edge">
<title>10&#45;&gt;8</title>
<g id="a_edge2"><a xlink:title="include">
<path fill="none" stroke="#1414ce" d="M766.44,-360.18C728.28,-341.16 663.35,-309.98 605.5,-288 554.24,-268.52 530.42,-286.12 487.5,-252 484.5,-249.62 434.73,-162.1 409.26,-117.12"/>
<polygon fill="#1414ce" stroke="#1414ce" points="412.2,-115.19 404.22,-108.21 406.1,-118.64 412.2,-115.19"/>
</a>
</g>
</g>
<!-- 2 -->
<g id="node2" class="node">
<title>2</title>
<g id="a_node2"><a xlink:title="bitstring.h">
<polygon fill="#ffffff" stroke="black" points="1062.5,-540 970.5,-540 970.5,-504 1062.5,-504 1062.5,-540"/>
<text text-anchor="middle" x="1016.5" y="-518.3" font-family="Times,serif" font-size="14.00">bitstring.h</text>
</a>
</g>
</g>
<!-- 3 -->
<g id="node13" class="node">
<title>3</title>
<g id="a_node13"><a xlink:title="term.h">
<polygon fill="#ffffff" stroke="black" points="659,-468 594,-468 594,-432 659,-432 659,-468"/>
<text text-anchor="middle" x="626.5" y="-446.3" font-family="Times,serif" font-size="14.00">term.h</text>
</a>
</g>
</g>
<!-- 2&#45;&gt;3 -->
<g id="edge3" class="edge">
<title>2&#45;&gt;3</title>
<g id="a_edge3"><a xlink:title="include">
<path fill="none" stroke="#1414ce" d="M970.23,-512.7C893.92,-499 742.79,-471.87 669.01,-458.63"/>
<polygon fill="#1414ce" stroke="#1414ce" points="669.59,-455.18 659.13,-456.86 668.36,-462.07 669.59,-455.18"/>
</a>
</g>
</g>
<!-- 25 -->
<g id="node15" class="node">
<title>25</title>
<g id="a_node15"><a xlink:title="unicode.h">
<polygon fill="#ffffff" stroke="black" points="1061.5,-180 975.5,-180 975.5,-144 1061.5,-144 1061.5,-180"/>
<text text-anchor="middle" x="1018.5" y="-158.3" font-family="Times,serif" font-size="14.00">unicode.h</text>
</a>
</g>
</g>
<!-- 2&#45;&gt;25 -->
<g id="edge4" class="edge">
<title>2&#45;&gt;25</title>
<g id="a_edge4"><a xlink:title="include">
<path fill="none" stroke="#1414ce" d="M1016.9,-503.95C1017.48,-477.29 1018.5,-424.12 1018.5,-379 1018.5,-379 1018.5,-379 1018.5,-305 1018.5,-265 1018.5,-218.65 1018.5,-190.08"/>
<polygon fill="#1414ce" stroke="#1414ce" points="1022,-190.05 1018.5,-180.05 1015,-190.05 1022,-190.05"/>
</a>
</g>
</g>
<!-- 5 -->
<g id="node20" class="node">
<title>5</title>
<g id="a_node20"><a xlink:title="stdbool.h">
<polygon fill="#ffffff" stroke="black" points="894,-108 811,-108 811,-72 894,-72 894,-108"/>
<text text-anchor="middle" x="852.5" y="-86.3" font-family="Times,serif" font-size="14.00">stdbool.h</text>
</a>
</g>
</g>
<!-- 2&#45;&gt;5 -->
<g id="edge5" class="edge">
<title>2&#45;&gt;5</title>
<g id="a_edge5"><a xlink:title="include">
<path fill="none" stroke="#1414ce" d="M1009.21,-503.87C998.7,-477.53 980.5,-425.29 980.5,-379 980.5,-379 980.5,-379 980.5,-305 980.5,-229.09 971.21,-203.04 923.5,-144 914.24,-132.54 901.98,-122.24 890.25,-113.83"/>
<polygon fill="#1414ce" stroke="#1414ce" points="892.08,-110.84 881.85,-108.06 888.11,-116.61 892.08,-110.84"/>
</a>
</g>
</g>
<!-- 2&#45;&gt;6 -->
<g id="edge6" class="edge">
<title>2&#45;&gt;6</title>
<g id="a_edge6"><a xlink:title="include">
<path fill="none" stroke="#1414ce" d="M1056.43,-503.87C1100.56,-481.93 1165.5,-439.39 1165.5,-379 1165.5,-379 1165.5,-379 1165.5,-161 1165.5,-111.63 1124.08,-68.02 1093.52,-42.56"/>
<polygon fill="#1414ce" stroke="#1414ce" points="1095.6,-39.74 1085.62,-36.18 1091.2,-45.19 1095.6,-39.74"/>
</a>
</g>
</g>
<!-- 12 -->
<g id="node3" class="node">
<title>12</title>
<g id="a_node3"><a xlink:title="erl_nif.h">
<polygon fill="#ffffff" stroke="black" points="157.5,-180 83.5,-180 83.5,-144 157.5,-144 157.5,-180"/>
<text text-anchor="middle" x="120.5" y="-158.3" font-family="Times,serif" font-size="14.00">erl_nif.h</text>
</a>
</g>
</g>
<!-- 13 -->
<g id="node14" class="node">
<title>13</title>
<g id="a_node14"><a xlink:title="term_typedef.h">
<polygon fill="#ffffff" stroke="black" points="189,-108 64,-108 64,-72 189,-72 189,-108"/>
<text text-anchor="middle" x="126.5" y="-86.3" font-family="Times,serif" font-size="14.00">term_typedef.h</text>
</a>
</g>
</g>
<!-- 12&#45;&gt;13 -->
<g id="edge7" class="edge">
<title>12&#45;&gt;13</title>
<g id="a_edge7"><a xlink:title="include">
<path fill="none" stroke="#1414ce" d="M121.98,-143.7C122.64,-135.98 123.44,-126.71 124.18,-118.11"/>
<polygon fill="#1414ce" stroke="#1414ce" points="127.67,-118.37 125.03,-108.1 120.69,-117.77 127.67,-118.37"/>
</a>
</g>
</g>
<!-- 26 -->
<g id="node4" class="node">
<title>26</title>
<g id="a_node4"><a xlink:title="exportedfunction.h">
<polygon fill="#ffffff" stroke="black" points="806.5,-540 654.5,-540 654.5,-504 806.5,-504 806.5,-540"/>
<text text-anchor="middle" x="730.5" y="-518.3" font-family="Times,serif" font-size="14.00">exportedfunction.h</text>
</a>
</g>
</g>
<!-- 26&#45;&gt;3 -->
<g id="edge8" class="edge">
<title>26&#45;&gt;3</title>
<g id="a_edge8"><a xlink:title="include">
<path fill="none" stroke="#1414ce" d="M705.06,-503.88C691.71,-494.89 675.18,-483.76 660.72,-474.03"/>
<polygon fill="#1414ce" stroke="#1414ce" points="662.29,-470.87 652.04,-468.19 658.38,-476.68 662.29,-470.87"/>
</a>
</g>
</g>
<!-- 1 -->
<g id="node5" class="node">
<title>1</title>
<g id="a_node5"><a xlink:title="/__w/AtomVM/AtomVM/src/libAtomVM/jit.h">
<polygon fill="#bfbfbf" stroke="black" points="891.5,-612 569.5,-612 569.5,-576 891.5,-576 891.5,-612"/>
<text text-anchor="middle" x="730.5" y="-590.3" font-family="Times,serif" font-size="14.00">/__w/AtomVM/AtomVM/src/libAtomVM/jit.h</text>
</a>
</g>
</g>
<!-- 1&#45;&gt;2 -->
<g id="edge9" class="edge">
<title>1&#45;&gt;2</title>
<g id="a_edge9"><a xlink:title="include">
<path fill="none" stroke="#1414ce" d="M807.08,-575.96C850.94,-565.97 906.95,-552.82 956.5,-540 957.77,-539.67 959.05,-539.34 960.34,-539"/>
<polygon fill="#1414ce" stroke="#1414ce" points="961.62,-542.28 970.37,-536.3 959.8,-535.52 961.62,-542.28"/>
</a>
</g>
</g>
<!-- 1&#45;&gt;26 -->
<g id="edge10" class="edge">
<title>1&#45;&gt;26</title>
<g id="a_edge10"><a xlink:title="include">
<path fill="none" stroke="#1414ce" d="M730.5,-575.7C730.5,-567.98 730.5,-558.71 730.5,-550.11"/>
<polygon fill="#1414ce" stroke="#1414ce" points="734,-550.1 730.5,-540.1 727,-550.1 734,-550.1"/>
</a>
</g>
</g>
<!-- 1&#45;&gt;3 -->
<g id="edge11" class="edge">
<title>1&#45;&gt;3</title>
<g id="a_edge11"><a xlink:title="include">
<path fill="none" stroke="#1414ce" d="M689.38,-575.99C673.41,-567.43 656.39,-555.52 645.5,-540 632.85,-521.97 628.34,-497.18 626.86,-478.34"/>
<polygon fill="#1414ce" stroke="#1414ce" points="630.35,-478.1 626.31,-468.3 623.36,-478.48 630.35,-478.1"/>
</a>
</g>
</g>
<!-- 1&#45;&gt;13 -->
<g id="edge12" class="edge">
<title>1&#45;&gt;13</title>
<g id="a_edge12"><a xlink:title="include">
<path fill="none" stroke="#1414ce" d="M569.15,-592.7C358.83,-587.86 17.5,-562.78 17.5,-451 17.5,-451 17.5,-451 17.5,-233 17.5,-189.81 29.75,-177.91 56.5,-144 65.54,-132.54 77.61,-122.24 89.18,-113.83"/>
<polygon fill="#1414ce" stroke="#1414ce" points="91.26,-116.64 97.47,-108.05 87.26,-110.9 91.26,-116.64"/>
</a>
</g>
</g>
<!-- 1&#45;&gt;5 -->
<g id="edge13" class="edge">
<title>1&#45;&gt;5</title>
<g id="a_edge13"><a xlink:title="include">
<path fill="none" stroke="#1414ce" d="M804.35,-575.92C865.53,-556.87 942.5,-519.33 942.5,-451 942.5,-451 942.5,-451 942.5,-305 942.5,-232.05 897.51,-155.29 871.15,-116.56"/>
<polygon fill="#1414ce" stroke="#1414ce" points="873.79,-114.22 865.2,-108 868.04,-118.21 873.79,-114.22"/>
</a>
</g>
</g>
<!-- 20 -->
<g id="node6" class="node">
<title>20</title>
<g id="a_node6"><a xlink:title="list.h">
<polygon fill="#ffffff" stroke="black" points="689.5,-180 635.5,-180 635.5,-144 689.5,-144 689.5,-180"/>
<text text-anchor="middle" x="662.5" y="-158.3" font-family="Times,serif" font-size="14.00">list.h</text>
</a>
</g>
</g>
<!-- 20&#45;&gt;5 -->
<g id="edge14" class="edge">
<title>20&#45;&gt;5</title>
<g id="a_edge14"><a xlink:title="include">
<path fill="none" stroke="#1414ce" d="M689.72,-150.97C718.7,-140.29 765.25,-123.15 801.16,-109.92"/>
<polygon fill="#1414ce" stroke="#1414ce" points="802.8,-113.04 810.98,-106.3 800.38,-106.47 802.8,-113.04"/>
</a>
</g>
</g>
<!-- 22 -->
<g id="node7" class="node">
<title>22</title>
<g id="a_node7"><a xlink:title="mailbox.h">
<polygon fill="#ffffff" stroke="black" points="582.5,-252 496.5,-252 496.5,-216 582.5,-216 582.5,-252"/>
<text text-anchor="middle" x="539.5" y="-230.3" font-family="Times,serif" font-size="14.00">mailbox.h</text>
</a>
</g>
</g>
<!-- 22&#45;&gt;20 -->
<g id="edge16" class="edge">
<title>22&#45;&gt;20</title>
<g id="a_edge16"><a xlink:title="include">
<path fill="none" stroke="#1414ce" d="M569.59,-215.88C586.67,-206.16 608.17,-193.92 626.18,-183.67"/>
<polygon fill="#1414ce" stroke="#1414ce" points="628.28,-186.5 635.24,-178.51 624.82,-180.42 628.28,-186.5"/>
</a>
</g>
</g>
<!-- 22&#45;&gt;13 -->
<g id="edge17" class="edge">
<title>22&#45;&gt;13</title>
<g id="a_edge17"><a xlink:title="include">
<path fill="none" stroke="#1414ce" d="M496.47,-218.21C422.24,-192.68 270.02,-140.34 185.8,-111.39"/>
<polygon fill="#1414ce" stroke="#1414ce" points="186.73,-108.01 176.13,-108.06 184.45,-114.63 186.73,-108.01"/>
</a>
</g>
</g>
<!-- 17 -->
<g id="node16" class="node">
<title>17</title>
<g id="a_node16"><a xlink:title="utils.h">
<polygon fill="#ffffff" stroke="black" points="541.5,-180 479.5,-180 479.5,-144 541.5,-144 541.5,-180"/>
<text text-anchor="middle" x="510.5" y="-158.3" font-family="Times,serif" font-size="14.00">utils.h</text>
</a>
</g>
</g>
<!-- 22&#45;&gt;17 -->
<g id="edge18" class="edge">
<title>22&#45;&gt;17</title>
<g id="a_edge18"><a xlink:title="include">
<path fill="none" stroke="#1414ce" d="M532.33,-215.7C529.07,-207.81 525.13,-198.3 521.5,-189.55"/>
<polygon fill="#1414ce" stroke="#1414ce" points="524.65,-188 517.59,-180.1 518.18,-190.68 524.65,-188"/>
</a>
</g>
</g>
<!-- 22&#45;&gt;5 -->
<g id="edge15" class="edge">
<title>22&#45;&gt;5</title>
<g id="a_edge15"><a xlink:title="include">
<path fill="none" stroke="#1414ce" d="M551.53,-215.73C566.64,-195.37 594.51,-162.05 626.5,-144 641.63,-135.47 738.88,-114.39 800.78,-101.53"/>
<polygon fill="#1414ce" stroke="#1414ce" points="801.69,-104.92 810.77,-99.47 800.27,-98.07 801.69,-104.92"/>
</a>
</g>
</g>
<!-- 11 -->
<g id="node8" class="node">
<title>11</title>
<g id="a_node8"><a xlink:title="memory.h">
<polygon fill="#ffffff" stroke="black" points="271.5,-252 185.5,-252 185.5,-216 271.5,-216 271.5,-252"/>
<text text-anchor="middle" x="228.5" y="-230.3" font-family="Times,serif" font-size="14.00">memory.h</text>
</a>
</g>
</g>
<!-- 11&#45;&gt;12 -->
<g id="edge21" class="edge">
<title>11&#45;&gt;12</title>
<g id="a_edge21"><a xlink:title="include">
<path fill="none" stroke="#1414ce" d="M202.08,-215.88C188.09,-206.81 170.72,-195.55 155.61,-185.76"/>
<polygon fill="#1414ce" stroke="#1414ce" points="157.32,-182.69 147.02,-180.19 153.51,-188.57 157.32,-182.69"/>
</a>
</g>
</g>
<!-- 11&#45;&gt;13 -->
<g id="edge22" class="edge">
<title>11&#45;&gt;13</title>
<g id="a_edge22"><a xlink:title="include">
<path fill="none" stroke="#1414ce" d="M216.81,-215.8C204.48,-197.78 184.41,-168.69 166.5,-144 159.83,-134.81 152.37,-124.84 145.72,-116.06"/>
<polygon fill="#1414ce" stroke="#1414ce" points="148.48,-113.9 139.64,-108.06 142.91,-118.14 148.48,-113.9"/>
</a>
</g>
</g>
<!-- 11&#45;&gt;17 -->
<g id="edge23" class="edge">
<title>11&#45;&gt;17</title>
<g id="a_edge23"><a xlink:title="include">
<path fill="none" stroke="#1414ce" d="M271.64,-222.29C325.41,-208.94 416.66,-186.29 469.45,-173.19"/>
<polygon fill="#1414ce" stroke="#1414ce" points="470.29,-176.59 479.16,-170.78 468.61,-169.79 470.29,-176.59"/>
</a>
</g>
</g>
<!-- 11&#45;&gt;6 -->
<g id="edge19" class="edge">
<title>11&#45;&gt;6</title>
<g id="a_edge19"><a xlink:title="include">
<path fill="none" stroke="#1414ce" d="M229.77,-215.88C231.9,-196.86 237.55,-165.96 252.5,-144 282.72,-99.62 299.18,-90.73 349.5,-72 472.2,-26.32 877.22,-19.94 1015.08,-19.1"/>
<polygon fill="#1414ce" stroke="#1414ce" points="1015.32,-22.6 1025.3,-19.05 1015.28,-15.6 1015.32,-22.6"/>
</a>
</g>
</g>
<!-- 11&#45;&gt;8 -->
<g id="edge20" class="edge">
<title>11&#45;&gt;8</title>
<g id="a_edge20"><a xlink:title="include">
<path fill="none" stroke="#1414ce" d="M235.91,-215.94C245.12,-196.41 262.47,-164.48 285.5,-144 303.98,-127.57 328.46,-115.06 349.53,-106.33"/>
<polygon fill="#1414ce" stroke="#1414ce" points="350.95,-109.53 358.95,-102.58 348.36,-103.03 350.95,-109.53"/>
</a>
</g>
</g>
<!-- 19 -->
<g id="node9" class="node">
<title>19</title>
<g id="a_node9"><a xlink:title="refc_binary.h">
<polygon fill="#ffffff" stroke="black" points="680.5,-396 572.5,-396 572.5,-360 680.5,-360 680.5,-396"/>
<text text-anchor="middle" x="626.5" y="-374.3" font-family="Times,serif" font-size="14.00">refc_binary.h</text>
</a>
</g>
</g>
<!-- 19&#45;&gt;20 -->
<g id="edge26" class="edge">
<title>19&#45;&gt;20</title>
<g id="a_edge26"><a xlink:title="include">
<path fill="none" stroke="#1414ce" d="M629.39,-359.85C635.63,-322.75 650.42,-234.81 657.94,-190.1"/>
<polygon fill="#1414ce" stroke="#1414ce" points="661.39,-190.67 659.6,-180.23 654.49,-189.51 661.39,-190.67"/>
</a>
</g>
</g>
<!-- 21 -->
<g id="node10" class="node">
<title>21</title>
<g id="a_node10"><a xlink:title="resources.h">
<polygon fill="#ffffff" stroke="black" points="596.5,-324 496.5,-324 496.5,-288 596.5,-288 596.5,-324"/>
<text text-anchor="middle" x="546.5" y="-302.3" font-family="Times,serif" font-size="14.00">resources.h</text>
</a>
</g>
</g>
<!-- 19&#45;&gt;21 -->
<g id="edge27" class="edge">
<title>19&#45;&gt;21</title>
<g id="a_edge27"><a xlink:title="include">
<path fill="none" stroke="#1414ce" d="M606.72,-359.7C596.75,-350.97 584.49,-340.24 573.64,-330.75"/>
<polygon fill="#1414ce" stroke="#1414ce" points="575.88,-328.06 566.05,-324.1 571.27,-333.32 575.88,-328.06"/>
</a>
</g>
</g>
<!-- 19&#45;&gt;5 -->
<g id="edge24" class="edge">
<title>19&#45;&gt;5</title>
<g id="a_edge24"><a xlink:title="include">
<path fill="none" stroke="#1414ce" d="M666.39,-359.84C708.02,-339.9 772.19,-303.09 808.5,-252 837.43,-211.29 847.35,-152.42 850.74,-118.3"/>
<polygon fill="#1414ce" stroke="#1414ce" points="854.25,-118.41 851.63,-108.14 847.27,-117.8 854.25,-118.41"/>
</a>
</g>
</g>
<!-- 19&#45;&gt;8 -->
<g id="edge25" class="edge">
<title>19&#45;&gt;8</title>
<g id="a_edge25"><a xlink:title="include">
<path fill="none" stroke="#1414ce" d="M572.46,-363.57C545.3,-355.11 512.86,-342.27 487.5,-324 427.02,-280.43 417.67,-252.77 401.5,-180 396.99,-159.7 395.28,-136.24 394.68,-118.5"/>
<polygon fill="#1414ce" stroke="#1414ce" points="398.18,-118.18 394.44,-108.27 391.18,-118.35 398.18,-118.18"/>
</a>
</g>
</g>
<!-- 21&#45;&gt;12 -->
<g id="edge29" class="edge">
<title>21&#45;&gt;12</title>
<g id="a_edge29"><a xlink:title="include">
<path fill="none" stroke="#1414ce" d="M496.41,-302.98C407.92,-298.57 228.35,-285.65 176.5,-252 154,-237.39 138.88,-210.23 130.08,-189.74"/>
<polygon fill="#1414ce" stroke="#1414ce" points="133.25,-188.26 126.26,-180.3 126.76,-190.88 133.25,-188.26"/>
</a>
</g>
</g>
<!-- 21&#45;&gt;20 -->
<g id="edge30" class="edge">
<title>21&#45;&gt;20</title>
<g id="a_edge30"><a xlink:title="include">
<path fill="none" stroke="#1414ce" d="M561.23,-287.93C570.08,-277.59 581.53,-264.12 591.5,-252 608.99,-230.75 628.45,-206.29 642.57,-188.4"/>
<polygon fill="#1414ce" stroke="#1414ce" points="645.6,-190.21 649.04,-180.19 640.11,-185.88 645.6,-190.21"/>
</a>
</g>
</g>
<!-- 21&#45;&gt;22 -->
<g id="edge31" class="edge">
<title>21&#45;&gt;22</title>
<g id="a_edge31"><a xlink:title="include">
<path fill="none" stroke="#1414ce" d="M544.77,-287.7C544,-279.98 543.07,-270.71 542.21,-262.11"/>
<polygon fill="#1414ce" stroke="#1414ce" points="545.69,-261.71 541.21,-252.1 538.72,-262.4 545.69,-261.71"/>
</a>
</g>
</g>
<!-- 21&#45;&gt;11 -->
<g id="edge32" class="edge">
<title>21&#45;&gt;11</title>
<g id="a_edge32"><a xlink:title="include">
<path fill="none" stroke="#1414ce" d="M496.46,-293.99C437.93,-281.1 341.44,-259.86 281.62,-246.69"/>
<polygon fill="#1414ce" stroke="#1414ce" points="282.13,-243.22 271.62,-244.49 280.63,-250.06 282.13,-243.22"/>
</a>
</g>
</g>
<!-- 23 -->
<g id="node12" class="node">
<title>23</title>
<g id="a_node12"><a xlink:title="synclist.h">
<polygon fill="#ffffff" stroke="black" points="800,-252 715,-252 715,-216 800,-216 800,-252"/>
<text text-anchor="middle" x="757.5" y="-230.3" font-family="Times,serif" font-size="14.00">synclist.h</text>
</a>
</g>
</g>
<!-- 21&#45;&gt;23 -->
<g id="edge33" class="edge">
<title>21&#45;&gt;23</title>
<g id="a_edge33"><a xlink:title="include">
<path fill="none" stroke="#1414ce" d="M596.5,-288.41C629.34,-277.52 672.19,-263.3 705.43,-252.27"/>
<polygon fill="#1414ce" stroke="#1414ce" points="706.59,-255.58 714.98,-249.11 704.38,-248.93 706.59,-255.58"/>
</a>
</g>
</g>
<!-- 21&#45;&gt;8 -->
<g id="edge28" class="edge">
<title>21&#45;&gt;8</title>
<g id="a_edge28"><a xlink:title="include">
<path fill="none" stroke="#1414ce" d="M503.17,-287.81C486.09,-279.22 467.48,-267.34 454.5,-252 421.05,-212.49 405.38,-152.56 398.75,-118.05"/>
<polygon fill="#1414ce" stroke="#1414ce" points="402.2,-117.43 396.98,-108.21 395.31,-118.67 402.2,-117.43"/>
</a>
</g>
</g>
<!-- 24 -->
<g id="node11" class="node">
<title>24</title>
<g id="a_node11"><a xlink:title="smp.h">
<polygon fill="#ffffff" stroke="black" points="805.5,-180 745.5,-180 745.5,-144 805.5,-144 805.5,-180"/>
<text text-anchor="middle" x="775.5" y="-158.3" font-family="Times,serif" font-size="14.00">smp.h</text>
</a>
</g>
</g>
<!-- 24&#45;&gt;5 -->
<g id="edge34" class="edge">
<title>24&#45;&gt;5</title>
<g id="a_edge34"><a xlink:title="include">
<path fill="none" stroke="#1414ce" d="M794.53,-143.7C804.04,-135.05 815.71,-124.45 826.07,-115.03"/>
<polygon fill="#1414ce" stroke="#1414ce" points="828.64,-117.42 833.69,-108.1 823.93,-112.24 828.64,-117.42"/>
</a>
</g>
</g>
<!-- 23&#45;&gt;20 -->
<g id="edge36" class="edge">
<title>23&#45;&gt;20</title>
<g id="a_edge36"><a xlink:title="include">
<path fill="none" stroke="#1414ce" d="M734.02,-215.7C721.94,-206.8 707.05,-195.82 693.98,-186.2"/>
<polygon fill="#1414ce" stroke="#1414ce" points="695.84,-183.22 685.71,-180.1 691.69,-188.85 695.84,-183.22"/>
</a>
</g>
</g>
<!-- 23&#45;&gt;24 -->
<g id="edge37" class="edge">
<title>23&#45;&gt;24</title>
<g id="a_edge37"><a xlink:title="include">
<path fill="none" stroke="#1414ce" d="M761.95,-215.7C763.95,-207.9 766.37,-198.51 768.6,-189.83"/>
<polygon fill="#1414ce" stroke="#1414ce" points="772,-190.66 771.1,-180.1 765.22,-188.92 772,-190.66"/>
</a>
</g>
</g>
<!-- 7 -->
<g id="node23" class="node">
<title>7</title>
<g id="a_node23"><a xlink:title="stdio.h">
<polygon fill="#ffffff" stroke="black" points="602,-108 537,-108 537,-72 602,-72 602,-108"/>
<text text-anchor="middle" x="569.5" y="-86.3" font-family="Times,serif" font-size="14.00">stdio.h</text>
</a>
</g>
</g>
<!-- 23&#45;&gt;7 -->
<g id="edge35" class="edge">
<title>23&#45;&gt;7</title>
<g id="a_edge35"><a xlink:title="include">
<path fill="none" stroke="#1414ce" d="M749.91,-215.69C740.46,-195.92 722.57,-163.77 698.5,-144 673.36,-123.36 639.09,-109.78 612.18,-101.55"/>
<polygon fill="#1414ce" stroke="#1414ce" points="612.85,-98.09 602.27,-98.65 610.88,-104.81 612.85,-98.09"/>
</a>
</g>
</g>
<!-- 3&#45;&gt;10 -->
<g id="edge44" class="edge">
<title>3&#45;&gt;10</title>
<g id="a_edge44"><a xlink:title="include">
<path fill="none" stroke="#1414ce" d="M659.04,-435.83C686.68,-424.65 726.57,-408.51 756.78,-396.28"/>
<polygon fill="#1414ce" stroke="#1414ce" points="758.27,-399.46 766.22,-392.46 755.64,-392.97 758.27,-399.46"/>
</a>
</g>
</g>
<!-- 3&#45;&gt;11 -->
<g id="edge45" class="edge">
<title>3&#45;&gt;11</title>
<g id="a_edge45"><a xlink:title="include">
<path fill="none" stroke="#1414ce" d="M593.88,-448.09C517.92,-445.32 332.14,-434.68 285.5,-396 245.27,-362.64 233.42,-298.89 229.94,-262.42"/>
<polygon fill="#1414ce" stroke="#1414ce" points="233.39,-261.72 229.1,-252.04 226.41,-262.28 233.39,-261.72"/>
</a>
</g>
</g>
<!-- 3&#45;&gt;19 -->
<g id="edge46" class="edge">
<title>3&#45;&gt;19</title>
<g id="a_edge46"><a xlink:title="include">
<path fill="none" stroke="#1414ce" d="M626.5,-431.7C626.5,-423.98 626.5,-414.71 626.5,-406.11"/>
<polygon fill="#1414ce" stroke="#1414ce" points="630,-406.1 626.5,-396.1 623,-406.1 630,-406.1"/>
</a>
</g>
</g>
<!-- 3&#45;&gt;13 -->
<g id="edge48" class="edge">
<title>3&#45;&gt;13</title>
<g id="a_edge48"><a xlink:title="include">
<path fill="none" stroke="#1414ce" d="M593.75,-447.95C472.42,-443.2 55.5,-418.73 55.5,-307 55.5,-307 55.5,-307 55.5,-233 55.5,-192.55 55.35,-179.63 74.5,-144 80.21,-133.37 88.7,-123.43 97.16,-115.1"/>
<polygon fill="#1414ce" stroke="#1414ce" points="99.62,-117.6 104.53,-108.21 94.83,-112.48 99.62,-117.6"/>
</a>
</g>
</g>
<!-- 3&#45;&gt;17 -->
<g id="edge47" class="edge">
<title>3&#45;&gt;17</title>
<g id="a_edge47"><a xlink:title="include">
<path fill="none" stroke="#1414ce" d="M605.52,-431.88C593.14,-421.64 577.25,-408.28 563.5,-396 561.33,-394.06 488.65,-326.67 487.5,-324 468.53,-279.91 477.74,-263 487.5,-216 489.38,-206.96 492.87,-197.58 496.59,-189.26"/>
<polygon fill="#1414ce" stroke="#1414ce" points="499.82,-190.61 500.96,-180.07 493.5,-187.6 499.82,-190.61"/>
</a>
</g>
</g>
<!-- 3&#45;&gt;5 -->
<g id="edge39" class="edge">
<title>3&#45;&gt;5</title>
<g id="a_edge39"><a xlink:title="include">
<path fill="none" stroke="#1414ce" d="M659.01,-445.61C713.16,-439.25 818.18,-423.6 841.5,-396 909.57,-315.44 878.44,-175.76 861.22,-117.61"/>
<polygon fill="#1414ce" stroke="#1414ce" points="864.56,-116.58 858.29,-108.04 857.87,-118.63 864.56,-116.58"/>
</a>
</g>
</g>
<!-- 3&#45;&gt;6 -->
<g id="edge40" class="edge">
<title>3&#45;&gt;6</title>
<g id="a_edge40"><a xlink:title="include">
<path fill="none" stroke="#1414ce" d="M659.1,-447.39C707.15,-443.82 798.63,-432.4 866.5,-396 988.38,-330.63 1032.04,-305.34 1090.5,-180 1110.81,-136.45 1109.02,-118.11 1095.5,-72 1092.7,-62.45 1087.59,-52.98 1082.17,-44.76"/>
<polygon fill="#1414ce" stroke="#1414ce" points="1084.88,-42.52 1076.25,-36.37 1079.15,-46.56 1084.88,-42.52"/>
</a>
</g>
</g>
<!-- 3&#45;&gt;7 -->
<g id="edge41" class="edge">
<title>3&#45;&gt;7</title>
<g id="a_edge41"><a xlink:title="include">
<path fill="none" stroke="#1414ce" d="M656.8,-431.8C669.38,-422.9 682.62,-410.77 689.5,-396 696.25,-381.49 692.83,-375.65 689.5,-360 669.32,-265.25 613.29,-163.42 585.52,-116.88"/>
<polygon fill="#1414ce" stroke="#1414ce" points="588.37,-114.82 580.21,-108.06 582.38,-118.43 588.37,-114.82"/>
</a>
</g>
</g>
<!-- 3&#45;&gt;8 -->
<g id="edge42" class="edge">
<title>3&#45;&gt;8</title>
<g id="a_edge42"><a xlink:title="include">
<path fill="none" stroke="#1414ce" d="M593.82,-447.87C522.78,-444.74 357.53,-433.5 318.5,-396 289.33,-367.98 299.5,-347.45 299.5,-307 299.5,-307 299.5,-307 299.5,-233 299.5,-185.01 337.44,-140.96 365.37,-115.04"/>
<polygon fill="#1414ce" stroke="#1414ce" points="367.85,-117.52 372.94,-108.22 363.17,-112.31 367.85,-117.52"/>
</a>
</g>
</g>
<!-- 9 -->
<g id="node25" class="node">
<title>9</title>
<g id="a_node25"><a xlink:title="string.h">
<polygon fill="#ffffff" stroke="black" points="401,-396 328,-396 328,-360 401,-360 401,-396"/>
<text text-anchor="middle" x="364.5" y="-374.3" font-family="Times,serif" font-size="14.00">string.h</text>
</a>
</g>
</g>
<!-- 3&#45;&gt;9 -->
<g id="edge43" class="edge">
<title>3&#45;&gt;9</title>
<g id="a_edge43"><a xlink:title="include">
<path fill="none" stroke="#1414ce" d="M593.81,-442.32C552.96,-433.68 480.81,-417.5 411.04,-396.31"/>
<polygon fill="#1414ce" stroke="#1414ce" points="411.8,-392.88 401.21,-393.28 409.74,-399.57 411.8,-392.88"/>
</a>
</g>
</g>
<!-- 4 -->
<g id="node26" class="node">
<title>4</title>
<g id="a_node26"><a xlink:title="sys/types.h">
<polygon fill="#ffffff" stroke="black" points="516,-396 419,-396 419,-360 516,-360 516,-396"/>
<text text-anchor="middle" x="467.5" y="-374.3" font-family="Times,serif" font-size="14.00">sys/types.h</text>
</a>
</g>
</g>
<!-- 3&#45;&gt;4 -->
<g id="edge38" class="edge">
<title>3&#45;&gt;4</title>
<g id="a_edge38"><a xlink:title="include">
<path fill="none" stroke="#1414ce" d="M593.94,-434.67C571.38,-424.73 540.97,-411.35 515.62,-400.19"/>
<polygon fill="#1414ce" stroke="#1414ce" points="516.75,-396.86 506.19,-396.03 513.93,-403.26 516.75,-396.86"/>
</a>
</g>
</g>
<!-- 14 -->
<g id="node17" class="node">
<title>14</title>
<g id="a_node17"><a xlink:title="assert.h">
<polygon fill="#ffffff" stroke="black" points="163.5,-36 89.5,-36 89.5,0 163.5,0 163.5,-36"/>
<text text-anchor="middle" x="126.5" y="-14.3" font-family="Times,serif" font-size="14.00">assert.h</text>
</a>
</g>
</g>
<!-- 13&#45;&gt;14 -->
<g id="edge49" class="edge">
<title>13&#45;&gt;14</title>
<g id="a_edge49"><a xlink:title="include">
<path fill="none" stroke="#1414ce" d="M126.5,-71.7C126.5,-63.98 126.5,-54.71 126.5,-46.11"/>
<polygon fill="#1414ce" stroke="#1414ce" points="130,-46.1 126.5,-36.1 123,-46.1 130,-46.1"/>
</a>
</g>
</g>
<!-- 16 -->
<g id="node18" class="node">
<title>16</title>
<g id="a_node18"><a xlink:title="inttypes.h">
<polygon fill="#ffffff" stroke="black" points="271,-36 182,-36 182,0 271,0 271,-36"/>
<text text-anchor="middle" x="226.5" y="-14.3" font-family="Times,serif" font-size="14.00">inttypes.h</text>
</a>
</g>
</g>
<!-- 13&#45;&gt;16 -->
<g id="edge51" class="edge">
<title>13&#45;&gt;16</title>
<g id="a_edge51"><a xlink:title="include">
<path fill="none" stroke="#1414ce" d="M150.96,-71.88C163.8,-62.89 179.7,-51.76 193.59,-42.03"/>
<polygon fill="#1414ce" stroke="#1414ce" points="195.76,-44.79 201.94,-36.19 191.74,-39.06 195.76,-44.79"/>
</a>
</g>
</g>
<!-- 15 -->
<g id="node19" class="node">
<title>15</title>
<g id="a_node19"><a xlink:title="limits.h">
<polygon fill="#ffffff" stroke="black" points="71,-36 0,-36 0,0 71,0 71,-36"/>
<text text-anchor="middle" x="35.5" y="-14.3" font-family="Times,serif" font-size="14.00">limits.h</text>
</a>
</g>
</g>
<!-- 13&#45;&gt;15 -->
<g id="edge50" class="edge">
<title>13&#45;&gt;15</title>
<g id="a_edge50"><a xlink:title="include">
<path fill="none" stroke="#1414ce" d="M104.01,-71.7C92.54,-62.88 78.44,-52.03 66.02,-42.47"/>
<polygon fill="#1414ce" stroke="#1414ce" points="67.8,-39.43 57.74,-36.1 63.53,-44.98 67.8,-39.43"/>
</a>
</g>
</g>
<!-- 13&#45;&gt;6 -->
<g id="edge52" class="edge">
<title>13&#45;&gt;6</title>
<g id="a_edge52"><a xlink:title="include">
<path fill="none" stroke="#1414ce" d="M189.34,-75.17C196.12,-73.96 202.94,-72.87 209.5,-72 514.94,-31.42 886.21,-21.8 1014.93,-19.61"/>
<polygon fill="#1414ce" stroke="#1414ce" points="1015.26,-23.11 1025.2,-19.45 1015.14,-16.11 1015.26,-23.11"/>
</a>
</g>
</g>
<!-- 25&#45;&gt;5 -->
<g id="edge53" class="edge">
<title>25&#45;&gt;5</title>
<g id="a_edge53"><a xlink:title="include">
<path fill="none" stroke="#1414ce" d="M977.89,-143.88C955.1,-134.26 926.47,-122.19 902.33,-112.01"/>
<polygon fill="#1414ce" stroke="#1414ce" points="903.55,-108.73 892.98,-108.07 900.83,-115.18 903.55,-108.73"/>
</a>
</g>
</g>
<!-- 18 -->
<g id="node21" class="node">
<title>18</title>
<g id="a_node21"><a xlink:title="stddef.h">
<polygon fill="#ffffff" stroke="black" points="753.5,-108 679.5,-108 679.5,-72 753.5,-72 753.5,-108"/>
<text text-anchor="middle" x="716.5" y="-86.3" font-family="Times,serif" font-size="14.00">stddef.h</text>
</a>
</g>
</g>
<!-- 25&#45;&gt;18 -->
<g id="edge54" class="edge">
<title>25&#45;&gt;18</title>
<g id="a_edge54"><a xlink:title="include">
<path fill="none" stroke="#1414ce" d="M975.23,-150.97C919.07,-137.95 821.43,-115.32 763.5,-101.89"/>
<polygon fill="#1414ce" stroke="#1414ce" points="764.05,-98.43 753.51,-99.58 762.47,-105.25 764.05,-98.43"/>
</a>
</g>
</g>
<!-- 25&#45;&gt;6 -->
<g id="edge55" class="edge">
<title>25&#45;&gt;6</title>
<g id="a_edge55"><a xlink:title="include">
<path fill="none" stroke="#1414ce" d="M1023.69,-143.87C1031.05,-119.56 1044.6,-74.82 1053.32,-46.01"/>
<polygon fill="#1414ce" stroke="#1414ce" points="1056.75,-46.77 1056.29,-36.19 1050.05,-44.75 1056.75,-46.77"/>
</a>
</g>
</g>
<!-- 17&#45;&gt;18 -->
<g id="edge56" class="edge">
<title>17&#45;&gt;18</title>
<g id="a_edge56"><a xlink:title="include">
<path fill="none" stroke="#1414ce" d="M541.79,-150.37C575.82,-138.8 630.59,-120.19 669.74,-106.89"/>
<polygon fill="#1414ce" stroke="#1414ce" points="670.99,-110.16 679.33,-103.63 668.73,-103.53 670.99,-110.16"/>
</a>
</g>
</g>
<!-- 17&#45;&gt;7 -->
<g id="edge57" class="edge">
<title>17&#45;&gt;7</title>
<g id="a_edge57"><a xlink:title="include">
<path fill="none" stroke="#1414ce" d="M525.08,-143.7C532.16,-135.3 540.78,-125.07 548.55,-115.86"/>
<polygon fill="#1414ce" stroke="#1414ce" points="551.31,-118.01 555.08,-108.1 545.96,-113.49 551.31,-118.01"/>
</a>
</g>
</g>
<!-- 17&#45;&gt;8 -->
<g id="edge58" class="edge">
<title>17&#45;&gt;8</title>
<g id="a_edge58"><a xlink:title="include">
<path fill="none" stroke="#1414ce" d="M482.12,-143.88C466.96,-134.72 448.09,-123.34 431.76,-113.48"/>
<polygon fill="#1414ce" stroke="#1414ce" points="433.36,-110.36 422.99,-108.19 429.74,-116.35 433.36,-110.36"/>
</a>
</g>
</g>
</g>
</svg>
