<?xml version="1.0" encoding="UTF-8" standalone="no"?>
<!DOCTYPE svg PUBLIC "-//W3C//DTD SVG 1.1//EN"
 "http://www.w3.org/Graphics/SVG/1.1/DTD/svg11.dtd">
<!-- Generated by graphviz version 2.43.0 (0)
 -->
<!-- Title: %3 Pages: 1 -->
<svg width="1329pt" height="404pt"
 viewBox="0.00 0.00 1329.00 404.00" xmlns="http://www.w3.org/2000/svg" xmlns:xlink="http://www.w3.org/1999/xlink">
<g id="graph0" class="graph" transform="scale(1 1) rotate(0) translate(4 400)">
<title>%3</title>
<polygon fill="transparent" stroke="transparent" points="-4,4 -4,-400 1325,-400 1325,4 -4,4"/>
<!-- 24 -->
<g id="node1" class="node">
<title>24</title>
<g id="a_node1"><a xlink:title="SpinLock">
<polygon fill="#ffffff" stroke="black" points="299,-324 217,-324 217,-288 299,-288 299,-324"/>
<text text-anchor="middle" x="258" y="-302.3" font-family="Times,serif" font-size="14.00">SpinLock</text>
</a>
</g>
</g>
<!-- 13 -->
<g id="node2" class="node">
<title>13</title>
<g id="a_node2"><a xlink:title="ResourceType">
<polygon fill="#ffffff" stroke="black" points="261.5,-180 144.5,-180 144.5,-144 261.5,-144 261.5,-180"/>
<text text-anchor="middle" x="203" y="-158.3" font-family="Times,serif" font-size="14.00">ResourceType</text>
</a>
</g>
</g>
<!-- 6 -->
<g id="node5" class="node">
<title>6</title>
<g id="a_node5"><a xlink:title="ListHead">
<polygon fill="#ffffff" stroke="black" points="396.5,-36 315.5,-36 315.5,0 396.5,0 396.5,-36"/>
<text text-anchor="middle" x="356" y="-14.3" font-family="Times,serif" font-size="14.00">ListHead</text>
</a>
</g>
</g>
<!-- 13&#45;&gt;6 -->
<g id="edge3" class="edge">
<title>13&#45;&gt;6</title>
<g id="a_edge3"><a xlink:title="usage">
<path fill="none" stroke="#1414ce" d="M221.46,-143.87C248.57,-118.71 299.27,-71.65 330.1,-43.04"/>
<polygon fill="#1414ce" stroke="#1414ce" points="332.53,-45.56 337.48,-36.19 327.77,-40.43 332.53,-45.56"/>
</a>
</g>
</g>
<!-- 12 -->
<g id="node8" class="node">
<title>12</title>
<g id="a_node8"><a xlink:title="GlobalContext">
<polygon fill="#ffffff" stroke="black" points="463.5,-396 344.5,-396 344.5,-360 463.5,-360 463.5,-396"/>
<text text-anchor="middle" x="404" y="-374.3" font-family="Times,serif" font-size="14.00">GlobalContext</text>
</a>
</g>
</g>
<!-- 13&#45;&gt;12 -->
<g id="edge2" class="edge">
<title>13&#45;&gt;12</title>
<g id="a_edge2"><a xlink:title="usage">
<path fill="none" stroke="#1414ce" d="M202.74,-180.26C197.54,-212.38 183.71,-281.88 217,-324 232.02,-343 287.39,-356.87 334.07,-365.65"/>
<polygon fill="#1414ce" stroke="#1414ce" points="333.72,-369.14 344.19,-367.5 334.98,-362.26 333.72,-369.14"/>
</a>
</g>
</g>
<!-- 14 -->
<g id="node23" class="node">
<title>14</title>
<g id="a_node23"><a xlink:title="SyncList">
<polygon fill="#ffffff" stroke="black" points="222,-108 144,-108 144,-72 222,-72 222,-108"/>
<text text-anchor="middle" x="183" y="-86.3" font-family="Times,serif" font-size="14.00">SyncList</text>
</a>
</g>
</g>
<!-- 13&#45;&gt;14 -->
<g id="edge1" class="edge">
<title>13&#45;&gt;14</title>
<g id="a_edge1"><a xlink:title="usage">
<path fill="none" stroke="#1414ce" d="M198.06,-143.7C195.83,-135.9 193.15,-126.51 190.67,-117.83"/>
<polygon fill="#1414ce" stroke="#1414ce" points="194,-116.76 187.89,-108.1 187.27,-118.68 194,-116.76"/>
</a>
</g>
</g>
<!-- 1 -->
<g id="node3" class="node">
<title>1</title>
<g id="a_node3"><a xlink:title="JITState">
<polygon fill="#bfbfbf" stroke="black" points="1034,-396 960,-396 960,-360 1034,-360 1034,-396"/>
<text text-anchor="middle" x="997" y="-374.3" font-family="Times,serif" font-size="14.00">JITState</text>
</a>
</g>
</g>
<!-- 7 -->
<g id="node4" class="node">
<title>7</title>
<g id="a_node4"><a xlink:title="Module">
<polygon fill="#ffffff" stroke="black" points="1064,-324 994,-324 994,-288 1064,-288 1064,-324"/>
<text text-anchor="middle" x="1029" y="-302.3" font-family="Times,serif" font-size="14.00">Module</text>
</a>
</g>
</g>
<!-- 1&#45;&gt;7 -->
<g id="edge5" class="edge">
<title>1&#45;&gt;7</title>
<g id="a_edge5"><a xlink:title="usage">
<path fill="none" stroke="#1414ce" d="M1004.91,-359.7C1008.55,-351.73 1012.95,-342.1 1016.99,-333.26"/>
<polygon fill="#1414ce" stroke="#1414ce" points="1020.21,-334.65 1021.18,-324.1 1013.84,-331.74 1020.21,-334.65"/>
</a>
</g>
</g>
<!-- 2 -->
<g id="node15" class="node">
<title>2</title>
<g id="a_node15"><a xlink:title="Context">
<polygon fill="#ffffff" stroke="black" points="1016.5,-252 943.5,-252 943.5,-216 1016.5,-216 1016.5,-252"/>
<text text-anchor="middle" x="980" y="-230.3" font-family="Times,serif" font-size="14.00">Context</text>
</a>
</g>
</g>
<!-- 1&#45;&gt;2 -->
<g id="edge4" class="edge">
<title>1&#45;&gt;2</title>
<g id="a_edge4"><a xlink:title="usage">
<path fill="none" stroke="#1414ce" d="M992.38,-359.95C989.77,-349.62 986.7,-336.15 985,-324 982.12,-303.44 980.88,-279.99 980.36,-262.32"/>
<polygon fill="#1414ce" stroke="#1414ce" points="983.85,-262.06 980.12,-252.14 976.86,-262.22 983.85,-262.06"/>
</a>
</g>
</g>
<!-- 9 -->
<g id="node12" class="node">
<title>9</title>
<g id="a_node12"><a xlink:title="LiteralEntry">
<polygon fill="#ffffff" stroke="black" points="1157,-252 1053,-252 1053,-216 1157,-216 1157,-252"/>
<text text-anchor="middle" x="1105" y="-230.3" font-family="Times,serif" font-size="14.00">LiteralEntry</text>
</a>
</g>
</g>
<!-- 7&#45;&gt;9 -->
<g id="edge8" class="edge">
<title>7&#45;&gt;9</title>
<g id="a_edge8"><a xlink:title="usage">
<path fill="none" stroke="#1414ce" d="M1047.79,-287.7C1057.17,-279.05 1068.68,-268.45 1078.91,-259.03"/>
<polygon fill="#1414ce" stroke="#1414ce" points="1081.45,-261.45 1086.43,-252.1 1076.7,-256.3 1081.45,-261.45"/>
</a>
</g>
</g>
<!-- 7&#45;&gt;2 -->
<g id="edge7" class="edge">
<title>7&#45;&gt;2</title>
<g id="a_edge7"><a xlink:title="usage">
<path fill="none" stroke="#1414ce" d="M1010.97,-287.7C1004.44,-279.56 997.32,-269.69 991.46,-260.7"/>
<polygon fill="#1414ce" stroke="#1414ce" points="994.35,-258.73 986.08,-252.1 988.42,-262.44 994.35,-258.73"/>
</a>
</g>
</g>
<!-- 8 -->
<g id="node21" class="node">
<title>8</title>
<g id="a_node21"><a xlink:title="ExportedFunction">
<polygon fill="#ffffff" stroke="black" points="1321,-252 1175,-252 1175,-216 1321,-216 1321,-252"/>
<text text-anchor="middle" x="1248" y="-230.3" font-family="Times,serif" font-size="14.00">ExportedFunction</text>
</a>
</g>
</g>
<!-- 7&#45;&gt;8 -->
<g id="edge6" class="edge">
<title>7&#45;&gt;8</title>
<g id="a_edge6"><a xlink:title="usage">
<path fill="none" stroke="#1414ce" d="M1064.19,-293.75C1096.62,-283.39 1145.53,-267.75 1184.75,-255.22"/>
<polygon fill="#1414ce" stroke="#1414ce" points="1186.03,-258.48 1194.49,-252.1 1183.9,-251.81 1186.03,-258.48"/>
</a>
</g>
</g>
<!-- 6&#45;&gt;6 -->
<g id="edge9" class="edge">
<title>6&#45;&gt;6</title>
<g id="a_edge9"><a xlink:title="usage">
<path fill="none" stroke="#1414ce" d="M396.73,-31.31C406.9,-30.38 414.5,-25.95 414.5,-18 414.5,-12.91 411.38,-9.26 406.47,-7.05"/>
<polygon fill="#1414ce" stroke="#1414ce" points="407.28,-3.64 396.73,-4.69 405.63,-10.45 407.28,-3.64"/>
</a>
</g>
</g>
<!-- 11 -->
<g id="node6" class="node">
<title>11</title>
<g id="a_node6"><a xlink:title="HeapFragment">
<polygon fill="#ffffff" stroke="black" points="1168.5,-36 1043.5,-36 1043.5,0 1168.5,0 1168.5,-36"/>
<text text-anchor="middle" x="1106" y="-14.3" font-family="Times,serif" font-size="14.00">HeapFragment</text>
</a>
</g>
</g>
<!-- 11&#45;&gt;11 -->
<g id="edge10" class="edge">
<title>11&#45;&gt;11</title>
<g id="a_edge10"><a xlink:title="usage">
<path fill="none" stroke="#1414ce" d="M1168.78,-30.55C1179.26,-28.79 1186.5,-24.61 1186.5,-18 1186.5,-13.77 1183.53,-10.53 1178.64,-8.29"/>
<polygon fill="#1414ce" stroke="#1414ce" points="1179.36,-4.85 1168.78,-5.45 1177.42,-11.58 1179.36,-4.85"/>
</a>
</g>
</g>
<!-- 21 -->
<g id="node7" class="node">
<title>21</title>
<g id="a_node7"><a xlink:title="RefcBinaryQueueItem">
<polygon fill="#ffffff" stroke="black" points="491,-324 317,-324 317,-288 491,-288 491,-324"/>
<text text-anchor="middle" x="404" y="-302.3" font-family="Times,serif" font-size="14.00">RefcBinaryQueueItem</text>
</a>
</g>
</g>
<!-- 21&#45;&gt;21 -->
<g id="edge12" class="edge">
<title>21&#45;&gt;21</title>
<g id="a_edge12"><a xlink:title="usage">
<path fill="none" stroke="#1414ce" d="M491.3,-317.68C501.99,-315.59 509,-311.7 509,-306 509,-302.35 506.12,-299.44 501.25,-297.27"/>
<polygon fill="#1414ce" stroke="#1414ce" points="501.88,-293.81 491.3,-294.32 499.89,-300.52 501.88,-293.81"/>
</a>
</g>
</g>
<!-- 22 -->
<g id="node17" class="node">
<title>22</title>
<g id="a_node17"><a xlink:title="RefcBinary">
<polygon fill="#ffffff" stroke="black" points="403.5,-252 308.5,-252 308.5,-216 403.5,-216 403.5,-252"/>
<text text-anchor="middle" x="356" y="-230.3" font-family="Times,serif" font-size="14.00">RefcBinary</text>
</a>
</g>
</g>
<!-- 21&#45;&gt;22 -->
<g id="edge11" class="edge">
<title>21&#45;&gt;22</title>
<g id="a_edge11"><a xlink:title="usage">
<path fill="none" stroke="#1414ce" d="M392.13,-287.7C386.5,-279.47 379.65,-269.48 373.43,-260.42"/>
<polygon fill="#1414ce" stroke="#1414ce" points="376.27,-258.37 367.73,-252.1 370.5,-262.33 376.27,-258.37"/>
</a>
</g>
</g>
<!-- 12&#45;&gt;24 -->
<g id="edge22" class="edge">
<title>12&#45;&gt;24</title>
<g id="a_edge22"><a xlink:title="usage">
<path fill="none" stroke="#1414ce" d="M368.28,-359.88C348.5,-350.39 323.73,-338.51 302.67,-328.42"/>
<polygon fill="#1414ce" stroke="#1414ce" points="304.13,-325.24 293.6,-324.07 301.1,-331.55 304.13,-325.24"/>
</a>
</g>
</g>
<!-- 12&#45;&gt;13 -->
<g id="edge13" class="edge">
<title>12&#45;&gt;13</title>
<g id="a_edge13"><a xlink:title="usage">
<path fill="none" stroke="#1414ce" d="M344.32,-369.83C290.26,-361.63 216.68,-346.37 199,-324 168.7,-285.66 177.43,-224.64 188.9,-189.77"/>
<polygon fill="#1414ce" stroke="#1414ce" points="192.23,-190.85 192.34,-180.26 185.64,-188.47 192.23,-190.85"/>
</a>
</g>
</g>
<!-- 12&#45;&gt;7 -->
<g id="edge20" class="edge">
<title>12&#45;&gt;7</title>
<g id="a_edge20"><a xlink:title="usage">
<path fill="none" stroke="#1414ce" d="M463.6,-372.31C561.13,-364.33 760.83,-346.76 929,-324 946.92,-321.58 966.55,-318.36 983.64,-315.38"/>
<polygon fill="#1414ce" stroke="#1414ce" points="984.68,-318.75 993.92,-313.56 983.46,-311.86 984.68,-318.75"/>
</a>
</g>
</g>
<!-- 12&#45;&gt;6 -->
<g id="edge23" class="edge">
<title>12&#45;&gt;6</title>
<g id="a_edge23"><a xlink:title="usage">
<path fill="none" stroke="#1414ce" d="M463.66,-361.2C483.62,-353.12 504.26,-341.24 518,-324 543.21,-292.37 537,-275.45 537,-235 537,-235 537,-235 537,-161 537,-94.26 459.88,-54.15 406.32,-34.33"/>
<polygon fill="#1414ce" stroke="#1414ce" points="407.21,-30.94 396.62,-30.87 404.86,-37.53 407.21,-30.94"/>
</a>
</g>
</g>
<!-- 12&#45;&gt;21 -->
<g id="edge18" class="edge">
<title>12&#45;&gt;21</title>
<g id="a_edge18"><a xlink:title="usage">
<path fill="none" stroke="#1414ce" d="M404,-359.7C404,-351.98 404,-342.71 404,-334.11"/>
<polygon fill="#1414ce" stroke="#1414ce" points="407.5,-334.1 404,-324.1 400.5,-334.1 407.5,-334.1"/>
</a>
</g>
</g>
<!-- 15 -->
<g id="node9" class="node">
<title>15</title>
<g id="a_node9"><a xlink:title="Ets">
<polygon fill="#ffffff" stroke="black" points="143,-324 89,-324 89,-288 143,-288 143,-324"/>
<text text-anchor="middle" x="116" y="-302.3" font-family="Times,serif" font-size="14.00">Ets</text>
</a>
</g>
</g>
<!-- 12&#45;&gt;15 -->
<g id="edge14" class="edge">
<title>12&#45;&gt;15</title>
<g id="a_edge14"><a xlink:title="usage">
<path fill="none" stroke="#1414ce" d="M344.33,-367.34C293.81,-358.41 219.81,-343.58 157,-324 155.57,-323.56 154.13,-323.08 152.68,-322.58"/>
<polygon fill="#1414ce" stroke="#1414ce" points="153.69,-319.22 143.09,-319.04 151.26,-325.79 153.69,-319.22"/>
</a>
</g>
</g>
<!-- 23 -->
<g id="node11" class="node">
<title>23</title>
<g id="a_node11"><a xlink:title="TimerList">
<polygon fill="#ffffff" stroke="black" points="86,-108 0,-108 0,-72 86,-72 86,-108"/>
<text text-anchor="middle" x="43" y="-86.3" font-family="Times,serif" font-size="14.00">TimerList</text>
</a>
</g>
</g>
<!-- 12&#45;&gt;23 -->
<g id="edge21" class="edge">
<title>12&#45;&gt;23</title>
<g id="a_edge21"><a xlink:title="usage">
<path fill="none" stroke="#1414ce" d="M344.25,-376.57C255.31,-374.55 94.53,-365.14 57,-324 4.96,-266.97 22.63,-165.77 35.07,-117.74"/>
<polygon fill="#1414ce" stroke="#1414ce" points="38.45,-118.63 37.69,-108.06 31.69,-116.8 38.45,-118.63"/>
</a>
</g>
</g>
<!-- 18 -->
<g id="node16" class="node">
<title>18</title>
<g id="a_node16"><a xlink:title="MessageQueueItem">
<polygon fill="#ffffff" stroke="black" points="723,-180 565,-180 565,-144 723,-144 723,-180"/>
<text text-anchor="middle" x="644" y="-158.3" font-family="Times,serif" font-size="14.00">MessageQueueItem</text>
</a>
</g>
</g>
<!-- 12&#45;&gt;18 -->
<g id="edge16" class="edge">
<title>12&#45;&gt;18</title>
<g id="a_edge16"><a xlink:title="usage">
<path fill="none" stroke="#1414ce" d="M463.84,-367.37C493.28,-359.92 527.41,-346.83 551,-324 588.13,-288.07 566.22,-259.56 594,-216 600.52,-205.77 609.18,-195.77 617.45,-187.26"/>
<polygon fill="#1414ce" stroke="#1414ce" points="619.93,-189.72 624.55,-180.19 614.99,-184.76 619.93,-189.72"/>
</a>
</g>
</g>
<!-- 16 -->
<g id="node18" class="node">
<title>16</title>
<g id="a_node18"><a xlink:title="ValuesHashTable">
<polygon fill="#ffffff" stroke="black" points="741,-252 603,-252 603,-216 741,-216 741,-252"/>
<text text-anchor="middle" x="672" y="-230.3" font-family="Times,serif" font-size="14.00">ValuesHashTable</text>
</a>
</g>
</g>
<!-- 12&#45;&gt;16 -->
<g id="edge15" class="edge">
<title>12&#45;&gt;16</title>
<g id="a_edge15"><a xlink:title="usage">
<path fill="none" stroke="#1414ce" d="M463.57,-368.38C501.56,-360.91 550.68,-347.47 589,-324 615.8,-307.58 639.48,-280.2 654.61,-260.13"/>
<polygon fill="#1414ce" stroke="#1414ce" points="657.46,-262.16 660.56,-252.03 651.82,-258.02 657.46,-262.16"/>
</a>
</g>
</g>
<!-- 19 -->
<g id="node20" class="node">
<title>19</title>
<g id="a_node20"><a xlink:title="AtomTable">
<polygon fill="#ffffff" stroke="black" points="860,-324 768,-324 768,-288 860,-288 860,-324"/>
<text text-anchor="middle" x="814" y="-302.3" font-family="Times,serif" font-size="14.00">AtomTable</text>
</a>
</g>
</g>
<!-- 12&#45;&gt;19 -->
<g id="edge17" class="edge">
<title>12&#45;&gt;19</title>
<g id="a_edge17"><a xlink:title="usage">
<path fill="none" stroke="#1414ce" d="M463.62,-366.82C542.58,-353.34 680.83,-329.74 757.96,-316.57"/>
<polygon fill="#1414ce" stroke="#1414ce" points="758.7,-319.99 767.97,-314.86 757.52,-313.09 758.7,-319.99"/>
</a>
</g>
</g>
<!-- 12&#45;&gt;14 -->
<g id="edge19" class="edge">
<title>12&#45;&gt;14</title>
<g id="a_edge19"><a xlink:title="usage">
<path fill="none" stroke="#1414ce" d="M344.42,-376.11C260.31,-373.44 113.26,-363.15 80,-324 48.76,-287.23 45.71,-257.88 119,-144 126.27,-132.7 136.72,-122.61 147.07,-114.35"/>
<polygon fill="#1414ce" stroke="#1414ce" points="149.43,-116.95 155.29,-108.12 145.2,-111.37 149.43,-116.95"/>
</a>
</g>
</g>
<!-- 15&#45;&gt;14 -->
<g id="edge24" class="edge">
<title>15&#45;&gt;14</title>
<g id="a_edge24"><a xlink:title="usage">
<path fill="none" stroke="#1414ce" d="M114.89,-287.66C113.62,-257.15 114.07,-192.51 136,-144 140.73,-133.53 148.27,-123.65 155.93,-115.31"/>
<polygon fill="#1414ce" stroke="#1414ce" points="158.46,-117.73 162.93,-108.12 153.45,-112.85 158.46,-117.73"/>
</a>
</g>
</g>
<!-- 20 -->
<g id="node10" class="node">
<title>20</title>
<g id="a_node10"><a xlink:title="HNodeGroup">
<polygon fill="#ffffff" stroke="black" points="869,-252 759,-252 759,-216 869,-216 869,-252"/>
<text text-anchor="middle" x="814" y="-230.3" font-family="Times,serif" font-size="14.00">HNodeGroup</text>
</a>
</g>
</g>
<!-- 20&#45;&gt;20 -->
<g id="edge26" class="edge">
<title>20&#45;&gt;20</title>
<g id="a_edge26"><a xlink:title="usage">
<path fill="none" stroke="#1414ce" d="M869.07,-246.85C879.57,-245.32 887,-241.03 887,-234 887,-229.5 883.95,-226.12 879,-223.87"/>
<polygon fill="#1414ce" stroke="#1414ce" points="879.64,-220.42 869.07,-221.15 877.79,-227.17 879.64,-220.42"/>
</a>
</g>
</g>
<!-- 17 -->
<g id="node24" class="node">
<title>17</title>
<g id="a_node24"><a xlink:title="HNode">
<polygon fill="#ffffff" stroke="black" points="825,-180 759,-180 759,-144 825,-144 825,-180"/>
<text text-anchor="middle" x="792" y="-158.3" font-family="Times,serif" font-size="14.00">HNode</text>
</a>
</g>
</g>
<!-- 20&#45;&gt;17 -->
<g id="edge25" class="edge">
<title>20&#45;&gt;17</title>
<g id="a_edge25"><a xlink:title="usage">
<path fill="none" stroke="#1414ce" d="M808.56,-215.7C806.11,-207.9 803.16,-198.51 800.43,-189.83"/>
<polygon fill="#1414ce" stroke="#1414ce" points="803.71,-188.59 797.38,-180.1 797.04,-190.69 803.71,-188.59"/>
</a>
</g>
</g>
<!-- 23&#45;&gt;6 -->
<g id="edge27" class="edge">
<title>23&#45;&gt;6</title>
<g id="a_edge27"><a xlink:title="usage">
<path fill="none" stroke="#1414ce" d="M86.19,-79.34C143.54,-66.51 244.64,-43.9 305.47,-30.3"/>
<polygon fill="#1414ce" stroke="#1414ce" points="306.24,-33.71 315.24,-28.12 304.71,-26.88 306.24,-33.71"/>
</a>
</g>
</g>
<!-- 4 -->
<g id="node13" class="node">
<title>4</title>
<g id="a_node13"><a xlink:title="MailboxMessage">
<polygon fill="#ffffff" stroke="black" points="789.5,-108 652.5,-108 652.5,-72 789.5,-72 789.5,-108"/>
<text text-anchor="middle" x="721" y="-86.3" font-family="Times,serif" font-size="14.00">MailboxMessage</text>
</a>
</g>
</g>
<!-- 4&#45;&gt;4 -->
<g id="edge28" class="edge">
<title>4&#45;&gt;4</title>
<g id="a_edge28"><a xlink:title="usage">
<path fill="none" stroke="#1414ce" d="M789.53,-102.37C800.21,-100.52 807.5,-96.4 807.5,-90 807.5,-85.8 804.36,-82.58 799.18,-80.34"/>
<polygon fill="#1414ce" stroke="#1414ce" points="800.1,-76.96 789.53,-77.63 798.21,-83.7 800.1,-76.96"/>
</a>
</g>
</g>
<!-- 10 -->
<g id="node14" class="node">
<title>10</title>
<g id="a_node14"><a xlink:title="Heap">
<polygon fill="#ffffff" stroke="black" points="1133,-108 1079,-108 1079,-72 1133,-72 1133,-108"/>
<text text-anchor="middle" x="1106" y="-86.3" font-family="Times,serif" font-size="14.00">Heap</text>
</a>
</g>
</g>
<!-- 10&#45;&gt;11 -->
<g id="edge29" class="edge">
<title>10&#45;&gt;11</title>
<g id="a_edge29"><a xlink:title="usage">
<path fill="none" stroke="#1414ce" d="M1106,-71.7C1106,-63.98 1106,-54.71 1106,-46.11"/>
<polygon fill="#1414ce" stroke="#1414ce" points="1109.5,-46.1 1106,-36.1 1102.5,-46.1 1109.5,-46.1"/>
</a>
</g>
</g>
<!-- 2&#45;&gt;7 -->
<g id="edge33" class="edge">
<title>2&#45;&gt;7</title>
<g id="a_edge33"><a xlink:title="usage">
<path fill="none" stroke="#1414ce" d="M997.87,-252.1C1004.39,-260.21 1011.51,-270.08 1017.4,-279.08"/>
<polygon fill="#1414ce" stroke="#1414ce" points="1014.53,-281.08 1022.8,-287.7 1020.46,-277.37 1014.53,-281.08"/>
</a>
</g>
</g>
<!-- 2&#45;&gt;6 -->
<g id="edge36" class="edge">
<title>2&#45;&gt;6</title>
<g id="a_edge36"><a xlink:title="usage">
<path fill="none" stroke="#1414ce" d="M976.62,-215.8C972.08,-196.43 962.35,-164.93 944,-144 901.23,-95.21 878.69,-92.11 817,-72 673.47,-25.22 493.07,-18.52 406.67,-18.3"/>
<polygon fill="#1414ce" stroke="#1414ce" points="406.61,-14.8 396.61,-18.3 406.61,-21.8 406.61,-14.8"/>
</a>
</g>
</g>
<!-- 2&#45;&gt;12 -->
<g id="edge35" class="edge">
<title>2&#45;&gt;12</title>
<g id="a_edge35"><a xlink:title="usage">
<path fill="none" stroke="#1414ce" d="M964.66,-252.18C944.84,-273.1 908.22,-307.66 869,-324 799.27,-353.05 585.51,-367.86 473.74,-373.79"/>
<polygon fill="#1414ce" stroke="#1414ce" points="473.38,-370.3 463.58,-374.32 473.75,-377.3 473.38,-370.3"/>
</a>
</g>
</g>
<!-- 2&#45;&gt;10 -->
<g id="edge34" class="edge">
<title>2&#45;&gt;10</title>
<g id="a_edge34"><a xlink:title="usage">
<path fill="none" stroke="#1414ce" d="M995.2,-215.87C1017.34,-190.92 1058.57,-144.45 1084.02,-115.77"/>
<polygon fill="#1414ce" stroke="#1414ce" points="1086.73,-117.99 1090.75,-108.19 1081.49,-113.35 1086.73,-117.99"/>
</a>
</g>
</g>
<!-- 2&#45;&gt;2 -->
<g id="edge30" class="edge">
<title>2&#45;&gt;2</title>
<g id="a_edge30"><a xlink:title="usage">
<path fill="none" stroke="#1414ce" d="M1016.68,-247.42C1026.78,-246.77 1034.5,-242.3 1034.5,-234 1034.5,-228.81 1031.48,-225.12 1026.76,-222.93"/>
<polygon fill="#1414ce" stroke="#1414ce" points="1027.21,-219.44 1016.68,-220.58 1025.63,-226.26 1027.21,-219.44"/>
</a>
</g>
</g>
<!-- 3 -->
<g id="node19" class="node">
<title>3</title>
<g id="a_node19"><a xlink:title="Mailbox">
<polygon fill="#ffffff" stroke="black" points="935,-180 861,-180 861,-144 935,-144 935,-180"/>
<text text-anchor="middle" x="898" y="-158.3" font-family="Times,serif" font-size="14.00">Mailbox</text>
</a>
</g>
</g>
<!-- 2&#45;&gt;3 -->
<g id="edge31" class="edge">
<title>2&#45;&gt;3</title>
<g id="a_edge31"><a xlink:title="usage">
<path fill="none" stroke="#1414ce" d="M959.73,-215.7C949.5,-206.97 936.94,-196.24 925.82,-186.75"/>
<polygon fill="#1414ce" stroke="#1414ce" points="927.91,-183.94 918.04,-180.1 923.37,-189.26 927.91,-183.94"/>
</a>
</g>
</g>
<!-- 5 -->
<g id="node22" class="node">
<title>5</title>
<g id="a_node22"><a xlink:title="TimerListItem">
<polygon fill="#ffffff" stroke="black" points="1060.5,-108 941.5,-108 941.5,-72 1060.5,-72 1060.5,-108"/>
<text text-anchor="middle" x="1001" y="-86.3" font-family="Times,serif" font-size="14.00">TimerListItem</text>
</a>
</g>
</g>
<!-- 2&#45;&gt;5 -->
<g id="edge32" class="edge">
<title>2&#45;&gt;5</title>
<g id="a_edge32"><a xlink:title="usage">
<path fill="none" stroke="#1414ce" d="M982.53,-215.87C986.11,-191.67 992.69,-147.21 996.95,-118.39"/>
<polygon fill="#1414ce" stroke="#1414ce" points="1000.46,-118.59 998.46,-108.19 993.53,-117.57 1000.46,-118.59"/>
</a>
</g>
</g>
<!-- 18&#45;&gt;4 -->
<g id="edge37" class="edge">
<title>18&#45;&gt;4</title>
<g id="a_edge37"><a xlink:title="usage">
<path fill="none" stroke="#1414ce" d="M663.03,-143.7C672.54,-135.05 684.21,-124.45 694.57,-115.03"/>
<polygon fill="#1414ce" stroke="#1414ce" points="697.14,-117.42 702.19,-108.1 692.43,-112.24 697.14,-117.42"/>
</a>
</g>
</g>
<!-- 18&#45;&gt;18 -->
<g id="edge38" class="edge">
<title>18&#45;&gt;18</title>
<g id="a_edge38"><a xlink:title="usage">
<path fill="none" stroke="#1414ce" d="M723.16,-173.98C733.87,-171.97 741,-167.98 741,-162 741,-158.08 737.93,-155.01 732.79,-152.8"/>
<polygon fill="#1414ce" stroke="#1414ce" points="733.74,-149.43 723.16,-150.02 731.8,-156.15 733.74,-149.43"/>
</a>
</g>
</g>
<!-- 22&#45;&gt;13 -->
<g id="edge39" class="edge">
<title>22&#45;&gt;13</title>
<g id="a_edge39"><a xlink:title="usage">
<path fill="none" stroke="#1414ce" d="M318.57,-215.88C297.75,-206.35 271.65,-194.41 249.52,-184.28"/>
<polygon fill="#1414ce" stroke="#1414ce" points="250.86,-181.05 240.31,-180.07 247.94,-187.41 250.86,-181.05"/>
</a>
</g>
</g>
<!-- 22&#45;&gt;6 -->
<g id="edge40" class="edge">
<title>22&#45;&gt;6</title>
<g id="a_edge40"><a xlink:title="usage">
<path fill="none" stroke="#1414ce" d="M356,-215.85C356,-178.83 356,-91.18 356,-46.39"/>
<polygon fill="#1414ce" stroke="#1414ce" points="359.5,-46.23 356,-36.23 352.5,-46.23 359.5,-46.23"/>
</a>
</g>
</g>
<!-- 16&#45;&gt;17 -->
<g id="edge41" class="edge">
<title>16&#45;&gt;17</title>
<g id="a_edge41"><a xlink:title="usage">
<path fill="none" stroke="#1414ce" d="M701.36,-215.88C717.05,-206.72 736.56,-195.34 753.45,-185.48"/>
<polygon fill="#1414ce" stroke="#1414ce" points="755.66,-188.25 762.53,-180.19 752.13,-182.21 755.66,-188.25"/>
</a>
</g>
</g>
<!-- 3&#45;&gt;4 -->
<g id="edge42" class="edge">
<title>3&#45;&gt;4</title>
<g id="a_edge42"><a xlink:title="usage">
<path fill="none" stroke="#1414ce" d="M860.89,-146.33C835.69,-136.36 801.96,-123.02 773.94,-111.94"/>
<polygon fill="#1414ce" stroke="#1414ce" points="774.88,-108.54 764.29,-108.12 772.31,-115.05 774.88,-108.54"/>
</a>
</g>
</g>
<!-- 19&#45;&gt;20 -->
<g id="edge44" class="edge">
<title>19&#45;&gt;20</title>
<g id="a_edge44"><a xlink:title="usage">
<path fill="none" stroke="#1414ce" d="M814,-287.7C814,-279.98 814,-270.71 814,-262.11"/>
<polygon fill="#1414ce" stroke="#1414ce" points="817.5,-262.1 814,-252.1 810.5,-262.1 817.5,-262.1"/>
</a>
</g>
</g>
<!-- 19&#45;&gt;17 -->
<g id="edge43" class="edge">
<title>19&#45;&gt;17</title>
<g id="a_edge43"><a xlink:title="usage">
<path fill="none" stroke="#1414ce" d="M856.62,-287.99C871.87,-279.58 887.41,-267.78 896,-252 903.65,-237.95 904.36,-229.64 896,-216 882.63,-194.18 857.13,-180.98 834.73,-173.22"/>
<polygon fill="#1414ce" stroke="#1414ce" points="835.63,-169.83 825.04,-170.12 833.5,-176.5 835.63,-169.83"/>
</a>
</g>
</g>
<!-- 5&#45;&gt;6 -->
<g id="edge45" class="edge">
<title>5&#45;&gt;6</title>
<g id="a_edge45"><a xlink:title="usage">
<path fill="none" stroke="#1414ce" d="M941.36,-74.58C936.52,-73.63 931.69,-72.75 927,-72 736.41,-41.4 506.98,-26.75 406.87,-21.44"/>
<polygon fill="#1414ce" stroke="#1414ce" points="406.9,-17.94 396.73,-20.91 406.54,-24.93 406.9,-17.94"/>
</a>
</g>
</g>
<!-- 14&#45;&gt;6 -->
<g id="edge46" class="edge">
<title>14&#45;&gt;6</title>
<g id="a_edge46"><a xlink:title="usage">
<path fill="none" stroke="#1414ce" d="M222.26,-73.12C247.03,-63.09 279.26,-50.05 305.87,-39.28"/>
<polygon fill="#1414ce" stroke="#1414ce" points="307.44,-42.42 315.4,-35.43 304.81,-35.94 307.44,-42.42"/>
</a>
</g>
</g>
<!-- 17&#45;&gt;10 -->
<g id="edge48" class="edge">
<title>17&#45;&gt;10</title>
<g id="a_edge48"><a xlink:title="usage">
<path fill="none" stroke="#1414ce" d="M825.15,-150.89C833.84,-148.44 843.23,-145.96 852,-144 944.75,-123.27 974.35,-136.34 1069.11,-107.8"/>
<polygon fill="#1414ce" stroke="#1414ce" points="1070.28,-111.1 1078.8,-104.8 1068.21,-104.41 1070.28,-111.1"/>
</a>
</g>
</g>
<!-- 17&#45;&gt;17 -->
<g id="edge47" class="edge">
<title>17&#45;&gt;17</title>
<g id="a_edge47"><a xlink:title="usage">
<path fill="none" stroke="#1414ce" d="M825.35,-175.47C835.28,-175.07 843,-170.58 843,-162 843,-156.64 839.98,-152.87 835.3,-150.71"/>
<polygon fill="#1414ce" stroke="#1414ce" points="835.87,-147.25 825.35,-148.53 834.37,-154.09 835.87,-147.25"/>
</a>
</g>
</g>
</g>
</svg>
