<?xml version="1.0" encoding="UTF-8" standalone="no"?>
<!DOCTYPE svg PUBLIC "-//W3C//DTD SVG 1.1//EN"
 "http://www.w3.org/Graphics/SVG/1.1/DTD/svg11.dtd">
<!-- Generated by graphviz version 2.43.0 (0)
 -->
<!-- Title: %3 Pages: 1 -->
<svg width="1869pt" height="836pt"
 viewBox="0.00 0.00 1868.50 836.00" xmlns="http://www.w3.org/2000/svg" xmlns:xlink="http://www.w3.org/1999/xlink">
<g id="graph0" class="graph" transform="scale(1 1) rotate(0) translate(4 832)">
<title>%3</title>
<polygon fill="transparent" stroke="transparent" points="-4,4 -4,-832 1864.5,-832 1864.5,4 -4,4"/>
<!-- 9 -->
<g id="node1" class="node">
<title>9</title>
<g id="a_node1"><a xlink:title="stdbool.h">
<polygon fill="#ffffff" stroke="black" points="1196,-108 1113,-108 1113,-72 1196,-72 1196,-108"/>
<text text-anchor="middle" x="1154.5" y="-86.3" font-family="Times,serif" font-size="14.00">stdbool.h</text>
</a>
</g>
</g>
<!-- 1 -->
<g id="node2" class="node">
<title>1</title>
<g id="a_node2"><a xlink:title="/__w/AtomVM/AtomVM/src/libAtomVM/interop.c">
<polygon fill="#bfbfbf" stroke="black" points="933,-828 576,-828 576,-792 933,-792 933,-828"/>
<text text-anchor="middle" x="754.5" y="-806.3" font-family="Times,serif" font-size="14.00">/__w/AtomVM/AtomVM/src/libAtomVM/interop.c</text>
</a>
</g>
</g>
<!-- 2 -->
<g id="node3" class="node">
<title>2</title>
<g id="a_node3"><a xlink:title="interop.h">
<polygon fill="#ffffff" stroke="black" points="830.5,-756 748.5,-756 748.5,-720 830.5,-720 830.5,-756"/>
<text text-anchor="middle" x="789.5" y="-734.3" font-family="Times,serif" font-size="14.00">interop.h</text>
</a>
</g>
</g>
<!-- 1&#45;&gt;2 -->
<g id="edge1" class="edge">
<title>1&#45;&gt;2</title>
<g id="a_edge1"><a xlink:title="include">
<path fill="none" stroke="#1414ce" d="M763.15,-791.7C767.14,-783.73 771.95,-774.1 776.37,-765.26"/>
<polygon fill="#1414ce" stroke="#1414ce" points="779.61,-766.61 780.95,-756.1 773.35,-763.48 779.61,-766.61"/>
</a>
</g>
</g>
<!-- 33 -->
<g id="node5" class="node">
<title>33</title>
<g id="a_node5"><a xlink:title="defaultatoms.h">
<polygon fill="#ffffff" stroke="black" points="1050.5,-756 926.5,-756 926.5,-720 1050.5,-720 1050.5,-756"/>
<text text-anchor="middle" x="988.5" y="-734.3" font-family="Times,serif" font-size="14.00">defaultatoms.h</text>
</a>
</g>
</g>
<!-- 1&#45;&gt;33 -->
<g id="edge4" class="edge">
<title>1&#45;&gt;33</title>
<g id="a_edge4"><a xlink:title="include">
<path fill="none" stroke="#1414ce" d="M811.44,-791.97C844.71,-782.01 886.86,-769.41 921.69,-758.99"/>
<polygon fill="#1414ce" stroke="#1414ce" points="922.72,-762.33 931.3,-756.11 920.72,-755.62 922.72,-762.33"/>
</a>
</g>
</g>
<!-- 10 -->
<g id="node8" class="node">
<title>10</title>
<g id="a_node8"><a xlink:title="utils.h">
<polygon fill="#ffffff" stroke="black" points="545.5,-180 483.5,-180 483.5,-144 545.5,-144 545.5,-180"/>
<text text-anchor="middle" x="514.5" y="-158.3" font-family="Times,serif" font-size="14.00">utils.h</text>
</a>
</g>
</g>
<!-- 1&#45;&gt;10 -->
<g id="edge8" class="edge">
<title>1&#45;&gt;10</title>
<g id="a_edge8"><a xlink:title="include">
<path fill="none" stroke="#1414ce" d="M575.73,-793.57C529.54,-785.71 480.68,-773.86 437.5,-756 374.48,-729.93 312.5,-735.2 312.5,-667 312.5,-667 312.5,-667 312.5,-449 312.5,-332.54 425.63,-230.22 482.56,-186.09"/>
<polygon fill="#1414ce" stroke="#1414ce" points="484.71,-188.86 490.53,-180.01 480.46,-183.29 484.71,-188.86"/>
</a>
</g>
</g>
<!-- 5 -->
<g id="node11" class="node">
<title>5</title>
<g id="a_node11"><a xlink:title="stdint.h">
<polygon fill="#ffffff" stroke="black" points="1179.5,-36 1107.5,-36 1107.5,0 1179.5,0 1179.5,-36"/>
<text text-anchor="middle" x="1143.5" y="-14.3" font-family="Times,serif" font-size="14.00">stdint.h</text>
</a>
</g>
</g>
<!-- 1&#45;&gt;5 -->
<g id="edge10" class="edge">
<title>1&#45;&gt;5</title>
<g id="a_edge10"><a xlink:title="include">
<path fill="none" stroke="#1414ce" d="M933.15,-800.78C1214.33,-785.42 1728.5,-746.46 1728.5,-667 1728.5,-667 1728.5,-667 1728.5,-161 1728.5,-104.43 1688.67,-96.13 1637.5,-72 1558.79,-34.89 1297.25,-23.35 1190,-20.13"/>
<polygon fill="#1414ce" stroke="#1414ce" points="1189.91,-16.63 1179.81,-19.84 1189.7,-23.62 1189.91,-16.63"/>
</a>
</g>
</g>
<!-- 30 -->
<g id="node15" class="node">
<title>30</title>
<g id="a_node15"><a xlink:title="valueshashtable.h">
<polygon fill="#ffffff" stroke="black" points="322.5,-324 176.5,-324 176.5,-288 322.5,-288 322.5,-324"/>
<text text-anchor="middle" x="249.5" y="-302.3" font-family="Times,serif" font-size="14.00">valueshashtable.h</text>
</a>
</g>
</g>
<!-- 1&#45;&gt;30 -->
<g id="edge9" class="edge">
<title>1&#45;&gt;30</title>
<g id="a_edge9"><a xlink:title="include">
<path fill="none" stroke="#1414ce" d="M575.72,-799.25C469.88,-791.34 347.23,-777.85 298.5,-756 244.21,-731.66 198.5,-726.5 198.5,-667 198.5,-667 198.5,-667 198.5,-449 198.5,-406.59 218.9,-361.02 233.9,-333.26"/>
<polygon fill="#1414ce" stroke="#1414ce" points="237.13,-334.65 238.93,-324.21 231.01,-331.25 237.13,-334.65"/>
</a>
</g>
</g>
<!-- 22 -->
<g id="node17" class="node">
<title>22</title>
<g id="a_node17"><a xlink:title="term.h">
<polygon fill="#ffffff" stroke="black" points="696,-468 631,-468 631,-432 696,-432 696,-468"/>
<text text-anchor="middle" x="663.5" y="-446.3" font-family="Times,serif" font-size="14.00">term.h</text>
</a>
</g>
</g>
<!-- 1&#45;&gt;22 -->
<g id="edge6" class="edge">
<title>1&#45;&gt;22</title>
<g id="a_edge6"><a xlink:title="include">
<path fill="none" stroke="#1414ce" d="M661.2,-791.9C552.76,-769.31 388.5,-725.44 388.5,-667 388.5,-667 388.5,-667 388.5,-593 388.5,-489.85 543.14,-461.55 620.5,-453.85"/>
<polygon fill="#1414ce" stroke="#1414ce" points="621.24,-457.29 630.87,-452.89 620.6,-450.32 621.24,-457.29"/>
</a>
</g>
</g>
<!-- 8 -->
<g id="node22" class="node">
<title>8</title>
<g id="a_node22"><a xlink:title="atom_table.h">
<polygon fill="#ffffff" stroke="black" points="1057,-468 948,-468 948,-432 1057,-432 1057,-468"/>
<text text-anchor="middle" x="1002.5" y="-446.3" font-family="Times,serif" font-size="14.00">atom_table.h</text>
</a>
</g>
</g>
<!-- 1&#45;&gt;8 -->
<g id="edge2" class="edge">
<title>1&#45;&gt;8</title>
<g id="a_edge2"><a xlink:title="include">
<path fill="none" stroke="#1414ce" d="M746.96,-791.94C740.01,-773.78 731.83,-744.36 739.5,-720 774.68,-608.28 801.01,-579.58 890.5,-504 905.96,-490.94 925.19,-480.32 943.33,-472.11"/>
<polygon fill="#1414ce" stroke="#1414ce" points="944.91,-475.24 952.69,-468.04 942.12,-468.82 944.91,-475.24"/>
</a>
</g>
</g>
<!-- 14 -->
<g id="node25" class="node">
<title>14</title>
<g id="a_node25"><a xlink:title="term_typedef.h">
<polygon fill="#ffffff" stroke="black" points="207,-108 82,-108 82,-72 207,-72 207,-108"/>
<text text-anchor="middle" x="144.5" y="-86.3" font-family="Times,serif" font-size="14.00">term_typedef.h</text>
</a>
</g>
</g>
<!-- 1&#45;&gt;14 -->
<g id="edge7" class="edge">
<title>1&#45;&gt;14</title>
<g id="a_edge7"><a xlink:title="include">
<path fill="none" stroke="#1414ce" d="M575.76,-806.51C373.69,-798.73 72.5,-769.88 72.5,-667 72.5,-667 72.5,-667 72.5,-233 72.5,-188.35 101.16,-143.52 122.32,-116.51"/>
<polygon fill="#1414ce" stroke="#1414ce" points="125.32,-118.36 128.88,-108.38 119.87,-113.96 125.32,-118.36"/>
</a>
</g>
</g>
<!-- 31 -->
<g id="node27" class="node">
<title>31</title>
<g id="a_node27"><a xlink:title="bitstring.h">
<polygon fill="#ffffff" stroke="black" points="1658.5,-540 1566.5,-540 1566.5,-504 1658.5,-504 1658.5,-540"/>
<text text-anchor="middle" x="1612.5" y="-518.3" font-family="Times,serif" font-size="14.00">bitstring.h</text>
</a>
</g>
</g>
<!-- 1&#45;&gt;31 -->
<g id="edge3" class="edge">
<title>1&#45;&gt;31</title>
<g id="a_edge3"><a xlink:title="include">
<path fill="none" stroke="#1414ce" d="M870.62,-791.96C927.8,-782.78 997.59,-770.37 1059.5,-756 1281.85,-704.38 1368.18,-746.65 1552.5,-612 1574.48,-595.94 1590.92,-569.23 1600.97,-549.25"/>
<polygon fill="#1414ce" stroke="#1414ce" points="1604.21,-550.59 1605.4,-540.06 1597.91,-547.55 1604.21,-550.59"/>
</a>
</g>
</g>
<!-- 35 -->
<g id="node31" class="node">
<title>35</title>
<g id="a_node31"><a xlink:title="tempstack.h">
<polygon fill="#ffffff" stroke="black" points="1860.5,-756 1756.5,-756 1756.5,-720 1860.5,-720 1860.5,-756"/>
<text text-anchor="middle" x="1808.5" y="-734.3" font-family="Times,serif" font-size="14.00">tempstack.h</text>
</a>
</g>
</g>
<!-- 1&#45;&gt;35 -->
<g id="edge5" class="edge">
<title>1&#45;&gt;35</title>
<g id="a_edge5"><a xlink:title="include">
<path fill="none" stroke="#1414ce" d="M933.21,-803.67C1174.53,-795.74 1591.72,-779.23 1742.5,-756 1743.78,-755.8 1745.08,-755.59 1746.38,-755.37"/>
<polygon fill="#1414ce" stroke="#1414ce" points="1747.3,-758.75 1756.46,-753.42 1745.98,-751.88 1747.3,-758.75"/>
</a>
</g>
</g>
<!-- 3 -->
<g id="node13" class="node">
<title>3</title>
<g id="a_node13"><a xlink:title="context.h">
<polygon fill="#ffffff" stroke="black" points="902,-684 819,-684 819,-648 902,-648 902,-684"/>
<text text-anchor="middle" x="860.5" y="-662.3" font-family="Times,serif" font-size="14.00">context.h</text>
</a>
</g>
</g>
<!-- 2&#45;&gt;3 -->
<g id="edge11" class="edge">
<title>2&#45;&gt;3</title>
<g id="a_edge11"><a xlink:title="include">
<path fill="none" stroke="#1414ce" d="M807.05,-719.7C815.73,-711.14 826.36,-700.66 835.85,-691.3"/>
<polygon fill="#1414ce" stroke="#1414ce" points="838.49,-693.62 843.15,-684.1 833.57,-688.63 838.49,-693.62"/>
</a>
</g>
</g>
<!-- 2&#45;&gt;22 -->
<g id="edge12" class="edge">
<title>2&#45;&gt;22</title>
<g id="a_edge12"><a xlink:title="include">
<path fill="none" stroke="#1414ce" d="M780.09,-719.99C761.7,-686.32 720.36,-608.51 692.5,-540 684.21,-519.61 676.57,-495.89 671.22,-478.07"/>
<polygon fill="#1414ce" stroke="#1414ce" points="674.53,-476.92 668.35,-468.32 667.82,-478.9 674.53,-476.92"/>
</a>
</g>
</g>
<!-- 26 -->
<g id="node4" class="node">
<title>26</title>
<g id="a_node4"><a xlink:title="refc_binary.h">
<polygon fill="#ffffff" stroke="black" points="978.5,-396 870.5,-396 870.5,-360 978.5,-360 978.5,-396"/>
<text text-anchor="middle" x="924.5" y="-374.3" font-family="Times,serif" font-size="14.00">refc_binary.h</text>
</a>
</g>
</g>
<!-- 26&#45;&gt;9 -->
<g id="edge13" class="edge">
<title>26&#45;&gt;9</title>
<g id="a_edge13"><a xlink:title="include">
<path fill="none" stroke="#1414ce" d="M928.55,-360C939.37,-318 972.69,-208.1 1038.5,-144 1056.46,-126.51 1081.23,-114.12 1103.27,-105.74"/>
<polygon fill="#1414ce" stroke="#1414ce" points="1104.63,-108.97 1112.85,-102.28 1102.25,-102.39 1104.63,-108.97"/>
</a>
</g>
</g>
<!-- 19 -->
<g id="node10" class="node">
<title>19</title>
<g id="a_node10"><a xlink:title="list.h">
<polygon fill="#ffffff" stroke="black" points="1181.5,-180 1127.5,-180 1127.5,-144 1181.5,-144 1181.5,-180"/>
<text text-anchor="middle" x="1154.5" y="-158.3" font-family="Times,serif" font-size="14.00">list.h</text>
</a>
</g>
</g>
<!-- 26&#45;&gt;19 -->
<g id="edge15" class="edge">
<title>26&#45;&gt;19</title>
<g id="a_edge15"><a xlink:title="include">
<path fill="none" stroke="#1414ce" d="M942.93,-359.85C983.73,-321.89 1081.74,-230.7 1128.64,-187.06"/>
<polygon fill="#1414ce" stroke="#1414ce" points="1131.04,-189.61 1135.98,-180.23 1126.27,-184.48 1131.04,-189.61"/>
</a>
</g>
</g>
<!-- 7 -->
<g id="node12" class="node">
<title>7</title>
<g id="a_node12"><a xlink:title="stdlib.h">
<polygon fill="#ffffff" stroke="black" points="791,-108 720,-108 720,-72 791,-72 791,-108"/>
<text text-anchor="middle" x="755.5" y="-86.3" font-family="Times,serif" font-size="14.00">stdlib.h</text>
</a>
</g>
</g>
<!-- 26&#45;&gt;7 -->
<g id="edge14" class="edge">
<title>26&#45;&gt;7</title>
<g id="a_edge14"><a xlink:title="include">
<path fill="none" stroke="#1414ce" d="M916.94,-359.86C899.12,-320.24 852,-219.88 799.5,-144 792.9,-134.46 784.98,-124.54 777.7,-115.9"/>
<polygon fill="#1414ce" stroke="#1414ce" points="780.14,-113.37 770.97,-108.06 774.83,-117.93 780.14,-113.37"/>
</a>
</g>
</g>
<!-- 27 -->
<g id="node16" class="node">
<title>27</title>
<g id="a_node16"><a xlink:title="resources.h">
<polygon fill="#ffffff" stroke="black" points="872.5,-324 772.5,-324 772.5,-288 872.5,-288 872.5,-324"/>
<text text-anchor="middle" x="822.5" y="-302.3" font-family="Times,serif" font-size="14.00">resources.h</text>
</a>
</g>
</g>
<!-- 26&#45;&gt;27 -->
<g id="edge16" class="edge">
<title>26&#45;&gt;27</title>
<g id="a_edge16"><a xlink:title="include">
<path fill="none" stroke="#1414ce" d="M899.55,-359.88C886.46,-350.89 870.24,-339.76 856.06,-330.03"/>
<polygon fill="#1414ce" stroke="#1414ce" points="857.77,-326.96 847.55,-324.19 853.81,-332.73 857.77,-326.96"/>
</a>
</g>
</g>
<!-- 34 -->
<g id="node20" class="node">
<title>34</title>
<g id="a_node20"><a xlink:title="defaultatoms.def">
<polygon fill="#ffffff" stroke="black" points="1057,-684 920,-684 920,-648 1057,-648 1057,-684"/>
<text text-anchor="middle" x="988.5" y="-662.3" font-family="Times,serif" font-size="14.00">defaultatoms.def</text>
</a>
</g>
</g>
<!-- 33&#45;&gt;34 -->
<g id="edge18" class="edge">
<title>33&#45;&gt;34</title>
<g id="a_edge18"><a xlink:title="include">
<path fill="none" stroke="#1414ce" d="M988.5,-719.7C988.5,-711.98 988.5,-702.71 988.5,-694.11"/>
<polygon fill="#1414ce" stroke="#1414ce" points="992,-694.1 988.5,-684.1 985,-694.1 992,-694.1"/>
</a>
</g>
</g>
<!-- 4 -->
<g id="node26" class="node">
<title>4</title>
<g id="a_node26"><a xlink:title="globalcontext.h">
<polygon fill="#ffffff" stroke="black" points="1149,-612 1022,-612 1022,-576 1149,-576 1149,-612"/>
<text text-anchor="middle" x="1085.5" y="-590.3" font-family="Times,serif" font-size="14.00">globalcontext.h</text>
</a>
</g>
</g>
<!-- 33&#45;&gt;4 -->
<g id="edge17" class="edge">
<title>33&#45;&gt;4</title>
<g id="a_edge17"><a xlink:title="include">
<path fill="none" stroke="#1414ce" d="M1025.06,-720C1040.06,-711.26 1056.27,-699.21 1066.5,-684 1078.79,-665.72 1083.33,-640.96 1084.92,-622.19"/>
<polygon fill="#1414ce" stroke="#1414ce" points="1088.41,-622.39 1085.53,-612.2 1081.42,-621.96 1088.41,-622.39"/>
</a>
</g>
</g>
<!-- 6 -->
<g id="node6" class="node">
<title>6</title>
<g id="a_node6"><a xlink:title="atom.h">
<polygon fill="#ffffff" stroke="black" points="1100.5,-396 1034.5,-396 1034.5,-360 1100.5,-360 1100.5,-396"/>
<text text-anchor="middle" x="1067.5" y="-374.3" font-family="Times,serif" font-size="14.00">atom.h</text>
</a>
</g>
</g>
<!-- 6&#45;&gt;5 -->
<g id="edge19" class="edge">
<title>6&#45;&gt;5</title>
<g id="a_edge19"><a xlink:title="include">
<path fill="none" stroke="#1414ce" d="M1066.24,-359.81C1063.8,-320.89 1060.04,-223.27 1076.5,-144 1083.48,-110.38 1087.96,-102.09 1104.5,-72 1109.7,-62.54 1116.38,-52.84 1122.73,-44.37"/>
<polygon fill="#1414ce" stroke="#1414ce" points="1125.57,-46.42 1128.91,-36.36 1120.03,-42.14 1125.57,-46.42"/>
</a>
</g>
</g>
<!-- 6&#45;&gt;7 -->
<g id="edge20" class="edge">
<title>6&#45;&gt;7</title>
<g id="a_edge20"><a xlink:title="include">
<path fill="none" stroke="#1414ce" d="M1050.6,-359.72C1011.71,-320.2 912.39,-220.75 823.5,-144 811.83,-133.93 798.54,-123.38 786.83,-114.37"/>
<polygon fill="#1414ce" stroke="#1414ce" points="788.7,-111.39 778.62,-108.11 784.45,-116.96 788.7,-111.39"/>
</a>
</g>
</g>
<!-- 15 -->
<g id="node7" class="node">
<title>15</title>
<g id="a_node7"><a xlink:title="assert.h">
<polygon fill="#ffffff" stroke="black" points="181.5,-36 107.5,-36 107.5,0 181.5,0 181.5,-36"/>
<text text-anchor="middle" x="144.5" y="-14.3" font-family="Times,serif" font-size="14.00">assert.h</text>
</a>
</g>
</g>
<!-- 10&#45;&gt;7 -->
<g id="edge23" class="edge">
<title>10&#45;&gt;7</title>
<g id="a_edge23"><a xlink:title="include">
<path fill="none" stroke="#1414ce" d="M545.51,-151.99C587.29,-139.86 661.95,-118.17 710.06,-104.2"/>
<polygon fill="#1414ce" stroke="#1414ce" points="711.28,-107.49 719.91,-101.34 709.33,-100.77 711.28,-107.49"/>
</a>
</g>
</g>
<!-- 11 -->
<g id="node18" class="node">
<title>11</title>
<g id="a_node18"><a xlink:title="stddef.h">
<polygon fill="#ffffff" stroke="black" points="567.5,-108 493.5,-108 493.5,-72 567.5,-72 567.5,-108"/>
<text text-anchor="middle" x="530.5" y="-86.3" font-family="Times,serif" font-size="14.00">stddef.h</text>
</a>
</g>
</g>
<!-- 10&#45;&gt;11 -->
<g id="edge21" class="edge">
<title>10&#45;&gt;11</title>
<g id="a_edge21"><a xlink:title="include">
<path fill="none" stroke="#1414ce" d="M518.46,-143.7C520.22,-135.98 522.34,-126.71 524.3,-118.11"/>
<polygon fill="#1414ce" stroke="#1414ce" points="527.77,-118.63 526.59,-108.1 520.95,-117.07 527.77,-118.63"/>
</a>
</g>
</g>
<!-- 12 -->
<g id="node33" class="node">
<title>12</title>
<g id="a_node33"><a xlink:title="stdio.h">
<polygon fill="#ffffff" stroke="black" points="475,-108 410,-108 410,-72 475,-72 475,-108"/>
<text text-anchor="middle" x="442.5" y="-86.3" font-family="Times,serif" font-size="14.00">stdio.h</text>
</a>
</g>
</g>
<!-- 10&#45;&gt;12 -->
<g id="edge22" class="edge">
<title>10&#45;&gt;12</title>
<g id="a_edge22"><a xlink:title="include">
<path fill="none" stroke="#1414ce" d="M496.7,-143.7C487.9,-135.14 477.12,-124.66 467.5,-115.3"/>
<polygon fill="#1414ce" stroke="#1414ce" points="469.7,-112.57 460.09,-108.1 464.82,-117.58 469.7,-112.57"/>
</a>
</g>
</g>
<!-- 20 -->
<g id="node9" class="node">
<title>20</title>
<g id="a_node9"><a xlink:title="synclist.h">
<polygon fill="#ffffff" stroke="black" points="1356,-252 1271,-252 1271,-216 1356,-216 1356,-252"/>
<text text-anchor="middle" x="1313.5" y="-230.3" font-family="Times,serif" font-size="14.00">synclist.h</text>
</a>
</g>
</g>
<!-- 20&#45;&gt;19 -->
<g id="edge25" class="edge">
<title>20&#45;&gt;19</title>
<g id="a_edge25"><a xlink:title="include">
<path fill="none" stroke="#1414ce" d="M1274.6,-215.88C1249.01,-204.61 1215.73,-189.96 1190.7,-178.94"/>
<polygon fill="#1414ce" stroke="#1414ce" points="1192.1,-175.73 1181.54,-174.9 1189.28,-182.14 1192.1,-175.73"/>
</a>
</g>
</g>
<!-- 21 -->
<g id="node28" class="node">
<title>21</title>
<g id="a_node28"><a xlink:title="smp.h">
<polygon fill="#ffffff" stroke="black" points="1335.5,-180 1275.5,-180 1275.5,-144 1335.5,-144 1335.5,-180"/>
<text text-anchor="middle" x="1305.5" y="-158.3" font-family="Times,serif" font-size="14.00">smp.h</text>
</a>
</g>
</g>
<!-- 20&#45;&gt;21 -->
<g id="edge26" class="edge">
<title>20&#45;&gt;21</title>
<g id="a_edge26"><a xlink:title="include">
<path fill="none" stroke="#1414ce" d="M1311.52,-215.7C1310.64,-207.98 1309.58,-198.71 1308.6,-190.11"/>
<polygon fill="#1414ce" stroke="#1414ce" points="1312.07,-189.64 1307.45,-180.1 1305.11,-190.44 1312.07,-189.64"/>
</a>
</g>
</g>
<!-- 20&#45;&gt;12 -->
<g id="edge24" class="edge">
<title>20&#45;&gt;12</title>
<g id="a_edge24"><a xlink:title="include">
<path fill="none" stroke="#1414ce" d="M1279.04,-215.85C1261.59,-206.4 1240.55,-193.81 1223.5,-180 1206.63,-166.34 1210.14,-153.24 1190.5,-144 1051.14,-78.41 653.81,-139.46 485,-107.46"/>
<polygon fill="#1414ce" stroke="#1414ce" points="485.68,-104.03 475.18,-105.43 484.27,-110.88 485.68,-104.03"/>
</a>
</g>
</g>
<!-- 19&#45;&gt;9 -->
<g id="edge27" class="edge">
<title>19&#45;&gt;9</title>
<g id="a_edge27"><a xlink:title="include">
<path fill="none" stroke="#1414ce" d="M1154.5,-143.7C1154.5,-135.98 1154.5,-126.71 1154.5,-118.11"/>
<polygon fill="#1414ce" stroke="#1414ce" points="1158,-118.1 1154.5,-108.1 1151,-118.1 1158,-118.1"/>
</a>
</g>
</g>
<!-- 3&#45;&gt;19 -->
<g id="edge29" class="edge">
<title>3&#45;&gt;19</title>
<g id="a_edge29"><a xlink:title="include">
<path fill="none" stroke="#1414ce" d="M887.7,-647.81C944.56,-610.17 1075.38,-514.29 1131.5,-396 1163.93,-327.64 1161.36,-235.5 1157.54,-190.3"/>
<polygon fill="#1414ce" stroke="#1414ce" points="1161.01,-189.75 1156.59,-180.12 1154.04,-190.4 1161.01,-189.75"/>
</a>
</g>
</g>
<!-- 3&#45;&gt;22 -->
<g id="edge32" class="edge">
<title>3&#45;&gt;22</title>
<g id="a_edge32"><a xlink:title="include">
<path fill="none" stroke="#1414ce" d="M830.22,-647.78C814.99,-638.32 796.78,-625.73 782.5,-612 738.98,-570.17 699.74,-511 679,-477.27"/>
<polygon fill="#1414ce" stroke="#1414ce" points="681.84,-475.19 673.66,-468.46 675.85,-478.83 681.84,-475.19"/>
</a>
</g>
</g>
<!-- 3&#45;&gt;4 -->
<g id="edge28" class="edge">
<title>3&#45;&gt;4</title>
<g id="a_edge28"><a xlink:title="include">
<path fill="none" stroke="#1414ce" d="M902.22,-651C905.36,-649.97 908.48,-648.96 911.5,-648 946.67,-636.78 986.01,-624.76 1018.37,-615"/>
<polygon fill="#1414ce" stroke="#1414ce" points="1019.61,-618.28 1028.17,-612.05 1017.59,-611.58 1019.61,-618.28"/>
</a>
</g>
</g>
<!-- 3&#45;&gt;21 -->
<g id="edge31" class="edge">
<title>3&#45;&gt;21</title>
<g id="a_edge31"><a xlink:title="include">
<path fill="none" stroke="#1414ce" d="M902.03,-650.27C905.21,-649.42 908.39,-648.64 911.5,-648 1091.92,-610.61 1145.55,-655.89 1324.5,-612 1424.54,-587.46 1538.5,-626.01 1538.5,-523 1538.5,-523 1538.5,-523 1538.5,-305 1538.5,-262.66 1536.51,-243.72 1504.5,-216 1451.76,-170.34 1416.87,-199.86 1345.37,-179.77"/>
<polygon fill="#1414ce" stroke="#1414ce" points="1346.1,-176.34 1335.51,-176.76 1344.05,-183.03 1346.1,-176.34"/>
</a>
</g>
</g>
<!-- 29 -->
<g id="node30" class="node">
<title>29</title>
<g id="a_node30"><a xlink:title="timer_list.h">
<polygon fill="#ffffff" stroke="black" points="1472.5,-252 1374.5,-252 1374.5,-216 1472.5,-216 1472.5,-252"/>
<text text-anchor="middle" x="1423.5" y="-230.3" font-family="Times,serif" font-size="14.00">timer_list.h</text>
</a>
</g>
</g>
<!-- 3&#45;&gt;29 -->
<g id="edge33" class="edge">
<title>3&#45;&gt;29</title>
<g id="a_edge33"><a xlink:title="include">
<path fill="none" stroke="#1414ce" d="M902.08,-650.47C905.25,-649.57 908.41,-648.73 911.5,-648 1022.51,-621.63 1409.5,-637.1 1409.5,-523 1409.5,-523 1409.5,-523 1409.5,-377 1409.5,-337.02 1415.06,-291.02 1419.18,-262.47"/>
<polygon fill="#1414ce" stroke="#1414ce" points="1422.66,-262.84 1420.67,-252.43 1415.74,-261.81 1422.66,-262.84"/>
</a>
</g>
</g>
<!-- 28 -->
<g id="node32" class="node">
<title>28</title>
<g id="a_node32"><a xlink:title="mailbox.h">
<polygon fill="#ffffff" stroke="black" points="796.5,-252 710.5,-252 710.5,-216 796.5,-216 796.5,-252"/>
<text text-anchor="middle" x="753.5" y="-230.3" font-family="Times,serif" font-size="14.00">mailbox.h</text>
</a>
</g>
</g>
<!-- 3&#45;&gt;28 -->
<g id="edge30" class="edge">
<title>3&#45;&gt;28</title>
<g id="a_edge30"><a xlink:title="include">
<path fill="none" stroke="#1414ce" d="M852.64,-647.74C830.71,-598.5 769.08,-452.6 748.5,-324 745.22,-303.5 746.75,-280.04 748.95,-262.36"/>
<polygon fill="#1414ce" stroke="#1414ce" points="752.46,-262.56 750.37,-252.17 745.52,-261.59 752.46,-262.56"/>
</a>
</g>
</g>
<!-- 25 -->
<g id="node14" class="node">
<title>25</title>
<g id="a_node14"><a xlink:title="memory.h">
<polygon fill="#ffffff" stroke="black" points="654.5,-252 568.5,-252 568.5,-216 654.5,-216 654.5,-252"/>
<text text-anchor="middle" x="611.5" y="-230.3" font-family="Times,serif" font-size="14.00">memory.h</text>
</a>
</g>
</g>
<!-- 25&#45;&gt;10 -->
<g id="edge38" class="edge">
<title>25&#45;&gt;10</title>
<g id="a_edge38"><a xlink:title="include">
<path fill="none" stroke="#1414ce" d="M587.52,-215.7C575.19,-206.8 559.98,-195.82 546.65,-186.2"/>
<polygon fill="#1414ce" stroke="#1414ce" points="548.36,-183.12 538.2,-180.1 544.26,-188.79 548.36,-183.12"/>
</a>
</g>
</g>
<!-- 25&#45;&gt;5 -->
<g id="edge34" class="edge">
<title>25&#45;&gt;5</title>
<g id="a_edge34"><a xlink:title="include">
<path fill="none" stroke="#1414ce" d="M614.6,-215.94C618.54,-197.26 626.56,-166.91 640.5,-144 663.86,-105.61 671.17,-91.84 711.5,-72 778.55,-39.01 999.88,-25.36 1097.06,-20.86"/>
<polygon fill="#1414ce" stroke="#1414ce" points="1097.34,-24.35 1107.17,-20.4 1097.02,-17.36 1097.34,-24.35"/>
</a>
</g>
</g>
<!-- 25&#45;&gt;7 -->
<g id="edge35" class="edge">
<title>25&#45;&gt;7</title>
<g id="a_edge35"><a xlink:title="include">
<path fill="none" stroke="#1414ce" d="M620.76,-215.79C631.62,-196.69 651.02,-165.72 673.5,-144 685.5,-132.41 700.4,-121.89 714.19,-113.34"/>
<polygon fill="#1414ce" stroke="#1414ce" points="716.28,-116.17 723.05,-108.02 712.67,-110.17 716.28,-116.17"/>
</a>
</g>
</g>
<!-- 13 -->
<g id="node19" class="node">
<title>13</title>
<g id="a_node19"><a xlink:title="erl_nif.h">
<polygon fill="#ffffff" stroke="black" points="284.5,-180 210.5,-180 210.5,-144 284.5,-144 284.5,-180"/>
<text text-anchor="middle" x="247.5" y="-158.3" font-family="Times,serif" font-size="14.00">erl_nif.h</text>
</a>
</g>
</g>
<!-- 25&#45;&gt;13 -->
<g id="edge36" class="edge">
<title>25&#45;&gt;13</title>
<g id="a_edge36"><a xlink:title="include">
<path fill="none" stroke="#1414ce" d="M568.32,-224.7C499.57,-211.47 365.77,-185.74 294.62,-172.06"/>
<polygon fill="#1414ce" stroke="#1414ce" points="295.08,-168.59 284.6,-170.13 293.76,-175.46 295.08,-168.59"/>
</a>
</g>
</g>
<!-- 25&#45;&gt;14 -->
<g id="edge37" class="edge">
<title>25&#45;&gt;14</title>
<g id="a_edge37"><a xlink:title="include">
<path fill="none" stroke="#1414ce" d="M568.4,-219.9C486.43,-194.97 307.59,-140.59 210.46,-111.05"/>
<polygon fill="#1414ce" stroke="#1414ce" points="211.33,-107.66 200.74,-108.1 209.29,-114.36 211.33,-107.66"/>
</a>
</g>
</g>
<!-- 30&#45;&gt;5 -->
<g id="edge40" class="edge">
<title>30&#45;&gt;5</title>
<g id="a_edge40"><a xlink:title="include">
<path fill="none" stroke="#1414ce" d="M236.27,-287.81C214.69,-257.53 176.72,-193.24 201.5,-144 225.63,-96.04 248.08,-90.44 298.5,-72 446.94,-17.72 942.32,-17.23 1096.97,-18.47"/>
<polygon fill="#1414ce" stroke="#1414ce" points="1097.05,-21.97 1107.08,-18.56 1097.11,-14.97 1097.05,-21.97"/>
</a>
</g>
</g>
<!-- 30&#45;&gt;11 -->
<g id="edge39" class="edge">
<title>30&#45;&gt;11</title>
<g id="a_edge39"><a xlink:title="include">
<path fill="none" stroke="#1414ce" d="M272.02,-287.85C322.07,-249.74 442.59,-157.95 499.61,-114.52"/>
<polygon fill="#1414ce" stroke="#1414ce" points="502.04,-117.08 507.87,-108.23 497.8,-111.51 502.04,-117.08"/>
</a>
</g>
</g>
<!-- 27&#45;&gt;20 -->
<g id="edge46" class="edge">
<title>27&#45;&gt;20</title>
<g id="a_edge46"><a xlink:title="include">
<path fill="none" stroke="#1414ce" d="M872.74,-297.84C966.12,-284.52 1165.58,-256.09 1260.8,-242.51"/>
<polygon fill="#1414ce" stroke="#1414ce" points="1261.38,-245.97 1270.78,-241.09 1260.39,-239.04 1261.38,-245.97"/>
</a>
</g>
</g>
<!-- 27&#45;&gt;19 -->
<g id="edge43" class="edge">
<title>27&#45;&gt;19</title>
<g id="a_edge43"><a xlink:title="include">
<path fill="none" stroke="#1414ce" d="M862.55,-287.87C927.54,-260.07 1055.02,-205.55 1117.79,-178.7"/>
<polygon fill="#1414ce" stroke="#1414ce" points="1119.47,-181.79 1127.29,-174.64 1116.72,-175.35 1119.47,-181.79"/>
</a>
</g>
</g>
<!-- 27&#45;&gt;7 -->
<g id="edge41" class="edge">
<title>27&#45;&gt;7</title>
<g id="a_edge41"><a xlink:title="include">
<path fill="none" stroke="#1414ce" d="M820.2,-287.71C817.56,-269.6 812.66,-240.46 805.5,-216 795.24,-180.95 778.88,-142.11 767.69,-117.18"/>
<polygon fill="#1414ce" stroke="#1414ce" points="770.85,-115.68 763.53,-108.02 764.48,-118.57 770.85,-115.68"/>
</a>
</g>
</g>
<!-- 27&#45;&gt;25 -->
<g id="edge45" class="edge">
<title>27&#45;&gt;25</title>
<g id="a_edge45"><a xlink:title="include">
<path fill="none" stroke="#1414ce" d="M772.5,-288.41C739.89,-277.59 697.39,-263.49 664.24,-252.5"/>
<polygon fill="#1414ce" stroke="#1414ce" points="665.31,-249.17 654.72,-249.34 663.11,-255.81 665.31,-249.17"/>
</a>
</g>
</g>
<!-- 27&#45;&gt;13 -->
<g id="edge42" class="edge">
<title>27&#45;&gt;13</title>
<g id="a_edge42"><a xlink:title="include">
<path fill="none" stroke="#1414ce" d="M772.31,-296.11C719.19,-286.41 633.05,-269.87 559.5,-252 464.62,-228.94 355.17,-196.3 294.39,-177.63"/>
<polygon fill="#1414ce" stroke="#1414ce" points="295.29,-174.25 284.71,-174.65 293.23,-180.94 295.29,-174.25"/>
</a>
</g>
</g>
<!-- 27&#45;&gt;28 -->
<g id="edge44" class="edge">
<title>27&#45;&gt;28</title>
<g id="a_edge44"><a xlink:title="include">
<path fill="none" stroke="#1414ce" d="M805.44,-287.7C797,-279.14 786.68,-268.66 777.46,-259.3"/>
<polygon fill="#1414ce" stroke="#1414ce" points="779.87,-256.77 770.36,-252.1 774.89,-261.68 779.87,-256.77"/>
</a>
</g>
</g>
<!-- 22&#45;&gt;9 -->
<g id="edge48" class="edge">
<title>22&#45;&gt;9</title>
<g id="a_edge48"><a xlink:title="include">
<path fill="none" stroke="#1414ce" d="M696.15,-447.46C768.97,-443.42 941.87,-430.39 987.5,-396 1086.41,-321.45 1037.74,-247.02 1106.5,-144 1113.15,-134.04 1121.6,-124.06 1129.56,-115.49"/>
<polygon fill="#1414ce" stroke="#1414ce" points="1132.28,-117.71 1136.66,-108.06 1127.22,-112.87 1132.28,-117.71"/>
</a>
</g>
</g>
<!-- 22&#45;&gt;26 -->
<g id="edge55" class="edge">
<title>22&#45;&gt;26</title>
<g id="a_edge55"><a xlink:title="include">
<path fill="none" stroke="#1414ce" d="M696.03,-440.28C736.98,-429.29 808.27,-410.17 860.35,-396.21"/>
<polygon fill="#1414ce" stroke="#1414ce" points="861.41,-399.54 870.16,-393.57 859.6,-392.78 861.41,-399.54"/>
</a>
</g>
</g>
<!-- 22&#45;&gt;6 -->
<g id="edge53" class="edge">
<title>22&#45;&gt;6</title>
<g id="a_edge53"><a xlink:title="include">
<path fill="none" stroke="#1414ce" d="M696.42,-446.33C759.88,-440.69 903.25,-425.59 1020.5,-396 1021.92,-395.64 1023.36,-395.26 1024.8,-394.85"/>
<polygon fill="#1414ce" stroke="#1414ce" points="1025.85,-398.19 1034.38,-391.91 1023.79,-391.5 1025.85,-398.19"/>
</a>
</g>
</g>
<!-- 22&#45;&gt;10 -->
<g id="edge56" class="edge">
<title>22&#45;&gt;10</title>
<g id="a_edge56"><a xlink:title="include">
<path fill="none" stroke="#1414ce" d="M630.74,-449.74C590.05,-448.67 522.02,-439.9 489.5,-396 443.61,-334.04 479.36,-236.12 501.03,-189.44"/>
<polygon fill="#1414ce" stroke="#1414ce" points="504.25,-190.82 505.41,-180.29 497.94,-187.8 504.25,-190.82"/>
</a>
</g>
</g>
<!-- 22&#45;&gt;5 -->
<g id="edge49" class="edge">
<title>22&#45;&gt;5</title>
<g id="a_edge49"><a xlink:title="include">
<path fill="none" stroke="#1414ce" d="M630.72,-445.15C576.04,-438.08 469.52,-421.41 442.5,-396 336.77,-296.55 302.59,-178.23 401.5,-72 448.92,-21.07 942.52,-18.33 1097.33,-18.74"/>
<polygon fill="#1414ce" stroke="#1414ce" points="1097.44,-22.24 1107.45,-18.77 1097.46,-15.24 1097.44,-22.24"/>
</a>
</g>
</g>
<!-- 22&#45;&gt;7 -->
<g id="edge51" class="edge">
<title>22&#45;&gt;7</title>
<g id="a_edge51"><a xlink:title="include">
<path fill="none" stroke="#1414ce" d="M684.32,-431.62C693.96,-422.2 704.39,-409.7 709.5,-396 715.1,-381.01 713,-375.61 709.5,-360 705.63,-342.73 696.37,-341.27 692.5,-324 681.96,-277 688.84,-262.47 701.5,-216 711.16,-180.56 728.98,-142.1 741.51,-117.33"/>
<polygon fill="#1414ce" stroke="#1414ce" points="744.72,-118.73 746.18,-108.23 738.5,-115.53 744.72,-118.73"/>
</a>
</g>
</g>
<!-- 22&#45;&gt;25 -->
<g id="edge54" class="edge">
<title>22&#45;&gt;25</title>
<g id="a_edge54"><a xlink:title="include">
<path fill="none" stroke="#1414ce" d="M630.99,-448.71C593.27,-446.41 532.54,-436.21 503.5,-396 468.77,-347.91 533.05,-289.72 576.48,-258.14"/>
<polygon fill="#1414ce" stroke="#1414ce" points="578.72,-260.83 584.85,-252.19 574.67,-255.13 578.72,-260.83"/>
</a>
</g>
</g>
<!-- 23 -->
<g id="node23" class="node">
<title>23</title>
<g id="a_node23"><a xlink:title="sys/types.h">
<polygon fill="#ffffff" stroke="black" points="609,-396 512,-396 512,-360 609,-360 609,-396"/>
<text text-anchor="middle" x="560.5" y="-374.3" font-family="Times,serif" font-size="14.00">sys/types.h</text>
</a>
</g>
</g>
<!-- 22&#45;&gt;23 -->
<g id="edge47" class="edge">
<title>22&#45;&gt;23</title>
<g id="a_edge47"><a xlink:title="include">
<path fill="none" stroke="#1414ce" d="M638.3,-431.88C625.09,-422.89 608.71,-411.76 594.39,-402.03"/>
<polygon fill="#1414ce" stroke="#1414ce" points="596.03,-398.92 585.79,-396.19 592.1,-404.71 596.03,-398.92"/>
</a>
</g>
</g>
<!-- 24 -->
<g id="node24" class="node">
<title>24</title>
<g id="a_node24"><a xlink:title="string.h">
<polygon fill="#ffffff" stroke="black" points="700,-396 627,-396 627,-360 700,-360 700,-396"/>
<text text-anchor="middle" x="663.5" y="-374.3" font-family="Times,serif" font-size="14.00">string.h</text>
</a>
</g>
</g>
<!-- 22&#45;&gt;24 -->
<g id="edge52" class="edge">
<title>22&#45;&gt;24</title>
<g id="a_edge52"><a xlink:title="include">
<path fill="none" stroke="#1414ce" d="M663.5,-431.7C663.5,-423.98 663.5,-414.71 663.5,-406.11"/>
<polygon fill="#1414ce" stroke="#1414ce" points="667,-406.1 663.5,-396.1 660,-406.1 667,-406.1"/>
</a>
</g>
</g>
<!-- 22&#45;&gt;14 -->
<g id="edge57" class="edge">
<title>22&#45;&gt;14</title>
<g id="a_edge57"><a xlink:title="include">
<path fill="none" stroke="#1414ce" d="M630.96,-446.06C529.67,-436.15 223.46,-400.24 167.5,-324 122.2,-262.29 131.1,-165.28 138.98,-118.3"/>
<polygon fill="#1414ce" stroke="#1414ce" points="142.45,-118.73 140.77,-108.27 135.56,-117.5 142.45,-118.73"/>
</a>
</g>
</g>
<!-- 22&#45;&gt;12 -->
<g id="edge50" class="edge">
<title>22&#45;&gt;12</title>
<g id="a_edge50"><a xlink:title="include">
<path fill="none" stroke="#1414ce" d="M630.81,-444.66C580.87,-437.32 489.17,-420.78 468.5,-396 401.04,-315.13 422.44,-176.7 435.55,-118.28"/>
<polygon fill="#1414ce" stroke="#1414ce" points="439.01,-118.87 437.88,-108.34 432.19,-117.28 439.01,-118.87"/>
</a>
</g>
</g>
<!-- 13&#45;&gt;14 -->
<g id="edge58" class="edge">
<title>13&#45;&gt;14</title>
<g id="a_edge58"><a xlink:title="include">
<path fill="none" stroke="#1414ce" d="M222.3,-143.88C209.09,-134.89 192.71,-123.76 178.39,-114.03"/>
<polygon fill="#1414ce" stroke="#1414ce" points="180.03,-110.92 169.79,-108.19 176.1,-116.71 180.03,-110.92"/>
</a>
</g>
</g>
<!-- 16 -->
<g id="node21" class="node">
<title>16</title>
<g id="a_node21"><a xlink:title="limits.h">
<polygon fill="#ffffff" stroke="black" points="271,-36 200,-36 200,0 271,0 271,-36"/>
<text text-anchor="middle" x="235.5" y="-14.3" font-family="Times,serif" font-size="14.00">limits.h</text>
</a>
</g>
</g>
<!-- 8&#45;&gt;9 -->
<g id="edge59" class="edge">
<title>8&#45;&gt;9</title>
<g id="a_edge59"><a xlink:title="include">
<path fill="none" stroke="#1414ce" d="M1057.1,-434.86C1077,-426.84 1097.52,-414.55 1109.5,-396 1170.29,-301.85 1083.65,-250.52 1118.5,-144 1121.68,-134.27 1127.23,-124.69 1133.03,-116.4"/>
<polygon fill="#1414ce" stroke="#1414ce" points="1135.91,-118.4 1139.08,-108.29 1130.3,-114.21 1135.91,-118.4"/>
</a>
</g>
</g>
<!-- 8&#45;&gt;6 -->
<g id="edge60" class="edge">
<title>8&#45;&gt;6</title>
<g id="a_edge60"><a xlink:title="include">
<path fill="none" stroke="#1414ce" d="M1018.57,-431.7C1026.44,-423.22 1036.06,-412.86 1044.67,-403.58"/>
<polygon fill="#1414ce" stroke="#1414ce" points="1047.38,-405.81 1051.62,-396.1 1042.25,-401.05 1047.38,-405.81"/>
</a>
</g>
</g>
<!-- 8&#45;&gt;10 -->
<g id="edge61" class="edge">
<title>8&#45;&gt;10</title>
<g id="a_edge61"><a xlink:title="include">
<path fill="none" stroke="#1414ce" d="M947.84,-437.75C856.57,-416.41 672.08,-362 559.5,-252 541.78,-234.69 529.81,-208.93 522.7,-189.57"/>
<polygon fill="#1414ce" stroke="#1414ce" points="526,-188.41 519.42,-180.11 519.39,-190.71 526,-188.41"/>
</a>
</g>
</g>
<!-- 14&#45;&gt;15 -->
<g id="edge62" class="edge">
<title>14&#45;&gt;15</title>
<g id="a_edge62"><a xlink:title="include">
<path fill="none" stroke="#1414ce" d="M144.5,-71.7C144.5,-63.98 144.5,-54.71 144.5,-46.11"/>
<polygon fill="#1414ce" stroke="#1414ce" points="148,-46.1 144.5,-36.1 141,-46.1 148,-46.1"/>
</a>
</g>
</g>
<!-- 14&#45;&gt;5 -->
<g id="edge65" class="edge">
<title>14&#45;&gt;5</title>
<g id="a_edge65"><a xlink:title="include">
<path fill="none" stroke="#1414ce" d="M207.38,-74.26C212.15,-73.41 216.89,-72.64 221.5,-72 555.07,-25.89 961.9,-19.77 1097.25,-19.05"/>
<polygon fill="#1414ce" stroke="#1414ce" points="1097.29,-22.55 1107.27,-19.01 1097.26,-15.55 1097.29,-22.55"/>
</a>
</g>
</g>
<!-- 14&#45;&gt;16 -->
<g id="edge63" class="edge">
<title>14&#45;&gt;16</title>
<g id="a_edge63"><a xlink:title="include">
<path fill="none" stroke="#1414ce" d="M166.99,-71.7C178.46,-62.88 192.56,-52.03 204.98,-42.47"/>
<polygon fill="#1414ce" stroke="#1414ce" points="207.47,-44.98 213.26,-36.1 203.2,-39.43 207.47,-44.98"/>
</a>
</g>
</g>
<!-- 17 -->
<g id="node35" class="node">
<title>17</title>
<g id="a_node35"><a xlink:title="inttypes.h">
<polygon fill="#ffffff" stroke="black" points="89,-36 0,-36 0,0 89,0 89,-36"/>
<text text-anchor="middle" x="44.5" y="-14.3" font-family="Times,serif" font-size="14.00">inttypes.h</text>
</a>
</g>
</g>
<!-- 14&#45;&gt;17 -->
<g id="edge64" class="edge">
<title>14&#45;&gt;17</title>
<g id="a_edge64"><a xlink:title="include">
<path fill="none" stroke="#1414ce" d="M120.04,-71.88C107.2,-62.89 91.3,-51.76 77.41,-42.03"/>
<polygon fill="#1414ce" stroke="#1414ce" points="79.26,-39.06 69.06,-36.19 75.24,-44.79 79.26,-39.06"/>
</a>
</g>
</g>
<!-- 4&#45;&gt;6 -->
<g id="edge67" class="edge">
<title>4&#45;&gt;6</title>
<g id="a_edge67"><a xlink:title="include">
<path fill="none" stroke="#1414ce" d="M1084.06,-575.85C1080.94,-538.83 1073.57,-451.18 1069.8,-406.39"/>
<polygon fill="#1414ce" stroke="#1414ce" points="1073.28,-405.9 1068.95,-396.23 1066.3,-406.49 1073.28,-405.9"/>
</a>
</g>
</g>
<!-- 4&#45;&gt;20 -->
<g id="edge74" class="edge">
<title>4&#45;&gt;20</title>
<g id="a_edge74"><a xlink:title="include">
<path fill="none" stroke="#1414ce" d="M1149.17,-584.19C1203.15,-575.45 1274.97,-560.41 1295.5,-540 1324.47,-511.19 1318.5,-491.86 1318.5,-451 1318.5,-451 1318.5,-451 1318.5,-377 1318.5,-336.97 1316.49,-290.63 1315.02,-262.07"/>
<polygon fill="#1414ce" stroke="#1414ce" points="1318.51,-261.84 1314.49,-252.04 1311.52,-262.21 1318.51,-261.84"/>
</a>
</g>
</g>
<!-- 4&#45;&gt;19 -->
<g id="edge71" class="edge">
<title>4&#45;&gt;19</title>
<g id="a_edge71"><a xlink:title="include">
<path fill="none" stroke="#1414ce" d="M1114.31,-575.85C1149.52,-552.45 1204.5,-506.97 1204.5,-451 1204.5,-451 1204.5,-451 1204.5,-305 1204.5,-262.68 1184.5,-217.09 1169.8,-189.3"/>
<polygon fill="#1414ce" stroke="#1414ce" points="1172.72,-187.35 1164.86,-180.24 1166.57,-190.7 1172.72,-187.35"/>
</a>
</g>
</g>
<!-- 4&#45;&gt;5 -->
<g id="edge66" class="edge">
<title>4&#45;&gt;5</title>
<g id="a_edge66"><a xlink:title="include">
<path fill="none" stroke="#1414ce" d="M1149.17,-591.28C1292.02,-586.86 1628.65,-573.01 1667.5,-540 1698.63,-513.54 1690.5,-491.86 1690.5,-451 1690.5,-451 1690.5,-451 1690.5,-161 1690.5,-98.8 1639.67,-96.49 1582.5,-72 1512.54,-42.03 1287.61,-26.69 1189.72,-21.3"/>
<polygon fill="#1414ce" stroke="#1414ce" points="1189.72,-17.79 1179.54,-20.75 1189.34,-24.78 1189.72,-17.79"/>
</a>
</g>
</g>
<!-- 4&#45;&gt;30 -->
<g id="edge77" class="edge">
<title>4&#45;&gt;30</title>
<g id="a_edge77"><a xlink:title="include">
<path fill="none" stroke="#1414ce" d="M1021.91,-588.37C886.6,-576.04 563.97,-533.36 336.5,-396 309.15,-379.48 284.37,-352.35 268.31,-332.38"/>
<polygon fill="#1414ce" stroke="#1414ce" points="270.91,-330.02 261.98,-324.31 265.4,-334.34 270.91,-330.02"/>
</a>
</g>
</g>
<!-- 4&#45;&gt;22 -->
<g id="edge75" class="edge">
<title>4&#45;&gt;22</title>
<g id="a_edge75"><a xlink:title="include">
<path fill="none" stroke="#1414ce" d="M1034.6,-575.87C950.4,-547.54 783.7,-491.45 705.66,-465.19"/>
<polygon fill="#1414ce" stroke="#1414ce" points="706.74,-461.86 696.14,-461.98 704.5,-468.49 706.74,-461.86"/>
</a>
</g>
</g>
<!-- 4&#45;&gt;13 -->
<g id="edge69" class="edge">
<title>4&#45;&gt;13</title>
<g id="a_edge69"><a xlink:title="include">
<path fill="none" stroke="#1414ce" d="M1021.7,-591.47C926.53,-587.99 742.35,-576.69 590.5,-540 503.93,-519.08 483.39,-507.35 403.5,-468 293.27,-413.7 227.64,-431.15 167.5,-324 140.91,-276.63 187.45,-219.25 219.98,-187.37"/>
<polygon fill="#1414ce" stroke="#1414ce" points="222.66,-189.65 227.49,-180.21 217.83,-184.58 222.66,-189.65"/>
</a>
</g>
</g>
<!-- 4&#45;&gt;8 -->
<g id="edge68" class="edge">
<title>4&#45;&gt;8</title>
<g id="a_edge68"><a xlink:title="include">
<path fill="none" stroke="#1414ce" d="M1075.49,-575.87C1061.09,-551.24 1034.44,-505.64 1017.63,-476.88"/>
<polygon fill="#1414ce" stroke="#1414ce" points="1020.62,-475.06 1012.55,-468.19 1014.57,-478.59 1020.62,-475.06"/>
</a>
</g>
</g>
<!-- 4&#45;&gt;21 -->
<g id="edge73" class="edge">
<title>4&#45;&gt;21</title>
<g id="a_edge73"><a xlink:title="include">
<path fill="none" stroke="#1414ce" d="M1149.43,-584.65C1265.85,-567.65 1500.5,-524.29 1500.5,-451 1500.5,-451 1500.5,-451 1500.5,-305 1500.5,-264.55 1509.43,-245.26 1481.5,-216 1440.16,-172.68 1407.32,-197.87 1345.33,-179.79"/>
<polygon fill="#1414ce" stroke="#1414ce" points="1346.14,-176.37 1335.55,-176.65 1344,-183.04 1346.14,-176.37"/>
</a>
</g>
</g>
<!-- 4&#45;&gt;29 -->
<g id="edge76" class="edge">
<title>4&#45;&gt;29</title>
<g id="a_edge76"><a xlink:title="include">
<path fill="none" stroke="#1414ce" d="M1149.09,-592.93C1200.05,-589.76 1270.82,-577.99 1319.5,-540 1354.44,-512.73 1364.5,-495.32 1364.5,-451 1364.5,-451 1364.5,-451 1364.5,-377 1364.5,-333.83 1388.04,-288.53 1405.39,-261.03"/>
<polygon fill="#1414ce" stroke="#1414ce" points="1408.47,-262.7 1410.99,-252.41 1402.6,-258.89 1408.47,-262.7"/>
</a>
</g>
</g>
<!-- 4&#45;&gt;28 -->
<g id="edge72" class="edge">
<title>4&#45;&gt;28</title>
<g id="a_edge72"><a xlink:title="include">
<path fill="none" stroke="#1414ce" d="M1051.09,-575.91C982.78,-539.93 830.86,-449.27 763.5,-324 753.34,-305.11 751.23,-280.74 751.44,-262.28"/>
<polygon fill="#1414ce" stroke="#1414ce" points="754.94,-262.29 751.79,-252.18 747.94,-262.05 754.94,-262.29"/>
</a>
</g>
</g>
<!-- 18 -->
<g id="node34" class="node">
<title>18</title>
<g id="a_node34"><a xlink:title="ets.h">
<polygon fill="#ffffff" stroke="black" points="1286.5,-540 1232.5,-540 1232.5,-504 1286.5,-504 1286.5,-540"/>
<text text-anchor="middle" x="1259.5" y="-518.3" font-family="Times,serif" font-size="14.00">ets.h</text>
</a>
</g>
</g>
<!-- 4&#45;&gt;18 -->
<g id="edge70" class="edge">
<title>4&#45;&gt;18</title>
<g id="a_edge70"><a xlink:title="include">
<path fill="none" stroke="#1414ce" d="M1128.69,-575.97C1154.74,-565.65 1188.57,-552.17 1218.5,-540 1219.88,-539.44 1221.29,-538.86 1222.71,-538.28"/>
<polygon fill="#1414ce" stroke="#1414ce" points="1224.26,-541.43 1232.17,-534.39 1221.59,-534.96 1224.26,-541.43"/>
</a>
</g>
</g>
<!-- 31&#45;&gt;9 -->
<g id="edge80" class="edge">
<title>31&#45;&gt;9</title>
<g id="a_edge80"><a xlink:title="include">
<path fill="none" stroke="#1414ce" d="M1612.9,-503.95C1613.48,-477.29 1614.5,-424.12 1614.5,-379 1614.5,-379 1614.5,-379 1614.5,-233 1614.5,-148.34 1326.4,-108.74 1206.2,-95.91"/>
<polygon fill="#1414ce" stroke="#1414ce" points="1206.44,-92.41 1196.13,-94.85 1205.71,-99.38 1206.44,-92.41"/>
</a>
</g>
</g>
<!-- 31&#45;&gt;5 -->
<g id="edge81" class="edge">
<title>31&#45;&gt;5</title>
<g id="a_edge81"><a xlink:title="include">
<path fill="none" stroke="#1414ce" d="M1620.59,-503.95C1632.28,-477.72 1652.5,-425.61 1652.5,-379 1652.5,-379 1652.5,-379 1652.5,-161 1652.5,-65.41 1315.21,-31.35 1189.76,-21.99"/>
<polygon fill="#1414ce" stroke="#1414ce" points="1189.93,-18.49 1179.7,-21.26 1189.42,-25.47 1189.93,-18.49"/>
</a>
</g>
</g>
<!-- 31&#45;&gt;22 -->
<g id="edge78" class="edge">
<title>31&#45;&gt;22</title>
<g id="a_edge78"><a xlink:title="include">
<path fill="none" stroke="#1414ce" d="M1566.41,-517.6C1404.57,-505.66 863.65,-465.76 706.6,-454.18"/>
<polygon fill="#1414ce" stroke="#1414ce" points="706.62,-450.67 696.39,-453.43 706.1,-457.65 706.62,-450.67"/>
</a>
</g>
</g>
<!-- 32 -->
<g id="node29" class="node">
<title>32</title>
<g id="a_node29"><a xlink:title="unicode.h">
<polygon fill="#ffffff" stroke="black" points="1439.5,-180 1353.5,-180 1353.5,-144 1439.5,-144 1439.5,-180"/>
<text text-anchor="middle" x="1396.5" y="-158.3" font-family="Times,serif" font-size="14.00">unicode.h</text>
</a>
</g>
</g>
<!-- 31&#45;&gt;32 -->
<g id="edge79" class="edge">
<title>31&#45;&gt;32</title>
<g id="a_edge79"><a xlink:title="include">
<path fill="none" stroke="#1414ce" d="M1605.21,-503.87C1594.7,-477.53 1576.5,-425.29 1576.5,-379 1576.5,-379 1576.5,-379 1576.5,-305 1576.5,-264.03 1580.53,-245.88 1552.5,-216 1525.99,-187.73 1483.85,-174.54 1450.04,-168.38"/>
<polygon fill="#1414ce" stroke="#1414ce" points="1450.28,-164.88 1439.84,-166.69 1449.14,-171.78 1450.28,-164.88"/>
</a>
</g>
</g>
<!-- 21&#45;&gt;9 -->
<g id="edge82" class="edge">
<title>21&#45;&gt;9</title>
<g id="a_edge82"><a xlink:title="include">
<path fill="none" stroke="#1414ce" d="M1275.31,-147C1253.96,-137.11 1224.93,-123.65 1200.69,-112.41"/>
<polygon fill="#1414ce" stroke="#1414ce" points="1201.86,-109.1 1191.31,-108.07 1198.91,-115.45 1201.86,-109.1"/>
</a>
</g>
</g>
<!-- 32&#45;&gt;9 -->
<g id="edge83" class="edge">
<title>32&#45;&gt;9</title>
<g id="a_edge83"><a xlink:title="include">
<path fill="none" stroke="#1414ce" d="M1353.42,-146.75C1350.4,-145.81 1347.41,-144.88 1344.5,-144 1297.86,-129.88 1244.38,-115.08 1206.06,-104.72"/>
<polygon fill="#1414ce" stroke="#1414ce" points="1206.73,-101.28 1196.16,-102.06 1204.91,-108.04 1206.73,-101.28"/>
</a>
</g>
</g>
<!-- 32&#45;&gt;5 -->
<g id="edge85" class="edge">
<title>32&#45;&gt;5</title>
<g id="a_edge85"><a xlink:title="include">
<path fill="none" stroke="#1414ce" d="M1365.98,-143.87C1320.2,-118.18 1233.74,-69.65 1183.14,-41.25"/>
<polygon fill="#1414ce" stroke="#1414ce" points="1184.56,-38.03 1174.13,-36.19 1181.13,-44.14 1184.56,-38.03"/>
</a>
</g>
</g>
<!-- 32&#45;&gt;11 -->
<g id="edge84" class="edge">
<title>32&#45;&gt;11</title>
<g id="a_edge84"><a xlink:title="include">
<path fill="none" stroke="#1414ce" d="M1353.31,-145.95C1350.35,-145.21 1347.39,-144.55 1344.5,-144 1067.59,-91.78 992.49,-129.18 711.5,-108 666.1,-104.58 614.39,-99.61 577.9,-95.93"/>
<polygon fill="#1414ce" stroke="#1414ce" points="577.86,-92.41 567.56,-94.88 577.15,-99.38 577.86,-92.41"/>
</a>
</g>
</g>
<!-- 29&#45;&gt;9 -->
<g id="edge86" class="edge">
<title>29&#45;&gt;9</title>
<g id="a_edge86"><a xlink:title="include">
<path fill="none" stroke="#1414ce" d="M1374.33,-218.58C1335.65,-206.83 1285.25,-190.52 1266.5,-180 1244.76,-167.8 1242.94,-159.59 1223.5,-144 1211.15,-134.09 1197.35,-123.42 1185.35,-114.26"/>
<polygon fill="#1414ce" stroke="#1414ce" points="1187.45,-111.46 1177.37,-108.19 1183.21,-117.03 1187.45,-111.46"/>
</a>
</g>
</g>
<!-- 29&#45;&gt;19 -->
<g id="edge88" class="edge">
<title>29&#45;&gt;19</title>
<g id="a_edge88"><a xlink:title="include">
<path fill="none" stroke="#1414ce" d="M1374.49,-218.49C1371.45,-217.63 1368.44,-216.8 1365.5,-216 1304.73,-199.47 1233.6,-181.99 1191.4,-171.81"/>
<polygon fill="#1414ce" stroke="#1414ce" points="1192.11,-168.38 1181.57,-169.44 1190.47,-175.18 1192.11,-168.38"/>
</a>
</g>
</g>
<!-- 29&#45;&gt;5 -->
<g id="edge87" class="edge">
<title>29&#45;&gt;5</title>
<g id="a_edge87"><a xlink:title="include">
<path fill="none" stroke="#1414ce" d="M1436.01,-216C1448.25,-197.09 1463.09,-166.29 1448.5,-144 1391.18,-56.45 1260.13,-30.2 1189.92,-22.34"/>
<polygon fill="#1414ce" stroke="#1414ce" points="1189.92,-18.82 1179.61,-21.27 1189.2,-25.78 1189.92,-18.82"/>
</a>
</g>
</g>
<!-- 28&#45;&gt;9 -->
<g id="edge89" class="edge">
<title>28&#45;&gt;9</title>
<g id="a_edge89"><a xlink:title="include">
<path fill="none" stroke="#1414ce" d="M796.71,-217.22C845.97,-199.28 928.92,-169.21 1000.5,-144 1034.64,-131.97 1073.15,-118.72 1103.12,-108.48"/>
<polygon fill="#1414ce" stroke="#1414ce" points="1104.61,-111.67 1112.94,-105.12 1102.34,-105.04 1104.61,-111.67"/>
</a>
</g>
</g>
<!-- 28&#45;&gt;10 -->
<g id="edge92" class="edge">
<title>28&#45;&gt;10</title>
<g id="a_edge92"><a xlink:title="include">
<path fill="none" stroke="#1414ce" d="M710.39,-222.47C670.85,-212.51 610.81,-196.66 559.5,-180 558.11,-179.55 556.7,-179.08 555.28,-178.6"/>
<polygon fill="#1414ce" stroke="#1414ce" points="556.43,-175.29 545.84,-175.27 554.11,-181.9 556.43,-175.29"/>
</a>
</g>
</g>
<!-- 28&#45;&gt;19 -->
<g id="edge90" class="edge">
<title>28&#45;&gt;19</title>
<g id="a_edge90"><a xlink:title="include">
<path fill="none" stroke="#1414ce" d="M796.8,-225.44C875.94,-211.63 1042.65,-182.53 1117.15,-169.52"/>
<polygon fill="#1414ce" stroke="#1414ce" points="1118.2,-172.89 1127.45,-167.72 1117,-165.99 1118.2,-172.89"/>
</a>
</g>
</g>
<!-- 28&#45;&gt;14 -->
<g id="edge91" class="edge">
<title>28&#45;&gt;14</title>
<g id="a_edge91"><a xlink:title="include">
<path fill="none" stroke="#1414ce" d="M722.86,-215.88C684.66,-195.36 616.79,-161.55 554.5,-144 439.27,-111.54 300.15,-98.88 217.18,-94"/>
<polygon fill="#1414ce" stroke="#1414ce" points="217.28,-90.5 207.1,-93.43 216.89,-97.49 217.28,-90.5"/>
</a>
</g>
</g>
<!-- 18&#45;&gt;20 -->
<g id="edge94" class="edge">
<title>18&#45;&gt;20</title>
<g id="a_edge94"><a xlink:title="include">
<path fill="none" stroke="#1414ce" d="M1262.72,-503.97C1271.74,-456.19 1297.33,-320.62 1308.35,-262.27"/>
<polygon fill="#1414ce" stroke="#1414ce" points="1311.82,-262.78 1310.23,-252.31 1304.94,-261.48 1311.82,-262.78"/>
</a>
</g>
</g>
<!-- 18&#45;&gt;19 -->
<g id="edge93" class="edge">
<title>18&#45;&gt;19</title>
<g id="a_edge93"><a xlink:title="include">
<path fill="none" stroke="#1414ce" d="M1256.06,-503.59C1251.09,-476.9 1242.5,-424.19 1242.5,-379 1242.5,-379 1242.5,-379 1242.5,-305 1242.5,-264.03 1240.65,-250.46 1218.5,-216 1211.04,-204.4 1200.22,-194.06 1189.6,-185.68"/>
<polygon fill="#1414ce" stroke="#1414ce" points="1191.67,-182.85 1181.57,-179.65 1187.47,-188.45 1191.67,-182.85"/>
</a>
</g>
</g>
<!-- 18&#45;&gt;22 -->
<g id="edge95" class="edge">
<title>18&#45;&gt;22</title>
<g id="a_edge95"><a xlink:title="include">
<path fill="none" stroke="#1414ce" d="M1232.34,-517.81C1137.72,-506.7 822.01,-469.62 706.4,-456.04"/>
<polygon fill="#1414ce" stroke="#1414ce" points="706.51,-452.53 696.17,-454.84 705.69,-459.48 706.51,-452.53"/>
</a>
</g>
</g>
</g>
</svg>
