<?xml version="1.0" encoding="UTF-8" standalone="no"?>
<!DOCTYPE svg PUBLIC "-//W3C//DTD SVG 1.1//EN"
 "http://www.w3.org/Graphics/SVG/1.1/DTD/svg11.dtd">
<!-- Generated by graphviz version 2.43.0 (0)
 -->
<!-- Title: %3 Pages: 1 -->
<svg width="5970pt" height="332pt"
 viewBox="0.00 0.00 5970.18 332.00" xmlns="http://www.w3.org/2000/svg" xmlns:xlink="http://www.w3.org/1999/xlink">
<g id="graph0" class="graph" transform="scale(1 1) rotate(0) translate(4 328)">
<title>%3</title>
<polygon fill="transparent" stroke="transparent" points="-4,4 -4,-328 5966.18,-328 5966.18,4 -4,4"/>
<!-- 6 -->
<g id="node1" class="node">
<title>6</title>
<g id="a_node1"><a xlink:title="/__w/AtomVM/AtomVM/src/libAtomVM/nifs.c">
<polygon fill="#ffffff" stroke="black" points="2595,-108 2263,-108 2263,-72 2595,-72 2595,-108"/>
<text text-anchor="middle" x="2429" y="-86.3" font-family="Times,serif" font-size="14.00">/__w/AtomVM/AtomVM/src/libAtomVM/nifs.c</text>
</a>
</g>
</g>
<!-- 21 -->
<g id="node2" class="node">
<title>21</title>
<g id="a_node2"><a xlink:title="/__w/AtomVM/AtomVM/src/libAtomVM/nifs.h">
<polygon fill="#ffffff" stroke="black" points="4185.5,-180 3852.5,-180 3852.5,-144 4185.5,-144 4185.5,-180"/>
<text text-anchor="middle" x="4019" y="-158.3" font-family="Times,serif" font-size="14.00">/__w/AtomVM/AtomVM/src/libAtomVM/nifs.h</text>
</a>
</g>
</g>
<!-- 21&#45;&gt;6 -->
<g id="edge4" class="edge">
<title>21&#45;&gt;6</title>
<g id="a_edge4"><a xlink:title="include">
<path fill="none" stroke="#1414ce" d="M3841.94,-155.68C3517.51,-145.72 2839.44,-123.83 2604,-108 2601.11,-107.81 2598.19,-107.6 2595.25,-107.39"/>
<polygon fill="#1414ce" stroke="#1414ce" points="3842.28,-159.2 3852.39,-156 3842.5,-152.2 3842.28,-159.2"/>
</a>
</g>
</g>
<!-- 4 -->
<g id="node3" class="node">
<title>4</title>
<g id="a_node3"><a xlink:title="/__w/AtomVM/AtomVM/src/libAtomVM/jit.c">
<polygon fill="#ffffff" stroke="black" points="1060,-108 740,-108 740,-72 1060,-72 1060,-108"/>
<text text-anchor="middle" x="900" y="-86.3" font-family="Times,serif" font-size="14.00">/__w/AtomVM/AtomVM/src/libAtomVM/jit.c</text>
</a>
</g>
</g>
<!-- 21&#45;&gt;4 -->
<g id="edge2" class="edge">
<title>21&#45;&gt;4</title>
<g id="a_edge2"><a xlink:title="include">
<path fill="none" stroke="#1414ce" d="M3842.25,-155.66C3716.64,-152 3543.98,-147.24 3392,-144 2359.67,-122.01 2099.84,-167.73 1069,-108 1066.06,-107.83 1063.08,-107.65 1060.09,-107.45"/>
<polygon fill="#1414ce" stroke="#1414ce" points="3842.25,-159.16 3852.35,-155.96 3842.45,-152.16 3842.25,-159.16"/>
</a>
</g>
</g>
<!-- 22 -->
<g id="node8" class="node">
<title>22</title>
<g id="a_node8"><a xlink:title="/__w/AtomVM/AtomVM/src/libAtomVM/otp_crypto.c">
<polygon fill="#ffffff" stroke="black" points="4705.5,-36 4324.5,-36 4324.5,0 4705.5,0 4705.5,-36"/>
<text text-anchor="middle" x="4515" y="-14.3" font-family="Times,serif" font-size="14.00">/__w/AtomVM/AtomVM/src/libAtomVM/otp_crypto.c</text>
</a>
</g>
</g>
<!-- 21&#45;&gt;22 -->
<g id="edge5" class="edge">
<title>21&#45;&gt;22</title>
<g id="a_edge5"><a xlink:title="include">
<path fill="none" stroke="#1414ce" d="M4195.73,-158.36C4373.67,-153.82 4626.18,-141.48 4657,-108 4686.26,-76.21 4633.79,-51.35 4584.57,-36.08"/>
<polygon fill="#1414ce" stroke="#1414ce" points="4195.63,-154.86 4185.72,-158.61 4195.81,-161.86 4195.63,-154.86"/>
</a>
</g>
</g>
<!-- 23 -->
<g id="node10" class="node">
<title>23</title>
<g id="a_node10"><a xlink:title="/__w/AtomVM/AtomVM/src/libAtomVM/otp_crypto.h">
<polygon fill="#ffffff" stroke="black" points="4648.5,-108 4265.5,-108 4265.5,-72 4648.5,-72 4648.5,-108"/>
<text text-anchor="middle" x="4457" y="-86.3" font-family="Times,serif" font-size="14.00">/__w/AtomVM/AtomVM/src/libAtomVM/otp_crypto.h</text>
</a>
</g>
</g>
<!-- 21&#45;&gt;23 -->
<g id="edge6" class="edge">
<title>21&#45;&gt;23</title>
<g id="a_edge6"><a xlink:title="include">
<path fill="none" stroke="#1414ce" d="M4135.72,-142.35C4202.4,-131.69 4285.39,-118.43 4350.32,-108.05"/>
<polygon fill="#1414ce" stroke="#1414ce" points="4134.91,-138.93 4125.59,-143.97 4136.01,-145.84 4134.91,-138.93"/>
</a>
</g>
</g>
<!-- 29 -->
<g id="node11" class="node">
<title>29</title>
<g id="a_node11"><a xlink:title="/__w/AtomVM/AtomVM/src/libAtomVM/portnifloader.h">
<polygon fill="#ffffff" stroke="black" points="5102,-108 4704,-108 4704,-72 5102,-72 5102,-108"/>
<text text-anchor="middle" x="4903" y="-86.3" font-family="Times,serif" font-size="14.00">/__w/AtomVM/AtomVM/src/libAtomVM/portnifloader.h</text>
</a>
</g>
</g>
<!-- 21&#45;&gt;29 -->
<g id="edge13" class="edge">
<title>21&#45;&gt;29</title>
<g id="a_edge13"><a xlink:title="include">
<path fill="none" stroke="#1414ce" d="M4195.88,-147.07C4331.18,-136.4 4522.37,-121.31 4690,-108 4694.53,-107.64 4699.11,-107.28 4703.74,-106.91"/>
<polygon fill="#1414ce" stroke="#1414ce" points="4195.53,-143.59 4185.83,-147.86 4196.08,-150.56 4195.53,-143.59"/>
</a>
</g>
</g>
<!-- 5 -->
<g id="node13" class="node">
<title>5</title>
<g id="a_node13"><a xlink:title="/__w/AtomVM/AtomVM/src/libAtomVM/module.c">
<polygon fill="#ffffff" stroke="black" points="1436,-108 1078,-108 1078,-72 1436,-72 1436,-108"/>
<text text-anchor="middle" x="1257" y="-86.3" font-family="Times,serif" font-size="14.00">/__w/AtomVM/AtomVM/src/libAtomVM/module.c</text>
</a>
</g>
</g>
<!-- 21&#45;&gt;5 -->
<g id="edge3" class="edge">
<title>21&#45;&gt;5</title>
<g id="a_edge3"><a xlink:title="include">
<path fill="none" stroke="#1414ce" d="M3842.24,-155.8C3716.64,-152.21 3543.97,-147.47 3392,-144 2526.74,-124.27 2309.2,-155 1445,-108 1442.05,-107.84 1439.08,-107.67 1436.09,-107.49"/>
<polygon fill="#1414ce" stroke="#1414ce" points="3842.25,-159.3 3852.34,-156.09 3842.45,-152.31 3842.25,-159.3"/>
</a>
</g>
</g>
<!-- 24 -->
<g id="node15" class="node">
<title>24</title>
<g id="a_node15"><a xlink:title="/__w/AtomVM/AtomVM/src/libAtomVM/otp_net.c">
<polygon fill="#ffffff" stroke="black" points="5517.5,-36 5158.5,-36 5158.5,0 5517.5,0 5517.5,-36"/>
<text text-anchor="middle" x="5338" y="-14.3" font-family="Times,serif" font-size="14.00">/__w/AtomVM/AtomVM/src/libAtomVM/otp_net.c</text>
</a>
</g>
</g>
<!-- 21&#45;&gt;24 -->
<g id="edge7" class="edge">
<title>21&#45;&gt;24</title>
<g id="a_edge7"><a xlink:title="include">
<path fill="none" stroke="#1414ce" d="M4195.72,-159.13C4483.42,-155.08 5029.32,-142.86 5111,-108 5132.4,-98.87 5128.76,-83.48 5149,-72 5177.75,-55.69 5211.85,-44.13 5243.12,-36.07"/>
<polygon fill="#1414ce" stroke="#1414ce" points="4195.55,-155.63 4185.6,-159.27 4195.65,-162.63 4195.55,-155.63"/>
</a>
</g>
</g>
<!-- 25 -->
<g id="node16" class="node">
<title>25</title>
<g id="a_node16"><a xlink:title="/__w/AtomVM/AtomVM/src/libAtomVM/otp_net.h">
<polygon fill="#ffffff" stroke="black" points="5518,-108 5158,-108 5158,-72 5518,-72 5518,-108"/>
<text text-anchor="middle" x="5338" y="-86.3" font-family="Times,serif" font-size="14.00">/__w/AtomVM/AtomVM/src/libAtomVM/otp_net.h</text>
</a>
</g>
</g>
<!-- 21&#45;&gt;25 -->
<g id="edge8" class="edge">
<title>21&#45;&gt;25</title>
<g id="a_edge8"><a xlink:title="include">
<path fill="none" stroke="#1414ce" d="M4196,-154.87C4417.72,-146.68 4809.21,-130.55 5144,-108 5148.55,-107.69 5153.17,-107.37 5157.82,-107.04"/>
<polygon fill="#1414ce" stroke="#1414ce" points="4195.77,-151.38 4185.9,-155.24 4196.02,-158.37 4195.77,-151.38"/>
</a>
</g>
</g>
<!-- 8 -->
<g id="node17" class="node">
<title>8</title>
<g id="a_node17"><a xlink:title="/__w/AtomVM/AtomVM/src/libAtomVM/dist_nifs.c">
<polygon fill="#ffffff" stroke="black" points="3398.5,-108 3033.5,-108 3033.5,-72 3398.5,-72 3398.5,-108"/>
<text text-anchor="middle" x="3216" y="-86.3" font-family="Times,serif" font-size="14.00">/__w/AtomVM/AtomVM/src/libAtomVM/dist_nifs.c</text>
</a>
</g>
</g>
<!-- 21&#45;&gt;8 -->
<g id="edge1" class="edge">
<title>21&#45;&gt;8</title>
<g id="a_edge1"><a xlink:title="include">
<path fill="none" stroke="#1414ce" d="M3842.22,-145.8C3719.99,-135.27 3553.61,-120.87 3407,-108 3404.26,-107.76 3401.51,-107.52 3398.73,-107.27"/>
<polygon fill="#1414ce" stroke="#1414ce" points="3842.16,-149.31 3852.43,-146.68 3842.76,-142.34 3842.16,-149.31"/>
</a>
</g>
</g>
<!-- 18 -->
<g id="node25" class="node">
<title>18</title>
<g id="a_node25"><a xlink:title="/__w/AtomVM/AtomVM/src/libAtomVM/otp_socket.c">
<polygon fill="#ffffff" stroke="black" points="4306.5,-36 3925.5,-36 3925.5,0 4306.5,0 4306.5,-36"/>
<text text-anchor="middle" x="4116" y="-14.3" font-family="Times,serif" font-size="14.00">/__w/AtomVM/AtomVM/src/libAtomVM/otp_socket.c</text>
</a>
</g>
</g>
<!-- 21&#45;&gt;18 -->
<g id="edge9" class="edge">
<title>21&#45;&gt;18</title>
<g id="a_edge9"><a xlink:title="include">
<path fill="none" stroke="#1414ce" d="M4139.48,-141.71C4175.37,-133.35 4208.09,-122.18 4219,-108 4228.76,-95.32 4227.33,-85.66 4219,-72 4209,-55.6 4192.12,-44.07 4174.9,-36.04"/>
<polygon fill="#1414ce" stroke="#1414ce" points="4138.29,-138.39 4129.29,-143.99 4139.82,-145.22 4138.29,-138.39"/>
</a>
</g>
</g>
<!-- 26 -->
<g id="node26" class="node">
<title>26</title>
<g id="a_node26"><a xlink:title="/__w/AtomVM/AtomVM/src/libAtomVM/otp_socket.h">
<polygon fill="#ffffff" stroke="black" points="4210.5,-108 3827.5,-108 3827.5,-72 4210.5,-72 4210.5,-108"/>
<text text-anchor="middle" x="4019" y="-86.3" font-family="Times,serif" font-size="14.00">/__w/AtomVM/AtomVM/src/libAtomVM/otp_socket.h</text>
</a>
</g>
</g>
<!-- 21&#45;&gt;26 -->
<g id="edge10" class="edge">
<title>21&#45;&gt;26</title>
<g id="a_edge10"><a xlink:title="include">
<path fill="none" stroke="#1414ce" d="M4019,-133.67C4019,-125.05 4019,-115.79 4019,-108.1"/>
<polygon fill="#1414ce" stroke="#1414ce" points="4015.5,-133.7 4019,-143.7 4022.5,-133.7 4015.5,-133.7"/>
</a>
</g>
</g>
<!-- 27 -->
<g id="node29" class="node">
<title>27</title>
<g id="a_node29"><a xlink:title="/__w/AtomVM/AtomVM/src/libAtomVM/otp_ssl.c">
<polygon fill="#ffffff" stroke="black" points="3907.5,-36 3552.5,-36 3552.5,0 3907.5,0 3907.5,-36"/>
<text text-anchor="middle" x="3730" y="-14.3" font-family="Times,serif" font-size="14.00">/__w/AtomVM/AtomVM/src/libAtomVM/otp_ssl.c</text>
</a>
</g>
</g>
<!-- 21&#45;&gt;27 -->
<g id="edge11" class="edge">
<title>21&#45;&gt;27</title>
<g id="a_edge11"><a xlink:title="include">
<path fill="none" stroke="#1414ce" d="M3902.38,-141.42C3873.59,-133.63 3843.68,-122.86 3818,-108 3813.72,-105.52 3771.05,-61.59 3746.74,-36.39"/>
<polygon fill="#1414ce" stroke="#1414ce" points="3901.53,-144.82 3912.08,-143.95 3903.29,-138.05 3901.53,-144.82"/>
</a>
</g>
</g>
<!-- 28 -->
<g id="node30" class="node">
<title>28</title>
<g id="a_node30"><a xlink:title="/__w/AtomVM/AtomVM/src/libAtomVM/otp_ssl.h">
<polygon fill="#ffffff" stroke="black" points="3772,-108 3416,-108 3416,-72 3772,-72 3772,-108"/>
<text text-anchor="middle" x="3594" y="-86.3" font-family="Times,serif" font-size="14.00">/__w/AtomVM/AtomVM/src/libAtomVM/otp_ssl.h</text>
</a>
</g>
</g>
<!-- 21&#45;&gt;28 -->
<g id="edge12" class="edge">
<title>21&#45;&gt;28</title>
<g id="a_edge12"><a xlink:title="include">
<path fill="none" stroke="#1414ce" d="M3905.34,-142.28C3840.71,-131.64 3760.39,-118.41 3697.52,-108.05"/>
<polygon fill="#1414ce" stroke="#1414ce" points="3905.14,-145.79 3915.58,-143.97 3906.28,-138.89 3905.14,-145.79"/>
</a>
</g>
</g>
<!-- 31 -->
<g id="node31" class="node">
<title>31</title>
<g id="a_node31"><a xlink:title="/__w/AtomVM/AtomVM/src/libAtomVM/posix_nifs.c">
<polygon fill="#ffffff" stroke="black" points="5912,-108 5536,-108 5536,-72 5912,-72 5912,-108"/>
<text text-anchor="middle" x="5724" y="-86.3" font-family="Times,serif" font-size="14.00">/__w/AtomVM/AtomVM/src/libAtomVM/posix_nifs.c</text>
</a>
</g>
</g>
<!-- 21&#45;&gt;31 -->
<g id="edge14" class="edge">
<title>21&#45;&gt;31</title>
<g id="a_edge14"><a xlink:title="include">
<path fill="none" stroke="#1414ce" d="M4195.97,-157.7C4477.85,-151.79 5046.09,-137.18 5527,-108 5529.91,-107.82 5532.85,-107.64 5535.8,-107.45"/>
<polygon fill="#1414ce" stroke="#1414ce" points="4195.58,-154.21 4185.66,-157.92 4195.73,-161.21 4195.58,-154.21"/>
</a>
</g>
</g>
<!-- 17 -->
<g id="node4" class="node">
<title>17</title>
<g id="a_node4"><a xlink:title="/__w/AtomVM/AtomVM/src/libAtomVM/context.c">
<polygon fill="#ffffff" stroke="black" points="1813.5,-108 1454.5,-108 1454.5,-72 1813.5,-72 1813.5,-108"/>
<text text-anchor="middle" x="1634" y="-86.3" font-family="Times,serif" font-size="14.00">/__w/AtomVM/AtomVM/src/libAtomVM/context.c</text>
</a>
</g>
</g>
<!-- 3 -->
<g id="node5" class="node">
<title>3</title>
<g id="a_node5"><a xlink:title="/__w/AtomVM/AtomVM/src/libAtomVM/bif.c">
<polygon fill="#ffffff" stroke="black" points="721.5,-108 398.5,-108 398.5,-72 721.5,-72 721.5,-108"/>
<text text-anchor="middle" x="560" y="-86.3" font-family="Times,serif" font-size="14.00">/__w/AtomVM/AtomVM/src/libAtomVM/bif.c</text>
</a>
</g>
</g>
<!-- 12 -->
<g id="node6" class="node">
<title>12</title>
<g id="a_node6"><a xlink:title="/__w/AtomVM/AtomVM/src/libAtomVM/jit.h">
<polygon fill="#ffffff" stroke="black" points="1418,-180 1096,-180 1096,-144 1418,-144 1418,-180"/>
<text text-anchor="middle" x="1257" y="-158.3" font-family="Times,serif" font-size="14.00">/__w/AtomVM/AtomVM/src/libAtomVM/jit.h</text>
</a>
</g>
</g>
<!-- 12&#45;&gt;6 -->
<g id="edge17" class="edge">
<title>12&#45;&gt;6</title>
<g id="a_edge17"><a xlink:title="include">
<path fill="none" stroke="#1414ce" d="M1428.22,-143.94C1778.37,-118.76 1868.43,-129.68 2215,-108 2230.53,-107.03 2246.69,-105.92 2262.85,-104.75"/>
<polygon fill="#1414ce" stroke="#1414ce" points="1427.77,-140.46 1418.05,-144.67 1428.27,-147.44 1427.77,-140.46"/>
</a>
</g>
</g>
<!-- 12&#45;&gt;4 -->
<g id="edge15" class="edge">
<title>12&#45;&gt;4</title>
<g id="a_edge15"><a xlink:title="include">
<path fill="none" stroke="#1414ce" d="M1160.19,-142.02C1106.13,-131.42 1039.33,-118.32 986.96,-108.05"/>
<polygon fill="#1414ce" stroke="#1414ce" points="1159.64,-145.48 1170.12,-143.97 1160.98,-138.61 1159.64,-145.48"/>
</a>
</g>
</g>
<!-- 12&#45;&gt;5 -->
<g id="edge16" class="edge">
<title>12&#45;&gt;5</title>
<g id="a_edge16"><a xlink:title="include">
<path fill="none" stroke="#1414ce" d="M1257,-133.67C1257,-125.05 1257,-115.79 1257,-108.1"/>
<polygon fill="#1414ce" stroke="#1414ce" points="1253.5,-133.7 1257,-143.7 1260.5,-133.7 1253.5,-133.7"/>
</a>
</g>
</g>
<!-- 2 -->
<g id="node7" class="node">
<title>2</title>
<g id="a_node7"><a xlink:title="/__w/AtomVM/AtomVM/src/libAtomVM/bif.h">
<polygon fill="#ffffff" stroke="black" points="1040.5,-180 715.5,-180 715.5,-144 1040.5,-144 1040.5,-180"/>
<text text-anchor="middle" x="878" y="-158.3" font-family="Times,serif" font-size="14.00">/__w/AtomVM/AtomVM/src/libAtomVM/bif.h</text>
</a>
</g>
</g>
<!-- 2&#45;&gt;6 -->
<g id="edge21" class="edge">
<title>2&#45;&gt;6</title>
<g id="a_edge21"><a xlink:title="include">
<path fill="none" stroke="#1414ce" d="M1050.83,-146.27C1063.06,-145.44 1075.22,-144.67 1087,-144 1587.79,-115.66 1714.19,-135.87 2215,-108 2230.54,-107.14 2246.7,-106.1 2262.86,-104.97"/>
<polygon fill="#1414ce" stroke="#1414ce" points="1050.27,-142.81 1040.53,-146.99 1050.75,-149.79 1050.27,-142.81"/>
</a>
</g>
</g>
<!-- 2&#45;&gt;4 -->
<g id="edge19" class="edge">
<title>2&#45;&gt;4</title>
<g id="a_edge19"><a xlink:title="include">
<path fill="none" stroke="#1414ce" d="M886.5,-133.95C889.23,-125.26 892.18,-115.88 894.62,-108.1"/>
<polygon fill="#1414ce" stroke="#1414ce" points="883.1,-133.11 883.44,-143.7 889.78,-135.21 883.1,-133.11"/>
</a>
</g>
</g>
<!-- 2&#45;&gt;3 -->
<g id="edge18" class="edge">
<title>2&#45;&gt;3</title>
<g id="a_edge18"><a xlink:title="include">
<path fill="none" stroke="#1414ce" d="M790.56,-141.75C742.63,-131.2 683.73,-118.24 637.46,-108.05"/>
<polygon fill="#1414ce" stroke="#1414ce" points="790.1,-145.23 800.62,-143.97 791.6,-138.4 790.1,-145.23"/>
</a>
</g>
</g>
<!-- 2&#45;&gt;5 -->
<g id="edge20" class="edge">
<title>2&#45;&gt;5</title>
<g id="a_edge20"><a xlink:title="include">
<path fill="none" stroke="#1414ce" d="M980.07,-142.15C1037.58,-131.53 1108.85,-118.36 1164.69,-108.05"/>
<polygon fill="#1414ce" stroke="#1414ce" points="979.43,-138.71 970.23,-143.97 980.7,-145.59 979.43,-138.71"/>
</a>
</g>
</g>
<!-- 30 -->
<g id="node9" class="node">
<title>30</title>
<g id="a_node9"><a xlink:title="/__w/AtomVM/AtomVM/src/libAtomVM/portnifloader.c">
<polygon fill="#ffffff" stroke="black" points="5120.5,-36 4723.5,-36 4723.5,0 5120.5,0 5120.5,-36"/>
<text text-anchor="middle" x="4922" y="-14.3" font-family="Times,serif" font-size="14.00">/__w/AtomVM/AtomVM/src/libAtomVM/portnifloader.c</text>
</a>
</g>
</g>
<!-- 23&#45;&gt;22 -->
<g id="edge22" class="edge">
<title>23&#45;&gt;22</title>
<g id="a_edge22"><a xlink:title="include">
<path fill="none" stroke="#1414ce" d="M4477.78,-63.92C4485.42,-54.69 4493.9,-44.47 4500.83,-36.1"/>
<polygon fill="#1414ce" stroke="#1414ce" points="4475.02,-61.76 4471.34,-71.7 4480.41,-66.23 4475.02,-61.76"/>
</a>
</g>
</g>
<!-- 29&#45;&gt;30 -->
<g id="edge23" class="edge">
<title>29&#45;&gt;30</title>
<g id="a_edge23"><a xlink:title="include">
<path fill="none" stroke="#1414ce" d="M4910.34,-61.95C4912.7,-53.26 4915.25,-43.88 4917.36,-36.1"/>
<polygon fill="#1414ce" stroke="#1414ce" points="4906.94,-61.13 4907.7,-71.7 4913.69,-62.96 4906.94,-61.13"/>
</a>
</g>
</g>
<!-- 16 -->
<g id="node12" class="node">
<title>16</title>
<g id="a_node12"><a xlink:title="/__w/AtomVM/AtomVM/src/libAtomVM/sys.h">
<polygon fill="#ffffff" stroke="black" points="2542,-180 2212,-180 2212,-144 2542,-144 2542,-180"/>
<text text-anchor="middle" x="2377" y="-158.3" font-family="Times,serif" font-size="14.00">/__w/AtomVM/AtomVM/src/libAtomVM/sys.h</text>
</a>
</g>
</g>
<!-- 16&#45;&gt;6 -->
<g id="edge27" class="edge">
<title>16&#45;&gt;6</title>
<g id="a_edge27"><a xlink:title="include">
<path fill="none" stroke="#1414ce" d="M2395.84,-135.64C2402.64,-126.49 2410.14,-116.38 2416.29,-108.1"/>
<polygon fill="#1414ce" stroke="#1414ce" points="2393.01,-133.58 2389.85,-143.7 2398.63,-137.76 2393.01,-133.58"/>
</a>
</g>
</g>
<!-- 16&#45;&gt;17 -->
<g id="edge24" class="edge">
<title>16&#45;&gt;17</title>
<g id="a_edge24"><a xlink:title="include">
<path fill="none" stroke="#1414ce" d="M2201.43,-143.95C2064.96,-130.96 1922.74,-117.7 1813.73,-107.59"/>
<polygon fill="#1414ce" stroke="#1414ce" points="2201.38,-147.46 2211.66,-144.92 2202.04,-140.49 2201.38,-147.46"/>
</a>
</g>
</g>
<!-- 16&#45;&gt;5 -->
<g id="edge26" class="edge">
<title>16&#45;&gt;5</title>
<g id="a_edge26"><a xlink:title="include">
<path fill="none" stroke="#1414ce" d="M2201.63,-144C1864.37,-119.93 1777.75,-130.95 1445,-108 1442.06,-107.8 1439.09,-107.59 1436.1,-107.37"/>
<polygon fill="#1414ce" stroke="#1414ce" points="2201.45,-147.5 2211.68,-144.72 2201.96,-140.51 2201.45,-147.5"/>
</a>
</g>
</g>
<!-- 19 -->
<g id="node19" class="node">
<title>19</title>
<g id="a_node19"><a xlink:title="/__w/AtomVM/AtomVM/src/libAtomVM/resources.c">
<polygon fill="#ffffff" stroke="black" points="2206.5,-108 1831.5,-108 1831.5,-72 2206.5,-72 2206.5,-108"/>
<text text-anchor="middle" x="2019" y="-86.3" font-family="Times,serif" font-size="14.00">/__w/AtomVM/AtomVM/src/libAtomVM/resources.c</text>
</a>
</g>
</g>
<!-- 16&#45;&gt;19 -->
<g id="edge29" class="edge">
<title>16&#45;&gt;19</title>
<g id="a_edge29"><a xlink:title="include">
<path fill="none" stroke="#1414ce" d="M2279.91,-142.02C2225.71,-131.42 2158.72,-118.32 2106.2,-108.05"/>
<polygon fill="#1414ce" stroke="#1414ce" points="2279.4,-145.48 2289.88,-143.97 2280.74,-138.61 2279.4,-145.48"/>
</a>
</g>
</g>
<!-- 9 -->
<g id="node23" class="node">
<title>9</title>
<g id="a_node23"><a xlink:title="/__w/AtomVM/AtomVM/src/libAtomVM/globalcontext.c">
<polygon fill="#ffffff" stroke="black" points="3015,-108 2613,-108 2613,-72 3015,-72 3015,-108"/>
<text text-anchor="middle" x="2814" y="-86.3" font-family="Times,serif" font-size="14.00">/__w/AtomVM/AtomVM/src/libAtomVM/globalcontext.c</text>
</a>
</g>
</g>
<!-- 16&#45;&gt;9 -->
<g id="edge25" class="edge">
<title>16&#45;&gt;9</title>
<g id="a_edge25"><a xlink:title="include">
<path fill="none" stroke="#1414ce" d="M2493.46,-142.35C2559.98,-131.69 2642.78,-118.43 2707.56,-108.05"/>
<polygon fill="#1414ce" stroke="#1414ce" points="2492.66,-138.93 2483.34,-143.97 2493.77,-145.84 2492.66,-138.93"/>
</a>
</g>
</g>
<!-- 16&#45;&gt;18 -->
<g id="edge28" class="edge">
<title>16&#45;&gt;18</title>
<g id="a_edge28"><a xlink:title="include">
<path fill="none" stroke="#1414ce" d="M2291.23,-139.51C2276.5,-131.95 2263.05,-121.75 2254,-108 2245.21,-94.63 2242.81,-83.44 2254,-72 2286.3,-39 3869.89,-38.46 3916,-36 3919.13,-35.83 3922.29,-35.66 3925.47,-35.47"/>
<polygon fill="#1414ce" stroke="#1414ce" points="2290,-142.8 2300.54,-143.89 2292.98,-136.47 2290,-142.8"/>
</a>
</g>
</g>
<!-- 10 -->
<g id="node14" class="node">
<title>10</title>
<g id="a_node14"><a xlink:title="/__w/AtomVM/AtomVM/src/libAtomVM/module.h">
<polygon fill="#ffffff" stroke="black" points="1785.5,-252 1426.5,-252 1426.5,-216 1785.5,-216 1785.5,-252"/>
<text text-anchor="middle" x="1606" y="-230.3" font-family="Times,serif" font-size="14.00">/__w/AtomVM/AtomVM/src/libAtomVM/module.h</text>
</a>
</g>
</g>
<!-- 10&#45;&gt;6 -->
<g id="edge35" class="edge">
<title>10&#45;&gt;6</title>
<g id="a_edge35"><a xlink:title="include">
<path fill="none" stroke="#1414ce" d="M1795.84,-228.96C2064.34,-222.3 2525.48,-206.99 2551,-180 2561.99,-168.37 2559.77,-157.38 2551,-144 2540.11,-127.39 2522.77,-115.96 2504.54,-108.11"/>
<polygon fill="#1414ce" stroke="#1414ce" points="1795.49,-225.47 1785.58,-229.21 1795.67,-232.46 1795.49,-225.47"/>
</a>
</g>
</g>
<!-- 10&#45;&gt;4 -->
<g id="edge32" class="edge">
<title>10&#45;&gt;4</title>
<g id="a_edge32"><a xlink:title="include">
<path fill="none" stroke="#1414ce" d="M1416.1,-228.38C1159.21,-221.19 729.99,-205.44 706,-180 672.19,-144.14 725.87,-121.52 785.27,-108.06"/>
<polygon fill="#1414ce" stroke="#1414ce" points="1416.21,-231.89 1426.3,-228.67 1416.41,-224.89 1416.21,-231.89"/>
</a>
</g>
</g>
<!-- 10&#45;&gt;12 -->
<g id="edge33" class="edge">
<title>10&#45;&gt;12</title>
<g id="a_edge33"><a xlink:title="include">
<path fill="none" stroke="#1414ce" d="M1511.03,-213.95C1458.24,-203.36 1393.1,-190.3 1342.01,-180.05"/>
<polygon fill="#1414ce" stroke="#1414ce" points="1510.58,-217.43 1521.07,-215.97 1511.95,-210.57 1510.58,-217.43"/>
</a>
</g>
</g>
<!-- 10&#45;&gt;2 -->
<g id="edge30" class="edge">
<title>10&#45;&gt;2</title>
<g id="a_edge30"><a xlink:title="include">
<path fill="none" stroke="#1414ce" d="M1418.32,-215.01C1311.52,-204.76 1175.27,-191.68 1054,-180 1049.57,-179.57 1045.08,-179.14 1040.54,-178.7"/>
<polygon fill="#1414ce" stroke="#1414ce" points="1418.27,-218.52 1428.56,-215.99 1418.94,-211.55 1418.27,-218.52"/>
</a>
</g>
</g>
<!-- 10&#45;&gt;16 -->
<g id="edge38" class="edge">
<title>10&#45;&gt;16</title>
<g id="a_edge38"><a xlink:title="include">
<path fill="none" stroke="#1414ce" d="M1795.81,-216.52C1912.91,-206.25 2066.19,-192.63 2202,-180 2205.19,-179.7 2208.42,-179.4 2211.66,-179.1"/>
<polygon fill="#1414ce" stroke="#1414ce" points="1795.32,-213.05 1785.67,-217.41 1795.93,-220.02 1795.32,-213.05"/>
</a>
</g>
</g>
<!-- 10&#45;&gt;5 -->
<g id="edge34" class="edge">
<title>10&#45;&gt;5</title>
<g id="a_edge34"><a xlink:title="include">
<path fill="none" stroke="#1414ce" d="M1415.84,-225.78C1277.01,-218.5 1109.3,-204.69 1087,-180 1055.8,-145.45 1109.32,-122.1 1164.37,-108.02"/>
<polygon fill="#1414ce" stroke="#1414ce" points="1416.04,-229.3 1426.21,-226.32 1416.4,-222.31 1416.04,-229.3"/>
</a>
</g>
</g>
<!-- 20 -->
<g id="node20" class="node">
<title>20</title>
<g id="a_node20"><a xlink:title="/__w/AtomVM/AtomVM/src/libAtomVM/term.c">
<polygon fill="#ffffff" stroke="black" points="1776,-180 1436,-180 1436,-144 1776,-144 1776,-180"/>
<text text-anchor="middle" x="1606" y="-158.3" font-family="Times,serif" font-size="14.00">/__w/AtomVM/AtomVM/src/libAtomVM/term.c</text>
</a>
</g>
</g>
<!-- 10&#45;&gt;20 -->
<g id="edge39" class="edge">
<title>10&#45;&gt;20</title>
<g id="a_edge39"><a xlink:title="include">
<path fill="none" stroke="#1414ce" d="M1606,-205.67C1606,-197.05 1606,-187.79 1606,-180.1"/>
<polygon fill="#1414ce" stroke="#1414ce" points="1602.5,-205.7 1606,-215.7 1609.5,-205.7 1602.5,-205.7"/>
</a>
</g>
</g>
<!-- 11 -->
<g id="node22" class="node">
<title>11</title>
<g id="a_node22"><a xlink:title="/__w/AtomVM/AtomVM/src/libAtomVM/externalterm.c">
<polygon fill="#ffffff" stroke="black" points="2193.5,-180 1794.5,-180 1794.5,-144 2193.5,-144 2193.5,-180"/>
<text text-anchor="middle" x="1994" y="-158.3" font-family="Times,serif" font-size="14.00">/__w/AtomVM/AtomVM/src/libAtomVM/externalterm.c</text>
</a>
</g>
</g>
<!-- 10&#45;&gt;11 -->
<g id="edge31" class="edge">
<title>10&#45;&gt;11</title>
<g id="a_edge31"><a xlink:title="include">
<path fill="none" stroke="#1414ce" d="M1710.49,-214.15C1769.37,-203.53 1842.33,-190.36 1899.49,-180.05"/>
<polygon fill="#1414ce" stroke="#1414ce" points="1709.64,-210.75 1700.42,-215.97 1710.88,-217.63 1709.64,-210.75"/>
</a>
</g>
</g>
<!-- 13 -->
<g id="node24" class="node">
<title>13</title>
<g id="a_node24"><a xlink:title="/__w/AtomVM/AtomVM/src/libAtomVM/platform_nifs.h">
<polygon fill="#ffffff" stroke="black" points="2998.5,-180 2597.5,-180 2597.5,-144 2998.5,-144 2998.5,-180"/>
<text text-anchor="middle" x="2798" y="-158.3" font-family="Times,serif" font-size="14.00">/__w/AtomVM/AtomVM/src/libAtomVM/platform_nifs.h</text>
</a>
</g>
</g>
<!-- 10&#45;&gt;13 -->
<g id="edge36" class="edge">
<title>10&#45;&gt;13</title>
<g id="a_edge36"><a xlink:title="include">
<path fill="none" stroke="#1414ce" d="M1796.06,-224.12C1993.19,-214.57 2310.3,-198.28 2584,-180 2588.37,-179.71 2592.79,-179.41 2597.24,-179.1"/>
<polygon fill="#1414ce" stroke="#1414ce" points="1795.71,-220.63 1785.89,-224.61 1796.04,-227.62 1795.71,-220.63"/>
</a>
</g>
</g>
<!-- 14 -->
<g id="node28" class="node">
<title>14</title>
<g id="a_node28"><a xlink:title="/__w/AtomVM/AtomVM/src/libAtomVM/stacktrace.h">
<polygon fill="#ffffff" stroke="black" points="660.5,-180 279.5,-180 279.5,-144 660.5,-144 660.5,-180"/>
<text text-anchor="middle" x="470" y="-158.3" font-family="Times,serif" font-size="14.00">/__w/AtomVM/AtomVM/src/libAtomVM/stacktrace.h</text>
</a>
</g>
</g>
<!-- 10&#45;&gt;14 -->
<g id="edge37" class="edge">
<title>10&#45;&gt;14</title>
<g id="a_edge37"><a xlink:title="include">
<path fill="none" stroke="#1414ce" d="M1416.36,-223.68C1227.98,-214.08 930.91,-198.01 674,-180 669.57,-179.69 665.08,-179.37 660.56,-179.04"/>
<polygon fill="#1414ce" stroke="#1414ce" points="1416.21,-227.18 1426.37,-224.19 1416.56,-220.19 1416.21,-227.18"/>
</a>
</g>
</g>
<!-- 25&#45;&gt;24 -->
<g id="edge40" class="edge">
<title>25&#45;&gt;24</title>
<g id="a_edge40"><a xlink:title="include">
<path fill="none" stroke="#1414ce" d="M5338,-61.67C5338,-53.05 5338,-43.79 5338,-36.1"/>
<polygon fill="#1414ce" stroke="#1414ce" points="5334.5,-61.7 5338,-71.7 5341.5,-61.7 5334.5,-61.7"/>
</a>
</g>
</g>
<!-- 7 -->
<g id="node18" class="node">
<title>7</title>
<g id="a_node18"><a xlink:title="/__w/AtomVM/AtomVM/src/libAtomVM/dist_nifs.h">
<polygon fill="#ffffff" stroke="black" points="3383.5,-180 3016.5,-180 3016.5,-144 3383.5,-144 3383.5,-180"/>
<text text-anchor="middle" x="3200" y="-158.3" font-family="Times,serif" font-size="14.00">/__w/AtomVM/AtomVM/src/libAtomVM/dist_nifs.h</text>
</a>
</g>
</g>
<!-- 7&#45;&gt;6 -->
<g id="edge44" class="edge">
<title>7&#45;&gt;6</title>
<g id="a_edge44"><a xlink:title="include">
<path fill="none" stroke="#1414ce" d="M3005.93,-143.82C2847.45,-129.78 2643.44,-111.67 2604,-108 2601.11,-107.73 2598.2,-107.46 2595.26,-107.18"/>
<polygon fill="#1414ce" stroke="#1414ce" points="3006.03,-147.34 3016.3,-144.74 3006.65,-140.37 3006.03,-147.34"/>
</a>
</g>
</g>
<!-- 7&#45;&gt;4 -->
<g id="edge43" class="edge">
<title>7&#45;&gt;4</title>
<g id="a_edge43"><a xlink:title="include">
<path fill="none" stroke="#1414ce" d="M3006.24,-143.99C2145.03,-98.65 1925.6,-158.95 1069,-108 1066.06,-107.82 1063.08,-107.64 1060.09,-107.44"/>
<polygon fill="#1414ce" stroke="#1414ce" points="3006.23,-147.49 3016.4,-144.53 3006.6,-140.5 3006.23,-147.49"/>
</a>
</g>
</g>
<!-- 7&#45;&gt;8 -->
<g id="edge41" class="edge">
<title>7&#45;&gt;8</title>
<g id="a_edge41"><a xlink:title="include">
<path fill="none" stroke="#1414ce" d="M3206.25,-133.67C3208.22,-125.05 3210.33,-115.79 3212.09,-108.1"/>
<polygon fill="#1414ce" stroke="#1414ce" points="3202.77,-133.17 3203.96,-143.7 3209.6,-134.73 3202.77,-133.17"/>
</a>
</g>
</g>
<!-- 7&#45;&gt;9 -->
<g id="edge42" class="edge">
<title>7&#45;&gt;9</title>
<g id="a_edge42"><a xlink:title="include">
<path fill="none" stroke="#1414ce" d="M3096.05,-142.15C3037.47,-131.53 2964.89,-118.36 2908.02,-108.05"/>
<polygon fill="#1414ce" stroke="#1414ce" points="3095.6,-145.62 3106.07,-143.97 3096.85,-138.74 3095.6,-145.62"/>
</a>
</g>
</g>
<!-- 1 -->
<g id="node21" class="node">
<title>1</title>
<g id="a_node21"><a xlink:title="/__w/AtomVM/AtomVM/src/libAtomVM/exportedfunction.h">
<polygon fill="#bfbfbf" stroke="black" points="3122.5,-324 2693.5,-324 2693.5,-288 3122.5,-288 3122.5,-324"/>
<text text-anchor="middle" x="2908" y="-302.3" font-family="Times,serif" font-size="14.00">/__w/AtomVM/AtomVM/src/libAtomVM/exportedfunction.h</text>
</a>
</g>
</g>
<!-- 1&#45;&gt;21 -->
<g id="edge48" class="edge">
<title>1&#45;&gt;21</title>
<g id="a_edge48"><a xlink:title="include">
<path fill="none" stroke="#1414ce" d="M3051.35,-286.68C3267.81,-259.01 3675.13,-206.95 3885.58,-180.05"/>
<polygon fill="#1414ce" stroke="#1414ce" points="3050.66,-283.24 3041.18,-287.98 3051.55,-290.18 3050.66,-283.24"/>
</a>
</g>
</g>
<!-- 1&#45;&gt;2 -->
<g id="edge45" class="edge">
<title>1&#45;&gt;2</title>
<g id="a_edge45"><a xlink:title="include">
<path fill="none" stroke="#1414ce" d="M2683.12,-300.54C2328.58,-292.91 1655.53,-275.83 1417,-252 1254.21,-235.73 1066.07,-200.98 960.66,-180.04"/>
<polygon fill="#1414ce" stroke="#1414ce" points="2683.18,-304.04 2693.25,-300.76 2683.33,-297.04 2683.18,-304.04"/>
</a>
</g>
</g>
<!-- 1&#45;&gt;10 -->
<g id="edge47" class="edge">
<title>1&#45;&gt;10</title>
<g id="a_edge47"><a xlink:title="include">
<path fill="none" stroke="#1414ce" d="M2683.25,-292.92C2428.86,-279.24 2019.52,-257.23 1785.5,-244.65"/>
<polygon fill="#1414ce" stroke="#1414ce" points="2683.19,-296.42 2693.37,-293.46 2683.57,-289.43 2683.19,-296.42"/>
</a>
</g>
</g>
<!-- 1&#45;&gt;7 -->
<g id="edge46" class="edge">
<title>1&#45;&gt;7</title>
<g id="a_edge46"><a xlink:title="include">
<path fill="none" stroke="#1414ce" d="M2952.53,-283.35C3010.71,-255.05 3111.41,-206.08 3164.65,-180.19"/>
<polygon fill="#1414ce" stroke="#1414ce" points="2950.68,-280.35 2943.22,-287.87 2953.75,-286.65 2950.68,-280.35"/>
</a>
</g>
</g>
<!-- 1&#45;&gt;13 -->
<g id="edge49" class="edge">
<title>1&#45;&gt;13</title>
<g id="a_edge49"><a xlink:title="include">
<path fill="none" stroke="#1414ce" d="M2888.58,-279.93C2866.36,-251.25 2830.59,-205.06 2811.32,-180.19"/>
<polygon fill="#1414ce" stroke="#1414ce" points="2885.84,-282.11 2894.73,-287.87 2891.37,-277.82 2885.84,-282.11"/>
</a>
</g>
</g>
<!-- 32 -->
<g id="node32" class="node">
<title>32</title>
<g id="a_node32"><a xlink:title="/__w/AtomVM/AtomVM/src/libAtomVM/posix_nifs.h">
<polygon fill="#ffffff" stroke="black" points="5246.5,-180 4869.5,-180 4869.5,-144 5246.5,-144 5246.5,-180"/>
<text text-anchor="middle" x="5058" y="-158.3" font-family="Times,serif" font-size="14.00">/__w/AtomVM/AtomVM/src/libAtomVM/posix_nifs.h</text>
</a>
</g>
</g>
<!-- 1&#45;&gt;32 -->
<g id="edge50" class="edge">
<title>1&#45;&gt;32</title>
<g id="a_edge50"><a xlink:title="include">
<path fill="none" stroke="#1414ce" d="M3132.77,-290.15C3558.16,-262.06 4473.67,-201.59 4869.4,-175.46"/>
<polygon fill="#1414ce" stroke="#1414ce" points="3132.25,-286.68 3122.51,-290.83 3132.71,-293.67 3132.25,-286.68"/>
</a>
</g>
</g>
<!-- 13&#45;&gt;6 -->
<g id="edge51" class="edge">
<title>13&#45;&gt;6</title>
<g id="a_edge51"><a xlink:title="include">
<path fill="none" stroke="#1414ce" d="M2698.28,-142.08C2642.35,-131.47 2573.13,-118.34 2518.88,-108.05"/>
<polygon fill="#1414ce" stroke="#1414ce" points="2697.73,-145.54 2708.2,-143.97 2699.03,-138.66 2697.73,-145.54"/>
</a>
</g>
</g>
<!-- 26&#45;&gt;18 -->
<g id="edge52" class="edge">
<title>26&#45;&gt;18</title>
<g id="a_edge52"><a xlink:title="include">
<path fill="none" stroke="#1414ce" d="M4051.45,-65.59C4064.81,-55.94 4080.01,-44.97 4092.3,-36.1"/>
<polygon fill="#1414ce" stroke="#1414ce" points="4049.04,-63.01 4042.98,-71.7 4053.13,-68.68 4049.04,-63.01"/>
</a>
</g>
</g>
<!-- 26&#45;&gt;27 -->
<g id="edge53" class="edge">
<title>26&#45;&gt;27</title>
<g id="a_edge53"><a xlink:title="include">
<path fill="none" stroke="#1414ce" d="M3938.71,-69.55C3895.3,-59.04 3842.18,-46.17 3800.39,-36.05"/>
<polygon fill="#1414ce" stroke="#1414ce" points="3938.13,-73.01 3948.67,-71.97 3939.78,-66.21 3938.13,-73.01"/>
</a>
</g>
</g>
<!-- 15 -->
<g id="node27" class="node">
<title>15</title>
<g id="a_node27"><a xlink:title="/__w/AtomVM/AtomVM/src/libAtomVM/stacktrace.c">
<polygon fill="#ffffff" stroke="black" points="380,-108 0,-108 0,-72 380,-72 380,-108"/>
<text text-anchor="middle" x="190" y="-86.3" font-family="Times,serif" font-size="14.00">/__w/AtomVM/AtomVM/src/libAtomVM/stacktrace.c</text>
</a>
</g>
</g>
<!-- 14&#45;&gt;4 -->
<g id="edge54" class="edge">
<title>14&#45;&gt;4</title>
<g id="a_edge54"><a xlink:title="include">
<path fill="none" stroke="#1414ce" d="M584.59,-142.35C650.05,-131.69 731.52,-118.43 795.26,-108.05"/>
<polygon fill="#1414ce" stroke="#1414ce" points="583.95,-138.9 574.64,-143.97 585.07,-145.81 583.95,-138.9"/>
</a>
</g>
</g>
<!-- 14&#45;&gt;15 -->
<g id="edge55" class="edge">
<title>14&#45;&gt;15</title>
<g id="a_edge55"><a xlink:title="include">
<path fill="none" stroke="#1414ce" d="M391.97,-141.49C350.03,-131.01 298.81,-118.2 258.44,-108.11"/>
<polygon fill="#1414ce" stroke="#1414ce" points="391.31,-144.94 401.86,-143.97 393.01,-138.14 391.31,-144.94"/>
</a>
</g>
</g>
<!-- 28&#45;&gt;27 -->
<g id="edge56" class="edge">
<title>28&#45;&gt;27</title>
<g id="a_edge56"><a xlink:title="include">
<path fill="none" stroke="#1414ce" d="M3636.22,-67.27C3655.66,-57.26 3678.39,-45.57 3696.6,-36.19"/>
<polygon fill="#1414ce" stroke="#1414ce" points="3634.56,-64.19 3627.27,-71.88 3637.76,-70.41 3634.56,-64.19"/>
</a>
</g>
</g>
<!-- 32&#45;&gt;6 -->
<g id="edge58" class="edge">
<title>32&#45;&gt;6</title>
<g id="a_edge58"><a xlink:title="include">
<path fill="none" stroke="#1414ce" d="M4858.77,-157.11C4293.93,-146.01 2715.61,-114.62 2604,-108 2601.11,-107.83 2598.18,-107.65 2595.24,-107.45"/>
<polygon fill="#1414ce" stroke="#1414ce" points="4859,-160.61 4869.06,-157.31 4859.13,-153.61 4859,-160.61"/>
</a>
</g>
</g>
<!-- 32&#45;&gt;24 -->
<g id="edge59" class="edge">
<title>32&#45;&gt;24</title>
<g id="a_edge59"><a xlink:title="include">
<path fill="none" stroke="#1414ce" d="M5256.93,-156.07C5513.66,-148.72 5930.42,-133.01 5954,-108 5964.97,-96.36 5964.82,-83.79 5954,-72 5924.81,-40.19 5689.04,-27.43 5517.86,-22.34"/>
<polygon fill="#1414ce" stroke="#1414ce" points="5256.63,-152.58 5246.73,-156.36 5256.83,-159.58 5256.63,-152.58"/>
</a>
</g>
</g>
<!-- 32&#45;&gt;9 -->
<g id="edge57" class="edge">
<title>32&#45;&gt;9</title>
<g id="a_edge57"><a xlink:title="include">
<path fill="none" stroke="#1414ce" d="M4859.15,-157.21C4419.65,-148.6 3376.72,-126.86 3024,-108 3021.08,-107.84 3018.13,-107.68 3015.17,-107.51"/>
<polygon fill="#1414ce" stroke="#1414ce" points="4859.35,-160.71 4869.42,-157.41 4859.49,-153.71 4859.35,-160.71"/>
</a>
</g>
</g>
<!-- 32&#45;&gt;18 -->
<g id="edge60" class="edge">
<title>32&#45;&gt;18</title>
<g id="a_edge60"><a xlink:title="include">
<path fill="none" stroke="#1414ce" d="M5256.76,-155.59C5504.54,-147.86 5898.53,-131.89 5921,-108 5931.96,-96.34 5932.19,-83.44 5921,-72 5889.82,-40.12 4360.53,-38.39 4316,-36 4312.87,-35.83 4309.71,-35.65 4306.53,-35.47"/>
<polygon fill="#1414ce" stroke="#1414ce" points="5256.43,-152.1 5246.54,-155.91 5256.65,-159.1 5256.43,-152.1"/>
</a>
</g>
</g>
<!-- 32&#45;&gt;31 -->
<g id="edge61" class="edge">
<title>32&#45;&gt;31</title>
<g id="a_edge61"><a xlink:title="include">
<path fill="none" stroke="#1414ce" d="M5230.2,-142.9C5332.56,-132.14 5461.58,-118.58 5562.07,-108.02"/>
<polygon fill="#1414ce" stroke="#1414ce" points="5229.65,-139.44 5220.07,-143.97 5230.38,-146.4 5229.65,-139.44"/>
</a>
</g>
</g>
</g>
</svg>
