<?xml version="1.0" encoding="UTF-8" standalone="no"?>
<!DOCTYPE svg PUBLIC "-//W3C//DTD SVG 1.1//EN"
 "http://www.w3.org/Graphics/SVG/1.1/DTD/svg11.dtd">
<!-- Generated by graphviz version 2.43.0 (0)
 -->
<!-- Title: %3 Pages: 1 -->
<svg width="3385pt" height="188pt"
 viewBox="0.00 0.00 3384.50 188.00" xmlns="http://www.w3.org/2000/svg" xmlns:xlink="http://www.w3.org/1999/xlink">
<g id="graph0" class="graph" transform="scale(1 1) rotate(0) translate(4 184)">
<title>%3</title>
<polygon fill="transparent" stroke="transparent" points="-4,4 -4,-184 3380.5,-184 3380.5,4 -4,4"/>
<!-- 6 -->
<g id="node1" class="node">
<title>6</title>
<g id="a_node1"><a xlink:title="/__w/AtomVM/AtomVM/src/libAtomVM/nifs.c">
<polygon fill="#ffffff" stroke="black" points="1786,-36 1454,-36 1454,0 1786,0 1786,-36"/>
<text text-anchor="middle" x="1620" y="-14.3" font-family="Times,serif" font-size="14.00">/__w/AtomVM/AtomVM/src/libAtomVM/nifs.c</text>
</a>
</g>
</g>
<!-- 4 -->
<g id="node2" class="node">
<title>4</title>
<g id="a_node2"><a xlink:title="/__w/AtomVM/AtomVM/src/libAtomVM/jit.c">
<polygon fill="#ffffff" stroke="black" points="718,-36 398,-36 398,0 718,0 718,-36"/>
<text text-anchor="middle" x="558" y="-14.3" font-family="Times,serif" font-size="14.00">/__w/AtomVM/AtomVM/src/libAtomVM/jit.c</text>
</a>
</g>
</g>
<!-- 12 -->
<g id="node3" class="node">
<title>12</title>
<g id="a_node3"><a xlink:title="/__w/AtomVM/AtomVM/src/libAtomVM/context.c">
<polygon fill="#ffffff" stroke="black" points="2163.5,-36 1804.5,-36 1804.5,0 2163.5,0 2163.5,-36"/>
<text text-anchor="middle" x="1984" y="-14.3" font-family="Times,serif" font-size="14.00">/__w/AtomVM/AtomVM/src/libAtomVM/context.c</text>
</a>
</g>
</g>
<!-- 3 -->
<g id="node4" class="node">
<title>3</title>
<g id="a_node4"><a xlink:title="/__w/AtomVM/AtomVM/src/libAtomVM/bif.c">
<polygon fill="#ffffff" stroke="black" points="1059.5,-36 736.5,-36 736.5,0 1059.5,0 1059.5,-36"/>
<text text-anchor="middle" x="898" y="-14.3" font-family="Times,serif" font-size="14.00">/__w/AtomVM/AtomVM/src/libAtomVM/bif.c</text>
</a>
</g>
</g>
<!-- 7 -->
<g id="node5" class="node">
<title>7</title>
<g id="a_node5"><a xlink:title="/__w/AtomVM/AtomVM/src/libAtomVM/jit.h">
<polygon fill="#ffffff" stroke="black" points="1333,-108 1011,-108 1011,-72 1333,-72 1333,-108"/>
<text text-anchor="middle" x="1172" y="-86.3" font-family="Times,serif" font-size="14.00">/__w/AtomVM/AtomVM/src/libAtomVM/jit.h</text>
</a>
</g>
</g>
<!-- 7&#45;&gt;6 -->
<g id="edge3" class="edge">
<title>7&#45;&gt;6</title>
<g id="a_edge3"><a xlink:title="include">
<path fill="none" stroke="#1414ce" d="M1290.97,-70.41C1359.24,-59.74 1444.33,-46.45 1510.88,-36.05"/>
<polygon fill="#1414ce" stroke="#1414ce" points="1290.36,-66.96 1281.02,-71.97 1291.44,-73.88 1290.36,-66.96"/>
</a>
</g>
</g>
<!-- 7&#45;&gt;4 -->
<g id="edge1" class="edge">
<title>7&#45;&gt;4</title>
<g id="a_edge1"><a xlink:title="include">
<path fill="none" stroke="#1414ce" d="M1012.38,-70.8C918.16,-60.06 799.65,-46.55 707.29,-36.02"/>
<polygon fill="#1414ce" stroke="#1414ce" points="1012.25,-74.31 1022.58,-71.97 1013.04,-67.36 1012.25,-74.31"/>
</a>
</g>
</g>
<!-- 5 -->
<g id="node8" class="node">
<title>5</title>
<g id="a_node8"><a xlink:title="/__w/AtomVM/AtomVM/src/libAtomVM/module.c">
<polygon fill="#ffffff" stroke="black" points="1436,-36 1078,-36 1078,0 1436,0 1436,-36"/>
<text text-anchor="middle" x="1257" y="-14.3" font-family="Times,serif" font-size="14.00">/__w/AtomVM/AtomVM/src/libAtomVM/module.c</text>
</a>
</g>
</g>
<!-- 7&#45;&gt;5 -->
<g id="edge2" class="edge">
<title>7&#45;&gt;5</title>
<g id="a_edge2"><a xlink:title="include">
<path fill="none" stroke="#1414ce" d="M1200.77,-65.31C1212.4,-55.73 1225.56,-44.89 1236.23,-36.1"/>
<polygon fill="#1414ce" stroke="#1414ce" points="1198.51,-62.64 1193.01,-71.7 1202.96,-68.04 1198.51,-62.64"/>
</a>
</g>
</g>
<!-- 2 -->
<g id="node6" class="node">
<title>2</title>
<g id="a_node6"><a xlink:title="/__w/AtomVM/AtomVM/src/libAtomVM/bif.h">
<polygon fill="#ffffff" stroke="black" points="992.5,-108 667.5,-108 667.5,-72 992.5,-72 992.5,-108"/>
<text text-anchor="middle" x="830" y="-86.3" font-family="Times,serif" font-size="14.00">/__w/AtomVM/AtomVM/src/libAtomVM/bif.h</text>
</a>
</g>
</g>
<!-- 2&#45;&gt;6 -->
<g id="edge7" class="edge">
<title>2&#45;&gt;6</title>
<g id="a_edge7"><a xlink:title="include">
<path fill="none" stroke="#1414ce" d="M1003.08,-71.91C1200.43,-54.26 1251.51,-53.26 1445,-36 1447.89,-35.74 1450.8,-35.48 1453.74,-35.21"/>
<polygon fill="#1414ce" stroke="#1414ce" points="1002.6,-68.44 992.95,-72.82 1003.23,-75.41 1002.6,-68.44"/>
</a>
</g>
</g>
<!-- 2&#45;&gt;4 -->
<g id="edge5" class="edge">
<title>2&#45;&gt;4</title>
<g id="a_edge5"><a xlink:title="include">
<path fill="none" stroke="#1414ce" d="M753.94,-69.43C713.25,-58.95 663.62,-46.18 624.49,-36.11"/>
<polygon fill="#1414ce" stroke="#1414ce" points="753.25,-72.86 763.81,-71.97 755,-66.08 753.25,-72.86"/>
</a>
</g>
</g>
<!-- 2&#45;&gt;3 -->
<g id="edge4" class="edge">
<title>2&#45;&gt;3</title>
<g id="a_edge4"><a xlink:title="include">
<path fill="none" stroke="#1414ce" d="M853.82,-64.48C862.92,-55.11 873.1,-44.64 881.38,-36.1"/>
<polygon fill="#1414ce" stroke="#1414ce" points="851.27,-62.09 846.81,-71.7 856.29,-66.96 851.27,-62.09"/>
</a>
</g>
</g>
<!-- 2&#45;&gt;5 -->
<g id="edge6" class="edge">
<title>2&#45;&gt;5</title>
<g id="a_edge6"><a xlink:title="include">
<path fill="none" stroke="#1414ce" d="M943.79,-70.35C1008.79,-59.69 1089.7,-46.43 1152.99,-36.05"/>
<polygon fill="#1414ce" stroke="#1414ce" points="943.21,-66.89 933.91,-71.97 944.34,-73.8 943.21,-66.89"/>
</a>
</g>
</g>
<!-- 11 -->
<g id="node7" class="node">
<title>11</title>
<g id="a_node7"><a xlink:title="/__w/AtomVM/AtomVM/src/libAtomVM/sys.h">
<polygon fill="#ffffff" stroke="black" points="2534,-108 2204,-108 2204,-72 2534,-72 2534,-108"/>
<text text-anchor="middle" x="2369" y="-86.3" font-family="Times,serif" font-size="14.00">/__w/AtomVM/AtomVM/src/libAtomVM/sys.h</text>
</a>
</g>
</g>
<!-- 11&#45;&gt;6 -->
<g id="edge11" class="edge">
<title>11&#45;&gt;6</title>
<g id="a_edge11"><a xlink:title="include">
<path fill="none" stroke="#1414ce" d="M2193.39,-72.32C2192.26,-72.21 2191.13,-72.1 2190,-72 2014.92,-55.69 1971.07,-52.45 1796,-36 1792.79,-35.7 1789.55,-35.39 1786.28,-35.08"/>
<polygon fill="#1414ce" stroke="#1414ce" points="2193.41,-75.83 2203.69,-73.28 2194.06,-68.86 2193.41,-75.83"/>
</a>
</g>
</g>
<!-- 11&#45;&gt;12 -->
<g id="edge8" class="edge">
<title>11&#45;&gt;12</title>
<g id="a_edge8"><a xlink:title="include">
<path fill="none" stroke="#1414ce" d="M2265.32,-70.15C2206.9,-59.53 2134.5,-46.36 2077.78,-36.05"/>
<polygon fill="#1414ce" stroke="#1414ce" points="2264.85,-73.62 2275.31,-71.97 2266.1,-66.73 2264.85,-73.62"/>
</a>
</g>
</g>
<!-- 11&#45;&gt;5 -->
<g id="edge10" class="edge">
<title>11&#45;&gt;5</title>
<g id="a_edge10"><a xlink:title="include">
<path fill="none" stroke="#1414ce" d="M2193.82,-74.55C2181.36,-73.64 2168.99,-72.78 2157,-72 1840.83,-51.33 1761.06,-58.27 1445,-36 1442.06,-35.79 1439.09,-35.58 1436.1,-35.36"/>
<polygon fill="#1414ce" stroke="#1414ce" points="2193.6,-78.04 2203.82,-75.28 2194.11,-71.06 2193.6,-78.04"/>
</a>
</g>
</g>
<!-- 15 -->
<g id="node10" class="node">
<title>15</title>
<g id="a_node10"><a xlink:title="/__w/AtomVM/AtomVM/src/libAtomVM/resources.c">
<polygon fill="#ffffff" stroke="black" points="2556.5,-36 2181.5,-36 2181.5,0 2556.5,0 2556.5,-36"/>
<text text-anchor="middle" x="2369" y="-14.3" font-family="Times,serif" font-size="14.00">/__w/AtomVM/AtomVM/src/libAtomVM/resources.c</text>
</a>
</g>
</g>
<!-- 11&#45;&gt;15 -->
<g id="edge13" class="edge">
<title>11&#45;&gt;15</title>
<g id="a_edge13"><a xlink:title="include">
<path fill="none" stroke="#1414ce" d="M2369,-61.67C2369,-53.05 2369,-43.79 2369,-36.1"/>
<polygon fill="#1414ce" stroke="#1414ce" points="2365.5,-61.7 2369,-71.7 2372.5,-61.7 2365.5,-61.7"/>
</a>
</g>
</g>
<!-- 13 -->
<g id="node12" class="node">
<title>13</title>
<g id="a_node12"><a xlink:title="/__w/AtomVM/AtomVM/src/libAtomVM/globalcontext.c">
<polygon fill="#ffffff" stroke="black" points="2977,-36 2575,-36 2575,0 2977,0 2977,-36"/>
<text text-anchor="middle" x="2776" y="-14.3" font-family="Times,serif" font-size="14.00">/__w/AtomVM/AtomVM/src/libAtomVM/globalcontext.c</text>
</a>
</g>
</g>
<!-- 11&#45;&gt;13 -->
<g id="edge9" class="edge">
<title>11&#45;&gt;13</title>
<g id="a_edge9"><a xlink:title="include">
<path fill="none" stroke="#1414ce" d="M2478.22,-70.21C2540.05,-59.58 2616.78,-46.38 2676.87,-36.05"/>
<polygon fill="#1414ce" stroke="#1414ce" points="2477.3,-66.82 2468.04,-71.97 2478.49,-73.72 2477.3,-66.82"/>
</a>
</g>
</g>
<!-- 14 -->
<g id="node14" class="node">
<title>14</title>
<g id="a_node14"><a xlink:title="/__w/AtomVM/AtomVM/src/libAtomVM/otp_socket.c">
<polygon fill="#ffffff" stroke="black" points="3376.5,-36 2995.5,-36 2995.5,0 3376.5,0 3376.5,-36"/>
<text text-anchor="middle" x="3186" y="-14.3" font-family="Times,serif" font-size="14.00">/__w/AtomVM/AtomVM/src/libAtomVM/otp_socket.c</text>
</a>
</g>
</g>
<!-- 11&#45;&gt;14 -->
<g id="edge12" class="edge">
<title>11&#45;&gt;14</title>
<g id="a_edge12"><a xlink:title="include">
<path fill="none" stroke="#1414ce" d="M2544.6,-73.95C2677.31,-62.58 2859.27,-46.99 2995.49,-35.32"/>
<polygon fill="#1414ce" stroke="#1414ce" points="2544,-70.49 2534.33,-74.83 2544.59,-77.47 2544,-70.49"/>
</a>
</g>
</g>
<!-- 1 -->
<g id="node9" class="node">
<title>1</title>
<g id="a_node9"><a xlink:title="/__w/AtomVM/AtomVM/src/libAtomVM/module.h">
<polygon fill="#bfbfbf" stroke="black" points="1540.5,-180 1181.5,-180 1181.5,-144 1540.5,-144 1540.5,-180"/>
<text text-anchor="middle" x="1361" y="-158.3" font-family="Times,serif" font-size="14.00">/__w/AtomVM/AtomVM/src/libAtomVM/module.h</text>
</a>
</g>
</g>
<!-- 1&#45;&gt;6 -->
<g id="edge18" class="edge">
<title>1&#45;&gt;6</title>
<g id="a_edge18"><a xlink:title="include">
<path fill="none" stroke="#1414ce" d="M1550.7,-161.66C1773.02,-160.41 2116.43,-151.36 2157,-108 2167.93,-96.32 2167.74,-83.86 2157,-72 2156.21,-71.13 1943.69,-50.36 1786.27,-35.08"/>
<polygon fill="#1414ce" stroke="#1414ce" points="1550.52,-158.16 1540.54,-161.71 1550.56,-165.16 1550.52,-158.16"/>
</a>
</g>
</g>
<!-- 1&#45;&gt;4 -->
<g id="edge15" class="edge">
<title>1&#45;&gt;4</title>
<g id="a_edge15"><a xlink:title="include">
<path fill="none" stroke="#1414ce" d="M1170.99,-161.13C994.61,-158.67 746.39,-147.84 658,-108 637.08,-98.57 638.01,-87.4 621,-72 607.33,-59.63 591.44,-46.27 579.04,-36.05"/>
<polygon fill="#1414ce" stroke="#1414ce" points="1171.13,-164.64 1181.17,-161.27 1171.22,-157.64 1171.13,-164.64"/>
</a>
</g>
</g>
<!-- 1&#45;&gt;7 -->
<g id="edge16" class="edge">
<title>1&#45;&gt;7</title>
<g id="a_edge16"><a xlink:title="include">
<path fill="none" stroke="#1414ce" d="M1305.2,-140.33C1277.47,-130.06 1244.36,-117.8 1218.08,-108.07"/>
<polygon fill="#1414ce" stroke="#1414ce" points="1304.17,-143.68 1314.77,-143.88 1306.6,-137.12 1304.17,-143.68"/>
</a>
</g>
</g>
<!-- 1&#45;&gt;2 -->
<g id="edge14" class="edge">
<title>1&#45;&gt;2</title>
<g id="a_edge14"><a xlink:title="include">
<path fill="none" stroke="#1414ce" d="M1221.48,-142.61C1140.32,-131.91 1038.7,-118.51 959.34,-108.05"/>
<polygon fill="#1414ce" stroke="#1414ce" points="1221.41,-146.13 1231.78,-143.97 1222.33,-139.19 1221.41,-146.13"/>
</a>
</g>
</g>
<!-- 1&#45;&gt;11 -->
<g id="edge21" class="edge">
<title>1&#45;&gt;11</title>
<g id="a_edge21"><a xlink:title="include">
<path fill="none" stroke="#1414ce" d="M1550.81,-150.53C1718.92,-140.87 1970.92,-125.4 2190,-108 2194.51,-107.64 2199.09,-107.27 2203.7,-106.89"/>
<polygon fill="#1414ce" stroke="#1414ce" points="1550.4,-147.05 1540.62,-151.12 1550.8,-154.04 1550.4,-147.05"/>
</a>
</g>
</g>
<!-- 1&#45;&gt;5 -->
<g id="edge17" class="edge">
<title>1&#45;&gt;5</title>
<g id="a_edge17"><a xlink:title="include">
<path fill="none" stroke="#1414ce" d="M1360.64,-133.66C1359.16,-114.82 1354.65,-90.03 1342,-72 1331.11,-56.48 1314.09,-44.57 1298.12,-36.01"/>
<polygon fill="#1414ce" stroke="#1414ce" points="1357.15,-133.9 1361.19,-143.7 1364.14,-133.52 1357.15,-133.9"/>
</a>
</g>
</g>
<!-- 16 -->
<g id="node11" class="node">
<title>16</title>
<g id="a_node11"><a xlink:title="/__w/AtomVM/AtomVM/src/libAtomVM/term.c">
<polygon fill="#ffffff" stroke="black" points="2148,-108 1808,-108 1808,-72 2148,-72 2148,-108"/>
<text text-anchor="middle" x="1978" y="-86.3" font-family="Times,serif" font-size="14.00">/__w/AtomVM/AtomVM/src/libAtomVM/term.c</text>
</a>
</g>
</g>
<!-- 1&#45;&gt;16 -->
<g id="edge22" class="edge">
<title>1&#45;&gt;16</title>
<g id="a_edge22"><a xlink:title="include">
<path fill="none" stroke="#1414ce" d="M1521.11,-142.84C1615.84,-132.09 1735.08,-118.56 1827.98,-108.02"/>
<polygon fill="#1414ce" stroke="#1414ce" points="1520.69,-139.36 1511.15,-143.97 1521.48,-146.32 1520.69,-139.36"/>
</a>
</g>
</g>
<!-- 8 -->
<g id="node13" class="node">
<title>8</title>
<g id="a_node13"><a xlink:title="/__w/AtomVM/AtomVM/src/libAtomVM/platform_nifs.h">
<polygon fill="#ffffff" stroke="black" points="1789.5,-108 1388.5,-108 1388.5,-72 1789.5,-72 1789.5,-108"/>
<text text-anchor="middle" x="1589" y="-86.3" font-family="Times,serif" font-size="14.00">/__w/AtomVM/AtomVM/src/libAtomVM/platform_nifs.h</text>
</a>
</g>
</g>
<!-- 1&#45;&gt;8 -->
<g id="edge19" class="edge">
<title>1&#45;&gt;8</title>
<g id="a_edge19"><a xlink:title="include">
<path fill="none" stroke="#1414ce" d="M1426.28,-140.96C1460.09,-130.58 1500.95,-118.03 1533.27,-108.11"/>
<polygon fill="#1414ce" stroke="#1414ce" points="1425.02,-137.68 1416.48,-143.97 1427.07,-144.38 1425.02,-137.68"/>
</a>
</g>
</g>
<!-- 9 -->
<g id="node16" class="node">
<title>9</title>
<g id="a_node16"><a xlink:title="/__w/AtomVM/AtomVM/src/libAtomVM/stacktrace.h">
<polygon fill="#ffffff" stroke="black" points="612.5,-108 231.5,-108 231.5,-72 612.5,-72 612.5,-108"/>
<text text-anchor="middle" x="422" y="-86.3" font-family="Times,serif" font-size="14.00">/__w/AtomVM/AtomVM/src/libAtomVM/stacktrace.h</text>
</a>
</g>
</g>
<!-- 1&#45;&gt;9 -->
<g id="edge20" class="edge">
<title>1&#45;&gt;9</title>
<g id="a_edge20"><a xlink:title="include">
<path fill="none" stroke="#1414ce" d="M1171.1,-147.89C1022.66,-137.5 811.16,-122.39 626,-108 621.57,-107.66 617.09,-107.3 612.57,-106.95"/>
<polygon fill="#1414ce" stroke="#1414ce" points="1171.01,-151.39 1181.23,-148.6 1171.5,-144.41 1171.01,-151.39"/>
</a>
</g>
</g>
<!-- 8&#45;&gt;6 -->
<g id="edge23" class="edge">
<title>8&#45;&gt;6</title>
<g id="a_edge23"><a xlink:title="include">
<path fill="none" stroke="#1414ce" d="M1600.73,-62.51C1604.65,-53.67 1608.91,-44.04 1612.43,-36.1"/>
<polygon fill="#1414ce" stroke="#1414ce" points="1597.51,-61.14 1596.66,-71.7 1603.91,-63.97 1597.51,-61.14"/>
</a>
</g>
</g>
<!-- 10 -->
<g id="node15" class="node">
<title>10</title>
<g id="a_node15"><a xlink:title="/__w/AtomVM/AtomVM/src/libAtomVM/stacktrace.c">
<polygon fill="#ffffff" stroke="black" points="380,-36 0,-36 0,0 380,0 380,-36"/>
<text text-anchor="middle" x="190" y="-14.3" font-family="Times,serif" font-size="14.00">/__w/AtomVM/AtomVM/src/libAtomVM/stacktrace.c</text>
</a>
</g>
</g>
<!-- 9&#45;&gt;4 -->
<g id="edge24" class="edge">
<title>9&#45;&gt;4</title>
<g id="a_edge24"><a xlink:title="include">
<path fill="none" stroke="#1414ce" d="M464.22,-67.27C483.66,-57.26 506.39,-45.57 524.6,-36.19"/>
<polygon fill="#1414ce" stroke="#1414ce" points="462.56,-64.19 455.27,-71.88 465.76,-70.41 462.56,-64.19"/>
</a>
</g>
</g>
<!-- 9&#45;&gt;10 -->
<g id="edge25" class="edge">
<title>9&#45;&gt;10</title>
<g id="a_edge25"><a xlink:title="include">
<path fill="none" stroke="#1414ce" d="M355.58,-68.96C321.17,-58.58 279.59,-46.03 246.71,-36.11"/>
<polygon fill="#1414ce" stroke="#1414ce" points="354.96,-72.43 365.54,-71.97 356.98,-65.73 354.96,-72.43"/>
</a>
</g>
</g>
</g>
</svg>
