<?xml version="1.0" encoding="UTF-8" standalone="no"?>
<!DOCTYPE svg PUBLIC "-//W3C//DTD SVG 1.1//EN"
 "http://www.w3.org/Graphics/SVG/1.1/DTD/svg11.dtd">
<!-- Generated by graphviz version 2.43.0 (0)
 -->
<!-- Title: %3 Pages: 1 -->
<svg width="1305pt" height="620pt"
 viewBox="0.00 0.00 1304.76 620.00" xmlns="http://www.w3.org/2000/svg" xmlns:xlink="http://www.w3.org/1999/xlink">
<g id="graph0" class="graph" transform="scale(1 1) rotate(0) translate(4 616)">
<title>%3</title>
<polygon fill="transparent" stroke="transparent" points="-4,4 -4,-616 1300.76,-616 1300.76,4 -4,4"/>
<!-- 14 -->
<g id="node1" class="node">
<title>14</title>
<g id="a_node1"><a xlink:title="atom.h">
<polygon fill="#ffffff" stroke="black" points="366.5,-396 300.5,-396 300.5,-360 366.5,-360 366.5,-396"/>
<text text-anchor="middle" x="333.5" y="-374.3" font-family="Times,serif" font-size="14.00">atom.h</text>
</a>
</g>
</g>
<!-- 13 -->
<g id="node23" class="node">
<title>13</title>
<g id="a_node23"><a xlink:title="stdint.h">
<polygon fill="#ffffff" stroke="black" points="514.5,-36 442.5,-36 442.5,0 514.5,0 514.5,-36"/>
<text text-anchor="middle" x="478.5" y="-14.3" font-family="Times,serif" font-size="14.00">stdint.h</text>
</a>
</g>
</g>
<!-- 14&#45;&gt;13 -->
<g id="edge1" class="edge">
<title>14&#45;&gt;13</title>
<g id="a_edge1"><a xlink:title="include">
<path fill="none" stroke="#1414ce" d="M303.17,-359.96C266.46,-336.82 209.5,-291.79 209.5,-235 209.5,-235 209.5,-235 209.5,-161 209.5,-61.64 354.81,-31.63 431.83,-22.7"/>
<polygon fill="#1414ce" stroke="#1414ce" points="432.66,-26.13 442.22,-21.57 431.9,-19.17 432.66,-26.13"/>
</a>
</g>
</g>
<!-- 10 -->
<g id="node25" class="node">
<title>10</title>
<g id="a_node25"><a xlink:title="stdlib.h">
<polygon fill="#ffffff" stroke="black" points="495,-108 424,-108 424,-72 495,-72 495,-108"/>
<text text-anchor="middle" x="459.5" y="-86.3" font-family="Times,serif" font-size="14.00">stdlib.h</text>
</a>
</g>
</g>
<!-- 14&#45;&gt;10 -->
<g id="edge2" class="edge">
<title>14&#45;&gt;10</title>
<g id="a_edge2"><a xlink:title="include">
<path fill="none" stroke="#1414ce" d="M332.34,-359.7C330.98,-329.26 331.16,-264.73 352.5,-216 370.36,-175.21 406.14,-137.75 431.4,-114.69"/>
<polygon fill="#1414ce" stroke="#1414ce" points="433.75,-117.28 438.86,-108.01 429.08,-112.07 433.75,-117.28"/>
</a>
</g>
</g>
<!-- 2 -->
<g id="node2" class="node">
<title>2</title>
<g id="a_node2"><a xlink:title="bitstring.h">
<polygon fill="#ffffff" stroke="black" points="1118.5,-540 1026.5,-540 1026.5,-504 1118.5,-504 1118.5,-540"/>
<text text-anchor="middle" x="1072.5" y="-518.3" font-family="Times,serif" font-size="14.00">bitstring.h</text>
</a>
</g>
</g>
<!-- 3 -->
<g id="node5" class="node">
<title>3</title>
<g id="a_node5"><a xlink:title="intn.h">
<polygon fill="#ffffff" stroke="black" points="1055,-396 996,-396 996,-360 1055,-360 1055,-396"/>
<text text-anchor="middle" x="1025.5" y="-374.3" font-family="Times,serif" font-size="14.00">intn.h</text>
</a>
</g>
</g>
<!-- 2&#45;&gt;3 -->
<g id="edge3" class="edge">
<title>2&#45;&gt;3</title>
<g id="a_edge3"><a xlink:title="include">
<path fill="none" stroke="#1414ce" d="M1066.83,-503.87C1058.79,-479.56 1043.98,-434.82 1034.44,-406.01"/>
<polygon fill="#1414ce" stroke="#1414ce" points="1037.65,-404.58 1031.19,-396.19 1031.01,-406.78 1037.65,-404.58"/>
</a>
</g>
</g>
<!-- 11 -->
<g id="node14" class="node">
<title>11</title>
<g id="a_node14"><a xlink:title="term.h">
<polygon fill="#ffffff" stroke="black" points="603,-468 538,-468 538,-432 603,-432 603,-468"/>
<text text-anchor="middle" x="570.5" y="-446.3" font-family="Times,serif" font-size="14.00">term.h</text>
</a>
</g>
</g>
<!-- 2&#45;&gt;11 -->
<g id="edge4" class="edge">
<title>2&#45;&gt;11</title>
<g id="a_edge4"><a xlink:title="include">
<path fill="none" stroke="#1414ce" d="M1026.17,-514.54C929.32,-501.03 706.65,-469.98 613.11,-456.94"/>
<polygon fill="#1414ce" stroke="#1414ce" points="613.53,-453.47 603.15,-455.55 612.57,-460.4 613.53,-453.47"/>
</a>
</g>
</g>
<!-- 26 -->
<g id="node16" class="node">
<title>26</title>
<g id="a_node16"><a xlink:title="unicode.h">
<polygon fill="#ffffff" stroke="black" points="1215.5,-180 1129.5,-180 1129.5,-144 1215.5,-144 1215.5,-180"/>
<text text-anchor="middle" x="1172.5" y="-158.3" font-family="Times,serif" font-size="14.00">unicode.h</text>
</a>
</g>
</g>
<!-- 2&#45;&gt;26 -->
<g id="edge5" class="edge">
<title>2&#45;&gt;26</title>
<g id="a_edge5"><a xlink:title="include">
<path fill="none" stroke="#1414ce" d="M1091.14,-503.69C1115.89,-478.72 1156.5,-429.98 1156.5,-379 1156.5,-379 1156.5,-379 1156.5,-305 1156.5,-264.96 1162.86,-218.97 1167.56,-190.45"/>
<polygon fill="#1414ce" stroke="#1414ce" points="1171.04,-190.86 1169.26,-180.42 1164.14,-189.69 1171.04,-190.86"/>
</a>
</g>
</g>
<!-- 4 -->
<g id="node21" class="node">
<title>4</title>
<g id="a_node21"><a xlink:title="stdbool.h">
<polygon fill="#ffffff" stroke="black" points="1048,-108 965,-108 965,-72 1048,-72 1048,-108"/>
<text text-anchor="middle" x="1006.5" y="-86.3" font-family="Times,serif" font-size="14.00">stdbool.h</text>
</a>
</g>
</g>
<!-- 2&#45;&gt;4 -->
<g id="edge6" class="edge">
<title>2&#45;&gt;4</title>
<g id="a_edge6"><a xlink:title="include">
<path fill="none" stroke="#1414ce" d="M1078.37,-503.74C1086.84,-477.25 1101.5,-424.79 1101.5,-379 1101.5,-379 1101.5,-379 1101.5,-233 1101.5,-185.01 1063.56,-140.96 1035.63,-115.04"/>
<polygon fill="#1414ce" stroke="#1414ce" points="1037.83,-112.31 1028.06,-108.22 1033.15,-117.52 1037.83,-112.31"/>
</a>
</g>
</g>
<!-- 2&#45;&gt;13 -->
<g id="edge7" class="edge">
<title>2&#45;&gt;13</title>
<g id="a_edge7"><a xlink:title="include">
<path fill="none" stroke="#1414ce" d="M1118.62,-511.3C1180.17,-495.34 1281.5,-457.19 1281.5,-379 1281.5,-379 1281.5,-379 1281.5,-161 1281.5,-144.66 1373.6,-147.16 1099.5,-72 991.13,-42.28 649.84,-25.9 524.91,-20.77"/>
<polygon fill="#1414ce" stroke="#1414ce" points="524.68,-17.26 514.55,-20.36 524.4,-24.26 524.68,-17.26"/>
</a>
</g>
</g>
<!-- 16 -->
<g id="node3" class="node">
<title>16</title>
<g id="a_node3"><a xlink:title="erl_nif.h">
<polygon fill="#ffffff" stroke="black" points="311.5,-180 237.5,-180 237.5,-144 311.5,-144 311.5,-180"/>
<text text-anchor="middle" x="274.5" y="-158.3" font-family="Times,serif" font-size="14.00">erl_nif.h</text>
</a>
</g>
</g>
<!-- 17 -->
<g id="node15" class="node">
<title>17</title>
<g id="a_node15"><a xlink:title="term_typedef.h">
<polygon fill="#ffffff" stroke="black" points="143,-108 18,-108 18,-72 143,-72 143,-108"/>
<text text-anchor="middle" x="80.5" y="-86.3" font-family="Times,serif" font-size="14.00">term_typedef.h</text>
</a>
</g>
</g>
<!-- 16&#45;&gt;17 -->
<g id="edge8" class="edge">
<title>16&#45;&gt;17</title>
<g id="a_edge8"><a xlink:title="include">
<path fill="none" stroke="#1414ce" d="M237.09,-147.5C208.86,-137.31 169.62,-123.16 137.48,-111.56"/>
<polygon fill="#1414ce" stroke="#1414ce" points="138.35,-108.15 127.76,-108.05 135.97,-114.74 138.35,-108.15"/>
</a>
</g>
</g>
<!-- 27 -->
<g id="node4" class="node">
<title>27</title>
<g id="a_node4"><a xlink:title="exportedfunction.h">
<polygon fill="#ffffff" stroke="black" points="646.5,-540 494.5,-540 494.5,-504 646.5,-504 646.5,-540"/>
<text text-anchor="middle" x="570.5" y="-518.3" font-family="Times,serif" font-size="14.00">exportedfunction.h</text>
</a>
</g>
</g>
<!-- 27&#45;&gt;11 -->
<g id="edge9" class="edge">
<title>27&#45;&gt;11</title>
<g id="a_edge9"><a xlink:title="include">
<path fill="none" stroke="#1414ce" d="M570.5,-503.7C570.5,-495.98 570.5,-486.71 570.5,-478.11"/>
<polygon fill="#1414ce" stroke="#1414ce" points="574,-478.1 570.5,-468.1 567,-478.1 574,-478.1"/>
</a>
</g>
</g>
<!-- 6 -->
<g id="node17" class="node">
<title>6</title>
<g id="a_node17"><a xlink:title="utils.h">
<polygon fill="#ffffff" stroke="black" points="733.5,-180 671.5,-180 671.5,-144 733.5,-144 733.5,-180"/>
<text text-anchor="middle" x="702.5" y="-158.3" font-family="Times,serif" font-size="14.00">utils.h</text>
</a>
</g>
</g>
<!-- 3&#45;&gt;6 -->
<g id="edge12" class="edge">
<title>3&#45;&gt;6</title>
<g id="a_edge12"><a xlink:title="include">
<path fill="none" stroke="#1414ce" d="M1026.87,-359.88C1027.47,-339.67 1025.07,-306.49 1005.5,-288 934.44,-220.86 875.06,-297.45 788.5,-252 780.73,-247.92 747.87,-212.82 725.1,-187.94"/>
<polygon fill="#1414ce" stroke="#1414ce" points="727.43,-185.3 718.1,-180.28 722.26,-190.02 727.43,-185.3"/>
</a>
</g>
</g>
<!-- 3&#45;&gt;4 -->
<g id="edge10" class="edge">
<title>3&#45;&gt;4</title>
<g id="a_edge10"><a xlink:title="include">
<path fill="none" stroke="#1414ce" d="M1030.34,-359.91C1040.6,-320.8 1061.83,-222.12 1039.5,-144 1036.79,-134.51 1031.83,-125.06 1026.57,-116.83"/>
<polygon fill="#1414ce" stroke="#1414ce" points="1029.36,-114.72 1020.83,-108.43 1023.58,-118.67 1029.36,-114.72"/>
</a>
</g>
</g>
<!-- 5 -->
<g id="node26" class="node">
<title>5</title>
<g id="a_node26"><a xlink:title="string.h">
<polygon fill="#ffffff" stroke="black" points="997,-324 924,-324 924,-288 997,-288 997,-324"/>
<text text-anchor="middle" x="960.5" y="-302.3" font-family="Times,serif" font-size="14.00">string.h</text>
</a>
</g>
</g>
<!-- 3&#45;&gt;5 -->
<g id="edge11" class="edge">
<title>3&#45;&gt;5</title>
<g id="a_edge11"><a xlink:title="include">
<path fill="none" stroke="#1414ce" d="M1009.43,-359.7C1001.56,-351.22 991.94,-340.86 983.33,-331.58"/>
<polygon fill="#1414ce" stroke="#1414ce" points="985.75,-329.05 976.38,-324.1 980.62,-333.81 985.75,-329.05"/>
</a>
</g>
</g>
<!-- 1 -->
<g id="node6" class="node">
<title>1</title>
<g id="a_node6"><a xlink:title="/__w/AtomVM/AtomVM/src/libAtomVM/jit.h">
<polygon fill="#bfbfbf" stroke="black" points="835.5,-612 513.5,-612 513.5,-576 835.5,-576 835.5,-612"/>
<text text-anchor="middle" x="674.5" y="-590.3" font-family="Times,serif" font-size="14.00">/__w/AtomVM/AtomVM/src/libAtomVM/jit.h</text>
</a>
</g>
</g>
<!-- 1&#45;&gt;2 -->
<g id="edge13" class="edge">
<title>1&#45;&gt;2</title>
<g id="a_edge13"><a xlink:title="include">
<path fill="none" stroke="#1414ce" d="M771.35,-575.97C848.08,-562.47 952.59,-544.09 1016.16,-532.91"/>
<polygon fill="#1414ce" stroke="#1414ce" points="1017.14,-536.29 1026.38,-531.11 1015.93,-529.4 1017.14,-536.29"/>
</a>
</g>
</g>
<!-- 1&#45;&gt;27 -->
<g id="edge14" class="edge">
<title>1&#45;&gt;27</title>
<g id="a_edge14"><a xlink:title="include">
<path fill="none" stroke="#1414ce" d="M649.06,-575.88C635.71,-566.89 619.18,-555.76 604.72,-546.03"/>
<polygon fill="#1414ce" stroke="#1414ce" points="606.29,-542.87 596.04,-540.19 602.38,-548.68 606.29,-542.87"/>
</a>
</g>
</g>
<!-- 1&#45;&gt;11 -->
<g id="edge15" class="edge">
<title>1&#45;&gt;11</title>
<g id="a_edge15"><a xlink:title="include">
<path fill="none" stroke="#1414ce" d="M674.69,-575.7C674.08,-556.52 670.56,-525.47 655.5,-504 644.81,-488.77 628.21,-477.01 612.5,-468.48"/>
<polygon fill="#1414ce" stroke="#1414ce" points="613.91,-465.27 603.41,-463.83 610.72,-471.5 613.91,-465.27"/>
</a>
</g>
</g>
<!-- 1&#45;&gt;17 -->
<g id="edge16" class="edge">
<title>1&#45;&gt;17</title>
<g id="a_edge16"><a xlink:title="include">
<path fill="none" stroke="#1414ce" d="M513.44,-587.13C331.82,-576.01 61.5,-543.86 61.5,-451 61.5,-451 61.5,-451 61.5,-233 61.5,-192.86 69.05,-146.9 74.63,-118.4"/>
<polygon fill="#1414ce" stroke="#1414ce" points="78.11,-118.88 76.66,-108.39 71.24,-117.5 78.11,-118.88"/>
</a>
</g>
</g>
<!-- 1&#45;&gt;4 -->
<g id="edge17" class="edge">
<title>1&#45;&gt;4</title>
<g id="a_edge17"><a xlink:title="include">
<path fill="none" stroke="#1414ce" d="M835.59,-583.21C943.84,-574.91 1075.82,-560.97 1127.5,-540 1187.71,-515.57 1243.5,-515.98 1243.5,-451 1243.5,-451 1243.5,-451 1243.5,-233 1243.5,-192.55 1252.69,-173 1224.5,-144 1201.7,-120.55 1115.02,-105.06 1058.07,-97.18"/>
<polygon fill="#1414ce" stroke="#1414ce" points="1058.53,-93.71 1048.15,-95.84 1057.59,-100.65 1058.53,-93.71"/>
</a>
</g>
</g>
<!-- 21 -->
<g id="node7" class="node">
<title>21</title>
<g id="a_node7"><a xlink:title="list.h">
<polygon fill="#ffffff" stroke="black" points="959.5,-180 905.5,-180 905.5,-144 959.5,-144 959.5,-180"/>
<text text-anchor="middle" x="932.5" y="-158.3" font-family="Times,serif" font-size="14.00">list.h</text>
</a>
</g>
</g>
<!-- 21&#45;&gt;4 -->
<g id="edge18" class="edge">
<title>21&#45;&gt;4</title>
<g id="a_edge18"><a xlink:title="include">
<path fill="none" stroke="#1414ce" d="M950.79,-143.7C959.93,-135.05 971.14,-124.45 981.1,-115.03"/>
<polygon fill="#1414ce" stroke="#1414ce" points="983.56,-117.52 988.42,-108.1 978.75,-112.43 983.56,-117.52"/>
</a>
</g>
</g>
<!-- 23 -->
<g id="node8" class="node">
<title>23</title>
<g id="a_node8"><a xlink:title="mailbox.h">
<polygon fill="#ffffff" stroke="black" points="741.5,-252 655.5,-252 655.5,-216 741.5,-216 741.5,-252"/>
<text text-anchor="middle" x="698.5" y="-230.3" font-family="Times,serif" font-size="14.00">mailbox.h</text>
</a>
</g>
</g>
<!-- 23&#45;&gt;21 -->
<g id="edge20" class="edge">
<title>23&#45;&gt;21</title>
<g id="a_edge20"><a xlink:title="include">
<path fill="none" stroke="#1414ce" d="M741.67,-223.8C780.12,-215.09 837.89,-200.72 895.57,-180.03"/>
<polygon fill="#1414ce" stroke="#1414ce" points="897.01,-183.23 905.2,-176.51 894.61,-176.65 897.01,-183.23"/>
</a>
</g>
</g>
<!-- 23&#45;&gt;17 -->
<g id="edge21" class="edge">
<title>23&#45;&gt;17</title>
<g id="a_edge21"><a xlink:title="include">
<path fill="none" stroke="#1414ce" d="M655.26,-220.78C590.58,-202.73 464.67,-168.43 356.5,-144 287.95,-128.52 209.17,-113.68 153.37,-103.66"/>
<polygon fill="#1414ce" stroke="#1414ce" points="153.68,-100.16 143.22,-101.85 152.45,-107.05 153.68,-100.16"/>
</a>
</g>
</g>
<!-- 23&#45;&gt;6 -->
<g id="edge22" class="edge">
<title>23&#45;&gt;6</title>
<g id="a_edge22"><a xlink:title="include">
<path fill="none" stroke="#1414ce" d="M699.49,-215.7C699.93,-207.98 700.46,-198.71 700.95,-190.11"/>
<polygon fill="#1414ce" stroke="#1414ce" points="704.45,-190.29 701.52,-180.1 697.46,-189.89 704.45,-190.29"/>
</a>
</g>
</g>
<!-- 23&#45;&gt;4 -->
<g id="edge19" class="edge">
<title>23&#45;&gt;4</title>
<g id="a_edge19"><a xlink:title="include">
<path fill="none" stroke="#1414ce" d="M717.02,-215.84C739.46,-195.92 779.15,-163.32 818.5,-144 862.23,-122.53 916.08,-108.46 954.93,-100.26"/>
<polygon fill="#1414ce" stroke="#1414ce" points="955.87,-103.63 964.96,-98.19 954.47,-96.78 955.87,-103.63"/>
</a>
</g>
</g>
<!-- 15 -->
<g id="node9" class="node">
<title>15</title>
<g id="a_node9"><a xlink:title="memory.h">
<polygon fill="#ffffff" stroke="black" points="447.5,-252 361.5,-252 361.5,-216 447.5,-216 447.5,-252"/>
<text text-anchor="middle" x="404.5" y="-230.3" font-family="Times,serif" font-size="14.00">memory.h</text>
</a>
</g>
</g>
<!-- 15&#45;&gt;16 -->
<g id="edge25" class="edge">
<title>15&#45;&gt;16</title>
<g id="a_edge25"><a xlink:title="include">
<path fill="none" stroke="#1414ce" d="M372.7,-215.88C355.39,-206.55 333.78,-194.92 315.24,-184.94"/>
<polygon fill="#1414ce" stroke="#1414ce" points="316.89,-181.85 306.42,-180.19 313.57,-188.01 316.89,-181.85"/>
</a>
</g>
</g>
<!-- 15&#45;&gt;17 -->
<g id="edge26" class="edge">
<title>15&#45;&gt;17</title>
<g id="a_edge26"><a xlink:title="include">
<path fill="none" stroke="#1414ce" d="M393.07,-215.65C378.65,-195.22 351.92,-161.82 320.5,-144 269.02,-114.81 202.87,-101.69 153.07,-95.8"/>
<polygon fill="#1414ce" stroke="#1414ce" points="153.34,-92.31 143.02,-94.68 152.57,-99.26 153.34,-92.31"/>
</a>
</g>
</g>
<!-- 15&#45;&gt;6 -->
<g id="edge27" class="edge">
<title>15&#45;&gt;6</title>
<g id="a_edge27"><a xlink:title="include">
<path fill="none" stroke="#1414ce" d="M447.51,-222.9C504.72,-209.46 605.14,-185.87 661.37,-172.66"/>
<polygon fill="#1414ce" stroke="#1414ce" points="662.41,-176.01 671.34,-170.32 660.8,-169.2 662.41,-176.01"/>
</a>
</g>
</g>
<!-- 15&#45;&gt;13 -->
<g id="edge23" class="edge">
<title>15&#45;&gt;13</title>
<g id="a_edge23"><a xlink:title="include">
<path fill="none" stroke="#1414ce" d="M424.43,-215.98C448.54,-193.94 487.85,-152.97 503.5,-108 510.71,-87.28 503.09,-63.31 494.43,-45.47"/>
<polygon fill="#1414ce" stroke="#1414ce" points="497.34,-43.49 489.59,-36.25 491.14,-46.74 497.34,-43.49"/>
</a>
</g>
</g>
<!-- 15&#45;&gt;10 -->
<g id="edge24" class="edge">
<title>15&#45;&gt;10</title>
<g id="a_edge24"><a xlink:title="include">
<path fill="none" stroke="#1414ce" d="M411.13,-215.87C420.59,-191.46 438.03,-146.43 449.18,-117.64"/>
<polygon fill="#1414ce" stroke="#1414ce" points="452.49,-118.78 452.84,-108.19 445.97,-116.25 452.49,-118.78"/>
</a>
</g>
</g>
<!-- 20 -->
<g id="node10" class="node">
<title>20</title>
<g id="a_node10"><a xlink:title="refc_binary.h">
<polygon fill="#ffffff" stroke="black" points="759.5,-396 651.5,-396 651.5,-360 759.5,-360 759.5,-396"/>
<text text-anchor="middle" x="705.5" y="-374.3" font-family="Times,serif" font-size="14.00">refc_binary.h</text>
</a>
</g>
</g>
<!-- 20&#45;&gt;21 -->
<g id="edge30" class="edge">
<title>20&#45;&gt;21</title>
<g id="a_edge30"><a xlink:title="include">
<path fill="none" stroke="#1414ce" d="M729.85,-359.96C756.99,-341.3 802.45,-310.97 843.5,-288 875.77,-269.94 896.43,-281.66 918.5,-252 931.59,-234.4 934.54,-209.37 934.53,-190.34"/>
<polygon fill="#1414ce" stroke="#1414ce" points="938.03,-190.09 934.25,-180.19 931.03,-190.29 938.03,-190.09"/>
</a>
</g>
</g>
<!-- 22 -->
<g id="node11" class="node">
<title>22</title>
<g id="a_node11"><a xlink:title="resources.h">
<polygon fill="#ffffff" stroke="black" points="755.5,-324 655.5,-324 655.5,-288 755.5,-288 755.5,-324"/>
<text text-anchor="middle" x="705.5" y="-302.3" font-family="Times,serif" font-size="14.00">resources.h</text>
</a>
</g>
</g>
<!-- 20&#45;&gt;22 -->
<g id="edge31" class="edge">
<title>20&#45;&gt;22</title>
<g id="a_edge31"><a xlink:title="include">
<path fill="none" stroke="#1414ce" d="M705.5,-359.7C705.5,-351.98 705.5,-342.71 705.5,-334.11"/>
<polygon fill="#1414ce" stroke="#1414ce" points="709,-334.1 705.5,-324.1 702,-334.1 709,-334.1"/>
</a>
</g>
</g>
<!-- 20&#45;&gt;4 -->
<g id="edge28" class="edge">
<title>20&#45;&gt;4</title>
<g id="a_edge28"><a xlink:title="include">
<path fill="none" stroke="#1414ce" d="M751.31,-359.99C775.17,-350.5 804.5,-337.81 829.5,-324 854.1,-310.41 858,-303.42 881.5,-288 906.87,-271.36 919.84,-275.11 939.5,-252 973.54,-211.98 992.22,-152.23 1000.72,-117.89"/>
<polygon fill="#1414ce" stroke="#1414ce" points="1004.14,-118.64 1003.04,-108.1 997.33,-117.03 1004.14,-118.64"/>
</a>
</g>
</g>
<!-- 20&#45;&gt;10 -->
<g id="edge29" class="edge">
<title>20&#45;&gt;10</title>
<g id="a_edge29"><a xlink:title="include">
<path fill="none" stroke="#1414ce" d="M684.81,-359.87C673.13,-349.85 658.52,-336.7 646.5,-324 579.33,-252.99 509.73,-160.28 477.67,-116.28"/>
<polygon fill="#1414ce" stroke="#1414ce" points="480.47,-114.19 471.77,-108.16 474.81,-118.3 480.47,-114.19"/>
</a>
</g>
</g>
<!-- 22&#45;&gt;16 -->
<g id="edge33" class="edge">
<title>22&#45;&gt;16</title>
<g id="a_edge33"><a xlink:title="include">
<path fill="none" stroke="#1414ce" d="M655.17,-301.71C570.48,-295.46 403.69,-279.97 352.5,-252 325.64,-237.32 303.63,-209.6 289.92,-188.97"/>
<polygon fill="#1414ce" stroke="#1414ce" points="292.74,-186.88 284.39,-180.35 286.84,-190.65 292.74,-186.88"/>
</a>
</g>
</g>
<!-- 22&#45;&gt;21 -->
<g id="edge34" class="edge">
<title>22&#45;&gt;21</title>
<g id="a_edge34"><a xlink:title="include">
<path fill="none" stroke="#1414ce" d="M755.75,-295.6C803.54,-285.81 871.1,-269.48 891.5,-252 910.2,-235.98 920.86,-209.62 926.6,-189.73"/>
<polygon fill="#1414ce" stroke="#1414ce" points="930,-190.58 929.16,-180.01 923.23,-188.79 930,-190.58"/>
</a>
</g>
</g>
<!-- 22&#45;&gt;23 -->
<g id="edge35" class="edge">
<title>22&#45;&gt;23</title>
<g id="a_edge35"><a xlink:title="include">
<path fill="none" stroke="#1414ce" d="M703.77,-287.7C703,-279.98 702.07,-270.71 701.21,-262.11"/>
<polygon fill="#1414ce" stroke="#1414ce" points="704.69,-261.71 700.21,-252.1 697.72,-262.4 704.69,-261.71"/>
</a>
</g>
</g>
<!-- 22&#45;&gt;15 -->
<g id="edge36" class="edge">
<title>22&#45;&gt;15</title>
<g id="a_edge36"><a xlink:title="include">
<path fill="none" stroke="#1414ce" d="M655.46,-293.36C600.85,-280.66 513.77,-260.41 457.88,-247.41"/>
<polygon fill="#1414ce" stroke="#1414ce" points="458.35,-243.93 447.82,-245.07 456.77,-250.75 458.35,-243.93"/>
</a>
</g>
</g>
<!-- 24 -->
<g id="node13" class="node">
<title>24</title>
<g id="a_node13"><a xlink:title="synclist.h">
<polygon fill="#ffffff" stroke="black" points="883,-252 798,-252 798,-216 883,-216 883,-252"/>
<text text-anchor="middle" x="840.5" y="-230.3" font-family="Times,serif" font-size="14.00">synclist.h</text>
</a>
</g>
</g>
<!-- 22&#45;&gt;24 -->
<g id="edge37" class="edge">
<title>22&#45;&gt;24</title>
<g id="a_edge37"><a xlink:title="include">
<path fill="none" stroke="#1414ce" d="M738.52,-287.88C756.58,-278.51 779.15,-266.81 798.45,-256.8"/>
<polygon fill="#1414ce" stroke="#1414ce" points="800.08,-259.9 807.35,-252.19 796.86,-253.69 800.08,-259.9"/>
</a>
</g>
</g>
<!-- 22&#45;&gt;10 -->
<g id="edge32" class="edge">
<title>22&#45;&gt;10</title>
<g id="a_edge32"><a xlink:title="include">
<path fill="none" stroke="#1414ce" d="M683.57,-287.99C671.78,-278.22 657.46,-265.27 646.5,-252 610.82,-208.81 623.64,-180.92 581.5,-144 559.49,-124.72 529.39,-111.55 504.6,-103.15"/>
<polygon fill="#1414ce" stroke="#1414ce" points="505.62,-99.81 495.03,-100.06 503.47,-106.47 505.62,-99.81"/>
</a>
</g>
</g>
<!-- 25 -->
<g id="node12" class="node">
<title>25</title>
<g id="a_node12"><a xlink:title="smp.h">
<polygon fill="#ffffff" stroke="black" points="887.5,-180 827.5,-180 827.5,-144 887.5,-144 887.5,-180"/>
<text text-anchor="middle" x="857.5" y="-158.3" font-family="Times,serif" font-size="14.00">smp.h</text>
</a>
</g>
</g>
<!-- 25&#45;&gt;4 -->
<g id="edge38" class="edge">
<title>25&#45;&gt;4</title>
<g id="a_edge38"><a xlink:title="include">
<path fill="none" stroke="#1414ce" d="M887.65,-146.83C908.67,-136.96 937.1,-123.61 960.88,-112.43"/>
<polygon fill="#1414ce" stroke="#1414ce" points="962.51,-115.53 970.07,-108.11 959.54,-109.2 962.51,-115.53"/>
</a>
</g>
</g>
<!-- 24&#45;&gt;21 -->
<g id="edge40" class="edge">
<title>24&#45;&gt;21</title>
<g id="a_edge40"><a xlink:title="include">
<path fill="none" stroke="#1414ce" d="M863.24,-215.7C874.94,-206.8 889.36,-195.82 902.01,-186.2"/>
<polygon fill="#1414ce" stroke="#1414ce" points="904.18,-188.94 910.02,-180.1 899.94,-183.37 904.18,-188.94"/>
</a>
</g>
</g>
<!-- 24&#45;&gt;25 -->
<g id="edge41" class="edge">
<title>24&#45;&gt;25</title>
<g id="a_edge41"><a xlink:title="include">
<path fill="none" stroke="#1414ce" d="M844.7,-215.7C846.6,-207.9 848.88,-198.51 850.98,-189.83"/>
<polygon fill="#1414ce" stroke="#1414ce" points="854.39,-190.65 853.35,-180.1 847.58,-189 854.39,-190.65"/>
</a>
</g>
</g>
<!-- 9 -->
<g id="node24" class="node">
<title>9</title>
<g id="a_node24"><a xlink:title="stdio.h">
<polygon fill="#ffffff" stroke="black" points="676,-108 611,-108 611,-72 676,-72 676,-108"/>
<text text-anchor="middle" x="643.5" y="-86.3" font-family="Times,serif" font-size="14.00">stdio.h</text>
</a>
</g>
</g>
<!-- 24&#45;&gt;9 -->
<g id="edge39" class="edge">
<title>24&#45;&gt;9</title>
<g id="a_edge39"><a xlink:title="include">
<path fill="none" stroke="#1414ce" d="M824.24,-215.89C805.63,-196.89 773.67,-165.99 742.5,-144 724.73,-131.46 703.65,-119.79 685.51,-110.6"/>
<polygon fill="#1414ce" stroke="#1414ce" points="686.85,-107.36 676.33,-106.04 683.73,-113.63 686.85,-107.36"/>
</a>
</g>
</g>
<!-- 11&#45;&gt;14 -->
<g id="edge48" class="edge">
<title>11&#45;&gt;14</title>
<g id="a_edge48"><a xlink:title="include">
<path fill="none" stroke="#1414ce" d="M537.55,-439.27C495.48,-426.84 422.62,-405.32 376.3,-391.64"/>
<polygon fill="#1414ce" stroke="#1414ce" points="377.14,-388.24 366.56,-388.76 375.15,-394.95 377.14,-388.24"/>
</a>
</g>
</g>
<!-- 11&#45;&gt;3 -->
<g id="edge49" class="edge">
<title>11&#45;&gt;3</title>
<g id="a_edge49"><a xlink:title="include">
<path fill="none" stroke="#1414ce" d="M603.17,-445.97C670.59,-439.4 829.84,-422.3 961.5,-396 969.43,-394.42 977.83,-392.42 985.84,-390.36"/>
<polygon fill="#1414ce" stroke="#1414ce" points="986.96,-393.68 995.73,-387.74 985.16,-386.92 986.96,-393.68"/>
</a>
</g>
</g>
<!-- 11&#45;&gt;15 -->
<g id="edge50" class="edge">
<title>11&#45;&gt;15</title>
<g id="a_edge50"><a xlink:title="include">
<path fill="none" stroke="#1414ce" d="M537.76,-440.42C513.65,-432.54 481.69,-418.59 461.5,-396 427.12,-357.53 413.14,-296.98 407.72,-262.13"/>
<polygon fill="#1414ce" stroke="#1414ce" points="411.18,-261.6 406.29,-252.2 404.25,-262.59 411.18,-261.6"/>
</a>
</g>
</g>
<!-- 11&#45;&gt;20 -->
<g id="edge51" class="edge">
<title>11&#45;&gt;20</title>
<g id="a_edge51"><a xlink:title="include">
<path fill="none" stroke="#1414ce" d="M603.18,-432.05C621.37,-422.62 644.2,-410.78 663.68,-400.68"/>
<polygon fill="#1414ce" stroke="#1414ce" points="665.39,-403.74 672.65,-396.03 662.16,-397.53 665.39,-403.74"/>
</a>
</g>
</g>
<!-- 11&#45;&gt;17 -->
<g id="edge53" class="edge">
<title>11&#45;&gt;17</title>
<g id="a_edge53"><a xlink:title="include">
<path fill="none" stroke="#1414ce" d="M537.78,-447.34C439.12,-442.04 149.46,-424.19 118.5,-396 88.59,-368.77 99.5,-347.45 99.5,-307 99.5,-307 99.5,-307 99.5,-233 99.5,-192.86 91.95,-146.9 86.37,-118.4"/>
<polygon fill="#1414ce" stroke="#1414ce" points="89.76,-117.5 84.34,-108.39 82.89,-118.88 89.76,-117.5"/>
</a>
</g>
</g>
<!-- 11&#45;&gt;6 -->
<g id="edge52" class="edge">
<title>11&#45;&gt;6</title>
<g id="a_edge52"><a xlink:title="include">
<path fill="none" stroke="#1414ce" d="M573.08,-431.97C579.79,-391.71 600.55,-288.63 646.5,-216 653.32,-205.22 662.83,-195.12 672.07,-186.69"/>
<polygon fill="#1414ce" stroke="#1414ce" points="674.48,-189.23 679.71,-180.02 669.87,-183.96 674.48,-189.23"/>
</a>
</g>
</g>
<!-- 11&#45;&gt;4 -->
<g id="edge43" class="edge">
<title>11&#45;&gt;4</title>
<g id="a_edge43"><a xlink:title="include">
<path fill="none" stroke="#1414ce" d="M603.29,-443.93C643.6,-436.87 713.46,-421.94 768.5,-396 841.51,-361.59 849.99,-336.51 914.5,-288 936.68,-271.33 947.42,-273.04 965.5,-252 988.82,-224.87 992.31,-214.58 1001.5,-180 1006.89,-159.72 1007.98,-135.95 1007.8,-118.08"/>
<polygon fill="#1414ce" stroke="#1414ce" points="1011.3,-117.97 1007.57,-108.05 1004.3,-118.13 1011.3,-117.97"/>
</a>
</g>
</g>
<!-- 11&#45;&gt;13 -->
<g id="edge44" class="edge">
<title>11&#45;&gt;13</title>
<g id="a_edge44"><a xlink:title="include">
<path fill="none" stroke="#1414ce" d="M537.81,-449.16C483.37,-448.1 372.16,-440.15 291.5,-396 252.36,-374.57 171.5,-279.62 171.5,-235 171.5,-235 171.5,-235 171.5,-161 171.5,-114.96 187.02,-98.74 224.5,-72 257.24,-48.64 367.88,-32.08 431.82,-24.2"/>
<polygon fill="#1414ce" stroke="#1414ce" points="432.54,-27.64 442.04,-22.97 431.7,-20.69 432.54,-27.64"/>
</a>
</g>
</g>
<!-- 11&#45;&gt;9 -->
<g id="edge45" class="edge">
<title>11&#45;&gt;9</title>
<g id="a_edge45"><a xlink:title="include">
<path fill="none" stroke="#1414ce" d="M570.76,-431.84C571.24,-413.84 572.61,-384.78 576.5,-360 590.65,-269.86 620.59,-165.7 635.17,-117.72"/>
<polygon fill="#1414ce" stroke="#1414ce" points="638.54,-118.68 638.12,-108.09 631.84,-116.63 638.54,-118.68"/>
</a>
</g>
</g>
<!-- 11&#45;&gt;10 -->
<g id="edge46" class="edge">
<title>11&#45;&gt;10</title>
<g id="a_edge46"><a xlink:title="include">
<path fill="none" stroke="#1414ce" d="M565.15,-431.73C547.27,-374.08 489.54,-187.89 467.85,-117.92"/>
<polygon fill="#1414ce" stroke="#1414ce" points="471.1,-116.61 464.8,-108.09 464.42,-118.68 471.1,-116.61"/>
</a>
</g>
</g>
<!-- 11&#45;&gt;5 -->
<g id="edge47" class="edge">
<title>11&#45;&gt;5</title>
<g id="a_edge47"><a xlink:title="include">
<path fill="none" stroke="#1414ce" d="M603.05,-447.46C677.97,-443.36 860,-430.07 909.5,-396 930.96,-381.23 944.55,-354.28 952.25,-333.89"/>
<polygon fill="#1414ce" stroke="#1414ce" points="955.64,-334.8 955.66,-324.21 949.04,-332.48 955.64,-334.8"/>
</a>
</g>
</g>
<!-- 12 -->
<g id="node27" class="node">
<title>12</title>
<g id="a_node27"><a xlink:title="sys/types.h">
<polygon fill="#ffffff" stroke="black" points="225,-396 128,-396 128,-360 225,-360 225,-396"/>
<text text-anchor="middle" x="176.5" y="-374.3" font-family="Times,serif" font-size="14.00">sys/types.h</text>
</a>
</g>
</g>
<!-- 11&#45;&gt;12 -->
<g id="edge42" class="edge">
<title>11&#45;&gt;12</title>
<g id="a_edge42"><a xlink:title="include">
<path fill="none" stroke="#1414ce" d="M537.87,-444.93C478.26,-437.24 347.9,-419.24 239.5,-396 238.05,-395.69 236.58,-395.36 235.09,-395.03"/>
<polygon fill="#1414ce" stroke="#1414ce" points="235.75,-391.59 225.22,-392.69 234.14,-398.4 235.75,-391.59"/>
</a>
</g>
</g>
<!-- 18 -->
<g id="node18" class="node">
<title>18</title>
<g id="a_node18"><a xlink:title="assert.h">
<polygon fill="#ffffff" stroke="black" points="163.5,-36 89.5,-36 89.5,0 163.5,0 163.5,-36"/>
<text text-anchor="middle" x="126.5" y="-14.3" font-family="Times,serif" font-size="14.00">assert.h</text>
</a>
</g>
</g>
<!-- 17&#45;&gt;18 -->
<g id="edge54" class="edge">
<title>17&#45;&gt;18</title>
<g id="a_edge54"><a xlink:title="include">
<path fill="none" stroke="#1414ce" d="M91.87,-71.7C97.22,-63.56 103.7,-53.69 109.61,-44.7"/>
<polygon fill="#1414ce" stroke="#1414ce" points="112.69,-46.38 115.26,-36.1 106.84,-42.54 112.69,-46.38"/>
</a>
</g>
</g>
<!-- 7 -->
<g id="node19" class="node">
<title>7</title>
<g id="a_node19"><a xlink:title="inttypes.h">
<polygon fill="#ffffff" stroke="black" points="322,-36 233,-36 233,0 322,0 322,-36"/>
<text text-anchor="middle" x="277.5" y="-14.3" font-family="Times,serif" font-size="14.00">inttypes.h</text>
</a>
</g>
</g>
<!-- 17&#45;&gt;7 -->
<g id="edge56" class="edge">
<title>17&#45;&gt;7</title>
<g id="a_edge56"><a xlink:title="include">
<path fill="none" stroke="#1414ce" d="M128.44,-71.97C156.99,-61.82 193.31,-48.91 222.95,-38.38"/>
<polygon fill="#1414ce" stroke="#1414ce" points="224.48,-41.55 232.73,-34.91 222.13,-34.96 224.48,-41.55"/>
</a>
</g>
</g>
<!-- 19 -->
<g id="node20" class="node">
<title>19</title>
<g id="a_node20"><a xlink:title="limits.h">
<polygon fill="#ffffff" stroke="black" points="71,-36 0,-36 0,0 71,0 71,-36"/>
<text text-anchor="middle" x="35.5" y="-14.3" font-family="Times,serif" font-size="14.00">limits.h</text>
</a>
</g>
</g>
<!-- 17&#45;&gt;19 -->
<g id="edge55" class="edge">
<title>17&#45;&gt;19</title>
<g id="a_edge55"><a xlink:title="include">
<path fill="none" stroke="#1414ce" d="M69.38,-71.7C64.14,-63.56 57.8,-53.69 52.02,-44.7"/>
<polygon fill="#1414ce" stroke="#1414ce" points="54.85,-42.62 46.5,-36.1 48.96,-46.41 54.85,-42.62"/>
</a>
</g>
</g>
<!-- 17&#45;&gt;13 -->
<g id="edge57" class="edge">
<title>17&#45;&gt;13</title>
<g id="a_edge57"><a xlink:title="include">
<path fill="none" stroke="#1414ce" d="M143.06,-74.89C147.94,-73.88 152.8,-72.91 157.5,-72 254.96,-53.21 369.86,-35.24 432.35,-25.82"/>
<polygon fill="#1414ce" stroke="#1414ce" points="432.91,-29.28 442.28,-24.33 431.87,-22.36 432.91,-29.28"/>
</a>
</g>
</g>
<!-- 26&#45;&gt;4 -->
<g id="edge58" class="edge">
<title>26&#45;&gt;4</title>
<g id="a_edge58"><a xlink:title="include">
<path fill="none" stroke="#1414ce" d="M1131.89,-143.88C1109.1,-134.26 1080.47,-122.19 1056.33,-112.01"/>
<polygon fill="#1414ce" stroke="#1414ce" points="1057.55,-108.73 1046.98,-108.07 1054.83,-115.18 1057.55,-108.73"/>
</a>
</g>
</g>
<!-- 8 -->
<g id="node22" class="node">
<title>8</title>
<g id="a_node22"><a xlink:title="stddef.h">
<polygon fill="#ffffff" stroke="black" points="886.5,-108 812.5,-108 812.5,-72 886.5,-72 886.5,-108"/>
<text text-anchor="middle" x="849.5" y="-86.3" font-family="Times,serif" font-size="14.00">stddef.h</text>
</a>
</g>
</g>
<!-- 26&#45;&gt;8 -->
<g id="edge59" class="edge">
<title>26&#45;&gt;8</title>
<g id="a_edge59"><a xlink:title="include">
<path fill="none" stroke="#1414ce" d="M1129.27,-151.63C1068.86,-138.54 959.57,-114.85 896.96,-101.29"/>
<polygon fill="#1414ce" stroke="#1414ce" points="897.47,-97.82 886.96,-99.12 895.99,-104.66 897.47,-97.82"/>
</a>
</g>
</g>
<!-- 26&#45;&gt;13 -->
<g id="edge60" class="edge">
<title>26&#45;&gt;13</title>
<g id="a_edge60"><a xlink:title="include">
<path fill="none" stroke="#1414ce" d="M1156.36,-143.68C1135.55,-122.62 1097.16,-87.91 1056.5,-72 959.83,-34.18 644.38,-22.91 524.92,-19.95"/>
<polygon fill="#1414ce" stroke="#1414ce" points="524.73,-16.44 514.65,-19.7 524.56,-23.44 524.73,-16.44"/>
</a>
</g>
</g>
<!-- 6&#45;&gt;7 -->
<g id="edge61" class="edge">
<title>6&#45;&gt;7</title>
<g id="a_edge61"><a xlink:title="include">
<path fill="none" stroke="#1414ce" d="M704.41,-143.8C705.61,-123.53 704.1,-90.27 684.5,-72 678.1,-66.04 441.94,-38.02 332.34,-25.31"/>
<polygon fill="#1414ce" stroke="#1414ce" points="332.48,-21.8 322.15,-24.13 331.68,-28.75 332.48,-21.8"/>
</a>
</g>
</g>
<!-- 6&#45;&gt;4 -->
<g id="edge62" class="edge">
<title>6&#45;&gt;4</title>
<g id="a_edge62"><a xlink:title="include">
<path fill="none" stroke="#1414ce" d="M733.6,-153.84C785.82,-141.81 891.59,-117.46 955.03,-102.85"/>
<polygon fill="#1414ce" stroke="#1414ce" points="955.87,-106.25 964.83,-100.6 954.3,-99.43 955.87,-106.25"/>
</a>
</g>
</g>
<!-- 6&#45;&gt;8 -->
<g id="edge63" class="edge">
<title>6&#45;&gt;8</title>
<g id="a_edge63"><a xlink:title="include">
<path fill="none" stroke="#1414ce" d="M733.67,-146.15C754.27,-136.35 781.58,-123.34 804.52,-112.42"/>
<polygon fill="#1414ce" stroke="#1414ce" points="806.19,-115.5 813.72,-108.04 803.18,-109.18 806.19,-115.5"/>
</a>
</g>
</g>
<!-- 6&#45;&gt;9 -->
<g id="edge64" class="edge">
<title>6&#45;&gt;9</title>
<g id="a_edge64"><a xlink:title="include">
<path fill="none" stroke="#1414ce" d="M687.92,-143.7C680.84,-135.3 672.22,-125.07 664.45,-115.86"/>
<polygon fill="#1414ce" stroke="#1414ce" points="667.04,-113.49 657.92,-108.1 661.69,-118.01 667.04,-113.49"/>
</a>
</g>
</g>
<!-- 6&#45;&gt;10 -->
<g id="edge65" class="edge">
<title>6&#45;&gt;10</title>
<g id="a_edge65"><a xlink:title="include">
<path fill="none" stroke="#1414ce" d="M671.23,-151.99C629.02,-139.83 553.51,-118.08 505.01,-104.11"/>
<polygon fill="#1414ce" stroke="#1414ce" points="505.97,-100.74 495.39,-101.34 504.03,-107.47 505.97,-100.74"/>
</a>
</g>
</g>
</g>
</svg>
