<?xml version="1.0" encoding="UTF-8" standalone="no"?>
<!DOCTYPE svg PUBLIC "-//W3C//DTD SVG 1.1//EN"
 "http://www.w3.org/Graphics/SVG/1.1/DTD/svg11.dtd">
<!-- Generated by graphviz version 2.43.0 (0)
 -->
<!-- Title: %3 Pages: 1 -->
<svg width="1332pt" height="836pt"
 viewBox="0.00 0.00 1332.00 836.00" xmlns="http://www.w3.org/2000/svg" xmlns:xlink="http://www.w3.org/1999/xlink">
<g id="graph0" class="graph" transform="scale(1 1) rotate(0) translate(4 832)">
<title>%3</title>
<polygon fill="transparent" stroke="transparent" points="-4,4 -4,-832 1328,-832 1328,4 -4,4"/>
<!-- 8 -->
<g id="node1" class="node">
<title>8</title>
<g id="a_node1"><a xlink:title="stdbool.h">
<polygon fill="#ffffff" stroke="black" points="481.5,-108 398.5,-108 398.5,-72 481.5,-72 481.5,-108"/>
<text text-anchor="middle" x="440" y="-86.3" font-family="Times,serif" font-size="14.00">stdbool.h</text>
</a>
</g>
</g>
<!-- 25 -->
<g id="node2" class="node">
<title>25</title>
<g id="a_node2"><a xlink:title="refc_binary.h">
<polygon fill="#ffffff" stroke="black" points="764,-396 656,-396 656,-360 764,-360 764,-396"/>
<text text-anchor="middle" x="710" y="-374.3" font-family="Times,serif" font-size="14.00">refc_binary.h</text>
</a>
</g>
</g>
<!-- 25&#45;&gt;8 -->
<g id="edge1" class="edge">
<title>25&#45;&gt;8</title>
<g id="a_edge1"><a xlink:title="include">
<path fill="none" stroke="#1414ce" d="M761.11,-359.84C777.43,-351.67 793.66,-340.07 803,-324 843.19,-254.83 855.32,-204.52 803,-144 763.39,-98.19 582.31,-91.19 491.81,-90.62"/>
<polygon fill="#1414ce" stroke="#1414ce" points="491.77,-87.12 481.76,-90.58 491.75,-94.12 491.77,-87.12"/>
</a>
</g>
</g>
<!-- 15 -->
<g id="node8" class="node">
<title>15</title>
<g id="a_node8"><a xlink:title="list.h">
<polygon fill="#ffffff" stroke="black" points="467,-180 413,-180 413,-144 467,-144 467,-180"/>
<text text-anchor="middle" x="440" y="-158.3" font-family="Times,serif" font-size="14.00">list.h</text>
</a>
</g>
</g>
<!-- 25&#45;&gt;15 -->
<g id="edge3" class="edge">
<title>25&#45;&gt;15</title>
<g id="a_edge3"><a xlink:title="include">
<path fill="none" stroke="#1414ce" d="M689.72,-359.88C661.63,-336.05 609.4,-291.36 566,-252 548.77,-236.37 546.52,-230.08 528,-216 511.71,-203.61 492.34,-191.68 475.93,-182.28"/>
<polygon fill="#1414ce" stroke="#1414ce" points="477.58,-179.2 467.15,-177.34 474.15,-185.3 477.58,-179.2"/>
</a>
</g>
</g>
<!-- 6 -->
<g id="node10" class="node">
<title>6</title>
<g id="a_node10"><a xlink:title="stdlib.h">
<polygon fill="#ffffff" stroke="black" points="1207.5,-108 1136.5,-108 1136.5,-72 1207.5,-72 1207.5,-108"/>
<text text-anchor="middle" x="1172" y="-86.3" font-family="Times,serif" font-size="14.00">stdlib.h</text>
</a>
</g>
</g>
<!-- 25&#45;&gt;6 -->
<g id="edge2" class="edge">
<title>25&#45;&gt;6</title>
<g id="a_edge2"><a xlink:title="include">
<path fill="none" stroke="#1414ce" d="M764.14,-361.28C829.76,-341.04 942.52,-302.39 1031,-252 1076.12,-226.3 1089.35,-219.54 1123,-180 1139.06,-161.12 1152.25,-136.16 1160.89,-117.47"/>
<polygon fill="#1414ce" stroke="#1414ce" points="1164.08,-118.9 1164.98,-108.34 1157.69,-116.04 1164.08,-118.9"/>
</a>
</g>
</g>
<!-- 26 -->
<g id="node14" class="node">
<title>26</title>
<g id="a_node14"><a xlink:title="resources.h">
<polygon fill="#ffffff" stroke="black" points="794,-324 694,-324 694,-288 794,-288 794,-324"/>
<text text-anchor="middle" x="744" y="-302.3" font-family="Times,serif" font-size="14.00">resources.h</text>
</a>
</g>
</g>
<!-- 25&#45;&gt;26 -->
<g id="edge4" class="edge">
<title>25&#45;&gt;26</title>
<g id="a_edge4"><a xlink:title="include">
<path fill="none" stroke="#1414ce" d="M718.4,-359.7C722.27,-351.73 726.95,-342.1 731.24,-333.26"/>
<polygon fill="#1414ce" stroke="#1414ce" points="734.47,-334.63 735.69,-324.1 728.17,-331.57 734.47,-334.63"/>
</a>
</g>
</g>
<!-- 29 -->
<g id="node3" class="node">
<title>29</title>
<g id="a_node3"><a xlink:title="nifs.h">
<polygon fill="#ffffff" stroke="black" points="601,-756 545,-756 545,-720 601,-720 601,-756"/>
<text text-anchor="middle" x="573" y="-734.3" font-family="Times,serif" font-size="14.00">nifs.h</text>
</a>
</g>
</g>
<!-- 5 -->
<g id="node4" class="node">
<title>5</title>
<g id="a_node4"><a xlink:title="atom.h">
<polygon fill="#ffffff" stroke="black" points="1031,-468 965,-468 965,-432 1031,-432 1031,-468"/>
<text text-anchor="middle" x="998" y="-446.3" font-family="Times,serif" font-size="14.00">atom.h</text>
</a>
</g>
</g>
<!-- 29&#45;&gt;5 -->
<g id="edge5" class="edge">
<title>29&#45;&gt;5</title>
<g id="a_edge5"><a xlink:title="include">
<path fill="none" stroke="#1414ce" d="M601.21,-737.92C676.21,-738.69 881.46,-729.44 979,-612 1010.29,-574.33 1007.82,-513.49 1003.03,-478.38"/>
<polygon fill="#1414ce" stroke="#1414ce" points="1006.47,-477.72 1001.5,-468.36 999.55,-478.77 1006.47,-477.72"/>
</a>
</g>
</g>
<!-- 2 -->
<g id="node11" class="node">
<title>2</title>
<g id="a_node11"><a xlink:title="context.h">
<polygon fill="#ffffff" stroke="black" points="312.5,-684 229.5,-684 229.5,-648 312.5,-648 312.5,-684"/>
<text text-anchor="middle" x="271" y="-662.3" font-family="Times,serif" font-size="14.00">context.h</text>
</a>
</g>
</g>
<!-- 29&#45;&gt;2 -->
<g id="edge6" class="edge">
<title>29&#45;&gt;2</title>
<g id="a_edge6"><a xlink:title="include">
<path fill="none" stroke="#1414ce" d="M544.86,-730.48C494.13,-718.72 386.65,-693.81 322.46,-678.93"/>
<polygon fill="#1414ce" stroke="#1414ce" points="323.08,-675.48 312.54,-676.63 321.5,-682.3 323.08,-675.48"/>
</a>
</g>
</g>
<!-- 30 -->
<g id="node18" class="node">
<title>30</title>
<g id="a_node18"><a xlink:title="exportedfunction.h">
<polygon fill="#ffffff" stroke="black" points="970,-612 818,-612 818,-576 970,-576 970,-612"/>
<text text-anchor="middle" x="894" y="-590.3" font-family="Times,serif" font-size="14.00">exportedfunction.h</text>
</a>
</g>
</g>
<!-- 29&#45;&gt;30 -->
<g id="edge7" class="edge">
<title>29&#45;&gt;30</title>
<g id="a_edge7"><a xlink:title="include">
<path fill="none" stroke="#1414ce" d="M601.21,-724.52C656.22,-700.19 778.38,-646.15 846.23,-616.13"/>
<polygon fill="#1414ce" stroke="#1414ce" points="847.71,-619.31 855.44,-612.06 844.87,-612.9 847.71,-619.31"/>
</a>
</g>
</g>
<!-- 4 -->
<g id="node9" class="node">
<title>4</title>
<g id="a_node9"><a xlink:title="stdint.h">
<polygon fill="#ffffff" stroke="black" points="969,-36 897,-36 897,0 969,0 969,-36"/>
<text text-anchor="middle" x="933" y="-14.3" font-family="Times,serif" font-size="14.00">stdint.h</text>
</a>
</g>
</g>
<!-- 5&#45;&gt;4 -->
<g id="edge8" class="edge">
<title>5&#45;&gt;4</title>
<g id="a_edge8"><a xlink:title="include">
<path fill="none" stroke="#1414ce" d="M1031,-446.86C1098.22,-441.9 1247.95,-427.52 1287,-396 1320.33,-369.09 1324,-349.84 1324,-307 1324,-307 1324,-307 1324,-161 1324,-107.81 1290.58,-97.67 1244,-72 1199.22,-47.32 1054.32,-30.45 979.17,-23.12"/>
<polygon fill="#1414ce" stroke="#1414ce" points="979.33,-19.62 969.04,-22.15 978.66,-26.59 979.33,-19.62"/>
</a>
</g>
</g>
<!-- 5&#45;&gt;6 -->
<g id="edge9" class="edge">
<title>5&#45;&gt;6</title>
<g id="a_edge9"><a xlink:title="include">
<path fill="none" stroke="#1414ce" d="M1031.13,-446.63C1094.36,-441.45 1228.91,-427 1262,-396 1291.9,-367.99 1286,-347.97 1286,-307 1286,-307 1286,-307 1286,-233 1286,-182 1240.73,-138.88 1207.24,-113.97"/>
<polygon fill="#1414ce" stroke="#1414ce" points="1209.17,-111.05 1199.02,-108.04 1205.08,-116.73 1209.17,-111.05"/>
</a>
</g>
</g>
<!-- 11 -->
<g id="node5" class="node">
<title>11</title>
<g id="a_node5"><a xlink:title="assert.h">
<polygon fill="#ffffff" stroke="black" points="879,-36 805,-36 805,0 879,0 879,-36"/>
<text text-anchor="middle" x="842" y="-14.3" font-family="Times,serif" font-size="14.00">assert.h</text>
</a>
</g>
</g>
<!-- 23 -->
<g id="node6" class="node">
<title>23</title>
<g id="a_node6"><a xlink:title="utils.h">
<polygon fill="#ffffff" stroke="black" points="1029,-180 967,-180 967,-144 1029,-144 1029,-180"/>
<text text-anchor="middle" x="998" y="-158.3" font-family="Times,serif" font-size="14.00">utils.h</text>
</a>
</g>
</g>
<!-- 23&#45;&gt;6 -->
<g id="edge12" class="edge">
<title>23&#45;&gt;6</title>
<g id="a_edge12"><a xlink:title="include">
<path fill="none" stroke="#1414ce" d="M1029.11,-148.49C1056.27,-137.56 1096.05,-121.55 1126.74,-109.21"/>
<polygon fill="#1414ce" stroke="#1414ce" points="1128.39,-112.32 1136.36,-105.34 1125.78,-105.82 1128.39,-112.32"/>
</a>
</g>
</g>
<!-- 24 -->
<g id="node16" class="node">
<title>24</title>
<g id="a_node16"><a xlink:title="stddef.h">
<polygon fill="#ffffff" stroke="black" points="1035,-108 961,-108 961,-72 1035,-72 1035,-108"/>
<text text-anchor="middle" x="998" y="-86.3" font-family="Times,serif" font-size="14.00">stddef.h</text>
</a>
</g>
</g>
<!-- 23&#45;&gt;24 -->
<g id="edge10" class="edge">
<title>23&#45;&gt;24</title>
<g id="a_edge10"><a xlink:title="include">
<path fill="none" stroke="#1414ce" d="M998,-143.7C998,-135.98 998,-126.71 998,-118.11"/>
<polygon fill="#1414ce" stroke="#1414ce" points="1001.5,-118.1 998,-108.1 994.5,-118.1 1001.5,-118.1"/>
</a>
</g>
</g>
<!-- 17 -->
<g id="node28" class="node">
<title>17</title>
<g id="a_node28"><a xlink:title="stdio.h">
<polygon fill="#ffffff" stroke="black" points="1118.5,-108 1053.5,-108 1053.5,-72 1118.5,-72 1118.5,-108"/>
<text text-anchor="middle" x="1086" y="-86.3" font-family="Times,serif" font-size="14.00">stdio.h</text>
</a>
</g>
</g>
<!-- 23&#45;&gt;17 -->
<g id="edge11" class="edge">
<title>23&#45;&gt;17</title>
<g id="a_edge11"><a xlink:title="include">
<path fill="none" stroke="#1414ce" d="M1019.75,-143.7C1030.84,-134.88 1044.47,-124.03 1056.49,-114.47"/>
<polygon fill="#1414ce" stroke="#1414ce" points="1058.85,-117.07 1064.5,-108.1 1054.49,-111.59 1058.85,-117.07"/>
</a>
</g>
</g>
<!-- 16 -->
<g id="node7" class="node">
<title>16</title>
<g id="a_node7"><a xlink:title="synclist.h">
<polygon fill="#ffffff" stroke="black" points="447.5,-252 362.5,-252 362.5,-216 447.5,-216 447.5,-252"/>
<text text-anchor="middle" x="405" y="-230.3" font-family="Times,serif" font-size="14.00">synclist.h</text>
</a>
</g>
</g>
<!-- 16&#45;&gt;15 -->
<g id="edge14" class="edge">
<title>16&#45;&gt;15</title>
<g id="a_edge14"><a xlink:title="include">
<path fill="none" stroke="#1414ce" d="M413.65,-215.7C417.64,-207.73 422.45,-198.1 426.87,-189.26"/>
<polygon fill="#1414ce" stroke="#1414ce" points="430.11,-190.61 431.45,-180.1 423.85,-187.48 430.11,-190.61"/>
</a>
</g>
</g>
<!-- 18 -->
<g id="node25" class="node">
<title>18</title>
<g id="a_node25"><a xlink:title="smp.h">
<polygon fill="#ffffff" stroke="black" points="300,-180 240,-180 240,-144 300,-144 300,-180"/>
<text text-anchor="middle" x="270" y="-158.3" font-family="Times,serif" font-size="14.00">smp.h</text>
</a>
</g>
</g>
<!-- 16&#45;&gt;18 -->
<g id="edge15" class="edge">
<title>16&#45;&gt;18</title>
<g id="a_edge15"><a xlink:title="include">
<path fill="none" stroke="#1414ce" d="M371.98,-215.88C353.11,-206.09 329.33,-193.76 309.48,-183.47"/>
<polygon fill="#1414ce" stroke="#1414ce" points="310.86,-180.25 300.38,-178.75 307.64,-186.46 310.86,-180.25"/>
</a>
</g>
</g>
<!-- 16&#45;&gt;17 -->
<g id="edge13" class="edge">
<title>16&#45;&gt;17</title>
<g id="a_edge13"><a xlink:title="include">
<path fill="none" stroke="#1414ce" d="M447.99,-217.9C506.67,-197.88 615.48,-162.9 711,-144 853.89,-115.72 897.75,-143.05 1043.52,-107.67"/>
<polygon fill="#1414ce" stroke="#1414ce" points="1044.41,-111.05 1053.27,-105.25 1042.72,-104.26 1044.41,-111.05"/>
</a>
</g>
</g>
<!-- 15&#45;&gt;8 -->
<g id="edge16" class="edge">
<title>15&#45;&gt;8</title>
<g id="a_edge16"><a xlink:title="include">
<path fill="none" stroke="#1414ce" d="M440,-143.7C440,-135.98 440,-126.71 440,-118.11"/>
<polygon fill="#1414ce" stroke="#1414ce" points="443.5,-118.1 440,-108.1 436.5,-118.1 443.5,-118.1"/>
</a>
</g>
</g>
<!-- 2&#45;&gt;15 -->
<g id="edge18" class="edge">
<title>2&#45;&gt;15</title>
<g id="a_edge18"><a xlink:title="include">
<path fill="none" stroke="#1414ce" d="M248.54,-647.97C219.33,-623.71 172,-576.19 172,-523 172,-523 172,-523 172,-449 172,-339.94 170.03,-291.23 249,-216 290.8,-176.17 359.86,-165.79 402.48,-163.36"/>
<polygon fill="#1414ce" stroke="#1414ce" points="402.88,-166.84 412.72,-162.9 402.57,-159.85 402.88,-166.84"/>
</a>
</g>
</g>
<!-- 19 -->
<g id="node15" class="node">
<title>19</title>
<g id="a_node15"><a xlink:title="term.h">
<polygon fill="#ffffff" stroke="black" points="908.5,-468 843.5,-468 843.5,-432 908.5,-432 908.5,-468"/>
<text text-anchor="middle" x="876" y="-446.3" font-family="Times,serif" font-size="14.00">term.h</text>
</a>
</g>
</g>
<!-- 2&#45;&gt;19 -->
<g id="edge21" class="edge">
<title>2&#45;&gt;19</title>
<g id="a_edge21"><a xlink:title="include">
<path fill="none" stroke="#1414ce" d="M312.52,-658.56C395.51,-644.67 586.6,-607.56 734,-540 774.27,-521.54 816.86,-493.56 844.78,-473.91"/>
<polygon fill="#1414ce" stroke="#1414ce" points="846.83,-476.75 852.95,-468.1 842.77,-471.04 846.83,-476.75"/>
</a>
</g>
</g>
<!-- 3 -->
<g id="node24" class="node">
<title>3</title>
<g id="a_node24"><a xlink:title="globalcontext.h">
<polygon fill="#ffffff" stroke="black" points="492.5,-612 365.5,-612 365.5,-576 492.5,-576 492.5,-612"/>
<text text-anchor="middle" x="429" y="-590.3" font-family="Times,serif" font-size="14.00">globalcontext.h</text>
</a>
</g>
</g>
<!-- 2&#45;&gt;3 -->
<g id="edge17" class="edge">
<title>2&#45;&gt;3</title>
<g id="a_edge17"><a xlink:title="include">
<path fill="none" stroke="#1414ce" d="M309.65,-647.88C331.25,-638.31 358.35,-626.3 381.27,-616.15"/>
<polygon fill="#1414ce" stroke="#1414ce" points="382.75,-619.32 390.47,-612.07 379.91,-612.92 382.75,-619.32"/>
</a>
</g>
</g>
<!-- 2&#45;&gt;18 -->
<g id="edge20" class="edge">
<title>2&#45;&gt;18</title>
<g id="a_edge20"><a xlink:title="include">
<path fill="none" stroke="#1414ce" d="M229.25,-662C153.23,-654.02 0,-625.25 0,-523 0,-523 0,-523 0,-305 0,-202.44 154.48,-173.79 229.74,-165.92"/>
<polygon fill="#1414ce" stroke="#1414ce" points="230.2,-169.39 239.81,-164.94 229.52,-162.42 230.2,-169.39"/>
</a>
</g>
</g>
<!-- 28 -->
<g id="node26" class="node">
<title>28</title>
<g id="a_node26"><a xlink:title="timer_list.h">
<polygon fill="#ffffff" stroke="black" points="164,-252 66,-252 66,-216 164,-216 164,-252"/>
<text text-anchor="middle" x="115" y="-230.3" font-family="Times,serif" font-size="14.00">timer_list.h</text>
</a>
</g>
</g>
<!-- 2&#45;&gt;28 -->
<g id="edge22" class="edge">
<title>2&#45;&gt;28</title>
<g id="a_edge22"><a xlink:title="include">
<path fill="none" stroke="#1414ce" d="M229.48,-654.03C205.79,-645.88 177.1,-632.56 158,-612 129.18,-580.98 124,-565.34 124,-523 124,-523 124,-523 124,-377 124,-336.92 120.38,-290.59 117.74,-262.05"/>
<polygon fill="#1414ce" stroke="#1414ce" points="121.21,-261.65 116.78,-252.03 114.25,-262.31 121.21,-261.65"/>
</a>
</g>
</g>
<!-- 27 -->
<g id="node27" class="node">
<title>27</title>
<g id="a_node27"><a xlink:title="mailbox.h">
<polygon fill="#ffffff" stroke="black" points="344,-252 258,-252 258,-216 344,-216 344,-252"/>
<text text-anchor="middle" x="301" y="-230.3" font-family="Times,serif" font-size="14.00">mailbox.h</text>
</a>
</g>
</g>
<!-- 2&#45;&gt;27 -->
<g id="edge19" class="edge">
<title>2&#45;&gt;27</title>
<g id="a_edge19"><a xlink:title="include">
<path fill="none" stroke="#1414ce" d="M272.19,-647.88C276.79,-581.94 293.39,-344.06 299.07,-262.59"/>
<polygon fill="#1414ce" stroke="#1414ce" points="302.6,-262.39 299.8,-252.17 295.61,-261.9 302.6,-262.39"/>
</a>
</g>
</g>
<!-- 1 -->
<g id="node12" class="node">
<title>1</title>
<g id="a_node12"><a xlink:title="/__w/AtomVM/AtomVM/src/libAtomVM/portnifloader.h">
<polygon fill="#bfbfbf" stroke="black" points="628,-828 230,-828 230,-792 628,-792 628,-828"/>
<text text-anchor="middle" x="429" y="-806.3" font-family="Times,serif" font-size="14.00">/__w/AtomVM/AtomVM/src/libAtomVM/portnifloader.h</text>
</a>
</g>
</g>
<!-- 1&#45;&gt;29 -->
<g id="edge25" class="edge">
<title>1&#45;&gt;29</title>
<g id="a_edge25"><a xlink:title="include">
<path fill="none" stroke="#1414ce" d="M464.23,-791.88C485.94,-781.32 513.75,-767.8 535.81,-757.08"/>
<polygon fill="#1414ce" stroke="#1414ce" points="537.42,-760.19 544.88,-752.67 534.36,-753.89 537.42,-760.19"/>
</a>
</g>
</g>
<!-- 1&#45;&gt;2 -->
<g id="edge23" class="edge">
<title>1&#45;&gt;2</title>
<g id="a_edge23"><a xlink:title="include">
<path fill="none" stroke="#1414ce" d="M409.94,-791.87C381.95,-766.71 329.59,-719.65 297.75,-691.04"/>
<polygon fill="#1414ce" stroke="#1414ce" points="299.9,-688.27 290.13,-684.19 295.22,-693.48 299.9,-688.27"/>
</a>
</g>
</g>
<!-- 1&#45;&gt;3 -->
<g id="edge24" class="edge">
<title>1&#45;&gt;3</title>
<g id="a_edge24"><a xlink:title="include">
<path fill="none" stroke="#1414ce" d="M429,-791.85C429,-754.83 429,-667.18 429,-622.39"/>
<polygon fill="#1414ce" stroke="#1414ce" points="432.5,-622.23 429,-612.23 425.5,-622.23 432.5,-622.23"/>
</a>
</g>
</g>
<!-- 22 -->
<g id="node13" class="node">
<title>22</title>
<g id="a_node13"><a xlink:title="memory.h">
<polygon fill="#ffffff" stroke="black" points="979,-252 893,-252 893,-216 979,-216 979,-252"/>
<text text-anchor="middle" x="936" y="-230.3" font-family="Times,serif" font-size="14.00">memory.h</text>
</a>
</g>
</g>
<!-- 22&#45;&gt;23 -->
<g id="edge30" class="edge">
<title>22&#45;&gt;23</title>
<g id="a_edge30"><a xlink:title="include">
<path fill="none" stroke="#1414ce" d="M951.33,-215.7C958.76,-207.3 967.82,-197.07 975.98,-187.86"/>
<polygon fill="#1414ce" stroke="#1414ce" points="978.84,-189.91 982.85,-180.1 973.6,-185.27 978.84,-189.91"/>
</a>
</g>
</g>
<!-- 22&#45;&gt;4 -->
<g id="edge26" class="edge">
<title>22&#45;&gt;4</title>
<g id="a_edge26"><a xlink:title="include">
<path fill="none" stroke="#1414ce" d="M935.76,-215.85C935.24,-178.83 934.01,-91.18 933.38,-46.39"/>
<polygon fill="#1414ce" stroke="#1414ce" points="936.88,-46.18 933.24,-36.23 929.88,-46.28 936.88,-46.18"/>
</a>
</g>
</g>
<!-- 22&#45;&gt;6 -->
<g id="edge27" class="edge">
<title>22&#45;&gt;6</title>
<g id="a_edge27"><a xlink:title="include">
<path fill="none" stroke="#1414ce" d="M970.97,-216C990.89,-206.02 1016.17,-192.87 1038,-180 1073.6,-159.01 1112.82,-132.55 1139.58,-113.95"/>
<polygon fill="#1414ce" stroke="#1414ce" points="1141.61,-116.8 1147.81,-108.21 1137.6,-111.06 1141.61,-116.8"/>
</a>
</g>
</g>
<!-- 9 -->
<g id="node17" class="node">
<title>9</title>
<g id="a_node17"><a xlink:title="erl_nif.h">
<polygon fill="#ffffff" stroke="black" points="794,-180 720,-180 720,-144 794,-144 794,-180"/>
<text text-anchor="middle" x="757" y="-158.3" font-family="Times,serif" font-size="14.00">erl_nif.h</text>
</a>
</g>
</g>
<!-- 22&#45;&gt;9 -->
<g id="edge28" class="edge">
<title>22&#45;&gt;9</title>
<g id="a_edge28"><a xlink:title="include">
<path fill="none" stroke="#1414ce" d="M892.67,-216.05C865.74,-205.52 831.12,-191.99 803.6,-181.22"/>
<polygon fill="#1414ce" stroke="#1414ce" points="804.77,-177.92 794.18,-177.54 802.22,-184.44 804.77,-177.92"/>
</a>
</g>
</g>
<!-- 10 -->
<g id="node23" class="node">
<title>10</title>
<g id="a_node23"><a xlink:title="term_typedef.h">
<polygon fill="#ffffff" stroke="black" points="862.5,-108 737.5,-108 737.5,-72 862.5,-72 862.5,-108"/>
<text text-anchor="middle" x="800" y="-86.3" font-family="Times,serif" font-size="14.00">term_typedef.h</text>
</a>
</g>
</g>
<!-- 22&#45;&gt;10 -->
<g id="edge29" class="edge">
<title>22&#45;&gt;10</title>
<g id="a_edge29"><a xlink:title="include">
<path fill="none" stroke="#1414ce" d="M926.54,-215.98C915.51,-197.06 895.96,-166.25 874,-144 863,-132.85 849.42,-122.39 836.91,-113.76"/>
<polygon fill="#1414ce" stroke="#1414ce" points="838.72,-110.75 828.47,-108.08 834.82,-116.57 838.72,-110.75"/>
</a>
</g>
</g>
<!-- 26&#45;&gt;16 -->
<g id="edge36" class="edge">
<title>26&#45;&gt;16</title>
<g id="a_edge36"><a xlink:title="include">
<path fill="none" stroke="#1414ce" d="M693.98,-294.67C630.69,-281.6 522.19,-259.2 457.67,-245.88"/>
<polygon fill="#1414ce" stroke="#1414ce" points="458.21,-242.41 447.71,-243.82 456.79,-249.27 458.21,-242.41"/>
</a>
</g>
</g>
<!-- 26&#45;&gt;15 -->
<g id="edge33" class="edge">
<title>26&#45;&gt;15</title>
<g id="a_edge33"><a xlink:title="include">
<path fill="none" stroke="#1414ce" d="M711.5,-287.95C676.05,-269.54 617.48,-239.67 566,-216 536.3,-202.35 502.09,-188.05 476.82,-177.74"/>
<polygon fill="#1414ce" stroke="#1414ce" points="477.84,-174.38 467.26,-173.86 475.21,-180.87 477.84,-174.38"/>
</a>
</g>
</g>
<!-- 26&#45;&gt;6 -->
<g id="edge31" class="edge">
<title>26&#45;&gt;6</title>
<g id="a_edge31"><a xlink:title="include">
<path fill="none" stroke="#1414ce" d="M794.21,-300.65C845.05,-294.77 924.94,-281.4 988,-252 1057.74,-219.48 1120.98,-152.28 1151.95,-115.82"/>
<polygon fill="#1414ce" stroke="#1414ce" points="1154.68,-118.02 1158.41,-108.11 1149.31,-113.53 1154.68,-118.02"/>
</a>
</g>
</g>
<!-- 26&#45;&gt;22 -->
<g id="edge35" class="edge">
<title>26&#45;&gt;22</title>
<g id="a_edge35"><a xlink:title="include">
<path fill="none" stroke="#1414ce" d="M790.97,-287.88C818.9,-277.69 854.39,-264.75 883.28,-254.22"/>
<polygon fill="#1414ce" stroke="#1414ce" points="884.6,-257.46 892.8,-250.75 882.21,-250.89 884.6,-257.46"/>
</a>
</g>
</g>
<!-- 26&#45;&gt;9 -->
<g id="edge32" class="edge">
<title>26&#45;&gt;9</title>
<g id="a_edge32"><a xlink:title="include">
<path fill="none" stroke="#1414ce" d="M745.57,-287.87C747.78,-263.67 751.85,-219.21 754.49,-190.39"/>
<polygon fill="#1414ce" stroke="#1414ce" points="758,-190.47 755.43,-180.19 751.03,-189.83 758,-190.47"/>
</a>
</g>
</g>
<!-- 26&#45;&gt;27 -->
<g id="edge34" class="edge">
<title>26&#45;&gt;27</title>
<g id="a_edge34"><a xlink:title="include">
<path fill="none" stroke="#1414ce" d="M693.79,-301.13C620.77,-294.85 481.02,-280.42 354.14,-252.04"/>
<polygon fill="#1414ce" stroke="#1414ce" points="354.77,-248.59 344.25,-249.79 353.22,-255.42 354.77,-248.59"/>
</a>
</g>
</g>
<!-- 19&#45;&gt;8 -->
<g id="edge38" class="edge">
<title>19&#45;&gt;8</title>
<g id="a_edge38"><a xlink:title="include">
<path fill="none" stroke="#1414ce" d="M843.06,-446.25C785.74,-440.72 671.42,-426.11 647,-396 576.42,-309.01 711.3,-232.01 642,-144 623.51,-120.52 545.05,-105.3 491.53,-97.44"/>
<polygon fill="#1414ce" stroke="#1414ce" points="491.92,-93.96 481.52,-96.01 490.93,-100.89 491.92,-93.96"/>
</a>
</g>
</g>
<!-- 19&#45;&gt;25 -->
<g id="edge44" class="edge">
<title>19&#45;&gt;25</title>
<g id="a_edge44"><a xlink:title="include">
<path fill="none" stroke="#1414ce" d="M843.2,-435.17C819.37,-425.12 786.69,-411.34 759.66,-399.94"/>
<polygon fill="#1414ce" stroke="#1414ce" points="760.93,-396.68 750.36,-396.02 758.21,-403.13 760.93,-396.68"/>
</a>
</g>
</g>
<!-- 19&#45;&gt;23 -->
<g id="edge45" class="edge">
<title>19&#45;&gt;23</title>
<g id="a_edge45"><a xlink:title="include">
<path fill="none" stroke="#1414ce" d="M908.69,-442.82C950.95,-434.1 1020.92,-416.88 1036,-396 1081.57,-332.9 1038.61,-235.19 1013.4,-188.95"/>
<polygon fill="#1414ce" stroke="#1414ce" points="1016.41,-187.17 1008.48,-180.15 1010.31,-190.59 1016.41,-187.17"/>
</a>
</g>
</g>
<!-- 19&#45;&gt;4 -->
<g id="edge39" class="edge">
<title>19&#45;&gt;4</title>
<g id="a_edge39"><a xlink:title="include">
<path fill="none" stroke="#1414ce" d="M908.66,-441.89C923.15,-438.78 940.41,-435.13 956,-432 1094.4,-404.19 1248,-448.17 1248,-307 1248,-307 1248,-307 1248,-161 1248,-119.11 1248.76,-99.3 1217,-72 1181.97,-41.89 1050.33,-27.67 979.23,-22.06"/>
<polygon fill="#1414ce" stroke="#1414ce" points="979.44,-18.57 969.2,-21.3 978.91,-25.55 979.44,-18.57"/>
</a>
</g>
</g>
<!-- 19&#45;&gt;6 -->
<g id="edge41" class="edge">
<title>19&#45;&gt;6</title>
<g id="a_edge41"><a xlink:title="include">
<path fill="none" stroke="#1414ce" d="M908.72,-442.19C959.04,-431.46 1052.87,-410.36 1084,-396 1146.26,-367.28 1210,-375.56 1210,-307 1210,-307 1210,-307 1210,-233 1210,-191.63 1194.77,-145.72 1183.59,-117.61"/>
<polygon fill="#1414ce" stroke="#1414ce" points="1186.72,-116.02 1179.69,-108.09 1180.24,-118.67 1186.72,-116.02"/>
</a>
</g>
</g>
<!-- 19&#45;&gt;22 -->
<g id="edge43" class="edge">
<title>19&#45;&gt;22</title>
<g id="a_edge43"><a xlink:title="include">
<path fill="none" stroke="#1414ce" d="M908.76,-441.26C946.32,-431.65 1004.35,-414.28 1017,-396 1048.38,-350.68 998.21,-291.49 963.87,-258.98"/>
<polygon fill="#1414ce" stroke="#1414ce" points="966.11,-256.29 956.39,-252.08 961.37,-261.43 966.11,-256.29"/>
</a>
</g>
</g>
<!-- 20 -->
<g id="node21" class="node">
<title>20</title>
<g id="a_node21"><a xlink:title="sys/types.h">
<polygon fill="#ffffff" stroke="black" points="917.5,-396 820.5,-396 820.5,-360 917.5,-360 917.5,-396"/>
<text text-anchor="middle" x="869" y="-374.3" font-family="Times,serif" font-size="14.00">sys/types.h</text>
</a>
</g>
</g>
<!-- 19&#45;&gt;20 -->
<g id="edge37" class="edge">
<title>19&#45;&gt;20</title>
<g id="a_edge37"><a xlink:title="include">
<path fill="none" stroke="#1414ce" d="M874.27,-431.7C873.5,-423.98 872.57,-414.71 871.71,-406.11"/>
<polygon fill="#1414ce" stroke="#1414ce" points="875.19,-405.71 870.71,-396.1 868.22,-406.4 875.19,-405.71"/>
</a>
</g>
</g>
<!-- 21 -->
<g id="node22" class="node">
<title>21</title>
<g id="a_node22"><a xlink:title="string.h">
<polygon fill="#ffffff" stroke="black" points="1008.5,-396 935.5,-396 935.5,-360 1008.5,-360 1008.5,-396"/>
<text text-anchor="middle" x="972" y="-374.3" font-family="Times,serif" font-size="14.00">string.h</text>
</a>
</g>
</g>
<!-- 19&#45;&gt;21 -->
<g id="edge42" class="edge">
<title>19&#45;&gt;21</title>
<g id="a_edge42"><a xlink:title="include">
<path fill="none" stroke="#1414ce" d="M899.73,-431.7C911.94,-422.8 926.99,-411.82 940.18,-402.2"/>
<polygon fill="#1414ce" stroke="#1414ce" points="942.52,-404.82 948.54,-396.1 938.4,-399.17 942.52,-404.82"/>
</a>
</g>
</g>
<!-- 19&#45;&gt;10 -->
<g id="edge46" class="edge">
<title>19&#45;&gt;10</title>
<g id="a_edge46"><a xlink:title="include">
<path fill="none" stroke="#1414ce" d="M844.42,-431.78C831.55,-422.93 818.06,-410.86 811,-396 804.14,-381.55 807.68,-375.65 811,-360 814.63,-342.87 821.19,-340.52 827,-324 837.98,-292.78 841.74,-284.82 846,-252 848.06,-236.13 847.85,-231.89 846,-216 842.2,-183.34 840.78,-174.7 829,-144 825.51,-134.89 820.72,-125.41 816.05,-117.02"/>
<polygon fill="#1414ce" stroke="#1414ce" points="818.93,-115.01 810.89,-108.1 812.87,-118.51 818.93,-115.01"/>
</a>
</g>
</g>
<!-- 19&#45;&gt;17 -->
<g id="edge40" class="edge">
<title>19&#45;&gt;17</title>
<g id="a_edge40"><a xlink:title="include">
<path fill="none" stroke="#1414ce" d="M908.72,-441.48C958.37,-429.78 1048.02,-407.39 1058,-396 1127.61,-316.56 1106.05,-176.77 1092.9,-118.11"/>
<polygon fill="#1414ce" stroke="#1414ce" points="1096.25,-117.08 1090.56,-108.14 1089.43,-118.67 1096.25,-117.08"/>
</a>
</g>
</g>
<!-- 9&#45;&gt;10 -->
<g id="edge47" class="edge">
<title>9&#45;&gt;10</title>
<g id="a_edge47"><a xlink:title="include">
<path fill="none" stroke="#1414ce" d="M767.63,-143.7C772.63,-135.56 778.69,-125.69 784.21,-116.7"/>
<polygon fill="#1414ce" stroke="#1414ce" points="787.24,-118.46 789.49,-108.1 781.28,-114.79 787.24,-118.46"/>
</a>
</g>
</g>
<!-- 30&#45;&gt;19 -->
<g id="edge48" class="edge">
<title>30&#45;&gt;19</title>
<g id="a_edge48"><a xlink:title="include">
<path fill="none" stroke="#1414ce" d="M891.83,-575.87C888.76,-551.67 883.13,-507.21 879.47,-478.39"/>
<polygon fill="#1414ce" stroke="#1414ce" points="882.91,-477.67 878.18,-468.19 875.96,-478.55 882.91,-477.67"/>
</a>
</g>
</g>
<!-- 12 -->
<g id="node19" class="node">
<title>12</title>
<g id="a_node19"><a xlink:title="limits.h">
<polygon fill="#ffffff" stroke="black" points="679.5,-36 608.5,-36 608.5,0 679.5,0 679.5,-36"/>
<text text-anchor="middle" x="644" y="-14.3" font-family="Times,serif" font-size="14.00">limits.h</text>
</a>
</g>
</g>
<!-- 7 -->
<g id="node20" class="node">
<title>7</title>
<g id="a_node20"><a xlink:title="atom_table.h">
<polygon fill="#ffffff" stroke="black" points="689.5,-540 580.5,-540 580.5,-504 689.5,-504 689.5,-540"/>
<text text-anchor="middle" x="635" y="-518.3" font-family="Times,serif" font-size="14.00">atom_table.h</text>
</a>
</g>
</g>
<!-- 7&#45;&gt;8 -->
<g id="edge49" class="edge">
<title>7&#45;&gt;8</title>
<g id="a_edge49"><a xlink:title="include">
<path fill="none" stroke="#1414ce" d="M629.21,-503.89C610.51,-449.55 548.75,-276.66 476,-144 470.92,-134.73 464.65,-125.05 458.78,-116.53"/>
<polygon fill="#1414ce" stroke="#1414ce" points="461.49,-114.3 452.87,-108.14 455.76,-118.33 461.49,-114.3"/>
</a>
</g>
</g>
<!-- 7&#45;&gt;5 -->
<g id="edge50" class="edge">
<title>7&#45;&gt;5</title>
<g id="a_edge50"><a xlink:title="include">
<path fill="none" stroke="#1414ce" d="M689.65,-511.08C746.51,-500.68 838.09,-483.69 917,-468 929.33,-465.55 942.7,-462.79 954.95,-460.21"/>
<polygon fill="#1414ce" stroke="#1414ce" points="955.87,-463.6 964.93,-458.11 954.42,-456.75 955.87,-463.6"/>
</a>
</g>
</g>
<!-- 10&#45;&gt;11 -->
<g id="edge51" class="edge">
<title>10&#45;&gt;11</title>
<g id="a_edge51"><a xlink:title="include">
<path fill="none" stroke="#1414ce" d="M810.38,-71.7C815.26,-63.56 821.19,-53.69 826.58,-44.7"/>
<polygon fill="#1414ce" stroke="#1414ce" points="829.59,-46.48 831.74,-36.1 823.59,-42.88 829.59,-46.48"/>
</a>
</g>
</g>
<!-- 10&#45;&gt;4 -->
<g id="edge54" class="edge">
<title>10&#45;&gt;4</title>
<g id="a_edge54"><a xlink:title="include">
<path fill="none" stroke="#1414ce" d="M832.54,-71.88C850.25,-62.55 872.35,-50.92 891.32,-40.94"/>
<polygon fill="#1414ce" stroke="#1414ce" points="893.12,-43.94 900.34,-36.19 889.86,-37.75 893.12,-43.94"/>
</a>
</g>
</g>
<!-- 10&#45;&gt;12 -->
<g id="edge52" class="edge">
<title>10&#45;&gt;12</title>
<g id="a_edge52"><a xlink:title="include">
<path fill="none" stroke="#1414ce" d="M761.84,-71.88C739.8,-61.99 711.96,-49.49 688.87,-39.14"/>
<polygon fill="#1414ce" stroke="#1414ce" points="690.19,-35.89 679.63,-34.99 687.32,-42.27 690.19,-35.89"/>
</a>
</g>
</g>
<!-- 13 -->
<g id="node30" class="node">
<title>13</title>
<g id="a_node30"><a xlink:title="inttypes.h">
<polygon fill="#ffffff" stroke="black" points="786.5,-36 697.5,-36 697.5,0 786.5,0 786.5,-36"/>
<text text-anchor="middle" x="742" y="-14.3" font-family="Times,serif" font-size="14.00">inttypes.h</text>
</a>
</g>
</g>
<!-- 10&#45;&gt;13 -->
<g id="edge53" class="edge">
<title>10&#45;&gt;13</title>
<g id="a_edge53"><a xlink:title="include">
<path fill="none" stroke="#1414ce" d="M785.66,-71.7C778.71,-63.3 770.23,-53.07 762.6,-43.86"/>
<polygon fill="#1414ce" stroke="#1414ce" points="765.25,-41.57 756.17,-36.1 759.86,-46.04 765.25,-41.57"/>
</a>
</g>
</g>
<!-- 3&#45;&gt;5 -->
<g id="edge56" class="edge">
<title>3&#45;&gt;5</title>
<g id="a_edge56"><a xlink:title="include">
<path fill="none" stroke="#1414ce" d="M492.68,-584.83C554.8,-576.19 651.69,-560.89 734,-540 813.5,-519.82 903.51,-487.32 955.23,-467.68"/>
<polygon fill="#1414ce" stroke="#1414ce" points="956.64,-470.89 964.74,-464.05 954.15,-464.35 956.64,-470.89"/>
</a>
</g>
</g>
<!-- 3&#45;&gt;16 -->
<g id="edge63" class="edge">
<title>3&#45;&gt;16</title>
<g id="a_edge63"><a xlink:title="include">
<path fill="none" stroke="#1414ce" d="M423.13,-575.74C414.66,-549.25 400,-496.79 400,-451 400,-451 400,-451 400,-377 400,-336.97 402.01,-290.63 403.48,-262.07"/>
<polygon fill="#1414ce" stroke="#1414ce" points="406.98,-262.21 404.01,-252.04 399.99,-261.84 406.98,-262.21"/>
</a>
</g>
</g>
<!-- 3&#45;&gt;15 -->
<g id="edge60" class="edge">
<title>3&#45;&gt;15</title>
<g id="a_edge60"><a xlink:title="include">
<path fill="none" stroke="#1414ce" d="M457.24,-575.78C469.97,-566.64 484.1,-554.34 493,-540 514.43,-505.47 514,-491.64 514,-451 514,-451 514,-451 514,-305 514,-259.9 484.29,-214.94 462.52,-188.05"/>
<polygon fill="#1414ce" stroke="#1414ce" points="465.15,-185.74 456.06,-180.31 459.77,-190.23 465.15,-185.74"/>
</a>
</g>
</g>
<!-- 3&#45;&gt;4 -->
<g id="edge55" class="edge">
<title>3&#45;&gt;4</title>
<g id="a_edge55"><a xlink:title="include">
<path fill="none" stroke="#1414ce" d="M365.15,-578.47C337.82,-570.19 306.61,-557.82 282,-540 140.01,-437.16 -15.31,-375.71 57,-216 97.98,-125.49 135.27,-107.68 228,-72 362.14,-20.38 728.1,-64.33 886.79,-35.7"/>
<polygon fill="#1414ce" stroke="#1414ce" points="887.8,-39.07 896.94,-33.71 886.45,-32.2 887.8,-39.07"/>
</a>
</g>
</g>
<!-- 3&#45;&gt;19 -->
<g id="edge64" class="edge">
<title>3&#45;&gt;19</title>
<g id="a_edge64"><a xlink:title="include">
<path fill="none" stroke="#1414ce" d="M492.6,-589.23C548.9,-583.9 632.11,-571.03 698,-540 720.86,-529.23 720.21,-516.8 742,-504 771.01,-486.96 806.52,-473.19 833.69,-463.97"/>
<polygon fill="#1414ce" stroke="#1414ce" points="834.92,-467.25 843.3,-460.78 832.71,-460.61 834.92,-467.25"/>
</a>
</g>
</g>
<!-- 3&#45;&gt;9 -->
<g id="edge58" class="edge">
<title>3&#45;&gt;9</title>
<g id="a_edge58"><a xlink:title="include">
<path fill="none" stroke="#1414ce" d="M465.6,-575.82C482.29,-566.77 501.51,-554.53 516,-540 582.04,-473.78 574.73,-438.87 625,-360 664.74,-297.65 713.69,-225.82 739.37,-188.5"/>
<polygon fill="#1414ce" stroke="#1414ce" points="742.28,-190.44 745.08,-180.22 736.52,-186.47 742.28,-190.44"/>
</a>
</g>
</g>
<!-- 3&#45;&gt;7 -->
<g id="edge57" class="edge">
<title>3&#45;&gt;7</title>
<g id="a_edge57"><a xlink:title="include">
<path fill="none" stroke="#1414ce" d="M479.13,-575.97C508.04,-566.14 544.57,-553.73 575,-543.39"/>
<polygon fill="#1414ce" stroke="#1414ce" points="576.3,-546.64 584.65,-540.11 574.05,-540.01 576.3,-546.64"/>
</a>
</g>
</g>
<!-- 3&#45;&gt;18 -->
<g id="edge62" class="edge">
<title>3&#45;&gt;18</title>
<g id="a_edge62"><a xlink:title="include">
<path fill="none" stroke="#1414ce" d="M405.43,-575.89C393.59,-566.37 379.74,-553.69 370,-540 289.52,-426.87 276.43,-388.1 249,-252 245.84,-236.32 246,-231.72 249,-216 250.71,-207.06 253.9,-197.7 257.29,-189.37"/>
<polygon fill="#1414ce" stroke="#1414ce" points="260.51,-190.73 261.28,-180.17 254.09,-187.95 260.51,-190.73"/>
</a>
</g>
</g>
<!-- 3&#45;&gt;28 -->
<g id="edge65" class="edge">
<title>3&#45;&gt;28</title>
<g id="a_edge65"><a xlink:title="include">
<path fill="none" stroke="#1414ce" d="M368.4,-575.89C347.86,-567.7 326.07,-556.08 310,-540 272.87,-502.84 284.94,-479.25 262,-432 246.2,-399.45 244.47,-389.84 224,-360 198.28,-322.51 162.81,-283.71 139.41,-259.48"/>
<polygon fill="#1414ce" stroke="#1414ce" points="141.75,-256.87 132.27,-252.14 136.74,-261.75 141.75,-256.87"/>
</a>
</g>
</g>
<!-- 3&#45;&gt;27 -->
<g id="edge61" class="edge">
<title>3&#45;&gt;27</title>
<g id="a_edge61"><a xlink:title="include">
<path fill="none" stroke="#1414ce" d="M414.79,-575.86C395.12,-550.34 362,-500.07 362,-451 362,-451 362,-451 362,-377 362,-333.61 337.66,-288.37 319.73,-260.94"/>
<polygon fill="#1414ce" stroke="#1414ce" points="322.43,-258.68 313.94,-252.34 316.62,-262.59 322.43,-258.68"/>
</a>
</g>
</g>
<!-- 14 -->
<g id="node29" class="node">
<title>14</title>
<g id="a_node29"><a xlink:title="ets.h">
<polygon fill="#ffffff" stroke="black" points="484,-540 430,-540 430,-504 484,-504 484,-540"/>
<text text-anchor="middle" x="457" y="-518.3" font-family="Times,serif" font-size="14.00">ets.h</text>
</a>
</g>
</g>
<!-- 3&#45;&gt;14 -->
<g id="edge59" class="edge">
<title>3&#45;&gt;14</title>
<g id="a_edge59"><a xlink:title="include">
<path fill="none" stroke="#1414ce" d="M435.92,-575.7C439.07,-567.81 442.88,-558.3 446.38,-549.55"/>
<polygon fill="#1414ce" stroke="#1414ce" points="449.69,-550.69 450.16,-540.1 443.19,-548.09 449.69,-550.69"/>
</a>
</g>
</g>
<!-- 18&#45;&gt;8 -->
<g id="edge66" class="edge">
<title>18&#45;&gt;8</title>
<g id="a_edge66"><a xlink:title="include">
<path fill="none" stroke="#1414ce" d="M300,-148.65C324.58,-138.53 359.91,-123.98 388.93,-112.03"/>
<polygon fill="#1414ce" stroke="#1414ce" points="390.59,-115.13 398.5,-108.09 387.92,-108.66 390.59,-115.13"/>
</a>
</g>
</g>
<!-- 28&#45;&gt;8 -->
<g id="edge67" class="edge">
<title>28&#45;&gt;8</title>
<g id="a_edge67"><a xlink:title="include">
<path fill="none" stroke="#1414ce" d="M132.33,-215.99C153.76,-195.89 192.17,-162.82 231,-144 281.52,-119.51 344.58,-105.52 388.14,-98.14"/>
<polygon fill="#1414ce" stroke="#1414ce" points="388.93,-101.56 398.23,-96.49 387.8,-94.65 388.93,-101.56"/>
</a>
</g>
</g>
<!-- 28&#45;&gt;15 -->
<g id="edge69" class="edge">
<title>28&#45;&gt;15</title>
<g id="a_edge69"><a xlink:title="include">
<path fill="none" stroke="#1414ce" d="M164.1,-219.42C168.79,-218.23 173.48,-217.07 178,-216 257.66,-197.22 351.9,-179.16 402.83,-169.74"/>
<polygon fill="#1414ce" stroke="#1414ce" points="403.52,-173.18 412.72,-167.92 402.25,-166.29 403.52,-173.18"/>
</a>
</g>
</g>
<!-- 28&#45;&gt;4 -->
<g id="edge68" class="edge">
<title>28&#45;&gt;4</title>
<g id="a_edge68"><a xlink:title="include">
<path fill="none" stroke="#1414ce" d="M122.2,-215.76C131.39,-195.75 149.14,-163.07 174,-144 253.96,-82.67 290.19,-91.78 389,-72 603.83,-28.99 668.94,-82.19 887.09,-35.79"/>
<polygon fill="#1414ce" stroke="#1414ce" points="887.9,-39.2 896.92,-33.65 886.41,-32.36 887.9,-39.2"/>
</a>
</g>
</g>
<!-- 27&#45;&gt;8 -->
<g id="edge70" class="edge">
<title>27&#45;&gt;8</title>
<g id="a_edge70"><a xlink:title="include">
<path fill="none" stroke="#1414ce" d="M311.78,-215.77C324.04,-196.93 345.31,-166.44 368,-144 379.03,-133.09 392.42,-122.62 404.65,-113.91"/>
<polygon fill="#1414ce" stroke="#1414ce" points="406.67,-116.76 412.88,-108.18 402.67,-111.02 406.67,-116.76"/>
</a>
</g>
</g>
<!-- 27&#45;&gt;23 -->
<g id="edge73" class="edge">
<title>27&#45;&gt;23</title>
<g id="a_edge73"><a xlink:title="include">
<path fill="none" stroke="#1414ce" d="M344.21,-218.03C347.16,-217.27 350.11,-216.58 353,-216 549.72,-176.55 603.06,-196.71 803,-180 856.16,-175.56 917.44,-170.17 956.9,-166.67"/>
<polygon fill="#1414ce" stroke="#1414ce" points="957.28,-170.15 966.93,-165.78 956.66,-163.18 957.28,-170.15"/>
</a>
</g>
</g>
<!-- 27&#45;&gt;15 -->
<g id="edge71" class="edge">
<title>27&#45;&gt;15</title>
<g id="a_edge71"><a xlink:title="include">
<path fill="none" stroke="#1414ce" d="M335,-215.88C355.87,-205.37 382.56,-191.92 403.82,-181.22"/>
<polygon fill="#1414ce" stroke="#1414ce" points="405.5,-184.29 412.86,-176.67 402.35,-178.04 405.5,-184.29"/>
</a>
</g>
</g>
<!-- 27&#45;&gt;10 -->
<g id="edge72" class="edge">
<title>27&#45;&gt;10</title>
<g id="a_edge72"><a xlink:title="include">
<path fill="none" stroke="#1414ce" d="M323.86,-215.97C337.07,-205.87 353.82,-192.62 368,-180 384.9,-164.96 383.72,-154.03 404,-144 459.25,-116.68 628.62,-101.75 727.05,-95.17"/>
<polygon fill="#1414ce" stroke="#1414ce" points="727.47,-98.65 737.22,-94.51 727.01,-91.67 727.47,-98.65"/>
</a>
</g>
</g>
<!-- 14&#45;&gt;16 -->
<g id="edge75" class="edge">
<title>14&#45;&gt;16</title>
<g id="a_edge75"><a xlink:title="include">
<path fill="none" stroke="#1414ce" d="M453.9,-503.97C445.22,-456.19 420.57,-320.62 409.96,-262.27"/>
<polygon fill="#1414ce" stroke="#1414ce" points="413.38,-261.52 408.15,-252.31 406.49,-262.77 413.38,-261.52"/>
</a>
</g>
</g>
<!-- 14&#45;&gt;15 -->
<g id="edge74" class="edge">
<title>14&#45;&gt;15</title>
<g id="a_edge74"><a xlink:title="include">
<path fill="none" stroke="#1414ce" d="M460.84,-503.61C466.4,-476.94 476,-424.27 476,-379 476,-379 476,-379 476,-305 476,-263.78 461.57,-217.83 450.98,-189.66"/>
<polygon fill="#1414ce" stroke="#1414ce" points="454.16,-188.19 447.29,-180.13 447.64,-190.72 454.16,-188.19"/>
</a>
</g>
</g>
<!-- 14&#45;&gt;19 -->
<g id="edge76" class="edge">
<title>14&#45;&gt;19</title>
<g id="a_edge76"><a xlink:title="include">
<path fill="none" stroke="#1414ce" d="M484.17,-516.46C555.27,-504.58 747.24,-472.51 833.27,-458.14"/>
<polygon fill="#1414ce" stroke="#1414ce" points="833.94,-461.58 843.23,-456.48 832.79,-454.67 833.94,-461.58"/>
</a>
</g>
</g>
</g>
</svg>
