<?xml version="1.0" encoding="UTF-8" standalone="no"?>
<!DOCTYPE svg PUBLIC "-//W3C//DTD SVG 1.1//EN"
 "http://www.w3.org/Graphics/SVG/1.1/DTD/svg11.dtd">
<!-- Generated by graphviz version 2.43.0 (0)
 -->
<!-- Title: %3 Pages: 1 -->
<svg width="1375pt" height="548pt"
 viewBox="0.00 0.00 1374.50 548.00" xmlns="http://www.w3.org/2000/svg" xmlns:xlink="http://www.w3.org/1999/xlink">
<g id="graph0" class="graph" transform="scale(1 1) rotate(0) translate(4 544)">
<title>%3</title>
<polygon fill="transparent" stroke="transparent" points="-4,4 -4,-544 1370.5,-544 1370.5,4 -4,4"/>
<!-- 14 -->
<g id="node1" class="node">
<title>14</title>
<g id="a_node1"><a xlink:title="AtomTable">
<polygon fill="#ffffff" stroke="black" points="168.5,-324 76.5,-324 76.5,-288 168.5,-288 168.5,-324"/>
<text text-anchor="middle" x="122.5" y="-302.3" font-family="Times,serif" font-size="14.00">AtomTable</text>
</a>
</g>
</g>
<!-- 15 -->
<g id="node6" class="node">
<title>15</title>
<g id="a_node6"><a xlink:title="HNode">
<polygon fill="#ffffff" stroke="black" points="125.5,-180 59.5,-180 59.5,-144 125.5,-144 125.5,-180"/>
<text text-anchor="middle" x="92.5" y="-158.3" font-family="Times,serif" font-size="14.00">HNode</text>
</a>
</g>
</g>
<!-- 14&#45;&gt;15 -->
<g id="edge1" class="edge">
<title>14&#45;&gt;15</title>
<g id="a_edge1"><a xlink:title="usage">
<path fill="none" stroke="#1414ce" d="M91.73,-287.91C78.96,-279.02 65.5,-266.88 58.5,-252 48.64,-231.03 59.75,-206.36 71.83,-188.32"/>
<polygon fill="#1414ce" stroke="#1414ce" points="74.78,-190.21 77.76,-180.04 69.09,-186.14 74.78,-190.21"/>
</a>
</g>
</g>
<!-- 18 -->
<g id="node7" class="node">
<title>18</title>
<g id="a_node7"><a xlink:title="HNodeGroup">
<polygon fill="#ffffff" stroke="black" points="177.5,-252 67.5,-252 67.5,-216 177.5,-216 177.5,-252"/>
<text text-anchor="middle" x="122.5" y="-230.3" font-family="Times,serif" font-size="14.00">HNodeGroup</text>
</a>
</g>
</g>
<!-- 14&#45;&gt;18 -->
<g id="edge2" class="edge">
<title>14&#45;&gt;18</title>
<g id="a_edge2"><a xlink:title="usage">
<path fill="none" stroke="#1414ce" d="M122.5,-287.7C122.5,-279.98 122.5,-270.71 122.5,-262.11"/>
<polygon fill="#1414ce" stroke="#1414ce" points="126,-262.1 122.5,-252.1 119,-262.1 126,-262.1"/>
</a>
</g>
</g>
<!-- 3 -->
<g id="node2" class="node">
<title>3</title>
<g id="a_node2"><a xlink:title="Context">
<polygon fill="#ffffff" stroke="black" points="937,-468 864,-468 864,-432 937,-432 937,-468"/>
<text text-anchor="middle" x="900.5" y="-446.3" font-family="Times,serif" font-size="14.00">Context</text>
</a>
</g>
</g>
<!-- 3&#45;&gt;3 -->
<g id="edge8" class="edge">
<title>3&#45;&gt;3</title>
<g id="a_edge8"><a xlink:title="usage">
<path fill="none" stroke="#1414ce" d="M937.18,-463.42C947.28,-462.77 955,-458.3 955,-450 955,-444.81 951.98,-441.12 947.26,-438.93"/>
<polygon fill="#1414ce" stroke="#1414ce" points="947.71,-435.44 937.18,-436.58 946.13,-442.26 947.71,-435.44"/>
</a>
</g>
</g>
<!-- 4 -->
<g id="node5" class="node">
<title>4</title>
<g id="a_node5"><a xlink:title="GlobalContext">
<polygon fill="#ffffff" stroke="black" points="781,-396 662,-396 662,-360 781,-360 781,-396"/>
<text text-anchor="middle" x="721.5" y="-374.3" font-family="Times,serif" font-size="14.00">GlobalContext</text>
</a>
</g>
</g>
<!-- 3&#45;&gt;4 -->
<g id="edge3" class="edge">
<title>3&#45;&gt;4</title>
<g id="a_edge3"><a xlink:title="usage">
<path fill="none" stroke="#1414ce" d="M863.84,-434.67C838.11,-424.6 803.31,-410.99 774.55,-399.75"/>
<polygon fill="#1414ce" stroke="#1414ce" points="775.64,-396.41 765.05,-396.03 773.09,-402.93 775.64,-396.41"/>
</a>
</g>
</g>
<!-- 16 -->
<g id="node8" class="node">
<title>16</title>
<g id="a_node8"><a xlink:title="Heap">
<polygon fill="#ffffff" stroke="black" points="89.5,-108 35.5,-108 35.5,-72 89.5,-72 89.5,-108"/>
<text text-anchor="middle" x="62.5" y="-86.3" font-family="Times,serif" font-size="14.00">Heap</text>
</a>
</g>
</g>
<!-- 3&#45;&gt;16 -->
<g id="edge4" class="edge">
<title>3&#45;&gt;16</title>
<g id="a_edge4"><a xlink:title="usage">
<path fill="none" stroke="#1414ce" d="M863.86,-447.15C695.18,-438.17 1.5,-395.83 1.5,-307 1.5,-307 1.5,-307 1.5,-233 1.5,-189.61 25.84,-144.37 43.77,-116.94"/>
<polygon fill="#1414ce" stroke="#1414ce" points="46.88,-118.59 49.56,-108.34 41.07,-114.68 46.88,-118.59"/>
</a>
</g>
</g>
<!-- 5 -->
<g id="node10" class="node">
<title>5</title>
<g id="a_node10"><a xlink:title="ListHead">
<polygon fill="#ffffff" stroke="black" points="641,-36 560,-36 560,0 641,0 641,-36"/>
<text text-anchor="middle" x="600.5" y="-14.3" font-family="Times,serif" font-size="14.00">ListHead</text>
</a>
</g>
</g>
<!-- 3&#45;&gt;5 -->
<g id="edge5" class="edge">
<title>3&#45;&gt;5</title>
<g id="a_edge5"><a xlink:title="usage">
<path fill="none" stroke="#1414ce" d="M863.86,-446.94C745.27,-439.29 379.5,-407.55 379.5,-307 379.5,-307 379.5,-307 379.5,-161 379.5,-114.96 396.4,-100.58 432.5,-72 466.22,-45.31 513.58,-31.95 549.43,-25.33"/>
<polygon fill="#1414ce" stroke="#1414ce" points="550.43,-28.71 559.68,-23.56 549.24,-21.81 550.43,-28.71"/>
</a>
</g>
</g>
<!-- 24 -->
<g id="node12" class="node">
<title>24</title>
<g id="a_node12"><a xlink:title="Mailbox">
<polygon fill="#ffffff" stroke="black" points="1001.5,-396 927.5,-396 927.5,-360 1001.5,-360 1001.5,-396"/>
<text text-anchor="middle" x="964.5" y="-374.3" font-family="Times,serif" font-size="14.00">Mailbox</text>
</a>
</g>
</g>
<!-- 3&#45;&gt;24 -->
<g id="edge9" class="edge">
<title>3&#45;&gt;24</title>
<g id="a_edge9"><a xlink:title="usage">
<path fill="none" stroke="#1414ce" d="M916.32,-431.7C924.07,-423.22 933.54,-412.86 942.02,-403.58"/>
<polygon fill="#1414ce" stroke="#1414ce" points="944.7,-405.85 948.86,-396.1 939.53,-401.12 944.7,-405.85"/>
</a>
</g>
</g>
<!-- 20 -->
<g id="node15" class="node">
<title>20</title>
<g id="a_node15"><a xlink:title="Module">
<polygon fill="#ffffff" stroke="black" points="1265.5,-324 1195.5,-324 1195.5,-288 1265.5,-288 1265.5,-324"/>
<text text-anchor="middle" x="1230.5" y="-302.3" font-family="Times,serif" font-size="14.00">Module</text>
</a>
</g>
</g>
<!-- 3&#45;&gt;20 -->
<g id="edge7" class="edge">
<title>3&#45;&gt;20</title>
<g id="a_edge7"><a xlink:title="usage">
<path fill="none" stroke="#1414ce" d="M935.72,-431.87C996.23,-404.59 1119.44,-351.57 1185.86,-324.23"/>
<polygon fill="#1414ce" stroke="#1414ce" points="1187.31,-327.42 1195.23,-320.39 1184.65,-320.94 1187.31,-327.42"/>
</a>
</g>
</g>
<!-- 23 -->
<g id="node23" class="node">
<title>23</title>
<g id="a_node23"><a xlink:title="TimerListItem">
<polygon fill="#ffffff" stroke="black" points="945,-180 826,-180 826,-144 945,-144 945,-180"/>
<text text-anchor="middle" x="885.5" y="-158.3" font-family="Times,serif" font-size="14.00">TimerListItem</text>
</a>
</g>
</g>
<!-- 3&#45;&gt;23 -->
<g id="edge6" class="edge">
<title>3&#45;&gt;23</title>
<g id="a_edge6"><a xlink:title="usage">
<path fill="none" stroke="#1414ce" d="M891.92,-431.75C880.7,-408.12 861.64,-364.07 854.5,-324 846.08,-276.71 862.22,-221.82 874.21,-189.88"/>
<polygon fill="#1414ce" stroke="#1414ce" points="877.55,-190.95 877.92,-180.36 871.03,-188.41 877.55,-190.95"/>
</a>
</g>
</g>
<!-- 13 -->
<g id="node3" class="node">
<title>13</title>
<g id="a_node3"><a xlink:title="Ets">
<polygon fill="#ffffff" stroke="black" points="731.5,-180 677.5,-180 677.5,-144 731.5,-144 731.5,-180"/>
<text text-anchor="middle" x="704.5" y="-158.3" font-family="Times,serif" font-size="14.00">Ets</text>
</a>
</g>
</g>
<!-- 12 -->
<g id="node21" class="node">
<title>12</title>
<g id="a_node21"><a xlink:title="SyncList">
<polygon fill="#ffffff" stroke="black" points="721.5,-108 643.5,-108 643.5,-72 721.5,-72 721.5,-108"/>
<text text-anchor="middle" x="682.5" y="-86.3" font-family="Times,serif" font-size="14.00">SyncList</text>
</a>
</g>
</g>
<!-- 13&#45;&gt;12 -->
<g id="edge10" class="edge">
<title>13&#45;&gt;12</title>
<g id="a_edge10"><a xlink:title="usage">
<path fill="none" stroke="#1414ce" d="M699.06,-143.7C696.61,-135.9 693.66,-126.51 690.93,-117.83"/>
<polygon fill="#1414ce" stroke="#1414ce" points="694.21,-116.59 687.88,-108.1 687.54,-118.69 694.21,-116.59"/>
</a>
</g>
</g>
<!-- 2 -->
<g id="node4" class="node">
<title>2</title>
<g id="a_node4"><a xlink:title="ExportedFunction">
<polygon fill="#ffffff" stroke="black" points="1366.5,-252 1220.5,-252 1220.5,-216 1366.5,-216 1366.5,-252"/>
<text text-anchor="middle" x="1293.5" y="-230.3" font-family="Times,serif" font-size="14.00">ExportedFunction</text>
</a>
</g>
</g>
<!-- 4&#45;&gt;14 -->
<g id="edge17" class="edge">
<title>4&#45;&gt;14</title>
<g id="a_edge17"><a xlink:title="usage">
<path fill="none" stroke="#1414ce" d="M661.88,-370.03C546.09,-356.5 292.26,-326.84 179,-313.6"/>
<polygon fill="#1414ce" stroke="#1414ce" points="179.15,-310.1 168.81,-312.41 178.34,-317.05 179.15,-310.1"/>
</a>
</g>
</g>
<!-- 4&#45;&gt;13 -->
<g id="edge16" class="edge">
<title>4&#45;&gt;13</title>
<g id="a_edge16"><a xlink:title="usage">
<path fill="none" stroke="#1414ce" d="M720.14,-359.85C717.2,-322.83 710.23,-235.18 706.68,-190.39"/>
<polygon fill="#1414ce" stroke="#1414ce" points="710.15,-189.92 705.87,-180.23 703.17,-190.48 710.15,-189.92"/>
</a>
</g>
</g>
<!-- 4&#45;&gt;5 -->
<g id="edge11" class="edge">
<title>4&#45;&gt;5</title>
<g id="a_edge11"><a xlink:title="usage">
<path fill="none" stroke="#1414ce" d="M661.85,-373.55C587.91,-368.02 467.82,-354.5 436.5,-324 407.52,-295.78 417.5,-275.45 417.5,-235 417.5,-235 417.5,-235 417.5,-161 417.5,-93.47 496.23,-53.44 550.42,-33.88"/>
<polygon fill="#1414ce" stroke="#1414ce" points="551.6,-37.18 559.89,-30.58 549.29,-30.57 551.6,-37.18"/>
</a>
</g>
</g>
<!-- 7 -->
<g id="node14" class="node">
<title>7</title>
<g id="a_node14"><a xlink:title="MessageQueueItem">
<polygon fill="#ffffff" stroke="black" points="1021.5,-324 863.5,-324 863.5,-288 1021.5,-288 1021.5,-324"/>
<text text-anchor="middle" x="942.5" y="-302.3" font-family="Times,serif" font-size="14.00">MessageQueueItem</text>
</a>
</g>
</g>
<!-- 4&#45;&gt;7 -->
<g id="edge13" class="edge">
<title>4&#45;&gt;7</title>
<g id="a_edge13"><a xlink:title="usage">
<path fill="none" stroke="#1414ce" d="M775.28,-359.97C806.43,-350.1 845.82,-337.62 878.55,-327.25"/>
<polygon fill="#1414ce" stroke="#1414ce" points="880,-330.47 888.48,-324.11 877.89,-323.79 880,-330.47"/>
</a>
</g>
</g>
<!-- 4&#45;&gt;20 -->
<g id="edge19" class="edge">
<title>4&#45;&gt;20</title>
<g id="a_edge19"><a xlink:title="usage">
<path fill="none" stroke="#1414ce" d="M781.13,-371.14C863.87,-362.66 1018.05,-345.58 1148.5,-324 1160.37,-322.04 1173.14,-319.57 1184.98,-317.12"/>
<polygon fill="#1414ce" stroke="#1414ce" points="1186.03,-320.48 1195.1,-314.99 1184.59,-313.63 1186.03,-320.48"/>
</a>
</g>
</g>
<!-- 9 -->
<g id="node18" class="node">
<title>9</title>
<g id="a_node18"><a xlink:title="RefcBinaryQueueItem">
<polygon fill="#ffffff" stroke="black" points="619.5,-324 445.5,-324 445.5,-288 619.5,-288 619.5,-324"/>
<text text-anchor="middle" x="532.5" y="-302.3" font-family="Times,serif" font-size="14.00">RefcBinaryQueueItem</text>
</a>
</g>
</g>
<!-- 4&#45;&gt;9 -->
<g id="edge14" class="edge">
<title>4&#45;&gt;9</title>
<g id="a_edge14"><a xlink:title="usage">
<path fill="none" stroke="#1414ce" d="M675.27,-359.88C648.97,-350.14 615.86,-337.87 588.14,-327.61"/>
<polygon fill="#1414ce" stroke="#1414ce" points="589.18,-324.26 578.58,-324.07 586.75,-330.82 589.18,-324.26"/>
</a>
</g>
</g>
<!-- 11 -->
<g id="node19" class="node">
<title>11</title>
<g id="a_node19"><a xlink:title="ResourceType">
<polygon fill="#ffffff" stroke="black" points="659,-180 542,-180 542,-144 659,-144 659,-180"/>
<text text-anchor="middle" x="600.5" y="-158.3" font-family="Times,serif" font-size="14.00">ResourceType</text>
</a>
</g>
</g>
<!-- 4&#45;&gt;11 -->
<g id="edge21" class="edge">
<title>4&#45;&gt;11</title>
<g id="a_edge21"><a xlink:title="usage">
<path fill="none" stroke="#1414ce" d="M707.93,-359.85C683.25,-322.52 632.78,-233.69 610.73,-189.26"/>
<polygon fill="#1414ce" stroke="#1414ce" points="613.87,-187.71 606.36,-180.23 607.57,-190.76 613.87,-187.71"/>
</a>
</g>
</g>
<!-- 6 -->
<g id="node20" class="node">
<title>6</title>
<g id="a_node20"><a xlink:title="SpinLock">
<polygon fill="#ffffff" stroke="black" points="1139.5,-324 1057.5,-324 1057.5,-288 1139.5,-288 1139.5,-324"/>
<text text-anchor="middle" x="1098.5" y="-302.3" font-family="Times,serif" font-size="14.00">SpinLock</text>
</a>
</g>
</g>
<!-- 4&#45;&gt;6 -->
<g id="edge12" class="edge">
<title>4&#45;&gt;6</title>
<g id="a_edge12"><a xlink:title="usage">
<path fill="none" stroke="#1414ce" d="M781.18,-370.37C845.07,-362.59 949.43,-347.93 1047.67,-323.98"/>
<polygon fill="#1414ce" stroke="#1414ce" points="1048.6,-327.36 1057.46,-321.56 1046.91,-320.56 1048.6,-327.36"/>
</a>
</g>
</g>
<!-- 4&#45;&gt;12 -->
<g id="edge15" class="edge">
<title>4&#45;&gt;12</title>
<g id="a_edge15"><a xlink:title="usage">
<path fill="none" stroke="#1414ce" d="M728.2,-359.99C742.77,-320.21 773.49,-218.83 740.5,-144 735.51,-132.69 726.79,-122.74 717.6,-114.62"/>
<polygon fill="#1414ce" stroke="#1414ce" points="719.78,-111.88 709.84,-108.23 715.33,-117.28 719.78,-111.88"/>
</a>
</g>
</g>
<!-- 22 -->
<g id="node22" class="node">
<title>22</title>
<g id="a_node22"><a xlink:title="TimerList">
<polygon fill="#ffffff" stroke="black" points="832.5,-108 746.5,-108 746.5,-72 832.5,-72 832.5,-108"/>
<text text-anchor="middle" x="789.5" y="-86.3" font-family="Times,serif" font-size="14.00">TimerList</text>
</a>
</g>
</g>
<!-- 4&#45;&gt;22 -->
<g id="edge20" class="edge">
<title>4&#45;&gt;22</title>
<g id="a_edge20"><a xlink:title="usage">
<path fill="none" stroke="#1414ce" d="M735.96,-359.97C743.58,-350.09 752.38,-337.05 757.5,-324 785.21,-253.43 789.56,-162.64 789.85,-118.1"/>
<polygon fill="#1414ce" stroke="#1414ce" points="793.35,-118.07 789.86,-108.06 786.35,-118.06 793.35,-118.07"/>
</a>
</g>
</g>
<!-- 19 -->
<g id="node24" class="node">
<title>19</title>
<g id="a_node24"><a xlink:title="ValuesHashTable">
<polygon fill="#ffffff" stroke="black" points="351.5,-252 213.5,-252 213.5,-216 351.5,-216 351.5,-252"/>
<text text-anchor="middle" x="282.5" y="-230.3" font-family="Times,serif" font-size="14.00">ValuesHashTable</text>
</a>
</g>
</g>
<!-- 4&#45;&gt;19 -->
<g id="edge18" class="edge">
<title>4&#45;&gt;19</title>
<g id="a_edge18"><a xlink:title="usage">
<path fill="none" stroke="#1414ce" d="M661.77,-375.29C596.08,-371.56 488.57,-359.93 403.5,-324 366.75,-308.48 330.72,-279.73 307.67,-259.1"/>
<polygon fill="#1414ce" stroke="#1414ce" points="309.82,-256.33 300.07,-252.18 305.11,-261.5 309.82,-256.33"/>
</a>
</g>
</g>
<!-- 15&#45;&gt;15 -->
<g id="edge22" class="edge">
<title>15&#45;&gt;15</title>
<g id="a_edge22"><a xlink:title="usage">
<path fill="none" stroke="#1414ce" d="M125.85,-175.47C135.78,-175.07 143.5,-170.58 143.5,-162 143.5,-156.64 140.48,-152.87 135.8,-150.71"/>
<polygon fill="#1414ce" stroke="#1414ce" points="136.37,-147.25 125.85,-148.53 134.87,-154.09 136.37,-147.25"/>
</a>
</g>
</g>
<!-- 15&#45;&gt;16 -->
<g id="edge23" class="edge">
<title>15&#45;&gt;16</title>
<g id="a_edge23"><a xlink:title="usage">
<path fill="none" stroke="#1414ce" d="M85.08,-143.7C81.71,-135.81 77.63,-126.3 73.88,-117.55"/>
<polygon fill="#1414ce" stroke="#1414ce" points="76.99,-115.92 69.83,-108.1 70.55,-118.67 76.99,-115.92"/>
</a>
</g>
</g>
<!-- 18&#45;&gt;15 -->
<g id="edge25" class="edge">
<title>18&#45;&gt;15</title>
<g id="a_edge25"><a xlink:title="usage">
<path fill="none" stroke="#1414ce" d="M115.08,-215.7C111.71,-207.81 107.63,-198.3 103.88,-189.55"/>
<polygon fill="#1414ce" stroke="#1414ce" points="106.99,-187.92 99.83,-180.1 100.55,-190.67 106.99,-187.92"/>
</a>
</g>
</g>
<!-- 18&#45;&gt;18 -->
<g id="edge24" class="edge">
<title>18&#45;&gt;18</title>
<g id="a_edge24"><a xlink:title="usage">
<path fill="none" stroke="#1414ce" d="M177.57,-246.85C188.07,-245.32 195.5,-241.03 195.5,-234 195.5,-229.5 192.45,-226.12 187.5,-223.87"/>
<polygon fill="#1414ce" stroke="#1414ce" points="188.14,-220.42 177.57,-221.15 186.29,-227.17 188.14,-220.42"/>
</a>
</g>
</g>
<!-- 17 -->
<g id="node9" class="node">
<title>17</title>
<g id="a_node9"><a xlink:title="HeapFragment">
<polygon fill="#ffffff" stroke="black" points="125,-36 0,-36 0,0 125,0 125,-36"/>
<text text-anchor="middle" x="62.5" y="-14.3" font-family="Times,serif" font-size="14.00">HeapFragment</text>
</a>
</g>
</g>
<!-- 16&#45;&gt;17 -->
<g id="edge26" class="edge">
<title>16&#45;&gt;17</title>
<g id="a_edge26"><a xlink:title="usage">
<path fill="none" stroke="#1414ce" d="M62.5,-71.7C62.5,-63.98 62.5,-54.71 62.5,-46.11"/>
<polygon fill="#1414ce" stroke="#1414ce" points="66,-46.1 62.5,-36.1 59,-46.1 66,-46.1"/>
</a>
</g>
</g>
<!-- 17&#45;&gt;17 -->
<g id="edge27" class="edge">
<title>17&#45;&gt;17</title>
<g id="a_edge27"><a xlink:title="usage">
<path fill="none" stroke="#1414ce" d="M125.28,-30.55C135.76,-28.79 143,-24.61 143,-18 143,-13.77 140.03,-10.53 135.14,-8.29"/>
<polygon fill="#1414ce" stroke="#1414ce" points="135.86,-4.85 125.28,-5.45 133.92,-11.58 135.86,-4.85"/>
</a>
</g>
</g>
<!-- 5&#45;&gt;5 -->
<g id="edge28" class="edge">
<title>5&#45;&gt;5</title>
<g id="a_edge28"><a xlink:title="usage">
<path fill="none" stroke="#1414ce" d="M641.23,-31.31C651.4,-30.38 659,-25.95 659,-18 659,-12.91 655.88,-9.26 650.97,-7.05"/>
<polygon fill="#1414ce" stroke="#1414ce" points="651.78,-3.64 641.23,-4.69 650.13,-10.45 651.78,-3.64"/>
</a>
</g>
</g>
<!-- 21 -->
<g id="node11" class="node">
<title>21</title>
<g id="a_node11"><a xlink:title="LiteralEntry">
<polygon fill="#ffffff" stroke="black" points="1202.5,-252 1098.5,-252 1098.5,-216 1202.5,-216 1202.5,-252"/>
<text text-anchor="middle" x="1150.5" y="-230.3" font-family="Times,serif" font-size="14.00">LiteralEntry</text>
</a>
</g>
</g>
<!-- 8 -->
<g id="node13" class="node">
<title>8</title>
<g id="a_node13"><a xlink:title="MailboxMessage">
<polygon fill="#ffffff" stroke="black" points="1037,-252 900,-252 900,-216 1037,-216 1037,-252"/>
<text text-anchor="middle" x="968.5" y="-230.3" font-family="Times,serif" font-size="14.00">MailboxMessage</text>
</a>
</g>
</g>
<!-- 24&#45;&gt;8 -->
<g id="edge29" class="edge">
<title>24&#45;&gt;8</title>
<g id="a_edge29"><a xlink:title="usage">
<path fill="none" stroke="#1414ce" d="M1001.61,-371.62C1050.08,-363.75 1130.86,-347.44 1148.5,-324 1180.74,-281.17 1109.3,-257.68 1047.11,-245.75"/>
<polygon fill="#1414ce" stroke="#1414ce" points="1047.69,-242.3 1037.22,-243.93 1046.42,-249.18 1047.69,-242.3"/>
</a>
</g>
</g>
<!-- 8&#45;&gt;8 -->
<g id="edge30" class="edge">
<title>8&#45;&gt;8</title>
<g id="a_edge30"><a xlink:title="usage">
<path fill="none" stroke="#1414ce" d="M1037.03,-246.37C1047.71,-244.52 1055,-240.4 1055,-234 1055,-229.8 1051.86,-226.58 1046.68,-224.34"/>
<polygon fill="#1414ce" stroke="#1414ce" points="1047.6,-220.96 1037.03,-221.63 1045.71,-227.7 1047.6,-220.96"/>
</a>
</g>
</g>
<!-- 7&#45;&gt;8 -->
<g id="edge32" class="edge">
<title>7&#45;&gt;8</title>
<g id="a_edge32"><a xlink:title="usage">
<path fill="none" stroke="#1414ce" d="M948.93,-287.7C951.86,-279.81 955.39,-270.3 958.64,-261.55"/>
<polygon fill="#1414ce" stroke="#1414ce" points="961.95,-262.7 962.15,-252.1 955.38,-260.26 961.95,-262.7"/>
</a>
</g>
</g>
<!-- 7&#45;&gt;7 -->
<g id="edge31" class="edge">
<title>7&#45;&gt;7</title>
<g id="a_edge31"><a xlink:title="usage">
<path fill="none" stroke="#1414ce" d="M1021.66,-317.98C1032.37,-315.97 1039.5,-311.98 1039.5,-306 1039.5,-302.08 1036.43,-299.01 1031.29,-296.8"/>
<polygon fill="#1414ce" stroke="#1414ce" points="1032.24,-293.43 1021.66,-294.02 1030.3,-300.15 1032.24,-293.43"/>
</a>
</g>
</g>
<!-- 20&#45;&gt;3 -->
<g id="edge33" class="edge">
<title>20&#45;&gt;3</title>
<g id="a_edge33"><a xlink:title="usage">
<path fill="none" stroke="#1414ce" d="M1195.42,-324.07C1135.43,-351.11 1013.55,-403.57 946.72,-431.12"/>
<polygon fill="#1414ce" stroke="#1414ce" points="945.19,-427.96 937.27,-435 947.85,-434.44 945.19,-427.96"/>
</a>
</g>
</g>
<!-- 20&#45;&gt;2 -->
<g id="edge34" class="edge">
<title>20&#45;&gt;2</title>
<g id="a_edge34"><a xlink:title="usage">
<path fill="none" stroke="#1414ce" d="M1246.07,-287.7C1253.7,-279.22 1263.02,-268.86 1271.38,-259.58"/>
<polygon fill="#1414ce" stroke="#1414ce" points="1274.02,-261.88 1278.11,-252.1 1268.81,-257.2 1274.02,-261.88"/>
</a>
</g>
</g>
<!-- 20&#45;&gt;21 -->
<g id="edge35" class="edge">
<title>20&#45;&gt;21</title>
<g id="a_edge35"><a xlink:title="usage">
<path fill="none" stroke="#1414ce" d="M1210.72,-287.7C1200.75,-278.97 1188.49,-268.24 1177.64,-258.75"/>
<polygon fill="#1414ce" stroke="#1414ce" points="1179.88,-256.06 1170.05,-252.1 1175.27,-261.32 1179.88,-256.06"/>
</a>
</g>
</g>
<!-- 1 -->
<g id="node16" class="node">
<title>1</title>
<g id="a_node16"><a xlink:title="Nif">
<polygon fill="#bfbfbf" stroke="black" points="995.5,-540 941.5,-540 941.5,-504 995.5,-504 995.5,-540"/>
<text text-anchor="middle" x="968.5" y="-518.3" font-family="Times,serif" font-size="14.00">Nif</text>
</a>
</g>
</g>
<!-- 1&#45;&gt;3 -->
<g id="edge37" class="edge">
<title>1&#45;&gt;3</title>
<g id="a_edge37"><a xlink:title="usage">
<path fill="none" stroke="#1414ce" d="M951.69,-503.7C943.37,-495.14 933.19,-484.66 924.11,-475.3"/>
<polygon fill="#1414ce" stroke="#1414ce" points="926.59,-472.84 917.12,-468.1 921.57,-477.72 926.59,-472.84"/>
</a>
</g>
</g>
<!-- 1&#45;&gt;2 -->
<g id="edge36" class="edge">
<title>1&#45;&gt;2</title>
<g id="a_edge36"><a xlink:title="usage">
<path fill="none" stroke="#1414ce" d="M995.71,-511.77C1056.31,-489.72 1202.67,-427.97 1274.5,-324 1287.02,-305.88 1291.54,-281.1 1293.06,-262.29"/>
<polygon fill="#1414ce" stroke="#1414ce" points="1296.55,-262.45 1293.63,-252.26 1289.57,-262.05 1296.55,-262.45"/>
</a>
</g>
</g>
<!-- 10 -->
<g id="node17" class="node">
<title>10</title>
<g id="a_node17"><a xlink:title="RefcBinary">
<polygon fill="#ffffff" stroke="black" points="580,-252 485,-252 485,-216 580,-216 580,-252"/>
<text text-anchor="middle" x="532.5" y="-230.3" font-family="Times,serif" font-size="14.00">RefcBinary</text>
</a>
</g>
</g>
<!-- 10&#45;&gt;5 -->
<g id="edge38" class="edge">
<title>10&#45;&gt;5</title>
<g id="a_edge38"><a xlink:title="usage">
<path fill="none" stroke="#1414ce" d="M530.32,-215.96C528.54,-197.81 527.23,-168.39 533.5,-144 543.06,-106.83 565.81,-68.59 582.15,-44.36"/>
<polygon fill="#1414ce" stroke="#1414ce" points="585.05,-46.31 587.84,-36.09 579.29,-42.34 585.05,-46.31"/>
</a>
</g>
</g>
<!-- 10&#45;&gt;11 -->
<g id="edge39" class="edge">
<title>10&#45;&gt;11</title>
<g id="a_edge39"><a xlink:title="usage">
<path fill="none" stroke="#1414ce" d="M549.31,-215.7C557.63,-207.14 567.81,-196.66 576.89,-187.3"/>
<polygon fill="#1414ce" stroke="#1414ce" points="579.43,-189.72 583.88,-180.1 574.41,-184.84 579.43,-189.72"/>
</a>
</g>
</g>
<!-- 9&#45;&gt;10 -->
<g id="edge41" class="edge">
<title>9&#45;&gt;10</title>
<g id="a_edge41"><a xlink:title="usage">
<path fill="none" stroke="#1414ce" d="M532.5,-287.7C532.5,-279.98 532.5,-270.71 532.5,-262.11"/>
<polygon fill="#1414ce" stroke="#1414ce" points="536,-262.1 532.5,-252.1 529,-262.1 536,-262.1"/>
</a>
</g>
</g>
<!-- 9&#45;&gt;9 -->
<g id="edge40" class="edge">
<title>9&#45;&gt;9</title>
<g id="a_edge40"><a xlink:title="usage">
<path fill="none" stroke="#1414ce" d="M619.8,-317.68C630.49,-315.59 637.5,-311.7 637.5,-306 637.5,-302.35 634.62,-299.44 629.75,-297.27"/>
<polygon fill="#1414ce" stroke="#1414ce" points="630.38,-293.81 619.8,-294.32 628.39,-300.52 630.38,-293.81"/>
</a>
</g>
</g>
<!-- 11&#45;&gt;4 -->
<g id="edge43" class="edge">
<title>11&#45;&gt;4</title>
<g id="a_edge43"><a xlink:title="usage">
<path fill="none" stroke="#1414ce" d="M614.13,-180.23C638.84,-217.64 689.31,-306.47 711.32,-350.84"/>
<polygon fill="#1414ce" stroke="#1414ce" points="708.17,-352.37 715.68,-359.85 714.47,-349.32 708.17,-352.37"/>
</a>
</g>
</g>
<!-- 11&#45;&gt;5 -->
<g id="edge42" class="edge">
<title>11&#45;&gt;5</title>
<g id="a_edge42"><a xlink:title="usage">
<path fill="none" stroke="#1414ce" d="M600.5,-143.87C600.5,-119.67 600.5,-75.21 600.5,-46.39"/>
<polygon fill="#1414ce" stroke="#1414ce" points="604,-46.19 600.5,-36.19 597,-46.19 604,-46.19"/>
</a>
</g>
</g>
<!-- 11&#45;&gt;12 -->
<g id="edge44" class="edge">
<title>11&#45;&gt;12</title>
<g id="a_edge44"><a xlink:title="usage">
<path fill="none" stroke="#1414ce" d="M620.77,-143.7C631,-134.97 643.56,-124.24 654.68,-114.75"/>
<polygon fill="#1414ce" stroke="#1414ce" points="657.13,-117.26 662.46,-108.1 652.59,-111.94 657.13,-117.26"/>
</a>
</g>
</g>
<!-- 12&#45;&gt;5 -->
<g id="edge45" class="edge">
<title>12&#45;&gt;5</title>
<g id="a_edge45"><a xlink:title="usage">
<path fill="none" stroke="#1414ce" d="M662.23,-71.7C652,-62.97 639.44,-52.24 628.32,-42.75"/>
<polygon fill="#1414ce" stroke="#1414ce" points="630.41,-39.94 620.54,-36.1 625.87,-45.26 630.41,-39.94"/>
</a>
</g>
</g>
<!-- 22&#45;&gt;5 -->
<g id="edge46" class="edge">
<title>22&#45;&gt;5</title>
<g id="a_edge46"><a xlink:title="usage">
<path fill="none" stroke="#1414ce" d="M746.14,-72.94C717.74,-62.42 680.53,-48.64 650.83,-37.64"/>
<polygon fill="#1414ce" stroke="#1414ce" points="651.67,-34.22 641.07,-34.03 649.23,-40.78 651.67,-34.22"/>
</a>
</g>
</g>
<!-- 23&#45;&gt;5 -->
<g id="edge47" class="edge">
<title>23&#45;&gt;5</title>
<g id="a_edge47"><a xlink:title="usage">
<path fill="none" stroke="#1414ce" d="M881.75,-143.73C876.41,-123.38 864.58,-90.06 841.5,-72 812.34,-49.18 712.66,-33.01 651,-24.92"/>
<polygon fill="#1414ce" stroke="#1414ce" points="651.44,-21.44 641.08,-23.64 650.55,-28.39 651.44,-21.44"/>
</a>
</g>
</g>
<!-- 19&#45;&gt;15 -->
<g id="edge48" class="edge">
<title>19&#45;&gt;15</title>
<g id="a_edge48"><a xlink:title="usage">
<path fill="none" stroke="#1414ce" d="M236.02,-215.88C205.32,-204.57 165.39,-189.85 135.44,-178.82"/>
<polygon fill="#1414ce" stroke="#1414ce" points="136.29,-175.4 125.69,-175.23 133.87,-181.97 136.29,-175.4"/>
</a>
</g>
</g>
</g>
</svg>
