<?xml version="1.0" encoding="UTF-8" standalone="no"?>
<!DOCTYPE svg PUBLIC "-//W3C//DTD SVG 1.1//EN"
 "http://www.w3.org/Graphics/SVG/1.1/DTD/svg11.dtd">
<!-- Generated by graphviz version 2.43.0 (0)
 -->
<!-- Title: %3 Pages: 1 -->
<svg width="1396pt" height="116pt"
 viewBox="0.00 0.00 1395.50 116.00" xmlns="http://www.w3.org/2000/svg" xmlns:xlink="http://www.w3.org/1999/xlink">
<g id="graph0" class="graph" transform="scale(1 1) rotate(0) translate(4 112)">
<title>%3</title>
<polygon fill="transparent" stroke="transparent" points="-4,4 -4,-112 1391.5,-112 1391.5,4 -4,4"/>
<!-- 2 -->
<g id="node1" class="node">
<title>2</title>
<g id="a_node1"><a xlink:title="/__w/AtomVM/AtomVM/src/libAtomVM/bif.c">
<polygon fill="#ffffff" stroke="black" points="323,-36 0,-36 0,0 323,0 323,-36"/>
<text text-anchor="middle" x="161.5" y="-14.3" font-family="Times,serif" font-size="14.00">/__w/AtomVM/AtomVM/src/libAtomVM/bif.c</text>
</a>
</g>
</g>
<!-- 1 -->
<g id="node2" class="node">
<title>1</title>
<g id="a_node2"><a xlink:title="/__w/AtomVM/AtomVM/src/libAtomVM/bif.h">
<polygon fill="#bfbfbf" stroke="black" points="842,-108 517,-108 517,-72 842,-72 842,-108"/>
<text text-anchor="middle" x="679.5" y="-86.3" font-family="Times,serif" font-size="14.00">/__w/AtomVM/AtomVM/src/libAtomVM/bif.h</text>
</a>
</g>
</g>
<!-- 1&#45;&gt;2 -->
<g id="edge1" class="edge">
<title>1&#45;&gt;2</title>
<g id="a_edge1"><a xlink:title="include">
<path fill="none" stroke="#1414ce" d="M543.4,-70.61C464.22,-59.91 365.09,-46.51 287.67,-36.05"/>
<polygon fill="#1414ce" stroke="#1414ce" points="543.07,-74.09 553.45,-71.97 544,-67.16 543.07,-74.09"/>
</a>
</g>
</g>
<!-- 3 -->
<g id="node3" class="node">
<title>3</title>
<g id="a_node3"><a xlink:title="/__w/AtomVM/AtomVM/src/libAtomVM/jit.c">
<polygon fill="#ffffff" stroke="black" points="661.5,-36 341.5,-36 341.5,0 661.5,0 661.5,-36"/>
<text text-anchor="middle" x="501.5" y="-14.3" font-family="Times,serif" font-size="14.00">/__w/AtomVM/AtomVM/src/libAtomVM/jit.c</text>
</a>
</g>
</g>
<!-- 1&#45;&gt;3 -->
<g id="edge2" class="edge">
<title>1&#45;&gt;3</title>
<g id="a_edge2"><a xlink:title="include">
<path fill="none" stroke="#1414ce" d="M626.6,-68.2C600.55,-57.95 569.54,-45.76 544.9,-36.07"/>
<polygon fill="#1414ce" stroke="#1414ce" points="625.37,-71.47 635.96,-71.88 627.93,-64.96 625.37,-71.47"/>
</a>
</g>
</g>
<!-- 4 -->
<g id="node4" class="node">
<title>4</title>
<g id="a_node4"><a xlink:title="/__w/AtomVM/AtomVM/src/libAtomVM/module.c">
<polygon fill="#ffffff" stroke="black" points="1037.5,-36 679.5,-36 679.5,0 1037.5,0 1037.5,-36"/>
<text text-anchor="middle" x="858.5" y="-14.3" font-family="Times,serif" font-size="14.00">/__w/AtomVM/AtomVM/src/libAtomVM/module.c</text>
</a>
</g>
</g>
<!-- 1&#45;&gt;4 -->
<g id="edge3" class="edge">
<title>1&#45;&gt;4</title>
<g id="a_edge3"><a xlink:title="include">
<path fill="none" stroke="#1414ce" d="M732.69,-68.2C758.89,-57.95 790.08,-45.76 814.85,-36.07"/>
<polygon fill="#1414ce" stroke="#1414ce" points="731.33,-64.97 723.29,-71.88 733.88,-71.49 731.33,-64.97"/>
</a>
</g>
</g>
<!-- 5 -->
<g id="node5" class="node">
<title>5</title>
<g id="a_node5"><a xlink:title="/__w/AtomVM/AtomVM/src/libAtomVM/nifs.c">
<polygon fill="#ffffff" stroke="black" points="1387.5,-36 1055.5,-36 1055.5,0 1387.5,0 1387.5,-36"/>
<text text-anchor="middle" x="1221.5" y="-14.3" font-family="Times,serif" font-size="14.00">/__w/AtomVM/AtomVM/src/libAtomVM/nifs.c</text>
</a>
</g>
</g>
<!-- 1&#45;&gt;5 -->
<g id="edge4" class="edge">
<title>1&#45;&gt;5</title>
<g id="a_edge4"><a xlink:title="include">
<path fill="none" stroke="#1414ce" d="M821.4,-70.67C904.33,-59.96 1008.31,-46.53 1089.48,-36.05"/>
<polygon fill="#1414ce" stroke="#1414ce" points="820.86,-67.21 811.4,-71.97 821.76,-74.16 820.86,-67.21"/>
</a>
</g>
</g>
</g>
</svg>
