<?xml version="1.0" encoding="UTF-8" standalone="no"?>
<!DOCTYPE svg PUBLIC "-//W3C//DTD SVG 1.1//EN"
 "http://www.w3.org/Graphics/SVG/1.1/DTD/svg11.dtd">
<!-- Generated by graphviz version 2.43.0 (0)
 -->
<!-- Title: %3 Pages: 1 -->
<svg width="1467pt" height="692pt"
 viewBox="0.00 0.00 1467.00 692.00" xmlns="http://www.w3.org/2000/svg" xmlns:xlink="http://www.w3.org/1999/xlink">
<g id="graph0" class="graph" transform="scale(1 1) rotate(0) translate(4 688)">
<title>%3</title>
<polygon fill="transparent" stroke="transparent" points="-4,4 -4,-688 1463,-688 1463,4 -4,4"/>
<!-- 10 -->
<g id="node1" class="node">
<title>10</title>
<g id="a_node1"><a xlink:title="atom.h">
<polygon fill="#ffffff" stroke="black" points="726,-180 660,-180 660,-144 726,-144 726,-180"/>
<text text-anchor="middle" x="693" y="-158.3" font-family="Times,serif" font-size="14.00">atom.h</text>
</a>
</g>
</g>
<!-- 6 -->
<g id="node26" class="node">
<title>6</title>
<g id="a_node26"><a xlink:title="stdint.h">
<polygon fill="#ffffff" stroke="black" points="729,-36 657,-36 657,0 729,0 729,-36"/>
<text text-anchor="middle" x="693" y="-14.3" font-family="Times,serif" font-size="14.00">stdint.h</text>
</a>
</g>
</g>
<!-- 10&#45;&gt;6 -->
<g id="edge1" class="edge">
<title>10&#45;&gt;6</title>
<g id="a_edge1"><a xlink:title="include">
<path fill="none" stroke="#1414ce" d="M693,-143.87C693,-119.67 693,-75.21 693,-46.39"/>
<polygon fill="#1414ce" stroke="#1414ce" points="696.5,-46.19 693,-36.19 689.5,-46.19 696.5,-46.19"/>
</a>
</g>
</g>
<!-- 8 -->
<g id="node28" class="node">
<title>8</title>
<g id="a_node28"><a xlink:title="stdlib.h">
<polygon fill="#ffffff" stroke="black" points="415.5,-108 344.5,-108 344.5,-72 415.5,-72 415.5,-108"/>
<text text-anchor="middle" x="380" y="-86.3" font-family="Times,serif" font-size="14.00">stdlib.h</text>
</a>
</g>
</g>
<!-- 10&#45;&gt;8 -->
<g id="edge2" class="edge">
<title>10&#45;&gt;8</title>
<g id="a_edge2"><a xlink:title="include">
<path fill="none" stroke="#1414ce" d="M659.8,-153.58C603.5,-140.98 489.21,-115.42 425.5,-101.18"/>
<polygon fill="#1414ce" stroke="#1414ce" points="426.25,-97.76 415.73,-98.99 424.72,-104.59 426.25,-97.76"/>
</a>
</g>
</g>
<!-- 27 -->
<g id="node2" class="node">
<title>27</title>
<g id="a_node2"><a xlink:title="atom_table.h">
<polygon fill="#ffffff" stroke="black" points="763.5,-252 654.5,-252 654.5,-216 763.5,-216 763.5,-252"/>
<text text-anchor="middle" x="709" y="-230.3" font-family="Times,serif" font-size="14.00">atom_table.h</text>
</a>
</g>
</g>
<!-- 27&#45;&gt;10 -->
<g id="edge4" class="edge">
<title>27&#45;&gt;10</title>
<g id="a_edge4"><a xlink:title="include">
<path fill="none" stroke="#1414ce" d="M705.04,-215.7C703.28,-207.98 701.16,-198.71 699.2,-190.11"/>
<polygon fill="#1414ce" stroke="#1414ce" points="702.55,-189.07 696.91,-180.1 695.73,-190.63 702.55,-189.07"/>
</a>
</g>
</g>
<!-- 12 -->
<g id="node19" class="node">
<title>12</title>
<g id="a_node19"><a xlink:title="utils.h">
<polygon fill="#ffffff" stroke="black" points="528,-180 466,-180 466,-144 528,-144 528,-180"/>
<text text-anchor="middle" x="497" y="-158.3" font-family="Times,serif" font-size="14.00">utils.h</text>
</a>
</g>
</g>
<!-- 27&#45;&gt;12 -->
<g id="edge5" class="edge">
<title>27&#45;&gt;12</title>
<g id="a_edge5"><a xlink:title="include">
<path fill="none" stroke="#1414ce" d="M657.41,-215.97C620.6,-203.81 571.77,-187.69 537.7,-176.44"/>
<polygon fill="#1414ce" stroke="#1414ce" points="538.66,-173.07 528.07,-173.26 536.46,-179.72 538.66,-173.07"/>
</a>
</g>
</g>
<!-- 5 -->
<g id="node24" class="node">
<title>5</title>
<g id="a_node24"><a xlink:title="stdbool.h">
<polygon fill="#ffffff" stroke="black" points="871.5,-108 788.5,-108 788.5,-72 871.5,-72 871.5,-108"/>
<text text-anchor="middle" x="830" y="-86.3" font-family="Times,serif" font-size="14.00">stdbool.h</text>
</a>
</g>
</g>
<!-- 27&#45;&gt;5 -->
<g id="edge3" class="edge">
<title>27&#45;&gt;5</title>
<g id="a_edge3"><a xlink:title="include">
<path fill="none" stroke="#1414ce" d="M723.6,-215.87C744.76,-191.03 784.12,-144.85 808.58,-116.14"/>
<polygon fill="#1414ce" stroke="#1414ce" points="811.53,-118.07 815.35,-108.19 806.2,-113.53 811.53,-118.07"/>
</a>
</g>
</g>
<!-- 1 -->
<g id="node3" class="node">
<title>1</title>
<g id="a_node3"><a xlink:title="/__w/AtomVM/AtomVM/src/libAtomVM/dist_nifs.h">
<polygon fill="#bfbfbf" stroke="black" points="562.5,-684 195.5,-684 195.5,-648 562.5,-648 562.5,-684"/>
<text text-anchor="middle" x="379" y="-662.3" font-family="Times,serif" font-size="14.00">/__w/AtomVM/AtomVM/src/libAtomVM/dist_nifs.h</text>
</a>
</g>
</g>
<!-- 2 -->
<g id="node6" class="node">
<title>2</title>
<g id="a_node6"><a xlink:title="exportedfunction.h">
<polygon fill="#ffffff" stroke="black" points="455,-540 303,-540 303,-504 455,-504 455,-540"/>
<text text-anchor="middle" x="379" y="-518.3" font-family="Times,serif" font-size="14.00">exportedfunction.h</text>
</a>
</g>
</g>
<!-- 1&#45;&gt;2 -->
<g id="edge6" class="edge">
<title>1&#45;&gt;2</title>
<g id="a_edge6"><a xlink:title="include">
<path fill="none" stroke="#1414ce" d="M379,-647.87C379,-623.67 379,-579.21 379,-550.39"/>
<polygon fill="#1414ce" stroke="#1414ce" points="382.5,-550.19 379,-540.19 375.5,-550.19 382.5,-550.19"/>
</a>
</g>
</g>
<!-- 26 -->
<g id="node7" class="node">
<title>26</title>
<g id="a_node7"><a xlink:title="globalcontext.h">
<polygon fill="#ffffff" stroke="black" points="1045.5,-612 918.5,-612 918.5,-576 1045.5,-576 1045.5,-612"/>
<text text-anchor="middle" x="982" y="-590.3" font-family="Times,serif" font-size="14.00">globalcontext.h</text>
</a>
</g>
</g>
<!-- 1&#45;&gt;26 -->
<g id="edge7" class="edge">
<title>1&#45;&gt;26</title>
<g id="a_edge7"><a xlink:title="include">
<path fill="none" stroke="#1414ce" d="M525.74,-647.97C646.83,-633.91 813.61,-614.55 908.36,-603.55"/>
<polygon fill="#1414ce" stroke="#1414ce" points="908.89,-607.01 918.42,-602.38 908.08,-600.06 908.89,-607.01"/>
</a>
</g>
</g>
<!-- 3 -->
<g id="node16" class="node">
<title>3</title>
<g id="a_node16"><a xlink:title="term.h">
<polygon fill="#ffffff" stroke="black" points="411.5,-468 346.5,-468 346.5,-432 411.5,-432 411.5,-468"/>
<text text-anchor="middle" x="379" y="-446.3" font-family="Times,serif" font-size="14.00">term.h</text>
</a>
</g>
</g>
<!-- 1&#45;&gt;3 -->
<g id="edge8" class="edge">
<title>1&#45;&gt;3</title>
<g id="a_edge8"><a xlink:title="include">
<path fill="none" stroke="#1414ce" d="M362.2,-647.79C341.48,-625.22 307.36,-583.39 294,-540 289.29,-524.71 286.24,-517.99 294,-504 303.4,-487.06 320.71,-474.83 337.27,-466.42"/>
<polygon fill="#1414ce" stroke="#1414ce" points="338.79,-469.57 346.33,-462.13 335.8,-463.24 338.79,-469.57"/>
</a>
</g>
</g>
<!-- 16 -->
<g id="node4" class="node">
<title>16</title>
<g id="a_node4"><a xlink:title="erl_nif.h">
<polygon fill="#ffffff" stroke="black" points="111,-180 37,-180 37,-144 111,-144 111,-180"/>
<text text-anchor="middle" x="74" y="-158.3" font-family="Times,serif" font-size="14.00">erl_nif.h</text>
</a>
</g>
</g>
<!-- 17 -->
<g id="node17" class="node">
<title>17</title>
<g id="a_node17"><a xlink:title="term_typedef.h">
<polygon fill="#ffffff" stroke="black" points="148.5,-108 23.5,-108 23.5,-72 148.5,-72 148.5,-108"/>
<text text-anchor="middle" x="86" y="-86.3" font-family="Times,serif" font-size="14.00">term_typedef.h</text>
</a>
</g>
</g>
<!-- 16&#45;&gt;17 -->
<g id="edge9" class="edge">
<title>16&#45;&gt;17</title>
<g id="a_edge9"><a xlink:title="include">
<path fill="none" stroke="#1414ce" d="M76.97,-143.7C78.29,-135.98 79.88,-126.71 81.35,-118.11"/>
<polygon fill="#1414ce" stroke="#1414ce" points="84.83,-118.55 83.07,-108.1 77.93,-117.37 84.83,-118.55"/>
</a>
</g>
</g>
<!-- 28 -->
<g id="node5" class="node">
<title>28</title>
<g id="a_node5"><a xlink:title="ets.h">
<polygon fill="#ffffff" stroke="black" points="1064,-540 1010,-540 1010,-504 1064,-504 1064,-540"/>
<text text-anchor="middle" x="1037" y="-518.3" font-family="Times,serif" font-size="14.00">ets.h</text>
</a>
</g>
</g>
<!-- 21 -->
<g id="node9" class="node">
<title>21</title>
<g id="a_node9"><a xlink:title="list.h">
<polygon fill="#ffffff" stroke="black" points="959,-180 905,-180 905,-144 959,-144 959,-180"/>
<text text-anchor="middle" x="932" y="-158.3" font-family="Times,serif" font-size="14.00">list.h</text>
</a>
</g>
</g>
<!-- 28&#45;&gt;21 -->
<g id="edge10" class="edge">
<title>28&#45;&gt;21</title>
<g id="a_edge10"><a xlink:title="include">
<path fill="none" stroke="#1414ce" d="M1047.15,-503.73C1061.51,-477.64 1086,-426.2 1086,-379 1086,-379 1086,-379 1086,-305 1086,-264.46 1092.35,-246.81 1066,-216 1065.15,-215.01 1008.17,-192.67 968.79,-177.32"/>
<polygon fill="#1414ce" stroke="#1414ce" points="969.79,-173.95 959.21,-173.58 967.25,-180.47 969.79,-173.95"/>
</a>
</g>
</g>
<!-- 24 -->
<g id="node15" class="node">
<title>24</title>
<g id="a_node15"><a xlink:title="synclist.h">
<polygon fill="#ffffff" stroke="black" points="1057.5,-252 972.5,-252 972.5,-216 1057.5,-216 1057.5,-252"/>
<text text-anchor="middle" x="1015" y="-230.3" font-family="Times,serif" font-size="14.00">synclist.h</text>
</a>
</g>
</g>
<!-- 28&#45;&gt;24 -->
<g id="edge11" class="edge">
<title>28&#45;&gt;24</title>
<g id="a_edge11"><a xlink:title="include">
<path fill="none" stroke="#1414ce" d="M1035.69,-503.97C1032.02,-456.29 1021.63,-321.18 1017.13,-262.63"/>
<polygon fill="#1414ce" stroke="#1414ce" points="1020.59,-262.01 1016.33,-252.31 1013.61,-262.55 1020.59,-262.01"/>
</a>
</g>
</g>
<!-- 28&#45;&gt;3 -->
<g id="edge12" class="edge">
<title>28&#45;&gt;3</title>
<g id="a_edge12"><a xlink:title="include">
<path fill="none" stroke="#1414ce" d="M1009.98,-518.13C908.11,-507.29 546.79,-468.85 421.86,-455.56"/>
<polygon fill="#1414ce" stroke="#1414ce" points="421.87,-452.04 411.56,-454.46 421.13,-459 421.87,-452.04"/>
</a>
</g>
</g>
<!-- 2&#45;&gt;3 -->
<g id="edge13" class="edge">
<title>2&#45;&gt;3</title>
<g id="a_edge13"><a xlink:title="include">
<path fill="none" stroke="#1414ce" d="M379,-503.7C379,-495.98 379,-486.71 379,-478.11"/>
<polygon fill="#1414ce" stroke="#1414ce" points="382.5,-478.1 379,-468.1 375.5,-478.1 382.5,-478.1"/>
</a>
</g>
</g>
<!-- 26&#45;&gt;10 -->
<g id="edge15" class="edge">
<title>26&#45;&gt;10</title>
<g id="a_edge15"><a xlink:title="include">
<path fill="none" stroke="#1414ce" d="M974.31,-575.91C963.21,-549.62 944,-497.45 944,-451 944,-451 944,-451 944,-305 944,-257.72 807.38,-202.91 735.73,-177.42"/>
<polygon fill="#1414ce" stroke="#1414ce" points="736.67,-174.04 726.07,-174.02 734.34,-180.64 736.67,-174.04"/>
</a>
</g>
</g>
<!-- 26&#45;&gt;27 -->
<g id="edge16" class="edge">
<title>26&#45;&gt;27</title>
<g id="a_edge16"><a xlink:title="include">
<path fill="none" stroke="#1414ce" d="M963.23,-575.7C952.89,-565.73 940.13,-552.69 930,-540 846.94,-435.94 854.3,-389.39 768,-288 759.2,-277.66 748.42,-267.42 738.5,-258.74"/>
<polygon fill="#1414ce" stroke="#1414ce" points="740.65,-255.97 730.77,-252.14 736.1,-261.29 740.65,-255.97"/>
</a>
</g>
</g>
<!-- 26&#45;&gt;16 -->
<g id="edge17" class="edge">
<title>26&#45;&gt;16</title>
<g id="a_edge17"><a xlink:title="include">
<path fill="none" stroke="#1414ce" d="M918.15,-593.53C795.73,-593.36 520.04,-587.17 294,-540 176.08,-515.39 38,-571.46 38,-451 38,-451 38,-451 38,-305 38,-263.78 52.43,-217.83 63.02,-189.66"/>
<polygon fill="#1414ce" stroke="#1414ce" points="66.36,-190.72 66.71,-180.13 59.84,-188.19 66.36,-190.72"/>
</a>
</g>
</g>
<!-- 26&#45;&gt;28 -->
<g id="edge18" class="edge">
<title>26&#45;&gt;28</title>
<g id="a_edge18"><a xlink:title="include">
<path fill="none" stroke="#1414ce" d="M995.6,-575.7C1002.12,-567.39 1010.07,-557.28 1017.25,-548.14"/>
<polygon fill="#1414ce" stroke="#1414ce" points="1020.13,-550.13 1023.56,-540.1 1014.63,-545.81 1020.13,-550.13"/>
</a>
</g>
</g>
<!-- 26&#45;&gt;21 -->
<g id="edge19" class="edge">
<title>26&#45;&gt;21</title>
<g id="a_edge19"><a xlink:title="include">
<path fill="none" stroke="#1414ce" d="M1018.94,-575.95C1061.01,-553.69 1124,-510.44 1124,-451 1124,-451 1124,-451 1124,-305 1124,-262.66 1120.81,-245.04 1090,-216 1051.34,-179.55 1026.14,-197.58 976,-180 973.63,-179.17 971.2,-178.3 968.76,-177.4"/>
<polygon fill="#1414ce" stroke="#1414ce" points="969.96,-174.11 959.36,-173.88 967.5,-180.66 969.96,-174.11"/>
</a>
</g>
</g>
<!-- 23 -->
<g id="node10" class="node">
<title>23</title>
<g id="a_node10"><a xlink:title="mailbox.h">
<polygon fill="#ffffff" stroke="black" points="598,-252 512,-252 512,-216 598,-216 598,-252"/>
<text text-anchor="middle" x="555" y="-230.3" font-family="Times,serif" font-size="14.00">mailbox.h</text>
</a>
</g>
</g>
<!-- 26&#45;&gt;23 -->
<g id="edge20" class="edge">
<title>26&#45;&gt;23</title>
<g id="a_edge20"><a xlink:title="include">
<path fill="none" stroke="#1414ce" d="M918.49,-581.68C851.03,-565.58 754,-528.88 754,-451 754,-451 754,-451 754,-377 754,-305.18 667.06,-266.27 608.11,-248.13"/>
<polygon fill="#1414ce" stroke="#1414ce" points="608.76,-244.68 598.18,-245.19 606.77,-251.39 608.76,-244.68"/>
</a>
</g>
</g>
<!-- 25 -->
<g id="node14" class="node">
<title>25</title>
<g id="a_node14"><a xlink:title="smp.h">
<polygon fill="#ffffff" stroke="black" points="1045,-180 985,-180 985,-144 1045,-144 1045,-180"/>
<text text-anchor="middle" x="1015" y="-158.3" font-family="Times,serif" font-size="14.00">smp.h</text>
</a>
</g>
</g>
<!-- 26&#45;&gt;25 -->
<g id="edge21" class="edge">
<title>26&#45;&gt;25</title>
<g id="a_edge21"><a xlink:title="include">
<path fill="none" stroke="#1414ce" d="M1045.86,-585.56C1077.58,-578.68 1114.13,-565.45 1138,-540 1166.03,-510.12 1162,-491.97 1162,-451 1162,-451 1162,-451 1162,-305 1162,-264.03 1165.1,-246.72 1138,-216 1112.12,-186.66 1091.8,-195.57 1054.43,-181.6"/>
<polygon fill="#1414ce" stroke="#1414ce" points="1055.69,-178.34 1045.11,-177.77 1053.03,-184.81 1055.69,-178.34"/>
</a>
</g>
</g>
<!-- 26&#45;&gt;24 -->
<g id="edge22" class="edge">
<title>26&#45;&gt;24</title>
<g id="a_edge22"><a xlink:title="include">
<path fill="none" stroke="#1414ce" d="M982,-575.95C982,-549.29 982,-496.11 982,-451 982,-451 982,-451 982,-377 982,-335.97 995.23,-289.97 1004.94,-261.74"/>
<polygon fill="#1414ce" stroke="#1414ce" points="1008.28,-262.78 1008.32,-252.19 1001.68,-260.45 1008.28,-262.78"/>
</a>
</g>
</g>
<!-- 26&#45;&gt;3 -->
<g id="edge23" class="edge">
<title>26&#45;&gt;3</title>
<g id="a_edge23"><a xlink:title="include">
<path fill="none" stroke="#1414ce" d="M918.46,-579.56C869.59,-569.11 800.43,-554.06 740,-540 624.59,-513.14 489.06,-479.04 421.62,-461.89"/>
<polygon fill="#1414ce" stroke="#1414ce" points="422.34,-458.46 411.78,-459.39 420.61,-465.24 422.34,-458.46"/>
</a>
</g>
</g>
<!-- 29 -->
<g id="node18" class="node">
<title>29</title>
<g id="a_node18"><a xlink:title="timer_list.h">
<polygon fill="#ffffff" stroke="black" points="1288,-252 1190,-252 1190,-216 1288,-216 1288,-252"/>
<text text-anchor="middle" x="1239" y="-230.3" font-family="Times,serif" font-size="14.00">timer_list.h</text>
</a>
</g>
</g>
<!-- 26&#45;&gt;29 -->
<g id="edge24" class="edge">
<title>26&#45;&gt;29</title>
<g id="a_edge24"><a xlink:title="include">
<path fill="none" stroke="#1414ce" d="M1045.76,-588.89C1086.89,-583.27 1139.35,-570.2 1176,-540 1210.05,-511.94 1220,-495.13 1220,-451 1220,-451 1220,-451 1220,-377 1220,-336.86 1227.55,-290.9 1233.13,-262.4"/>
<polygon fill="#1414ce" stroke="#1414ce" points="1236.61,-262.88 1235.16,-252.39 1229.74,-261.5 1236.61,-262.88"/>
</a>
</g>
</g>
<!-- 30 -->
<g id="node20" class="node">
<title>30</title>
<g id="a_node20"><a xlink:title="valueshashtable.h">
<polygon fill="#ffffff" stroke="black" points="1459,-180 1313,-180 1313,-144 1459,-144 1459,-180"/>
<text text-anchor="middle" x="1386" y="-158.3" font-family="Times,serif" font-size="14.00">valueshashtable.h</text>
</a>
</g>
</g>
<!-- 26&#45;&gt;30 -->
<g id="edge25" class="edge">
<title>26&#45;&gt;30</title>
<g id="a_edge25"><a xlink:title="include">
<path fill="none" stroke="#1414ce" d="M1045.86,-590.7C1134.05,-586.31 1287.09,-573.91 1330,-540 1363.48,-513.54 1366,-493.67 1366,-451 1366,-451 1366,-451 1366,-305 1366,-264.82 1373.95,-218.87 1379.82,-190.39"/>
<polygon fill="#1414ce" stroke="#1414ce" points="1383.3,-190.89 1381.95,-180.38 1376.45,-189.43 1383.3,-190.89"/>
</a>
</g>
</g>
<!-- 26&#45;&gt;6 -->
<g id="edge14" class="edge">
<title>26&#45;&gt;6</title>
<g id="a_edge14"><a xlink:title="include">
<path fill="none" stroke="#1414ce" d="M1045.61,-593.16C1142.52,-589.69 1316,-567.25 1316,-451 1316,-451 1316,-451 1316,-305 1316,-170.25 1245.81,-125.18 1122,-72 1053.89,-42.74 835.43,-27.08 739.23,-21.45"/>
<polygon fill="#1414ce" stroke="#1414ce" points="739.39,-17.96 729.21,-20.88 738.99,-24.94 739.39,-17.96"/>
</a>
</g>
</g>
<!-- 11 -->
<g id="node8" class="node">
<title>11</title>
<g id="a_node8"><a xlink:title="intn.h">
<polygon fill="#ffffff" stroke="black" points="327.5,-396 268.5,-396 268.5,-360 327.5,-360 327.5,-396"/>
<text text-anchor="middle" x="298" y="-374.3" font-family="Times,serif" font-size="14.00">intn.h</text>
</a>
</g>
</g>
<!-- 11&#45;&gt;12 -->
<g id="edge28" class="edge">
<title>11&#45;&gt;12</title>
<g id="a_edge28"><a xlink:title="include">
<path fill="none" stroke="#1414ce" d="M294.57,-359.58C289.26,-327.19 283.03,-257.25 318,-216 351.91,-176.01 414.45,-165.39 455.89,-163"/>
<polygon fill="#1414ce" stroke="#1414ce" points="456.11,-166.49 465.94,-162.56 455.8,-159.5 456.11,-166.49"/>
</a>
</g>
</g>
<!-- 11&#45;&gt;5 -->
<g id="edge26" class="edge">
<title>11&#45;&gt;5</title>
<g id="a_edge26"><a xlink:title="include">
<path fill="none" stroke="#1414ce" d="M314.64,-359.86C358.25,-316.07 481.3,-199.57 608,-144 663.67,-119.59 732.33,-105.4 778.43,-97.95"/>
<polygon fill="#1414ce" stroke="#1414ce" points="779.15,-101.38 788.49,-96.37 778.06,-94.47 779.15,-101.38"/>
</a>
</g>
</g>
<!-- 9 -->
<g id="node29" class="node">
<title>9</title>
<g id="a_node29"><a xlink:title="string.h">
<polygon fill="#ffffff" stroke="black" points="265.5,-324 192.5,-324 192.5,-288 265.5,-288 265.5,-324"/>
<text text-anchor="middle" x="229" y="-302.3" font-family="Times,serif" font-size="14.00">string.h</text>
</a>
</g>
</g>
<!-- 11&#45;&gt;9 -->
<g id="edge27" class="edge">
<title>11&#45;&gt;9</title>
<g id="a_edge27"><a xlink:title="include">
<path fill="none" stroke="#1414ce" d="M280.94,-359.7C272.5,-351.14 262.18,-340.66 252.96,-331.3"/>
<polygon fill="#1414ce" stroke="#1414ce" points="255.37,-328.77 245.86,-324.1 250.39,-333.68 255.37,-328.77"/>
</a>
</g>
</g>
<!-- 21&#45;&gt;5 -->
<g id="edge29" class="edge">
<title>21&#45;&gt;5</title>
<g id="a_edge29"><a xlink:title="include">
<path fill="none" stroke="#1414ce" d="M907.05,-143.88C893.96,-134.89 877.74,-123.76 863.56,-114.03"/>
<polygon fill="#1414ce" stroke="#1414ce" points="865.27,-110.96 855.05,-108.19 861.31,-116.73 865.27,-110.96"/>
</a>
</g>
</g>
<!-- 23&#45;&gt;21 -->
<g id="edge31" class="edge">
<title>23&#45;&gt;21</title>
<g id="a_edge31"><a xlink:title="include">
<path fill="none" stroke="#1414ce" d="M598.03,-224.84C612.9,-222.02 629.68,-218.86 645,-216 734.61,-199.26 840.01,-179.88 894.75,-169.83"/>
<polygon fill="#1414ce" stroke="#1414ce" points="895.48,-173.25 904.69,-168.01 894.22,-166.37 895.48,-173.25"/>
</a>
</g>
</g>
<!-- 23&#45;&gt;17 -->
<g id="edge32" class="edge">
<title>23&#45;&gt;17</title>
<g id="a_edge32"><a xlink:title="include">
<path fill="none" stroke="#1414ce" d="M511.72,-219.9C429.39,-194.97 249.78,-140.59 152.24,-111.05"/>
<polygon fill="#1414ce" stroke="#1414ce" points="153.07,-107.65 142.48,-108.1 151.04,-114.35 153.07,-107.65"/>
</a>
</g>
</g>
<!-- 23&#45;&gt;12 -->
<g id="edge33" class="edge">
<title>23&#45;&gt;12</title>
<g id="a_edge33"><a xlink:title="include">
<path fill="none" stroke="#1414ce" d="M540.66,-215.7C533.71,-207.3 525.23,-197.07 517.6,-187.86"/>
<polygon fill="#1414ce" stroke="#1414ce" points="520.25,-185.57 511.17,-180.1 514.86,-190.04 520.25,-185.57"/>
</a>
</g>
</g>
<!-- 23&#45;&gt;5 -->
<g id="edge30" class="edge">
<title>23&#45;&gt;5</title>
<g id="a_edge30"><a xlink:title="include">
<path fill="none" stroke="#1414ce" d="M572.59,-215.87C597.77,-191.47 642.06,-149.09 651,-144 690.77,-121.35 741.14,-107.56 778.3,-99.75"/>
<polygon fill="#1414ce" stroke="#1414ce" points="779.31,-103.12 788.42,-97.7 777.92,-96.25 779.31,-103.12"/>
</a>
</g>
</g>
<!-- 15 -->
<g id="node11" class="node">
<title>15</title>
<g id="a_node11"><a xlink:title="memory.h">
<polygon fill="#ffffff" stroke="black" points="266,-252 180,-252 180,-216 266,-216 266,-252"/>
<text text-anchor="middle" x="223" y="-230.3" font-family="Times,serif" font-size="14.00">memory.h</text>
</a>
</g>
</g>
<!-- 15&#45;&gt;16 -->
<g id="edge36" class="edge">
<title>15&#45;&gt;16</title>
<g id="a_edge36"><a xlink:title="include">
<path fill="none" stroke="#1414ce" d="M186.55,-215.88C166.36,-206.39 141.08,-194.51 119.59,-184.42"/>
<polygon fill="#1414ce" stroke="#1414ce" points="120.87,-181.15 110.33,-180.07 117.89,-187.49 120.87,-181.15"/>
</a>
</g>
</g>
<!-- 15&#45;&gt;17 -->
<g id="edge37" class="edge">
<title>15&#45;&gt;17</title>
<g id="a_edge37"><a xlink:title="include">
<path fill="none" stroke="#1414ce" d="M206.47,-215.87C182.3,-190.82 137.18,-144.05 109.55,-115.41"/>
<polygon fill="#1414ce" stroke="#1414ce" points="112.05,-112.96 102.58,-108.19 107.01,-117.82 112.05,-112.96"/>
</a>
</g>
</g>
<!-- 15&#45;&gt;12 -->
<g id="edge38" class="edge">
<title>15&#45;&gt;12</title>
<g id="a_edge38"><a xlink:title="include">
<path fill="none" stroke="#1414ce" d="M266.19,-219.87C270.85,-218.53 275.51,-217.22 280,-216 340.99,-199.47 412.25,-182.51 456,-172.37"/>
<polygon fill="#1414ce" stroke="#1414ce" points="457.02,-175.72 465.97,-170.06 455.44,-168.9 457.02,-175.72"/>
</a>
</g>
</g>
<!-- 15&#45;&gt;6 -->
<g id="edge34" class="edge">
<title>15&#45;&gt;6</title>
<g id="a_edge34"><a xlink:title="include">
<path fill="none" stroke="#1414ce" d="M229.18,-215.9C242.51,-181.76 277.51,-105.56 335,-72 387.09,-41.59 562.41,-26.99 646.82,-21.58"/>
<polygon fill="#1414ce" stroke="#1414ce" points="647.13,-25.07 656.89,-20.95 646.69,-18.08 647.13,-25.07"/>
</a>
</g>
</g>
<!-- 15&#45;&gt;8 -->
<g id="edge35" class="edge">
<title>15&#45;&gt;8</title>
<g id="a_edge35"><a xlink:title="include">
<path fill="none" stroke="#1414ce" d="M241.94,-215.87C269.76,-190.71 321.78,-143.65 353.42,-115.04"/>
<polygon fill="#1414ce" stroke="#1414ce" points="355.93,-117.49 360.99,-108.19 351.23,-112.3 355.93,-117.49"/>
</a>
</g>
</g>
<!-- 20 -->
<g id="node12" class="node">
<title>20</title>
<g id="a_node12"><a xlink:title="refc_binary.h">
<polygon fill="#ffffff" stroke="black" points="688,-396 580,-396 580,-360 688,-360 688,-396"/>
<text text-anchor="middle" x="634" y="-374.3" font-family="Times,serif" font-size="14.00">refc_binary.h</text>
</a>
</g>
</g>
<!-- 20&#45;&gt;21 -->
<g id="edge41" class="edge">
<title>20&#45;&gt;21</title>
<g id="a_edge41"><a xlink:title="include">
<path fill="none" stroke="#1414ce" d="M688.35,-375.11C734.11,-370.96 799.11,-358.76 844,-324 888.47,-289.56 913.46,-226.04 924.69,-189.93"/>
<polygon fill="#1414ce" stroke="#1414ce" points="928.11,-190.68 927.61,-180.1 921.41,-188.68 928.11,-190.68"/>
</a>
</g>
</g>
<!-- 22 -->
<g id="node13" class="node">
<title>22</title>
<g id="a_node13"><a xlink:title="resources.h">
<polygon fill="#ffffff" stroke="black" points="536,-324 436,-324 436,-288 536,-288 536,-324"/>
<text text-anchor="middle" x="486" y="-302.3" font-family="Times,serif" font-size="14.00">resources.h</text>
</a>
</g>
</g>
<!-- 20&#45;&gt;22 -->
<g id="edge42" class="edge">
<title>20&#45;&gt;22</title>
<g id="a_edge42"><a xlink:title="include">
<path fill="none" stroke="#1414ce" d="M597.8,-359.88C577.74,-350.39 552.63,-338.51 531.29,-328.42"/>
<polygon fill="#1414ce" stroke="#1414ce" points="532.62,-325.18 522.09,-324.07 529.63,-331.51 532.62,-325.18"/>
</a>
</g>
</g>
<!-- 20&#45;&gt;5 -->
<g id="edge39" class="edge">
<title>20&#45;&gt;5</title>
<g id="a_edge39"><a xlink:title="include">
<path fill="none" stroke="#1414ce" d="M659.36,-360C690,-338.27 741.23,-297.92 772,-252 800.35,-209.68 816.74,-151.84 824.48,-118.24"/>
<polygon fill="#1414ce" stroke="#1414ce" points="827.95,-118.75 826.69,-108.23 821.11,-117.24 827.95,-118.75"/>
</a>
</g>
</g>
<!-- 20&#45;&gt;8 -->
<g id="edge40" class="edge">
<title>20&#45;&gt;8</title>
<g id="a_edge40"><a xlink:title="include">
<path fill="none" stroke="#1414ce" d="M617.64,-359.88C600.07,-341.66 571.13,-312.2 545,-288 526.96,-271.3 519.89,-269.87 503,-252 461.26,-207.84 419.84,-149.96 397.32,-116.99"/>
<polygon fill="#1414ce" stroke="#1414ce" points="399.99,-114.7 391.48,-108.38 394.2,-118.62 399.99,-114.7"/>
</a>
</g>
</g>
<!-- 22&#45;&gt;16 -->
<g id="edge44" class="edge">
<title>22&#45;&gt;16</title>
<g id="a_edge44"><a xlink:title="include">
<path fill="none" stroke="#1414ce" d="M435.88,-305.2C371.4,-303.57 257.45,-294.24 171,-252 140,-236.85 111.83,-208.62 93.93,-188"/>
<polygon fill="#1414ce" stroke="#1414ce" points="96.5,-185.62 87.37,-180.24 91.16,-190.14 96.5,-185.62"/>
</a>
</g>
</g>
<!-- 22&#45;&gt;21 -->
<g id="edge45" class="edge">
<title>22&#45;&gt;21</title>
<g id="a_edge45"><a xlink:title="include">
<path fill="none" stroke="#1414ce" d="M536.11,-300.67C594.24,-294.53 692.29,-280.68 772,-252 818.41,-235.3 867.35,-206.14 898.69,-185.77"/>
<polygon fill="#1414ce" stroke="#1414ce" points="901.01,-188.43 907.44,-180.01 897.17,-182.58 901.01,-188.43"/>
</a>
</g>
</g>
<!-- 22&#45;&gt;23 -->
<g id="edge46" class="edge">
<title>22&#45;&gt;23</title>
<g id="a_edge46"><a xlink:title="include">
<path fill="none" stroke="#1414ce" d="M503.06,-287.7C511.5,-279.14 521.82,-268.66 531.04,-259.3"/>
<polygon fill="#1414ce" stroke="#1414ce" points="533.61,-261.68 538.14,-252.1 528.63,-256.77 533.61,-261.68"/>
</a>
</g>
</g>
<!-- 22&#45;&gt;15 -->
<g id="edge47" class="edge">
<title>22&#45;&gt;15</title>
<g id="a_edge47"><a xlink:title="include">
<path fill="none" stroke="#1414ce" d="M435.91,-291.67C390.23,-279.51 322.94,-261.6 276.28,-249.18"/>
<polygon fill="#1414ce" stroke="#1414ce" points="276.93,-245.73 266.36,-246.54 275.13,-252.5 276.93,-245.73"/>
</a>
</g>
</g>
<!-- 22&#45;&gt;24 -->
<g id="edge48" class="edge">
<title>22&#45;&gt;24</title>
<g id="a_edge48"><a xlink:title="include">
<path fill="none" stroke="#1414ce" d="M536.24,-298.35C636.35,-285.1 859.85,-255.53 962.1,-242"/>
<polygon fill="#1414ce" stroke="#1414ce" points="962.74,-245.45 972.2,-240.66 961.82,-238.51 962.74,-245.45"/>
</a>
</g>
</g>
<!-- 22&#45;&gt;8 -->
<g id="edge43" class="edge">
<title>22&#45;&gt;8</title>
<g id="a_edge43"><a xlink:title="include">
<path fill="none" stroke="#1414ce" d="M464.03,-287.84C453.08,-278.31 440.43,-265.63 432,-252 405.52,-209.16 391.19,-151.49 384.61,-118.07"/>
<polygon fill="#1414ce" stroke="#1414ce" points="388.02,-117.3 382.74,-108.12 381.14,-118.59 388.02,-117.3"/>
</a>
</g>
</g>
<!-- 25&#45;&gt;5 -->
<g id="edge49" class="edge">
<title>25&#45;&gt;5</title>
<g id="a_edge49"><a xlink:title="include">
<path fill="none" stroke="#1414ce" d="M984.86,-149.6C956.82,-138.98 914.44,-122.95 881.11,-110.34"/>
<polygon fill="#1414ce" stroke="#1414ce" points="882.12,-106.98 871.52,-106.71 879.64,-113.52 882.12,-106.98"/>
</a>
</g>
</g>
<!-- 24&#45;&gt;21 -->
<g id="edge51" class="edge">
<title>24&#45;&gt;21</title>
<g id="a_edge51"><a xlink:title="include">
<path fill="none" stroke="#1414ce" d="M994.48,-215.7C984.13,-206.97 971.41,-196.24 960.16,-186.75"/>
<polygon fill="#1414ce" stroke="#1414ce" points="962.18,-183.88 952.28,-180.1 957.67,-189.23 962.18,-183.88"/>
</a>
</g>
</g>
<!-- 24&#45;&gt;25 -->
<g id="edge52" class="edge">
<title>24&#45;&gt;25</title>
<g id="a_edge52"><a xlink:title="include">
<path fill="none" stroke="#1414ce" d="M1015,-215.7C1015,-207.98 1015,-198.71 1015,-190.11"/>
<polygon fill="#1414ce" stroke="#1414ce" points="1018.5,-190.1 1015,-180.1 1011.5,-190.1 1018.5,-190.1"/>
</a>
</g>
</g>
<!-- 7 -->
<g id="node27" class="node">
<title>7</title>
<g id="a_node27"><a xlink:title="stdio.h">
<polygon fill="#ffffff" stroke="black" points="626.5,-108 561.5,-108 561.5,-72 626.5,-72 626.5,-108"/>
<text text-anchor="middle" x="594" y="-86.3" font-family="Times,serif" font-size="14.00">stdio.h</text>
</a>
</g>
</g>
<!-- 24&#45;&gt;7 -->
<g id="edge50" class="edge">
<title>24&#45;&gt;7</title>
<g id="a_edge50"><a xlink:title="include">
<path fill="none" stroke="#1414ce" d="M972.32,-218.6C891.53,-191.35 717.15,-132.54 636.5,-105.34"/>
<polygon fill="#1414ce" stroke="#1414ce" points="637.28,-101.9 626.68,-102.02 635.04,-108.54 637.28,-101.9"/>
</a>
</g>
</g>
<!-- 3&#45;&gt;10 -->
<g id="edge59" class="edge">
<title>3&#45;&gt;10</title>
<g id="a_edge59"><a xlink:title="include">
<path fill="none" stroke="#1414ce" d="M411.69,-448.66C485.34,-447.11 660.64,-438.92 697,-396 724.7,-363.3 660.96,-321.92 645,-252 641.44,-236.4 639.24,-230.93 645,-216 649.1,-205.36 656.44,-195.53 664.17,-187.3"/>
<polygon fill="#1414ce" stroke="#1414ce" points="666.67,-189.75 671.29,-180.21 661.73,-184.78 666.67,-189.75"/>
</a>
</g>
</g>
<!-- 3&#45;&gt;11 -->
<g id="edge60" class="edge">
<title>3&#45;&gt;11</title>
<g id="a_edge60"><a xlink:title="include">
<path fill="none" stroke="#1414ce" d="M358.98,-431.7C348.87,-422.97 336.46,-412.24 325.48,-402.75"/>
<polygon fill="#1414ce" stroke="#1414ce" points="327.65,-399.99 317.79,-396.1 323.07,-405.29 327.65,-399.99"/>
</a>
</g>
</g>
<!-- 3&#45;&gt;15 -->
<g id="edge61" class="edge">
<title>3&#45;&gt;15</title>
<g id="a_edge61"><a xlink:title="include">
<path fill="none" stroke="#1414ce" d="M346.28,-442.57C315.46,-435.28 269.2,-421.01 236,-396 193.29,-363.83 166.02,-338.7 183,-288 186.35,-278 192.42,-268.38 198.83,-260.14"/>
<polygon fill="#1414ce" stroke="#1414ce" points="201.56,-262.33 205.27,-252.4 196.18,-257.85 201.56,-262.33"/>
</a>
</g>
</g>
<!-- 3&#45;&gt;20 -->
<g id="edge62" class="edge">
<title>3&#45;&gt;20</title>
<g id="a_edge62"><a xlink:title="include">
<path fill="none" stroke="#1414ce" d="M411.55,-440.06C451.33,-429.14 519.55,-410.42 569.98,-396.57"/>
<polygon fill="#1414ce" stroke="#1414ce" points="571.1,-399.9 579.82,-393.87 569.25,-393.15 571.1,-399.9"/>
</a>
</g>
</g>
<!-- 3&#45;&gt;22 -->
<g id="edge63" class="edge">
<title>3&#45;&gt;22</title>
<g id="a_edge63"><a xlink:title="include">
<path fill="none" stroke="#1414ce" d="M391.91,-431.87C410.54,-407.14 445.13,-361.24 466.78,-332.51"/>
<polygon fill="#1414ce" stroke="#1414ce" points="469.82,-334.28 473.05,-324.19 464.23,-330.07 469.82,-334.28"/>
</a>
</g>
</g>
<!-- 3&#45;&gt;17 -->
<g id="edge65" class="edge">
<title>3&#45;&gt;17</title>
<g id="a_edge65"><a xlink:title="include">
<path fill="none" stroke="#1414ce" d="M346.37,-446.74C275.28,-441.32 109.04,-425.75 62,-396 21.26,-370.23 0,-355.21 0,-307 0,-307 0,-307 0,-233 0,-191.53 5.71,-178.96 28,-144 34.93,-133.13 44.65,-123.06 54.16,-114.68"/>
<polygon fill="#1414ce" stroke="#1414ce" points="56.63,-117.18 62.03,-108.06 52.12,-111.82 56.63,-117.18"/>
</a>
</g>
</g>
<!-- 3&#45;&gt;12 -->
<g id="edge64" class="edge">
<title>3&#45;&gt;12</title>
<g id="a_edge64"><a xlink:title="include">
<path fill="none" stroke="#1414ce" d="M377.16,-431.67C374.66,-401.18 372.68,-336.58 394,-288 411.54,-248.04 445.67,-210.59 469.83,-187.29"/>
<polygon fill="#1414ce" stroke="#1414ce" points="472.43,-189.65 477.29,-180.24 467.62,-184.56 472.43,-189.65"/>
</a>
</g>
</g>
<!-- 3&#45;&gt;5 -->
<g id="edge54" class="edge">
<title>3&#45;&gt;5</title>
<g id="a_edge54"><a xlink:title="include">
<path fill="none" stroke="#1414ce" d="M411.56,-447.43C486.03,-443.29 666.15,-429.96 715,-396 803.79,-334.28 803.39,-285.53 827,-180 831.53,-159.76 832.13,-136.29 831.69,-118.54"/>
<polygon fill="#1414ce" stroke="#1414ce" points="835.17,-118.16 831.3,-108.3 828.18,-118.43 835.17,-118.16"/>
</a>
</g>
</g>
<!-- 3&#45;&gt;6 -->
<g id="edge55" class="edge">
<title>3&#45;&gt;6</title>
<g id="a_edge55"><a xlink:title="include">
<path fill="none" stroke="#1414ce" d="M346.11,-445.62C291.95,-439.3 187.7,-423.79 165,-396 114.4,-334.04 134.68,-290.43 164,-216 195.28,-136.6 215.69,-112.13 291,-72 351.79,-39.61 554.58,-25.77 646.72,-21.04"/>
<polygon fill="#1414ce" stroke="#1414ce" points="647.06,-24.53 656.87,-20.54 646.71,-17.54 647.06,-24.53"/>
</a>
</g>
</g>
<!-- 3&#45;&gt;7 -->
<g id="edge56" class="edge">
<title>3&#45;&gt;7</title>
<g id="a_edge56"><a xlink:title="include">
<path fill="none" stroke="#1414ce" d="M381.22,-431.88C385.82,-401.16 398.41,-335.47 427,-288 462.35,-229.31 493.81,-233.18 537,-180 553.23,-160.02 568.79,-135.21 579.54,-116.86"/>
<polygon fill="#1414ce" stroke="#1414ce" points="582.59,-118.58 584.56,-108.17 576.53,-115.08 582.59,-118.58"/>
</a>
</g>
</g>
<!-- 3&#45;&gt;8 -->
<g id="edge57" class="edge">
<title>3&#45;&gt;8</title>
<g id="a_edge57"><a xlink:title="include">
<path fill="none" stroke="#1414ce" d="M346.31,-449.15C304.57,-447.49 232.86,-438.16 192,-396 146.99,-349.56 172.35,-316.66 171,-252 170.67,-236 163.45,-230.11 171,-216 198.22,-165.14 229.39,-173.44 279,-144 297.42,-133.07 318.3,-121.92 336.28,-112.68"/>
<polygon fill="#1414ce" stroke="#1414ce" points="338.06,-115.69 345.38,-108.03 334.88,-109.46 338.06,-115.69"/>
</a>
</g>
</g>
<!-- 3&#45;&gt;9 -->
<g id="edge58" class="edge">
<title>3&#45;&gt;9</title>
<g id="a_edge58"><a xlink:title="include">
<path fill="none" stroke="#1414ce" d="M346.43,-442.31C319.52,-435.18 282.11,-421.31 259,-396 243.41,-378.93 235.89,-353.48 232.28,-334.16"/>
<polygon fill="#1414ce" stroke="#1414ce" points="235.71,-333.46 230.65,-324.15 228.8,-334.58 235.71,-333.46"/>
</a>
</g>
</g>
<!-- 4 -->
<g id="node30" class="node">
<title>4</title>
<g id="a_node30"><a xlink:title="sys/types.h">
<polygon fill="#ffffff" stroke="black" points="561.5,-396 464.5,-396 464.5,-360 561.5,-360 561.5,-396"/>
<text text-anchor="middle" x="513" y="-374.3" font-family="Times,serif" font-size="14.00">sys/types.h</text>
</a>
</g>
</g>
<!-- 3&#45;&gt;4 -->
<g id="edge53" class="edge">
<title>3&#45;&gt;4</title>
<g id="a_edge53"><a xlink:title="include">
<path fill="none" stroke="#1414ce" d="M411.78,-431.88C429.63,-422.55 451.9,-410.92 471,-400.94"/>
<polygon fill="#1414ce" stroke="#1414ce" points="472.85,-403.92 480.09,-396.19 469.61,-397.72 472.85,-403.92"/>
</a>
</g>
</g>
<!-- 18 -->
<g id="node21" class="node">
<title>18</title>
<g id="a_node21"><a xlink:title="assert.h">
<polygon fill="#ffffff" stroke="black" points="169,-36 95,-36 95,0 169,0 169,-36"/>
<text text-anchor="middle" x="132" y="-14.3" font-family="Times,serif" font-size="14.00">assert.h</text>
</a>
</g>
</g>
<!-- 17&#45;&gt;18 -->
<g id="edge66" class="edge">
<title>17&#45;&gt;18</title>
<g id="a_edge66"><a xlink:title="include">
<path fill="none" stroke="#1414ce" d="M97.37,-71.7C102.72,-63.56 109.2,-53.69 115.11,-44.7"/>
<polygon fill="#1414ce" stroke="#1414ce" points="118.19,-46.38 120.76,-36.1 112.34,-42.54 118.19,-46.38"/>
</a>
</g>
</g>
<!-- 13 -->
<g id="node22" class="node">
<title>13</title>
<g id="a_node22"><a xlink:title="inttypes.h">
<polygon fill="#ffffff" stroke="black" points="395.5,-36 306.5,-36 306.5,0 395.5,0 395.5,-36"/>
<text text-anchor="middle" x="351" y="-14.3" font-family="Times,serif" font-size="14.00">inttypes.h</text>
</a>
</g>
</g>
<!-- 17&#45;&gt;13 -->
<g id="edge68" class="edge">
<title>17&#45;&gt;13</title>
<g id="a_edge68"><a xlink:title="include">
<path fill="none" stroke="#1414ce" d="M148.8,-72.41C193.81,-60.52 253.83,-44.67 296.76,-33.33"/>
<polygon fill="#1414ce" stroke="#1414ce" points="297.69,-36.7 306.47,-30.76 295.9,-29.93 297.69,-36.7"/>
</a>
</g>
</g>
<!-- 19 -->
<g id="node23" class="node">
<title>19</title>
<g id="a_node23"><a xlink:title="limits.h">
<polygon fill="#ffffff" stroke="black" points="76.5,-36 5.5,-36 5.5,0 76.5,0 76.5,-36"/>
<text text-anchor="middle" x="41" y="-14.3" font-family="Times,serif" font-size="14.00">limits.h</text>
</a>
</g>
</g>
<!-- 17&#45;&gt;19 -->
<g id="edge67" class="edge">
<title>17&#45;&gt;19</title>
<g id="a_edge67"><a xlink:title="include">
<path fill="none" stroke="#1414ce" d="M74.88,-71.7C69.64,-63.56 63.3,-53.69 57.52,-44.7"/>
<polygon fill="#1414ce" stroke="#1414ce" points="60.35,-42.62 52,-36.1 54.46,-46.41 60.35,-42.62"/>
</a>
</g>
</g>
<!-- 17&#45;&gt;6 -->
<g id="edge69" class="edge">
<title>17&#45;&gt;6</title>
<g id="a_edge69"><a xlink:title="include">
<path fill="none" stroke="#1414ce" d="M148.92,-74.48C153.67,-73.57 158.4,-72.73 163,-72 340.61,-43.61 554.28,-27.77 646.69,-21.79"/>
<polygon fill="#1414ce" stroke="#1414ce" points="647.07,-25.27 656.82,-21.14 646.62,-18.29 647.07,-25.27"/>
</a>
</g>
</g>
<!-- 29&#45;&gt;21 -->
<g id="edge72" class="edge">
<title>29&#45;&gt;21</title>
<g id="a_edge72"><a xlink:title="include">
<path fill="none" stroke="#1414ce" d="M1189.8,-224.12C1125.21,-212.28 1015.4,-191.49 976,-180 973.59,-179.3 971.13,-178.52 968.66,-177.7"/>
<polygon fill="#1414ce" stroke="#1414ce" points="969.81,-174.39 959.21,-174.34 967.47,-180.98 969.81,-174.39"/>
</a>
</g>
</g>
<!-- 29&#45;&gt;5 -->
<g id="edge70" class="edge">
<title>29&#45;&gt;5</title>
<g id="a_edge70"><a xlink:title="include">
<path fill="none" stroke="#1414ce" d="M1208.78,-215.94C1172.85,-196.26 1110.61,-164.05 1054,-144 996.39,-123.6 927.67,-108.66 881.67,-99.93"/>
<polygon fill="#1414ce" stroke="#1414ce" points="882.12,-96.46 871.64,-98.06 880.83,-103.34 882.12,-96.46"/>
</a>
</g>
</g>
<!-- 29&#45;&gt;6 -->
<g id="edge71" class="edge">
<title>29&#45;&gt;6</title>
<g id="a_edge71"><a xlink:title="include">
<path fill="none" stroke="#1414ce" d="M1228.09,-215.77C1205.49,-181.74 1149.99,-106.25 1082,-72 1022.79,-42.17 828.92,-27.07 739.25,-21.54"/>
<polygon fill="#1414ce" stroke="#1414ce" points="739.3,-18.04 729.1,-20.93 738.87,-25.02 739.3,-18.04"/>
</a>
</g>
</g>
<!-- 12&#45;&gt;13 -->
<g id="edge73" class="edge">
<title>12&#45;&gt;13</title>
<g id="a_edge73"><a xlink:title="include">
<path fill="none" stroke="#1414ce" d="M484.98,-143.83C471.38,-125.05 447.99,-94.62 424,-72 412.52,-61.18 398.77,-50.66 386.31,-41.89"/>
<polygon fill="#1414ce" stroke="#1414ce" points="388.16,-38.91 377.94,-36.12 384.18,-44.68 388.16,-38.91"/>
</a>
</g>
</g>
<!-- 12&#45;&gt;5 -->
<g id="edge74" class="edge">
<title>12&#45;&gt;5</title>
<g id="a_edge74"><a xlink:title="include">
<path fill="none" stroke="#1414ce" d="M528.23,-148.38C532.81,-146.77 537.49,-145.25 542,-144 623.32,-121.36 720.3,-105.79 778.42,-97.65"/>
<polygon fill="#1414ce" stroke="#1414ce" points="779.03,-101.1 788.46,-96.26 778.07,-94.16 779.03,-101.1"/>
</a>
</g>
</g>
<!-- 14 -->
<g id="node25" class="node">
<title>14</title>
<g id="a_node25"><a xlink:title="stddef.h">
<polygon fill="#ffffff" stroke="black" points="1073,-108 999,-108 999,-72 1073,-72 1073,-108"/>
<text text-anchor="middle" x="1036" y="-86.3" font-family="Times,serif" font-size="14.00">stddef.h</text>
</a>
</g>
</g>
<!-- 12&#45;&gt;14 -->
<g id="edge75" class="edge">
<title>12&#45;&gt;14</title>
<g id="a_edge75"><a xlink:title="include">
<path fill="none" stroke="#1414ce" d="M528.31,-156.93C618.75,-145.19 880.77,-111.16 988.69,-97.14"/>
<polygon fill="#1414ce" stroke="#1414ce" points="989.18,-100.61 998.64,-95.85 988.27,-93.67 989.18,-100.61"/>
</a>
</g>
</g>
<!-- 12&#45;&gt;7 -->
<g id="edge76" class="edge">
<title>12&#45;&gt;7</title>
<g id="a_edge76"><a xlink:title="include">
<path fill="none" stroke="#1414ce" d="M520.98,-143.7C533.31,-134.8 548.52,-123.82 561.85,-114.2"/>
<polygon fill="#1414ce" stroke="#1414ce" points="564.24,-116.79 570.3,-108.1 560.14,-111.12 564.24,-116.79"/>
</a>
</g>
</g>
<!-- 12&#45;&gt;8 -->
<g id="edge77" class="edge">
<title>12&#45;&gt;8</title>
<g id="a_edge77"><a xlink:title="include">
<path fill="none" stroke="#1414ce" d="M468.38,-143.88C453.08,-134.72 434.06,-123.34 417.58,-113.48"/>
<polygon fill="#1414ce" stroke="#1414ce" points="419.11,-110.32 408.73,-108.19 415.52,-116.33 419.11,-110.32"/>
</a>
</g>
</g>
<!-- 30&#45;&gt;14 -->
<g id="edge78" class="edge">
<title>30&#45;&gt;14</title>
<g id="a_edge78"><a xlink:title="include">
<path fill="none" stroke="#1414ce" d="M1312.63,-146.33C1243.61,-132.52 1142.31,-112.26 1083.36,-100.47"/>
<polygon fill="#1414ce" stroke="#1414ce" points="1083.71,-96.97 1073.22,-98.44 1082.34,-103.84 1083.71,-96.97"/>
</a>
</g>
</g>
<!-- 30&#45;&gt;6 -->
<g id="edge79" class="edge">
<title>30&#45;&gt;6</title>
<g id="a_edge79"><a xlink:title="include">
<path fill="none" stroke="#1414ce" d="M1374.9,-143.68C1360.32,-122.61 1332.59,-87.9 1299,-72 1199.98,-25.14 863.49,-19.42 739.43,-18.94"/>
<polygon fill="#1414ce" stroke="#1414ce" points="739.14,-15.44 729.13,-18.91 739.12,-22.44 739.14,-15.44"/>
</a>
</g>
</g>
</g>
</svg>
