<?xml version="1.0" encoding="UTF-8" standalone="no"?>
<!DOCTYPE svg PUBLIC "-//W3C//DTD SVG 1.1//EN"
 "http://www.w3.org/Graphics/SVG/1.1/DTD/svg11.dtd">
<!-- Generated by graphviz version 2.43.0 (0)
 -->
<!-- Title: %3 Pages: 1 -->
<svg width="4298pt" height="116pt"
 viewBox="0.00 0.00 4298.00 116.00" xmlns="http://www.w3.org/2000/svg" xmlns:xlink="http://www.w3.org/1999/xlink">
<g id="graph0" class="graph" transform="scale(1 1) rotate(0) translate(4 112)">
<title>%3</title>
<polygon fill="transparent" stroke="transparent" points="-4,4 -4,-112 4294,-112 4294,4 -4,4"/>
<!-- 2 -->
<g id="node1" class="node">
<title>2</title>
<g id="a_node1"><a xlink:title="/__w/AtomVM/AtomVM/src/libAtomVM/context.c">
<polygon fill="#ffffff" stroke="black" points="359,-36 0,-36 0,0 359,0 359,-36"/>
<text text-anchor="middle" x="179.5" y="-14.3" font-family="Times,serif" font-size="14.00">/__w/AtomVM/AtomVM/src/libAtomVM/context.c</text>
</a>
</g>
</g>
<!-- 3 -->
<g id="node2" class="node">
<title>3</title>
<g id="a_node2"><a xlink:title="/__w/AtomVM/AtomVM/src/libAtomVM/dist_nifs.c">
<polygon fill="#ffffff" stroke="black" points="742,-36 377,-36 377,0 742,0 742,-36"/>
<text text-anchor="middle" x="559.5" y="-14.3" font-family="Times,serif" font-size="14.00">/__w/AtomVM/AtomVM/src/libAtomVM/dist_nifs.c</text>
</a>
</g>
</g>
<!-- 1 -->
<g id="node3" class="node">
<title>1</title>
<g id="a_node3"><a xlink:title="/__w/AtomVM/AtomVM/src/libAtomVM/erl_nif_priv.h">
<polygon fill="#bfbfbf" stroke="black" points="2355,-108 1970,-108 1970,-72 2355,-72 2355,-108"/>
<text text-anchor="middle" x="2162.5" y="-86.3" font-family="Times,serif" font-size="14.00">/__w/AtomVM/AtomVM/src/libAtomVM/erl_nif_priv.h</text>
</a>
</g>
</g>
<!-- 1&#45;&gt;2 -->
<g id="edge1" class="edge">
<title>1&#45;&gt;2</title>
<g id="a_edge1"><a xlink:title="include">
<path fill="none" stroke="#1414ce" d="M1959.51,-87.01C1626.69,-82.86 944.26,-70.56 367.5,-36 364.72,-35.83 361.92,-35.66 359.09,-35.48"/>
<polygon fill="#1414ce" stroke="#1414ce" points="1959.7,-90.52 1969.74,-87.14 1959.79,-83.52 1959.7,-90.52"/>
</a>
</g>
</g>
<!-- 1&#45;&gt;3 -->
<g id="edge2" class="edge">
<title>1&#45;&gt;3</title>
<g id="a_edge2"><a xlink:title="include">
<path fill="none" stroke="#1414ce" d="M1959.72,-84.62C1685.48,-77.95 1181.21,-63.08 751.5,-36 748.41,-35.81 745.29,-35.6 742.16,-35.39"/>
<polygon fill="#1414ce" stroke="#1414ce" points="1959.7,-88.12 1969.78,-84.86 1959.87,-81.12 1959.7,-88.12"/>
</a>
</g>
</g>
<!-- 4 -->
<g id="node4" class="node">
<title>4</title>
<g id="a_node4"><a xlink:title="/__w/AtomVM/AtomVM/src/libAtomVM/globalcontext.c">
<polygon fill="#ffffff" stroke="black" points="1162.5,-36 760.5,-36 760.5,0 1162.5,0 1162.5,-36"/>
<text text-anchor="middle" x="961.5" y="-14.3" font-family="Times,serif" font-size="14.00">/__w/AtomVM/AtomVM/src/libAtomVM/globalcontext.c</text>
</a>
</g>
</g>
<!-- 1&#45;&gt;4 -->
<g id="edge3" class="edge">
<title>1&#45;&gt;4</title>
<g id="a_edge3"><a xlink:title="include">
<path fill="none" stroke="#1414ce" d="M1959.6,-79.77C1759.22,-70.28 1444.1,-54.32 1171.5,-36 1168.58,-35.8 1165.64,-35.6 1162.68,-35.4"/>
<polygon fill="#1414ce" stroke="#1414ce" points="1959.49,-83.27 1969.65,-80.25 1959.82,-76.28 1959.49,-83.27"/>
</a>
</g>
</g>
<!-- 5 -->
<g id="node5" class="node">
<title>5</title>
<g id="a_node5"><a xlink:title="/__w/AtomVM/AtomVM/src/libAtomVM/jit_stream_flash.c">
<polygon fill="#ffffff" stroke="black" points="1598.5,-36 1180.5,-36 1180.5,0 1598.5,0 1598.5,-36"/>
<text text-anchor="middle" x="1389.5" y="-14.3" font-family="Times,serif" font-size="14.00">/__w/AtomVM/AtomVM/src/libAtomVM/jit_stream_flash.c</text>
</a>
</g>
</g>
<!-- 1&#45;&gt;5 -->
<g id="edge4" class="edge">
<title>1&#45;&gt;5</title>
<g id="a_edge4"><a xlink:title="include">
<path fill="none" stroke="#1414ce" d="M1964.42,-71.06C1845.34,-60.28 1694.67,-46.63 1577.45,-36.02"/>
<polygon fill="#1414ce" stroke="#1414ce" points="1964.12,-74.55 1974.39,-71.97 1964.75,-67.58 1964.12,-74.55"/>
</a>
</g>
</g>
<!-- 6 -->
<g id="node6" class="node">
<title>6</title>
<g id="a_node6"><a xlink:title="/__w/AtomVM/AtomVM/src/libAtomVM/memory.c">
<polygon fill="#ffffff" stroke="black" points="1978.5,-36 1616.5,-36 1616.5,0 1978.5,0 1978.5,-36"/>
<text text-anchor="middle" x="1797.5" y="-14.3" font-family="Times,serif" font-size="14.00">/__w/AtomVM/AtomVM/src/libAtomVM/memory.c</text>
</a>
</g>
</g>
<!-- 1&#45;&gt;6 -->
<g id="edge5" class="edge">
<title>1&#45;&gt;6</title>
<g id="a_edge5"><a xlink:title="include">
<path fill="none" stroke="#1414ce" d="M2063.52,-70.02C2008.25,-59.42 1939.96,-46.32 1886.4,-36.05"/>
<polygon fill="#1414ce" stroke="#1414ce" points="2063.2,-73.52 2073.68,-71.97 2064.52,-66.64 2063.2,-73.52"/>
</a>
</g>
</g>
<!-- 7 -->
<g id="node7" class="node">
<title>7</title>
<g id="a_node7"><a xlink:title="/__w/AtomVM/AtomVM/src/libAtomVM/nifs.c">
<polygon fill="#ffffff" stroke="black" points="2328.5,-36 1996.5,-36 1996.5,0 2328.5,0 2328.5,-36"/>
<text text-anchor="middle" x="2162.5" y="-14.3" font-family="Times,serif" font-size="14.00">/__w/AtomVM/AtomVM/src/libAtomVM/nifs.c</text>
</a>
</g>
</g>
<!-- 1&#45;&gt;7 -->
<g id="edge6" class="edge">
<title>1&#45;&gt;7</title>
<g id="a_edge6"><a xlink:title="include">
<path fill="none" stroke="#1414ce" d="M2162.5,-61.67C2162.5,-53.05 2162.5,-43.79 2162.5,-36.1"/>
<polygon fill="#1414ce" stroke="#1414ce" points="2159,-61.7 2162.5,-71.7 2166,-61.7 2159,-61.7"/>
</a>
</g>
</g>
<!-- 8 -->
<g id="node8" class="node">
<title>8</title>
<g id="a_node8"><a xlink:title="/__w/AtomVM/AtomVM/src/libAtomVM/otp_socket.c">
<polygon fill="#ffffff" stroke="black" points="2728,-36 2347,-36 2347,0 2728,0 2728,-36"/>
<text text-anchor="middle" x="2537.5" y="-14.3" font-family="Times,serif" font-size="14.00">/__w/AtomVM/AtomVM/src/libAtomVM/otp_socket.c</text>
</a>
</g>
</g>
<!-- 1&#45;&gt;8 -->
<g id="edge7" class="edge">
<title>1&#45;&gt;8</title>
<g id="a_edge7"><a xlink:title="include">
<path fill="none" stroke="#1414ce" d="M2263.84,-70.08C2320.68,-59.47 2391.03,-46.34 2446.16,-36.05"/>
<polygon fill="#1414ce" stroke="#1414ce" points="2262.94,-66.69 2253.76,-71.97 2264.23,-73.57 2262.94,-66.69"/>
</a>
</g>
</g>
<!-- 9 -->
<g id="node9" class="node">
<title>9</title>
<g id="a_node9"><a xlink:title="/__w/AtomVM/AtomVM/src/libAtomVM/otp_ssl.c">
<polygon fill="#ffffff" stroke="black" points="3101,-36 2746,-36 2746,0 3101,0 3101,-36"/>
<text text-anchor="middle" x="2923.5" y="-14.3" font-family="Times,serif" font-size="14.00">/__w/AtomVM/AtomVM/src/libAtomVM/otp_ssl.c</text>
</a>
</g>
</g>
<!-- 1&#45;&gt;9 -->
<g id="edge8" class="edge">
<title>1&#45;&gt;9</title>
<g id="a_edge8"><a xlink:title="include">
<path fill="none" stroke="#1414ce" d="M2357.7,-71.04C2477.36,-60.04 2629.37,-46.06 2745.68,-35.36"/>
<polygon fill="#1414ce" stroke="#1414ce" points="2357.33,-67.56 2347.69,-71.97 2357.97,-74.53 2357.33,-67.56"/>
</a>
</g>
</g>
<!-- 10 -->
<g id="node10" class="node">
<title>10</title>
<g id="a_node10"><a xlink:title="/__w/AtomVM/AtomVM/src/libAtomVM/posix_nifs.c">
<polygon fill="#ffffff" stroke="black" points="3495.5,-36 3119.5,-36 3119.5,0 3495.5,0 3495.5,-36"/>
<text text-anchor="middle" x="3307.5" y="-14.3" font-family="Times,serif" font-size="14.00">/__w/AtomVM/AtomVM/src/libAtomVM/posix_nifs.c</text>
</a>
</g>
</g>
<!-- 1&#45;&gt;10 -->
<g id="edge9" class="edge">
<title>1&#45;&gt;10</title>
<g id="a_edge9"><a xlink:title="include">
<path fill="none" stroke="#1414ce" d="M2365.27,-79.44C2557.3,-69.97 2853.66,-54.26 3110.5,-36 3113.41,-35.79 3116.35,-35.58 3119.3,-35.36"/>
<polygon fill="#1414ce" stroke="#1414ce" points="2364.88,-75.96 2355.07,-79.94 2365.23,-82.95 2364.88,-75.96"/>
</a>
</g>
</g>
<!-- 11 -->
<g id="node11" class="node">
<title>11</title>
<g id="a_node11"><a xlink:title="/__w/AtomVM/AtomVM/src/libAtomVM/refc_binary.c">
<polygon fill="#ffffff" stroke="black" points="3897,-36 3514,-36 3514,0 3897,0 3897,-36"/>
<text text-anchor="middle" x="3705.5" y="-14.3" font-family="Times,serif" font-size="14.00">/__w/AtomVM/AtomVM/src/libAtomVM/refc_binary.c</text>
</a>
</g>
</g>
<!-- 1&#45;&gt;11 -->
<g id="edge10" class="edge">
<title>1&#45;&gt;11</title>
<g id="a_edge10"><a xlink:title="include">
<path fill="none" stroke="#1414ce" d="M2365.18,-83.83C2628.08,-76.47 3100.83,-61.03 3504.5,-36 3507.56,-35.81 3510.64,-35.61 3513.75,-35.41"/>
<polygon fill="#1414ce" stroke="#1414ce" points="2365.05,-80.33 2355.15,-84.11 2365.24,-87.33 2365.05,-80.33"/>
</a>
</g>
</g>
<!-- 12 -->
<g id="node12" class="node">
<title>12</title>
<g id="a_node12"><a xlink:title="/__w/AtomVM/AtomVM/src/libAtomVM/resources.c">
<polygon fill="#ffffff" stroke="black" points="4290,-36 3915,-36 3915,0 4290,0 4290,-36"/>
<text text-anchor="middle" x="4102.5" y="-14.3" font-family="Times,serif" font-size="14.00">/__w/AtomVM/AtomVM/src/libAtomVM/resources.c</text>
</a>
</g>
</g>
<!-- 1&#45;&gt;12 -->
<g id="edge11" class="edge">
<title>1&#45;&gt;12</title>
<g id="a_edge11"><a xlink:title="include">
<path fill="none" stroke="#1414ce" d="M2365.24,-86.53C2690.57,-81.73 3349.24,-68.61 3906.5,-36 3909.23,-35.84 3911.98,-35.67 3914.74,-35.5"/>
<polygon fill="#1414ce" stroke="#1414ce" points="2365.19,-83.03 2355.24,-86.68 2365.29,-90.03 2365.19,-83.03"/>
</a>
</g>
</g>
</g>
</svg>
