<?xml version="1.0" encoding="UTF-8" standalone="no"?>
<!DOCTYPE svg PUBLIC "-//W3C//DTD SVG 1.1//EN"
 "http://www.w3.org/Graphics/SVG/1.1/DTD/svg11.dtd">
<!-- Generated by graphviz version 2.42.4 (0)
 -->
<!-- Pages: 1 -->
<svg width="5209pt" height="188pt"
 viewBox="0.00 0.00 5208.50 188.00" xmlns="http://www.w3.org/2000/svg" xmlns:xlink="http://www.w3.org/1999/xlink">
<g id="graph0" class="graph" transform="scale(1 1) rotate(0) translate(4 184)">
<polygon fill="transparent" stroke="transparent" points="-4,4 -4,-184 5204.5,-184 5204.5,4 -4,4"/>
<!-- 2 -->
<g id="node1" class="node">
<title>2</title>
<g id="a_node1"><a xlink:title="/__w/AtomVM/AtomVM/src/libAtomVM/dist_nifs.c">
<polygon fill="#ffffff" stroke="black" points="365,-108 0,-108 0,-72 365,-72 365,-108"/>
<text text-anchor="middle" x="182.5" y="-86.3" font-family="Times,serif" font-size="14.00">/__w/AtomVM/AtomVM/src/libAtomVM/dist_nifs.c</text>
</a>
</g>
</g>
<!-- 3 -->
<g id="node2" class="node">
<title>3</title>
<g id="a_node2"><a xlink:title="/__w/AtomVM/AtomVM/src/libAtomVM/external_term.c">
<polygon fill="#ffffff" stroke="black" points="788.5,-108 382.5,-108 382.5,-72 788.5,-72 788.5,-108"/>
<text text-anchor="middle" x="585.5" y="-86.3" font-family="Times,serif" font-size="14.00">/__w/AtomVM/AtomVM/src/libAtomVM/external_term.c</text>
</a>
</g>
</g>
<!-- 10 -->
<g id="node3" class="node">
<title>10</title>
<g id="a_node3"><a xlink:title="/__w/AtomVM/AtomVM/src/libAtomVM/globalcontext.c">
<polygon fill="#ffffff" stroke="black" points="2750.5,-36 2348.5,-36 2348.5,0 2750.5,0 2750.5,-36"/>
<text text-anchor="middle" x="2549.5" y="-14.3" font-family="Times,serif" font-size="14.00">/__w/AtomVM/AtomVM/src/libAtomVM/globalcontext.c</text>
</a>
</g>
</g>
<!-- 4 -->
<g id="node4" class="node">
<title>4</title>
<g id="a_node4"><a xlink:title="/__w/AtomVM/AtomVM/src/libAtomVM/jit.c">
<polygon fill="#ffffff" stroke="black" points="1126.5,-108 806.5,-108 806.5,-72 1126.5,-72 1126.5,-108"/>
<text text-anchor="middle" x="966.5" y="-86.3" font-family="Times,serif" font-size="14.00">/__w/AtomVM/AtomVM/src/libAtomVM/jit.c</text>
</a>
</g>
</g>
<!-- 5 -->
<g id="node5" class="node">
<title>5</title>
<g id="a_node5"><a xlink:title="/__w/AtomVM/AtomVM/src/libAtomVM/jit_stream_flash.c">
<polygon fill="#ffffff" stroke="black" points="1562.5,-108 1144.5,-108 1144.5,-72 1562.5,-72 1562.5,-108"/>
<text text-anchor="middle" x="1353.5" y="-86.3" font-family="Times,serif" font-size="14.00">/__w/AtomVM/AtomVM/src/libAtomVM/jit_stream_flash.c</text>
</a>
</g>
</g>
<!-- 6 -->
<g id="node6" class="node">
<title>6</title>
<g id="a_node6"><a xlink:title="/__w/AtomVM/AtomVM/src/libAtomVM/module.c">
<polygon fill="#ffffff" stroke="black" points="1938.5,-108 1580.5,-108 1580.5,-72 1938.5,-72 1938.5,-108"/>
<text text-anchor="middle" x="1759.5" y="-86.3" font-family="Times,serif" font-size="14.00">/__w/AtomVM/AtomVM/src/libAtomVM/module.c</text>
</a>
</g>
</g>
<!-- 7 -->
<g id="node7" class="node">
<title>7</title>
<g id="a_node7"><a xlink:title="/__w/AtomVM/AtomVM/src/libAtomVM/nifs.c">
<polygon fill="#ffffff" stroke="black" points="2288.5,-108 1956.5,-108 1956.5,-72 2288.5,-72 2288.5,-108"/>
<text text-anchor="middle" x="2122.5" y="-86.3" font-family="Times,serif" font-size="14.00">/__w/AtomVM/AtomVM/src/libAtomVM/nifs.c</text>
</a>
</g>
</g>
<!-- 1 -->
<g id="node8" class="node">
<title>1</title>
<g id="a_node8"><a xlink:title="/__w/AtomVM/AtomVM/src/libAtomVM/nifs.h">
<polygon fill="#bfbfbf" stroke="black" points="2921,-180 2588,-180 2588,-144 2921,-144 2921,-180"/>
<text text-anchor="middle" x="2754.5" y="-158.3" font-family="Times,serif" font-size="14.00">/__w/AtomVM/AtomVM/src/libAtomVM/nifs.h</text>
</a>
</g>
</g>
<!-- 1&#45;&gt;2 -->
<g id="edge1" class="edge">
<title>1&#45;&gt;2</title>
<g id="a_edge1"><a xlink:title="include">
<path fill="none" stroke="#1414ce" d="M2577.56,-161.08C2182.11,-160.38 1196.72,-153.75 373.5,-108 370.76,-107.85 367.99,-107.69 365.21,-107.52"/>
<polygon fill="#1414ce" stroke="#1414ce" points="2577.64,-164.58 2587.65,-161.1 2577.65,-157.58 2577.64,-164.58"/>
</a>
</g>
</g>
<!-- 1&#45;&gt;3 -->
<g id="edge2" class="edge">
<title>1&#45;&gt;3</title>
<g id="a_edge2"><a xlink:title="include">
<path fill="none" stroke="#1414ce" d="M2577.79,-159.35C2234.48,-155.44 1453.49,-143.16 797.5,-108 794.55,-107.84 791.58,-107.68 788.59,-107.51"/>
<polygon fill="#1414ce" stroke="#1414ce" points="2577.78,-162.85 2587.81,-159.46 2577.86,-155.85 2577.78,-162.85"/>
</a>
</g>
</g>
<!-- 1&#45;&gt;4 -->
<g id="edge3" class="edge">
<title>1&#45;&gt;4</title>
<g id="a_edge3"><a xlink:title="include">
<path fill="none" stroke="#1414ce" d="M2577.95,-159.12C2280.19,-155.08 1659.37,-142.88 1135.5,-108 1132.56,-107.8 1129.59,-107.6 1126.6,-107.38"/>
<polygon fill="#1414ce" stroke="#1414ce" points="2577.92,-162.62 2587.97,-159.25 2578.01,-155.62 2577.92,-162.62"/>
</a>
</g>
</g>
<!-- 1&#45;&gt;5 -->
<g id="edge4" class="edge">
<title>1&#45;&gt;5</title>
<g id="a_edge4"><a xlink:title="include">
<path fill="none" stroke="#1414ce" d="M2577.69,-154.9C2346.34,-146.51 1928.38,-129.9 1571.5,-108 1568.56,-107.82 1565.6,-107.63 1562.63,-107.45"/>
<polygon fill="#1414ce" stroke="#1414ce" points="2577.76,-158.41 2587.88,-155.27 2578.01,-151.41 2577.76,-158.41"/>
</a>
</g>
</g>
<!-- 1&#45;&gt;6 -->
<g id="edge5" class="edge">
<title>1&#45;&gt;6</title>
<g id="a_edge5"><a xlink:title="include">
<path fill="none" stroke="#1414ce" d="M2577.72,-150.64C2414.16,-140.77 2164.3,-124.92 1947.5,-108 1944.56,-107.77 1941.59,-107.54 1938.61,-107.3"/>
<polygon fill="#1414ce" stroke="#1414ce" points="2577.69,-154.15 2587.88,-151.26 2578.11,-147.16 2577.69,-154.15"/>
</a>
</g>
</g>
<!-- 1&#45;&gt;7 -->
<g id="edge6" class="edge">
<title>1&#45;&gt;7</title>
<g id="a_edge6"><a xlink:title="include">
<path fill="none" stroke="#1414ce" d="M2590.5,-142.84C2493.46,-132.09 2371.33,-118.56 2276.16,-108.02"/>
<polygon fill="#1414ce" stroke="#1414ce" points="2590.38,-146.34 2600.7,-143.97 2591.15,-139.39 2590.38,-146.34"/>
</a>
</g>
</g>
<!-- 8 -->
<g id="node9" class="node">
<title>8</title>
<g id="a_node9"><a xlink:title="/__w/AtomVM/AtomVM/src/libAtomVM/otp_crypto.c">
<polygon fill="#ffffff" stroke="black" points="2330,-36 1949,-36 1949,0 2330,0 2330,-36"/>
<text text-anchor="middle" x="2139.5" y="-14.3" font-family="Times,serif" font-size="14.00">/__w/AtomVM/AtomVM/src/libAtomVM/otp_crypto.c</text>
</a>
</g>
</g>
<!-- 1&#45;&gt;8 -->
<g id="edge7" class="edge">
<title>1&#45;&gt;8</title>
<g id="a_edge7"><a xlink:title="include">
<path fill="none" stroke="#1414ce" d="M2577.82,-149.93C2483.03,-141.79 2377.11,-128.51 2334.5,-108 2313.83,-98.05 2317.09,-83.95 2297.5,-72 2271.56,-56.18 2240.32,-44.42 2212.49,-36.06"/>
<polygon fill="#1414ce" stroke="#1414ce" points="2577.59,-153.43 2587.84,-150.78 2578.17,-146.45 2577.59,-153.43"/>
</a>
</g>
</g>
<!-- 9 -->
<g id="node10" class="node">
<title>9</title>
<g id="a_node10"><a xlink:title="/__w/AtomVM/AtomVM/src/libAtomVM/otp_crypto.h">
<polygon fill="#ffffff" stroke="black" points="2727,-108 2344,-108 2344,-72 2727,-72 2727,-108"/>
<text text-anchor="middle" x="2535.5" y="-86.3" font-family="Times,serif" font-size="14.00">/__w/AtomVM/AtomVM/src/libAtomVM/otp_crypto.h</text>
</a>
</g>
</g>
<!-- 1&#45;&gt;9 -->
<g id="edge8" class="edge">
<title>1&#45;&gt;9</title>
<g id="a_edge8"><a xlink:title="include">
<path fill="none" stroke="#1414ce" d="M2691.38,-140.83C2658.98,-130.47 2619.94,-117.99 2589.03,-108.11"/>
<polygon fill="#1414ce" stroke="#1414ce" points="2690.62,-144.25 2701.21,-143.97 2692.75,-137.59 2690.62,-144.25"/>
</a>
</g>
</g>
<!-- 11 -->
<g id="node11" class="node">
<title>11</title>
<g id="a_node11"><a xlink:title="/__w/AtomVM/AtomVM/src/libAtomVM/otp_net.c">
<polygon fill="#ffffff" stroke="black" points="3128,-36 2769,-36 2769,0 3128,0 3128,-36"/>
<text text-anchor="middle" x="2948.5" y="-14.3" font-family="Times,serif" font-size="14.00">/__w/AtomVM/AtomVM/src/libAtomVM/otp_net.c</text>
</a>
</g>
</g>
<!-- 1&#45;&gt;11 -->
<g id="edge9" class="edge">
<title>1&#45;&gt;11</title>
<g id="a_edge9"><a xlink:title="include">
<path fill="none" stroke="#1414ce" d="M2753.4,-133.84C2754.09,-114.31 2758.25,-88.58 2773.5,-72 2788.76,-55.41 2809.01,-43.94 2830.32,-36.04"/>
<polygon fill="#1414ce" stroke="#1414ce" points="2749.9,-133.93 2753.33,-143.96 2756.9,-133.99 2749.9,-133.93"/>
</a>
</g>
</g>
<!-- 12 -->
<g id="node12" class="node">
<title>12</title>
<g id="a_node12"><a xlink:title="/__w/AtomVM/AtomVM/src/libAtomVM/otp_net.h">
<polygon fill="#ffffff" stroke="black" points="3142.5,-108 2782.5,-108 2782.5,-72 3142.5,-72 3142.5,-108"/>
<text text-anchor="middle" x="2962.5" y="-86.3" font-family="Times,serif" font-size="14.00">/__w/AtomVM/AtomVM/src/libAtomVM/otp_net.h</text>
</a>
</g>
</g>
<!-- 1&#45;&gt;12 -->
<g id="edge10" class="edge">
<title>1&#45;&gt;12</title>
<g id="a_edge10"><a xlink:title="include">
<path fill="none" stroke="#1414ce" d="M2814.85,-140.69C2845.54,-130.36 2882.43,-117.95 2911.66,-108.11"/>
<polygon fill="#1414ce" stroke="#1414ce" points="2813.48,-137.46 2805.12,-143.97 2815.71,-144.09 2813.48,-137.46"/>
</a>
</g>
</g>
<!-- 13 -->
<g id="node13" class="node">
<title>13</title>
<g id="a_node13"><a xlink:title="/__w/AtomVM/AtomVM/src/libAtomVM/otp_socket.c">
<polygon fill="#ffffff" stroke="black" points="3527,-36 3146,-36 3146,0 3527,0 3527,-36"/>
<text text-anchor="middle" x="3336.5" y="-14.3" font-family="Times,serif" font-size="14.00">/__w/AtomVM/AtomVM/src/libAtomVM/otp_socket.c</text>
</a>
</g>
</g>
<!-- 1&#45;&gt;13 -->
<g id="edge11" class="edge">
<title>1&#45;&gt;13</title>
<g id="a_edge11"><a xlink:title="include">
<path fill="none" stroke="#1414ce" d="M2931.18,-148.3C3018.23,-139.88 3112.69,-126.85 3151.5,-108 3172.14,-97.97 3169.03,-84.14 3188.5,-72 3213.51,-56.4 3243.76,-44.53 3270.37,-36.02"/>
<polygon fill="#1414ce" stroke="#1414ce" points="2930.77,-144.82 2921.15,-149.26 2931.44,-151.79 2930.77,-144.82"/>
</a>
</g>
</g>
<!-- 14 -->
<g id="node14" class="node">
<title>14</title>
<g id="a_node14"><a xlink:title="/__w/AtomVM/AtomVM/src/libAtomVM/otp_socket.h">
<polygon fill="#ffffff" stroke="black" points="3581,-108 3198,-108 3198,-72 3581,-72 3581,-108"/>
<text text-anchor="middle" x="3389.5" y="-86.3" font-family="Times,serif" font-size="14.00">/__w/AtomVM/AtomVM/src/libAtomVM/otp_socket.h</text>
</a>
</g>
</g>
<!-- 1&#45;&gt;14 -->
<g id="edge12" class="edge">
<title>1&#45;&gt;14</title>
<g id="a_edge12"><a xlink:title="include">
<path fill="none" stroke="#1414ce" d="M2918.98,-142.87C3016.53,-132.12 3139.39,-118.57 3235.11,-108.02"/>
<polygon fill="#1414ce" stroke="#1414ce" points="2918.58,-139.39 2909.03,-143.97 2919.35,-146.35 2918.58,-139.39"/>
</a>
</g>
</g>
<!-- 15 -->
<g id="node15" class="node">
<title>15</title>
<g id="a_node15"><a xlink:title="/__w/AtomVM/AtomVM/src/libAtomVM/otp_ssl.c">
<polygon fill="#ffffff" stroke="black" points="3900,-36 3545,-36 3545,0 3900,0 3900,-36"/>
<text text-anchor="middle" x="3722.5" y="-14.3" font-family="Times,serif" font-size="14.00">/__w/AtomVM/AtomVM/src/libAtomVM/otp_ssl.c</text>
</a>
</g>
</g>
<!-- 1&#45;&gt;15 -->
<g id="edge13" class="edge">
<title>1&#45;&gt;15</title>
<g id="a_edge13"><a xlink:title="include">
<path fill="none" stroke="#1414ce" d="M2931.44,-156.17C3158.7,-148.99 3530.94,-133.51 3589.5,-108 3610.83,-98.71 3608.75,-85.77 3627.5,-72 3646.07,-58.36 3668.51,-45.68 3686.93,-36.15"/>
<polygon fill="#1414ce" stroke="#1414ce" points="2931.29,-152.68 2921.41,-156.49 2931.51,-159.67 2931.29,-152.68"/>
</a>
</g>
</g>
<!-- 16 -->
<g id="node16" class="node">
<title>16</title>
<g id="a_node16"><a xlink:title="/__w/AtomVM/AtomVM/src/libAtomVM/otp_ssl.h">
<polygon fill="#ffffff" stroke="black" points="3992.5,-108 3636.5,-108 3636.5,-72 3992.5,-72 3992.5,-108"/>
<text text-anchor="middle" x="3814.5" y="-86.3" font-family="Times,serif" font-size="14.00">/__w/AtomVM/AtomVM/src/libAtomVM/otp_ssl.h</text>
</a>
</g>
</g>
<!-- 1&#45;&gt;16 -->
<g id="edge14" class="edge">
<title>1&#45;&gt;16</title>
<g id="a_edge14"><a xlink:title="include">
<path fill="none" stroke="#1414ce" d="M2931.5,-151.61C3106.98,-141.97 3383.43,-125.88 3622.5,-108 3627.09,-107.66 3631.74,-107.3 3636.43,-106.94"/>
<polygon fill="#1414ce" stroke="#1414ce" points="2931.19,-148.12 2921.4,-152.17 2931.57,-155.11 2931.19,-148.12"/>
</a>
</g>
</g>
<!-- 17 -->
<g id="node18" class="node">
<title>17</title>
<g id="a_node18"><a xlink:title="/__w/AtomVM/AtomVM/src/libAtomVM/portnifloader.h">
<polygon fill="#ffffff" stroke="black" points="4408.5,-108 4010.5,-108 4010.5,-72 4408.5,-72 4408.5,-108"/>
<text text-anchor="middle" x="4209.5" y="-86.3" font-family="Times,serif" font-size="14.00">/__w/AtomVM/AtomVM/src/libAtomVM/portnifloader.h</text>
</a>
</g>
</g>
<!-- 1&#45;&gt;17 -->
<g id="edge15" class="edge">
<title>1&#45;&gt;17</title>
<g id="a_edge15"><a xlink:title="include">
<path fill="none" stroke="#1414ce" d="M2931.3,-155.66C3173.09,-147.86 3620.39,-131.66 4001.5,-108 4004.39,-107.82 4007.31,-107.64 4010.24,-107.45"/>
<polygon fill="#1414ce" stroke="#1414ce" points="2930.9,-152.17 2921.01,-155.99 2931.12,-159.17 2930.9,-152.17"/>
</a>
</g>
</g>
<!-- 19 -->
<g id="node19" class="node">
<title>19</title>
<g id="a_node19"><a xlink:title="/__w/AtomVM/AtomVM/src/libAtomVM/posix_nifs.c">
<polygon fill="#ffffff" stroke="black" points="4802.5,-108 4426.5,-108 4426.5,-72 4802.5,-72 4802.5,-108"/>
<text text-anchor="middle" x="4614.5" y="-86.3" font-family="Times,serif" font-size="14.00">/__w/AtomVM/AtomVM/src/libAtomVM/posix_nifs.c</text>
</a>
</g>
</g>
<!-- 1&#45;&gt;19 -->
<g id="edge16" class="edge">
<title>1&#45;&gt;19</title>
<g id="a_edge16"><a xlink:title="include">
<path fill="none" stroke="#1414ce" d="M2931.27,-158.51C3235.24,-153.53 3876.48,-139.94 4417.5,-108 4420.41,-107.83 4423.35,-107.65 4426.31,-107.46"/>
<polygon fill="#1414ce" stroke="#1414ce" points="2930.99,-155.02 2921.04,-158.68 2931.1,-162.02 2930.99,-155.02"/>
</a>
</g>
</g>
<!-- 20 -->
<g id="node20" class="node">
<title>20</title>
<g id="a_node20"><a xlink:title="/__w/AtomVM/AtomVM/src/libAtomVM/stacktrace.c">
<polygon fill="#ffffff" stroke="black" points="5200.5,-108 4820.5,-108 4820.5,-72 5200.5,-72 5200.5,-108"/>
<text text-anchor="middle" x="5010.5" y="-86.3" font-family="Times,serif" font-size="14.00">/__w/AtomVM/AtomVM/src/libAtomVM/stacktrace.c</text>
</a>
</g>
</g>
<!-- 1&#45;&gt;20 -->
<g id="edge17" class="edge">
<title>1&#45;&gt;20</title>
<g id="a_edge17"><a xlink:title="include">
<path fill="none" stroke="#1414ce" d="M2931.42,-159.98C3287.58,-157.15 4116.4,-146.61 4811.5,-108 4814.44,-107.84 4817.41,-107.67 4820.4,-107.49"/>
<polygon fill="#1414ce" stroke="#1414ce" points="2931.25,-156.48 2921.28,-160.06 2931.31,-163.48 2931.25,-156.48"/>
</a>
</g>
</g>
<!-- 9&#45;&gt;10 -->
<g id="edge18" class="edge">
<title>9&#45;&gt;10</title>
<g id="a_edge18"><a xlink:title="include">
<path fill="none" stroke="#1414ce" d="M2540.97,-61.67C2542.69,-53.05 2544.54,-43.79 2546.08,-36.1"/>
<polygon fill="#1414ce" stroke="#1414ce" points="2537.49,-61.2 2538.96,-71.7 2544.35,-62.58 2537.49,-61.2"/>
</a>
</g>
</g>
<!-- 9&#45;&gt;8 -->
<g id="edge19" class="edge">
<title>9&#45;&gt;8</title>
<g id="a_edge19"><a xlink:title="include">
<path fill="none" stroke="#1414ce" d="M2429.23,-70.21C2369.07,-59.58 2294.42,-46.38 2235.95,-36.05"/>
<polygon fill="#1414ce" stroke="#1414ce" points="2428.68,-73.67 2439.13,-71.97 2429.9,-66.78 2428.68,-73.67"/>
</a>
</g>
</g>
<!-- 12&#45;&gt;11 -->
<g id="edge20" class="edge">
<title>12&#45;&gt;11</title>
<g id="a_edge20"><a xlink:title="include">
<path fill="none" stroke="#1414ce" d="M2957.03,-61.67C2955.31,-53.05 2953.46,-43.79 2951.92,-36.1"/>
<polygon fill="#1414ce" stroke="#1414ce" points="2953.65,-62.58 2959.04,-71.7 2960.51,-61.2 2953.65,-62.58"/>
</a>
</g>
</g>
<!-- 14&#45;&gt;13 -->
<g id="edge21" class="edge">
<title>14&#45;&gt;13</title>
<g id="a_edge21"><a xlink:title="include">
<path fill="none" stroke="#1414ce" d="M3370.3,-63.64C3363.37,-54.49 3355.72,-44.38 3349.45,-36.1"/>
<polygon fill="#1414ce" stroke="#1414ce" points="3367.57,-65.84 3376.4,-71.7 3373.15,-61.61 3367.57,-65.84"/>
</a>
</g>
</g>
<!-- 14&#45;&gt;15 -->
<g id="edge22" class="edge">
<title>14&#45;&gt;15</title>
<g id="a_edge22"><a xlink:title="include">
<path fill="none" stroke="#1414ce" d="M3480.43,-69.88C3530.74,-59.31 3592.74,-46.28 3641.39,-36.05"/>
<polygon fill="#1414ce" stroke="#1414ce" points="3479.6,-66.48 3470.54,-71.97 3481.04,-73.33 3479.6,-66.48"/>
</a>
</g>
</g>
<!-- 16&#45;&gt;15 -->
<g id="edge23" class="edge">
<title>16&#45;&gt;15</title>
<g id="a_edge23"><a xlink:title="include">
<path fill="none" stroke="#1414ce" d="M3783.73,-65.59C3771.05,-55.94 3756.64,-44.97 3744.98,-36.1"/>
<polygon fill="#1414ce" stroke="#1414ce" points="3781.68,-68.43 3791.76,-71.7 3785.92,-62.86 3781.68,-68.43"/>
</a>
</g>
</g>
<!-- 18 -->
<g id="node17" class="node">
<title>18</title>
<g id="a_node17"><a xlink:title="/__w/AtomVM/AtomVM/src/libAtomVM/portnifloader.c">
<polygon fill="#ffffff" stroke="black" points="4408,-36 4011,-36 4011,0 4408,0 4408,-36"/>
<text text-anchor="middle" x="4209.5" y="-14.3" font-family="Times,serif" font-size="14.00">/__w/AtomVM/AtomVM/src/libAtomVM/portnifloader.c</text>
</a>
</g>
</g>
<!-- 17&#45;&gt;18 -->
<g id="edge24" class="edge">
<title>17&#45;&gt;18</title>
<g id="a_edge24"><a xlink:title="include">
<path fill="none" stroke="#1414ce" d="M4209.5,-61.67C4209.5,-53.05 4209.5,-43.79 4209.5,-36.1"/>
<polygon fill="#1414ce" stroke="#1414ce" points="4206,-61.7 4209.5,-71.7 4213,-61.7 4206,-61.7"/>
</a>
</g>
</g>
</g>
</svg>
