<?xml version="1.0" encoding="UTF-8" standalone="no"?>
<!DOCTYPE svg PUBLIC "-//W3C//DTD SVG 1.1//EN"
 "http://www.w3.org/Graphics/SVG/1.1/DTD/svg11.dtd">
<!-- Generated by graphviz version 2.43.0 (0)
 -->
<!-- Title: %3 Pages: 1 -->
<svg width="1730pt" height="692pt"
 viewBox="0.00 0.00 1730.00 692.00" xmlns="http://www.w3.org/2000/svg" xmlns:xlink="http://www.w3.org/1999/xlink">
<g id="graph0" class="graph" transform="scale(1 1) rotate(0) translate(4 688)">
<title>%3</title>
<polygon fill="transparent" stroke="transparent" points="-4,4 -4,-688 1726,-688 1726,4 -4,4"/>
<!-- 4 -->
<g id="node1" class="node">
<title>4</title>
<g id="a_node1"><a xlink:title="atom.h">
<polygon fill="#ffffff" stroke="black" points="827,-180 761,-180 761,-144 827,-144 827,-180"/>
<text text-anchor="middle" x="794" y="-158.3" font-family="Times,serif" font-size="14.00">atom.h</text>
</a>
</g>
</g>
<!-- 3 -->
<g id="node29" class="node">
<title>3</title>
<g id="a_node29"><a xlink:title="stdint.h">
<polygon fill="#ffffff" stroke="black" points="769,-36 697,-36 697,0 769,0 769,-36"/>
<text text-anchor="middle" x="733" y="-14.3" font-family="Times,serif" font-size="14.00">stdint.h</text>
</a>
</g>
</g>
<!-- 4&#45;&gt;3 -->
<g id="edge1" class="edge">
<title>4&#45;&gt;3</title>
<g id="a_edge1"><a xlink:title="include">
<path fill="none" stroke="#1414ce" d="M786.64,-143.87C776.15,-119.46 756.81,-74.43 744.44,-45.64"/>
<polygon fill="#1414ce" stroke="#1414ce" points="747.55,-44 740.38,-36.19 741.12,-46.76 747.55,-44"/>
</a>
</g>
</g>
<!-- 5 -->
<g id="node31" class="node">
<title>5</title>
<g id="a_node31"><a xlink:title="stdlib.h">
<polygon fill="#ffffff" stroke="black" points="434.5,-108 363.5,-108 363.5,-72 434.5,-72 434.5,-108"/>
<text text-anchor="middle" x="399" y="-86.3" font-family="Times,serif" font-size="14.00">stdlib.h</text>
</a>
</g>
</g>
<!-- 4&#45;&gt;5 -->
<g id="edge2" class="edge">
<title>4&#45;&gt;5</title>
<g id="a_edge2"><a xlink:title="include">
<path fill="none" stroke="#1414ce" d="M760.99,-153.6C746.59,-150.47 729.49,-146.89 714,-144 614.88,-125.51 589.34,-125.26 490,-108 475.35,-105.45 459.4,-102.53 445,-99.83"/>
<polygon fill="#1414ce" stroke="#1414ce" points="445.31,-96.32 434.84,-97.91 444.01,-103.2 445.31,-96.32"/>
</a>
</g>
</g>
<!-- 6 -->
<g id="node2" class="node">
<title>6</title>
<g id="a_node2"><a xlink:title="atom_table.h">
<polygon fill="#ffffff" stroke="black" points="1093.5,-252 984.5,-252 984.5,-216 1093.5,-216 1093.5,-252"/>
<text text-anchor="middle" x="1039" y="-230.3" font-family="Times,serif" font-size="14.00">atom_table.h</text>
</a>
</g>
</g>
<!-- 6&#45;&gt;4 -->
<g id="edge4" class="edge">
<title>6&#45;&gt;4</title>
<g id="a_edge4"><a xlink:title="include">
<path fill="none" stroke="#1414ce" d="M984.32,-217.38C939.76,-204.65 877.72,-186.92 836.75,-175.21"/>
<polygon fill="#1414ce" stroke="#1414ce" points="837.64,-171.83 827.06,-172.45 835.71,-178.56 837.64,-171.83"/>
</a>
</g>
</g>
<!-- 8 -->
<g id="node22" class="node">
<title>8</title>
<g id="a_node22"><a xlink:title="utils.h">
<polygon fill="#ffffff" stroke="black" points="563,-180 501,-180 501,-144 563,-144 563,-180"/>
<text text-anchor="middle" x="532" y="-158.3" font-family="Times,serif" font-size="14.00">utils.h</text>
</a>
</g>
</g>
<!-- 6&#45;&gt;8 -->
<g id="edge5" class="edge">
<title>6&#45;&gt;8</title>
<g id="a_edge5"><a xlink:title="include">
<path fill="none" stroke="#1414ce" d="M984.31,-223.21C969.03,-220.66 952.39,-218.05 937,-216 777.61,-194.77 733.55,-216.73 577,-180 575.72,-179.7 574.43,-179.37 573.13,-179.02"/>
<polygon fill="#1414ce" stroke="#1414ce" points="573.73,-175.55 563.15,-175.96 571.68,-182.24 573.73,-175.55"/>
</a>
</g>
</g>
<!-- 7 -->
<g id="node27" class="node">
<title>7</title>
<g id="a_node27"><a xlink:title="stdbool.h">
<polygon fill="#ffffff" stroke="black" points="1045.5,-108 962.5,-108 962.5,-72 1045.5,-72 1045.5,-108"/>
<text text-anchor="middle" x="1004" y="-86.3" font-family="Times,serif" font-size="14.00">stdbool.h</text>
</a>
</g>
</g>
<!-- 6&#45;&gt;7 -->
<g id="edge3" class="edge">
<title>6&#45;&gt;7</title>
<g id="a_edge3"><a xlink:title="include">
<path fill="none" stroke="#1414ce" d="M1034.78,-215.87C1028.79,-191.56 1017.76,-146.82 1010.66,-118.01"/>
<polygon fill="#1414ce" stroke="#1414ce" points="1014.03,-117.06 1008.24,-108.19 1007.23,-118.74 1014.03,-117.06"/>
</a>
</g>
</g>
<!-- 31 -->
<g id="node3" class="node">
<title>31</title>
<g id="a_node3"><a xlink:title="bitstring.h">
<polygon fill="#ffffff" stroke="black" points="860,-540 768,-540 768,-504 860,-504 860,-540"/>
<text text-anchor="middle" x="814" y="-518.3" font-family="Times,serif" font-size="14.00">bitstring.h</text>
</a>
</g>
</g>
<!-- 23 -->
<g id="node9" class="node">
<title>23</title>
<g id="a_node9"><a xlink:title="intn.h">
<polygon fill="#ffffff" stroke="black" points="647.5,-396 588.5,-396 588.5,-360 647.5,-360 647.5,-396"/>
<text text-anchor="middle" x="618" y="-374.3" font-family="Times,serif" font-size="14.00">intn.h</text>
</a>
</g>
</g>
<!-- 31&#45;&gt;23 -->
<g id="edge6" class="edge">
<title>31&#45;&gt;23</title>
<g id="a_edge6"><a xlink:title="include">
<path fill="none" stroke="#1414ce" d="M790.36,-503.87C755.33,-478.5 689.57,-430.85 650.19,-402.32"/>
<polygon fill="#1414ce" stroke="#1414ce" points="651.88,-399.22 641.73,-396.19 647.77,-404.89 651.88,-399.22"/>
</a>
</g>
</g>
<!-- 20 -->
<g id="node18" class="node">
<title>20</title>
<g id="a_node18"><a xlink:title="term.h">
<polygon fill="#ffffff" stroke="black" points="573.5,-468 508.5,-468 508.5,-432 573.5,-432 573.5,-468"/>
<text text-anchor="middle" x="541" y="-446.3" font-family="Times,serif" font-size="14.00">term.h</text>
</a>
</g>
</g>
<!-- 31&#45;&gt;20 -->
<g id="edge7" class="edge">
<title>31&#45;&gt;20</title>
<g id="a_edge7"><a xlink:title="include">
<path fill="none" stroke="#1414ce" d="M767.84,-509.1C761.19,-507.39 754.42,-505.65 748,-504 691.07,-489.38 625.32,-472.56 583.47,-461.86"/>
<polygon fill="#1414ce" stroke="#1414ce" points="584.18,-458.43 573.63,-459.34 582.45,-465.21 584.18,-458.43"/>
</a>
</g>
</g>
<!-- 32 -->
<g id="node21" class="node">
<title>32</title>
<g id="a_node21"><a xlink:title="unicode.h">
<polygon fill="#ffffff" stroke="black" points="705,-180 619,-180 619,-144 705,-144 705,-180"/>
<text text-anchor="middle" x="662" y="-158.3" font-family="Times,serif" font-size="14.00">unicode.h</text>
</a>
</g>
</g>
<!-- 31&#45;&gt;32 -->
<g id="edge8" class="edge">
<title>31&#45;&gt;32</title>
<g id="a_edge8"><a xlink:title="include">
<path fill="none" stroke="#1414ce" d="M818.81,-503.93C826.4,-473.85 838.61,-409.86 821,-360 795.1,-286.68 729.06,-220.62 690.73,-186.79"/>
<polygon fill="#1414ce" stroke="#1414ce" points="692.84,-183.99 683,-180.08 688.25,-189.28 692.84,-183.99"/>
</a>
</g>
</g>
<!-- 31&#45;&gt;7 -->
<g id="edge9" class="edge">
<title>31&#45;&gt;7</title>
<g id="a_edge9"><a xlink:title="include">
<path fill="none" stroke="#1414ce" d="M860.11,-520.11C946.03,-515.76 1122,-492.94 1122,-379 1122,-379 1122,-379 1122,-233 1122,-181.44 1075.41,-138.6 1040.77,-113.89"/>
<polygon fill="#1414ce" stroke="#1414ce" points="1042.48,-110.82 1032.26,-108.01 1038.5,-116.57 1042.48,-110.82"/>
</a>
</g>
</g>
<!-- 31&#45;&gt;3 -->
<g id="edge10" class="edge">
<title>31&#45;&gt;3</title>
<g id="a_edge10"><a xlink:title="include">
<path fill="none" stroke="#1414ce" d="M825.75,-503.69C831.83,-493.72 838.67,-480.68 842,-468 854.2,-421.57 855.03,-406.72 844,-360 823.36,-272.56 778.37,-265.89 752,-180 738.05,-134.55 734.23,-78.99 733.26,-46.44"/>
<polygon fill="#1414ce" stroke="#1414ce" points="736.75,-46.25 733.02,-36.34 729.75,-46.42 736.75,-46.25"/>
</a>
</g>
</g>
<!-- 1 -->
<g id="node4" class="node">
<title>1</title>
<g id="a_node4"><a xlink:title="/__w/AtomVM/AtomVM/src/libAtomVM/context.h">
<polygon fill="#bfbfbf" stroke="black" points="1435,-684 1075,-684 1075,-648 1435,-648 1435,-684"/>
<text text-anchor="middle" x="1255" y="-662.3" font-family="Times,serif" font-size="14.00">/__w/AtomVM/AtomVM/src/libAtomVM/context.h</text>
</a>
</g>
</g>
<!-- 2 -->
<g id="node8" class="node">
<title>2</title>
<g id="a_node8"><a xlink:title="globalcontext.h">
<polygon fill="#ffffff" stroke="black" points="1318.5,-612 1191.5,-612 1191.5,-576 1318.5,-576 1318.5,-612"/>
<text text-anchor="middle" x="1255" y="-590.3" font-family="Times,serif" font-size="14.00">globalcontext.h</text>
</a>
</g>
</g>
<!-- 1&#45;&gt;2 -->
<g id="edge11" class="edge">
<title>1&#45;&gt;2</title>
<g id="a_edge11"><a xlink:title="include">
<path fill="none" stroke="#1414ce" d="M1255,-647.7C1255,-639.98 1255,-630.71 1255,-622.11"/>
<polygon fill="#1414ce" stroke="#1414ce" points="1258.5,-622.1 1255,-612.1 1251.5,-622.1 1258.5,-622.1"/>
</a>
</g>
</g>
<!-- 30 -->
<g id="node10" class="node">
<title>30</title>
<g id="a_node10"><a xlink:title="jit.h">
<polygon fill="#ffffff" stroke="black" points="756,-612 702,-612 702,-576 756,-576 756,-612"/>
<text text-anchor="middle" x="729" y="-590.3" font-family="Times,serif" font-size="14.00">jit.h</text>
</a>
</g>
</g>
<!-- 1&#45;&gt;30 -->
<g id="edge12" class="edge">
<title>1&#45;&gt;30</title>
<g id="a_edge12"><a xlink:title="include">
<path fill="none" stroke="#1414ce" d="M1127,-647.97C1008.74,-632.23 840.53,-609.84 766.46,-599.99"/>
<polygon fill="#1414ce" stroke="#1414ce" points="766.61,-596.47 756.24,-598.62 765.69,-603.41 766.61,-596.47"/>
</a>
</g>
</g>
<!-- 17 -->
<g id="node11" class="node">
<title>17</title>
<g id="a_node11"><a xlink:title="list.h">
<polygon fill="#ffffff" stroke="black" points="1406,-180 1352,-180 1352,-144 1406,-144 1406,-180"/>
<text text-anchor="middle" x="1379" y="-158.3" font-family="Times,serif" font-size="14.00">list.h</text>
</a>
</g>
</g>
<!-- 1&#45;&gt;17 -->
<g id="edge13" class="edge">
<title>1&#45;&gt;17</title>
<g id="a_edge13"><a xlink:title="include">
<path fill="none" stroke="#1414ce" d="M1291.46,-647.84C1345.98,-619.55 1444.76,-557.22 1467,-468 1494.12,-359.22 1516.17,-310.59 1456,-216 1446.19,-200.58 1430.11,-188.47 1415.17,-179.74"/>
<polygon fill="#1414ce" stroke="#1414ce" points="1416.54,-176.5 1406.09,-174.74 1413.16,-182.63 1416.54,-176.5"/>
</a>
</g>
</g>
<!-- 27 -->
<g id="node12" class="node">
<title>27</title>
<g id="a_node12"><a xlink:title="mailbox.h">
<polygon fill="#ffffff" stroke="black" points="928,-252 842,-252 842,-216 928,-216 928,-252"/>
<text text-anchor="middle" x="885" y="-230.3" font-family="Times,serif" font-size="14.00">mailbox.h</text>
</a>
</g>
</g>
<!-- 1&#45;&gt;27 -->
<g id="edge14" class="edge">
<title>1&#45;&gt;27</title>
<g id="a_edge14"><a xlink:title="include">
<path fill="none" stroke="#1414ce" d="M1116.26,-647.99C1043.78,-630.5 970,-595 970,-523 970,-523 970,-523 970,-377 970,-336.03 967.74,-322.72 946,-288 939.01,-276.83 928.94,-266.73 918.99,-258.41"/>
<polygon fill="#1414ce" stroke="#1414ce" points="921.1,-255.62 911.1,-252.13 916.75,-261.1 921.1,-255.62"/>
</a>
</g>
</g>
<!-- 19 -->
<g id="node16" class="node">
<title>19</title>
<g id="a_node16"><a xlink:title="smp.h">
<polygon fill="#ffffff" stroke="black" points="1522,-180 1462,-180 1462,-144 1522,-144 1522,-180"/>
<text text-anchor="middle" x="1492" y="-158.3" font-family="Times,serif" font-size="14.00">smp.h</text>
</a>
</g>
</g>
<!-- 1&#45;&gt;19 -->
<g id="edge15" class="edge">
<title>1&#45;&gt;19</title>
<g id="a_edge15"><a xlink:title="include">
<path fill="none" stroke="#1414ce" d="M1426.15,-647.98C1499.23,-630.28 1568,-594.61 1568,-523 1568,-523 1568,-523 1568,-305 1568,-259.64 1537.48,-214.75 1515.12,-187.95"/>
<polygon fill="#1414ce" stroke="#1414ce" points="1517.66,-185.53 1508.49,-180.23 1512.36,-190.09 1517.66,-185.53"/>
</a>
</g>
</g>
<!-- 1&#45;&gt;20 -->
<g id="edge16" class="edge">
<title>1&#45;&gt;20</title>
<g id="a_edge16"><a xlink:title="include">
<path fill="none" stroke="#1414ce" d="M1074.75,-664.75C861.92,-659.95 527.7,-636.72 456,-540 446.47,-527.15 448.24,-517.99 456,-504 465.4,-487.06 482.71,-474.83 499.27,-466.42"/>
<polygon fill="#1414ce" stroke="#1414ce" points="500.79,-469.57 508.33,-462.13 497.8,-463.24 500.79,-469.57"/>
</a>
</g>
</g>
<!-- 28 -->
<g id="node20" class="node">
<title>28</title>
<g id="a_node20"><a xlink:title="timer_list.h">
<polygon fill="#ffffff" stroke="black" points="1694,-252 1596,-252 1596,-216 1694,-216 1694,-252"/>
<text text-anchor="middle" x="1645" y="-230.3" font-family="Times,serif" font-size="14.00">timer_list.h</text>
</a>
</g>
</g>
<!-- 1&#45;&gt;28 -->
<g id="edge17" class="edge">
<title>1&#45;&gt;28</title>
<g id="a_edge17"><a xlink:title="include">
<path fill="none" stroke="#1414ce" d="M1435.16,-654.01C1484.44,-646.2 1536.71,-633.27 1582,-612 1636.46,-586.42 1684,-583.16 1684,-523 1684,-523 1684,-523 1684,-377 1684,-335.56 1668.36,-289.67 1656.89,-261.58"/>
<polygon fill="#1414ce" stroke="#1414ce" points="1660,-259.93 1652.89,-252.07 1653.55,-262.65 1660,-259.93"/>
</a>
</g>
</g>
<!-- 12 -->
<g id="node5" class="node">
<title>12</title>
<g id="a_node5"><a xlink:title="erl_nif.h">
<polygon fill="#ffffff" stroke="black" points="140,-180 66,-180 66,-144 140,-144 140,-180"/>
<text text-anchor="middle" x="103" y="-158.3" font-family="Times,serif" font-size="14.00">erl_nif.h</text>
</a>
</g>
</g>
<!-- 13 -->
<g id="node19" class="node">
<title>13</title>
<g id="a_node19"><a xlink:title="term_typedef.h">
<polygon fill="#ffffff" stroke="black" points="215.5,-108 90.5,-108 90.5,-72 215.5,-72 215.5,-108"/>
<text text-anchor="middle" x="153" y="-86.3" font-family="Times,serif" font-size="14.00">term_typedef.h</text>
</a>
</g>
</g>
<!-- 12&#45;&gt;13 -->
<g id="edge18" class="edge">
<title>12&#45;&gt;13</title>
<g id="a_edge18"><a xlink:title="include">
<path fill="none" stroke="#1414ce" d="M115.36,-143.7C121.23,-135.47 128.37,-125.48 134.84,-116.42"/>
<polygon fill="#1414ce" stroke="#1414ce" points="137.82,-118.28 140.78,-108.1 132.12,-114.21 137.82,-118.28"/>
</a>
</g>
</g>
<!-- 16 -->
<g id="node6" class="node">
<title>16</title>
<g id="a_node6"><a xlink:title="ets.h">
<polygon fill="#ffffff" stroke="black" points="1311,-540 1257,-540 1257,-504 1311,-504 1311,-540"/>
<text text-anchor="middle" x="1284" y="-518.3" font-family="Times,serif" font-size="14.00">ets.h</text>
</a>
</g>
</g>
<!-- 16&#45;&gt;17 -->
<g id="edge19" class="edge">
<title>16&#45;&gt;17</title>
<g id="a_edge19"><a xlink:title="include">
<path fill="none" stroke="#1414ce" d="M1289.67,-503.73C1297.85,-477.21 1312,-424.73 1312,-379 1312,-379 1312,-379 1312,-305 1312,-264.46 1313.52,-252.09 1332,-216 1337.24,-205.78 1344.91,-195.96 1352.54,-187.61"/>
<polygon fill="#1414ce" stroke="#1414ce" points="1355.07,-190.02 1359.47,-180.38 1350.02,-185.18 1355.07,-190.02"/>
</a>
</g>
</g>
<!-- 18 -->
<g id="node17" class="node">
<title>18</title>
<g id="a_node17"><a xlink:title="synclist.h">
<polygon fill="#ffffff" stroke="black" points="1425.5,-252 1340.5,-252 1340.5,-216 1425.5,-216 1425.5,-252"/>
<text text-anchor="middle" x="1383" y="-230.3" font-family="Times,serif" font-size="14.00">synclist.h</text>
</a>
</g>
</g>
<!-- 16&#45;&gt;18 -->
<g id="edge20" class="edge">
<title>16&#45;&gt;18</title>
<g id="a_edge20"><a xlink:title="include">
<path fill="none" stroke="#1414ce" d="M1300.88,-503.69C1309.55,-493.92 1319.6,-481.08 1326,-468 1343.85,-431.52 1367.59,-315.36 1377.88,-262.12"/>
<polygon fill="#1414ce" stroke="#1414ce" points="1381.37,-262.54 1379.81,-252.06 1374.49,-261.22 1381.37,-262.54"/>
</a>
</g>
</g>
<!-- 16&#45;&gt;20 -->
<g id="edge21" class="edge">
<title>16&#45;&gt;20</title>
<g id="a_edge21"><a xlink:title="include">
<path fill="none" stroke="#1414ce" d="M1256.68,-518.43C1144.79,-507.88 721.06,-467.96 584.03,-455.05"/>
<polygon fill="#1414ce" stroke="#1414ce" points="584.2,-451.55 573.91,-454.1 583.54,-458.52 584.2,-451.55"/>
</a>
</g>
</g>
<!-- 33 -->
<g id="node7" class="node">
<title>33</title>
<g id="a_node7"><a xlink:title="exportedfunction.h">
<polygon fill="#ffffff" stroke="black" points="617,-540 465,-540 465,-504 617,-504 617,-540"/>
<text text-anchor="middle" x="541" y="-518.3" font-family="Times,serif" font-size="14.00">exportedfunction.h</text>
</a>
</g>
</g>
<!-- 33&#45;&gt;20 -->
<g id="edge22" class="edge">
<title>33&#45;&gt;20</title>
<g id="a_edge22"><a xlink:title="include">
<path fill="none" stroke="#1414ce" d="M541,-503.7C541,-495.98 541,-486.71 541,-478.11"/>
<polygon fill="#1414ce" stroke="#1414ce" points="544.5,-478.1 541,-468.1 537.5,-478.1 544.5,-478.1"/>
</a>
</g>
</g>
<!-- 2&#45;&gt;4 -->
<g id="edge24" class="edge">
<title>2&#45;&gt;4</title>
<g id="a_edge24"><a xlink:title="include">
<path fill="none" stroke="#1414ce" d="M1191.44,-581.19C1161.92,-573.29 1127.75,-560.46 1102,-540 1065.41,-510.93 1046,-497.73 1046,-451 1046,-451 1046,-451 1046,-377 1046,-333.99 1031.96,-323.72 1008,-288 1001.74,-278.67 946.44,-222.1 937,-216 906.03,-195.99 866.44,-182.07 836.77,-173.53"/>
<polygon fill="#1414ce" stroke="#1414ce" points="837.69,-170.15 827.12,-170.84 835.81,-176.89 837.69,-170.15"/>
</a>
</g>
</g>
<!-- 2&#45;&gt;6 -->
<g id="edge25" class="edge">
<title>2&#45;&gt;6</title>
<g id="a_edge25"><a xlink:title="include">
<path fill="none" stroke="#1414ce" d="M1205.08,-575.87C1154.61,-555.01 1084,-514.48 1084,-451 1084,-451 1084,-451 1084,-377 1084,-335.13 1066,-289.42 1052.77,-261.48"/>
<polygon fill="#1414ce" stroke="#1414ce" points="1055.85,-259.82 1048.32,-252.37 1049.56,-262.89 1055.85,-259.82"/>
</a>
</g>
</g>
<!-- 2&#45;&gt;12 -->
<g id="edge26" class="edge">
<title>2&#45;&gt;12</title>
<g id="a_edge26"><a xlink:title="include">
<path fill="none" stroke="#1414ce" d="M1191.06,-589.93C1064.9,-583.38 788.25,-566.43 697,-540 663.02,-530.16 659.25,-516.08 626,-504 426.18,-431.4 312.11,-544.53 160,-396 103.35,-340.68 99.41,-239.02 101.13,-190.36"/>
<polygon fill="#1414ce" stroke="#1414ce" points="104.63,-190.42 101.59,-180.27 97.64,-190.1 104.63,-190.42"/>
</a>
</g>
</g>
<!-- 2&#45;&gt;16 -->
<g id="edge27" class="edge">
<title>2&#45;&gt;16</title>
<g id="a_edge27"><a xlink:title="include">
<path fill="none" stroke="#1414ce" d="M1262.17,-575.7C1265.43,-567.81 1269.37,-558.3 1273,-549.55"/>
<polygon fill="#1414ce" stroke="#1414ce" points="1276.32,-550.68 1276.91,-540.1 1269.85,-548 1276.32,-550.68"/>
</a>
</g>
</g>
<!-- 2&#45;&gt;17 -->
<g id="edge28" class="edge">
<title>2&#45;&gt;17</title>
<g id="a_edge28"><a xlink:title="include">
<path fill="none" stroke="#1414ce" d="M1318.51,-576.54C1376.75,-557.16 1454,-518.7 1454,-451 1454,-451 1454,-451 1454,-305 1454,-264.55 1454.8,-251.27 1435,-216 1428.86,-205.06 1419.7,-195.02 1410.57,-186.7"/>
<polygon fill="#1414ce" stroke="#1414ce" points="1412.82,-184.02 1402.96,-180.12 1408.24,-189.31 1412.82,-184.02"/>
</a>
</g>
</g>
<!-- 2&#45;&gt;27 -->
<g id="edge29" class="edge">
<title>2&#45;&gt;27</title>
<g id="a_edge29"><a xlink:title="include">
<path fill="none" stroke="#1414ce" d="M1191.35,-585.19C1133.71,-576.86 1054.49,-561.82 1032,-540 1002.6,-511.47 1008,-491.97 1008,-451 1008,-451 1008,-451 1008,-377 1008,-336.03 1009.48,-320.08 984,-288 971.98,-272.87 954.42,-261.51 937.42,-253.26"/>
<polygon fill="#1414ce" stroke="#1414ce" points="938.62,-249.97 928.07,-249 935.71,-256.34 938.62,-249.97"/>
</a>
</g>
</g>
<!-- 2&#45;&gt;19 -->
<g id="edge30" class="edge">
<title>2&#45;&gt;19</title>
<g id="a_edge30"><a xlink:title="include">
<path fill="none" stroke="#1414ce" d="M1318.67,-586.1C1354.7,-579.38 1398.67,-566.13 1430,-540 1502.08,-479.89 1505.18,-261.16 1506,-252 1507.43,-236.06 1508.06,-231.87 1506,-216 1504.9,-207.51 1502.84,-198.43 1500.63,-190.24"/>
<polygon fill="#1414ce" stroke="#1414ce" points="1503.95,-189.09 1497.82,-180.44 1497.22,-191.02 1503.95,-189.09"/>
</a>
</g>
</g>
<!-- 2&#45;&gt;18 -->
<g id="edge31" class="edge">
<title>2&#45;&gt;18</title>
<g id="a_edge31"><a xlink:title="include">
<path fill="none" stroke="#1414ce" d="M1288.56,-575.93C1327.96,-553.23 1388,-509.1 1388,-451 1388,-451 1388,-451 1388,-377 1388,-336.97 1385.99,-290.63 1384.52,-262.07"/>
<polygon fill="#1414ce" stroke="#1414ce" points="1388.01,-261.84 1383.99,-252.04 1381.02,-262.21 1388.01,-261.84"/>
</a>
</g>
</g>
<!-- 2&#45;&gt;20 -->
<g id="edge32" class="edge">
<title>2&#45;&gt;20</title>
<g id="a_edge32"><a xlink:title="include">
<path fill="none" stroke="#1414ce" d="M1191.42,-589.51C1076.26,-582.65 837.81,-565.79 759,-540 728.72,-530.09 726.01,-517.19 697,-504 659.76,-487.07 615.44,-472.51 583.57,-462.96"/>
<polygon fill="#1414ce" stroke="#1414ce" points="584.27,-459.52 573.69,-460.04 582.29,-466.23 584.27,-459.52"/>
</a>
</g>
</g>
<!-- 2&#45;&gt;28 -->
<g id="edge33" class="edge">
<title>2&#45;&gt;28</title>
<g id="a_edge33"><a xlink:title="include">
<path fill="none" stroke="#1414ce" d="M1318.54,-588.59C1371.14,-582.88 1446.59,-569.82 1506,-540 1559.47,-513.16 1607,-510.83 1607,-451 1607,-451 1607,-451 1607,-377 1607,-335.63 1622.23,-289.72 1633.41,-261.61"/>
<polygon fill="#1414ce" stroke="#1414ce" points="1636.76,-262.67 1637.31,-252.09 1630.28,-260.02 1636.76,-262.67"/>
</a>
</g>
</g>
<!-- 29 -->
<g id="node23" class="node">
<title>29</title>
<g id="a_node23"><a xlink:title="valueshashtable.h">
<polygon fill="#ffffff" stroke="black" points="1334,-180 1188,-180 1188,-144 1334,-144 1334,-180"/>
<text text-anchor="middle" x="1261" y="-158.3" font-family="Times,serif" font-size="14.00">valueshashtable.h</text>
</a>
</g>
</g>
<!-- 2&#45;&gt;29 -->
<g id="edge34" class="edge">
<title>2&#45;&gt;29</title>
<g id="a_edge34"><a xlink:title="include">
<path fill="none" stroke="#1414ce" d="M1243.19,-575.96C1226.49,-550.16 1198,-499.08 1198,-451 1198,-451 1198,-451 1198,-305 1198,-261.19 1223.36,-215.81 1241.9,-188.49"/>
<polygon fill="#1414ce" stroke="#1414ce" points="1244.78,-190.48 1247.64,-180.28 1239.04,-186.47 1244.78,-190.48"/>
</a>
</g>
</g>
<!-- 2&#45;&gt;3 -->
<g id="edge23" class="edge">
<title>2&#45;&gt;3</title>
<g id="a_edge23"><a xlink:title="include">
<path fill="none" stroke="#1414ce" d="M1318.66,-586.85C1394.85,-578.62 1517.17,-562.43 1557,-540 1691.29,-464.38 1722,-389.12 1722,-235 1722,-235 1722,-235 1722,-161 1722,-64.5 974.7,-28.47 779.29,-20.7"/>
<polygon fill="#1414ce" stroke="#1414ce" points="779.21,-17.19 769.08,-20.3 778.93,-24.19 779.21,-17.19"/>
</a>
</g>
</g>
<!-- 23&#45;&gt;8 -->
<g id="edge37" class="edge">
<title>23&#45;&gt;8</title>
<g id="a_edge37"><a xlink:title="include">
<path fill="none" stroke="#1414ce" d="M599.48,-359.95C589.98,-350.26 578.97,-337.41 572,-324 549.45,-280.6 539.22,-223.94 534.88,-190.71"/>
<polygon fill="#1414ce" stroke="#1414ce" points="538.31,-189.89 533.63,-180.39 531.36,-190.73 538.31,-189.89"/>
</a>
</g>
</g>
<!-- 23&#45;&gt;7 -->
<g id="edge35" class="edge">
<title>23&#45;&gt;7</title>
<g id="a_edge35"><a xlink:title="include">
<path fill="none" stroke="#1414ce" d="M609.19,-359.87C600.76,-340.85 591.19,-309.94 605,-288 665.36,-192.08 743.99,-246.18 836,-180 853.62,-167.33 851.1,-156.28 869,-144 894.31,-126.63 926.13,-113.78 952.53,-105.09"/>
<polygon fill="#1414ce" stroke="#1414ce" points="953.88,-108.33 962.35,-101.96 951.76,-101.66 953.88,-108.33"/>
</a>
</g>
</g>
<!-- 22 -->
<g id="node32" class="node">
<title>22</title>
<g id="a_node32"><a xlink:title="string.h">
<polygon fill="#ffffff" stroke="black" points="519.5,-324 446.5,-324 446.5,-288 519.5,-288 519.5,-324"/>
<text text-anchor="middle" x="483" y="-302.3" font-family="Times,serif" font-size="14.00">string.h</text>
</a>
</g>
</g>
<!-- 23&#45;&gt;22 -->
<g id="edge36" class="edge">
<title>23&#45;&gt;22</title>
<g id="a_edge36"><a xlink:title="include">
<path fill="none" stroke="#1414ce" d="M588.37,-361.64C569.8,-352.01 545.56,-339.44 525.02,-328.79"/>
<polygon fill="#1414ce" stroke="#1414ce" points="526.36,-325.54 515.87,-324.04 523.14,-331.75 526.36,-325.54"/>
</a>
</g>
</g>
<!-- 30&#45;&gt;31 -->
<g id="edge38" class="edge">
<title>30&#45;&gt;31</title>
<g id="a_edge38"><a xlink:title="include">
<path fill="none" stroke="#1414ce" d="M750.01,-575.7C760.72,-566.88 773.89,-556.03 785.5,-546.47"/>
<polygon fill="#1414ce" stroke="#1414ce" points="787.74,-549.16 793.23,-540.1 783.29,-543.76 787.74,-549.16"/>
</a>
</g>
</g>
<!-- 30&#45;&gt;33 -->
<g id="edge39" class="edge">
<title>30&#45;&gt;33</title>
<g id="a_edge39"><a xlink:title="include">
<path fill="none" stroke="#1414ce" d="M701.66,-582.82C674.2,-572.6 631.1,-556.55 596.46,-543.65"/>
<polygon fill="#1414ce" stroke="#1414ce" points="597.52,-540.31 586.93,-540.1 595.08,-546.87 597.52,-540.31"/>
</a>
</g>
</g>
<!-- 30&#45;&gt;20 -->
<g id="edge40" class="edge">
<title>30&#45;&gt;20</title>
<g id="a_edge40"><a xlink:title="include">
<path fill="none" stroke="#1414ce" d="M710.74,-575.69C690.7,-557.05 657.2,-526.99 626,-504 611.39,-493.24 594.57,-482.44 579.77,-473.43"/>
<polygon fill="#1414ce" stroke="#1414ce" points="581.22,-470.22 570.85,-468.06 577.61,-476.22 581.22,-470.22"/>
</a>
</g>
</g>
<!-- 30&#45;&gt;13 -->
<g id="edge41" class="edge">
<title>30&#45;&gt;13</title>
<g id="a_edge41"><a xlink:title="include">
<path fill="none" stroke="#1414ce" d="M701.75,-590.65C569.41,-578.86 0,-523.93 0,-451 0,-451 0,-451 0,-233 0,-187.85 16.56,-175.41 49,-144 62.45,-130.97 79.74,-120.45 96.34,-112.31"/>
<polygon fill="#1414ce" stroke="#1414ce" points="97.89,-115.45 105.47,-108.04 94.92,-109.11 97.89,-115.45"/>
</a>
</g>
</g>
<!-- 30&#45;&gt;7 -->
<g id="edge42" class="edge">
<title>30&#45;&gt;7</title>
<g id="a_edge42"><a xlink:title="include">
<path fill="none" stroke="#1414ce" d="M756.29,-590.03C851.03,-578.98 1160,-536.38 1160,-451 1160,-451 1160,-451 1160,-233 1160,-175.1 1100.5,-134.55 1054.99,-112.01"/>
<polygon fill="#1414ce" stroke="#1414ce" points="1056.34,-108.78 1045.81,-107.61 1053.31,-115.09 1056.34,-108.78"/>
</a>
</g>
</g>
<!-- 17&#45;&gt;7 -->
<g id="edge43" class="edge">
<title>17&#45;&gt;7</title>
<g id="a_edge43"><a xlink:title="include">
<path fill="none" stroke="#1414ce" d="M1351.81,-147.17C1348.88,-145.98 1345.91,-144.89 1343,-144 1244.09,-113.61 1123.33,-100.06 1055.91,-94.49"/>
<polygon fill="#1414ce" stroke="#1414ce" points="1055.8,-90.97 1045.56,-93.66 1055.25,-97.95 1055.8,-90.97"/>
</a>
</g>
</g>
<!-- 27&#45;&gt;17 -->
<g id="edge45" class="edge">
<title>27&#45;&gt;17</title>
<g id="a_edge45"><a xlink:title="include">
<path fill="none" stroke="#1414ce" d="M928.36,-224C943.11,-221.15 959.73,-218.18 975,-216 1134.5,-193.18 1182.71,-222.54 1342.19,-179.65"/>
<polygon fill="#1414ce" stroke="#1414ce" points="1343.14,-183.02 1351.86,-177 1341.29,-176.27 1343.14,-183.02"/>
</a>
</g>
</g>
<!-- 27&#45;&gt;13 -->
<g id="edge46" class="edge">
<title>27&#45;&gt;13</title>
<g id="a_edge46"><a xlink:title="include">
<path fill="none" stroke="#1414ce" d="M841.97,-228.94C769.37,-221.71 618.12,-204.96 492,-180 395.99,-161 286.81,-130.74 218.9,-110.87"/>
<polygon fill="#1414ce" stroke="#1414ce" points="219.77,-107.48 209.19,-108.02 217.8,-114.2 219.77,-107.48"/>
</a>
</g>
</g>
<!-- 27&#45;&gt;8 -->
<g id="edge47" class="edge">
<title>27&#45;&gt;8</title>
<g id="a_edge47"><a xlink:title="include">
<path fill="none" stroke="#1414ce" d="M841.84,-228.21C781.74,-220.95 669.8,-205.26 577,-180 575.59,-179.62 574.16,-179.21 572.73,-178.77"/>
<polygon fill="#1414ce" stroke="#1414ce" points="573.81,-175.45 563.22,-175.67 571.64,-182.1 573.81,-175.45"/>
</a>
</g>
</g>
<!-- 27&#45;&gt;7 -->
<g id="edge44" class="edge">
<title>27&#45;&gt;7</title>
<g id="a_edge44"><a xlink:title="include">
<path fill="none" stroke="#1414ce" d="M907.09,-215.86C919.02,-206.05 933.59,-193.1 945,-180 962.08,-160.38 978.16,-135.54 989.2,-117.09"/>
<polygon fill="#1414ce" stroke="#1414ce" points="992.3,-118.73 994.35,-108.34 986.26,-115.18 992.3,-118.73"/>
</a>
</g>
</g>
<!-- 24 -->
<g id="node13" class="node">
<title>24</title>
<g id="a_node13"><a xlink:title="memory.h">
<polygon fill="#ffffff" stroke="black" points="254,-252 168,-252 168,-216 254,-216 254,-252"/>
<text text-anchor="middle" x="211" y="-230.3" font-family="Times,serif" font-size="14.00">memory.h</text>
</a>
</g>
</g>
<!-- 24&#45;&gt;12 -->
<g id="edge50" class="edge">
<title>24&#45;&gt;12</title>
<g id="a_edge50"><a xlink:title="include">
<path fill="none" stroke="#1414ce" d="M184.58,-215.88C170.59,-206.81 153.22,-195.55 138.11,-185.76"/>
<polygon fill="#1414ce" stroke="#1414ce" points="139.82,-182.69 129.52,-180.19 136.01,-188.57 139.82,-182.69"/>
</a>
</g>
</g>
<!-- 24&#45;&gt;13 -->
<g id="edge51" class="edge">
<title>24&#45;&gt;13</title>
<g id="a_edge51"><a xlink:title="include">
<path fill="none" stroke="#1414ce" d="M204,-215.87C194.03,-191.46 175.64,-146.43 163.88,-117.64"/>
<polygon fill="#1414ce" stroke="#1414ce" points="167.04,-116.12 160.02,-108.19 160.56,-118.77 167.04,-116.12"/>
</a>
</g>
</g>
<!-- 24&#45;&gt;8 -->
<g id="edge52" class="edge">
<title>24&#45;&gt;8</title>
<g id="a_edge52"><a xlink:title="include">
<path fill="none" stroke="#1414ce" d="M254.29,-223.56C316.41,-210.01 430.04,-185.23 490.91,-171.96"/>
<polygon fill="#1414ce" stroke="#1414ce" points="491.9,-175.33 500.93,-169.78 490.41,-168.49 491.9,-175.33"/>
</a>
</g>
</g>
<!-- 24&#45;&gt;3 -->
<g id="edge48" class="edge">
<title>24&#45;&gt;3</title>
<g id="a_edge48"><a xlink:title="include">
<path fill="none" stroke="#1414ce" d="M215.6,-215.85C225.66,-181.96 253.08,-106.71 306,-72 367.85,-31.43 589.53,-21.91 686.75,-19.68"/>
<polygon fill="#1414ce" stroke="#1414ce" points="686.94,-23.18 696.87,-19.47 686.8,-16.18 686.94,-23.18"/>
</a>
</g>
</g>
<!-- 24&#45;&gt;5 -->
<g id="edge49" class="edge">
<title>24&#45;&gt;5</title>
<g id="a_edge49"><a xlink:title="include">
<path fill="none" stroke="#1414ce" d="M233.68,-215.87C267.27,-190.5 330.35,-142.85 368.13,-114.32"/>
<polygon fill="#1414ce" stroke="#1414ce" points="370.37,-117.01 376.24,-108.19 366.15,-111.42 370.37,-117.01"/>
</a>
</g>
</g>
<!-- 25 -->
<g id="node14" class="node">
<title>25</title>
<g id="a_node14"><a xlink:title="refc_binary.h">
<polygon fill="#ffffff" stroke="black" points="812,-396 704,-396 704,-360 812,-360 812,-396"/>
<text text-anchor="middle" x="758" y="-374.3" font-family="Times,serif" font-size="14.00">refc_binary.h</text>
</a>
</g>
</g>
<!-- 25&#45;&gt;17 -->
<g id="edge55" class="edge">
<title>25&#45;&gt;17</title>
<g id="a_edge55"><a xlink:title="include">
<path fill="none" stroke="#1414ce" d="M812.15,-364.08C894.52,-343.79 1055.7,-301.63 1188,-252 1243.26,-231.27 1304.72,-201.32 1342.63,-182.01"/>
<polygon fill="#1414ce" stroke="#1414ce" points="1344.44,-185.01 1351.74,-177.34 1341.24,-178.78 1344.44,-185.01"/>
</a>
</g>
</g>
<!-- 26 -->
<g id="node15" class="node">
<title>26</title>
<g id="a_node15"><a xlink:title="resources.h">
<polygon fill="#ffffff" stroke="black" points="714,-324 614,-324 614,-288 714,-288 714,-324"/>
<text text-anchor="middle" x="664" y="-302.3" font-family="Times,serif" font-size="14.00">resources.h</text>
</a>
</g>
</g>
<!-- 25&#45;&gt;26 -->
<g id="edge56" class="edge">
<title>25&#45;&gt;26</title>
<g id="a_edge56"><a xlink:title="include">
<path fill="none" stroke="#1414ce" d="M734.76,-359.7C722.81,-350.8 708.08,-339.82 695.15,-330.2"/>
<polygon fill="#1414ce" stroke="#1414ce" points="697.08,-327.27 686.97,-324.1 692.9,-332.88 697.08,-327.27"/>
</a>
</g>
</g>
<!-- 25&#45;&gt;7 -->
<g id="edge53" class="edge">
<title>25&#45;&gt;7</title>
<g id="a_edge53"><a xlink:title="include">
<path fill="none" stroke="#1414ce" d="M757.9,-359.89C757.74,-319.6 757.79,-221.71 762,-216 791.78,-175.62 824.59,-203.35 869,-180 892.6,-167.59 894.92,-158.95 917,-144 932.55,-133.47 950.16,-122.56 965.45,-113.39"/>
<polygon fill="#1414ce" stroke="#1414ce" points="967.35,-116.34 974.16,-108.22 963.77,-110.32 967.35,-116.34"/>
</a>
</g>
</g>
<!-- 25&#45;&gt;5 -->
<g id="edge54" class="edge">
<title>25&#45;&gt;5</title>
<g id="a_edge54"><a xlink:title="include">
<path fill="none" stroke="#1414ce" d="M755.21,-359.89C751.2,-340.31 742.1,-308.33 723,-288 718.15,-282.84 497.84,-184 492,-180 464.93,-161.47 438.33,-134.93 420.56,-115.66"/>
<polygon fill="#1414ce" stroke="#1414ce" points="423.05,-113.2 413.74,-108.15 417.87,-117.9 423.05,-113.2"/>
</a>
</g>
</g>
<!-- 26&#45;&gt;12 -->
<g id="edge58" class="edge">
<title>26&#45;&gt;12</title>
<g id="a_edge58"><a xlink:title="include">
<path fill="none" stroke="#1414ce" d="M613.98,-298.42C588.3,-295.12 556.5,-291.17 528,-288 446.12,-278.89 229.1,-295.29 159,-252 136.04,-237.82 120.93,-210.35 112.25,-189.65"/>
<polygon fill="#1414ce" stroke="#1414ce" points="115.42,-188.15 108.5,-180.13 108.91,-190.72 115.42,-188.15"/>
</a>
</g>
</g>
<!-- 26&#45;&gt;17 -->
<g id="edge59" class="edge">
<title>26&#45;&gt;17</title>
<g id="a_edge59"><a xlink:title="include">
<path fill="none" stroke="#1414ce" d="M714.04,-301.72C795.86,-295.75 963.09,-280.94 1102,-252 1208.34,-229.85 1237,-220.51 1342.26,-180.05"/>
<polygon fill="#1414ce" stroke="#1414ce" points="1343.59,-183.29 1351.67,-176.43 1341.08,-176.75 1343.59,-183.29"/>
</a>
</g>
</g>
<!-- 26&#45;&gt;27 -->
<g id="edge60" class="edge">
<title>26&#45;&gt;27</title>
<g id="a_edge60"><a xlink:title="include">
<path fill="none" stroke="#1414ce" d="M714.15,-289.12C749.3,-277.98 796.21,-263.12 831.99,-251.79"/>
<polygon fill="#1414ce" stroke="#1414ce" points="833.29,-255.05 841.76,-248.7 831.17,-248.38 833.29,-255.05"/>
</a>
</g>
</g>
<!-- 26&#45;&gt;24 -->
<g id="edge61" class="edge">
<title>26&#45;&gt;24</title>
<g id="a_edge61"><a xlink:title="include">
<path fill="none" stroke="#1414ce" d="M613.79,-297.24C527.59,-283.92 352.25,-256.83 264.1,-243.21"/>
<polygon fill="#1414ce" stroke="#1414ce" points="264.47,-239.72 254.05,-241.65 263.4,-246.64 264.47,-239.72"/>
</a>
</g>
</g>
<!-- 26&#45;&gt;18 -->
<g id="edge62" class="edge">
<title>26&#45;&gt;18</title>
<g id="a_edge62"><a xlink:title="include">
<path fill="none" stroke="#1414ce" d="M714.23,-301.09C815.62,-293.05 1051.98,-273.6 1250,-252 1276.42,-249.12 1305.74,-245.42 1330.1,-242.22"/>
<polygon fill="#1414ce" stroke="#1414ce" points="1330.77,-245.66 1340.22,-240.88 1329.85,-238.72 1330.77,-245.66"/>
</a>
</g>
</g>
<!-- 26&#45;&gt;5 -->
<g id="edge57" class="edge">
<title>26&#45;&gt;5</title>
<g id="a_edge57"><a xlink:title="include">
<path fill="none" stroke="#1414ce" d="M613.64,-298.75C577.74,-292.14 530,-278.77 496,-252 450.85,-216.44 421.91,-153.61 408.25,-117.86"/>
<polygon fill="#1414ce" stroke="#1414ce" points="411.4,-116.28 404.65,-108.12 404.83,-118.71 411.4,-116.28"/>
</a>
</g>
</g>
<!-- 19&#45;&gt;7 -->
<g id="edge63" class="edge">
<title>19&#45;&gt;7</title>
<g id="a_edge63"><a xlink:title="include">
<path fill="none" stroke="#1414ce" d="M1461.77,-153.67C1447.62,-150.41 1430.51,-146.71 1415,-144 1286.46,-121.57 1133.78,-104.32 1055.67,-96.17"/>
<polygon fill="#1414ce" stroke="#1414ce" points="1055.91,-92.68 1045.6,-95.13 1055.19,-99.64 1055.91,-92.68"/>
</a>
</g>
</g>
<!-- 18&#45;&gt;17 -->
<g id="edge65" class="edge">
<title>18&#45;&gt;17</title>
<g id="a_edge65"><a xlink:title="include">
<path fill="none" stroke="#1414ce" d="M1382.01,-215.7C1381.57,-207.98 1381.04,-198.71 1380.55,-190.11"/>
<polygon fill="#1414ce" stroke="#1414ce" points="1384.04,-189.89 1379.98,-180.1 1377.05,-190.29 1384.04,-189.89"/>
</a>
</g>
</g>
<!-- 18&#45;&gt;19 -->
<g id="edge66" class="edge">
<title>18&#45;&gt;19</title>
<g id="a_edge66"><a xlink:title="include">
<path fill="none" stroke="#1414ce" d="M1409.66,-215.88C1423.78,-206.81 1441.31,-195.55 1456.56,-185.76"/>
<polygon fill="#1414ce" stroke="#1414ce" points="1458.71,-188.54 1465.23,-180.19 1454.93,-182.65 1458.71,-188.54"/>
</a>
</g>
</g>
<!-- 11 -->
<g id="node30" class="node">
<title>11</title>
<g id="a_node30"><a xlink:title="stdio.h">
<polygon fill="#ffffff" stroke="black" points="564.5,-108 499.5,-108 499.5,-72 564.5,-72 564.5,-108"/>
<text text-anchor="middle" x="532" y="-86.3" font-family="Times,serif" font-size="14.00">stdio.h</text>
</a>
</g>
</g>
<!-- 18&#45;&gt;11 -->
<g id="edge64" class="edge">
<title>18&#45;&gt;11</title>
<g id="a_edge64"><a xlink:title="include">
<path fill="none" stroke="#1414ce" d="M1340.29,-230.29C1179.37,-220.05 618.26,-184.09 610,-180 595.32,-172.73 568.68,-140 550.66,-116.34"/>
<polygon fill="#1414ce" stroke="#1414ce" points="553.26,-113.98 544.45,-108.1 547.67,-118.19 553.26,-113.98"/>
</a>
</g>
</g>
<!-- 20&#45;&gt;4 -->
<g id="edge73" class="edge">
<title>20&#45;&gt;4</title>
<g id="a_edge73"><a xlink:title="include">
<path fill="none" stroke="#1414ce" d="M537.02,-431.76C531.79,-412.35 520.98,-380.82 502,-360 479.76,-335.59 453.77,-352.45 437,-324 428.88,-310.22 427.74,-301.05 437,-288 455.86,-261.41 660.23,-200.87 750.99,-175.04"/>
<polygon fill="#1414ce" stroke="#1414ce" points="752.04,-178.38 760.7,-172.29 750.13,-171.65 752.04,-178.38"/>
</a>
</g>
</g>
<!-- 20&#45;&gt;23 -->
<g id="edge74" class="edge">
<title>20&#45;&gt;23</title>
<g id="a_edge74"><a xlink:title="include">
<path fill="none" stroke="#1414ce" d="M560.03,-431.7C569.54,-423.05 581.21,-412.45 591.57,-403.03"/>
<polygon fill="#1414ce" stroke="#1414ce" points="594.14,-405.42 599.19,-396.1 589.43,-400.24 594.14,-405.42"/>
</a>
</g>
</g>
<!-- 20&#45;&gt;24 -->
<g id="edge75" class="edge">
<title>20&#45;&gt;24</title>
<g id="a_edge75"><a xlink:title="include">
<path fill="none" stroke="#1414ce" d="M508.44,-447.83C438.54,-444.62 277.41,-433.26 240,-396 204.71,-360.85 204.16,-298.31 207.32,-262.4"/>
<polygon fill="#1414ce" stroke="#1414ce" points="210.83,-262.48 208.38,-252.17 203.86,-261.75 210.83,-262.48"/>
</a>
</g>
</g>
<!-- 20&#45;&gt;25 -->
<g id="edge76" class="edge">
<title>20&#45;&gt;25</title>
<g id="a_edge76"><a xlink:title="include">
<path fill="none" stroke="#1414ce" d="M573.96,-438.37C606.16,-427.98 655.99,-411.91 695.68,-399.1"/>
<polygon fill="#1414ce" stroke="#1414ce" points="696.83,-402.41 705.28,-396.01 694.68,-395.75 696.83,-402.41"/>
</a>
</g>
</g>
<!-- 20&#45;&gt;26 -->
<g id="edge77" class="edge">
<title>20&#45;&gt;26</title>
<g id="a_edge77"><a xlink:title="include">
<path fill="none" stroke="#1414ce" d="M573.51,-443.26C600.29,-436.69 636.87,-423.13 656,-396 668.54,-378.22 669.74,-353.21 668.26,-334.22"/>
<polygon fill="#1414ce" stroke="#1414ce" points="671.73,-333.69 667.19,-324.11 664.77,-334.43 671.73,-333.69"/>
</a>
</g>
</g>
<!-- 20&#45;&gt;13 -->
<g id="edge79" class="edge">
<title>20&#45;&gt;13</title>
<g id="a_edge79"><a xlink:title="include">
<path fill="none" stroke="#1414ce" d="M508.31,-446.83C435.79,-441.5 263.94,-426.02 215,-396 113.61,-333.81 93.94,-293.06 57,-180 52.03,-164.79 48.87,-157.78 57,-144 64.86,-130.69 77.39,-120.48 90.84,-112.76"/>
<polygon fill="#1414ce" stroke="#1414ce" points="92.57,-115.81 99.78,-108.04 89.3,-109.62 92.57,-115.81"/>
</a>
</g>
</g>
<!-- 20&#45;&gt;8 -->
<g id="edge78" class="edge">
<title>20&#45;&gt;8</title>
<g id="a_edge78"><a xlink:title="include">
<path fill="none" stroke="#1414ce" d="M508.37,-448.2C471.95,-445.35 414.51,-434.56 387,-396 337.06,-325.99 396.53,-276.14 458,-216 469.29,-204.96 483.04,-194.46 495.61,-185.76"/>
<polygon fill="#1414ce" stroke="#1414ce" points="497.75,-188.54 504.08,-180.05 493.84,-182.74 497.75,-188.54"/>
</a>
</g>
</g>
<!-- 20&#45;&gt;7 -->
<g id="edge68" class="edge">
<title>20&#45;&gt;7</title>
<g id="a_edge68"><a xlink:title="include">
<path fill="none" stroke="#1414ce" d="M573.61,-447.66C640.29,-444.2 788.68,-432.47 821,-396 874.18,-335.99 788.24,-282.52 833,-216 853.42,-185.66 876.93,-200.82 907,-180 926.13,-166.76 927.9,-159.77 945,-144 955.38,-134.42 966.92,-124.01 977.01,-114.97"/>
<polygon fill="#1414ce" stroke="#1414ce" points="979.63,-117.33 984.75,-108.06 974.96,-112.11 979.63,-117.33"/>
</a>
</g>
</g>
<!-- 20&#45;&gt;3 -->
<g id="edge69" class="edge">
<title>20&#45;&gt;3</title>
<g id="a_edge69"><a xlink:title="include">
<path fill="none" stroke="#1414ce" d="M508.29,-445.56C453.81,-439.13 348.06,-423.38 324,-396 276.27,-341.68 301.04,-121.23 354,-72 401.4,-27.95 596.09,-20.25 686.49,-19.09"/>
<polygon fill="#1414ce" stroke="#1414ce" points="686.75,-22.58 696.72,-18.98 686.68,-15.58 686.75,-22.58"/>
</a>
</g>
</g>
<!-- 20&#45;&gt;11 -->
<g id="edge70" class="edge">
<title>20&#45;&gt;11</title>
<g id="a_edge70"><a xlink:title="include">
<path fill="none" stroke="#1414ce" d="M508.24,-449.74C467.55,-448.67 399.52,-439.9 367,-396 295.35,-299.27 436.28,-167.58 501.43,-114.55"/>
<polygon fill="#1414ce" stroke="#1414ce" points="503.75,-117.18 509.35,-108.19 499.36,-111.72 503.75,-117.18"/>
</a>
</g>
</g>
<!-- 20&#45;&gt;5 -->
<g id="edge71" class="edge">
<title>20&#45;&gt;5</title>
<g id="a_edge71"><a xlink:title="include">
<path fill="none" stroke="#1414ce" d="M508.3,-444.78C458.38,-437.59 366.84,-421.26 347,-396 280.83,-311.78 349.29,-173.72 382.79,-116.78"/>
<polygon fill="#1414ce" stroke="#1414ce" points="385.89,-118.43 388.04,-108.05 379.89,-114.83 385.89,-118.43"/>
</a>
</g>
</g>
<!-- 20&#45;&gt;22 -->
<g id="edge72" class="edge">
<title>20&#45;&gt;22</title>
<g id="a_edge72"><a xlink:title="include">
<path fill="none" stroke="#1414ce" d="M543.54,-431.75C545.5,-413.18 546.37,-383.17 536,-360 531.11,-349.07 522.88,-339.15 514.35,-330.92"/>
<polygon fill="#1414ce" stroke="#1414ce" points="516.62,-328.25 506.86,-324.15 511.93,-333.45 516.62,-328.25"/>
</a>
</g>
</g>
<!-- 21 -->
<g id="node33" class="node">
<title>21</title>
<g id="a_node33"><a xlink:title="sys/types.h">
<polygon fill="#ffffff" stroke="black" points="493.5,-396 396.5,-396 396.5,-360 493.5,-360 493.5,-396"/>
<text text-anchor="middle" x="445" y="-374.3" font-family="Times,serif" font-size="14.00">sys/types.h</text>
</a>
</g>
</g>
<!-- 20&#45;&gt;21 -->
<g id="edge67" class="edge">
<title>20&#45;&gt;21</title>
<g id="a_edge67"><a xlink:title="include">
<path fill="none" stroke="#1414ce" d="M517.27,-431.7C505.06,-422.8 490.01,-411.82 476.82,-402.2"/>
<polygon fill="#1414ce" stroke="#1414ce" points="478.6,-399.17 468.46,-396.1 474.48,-404.82 478.6,-399.17"/>
</a>
</g>
</g>
<!-- 14 -->
<g id="node24" class="node">
<title>14</title>
<g id="a_node24"><a xlink:title="assert.h">
<polygon fill="#ffffff" stroke="black" points="236,-36 162,-36 162,0 236,0 236,-36"/>
<text text-anchor="middle" x="199" y="-14.3" font-family="Times,serif" font-size="14.00">assert.h</text>
</a>
</g>
</g>
<!-- 13&#45;&gt;14 -->
<g id="edge80" class="edge">
<title>13&#45;&gt;14</title>
<g id="a_edge80"><a xlink:title="include">
<path fill="none" stroke="#1414ce" d="M164.37,-71.7C169.72,-63.56 176.2,-53.69 182.11,-44.7"/>
<polygon fill="#1414ce" stroke="#1414ce" points="185.19,-46.38 187.76,-36.1 179.34,-42.54 185.19,-46.38"/>
</a>
</g>
</g>
<!-- 9 -->
<g id="node25" class="node">
<title>9</title>
<g id="a_node25"><a xlink:title="inttypes.h">
<polygon fill="#ffffff" stroke="black" points="424.5,-36 335.5,-36 335.5,0 424.5,0 424.5,-36"/>
<text text-anchor="middle" x="380" y="-14.3" font-family="Times,serif" font-size="14.00">inttypes.h</text>
</a>
</g>
</g>
<!-- 13&#45;&gt;9 -->
<g id="edge82" class="edge">
<title>13&#45;&gt;9</title>
<g id="a_edge82"><a xlink:title="include">
<path fill="none" stroke="#1414ce" d="M208.24,-71.97C243.87,-60.98 290,-46.75 325.49,-35.81"/>
<polygon fill="#1414ce" stroke="#1414ce" points="326.67,-39.11 335.19,-32.82 324.61,-32.42 326.67,-39.11"/>
</a>
</g>
</g>
<!-- 15 -->
<g id="node26" class="node">
<title>15</title>
<g id="a_node26"><a xlink:title="limits.h">
<polygon fill="#ffffff" stroke="black" points="143.5,-36 72.5,-36 72.5,0 143.5,0 143.5,-36"/>
<text text-anchor="middle" x="108" y="-14.3" font-family="Times,serif" font-size="14.00">limits.h</text>
</a>
</g>
</g>
<!-- 13&#45;&gt;15 -->
<g id="edge81" class="edge">
<title>13&#45;&gt;15</title>
<g id="a_edge81"><a xlink:title="include">
<path fill="none" stroke="#1414ce" d="M141.88,-71.7C136.64,-63.56 130.3,-53.69 124.52,-44.7"/>
<polygon fill="#1414ce" stroke="#1414ce" points="127.35,-42.62 119,-36.1 121.46,-46.41 127.35,-42.62"/>
</a>
</g>
</g>
<!-- 13&#45;&gt;3 -->
<g id="edge83" class="edge">
<title>13&#45;&gt;3</title>
<g id="a_edge83"><a xlink:title="include">
<path fill="none" stroke="#1414ce" d="M215.5,-74.59C220.4,-73.65 225.27,-72.77 230,-72 397.16,-44.83 597.94,-28.52 686.81,-22.12"/>
<polygon fill="#1414ce" stroke="#1414ce" points="687.1,-25.61 696.83,-21.41 686.61,-18.63 687.1,-25.61"/>
</a>
</g>
</g>
<!-- 28&#45;&gt;17 -->
<g id="edge86" class="edge">
<title>28&#45;&gt;17</title>
<g id="a_edge86"><a xlink:title="include">
<path fill="none" stroke="#1414ce" d="M1595.9,-220.08C1543.88,-206.39 1462.9,-185.08 1416,-172.74"/>
<polygon fill="#1414ce" stroke="#1414ce" points="1416.82,-169.33 1406.26,-170.17 1415.04,-176.1 1416.82,-169.33"/>
</a>
</g>
</g>
<!-- 28&#45;&gt;7 -->
<g id="edge84" class="edge">
<title>28&#45;&gt;7</title>
<g id="a_edge84"><a xlink:title="include">
<path fill="none" stroke="#1414ce" d="M1629.18,-215.74C1608.77,-194.73 1571.08,-160.08 1531,-144 1445.55,-109.72 1171.33,-96.64 1055.94,-92.57"/>
<polygon fill="#1414ce" stroke="#1414ce" points="1055.72,-89.06 1045.61,-92.21 1055.48,-96.05 1055.72,-89.06"/>
</a>
</g>
</g>
<!-- 28&#45;&gt;3 -->
<g id="edge85" class="edge">
<title>28&#45;&gt;3</title>
<g id="a_edge85"><a xlink:title="include">
<path fill="none" stroke="#1414ce" d="M1636.19,-215.7C1624.67,-194.99 1602.44,-160.98 1573,-144 1435.52,-64.69 935.13,-30.37 779.51,-21.46"/>
<polygon fill="#1414ce" stroke="#1414ce" points="779.52,-17.95 769.34,-20.89 779.13,-24.94 779.52,-17.95"/>
</a>
</g>
</g>
<!-- 32&#45;&gt;7 -->
<g id="edge87" class="edge">
<title>32&#45;&gt;7</title>
<g id="a_edge87"><a xlink:title="include">
<path fill="none" stroke="#1414ce" d="M705.31,-152.13C768.31,-139.24 885.04,-115.35 952.4,-101.56"/>
<polygon fill="#1414ce" stroke="#1414ce" points="953.28,-104.95 962.37,-99.52 951.87,-98.1 953.28,-104.95"/>
</a>
</g>
</g>
<!-- 10 -->
<g id="node28" class="node">
<title>10</title>
<g id="a_node28"><a xlink:title="stddef.h">
<polygon fill="#ffffff" stroke="black" points="667,-108 593,-108 593,-72 667,-72 667,-108"/>
<text text-anchor="middle" x="630" y="-86.3" font-family="Times,serif" font-size="14.00">stddef.h</text>
</a>
</g>
</g>
<!-- 32&#45;&gt;10 -->
<g id="edge88" class="edge">
<title>32&#45;&gt;10</title>
<g id="a_edge88"><a xlink:title="include">
<path fill="none" stroke="#1414ce" d="M654.09,-143.7C650.45,-135.73 646.05,-126.1 642.01,-117.26"/>
<polygon fill="#1414ce" stroke="#1414ce" points="645.16,-115.74 637.82,-108.1 638.79,-118.65 645.16,-115.74"/>
</a>
</g>
</g>
<!-- 32&#45;&gt;3 -->
<g id="edge89" class="edge">
<title>32&#45;&gt;3</title>
<g id="a_edge89"><a xlink:title="include">
<path fill="none" stroke="#1414ce" d="M670.56,-143.87C682.82,-119.35 705.48,-74.03 719.87,-45.26"/>
<polygon fill="#1414ce" stroke="#1414ce" points="723.06,-46.7 724.41,-36.19 716.8,-43.57 723.06,-46.7"/>
</a>
</g>
</g>
<!-- 8&#45;&gt;9 -->
<g id="edge90" class="edge">
<title>8&#45;&gt;9</title>
<g id="a_edge90"><a xlink:title="include">
<path fill="none" stroke="#1414ce" d="M515.69,-143.83C498.15,-125.58 469.25,-96.08 443,-72 432.26,-62.14 420.07,-51.73 409.3,-42.76"/>
<polygon fill="#1414ce" stroke="#1414ce" points="411.33,-39.9 401.39,-36.22 406.87,-45.29 411.33,-39.9"/>
</a>
</g>
</g>
<!-- 8&#45;&gt;7 -->
<g id="edge91" class="edge">
<title>8&#45;&gt;7</title>
<g id="a_edge91"><a xlink:title="include">
<path fill="none" stroke="#1414ce" d="M563.01,-153.64C577.27,-150.41 594.44,-146.74 610,-144 732.05,-122.53 876.72,-105.1 952.23,-96.61"/>
<polygon fill="#1414ce" stroke="#1414ce" points="952.87,-100.06 962.42,-95.47 952.09,-93.11 952.87,-100.06"/>
</a>
</g>
</g>
<!-- 8&#45;&gt;10 -->
<g id="edge92" class="edge">
<title>8&#45;&gt;10</title>
<g id="a_edge92"><a xlink:title="include">
<path fill="none" stroke="#1414ce" d="M555.97,-143.88C568.55,-134.89 584.13,-123.76 597.75,-114.03"/>
<polygon fill="#1414ce" stroke="#1414ce" points="599.83,-116.85 605.93,-108.19 595.76,-111.15 599.83,-116.85"/>
</a>
</g>
</g>
<!-- 8&#45;&gt;11 -->
<g id="edge93" class="edge">
<title>8&#45;&gt;11</title>
<g id="a_edge93"><a xlink:title="include">
<path fill="none" stroke="#1414ce" d="M532,-143.7C532,-135.98 532,-126.71 532,-118.11"/>
<polygon fill="#1414ce" stroke="#1414ce" points="535.5,-118.1 532,-108.1 528.5,-118.1 535.5,-118.1"/>
</a>
</g>
</g>
<!-- 8&#45;&gt;5 -->
<g id="edge94" class="edge">
<title>8&#45;&gt;5</title>
<g id="a_edge94"><a xlink:title="include">
<path fill="none" stroke="#1414ce" d="M500.82,-144.59C482.79,-135.1 459.88,-123.04 440.36,-112.77"/>
<polygon fill="#1414ce" stroke="#1414ce" points="441.86,-109.6 431.38,-108.04 438.6,-115.79 441.86,-109.6"/>
</a>
</g>
</g>
<!-- 29&#45;&gt;10 -->
<g id="edge95" class="edge">
<title>29&#45;&gt;10</title>
<g id="a_edge95"><a xlink:title="include">
<path fill="none" stroke="#1414ce" d="M1188,-152.9C1057.26,-138.4 786.63,-108.38 677.33,-96.25"/>
<polygon fill="#1414ce" stroke="#1414ce" points="677.59,-92.76 667.26,-95.13 676.81,-99.71 677.59,-92.76"/>
</a>
</g>
</g>
<!-- 29&#45;&gt;3 -->
<g id="edge96" class="edge">
<title>29&#45;&gt;3</title>
<g id="a_edge96"><a xlink:title="include">
<path fill="none" stroke="#1414ce" d="M1228.22,-143.94C1188.16,-123.8 1117.82,-90.69 1054,-72 958.49,-44.03 842.4,-29.46 779.29,-23.09"/>
<polygon fill="#1414ce" stroke="#1414ce" points="779.56,-19.6 769.26,-22.1 778.87,-26.56 779.56,-19.6"/>
</a>
</g>
</g>
</g>
</svg>
