<?xml version="1.0" encoding="UTF-8" standalone="no"?>
<!DOCTYPE svg PUBLIC "-//W3C//DTD SVG 1.1//EN"
 "http://www.w3.org/Graphics/SVG/1.1/DTD/svg11.dtd">
<!-- Generated by graphviz version 2.43.0 (0)
 -->
<!-- Title: %3 Pages: 1 -->
<svg width="1808pt" height="836pt"
 viewBox="0.00 0.00 1808.00 836.00" xmlns="http://www.w3.org/2000/svg" xmlns:xlink="http://www.w3.org/1999/xlink">
<g id="graph0" class="graph" transform="scale(1 1) rotate(0) translate(4 832)">
<title>%3</title>
<polygon fill="transparent" stroke="transparent" points="-4,4 -4,-832 1804,-832 1804,4 -4,4"/>
<!-- 5 -->
<g id="node1" class="node">
<title>5</title>
<g id="a_node1"><a xlink:title="atom.h">
<polygon fill="#ffffff" stroke="black" points="687,-396 621,-396 621,-360 687,-360 687,-396"/>
<text text-anchor="middle" x="654" y="-374.3" font-family="Times,serif" font-size="14.00">atom.h</text>
</a>
</g>
</g>
<!-- 4 -->
<g id="node30" class="node">
<title>4</title>
<g id="a_node30"><a xlink:title="stdint.h">
<polygon fill="#ffffff" stroke="black" points="314,-36 242,-36 242,0 314,0 314,-36"/>
<text text-anchor="middle" x="278" y="-14.3" font-family="Times,serif" font-size="14.00">stdint.h</text>
</a>
</g>
</g>
<!-- 5&#45;&gt;4 -->
<g id="edge1" class="edge">
<title>5&#45;&gt;4</title>
<g id="a_edge1"><a xlink:title="include">
<path fill="none" stroke="#1414ce" d="M620.73,-371.53C504.66,-351.68 121.22,-279.33 57,-180 8.04,-104.27 153.44,-52.28 231.71,-30.49"/>
<polygon fill="#1414ce" stroke="#1414ce" points="233.09,-33.74 241.82,-27.74 231.25,-26.99 233.09,-33.74"/>
</a>
</g>
</g>
<!-- 6 -->
<g id="node32" class="node">
<title>6</title>
<g id="a_node32"><a xlink:title="stdlib.h">
<polygon fill="#ffffff" stroke="black" points="1330.5,-108 1259.5,-108 1259.5,-72 1330.5,-72 1330.5,-108"/>
<text text-anchor="middle" x="1295" y="-86.3" font-family="Times,serif" font-size="14.00">stdlib.h</text>
</a>
</g>
</g>
<!-- 5&#45;&gt;6 -->
<g id="edge2" class="edge">
<title>5&#45;&gt;6</title>
<g id="a_edge2"><a xlink:title="include">
<path fill="none" stroke="#1414ce" d="M687.04,-368.66C753.53,-351.29 907.53,-308.15 1029,-252 1117.75,-210.97 1214.07,-147.41 1262.82,-113.73"/>
<polygon fill="#1414ce" stroke="#1414ce" points="1264.86,-116.58 1271.08,-108 1260.87,-110.83 1264.86,-116.58"/>
</a>
</g>
</g>
<!-- 7 -->
<g id="node2" class="node">
<title>7</title>
<g id="a_node2"><a xlink:title="atom_table.h">
<polygon fill="#ffffff" stroke="black" points="632.5,-468 523.5,-468 523.5,-432 632.5,-432 632.5,-468"/>
<text text-anchor="middle" x="578" y="-446.3" font-family="Times,serif" font-size="14.00">atom_table.h</text>
</a>
</g>
</g>
<!-- 7&#45;&gt;5 -->
<g id="edge4" class="edge">
<title>7&#45;&gt;5</title>
<g id="a_edge4"><a xlink:title="include">
<path fill="none" stroke="#1414ce" d="M596.79,-431.7C606.17,-423.05 617.68,-412.45 627.91,-403.03"/>
<polygon fill="#1414ce" stroke="#1414ce" points="630.45,-405.45 635.43,-396.1 625.7,-400.3 630.45,-405.45"/>
</a>
</g>
</g>
<!-- 9 -->
<g id="node23" class="node">
<title>9</title>
<g id="a_node23"><a xlink:title="utils.h">
<polygon fill="#ffffff" stroke="black" points="1134,-180 1072,-180 1072,-144 1134,-144 1134,-180"/>
<text text-anchor="middle" x="1103" y="-158.3" font-family="Times,serif" font-size="14.00">utils.h</text>
</a>
</g>
</g>
<!-- 7&#45;&gt;9 -->
<g id="edge5" class="edge">
<title>7&#45;&gt;9</title>
<g id="a_edge5"><a xlink:title="include">
<path fill="none" stroke="#1414ce" d="M632.58,-434.18C721.93,-408.05 902.13,-347.35 1029,-252 1052.4,-234.41 1073.14,-208.02 1086.66,-188.54"/>
<polygon fill="#1414ce" stroke="#1414ce" points="1089.64,-190.37 1092.35,-180.13 1083.84,-186.45 1089.64,-190.37"/>
</a>
</g>
</g>
<!-- 8 -->
<g id="node28" class="node">
<title>8</title>
<g id="a_node28"><a xlink:title="stdbool.h">
<polygon fill="#ffffff" stroke="black" points="634.5,-108 551.5,-108 551.5,-72 634.5,-72 634.5,-108"/>
<text text-anchor="middle" x="593" y="-86.3" font-family="Times,serif" font-size="14.00">stdbool.h</text>
</a>
</g>
</g>
<!-- 7&#45;&gt;8 -->
<g id="edge3" class="edge">
<title>7&#45;&gt;8</title>
<g id="a_edge3"><a xlink:title="include">
<path fill="none" stroke="#1414ce" d="M577.21,-431.96C576.04,-405.3 574,-352.13 574,-307 574,-307 574,-307 574,-233 574,-192.86 581.55,-146.9 587.13,-118.4"/>
<polygon fill="#1414ce" stroke="#1414ce" points="590.61,-118.88 589.16,-108.39 583.74,-117.5 590.61,-118.88"/>
</a>
</g>
</g>
<!-- 31 -->
<g id="node3" class="node">
<title>31</title>
<g id="a_node3"><a xlink:title="bitstring.h">
<polygon fill="#ffffff" stroke="black" points="501,-540 409,-540 409,-504 501,-504 501,-540"/>
<text text-anchor="middle" x="455" y="-518.3" font-family="Times,serif" font-size="14.00">bitstring.h</text>
</a>
</g>
</g>
<!-- 21 -->
<g id="node19" class="node">
<title>21</title>
<g id="a_node19"><a xlink:title="term.h">
<polygon fill="#ffffff" stroke="black" points="1237.5,-468 1172.5,-468 1172.5,-432 1237.5,-432 1237.5,-468"/>
<text text-anchor="middle" x="1205" y="-446.3" font-family="Times,serif" font-size="14.00">term.h</text>
</a>
</g>
</g>
<!-- 31&#45;&gt;21 -->
<g id="edge6" class="edge">
<title>31&#45;&gt;21</title>
<g id="a_edge6"><a xlink:title="include">
<path fill="none" stroke="#1414ce" d="M501.07,-516.7C636.36,-504.07 1031.21,-467.22 1162.21,-454.99"/>
<polygon fill="#1414ce" stroke="#1414ce" points="1162.63,-458.47 1172.26,-454.06 1161.98,-451.5 1162.63,-458.47"/>
</a>
</g>
</g>
<!-- 32 -->
<g id="node22" class="node">
<title>32</title>
<g id="a_node22"><a xlink:title="unicode.h">
<polygon fill="#ffffff" stroke="black" points="392,-180 306,-180 306,-144 392,-144 392,-180"/>
<text text-anchor="middle" x="349" y="-158.3" font-family="Times,serif" font-size="14.00">unicode.h</text>
</a>
</g>
</g>
<!-- 31&#45;&gt;32 -->
<g id="edge7" class="edge">
<title>31&#45;&gt;32</title>
<g id="a_edge7"><a xlink:title="include">
<path fill="none" stroke="#1414ce" d="M449.89,-503.73C432.82,-446.08 377.69,-259.89 356.97,-189.92"/>
<polygon fill="#1414ce" stroke="#1414ce" points="360.26,-188.69 354.06,-180.09 353.54,-190.68 360.26,-188.69"/>
</a>
</g>
</g>
<!-- 31&#45;&gt;8 -->
<g id="edge8" class="edge">
<title>31&#45;&gt;8</title>
<g id="a_edge8"><a xlink:title="include">
<path fill="none" stroke="#1414ce" d="M460.22,-503.64C476.42,-449.94 527.54,-281.89 574,-144 576.88,-135.44 580.16,-126.15 583.17,-117.78"/>
<polygon fill="#1414ce" stroke="#1414ce" points="586.55,-118.72 586.67,-108.13 579.97,-116.34 586.55,-118.72"/>
</a>
</g>
</g>
<!-- 31&#45;&gt;4 -->
<g id="edge9" class="edge">
<title>31&#45;&gt;4</title>
<g id="a_edge9"><a xlink:title="include">
<path fill="none" stroke="#1414ce" d="M431.01,-503.9C379.79,-465.73 260.85,-367.75 217,-252 202.53,-213.8 245.69,-98.16 266.93,-45.56"/>
<polygon fill="#1414ce" stroke="#1414ce" points="270.21,-46.79 270.75,-36.21 263.73,-44.15 270.21,-46.79"/>
</a>
</g>
</g>
<!-- 2 -->
<g id="node4" class="node">
<title>2</title>
<g id="a_node4"><a xlink:title="context.h">
<polygon fill="#ffffff" stroke="black" points="925.5,-684 842.5,-684 842.5,-648 925.5,-648 925.5,-684"/>
<text text-anchor="middle" x="884" y="-662.3" font-family="Times,serif" font-size="14.00">context.h</text>
</a>
</g>
</g>
<!-- 3 -->
<g id="node8" class="node">
<title>3</title>
<g id="a_node8"><a xlink:title="globalcontext.h">
<polygon fill="#ffffff" stroke="black" points="670.5,-612 543.5,-612 543.5,-576 670.5,-576 670.5,-612"/>
<text text-anchor="middle" x="607" y="-590.3" font-family="Times,serif" font-size="14.00">globalcontext.h</text>
</a>
</g>
</g>
<!-- 2&#45;&gt;3 -->
<g id="edge10" class="edge">
<title>2&#45;&gt;3</title>
<g id="a_edge10"><a xlink:title="include">
<path fill="none" stroke="#1414ce" d="M842.23,-654.44C799.49,-643.64 732.21,-626.64 680.53,-613.58"/>
<polygon fill="#1414ce" stroke="#1414ce" points="681.3,-610.17 670.74,-611.11 679.58,-616.95 681.3,-610.17"/>
</a>
</g>
</g>
<!-- 30 -->
<g id="node9" class="node">
<title>30</title>
<g id="a_node9"><a xlink:title="jit.h">
<polygon fill="#ffffff" stroke="black" points="1119,-612 1065,-612 1065,-576 1119,-576 1119,-612"/>
<text text-anchor="middle" x="1092" y="-590.3" font-family="Times,serif" font-size="14.00">jit.h</text>
</a>
</g>
</g>
<!-- 2&#45;&gt;30 -->
<g id="edge11" class="edge">
<title>2&#45;&gt;30</title>
<g id="a_edge11"><a xlink:title="include">
<path fill="none" stroke="#1414ce" d="M925.51,-652.91C959.5,-642.75 1008.71,-627.44 1051,-612 1052.4,-611.49 1053.83,-610.96 1055.26,-610.41"/>
<polygon fill="#1414ce" stroke="#1414ce" points="1056.76,-613.58 1064.78,-606.67 1054.19,-607.07 1056.76,-613.58"/>
</a>
</g>
</g>
<!-- 18 -->
<g id="node10" class="node">
<title>18</title>
<g id="a_node10"><a xlink:title="list.h">
<polygon fill="#ffffff" stroke="black" points="819,-180 765,-180 765,-144 819,-144 819,-180"/>
<text text-anchor="middle" x="792" y="-158.3" font-family="Times,serif" font-size="14.00">list.h</text>
</a>
</g>
</g>
<!-- 2&#45;&gt;18 -->
<g id="edge12" class="edge">
<title>2&#45;&gt;18</title>
<g id="a_edge12"><a xlink:title="include">
<path fill="none" stroke="#1414ce" d="M893.84,-648C914.88,-609.47 960.71,-512.59 940,-432 933.25,-405.73 843.67,-251.17 807.24,-188.94"/>
<polygon fill="#1414ce" stroke="#1414ce" points="810.15,-186.97 802.07,-180.12 804.11,-190.51 810.15,-186.97"/>
</a>
</g>
</g>
<!-- 27 -->
<g id="node11" class="node">
<title>27</title>
<g id="a_node11"><a xlink:title="mailbox.h">
<polygon fill="#ffffff" stroke="black" points="1020,-252 934,-252 934,-216 1020,-216 1020,-252"/>
<text text-anchor="middle" x="977" y="-230.3" font-family="Times,serif" font-size="14.00">mailbox.h</text>
</a>
</g>
</g>
<!-- 2&#45;&gt;27 -->
<g id="edge13" class="edge">
<title>2&#45;&gt;27</title>
<g id="a_edge13"><a xlink:title="include">
<path fill="none" stroke="#1414ce" d="M925.63,-660.01C955.46,-654.02 993.66,-640.86 1013,-612 1087.69,-500.57 1020.46,-327.29 990.08,-261.53"/>
<polygon fill="#1414ce" stroke="#1414ce" points="993.15,-259.83 985.72,-252.27 986.82,-262.81 993.15,-259.83"/>
</a>
</g>
</g>
<!-- 20 -->
<g id="node17" class="node">
<title>20</title>
<g id="a_node17"><a xlink:title="smp.h">
<polygon fill="#ffffff" stroke="black" points="508,-180 448,-180 448,-144 508,-144 508,-180"/>
<text text-anchor="middle" x="478" y="-158.3" font-family="Times,serif" font-size="14.00">smp.h</text>
</a>
</g>
</g>
<!-- 2&#45;&gt;20 -->
<g id="edge14" class="edge">
<title>2&#45;&gt;20</title>
<g id="a_edge14"><a xlink:title="include">
<path fill="none" stroke="#1414ce" d="M842.5,-662.48C776.12,-657.61 642.5,-644.39 534,-612 460.44,-590.04 424.05,-600.66 377,-540 308.29,-451.42 350.13,-393.52 388,-288 399.83,-255.04 399.53,-244.41 420,-216 427.66,-205.37 437.74,-195.25 447.35,-186.75"/>
<polygon fill="#1414ce" stroke="#1414ce" points="449.9,-189.18 455.24,-180.03 445.36,-183.85 449.9,-189.18"/>
</a>
</g>
</g>
<!-- 2&#45;&gt;21 -->
<g id="edge15" class="edge">
<title>2&#45;&gt;21</title>
<g id="a_edge15"><a xlink:title="include">
<path fill="none" stroke="#1414ce" d="M925.56,-659.46C1023.92,-645.39 1266.02,-604.7 1310,-540 1319,-526.77 1318.39,-517.63 1310,-504 1296.34,-481.81 1270.21,-468.57 1247.43,-460.87"/>
<polygon fill="#1414ce" stroke="#1414ce" points="1248.18,-457.44 1237.59,-457.81 1246.1,-464.13 1248.18,-457.44"/>
</a>
</g>
</g>
<!-- 28 -->
<g id="node21" class="node">
<title>28</title>
<g id="a_node21"><a xlink:title="timer_list.h">
<polygon fill="#ffffff" stroke="black" points="324,-252 226,-252 226,-216 324,-216 324,-252"/>
<text text-anchor="middle" x="275" y="-230.3" font-family="Times,serif" font-size="14.00">timer_list.h</text>
</a>
</g>
</g>
<!-- 2&#45;&gt;28 -->
<g id="edge16" class="edge">
<title>2&#45;&gt;28</title>
<g id="a_edge16"><a xlink:title="include">
<path fill="none" stroke="#1414ce" d="M842.31,-664.69C707.97,-663.26 292.86,-655.34 253,-612 161.64,-512.64 231.45,-329.27 262.29,-261.27"/>
<polygon fill="#1414ce" stroke="#1414ce" points="265.51,-262.65 266.54,-252.1 259.16,-259.71 265.51,-262.65"/>
</a>
</g>
</g>
<!-- 12 -->
<g id="node5" class="node">
<title>12</title>
<g id="a_node5"><a xlink:title="erl_nif.h">
<polygon fill="#ffffff" stroke="black" points="1606,-180 1532,-180 1532,-144 1606,-144 1606,-180"/>
<text text-anchor="middle" x="1569" y="-158.3" font-family="Times,serif" font-size="14.00">erl_nif.h</text>
</a>
</g>
</g>
<!-- 13 -->
<g id="node20" class="node">
<title>13</title>
<g id="a_node20"><a xlink:title="term_typedef.h">
<polygon fill="#ffffff" stroke="black" points="1734.5,-108 1609.5,-108 1609.5,-72 1734.5,-72 1734.5,-108"/>
<text text-anchor="middle" x="1672" y="-86.3" font-family="Times,serif" font-size="14.00">term_typedef.h</text>
</a>
</g>
</g>
<!-- 12&#45;&gt;13 -->
<g id="edge17" class="edge">
<title>12&#45;&gt;13</title>
<g id="a_edge17"><a xlink:title="include">
<path fill="none" stroke="#1414ce" d="M1594.2,-143.88C1607.41,-134.89 1623.79,-123.76 1638.11,-114.03"/>
<polygon fill="#1414ce" stroke="#1414ce" points="1640.4,-116.71 1646.71,-108.19 1636.47,-110.92 1640.4,-116.71"/>
</a>
</g>
</g>
<!-- 17 -->
<g id="node6" class="node">
<title>17</title>
<g id="a_node6"><a xlink:title="ets.h">
<polygon fill="#ffffff" stroke="black" points="819,-540 765,-540 765,-504 819,-504 819,-540"/>
<text text-anchor="middle" x="792" y="-518.3" font-family="Times,serif" font-size="14.00">ets.h</text>
</a>
</g>
</g>
<!-- 17&#45;&gt;18 -->
<g id="edge18" class="edge">
<title>17&#45;&gt;18</title>
<g id="a_edge18"><a xlink:title="include">
<path fill="none" stroke="#1414ce" d="M790.79,-503.7C787.86,-461 780.47,-347.13 778,-252 777.58,-236.01 775.94,-231.87 778,-216 779.1,-207.51 781.16,-198.43 783.37,-190.24"/>
<polygon fill="#1414ce" stroke="#1414ce" points="786.78,-191.02 786.18,-180.44 780.05,-189.09 786.78,-191.02"/>
</a>
</g>
</g>
<!-- 19 -->
<g id="node18" class="node">
<title>19</title>
<g id="a_node18"><a xlink:title="synclist.h">
<polygon fill="#ffffff" stroke="black" points="725.5,-252 640.5,-252 640.5,-216 725.5,-216 725.5,-252"/>
<text text-anchor="middle" x="683" y="-230.3" font-family="Times,serif" font-size="14.00">synclist.h</text>
</a>
</g>
</g>
<!-- 17&#45;&gt;19 -->
<g id="edge19" class="edge">
<title>17&#45;&gt;19</title>
<g id="a_edge19"><a xlink:title="include">
<path fill="none" stroke="#1414ce" d="M785.51,-503.97C767.26,-456.09 715.42,-320.06 693.25,-261.9"/>
<polygon fill="#1414ce" stroke="#1414ce" points="696.43,-260.4 689.6,-252.31 689.89,-262.9 696.43,-260.4"/>
</a>
</g>
</g>
<!-- 17&#45;&gt;21 -->
<g id="edge20" class="edge">
<title>17&#45;&gt;21</title>
<g id="a_edge20"><a xlink:title="include">
<path fill="none" stroke="#1414ce" d="M819.1,-516.41C889.3,-504.51 1077.5,-472.61 1162.4,-458.22"/>
<polygon fill="#1414ce" stroke="#1414ce" points="1163.2,-461.63 1172.47,-456.51 1162.03,-454.73 1163.2,-461.63"/>
</a>
</g>
</g>
<!-- 33 -->
<g id="node7" class="node">
<title>33</title>
<g id="a_node7"><a xlink:title="exportedfunction.h">
<polygon fill="#ffffff" stroke="black" points="1301,-540 1149,-540 1149,-504 1301,-504 1301,-540"/>
<text text-anchor="middle" x="1225" y="-518.3" font-family="Times,serif" font-size="14.00">exportedfunction.h</text>
</a>
</g>
</g>
<!-- 33&#45;&gt;21 -->
<g id="edge21" class="edge">
<title>33&#45;&gt;21</title>
<g id="a_edge21"><a xlink:title="include">
<path fill="none" stroke="#1414ce" d="M1220.06,-503.7C1217.83,-495.9 1215.15,-486.51 1212.67,-477.83"/>
<polygon fill="#1414ce" stroke="#1414ce" points="1216,-476.76 1209.89,-468.1 1209.27,-478.68 1216,-476.76"/>
</a>
</g>
</g>
<!-- 3&#45;&gt;5 -->
<g id="edge23" class="edge">
<title>3&#45;&gt;5</title>
<g id="a_edge23"><a xlink:title="include">
<path fill="none" stroke="#1414ce" d="M612.4,-575.77C619.74,-551.81 632.88,-506.97 641,-468 645.27,-447.49 648.64,-424.04 650.87,-406.35"/>
<polygon fill="#1414ce" stroke="#1414ce" points="654.38,-406.52 652.11,-396.17 647.43,-405.67 654.38,-406.52"/>
</a>
</g>
</g>
<!-- 3&#45;&gt;7 -->
<g id="edge24" class="edge">
<title>3&#45;&gt;7</title>
<g id="a_edge24"><a xlink:title="include">
<path fill="none" stroke="#1414ce" d="M603.5,-575.87C598.54,-551.56 589.4,-506.82 583.52,-478.01"/>
<polygon fill="#1414ce" stroke="#1414ce" points="586.94,-477.29 581.51,-468.19 580.08,-478.69 586.94,-477.29"/>
</a>
</g>
</g>
<!-- 3&#45;&gt;12 -->
<g id="edge25" class="edge">
<title>3&#45;&gt;12</title>
<g id="a_edge25"><a xlink:title="include">
<path fill="none" stroke="#1414ce" d="M670.8,-584.09C737.44,-574.46 844.9,-558.07 937,-540 954.03,-536.66 1533.58,-409.07 1545,-396 1595.75,-337.93 1584.48,-238.02 1575.23,-190.13"/>
<polygon fill="#1414ce" stroke="#1414ce" points="1578.63,-189.3 1573.19,-180.2 1571.77,-190.7 1578.63,-189.3"/>
</a>
</g>
</g>
<!-- 3&#45;&gt;17 -->
<g id="edge26" class="edge">
<title>3&#45;&gt;17</title>
<g id="a_edge26"><a xlink:title="include">
<path fill="none" stroke="#1414ce" d="M652.26,-575.88C683.97,-563.88 725.82,-548.04 755.42,-536.84"/>
<polygon fill="#1414ce" stroke="#1414ce" points="756.85,-540.04 764.96,-533.23 754.37,-533.5 756.85,-540.04"/>
</a>
</g>
</g>
<!-- 3&#45;&gt;18 -->
<g id="edge27" class="edge">
<title>3&#45;&gt;18</title>
<g id="a_edge27"><a xlink:title="include">
<path fill="none" stroke="#1414ce" d="M670.6,-586.44C728.79,-578.97 808.67,-564.51 828,-540 870.67,-485.88 819.31,-267.58 799.31,-190.29"/>
<polygon fill="#1414ce" stroke="#1414ce" points="802.63,-189.14 796.71,-180.35 795.86,-190.91 802.63,-189.14"/>
</a>
</g>
</g>
<!-- 3&#45;&gt;27 -->
<g id="edge28" class="edge">
<title>3&#45;&gt;27</title>
<g id="a_edge28"><a xlink:title="include">
<path fill="none" stroke="#1414ce" d="M670.65,-586.71C736.27,-579.03 832.86,-564.02 861,-540 947,-466.6 969.41,-322.27 975.11,-262.22"/>
<polygon fill="#1414ce" stroke="#1414ce" points="978.62,-262.29 975.99,-252.02 971.64,-261.68 978.62,-262.29"/>
</a>
</g>
</g>
<!-- 3&#45;&gt;20 -->
<g id="edge29" class="edge">
<title>3&#45;&gt;20</title>
<g id="a_edge29"><a xlink:title="include">
<path fill="none" stroke="#1414ce" d="M543.47,-585.29C489.33,-577.26 417.57,-562.64 400,-540 315.84,-431.58 416.88,-254.53 460.16,-188.71"/>
<polygon fill="#1414ce" stroke="#1414ce" points="463.21,-190.44 465.86,-180.18 457.39,-186.55 463.21,-190.44"/>
</a>
</g>
</g>
<!-- 3&#45;&gt;19 -->
<g id="edge30" class="edge">
<title>3&#45;&gt;19</title>
<g id="a_edge30"><a xlink:title="include">
<path fill="none" stroke="#1414ce" d="M585,-575.87C551.38,-547.46 493.21,-488.15 514,-432 541.66,-357.28 611.73,-291.79 652.44,-258.44"/>
<polygon fill="#1414ce" stroke="#1414ce" points="654.82,-261.01 660.41,-252.01 650.43,-255.56 654.82,-261.01"/>
</a>
</g>
</g>
<!-- 3&#45;&gt;21 -->
<g id="edge31" class="edge">
<title>3&#45;&gt;21</title>
<g id="a_edge31"><a xlink:title="include">
<path fill="none" stroke="#1414ce" d="M670.68,-589.89C731.54,-585 824.74,-572.41 899,-540 923.44,-529.33 922.68,-514.95 947,-504 1018.34,-471.88 1109.56,-459.02 1162.23,-454.02"/>
<polygon fill="#1414ce" stroke="#1414ce" points="1162.58,-457.51 1172.23,-453.13 1161.95,-450.53 1162.58,-457.51"/>
</a>
</g>
</g>
<!-- 3&#45;&gt;28 -->
<g id="edge32" class="edge">
<title>3&#45;&gt;28</title>
<g id="a_edge32"><a xlink:title="include">
<path fill="none" stroke="#1414ce" d="M543.36,-586.24C481.17,-578.39 392.27,-563.43 367,-540 286.24,-465.13 275.45,-322.22 274.65,-262.4"/>
<polygon fill="#1414ce" stroke="#1414ce" points="278.15,-262.22 274.6,-252.23 271.15,-262.25 278.15,-262.22"/>
</a>
</g>
</g>
<!-- 29 -->
<g id="node24" class="node">
<title>29</title>
<g id="a_node24"><a xlink:title="valueshashtable.h">
<polygon fill="#ffffff" stroke="black" points="212,-180 66,-180 66,-144 212,-144 212,-180"/>
<text text-anchor="middle" x="139" y="-158.3" font-family="Times,serif" font-size="14.00">valueshashtable.h</text>
</a>
</g>
</g>
<!-- 3&#45;&gt;29 -->
<g id="edge33" class="edge">
<title>3&#45;&gt;29</title>
<g id="a_edge33"><a xlink:title="include">
<path fill="none" stroke="#1414ce" d="M543.26,-590.9C485.46,-586.7 399.41,-574.55 333,-540 251.3,-497.5 227.88,-476.97 184,-396 147.46,-328.57 140.27,-236.01 139.06,-190.51"/>
<polygon fill="#1414ce" stroke="#1414ce" points="142.56,-190.19 138.87,-180.26 135.56,-190.32 142.56,-190.19"/>
</a>
</g>
</g>
<!-- 3&#45;&gt;4 -->
<g id="edge22" class="edge">
<title>3&#45;&gt;4</title>
<g id="a_edge22"><a xlink:title="include">
<path fill="none" stroke="#1414ce" d="M543.47,-591.52C387.82,-586.17 0,-561.73 0,-451 0,-451 0,-451 0,-161 0,-58.17 152.7,-29.77 231.76,-21.95"/>
<polygon fill="#1414ce" stroke="#1414ce" points="232.3,-25.41 241.94,-21.02 231.66,-18.44 232.3,-25.41"/>
</a>
</g>
</g>
<!-- 30&#45;&gt;31 -->
<g id="edge34" class="edge">
<title>30&#45;&gt;31</title>
<g id="a_edge34"><a xlink:title="include">
<path fill="none" stroke="#1414ce" d="M1064.63,-589.99C968.29,-579.41 643.6,-543.73 511.56,-529.21"/>
<polygon fill="#1414ce" stroke="#1414ce" points="511.58,-525.7 501.26,-528.08 510.82,-532.66 511.58,-525.7"/>
</a>
</g>
</g>
<!-- 30&#45;&gt;33 -->
<g id="edge35" class="edge">
<title>30&#45;&gt;33</title>
<g id="a_edge35"><a xlink:title="include">
<path fill="none" stroke="#1414ce" d="M1119.24,-578.67C1137.77,-568.91 1162.65,-555.82 1183.62,-544.78"/>
<polygon fill="#1414ce" stroke="#1414ce" points="1185.42,-547.79 1192.64,-540.03 1182.16,-541.59 1185.42,-547.79"/>
</a>
</g>
</g>
<!-- 30&#45;&gt;21 -->
<g id="edge36" class="edge">
<title>30&#45;&gt;21</title>
<g id="a_edge36"><a xlink:title="include">
<path fill="none" stroke="#1414ce" d="M1090.66,-575.93C1090.03,-556.67 1091.77,-525.28 1107,-504 1120.44,-485.21 1142.68,-472.41 1162.57,-464.11"/>
<polygon fill="#1414ce" stroke="#1414ce" points="1164.06,-467.29 1172.1,-460.39 1161.52,-460.77 1164.06,-467.29"/>
</a>
</g>
</g>
<!-- 30&#45;&gt;13 -->
<g id="edge37" class="edge">
<title>30&#45;&gt;13</title>
<g id="a_edge37"><a xlink:title="include">
<path fill="none" stroke="#1414ce" d="M1096.3,-575.87C1102.39,-555.34 1115.61,-521.51 1140,-504 1217.28,-448.52 1258.68,-490.98 1351,-468 1450.01,-443.35 1484.76,-453.58 1569,-396 1637.54,-349.15 1658.28,-329.52 1688,-252 1705.19,-207.16 1699.22,-191.31 1691,-144 1689.48,-135.24 1686.64,-126.01 1683.61,-117.75"/>
<polygon fill="#1414ce" stroke="#1414ce" points="1686.79,-116.29 1679.89,-108.25 1680.28,-118.84 1686.79,-116.29"/>
</a>
</g>
</g>
<!-- 30&#45;&gt;8 -->
<g id="edge38" class="edge">
<title>30&#45;&gt;8</title>
<g id="a_edge38"><a xlink:title="include">
<path fill="none" stroke="#1414ce" d="M1064.91,-592.26C993.54,-589.78 802.64,-579.5 756,-540 691.65,-485.5 731.29,-436.59 696,-360 672.56,-309.12 652.13,-303.88 631,-252 612.7,-207.07 602.01,-151.34 596.85,-118.63"/>
<polygon fill="#1414ce" stroke="#1414ce" points="600.27,-117.82 595.31,-108.46 593.35,-118.87 600.27,-117.82"/>
</a>
</g>
</g>
<!-- 18&#45;&gt;8 -->
<g id="edge39" class="edge">
<title>18&#45;&gt;8</title>
<g id="a_edge39"><a xlink:title="include">
<path fill="none" stroke="#1414ce" d="M764.75,-151.41C733.84,-140.54 682.74,-122.57 644.3,-109.05"/>
<polygon fill="#1414ce" stroke="#1414ce" points="645.42,-105.73 634.82,-105.71 643.09,-112.33 645.42,-105.73"/>
</a>
</g>
</g>
<!-- 27&#45;&gt;18 -->
<g id="edge41" class="edge">
<title>27&#45;&gt;18</title>
<g id="a_edge41"><a xlink:title="include">
<path fill="none" stroke="#1414ce" d="M933.63,-216.59C901.77,-204.53 858.96,-188.34 828.78,-176.92"/>
<polygon fill="#1414ce" stroke="#1414ce" points="829.65,-173.5 819.06,-173.24 827.17,-180.05 829.65,-173.5"/>
</a>
</g>
</g>
<!-- 27&#45;&gt;13 -->
<g id="edge42" class="edge">
<title>27&#45;&gt;13</title>
<g id="a_edge42"><a xlink:title="include">
<path fill="none" stroke="#1414ce" d="M1020.21,-224.17C1136.13,-200.49 1454.93,-135.35 1599.28,-105.86"/>
<polygon fill="#1414ce" stroke="#1414ce" points="1600.27,-109.23 1609.37,-103.8 1598.87,-102.37 1600.27,-109.23"/>
</a>
</g>
</g>
<!-- 27&#45;&gt;9 -->
<g id="edge43" class="edge">
<title>27&#45;&gt;9</title>
<g id="a_edge43"><a xlink:title="include">
<path fill="none" stroke="#1414ce" d="M1007.82,-215.88C1024.45,-206.64 1045.16,-195.13 1063.02,-185.21"/>
<polygon fill="#1414ce" stroke="#1414ce" points="1065.02,-188.11 1072.06,-180.19 1061.62,-181.99 1065.02,-188.11"/>
</a>
</g>
</g>
<!-- 27&#45;&gt;8 -->
<g id="edge40" class="edge">
<title>27&#45;&gt;8</title>
<g id="a_edge40"><a xlink:title="include">
<path fill="none" stroke="#1414ce" d="M953.71,-215.87C925.37,-195.82 875.43,-162.95 828,-144 767.27,-119.73 693.04,-105.34 644.47,-97.81"/>
<polygon fill="#1414ce" stroke="#1414ce" points="644.92,-94.34 634.51,-96.3 643.88,-101.26 644.92,-94.34"/>
</a>
</g>
</g>
<!-- 24 -->
<g id="node12" class="node">
<title>24</title>
<g id="a_node12"><a xlink:title="memory.h">
<polygon fill="#ffffff" stroke="black" points="1509,-252 1423,-252 1423,-216 1509,-216 1509,-252"/>
<text text-anchor="middle" x="1466" y="-230.3" font-family="Times,serif" font-size="14.00">memory.h</text>
</a>
</g>
</g>
<!-- 24&#45;&gt;12 -->
<g id="edge46" class="edge">
<title>24&#45;&gt;12</title>
<g id="a_edge46"><a xlink:title="include">
<path fill="none" stroke="#1414ce" d="M1491.2,-215.88C1504.41,-206.89 1520.79,-195.76 1535.11,-186.03"/>
<polygon fill="#1414ce" stroke="#1414ce" points="1537.4,-188.71 1543.71,-180.19 1533.47,-182.92 1537.4,-188.71"/>
</a>
</g>
</g>
<!-- 24&#45;&gt;13 -->
<g id="edge47" class="edge">
<title>24&#45;&gt;13</title>
<g id="a_edge47"><a xlink:title="include">
<path fill="none" stroke="#1414ce" d="M1472.86,-215.83C1481.66,-195.9 1498.72,-163.29 1523,-144 1545.11,-126.43 1573.51,-114.42 1599.57,-106.35"/>
<polygon fill="#1414ce" stroke="#1414ce" points="1600.82,-109.62 1609.43,-103.44 1598.84,-102.91 1600.82,-109.62"/>
</a>
</g>
</g>
<!-- 24&#45;&gt;9 -->
<g id="edge48" class="edge">
<title>24&#45;&gt;9</title>
<g id="a_edge48"><a xlink:title="include">
<path fill="none" stroke="#1414ce" d="M1422.93,-224.7C1352.55,-211.12 1213.8,-184.37 1144.47,-171"/>
<polygon fill="#1414ce" stroke="#1414ce" points="1144.84,-167.5 1134.36,-169.05 1143.51,-174.38 1144.84,-167.5"/>
</a>
</g>
</g>
<!-- 24&#45;&gt;4 -->
<g id="edge44" class="edge">
<title>24&#45;&gt;4</title>
<g id="a_edge44"><a xlink:title="include">
<path fill="none" stroke="#1414ce" d="M1458.86,-216C1443.24,-181.34 1402.4,-103.15 1340,-72 1248.31,-26.24 516.75,-19.99 324.27,-19.13"/>
<polygon fill="#1414ce" stroke="#1414ce" points="324.21,-15.63 314.2,-19.09 324.18,-22.63 324.21,-15.63"/>
</a>
</g>
</g>
<!-- 24&#45;&gt;6 -->
<g id="edge45" class="edge">
<title>24&#45;&gt;6</title>
<g id="a_edge45"><a xlink:title="include">
<path fill="none" stroke="#1414ce" d="M1447.62,-215.78C1427.87,-197.48 1395.36,-167.95 1366,-144 1353.6,-133.89 1339.56,-123.25 1327.26,-114.17"/>
<polygon fill="#1414ce" stroke="#1414ce" points="1329.19,-111.25 1319.06,-108.17 1325.06,-116.9 1329.19,-111.25"/>
</a>
</g>
</g>
<!-- 34 -->
<g id="node13" class="node">
<title>34</title>
<g id="a_node13"><a xlink:title="nifs.h">
<polygon fill="#ffffff" stroke="black" points="912,-756 856,-756 856,-720 912,-720 912,-756"/>
<text text-anchor="middle" x="884" y="-734.3" font-family="Times,serif" font-size="14.00">nifs.h</text>
</a>
</g>
</g>
<!-- 34&#45;&gt;5 -->
<g id="edge49" class="edge">
<title>34&#45;&gt;5</title>
<g id="a_edge49"><a xlink:title="include">
<path fill="none" stroke="#1414ce" d="M855.9,-729.63C804.15,-714.17 699,-673.14 699,-595 699,-595 699,-595 699,-521 699,-479.13 681,-433.42 667.77,-405.48"/>
<polygon fill="#1414ce" stroke="#1414ce" points="670.85,-403.82 663.32,-396.37 664.56,-406.89 670.85,-403.82"/>
</a>
</g>
</g>
<!-- 34&#45;&gt;2 -->
<g id="edge50" class="edge">
<title>34&#45;&gt;2</title>
<g id="a_edge50"><a xlink:title="include">
<path fill="none" stroke="#1414ce" d="M884,-719.7C884,-711.98 884,-702.71 884,-694.11"/>
<polygon fill="#1414ce" stroke="#1414ce" points="887.5,-694.1 884,-684.1 880.5,-694.1 887.5,-694.1"/>
</a>
</g>
</g>
<!-- 34&#45;&gt;33 -->
<g id="edge51" class="edge">
<title>34&#45;&gt;33</title>
<g id="a_edge51"><a xlink:title="include">
<path fill="none" stroke="#1414ce" d="M912.08,-725.57C958.94,-705.87 1055.14,-662.7 1128,-612 1155.37,-592.95 1183.05,-566.71 1201.79,-547.66"/>
<polygon fill="#1414ce" stroke="#1414ce" points="1204.55,-549.84 1209.01,-540.23 1199.53,-544.97 1204.55,-549.84"/>
</a>
</g>
</g>
<!-- 1 -->
<g id="node14" class="node">
<title>1</title>
<g id="a_node14"><a xlink:title="/__w/AtomVM/AtomVM/src/libAtomVM/portnifloader.h">
<polygon fill="#bfbfbf" stroke="black" points="1027,-828 629,-828 629,-792 1027,-792 1027,-828"/>
<text text-anchor="middle" x="828" y="-806.3" font-family="Times,serif" font-size="14.00">/__w/AtomVM/AtomVM/src/libAtomVM/portnifloader.h</text>
</a>
</g>
</g>
<!-- 1&#45;&gt;2 -->
<g id="edge52" class="edge">
<title>1&#45;&gt;2</title>
<g id="a_edge52"><a xlink:title="include">
<path fill="none" stroke="#1414ce" d="M829.6,-791.99C831.78,-773.61 836.67,-743.76 847,-720 851.18,-710.38 857.25,-700.71 863.26,-692.32"/>
<polygon fill="#1414ce" stroke="#1414ce" points="866.23,-694.19 869.43,-684.09 860.63,-689.99 866.23,-694.19"/>
</a>
</g>
</g>
<!-- 1&#45;&gt;3 -->
<g id="edge53" class="edge">
<title>1&#45;&gt;3</title>
<g id="a_edge53"><a xlink:title="include">
<path fill="none" stroke="#1414ce" d="M806.37,-791.62C777.66,-768.22 725.83,-724.78 685,-684 664.45,-663.48 642.81,-638.48 627.56,-620.21"/>
<polygon fill="#1414ce" stroke="#1414ce" points="630.1,-617.8 621.02,-612.33 624.71,-622.27 630.1,-617.8"/>
</a>
</g>
</g>
<!-- 1&#45;&gt;34 -->
<g id="edge54" class="edge">
<title>1&#45;&gt;34</title>
<g id="a_edge54"><a xlink:title="include">
<path fill="none" stroke="#1414ce" d="M841.84,-791.7C848.49,-783.39 856.58,-773.28 863.89,-764.14"/>
<polygon fill="#1414ce" stroke="#1414ce" points="866.8,-766.1 870.32,-756.1 861.34,-761.73 866.8,-766.1"/>
</a>
</g>
</g>
<!-- 25 -->
<g id="node15" class="node">
<title>25</title>
<g id="a_node15"><a xlink:title="refc_binary.h">
<polygon fill="#ffffff" stroke="black" points="1483,-396 1375,-396 1375,-360 1483,-360 1483,-396"/>
<text text-anchor="middle" x="1429" y="-374.3" font-family="Times,serif" font-size="14.00">refc_binary.h</text>
</a>
</g>
</g>
<!-- 25&#45;&gt;18 -->
<g id="edge57" class="edge">
<title>25&#45;&gt;18</title>
<g id="a_edge57"><a xlink:title="include">
<path fill="none" stroke="#1414ce" d="M1374.74,-362.2C1371.79,-361.44 1368.86,-360.7 1366,-360 1152,-307.28 1075.45,-357.6 882,-252 878.01,-249.82 841.5,-213.2 816.23,-187.62"/>
<polygon fill="#1414ce" stroke="#1414ce" points="818.63,-185.07 809.11,-180.41 813.65,-189.99 818.63,-185.07"/>
</a>
</g>
</g>
<!-- 26 -->
<g id="node16" class="node">
<title>26</title>
<g id="a_node16"><a xlink:title="resources.h">
<polygon fill="#ffffff" stroke="black" points="1366,-324 1266,-324 1266,-288 1366,-288 1366,-324"/>
<text text-anchor="middle" x="1316" y="-302.3" font-family="Times,serif" font-size="14.00">resources.h</text>
</a>
</g>
</g>
<!-- 25&#45;&gt;26 -->
<g id="edge58" class="edge">
<title>25&#45;&gt;26</title>
<g id="a_edge58"><a xlink:title="include">
<path fill="none" stroke="#1414ce" d="M1401.36,-359.88C1386.58,-350.72 1368.21,-339.34 1352.3,-329.48"/>
<polygon fill="#1414ce" stroke="#1414ce" points="1354.09,-326.48 1343.75,-324.19 1350.41,-332.43 1354.09,-326.48"/>
</a>
</g>
</g>
<!-- 25&#45;&gt;8 -->
<g id="edge55" class="edge">
<title>25&#45;&gt;8</title>
<g id="a_edge55"><a xlink:title="include">
<path fill="none" stroke="#1414ce" d="M1374.75,-362.32C1328.04,-349.35 1266.65,-331.38 1257,-324 1181.76,-266.5 1223.67,-193.59 1143,-144 1060.41,-93.24 765.42,-89.59 644.88,-90.31"/>
<polygon fill="#1414ce" stroke="#1414ce" points="644.77,-86.81 634.79,-90.38 644.82,-93.81 644.77,-86.81"/>
</a>
</g>
</g>
<!-- 25&#45;&gt;6 -->
<g id="edge56" class="edge">
<title>25&#45;&gt;6</title>
<g id="a_edge56"><a xlink:title="include">
<path fill="none" stroke="#1414ce" d="M1420.76,-359.62C1409.33,-335.49 1388.03,-290.46 1370,-252 1347.81,-204.69 1322.13,-149.46 1307.31,-117.53"/>
<polygon fill="#1414ce" stroke="#1414ce" points="1310.46,-116 1303.07,-108.41 1304.11,-118.95 1310.46,-116"/>
</a>
</g>
</g>
<!-- 26&#45;&gt;12 -->
<g id="edge60" class="edge">
<title>26&#45;&gt;12</title>
<g id="a_edge60"><a xlink:title="include">
<path fill="none" stroke="#1414ce" d="M1366.4,-302.54C1410.41,-298.07 1473.96,-285.73 1518,-252 1538.56,-236.25 1552.22,-209.68 1560.18,-189.65"/>
<polygon fill="#1414ce" stroke="#1414ce" points="1563.51,-190.74 1563.74,-180.15 1556.96,-188.29 1563.51,-190.74"/>
</a>
</g>
</g>
<!-- 26&#45;&gt;18 -->
<g id="edge61" class="edge">
<title>26&#45;&gt;18</title>
<g id="a_edge61"><a xlink:title="include">
<path fill="none" stroke="#1414ce" d="M1265.73,-298.94C1163.65,-286.53 940.43,-258.81 925,-252 902.2,-241.93 902.36,-230.37 882,-216 864.88,-203.91 844.87,-191.94 828.07,-182.43"/>
<polygon fill="#1414ce" stroke="#1414ce" points="829.54,-179.25 819.11,-177.42 826.13,-185.36 829.54,-179.25"/>
</a>
</g>
</g>
<!-- 26&#45;&gt;27 -->
<g id="edge62" class="edge">
<title>26&#45;&gt;27</title>
<g id="a_edge62"><a xlink:title="include">
<path fill="none" stroke="#1414ce" d="M1265.98,-294.67C1202.87,-281.64 1094.79,-259.32 1030.21,-245.99"/>
<polygon fill="#1414ce" stroke="#1414ce" points="1030.73,-242.52 1020.23,-243.93 1029.32,-249.38 1030.73,-242.52"/>
</a>
</g>
</g>
<!-- 26&#45;&gt;24 -->
<g id="edge63" class="edge">
<title>26&#45;&gt;24</title>
<g id="a_edge63"><a xlink:title="include">
<path fill="none" stroke="#1414ce" d="M1352.69,-287.88C1373.02,-278.39 1398.47,-266.51 1420.1,-256.42"/>
<polygon fill="#1414ce" stroke="#1414ce" points="1421.84,-259.47 1429.43,-252.07 1418.88,-253.13 1421.84,-259.47"/>
</a>
</g>
</g>
<!-- 26&#45;&gt;19 -->
<g id="edge64" class="edge">
<title>26&#45;&gt;19</title>
<g id="a_edge64"><a xlink:title="include">
<path fill="none" stroke="#1414ce" d="M1265.8,-299.45C1148.17,-286.44 855.61,-254.09 735.62,-240.82"/>
<polygon fill="#1414ce" stroke="#1414ce" points="735.9,-237.33 725.58,-239.71 735.13,-244.29 735.9,-237.33"/>
</a>
</g>
</g>
<!-- 26&#45;&gt;6 -->
<g id="edge59" class="edge">
<title>26&#45;&gt;6</title>
<g id="a_edge59"><a xlink:title="include">
<path fill="none" stroke="#1414ce" d="M1313.38,-287.65C1309.84,-263.56 1303.55,-218.56 1300,-180 1298.1,-159.33 1296.82,-135.88 1296.03,-118.24"/>
<polygon fill="#1414ce" stroke="#1414ce" points="1299.52,-117.93 1295.6,-108.09 1292.52,-118.23 1299.52,-117.93"/>
</a>
</g>
</g>
<!-- 20&#45;&gt;8 -->
<g id="edge65" class="edge">
<title>20&#45;&gt;8</title>
<g id="a_edge65"><a xlink:title="include">
<path fill="none" stroke="#1414ce" d="M506.13,-143.88C521.17,-134.72 539.87,-123.34 556.06,-113.48"/>
<polygon fill="#1414ce" stroke="#1414ce" points="558.04,-116.38 564.76,-108.19 554.4,-110.4 558.04,-116.38"/>
</a>
</g>
</g>
<!-- 19&#45;&gt;18 -->
<g id="edge67" class="edge">
<title>19&#45;&gt;18</title>
<g id="a_edge67"><a xlink:title="include">
<path fill="none" stroke="#1414ce" d="M709.66,-215.88C723.78,-206.81 741.31,-195.55 756.56,-185.76"/>
<polygon fill="#1414ce" stroke="#1414ce" points="758.71,-188.54 765.23,-180.19 754.93,-182.65 758.71,-188.54"/>
</a>
</g>
</g>
<!-- 19&#45;&gt;20 -->
<g id="edge68" class="edge">
<title>19&#45;&gt;20</title>
<g id="a_edge68"><a xlink:title="include">
<path fill="none" stroke="#1414ce" d="M640.03,-218.33C604.12,-206.07 553.3,-188.71 518.2,-176.73"/>
<polygon fill="#1414ce" stroke="#1414ce" points="518.88,-173.26 508.29,-173.34 516.62,-179.89 518.88,-173.26"/>
</a>
</g>
</g>
<!-- 11 -->
<g id="node31" class="node">
<title>11</title>
<g id="a_node31"><a xlink:title="stdio.h">
<polygon fill="#ffffff" stroke="black" points="1135.5,-108 1070.5,-108 1070.5,-72 1135.5,-72 1135.5,-108"/>
<text text-anchor="middle" x="1103" y="-86.3" font-family="Times,serif" font-size="14.00">stdio.h</text>
</a>
</g>
</g>
<!-- 19&#45;&gt;11 -->
<g id="edge66" class="edge">
<title>19&#45;&gt;11</title>
<g id="a_edge66"><a xlink:title="include">
<path fill="none" stroke="#1414ce" d="M691.98,-215.67C703.71,-194.94 726.31,-160.91 756,-144 807.19,-114.85 978.95,-99.5 1059.99,-93.73"/>
<polygon fill="#1414ce" stroke="#1414ce" points="1060.6,-97.2 1070.33,-93.01 1060.12,-90.22 1060.6,-97.2"/>
</a>
</g>
</g>
<!-- 21&#45;&gt;5 -->
<g id="edge75" class="edge">
<title>21&#45;&gt;5</title>
<g id="a_edge75"><a xlink:title="include">
<path fill="none" stroke="#1414ce" d="M1172.18,-444.83C1077.56,-432.81 804.19,-398.08 697.44,-384.52"/>
<polygon fill="#1414ce" stroke="#1414ce" points="697.7,-381.02 687.34,-383.24 696.82,-387.97 697.7,-381.02"/>
</a>
</g>
</g>
<!-- 21&#45;&gt;24 -->
<g id="edge76" class="edge">
<title>21&#45;&gt;24</title>
<g id="a_edge76"><a xlink:title="include">
<path fill="none" stroke="#1414ce" d="M1237.62,-448.69C1311.56,-447.24 1488.35,-439.22 1525,-396 1559.13,-355.75 1517.69,-294.03 1488.98,-259.89"/>
<polygon fill="#1414ce" stroke="#1414ce" points="1491.56,-257.51 1482.37,-252.23 1486.26,-262.09 1491.56,-257.51"/>
</a>
</g>
</g>
<!-- 21&#45;&gt;25 -->
<g id="edge77" class="edge">
<title>21&#45;&gt;25</title>
<g id="a_edge77"><a xlink:title="include">
<path fill="none" stroke="#1414ce" d="M1237.57,-438.82C1270.82,-428.43 1323.32,-412.03 1364.93,-399.02"/>
<polygon fill="#1414ce" stroke="#1414ce" points="1366.21,-402.29 1374.71,-395.96 1364.12,-395.61 1366.21,-402.29"/>
</a>
</g>
</g>
<!-- 21&#45;&gt;13 -->
<g id="edge79" class="edge">
<title>21&#45;&gt;13</title>
<g id="a_edge79"><a xlink:title="include">
<path fill="none" stroke="#1414ce" d="M1237.65,-446.62C1327.42,-439.79 1573.18,-419.16 1601,-396 1684.76,-326.28 1680.88,-178.73 1675.25,-117.99"/>
<polygon fill="#1414ce" stroke="#1414ce" points="1678.73,-117.62 1674.24,-108.02 1671.77,-118.33 1678.73,-117.62"/>
</a>
</g>
</g>
<!-- 21&#45;&gt;9 -->
<g id="edge78" class="edge">
<title>21&#45;&gt;9</title>
<g id="a_edge78"><a xlink:title="include">
<path fill="none" stroke="#1414ce" d="M1172.44,-435.49C1155.68,-426.77 1136.6,-413.72 1126,-396 1105.65,-361.98 1102.96,-244.53 1102.83,-190.54"/>
<polygon fill="#1414ce" stroke="#1414ce" points="1106.33,-190.33 1102.83,-180.33 1099.33,-190.33 1106.33,-190.33"/>
</a>
</g>
</g>
<!-- 21&#45;&gt;8 -->
<g id="edge70" class="edge">
<title>21&#45;&gt;8</title>
<g id="a_edge70"><a xlink:title="include">
<path fill="none" stroke="#1414ce" d="M1172.49,-437.07C1152.34,-428.3 1127.11,-414.65 1110,-396 1050.69,-331.36 1090.5,-278.56 1029,-216 924.41,-109.62 735.85,-92.23 644.87,-90.38"/>
<polygon fill="#1414ce" stroke="#1414ce" points="644.85,-86.88 634.8,-90.23 644.75,-93.88 644.85,-86.88"/>
</a>
</g>
</g>
<!-- 21&#45;&gt;4 -->
<g id="edge71" class="edge">
<title>21&#45;&gt;4</title>
<g id="a_edge71"><a xlink:title="include">
<path fill="none" stroke="#1414ce" d="M1237.59,-448.16C1313.48,-445.54 1499.03,-435.2 1545,-396 1633.45,-320.58 1684.28,-237.34 1615,-144 1549.13,-55.26 1485.9,-90.8 1377,-72 1169.73,-36.21 505.77,-22.78 324.25,-19.72"/>
<polygon fill="#1414ce" stroke="#1414ce" points="324.28,-16.22 314.23,-19.55 324.17,-23.22 324.28,-16.22"/>
</a>
</g>
</g>
<!-- 21&#45;&gt;11 -->
<g id="edge72" class="edge">
<title>21&#45;&gt;11</title>
<g id="a_edge72"><a xlink:title="include">
<path fill="none" stroke="#1414ce" d="M1185.47,-431.85C1176.02,-422.32 1165.54,-409.64 1160,-396 1117.77,-291.99 1182.22,-249.18 1143,-144 1139.25,-133.95 1132.95,-124.21 1126.44,-115.88"/>
<polygon fill="#1414ce" stroke="#1414ce" points="1129.03,-113.52 1119.95,-108.06 1123.64,-117.99 1129.03,-113.52"/>
</a>
</g>
</g>
<!-- 21&#45;&gt;6 -->
<g id="edge73" class="edge">
<title>21&#45;&gt;6</title>
<g id="a_edge73"><a xlink:title="include">
<path fill="none" stroke="#1414ce" d="M1237.58,-448.01C1305.78,-445.18 1459.91,-434.56 1492,-396 1502.24,-383.7 1496.92,-375.22 1492,-360 1473.78,-303.66 1448.37,-300.21 1414,-252 1379.93,-204.21 1373.4,-190.82 1338,-144 1331.07,-134.83 1323.22,-125 1316.14,-116.33"/>
<polygon fill="#1414ce" stroke="#1414ce" points="1318.69,-113.93 1309.64,-108.43 1313.29,-118.37 1318.69,-113.93"/>
</a>
</g>
</g>
<!-- 23 -->
<g id="node33" class="node">
<title>23</title>
<g id="a_node33"><a xlink:title="string.h">
<polygon fill="#ffffff" stroke="black" points="1241.5,-396 1168.5,-396 1168.5,-360 1241.5,-360 1241.5,-396"/>
<text text-anchor="middle" x="1205" y="-374.3" font-family="Times,serif" font-size="14.00">string.h</text>
</a>
</g>
</g>
<!-- 21&#45;&gt;23 -->
<g id="edge74" class="edge">
<title>21&#45;&gt;23</title>
<g id="a_edge74"><a xlink:title="include">
<path fill="none" stroke="#1414ce" d="M1205,-431.7C1205,-423.98 1205,-414.71 1205,-406.11"/>
<polygon fill="#1414ce" stroke="#1414ce" points="1208.5,-406.1 1205,-396.1 1201.5,-406.1 1208.5,-406.1"/>
</a>
</g>
</g>
<!-- 22 -->
<g id="node34" class="node">
<title>22</title>
<g id="a_node34"><a xlink:title="sys/types.h">
<polygon fill="#ffffff" stroke="black" points="1356.5,-396 1259.5,-396 1259.5,-360 1356.5,-360 1356.5,-396"/>
<text text-anchor="middle" x="1308" y="-374.3" font-family="Times,serif" font-size="14.00">sys/types.h</text>
</a>
</g>
</g>
<!-- 21&#45;&gt;22 -->
<g id="edge69" class="edge">
<title>21&#45;&gt;22</title>
<g id="a_edge69"><a xlink:title="include">
<path fill="none" stroke="#1414ce" d="M1230.2,-431.88C1243.41,-422.89 1259.79,-411.76 1274.11,-402.03"/>
<polygon fill="#1414ce" stroke="#1414ce" points="1276.4,-404.71 1282.71,-396.19 1272.47,-398.92 1276.4,-404.71"/>
</a>
</g>
</g>
<!-- 14 -->
<g id="node25" class="node">
<title>14</title>
<g id="a_node25"><a xlink:title="assert.h">
<polygon fill="#ffffff" stroke="black" points="1800,-36 1726,-36 1726,0 1800,0 1800,-36"/>
<text text-anchor="middle" x="1763" y="-14.3" font-family="Times,serif" font-size="14.00">assert.h</text>
</a>
</g>
</g>
<!-- 13&#45;&gt;14 -->
<g id="edge80" class="edge">
<title>13&#45;&gt;14</title>
<g id="a_edge80"><a xlink:title="include">
<path fill="none" stroke="#1414ce" d="M1694.49,-71.7C1705.96,-62.88 1720.06,-52.03 1732.48,-42.47"/>
<polygon fill="#1414ce" stroke="#1414ce" points="1734.97,-44.98 1740.76,-36.1 1730.7,-39.43 1734.97,-44.98"/>
</a>
</g>
</g>
<!-- 16 -->
<g id="node26" class="node">
<title>16</title>
<g id="a_node26"><a xlink:title="inttypes.h">
<polygon fill="#ffffff" stroke="black" points="1618.5,-36 1529.5,-36 1529.5,0 1618.5,0 1618.5,-36"/>
<text text-anchor="middle" x="1574" y="-14.3" font-family="Times,serif" font-size="14.00">inttypes.h</text>
</a>
</g>
</g>
<!-- 13&#45;&gt;16 -->
<g id="edge82" class="edge">
<title>13&#45;&gt;16</title>
<g id="a_edge82"><a xlink:title="include">
<path fill="none" stroke="#1414ce" d="M1648.03,-71.88C1635.45,-62.89 1619.87,-51.76 1606.25,-42.03"/>
<polygon fill="#1414ce" stroke="#1414ce" points="1608.24,-39.15 1598.07,-36.19 1604.17,-44.85 1608.24,-39.15"/>
</a>
</g>
</g>
<!-- 15 -->
<g id="node27" class="node">
<title>15</title>
<g id="a_node27"><a xlink:title="limits.h">
<polygon fill="#ffffff" stroke="black" points="1707.5,-36 1636.5,-36 1636.5,0 1707.5,0 1707.5,-36"/>
<text text-anchor="middle" x="1672" y="-14.3" font-family="Times,serif" font-size="14.00">limits.h</text>
</a>
</g>
</g>
<!-- 13&#45;&gt;15 -->
<g id="edge81" class="edge">
<title>13&#45;&gt;15</title>
<g id="a_edge81"><a xlink:title="include">
<path fill="none" stroke="#1414ce" d="M1672,-71.7C1672,-63.98 1672,-54.71 1672,-46.11"/>
<polygon fill="#1414ce" stroke="#1414ce" points="1675.5,-46.1 1672,-36.1 1668.5,-46.1 1675.5,-46.1"/>
</a>
</g>
</g>
<!-- 13&#45;&gt;4 -->
<g id="edge83" class="edge">
<title>13&#45;&gt;4</title>
<g id="a_edge83"><a xlink:title="include">
<path fill="none" stroke="#1414ce" d="M1609.13,-74.17C1604.36,-73.34 1599.62,-72.6 1595,-72 1341.41,-39.17 526.86,-23.27 324.06,-19.76"/>
<polygon fill="#1414ce" stroke="#1414ce" points="324.1,-16.26 314.04,-19.59 323.98,-23.26 324.1,-16.26"/>
</a>
</g>
</g>
<!-- 28&#45;&gt;18 -->
<g id="edge86" class="edge">
<title>28&#45;&gt;18</title>
<g id="a_edge86"><a xlink:title="include">
<path fill="none" stroke="#1414ce" d="M324.1,-226.35C427.01,-212.42 663.31,-180.42 754.84,-168.03"/>
<polygon fill="#1414ce" stroke="#1414ce" points="755.32,-171.5 764.76,-166.69 754.38,-164.56 755.32,-171.5"/>
</a>
</g>
</g>
<!-- 28&#45;&gt;8 -->
<g id="edge84" class="edge">
<title>28&#45;&gt;8</title>
<g id="a_edge84"><a xlink:title="include">
<path fill="none" stroke="#1414ce" d="M324.01,-217.08C348.22,-208.08 377.25,-195.5 401,-180 420.48,-167.28 419.1,-156.06 439,-144 470.75,-124.76 510.44,-111.31 541.57,-102.78"/>
<polygon fill="#1414ce" stroke="#1414ce" points="542.59,-106.13 551.36,-100.18 540.79,-99.36 542.59,-106.13"/>
</a>
</g>
</g>
<!-- 28&#45;&gt;4 -->
<g id="edge85" class="edge">
<title>28&#45;&gt;4</title>
<g id="a_edge85"><a xlink:title="include">
<path fill="none" stroke="#1414ce" d="M275.24,-215.85C275.76,-178.83 276.99,-91.18 277.62,-46.39"/>
<polygon fill="#1414ce" stroke="#1414ce" points="281.12,-46.28 277.76,-36.23 274.12,-46.18 281.12,-46.28"/>
</a>
</g>
</g>
<!-- 32&#45;&gt;8 -->
<g id="edge87" class="edge">
<title>32&#45;&gt;8</title>
<g id="a_edge87"><a xlink:title="include">
<path fill="none" stroke="#1414ce" d="M392.24,-148.04C396.88,-146.66 401.54,-145.3 406,-144 451.81,-130.68 504.05,-115.91 541.65,-105.35"/>
<polygon fill="#1414ce" stroke="#1414ce" points="542.68,-108.7 551.36,-102.63 540.79,-101.96 542.68,-108.7"/>
</a>
</g>
</g>
<!-- 10 -->
<g id="node29" class="node">
<title>10</title>
<g id="a_node29"><a xlink:title="stddef.h">
<polygon fill="#ffffff" stroke="black" points="380,-108 306,-108 306,-72 380,-72 380,-108"/>
<text text-anchor="middle" x="343" y="-86.3" font-family="Times,serif" font-size="14.00">stddef.h</text>
</a>
</g>
</g>
<!-- 32&#45;&gt;10 -->
<g id="edge88" class="edge">
<title>32&#45;&gt;10</title>
<g id="a_edge88"><a xlink:title="include">
<path fill="none" stroke="#1414ce" d="M347.52,-143.7C346.86,-135.98 346.06,-126.71 345.32,-118.11"/>
<polygon fill="#1414ce" stroke="#1414ce" points="348.81,-117.77 344.47,-108.1 341.83,-118.37 348.81,-117.77"/>
</a>
</g>
</g>
<!-- 32&#45;&gt;4 -->
<g id="edge89" class="edge">
<title>32&#45;&gt;4</title>
<g id="a_edge89"><a xlink:title="include">
<path fill="none" stroke="#1414ce" d="M366.53,-143.88C383.24,-125.42 403.82,-95.5 389,-72 374.68,-49.3 347.67,-36.11 323.88,-28.57"/>
<polygon fill="#1414ce" stroke="#1414ce" points="324.85,-25.21 314.27,-25.77 322.89,-31.93 324.85,-25.21"/>
</a>
</g>
</g>
<!-- 9&#45;&gt;10 -->
<g id="edge90" class="edge">
<title>9&#45;&gt;10</title>
<g id="a_edge90"><a xlink:title="include">
<path fill="none" stroke="#1414ce" d="M1071.79,-158.13C953.52,-147.23 532.47,-108.45 390.29,-95.36"/>
<polygon fill="#1414ce" stroke="#1414ce" points="390.43,-91.85 380.15,-94.42 389.79,-98.82 390.43,-91.85"/>
</a>
</g>
</g>
<!-- 9&#45;&gt;11 -->
<g id="edge91" class="edge">
<title>9&#45;&gt;11</title>
<g id="a_edge91"><a xlink:title="include">
<path fill="none" stroke="#1414ce" d="M1103,-143.7C1103,-135.98 1103,-126.71 1103,-118.11"/>
<polygon fill="#1414ce" stroke="#1414ce" points="1106.5,-118.1 1103,-108.1 1099.5,-118.1 1106.5,-118.1"/>
</a>
</g>
</g>
<!-- 9&#45;&gt;6 -->
<g id="edge92" class="edge">
<title>9&#45;&gt;6</title>
<g id="a_edge92"><a xlink:title="include">
<path fill="none" stroke="#1414ce" d="M1134.28,-149.6C1165.65,-138.16 1214.28,-120.43 1249.84,-107.46"/>
<polygon fill="#1414ce" stroke="#1414ce" points="1251.3,-110.66 1259.5,-103.94 1248.9,-104.08 1251.3,-110.66"/>
</a>
</g>
</g>
<!-- 29&#45;&gt;10 -->
<g id="edge93" class="edge">
<title>29&#45;&gt;10</title>
<g id="a_edge93"><a xlink:title="include">
<path fill="none" stroke="#1414ce" d="M188.64,-143.97C221.46,-132.71 264.19,-118.04 296.37,-107"/>
<polygon fill="#1414ce" stroke="#1414ce" points="297.67,-110.25 305.99,-103.7 295.4,-103.63 297.67,-110.25"/>
</a>
</g>
</g>
<!-- 29&#45;&gt;4 -->
<g id="edge94" class="edge">
<title>29&#45;&gt;4</title>
<g id="a_edge94"><a xlink:title="include">
<path fill="none" stroke="#1414ce" d="M155.67,-143.93C173.17,-126.01 201.51,-97.01 226,-72 235.16,-62.65 245.24,-52.37 254.06,-43.38"/>
<polygon fill="#1414ce" stroke="#1414ce" points="256.62,-45.77 261.13,-36.18 251.63,-40.86 256.62,-45.77"/>
</a>
</g>
</g>
</g>
</svg>
