<?xml version="1.0" encoding="UTF-8" standalone="no"?>
<!DOCTYPE svg PUBLIC "-//W3C//DTD SVG 1.1//EN"
 "http://www.w3.org/Graphics/SVG/1.1/DTD/svg11.dtd">
<!-- Generated by graphviz version 2.43.0 (0)
 -->
<!-- Title: %3 Pages: 1 -->
<svg width="1463pt" height="908pt"
 viewBox="0.00 0.00 1463.00 908.00" xmlns="http://www.w3.org/2000/svg" xmlns:xlink="http://www.w3.org/1999/xlink">
<g id="graph0" class="graph" transform="scale(1 1) rotate(0) translate(4 904)">
<title>%3</title>
<polygon fill="transparent" stroke="transparent" points="-4,4 -4,-904 1459,-904 1459,4 -4,4"/>
<!-- 9 -->
<g id="node1" class="node">
<title>9</title>
<g id="a_node1"><a xlink:title="stdbool.h">
<polygon fill="#ffffff" stroke="black" points="659.5,-108 576.5,-108 576.5,-72 659.5,-72 659.5,-108"/>
<text text-anchor="middle" x="618" y="-86.3" font-family="Times,serif" font-size="14.00">stdbool.h</text>
</a>
</g>
</g>
<!-- 26 -->
<g id="node2" class="node">
<title>26</title>
<g id="a_node2"><a xlink:title="refc_binary.h">
<polygon fill="#ffffff" stroke="black" points="1007,-396 899,-396 899,-360 1007,-360 1007,-396"/>
<text text-anchor="middle" x="953" y="-374.3" font-family="Times,serif" font-size="14.00">refc_binary.h</text>
</a>
</g>
</g>
<!-- 26&#45;&gt;9 -->
<g id="edge1" class="edge">
<title>26&#45;&gt;9</title>
<g id="a_edge1"><a xlink:title="include">
<path fill="none" stroke="#1414ce" d="M924.71,-359.78C909.25,-349.94 890.04,-337 874,-324 784.89,-251.75 776.26,-218.47 689,-144 676.93,-133.7 663.05,-123.09 650.79,-114.09"/>
<polygon fill="#1414ce" stroke="#1414ce" points="652.75,-111.19 642.6,-108.15 648.63,-116.86 652.75,-111.19"/>
</a>
</g>
</g>
<!-- 16 -->
<g id="node8" class="node">
<title>16</title>
<g id="a_node8"><a xlink:title="list.h">
<polygon fill="#ffffff" stroke="black" points="305,-180 251,-180 251,-144 305,-144 305,-180"/>
<text text-anchor="middle" x="278" y="-158.3" font-family="Times,serif" font-size="14.00">list.h</text>
</a>
</g>
</g>
<!-- 26&#45;&gt;16 -->
<g id="edge3" class="edge">
<title>26&#45;&gt;16</title>
<g id="a_edge3"><a xlink:title="include">
<path fill="none" stroke="#1414ce" d="M898.78,-362.06C895.81,-361.34 892.87,-360.65 890,-360 628.67,-301.05 489.26,-438.55 297,-252 280.66,-236.15 276.7,-209.94 276.35,-190.06"/>
<polygon fill="#1414ce" stroke="#1414ce" points="279.85,-190.09 276.47,-180.05 272.85,-190.01 279.85,-190.09"/>
</a>
</g>
</g>
<!-- 7 -->
<g id="node10" class="node">
<title>7</title>
<g id="a_node10"><a xlink:title="stdlib.h">
<polygon fill="#ffffff" stroke="black" points="1243.5,-108 1172.5,-108 1172.5,-72 1243.5,-72 1243.5,-108"/>
<text text-anchor="middle" x="1208" y="-86.3" font-family="Times,serif" font-size="14.00">stdlib.h</text>
</a>
</g>
</g>
<!-- 26&#45;&gt;7 -->
<g id="edge2" class="edge">
<title>26&#45;&gt;7</title>
<g id="a_edge2"><a xlink:title="include">
<path fill="none" stroke="#1414ce" d="M988.27,-359.96C1029.66,-338.76 1098.75,-299.5 1147,-252 1174.41,-225.02 1181.22,-215.9 1195,-180 1202.59,-160.23 1205.79,-136.43 1207.11,-118.42"/>
<polygon fill="#1414ce" stroke="#1414ce" points="1210.62,-118.48 1207.71,-108.29 1203.63,-118.07 1210.62,-118.48"/>
</a>
</g>
</g>
<!-- 27 -->
<g id="node15" class="node">
<title>27</title>
<g id="a_node15"><a xlink:title="resources.h">
<polygon fill="#ffffff" stroke="black" points="983,-324 883,-324 883,-288 983,-288 983,-324"/>
<text text-anchor="middle" x="933" y="-302.3" font-family="Times,serif" font-size="14.00">resources.h</text>
</a>
</g>
</g>
<!-- 26&#45;&gt;27 -->
<g id="edge4" class="edge">
<title>26&#45;&gt;27</title>
<g id="a_edge4"><a xlink:title="include">
<path fill="none" stroke="#1414ce" d="M948.06,-359.7C945.83,-351.9 943.15,-342.51 940.67,-333.83"/>
<polygon fill="#1414ce" stroke="#1414ce" points="944,-332.76 937.89,-324.1 937.27,-334.68 944,-332.76"/>
</a>
</g>
</g>
<!-- 34 -->
<g id="node3" class="node">
<title>34</title>
<g id="a_node3"><a xlink:title="defaultatoms.h">
<polygon fill="#ffffff" stroke="black" points="650,-828 526,-828 526,-792 650,-792 650,-828"/>
<text text-anchor="middle" x="588" y="-806.3" font-family="Times,serif" font-size="14.00">defaultatoms.h</text>
</a>
</g>
</g>
<!-- 35 -->
<g id="node20" class="node">
<title>35</title>
<g id="a_node20"><a xlink:title="defaultatoms.def">
<polygon fill="#ffffff" stroke="black" points="559.5,-756 422.5,-756 422.5,-720 559.5,-720 559.5,-756"/>
<text text-anchor="middle" x="491" y="-734.3" font-family="Times,serif" font-size="14.00">defaultatoms.def</text>
</a>
</g>
</g>
<!-- 34&#45;&gt;35 -->
<g id="edge6" class="edge">
<title>34&#45;&gt;35</title>
<g id="a_edge6"><a xlink:title="include">
<path fill="none" stroke="#1414ce" d="M564.02,-791.7C551.69,-782.8 536.48,-771.82 523.15,-762.2"/>
<polygon fill="#1414ce" stroke="#1414ce" points="524.86,-759.12 514.7,-756.1 520.76,-764.79 524.86,-759.12"/>
</a>
</g>
</g>
<!-- 4 -->
<g id="node26" class="node">
<title>4</title>
<g id="a_node26"><a xlink:title="globalcontext.h">
<polygon fill="#ffffff" stroke="black" points="543.5,-612 416.5,-612 416.5,-576 543.5,-576 543.5,-612"/>
<text text-anchor="middle" x="480" y="-590.3" font-family="Times,serif" font-size="14.00">globalcontext.h</text>
</a>
</g>
</g>
<!-- 34&#45;&gt;4 -->
<g id="edge5" class="edge">
<title>34&#45;&gt;4</title>
<g id="a_edge5"><a xlink:title="include">
<path fill="none" stroke="#1414ce" d="M586.19,-791.98C583.77,-773.59 578.52,-743.74 568,-720 551.26,-682.23 522.35,-644.18 502.25,-620.16"/>
<polygon fill="#1414ce" stroke="#1414ce" points="504.69,-617.62 495.54,-612.26 499.35,-622.15 504.69,-617.62"/>
</a>
</g>
</g>
<!-- 6 -->
<g id="node4" class="node">
<title>6</title>
<g id="a_node4"><a xlink:title="atom.h">
<polygon fill="#ffffff" stroke="black" points="1343,-468 1277,-468 1277,-432 1343,-432 1343,-468"/>
<text text-anchor="middle" x="1310" y="-446.3" font-family="Times,serif" font-size="14.00">atom.h</text>
</a>
</g>
</g>
<!-- 5 -->
<g id="node9" class="node">
<title>5</title>
<g id="a_node9"><a xlink:title="stdint.h">
<polygon fill="#ffffff" stroke="black" points="1156,-36 1084,-36 1084,0 1156,0 1156,-36"/>
<text text-anchor="middle" x="1120" y="-14.3" font-family="Times,serif" font-size="14.00">stdint.h</text>
</a>
</g>
</g>
<!-- 6&#45;&gt;5 -->
<g id="edge7" class="edge">
<title>6&#45;&gt;5</title>
<g id="a_edge7"><a xlink:title="include">
<path fill="none" stroke="#1414ce" d="M1324.63,-431.93C1344.89,-406.5 1379,-356.34 1379,-307 1379,-307 1379,-307 1379,-161 1379,-120.03 1384.57,-100.36 1355,-72 1328.39,-46.48 1226.98,-30.97 1166.41,-23.79"/>
<polygon fill="#1414ce" stroke="#1414ce" points="1166.67,-20.3 1156.33,-22.63 1165.87,-27.25 1166.67,-20.3"/>
</a>
</g>
</g>
<!-- 6&#45;&gt;7 -->
<g id="edge8" class="edge">
<title>6&#45;&gt;7</title>
<g id="a_edge8"><a xlink:title="include">
<path fill="none" stroke="#1414ce" d="M1313.09,-431.87C1321,-382.76 1337.46,-238.95 1279,-144 1271.67,-132.1 1260.61,-121.97 1249.38,-113.86"/>
<polygon fill="#1414ce" stroke="#1414ce" points="1251.06,-110.77 1240.82,-108.05 1247.12,-116.56 1251.06,-110.77"/>
</a>
</g>
</g>
<!-- 12 -->
<g id="node5" class="node">
<title>12</title>
<g id="a_node5"><a xlink:title="assert.h">
<polygon fill="#ffffff" stroke="black" points="869,-36 795,-36 795,0 869,0 869,-36"/>
<text text-anchor="middle" x="832" y="-14.3" font-family="Times,serif" font-size="14.00">assert.h</text>
</a>
</g>
</g>
<!-- 24 -->
<g id="node6" class="node">
<title>24</title>
<g id="a_node6"><a xlink:title="utils.h">
<polygon fill="#ffffff" stroke="black" points="1085,-180 1023,-180 1023,-144 1085,-144 1085,-180"/>
<text text-anchor="middle" x="1054" y="-158.3" font-family="Times,serif" font-size="14.00">utils.h</text>
</a>
</g>
</g>
<!-- 24&#45;&gt;7 -->
<g id="edge11" class="edge">
<title>24&#45;&gt;7</title>
<g id="a_edge11"><a xlink:title="include">
<path fill="none" stroke="#1414ce" d="M1085.16,-146.83C1107.53,-136.67 1138.01,-122.81 1163.01,-111.45"/>
<polygon fill="#1414ce" stroke="#1414ce" points="1164.64,-114.55 1172.3,-107.23 1161.75,-108.18 1164.64,-114.55"/>
</a>
</g>
</g>
<!-- 25 -->
<g id="node17" class="node">
<title>25</title>
<g id="a_node17"><a xlink:title="stddef.h">
<polygon fill="#ffffff" stroke="black" points="1085,-108 1011,-108 1011,-72 1085,-72 1085,-108"/>
<text text-anchor="middle" x="1048" y="-86.3" font-family="Times,serif" font-size="14.00">stddef.h</text>
</a>
</g>
</g>
<!-- 24&#45;&gt;25 -->
<g id="edge9" class="edge">
<title>24&#45;&gt;25</title>
<g id="a_edge9"><a xlink:title="include">
<path fill="none" stroke="#1414ce" d="M1052.52,-143.7C1051.86,-135.98 1051.06,-126.71 1050.32,-118.11"/>
<polygon fill="#1414ce" stroke="#1414ce" points="1053.81,-117.77 1049.47,-108.1 1046.83,-118.37 1053.81,-117.77"/>
</a>
</g>
</g>
<!-- 18 -->
<g id="node33" class="node">
<title>18</title>
<g id="a_node33"><a xlink:title="stdio.h">
<polygon fill="#ffffff" stroke="black" points="849.5,-108 784.5,-108 784.5,-72 849.5,-72 849.5,-108"/>
<text text-anchor="middle" x="817" y="-86.3" font-family="Times,serif" font-size="14.00">stdio.h</text>
</a>
</g>
</g>
<!-- 24&#45;&gt;18 -->
<g id="edge10" class="edge">
<title>24&#45;&gt;18</title>
<g id="a_edge10"><a xlink:title="include">
<path fill="none" stroke="#1414ce" d="M1022.92,-153.77C986.05,-144.92 922.6,-128.88 859.58,-107.99"/>
<polygon fill="#1414ce" stroke="#1414ce" points="860.47,-104.6 849.88,-104.74 858.24,-111.24 860.47,-104.6"/>
</a>
</g>
</g>
<!-- 17 -->
<g id="node7" class="node">
<title>17</title>
<g id="a_node7"><a xlink:title="synclist.h">
<polygon fill="#ffffff" stroke="black" points="391.5,-252 306.5,-252 306.5,-216 391.5,-216 391.5,-252"/>
<text text-anchor="middle" x="349" y="-230.3" font-family="Times,serif" font-size="14.00">synclist.h</text>
</a>
</g>
</g>
<!-- 17&#45;&gt;16 -->
<g id="edge13" class="edge">
<title>17&#45;&gt;16</title>
<g id="a_edge13"><a xlink:title="include">
<path fill="none" stroke="#1414ce" d="M331.45,-215.7C322.77,-207.14 312.14,-196.66 302.65,-187.3"/>
<polygon fill="#1414ce" stroke="#1414ce" points="304.93,-184.63 295.35,-180.1 300.01,-189.62 304.93,-184.63"/>
</a>
</g>
</g>
<!-- 19 -->
<g id="node27" class="node">
<title>19</title>
<g id="a_node27"><a xlink:title="smp.h">
<polygon fill="#ffffff" stroke="black" points="532,-180 472,-180 472,-144 532,-144 532,-180"/>
<text text-anchor="middle" x="502" y="-158.3" font-family="Times,serif" font-size="14.00">smp.h</text>
</a>
</g>
</g>
<!-- 17&#45;&gt;19 -->
<g id="edge14" class="edge">
<title>17&#45;&gt;19</title>
<g id="a_edge14"><a xlink:title="include">
<path fill="none" stroke="#1414ce" d="M386.43,-215.88C409.44,-205.35 438.91,-191.87 462.33,-181.15"/>
<polygon fill="#1414ce" stroke="#1414ce" points="463.99,-184.24 471.63,-176.9 461.08,-177.87 463.99,-184.24"/>
</a>
</g>
</g>
<!-- 17&#45;&gt;18 -->
<g id="edge12" class="edge">
<title>17&#45;&gt;18</title>
<g id="a_edge12"><a xlink:title="include">
<path fill="none" stroke="#1414ce" d="M365.31,-215.69C385.94,-194.96 423.55,-160.95 463,-144 491.15,-131.91 686.05,-106.99 774.05,-96.18"/>
<polygon fill="#1414ce" stroke="#1414ce" points="774.73,-99.63 784.23,-94.94 773.88,-92.68 774.73,-99.63"/>
</a>
</g>
</g>
<!-- 16&#45;&gt;9 -->
<g id="edge15" class="edge">
<title>16&#45;&gt;9</title>
<g id="a_edge15"><a xlink:title="include">
<path fill="none" stroke="#1414ce" d="M305.25,-155.39C361.91,-143.72 493.25,-116.68 566.42,-101.62"/>
<polygon fill="#1414ce" stroke="#1414ce" points="567.26,-105.02 576.35,-99.58 565.85,-98.16 567.26,-105.02"/>
</a>
</g>
</g>
<!-- 3 -->
<g id="node11" class="node">
<title>3</title>
<g id="a_node11"><a xlink:title="context.h">
<polygon fill="#ffffff" stroke="black" points="737.5,-684 654.5,-684 654.5,-648 737.5,-648 737.5,-684"/>
<text text-anchor="middle" x="696" y="-662.3" font-family="Times,serif" font-size="14.00">context.h</text>
</a>
</g>
</g>
<!-- 3&#45;&gt;16 -->
<g id="edge17" class="edge">
<title>3&#45;&gt;16</title>
<g id="a_edge17"><a xlink:title="include">
<path fill="none" stroke="#1414ce" d="M654.34,-661.61C538.6,-651.3 217.22,-616.21 150,-540 102.14,-485.74 126,-451.35 126,-379 126,-379 126,-379 126,-305 126,-241.95 196.69,-198.86 241.66,-177.82"/>
<polygon fill="#1414ce" stroke="#1414ce" points="243.16,-180.98 250.83,-173.67 240.27,-174.61 243.16,-180.98"/>
</a>
</g>
</g>
<!-- 20 -->
<g id="node16" class="node">
<title>20</title>
<g id="a_node16"><a xlink:title="term.h">
<polygon fill="#ffffff" stroke="black" points="941.5,-468 876.5,-468 876.5,-432 941.5,-432 941.5,-468"/>
<text text-anchor="middle" x="909" y="-446.3" font-family="Times,serif" font-size="14.00">term.h</text>
</a>
</g>
</g>
<!-- 3&#45;&gt;20 -->
<g id="edge20" class="edge">
<title>3&#45;&gt;20</title>
<g id="a_edge20"><a xlink:title="include">
<path fill="none" stroke="#1414ce" d="M713.07,-647.85C750.77,-609.97 841.24,-519.08 884.78,-475.33"/>
<polygon fill="#1414ce" stroke="#1414ce" points="887.27,-477.79 891.85,-468.23 882.31,-472.85 887.27,-477.79"/>
</a>
</g>
</g>
<!-- 3&#45;&gt;4 -->
<g id="edge16" class="edge">
<title>3&#45;&gt;4</title>
<g id="a_edge16"><a xlink:title="include">
<path fill="none" stroke="#1414ce" d="M654.35,-651.5C622.64,-641.23 578.47,-626.91 542.52,-615.26"/>
<polygon fill="#1414ce" stroke="#1414ce" points="543.21,-611.8 532.62,-612.05 541.05,-618.46 543.21,-611.8"/>
</a>
</g>
</g>
<!-- 3&#45;&gt;19 -->
<g id="edge19" class="edge">
<title>3&#45;&gt;19</title>
<g id="a_edge19"><a xlink:title="include">
<path fill="none" stroke="#1414ce" d="M665.67,-647.96C628.96,-624.82 572,-579.79 572,-523 572,-523 572,-523 572,-449 572,-350.96 532.71,-239.3 513,-189.45"/>
<polygon fill="#1414ce" stroke="#1414ce" points="516.2,-188.03 509.23,-180.05 509.71,-190.64 516.2,-188.03"/>
</a>
</g>
</g>
<!-- 29 -->
<g id="node31" class="node">
<title>29</title>
<g id="a_node31"><a xlink:title="timer_list.h">
<polygon fill="#ffffff" stroke="black" points="98,-252 0,-252 0,-216 98,-216 98,-252"/>
<text text-anchor="middle" x="49" y="-230.3" font-family="Times,serif" font-size="14.00">timer_list.h</text>
</a>
</g>
</g>
<!-- 3&#45;&gt;29 -->
<g id="edge21" class="edge">
<title>3&#45;&gt;29</title>
<g id="a_edge21"><a xlink:title="include">
<path fill="none" stroke="#1414ce" d="M654.4,-664.18C522.3,-661.21 118.44,-649.14 74,-612 42.57,-585.73 50,-563.97 50,-523 50,-523 50,-523 50,-377 50,-337 49.6,-290.65 49.3,-262.08"/>
<polygon fill="#1414ce" stroke="#1414ce" points="52.8,-262.01 49.2,-252.05 45.8,-262.09 52.8,-262.01"/>
</a>
</g>
</g>
<!-- 28 -->
<g id="node32" class="node">
<title>28</title>
<g id="a_node32"><a xlink:title="mailbox.h">
<polygon fill="#ffffff" stroke="black" points="648,-252 562,-252 562,-216 648,-216 648,-252"/>
<text text-anchor="middle" x="605" y="-230.3" font-family="Times,serif" font-size="14.00">mailbox.h</text>
</a>
</g>
</g>
<!-- 3&#45;&gt;28 -->
<g id="edge18" class="edge">
<title>3&#45;&gt;28</title>
<g id="a_edge18"><a xlink:title="include">
<path fill="none" stroke="#1414ce" d="M676.91,-647.77C651.58,-622.91 610,-574.3 610,-523 610,-523 610,-523 610,-377 610,-336.97 607.99,-290.63 606.52,-262.07"/>
<polygon fill="#1414ce" stroke="#1414ce" points="610.01,-261.84 605.99,-252.04 603.02,-262.21 610.01,-261.84"/>
</a>
</g>
</g>
<!-- 23 -->
<g id="node12" class="node">
<title>23</title>
<g id="a_node12"><a xlink:title="memory.h">
<polygon fill="#ffffff" stroke="black" points="1108,-252 1022,-252 1022,-216 1108,-216 1108,-252"/>
<text text-anchor="middle" x="1065" y="-230.3" font-family="Times,serif" font-size="14.00">memory.h</text>
</a>
</g>
</g>
<!-- 23&#45;&gt;24 -->
<g id="edge26" class="edge">
<title>23&#45;&gt;24</title>
<g id="a_edge26"><a xlink:title="include">
<path fill="none" stroke="#1414ce" d="M1062.28,-215.7C1061.07,-207.98 1059.61,-198.71 1058.26,-190.11"/>
<polygon fill="#1414ce" stroke="#1414ce" points="1061.7,-189.44 1056.69,-180.1 1054.78,-190.53 1061.7,-189.44"/>
</a>
</g>
</g>
<!-- 23&#45;&gt;5 -->
<g id="edge22" class="edge">
<title>23&#45;&gt;5</title>
<g id="a_edge22"><a xlink:title="include">
<path fill="none" stroke="#1414ce" d="M1076.52,-215.55C1082.62,-205.54 1089.71,-192.5 1094,-180 1109.51,-134.76 1115.87,-79.13 1118.41,-46.52"/>
<polygon fill="#1414ce" stroke="#1414ce" points="1121.91,-46.61 1119.13,-36.39 1114.93,-46.11 1121.91,-46.61"/>
</a>
</g>
</g>
<!-- 23&#45;&gt;7 -->
<g id="edge23" class="edge">
<title>23&#45;&gt;7</title>
<g id="a_edge23"><a xlink:title="include">
<path fill="none" stroke="#1414ce" d="M1086.24,-215.96C1098.49,-205.87 1113.99,-192.62 1127,-180 1148.2,-159.44 1170.69,-134.45 1186.57,-116.19"/>
<polygon fill="#1414ce" stroke="#1414ce" points="1189.49,-118.17 1193.38,-108.32 1184.19,-113.6 1189.49,-118.17"/>
</a>
</g>
</g>
<!-- 10 -->
<g id="node18" class="node">
<title>10</title>
<g id="a_node18"><a xlink:title="erl_nif.h">
<polygon fill="#ffffff" stroke="black" points="967,-180 893,-180 893,-144 967,-144 967,-180"/>
<text text-anchor="middle" x="930" y="-158.3" font-family="Times,serif" font-size="14.00">erl_nif.h</text>
</a>
</g>
</g>
<!-- 23&#45;&gt;10 -->
<g id="edge24" class="edge">
<title>23&#45;&gt;10</title>
<g id="a_edge24"><a xlink:title="include">
<path fill="none" stroke="#1414ce" d="M1031.98,-215.88C1013.92,-206.51 991.35,-194.81 972.05,-184.8"/>
<polygon fill="#1414ce" stroke="#1414ce" points="973.64,-181.69 963.15,-180.19 970.42,-187.9 973.64,-181.69"/>
</a>
</g>
</g>
<!-- 11 -->
<g id="node25" class="node">
<title>11</title>
<g id="a_node25"><a xlink:title="term_typedef.h">
<polygon fill="#ffffff" stroke="black" points="992.5,-108 867.5,-108 867.5,-72 992.5,-72 992.5,-108"/>
<text text-anchor="middle" x="930" y="-86.3" font-family="Times,serif" font-size="14.00">term_typedef.h</text>
</a>
</g>
</g>
<!-- 23&#45;&gt;11 -->
<g id="edge25" class="edge">
<title>23&#45;&gt;11</title>
<g id="a_edge25"><a xlink:title="include">
<path fill="none" stroke="#1414ce" d="M1048.42,-215.85C1038.43,-205.5 1025.45,-192.02 1014,-180 993.41,-158.39 970.12,-133.7 953.3,-115.81"/>
<polygon fill="#1414ce" stroke="#1414ce" points="955.45,-113 946.05,-108.11 950.35,-117.79 955.45,-113"/>
</a>
</g>
</g>
<!-- 30 -->
<g id="node13" class="node">
<title>30</title>
<g id="a_node13"><a xlink:title="module.h">
<polygon fill="#ffffff" stroke="black" points="1073.5,-756 990.5,-756 990.5,-720 1073.5,-720 1073.5,-756"/>
<text text-anchor="middle" x="1032" y="-734.3" font-family="Times,serif" font-size="14.00">module.h</text>
</a>
</g>
</g>
<!-- 30&#45;&gt;9 -->
<g id="edge27" class="edge">
<title>30&#45;&gt;9</title>
<g id="a_edge27"><a xlink:title="include">
<path fill="none" stroke="#1414ce" d="M1048.33,-719.63C1068.55,-696.91 1102.15,-654.9 1117,-612 1153.7,-505.97 1189.97,-456.06 1132,-360 1079.36,-272.77 788.9,-155.41 669.39,-110.02"/>
<polygon fill="#1414ce" stroke="#1414ce" points="670.32,-106.63 659.73,-106.37 667.84,-113.18 670.32,-106.63"/>
</a>
</g>
</g>
<!-- 30&#45;&gt;6 -->
<g id="edge29" class="edge">
<title>30&#45;&gt;6</title>
<g id="a_edge29"><a xlink:title="include">
<path fill="none" stroke="#1414ce" d="M1073.58,-735.16C1148.14,-731.01 1300.42,-718.45 1339,-684 1397.57,-631.69 1351.56,-526.15 1325.21,-477.13"/>
<polygon fill="#1414ce" stroke="#1414ce" points="1328.13,-475.18 1320.23,-468.11 1322,-478.56 1328.13,-475.18"/>
</a>
</g>
</g>
<!-- 30&#45;&gt;5 -->
<g id="edge28" class="edge">
<title>30&#45;&gt;5</title>
<g id="a_edge28"><a xlink:title="include">
<path fill="none" stroke="#1414ce" d="M1056.88,-719.94C1070.68,-710.04 1087.86,-697 1102,-684 1149.49,-640.33 1150.79,-618.87 1199,-576 1261.2,-520.69 1286.43,-519.27 1352,-468 1399.66,-430.73 1455,-439.5 1455,-379 1455,-379 1455,-379 1455,-161 1455,-37.07 1258.25,-19.69 1166.31,-18.34"/>
<polygon fill="#1414ce" stroke="#1414ce" points="1166.2,-14.84 1156.17,-18.25 1166.14,-21.84 1166.2,-14.84"/>
</a>
</g>
</g>
<!-- 30&#45;&gt;3 -->
<g id="edge32" class="edge">
<title>30&#45;&gt;3</title>
<g id="a_edge32"><a xlink:title="include">
<path fill="none" stroke="#1414ce" d="M990.46,-728.35C929.09,-715.56 814.26,-691.64 747.58,-677.75"/>
<polygon fill="#1414ce" stroke="#1414ce" points="748.21,-674.3 737.71,-675.69 746.78,-681.15 748.21,-674.3"/>
</a>
</g>
</g>
<!-- 33 -->
<g id="node14" class="node">
<title>33</title>
<g id="a_node14"><a xlink:title="valueshashtable.h">
<polygon fill="#ffffff" stroke="black" points="1313,-684 1167,-684 1167,-648 1313,-648 1313,-684"/>
<text text-anchor="middle" x="1240" y="-662.3" font-family="Times,serif" font-size="14.00">valueshashtable.h</text>
</a>
</g>
</g>
<!-- 30&#45;&gt;33 -->
<g id="edge36" class="edge">
<title>30&#45;&gt;33</title>
<g id="a_edge36"><a xlink:title="include">
<path fill="none" stroke="#1414ce" d="M1073.59,-723C1103.91,-712.8 1145.46,-698.82 1179.46,-687.37"/>
<polygon fill="#1414ce" stroke="#1414ce" points="1180.93,-690.57 1189.29,-684.07 1178.69,-683.94 1180.93,-690.57"/>
</a>
</g>
</g>
<!-- 30&#45;&gt;20 -->
<g id="edge35" class="edge">
<title>30&#45;&gt;20</title>
<g id="a_edge35"><a xlink:title="include">
<path fill="none" stroke="#1414ce" d="M1017.08,-719.61C998.05,-696.52 965.39,-653.8 947,-612 927.36,-567.36 917.06,-511.11 912.34,-478.28"/>
<polygon fill="#1414ce" stroke="#1414ce" points="915.77,-477.54 910.95,-468.1 908.84,-478.48 915.77,-477.54"/>
</a>
</g>
</g>
<!-- 32 -->
<g id="node19" class="node">
<title>32</title>
<g id="a_node19"><a xlink:title="exportedfunction.h">
<polygon fill="#ffffff" stroke="black" points="1108,-612 956,-612 956,-576 1108,-576 1108,-612"/>
<text text-anchor="middle" x="1032" y="-590.3" font-family="Times,serif" font-size="14.00">exportedfunction.h</text>
</a>
</g>
</g>
<!-- 30&#45;&gt;32 -->
<g id="edge33" class="edge">
<title>30&#45;&gt;32</title>
<g id="a_edge33"><a xlink:title="include">
<path fill="none" stroke="#1414ce" d="M1032,-719.87C1032,-695.67 1032,-651.21 1032,-622.39"/>
<polygon fill="#1414ce" stroke="#1414ce" points="1035.5,-622.19 1032,-612.19 1028.5,-622.19 1035.5,-622.19"/>
</a>
</g>
</g>
<!-- 8 -->
<g id="node22" class="node">
<title>8</title>
<g id="a_node22"><a xlink:title="atom_table.h">
<polygon fill="#ffffff" stroke="black" points="785.5,-540 676.5,-540 676.5,-504 785.5,-504 785.5,-540"/>
<text text-anchor="middle" x="731" y="-518.3" font-family="Times,serif" font-size="14.00">atom_table.h</text>
</a>
</g>
</g>
<!-- 30&#45;&gt;8 -->
<g id="edge30" class="edge">
<title>30&#45;&gt;8</title>
<g id="a_edge30"><a xlink:title="include">
<path fill="none" stroke="#1414ce" d="M990.3,-721.84C966.98,-712.5 937.89,-699.37 914,-684 850.91,-643.4 787.44,-581.82 754.37,-547.79"/>
<polygon fill="#1414ce" stroke="#1414ce" points="756.48,-544.93 747.02,-540.16 751.44,-549.79 756.48,-544.93"/>
</a>
</g>
</g>
<!-- 30&#45;&gt;4 -->
<g id="edge34" class="edge">
<title>30&#45;&gt;4</title>
<g id="a_edge34"><a xlink:title="include">
<path fill="none" stroke="#1414ce" d="M990.2,-734.21C903.33,-727.93 706.24,-711.1 645,-684 622.21,-673.92 623.2,-661.1 602,-648 581.9,-635.58 558.37,-624.62 537.37,-615.94"/>
<polygon fill="#1414ce" stroke="#1414ce" points="538.51,-612.62 527.92,-612.11 535.88,-619.11 538.51,-612.62"/>
</a>
</g>
</g>
<!-- 31 -->
<g id="node28" class="node">
<title>31</title>
<g id="a_node28"><a xlink:title="atomshashtable.h">
<polygon fill="#ffffff" stroke="black" points="1350.5,-612 1207.5,-612 1207.5,-576 1350.5,-576 1350.5,-612"/>
<text text-anchor="middle" x="1279" y="-590.3" font-family="Times,serif" font-size="14.00">atomshashtable.h</text>
</a>
</g>
</g>
<!-- 30&#45;&gt;31 -->
<g id="edge31" class="edge">
<title>30&#45;&gt;31</title>
<g id="a_edge31"><a xlink:title="include">
<path fill="none" stroke="#1414ce" d="M1073.68,-735.69C1146.2,-732.45 1290.86,-721.34 1322,-684 1338.03,-664.77 1321.82,-638.55 1304.92,-619.56"/>
<polygon fill="#1414ce" stroke="#1414ce" points="1307.37,-617.05 1297.97,-612.15 1302.26,-621.84 1307.37,-617.05"/>
</a>
</g>
</g>
<!-- 27&#45;&gt;17 -->
<g id="edge42" class="edge">
<title>27&#45;&gt;17</title>
<g id="a_edge42"><a xlink:title="include">
<path fill="none" stroke="#1414ce" d="M882.78,-295.89C866.32,-293.1 847.91,-290.19 831,-288 659.69,-265.79 615.17,-275.23 444,-252 430.37,-250.15 415.72,-247.74 402.1,-245.32"/>
<polygon fill="#1414ce" stroke="#1414ce" points="402.38,-241.81 391.91,-243.47 401.13,-248.7 402.38,-241.81"/>
</a>
</g>
</g>
<!-- 27&#45;&gt;16 -->
<g id="edge39" class="edge">
<title>27&#45;&gt;16</title>
<g id="a_edge39"><a xlink:title="include">
<path fill="none" stroke="#1414ce" d="M882.99,-296.29C866.46,-293.51 847.96,-290.51 831,-288 707.76,-269.76 674.56,-279.3 553,-252 465.83,-232.43 366.91,-197.04 314.74,-177.29"/>
<polygon fill="#1414ce" stroke="#1414ce" points="315.84,-173.97 305.25,-173.68 313.35,-180.51 315.84,-173.97"/>
</a>
</g>
</g>
<!-- 27&#45;&gt;7 -->
<g id="edge37" class="edge">
<title>27&#45;&gt;7</title>
<g id="a_edge37"><a xlink:title="include">
<path fill="none" stroke="#1414ce" d="M983.38,-300.85C1023.26,-295.3 1078.47,-282.33 1117,-252 1161.43,-217.03 1187.8,-153.98 1199.93,-118.03"/>
<polygon fill="#1414ce" stroke="#1414ce" points="1203.35,-118.82 1203.11,-108.23 1196.69,-116.66 1203.35,-118.82"/>
</a>
</g>
</g>
<!-- 27&#45;&gt;23 -->
<g id="edge41" class="edge">
<title>27&#45;&gt;23</title>
<g id="a_edge41"><a xlink:title="include">
<path fill="none" stroke="#1414ce" d="M965.29,-287.88C982.87,-278.55 1004.81,-266.92 1023.63,-256.94"/>
<polygon fill="#1414ce" stroke="#1414ce" points="1025.39,-259.97 1032.59,-252.19 1022.11,-253.78 1025.39,-259.97"/>
</a>
</g>
</g>
<!-- 27&#45;&gt;10 -->
<g id="edge38" class="edge">
<title>27&#45;&gt;10</title>
<g id="a_edge38"><a xlink:title="include">
<path fill="none" stroke="#1414ce" d="M932.64,-287.87C932.13,-263.67 931.19,-219.21 930.58,-190.39"/>
<polygon fill="#1414ce" stroke="#1414ce" points="934.07,-190.11 930.36,-180.19 927.08,-190.26 934.07,-190.11"/>
</a>
</g>
</g>
<!-- 27&#45;&gt;28 -->
<g id="edge40" class="edge">
<title>27&#45;&gt;28</title>
<g id="a_edge40"><a xlink:title="include">
<path fill="none" stroke="#1414ce" d="M882.83,-294.29C822.05,-281.32 720.13,-259.57 658.08,-246.33"/>
<polygon fill="#1414ce" stroke="#1414ce" points="658.61,-242.86 648.1,-244.2 657.15,-249.71 658.61,-242.86"/>
</a>
</g>
</g>
<!-- 20&#45;&gt;9 -->
<g id="edge44" class="edge">
<title>20&#45;&gt;9</title>
<g id="a_edge44"><a xlink:title="include">
<path fill="none" stroke="#1414ce" d="M876.25,-444.08C845.13,-437.84 798.78,-424.28 769,-396 705.65,-335.84 728.39,-294.48 690,-216 674.01,-183.31 669.29,-175.46 651,-144 645.74,-134.96 639.76,-125.2 634.35,-116.56"/>
<polygon fill="#1414ce" stroke="#1414ce" points="637.26,-114.62 628.97,-108.03 631.34,-118.35 637.26,-114.62"/>
</a>
</g>
</g>
<!-- 20&#45;&gt;26 -->
<g id="edge50" class="edge">
<title>20&#45;&gt;26</title>
<g id="a_edge50"><a xlink:title="include">
<path fill="none" stroke="#1414ce" d="M919.88,-431.7C924.99,-423.56 931.2,-413.69 936.84,-404.7"/>
<polygon fill="#1414ce" stroke="#1414ce" points="939.89,-406.43 942.25,-396.1 933.96,-402.71 939.89,-406.43"/>
</a>
</g>
</g>
<!-- 20&#45;&gt;24 -->
<g id="edge51" class="edge">
<title>20&#45;&gt;24</title>
<g id="a_edge51"><a xlink:title="include">
<path fill="none" stroke="#1414ce" d="M941.96,-446.75C1001.93,-441.9 1125.11,-428.17 1151,-396 1202.04,-332.57 1161.45,-284.21 1117,-216 1109.67,-204.76 1099.24,-194.63 1088.98,-186.31"/>
<polygon fill="#1414ce" stroke="#1414ce" points="1090.9,-183.38 1080.84,-180.05 1086.62,-188.92 1090.9,-183.38"/>
</a>
</g>
</g>
<!-- 20&#45;&gt;5 -->
<g id="edge45" class="edge">
<title>20&#45;&gt;5</title>
<g id="a_edge45"><a xlink:title="include">
<path fill="none" stroke="#1414ce" d="M941.62,-446.82C1008.88,-441.73 1160.01,-427.08 1200,-396 1315.22,-306.47 1334.88,-192.77 1253,-72 1233.7,-43.53 1196.41,-30.36 1166.22,-24.26"/>
<polygon fill="#1414ce" stroke="#1414ce" points="1166.75,-20.8 1156.29,-22.45 1165.5,-27.68 1166.75,-20.8"/>
</a>
</g>
</g>
<!-- 20&#45;&gt;7 -->
<g id="edge47" class="edge">
<title>20&#45;&gt;7</title>
<g id="a_edge47"><a xlink:title="include">
<path fill="none" stroke="#1414ce" d="M941.51,-446.97C1004.97,-442.31 1141.96,-428.65 1174,-396 1248.46,-320.13 1227.51,-177.26 1214.64,-117.91"/>
<polygon fill="#1414ce" stroke="#1414ce" points="1218.05,-117.13 1212.43,-108.15 1211.22,-118.68 1218.05,-117.13"/>
</a>
</g>
</g>
<!-- 20&#45;&gt;23 -->
<g id="edge49" class="edge">
<title>20&#45;&gt;23</title>
<g id="a_edge49"><a xlink:title="include">
<path fill="none" stroke="#1414ce" d="M941.59,-446.12C997.66,-440.41 1108.62,-425.58 1132,-396 1165.19,-354 1120.56,-293.21 1089.79,-259.62"/>
<polygon fill="#1414ce" stroke="#1414ce" points="1092.1,-256.97 1082.7,-252.09 1087,-261.77 1092.1,-256.97"/>
</a>
</g>
</g>
<!-- 21 -->
<g id="node23" class="node">
<title>21</title>
<g id="a_node23"><a xlink:title="sys/types.h">
<polygon fill="#ffffff" stroke="black" points="1122.5,-396 1025.5,-396 1025.5,-360 1122.5,-360 1122.5,-396"/>
<text text-anchor="middle" x="1074" y="-374.3" font-family="Times,serif" font-size="14.00">sys/types.h</text>
</a>
</g>
</g>
<!-- 20&#45;&gt;21 -->
<g id="edge43" class="edge">
<title>20&#45;&gt;21</title>
<g id="a_edge43"><a xlink:title="include">
<path fill="none" stroke="#1414ce" d="M941.6,-435.17C965.29,-425.12 997.78,-411.34 1024.64,-399.94"/>
<polygon fill="#1414ce" stroke="#1414ce" points="1026.04,-403.15 1033.88,-396.02 1023.31,-396.7 1026.04,-403.15"/>
</a>
</g>
</g>
<!-- 22 -->
<g id="node24" class="node">
<title>22</title>
<g id="a_node24"><a xlink:title="string.h">
<polygon fill="#ffffff" stroke="black" points="880.5,-396 807.5,-396 807.5,-360 880.5,-360 880.5,-396"/>
<text text-anchor="middle" x="844" y="-374.3" font-family="Times,serif" font-size="14.00">string.h</text>
</a>
</g>
</g>
<!-- 20&#45;&gt;22 -->
<g id="edge48" class="edge">
<title>20&#45;&gt;22</title>
<g id="a_edge48"><a xlink:title="include">
<path fill="none" stroke="#1414ce" d="M892.93,-431.7C885.06,-423.22 875.44,-412.86 866.83,-403.58"/>
<polygon fill="#1414ce" stroke="#1414ce" points="869.25,-401.05 859.88,-396.1 864.12,-405.81 869.25,-401.05"/>
</a>
</g>
</g>
<!-- 20&#45;&gt;11 -->
<g id="edge52" class="edge">
<title>20&#45;&gt;11</title>
<g id="a_edge52"><a xlink:title="include">
<path fill="none" stroke="#1414ce" d="M876.48,-443.05C850.54,-436.4 815.86,-422.84 799,-396 790.49,-382.45 796.02,-375.72 799,-360 818.23,-258.64 830.53,-232.23 884,-144 889.93,-134.21 897.71,-124.46 905.18,-116.05"/>
<polygon fill="#1414ce" stroke="#1414ce" points="907.98,-118.17 912.17,-108.44 902.83,-113.44 907.98,-118.17"/>
</a>
</g>
</g>
<!-- 20&#45;&gt;18 -->
<g id="edge46" class="edge">
<title>20&#45;&gt;18</title>
<g id="a_edge46"><a xlink:title="include">
<path fill="none" stroke="#1414ce" d="M876.41,-444.38C848.18,-438.46 808.97,-425.21 790,-396 732.79,-307.89 780,-174.04 804.51,-117.59"/>
<polygon fill="#1414ce" stroke="#1414ce" points="807.78,-118.85 808.65,-108.29 801.38,-116 807.78,-118.85"/>
</a>
</g>
</g>
<!-- 10&#45;&gt;11 -->
<g id="edge53" class="edge">
<title>10&#45;&gt;11</title>
<g id="a_edge53"><a xlink:title="include">
<path fill="none" stroke="#1414ce" d="M930,-143.7C930,-135.98 930,-126.71 930,-118.11"/>
<polygon fill="#1414ce" stroke="#1414ce" points="933.5,-118.1 930,-108.1 926.5,-118.1 933.5,-118.1"/>
</a>
</g>
</g>
<!-- 32&#45;&gt;20 -->
<g id="edge54" class="edge">
<title>32&#45;&gt;20</title>
<g id="a_edge54"><a xlink:title="include">
<path fill="none" stroke="#1414ce" d="M1017.16,-575.87C995.55,-550.92 955.3,-504.45 930.46,-475.77"/>
<polygon fill="#1414ce" stroke="#1414ce" points="933.08,-473.46 923.89,-468.19 927.79,-478.04 933.08,-473.46"/>
</a>
</g>
</g>
<!-- 13 -->
<g id="node21" class="node">
<title>13</title>
<g id="a_node21"><a xlink:title="limits.h">
<polygon fill="#ffffff" stroke="black" points="958.5,-36 887.5,-36 887.5,0 958.5,0 958.5,-36"/>
<text text-anchor="middle" x="923" y="-14.3" font-family="Times,serif" font-size="14.00">limits.h</text>
</a>
</g>
</g>
<!-- 8&#45;&gt;9 -->
<g id="edge55" class="edge">
<title>8&#45;&gt;9</title>
<g id="a_edge55"><a xlink:title="include">
<path fill="none" stroke="#1414ce" d="M727.21,-503.7C716.91,-457.03 687.11,-324.7 657,-216 647.56,-181.92 635.19,-143.1 626.94,-117.88"/>
<polygon fill="#1414ce" stroke="#1414ce" points="630.23,-116.69 623.78,-108.29 623.58,-118.88 630.23,-116.69"/>
</a>
</g>
</g>
<!-- 8&#45;&gt;6 -->
<g id="edge56" class="edge">
<title>8&#45;&gt;6</title>
<g id="a_edge56"><a xlink:title="include">
<path fill="none" stroke="#1414ce" d="M785.84,-506.76C790.61,-505.75 795.38,-504.8 800,-504 971.49,-474.11 1178.57,-458.96 1266.81,-453.47"/>
<polygon fill="#1414ce" stroke="#1414ce" points="1267.2,-456.95 1276.97,-452.85 1266.77,-449.97 1267.2,-456.95"/>
</a>
</g>
</g>
<!-- 11&#45;&gt;12 -->
<g id="edge57" class="edge">
<title>11&#45;&gt;12</title>
<g id="a_edge57"><a xlink:title="include">
<path fill="none" stroke="#1414ce" d="M906.03,-71.88C893.45,-62.89 877.87,-51.76 864.25,-42.03"/>
<polygon fill="#1414ce" stroke="#1414ce" points="866.24,-39.15 856.07,-36.19 862.17,-44.85 866.24,-39.15"/>
</a>
</g>
</g>
<!-- 11&#45;&gt;5 -->
<g id="edge60" class="edge">
<title>11&#45;&gt;5</title>
<g id="a_edge60"><a xlink:title="include">
<path fill="none" stroke="#1414ce" d="M977.06,-71.94C1003.24,-62.42 1036.63,-50.22 1074.06,-36.33"/>
<polygon fill="#1414ce" stroke="#1414ce" points="1075.51,-39.53 1083.66,-32.77 1073.07,-32.97 1075.51,-39.53"/>
</a>
</g>
</g>
<!-- 11&#45;&gt;13 -->
<g id="edge58" class="edge">
<title>11&#45;&gt;13</title>
<g id="a_edge58"><a xlink:title="include">
<path fill="none" stroke="#1414ce" d="M928.27,-71.7C927.5,-63.98 926.57,-54.71 925.71,-46.11"/>
<polygon fill="#1414ce" stroke="#1414ce" points="929.19,-45.71 924.71,-36.1 922.22,-46.4 929.19,-45.71"/>
</a>
</g>
</g>
<!-- 14 -->
<g id="node35" class="node">
<title>14</title>
<g id="a_node35"><a xlink:title="inttypes.h">
<polygon fill="#ffffff" stroke="black" points="1065.5,-36 976.5,-36 976.5,0 1065.5,0 1065.5,-36"/>
<text text-anchor="middle" x="1021" y="-14.3" font-family="Times,serif" font-size="14.00">inttypes.h</text>
</a>
</g>
</g>
<!-- 11&#45;&gt;14 -->
<g id="edge59" class="edge">
<title>11&#45;&gt;14</title>
<g id="a_edge59"><a xlink:title="include">
<path fill="none" stroke="#1414ce" d="M952.49,-71.7C963.96,-62.88 978.06,-52.03 990.48,-42.47"/>
<polygon fill="#1414ce" stroke="#1414ce" points="992.97,-44.98 998.76,-36.1 988.7,-39.43 992.97,-44.98"/>
</a>
</g>
</g>
<!-- 4&#45;&gt;6 -->
<g id="edge62" class="edge">
<title>4&#45;&gt;6</title>
<g id="a_edge62"><a xlink:title="include">
<path fill="none" stroke="#1414ce" d="M543.66,-582.37C607.3,-571.73 707.94,-554.85 795,-540 970.09,-510.14 1178.53,-473.91 1266.94,-458.51"/>
<polygon fill="#1414ce" stroke="#1414ce" points="1267.62,-461.94 1276.87,-456.78 1266.42,-455.05 1267.62,-461.94"/>
</a>
</g>
</g>
<!-- 4&#45;&gt;17 -->
<g id="edge69" class="edge">
<title>4&#45;&gt;17</title>
<g id="a_edge69"><a xlink:title="include">
<path fill="none" stroke="#1414ce" d="M446.43,-575.83C432.06,-566.93 416.27,-554.8 406,-540 382.65,-506.33 382,-491.97 382,-451 382,-451 382,-451 382,-377 382,-335.97 368.77,-289.97 359.06,-261.74"/>
<polygon fill="#1414ce" stroke="#1414ce" points="362.32,-260.45 355.68,-252.19 355.72,-262.78 362.32,-260.45"/>
</a>
</g>
</g>
<!-- 4&#45;&gt;16 -->
<g id="edge66" class="edge">
<title>4&#45;&gt;16</title>
<g id="a_edge66"><a xlink:title="include">
<path fill="none" stroke="#1414ce" d="M416.22,-588.1C334.15,-577.91 202,-546.66 202,-451 202,-451 202,-451 202,-305 202,-259.64 232.52,-214.75 254.88,-187.95"/>
<polygon fill="#1414ce" stroke="#1414ce" points="257.64,-190.09 261.51,-180.23 252.34,-185.53 257.64,-190.09"/>
</a>
</g>
</g>
<!-- 4&#45;&gt;5 -->
<g id="edge61" class="edge">
<title>4&#45;&gt;5</title>
<g id="a_edge61"><a xlink:title="include">
<path fill="none" stroke="#1414ce" d="M416.43,-591.73C324.16,-586.13 164,-560.62 164,-451 164,-451 164,-451 164,-161 164,-59.62 948.11,-52.9 1073.86,-35.39"/>
<polygon fill="#1414ce" stroke="#1414ce" points="1074.66,-38.8 1083.93,-33.66 1073.48,-31.9 1074.66,-38.8"/>
</a>
</g>
</g>
<!-- 4&#45;&gt;20 -->
<g id="edge70" class="edge">
<title>4&#45;&gt;20</title>
<g id="a_edge70"><a xlink:title="include">
<path fill="none" stroke="#1414ce" d="M510.19,-575.97C546.43,-556.17 609.51,-523.68 667,-504 735,-480.72 817.34,-465.25 866.33,-457.31"/>
<polygon fill="#1414ce" stroke="#1414ce" points="866.93,-460.76 876.26,-455.73 865.83,-453.85 866.93,-460.76"/>
</a>
</g>
</g>
<!-- 4&#45;&gt;10 -->
<g id="edge64" class="edge">
<title>4&#45;&gt;10</title>
<g id="a_edge64"><a xlink:title="include">
<path fill="none" stroke="#1414ce" d="M483.24,-575.58C487.91,-548.87 496,-496.15 496,-451 496,-451 496,-451 496,-305 496,-258.03 513.46,-241.36 553,-216 606.71,-181.54 793.9,-168.91 882.64,-164.79"/>
<polygon fill="#1414ce" stroke="#1414ce" points="882.87,-168.28 892.7,-164.33 882.56,-161.29 882.87,-168.28"/>
</a>
</g>
</g>
<!-- 4&#45;&gt;8 -->
<g id="edge63" class="edge">
<title>4&#45;&gt;8</title>
<g id="a_edge63"><a xlink:title="include">
<path fill="none" stroke="#1414ce" d="M541.08,-575.97C579.04,-565.38 627.8,-551.78 666.4,-541.01"/>
<polygon fill="#1414ce" stroke="#1414ce" points="667.8,-544.26 676.5,-538.2 665.92,-537.52 667.8,-544.26"/>
</a>
</g>
</g>
<!-- 4&#45;&gt;19 -->
<g id="edge68" class="edge">
<title>4&#45;&gt;19</title>
<g id="a_edge68"><a xlink:title="include">
<path fill="none" stroke="#1414ce" d="M467.28,-575.62C449.66,-549.81 420,-499.17 420,-451 420,-451 420,-451 420,-305 420,-258.88 452.84,-214.26 476.96,-187.72"/>
<polygon fill="#1414ce" stroke="#1414ce" points="479.52,-190.1 483.8,-180.4 474.41,-185.31 479.52,-190.1"/>
</a>
</g>
</g>
<!-- 4&#45;&gt;29 -->
<g id="edge71" class="edge">
<title>4&#45;&gt;29</title>
<g id="a_edge71"><a xlink:title="include">
<path fill="none" stroke="#1414ce" d="M416.29,-590.48C331.89,-585.88 189.11,-573.28 150,-540 138.94,-530.59 79.03,-334.64 57.07,-261.88"/>
<polygon fill="#1414ce" stroke="#1414ce" points="60.36,-260.65 54.12,-252.08 53.65,-262.67 60.36,-260.65"/>
</a>
</g>
</g>
<!-- 4&#45;&gt;28 -->
<g id="edge67" class="edge">
<title>4&#45;&gt;28</title>
<g id="a_edge67"><a xlink:title="include">
<path fill="none" stroke="#1414ce" d="M490.97,-575.82C497.12,-565.67 504.62,-552.42 510,-540 552.86,-440.99 585.44,-316.34 598.61,-262.18"/>
<polygon fill="#1414ce" stroke="#1414ce" points="602.05,-262.86 600.99,-252.32 595.24,-261.23 602.05,-262.86"/>
</a>
</g>
</g>
<!-- 15 -->
<g id="node34" class="node">
<title>15</title>
<g id="a_node34"><a xlink:title="ets.h">
<polygon fill="#ffffff" stroke="black" points="354,-540 300,-540 300,-504 354,-504 354,-540"/>
<text text-anchor="middle" x="327" y="-518.3" font-family="Times,serif" font-size="14.00">ets.h</text>
</a>
</g>
</g>
<!-- 4&#45;&gt;15 -->
<g id="edge65" class="edge">
<title>4&#45;&gt;15</title>
<g id="a_edge65"><a xlink:title="include">
<path fill="none" stroke="#1414ce" d="M442.57,-575.88C418.52,-564.87 387.42,-550.64 363.54,-539.72"/>
<polygon fill="#1414ce" stroke="#1414ce" points="364.99,-536.53 354.44,-535.56 362.08,-542.9 364.99,-536.53"/>
</a>
</g>
</g>
<!-- 19&#45;&gt;9 -->
<g id="edge72" class="edge">
<title>19&#45;&gt;9</title>
<g id="a_edge72"><a xlink:title="include">
<path fill="none" stroke="#1414ce" d="M530.38,-143.88C545.54,-134.72 564.41,-123.34 580.74,-113.48"/>
<polygon fill="#1414ce" stroke="#1414ce" points="582.76,-116.35 589.51,-108.19 579.14,-110.36 582.76,-116.35"/>
</a>
</g>
</g>
<!-- 31&#45;&gt;6 -->
<g id="edge73" class="edge">
<title>31&#45;&gt;6</title>
<g id="a_edge73"><a xlink:title="include">
<path fill="none" stroke="#1414ce" d="M1282.74,-575.87C1288.05,-551.56 1297.81,-506.82 1304.1,-478.01"/>
<polygon fill="#1414ce" stroke="#1414ce" points="1307.53,-478.71 1306.25,-468.19 1300.7,-477.21 1307.53,-478.71"/>
</a>
</g>
</g>
<!-- 1 -->
<g id="node29" class="node">
<title>1</title>
<g id="a_node29"><a xlink:title="/__w/AtomVM/AtomVM/src/libAtomVM/stacktrace.c">
<polygon fill="#bfbfbf" stroke="black" points="848,-900 468,-900 468,-864 848,-864 848,-900"/>
<text text-anchor="middle" x="658" y="-878.3" font-family="Times,serif" font-size="14.00">/__w/AtomVM/AtomVM/src/libAtomVM/stacktrace.c</text>
</a>
</g>
</g>
<!-- 1&#45;&gt;34 -->
<g id="edge75" class="edge">
<title>1&#45;&gt;34</title>
<g id="a_edge75"><a xlink:title="include">
<path fill="none" stroke="#1414ce" d="M640.7,-863.7C632.14,-855.14 621.66,-844.66 612.3,-835.3"/>
<polygon fill="#1414ce" stroke="#1414ce" points="614.65,-832.7 605.1,-828.1 609.7,-837.65 614.65,-832.7"/>
</a>
</g>
</g>
<!-- 1&#45;&gt;23 -->
<g id="edge77" class="edge">
<title>1&#45;&gt;23</title>
<g id="a_edge77"><a xlink:title="include">
<path fill="none" stroke="#1414ce" d="M847.57,-863.99C1072.38,-841.19 1417,-796.81 1417,-739 1417,-739 1417,-739 1417,-449 1417,-310.85 1216.59,-259.34 1118.21,-242.38"/>
<polygon fill="#1414ce" stroke="#1414ce" points="1118.6,-238.9 1108.16,-240.71 1117.45,-245.8 1118.6,-238.9"/>
</a>
</g>
</g>
<!-- 1&#45;&gt;4 -->
<g id="edge76" class="edge">
<title>1&#45;&gt;4</title>
<g id="a_edge76"><a xlink:title="include">
<path fill="none" stroke="#1414ce" d="M572.4,-863.92C514.89,-847.28 444.14,-815.43 413,-756 388.65,-709.52 427.98,-652.18 455.92,-619.99"/>
<polygon fill="#1414ce" stroke="#1414ce" points="458.68,-622.16 462.74,-612.37 453.46,-617.49 458.68,-622.16"/>
</a>
</g>
</g>
<!-- 2 -->
<g id="node30" class="node">
<title>2</title>
<g id="a_node30"><a xlink:title="stacktrace.h">
<polygon fill="#ffffff" stroke="black" points="883,-828 779,-828 779,-792 883,-792 883,-828"/>
<text text-anchor="middle" x="831" y="-806.3" font-family="Times,serif" font-size="14.00">stacktrace.h</text>
</a>
</g>
</g>
<!-- 1&#45;&gt;2 -->
<g id="edge74" class="edge">
<title>1&#45;&gt;2</title>
<g id="a_edge74"><a xlink:title="include">
<path fill="none" stroke="#1414ce" d="M700.32,-863.88C724.18,-854.22 754.17,-842.09 779.4,-831.88"/>
<polygon fill="#1414ce" stroke="#1414ce" points="780.86,-835.06 788.82,-828.07 778.23,-828.57 780.86,-835.06"/>
</a>
</g>
</g>
<!-- 2&#45;&gt;3 -->
<g id="edge78" class="edge">
<title>2&#45;&gt;3</title>
<g id="a_edge78"><a xlink:title="include">
<path fill="none" stroke="#1414ce" d="M814.72,-791.87C791,-766.92 746.81,-720.45 719.55,-691.77"/>
<polygon fill="#1414ce" stroke="#1414ce" points="721.77,-689.03 712.34,-684.19 716.7,-693.85 721.77,-689.03"/>
</a>
</g>
</g>
<!-- 2&#45;&gt;30 -->
<g id="edge79" class="edge">
<title>2&#45;&gt;30</title>
<g id="a_edge79"><a xlink:title="include">
<path fill="none" stroke="#1414ce" d="M879.91,-791.97C910.43,-781.34 949.64,-767.68 980.61,-756.9"/>
<polygon fill="#1414ce" stroke="#1414ce" points="982.06,-760.1 990.36,-753.5 979.76,-753.49 982.06,-760.1"/>
</a>
</g>
</g>
<!-- 2&#45;&gt;20 -->
<g id="edge80" class="edge">
<title>2&#45;&gt;20</title>
<g id="a_edge80"><a xlink:title="include">
<path fill="none" stroke="#1414ce" d="M834.76,-791.73C847.32,-734.08 887.89,-547.89 903.14,-477.92"/>
<polygon fill="#1414ce" stroke="#1414ce" points="906.57,-478.61 905.28,-468.09 899.73,-477.12 906.57,-478.61"/>
</a>
</g>
</g>
<!-- 29&#45;&gt;9 -->
<g id="edge81" class="edge">
<title>29&#45;&gt;9</title>
<g id="a_edge81"><a xlink:title="include">
<path fill="none" stroke="#1414ce" d="M78.68,-215.97C115.69,-195.53 181.47,-161.8 242,-144 354.57,-110.89 492.37,-98.2 565.9,-93.54"/>
<polygon fill="#1414ce" stroke="#1414ce" points="566.5,-97.01 576.27,-92.91 566.08,-90.02 566.5,-97.01"/>
</a>
</g>
</g>
<!-- 29&#45;&gt;16 -->
<g id="edge83" class="edge">
<title>29&#45;&gt;16</title>
<g id="a_edge83"><a xlink:title="include">
<path fill="none" stroke="#1414ce" d="M98.24,-218.8C134.05,-208.37 183.64,-193.68 227,-180 231.6,-178.55 236.42,-176.99 241.18,-175.43"/>
<polygon fill="#1414ce" stroke="#1414ce" points="242.4,-178.71 250.79,-172.25 240.2,-172.07 242.4,-178.71"/>
</a>
</g>
</g>
<!-- 29&#45;&gt;5 -->
<g id="edge82" class="edge">
<title>29&#45;&gt;5</title>
<g id="a_edge82"><a xlink:title="include">
<path fill="none" stroke="#1414ce" d="M53.82,-215.95C64.56,-181.56 94.03,-104.4 150,-72 236.67,-21.83 935.88,-54.6 1073.99,-35.44"/>
<polygon fill="#1414ce" stroke="#1414ce" points="1074.67,-38.87 1083.95,-33.76 1073.51,-31.97 1074.67,-38.87"/>
</a>
</g>
</g>
<!-- 28&#45;&gt;9 -->
<g id="edge84" class="edge">
<title>28&#45;&gt;9</title>
<g id="a_edge84"><a xlink:title="include">
<path fill="none" stroke="#1414ce" d="M606.57,-215.87C608.78,-191.67 612.85,-147.21 615.49,-118.39"/>
<polygon fill="#1414ce" stroke="#1414ce" points="619,-118.47 616.43,-108.19 612.03,-117.83 619,-118.47"/>
</a>
</g>
</g>
<!-- 28&#45;&gt;24 -->
<g id="edge87" class="edge">
<title>28&#45;&gt;24</title>
<g id="a_edge87"><a xlink:title="include">
<path fill="none" stroke="#1414ce" d="M648.01,-227.89C717.31,-219.42 857.86,-201.28 976,-180 988.03,-177.83 1001.02,-175.14 1012.89,-172.55"/>
<polygon fill="#1414ce" stroke="#1414ce" points="1013.98,-175.89 1022.98,-170.3 1012.46,-169.06 1013.98,-175.89"/>
</a>
</g>
</g>
<!-- 28&#45;&gt;16 -->
<g id="edge85" class="edge">
<title>28&#45;&gt;16</title>
<g id="a_edge85"><a xlink:title="include">
<path fill="none" stroke="#1414ce" d="M561.91,-223.78C497.32,-209.95 376.46,-184.08 315.38,-171"/>
<polygon fill="#1414ce" stroke="#1414ce" points="315.91,-167.54 305.4,-168.87 314.45,-174.38 315.91,-167.54"/>
</a>
</g>
</g>
<!-- 28&#45;&gt;11 -->
<g id="edge86" class="edge">
<title>28&#45;&gt;11</title>
<g id="a_edge86"><a xlink:title="include">
<path fill="none" stroke="#1414ce" d="M644.2,-215.87C703.82,-189.82 817.16,-140.3 881.75,-112.08"/>
<polygon fill="#1414ce" stroke="#1414ce" points="883.15,-115.29 890.91,-108.08 880.35,-108.88 883.15,-115.29"/>
</a>
</g>
</g>
<!-- 15&#45;&gt;17 -->
<g id="edge89" class="edge">
<title>15&#45;&gt;17</title>
<g id="a_edge89"><a xlink:title="include">
<path fill="none" stroke="#1414ce" d="M328.31,-503.97C331.98,-456.29 342.37,-321.18 346.87,-262.63"/>
<polygon fill="#1414ce" stroke="#1414ce" points="350.39,-262.55 347.67,-252.31 343.41,-262.01 350.39,-262.55"/>
</a>
</g>
</g>
<!-- 15&#45;&gt;16 -->
<g id="edge88" class="edge">
<title>15&#45;&gt;16</title>
<g id="a_edge88"><a xlink:title="include">
<path fill="none" stroke="#1414ce" d="M307.69,-503.82C282.06,-479.01 240,-430.46 240,-379 240,-379 240,-379 240,-305 240,-263.63 255.23,-217.72 266.41,-189.61"/>
<polygon fill="#1414ce" stroke="#1414ce" points="269.76,-190.67 270.31,-180.09 263.28,-188.02 269.76,-190.67"/>
</a>
</g>
</g>
<!-- 15&#45;&gt;20 -->
<g id="edge90" class="edge">
<title>15&#45;&gt;20</title>
<g id="a_edge90"><a xlink:title="include">
<path fill="none" stroke="#1414ce" d="M354.29,-517.72C447.35,-506.53 752.7,-469.8 866.1,-456.16"/>
<polygon fill="#1414ce" stroke="#1414ce" points="866.63,-459.62 876.15,-454.95 865.8,-452.67 866.63,-459.62"/>
</a>
</g>
</g>
</g>
</svg>
