<?xml version="1.0" encoding="UTF-8" standalone="no"?>
<!DOCTYPE svg PUBLIC "-//W3C//DTD SVG 1.1//EN"
 "http://www.w3.org/Graphics/SVG/1.1/DTD/svg11.dtd">
<!-- Generated by graphviz version 2.43.0 (0)
 -->
<!-- Title: %3 Pages: 1 -->
<svg width="1288pt" height="692pt"
 viewBox="0.00 0.00 1288.00 692.00" xmlns="http://www.w3.org/2000/svg" xmlns:xlink="http://www.w3.org/1999/xlink">
<g id="graph0" class="graph" transform="scale(1 1) rotate(0) translate(4 688)">
<title>%3</title>
<polygon fill="transparent" stroke="transparent" points="-4,4 -4,-688 1284,-688 1284,4 -4,4"/>
<!-- 7 -->
<g id="node1" class="node">
<title>7</title>
<g id="a_node1"><a xlink:title="stdbool.h">
<polygon fill="#ffffff" stroke="black" points="911.5,-108 828.5,-108 828.5,-72 911.5,-72 911.5,-108"/>
<text text-anchor="middle" x="870" y="-86.3" font-family="Times,serif" font-size="14.00">stdbool.h</text>
</a>
</g>
</g>
<!-- 24 -->
<g id="node2" class="node">
<title>24</title>
<g id="a_node2"><a xlink:title="refc_binary.h">
<polygon fill="#ffffff" stroke="black" points="813,-396 705,-396 705,-360 813,-360 813,-396"/>
<text text-anchor="middle" x="759" y="-374.3" font-family="Times,serif" font-size="14.00">refc_binary.h</text>
</a>
</g>
</g>
<!-- 24&#45;&gt;7 -->
<g id="edge1" class="edge">
<title>24&#45;&gt;7</title>
<g id="a_edge1"><a xlink:title="include">
<path fill="none" stroke="#1414ce" d="M779.24,-359.91C790.09,-350.11 803.19,-337.17 813,-324 834.61,-294.98 840.25,-286.55 851,-252 865.12,-206.61 868.88,-151.03 869.8,-118.46"/>
<polygon fill="#1414ce" stroke="#1414ce" points="873.3,-118.42 870.02,-108.35 866.3,-118.27 873.3,-118.42"/>
</a>
</g>
</g>
<!-- 14 -->
<g id="node8" class="node">
<title>14</title>
<g id="a_node8"><a xlink:title="list.h">
<polygon fill="#ffffff" stroke="black" points="1059,-180 1005,-180 1005,-144 1059,-144 1059,-180"/>
<text text-anchor="middle" x="1032" y="-158.3" font-family="Times,serif" font-size="14.00">list.h</text>
</a>
</g>
</g>
<!-- 24&#45;&gt;14 -->
<g id="edge3" class="edge">
<title>24&#45;&gt;14</title>
<g id="a_edge3"><a xlink:title="include">
<path fill="none" stroke="#1414ce" d="M813.04,-369.52C877.46,-357.38 982.37,-326.71 1030,-252 1041.58,-233.83 1041.14,-209.06 1038.34,-190.26"/>
<polygon fill="#1414ce" stroke="#1414ce" points="1041.75,-189.47 1036.55,-180.24 1034.86,-190.7 1041.75,-189.47"/>
</a>
</g>
</g>
<!-- 5 -->
<g id="node10" class="node">
<title>5</title>
<g id="a_node10"><a xlink:title="stdlib.h">
<polygon fill="#ffffff" stroke="black" points="322.5,-108 251.5,-108 251.5,-72 322.5,-72 322.5,-108"/>
<text text-anchor="middle" x="287" y="-86.3" font-family="Times,serif" font-size="14.00">stdlib.h</text>
</a>
</g>
</g>
<!-- 24&#45;&gt;5 -->
<g id="edge2" class="edge">
<title>24&#45;&gt;5</title>
<g id="a_edge2"><a xlink:title="include">
<path fill="none" stroke="#1414ce" d="M704.87,-364.35C633.13,-346.17 504.08,-308.5 405,-252 361.7,-227.31 347.54,-220.87 319,-180 305.98,-161.34 297.67,-136.81 292.8,-118.22"/>
<polygon fill="#1414ce" stroke="#1414ce" points="296.15,-117.2 290.38,-108.32 289.36,-118.87 296.15,-117.2"/>
</a>
</g>
</g>
<!-- 25 -->
<g id="node12" class="node">
<title>25</title>
<g id="a_node12"><a xlink:title="resources.h">
<polygon fill="#ffffff" stroke="black" points="804,-324 704,-324 704,-288 804,-288 804,-324"/>
<text text-anchor="middle" x="754" y="-302.3" font-family="Times,serif" font-size="14.00">resources.h</text>
</a>
</g>
</g>
<!-- 24&#45;&gt;25 -->
<g id="edge4" class="edge">
<title>24&#45;&gt;25</title>
<g id="a_edge4"><a xlink:title="include">
<path fill="none" stroke="#1414ce" d="M757.76,-359.7C757.21,-351.98 756.55,-342.71 755.94,-334.11"/>
<polygon fill="#1414ce" stroke="#1414ce" points="759.43,-333.83 755.22,-324.1 752.44,-334.33 759.43,-333.83"/>
</a>
</g>
</g>
<!-- 1 -->
<g id="node3" class="node">
<title>1</title>
<g id="a_node3"><a xlink:title="/__w/AtomVM/AtomVM/src/libAtomVM/defaultatoms.h">
<polygon fill="#bfbfbf" stroke="black" points="1033.5,-684 632.5,-684 632.5,-648 1033.5,-648 1033.5,-684"/>
<text text-anchor="middle" x="833" y="-662.3" font-family="Times,serif" font-size="14.00">/__w/AtomVM/AtomVM/src/libAtomVM/defaultatoms.h</text>
</a>
</g>
</g>
<!-- 28 -->
<g id="node16" class="node">
<title>28</title>
<g id="a_node16"><a xlink:title="defaultatoms.def">
<polygon fill="#ffffff" stroke="black" points="826.5,-612 689.5,-612 689.5,-576 826.5,-576 826.5,-612"/>
<text text-anchor="middle" x="758" y="-590.3" font-family="Times,serif" font-size="14.00">defaultatoms.def</text>
</a>
</g>
</g>
<!-- 1&#45;&gt;28 -->
<g id="edge6" class="edge">
<title>1&#45;&gt;28</title>
<g id="a_edge6"><a xlink:title="include">
<path fill="none" stroke="#1414ce" d="M814.46,-647.7C805.2,-639.05 793.84,-628.45 783.74,-619.03"/>
<polygon fill="#1414ce" stroke="#1414ce" points="786.02,-616.37 776.33,-612.1 781.25,-621.49 786.02,-616.37"/>
</a>
</g>
</g>
<!-- 2 -->
<g id="node22" class="node">
<title>2</title>
<g id="a_node22"><a xlink:title="globalcontext.h">
<polygon fill="#ffffff" stroke="black" points="971.5,-612 844.5,-612 844.5,-576 971.5,-576 971.5,-612"/>
<text text-anchor="middle" x="908" y="-590.3" font-family="Times,serif" font-size="14.00">globalcontext.h</text>
</a>
</g>
</g>
<!-- 1&#45;&gt;2 -->
<g id="edge5" class="edge">
<title>1&#45;&gt;2</title>
<g id="a_edge5"><a xlink:title="include">
<path fill="none" stroke="#1414ce" d="M851.54,-647.7C860.8,-639.05 872.16,-628.45 882.26,-619.03"/>
<polygon fill="#1414ce" stroke="#1414ce" points="884.75,-621.49 889.67,-612.1 879.98,-616.37 884.75,-621.49"/>
</a>
</g>
</g>
<!-- 4 -->
<g id="node4" class="node">
<title>4</title>
<g id="a_node4"><a xlink:title="atom.h">
<polygon fill="#ffffff" stroke="black" points="165,-180 99,-180 99,-144 165,-144 165,-180"/>
<text text-anchor="middle" x="132" y="-158.3" font-family="Times,serif" font-size="14.00">atom.h</text>
</a>
</g>
</g>
<!-- 3 -->
<g id="node9" class="node">
<title>3</title>
<g id="a_node9"><a xlink:title="stdint.h">
<polygon fill="#ffffff" stroke="black" points="364,-36 292,-36 292,0 364,0 364,-36"/>
<text text-anchor="middle" x="328" y="-14.3" font-family="Times,serif" font-size="14.00">stdint.h</text>
</a>
</g>
</g>
<!-- 4&#45;&gt;3 -->
<g id="edge7" class="edge">
<title>4&#45;&gt;3</title>
<g id="a_edge7"><a xlink:title="include">
<path fill="none" stroke="#1414ce" d="M139.15,-143.94C148.25,-124.11 165.76,-91.6 190,-72 216.69,-50.42 253.15,-36.92 281.9,-28.95"/>
<polygon fill="#1414ce" stroke="#1414ce" points="282.94,-32.3 291.71,-26.36 281.15,-25.53 282.94,-32.3"/>
</a>
</g>
</g>
<!-- 4&#45;&gt;5 -->
<g id="edge8" class="edge">
<title>4&#45;&gt;5</title>
<g id="a_edge8"><a xlink:title="include">
<path fill="none" stroke="#1414ce" d="M165.25,-145.98C187.73,-135.83 217.68,-122.31 242.25,-111.21"/>
<polygon fill="#1414ce" stroke="#1414ce" points="243.7,-114.39 251.38,-107.09 240.82,-108.01 243.7,-114.39"/>
</a>
</g>
</g>
<!-- 10 -->
<g id="node5" class="node">
<title>10</title>
<g id="a_node5"><a xlink:title="assert.h">
<polygon fill="#ffffff" stroke="black" points="778,-36 704,-36 704,0 778,0 778,-36"/>
<text text-anchor="middle" x="741" y="-14.3" font-family="Times,serif" font-size="14.00">assert.h</text>
</a>
</g>
</g>
<!-- 22 -->
<g id="node6" class="node">
<title>22</title>
<g id="a_node6"><a xlink:title="utils.h">
<polygon fill="#ffffff" stroke="black" points="484,-180 422,-180 422,-144 484,-144 484,-180"/>
<text text-anchor="middle" x="453" y="-158.3" font-family="Times,serif" font-size="14.00">utils.h</text>
</a>
</g>
</g>
<!-- 22&#45;&gt;5 -->
<g id="edge11" class="edge">
<title>22&#45;&gt;5</title>
<g id="a_edge11"><a xlink:title="include">
<path fill="none" stroke="#1414ce" d="M421.78,-147.83C396.46,-137.16 360.45,-121.97 332.02,-109.98"/>
<polygon fill="#1414ce" stroke="#1414ce" points="333.27,-106.71 322.69,-106.05 330.55,-113.16 333.27,-106.71"/>
</a>
</g>
</g>
<!-- 23 -->
<g id="node14" class="node">
<title>23</title>
<g id="a_node14"><a xlink:title="stddef.h">
<polygon fill="#ffffff" stroke="black" points="430,-108 356,-108 356,-72 430,-72 430,-108"/>
<text text-anchor="middle" x="393" y="-86.3" font-family="Times,serif" font-size="14.00">stddef.h</text>
</a>
</g>
</g>
<!-- 22&#45;&gt;23 -->
<g id="edge9" class="edge">
<title>22&#45;&gt;23</title>
<g id="a_edge9"><a xlink:title="include">
<path fill="none" stroke="#1414ce" d="M438.17,-143.7C430.98,-135.3 422.2,-125.07 414.31,-115.86"/>
<polygon fill="#1414ce" stroke="#1414ce" points="416.83,-113.42 407.66,-108.1 411.51,-117.97 416.83,-113.42"/>
</a>
</g>
</g>
<!-- 16 -->
<g id="node26" class="node">
<title>16</title>
<g id="a_node26"><a xlink:title="stdio.h">
<polygon fill="#ffffff" stroke="black" points="513.5,-108 448.5,-108 448.5,-72 513.5,-72 513.5,-108"/>
<text text-anchor="middle" x="481" y="-86.3" font-family="Times,serif" font-size="14.00">stdio.h</text>
</a>
</g>
</g>
<!-- 22&#45;&gt;16 -->
<g id="edge10" class="edge">
<title>22&#45;&gt;16</title>
<g id="a_edge10"><a xlink:title="include">
<path fill="none" stroke="#1414ce" d="M459.92,-143.7C463.07,-135.81 466.88,-126.3 470.38,-117.55"/>
<polygon fill="#1414ce" stroke="#1414ce" points="473.69,-118.69 474.16,-108.1 467.19,-116.09 473.69,-118.69"/>
</a>
</g>
</g>
<!-- 15 -->
<g id="node7" class="node">
<title>15</title>
<g id="a_node7"><a xlink:title="synclist.h">
<polygon fill="#ffffff" stroke="black" points="1213.5,-252 1128.5,-252 1128.5,-216 1213.5,-216 1213.5,-252"/>
<text text-anchor="middle" x="1171" y="-230.3" font-family="Times,serif" font-size="14.00">synclist.h</text>
</a>
</g>
</g>
<!-- 15&#45;&gt;14 -->
<g id="edge13" class="edge">
<title>15&#45;&gt;14</title>
<g id="a_edge13"><a xlink:title="include">
<path fill="none" stroke="#1414ce" d="M1137,-215.88C1116.13,-205.37 1089.44,-191.92 1068.18,-181.22"/>
<polygon fill="#1414ce" stroke="#1414ce" points="1069.65,-178.04 1059.14,-176.67 1066.5,-184.29 1069.65,-178.04"/>
</a>
</g>
</g>
<!-- 17 -->
<g id="node23" class="node">
<title>17</title>
<g id="a_node23"><a xlink:title="smp.h">
<polygon fill="#ffffff" stroke="black" points="1201,-180 1141,-180 1141,-144 1201,-144 1201,-180"/>
<text text-anchor="middle" x="1171" y="-158.3" font-family="Times,serif" font-size="14.00">smp.h</text>
</a>
</g>
</g>
<!-- 15&#45;&gt;17 -->
<g id="edge14" class="edge">
<title>15&#45;&gt;17</title>
<g id="a_edge14"><a xlink:title="include">
<path fill="none" stroke="#1414ce" d="M1171,-215.7C1171,-207.98 1171,-198.71 1171,-190.11"/>
<polygon fill="#1414ce" stroke="#1414ce" points="1174.5,-190.1 1171,-180.1 1167.5,-190.1 1174.5,-190.1"/>
</a>
</g>
</g>
<!-- 15&#45;&gt;16 -->
<g id="edge12" class="edge">
<title>15&#45;&gt;16</title>
<g id="a_edge12"><a xlink:title="include">
<path fill="none" stroke="#1414ce" d="M1157.45,-215.93C1139.54,-194.78 1105.78,-159.63 1068,-144 965.27,-101.49 679.22,-122.57 569,-108 554.23,-106.05 538.19,-103.18 523.91,-100.35"/>
<polygon fill="#1414ce" stroke="#1414ce" points="524.36,-96.87 513.86,-98.31 522.97,-103.73 524.36,-96.87"/>
</a>
</g>
</g>
<!-- 14&#45;&gt;7 -->
<g id="edge15" class="edge">
<title>14&#45;&gt;7</title>
<g id="a_edge15"><a xlink:title="include">
<path fill="none" stroke="#1414ce" d="M1004.88,-149.28C981.42,-139.14 946.9,-124.23 918.66,-112.03"/>
<polygon fill="#1414ce" stroke="#1414ce" points="919.92,-108.76 909.35,-108 917.14,-115.18 919.92,-108.76"/>
</a>
</g>
</g>
<!-- 21 -->
<g id="node11" class="node">
<title>21</title>
<g id="a_node11"><a xlink:title="memory.h">
<polygon fill="#ffffff" stroke="black" points="586,-252 500,-252 500,-216 586,-216 586,-252"/>
<text text-anchor="middle" x="543" y="-230.3" font-family="Times,serif" font-size="14.00">memory.h</text>
</a>
</g>
</g>
<!-- 21&#45;&gt;22 -->
<g id="edge20" class="edge">
<title>21&#45;&gt;22</title>
<g id="a_edge20"><a xlink:title="include">
<path fill="none" stroke="#1414ce" d="M520.75,-215.7C509.42,-206.88 495.47,-196.03 483.18,-186.47"/>
<polygon fill="#1414ce" stroke="#1414ce" points="485.03,-183.48 474.99,-180.1 480.74,-189.01 485.03,-183.48"/>
</a>
</g>
</g>
<!-- 21&#45;&gt;3 -->
<g id="edge16" class="edge">
<title>21&#45;&gt;3</title>
<g id="a_edge16"><a xlink:title="include">
<path fill="none" stroke="#1414ce" d="M546.31,-216C551.53,-183.69 557.75,-113.01 522,-72 502.74,-49.9 425.27,-33.99 374.24,-25.66"/>
<polygon fill="#1414ce" stroke="#1414ce" points="374.53,-22.16 364.1,-24.04 373.43,-29.07 374.53,-22.16"/>
</a>
</g>
</g>
<!-- 21&#45;&gt;5 -->
<g id="edge17" class="edge">
<title>21&#45;&gt;5</title>
<g id="a_edge17"><a xlink:title="include">
<path fill="none" stroke="#1414ce" d="M499.72,-218.18C473.88,-208.65 440.79,-195.22 413,-180 377.76,-160.7 340.54,-133.45 315.78,-114.2"/>
<polygon fill="#1414ce" stroke="#1414ce" points="317.9,-111.42 307.87,-108 313.58,-116.93 317.9,-111.42"/>
</a>
</g>
</g>
<!-- 8 -->
<g id="node15" class="node">
<title>8</title>
<g id="a_node15"><a xlink:title="erl_nif.h">
<polygon fill="#ffffff" stroke="black" points="728,-180 654,-180 654,-144 728,-144 728,-180"/>
<text text-anchor="middle" x="691" y="-158.3" font-family="Times,serif" font-size="14.00">erl_nif.h</text>
</a>
</g>
</g>
<!-- 21&#45;&gt;8 -->
<g id="edge18" class="edge">
<title>21&#45;&gt;8</title>
<g id="a_edge18"><a xlink:title="include">
<path fill="none" stroke="#1414ce" d="M579.2,-215.88C599.26,-206.39 624.37,-194.51 645.71,-184.42"/>
<polygon fill="#1414ce" stroke="#1414ce" points="647.37,-187.51 654.91,-180.07 644.38,-181.18 647.37,-187.51"/>
</a>
</g>
</g>
<!-- 9 -->
<g id="node21" class="node">
<title>9</title>
<g id="a_node21"><a xlink:title="term_typedef.h">
<polygon fill="#ffffff" stroke="black" points="703.5,-108 578.5,-108 578.5,-72 703.5,-72 703.5,-108"/>
<text text-anchor="middle" x="641" y="-86.3" font-family="Times,serif" font-size="14.00">term_typedef.h</text>
</a>
</g>
</g>
<!-- 21&#45;&gt;9 -->
<g id="edge19" class="edge">
<title>21&#45;&gt;9</title>
<g id="a_edge19"><a xlink:title="include">
<path fill="none" stroke="#1414ce" d="M554.82,-215.87C571.89,-191.14 603.57,-145.24 623.39,-116.51"/>
<polygon fill="#1414ce" stroke="#1414ce" points="626.34,-118.41 629.14,-108.19 620.58,-114.43 626.34,-118.41"/>
</a>
</g>
</g>
<!-- 25&#45;&gt;15 -->
<g id="edge26" class="edge">
<title>25&#45;&gt;15</title>
<g id="a_edge26"><a xlink:title="include">
<path fill="none" stroke="#1414ce" d="M804.3,-296.56C883.76,-283.22 1037.58,-257.4 1118.43,-243.82"/>
<polygon fill="#1414ce" stroke="#1414ce" points="1119.11,-247.26 1128.39,-242.15 1117.95,-240.36 1119.11,-247.26"/>
</a>
</g>
</g>
<!-- 25&#45;&gt;14 -->
<g id="edge23" class="edge">
<title>25&#45;&gt;14</title>
<g id="a_edge23"><a xlink:title="include">
<path fill="none" stroke="#1414ce" d="M804.03,-300.44C868.62,-293.56 976.16,-278.45 1005,-252 1022.15,-236.27 1028.55,-210.05 1030.86,-190.13"/>
<polygon fill="#1414ce" stroke="#1414ce" points="1034.36,-190.37 1031.76,-180.1 1027.38,-189.75 1034.36,-190.37"/>
</a>
</g>
</g>
<!-- 25&#45;&gt;5 -->
<g id="edge21" class="edge">
<title>25&#45;&gt;5</title>
<g id="a_edge21"><a xlink:title="include">
<path fill="none" stroke="#1414ce" d="M703.77,-301.52C621.98,-293.41 458.84,-266.73 356,-180 334.45,-161.83 315.29,-135.9 302.66,-116.71"/>
<polygon fill="#1414ce" stroke="#1414ce" points="305.52,-114.68 297.17,-108.16 299.63,-118.46 305.52,-114.68"/>
</a>
</g>
</g>
<!-- 25&#45;&gt;21 -->
<g id="edge25" class="edge">
<title>25&#45;&gt;21</title>
<g id="a_edge25"><a xlink:title="include">
<path fill="none" stroke="#1414ce" d="M704,-288.41C671.39,-277.59 628.89,-263.49 595.74,-252.5"/>
<polygon fill="#1414ce" stroke="#1414ce" points="596.81,-249.17 586.22,-249.34 594.61,-255.81 596.81,-249.17"/>
</a>
</g>
</g>
<!-- 25&#45;&gt;8 -->
<g id="edge22" class="edge">
<title>25&#45;&gt;8</title>
<g id="a_edge22"><a xlink:title="include">
<path fill="none" stroke="#1414ce" d="M713.82,-287.77C699.17,-279.28 684.2,-267.48 676,-252 665.74,-232.63 671.17,-207.86 678.21,-189.37"/>
<polygon fill="#1414ce" stroke="#1414ce" points="681.46,-190.66 682.07,-180.08 675,-187.97 681.46,-190.66"/>
</a>
</g>
</g>
<!-- 26 -->
<g id="node25" class="node">
<title>26</title>
<g id="a_node25"><a xlink:title="mailbox.h">
<polygon fill="#ffffff" stroke="black" points="842,-252 756,-252 756,-216 842,-216 842,-252"/>
<text text-anchor="middle" x="799" y="-230.3" font-family="Times,serif" font-size="14.00">mailbox.h</text>
</a>
</g>
</g>
<!-- 25&#45;&gt;26 -->
<g id="edge24" class="edge">
<title>25&#45;&gt;26</title>
<g id="a_edge24"><a xlink:title="include">
<path fill="none" stroke="#1414ce" d="M765.12,-287.7C770.36,-279.56 776.7,-269.69 782.48,-260.7"/>
<polygon fill="#1414ce" stroke="#1414ce" points="785.54,-262.41 788,-252.1 779.65,-258.62 785.54,-262.41"/>
</a>
</g>
</g>
<!-- 18 -->
<g id="node13" class="node">
<title>18</title>
<g id="a_node13"><a xlink:title="term.h">
<polygon fill="#ffffff" stroke="black" points="502.5,-468 437.5,-468 437.5,-432 502.5,-432 502.5,-468"/>
<text text-anchor="middle" x="470" y="-446.3" font-family="Times,serif" font-size="14.00">term.h</text>
</a>
</g>
</g>
<!-- 18&#45;&gt;7 -->
<g id="edge28" class="edge">
<title>18&#45;&gt;7</title>
<g id="a_edge28"><a xlink:title="include">
<path fill="none" stroke="#1414ce" d="M459.73,-431.91C449.93,-413.2 438.4,-382.82 451,-360 487.3,-294.26 674.01,-220.89 737,-180 770.92,-157.98 809.26,-132.23 836.03,-114.11"/>
<polygon fill="#1414ce" stroke="#1414ce" points="838.33,-116.78 844.64,-108.27 834.4,-110.99 838.33,-116.78"/>
</a>
</g>
</g>
<!-- 18&#45;&gt;24 -->
<g id="edge34" class="edge">
<title>18&#45;&gt;24</title>
<g id="a_edge34"><a xlink:title="include">
<path fill="none" stroke="#1414ce" d="M502.6,-441.28C545.74,-431.05 624.13,-412.38 691,-396 692.26,-395.69 693.54,-395.38 694.83,-395.06"/>
<polygon fill="#1414ce" stroke="#1414ce" points="695.95,-398.39 704.82,-392.59 694.27,-391.59 695.95,-398.39"/>
</a>
</g>
</g>
<!-- 18&#45;&gt;22 -->
<g id="edge35" class="edge">
<title>18&#45;&gt;22</title>
<g id="a_edge35"><a xlink:title="include">
<path fill="none" stroke="#1414ce" d="M441.74,-431.97C429.57,-422.96 416.63,-410.7 410,-396 378.34,-325.78 416,-233.62 438.51,-189.19"/>
<polygon fill="#1414ce" stroke="#1414ce" points="441.68,-190.69 443.19,-180.21 435.47,-187.46 441.68,-190.69"/>
</a>
</g>
</g>
<!-- 18&#45;&gt;3 -->
<g id="edge29" class="edge">
<title>18&#45;&gt;3</title>
<g id="a_edge29"><a xlink:title="include">
<path fill="none" stroke="#1414ce" d="M437.34,-448.36C392.71,-445.93 312.05,-435.84 258,-396 220.76,-368.55 204,-353.27 204,-307 204,-307 204,-307 204,-161 204,-117.99 213.93,-104.59 242,-72 253.18,-59.01 268.36,-48.22 282.85,-39.84"/>
<polygon fill="#1414ce" stroke="#1414ce" points="284.68,-42.82 291.74,-34.93 281.3,-36.7 284.68,-42.82"/>
</a>
</g>
</g>
<!-- 18&#45;&gt;5 -->
<g id="edge31" class="edge">
<title>18&#45;&gt;5</title>
<g id="a_edge31"><a xlink:title="include">
<path fill="none" stroke="#1414ce" d="M437.33,-444.14C374.29,-432.73 242,-397.93 242,-307 242,-307 242,-307 242,-233 242,-191.13 260,-145.42 273.23,-117.48"/>
<polygon fill="#1414ce" stroke="#1414ce" points="276.44,-118.89 277.68,-108.37 270.15,-115.82 276.44,-118.89"/>
</a>
</g>
</g>
<!-- 18&#45;&gt;21 -->
<g id="edge33" class="edge">
<title>18&#45;&gt;21</title>
<g id="a_edge33"><a xlink:title="include">
<path fill="none" stroke="#1414ce" d="M446.25,-431.91C435.45,-422.65 423.8,-410.2 418,-396 411.95,-381.19 411.88,-374.78 418,-360 436.09,-316.33 477.66,-279.96 507.91,-257.91"/>
<polygon fill="#1414ce" stroke="#1414ce" points="509.99,-260.73 516.11,-252.08 505.93,-255.02 509.99,-260.73"/>
</a>
</g>
</g>
<!-- 19 -->
<g id="node19" class="node">
<title>19</title>
<g id="a_node19"><a xlink:title="sys/types.h">
<polygon fill="#ffffff" stroke="black" points="557.5,-396 460.5,-396 460.5,-360 557.5,-360 557.5,-396"/>
<text text-anchor="middle" x="509" y="-374.3" font-family="Times,serif" font-size="14.00">sys/types.h</text>
</a>
</g>
</g>
<!-- 18&#45;&gt;19 -->
<g id="edge27" class="edge">
<title>18&#45;&gt;19</title>
<g id="a_edge27"><a xlink:title="include">
<path fill="none" stroke="#1414ce" d="M479.64,-431.7C484.13,-423.64 489.56,-413.89 494.52,-404.98"/>
<polygon fill="#1414ce" stroke="#1414ce" points="497.66,-406.54 499.47,-396.1 491.55,-403.14 497.66,-406.54"/>
</a>
</g>
</g>
<!-- 20 -->
<g id="node20" class="node">
<title>20</title>
<g id="a_node20"><a xlink:title="string.h">
<polygon fill="#ffffff" stroke="black" points="648.5,-396 575.5,-396 575.5,-360 648.5,-360 648.5,-396"/>
<text text-anchor="middle" x="612" y="-374.3" font-family="Times,serif" font-size="14.00">string.h</text>
</a>
</g>
</g>
<!-- 18&#45;&gt;20 -->
<g id="edge32" class="edge">
<title>18&#45;&gt;20</title>
<g id="a_edge32"><a xlink:title="include">
<path fill="none" stroke="#1414ce" d="M502.58,-432.94C521.98,-423.38 546.86,-411.11 567.99,-400.7"/>
<polygon fill="#1414ce" stroke="#1414ce" points="569.67,-403.77 577.09,-396.21 566.58,-397.49 569.67,-403.77"/>
</a>
</g>
</g>
<!-- 18&#45;&gt;9 -->
<g id="edge36" class="edge">
<title>18&#45;&gt;9</title>
<g id="a_edge36"><a xlink:title="include">
<path fill="none" stroke="#1414ce" d="M502.8,-444.48C551.3,-437.04 638.43,-420.56 657,-396 666.65,-383.24 657.53,-375.99 657,-360 654.33,-279.87 649.47,-260.05 645,-180 643.84,-159.28 642.8,-135.84 642.07,-118.21"/>
<polygon fill="#1414ce" stroke="#1414ce" points="645.56,-117.92 641.66,-108.07 638.57,-118.2 645.56,-117.92"/>
</a>
</g>
</g>
<!-- 18&#45;&gt;16 -->
<g id="edge30" class="edge">
<title>18&#45;&gt;16</title>
<g id="a_edge30"><a xlink:title="include">
<path fill="none" stroke="#1414ce" d="M437.13,-433.87C422.08,-425.1 405.69,-412.49 397,-396 374.61,-353.53 392.02,-335.92 395,-288 399.01,-223.63 381.15,-200.08 413,-144 419.72,-132.18 430.23,-122.07 441,-113.95"/>
<polygon fill="#1414ce" stroke="#1414ce" points="443.08,-116.77 449.22,-108.14 439.04,-111.05 443.08,-116.77"/>
</a>
</g>
</g>
<!-- 8&#45;&gt;9 -->
<g id="edge37" class="edge">
<title>8&#45;&gt;9</title>
<g id="a_edge37"><a xlink:title="include">
<path fill="none" stroke="#1414ce" d="M678.64,-143.7C672.77,-135.47 665.63,-125.48 659.16,-116.42"/>
<polygon fill="#1414ce" stroke="#1414ce" points="661.88,-114.21 653.22,-108.1 656.18,-118.28 661.88,-114.21"/>
</a>
</g>
</g>
<!-- 11 -->
<g id="node17" class="node">
<title>11</title>
<g id="a_node17"><a xlink:title="limits.h">
<polygon fill="#ffffff" stroke="black" points="578.5,-36 507.5,-36 507.5,0 578.5,0 578.5,-36"/>
<text text-anchor="middle" x="543" y="-14.3" font-family="Times,serif" font-size="14.00">limits.h</text>
</a>
</g>
</g>
<!-- 6 -->
<g id="node18" class="node">
<title>6</title>
<g id="a_node18"><a xlink:title="atom_table.h">
<polygon fill="#ffffff" stroke="black" points="175.5,-252 66.5,-252 66.5,-216 175.5,-216 175.5,-252"/>
<text text-anchor="middle" x="121" y="-230.3" font-family="Times,serif" font-size="14.00">atom_table.h</text>
</a>
</g>
</g>
<!-- 6&#45;&gt;7 -->
<g id="edge38" class="edge">
<title>6&#45;&gt;7</title>
<g id="a_edge38"><a xlink:title="include">
<path fill="none" stroke="#1414ce" d="M175.78,-226.78C248.56,-218.15 380.99,-201.2 493,-180 561.21,-167.09 577.43,-159.96 645,-144 704.37,-129.98 772.56,-113.92 818.17,-103.19"/>
<polygon fill="#1414ce" stroke="#1414ce" points="819.18,-106.55 828.11,-100.85 817.58,-99.73 819.18,-106.55"/>
</a>
</g>
</g>
<!-- 6&#45;&gt;4 -->
<g id="edge39" class="edge">
<title>6&#45;&gt;4</title>
<g id="a_edge39"><a xlink:title="include">
<path fill="none" stroke="#1414ce" d="M123.72,-215.7C124.93,-207.98 126.39,-198.71 127.74,-190.11"/>
<polygon fill="#1414ce" stroke="#1414ce" points="131.22,-190.53 129.31,-180.1 124.3,-189.44 131.22,-190.53"/>
</a>
</g>
</g>
<!-- 9&#45;&gt;10 -->
<g id="edge40" class="edge">
<title>9&#45;&gt;10</title>
<g id="a_edge40"><a xlink:title="include">
<path fill="none" stroke="#1414ce" d="M665.46,-71.88C678.3,-62.89 694.2,-51.76 708.09,-42.03"/>
<polygon fill="#1414ce" stroke="#1414ce" points="710.26,-44.79 716.44,-36.19 706.24,-39.06 710.26,-44.79"/>
</a>
</g>
</g>
<!-- 9&#45;&gt;3 -->
<g id="edge43" class="edge">
<title>9&#45;&gt;3</title>
<g id="a_edge43"><a xlink:title="include">
<path fill="none" stroke="#1414ce" d="M578.41,-75C518.08,-61.51 428.19,-41.41 374.12,-29.31"/>
<polygon fill="#1414ce" stroke="#1414ce" points="374.65,-25.85 364.12,-27.08 373.12,-32.68 374.65,-25.85"/>
</a>
</g>
</g>
<!-- 9&#45;&gt;11 -->
<g id="edge41" class="edge">
<title>9&#45;&gt;11</title>
<g id="a_edge41"><a xlink:title="include">
<path fill="none" stroke="#1414ce" d="M617.03,-71.88C604.45,-62.89 588.87,-51.76 575.25,-42.03"/>
<polygon fill="#1414ce" stroke="#1414ce" points="577.24,-39.15 567.07,-36.19 573.17,-44.85 577.24,-39.15"/>
</a>
</g>
</g>
<!-- 12 -->
<g id="node28" class="node">
<title>12</title>
<g id="a_node28"><a xlink:title="inttypes.h">
<polygon fill="#ffffff" stroke="black" points="685.5,-36 596.5,-36 596.5,0 685.5,0 685.5,-36"/>
<text text-anchor="middle" x="641" y="-14.3" font-family="Times,serif" font-size="14.00">inttypes.h</text>
</a>
</g>
</g>
<!-- 9&#45;&gt;12 -->
<g id="edge42" class="edge">
<title>9&#45;&gt;12</title>
<g id="a_edge42"><a xlink:title="include">
<path fill="none" stroke="#1414ce" d="M641,-71.7C641,-63.98 641,-54.71 641,-46.11"/>
<polygon fill="#1414ce" stroke="#1414ce" points="644.5,-46.1 641,-36.1 637.5,-46.1 644.5,-46.1"/>
</a>
</g>
</g>
<!-- 2&#45;&gt;4 -->
<g id="edge45" class="edge">
<title>2&#45;&gt;4</title>
<g id="a_edge45"><a xlink:title="include">
<path fill="none" stroke="#1414ce" d="M844.42,-577.5C841.25,-576.94 838.09,-576.44 835,-576 683.63,-554.58 290.73,-594.76 148,-540 89.29,-517.48 38,-513.89 38,-451 38,-451 38,-451 38,-305 38,-264.55 34.73,-249.77 57,-216 65.34,-203.35 77.83,-192.78 90.24,-184.5"/>
<polygon fill="#1414ce" stroke="#1414ce" points="92.16,-187.42 98.76,-179.13 88.43,-181.5 92.16,-187.42"/>
</a>
</g>
</g>
<!-- 2&#45;&gt;15 -->
<g id="edge52" class="edge">
<title>2&#45;&gt;15</title>
<g id="a_edge52"><a xlink:title="include">
<path fill="none" stroke="#1414ce" d="M971.51,-587.02C1050.76,-575.67 1176,-543.15 1176,-451 1176,-451 1176,-451 1176,-377 1176,-336.97 1173.99,-290.63 1172.52,-262.07"/>
<polygon fill="#1414ce" stroke="#1414ce" points="1176.01,-261.84 1171.99,-252.04 1169.02,-262.21 1176.01,-261.84"/>
</a>
</g>
</g>
<!-- 2&#45;&gt;14 -->
<g id="edge49" class="edge">
<title>2&#45;&gt;14</title>
<g id="a_edge49"><a xlink:title="include">
<path fill="none" stroke="#1414ce" d="M971.61,-593.16C1068.52,-589.69 1242,-567.25 1242,-451 1242,-451 1242,-451 1242,-305 1242,-264.46 1249.93,-245.39 1222,-216 1201.13,-194.04 1118.37,-177.12 1069.22,-168.76"/>
<polygon fill="#1414ce" stroke="#1414ce" points="1069.72,-165.3 1059.28,-167.11 1068.57,-172.2 1069.72,-165.3"/>
</a>
</g>
</g>
<!-- 2&#45;&gt;3 -->
<g id="edge44" class="edge">
<title>2&#45;&gt;3</title>
<g id="a_edge44"><a xlink:title="include">
<path fill="none" stroke="#1414ce" d="M844.43,-577.48C841.25,-576.93 838.09,-576.43 835,-576 749.39,-564.15 133.01,-582.93 58,-540 17.02,-516.55 0,-498.21 0,-451 0,-451 0,-451 0,-161 0,-39.68 191.31,-20.85 281.71,-18.72"/>
<polygon fill="#1414ce" stroke="#1414ce" points="282.02,-22.21 291.96,-18.54 281.9,-15.21 282.02,-22.21"/>
</a>
</g>
</g>
<!-- 2&#45;&gt;18 -->
<g id="edge53" class="edge">
<title>2&#45;&gt;18</title>
<g id="a_edge53"><a xlink:title="include">
<path fill="none" stroke="#1414ce" d="M855.17,-575.87C767.34,-547.4 593.03,-490.89 512.55,-464.79"/>
<polygon fill="#1414ce" stroke="#1414ce" points="513.34,-461.37 502.75,-461.62 511.18,-468.03 513.34,-461.37"/>
</a>
</g>
</g>
<!-- 2&#45;&gt;8 -->
<g id="edge47" class="edge">
<title>2&#45;&gt;8</title>
<g id="a_edge47"><a xlink:title="include">
<path fill="none" stroke="#1414ce" d="M907.05,-575.72C903.46,-525.61 886.84,-378.07 813,-288 791.82,-262.16 771.35,-274.88 747,-252 727.99,-234.14 712.76,-208.5 703.01,-189.32"/>
<polygon fill="#1414ce" stroke="#1414ce" points="706.09,-187.66 698.54,-180.22 699.81,-190.74 706.09,-187.66"/>
</a>
</g>
</g>
<!-- 2&#45;&gt;6 -->
<g id="edge46" class="edge">
<title>2&#45;&gt;6</title>
<g id="a_edge46"><a xlink:title="include">
<path fill="none" stroke="#1414ce" d="M844.34,-577.97C841.19,-577.29 838.06,-576.63 835,-576 745.67,-557.65 722.75,-556.16 633,-540 415.59,-500.84 144,-671.9 144,-451 144,-451 144,-451 144,-377 144,-336.7 134.86,-290.78 128.1,-262.34"/>
<polygon fill="#1414ce" stroke="#1414ce" points="131.43,-261.22 125.65,-252.34 124.63,-262.89 131.43,-261.22"/>
</a>
</g>
</g>
<!-- 2&#45;&gt;17 -->
<g id="edge51" class="edge">
<title>2&#45;&gt;17</title>
<g id="a_edge51"><a xlink:title="include">
<path fill="none" stroke="#1414ce" d="M971.52,-588.39C1051.31,-581.57 1182.69,-566.64 1223,-540 1262.19,-514.1 1280,-497.97 1280,-451 1280,-451 1280,-451 1280,-305 1280,-262.66 1271.97,-249.44 1246,-216 1236.31,-203.52 1222.88,-192.75 1210.05,-184.25"/>
<polygon fill="#1414ce" stroke="#1414ce" points="1211.65,-181.12 1201.33,-178.73 1207.91,-187.04 1211.65,-181.12"/>
</a>
</g>
</g>
<!-- 27 -->
<g id="node24" class="node">
<title>27</title>
<g id="a_node24"><a xlink:title="timer_list.h">
<polygon fill="#ffffff" stroke="black" points="996,-252 898,-252 898,-216 996,-216 996,-252"/>
<text text-anchor="middle" x="947" y="-230.3" font-family="Times,serif" font-size="14.00">timer_list.h</text>
</a>
</g>
</g>
<!-- 2&#45;&gt;27 -->
<g id="edge54" class="edge">
<title>2&#45;&gt;27</title>
<g id="a_edge54"><a xlink:title="include">
<path fill="none" stroke="#1414ce" d="M915.89,-575.93C927.29,-549.67 947,-497.53 947,-451 947,-451 947,-451 947,-377 947,-337 947,-290.65 947,-262.08"/>
<polygon fill="#1414ce" stroke="#1414ce" points="950.5,-262.05 947,-252.05 943.5,-262.05 950.5,-262.05"/>
</a>
</g>
</g>
<!-- 2&#45;&gt;26 -->
<g id="edge50" class="edge">
<title>2&#45;&gt;26</title>
<g id="a_edge50"><a xlink:title="include">
<path fill="none" stroke="#1414ce" d="M908,-575.95C908,-549.29 908,-496.11 908,-451 908,-451 908,-451 908,-377 908,-326.93 864.83,-283.64 832.83,-258.43"/>
<polygon fill="#1414ce" stroke="#1414ce" points="834.63,-255.4 824.56,-252.11 830.38,-260.96 834.63,-255.4"/>
</a>
</g>
</g>
<!-- 13 -->
<g id="node27" class="node">
<title>13</title>
<g id="a_node27"><a xlink:title="ets.h">
<polygon fill="#ffffff" stroke="black" points="1078,-540 1024,-540 1024,-504 1078,-504 1078,-540"/>
<text text-anchor="middle" x="1051" y="-518.3" font-family="Times,serif" font-size="14.00">ets.h</text>
</a>
</g>
</g>
<!-- 2&#45;&gt;13 -->
<g id="edge48" class="edge">
<title>2&#45;&gt;13</title>
<g id="a_edge48"><a xlink:title="include">
<path fill="none" stroke="#1414ce" d="M942.98,-575.88C964.83,-565.18 992.9,-551.44 1014.95,-540.65"/>
<polygon fill="#1414ce" stroke="#1414ce" points="1016.55,-543.76 1023.99,-536.22 1013.47,-537.47 1016.55,-543.76"/>
</a>
</g>
</g>
<!-- 17&#45;&gt;7 -->
<g id="edge55" class="edge">
<title>17&#45;&gt;7</title>
<g id="a_edge55"><a xlink:title="include">
<path fill="none" stroke="#1414ce" d="M1140.99,-152.29C1131.15,-149.52 1120.13,-146.53 1110,-144 1045.45,-127.89 970.51,-111.75 921.77,-101.58"/>
<polygon fill="#1414ce" stroke="#1414ce" points="922.29,-98.11 911.78,-99.51 920.86,-104.97 922.29,-98.11"/>
</a>
</g>
</g>
<!-- 27&#45;&gt;7 -->
<g id="edge56" class="edge">
<title>27&#45;&gt;7</title>
<g id="a_edge56"><a xlink:title="include">
<path fill="none" stroke="#1414ce" d="M937.71,-215.87C924.42,-191.35 899.84,-146.03 884.24,-117.26"/>
<polygon fill="#1414ce" stroke="#1414ce" points="887.16,-115.31 879.32,-108.19 881.01,-118.65 887.16,-115.31"/>
</a>
</g>
</g>
<!-- 27&#45;&gt;14 -->
<g id="edge58" class="edge">
<title>27&#45;&gt;14</title>
<g id="a_edge58"><a xlink:title="include">
<path fill="none" stroke="#1414ce" d="M968.01,-215.7C978.72,-206.88 991.89,-196.03 1003.5,-186.47"/>
<polygon fill="#1414ce" stroke="#1414ce" points="1005.74,-189.16 1011.23,-180.1 1001.29,-183.76 1005.74,-189.16"/>
</a>
</g>
</g>
<!-- 27&#45;&gt;3 -->
<g id="edge57" class="edge">
<title>27&#45;&gt;3</title>
<g id="a_edge57"><a xlink:title="include">
<path fill="none" stroke="#1414ce" d="M950.13,-215.8C955.08,-182.51 960.42,-109.27 920,-72 885.4,-40.1 544.86,-40.34 498,-36 456.11,-32.12 408.46,-27.32 374.28,-23.81"/>
<polygon fill="#1414ce" stroke="#1414ce" points="374.44,-20.31 364.13,-22.77 373.72,-27.27 374.44,-20.31"/>
</a>
</g>
</g>
<!-- 26&#45;&gt;7 -->
<g id="edge59" class="edge">
<title>26&#45;&gt;7</title>
<g id="a_edge59"><a xlink:title="include">
<path fill="none" stroke="#1414ce" d="M807.56,-215.87C819.82,-191.35 842.48,-146.03 856.87,-117.26"/>
<polygon fill="#1414ce" stroke="#1414ce" points="860.06,-118.7 861.41,-108.19 853.8,-115.57 860.06,-118.7"/>
</a>
</g>
</g>
<!-- 26&#45;&gt;22 -->
<g id="edge62" class="edge">
<title>26&#45;&gt;22</title>
<g id="a_edge62"><a xlink:title="include">
<path fill="none" stroke="#1414ce" d="M755.88,-224.28C688.82,-210.71 560.39,-184.73 494.4,-171.38"/>
<polygon fill="#1414ce" stroke="#1414ce" points="494.86,-167.9 484.36,-169.34 493.47,-174.76 494.86,-167.9"/>
</a>
</g>
</g>
<!-- 26&#45;&gt;14 -->
<g id="edge60" class="edge">
<title>26&#45;&gt;14</title>
<g id="a_edge60"><a xlink:title="include">
<path fill="none" stroke="#1414ce" d="M842.01,-220.08C885.98,-206.87 953.57,-186.56 995.16,-174.07"/>
<polygon fill="#1414ce" stroke="#1414ce" points="996.32,-177.37 1004.89,-171.14 994.31,-170.67 996.32,-177.37"/>
</a>
</g>
</g>
<!-- 26&#45;&gt;9 -->
<g id="edge61" class="edge">
<title>26&#45;&gt;9</title>
<g id="a_edge61"><a xlink:title="include">
<path fill="none" stroke="#1414ce" d="M790.2,-215.84C779.63,-196.51 760.36,-165.05 737,-144 723.4,-131.75 706.48,-121.23 690.65,-112.86"/>
<polygon fill="#1414ce" stroke="#1414ce" points="691.98,-109.61 681.48,-108.19 688.8,-115.85 691.98,-109.61"/>
</a>
</g>
</g>
<!-- 13&#45;&gt;15 -->
<g id="edge64" class="edge">
<title>13&#45;&gt;15</title>
<g id="a_edge64"><a xlink:title="include">
<path fill="none" stroke="#1414ce" d="M1078.11,-504.12C1090.78,-494.92 1105.03,-482.45 1114,-468 1135.42,-433.49 1157.29,-316.3 1166.49,-262.46"/>
<polygon fill="#1414ce" stroke="#1414ce" points="1169.99,-262.72 1168.21,-252.28 1163.09,-261.56 1169.99,-262.72"/>
</a>
</g>
</g>
<!-- 13&#45;&gt;14 -->
<g id="edge63" class="edge">
<title>13&#45;&gt;14</title>
<g id="a_edge63"><a xlink:title="include">
<path fill="none" stroke="#1414ce" d="M1061.15,-503.73C1075.51,-477.64 1100,-426.2 1100,-379 1100,-379 1100,-379 1100,-305 1100,-260.6 1072.63,-215.38 1052.62,-188.25"/>
<polygon fill="#1414ce" stroke="#1414ce" points="1055.26,-185.95 1046.42,-180.11 1049.69,-190.18 1055.26,-185.95"/>
</a>
</g>
</g>
<!-- 13&#45;&gt;18 -->
<g id="edge65" class="edge">
<title>13&#45;&gt;18</title>
<g id="a_edge65"><a xlink:title="include">
<path fill="none" stroke="#1414ce" d="M1023.76,-517.72C930.86,-506.53 626.03,-469.8 512.83,-456.16"/>
<polygon fill="#1414ce" stroke="#1414ce" points="513.15,-452.67 502.8,-454.95 512.31,-459.62 513.15,-452.67"/>
</a>
</g>
</g>
</g>
</svg>
