<?xml version="1.0" encoding="UTF-8" standalone="no"?>
<!DOCTYPE svg PUBLIC "-//W3C//DTD SVG 1.1//EN"
 "http://www.w3.org/Graphics/SVG/1.1/DTD/svg11.dtd">
<!-- Generated by graphviz version 2.43.0 (0)
 -->
<!-- Title: %3 Pages: 1 -->
<svg width="383pt" height="188pt"
 viewBox="0.00 0.00 383.00 188.00" xmlns="http://www.w3.org/2000/svg" xmlns:xlink="http://www.w3.org/1999/xlink">
<g id="graph0" class="graph" transform="scale(1 1) rotate(0) translate(4 184)">
<title>%3</title>
<polygon fill="transparent" stroke="transparent" points="-4,4 -4,-184 379,-184 379,4 -4,4"/>
<!-- 2 -->
<g id="node1" class="node">
<title>2</title>
<g id="a_node1"><a xlink:title="stdbool.h">
<polygon fill="#ffffff" stroke="black" points="201,-36 118,-36 118,0 201,0 201,-36"/>
<text text-anchor="middle" x="159.5" y="-14.3" font-family="Times,serif" font-size="14.00">stdbool.h</text>
</a>
</g>
</g>
<!-- 4 -->
<g id="node2" class="node">
<title>4</title>
<g id="a_node2"><a xlink:title="list.h">
<polygon fill="#ffffff" stroke="black" points="214.5,-108 160.5,-108 160.5,-72 214.5,-72 214.5,-108"/>
<text text-anchor="middle" x="187.5" y="-86.3" font-family="Times,serif" font-size="14.00">list.h</text>
</a>
</g>
</g>
<!-- 4&#45;&gt;2 -->
<g id="edge1" class="edge">
<title>4&#45;&gt;2</title>
<g id="a_edge1"><a xlink:title="include">
<path fill="none" stroke="#1414ce" d="M180.58,-71.7C177.43,-63.81 173.62,-54.3 170.12,-45.55"/>
<polygon fill="#1414ce" stroke="#1414ce" points="173.31,-44.09 166.34,-36.1 166.81,-46.69 173.31,-44.09"/>
</a>
</g>
</g>
<!-- 3 -->
<g id="node3" class="node">
<title>3</title>
<g id="a_node3"><a xlink:title="stdint.h">
<polygon fill="#ffffff" stroke="black" points="304.5,-108 232.5,-108 232.5,-72 304.5,-72 304.5,-108"/>
<text text-anchor="middle" x="268.5" y="-86.3" font-family="Times,serif" font-size="14.00">stdint.h</text>
</a>
</g>
</g>
<!-- 1 -->
<g id="node4" class="node">
<title>1</title>
<g id="a_node4"><a xlink:title="/__w/AtomVM/AtomVM/src/libAtomVM/timer_list.h">
<polygon fill="#bfbfbf" stroke="black" points="375,-180 0,-180 0,-144 375,-144 375,-180"/>
<text text-anchor="middle" x="187.5" y="-158.3" font-family="Times,serif" font-size="14.00">/__w/AtomVM/AtomVM/src/libAtomVM/timer_list.h</text>
</a>
</g>
</g>
<!-- 1&#45;&gt;2 -->
<g id="edge2" class="edge">
<title>1&#45;&gt;2</title>
<g id="a_edge2"><a xlink:title="include">
<path fill="none" stroke="#1414ce" d="M171.89,-143.77C164.13,-134.03 155.55,-121.18 151.5,-108 145.29,-87.8 147.95,-63.89 151.81,-45.94"/>
<polygon fill="#1414ce" stroke="#1414ce" points="155.23,-46.67 154.16,-36.13 148.42,-45.04 155.23,-46.67"/>
</a>
</g>
</g>
<!-- 1&#45;&gt;4 -->
<g id="edge4" class="edge">
<title>1&#45;&gt;4</title>
<g id="a_edge4"><a xlink:title="include">
<path fill="none" stroke="#1414ce" d="M187.5,-143.7C187.5,-135.98 187.5,-126.71 187.5,-118.11"/>
<polygon fill="#1414ce" stroke="#1414ce" points="191,-118.1 187.5,-108.1 184,-118.1 191,-118.1"/>
</a>
</g>
</g>
<!-- 1&#45;&gt;3 -->
<g id="edge3" class="edge">
<title>1&#45;&gt;3</title>
<g id="a_edge3"><a xlink:title="include">
<path fill="none" stroke="#1414ce" d="M207.52,-143.7C217.63,-134.97 230.04,-124.24 241.02,-114.75"/>
<polygon fill="#1414ce" stroke="#1414ce" points="243.43,-117.29 248.71,-108.1 238.85,-111.99 243.43,-117.29"/>
</a>
</g>
</g>
</g>
</svg>
