<?xml version="1.0" encoding="UTF-8" standalone="no"?>
<!DOCTYPE svg PUBLIC "-//W3C//DTD SVG 1.1//EN"
 "http://www.w3.org/Graphics/SVG/1.1/DTD/svg11.dtd">
<!-- Generated by graphviz version 2.43.0 (0)
 -->
<!-- Title: %3 Pages: 1 -->
<svg width="1957pt" height="764pt"
 viewBox="0.00 0.00 1956.50 764.00" xmlns="http://www.w3.org/2000/svg" xmlns:xlink="http://www.w3.org/1999/xlink">
<g id="graph0" class="graph" transform="scale(1 1) rotate(0) translate(4 760)">
<title>%3</title>
<polygon fill="transparent" stroke="transparent" points="-4,4 -4,-760 1952.5,-760 1952.5,4 -4,4"/>
<!-- 8 -->
<g id="node1" class="node">
<title>8</title>
<g id="a_node1"><a xlink:title="stdbool.h">
<polygon fill="#ffffff" stroke="black" points="904,-108 821,-108 821,-72 904,-72 904,-108"/>
<text text-anchor="middle" x="862.5" y="-86.3" font-family="Times,serif" font-size="14.00">stdbool.h</text>
</a>
</g>
</g>
<!-- 25 -->
<g id="node2" class="node">
<title>25</title>
<g id="a_node2"><a xlink:title="refc_binary.h">
<polygon fill="#ffffff" stroke="black" points="1157.5,-396 1049.5,-396 1049.5,-360 1157.5,-360 1157.5,-396"/>
<text text-anchor="middle" x="1103.5" y="-374.3" font-family="Times,serif" font-size="14.00">refc_binary.h</text>
</a>
</g>
</g>
<!-- 25&#45;&gt;8 -->
<g id="edge1" class="edge">
<title>25&#45;&gt;8</title>
<g id="a_edge1"><a xlink:title="include">
<path fill="none" stroke="#1414ce" d="M1081.63,-359.95C1069.86,-350.16 1055.53,-337.21 1044.5,-324 984.26,-251.86 996.95,-213.34 933.5,-144 923.39,-132.95 910.7,-122.64 898.85,-114.1"/>
<polygon fill="#1414ce" stroke="#1414ce" points="900.63,-111.07 890.43,-108.22 896.62,-116.81 900.63,-111.07"/>
</a>
</g>
</g>
<!-- 18 -->
<g id="node8" class="node">
<title>18</title>
<g id="a_node8"><a xlink:title="list.h">
<polygon fill="#ffffff" stroke="black" points="680.5,-180 626.5,-180 626.5,-144 680.5,-144 680.5,-180"/>
<text text-anchor="middle" x="653.5" y="-158.3" font-family="Times,serif" font-size="14.00">list.h</text>
</a>
</g>
</g>
<!-- 25&#45;&gt;18 -->
<g id="edge3" class="edge">
<title>25&#45;&gt;18</title>
<g id="a_edge3"><a xlink:title="include">
<path fill="none" stroke="#1414ce" d="M1049.25,-372.53C966.57,-363.18 807.76,-334.99 704.5,-252 684.43,-235.87 670.76,-209.57 662.67,-189.74"/>
<polygon fill="#1414ce" stroke="#1414ce" points="665.9,-188.39 659.04,-180.32 659.37,-190.91 665.9,-188.39"/>
</a>
</g>
</g>
<!-- 6 -->
<g id="node11" class="node">
<title>6</title>
<g id="a_node11"><a xlink:title="stdlib.h">
<polygon fill="#ffffff" stroke="black" points="1447,-108 1376,-108 1376,-72 1447,-72 1447,-108"/>
<text text-anchor="middle" x="1411.5" y="-86.3" font-family="Times,serif" font-size="14.00">stdlib.h</text>
</a>
</g>
</g>
<!-- 25&#45;&gt;6 -->
<g id="edge2" class="edge">
<title>25&#45;&gt;6</title>
<g id="a_edge2"><a xlink:title="include">
<path fill="none" stroke="#1414ce" d="M1143.67,-359.97C1205.35,-331.75 1322.92,-269.39 1386.5,-180 1399.47,-161.77 1405.73,-137 1408.74,-118.22"/>
<polygon fill="#1414ce" stroke="#1414ce" points="1412.22,-118.6 1410.13,-108.22 1405.28,-117.64 1412.22,-118.6"/>
</a>
</g>
</g>
<!-- 26 -->
<g id="node15" class="node">
<title>26</title>
<g id="a_node15"><a xlink:title="resources.h">
<polygon fill="#ffffff" stroke="black" points="1153.5,-324 1053.5,-324 1053.5,-288 1153.5,-288 1153.5,-324"/>
<text text-anchor="middle" x="1103.5" y="-302.3" font-family="Times,serif" font-size="14.00">resources.h</text>
</a>
</g>
</g>
<!-- 25&#45;&gt;26 -->
<g id="edge4" class="edge">
<title>25&#45;&gt;26</title>
<g id="a_edge4"><a xlink:title="include">
<path fill="none" stroke="#1414ce" d="M1103.5,-359.7C1103.5,-351.98 1103.5,-342.71 1103.5,-334.11"/>
<polygon fill="#1414ce" stroke="#1414ce" points="1107,-334.1 1103.5,-324.1 1100,-334.1 1107,-334.1"/>
</a>
</g>
</g>
<!-- 34 -->
<g id="node3" class="node">
<title>34</title>
<g id="a_node3"><a xlink:title="defaultatoms.h">
<polygon fill="#ffffff" stroke="black" points="624.5,-684 500.5,-684 500.5,-648 624.5,-648 624.5,-684"/>
<text text-anchor="middle" x="562.5" y="-662.3" font-family="Times,serif" font-size="14.00">defaultatoms.h</text>
</a>
</g>
</g>
<!-- 35 -->
<g id="node20" class="node">
<title>35</title>
<g id="a_node20"><a xlink:title="defaultatoms.def">
<polygon fill="#ffffff" stroke="black" points="137,-612 0,-612 0,-576 137,-576 137,-612"/>
<text text-anchor="middle" x="68.5" y="-590.3" font-family="Times,serif" font-size="14.00">defaultatoms.def</text>
</a>
</g>
</g>
<!-- 34&#45;&gt;35 -->
<g id="edge6" class="edge">
<title>34&#45;&gt;35</title>
<g id="a_edge6"><a xlink:title="include">
<path fill="none" stroke="#1414ce" d="M500.32,-658.43C419.64,-649.57 274.63,-632.52 151.5,-612 150.19,-611.78 148.88,-611.56 147.55,-611.33"/>
<polygon fill="#1414ce" stroke="#1414ce" points="147.73,-607.81 137.27,-609.49 146.5,-614.7 147.73,-607.81"/>
</a>
</g>
</g>
<!-- 3 -->
<g id="node26" class="node">
<title>3</title>
<g id="a_node26"><a xlink:title="globalcontext.h">
<polygon fill="#ffffff" stroke="black" points="660,-612 533,-612 533,-576 660,-576 660,-612"/>
<text text-anchor="middle" x="596.5" y="-590.3" font-family="Times,serif" font-size="14.00">globalcontext.h</text>
</a>
</g>
</g>
<!-- 34&#45;&gt;3 -->
<g id="edge5" class="edge">
<title>34&#45;&gt;3</title>
<g id="a_edge5"><a xlink:title="include">
<path fill="none" stroke="#1414ce" d="M570.9,-647.7C574.77,-639.73 579.45,-630.1 583.74,-621.26"/>
<polygon fill="#1414ce" stroke="#1414ce" points="586.97,-622.63 588.19,-612.1 580.67,-619.57 586.97,-622.63"/>
</a>
</g>
</g>
<!-- 5 -->
<g id="node4" class="node">
<title>5</title>
<g id="a_node4"><a xlink:title="atom.h">
<polygon fill="#ffffff" stroke="black" points="1231.5,-180 1165.5,-180 1165.5,-144 1231.5,-144 1231.5,-180"/>
<text text-anchor="middle" x="1198.5" y="-158.3" font-family="Times,serif" font-size="14.00">atom.h</text>
</a>
</g>
</g>
<!-- 4 -->
<g id="node9" class="node">
<title>4</title>
<g id="a_node9"><a xlink:title="stdint.h">
<polygon fill="#ffffff" stroke="black" points="1234.5,-36 1162.5,-36 1162.5,0 1234.5,0 1234.5,-36"/>
<text text-anchor="middle" x="1198.5" y="-14.3" font-family="Times,serif" font-size="14.00">stdint.h</text>
</a>
</g>
</g>
<!-- 5&#45;&gt;4 -->
<g id="edge7" class="edge">
<title>5&#45;&gt;4</title>
<g id="a_edge7"><a xlink:title="include">
<path fill="none" stroke="#1414ce" d="M1198.5,-143.87C1198.5,-119.67 1198.5,-75.21 1198.5,-46.39"/>
<polygon fill="#1414ce" stroke="#1414ce" points="1202,-46.19 1198.5,-36.19 1195,-46.19 1202,-46.19"/>
</a>
</g>
</g>
<!-- 5&#45;&gt;6 -->
<g id="edge8" class="edge">
<title>5&#45;&gt;6</title>
<g id="a_edge8"><a xlink:title="include">
<path fill="none" stroke="#1414ce" d="M1231.55,-150.55C1264.72,-140 1317.25,-123.16 1362.5,-108 1363.72,-107.59 1364.97,-107.17 1366.22,-106.75"/>
<polygon fill="#1414ce" stroke="#1414ce" points="1367.6,-109.98 1375.94,-103.44 1365.34,-103.35 1367.6,-109.98"/>
</a>
</g>
</g>
<!-- 14 -->
<g id="node5" class="node">
<title>14</title>
<g id="a_node5"><a xlink:title="assert.h">
<polygon fill="#ffffff" stroke="black" points="1948.5,-36 1874.5,-36 1874.5,0 1948.5,0 1948.5,-36"/>
<text text-anchor="middle" x="1911.5" y="-14.3" font-family="Times,serif" font-size="14.00">assert.h</text>
</a>
</g>
</g>
<!-- 9 -->
<g id="node6" class="node">
<title>9</title>
<g id="a_node6"><a xlink:title="utils.h">
<polygon fill="#ffffff" stroke="black" points="1349.5,-180 1287.5,-180 1287.5,-144 1349.5,-144 1349.5,-180"/>
<text text-anchor="middle" x="1318.5" y="-158.3" font-family="Times,serif" font-size="14.00">utils.h</text>
</a>
</g>
</g>
<!-- 9&#45;&gt;6 -->
<g id="edge11" class="edge">
<title>9&#45;&gt;6</title>
<g id="a_edge11"><a xlink:title="include">
<path fill="none" stroke="#1414ce" d="M1341.49,-143.7C1353.31,-134.8 1367.89,-123.82 1380.68,-114.2"/>
<polygon fill="#1414ce" stroke="#1414ce" points="1382.89,-116.91 1388.78,-108.1 1378.68,-111.32 1382.89,-116.91"/>
</a>
</g>
</g>
<!-- 10 -->
<g id="node17" class="node">
<title>10</title>
<g id="a_node17"><a xlink:title="stddef.h">
<polygon fill="#ffffff" stroke="black" points="1168.5,-108 1094.5,-108 1094.5,-72 1168.5,-72 1168.5,-108"/>
<text text-anchor="middle" x="1131.5" y="-86.3" font-family="Times,serif" font-size="14.00">stddef.h</text>
</a>
</g>
</g>
<!-- 9&#45;&gt;10 -->
<g id="edge9" class="edge">
<title>9&#45;&gt;10</title>
<g id="a_edge9"><a xlink:title="include">
<path fill="none" stroke="#1414ce" d="M1287.2,-149.28C1257.49,-138.16 1212.43,-121.3 1178.42,-108.56"/>
<polygon fill="#1414ce" stroke="#1414ce" points="1179.29,-105.15 1168.7,-104.92 1176.84,-111.71 1179.29,-105.15"/>
</a>
</g>
</g>
<!-- 11 -->
<g id="node33" class="node">
<title>11</title>
<g id="a_node33"><a xlink:title="stdio.h">
<polygon fill="#ffffff" stroke="black" points="1353,-108 1288,-108 1288,-72 1353,-72 1353,-108"/>
<text text-anchor="middle" x="1320.5" y="-86.3" font-family="Times,serif" font-size="14.00">stdio.h</text>
</a>
</g>
</g>
<!-- 9&#45;&gt;11 -->
<g id="edge10" class="edge">
<title>9&#45;&gt;11</title>
<g id="a_edge10"><a xlink:title="include">
<path fill="none" stroke="#1414ce" d="M1318.99,-143.7C1319.21,-135.98 1319.48,-126.71 1319.73,-118.11"/>
<polygon fill="#1414ce" stroke="#1414ce" points="1323.22,-118.2 1320.01,-108.1 1316.23,-118 1323.22,-118.2"/>
</a>
</g>
</g>
<!-- 19 -->
<g id="node7" class="node">
<title>19</title>
<g id="a_node7"><a xlink:title="synclist.h">
<polygon fill="#ffffff" stroke="black" points="585,-252 500,-252 500,-216 585,-216 585,-252"/>
<text text-anchor="middle" x="542.5" y="-230.3" font-family="Times,serif" font-size="14.00">synclist.h</text>
</a>
</g>
</g>
<!-- 19&#45;&gt;18 -->
<g id="edge13" class="edge">
<title>19&#45;&gt;18</title>
<g id="a_edge13"><a xlink:title="include">
<path fill="none" stroke="#1414ce" d="M569.65,-215.88C584.03,-206.81 601.88,-195.55 617.41,-185.76"/>
<polygon fill="#1414ce" stroke="#1414ce" points="619.65,-188.48 626.24,-180.19 615.92,-182.56 619.65,-188.48"/>
</a>
</g>
</g>
<!-- 20 -->
<g id="node28" class="node">
<title>20</title>
<g id="a_node28"><a xlink:title="smp.h">
<polygon fill="#ffffff" stroke="black" points="570.5,-180 510.5,-180 510.5,-144 570.5,-144 570.5,-180"/>
<text text-anchor="middle" x="540.5" y="-158.3" font-family="Times,serif" font-size="14.00">smp.h</text>
</a>
</g>
</g>
<!-- 19&#45;&gt;20 -->
<g id="edge14" class="edge">
<title>19&#45;&gt;20</title>
<g id="a_edge14"><a xlink:title="include">
<path fill="none" stroke="#1414ce" d="M542.01,-215.7C541.79,-207.98 541.52,-198.71 541.27,-190.11"/>
<polygon fill="#1414ce" stroke="#1414ce" points="544.77,-190 540.99,-180.1 537.78,-190.2 544.77,-190"/>
</a>
</g>
</g>
<!-- 19&#45;&gt;11 -->
<g id="edge12" class="edge">
<title>19&#45;&gt;11</title>
<g id="a_edge12"><a xlink:title="include">
<path fill="none" stroke="#1414ce" d="M585.22,-229.44C716.57,-218.47 1106.34,-185.51 1118.5,-180 1139.69,-170.41 1136.49,-155.87 1156.5,-144 1194.51,-121.45 1243.26,-107.27 1277.7,-99.32"/>
<polygon fill="#1414ce" stroke="#1414ce" points="1278.9,-102.64 1287.9,-97.05 1277.38,-95.81 1278.9,-102.64"/>
</a>
</g>
</g>
<!-- 18&#45;&gt;8 -->
<g id="edge15" class="edge">
<title>18&#45;&gt;8</title>
<g id="a_edge15"><a xlink:title="include">
<path fill="none" stroke="#1414ce" d="M680.82,-151.85C713.81,-140.8 769.97,-121.99 811.14,-108.2"/>
<polygon fill="#1414ce" stroke="#1414ce" points="812.36,-111.48 820.73,-104.99 810.14,-104.85 812.36,-111.48"/>
</a>
</g>
</g>
<!-- 30 -->
<g id="node10" class="node">
<title>30</title>
<g id="a_node10"><a xlink:title="jit.h">
<polygon fill="#ffffff" stroke="black" points="1450.5,-612 1396.5,-612 1396.5,-576 1450.5,-576 1450.5,-612"/>
<text text-anchor="middle" x="1423.5" y="-590.3" font-family="Times,serif" font-size="14.00">jit.h</text>
</a>
</g>
</g>
<!-- 30&#45;&gt;8 -->
<g id="edge20" class="edge">
<title>30&#45;&gt;8</title>
<g id="a_edge20"><a xlink:title="include">
<path fill="none" stroke="#1414ce" d="M1396.29,-589.9C1301.95,-578.62 990.97,-536.77 922.5,-468 873.38,-418.66 864.47,-196.34 862.86,-118.24"/>
<polygon fill="#1414ce" stroke="#1414ce" points="866.36,-118.14 862.67,-108.2 859.36,-118.27 866.36,-118.14"/>
</a>
</g>
</g>
<!-- 21 -->
<g id="node16" class="node">
<title>21</title>
<g id="a_node16"><a xlink:title="term.h">
<polygon fill="#ffffff" stroke="black" points="1428,-468 1363,-468 1363,-432 1428,-432 1428,-468"/>
<text text-anchor="middle" x="1395.5" y="-446.3" font-family="Times,serif" font-size="14.00">term.h</text>
</a>
</g>
</g>
<!-- 30&#45;&gt;21 -->
<g id="edge18" class="edge">
<title>30&#45;&gt;21</title>
<g id="a_edge18"><a xlink:title="include">
<path fill="none" stroke="#1414ce" d="M1420.12,-575.87C1415.33,-551.56 1406.51,-506.82 1400.83,-478.01"/>
<polygon fill="#1414ce" stroke="#1414ce" points="1404.26,-477.32 1398.89,-468.19 1397.39,-478.68 1404.26,-477.32"/>
</a>
</g>
</g>
<!-- 33 -->
<g id="node19" class="node">
<title>33</title>
<g id="a_node19"><a xlink:title="exportedfunction.h">
<polygon fill="#ffffff" stroke="black" points="1613.5,-540 1461.5,-540 1461.5,-504 1613.5,-504 1613.5,-540"/>
<text text-anchor="middle" x="1537.5" y="-518.3" font-family="Times,serif" font-size="14.00">exportedfunction.h</text>
</a>
</g>
</g>
<!-- 30&#45;&gt;33 -->
<g id="edge17" class="edge">
<title>30&#45;&gt;33</title>
<g id="a_edge17"><a xlink:title="include">
<path fill="none" stroke="#1414ce" d="M1450.52,-576.41C1465.52,-567.2 1484.39,-555.61 1500.72,-545.59"/>
<polygon fill="#1414ce" stroke="#1414ce" points="1502.8,-548.42 1509.49,-540.2 1499.13,-542.45 1502.8,-548.42"/>
</a>
</g>
</g>
<!-- 13 -->
<g id="node25" class="node">
<title>13</title>
<g id="a_node25"><a xlink:title="term_typedef.h">
<polygon fill="#ffffff" stroke="black" points="1874,-108 1749,-108 1749,-72 1874,-72 1874,-108"/>
<text text-anchor="middle" x="1811.5" y="-86.3" font-family="Times,serif" font-size="14.00">term_typedef.h</text>
</a>
</g>
</g>
<!-- 30&#45;&gt;13 -->
<g id="edge19" class="edge">
<title>30&#45;&gt;13</title>
<g id="a_edge19"><a xlink:title="include">
<path fill="none" stroke="#1414ce" d="M1450.79,-589.65C1550.25,-575.78 1887.5,-513.53 1887.5,-307 1887.5,-307 1887.5,-307 1887.5,-233 1887.5,-187.64 1856.98,-142.75 1834.62,-115.95"/>
<polygon fill="#1414ce" stroke="#1414ce" points="1837.16,-113.53 1827.99,-108.23 1831.86,-118.09 1837.16,-113.53"/>
</a>
</g>
</g>
<!-- 31 -->
<g id="node27" class="node">
<title>31</title>
<g id="a_node27"><a xlink:title="bitstring.h">
<polygon fill="#ffffff" stroke="black" points="1291.5,-540 1199.5,-540 1199.5,-504 1291.5,-504 1291.5,-540"/>
<text text-anchor="middle" x="1245.5" y="-518.3" font-family="Times,serif" font-size="14.00">bitstring.h</text>
</a>
</g>
</g>
<!-- 30&#45;&gt;31 -->
<g id="edge16" class="edge">
<title>30&#45;&gt;31</title>
<g id="a_edge16"><a xlink:title="include">
<path fill="none" stroke="#1414ce" d="M1396.47,-582.37C1370.44,-572.13 1330.38,-556.38 1298.07,-543.67"/>
<polygon fill="#1414ce" stroke="#1414ce" points="1299.34,-540.41 1288.75,-540.01 1296.77,-546.92 1299.34,-540.41"/>
</a>
</g>
</g>
<!-- 2 -->
<g id="node12" class="node">
<title>2</title>
<g id="a_node12"><a xlink:title="context.h">
<polygon fill="#ffffff" stroke="black" points="764,-684 681,-684 681,-648 764,-648 764,-684"/>
<text text-anchor="middle" x="722.5" y="-662.3" font-family="Times,serif" font-size="14.00">context.h</text>
</a>
</g>
</g>
<!-- 2&#45;&gt;18 -->
<g id="edge23" class="edge">
<title>2&#45;&gt;18</title>
<g id="a_edge23"><a xlink:title="include">
<path fill="none" stroke="#1414ce" d="M715.82,-647.81C706.18,-621.4 689.5,-569.06 689.5,-523 689.5,-523 689.5,-523 689.5,-377 689.5,-340.94 669.37,-239.12 659.21,-190.08"/>
<polygon fill="#1414ce" stroke="#1414ce" points="662.62,-189.25 657.15,-180.18 655.76,-190.68 662.62,-189.25"/>
</a>
</g>
</g>
<!-- 2&#45;&gt;30 -->
<g id="edge22" class="edge">
<title>2&#45;&gt;30</title>
<g id="a_edge22"><a xlink:title="include">
<path fill="none" stroke="#1414ce" d="M764.35,-664.96C868.21,-664.14 1145.7,-657.47 1371.5,-612 1376.37,-611.02 1381.41,-609.73 1386.36,-608.3"/>
<polygon fill="#1414ce" stroke="#1414ce" points="1387.78,-611.53 1396.3,-605.22 1385.71,-604.84 1387.78,-611.53"/>
</a>
</g>
</g>
<!-- 2&#45;&gt;21 -->
<g id="edge26" class="edge">
<title>2&#45;&gt;21</title>
<g id="a_edge26"><a xlink:title="include">
<path fill="none" stroke="#1414ce" d="M764.09,-660.54C885.72,-646.89 1238.19,-602.72 1333.5,-540 1356.72,-524.72 1373.78,-497.47 1384.06,-477.13"/>
<polygon fill="#1414ce" stroke="#1414ce" points="1387.24,-478.59 1388.43,-468.06 1380.93,-475.55 1387.24,-478.59"/>
</a>
</g>
</g>
<!-- 2&#45;&gt;3 -->
<g id="edge21" class="edge">
<title>2&#45;&gt;3</title>
<g id="a_edge21"><a xlink:title="include">
<path fill="none" stroke="#1414ce" d="M691.68,-647.88C675.05,-638.64 654.34,-627.13 636.48,-617.21"/>
<polygon fill="#1414ce" stroke="#1414ce" points="637.88,-613.99 627.44,-612.19 634.48,-620.11 637.88,-613.99"/>
</a>
</g>
</g>
<!-- 2&#45;&gt;20 -->
<g id="edge25" class="edge">
<title>2&#45;&gt;20</title>
<g id="a_edge25"><a xlink:title="include">
<path fill="none" stroke="#1414ce" d="M680.95,-656.46C666.02,-653.56 649.04,-650.43 633.5,-648 527.15,-631.37 165.5,-630.65 165.5,-523 165.5,-523 165.5,-523 165.5,-377 165.5,-279.8 225.62,-257.53 313.5,-216 321.99,-211.99 437.57,-185.92 500.43,-171.9"/>
<polygon fill="#1414ce" stroke="#1414ce" points="501.41,-175.26 510.41,-169.67 499.89,-168.43 501.41,-175.26"/>
</a>
</g>
</g>
<!-- 28 -->
<g id="node30" class="node">
<title>28</title>
<g id="a_node30"><a xlink:title="timer_list.h">
<polygon fill="#ffffff" stroke="black" points="443.5,-252 345.5,-252 345.5,-216 443.5,-216 443.5,-252"/>
<text text-anchor="middle" x="394.5" y="-230.3" font-family="Times,serif" font-size="14.00">timer_list.h</text>
</a>
</g>
</g>
<!-- 2&#45;&gt;28 -->
<g id="edge27" class="edge">
<title>2&#45;&gt;28</title>
<g id="a_edge27"><a xlink:title="include">
<path fill="none" stroke="#1414ce" d="M680.84,-656.54C577.14,-635.17 309.91,-577.98 227.5,-540 215.63,-534.53 203.5,-536.07 203.5,-523 203.5,-523 203.5,-523 203.5,-377 203.5,-310.21 279.65,-271.15 335.79,-251.43"/>
<polygon fill="#1414ce" stroke="#1414ce" points="336.97,-254.73 345.31,-248.2 334.72,-248.1 336.97,-254.73"/>
</a>
</g>
</g>
<!-- 27 -->
<g id="node31" class="node">
<title>27</title>
<g id="a_node31"><a xlink:title="mailbox.h">
<polygon fill="#ffffff" stroke="black" points="841.5,-252 755.5,-252 755.5,-216 841.5,-216 841.5,-252"/>
<text text-anchor="middle" x="798.5" y="-230.3" font-family="Times,serif" font-size="14.00">mailbox.h</text>
</a>
</g>
</g>
<!-- 2&#45;&gt;27 -->
<g id="edge24" class="edge">
<title>2&#45;&gt;27</title>
<g id="a_edge24"><a xlink:title="include">
<path fill="none" stroke="#1414ce" d="M725.53,-647.88C737.2,-581.8 779.4,-343.08 793.71,-262.1"/>
<polygon fill="#1414ce" stroke="#1414ce" points="797.17,-262.63 795.47,-252.17 790.28,-261.41 797.17,-262.63"/>
</a>
</g>
</g>
<!-- 24 -->
<g id="node13" class="node">
<title>24</title>
<g id="a_node13"><a xlink:title="memory.h">
<polygon fill="#ffffff" stroke="black" points="1678.5,-252 1592.5,-252 1592.5,-216 1678.5,-216 1678.5,-252"/>
<text text-anchor="middle" x="1635.5" y="-230.3" font-family="Times,serif" font-size="14.00">memory.h</text>
</a>
</g>
</g>
<!-- 24&#45;&gt;9 -->
<g id="edge32" class="edge">
<title>24&#45;&gt;9</title>
<g id="a_edge32"><a xlink:title="include">
<path fill="none" stroke="#1414ce" d="M1592.42,-223.49C1531.13,-209.95 1419.55,-185.31 1359.45,-172.04"/>
<polygon fill="#1414ce" stroke="#1414ce" points="1360.08,-168.6 1349.56,-169.86 1358.57,-175.43 1360.08,-168.6"/>
</a>
</g>
</g>
<!-- 24&#45;&gt;4 -->
<g id="edge28" class="edge">
<title>24&#45;&gt;4</title>
<g id="a_edge28"><a xlink:title="include">
<path fill="none" stroke="#1414ce" d="M1627.62,-215.92C1618.09,-196.66 1600.56,-165.27 1578.5,-144 1533.18,-100.3 1515.25,-94.64 1456.5,-72 1385.3,-44.56 1297.3,-30.37 1244.65,-23.82"/>
<polygon fill="#1414ce" stroke="#1414ce" points="1244.95,-20.33 1234.61,-22.61 1244.12,-27.28 1244.95,-20.33"/>
</a>
</g>
</g>
<!-- 24&#45;&gt;6 -->
<g id="edge29" class="edge">
<title>24&#45;&gt;6</title>
<g id="a_edge29"><a xlink:title="include">
<path fill="none" stroke="#1414ce" d="M1621.46,-215.88C1604.66,-196.29 1574.82,-164.31 1543.5,-144 1516.77,-126.66 1483.45,-113.34 1456.98,-104.39"/>
<polygon fill="#1414ce" stroke="#1414ce" points="1457.79,-100.97 1447.2,-101.17 1455.61,-107.62 1457.79,-100.97"/>
</a>
</g>
</g>
<!-- 12 -->
<g id="node18" class="node">
<title>12</title>
<g id="a_node18"><a xlink:title="erl_nif.h">
<polygon fill="#ffffff" stroke="black" points="1707.5,-180 1633.5,-180 1633.5,-144 1707.5,-144 1707.5,-180"/>
<text text-anchor="middle" x="1670.5" y="-158.3" font-family="Times,serif" font-size="14.00">erl_nif.h</text>
</a>
</g>
</g>
<!-- 24&#45;&gt;12 -->
<g id="edge30" class="edge">
<title>24&#45;&gt;12</title>
<g id="a_edge30"><a xlink:title="include">
<path fill="none" stroke="#1414ce" d="M1644.15,-215.7C1648.14,-207.73 1652.95,-198.1 1657.37,-189.26"/>
<polygon fill="#1414ce" stroke="#1414ce" points="1660.61,-190.61 1661.95,-180.1 1654.35,-187.48 1660.61,-190.61"/>
</a>
</g>
</g>
<!-- 24&#45;&gt;13 -->
<g id="edge31" class="edge">
<title>24&#45;&gt;13</title>
<g id="a_edge31"><a xlink:title="include">
<path fill="none" stroke="#1414ce" d="M1664.45,-215.77C1680.28,-205.92 1699.98,-192.98 1716.5,-180 1742.15,-159.84 1769.09,-134.11 1787.7,-115.51"/>
<polygon fill="#1414ce" stroke="#1414ce" points="1790.58,-117.57 1795.14,-108.01 1785.61,-112.64 1790.58,-117.57"/>
</a>
</g>
</g>
<!-- 29 -->
<g id="node14" class="node">
<title>29</title>
<g id="a_node14"><a xlink:title="valueshashtable.h">
<polygon fill="#ffffff" stroke="black" points="454.5,-180 308.5,-180 308.5,-144 454.5,-144 454.5,-180"/>
<text text-anchor="middle" x="381.5" y="-158.3" font-family="Times,serif" font-size="14.00">valueshashtable.h</text>
</a>
</g>
</g>
<!-- 29&#45;&gt;4 -->
<g id="edge34" class="edge">
<title>29&#45;&gt;4</title>
<g id="a_edge34"><a xlink:title="include">
<path fill="none" stroke="#1414ce" d="M392.31,-143.96C406.78,-122.85 434.59,-87.74 468.5,-72 530.26,-43.33 1000.41,-25.51 1151.73,-20.48"/>
<polygon fill="#1414ce" stroke="#1414ce" points="1152.19,-23.96 1162.07,-20.13 1151.96,-16.97 1152.19,-23.96"/>
</a>
</g>
</g>
<!-- 29&#45;&gt;10 -->
<g id="edge33" class="edge">
<title>29&#45;&gt;10</title>
<g id="a_edge33"><a xlink:title="include">
<path fill="none" stroke="#1414ce" d="M454.71,-149.95C470.14,-147.81 486.34,-145.71 501.5,-144 614.62,-131.24 958.01,-104.36 1084.27,-94.62"/>
<polygon fill="#1414ce" stroke="#1414ce" points="1084.69,-98.1 1094.39,-93.84 1084.15,-91.12 1084.69,-98.1"/>
</a>
</g>
</g>
<!-- 26&#45;&gt;19 -->
<g id="edge40" class="edge">
<title>26&#45;&gt;19</title>
<g id="a_edge40"><a xlink:title="include">
<path fill="none" stroke="#1414ce" d="M1053.22,-298.73C947.44,-285.53 702.8,-255 595.06,-241.56"/>
<polygon fill="#1414ce" stroke="#1414ce" points="595.42,-238.08 585.07,-240.31 594.56,-245.02 595.42,-238.08"/>
</a>
</g>
</g>
<!-- 26&#45;&gt;18 -->
<g id="edge37" class="edge">
<title>26&#45;&gt;18</title>
<g id="a_edge37"><a xlink:title="include">
<path fill="none" stroke="#1414ce" d="M1053.19,-301.31C968.03,-294.43 799.54,-277.97 746.5,-252 738.27,-247.97 702.4,-212.56 677.7,-187.65"/>
<polygon fill="#1414ce" stroke="#1414ce" points="679.95,-184.95 670.43,-180.3 674.97,-189.87 679.95,-184.95"/>
</a>
</g>
</g>
<!-- 26&#45;&gt;6 -->
<g id="edge35" class="edge">
<title>26&#45;&gt;6</title>
<g id="a_edge35"><a xlink:title="include">
<path fill="none" stroke="#1414ce" d="M1127.6,-287.93C1155.79,-268.53 1204.37,-236.87 1249.5,-216 1295.81,-194.58 1318.71,-211.93 1358.5,-180 1378.78,-163.73 1393.05,-137.45 1401.64,-117.66"/>
<polygon fill="#1414ce" stroke="#1414ce" points="1404.94,-118.84 1405.51,-108.26 1398.47,-116.17 1404.94,-118.84"/>
</a>
</g>
</g>
<!-- 26&#45;&gt;24 -->
<g id="edge39" class="edge">
<title>26&#45;&gt;24</title>
<g id="a_edge39"><a xlink:title="include">
<path fill="none" stroke="#1414ce" d="M1153.55,-298.41C1253.95,-285.2 1479.13,-255.57 1582.18,-242.02"/>
<polygon fill="#1414ce" stroke="#1414ce" points="1582.9,-245.45 1592.36,-240.68 1581.98,-238.51 1582.9,-245.45"/>
</a>
</g>
</g>
<!-- 26&#45;&gt;12 -->
<g id="edge36" class="edge">
<title>26&#45;&gt;12</title>
<g id="a_edge36"><a xlink:title="include">
<path fill="none" stroke="#1414ce" d="M1153.82,-292.4C1262.52,-265.18 1517.96,-201.2 1623.55,-174.76"/>
<polygon fill="#1414ce" stroke="#1414ce" points="1624.44,-178.14 1633.29,-172.32 1622.74,-171.35 1624.44,-178.14"/>
</a>
</g>
</g>
<!-- 26&#45;&gt;27 -->
<g id="edge38" class="edge">
<title>26&#45;&gt;27</title>
<g id="a_edge38"><a xlink:title="include">
<path fill="none" stroke="#1414ce" d="M1053.48,-293.52C997.84,-280.75 908.32,-260.21 851.51,-247.17"/>
<polygon fill="#1414ce" stroke="#1414ce" points="852.17,-243.73 841.64,-244.9 850.6,-250.55 852.17,-243.73"/>
</a>
</g>
</g>
<!-- 21&#45;&gt;8 -->
<g id="edge42" class="edge">
<title>21&#45;&gt;8</title>
<g id="a_edge42"><a xlink:title="include">
<path fill="none" stroke="#1414ce" d="M1362.87,-447.71C1285.36,-444.08 1092.76,-431.63 1040.5,-396 933.74,-323.21 961.88,-254.86 895.5,-144 890.13,-135.03 884.12,-125.29 878.71,-116.64"/>
<polygon fill="#1414ce" stroke="#1414ce" points="881.63,-114.7 873.35,-108.09 875.7,-118.42 881.63,-114.7"/>
</a>
</g>
</g>
<!-- 21&#45;&gt;25 -->
<g id="edge49" class="edge">
<title>21&#45;&gt;25</title>
<g id="a_edge49"><a xlink:title="include">
<path fill="none" stroke="#1414ce" d="M1362.85,-441.17C1315.77,-429.89 1227.84,-408.81 1167.53,-394.35"/>
<polygon fill="#1414ce" stroke="#1414ce" points="1168.26,-390.93 1157.72,-392 1166.63,-397.73 1168.26,-390.93"/>
</a>
</g>
</g>
<!-- 21&#45;&gt;5 -->
<g id="edge47" class="edge">
<title>21&#45;&gt;5</title>
<g id="a_edge47"><a xlink:title="include">
<path fill="none" stroke="#1414ce" d="M1366.89,-431.84C1352.92,-422.48 1336.57,-409.97 1324.5,-396 1267.89,-330.49 1226.4,-235.32 1208.41,-189.55"/>
<polygon fill="#1414ce" stroke="#1414ce" points="1211.6,-188.11 1204.73,-180.04 1205.07,-190.63 1211.6,-188.11"/>
</a>
</g>
</g>
<!-- 21&#45;&gt;9 -->
<g id="edge50" class="edge">
<title>21&#45;&gt;9</title>
<g id="a_edge50"><a xlink:title="include">
<path fill="none" stroke="#1414ce" d="M1394.77,-431.98C1392.59,-392.59 1384.22,-292.69 1353.5,-216 1349.67,-206.43 1343.96,-196.78 1338.27,-188.38"/>
<polygon fill="#1414ce" stroke="#1414ce" points="1341.06,-186.27 1332.41,-180.14 1335.35,-190.32 1341.06,-186.27"/>
</a>
</g>
</g>
<!-- 21&#45;&gt;4 -->
<g id="edge43" class="edge">
<title>21&#45;&gt;4</title>
<g id="a_edge43"><a xlink:title="include">
<path fill="none" stroke="#1414ce" d="M1387.66,-431.88C1357.32,-365.67 1247.57,-126.11 1210.69,-45.6"/>
<polygon fill="#1414ce" stroke="#1414ce" points="1213.71,-43.8 1206.37,-36.17 1207.35,-46.72 1213.71,-43.8"/>
</a>
</g>
</g>
<!-- 21&#45;&gt;6 -->
<g id="edge45" class="edge">
<title>21&#45;&gt;6</title>
<g id="a_edge45"><a xlink:title="include">
<path fill="none" stroke="#1414ce" d="M1408.14,-431.55C1414.93,-421.54 1423.01,-408.5 1428.5,-396 1455.17,-335.29 1458.97,-317.75 1467.5,-252 1473.68,-204.4 1486.48,-188.09 1467.5,-144 1462.71,-132.87 1454.31,-122.99 1445.45,-114.86"/>
<polygon fill="#1414ce" stroke="#1414ce" points="1447.5,-112.01 1437.62,-108.18 1442.96,-117.34 1447.5,-112.01"/>
</a>
</g>
</g>
<!-- 21&#45;&gt;24 -->
<g id="edge48" class="edge">
<title>21&#45;&gt;24</title>
<g id="a_edge48"><a xlink:title="include">
<path fill="none" stroke="#1414ce" d="M1428.14,-447.91C1495.65,-444.9 1646.97,-433.98 1678.5,-396 1711.07,-356.77 1678.41,-295.24 1654.9,-260.72"/>
<polygon fill="#1414ce" stroke="#1414ce" points="1657.49,-258.31 1648.87,-252.14 1651.76,-262.34 1657.49,-258.31"/>
</a>
</g>
</g>
<!-- 22 -->
<g id="node23" class="node">
<title>22</title>
<g id="a_node23"><a xlink:title="sys/types.h">
<polygon fill="#ffffff" stroke="black" points="1578,-396 1481,-396 1481,-360 1578,-360 1578,-396"/>
<text text-anchor="middle" x="1529.5" y="-374.3" font-family="Times,serif" font-size="14.00">sys/types.h</text>
</a>
</g>
</g>
<!-- 21&#45;&gt;22 -->
<g id="edge41" class="edge">
<title>21&#45;&gt;22</title>
<g id="a_edge41"><a xlink:title="include">
<path fill="none" stroke="#1414ce" d="M1428.28,-431.88C1446.13,-422.55 1468.4,-410.92 1487.5,-400.94"/>
<polygon fill="#1414ce" stroke="#1414ce" points="1489.35,-403.92 1496.59,-396.19 1486.11,-397.72 1489.35,-403.92"/>
</a>
</g>
</g>
<!-- 23 -->
<g id="node24" class="node">
<title>23</title>
<g id="a_node24"><a xlink:title="string.h">
<polygon fill="#ffffff" stroke="black" points="1669,-396 1596,-396 1596,-360 1669,-360 1669,-396"/>
<text text-anchor="middle" x="1632.5" y="-374.3" font-family="Times,serif" font-size="14.00">string.h</text>
</a>
</g>
</g>
<!-- 21&#45;&gt;23 -->
<g id="edge46" class="edge">
<title>21&#45;&gt;23</title>
<g id="a_edge46"><a xlink:title="include">
<path fill="none" stroke="#1414ce" d="M1428.04,-440.99C1464.5,-431.8 1525.51,-415.8 1586.05,-396.35"/>
<polygon fill="#1414ce" stroke="#1414ce" points="1587.33,-399.61 1595.76,-393.19 1585.17,-392.95 1587.33,-399.61"/>
</a>
</g>
</g>
<!-- 21&#45;&gt;13 -->
<g id="edge51" class="edge">
<title>21&#45;&gt;13</title>
<g id="a_edge51"><a xlink:title="include">
<path fill="none" stroke="#1414ce" d="M1428.07,-447.33C1497.63,-443.14 1657.73,-429.97 1698.5,-396 1785.09,-323.87 1805.35,-178.83 1810.07,-118.4"/>
<polygon fill="#1414ce" stroke="#1414ce" points="1813.58,-118.36 1810.78,-108.14 1806.6,-117.88 1813.58,-118.36"/>
</a>
</g>
</g>
<!-- 21&#45;&gt;11 -->
<g id="edge44" class="edge">
<title>21&#45;&gt;11</title>
<g id="a_edge44"><a xlink:title="include">
<path fill="none" stroke="#1414ce" d="M1397.53,-431.84C1398.65,-421.48 1399.94,-408 1400.5,-396 1401.25,-380.02 1401.38,-375.98 1400.5,-360 1395.09,-262.35 1399,-233.02 1358.5,-144 1354.07,-134.26 1347.73,-124.49 1341.5,-116.04"/>
<polygon fill="#1414ce" stroke="#1414ce" points="1344.25,-113.87 1335.38,-108.08 1338.7,-118.14 1344.25,-113.87"/>
</a>
</g>
</g>
<!-- 12&#45;&gt;13 -->
<g id="edge52" class="edge">
<title>12&#45;&gt;13</title>
<g id="a_edge52"><a xlink:title="include">
<path fill="none" stroke="#1414ce" d="M1704.99,-143.88C1723.94,-134.47 1747.63,-122.71 1767.86,-112.67"/>
<polygon fill="#1414ce" stroke="#1414ce" points="1769.47,-115.77 1776.87,-108.19 1766.36,-109.5 1769.47,-115.77"/>
</a>
</g>
</g>
<!-- 33&#45;&gt;21 -->
<g id="edge53" class="edge">
<title>33&#45;&gt;21</title>
<g id="a_edge53"><a xlink:title="include">
<path fill="none" stroke="#1414ce" d="M1502.76,-503.88C1483.11,-494.19 1458.39,-482 1437.64,-471.77"/>
<polygon fill="#1414ce" stroke="#1414ce" points="1438.93,-468.51 1428.42,-467.23 1435.84,-474.79 1438.93,-468.51"/>
</a>
</g>
</g>
<!-- 15 -->
<g id="node21" class="node">
<title>15</title>
<g id="a_node21"><a xlink:title="limits.h">
<polygon fill="#ffffff" stroke="black" points="1749,-36 1678,-36 1678,0 1749,0 1749,-36"/>
<text text-anchor="middle" x="1713.5" y="-14.3" font-family="Times,serif" font-size="14.00">limits.h</text>
</a>
</g>
</g>
<!-- 7 -->
<g id="node22" class="node">
<title>7</title>
<g id="a_node22"><a xlink:title="atom_table.h">
<polygon fill="#ffffff" stroke="black" points="1159,-252 1050,-252 1050,-216 1159,-216 1159,-252"/>
<text text-anchor="middle" x="1104.5" y="-230.3" font-family="Times,serif" font-size="14.00">atom_table.h</text>
</a>
</g>
</g>
<!-- 7&#45;&gt;8 -->
<g id="edge54" class="edge">
<title>7&#45;&gt;8</title>
<g id="a_edge54"><a xlink:title="include">
<path fill="none" stroke="#1414ce" d="M1072.47,-215.84C1054.91,-206.01 1033.02,-193.07 1014.5,-180 994.14,-165.63 992.42,-157.55 971.5,-144 953.06,-132.06 931.53,-121.04 912.5,-112.18"/>
<polygon fill="#1414ce" stroke="#1414ce" points="913.93,-108.98 903.38,-108.01 911.02,-115.35 913.93,-108.98"/>
</a>
</g>
</g>
<!-- 7&#45;&gt;5 -->
<g id="edge55" class="edge">
<title>7&#45;&gt;5</title>
<g id="a_edge55"><a xlink:title="include">
<path fill="none" stroke="#1414ce" d="M1127.74,-215.7C1139.69,-206.8 1154.42,-195.82 1167.35,-186.2"/>
<polygon fill="#1414ce" stroke="#1414ce" points="1169.6,-188.88 1175.53,-180.1 1165.42,-183.27 1169.6,-188.88"/>
</a>
</g>
</g>
<!-- 7&#45;&gt;9 -->
<g id="edge56" class="edge">
<title>7&#45;&gt;9</title>
<g id="a_edge56"><a xlink:title="include">
<path fill="none" stroke="#1414ce" d="M1156.58,-215.97C1193.85,-203.77 1243.32,-187.59 1277.73,-176.34"/>
<polygon fill="#1414ce" stroke="#1414ce" points="1279.04,-179.59 1287.45,-173.16 1276.86,-172.94 1279.04,-179.59"/>
</a>
</g>
</g>
<!-- 13&#45;&gt;14 -->
<g id="edge57" class="edge">
<title>13&#45;&gt;14</title>
<g id="a_edge57"><a xlink:title="include">
<path fill="none" stroke="#1414ce" d="M1835.96,-71.88C1848.8,-62.89 1864.7,-51.76 1878.59,-42.03"/>
<polygon fill="#1414ce" stroke="#1414ce" points="1880.76,-44.79 1886.94,-36.19 1876.74,-39.06 1880.76,-44.79"/>
</a>
</g>
</g>
<!-- 13&#45;&gt;4 -->
<g id="edge60" class="edge">
<title>13&#45;&gt;4</title>
<g id="a_edge60"><a xlink:title="include">
<path fill="none" stroke="#1414ce" d="M1748.58,-74.47C1743.83,-73.57 1739.1,-72.73 1734.5,-72 1554.66,-43.36 1338.26,-27.62 1244.99,-21.73"/>
<polygon fill="#1414ce" stroke="#1414ce" points="1244.96,-18.22 1234.76,-21.09 1244.53,-25.21 1244.96,-18.22"/>
</a>
</g>
</g>
<!-- 13&#45;&gt;15 -->
<g id="edge58" class="edge">
<title>13&#45;&gt;15</title>
<g id="a_edge58"><a xlink:title="include">
<path fill="none" stroke="#1414ce" d="M1787.53,-71.88C1774.95,-62.89 1759.37,-51.76 1745.75,-42.03"/>
<polygon fill="#1414ce" stroke="#1414ce" points="1747.74,-39.15 1737.57,-36.19 1743.67,-44.85 1747.74,-39.15"/>
</a>
</g>
</g>
<!-- 16 -->
<g id="node35" class="node">
<title>16</title>
<g id="a_node35"><a xlink:title="inttypes.h">
<polygon fill="#ffffff" stroke="black" points="1856,-36 1767,-36 1767,0 1856,0 1856,-36"/>
<text text-anchor="middle" x="1811.5" y="-14.3" font-family="Times,serif" font-size="14.00">inttypes.h</text>
</a>
</g>
</g>
<!-- 13&#45;&gt;16 -->
<g id="edge59" class="edge">
<title>13&#45;&gt;16</title>
<g id="a_edge59"><a xlink:title="include">
<path fill="none" stroke="#1414ce" d="M1811.5,-71.7C1811.5,-63.98 1811.5,-54.71 1811.5,-46.11"/>
<polygon fill="#1414ce" stroke="#1414ce" points="1815,-46.1 1811.5,-36.1 1808,-46.1 1815,-46.1"/>
</a>
</g>
</g>
<!-- 3&#45;&gt;5 -->
<g id="edge62" class="edge">
<title>3&#45;&gt;5</title>
<g id="a_edge62"><a xlink:title="include">
<path fill="none" stroke="#1414ce" d="M660.13,-579.75C794.57,-550.43 1100.61,-476.28 1166.5,-396 1215.41,-336.41 1209.58,-237.99 1203.15,-190.42"/>
<polygon fill="#1414ce" stroke="#1414ce" points="1206.58,-189.66 1201.67,-180.27 1199.65,-190.68 1206.58,-189.66"/>
</a>
</g>
</g>
<!-- 3&#45;&gt;19 -->
<g id="edge69" class="edge">
<title>3&#45;&gt;19</title>
<g id="a_edge69"><a xlink:title="include">
<path fill="none" stroke="#1414ce" d="M582.55,-575.76C575.09,-565.81 566.28,-552.77 560.5,-540 543.66,-502.78 537.5,-491.86 537.5,-451 537.5,-451 537.5,-451 537.5,-377 537.5,-336.97 539.51,-290.63 540.98,-262.07"/>
<polygon fill="#1414ce" stroke="#1414ce" points="544.48,-262.21 541.51,-252.04 537.49,-261.84 544.48,-262.21"/>
</a>
</g>
</g>
<!-- 3&#45;&gt;18 -->
<g id="edge66" class="edge">
<title>3&#45;&gt;18</title>
<g id="a_edge66"><a xlink:title="include">
<path fill="none" stroke="#1414ce" d="M565.6,-575.82C528.59,-552.69 471.5,-507.82 471.5,-451 471.5,-451 471.5,-451 471.5,-305 471.5,-264.55 463.02,-245.67 490.5,-216 528.92,-174.52 559.2,-198.85 612.5,-180 613.91,-179.5 615.34,-178.98 616.78,-178.45"/>
<polygon fill="#1414ce" stroke="#1414ce" points="618.25,-181.63 626.31,-174.75 615.72,-175.1 618.25,-181.63"/>
</a>
</g>
</g>
<!-- 3&#45;&gt;4 -->
<g id="edge61" class="edge">
<title>3&#45;&gt;4</title>
<g id="a_edge61"><a xlink:title="include">
<path fill="none" stroke="#1414ce" d="M532.98,-588.26C455.57,-581.41 330.39,-566.57 292.5,-540 255.17,-513.83 241.5,-496.59 241.5,-451 241.5,-451 241.5,-451 241.5,-377 241.5,-270.28 236.01,-229.78 299.5,-144 336.5,-94.01 360.16,-90.63 419.5,-72 557.35,-28.73 1005.75,-20.77 1151.95,-19.32"/>
<polygon fill="#1414ce" stroke="#1414ce" points="1152.38,-22.82 1162.35,-19.22 1152.31,-15.82 1152.38,-22.82"/>
</a>
</g>
</g>
<!-- 3&#45;&gt;29 -->
<g id="edge72" class="edge">
<title>3&#45;&gt;29</title>
<g id="a_edge72"><a xlink:title="include">
<path fill="none" stroke="#1414ce" d="M532.73,-591.8C440.16,-586.29 279.5,-560.9 279.5,-451 279.5,-451 279.5,-451 279.5,-377 279.5,-303.87 274.75,-278.02 313.5,-216 320.83,-204.27 331.73,-194.1 342.67,-185.89"/>
<polygon fill="#1414ce" stroke="#1414ce" points="344.85,-188.64 350.99,-180 340.8,-182.93 344.85,-188.64"/>
</a>
</g>
</g>
<!-- 3&#45;&gt;21 -->
<g id="edge70" class="edge">
<title>3&#45;&gt;21</title>
<g id="a_edge70"><a xlink:title="include">
<path fill="none" stroke="#1414ce" d="M660.16,-593.56C811.13,-594.04 1186.67,-590.01 1300.5,-540 1309.02,-536.26 1345.92,-500.48 1371.14,-475.44"/>
<polygon fill="#1414ce" stroke="#1414ce" points="1373.61,-477.92 1378.23,-468.38 1368.67,-472.96 1373.61,-477.92"/>
</a>
</g>
</g>
<!-- 3&#45;&gt;12 -->
<g id="edge64" class="edge">
<title>3&#45;&gt;12</title>
<g id="a_edge64"><a xlink:title="include">
<path fill="none" stroke="#1414ce" d="M660.15,-590.9C814.63,-585.41 1206.07,-569 1333.5,-540 1376.01,-530.32 1673.97,-432.04 1698.5,-396 1741.94,-332.16 1705.72,-235.15 1683.97,-189.06"/>
<polygon fill="#1414ce" stroke="#1414ce" points="1687.1,-187.5 1679.59,-180.03 1680.81,-190.56 1687.1,-187.5"/>
</a>
</g>
</g>
<!-- 3&#45;&gt;7 -->
<g id="edge63" class="edge">
<title>3&#45;&gt;7</title>
<g id="a_edge63"><a xlink:title="include">
<path fill="none" stroke="#1414ce" d="M615.62,-575.97C626.87,-565.76 641.25,-552.4 653.5,-540 699.05,-493.89 700.75,-472.32 751.5,-432 850.23,-353.55 984.27,-288.17 1055.41,-256.17"/>
<polygon fill="#1414ce" stroke="#1414ce" points="1056.9,-259.34 1064.61,-252.06 1054.05,-252.94 1056.9,-259.34"/>
</a>
</g>
</g>
<!-- 3&#45;&gt;20 -->
<g id="edge68" class="edge">
<title>3&#45;&gt;20</title>
<g id="a_edge68"><a xlink:title="include">
<path fill="none" stroke="#1414ce" d="M532.84,-588.22C450.5,-578.17 317.5,-547.06 317.5,-451 317.5,-451 317.5,-451 317.5,-305 317.5,-264.55 308.53,-245.22 336.5,-216 342.24,-210 442.49,-185.84 500.28,-172.31"/>
<polygon fill="#1414ce" stroke="#1414ce" points="501.25,-175.67 510.2,-169.99 499.66,-168.86 501.25,-175.67"/>
</a>
</g>
</g>
<!-- 3&#45;&gt;28 -->
<g id="edge71" class="edge">
<title>3&#45;&gt;28</title>
<g id="a_edge71"><a xlink:title="include">
<path fill="none" stroke="#1414ce" d="M532.86,-579.69C507.04,-571.7 478.43,-559.21 457.5,-540 425.13,-510.3 414.5,-494.93 414.5,-451 414.5,-451 414.5,-451 414.5,-377 414.5,-336.82 406.55,-290.87 400.68,-262.39"/>
<polygon fill="#1414ce" stroke="#1414ce" points="404.05,-261.43 398.55,-252.38 397.2,-262.89 404.05,-261.43"/>
</a>
</g>
</g>
<!-- 3&#45;&gt;27 -->
<g id="edge67" class="edge">
<title>3&#45;&gt;27</title>
<g id="a_edge67"><a xlink:title="include">
<path fill="none" stroke="#1414ce" d="M610.66,-575.85C618.19,-565.93 627,-552.89 632.5,-540 648.38,-502.8 651.5,-491.45 651.5,-451 651.5,-451 651.5,-451 651.5,-377 651.5,-320.85 707.67,-279.86 750.57,-256.74"/>
<polygon fill="#1414ce" stroke="#1414ce" points="752.25,-259.81 759.49,-252.08 749.01,-253.61 752.25,-259.81"/>
</a>
</g>
</g>
<!-- 17 -->
<g id="node34" class="node">
<title>17</title>
<g id="a_node34"><a xlink:title="ets.h">
<polygon fill="#ffffff" stroke="black" points="623.5,-540 569.5,-540 569.5,-504 623.5,-504 623.5,-540"/>
<text text-anchor="middle" x="596.5" y="-518.3" font-family="Times,serif" font-size="14.00">ets.h</text>
</a>
</g>
</g>
<!-- 3&#45;&gt;17 -->
<g id="edge65" class="edge">
<title>3&#45;&gt;17</title>
<g id="a_edge65"><a xlink:title="include">
<path fill="none" stroke="#1414ce" d="M596.5,-575.7C596.5,-567.98 596.5,-558.71 596.5,-550.11"/>
<polygon fill="#1414ce" stroke="#1414ce" points="600,-550.1 596.5,-540.1 593,-550.1 600,-550.1"/>
</a>
</g>
</g>
<!-- 31&#45;&gt;8 -->
<g id="edge75" class="edge">
<title>31&#45;&gt;8</title>
<g id="a_edge75"><a xlink:title="include">
<path fill="none" stroke="#1414ce" d="M1199.21,-521.82C1106.64,-520.8 907.5,-504.07 907.5,-379 907.5,-379 907.5,-379 907.5,-305 907.5,-236.37 885.06,-157.96 871.88,-117.8"/>
<polygon fill="#1414ce" stroke="#1414ce" points="875.16,-116.59 868.66,-108.22 868.52,-118.81 875.16,-116.59"/>
</a>
</g>
</g>
<!-- 31&#45;&gt;4 -->
<g id="edge76" class="edge">
<title>31&#45;&gt;4</title>
<g id="a_edge76"><a xlink:title="include">
<path fill="none" stroke="#1414ce" d="M1291.85,-514.78C1396.29,-499.79 1645.08,-458.21 1698.5,-396 1771.65,-310.81 1781.63,-235.47 1716.5,-144 1661.42,-66.64 1361.53,-32.97 1244.92,-22.66"/>
<polygon fill="#1414ce" stroke="#1414ce" points="1245.14,-19.17 1234.87,-21.79 1244.53,-26.14 1245.14,-19.17"/>
</a>
</g>
</g>
<!-- 31&#45;&gt;21 -->
<g id="edge73" class="edge">
<title>31&#45;&gt;21</title>
<g id="a_edge73"><a xlink:title="include">
<path fill="none" stroke="#1414ce" d="M1282.19,-503.88C1303.75,-493.82 1331.07,-481.07 1353.48,-470.61"/>
<polygon fill="#1414ce" stroke="#1414ce" points="1355.18,-473.68 1362.76,-466.28 1352.22,-467.34 1355.18,-473.68"/>
</a>
</g>
</g>
<!-- 32 -->
<g id="node29" class="node">
<title>32</title>
<g id="a_node29"><a xlink:title="unicode.h">
<polygon fill="#ffffff" stroke="black" points="1109.5,-180 1023.5,-180 1023.5,-144 1109.5,-144 1109.5,-180"/>
<text text-anchor="middle" x="1066.5" y="-158.3" font-family="Times,serif" font-size="14.00">unicode.h</text>
</a>
</g>
</g>
<!-- 31&#45;&gt;32 -->
<g id="edge74" class="edge">
<title>31&#45;&gt;32</title>
<g id="a_edge74"><a xlink:title="include">
<path fill="none" stroke="#1414ce" d="M1199.26,-516.78C1124.05,-507.09 983.5,-476.01 983.5,-379 983.5,-379 983.5,-379 983.5,-305 983.5,-258.74 1016.74,-214.16 1041.15,-187.66"/>
<polygon fill="#1414ce" stroke="#1414ce" points="1043.74,-190.02 1048.08,-180.36 1038.66,-185.2 1043.74,-190.02"/>
</a>
</g>
</g>
<!-- 20&#45;&gt;8 -->
<g id="edge77" class="edge">
<title>20&#45;&gt;8</title>
<g id="a_edge77"><a xlink:title="include">
<path fill="none" stroke="#1414ce" d="M570.55,-148.57C575.18,-146.89 579.93,-145.31 584.5,-144 662.1,-121.81 754.58,-106.27 810.89,-97.99"/>
<polygon fill="#1414ce" stroke="#1414ce" points="811.58,-101.43 820.98,-96.53 810.58,-94.5 811.58,-101.43"/>
</a>
</g>
</g>
<!-- 32&#45;&gt;8 -->
<g id="edge78" class="edge">
<title>32&#45;&gt;8</title>
<g id="a_edge78"><a xlink:title="include">
<path fill="none" stroke="#1414ce" d="M1023.24,-146.15C991.3,-135.2 947.71,-120.24 913.99,-108.67"/>
<polygon fill="#1414ce" stroke="#1414ce" points="914.9,-105.28 904.31,-105.35 912.63,-111.9 914.9,-105.28"/>
</a>
</g>
</g>
<!-- 32&#45;&gt;4 -->
<g id="edge80" class="edge">
<title>32&#45;&gt;4</title>
<g id="a_edge80"><a xlink:title="include">
<path fill="none" stroke="#1414ce" d="M1065.84,-143.7C1066,-124.24 1069.09,-92.66 1085.5,-72 1102.19,-50.99 1129.16,-37.91 1152.58,-30"/>
<polygon fill="#1414ce" stroke="#1414ce" points="1153.87,-33.26 1162.35,-26.91 1151.76,-26.58 1153.87,-33.26"/>
</a>
</g>
</g>
<!-- 32&#45;&gt;10 -->
<g id="edge79" class="edge">
<title>32&#45;&gt;10</title>
<g id="a_edge79"><a xlink:title="include">
<path fill="none" stroke="#1414ce" d="M1082.57,-143.7C1090.44,-135.22 1100.06,-124.86 1108.67,-115.58"/>
<polygon fill="#1414ce" stroke="#1414ce" points="1111.38,-117.81 1115.62,-108.1 1106.25,-113.05 1111.38,-117.81"/>
</a>
</g>
</g>
<!-- 28&#45;&gt;8 -->
<g id="edge81" class="edge">
<title>28&#45;&gt;8</title>
<g id="a_edge81"><a xlink:title="include">
<path fill="none" stroke="#1414ce" d="M443.84,-219.49C496.56,-204.96 573.44,-183.46 579.5,-180 599.7,-168.47 596.93,-154.86 617.5,-144 678.89,-111.59 758.89,-98.99 810.48,-94.1"/>
<polygon fill="#1414ce" stroke="#1414ce" points="811.07,-97.56 820.73,-93.2 810.46,-90.59 811.07,-97.56"/>
</a>
</g>
</g>
<!-- 28&#45;&gt;18 -->
<g id="edge83" class="edge">
<title>28&#45;&gt;18</title>
<g id="a_edge83"><a xlink:title="include">
<path fill="none" stroke="#1414ce" d="M443.64,-219.56C448.32,-218.34 452.99,-217.13 457.5,-216 526.1,-198.78 545.16,-201.62 612.5,-180 613.92,-179.54 615.36,-179.06 616.81,-178.55"/>
<polygon fill="#1414ce" stroke="#1414ce" points="618.24,-181.75 626.39,-174.98 615.79,-175.2 618.24,-181.75"/>
</a>
</g>
</g>
<!-- 28&#45;&gt;4 -->
<g id="edge82" class="edge">
<title>28&#45;&gt;4</title>
<g id="a_edge82"><a xlink:title="include">
<path fill="none" stroke="#1414ce" d="M417.97,-215.92C431.55,-205.8 448.8,-192.55 463.5,-180 481.19,-164.89 481.01,-155.02 501.5,-144 615.74,-82.58 1015.17,-37.49 1152.06,-23.54"/>
<polygon fill="#1414ce" stroke="#1414ce" points="1152.61,-27 1162.21,-22.51 1151.91,-20.03 1152.61,-27"/>
</a>
</g>
</g>
<!-- 27&#45;&gt;8 -->
<g id="edge84" class="edge">
<title>27&#45;&gt;8</title>
<g id="a_edge84"><a xlink:title="include">
<path fill="none" stroke="#1414ce" d="M803.25,-215.82C808.57,-197.56 817.99,-168.06 829.5,-144 833.94,-134.71 839.63,-125.02 845.03,-116.5"/>
<polygon fill="#1414ce" stroke="#1414ce" points="847.97,-118.4 850.49,-108.11 842.1,-114.58 847.97,-118.4"/>
</a>
</g>
</g>
<!-- 27&#45;&gt;9 -->
<g id="edge87" class="edge">
<title>27&#45;&gt;9</title>
<g id="a_edge87"><a xlink:title="include">
<path fill="none" stroke="#1414ce" d="M841.67,-229.2C921,-221.92 1095.13,-204.5 1240.5,-180 1252.44,-177.99 1265.32,-175.37 1277.11,-172.79"/>
<polygon fill="#1414ce" stroke="#1414ce" points="1278.14,-176.15 1287.13,-170.55 1276.61,-169.31 1278.14,-176.15"/>
</a>
</g>
</g>
<!-- 27&#45;&gt;18 -->
<g id="edge85" class="edge">
<title>27&#45;&gt;18</title>
<g id="a_edge85"><a xlink:title="include">
<path fill="none" stroke="#1414ce" d="M763.03,-215.88C740.87,-205.18 712.41,-191.44 690.06,-180.65"/>
<polygon fill="#1414ce" stroke="#1414ce" points="691.41,-177.42 680.88,-176.22 688.37,-183.72 691.41,-177.42"/>
</a>
</g>
</g>
<!-- 27&#45;&gt;13 -->
<g id="edge86" class="edge">
<title>27&#45;&gt;13</title>
<g id="a_edge86"><a xlink:title="include">
<path fill="none" stroke="#1414ce" d="M841.53,-230.4C935.63,-224.38 1166.66,-207.85 1358.5,-180 1493.68,-160.37 1649.65,-127.43 1738.81,-107.6"/>
<polygon fill="#1414ce" stroke="#1414ce" points="1739.82,-110.97 1748.82,-105.37 1738.29,-104.13 1739.82,-110.97"/>
</a>
</g>
</g>
<!-- 1 -->
<g id="node32" class="node">
<title>1</title>
<g id="a_node32"><a xlink:title="/__w/AtomVM/AtomVM/src/libAtomVM/port.h">
<polygon fill="#bfbfbf" stroke="black" points="891,-756 554,-756 554,-720 891,-720 891,-756"/>
<text text-anchor="middle" x="722.5" y="-734.3" font-family="Times,serif" font-size="14.00">/__w/AtomVM/AtomVM/src/libAtomVM/port.h</text>
</a>
</g>
</g>
<!-- 1&#45;&gt;34 -->
<g id="edge89" class="edge">
<title>1&#45;&gt;34</title>
<g id="a_edge89"><a xlink:title="include">
<path fill="none" stroke="#1414ce" d="M683.36,-719.88C661.49,-710.31 634.04,-698.3 610.84,-688.15"/>
<polygon fill="#1414ce" stroke="#1414ce" points="612.08,-684.87 601.51,-684.07 609.27,-691.28 612.08,-684.87"/>
</a>
</g>
</g>
<!-- 1&#45;&gt;2 -->
<g id="edge88" class="edge">
<title>1&#45;&gt;2</title>
<g id="a_edge88"><a xlink:title="include">
<path fill="none" stroke="#1414ce" d="M722.5,-719.7C722.5,-711.98 722.5,-702.71 722.5,-694.11"/>
<polygon fill="#1414ce" stroke="#1414ce" points="726,-694.1 722.5,-684.1 719,-694.1 726,-694.1"/>
</a>
</g>
</g>
<!-- 1&#45;&gt;24 -->
<g id="edge91" class="edge">
<title>1&#45;&gt;24</title>
<g id="a_edge91"><a xlink:title="include">
<path fill="none" stroke="#1414ce" d="M891.16,-732.03C1196.94,-720.75 1811.5,-686.67 1811.5,-595 1811.5,-595 1811.5,-595 1811.5,-449 1811.5,-362.6 1724.87,-292.1 1673.16,-257.71"/>
<polygon fill="#1414ce" stroke="#1414ce" points="1674.85,-254.64 1664.56,-252.11 1671.03,-260.5 1674.85,-254.64"/>
</a>
</g>
</g>
<!-- 1&#45;&gt;21 -->
<g id="edge92" class="edge">
<title>1&#45;&gt;21</title>
<g id="a_edge92"><a xlink:title="include">
<path fill="none" stroke="#1414ce" d="M891.1,-727.23C1129.17,-709.21 1543.76,-660.87 1622.5,-540 1667.02,-471.66 1515.92,-455.77 1438.46,-452.1"/>
<polygon fill="#1414ce" stroke="#1414ce" points="1438.18,-448.58 1428.04,-451.66 1437.88,-455.58 1438.18,-448.58"/>
</a>
</g>
</g>
<!-- 1&#45;&gt;3 -->
<g id="edge90" class="edge">
<title>1&#45;&gt;3</title>
<g id="a_edge90"><a xlink:title="include">
<path fill="none" stroke="#1414ce" d="M705.2,-719.61C695.19,-709.39 682.44,-696.14 671.5,-684 652.38,-662.78 631.51,-637.86 616.65,-619.79"/>
<polygon fill="#1414ce" stroke="#1414ce" points="619.32,-617.53 610.28,-612.01 613.91,-621.97 619.32,-617.53"/>
</a>
</g>
</g>
<!-- 17&#45;&gt;19 -->
<g id="edge94" class="edge">
<title>17&#45;&gt;19</title>
<g id="a_edge94"><a xlink:title="include">
<path fill="none" stroke="#1414ce" d="M593.28,-503.97C584.26,-456.19 558.67,-320.62 547.65,-262.27"/>
<polygon fill="#1414ce" stroke="#1414ce" points="551.06,-261.48 545.77,-252.31 544.18,-262.78 551.06,-261.48"/>
</a>
</g>
</g>
<!-- 17&#45;&gt;18 -->
<g id="edge93" class="edge">
<title>17&#45;&gt;18</title>
<g id="a_edge93"><a xlink:title="include">
<path fill="none" stroke="#1414ce" d="M599.94,-503.59C604.91,-476.9 613.5,-424.19 613.5,-379 613.5,-379 613.5,-379 613.5,-305 613.5,-263.48 629.54,-217.61 641.3,-189.54"/>
<polygon fill="#1414ce" stroke="#1414ce" points="644.65,-190.62 645.41,-180.05 638.23,-187.84 644.65,-190.62"/>
</a>
</g>
</g>
<!-- 17&#45;&gt;21 -->
<g id="edge95" class="edge">
<title>17&#45;&gt;21</title>
<g id="a_edge95"><a xlink:title="include">
<path fill="none" stroke="#1414ce" d="M623.54,-518.63C741.09,-508.33 1208.2,-467.41 1352.68,-454.75"/>
<polygon fill="#1414ce" stroke="#1414ce" points="1353.26,-458.21 1362.91,-453.85 1352.65,-451.24 1353.26,-458.21"/>
</a>
</g>
</g>
</g>
</svg>
