<?xml version="1.0" encoding="UTF-8" standalone="no"?>
<!DOCTYPE svg PUBLIC "-//W3C//DTD SVG 1.1//EN"
 "http://www.w3.org/Graphics/SVG/1.1/DTD/svg11.dtd">
<!-- Generated by graphviz version 2.43.0 (0)
 -->
<!-- Title: %3 Pages: 1 -->
<svg width="1367pt" height="620pt"
 viewBox="0.00 0.00 1367.00 620.00" xmlns="http://www.w3.org/2000/svg" xmlns:xlink="http://www.w3.org/1999/xlink">
<g id="graph0" class="graph" transform="scale(1 1) rotate(0) translate(4 616)">
<title>%3</title>
<polygon fill="transparent" stroke="transparent" points="-4,4 -4,-616 1363,-616 1363,4 -4,4"/>
<!-- 5 -->
<g id="node1" class="node">
<title>5</title>
<g id="a_node1"><a xlink:title="stdbool.h">
<polygon fill="#ffffff" stroke="black" points="1014.5,-108 931.5,-108 931.5,-72 1014.5,-72 1014.5,-108"/>
<text text-anchor="middle" x="973" y="-86.3" font-family="Times,serif" font-size="14.00">stdbool.h</text>
</a>
</g>
</g>
<!-- 19 -->
<g id="node2" class="node">
<title>19</title>
<g id="a_node2"><a xlink:title="refc_binary.h">
<polygon fill="#ffffff" stroke="black" points="960,-396 852,-396 852,-360 960,-360 960,-396"/>
<text text-anchor="middle" x="906" y="-374.3" font-family="Times,serif" font-size="14.00">refc_binary.h</text>
</a>
</g>
</g>
<!-- 19&#45;&gt;5 -->
<g id="edge1" class="edge">
<title>19&#45;&gt;5</title>
<g id="a_edge1"><a xlink:title="include">
<path fill="none" stroke="#1414ce" d="M929.09,-359.98C939.87,-350.65 951.69,-338.12 958,-324 988.77,-255.1 982.72,-163.2 977.13,-118.18"/>
<polygon fill="#1414ce" stroke="#1414ce" points="980.57,-117.49 975.78,-108.04 973.63,-118.42 980.57,-117.49"/>
</a>
</g>
</g>
<!-- 20 -->
<g id="node7" class="node">
<title>20</title>
<g id="a_node7"><a xlink:title="list.h">
<polygon fill="#ffffff" stroke="black" points="916,-180 862,-180 862,-144 916,-144 916,-180"/>
<text text-anchor="middle" x="889" y="-158.3" font-family="Times,serif" font-size="14.00">list.h</text>
</a>
</g>
</g>
<!-- 19&#45;&gt;20 -->
<g id="edge3" class="edge">
<title>19&#45;&gt;20</title>
<g id="a_edge3"><a xlink:title="include">
<path fill="none" stroke="#1414ce" d="M904.64,-359.85C901.7,-322.83 894.73,-235.18 891.18,-190.39"/>
<polygon fill="#1414ce" stroke="#1414ce" points="894.65,-189.92 890.37,-180.23 887.67,-190.48 894.65,-189.92"/>
</a>
</g>
</g>
<!-- 8 -->
<g id="node9" class="node">
<title>8</title>
<g id="a_node9"><a xlink:title="stdlib.h">
<polygon fill="#ffffff" stroke="black" points="729.5,-108 658.5,-108 658.5,-72 729.5,-72 729.5,-108"/>
<text text-anchor="middle" x="694" y="-86.3" font-family="Times,serif" font-size="14.00">stdlib.h</text>
</a>
</g>
</g>
<!-- 19&#45;&gt;8 -->
<g id="edge2" class="edge">
<title>19&#45;&gt;8</title>
<g id="a_edge2"><a xlink:title="include">
<path fill="none" stroke="#1414ce" d="M914.56,-359.77C934.1,-317.73 976.46,-208.6 925,-144 913.47,-129.52 803.97,-109.2 739.96,-98.41"/>
<polygon fill="#1414ce" stroke="#1414ce" points="740.16,-94.9 729.72,-96.7 739,-101.8 740.16,-94.9"/>
</a>
</g>
</g>
<!-- 21 -->
<g id="node11" class="node">
<title>21</title>
<g id="a_node11"><a xlink:title="resources.h">
<polygon fill="#ffffff" stroke="black" points="776,-324 676,-324 676,-288 776,-288 776,-324"/>
<text text-anchor="middle" x="726" y="-302.3" font-family="Times,serif" font-size="14.00">resources.h</text>
</a>
</g>
</g>
<!-- 19&#45;&gt;21 -->
<g id="edge4" class="edge">
<title>19&#45;&gt;21</title>
<g id="a_edge4"><a xlink:title="include">
<path fill="none" stroke="#1414ce" d="M861.97,-359.88C837.03,-350.18 805.66,-337.98 779.34,-327.74"/>
<polygon fill="#1414ce" stroke="#1414ce" points="780.48,-324.43 769.89,-324.07 777.94,-330.95 780.48,-324.43"/>
</a>
</g>
</g>
<!-- 10 -->
<g id="node3" class="node">
<title>10</title>
<g id="a_node3"><a xlink:title="atom.h">
<polygon fill="#ffffff" stroke="black" points="1076,-180 1010,-180 1010,-144 1076,-144 1076,-180"/>
<text text-anchor="middle" x="1043" y="-158.3" font-family="Times,serif" font-size="14.00">atom.h</text>
</a>
</g>
</g>
<!-- 6 -->
<g id="node8" class="node">
<title>6</title>
<g id="a_node8"><a xlink:title="stdint.h">
<polygon fill="#ffffff" stroke="black" points="800,-36 728,-36 728,0 800,0 800,-36"/>
<text text-anchor="middle" x="764" y="-14.3" font-family="Times,serif" font-size="14.00">stdint.h</text>
</a>
</g>
</g>
<!-- 10&#45;&gt;6 -->
<g id="edge5" class="edge">
<title>10&#45;&gt;6</title>
<g id="a_edge5"><a xlink:title="include">
<path fill="none" stroke="#1414ce" d="M1044.48,-143.66C1045.17,-123.56 1042.97,-90.79 1024,-72 994.41,-42.68 876.9,-28.34 810.44,-22.44"/>
<polygon fill="#1414ce" stroke="#1414ce" points="810.49,-18.93 800.23,-21.57 809.9,-25.91 810.49,-18.93"/>
</a>
</g>
</g>
<!-- 10&#45;&gt;8 -->
<g id="edge6" class="edge">
<title>10&#45;&gt;8</title>
<g id="a_edge6"><a xlink:title="include">
<path fill="none" stroke="#1414ce" d="M1009.85,-154.35C947.09,-141.76 810.83,-114.43 739.54,-100.13"/>
<polygon fill="#1414ce" stroke="#1414ce" points="740,-96.66 729.51,-98.12 738.63,-103.52 740,-96.66"/>
</a>
</g>
</g>
<!-- 14 -->
<g id="node4" class="node">
<title>14</title>
<g id="a_node4"><a xlink:title="assert.h">
<polygon fill="#ffffff" stroke="black" points="74,-36 0,-36 0,0 74,0 74,-36"/>
<text text-anchor="middle" x="37" y="-14.3" font-family="Times,serif" font-size="14.00">assert.h</text>
</a>
</g>
</g>
<!-- 17 -->
<g id="node5" class="node">
<title>17</title>
<g id="a_node5"><a xlink:title="utils.h">
<polygon fill="#ffffff" stroke="black" points="614,-180 552,-180 552,-144 614,-144 614,-180"/>
<text text-anchor="middle" x="583" y="-158.3" font-family="Times,serif" font-size="14.00">utils.h</text>
</a>
</g>
</g>
<!-- 17&#45;&gt;8 -->
<g id="edge9" class="edge">
<title>17&#45;&gt;8</title>
<g id="a_edge9"><a xlink:title="include">
<path fill="none" stroke="#1414ce" d="M610.15,-143.88C624.53,-134.81 642.38,-123.55 657.91,-113.76"/>
<polygon fill="#1414ce" stroke="#1414ce" points="660.15,-116.48 666.74,-108.19 656.42,-110.56 660.15,-116.48"/>
</a>
</g>
</g>
<!-- 18 -->
<g id="node13" class="node">
<title>18</title>
<g id="a_node13"><a xlink:title="stddef.h">
<polygon fill="#ffffff" stroke="black" points="880,-108 806,-108 806,-72 880,-72 880,-108"/>
<text text-anchor="middle" x="843" y="-86.3" font-family="Times,serif" font-size="14.00">stddef.h</text>
</a>
</g>
</g>
<!-- 17&#45;&gt;18 -->
<g id="edge7" class="edge">
<title>17&#45;&gt;18</title>
<g id="a_edge7"><a xlink:title="include">
<path fill="none" stroke="#1414ce" d="M614.1,-152.63C659.31,-140.45 743.51,-117.79 796.22,-103.6"/>
<polygon fill="#1414ce" stroke="#1414ce" points="797.25,-106.94 806,-100.96 795.43,-100.18 797.25,-106.94"/>
</a>
</g>
</g>
<!-- 7 -->
<g id="node25" class="node">
<title>7</title>
<g id="a_node25"><a xlink:title="stdio.h">
<polygon fill="#ffffff" stroke="black" points="615.5,-108 550.5,-108 550.5,-72 615.5,-72 615.5,-108"/>
<text text-anchor="middle" x="583" y="-86.3" font-family="Times,serif" font-size="14.00">stdio.h</text>
</a>
</g>
</g>
<!-- 17&#45;&gt;7 -->
<g id="edge8" class="edge">
<title>17&#45;&gt;7</title>
<g id="a_edge8"><a xlink:title="include">
<path fill="none" stroke="#1414ce" d="M583,-143.7C583,-135.98 583,-126.71 583,-118.11"/>
<polygon fill="#1414ce" stroke="#1414ce" points="586.5,-118.1 583,-108.1 579.5,-118.1 586.5,-118.1"/>
</a>
</g>
</g>
<!-- 23 -->
<g id="node6" class="node">
<title>23</title>
<g id="a_node6"><a xlink:title="synclist.h">
<polygon fill="#ffffff" stroke="black" points="839.5,-252 754.5,-252 754.5,-216 839.5,-216 839.5,-252"/>
<text text-anchor="middle" x="797" y="-230.3" font-family="Times,serif" font-size="14.00">synclist.h</text>
</a>
</g>
</g>
<!-- 23&#45;&gt;20 -->
<g id="edge11" class="edge">
<title>23&#45;&gt;20</title>
<g id="a_edge11"><a xlink:title="include">
<path fill="none" stroke="#1414ce" d="M819.74,-215.7C831.44,-206.8 845.86,-195.82 858.51,-186.2"/>
<polygon fill="#1414ce" stroke="#1414ce" points="860.68,-188.94 866.52,-180.1 856.44,-183.37 860.68,-188.94"/>
</a>
</g>
</g>
<!-- 24 -->
<g id="node21" class="node">
<title>24</title>
<g id="a_node21"><a xlink:title="smp.h">
<polygon fill="#ffffff" stroke="black" points="844,-180 784,-180 784,-144 844,-144 844,-180"/>
<text text-anchor="middle" x="814" y="-158.3" font-family="Times,serif" font-size="14.00">smp.h</text>
</a>
</g>
</g>
<!-- 23&#45;&gt;24 -->
<g id="edge12" class="edge">
<title>23&#45;&gt;24</title>
<g id="a_edge12"><a xlink:title="include">
<path fill="none" stroke="#1414ce" d="M801.2,-215.7C803.1,-207.9 805.38,-198.51 807.48,-189.83"/>
<polygon fill="#1414ce" stroke="#1414ce" points="810.89,-190.65 809.85,-180.1 804.08,-189 810.89,-190.65"/>
</a>
</g>
</g>
<!-- 23&#45;&gt;7 -->
<g id="edge10" class="edge">
<title>23&#45;&gt;7</title>
<g id="a_edge10"><a xlink:title="include">
<path fill="none" stroke="#1414ce" d="M771.19,-215.87C732.71,-190.34 660.24,-142.25 617.33,-113.78"/>
<polygon fill="#1414ce" stroke="#1414ce" points="619.17,-110.8 608.9,-108.19 615.3,-116.63 619.17,-110.8"/>
</a>
</g>
</g>
<!-- 20&#45;&gt;5 -->
<g id="edge13" class="edge">
<title>20&#45;&gt;5</title>
<g id="a_edge13"><a xlink:title="include">
<path fill="none" stroke="#1414ce" d="M909.76,-143.7C920.24,-134.97 933.11,-124.24 944.5,-114.75"/>
<polygon fill="#1414ce" stroke="#1414ce" points="947.03,-117.19 952.47,-108.1 942.55,-111.82 947.03,-117.19"/>
</a>
</g>
</g>
<!-- 11 -->
<g id="node10" class="node">
<title>11</title>
<g id="a_node10"><a xlink:title="memory.h">
<polygon fill="#ffffff" stroke="black" points="480,-252 394,-252 394,-216 480,-216 480,-252"/>
<text text-anchor="middle" x="437" y="-230.3" font-family="Times,serif" font-size="14.00">memory.h</text>
</a>
</g>
</g>
<!-- 11&#45;&gt;17 -->
<g id="edge18" class="edge">
<title>11&#45;&gt;17</title>
<g id="a_edge18"><a xlink:title="include">
<path fill="none" stroke="#1414ce" d="M472.72,-215.88C493.84,-205.75 520.66,-192.89 542.56,-182.39"/>
<polygon fill="#1414ce" stroke="#1414ce" points="544.12,-185.52 551.62,-178.05 541.09,-179.21 544.12,-185.52"/>
</a>
</g>
</g>
<!-- 11&#45;&gt;6 -->
<g id="edge14" class="edge">
<title>11&#45;&gt;6</title>
<g id="a_edge14"><a xlink:title="include">
<path fill="none" stroke="#1414ce" d="M443.18,-215.8C456.06,-182.52 489.07,-109.28 542,-72 594.52,-35.01 669.54,-23.62 717.51,-20.23"/>
<polygon fill="#1414ce" stroke="#1414ce" points="717.84,-23.72 727.61,-19.61 717.41,-16.73 717.84,-23.72"/>
</a>
</g>
</g>
<!-- 11&#45;&gt;8 -->
<g id="edge15" class="edge">
<title>11&#45;&gt;8</title>
<g id="a_edge15"><a xlink:title="include">
<path fill="none" stroke="#1414ce" d="M457.3,-215.92C487.9,-190.17 542.4,-144.34 543,-144 576.33,-125.01 617.62,-111.09 648.6,-102.29"/>
<polygon fill="#1414ce" stroke="#1414ce" points="649.57,-105.65 658.27,-99.61 647.7,-98.91 649.57,-105.65"/>
</a>
</g>
</g>
<!-- 12 -->
<g id="node14" class="node">
<title>12</title>
<g id="a_node14"><a xlink:title="erl_nif.h">
<polygon fill="#ffffff" stroke="black" points="420,-180 346,-180 346,-144 420,-144 420,-180"/>
<text text-anchor="middle" x="383" y="-158.3" font-family="Times,serif" font-size="14.00">erl_nif.h</text>
</a>
</g>
</g>
<!-- 11&#45;&gt;12 -->
<g id="edge16" class="edge">
<title>11&#45;&gt;12</title>
<g id="a_edge16"><a xlink:title="include">
<path fill="none" stroke="#1414ce" d="M423.65,-215.7C417.24,-207.39 409.44,-197.28 402.39,-188.14"/>
<polygon fill="#1414ce" stroke="#1414ce" points="405.07,-185.88 396.19,-180.1 399.53,-190.16 405.07,-185.88"/>
</a>
</g>
</g>
<!-- 13 -->
<g id="node18" class="node">
<title>13</title>
<g id="a_node18"><a xlink:title="term_typedef.h">
<polygon fill="#ffffff" stroke="black" points="213.5,-108 88.5,-108 88.5,-72 213.5,-72 213.5,-108"/>
<text text-anchor="middle" x="151" y="-86.3" font-family="Times,serif" font-size="14.00">term_typedef.h</text>
</a>
</g>
</g>
<!-- 11&#45;&gt;13 -->
<g id="edge17" class="edge">
<title>11&#45;&gt;13</title>
<g id="a_edge17"><a xlink:title="include">
<path fill="none" stroke="#1414ce" d="M402.5,-215.87C350.43,-190.02 251.79,-141.04 194.75,-112.72"/>
<polygon fill="#1414ce" stroke="#1414ce" points="196.13,-109.5 185.62,-108.19 193.02,-115.77 196.13,-109.5"/>
</a>
</g>
</g>
<!-- 21&#45;&gt;23 -->
<g id="edge24" class="edge">
<title>21&#45;&gt;23</title>
<g id="a_edge24"><a xlink:title="include">
<path fill="none" stroke="#1414ce" d="M743.55,-287.7C752.23,-279.14 762.86,-268.66 772.35,-259.3"/>
<polygon fill="#1414ce" stroke="#1414ce" points="774.99,-261.62 779.65,-252.1 770.07,-256.63 774.99,-261.62"/>
</a>
</g>
</g>
<!-- 21&#45;&gt;20 -->
<g id="edge21" class="edge">
<title>21&#45;&gt;20</title>
<g id="a_edge21"><a xlink:title="include">
<path fill="none" stroke="#1414ce" d="M776.12,-292.7C800.61,-284.55 829.03,-271.66 849,-252 866.19,-235.07 876.63,-209.44 882.52,-190.02"/>
<polygon fill="#1414ce" stroke="#1414ce" points="885.93,-190.82 885.26,-180.24 879.19,-188.92 885.93,-190.82"/>
</a>
</g>
</g>
<!-- 21&#45;&gt;8 -->
<g id="edge19" class="edge">
<title>21&#45;&gt;8</title>
<g id="a_edge19"><a xlink:title="include">
<path fill="none" stroke="#1414ce" d="M723.44,-287.85C717.9,-250.83 704.79,-163.18 698.1,-118.39"/>
<polygon fill="#1414ce" stroke="#1414ce" points="701.52,-117.6 696.58,-108.23 694.59,-118.64 701.52,-117.6"/>
</a>
</g>
</g>
<!-- 21&#45;&gt;11 -->
<g id="edge23" class="edge">
<title>21&#45;&gt;11</title>
<g id="a_edge23"><a xlink:title="include">
<path fill="none" stroke="#1414ce" d="M675.99,-292.89C624.08,-280.31 543.21,-260.73 490.17,-247.88"/>
<polygon fill="#1414ce" stroke="#1414ce" points="490.82,-244.43 480.27,-245.48 489.17,-251.24 490.82,-244.43"/>
</a>
</g>
</g>
<!-- 21&#45;&gt;12 -->
<g id="edge20" class="edge">
<title>21&#45;&gt;12</title>
<g id="a_edge20"><a xlink:title="include">
<path fill="none" stroke="#1414ce" d="M684.63,-287.87C620.35,-261.26 496.9,-210.16 429.58,-182.28"/>
<polygon fill="#1414ce" stroke="#1414ce" points="430.65,-178.94 420.07,-178.35 427.97,-185.41 430.65,-178.94"/>
</a>
</g>
</g>
<!-- 22 -->
<g id="node24" class="node">
<title>22</title>
<g id="a_node24"><a xlink:title="mailbox.h">
<polygon fill="#ffffff" stroke="black" points="698,-252 612,-252 612,-216 698,-216 698,-252"/>
<text text-anchor="middle" x="655" y="-230.3" font-family="Times,serif" font-size="14.00">mailbox.h</text>
</a>
</g>
</g>
<!-- 21&#45;&gt;22 -->
<g id="edge22" class="edge">
<title>21&#45;&gt;22</title>
<g id="a_edge22"><a xlink:title="include">
<path fill="none" stroke="#1414ce" d="M708.45,-287.7C699.77,-279.14 689.14,-268.66 679.65,-259.3"/>
<polygon fill="#1414ce" stroke="#1414ce" points="681.93,-256.63 672.35,-252.1 677.01,-261.62 681.93,-256.63"/>
</a>
</g>
</g>
<!-- 3 -->
<g id="node12" class="node">
<title>3</title>
<g id="a_node12"><a xlink:title="term.h">
<polygon fill="#ffffff" stroke="black" points="520.5,-468 455.5,-468 455.5,-432 520.5,-432 520.5,-468"/>
<text text-anchor="middle" x="488" y="-446.3" font-family="Times,serif" font-size="14.00">term.h</text>
</a>
</g>
</g>
<!-- 3&#45;&gt;5 -->
<g id="edge26" class="edge">
<title>3&#45;&gt;5</title>
<g id="a_edge26"><a xlink:title="include">
<path fill="none" stroke="#1414ce" d="M520.67,-448.09C619.07,-444.98 911.23,-432.79 998,-396 1054.64,-371.99 1104,-368.52 1104,-307 1104,-307 1104,-307 1104,-233 1104,-192.55 1110.1,-175.71 1085,-144 1069.76,-124.75 1045.86,-112.13 1024.04,-104.06"/>
<polygon fill="#1414ce" stroke="#1414ce" points="1025.12,-100.73 1014.52,-100.76 1022.83,-107.34 1025.12,-100.73"/>
</a>
</g>
</g>
<!-- 3&#45;&gt;19 -->
<g id="edge33" class="edge">
<title>3&#45;&gt;19</title>
<g id="a_edge33"><a xlink:title="include">
<path fill="none" stroke="#1414ce" d="M520.8,-443.51C589.83,-431.95 751.18,-404.93 841.63,-389.78"/>
<polygon fill="#1414ce" stroke="#1414ce" points="842.48,-393.19 851.76,-388.08 841.32,-386.28 842.48,-393.19"/>
</a>
</g>
</g>
<!-- 3&#45;&gt;10 -->
<g id="edge31" class="edge">
<title>3&#45;&gt;10</title>
<g id="a_edge31"><a xlink:title="include">
<path fill="none" stroke="#1414ce" d="M520.5,-447.45C622.93,-442.3 934.32,-424.42 969,-396 1031.72,-344.6 1042.04,-240.15 1043.24,-190.46"/>
<polygon fill="#1414ce" stroke="#1414ce" points="1046.74,-190.21 1043.37,-180.17 1039.74,-190.12 1046.74,-190.21"/>
</a>
</g>
</g>
<!-- 3&#45;&gt;17 -->
<g id="edge34" class="edge">
<title>3&#45;&gt;17</title>
<g id="a_edge34"><a xlink:title="include">
<path fill="none" stroke="#1414ce" d="M493.66,-431.97C509.56,-384.09 554.75,-248.06 574.06,-189.9"/>
<polygon fill="#1414ce" stroke="#1414ce" points="577.42,-190.9 577.25,-180.31 570.78,-188.69 577.42,-190.9"/>
</a>
</g>
</g>
<!-- 3&#45;&gt;6 -->
<g id="edge27" class="edge">
<title>3&#45;&gt;6</title>
<g id="a_edge27"><a xlink:title="include">
<path fill="none" stroke="#1414ce" d="M455.2,-435.87C434.95,-426.7 409.25,-413.06 390,-396 302.64,-318.58 247.46,-238.49 316,-144 363.72,-78.21 613.39,-38.6 717.91,-24.67"/>
<polygon fill="#1414ce" stroke="#1414ce" points="718.4,-28.14 727.86,-23.37 717.49,-21.2 718.4,-28.14"/>
</a>
</g>
</g>
<!-- 3&#45;&gt;8 -->
<g id="edge29" class="edge">
<title>3&#45;&gt;8</title>
<g id="a_edge29"><a xlink:title="include">
<path fill="none" stroke="#1414ce" d="M501.66,-431.97C509.39,-421.88 518.89,-408.63 526,-396 568.71,-320.19 560.01,-291.65 603,-216 623.76,-179.47 653.16,-140.87 672.87,-116.4"/>
<polygon fill="#1414ce" stroke="#1414ce" points="675.81,-118.32 679.4,-108.36 670.38,-113.91 675.81,-118.32"/>
</a>
</g>
</g>
<!-- 3&#45;&gt;11 -->
<g id="edge32" class="edge">
<title>3&#45;&gt;11</title>
<g id="a_edge32"><a xlink:title="include">
<path fill="none" stroke="#1414ce" d="M483.91,-431.85C475.07,-394.75 454.11,-306.81 443.46,-262.1"/>
<polygon fill="#1414ce" stroke="#1414ce" points="446.83,-261.15 441.11,-252.23 440.02,-262.77 446.83,-261.15"/>
</a>
</g>
</g>
<!-- 4 -->
<g id="node16" class="node">
<title>4</title>
<g id="a_node16"><a xlink:title="sys/types.h">
<polygon fill="#ffffff" stroke="black" points="197.5,-396 100.5,-396 100.5,-360 197.5,-360 197.5,-396"/>
<text text-anchor="middle" x="149" y="-374.3" font-family="Times,serif" font-size="14.00">sys/types.h</text>
</a>
</g>
</g>
<!-- 3&#45;&gt;4 -->
<g id="edge25" class="edge">
<title>3&#45;&gt;4</title>
<g id="a_edge25"><a xlink:title="include">
<path fill="none" stroke="#1414ce" d="M455.2,-443.97C404.12,-435.9 302.37,-418.83 207.48,-396.24"/>
<polygon fill="#1414ce" stroke="#1414ce" points="208.27,-392.83 197.73,-393.9 206.63,-399.64 208.27,-392.83"/>
</a>
</g>
</g>
<!-- 9 -->
<g id="node17" class="node">
<title>9</title>
<g id="a_node17"><a xlink:title="string.h">
<polygon fill="#ffffff" stroke="black" points="288.5,-396 215.5,-396 215.5,-360 288.5,-360 288.5,-396"/>
<text text-anchor="middle" x="252" y="-374.3" font-family="Times,serif" font-size="14.00">string.h</text>
</a>
</g>
</g>
<!-- 3&#45;&gt;9 -->
<g id="edge30" class="edge">
<title>3&#45;&gt;9</title>
<g id="a_edge30"><a xlink:title="include">
<path fill="none" stroke="#1414ce" d="M455.46,-440.13C418.41,-429.93 356.14,-412.46 303,-396 301.55,-395.55 300.08,-395.09 298.6,-394.62"/>
<polygon fill="#1414ce" stroke="#1414ce" points="299.3,-391.17 288.71,-391.45 297.16,-397.84 299.3,-391.17"/>
</a>
</g>
</g>
<!-- 3&#45;&gt;13 -->
<g id="edge35" class="edge">
<title>3&#45;&gt;13</title>
<g id="a_edge35"><a xlink:title="include">
<path fill="none" stroke="#1414ce" d="M455.43,-449.29C370.24,-449.35 143.76,-444.82 91,-396 61.31,-368.53 72,-347.45 72,-307 72,-307 72,-307 72,-233 72,-187.24 103.72,-142.45 126.96,-115.78"/>
<polygon fill="#1414ce" stroke="#1414ce" points="129.78,-117.88 133.86,-108.11 124.57,-113.21 129.78,-117.88"/>
</a>
</g>
</g>
<!-- 3&#45;&gt;7 -->
<g id="edge28" class="edge">
<title>3&#45;&gt;7</title>
<g id="a_edge28"><a xlink:title="include">
<path fill="none" stroke="#1414ce" d="M467.17,-432C409.88,-383.25 259.23,-240.31 337,-144 362.09,-112.93 476.81,-99.21 540.34,-93.9"/>
<polygon fill="#1414ce" stroke="#1414ce" points="540.76,-97.38 550.45,-93.09 540.2,-90.4 540.76,-97.38"/>
</a>
</g>
</g>
<!-- 12&#45;&gt;13 -->
<g id="edge36" class="edge">
<title>12&#45;&gt;13</title>
<g id="a_edge36"><a xlink:title="include">
<path fill="none" stroke="#1414ce" d="M345.98,-149.83C311.4,-139.4 258.98,-123.58 217.2,-110.97"/>
<polygon fill="#1414ce" stroke="#1414ce" points="217.96,-107.55 207.37,-108.01 215.93,-114.25 217.96,-107.55"/>
</a>
</g>
</g>
<!-- 15 -->
<g id="node15" class="node">
<title>15</title>
<g id="a_node15"><a xlink:title="limits.h">
<polygon fill="#ffffff" stroke="black" points="271.5,-36 200.5,-36 200.5,0 271.5,0 271.5,-36"/>
<text text-anchor="middle" x="236" y="-14.3" font-family="Times,serif" font-size="14.00">limits.h</text>
</a>
</g>
</g>
<!-- 13&#45;&gt;14 -->
<g id="edge37" class="edge">
<title>13&#45;&gt;14</title>
<g id="a_edge37"><a xlink:title="include">
<path fill="none" stroke="#1414ce" d="M123.11,-71.88C108.21,-62.72 89.67,-51.34 73.62,-41.48"/>
<polygon fill="#1414ce" stroke="#1414ce" points="75.35,-38.44 64.99,-36.19 71.69,-44.41 75.35,-38.44"/>
</a>
</g>
</g>
<!-- 13&#45;&gt;6 -->
<g id="edge40" class="edge">
<title>13&#45;&gt;6</title>
<g id="a_edge40"><a xlink:title="include">
<path fill="none" stroke="#1414ce" d="M213.92,-74.47C218.67,-73.57 223.4,-72.73 228,-72 407.84,-43.36 624.24,-27.62 717.51,-21.73"/>
<polygon fill="#1414ce" stroke="#1414ce" points="717.97,-25.21 727.74,-21.09 717.54,-18.22 717.97,-25.21"/>
</a>
</g>
</g>
<!-- 13&#45;&gt;15 -->
<g id="edge38" class="edge">
<title>13&#45;&gt;15</title>
<g id="a_edge38"><a xlink:title="include">
<path fill="none" stroke="#1414ce" d="M172.01,-71.7C182.72,-62.88 195.89,-52.03 207.5,-42.47"/>
<polygon fill="#1414ce" stroke="#1414ce" points="209.74,-45.16 215.23,-36.1 205.29,-39.76 209.74,-45.16"/>
</a>
</g>
</g>
<!-- 16 -->
<g id="node26" class="node">
<title>16</title>
<g id="a_node26"><a xlink:title="inttypes.h">
<polygon fill="#ffffff" stroke="black" points="182.5,-36 93.5,-36 93.5,0 182.5,0 182.5,-36"/>
<text text-anchor="middle" x="138" y="-14.3" font-family="Times,serif" font-size="14.00">inttypes.h</text>
</a>
</g>
</g>
<!-- 13&#45;&gt;16 -->
<g id="edge39" class="edge">
<title>13&#45;&gt;16</title>
<g id="a_edge39"><a xlink:title="include">
<path fill="none" stroke="#1414ce" d="M147.79,-71.7C146.35,-63.98 144.63,-54.71 143.04,-46.11"/>
<polygon fill="#1414ce" stroke="#1414ce" points="146.44,-45.3 141.18,-36.1 139.56,-46.58 146.44,-45.3"/>
</a>
</g>
</g>
<!-- 1 -->
<g id="node19" class="node">
<title>1</title>
<g id="a_node19"><a xlink:title="/__w/AtomVM/AtomVM/src/libAtomVM/bitstring.c">
<polygon fill="#bfbfbf" stroke="black" points="1359,-612 991,-612 991,-576 1359,-576 1359,-612"/>
<text text-anchor="middle" x="1175" y="-590.3" font-family="Times,serif" font-size="14.00">/__w/AtomVM/AtomVM/src/libAtomVM/bitstring.c</text>
</a>
</g>
</g>
<!-- 1&#45;&gt;14 -->
<g id="edge42" class="edge">
<title>1&#45;&gt;14</title>
<g id="a_edge42"><a xlink:title="include">
<path fill="none" stroke="#1414ce" d="M990.73,-588.59C667.9,-578.39 34,-546.22 34,-451 34,-451 34,-451 34,-161 34,-120.99 35.21,-74.65 36.09,-46.08"/>
<polygon fill="#1414ce" stroke="#1414ce" points="39.59,-46.15 36.41,-36.05 32.59,-45.93 39.59,-46.15"/>
</a>
</g>
</g>
<!-- 2 -->
<g id="node20" class="node">
<title>2</title>
<g id="a_node20"><a xlink:title="bitstring.h">
<polygon fill="#ffffff" stroke="black" points="1221,-540 1129,-540 1129,-504 1221,-504 1221,-540"/>
<text text-anchor="middle" x="1175" y="-518.3" font-family="Times,serif" font-size="14.00">bitstring.h</text>
</a>
</g>
</g>
<!-- 1&#45;&gt;2 -->
<g id="edge41" class="edge">
<title>1&#45;&gt;2</title>
<g id="a_edge41"><a xlink:title="include">
<path fill="none" stroke="#1414ce" d="M1175,-575.7C1175,-567.98 1175,-558.71 1175,-550.11"/>
<polygon fill="#1414ce" stroke="#1414ce" points="1178.5,-550.1 1175,-540.1 1171.5,-550.1 1178.5,-550.1"/>
</a>
</g>
</g>
<!-- 26 -->
<g id="node22" class="node">
<title>26</title>
<g id="a_node22"><a xlink:title="math.h">
<polygon fill="#ffffff" stroke="black" points="1306.5,-540 1239.5,-540 1239.5,-504 1306.5,-504 1306.5,-540"/>
<text text-anchor="middle" x="1273" y="-518.3" font-family="Times,serif" font-size="14.00">math.h</text>
</a>
</g>
</g>
<!-- 1&#45;&gt;26 -->
<g id="edge43" class="edge">
<title>1&#45;&gt;26</title>
<g id="a_edge43"><a xlink:title="include">
<path fill="none" stroke="#1414ce" d="M1198.97,-575.88C1211.55,-566.89 1227.13,-555.76 1240.75,-546.03"/>
<polygon fill="#1414ce" stroke="#1414ce" points="1242.83,-548.85 1248.93,-540.19 1238.76,-543.15 1242.83,-548.85"/>
</a>
</g>
</g>
<!-- 2&#45;&gt;5 -->
<g id="edge46" class="edge">
<title>2&#45;&gt;5</title>
<g id="a_edge46"><a xlink:title="include">
<path fill="none" stroke="#1414ce" d="M1190.41,-503.58C1211.29,-478.1 1246,-428.34 1246,-379 1246,-379 1246,-379 1246,-233 1246,-192.55 1255.67,-172.53 1227,-144 1199.08,-116.21 1090.76,-101.65 1024.92,-95.22"/>
<polygon fill="#1414ce" stroke="#1414ce" points="1025.03,-91.71 1014.74,-94.26 1024.37,-98.68 1025.03,-91.71"/>
</a>
</g>
</g>
<!-- 2&#45;&gt;6 -->
<g id="edge47" class="edge">
<title>2&#45;&gt;6</title>
<g id="a_edge47"><a xlink:title="include">
<path fill="none" stroke="#1414ce" d="M1200.56,-503.89C1232.77,-480.04 1284,-433.54 1284,-379 1284,-379 1284,-379 1284,-161 1284,-63.26 937.81,-30.48 810.37,-21.73"/>
<polygon fill="#1414ce" stroke="#1414ce" points="810.36,-18.22 800.15,-21.05 809.9,-25.2 810.36,-18.22"/>
</a>
</g>
</g>
<!-- 2&#45;&gt;3 -->
<g id="edge44" class="edge">
<title>2&#45;&gt;3</title>
<g id="a_edge44"><a xlink:title="include">
<path fill="none" stroke="#1414ce" d="M1128.86,-516.3C1002.57,-503.43 652.6,-467.77 530.6,-455.34"/>
<polygon fill="#1414ce" stroke="#1414ce" points="530.83,-451.85 520.53,-454.31 530.12,-458.81 530.83,-451.85"/>
</a>
</g>
</g>
<!-- 25 -->
<g id="node23" class="node">
<title>25</title>
<g id="a_node23"><a xlink:title="unicode.h">
<polygon fill="#ffffff" stroke="black" points="1218,-180 1132,-180 1132,-144 1218,-144 1218,-180"/>
<text text-anchor="middle" x="1175" y="-158.3" font-family="Times,serif" font-size="14.00">unicode.h</text>
</a>
</g>
</g>
<!-- 2&#45;&gt;25 -->
<g id="edge45" class="edge">
<title>2&#45;&gt;25</title>
<g id="a_edge45"><a xlink:title="include">
<path fill="none" stroke="#1414ce" d="M1175,-503.95C1175,-477.29 1175,-424.11 1175,-379 1175,-379 1175,-379 1175,-305 1175,-265 1175,-218.65 1175,-190.08"/>
<polygon fill="#1414ce" stroke="#1414ce" points="1178.5,-190.05 1175,-180.05 1171.5,-190.05 1178.5,-190.05"/>
</a>
</g>
</g>
<!-- 24&#45;&gt;5 -->
<g id="edge48" class="edge">
<title>24&#45;&gt;5</title>
<g id="a_edge48"><a xlink:title="include">
<path fill="none" stroke="#1414ce" d="M844.28,-147.67C867.07,-137.64 898.76,-123.69 924.99,-112.14"/>
<polygon fill="#1414ce" stroke="#1414ce" points="926.64,-115.23 934.38,-108 923.82,-108.83 926.64,-115.23"/>
</a>
</g>
</g>
<!-- 25&#45;&gt;5 -->
<g id="edge49" class="edge">
<title>25&#45;&gt;5</title>
<g id="a_edge49"><a xlink:title="include">
<path fill="none" stroke="#1414ce" d="M1131.67,-145.98C1100.12,-135.05 1057.28,-120.21 1024.07,-108.7"/>
<polygon fill="#1414ce" stroke="#1414ce" points="1025.13,-105.36 1014.54,-105.39 1022.84,-111.98 1025.13,-105.36"/>
</a>
</g>
</g>
<!-- 25&#45;&gt;6 -->
<g id="edge51" class="edge">
<title>25&#45;&gt;6</title>
<g id="a_edge51"><a xlink:title="include">
<path fill="none" stroke="#1414ce" d="M1155.98,-144C1132.08,-123.6 1088.95,-89.9 1046,-72 967.22,-39.17 867.57,-26.54 810.28,-21.78"/>
<polygon fill="#1414ce" stroke="#1414ce" points="810.33,-18.28 800.09,-20.98 809.78,-25.26 810.33,-18.28"/>
</a>
</g>
</g>
<!-- 25&#45;&gt;18 -->
<g id="edge50" class="edge">
<title>25&#45;&gt;18</title>
<g id="a_edge50"><a xlink:title="include">
<path fill="none" stroke="#1414ce" d="M1131.74,-151.93C1081.54,-141.4 996.27,-123.49 923,-108 912.37,-105.75 900.94,-103.33 890.15,-101.04"/>
<polygon fill="#1414ce" stroke="#1414ce" points="890.55,-97.54 880.04,-98.89 889.09,-104.39 890.55,-97.54"/>
</a>
</g>
</g>
<!-- 22&#45;&gt;5 -->
<g id="edge52" class="edge">
<title>22&#45;&gt;5</title>
<g id="a_edge52"><a xlink:title="include">
<path fill="none" stroke="#1414ce" d="M673.48,-215.75C695.87,-195.74 735.53,-163.06 775,-144 800.63,-131.62 871.55,-114.02 921.15,-102.55"/>
<polygon fill="#1414ce" stroke="#1414ce" points="922.11,-105.92 931.07,-100.27 920.54,-99.1 922.11,-105.92"/>
</a>
</g>
</g>
<!-- 22&#45;&gt;17 -->
<g id="edge55" class="edge">
<title>22&#45;&gt;17</title>
<g id="a_edge55"><a xlink:title="include">
<path fill="none" stroke="#1414ce" d="M637.2,-215.7C628.4,-207.14 617.62,-196.66 608,-187.3"/>
<polygon fill="#1414ce" stroke="#1414ce" points="610.2,-184.57 600.59,-180.1 605.32,-189.58 610.2,-184.57"/>
</a>
</g>
</g>
<!-- 22&#45;&gt;20 -->
<g id="edge53" class="edge">
<title>22&#45;&gt;20</title>
<g id="a_edge53"><a xlink:title="include">
<path fill="none" stroke="#1414ce" d="M698.17,-223.8C736.62,-215.09 794.39,-200.72 852.07,-180.03"/>
<polygon fill="#1414ce" stroke="#1414ce" points="853.51,-183.23 861.7,-176.51 851.11,-176.65 853.51,-183.23"/>
</a>
</g>
</g>
<!-- 22&#45;&gt;13 -->
<g id="edge54" class="edge">
<title>22&#45;&gt;13</title>
<g id="a_edge54"><a xlink:title="include">
<path fill="none" stroke="#1414ce" d="M617.76,-215.84C573.57,-196.06 497.25,-163.76 429,-144 360.44,-124.15 280.16,-109.76 223.55,-101.03"/>
<polygon fill="#1414ce" stroke="#1414ce" points="224.03,-97.56 213.62,-99.52 222.98,-104.48 224.03,-97.56"/>
</a>
</g>
</g>
</g>
</svg>
