<?xml version="1.0" encoding="UTF-8" standalone="no"?>
<!DOCTYPE svg PUBLIC "-//W3C//DTD SVG 1.1//EN"
 "http://www.w3.org/Graphics/SVG/1.1/DTD/svg11.dtd">
<!-- Generated by graphviz version 2.43.0 (0)
 -->
<!-- Title: %3 Pages: 1 -->
<svg width="1478pt" height="476pt"
 viewBox="0.00 0.00 1478.00 476.00" xmlns="http://www.w3.org/2000/svg" xmlns:xlink="http://www.w3.org/1999/xlink">
<g id="graph0" class="graph" transform="scale(1 1) rotate(0) translate(4 472)">
<title>%3</title>
<polygon fill="transparent" stroke="transparent" points="-4,4 -4,-472 1474,-472 1474,4 -4,4"/>
<!-- 12 -->
<g id="node1" class="node">
<title>12</title>
<g id="a_node1"><a xlink:title="AtomTable">
<polygon fill="#ffffff" stroke="black" points="167,-324 75,-324 75,-288 167,-288 167,-324"/>
<text text-anchor="middle" x="121" y="-302.3" font-family="Times,serif" font-size="14.00">AtomTable</text>
</a>
</g>
</g>
<!-- 13 -->
<g id="node7" class="node">
<title>13</title>
<g id="a_node7"><a xlink:title="HNode">
<polygon fill="#ffffff" stroke="black" points="154,-180 88,-180 88,-144 154,-144 154,-180"/>
<text text-anchor="middle" x="121" y="-158.3" font-family="Times,serif" font-size="14.00">HNode</text>
</a>
</g>
</g>
<!-- 12&#45;&gt;13 -->
<g id="edge1" class="edge">
<title>12&#45;&gt;13</title>
<g id="a_edge1"><a xlink:title="usage">
<path fill="none" stroke="#1414ce" d="M90.23,-287.91C77.46,-279.02 64,-266.88 57,-252 50.19,-237.52 50.19,-230.48 57,-216 62.52,-204.26 72.07,-194.22 82.12,-186.15"/>
<polygon fill="#1414ce" stroke="#1414ce" points="84.31,-188.88 90.23,-180.09 80.12,-183.27 84.31,-188.88"/>
</a>
</g>
</g>
<!-- 16 -->
<g id="node8" class="node">
<title>16</title>
<g id="a_node8"><a xlink:title="HNodeGroup">
<polygon fill="#ffffff" stroke="black" points="176,-252 66,-252 66,-216 176,-216 176,-252"/>
<text text-anchor="middle" x="121" y="-230.3" font-family="Times,serif" font-size="14.00">HNodeGroup</text>
</a>
</g>
</g>
<!-- 12&#45;&gt;16 -->
<g id="edge2" class="edge">
<title>12&#45;&gt;16</title>
<g id="a_edge2"><a xlink:title="usage">
<path fill="none" stroke="#1414ce" d="M121,-287.7C121,-279.98 121,-270.71 121,-262.11"/>
<polygon fill="#1414ce" stroke="#1414ce" points="124.5,-262.1 121,-252.1 117.5,-262.1 124.5,-262.1"/>
</a>
</g>
</g>
<!-- 19 -->
<g id="node2" class="node">
<title>19</title>
<g id="a_node2"><a xlink:title="Context">
<polygon fill="#ffffff" stroke="black" points="1270.5,-468 1197.5,-468 1197.5,-432 1270.5,-432 1270.5,-468"/>
<text text-anchor="middle" x="1234" y="-446.3" font-family="Times,serif" font-size="14.00">Context</text>
</a>
</g>
</g>
<!-- 19&#45;&gt;19 -->
<g id="edge8" class="edge">
<title>19&#45;&gt;19</title>
<g id="a_edge8"><a xlink:title="usage">
<path fill="none" stroke="#1414ce" d="M1270.68,-463.42C1280.78,-462.77 1288.5,-458.3 1288.5,-450 1288.5,-444.81 1285.48,-441.12 1280.76,-438.93"/>
<polygon fill="#1414ce" stroke="#1414ce" points="1281.21,-435.44 1270.68,-436.58 1279.63,-442.26 1281.21,-435.44"/>
</a>
</g>
</g>
<!-- 2 -->
<g id="node6" class="node">
<title>2</title>
<g id="a_node6"><a xlink:title="GlobalContext">
<polygon fill="#ffffff" stroke="black" points="870.5,-396 751.5,-396 751.5,-360 870.5,-360 870.5,-396"/>
<text text-anchor="middle" x="811" y="-374.3" font-family="Times,serif" font-size="14.00">GlobalContext</text>
</a>
</g>
</g>
<!-- 19&#45;&gt;2 -->
<g id="edge3" class="edge">
<title>19&#45;&gt;2</title>
<g id="a_edge3"><a xlink:title="usage">
<path fill="none" stroke="#1414ce" d="M1197.2,-442.91C1126.68,-431.24 971.46,-405.55 880.74,-390.54"/>
<polygon fill="#1414ce" stroke="#1414ce" points="881.25,-387.08 870.81,-388.9 880.11,-393.98 881.25,-387.08"/>
</a>
</g>
</g>
<!-- 14 -->
<g id="node9" class="node">
<title>14</title>
<g id="a_node9"><a xlink:title="Heap">
<polygon fill="#ffffff" stroke="black" points="148,-108 94,-108 94,-72 148,-72 148,-108"/>
<text text-anchor="middle" x="121" y="-86.3" font-family="Times,serif" font-size="14.00">Heap</text>
</a>
</g>
</g>
<!-- 19&#45;&gt;14 -->
<g id="edge4" class="edge">
<title>19&#45;&gt;14</title>
<g id="a_edge4"><a xlink:title="usage">
<path fill="none" stroke="#1414ce" d="M1197.49,-446.87C1034.11,-436.86 378,-391.41 378,-307 378,-307 378,-307 378,-233 378,-133.84 229.63,-103.39 158.35,-94.48"/>
<polygon fill="#1414ce" stroke="#1414ce" points="158.36,-90.96 148.02,-93.27 157.54,-97.91 158.36,-90.96"/>
</a>
</g>
</g>
<!-- 3 -->
<g id="node11" class="node">
<title>3</title>
<g id="a_node11"><a xlink:title="ListHead">
<polygon fill="#ffffff" stroke="black" points="898.5,-36 817.5,-36 817.5,0 898.5,0 898.5,-36"/>
<text text-anchor="middle" x="858" y="-14.3" font-family="Times,serif" font-size="14.00">ListHead</text>
</a>
</g>
</g>
<!-- 19&#45;&gt;3 -->
<g id="edge5" class="edge">
<title>19&#45;&gt;3</title>
<g id="a_edge5"><a xlink:title="usage">
<path fill="none" stroke="#1414ce" d="M1270.62,-444.07C1336.9,-432.87 1470,-398.93 1470,-307 1470,-307 1470,-307 1470,-161 1470,-46.1 1055.45,-24.14 908.72,-19.97"/>
<polygon fill="#1414ce" stroke="#1414ce" points="908.72,-16.47 898.63,-19.7 908.53,-23.47 908.72,-16.47"/>
</a>
</g>
</g>
<!-- 21 -->
<g id="node13" class="node">
<title>21</title>
<g id="a_node13"><a xlink:title="Mailbox">
<polygon fill="#ffffff" stroke="black" points="1197,-396 1123,-396 1123,-360 1197,-360 1197,-396"/>
<text text-anchor="middle" x="1160" y="-374.3" font-family="Times,serif" font-size="14.00">Mailbox</text>
</a>
</g>
</g>
<!-- 19&#45;&gt;21 -->
<g id="edge9" class="edge">
<title>19&#45;&gt;21</title>
<g id="a_edge9"><a xlink:title="usage">
<path fill="none" stroke="#1414ce" d="M1215.71,-431.7C1206.57,-423.05 1195.36,-412.45 1185.4,-403.03"/>
<polygon fill="#1414ce" stroke="#1414ce" points="1187.75,-400.43 1178.08,-396.1 1182.94,-405.52 1187.75,-400.43"/>
</a>
</g>
</g>
<!-- 18 -->
<g id="node16" class="node">
<title>18</title>
<g id="a_node16"><a xlink:title="Module">
<polygon fill="#ffffff" stroke="black" points="1269,-324 1199,-324 1199,-288 1269,-288 1269,-324"/>
<text text-anchor="middle" x="1234" y="-302.3" font-family="Times,serif" font-size="14.00">Module</text>
</a>
</g>
</g>
<!-- 19&#45;&gt;18 -->
<g id="edge7" class="edge">
<title>19&#45;&gt;18</title>
<g id="a_edge7"><a xlink:title="usage">
<path fill="none" stroke="#1414ce" d="M1229.42,-431.87C1226.86,-407.67 1226.57,-363.21 1228.54,-334.39"/>
<polygon fill="#1414ce" stroke="#1414ce" points="1232.05,-334.45 1229.41,-324.19 1225.07,-333.86 1232.05,-334.45"/>
</a>
</g>
</g>
<!-- 20 -->
<g id="node23" class="node">
<title>20</title>
<g id="a_node23"><a xlink:title="TimerListItem">
<polygon fill="#ffffff" stroke="black" points="1278.5,-180 1159.5,-180 1159.5,-144 1278.5,-144 1278.5,-180"/>
<text text-anchor="middle" x="1219" y="-158.3" font-family="Times,serif" font-size="14.00">TimerListItem</text>
</a>
</g>
</g>
<!-- 19&#45;&gt;20 -->
<g id="edge6" class="edge">
<title>19&#45;&gt;20</title>
<g id="a_edge6"><a xlink:title="usage">
<path fill="none" stroke="#1414ce" d="M1265.33,-431.78C1331.55,-393.21 1474.75,-296.89 1413,-216 1397.69,-195.94 1337.82,-181.64 1288.59,-172.99"/>
<polygon fill="#1414ce" stroke="#1414ce" points="1289.04,-169.51 1278.59,-171.28 1287.86,-176.41 1289.04,-169.51"/>
</a>
</g>
</g>
<!-- 1 -->
<g id="node3" class="node">
<title>1</title>
<g id="a_node3"><a xlink:title="ErlNifEnv">
<polygon fill="#bfbfbf" stroke="black" points="450,-468 362,-468 362,-432 450,-432 450,-468"/>
<text text-anchor="middle" x="406" y="-446.3" font-family="Times,serif" font-size="14.00">ErlNifEnv</text>
</a>
</g>
</g>
<!-- 1&#45;&gt;2 -->
<g id="edge10" class="edge">
<title>1&#45;&gt;2</title>
<g id="a_edge10"><a xlink:title="usage">
<path fill="none" stroke="#1414ce" d="M450.11,-441.38C520.25,-429.25 657.77,-405.48 741.32,-391.04"/>
<polygon fill="#1414ce" stroke="#1414ce" points="741.98,-394.48 751.23,-389.33 740.78,-387.58 741.98,-394.48"/>
</a>
</g>
</g>
<!-- 1&#45;&gt;14 -->
<g id="edge11" class="edge">
<title>1&#45;&gt;14</title>
<g id="a_edge11"><a xlink:title="usage">
<path fill="none" stroke="#1414ce" d="M361.78,-443.12C256.55,-427.89 0,-382.98 0,-307 0,-307 0,-307 0,-233 0,-180 49.44,-136.74 85.11,-112.42"/>
<polygon fill="#1414ce" stroke="#1414ce" points="87.43,-115.08 93.85,-106.65 83.57,-109.24 87.43,-115.08"/>
</a>
</g>
</g>
<!-- 11 -->
<g id="node4" class="node">
<title>11</title>
<g id="a_node4"><a xlink:title="Ets">
<polygon fill="#ffffff" stroke="black" points="940,-180 886,-180 886,-144 940,-144 940,-180"/>
<text text-anchor="middle" x="913" y="-158.3" font-family="Times,serif" font-size="14.00">Ets</text>
</a>
</g>
</g>
<!-- 10 -->
<g id="node21" class="node">
<title>10</title>
<g id="a_node21"><a xlink:title="SyncList">
<polygon fill="#ffffff" stroke="black" points="897,-108 819,-108 819,-72 897,-72 897,-108"/>
<text text-anchor="middle" x="858" y="-86.3" font-family="Times,serif" font-size="14.00">SyncList</text>
</a>
</g>
</g>
<!-- 11&#45;&gt;10 -->
<g id="edge12" class="edge">
<title>11&#45;&gt;10</title>
<g id="a_edge12"><a xlink:title="usage">
<path fill="none" stroke="#1414ce" d="M899.4,-143.7C892.88,-135.39 884.93,-125.28 877.75,-116.14"/>
<polygon fill="#1414ce" stroke="#1414ce" points="880.37,-113.81 871.44,-108.1 874.87,-118.13 880.37,-113.81"/>
</a>
</g>
</g>
<!-- 22 -->
<g id="node5" class="node">
<title>22</title>
<g id="a_node5"><a xlink:title="ExportedFunction">
<polygon fill="#ffffff" stroke="black" points="1282,-252 1136,-252 1136,-216 1282,-216 1282,-252"/>
<text text-anchor="middle" x="1209" y="-230.3" font-family="Times,serif" font-size="14.00">ExportedFunction</text>
</a>
</g>
</g>
<!-- 2&#45;&gt;12 -->
<g id="edge19" class="edge">
<title>2&#45;&gt;12</title>
<g id="a_edge19"><a xlink:title="usage">
<path fill="none" stroke="#1414ce" d="M751.27,-370.94C619.63,-357.59 306.01,-325.77 177.45,-312.73"/>
<polygon fill="#1414ce" stroke="#1414ce" points="177.72,-309.24 167.42,-311.71 177.01,-316.2 177.72,-309.24"/>
</a>
</g>
</g>
<!-- 2&#45;&gt;11 -->
<g id="edge18" class="edge">
<title>2&#45;&gt;11</title>
<g id="a_edge18"><a xlink:title="usage">
<path fill="none" stroke="#1414ce" d="M837.18,-359.92C849.44,-350.66 863.24,-338.21 872,-324 897.95,-281.9 907.53,-223.98 911.03,-190.31"/>
<polygon fill="#1414ce" stroke="#1414ce" points="914.52,-190.57 911.96,-180.28 907.55,-189.92 914.52,-190.57"/>
</a>
</g>
</g>
<!-- 2&#45;&gt;3 -->
<g id="edge13" class="edge">
<title>2&#45;&gt;3</title>
<g id="a_edge13"><a xlink:title="usage">
<path fill="none" stroke="#1414ce" d="M751.48,-371.07C689.35,-363.65 597.59,-348.8 573,-324 544.53,-295.27 554,-275.45 554,-235 554,-235 554,-235 554,-161 554,-50.59 720.65,-25.83 807.18,-20.42"/>
<polygon fill="#1414ce" stroke="#1414ce" points="807.53,-23.9 817.32,-19.85 807.14,-16.91 807.53,-23.9"/>
</a>
</g>
</g>
<!-- 5 -->
<g id="node15" class="node">
<title>5</title>
<g id="a_node15"><a xlink:title="MessageQueueItem">
<polygon fill="#ffffff" stroke="black" points="1120,-324 962,-324 962,-288 1120,-288 1120,-324"/>
<text text-anchor="middle" x="1041" y="-302.3" font-family="Times,serif" font-size="14.00">MessageQueueItem</text>
</a>
</g>
</g>
<!-- 2&#45;&gt;5 -->
<g id="edge15" class="edge">
<title>2&#45;&gt;5</title>
<g id="a_edge15"><a xlink:title="usage">
<path fill="none" stroke="#1414ce" d="M866.97,-359.97C899.53,-350.06 940.74,-337.51 974.89,-327.12"/>
<polygon fill="#1414ce" stroke="#1414ce" points="976.23,-330.37 984.78,-324.11 974.19,-323.67 976.23,-330.37"/>
</a>
</g>
</g>
<!-- 2&#45;&gt;18 -->
<g id="edge21" class="edge">
<title>2&#45;&gt;18</title>
<g id="a_edge21"><a xlink:title="usage">
<path fill="none" stroke="#1414ce" d="M870.59,-368.27C937.84,-358.27 1050.46,-341.04 1147,-324 1160.65,-321.59 1175.46,-318.77 1188.92,-316.13"/>
<polygon fill="#1414ce" stroke="#1414ce" points="1189.79,-319.53 1198.92,-314.16 1188.43,-312.66 1189.79,-319.53"/>
</a>
</g>
</g>
<!-- 7 -->
<g id="node18" class="node">
<title>7</title>
<g id="a_node18"><a xlink:title="RefcBinaryQueueItem">
<polygon fill="#ffffff" stroke="black" points="756,-324 582,-324 582,-288 756,-288 756,-324"/>
<text text-anchor="middle" x="669" y="-302.3" font-family="Times,serif" font-size="14.00">RefcBinaryQueueItem</text>
</a>
</g>
</g>
<!-- 2&#45;&gt;7 -->
<g id="edge16" class="edge">
<title>2&#45;&gt;7</title>
<g id="a_edge16"><a xlink:title="usage">
<path fill="none" stroke="#1414ce" d="M776.26,-359.88C757.18,-350.47 733.32,-338.71 712.95,-328.67"/>
<polygon fill="#1414ce" stroke="#1414ce" points="714.39,-325.47 703.87,-324.19 711.29,-331.75 714.39,-325.47"/>
</a>
</g>
</g>
<!-- 9 -->
<g id="node19" class="node">
<title>9</title>
<g id="a_node19"><a xlink:title="ResourceType">
<polygon fill="#ffffff" stroke="black" points="829.5,-180 712.5,-180 712.5,-144 829.5,-144 829.5,-180"/>
<text text-anchor="middle" x="771" y="-158.3" font-family="Times,serif" font-size="14.00">ResourceType</text>
</a>
</g>
</g>
<!-- 2&#45;&gt;9 -->
<g id="edge23" class="edge">
<title>2&#45;&gt;9</title>
<g id="a_edge23"><a xlink:title="usage">
<path fill="none" stroke="#1414ce" d="M803.92,-359.85C793.46,-322.83 776.81,-235.18 771.43,-190.39"/>
<polygon fill="#1414ce" stroke="#1414ce" points="774.88,-189.8 770.34,-180.23 767.92,-190.55 774.88,-189.8"/>
</a>
</g>
</g>
<!-- 4 -->
<g id="node20" class="node">
<title>4</title>
<g id="a_node20"><a xlink:title="SpinLock">
<polygon fill="#ffffff" stroke="black" points="526,-324 444,-324 444,-288 526,-288 526,-324"/>
<text text-anchor="middle" x="485" y="-302.3" font-family="Times,serif" font-size="14.00">SpinLock</text>
</a>
</g>
</g>
<!-- 2&#45;&gt;4 -->
<g id="edge14" class="edge">
<title>2&#45;&gt;4</title>
<g id="a_edge14"><a xlink:title="usage">
<path fill="none" stroke="#1414ce" d="M751.39,-367.23C696.21,-357.73 612.06,-342.13 540,-324 538.58,-323.64 537.14,-323.27 535.68,-322.88"/>
<polygon fill="#1414ce" stroke="#1414ce" points="536.58,-319.5 526.01,-320.2 534.71,-326.25 536.58,-319.5"/>
</a>
</g>
</g>
<!-- 2&#45;&gt;10 -->
<g id="edge17" class="edge">
<title>2&#45;&gt;10</title>
<g id="a_edge17"><a xlink:title="usage">
<path fill="none" stroke="#1414ce" d="M813.95,-359.82C815.72,-349.45 818.01,-335.97 820,-324 832.38,-249.64 846.58,-161.87 853.6,-118.33"/>
<polygon fill="#1414ce" stroke="#1414ce" points="857.09,-118.68 855.23,-108.25 850.18,-117.57 857.09,-118.68"/>
</a>
</g>
</g>
<!-- 24 -->
<g id="node22" class="node">
<title>24</title>
<g id="a_node22"><a xlink:title="TimerList">
<polygon fill="#ffffff" stroke="black" points="1006,-108 920,-108 920,-72 1006,-72 1006,-108"/>
<text text-anchor="middle" x="963" y="-86.3" font-family="Times,serif" font-size="14.00">TimerList</text>
</a>
</g>
</g>
<!-- 2&#45;&gt;24 -->
<g id="edge22" class="edge">
<title>2&#45;&gt;24</title>
<g id="a_edge22"><a xlink:title="usage">
<path fill="none" stroke="#1414ce" d="M848.34,-359.88C864.2,-351.06 881.8,-338.98 894,-324 944.19,-262.4 957.87,-165.34 961.61,-118.32"/>
<polygon fill="#1414ce" stroke="#1414ce" points="965.1,-118.51 962.31,-108.29 958.12,-118.02 965.1,-118.51"/>
</a>
</g>
</g>
<!-- 17 -->
<g id="node24" class="node">
<title>17</title>
<g id="a_node24"><a xlink:title="ValuesHashTable">
<polygon fill="#ffffff" stroke="black" points="350,-252 212,-252 212,-216 350,-216 350,-252"/>
<text text-anchor="middle" x="281" y="-230.3" font-family="Times,serif" font-size="14.00">ValuesHashTable</text>
</a>
</g>
</g>
<!-- 2&#45;&gt;17 -->
<g id="edge20" class="edge">
<title>2&#45;&gt;17</title>
<g id="a_edge20"><a xlink:title="usage">
<path fill="none" stroke="#1414ce" d="M751.4,-375.59C675.85,-372.25 542.51,-361.07 435,-324 389.43,-308.29 342.18,-278.65 312.24,-257.91"/>
<polygon fill="#1414ce" stroke="#1414ce" points="314.09,-254.93 303.89,-252.05 310.07,-260.66 314.09,-254.93"/>
</a>
</g>
</g>
<!-- 13&#45;&gt;13 -->
<g id="edge24" class="edge">
<title>13&#45;&gt;13</title>
<g id="a_edge24"><a xlink:title="usage">
<path fill="none" stroke="#1414ce" d="M154.35,-175.47C164.28,-175.07 172,-170.58 172,-162 172,-156.64 168.98,-152.87 164.3,-150.71"/>
<polygon fill="#1414ce" stroke="#1414ce" points="164.87,-147.25 154.35,-148.53 163.37,-154.09 164.87,-147.25"/>
</a>
</g>
</g>
<!-- 13&#45;&gt;14 -->
<g id="edge25" class="edge">
<title>13&#45;&gt;14</title>
<g id="a_edge25"><a xlink:title="usage">
<path fill="none" stroke="#1414ce" d="M121,-143.7C121,-135.98 121,-126.71 121,-118.11"/>
<polygon fill="#1414ce" stroke="#1414ce" points="124.5,-118.1 121,-108.1 117.5,-118.1 124.5,-118.1"/>
</a>
</g>
</g>
<!-- 16&#45;&gt;13 -->
<g id="edge27" class="edge">
<title>16&#45;&gt;13</title>
<g id="a_edge27"><a xlink:title="usage">
<path fill="none" stroke="#1414ce" d="M121,-215.7C121,-207.98 121,-198.71 121,-190.11"/>
<polygon fill="#1414ce" stroke="#1414ce" points="124.5,-190.1 121,-180.1 117.5,-190.1 124.5,-190.1"/>
</a>
</g>
</g>
<!-- 16&#45;&gt;16 -->
<g id="edge26" class="edge">
<title>16&#45;&gt;16</title>
<g id="a_edge26"><a xlink:title="usage">
<path fill="none" stroke="#1414ce" d="M176.07,-246.85C186.57,-245.32 194,-241.03 194,-234 194,-229.5 190.95,-226.12 186,-223.87"/>
<polygon fill="#1414ce" stroke="#1414ce" points="186.64,-220.42 176.07,-221.15 184.79,-227.17 186.64,-220.42"/>
</a>
</g>
</g>
<!-- 15 -->
<g id="node10" class="node">
<title>15</title>
<g id="a_node10"><a xlink:title="HeapFragment">
<polygon fill="#ffffff" stroke="black" points="183.5,-36 58.5,-36 58.5,0 183.5,0 183.5,-36"/>
<text text-anchor="middle" x="121" y="-14.3" font-family="Times,serif" font-size="14.00">HeapFragment</text>
</a>
</g>
</g>
<!-- 14&#45;&gt;15 -->
<g id="edge28" class="edge">
<title>14&#45;&gt;15</title>
<g id="a_edge28"><a xlink:title="usage">
<path fill="none" stroke="#1414ce" d="M121,-71.7C121,-63.98 121,-54.71 121,-46.11"/>
<polygon fill="#1414ce" stroke="#1414ce" points="124.5,-46.1 121,-36.1 117.5,-46.1 124.5,-46.1"/>
</a>
</g>
</g>
<!-- 15&#45;&gt;15 -->
<g id="edge29" class="edge">
<title>15&#45;&gt;15</title>
<g id="a_edge29"><a xlink:title="usage">
<path fill="none" stroke="#1414ce" d="M183.78,-30.55C194.26,-28.79 201.5,-24.61 201.5,-18 201.5,-13.77 198.53,-10.53 193.64,-8.29"/>
<polygon fill="#1414ce" stroke="#1414ce" points="194.36,-4.85 183.78,-5.45 192.42,-11.58 194.36,-4.85"/>
</a>
</g>
</g>
<!-- 3&#45;&gt;3 -->
<g id="edge30" class="edge">
<title>3&#45;&gt;3</title>
<g id="a_edge30"><a xlink:title="usage">
<path fill="none" stroke="#1414ce" d="M898.73,-31.31C908.9,-30.38 916.5,-25.95 916.5,-18 916.5,-12.91 913.38,-9.26 908.47,-7.05"/>
<polygon fill="#1414ce" stroke="#1414ce" points="909.28,-3.64 898.73,-4.69 907.63,-10.45 909.28,-3.64"/>
</a>
</g>
</g>
<!-- 23 -->
<g id="node12" class="node">
<title>23</title>
<g id="a_node12"><a xlink:title="LiteralEntry">
<polygon fill="#ffffff" stroke="black" points="1404,-252 1300,-252 1300,-216 1404,-216 1404,-252"/>
<text text-anchor="middle" x="1352" y="-230.3" font-family="Times,serif" font-size="14.00">LiteralEntry</text>
</a>
</g>
</g>
<!-- 6 -->
<g id="node14" class="node">
<title>6</title>
<g id="a_node14"><a xlink:title="MailboxMessage">
<polygon fill="#ffffff" stroke="black" points="1099.5,-252 962.5,-252 962.5,-216 1099.5,-216 1099.5,-252"/>
<text text-anchor="middle" x="1031" y="-230.3" font-family="Times,serif" font-size="14.00">MailboxMessage</text>
</a>
</g>
</g>
<!-- 21&#45;&gt;6 -->
<g id="edge31" class="edge">
<title>21&#45;&gt;6</title>
<g id="a_edge31"><a xlink:title="usage">
<path fill="none" stroke="#1414ce" d="M1162.05,-359.77C1163.41,-340.38 1162.65,-308.86 1147,-288 1136.67,-274.23 1121.92,-263.94 1106.38,-256.28"/>
<polygon fill="#1414ce" stroke="#1414ce" points="1107.72,-253.04 1097.17,-252.07 1104.81,-259.41 1107.72,-253.04"/>
</a>
</g>
</g>
<!-- 6&#45;&gt;6 -->
<g id="edge32" class="edge">
<title>6&#45;&gt;6</title>
<g id="a_edge32"><a xlink:title="usage">
<path fill="none" stroke="#1414ce" d="M1099.53,-246.37C1110.21,-244.52 1117.5,-240.4 1117.5,-234 1117.5,-229.8 1114.36,-226.58 1109.18,-224.34"/>
<polygon fill="#1414ce" stroke="#1414ce" points="1110.1,-220.96 1099.53,-221.63 1108.21,-227.7 1110.1,-220.96"/>
</a>
</g>
</g>
<!-- 5&#45;&gt;6 -->
<g id="edge34" class="edge">
<title>5&#45;&gt;6</title>
<g id="a_edge34"><a xlink:title="usage">
<path fill="none" stroke="#1414ce" d="M1038.53,-287.7C1037.43,-279.98 1036.1,-270.71 1034.87,-262.11"/>
<polygon fill="#1414ce" stroke="#1414ce" points="1038.32,-261.51 1033.44,-252.1 1031.39,-262.5 1038.32,-261.51"/>
</a>
</g>
</g>
<!-- 5&#45;&gt;5 -->
<g id="edge33" class="edge">
<title>5&#45;&gt;5</title>
<g id="a_edge33"><a xlink:title="usage">
<path fill="none" stroke="#1414ce" d="M1120.16,-317.98C1130.87,-315.97 1138,-311.98 1138,-306 1138,-302.08 1134.93,-299.01 1129.79,-296.8"/>
<polygon fill="#1414ce" stroke="#1414ce" points="1130.74,-293.43 1120.16,-294.02 1128.8,-300.15 1130.74,-293.43"/>
</a>
</g>
</g>
<!-- 18&#45;&gt;19 -->
<g id="edge35" class="edge">
<title>18&#45;&gt;19</title>
<g id="a_edge35"><a xlink:title="usage">
<path fill="none" stroke="#1414ce" d="M1238.59,-324.19C1241.15,-348.42 1241.43,-392.89 1239.45,-421.68"/>
<polygon fill="#1414ce" stroke="#1414ce" points="1235.95,-421.61 1238.58,-431.87 1242.92,-422.21 1235.95,-421.61"/>
</a>
</g>
</g>
<!-- 18&#45;&gt;22 -->
<g id="edge36" class="edge">
<title>18&#45;&gt;22</title>
<g id="a_edge36"><a xlink:title="usage">
<path fill="none" stroke="#1414ce" d="M1227.82,-287.7C1225,-279.81 1221.61,-270.3 1218.48,-261.55"/>
<polygon fill="#1414ce" stroke="#1414ce" points="1221.77,-260.34 1215.11,-252.1 1215.18,-262.7 1221.77,-260.34"/>
</a>
</g>
</g>
<!-- 18&#45;&gt;23 -->
<g id="edge37" class="edge">
<title>18&#45;&gt;23</title>
<g id="a_edge37"><a xlink:title="usage">
<path fill="none" stroke="#1414ce" d="M1262.87,-287.88C1278.29,-278.72 1297.48,-267.34 1314.1,-257.48"/>
<polygon fill="#1414ce" stroke="#1414ce" points="1316.21,-260.3 1323.02,-252.19 1312.64,-254.28 1316.21,-260.3"/>
</a>
</g>
</g>
<!-- 8 -->
<g id="node17" class="node">
<title>8</title>
<g id="a_node17"><a xlink:title="RefcBinary">
<polygon fill="#ffffff" stroke="black" points="731.5,-252 636.5,-252 636.5,-216 731.5,-216 731.5,-252"/>
<text text-anchor="middle" x="684" y="-230.3" font-family="Times,serif" font-size="14.00">RefcBinary</text>
</a>
</g>
</g>
<!-- 8&#45;&gt;3 -->
<g id="edge38" class="edge">
<title>8&#45;&gt;3</title>
<g id="a_edge38"><a xlink:title="usage">
<path fill="none" stroke="#1414ce" d="M684.7,-215.76C686.16,-196.92 690.6,-166.43 704,-144 731.11,-98.63 781.08,-62.73 816.74,-41.25"/>
<polygon fill="#1414ce" stroke="#1414ce" points="818.64,-44.2 825.48,-36.11 815.08,-38.17 818.64,-44.2"/>
</a>
</g>
</g>
<!-- 8&#45;&gt;9 -->
<g id="edge39" class="edge">
<title>8&#45;&gt;9</title>
<g id="a_edge39"><a xlink:title="usage">
<path fill="none" stroke="#1414ce" d="M705.51,-215.7C716.46,-206.88 729.95,-196.03 741.82,-186.47"/>
<polygon fill="#1414ce" stroke="#1414ce" points="744.14,-189.1 749.74,-180.1 739.76,-183.65 744.14,-189.1"/>
</a>
</g>
</g>
<!-- 7&#45;&gt;8 -->
<g id="edge41" class="edge">
<title>7&#45;&gt;8</title>
<g id="a_edge41"><a xlink:title="usage">
<path fill="none" stroke="#1414ce" d="M672.71,-287.7C674.36,-279.98 676.35,-270.71 678.19,-262.11"/>
<polygon fill="#1414ce" stroke="#1414ce" points="681.66,-262.62 680.33,-252.1 674.82,-261.15 681.66,-262.62"/>
</a>
</g>
</g>
<!-- 7&#45;&gt;7 -->
<g id="edge40" class="edge">
<title>7&#45;&gt;7</title>
<g id="a_edge40"><a xlink:title="usage">
<path fill="none" stroke="#1414ce" d="M756.3,-317.68C766.99,-315.59 774,-311.7 774,-306 774,-302.35 771.12,-299.44 766.25,-297.27"/>
<polygon fill="#1414ce" stroke="#1414ce" points="766.88,-293.81 756.3,-294.32 764.89,-300.52 766.88,-293.81"/>
</a>
</g>
</g>
<!-- 9&#45;&gt;2 -->
<g id="edge43" class="edge">
<title>9&#45;&gt;2</title>
<g id="a_edge43"><a xlink:title="usage">
<path fill="none" stroke="#1414ce" d="M778.11,-180.23C788.57,-217.32 805.22,-304.98 810.59,-349.71"/>
<polygon fill="#1414ce" stroke="#1414ce" points="807.13,-350.28 811.67,-359.85 814.09,-349.53 807.13,-350.28"/>
</a>
</g>
</g>
<!-- 9&#45;&gt;3 -->
<g id="edge42" class="edge">
<title>9&#45;&gt;3</title>
<g id="a_edge42"><a xlink:title="usage">
<path fill="none" stroke="#1414ce" d="M776.67,-143.78C783.19,-125.22 794.97,-95.23 810,-72 816.4,-62.11 824.66,-52.26 832.51,-43.79"/>
<polygon fill="#1414ce" stroke="#1414ce" points="835.17,-46.08 839.55,-36.43 830.11,-41.24 835.17,-46.08"/>
</a>
</g>
</g>
<!-- 9&#45;&gt;10 -->
<g id="edge44" class="edge">
<title>9&#45;&gt;10</title>
<g id="a_edge44"><a xlink:title="usage">
<path fill="none" stroke="#1414ce" d="M792.51,-143.7C803.46,-134.88 816.95,-124.03 828.82,-114.47"/>
<polygon fill="#1414ce" stroke="#1414ce" points="831.14,-117.1 836.74,-108.1 826.76,-111.65 831.14,-117.1"/>
</a>
</g>
</g>
<!-- 10&#45;&gt;3 -->
<g id="edge45" class="edge">
<title>10&#45;&gt;3</title>
<g id="a_edge45"><a xlink:title="usage">
<path fill="none" stroke="#1414ce" d="M858,-71.7C858,-63.98 858,-54.71 858,-46.11"/>
<polygon fill="#1414ce" stroke="#1414ce" points="861.5,-46.1 858,-36.1 854.5,-46.1 861.5,-46.1"/>
</a>
</g>
</g>
<!-- 24&#45;&gt;3 -->
<g id="edge46" class="edge">
<title>24&#45;&gt;3</title>
<g id="a_edge46"><a xlink:title="usage">
<path fill="none" stroke="#1414ce" d="M937.31,-71.88C923.71,-62.81 906.83,-51.55 892.14,-41.76"/>
<polygon fill="#1414ce" stroke="#1414ce" points="894.05,-38.82 883.78,-36.19 890.16,-44.65 894.05,-38.82"/>
</a>
</g>
</g>
<!-- 20&#45;&gt;3 -->
<g id="edge47" class="edge">
<title>20&#45;&gt;3</title>
<g id="a_edge47"><a xlink:title="usage">
<path fill="none" stroke="#1414ce" d="M1182.54,-143.96C1142.03,-125.3 1074.48,-94.96 1015,-72 979.77,-58.4 939.38,-44.81 908.39,-34.79"/>
<polygon fill="#1414ce" stroke="#1414ce" points="909.27,-31.4 898.68,-31.67 907.13,-38.06 909.27,-31.4"/>
</a>
</g>
</g>
<!-- 17&#45;&gt;13 -->
<g id="edge48" class="edge">
<title>17&#45;&gt;13</title>
<g id="a_edge48"><a xlink:title="usage">
<path fill="none" stroke="#1414ce" d="M241.86,-215.88C218.09,-205.48 187.75,-192.2 163.41,-181.55"/>
<polygon fill="#1414ce" stroke="#1414ce" points="164.63,-178.27 154.07,-177.47 161.83,-184.68 164.63,-178.27"/>
</a>
</g>
</g>
</g>
</svg>
