<?xml version="1.0" encoding="UTF-8" standalone="no"?>
<!DOCTYPE svg PUBLIC "-//W3C//DTD SVG 1.1//EN"
 "http://www.w3.org/Graphics/SVG/1.1/DTD/svg11.dtd">
<!-- Generated by graphviz version 2.43.0 (0)
 -->
<!-- Title: %3 Pages: 1 -->
<svg width="1359pt" height="620pt"
 viewBox="0.00 0.00 1359.00 620.00" xmlns="http://www.w3.org/2000/svg" xmlns:xlink="http://www.w3.org/1999/xlink">
<g id="graph0" class="graph" transform="scale(1 1) rotate(0) translate(4 616)">
<title>%3</title>
<polygon fill="transparent" stroke="transparent" points="-4,4 -4,-616 1355,-616 1355,4 -4,4"/>
<!-- 14 -->
<g id="node1" class="node">
<title>14</title>
<g id="a_node1"><a xlink:title="atom.h">
<polygon fill="#ffffff" stroke="black" points="1063,-396 997,-396 997,-360 1063,-360 1063,-396"/>
<text text-anchor="middle" x="1030" y="-374.3" font-family="Times,serif" font-size="14.00">atom.h</text>
</a>
</g>
</g>
<!-- 13 -->
<g id="node23" class="node">
<title>13</title>
<g id="a_node23"><a xlink:title="stdint.h">
<polygon fill="#ffffff" stroke="black" points="895,-36 823,-36 823,0 895,0 895,-36"/>
<text text-anchor="middle" x="859" y="-14.3" font-family="Times,serif" font-size="14.00">stdint.h</text>
</a>
</g>
</g>
<!-- 14&#45;&gt;13 -->
<g id="edge1" class="edge">
<title>14&#45;&gt;13</title>
<g id="a_edge1"><a xlink:title="include">
<path fill="none" stroke="#1414ce" d="M1034.65,-359.66C1041.38,-333.05 1053,-280.45 1053,-235 1053,-235 1053,-235 1053,-161 1053,-87.81 961.98,-48.26 904.63,-30.61"/>
<polygon fill="#1414ce" stroke="#1414ce" points="905.62,-27.25 895.04,-27.76 903.63,-33.96 905.62,-27.25"/>
</a>
</g>
</g>
<!-- 10 -->
<g id="node25" class="node">
<title>10</title>
<g id="a_node25"><a xlink:title="stdlib.h">
<polygon fill="#ffffff" stroke="black" points="955.5,-108 884.5,-108 884.5,-72 955.5,-72 955.5,-108"/>
<text text-anchor="middle" x="920" y="-86.3" font-family="Times,serif" font-size="14.00">stdlib.h</text>
</a>
</g>
</g>
<!-- 14&#45;&gt;10 -->
<g id="edge2" class="edge">
<title>14&#45;&gt;10</title>
<g id="a_edge2"><a xlink:title="include">
<path fill="none" stroke="#1414ce" d="M1031.28,-359.71C1033.48,-318.91 1034.14,-214.73 991,-144 983.72,-132.07 972.67,-121.93 961.44,-113.82"/>
<polygon fill="#1414ce" stroke="#1414ce" points="963.11,-110.73 952.87,-108.01 959.19,-116.52 963.11,-110.73"/>
</a>
</g>
</g>
<!-- 1 -->
<g id="node2" class="node">
<title>1</title>
<g id="a_node2"><a xlink:title="/__w/AtomVM/AtomVM/src/libAtomVM/bitstring.c">
<polygon fill="#bfbfbf" stroke="black" points="1351,-612 983,-612 983,-576 1351,-576 1351,-612"/>
<text text-anchor="middle" x="1167" y="-590.3" font-family="Times,serif" font-size="14.00">/__w/AtomVM/AtomVM/src/libAtomVM/bitstring.c</text>
</a>
</g>
</g>
<!-- 2 -->
<g id="node3" class="node">
<title>2</title>
<g id="a_node3"><a xlink:title="bitstring.h">
<polygon fill="#ffffff" stroke="black" points="745,-540 653,-540 653,-504 745,-504 745,-540"/>
<text text-anchor="middle" x="699" y="-518.3" font-family="Times,serif" font-size="14.00">bitstring.h</text>
</a>
</g>
</g>
<!-- 1&#45;&gt;2 -->
<g id="edge3" class="edge">
<title>1&#45;&gt;2</title>
<g id="a_edge3"><a xlink:title="include">
<path fill="none" stroke="#1414ce" d="M1053.11,-575.97C958.66,-561.84 828.4,-542.35 755.06,-531.38"/>
<polygon fill="#1414ce" stroke="#1414ce" points="755.5,-527.91 745.1,-529.89 754.47,-534.84 755.5,-527.91"/>
</a>
</g>
</g>
<!-- 18 -->
<g id="node17" class="node">
<title>18</title>
<g id="a_node17"><a xlink:title="assert.h">
<polygon fill="#ffffff" stroke="black" points="1131,-36 1057,-36 1057,0 1131,0 1131,-36"/>
<text text-anchor="middle" x="1094" y="-14.3" font-family="Times,serif" font-size="14.00">assert.h</text>
</a>
</g>
</g>
<!-- 1&#45;&gt;18 -->
<g id="edge4" class="edge">
<title>1&#45;&gt;18</title>
<g id="a_edge4"><a xlink:title="include">
<path fill="none" stroke="#1414ce" d="M1167,-575.95C1167,-549.29 1167,-496.11 1167,-451 1167,-451 1167,-451 1167,-161 1167,-116.03 1137.69,-71.04 1116.21,-44.1"/>
<polygon fill="#1414ce" stroke="#1414ce" points="1118.89,-41.85 1109.84,-36.35 1113.48,-46.29 1118.89,-41.85"/>
</a>
</g>
</g>
<!-- 27 -->
<g id="node20" class="node">
<title>27</title>
<g id="a_node20"><a xlink:title="math.h">
<polygon fill="#ffffff" stroke="black" points="1262.5,-540 1195.5,-540 1195.5,-504 1262.5,-504 1262.5,-540"/>
<text text-anchor="middle" x="1229" y="-518.3" font-family="Times,serif" font-size="14.00">math.h</text>
</a>
</g>
</g>
<!-- 1&#45;&gt;27 -->
<g id="edge5" class="edge">
<title>1&#45;&gt;27</title>
<g id="a_edge5"><a xlink:title="include">
<path fill="none" stroke="#1414ce" d="M1182.33,-575.7C1189.76,-567.3 1198.82,-557.07 1206.98,-547.86"/>
<polygon fill="#1414ce" stroke="#1414ce" points="1209.84,-549.91 1213.85,-540.1 1204.6,-545.27 1209.84,-549.91"/>
</a>
</g>
</g>
<!-- 3 -->
<g id="node5" class="node">
<title>3</title>
<g id="a_node5"><a xlink:title="intn.h">
<polygon fill="#ffffff" stroke="black" points="586.5,-396 527.5,-396 527.5,-360 586.5,-360 586.5,-396"/>
<text text-anchor="middle" x="557" y="-374.3" font-family="Times,serif" font-size="14.00">intn.h</text>
</a>
</g>
</g>
<!-- 2&#45;&gt;3 -->
<g id="edge6" class="edge">
<title>2&#45;&gt;3</title>
<g id="a_edge6"><a xlink:title="include">
<path fill="none" stroke="#1414ce" d="M681.87,-503.87C656.82,-478.82 610.05,-432.05 581.41,-403.41"/>
<polygon fill="#1414ce" stroke="#1414ce" points="583.74,-400.79 574.19,-396.19 578.79,-405.74 583.74,-400.79"/>
</a>
</g>
</g>
<!-- 11 -->
<g id="node13" class="node">
<title>11</title>
<g id="a_node13"><a xlink:title="term.h">
<polygon fill="#ffffff" stroke="black" points="761.5,-468 696.5,-468 696.5,-432 761.5,-432 761.5,-468"/>
<text text-anchor="middle" x="729" y="-446.3" font-family="Times,serif" font-size="14.00">term.h</text>
</a>
</g>
</g>
<!-- 2&#45;&gt;11 -->
<g id="edge7" class="edge">
<title>2&#45;&gt;11</title>
<g id="a_edge7"><a xlink:title="include">
<path fill="none" stroke="#1414ce" d="M706.42,-503.7C709.79,-495.81 713.87,-486.3 717.62,-477.55"/>
<polygon fill="#1414ce" stroke="#1414ce" points="720.95,-478.67 721.67,-468.1 714.51,-475.92 720.95,-478.67"/>
</a>
</g>
</g>
<!-- 26 -->
<g id="node15" class="node">
<title>26</title>
<g id="a_node15"><a xlink:title="unicode.h">
<polygon fill="#ffffff" stroke="black" points="435,-180 349,-180 349,-144 435,-144 435,-180"/>
<text text-anchor="middle" x="392" y="-158.3" font-family="Times,serif" font-size="14.00">unicode.h</text>
</a>
</g>
</g>
<!-- 2&#45;&gt;26 -->
<g id="edge8" class="edge">
<title>2&#45;&gt;26</title>
<g id="a_edge8"><a xlink:title="include">
<path fill="none" stroke="#1414ce" d="M652.99,-511.89C586.13,-496.87 460.66,-461.81 374,-396 299.88,-339.72 215.62,-293.6 267,-216 283.04,-191.78 312.61,-178.59 338.96,-171.43"/>
<polygon fill="#1414ce" stroke="#1414ce" points="340.01,-174.78 348.87,-168.97 338.32,-167.99 340.01,-174.78"/>
</a>
</g>
</g>
<!-- 4 -->
<g id="node21" class="node">
<title>4</title>
<g id="a_node21"><a xlink:title="stdbool.h">
<polygon fill="#ffffff" stroke="black" points="229.5,-108 146.5,-108 146.5,-72 229.5,-72 229.5,-108"/>
<text text-anchor="middle" x="188" y="-86.3" font-family="Times,serif" font-size="14.00">stdbool.h</text>
</a>
</g>
</g>
<!-- 2&#45;&gt;4 -->
<g id="edge9" class="edge">
<title>2&#45;&gt;4</title>
<g id="a_edge9"><a xlink:title="include">
<path fill="none" stroke="#1414ce" d="M652.87,-521.48C497.05,-521.87 0,-512.66 0,-379 0,-379 0,-379 0,-233 0,-186.96 17.9,-173.8 53,-144 76.85,-123.75 109.35,-110.68 136.48,-102.58"/>
<polygon fill="#1414ce" stroke="#1414ce" points="137.54,-105.91 146.21,-99.81 135.63,-99.18 137.54,-105.91"/>
</a>
</g>
</g>
<!-- 2&#45;&gt;13 -->
<g id="edge10" class="edge">
<title>2&#45;&gt;13</title>
<g id="a_edge10"><a xlink:title="include">
<path fill="none" stroke="#1414ce" d="M745.02,-515.73C855.95,-501.75 1129,-459.19 1129,-379 1129,-379 1129,-379 1129,-161 1129,-61.02 982.19,-31.28 905.08,-22.55"/>
<polygon fill="#1414ce" stroke="#1414ce" points="905.45,-19.07 895.13,-21.5 904.71,-26.03 905.45,-19.07"/>
</a>
</g>
</g>
<!-- 16 -->
<g id="node4" class="node">
<title>16</title>
<g id="a_node4"><a xlink:title="erl_nif.h">
<polygon fill="#ffffff" stroke="black" points="721,-180 647,-180 647,-144 721,-144 721,-180"/>
<text text-anchor="middle" x="684" y="-158.3" font-family="Times,serif" font-size="14.00">erl_nif.h</text>
</a>
</g>
</g>
<!-- 17 -->
<g id="node14" class="node">
<title>17</title>
<g id="a_node14"><a xlink:title="term_typedef.h">
<polygon fill="#ffffff" stroke="black" points="758.5,-108 633.5,-108 633.5,-72 758.5,-72 758.5,-108"/>
<text text-anchor="middle" x="696" y="-86.3" font-family="Times,serif" font-size="14.00">term_typedef.h</text>
</a>
</g>
</g>
<!-- 16&#45;&gt;17 -->
<g id="edge11" class="edge">
<title>16&#45;&gt;17</title>
<g id="a_edge11"><a xlink:title="include">
<path fill="none" stroke="#1414ce" d="M686.97,-143.7C688.29,-135.98 689.88,-126.71 691.35,-118.11"/>
<polygon fill="#1414ce" stroke="#1414ce" points="694.83,-118.55 693.07,-108.1 687.93,-117.37 694.83,-118.55"/>
</a>
</g>
</g>
<!-- 6 -->
<g id="node16" class="node">
<title>6</title>
<g id="a_node16"><a xlink:title="utils.h">
<polygon fill="#ffffff" stroke="black" points="553,-180 491,-180 491,-144 553,-144 553,-180"/>
<text text-anchor="middle" x="522" y="-158.3" font-family="Times,serif" font-size="14.00">utils.h</text>
</a>
</g>
</g>
<!-- 3&#45;&gt;6 -->
<g id="edge14" class="edge">
<title>3&#45;&gt;6</title>
<g id="a_edge14"><a xlink:title="include">
<path fill="none" stroke="#1414ce" d="M551.9,-359.94C548.96,-349.62 545.38,-336.14 543,-324 533.82,-277.28 527.61,-222.12 524.45,-190"/>
<polygon fill="#1414ce" stroke="#1414ce" points="527.93,-189.66 523.5,-180.04 520.97,-190.33 527.93,-189.66"/>
</a>
</g>
</g>
<!-- 3&#45;&gt;4 -->
<g id="edge12" class="edge">
<title>3&#45;&gt;4</title>
<g id="a_edge12"><a xlink:title="include">
<path fill="none" stroke="#1414ce" d="M527.42,-368.16C518.6,-365.53 508.91,-362.64 500,-360 373.72,-322.54 331.86,-327.61 224,-252 186.94,-226.02 169.32,-221.81 152,-180 145.88,-165.22 147.3,-159.29 152,-144 155.01,-134.22 160.51,-124.62 166.32,-116.33"/>
<polygon fill="#1414ce" stroke="#1414ce" points="169.19,-118.33 172.39,-108.23 163.59,-114.13 169.19,-118.33"/>
</a>
</g>
</g>
<!-- 5 -->
<g id="node26" class="node">
<title>5</title>
<g id="a_node26"><a xlink:title="string.h">
<polygon fill="#ffffff" stroke="black" points="624.5,-324 551.5,-324 551.5,-288 624.5,-288 624.5,-324"/>
<text text-anchor="middle" x="588" y="-302.3" font-family="Times,serif" font-size="14.00">string.h</text>
</a>
</g>
</g>
<!-- 3&#45;&gt;5 -->
<g id="edge13" class="edge">
<title>3&#45;&gt;5</title>
<g id="a_edge13"><a xlink:title="include">
<path fill="none" stroke="#1414ce" d="M564.66,-359.7C568.19,-351.73 572.46,-342.1 576.37,-333.26"/>
<polygon fill="#1414ce" stroke="#1414ce" points="579.58,-334.67 580.43,-324.1 573.18,-331.83 579.58,-334.67"/>
</a>
</g>
</g>
<!-- 21 -->
<g id="node6" class="node">
<title>21</title>
<g id="a_node6"><a xlink:title="list.h">
<polygon fill="#ffffff" stroke="black" points="215,-180 161,-180 161,-144 215,-144 215,-180"/>
<text text-anchor="middle" x="188" y="-158.3" font-family="Times,serif" font-size="14.00">list.h</text>
</a>
</g>
</g>
<!-- 21&#45;&gt;4 -->
<g id="edge15" class="edge">
<title>21&#45;&gt;4</title>
<g id="a_edge15"><a xlink:title="include">
<path fill="none" stroke="#1414ce" d="M188,-143.7C188,-135.98 188,-126.71 188,-118.11"/>
<polygon fill="#1414ce" stroke="#1414ce" points="191.5,-118.1 188,-108.1 184.5,-118.1 191.5,-118.1"/>
</a>
</g>
</g>
<!-- 23 -->
<g id="node7" class="node">
<title>23</title>
<g id="a_node7"><a xlink:title="mailbox.h">
<polygon fill="#ffffff" stroke="black" points="465,-252 379,-252 379,-216 465,-216 465,-252"/>
<text text-anchor="middle" x="422" y="-230.3" font-family="Times,serif" font-size="14.00">mailbox.h</text>
</a>
</g>
</g>
<!-- 23&#45;&gt;21 -->
<g id="edge17" class="edge">
<title>23&#45;&gt;21</title>
<g id="a_edge17"><a xlink:title="include">
<path fill="none" stroke="#1414ce" d="M378.95,-218.65C375.93,-217.73 372.92,-216.84 370,-216 308.76,-198.47 288.83,-201.98 225.02,-180"/>
<polygon fill="#1414ce" stroke="#1414ce" points="225.87,-176.59 215.28,-176.57 223.55,-183.2 225.87,-176.59"/>
</a>
</g>
</g>
<!-- 23&#45;&gt;17 -->
<g id="edge18" class="edge">
<title>23&#45;&gt;17</title>
<g id="a_edge18"><a xlink:title="include">
<path fill="none" stroke="#1414ce" d="M465.03,-219.51C493.28,-209.98 530.67,-196.08 562,-180 599.44,-160.79 639.24,-133.36 665.64,-114.04"/>
<polygon fill="#1414ce" stroke="#1414ce" points="667.75,-116.83 673.72,-108.07 663.6,-111.19 667.75,-116.83"/>
</a>
</g>
</g>
<!-- 23&#45;&gt;6 -->
<g id="edge19" class="edge">
<title>23&#45;&gt;6</title>
<g id="a_edge19"><a xlink:title="include">
<path fill="none" stroke="#1414ce" d="M446.46,-215.88C459.3,-206.89 475.2,-195.76 489.09,-186.03"/>
<polygon fill="#1414ce" stroke="#1414ce" points="491.26,-188.79 497.44,-180.19 487.24,-183.06 491.26,-188.79"/>
</a>
</g>
</g>
<!-- 23&#45;&gt;4 -->
<g id="edge16" class="edge">
<title>23&#45;&gt;4</title>
<g id="a_edge16"><a xlink:title="include">
<path fill="none" stroke="#1414ce" d="M392.65,-215.85C376.6,-206.04 356.66,-193.09 340,-180 321.71,-165.62 321.24,-157.07 302,-144 282.6,-130.82 259.39,-119.36 239,-110.51"/>
<polygon fill="#1414ce" stroke="#1414ce" points="240.12,-107.18 229.55,-106.5 237.39,-113.62 240.12,-107.18"/>
</a>
</g>
</g>
<!-- 15 -->
<g id="node8" class="node">
<title>15</title>
<g id="a_node8"><a xlink:title="memory.h">
<polygon fill="#ffffff" stroke="black" points="797,-252 711,-252 711,-216 797,-216 797,-252"/>
<text text-anchor="middle" x="754" y="-230.3" font-family="Times,serif" font-size="14.00">memory.h</text>
</a>
</g>
</g>
<!-- 15&#45;&gt;16 -->
<g id="edge22" class="edge">
<title>15&#45;&gt;16</title>
<g id="a_edge22"><a xlink:title="include">
<path fill="none" stroke="#1414ce" d="M736.7,-215.7C728.14,-207.14 717.66,-196.66 708.3,-187.3"/>
<polygon fill="#1414ce" stroke="#1414ce" points="710.65,-184.7 701.1,-180.1 705.7,-189.65 710.65,-184.7"/>
</a>
</g>
</g>
<!-- 15&#45;&gt;17 -->
<g id="edge23" class="edge">
<title>15&#45;&gt;17</title>
<g id="a_edge23"><a xlink:title="include">
<path fill="none" stroke="#1414ce" d="M750.98,-215.74C747.4,-197.41 740.56,-167.85 730,-144 725.86,-134.65 720.21,-125.06 714.7,-116.65"/>
<polygon fill="#1414ce" stroke="#1414ce" points="717.6,-114.69 709.08,-108.38 711.8,-118.62 717.6,-114.69"/>
</a>
</g>
</g>
<!-- 15&#45;&gt;6 -->
<g id="edge24" class="edge">
<title>15&#45;&gt;6</title>
<g id="a_edge24"><a xlink:title="include">
<path fill="none" stroke="#1414ce" d="M710.91,-220C668.66,-207.25 604.71,-187.95 563.14,-175.41"/>
<polygon fill="#1414ce" stroke="#1414ce" points="563.93,-171.99 553.34,-172.46 561.9,-178.7 563.93,-171.99"/>
</a>
</g>
</g>
<!-- 15&#45;&gt;13 -->
<g id="edge20" class="edge">
<title>15&#45;&gt;13</title>
<g id="a_edge20"><a xlink:title="include">
<path fill="none" stroke="#1414ce" d="M762.42,-215.85C780.73,-178.52 824.31,-89.69 846.12,-45.26"/>
<polygon fill="#1414ce" stroke="#1414ce" points="849.28,-46.75 850.54,-36.23 843,-43.67 849.28,-46.75"/>
</a>
</g>
</g>
<!-- 15&#45;&gt;10 -->
<g id="edge21" class="edge">
<title>15&#45;&gt;10</title>
<g id="a_edge21"><a xlink:title="include">
<path fill="none" stroke="#1414ce" d="M774.02,-215.87C803.44,-190.71 858.45,-143.65 891.9,-115.04"/>
<polygon fill="#1414ce" stroke="#1414ce" points="894.58,-117.35 899.91,-108.19 890.03,-112.03 894.58,-117.35"/>
</a>
</g>
</g>
<!-- 20 -->
<g id="node9" class="node">
<title>20</title>
<g id="a_node9"><a xlink:title="refc_binary.h">
<polygon fill="#ffffff" stroke="black" points="491,-396 383,-396 383,-360 491,-360 491,-396"/>
<text text-anchor="middle" x="437" y="-374.3" font-family="Times,serif" font-size="14.00">refc_binary.h</text>
</a>
</g>
</g>
<!-- 20&#45;&gt;21 -->
<g id="edge27" class="edge">
<title>20&#45;&gt;21</title>
<g id="a_edge27"><a xlink:title="include">
<path fill="none" stroke="#1414ce" d="M389.85,-359.9C342.18,-340.44 269.25,-304.41 224,-252 208.65,-234.22 199.29,-209.05 193.98,-190.01"/>
<polygon fill="#1414ce" stroke="#1414ce" points="197.32,-188.96 191.43,-180.15 190.54,-190.71 197.32,-188.96"/>
</a>
</g>
</g>
<!-- 22 -->
<g id="node10" class="node">
<title>22</title>
<g id="a_node10"><a xlink:title="resources.h">
<polygon fill="#ffffff" stroke="black" points="487,-324 387,-324 387,-288 487,-288 487,-324"/>
<text text-anchor="middle" x="437" y="-302.3" font-family="Times,serif" font-size="14.00">resources.h</text>
</a>
</g>
</g>
<!-- 20&#45;&gt;22 -->
<g id="edge28" class="edge">
<title>20&#45;&gt;22</title>
<g id="a_edge28"><a xlink:title="include">
<path fill="none" stroke="#1414ce" d="M437,-359.7C437,-351.98 437,-342.71 437,-334.11"/>
<polygon fill="#1414ce" stroke="#1414ce" points="440.5,-334.1 437,-324.1 433.5,-334.1 440.5,-334.1"/>
</a>
</g>
</g>
<!-- 20&#45;&gt;4 -->
<g id="edge25" class="edge">
<title>20&#45;&gt;4</title>
<g id="a_edge25"><a xlink:title="include">
<path fill="none" stroke="#1414ce" d="M382.82,-374.26C306.55,-369.28 172.91,-356.14 138,-324 78.82,-269.51 83.44,-216.16 119,-144 124.96,-131.91 135.15,-121.8 145.9,-113.77"/>
<polygon fill="#1414ce" stroke="#1414ce" points="147.94,-116.61 154.16,-108.04 143.95,-110.86 147.94,-116.61"/>
</a>
</g>
</g>
<!-- 20&#45;&gt;10 -->
<g id="edge26" class="edge">
<title>20&#45;&gt;10</title>
<g id="a_edge26"><a xlink:title="include">
<path fill="none" stroke="#1414ce" d="M491.01,-364.54C586.98,-341.69 782.58,-291.8 840,-252 874.23,-228.27 881.59,-217.36 900,-180 909.6,-160.53 914.65,-136.39 917.28,-118.16"/>
<polygon fill="#1414ce" stroke="#1414ce" points="920.75,-118.56 918.56,-108.2 913.81,-117.67 920.75,-118.56"/>
</a>
</g>
</g>
<!-- 22&#45;&gt;16 -->
<g id="edge30" class="edge">
<title>22&#45;&gt;16</title>
<g id="a_edge30"><a xlink:title="include">
<path fill="none" stroke="#1414ce" d="M466.79,-287.87C511.49,-262.18 595.9,-213.65 645.3,-185.25"/>
<polygon fill="#1414ce" stroke="#1414ce" points="647.18,-188.21 654.1,-180.19 643.69,-182.14 647.18,-188.21"/>
</a>
</g>
</g>
<!-- 22&#45;&gt;21 -->
<g id="edge31" class="edge">
<title>22&#45;&gt;21</title>
<g id="a_edge31"><a xlink:title="include">
<path fill="none" stroke="#1414ce" d="M386.69,-296.76C351.13,-289.23 303.49,-275.57 267,-252 241.45,-235.5 219.16,-208.54 204.83,-188.61"/>
<polygon fill="#1414ce" stroke="#1414ce" points="207.61,-186.48 199.01,-180.29 201.87,-190.49 207.61,-186.48"/>
</a>
</g>
</g>
<!-- 22&#45;&gt;23 -->
<g id="edge32" class="edge">
<title>22&#45;&gt;23</title>
<g id="a_edge32"><a xlink:title="include">
<path fill="none" stroke="#1414ce" d="M433.29,-287.7C431.64,-279.98 429.65,-270.71 427.81,-262.11"/>
<polygon fill="#1414ce" stroke="#1414ce" points="431.18,-261.15 425.67,-252.1 424.34,-262.62 431.18,-261.15"/>
</a>
</g>
</g>
<!-- 22&#45;&gt;15 -->
<g id="edge33" class="edge">
<title>22&#45;&gt;15</title>
<g id="a_edge33"><a xlink:title="include">
<path fill="none" stroke="#1414ce" d="M487.23,-293.91C545.49,-281.04 641.12,-259.93 700.67,-246.78"/>
<polygon fill="#1414ce" stroke="#1414ce" points="701.62,-250.15 710.63,-244.58 700.11,-243.32 701.62,-250.15"/>
</a>
</g>
</g>
<!-- 24 -->
<g id="node12" class="node">
<title>24</title>
<g id="a_node12"><a xlink:title="synclist.h">
<polygon fill="#ffffff" stroke="black" points="360.5,-252 275.5,-252 275.5,-216 360.5,-216 360.5,-252"/>
<text text-anchor="middle" x="318" y="-230.3" font-family="Times,serif" font-size="14.00">synclist.h</text>
</a>
</g>
</g>
<!-- 22&#45;&gt;24 -->
<g id="edge34" class="edge">
<title>22&#45;&gt;24</title>
<g id="a_edge34"><a xlink:title="include">
<path fill="none" stroke="#1414ce" d="M407.89,-287.88C392.33,-278.72 372.98,-267.34 356.22,-257.48"/>
<polygon fill="#1414ce" stroke="#1414ce" points="357.62,-254.24 347.22,-252.19 354.07,-260.28 357.62,-254.24"/>
</a>
</g>
</g>
<!-- 22&#45;&gt;10 -->
<g id="edge29" class="edge">
<title>22&#45;&gt;10</title>
<g id="a_edge29"><a xlink:title="include">
<path fill="none" stroke="#1414ce" d="M487.11,-296.72C504.76,-293.87 524.75,-290.71 543,-288 659.7,-270.66 705.13,-313.2 806,-252 858.19,-220.33 892.97,-154.71 909.28,-117.77"/>
<polygon fill="#1414ce" stroke="#1414ce" points="912.68,-118.74 913.39,-108.17 906.24,-115.98 912.68,-118.74"/>
</a>
</g>
</g>
<!-- 25 -->
<g id="node11" class="node">
<title>25</title>
<g id="a_node11"><a xlink:title="smp.h">
<polygon fill="#ffffff" stroke="black" points="293,-180 233,-180 233,-144 293,-144 293,-180"/>
<text text-anchor="middle" x="263" y="-158.3" font-family="Times,serif" font-size="14.00">smp.h</text>
</a>
</g>
</g>
<!-- 25&#45;&gt;4 -->
<g id="edge35" class="edge">
<title>25&#45;&gt;4</title>
<g id="a_edge35"><a xlink:title="include">
<path fill="none" stroke="#1414ce" d="M244.46,-143.7C235.2,-135.05 223.84,-124.45 213.74,-115.03"/>
<polygon fill="#1414ce" stroke="#1414ce" points="216.02,-112.37 206.33,-108.1 211.25,-117.49 216.02,-112.37"/>
</a>
</g>
</g>
<!-- 24&#45;&gt;21 -->
<g id="edge37" class="edge">
<title>24&#45;&gt;21</title>
<g id="a_edge37"><a xlink:title="include">
<path fill="none" stroke="#1414ce" d="M286.2,-215.88C267.38,-205.74 243.49,-192.88 223.98,-182.37"/>
<polygon fill="#1414ce" stroke="#1414ce" points="225.54,-179.24 215.08,-177.58 222.23,-185.4 225.54,-179.24"/>
</a>
</g>
</g>
<!-- 24&#45;&gt;25 -->
<g id="edge38" class="edge">
<title>24&#45;&gt;25</title>
<g id="a_edge38"><a xlink:title="include">
<path fill="none" stroke="#1414ce" d="M304.4,-215.7C297.88,-207.39 289.93,-197.28 282.75,-188.14"/>
<polygon fill="#1414ce" stroke="#1414ce" points="285.37,-185.81 276.44,-180.1 279.87,-190.13 285.37,-185.81"/>
</a>
</g>
</g>
<!-- 9 -->
<g id="node24" class="node">
<title>9</title>
<g id="a_node24"><a xlink:title="stdio.h">
<polygon fill="#ffffff" stroke="black" points="569.5,-108 504.5,-108 504.5,-72 569.5,-72 569.5,-108"/>
<text text-anchor="middle" x="537" y="-86.3" font-family="Times,serif" font-size="14.00">stdio.h</text>
</a>
</g>
</g>
<!-- 24&#45;&gt;9 -->
<g id="edge36" class="edge">
<title>24&#45;&gt;9</title>
<g id="a_edge36"><a xlink:title="include">
<path fill="none" stroke="#1414ce" d="M360.73,-216.95C391.37,-205.08 429.67,-189.41 444,-180 445.95,-178.72 485.06,-141.11 511.93,-115.2"/>
<polygon fill="#1414ce" stroke="#1414ce" points="514.38,-117.7 519.15,-108.24 509.52,-112.66 514.38,-117.7"/>
</a>
</g>
</g>
<!-- 11&#45;&gt;14 -->
<g id="edge45" class="edge">
<title>11&#45;&gt;14</title>
<g id="a_edge45"><a xlink:title="include">
<path fill="none" stroke="#1414ce" d="M761.84,-443.68C810.59,-435.44 904.78,-418.19 983,-396 984.41,-395.6 985.84,-395.18 987.27,-394.74"/>
<polygon fill="#1414ce" stroke="#1414ce" points="988.37,-398.07 996.81,-391.66 986.22,-391.4 988.37,-398.07"/>
</a>
</g>
</g>
<!-- 11&#45;&gt;3 -->
<g id="edge46" class="edge">
<title>11&#45;&gt;3</title>
<g id="a_edge46"><a xlink:title="include">
<path fill="none" stroke="#1414ce" d="M696.24,-435.67C667.75,-424.07 626.39,-407.24 596.16,-394.94"/>
<polygon fill="#1414ce" stroke="#1414ce" points="597.34,-391.64 586.76,-391.11 594.7,-398.12 597.34,-391.64"/>
</a>
</g>
</g>
<!-- 11&#45;&gt;15 -->
<g id="edge47" class="edge">
<title>11&#45;&gt;15</title>
<g id="a_edge47"><a xlink:title="include">
<path fill="none" stroke="#1414ce" d="M734.37,-431.99C737.41,-421.68 740.99,-408.21 743,-396 750.66,-349.51 753,-294.62 753.71,-262.43"/>
<polygon fill="#1414ce" stroke="#1414ce" points="757.21,-262.11 753.9,-252.04 750.22,-261.98 757.21,-262.11"/>
</a>
</g>
</g>
<!-- 11&#45;&gt;20 -->
<g id="edge48" class="edge">
<title>11&#45;&gt;20</title>
<g id="a_edge48"><a xlink:title="include">
<path fill="none" stroke="#1414ce" d="M696.35,-441.17C649.27,-429.89 561.34,-408.81 501.03,-394.35"/>
<polygon fill="#1414ce" stroke="#1414ce" points="501.76,-390.93 491.22,-392 500.13,-397.73 501.76,-390.93"/>
</a>
</g>
</g>
<!-- 11&#45;&gt;17 -->
<g id="edge50" class="edge">
<title>11&#45;&gt;17</title>
<g id="a_edge50"><a xlink:title="include">
<path fill="none" stroke="#1414ce" d="M742.41,-432C771.1,-393.47 833.65,-296.59 806,-216 791.55,-173.87 754.65,-137.18 727.56,-114.64"/>
<polygon fill="#1414ce" stroke="#1414ce" points="729.47,-111.68 719.5,-108.1 725.07,-117.12 729.47,-111.68"/>
</a>
</g>
</g>
<!-- 11&#45;&gt;6 -->
<g id="edge49" class="edge">
<title>11&#45;&gt;6</title>
<g id="a_edge49"><a xlink:title="include">
<path fill="none" stroke="#1414ce" d="M720.33,-431.86C704.74,-401.66 670.23,-337.5 634,-288 606.82,-250.87 570.56,-211.99 546.76,-187.64"/>
<polygon fill="#1414ce" stroke="#1414ce" points="549.01,-184.93 539.5,-180.27 544.02,-189.85 549.01,-184.93"/>
</a>
</g>
</g>
<!-- 11&#45;&gt;4 -->
<g id="edge40" class="edge">
<title>11&#45;&gt;4</title>
<g id="a_edge40"><a xlink:title="include">
<path fill="none" stroke="#1414ce" d="M696.14,-449.34C558.81,-449.91 38,-443.1 38,-307 38,-307 38,-307 38,-233 38,-176.42 94.98,-135.65 138.7,-112.68"/>
<polygon fill="#1414ce" stroke="#1414ce" points="140.48,-115.71 147.8,-108.06 137.3,-109.47 140.48,-115.71"/>
</a>
</g>
</g>
<!-- 11&#45;&gt;13 -->
<g id="edge41" class="edge">
<title>11&#45;&gt;13</title>
<g id="a_edge41"><a xlink:title="include">
<path fill="none" stroke="#1414ce" d="M761.58,-448.52C838.38,-446.69 1027.59,-437.94 1072,-396 1101.4,-368.23 1091,-347.45 1091,-307 1091,-307 1091,-307 1091,-161 1091,-74.76 972.93,-39.3 905.25,-26.05"/>
<polygon fill="#1414ce" stroke="#1414ce" points="905.72,-22.58 895.25,-24.19 904.44,-29.46 905.72,-22.58"/>
</a>
</g>
</g>
<!-- 11&#45;&gt;9 -->
<g id="edge42" class="edge">
<title>11&#45;&gt;9</title>
<g id="a_edge42"><a xlink:title="include">
<path fill="none" stroke="#1414ce" d="M725.92,-431.77C722.3,-413.46 715.42,-383.91 705,-360 663.27,-264.21 591.09,-162.62 556.54,-116.46"/>
<polygon fill="#1414ce" stroke="#1414ce" points="559.16,-114.12 550.34,-108.25 553.57,-118.34 559.16,-114.12"/>
</a>
</g>
</g>
<!-- 11&#45;&gt;10 -->
<g id="edge43" class="edge">
<title>11&#45;&gt;10</title>
<g id="a_edge43"><a xlink:title="include">
<path fill="none" stroke="#1414ce" d="M761.75,-446.03C817.46,-440.21 926.91,-425.28 950,-396 1015.56,-312.86 961.07,-174.69 933.56,-117.27"/>
<polygon fill="#1414ce" stroke="#1414ce" points="936.62,-115.58 929.08,-108.14 930.34,-118.66 936.62,-115.58"/>
</a>
</g>
</g>
<!-- 11&#45;&gt;5 -->
<g id="edge44" class="edge">
<title>11&#45;&gt;5</title>
<g id="a_edge44"><a xlink:title="include">
<path fill="none" stroke="#1414ce" d="M696.24,-434.88C677.81,-425.76 655.31,-412.51 639,-396 621.2,-377.99 607.44,-352.52 598.72,-333.44"/>
<polygon fill="#1414ce" stroke="#1414ce" points="601.85,-331.87 594.63,-324.12 595.44,-334.68 601.85,-331.87"/>
</a>
</g>
</g>
<!-- 12 -->
<g id="node27" class="node">
<title>12</title>
<g id="a_node27"><a xlink:title="sys/types.h">
<polygon fill="#ffffff" stroke="black" points="940.5,-396 843.5,-396 843.5,-360 940.5,-360 940.5,-396"/>
<text text-anchor="middle" x="892" y="-374.3" font-family="Times,serif" font-size="14.00">sys/types.h</text>
</a>
</g>
</g>
<!-- 11&#45;&gt;12 -->
<g id="edge39" class="edge">
<title>11&#45;&gt;12</title>
<g id="a_edge39"><a xlink:title="include">
<path fill="none" stroke="#1414ce" d="M761.59,-435C784.84,-425.02 816.52,-411.41 842.83,-400.11"/>
<polygon fill="#1414ce" stroke="#1414ce" points="844.45,-403.23 852.26,-396.07 841.69,-396.8 844.45,-403.23"/>
</a>
</g>
</g>
<!-- 17&#45;&gt;18 -->
<g id="edge51" class="edge">
<title>17&#45;&gt;18</title>
<g id="a_edge51"><a xlink:title="include">
<path fill="none" stroke="#1414ce" d="M758.63,-77.99C838.54,-63.93 974.98,-39.93 1046.73,-27.31"/>
<polygon fill="#1414ce" stroke="#1414ce" points="1047.58,-30.72 1056.83,-25.54 1046.37,-23.82 1047.58,-30.72"/>
</a>
</g>
</g>
<!-- 7 -->
<g id="node18" class="node">
<title>7</title>
<g id="a_node18"><a xlink:title="inttypes.h">
<polygon fill="#ffffff" stroke="black" points="642.5,-36 553.5,-36 553.5,0 642.5,0 642.5,-36"/>
<text text-anchor="middle" x="598" y="-14.3" font-family="Times,serif" font-size="14.00">inttypes.h</text>
</a>
</g>
</g>
<!-- 17&#45;&gt;7 -->
<g id="edge53" class="edge">
<title>17&#45;&gt;7</title>
<g id="a_edge53"><a xlink:title="include">
<path fill="none" stroke="#1414ce" d="M672.03,-71.88C659.45,-62.89 643.87,-51.76 630.25,-42.03"/>
<polygon fill="#1414ce" stroke="#1414ce" points="632.24,-39.15 622.07,-36.19 628.17,-44.85 632.24,-39.15"/>
</a>
</g>
</g>
<!-- 19 -->
<g id="node19" class="node">
<title>19</title>
<g id="a_node19"><a xlink:title="limits.h">
<polygon fill="#ffffff" stroke="black" points="731.5,-36 660.5,-36 660.5,0 731.5,0 731.5,-36"/>
<text text-anchor="middle" x="696" y="-14.3" font-family="Times,serif" font-size="14.00">limits.h</text>
</a>
</g>
</g>
<!-- 17&#45;&gt;19 -->
<g id="edge52" class="edge">
<title>17&#45;&gt;19</title>
<g id="a_edge52"><a xlink:title="include">
<path fill="none" stroke="#1414ce" d="M696,-71.7C696,-63.98 696,-54.71 696,-46.11"/>
<polygon fill="#1414ce" stroke="#1414ce" points="699.5,-46.1 696,-36.1 692.5,-46.1 699.5,-46.1"/>
</a>
</g>
</g>
<!-- 17&#45;&gt;13 -->
<g id="edge54" class="edge">
<title>17&#45;&gt;13</title>
<g id="a_edge54"><a xlink:title="include">
<path fill="none" stroke="#1414ce" d="M735.87,-71.88C759.34,-61.8 789.09,-49.02 813.48,-38.55"/>
<polygon fill="#1414ce" stroke="#1414ce" points="815.07,-41.68 822.87,-34.51 812.3,-35.24 815.07,-41.68"/>
</a>
</g>
</g>
<!-- 26&#45;&gt;4 -->
<g id="edge55" class="edge">
<title>26&#45;&gt;4</title>
<g id="a_edge55"><a xlink:title="include">
<path fill="none" stroke="#1414ce" d="M348.74,-146.15C316.8,-135.2 273.21,-120.24 239.49,-108.67"/>
<polygon fill="#1414ce" stroke="#1414ce" points="240.4,-105.28 229.81,-105.35 238.13,-111.9 240.4,-105.28"/>
</a>
</g>
</g>
<!-- 8 -->
<g id="node22" class="node">
<title>8</title>
<g id="a_node22"><a xlink:title="stddef.h">
<polygon fill="#ffffff" stroke="black" points="486,-108 412,-108 412,-72 486,-72 486,-108"/>
<text text-anchor="middle" x="449" y="-86.3" font-family="Times,serif" font-size="14.00">stddef.h</text>
</a>
</g>
</g>
<!-- 26&#45;&gt;8 -->
<g id="edge56" class="edge">
<title>26&#45;&gt;8</title>
<g id="a_edge56"><a xlink:title="include">
<path fill="none" stroke="#1414ce" d="M406.09,-143.7C412.92,-135.3 421.26,-125.07 428.76,-115.86"/>
<polygon fill="#1414ce" stroke="#1414ce" points="431.47,-118.07 435.07,-108.1 426.04,-113.65 431.47,-118.07"/>
</a>
</g>
</g>
<!-- 26&#45;&gt;13 -->
<g id="edge57" class="edge">
<title>26&#45;&gt;13</title>
<g id="a_edge57"><a xlink:title="include">
<path fill="none" stroke="#1414ce" d="M388.5,-143.9C385.47,-123.71 384.13,-90.56 403,-72 456.86,-19.04 666.05,-45.39 741,-36 764.76,-33.02 791.14,-29.27 812.92,-26.04"/>
<polygon fill="#1414ce" stroke="#1414ce" points="813.52,-29.49 822.9,-24.55 812.49,-22.57 813.52,-29.49"/>
</a>
</g>
</g>
<!-- 6&#45;&gt;7 -->
<g id="edge58" class="edge">
<title>6&#45;&gt;7</title>
<g id="a_edge58"><a xlink:title="include">
<path fill="none" stroke="#1414ce" d="M546.39,-143.96C557.97,-134.63 571,-122.1 579,-108 589.75,-89.05 594.43,-64.68 596.47,-46.24"/>
<polygon fill="#1414ce" stroke="#1414ce" points="599.96,-46.42 597.38,-36.15 592.99,-45.79 599.96,-46.42"/>
</a>
</g>
</g>
<!-- 6&#45;&gt;4 -->
<g id="edge59" class="edge">
<title>6&#45;&gt;4</title>
<g id="a_edge59"><a xlink:title="include">
<path fill="none" stroke="#1414ce" d="M490.89,-154.14C476.61,-151.01 459.45,-147.28 444,-144 373.24,-128.97 291.37,-112.11 239.64,-101.53"/>
<polygon fill="#1414ce" stroke="#1414ce" points="240.21,-98.07 229.71,-99.5 238.8,-104.93 240.21,-98.07"/>
</a>
</g>
</g>
<!-- 6&#45;&gt;8 -->
<g id="edge60" class="edge">
<title>6&#45;&gt;8</title>
<g id="a_edge60"><a xlink:title="include">
<path fill="none" stroke="#1414ce" d="M503.96,-143.7C494.94,-135.05 483.88,-124.45 474.06,-115.03"/>
<polygon fill="#1414ce" stroke="#1414ce" points="476.48,-112.5 466.84,-108.1 471.63,-117.55 476.48,-112.5"/>
</a>
</g>
</g>
<!-- 6&#45;&gt;9 -->
<g id="edge61" class="edge">
<title>6&#45;&gt;9</title>
<g id="a_edge61"><a xlink:title="include">
<path fill="none" stroke="#1414ce" d="M525.71,-143.7C527.36,-135.98 529.35,-126.71 531.19,-118.11"/>
<polygon fill="#1414ce" stroke="#1414ce" points="534.66,-118.62 533.33,-108.1 527.82,-117.15 534.66,-118.62"/>
</a>
</g>
</g>
<!-- 6&#45;&gt;10 -->
<g id="edge62" class="edge">
<title>6&#45;&gt;10</title>
<g id="a_edge62"><a xlink:title="include">
<path fill="none" stroke="#1414ce" d="M553.23,-155.51C623.17,-143.21 792.65,-113.4 874.4,-99.02"/>
<polygon fill="#1414ce" stroke="#1414ce" points="875.15,-102.44 884.4,-97.26 873.94,-95.55 875.15,-102.44"/>
</a>
</g>
</g>
</g>
</svg>
