<?xml version="1.0" encoding="UTF-8" standalone="no"?>
<!DOCTYPE svg PUBLIC "-//W3C//DTD SVG 1.1//EN"
 "http://www.w3.org/Graphics/SVG/1.1/DTD/svg11.dtd">
<!-- Generated by graphviz version 2.43.0 (0)
 -->
<!-- Title: %3 Pages: 1 -->
<svg width="605pt" height="332pt"
 viewBox="0.00 0.00 605.00 332.00" xmlns="http://www.w3.org/2000/svg" xmlns:xlink="http://www.w3.org/1999/xlink">
<g id="graph0" class="graph" transform="scale(1 1) rotate(0) translate(4 328)">
<title>%3</title>
<polygon fill="transparent" stroke="transparent" points="-4,4 -4,-328 601,-328 601,4 -4,4"/>
<!-- 10 -->
<g id="node1" class="node">
<title>10</title>
<g id="a_node1"><a xlink:title="stdbool.h">
<polygon fill="#ffffff" stroke="black" points="85.5,-108 2.5,-108 2.5,-72 85.5,-72 85.5,-108"/>
<text text-anchor="middle" x="44" y="-86.3" font-family="Times,serif" font-size="14.00">stdbool.h</text>
</a>
</g>
</g>
<!-- 5 -->
<g id="node2" class="node">
<title>5</title>
<g id="a_node2"><a xlink:title="assert.h">
<polygon fill="#ffffff" stroke="black" points="468,-36 394,-36 394,0 468,0 468,-36"/>
<text text-anchor="middle" x="431" y="-14.3" font-family="Times,serif" font-size="14.00">assert.h</text>
</a>
</g>
</g>
<!-- 12 -->
<g id="node3" class="node">
<title>12</title>
<g id="a_node3"><a xlink:title="utils.h">
<polygon fill="#ffffff" stroke="black" points="288,-180 226,-180 226,-144 288,-144 288,-180"/>
<text text-anchor="middle" x="257" y="-158.3" font-family="Times,serif" font-size="14.00">utils.h</text>
</a>
</g>
</g>
<!-- 2 -->
<g id="node7" class="node">
<title>2</title>
<g id="a_node7"><a xlink:title="stdlib.h">
<polygon fill="#ffffff" stroke="black" points="350.5,-108 279.5,-108 279.5,-72 350.5,-72 350.5,-108"/>
<text text-anchor="middle" x="315" y="-86.3" font-family="Times,serif" font-size="14.00">stdlib.h</text>
</a>
</g>
</g>
<!-- 12&#45;&gt;2 -->
<g id="edge3" class="edge">
<title>12&#45;&gt;2</title>
<g id="a_edge3"><a xlink:title="include">
<path fill="none" stroke="#1414ce" d="M271.34,-143.7C278.29,-135.3 286.77,-125.07 294.4,-115.86"/>
<polygon fill="#1414ce" stroke="#1414ce" points="297.14,-118.04 300.83,-108.1 291.75,-113.57 297.14,-118.04"/>
</a>
</g>
</g>
<!-- 13 -->
<g id="node10" class="node">
<title>13</title>
<g id="a_node10"><a xlink:title="stddef.h">
<polygon fill="#ffffff" stroke="black" points="261,-108 187,-108 187,-72 261,-72 261,-108"/>
<text text-anchor="middle" x="224" y="-86.3" font-family="Times,serif" font-size="14.00">stddef.h</text>
</a>
</g>
</g>
<!-- 12&#45;&gt;13 -->
<g id="edge1" class="edge">
<title>12&#45;&gt;13</title>
<g id="a_edge1"><a xlink:title="include">
<path fill="none" stroke="#1414ce" d="M248.84,-143.7C245.09,-135.73 240.55,-126.1 236.38,-117.26"/>
<polygon fill="#1414ce" stroke="#1414ce" points="239.49,-115.66 232.06,-108.1 233.16,-118.64 239.49,-115.66"/>
</a>
</g>
</g>
<!-- 14 -->
<g id="node16" class="node">
<title>14</title>
<g id="a_node16"><a xlink:title="stdio.h">
<polygon fill="#ffffff" stroke="black" points="168.5,-108 103.5,-108 103.5,-72 168.5,-72 168.5,-108"/>
<text text-anchor="middle" x="136" y="-86.3" font-family="Times,serif" font-size="14.00">stdio.h</text>
</a>
</g>
</g>
<!-- 12&#45;&gt;14 -->
<g id="edge2" class="edge">
<title>12&#45;&gt;14</title>
<g id="a_edge2"><a xlink:title="include">
<path fill="none" stroke="#1414ce" d="M227.4,-143.88C211.43,-134.64 191.54,-123.13 174.39,-113.21"/>
<polygon fill="#1414ce" stroke="#1414ce" points="176.12,-110.17 165.71,-108.19 172.62,-116.23 176.12,-110.17"/>
</a>
</g>
</g>
<!-- 16 -->
<g id="node4" class="node">
<title>16</title>
<g id="a_node4"><a xlink:title="synclist.h">
<polygon fill="#ffffff" stroke="black" points="172.5,-252 87.5,-252 87.5,-216 172.5,-216 172.5,-252"/>
<text text-anchor="middle" x="130" y="-230.3" font-family="Times,serif" font-size="14.00">synclist.h</text>
</a>
</g>
</g>
<!-- 9 -->
<g id="node5" class="node">
<title>9</title>
<g id="a_node5"><a xlink:title="list.h">
<polygon fill="#ffffff" stroke="black" points="54,-180 0,-180 0,-144 54,-144 54,-180"/>
<text text-anchor="middle" x="27" y="-158.3" font-family="Times,serif" font-size="14.00">list.h</text>
</a>
</g>
</g>
<!-- 16&#45;&gt;9 -->
<g id="edge5" class="edge">
<title>16&#45;&gt;9</title>
<g id="a_edge5"><a xlink:title="include">
<path fill="none" stroke="#1414ce" d="M104.8,-215.88C91.59,-206.89 75.21,-195.76 60.89,-186.03"/>
<polygon fill="#1414ce" stroke="#1414ce" points="62.53,-182.92 52.29,-180.19 58.6,-188.71 62.53,-182.92"/>
</a>
</g>
</g>
<!-- 17 -->
<g id="node14" class="node">
<title>17</title>
<g id="a_node14"><a xlink:title="smp.h">
<polygon fill="#ffffff" stroke="black" points="132,-180 72,-180 72,-144 132,-144 132,-180"/>
<text text-anchor="middle" x="102" y="-158.3" font-family="Times,serif" font-size="14.00">smp.h</text>
</a>
</g>
</g>
<!-- 16&#45;&gt;17 -->
<g id="edge6" class="edge">
<title>16&#45;&gt;17</title>
<g id="a_edge6"><a xlink:title="include">
<path fill="none" stroke="#1414ce" d="M123.08,-215.7C119.93,-207.81 116.12,-198.3 112.62,-189.55"/>
<polygon fill="#1414ce" stroke="#1414ce" points="115.81,-188.09 108.84,-180.1 109.31,-190.69 115.81,-188.09"/>
</a>
</g>
</g>
<!-- 16&#45;&gt;14 -->
<g id="edge4" class="edge">
<title>16&#45;&gt;14</title>
<g id="a_edge4"><a xlink:title="include">
<path fill="none" stroke="#1414ce" d="M134.46,-215.95C136.94,-205.63 139.75,-192.15 141,-180 143.12,-159.35 141.65,-135.9 139.76,-118.26"/>
<polygon fill="#1414ce" stroke="#1414ce" points="143.21,-117.62 138.56,-108.1 136.26,-118.44 143.21,-117.62"/>
</a>
</g>
</g>
<!-- 9&#45;&gt;10 -->
<g id="edge7" class="edge">
<title>9&#45;&gt;10</title>
<g id="a_edge7"><a xlink:title="include">
<path fill="none" stroke="#1414ce" d="M31.2,-143.7C33.1,-135.9 35.38,-126.51 37.48,-117.83"/>
<polygon fill="#1414ce" stroke="#1414ce" points="40.89,-118.65 39.85,-108.1 34.08,-117 40.89,-118.65"/>
</a>
</g>
</g>
<!-- 8 -->
<g id="node6" class="node">
<title>8</title>
<g id="a_node6"><a xlink:title="stdint.h">
<polygon fill="#ffffff" stroke="black" points="558,-36 486,-36 486,0 558,0 558,-36"/>
<text text-anchor="middle" x="522" y="-14.3" font-family="Times,serif" font-size="14.00">stdint.h</text>
</a>
</g>
</g>
<!-- 15 -->
<g id="node8" class="node">
<title>15</title>
<g id="a_node8"><a xlink:title="memory.h">
<polygon fill="#ffffff" stroke="black" points="455,-252 369,-252 369,-216 455,-216 455,-252"/>
<text text-anchor="middle" x="412" y="-230.3" font-family="Times,serif" font-size="14.00">memory.h</text>
</a>
</g>
</g>
<!-- 15&#45;&gt;12 -->
<g id="edge12" class="edge">
<title>15&#45;&gt;12</title>
<g id="a_edge12"><a xlink:title="include">
<path fill="none" stroke="#1414ce" d="M374.08,-215.88C350.85,-205.38 321.12,-191.96 297.43,-181.26"/>
<polygon fill="#1414ce" stroke="#1414ce" points="298.57,-177.93 288.02,-177.01 295.69,-184.31 298.57,-177.93"/>
</a>
</g>
</g>
<!-- 15&#45;&gt;8 -->
<g id="edge8" class="edge">
<title>15&#45;&gt;8</title>
<g id="a_edge8"><a xlink:title="include">
<path fill="none" stroke="#1414ce" d="M428.17,-215.87C448.76,-193.07 483.96,-150.65 503,-108 511.79,-88.31 516.6,-64.33 519.19,-46.22"/>
<polygon fill="#1414ce" stroke="#1414ce" points="522.69,-46.42 520.49,-36.05 515.75,-45.53 522.69,-46.42"/>
</a>
</g>
</g>
<!-- 15&#45;&gt;2 -->
<g id="edge9" class="edge">
<title>15&#45;&gt;2</title>
<g id="a_edge9"><a xlink:title="include">
<path fill="none" stroke="#1414ce" d="M400.3,-215.87C383.4,-191.14 352.05,-145.24 332.43,-116.51"/>
<polygon fill="#1414ce" stroke="#1414ce" points="335.27,-114.47 326.74,-108.19 329.49,-118.42 335.27,-114.47"/>
</a>
</g>
</g>
<!-- 3 -->
<g id="node11" class="node">
<title>3</title>
<g id="a_node11"><a xlink:title="erl_nif.h">
<polygon fill="#ffffff" stroke="black" points="597,-180 523,-180 523,-144 597,-144 597,-180"/>
<text text-anchor="middle" x="560" y="-158.3" font-family="Times,serif" font-size="14.00">erl_nif.h</text>
</a>
</g>
</g>
<!-- 15&#45;&gt;3 -->
<g id="edge10" class="edge">
<title>15&#45;&gt;3</title>
<g id="a_edge10"><a xlink:title="include">
<path fill="none" stroke="#1414ce" d="M448.2,-215.88C468.26,-206.39 493.37,-194.51 514.71,-184.42"/>
<polygon fill="#1414ce" stroke="#1414ce" points="516.37,-187.51 523.91,-180.07 513.38,-181.18 516.37,-187.51"/>
</a>
</g>
</g>
<!-- 4 -->
<g id="node13" class="node">
<title>4</title>
<g id="a_node13"><a xlink:title="term_typedef.h">
<polygon fill="#ffffff" stroke="black" points="493.5,-108 368.5,-108 368.5,-72 493.5,-72 493.5,-108"/>
<text text-anchor="middle" x="431" y="-86.3" font-family="Times,serif" font-size="14.00">term_typedef.h</text>
</a>
</g>
</g>
<!-- 15&#45;&gt;4 -->
<g id="edge11" class="edge">
<title>15&#45;&gt;4</title>
<g id="a_edge11"><a xlink:title="include">
<path fill="none" stroke="#1414ce" d="M414.29,-215.87C417.53,-191.67 423.48,-147.21 427.33,-118.39"/>
<polygon fill="#1414ce" stroke="#1414ce" points="430.84,-118.57 428.7,-108.19 423.9,-117.64 430.84,-118.57"/>
</a>
</g>
</g>
<!-- 1 -->
<g id="node9" class="node">
<title>1</title>
<g id="a_node9"><a xlink:title="/__w/AtomVM/AtomVM/src/libAtomVM/resources.h">
<polygon fill="#bfbfbf" stroke="black" points="468.5,-324 91.5,-324 91.5,-288 468.5,-288 468.5,-324"/>
<text text-anchor="middle" x="280" y="-302.3" font-family="Times,serif" font-size="14.00">/__w/AtomVM/AtomVM/src/libAtomVM/resources.h</text>
</a>
</g>
</g>
<!-- 1&#45;&gt;16 -->
<g id="edge18" class="edge">
<title>1&#45;&gt;16</title>
<g id="a_edge18"><a xlink:title="include">
<path fill="none" stroke="#1414ce" d="M243.31,-287.88C222.98,-278.39 197.53,-266.51 175.9,-256.42"/>
<polygon fill="#1414ce" stroke="#1414ce" points="177.12,-253.13 166.57,-252.07 174.16,-259.47 177.12,-253.13"/>
</a>
</g>
</g>
<!-- 1&#45;&gt;9 -->
<g id="edge15" class="edge">
<title>1&#45;&gt;9</title>
<g id="a_edge15"><a xlink:title="include">
<path fill="none" stroke="#1414ce" d="M154.28,-287.93C127.6,-280.09 100.91,-268.65 79,-252 58.28,-236.25 44.32,-209.67 36.13,-189.65"/>
<polygon fill="#1414ce" stroke="#1414ce" points="39.33,-188.22 32.46,-180.15 32.79,-190.74 39.33,-188.22"/>
</a>
</g>
</g>
<!-- 1&#45;&gt;2 -->
<g id="edge13" class="edge">
<title>1&#45;&gt;2</title>
<g id="a_edge13"><a xlink:title="include">
<path fill="none" stroke="#1414ce" d="M286.56,-287.57C290.16,-277.34 294.41,-264.09 297,-252 306.94,-205.55 311.6,-150.31 313.62,-118.09"/>
<polygon fill="#1414ce" stroke="#1414ce" points="317.11,-118.29 314.21,-108.1 310.13,-117.88 317.11,-118.29"/>
</a>
</g>
</g>
<!-- 1&#45;&gt;15 -->
<g id="edge17" class="edge">
<title>1&#45;&gt;15</title>
<g id="a_edge17"><a xlink:title="include">
<path fill="none" stroke="#1414ce" d="M312.29,-287.88C329.87,-278.55 351.81,-266.92 370.63,-256.94"/>
<polygon fill="#1414ce" stroke="#1414ce" points="372.39,-259.97 379.59,-252.19 369.11,-253.78 372.39,-259.97"/>
</a>
</g>
</g>
<!-- 1&#45;&gt;3 -->
<g id="edge14" class="edge">
<title>1&#45;&gt;3</title>
<g id="a_edge14"><a xlink:title="include">
<path fill="none" stroke="#1414ce" d="M370.39,-287.91C401.33,-279.77 435.34,-268.18 464,-252 493.53,-235.33 521.24,-207.86 539.23,-187.84"/>
<polygon fill="#1414ce" stroke="#1414ce" points="541.88,-190.13 545.86,-180.31 536.63,-185.5 541.88,-190.13"/>
</a>
</g>
</g>
<!-- 11 -->
<g id="node15" class="node">
<title>11</title>
<g id="a_node15"><a xlink:title="mailbox.h">
<polygon fill="#ffffff" stroke="black" points="288,-252 202,-252 202,-216 288,-216 288,-252"/>
<text text-anchor="middle" x="245" y="-230.3" font-family="Times,serif" font-size="14.00">mailbox.h</text>
</a>
</g>
</g>
<!-- 1&#45;&gt;11 -->
<g id="edge16" class="edge">
<title>1&#45;&gt;11</title>
<g id="a_edge16"><a xlink:title="include">
<path fill="none" stroke="#1414ce" d="M271.35,-287.7C267.36,-279.73 262.55,-270.1 258.13,-261.26"/>
<polygon fill="#1414ce" stroke="#1414ce" points="261.15,-259.48 253.55,-252.1 254.89,-262.61 261.15,-259.48"/>
</a>
</g>
</g>
<!-- 3&#45;&gt;4 -->
<g id="edge19" class="edge">
<title>3&#45;&gt;4</title>
<g id="a_edge19"><a xlink:title="include">
<path fill="none" stroke="#1414ce" d="M528.44,-143.88C511.34,-134.6 490.02,-123.03 471.68,-113.08"/>
<polygon fill="#1414ce" stroke="#1414ce" points="473.14,-109.88 462.68,-108.19 469.8,-116.04 473.14,-109.88"/>
</a>
</g>
</g>
<!-- 6 -->
<g id="node12" class="node">
<title>6</title>
<g id="a_node12"><a xlink:title="limits.h">
<polygon fill="#ffffff" stroke="black" points="268.5,-36 197.5,-36 197.5,0 268.5,0 268.5,-36"/>
<text text-anchor="middle" x="233" y="-14.3" font-family="Times,serif" font-size="14.00">limits.h</text>
</a>
</g>
</g>
<!-- 4&#45;&gt;5 -->
<g id="edge20" class="edge">
<title>4&#45;&gt;5</title>
<g id="a_edge20"><a xlink:title="include">
<path fill="none" stroke="#1414ce" d="M431,-71.7C431,-63.98 431,-54.71 431,-46.11"/>
<polygon fill="#1414ce" stroke="#1414ce" points="434.5,-46.1 431,-36.1 427.5,-46.1 434.5,-46.1"/>
</a>
</g>
</g>
<!-- 4&#45;&gt;8 -->
<g id="edge23" class="edge">
<title>4&#45;&gt;8</title>
<g id="a_edge23"><a xlink:title="include">
<path fill="none" stroke="#1414ce" d="M453.49,-71.7C464.96,-62.88 479.06,-52.03 491.48,-42.47"/>
<polygon fill="#1414ce" stroke="#1414ce" points="493.97,-44.98 499.76,-36.1 489.7,-39.43 493.97,-44.98"/>
</a>
</g>
</g>
<!-- 4&#45;&gt;6 -->
<g id="edge21" class="edge">
<title>4&#45;&gt;6</title>
<g id="a_edge21"><a xlink:title="include">
<path fill="none" stroke="#1414ce" d="M380.57,-71.92C352.9,-62.46 317.78,-50.31 278.38,-36.1"/>
<polygon fill="#1414ce" stroke="#1414ce" points="279.42,-32.75 268.83,-32.64 277.04,-39.33 279.42,-32.75"/>
</a>
</g>
</g>
<!-- 7 -->
<g id="node17" class="node">
<title>7</title>
<g id="a_node17"><a xlink:title="inttypes.h">
<polygon fill="#ffffff" stroke="black" points="375.5,-36 286.5,-36 286.5,0 375.5,0 375.5,-36"/>
<text text-anchor="middle" x="331" y="-14.3" font-family="Times,serif" font-size="14.00">inttypes.h</text>
</a>
</g>
</g>
<!-- 4&#45;&gt;7 -->
<g id="edge22" class="edge">
<title>4&#45;&gt;7</title>
<g id="a_edge22"><a xlink:title="include">
<path fill="none" stroke="#1414ce" d="M406.54,-71.88C393.7,-62.89 377.8,-51.76 363.91,-42.03"/>
<polygon fill="#1414ce" stroke="#1414ce" points="365.76,-39.06 355.56,-36.19 361.74,-44.79 365.76,-39.06"/>
</a>
</g>
</g>
<!-- 17&#45;&gt;10 -->
<g id="edge24" class="edge">
<title>17&#45;&gt;10</title>
<g id="a_edge24"><a xlink:title="include">
<path fill="none" stroke="#1414ce" d="M87.66,-143.7C80.71,-135.3 72.23,-125.07 64.6,-115.86"/>
<polygon fill="#1414ce" stroke="#1414ce" points="67.25,-113.57 58.17,-108.1 61.86,-118.04 67.25,-113.57"/>
</a>
</g>
</g>
<!-- 11&#45;&gt;10 -->
<g id="edge25" class="edge">
<title>11&#45;&gt;10</title>
<g id="a_edge25"><a xlink:title="include">
<path fill="none" stroke="#1414ce" d="M227.15,-215.7C207.15,-196.8 173.27,-166.27 141,-144 124.61,-132.69 105.56,-121.84 88.71,-112.94"/>
<polygon fill="#1414ce" stroke="#1414ce" points="90.1,-109.71 79.61,-108.2 86.86,-115.92 90.1,-109.71"/>
</a>
</g>
</g>
<!-- 11&#45;&gt;12 -->
<g id="edge28" class="edge">
<title>11&#45;&gt;12</title>
<g id="a_edge28"><a xlink:title="include">
<path fill="none" stroke="#1414ce" d="M247.97,-215.7C249.29,-207.98 250.88,-198.71 252.35,-190.11"/>
<polygon fill="#1414ce" stroke="#1414ce" points="255.83,-190.55 254.07,-180.1 248.93,-189.37 255.83,-190.55"/>
</a>
</g>
</g>
<!-- 11&#45;&gt;9 -->
<g id="edge26" class="edge">
<title>11&#45;&gt;9</title>
<g id="a_edge26"><a xlink:title="include">
<path fill="none" stroke="#1414ce" d="M201.98,-221.32C160.55,-209.93 99.95,-192.88 63.83,-179.97"/>
<polygon fill="#1414ce" stroke="#1414ce" points="64.92,-176.64 54.32,-176.45 62.48,-183.21 64.92,-176.64"/>
</a>
</g>
</g>
<!-- 11&#45;&gt;4 -->
<g id="edge27" class="edge">
<title>11&#45;&gt;4</title>
<g id="a_edge27"><a xlink:title="include">
<path fill="none" stroke="#1414ce" d="M267.44,-215.87C300.67,-190.5 363.08,-142.85 400.46,-114.32"/>
<polygon fill="#1414ce" stroke="#1414ce" points="402.66,-117.04 408.48,-108.19 398.41,-111.48 402.66,-117.04"/>
</a>
</g>
</g>
</g>
</svg>
