<?xml version="1.0" encoding="UTF-8" standalone="no"?>
<!DOCTYPE svg PUBLIC "-//W3C//DTD SVG 1.1//EN"
 "http://www.w3.org/Graphics/SVG/1.1/DTD/svg11.dtd">
<!-- Generated by graphviz version 2.43.0 (0)
 -->
<!-- Title: %3 Pages: 1 -->
<svg width="1112pt" height="404pt"
 viewBox="0.00 0.00 1112.30 404.00" xmlns="http://www.w3.org/2000/svg" xmlns:xlink="http://www.w3.org/1999/xlink">
<g id="graph0" class="graph" transform="scale(1 1) rotate(0) translate(4 400)">
<title>%3</title>
<polygon fill="transparent" stroke="transparent" points="-4,4 -4,-400 1108.3,-400 1108.3,4 -4,4"/>
<!-- 23 -->
<g id="node1" class="node">
<title>23</title>
<g id="a_node1"><a xlink:title="SpinLock">
<polygon fill="#ffffff" stroke="black" points="856.3,-324 774.3,-324 774.3,-288 856.3,-288 856.3,-324"/>
<text text-anchor="middle" x="815.3" y="-302.3" font-family="Times,serif" font-size="14.00">SpinLock</text>
</a>
</g>
</g>
<!-- 12 -->
<g id="node2" class="node">
<title>12</title>
<g id="a_node2"><a xlink:title="ResourceType">
<polygon fill="#ffffff" stroke="black" points="261.8,-180 144.8,-180 144.8,-144 261.8,-144 261.8,-180"/>
<text text-anchor="middle" x="203.3" y="-158.3" font-family="Times,serif" font-size="14.00">ResourceType</text>
</a>
</g>
</g>
<!-- 8 -->
<g id="node5" class="node">
<title>8</title>
<g id="a_node5"><a xlink:title="ListHead">
<polygon fill="#ffffff" stroke="black" points="280.8,-36 199.8,-36 199.8,0 280.8,0 280.8,-36"/>
<text text-anchor="middle" x="240.3" y="-14.3" font-family="Times,serif" font-size="14.00">ListHead</text>
</a>
</g>
</g>
<!-- 12&#45;&gt;8 -->
<g id="edge3" class="edge">
<title>12&#45;&gt;8</title>
<g id="a_edge3"><a xlink:title="usage">
<path fill="none" stroke="#1414ce" d="M209.65,-143.97C213.36,-133.66 217.95,-120.18 221.3,-108 226.93,-87.57 231.88,-64.11 235.31,-46.4"/>
<polygon fill="#1414ce" stroke="#1414ce" points="238.82,-46.68 237.25,-36.21 231.95,-45.38 238.82,-46.68"/>
</a>
</g>
</g>
<!-- 11 -->
<g id="node8" class="node">
<title>11</title>
<g id="a_node8"><a xlink:title="GlobalContext">
<polygon fill="#ffffff" stroke="black" points="380.8,-396 261.8,-396 261.8,-360 380.8,-360 380.8,-396"/>
<text text-anchor="middle" x="321.3" y="-374.3" font-family="Times,serif" font-size="14.00">GlobalContext</text>
</a>
</g>
</g>
<!-- 12&#45;&gt;11 -->
<g id="edge2" class="edge">
<title>12&#45;&gt;11</title>
<g id="a_edge2"><a xlink:title="usage">
<path fill="none" stroke="#1414ce" d="M206.21,-180.27C206.58,-211.81 203.83,-279.56 234.3,-324 243.31,-337.14 256.69,-347.35 270.3,-355.14"/>
<polygon fill="#1414ce" stroke="#1414ce" points="268.76,-358.29 279.23,-359.92 272.07,-352.12 268.76,-358.29"/>
</a>
</g>
</g>
<!-- 13 -->
<g id="node23" class="node">
<title>13</title>
<g id="a_node23"><a xlink:title="SyncList">
<polygon fill="#ffffff" stroke="black" points="212.3,-108 134.3,-108 134.3,-72 212.3,-72 212.3,-108"/>
<text text-anchor="middle" x="173.3" y="-86.3" font-family="Times,serif" font-size="14.00">SyncList</text>
</a>
</g>
</g>
<!-- 12&#45;&gt;13 -->
<g id="edge1" class="edge">
<title>12&#45;&gt;13</title>
<g id="a_edge1"><a xlink:title="usage">
<path fill="none" stroke="#1414ce" d="M195.89,-143.7C192.51,-135.81 188.43,-126.3 184.68,-117.55"/>
<polygon fill="#1414ce" stroke="#1414ce" points="187.79,-115.92 180.63,-108.1 181.36,-118.67 187.79,-115.92"/>
</a>
</g>
</g>
<!-- 1 -->
<g id="node3" class="node">
<title>1</title>
<g id="a_node3"><a xlink:title="JITState">
<polygon fill="#bfbfbf" stroke="black" points="946.3,-396 872.3,-396 872.3,-360 946.3,-360 946.3,-396"/>
<text text-anchor="middle" x="909.3" y="-374.3" font-family="Times,serif" font-size="14.00">JITState</text>
</a>
</g>
</g>
<!-- 2 -->
<g id="node4" class="node">
<title>2</title>
<g id="a_node4"><a xlink:title="Module">
<polygon fill="#ffffff" stroke="black" points="944.3,-324 874.3,-324 874.3,-288 944.3,-288 944.3,-324"/>
<text text-anchor="middle" x="909.3" y="-302.3" font-family="Times,serif" font-size="14.00">Module</text>
</a>
</g>
</g>
<!-- 1&#45;&gt;2 -->
<g id="edge4" class="edge">
<title>1&#45;&gt;2</title>
<g id="a_edge4"><a xlink:title="usage">
<path fill="none" stroke="#1414ce" d="M909.3,-359.7C909.3,-351.98 909.3,-342.71 909.3,-334.11"/>
<polygon fill="#1414ce" stroke="#1414ce" points="912.8,-334.1 909.3,-324.1 905.8,-334.1 912.8,-334.1"/>
</a>
</g>
</g>
<!-- 24 -->
<g id="node12" class="node">
<title>24</title>
<g id="a_node12"><a xlink:title="LiteralEntry">
<polygon fill="#ffffff" stroke="black" points="1104.3,-252 1000.3,-252 1000.3,-216 1104.3,-216 1104.3,-252"/>
<text text-anchor="middle" x="1052.3" y="-230.3" font-family="Times,serif" font-size="14.00">LiteralEntry</text>
</a>
</g>
</g>
<!-- 2&#45;&gt;24 -->
<g id="edge7" class="edge">
<title>2&#45;&gt;24</title>
<g id="a_edge7"><a xlink:title="usage">
<path fill="none" stroke="#1414ce" d="M944.28,-287.88C963.5,-278.47 987.53,-266.71 1008.04,-256.67"/>
<polygon fill="#1414ce" stroke="#1414ce" points="1009.74,-259.73 1017.19,-252.19 1006.67,-253.44 1009.74,-259.73"/>
</a>
</g>
</g>
<!-- 4 -->
<g id="node15" class="node">
<title>4</title>
<g id="a_node15"><a xlink:title="Context">
<polygon fill="#ffffff" stroke="black" points="761.8,-252 688.8,-252 688.8,-216 761.8,-216 761.8,-252"/>
<text text-anchor="middle" x="725.3" y="-230.3" font-family="Times,serif" font-size="14.00">Context</text>
</a>
</g>
</g>
<!-- 2&#45;&gt;4 -->
<g id="edge6" class="edge">
<title>2&#45;&gt;4</title>
<g id="a_edge6"><a xlink:title="usage">
<path fill="none" stroke="#1414ce" d="M874.01,-294.72C868.03,-292.5 861.96,-290.16 856.3,-288 828.12,-277.22 796.71,-265.32 771.63,-255.53"/>
<polygon fill="#1414ce" stroke="#1414ce" points="772.59,-252.15 762,-251.75 770.03,-258.66 772.59,-252.15"/>
</a>
</g>
</g>
<!-- 3 -->
<g id="node21" class="node">
<title>3</title>
<g id="a_node21"><a xlink:title="ExportedFunction">
<polygon fill="#ffffff" stroke="black" points="982.3,-252 836.3,-252 836.3,-216 982.3,-216 982.3,-252"/>
<text text-anchor="middle" x="909.3" y="-230.3" font-family="Times,serif" font-size="14.00">ExportedFunction</text>
</a>
</g>
</g>
<!-- 2&#45;&gt;3 -->
<g id="edge5" class="edge">
<title>2&#45;&gt;3</title>
<g id="a_edge5"><a xlink:title="usage">
<path fill="none" stroke="#1414ce" d="M909.3,-287.7C909.3,-279.98 909.3,-270.71 909.3,-262.11"/>
<polygon fill="#1414ce" stroke="#1414ce" points="912.8,-262.1 909.3,-252.1 905.8,-262.1 912.8,-262.1"/>
</a>
</g>
</g>
<!-- 8&#45;&gt;8 -->
<g id="edge8" class="edge">
<title>8&#45;&gt;8</title>
<g id="a_edge8"><a xlink:title="usage">
<path fill="none" stroke="#1414ce" d="M281.04,-31.31C291.2,-30.38 298.8,-25.95 298.8,-18 298.8,-12.91 295.68,-9.26 290.77,-7.05"/>
<polygon fill="#1414ce" stroke="#1414ce" points="291.58,-3.64 281.04,-4.69 289.93,-10.45 291.58,-3.64"/>
</a>
</g>
</g>
<!-- 10 -->
<g id="node6" class="node">
<title>10</title>
<g id="a_node6"><a xlink:title="HeapFragment">
<polygon fill="#ffffff" stroke="black" points="761.8,-36 636.8,-36 636.8,0 761.8,0 761.8,-36"/>
<text text-anchor="middle" x="699.3" y="-14.3" font-family="Times,serif" font-size="14.00">HeapFragment</text>
</a>
</g>
</g>
<!-- 10&#45;&gt;10 -->
<g id="edge9" class="edge">
<title>10&#45;&gt;10</title>
<g id="a_edge9"><a xlink:title="usage">
<path fill="none" stroke="#1414ce" d="M762.08,-30.55C772.57,-28.79 779.8,-24.61 779.8,-18 779.8,-13.77 776.83,-10.53 771.94,-8.29"/>
<polygon fill="#1414ce" stroke="#1414ce" points="772.66,-4.85 762.08,-5.45 770.73,-11.58 772.66,-4.85"/>
</a>
</g>
</g>
<!-- 20 -->
<g id="node7" class="node">
<title>20</title>
<g id="a_node7"><a xlink:title="RefcBinaryQueueItem">
<polygon fill="#ffffff" stroke="black" points="408.3,-324 234.3,-324 234.3,-288 408.3,-288 408.3,-324"/>
<text text-anchor="middle" x="321.3" y="-302.3" font-family="Times,serif" font-size="14.00">RefcBinaryQueueItem</text>
</a>
</g>
</g>
<!-- 20&#45;&gt;20 -->
<g id="edge11" class="edge">
<title>20&#45;&gt;20</title>
<g id="a_edge11"><a xlink:title="usage">
<path fill="none" stroke="#1414ce" d="M408.6,-317.68C419.29,-315.59 426.3,-311.7 426.3,-306 426.3,-302.35 423.43,-299.44 418.55,-297.27"/>
<polygon fill="#1414ce" stroke="#1414ce" points="419.19,-293.81 408.6,-294.32 417.19,-300.52 419.19,-293.81"/>
</a>
</g>
</g>
<!-- 21 -->
<g id="node17" class="node">
<title>21</title>
<g id="a_node17"><a xlink:title="RefcBinary">
<polygon fill="#ffffff" stroke="black" points="329.8,-252 234.8,-252 234.8,-216 329.8,-216 329.8,-252"/>
<text text-anchor="middle" x="282.3" y="-230.3" font-family="Times,serif" font-size="14.00">RefcBinary</text>
</a>
</g>
</g>
<!-- 20&#45;&gt;21 -->
<g id="edge10" class="edge">
<title>20&#45;&gt;21</title>
<g id="a_edge10"><a xlink:title="usage">
<path fill="none" stroke="#1414ce" d="M311.66,-287.7C307.18,-279.64 301.74,-269.89 296.78,-260.98"/>
<polygon fill="#1414ce" stroke="#1414ce" points="299.76,-259.14 291.83,-252.1 293.64,-262.54 299.76,-259.14"/>
</a>
</g>
</g>
<!-- 11&#45;&gt;23 -->
<g id="edge21" class="edge">
<title>11&#45;&gt;23</title>
<g id="a_edge21"><a xlink:title="usage">
<path fill="none" stroke="#1414ce" d="M381.15,-373.2C466.17,-367.02 626.47,-352.52 760.3,-324 761.57,-323.73 762.84,-323.44 764.13,-323.15"/>
<polygon fill="#1414ce" stroke="#1414ce" points="765.24,-326.47 774.07,-320.62 763.51,-319.69 765.24,-326.47"/>
</a>
</g>
</g>
<!-- 11&#45;&gt;12 -->
<g id="edge12" class="edge">
<title>11&#45;&gt;12</title>
<g id="a_edge12"><a xlink:title="usage">
<path fill="none" stroke="#1414ce" d="M262.37,-359.92C244.76,-351.68 227.28,-340.02 216.3,-324 188.81,-283.9 188.36,-224.82 193.75,-190.49"/>
<polygon fill="#1414ce" stroke="#1414ce" points="197.27,-190.75 195.68,-180.27 190.39,-189.45 197.27,-190.75"/>
</a>
</g>
</g>
<!-- 11&#45;&gt;2 -->
<g id="edge19" class="edge">
<title>11&#45;&gt;2</title>
<g id="a_edge19"><a xlink:title="usage">
<path fill="none" stroke="#1414ce" d="M380.93,-376.45C480.13,-374.4 685.07,-365.29 864.17,-323.9"/>
<polygon fill="#1414ce" stroke="#1414ce" points="865.09,-327.27 874.02,-321.58 863.49,-320.46 865.09,-327.27"/>
</a>
</g>
</g>
<!-- 11&#45;&gt;8 -->
<g id="edge22" class="edge">
<title>11&#45;&gt;8</title>
<g id="a_edge22"><a xlink:title="usage">
<path fill="none" stroke="#1414ce" d="M261.72,-371.11C192.94,-363.32 85.07,-347.73 52.3,-324 15.55,-297.39 2.3,-280.37 2.3,-235 2.3,-235 2.3,-235 2.3,-161 2.3,-120.55 -6.91,-100.99 21.3,-72 44.34,-48.33 132.27,-32.83 189.46,-25.01"/>
<polygon fill="#1414ce" stroke="#1414ce" points="189.96,-28.48 199.41,-23.69 189.04,-21.54 189.96,-28.48"/>
</a>
</g>
</g>
<!-- 11&#45;&gt;20 -->
<g id="edge17" class="edge">
<title>11&#45;&gt;20</title>
<g id="a_edge17"><a xlink:title="usage">
<path fill="none" stroke="#1414ce" d="M321.3,-359.7C321.3,-351.98 321.3,-342.71 321.3,-334.11"/>
<polygon fill="#1414ce" stroke="#1414ce" points="324.8,-334.1 321.3,-324.1 317.8,-334.1 324.8,-334.1"/>
</a>
</g>
</g>
<!-- 14 -->
<g id="node9" class="node">
<title>14</title>
<g id="a_node9"><a xlink:title="Ets">
<polygon fill="#ffffff" stroke="black" points="160.3,-324 106.3,-324 106.3,-288 160.3,-288 160.3,-324"/>
<text text-anchor="middle" x="133.3" y="-302.3" font-family="Times,serif" font-size="14.00">Ets</text>
</a>
</g>
</g>
<!-- 11&#45;&gt;14 -->
<g id="edge13" class="edge">
<title>11&#45;&gt;14</title>
<g id="a_edge13"><a xlink:title="usage">
<path fill="none" stroke="#1414ce" d="M272.09,-359.91C243.43,-349.79 206.68,-336.54 174.3,-324 172.91,-323.46 171.49,-322.91 170.07,-322.34"/>
<polygon fill="#1414ce" stroke="#1414ce" points="171.16,-319.01 160.58,-318.52 168.55,-325.5 171.16,-319.01"/>
</a>
</g>
</g>
<!-- 22 -->
<g id="node11" class="node">
<title>22</title>
<g id="a_node11"><a xlink:title="TimerList">
<polygon fill="#ffffff" stroke="black" points="116.3,-108 30.3,-108 30.3,-72 116.3,-72 116.3,-108"/>
<text text-anchor="middle" x="73.3" y="-86.3" font-family="Times,serif" font-size="14.00">TimerList</text>
</a>
</g>
</g>
<!-- 11&#45;&gt;22 -->
<g id="edge20" class="edge">
<title>11&#45;&gt;22</title>
<g id="a_edge20"><a xlink:title="usage">
<path fill="none" stroke="#1414ce" d="M261.72,-372.55C196.59,-366.3 98.41,-352.37 75.3,-324 26.75,-264.39 49.18,-164.87 63.97,-117.55"/>
<polygon fill="#1414ce" stroke="#1414ce" points="67.3,-118.61 67.07,-108.02 60.65,-116.44 67.3,-118.61"/>
</a>
</g>
</g>
<!-- 17 -->
<g id="node16" class="node">
<title>17</title>
<g id="a_node16"><a xlink:title="MessageQueueItem">
<polygon fill="#ffffff" stroke="black" points="951.3,-180 793.3,-180 793.3,-144 951.3,-144 951.3,-180"/>
<text text-anchor="middle" x="872.3" y="-158.3" font-family="Times,serif" font-size="14.00">MessageQueueItem</text>
</a>
</g>
</g>
<!-- 11&#45;&gt;17 -->
<g id="edge15" class="edge">
<title>11&#45;&gt;17</title>
<g id="a_edge15"><a xlink:title="usage">
<path fill="none" stroke="#1414ce" d="M381.13,-374.07C475.87,-366.77 662.62,-341.23 789.3,-252 802.98,-242.37 831.49,-210.61 851.25,-187.77"/>
<polygon fill="#1414ce" stroke="#1414ce" points="853.97,-189.98 857.84,-180.12 848.66,-185.42 853.97,-189.98"/>
</a>
</g>
</g>
<!-- 15 -->
<g id="node18" class="node">
<title>15</title>
<g id="a_node18"><a xlink:title="ValuesHashTable">
<polygon fill="#ffffff" stroke="black" points="670.3,-252 532.3,-252 532.3,-216 670.3,-216 670.3,-252"/>
<text text-anchor="middle" x="601.3" y="-230.3" font-family="Times,serif" font-size="14.00">ValuesHashTable</text>
</a>
</g>
</g>
<!-- 11&#45;&gt;15 -->
<g id="edge14" class="edge">
<title>11&#45;&gt;15</title>
<g id="a_edge14"><a xlink:title="usage">
<path fill="none" stroke="#1414ce" d="M381.09,-375.07C429.39,-370.82 497.03,-358.52 545.3,-324 567,-308.49 582.17,-281.7 591.2,-261.55"/>
<polygon fill="#1414ce" stroke="#1414ce" points="594.45,-262.84 595.14,-252.27 588.01,-260.11 594.45,-262.84"/>
</a>
</g>
</g>
<!-- 18 -->
<g id="node20" class="node">
<title>18</title>
<g id="a_node20"><a xlink:title="AtomTable">
<polygon fill="#ffffff" stroke="black" points="536.3,-324 444.3,-324 444.3,-288 536.3,-288 536.3,-324"/>
<text text-anchor="middle" x="490.3" y="-302.3" font-family="Times,serif" font-size="14.00">AtomTable</text>
</a>
</g>
</g>
<!-- 11&#45;&gt;18 -->
<g id="edge16" class="edge">
<title>11&#45;&gt;18</title>
<g id="a_edge16"><a xlink:title="usage">
<path fill="none" stroke="#1414ce" d="M362.64,-359.88C385.85,-350.26 414.99,-338.19 439.57,-328.01"/>
<polygon fill="#1414ce" stroke="#1414ce" points="441.2,-331.13 449.09,-324.07 438.52,-324.66 441.2,-331.13"/>
</a>
</g>
</g>
<!-- 11&#45;&gt;13 -->
<g id="edge18" class="edge">
<title>11&#45;&gt;13</title>
<g id="a_edge18"><a xlink:title="usage">
<path fill="none" stroke="#1414ce" d="M261.55,-371.15C202.27,-363.96 117.45,-349.47 97.3,-324 72.37,-292.48 61.79,-268.36 124.3,-144 129.56,-133.54 137.5,-123.66 145.47,-115.33"/>
<polygon fill="#1414ce" stroke="#1414ce" points="148.09,-117.66 152.72,-108.13 143.16,-112.69 148.09,-117.66"/>
</a>
</g>
</g>
<!-- 14&#45;&gt;13 -->
<g id="edge23" class="edge">
<title>14&#45;&gt;13</title>
<g id="a_edge23"><a xlink:title="usage">
<path fill="none" stroke="#1414ce" d="M130.39,-287.54C126.06,-257.38 120.07,-193.99 136.3,-144 139.49,-134.18 145.17,-124.57 151.14,-116.29"/>
<polygon fill="#1414ce" stroke="#1414ce" points="154.04,-118.25 157.36,-108.19 148.49,-113.98 154.04,-118.25"/>
</a>
</g>
</g>
<!-- 19 -->
<g id="node10" class="node">
<title>19</title>
<g id="a_node10"><a xlink:title="HNodeGroup">
<polygon fill="#ffffff" stroke="black" points="496.3,-252 386.3,-252 386.3,-216 496.3,-216 496.3,-252"/>
<text text-anchor="middle" x="441.3" y="-230.3" font-family="Times,serif" font-size="14.00">HNodeGroup</text>
</a>
</g>
</g>
<!-- 19&#45;&gt;19 -->
<g id="edge25" class="edge">
<title>19&#45;&gt;19</title>
<g id="a_edge25"><a xlink:title="usage">
<path fill="none" stroke="#1414ce" d="M496.38,-246.85C506.88,-245.32 514.3,-241.03 514.3,-234 514.3,-229.5 511.25,-226.12 506.3,-223.87"/>
<polygon fill="#1414ce" stroke="#1414ce" points="506.95,-220.42 496.38,-221.15 505.09,-227.17 506.95,-220.42"/>
</a>
</g>
</g>
<!-- 16 -->
<g id="node24" class="node">
<title>16</title>
<g id="a_node24"><a xlink:title="HNode">
<polygon fill="#ffffff" stroke="black" points="460.3,-180 394.3,-180 394.3,-144 460.3,-144 460.3,-180"/>
<text text-anchor="middle" x="427.3" y="-158.3" font-family="Times,serif" font-size="14.00">HNode</text>
</a>
</g>
</g>
<!-- 19&#45;&gt;16 -->
<g id="edge24" class="edge">
<title>19&#45;&gt;16</title>
<g id="a_edge24"><a xlink:title="usage">
<path fill="none" stroke="#1414ce" d="M437.84,-215.7C436.3,-207.98 434.44,-198.71 432.72,-190.11"/>
<polygon fill="#1414ce" stroke="#1414ce" points="436.12,-189.22 430.72,-180.1 429.25,-190.6 436.12,-189.22"/>
</a>
</g>
</g>
<!-- 22&#45;&gt;8 -->
<g id="edge26" class="edge">
<title>22&#45;&gt;8</title>
<g id="a_edge26"><a xlink:title="usage">
<path fill="none" stroke="#1414ce" d="M114.16,-71.88C137.09,-62.26 165.88,-50.19 190.17,-40.01"/>
<polygon fill="#1414ce" stroke="#1414ce" points="191.71,-43.16 199.58,-36.07 189.01,-36.71 191.71,-43.16"/>
</a>
</g>
</g>
<!-- 6 -->
<g id="node13" class="node">
<title>6</title>
<g id="a_node13"><a xlink:title="MailboxMessage">
<polygon fill="#ffffff" stroke="black" points="910.8,-108 773.8,-108 773.8,-72 910.8,-72 910.8,-108"/>
<text text-anchor="middle" x="842.3" y="-86.3" font-family="Times,serif" font-size="14.00">MailboxMessage</text>
</a>
</g>
</g>
<!-- 6&#45;&gt;6 -->
<g id="edge27" class="edge">
<title>6&#45;&gt;6</title>
<g id="a_edge27"><a xlink:title="usage">
<path fill="none" stroke="#1414ce" d="M910.83,-102.37C921.52,-100.52 928.8,-96.4 928.8,-90 928.8,-85.8 925.66,-82.58 920.49,-80.34"/>
<polygon fill="#1414ce" stroke="#1414ce" points="921.4,-76.96 910.83,-77.63 919.51,-83.7 921.4,-76.96"/>
</a>
</g>
</g>
<!-- 9 -->
<g id="node14" class="node">
<title>9</title>
<g id="a_node14"><a xlink:title="Heap">
<polygon fill="#ffffff" stroke="black" points="726.3,-108 672.3,-108 672.3,-72 726.3,-72 726.3,-108"/>
<text text-anchor="middle" x="699.3" y="-86.3" font-family="Times,serif" font-size="14.00">Heap</text>
</a>
</g>
</g>
<!-- 9&#45;&gt;10 -->
<g id="edge28" class="edge">
<title>9&#45;&gt;10</title>
<g id="a_edge28"><a xlink:title="usage">
<path fill="none" stroke="#1414ce" d="M699.3,-71.7C699.3,-63.98 699.3,-54.71 699.3,-46.11"/>
<polygon fill="#1414ce" stroke="#1414ce" points="702.8,-46.1 699.3,-36.1 695.8,-46.1 702.8,-46.1"/>
</a>
</g>
</g>
<!-- 4&#45;&gt;2 -->
<g id="edge32" class="edge">
<title>4&#45;&gt;2</title>
<g id="a_edge32"><a xlink:title="usage">
<path fill="none" stroke="#1414ce" d="M761.92,-246.17C789.76,-255.95 828.9,-270.68 864.49,-284.25"/>
<polygon fill="#1414ce" stroke="#1414ce" points="863.35,-287.56 873.94,-287.86 865.85,-281.02 863.35,-287.56"/>
</a>
</g>
</g>
<!-- 4&#45;&gt;8 -->
<g id="edge35" class="edge">
<title>4&#45;&gt;8</title>
<g id="a_edge35"><a xlink:title="usage">
<path fill="none" stroke="#1414ce" d="M688.45,-216.74C601.81,-178.51 385.19,-82.93 288.37,-40.21"/>
<polygon fill="#1414ce" stroke="#1414ce" points="289.67,-36.96 279.11,-36.12 286.85,-43.36 289.67,-36.96"/>
</a>
</g>
</g>
<!-- 4&#45;&gt;11 -->
<g id="edge34" class="edge">
<title>4&#45;&gt;11</title>
<g id="a_edge34"><a xlink:title="usage">
<path fill="none" stroke="#1414ce" d="M701.96,-252.06C673.3,-272.2 622.54,-305.32 574.3,-324 514.57,-347.14 442.8,-360.95 390.98,-368.64"/>
<polygon fill="#1414ce" stroke="#1414ce" points="390.29,-365.21 380.89,-370.1 391.29,-372.13 390.29,-365.21"/>
</a>
</g>
</g>
<!-- 4&#45;&gt;9 -->
<g id="edge33" class="edge">
<title>4&#45;&gt;9</title>
<g id="a_edge33"><a xlink:title="usage">
<path fill="none" stroke="#1414ce" d="M710.98,-215.57C703.85,-205.76 696,-192.92 692.3,-180 686.5,-159.69 688.86,-135.79 692.33,-117.87"/>
<polygon fill="#1414ce" stroke="#1414ce" points="695.75,-118.6 694.45,-108.09 688.91,-117.12 695.75,-118.6"/>
</a>
</g>
</g>
<!-- 4&#45;&gt;4 -->
<g id="edge29" class="edge">
<title>4&#45;&gt;4</title>
<g id="a_edge29"><a xlink:title="usage">
<path fill="none" stroke="#1414ce" d="M761.98,-247.42C772.08,-246.77 779.8,-242.3 779.8,-234 779.8,-228.81 776.79,-225.12 772.06,-222.93"/>
<polygon fill="#1414ce" stroke="#1414ce" points="772.51,-219.44 761.98,-220.58 770.93,-226.26 772.51,-219.44"/>
</a>
</g>
</g>
<!-- 5 -->
<g id="node19" class="node">
<title>5</title>
<g id="a_node19"><a xlink:title="Mailbox">
<polygon fill="#ffffff" stroke="black" points="775.3,-180 701.3,-180 701.3,-144 775.3,-144 775.3,-180"/>
<text text-anchor="middle" x="738.3" y="-158.3" font-family="Times,serif" font-size="14.00">Mailbox</text>
</a>
</g>
</g>
<!-- 4&#45;&gt;5 -->
<g id="edge30" class="edge">
<title>4&#45;&gt;5</title>
<g id="a_edge30"><a xlink:title="usage">
<path fill="none" stroke="#1414ce" d="M728.52,-215.7C729.95,-207.98 731.67,-198.71 733.27,-190.11"/>
<polygon fill="#1414ce" stroke="#1414ce" points="736.74,-190.58 735.13,-180.1 729.86,-189.3 736.74,-190.58"/>
</a>
</g>
</g>
<!-- 7 -->
<g id="node22" class="node">
<title>7</title>
<g id="a_node22"><a xlink:title="TimerListItem">
<polygon fill="#ffffff" stroke="black" points="653.8,-108 534.8,-108 534.8,-72 653.8,-72 653.8,-108"/>
<text text-anchor="middle" x="594.3" y="-86.3" font-family="Times,serif" font-size="14.00">TimerListItem</text>
</a>
</g>
</g>
<!-- 4&#45;&gt;7 -->
<g id="edge31" class="edge">
<title>4&#45;&gt;7</title>
<g id="a_edge31"><a xlink:title="usage">
<path fill="none" stroke="#1414ce" d="M709.5,-215.87C686.49,-190.92 643.61,-144.45 617.16,-115.77"/>
<polygon fill="#1414ce" stroke="#1414ce" points="619.51,-113.17 610.16,-108.19 614.37,-117.91 619.51,-113.17"/>
</a>
</g>
</g>
<!-- 17&#45;&gt;6 -->
<g id="edge36" class="edge">
<title>17&#45;&gt;6</title>
<g id="a_edge36"><a xlink:title="usage">
<path fill="none" stroke="#1414ce" d="M864.89,-143.7C861.51,-135.81 857.43,-126.3 853.68,-117.55"/>
<polygon fill="#1414ce" stroke="#1414ce" points="856.79,-115.92 849.63,-108.1 850.36,-118.67 856.79,-115.92"/>
</a>
</g>
</g>
<!-- 17&#45;&gt;17 -->
<g id="edge37" class="edge">
<title>17&#45;&gt;17</title>
<g id="a_edge37"><a xlink:title="usage">
<path fill="none" stroke="#1414ce" d="M951.47,-173.98C962.17,-171.97 969.3,-167.98 969.3,-162 969.3,-158.08 966.23,-155.01 961.1,-152.8"/>
<polygon fill="#1414ce" stroke="#1414ce" points="962.04,-149.43 951.47,-150.02 960.11,-156.15 962.04,-149.43"/>
</a>
</g>
</g>
<!-- 21&#45;&gt;12 -->
<g id="edge38" class="edge">
<title>21&#45;&gt;12</title>
<g id="a_edge38"><a xlink:title="usage">
<path fill="none" stroke="#1414ce" d="M262.77,-215.7C252.92,-206.97 240.82,-196.24 230.11,-186.75"/>
<polygon fill="#1414ce" stroke="#1414ce" points="232.41,-184.12 222.61,-180.1 227.77,-189.36 232.41,-184.12"/>
</a>
</g>
</g>
<!-- 21&#45;&gt;8 -->
<g id="edge39" class="edge">
<title>21&#45;&gt;8</title>
<g id="a_edge39"><a xlink:title="usage">
<path fill="none" stroke="#1414ce" d="M280.8,-215.84C279.08,-197.85 275.89,-168.8 271.3,-144 265,-109.95 254.98,-71.35 248.04,-46.17"/>
<polygon fill="#1414ce" stroke="#1414ce" points="251.33,-44.94 245.28,-36.25 244.59,-46.82 251.33,-44.94"/>
</a>
</g>
</g>
<!-- 15&#45;&gt;16 -->
<g id="edge40" class="edge">
<title>15&#45;&gt;16</title>
<g id="a_edge40"><a xlink:title="usage">
<path fill="none" stroke="#1414ce" d="M558.74,-215.88C531.77,-205.03 497.01,-191.04 470.01,-180.18"/>
<polygon fill="#1414ce" stroke="#1414ce" points="471.02,-176.82 460.44,-176.33 468.41,-183.31 471.02,-176.82"/>
</a>
</g>
</g>
<!-- 5&#45;&gt;6 -->
<g id="edge41" class="edge">
<title>5&#45;&gt;6</title>
<g id="a_edge41"><a xlink:title="usage">
<path fill="none" stroke="#1414ce" d="M763.74,-143.88C777.09,-134.89 793.63,-123.76 808.08,-114.03"/>
<polygon fill="#1414ce" stroke="#1414ce" points="810.42,-116.68 816.76,-108.19 806.51,-110.87 810.42,-116.68"/>
</a>
</g>
</g>
<!-- 18&#45;&gt;19 -->
<g id="edge43" class="edge">
<title>18&#45;&gt;19</title>
<g id="a_edge43"><a xlink:title="usage">
<path fill="none" stroke="#1414ce" d="M478.19,-287.7C472.43,-279.47 465.44,-269.48 459.1,-260.42"/>
<polygon fill="#1414ce" stroke="#1414ce" points="461.88,-258.29 453.28,-252.1 456.14,-262.3 461.88,-258.29"/>
</a>
</g>
</g>
<!-- 18&#45;&gt;16 -->
<g id="edge42" class="edge">
<title>18&#45;&gt;16</title>
<g id="a_edge42"><a xlink:title="usage">
<path fill="none" stroke="#1414ce" d="M444.3,-289.18C416.6,-278.62 385.21,-264.44 377.3,-252 363.74,-230.67 380.81,-205.48 398.59,-187.35"/>
<polygon fill="#1414ce" stroke="#1414ce" points="401.4,-189.51 406.17,-180.05 396.54,-184.47 401.4,-189.51"/>
</a>
</g>
</g>
<!-- 7&#45;&gt;8 -->
<g id="edge44" class="edge">
<title>7&#45;&gt;8</title>
<g id="a_edge44"><a xlink:title="usage">
<path fill="none" stroke="#1414ce" d="M534.57,-75.07C529.75,-74.01 524.95,-72.97 520.3,-72 440.53,-55.29 347.47,-38.14 291.26,-28.03"/>
<polygon fill="#1414ce" stroke="#1414ce" points="291.67,-24.55 281.21,-26.23 290.43,-31.44 291.67,-24.55"/>
</a>
</g>
</g>
<!-- 13&#45;&gt;8 -->
<g id="edge45" class="edge">
<title>13&#45;&gt;8</title>
<g id="a_edge45"><a xlink:title="usage">
<path fill="none" stroke="#1414ce" d="M189.86,-71.7C197.98,-63.22 207.89,-52.86 216.77,-43.58"/>
<polygon fill="#1414ce" stroke="#1414ce" points="219.55,-45.75 223.93,-36.1 214.49,-40.91 219.55,-45.75"/>
</a>
</g>
</g>
<!-- 16&#45;&gt;9 -->
<g id="edge47" class="edge">
<title>16&#45;&gt;9</title>
<g id="a_edge47"><a xlink:title="usage">
<path fill="none" stroke="#1414ce" d="M460.38,-155.94C504.72,-148.65 585.81,-133.53 662.26,-107.97"/>
<polygon fill="#1414ce" stroke="#1414ce" points="663.71,-111.17 672.04,-104.63 661.45,-104.55 663.71,-111.17"/>
</a>
</g>
</g>
<!-- 16&#45;&gt;16 -->
<g id="edge46" class="edge">
<title>16&#45;&gt;16</title>
<g id="a_edge46"><a xlink:title="usage">
<path fill="none" stroke="#1414ce" d="M460.66,-175.47C470.58,-175.07 478.3,-170.58 478.3,-162 478.3,-156.64 475.29,-152.87 470.6,-150.71"/>
<polygon fill="#1414ce" stroke="#1414ce" points="471.17,-147.25 460.66,-148.53 469.68,-154.09 471.17,-147.25"/>
</a>
</g>
</g>
</g>
</svg>
