<?xml version="1.0" encoding="UTF-8" standalone="no"?>
<!DOCTYPE svg PUBLIC "-//W3C//DTD SVG 1.1//EN"
 "http://www.w3.org/Graphics/SVG/1.1/DTD/svg11.dtd">
<!-- Generated by graphviz version 2.43.0 (0)
 -->
<!-- Title: %3 Pages: 1 -->
<svg width="1676pt" height="836pt"
 viewBox="0.00 0.00 1675.53 836.00" xmlns="http://www.w3.org/2000/svg" xmlns:xlink="http://www.w3.org/1999/xlink">
<g id="graph0" class="graph" transform="scale(1 1) rotate(0) translate(4 832)">
<title>%3</title>
<polygon fill="transparent" stroke="transparent" points="-4,4 -4,-832 1671.53,-832 1671.53,4 -4,4"/>
<!-- 4 -->
<g id="node1" class="node">
<title>4</title>
<g id="a_node1"><a xlink:title="stdbool.h">
<polygon fill="#ffffff" stroke="black" points="631.53,-108 548.53,-108 548.53,-72 631.53,-72 631.53,-108"/>
<text text-anchor="middle" x="590.03" y="-86.3" font-family="Times,serif" font-size="14.00">stdbool.h</text>
</a>
</g>
</g>
<!-- 1 -->
<g id="node2" class="node">
<title>1</title>
<g id="a_node2"><a xlink:title="/__w/AtomVM/AtomVM/src/libAtomVM/refc_binary.c">
<polygon fill="#bfbfbf" stroke="black" points="1565.53,-828 1182.53,-828 1182.53,-792 1565.53,-792 1565.53,-828"/>
<text text-anchor="middle" x="1374.03" y="-806.3" font-family="Times,serif" font-size="14.00">/__w/AtomVM/AtomVM/src/libAtomVM/refc_binary.c</text>
</a>
</g>
</g>
<!-- 30 -->
<g id="node3" class="node">
<title>30</title>
<g id="a_node3"><a xlink:title="erl_nif_priv.h">
<polygon fill="#ffffff" stroke="black" points="1305.03,-756 1197.03,-756 1197.03,-720 1305.03,-720 1305.03,-756"/>
<text text-anchor="middle" x="1251.03" y="-734.3" font-family="Times,serif" font-size="14.00">erl_nif_priv.h</text>
</a>
</g>
</g>
<!-- 1&#45;&gt;30 -->
<g id="edge5" class="edge">
<title>1&#45;&gt;30</title>
<g id="a_edge5"><a xlink:title="include">
<path fill="none" stroke="#1414ce" d="M1343.94,-791.88C1327.71,-782.64 1307.49,-771.13 1290.06,-761.21"/>
<polygon fill="#1414ce" stroke="#1414ce" points="1291.66,-758.09 1281.24,-756.19 1288.2,-764.18 1291.66,-758.09"/>
</a>
</g>
</g>
<!-- 3 -->
<g id="node4" class="node">
<title>3</title>
<g id="a_node4"><a xlink:title="refc_binary.h">
<polygon fill="#ffffff" stroke="black" points="1156.03,-396 1048.03,-396 1048.03,-360 1156.03,-360 1156.03,-396"/>
<text text-anchor="middle" x="1102.03" y="-374.3" font-family="Times,serif" font-size="14.00">refc_binary.h</text>
</a>
</g>
</g>
<!-- 1&#45;&gt;3 -->
<g id="edge2" class="edge">
<title>1&#45;&gt;3</title>
<g id="a_edge2"><a xlink:title="include">
<path fill="none" stroke="#1414ce" d="M1251.75,-791.97C1228.45,-784.08 1205.82,-772.62 1188.03,-756 1157.32,-727.3 1156.03,-709.03 1156.03,-667 1156.03,-667 1156.03,-667 1156.03,-521 1156.03,-478.11 1134.24,-432.41 1118.35,-404.78"/>
<polygon fill="#1414ce" stroke="#1414ce" points="1121.33,-402.95 1113.22,-396.13 1115.31,-406.52 1121.33,-402.95"/>
</a>
</g>
</g>
<!-- 29 -->
<g id="node7" class="node">
<title>29</title>
<g id="a_node7"><a xlink:title="dictionary.h">
<polygon fill="#ffffff" stroke="black" points="329.03,-540 229.03,-540 229.03,-504 329.03,-504 329.03,-540"/>
<text text-anchor="middle" x="279.03" y="-518.3" font-family="Times,serif" font-size="14.00">dictionary.h</text>
</a>
</g>
</g>
<!-- 1&#45;&gt;29 -->
<g id="edge4" class="edge">
<title>1&#45;&gt;29</title>
<g id="a_edge4"><a xlink:title="include">
<path fill="none" stroke="#1414ce" d="M1182.42,-793.37C1021.8,-776.75 787.82,-744.24 591.03,-684 507.85,-658.54 485.85,-652.83 409.03,-612 372.79,-592.74 334.38,-565.48 308.78,-546.22"/>
<polygon fill="#1414ce" stroke="#1414ce" points="310.7,-543.28 300.62,-540.02 306.46,-548.85 310.7,-543.28"/>
</a>
</g>
</g>
<!-- 14 -->
<g id="node8" class="node">
<title>14</title>
<g id="a_node8"><a xlink:title="utils.h">
<polygon fill="#ffffff" stroke="black" points="1197.03,-180 1135.03,-180 1135.03,-144 1197.03,-144 1197.03,-180"/>
<text text-anchor="middle" x="1166.03" y="-158.3" font-family="Times,serif" font-size="14.00">utils.h</text>
</a>
</g>
</g>
<!-- 1&#45;&gt;14 -->
<g id="edge8" class="edge">
<title>1&#45;&gt;14</title>
<g id="a_edge8"><a xlink:title="include">
<path fill="none" stroke="#1414ce" d="M1374.03,-791.95C1374.03,-765.29 1374.03,-712.11 1374.03,-667 1374.03,-667 1374.03,-667 1374.03,-449 1374.03,-445 1235.95,-257.66 1184.8,-188.39"/>
<polygon fill="#1414ce" stroke="#1414ce" points="1187.49,-186.14 1178.73,-180.18 1181.86,-190.3 1187.49,-186.14"/>
</a>
</g>
</g>
<!-- 2 -->
<g id="node12" class="node">
<title>2</title>
<g id="a_node12"><a xlink:title="stdlib.h">
<polygon fill="#ffffff" stroke="black" points="1104.53,-108 1033.53,-108 1033.53,-72 1104.53,-72 1104.53,-108"/>
<text text-anchor="middle" x="1069.03" y="-86.3" font-family="Times,serif" font-size="14.00">stdlib.h</text>
</a>
</g>
</g>
<!-- 1&#45;&gt;2 -->
<g id="edge1" class="edge">
<title>1&#45;&gt;2</title>
<g id="a_edge1"><a xlink:title="include">
<path fill="none" stroke="#1414ce" d="M1381.72,-791.91C1392.83,-765.62 1412.03,-713.45 1412.03,-667 1412.03,-667 1412.03,-667 1412.03,-593 1412.03,-492.07 1488.03,-479.93 1488.03,-379 1488.03,-379 1488.03,-379 1488.03,-233 1488.03,-180.98 1457.84,-168.63 1412.03,-144 1296.86,-82.08 1247.58,-136.82 1120.03,-108 1118.31,-107.61 1116.57,-107.19 1114.81,-106.73"/>
<polygon fill="#1414ce" stroke="#1414ce" points="1115.3,-103.24 1104.72,-103.89 1113.4,-109.97 1115.3,-103.24"/>
</a>
</g>
</g>
<!-- 20 -->
<g id="node13" class="node">
<title>20</title>
<g id="a_node13"><a xlink:title="context.h">
<polygon fill="#ffffff" stroke="black" points="683.53,-684 600.53,-684 600.53,-648 683.53,-648 683.53,-684"/>
<text text-anchor="middle" x="642.03" y="-662.3" font-family="Times,serif" font-size="14.00">context.h</text>
</a>
</g>
</g>
<!-- 1&#45;&gt;20 -->
<g id="edge3" class="edge">
<title>1&#45;&gt;20</title>
<g id="a_edge3"><a xlink:title="include">
<path fill="none" stroke="#1414ce" d="M1286.1,-791.94C1131.84,-762.02 817.12,-700.97 693.51,-676.99"/>
<polygon fill="#1414ce" stroke="#1414ce" points="694.03,-673.52 683.55,-675.05 692.7,-680.39 694.03,-673.52"/>
</a>
</g>
</g>
<!-- 17 -->
<g id="node14" class="node">
<title>17</title>
<g id="a_node14"><a xlink:title="memory.h">
<polygon fill="#ffffff" stroke="black" points="1327.03,-252 1241.03,-252 1241.03,-216 1327.03,-216 1327.03,-252"/>
<text text-anchor="middle" x="1284.03" y="-230.3" font-family="Times,serif" font-size="14.00">memory.h</text>
</a>
</g>
</g>
<!-- 1&#45;&gt;17 -->
<g id="edge6" class="edge">
<title>1&#45;&gt;17</title>
<g id="a_edge6"><a xlink:title="include">
<path fill="none" stroke="#1414ce" d="M1395.44,-791.86C1406.05,-782.33 1418.22,-769.65 1426.03,-756 1446.38,-720.44 1450.03,-707.97 1450.03,-667 1450.03,-667 1450.03,-667 1450.03,-377 1450.03,-316.38 1385.31,-276.1 1336.7,-254.39"/>
<polygon fill="#1414ce" stroke="#1414ce" points="1337.78,-251.05 1327.21,-250.3 1335.01,-257.48 1337.78,-251.05"/>
</a>
</g>
</g>
<!-- 31 -->
<g id="node27" class="node">
<title>31</title>
<g id="a_node27"><a xlink:title="tempstack.h">
<polygon fill="#ffffff" stroke="black" points="1582.03,-756 1478.03,-756 1478.03,-720 1582.03,-720 1582.03,-756"/>
<text text-anchor="middle" x="1530.03" y="-734.3" font-family="Times,serif" font-size="14.00">tempstack.h</text>
</a>
</g>
</g>
<!-- 1&#45;&gt;31 -->
<g id="edge7" class="edge">
<title>1&#45;&gt;31</title>
<g id="a_edge7"><a xlink:title="include">
<path fill="none" stroke="#1414ce" d="M1412.19,-791.88C1433.42,-782.35 1460.04,-770.41 1482.6,-760.28"/>
<polygon fill="#1414ce" stroke="#1414ce" points="1484.3,-763.36 1491.99,-756.07 1481.44,-756.97 1484.3,-763.36"/>
</a>
</g>
</g>
<!-- 32 -->
<g id="node29" class="node">
<title>32</title>
<g id="a_node29"><a xlink:title="trace.h">
<polygon fill="#ffffff" stroke="black" points="1667.53,-756 1600.53,-756 1600.53,-720 1667.53,-720 1667.53,-756"/>
<text text-anchor="middle" x="1634.03" y="-734.3" font-family="Times,serif" font-size="14.00">trace.h</text>
</a>
</g>
</g>
<!-- 1&#45;&gt;32 -->
<g id="edge9" class="edge">
<title>1&#45;&gt;32</title>
<g id="a_edge9"><a xlink:title="include">
<path fill="none" stroke="#1414ce" d="M1455.14,-791.96C1493.74,-783.2 1540.61,-771.61 1590.67,-755.9"/>
<polygon fill="#1414ce" stroke="#1414ce" points="1591.92,-759.17 1600.39,-752.81 1589.8,-752.5 1591.92,-759.17"/>
</a>
</g>
</g>
<!-- 30&#45;&gt;20 -->
<g id="edge10" class="edge">
<title>30&#45;&gt;20</title>
<g id="a_edge10"><a xlink:title="include">
<path fill="none" stroke="#1414ce" d="M1196.99,-730.79C1080.68,-717.42 807.97,-686.07 693.77,-672.95"/>
<polygon fill="#1414ce" stroke="#1414ce" points="693.88,-669.44 683.55,-671.77 693.08,-676.39 693.88,-669.44"/>
</a>
</g>
</g>
<!-- 30&#45;&gt;17 -->
<g id="edge11" class="edge">
<title>30&#45;&gt;17</title>
<g id="a_edge11"><a xlink:title="include">
<path fill="none" stroke="#1414ce" d="M1269.9,-719.73C1294.94,-694.82 1336.03,-646.14 1336.03,-595 1336.03,-595 1336.03,-595 1336.03,-521 1336.03,-424.41 1306.97,-312.39 1292.3,-262"/>
<polygon fill="#1414ce" stroke="#1414ce" points="1295.59,-260.81 1289.4,-252.21 1288.88,-262.79 1295.59,-260.81"/>
</a>
</g>
</g>
<!-- 6 -->
<g id="node15" class="node">
<title>6</title>
<g id="a_node15"><a xlink:title="resources.h">
<polygon fill="#ffffff" stroke="black" points="1159.03,-324 1059.03,-324 1059.03,-288 1159.03,-288 1159.03,-324"/>
<text text-anchor="middle" x="1109.03" y="-302.3" font-family="Times,serif" font-size="14.00">resources.h</text>
</a>
</g>
</g>
<!-- 30&#45;&gt;6 -->
<g id="edge12" class="edge">
<title>30&#45;&gt;6</title>
<g id="a_edge12"><a xlink:title="include">
<path fill="none" stroke="#1414ce" d="M1245.16,-719.74C1236.69,-693.25 1222.03,-640.79 1222.03,-595 1222.03,-595 1222.03,-595 1222.03,-449 1222.03,-398.17 1177.16,-355.01 1143.96,-330.04"/>
<polygon fill="#1414ce" stroke="#1414ce" points="1145.95,-327.16 1135.81,-324.09 1141.83,-332.82 1145.95,-327.16"/>
</a>
</g>
</g>
<!-- 3&#45;&gt;4 -->
<g id="edge13" class="edge">
<title>3&#45;&gt;4</title>
<g id="a_edge13"><a xlink:title="include">
<path fill="none" stroke="#1414ce" d="M1079.48,-359.98C1066.47,-349.89 1049.97,-336.64 1036.03,-324 953.15,-248.84 958.48,-197.17 860.03,-144 790.79,-106.6 698.85,-95.39 642.1,-92.15"/>
<polygon fill="#1414ce" stroke="#1414ce" points="642.09,-88.64 631.93,-91.63 641.74,-95.63 642.09,-88.64"/>
</a>
</g>
</g>
<!-- 5 -->
<g id="node10" class="node">
<title>5</title>
<g id="a_node10"><a xlink:title="list.h">
<polygon fill="#ffffff" stroke="black" points="323.03,-180 269.03,-180 269.03,-144 323.03,-144 323.03,-180"/>
<text text-anchor="middle" x="296.03" y="-158.3" font-family="Times,serif" font-size="14.00">list.h</text>
</a>
</g>
</g>
<!-- 3&#45;&gt;5 -->
<g id="edge15" class="edge">
<title>3&#45;&gt;5</title>
<g id="a_edge15"><a xlink:title="include">
<path fill="none" stroke="#1414ce" d="M1047.94,-371.23C882.41,-353.16 390.54,-296.24 334.03,-252 314.77,-236.92 305.13,-210.2 300.39,-189.96"/>
<polygon fill="#1414ce" stroke="#1414ce" points="303.8,-189.14 298.34,-180.06 296.94,-190.56 303.8,-189.14"/>
</a>
</g>
</g>
<!-- 3&#45;&gt;2 -->
<g id="edge14" class="edge">
<title>3&#45;&gt;2</title>
<g id="a_edge14"><a xlink:title="include">
<path fill="none" stroke="#1414ce" d="M1078.28,-359.91C1067.48,-350.65 1055.83,-338.2 1050.03,-324 1021.4,-253.94 1044.56,-162.32 1059.25,-117.72"/>
<polygon fill="#1414ce" stroke="#1414ce" points="1062.59,-118.78 1062.5,-108.19 1055.96,-116.52 1062.59,-118.78"/>
</a>
</g>
</g>
<!-- 3&#45;&gt;6 -->
<g id="edge16" class="edge">
<title>3&#45;&gt;6</title>
<g id="a_edge16"><a xlink:title="include">
<path fill="none" stroke="#1414ce" d="M1103.76,-359.7C1104.53,-351.98 1105.46,-342.71 1106.32,-334.11"/>
<polygon fill="#1414ce" stroke="#1414ce" points="1109.81,-334.4 1107.32,-324.1 1102.84,-333.71 1109.81,-334.4"/>
</a>
</g>
</g>
<!-- 22 -->
<g id="node5" class="node">
<title>22</title>
<g id="a_node5"><a xlink:title="atom.h">
<polygon fill="#ffffff" stroke="black" points="851.03,-180 785.03,-180 785.03,-144 851.03,-144 851.03,-180"/>
<text text-anchor="middle" x="818.03" y="-158.3" font-family="Times,serif" font-size="14.00">atom.h</text>
</a>
</g>
</g>
<!-- 12 -->
<g id="node11" class="node">
<title>12</title>
<g id="a_node11"><a xlink:title="stdint.h">
<polygon fill="#ffffff" stroke="black" points="923.03,-36 851.03,-36 851.03,0 923.03,0 923.03,-36"/>
<text text-anchor="middle" x="887.03" y="-14.3" font-family="Times,serif" font-size="14.00">stdint.h</text>
</a>
</g>
</g>
<!-- 22&#45;&gt;12 -->
<g id="edge17" class="edge">
<title>22&#45;&gt;12</title>
<g id="a_edge17"><a xlink:title="include">
<path fill="none" stroke="#1414ce" d="M818.96,-143.67C820.58,-125.02 824.99,-94.94 837.03,-72 842.52,-61.54 850.66,-51.65 858.79,-43.32"/>
<polygon fill="#1414ce" stroke="#1414ce" points="861.45,-45.61 866.17,-36.13 856.56,-40.6 861.45,-45.61"/>
</a>
</g>
</g>
<!-- 22&#45;&gt;2 -->
<g id="edge18" class="edge">
<title>22&#45;&gt;2</title>
<g id="a_edge18"><a xlink:title="include">
<path fill="none" stroke="#1414ce" d="M851.1,-151.78C895.32,-139.45 973.87,-117.54 1023.61,-103.67"/>
<polygon fill="#1414ce" stroke="#1414ce" points="1024.76,-106.98 1033.45,-100.92 1022.88,-100.24 1024.76,-106.98"/>
</a>
</g>
</g>
<!-- 9 -->
<g id="node6" class="node">
<title>9</title>
<g id="a_node6"><a xlink:title="assert.h">
<polygon fill="#ffffff" stroke="black" points="1491.03,-36 1417.03,-36 1417.03,0 1491.03,0 1491.03,-36"/>
<text text-anchor="middle" x="1454.03" y="-14.3" font-family="Times,serif" font-size="14.00">assert.h</text>
</a>
</g>
</g>
<!-- 29&#45;&gt;5 -->
<g id="edge19" class="edge">
<title>29&#45;&gt;5</title>
<g id="a_edge19"><a xlink:title="include">
<path fill="none" stroke="#1414ce" d="M270.94,-503.95C259.25,-477.72 239.03,-425.61 239.03,-379 239.03,-379 239.03,-379 239.03,-305 239.03,-264.03 246.7,-253.57 263.03,-216 267.03,-206.8 272.45,-197.33 277.74,-188.98"/>
<polygon fill="#1414ce" stroke="#1414ce" points="280.79,-190.71 283.36,-180.43 274.94,-186.87 280.79,-190.71"/>
</a>
</g>
</g>
<!-- 25 -->
<g id="node16" class="node">
<title>25</title>
<g id="a_node16"><a xlink:title="term.h">
<polygon fill="#ffffff" stroke="black" points="943.53,-468 878.53,-468 878.53,-432 943.53,-432 943.53,-468"/>
<text text-anchor="middle" x="911.03" y="-446.3" font-family="Times,serif" font-size="14.00">term.h</text>
</a>
</g>
</g>
<!-- 29&#45;&gt;25 -->
<g id="edge20" class="edge">
<title>29&#45;&gt;25</title>
<g id="a_edge20"><a xlink:title="include">
<path fill="none" stroke="#1414ce" d="M329.19,-514.69C355.62,-511.41 388.57,-507.39 418.03,-504 584.48,-484.88 782.8,-464.2 868.32,-455.38"/>
<polygon fill="#1414ce" stroke="#1414ce" points="868.83,-458.85 878.42,-454.34 868.11,-451.88 868.83,-458.85"/>
</a>
</g>
</g>
<!-- 14&#45;&gt;2 -->
<g id="edge23" class="edge">
<title>14&#45;&gt;2</title>
<g id="a_edge23"><a xlink:title="include">
<path fill="none" stroke="#1414ce" d="M1142.05,-143.7C1129.72,-134.8 1114.52,-123.82 1101.18,-114.2"/>
<polygon fill="#1414ce" stroke="#1414ce" points="1102.89,-111.12 1092.73,-108.1 1098.79,-116.79 1102.89,-111.12"/>
</a>
</g>
</g>
<!-- 15 -->
<g id="node17" class="node">
<title>15</title>
<g id="a_node17"><a xlink:title="stddef.h">
<polygon fill="#ffffff" stroke="black" points="1203.03,-108 1129.03,-108 1129.03,-72 1203.03,-72 1203.03,-108"/>
<text text-anchor="middle" x="1166.03" y="-86.3" font-family="Times,serif" font-size="14.00">stddef.h</text>
</a>
</g>
</g>
<!-- 14&#45;&gt;15 -->
<g id="edge21" class="edge">
<title>14&#45;&gt;15</title>
<g id="a_edge21"><a xlink:title="include">
<path fill="none" stroke="#1414ce" d="M1166.03,-143.7C1166.03,-135.98 1166.03,-126.71 1166.03,-118.11"/>
<polygon fill="#1414ce" stroke="#1414ce" points="1169.53,-118.1 1166.03,-108.1 1162.53,-118.1 1169.53,-118.1"/>
</a>
</g>
</g>
<!-- 16 -->
<g id="node30" class="node">
<title>16</title>
<g id="a_node30"><a xlink:title="stdio.h">
<polygon fill="#ffffff" stroke="black" points="911.53,-108 846.53,-108 846.53,-72 911.53,-72 911.53,-108"/>
<text text-anchor="middle" x="879.03" y="-86.3" font-family="Times,serif" font-size="14.00">stdio.h</text>
</a>
</g>
</g>
<!-- 14&#45;&gt;16 -->
<g id="edge22" class="edge">
<title>14&#45;&gt;16</title>
<g id="a_edge22"><a xlink:title="include">
<path fill="none" stroke="#1414ce" d="M1134.77,-153.38C1083.1,-140.77 979.82,-115.58 921.56,-101.37"/>
<polygon fill="#1414ce" stroke="#1414ce" points="922.12,-97.91 911.57,-98.94 920.46,-104.71 922.12,-97.91"/>
</a>
</g>
</g>
<!-- 18 -->
<g id="node9" class="node">
<title>18</title>
<g id="a_node9"><a xlink:title="synclist.h">
<polygon fill="#ffffff" stroke="black" points="632.53,-252 547.53,-252 547.53,-216 632.53,-216 632.53,-252"/>
<text text-anchor="middle" x="590.03" y="-230.3" font-family="Times,serif" font-size="14.00">synclist.h</text>
</a>
</g>
</g>
<!-- 18&#45;&gt;5 -->
<g id="edge25" class="edge">
<title>18&#45;&gt;5</title>
<g id="a_edge25"><a xlink:title="include">
<path fill="none" stroke="#1414ce" d="M547.48,-219.96C542.62,-218.57 537.73,-217.22 533.03,-216 462.86,-197.71 380,-180.08 333.18,-170.47"/>
<polygon fill="#1414ce" stroke="#1414ce" points="333.69,-167 323.19,-168.43 332.29,-173.86 333.69,-167"/>
</a>
</g>
</g>
<!-- 19 -->
<g id="node25" class="node">
<title>19</title>
<g id="a_node25"><a xlink:title="smp.h">
<polygon fill="#ffffff" stroke="black" points="620.03,-180 560.03,-180 560.03,-144 620.03,-144 620.03,-180"/>
<text text-anchor="middle" x="590.03" y="-158.3" font-family="Times,serif" font-size="14.00">smp.h</text>
</a>
</g>
</g>
<!-- 18&#45;&gt;19 -->
<g id="edge26" class="edge">
<title>18&#45;&gt;19</title>
<g id="a_edge26"><a xlink:title="include">
<path fill="none" stroke="#1414ce" d="M590.03,-215.7C590.03,-207.98 590.03,-198.71 590.03,-190.11"/>
<polygon fill="#1414ce" stroke="#1414ce" points="593.53,-190.1 590.03,-180.1 586.53,-190.1 593.53,-190.1"/>
</a>
</g>
</g>
<!-- 18&#45;&gt;16 -->
<g id="edge24" class="edge">
<title>18&#45;&gt;16</title>
<g id="a_edge24"><a xlink:title="include">
<path fill="none" stroke="#1414ce" d="M624.89,-215.87C678.22,-189.67 779.88,-139.72 837.14,-111.58"/>
<polygon fill="#1414ce" stroke="#1414ce" points="838.84,-114.65 846.27,-107.1 835.76,-108.36 838.84,-114.65"/>
</a>
</g>
</g>
<!-- 5&#45;&gt;4 -->
<g id="edge27" class="edge">
<title>5&#45;&gt;4</title>
<g id="a_edge27"><a xlink:title="include">
<path fill="none" stroke="#1414ce" d="M323.16,-154.54C372.04,-142.9 475.64,-118.24 538.41,-103.29"/>
<polygon fill="#1414ce" stroke="#1414ce" points="539.58,-106.61 548.49,-100.89 537.95,-99.8 539.58,-106.61"/>
</a>
</g>
</g>
<!-- 20&#45;&gt;5 -->
<g id="edge29" class="edge">
<title>20&#45;&gt;5</title>
<g id="a_edge29"><a xlink:title="include">
<path fill="none" stroke="#1414ce" d="M600.22,-659.6C499.28,-645.62 246.92,-604.76 197.03,-540 109.05,-425.78 122.99,-328.6 213.03,-216 225.35,-200.6 243.42,-188.31 259.56,-179.47"/>
<polygon fill="#1414ce" stroke="#1414ce" points="261.53,-182.38 268.78,-174.66 258.29,-176.18 261.53,-182.38"/>
</a>
</g>
</g>
<!-- 20&#45;&gt;25 -->
<g id="edge32" class="edge">
<title>20&#45;&gt;25</title>
<g id="a_edge32"><a xlink:title="include">
<path fill="none" stroke="#1414ce" d="M663.59,-647.85C711.5,-609.74 826.88,-517.95 881.46,-474.52"/>
<polygon fill="#1414ce" stroke="#1414ce" points="883.72,-477.2 889.37,-468.23 879.37,-471.72 883.72,-477.2"/>
</a>
</g>
</g>
<!-- 21 -->
<g id="node24" class="node">
<title>21</title>
<g id="a_node24"><a xlink:title="globalcontext.h">
<polygon fill="#ffffff" stroke="black" points="545.53,-612 418.53,-612 418.53,-576 545.53,-576 545.53,-612"/>
<text text-anchor="middle" x="482.03" y="-590.3" font-family="Times,serif" font-size="14.00">globalcontext.h</text>
</a>
</g>
</g>
<!-- 20&#45;&gt;21 -->
<g id="edge28" class="edge">
<title>20&#45;&gt;21</title>
<g id="a_edge28"><a xlink:title="include">
<path fill="none" stroke="#1414ce" d="M602.89,-647.88C581.02,-638.31 553.57,-626.3 530.37,-616.15"/>
<polygon fill="#1414ce" stroke="#1414ce" points="531.61,-612.87 521.04,-612.07 528.8,-619.28 531.61,-612.87"/>
</a>
</g>
</g>
<!-- 20&#45;&gt;19 -->
<g id="edge31" class="edge">
<title>20&#45;&gt;19</title>
<g id="a_edge31"><a xlink:title="include">
<path fill="none" stroke="#1414ce" d="M640,-647.84C638.88,-637.48 637.6,-624 637.03,-612 636.28,-596.02 636.93,-592 637.03,-576 637.92,-431.99 640.14,-396.01 641.03,-252 641.13,-236 647.01,-230.84 641.03,-216 636.68,-205.21 628.97,-195.39 620.84,-187.21"/>
<polygon fill="#1414ce" stroke="#1414ce" points="623.03,-184.46 613.34,-180.18 618.24,-189.57 623.03,-184.46"/>
</a>
</g>
</g>
<!-- 28 -->
<g id="node26" class="node">
<title>28</title>
<g id="a_node26"><a xlink:title="timer_list.h">
<polygon fill="#ffffff" stroke="black" points="135.03,-252 37.03,-252 37.03,-216 135.03,-216 135.03,-252"/>
<text text-anchor="middle" x="86.03" y="-230.3" font-family="Times,serif" font-size="14.00">timer_list.h</text>
</a>
</g>
</g>
<!-- 20&#45;&gt;28 -->
<g id="edge33" class="edge">
<title>20&#45;&gt;28</title>
<g id="a_edge33"><a xlink:title="include">
<path fill="none" stroke="#1414ce" d="M600.51,-663.83C476.21,-659.96 113.2,-645.84 73.03,-612 41.7,-585.6 49.03,-563.97 49.03,-523 49.03,-523 49.03,-523 49.03,-377 49.03,-335.71 63.87,-289.77 74.75,-261.63"/>
<polygon fill="#1414ce" stroke="#1414ce" points="78.09,-262.7 78.54,-252.11 71.59,-260.11 78.09,-262.7"/>
</a>
</g>
</g>
<!-- 13 -->
<g id="node28" class="node">
<title>13</title>
<g id="a_node28"><a xlink:title="mailbox.h">
<polygon fill="#ffffff" stroke="black" points="813.03,-252 727.03,-252 727.03,-216 813.03,-216 813.03,-252"/>
<text text-anchor="middle" x="770.03" y="-230.3" font-family="Times,serif" font-size="14.00">mailbox.h</text>
</a>
</g>
</g>
<!-- 20&#45;&gt;13 -->
<g id="edge30" class="edge">
<title>20&#45;&gt;13</title>
<g id="a_edge30"><a xlink:title="include">
<path fill="none" stroke="#1414ce" d="M641.58,-647.89C640.15,-582.45 637.94,-348.63 677.03,-288 686.71,-272.99 702.24,-261.77 717.85,-253.63"/>
<polygon fill="#1414ce" stroke="#1414ce" points="719.55,-256.69 727.01,-249.18 716.49,-250.4 719.55,-256.69"/>
</a>
</g>
</g>
<!-- 17&#45;&gt;14 -->
<g id="edge38" class="edge">
<title>17&#45;&gt;14</title>
<g id="a_edge38"><a xlink:title="include">
<path fill="none" stroke="#1414ce" d="M1255.17,-215.88C1239.74,-206.72 1220.55,-195.34 1203.93,-185.48"/>
<polygon fill="#1414ce" stroke="#1414ce" points="1205.39,-182.28 1195.01,-180.19 1201.82,-188.3 1205.39,-182.28"/>
</a>
</g>
</g>
<!-- 17&#45;&gt;12 -->
<g id="edge34" class="edge">
<title>17&#45;&gt;12</title>
<g id="a_edge34"><a xlink:title="include">
<path fill="none" stroke="#1414ce" d="M1281.73,-215.88C1276.27,-182.39 1259.23,-108.32 1212.03,-72 1169.22,-39.05 1012.46,-25.86 933.35,-21.22"/>
<polygon fill="#1414ce" stroke="#1414ce" points="933.36,-17.71 923.18,-20.64 932.97,-24.7 933.36,-17.71"/>
</a>
</g>
</g>
<!-- 17&#45;&gt;2 -->
<g id="edge35" class="edge">
<title>17&#45;&gt;2</title>
<g id="a_edge35"><a xlink:title="include">
<path fill="none" stroke="#1414ce" d="M1272.75,-215.69C1259.07,-195.93 1234.32,-163.78 1206.03,-144 1198.07,-138.43 1151.04,-120.71 1114.28,-107.28"/>
<polygon fill="#1414ce" stroke="#1414ce" points="1115.3,-103.93 1104.71,-103.8 1112.91,-110.51 1115.3,-103.93"/>
</a>
</g>
</g>
<!-- 7 -->
<g id="node18" class="node">
<title>7</title>
<g id="a_node18"><a xlink:title="erl_nif.h">
<polygon fill="#ffffff" stroke="black" points="1403.03,-180 1329.03,-180 1329.03,-144 1403.03,-144 1403.03,-180"/>
<text text-anchor="middle" x="1366.03" y="-158.3" font-family="Times,serif" font-size="14.00">erl_nif.h</text>
</a>
</g>
</g>
<!-- 17&#45;&gt;7 -->
<g id="edge36" class="edge">
<title>17&#45;&gt;7</title>
<g id="a_edge36"><a xlink:title="include">
<path fill="none" stroke="#1414ce" d="M1304.3,-215.7C1314.53,-206.97 1327.09,-196.24 1338.21,-186.75"/>
<polygon fill="#1414ce" stroke="#1414ce" points="1340.66,-189.26 1346,-180.1 1336.12,-183.94 1340.66,-189.26"/>
</a>
</g>
</g>
<!-- 8 -->
<g id="node23" class="node">
<title>8</title>
<g id="a_node23"><a xlink:title="term_typedef.h">
<polygon fill="#ffffff" stroke="black" points="1416.53,-108 1291.53,-108 1291.53,-72 1416.53,-72 1416.53,-108"/>
<text text-anchor="middle" x="1354.03" y="-86.3" font-family="Times,serif" font-size="14.00">term_typedef.h</text>
</a>
</g>
</g>
<!-- 17&#45;&gt;8 -->
<g id="edge37" class="edge">
<title>17&#45;&gt;8</title>
<g id="a_edge37"><a xlink:title="include">
<path fill="none" stroke="#1414ce" d="M1289.89,-215.85C1296.37,-197.61 1307.55,-168.13 1320.03,-144 1324.8,-134.78 1330.72,-125.1 1336.26,-116.58"/>
<polygon fill="#1414ce" stroke="#1414ce" points="1339.23,-118.44 1341.85,-108.18 1333.4,-114.56 1339.23,-118.44"/>
</a>
</g>
</g>
<!-- 6&#45;&gt;18 -->
<g id="edge44" class="edge">
<title>6&#45;&gt;18</title>
<g id="a_edge44"><a xlink:title="include">
<path fill="none" stroke="#1414ce" d="M1058.8,-298.22C960.39,-284.95 743.12,-255.65 642.75,-242.11"/>
<polygon fill="#1414ce" stroke="#1414ce" points="642.93,-238.6 632.55,-240.73 641.99,-245.54 642.93,-238.6"/>
</a>
</g>
</g>
<!-- 6&#45;&gt;5 -->
<g id="edge41" class="edge">
<title>6&#45;&gt;5</title>
<g id="a_edge41"><a xlink:title="include">
<path fill="none" stroke="#1414ce" d="M1058.73,-302.55C938.2,-296.33 635.68,-278.49 538.03,-252 501.57,-242.11 496.2,-229.8 461.03,-216 417.88,-199.06 366.91,-183.32 333.16,-173.46"/>
<polygon fill="#1414ce" stroke="#1414ce" points="333.84,-170.02 323.26,-170.6 331.9,-176.74 333.84,-170.02"/>
</a>
</g>
</g>
<!-- 6&#45;&gt;2 -->
<g id="edge39" class="edge">
<title>6&#45;&gt;2</title>
<g id="a_edge39"><a xlink:title="include">
<path fill="none" stroke="#1414ce" d="M1105.83,-287.85C1098.89,-250.75 1082.45,-162.81 1074.1,-118.1"/>
<polygon fill="#1414ce" stroke="#1414ce" points="1077.53,-117.42 1072.25,-108.23 1070.65,-118.71 1077.53,-117.42"/>
</a>
</g>
</g>
<!-- 6&#45;&gt;17 -->
<g id="edge43" class="edge">
<title>6&#45;&gt;17</title>
<g id="a_edge43"><a xlink:title="include">
<path fill="none" stroke="#1414ce" d="M1151.84,-287.88C1175.98,-278.22 1206.32,-266.09 1231.84,-255.88"/>
<polygon fill="#1414ce" stroke="#1414ce" points="1233.38,-259.03 1241.36,-252.07 1230.78,-252.53 1233.38,-259.03"/>
</a>
</g>
</g>
<!-- 6&#45;&gt;7 -->
<g id="edge40" class="edge">
<title>6&#45;&gt;7</title>
<g id="a_edge40"><a xlink:title="include">
<path fill="none" stroke="#1414ce" d="M1159.28,-299.01C1218.01,-291.05 1310.46,-275.23 1336.03,-252 1353.42,-236.2 1360.74,-209.99 1363.81,-190.09"/>
<polygon fill="#1414ce" stroke="#1414ce" points="1367.3,-190.44 1365.1,-180.07 1360.36,-189.55 1367.3,-190.44"/>
</a>
</g>
</g>
<!-- 6&#45;&gt;13 -->
<g id="edge42" class="edge">
<title>6&#45;&gt;13</title>
<g id="a_edge42"><a xlink:title="include">
<path fill="none" stroke="#1414ce" d="M1059.01,-294.67C995.9,-281.64 887.82,-259.32 823.24,-245.99"/>
<polygon fill="#1414ce" stroke="#1414ce" points="823.76,-242.52 813.26,-243.93 822.35,-249.38 823.76,-242.52"/>
</a>
</g>
</g>
<!-- 25&#45;&gt;4 -->
<g id="edge46" class="edge">
<title>25&#45;&gt;4</title>
<g id="a_edge46"><a xlink:title="include">
<path fill="none" stroke="#1414ce" d="M878.2,-449.73C835.06,-448.8 759.89,-440.35 718.03,-396 690.27,-366.59 699.03,-347.45 699.03,-307 699.03,-307 699.03,-307 699.03,-233 699.03,-182.93 655.86,-139.64 623.86,-114.43"/>
<polygon fill="#1414ce" stroke="#1414ce" points="625.66,-111.4 615.59,-108.11 621.41,-116.96 625.66,-111.4"/>
</a>
</g>
</g>
<!-- 25&#45;&gt;3 -->
<g id="edge52" class="edge">
<title>25&#45;&gt;3</title>
<g id="a_edge52"><a xlink:title="include">
<path fill="none" stroke="#1414ce" d="M943.87,-436.97C971.82,-426.72 1012.61,-411.77 1045.76,-399.62"/>
<polygon fill="#1414ce" stroke="#1414ce" points="1047.15,-402.84 1055.34,-396.11 1044.74,-396.27 1047.15,-402.84"/>
</a>
</g>
</g>
<!-- 25&#45;&gt;14 -->
<g id="edge53" class="edge">
<title>25&#45;&gt;14</title>
<g id="a_edge53"><a xlink:title="include">
<path fill="none" stroke="#1414ce" d="M943.54,-447.04C1005.48,-442.58 1136.77,-429.33 1165.03,-396 1214.76,-337.37 1191.2,-237.37 1175.77,-189.75"/>
<polygon fill="#1414ce" stroke="#1414ce" points="1179.04,-188.5 1172.53,-180.14 1172.41,-190.74 1179.04,-188.5"/>
</a>
</g>
</g>
<!-- 25&#45;&gt;12 -->
<g id="edge47" class="edge">
<title>25&#45;&gt;12</title>
<g id="a_edge47"><a xlink:title="include">
<path fill="none" stroke="#1414ce" d="M923.34,-431.78C929.68,-421.84 936.76,-408.8 940.03,-396 944,-380.5 940.59,-375.99 940.03,-360 935.58,-231.77 959.55,-194.07 920.03,-72 916.94,-62.46 911.77,-52.89 906.44,-44.56"/>
<polygon fill="#1414ce" stroke="#1414ce" points="909.18,-42.37 900.66,-36.07 903.39,-46.31 909.18,-42.37"/>
</a>
</g>
</g>
<!-- 25&#45;&gt;2 -->
<g id="edge49" class="edge">
<title>25&#45;&gt;2</title>
<g id="a_edge49"><a xlink:title="include">
<path fill="none" stroke="#1414ce" d="M943.8,-436.56C962.04,-427.94 983.53,-414.63 996.03,-396 1059.35,-301.66 1000.92,-251.04 1039.03,-144 1042.28,-134.88 1047.04,-125.51 1051.82,-117.23"/>
<polygon fill="#1414ce" stroke="#1414ce" points="1054.97,-118.78 1057.14,-108.41 1048.97,-115.16 1054.97,-118.78"/>
</a>
</g>
</g>
<!-- 25&#45;&gt;17 -->
<g id="edge51" class="edge">
<title>25&#45;&gt;17</title>
<g id="a_edge51"><a xlink:title="include">
<path fill="none" stroke="#1414ce" d="M943.57,-446.53C1009.88,-440.93 1157.8,-425.42 1198.03,-396 1243.31,-362.89 1267.09,-298.58 1277.46,-262.06"/>
<polygon fill="#1414ce" stroke="#1414ce" points="1280.91,-262.68 1280.14,-252.11 1274.16,-260.85 1280.91,-262.68"/>
</a>
</g>
</g>
<!-- 26 -->
<g id="node21" class="node">
<title>26</title>
<g id="a_node21"><a xlink:title="sys/types.h">
<polygon fill="#ffffff" stroke="black" points="824.53,-396 727.53,-396 727.53,-360 824.53,-360 824.53,-396"/>
<text text-anchor="middle" x="776.03" y="-374.3" font-family="Times,serif" font-size="14.00">sys/types.h</text>
</a>
</g>
</g>
<!-- 25&#45;&gt;26 -->
<g id="edge45" class="edge">
<title>25&#45;&gt;26</title>
<g id="a_edge45"><a xlink:title="include">
<path fill="none" stroke="#1414ce" d="M878.35,-432.05C860.16,-422.62 837.33,-410.78 817.85,-400.68"/>
<polygon fill="#1414ce" stroke="#1414ce" points="819.37,-397.53 808.88,-396.03 816.14,-403.74 819.37,-397.53"/>
</a>
</g>
</g>
<!-- 27 -->
<g id="node22" class="node">
<title>27</title>
<g id="a_node22"><a xlink:title="string.h">
<polygon fill="#ffffff" stroke="black" points="915.53,-396 842.53,-396 842.53,-360 915.53,-360 915.53,-396"/>
<text text-anchor="middle" x="879.03" y="-374.3" font-family="Times,serif" font-size="14.00">string.h</text>
</a>
</g>
</g>
<!-- 25&#45;&gt;27 -->
<g id="edge50" class="edge">
<title>25&#45;&gt;27</title>
<g id="a_edge50"><a xlink:title="include">
<path fill="none" stroke="#1414ce" d="M903.12,-431.7C899.48,-423.73 895.08,-414.1 891.04,-405.26"/>
<polygon fill="#1414ce" stroke="#1414ce" points="894.19,-403.74 886.85,-396.1 887.83,-406.65 894.19,-403.74"/>
</a>
</g>
</g>
<!-- 25&#45;&gt;8 -->
<g id="edge54" class="edge">
<title>25&#45;&gt;8</title>
<g id="a_edge54"><a xlink:title="include">
<path fill="none" stroke="#1414ce" d="M943.77,-446.27C1014.68,-439.93 1180.07,-422.68 1229.03,-396 1339.52,-335.8 1373.32,-299.72 1412.03,-180 1416.95,-164.78 1418.49,-158.64 1412.03,-144 1407.05,-132.69 1398.32,-122.74 1389.13,-114.62"/>
<polygon fill="#1414ce" stroke="#1414ce" points="1391.32,-111.88 1381.37,-108.23 1386.86,-117.28 1391.32,-111.88"/>
</a>
</g>
</g>
<!-- 25&#45;&gt;16 -->
<g id="edge48" class="edge">
<title>25&#45;&gt;16</title>
<g id="a_edge48"><a xlink:title="include">
<path fill="none" stroke="#1414ce" d="M917.67,-431.69C923.67,-413.57 930.63,-384.42 924.03,-360 919.2,-342.12 908.78,-341.61 903.03,-324 879.72,-252.54 877.56,-162.81 878.16,-118.44"/>
<polygon fill="#1414ce" stroke="#1414ce" points="881.66,-118.24 878.36,-108.18 874.67,-118.11 881.66,-118.24"/>
</a>
</g>
</g>
<!-- 7&#45;&gt;8 -->
<g id="edge55" class="edge">
<title>7&#45;&gt;8</title>
<g id="a_edge55"><a xlink:title="include">
<path fill="none" stroke="#1414ce" d="M1363.07,-143.7C1361.74,-135.98 1360.15,-126.71 1358.68,-118.11"/>
<polygon fill="#1414ce" stroke="#1414ce" points="1362.1,-117.37 1356.96,-108.1 1355.2,-118.55 1362.1,-117.37"/>
</a>
</g>
</g>
<!-- 10 -->
<g id="node19" class="node">
<title>10</title>
<g id="a_node19"><a xlink:title="limits.h">
<polygon fill="#ffffff" stroke="black" points="1291.53,-36 1220.53,-36 1220.53,0 1291.53,0 1291.53,-36"/>
<text text-anchor="middle" x="1256.03" y="-14.3" font-family="Times,serif" font-size="14.00">limits.h</text>
</a>
</g>
</g>
<!-- 23 -->
<g id="node20" class="node">
<title>23</title>
<g id="a_node20"><a xlink:title="atom_table.h">
<polygon fill="#ffffff" stroke="black" points="452.53,-252 343.53,-252 343.53,-216 452.53,-216 452.53,-252"/>
<text text-anchor="middle" x="398.03" y="-230.3" font-family="Times,serif" font-size="14.00">atom_table.h</text>
</a>
</g>
</g>
<!-- 23&#45;&gt;4 -->
<g id="edge56" class="edge">
<title>23&#45;&gt;4</title>
<g id="a_edge56"><a xlink:title="include">
<path fill="none" stroke="#1414ce" d="M421.19,-215.87C455.5,-190.5 519.92,-142.85 558.5,-114.32"/>
<polygon fill="#1414ce" stroke="#1414ce" points="560.83,-116.95 566.79,-108.19 556.67,-111.32 560.83,-116.95"/>
</a>
</g>
</g>
<!-- 23&#45;&gt;22 -->
<g id="edge57" class="edge">
<title>23&#45;&gt;22</title>
<g id="a_edge57"><a xlink:title="include">
<path fill="none" stroke="#1414ce" d="M452.94,-223.85C537.46,-209.76 697.72,-183.05 774.67,-170.23"/>
<polygon fill="#1414ce" stroke="#1414ce" points="775.67,-173.61 784.95,-168.51 774.52,-166.7 775.67,-173.61"/>
</a>
</g>
</g>
<!-- 8&#45;&gt;9 -->
<g id="edge58" class="edge">
<title>8&#45;&gt;9</title>
<g id="a_edge58"><a xlink:title="include">
<path fill="none" stroke="#1414ce" d="M1378.49,-71.88C1391.33,-62.89 1407.23,-51.76 1421.13,-42.03"/>
<polygon fill="#1414ce" stroke="#1414ce" points="1423.29,-44.79 1429.47,-36.19 1419.28,-39.06 1423.29,-44.79"/>
</a>
</g>
</g>
<!-- 8&#45;&gt;12 -->
<g id="edge61" class="edge">
<title>8&#45;&gt;12</title>
<g id="a_edge61"><a xlink:title="include">
<path fill="none" stroke="#1414ce" d="M1291.5,-74.74C1286.62,-73.77 1281.75,-72.84 1277.03,-72 1153.6,-50.03 1006.77,-32.33 933.48,-24.06"/>
<polygon fill="#1414ce" stroke="#1414ce" points="933.54,-20.54 923.21,-22.91 932.76,-27.5 933.54,-20.54"/>
</a>
</g>
</g>
<!-- 8&#45;&gt;10 -->
<g id="edge59" class="edge">
<title>8&#45;&gt;10</title>
<g id="a_edge59"><a xlink:title="include">
<path fill="none" stroke="#1414ce" d="M1330.06,-71.88C1317.48,-62.89 1301.9,-51.76 1288.28,-42.03"/>
<polygon fill="#1414ce" stroke="#1414ce" points="1290.27,-39.15 1280.1,-36.19 1286.2,-44.85 1290.27,-39.15"/>
</a>
</g>
</g>
<!-- 11 -->
<g id="node32" class="node">
<title>11</title>
<g id="a_node32"><a xlink:title="inttypes.h">
<polygon fill="#ffffff" stroke="black" points="1398.53,-36 1309.53,-36 1309.53,0 1398.53,0 1398.53,-36"/>
<text text-anchor="middle" x="1354.03" y="-14.3" font-family="Times,serif" font-size="14.00">inttypes.h</text>
</a>
</g>
</g>
<!-- 8&#45;&gt;11 -->
<g id="edge60" class="edge">
<title>8&#45;&gt;11</title>
<g id="a_edge60"><a xlink:title="include">
<path fill="none" stroke="#1414ce" d="M1354.03,-71.7C1354.03,-63.98 1354.03,-54.71 1354.03,-46.11"/>
<polygon fill="#1414ce" stroke="#1414ce" points="1357.53,-46.1 1354.03,-36.1 1350.53,-46.1 1357.53,-46.1"/>
</a>
</g>
</g>
<!-- 21&#45;&gt;22 -->
<g id="edge63" class="edge">
<title>21&#45;&gt;22</title>
<g id="a_edge63"><a xlink:title="include">
<path fill="none" stroke="#1414ce" d="M502.1,-575.94C513.92,-565.73 529.05,-552.37 542.03,-540 544.05,-538.08 820.98,-254.58 822.03,-252 830.01,-232.35 828.29,-208.23 824.98,-190.05"/>
<polygon fill="#1414ce" stroke="#1414ce" points="828.38,-189.19 822.91,-180.12 821.52,-190.62 828.38,-189.19"/>
</a>
</g>
</g>
<!-- 21&#45;&gt;18 -->
<g id="edge70" class="edge">
<title>21&#45;&gt;18</title>
<g id="a_edge70"><a xlink:title="include">
<path fill="none" stroke="#1414ce" d="M487.5,-575.71C495.38,-549.18 509.03,-496.67 509.03,-451 509.03,-451 509.03,-451 509.03,-377 509.03,-336.03 511.88,-323.08 533.03,-288 539.57,-277.15 548.97,-267.14 558.25,-258.81"/>
<polygon fill="#1414ce" stroke="#1414ce" points="560.62,-261.38 565.95,-252.22 556.08,-256.06 560.62,-261.38"/>
</a>
</g>
</g>
<!-- 21&#45;&gt;5 -->
<g id="edge67" class="edge">
<title>21&#45;&gt;5</title>
<g id="a_edge67"><a xlink:title="include">
<path fill="none" stroke="#1414ce" d="M418.42,-588.06C350.06,-581.42 247.5,-567.17 220.03,-540 191.28,-511.55 201.03,-491.45 201.03,-451 201.03,-451 201.03,-451 201.03,-305 201.03,-257.01 238.98,-212.96 266.9,-187.04"/>
<polygon fill="#1414ce" stroke="#1414ce" points="269.39,-189.52 274.47,-180.22 264.7,-184.31 269.39,-189.52"/>
</a>
</g>
</g>
<!-- 21&#45;&gt;12 -->
<g id="edge62" class="edge">
<title>21&#45;&gt;12</title>
<g id="a_edge62"><a xlink:title="include">
<path fill="none" stroke="#1414ce" d="M418.36,-589.48C334.74,-583.73 193.64,-569.85 152.03,-540 26.74,-450.14 -40.92,-353.91 28.03,-216 84.86,-102.34 152.42,-105.36 275.03,-72 381.65,-42.99 716.63,-26.22 840.44,-20.88"/>
<polygon fill="#1414ce" stroke="#1414ce" points="840.87,-24.37 850.71,-20.44 840.57,-17.37 840.87,-24.37"/>
</a>
</g>
</g>
<!-- 21&#45;&gt;25 -->
<g id="edge71" class="edge">
<title>21&#45;&gt;25</title>
<g id="a_edge71"><a xlink:title="include">
<path fill="none" stroke="#1414ce" d="M533.78,-575.87C619.58,-547.47 789.68,-491.17 868.77,-464.99"/>
<polygon fill="#1414ce" stroke="#1414ce" points="870.01,-468.27 878.4,-461.8 867.81,-461.62 870.01,-468.27"/>
</a>
</g>
</g>
<!-- 21&#45;&gt;7 -->
<g id="edge65" class="edge">
<title>21&#45;&gt;7</title>
<g id="a_edge65"><a xlink:title="include">
<path fill="none" stroke="#1414ce" d="M545.63,-588.62C680.93,-576.78 1003.33,-534.97 1229.03,-396 1302.71,-350.64 1326.12,-331.6 1360.03,-252 1368.31,-232.56 1369.47,-208.56 1368.75,-190.38"/>
<polygon fill="#1414ce" stroke="#1414ce" points="1372.23,-189.94 1368.12,-180.17 1365.24,-190.36 1372.23,-189.94"/>
</a>
</g>
</g>
<!-- 21&#45;&gt;23 -->
<g id="edge64" class="edge">
<title>21&#45;&gt;23</title>
<g id="a_edge64"><a xlink:title="include">
<path fill="none" stroke="#1414ce" d="M430.59,-575.89C412.63,-567.61 393.78,-555.92 381.03,-540 355.42,-508.03 357.03,-491.97 357.03,-451 357.03,-451 357.03,-451 357.03,-377 357.03,-335.41 373.47,-289.56 385.53,-261.51"/>
<polygon fill="#1414ce" stroke="#1414ce" points="388.88,-262.59 389.73,-252.03 382.48,-259.75 388.88,-262.59"/>
</a>
</g>
</g>
<!-- 21&#45;&gt;19 -->
<g id="edge69" class="edge">
<title>21&#45;&gt;19</title>
<g id="a_edge69"><a xlink:title="include">
<path fill="none" stroke="#1414ce" d="M451.26,-575.91C438.49,-567.02 425.03,-554.88 418.03,-540 369.25,-436.26 417.81,-388.46 473.03,-288 495.35,-247.4 533.87,-209.9 560.58,-186.77"/>
<polygon fill="#1414ce" stroke="#1414ce" points="563.11,-189.22 568.46,-180.07 558.58,-183.88 563.11,-189.22"/>
</a>
</g>
</g>
<!-- 21&#45;&gt;28 -->
<g id="edge72" class="edge">
<title>21&#45;&gt;28</title>
<g id="a_edge72"><a xlink:title="include">
<path fill="none" stroke="#1414ce" d="M418.51,-589.1C342.39,-583.17 220.84,-569.32 187.03,-540 102.93,-467.07 88.57,-322.48 86.33,-262.29"/>
<polygon fill="#1414ce" stroke="#1414ce" points="89.82,-261.96 86.04,-252.07 82.83,-262.16 89.82,-261.96"/>
</a>
</g>
</g>
<!-- 21&#45;&gt;13 -->
<g id="edge68" class="edge">
<title>21&#45;&gt;13</title>
<g id="a_edge68"><a xlink:title="include">
<path fill="none" stroke="#1414ce" d="M492.75,-575.94C517.84,-536.47 583.1,-436.41 647.03,-360 678.02,-322.97 717.82,-283.85 743.62,-259.44"/>
<polygon fill="#1414ce" stroke="#1414ce" points="746.27,-261.75 751.15,-252.35 741.47,-256.65 746.27,-261.75"/>
</a>
</g>
</g>
<!-- 24 -->
<g id="node31" class="node">
<title>24</title>
<g id="a_node31"><a xlink:title="ets.h">
<polygon fill="#ffffff" stroke="black" points="481.03,-540 427.03,-540 427.03,-504 481.03,-504 481.03,-540"/>
<text text-anchor="middle" x="454.03" y="-518.3" font-family="Times,serif" font-size="14.00">ets.h</text>
</a>
</g>
</g>
<!-- 21&#45;&gt;24 -->
<g id="edge66" class="edge">
<title>21&#45;&gt;24</title>
<g id="a_edge66"><a xlink:title="include">
<path fill="none" stroke="#1414ce" d="M475.11,-575.7C471.96,-567.81 468.15,-558.3 464.65,-549.55"/>
<polygon fill="#1414ce" stroke="#1414ce" points="467.84,-548.09 460.87,-540.1 461.34,-550.69 467.84,-548.09"/>
</a>
</g>
</g>
<!-- 19&#45;&gt;4 -->
<g id="edge73" class="edge">
<title>19&#45;&gt;4</title>
<g id="a_edge73"><a xlink:title="include">
<path fill="none" stroke="#1414ce" d="M590.03,-143.7C590.03,-135.98 590.03,-126.71 590.03,-118.11"/>
<polygon fill="#1414ce" stroke="#1414ce" points="593.53,-118.1 590.03,-108.1 586.53,-118.1 593.53,-118.1"/>
</a>
</g>
</g>
<!-- 28&#45;&gt;4 -->
<g id="edge74" class="edge">
<title>28&#45;&gt;4</title>
<g id="a_edge74"><a xlink:title="include">
<path fill="none" stroke="#1414ce" d="M112.89,-215.87C146.12,-195.49 205.04,-161.98 260.03,-144 355.31,-112.85 472.28,-99.6 538.27,-94.28"/>
<polygon fill="#1414ce" stroke="#1414ce" points="538.71,-97.76 548.41,-93.5 538.17,-90.78 538.71,-97.76"/>
</a>
</g>
</g>
<!-- 28&#45;&gt;5 -->
<g id="edge76" class="edge">
<title>28&#45;&gt;5</title>
<g id="a_edge76"><a xlink:title="include">
<path fill="none" stroke="#1414ce" d="M135.27,-216.59C173.22,-203.94 224.88,-186.72 259.28,-175.25"/>
<polygon fill="#1414ce" stroke="#1414ce" points="260.55,-178.52 268.93,-172.03 258.34,-171.87 260.55,-178.52"/>
</a>
</g>
</g>
<!-- 28&#45;&gt;12 -->
<g id="edge75" class="edge">
<title>28&#45;&gt;12</title>
<g id="a_edge75"><a xlink:title="include">
<path fill="none" stroke="#1414ce" d="M97.69,-215.89C112.63,-195.38 140.53,-161.57 173.03,-144 290.1,-80.73 701.04,-36.69 840.4,-23.28"/>
<polygon fill="#1414ce" stroke="#1414ce" points="841.11,-26.73 850.73,-22.3 840.44,-19.76 841.11,-26.73"/>
</a>
</g>
</g>
<!-- 13&#45;&gt;4 -->
<g id="edge77" class="edge">
<title>13&#45;&gt;4</title>
<g id="a_edge77"><a xlink:title="include">
<path fill="none" stroke="#1414ce" d="M762.79,-215.75C753.73,-196.05 736.53,-163.95 713.03,-144 692.31,-126.41 664.87,-113.83 641.16,-105.36"/>
<polygon fill="#1414ce" stroke="#1414ce" points="642.2,-102.01 631.6,-102.09 639.93,-108.63 642.2,-102.01"/>
</a>
</g>
</g>
<!-- 13&#45;&gt;14 -->
<g id="edge80" class="edge">
<title>13&#45;&gt;14</title>
<g id="a_edge80"><a xlink:title="include">
<path fill="none" stroke="#1414ce" d="M813.03,-229.46C879.8,-223.3 1012.06,-208.47 1121.03,-180 1122.3,-179.67 1123.59,-179.31 1124.88,-178.94"/>
<polygon fill="#1414ce" stroke="#1414ce" points="1126.38,-182.13 1134.83,-175.75 1124.24,-175.47 1126.38,-182.13"/>
</a>
</g>
</g>
<!-- 13&#45;&gt;5 -->
<g id="edge78" class="edge">
<title>13&#45;&gt;5</title>
<g id="a_edge78"><a xlink:title="include">
<path fill="none" stroke="#1414ce" d="M726.71,-226.6C634.46,-212.98 419.97,-181.3 333.33,-168.51"/>
<polygon fill="#1414ce" stroke="#1414ce" points="333.58,-165.01 323.17,-167.01 332.55,-171.93 333.58,-165.01"/>
</a>
</g>
</g>
<!-- 13&#45;&gt;8 -->
<g id="edge79" class="edge">
<title>13&#45;&gt;8</title>
<g id="a_edge79"><a xlink:title="include">
<path fill="none" stroke="#1414ce" d="M813.27,-221.95C880.21,-204.89 1013.01,-171.26 1126.03,-144 1177.82,-131.51 1236.35,-117.91 1281.14,-107.62"/>
<polygon fill="#1414ce" stroke="#1414ce" points="1282.1,-110.99 1291.06,-105.34 1280.53,-104.17 1282.1,-110.99"/>
</a>
</g>
</g>
<!-- 24&#45;&gt;18 -->
<g id="edge82" class="edge">
<title>24&#45;&gt;18</title>
<g id="a_edge82"><a xlink:title="include">
<path fill="none" stroke="#1414ce" d="M452.36,-503.91C449.25,-462.65 446.72,-355.95 495.03,-288 505.64,-273.07 521.85,-261.85 537.88,-253.67"/>
<polygon fill="#1414ce" stroke="#1414ce" points="539.74,-256.66 547.26,-249.2 536.73,-250.34 539.74,-256.66"/>
</a>
</g>
</g>
<!-- 24&#45;&gt;5 -->
<g id="edge81" class="edge">
<title>24&#45;&gt;5</title>
<g id="a_edge81"><a xlink:title="include">
<path fill="none" stroke="#1414ce" d="M441.24,-503.88C411.39,-462.9 337.24,-354.92 305.03,-252 298.74,-231.9 296.59,-208.12 295.96,-190.2"/>
<polygon fill="#1414ce" stroke="#1414ce" points="299.46,-190.06 295.74,-180.14 292.46,-190.21 299.46,-190.06"/>
</a>
</g>
</g>
<!-- 24&#45;&gt;25 -->
<g id="edge83" class="edge">
<title>24&#45;&gt;25</title>
<g id="a_edge83"><a xlink:title="include">
<path fill="none" stroke="#1414ce" d="M481.25,-516.83C557.84,-505.1 775.62,-471.74 868.36,-457.54"/>
<polygon fill="#1414ce" stroke="#1414ce" points="868.9,-460.99 878.25,-456.02 867.84,-454.08 868.9,-460.99"/>
</a>
</g>
</g>
</g>
</svg>
