<?xml version="1.0" encoding="UTF-8" standalone="no"?>
<!DOCTYPE svg PUBLIC "-//W3C//DTD SVG 1.1//EN"
 "http://www.w3.org/Graphics/SVG/1.1/DTD/svg11.dtd">
<!-- Generated by graphviz version 2.43.0 (0)
 -->
<!-- Title: %3 Pages: 1 -->
<svg width="533pt" height="260pt"
 viewBox="0.00 0.00 532.50 260.00" xmlns="http://www.w3.org/2000/svg" xmlns:xlink="http://www.w3.org/1999/xlink">
<g id="graph0" class="graph" transform="scale(1 1) rotate(0) translate(4 256)">
<title>%3</title>
<polygon fill="transparent" stroke="transparent" points="-4,4 -4,-256 528.5,-256 528.5,4 -4,4"/>
<!-- 4 -->
<g id="node1" class="node">
<title>4</title>
<g id="a_node1"><a xlink:title="erl_nif.h">
<polygon fill="#ffffff" stroke="black" points="195,-180 121,-180 121,-144 195,-144 195,-180"/>
<text text-anchor="middle" x="158" y="-158.3" font-family="Times,serif" font-size="14.00">erl_nif.h</text>
</a>
</g>
</g>
<!-- 5 -->
<g id="node3" class="node">
<title>5</title>
<g id="a_node3"><a xlink:title="term_typedef.h">
<polygon fill="#ffffff" stroke="black" points="199.5,-108 74.5,-108 74.5,-72 199.5,-72 199.5,-108"/>
<text text-anchor="middle" x="137" y="-86.3" font-family="Times,serif" font-size="14.00">term_typedef.h</text>
</a>
</g>
</g>
<!-- 4&#45;&gt;5 -->
<g id="edge1" class="edge">
<title>4&#45;&gt;5</title>
<g id="a_edge1"><a xlink:title="include">
<path fill="none" stroke="#1414ce" d="M152.81,-143.7C150.47,-135.9 147.65,-126.51 145.05,-117.83"/>
<polygon fill="#1414ce" stroke="#1414ce" points="148.36,-116.68 142.13,-108.1 141.65,-118.69 148.36,-116.68"/>
</a>
</g>
</g>
<!-- 1 -->
<g id="node2" class="node">
<title>1</title>
<g id="a_node2"><a xlink:title="/__w/AtomVM/AtomVM/src/libAtomVM/memory.h">
<polygon fill="#bfbfbf" stroke="black" points="524.5,-252 161.5,-252 161.5,-216 524.5,-216 524.5,-252"/>
<text text-anchor="middle" x="343" y="-230.3" font-family="Times,serif" font-size="14.00">/__w/AtomVM/AtomVM/src/libAtomVM/memory.h</text>
</a>
</g>
</g>
<!-- 1&#45;&gt;4 -->
<g id="edge4" class="edge">
<title>1&#45;&gt;4</title>
<g id="a_edge4"><a xlink:title="include">
<path fill="none" stroke="#1414ce" d="M297.74,-215.88C269.39,-205.15 232.95,-191.36 204.38,-180.55"/>
<polygon fill="#1414ce" stroke="#1414ce" points="205.61,-177.27 195.02,-177.01 203.14,-183.82 205.61,-177.27"/>
</a>
</g>
</g>
<!-- 1&#45;&gt;5 -->
<g id="edge5" class="edge">
<title>1&#45;&gt;5</title>
<g id="a_edge5"><a xlink:title="include">
<path fill="none" stroke="#1414ce" d="M318.15,-215.87C281.19,-190.39 211.64,-142.45 170.31,-113.96"/>
<polygon fill="#1414ce" stroke="#1414ce" points="172.16,-110.98 161.94,-108.19 168.18,-116.75 172.16,-110.98"/>
</a>
</g>
</g>
<!-- 9 -->
<g id="node4" class="node">
<title>9</title>
<g id="a_node4"><a xlink:title="utils.h">
<polygon fill="#ffffff" stroke="black" points="374,-180 312,-180 312,-144 374,-144 374,-180"/>
<text text-anchor="middle" x="343" y="-158.3" font-family="Times,serif" font-size="14.00">utils.h</text>
</a>
</g>
</g>
<!-- 1&#45;&gt;9 -->
<g id="edge6" class="edge">
<title>1&#45;&gt;9</title>
<g id="a_edge6"><a xlink:title="include">
<path fill="none" stroke="#1414ce" d="M343,-215.7C343,-207.98 343,-198.71 343,-190.11"/>
<polygon fill="#1414ce" stroke="#1414ce" points="346.5,-190.1 343,-180.1 339.5,-190.1 346.5,-190.1"/>
</a>
</g>
</g>
<!-- 2 -->
<g id="node9" class="node">
<title>2</title>
<g id="a_node9"><a xlink:title="stdint.h">
<polygon fill="#ffffff" stroke="black" points="445,-36 373,-36 373,0 445,0 445,-36"/>
<text text-anchor="middle" x="409" y="-14.3" font-family="Times,serif" font-size="14.00">stdint.h</text>
</a>
</g>
</g>
<!-- 1&#45;&gt;2 -->
<g id="edge2" class="edge">
<title>1&#45;&gt;2</title>
<g id="a_edge2"><a xlink:title="include">
<path fill="none" stroke="#1414ce" d="M372.52,-215.89C404.89,-195.16 454.79,-156.85 474,-108 479.86,-93.11 480.86,-86.45 474,-72 468.43,-60.27 458.86,-50.28 448.74,-42.25"/>
<polygon fill="#1414ce" stroke="#1414ce" points="450.7,-39.35 440.58,-36.22 446.55,-44.98 450.7,-39.35"/>
</a>
</g>
</g>
<!-- 3 -->
<g id="node11" class="node">
<title>3</title>
<g id="a_node11"><a xlink:title="stdlib.h">
<polygon fill="#ffffff" stroke="black" points="464.5,-108 393.5,-108 393.5,-72 464.5,-72 464.5,-108"/>
<text text-anchor="middle" x="429" y="-86.3" font-family="Times,serif" font-size="14.00">stdlib.h</text>
</a>
</g>
</g>
<!-- 1&#45;&gt;3 -->
<g id="edge3" class="edge">
<title>1&#45;&gt;3</title>
<g id="a_edge3"><a xlink:title="include">
<path fill="none" stroke="#1414ce" d="M357.1,-215.87C365.14,-205.74 375.14,-192.49 383,-180 395.74,-159.76 408.07,-135.58 416.75,-117.53"/>
<polygon fill="#1414ce" stroke="#1414ce" points="420.05,-118.74 421.18,-108.2 413.73,-115.74 420.05,-118.74"/>
</a>
</g>
</g>
<!-- 6 -->
<g id="node5" class="node">
<title>6</title>
<g id="a_node5"><a xlink:title="assert.h">
<polygon fill="#ffffff" stroke="black" points="74,-36 0,-36 0,0 74,0 74,-36"/>
<text text-anchor="middle" x="37" y="-14.3" font-family="Times,serif" font-size="14.00">assert.h</text>
</a>
</g>
</g>
<!-- 5&#45;&gt;6 -->
<g id="edge7" class="edge">
<title>5&#45;&gt;6</title>
<g id="a_edge7"><a xlink:title="include">
<path fill="none" stroke="#1414ce" d="M112.54,-71.88C99.7,-62.89 83.8,-51.76 69.91,-42.03"/>
<polygon fill="#1414ce" stroke="#1414ce" points="71.76,-39.06 61.56,-36.19 67.74,-44.79 71.76,-39.06"/>
</a>
</g>
</g>
<!-- 8 -->
<g id="node6" class="node">
<title>8</title>
<g id="a_node6"><a xlink:title="inttypes.h">
<polygon fill="#ffffff" stroke="black" points="181.5,-36 92.5,-36 92.5,0 181.5,0 181.5,-36"/>
<text text-anchor="middle" x="137" y="-14.3" font-family="Times,serif" font-size="14.00">inttypes.h</text>
</a>
</g>
</g>
<!-- 5&#45;&gt;8 -->
<g id="edge9" class="edge">
<title>5&#45;&gt;8</title>
<g id="a_edge9"><a xlink:title="include">
<path fill="none" stroke="#1414ce" d="M137,-71.7C137,-63.98 137,-54.71 137,-46.11"/>
<polygon fill="#1414ce" stroke="#1414ce" points="140.5,-46.1 137,-36.1 133.5,-46.1 140.5,-46.1"/>
</a>
</g>
</g>
<!-- 7 -->
<g id="node7" class="node">
<title>7</title>
<g id="a_node7"><a xlink:title="limits.h">
<polygon fill="#ffffff" stroke="black" points="270.5,-36 199.5,-36 199.5,0 270.5,0 270.5,-36"/>
<text text-anchor="middle" x="235" y="-14.3" font-family="Times,serif" font-size="14.00">limits.h</text>
</a>
</g>
</g>
<!-- 5&#45;&gt;7 -->
<g id="edge8" class="edge">
<title>5&#45;&gt;7</title>
<g id="a_edge8"><a xlink:title="include">
<path fill="none" stroke="#1414ce" d="M160.97,-71.88C173.55,-62.89 189.13,-51.76 202.75,-42.03"/>
<polygon fill="#1414ce" stroke="#1414ce" points="204.83,-44.85 210.93,-36.19 200.76,-39.15 204.83,-44.85"/>
</a>
</g>
</g>
<!-- 5&#45;&gt;2 -->
<g id="edge10" class="edge">
<title>5&#45;&gt;2</title>
<g id="a_edge10"><a xlink:title="include">
<path fill="none" stroke="#1414ce" d="M199.74,-72.85C249.63,-60.01 318.25,-42.35 363.11,-30.81"/>
<polygon fill="#1414ce" stroke="#1414ce" points="364.05,-34.18 372.86,-28.3 362.3,-27.4 364.05,-34.18"/>
</a>
</g>
</g>
<!-- 10 -->
<g id="node8" class="node">
<title>10</title>
<g id="a_node8"><a xlink:title="stddef.h">
<polygon fill="#ffffff" stroke="black" points="292,-108 218,-108 218,-72 292,-72 292,-108"/>
<text text-anchor="middle" x="255" y="-86.3" font-family="Times,serif" font-size="14.00">stddef.h</text>
</a>
</g>
</g>
<!-- 9&#45;&gt;10 -->
<g id="edge11" class="edge">
<title>9&#45;&gt;10</title>
<g id="a_edge11"><a xlink:title="include">
<path fill="none" stroke="#1414ce" d="M321.25,-143.7C310.16,-134.88 296.53,-124.03 284.51,-114.47"/>
<polygon fill="#1414ce" stroke="#1414ce" points="286.51,-111.59 276.5,-108.1 282.15,-117.07 286.51,-111.59"/>
</a>
</g>
</g>
<!-- 11 -->
<g id="node10" class="node">
<title>11</title>
<g id="a_node10"><a xlink:title="stdio.h">
<polygon fill="#ffffff" stroke="black" points="375.5,-108 310.5,-108 310.5,-72 375.5,-72 375.5,-108"/>
<text text-anchor="middle" x="343" y="-86.3" font-family="Times,serif" font-size="14.00">stdio.h</text>
</a>
</g>
</g>
<!-- 9&#45;&gt;11 -->
<g id="edge12" class="edge">
<title>9&#45;&gt;11</title>
<g id="a_edge12"><a xlink:title="include">
<path fill="none" stroke="#1414ce" d="M343,-143.7C343,-135.98 343,-126.71 343,-118.11"/>
<polygon fill="#1414ce" stroke="#1414ce" points="346.5,-118.1 343,-108.1 339.5,-118.1 346.5,-118.1"/>
</a>
</g>
</g>
<!-- 9&#45;&gt;3 -->
<g id="edge13" class="edge">
<title>9&#45;&gt;3</title>
<g id="a_edge13"><a xlink:title="include">
<path fill="none" stroke="#1414ce" d="M364.26,-143.7C375.09,-134.88 388.42,-124.03 400.16,-114.47"/>
<polygon fill="#1414ce" stroke="#1414ce" points="402.44,-117.13 407.99,-108.1 398.02,-111.7 402.44,-117.13"/>
</a>
</g>
</g>
</g>
</svg>
