<?xml version="1.0" encoding="UTF-8" standalone="no"?>
<!DOCTYPE svg PUBLIC "-//W3C//DTD SVG 1.1//EN"
 "http://www.w3.org/Graphics/SVG/1.1/DTD/svg11.dtd">
<!-- Generated by graphviz version 2.43.0 (0)
 -->
<!-- Title: %3 Pages: 1 -->
<svg width="4237pt" height="116pt"
 viewBox="0.00 0.00 4237.00 116.00" xmlns="http://www.w3.org/2000/svg" xmlns:xlink="http://www.w3.org/1999/xlink">
<g id="graph0" class="graph" transform="scale(1 1) rotate(0) translate(4 112)">
<title>%3</title>
<polygon fill="transparent" stroke="transparent" points="-4,4 -4,-112 4233,-112 4233,4 -4,4"/>
<!-- 2 -->
<g id="node1" class="node">
<title>2</title>
<g id="a_node1"><a xlink:title="/__w/AtomVM/AtomVM/src/libAtomVM/bif.c">
<polygon fill="#ffffff" stroke="black" points="323,-36 0,-36 0,0 323,0 323,-36"/>
<text text-anchor="middle" x="161.5" y="-14.3" font-family="Times,serif" font-size="14.00">/__w/AtomVM/AtomVM/src/libAtomVM/bif.c</text>
</a>
</g>
</g>
<!-- 3 -->
<g id="node2" class="node">
<title>3</title>
<g id="a_node2"><a xlink:title="/__w/AtomVM/AtomVM/src/libAtomVM/ets_hashtable.c">
<polygon fill="#ffffff" stroke="black" points="745.5,-36 341.5,-36 341.5,0 745.5,0 745.5,-36"/>
<text text-anchor="middle" x="543.5" y="-14.3" font-family="Times,serif" font-size="14.00">/__w/AtomVM/AtomVM/src/libAtomVM/ets_hashtable.c</text>
</a>
</g>
</g>
<!-- 4 -->
<g id="node3" class="node">
<title>4</title>
<g id="a_node3"><a xlink:title="/__w/AtomVM/AtomVM/src/libAtomVM/jit.c">
<polygon fill="#ffffff" stroke="black" points="1083.5,-36 763.5,-36 763.5,0 1083.5,0 1083.5,-36"/>
<text text-anchor="middle" x="923.5" y="-14.3" font-family="Times,serif" font-size="14.00">/__w/AtomVM/AtomVM/src/libAtomVM/jit.c</text>
</a>
</g>
</g>
<!-- 5 -->
<g id="node4" class="node">
<title>5</title>
<g id="a_node4"><a xlink:title="/__w/AtomVM/AtomVM/src/libAtomVM/jit_stream_flash.c">
<polygon fill="#ffffff" stroke="black" points="1519.5,-36 1101.5,-36 1101.5,0 1519.5,0 1519.5,-36"/>
<text text-anchor="middle" x="1310.5" y="-14.3" font-family="Times,serif" font-size="14.00">/__w/AtomVM/AtomVM/src/libAtomVM/jit_stream_flash.c</text>
</a>
</g>
</g>
<!-- 6 -->
<g id="node5" class="node">
<title>6</title>
<g id="a_node5"><a xlink:title="/__w/AtomVM/AtomVM/src/libAtomVM/mailbox.c">
<polygon fill="#ffffff" stroke="black" points="1899.5,-36 1537.5,-36 1537.5,0 1899.5,0 1899.5,-36"/>
<text text-anchor="middle" x="1718.5" y="-14.3" font-family="Times,serif" font-size="14.00">/__w/AtomVM/AtomVM/src/libAtomVM/mailbox.c</text>
</a>
</g>
</g>
<!-- 7 -->
<g id="node6" class="node">
<title>7</title>
<g id="a_node6"><a xlink:title="/__w/AtomVM/AtomVM/src/libAtomVM/memory.c">
<polygon fill="#ffffff" stroke="black" points="2279.5,-36 1917.5,-36 1917.5,0 2279.5,0 2279.5,-36"/>
<text text-anchor="middle" x="2098.5" y="-14.3" font-family="Times,serif" font-size="14.00">/__w/AtomVM/AtomVM/src/libAtomVM/memory.c</text>
</a>
</g>
</g>
<!-- 8 -->
<g id="node7" class="node">
<title>8</title>
<g id="a_node7"><a xlink:title="/__w/AtomVM/AtomVM/src/libAtomVM/otp_crypto.c">
<polygon fill="#ffffff" stroke="black" points="2679,-36 2298,-36 2298,0 2679,0 2679,-36"/>
<text text-anchor="middle" x="2488.5" y="-14.3" font-family="Times,serif" font-size="14.00">/__w/AtomVM/AtomVM/src/libAtomVM/otp_crypto.c</text>
</a>
</g>
</g>
<!-- 9 -->
<g id="node8" class="node">
<title>9</title>
<g id="a_node8"><a xlink:title="/__w/AtomVM/AtomVM/src/libAtomVM/otp_net.c">
<polygon fill="#ffffff" stroke="black" points="3056,-36 2697,-36 2697,0 3056,0 3056,-36"/>
<text text-anchor="middle" x="2876.5" y="-14.3" font-family="Times,serif" font-size="14.00">/__w/AtomVM/AtomVM/src/libAtomVM/otp_net.c</text>
</a>
</g>
</g>
<!-- 10 -->
<g id="node9" class="node">
<title>10</title>
<g id="a_node9"><a xlink:title="/__w/AtomVM/AtomVM/src/libAtomVM/otp_socket.c">
<polygon fill="#ffffff" stroke="black" points="3455,-36 3074,-36 3074,0 3455,0 3455,-36"/>
<text text-anchor="middle" x="3264.5" y="-14.3" font-family="Times,serif" font-size="14.00">/__w/AtomVM/AtomVM/src/libAtomVM/otp_socket.c</text>
</a>
</g>
</g>
<!-- 11 -->
<g id="node10" class="node">
<title>11</title>
<g id="a_node10"><a xlink:title="/__w/AtomVM/AtomVM/src/libAtomVM/otp_ssl.c">
<polygon fill="#ffffff" stroke="black" points="3828,-36 3473,-36 3473,0 3828,0 3828,-36"/>
<text text-anchor="middle" x="3650.5" y="-14.3" font-family="Times,serif" font-size="14.00">/__w/AtomVM/AtomVM/src/libAtomVM/otp_ssl.c</text>
</a>
</g>
</g>
<!-- 12 -->
<g id="node11" class="node">
<title>12</title>
<g id="a_node11"><a xlink:title="/__w/AtomVM/AtomVM/src/libAtomVM/refc_binary.c">
<polygon fill="#ffffff" stroke="black" points="4229,-36 3846,-36 3846,0 4229,0 4229,-36"/>
<text text-anchor="middle" x="4037.5" y="-14.3" font-family="Times,serif" font-size="14.00">/__w/AtomVM/AtomVM/src/libAtomVM/refc_binary.c</text>
</a>
</g>
</g>
<!-- 1 -->
<g id="node12" class="node">
<title>1</title>
<g id="a_node12"><a xlink:title="/__w/AtomVM/AtomVM/src/libAtomVM/trace.h">
<polygon fill="#bfbfbf" stroke="black" points="2270.5,-108 1926.5,-108 1926.5,-72 2270.5,-72 2270.5,-108"/>
<text text-anchor="middle" x="2098.5" y="-86.3" font-family="Times,serif" font-size="14.00">/__w/AtomVM/AtomVM/src/libAtomVM/trace.h</text>
</a>
</g>
</g>
<!-- 1&#45;&gt;2 -->
<g id="edge1" class="edge">
<title>1&#45;&gt;2</title>
<g id="a_edge1"><a xlink:title="include">
<path fill="none" stroke="#1414ce" d="M1915.97,-87.67C1595.27,-84.42 909.92,-73.32 332.5,-36 329.37,-35.8 326.22,-35.58 323.04,-35.36"/>
<polygon fill="#1414ce" stroke="#1414ce" points="1916.25,-91.18 1926.28,-87.78 1916.32,-84.18 1916.25,-91.18"/>
</a>
</g>
</g>
<!-- 1&#45;&gt;3 -->
<g id="edge2" class="edge">
<title>1&#45;&gt;3</title>
<g id="a_edge2"><a xlink:title="include">
<path fill="none" stroke="#1414ce" d="M1916.03,-84.18C1657.43,-76.8 1169.55,-60.89 754.5,-36 751.57,-35.82 748.61,-35.64 745.63,-35.46"/>
<polygon fill="#1414ce" stroke="#1414ce" points="1916.18,-87.68 1926.27,-84.47 1916.38,-80.68 1916.18,-87.68"/>
</a>
</g>
</g>
<!-- 1&#45;&gt;4 -->
<g id="edge3" class="edge">
<title>1&#45;&gt;4</title>
<g id="a_edge3"><a xlink:title="include">
<path fill="none" stroke="#1414ce" d="M1916.02,-82C1714.33,-73.66 1379.96,-58.02 1092.5,-36 1089.56,-35.77 1086.59,-35.54 1083.6,-35.3"/>
<polygon fill="#1414ce" stroke="#1414ce" points="1915.98,-85.5 1926.12,-82.42 1916.27,-78.51 1915.98,-85.5"/>
</a>
</g>
</g>
<!-- 1&#45;&gt;5 -->
<g id="edge4" class="edge">
<title>1&#45;&gt;5</title>
<g id="a_edge4"><a xlink:title="include">
<path fill="none" stroke="#1414ce" d="M1916.06,-72.79C1791.91,-61.76 1627.91,-47.2 1501.9,-36"/>
<polygon fill="#1414ce" stroke="#1414ce" points="1915.79,-76.28 1926.06,-73.68 1916.41,-69.31 1915.79,-76.28"/>
</a>
</g>
</g>
<!-- 1&#45;&gt;6 -->
<g id="edge5" class="edge">
<title>1&#45;&gt;6</title>
<g id="a_edge5"><a xlink:title="include">
<path fill="none" stroke="#1414ce" d="M1996.16,-70.15C1938.5,-59.53 1867.04,-46.36 1811.06,-36.05"/>
<polygon fill="#1414ce" stroke="#1414ce" points="1995.56,-73.6 2006.03,-71.97 1996.83,-66.71 1995.56,-73.6"/>
</a>
</g>
</g>
<!-- 1&#45;&gt;7 -->
<g id="edge6" class="edge">
<title>1&#45;&gt;7</title>
<g id="a_edge6"><a xlink:title="include">
<path fill="none" stroke="#1414ce" d="M2098.5,-61.67C2098.5,-53.05 2098.5,-43.79 2098.5,-36.1"/>
<polygon fill="#1414ce" stroke="#1414ce" points="2095,-61.7 2098.5,-71.7 2102,-61.7 2095,-61.7"/>
</a>
</g>
</g>
<!-- 1&#45;&gt;8 -->
<g id="edge7" class="edge">
<title>1&#45;&gt;8</title>
<g id="a_edge7"><a xlink:title="include">
<path fill="none" stroke="#1414ce" d="M2203.53,-70.15C2262.71,-59.53 2336.05,-46.36 2393.51,-36.05"/>
<polygon fill="#1414ce" stroke="#1414ce" points="2202.63,-66.75 2193.41,-71.97 2203.87,-73.64 2202.63,-66.75"/>
</a>
</g>
</g>
<!-- 1&#45;&gt;9 -->
<g id="edge8" class="edge">
<title>1&#45;&gt;9</title>
<g id="a_edge8"><a xlink:title="include">
<path fill="none" stroke="#1414ce" d="M2280.61,-72.67C2397.22,-62.2 2551.77,-48.32 2688.5,-36 2691.27,-35.75 2694.07,-35.5 2696.89,-35.24"/>
<polygon fill="#1414ce" stroke="#1414ce" points="2280.16,-69.2 2270.51,-73.58 2280.78,-76.17 2280.16,-69.2"/>
</a>
</g>
</g>
<!-- 1&#45;&gt;10 -->
<g id="edge9" class="edge">
<title>1&#45;&gt;10</title>
<g id="a_edge9"><a xlink:title="include">
<path fill="none" stroke="#1414ce" d="M2280.69,-80.67C2475.16,-71.39 2792.25,-55.16 3065.5,-36 3068.27,-35.81 3071.06,-35.61 3073.86,-35.41"/>
<polygon fill="#1414ce" stroke="#1414ce" points="2280.48,-77.18 2270.66,-81.15 2280.81,-84.17 2280.48,-77.18"/>
</a>
</g>
</g>
<!-- 1&#45;&gt;11 -->
<g id="edge10" class="edge">
<title>1&#45;&gt;11</title>
<g id="a_edge10"><a xlink:title="include">
<path fill="none" stroke="#1414ce" d="M2281,-84.96C2543.1,-78.46 3041.2,-63.54 3464.5,-36 3467.25,-35.82 3470.02,-35.64 3472.81,-35.44"/>
<polygon fill="#1414ce" stroke="#1414ce" points="2280.53,-81.47 2270.62,-85.21 2280.71,-88.46 2280.53,-81.47"/>
</a>
</g>
</g>
<!-- 1&#45;&gt;12 -->
<g id="edge11" class="edge">
<title>1&#45;&gt;12</title>
<g id="a_edge11"><a xlink:title="include">
<path fill="none" stroke="#1414ce" d="M2280.99,-86.7C2597.88,-81.97 3270.34,-68.72 3837.5,-36 3840.28,-35.84 3843.09,-35.67 3845.91,-35.5"/>
<polygon fill="#1414ce" stroke="#1414ce" points="2280.75,-83.2 2270.8,-86.85 2280.85,-90.2 2280.75,-83.2"/>
</a>
</g>
</g>
</g>
</svg>
