<?xml version="1.0" encoding="UTF-8" standalone="no"?>
<!DOCTYPE svg PUBLIC "-//W3C//DTD SVG 1.1//EN"
 "http://www.w3.org/Graphics/SVG/1.1/DTD/svg11.dtd">
<!-- Generated by graphviz version 2.43.0 (0)
 -->
<!-- Title: %3 Pages: 1 -->
<svg width="1462pt" height="764pt"
 viewBox="0.00 0.00 1462.41 764.00" xmlns="http://www.w3.org/2000/svg" xmlns:xlink="http://www.w3.org/1999/xlink">
<g id="graph0" class="graph" transform="scale(1 1) rotate(0) translate(4 760)">
<title>%3</title>
<polygon fill="transparent" stroke="transparent" points="-4,4 -4,-760 1458.41,-760 1458.41,4 -4,4"/>
<!-- 8 -->
<g id="node1" class="node">
<title>8</title>
<g id="a_node1"><a xlink:title="stdbool.h">
<polygon fill="#ffffff" stroke="black" points="506.41,-108 423.41,-108 423.41,-72 506.41,-72 506.41,-108"/>
<text text-anchor="middle" x="464.91" y="-86.3" font-family="Times,serif" font-size="14.00">stdbool.h</text>
</a>
</g>
</g>
<!-- 1 -->
<g id="node2" class="node">
<title>1</title>
<g id="a_node2"><a xlink:title="/__w/AtomVM/AtomVM/src/libAtomVM/erl_nif_priv.h">
<polygon fill="#bfbfbf" stroke="black" points="1454.41,-756 1069.41,-756 1069.41,-720 1454.41,-720 1454.41,-756"/>
<text text-anchor="middle" x="1261.91" y="-734.3" font-family="Times,serif" font-size="14.00">/__w/AtomVM/AtomVM/src/libAtomVM/erl_nif_priv.h</text>
</a>
</g>
</g>
<!-- 2 -->
<g id="node11" class="node">
<title>2</title>
<g id="a_node11"><a xlink:title="context.h">
<polygon fill="#ffffff" stroke="black" points="431.41,-684 348.41,-684 348.41,-648 431.41,-648 431.41,-684"/>
<text text-anchor="middle" x="389.91" y="-662.3" font-family="Times,serif" font-size="14.00">context.h</text>
</a>
</g>
</g>
<!-- 1&#45;&gt;2 -->
<g id="edge1" class="edge">
<title>1&#45;&gt;2</title>
<g id="a_edge1"><a xlink:title="include">
<path fill="none" stroke="#1414ce" d="M1069.2,-721.53C867.17,-705.31 562.64,-680.87 441.89,-671.17"/>
<polygon fill="#1414ce" stroke="#1414ce" points="442.06,-667.67 431.81,-670.36 441.5,-674.65 442.06,-667.67"/>
</a>
</g>
</g>
<!-- 24 -->
<g id="node12" class="node">
<title>24</title>
<g id="a_node12"><a xlink:title="memory.h">
<polygon fill="#ffffff" stroke="black" points="1157.91,-252 1071.91,-252 1071.91,-216 1157.91,-216 1157.91,-252"/>
<text text-anchor="middle" x="1114.91" y="-230.3" font-family="Times,serif" font-size="14.00">memory.h</text>
</a>
</g>
</g>
<!-- 1&#45;&gt;24 -->
<g id="edge2" class="edge">
<title>1&#45;&gt;24</title>
<g id="a_edge2"><a xlink:title="include">
<path fill="none" stroke="#1414ce" d="M1269.6,-719.91C1280.71,-693.62 1299.91,-641.45 1299.91,-595 1299.91,-595 1299.91,-595 1299.91,-449 1299.91,-361.07 1209.43,-291.47 1155.03,-257.56"/>
<polygon fill="#1414ce" stroke="#1414ce" points="1156.66,-254.45 1146.3,-252.23 1153.01,-260.43 1156.66,-254.45"/>
</a>
</g>
</g>
<!-- 26 -->
<g id="node14" class="node">
<title>26</title>
<g id="a_node14"><a xlink:title="resources.h">
<polygon fill="#ffffff" stroke="black" points="972.91,-324 872.91,-324 872.91,-288 972.91,-288 972.91,-324"/>
<text text-anchor="middle" x="922.91" y="-302.3" font-family="Times,serif" font-size="14.00">resources.h</text>
</a>
</g>
</g>
<!-- 1&#45;&gt;26 -->
<g id="edge3" class="edge">
<title>1&#45;&gt;26</title>
<g id="a_edge3"><a xlink:title="include">
<path fill="none" stroke="#1414ce" d="M1248.41,-719.88C1195.9,-653.26 1005.04,-411.18 942.74,-332.14"/>
<polygon fill="#1414ce" stroke="#1414ce" points="945.39,-329.86 936.45,-324.17 939.89,-334.19 945.39,-329.86"/>
</a>
</g>
</g>
<!-- 25 -->
<g id="node3" class="node">
<title>25</title>
<g id="a_node3"><a xlink:title="refc_binary.h">
<polygon fill="#ffffff" stroke="black" points="949.91,-396 841.91,-396 841.91,-360 949.91,-360 949.91,-396"/>
<text text-anchor="middle" x="895.91" y="-374.3" font-family="Times,serif" font-size="14.00">refc_binary.h</text>
</a>
</g>
</g>
<!-- 25&#45;&gt;8 -->
<g id="edge4" class="edge">
<title>25&#45;&gt;8</title>
<g id="a_edge4"><a xlink:title="include">
<path fill="none" stroke="#1414ce" d="M851.89,-359.89C774.31,-329.53 619.39,-267.95 597.91,-252 546.61,-213.9 502.91,-151.95 480.66,-117.05"/>
<polygon fill="#1414ce" stroke="#1414ce" points="483.5,-114.99 475.22,-108.37 477.57,-118.71 483.5,-114.99"/>
</a>
</g>
</g>
<!-- 18 -->
<g id="node8" class="node">
<title>18</title>
<g id="a_node8"><a xlink:title="list.h">
<polygon fill="#ffffff" stroke="black" points="436.91,-180 382.91,-180 382.91,-144 436.91,-144 436.91,-180"/>
<text text-anchor="middle" x="409.91" y="-158.3" font-family="Times,serif" font-size="14.00">list.h</text>
</a>
</g>
</g>
<!-- 25&#45;&gt;18 -->
<g id="edge6" class="edge">
<title>25&#45;&gt;18</title>
<g id="a_edge6"><a xlink:title="include">
<path fill="none" stroke="#1414ce" d="M841.76,-364.53C767.79,-346.21 632.33,-308.02 526.91,-252 493.19,-234.08 458.92,-206.7 436.26,-187.05"/>
<polygon fill="#1414ce" stroke="#1414ce" points="438.28,-184.16 428.46,-180.19 433.66,-189.42 438.28,-184.16"/>
</a>
</g>
</g>
<!-- 6 -->
<g id="node10" class="node">
<title>6</title>
<g id="a_node10"><a xlink:title="stdlib.h">
<polygon fill="#ffffff" stroke="black" points="972.41,-108 901.41,-108 901.41,-72 972.41,-72 972.41,-108"/>
<text text-anchor="middle" x="936.91" y="-86.3" font-family="Times,serif" font-size="14.00">stdlib.h</text>
</a>
</g>
</g>
<!-- 25&#45;&gt;6 -->
<g id="edge5" class="edge">
<title>25&#45;&gt;6</title>
<g id="a_edge5"><a xlink:title="include">
<path fill="none" stroke="#1414ce" d="M881.94,-359.95C868.87,-341.8 852.87,-312.38 863.91,-288 873.91,-265.91 892.8,-273.01 904.91,-252 929.33,-209.68 935.39,-151.83 936.74,-118.24"/>
<polygon fill="#1414ce" stroke="#1414ce" points="940.24,-118.33 937.02,-108.23 933.24,-118.13 940.24,-118.33"/>
</a>
</g>
</g>
<!-- 25&#45;&gt;26 -->
<g id="edge7" class="edge">
<title>25&#45;&gt;26</title>
<g id="a_edge7"><a xlink:title="include">
<path fill="none" stroke="#1414ce" d="M902.59,-359.7C905.63,-351.81 909.3,-342.3 912.67,-333.55"/>
<polygon fill="#1414ce" stroke="#1414ce" points="915.98,-334.69 916.32,-324.1 909.45,-332.17 915.98,-334.69"/>
</a>
</g>
</g>
<!-- 5 -->
<g id="node4" class="node">
<title>5</title>
<g id="a_node4"><a xlink:title="atom.h">
<polygon fill="#ffffff" stroke="black" points="1246.91,-180 1180.91,-180 1180.91,-144 1246.91,-144 1246.91,-180"/>
<text text-anchor="middle" x="1213.91" y="-158.3" font-family="Times,serif" font-size="14.00">atom.h</text>
</a>
</g>
</g>
<!-- 4 -->
<g id="node9" class="node">
<title>4</title>
<g id="a_node9"><a xlink:title="stdint.h">
<polygon fill="#ffffff" stroke="black" points="1036.91,-36 964.91,-36 964.91,0 1036.91,0 1036.91,-36"/>
<text text-anchor="middle" x="1000.91" y="-14.3" font-family="Times,serif" font-size="14.00">stdint.h</text>
</a>
</g>
</g>
<!-- 5&#45;&gt;4 -->
<g id="edge8" class="edge">
<title>5&#45;&gt;4</title>
<g id="a_edge8"><a xlink:title="include">
<path fill="none" stroke="#1414ce" d="M1209.16,-143.72C1202.79,-123.67 1189.56,-90.96 1166.91,-72 1132.92,-43.54 1083.45,-30.3 1047.37,-24.18"/>
<polygon fill="#1414ce" stroke="#1414ce" points="1047.52,-20.66 1037.1,-22.56 1046.43,-27.57 1047.52,-20.66"/>
</a>
</g>
</g>
<!-- 5&#45;&gt;6 -->
<g id="edge9" class="edge">
<title>5&#45;&gt;6</title>
<g id="a_edge9"><a xlink:title="include">
<path fill="none" stroke="#1414ce" d="M1180.78,-152.63C1131.43,-140.16 1038.48,-116.67 982.68,-102.57"/>
<polygon fill="#1414ce" stroke="#1414ce" points="983.27,-99.1 972.71,-100.05 981.55,-105.89 983.27,-99.1"/>
</a>
</g>
</g>
<!-- 14 -->
<g id="node5" class="node">
<title>14</title>
<g id="a_node5"><a xlink:title="assert.h">
<polygon fill="#ffffff" stroke="black" points="1418.91,-36 1344.91,-36 1344.91,0 1418.91,0 1418.91,-36"/>
<text text-anchor="middle" x="1381.91" y="-14.3" font-family="Times,serif" font-size="14.00">assert.h</text>
</a>
</g>
</g>
<!-- 9 -->
<g id="node6" class="node">
<title>9</title>
<g id="a_node6"><a xlink:title="utils.h">
<polygon fill="#ffffff" stroke="black" points="810.91,-180 748.91,-180 748.91,-144 810.91,-144 810.91,-180"/>
<text text-anchor="middle" x="779.91" y="-158.3" font-family="Times,serif" font-size="14.00">utils.h</text>
</a>
</g>
</g>
<!-- 9&#45;&gt;6 -->
<g id="edge12" class="edge">
<title>9&#45;&gt;6</title>
<g id="a_edge12"><a xlink:title="include">
<path fill="none" stroke="#1414ce" d="M810.93,-147.17C834.09,-136.84 866.09,-122.58 892.04,-111.01"/>
<polygon fill="#1414ce" stroke="#1414ce" points="893.59,-114.15 901.3,-106.88 890.74,-107.76 893.59,-114.15"/>
</a>
</g>
</g>
<!-- 10 -->
<g id="node16" class="node">
<title>10</title>
<g id="a_node16"><a xlink:title="stddef.h">
<polygon fill="#ffffff" stroke="black" points="372.91,-108 298.91,-108 298.91,-72 372.91,-72 372.91,-108"/>
<text text-anchor="middle" x="335.91" y="-86.3" font-family="Times,serif" font-size="14.00">stddef.h</text>
</a>
</g>
</g>
<!-- 9&#45;&gt;10 -->
<g id="edge10" class="edge">
<title>9&#45;&gt;10</title>
<g id="a_edge10"><a xlink:title="include">
<path fill="none" stroke="#1414ce" d="M748.46,-157.21C684.98,-149.39 537.11,-130.32 413.91,-108 403.89,-106.18 393.19,-104.01 383.03,-101.83"/>
<polygon fill="#1414ce" stroke="#1414ce" points="383.62,-98.38 373.1,-99.67 382.13,-105.22 383.62,-98.38"/>
</a>
</g>
</g>
<!-- 11 -->
<g id="node27" class="node">
<title>11</title>
<g id="a_node27"><a xlink:title="stdio.h">
<polygon fill="#ffffff" stroke="black" points="753.41,-108 688.41,-108 688.41,-72 753.41,-72 753.41,-108"/>
<text text-anchor="middle" x="720.91" y="-86.3" font-family="Times,serif" font-size="14.00">stdio.h</text>
</a>
</g>
</g>
<!-- 9&#45;&gt;11 -->
<g id="edge11" class="edge">
<title>9&#45;&gt;11</title>
<g id="a_edge11"><a xlink:title="include">
<path fill="none" stroke="#1414ce" d="M765.33,-143.7C758.26,-135.3 749.63,-125.07 741.87,-115.86"/>
<polygon fill="#1414ce" stroke="#1414ce" points="744.45,-113.49 735.33,-108.1 739.1,-118.01 744.45,-113.49"/>
</a>
</g>
</g>
<!-- 19 -->
<g id="node7" class="node">
<title>19</title>
<g id="a_node7"><a xlink:title="synclist.h">
<polygon fill="#ffffff" stroke="black" points="398.41,-252 313.41,-252 313.41,-216 398.41,-216 398.41,-252"/>
<text text-anchor="middle" x="355.91" y="-230.3" font-family="Times,serif" font-size="14.00">synclist.h</text>
</a>
</g>
</g>
<!-- 19&#45;&gt;18 -->
<g id="edge14" class="edge">
<title>19&#45;&gt;18</title>
<g id="a_edge14"><a xlink:title="include">
<path fill="none" stroke="#1414ce" d="M369.26,-215.7C375.67,-207.39 383.47,-197.28 390.52,-188.14"/>
<polygon fill="#1414ce" stroke="#1414ce" points="393.38,-190.16 396.72,-180.1 387.84,-185.88 393.38,-190.16"/>
</a>
</g>
</g>
<!-- 20 -->
<g id="node24" class="node">
<title>20</title>
<g id="a_node24"><a xlink:title="smp.h">
<polygon fill="#ffffff" stroke="black" points="364.91,-180 304.91,-180 304.91,-144 364.91,-144 364.91,-180"/>
<text text-anchor="middle" x="334.91" y="-158.3" font-family="Times,serif" font-size="14.00">smp.h</text>
</a>
</g>
</g>
<!-- 19&#45;&gt;20 -->
<g id="edge15" class="edge">
<title>19&#45;&gt;20</title>
<g id="a_edge15"><a xlink:title="include">
<path fill="none" stroke="#1414ce" d="M350.72,-215.7C348.38,-207.9 345.57,-198.51 342.96,-189.83"/>
<polygon fill="#1414ce" stroke="#1414ce" points="346.27,-188.68 340.04,-180.1 339.57,-190.69 346.27,-188.68"/>
</a>
</g>
</g>
<!-- 19&#45;&gt;11 -->
<g id="edge13" class="edge">
<title>19&#45;&gt;11</title>
<g id="a_edge13"><a xlink:title="include">
<path fill="none" stroke="#1414ce" d="M398.5,-216.43C468.9,-189.04 608.74,-134.64 678.82,-107.38"/>
<polygon fill="#1414ce" stroke="#1414ce" points="680.18,-110.6 688.23,-103.71 677.64,-104.08 680.18,-110.6"/>
</a>
</g>
</g>
<!-- 18&#45;&gt;8 -->
<g id="edge16" class="edge">
<title>18&#45;&gt;8</title>
<g id="a_edge16"><a xlink:title="include">
<path fill="none" stroke="#1414ce" d="M423.51,-143.7C430.04,-135.39 437.98,-125.28 445.16,-116.14"/>
<polygon fill="#1414ce" stroke="#1414ce" points="448.05,-118.13 451.47,-108.1 442.54,-113.81 448.05,-118.13"/>
</a>
</g>
</g>
<!-- 2&#45;&gt;18 -->
<g id="edge18" class="edge">
<title>2&#45;&gt;18</title>
<g id="a_edge18"><a xlink:title="include">
<path fill="none" stroke="#1414ce" d="M348.34,-660.98C275.6,-651.41 132.91,-620.24 132.91,-523 132.91,-523 132.91,-523 132.91,-449 132.91,-325.11 190.29,-294.77 285.91,-216 316.3,-190.97 332.88,-196.11 373.51,-179.9"/>
<polygon fill="#1414ce" stroke="#1414ce" points="375,-183.07 382.86,-175.96 372.28,-176.62 375,-183.07"/>
</a>
</g>
</g>
<!-- 21 -->
<g id="node15" class="node">
<title>21</title>
<g id="a_node15"><a xlink:title="term.h">
<polygon fill="#ffffff" stroke="black" points="887.41,-468 822.41,-468 822.41,-432 887.41,-432 887.41,-468"/>
<text text-anchor="middle" x="854.91" y="-446.3" font-family="Times,serif" font-size="14.00">term.h</text>
</a>
</g>
</g>
<!-- 2&#45;&gt;21 -->
<g id="edge21" class="edge">
<title>2&#45;&gt;21</title>
<g id="a_edge21"><a xlink:title="include">
<path fill="none" stroke="#1414ce" d="M431.67,-652.59C463.23,-642.76 507.39,-628.05 544.91,-612 646,-568.75 759.39,-506.01 816.95,-473.08"/>
<polygon fill="#1414ce" stroke="#1414ce" points="818.77,-476.07 825.7,-468.06 815.29,-470 818.77,-476.07"/>
</a>
</g>
</g>
<!-- 3 -->
<g id="node23" class="node">
<title>3</title>
<g id="a_node23"><a xlink:title="globalcontext.h">
<polygon fill="#ffffff" stroke="black" points="453.41,-612 326.41,-612 326.41,-576 453.41,-576 453.41,-612"/>
<text text-anchor="middle" x="389.91" y="-590.3" font-family="Times,serif" font-size="14.00">globalcontext.h</text>
</a>
</g>
</g>
<!-- 2&#45;&gt;3 -->
<g id="edge17" class="edge">
<title>2&#45;&gt;3</title>
<g id="a_edge17"><a xlink:title="include">
<path fill="none" stroke="#1414ce" d="M389.91,-647.7C389.91,-639.98 389.91,-630.71 389.91,-622.11"/>
<polygon fill="#1414ce" stroke="#1414ce" points="393.41,-622.1 389.91,-612.1 386.41,-622.1 393.41,-622.1"/>
</a>
</g>
</g>
<!-- 2&#45;&gt;20 -->
<g id="edge20" class="edge">
<title>2&#45;&gt;20</title>
<g id="a_edge20"><a xlink:title="include">
<path fill="none" stroke="#1414ce" d="M348.41,-665.63C259.15,-664.58 56.91,-648.38 56.91,-523 56.91,-523 56.91,-523 56.91,-449 56.91,-313.7 218.86,-218.33 295.55,-180.75"/>
<polygon fill="#1414ce" stroke="#1414ce" points="297.41,-183.74 304.9,-176.25 294.37,-177.43 297.41,-183.74"/>
</a>
</g>
</g>
<!-- 28 -->
<g id="node25" class="node">
<title>28</title>
<g id="a_node25"><a xlink:title="timer_list.h">
<polygon fill="#ffffff" stroke="black" points="142.91,-252 44.91,-252 44.91,-216 142.91,-216 142.91,-252"/>
<text text-anchor="middle" x="93.91" y="-230.3" font-family="Times,serif" font-size="14.00">timer_list.h</text>
</a>
</g>
</g>
<!-- 2&#45;&gt;28 -->
<g id="edge22" class="edge">
<title>2&#45;&gt;28</title>
<g id="a_edge22"><a xlink:title="include">
<path fill="none" stroke="#1414ce" d="M348.37,-664.17C266.27,-661.68 87.32,-651.7 42.91,-612 12.37,-584.7 18.91,-563.97 18.91,-523 18.91,-523 18.91,-523 18.91,-377 18.91,-331.77 49.03,-286.85 71.09,-260"/>
<polygon fill="#1414ce" stroke="#1414ce" points="73.85,-262.16 77.64,-252.27 68.51,-257.64 73.85,-262.16"/>
</a>
</g>
</g>
<!-- 27 -->
<g id="node26" class="node">
<title>27</title>
<g id="a_node26"><a xlink:title="mailbox.h">
<polygon fill="#ffffff" stroke="black" points="692.91,-252 606.91,-252 606.91,-216 692.91,-216 692.91,-252"/>
<text text-anchor="middle" x="649.91" y="-230.3" font-family="Times,serif" font-size="14.00">mailbox.h</text>
</a>
</g>
</g>
<!-- 2&#45;&gt;27 -->
<g id="edge19" class="edge">
<title>2&#45;&gt;27</title>
<g id="a_edge19"><a xlink:title="include">
<path fill="none" stroke="#1414ce" d="M421.36,-647.78C435.43,-638.72 451.22,-626.48 461.91,-612 532.39,-516.57 492.48,-463.8 549.91,-360 570.95,-321.98 603.58,-283.79 625.81,-259.8"/>
<polygon fill="#1414ce" stroke="#1414ce" points="628.62,-261.92 632.91,-252.24 623.52,-257.13 628.62,-261.92"/>
</a>
</g>
</g>
<!-- 24&#45;&gt;9 -->
<g id="edge27" class="edge">
<title>24&#45;&gt;9</title>
<g id="a_edge27"><a xlink:title="include">
<path fill="none" stroke="#1414ce" d="M1071.8,-223.99C1006.85,-210.42 884.74,-184.9 821,-171.59"/>
<polygon fill="#1414ce" stroke="#1414ce" points="821.42,-168.1 810.92,-169.48 819.99,-174.95 821.42,-168.1"/>
</a>
</g>
</g>
<!-- 24&#45;&gt;4 -->
<g id="edge23" class="edge">
<title>24&#45;&gt;4</title>
<g id="a_edge23"><a xlink:title="include">
<path fill="none" stroke="#1414ce" d="M1109.78,-215.8C1104.04,-197.53 1093.96,-168.01 1081.91,-144 1063.74,-107.77 1037.45,-69.04 1019.8,-44.46"/>
<polygon fill="#1414ce" stroke="#1414ce" points="1022.42,-42.12 1013.72,-36.07 1016.76,-46.22 1022.42,-42.12"/>
</a>
</g>
</g>
<!-- 24&#45;&gt;6 -->
<g id="edge24" class="edge">
<title>24&#45;&gt;6</title>
<g id="a_edge24"><a xlink:title="include">
<path fill="none" stroke="#1414ce" d="M1106.58,-215.87C1096.31,-196.26 1077.2,-164.27 1052.91,-144 1032.24,-126.75 1005.02,-113.92 982.15,-105.22"/>
<polygon fill="#1414ce" stroke="#1414ce" points="983.24,-101.89 972.65,-101.74 980.84,-108.46 983.24,-101.89"/>
</a>
</g>
</g>
<!-- 12 -->
<g id="node17" class="node">
<title>12</title>
<g id="a_node17"><a xlink:title="erl_nif.h">
<polygon fill="#ffffff" stroke="black" points="1376.91,-180 1302.91,-180 1302.91,-144 1376.91,-144 1376.91,-180"/>
<text text-anchor="middle" x="1339.91" y="-158.3" font-family="Times,serif" font-size="14.00">erl_nif.h</text>
</a>
</g>
</g>
<!-- 24&#45;&gt;12 -->
<g id="edge25" class="edge">
<title>24&#45;&gt;12</title>
<g id="a_edge25"><a xlink:title="include">
<path fill="none" stroke="#1414ce" d="M1157.91,-220.24C1193.19,-209.7 1244.39,-194.2 1288.91,-180 1290.33,-179.55 1291.77,-179.09 1293.22,-178.62"/>
<polygon fill="#1414ce" stroke="#1414ce" points="1294.48,-181.89 1302.9,-175.46 1292.31,-175.23 1294.48,-181.89"/>
</a>
</g>
</g>
<!-- 13 -->
<g id="node22" class="node">
<title>13</title>
<g id="a_node22"><a xlink:title="term_typedef.h">
<polygon fill="#ffffff" stroke="black" points="1344.41,-108 1219.41,-108 1219.41,-72 1344.41,-72 1344.41,-108"/>
<text text-anchor="middle" x="1281.91" y="-86.3" font-family="Times,serif" font-size="14.00">term_typedef.h</text>
</a>
</g>
</g>
<!-- 24&#45;&gt;13 -->
<g id="edge26" class="edge">
<title>24&#45;&gt;13</title>
<g id="a_edge26"><a xlink:title="include">
<path fill="none" stroke="#1414ce" d="M1158.21,-227.16C1189.47,-220.74 1230.48,-207.42 1255.91,-180 1271.43,-163.27 1277.73,-137.78 1280.27,-118.36"/>
<polygon fill="#1414ce" stroke="#1414ce" points="1283.76,-118.6 1281.33,-108.29 1276.8,-117.87 1283.76,-118.6"/>
</a>
</g>
</g>
<!-- 29 -->
<g id="node13" class="node">
<title>29</title>
<g id="a_node13"><a xlink:title="valueshashtable.h">
<polygon fill="#ffffff" stroke="black" points="210.91,-180 64.91,-180 64.91,-144 210.91,-144 210.91,-180"/>
<text text-anchor="middle" x="137.91" y="-158.3" font-family="Times,serif" font-size="14.00">valueshashtable.h</text>
</a>
</g>
</g>
<!-- 29&#45;&gt;4 -->
<g id="edge29" class="edge">
<title>29&#45;&gt;4</title>
<g id="a_edge29"><a xlink:title="include">
<path fill="none" stroke="#1414ce" d="M148.72,-143.94C163.17,-122.8 190.97,-87.67 224.91,-72 291.06,-41.47 797.07,-24.75 954.39,-20.25"/>
<polygon fill="#1414ce" stroke="#1414ce" points="954.78,-23.74 964.67,-19.96 954.58,-16.75 954.78,-23.74"/>
</a>
</g>
</g>
<!-- 29&#45;&gt;10 -->
<g id="edge28" class="edge">
<title>29&#45;&gt;10</title>
<g id="a_edge28"><a xlink:title="include">
<path fill="none" stroke="#1414ce" d="M186.1,-143.97C217.39,-132.9 257.99,-118.55 289.02,-107.58"/>
<polygon fill="#1414ce" stroke="#1414ce" points="290.48,-110.78 298.74,-104.14 288.15,-104.18 290.48,-110.78"/>
</a>
</g>
</g>
<!-- 26&#45;&gt;19 -->
<g id="edge35" class="edge">
<title>26&#45;&gt;19</title>
<g id="a_edge35"><a xlink:title="include">
<path fill="none" stroke="#1414ce" d="M872.6,-298.79C765.87,-285.61 517.66,-254.97 408.75,-241.52"/>
<polygon fill="#1414ce" stroke="#1414ce" points="409.01,-238.03 398.65,-240.28 408.15,-244.98 409.01,-238.03"/>
</a>
</g>
</g>
<!-- 26&#45;&gt;18 -->
<g id="edge32" class="edge">
<title>26&#45;&gt;18</title>
<g id="a_edge32"><a xlink:title="include">
<path fill="none" stroke="#1414ce" d="M872.64,-301.2C807.9,-295.31 692.48,-281.45 597.91,-252 582.45,-247.18 496.3,-205.39 446.15,-180.83"/>
<polygon fill="#1414ce" stroke="#1414ce" points="447.45,-177.57 436.93,-176.31 444.37,-183.85 447.45,-177.57"/>
</a>
</g>
</g>
<!-- 26&#45;&gt;6 -->
<g id="edge30" class="edge">
<title>26&#45;&gt;6</title>
<g id="a_edge30"><a xlink:title="include">
<path fill="none" stroke="#1414ce" d="M929.57,-287.63C933.12,-277.42 937.12,-264.17 938.91,-252 945.81,-205.29 942.74,-150.13 939.85,-118.01"/>
<polygon fill="#1414ce" stroke="#1414ce" points="943.33,-117.66 938.89,-108.04 936.36,-118.33 943.33,-117.66"/>
</a>
</g>
</g>
<!-- 26&#45;&gt;24 -->
<g id="edge34" class="edge">
<title>26&#45;&gt;24</title>
<g id="a_edge34"><a xlink:title="include">
<path fill="none" stroke="#1414ce" d="M969.88,-287.88C997.81,-277.69 1033.31,-264.75 1062.19,-254.22"/>
<polygon fill="#1414ce" stroke="#1414ce" points="1063.52,-257.46 1071.71,-250.75 1061.12,-250.89 1063.52,-257.46"/>
</a>
</g>
</g>
<!-- 26&#45;&gt;12 -->
<g id="edge31" class="edge">
<title>26&#45;&gt;12</title>
<g id="a_edge31"><a xlink:title="include">
<path fill="none" stroke="#1414ce" d="M973.05,-298.04C1023.13,-290.18 1101.83,-275.35 1166.91,-252 1216.23,-234.3 1269.31,-205.37 1303.48,-185.32"/>
<polygon fill="#1414ce" stroke="#1414ce" points="1305.35,-188.28 1312.17,-180.17 1301.78,-182.26 1305.35,-188.28"/>
</a>
</g>
</g>
<!-- 26&#45;&gt;27 -->
<g id="edge33" class="edge">
<title>26&#45;&gt;27</title>
<g id="a_edge33"><a xlink:title="include">
<path fill="none" stroke="#1414ce" d="M872.84,-292.16C824.6,-279.79 751.89,-261.15 702.74,-248.54"/>
<polygon fill="#1414ce" stroke="#1414ce" points="703.49,-245.12 692.93,-246.03 701.75,-251.9 703.49,-245.12"/>
</a>
</g>
</g>
<!-- 21&#45;&gt;8 -->
<g id="edge37" class="edge">
<title>21&#45;&gt;8</title>
<g id="a_edge37"><a xlink:title="include">
<path fill="none" stroke="#1414ce" d="M822.18,-447.62C751.87,-444 589.56,-431.88 549.91,-396 468.57,-322.39 462.4,-178.18 463.63,-118.19"/>
<polygon fill="#1414ce" stroke="#1414ce" points="467.13,-118.1 463.93,-108 460.13,-117.9 467.13,-118.1"/>
</a>
</g>
</g>
<!-- 21&#45;&gt;25 -->
<g id="edge44" class="edge">
<title>21&#45;&gt;25</title>
<g id="a_edge44"><a xlink:title="include">
<path fill="none" stroke="#1414ce" d="M865.05,-431.7C869.76,-423.64 875.48,-413.89 880.7,-404.98"/>
<polygon fill="#1414ce" stroke="#1414ce" points="883.86,-406.5 885.9,-396.1 877.82,-402.96 883.86,-406.5"/>
</a>
</g>
</g>
<!-- 21&#45;&gt;5 -->
<g id="edge42" class="edge">
<title>21&#45;&gt;5</title>
<g id="a_edge42"><a xlink:title="include">
<path fill="none" stroke="#1414ce" d="M887.49,-448.56C933.38,-446.42 1017.81,-436.71 1074.91,-396 1148.5,-343.54 1189.86,-238.85 1205.97,-189.68"/>
<polygon fill="#1414ce" stroke="#1414ce" points="1209.33,-190.65 1209.02,-180.06 1202.66,-188.53 1209.33,-190.65"/>
</a>
</g>
</g>
<!-- 21&#45;&gt;9 -->
<g id="edge45" class="edge">
<title>21&#45;&gt;9</title>
<g id="a_edge45"><a xlink:title="include">
<path fill="none" stroke="#1414ce" d="M845.55,-431.74C828.01,-398.27 790.77,-321.7 777.91,-252 774.15,-231.61 774.88,-208.15 776.43,-190.44"/>
<polygon fill="#1414ce" stroke="#1414ce" points="779.94,-190.53 777.47,-180.23 772.97,-189.82 779.94,-190.53"/>
</a>
</g>
</g>
<!-- 21&#45;&gt;4 -->
<g id="edge38" class="edge">
<title>21&#45;&gt;4</title>
<g id="a_edge38"><a xlink:title="include">
<path fill="none" stroke="#1414ce" d="M887.51,-433.94C916.06,-420.5 953.78,-402.04 958.91,-396 1006.8,-339.65 1000.91,-308.95 1000.91,-235 1000.91,-235 1000.91,-235 1000.91,-161 1000.91,-121 1000.91,-74.65 1000.91,-46.08"/>
<polygon fill="#1414ce" stroke="#1414ce" points="1004.41,-46.05 1000.91,-36.05 997.41,-46.05 1004.41,-46.05"/>
</a>
</g>
</g>
<!-- 21&#45;&gt;6 -->
<g id="edge40" class="edge">
<title>21&#45;&gt;6</title>
<g id="a_edge40"><a xlink:title="include">
<path fill="none" stroke="#1414ce" d="M887.59,-447.89C923.83,-444.74 980.97,-433.66 1009.91,-396 1076.06,-309.95 994.93,-172.98 955.78,-116.57"/>
<polygon fill="#1414ce" stroke="#1414ce" points="958.52,-114.37 949.89,-108.22 952.8,-118.41 958.52,-114.37"/>
</a>
</g>
</g>
<!-- 21&#45;&gt;24 -->
<g id="edge43" class="edge">
<title>21&#45;&gt;24</title>
<g id="a_edge43"><a xlink:title="include">
<path fill="none" stroke="#1414ce" d="M887.67,-448.47C929.69,-446.09 1002.55,-435.97 1047.91,-396 1087.75,-360.9 1104.45,-298.34 1111.02,-262.41"/>
<polygon fill="#1414ce" stroke="#1414ce" points="1114.53,-262.62 1112.74,-252.18 1107.63,-261.46 1114.53,-262.62"/>
</a>
</g>
</g>
<!-- 22 -->
<g id="node20" class="node">
<title>22</title>
<g id="a_node20"><a xlink:title="sys/types.h">
<polygon fill="#ffffff" stroke="black" points="656.41,-396 559.41,-396 559.41,-360 656.41,-360 656.41,-396"/>
<text text-anchor="middle" x="607.91" y="-374.3" font-family="Times,serif" font-size="14.00">sys/types.h</text>
</a>
</g>
</g>
<!-- 21&#45;&gt;22 -->
<g id="edge36" class="edge">
<title>21&#45;&gt;22</title>
<g id="a_edge36"><a xlink:title="include">
<path fill="none" stroke="#1414ce" d="M822.25,-440.08C786.28,-430.21 726.49,-413.69 666.36,-396.4"/>
<polygon fill="#1414ce" stroke="#1414ce" points="667.29,-393.02 656.71,-393.62 665.35,-399.75 667.29,-393.02"/>
</a>
</g>
</g>
<!-- 23 -->
<g id="node21" class="node">
<title>23</title>
<g id="a_node21"><a xlink:title="string.h">
<polygon fill="#ffffff" stroke="black" points="747.41,-396 674.41,-396 674.41,-360 747.41,-360 747.41,-396"/>
<text text-anchor="middle" x="710.91" y="-374.3" font-family="Times,serif" font-size="14.00">string.h</text>
</a>
</g>
</g>
<!-- 21&#45;&gt;23 -->
<g id="edge41" class="edge">
<title>21&#45;&gt;23</title>
<g id="a_edge41"><a xlink:title="include">
<path fill="none" stroke="#1414ce" d="M822.24,-433.12C802.34,-423.44 776.67,-410.97 754.99,-400.43"/>
<polygon fill="#1414ce" stroke="#1414ce" points="756.5,-397.27 745.98,-396.04 753.44,-403.56 756.5,-397.27"/>
</a>
</g>
</g>
<!-- 21&#45;&gt;13 -->
<g id="edge46" class="edge">
<title>21&#45;&gt;13</title>
<g id="a_edge46"><a xlink:title="include">
<path fill="none" stroke="#1414ce" d="M887.53,-446.88C937.19,-442.62 1033.79,-430.31 1107.91,-396 1249.91,-330.27 1317.13,-320.54 1385.91,-180 1392.95,-165.63 1394.27,-157.64 1385.91,-144 1377.66,-130.53 1364.8,-120.36 1350.89,-112.71"/>
<polygon fill="#1414ce" stroke="#1414ce" points="1352.15,-109.42 1341.64,-108.04 1348.99,-115.67 1352.15,-109.42"/>
</a>
</g>
</g>
<!-- 21&#45;&gt;11 -->
<g id="edge39" class="edge">
<title>21&#45;&gt;11</title>
<g id="a_edge39"><a xlink:title="include">
<path fill="none" stroke="#1414ce" d="M836.93,-431.65C827.59,-421.87 816.56,-409.03 808.91,-396 754.26,-302.87 731.72,-173.63 724.15,-118.11"/>
<polygon fill="#1414ce" stroke="#1414ce" points="727.6,-117.48 722.83,-108.02 720.65,-118.39 727.6,-117.48"/>
</a>
</g>
</g>
<!-- 12&#45;&gt;13 -->
<g id="edge47" class="edge">
<title>12&#45;&gt;13</title>
<g id="a_edge47"><a xlink:title="include">
<path fill="none" stroke="#1414ce" d="M1325.58,-143.7C1318.62,-135.3 1310.14,-125.07 1302.51,-115.86"/>
<polygon fill="#1414ce" stroke="#1414ce" points="1305.16,-113.57 1296.09,-108.1 1299.77,-118.04 1305.16,-113.57"/>
</a>
</g>
</g>
<!-- 15 -->
<g id="node18" class="node">
<title>15</title>
<g id="a_node18"><a xlink:title="limits.h">
<polygon fill="#ffffff" stroke="black" points="1219.41,-36 1148.41,-36 1148.41,0 1219.41,0 1219.41,-36"/>
<text text-anchor="middle" x="1183.91" y="-14.3" font-family="Times,serif" font-size="14.00">limits.h</text>
</a>
</g>
</g>
<!-- 7 -->
<g id="node19" class="node">
<title>7</title>
<g id="a_node19"><a xlink:title="atom_table.h">
<polygon fill="#ffffff" stroke="black" points="896.41,-252 787.41,-252 787.41,-216 896.41,-216 896.41,-252"/>
<text text-anchor="middle" x="841.91" y="-230.3" font-family="Times,serif" font-size="14.00">atom_table.h</text>
</a>
</g>
</g>
<!-- 7&#45;&gt;8 -->
<g id="edge48" class="edge">
<title>7&#45;&gt;8</title>
<g id="a_edge48"><a xlink:title="include">
<path fill="none" stroke="#1414ce" d="M842.91,-215.78C843.06,-195.48 839.93,-162.21 819.91,-144 797.81,-123.89 609.54,-104.16 516.51,-95.53"/>
<polygon fill="#1414ce" stroke="#1414ce" points="516.74,-92.04 506.46,-94.61 516.1,-99.01 516.74,-92.04"/>
</a>
</g>
</g>
<!-- 7&#45;&gt;5 -->
<g id="edge49" class="edge">
<title>7&#45;&gt;5</title>
<g id="a_edge49"><a xlink:title="include">
<path fill="none" stroke="#1414ce" d="M896.8,-222.67C971.2,-208.67 1102.53,-183.96 1170.48,-171.17"/>
<polygon fill="#1414ce" stroke="#1414ce" points="1171.24,-174.59 1180.42,-169.3 1169.95,-167.71 1171.24,-174.59"/>
</a>
</g>
</g>
<!-- 7&#45;&gt;9 -->
<g id="edge50" class="edge">
<title>7&#45;&gt;9</title>
<g id="a_edge50"><a xlink:title="include">
<path fill="none" stroke="#1414ce" d="M826.59,-215.7C819.15,-207.3 810.09,-197.07 801.93,-187.86"/>
<polygon fill="#1414ce" stroke="#1414ce" points="804.31,-185.27 795.06,-180.1 799.07,-189.91 804.31,-185.27"/>
</a>
</g>
</g>
<!-- 13&#45;&gt;14 -->
<g id="edge51" class="edge">
<title>13&#45;&gt;14</title>
<g id="a_edge51"><a xlink:title="include">
<path fill="none" stroke="#1414ce" d="M1306.38,-71.88C1319.21,-62.89 1335.11,-51.76 1349.01,-42.03"/>
<polygon fill="#1414ce" stroke="#1414ce" points="1351.17,-44.79 1357.36,-36.19 1347.16,-39.06 1351.17,-44.79"/>
</a>
</g>
</g>
<!-- 13&#45;&gt;4 -->
<g id="edge54" class="edge">
<title>13&#45;&gt;4</title>
<g id="a_edge54"><a xlink:title="include">
<path fill="none" stroke="#1414ce" d="M1219.2,-73.38C1167.06,-60.39 1094.05,-42.2 1047.11,-30.51"/>
<polygon fill="#1414ce" stroke="#1414ce" points="1047.77,-27.07 1037.22,-28.05 1046.08,-33.86 1047.77,-27.07"/>
</a>
</g>
</g>
<!-- 13&#45;&gt;15 -->
<g id="edge52" class="edge">
<title>13&#45;&gt;15</title>
<g id="a_edge52"><a xlink:title="include">
<path fill="none" stroke="#1414ce" d="M1257.94,-71.88C1245.36,-62.89 1229.78,-51.76 1216.16,-42.03"/>
<polygon fill="#1414ce" stroke="#1414ce" points="1218.15,-39.15 1207.98,-36.19 1214.08,-44.85 1218.15,-39.15"/>
</a>
</g>
</g>
<!-- 16 -->
<g id="node29" class="node">
<title>16</title>
<g id="a_node29"><a xlink:title="inttypes.h">
<polygon fill="#ffffff" stroke="black" points="1326.41,-36 1237.41,-36 1237.41,0 1326.41,0 1326.41,-36"/>
<text text-anchor="middle" x="1281.91" y="-14.3" font-family="Times,serif" font-size="14.00">inttypes.h</text>
</a>
</g>
</g>
<!-- 13&#45;&gt;16 -->
<g id="edge53" class="edge">
<title>13&#45;&gt;16</title>
<g id="a_edge53"><a xlink:title="include">
<path fill="none" stroke="#1414ce" d="M1281.91,-71.7C1281.91,-63.98 1281.91,-54.71 1281.91,-46.11"/>
<polygon fill="#1414ce" stroke="#1414ce" points="1285.41,-46.1 1281.91,-36.1 1278.41,-46.1 1285.41,-46.1"/>
</a>
</g>
</g>
<!-- 3&#45;&gt;5 -->
<g id="edge56" class="edge">
<title>3&#45;&gt;5</title>
<g id="a_edge56"><a xlink:title="include">
<path fill="none" stroke="#1414ce" d="M453.44,-591.58C534.8,-588.22 679.34,-577.04 796.91,-540 978.53,-482.79 1038.59,-464.68 1166.91,-324 1201.06,-286.57 1210.5,-225.64 1213.05,-190.45"/>
<polygon fill="#1414ce" stroke="#1414ce" points="1216.54,-190.6 1213.63,-180.41 1209.55,-190.19 1216.54,-190.6"/>
</a>
</g>
</g>
<!-- 3&#45;&gt;19 -->
<g id="edge63" class="edge">
<title>3&#45;&gt;19</title>
<g id="a_edge63"><a xlink:title="include">
<path fill="none" stroke="#1414ce" d="M359.14,-575.91C346.37,-567.02 332.91,-554.88 325.91,-540 281.47,-445.49 322.82,-316.61 344.52,-261.62"/>
<polygon fill="#1414ce" stroke="#1414ce" points="347.81,-262.82 348.32,-252.24 341.32,-260.19 347.81,-262.82"/>
</a>
</g>
</g>
<!-- 3&#45;&gt;18 -->
<g id="edge60" class="edge">
<title>3&#45;&gt;18</title>
<g id="a_edge60"><a xlink:title="include">
<path fill="none" stroke="#1414ce" d="M395.38,-575.71C403.27,-549.18 416.91,-496.67 416.91,-451 416.91,-451 416.91,-451 416.91,-377 416.91,-309.92 413.44,-231.08 411.38,-190.38"/>
<polygon fill="#1414ce" stroke="#1414ce" points="414.87,-190 410.86,-180.19 407.88,-190.36 414.87,-190"/>
</a>
</g>
</g>
<!-- 3&#45;&gt;4 -->
<g id="edge55" class="edge">
<title>3&#45;&gt;4</title>
<g id="a_edge55"><a xlink:title="include">
<path fill="none" stroke="#1414ce" d="M326.18,-591.34C278.33,-587.1 213.47,-574.69 167.91,-540 22.39,-429.19 -62.01,-283.82 55.91,-144 96.01,-96.45 116.54,-90.52 175.91,-72 322.76,-26.21 802.11,-19.94 954.18,-19.12"/>
<polygon fill="#1414ce" stroke="#1414ce" points="954.57,-22.61 964.55,-19.07 954.54,-15.61 954.57,-22.61"/>
</a>
</g>
</g>
<!-- 3&#45;&gt;29 -->
<g id="edge66" class="edge">
<title>3&#45;&gt;29</title>
<g id="a_edge66"><a xlink:title="include">
<path fill="none" stroke="#1414ce" d="M326.27,-587.13C287.93,-580.77 240.08,-567.54 205.91,-540 135.16,-482.96 155.97,-437.74 108.91,-360 78.91,-310.44 52.88,-307.4 35.91,-252 31.23,-236.7 27.61,-229.68 35.91,-216 44.07,-202.57 56.86,-192.38 70.66,-184.72"/>
<polygon fill="#1414ce" stroke="#1414ce" points="72.52,-187.7 79.84,-180.04 69.34,-181.47 72.52,-187.7"/>
</a>
</g>
</g>
<!-- 3&#45;&gt;21 -->
<g id="edge64" class="edge">
<title>3&#45;&gt;21</title>
<g id="a_edge64"><a xlink:title="include">
<path fill="none" stroke="#1414ce" d="M446,-575.87C540.24,-547.09 728.29,-489.67 812.46,-463.96"/>
<polygon fill="#1414ce" stroke="#1414ce" points="813.66,-467.26 822.2,-460.99 811.61,-460.56 813.66,-467.26"/>
</a>
</g>
</g>
<!-- 3&#45;&gt;12 -->
<g id="edge58" class="edge">
<title>3&#45;&gt;12</title>
<g id="a_edge58"><a xlink:title="include">
<path fill="none" stroke="#1414ce" d="M453.73,-591.73C546.08,-588.59 721.72,-577.71 865.91,-540 945.3,-519.24 965.33,-509.83 1035.91,-468 1165.3,-391.32 1279.06,-246.81 1321.86,-188.43"/>
<polygon fill="#1414ce" stroke="#1414ce" points="1324.83,-190.28 1327.88,-180.14 1319.17,-186.17 1324.83,-190.28"/>
</a>
</g>
</g>
<!-- 3&#45;&gt;7 -->
<g id="edge57" class="edge">
<title>3&#45;&gt;7</title>
<g id="a_edge57"><a xlink:title="include">
<path fill="none" stroke="#1414ce" d="M453.62,-589.97C554.7,-582.52 754.79,-556.78 895.91,-468 970.96,-420.79 1032.3,-360.95 981.91,-288 964.8,-263.23 934.51,-250.02 906.47,-242.99"/>
<polygon fill="#1414ce" stroke="#1414ce" points="907.2,-239.56 896.67,-240.75 905.64,-246.39 907.2,-239.56"/>
</a>
</g>
</g>
<!-- 3&#45;&gt;20 -->
<g id="edge62" class="edge">
<title>3&#45;&gt;20</title>
<g id="a_edge62"><a xlink:title="include">
<path fill="none" stroke="#1414ce" d="M351.21,-575.98C336,-567.36 319.83,-555.41 309.91,-540 257.41,-458.46 284.28,-420.84 278.91,-324 276.25,-275.97 266.23,-259.89 285.91,-216 290.66,-205.41 298.39,-195.54 306.32,-187.26"/>
<polygon fill="#1414ce" stroke="#1414ce" points="308.9,-189.63 313.58,-180.13 304,-184.64 308.9,-189.63"/>
</a>
</g>
</g>
<!-- 3&#45;&gt;28 -->
<g id="edge65" class="edge">
<title>3&#45;&gt;28</title>
<g id="a_edge65"><a xlink:title="include">
<path fill="none" stroke="#1414ce" d="M326.41,-585.86C294.3,-579.06 257.11,-565.82 232.91,-540 176.3,-479.58 220.55,-434.73 184.91,-360 166.85,-322.12 136.92,-283.89 116.34,-259.87"/>
<polygon fill="#1414ce" stroke="#1414ce" points="118.95,-257.54 109.75,-252.28 113.67,-262.13 118.95,-257.54"/>
</a>
</g>
</g>
<!-- 3&#45;&gt;27 -->
<g id="edge61" class="edge">
<title>3&#45;&gt;27</title>
<g id="a_edge61"><a xlink:title="include">
<path fill="none" stroke="#1414ce" d="M406.27,-575.57C414.7,-565.77 424.52,-552.93 430.91,-540 483.4,-433.93 428.9,-367.11 516.91,-288 539.37,-267.81 570.46,-254.85 596.94,-246.8"/>
<polygon fill="#1414ce" stroke="#1414ce" points="598.19,-250.08 606.83,-243.95 596.25,-243.36 598.19,-250.08"/>
</a>
</g>
</g>
<!-- 17 -->
<g id="node28" class="node">
<title>17</title>
<g id="a_node28"><a xlink:title="ets.h">
<polygon fill="#ffffff" stroke="black" points="388.91,-540 334.91,-540 334.91,-504 388.91,-504 388.91,-540"/>
<text text-anchor="middle" x="361.91" y="-518.3" font-family="Times,serif" font-size="14.00">ets.h</text>
</a>
</g>
</g>
<!-- 3&#45;&gt;17 -->
<g id="edge59" class="edge">
<title>3&#45;&gt;17</title>
<g id="a_edge59"><a xlink:title="include">
<path fill="none" stroke="#1414ce" d="M382.99,-575.7C379.84,-567.81 376.04,-558.3 372.53,-549.55"/>
<polygon fill="#1414ce" stroke="#1414ce" points="375.72,-548.09 368.76,-540.1 369.22,-550.69 375.72,-548.09"/>
</a>
</g>
</g>
<!-- 20&#45;&gt;8 -->
<g id="edge67" class="edge">
<title>20&#45;&gt;8</title>
<g id="a_edge67"><a xlink:title="include">
<path fill="none" stroke="#1414ce" d="M365.06,-144.76C382.68,-135.28 405.14,-123.19 424.29,-112.87"/>
<polygon fill="#1414ce" stroke="#1414ce" points="425.97,-115.95 433.11,-108.12 422.65,-109.78 425.97,-115.95"/>
</a>
</g>
</g>
<!-- 28&#45;&gt;8 -->
<g id="edge68" class="edge">
<title>28&#45;&gt;8</title>
<g id="a_edge68"><a xlink:title="include">
<path fill="none" stroke="#1414ce" d="M142.93,-218.86C182.2,-207.12 233.8,-190.68 252.91,-180 274.67,-167.85 274.05,-155.96 295.91,-144 332.87,-123.79 378.66,-110.03 413.25,-101.61"/>
<polygon fill="#1414ce" stroke="#1414ce" points="414.22,-104.98 423.15,-99.27 412.61,-98.17 414.22,-104.98"/>
</a>
</g>
</g>
<!-- 28&#45;&gt;18 -->
<g id="edge70" class="edge">
<title>28&#45;&gt;18</title>
<g id="a_edge70"><a xlink:title="include">
<path fill="none" stroke="#1414ce" d="M143.16,-227.53C197.73,-220.62 288.19,-206.65 372.92,-179.89"/>
<polygon fill="#1414ce" stroke="#1414ce" points="374.25,-183.13 382.69,-176.73 372.1,-176.47 374.25,-183.13"/>
</a>
</g>
</g>
<!-- 28&#45;&gt;4 -->
<g id="edge69" class="edge">
<title>28&#45;&gt;4</title>
<g id="a_edge69"><a xlink:title="include">
<path fill="none" stroke="#1414ce" d="M143.09,-219.91C168.06,-211.49 197.71,-198.58 219.91,-180 263.78,-143.28 240.71,-101.17 289.91,-72 346.91,-38.22 805.92,-23.87 954.61,-20.08"/>
<polygon fill="#1414ce" stroke="#1414ce" points="954.86,-23.57 964.77,-19.82 954.69,-16.58 954.86,-23.57"/>
</a>
</g>
</g>
<!-- 27&#45;&gt;8 -->
<g id="edge71" class="edge">
<title>27&#45;&gt;8</title>
<g id="a_edge71"><a xlink:title="include">
<path fill="none" stroke="#1414ce" d="M633.75,-215.73C615.6,-196.86 584.77,-166.34 554.91,-144 539.99,-132.83 522.53,-122.08 506.99,-113.22"/>
<polygon fill="#1414ce" stroke="#1414ce" points="508.52,-110.07 498.09,-108.23 505.1,-116.17 508.52,-110.07"/>
</a>
</g>
</g>
<!-- 27&#45;&gt;9 -->
<g id="edge74" class="edge">
<title>27&#45;&gt;9</title>
<g id="a_edge74"><a xlink:title="include">
<path fill="none" stroke="#1414ce" d="M681.71,-215.88C699.29,-206.41 721.28,-194.57 740,-184.49"/>
<polygon fill="#1414ce" stroke="#1414ce" points="741.74,-187.53 748.89,-179.71 738.42,-181.36 741.74,-187.53"/>
</a>
</g>
</g>
<!-- 27&#45;&gt;18 -->
<g id="edge72" class="edge">
<title>27&#45;&gt;18</title>
<g id="a_edge72"><a xlink:title="include">
<path fill="none" stroke="#1414ce" d="M606.66,-220.06C602.02,-218.69 597.37,-217.31 592.91,-216 542.44,-201.16 484.05,-184.31 447.06,-173.66"/>
<polygon fill="#1414ce" stroke="#1414ce" points="447.79,-170.23 437.22,-170.83 445.86,-176.96 447.79,-170.23"/>
</a>
</g>
</g>
<!-- 27&#45;&gt;13 -->
<g id="edge73" class="edge">
<title>27&#45;&gt;13</title>
<g id="a_edge73"><a xlink:title="include">
<path fill="none" stroke="#1414ce" d="M693.35,-223.24C800.17,-199.24 1076.55,-137.14 1209.02,-107.38"/>
<polygon fill="#1414ce" stroke="#1414ce" points="1210.08,-110.73 1219.07,-105.12 1208.55,-103.9 1210.08,-110.73"/>
</a>
</g>
</g>
<!-- 17&#45;&gt;19 -->
<g id="edge76" class="edge">
<title>17&#45;&gt;19</title>
<g id="a_edge76"><a xlink:title="include">
<path fill="none" stroke="#1414ce" d="M361.56,-503.97C360.56,-456.29 357.72,-321.18 356.49,-262.63"/>
<polygon fill="#1414ce" stroke="#1414ce" points="359.99,-262.23 356.28,-252.31 352.99,-262.38 359.99,-262.23"/>
</a>
</g>
</g>
<!-- 17&#45;&gt;18 -->
<g id="edge75" class="edge">
<title>17&#45;&gt;18</title>
<g id="a_edge75"><a xlink:title="include">
<path fill="none" stroke="#1414ce" d="M350.99,-503.97C321.19,-455.16 244.55,-312.06 303.91,-216 304.96,-214.31 343.36,-195.35 373.64,-180.59"/>
<polygon fill="#1414ce" stroke="#1414ce" points="375.27,-183.69 382.73,-176.16 372.2,-177.39 375.27,-183.69"/>
</a>
</g>
</g>
<!-- 17&#45;&gt;21 -->
<g id="edge77" class="edge">
<title>17&#45;&gt;21</title>
<g id="a_edge77"><a xlink:title="include">
<path fill="none" stroke="#1414ce" d="M389.33,-516.98C413.04,-513.52 448.23,-508.39 478.91,-504 599.64,-486.72 742.24,-466.74 812.05,-456.98"/>
<polygon fill="#1414ce" stroke="#1414ce" points="812.8,-460.41 822.22,-455.56 811.83,-453.48 812.8,-460.41"/>
</a>
</g>
</g>
</g>
</svg>
