<?xml version="1.0" encoding="UTF-8" standalone="no"?>
<!DOCTYPE svg PUBLIC "-//W3C//DTD SVG 1.1//EN"
 "http://www.w3.org/Graphics/SVG/1.1/DTD/svg11.dtd">
<!-- Generated by graphviz version 2.43.0 (0)
 -->
<!-- Title: %3 Pages: 1 -->
<svg width="3464pt" height="116pt"
 viewBox="0.00 0.00 3463.50 116.00" xmlns="http://www.w3.org/2000/svg" xmlns:xlink="http://www.w3.org/1999/xlink">
<g id="graph0" class="graph" transform="scale(1 1) rotate(0) translate(4 112)">
<title>%3</title>
<polygon fill="transparent" stroke="transparent" points="-4,4 -4,-112 3459.5,-112 3459.5,4 -4,4"/>
<!-- 10 -->
<g id="node1" class="node">
<title>10</title>
<g id="a_node1"><a xlink:title="/__w/AtomVM/AtomVM/src/libAtomVM/refc_binary.c">
<polygon fill="#ffffff" stroke="black" points="383,-36 0,-36 0,0 383,0 383,-36"/>
<text text-anchor="middle" x="191.5" y="-14.3" font-family="Times,serif" font-size="14.00">/__w/AtomVM/AtomVM/src/libAtomVM/refc_binary.c</text>
</a>
</g>
</g>
<!-- 2 -->
<g id="node2" class="node">
<title>2</title>
<g id="a_node2"><a xlink:title="/__w/AtomVM/AtomVM/src/libAtomVM/bif.c">
<polygon fill="#ffffff" stroke="black" points="724,-36 401,-36 401,0 724,0 724,-36"/>
<text text-anchor="middle" x="562.5" y="-14.3" font-family="Times,serif" font-size="14.00">/__w/AtomVM/AtomVM/src/libAtomVM/bif.c</text>
</a>
</g>
</g>
<!-- 6 -->
<g id="node3" class="node">
<title>6</title>
<g id="a_node3"><a xlink:title="/__w/AtomVM/AtomVM/src/libAtomVM/otp_crypto.c">
<polygon fill="#ffffff" stroke="black" points="1123,-36 742,-36 742,0 1123,0 1123,-36"/>
<text text-anchor="middle" x="932.5" y="-14.3" font-family="Times,serif" font-size="14.00">/__w/AtomVM/AtomVM/src/libAtomVM/otp_crypto.c</text>
</a>
</g>
</g>
<!-- 3 -->
<g id="node4" class="node">
<title>3</title>
<g id="a_node4"><a xlink:title="/__w/AtomVM/AtomVM/src/libAtomVM/ets_hashtable.c">
<polygon fill="#ffffff" stroke="black" points="1545.5,-36 1141.5,-36 1141.5,0 1545.5,0 1545.5,-36"/>
<text text-anchor="middle" x="1343.5" y="-14.3" font-family="Times,serif" font-size="14.00">/__w/AtomVM/AtomVM/src/libAtomVM/ets_hashtable.c</text>
</a>
</g>
</g>
<!-- 5 -->
<g id="node5" class="node">
<title>5</title>
<g id="a_node5"><a xlink:title="/__w/AtomVM/AtomVM/src/libAtomVM/memory.c">
<polygon fill="#ffffff" stroke="black" points="1925.5,-36 1563.5,-36 1563.5,0 1925.5,0 1925.5,-36"/>
<text text-anchor="middle" x="1744.5" y="-14.3" font-family="Times,serif" font-size="14.00">/__w/AtomVM/AtomVM/src/libAtomVM/memory.c</text>
</a>
</g>
</g>
<!-- 7 -->
<g id="node6" class="node">
<title>7</title>
<g id="a_node6"><a xlink:title="/__w/AtomVM/AtomVM/src/libAtomVM/otp_net.c">
<polygon fill="#ffffff" stroke="black" points="2303,-36 1944,-36 1944,0 2303,0 2303,-36"/>
<text text-anchor="middle" x="2123.5" y="-14.3" font-family="Times,serif" font-size="14.00">/__w/AtomVM/AtomVM/src/libAtomVM/otp_net.c</text>
</a>
</g>
</g>
<!-- 8 -->
<g id="node7" class="node">
<title>8</title>
<g id="a_node7"><a xlink:title="/__w/AtomVM/AtomVM/src/libAtomVM/otp_socket.c">
<polygon fill="#ffffff" stroke="black" points="2702,-36 2321,-36 2321,0 2702,0 2702,-36"/>
<text text-anchor="middle" x="2511.5" y="-14.3" font-family="Times,serif" font-size="14.00">/__w/AtomVM/AtomVM/src/libAtomVM/otp_socket.c</text>
</a>
</g>
</g>
<!-- 9 -->
<g id="node8" class="node">
<title>9</title>
<g id="a_node8"><a xlink:title="/__w/AtomVM/AtomVM/src/libAtomVM/otp_ssl.c">
<polygon fill="#ffffff" stroke="black" points="3075,-36 2720,-36 2720,0 3075,0 3075,-36"/>
<text text-anchor="middle" x="2897.5" y="-14.3" font-family="Times,serif" font-size="14.00">/__w/AtomVM/AtomVM/src/libAtomVM/otp_ssl.c</text>
</a>
</g>
</g>
<!-- 4 -->
<g id="node9" class="node">
<title>4</title>
<g id="a_node9"><a xlink:title="/__w/AtomVM/AtomVM/src/libAtomVM/mailbox.c">
<polygon fill="#ffffff" stroke="black" points="3455.5,-36 3093.5,-36 3093.5,0 3455.5,0 3455.5,-36"/>
<text text-anchor="middle" x="3274.5" y="-14.3" font-family="Times,serif" font-size="14.00">/__w/AtomVM/AtomVM/src/libAtomVM/mailbox.c</text>
</a>
</g>
</g>
<!-- 1 -->
<g id="node10" class="node">
<title>1</title>
<g id="a_node10"><a xlink:title="/__w/AtomVM/AtomVM/src/libAtomVM/trace.h">
<polygon fill="#bfbfbf" stroke="black" points="1916.5,-108 1572.5,-108 1572.5,-72 1916.5,-72 1916.5,-108"/>
<text text-anchor="middle" x="1744.5" y="-86.3" font-family="Times,serif" font-size="14.00">/__w/AtomVM/AtomVM/src/libAtomVM/trace.h</text>
</a>
</g>
</g>
<!-- 1&#45;&gt;10 -->
<g id="edge9" class="edge">
<title>1&#45;&gt;10</title>
<g id="a_edge9"><a xlink:title="include">
<path fill="none" stroke="#1414ce" d="M1562.15,-84.5C1302.14,-77.48 809.99,-61.97 391.5,-36 388.72,-35.83 385.91,-35.65 383.09,-35.47"/>
<polygon fill="#1414ce" stroke="#1414ce" points="1562.35,-88.01 1572.44,-84.78 1562.54,-81.01 1562.35,-88.01"/>
</a>
</g>
</g>
<!-- 1&#45;&gt;2 -->
<g id="edge1" class="edge">
<title>1&#45;&gt;2</title>
<g id="a_edge1"><a xlink:title="include">
<path fill="none" stroke="#1414ce" d="M1562.29,-82.06C1359.55,-73.73 1022.33,-58.07 732.5,-36 729.69,-35.79 726.86,-35.56 724,-35.34"/>
<polygon fill="#1414ce" stroke="#1414ce" points="1562.31,-85.56 1572.44,-82.47 1562.59,-78.57 1562.31,-85.56"/>
</a>
</g>
</g>
<!-- 1&#45;&gt;6 -->
<g id="edge5" class="edge">
<title>1&#45;&gt;6</title>
<g id="a_edge5"><a xlink:title="include">
<path fill="none" stroke="#1414ce" d="M1562.17,-73.28C1431.48,-62.02 1255.84,-46.87 1123.27,-35.45"/>
<polygon fill="#1414ce" stroke="#1414ce" points="1562.03,-76.78 1572.3,-74.15 1562.63,-69.81 1562.03,-76.78"/>
</a>
</g>
</g>
<!-- 1&#45;&gt;3 -->
<g id="edge2" class="edge">
<title>1&#45;&gt;3</title>
<g id="a_edge2"><a xlink:title="include">
<path fill="none" stroke="#1414ce" d="M1636.89,-70.21C1575.97,-59.58 1500.37,-46.38 1441.17,-36.05"/>
<polygon fill="#1414ce" stroke="#1414ce" points="1636.46,-73.69 1646.92,-71.97 1637.67,-66.8 1636.46,-73.69"/>
</a>
</g>
</g>
<!-- 1&#45;&gt;5 -->
<g id="edge4" class="edge">
<title>1&#45;&gt;5</title>
<g id="a_edge4"><a xlink:title="include">
<path fill="none" stroke="#1414ce" d="M1744.5,-61.67C1744.5,-53.05 1744.5,-43.79 1744.5,-36.1"/>
<polygon fill="#1414ce" stroke="#1414ce" points="1741,-61.7 1744.5,-71.7 1748,-61.7 1741,-61.7"/>
</a>
</g>
</g>
<!-- 1&#45;&gt;7 -->
<g id="edge6" class="edge">
<title>1&#45;&gt;7</title>
<g id="a_edge6"><a xlink:title="include">
<path fill="none" stroke="#1414ce" d="M1846.57,-70.15C1904.08,-59.53 1975.35,-46.36 2031.19,-36.05"/>
<polygon fill="#1414ce" stroke="#1414ce" points="1845.93,-66.71 1836.73,-71.97 1847.2,-73.59 1845.93,-66.71"/>
</a>
</g>
</g>
<!-- 1&#45;&gt;8 -->
<g id="edge7" class="edge">
<title>1&#45;&gt;8</title>
<g id="a_edge7"><a xlink:title="include">
<path fill="none" stroke="#1414ce" d="M1926.68,-72.37C2046.95,-61.4 2204.09,-47.06 2325.19,-36"/>
<polygon fill="#1414ce" stroke="#1414ce" points="1926.27,-68.9 1916.63,-73.29 1926.91,-75.87 1926.27,-68.9"/>
</a>
</g>
</g>
<!-- 1&#45;&gt;9 -->
<g id="edge8" class="edge">
<title>1&#45;&gt;9</title>
<g id="a_edge8"><a xlink:title="include">
<path fill="none" stroke="#1414ce" d="M1926.71,-80.99C2121.2,-71.98 2438.31,-55.96 2711.5,-36 2714.25,-35.8 2717.02,-35.59 2719.81,-35.38"/>
<polygon fill="#1414ce" stroke="#1414ce" points="1926.51,-77.5 1916.68,-81.46 1926.83,-84.49 1926.51,-77.5"/>
</a>
</g>
</g>
<!-- 1&#45;&gt;4 -->
<g id="edge3" class="edge">
<title>1&#45;&gt;4</title>
<g id="a_edge3"><a xlink:title="include">
<path fill="none" stroke="#1414ce" d="M1926.72,-84.66C2184.67,-77.87 2670.94,-62.66 3084.5,-36 3087.47,-35.81 3090.47,-35.61 3093.49,-35.4"/>
<polygon fill="#1414ce" stroke="#1414ce" points="1926.41,-81.17 1916.51,-84.93 1926.6,-88.17 1926.41,-81.17"/>
</a>
</g>
</g>
</g>
</svg>
