<?xml version="1.0" encoding="UTF-8" standalone="no"?>
<!DOCTYPE svg PUBLIC "-//W3C//DTD SVG 1.1//EN"
 "http://www.w3.org/Graphics/SVG/1.1/DTD/svg11.dtd">
<!-- Generated by graphviz version 2.43.0 (0)
 -->
<!-- Title: %3 Pages: 1 -->
<svg width="1461pt" height="692pt"
 viewBox="0.00 0.00 1460.50 692.00" xmlns="http://www.w3.org/2000/svg" xmlns:xlink="http://www.w3.org/1999/xlink">
<g id="graph0" class="graph" transform="scale(1 1) rotate(0) translate(4 688)">
<title>%3</title>
<polygon fill="transparent" stroke="transparent" points="-4,4 -4,-688 1456.5,-688 1456.5,4 -4,4"/>
<!-- 7 -->
<g id="node1" class="node">
<title>7</title>
<g id="a_node1"><a xlink:title="stdbool.h">
<polygon fill="#ffffff" stroke="black" points="603.5,-108 520.5,-108 520.5,-72 603.5,-72 603.5,-108"/>
<text text-anchor="middle" x="562" y="-86.3" font-family="Times,serif" font-size="14.00">stdbool.h</text>
</a>
</g>
</g>
<!-- 24 -->
<g id="node2" class="node">
<title>24</title>
<g id="a_node2"><a xlink:title="refc_binary.h">
<polygon fill="#ffffff" stroke="black" points="698,-396 590,-396 590,-360 698,-360 698,-396"/>
<text text-anchor="middle" x="644" y="-374.3" font-family="Times,serif" font-size="14.00">refc_binary.h</text>
</a>
</g>
</g>
<!-- 24&#45;&gt;7 -->
<g id="edge1" class="edge">
<title>24&#45;&gt;7</title>
<g id="a_edge1"><a xlink:title="include">
<path fill="none" stroke="#1414ce" d="M634.74,-359.72C629.56,-349.54 623.31,-336.29 619,-324 591.75,-246.39 596.06,-223.77 576,-144 573.88,-135.56 571.49,-126.39 569.29,-118.09"/>
<polygon fill="#1414ce" stroke="#1414ce" points="572.6,-116.92 566.64,-108.16 565.84,-118.72 572.6,-116.92"/>
</a>
</g>
</g>
<!-- 17 -->
<g id="node7" class="node">
<title>17</title>
<g id="a_node7"><a xlink:title="list.h">
<polygon fill="#ffffff" stroke="black" points="524,-180 470,-180 470,-144 524,-144 524,-180"/>
<text text-anchor="middle" x="497" y="-158.3" font-family="Times,serif" font-size="14.00">list.h</text>
</a>
</g>
</g>
<!-- 24&#45;&gt;17 -->
<g id="edge3" class="edge">
<title>24&#45;&gt;17</title>
<g id="a_edge3"><a xlink:title="include">
<path fill="none" stroke="#1414ce" d="M621.99,-359.85C610.41,-350.13 596.47,-337.28 586,-324 551.95,-280.82 523.44,-222.89 508.42,-189.59"/>
<polygon fill="#1414ce" stroke="#1414ce" points="511.46,-187.8 504.2,-180.08 505.06,-190.64 511.46,-187.8"/>
</a>
</g>
</g>
<!-- 5 -->
<g id="node9" class="node">
<title>5</title>
<g id="a_node9"><a xlink:title="stdlib.h">
<polygon fill="#ffffff" stroke="black" points="1003.5,-108 932.5,-108 932.5,-72 1003.5,-72 1003.5,-108"/>
<text text-anchor="middle" x="968" y="-86.3" font-family="Times,serif" font-size="14.00">stdlib.h</text>
</a>
</g>
</g>
<!-- 24&#45;&gt;5 -->
<g id="edge2" class="edge">
<title>24&#45;&gt;5</title>
<g id="a_edge2"><a xlink:title="include">
<path fill="none" stroke="#1414ce" d="M684.25,-359.98C701.91,-351.1 722,-338.96 737,-324 776.2,-284.93 758.55,-253.78 799,-216 825.73,-191.04 842.87,-200.74 873,-180 900.33,-161.19 927.55,-134.7 945.8,-115.51"/>
<polygon fill="#1414ce" stroke="#1414ce" points="948.52,-117.72 952.81,-108.03 943.42,-112.93 948.52,-117.72"/>
</a>
</g>
</g>
<!-- 25 -->
<g id="node13" class="node">
<title>25</title>
<g id="a_node13"><a xlink:title="resources.h">
<polygon fill="#ffffff" stroke="black" points="728,-324 628,-324 628,-288 728,-288 728,-324"/>
<text text-anchor="middle" x="678" y="-302.3" font-family="Times,serif" font-size="14.00">resources.h</text>
</a>
</g>
</g>
<!-- 24&#45;&gt;25 -->
<g id="edge4" class="edge">
<title>24&#45;&gt;25</title>
<g id="a_edge4"><a xlink:title="include">
<path fill="none" stroke="#1414ce" d="M652.4,-359.7C656.27,-351.73 660.95,-342.1 665.24,-333.26"/>
<polygon fill="#1414ce" stroke="#1414ce" points="668.47,-334.63 669.69,-324.1 662.17,-331.57 668.47,-334.63"/>
</a>
</g>
</g>
<!-- 4 -->
<g id="node3" class="node">
<title>4</title>
<g id="a_node3"><a xlink:title="atom.h">
<polygon fill="#ffffff" stroke="black" points="1176,-180 1110,-180 1110,-144 1176,-144 1176,-180"/>
<text text-anchor="middle" x="1143" y="-158.3" font-family="Times,serif" font-size="14.00">atom.h</text>
</a>
</g>
</g>
<!-- 3 -->
<g id="node8" class="node">
<title>3</title>
<g id="a_node8"><a xlink:title="stdint.h">
<polygon fill="#ffffff" stroke="black" points="1118,-36 1046,-36 1046,0 1118,0 1118,-36"/>
<text text-anchor="middle" x="1082" y="-14.3" font-family="Times,serif" font-size="14.00">stdint.h</text>
</a>
</g>
</g>
<!-- 4&#45;&gt;3 -->
<g id="edge5" class="edge">
<title>4&#45;&gt;3</title>
<g id="a_edge5"><a xlink:title="include">
<path fill="none" stroke="#1414ce" d="M1135.64,-143.87C1125.15,-119.46 1105.81,-74.43 1093.44,-45.64"/>
<polygon fill="#1414ce" stroke="#1414ce" points="1096.55,-44 1089.38,-36.19 1090.12,-46.76 1096.55,-44"/>
</a>
</g>
</g>
<!-- 4&#45;&gt;5 -->
<g id="edge6" class="edge">
<title>4&#45;&gt;5</title>
<g id="a_edge6"><a xlink:title="include">
<path fill="none" stroke="#1414ce" d="M1109.67,-147.67C1082.29,-136.72 1043.24,-121.1 1013.07,-109.03"/>
<polygon fill="#1414ce" stroke="#1414ce" points="1014.19,-105.71 1003.61,-105.24 1011.59,-112.21 1014.19,-105.71"/>
</a>
</g>
</g>
<!-- 13 -->
<g id="node4" class="node">
<title>13</title>
<g id="a_node4"><a xlink:title="assert.h">
<polygon fill="#ffffff" stroke="black" points="1363,-36 1289,-36 1289,0 1363,0 1363,-36"/>
<text text-anchor="middle" x="1326" y="-14.3" font-family="Times,serif" font-size="14.00">assert.h</text>
</a>
</g>
</g>
<!-- 8 -->
<g id="node5" class="node">
<title>8</title>
<g id="a_node5"><a xlink:title="utils.h">
<polygon fill="#ffffff" stroke="black" points="864,-180 802,-180 802,-144 864,-144 864,-180"/>
<text text-anchor="middle" x="833" y="-158.3" font-family="Times,serif" font-size="14.00">utils.h</text>
</a>
</g>
</g>
<!-- 8&#45;&gt;5 -->
<g id="edge9" class="edge">
<title>8&#45;&gt;5</title>
<g id="a_edge9"><a xlink:title="include">
<path fill="none" stroke="#1414ce" d="M864.31,-144.76C882.68,-135.24 906.13,-123.08 926.09,-112.73"/>
<polygon fill="#1414ce" stroke="#1414ce" points="927.71,-115.83 934.98,-108.12 924.49,-109.62 927.71,-115.83"/>
</a>
</g>
</g>
<!-- 9 -->
<g id="node15" class="node">
<title>9</title>
<g id="a_node15"><a xlink:title="stddef.h">
<polygon fill="#ffffff" stroke="black" points="439,-108 365,-108 365,-72 439,-72 439,-108"/>
<text text-anchor="middle" x="402" y="-86.3" font-family="Times,serif" font-size="14.00">stddef.h</text>
</a>
</g>
</g>
<!-- 8&#45;&gt;9 -->
<g id="edge7" class="edge">
<title>8&#45;&gt;9</title>
<g id="a_edge7"><a xlink:title="include">
<path fill="none" stroke="#1414ce" d="M801.66,-155.91C726.94,-143.77 537.97,-113.08 449.3,-98.68"/>
<polygon fill="#1414ce" stroke="#1414ce" points="449.69,-95.2 439.26,-97.05 448.56,-102.11 449.69,-95.2"/>
</a>
</g>
</g>
<!-- 10 -->
<g id="node26" class="node">
<title>10</title>
<g id="a_node26"><a xlink:title="stdio.h">
<polygon fill="#ffffff" stroke="black" points="865.5,-108 800.5,-108 800.5,-72 865.5,-72 865.5,-108"/>
<text text-anchor="middle" x="833" y="-86.3" font-family="Times,serif" font-size="14.00">stdio.h</text>
</a>
</g>
</g>
<!-- 8&#45;&gt;10 -->
<g id="edge8" class="edge">
<title>8&#45;&gt;10</title>
<g id="a_edge8"><a xlink:title="include">
<path fill="none" stroke="#1414ce" d="M833,-143.7C833,-135.98 833,-126.71 833,-118.11"/>
<polygon fill="#1414ce" stroke="#1414ce" points="836.5,-118.1 833,-108.1 829.5,-118.1 836.5,-118.1"/>
</a>
</g>
</g>
<!-- 18 -->
<g id="node6" class="node">
<title>18</title>
<g id="a_node6"><a xlink:title="synclist.h">
<polygon fill="#ffffff" stroke="black" points="457.5,-252 372.5,-252 372.5,-216 457.5,-216 457.5,-252"/>
<text text-anchor="middle" x="415" y="-230.3" font-family="Times,serif" font-size="14.00">synclist.h</text>
</a>
</g>
</g>
<!-- 18&#45;&gt;17 -->
<g id="edge11" class="edge">
<title>18&#45;&gt;17</title>
<g id="a_edge11"><a xlink:title="include">
<path fill="none" stroke="#1414ce" d="M435.27,-215.7C445.5,-206.97 458.06,-196.24 469.18,-186.75"/>
<polygon fill="#1414ce" stroke="#1414ce" points="471.63,-189.26 476.96,-180.1 467.09,-183.94 471.63,-189.26"/>
</a>
</g>
</g>
<!-- 19 -->
<g id="node23" class="node">
<title>19</title>
<g id="a_node23"><a xlink:title="smp.h">
<polygon fill="#ffffff" stroke="black" points="414,-180 354,-180 354,-144 414,-144 414,-180"/>
<text text-anchor="middle" x="384" y="-158.3" font-family="Times,serif" font-size="14.00">smp.h</text>
</a>
</g>
</g>
<!-- 18&#45;&gt;19 -->
<g id="edge12" class="edge">
<title>18&#45;&gt;19</title>
<g id="a_edge12"><a xlink:title="include">
<path fill="none" stroke="#1414ce" d="M407.34,-215.7C403.81,-207.73 399.54,-198.1 395.63,-189.26"/>
<polygon fill="#1414ce" stroke="#1414ce" points="398.82,-187.83 391.57,-180.1 392.42,-190.67 398.82,-187.83"/>
</a>
</g>
</g>
<!-- 18&#45;&gt;10 -->
<g id="edge10" class="edge">
<title>18&#45;&gt;10</title>
<g id="a_edge10"><a xlink:title="include">
<path fill="none" stroke="#1414ce" d="M457.77,-218.47C538.08,-191.19 710.56,-132.59 790.6,-105.4"/>
<polygon fill="#1414ce" stroke="#1414ce" points="792,-108.62 800.34,-102.09 789.75,-102 792,-108.62"/>
</a>
</g>
</g>
<!-- 17&#45;&gt;7 -->
<g id="edge13" class="edge">
<title>17&#45;&gt;7</title>
<g id="a_edge13"><a xlink:title="include">
<path fill="none" stroke="#1414ce" d="M513.07,-143.7C520.94,-135.22 530.56,-124.86 539.17,-115.58"/>
<polygon fill="#1414ce" stroke="#1414ce" points="541.88,-117.81 546.12,-108.1 536.75,-113.05 541.88,-117.81"/>
</a>
</g>
</g>
<!-- 1 -->
<g id="node10" class="node">
<title>1</title>
<g id="a_node10"><a xlink:title="/__w/AtomVM/AtomVM/src/libAtomVM/context.h">
<polygon fill="#bfbfbf" stroke="black" points="400,-684 40,-684 40,-648 400,-648 400,-684"/>
<text text-anchor="middle" x="220" y="-662.3" font-family="Times,serif" font-size="14.00">/__w/AtomVM/AtomVM/src/libAtomVM/context.h</text>
</a>
</g>
</g>
<!-- 1&#45;&gt;17 -->
<g id="edge15" class="edge">
<title>1&#45;&gt;17</title>
<g id="a_edge15"><a xlink:title="include">
<path fill="none" stroke="#1414ce" d="M217.49,-647.74C208.87,-581.27 187.45,-339.35 311,-216 357.99,-169.09 392.93,-200.77 456,-180 457.42,-179.53 458.86,-179.04 460.3,-178.53"/>
<polygon fill="#1414ce" stroke="#1414ce" points="461.75,-181.72 469.87,-174.92 459.28,-175.17 461.75,-181.72"/>
</a>
</g>
</g>
<!-- 20 -->
<g id="node14" class="node">
<title>20</title>
<g id="a_node14"><a xlink:title="term.h">
<polygon fill="#ffffff" stroke="black" points="1022.5,-468 957.5,-468 957.5,-432 1022.5,-432 1022.5,-468"/>
<text text-anchor="middle" x="990" y="-446.3" font-family="Times,serif" font-size="14.00">term.h</text>
</a>
</g>
</g>
<!-- 1&#45;&gt;20 -->
<g id="edge18" class="edge">
<title>1&#45;&gt;20</title>
<g id="a_edge18"><a xlink:title="include">
<path fill="none" stroke="#1414ce" d="M354.56,-647.96C411.61,-639.35 478.54,-627.42 538,-612 692.46,-571.96 868.84,-501.69 947.86,-468.86"/>
<polygon fill="#1414ce" stroke="#1414ce" points="949.57,-471.94 957.45,-464.86 946.88,-465.48 949.57,-471.94"/>
</a>
</g>
</g>
<!-- 2 -->
<g id="node22" class="node">
<title>2</title>
<g id="a_node22"><a xlink:title="globalcontext.h">
<polygon fill="#ffffff" stroke="black" points="397.5,-612 270.5,-612 270.5,-576 397.5,-576 397.5,-612"/>
<text text-anchor="middle" x="334" y="-590.3" font-family="Times,serif" font-size="14.00">globalcontext.h</text>
</a>
</g>
</g>
<!-- 1&#45;&gt;2 -->
<g id="edge14" class="edge">
<title>1&#45;&gt;2</title>
<g id="a_edge14"><a xlink:title="include">
<path fill="none" stroke="#1414ce" d="M247.89,-647.88C262.79,-638.72 281.33,-627.34 297.38,-617.48"/>
<polygon fill="#1414ce" stroke="#1414ce" points="299.31,-620.41 306.01,-612.19 295.65,-614.44 299.31,-620.41"/>
</a>
</g>
</g>
<!-- 1&#45;&gt;19 -->
<g id="edge17" class="edge">
<title>1&#45;&gt;19</title>
<g id="a_edge17"><a xlink:title="include">
<path fill="none" stroke="#1414ce" d="M130.89,-647.98C107.92,-640.12 84.71,-628.67 67,-612 35.81,-582.64 30,-565.84 30,-523 30,-523 30,-523 30,-449 30,-337 38.31,-285.68 126,-216 200.74,-156.61 247.32,-204.61 343.8,-179.82"/>
<polygon fill="#1414ce" stroke="#1414ce" points="344.91,-183.15 353.61,-177.1 343.04,-176.4 344.91,-183.15"/>
</a>
</g>
</g>
<!-- 27 -->
<g id="node24" class="node">
<title>27</title>
<g id="a_node24"><a xlink:title="timer_list.h">
<polygon fill="#ffffff" stroke="black" points="240,-252 142,-252 142,-216 240,-216 240,-252"/>
<text text-anchor="middle" x="191" y="-230.3" font-family="Times,serif" font-size="14.00">timer_list.h</text>
</a>
</g>
</g>
<!-- 1&#45;&gt;27 -->
<g id="edge19" class="edge">
<title>1&#45;&gt;27</title>
<g id="a_edge19"><a xlink:title="include">
<path fill="none" stroke="#1414ce" d="M147.36,-647.95C127.02,-640.02 106.52,-628.53 92,-612 64.96,-581.22 68,-563.97 68,-523 68,-523 68,-523 68,-449 68,-371.59 129.25,-296.87 165.31,-259.59"/>
<polygon fill="#1414ce" stroke="#1414ce" points="168.05,-261.79 172.59,-252.21 163.07,-256.87 168.05,-261.79"/>
</a>
</g>
</g>
<!-- 26 -->
<g id="node25" class="node">
<title>26</title>
<g id="a_node25"><a xlink:title="mailbox.h">
<polygon fill="#ffffff" stroke="black" points="714,-252 628,-252 628,-216 714,-216 714,-252"/>
<text text-anchor="middle" x="671" y="-230.3" font-family="Times,serif" font-size="14.00">mailbox.h</text>
</a>
</g>
</g>
<!-- 1&#45;&gt;26 -->
<g id="edge16" class="edge">
<title>1&#45;&gt;26</title>
<g id="a_edge16"><a xlink:title="include">
<path fill="none" stroke="#1414ce" d="M380.46,-647.97C453.54,-630.37 524,-594.8 524,-523 524,-523 524,-523 524,-377 524,-320.85 580.17,-279.86 623.07,-256.74"/>
<polygon fill="#1414ce" stroke="#1414ce" points="624.75,-259.81 631.99,-252.08 621.51,-253.61 624.75,-259.81"/>
</a>
</g>
</g>
<!-- 23 -->
<g id="node11" class="node">
<title>23</title>
<g id="a_node11"><a xlink:title="memory.h">
<polygon fill="#ffffff" stroke="black" points="1136,-252 1050,-252 1050,-216 1136,-216 1136,-252"/>
<text text-anchor="middle" x="1093" y="-230.3" font-family="Times,serif" font-size="14.00">memory.h</text>
</a>
</g>
</g>
<!-- 23&#45;&gt;8 -->
<g id="edge24" class="edge">
<title>23&#45;&gt;8</title>
<g id="a_edge24"><a xlink:title="include">
<path fill="none" stroke="#1414ce" d="M1049.77,-221.36C1000.84,-208.19 921.71,-186.88 873.8,-173.98"/>
<polygon fill="#1414ce" stroke="#1414ce" points="874.64,-170.59 864.07,-171.37 872.82,-177.35 874.64,-170.59"/>
</a>
</g>
</g>
<!-- 23&#45;&gt;3 -->
<g id="edge20" class="edge">
<title>23&#45;&gt;3</title>
<g id="a_edge20"><a xlink:title="include">
<path fill="none" stroke="#1414ce" d="M1092.12,-215.85C1090.22,-178.83 1085.71,-91.18 1083.41,-46.39"/>
<polygon fill="#1414ce" stroke="#1414ce" points="1086.89,-46.04 1082.89,-36.23 1079.9,-46.4 1086.89,-46.04"/>
</a>
</g>
</g>
<!-- 23&#45;&gt;5 -->
<g id="edge21" class="edge">
<title>23&#45;&gt;5</title>
<g id="a_edge21"><a xlink:title="include">
<path fill="none" stroke="#1414ce" d="M1079.71,-215.9C1065.4,-197.7 1041.76,-168.24 1020,-144 1011.39,-134.41 1001.57,-124.22 992.8,-115.37"/>
<polygon fill="#1414ce" stroke="#1414ce" points="995.28,-112.89 985.73,-108.29 990.32,-117.84 995.28,-112.89"/>
</a>
</g>
</g>
<!-- 11 -->
<g id="node16" class="node">
<title>11</title>
<g id="a_node16"><a xlink:title="erl_nif.h">
<polygon fill="#ffffff" stroke="black" points="1306,-180 1232,-180 1232,-144 1306,-144 1306,-180"/>
<text text-anchor="middle" x="1269" y="-158.3" font-family="Times,serif" font-size="14.00">erl_nif.h</text>
</a>
</g>
</g>
<!-- 23&#45;&gt;11 -->
<g id="edge22" class="edge">
<title>23&#45;&gt;11</title>
<g id="a_edge22"><a xlink:title="include">
<path fill="none" stroke="#1414ce" d="M1136.05,-215.88C1162.16,-205.49 1195.47,-192.24 1222.22,-181.6"/>
<polygon fill="#1414ce" stroke="#1414ce" points="1223.76,-184.76 1231.76,-177.81 1221.17,-178.26 1223.76,-184.76"/>
</a>
</g>
</g>
<!-- 12 -->
<g id="node21" class="node">
<title>12</title>
<g id="a_node21"><a xlink:title="term_typedef.h">
<polygon fill="#ffffff" stroke="black" points="1388.5,-108 1263.5,-108 1263.5,-72 1388.5,-72 1388.5,-108"/>
<text text-anchor="middle" x="1326" y="-86.3" font-family="Times,serif" font-size="14.00">term_typedef.h</text>
</a>
</g>
</g>
<!-- 23&#45;&gt;12 -->
<g id="edge23" class="edge">
<title>23&#45;&gt;12</title>
<g id="a_edge23"><a xlink:title="include">
<path fill="none" stroke="#1414ce" d="M1126.97,-215.92C1144.87,-206.31 1166.82,-193.55 1185,-180 1203.65,-166.1 1204.02,-157.46 1223,-144 1239.76,-132.11 1259.56,-121.27 1277.29,-112.53"/>
<polygon fill="#1414ce" stroke="#1414ce" points="1278.86,-115.66 1286.35,-108.16 1275.82,-109.36 1278.86,-115.66"/>
</a>
</g>
</g>
<!-- 28 -->
<g id="node12" class="node">
<title>28</title>
<g id="a_node12"><a xlink:title="valueshashtable.h">
<polygon fill="#ffffff" stroke="black" points="336,-180 190,-180 190,-144 336,-144 336,-180"/>
<text text-anchor="middle" x="263" y="-158.3" font-family="Times,serif" font-size="14.00">valueshashtable.h</text>
</a>
</g>
</g>
<!-- 28&#45;&gt;3 -->
<g id="edge26" class="edge">
<title>28&#45;&gt;3</title>
<g id="a_edge26"><a xlink:title="include">
<path fill="none" stroke="#1414ce" d="M274.85,-143.95C290.62,-122.82 320.67,-87.7 356,-72 478.26,-17.67 894.92,-16.96 1035.35,-18.33"/>
<polygon fill="#1414ce" stroke="#1414ce" points="1035.72,-21.84 1045.76,-18.44 1035.79,-14.84 1035.72,-21.84"/>
</a>
</g>
</g>
<!-- 28&#45;&gt;9 -->
<g id="edge25" class="edge">
<title>28&#45;&gt;9</title>
<g id="a_edge25"><a xlink:title="include">
<path fill="none" stroke="#1414ce" d="M297,-143.88C315.6,-134.51 338.83,-122.81 358.71,-112.8"/>
<polygon fill="#1414ce" stroke="#1414ce" points="360.51,-115.81 367.87,-108.19 357.36,-109.56 360.51,-115.81"/>
</a>
</g>
</g>
<!-- 25&#45;&gt;18 -->
<g id="edge32" class="edge">
<title>25&#45;&gt;18</title>
<g id="a_edge32"><a xlink:title="include">
<path fill="none" stroke="#1414ce" d="M627.91,-291.67C581.95,-279.44 514.12,-261.38 467.44,-248.96"/>
<polygon fill="#1414ce" stroke="#1414ce" points="468.08,-245.51 457.52,-246.32 466.28,-252.27 468.08,-245.51"/>
</a>
</g>
</g>
<!-- 25&#45;&gt;17 -->
<g id="edge29" class="edge">
<title>25&#45;&gt;17</title>
<g id="a_edge29"><a xlink:title="include">
<path fill="none" stroke="#1414ce" d="M656.17,-287.87C623.96,-262.6 563.61,-215.25 527.18,-186.68"/>
<polygon fill="#1414ce" stroke="#1414ce" points="528.94,-183.61 518.91,-180.19 524.62,-189.12 528.94,-183.61"/>
</a>
</g>
</g>
<!-- 25&#45;&gt;5 -->
<g id="edge27" class="edge">
<title>25&#45;&gt;5</title>
<g id="a_edge27"><a xlink:title="include">
<path fill="none" stroke="#1414ce" d="M693.58,-287.8C702.53,-277.65 713.78,-264.4 723,-252 757.14,-206.1 747.29,-178.38 793,-144 813.52,-128.57 877.98,-111.47 922.66,-100.98"/>
<polygon fill="#1414ce" stroke="#1414ce" points="923.48,-104.39 932.43,-98.72 921.9,-97.57 923.48,-104.39"/>
</a>
</g>
</g>
<!-- 25&#45;&gt;23 -->
<g id="edge31" class="edge">
<title>25&#45;&gt;23</title>
<g id="a_edge31"><a xlink:title="include">
<path fill="none" stroke="#1414ce" d="M728.06,-296.56C806.93,-283.25 959.42,-257.53 1040.05,-243.93"/>
<polygon fill="#1414ce" stroke="#1414ce" points="1040.71,-247.37 1049.99,-242.25 1039.55,-240.47 1040.71,-247.37"/>
</a>
</g>
</g>
<!-- 25&#45;&gt;11 -->
<g id="edge28" class="edge">
<title>25&#45;&gt;11</title>
<g id="a_edge28"><a xlink:title="include">
<path fill="none" stroke="#1414ce" d="M728.24,-302.5C832.68,-296.79 1069.81,-280.97 1145,-252 1183.21,-237.28 1220.47,-207.9 1244.01,-186.92"/>
<polygon fill="#1414ce" stroke="#1414ce" points="1246.4,-189.48 1251.45,-180.17 1241.69,-184.3 1246.4,-189.48"/>
</a>
</g>
</g>
<!-- 25&#45;&gt;26 -->
<g id="edge30" class="edge">
<title>25&#45;&gt;26</title>
<g id="a_edge30"><a xlink:title="include">
<path fill="none" stroke="#1414ce" d="M676.27,-287.7C675.5,-279.98 674.57,-270.71 673.71,-262.11"/>
<polygon fill="#1414ce" stroke="#1414ce" points="677.19,-261.71 672.71,-252.1 670.22,-262.4 677.19,-261.71"/>
</a>
</g>
</g>
<!-- 20&#45;&gt;7 -->
<g id="edge34" class="edge">
<title>20&#45;&gt;7</title>
<g id="a_edge34"><a xlink:title="include">
<path fill="none" stroke="#1414ce" d="M957.4,-449.43C870.4,-449.9 635.62,-446.35 581,-396 551.26,-368.59 562,-347.45 562,-307 562,-307 562,-307 562,-233 562,-193 562,-146.65 562,-118.08"/>
<polygon fill="#1414ce" stroke="#1414ce" points="565.5,-118.05 562,-108.05 558.5,-118.05 565.5,-118.05"/>
</a>
</g>
</g>
<!-- 20&#45;&gt;24 -->
<g id="edge41" class="edge">
<title>20&#45;&gt;24</title>
<g id="a_edge41"><a xlink:title="include">
<path fill="none" stroke="#1414ce" d="M957.45,-442.41C900.57,-430.91 782.13,-406.95 708.23,-392"/>
<polygon fill="#1414ce" stroke="#1414ce" points="708.61,-388.5 698.11,-389.95 707.22,-395.36 708.61,-388.5"/>
</a>
</g>
</g>
<!-- 20&#45;&gt;4 -->
<g id="edge39" class="edge">
<title>20&#45;&gt;4</title>
<g id="a_edge39"><a xlink:title="include">
<path fill="none" stroke="#1414ce" d="M1022.75,-436.92C1042.68,-428.16 1067.4,-414.58 1084,-396 1130.3,-344.16 1131.17,-320.12 1145,-252 1149.15,-231.58 1148.37,-207.99 1146.71,-190.23"/>
<polygon fill="#1414ce" stroke="#1414ce" points="1150.19,-189.83 1145.63,-180.26 1143.23,-190.58 1150.19,-189.83"/>
</a>
</g>
</g>
<!-- 20&#45;&gt;8 -->
<g id="edge42" class="edge">
<title>20&#45;&gt;8</title>
<g id="a_edge42"><a xlink:title="include">
<path fill="none" stroke="#1414ce" d="M989.62,-431.82C987.87,-390.36 978.24,-283.25 926,-216 918.62,-206.5 894.91,-193.05 873.28,-182.07"/>
<polygon fill="#1414ce" stroke="#1414ce" points="874.7,-178.87 864.19,-177.54 871.57,-185.14 874.7,-178.87"/>
</a>
</g>
</g>
<!-- 20&#45;&gt;3 -->
<g id="edge35" class="edge">
<title>20&#45;&gt;3</title>
<g id="a_edge35"><a xlink:title="include">
<path fill="none" stroke="#1414ce" d="M1022.68,-438.89C1048.38,-430.01 1084.33,-415.47 1112,-396 1219.75,-320.19 1266.48,-302.48 1315,-180 1320.89,-165.12 1323.22,-157.73 1315,-144 1309.57,-134.92 1191.03,-74.05 1125.18,-40.72"/>
<polygon fill="#1414ce" stroke="#1414ce" points="1126.37,-37.4 1115.86,-36.01 1123.21,-43.64 1126.37,-37.4"/>
</a>
</g>
</g>
<!-- 20&#45;&gt;5 -->
<g id="edge37" class="edge">
<title>20&#45;&gt;5</title>
<g id="a_edge37"><a xlink:title="include">
<path fill="none" stroke="#1414ce" d="M1004.33,-431.57C1011.45,-421.76 1019.31,-408.92 1023,-396 1027.4,-380.62 1024.37,-375.94 1023,-360 1015.26,-270.15 988.92,-166.19 975.7,-118.04"/>
<polygon fill="#1414ce" stroke="#1414ce" points="978.99,-116.8 972.94,-108.11 972.24,-118.68 978.99,-116.8"/>
</a>
</g>
</g>
<!-- 20&#45;&gt;23 -->
<g id="edge40" class="edge">
<title>20&#45;&gt;23</title>
<g id="a_edge40"><a xlink:title="include">
<path fill="none" stroke="#1414ce" d="M1022.66,-431.86C1036.54,-422.96 1051.64,-410.83 1061,-396 1087.07,-354.68 1092.58,-296.49 1093.37,-262.57"/>
<polygon fill="#1414ce" stroke="#1414ce" points="1096.87,-262.49 1093.48,-252.45 1089.87,-262.42 1096.87,-262.49"/>
</a>
</g>
</g>
<!-- 21 -->
<g id="node19" class="node">
<title>21</title>
<g id="a_node19"><a xlink:title="sys/types.h">
<polygon fill="#ffffff" stroke="black" points="851.5,-396 754.5,-396 754.5,-360 851.5,-360 851.5,-396"/>
<text text-anchor="middle" x="803" y="-374.3" font-family="Times,serif" font-size="14.00">sys/types.h</text>
</a>
</g>
</g>
<!-- 20&#45;&gt;21 -->
<g id="edge33" class="edge">
<title>20&#45;&gt;21</title>
<g id="a_edge33"><a xlink:title="include">
<path fill="none" stroke="#1414ce" d="M957.43,-436.81C930.12,-426.58 890.52,-411.76 858.26,-399.69"/>
<polygon fill="#1414ce" stroke="#1414ce" points="859.1,-396.26 848.51,-396.03 856.64,-402.82 859.1,-396.26"/>
</a>
</g>
</g>
<!-- 22 -->
<g id="node20" class="node">
<title>22</title>
<g id="a_node20"><a xlink:title="string.h">
<polygon fill="#ffffff" stroke="black" points="942.5,-396 869.5,-396 869.5,-360 942.5,-360 942.5,-396"/>
<text text-anchor="middle" x="906" y="-374.3" font-family="Times,serif" font-size="14.00">string.h</text>
</a>
</g>
</g>
<!-- 20&#45;&gt;22 -->
<g id="edge38" class="edge">
<title>20&#45;&gt;22</title>
<g id="a_edge38"><a xlink:title="include">
<path fill="none" stroke="#1414ce" d="M969.24,-431.7C958.76,-422.97 945.89,-412.24 934.5,-402.75"/>
<polygon fill="#1414ce" stroke="#1414ce" points="936.45,-399.82 926.53,-396.1 931.97,-405.19 936.45,-399.82"/>
</a>
</g>
</g>
<!-- 20&#45;&gt;12 -->
<g id="edge43" class="edge">
<title>20&#45;&gt;12</title>
<g id="a_edge43"><a xlink:title="include">
<path fill="none" stroke="#1414ce" d="M1022.54,-445.12C1069.31,-438.81 1157.63,-424.09 1228,-396 1285.77,-372.94 1317.36,-378.12 1348,-324 1387.42,-254.38 1363.64,-222.46 1348,-144 1346.21,-135.01 1342.86,-125.64 1339.31,-117.32"/>
<polygon fill="#1414ce" stroke="#1414ce" points="1342.46,-115.77 1335.13,-108.12 1336.08,-118.67 1342.46,-115.77"/>
</a>
</g>
</g>
<!-- 20&#45;&gt;10 -->
<g id="edge36" class="edge">
<title>20&#45;&gt;10</title>
<g id="a_edge36"><a xlink:title="include">
<path fill="none" stroke="#1414ce" d="M992.03,-431.84C993.15,-421.48 994.44,-408 995,-396 998.87,-313.74 993.72,-286.41 951,-216 926.87,-176.23 888.38,-138.55 861.96,-115.16"/>
<polygon fill="#1414ce" stroke="#1414ce" points="864.01,-112.3 854.18,-108.37 859.41,-117.58 864.01,-112.3"/>
</a>
</g>
</g>
<!-- 11&#45;&gt;12 -->
<g id="edge44" class="edge">
<title>11&#45;&gt;12</title>
<g id="a_edge44"><a xlink:title="include">
<path fill="none" stroke="#1414ce" d="M1283.09,-143.7C1289.92,-135.3 1298.26,-125.07 1305.76,-115.86"/>
<polygon fill="#1414ce" stroke="#1414ce" points="1308.47,-118.07 1312.07,-108.1 1303.04,-113.65 1308.47,-118.07"/>
</a>
</g>
</g>
<!-- 14 -->
<g id="node17" class="node">
<title>14</title>
<g id="a_node17"><a xlink:title="limits.h">
<polygon fill="#ffffff" stroke="black" points="1452.5,-36 1381.5,-36 1381.5,0 1452.5,0 1452.5,-36"/>
<text text-anchor="middle" x="1417" y="-14.3" font-family="Times,serif" font-size="14.00">limits.h</text>
</a>
</g>
</g>
<!-- 6 -->
<g id="node18" class="node">
<title>6</title>
<g id="a_node18"><a xlink:title="atom_table.h">
<polygon fill="#ffffff" stroke="black" points="917.5,-252 808.5,-252 808.5,-216 917.5,-216 917.5,-252"/>
<text text-anchor="middle" x="863" y="-230.3" font-family="Times,serif" font-size="14.00">atom_table.h</text>
</a>
</g>
</g>
<!-- 6&#45;&gt;7 -->
<g id="edge45" class="edge">
<title>6&#45;&gt;7</title>
<g id="a_edge45"><a xlink:title="include">
<path fill="none" stroke="#1414ce" d="M826.69,-215.87C771.78,-189.96 667.65,-140.84 607.67,-112.55"/>
<polygon fill="#1414ce" stroke="#1414ce" points="608.97,-109.29 598.44,-108.19 605.99,-115.62 608.97,-109.29"/>
</a>
</g>
</g>
<!-- 6&#45;&gt;4 -->
<g id="edge46" class="edge">
<title>6&#45;&gt;4</title>
<g id="a_edge46"><a xlink:title="include">
<path fill="none" stroke="#1414ce" d="M917.65,-219.34C970.99,-206 1051.06,-185.98 1100.01,-173.75"/>
<polygon fill="#1414ce" stroke="#1414ce" points="1101.11,-177.08 1109.96,-171.26 1099.41,-170.29 1101.11,-177.08"/>
</a>
</g>
</g>
<!-- 6&#45;&gt;8 -->
<g id="edge47" class="edge">
<title>6&#45;&gt;8</title>
<g id="a_edge47"><a xlink:title="include">
<path fill="none" stroke="#1414ce" d="M855.58,-215.7C852.21,-207.81 848.13,-198.3 844.38,-189.55"/>
<polygon fill="#1414ce" stroke="#1414ce" points="847.49,-187.92 840.33,-180.1 841.05,-190.67 847.49,-187.92"/>
</a>
</g>
</g>
<!-- 12&#45;&gt;13 -->
<g id="edge48" class="edge">
<title>12&#45;&gt;13</title>
<g id="a_edge48"><a xlink:title="include">
<path fill="none" stroke="#1414ce" d="M1326,-71.7C1326,-63.98 1326,-54.71 1326,-46.11"/>
<polygon fill="#1414ce" stroke="#1414ce" points="1329.5,-46.1 1326,-36.1 1322.5,-46.1 1329.5,-46.1"/>
</a>
</g>
</g>
<!-- 12&#45;&gt;3 -->
<g id="edge51" class="edge">
<title>12&#45;&gt;3</title>
<g id="a_edge51"><a xlink:title="include">
<path fill="none" stroke="#1414ce" d="M1266.62,-71.97C1223.93,-59.72 1167.2,-43.44 1127.94,-32.18"/>
<polygon fill="#1414ce" stroke="#1414ce" points="1128.69,-28.75 1118.11,-29.36 1126.76,-35.48 1128.69,-28.75"/>
</a>
</g>
</g>
<!-- 12&#45;&gt;14 -->
<g id="edge49" class="edge">
<title>12&#45;&gt;14</title>
<g id="a_edge49"><a xlink:title="include">
<path fill="none" stroke="#1414ce" d="M1348.49,-71.7C1359.96,-62.88 1374.06,-52.03 1386.48,-42.47"/>
<polygon fill="#1414ce" stroke="#1414ce" points="1388.97,-44.98 1394.76,-36.1 1384.7,-39.43 1388.97,-44.98"/>
</a>
</g>
</g>
<!-- 15 -->
<g id="node28" class="node">
<title>15</title>
<g id="a_node28"><a xlink:title="inttypes.h">
<polygon fill="#ffffff" stroke="black" points="1270.5,-36 1181.5,-36 1181.5,0 1270.5,0 1270.5,-36"/>
<text text-anchor="middle" x="1226" y="-14.3" font-family="Times,serif" font-size="14.00">inttypes.h</text>
</a>
</g>
</g>
<!-- 12&#45;&gt;15 -->
<g id="edge50" class="edge">
<title>12&#45;&gt;15</title>
<g id="a_edge50"><a xlink:title="include">
<path fill="none" stroke="#1414ce" d="M1301.54,-71.88C1288.7,-62.89 1272.8,-51.76 1258.91,-42.03"/>
<polygon fill="#1414ce" stroke="#1414ce" points="1260.76,-39.06 1250.56,-36.19 1256.74,-44.79 1260.76,-39.06"/>
</a>
</g>
</g>
<!-- 2&#45;&gt;4 -->
<g id="edge53" class="edge">
<title>2&#45;&gt;4</title>
<g id="a_edge53"><a xlink:title="include">
<path fill="none" stroke="#1414ce" d="M397.82,-589.87C606.01,-578.83 1252,-537.58 1252,-451 1252,-451 1252,-451 1252,-305 1252,-254.93 1208.83,-211.64 1176.83,-186.43"/>
<polygon fill="#1414ce" stroke="#1414ce" points="1178.63,-183.4 1168.56,-180.11 1174.38,-188.96 1178.63,-183.4"/>
</a>
</g>
</g>
<!-- 2&#45;&gt;18 -->
<g id="edge60" class="edge">
<title>2&#45;&gt;18</title>
<g id="a_edge60"><a xlink:title="include">
<path fill="none" stroke="#1414ce" d="M334,-575.95C334,-549.29 334,-496.11 334,-451 334,-451 334,-451 334,-377 334,-330.96 366.52,-286.25 390.35,-259.67"/>
<polygon fill="#1414ce" stroke="#1414ce" points="393.21,-261.74 397.42,-252.02 388.07,-256.99 393.21,-261.74"/>
</a>
</g>
</g>
<!-- 2&#45;&gt;17 -->
<g id="edge57" class="edge">
<title>2&#45;&gt;17</title>
<g id="a_edge57"><a xlink:title="include">
<path fill="none" stroke="#1414ce" d="M326.31,-575.91C315.21,-549.62 296,-497.45 296,-451 296,-451 296,-451 296,-377 296,-302.58 290.11,-269.34 342,-216 379.05,-177.91 406.08,-198.19 456,-180 457.4,-179.49 458.83,-178.96 460.26,-178.41"/>
<polygon fill="#1414ce" stroke="#1414ce" points="461.76,-181.59 469.78,-174.67 459.2,-175.07 461.76,-181.59"/>
</a>
</g>
</g>
<!-- 2&#45;&gt;3 -->
<g id="edge52" class="edge">
<title>2&#45;&gt;3</title>
<g id="a_edge52"><a xlink:title="include">
<path fill="none" stroke="#1414ce" d="M270.21,-576.4C246.75,-568.14 221.04,-556.33 201,-540 75.14,-437.46 0,-397.34 0,-235 0,-235 0,-235 0,-161 0,-60.86 109.57,-95.15 207,-72 366.58,-34.08 877.75,-22.44 1035.31,-19.71"/>
<polygon fill="#1414ce" stroke="#1414ce" points="1035.67,-23.21 1045.61,-19.54 1035.55,-16.21 1035.67,-23.21"/>
</a>
</g>
</g>
<!-- 2&#45;&gt;28 -->
<g id="edge63" class="edge">
<title>2&#45;&gt;28</title>
<g id="a_edge63"><a xlink:title="include">
<path fill="none" stroke="#1414ce" d="M288.38,-575.91C270.05,-567.31 249.8,-555.39 235,-540 140.13,-441.35 139.12,-388.23 126,-252 124.47,-236.07 116.95,-229.2 126,-216 138.75,-197.39 159.05,-185.32 180.15,-177.48"/>
<polygon fill="#1414ce" stroke="#1414ce" points="181.54,-180.7 189.88,-174.17 179.29,-174.08 181.54,-180.7"/>
</a>
</g>
</g>
<!-- 2&#45;&gt;20 -->
<g id="edge61" class="edge">
<title>2&#45;&gt;20</title>
<g id="a_edge61"><a xlink:title="include">
<path fill="none" stroke="#1414ce" d="M397.79,-579.19C530.96,-550.37 835.41,-484.46 947.53,-460.19"/>
<polygon fill="#1414ce" stroke="#1414ce" points="948.43,-463.58 957.46,-458.04 946.95,-456.74 948.43,-463.58"/>
</a>
</g>
</g>
<!-- 2&#45;&gt;11 -->
<g id="edge55" class="edge">
<title>2&#45;&gt;11</title>
<g id="a_edge55"><a xlink:title="include">
<path fill="none" stroke="#1414ce" d="M397.54,-591.03C553.75,-585.78 953.24,-569.78 1083,-540 1166.98,-520.73 1213.22,-538.33 1263,-468 1323.49,-382.54 1294.13,-247.18 1277.62,-189.96"/>
<polygon fill="#1414ce" stroke="#1414ce" points="1280.93,-188.79 1274.71,-180.21 1274.22,-190.79 1280.93,-188.79"/>
</a>
</g>
</g>
<!-- 2&#45;&gt;6 -->
<g id="edge54" class="edge">
<title>2&#45;&gt;6</title>
<g id="a_edge54"><a xlink:title="include">
<path fill="none" stroke="#1414ce" d="M373.94,-575.94C396.74,-565.94 425.74,-552.8 451,-540 567.45,-481.01 603.62,-475.71 707,-396 721.62,-384.73 800.23,-301.76 839.97,-259.54"/>
<polygon fill="#1414ce" stroke="#1414ce" points="842.61,-261.84 846.91,-252.16 837.51,-257.04 842.61,-261.84"/>
</a>
</g>
</g>
<!-- 2&#45;&gt;19 -->
<g id="edge59" class="edge">
<title>2&#45;&gt;19</title>
<g id="a_edge59"><a xlink:title="include">
<path fill="none" stroke="#1414ce" d="M302.55,-575.78C288.12,-566.65 271.66,-554.35 260,-540 235.62,-509.99 108.05,-245.54 133,-216 162.09,-181.56 284.2,-192.21 343.62,-179.62"/>
<polygon fill="#1414ce" stroke="#1414ce" points="344.77,-182.93 353.61,-177.08 343.05,-176.15 344.77,-182.93"/>
</a>
</g>
</g>
<!-- 2&#45;&gt;27 -->
<g id="edge62" class="edge">
<title>2&#45;&gt;27</title>
<g id="a_edge62"><a xlink:title="include">
<path fill="none" stroke="#1414ce" d="M312.74,-575.77C302.17,-566.22 289.99,-553.55 282,-540 226.99,-446.74 202.88,-317.57 194.59,-262.09"/>
<polygon fill="#1414ce" stroke="#1414ce" points="198.03,-261.41 193.14,-252.01 191.1,-262.4 198.03,-261.41"/>
</a>
</g>
</g>
<!-- 2&#45;&gt;26 -->
<g id="edge58" class="edge">
<title>2&#45;&gt;26</title>
<g id="a_edge58"><a xlink:title="include">
<path fill="none" stroke="#1414ce" d="M380.22,-575.98C397.23,-567.57 415.2,-555.77 427,-540 451.34,-507.46 448,-491.64 448,-451 448,-451 448,-451 448,-377 448,-296.78 551.94,-259.91 617.9,-244.59"/>
<polygon fill="#1414ce" stroke="#1414ce" points="618.74,-247.99 627.74,-242.39 617.22,-241.15 618.74,-247.99"/>
</a>
</g>
</g>
<!-- 16 -->
<g id="node27" class="node">
<title>16</title>
<g id="a_node27"><a xlink:title="ets.h">
<polygon fill="#ffffff" stroke="black" points="418,-540 364,-540 364,-504 418,-504 418,-540"/>
<text text-anchor="middle" x="391" y="-518.3" font-family="Times,serif" font-size="14.00">ets.h</text>
</a>
</g>
</g>
<!-- 2&#45;&gt;16 -->
<g id="edge56" class="edge">
<title>2&#45;&gt;16</title>
<g id="a_edge56"><a xlink:title="include">
<path fill="none" stroke="#1414ce" d="M348.09,-575.7C354.92,-567.3 363.26,-557.07 370.76,-547.86"/>
<polygon fill="#1414ce" stroke="#1414ce" points="373.47,-550.07 377.07,-540.1 368.04,-545.65 373.47,-550.07"/>
</a>
</g>
</g>
<!-- 19&#45;&gt;7 -->
<g id="edge64" class="edge">
<title>19&#45;&gt;7</title>
<g id="a_edge64"><a xlink:title="include">
<path fill="none" stroke="#1414ce" d="M414.2,-149.13C440.62,-138.73 479.57,-123.42 510.85,-111.11"/>
<polygon fill="#1414ce" stroke="#1414ce" points="512.27,-114.32 520.29,-107.4 509.7,-107.8 512.27,-114.32"/>
</a>
</g>
</g>
<!-- 27&#45;&gt;7 -->
<g id="edge65" class="edge">
<title>27&#45;&gt;7</title>
<g id="a_edge65"><a xlink:title="include">
<path fill="none" stroke="#1414ce" d="M240.12,-219.47C244.8,-218.27 249.48,-217.09 254,-216 328.65,-197.99 355.03,-215.74 423,-180 443.59,-169.17 442.08,-157.53 461,-144 477.44,-132.24 496.84,-121.43 514.21,-112.68"/>
<polygon fill="#1414ce" stroke="#1414ce" points="516.2,-115.6 523.62,-108.04 513.1,-109.33 516.2,-115.6"/>
</a>
</g>
</g>
<!-- 27&#45;&gt;17 -->
<g id="edge67" class="edge">
<title>27&#45;&gt;17</title>
<g id="a_edge67"><a xlink:title="include">
<path fill="none" stroke="#1414ce" d="M240.08,-219.31C244.77,-218.14 249.47,-217.01 254,-216 343,-196.1 368.48,-205.61 456,-180 457.43,-179.58 458.88,-179.13 460.34,-178.65"/>
<polygon fill="#1414ce" stroke="#1414ce" points="461.73,-181.87 469.95,-175.18 459.35,-175.28 461.73,-181.87"/>
</a>
</g>
</g>
<!-- 27&#45;&gt;3 -->
<g id="edge66" class="edge">
<title>27&#45;&gt;3</title>
<g id="a_edge66"><a xlink:title="include">
<path fill="none" stroke="#1414ce" d="M183.27,-215.69C176.08,-196.8 168.24,-166.26 181,-144 212.51,-89.05 243.46,-90.65 304,-72 441.9,-29.52 889.58,-21.04 1035.53,-19.39"/>
<polygon fill="#1414ce" stroke="#1414ce" points="1035.95,-22.88 1045.91,-19.28 1035.87,-15.88 1035.95,-22.88"/>
</a>
</g>
</g>
<!-- 26&#45;&gt;7 -->
<g id="edge68" class="edge">
<title>26&#45;&gt;7</title>
<g id="a_edge68"><a xlink:title="include">
<path fill="none" stroke="#1414ce" d="M661.47,-215.9C650.87,-197.44 632.75,-167.54 614,-144 606.17,-134.17 596.77,-124.15 588.12,-115.5"/>
<polygon fill="#1414ce" stroke="#1414ce" points="590.37,-112.8 580.78,-108.29 585.47,-117.8 590.37,-112.8"/>
</a>
</g>
</g>
<!-- 26&#45;&gt;8 -->
<g id="edge71" class="edge">
<title>26&#45;&gt;8</title>
<g id="a_edge71"><a xlink:title="include">
<path fill="none" stroke="#1414ce" d="M710.63,-215.88C735.55,-205.11 767.61,-191.26 792.66,-180.43"/>
<polygon fill="#1414ce" stroke="#1414ce" points="794.1,-183.62 801.89,-176.44 791.32,-177.2 794.1,-183.62"/>
</a>
</g>
</g>
<!-- 26&#45;&gt;17 -->
<g id="edge69" class="edge">
<title>26&#45;&gt;17</title>
<g id="a_edge69"><a xlink:title="include">
<path fill="none" stroke="#1414ce" d="M628.43,-215.88C599.37,-204.18 561.25,-188.85 533.55,-177.7"/>
<polygon fill="#1414ce" stroke="#1414ce" points="534.81,-174.44 524.22,-173.95 532.19,-180.93 534.81,-174.44"/>
</a>
</g>
</g>
<!-- 26&#45;&gt;12 -->
<g id="edge70" class="edge">
<title>26&#45;&gt;12</title>
<g id="a_edge70"><a xlink:title="include">
<path fill="none" stroke="#1414ce" d="M714.23,-223.63C824.4,-199.74 1116.62,-136.39 1253.44,-106.73"/>
<polygon fill="#1414ce" stroke="#1414ce" points="1254.38,-110.11 1263.41,-104.57 1252.9,-103.27 1254.38,-110.11"/>
</a>
</g>
</g>
<!-- 16&#45;&gt;18 -->
<g id="edge73" class="edge">
<title>16&#45;&gt;18</title>
<g id="a_edge73"><a xlink:title="include">
<path fill="none" stroke="#1414ce" d="M392.43,-503.97C396.43,-456.29 407.77,-321.18 412.68,-262.63"/>
<polygon fill="#1414ce" stroke="#1414ce" points="416.2,-262.56 413.55,-252.31 409.22,-261.98 416.2,-262.56"/>
</a>
</g>
</g>
<!-- 16&#45;&gt;17 -->
<g id="edge72" class="edge">
<title>16&#45;&gt;17</title>
<g id="a_edge72"><a xlink:title="include">
<path fill="none" stroke="#1414ce" d="M382.5,-503.92C359.16,-454.34 299.88,-308.12 363,-216 388.05,-179.44 414.86,-196.49 456,-180 457.39,-179.44 458.8,-178.88 460.22,-178.3"/>
<polygon fill="#1414ce" stroke="#1414ce" points="461.76,-181.45 469.69,-174.43 459.11,-174.97 461.76,-181.45"/>
</a>
</g>
</g>
<!-- 16&#45;&gt;20 -->
<g id="edge74" class="edge">
<title>16&#45;&gt;20</title>
<g id="a_edge74"><a xlink:title="include">
<path fill="none" stroke="#1414ce" d="M418.29,-517.81C513.4,-506.7 830.69,-469.62 946.89,-456.04"/>
<polygon fill="#1414ce" stroke="#1414ce" points="947.64,-459.47 957.17,-454.84 946.83,-452.52 947.64,-459.47"/>
</a>
</g>
</g>
</g>
</svg>
