<?xml version="1.0" encoding="UTF-8" standalone="no"?>
<!DOCTYPE svg PUBLIC "-//W3C//DTD SVG 1.1//EN"
 "http://www.w3.org/Graphics/SVG/1.1/DTD/svg11.dtd">
<!-- Generated by graphviz version 2.43.0 (0)
 -->
<!-- Title: %3 Pages: 1 -->
<svg width="3952pt" height="188pt"
 viewBox="0.00 0.00 3952.00 188.00" xmlns="http://www.w3.org/2000/svg" xmlns:xlink="http://www.w3.org/1999/xlink">
<g id="graph0" class="graph" transform="scale(1 1) rotate(0) translate(4 184)">
<title>%3</title>
<polygon fill="transparent" stroke="transparent" points="-4,4 -4,-184 3948,-184 3948,4 -4,4"/>
<!-- 5 -->
<g id="node1" class="node">
<title>5</title>
<g id="a_node1"><a xlink:title="/__w/AtomVM/AtomVM/src/libAtomVM/nifs.c">
<polygon fill="#ffffff" stroke="black" points="332,-108 0,-108 0,-72 332,-72 332,-108"/>
<text text-anchor="middle" x="166" y="-86.3" font-family="Times,serif" font-size="14.00">/__w/AtomVM/AtomVM/src/libAtomVM/nifs.c</text>
</a>
</g>
</g>
<!-- 1 -->
<g id="node2" class="node">
<title>1</title>
<g id="a_node2"><a xlink:title="/__w/AtomVM/AtomVM/src/libAtomVM/nifs.h">
<polygon fill="#bfbfbf" stroke="black" points="2199.5,-180 1866.5,-180 1866.5,-144 2199.5,-144 2199.5,-180"/>
<text text-anchor="middle" x="2033" y="-158.3" font-family="Times,serif" font-size="14.00">/__w/AtomVM/AtomVM/src/libAtomVM/nifs.h</text>
</a>
</g>
</g>
<!-- 1&#45;&gt;5 -->
<g id="edge4" class="edge">
<title>1&#45;&gt;5</title>
<g id="a_edge4"><a xlink:title="include">
<path fill="none" stroke="#1414ce" d="M1855.85,-159.27C1547.65,-155.4 892.9,-143.41 341,-108 338.11,-107.81 335.19,-107.62 332.25,-107.42"/>
<polygon fill="#1414ce" stroke="#1414ce" points="1856.17,-162.77 1866.22,-159.4 1856.26,-155.77 1856.17,-162.77"/>
</a>
</g>
</g>
<!-- 3 -->
<g id="node3" class="node">
<title>3</title>
<g id="a_node3"><a xlink:title="/__w/AtomVM/AtomVM/src/libAtomVM/jit.c">
<polygon fill="#ffffff" stroke="black" points="670,-108 350,-108 350,-72 670,-72 670,-108"/>
<text text-anchor="middle" x="510" y="-86.3" font-family="Times,serif" font-size="14.00">/__w/AtomVM/AtomVM/src/libAtomVM/jit.c</text>
</a>
</g>
</g>
<!-- 1&#45;&gt;3 -->
<g id="edge2" class="edge">
<title>1&#45;&gt;3</title>
<g id="a_edge2"><a xlink:title="include">
<path fill="none" stroke="#1414ce" d="M1856.22,-157.33C1598.3,-151.23 1103.83,-136.73 684,-108 679.46,-107.69 674.85,-107.36 670.2,-107.01"/>
<polygon fill="#1414ce" stroke="#1414ce" points="1856.35,-160.83 1866.43,-157.57 1856.51,-153.84 1856.35,-160.83"/>
</a>
</g>
</g>
<!-- 6 -->
<g id="node4" class="node">
<title>6</title>
<g id="a_node4"><a xlink:title="/__w/AtomVM/AtomVM/src/libAtomVM/otp_crypto.c">
<polygon fill="#ffffff" stroke="black" points="998.5,-36 617.5,-36 617.5,0 998.5,0 998.5,-36"/>
<text text-anchor="middle" x="808" y="-14.3" font-family="Times,serif" font-size="14.00">/__w/AtomVM/AtomVM/src/libAtomVM/otp_crypto.c</text>
</a>
</g>
</g>
<!-- 1&#45;&gt;6 -->
<g id="edge5" class="edge">
<title>1&#45;&gt;6</title>
<g id="a_edge5"><a xlink:title="include">
<path fill="none" stroke="#1414ce" d="M1855.97,-160.29C1505.77,-158.01 754.83,-148.42 716,-108 704.92,-96.46 707.99,-85.85 716,-72 725.32,-55.88 741.6,-44.23 757.91,-36.03"/>
<polygon fill="#1414ce" stroke="#1414ce" points="1856.19,-163.79 1866.21,-160.36 1856.24,-156.79 1856.19,-163.79"/>
</a>
</g>
</g>
<!-- 7 -->
<g id="node6" class="node">
<title>7</title>
<g id="a_node6"><a xlink:title="/__w/AtomVM/AtomVM/src/libAtomVM/otp_crypto.h">
<polygon fill="#ffffff" stroke="black" points="1108.5,-108 725.5,-108 725.5,-72 1108.5,-72 1108.5,-108"/>
<text text-anchor="middle" x="917" y="-86.3" font-family="Times,serif" font-size="14.00">/__w/AtomVM/AtomVM/src/libAtomVM/otp_crypto.h</text>
</a>
</g>
</g>
<!-- 1&#45;&gt;7 -->
<g id="edge6" class="edge">
<title>1&#45;&gt;7</title>
<g id="a_edge6"><a xlink:title="include">
<path fill="none" stroke="#1414ce" d="M1856.31,-152.16C1671.95,-142.6 1374.57,-126.28 1118,-108 1114.94,-107.78 1111.86,-107.56 1108.76,-107.33"/>
<polygon fill="#1414ce" stroke="#1414ce" points="1856.2,-155.66 1866.37,-152.68 1856.56,-148.67 1856.2,-155.66"/>
</a>
</g>
</g>
<!-- 14 -->
<g id="node7" class="node">
<title>14</title>
<g id="a_node7"><a xlink:title="/__w/AtomVM/AtomVM/src/libAtomVM/portnifloader.h">
<polygon fill="#ffffff" stroke="black" points="1525,-108 1127,-108 1127,-72 1525,-72 1525,-108"/>
<text text-anchor="middle" x="1326" y="-86.3" font-family="Times,serif" font-size="14.00">/__w/AtomVM/AtomVM/src/libAtomVM/portnifloader.h</text>
</a>
</g>
</g>
<!-- 1&#45;&gt;14 -->
<g id="edge13" class="edge">
<title>1&#45;&gt;14</title>
<g id="a_edge13"><a xlink:title="include">
<path fill="none" stroke="#1414ce" d="M1856.18,-143.49C1746.63,-132.65 1606.62,-118.78 1497.99,-108.03"/>
<polygon fill="#1414ce" stroke="#1414ce" points="1856.05,-147 1866.35,-144.5 1856.74,-140.03 1856.05,-147"/>
</a>
</g>
</g>
<!-- 4 -->
<g id="node8" class="node">
<title>4</title>
<g id="a_node8"><a xlink:title="/__w/AtomVM/AtomVM/src/libAtomVM/module.c">
<polygon fill="#ffffff" stroke="black" points="1901,-108 1543,-108 1543,-72 1901,-72 1901,-108"/>
<text text-anchor="middle" x="1722" y="-86.3" font-family="Times,serif" font-size="14.00">/__w/AtomVM/AtomVM/src/libAtomVM/module.c</text>
</a>
</g>
</g>
<!-- 1&#45;&gt;4 -->
<g id="edge3" class="edge">
<title>1&#45;&gt;4</title>
<g id="a_edge3"><a xlink:title="include">
<path fill="none" stroke="#1414ce" d="M1947.49,-141.75C1900.61,-131.2 1843,-118.24 1797.75,-108.05"/>
<polygon fill="#1414ce" stroke="#1414ce" points="1946.79,-145.18 1957.32,-143.97 1948.33,-138.36 1946.79,-145.18"/>
</a>
</g>
</g>
<!-- 8 -->
<g id="node9" class="node">
<title>8</title>
<g id="a_node9"><a xlink:title="/__w/AtomVM/AtomVM/src/libAtomVM/otp_net.c">
<polygon fill="#ffffff" stroke="black" points="2212.5,-36 1853.5,-36 1853.5,0 2212.5,0 2212.5,-36"/>
<text text-anchor="middle" x="2033" y="-14.3" font-family="Times,serif" font-size="14.00">/__w/AtomVM/AtomVM/src/libAtomVM/otp_net.c</text>
</a>
</g>
</g>
<!-- 1&#45;&gt;8 -->
<g id="edge7" class="edge">
<title>1&#45;&gt;8</title>
<g id="a_edge7"><a xlink:title="include">
<path fill="none" stroke="#1414ce" d="M1979.27,-138.81C1966.81,-130.99 1955.13,-120.85 1948,-108 1940.24,-94.01 1940.24,-85.99 1948,-72 1956.78,-56.19 1972.45,-44.47 1987.97,-36.14"/>
<polygon fill="#1414ce" stroke="#1414ce" points="1977.56,-141.87 1987.97,-143.86 1981.08,-135.81 1977.56,-141.87"/>
</a>
</g>
</g>
<!-- 9 -->
<g id="node10" class="node">
<title>9</title>
<g id="a_node10"><a xlink:title="/__w/AtomVM/AtomVM/src/libAtomVM/otp_net.h">
<polygon fill="#ffffff" stroke="black" points="2317,-108 1957,-108 1957,-72 2317,-72 2317,-108"/>
<text text-anchor="middle" x="2137" y="-86.3" font-family="Times,serif" font-size="14.00">/__w/AtomVM/AtomVM/src/libAtomVM/otp_net.h</text>
</a>
</g>
</g>
<!-- 1&#45;&gt;9 -->
<g id="edge8" class="edge">
<title>1&#45;&gt;9</title>
<g id="a_edge8"><a xlink:title="include">
<path fill="none" stroke="#1414ce" d="M2067.12,-138.04C2081.56,-128.32 2098.1,-117.18 2111.46,-108.19"/>
<polygon fill="#1414ce" stroke="#1414ce" points="2064.78,-135.39 2058.44,-143.88 2068.69,-141.2 2064.78,-135.39"/>
</a>
</g>
</g>
<!-- 2 -->
<g id="node11" class="node">
<title>2</title>
<g id="a_node11"><a xlink:title="/__w/AtomVM/AtomVM/src/libAtomVM/dist_nifs.c">
<polygon fill="#ffffff" stroke="black" points="2700.5,-108 2335.5,-108 2335.5,-72 2700.5,-72 2700.5,-108"/>
<text text-anchor="middle" x="2518" y="-86.3" font-family="Times,serif" font-size="14.00">/__w/AtomVM/AtomVM/src/libAtomVM/dist_nifs.c</text>
</a>
</g>
</g>
<!-- 1&#45;&gt;2 -->
<g id="edge1" class="edge">
<title>1&#45;&gt;2</title>
<g id="a_edge1"><a xlink:title="include">
<path fill="none" stroke="#1414ce" d="M2161.34,-142.48C2235.32,-131.8 2327.68,-118.47 2399.87,-108.05"/>
<polygon fill="#1414ce" stroke="#1414ce" points="2160.42,-139.07 2151.02,-143.97 2161.42,-146 2160.42,-139.07"/>
</a>
</g>
</g>
<!-- 10 -->
<g id="node12" class="node">
<title>10</title>
<g id="a_node12"><a xlink:title="/__w/AtomVM/AtomVM/src/libAtomVM/otp_socket.c">
<polygon fill="#ffffff" stroke="black" points="2944.5,-36 2563.5,-36 2563.5,0 2944.5,0 2944.5,-36"/>
<text text-anchor="middle" x="2754" y="-14.3" font-family="Times,serif" font-size="14.00">/__w/AtomVM/AtomVM/src/libAtomVM/otp_socket.c</text>
</a>
</g>
</g>
<!-- 1&#45;&gt;10 -->
<g id="edge9" class="edge">
<title>1&#45;&gt;10</title>
<g id="a_edge9"><a xlink:title="include">
<path fill="none" stroke="#1414ce" d="M2210.04,-156.03C2396.4,-149.4 2668.43,-135.19 2709,-108 2733.74,-91.42 2745.55,-56.94 2750.63,-36.1"/>
<polygon fill="#1414ce" stroke="#1414ce" points="2209.71,-152.54 2199.84,-156.39 2209.96,-159.54 2209.71,-152.54"/>
</a>
</g>
</g>
<!-- 11 -->
<g id="node13" class="node">
<title>11</title>
<g id="a_node13"><a xlink:title="/__w/AtomVM/AtomVM/src/libAtomVM/otp_socket.h">
<polygon fill="#ffffff" stroke="black" points="3138.5,-108 2755.5,-108 2755.5,-72 3138.5,-72 3138.5,-108"/>
<text text-anchor="middle" x="2947" y="-86.3" font-family="Times,serif" font-size="14.00">/__w/AtomVM/AtomVM/src/libAtomVM/otp_socket.h</text>
</a>
</g>
</g>
<!-- 1&#45;&gt;11 -->
<g id="edge10" class="edge">
<title>1&#45;&gt;11</title>
<g id="a_edge10"><a xlink:title="include">
<path fill="none" stroke="#1414ce" d="M2209.78,-148.19C2353.23,-137.69 2560.7,-122.29 2742,-108 2746.45,-107.65 2750.95,-107.29 2755.5,-106.93"/>
<polygon fill="#1414ce" stroke="#1414ce" points="2209.28,-144.71 2199.56,-148.93 2209.79,-151.69 2209.28,-144.71"/>
</a>
</g>
</g>
<!-- 12 -->
<g id="node14" class="node">
<title>12</title>
<g id="a_node14"><a xlink:title="/__w/AtomVM/AtomVM/src/libAtomVM/otp_ssl.c">
<polygon fill="#ffffff" stroke="black" points="3343.5,-36 2988.5,-36 2988.5,0 3343.5,0 3343.5,-36"/>
<text text-anchor="middle" x="3166" y="-14.3" font-family="Times,serif" font-size="14.00">/__w/AtomVM/AtomVM/src/libAtomVM/otp_ssl.c</text>
</a>
</g>
</g>
<!-- 1&#45;&gt;12 -->
<g id="edge11" class="edge">
<title>1&#45;&gt;12</title>
<g id="a_edge11"><a xlink:title="include">
<path fill="none" stroke="#1414ce" d="M2209.82,-158.19C2515.1,-152.55 3111.94,-137.77 3147,-108 3167.59,-90.51 3169.15,-56.68 3167.92,-36.14"/>
<polygon fill="#1414ce" stroke="#1414ce" points="2209.47,-154.69 2199.54,-158.37 2209.6,-161.69 2209.47,-154.69"/>
</a>
</g>
</g>
<!-- 13 -->
<g id="node15" class="node">
<title>13</title>
<g id="a_node15"><a xlink:title="/__w/AtomVM/AtomVM/src/libAtomVM/otp_ssl.h">
<polygon fill="#ffffff" stroke="black" points="3550,-108 3194,-108 3194,-72 3550,-72 3550,-108"/>
<text text-anchor="middle" x="3372" y="-86.3" font-family="Times,serif" font-size="14.00">/__w/AtomVM/AtomVM/src/libAtomVM/otp_ssl.h</text>
</a>
</g>
</g>
<!-- 1&#45;&gt;13 -->
<g id="edge12" class="edge">
<title>1&#45;&gt;13</title>
<g id="a_edge12"><a xlink:title="include">
<path fill="none" stroke="#1414ce" d="M2210.08,-155.13C2435.52,-147.13 2836.96,-131.1 3180,-108 3184.59,-107.69 3189.24,-107.37 3193.94,-107.03"/>
<polygon fill="#1414ce" stroke="#1414ce" points="2209.68,-151.65 2199.81,-155.5 2209.92,-158.64 2209.68,-151.65"/>
</a>
</g>
</g>
<!-- 16 -->
<g id="node16" class="node">
<title>16</title>
<g id="a_node16"><a xlink:title="/__w/AtomVM/AtomVM/src/libAtomVM/posix_nifs.c">
<polygon fill="#ffffff" stroke="black" points="3944,-108 3568,-108 3568,-72 3944,-72 3944,-108"/>
<text text-anchor="middle" x="3756" y="-86.3" font-family="Times,serif" font-size="14.00">/__w/AtomVM/AtomVM/src/libAtomVM/posix_nifs.c</text>
</a>
</g>
</g>
<!-- 1&#45;&gt;16 -->
<g id="edge14" class="edge">
<title>1&#45;&gt;16</title>
<g id="a_edge14"><a xlink:title="include">
<path fill="none" stroke="#1414ce" d="M2210.08,-157.8C2494.63,-152 3071.21,-137.5 3559,-108 3561.91,-107.82 3564.85,-107.64 3567.8,-107.45"/>
<polygon fill="#1414ce" stroke="#1414ce" points="2209.59,-154.31 2199.67,-158.01 2209.73,-161.31 2209.59,-154.31"/>
</a>
</g>
</g>
<!-- 15 -->
<g id="node5" class="node">
<title>15</title>
<g id="a_node5"><a xlink:title="/__w/AtomVM/AtomVM/src/libAtomVM/portnifloader.c">
<polygon fill="#ffffff" stroke="black" points="1524.5,-36 1127.5,-36 1127.5,0 1524.5,0 1524.5,-36"/>
<text text-anchor="middle" x="1326" y="-14.3" font-family="Times,serif" font-size="14.00">/__w/AtomVM/AtomVM/src/libAtomVM/portnifloader.c</text>
</a>
</g>
</g>
<!-- 7&#45;&gt;6 -->
<g id="edge15" class="edge">
<title>7&#45;&gt;6</title>
<g id="a_edge15"><a xlink:title="include">
<path fill="none" stroke="#1414ce" d="M881.67,-66.31C866.43,-56.53 848.9,-45.27 834.77,-36.19"/>
<polygon fill="#1414ce" stroke="#1414ce" points="880.03,-69.42 890.34,-71.88 883.81,-63.53 880.03,-69.42"/>
</a>
</g>
</g>
<!-- 14&#45;&gt;15 -->
<g id="edge16" class="edge">
<title>14&#45;&gt;15</title>
<g id="a_edge16"><a xlink:title="include">
<path fill="none" stroke="#1414ce" d="M1326,-61.67C1326,-53.05 1326,-43.79 1326,-36.1"/>
<polygon fill="#1414ce" stroke="#1414ce" points="1322.5,-61.7 1326,-71.7 1329.5,-61.7 1322.5,-61.7"/>
</a>
</g>
</g>
<!-- 9&#45;&gt;8 -->
<g id="edge17" class="edge">
<title>9&#45;&gt;8</title>
<g id="a_edge17"><a xlink:title="include">
<path fill="none" stroke="#1414ce" d="M2102.88,-66.04C2088.44,-56.32 2071.9,-45.18 2058.54,-36.19"/>
<polygon fill="#1414ce" stroke="#1414ce" points="2101.31,-69.2 2111.56,-71.88 2105.22,-63.39 2101.31,-69.2"/>
</a>
</g>
</g>
<!-- 11&#45;&gt;10 -->
<g id="edge18" class="edge">
<title>11&#45;&gt;10</title>
<g id="a_edge18"><a xlink:title="include">
<path fill="none" stroke="#1414ce" d="M2890.02,-68.33C2861.7,-58.06 2827.89,-45.8 2801.06,-36.07"/>
<polygon fill="#1414ce" stroke="#1414ce" points="2889.19,-71.76 2899.79,-71.88 2891.58,-65.18 2889.19,-71.76"/>
</a>
</g>
</g>
<!-- 11&#45;&gt;12 -->
<g id="edge19" class="edge">
<title>11&#45;&gt;12</title>
<g id="a_edge19"><a xlink:title="include">
<path fill="none" stroke="#1414ce" d="M3010.12,-68.83C3042.52,-58.47 3081.56,-45.99 3112.47,-36.11"/>
<polygon fill="#1414ce" stroke="#1414ce" points="3008.75,-65.59 3000.29,-71.97 3010.88,-72.25 3008.75,-65.59"/>
</a>
</g>
</g>
<!-- 13&#45;&gt;12 -->
<g id="edge20" class="edge">
<title>13&#45;&gt;12</title>
<g id="a_edge20"><a xlink:title="include">
<path fill="none" stroke="#1414ce" d="M3312.23,-68.69C3281.84,-58.36 3245.3,-45.95 3216.35,-36.11"/>
<polygon fill="#1414ce" stroke="#1414ce" points="3311.28,-72.06 3321.87,-71.97 3313.53,-65.43 3311.28,-72.06"/>
</a>
</g>
</g>
</g>
</svg>
