<?xml version="1.0" encoding="UTF-8" standalone="no"?>
<!DOCTYPE svg PUBLIC "-//W3C//DTD SVG 1.1//EN"
 "http://www.w3.org/Graphics/SVG/1.1/DTD/svg11.dtd">
<!-- Generated by graphviz version 2.43.0 (0)
 -->
<!-- Title: %3 Pages: 1 -->
<svg width="1706pt" height="836pt"
 viewBox="0.00 0.00 1706.00 836.00" xmlns="http://www.w3.org/2000/svg" xmlns:xlink="http://www.w3.org/1999/xlink">
<g id="graph0" class="graph" transform="scale(1 1) rotate(0) translate(4 832)">
<title>%3</title>
<polygon fill="transparent" stroke="transparent" points="-4,4 -4,-832 1702,-832 1702,4 -4,4"/>
<!-- 8 -->
<g id="node1" class="node">
<title>8</title>
<g id="a_node1"><a xlink:title="stdbool.h">
<polygon fill="#ffffff" stroke="black" points="660.5,-108 577.5,-108 577.5,-72 660.5,-72 660.5,-108"/>
<text text-anchor="middle" x="619" y="-86.3" font-family="Times,serif" font-size="14.00">stdbool.h</text>
</a>
</g>
</g>
<!-- 25 -->
<g id="node2" class="node">
<title>25</title>
<g id="a_node2"><a xlink:title="refc_binary.h">
<polygon fill="#ffffff" stroke="black" points="992,-396 884,-396 884,-360 992,-360 992,-396"/>
<text text-anchor="middle" x="938" y="-374.3" font-family="Times,serif" font-size="14.00">refc_binary.h</text>
</a>
</g>
</g>
<!-- 25&#45;&gt;8 -->
<g id="edge1" class="edge">
<title>25&#45;&gt;8</title>
<g id="a_edge1"><a xlink:title="include">
<path fill="none" stroke="#1414ce" d="M930.04,-359.9C914.7,-328.36 878.41,-260.19 832,-216 809.2,-194.29 796.71,-198.17 771,-180 750.64,-165.62 748.92,-157.55 728,-144 709.56,-132.06 688.03,-121.04 669,-112.18"/>
<polygon fill="#1414ce" stroke="#1414ce" points="670.43,-108.98 659.88,-108.01 667.52,-115.35 670.43,-108.98"/>
</a>
</g>
</g>
<!-- 18 -->
<g id="node8" class="node">
<title>18</title>
<g id="a_node8"><a xlink:title="list.h">
<polygon fill="#ffffff" stroke="black" points="409,-180 355,-180 355,-144 409,-144 409,-180"/>
<text text-anchor="middle" x="382" y="-158.3" font-family="Times,serif" font-size="14.00">list.h</text>
</a>
</g>
</g>
<!-- 25&#45;&gt;18 -->
<g id="edge3" class="edge">
<title>25&#45;&gt;18</title>
<g id="a_edge3"><a xlink:title="include">
<path fill="none" stroke="#1414ce" d="M883.62,-371.68C761,-358.56 468.4,-320.65 401,-252 385.22,-235.92 381.12,-210.14 380.59,-190.46"/>
<polygon fill="#1414ce" stroke="#1414ce" points="384.09,-190.26 380.61,-180.25 377.09,-190.24 384.09,-190.26"/>
</a>
</g>
</g>
<!-- 6 -->
<g id="node11" class="node">
<title>6</title>
<g id="a_node11"><a xlink:title="stdlib.h">
<polygon fill="#ffffff" stroke="black" points="1306.5,-108 1235.5,-108 1235.5,-72 1306.5,-72 1306.5,-108"/>
<text text-anchor="middle" x="1271" y="-86.3" font-family="Times,serif" font-size="14.00">stdlib.h</text>
</a>
</g>
</g>
<!-- 25&#45;&gt;6 -->
<g id="edge2" class="edge">
<title>25&#45;&gt;6</title>
<g id="a_edge2"><a xlink:title="include">
<path fill="none" stroke="#1414ce" d="M973.9,-359.88C1032.63,-330.36 1149.99,-264.77 1223,-180 1239.12,-161.28 1252.02,-136.25 1260.37,-117.5"/>
<polygon fill="#1414ce" stroke="#1414ce" points="1263.69,-118.65 1264.42,-108.08 1257.26,-115.88 1263.69,-118.65"/>
</a>
</g>
</g>
<!-- 26 -->
<g id="node16" class="node">
<title>26</title>
<g id="a_node16"><a xlink:title="resources.h">
<polygon fill="#ffffff" stroke="black" points="1022,-324 922,-324 922,-288 1022,-288 1022,-324"/>
<text text-anchor="middle" x="972" y="-302.3" font-family="Times,serif" font-size="14.00">resources.h</text>
</a>
</g>
</g>
<!-- 25&#45;&gt;26 -->
<g id="edge4" class="edge">
<title>25&#45;&gt;26</title>
<g id="a_edge4"><a xlink:title="include">
<path fill="none" stroke="#1414ce" d="M946.4,-359.7C950.27,-351.73 954.95,-342.1 959.24,-333.26"/>
<polygon fill="#1414ce" stroke="#1414ce" points="962.47,-334.63 963.69,-324.1 956.17,-331.57 962.47,-334.63"/>
</a>
</g>
</g>
<!-- 34 -->
<g id="node3" class="node">
<title>34</title>
<g id="a_node3"><a xlink:title="nifs.h">
<polygon fill="#ffffff" stroke="black" points="721,-756 665,-756 665,-720 721,-720 721,-756"/>
<text text-anchor="middle" x="693" y="-734.3" font-family="Times,serif" font-size="14.00">nifs.h</text>
</a>
</g>
</g>
<!-- 5 -->
<g id="node4" class="node">
<title>5</title>
<g id="a_node4"><a xlink:title="atom.h">
<polygon fill="#ffffff" stroke="black" points="676,-396 610,-396 610,-360 676,-360 676,-396"/>
<text text-anchor="middle" x="643" y="-374.3" font-family="Times,serif" font-size="14.00">atom.h</text>
</a>
</g>
</g>
<!-- 34&#45;&gt;5 -->
<g id="edge5" class="edge">
<title>34&#45;&gt;5</title>
<g id="a_edge5"><a xlink:title="include">
<path fill="none" stroke="#1414ce" d="M694.38,-719.96C696.42,-693.32 700,-640.17 700,-595 700,-595 700,-595 700,-521 700,-477.8 677,-432.19 660.22,-404.66"/>
<polygon fill="#1414ce" stroke="#1414ce" points="663.09,-402.65 654.81,-396.04 657.17,-406.37 663.09,-402.65"/>
</a>
</g>
</g>
<!-- 2 -->
<g id="node12" class="node">
<title>2</title>
<g id="a_node12"><a xlink:title="context.h">
<polygon fill="#ffffff" stroke="black" points="671.5,-684 588.5,-684 588.5,-648 671.5,-648 671.5,-684"/>
<text text-anchor="middle" x="630" y="-662.3" font-family="Times,serif" font-size="14.00">context.h</text>
</a>
</g>
</g>
<!-- 34&#45;&gt;2 -->
<g id="edge6" class="edge">
<title>34&#45;&gt;2</title>
<g id="a_edge6"><a xlink:title="include">
<path fill="none" stroke="#1414ce" d="M677.43,-719.7C669.8,-711.22 660.48,-700.86 652.12,-691.58"/>
<polygon fill="#1414ce" stroke="#1414ce" points="654.69,-689.2 645.39,-684.1 649.48,-693.88 654.69,-689.2"/>
</a>
</g>
</g>
<!-- 33 -->
<g id="node20" class="node">
<title>33</title>
<g id="a_node20"><a xlink:title="exportedfunction.h">
<polygon fill="#ffffff" stroke="black" points="1350,-540 1198,-540 1198,-504 1350,-504 1350,-540"/>
<text text-anchor="middle" x="1274" y="-518.3" font-family="Times,serif" font-size="14.00">exportedfunction.h</text>
</a>
</g>
</g>
<!-- 34&#45;&gt;33 -->
<g id="edge7" class="edge">
<title>34&#45;&gt;33</title>
<g id="a_edge7"><a xlink:title="include">
<path fill="none" stroke="#1414ce" d="M721.1,-731.82C792.02,-718.14 983.17,-677.55 1131,-612 1171.7,-593.95 1214.57,-565.89 1242.63,-546.11"/>
<polygon fill="#1414ce" stroke="#1414ce" points="1244.73,-548.91 1250.84,-540.26 1240.67,-543.21 1244.73,-548.91"/>
</a>
</g>
</g>
<!-- 4 -->
<g id="node9" class="node">
<title>4</title>
<g id="a_node9"><a xlink:title="stdint.h">
<polygon fill="#ffffff" stroke="black" points="1025,-36 953,-36 953,0 1025,0 1025,-36"/>
<text text-anchor="middle" x="989" y="-14.3" font-family="Times,serif" font-size="14.00">stdint.h</text>
</a>
</g>
</g>
<!-- 5&#45;&gt;4 -->
<g id="edge8" class="edge">
<title>5&#45;&gt;4</title>
<g id="a_edge8"><a xlink:title="include">
<path fill="none" stroke="#1414ce" d="M609.99,-374.69C501.68,-366.36 160.33,-333.92 95,-252 85.02,-239.49 87.48,-230.12 95,-216 158.36,-96.99 231.49,-105.83 362,-72 471.93,-43.51 816.85,-26.34 942.56,-20.89"/>
<polygon fill="#1414ce" stroke="#1414ce" points="942.8,-24.39 952.64,-20.46 942.5,-17.39 942.8,-24.39"/>
</a>
</g>
</g>
<!-- 5&#45;&gt;6 -->
<g id="edge9" class="edge">
<title>5&#45;&gt;6</title>
<g id="a_edge9"><a xlink:title="include">
<path fill="none" stroke="#1414ce" d="M676.31,-364.71C786.84,-323.88 1135.74,-194.46 1157,-180 1174.95,-167.79 1173.46,-158.05 1190,-144 1202.92,-133.02 1218.24,-122.47 1232.06,-113.7"/>
<polygon fill="#1414ce" stroke="#1414ce" points="1234.24,-116.47 1240.89,-108.22 1230.54,-110.52 1234.24,-116.47"/>
</a>
</g>
</g>
<!-- 14 -->
<g id="node5" class="node">
<title>14</title>
<g id="a_node5"><a xlink:title="assert.h">
<polygon fill="#ffffff" stroke="black" points="1695,-36 1621,-36 1621,0 1695,0 1695,-36"/>
<text text-anchor="middle" x="1658" y="-14.3" font-family="Times,serif" font-size="14.00">assert.h</text>
</a>
</g>
</g>
<!-- 9 -->
<g id="node6" class="node">
<title>9</title>
<g id="a_node6"><a xlink:title="utils.h">
<polygon fill="#ffffff" stroke="black" points="1148,-180 1086,-180 1086,-144 1148,-144 1148,-180"/>
<text text-anchor="middle" x="1117" y="-158.3" font-family="Times,serif" font-size="14.00">utils.h</text>
</a>
</g>
</g>
<!-- 9&#45;&gt;6 -->
<g id="edge12" class="edge">
<title>9&#45;&gt;6</title>
<g id="a_edge12"><a xlink:title="include">
<path fill="none" stroke="#1414ce" d="M1148.16,-146.83C1170.53,-136.67 1201.01,-122.81 1226.01,-111.45"/>
<polygon fill="#1414ce" stroke="#1414ce" points="1227.64,-114.55 1235.3,-107.23 1224.75,-108.18 1227.64,-114.55"/>
</a>
</g>
</g>
<!-- 10 -->
<g id="node18" class="node">
<title>10</title>
<g id="a_node18"><a xlink:title="stddef.h">
<polygon fill="#ffffff" stroke="black" points="961,-108 887,-108 887,-72 961,-72 961,-108"/>
<text text-anchor="middle" x="924" y="-86.3" font-family="Times,serif" font-size="14.00">stddef.h</text>
</a>
</g>
</g>
<!-- 9&#45;&gt;10 -->
<g id="edge10" class="edge">
<title>9&#45;&gt;10</title>
<g id="a_edge10"><a xlink:title="include">
<path fill="none" stroke="#1414ce" d="M1085.99,-149.75C1054.92,-138.48 1006.7,-121 970.94,-108.03"/>
<polygon fill="#1414ce" stroke="#1414ce" points="971.8,-104.62 961.21,-104.5 969.42,-111.2 971.8,-104.62"/>
</a>
</g>
</g>
<!-- 11 -->
<g id="node32" class="node">
<title>11</title>
<g id="a_node32"><a xlink:title="stdio.h">
<polygon fill="#ffffff" stroke="black" points="1149.5,-108 1084.5,-108 1084.5,-72 1149.5,-72 1149.5,-108"/>
<text text-anchor="middle" x="1117" y="-86.3" font-family="Times,serif" font-size="14.00">stdio.h</text>
</a>
</g>
</g>
<!-- 9&#45;&gt;11 -->
<g id="edge11" class="edge">
<title>9&#45;&gt;11</title>
<g id="a_edge11"><a xlink:title="include">
<path fill="none" stroke="#1414ce" d="M1117,-143.7C1117,-135.98 1117,-126.71 1117,-118.11"/>
<polygon fill="#1414ce" stroke="#1414ce" points="1120.5,-118.1 1117,-108.1 1113.5,-118.1 1120.5,-118.1"/>
</a>
</g>
</g>
<!-- 19 -->
<g id="node7" class="node">
<title>19</title>
<g id="a_node7"><a xlink:title="synclist.h">
<polygon fill="#ffffff" stroke="black" points="495.5,-252 410.5,-252 410.5,-216 495.5,-216 495.5,-252"/>
<text text-anchor="middle" x="453" y="-230.3" font-family="Times,serif" font-size="14.00">synclist.h</text>
</a>
</g>
</g>
<!-- 19&#45;&gt;18 -->
<g id="edge14" class="edge">
<title>19&#45;&gt;18</title>
<g id="a_edge14"><a xlink:title="include">
<path fill="none" stroke="#1414ce" d="M435.45,-215.7C426.77,-207.14 416.14,-196.66 406.65,-187.3"/>
<polygon fill="#1414ce" stroke="#1414ce" points="408.93,-184.63 399.35,-180.1 404.01,-189.62 408.93,-184.63"/>
</a>
</g>
</g>
<!-- 20 -->
<g id="node28" class="node">
<title>20</title>
<g id="a_node28"><a xlink:title="smp.h">
<polygon fill="#ffffff" stroke="black" points="530,-180 470,-180 470,-144 530,-144 530,-180"/>
<text text-anchor="middle" x="500" y="-158.3" font-family="Times,serif" font-size="14.00">smp.h</text>
</a>
</g>
</g>
<!-- 19&#45;&gt;20 -->
<g id="edge15" class="edge">
<title>19&#45;&gt;20</title>
<g id="a_edge15"><a xlink:title="include">
<path fill="none" stroke="#1414ce" d="M464.62,-215.7C470.14,-207.47 476.85,-197.48 482.93,-188.42"/>
<polygon fill="#1414ce" stroke="#1414ce" points="485.85,-190.36 488.52,-180.1 480.04,-186.46 485.85,-190.36"/>
</a>
</g>
</g>
<!-- 19&#45;&gt;11 -->
<g id="edge13" class="edge">
<title>19&#45;&gt;11</title>
<g id="a_edge13"><a xlink:title="include">
<path fill="none" stroke="#1414ce" d="M495.59,-229.36C629.4,-217.89 1032.93,-183.09 1039,-180 1053.6,-172.57 1080.26,-139.88 1098.3,-116.27"/>
<polygon fill="#1414ce" stroke="#1414ce" points="1101.28,-118.14 1104.52,-108.05 1095.7,-113.91 1101.28,-118.14"/>
</a>
</g>
</g>
<!-- 18&#45;&gt;8 -->
<g id="edge16" class="edge">
<title>18&#45;&gt;8</title>
<g id="a_edge16"><a xlink:title="include">
<path fill="none" stroke="#1414ce" d="M409.19,-152.97C447.75,-141.58 519.04,-120.52 567.72,-106.15"/>
<polygon fill="#1414ce" stroke="#1414ce" points="568.84,-109.46 577.44,-103.27 566.86,-102.75 568.84,-109.46"/>
</a>
</g>
</g>
<!-- 30 -->
<g id="node10" class="node">
<title>30</title>
<g id="a_node10"><a xlink:title="jit.h">
<polygon fill="#ffffff" stroke="black" points="1122,-612 1068,-612 1068,-576 1122,-576 1122,-612"/>
<text text-anchor="middle" x="1095" y="-590.3" font-family="Times,serif" font-size="14.00">jit.h</text>
</a>
</g>
</g>
<!-- 30&#45;&gt;8 -->
<g id="edge21" class="edge">
<title>30&#45;&gt;8</title>
<g id="a_edge21"><a xlink:title="include">
<path fill="none" stroke="#1414ce" d="M1067.79,-581.01C988.82,-544.63 758.78,-427.2 657,-252 632.27,-209.42 623.62,-151.67 620.6,-118.16"/>
<polygon fill="#1414ce" stroke="#1414ce" points="624.09,-117.87 619.81,-108.18 617.11,-118.42 624.09,-117.87"/>
</a>
</g>
</g>
<!-- 21 -->
<g id="node17" class="node">
<title>21</title>
<g id="a_node17"><a xlink:title="term.h">
<polygon fill="#ffffff" stroke="black" points="1270.5,-468 1205.5,-468 1205.5,-432 1270.5,-432 1270.5,-468"/>
<text text-anchor="middle" x="1238" y="-446.3" font-family="Times,serif" font-size="14.00">term.h</text>
</a>
</g>
</g>
<!-- 30&#45;&gt;21 -->
<g id="edge19" class="edge">
<title>30&#45;&gt;21</title>
<g id="a_edge19"><a xlink:title="include">
<path fill="none" stroke="#1414ce" d="M1112.25,-575.87C1137.48,-550.82 1184.57,-504.05 1213.42,-475.41"/>
<polygon fill="#1414ce" stroke="#1414ce" points="1216.06,-477.72 1220.69,-468.19 1211.13,-472.75 1216.06,-477.72"/>
</a>
</g>
</g>
<!-- 30&#45;&gt;33 -->
<g id="edge18" class="edge">
<title>30&#45;&gt;33</title>
<g id="a_edge18"><a xlink:title="include">
<path fill="none" stroke="#1414ce" d="M1122.19,-582.37C1148.36,-572.13 1188.64,-556.38 1221.13,-543.67"/>
<polygon fill="#1414ce" stroke="#1414ce" points="1222.47,-546.91 1230.51,-540.01 1219.92,-540.39 1222.47,-546.91"/>
</a>
</g>
</g>
<!-- 13 -->
<g id="node25" class="node">
<title>13</title>
<g id="a_node25"><a xlink:title="term_typedef.h">
<polygon fill="#ffffff" stroke="black" points="1620.5,-108 1495.5,-108 1495.5,-72 1620.5,-72 1620.5,-108"/>
<text text-anchor="middle" x="1558" y="-86.3" font-family="Times,serif" font-size="14.00">term_typedef.h</text>
</a>
</g>
</g>
<!-- 30&#45;&gt;13 -->
<g id="edge20" class="edge">
<title>30&#45;&gt;13</title>
<g id="a_edge20"><a xlink:title="include">
<path fill="none" stroke="#1414ce" d="M1122.08,-592.52C1239.41,-589.71 1698,-571.05 1698,-451 1698,-451 1698,-451 1698,-305 1698,-229.8 1692.73,-202.91 1646,-144 1636,-131.39 1622.12,-121.09 1608.33,-113.03"/>
<polygon fill="#1414ce" stroke="#1414ce" points="1609.77,-109.83 1599.32,-108.06 1606.39,-115.95 1609.77,-109.83"/>
</a>
</g>
</g>
<!-- 31 -->
<g id="node27" class="node">
<title>31</title>
<g id="a_node27"><a xlink:title="bitstring.h">
<polygon fill="#ffffff" stroke="black" points="1104,-540 1012,-540 1012,-504 1104,-504 1104,-540"/>
<text text-anchor="middle" x="1058" y="-518.3" font-family="Times,serif" font-size="14.00">bitstring.h</text>
</a>
</g>
</g>
<!-- 30&#45;&gt;31 -->
<g id="edge17" class="edge">
<title>30&#45;&gt;31</title>
<g id="a_edge17"><a xlink:title="include">
<path fill="none" stroke="#1414ce" d="M1085.85,-575.7C1081.6,-567.64 1076.44,-557.89 1071.73,-548.98"/>
<polygon fill="#1414ce" stroke="#1414ce" points="1074.81,-547.31 1067.04,-540.1 1068.62,-550.58 1074.81,-547.31"/>
</a>
</g>
</g>
<!-- 2&#45;&gt;18 -->
<g id="edge24" class="edge">
<title>2&#45;&gt;18</title>
<g id="a_edge24"><a xlink:title="include">
<path fill="none" stroke="#1414ce" d="M588.21,-662.5C465.37,-654.01 114,-621.14 114,-523 114,-523 114,-523 114,-377 114,-273.9 197.4,-276.34 281,-216 301.01,-201.56 325.47,-188.62 345.31,-179.14"/>
<polygon fill="#1414ce" stroke="#1414ce" points="347.06,-182.18 354.63,-174.77 344.09,-175.84 347.06,-182.18"/>
</a>
</g>
</g>
<!-- 2&#45;&gt;30 -->
<g id="edge23" class="edge">
<title>2&#45;&gt;30</title>
<g id="a_edge23"><a xlink:title="include">
<path fill="none" stroke="#1414ce" d="M671.67,-658.73C761.55,-645.2 972.38,-613.46 1057.94,-600.58"/>
<polygon fill="#1414ce" stroke="#1414ce" points="1058.61,-604.02 1067.98,-599.07 1057.57,-597.1 1058.61,-604.02"/>
</a>
</g>
</g>
<!-- 2&#45;&gt;21 -->
<g id="edge27" class="edge">
<title>2&#45;&gt;21</title>
<g id="a_edge27"><a xlink:title="include">
<path fill="none" stroke="#1414ce" d="M671.83,-664.99C814.4,-663.94 1277.02,-651.86 1359,-540 1368.46,-527.09 1367.75,-517.39 1359,-504 1341.68,-477.5 1307.85,-464.17 1280.36,-457.51"/>
<polygon fill="#1414ce" stroke="#1414ce" points="1281.08,-454.08 1270.56,-455.35 1279.57,-460.92 1281.08,-454.08"/>
</a>
</g>
</g>
<!-- 3 -->
<g id="node26" class="node">
<title>3</title>
<g id="a_node26"><a xlink:title="globalcontext.h">
<polygon fill="#ffffff" stroke="black" points="551.5,-612 424.5,-612 424.5,-576 551.5,-576 551.5,-612"/>
<text text-anchor="middle" x="488" y="-590.3" font-family="Times,serif" font-size="14.00">globalcontext.h</text>
</a>
</g>
</g>
<!-- 2&#45;&gt;3 -->
<g id="edge22" class="edge">
<title>2&#45;&gt;3</title>
<g id="a_edge22"><a xlink:title="include">
<path fill="none" stroke="#1414ce" d="M595.26,-647.88C576.18,-638.47 552.32,-626.71 531.95,-616.67"/>
<polygon fill="#1414ce" stroke="#1414ce" points="533.39,-613.47 522.87,-612.19 530.29,-619.75 533.39,-613.47"/>
</a>
</g>
</g>
<!-- 2&#45;&gt;20 -->
<g id="edge26" class="edge">
<title>2&#45;&gt;20</title>
<g id="a_edge26"><a xlink:title="include">
<path fill="none" stroke="#1414ce" d="M640.12,-647.78C666.98,-599.63 734.76,-460.54 685,-360 679.85,-349.6 572.17,-237.61 523.51,-187.27"/>
<polygon fill="#1414ce" stroke="#1414ce" points="525.97,-184.78 516.5,-180.03 520.94,-189.65 525.97,-184.78"/>
</a>
</g>
</g>
<!-- 28 -->
<g id="node30" class="node">
<title>28</title>
<g id="a_node30"><a xlink:title="timer_list.h">
<polygon fill="#ffffff" stroke="black" points="202,-252 104,-252 104,-216 202,-216 202,-252"/>
<text text-anchor="middle" x="153" y="-230.3" font-family="Times,serif" font-size="14.00">timer_list.h</text>
</a>
</g>
</g>
<!-- 2&#45;&gt;28 -->
<g id="edge28" class="edge">
<title>2&#45;&gt;28</title>
<g id="a_edge28"><a xlink:title="include">
<path fill="none" stroke="#1414ce" d="M588.25,-665.25C478.12,-665.21 182.53,-660.47 100,-612 58.43,-587.59 38,-571.21 38,-523 38,-523 38,-523 38,-377 38,-325.97 83.41,-283 117.16,-258.11"/>
<polygon fill="#1414ce" stroke="#1414ce" points="119.36,-260.84 125.45,-252.18 115.28,-255.15 119.36,-260.84"/>
</a>
</g>
</g>
<!-- 27 -->
<g id="node31" class="node">
<title>27</title>
<g id="a_node31"><a xlink:title="mailbox.h">
<polygon fill="#ffffff" stroke="black" points="752,-252 666,-252 666,-216 752,-216 752,-252"/>
<text text-anchor="middle" x="709" y="-230.3" font-family="Times,serif" font-size="14.00">mailbox.h</text>
</a>
</g>
</g>
<!-- 2&#45;&gt;27 -->
<g id="edge25" class="edge">
<title>2&#45;&gt;27</title>
<g id="a_edge25"><a xlink:title="include">
<path fill="none" stroke="#1414ce" d="M671.53,-658.87C699.44,-652.35 734.27,-639.03 752,-612 825.71,-499.61 754.62,-326.9 722.71,-261.41"/>
<polygon fill="#1414ce" stroke="#1414ce" points="725.72,-259.59 718.13,-252.19 719.45,-262.71 725.72,-259.59"/>
</a>
</g>
</g>
<!-- 1 -->
<g id="node13" class="node">
<title>1</title>
<g id="a_node13"><a xlink:title="/__w/AtomVM/AtomVM/src/libAtomVM/portnifloader.h">
<polygon fill="#bfbfbf" stroke="black" points="829,-828 431,-828 431,-792 829,-792 829,-828"/>
<text text-anchor="middle" x="630" y="-806.3" font-family="Times,serif" font-size="14.00">/__w/AtomVM/AtomVM/src/libAtomVM/portnifloader.h</text>
</a>
</g>
</g>
<!-- 1&#45;&gt;34 -->
<g id="edge31" class="edge">
<title>1&#45;&gt;34</title>
<g id="a_edge31"><a xlink:title="include">
<path fill="none" stroke="#1414ce" d="M645.57,-791.7C653.2,-783.22 662.52,-772.86 670.88,-763.58"/>
<polygon fill="#1414ce" stroke="#1414ce" points="673.52,-765.88 677.61,-756.1 668.31,-761.2 673.52,-765.88"/>
</a>
</g>
</g>
<!-- 1&#45;&gt;2 -->
<g id="edge29" class="edge">
<title>1&#45;&gt;2</title>
<g id="a_edge29"><a xlink:title="include">
<path fill="none" stroke="#1414ce" d="M630,-791.87C630,-767.67 630,-723.21 630,-694.39"/>
<polygon fill="#1414ce" stroke="#1414ce" points="633.5,-694.19 630,-684.19 626.5,-694.19 633.5,-694.19"/>
</a>
</g>
</g>
<!-- 1&#45;&gt;3 -->
<g id="edge30" class="edge">
<title>1&#45;&gt;3</title>
<g id="a_edge30"><a xlink:title="include">
<path fill="none" stroke="#1414ce" d="M618.62,-791.85C593.74,-754.36 534.41,-664.95 505.05,-620.7"/>
<polygon fill="#1414ce" stroke="#1414ce" points="507.88,-618.63 499.43,-612.23 502.05,-622.5 507.88,-618.63"/>
</a>
</g>
</g>
<!-- 24 -->
<g id="node14" class="node">
<title>24</title>
<g id="a_node14"><a xlink:title="memory.h">
<polygon fill="#ffffff" stroke="black" points="1480,-252 1394,-252 1394,-216 1480,-216 1480,-252"/>
<text text-anchor="middle" x="1437" y="-230.3" font-family="Times,serif" font-size="14.00">memory.h</text>
</a>
</g>
</g>
<!-- 24&#45;&gt;9 -->
<g id="edge36" class="edge">
<title>24&#45;&gt;9</title>
<g id="a_edge36"><a xlink:title="include">
<path fill="none" stroke="#1414ce" d="M1393.84,-223.56C1332.08,-210.05 1219.23,-185.36 1158.43,-172.06"/>
<polygon fill="#1414ce" stroke="#1414ce" points="1158.94,-168.59 1148.42,-169.87 1157.44,-175.43 1158.94,-168.59"/>
</a>
</g>
</g>
<!-- 24&#45;&gt;4 -->
<g id="edge32" class="edge">
<title>24&#45;&gt;4</title>
<g id="a_edge32"><a xlink:title="include">
<path fill="none" stroke="#1414ce" d="M1436.46,-215.89C1434.4,-182.42 1424.75,-108.38 1380,-72 1327.99,-29.71 1126.99,-21.11 1035.19,-19.4"/>
<polygon fill="#1414ce" stroke="#1414ce" points="1035.14,-15.9 1025.08,-19.23 1035.02,-22.9 1035.14,-15.9"/>
</a>
</g>
</g>
<!-- 24&#45;&gt;6 -->
<g id="edge33" class="edge">
<title>24&#45;&gt;6</title>
<g id="a_edge33"><a xlink:title="include">
<path fill="none" stroke="#1414ce" d="M1420.02,-216C1401.41,-197.63 1370.42,-167.79 1342,-144 1329.73,-133.73 1315.72,-123.06 1303.39,-114"/>
<polygon fill="#1414ce" stroke="#1414ce" points="1305.32,-111.08 1295.18,-108.02 1301.2,-116.74 1305.32,-111.08"/>
</a>
</g>
</g>
<!-- 12 -->
<g id="node19" class="node">
<title>12</title>
<g id="a_node19"><a xlink:title="erl_nif.h">
<polygon fill="#ffffff" stroke="black" points="1620,-180 1546,-180 1546,-144 1620,-144 1620,-180"/>
<text text-anchor="middle" x="1583" y="-158.3" font-family="Times,serif" font-size="14.00">erl_nif.h</text>
</a>
</g>
</g>
<!-- 24&#45;&gt;12 -->
<g id="edge34" class="edge">
<title>24&#45;&gt;12</title>
<g id="a_edge34"><a xlink:title="include">
<path fill="none" stroke="#1414ce" d="M1472.72,-215.88C1492.5,-206.39 1517.27,-194.51 1538.33,-184.42"/>
<polygon fill="#1414ce" stroke="#1414ce" points="1539.9,-187.55 1547.4,-180.07 1536.87,-181.24 1539.9,-187.55"/>
</a>
</g>
</g>
<!-- 24&#45;&gt;13 -->
<g id="edge35" class="edge">
<title>24&#45;&gt;13</title>
<g id="a_edge35"><a xlink:title="include">
<path fill="none" stroke="#1414ce" d="M1451.6,-215.87C1472.76,-191.03 1512.12,-144.85 1536.58,-116.14"/>
<polygon fill="#1414ce" stroke="#1414ce" points="1539.53,-118.07 1543.35,-108.19 1534.2,-113.53 1539.53,-118.07"/>
</a>
</g>
</g>
<!-- 29 -->
<g id="node15" class="node">
<title>29</title>
<g id="a_node15"><a xlink:title="valueshashtable.h">
<polygon fill="#ffffff" stroke="black" points="1030,-180 884,-180 884,-144 1030,-144 1030,-180"/>
<text text-anchor="middle" x="957" y="-158.3" font-family="Times,serif" font-size="14.00">valueshashtable.h</text>
</a>
</g>
</g>
<!-- 29&#45;&gt;4 -->
<g id="edge38" class="edge">
<title>29&#45;&gt;4</title>
<g id="a_edge38"><a xlink:title="include">
<path fill="none" stroke="#1414ce" d="M961.35,-143.85C963.94,-133.48 967.25,-120 970,-108 974.74,-87.34 979.73,-63.89 983.4,-46.25"/>
<polygon fill="#1414ce" stroke="#1414ce" points="986.91,-46.6 985.51,-36.1 980.05,-45.18 986.91,-46.6"/>
</a>
</g>
</g>
<!-- 29&#45;&gt;10 -->
<g id="edge37" class="edge">
<title>29&#45;&gt;10</title>
<g id="a_edge37"><a xlink:title="include">
<path fill="none" stroke="#1414ce" d="M948.84,-143.7C945.09,-135.73 940.55,-126.1 936.38,-117.26"/>
<polygon fill="#1414ce" stroke="#1414ce" points="939.49,-115.66 932.06,-108.1 933.16,-118.64 939.49,-115.66"/>
</a>
</g>
</g>
<!-- 26&#45;&gt;19 -->
<g id="edge44" class="edge">
<title>26&#45;&gt;19</title>
<g id="a_edge44"><a xlink:title="include">
<path fill="none" stroke="#1414ce" d="M921.98,-302.15C836.72,-296.65 658.1,-282.34 510,-252 508.55,-251.7 507.08,-251.38 505.59,-251.05"/>
<polygon fill="#1414ce" stroke="#1414ce" points="506.29,-247.62 495.75,-248.63 504.62,-254.41 506.29,-247.62"/>
</a>
</g>
</g>
<!-- 26&#45;&gt;18 -->
<g id="edge41" class="edge">
<title>26&#45;&gt;18</title>
<g id="a_edge41"><a xlink:title="include">
<path fill="none" stroke="#1414ce" d="M921.89,-298.87C859.36,-290.7 749.38,-274.59 657,-252 570.22,-230.78 471.15,-196.03 418.84,-176.83"/>
<polygon fill="#1414ce" stroke="#1414ce" points="419.92,-173.5 409.33,-173.32 417.5,-180.07 419.92,-173.5"/>
</a>
</g>
</g>
<!-- 26&#45;&gt;6 -->
<g id="edge39" class="edge">
<title>26&#45;&gt;6</title>
<g id="a_edge39"><a xlink:title="include">
<path fill="none" stroke="#1414ce" d="M1009.7,-287.88C1055.01,-266.32 1132.17,-226.43 1190,-180 1213.56,-161.09 1236.35,-135.14 1251.72,-116.15"/>
<polygon fill="#1414ce" stroke="#1414ce" points="1254.54,-118.22 1258.03,-108.21 1249.07,-113.86 1254.54,-118.22"/>
</a>
</g>
</g>
<!-- 26&#45;&gt;24 -->
<g id="edge43" class="edge">
<title>26&#45;&gt;24</title>
<g id="a_edge43"><a xlink:title="include">
<path fill="none" stroke="#1414ce" d="M1022.2,-297.44C1110.62,-284.13 1293.29,-256.63 1383.79,-243.01"/>
<polygon fill="#1414ce" stroke="#1414ce" points="1384.47,-246.45 1393.83,-241.5 1383.43,-239.53 1384.47,-246.45"/>
</a>
</g>
</g>
<!-- 26&#45;&gt;12 -->
<g id="edge40" class="edge">
<title>26&#45;&gt;12</title>
<g id="a_edge40"><a xlink:title="include">
<path fill="none" stroke="#1414ce" d="M1022.35,-303.94C1135.55,-300.89 1406.68,-289.76 1489,-252 1520.02,-237.77 1547.31,-209.11 1564.38,-188.14"/>
<polygon fill="#1414ce" stroke="#1414ce" points="1567.17,-190.27 1570.63,-180.25 1561.68,-185.92 1567.17,-190.27"/>
</a>
</g>
</g>
<!-- 26&#45;&gt;27 -->
<g id="edge42" class="edge">
<title>26&#45;&gt;27</title>
<g id="a_edge42"><a xlink:title="include">
<path fill="none" stroke="#1414ce" d="M921.91,-291.67C876.23,-279.51 808.94,-261.6 762.28,-249.18"/>
<polygon fill="#1414ce" stroke="#1414ce" points="762.93,-245.73 752.36,-246.54 761.13,-252.5 762.93,-245.73"/>
</a>
</g>
</g>
<!-- 21&#45;&gt;8 -->
<g id="edge46" class="edge">
<title>21&#45;&gt;8</title>
<g id="a_edge46"><a xlink:title="include">
<path fill="none" stroke="#1414ce" d="M1205.28,-448.16C1126.09,-445.53 926.79,-435.08 875,-396 804.97,-343.16 853.61,-280.36 794,-216 771.29,-191.49 755.02,-199.65 728,-180 709.19,-166.32 707.8,-158.98 690,-144 677.86,-133.78 663.97,-123.18 651.71,-114.18"/>
<polygon fill="#1414ce" stroke="#1414ce" points="653.68,-111.28 643.53,-108.23 649.56,-116.94 653.68,-111.28"/>
</a>
</g>
</g>
<!-- 21&#45;&gt;25 -->
<g id="edge53" class="edge">
<title>21&#45;&gt;25</title>
<g id="a_edge53"><a xlink:title="include">
<path fill="none" stroke="#1414ce" d="M1205.32,-441.38C1156.67,-430.02 1064.24,-408.46 1001.87,-393.9"/>
<polygon fill="#1414ce" stroke="#1414ce" points="1002.66,-390.49 992.13,-391.63 1001.07,-397.31 1002.66,-390.49"/>
</a>
</g>
</g>
<!-- 21&#45;&gt;5 -->
<g id="edge51" class="edge">
<title>21&#45;&gt;5</title>
<g id="a_edge51"><a xlink:title="include">
<path fill="none" stroke="#1414ce" d="M1205.16,-445.14C1104.4,-433.28 799.6,-397.42 686.16,-384.08"/>
<polygon fill="#1414ce" stroke="#1414ce" points="686.44,-380.59 676.1,-382.89 685.62,-387.54 686.44,-380.59"/>
</a>
</g>
</g>
<!-- 21&#45;&gt;9 -->
<g id="edge54" class="edge">
<title>21&#45;&gt;9</title>
<g id="a_edge54"><a xlink:title="include">
<path fill="none" stroke="#1414ce" d="M1258.38,-431.53C1267.81,-422.09 1278.01,-409.6 1283,-396 1288.52,-380.98 1288.49,-375.03 1283,-360 1255.88,-285.72 1187.03,-220.07 1147.03,-186.56"/>
<polygon fill="#1414ce" stroke="#1414ce" points="1149.14,-183.76 1139.2,-180.1 1144.69,-189.16 1149.14,-183.76"/>
</a>
</g>
</g>
<!-- 21&#45;&gt;4 -->
<g id="edge47" class="edge">
<title>21&#45;&gt;4</title>
<g id="a_edge47"><a xlink:title="include">
<path fill="none" stroke="#1414ce" d="M1270.85,-436.08C1287.92,-427.49 1307.21,-414.36 1317,-396 1327.39,-376.52 1397.4,-168.2 1315,-72 1279.52,-30.58 1116.79,-21.45 1035.5,-19.5"/>
<polygon fill="#1414ce" stroke="#1414ce" points="1035.13,-15.99 1025.06,-19.27 1034.98,-22.99 1035.13,-15.99"/>
</a>
</g>
</g>
<!-- 21&#45;&gt;6 -->
<g id="edge49" class="edge">
<title>21&#45;&gt;6</title>
<g id="a_edge49"><a xlink:title="include">
<path fill="none" stroke="#1414ce" d="M1270.81,-447.27C1310.23,-443.58 1376.36,-432.03 1419,-396 1473.35,-350.07 1473.04,-321.35 1489,-252 1492.59,-236.41 1496.67,-230.04 1489,-216 1460.64,-164.06 1428.43,-173.27 1377,-144 1357.33,-132.8 1334.99,-121.44 1315.91,-112.13"/>
<polygon fill="#1414ce" stroke="#1414ce" points="1317.36,-108.94 1306.83,-107.73 1314.31,-115.24 1317.36,-108.94"/>
</a>
</g>
</g>
<!-- 21&#45;&gt;24 -->
<g id="edge52" class="edge">
<title>21&#45;&gt;24</title>
<g id="a_edge52"><a xlink:title="include">
<path fill="none" stroke="#1414ce" d="M1270.65,-446.64C1305.77,-442.33 1360.88,-430.2 1393,-396 1427.7,-359.06 1435.52,-297.44 1437,-262.11"/>
<polygon fill="#1414ce" stroke="#1414ce" points="1440.5,-262.14 1437.27,-252.05 1433.5,-261.95 1440.5,-262.14"/>
</a>
</g>
</g>
<!-- 22 -->
<g id="node23" class="node">
<title>22</title>
<g id="a_node23"><a xlink:title="sys/types.h">
<polygon fill="#ffffff" stroke="black" points="1183.5,-396 1086.5,-396 1086.5,-360 1183.5,-360 1183.5,-396"/>
<text text-anchor="middle" x="1135" y="-374.3" font-family="Times,serif" font-size="14.00">sys/types.h</text>
</a>
</g>
</g>
<!-- 21&#45;&gt;22 -->
<g id="edge45" class="edge">
<title>21&#45;&gt;22</title>
<g id="a_edge45"><a xlink:title="include">
<path fill="none" stroke="#1414ce" d="M1212.8,-431.88C1199.59,-422.89 1183.21,-411.76 1168.89,-402.03"/>
<polygon fill="#1414ce" stroke="#1414ce" points="1170.53,-398.92 1160.29,-396.19 1166.6,-404.71 1170.53,-398.92"/>
</a>
</g>
</g>
<!-- 23 -->
<g id="node24" class="node">
<title>23</title>
<g id="a_node24"><a xlink:title="string.h">
<polygon fill="#ffffff" stroke="black" points="1274.5,-396 1201.5,-396 1201.5,-360 1274.5,-360 1274.5,-396"/>
<text text-anchor="middle" x="1238" y="-374.3" font-family="Times,serif" font-size="14.00">string.h</text>
</a>
</g>
</g>
<!-- 21&#45;&gt;23 -->
<g id="edge50" class="edge">
<title>21&#45;&gt;23</title>
<g id="a_edge50"><a xlink:title="include">
<path fill="none" stroke="#1414ce" d="M1238,-431.7C1238,-423.98 1238,-414.71 1238,-406.11"/>
<polygon fill="#1414ce" stroke="#1414ce" points="1241.5,-406.1 1238,-396.1 1234.5,-406.1 1241.5,-406.1"/>
</a>
</g>
</g>
<!-- 21&#45;&gt;13 -->
<g id="edge55" class="edge">
<title>21&#45;&gt;13</title>
<g id="a_edge55"><a xlink:title="include">
<path fill="none" stroke="#1414ce" d="M1270.62,-447.13C1314.48,-443.29 1393.49,-431.57 1450,-396 1555.51,-329.57 1586.72,-297.29 1629,-180 1634.43,-164.95 1636.17,-158.3 1629,-144 1622.9,-131.84 1612.54,-121.75 1601.59,-113.76"/>
<polygon fill="#1414ce" stroke="#1414ce" points="1603.41,-110.76 1593.17,-108.06 1599.49,-116.56 1603.41,-110.76"/>
</a>
</g>
</g>
<!-- 21&#45;&gt;11 -->
<g id="edge48" class="edge">
<title>21&#45;&gt;11</title>
<g id="a_edge48"><a xlink:title="include">
<path fill="none" stroke="#1414ce" d="M1267.5,-431.94C1279.98,-422.99 1293.19,-410.79 1300,-396 1306.7,-381.47 1304.37,-375.39 1300,-360 1270.8,-257.23 1184.85,-159.48 1141.95,-115.43"/>
<polygon fill="#1414ce" stroke="#1414ce" points="1144.22,-112.75 1134.71,-108.09 1139.24,-117.66 1144.22,-112.75"/>
</a>
</g>
</g>
<!-- 12&#45;&gt;13 -->
<g id="edge56" class="edge">
<title>12&#45;&gt;13</title>
<g id="a_edge56"><a xlink:title="include">
<path fill="none" stroke="#1414ce" d="M1576.82,-143.7C1574,-135.81 1570.61,-126.3 1567.48,-117.55"/>
<polygon fill="#1414ce" stroke="#1414ce" points="1570.77,-116.34 1564.11,-108.1 1564.18,-118.7 1570.77,-116.34"/>
</a>
</g>
</g>
<!-- 33&#45;&gt;21 -->
<g id="edge57" class="edge">
<title>33&#45;&gt;21</title>
<g id="a_edge57"><a xlink:title="include">
<path fill="none" stroke="#1414ce" d="M1265.1,-503.7C1261,-495.73 1256.05,-486.1 1251.51,-477.26"/>
<polygon fill="#1414ce" stroke="#1414ce" points="1254.48,-475.4 1246.8,-468.1 1248.26,-478.6 1254.48,-475.4"/>
</a>
</g>
</g>
<!-- 15 -->
<g id="node21" class="node">
<title>15</title>
<g id="a_node21"><a xlink:title="limits.h">
<polygon fill="#ffffff" stroke="black" points="1495.5,-36 1424.5,-36 1424.5,0 1495.5,0 1495.5,-36"/>
<text text-anchor="middle" x="1460" y="-14.3" font-family="Times,serif" font-size="14.00">limits.h</text>
</a>
</g>
</g>
<!-- 7 -->
<g id="node22" class="node">
<title>7</title>
<g id="a_node22"><a xlink:title="atom_table.h">
<polygon fill="#ffffff" stroke="black" points="595.5,-468 486.5,-468 486.5,-432 595.5,-432 595.5,-468"/>
<text text-anchor="middle" x="541" y="-446.3" font-family="Times,serif" font-size="14.00">atom_table.h</text>
</a>
</g>
</g>
<!-- 7&#45;&gt;8 -->
<g id="edge58" class="edge">
<title>7&#45;&gt;8</title>
<g id="a_edge58"><a xlink:title="include">
<path fill="none" stroke="#1414ce" d="M486.42,-443.21C347.25,-426.15 -3.13,-367.38 95,-216 146.59,-136.41 445.39,-104.47 567.27,-94.64"/>
<polygon fill="#1414ce" stroke="#1414ce" points="567.77,-98.11 577.46,-93.83 567.22,-91.13 567.77,-98.11"/>
</a>
</g>
</g>
<!-- 7&#45;&gt;5 -->
<g id="edge59" class="edge">
<title>7&#45;&gt;5</title>
<g id="a_edge59"><a xlink:title="include">
<path fill="none" stroke="#1414ce" d="M565.95,-431.88C579.04,-422.89 595.26,-411.76 609.44,-402.03"/>
<polygon fill="#1414ce" stroke="#1414ce" points="611.69,-404.73 617.95,-396.19 607.73,-398.96 611.69,-404.73"/>
</a>
</g>
</g>
<!-- 7&#45;&gt;9 -->
<g id="edge60" class="edge">
<title>7&#45;&gt;9</title>
<g id="a_edge60"><a xlink:title="include">
<path fill="none" stroke="#1414ce" d="M595.56,-449.08C702.92,-448.22 936.75,-441.07 1001,-396 1071.99,-346.19 1101.74,-240.11 1112.18,-190.13"/>
<polygon fill="#1414ce" stroke="#1414ce" points="1115.66,-190.56 1114.17,-180.07 1108.79,-189.2 1115.66,-190.56"/>
</a>
</g>
</g>
<!-- 13&#45;&gt;14 -->
<g id="edge61" class="edge">
<title>13&#45;&gt;14</title>
<g id="a_edge61"><a xlink:title="include">
<path fill="none" stroke="#1414ce" d="M1582.46,-71.88C1595.3,-62.89 1611.2,-51.76 1625.09,-42.03"/>
<polygon fill="#1414ce" stroke="#1414ce" points="1627.26,-44.79 1633.44,-36.19 1623.24,-39.06 1627.26,-44.79"/>
</a>
</g>
</g>
<!-- 13&#45;&gt;4 -->
<g id="edge64" class="edge">
<title>13&#45;&gt;4</title>
<g id="a_edge64"><a xlink:title="include">
<path fill="none" stroke="#1414ce" d="M1495.23,-78.01C1482.28,-75.89 1468.71,-73.78 1456,-72 1302.21,-50.47 1118.99,-31.66 1035.09,-23.43"/>
<polygon fill="#1414ce" stroke="#1414ce" points="1035.41,-19.94 1025.12,-22.45 1034.73,-26.91 1035.41,-19.94"/>
</a>
</g>
</g>
<!-- 13&#45;&gt;15 -->
<g id="edge62" class="edge">
<title>13&#45;&gt;15</title>
<g id="a_edge62"><a xlink:title="include">
<path fill="none" stroke="#1414ce" d="M1534.03,-71.88C1521.45,-62.89 1505.87,-51.76 1492.25,-42.03"/>
<polygon fill="#1414ce" stroke="#1414ce" points="1494.24,-39.15 1484.07,-36.19 1490.17,-44.85 1494.24,-39.15"/>
</a>
</g>
</g>
<!-- 16 -->
<g id="node34" class="node">
<title>16</title>
<g id="a_node34"><a xlink:title="inttypes.h">
<polygon fill="#ffffff" stroke="black" points="1602.5,-36 1513.5,-36 1513.5,0 1602.5,0 1602.5,-36"/>
<text text-anchor="middle" x="1558" y="-14.3" font-family="Times,serif" font-size="14.00">inttypes.h</text>
</a>
</g>
</g>
<!-- 13&#45;&gt;16 -->
<g id="edge63" class="edge">
<title>13&#45;&gt;16</title>
<g id="a_edge63"><a xlink:title="include">
<path fill="none" stroke="#1414ce" d="M1558,-71.7C1558,-63.98 1558,-54.71 1558,-46.11"/>
<polygon fill="#1414ce" stroke="#1414ce" points="1561.5,-46.1 1558,-36.1 1554.5,-46.1 1561.5,-46.1"/>
</a>
</g>
</g>
<!-- 3&#45;&gt;5 -->
<g id="edge66" class="edge">
<title>3&#45;&gt;5</title>
<g id="a_edge66"><a xlink:title="include">
<path fill="none" stroke="#1414ce" d="M551.54,-587.08C582.83,-580.63 618.04,-567.32 638,-540 666.71,-500.71 658.7,-440.45 650.63,-405.88"/>
<polygon fill="#1414ce" stroke="#1414ce" points="653.98,-404.88 648.16,-396.03 647.19,-406.58 653.98,-404.88"/>
</a>
</g>
</g>
<!-- 3&#45;&gt;19 -->
<g id="edge73" class="edge">
<title>3&#45;&gt;19</title>
<g id="a_edge73"><a xlink:title="include">
<path fill="none" stroke="#1414ce" d="M468.53,-575.92C459.18,-566.4 448.95,-553.72 444,-540 434.74,-514.34 446.21,-332.52 451.04,-262.44"/>
<polygon fill="#1414ce" stroke="#1414ce" points="454.55,-262.42 451.76,-252.2 447.57,-261.93 454.55,-262.42"/>
</a>
</g>
</g>
<!-- 3&#45;&gt;18 -->
<g id="edge70" class="edge">
<title>3&#45;&gt;18</title>
<g id="a_edge70"><a xlink:title="include">
<path fill="none" stroke="#1414ce" d="M424.14,-588.29C385.55,-582.38 337.68,-569.21 305,-540 273.06,-511.45 268,-493.84 268,-451 268,-451 268,-451 268,-305 268,-254 313.27,-210.88 346.76,-185.97"/>
<polygon fill="#1414ce" stroke="#1414ce" points="348.92,-188.73 354.98,-180.04 344.83,-183.05 348.92,-188.73"/>
</a>
</g>
</g>
<!-- 3&#45;&gt;4 -->
<g id="edge65" class="edge">
<title>3&#45;&gt;4</title>
<g id="a_edge65"><a xlink:title="include">
<path fill="none" stroke="#1414ce" d="M424.22,-593.05C363.37,-590.47 271.03,-579.51 202,-540 83.05,-471.91 0,-444.05 0,-307 0,-307 0,-307 0,-161 0,-58.81 112.57,-95.57 212,-72 352.06,-38.79 796.64,-24.16 942.3,-20.18"/>
<polygon fill="#1414ce" stroke="#1414ce" points="942.76,-23.67 952.66,-19.9 942.57,-16.67 942.76,-23.67"/>
</a>
</g>
</g>
<!-- 3&#45;&gt;29 -->
<g id="edge76" class="edge">
<title>3&#45;&gt;29</title>
<g id="a_edge76"><a xlink:title="include">
<path fill="none" stroke="#1414ce" d="M512.5,-575.83C540.76,-554.37 585.66,-514.71 604,-468 609.85,-453.11 604.66,-447.99 604,-432 602.67,-400 595.09,-391.48 601,-360 613.66,-292.51 603.68,-259.27 657,-216 730.79,-156.11 775.51,-195.25 873.72,-180.05"/>
<polygon fill="#1414ce" stroke="#1414ce" points="874.44,-183.48 883.71,-178.35 873.27,-176.58 874.44,-183.48"/>
</a>
</g>
</g>
<!-- 3&#45;&gt;21 -->
<g id="edge74" class="edge">
<title>3&#45;&gt;21</title>
<g id="a_edge74"><a xlink:title="include">
<path fill="none" stroke="#1414ce" d="M551.62,-580.95C700.76,-552.72 1069.76,-482.85 1195.35,-459.07"/>
<polygon fill="#1414ce" stroke="#1414ce" points="1196.18,-462.48 1205.36,-457.18 1194.88,-455.6 1196.18,-462.48"/>
</a>
</g>
</g>
<!-- 3&#45;&gt;12 -->
<g id="edge68" class="edge">
<title>3&#45;&gt;12</title>
<g id="a_edge68"><a xlink:title="include">
<path fill="none" stroke="#1414ce" d="M551.6,-590.48C688.75,-584.59 1008.39,-568.22 1113,-540 1149.09,-530.27 1154.04,-517.23 1189,-504 1376.34,-433.12 1622,-579.3 1622,-379 1622,-379 1622,-379 1622,-305 1622,-263.56 1606.36,-217.67 1594.89,-189.58"/>
<polygon fill="#1414ce" stroke="#1414ce" points="1598,-187.93 1590.89,-180.07 1591.55,-190.65 1598,-187.93"/>
</a>
</g>
</g>
<!-- 3&#45;&gt;7 -->
<g id="edge67" class="edge">
<title>3&#45;&gt;7</title>
<g id="a_edge67"><a xlink:title="include">
<path fill="none" stroke="#1414ce" d="M494.39,-575.87C503.51,-551.46 520.31,-506.43 531.06,-477.64"/>
<polygon fill="#1414ce" stroke="#1414ce" points="534.37,-478.78 534.58,-468.19 527.81,-476.33 534.37,-478.78"/>
</a>
</g>
</g>
<!-- 3&#45;&gt;20 -->
<g id="edge72" class="edge">
<title>3&#45;&gt;20</title>
<g id="a_edge72"><a xlink:title="include">
<path fill="none" stroke="#1414ce" d="M424.41,-586.3C391.69,-579.64 353.62,-566.38 329,-540 301.12,-510.13 306,-491.86 306,-451 306,-451 306,-451 306,-305 306,-229.4 403.11,-189.69 459.92,-172.93"/>
<polygon fill="#1414ce" stroke="#1414ce" points="461.02,-176.26 469.69,-170.16 459.11,-169.53 461.02,-176.26"/>
</a>
</g>
</g>
<!-- 3&#45;&gt;28 -->
<g id="edge75" class="edge">
<title>3&#45;&gt;28</title>
<g id="a_edge75"><a xlink:title="include">
<path fill="none" stroke="#1414ce" d="M424.44,-590.13C336.92,-582.37 190,-554.01 190,-451 190,-451 190,-451 190,-377 190,-335.71 175.17,-289.77 164.28,-261.63"/>
<polygon fill="#1414ce" stroke="#1414ce" points="167.44,-260.11 160.49,-252.11 160.94,-262.7 167.44,-260.11"/>
</a>
</g>
</g>
<!-- 3&#45;&gt;27 -->
<g id="edge71" class="edge">
<title>3&#45;&gt;27</title>
<g id="a_edge71"><a xlink:title="include">
<path fill="none" stroke="#1414ce" d="M481.56,-575.56C471.36,-544.91 454.76,-480.06 477,-432 515.68,-348.42 609.23,-287.33 665.01,-256.85"/>
<polygon fill="#1414ce" stroke="#1414ce" points="666.8,-259.86 673.96,-252.04 663.49,-253.69 666.8,-259.86"/>
</a>
</g>
</g>
<!-- 17 -->
<g id="node33" class="node">
<title>17</title>
<g id="a_node33"><a xlink:title="ets.h">
<polygon fill="#ffffff" stroke="black" points="392,-540 338,-540 338,-504 392,-504 392,-540"/>
<text text-anchor="middle" x="365" y="-518.3" font-family="Times,serif" font-size="14.00">ets.h</text>
</a>
</g>
</g>
<!-- 3&#45;&gt;17 -->
<g id="edge69" class="edge">
<title>3&#45;&gt;17</title>
<g id="a_edge69"><a xlink:title="include">
<path fill="none" stroke="#1414ce" d="M457.91,-575.88C440.83,-566.16 419.33,-553.92 401.32,-543.67"/>
<polygon fill="#1414ce" stroke="#1414ce" points="402.68,-540.42 392.26,-538.51 399.22,-546.5 402.68,-540.42"/>
</a>
</g>
</g>
<!-- 31&#45;&gt;8 -->
<g id="edge79" class="edge">
<title>31&#45;&gt;8</title>
<g id="a_edge79"><a xlink:title="include">
<path fill="none" stroke="#1414ce" d="M1011.85,-504.62C963.37,-485.34 887.67,-449.06 840,-396 781.62,-331.01 821.03,-279.47 761,-216 736.69,-190.3 717.3,-202.51 690,-180 674.36,-167.11 674.61,-159.87 662,-144 654.74,-134.86 646.7,-124.91 639.55,-116.12"/>
<polygon fill="#1414ce" stroke="#1414ce" points="642.06,-113.66 633.03,-108.11 636.64,-118.08 642.06,-113.66"/>
</a>
</g>
</g>
<!-- 31&#45;&gt;4 -->
<g id="edge80" class="edge">
<title>31&#45;&gt;4</title>
<g id="a_edge80"><a xlink:title="include">
<path fill="none" stroke="#1414ce" d="M1104.31,-514.79C1186.59,-502.25 1361.76,-468.67 1491,-396 1605.62,-331.56 1661.21,-274.61 1646,-144 1642.2,-111.34 1653.92,-93.45 1629,-72 1606.51,-52.64 1178.7,-28.82 1035.36,-21.35"/>
<polygon fill="#1414ce" stroke="#1414ce" points="1035.31,-17.85 1025.14,-20.82 1034.95,-24.84 1035.31,-17.85"/>
</a>
</g>
</g>
<!-- 31&#45;&gt;21 -->
<g id="edge77" class="edge">
<title>31&#45;&gt;21</title>
<g id="a_edge77"><a xlink:title="include">
<path fill="none" stroke="#1414ce" d="M1102.03,-503.88C1130.62,-492.76 1167.65,-478.36 1195.85,-467.39"/>
<polygon fill="#1414ce" stroke="#1414ce" points="1197.38,-470.55 1205.43,-463.67 1194.84,-464.03 1197.38,-470.55"/>
</a>
</g>
</g>
<!-- 32 -->
<g id="node29" class="node">
<title>32</title>
<g id="a_node29"><a xlink:title="unicode.h">
<polygon fill="#ffffff" stroke="black" points="866,-180 780,-180 780,-144 866,-144 866,-180"/>
<text text-anchor="middle" x="823" y="-158.3" font-family="Times,serif" font-size="14.00">unicode.h</text>
</a>
</g>
</g>
<!-- 31&#45;&gt;32 -->
<g id="edge78" class="edge">
<title>31&#45;&gt;32</title>
<g id="a_edge78"><a xlink:title="include">
<path fill="none" stroke="#1414ce" d="M1060.81,-503.81C1066.57,-462.76 1075.67,-357.31 1031,-288 1011.31,-257.45 923.7,-211.31 868.65,-184.46"/>
<polygon fill="#1414ce" stroke="#1414ce" points="869.97,-181.21 859.44,-180 866.92,-187.51 869.97,-181.21"/>
</a>
</g>
</g>
<!-- 20&#45;&gt;8 -->
<g id="edge81" class="edge">
<title>20&#45;&gt;8</title>
<g id="a_edge81"><a xlink:title="include">
<path fill="none" stroke="#1414ce" d="M529.11,-143.88C544.67,-134.72 564.02,-123.34 580.78,-113.48"/>
<polygon fill="#1414ce" stroke="#1414ce" points="582.93,-116.28 589.78,-108.19 579.38,-110.24 582.93,-116.28"/>
</a>
</g>
</g>
<!-- 32&#45;&gt;8 -->
<g id="edge82" class="edge">
<title>32&#45;&gt;8</title>
<g id="a_edge82"><a xlink:title="include">
<path fill="none" stroke="#1414ce" d="M779.74,-146.15C747.8,-135.2 704.21,-120.24 670.49,-108.67"/>
<polygon fill="#1414ce" stroke="#1414ce" points="671.4,-105.28 660.81,-105.35 669.13,-111.9 671.4,-105.28"/>
</a>
</g>
</g>
<!-- 32&#45;&gt;4 -->
<g id="edge84" class="edge">
<title>32&#45;&gt;4</title>
<g id="a_edge84"><a xlink:title="include">
<path fill="none" stroke="#1414ce" d="M829.98,-143.91C838.7,-124.34 855.29,-92.38 878,-72 896.74,-55.18 921.78,-42.61 943.32,-33.94"/>
<polygon fill="#1414ce" stroke="#1414ce" points="944.87,-37.1 952.94,-30.23 942.36,-30.56 944.87,-37.1"/>
</a>
</g>
</g>
<!-- 32&#45;&gt;10 -->
<g id="edge83" class="edge">
<title>32&#45;&gt;10</title>
<g id="a_edge83"><a xlink:title="include">
<path fill="none" stroke="#1414ce" d="M847.71,-143.88C860.67,-134.89 876.73,-123.76 890.77,-114.03"/>
<polygon fill="#1414ce" stroke="#1414ce" points="892.97,-116.76 899.2,-108.19 888.98,-111.01 892.97,-116.76"/>
</a>
</g>
</g>
<!-- 28&#45;&gt;8 -->
<g id="edge85" class="edge">
<title>28&#45;&gt;8</title>
<g id="a_edge85"><a xlink:title="include">
<path fill="none" stroke="#1414ce" d="M183.83,-215.96C221.17,-195.99 286.48,-163.19 346,-144 421.05,-119.8 511.47,-104.91 567.09,-97.29"/>
<polygon fill="#1414ce" stroke="#1414ce" points="567.61,-100.75 577.06,-95.96 566.68,-93.82 567.61,-100.75"/>
</a>
</g>
</g>
<!-- 28&#45;&gt;18 -->
<g id="edge87" class="edge">
<title>28&#45;&gt;18</title>
<g id="a_edge87"><a xlink:title="include">
<path fill="none" stroke="#1414ce" d="M202.13,-217.98C244.95,-204.89 306.13,-186.19 344.95,-174.32"/>
<polygon fill="#1414ce" stroke="#1414ce" points="346.25,-177.59 354.79,-171.32 344.21,-170.89 346.25,-177.59"/>
</a>
</g>
</g>
<!-- 28&#45;&gt;4 -->
<g id="edge86" class="edge">
<title>28&#45;&gt;4</title>
<g id="a_edge86"><a xlink:title="include">
<path fill="none" stroke="#1414ce" d="M167.93,-215.77C186.51,-195.46 220.18,-162.18 256,-144 378.13,-82.01 801.39,-36.9 942.68,-23.28"/>
<polygon fill="#1414ce" stroke="#1414ce" points="943.12,-26.76 952.75,-22.32 942.46,-19.79 943.12,-26.76"/>
</a>
</g>
</g>
<!-- 27&#45;&gt;8 -->
<g id="edge88" class="edge">
<title>27&#45;&gt;8</title>
<g id="a_edge88"><a xlink:title="include">
<path fill="none" stroke="#1414ce" d="M691.6,-215.85C682.11,-205.94 670.59,-192.9 662,-180 648.83,-160.24 637.34,-135.84 629.55,-117.59"/>
<polygon fill="#1414ce" stroke="#1414ce" points="632.7,-116.03 625.62,-108.15 626.24,-118.72 632.7,-116.03"/>
</a>
</g>
</g>
<!-- 27&#45;&gt;9 -->
<g id="edge91" class="edge">
<title>27&#45;&gt;9</title>
<g id="a_edge91"><a xlink:title="include">
<path fill="none" stroke="#1414ce" d="M752.09,-227.24C841.53,-215.21 1041.52,-187.88 1072,-180 1073.27,-179.67 1074.56,-179.32 1075.85,-178.94"/>
<polygon fill="#1414ce" stroke="#1414ce" points="1077.34,-182.14 1085.81,-175.77 1075.22,-175.47 1077.34,-182.14"/>
</a>
</g>
</g>
<!-- 27&#45;&gt;18 -->
<g id="edge89" class="edge">
<title>27&#45;&gt;18</title>
<g id="a_edge89"><a xlink:title="include">
<path fill="none" stroke="#1414ce" d="M665.99,-223.83C616.52,-213.27 532.89,-195.42 461,-180 447.36,-177.08 432.4,-173.86 419.2,-171.02"/>
<polygon fill="#1414ce" stroke="#1414ce" points="419.57,-167.52 409.05,-168.83 418.09,-174.36 419.57,-167.52"/>
</a>
</g>
</g>
<!-- 27&#45;&gt;13 -->
<g id="edge90" class="edge">
<title>27&#45;&gt;13</title>
<g id="a_edge90"><a xlink:title="include">
<path fill="none" stroke="#1414ce" d="M752.14,-229.35C832.26,-222.26 1009.32,-205.06 1157,-180 1272.63,-160.38 1405.2,-129.24 1485.21,-109.47"/>
<polygon fill="#1414ce" stroke="#1414ce" points="1486.32,-112.8 1495.18,-107 1484.64,-106.01 1486.32,-112.8"/>
</a>
</g>
</g>
<!-- 17&#45;&gt;19 -->
<g id="edge93" class="edge">
<title>17&#45;&gt;19</title>
<g id="a_edge93"><a xlink:title="include">
<path fill="none" stroke="#1414ce" d="M370.24,-503.97C384.97,-456.09 426.83,-320.06 444.72,-261.9"/>
<polygon fill="#1414ce" stroke="#1414ce" points="448.08,-262.89 447.67,-252.31 441.39,-260.83 448.08,-262.89"/>
</a>
</g>
</g>
<!-- 17&#45;&gt;18 -->
<g id="edge92" class="edge">
<title>17&#45;&gt;18</title>
<g id="a_edge92"><a xlink:title="include">
<path fill="none" stroke="#1414ce" d="M360.75,-503.63C354.61,-476.99 344,-424.36 344,-379 344,-379 344,-379 344,-305 344,-263.63 359.23,-217.72 370.41,-189.61"/>
<polygon fill="#1414ce" stroke="#1414ce" points="373.76,-190.67 374.31,-180.09 367.28,-188.02 373.76,-190.67"/>
</a>
</g>
</g>
<!-- 17&#45;&gt;21 -->
<g id="edge94" class="edge">
<title>17&#45;&gt;21</title>
<g id="a_edge94"><a xlink:title="include">
<path fill="none" stroke="#1414ce" d="M392.08,-518.83C517.42,-508.78 1041.54,-466.75 1195.38,-454.42"/>
<polygon fill="#1414ce" stroke="#1414ce" points="1195.7,-457.9 1205.39,-453.62 1195.14,-450.93 1195.7,-457.9"/>
</a>
</g>
</g>
</g>
</svg>
