<?xml version="1.0" encoding="UTF-8" standalone="no"?>
<!DOCTYPE svg PUBLIC "-//W3C//DTD SVG 1.1//EN"
 "http://www.w3.org/Graphics/SVG/1.1/DTD/svg11.dtd">
<!-- Generated by graphviz version 2.43.0 (0)
 -->
<!-- Title: %3 Pages: 1 -->
<svg width="3493pt" height="188pt"
 viewBox="0.00 0.00 3492.50 188.00" xmlns="http://www.w3.org/2000/svg" xmlns:xlink="http://www.w3.org/1999/xlink">
<g id="graph0" class="graph" transform="scale(1 1) rotate(0) translate(4 184)">
<title>%3</title>
<polygon fill="transparent" stroke="transparent" points="-4,4 -4,-184 3488.5,-184 3488.5,4 -4,4"/>
<!-- 6 -->
<g id="node1" class="node">
<title>6</title>
<g id="a_node1"><a xlink:title="/__w/AtomVM/AtomVM/src/libAtomVM/nifs.c">
<polygon fill="#ffffff" stroke="black" points="1858,-36 1526,-36 1526,0 1858,0 1858,-36"/>
<text text-anchor="middle" x="1692" y="-14.3" font-family="Times,serif" font-size="14.00">/__w/AtomVM/AtomVM/src/libAtomVM/nifs.c</text>
</a>
</g>
</g>
<!-- 4 -->
<g id="node2" class="node">
<title>4</title>
<g id="a_node2"><a xlink:title="/__w/AtomVM/AtomVM/src/libAtomVM/jit.c">
<polygon fill="#ffffff" stroke="black" points="718,-36 398,-36 398,0 718,0 718,-36"/>
<text text-anchor="middle" x="558" y="-14.3" font-family="Times,serif" font-size="14.00">/__w/AtomVM/AtomVM/src/libAtomVM/jit.c</text>
</a>
</g>
</g>
<!-- 12 -->
<g id="node3" class="node">
<title>12</title>
<g id="a_node3"><a xlink:title="/__w/AtomVM/AtomVM/src/libAtomVM/context.c">
<polygon fill="#ffffff" stroke="black" points="2271.5,-36 1912.5,-36 1912.5,0 2271.5,0 2271.5,-36"/>
<text text-anchor="middle" x="2092" y="-14.3" font-family="Times,serif" font-size="14.00">/__w/AtomVM/AtomVM/src/libAtomVM/context.c</text>
</a>
</g>
</g>
<!-- 3 -->
<g id="node4" class="node">
<title>3</title>
<g id="a_node4"><a xlink:title="/__w/AtomVM/AtomVM/src/libAtomVM/bif.c">
<polygon fill="#ffffff" stroke="black" points="1059.5,-36 736.5,-36 736.5,0 1059.5,0 1059.5,-36"/>
<text text-anchor="middle" x="898" y="-14.3" font-family="Times,serif" font-size="14.00">/__w/AtomVM/AtomVM/src/libAtomVM/bif.c</text>
</a>
</g>
</g>
<!-- 2 -->
<g id="node5" class="node">
<title>2</title>
<g id="a_node5"><a xlink:title="/__w/AtomVM/AtomVM/src/libAtomVM/bif.h">
<polygon fill="#ffffff" stroke="black" points="1042.5,-108 717.5,-108 717.5,-72 1042.5,-72 1042.5,-108"/>
<text text-anchor="middle" x="880" y="-86.3" font-family="Times,serif" font-size="14.00">/__w/AtomVM/AtomVM/src/libAtomVM/bif.h</text>
</a>
</g>
</g>
<!-- 2&#45;&gt;6 -->
<g id="edge4" class="edge">
<title>2&#45;&gt;6</title>
<g id="a_edge4"><a xlink:title="include">
<path fill="none" stroke="#1414ce" d="M1053.24,-74.07C1192.94,-62.02 1388.17,-45.19 1525.93,-33.32"/>
<polygon fill="#1414ce" stroke="#1414ce" points="1052.52,-70.61 1042.86,-74.96 1053.12,-77.59 1052.52,-70.61"/>
</a>
</g>
</g>
<!-- 2&#45;&gt;4 -->
<g id="edge2" class="edge">
<title>2&#45;&gt;4</title>
<g id="a_edge2"><a xlink:title="include">
<path fill="none" stroke="#1414ce" d="M791.77,-69.82C743.17,-59.25 683.38,-46.26 636.43,-36.05"/>
<polygon fill="#1414ce" stroke="#1414ce" points="791.13,-73.26 801.64,-71.97 792.61,-66.42 791.13,-73.26"/>
</a>
</g>
</g>
<!-- 2&#45;&gt;3 -->
<g id="edge1" class="edge">
<title>2&#45;&gt;3</title>
<g id="a_edge1"><a xlink:title="include">
<path fill="none" stroke="#1414ce" d="M886.96,-61.95C889.19,-53.26 891.6,-43.88 893.6,-36.1"/>
<polygon fill="#1414ce" stroke="#1414ce" points="883.55,-61.14 884.45,-71.7 890.33,-62.88 883.55,-61.14"/>
</a>
</g>
</g>
<!-- 5 -->
<g id="node7" class="node">
<title>5</title>
<g id="a_node7"><a xlink:title="/__w/AtomVM/AtomVM/src/libAtomVM/module.c">
<polygon fill="#ffffff" stroke="black" points="1436,-36 1078,-36 1078,0 1436,0 1436,-36"/>
<text text-anchor="middle" x="1257" y="-14.3" font-family="Times,serif" font-size="14.00">/__w/AtomVM/AtomVM/src/libAtomVM/module.c</text>
</a>
</g>
</g>
<!-- 2&#45;&gt;5 -->
<g id="edge3" class="edge">
<title>2&#45;&gt;5</title>
<g id="a_edge3"><a xlink:title="include">
<path fill="none" stroke="#1414ce" d="M981.88,-70.08C1039.03,-59.47 1109.75,-46.34 1165.17,-36.05"/>
<polygon fill="#1414ce" stroke="#1414ce" points="980.94,-66.7 971.74,-71.97 982.21,-73.58 980.94,-66.7"/>
</a>
</g>
</g>
<!-- 11 -->
<g id="node6" class="node">
<title>11</title>
<g id="a_node6"><a xlink:title="/__w/AtomVM/AtomVM/src/libAtomVM/sys.h">
<polygon fill="#ffffff" stroke="black" points="2660,-108 2330,-108 2330,-72 2660,-72 2660,-108"/>
<text text-anchor="middle" x="2495" y="-86.3" font-family="Times,serif" font-size="14.00">/__w/AtomVM/AtomVM/src/libAtomVM/sys.h</text>
</a>
</g>
</g>
<!-- 11&#45;&gt;6 -->
<g id="edge8" class="edge">
<title>11&#45;&gt;6</title>
<g id="a_edge8"><a xlink:title="include">
<path fill="none" stroke="#1414ce" d="M2319.39,-72.31C2318.26,-72.2 2317.13,-72.1 2316,-72 2160.88,-58.05 1983.97,-43.11 1858.24,-32.67"/>
<polygon fill="#1414ce" stroke="#1414ce" points="2319.42,-75.82 2329.69,-73.24 2320.05,-68.85 2319.42,-75.82"/>
</a>
</g>
</g>
<!-- 11&#45;&gt;12 -->
<g id="edge5" class="edge">
<title>11&#45;&gt;12</title>
<g id="a_edge5"><a xlink:title="include">
<path fill="none" stroke="#1414ce" d="M2386.85,-70.21C2325.63,-59.58 2249.65,-46.38 2190.16,-36.05"/>
<polygon fill="#1414ce" stroke="#1414ce" points="2386.48,-73.7 2396.93,-71.97 2387.68,-66.81 2386.48,-73.7"/>
</a>
</g>
</g>
<!-- 11&#45;&gt;5 -->
<g id="edge7" class="edge">
<title>11&#45;&gt;5</title>
<g id="a_edge7"><a xlink:title="include">
<path fill="none" stroke="#1414ce" d="M2319.61,-74.42C2307.56,-73.56 2295.6,-72.74 2284,-72 1943.43,-50.29 1857.73,-55.13 1517,-36 1490.92,-34.54 1463.37,-32.87 1436.35,-31.16"/>
<polygon fill="#1414ce" stroke="#1414ce" points="2319.52,-77.92 2329.75,-75.15 2320.03,-70.94 2319.52,-77.92"/>
</a>
</g>
</g>
<!-- 15 -->
<g id="node9" class="node">
<title>15</title>
<g id="a_node9"><a xlink:title="/__w/AtomVM/AtomVM/src/libAtomVM/resources.c">
<polygon fill="#ffffff" stroke="black" points="2664.5,-36 2289.5,-36 2289.5,0 2664.5,0 2664.5,-36"/>
<text text-anchor="middle" x="2477" y="-14.3" font-family="Times,serif" font-size="14.00">/__w/AtomVM/AtomVM/src/libAtomVM/resources.c</text>
</a>
</g>
</g>
<!-- 11&#45;&gt;15 -->
<g id="edge10" class="edge">
<title>11&#45;&gt;15</title>
<g id="a_edge10"><a xlink:title="include">
<path fill="none" stroke="#1414ce" d="M2488.04,-61.95C2485.81,-53.26 2483.4,-43.88 2481.4,-36.1"/>
<polygon fill="#1414ce" stroke="#1414ce" points="2484.67,-62.88 2490.55,-71.7 2491.45,-61.14 2484.67,-62.88"/>
</a>
</g>
</g>
<!-- 13 -->
<g id="node12" class="node">
<title>13</title>
<g id="a_node12"><a xlink:title="/__w/AtomVM/AtomVM/src/libAtomVM/globalcontext.c">
<polygon fill="#ffffff" stroke="black" points="3085,-36 2683,-36 2683,0 3085,0 3085,-36"/>
<text text-anchor="middle" x="2884" y="-14.3" font-family="Times,serif" font-size="14.00">/__w/AtomVM/AtomVM/src/libAtomVM/globalcontext.c</text>
</a>
</g>
</g>
<!-- 11&#45;&gt;13 -->
<g id="edge6" class="edge">
<title>11&#45;&gt;13</title>
<g id="a_edge6"><a xlink:title="include">
<path fill="none" stroke="#1414ce" d="M2599.76,-70.15C2658.79,-59.53 2731.94,-46.36 2789.25,-36.05"/>
<polygon fill="#1414ce" stroke="#1414ce" points="2598.88,-66.75 2589.66,-71.97 2600.12,-73.64 2598.88,-66.75"/>
</a>
</g>
</g>
<!-- 14 -->
<g id="node14" class="node">
<title>14</title>
<g id="a_node14"><a xlink:title="/__w/AtomVM/AtomVM/src/libAtomVM/otp_socket.c">
<polygon fill="#ffffff" stroke="black" points="3484.5,-36 3103.5,-36 3103.5,0 3484.5,0 3484.5,-36"/>
<text text-anchor="middle" x="3294" y="-14.3" font-family="Times,serif" font-size="14.00">/__w/AtomVM/AtomVM/src/libAtomVM/otp_socket.c</text>
</a>
</g>
</g>
<!-- 11&#45;&gt;14 -->
<g id="edge9" class="edge">
<title>11&#45;&gt;14</title>
<g id="a_edge9"><a xlink:title="include">
<path fill="none" stroke="#1414ce" d="M2670.37,-73.64C2798.35,-62.42 2971.71,-47.24 3103.17,-35.72"/>
<polygon fill="#1414ce" stroke="#1414ce" points="2669.73,-70.18 2660.07,-74.54 2670.34,-77.15 2669.73,-70.18"/>
</a>
</g>
</g>
<!-- 1 -->
<g id="node8" class="node">
<title>1</title>
<g id="a_node8"><a xlink:title="/__w/AtomVM/AtomVM/src/libAtomVM/module.h">
<polygon fill="#bfbfbf" stroke="black" points="1477.5,-180 1118.5,-180 1118.5,-144 1477.5,-144 1477.5,-180"/>
<text text-anchor="middle" x="1298" y="-158.3" font-family="Times,serif" font-size="14.00">/__w/AtomVM/AtomVM/src/libAtomVM/module.h</text>
</a>
</g>
</g>
<!-- 1&#45;&gt;6 -->
<g id="edge15" class="edge">
<title>1&#45;&gt;6</title>
<g id="a_edge15"><a xlink:title="include">
<path fill="none" stroke="#1414ce" d="M1487.97,-157.43C1766.82,-151.25 2257.08,-136.4 2284,-108 2295.01,-96.39 2294.8,-83.81 2284,-72 2280.38,-68.05 2032.17,-46.91 1858.33,-32.55"/>
<polygon fill="#1414ce" stroke="#1414ce" points="1487.65,-153.94 1477.73,-157.66 1487.8,-160.94 1487.65,-153.94"/>
</a>
</g>
</g>
<!-- 1&#45;&gt;4 -->
<g id="edge13" class="edge">
<title>1&#45;&gt;4</title>
<g id="a_edge13"><a xlink:title="include">
<path fill="none" stroke="#1414ce" d="M1107.99,-157.61C963.11,-152.49 777.07,-139.73 708,-108 687.15,-98.42 689.87,-85.05 671,-72 650.06,-57.52 624.54,-45.16 603.05,-36.04"/>
<polygon fill="#1414ce" stroke="#1414ce" points="1108.24,-161.12 1118.35,-157.96 1108.48,-154.12 1108.24,-161.12"/>
</a>
</g>
</g>
<!-- 1&#45;&gt;2 -->
<g id="edge11" class="edge">
<title>1&#45;&gt;2</title>
<g id="a_edge11"><a xlink:title="include">
<path fill="none" stroke="#1414ce" d="M1186.22,-142.28C1122.65,-131.64 1043.65,-118.41 981.81,-108.05"/>
<polygon fill="#1414ce" stroke="#1414ce" points="1185.84,-145.77 1196.28,-143.97 1187,-138.86 1185.84,-145.77"/>
</a>
</g>
</g>
<!-- 1&#45;&gt;11 -->
<g id="edge18" class="edge">
<title>1&#45;&gt;11</title>
<g id="a_edge18"><a xlink:title="include">
<path fill="none" stroke="#1414ce" d="M1488.15,-153.53C1692.76,-144.92 2027.66,-129.19 2316,-108 2320.51,-107.67 2325.09,-107.32 2329.71,-106.96"/>
<polygon fill="#1414ce" stroke="#1414ce" points="1487.74,-150.04 1477.9,-153.96 1488.04,-157.03 1487.74,-150.04"/>
</a>
</g>
</g>
<!-- 1&#45;&gt;5 -->
<g id="edge14" class="edge">
<title>1&#45;&gt;5</title>
<g id="a_edge14"><a xlink:title="include">
<path fill="none" stroke="#1414ce" d="M1170.04,-141.84C1133.37,-133.58 1100.24,-122.44 1089,-108 1061.49,-72.64 1110.39,-49.75 1162.41,-36.06"/>
<polygon fill="#1414ce" stroke="#1414ce" points="1169.43,-145.29 1179.94,-143.98 1170.91,-138.44 1169.43,-145.29"/>
</a>
</g>
</g>
<!-- 16 -->
<g id="node10" class="node">
<title>16</title>
<g id="a_node10"><a xlink:title="/__w/AtomVM/AtomVM/src/libAtomVM/term.c">
<polygon fill="#ffffff" stroke="black" points="1857,-108 1517,-108 1517,-72 1857,-72 1857,-108"/>
<text text-anchor="middle" x="1687" y="-86.3" font-family="Times,serif" font-size="14.00">/__w/AtomVM/AtomVM/src/libAtomVM/term.c</text>
</a>
</g>
</g>
<!-- 1&#45;&gt;16 -->
<g id="edge19" class="edge">
<title>1&#45;&gt;16</title>
<g id="a_edge19"><a xlink:title="include">
<path fill="none" stroke="#1414ce" d="M1402.76,-142.15C1461.79,-131.53 1534.94,-118.36 1592.25,-108.05"/>
<polygon fill="#1414ce" stroke="#1414ce" points="1401.88,-138.75 1392.66,-143.97 1403.12,-145.64 1401.88,-138.75"/>
</a>
</g>
</g>
<!-- 7 -->
<g id="node11" class="node">
<title>7</title>
<g id="a_node11"><a xlink:title="/__w/AtomVM/AtomVM/src/libAtomVM/externalterm.c">
<polygon fill="#ffffff" stroke="black" points="2274.5,-108 1875.5,-108 1875.5,-72 2274.5,-72 2274.5,-108"/>
<text text-anchor="middle" x="2075" y="-86.3" font-family="Times,serif" font-size="14.00">/__w/AtomVM/AtomVM/src/libAtomVM/externalterm.c</text>
</a>
</g>
</g>
<!-- 1&#45;&gt;7 -->
<g id="edge12" class="edge">
<title>1&#45;&gt;7</title>
<g id="a_edge12"><a xlink:title="include">
<path fill="none" stroke="#1414ce" d="M1487.85,-143.9C1608.91,-132.99 1765.18,-118.91 1886.06,-108.02"/>
<polygon fill="#1414ce" stroke="#1414ce" points="1487.37,-140.43 1477.72,-144.81 1488,-147.4 1487.37,-140.43"/>
</a>
</g>
</g>
<!-- 8 -->
<g id="node13" class="node">
<title>8</title>
<g id="a_node13"><a xlink:title="/__w/AtomVM/AtomVM/src/libAtomVM/platform_nifs.h">
<polygon fill="#ffffff" stroke="black" points="1498.5,-108 1097.5,-108 1097.5,-72 1498.5,-72 1498.5,-108"/>
<text text-anchor="middle" x="1298" y="-86.3" font-family="Times,serif" font-size="14.00">/__w/AtomVM/AtomVM/src/libAtomVM/platform_nifs.h</text>
</a>
</g>
</g>
<!-- 1&#45;&gt;8 -->
<g id="edge16" class="edge">
<title>1&#45;&gt;8</title>
<g id="a_edge16"><a xlink:title="include">
<path fill="none" stroke="#1414ce" d="M1298,-133.67C1298,-125.05 1298,-115.79 1298,-108.1"/>
<polygon fill="#1414ce" stroke="#1414ce" points="1294.5,-133.7 1298,-143.7 1301.5,-133.7 1294.5,-133.7"/>
</a>
</g>
</g>
<!-- 9 -->
<g id="node16" class="node">
<title>9</title>
<g id="a_node16"><a xlink:title="/__w/AtomVM/AtomVM/src/libAtomVM/stacktrace.h">
<polygon fill="#ffffff" stroke="black" points="662.5,-108 281.5,-108 281.5,-72 662.5,-72 662.5,-108"/>
<text text-anchor="middle" x="472" y="-86.3" font-family="Times,serif" font-size="14.00">/__w/AtomVM/AtomVM/src/libAtomVM/stacktrace.h</text>
</a>
</g>
</g>
<!-- 1&#45;&gt;9 -->
<g id="edge17" class="edge">
<title>1&#45;&gt;9</title>
<g id="a_edge17"><a xlink:title="include">
<path fill="none" stroke="#1414ce" d="M1107.91,-144.89C974.29,-133.57 796.22,-118.48 662.51,-107.14"/>
<polygon fill="#1414ce" stroke="#1414ce" points="1108,-148.41 1118.26,-145.77 1108.59,-141.44 1108,-148.41"/>
</a>
</g>
</g>
<!-- 8&#45;&gt;6 -->
<g id="edge20" class="edge">
<title>8&#45;&gt;6</title>
<g id="a_edge20"><a xlink:title="include">
<path fill="none" stroke="#1414ce" d="M1403.74,-70.21C1463.59,-59.58 1537.87,-46.38 1596.03,-36.05"/>
<polygon fill="#1414ce" stroke="#1414ce" points="1403.11,-66.77 1393.88,-71.97 1404.34,-73.66 1403.11,-66.77"/>
</a>
</g>
</g>
<!-- 10 -->
<g id="node15" class="node">
<title>10</title>
<g id="a_node15"><a xlink:title="/__w/AtomVM/AtomVM/src/libAtomVM/stacktrace.c">
<polygon fill="#ffffff" stroke="black" points="380,-36 0,-36 0,0 380,0 380,-36"/>
<text text-anchor="middle" x="190" y="-14.3" font-family="Times,serif" font-size="14.00">/__w/AtomVM/AtomVM/src/libAtomVM/stacktrace.c</text>
</a>
</g>
</g>
<!-- 9&#45;&gt;4 -->
<g id="edge21" class="edge">
<title>9&#45;&gt;4</title>
<g id="a_edge21"><a xlink:title="include">
<path fill="none" stroke="#1414ce" d="M501.11,-65.31C512.87,-55.73 526.19,-44.89 536.99,-36.1"/>
<polygon fill="#1414ce" stroke="#1414ce" points="498.8,-62.67 493.26,-71.7 503.22,-68.1 498.8,-62.67"/>
</a>
</g>
</g>
<!-- 9&#45;&gt;10 -->
<g id="edge22" class="edge">
<title>9&#45;&gt;10</title>
<g id="a_edge22"><a xlink:title="include">
<path fill="none" stroke="#1414ce" d="M393.41,-69.49C351.18,-59.01 299.59,-46.2 258.93,-36.11"/>
<polygon fill="#1414ce" stroke="#1414ce" points="392.83,-72.95 403.38,-71.97 394.51,-66.16 392.83,-72.95"/>
</a>
</g>
</g>
</g>
</svg>
