<?xml version="1.0" encoding="UTF-8" standalone="no"?>
<!DOCTYPE svg PUBLIC "-//W3C//DTD SVG 1.1//EN"
 "http://www.w3.org/Graphics/SVG/1.1/DTD/svg11.dtd">
<!-- Generated by graphviz version 2.43.0 (0)
 -->
<!-- Title: %3 Pages: 1 -->
<svg width="610pt" height="188pt"
 viewBox="0.00 0.00 610.00 188.00" xmlns="http://www.w3.org/2000/svg" xmlns:xlink="http://www.w3.org/1999/xlink">
<g id="graph0" class="graph" transform="scale(1 1) rotate(0) translate(4 184)">
<title>%3</title>
<polygon fill="transparent" stroke="transparent" points="-4,4 -4,-184 606,-184 606,4 -4,4"/>
<!-- 1 -->
<g id="node1" class="node">
<title>1</title>
<g id="a_node1"><a xlink:title="/__w/AtomVM/AtomVM/src/libAtomVM/utils.c">
<polygon fill="#bfbfbf" stroke="black" points="462,-180 125,-180 125,-144 462,-144 462,-180"/>
<text text-anchor="middle" x="293.5" y="-158.3" font-family="Times,serif" font-size="14.00">/__w/AtomVM/AtomVM/src/libAtomVM/utils.c</text>
</a>
</g>
</g>
<!-- 2 -->
<g id="node2" class="node">
<title>2</title>
<g id="a_node2"><a xlink:title="utils.h">
<polygon fill="#ffffff" stroke="black" points="238.5,-108 176.5,-108 176.5,-72 238.5,-72 238.5,-108"/>
<text text-anchor="middle" x="207.5" y="-86.3" font-family="Times,serif" font-size="14.00">utils.h</text>
</a>
</g>
</g>
<!-- 1&#45;&gt;2 -->
<g id="edge1" class="edge">
<title>1&#45;&gt;2</title>
<g id="a_edge1"><a xlink:title="include">
<path fill="none" stroke="#1414ce" d="M272.24,-143.7C261.41,-134.88 248.08,-124.03 236.34,-114.47"/>
<polygon fill="#1414ce" stroke="#1414ce" points="238.48,-111.7 228.51,-108.1 234.06,-117.13 238.48,-111.7"/>
</a>
</g>
</g>
<!-- 8 -->
<g id="node3" class="node">
<title>8</title>
<g id="a_node3"><a xlink:title="assert.h">
<polygon fill="#ffffff" stroke="black" points="330.5,-108 256.5,-108 256.5,-72 330.5,-72 330.5,-108"/>
<text text-anchor="middle" x="293.5" y="-86.3" font-family="Times,serif" font-size="14.00">assert.h</text>
</a>
</g>
</g>
<!-- 1&#45;&gt;8 -->
<g id="edge2" class="edge">
<title>1&#45;&gt;8</title>
<g id="a_edge2"><a xlink:title="include">
<path fill="none" stroke="#1414ce" d="M293.5,-143.7C293.5,-135.98 293.5,-126.71 293.5,-118.11"/>
<polygon fill="#1414ce" stroke="#1414ce" points="297,-118.1 293.5,-108.1 290,-118.1 297,-118.1"/>
</a>
</g>
</g>
<!-- 3 -->
<g id="node4" class="node">
<title>3</title>
<g id="a_node4"><a xlink:title="inttypes.h">
<polygon fill="#ffffff" stroke="black" points="89,-36 0,-36 0,0 89,0 89,-36"/>
<text text-anchor="middle" x="44.5" y="-14.3" font-family="Times,serif" font-size="14.00">inttypes.h</text>
</a>
</g>
</g>
<!-- 1&#45;&gt;3 -->
<g id="edge3" class="edge">
<title>1&#45;&gt;3</title>
<g id="a_edge3"><a xlink:title="include">
<path fill="none" stroke="#1414ce" d="M230.42,-143.95C203.54,-135.26 172.46,-123.27 146.5,-108 116.46,-90.33 86.99,-63.26 67.51,-43.61"/>
<polygon fill="#1414ce" stroke="#1414ce" points="69.79,-40.94 60.31,-36.22 64.78,-45.83 69.79,-40.94"/>
</a>
</g>
</g>
<!-- 9 -->
<g id="node5" class="node">
<title>9</title>
<g id="a_node5"><a xlink:title="limits.h">
<polygon fill="#ffffff" stroke="black" points="420,-108 349,-108 349,-72 420,-72 420,-108"/>
<text text-anchor="middle" x="384.5" y="-86.3" font-family="Times,serif" font-size="14.00">limits.h</text>
</a>
</g>
</g>
<!-- 1&#45;&gt;9 -->
<g id="edge4" class="edge">
<title>1&#45;&gt;9</title>
<g id="a_edge4"><a xlink:title="include">
<path fill="none" stroke="#1414ce" d="M315.99,-143.7C327.46,-134.88 341.56,-124.03 353.98,-114.47"/>
<polygon fill="#1414ce" stroke="#1414ce" points="356.47,-116.98 362.26,-108.1 352.2,-111.43 356.47,-116.98"/>
</a>
</g>
</g>
<!-- 4 -->
<g id="node6" class="node">
<title>4</title>
<g id="a_node6"><a xlink:title="stdbool.h">
<polygon fill="#ffffff" stroke="black" points="190,-36 107,-36 107,0 190,0 190,-36"/>
<text text-anchor="middle" x="148.5" y="-14.3" font-family="Times,serif" font-size="14.00">stdbool.h</text>
</a>
</g>
</g>
<!-- 1&#45;&gt;4 -->
<g id="edge5" class="edge">
<title>1&#45;&gt;4</title>
<g id="a_edge5"><a xlink:title="include">
<path fill="none" stroke="#1414ce" d="M220.78,-143.93C200.95,-136.01 181.2,-124.54 167.5,-108 153.28,-90.83 148.97,-65.55 147.96,-46.32"/>
<polygon fill="#1414ce" stroke="#1414ce" points="151.45,-45.98 147.69,-36.07 144.45,-46.16 151.45,-45.98"/>
</a>
</g>
</g>
<!-- 10 -->
<g id="node8" class="node">
<title>10</title>
<g id="a_node8"><a xlink:title="stdint.h">
<polygon fill="#ffffff" stroke="black" points="510.5,-108 438.5,-108 438.5,-72 510.5,-72 510.5,-108"/>
<text text-anchor="middle" x="474.5" y="-86.3" font-family="Times,serif" font-size="14.00">stdint.h</text>
</a>
</g>
</g>
<!-- 1&#45;&gt;10 -->
<g id="edge6" class="edge">
<title>1&#45;&gt;10</title>
<g id="a_edge6"><a xlink:title="include">
<path fill="none" stroke="#1414ce" d="M337.78,-143.88C365.4,-133.2 400.86,-119.48 428.75,-108.69"/>
<polygon fill="#1414ce" stroke="#1414ce" points="430.21,-111.88 438.28,-105.01 427.69,-105.35 430.21,-111.88"/>
</a>
</g>
</g>
<!-- 11 -->
<g id="node11" class="node">
<title>11</title>
<g id="a_node11"><a xlink:title="string.h">
<polygon fill="#ffffff" stroke="black" points="602,-108 529,-108 529,-72 602,-72 602,-108"/>
<text text-anchor="middle" x="565.5" y="-86.3" font-family="Times,serif" font-size="14.00">string.h</text>
</a>
</g>
</g>
<!-- 1&#45;&gt;11 -->
<g id="edge7" class="edge">
<title>1&#45;&gt;11</title>
<g id="a_edge7"><a xlink:title="include">
<path fill="none" stroke="#1414ce" d="M377.07,-143.99C417.46,-135.15 466.73,-123.48 519.16,-107.91"/>
<polygon fill="#1414ce" stroke="#1414ce" points="520.41,-111.19 528.98,-104.96 518.4,-104.49 520.41,-111.19"/>
</a>
</g>
</g>
<!-- 2&#45;&gt;3 -->
<g id="edge8" class="edge">
<title>2&#45;&gt;3</title>
<g id="a_edge8"><a xlink:title="include">
<path fill="none" stroke="#1414ce" d="M176.46,-75.67C152.99,-65.59 120.32,-51.56 93.36,-39.98"/>
<polygon fill="#1414ce" stroke="#1414ce" points="94.66,-36.73 84.09,-36 91.9,-43.16 94.66,-36.73"/>
</a>
</g>
</g>
<!-- 2&#45;&gt;4 -->
<g id="edge9" class="edge">
<title>2&#45;&gt;4</title>
<g id="a_edge9"><a xlink:title="include">
<path fill="none" stroke="#1414ce" d="M192.92,-71.7C185.84,-63.3 177.22,-53.07 169.45,-43.86"/>
<polygon fill="#1414ce" stroke="#1414ce" points="172.04,-41.49 162.92,-36.1 166.69,-46.01 172.04,-41.49"/>
</a>
</g>
</g>
<!-- 5 -->
<g id="node7" class="node">
<title>5</title>
<g id="a_node7"><a xlink:title="stddef.h">
<polygon fill="#ffffff" stroke="black" points="282.5,-36 208.5,-36 208.5,0 282.5,0 282.5,-36"/>
<text text-anchor="middle" x="245.5" y="-14.3" font-family="Times,serif" font-size="14.00">stddef.h</text>
</a>
</g>
</g>
<!-- 2&#45;&gt;5 -->
<g id="edge10" class="edge">
<title>2&#45;&gt;5</title>
<g id="a_edge10"><a xlink:title="include">
<path fill="none" stroke="#1414ce" d="M216.89,-71.7C221.26,-63.64 226.56,-53.89 231.4,-44.98"/>
<polygon fill="#1414ce" stroke="#1414ce" points="234.52,-46.56 236.21,-36.1 228.37,-43.22 234.52,-46.56"/>
</a>
</g>
</g>
<!-- 6 -->
<g id="node9" class="node">
<title>6</title>
<g id="a_node9"><a xlink:title="stdio.h">
<polygon fill="#ffffff" stroke="black" points="366,-36 301,-36 301,0 366,0 366,-36"/>
<text text-anchor="middle" x="333.5" y="-14.3" font-family="Times,serif" font-size="14.00">stdio.h</text>
</a>
</g>
</g>
<!-- 2&#45;&gt;6 -->
<g id="edge11" class="edge">
<title>2&#45;&gt;6</title>
<g id="a_edge11"><a xlink:title="include">
<path fill="none" stroke="#1414ce" d="M238.32,-71.88C254.95,-62.64 275.66,-51.13 293.52,-41.21"/>
<polygon fill="#1414ce" stroke="#1414ce" points="295.52,-44.11 302.56,-36.19 292.12,-37.99 295.52,-44.11"/>
</a>
</g>
</g>
<!-- 7 -->
<g id="node10" class="node">
<title>7</title>
<g id="a_node10"><a xlink:title="stdlib.h">
<polygon fill="#ffffff" stroke="black" points="455,-36 384,-36 384,0 455,0 455,-36"/>
<text text-anchor="middle" x="419.5" y="-14.3" font-family="Times,serif" font-size="14.00">stdlib.h</text>
</a>
</g>
</g>
<!-- 2&#45;&gt;7 -->
<g id="edge12" class="edge">
<title>2&#45;&gt;7</title>
<g id="a_edge12"><a xlink:title="include">
<path fill="none" stroke="#1414ce" d="M238.79,-75.25C241.72,-74.1 244.65,-73 247.5,-72 300.31,-53.44 317.61,-54.49 373.82,-36.4"/>
<polygon fill="#1414ce" stroke="#1414ce" points="375.17,-39.64 383.58,-33.2 372.99,-32.99 375.17,-39.64"/>
</a>
</g>
</g>
</g>
</svg>
