<?xml version="1.0" encoding="UTF-8" standalone="no"?>
<!DOCTYPE svg PUBLIC "-//W3C//DTD SVG 1.1//EN"
 "http://www.w3.org/Graphics/SVG/1.1/DTD/svg11.dtd">
<!-- Generated by graphviz version 2.43.0 (0)
 -->
<!-- Title: %3 Pages: 1 -->
<svg width="1517pt" height="116pt"
 viewBox="0.00 0.00 1516.50 116.00" xmlns="http://www.w3.org/2000/svg" xmlns:xlink="http://www.w3.org/1999/xlink">
<g id="graph0" class="graph" transform="scale(1 1) rotate(0) translate(4 112)">
<title>%3</title>
<polygon fill="transparent" stroke="transparent" points="-4,4 -4,-112 1512.5,-112 1512.5,4 -4,4"/>
<!-- 5 -->
<g id="node1" class="node">
<title>5</title>
<g id="a_node1"><a xlink:title="/__w/AtomVM/AtomVM/src/libAtomVM/nifs.c">
<polygon fill="#ffffff" stroke="black" points="332,-36 0,-36 0,0 332,0 332,-36"/>
<text text-anchor="middle" x="166" y="-14.3" font-family="Times,serif" font-size="14.00">/__w/AtomVM/AtomVM/src/libAtomVM/nifs.c</text>
</a>
</g>
</g>
<!-- 4 -->
<g id="node2" class="node">
<title>4</title>
<g id="a_node2"><a xlink:title="/__w/AtomVM/AtomVM/src/libAtomVM/module.c">
<polygon fill="#ffffff" stroke="black" points="708,-36 350,-36 350,0 708,0 708,-36"/>
<text text-anchor="middle" x="529" y="-14.3" font-family="Times,serif" font-size="14.00">/__w/AtomVM/AtomVM/src/libAtomVM/module.c</text>
</a>
</g>
</g>
<!-- 2 -->
<g id="node3" class="node">
<title>2</title>
<g id="a_node3"><a xlink:title="/__w/AtomVM/AtomVM/src/libAtomVM/dist_nifs.c">
<polygon fill="#ffffff" stroke="black" points="1091.5,-36 726.5,-36 726.5,0 1091.5,0 1091.5,-36"/>
<text text-anchor="middle" x="909" y="-14.3" font-family="Times,serif" font-size="14.00">/__w/AtomVM/AtomVM/src/libAtomVM/dist_nifs.c</text>
</a>
</g>
</g>
<!-- 3 -->
<g id="node4" class="node">
<title>3</title>
<g id="a_node4"><a xlink:title="/__w/AtomVM/AtomVM/src/libAtomVM/externalterm.c">
<polygon fill="#ffffff" stroke="black" points="1508.5,-36 1109.5,-36 1109.5,0 1508.5,0 1508.5,-36"/>
<text text-anchor="middle" x="1309" y="-14.3" font-family="Times,serif" font-size="14.00">/__w/AtomVM/AtomVM/src/libAtomVM/externalterm.c</text>
</a>
</g>
</g>
<!-- 1 -->
<g id="node5" class="node">
<title>1</title>
<g id="a_node5"><a xlink:title="/__w/AtomVM/AtomVM/src/libAtomVM/externalterm.h">
<polygon fill="#bfbfbf" stroke="black" points="919.5,-108 518.5,-108 518.5,-72 919.5,-72 919.5,-108"/>
<text text-anchor="middle" x="719" y="-86.3" font-family="Times,serif" font-size="14.00">/__w/AtomVM/AtomVM/src/libAtomVM/externalterm.h</text>
</a>
</g>
</g>
<!-- 1&#45;&gt;5 -->
<g id="edge4" class="edge">
<title>1&#45;&gt;5</title>
<g id="a_edge4"><a xlink:title="include">
<path fill="none" stroke="#1414ce" d="M574.48,-70.71C489.82,-59.99 383.6,-46.54 300.7,-36.05"/>
<polygon fill="#1414ce" stroke="#1414ce" points="574.07,-74.18 584.43,-71.97 574.95,-67.24 574.07,-74.18"/>
</a>
</g>
</g>
<!-- 1&#45;&gt;4 -->
<g id="edge3" class="edge">
<title>1&#45;&gt;4</title>
<g id="a_edge3"><a xlink:title="include">
<path fill="none" stroke="#1414ce" d="M662.9,-68.33C635.02,-58.06 601.74,-45.8 575.33,-36.07"/>
<polygon fill="#1414ce" stroke="#1414ce" points="661.93,-71.7 672.52,-71.88 664.35,-65.13 661.93,-71.7"/>
</a>
</g>
</g>
<!-- 1&#45;&gt;2 -->
<g id="edge1" class="edge">
<title>1&#45;&gt;2</title>
<g id="a_edge1"><a xlink:title="include">
<path fill="none" stroke="#1414ce" d="M775.1,-68.33C802.98,-58.06 836.26,-45.8 862.67,-36.07"/>
<polygon fill="#1414ce" stroke="#1414ce" points="773.65,-65.13 765.48,-71.88 776.07,-71.7 773.65,-65.13"/>
</a>
</g>
</g>
<!-- 1&#45;&gt;3 -->
<g id="edge2" class="edge">
<title>1&#45;&gt;3</title>
<g id="a_edge2"><a xlink:title="include">
<path fill="none" stroke="#1414ce" d="M872.65,-70.77C963.15,-60.03 1076.89,-46.54 1165.55,-36.02"/>
<polygon fill="#1414ce" stroke="#1414ce" points="872.09,-67.31 862.58,-71.97 872.92,-74.26 872.09,-67.31"/>
</a>
</g>
</g>
</g>
</svg>
