<?xml version="1.0" encoding="UTF-8" standalone="no"?>
<!DOCTYPE svg PUBLIC "-//W3C//DTD SVG 1.1//EN"
 "http://www.w3.org/Graphics/SVG/1.1/DTD/svg11.dtd">
<!-- Generated by graphviz version 2.43.0 (0)
 -->
<!-- Title: %3 Pages: 1 -->
<svg width="1164pt" height="620pt"
 viewBox="0.00 0.00 1164.00 620.00" xmlns="http://www.w3.org/2000/svg" xmlns:xlink="http://www.w3.org/1999/xlink">
<g id="graph0" class="graph" transform="scale(1 1) rotate(0) translate(4 616)">
<title>%3</title>
<polygon fill="transparent" stroke="transparent" points="-4,4 -4,-616 1160,-616 1160,4 -4,4"/>
<!-- 5 -->
<g id="node1" class="node">
<title>5</title>
<g id="a_node1"><a xlink:title="stdbool.h">
<polygon fill="#ffffff" stroke="black" points="305.5,-108 222.5,-108 222.5,-72 305.5,-72 305.5,-108"/>
<text text-anchor="middle" x="264" y="-86.3" font-family="Times,serif" font-size="14.00">stdbool.h</text>
</a>
</g>
</g>
<!-- 19 -->
<g id="node2" class="node">
<title>19</title>
<g id="a_node2"><a xlink:title="refc_binary.h">
<polygon fill="#ffffff" stroke="black" points="502,-396 394,-396 394,-360 502,-360 502,-396"/>
<text text-anchor="middle" x="448" y="-374.3" font-family="Times,serif" font-size="14.00">refc_binary.h</text>
</a>
</g>
</g>
<!-- 19&#45;&gt;5 -->
<g id="edge1" class="edge">
<title>19&#45;&gt;5</title>
<g id="a_edge1"><a xlink:title="include">
<path fill="none" stroke="#1414ce" d="M428.99,-359.89C418.57,-349.98 405.82,-336.94 396,-324 343.34,-254.63 297.06,-162.02 276.03,-117.33"/>
<polygon fill="#1414ce" stroke="#1414ce" points="279.1,-115.62 271.7,-108.04 272.75,-118.58 279.1,-115.62"/>
</a>
</g>
</g>
<!-- 20 -->
<g id="node7" class="node">
<title>20</title>
<g id="a_node7"><a xlink:title="list.h">
<polygon fill="#ffffff" stroke="black" points="498,-180 444,-180 444,-144 498,-144 498,-180"/>
<text text-anchor="middle" x="471" y="-158.3" font-family="Times,serif" font-size="14.00">list.h</text>
</a>
</g>
</g>
<!-- 19&#45;&gt;20 -->
<g id="edge3" class="edge">
<title>19&#45;&gt;20</title>
<g id="a_edge3"><a xlink:title="include">
<path fill="none" stroke="#1414ce" d="M449.84,-359.85C453.82,-322.83 463.24,-235.18 468.06,-190.39"/>
<polygon fill="#1414ce" stroke="#1414ce" points="471.56,-190.55 469.15,-180.23 464.6,-189.8 471.56,-190.55"/>
</a>
</g>
</g>
<!-- 8 -->
<g id="node10" class="node">
<title>8</title>
<g id="a_node10"><a xlink:title="stdlib.h">
<polygon fill="#ffffff" stroke="black" points="715.5,-108 644.5,-108 644.5,-72 715.5,-72 715.5,-108"/>
<text text-anchor="middle" x="680" y="-86.3" font-family="Times,serif" font-size="14.00">stdlib.h</text>
</a>
</g>
</g>
<!-- 19&#45;&gt;8 -->
<g id="edge2" class="edge">
<title>19&#45;&gt;8</title>
<g id="a_edge2"><a xlink:title="include">
<path fill="none" stroke="#1414ce" d="M440.05,-359.72C421.98,-317.55 383.23,-208.17 435,-144 447.49,-128.52 567.15,-108.11 634.49,-97.71"/>
<polygon fill="#1414ce" stroke="#1414ce" points="635.08,-101.17 644.43,-96.19 634.02,-94.25 635.08,-101.17"/>
</a>
</g>
</g>
<!-- 21 -->
<g id="node12" class="node">
<title>21</title>
<g id="a_node12"><a xlink:title="resources.h">
<polygon fill="#ffffff" stroke="black" points="678,-324 578,-324 578,-288 678,-288 678,-324"/>
<text text-anchor="middle" x="628" y="-302.3" font-family="Times,serif" font-size="14.00">resources.h</text>
</a>
</g>
</g>
<!-- 19&#45;&gt;21 -->
<g id="edge4" class="edge">
<title>19&#45;&gt;21</title>
<g id="a_edge4"><a xlink:title="include">
<path fill="none" stroke="#1414ce" d="M492.03,-359.88C516.97,-350.18 548.34,-337.98 574.66,-327.74"/>
<polygon fill="#1414ce" stroke="#1414ce" points="576.06,-330.95 584.11,-324.07 573.52,-324.43 576.06,-330.95"/>
</a>
</g>
</g>
<!-- 10 -->
<g id="node3" class="node">
<title>10</title>
<g id="a_node3"><a xlink:title="atom.h">
<polygon fill="#ffffff" stroke="black" points="388,-180 322,-180 322,-144 388,-144 388,-180"/>
<text text-anchor="middle" x="355" y="-158.3" font-family="Times,serif" font-size="14.00">atom.h</text>
</a>
</g>
</g>
<!-- 6 -->
<g id="node8" class="node">
<title>6</title>
<g id="a_node8"><a xlink:title="stdint.h">
<polygon fill="#ffffff" stroke="black" points="314,-36 242,-36 242,0 314,0 314,-36"/>
<text text-anchor="middle" x="278" y="-14.3" font-family="Times,serif" font-size="14.00">stdint.h</text>
</a>
</g>
</g>
<!-- 10&#45;&gt;6 -->
<g id="edge5" class="edge">
<title>10&#45;&gt;6</title>
<g id="a_edge5"><a xlink:title="include">
<path fill="none" stroke="#1414ce" d="M348.1,-143.86C340.53,-125.62 327.64,-96.14 314,-72 308.8,-62.8 302.51,-53.13 296.64,-44.6"/>
<polygon fill="#1414ce" stroke="#1414ce" points="299.36,-42.38 290.75,-36.2 293.62,-46.4 299.36,-42.38"/>
</a>
</g>
</g>
<!-- 10&#45;&gt;8 -->
<g id="edge6" class="edge">
<title>10&#45;&gt;8</title>
<g id="a_edge6"><a xlink:title="include">
<path fill="none" stroke="#1414ce" d="M388.17,-148.27C392.78,-146.71 397.48,-145.24 402,-144 482.57,-121.9 578.76,-105.77 634.27,-97.44"/>
<polygon fill="#1414ce" stroke="#1414ce" points="635.1,-100.85 644.48,-95.92 634.08,-93.93 635.1,-100.85"/>
</a>
</g>
</g>
<!-- 14 -->
<g id="node4" class="node">
<title>14</title>
<g id="a_node4"><a xlink:title="assert.h">
<polygon fill="#ffffff" stroke="black" points="1146,-36 1072,-36 1072,0 1146,0 1146,-36"/>
<text text-anchor="middle" x="1109" y="-14.3" font-family="Times,serif" font-size="14.00">assert.h</text>
</a>
</g>
</g>
<!-- 17 -->
<g id="node5" class="node">
<title>17</title>
<g id="a_node5"><a xlink:title="utils.h">
<polygon fill="#ffffff" stroke="black" points="770,-180 708,-180 708,-144 770,-144 770,-180"/>
<text text-anchor="middle" x="739" y="-158.3" font-family="Times,serif" font-size="14.00">utils.h</text>
</a>
</g>
</g>
<!-- 17&#45;&gt;8 -->
<g id="edge9" class="edge">
<title>17&#45;&gt;8</title>
<g id="a_edge9"><a xlink:title="include">
<path fill="none" stroke="#1414ce" d="M724.42,-143.7C717.34,-135.3 708.72,-125.07 700.95,-115.86"/>
<polygon fill="#1414ce" stroke="#1414ce" points="703.54,-113.49 694.42,-108.1 698.19,-118.01 703.54,-113.49"/>
</a>
</g>
</g>
<!-- 18 -->
<g id="node14" class="node">
<title>18</title>
<g id="a_node14"><a xlink:title="stddef.h">
<polygon fill="#ffffff" stroke="black" points="542,-108 468,-108 468,-72 542,-72 542,-108"/>
<text text-anchor="middle" x="505" y="-86.3" font-family="Times,serif" font-size="14.00">stddef.h</text>
</a>
</g>
</g>
<!-- 17&#45;&gt;18 -->
<g id="edge7" class="edge">
<title>17&#45;&gt;18</title>
<g id="a_edge7"><a xlink:title="include">
<path fill="none" stroke="#1414ce" d="M707.93,-151.7C668.08,-139.79 598.61,-119 552.21,-105.12"/>
<polygon fill="#1414ce" stroke="#1414ce" points="552.98,-101.7 542.39,-102.19 550.97,-108.41 552.98,-101.7"/>
</a>
</g>
</g>
<!-- 7 -->
<g id="node25" class="node">
<title>7</title>
<g id="a_node25"><a xlink:title="stdio.h">
<polygon fill="#ffffff" stroke="black" points="798.5,-108 733.5,-108 733.5,-72 798.5,-72 798.5,-108"/>
<text text-anchor="middle" x="766" y="-86.3" font-family="Times,serif" font-size="14.00">stdio.h</text>
</a>
</g>
</g>
<!-- 17&#45;&gt;7 -->
<g id="edge8" class="edge">
<title>17&#45;&gt;7</title>
<g id="a_edge8"><a xlink:title="include">
<path fill="none" stroke="#1414ce" d="M745.67,-143.7C748.71,-135.81 752.38,-126.3 755.76,-117.55"/>
<polygon fill="#1414ce" stroke="#1414ce" points="759.07,-118.69 759.4,-108.1 752.54,-116.17 759.07,-118.69"/>
</a>
</g>
</g>
<!-- 23 -->
<g id="node6" class="node">
<title>23</title>
<g id="a_node6"><a xlink:title="synclist.h">
<polygon fill="#ffffff" stroke="black" points="599.5,-252 514.5,-252 514.5,-216 599.5,-216 599.5,-252"/>
<text text-anchor="middle" x="557" y="-230.3" font-family="Times,serif" font-size="14.00">synclist.h</text>
</a>
</g>
</g>
<!-- 23&#45;&gt;20 -->
<g id="edge11" class="edge">
<title>23&#45;&gt;20</title>
<g id="a_edge11"><a xlink:title="include">
<path fill="none" stroke="#1414ce" d="M535.74,-215.7C524.91,-206.88 511.58,-196.03 499.84,-186.47"/>
<polygon fill="#1414ce" stroke="#1414ce" points="501.98,-183.7 492.01,-180.1 497.56,-189.13 501.98,-183.7"/>
</a>
</g>
</g>
<!-- 24 -->
<g id="node22" class="node">
<title>24</title>
<g id="a_node22"><a xlink:title="smp.h">
<polygon fill="#ffffff" stroke="black" points="576,-180 516,-180 516,-144 576,-144 576,-180"/>
<text text-anchor="middle" x="546" y="-158.3" font-family="Times,serif" font-size="14.00">smp.h</text>
</a>
</g>
</g>
<!-- 23&#45;&gt;24 -->
<g id="edge12" class="edge">
<title>23&#45;&gt;24</title>
<g id="a_edge12"><a xlink:title="include">
<path fill="none" stroke="#1414ce" d="M554.28,-215.7C553.07,-207.98 551.61,-198.71 550.26,-190.11"/>
<polygon fill="#1414ce" stroke="#1414ce" points="553.7,-189.44 548.69,-180.1 546.78,-190.53 553.7,-189.44"/>
</a>
</g>
</g>
<!-- 23&#45;&gt;7 -->
<g id="edge10" class="edge">
<title>23&#45;&gt;7</title>
<g id="a_edge10"><a xlink:title="include">
<path fill="none" stroke="#1414ce" d="M582.21,-215.87C619.71,-190.39 690.27,-142.45 732.21,-113.96"/>
<polygon fill="#1414ce" stroke="#1414ce" points="734.4,-116.7 740.7,-108.19 730.46,-110.91 734.4,-116.7"/>
</a>
</g>
</g>
<!-- 20&#45;&gt;5 -->
<g id="edge13" class="edge">
<title>20&#45;&gt;5</title>
<g id="a_edge13"><a xlink:title="include">
<path fill="none" stroke="#1414ce" d="M443.94,-151.85C411.37,-140.84 355.99,-122.11 315.25,-108.33"/>
<polygon fill="#1414ce" stroke="#1414ce" points="316.35,-105.01 305.75,-105.12 314.11,-111.64 316.35,-105.01"/>
</a>
</g>
</g>
<!-- 1 -->
<g id="node9" class="node">
<title>1</title>
<g id="a_node9"><a xlink:title="/__w/AtomVM/AtomVM/src/libAtomVM/jit.h">
<polygon fill="#bfbfbf" stroke="black" points="620,-612 298,-612 298,-576 620,-576 620,-612"/>
<text text-anchor="middle" x="459" y="-590.3" font-family="Times,serif" font-size="14.00">/__w/AtomVM/AtomVM/src/libAtomVM/jit.h</text>
</a>
</g>
</g>
<!-- 1&#45;&gt;5 -->
<g id="edge18" class="edge">
<title>1&#45;&gt;5</title>
<g id="a_edge18"><a xlink:title="include">
<path fill="none" stroke="#1414ce" d="M363.06,-575.96C295.85,-557.87 218,-521.66 218,-451 218,-451 218,-451 218,-233 218,-191.04 236.4,-145.36 249.93,-117.44"/>
<polygon fill="#1414ce" stroke="#1414ce" points="253.13,-118.86 254.47,-108.34 246.87,-115.73 253.13,-118.86"/>
</a>
</g>
</g>
<!-- 3 -->
<g id="node13" class="node">
<title>3</title>
<g id="a_node13"><a xlink:title="term.h">
<polygon fill="#ffffff" stroke="black" points="595.5,-468 530.5,-468 530.5,-432 595.5,-432 595.5,-468"/>
<text text-anchor="middle" x="563" y="-446.3" font-family="Times,serif" font-size="14.00">term.h</text>
</a>
</g>
</g>
<!-- 1&#45;&gt;3 -->
<g id="edge16" class="edge">
<title>1&#45;&gt;3</title>
<g id="a_edge16"><a xlink:title="include">
<path fill="none" stroke="#1414ce" d="M500.12,-575.99C516.09,-567.43 533.11,-555.52 544,-540 556.65,-521.97 561.16,-497.18 562.64,-478.34"/>
<polygon fill="#1414ce" stroke="#1414ce" points="566.14,-478.48 563.19,-468.3 559.15,-478.1 566.14,-478.48"/>
</a>
</g>
</g>
<!-- 26 -->
<g id="node16" class="node">
<title>26</title>
<g id="a_node16"><a xlink:title="exportedfunction.h">
<polygon fill="#ffffff" stroke="black" points="535,-540 383,-540 383,-504 535,-504 535,-540"/>
<text text-anchor="middle" x="459" y="-518.3" font-family="Times,serif" font-size="14.00">exportedfunction.h</text>
</a>
</g>
</g>
<!-- 1&#45;&gt;26 -->
<g id="edge15" class="edge">
<title>1&#45;&gt;26</title>
<g id="a_edge15"><a xlink:title="include">
<path fill="none" stroke="#1414ce" d="M459,-575.7C459,-567.98 459,-558.71 459,-550.11"/>
<polygon fill="#1414ce" stroke="#1414ce" points="462.5,-550.1 459,-540.1 455.5,-550.1 462.5,-550.1"/>
</a>
</g>
</g>
<!-- 13 -->
<g id="node20" class="node">
<title>13</title>
<g id="a_node20"><a xlink:title="term_typedef.h">
<polygon fill="#ffffff" stroke="black" points="1071.5,-108 946.5,-108 946.5,-72 1071.5,-72 1071.5,-108"/>
<text text-anchor="middle" x="1009" y="-86.3" font-family="Times,serif" font-size="14.00">term_typedef.h</text>
</a>
</g>
</g>
<!-- 1&#45;&gt;13 -->
<g id="edge17" class="edge">
<title>1&#45;&gt;13</title>
<g id="a_edge17"><a xlink:title="include">
<path fill="none" stroke="#1414ce" d="M620.22,-591.92C826.09,-586.08 1156,-559.75 1156,-451 1156,-451 1156,-451 1156,-233 1156,-188.27 1140.61,-175.65 1109,-144 1096.18,-131.16 1079.59,-120.68 1063.62,-112.54"/>
<polygon fill="#1414ce" stroke="#1414ce" points="1064.85,-109.24 1054.32,-108.01 1061.78,-115.54 1064.85,-109.24"/>
</a>
</g>
</g>
<!-- 2 -->
<g id="node21" class="node">
<title>2</title>
<g id="a_node21"><a xlink:title="bitstring.h">
<polygon fill="#ffffff" stroke="black" points="188,-540 96,-540 96,-504 188,-504 188,-540"/>
<text text-anchor="middle" x="142" y="-518.3" font-family="Times,serif" font-size="14.00">bitstring.h</text>
</a>
</g>
</g>
<!-- 1&#45;&gt;2 -->
<g id="edge14" class="edge">
<title>1&#45;&gt;2</title>
<g id="a_edge14"><a xlink:title="include">
<path fill="none" stroke="#1414ce" d="M370.19,-575.96C321.04,-566.18 258.95,-553.23 204,-540 202.09,-539.54 200.14,-539.06 198.18,-538.57"/>
<polygon fill="#1414ce" stroke="#1414ce" points="198.86,-535.13 188.3,-536.04 197.12,-541.91 198.86,-535.13"/>
</a>
</g>
</g>
<!-- 11 -->
<g id="node11" class="node">
<title>11</title>
<g id="a_node11"><a xlink:title="memory.h">
<polygon fill="#ffffff" stroke="black" points="922,-252 836,-252 836,-216 922,-216 922,-252"/>
<text text-anchor="middle" x="879" y="-230.3" font-family="Times,serif" font-size="14.00">memory.h</text>
</a>
</g>
</g>
<!-- 11&#45;&gt;17 -->
<g id="edge23" class="edge">
<title>11&#45;&gt;17</title>
<g id="a_edge23"><a xlink:title="include">
<path fill="none" stroke="#1414ce" d="M844.75,-215.88C824.96,-205.98 799.94,-193.47 779.22,-183.11"/>
<polygon fill="#1414ce" stroke="#1414ce" points="780.54,-179.86 770.03,-178.51 777.41,-186.12 780.54,-179.86"/>
</a>
</g>
</g>
<!-- 11&#45;&gt;6 -->
<g id="edge19" class="edge">
<title>11&#45;&gt;6</title>
<g id="a_edge19"><a xlink:title="include">
<path fill="none" stroke="#1414ce" d="M877.12,-215.78C872.39,-181.79 856.67,-106.35 808,-72 768.86,-44.38 445.85,-26.75 324.15,-21.03"/>
<polygon fill="#1414ce" stroke="#1414ce" points="324.19,-17.53 314.03,-20.56 323.86,-24.52 324.19,-17.53"/>
</a>
</g>
</g>
<!-- 11&#45;&gt;8 -->
<g id="edge20" class="edge">
<title>11&#45;&gt;8</title>
<g id="a_edge20"><a xlink:title="include">
<path fill="none" stroke="#1414ce" d="M869.84,-215.68C858.59,-195.91 837.79,-163.76 812,-144 808.25,-141.13 761.93,-122.8 725.2,-108.48"/>
<polygon fill="#1414ce" stroke="#1414ce" points="726.21,-105.12 715.62,-104.76 723.68,-111.65 726.21,-105.12"/>
</a>
</g>
</g>
<!-- 12 -->
<g id="node15" class="node">
<title>12</title>
<g id="a_node15"><a xlink:title="erl_nif.h">
<polygon fill="#ffffff" stroke="black" points="1052,-180 978,-180 978,-144 1052,-144 1052,-180"/>
<text text-anchor="middle" x="1015" y="-158.3" font-family="Times,serif" font-size="14.00">erl_nif.h</text>
</a>
</g>
</g>
<!-- 11&#45;&gt;12 -->
<g id="edge21" class="edge">
<title>11&#45;&gt;12</title>
<g id="a_edge21"><a xlink:title="include">
<path fill="none" stroke="#1414ce" d="M912.27,-215.88C930.46,-206.51 953.19,-194.81 972.64,-184.8"/>
<polygon fill="#1414ce" stroke="#1414ce" points="974.31,-187.88 981.6,-180.19 971.11,-181.65 974.31,-187.88"/>
</a>
</g>
</g>
<!-- 11&#45;&gt;13 -->
<g id="edge22" class="edge">
<title>11&#45;&gt;13</title>
<g id="a_edge22"><a xlink:title="include">
<path fill="none" stroke="#1414ce" d="M894.68,-215.87C917.52,-190.92 960.07,-144.45 986.32,-115.77"/>
<polygon fill="#1414ce" stroke="#1414ce" points="989.09,-117.93 993.26,-108.19 983.93,-113.2 989.09,-117.93"/>
</a>
</g>
</g>
<!-- 21&#45;&gt;23 -->
<g id="edge29" class="edge">
<title>21&#45;&gt;23</title>
<g id="a_edge29"><a xlink:title="include">
<path fill="none" stroke="#1414ce" d="M610.45,-287.7C601.77,-279.14 591.14,-268.66 581.65,-259.3"/>
<polygon fill="#1414ce" stroke="#1414ce" points="583.93,-256.63 574.35,-252.1 579.01,-261.62 583.93,-256.63"/>
</a>
</g>
</g>
<!-- 21&#45;&gt;20 -->
<g id="edge26" class="edge">
<title>21&#45;&gt;20</title>
<g id="a_edge26"><a xlink:title="include">
<path fill="none" stroke="#1414ce" d="M577.71,-293.27C553.02,-285.26 524.47,-272.31 505,-252 488.77,-235.08 480.09,-209.61 475.57,-190.25"/>
<polygon fill="#1414ce" stroke="#1414ce" points="478.95,-189.28 473.47,-180.21 472.1,-190.71 478.95,-189.28"/>
</a>
</g>
</g>
<!-- 21&#45;&gt;8 -->
<g id="edge24" class="edge">
<title>21&#45;&gt;8</title>
<g id="a_edge24"><a xlink:title="include">
<path fill="none" stroke="#1414ce" d="M631.4,-287.88C635.03,-269.92 641.06,-240.9 647,-216 655.07,-182.19 665.45,-143.54 672.4,-118.28"/>
<polygon fill="#1414ce" stroke="#1414ce" points="675.86,-118.9 675.15,-108.32 669.11,-117.03 675.86,-118.9"/>
</a>
</g>
</g>
<!-- 21&#45;&gt;11 -->
<g id="edge28" class="edge">
<title>21&#45;&gt;11</title>
<g id="a_edge28"><a xlink:title="include">
<path fill="none" stroke="#1414ce" d="M678.19,-291C720.93,-279.08 782.15,-262.01 825.75,-249.85"/>
<polygon fill="#1414ce" stroke="#1414ce" points="826.9,-253.16 835.59,-247.11 825.02,-246.42 826.9,-253.16"/>
</a>
</g>
</g>
<!-- 21&#45;&gt;12 -->
<g id="edge25" class="edge">
<title>21&#45;&gt;12</title>
<g id="a_edge25"><a xlink:title="include">
<path fill="none" stroke="#1414ce" d="M678.06,-305.69C740.82,-304.52 850,-295.59 931,-252 958.99,-236.93 982.96,-209.08 998.04,-188.53"/>
<polygon fill="#1414ce" stroke="#1414ce" points="1001,-190.4 1003.95,-180.23 995.3,-186.34 1001,-190.4"/>
</a>
</g>
</g>
<!-- 22 -->
<g id="node24" class="node">
<title>22</title>
<g id="a_node24"><a xlink:title="mailbox.h">
<polygon fill="#ffffff" stroke="black" points="742,-252 656,-252 656,-216 742,-216 742,-252"/>
<text text-anchor="middle" x="699" y="-230.3" font-family="Times,serif" font-size="14.00">mailbox.h</text>
</a>
</g>
</g>
<!-- 21&#45;&gt;22 -->
<g id="edge27" class="edge">
<title>21&#45;&gt;22</title>
<g id="a_edge27"><a xlink:title="include">
<path fill="none" stroke="#1414ce" d="M645.55,-287.7C654.23,-279.14 664.86,-268.66 674.35,-259.3"/>
<polygon fill="#1414ce" stroke="#1414ce" points="676.99,-261.62 681.65,-252.1 672.07,-256.63 676.99,-261.62"/>
</a>
</g>
</g>
<!-- 3&#45;&gt;5 -->
<g id="edge31" class="edge">
<title>3&#45;&gt;5</title>
<g id="a_edge31"><a xlink:title="include">
<path fill="none" stroke="#1414ce" d="M530.44,-448.64C451.43,-445.89 256,-426.94 256,-307 256,-307 256,-307 256,-233 256,-192.93 259.21,-146.61 261.57,-118.05"/>
<polygon fill="#1414ce" stroke="#1414ce" points="265.06,-118.29 262.42,-108.03 258.09,-117.7 265.06,-118.29"/>
</a>
</g>
</g>
<!-- 3&#45;&gt;19 -->
<g id="edge38" class="edge">
<title>3&#45;&gt;19</title>
<g id="a_edge38"><a xlink:title="include">
<path fill="none" stroke="#1414ce" d="M534.87,-431.88C519.83,-422.72 501.13,-411.34 484.94,-401.48"/>
<polygon fill="#1414ce" stroke="#1414ce" points="486.6,-398.4 476.24,-396.19 482.96,-404.38 486.6,-398.4"/>
</a>
</g>
</g>
<!-- 3&#45;&gt;10 -->
<g id="edge36" class="edge">
<title>3&#45;&gt;10</title>
<g id="a_edge36"><a xlink:title="include">
<path fill="none" stroke="#1414ce" d="M530.4,-449.3C489.72,-447.76 421.14,-438.49 385,-396 334.89,-337.07 342.56,-237.58 349.9,-189.96"/>
<polygon fill="#1414ce" stroke="#1414ce" points="353.36,-190.53 351.54,-180.09 346.45,-189.38 353.36,-190.53"/>
</a>
</g>
</g>
<!-- 3&#45;&gt;17 -->
<g id="edge39" class="edge">
<title>3&#45;&gt;17</title>
<g id="a_edge39"><a xlink:title="include">
<path fill="none" stroke="#1414ce" d="M562.18,-431.71C562.2,-411.97 565.27,-379.84 583,-360 615.59,-323.53 646.32,-351.16 687,-324 722.61,-300.23 735.78,-292.02 751,-252 758.59,-232.05 754.63,-207.99 749.3,-189.91"/>
<polygon fill="#1414ce" stroke="#1414ce" points="752.6,-188.73 746.18,-180.3 745.94,-190.89 752.6,-188.73"/>
</a>
</g>
</g>
<!-- 3&#45;&gt;6 -->
<g id="edge32" class="edge">
<title>3&#45;&gt;6</title>
<g id="a_edge32"><a xlink:title="include">
<path fill="none" stroke="#1414ce" d="M530.48,-449.42C473.97,-448.84 355.42,-441.71 269,-396 150.1,-333.1 107.89,-304.51 57,-180 23.34,-97.64 157.44,-49.58 231.69,-29.74"/>
<polygon fill="#1414ce" stroke="#1414ce" points="232.94,-33.03 241.74,-27.12 231.18,-26.25 232.94,-33.03"/>
</a>
</g>
</g>
<!-- 3&#45;&gt;8 -->
<g id="edge34" class="edge">
<title>3&#45;&gt;8</title>
<g id="a_edge34"><a xlink:title="include">
<path fill="none" stroke="#1414ce" d="M595.58,-446.23C652.25,-440.67 765.22,-426 789,-396 806.07,-374.46 874.51,-295.41 779,-144 772.4,-133.53 747.98,-120.4 725.05,-109.83"/>
<polygon fill="#1414ce" stroke="#1414ce" points="726.26,-106.54 715.7,-105.62 723.38,-112.92 726.26,-106.54"/>
</a>
</g>
</g>
<!-- 3&#45;&gt;11 -->
<g id="edge37" class="edge">
<title>3&#45;&gt;11</title>
<g id="a_edge37"><a xlink:title="include">
<path fill="none" stroke="#1414ce" d="M595.79,-446.28C657.67,-440.51 788.5,-425.15 822,-396 861.32,-361.78 873.52,-298.62 877.3,-262.42"/>
<polygon fill="#1414ce" stroke="#1414ce" points="880.82,-262.38 878.22,-252.11 873.85,-261.76 880.82,-262.38"/>
</a>
</g>
</g>
<!-- 4 -->
<g id="node18" class="node">
<title>4</title>
<g id="a_node18"><a xlink:title="sys/types.h">
<polygon fill="#ffffff" stroke="black" points="688.5,-396 591.5,-396 591.5,-360 688.5,-360 688.5,-396"/>
<text text-anchor="middle" x="640" y="-374.3" font-family="Times,serif" font-size="14.00">sys/types.h</text>
</a>
</g>
</g>
<!-- 3&#45;&gt;4 -->
<g id="edge30" class="edge">
<title>3&#45;&gt;4</title>
<g id="a_edge30"><a xlink:title="include">
<path fill="none" stroke="#1414ce" d="M582.03,-431.7C591.54,-423.05 603.21,-412.45 613.57,-403.03"/>
<polygon fill="#1414ce" stroke="#1414ce" points="616.14,-405.42 621.19,-396.1 611.43,-400.24 616.14,-405.42"/>
</a>
</g>
</g>
<!-- 9 -->
<g id="node19" class="node">
<title>9</title>
<g id="a_node19"><a xlink:title="string.h">
<polygon fill="#ffffff" stroke="black" points="779.5,-396 706.5,-396 706.5,-360 779.5,-360 779.5,-396"/>
<text text-anchor="middle" x="743" y="-374.3" font-family="Times,serif" font-size="14.00">string.h</text>
</a>
</g>
</g>
<!-- 3&#45;&gt;9 -->
<g id="edge35" class="edge">
<title>3&#45;&gt;9</title>
<g id="a_edge35"><a xlink:title="include">
<path fill="none" stroke="#1414ce" d="M595.6,-436.32C623.87,-425.33 665.13,-409.28 696.81,-396.96"/>
<polygon fill="#1414ce" stroke="#1414ce" points="698.25,-400.16 706.31,-393.27 695.72,-393.63 698.25,-400.16"/>
</a>
</g>
</g>
<!-- 3&#45;&gt;13 -->
<g id="edge40" class="edge">
<title>3&#45;&gt;13</title>
<g id="a_edge40"><a xlink:title="include">
<path fill="none" stroke="#1414ce" d="M595.64,-447.48C685.39,-442.95 934.18,-427.77 1009,-396 1066.57,-371.56 1118,-369.54 1118,-307 1118,-307 1118,-307 1118,-233 1118,-190.66 1109.97,-177.44 1084,-144 1074.87,-132.25 1062.43,-122.02 1050.3,-113.76"/>
<polygon fill="#1414ce" stroke="#1414ce" points="1051.88,-110.61 1041.58,-108.11 1048.07,-116.49 1051.88,-110.61"/>
</a>
</g>
</g>
<!-- 3&#45;&gt;7 -->
<g id="edge33" class="edge">
<title>3&#45;&gt;7</title>
<g id="a_edge33"><a xlink:title="include">
<path fill="none" stroke="#1414ce" d="M595.73,-447.12C709.38,-439.73 1080,-407.88 1080,-307 1080,-307 1080,-307 1080,-233 1080,-192.55 1090.06,-172.13 1061,-144 1043.08,-126.65 886.53,-105.56 809.05,-96.06"/>
<polygon fill="#1414ce" stroke="#1414ce" points="809.02,-92.53 798.67,-94.8 808.17,-99.48 809.02,-92.53"/>
</a>
</g>
</g>
<!-- 12&#45;&gt;13 -->
<g id="edge41" class="edge">
<title>12&#45;&gt;13</title>
<g id="a_edge41"><a xlink:title="include">
<path fill="none" stroke="#1414ce" d="M1013.52,-143.7C1012.86,-135.98 1012.06,-126.71 1011.32,-118.11"/>
<polygon fill="#1414ce" stroke="#1414ce" points="1014.81,-117.77 1010.47,-108.1 1007.83,-118.37 1014.81,-117.77"/>
</a>
</g>
</g>
<!-- 26&#45;&gt;3 -->
<g id="edge42" class="edge">
<title>26&#45;&gt;3</title>
<g id="a_edge42"><a xlink:title="include">
<path fill="none" stroke="#1414ce" d="M484.44,-503.88C497.79,-494.89 514.32,-483.76 528.78,-474.03"/>
<polygon fill="#1414ce" stroke="#1414ce" points="531.12,-476.68 537.46,-468.19 527.21,-470.87 531.12,-476.68"/>
</a>
</g>
</g>
<!-- 15 -->
<g id="node17" class="node">
<title>15</title>
<g id="a_node17"><a xlink:title="limits.h">
<polygon fill="#ffffff" stroke="black" points="946.5,-36 875.5,-36 875.5,0 946.5,0 946.5,-36"/>
<text text-anchor="middle" x="911" y="-14.3" font-family="Times,serif" font-size="14.00">limits.h</text>
</a>
</g>
</g>
<!-- 13&#45;&gt;14 -->
<g id="edge43" class="edge">
<title>13&#45;&gt;14</title>
<g id="a_edge43"><a xlink:title="include">
<path fill="none" stroke="#1414ce" d="M1033.46,-71.88C1046.3,-62.89 1062.2,-51.76 1076.09,-42.03"/>
<polygon fill="#1414ce" stroke="#1414ce" points="1078.26,-44.79 1084.44,-36.19 1074.24,-39.06 1078.26,-44.79"/>
</a>
</g>
</g>
<!-- 13&#45;&gt;6 -->
<g id="edge46" class="edge">
<title>13&#45;&gt;6</title>
<g id="a_edge46"><a xlink:title="include">
<path fill="none" stroke="#1414ce" d="M946.15,-75.3C939.37,-74.07 932.55,-72.94 926,-72 701.88,-40 431.18,-25.61 324.46,-20.88"/>
<polygon fill="#1414ce" stroke="#1414ce" points="324.5,-17.38 314.35,-20.44 324.19,-24.37 324.5,-17.38"/>
</a>
</g>
</g>
<!-- 13&#45;&gt;15 -->
<g id="edge44" class="edge">
<title>13&#45;&gt;15</title>
<g id="a_edge44"><a xlink:title="include">
<path fill="none" stroke="#1414ce" d="M985.03,-71.88C972.45,-62.89 956.87,-51.76 943.25,-42.03"/>
<polygon fill="#1414ce" stroke="#1414ce" points="945.24,-39.15 935.07,-36.19 941.17,-44.85 945.24,-39.15"/>
</a>
</g>
</g>
<!-- 16 -->
<g id="node26" class="node">
<title>16</title>
<g id="a_node26"><a xlink:title="inttypes.h">
<polygon fill="#ffffff" stroke="black" points="1053.5,-36 964.5,-36 964.5,0 1053.5,0 1053.5,-36"/>
<text text-anchor="middle" x="1009" y="-14.3" font-family="Times,serif" font-size="14.00">inttypes.h</text>
</a>
</g>
</g>
<!-- 13&#45;&gt;16 -->
<g id="edge45" class="edge">
<title>13&#45;&gt;16</title>
<g id="a_edge45"><a xlink:title="include">
<path fill="none" stroke="#1414ce" d="M1009,-71.7C1009,-63.98 1009,-54.71 1009,-46.11"/>
<polygon fill="#1414ce" stroke="#1414ce" points="1012.5,-46.1 1009,-36.1 1005.5,-46.1 1012.5,-46.1"/>
</a>
</g>
</g>
<!-- 2&#45;&gt;5 -->
<g id="edge49" class="edge">
<title>2&#45;&gt;5</title>
<g id="a_edge49"><a xlink:title="include">
<path fill="none" stroke="#1414ce" d="M140.91,-503.92C138.14,-448.2 135.31,-268.22 204,-144 210.2,-132.79 219.72,-122.78 229.35,-114.56"/>
<polygon fill="#1414ce" stroke="#1414ce" points="231.81,-117.08 237.41,-108.09 227.42,-111.62 231.81,-117.08"/>
</a>
</g>
</g>
<!-- 2&#45;&gt;6 -->
<g id="edge50" class="edge">
<title>2&#45;&gt;6</title>
<g id="a_edge50"><a xlink:title="include">
<path fill="none" stroke="#1414ce" d="M105.06,-503.95C62.99,-481.69 0,-438.44 0,-379 0,-379 0,-379 0,-161 0,-58.17 152.7,-29.77 231.76,-21.95"/>
<polygon fill="#1414ce" stroke="#1414ce" points="232.3,-25.41 241.94,-21.02 231.66,-18.44 232.3,-25.41"/>
</a>
</g>
</g>
<!-- 2&#45;&gt;3 -->
<g id="edge47" class="edge">
<title>2&#45;&gt;3</title>
<g id="a_edge47"><a xlink:title="include">
<path fill="none" stroke="#1414ce" d="M188.26,-513.31C270.44,-499.64 440.71,-471.33 520.28,-458.1"/>
<polygon fill="#1414ce" stroke="#1414ce" points="521.14,-461.51 530.43,-456.42 519.99,-454.6 521.14,-461.51"/>
</a>
</g>
</g>
<!-- 25 -->
<g id="node23" class="node">
<title>25</title>
<g id="a_node23"><a xlink:title="unicode.h">
<polygon fill="#ffffff" stroke="black" points="152,-180 66,-180 66,-144 152,-144 152,-180"/>
<text text-anchor="middle" x="109" y="-158.3" font-family="Times,serif" font-size="14.00">unicode.h</text>
</a>
</g>
</g>
<!-- 2&#45;&gt;25 -->
<g id="edge48" class="edge">
<title>2&#45;&gt;25</title>
<g id="a_edge48"><a xlink:title="include">
<path fill="none" stroke="#1414ce" d="M134.31,-503.91C123.21,-477.62 104,-425.45 104,-379 104,-379 104,-379 104,-305 104,-264.97 106.01,-218.63 107.48,-190.07"/>
<polygon fill="#1414ce" stroke="#1414ce" points="110.98,-190.21 108.01,-180.04 103.99,-189.84 110.98,-190.21"/>
</a>
</g>
</g>
<!-- 24&#45;&gt;5 -->
<g id="edge51" class="edge">
<title>24&#45;&gt;5</title>
<g id="a_edge51"><a xlink:title="include">
<path fill="none" stroke="#1414ce" d="M515.99,-147.22C512.98,-146.05 509.95,-144.95 507,-144 442.43,-123.11 365.55,-107.89 315.81,-99.26"/>
<polygon fill="#1414ce" stroke="#1414ce" points="316.38,-95.8 305.93,-97.57 315.2,-102.7 316.38,-95.8"/>
</a>
</g>
</g>
<!-- 25&#45;&gt;5 -->
<g id="edge52" class="edge">
<title>25&#45;&gt;5</title>
<g id="a_edge52"><a xlink:title="include">
<path fill="none" stroke="#1414ce" d="M146.92,-143.88C168.01,-134.35 194.46,-122.41 216.87,-112.28"/>
<polygon fill="#1414ce" stroke="#1414ce" points="218.53,-115.37 226.21,-108.07 215.65,-108.99 218.53,-115.37"/>
</a>
</g>
</g>
<!-- 25&#45;&gt;6 -->
<g id="edge54" class="edge">
<title>25&#45;&gt;6</title>
<g id="a_edge54"><a xlink:title="include">
<path fill="none" stroke="#1414ce" d="M128.82,-143.8C149.66,-125.77 183.45,-96.68 213,-72 224.69,-62.23 237.68,-51.6 248.95,-42.44"/>
<polygon fill="#1414ce" stroke="#1414ce" points="251.26,-45.08 256.82,-36.06 246.85,-39.64 251.26,-45.08"/>
</a>
</g>
</g>
<!-- 25&#45;&gt;18 -->
<g id="edge53" class="edge">
<title>25&#45;&gt;18</title>
<g id="a_edge53"><a xlink:title="include">
<path fill="none" stroke="#1414ce" d="M152.13,-153.38C226.95,-140.15 380.21,-113.06 457.78,-99.35"/>
<polygon fill="#1414ce" stroke="#1414ce" points="458.52,-102.77 467.76,-97.58 457.3,-95.88 458.52,-102.77"/>
</a>
</g>
</g>
<!-- 22&#45;&gt;5 -->
<g id="edge55" class="edge">
<title>22&#45;&gt;5</title>
<g id="a_edge55"><a xlink:title="include">
<path fill="none" stroke="#1414ce" d="M682.65,-215.78C661.98,-195.16 624.32,-161.24 585,-144 537.66,-123.24 393.92,-105.07 315.83,-96.4"/>
<polygon fill="#1414ce" stroke="#1414ce" points="316.05,-92.91 305.72,-95.29 315.28,-99.86 316.05,-92.91"/>
</a>
</g>
</g>
<!-- 22&#45;&gt;17 -->
<g id="edge58" class="edge">
<title>22&#45;&gt;17</title>
<g id="a_edge58"><a xlink:title="include">
<path fill="none" stroke="#1414ce" d="M708.89,-215.7C713.49,-207.64 719.06,-197.89 724.15,-188.98"/>
<polygon fill="#1414ce" stroke="#1414ce" points="727.3,-190.52 729.23,-180.1 721.23,-187.05 727.3,-190.52"/>
</a>
</g>
</g>
<!-- 22&#45;&gt;20 -->
<g id="edge56" class="edge">
<title>22&#45;&gt;20</title>
<g id="a_edge56"><a xlink:title="include">
<path fill="none" stroke="#1414ce" d="M655.63,-223.28C618.42,-214.45 563.36,-200.19 507.93,-180.05"/>
<polygon fill="#1414ce" stroke="#1414ce" points="508.9,-176.67 498.31,-176.49 506.48,-183.24 508.9,-176.67"/>
</a>
</g>
</g>
<!-- 22&#45;&gt;13 -->
<g id="edge57" class="edge">
<title>22&#45;&gt;13</title>
<g id="a_edge57"><a xlink:title="include">
<path fill="none" stroke="#1414ce" d="M736.39,-215.87C793.07,-189.91 900.63,-140.64 962.35,-112.37"/>
<polygon fill="#1414ce" stroke="#1414ce" points="963.84,-115.54 971.47,-108.19 960.92,-109.17 963.84,-115.54"/>
</a>
</g>
</g>
</g>
</svg>
