<?xml version="1.0" encoding="UTF-8" standalone="no"?>
<!DOCTYPE svg PUBLIC "-//W3C//DTD SVG 1.1//EN"
 "http://www.w3.org/Graphics/SVG/1.1/DTD/svg11.dtd">
<!-- Generated by graphviz version 2.43.0 (0)
 -->
<!-- Title: %3 Pages: 1 -->
<svg width="1421pt" height="476pt"
 viewBox="0.00 0.00 1420.50 476.00" xmlns="http://www.w3.org/2000/svg" xmlns:xlink="http://www.w3.org/1999/xlink">
<g id="graph0" class="graph" transform="scale(1 1) rotate(0) translate(4 472)">
<title>%3</title>
<polygon fill="transparent" stroke="transparent" points="-4,4 -4,-472 1416.5,-472 1416.5,4 -4,4"/>
<!-- 26 -->
<g id="node1" class="node">
<title>26</title>
<g id="a_node1"><a xlink:title="SpinLock">
<polygon fill="#ffffff" stroke="black" points="1196,-324 1114,-324 1114,-288 1196,-288 1196,-324"/>
<text text-anchor="middle" x="1155" y="-302.3" font-family="Times,serif" font-size="14.00">SpinLock</text>
</a>
</g>
</g>
<!-- 4 -->
<g id="node2" class="node">
<title>4</title>
<g id="a_node2"><a xlink:title="ResourceType">
<polygon fill="#ffffff" stroke="black" points="963.5,-180 846.5,-180 846.5,-144 963.5,-144 963.5,-180"/>
<text text-anchor="middle" x="905" y="-158.3" font-family="Times,serif" font-size="14.00">ResourceType</text>
</a>
</g>
</g>
<!-- 6 -->
<g id="node4" class="node">
<title>6</title>
<g id="a_node4"><a xlink:title="ListHead">
<polygon fill="#ffffff" stroke="black" points="933.5,-36 852.5,-36 852.5,0 933.5,0 933.5,-36"/>
<text text-anchor="middle" x="893" y="-14.3" font-family="Times,serif" font-size="14.00">ListHead</text>
</a>
</g>
</g>
<!-- 4&#45;&gt;6 -->
<g id="edge3" class="edge">
<title>4&#45;&gt;6</title>
<g id="a_edge3"><a xlink:title="usage">
<path fill="none" stroke="#1414ce" d="M953.56,-143.97C969.67,-135.73 985.82,-124.06 995,-108 1002.94,-94.11 1003.31,-85.68 995,-72 983.52,-53.09 962.85,-40.62 943.11,-32.56"/>
<polygon fill="#1414ce" stroke="#1414ce" points="944.13,-29.2 933.54,-28.94 941.66,-35.75 944.13,-29.2"/>
</a>
</g>
</g>
<!-- 7 -->
<g id="node7" class="node">
<title>7</title>
<g id="a_node7"><a xlink:title="GlobalContext">
<polygon fill="#ffffff" stroke="black" points="1036.5,-396 917.5,-396 917.5,-360 1036.5,-360 1036.5,-396"/>
<text text-anchor="middle" x="977" y="-374.3" font-family="Times,serif" font-size="14.00">GlobalContext</text>
</a>
</g>
</g>
<!-- 4&#45;&gt;7 -->
<g id="edge2" class="edge">
<title>4&#45;&gt;7</title>
<g id="a_edge2"><a xlink:title="usage">
<path fill="none" stroke="#1414ce" d="M942.78,-180.14C956.19,-189.11 969.65,-201.3 977,-216 998.46,-258.93 995.21,-316.57 988.02,-349.96"/>
<polygon fill="#1414ce" stroke="#1414ce" points="984.57,-349.35 985.58,-359.9 991.37,-351.03 984.57,-349.35"/>
</a>
</g>
</g>
<!-- 5 -->
<g id="node25" class="node">
<title>5</title>
<g id="a_node25"><a xlink:title="SyncList">
<polygon fill="#ffffff" stroke="black" points="812,-108 734,-108 734,-72 812,-72 812,-108"/>
<text text-anchor="middle" x="773" y="-86.3" font-family="Times,serif" font-size="14.00">SyncList</text>
</a>
</g>
</g>
<!-- 4&#45;&gt;5 -->
<g id="edge1" class="edge">
<title>4&#45;&gt;5</title>
<g id="a_edge1"><a xlink:title="usage">
<path fill="none" stroke="#1414ce" d="M872.71,-143.88C855.13,-134.55 833.19,-122.92 814.37,-112.94"/>
<polygon fill="#1414ce" stroke="#1414ce" points="815.89,-109.78 805.41,-108.19 812.61,-115.97 815.89,-109.78"/>
</a>
</g>
</g>
<!-- 19 -->
<g id="node3" class="node">
<title>19</title>
<g id="a_node3"><a xlink:title="Module">
<polygon fill="#ffffff" stroke="black" points="558,-324 488,-324 488,-288 558,-288 558,-324"/>
<text text-anchor="middle" x="523" y="-302.3" font-family="Times,serif" font-size="14.00">Module</text>
</a>
</g>
</g>
<!-- 24 -->
<g id="node11" class="node">
<title>24</title>
<g id="a_node11"><a xlink:title="LiteralEntry">
<polygon fill="#ffffff" stroke="black" points="718,-252 614,-252 614,-216 718,-216 718,-252"/>
<text text-anchor="middle" x="666" y="-230.3" font-family="Times,serif" font-size="14.00">LiteralEntry</text>
</a>
</g>
</g>
<!-- 19&#45;&gt;24 -->
<g id="edge6" class="edge">
<title>19&#45;&gt;24</title>
<g id="a_edge6"><a xlink:title="usage">
<path fill="none" stroke="#1414ce" d="M557.98,-287.88C577.2,-278.47 601.23,-266.71 621.74,-256.67"/>
<polygon fill="#1414ce" stroke="#1414ce" points="623.44,-259.73 630.88,-252.19 620.36,-253.44 623.44,-259.73"/>
</a>
</g>
</g>
<!-- 21 -->
<g id="node14" class="node">
<title>21</title>
<g id="a_node14"><a xlink:title="Context">
<polygon fill="#ffffff" stroke="black" points="413.5,-252 340.5,-252 340.5,-216 413.5,-216 413.5,-252"/>
<text text-anchor="middle" x="377" y="-230.3" font-family="Times,serif" font-size="14.00">Context</text>
</a>
</g>
</g>
<!-- 19&#45;&gt;21 -->
<g id="edge5" class="edge">
<title>19&#45;&gt;21</title>
<g id="a_edge5"><a xlink:title="usage">
<path fill="none" stroke="#1414ce" d="M487.91,-290.83C466.2,-281.05 438.41,-267.84 416.02,-256.73"/>
<polygon fill="#1414ce" stroke="#1414ce" points="417.31,-253.46 406.8,-252.11 414.17,-259.72 417.31,-253.46"/>
</a>
</g>
</g>
<!-- 20 -->
<g id="node23" class="node">
<title>20</title>
<g id="a_node23"><a xlink:title="ExportedFunction">
<polygon fill="#ffffff" stroke="black" points="596,-252 450,-252 450,-216 596,-216 596,-252"/>
<text text-anchor="middle" x="523" y="-230.3" font-family="Times,serif" font-size="14.00">ExportedFunction</text>
</a>
</g>
</g>
<!-- 19&#45;&gt;20 -->
<g id="edge4" class="edge">
<title>19&#45;&gt;20</title>
<g id="a_edge4"><a xlink:title="usage">
<path fill="none" stroke="#1414ce" d="M523,-287.7C523,-279.98 523,-270.71 523,-262.11"/>
<polygon fill="#1414ce" stroke="#1414ce" points="526.5,-262.1 523,-252.1 519.5,-262.1 526.5,-262.1"/>
</a>
</g>
</g>
<!-- 6&#45;&gt;6 -->
<g id="edge7" class="edge">
<title>6&#45;&gt;6</title>
<g id="a_edge7"><a xlink:title="usage">
<path fill="none" stroke="#1414ce" d="M933.73,-31.31C943.9,-30.38 951.5,-25.95 951.5,-18 951.5,-12.91 948.38,-9.26 943.47,-7.05"/>
<polygon fill="#1414ce" stroke="#1414ce" points="944.28,-3.64 933.73,-4.69 942.63,-10.45 944.28,-3.64"/>
</a>
</g>
</g>
<!-- 12 -->
<g id="node5" class="node">
<title>12</title>
<g id="a_node5"><a xlink:title="HeapFragment">
<polygon fill="#ffffff" stroke="black" points="313.5,-36 188.5,-36 188.5,0 313.5,0 313.5,-36"/>
<text text-anchor="middle" x="251" y="-14.3" font-family="Times,serif" font-size="14.00">HeapFragment</text>
</a>
</g>
</g>
<!-- 12&#45;&gt;12 -->
<g id="edge8" class="edge">
<title>12&#45;&gt;12</title>
<g id="a_edge8"><a xlink:title="usage">
<path fill="none" stroke="#1414ce" d="M313.78,-30.55C324.26,-28.79 331.5,-24.61 331.5,-18 331.5,-13.77 328.53,-10.53 323.64,-8.29"/>
<polygon fill="#1414ce" stroke="#1414ce" points="324.36,-4.85 313.78,-5.45 322.42,-11.58 324.36,-4.85"/>
</a>
</g>
</g>
<!-- 17 -->
<g id="node6" class="node">
<title>17</title>
<g id="a_node6"><a xlink:title="RefcBinaryQueueItem">
<polygon fill="#ffffff" stroke="black" points="908,-324 734,-324 734,-288 908,-288 908,-324"/>
<text text-anchor="middle" x="821" y="-302.3" font-family="Times,serif" font-size="14.00">RefcBinaryQueueItem</text>
</a>
</g>
</g>
<!-- 17&#45;&gt;17 -->
<g id="edge10" class="edge">
<title>17&#45;&gt;17</title>
<g id="a_edge10"><a xlink:title="usage">
<path fill="none" stroke="#1414ce" d="M908.3,-317.68C918.99,-315.59 926,-311.7 926,-306 926,-302.35 923.12,-299.44 918.25,-297.27"/>
<polygon fill="#1414ce" stroke="#1414ce" points="918.88,-293.81 908.3,-294.32 916.89,-300.52 918.88,-293.81"/>
</a>
</g>
</g>
<!-- 18 -->
<g id="node16" class="node">
<title>18</title>
<g id="a_node16"><a xlink:title="RefcBinary">
<polygon fill="#ffffff" stroke="black" points="869.5,-252 774.5,-252 774.5,-216 869.5,-216 869.5,-252"/>
<text text-anchor="middle" x="822" y="-230.3" font-family="Times,serif" font-size="14.00">RefcBinary</text>
</a>
</g>
</g>
<!-- 17&#45;&gt;18 -->
<g id="edge9" class="edge">
<title>17&#45;&gt;18</title>
<g id="a_edge9"><a xlink:title="usage">
<path fill="none" stroke="#1414ce" d="M821.25,-287.7C821.36,-279.98 821.49,-270.71 821.61,-262.11"/>
<polygon fill="#1414ce" stroke="#1414ce" points="825.11,-262.15 821.76,-252.1 818.11,-262.05 825.11,-262.15"/>
</a>
</g>
</g>
<!-- 7&#45;&gt;26 -->
<g id="edge20" class="edge">
<title>7&#45;&gt;26</title>
<g id="a_edge20"><a xlink:title="usage">
<path fill="none" stroke="#1414ce" d="M1020.54,-359.88C1045.84,-349.93 1077.84,-337.34 1104.28,-326.95"/>
<polygon fill="#1414ce" stroke="#1414ce" points="1105.72,-330.14 1113.74,-323.23 1103.15,-323.63 1105.72,-330.14"/>
</a>
</g>
</g>
<!-- 7&#45;&gt;4 -->
<g id="edge11" class="edge">
<title>7&#45;&gt;4</title>
<g id="a_edge11"><a xlink:title="usage">
<path fill="none" stroke="#1414ce" d="M974.94,-359.9C976.22,-329.22 982.79,-263.58 959,-216 953.26,-204.51 943.79,-194.56 934.3,-186.48"/>
<polygon fill="#1414ce" stroke="#1414ce" points="936.4,-183.68 926.41,-180.14 932.01,-189.13 936.4,-183.68"/>
</a>
</g>
</g>
<!-- 7&#45;&gt;19 -->
<g id="edge18" class="edge">
<title>7&#45;&gt;19</title>
<g id="a_edge18"><a xlink:title="usage">
<path fill="none" stroke="#1414ce" d="M917.18,-367.78C825.05,-353.57 650.47,-326.65 568.13,-313.96"/>
<polygon fill="#1414ce" stroke="#1414ce" points="568.5,-310.47 558.09,-312.41 567.44,-317.39 568.5,-310.47"/>
</a>
</g>
</g>
<!-- 7&#45;&gt;6 -->
<g id="edge21" class="edge">
<title>7&#45;&gt;6</title>
<g id="a_edge21"><a xlink:title="usage">
<path fill="none" stroke="#1414ce" d="M994.23,-359.84C1004.14,-349.7 1016.64,-336.45 1027,-324 1065.03,-278.28 1061.93,-255.93 1106,-216 1129.33,-194.86 1151.39,-207.34 1167,-180 1174.93,-166.11 1175.61,-157.49 1167,-144 1117.88,-67.02 1008.24,-36.89 943.53,-25.52"/>
<polygon fill="#1414ce" stroke="#1414ce" points="943.99,-22.05 933.55,-23.86 942.84,-28.96 943.99,-22.05"/>
</a>
</g>
</g>
<!-- 7&#45;&gt;17 -->
<g id="edge16" class="edge">
<title>7&#45;&gt;17</title>
<g id="a_edge16"><a xlink:title="usage">
<path fill="none" stroke="#1414ce" d="M938.84,-359.88C917.61,-350.35 890.99,-338.41 868.43,-328.28"/>
<polygon fill="#1414ce" stroke="#1414ce" points="869.59,-324.97 859.04,-324.07 866.73,-331.36 869.59,-324.97"/>
</a>
</g>
</g>
<!-- 8 -->
<g id="node8" class="node">
<title>8</title>
<g id="a_node8"><a xlink:title="Ets">
<polygon fill="#ffffff" stroke="black" points="828,-180 774,-180 774,-144 828,-144 828,-180"/>
<text text-anchor="middle" x="801" y="-158.3" font-family="Times,serif" font-size="14.00">Ets</text>
</a>
</g>
</g>
<!-- 7&#45;&gt;8 -->
<g id="edge12" class="edge">
<title>7&#45;&gt;8</title>
<g id="a_edge12"><a xlink:title="usage">
<path fill="none" stroke="#1414ce" d="M970.17,-359.69C962.62,-341.32 949.58,-311.73 935,-288 913.78,-253.46 908.57,-243.73 879,-216 866.36,-204.15 850.85,-193.04 836.99,-184.08"/>
<polygon fill="#1414ce" stroke="#1414ce" points="838.49,-180.9 828.17,-178.52 834.76,-186.82 838.49,-180.9"/>
</a>
</g>
</g>
<!-- 25 -->
<g id="node10" class="node">
<title>25</title>
<g id="a_node10"><a xlink:title="TimerList">
<polygon fill="#ffffff" stroke="black" points="1302,-108 1216,-108 1216,-72 1302,-72 1302,-108"/>
<text text-anchor="middle" x="1259" y="-86.3" font-family="Times,serif" font-size="14.00">TimerList</text>
</a>
</g>
</g>
<!-- 7&#45;&gt;25 -->
<g id="edge19" class="edge">
<title>7&#45;&gt;25</title>
<g id="a_edge19"><a xlink:title="usage">
<path fill="none" stroke="#1414ce" d="M1036.78,-376.71C1086.62,-373.53 1156.98,-361.87 1205,-324 1267.57,-274.65 1266.68,-168.34 1262.31,-118.21"/>
<polygon fill="#1414ce" stroke="#1414ce" points="1265.78,-117.74 1261.31,-108.13 1258.81,-118.43 1265.78,-117.74"/>
</a>
</g>
</g>
<!-- 13 -->
<g id="node15" class="node">
<title>13</title>
<g id="a_node15"><a xlink:title="MessageQueueItem">
<polygon fill="#ffffff" stroke="black" points="1140,-180 982,-180 982,-144 1140,-144 1140,-180"/>
<text text-anchor="middle" x="1061" y="-158.3" font-family="Times,serif" font-size="14.00">MessageQueueItem</text>
</a>
</g>
</g>
<!-- 7&#45;&gt;13 -->
<g id="edge14" class="edge">
<title>7&#45;&gt;13</title>
<g id="a_edge14"><a xlink:title="usage">
<path fill="none" stroke="#1414ce" d="M987.87,-359.77C993.99,-349.61 1001.49,-336.36 1007,-324 1027.36,-278.32 1044.45,-222.48 1053.66,-190.01"/>
<polygon fill="#1414ce" stroke="#1414ce" points="1057.05,-190.9 1056.37,-180.33 1050.31,-189.02 1057.05,-190.9"/>
</a>
</g>
</g>
<!-- 9 -->
<g id="node19" class="node">
<title>9</title>
<g id="a_node19"><a xlink:title="ValuesHashTable">
<polygon fill="#ffffff" stroke="black" points="138,-252 0,-252 0,-216 138,-216 138,-252"/>
<text text-anchor="middle" x="69" y="-230.3" font-family="Times,serif" font-size="14.00">ValuesHashTable</text>
</a>
</g>
</g>
<!-- 7&#45;&gt;9 -->
<g id="edge13" class="edge">
<title>7&#45;&gt;9</title>
<g id="a_edge13"><a xlink:title="usage">
<path fill="none" stroke="#1414ce" d="M917.38,-377.13C758.34,-376.84 327.04,-371.53 194,-324 155.01,-310.07 117.28,-280.25 93.66,-258.96"/>
<polygon fill="#1414ce" stroke="#1414ce" points="95.94,-256.3 86.21,-252.11 91.2,-261.46 95.94,-256.3"/>
</a>
</g>
</g>
<!-- 15 -->
<g id="node22" class="node">
<title>15</title>
<g id="a_node22"><a xlink:title="AtomTable">
<polygon fill="#ffffff" stroke="black" points="295,-324 203,-324 203,-288 295,-288 295,-324"/>
<text text-anchor="middle" x="249" y="-302.3" font-family="Times,serif" font-size="14.00">AtomTable</text>
</a>
</g>
</g>
<!-- 7&#45;&gt;15 -->
<g id="edge15" class="edge">
<title>7&#45;&gt;15</title>
<g id="a_edge15"><a xlink:title="usage">
<path fill="none" stroke="#1414ce" d="M917.27,-371.79C813.18,-362.63 591.8,-342.83 405,-324 371.9,-320.66 334.89,-316.64 305.22,-313.35"/>
<polygon fill="#1414ce" stroke="#1414ce" points="305.38,-309.84 295.06,-312.22 304.61,-316.8 305.38,-309.84"/>
</a>
</g>
</g>
<!-- 7&#45;&gt;5 -->
<g id="edge17" class="edge">
<title>7&#45;&gt;5</title>
<g id="a_edge17"><a xlink:title="usage">
<path fill="none" stroke="#1414ce" d="M917.42,-372.93C850.7,-366.99 748.77,-353.29 725,-324 712.05,-308.04 748.28,-175.96 765.02,-118.04"/>
<polygon fill="#1414ce" stroke="#1414ce" points="768.47,-118.72 767.91,-108.14 761.75,-116.76 768.47,-118.72"/>
</a>
</g>
</g>
<!-- 8&#45;&gt;5 -->
<g id="edge22" class="edge">
<title>8&#45;&gt;5</title>
<g id="a_edge22"><a xlink:title="usage">
<path fill="none" stroke="#1414ce" d="M794.08,-143.7C790.93,-135.81 787.12,-126.3 783.62,-117.55"/>
<polygon fill="#1414ce" stroke="#1414ce" points="786.81,-116.09 779.84,-108.1 780.31,-118.69 786.81,-116.09"/>
</a>
</g>
</g>
<!-- 16 -->
<g id="node9" class="node">
<title>16</title>
<g id="a_node9"><a xlink:title="HNodeGroup">
<polygon fill="#ffffff" stroke="black" points="304,-252 194,-252 194,-216 304,-216 304,-252"/>
<text text-anchor="middle" x="249" y="-230.3" font-family="Times,serif" font-size="14.00">HNodeGroup</text>
</a>
</g>
</g>
<!-- 16&#45;&gt;16 -->
<g id="edge24" class="edge">
<title>16&#45;&gt;16</title>
<g id="a_edge24"><a xlink:title="usage">
<path fill="none" stroke="#1414ce" d="M304.07,-246.85C314.57,-245.32 322,-241.03 322,-234 322,-229.5 318.95,-226.12 314,-223.87"/>
<polygon fill="#1414ce" stroke="#1414ce" points="314.64,-220.42 304.07,-221.15 312.79,-227.17 314.64,-220.42"/>
</a>
</g>
</g>
<!-- 10 -->
<g id="node26" class="node">
<title>10</title>
<g id="a_node26"><a xlink:title="HNode">
<polygon fill="#ffffff" stroke="black" points="241,-180 175,-180 175,-144 241,-144 241,-180"/>
<text text-anchor="middle" x="208" y="-158.3" font-family="Times,serif" font-size="14.00">HNode</text>
</a>
</g>
</g>
<!-- 16&#45;&gt;10 -->
<g id="edge23" class="edge">
<title>16&#45;&gt;10</title>
<g id="a_edge23"><a xlink:title="usage">
<path fill="none" stroke="#1414ce" d="M238.87,-215.7C234.15,-207.64 228.44,-197.89 223.22,-188.98"/>
<polygon fill="#1414ce" stroke="#1414ce" points="226.09,-186.96 218.02,-180.1 220.05,-190.5 226.09,-186.96"/>
</a>
</g>
</g>
<!-- 25&#45;&gt;6 -->
<g id="edge25" class="edge">
<title>25&#45;&gt;6</title>
<g id="a_edge25"><a xlink:title="usage">
<path fill="none" stroke="#1414ce" d="M1215.96,-76.01C1210.61,-74.57 1205.19,-73.19 1200,-72 1110.55,-51.46 1004.8,-34.86 943.66,-26.01"/>
<polygon fill="#1414ce" stroke="#1414ce" points="943.91,-22.51 933.51,-24.55 942.91,-29.43 943.91,-22.51"/>
</a>
</g>
</g>
<!-- 14 -->
<g id="node12" class="node">
<title>14</title>
<g id="a_node12"><a xlink:title="MailboxMessage">
<polygon fill="#ffffff" stroke="black" points="967.5,-108 830.5,-108 830.5,-72 967.5,-72 967.5,-108"/>
<text text-anchor="middle" x="899" y="-86.3" font-family="Times,serif" font-size="14.00">MailboxMessage</text>
</a>
</g>
</g>
<!-- 14&#45;&gt;14 -->
<g id="edge26" class="edge">
<title>14&#45;&gt;14</title>
<g id="a_edge26"><a xlink:title="usage">
<path fill="none" stroke="#1414ce" d="M967.53,-102.37C978.21,-100.52 985.5,-96.4 985.5,-90 985.5,-85.8 982.36,-82.58 977.18,-80.34"/>
<polygon fill="#1414ce" stroke="#1414ce" points="978.1,-76.96 967.53,-77.63 976.21,-83.7 978.1,-76.96"/>
</a>
</g>
</g>
<!-- 11 -->
<g id="node13" class="node">
<title>11</title>
<g id="a_node13"><a xlink:title="Heap">
<polygon fill="#ffffff" stroke="black" points="278,-108 224,-108 224,-72 278,-72 278,-108"/>
<text text-anchor="middle" x="251" y="-86.3" font-family="Times,serif" font-size="14.00">Heap</text>
</a>
</g>
</g>
<!-- 11&#45;&gt;12 -->
<g id="edge27" class="edge">
<title>11&#45;&gt;12</title>
<g id="a_edge27"><a xlink:title="usage">
<path fill="none" stroke="#1414ce" d="M251,-71.7C251,-63.98 251,-54.71 251,-46.11"/>
<polygon fill="#1414ce" stroke="#1414ce" points="254.5,-46.1 251,-36.1 247.5,-46.1 254.5,-46.1"/>
</a>
</g>
</g>
<!-- 21&#45;&gt;19 -->
<g id="edge31" class="edge">
<title>21&#45;&gt;19</title>
<g id="a_edge31"><a xlink:title="usage">
<path fill="none" stroke="#1414ce" d="M413.53,-249.81C435.07,-259.55 462.22,-272.47 484.14,-283.35"/>
<polygon fill="#1414ce" stroke="#1414ce" points="482.67,-286.53 493.18,-287.88 485.81,-280.27 482.67,-286.53"/>
</a>
</g>
</g>
<!-- 21&#45;&gt;6 -->
<g id="edge34" class="edge">
<title>21&#45;&gt;6</title>
<g id="a_edge34"><a xlink:title="usage">
<path fill="none" stroke="#1414ce" d="M378.69,-215.99C383,-182.35 397.7,-107.55 445,-72 506.59,-25.71 738.12,-19.27 842,-18.76"/>
<polygon fill="#1414ce" stroke="#1414ce" points="842.25,-22.26 852.24,-18.73 842.23,-15.26 842.25,-22.26"/>
</a>
</g>
</g>
<!-- 21&#45;&gt;7 -->
<g id="edge33" class="edge">
<title>21&#45;&gt;7</title>
<g id="a_edge33"><a xlink:title="usage">
<path fill="none" stroke="#1414ce" d="M390.77,-252.23C408.64,-273.21 441.96,-307.82 479,-324 554.1,-356.8 788.62,-370.03 907.07,-374.73"/>
<polygon fill="#1414ce" stroke="#1414ce" points="906.99,-378.23 917.12,-375.12 907.26,-371.23 906.99,-378.23"/>
</a>
</g>
</g>
<!-- 21&#45;&gt;11 -->
<g id="edge32" class="edge">
<title>21&#45;&gt;11</title>
<g id="a_edge32"><a xlink:title="usage">
<path fill="none" stroke="#1414ce" d="M361.8,-215.87C339.66,-190.92 298.43,-144.45 272.98,-115.77"/>
<polygon fill="#1414ce" stroke="#1414ce" points="275.51,-113.35 266.25,-108.19 270.27,-117.99 275.51,-113.35"/>
</a>
</g>
</g>
<!-- 21&#45;&gt;21 -->
<g id="edge28" class="edge">
<title>21&#45;&gt;21</title>
<g id="a_edge28"><a xlink:title="usage">
<path fill="none" stroke="#1414ce" d="M413.68,-247.42C423.78,-246.77 431.5,-242.3 431.5,-234 431.5,-228.81 428.48,-225.12 423.76,-222.93"/>
<polygon fill="#1414ce" stroke="#1414ce" points="424.21,-219.44 413.68,-220.58 422.63,-226.26 424.21,-219.44"/>
</a>
</g>
</g>
<!-- 22 -->
<g id="node21" class="node">
<title>22</title>
<g id="a_node21"><a xlink:title="Mailbox">
<polygon fill="#ffffff" stroke="black" points="718,-180 644,-180 644,-144 718,-144 718,-180"/>
<text text-anchor="middle" x="681" y="-158.3" font-family="Times,serif" font-size="14.00">Mailbox</text>
</a>
</g>
</g>
<!-- 21&#45;&gt;22 -->
<g id="edge29" class="edge">
<title>21&#45;&gt;22</title>
<g id="a_edge29"><a xlink:title="usage">
<path fill="none" stroke="#1414ce" d="M413.82,-222.93C422.7,-220.59 432.17,-218.15 441,-216 507.77,-199.77 585.51,-182.98 634,-172.77"/>
<polygon fill="#1414ce" stroke="#1414ce" points="634.82,-176.17 643.88,-170.69 633.38,-169.32 634.82,-176.17"/>
</a>
</g>
</g>
<!-- 23 -->
<g id="node24" class="node">
<title>23</title>
<g id="a_node24"><a xlink:title="TimerListItem">
<polygon fill="#ffffff" stroke="black" points="573.5,-108 454.5,-108 454.5,-72 573.5,-72 573.5,-108"/>
<text text-anchor="middle" x="514" y="-86.3" font-family="Times,serif" font-size="14.00">TimerListItem</text>
</a>
</g>
</g>
<!-- 21&#45;&gt;23 -->
<g id="edge30" class="edge">
<title>21&#45;&gt;23</title>
<g id="a_edge30"><a xlink:title="usage">
<path fill="none" stroke="#1414ce" d="M393.53,-215.87C417.7,-190.82 462.82,-144.05 490.45,-115.41"/>
<polygon fill="#1414ce" stroke="#1414ce" points="492.99,-117.82 497.42,-108.19 487.95,-112.96 492.99,-117.82"/>
</a>
</g>
</g>
<!-- 13&#45;&gt;14 -->
<g id="edge35" class="edge">
<title>13&#45;&gt;14</title>
<g id="a_edge35"><a xlink:title="usage">
<path fill="none" stroke="#1414ce" d="M1021.37,-143.88C999.22,-134.31 971.44,-122.3 947.94,-112.15"/>
<polygon fill="#1414ce" stroke="#1414ce" points="949.07,-108.82 938.5,-108.07 946.29,-115.25 949.07,-108.82"/>
</a>
</g>
</g>
<!-- 13&#45;&gt;13 -->
<g id="edge36" class="edge">
<title>13&#45;&gt;13</title>
<g id="a_edge36"><a xlink:title="usage">
<path fill="none" stroke="#1414ce" d="M1140.16,-173.98C1150.87,-171.97 1158,-167.98 1158,-162 1158,-158.08 1154.93,-155.01 1149.79,-152.8"/>
<polygon fill="#1414ce" stroke="#1414ce" points="1150.74,-149.43 1140.16,-150.02 1148.8,-156.15 1150.74,-149.43"/>
</a>
</g>
</g>
<!-- 18&#45;&gt;4 -->
<g id="edge37" class="edge">
<title>18&#45;&gt;4</title>
<g id="a_edge37"><a xlink:title="usage">
<path fill="none" stroke="#1414ce" d="M842.52,-215.7C852.87,-206.97 865.59,-196.24 876.84,-186.75"/>
<polygon fill="#1414ce" stroke="#1414ce" points="879.33,-189.23 884.72,-180.1 874.82,-183.88 879.33,-189.23"/>
</a>
</g>
</g>
<!-- 18&#45;&gt;6 -->
<g id="edge38" class="edge">
<title>18&#45;&gt;6</title>
<g id="a_edge38"><a xlink:title="usage">
<path fill="none" stroke="#1414ce" d="M774.4,-222.63C721.87,-210.71 643.57,-191.34 635,-180 625.35,-167.24 628.07,-158.42 635,-144 672.53,-65.92 778.3,-36.23 842.16,-25.22"/>
<polygon fill="#1414ce" stroke="#1414ce" points="843.11,-28.61 852.42,-23.55 841.98,-21.7 843.11,-28.61"/>
</a>
</g>
</g>
<!-- 3 -->
<g id="node17" class="node">
<title>3</title>
<g id="a_node17"><a xlink:title="ErlNifMonitor">
<polygon fill="#ffffff" stroke="black" points="1231.5,-252 1114.5,-252 1114.5,-216 1231.5,-216 1231.5,-252"/>
<text text-anchor="middle" x="1173" y="-230.3" font-family="Times,serif" font-size="14.00">ErlNifMonitor</text>
</a>
</g>
</g>
<!-- 3&#45;&gt;4 -->
<g id="edge39" class="edge">
<title>3&#45;&gt;4</title>
<g id="a_edge39"><a xlink:title="usage">
<path fill="none" stroke="#1414ce" d="M1114.19,-217.64C1072.73,-206.81 1017.08,-192.28 973.6,-180.92"/>
<polygon fill="#1414ce" stroke="#1414ce" points="974.24,-177.47 963.68,-178.33 972.47,-184.24 974.24,-177.47"/>
</a>
</g>
</g>
<!-- 1 -->
<g id="node18" class="node">
<title>1</title>
<g id="a_node18"><a xlink:title="LWIPEvent">
<polygon fill="#bfbfbf" stroke="black" points="1069,-468 973,-468 973,-432 1069,-432 1069,-468"/>
<text text-anchor="middle" x="1021" y="-446.3" font-family="Times,serif" font-size="14.00">LWIPEvent</text>
</a>
</g>
</g>
<!-- 1&#45;&gt;7 -->
<g id="edge41" class="edge">
<title>1&#45;&gt;7</title>
<g id="a_edge41"><a xlink:title="usage">
<path fill="none" stroke="#1414ce" d="M1010.12,-431.7C1005.01,-423.56 998.8,-413.69 993.16,-404.7"/>
<polygon fill="#1414ce" stroke="#1414ce" points="996.04,-402.71 987.75,-396.1 990.11,-406.43 996.04,-402.71"/>
</a>
</g>
</g>
<!-- 2 -->
<g id="node20" class="node">
<title>2</title>
<g id="a_node20"><a xlink:title="SocketResource">
<polygon fill="#ffffff" stroke="black" points="1412.5,-324 1281.5,-324 1281.5,-288 1412.5,-288 1412.5,-324"/>
<text text-anchor="middle" x="1347" y="-302.3" font-family="Times,serif" font-size="14.00">SocketResource</text>
</a>
</g>
</g>
<!-- 1&#45;&gt;2 -->
<g id="edge40" class="edge">
<title>1&#45;&gt;2</title>
<g id="a_edge40"><a xlink:title="usage">
<path fill="none" stroke="#1414ce" d="M1060.32,-431.87C1120.13,-405.82 1233.81,-356.3 1298.6,-328.08"/>
<polygon fill="#1414ce" stroke="#1414ce" points="1300.02,-331.28 1307.79,-324.08 1297.23,-324.86 1300.02,-331.28"/>
</a>
</g>
</g>
<!-- 9&#45;&gt;10 -->
<g id="edge42" class="edge">
<title>9&#45;&gt;10</title>
<g id="a_edge42"><a xlink:title="usage">
<path fill="none" stroke="#1414ce" d="M103,-215.88C121.96,-206.33 145.74,-194.36 165.87,-184.22"/>
<polygon fill="#1414ce" stroke="#1414ce" points="167.47,-187.33 174.83,-179.71 164.32,-181.08 167.47,-187.33"/>
</a>
</g>
</g>
<!-- 2&#45;&gt;6 -->
<g id="edge44" class="edge">
<title>2&#45;&gt;6</title>
<g id="a_edge44"><a xlink:title="usage">
<path fill="none" stroke="#1414ce" d="M1350.44,-287.91C1358.04,-244.73 1371.13,-130.52 1311,-72 1259.8,-22.17 1043.36,-17.53 943.67,-18.12"/>
<polygon fill="#1414ce" stroke="#1414ce" points="943.5,-14.62 933.53,-18.21 943.56,-21.62 943.5,-14.62"/>
</a>
</g>
</g>
<!-- 2&#45;&gt;3 -->
<g id="edge43" class="edge">
<title>2&#45;&gt;3</title>
<g id="a_edge43"><a xlink:title="usage">
<path fill="none" stroke="#1414ce" d="M1304.43,-287.88C1280.44,-278.22 1250.27,-266.09 1224.9,-255.88"/>
<polygon fill="#1414ce" stroke="#1414ce" points="1226.01,-252.55 1215.43,-252.07 1223.4,-259.05 1226.01,-252.55"/>
</a>
</g>
</g>
<!-- 22&#45;&gt;14 -->
<g id="edge45" class="edge">
<title>22&#45;&gt;14</title>
<g id="a_edge45"><a xlink:title="usage">
<path fill="none" stroke="#1414ce" d="M718.48,-148.97C750.66,-138.63 797.74,-123.51 835.75,-111.31"/>
<polygon fill="#1414ce" stroke="#1414ce" points="837.25,-114.5 845.71,-108.11 835.11,-107.84 837.25,-114.5"/>
</a>
</g>
</g>
<!-- 15&#45;&gt;16 -->
<g id="edge47" class="edge">
<title>15&#45;&gt;16</title>
<g id="a_edge47"><a xlink:title="usage">
<path fill="none" stroke="#1414ce" d="M249,-287.7C249,-279.98 249,-270.71 249,-262.11"/>
<polygon fill="#1414ce" stroke="#1414ce" points="252.5,-262.1 249,-252.1 245.5,-262.1 252.5,-262.1"/>
</a>
</g>
</g>
<!-- 15&#45;&gt;10 -->
<g id="edge46" class="edge">
<title>15&#45;&gt;10</title>
<g id="a_edge46"><a xlink:title="usage">
<path fill="none" stroke="#1414ce" d="M218.23,-287.91C205.46,-279.02 192,-266.88 185,-252 175.52,-231.83 183.22,-207.18 192.19,-188.94"/>
<polygon fill="#1414ce" stroke="#1414ce" points="195.31,-190.52 196.91,-180.04 189.13,-187.24 195.31,-190.52"/>
</a>
</g>
</g>
<!-- 23&#45;&gt;6 -->
<g id="edge48" class="edge">
<title>23&#45;&gt;6</title>
<g id="a_edge48"><a xlink:title="usage">
<path fill="none" stroke="#1414ce" d="M573.63,-77.39C583.12,-75.57 592.82,-73.72 602,-72 686.27,-56.19 784.41,-38.45 842.48,-28.03"/>
<polygon fill="#1414ce" stroke="#1414ce" points="843.26,-31.45 852.49,-26.24 842.03,-24.56 843.26,-31.45"/>
</a>
</g>
</g>
<!-- 5&#45;&gt;6 -->
<g id="edge49" class="edge">
<title>5&#45;&gt;6</title>
<g id="a_edge49"><a xlink:title="usage">
<path fill="none" stroke="#1414ce" d="M802.36,-71.88C818.05,-62.72 837.56,-51.34 854.45,-41.48"/>
<polygon fill="#1414ce" stroke="#1414ce" points="856.66,-44.25 863.53,-36.19 853.13,-38.21 856.66,-44.25"/>
</a>
</g>
</g>
<!-- 10&#45;&gt;11 -->
<g id="edge51" class="edge">
<title>10&#45;&gt;11</title>
<g id="a_edge51"><a xlink:title="usage">
<path fill="none" stroke="#1414ce" d="M218.63,-143.7C223.63,-135.56 229.69,-125.69 235.21,-116.7"/>
<polygon fill="#1414ce" stroke="#1414ce" points="238.24,-118.46 240.49,-108.1 232.28,-114.79 238.24,-118.46"/>
</a>
</g>
</g>
<!-- 10&#45;&gt;10 -->
<g id="edge50" class="edge">
<title>10&#45;&gt;10</title>
<g id="a_edge50"><a xlink:title="usage">
<path fill="none" stroke="#1414ce" d="M241.35,-175.47C251.28,-175.07 259,-170.58 259,-162 259,-156.64 255.98,-152.87 251.3,-150.71"/>
<polygon fill="#1414ce" stroke="#1414ce" points="251.87,-147.25 241.35,-148.53 250.37,-154.09 251.87,-147.25"/>
</a>
</g>
</g>
</g>
</svg>
