<?xml version="1.0" encoding="UTF-8" standalone="no"?>
<!DOCTYPE svg PUBLIC "-//W3C//DTD SVG 1.1//EN"
 "http://www.w3.org/Graphics/SVG/1.1/DTD/svg11.dtd">
<!-- Generated by graphviz version 2.43.0 (0)
 -->
<!-- Title: %3 Pages: 1 -->
<svg width="1280pt" height="404pt"
 viewBox="0.00 0.00 1280.00 404.00" xmlns="http://www.w3.org/2000/svg" xmlns:xlink="http://www.w3.org/1999/xlink">
<g id="graph0" class="graph" transform="scale(1 1) rotate(0) translate(4 400)">
<title>%3</title>
<polygon fill="transparent" stroke="transparent" points="-4,4 -4,-400 1276,-400 1276,4 -4,4"/>
<!-- 12 -->
<g id="node1" class="node">
<title>12</title>
<g id="a_node1"><a xlink:title="AtomTable">
<polygon fill="#ffffff" stroke="black" points="1042,-324 950,-324 950,-288 1042,-288 1042,-324"/>
<text text-anchor="middle" x="996" y="-302.3" font-family="Times,serif" font-size="14.00">AtomTable</text>
</a>
</g>
</g>
<!-- 13 -->
<g id="node6" class="node">
<title>13</title>
<g id="a_node6"><a xlink:title="HNode">
<polygon fill="#ffffff" stroke="black" points="1076,-180 1010,-180 1010,-144 1076,-144 1076,-180"/>
<text text-anchor="middle" x="1043" y="-158.3" font-family="Times,serif" font-size="14.00">HNode</text>
</a>
</g>
</g>
<!-- 12&#45;&gt;13 -->
<g id="edge1" class="edge">
<title>12&#45;&gt;13</title>
<g id="a_edge1"><a xlink:title="usage">
<path fill="none" stroke="#1414ce" d="M986.74,-287.82C978.09,-269.31 968.02,-239.35 979,-216 984.52,-204.26 994.07,-194.22 1004.12,-186.15"/>
<polygon fill="#1414ce" stroke="#1414ce" points="1006.31,-188.88 1012.23,-180.09 1002.12,-183.27 1006.31,-188.88"/>
</a>
</g>
</g>
<!-- 14 -->
<g id="node7" class="node">
<title>14</title>
<g id="a_node7"><a xlink:title="HNodeGroup">
<polygon fill="#ffffff" stroke="black" points="1098,-252 988,-252 988,-216 1098,-216 1098,-252"/>
<text text-anchor="middle" x="1043" y="-230.3" font-family="Times,serif" font-size="14.00">HNodeGroup</text>
</a>
</g>
</g>
<!-- 12&#45;&gt;14 -->
<g id="edge2" class="edge">
<title>12&#45;&gt;14</title>
<g id="a_edge2"><a xlink:title="usage">
<path fill="none" stroke="#1414ce" d="M1007.62,-287.7C1013.14,-279.47 1019.85,-269.48 1025.93,-260.42"/>
<polygon fill="#1414ce" stroke="#1414ce" points="1028.85,-262.36 1031.52,-252.1 1023.04,-258.46 1028.85,-262.36"/>
</a>
</g>
</g>
<!-- 17 -->
<g id="node2" class="node">
<title>17</title>
<g id="a_node2"><a xlink:title="Context">
<polygon fill="#ffffff" stroke="black" points="639.5,-252 566.5,-252 566.5,-216 639.5,-216 639.5,-252"/>
<text text-anchor="middle" x="603" y="-230.3" font-family="Times,serif" font-size="14.00">Context</text>
</a>
</g>
</g>
<!-- 17&#45;&gt;17 -->
<g id="edge8" class="edge">
<title>17&#45;&gt;17</title>
<g id="a_edge8"><a xlink:title="usage">
<path fill="none" stroke="#1414ce" d="M639.68,-247.42C649.78,-246.77 657.5,-242.3 657.5,-234 657.5,-228.81 654.48,-225.12 649.76,-222.93"/>
<polygon fill="#1414ce" stroke="#1414ce" points="650.21,-219.44 639.68,-220.58 648.63,-226.26 650.21,-219.44"/>
</a>
</g>
</g>
<!-- 5 -->
<g id="node5" class="node">
<title>5</title>
<g id="a_node5"><a xlink:title="GlobalContext">
<polygon fill="#ffffff" stroke="black" points="703.5,-396 584.5,-396 584.5,-360 703.5,-360 703.5,-396"/>
<text text-anchor="middle" x="644" y="-374.3" font-family="Times,serif" font-size="14.00">GlobalContext</text>
</a>
</g>
</g>
<!-- 17&#45;&gt;5 -->
<g id="edge3" class="edge">
<title>17&#45;&gt;5</title>
<g id="a_edge3"><a xlink:title="usage">
<path fill="none" stroke="#1414ce" d="M611.16,-252.37C615.71,-262.57 621.21,-275.82 625,-288 631.33,-308.33 636.26,-331.93 639.51,-349.71"/>
<polygon fill="#1414ce" stroke="#1414ce" points="636.09,-350.46 641.27,-359.7 642.98,-349.24 636.09,-350.46"/>
</a>
</g>
</g>
<!-- 18 -->
<g id="node8" class="node">
<title>18</title>
<g id="a_node8"><a xlink:title="Heap">
<polygon fill="#ffffff" stroke="black" points="414,-180 360,-180 360,-144 414,-144 414,-180"/>
<text text-anchor="middle" x="387" y="-158.3" font-family="Times,serif" font-size="14.00">Heap</text>
</a>
</g>
</g>
<!-- 17&#45;&gt;18 -->
<g id="edge4" class="edge">
<title>17&#45;&gt;18</title>
<g id="a_edge4"><a xlink:title="usage">
<path fill="none" stroke="#1414ce" d="M566.4,-219.28C563.23,-218.15 560.06,-217.04 557,-216 511.45,-200.49 458.45,-184.25 423.9,-173.9"/>
<polygon fill="#1414ce" stroke="#1414ce" points="424.81,-170.52 414.23,-171.01 422.81,-177.23 424.81,-170.52"/>
</a>
</g>
</g>
<!-- 3 -->
<g id="node10" class="node">
<title>3</title>
<g id="a_node10"><a xlink:title="ListHead">
<polygon fill="#ffffff" stroke="black" points="509.5,-36 428.5,-36 428.5,0 509.5,0 509.5,-36"/>
<text text-anchor="middle" x="469" y="-14.3" font-family="Times,serif" font-size="14.00">ListHead</text>
</a>
</g>
</g>
<!-- 17&#45;&gt;3 -->
<g id="edge5" class="edge">
<title>17&#45;&gt;3</title>
<g id="a_edge5"><a xlink:title="usage">
<path fill="none" stroke="#1414ce" d="M581.77,-215.93C555.78,-193.83 512.34,-152.8 489,-108 478.97,-88.74 473.95,-64.59 471.44,-46.3"/>
<polygon fill="#1414ce" stroke="#1414ce" points="474.91,-45.81 470.24,-36.3 467.96,-46.64 474.91,-45.81"/>
</a>
</g>
</g>
<!-- 21 -->
<g id="node12" class="node">
<title>21</title>
<g id="a_node12"><a xlink:title="Mailbox">
<polygon fill="#ffffff" stroke="black" points="671,-180 597,-180 597,-144 671,-144 671,-180"/>
<text text-anchor="middle" x="634" y="-158.3" font-family="Times,serif" font-size="14.00">Mailbox</text>
</a>
</g>
</g>
<!-- 17&#45;&gt;21 -->
<g id="edge9" class="edge">
<title>17&#45;&gt;21</title>
<g id="a_edge9"><a xlink:title="usage">
<path fill="none" stroke="#1414ce" d="M610.66,-215.7C614.19,-207.73 618.46,-198.1 622.37,-189.26"/>
<polygon fill="#1414ce" stroke="#1414ce" points="625.58,-190.67 626.43,-180.1 619.18,-187.83 625.58,-190.67"/>
</a>
</g>
</g>
<!-- 16 -->
<g id="node15" class="node">
<title>16</title>
<g id="a_node15"><a xlink:title="Module">
<polygon fill="#ffffff" stroke="black" points="616,-324 546,-324 546,-288 616,-288 616,-324"/>
<text text-anchor="middle" x="581" y="-302.3" font-family="Times,serif" font-size="14.00">Module</text>
</a>
</g>
</g>
<!-- 17&#45;&gt;16 -->
<g id="edge7" class="edge">
<title>17&#45;&gt;16</title>
<g id="a_edge7"><a xlink:title="usage">
<path fill="none" stroke="#1414ce" d="M603.52,-252.1C601.87,-259.96 599.12,-269.46 595.99,-278.23"/>
<polygon fill="#1414ce" stroke="#1414ce" points="592.68,-277.11 592.35,-287.7 599.21,-279.62 592.68,-277.11"/>
</a>
</g>
</g>
<!-- 20 -->
<g id="node23" class="node">
<title>20</title>
<g id="a_node23"><a xlink:title="TimerListItem">
<polygon fill="#ffffff" stroke="black" points="616.5,-108 497.5,-108 497.5,-72 616.5,-72 616.5,-108"/>
<text text-anchor="middle" x="557" y="-86.3" font-family="Times,serif" font-size="14.00">TimerListItem</text>
</a>
</g>
</g>
<!-- 17&#45;&gt;20 -->
<g id="edge6" class="edge">
<title>17&#45;&gt;20</title>
<g id="a_edge6"><a xlink:title="usage">
<path fill="none" stroke="#1414ce" d="M597.45,-215.87C589.58,-191.56 575.08,-146.82 565.75,-118.01"/>
<polygon fill="#1414ce" stroke="#1414ce" points="568.98,-116.62 562.57,-108.19 562.32,-118.78 568.98,-116.62"/>
</a>
</g>
</g>
<!-- 11 -->
<g id="node3" class="node">
<title>11</title>
<g id="a_node3"><a xlink:title="Ets">
<polygon fill="#ffffff" stroke="black" points="54,-180 0,-180 0,-144 54,-144 54,-180"/>
<text text-anchor="middle" x="27" y="-158.3" font-family="Times,serif" font-size="14.00">Ets</text>
</a>
</g>
</g>
<!-- 10 -->
<g id="node21" class="node">
<title>10</title>
<g id="a_node21"><a xlink:title="SyncList">
<polygon fill="#ffffff" stroke="black" points="136,-108 58,-108 58,-72 136,-72 136,-108"/>
<text text-anchor="middle" x="97" y="-86.3" font-family="Times,serif" font-size="14.00">SyncList</text>
</a>
</g>
</g>
<!-- 11&#45;&gt;10 -->
<g id="edge10" class="edge">
<title>11&#45;&gt;10</title>
<g id="a_edge10"><a xlink:title="usage">
<path fill="none" stroke="#1414ce" d="M44.3,-143.7C52.86,-135.14 63.34,-124.66 72.7,-115.3"/>
<polygon fill="#1414ce" stroke="#1414ce" points="75.3,-117.65 79.9,-108.1 70.35,-112.7 75.3,-117.65"/>
</a>
</g>
</g>
<!-- 22 -->
<g id="node4" class="node">
<title>22</title>
<g id="a_node4"><a xlink:title="ExportedFunction">
<polygon fill="#ffffff" stroke="black" points="548,-252 402,-252 402,-216 548,-216 548,-252"/>
<text text-anchor="middle" x="475" y="-230.3" font-family="Times,serif" font-size="14.00">ExportedFunction</text>
</a>
</g>
</g>
<!-- 5&#45;&gt;12 -->
<g id="edge17" class="edge">
<title>5&#45;&gt;12</title>
<g id="a_edge17"><a xlink:title="usage">
<path fill="none" stroke="#1414ce" d="M703.63,-367.91C762.88,-358.47 856.2,-342.5 936,-324 937.28,-323.7 938.56,-323.4 939.86,-323.08"/>
<polygon fill="#1414ce" stroke="#1414ce" points="941.09,-326.38 949.93,-320.54 939.38,-319.6 941.09,-326.38"/>
</a>
</g>
</g>
<!-- 5&#45;&gt;11 -->
<g id="edge16" class="edge">
<title>5&#45;&gt;11</title>
<g id="a_edge16"><a xlink:title="usage">
<path fill="none" stroke="#1414ce" d="M584.37,-375.36C444.99,-370.98 106.69,-357.03 68,-324 29.33,-290.99 24.47,-227.11 25.2,-190.52"/>
<polygon fill="#1414ce" stroke="#1414ce" points="28.71,-190.22 25.57,-180.1 21.72,-189.97 28.71,-190.22"/>
</a>
</g>
</g>
<!-- 5&#45;&gt;3 -->
<g id="edge11" class="edge">
<title>5&#45;&gt;3</title>
<g id="a_edge11"><a xlink:title="usage">
<path fill="none" stroke="#1414ce" d="M703.57,-372.29C771.1,-365.7 875.42,-351.35 903,-324 931.72,-295.52 922,-275.45 922,-235 922,-235 922,-235 922,-161 922,-120.55 932.84,-99.3 903,-72 848.04,-21.72 622.27,-17.38 519.89,-18.1"/>
<polygon fill="#1414ce" stroke="#1414ce" points="519.76,-14.6 509.79,-18.19 519.83,-21.6 519.76,-14.6"/>
</a>
</g>
</g>
<!-- 7 -->
<g id="node14" class="node">
<title>7</title>
<g id="a_node14"><a xlink:title="MessageQueueItem">
<polygon fill="#ffffff" stroke="black" points="834,-252 676,-252 676,-216 834,-216 834,-252"/>
<text text-anchor="middle" x="755" y="-230.3" font-family="Times,serif" font-size="14.00">MessageQueueItem</text>
</a>
</g>
</g>
<!-- 5&#45;&gt;7 -->
<g id="edge13" class="edge">
<title>5&#45;&gt;7</title>
<g id="a_edge13"><a xlink:title="usage">
<path fill="none" stroke="#1414ce" d="M657.39,-359.87C676.81,-335.03 712.91,-288.85 735.35,-260.14"/>
<polygon fill="#1414ce" stroke="#1414ce" points="738.16,-262.22 741.56,-252.19 732.65,-257.91 738.16,-262.22"/>
</a>
</g>
</g>
<!-- 5&#45;&gt;16 -->
<g id="edge19" class="edge">
<title>5&#45;&gt;16</title>
<g id="a_edge19"><a xlink:title="usage">
<path fill="none" stroke="#1414ce" d="M628.43,-359.7C620.8,-351.22 611.48,-340.86 603.12,-331.58"/>
<polygon fill="#1414ce" stroke="#1414ce" points="605.69,-329.2 596.39,-324.1 600.48,-333.88 605.69,-329.2"/>
</a>
</g>
</g>
<!-- 9 -->
<g id="node17" class="node">
<title>9</title>
<g id="a_node17"><a xlink:title="RefcBinaryQueueItem">
<polygon fill="#ffffff" stroke="black" points="340,-324 166,-324 166,-288 340,-288 340,-324"/>
<text text-anchor="middle" x="253" y="-302.3" font-family="Times,serif" font-size="14.00">RefcBinaryQueueItem</text>
</a>
</g>
</g>
<!-- 5&#45;&gt;9 -->
<g id="edge14" class="edge">
<title>5&#45;&gt;9</title>
<g id="a_edge14"><a xlink:title="usage">
<path fill="none" stroke="#1414ce" d="M584.19,-366.29C521.98,-355.15 423.58,-337.54 350.19,-324.4"/>
<polygon fill="#1414ce" stroke="#1414ce" points="350.46,-320.89 340,-322.58 349.23,-327.78 350.46,-320.89"/>
</a>
</g>
</g>
<!-- 4 -->
<g id="node19" class="node">
<title>4</title>
<g id="a_node19"><a xlink:title="ResourceType">
<polygon fill="#ffffff" stroke="black" points="227.5,-180 110.5,-180 110.5,-144 227.5,-144 227.5,-180"/>
<text text-anchor="middle" x="169" y="-158.3" font-family="Times,serif" font-size="14.00">ResourceType</text>
</a>
</g>
</g>
<!-- 5&#45;&gt;4 -->
<g id="edge21" class="edge">
<title>5&#45;&gt;4</title>
<g id="a_edge21"><a xlink:title="usage">
<path fill="none" stroke="#1414ce" d="M584.12,-375.06C458.37,-370.23 176.43,-355.69 148,-324 114.98,-287.19 133.17,-224.66 150.61,-189.33"/>
<polygon fill="#1414ce" stroke="#1414ce" points="153.9,-190.61 155.47,-180.14 147.71,-187.34 153.9,-190.61"/>
</a>
</g>
</g>
<!-- 6 -->
<g id="node20" class="node">
<title>6</title>
<g id="a_node20"><a xlink:title="SpinLock">
<polygon fill="#ffffff" stroke="black" points="894,-324 812,-324 812,-288 894,-288 894,-324"/>
<text text-anchor="middle" x="853" y="-302.3" font-family="Times,serif" font-size="14.00">SpinLock</text>
</a>
</g>
</g>
<!-- 5&#45;&gt;6 -->
<g id="edge12" class="edge">
<title>5&#45;&gt;6</title>
<g id="a_edge12"><a xlink:title="usage">
<path fill="none" stroke="#1414ce" d="M694.86,-359.97C727.38,-349.07 769.41,-335 801.97,-324.09"/>
<polygon fill="#1414ce" stroke="#1414ce" points="803.38,-327.31 811.75,-320.82 801.15,-320.67 803.38,-327.31"/>
</a>
</g>
</g>
<!-- 5&#45;&gt;10 -->
<g id="edge15" class="edge">
<title>5&#45;&gt;10</title>
<g id="a_edge15"><a xlink:title="usage">
<path fill="none" stroke="#1414ce" d="M584.25,-374.56C457.44,-368.84 170.2,-352.83 137,-324 77.67,-272.48 84.71,-167.71 92.03,-118.14"/>
<polygon fill="#1414ce" stroke="#1414ce" points="95.5,-118.59 93.62,-108.17 88.59,-117.49 95.5,-118.59"/>
</a>
</g>
</g>
<!-- 24 -->
<g id="node22" class="node">
<title>24</title>
<g id="a_node22"><a xlink:title="TimerList">
<polygon fill="#ffffff" stroke="black" points="894,-108 808,-108 808,-72 894,-72 894,-108"/>
<text text-anchor="middle" x="851" y="-86.3" font-family="Times,serif" font-size="14.00">TimerList</text>
</a>
</g>
</g>
<!-- 5&#45;&gt;24 -->
<g id="edge20" class="edge">
<title>5&#45;&gt;24</title>
<g id="a_edge20"><a xlink:title="usage">
<path fill="none" stroke="#1414ce" d="M674.64,-359.87C733.83,-326.71 858.35,-256.59 861,-252 885.13,-210.25 872.28,-151.83 861.27,-118.05"/>
<polygon fill="#1414ce" stroke="#1414ce" points="864.52,-116.72 857.96,-108.4 857.9,-118.99 864.52,-116.72"/>
</a>
</g>
</g>
<!-- 15 -->
<g id="node24" class="node">
<title>15</title>
<g id="a_node24"><a xlink:title="ValuesHashTable">
<polygon fill="#ffffff" stroke="black" points="1272,-252 1134,-252 1134,-216 1272,-216 1272,-252"/>
<text text-anchor="middle" x="1203" y="-230.3" font-family="Times,serif" font-size="14.00">ValuesHashTable</text>
</a>
</g>
</g>
<!-- 5&#45;&gt;15 -->
<g id="edge18" class="edge">
<title>5&#45;&gt;15</title>
<g id="a_edge18"><a xlink:title="usage">
<path fill="none" stroke="#1414ce" d="M703.63,-376.6C784.47,-374.42 932.34,-364.59 1051,-324 1096.16,-308.55 1142.76,-278.85 1172.25,-258.03"/>
<polygon fill="#1414ce" stroke="#1414ce" points="1174.38,-260.81 1180.47,-252.14 1170.3,-255.12 1174.38,-260.81"/>
</a>
</g>
</g>
<!-- 13&#45;&gt;13 -->
<g id="edge22" class="edge">
<title>13&#45;&gt;13</title>
<g id="a_edge22"><a xlink:title="usage">
<path fill="none" stroke="#1414ce" d="M1076.35,-175.47C1086.28,-175.07 1094,-170.58 1094,-162 1094,-156.64 1090.98,-152.87 1086.3,-150.71"/>
<polygon fill="#1414ce" stroke="#1414ce" points="1086.87,-147.25 1076.35,-148.53 1085.37,-154.09 1086.87,-147.25"/>
</a>
</g>
</g>
<!-- 14&#45;&gt;13 -->
<g id="edge24" class="edge">
<title>14&#45;&gt;13</title>
<g id="a_edge24"><a xlink:title="usage">
<path fill="none" stroke="#1414ce" d="M1043,-215.7C1043,-207.98 1043,-198.71 1043,-190.11"/>
<polygon fill="#1414ce" stroke="#1414ce" points="1046.5,-190.1 1043,-180.1 1039.5,-190.1 1046.5,-190.1"/>
</a>
</g>
</g>
<!-- 14&#45;&gt;14 -->
<g id="edge23" class="edge">
<title>14&#45;&gt;14</title>
<g id="a_edge23"><a xlink:title="usage">
<path fill="none" stroke="#1414ce" d="M1098.07,-246.85C1108.57,-245.32 1116,-241.03 1116,-234 1116,-229.5 1112.95,-226.12 1108,-223.87"/>
<polygon fill="#1414ce" stroke="#1414ce" points="1108.64,-220.42 1098.07,-221.15 1106.79,-227.17 1108.64,-220.42"/>
</a>
</g>
</g>
<!-- 19 -->
<g id="node9" class="node">
<title>19</title>
<g id="a_node9"><a xlink:title="HeapFragment">
<polygon fill="#ffffff" stroke="black" points="422.5,-108 297.5,-108 297.5,-72 422.5,-72 422.5,-108"/>
<text text-anchor="middle" x="360" y="-86.3" font-family="Times,serif" font-size="14.00">HeapFragment</text>
</a>
</g>
</g>
<!-- 18&#45;&gt;19 -->
<g id="edge25" class="edge">
<title>18&#45;&gt;19</title>
<g id="a_edge25"><a xlink:title="usage">
<path fill="none" stroke="#1414ce" d="M380.33,-143.7C377.29,-135.81 373.62,-126.3 370.24,-117.55"/>
<polygon fill="#1414ce" stroke="#1414ce" points="373.46,-116.17 366.6,-108.1 366.93,-118.69 373.46,-116.17"/>
</a>
</g>
</g>
<!-- 19&#45;&gt;19 -->
<g id="edge26" class="edge">
<title>19&#45;&gt;19</title>
<g id="a_edge26"><a xlink:title="usage">
<path fill="none" stroke="#1414ce" d="M422.78,-102.55C433.26,-100.79 440.5,-96.61 440.5,-90 440.5,-85.77 437.53,-82.53 432.64,-80.29"/>
<polygon fill="#1414ce" stroke="#1414ce" points="433.36,-76.85 422.78,-77.45 431.42,-83.58 433.36,-76.85"/>
</a>
</g>
</g>
<!-- 3&#45;&gt;3 -->
<g id="edge27" class="edge">
<title>3&#45;&gt;3</title>
<g id="a_edge27"><a xlink:title="usage">
<path fill="none" stroke="#1414ce" d="M509.73,-31.31C519.9,-30.38 527.5,-25.95 527.5,-18 527.5,-12.91 524.38,-9.26 519.47,-7.05"/>
<polygon fill="#1414ce" stroke="#1414ce" points="520.28,-3.64 509.73,-4.69 518.63,-10.45 520.28,-3.64"/>
</a>
</g>
</g>
<!-- 23 -->
<g id="node11" class="node">
<title>23</title>
<g id="a_node11"><a xlink:title="LiteralEntry">
<polygon fill="#ffffff" stroke="black" points="384,-252 280,-252 280,-216 384,-216 384,-252"/>
<text text-anchor="middle" x="332" y="-230.3" font-family="Times,serif" font-size="14.00">LiteralEntry</text>
</a>
</g>
</g>
<!-- 8 -->
<g id="node13" class="node">
<title>8</title>
<g id="a_node13"><a xlink:title="MailboxMessage">
<polygon fill="#ffffff" stroke="black" points="771.5,-108 634.5,-108 634.5,-72 771.5,-72 771.5,-108"/>
<text text-anchor="middle" x="703" y="-86.3" font-family="Times,serif" font-size="14.00">MailboxMessage</text>
</a>
</g>
</g>
<!-- 21&#45;&gt;8 -->
<g id="edge28" class="edge">
<title>21&#45;&gt;8</title>
<g id="a_edge28"><a xlink:title="usage">
<path fill="none" stroke="#1414ce" d="M651.06,-143.7C659.5,-135.14 669.82,-124.66 679.04,-115.3"/>
<polygon fill="#1414ce" stroke="#1414ce" points="681.61,-117.68 686.14,-108.1 676.63,-112.77 681.61,-117.68"/>
</a>
</g>
</g>
<!-- 8&#45;&gt;8 -->
<g id="edge29" class="edge">
<title>8&#45;&gt;8</title>
<g id="a_edge29"><a xlink:title="usage">
<path fill="none" stroke="#1414ce" d="M771.53,-102.37C782.21,-100.52 789.5,-96.4 789.5,-90 789.5,-85.8 786.36,-82.58 781.18,-80.34"/>
<polygon fill="#1414ce" stroke="#1414ce" points="782.1,-76.96 771.53,-77.63 780.21,-83.7 782.1,-76.96"/>
</a>
</g>
</g>
<!-- 7&#45;&gt;8 -->
<g id="edge31" class="edge">
<title>7&#45;&gt;8</title>
<g id="a_edge31"><a xlink:title="usage">
<path fill="none" stroke="#1414ce" d="M748.73,-215.87C739.79,-191.46 723.3,-146.43 712.75,-117.64"/>
<polygon fill="#1414ce" stroke="#1414ce" points="716.02,-116.38 709.29,-108.19 709.45,-118.78 716.02,-116.38"/>
</a>
</g>
</g>
<!-- 7&#45;&gt;7 -->
<g id="edge30" class="edge">
<title>7&#45;&gt;7</title>
<g id="a_edge30"><a xlink:title="usage">
<path fill="none" stroke="#1414ce" d="M834.16,-245.98C844.87,-243.97 852,-239.98 852,-234 852,-230.08 848.93,-227.01 843.79,-224.8"/>
<polygon fill="#1414ce" stroke="#1414ce" points="844.74,-221.43 834.16,-222.02 842.8,-228.15 844.74,-221.43"/>
</a>
</g>
</g>
<!-- 16&#45;&gt;17 -->
<g id="edge32" class="edge">
<title>16&#45;&gt;17</title>
<g id="a_edge32"><a xlink:title="usage">
<path fill="none" stroke="#1414ce" d="M580.52,-287.7C582.19,-279.81 584.96,-270.3 588.08,-261.55"/>
<polygon fill="#1414ce" stroke="#1414ce" points="591.39,-262.69 591.73,-252.1 584.86,-260.17 591.39,-262.69"/>
</a>
</g>
</g>
<!-- 16&#45;&gt;22 -->
<g id="edge33" class="edge">
<title>16&#45;&gt;22</title>
<g id="a_edge33"><a xlink:title="usage">
<path fill="none" stroke="#1414ce" d="M555.07,-287.88C541.34,-278.81 524.29,-267.55 509.46,-257.76"/>
<polygon fill="#1414ce" stroke="#1414ce" points="511.3,-254.78 501.03,-252.19 507.45,-260.62 511.3,-254.78"/>
</a>
</g>
</g>
<!-- 16&#45;&gt;23 -->
<g id="edge34" class="edge">
<title>16&#45;&gt;23</title>
<g id="a_edge34"><a xlink:title="usage">
<path fill="none" stroke="#1414ce" d="M545.85,-295.12C506.47,-284.05 441.88,-265.89 393.97,-252.42"/>
<polygon fill="#1414ce" stroke="#1414ce" points="394.9,-249.05 384.32,-249.71 393,-255.79 394.9,-249.05"/>
</a>
</g>
</g>
<!-- 2 -->
<g id="node16" class="node">
<title>2</title>
<g id="a_node16"><a xlink:title="RefcBinary">
<polygon fill="#ffffff" stroke="black" points="261.5,-252 166.5,-252 166.5,-216 261.5,-216 261.5,-252"/>
<text text-anchor="middle" x="214" y="-230.3" font-family="Times,serif" font-size="14.00">RefcBinary</text>
</a>
</g>
</g>
<!-- 2&#45;&gt;3 -->
<g id="edge35" class="edge">
<title>2&#45;&gt;3</title>
<g id="a_edge35"><a xlink:title="usage">
<path fill="none" stroke="#1414ce" d="M221.44,-215.81C239.02,-175.35 282.09,-77.1 288,-72 324.47,-40.5 378.84,-27.7 418.46,-22.51"/>
<polygon fill="#1414ce" stroke="#1414ce" points="418.94,-25.98 428.46,-21.32 418.11,-19.03 418.94,-25.98"/>
</a>
</g>
</g>
<!-- 2&#45;&gt;4 -->
<g id="edge36" class="edge">
<title>2&#45;&gt;4</title>
<g id="a_edge36"><a xlink:title="usage">
<path fill="none" stroke="#1414ce" d="M202.88,-215.7C197.64,-207.56 191.3,-197.69 185.52,-188.7"/>
<polygon fill="#1414ce" stroke="#1414ce" points="188.35,-186.62 180,-180.1 182.46,-190.41 188.35,-186.62"/>
</a>
</g>
</g>
<!-- 9&#45;&gt;2 -->
<g id="edge38" class="edge">
<title>9&#45;&gt;2</title>
<g id="a_edge38"><a xlink:title="usage">
<path fill="none" stroke="#1414ce" d="M243.36,-287.7C238.87,-279.64 233.44,-269.89 228.48,-260.98"/>
<polygon fill="#1414ce" stroke="#1414ce" points="231.45,-259.14 223.53,-252.1 225.34,-262.54 231.45,-259.14"/>
</a>
</g>
</g>
<!-- 9&#45;&gt;9 -->
<g id="edge37" class="edge">
<title>9&#45;&gt;9</title>
<g id="a_edge37"><a xlink:title="usage">
<path fill="none" stroke="#1414ce" d="M340.3,-317.68C350.99,-315.59 358,-311.7 358,-306 358,-302.35 355.12,-299.44 350.25,-297.27"/>
<polygon fill="#1414ce" stroke="#1414ce" points="350.88,-293.81 340.3,-294.32 348.89,-300.52 350.88,-293.81"/>
</a>
</g>
</g>
<!-- 1 -->
<g id="node18" class="node">
<title>1</title>
<g id="a_node18"><a xlink:title="ResourceBinary">
<polygon fill="#bfbfbf" stroke="black" points="506,-324 376,-324 376,-288 506,-288 506,-324"/>
<text text-anchor="middle" x="441" y="-302.3" font-family="Times,serif" font-size="14.00">ResourceBinary</text>
</a>
</g>
</g>
<!-- 1&#45;&gt;2 -->
<g id="edge39" class="edge">
<title>1&#45;&gt;2</title>
<g id="a_edge39"><a xlink:title="usage">
<path fill="none" stroke="#1414ce" d="M385.76,-287.97C351.09,-277.28 306.48,-263.52 271.4,-252.7"/>
<polygon fill="#1414ce" stroke="#1414ce" points="272.37,-249.34 261.78,-249.73 270.31,-256.03 272.37,-249.34"/>
</a>
</g>
</g>
<!-- 4&#45;&gt;5 -->
<g id="edge41" class="edge">
<title>4&#45;&gt;5</title>
<g id="a_edge41"><a xlink:title="usage">
<path fill="none" stroke="#1414ce" d="M165.76,-180.14C155.04,-212.67 129.88,-283.73 166,-324 192.96,-354.06 447.93,-368.69 574.1,-374.24"/>
<polygon fill="#1414ce" stroke="#1414ce" points="574.29,-377.75 584.43,-374.68 574.59,-370.75 574.29,-377.75"/>
</a>
</g>
</g>
<!-- 4&#45;&gt;3 -->
<g id="edge40" class="edge">
<title>4&#45;&gt;3</title>
<g id="a_edge40"><a xlink:title="usage">
<path fill="none" stroke="#1414ce" d="M179.75,-143.74C193.34,-123.4 218.66,-90.08 249,-72 301.4,-40.77 371.16,-27.93 417.95,-22.65"/>
<polygon fill="#1414ce" stroke="#1414ce" points="418.57,-26.11 428.15,-21.58 417.84,-19.15 418.57,-26.11"/>
</a>
</g>
</g>
<!-- 4&#45;&gt;10 -->
<g id="edge42" class="edge">
<title>4&#45;&gt;10</title>
<g id="a_edge42"><a xlink:title="usage">
<path fill="none" stroke="#1414ce" d="M151.2,-143.7C142.4,-135.14 131.62,-124.66 122,-115.3"/>
<polygon fill="#1414ce" stroke="#1414ce" points="124.2,-112.57 114.59,-108.1 119.32,-117.58 124.2,-112.57"/>
</a>
</g>
</g>
<!-- 10&#45;&gt;3 -->
<g id="edge43" class="edge">
<title>10&#45;&gt;3</title>
<g id="a_edge43"><a xlink:title="usage">
<path fill="none" stroke="#1414ce" d="M136.11,-81.64C203.9,-68.88 343.16,-42.68 418.29,-28.54"/>
<polygon fill="#1414ce" stroke="#1414ce" points="419.27,-31.92 428.45,-26.63 417.97,-25.04 419.27,-31.92"/>
</a>
</g>
</g>
<!-- 24&#45;&gt;3 -->
<g id="edge44" class="edge">
<title>24&#45;&gt;3</title>
<g id="a_edge44"><a xlink:title="usage">
<path fill="none" stroke="#1414ce" d="M807.73,-74.29C804.79,-73.47 801.86,-72.69 799,-72 701.3,-48.34 584.72,-32.43 519.54,-24.62"/>
<polygon fill="#1414ce" stroke="#1414ce" points="519.88,-21.13 509.54,-23.43 519.05,-28.09 519.88,-21.13"/>
</a>
</g>
</g>
<!-- 20&#45;&gt;3 -->
<g id="edge45" class="edge">
<title>20&#45;&gt;3</title>
<g id="a_edge45"><a xlink:title="usage">
<path fill="none" stroke="#1414ce" d="M535.25,-71.7C524.16,-62.88 510.53,-52.03 498.51,-42.47"/>
<polygon fill="#1414ce" stroke="#1414ce" points="500.51,-39.59 490.5,-36.1 496.15,-45.07 500.51,-39.59"/>
</a>
</g>
</g>
<!-- 15&#45;&gt;13 -->
<g id="edge46" class="edge">
<title>15&#45;&gt;13</title>
<g id="a_edge46"><a xlink:title="usage">
<path fill="none" stroke="#1414ce" d="M1163.86,-215.88C1140.09,-205.48 1109.75,-192.2 1085.41,-181.55"/>
<polygon fill="#1414ce" stroke="#1414ce" points="1086.63,-178.27 1076.07,-177.47 1083.83,-184.68 1086.63,-178.27"/>
</a>
</g>
</g>
</g>
</svg>
