<?xml version="1.0" encoding="UTF-8" standalone="no"?>
<!DOCTYPE svg PUBLIC "-//W3C//DTD SVG 1.1//EN"
 "http://www.w3.org/Graphics/SVG/1.1/DTD/svg11.dtd">
<!-- Generated by graphviz version 2.43.0 (0)
 -->
<!-- Title: %3 Pages: 1 -->
<svg width="4191pt" height="116pt"
 viewBox="0.00 0.00 4191.00 116.00" xmlns="http://www.w3.org/2000/svg" xmlns:xlink="http://www.w3.org/1999/xlink">
<g id="graph0" class="graph" transform="scale(1 1) rotate(0) translate(4 112)">
<title>%3</title>
<polygon fill="transparent" stroke="transparent" points="-4,4 -4,-112 4187,-112 4187,4 -4,4"/>
<!-- 2 -->
<g id="node1" class="node">
<title>2</title>
<g id="a_node1"><a xlink:title="/__w/AtomVM/AtomVM/src/libAtomVM/bif.c">
<polygon fill="#ffffff" stroke="black" points="323,-36 0,-36 0,0 323,0 323,-36"/>
<text text-anchor="middle" x="161.5" y="-14.3" font-family="Times,serif" font-size="14.00">/__w/AtomVM/AtomVM/src/libAtomVM/bif.c</text>
</a>
</g>
</g>
<!-- 3 -->
<g id="node2" class="node">
<title>3</title>
<g id="a_node2"><a xlink:title="/__w/AtomVM/AtomVM/src/libAtomVM/jit.c">
<polygon fill="#ffffff" stroke="black" points="661.5,-36 341.5,-36 341.5,0 661.5,0 661.5,-36"/>
<text text-anchor="middle" x="501.5" y="-14.3" font-family="Times,serif" font-size="14.00">/__w/AtomVM/AtomVM/src/libAtomVM/jit.c</text>
</a>
</g>
</g>
<!-- 4 -->
<g id="node3" class="node">
<title>4</title>
<g id="a_node3"><a xlink:title="/__w/AtomVM/AtomVM/src/libAtomVM/jit_stream_flash.c">
<polygon fill="#ffffff" stroke="black" points="1097.5,-36 679.5,-36 679.5,0 1097.5,0 1097.5,-36"/>
<text text-anchor="middle" x="888.5" y="-14.3" font-family="Times,serif" font-size="14.00">/__w/AtomVM/AtomVM/src/libAtomVM/jit_stream_flash.c</text>
</a>
</g>
</g>
<!-- 5 -->
<g id="node4" class="node">
<title>5</title>
<g id="a_node4"><a xlink:title="/__w/AtomVM/AtomVM/src/libAtomVM/mailbox.c">
<polygon fill="#ffffff" stroke="black" points="1477.5,-36 1115.5,-36 1115.5,0 1477.5,0 1477.5,-36"/>
<text text-anchor="middle" x="1296.5" y="-14.3" font-family="Times,serif" font-size="14.00">/__w/AtomVM/AtomVM/src/libAtomVM/mailbox.c</text>
</a>
</g>
</g>
<!-- 6 -->
<g id="node5" class="node">
<title>6</title>
<g id="a_node5"><a xlink:title="/__w/AtomVM/AtomVM/src/libAtomVM/memory.c">
<polygon fill="#ffffff" stroke="black" points="1857.5,-36 1495.5,-36 1495.5,0 1857.5,0 1857.5,-36"/>
<text text-anchor="middle" x="1676.5" y="-14.3" font-family="Times,serif" font-size="14.00">/__w/AtomVM/AtomVM/src/libAtomVM/memory.c</text>
</a>
</g>
</g>
<!-- 7 -->
<g id="node6" class="node">
<title>7</title>
<g id="a_node6"><a xlink:title="/__w/AtomVM/AtomVM/src/libAtomVM/module.c">
<polygon fill="#ffffff" stroke="black" points="2233.5,-36 1875.5,-36 1875.5,0 2233.5,0 2233.5,-36"/>
<text text-anchor="middle" x="2054.5" y="-14.3" font-family="Times,serif" font-size="14.00">/__w/AtomVM/AtomVM/src/libAtomVM/module.c</text>
</a>
</g>
</g>
<!-- 8 -->
<g id="node7" class="node">
<title>8</title>
<g id="a_node7"><a xlink:title="/__w/AtomVM/AtomVM/src/libAtomVM/otp_crypto.c">
<polygon fill="#ffffff" stroke="black" points="2633,-36 2252,-36 2252,0 2633,0 2633,-36"/>
<text text-anchor="middle" x="2442.5" y="-14.3" font-family="Times,serif" font-size="14.00">/__w/AtomVM/AtomVM/src/libAtomVM/otp_crypto.c</text>
</a>
</g>
</g>
<!-- 9 -->
<g id="node8" class="node">
<title>9</title>
<g id="a_node8"><a xlink:title="/__w/AtomVM/AtomVM/src/libAtomVM/otp_net.c">
<polygon fill="#ffffff" stroke="black" points="3010,-36 2651,-36 2651,0 3010,0 3010,-36"/>
<text text-anchor="middle" x="2830.5" y="-14.3" font-family="Times,serif" font-size="14.00">/__w/AtomVM/AtomVM/src/libAtomVM/otp_net.c</text>
</a>
</g>
</g>
<!-- 10 -->
<g id="node9" class="node">
<title>10</title>
<g id="a_node9"><a xlink:title="/__w/AtomVM/AtomVM/src/libAtomVM/otp_socket.c">
<polygon fill="#ffffff" stroke="black" points="3409,-36 3028,-36 3028,0 3409,0 3409,-36"/>
<text text-anchor="middle" x="3218.5" y="-14.3" font-family="Times,serif" font-size="14.00">/__w/AtomVM/AtomVM/src/libAtomVM/otp_socket.c</text>
</a>
</g>
</g>
<!-- 11 -->
<g id="node10" class="node">
<title>11</title>
<g id="a_node10"><a xlink:title="/__w/AtomVM/AtomVM/src/libAtomVM/otp_ssl.c">
<polygon fill="#ffffff" stroke="black" points="3782,-36 3427,-36 3427,0 3782,0 3782,-36"/>
<text text-anchor="middle" x="3604.5" y="-14.3" font-family="Times,serif" font-size="14.00">/__w/AtomVM/AtomVM/src/libAtomVM/otp_ssl.c</text>
</a>
</g>
</g>
<!-- 12 -->
<g id="node11" class="node">
<title>12</title>
<g id="a_node11"><a xlink:title="/__w/AtomVM/AtomVM/src/libAtomVM/refc_binary.c">
<polygon fill="#ffffff" stroke="black" points="4183,-36 3800,-36 3800,0 4183,0 4183,-36"/>
<text text-anchor="middle" x="3991.5" y="-14.3" font-family="Times,serif" font-size="14.00">/__w/AtomVM/AtomVM/src/libAtomVM/refc_binary.c</text>
</a>
</g>
</g>
<!-- 1 -->
<g id="node12" class="node">
<title>1</title>
<g id="a_node12"><a xlink:title="/__w/AtomVM/AtomVM/src/libAtomVM/trace.h">
<polygon fill="#bfbfbf" stroke="black" points="2226.5,-108 1882.5,-108 1882.5,-72 2226.5,-72 2226.5,-108"/>
<text text-anchor="middle" x="2054.5" y="-86.3" font-family="Times,serif" font-size="14.00">/__w/AtomVM/AtomVM/src/libAtomVM/trace.h</text>
</a>
</g>
</g>
<!-- 1&#45;&gt;2 -->
<g id="edge1" class="edge">
<title>1&#45;&gt;2</title>
<g id="a_edge1"><a xlink:title="include">
<path fill="none" stroke="#1414ce" d="M1872.19,-87.48C1557.68,-83.94 892.95,-72.44 332.5,-36 329.37,-35.8 326.22,-35.58 323.04,-35.36"/>
<polygon fill="#1414ce" stroke="#1414ce" points="1872.27,-90.98 1882.31,-87.59 1872.35,-83.98 1872.27,-90.98"/>
</a>
</g>
</g>
<!-- 1&#45;&gt;3 -->
<g id="edge2" class="edge">
<title>1&#45;&gt;3</title>
<g id="a_edge2"><a xlink:title="include">
<path fill="none" stroke="#1414ce" d="M1872.15,-85.62C1607.25,-79.88 1100.65,-65.84 670.5,-36 667.56,-35.8 664.59,-35.58 661.6,-35.36"/>
<polygon fill="#1414ce" stroke="#1414ce" points="1872.17,-89.12 1882.24,-85.83 1872.32,-82.12 1872.17,-89.12"/>
</a>
</g>
</g>
<!-- 1&#45;&gt;4 -->
<g id="edge3" class="edge">
<title>1&#45;&gt;4</title>
<g id="a_edge3"><a xlink:title="include">
<path fill="none" stroke="#1414ce" d="M1872.17,-80C1681.24,-70.29 1372.71,-53.82 1106.5,-36 1103.56,-35.8 1100.61,-35.6 1097.63,-35.4"/>
<polygon fill="#1414ce" stroke="#1414ce" points="1872.14,-83.5 1882.31,-80.51 1872.5,-76.51 1872.14,-83.5"/>
</a>
</g>
</g>
<!-- 1&#45;&gt;5 -->
<g id="edge4" class="edge">
<title>1&#45;&gt;5</title>
<g id="a_edge4"><a xlink:title="include">
<path fill="none" stroke="#1414ce" d="M1872.5,-72.19C1752.93,-61.15 1597.14,-46.76 1477.72,-35.74"/>
<polygon fill="#1414ce" stroke="#1414ce" points="1872.22,-75.68 1882.5,-73.12 1872.86,-68.71 1872.22,-75.68"/>
</a>
</g>
</g>
<!-- 1&#45;&gt;6 -->
<g id="edge5" class="edge">
<title>1&#45;&gt;6</title>
<g id="a_edge5"><a xlink:title="include">
<path fill="none" stroke="#1414ce" d="M1952.35,-70.08C1895.05,-59.47 1824.14,-46.34 1768.57,-36.05"/>
<polygon fill="#1414ce" stroke="#1414ce" points="1952.04,-73.59 1962.51,-71.97 1953.32,-66.7 1952.04,-73.59"/>
</a>
</g>
</g>
<!-- 1&#45;&gt;7 -->
<g id="edge6" class="edge">
<title>1&#45;&gt;7</title>
<g id="a_edge6"><a xlink:title="include">
<path fill="none" stroke="#1414ce" d="M2054.5,-61.67C2054.5,-53.05 2054.5,-43.79 2054.5,-36.1"/>
<polygon fill="#1414ce" stroke="#1414ce" points="2051,-61.7 2054.5,-71.7 2058,-61.7 2051,-61.7"/>
</a>
</g>
</g>
<!-- 1&#45;&gt;8 -->
<g id="edge7" class="edge">
<title>1&#45;&gt;8</title>
<g id="a_edge7"><a xlink:title="include">
<path fill="none" stroke="#1414ce" d="M2158.99,-70.15C2217.87,-59.53 2290.83,-46.36 2347.99,-36.05"/>
<polygon fill="#1414ce" stroke="#1414ce" points="2158.14,-66.75 2148.92,-71.97 2159.38,-73.63 2158.14,-66.75"/>
</a>
</g>
</g>
<!-- 1&#45;&gt;9 -->
<g id="edge8" class="edge">
<title>1&#45;&gt;9</title>
<g id="a_edge8"><a xlink:title="include">
<path fill="none" stroke="#1414ce" d="M2236.62,-72.6C2352.77,-62.13 2506.48,-48.28 2642.5,-36 2645.27,-35.75 2648.07,-35.5 2650.89,-35.24"/>
<polygon fill="#1414ce" stroke="#1414ce" points="2236.21,-69.12 2226.56,-73.5 2236.84,-76.09 2236.21,-69.12"/>
</a>
</g>
</g>
<!-- 1&#45;&gt;10 -->
<g id="edge9" class="edge">
<title>1&#45;&gt;10</title>
<g id="a_edge9"><a xlink:title="include">
<path fill="none" stroke="#1414ce" d="M2236.75,-80.64C2430.85,-71.35 2747.02,-55.12 3019.5,-36 3022.27,-35.81 3025.06,-35.61 3027.86,-35.4"/>
<polygon fill="#1414ce" stroke="#1414ce" points="2236.56,-77.15 2226.74,-81.12 2236.89,-84.14 2236.56,-77.15"/>
</a>
</g>
</g>
<!-- 1&#45;&gt;11 -->
<g id="edge10" class="edge">
<title>1&#45;&gt;11</title>
<g id="a_edge10"><a xlink:title="include">
<path fill="none" stroke="#1414ce" d="M2237,-84.94C2498.79,-78.43 2995.96,-63.5 3418.5,-36 3421.25,-35.82 3424.02,-35.64 3426.81,-35.44"/>
<polygon fill="#1414ce" stroke="#1414ce" points="2236.55,-81.45 2226.64,-85.2 2236.72,-88.45 2236.55,-81.45"/>
</a>
</g>
</g>
<!-- 1&#45;&gt;12 -->
<g id="edge11" class="edge">
<title>1&#45;&gt;12</title>
<g id="a_edge11"><a xlink:title="include">
<path fill="none" stroke="#1414ce" d="M2236.78,-86.69C2553.31,-81.96 3224.99,-68.7 3791.5,-36 3794.28,-35.84 3797.09,-35.67 3799.91,-35.5"/>
<polygon fill="#1414ce" stroke="#1414ce" points="2236.55,-83.19 2226.6,-86.84 2236.65,-90.19 2236.55,-83.19"/>
</a>
</g>
</g>
</g>
</svg>
