<?xml version="1.0" encoding="UTF-8" standalone="no"?>
<!DOCTYPE svg PUBLIC "-//W3C//DTD SVG 1.1//EN"
 "http://www.w3.org/Graphics/SVG/1.1/DTD/svg11.dtd">
<!-- Generated by graphviz version 2.43.0 (0)
 -->
<!-- Title: %3 Pages: 1 -->
<svg width="1283pt" height="404pt"
 viewBox="0.00 0.00 1283.11 404.00" xmlns="http://www.w3.org/2000/svg" xmlns:xlink="http://www.w3.org/1999/xlink">
<g id="graph0" class="graph" transform="scale(1 1) rotate(0) translate(4 400)">
<title>%3</title>
<polygon fill="transparent" stroke="transparent" points="-4,4 -4,-400 1279.11,-400 1279.11,4 -4,4"/>
<!-- 11 -->
<g id="node1" class="node">
<title>11</title>
<g id="a_node1"><a xlink:title="AtomTable">
<polygon fill="#ffffff" stroke="black" points="115.11,-324 23.11,-324 23.11,-288 115.11,-288 115.11,-324"/>
<text text-anchor="middle" x="69.11" y="-302.3" font-family="Times,serif" font-size="14.00">AtomTable</text>
</a>
</g>
</g>
<!-- 12 -->
<g id="node6" class="node">
<title>12</title>
<g id="a_node6"><a xlink:title="HNode">
<polygon fill="#ffffff" stroke="black" points="102.11,-180 36.11,-180 36.11,-144 102.11,-144 102.11,-180"/>
<text text-anchor="middle" x="69.11" y="-158.3" font-family="Times,serif" font-size="14.00">HNode</text>
</a>
</g>
</g>
<!-- 11&#45;&gt;12 -->
<g id="edge1" class="edge">
<title>11&#45;&gt;12</title>
<g id="a_edge1"><a xlink:title="usage">
<path fill="none" stroke="#1414ce" d="M38.34,-287.91C25.56,-279.02 12.11,-266.88 5.11,-252 -1.7,-237.52 -1.7,-230.48 5.11,-216 10.63,-204.26 20.17,-194.22 30.23,-186.15"/>
<polygon fill="#1414ce" stroke="#1414ce" points="32.42,-188.88 38.34,-180.09 28.23,-183.27 32.42,-188.88"/>
</a>
</g>
</g>
<!-- 13 -->
<g id="node7" class="node">
<title>13</title>
<g id="a_node7"><a xlink:title="HNodeGroup">
<polygon fill="#ffffff" stroke="black" points="124.11,-252 14.11,-252 14.11,-216 124.11,-216 124.11,-252"/>
<text text-anchor="middle" x="69.11" y="-230.3" font-family="Times,serif" font-size="14.00">HNodeGroup</text>
</a>
</g>
</g>
<!-- 11&#45;&gt;13 -->
<g id="edge2" class="edge">
<title>11&#45;&gt;13</title>
<g id="a_edge2"><a xlink:title="usage">
<path fill="none" stroke="#1414ce" d="M69.11,-287.7C69.11,-279.98 69.11,-270.71 69.11,-262.11"/>
<polygon fill="#1414ce" stroke="#1414ce" points="72.61,-262.1 69.11,-252.1 65.61,-262.1 72.61,-262.1"/>
</a>
</g>
</g>
<!-- 16 -->
<g id="node2" class="node">
<title>16</title>
<g id="a_node2"><a xlink:title="Context">
<polygon fill="#ffffff" stroke="black" points="1055.61,-252 982.61,-252 982.61,-216 1055.61,-216 1055.61,-252"/>
<text text-anchor="middle" x="1019.11" y="-230.3" font-family="Times,serif" font-size="14.00">Context</text>
</a>
</g>
</g>
<!-- 16&#45;&gt;16 -->
<g id="edge8" class="edge">
<title>16&#45;&gt;16</title>
<g id="a_edge8"><a xlink:title="usage">
<path fill="none" stroke="#1414ce" d="M1055.79,-247.42C1065.89,-246.77 1073.61,-242.3 1073.61,-234 1073.61,-228.81 1070.59,-225.12 1065.86,-222.93"/>
<polygon fill="#1414ce" stroke="#1414ce" points="1066.32,-219.44 1055.79,-220.58 1064.73,-226.26 1066.32,-219.44"/>
</a>
</g>
</g>
<!-- 1 -->
<g id="node5" class="node">
<title>1</title>
<g id="a_node5"><a xlink:title="GlobalContext">
<polygon fill="#bfbfbf" stroke="black" points="689.61,-396 570.61,-396 570.61,-360 689.61,-360 689.61,-396"/>
<text text-anchor="middle" x="630.11" y="-374.3" font-family="Times,serif" font-size="14.00">GlobalContext</text>
</a>
</g>
</g>
<!-- 16&#45;&gt;1 -->
<g id="edge3" class="edge">
<title>16&#45;&gt;1</title>
<g id="a_edge3"><a xlink:title="usage">
<path fill="none" stroke="#1414ce" d="M996.37,-252.18C983.21,-262.32 966.46,-275.57 952.11,-288 934.52,-303.23 934.83,-313.43 914.11,-324 846.52,-358.45 759.66,-370.7 699.89,-374.95"/>
<polygon fill="#1414ce" stroke="#1414ce" points="699.55,-371.46 689.8,-375.61 700.01,-378.45 699.55,-371.46"/>
</a>
</g>
</g>
<!-- 17 -->
<g id="node8" class="node">
<title>17</title>
<g id="a_node8"><a xlink:title="Heap">
<polygon fill="#ffffff" stroke="black" points="847.11,-180 793.11,-180 793.11,-144 847.11,-144 847.11,-180"/>
<text text-anchor="middle" x="820.11" y="-158.3" font-family="Times,serif" font-size="14.00">Heap</text>
</a>
</g>
</g>
<!-- 16&#45;&gt;17 -->
<g id="edge4" class="edge">
<title>16&#45;&gt;17</title>
<g id="a_edge4"><a xlink:title="usage">
<path fill="none" stroke="#1414ce" d="M982.47,-219.38C979.31,-218.23 976.15,-217.09 973.11,-216 933.46,-201.81 887.83,-186.08 856.79,-175.47"/>
<polygon fill="#1414ce" stroke="#1414ce" points="857.85,-172.13 847.25,-172.21 855.58,-178.76 857.85,-172.13"/>
</a>
</g>
</g>
<!-- 2 -->
<g id="node10" class="node">
<title>2</title>
<g id="a_node10"><a xlink:title="ListHead">
<polygon fill="#ffffff" stroke="black" points="648.61,-36 567.61,-36 567.61,0 648.61,0 648.61,-36"/>
<text text-anchor="middle" x="608.11" y="-14.3" font-family="Times,serif" font-size="14.00">ListHead</text>
</a>
</g>
</g>
<!-- 16&#45;&gt;2 -->
<g id="edge5" class="edge">
<title>16&#45;&gt;2</title>
<g id="a_edge5"><a xlink:title="usage">
<path fill="none" stroke="#1414ce" d="M1009.91,-215.57C1004.68,-205.35 998.18,-192.1 993.11,-180 973.42,-133.08 994.29,-104.47 955.11,-72 910.96,-35.42 744.27,-23.98 659.01,-20.49"/>
<polygon fill="#1414ce" stroke="#1414ce" points="658.91,-16.98 648.78,-20.09 658.63,-23.97 658.91,-16.98"/>
</a>
</g>
</g>
<!-- 20 -->
<g id="node12" class="node">
<title>20</title>
<g id="a_node12"><a xlink:title="Mailbox">
<polygon fill="#ffffff" stroke="black" points="1076.11,-180 1002.11,-180 1002.11,-144 1076.11,-144 1076.11,-180"/>
<text text-anchor="middle" x="1039.11" y="-158.3" font-family="Times,serif" font-size="14.00">Mailbox</text>
</a>
</g>
</g>
<!-- 16&#45;&gt;20 -->
<g id="edge9" class="edge">
<title>16&#45;&gt;20</title>
<g id="a_edge9"><a xlink:title="usage">
<path fill="none" stroke="#1414ce" d="M1024.05,-215.7C1026.28,-207.9 1028.96,-198.51 1031.44,-189.83"/>
<polygon fill="#1414ce" stroke="#1414ce" points="1034.84,-190.68 1034.22,-180.1 1028.11,-188.76 1034.84,-190.68"/>
</a>
</g>
</g>
<!-- 15 -->
<g id="node15" class="node">
<title>15</title>
<g id="a_node15"><a xlink:title="Module">
<polygon fill="#ffffff" stroke="black" points="905.11,-324 835.11,-324 835.11,-288 905.11,-288 905.11,-324"/>
<text text-anchor="middle" x="870.11" y="-302.3" font-family="Times,serif" font-size="14.00">Module</text>
</a>
</g>
</g>
<!-- 16&#45;&gt;15 -->
<g id="edge7" class="edge">
<title>16&#45;&gt;15</title>
<g id="a_edge7"><a xlink:title="usage">
<path fill="none" stroke="#1414ce" d="M988.67,-252.07C967.32,-262.62 938.56,-276.15 914.66,-286.89"/>
<polygon fill="#1414ce" stroke="#1414ce" points="913.14,-283.73 905.43,-291 915.99,-290.13 913.14,-283.73"/>
</a>
</g>
</g>
<!-- 19 -->
<g id="node22" class="node">
<title>19</title>
<g id="a_node22"><a xlink:title="TimerListItem">
<polygon fill="#ffffff" stroke="black" points="945.61,-108 826.61,-108 826.61,-72 945.61,-72 945.61,-108"/>
<text text-anchor="middle" x="886.11" y="-86.3" font-family="Times,serif" font-size="14.00">TimerListItem</text>
</a>
</g>
</g>
<!-- 16&#45;&gt;19 -->
<g id="edge6" class="edge">
<title>16&#45;&gt;19</title>
<g id="a_edge6"><a xlink:title="usage">
<path fill="none" stroke="#1414ce" d="M998.5,-215.79C986.85,-205.74 972.23,-192.6 960.11,-180 940.29,-159.41 919.65,-134.23 905.22,-115.91"/>
<polygon fill="#1414ce" stroke="#1414ce" points="907.97,-113.75 899.05,-108.02 902.45,-118.06 907.97,-113.75"/>
</a>
</g>
</g>
<!-- 10 -->
<g id="node3" class="node">
<title>10</title>
<g id="a_node3"><a xlink:title="Ets">
<polygon fill="#ffffff" stroke="black" points="712.11,-180 658.11,-180 658.11,-144 712.11,-144 712.11,-180"/>
<text text-anchor="middle" x="685.11" y="-158.3" font-family="Times,serif" font-size="14.00">Ets</text>
</a>
</g>
</g>
<!-- 9 -->
<g id="node20" class="node">
<title>9</title>
<g id="a_node20"><a xlink:title="SyncList">
<polygon fill="#ffffff" stroke="black" points="647.11,-108 569.11,-108 569.11,-72 647.11,-72 647.11,-108"/>
<text text-anchor="middle" x="608.11" y="-86.3" font-family="Times,serif" font-size="14.00">SyncList</text>
</a>
</g>
</g>
<!-- 10&#45;&gt;9 -->
<g id="edge10" class="edge">
<title>10&#45;&gt;9</title>
<g id="a_edge10"><a xlink:title="usage">
<path fill="none" stroke="#1414ce" d="M666.07,-143.7C656.56,-135.05 644.9,-124.45 634.54,-115.03"/>
<polygon fill="#1414ce" stroke="#1414ce" points="636.68,-112.24 626.92,-108.1 631.97,-117.42 636.68,-112.24"/>
</a>
</g>
</g>
<!-- 21 -->
<g id="node4" class="node">
<title>21</title>
<g id="a_node4"><a xlink:title="ExportedFunction">
<polygon fill="#ffffff" stroke="black" points="964.11,-252 818.11,-252 818.11,-216 964.11,-216 964.11,-252"/>
<text text-anchor="middle" x="891.11" y="-230.3" font-family="Times,serif" font-size="14.00">ExportedFunction</text>
</a>
</g>
</g>
<!-- 1&#45;&gt;11 -->
<g id="edge17" class="edge">
<title>1&#45;&gt;11</title>
<g id="a_edge17"><a xlink:title="usage">
<path fill="none" stroke="#1414ce" d="M570.6,-369.58C461.71,-355.99 231.82,-327.3 125.38,-314.02"/>
<polygon fill="#1414ce" stroke="#1414ce" points="125.52,-310.51 115.17,-312.75 124.66,-317.46 125.52,-310.51"/>
</a>
</g>
</g>
<!-- 1&#45;&gt;10 -->
<g id="edge16" class="edge">
<title>1&#45;&gt;10</title>
<g id="a_edge16"><a xlink:title="usage">
<path fill="none" stroke="#1414ce" d="M634.68,-359.82C637.44,-349.46 641,-335.98 644.11,-324 656.27,-277.09 670.13,-222.41 678.22,-190.36"/>
<polygon fill="#1414ce" stroke="#1414ce" points="681.68,-190.96 680.73,-180.4 674.89,-189.25 681.68,-190.96"/>
</a>
</g>
</g>
<!-- 1&#45;&gt;2 -->
<g id="edge11" class="edge">
<title>1&#45;&gt;2</title>
<g id="a_edge11"><a xlink:title="usage">
<path fill="none" stroke="#1414ce" d="M570.45,-373.55C496.52,-368.02 376.43,-354.5 345.11,-324 316.13,-295.78 326.11,-275.45 326.11,-235 326.11,-235 326.11,-235 326.11,-161 326.11,-58.63 476.2,-30.05 557.38,-22.08"/>
<polygon fill="#1414ce" stroke="#1414ce" points="557.76,-25.56 567.4,-21.16 557.13,-18.59 557.76,-25.56"/>
</a>
</g>
</g>
<!-- 4 -->
<g id="node14" class="node">
<title>4</title>
<g id="a_node14"><a xlink:title="MessageQueueItem">
<polygon fill="#ffffff" stroke="black" points="1119.11,-324 961.11,-324 961.11,-288 1119.11,-288 1119.11,-324"/>
<text text-anchor="middle" x="1040.11" y="-302.3" font-family="Times,serif" font-size="14.00">MessageQueueItem</text>
</a>
</g>
</g>
<!-- 1&#45;&gt;4 -->
<g id="edge13" class="edge">
<title>1&#45;&gt;4</title>
<g id="a_edge13"><a xlink:title="usage">
<path fill="none" stroke="#1414ce" d="M689.75,-367.31C753.5,-356.88 857.52,-339.68 947.11,-324 948.38,-323.78 949.66,-323.55 950.95,-323.32"/>
<polygon fill="#1414ce" stroke="#1414ce" points="951.74,-326.74 960.97,-321.55 950.52,-319.85 951.74,-326.74"/>
</a>
</g>
</g>
<!-- 1&#45;&gt;15 -->
<g id="edge19" class="edge">
<title>1&#45;&gt;15</title>
<g id="a_edge19"><a xlink:title="usage">
<path fill="none" stroke="#1414ce" d="M688.51,-359.97C730.54,-347.71 786.41,-331.41 825.02,-320.15"/>
<polygon fill="#1414ce" stroke="#1414ce" points="826.32,-323.42 834.94,-317.26 824.36,-316.7 826.32,-323.42"/>
</a>
</g>
</g>
<!-- 6 -->
<g id="node17" class="node">
<title>6</title>
<g id="a_node17"><a xlink:title="RefcBinaryQueueItem">
<polygon fill="#ffffff" stroke="black" points="528.11,-324 354.11,-324 354.11,-288 528.11,-288 528.11,-324"/>
<text text-anchor="middle" x="441.11" y="-302.3" font-family="Times,serif" font-size="14.00">RefcBinaryQueueItem</text>
</a>
</g>
</g>
<!-- 1&#45;&gt;6 -->
<g id="edge14" class="edge">
<title>1&#45;&gt;6</title>
<g id="a_edge14"><a xlink:title="usage">
<path fill="none" stroke="#1414ce" d="M583.87,-359.88C557.58,-350.14 524.46,-337.87 496.75,-327.61"/>
<polygon fill="#1414ce" stroke="#1414ce" points="497.78,-324.26 487.19,-324.07 495.35,-330.82 497.78,-324.26"/>
</a>
</g>
</g>
<!-- 8 -->
<g id="node18" class="node">
<title>8</title>
<g id="a_node18"><a xlink:title="ResourceType">
<polygon fill="#ffffff" stroke="black" points="601.61,-180 484.61,-180 484.61,-144 601.61,-144 601.61,-180"/>
<text text-anchor="middle" x="543.11" y="-158.3" font-family="Times,serif" font-size="14.00">ResourceType</text>
</a>
</g>
</g>
<!-- 1&#45;&gt;8 -->
<g id="edge21" class="edge">
<title>1&#45;&gt;8</title>
<g id="a_edge21"><a xlink:title="usage">
<path fill="none" stroke="#1414ce" d="M619.26,-359.85C600.59,-322.68 564.46,-234.44 549.36,-189.82"/>
<polygon fill="#1414ce" stroke="#1414ce" points="552.66,-188.65 546.23,-180.23 546,-190.82 552.66,-188.65"/>
</a>
</g>
</g>
<!-- 3 -->
<g id="node19" class="node">
<title>3</title>
<g id="a_node19"><a xlink:title="SpinLock">
<polygon fill="#ffffff" stroke="black" points="1275.11,-324 1193.11,-324 1193.11,-288 1275.11,-288 1275.11,-324"/>
<text text-anchor="middle" x="1234.11" y="-302.3" font-family="Times,serif" font-size="14.00">SpinLock</text>
</a>
</g>
</g>
<!-- 1&#45;&gt;3 -->
<g id="edge12" class="edge">
<title>1&#45;&gt;3</title>
<g id="a_edge12"><a xlink:title="usage">
<path fill="none" stroke="#1414ce" d="M689.99,-375.2C791.53,-371.27 1003.54,-359.22 1179.11,-324 1180.37,-323.75 1181.65,-323.47 1182.94,-323.19"/>
<polygon fill="#1414ce" stroke="#1414ce" points="1184.03,-326.52 1192.9,-320.72 1182.35,-319.73 1184.03,-326.52"/>
</a>
</g>
</g>
<!-- 1&#45;&gt;9 -->
<g id="edge15" class="edge">
<title>1&#45;&gt;9</title>
<g id="a_edge15"><a xlink:title="usage">
<path fill="none" stroke="#1414ce" d="M628.8,-359.97C625.13,-312.29 614.74,-177.18 610.23,-118.63"/>
<polygon fill="#1414ce" stroke="#1414ce" points="613.69,-118.01 609.44,-108.31 606.72,-118.55 613.69,-118.01"/>
</a>
</g>
</g>
<!-- 23 -->
<g id="node21" class="node">
<title>23</title>
<g id="a_node21"><a xlink:title="TimerList">
<polygon fill="#ffffff" stroke="black" points="1262.11,-108 1176.11,-108 1176.11,-72 1262.11,-72 1262.11,-108"/>
<text text-anchor="middle" x="1219.11" y="-86.3" font-family="Times,serif" font-size="14.00">TimerList</text>
</a>
</g>
</g>
<!-- 1&#45;&gt;23 -->
<g id="edge20" class="edge">
<title>1&#45;&gt;23</title>
<g id="a_edge20"><a xlink:title="usage">
<path fill="none" stroke="#1414ce" d="M689.81,-374.52C818.12,-368.69 1111.36,-352.37 1146.11,-324 1208.84,-272.78 1218.59,-168.24 1219.51,-118.49"/>
<polygon fill="#1414ce" stroke="#1414ce" points="1223.01,-118.22 1219.58,-108.19 1216.01,-118.17 1223.01,-118.22"/>
</a>
</g>
</g>
<!-- 14 -->
<g id="node23" class="node">
<title>14</title>
<g id="a_node23"><a xlink:title="ValuesHashTable">
<polygon fill="#ffffff" stroke="black" points="298.11,-252 160.11,-252 160.11,-216 298.11,-216 298.11,-252"/>
<text text-anchor="middle" x="229.11" y="-230.3" font-family="Times,serif" font-size="14.00">ValuesHashTable</text>
</a>
</g>
</g>
<!-- 1&#45;&gt;14 -->
<g id="edge18" class="edge">
<title>1&#45;&gt;14</title>
<g id="a_edge18"><a xlink:title="usage">
<path fill="none" stroke="#1414ce" d="M570.42,-371.67C491.06,-363.8 355.75,-347.43 312.11,-324 284.25,-309.05 260.61,-281.17 245.76,-260.58"/>
<polygon fill="#1414ce" stroke="#1414ce" points="248.55,-258.46 239.95,-252.27 242.81,-262.47 248.55,-258.46"/>
</a>
</g>
</g>
<!-- 12&#45;&gt;12 -->
<g id="edge22" class="edge">
<title>12&#45;&gt;12</title>
<g id="a_edge22"><a xlink:title="usage">
<path fill="none" stroke="#1414ce" d="M102.46,-175.47C112.38,-175.07 120.11,-170.58 120.11,-162 120.11,-156.64 117.09,-152.87 112.41,-150.71"/>
<polygon fill="#1414ce" stroke="#1414ce" points="112.98,-147.25 102.46,-148.53 111.48,-154.09 112.98,-147.25"/>
</a>
</g>
</g>
<!-- 13&#45;&gt;12 -->
<g id="edge24" class="edge">
<title>13&#45;&gt;12</title>
<g id="a_edge24"><a xlink:title="usage">
<path fill="none" stroke="#1414ce" d="M69.11,-215.7C69.11,-207.98 69.11,-198.71 69.11,-190.11"/>
<polygon fill="#1414ce" stroke="#1414ce" points="72.61,-190.1 69.11,-180.1 65.61,-190.1 72.61,-190.1"/>
</a>
</g>
</g>
<!-- 13&#45;&gt;13 -->
<g id="edge23" class="edge">
<title>13&#45;&gt;13</title>
<g id="a_edge23"><a xlink:title="usage">
<path fill="none" stroke="#1414ce" d="M124.18,-246.85C134.68,-245.32 142.11,-241.03 142.11,-234 142.11,-229.5 139.06,-226.12 134.11,-223.87"/>
<polygon fill="#1414ce" stroke="#1414ce" points="134.75,-220.42 124.18,-221.15 132.9,-227.17 134.75,-220.42"/>
</a>
</g>
</g>
<!-- 18 -->
<g id="node9" class="node">
<title>18</title>
<g id="a_node9"><a xlink:title="HeapFragment">
<polygon fill="#ffffff" stroke="black" points="790.61,-108 665.61,-108 665.61,-72 790.61,-72 790.61,-108"/>
<text text-anchor="middle" x="728.11" y="-86.3" font-family="Times,serif" font-size="14.00">HeapFragment</text>
</a>
</g>
</g>
<!-- 17&#45;&gt;18 -->
<g id="edge25" class="edge">
<title>17&#45;&gt;18</title>
<g id="a_edge25"><a xlink:title="usage">
<path fill="none" stroke="#1414ce" d="M797.37,-143.7C785.67,-134.8 771.25,-123.82 758.6,-114.2"/>
<polygon fill="#1414ce" stroke="#1414ce" points="760.66,-111.37 750.59,-108.1 756.43,-116.94 760.66,-111.37"/>
</a>
</g>
</g>
<!-- 18&#45;&gt;18 -->
<g id="edge26" class="edge">
<title>18&#45;&gt;18</title>
<g id="a_edge26"><a xlink:title="usage">
<path fill="none" stroke="#1414ce" d="M790.88,-102.55C801.37,-100.79 808.61,-96.61 808.61,-90 808.61,-85.77 805.64,-82.53 800.75,-80.29"/>
<polygon fill="#1414ce" stroke="#1414ce" points="801.46,-76.85 790.88,-77.45 799.53,-83.58 801.46,-76.85"/>
</a>
</g>
</g>
<!-- 2&#45;&gt;2 -->
<g id="edge27" class="edge">
<title>2&#45;&gt;2</title>
<g id="a_edge27"><a xlink:title="usage">
<path fill="none" stroke="#1414ce" d="M648.84,-31.31C659.01,-30.38 666.61,-25.95 666.61,-18 666.61,-12.91 663.49,-9.26 658.57,-7.05"/>
<polygon fill="#1414ce" stroke="#1414ce" points="659.39,-3.64 648.84,-4.69 657.73,-10.45 659.39,-3.64"/>
</a>
</g>
</g>
<!-- 22 -->
<g id="node11" class="node">
<title>22</title>
<g id="a_node11"><a xlink:title="LiteralEntry">
<polygon fill="#ffffff" stroke="black" points="800.11,-252 696.11,-252 696.11,-216 800.11,-216 800.11,-252"/>
<text text-anchor="middle" x="748.11" y="-230.3" font-family="Times,serif" font-size="14.00">LiteralEntry</text>
</a>
</g>
</g>
<!-- 5 -->
<g id="node13" class="node">
<title>5</title>
<g id="a_node13"><a xlink:title="MailboxMessage">
<polygon fill="#ffffff" stroke="black" points="1139.61,-108 1002.61,-108 1002.61,-72 1139.61,-72 1139.61,-108"/>
<text text-anchor="middle" x="1071.11" y="-86.3" font-family="Times,serif" font-size="14.00">MailboxMessage</text>
</a>
</g>
</g>
<!-- 20&#45;&gt;5 -->
<g id="edge28" class="edge">
<title>20&#45;&gt;5</title>
<g id="a_edge28"><a xlink:title="usage">
<path fill="none" stroke="#1414ce" d="M1047.02,-143.7C1050.66,-135.73 1055.06,-126.1 1059.1,-117.26"/>
<polygon fill="#1414ce" stroke="#1414ce" points="1062.31,-118.65 1063.29,-108.1 1055.95,-115.74 1062.31,-118.65"/>
</a>
</g>
</g>
<!-- 5&#45;&gt;5 -->
<g id="edge29" class="edge">
<title>5&#45;&gt;5</title>
<g id="a_edge29"><a xlink:title="usage">
<path fill="none" stroke="#1414ce" d="M1139.63,-102.37C1150.32,-100.52 1157.61,-96.4 1157.61,-90 1157.61,-85.8 1154.47,-82.58 1149.29,-80.34"/>
<polygon fill="#1414ce" stroke="#1414ce" points="1150.21,-76.96 1139.63,-77.63 1148.31,-83.7 1150.21,-76.96"/>
</a>
</g>
</g>
<!-- 4&#45;&gt;5 -->
<g id="edge31" class="edge">
<title>4&#45;&gt;5</title>
<g id="a_edge31"><a xlink:title="usage">
<path fill="none" stroke="#1414ce" d="M1058.99,-287.78C1068.09,-278.23 1078.09,-265.56 1083.11,-252 1099.71,-207.17 1088.86,-150.62 1079.78,-117.86"/>
<polygon fill="#1414ce" stroke="#1414ce" points="1083.09,-116.72 1076.92,-108.1 1076.37,-118.68 1083.09,-116.72"/>
</a>
</g>
</g>
<!-- 4&#45;&gt;4 -->
<g id="edge30" class="edge">
<title>4&#45;&gt;4</title>
<g id="a_edge30"><a xlink:title="usage">
<path fill="none" stroke="#1414ce" d="M1119.27,-317.98C1129.98,-315.97 1137.11,-311.98 1137.11,-306 1137.11,-302.08 1134.04,-299.01 1128.9,-296.8"/>
<polygon fill="#1414ce" stroke="#1414ce" points="1129.85,-293.43 1119.27,-294.02 1127.91,-300.15 1129.85,-293.43"/>
</a>
</g>
</g>
<!-- 15&#45;&gt;16 -->
<g id="edge32" class="edge">
<title>15&#45;&gt;16</title>
<g id="a_edge32"><a xlink:title="usage">
<path fill="none" stroke="#1414ce" d="M900.66,-287.88C921.63,-277.51 949.72,-264.29 973.33,-253.66"/>
<polygon fill="#1414ce" stroke="#1414ce" points="974.76,-256.86 982.47,-249.58 971.91,-250.47 974.76,-256.86"/>
</a>
</g>
</g>
<!-- 15&#45;&gt;21 -->
<g id="edge33" class="edge">
<title>15&#45;&gt;21</title>
<g id="a_edge33"><a xlink:title="usage">
<path fill="none" stroke="#1414ce" d="M875.3,-287.7C877.64,-279.9 880.45,-270.51 883.06,-261.83"/>
<polygon fill="#1414ce" stroke="#1414ce" points="886.45,-262.69 885.98,-252.1 879.75,-260.68 886.45,-262.69"/>
</a>
</g>
</g>
<!-- 15&#45;&gt;22 -->
<g id="edge34" class="edge">
<title>15&#45;&gt;22</title>
<g id="a_edge34"><a xlink:title="usage">
<path fill="none" stroke="#1414ce" d="M840.26,-287.88C824.16,-278.64 804.11,-267.13 786.82,-257.21"/>
<polygon fill="#1414ce" stroke="#1414ce" points="788.48,-254.13 778.07,-252.19 785,-260.2 788.48,-254.13"/>
</a>
</g>
</g>
<!-- 7 -->
<g id="node16" class="node">
<title>7</title>
<g id="a_node16"><a xlink:title="RefcBinary">
<polygon fill="#ffffff" stroke="black" points="503.61,-252 408.61,-252 408.61,-216 503.61,-216 503.61,-252"/>
<text text-anchor="middle" x="456.11" y="-230.3" font-family="Times,serif" font-size="14.00">RefcBinary</text>
</a>
</g>
</g>
<!-- 7&#45;&gt;2 -->
<g id="edge35" class="edge">
<title>7&#45;&gt;2</title>
<g id="a_edge35"><a xlink:title="usage">
<path fill="none" stroke="#1414ce" d="M456.94,-215.97C458.48,-197.32 462.82,-166.99 475.11,-144 498.18,-100.83 541.83,-64.24 572.83,-42.02"/>
<polygon fill="#1414ce" stroke="#1414ce" points="575.04,-44.74 581.21,-36.13 571.02,-39.01 575.04,-44.74"/>
</a>
</g>
</g>
<!-- 7&#45;&gt;8 -->
<g id="edge36" class="edge">
<title>7&#45;&gt;8</title>
<g id="a_edge36"><a xlink:title="usage">
<path fill="none" stroke="#1414ce" d="M477.61,-215.7C488.57,-206.88 502.05,-196.03 513.93,-186.47"/>
<polygon fill="#1414ce" stroke="#1414ce" points="516.25,-189.1 521.85,-180.1 511.86,-183.65 516.25,-189.1"/>
</a>
</g>
</g>
<!-- 6&#45;&gt;7 -->
<g id="edge38" class="edge">
<title>6&#45;&gt;7</title>
<g id="a_edge38"><a xlink:title="usage">
<path fill="none" stroke="#1414ce" d="M444.81,-287.7C446.47,-279.98 448.45,-270.71 450.3,-262.11"/>
<polygon fill="#1414ce" stroke="#1414ce" points="453.77,-262.62 452.44,-252.1 446.92,-261.15 453.77,-262.62"/>
</a>
</g>
</g>
<!-- 6&#45;&gt;6 -->
<g id="edge37" class="edge">
<title>6&#45;&gt;6</title>
<g id="a_edge37"><a xlink:title="usage">
<path fill="none" stroke="#1414ce" d="M528.41,-317.68C539.1,-315.59 546.11,-311.7 546.11,-306 546.11,-302.35 543.23,-299.44 538.35,-297.27"/>
<polygon fill="#1414ce" stroke="#1414ce" points="538.99,-293.81 528.41,-294.32 537,-300.52 538.99,-293.81"/>
</a>
</g>
</g>
<!-- 8&#45;&gt;1 -->
<g id="edge40" class="edge">
<title>8&#45;&gt;1</title>
<g id="a_edge40"><a xlink:title="usage">
<path fill="none" stroke="#1414ce" d="M554,-180.23C572.69,-217.48 608.81,-305.72 623.89,-350.28"/>
<polygon fill="#1414ce" stroke="#1414ce" points="620.58,-351.43 627.01,-359.85 627.24,-349.26 620.58,-351.43"/>
</a>
</g>
</g>
<!-- 8&#45;&gt;2 -->
<g id="edge39" class="edge">
<title>8&#45;&gt;2</title>
<g id="a_edge39"><a xlink:title="usage">
<path fill="none" stroke="#1414ce" d="M543.66,-143.72C544.86,-125.12 548.6,-95.09 560.11,-72 565.28,-61.62 573.07,-51.76 580.87,-43.42"/>
<polygon fill="#1414ce" stroke="#1414ce" points="583.44,-45.8 587.97,-36.22 578.46,-40.88 583.44,-45.8"/>
</a>
</g>
</g>
<!-- 8&#45;&gt;9 -->
<g id="edge41" class="edge">
<title>8&#45;&gt;9</title>
<g id="a_edge41"><a xlink:title="usage">
<path fill="none" stroke="#1414ce" d="M559.17,-143.7C567.05,-135.22 576.66,-124.86 585.28,-115.58"/>
<polygon fill="#1414ce" stroke="#1414ce" points="587.98,-117.81 592.22,-108.1 582.85,-113.05 587.98,-117.81"/>
</a>
</g>
</g>
<!-- 9&#45;&gt;2 -->
<g id="edge42" class="edge">
<title>9&#45;&gt;2</title>
<g id="a_edge42"><a xlink:title="usage">
<path fill="none" stroke="#1414ce" d="M608.11,-71.7C608.11,-63.98 608.11,-54.71 608.11,-46.11"/>
<polygon fill="#1414ce" stroke="#1414ce" points="611.61,-46.1 608.11,-36.1 604.61,-46.1 611.61,-46.1"/>
</a>
</g>
</g>
<!-- 23&#45;&gt;2 -->
<g id="edge43" class="edge">
<title>23&#45;&gt;2</title>
<g id="a_edge43"><a xlink:title="usage">
<path fill="none" stroke="#1414ce" d="M1175.89,-74.08C1172.94,-73.3 1169.99,-72.6 1167.11,-72 982.52,-33.57 757.78,-22.96 658.92,-20.06"/>
<polygon fill="#1414ce" stroke="#1414ce" points="658.99,-16.57 648.9,-19.79 658.8,-23.56 658.99,-16.57"/>
</a>
</g>
</g>
<!-- 19&#45;&gt;2 -->
<g id="edge44" class="edge">
<title>19&#45;&gt;2</title>
<g id="a_edge44"><a xlink:title="usage">
<path fill="none" stroke="#1414ce" d="M826.47,-73.98C776.42,-61.38 705.73,-43.58 658.48,-31.68"/>
<polygon fill="#1414ce" stroke="#1414ce" points="659.32,-28.29 648.77,-29.24 657.61,-35.08 659.32,-28.29"/>
</a>
</g>
</g>
<!-- 14&#45;&gt;12 -->
<g id="edge45" class="edge">
<title>14&#45;&gt;12</title>
<g id="a_edge45"><a xlink:title="usage">
<path fill="none" stroke="#1414ce" d="M189.97,-215.88C166.2,-205.48 135.86,-192.2 111.52,-181.55"/>
<polygon fill="#1414ce" stroke="#1414ce" points="112.74,-178.27 102.17,-177.47 109.93,-184.68 112.74,-178.27"/>
</a>
</g>
</g>
</g>
</svg>
