<?xml version="1.0" encoding="UTF-8" standalone="no"?>
<!DOCTYPE svg PUBLIC "-//W3C//DTD SVG 1.1//EN"
 "http://www.w3.org/Graphics/SVG/1.1/DTD/svg11.dtd">
<!-- Generated by graphviz version 2.43.0 (0)
 -->
<!-- Title: %3 Pages: 1 -->
<svg width="1468pt" height="692pt"
 viewBox="0.00 0.00 1468.00 692.00" xmlns="http://www.w3.org/2000/svg" xmlns:xlink="http://www.w3.org/1999/xlink">
<g id="graph0" class="graph" transform="scale(1 1) rotate(0) translate(4 688)">
<title>%3</title>
<polygon fill="transparent" stroke="transparent" points="-4,4 -4,-688 1464,-688 1464,4 -4,4"/>
<!-- 4 -->
<g id="node1" class="node">
<title>4</title>
<g id="a_node1"><a xlink:title="atom.h">
<polygon fill="#ffffff" stroke="black" points="296,-180 230,-180 230,-144 296,-144 296,-180"/>
<text text-anchor="middle" x="263" y="-158.3" font-family="Times,serif" font-size="14.00">atom.h</text>
</a>
</g>
</g>
<!-- 3 -->
<g id="node26" class="node">
<title>3</title>
<g id="a_node26"><a xlink:title="stdint.h">
<polygon fill="#ffffff" stroke="black" points="299,-36 227,-36 227,0 299,0 299,-36"/>
<text text-anchor="middle" x="263" y="-14.3" font-family="Times,serif" font-size="14.00">stdint.h</text>
</a>
</g>
</g>
<!-- 4&#45;&gt;3 -->
<g id="edge1" class="edge">
<title>4&#45;&gt;3</title>
<g id="a_edge1"><a xlink:title="include">
<path fill="none" stroke="#1414ce" d="M263,-143.87C263,-119.67 263,-75.21 263,-46.39"/>
<polygon fill="#1414ce" stroke="#1414ce" points="266.5,-46.19 263,-36.19 259.5,-46.19 266.5,-46.19"/>
</a>
</g>
</g>
<!-- 5 -->
<g id="node28" class="node">
<title>5</title>
<g id="a_node28"><a xlink:title="stdlib.h">
<polygon fill="#ffffff" stroke="black" points="743.5,-108 672.5,-108 672.5,-72 743.5,-72 743.5,-108"/>
<text text-anchor="middle" x="708" y="-86.3" font-family="Times,serif" font-size="14.00">stdlib.h</text>
</a>
</g>
</g>
<!-- 4&#45;&gt;5 -->
<g id="edge2" class="edge">
<title>4&#45;&gt;5</title>
<g id="a_edge2"><a xlink:title="include">
<path fill="none" stroke="#1414ce" d="M296.34,-153.16C310.64,-149.99 327.58,-146.5 343,-144 481.1,-121.61 522.04,-140.65 662.55,-107.72"/>
<polygon fill="#1414ce" stroke="#1414ce" points="663.48,-111.1 672.39,-105.37 661.85,-104.29 663.48,-111.1"/>
</a>
</g>
</g>
<!-- 6 -->
<g id="node2" class="node">
<title>6</title>
<g id="a_node2"><a xlink:title="atom_table.h">
<polygon fill="#ffffff" stroke="black" points="603.5,-252 494.5,-252 494.5,-216 603.5,-216 603.5,-252"/>
<text text-anchor="middle" x="549" y="-230.3" font-family="Times,serif" font-size="14.00">atom_table.h</text>
</a>
</g>
</g>
<!-- 6&#45;&gt;4 -->
<g id="edge4" class="edge">
<title>6&#45;&gt;4</title>
<g id="a_edge4"><a xlink:title="include">
<path fill="none" stroke="#1414ce" d="M494.21,-218.35C491.1,-217.55 488.01,-216.76 485,-216 422.98,-200.36 350.9,-183.37 306.11,-172.95"/>
<polygon fill="#1414ce" stroke="#1414ce" points="306.69,-169.49 296.16,-170.64 305.11,-176.31 306.69,-169.49"/>
</a>
</g>
</g>
<!-- 8 -->
<g id="node18" class="node">
<title>8</title>
<g id="a_node18"><a xlink:title="utils.h">
<polygon fill="#ffffff" stroke="black" points="836,-180 774,-180 774,-144 836,-144 836,-180"/>
<text text-anchor="middle" x="805" y="-158.3" font-family="Times,serif" font-size="14.00">utils.h</text>
</a>
</g>
</g>
<!-- 6&#45;&gt;8 -->
<g id="edge5" class="edge">
<title>6&#45;&gt;8</title>
<g id="a_edge5"><a xlink:title="include">
<path fill="none" stroke="#1414ce" d="M603.6,-218.07C651.69,-204.92 720.66,-186.06 764.12,-174.18"/>
<polygon fill="#1414ce" stroke="#1414ce" points="765.07,-177.55 773.79,-171.53 763.22,-170.79 765.07,-177.55"/>
</a>
</g>
</g>
<!-- 7 -->
<g id="node24" class="node">
<title>7</title>
<g id="a_node24"><a xlink:title="stdbool.h">
<polygon fill="#ffffff" stroke="black" points="1063.5,-108 980.5,-108 980.5,-72 1063.5,-72 1063.5,-108"/>
<text text-anchor="middle" x="1022" y="-86.3" font-family="Times,serif" font-size="14.00">stdbool.h</text>
</a>
</g>
</g>
<!-- 6&#45;&gt;7 -->
<g id="edge3" class="edge">
<title>6&#45;&gt;7</title>
<g id="a_edge3"><a xlink:title="include">
<path fill="none" stroke="#1414ce" d="M603.77,-231.23C665.05,-227.46 766.08,-215.81 845,-180 868.32,-169.42 867.88,-156.91 890,-144 915.33,-129.22 945.55,-116.75 970.69,-107.62"/>
<polygon fill="#1414ce" stroke="#1414ce" points="972.16,-110.82 980.41,-104.17 969.81,-104.22 972.16,-110.82"/>
</a>
</g>
</g>
<!-- 1 -->
<g id="node3" class="node">
<title>1</title>
<g id="a_node3"><a xlink:title="/__w/AtomVM/AtomVM/src/libAtomVM/defaultatoms.h">
<polygon fill="#bfbfbf" stroke="black" points="1261.5,-684 860.5,-684 860.5,-648 1261.5,-648 1261.5,-684"/>
<text text-anchor="middle" x="1061" y="-662.3" font-family="Times,serif" font-size="14.00">/__w/AtomVM/AtomVM/src/libAtomVM/defaultatoms.h</text>
</a>
</g>
</g>
<!-- 2 -->
<g id="node6" class="node">
<title>2</title>
<g id="a_node6"><a xlink:title="globalcontext.h">
<polygon fill="#ffffff" stroke="black" points="1049.5,-612 922.5,-612 922.5,-576 1049.5,-576 1049.5,-612"/>
<text text-anchor="middle" x="986" y="-590.3" font-family="Times,serif" font-size="14.00">globalcontext.h</text>
</a>
</g>
</g>
<!-- 1&#45;&gt;2 -->
<g id="edge6" class="edge">
<title>1&#45;&gt;2</title>
<g id="a_edge6"><a xlink:title="include">
<path fill="none" stroke="#1414ce" d="M1042.46,-647.7C1033.2,-639.05 1021.84,-628.45 1011.74,-619.03"/>
<polygon fill="#1414ce" stroke="#1414ce" points="1014.02,-616.37 1004.33,-612.1 1009.25,-621.49 1014.02,-616.37"/>
</a>
</g>
</g>
<!-- 30 -->
<g id="node21" class="node">
<title>30</title>
<g id="a_node21"><a xlink:title="defaultatoms.def">
<polygon fill="#ffffff" stroke="black" points="1204.5,-612 1067.5,-612 1067.5,-576 1204.5,-576 1204.5,-612"/>
<text text-anchor="middle" x="1136" y="-590.3" font-family="Times,serif" font-size="14.00">defaultatoms.def</text>
</a>
</g>
</g>
<!-- 1&#45;&gt;30 -->
<g id="edge7" class="edge">
<title>1&#45;&gt;30</title>
<g id="a_edge7"><a xlink:title="include">
<path fill="none" stroke="#1414ce" d="M1079.54,-647.7C1088.8,-639.05 1100.16,-628.45 1110.26,-619.03"/>
<polygon fill="#1414ce" stroke="#1414ce" points="1112.75,-621.49 1117.67,-612.1 1107.98,-616.37 1112.75,-621.49"/>
</a>
</g>
</g>
<!-- 12 -->
<g id="node4" class="node">
<title>12</title>
<g id="a_node4"><a xlink:title="erl_nif.h">
<polygon fill="#ffffff" stroke="black" points="426,-180 352,-180 352,-144 426,-144 426,-180"/>
<text text-anchor="middle" x="389" y="-158.3" font-family="Times,serif" font-size="14.00">erl_nif.h</text>
</a>
</g>
</g>
<!-- 13 -->
<g id="node16" class="node">
<title>13</title>
<g id="a_node16"><a xlink:title="term_typedef.h">
<polygon fill="#ffffff" stroke="black" points="654.5,-108 529.5,-108 529.5,-72 654.5,-72 654.5,-108"/>
<text text-anchor="middle" x="592" y="-86.3" font-family="Times,serif" font-size="14.00">term_typedef.h</text>
</a>
</g>
</g>
<!-- 12&#45;&gt;13 -->
<g id="edge8" class="edge">
<title>12&#45;&gt;13</title>
<g id="a_edge8"><a xlink:title="include">
<path fill="none" stroke="#1414ce" d="M426.23,-148.16C456.05,-137.88 498.44,-123.26 532.89,-111.38"/>
<polygon fill="#1414ce" stroke="#1414ce" points="534.06,-114.68 542.38,-108.11 531.78,-108.06 534.06,-114.68"/>
</a>
</g>
</g>
<!-- 16 -->
<g id="node5" class="node">
<title>16</title>
<g id="a_node5"><a xlink:title="ets.h">
<polygon fill="#ffffff" stroke="black" points="1219,-540 1165,-540 1165,-504 1219,-504 1219,-540"/>
<text text-anchor="middle" x="1192" y="-518.3" font-family="Times,serif" font-size="14.00">ets.h</text>
</a>
</g>
</g>
<!-- 17 -->
<g id="node14" class="node">
<title>17</title>
<g id="a_node14"><a xlink:title="synclist.h">
<polygon fill="#ffffff" stroke="black" points="1229.5,-252 1144.5,-252 1144.5,-216 1229.5,-216 1229.5,-252"/>
<text text-anchor="middle" x="1187" y="-230.3" font-family="Times,serif" font-size="14.00">synclist.h</text>
</a>
</g>
</g>
<!-- 16&#45;&gt;17 -->
<g id="edge10" class="edge">
<title>16&#45;&gt;17</title>
<g id="a_edge10"><a xlink:title="include">
<path fill="none" stroke="#1414ce" d="M1191.7,-503.97C1190.87,-456.29 1188.51,-321.18 1187.48,-262.63"/>
<polygon fill="#1414ce" stroke="#1414ce" points="1190.98,-262.24 1187.3,-252.31 1183.98,-262.37 1190.98,-262.24"/>
</a>
</g>
</g>
<!-- 20 -->
<g id="node15" class="node">
<title>20</title>
<g id="a_node15"><a xlink:title="term.h">
<polygon fill="#ffffff" stroke="black" points="754.5,-468 689.5,-468 689.5,-432 754.5,-432 754.5,-468"/>
<text text-anchor="middle" x="722" y="-446.3" font-family="Times,serif" font-size="14.00">term.h</text>
</a>
</g>
</g>
<!-- 16&#45;&gt;20 -->
<g id="edge11" class="edge">
<title>16&#45;&gt;20</title>
<g id="a_edge11"><a xlink:title="include">
<path fill="none" stroke="#1414ce" d="M1164.7,-516.93C1086.24,-505.25 859.66,-471.5 764.69,-457.36"/>
<polygon fill="#1414ce" stroke="#1414ce" points="764.98,-453.86 754.58,-455.85 763.95,-460.79 764.98,-453.86"/>
</a>
</g>
</g>
<!-- 16&#45;&gt;7 -->
<g id="edge9" class="edge">
<title>16&#45;&gt;7</title>
<g id="a_edge9"><a xlink:title="include">
<path fill="none" stroke="#1414ce" d="M1219.04,-509.01C1260.24,-488.69 1334,-443.32 1334,-379 1334,-379 1334,-379 1334,-233 1334,-176.48 1162.26,-125.67 1073.62,-103.2"/>
<polygon fill="#1414ce" stroke="#1414ce" points="1074.3,-99.76 1063.75,-100.73 1072.6,-106.55 1074.3,-99.76"/>
</a>
</g>
</g>
<!-- 2&#45;&gt;4 -->
<g id="edge13" class="edge">
<title>2&#45;&gt;4</title>
<g id="a_edge13"><a xlink:title="include">
<path fill="none" stroke="#1414ce" d="M922.46,-592.28C756.46,-589.85 319.01,-579.7 268,-540 160.92,-456.66 223.98,-261.08 251.85,-189.69"/>
<polygon fill="#1414ce" stroke="#1414ce" points="255.23,-190.67 255.68,-180.08 248.73,-188.07 255.23,-190.67"/>
</a>
</g>
</g>
<!-- 2&#45;&gt;6 -->
<g id="edge14" class="edge">
<title>2&#45;&gt;6</title>
<g id="a_edge14"><a xlink:title="include">
<path fill="none" stroke="#1414ce" d="M922.44,-591.92C763.61,-587.51 362,-565.09 362,-451 362,-451 362,-451 362,-377 362,-313.74 430.71,-275 484.84,-254.29"/>
<polygon fill="#1414ce" stroke="#1414ce" points="486.24,-257.5 494.41,-250.75 483.82,-250.94 486.24,-257.5"/>
</a>
</g>
</g>
<!-- 2&#45;&gt;12 -->
<g id="edge15" class="edge">
<title>2&#45;&gt;12</title>
<g id="a_edge15"><a xlink:title="include">
<path fill="none" stroke="#1414ce" d="M922.35,-590.71C791.54,-585.45 496.7,-570.51 401,-540 326.05,-516.11 248,-529.67 248,-451 248,-451 248,-451 248,-305 248,-249.81 302.29,-208.44 343.49,-184.99"/>
<polygon fill="#1414ce" stroke="#1414ce" points="345.26,-188.01 352.32,-180.12 341.88,-181.88 345.26,-188.01"/>
</a>
</g>
</g>
<!-- 2&#45;&gt;16 -->
<g id="edge16" class="edge">
<title>2&#45;&gt;16</title>
<g id="a_edge16"><a xlink:title="include">
<path fill="none" stroke="#1414ce" d="M1042.9,-575.99C1074.89,-566.11 1115.41,-553.07 1151,-540 1152.4,-539.49 1153.83,-538.95 1155.26,-538.4"/>
<polygon fill="#1414ce" stroke="#1414ce" points="1156.76,-541.58 1164.78,-534.65 1154.19,-535.06 1156.76,-541.58"/>
</a>
</g>
</g>
<!-- 18 -->
<g id="node8" class="node">
<title>18</title>
<g id="a_node8"><a xlink:title="list.h">
<polygon fill="#ffffff" stroke="black" points="1076,-180 1022,-180 1022,-144 1076,-144 1076,-180"/>
<text text-anchor="middle" x="1049" y="-158.3" font-family="Times,serif" font-size="14.00">list.h</text>
</a>
</g>
</g>
<!-- 2&#45;&gt;18 -->
<g id="edge17" class="edge">
<title>2&#45;&gt;18</title>
<g id="a_edge17"><a xlink:title="include">
<path fill="none" stroke="#1414ce" d="M1049.57,-577.82C1052.41,-577.19 1055.24,-576.58 1058,-576 1143.37,-557.97 1181.2,-592.36 1251,-540 1286.46,-513.4 1296,-495.32 1296,-451 1296,-451 1296,-451 1296,-305 1296,-258.03 1276.77,-243.92 1239,-216 1226.61,-206.84 1137.71,-184.36 1086.02,-171.82"/>
<polygon fill="#1414ce" stroke="#1414ce" points="1086.75,-168.39 1076.21,-169.45 1085.11,-175.2 1086.75,-168.39"/>
</a>
</g>
</g>
<!-- 27 -->
<g id="node9" class="node">
<title>27</title>
<g id="a_node9"><a xlink:title="mailbox.h">
<polygon fill="#ffffff" stroke="black" points="860,-252 774,-252 774,-216 860,-216 860,-252"/>
<text text-anchor="middle" x="817" y="-230.3" font-family="Times,serif" font-size="14.00">mailbox.h</text>
</a>
</g>
</g>
<!-- 2&#45;&gt;27 -->
<g id="edge18" class="edge">
<title>2&#45;&gt;27</title>
<g id="a_edge18"><a xlink:title="include">
<path fill="none" stroke="#1414ce" d="M993.9,-575.84C1010.99,-536.18 1047.37,-435.74 1016,-360 991.12,-299.93 920.09,-266.2 870.01,-249.31"/>
<polygon fill="#1414ce" stroke="#1414ce" points="870.89,-245.91 860.3,-246.15 868.73,-252.57 870.89,-245.91"/>
</a>
</g>
</g>
<!-- 19 -->
<g id="node13" class="node">
<title>19</title>
<g id="a_node13"><a xlink:title="smp.h">
<polygon fill="#ffffff" stroke="black" points="1192,-180 1132,-180 1132,-144 1192,-144 1192,-180"/>
<text text-anchor="middle" x="1162" y="-158.3" font-family="Times,serif" font-size="14.00">smp.h</text>
</a>
</g>
</g>
<!-- 2&#45;&gt;19 -->
<g id="edge19" class="edge">
<title>2&#45;&gt;19</title>
<g id="a_edge19"><a xlink:title="include">
<path fill="none" stroke="#1414ce" d="M1002.05,-575.94C1010.68,-566.05 1020.96,-553.01 1028,-540 1100.23,-406.5 1078.44,-356.45 1136,-216 1139.61,-207.18 1144.03,-197.77 1148.2,-189.37"/>
<polygon fill="#1414ce" stroke="#1414ce" points="1151.35,-190.9 1152.73,-180.4 1145.1,-187.74 1151.35,-190.9"/>
</a>
</g>
</g>
<!-- 2&#45;&gt;17 -->
<g id="edge20" class="edge">
<title>2&#45;&gt;17</title>
<g id="a_edge20"><a xlink:title="include">
<path fill="none" stroke="#1414ce" d="M1049.58,-577.9C1052.43,-577.25 1055.24,-576.62 1058,-576 1133.37,-559.13 1173.34,-594.57 1228,-540 1256.62,-511.42 1247,-491.45 1247,-451 1247,-451 1247,-451 1247,-377 1247,-333.72 1223.06,-288.45 1205.42,-260.98"/>
<polygon fill="#1414ce" stroke="#1414ce" points="1208.16,-258.78 1199.72,-252.38 1202.32,-262.65 1208.16,-258.78"/>
</a>
</g>
</g>
<!-- 2&#45;&gt;20 -->
<g id="edge21" class="edge">
<title>2&#45;&gt;20</title>
<g id="a_edge21"><a xlink:title="include">
<path fill="none" stroke="#1414ce" d="M954.16,-575.87C906.29,-550.12 815.79,-501.45 763.03,-473.07"/>
<polygon fill="#1414ce" stroke="#1414ce" points="764.42,-469.84 753.96,-468.19 761.11,-476.01 764.42,-469.84"/>
</a>
</g>
</g>
<!-- 28 -->
<g id="node17" class="node">
<title>28</title>
<g id="a_node17"><a xlink:title="timer_list.h">
<polygon fill="#ffffff" stroke="black" points="1460,-252 1362,-252 1362,-216 1460,-216 1460,-252"/>
<text text-anchor="middle" x="1411" y="-230.3" font-family="Times,serif" font-size="14.00">timer_list.h</text>
</a>
</g>
</g>
<!-- 2&#45;&gt;28 -->
<g id="edge22" class="edge">
<title>2&#45;&gt;28</title>
<g id="a_edge22"><a xlink:title="include">
<path fill="none" stroke="#1414ce" d="M1049.54,-577.67C1052.39,-577.09 1055.22,-576.52 1058,-576 1169.17,-554.98 1210.02,-592.96 1310,-540 1357.26,-514.96 1391,-504.48 1391,-451 1391,-451 1391,-451 1391,-377 1391,-336.82 1398.95,-290.87 1404.82,-262.39"/>
<polygon fill="#1414ce" stroke="#1414ce" points="1408.3,-262.89 1406.95,-252.38 1401.45,-261.43 1408.3,-262.89"/>
</a>
</g>
</g>
<!-- 29 -->
<g id="node19" class="node">
<title>29</title>
<g id="a_node19"><a xlink:title="valueshashtable.h">
<polygon fill="#ffffff" stroke="black" points="174,-180 28,-180 28,-144 174,-144 174,-180"/>
<text text-anchor="middle" x="101" y="-158.3" font-family="Times,serif" font-size="14.00">valueshashtable.h</text>
</a>
</g>
</g>
<!-- 2&#45;&gt;29 -->
<g id="edge23" class="edge">
<title>2&#45;&gt;29</title>
<g id="a_edge23"><a xlink:title="include">
<path fill="none" stroke="#1414ce" d="M922.24,-593.23C764.08,-593.07 357.44,-587.85 232,-540 171.61,-516.97 117,-515.63 117,-451 117,-451 117,-451 117,-305 117,-264.96 110.64,-218.97 105.94,-190.45"/>
<polygon fill="#1414ce" stroke="#1414ce" points="109.36,-189.69 104.24,-180.42 102.46,-190.86 109.36,-189.69"/>
</a>
</g>
</g>
<!-- 2&#45;&gt;3 -->
<g id="edge12" class="edge">
<title>2&#45;&gt;3</title>
<g id="a_edge12"><a xlink:title="include">
<path fill="none" stroke="#1414ce" d="M922.27,-593.13C751.08,-592.83 284.38,-587.53 139,-540 69.28,-517.2 0,-524.36 0,-451 0,-451 0,-451 0,-161 0,-63.62 141.34,-32.7 216.79,-23.14"/>
<polygon fill="#1414ce" stroke="#1414ce" points="217.47,-26.58 226.98,-21.92 216.64,-19.63 217.47,-26.58"/>
</a>
</g>
</g>
<!-- 23 -->
<g id="node7" class="node">
<title>23</title>
<g id="a_node7"><a xlink:title="intn.h">
<polygon fill="#ffffff" stroke="black" points="1007.5,-396 948.5,-396 948.5,-360 1007.5,-360 1007.5,-396"/>
<text text-anchor="middle" x="978" y="-374.3" font-family="Times,serif" font-size="14.00">intn.h</text>
</a>
</g>
</g>
<!-- 23&#45;&gt;8 -->
<g id="edge26" class="edge">
<title>23&#45;&gt;8</title>
<g id="a_edge26"><a xlink:title="include">
<path fill="none" stroke="#1414ce" d="M973.88,-359.88C968.84,-341.14 959.08,-310.75 944,-288 916.05,-245.84 870.62,-208.69 839.35,-186.07"/>
<polygon fill="#1414ce" stroke="#1414ce" points="841.11,-183.02 830.93,-180.08 837.05,-188.73 841.11,-183.02"/>
</a>
</g>
</g>
<!-- 23&#45;&gt;7 -->
<g id="edge24" class="edge">
<title>23&#45;&gt;7</title>
<g id="a_edge24"><a xlink:title="include">
<path fill="none" stroke="#1414ce" d="M980.48,-359.74C986.05,-321.07 1000.11,-224.58 1013,-144 1014.35,-135.58 1015.88,-126.41 1017.29,-118.11"/>
<polygon fill="#1414ce" stroke="#1414ce" points="1020.76,-118.62 1019,-108.17 1013.86,-117.44 1020.76,-118.62"/>
</a>
</g>
</g>
<!-- 22 -->
<g id="node29" class="node">
<title>22</title>
<g id="a_node29"><a xlink:title="string.h">
<polygon fill="#ffffff" stroke="black" points="935.5,-324 862.5,-324 862.5,-288 935.5,-288 935.5,-324"/>
<text text-anchor="middle" x="899" y="-302.3" font-family="Times,serif" font-size="14.00">string.h</text>
</a>
</g>
</g>
<!-- 23&#45;&gt;22 -->
<g id="edge25" class="edge">
<title>23&#45;&gt;22</title>
<g id="a_edge25"><a xlink:title="include">
<path fill="none" stroke="#1414ce" d="M958.47,-359.7C948.62,-350.97 936.51,-340.24 925.8,-330.75"/>
<polygon fill="#1414ce" stroke="#1414ce" points="928.11,-328.12 918.3,-324.1 923.47,-333.36 928.11,-328.12"/>
</a>
</g>
</g>
<!-- 18&#45;&gt;7 -->
<g id="edge27" class="edge">
<title>18&#45;&gt;7</title>
<g id="a_edge27"><a xlink:title="include">
<path fill="none" stroke="#1414ce" d="M1042.33,-143.7C1039.29,-135.81 1035.62,-126.3 1032.24,-117.55"/>
<polygon fill="#1414ce" stroke="#1414ce" points="1035.46,-116.17 1028.6,-108.1 1028.93,-118.69 1035.46,-116.17"/>
</a>
</g>
</g>
<!-- 27&#45;&gt;18 -->
<g id="edge29" class="edge">
<title>27&#45;&gt;18</title>
<g id="a_edge29"><a xlink:title="include">
<path fill="none" stroke="#1414ce" d="M860.09,-220C903.8,-206.81 970.72,-186.62 1012.06,-174.14"/>
<polygon fill="#1414ce" stroke="#1414ce" points="1013.18,-177.46 1021.74,-171.22 1011.16,-170.76 1013.18,-177.46"/>
</a>
</g>
</g>
<!-- 27&#45;&gt;13 -->
<g id="edge30" class="edge">
<title>27&#45;&gt;13</title>
<g id="a_edge30"><a xlink:title="include">
<path fill="none" stroke="#1414ce" d="M789.86,-215.87C749.32,-190.28 672.89,-142.05 627.81,-113.6"/>
<polygon fill="#1414ce" stroke="#1414ce" points="629.56,-110.57 619.24,-108.19 625.83,-116.49 629.56,-110.57"/>
</a>
</g>
</g>
<!-- 27&#45;&gt;8 -->
<g id="edge31" class="edge">
<title>27&#45;&gt;8</title>
<g id="a_edge31"><a xlink:title="include">
<path fill="none" stroke="#1414ce" d="M814.03,-215.7C812.71,-207.98 811.12,-198.71 809.65,-190.11"/>
<polygon fill="#1414ce" stroke="#1414ce" points="813.07,-189.37 807.93,-180.1 806.17,-190.55 813.07,-189.37"/>
</a>
</g>
</g>
<!-- 27&#45;&gt;7 -->
<g id="edge28" class="edge">
<title>27&#45;&gt;7</title>
<g id="a_edge28"><a xlink:title="include">
<path fill="none" stroke="#1414ce" d="M840.8,-215.7C865.82,-197.59 906.43,-168.44 942,-144 956.67,-133.92 973.03,-123.03 987.11,-113.75"/>
<polygon fill="#1414ce" stroke="#1414ce" points="989.11,-116.62 995.55,-108.2 985.27,-110.77 989.11,-116.62"/>
</a>
</g>
</g>
<!-- 24 -->
<g id="node10" class="node">
<title>24</title>
<g id="a_node10"><a xlink:title="memory.h">
<polygon fill="#ffffff" stroke="black" points="476,-252 390,-252 390,-216 476,-216 476,-252"/>
<text text-anchor="middle" x="433" y="-230.3" font-family="Times,serif" font-size="14.00">memory.h</text>
</a>
</g>
</g>
<!-- 24&#45;&gt;12 -->
<g id="edge34" class="edge">
<title>24&#45;&gt;12</title>
<g id="a_edge34"><a xlink:title="include">
<path fill="none" stroke="#1414ce" d="M422.12,-215.7C417.01,-207.56 410.8,-197.69 405.16,-188.7"/>
<polygon fill="#1414ce" stroke="#1414ce" points="408.04,-186.71 399.75,-180.1 402.11,-190.43 408.04,-186.71"/>
</a>
</g>
</g>
<!-- 24&#45;&gt;13 -->
<g id="edge35" class="edge">
<title>24&#45;&gt;13</title>
<g id="a_edge35"><a xlink:title="include">
<path fill="none" stroke="#1414ce" d="M452.18,-215.87C480.35,-190.71 533.04,-143.65 565.08,-115.04"/>
<polygon fill="#1414ce" stroke="#1414ce" points="567.63,-117.46 572.75,-108.19 562.96,-112.24 567.63,-117.46"/>
</a>
</g>
</g>
<!-- 24&#45;&gt;8 -->
<g id="edge36" class="edge">
<title>24&#45;&gt;8</title>
<g id="a_edge36"><a xlink:title="include">
<path fill="none" stroke="#1414ce" d="M476.27,-218.31C479.21,-217.48 482.14,-216.7 485,-216 583.76,-191.83 702.39,-175.39 763.74,-167.8"/>
<polygon fill="#1414ce" stroke="#1414ce" points="764.29,-171.26 773.79,-166.57 763.44,-164.31 764.29,-171.26"/>
</a>
</g>
</g>
<!-- 24&#45;&gt;3 -->
<g id="edge32" class="edge">
<title>24&#45;&gt;3</title>
<g id="a_edge32"><a xlink:title="include">
<path fill="none" stroke="#1414ce" d="M437.97,-215.87C442.4,-197.13 446.58,-166.72 435,-144 408.67,-92.32 349.87,-56.99 308.38,-37.41"/>
<polygon fill="#1414ce" stroke="#1414ce" points="309.83,-34.23 299.28,-33.24 306.91,-40.59 309.83,-34.23"/>
</a>
</g>
</g>
<!-- 24&#45;&gt;5 -->
<g id="edge33" class="edge">
<title>24&#45;&gt;5</title>
<g id="a_edge33"><a xlink:title="include">
<path fill="none" stroke="#1414ce" d="M466.17,-215.87C516.14,-190.07 610.69,-141.25 665.6,-112.9"/>
<polygon fill="#1414ce" stroke="#1414ce" points="667.43,-115.89 674.71,-108.19 664.22,-109.67 667.43,-115.89"/>
</a>
</g>
</g>
<!-- 25 -->
<g id="node11" class="node">
<title>25</title>
<g id="a_node11"><a xlink:title="refc_binary.h">
<polygon fill="#ffffff" stroke="black" points="776,-396 668,-396 668,-360 776,-360 776,-396"/>
<text text-anchor="middle" x="722" y="-374.3" font-family="Times,serif" font-size="14.00">refc_binary.h</text>
</a>
</g>
</g>
<!-- 25&#45;&gt;18 -->
<g id="edge39" class="edge">
<title>25&#45;&gt;18</title>
<g id="a_edge39"><a xlink:title="include">
<path fill="none" stroke="#1414ce" d="M752.88,-359.97C770.1,-350.09 791.7,-337.05 810,-324 830.29,-309.53 830.99,-299.7 853,-288 904.05,-260.86 929.93,-284.11 978,-252 1002.23,-235.81 1022.1,-208.76 1034.59,-188.71"/>
<polygon fill="#1414ce" stroke="#1414ce" points="1037.64,-190.44 1039.81,-180.06 1031.65,-186.82 1037.64,-190.44"/>
</a>
</g>
</g>
<!-- 26 -->
<g id="node12" class="node">
<title>26</title>
<g id="a_node12"><a xlink:title="resources.h">
<polygon fill="#ffffff" stroke="black" points="730,-324 630,-324 630,-288 730,-288 730,-324"/>
<text text-anchor="middle" x="680" y="-302.3" font-family="Times,serif" font-size="14.00">resources.h</text>
</a>
</g>
</g>
<!-- 25&#45;&gt;26 -->
<g id="edge40" class="edge">
<title>25&#45;&gt;26</title>
<g id="a_edge40"><a xlink:title="include">
<path fill="none" stroke="#1414ce" d="M711.62,-359.7C706.74,-351.56 700.81,-341.69 695.42,-332.7"/>
<polygon fill="#1414ce" stroke="#1414ce" points="698.41,-330.88 690.26,-324.1 692.41,-334.48 698.41,-330.88"/>
</a>
</g>
</g>
<!-- 25&#45;&gt;7 -->
<g id="edge37" class="edge">
<title>25&#45;&gt;7</title>
<g id="a_edge37"><a xlink:title="include">
<path fill="none" stroke="#1414ce" d="M736.8,-359.69C753.46,-340.79 781.89,-310.25 810,-288 834.09,-268.94 845.1,-271.3 869,-252 921.54,-209.56 973.81,-149.83 1001.58,-116.33"/>
<polygon fill="#1414ce" stroke="#1414ce" points="1004.45,-118.35 1008.1,-108.41 999.04,-113.91 1004.45,-118.35"/>
</a>
</g>
</g>
<!-- 25&#45;&gt;5 -->
<g id="edge38" class="edge">
<title>25&#45;&gt;5</title>
<g id="a_edge38"><a xlink:title="include">
<path fill="none" stroke="#1414ce" d="M729.07,-359.67C732.84,-349.47 737.09,-336.22 739,-324 750.63,-249.69 729.44,-161.61 716.67,-118.11"/>
<polygon fill="#1414ce" stroke="#1414ce" points="719.94,-116.85 713.7,-108.28 713.24,-118.87 719.94,-116.85"/>
</a>
</g>
</g>
<!-- 26&#45;&gt;12 -->
<g id="edge42" class="edge">
<title>26&#45;&gt;12</title>
<g id="a_edge42"><a xlink:title="include">
<path fill="none" stroke="#1414ce" d="M629.74,-303.6C552.99,-300.29 412.16,-289.17 381,-252 366.74,-234.99 370.92,-209.2 377.38,-189.75"/>
<polygon fill="#1414ce" stroke="#1414ce" points="380.71,-190.83 380.88,-180.24 374.14,-188.41 380.71,-190.83"/>
</a>
</g>
</g>
<!-- 26&#45;&gt;18 -->
<g id="edge43" class="edge">
<title>26&#45;&gt;18</title>
<g id="a_edge43"><a xlink:title="include">
<path fill="none" stroke="#1414ce" d="M730.16,-293.63C768.73,-284.25 823.02,-269.64 869,-252 920.54,-232.23 977.19,-202.86 1012.91,-183.34"/>
<polygon fill="#1414ce" stroke="#1414ce" points="1014.89,-186.24 1021.96,-178.35 1011.51,-180.11 1014.89,-186.24"/>
</a>
</g>
</g>
<!-- 26&#45;&gt;27 -->
<g id="edge44" class="edge">
<title>26&#45;&gt;27</title>
<g id="a_edge44"><a xlink:title="include">
<path fill="none" stroke="#1414ce" d="M713.51,-287.88C731.84,-278.51 754.74,-266.81 774.33,-256.8"/>
<polygon fill="#1414ce" stroke="#1414ce" points="776.04,-259.86 783.36,-252.19 772.86,-253.62 776.04,-259.86"/>
</a>
</g>
</g>
<!-- 26&#45;&gt;24 -->
<g id="edge45" class="edge">
<title>26&#45;&gt;24</title>
<g id="a_edge45"><a xlink:title="include">
<path fill="none" stroke="#1414ce" d="M629.7,-292.08C592.45,-282.34 540.23,-268.33 485.89,-252.2"/>
<polygon fill="#1414ce" stroke="#1414ce" points="486.66,-248.78 476.08,-249.27 484.66,-255.48 486.66,-248.78"/>
</a>
</g>
</g>
<!-- 26&#45;&gt;17 -->
<g id="edge46" class="edge">
<title>26&#45;&gt;17</title>
<g id="a_edge46"><a xlink:title="include">
<path fill="none" stroke="#1414ce" d="M730,-298.1C826.15,-284.82 1035.99,-255.85 1134.26,-242.28"/>
<polygon fill="#1414ce" stroke="#1414ce" points="1134.83,-245.74 1144.26,-240.9 1133.88,-238.8 1134.83,-245.74"/>
</a>
</g>
</g>
<!-- 26&#45;&gt;5 -->
<g id="edge41" class="edge">
<title>26&#45;&gt;5</title>
<g id="a_edge41"><a xlink:title="include">
<path fill="none" stroke="#1414ce" d="M682.24,-287.85C687.09,-250.83 698.56,-163.18 704.42,-118.39"/>
<polygon fill="#1414ce" stroke="#1414ce" points="707.92,-118.6 705.75,-108.23 700.98,-117.69 707.92,-118.6"/>
</a>
</g>
</g>
<!-- 19&#45;&gt;7 -->
<g id="edge47" class="edge">
<title>19&#45;&gt;7</title>
<g id="a_edge47"><a xlink:title="include">
<path fill="none" stroke="#1414ce" d="M1131.97,-145.98C1112.49,-136.25 1086.81,-123.41 1065.17,-112.58"/>
<polygon fill="#1414ce" stroke="#1414ce" points="1066.68,-109.43 1056.17,-108.08 1063.55,-115.69 1066.68,-109.43"/>
</a>
</g>
</g>
<!-- 17&#45;&gt;18 -->
<g id="edge49" class="edge">
<title>17&#45;&gt;18</title>
<g id="a_edge49"><a xlink:title="include">
<path fill="none" stroke="#1414ce" d="M1153.24,-215.88C1132.67,-205.44 1106.38,-192.1 1085.35,-181.44"/>
<polygon fill="#1414ce" stroke="#1414ce" points="1086.89,-178.3 1076.39,-176.9 1083.73,-184.54 1086.89,-178.3"/>
</a>
</g>
</g>
<!-- 17&#45;&gt;19 -->
<g id="edge50" class="edge">
<title>17&#45;&gt;19</title>
<g id="a_edge50"><a xlink:title="include">
<path fill="none" stroke="#1414ce" d="M1180.82,-215.7C1178,-207.81 1174.61,-198.3 1171.48,-189.55"/>
<polygon fill="#1414ce" stroke="#1414ce" points="1174.77,-188.34 1168.11,-180.1 1168.18,-190.7 1174.77,-188.34"/>
</a>
</g>
</g>
<!-- 11 -->
<g id="node27" class="node">
<title>11</title>
<g id="a_node27"><a xlink:title="stdio.h">
<polygon fill="#ffffff" stroke="black" points="1252.5,-108 1187.5,-108 1187.5,-72 1252.5,-72 1252.5,-108"/>
<text text-anchor="middle" x="1220" y="-86.3" font-family="Times,serif" font-size="14.00">stdio.h</text>
</a>
</g>
</g>
<!-- 17&#45;&gt;11 -->
<g id="edge48" class="edge">
<title>17&#45;&gt;11</title>
<g id="a_edge48"><a xlink:title="include">
<path fill="none" stroke="#1414ce" d="M1191.75,-215.87C1194.56,-205.51 1198.13,-192.03 1201,-180 1205.92,-159.38 1210.9,-135.93 1214.53,-118.28"/>
<polygon fill="#1414ce" stroke="#1414ce" points="1218.03,-118.61 1216.6,-108.12 1211.17,-117.22 1218.03,-118.61"/>
</a>
</g>
</g>
<!-- 20&#45;&gt;4 -->
<g id="edge57" class="edge">
<title>20&#45;&gt;4</title>
<g id="a_edge57"><a xlink:title="include">
<path fill="none" stroke="#1414ce" d="M689.24,-446.32C615.57,-439.89 439.18,-422.18 386,-396 344.25,-375.45 334.25,-363.71 310,-324 283.98,-281.39 271.73,-223.65 266.48,-190.15"/>
<polygon fill="#1414ce" stroke="#1414ce" points="269.93,-189.55 265.01,-180.17 263.01,-190.57 269.93,-189.55"/>
</a>
</g>
</g>
<!-- 20&#45;&gt;23 -->
<g id="edge58" class="edge">
<title>20&#45;&gt;23</title>
<g id="a_edge58"><a xlink:title="include">
<path fill="none" stroke="#1414ce" d="M754.67,-442.15C796.61,-433.06 871.43,-415.82 934,-396 935.61,-395.49 937.25,-394.95 938.89,-394.39"/>
<polygon fill="#1414ce" stroke="#1414ce" points="940.11,-397.68 948.36,-391.03 937.76,-391.08 940.11,-397.68"/>
</a>
</g>
</g>
<!-- 20&#45;&gt;24 -->
<g id="edge59" class="edge">
<title>20&#45;&gt;24</title>
<g id="a_edge59"><a xlink:title="include">
<path fill="none" stroke="#1414ce" d="M689.48,-445.24C652.71,-439.65 592.45,-426.35 550,-396 500.28,-360.46 463.42,-297.18 445.37,-261.45"/>
<polygon fill="#1414ce" stroke="#1414ce" points="448.35,-259.57 440.79,-252.15 442.07,-262.67 448.35,-259.57"/>
</a>
</g>
</g>
<!-- 20&#45;&gt;25 -->
<g id="edge60" class="edge">
<title>20&#45;&gt;25</title>
<g id="a_edge60"><a xlink:title="include">
<path fill="none" stroke="#1414ce" d="M722,-431.7C722,-423.98 722,-414.71 722,-406.11"/>
<polygon fill="#1414ce" stroke="#1414ce" points="725.5,-406.1 722,-396.1 718.5,-406.1 725.5,-406.1"/>
</a>
</g>
</g>
<!-- 20&#45;&gt;26 -->
<g id="edge61" class="edge">
<title>20&#45;&gt;26</title>
<g id="a_edge61"><a xlink:title="include">
<path fill="none" stroke="#1414ce" d="M691.7,-431.8C679.12,-422.9 665.88,-410.77 659,-396 649.69,-375.99 656.68,-351.47 665.02,-333.24"/>
<polygon fill="#1414ce" stroke="#1414ce" points="668.25,-334.59 669.56,-324.08 661.98,-331.48 668.25,-334.59"/>
</a>
</g>
</g>
<!-- 20&#45;&gt;13 -->
<g id="edge63" class="edge">
<title>20&#45;&gt;13</title>
<g id="a_edge63"><a xlink:title="include">
<path fill="none" stroke="#1414ce" d="M689.28,-446.43C645.61,-441.8 567.04,-429.22 509,-396 403.92,-335.85 363.14,-299.39 343,-180 340.34,-164.22 332.88,-156.39 343,-144 391.81,-84.26 437.85,-122 519.11,-107.93"/>
<polygon fill="#1414ce" stroke="#1414ce" points="520.06,-111.31 529.2,-105.95 518.71,-104.44 520.06,-111.31"/>
</a>
</g>
</g>
<!-- 20&#45;&gt;8 -->
<g id="edge62" class="edge">
<title>20&#45;&gt;8</title>
<g id="a_edge62"><a xlink:title="include">
<path fill="none" stroke="#1414ce" d="M692.08,-431.88C678.12,-422.69 662.16,-410.31 651,-396 620.37,-356.71 597.69,-332.02 621,-288 651.14,-231.09 720.09,-195.28 764.5,-177.23"/>
<polygon fill="#1414ce" stroke="#1414ce" points="765.84,-180.47 773.86,-173.54 763.27,-173.95 765.84,-180.47"/>
</a>
</g>
</g>
<!-- 20&#45;&gt;7 -->
<g id="edge52" class="edge">
<title>20&#45;&gt;7</title>
<g id="a_edge52"><a xlink:title="include">
<path fill="none" stroke="#1414ce" d="M754.75,-447.27C823.03,-443.01 977.45,-429.81 1016,-396 1059.65,-357.72 1109.5,-196.64 1085,-144 1079.57,-132.34 1070.18,-122.34 1060.28,-114.26"/>
<polygon fill="#1414ce" stroke="#1414ce" points="1062.38,-111.45 1052.3,-108.2 1058.15,-117.03 1062.38,-111.45"/>
</a>
</g>
</g>
<!-- 20&#45;&gt;3 -->
<g id="edge53" class="edge">
<title>20&#45;&gt;3</title>
<g id="a_edge53"><a xlink:title="include">
<path fill="none" stroke="#1414ce" d="M689.43,-447.94C606.86,-444.73 391.7,-432.95 332,-396 240.22,-339.2 230.63,-287.5 221,-180 219.57,-164.06 218.42,-159.79 221,-144 226.71,-109.05 240.86,-70.7 251.16,-45.82"/>
<polygon fill="#1414ce" stroke="#1414ce" points="254.49,-46.92 255.16,-36.34 248.05,-44.19 254.49,-46.92"/>
</a>
</g>
</g>
<!-- 20&#45;&gt;11 -->
<g id="edge54" class="edge">
<title>20&#45;&gt;11</title>
<g id="a_edge54"><a xlink:title="include">
<path fill="none" stroke="#1414ce" d="M754.93,-448.61C814.82,-446.84 944.58,-437.99 1044,-396 1143.25,-354.08 1190.46,-348.18 1239,-252 1260.83,-208.73 1244.7,-150.83 1231.8,-117.56"/>
<polygon fill="#1414ce" stroke="#1414ce" points="1234.95,-116.01 1227.94,-108.07 1228.46,-118.65 1234.95,-116.01"/>
</a>
</g>
</g>
<!-- 20&#45;&gt;5 -->
<g id="edge55" class="edge">
<title>20&#45;&gt;5</title>
<g id="a_edge55"><a xlink:title="include">
<path fill="none" stroke="#1414ce" d="M689.17,-440.15C666.48,-432.3 637.52,-418.51 621,-396 601.76,-369.78 610.9,-356.39 608,-324 606.57,-308.06 604.28,-303.56 608,-288 623.84,-221.8 665.77,-152.72 690.01,-116.56"/>
<polygon fill="#1414ce" stroke="#1414ce" points="693.04,-118.33 695.77,-108.1 687.25,-114.4 693.04,-118.33"/>
</a>
</g>
</g>
<!-- 20&#45;&gt;22 -->
<g id="edge56" class="edge">
<title>20&#45;&gt;22</title>
<g id="a_edge56"><a xlink:title="include">
<path fill="none" stroke="#1414ce" d="M754.78,-443.98C801.25,-436.11 882.61,-419.33 900,-396 913.02,-378.54 911.4,-353.34 907.32,-334.21"/>
<polygon fill="#1414ce" stroke="#1414ce" points="910.66,-333.16 904.87,-324.29 903.87,-334.84 910.66,-333.16"/>
</a>
</g>
</g>
<!-- 21 -->
<g id="node30" class="node">
<title>21</title>
<g id="a_node30"><a xlink:title="sys/types.h">
<polygon fill="#ffffff" stroke="black" points="891.5,-396 794.5,-396 794.5,-360 891.5,-360 891.5,-396"/>
<text text-anchor="middle" x="843" y="-374.3" font-family="Times,serif" font-size="14.00">sys/types.h</text>
</a>
</g>
</g>
<!-- 20&#45;&gt;21 -->
<g id="edge51" class="edge">
<title>20&#45;&gt;21</title>
<g id="a_edge51"><a xlink:title="include">
<path fill="none" stroke="#1414ce" d="M751.6,-431.88C767.57,-422.64 787.46,-411.13 804.61,-401.21"/>
<polygon fill="#1414ce" stroke="#1414ce" points="806.38,-404.23 813.29,-396.19 802.88,-398.17 806.38,-404.23"/>
</a>
</g>
</g>
<!-- 14 -->
<g id="node20" class="node">
<title>14</title>
<g id="a_node20"><a xlink:title="assert.h">
<polygon fill="#ffffff" stroke="black" points="657,-36 583,-36 583,0 657,0 657,-36"/>
<text text-anchor="middle" x="620" y="-14.3" font-family="Times,serif" font-size="14.00">assert.h</text>
</a>
</g>
</g>
<!-- 13&#45;&gt;14 -->
<g id="edge64" class="edge">
<title>13&#45;&gt;14</title>
<g id="a_edge64"><a xlink:title="include">
<path fill="none" stroke="#1414ce" d="M598.92,-71.7C602.07,-63.81 605.88,-54.3 609.38,-45.55"/>
<polygon fill="#1414ce" stroke="#1414ce" points="612.69,-46.69 613.16,-36.1 606.19,-44.09 612.69,-46.69"/>
</a>
</g>
</g>
<!-- 9 -->
<g id="node22" class="node">
<title>9</title>
<g id="a_node22"><a xlink:title="inttypes.h">
<polygon fill="#ffffff" stroke="black" points="820.5,-36 731.5,-36 731.5,0 820.5,0 820.5,-36"/>
<text text-anchor="middle" x="776" y="-14.3" font-family="Times,serif" font-size="14.00">inttypes.h</text>
</a>
</g>
</g>
<!-- 13&#45;&gt;9 -->
<g id="edge66" class="edge">
<title>13&#45;&gt;9</title>
<g id="a_edge66"><a xlink:title="include">
<path fill="none" stroke="#1414ce" d="M637.01,-71.88C662.6,-62.14 694.81,-49.89 721.78,-39.63"/>
<polygon fill="#1414ce" stroke="#1414ce" points="723.35,-42.77 731.45,-35.95 720.86,-36.23 723.35,-42.77"/>
</a>
</g>
</g>
<!-- 15 -->
<g id="node23" class="node">
<title>15</title>
<g id="a_node23"><a xlink:title="limits.h">
<polygon fill="#ffffff" stroke="black" points="564.5,-36 493.5,-36 493.5,0 564.5,0 564.5,-36"/>
<text text-anchor="middle" x="529" y="-14.3" font-family="Times,serif" font-size="14.00">limits.h</text>
</a>
</g>
</g>
<!-- 13&#45;&gt;15 -->
<g id="edge65" class="edge">
<title>13&#45;&gt;15</title>
<g id="a_edge65"><a xlink:title="include">
<path fill="none" stroke="#1414ce" d="M576.43,-71.7C568.8,-63.22 559.48,-52.86 551.12,-43.58"/>
<polygon fill="#1414ce" stroke="#1414ce" points="553.69,-41.2 544.39,-36.1 548.48,-45.88 553.69,-41.2"/>
</a>
</g>
</g>
<!-- 13&#45;&gt;3 -->
<g id="edge67" class="edge">
<title>13&#45;&gt;3</title>
<g id="a_edge67"><a xlink:title="include">
<path fill="none" stroke="#1414ce" d="M529.2,-74.06C526.09,-73.36 523.01,-72.67 520,-72 446.4,-55.72 360.57,-38.35 309.07,-28.09"/>
<polygon fill="#1414ce" stroke="#1414ce" points="309.74,-24.65 299.25,-26.14 308.37,-31.52 309.74,-24.65"/>
</a>
</g>
</g>
<!-- 28&#45;&gt;18 -->
<g id="edge70" class="edge">
<title>28&#45;&gt;18</title>
<g id="a_edge70"><a xlink:title="include">
<path fill="none" stroke="#1414ce" d="M1361.95,-224.65C1304.53,-214.72 1206.64,-197.29 1123,-180 1110.92,-177.5 1097.78,-174.56 1085.97,-171.83"/>
<polygon fill="#1414ce" stroke="#1414ce" points="1086.53,-168.37 1076,-169.5 1084.94,-175.18 1086.53,-168.37"/>
</a>
</g>
</g>
<!-- 28&#45;&gt;7 -->
<g id="edge68" class="edge">
<title>28&#45;&gt;7</title>
<g id="a_edge68"><a xlink:title="include">
<path fill="none" stroke="#1414ce" d="M1403.86,-215.75C1394.35,-195.09 1375.46,-161.14 1348,-144 1325.13,-129.72 1159.86,-107.81 1073.8,-97.19"/>
<polygon fill="#1414ce" stroke="#1414ce" points="1074.07,-93.7 1063.72,-95.96 1073.22,-100.65 1074.07,-93.7"/>
</a>
</g>
</g>
<!-- 28&#45;&gt;3 -->
<g id="edge69" class="edge">
<title>28&#45;&gt;3</title>
<g id="a_edge69"><a xlink:title="include">
<path fill="none" stroke="#1414ce" d="M1408.35,-215.93C1404.64,-196.67 1396.29,-165.28 1379,-144 1340.51,-96.61 1320.35,-89.98 1262,-72 1096.6,-21.03 656.75,-46.64 484,-36 423.6,-32.28 354.02,-26.72 309.32,-22.98"/>
<polygon fill="#1414ce" stroke="#1414ce" points="309.6,-19.49 299.35,-22.14 309.02,-26.46 309.6,-19.49"/>
</a>
</g>
</g>
<!-- 8&#45;&gt;9 -->
<g id="edge71" class="edge">
<title>8&#45;&gt;9</title>
<g id="a_edge71"><a xlink:title="include">
<path fill="none" stroke="#1414ce" d="M801.5,-143.87C796.54,-119.56 787.4,-74.82 781.52,-46.01"/>
<polygon fill="#1414ce" stroke="#1414ce" points="784.94,-45.29 779.51,-36.19 778.08,-46.69 784.94,-45.29"/>
</a>
</g>
</g>
<!-- 8&#45;&gt;7 -->
<g id="edge72" class="edge">
<title>8&#45;&gt;7</title>
<g id="a_edge72"><a xlink:title="include">
<path fill="none" stroke="#1414ce" d="M836.09,-150.97C871.13,-139.67 928.66,-121.11 970.45,-107.63"/>
<polygon fill="#1414ce" stroke="#1414ce" points="971.74,-110.89 980.18,-104.49 969.59,-104.23 971.74,-110.89"/>
</a>
</g>
</g>
<!-- 10 -->
<g id="node25" class="node">
<title>10</title>
<g id="a_node25"><a xlink:title="stddef.h">
<polygon fill="#ffffff" stroke="black" points="511,-108 437,-108 437,-72 511,-72 511,-108"/>
<text text-anchor="middle" x="474" y="-86.3" font-family="Times,serif" font-size="14.00">stddef.h</text>
</a>
</g>
</g>
<!-- 8&#45;&gt;10 -->
<g id="edge73" class="edge">
<title>8&#45;&gt;10</title>
<g id="a_edge73"><a xlink:title="include">
<path fill="none" stroke="#1414ce" d="M773.82,-156.97C722.68,-149.99 617.78,-134.08 520.88,-108"/>
<polygon fill="#1414ce" stroke="#1414ce" points="521.8,-104.62 511.23,-105.36 519.96,-111.38 521.8,-104.62"/>
</a>
</g>
</g>
<!-- 8&#45;&gt;11 -->
<g id="edge74" class="edge">
<title>8&#45;&gt;11</title>
<g id="a_edge74"><a xlink:title="include">
<path fill="none" stroke="#1414ce" d="M836.19,-155.74C909.66,-143.35 1093.68,-112.31 1177.37,-98.19"/>
<polygon fill="#1414ce" stroke="#1414ce" points="1178.02,-101.63 1187.3,-96.52 1176.86,-94.73 1178.02,-101.63"/>
</a>
</g>
</g>
<!-- 8&#45;&gt;5 -->
<g id="edge75" class="edge">
<title>8&#45;&gt;5</title>
<g id="a_edge75"><a xlink:title="include">
<path fill="none" stroke="#1414ce" d="M781.02,-143.7C768.69,-134.8 753.48,-123.82 740.15,-114.2"/>
<polygon fill="#1414ce" stroke="#1414ce" points="741.86,-111.12 731.7,-108.1 737.76,-116.79 741.86,-111.12"/>
</a>
</g>
</g>
<!-- 29&#45;&gt;10 -->
<g id="edge76" class="edge">
<title>29&#45;&gt;10</title>
<g id="a_edge76"><a xlink:title="include">
<path fill="none" stroke="#1414ce" d="M174.25,-147.25C249.01,-133.22 362.85,-111.86 426.56,-99.9"/>
<polygon fill="#1414ce" stroke="#1414ce" points="427.54,-103.28 436.72,-98 426.25,-96.4 427.54,-103.28"/>
</a>
</g>
</g>
<!-- 29&#45;&gt;3 -->
<g id="edge77" class="edge">
<title>29&#45;&gt;3</title>
<g id="a_edge77"><a xlink:title="include">
<path fill="none" stroke="#1414ce" d="M116.18,-143.69C132.91,-125.05 161.03,-94.99 188,-72 200.42,-61.41 214.9,-50.81 227.81,-41.91"/>
<polygon fill="#1414ce" stroke="#1414ce" points="230.15,-44.55 236.45,-36.04 226.21,-38.77 230.15,-44.55"/>
</a>
</g>
</g>
</g>
</svg>
