<?xml version="1.0" encoding="UTF-8" standalone="no"?>
<!DOCTYPE svg PUBLIC "-//W3C//DTD SVG 1.1//EN"
 "http://www.w3.org/Graphics/SVG/1.1/DTD/svg11.dtd">
<!-- Generated by graphviz version 2.43.0 (0)
 -->
<!-- Title: %3 Pages: 1 -->
<svg width="1343pt" height="404pt"
 viewBox="0.00 0.00 1343.00 404.00" xmlns="http://www.w3.org/2000/svg" xmlns:xlink="http://www.w3.org/1999/xlink">
<g id="graph0" class="graph" transform="scale(1 1) rotate(0) translate(4 400)">
<title>%3</title>
<polygon fill="transparent" stroke="transparent" points="-4,4 -4,-400 1339,-400 1339,4 -4,4"/>
<!-- 12 -->
<g id="node1" class="node">
<title>12</title>
<g id="a_node1"><a xlink:title="AtomTable">
<polygon fill="#ffffff" stroke="black" points="295,-324 203,-324 203,-288 295,-288 295,-324"/>
<text text-anchor="middle" x="249" y="-302.3" font-family="Times,serif" font-size="14.00">AtomTable</text>
</a>
</g>
</g>
<!-- 13 -->
<g id="node7" class="node">
<title>13</title>
<g id="a_node7"><a xlink:title="HNode">
<polygon fill="#ffffff" stroke="black" points="199,-180 133,-180 133,-144 199,-144 199,-180"/>
<text text-anchor="middle" x="166" y="-158.3" font-family="Times,serif" font-size="14.00">HNode</text>
</a>
</g>
</g>
<!-- 12&#45;&gt;13 -->
<g id="edge1" class="edge">
<title>12&#45;&gt;13</title>
<g id="a_edge1"><a xlink:title="usage">
<path fill="none" stroke="#1414ce" d="M220.62,-287.86C207.87,-278.75 193.75,-266.44 185,-252 173.71,-233.36 169.07,-208.97 167.19,-190.44"/>
<polygon fill="#1414ce" stroke="#1414ce" points="170.66,-189.98 166.37,-180.29 163.69,-190.54 170.66,-189.98"/>
</a>
</g>
</g>
<!-- 14 -->
<g id="node8" class="node">
<title>14</title>
<g id="a_node8"><a xlink:title="HNodeGroup">
<polygon fill="#ffffff" stroke="black" points="304,-252 194,-252 194,-216 304,-216 304,-252"/>
<text text-anchor="middle" x="249" y="-230.3" font-family="Times,serif" font-size="14.00">HNodeGroup</text>
</a>
</g>
</g>
<!-- 12&#45;&gt;14 -->
<g id="edge2" class="edge">
<title>12&#45;&gt;14</title>
<g id="a_edge2"><a xlink:title="usage">
<path fill="none" stroke="#1414ce" d="M249,-287.7C249,-279.98 249,-270.71 249,-262.11"/>
<polygon fill="#1414ce" stroke="#1414ce" points="252.5,-262.1 249,-252.1 245.5,-262.1 252.5,-262.1"/>
</a>
</g>
</g>
<!-- 17 -->
<g id="node2" class="node">
<title>17</title>
<g id="a_node2"><a xlink:title="Context">
<polygon fill="#ffffff" stroke="black" points="1119.5,-252 1046.5,-252 1046.5,-216 1119.5,-216 1119.5,-252"/>
<text text-anchor="middle" x="1083" y="-230.3" font-family="Times,serif" font-size="14.00">Context</text>
</a>
</g>
</g>
<!-- 17&#45;&gt;17 -->
<g id="edge8" class="edge">
<title>17&#45;&gt;17</title>
<g id="a_edge8"><a xlink:title="usage">
<path fill="none" stroke="#1414ce" d="M1119.68,-247.42C1129.78,-246.77 1137.5,-242.3 1137.5,-234 1137.5,-228.81 1134.48,-225.12 1129.76,-222.93"/>
<polygon fill="#1414ce" stroke="#1414ce" points="1130.21,-219.44 1119.68,-220.58 1128.63,-226.26 1130.21,-219.44"/>
</a>
</g>
</g>
<!-- 4 -->
<g id="node6" class="node">
<title>4</title>
<g id="a_node6"><a xlink:title="GlobalContext">
<polygon fill="#ffffff" stroke="black" points="753.5,-396 634.5,-396 634.5,-360 753.5,-360 753.5,-396"/>
<text text-anchor="middle" x="694" y="-374.3" font-family="Times,serif" font-size="14.00">GlobalContext</text>
</a>
</g>
</g>
<!-- 17&#45;&gt;4 -->
<g id="edge3" class="edge">
<title>17&#45;&gt;4</title>
<g id="a_edge3"><a xlink:title="usage">
<path fill="none" stroke="#1414ce" d="M1058.47,-252.23C1044.53,-262.28 1026.94,-275.42 1012,-288 994.2,-302.98 994.71,-313.41 974,-324 907.83,-357.84 822.89,-370.22 764.01,-374.66"/>
<polygon fill="#1414ce" stroke="#1414ce" points="763.42,-371.2 753.69,-375.38 763.91,-378.18 763.42,-371.2"/>
</a>
</g>
</g>
<!-- 18 -->
<g id="node9" class="node">
<title>18</title>
<g id="a_node9"><a xlink:title="Heap">
<polygon fill="#ffffff" stroke="black" points="891,-180 837,-180 837,-144 891,-144 891,-180"/>
<text text-anchor="middle" x="864" y="-158.3" font-family="Times,serif" font-size="14.00">Heap</text>
</a>
</g>
</g>
<!-- 17&#45;&gt;18 -->
<g id="edge4" class="edge">
<title>17&#45;&gt;18</title>
<g id="a_edge4"><a xlink:title="usage">
<path fill="none" stroke="#1414ce" d="M1046.41,-219.26C1043.23,-218.14 1040.07,-217.04 1037,-216 990.41,-200.27 936.11,-183.96 900.95,-173.66"/>
<polygon fill="#1414ce" stroke="#1414ce" points="901.7,-170.23 891.12,-170.79 899.74,-176.95 901.7,-170.23"/>
</a>
</g>
</g>
<!-- 3 -->
<g id="node11" class="node">
<title>3</title>
<g id="a_node11"><a xlink:title="ListHead">
<polygon fill="#ffffff" stroke="black" points="685.5,-36 604.5,-36 604.5,0 685.5,0 685.5,-36"/>
<text text-anchor="middle" x="645" y="-14.3" font-family="Times,serif" font-size="14.00">ListHead</text>
</a>
</g>
</g>
<!-- 17&#45;&gt;3 -->
<g id="edge5" class="edge">
<title>17&#45;&gt;3</title>
<g id="a_edge5"><a xlink:title="usage">
<path fill="none" stroke="#1414ce" d="M1070.01,-215.76C1062.59,-205.6 1053.34,-192.35 1046,-180 1018.57,-133.88 1035.38,-103.59 992,-72 945.71,-38.3 780.41,-25.52 695.76,-21.1"/>
<polygon fill="#1414ce" stroke="#1414ce" points="695.76,-17.6 685.6,-20.59 695.41,-24.59 695.76,-17.6"/>
</a>
</g>
</g>
<!-- 21 -->
<g id="node13" class="node">
<title>21</title>
<g id="a_node13"><a xlink:title="Mailbox">
<polygon fill="#ffffff" stroke="black" points="1129,-180 1055,-180 1055,-144 1129,-144 1129,-180"/>
<text text-anchor="middle" x="1092" y="-158.3" font-family="Times,serif" font-size="14.00">Mailbox</text>
</a>
</g>
</g>
<!-- 17&#45;&gt;21 -->
<g id="edge9" class="edge">
<title>17&#45;&gt;21</title>
<g id="a_edge9"><a xlink:title="usage">
<path fill="none" stroke="#1414ce" d="M1085.22,-215.7C1086.22,-207.98 1087.41,-198.71 1088.51,-190.11"/>
<polygon fill="#1414ce" stroke="#1414ce" points="1092,-190.47 1089.8,-180.1 1085.05,-189.58 1092,-190.47"/>
</a>
</g>
</g>
<!-- 16 -->
<g id="node16" class="node">
<title>16</title>
<g id="a_node16"><a xlink:title="Module">
<polygon fill="#ffffff" stroke="black" points="965,-324 895,-324 895,-288 965,-288 965,-324"/>
<text text-anchor="middle" x="930" y="-302.3" font-family="Times,serif" font-size="14.00">Module</text>
</a>
</g>
</g>
<!-- 17&#45;&gt;16 -->
<g id="edge7" class="edge">
<title>17&#45;&gt;16</title>
<g id="a_edge7"><a xlink:title="usage">
<path fill="none" stroke="#1414ce" d="M1051.52,-252.1C1029.26,-262.8 999.21,-276.55 974.52,-287.35"/>
<polygon fill="#1414ce" stroke="#1414ce" points="973.12,-284.14 965.34,-291.34 975.91,-290.57 973.12,-284.14"/>
</a>
</g>
</g>
<!-- 20 -->
<g id="node23" class="node">
<title>20</title>
<g id="a_node23"><a xlink:title="TimerListItem">
<polygon fill="#ffffff" stroke="black" points="982.5,-108 863.5,-108 863.5,-72 982.5,-72 982.5,-108"/>
<text text-anchor="middle" x="923" y="-86.3" font-family="Times,serif" font-size="14.00">TimerListItem</text>
</a>
</g>
</g>
<!-- 17&#45;&gt;20 -->
<g id="edge6" class="edge">
<title>17&#45;&gt;20</title>
<g id="a_edge6"><a xlink:title="usage">
<path fill="none" stroke="#1414ce" d="M1049.85,-215.93C1033.12,-206.51 1013.03,-193.91 997,-180 975.15,-161.04 954.48,-135.26 940.56,-116.33"/>
<polygon fill="#1414ce" stroke="#1414ce" points="943.36,-114.22 934.67,-108.16 937.68,-118.32 943.36,-114.22"/>
</a>
</g>
</g>
<!-- 1 -->
<g id="node3" class="node">
<title>1</title>
<g id="a_node3"><a xlink:title="ErlNifMonitor">
<polygon fill="#bfbfbf" stroke="black" points="665.5,-252 548.5,-252 548.5,-216 665.5,-216 665.5,-252"/>
<text text-anchor="middle" x="607" y="-230.3" font-family="Times,serif" font-size="14.00">ErlNifMonitor</text>
</a>
</g>
</g>
<!-- 2 -->
<g id="node19" class="node">
<title>2</title>
<g id="a_node19"><a xlink:title="ResourceType">
<polygon fill="#ffffff" stroke="black" points="613.5,-180 496.5,-180 496.5,-144 613.5,-144 613.5,-180"/>
<text text-anchor="middle" x="555" y="-158.3" font-family="Times,serif" font-size="14.00">ResourceType</text>
</a>
</g>
</g>
<!-- 1&#45;&gt;2 -->
<g id="edge10" class="edge">
<title>1&#45;&gt;2</title>
<g id="a_edge10"><a xlink:title="usage">
<path fill="none" stroke="#1414ce" d="M594.15,-215.7C587.97,-207.39 580.46,-197.28 573.68,-188.14"/>
<polygon fill="#1414ce" stroke="#1414ce" points="576.48,-186.04 567.71,-180.1 570.86,-190.22 576.48,-186.04"/>
</a>
</g>
</g>
<!-- 11 -->
<g id="node4" class="node">
<title>11</title>
<g id="a_node4"><a xlink:title="Ets">
<polygon fill="#ffffff" stroke="black" points="776,-180 722,-180 722,-144 776,-144 776,-180"/>
<text text-anchor="middle" x="749" y="-158.3" font-family="Times,serif" font-size="14.00">Ets</text>
</a>
</g>
</g>
<!-- 10 -->
<g id="node21" class="node">
<title>10</title>
<g id="a_node21"><a xlink:title="SyncList">
<polygon fill="#ffffff" stroke="black" points="684,-108 606,-108 606,-72 684,-72 684,-108"/>
<text text-anchor="middle" x="645" y="-86.3" font-family="Times,serif" font-size="14.00">SyncList</text>
</a>
</g>
</g>
<!-- 11&#45;&gt;10 -->
<g id="edge11" class="edge">
<title>11&#45;&gt;10</title>
<g id="a_edge11"><a xlink:title="usage">
<path fill="none" stroke="#1414ce" d="M723.56,-143.88C710.21,-134.89 693.68,-123.76 679.22,-114.03"/>
<polygon fill="#1414ce" stroke="#1414ce" points="680.79,-110.87 670.54,-108.19 676.88,-116.68 680.79,-110.87"/>
</a>
</g>
</g>
<!-- 22 -->
<g id="node5" class="node">
<title>22</title>
<g id="a_node5"><a xlink:title="ExportedFunction">
<polygon fill="#ffffff" stroke="black" points="906,-252 760,-252 760,-216 906,-216 906,-252"/>
<text text-anchor="middle" x="833" y="-230.3" font-family="Times,serif" font-size="14.00">ExportedFunction</text>
</a>
</g>
</g>
<!-- 4&#45;&gt;12 -->
<g id="edge18" class="edge">
<title>4&#45;&gt;12</title>
<g id="a_edge18"><a xlink:title="usage">
<path fill="none" stroke="#1414ce" d="M634.32,-369.02C563.15,-359.31 440.65,-341.96 336,-324 326.1,-322.3 315.6,-320.36 305.44,-318.42"/>
<polygon fill="#1414ce" stroke="#1414ce" points="305.92,-314.95 295.43,-316.48 304.59,-321.82 305.92,-314.95"/>
</a>
</g>
</g>
<!-- 4&#45;&gt;11 -->
<g id="edge17" class="edge">
<title>4&#45;&gt;11</title>
<g id="a_edge17"><a xlink:title="usage">
<path fill="none" stroke="#1414ce" d="M698.58,-359.82C701.33,-349.46 704.89,-335.98 708,-324 720.17,-277.09 734.02,-222.41 742.11,-190.36"/>
<polygon fill="#1414ce" stroke="#1414ce" points="745.57,-190.96 744.62,-180.4 738.78,-189.25 745.57,-190.96"/>
</a>
</g>
</g>
<!-- 4&#45;&gt;3 -->
<g id="edge12" class="edge">
<title>4&#45;&gt;3</title>
<g id="a_edge12"><a xlink:title="usage">
<path fill="none" stroke="#1414ce" d="M634.23,-375.11C550.99,-371.21 406.15,-359.39 369,-324 339.71,-296.1 350,-275.45 350,-235 350,-235 350,-235 350,-161 350,-53.92 509.76,-27.54 594.14,-21.08"/>
<polygon fill="#1414ce" stroke="#1414ce" points="594.56,-24.55 604.29,-20.37 594.07,-17.57 594.56,-24.55"/>
</a>
</g>
</g>
<!-- 6 -->
<g id="node15" class="node">
<title>6</title>
<g id="a_node15"><a xlink:title="MessageQueueItem">
<polygon fill="#ffffff" stroke="black" points="1179,-324 1021,-324 1021,-288 1179,-288 1179,-324"/>
<text text-anchor="middle" x="1100" y="-302.3" font-family="Times,serif" font-size="14.00">MessageQueueItem</text>
</a>
</g>
</g>
<!-- 4&#45;&gt;6 -->
<g id="edge14" class="edge">
<title>4&#45;&gt;6</title>
<g id="a_edge14"><a xlink:title="usage">
<path fill="none" stroke="#1414ce" d="M753.75,-367.12C816.77,-356.65 918.93,-339.5 1007,-324 1008.27,-323.78 1009.56,-323.55 1010.85,-323.32"/>
<polygon fill="#1414ce" stroke="#1414ce" points="1011.63,-326.74 1020.86,-321.54 1010.41,-319.84 1011.63,-326.74"/>
</a>
</g>
</g>
<!-- 4&#45;&gt;16 -->
<g id="edge20" class="edge">
<title>4&#45;&gt;16</title>
<g id="a_edge20"><a xlink:title="usage">
<path fill="none" stroke="#1414ce" d="M751.43,-359.97C792.51,-347.78 847.03,-331.61 884.97,-320.36"/>
<polygon fill="#1414ce" stroke="#1414ce" points="886.14,-323.66 894.73,-317.46 884.15,-316.95 886.14,-323.66"/>
</a>
</g>
</g>
<!-- 8 -->
<g id="node18" class="node">
<title>8</title>
<g id="a_node18"><a xlink:title="RefcBinaryQueueItem">
<polygon fill="#ffffff" stroke="black" points="552,-324 378,-324 378,-288 552,-288 552,-324"/>
<text text-anchor="middle" x="465" y="-302.3" font-family="Times,serif" font-size="14.00">RefcBinaryQueueItem</text>
</a>
</g>
</g>
<!-- 4&#45;&gt;8 -->
<g id="edge15" class="edge">
<title>4&#45;&gt;8</title>
<g id="a_edge15"><a xlink:title="usage">
<path fill="none" stroke="#1414ce" d="M638.27,-359.97C605.86,-350.06 564.82,-337.51 530.82,-327.12"/>
<polygon fill="#1414ce" stroke="#1414ce" points="531.56,-323.69 520.98,-324.11 529.52,-330.38 531.56,-323.69"/>
</a>
</g>
</g>
<!-- 4&#45;&gt;2 -->
<g id="edge22" class="edge">
<title>4&#45;&gt;2</title>
<g id="a_edge22"><a xlink:title="usage">
<path fill="none" stroke="#1414ce" d="M666.68,-359.89C620.77,-327.45 533.62,-259.56 530,-252 520.54,-232.22 526.16,-207.53 534.69,-189.18"/>
<polygon fill="#1414ce" stroke="#1414ce" points="537.84,-190.71 539.35,-180.22 531.63,-187.48 537.84,-190.71"/>
</a>
</g>
</g>
<!-- 5 -->
<g id="node20" class="node">
<title>5</title>
<g id="a_node20"><a xlink:title="SpinLock">
<polygon fill="#ffffff" stroke="black" points="1335,-324 1253,-324 1253,-288 1335,-288 1335,-324"/>
<text text-anchor="middle" x="1294" y="-302.3" font-family="Times,serif" font-size="14.00">SpinLock</text>
</a>
</g>
</g>
<!-- 4&#45;&gt;5 -->
<g id="edge13" class="edge">
<title>4&#45;&gt;5</title>
<g id="a_edge13"><a xlink:title="usage">
<path fill="none" stroke="#1414ce" d="M753.86,-375.14C854.81,-371.13 1064.95,-358.98 1239,-324 1240.27,-323.75 1241.55,-323.47 1242.84,-323.19"/>
<polygon fill="#1414ce" stroke="#1414ce" points="1243.92,-326.52 1252.79,-320.72 1242.24,-319.73 1243.92,-326.52"/>
</a>
</g>
</g>
<!-- 4&#45;&gt;10 -->
<g id="edge16" class="edge">
<title>4&#45;&gt;10</title>
<g id="a_edge16"><a xlink:title="usage">
<path fill="none" stroke="#1414ce" d="M692.48,-359.99C689.71,-330.53 683.26,-268.14 674,-216 667.97,-182.03 658.62,-143.41 652.18,-118.2"/>
<polygon fill="#1414ce" stroke="#1414ce" points="655.5,-117.08 649.61,-108.27 648.72,-118.83 655.5,-117.08"/>
</a>
</g>
</g>
<!-- 24 -->
<g id="node22" class="node">
<title>24</title>
<g id="a_node22"><a xlink:title="TimerList">
<polygon fill="#ffffff" stroke="black" points="1299,-108 1213,-108 1213,-72 1299,-72 1299,-108"/>
<text text-anchor="middle" x="1256" y="-86.3" font-family="Times,serif" font-size="14.00">TimerList</text>
</a>
</g>
</g>
<!-- 4&#45;&gt;24 -->
<g id="edge21" class="edge">
<title>4&#45;&gt;24</title>
<g id="a_edge21"><a xlink:title="usage">
<path fill="none" stroke="#1414ce" d="M753.92,-374.7C881.88,-369.25 1172.91,-353.69 1206,-324 1264.69,-271.34 1263.71,-167.95 1259.37,-118.55"/>
<polygon fill="#1414ce" stroke="#1414ce" points="1262.83,-117.92 1258.35,-108.31 1255.86,-118.61 1262.83,-117.92"/>
</a>
</g>
</g>
<!-- 15 -->
<g id="node24" class="node">
<title>15</title>
<g id="a_node24"><a xlink:title="ValuesHashTable">
<polygon fill="#ffffff" stroke="black" points="138,-252 0,-252 0,-216 138,-216 138,-252"/>
<text text-anchor="middle" x="69" y="-230.3" font-family="Times,serif" font-size="14.00">ValuesHashTable</text>
</a>
</g>
</g>
<!-- 4&#45;&gt;15 -->
<g id="edge19" class="edge">
<title>4&#45;&gt;15</title>
<g id="a_edge19"><a xlink:title="usage">
<path fill="none" stroke="#1414ce" d="M634.16,-374.46C519.49,-368.97 273.18,-354 194,-324 155.5,-309.41 117.94,-280.01 94.2,-258.99"/>
<polygon fill="#1414ce" stroke="#1414ce" points="96.47,-256.32 86.7,-252.21 91.78,-261.51 96.47,-256.32"/>
</a>
</g>
</g>
<!-- 13&#45;&gt;13 -->
<g id="edge23" class="edge">
<title>13&#45;&gt;13</title>
<g id="a_edge23"><a xlink:title="usage">
<path fill="none" stroke="#1414ce" d="M199.35,-175.47C209.28,-175.07 217,-170.58 217,-162 217,-156.64 213.98,-152.87 209.3,-150.71"/>
<polygon fill="#1414ce" stroke="#1414ce" points="209.87,-147.25 199.35,-148.53 208.37,-154.09 209.87,-147.25"/>
</a>
</g>
</g>
<!-- 14&#45;&gt;13 -->
<g id="edge25" class="edge">
<title>14&#45;&gt;13</title>
<g id="a_edge25"><a xlink:title="usage">
<path fill="none" stroke="#1414ce" d="M228.48,-215.7C218.13,-206.97 205.41,-196.24 194.16,-186.75"/>
<polygon fill="#1414ce" stroke="#1414ce" points="196.18,-183.88 186.28,-180.1 191.67,-189.23 196.18,-183.88"/>
</a>
</g>
</g>
<!-- 14&#45;&gt;14 -->
<g id="edge24" class="edge">
<title>14&#45;&gt;14</title>
<g id="a_edge24"><a xlink:title="usage">
<path fill="none" stroke="#1414ce" d="M304.07,-246.85C314.57,-245.32 322,-241.03 322,-234 322,-229.5 318.95,-226.12 314,-223.87"/>
<polygon fill="#1414ce" stroke="#1414ce" points="314.64,-220.42 304.07,-221.15 312.79,-227.17 314.64,-220.42"/>
</a>
</g>
</g>
<!-- 19 -->
<g id="node10" class="node">
<title>19</title>
<g id="a_node10"><a xlink:title="HeapFragment">
<polygon fill="#ffffff" stroke="black" points="827.5,-108 702.5,-108 702.5,-72 827.5,-72 827.5,-108"/>
<text text-anchor="middle" x="765" y="-86.3" font-family="Times,serif" font-size="14.00">HeapFragment</text>
</a>
</g>
</g>
<!-- 18&#45;&gt;19 -->
<g id="edge26" class="edge">
<title>18&#45;&gt;19</title>
<g id="a_edge26"><a xlink:title="usage">
<path fill="none" stroke="#1414ce" d="M839.78,-143.88C827.08,-134.89 811.34,-123.76 797.58,-114.03"/>
<polygon fill="#1414ce" stroke="#1414ce" points="799.5,-111.11 789.31,-108.19 795.46,-116.82 799.5,-111.11"/>
</a>
</g>
</g>
<!-- 19&#45;&gt;19 -->
<g id="edge27" class="edge">
<title>19&#45;&gt;19</title>
<g id="a_edge27"><a xlink:title="usage">
<path fill="none" stroke="#1414ce" d="M827.78,-102.55C838.26,-100.79 845.5,-96.61 845.5,-90 845.5,-85.77 842.53,-82.53 837.64,-80.29"/>
<polygon fill="#1414ce" stroke="#1414ce" points="838.36,-76.85 827.78,-77.45 836.42,-83.58 838.36,-76.85"/>
</a>
</g>
</g>
<!-- 3&#45;&gt;3 -->
<g id="edge28" class="edge">
<title>3&#45;&gt;3</title>
<g id="a_edge28"><a xlink:title="usage">
<path fill="none" stroke="#1414ce" d="M685.73,-31.31C695.9,-30.38 703.5,-25.95 703.5,-18 703.5,-12.91 700.38,-9.26 695.47,-7.05"/>
<polygon fill="#1414ce" stroke="#1414ce" points="696.28,-3.64 685.73,-4.69 694.63,-10.45 696.28,-3.64"/>
</a>
</g>
</g>
<!-- 23 -->
<g id="node12" class="node">
<title>23</title>
<g id="a_node12"><a xlink:title="LiteralEntry">
<polygon fill="#ffffff" stroke="black" points="1028,-252 924,-252 924,-216 1028,-216 1028,-252"/>
<text text-anchor="middle" x="976" y="-230.3" font-family="Times,serif" font-size="14.00">LiteralEntry</text>
</a>
</g>
</g>
<!-- 7 -->
<g id="node14" class="node">
<title>7</title>
<g id="a_node14"><a xlink:title="MailboxMessage">
<polygon fill="#ffffff" stroke="black" points="1176.5,-108 1039.5,-108 1039.5,-72 1176.5,-72 1176.5,-108"/>
<text text-anchor="middle" x="1108" y="-86.3" font-family="Times,serif" font-size="14.00">MailboxMessage</text>
</a>
</g>
</g>
<!-- 21&#45;&gt;7 -->
<g id="edge29" class="edge">
<title>21&#45;&gt;7</title>
<g id="a_edge29"><a xlink:title="usage">
<path fill="none" stroke="#1414ce" d="M1095.96,-143.7C1097.72,-135.98 1099.84,-126.71 1101.8,-118.11"/>
<polygon fill="#1414ce" stroke="#1414ce" points="1105.27,-118.63 1104.09,-108.1 1098.45,-117.07 1105.27,-118.63"/>
</a>
</g>
</g>
<!-- 7&#45;&gt;7 -->
<g id="edge30" class="edge">
<title>7&#45;&gt;7</title>
<g id="a_edge30"><a xlink:title="usage">
<path fill="none" stroke="#1414ce" d="M1176.53,-102.37C1187.21,-100.52 1194.5,-96.4 1194.5,-90 1194.5,-85.8 1191.36,-82.58 1186.18,-80.34"/>
<polygon fill="#1414ce" stroke="#1414ce" points="1187.1,-76.96 1176.53,-77.63 1185.21,-83.7 1187.1,-76.96"/>
</a>
</g>
</g>
<!-- 6&#45;&gt;7 -->
<g id="edge32" class="edge">
<title>6&#45;&gt;7</title>
<g id="a_edge32"><a xlink:title="usage">
<path fill="none" stroke="#1414ce" d="M1121.27,-287.7C1131.11,-278.31 1141.76,-265.8 1147,-252 1155.08,-230.71 1140.3,-150.96 1138,-144 1134.96,-134.81 1130.25,-125.42 1125.47,-117.14"/>
<polygon fill="#1414ce" stroke="#1414ce" points="1128.3,-115.06 1120.11,-108.34 1122.32,-118.7 1128.3,-115.06"/>
</a>
</g>
</g>
<!-- 6&#45;&gt;6 -->
<g id="edge31" class="edge">
<title>6&#45;&gt;6</title>
<g id="a_edge31"><a xlink:title="usage">
<path fill="none" stroke="#1414ce" d="M1179.16,-317.98C1189.87,-315.97 1197,-311.98 1197,-306 1197,-302.08 1193.93,-299.01 1188.79,-296.8"/>
<polygon fill="#1414ce" stroke="#1414ce" points="1189.74,-293.43 1179.16,-294.02 1187.8,-300.15 1189.74,-293.43"/>
</a>
</g>
</g>
<!-- 16&#45;&gt;17 -->
<g id="edge33" class="edge">
<title>16&#45;&gt;17</title>
<g id="a_edge33"><a xlink:title="usage">
<path fill="none" stroke="#1414ce" d="M961.53,-287.88C983.32,-277.41 1012.54,-264.02 1036.91,-253.34"/>
<polygon fill="#1414ce" stroke="#1414ce" points="1038.55,-256.44 1046.32,-249.24 1035.76,-250.02 1038.55,-256.44"/>
</a>
</g>
</g>
<!-- 16&#45;&gt;22 -->
<g id="edge34" class="edge">
<title>16&#45;&gt;22</title>
<g id="a_edge34"><a xlink:title="usage">
<path fill="none" stroke="#1414ce" d="M906.02,-287.7C893.69,-278.8 878.48,-267.82 865.15,-258.2"/>
<polygon fill="#1414ce" stroke="#1414ce" points="866.86,-255.12 856.7,-252.1 862.76,-260.79 866.86,-255.12"/>
</a>
</g>
</g>
<!-- 16&#45;&gt;23 -->
<g id="edge35" class="edge">
<title>16&#45;&gt;23</title>
<g id="a_edge35"><a xlink:title="usage">
<path fill="none" stroke="#1414ce" d="M941.37,-287.7C946.72,-279.56 953.2,-269.69 959.11,-260.7"/>
<polygon fill="#1414ce" stroke="#1414ce" points="962.19,-262.38 964.76,-252.1 956.34,-258.54 962.19,-262.38"/>
</a>
</g>
</g>
<!-- 9 -->
<g id="node17" class="node">
<title>9</title>
<g id="a_node17"><a xlink:title="RefcBinary">
<polygon fill="#ffffff" stroke="black" points="473.5,-252 378.5,-252 378.5,-216 473.5,-216 473.5,-252"/>
<text text-anchor="middle" x="426" y="-230.3" font-family="Times,serif" font-size="14.00">RefcBinary</text>
</a>
</g>
</g>
<!-- 9&#45;&gt;3 -->
<g id="edge36" class="edge">
<title>9&#45;&gt;3</title>
<g id="a_edge36"><a xlink:title="usage">
<path fill="none" stroke="#1414ce" d="M435.74,-215.91C446.84,-197.2 466.16,-166.82 487,-144 520.85,-106.94 534.54,-103.02 574,-72 586.67,-62.04 600.87,-51.35 613.22,-42.2"/>
<polygon fill="#1414ce" stroke="#1414ce" points="615.47,-44.89 621.43,-36.13 611.31,-39.26 615.47,-44.89"/>
</a>
</g>
</g>
<!-- 9&#45;&gt;2 -->
<g id="edge37" class="edge">
<title>9&#45;&gt;2</title>
<g id="a_edge37"><a xlink:title="usage">
<path fill="none" stroke="#1414ce" d="M457.56,-215.88C474.66,-206.6 495.98,-195.03 514.32,-185.08"/>
<polygon fill="#1414ce" stroke="#1414ce" points="516.2,-188.04 523.32,-180.19 512.86,-181.88 516.2,-188.04"/>
</a>
</g>
</g>
<!-- 8&#45;&gt;9 -->
<g id="edge39" class="edge">
<title>8&#45;&gt;9</title>
<g id="a_edge39"><a xlink:title="usage">
<path fill="none" stroke="#1414ce" d="M455.36,-287.7C450.87,-279.64 445.44,-269.89 440.48,-260.98"/>
<polygon fill="#1414ce" stroke="#1414ce" points="443.45,-259.14 435.53,-252.1 437.34,-262.54 443.45,-259.14"/>
</a>
</g>
</g>
<!-- 8&#45;&gt;8 -->
<g id="edge38" class="edge">
<title>8&#45;&gt;8</title>
<g id="a_edge38"><a xlink:title="usage">
<path fill="none" stroke="#1414ce" d="M552.3,-317.68C562.99,-315.59 570,-311.7 570,-306 570,-302.35 567.12,-299.44 562.25,-297.27"/>
<polygon fill="#1414ce" stroke="#1414ce" points="562.88,-293.81 552.3,-294.32 560.89,-300.52 562.88,-293.81"/>
</a>
</g>
</g>
<!-- 2&#45;&gt;4 -->
<g id="edge41" class="edge">
<title>2&#45;&gt;4</title>
<g id="a_edge41"><a xlink:title="usage">
<path fill="none" stroke="#1414ce" d="M552.62,-180.22C546.58,-198.78 536.89,-228.77 548,-252 551.39,-259.09 628.2,-319.2 669.17,-353.41"/>
<polygon fill="#1414ce" stroke="#1414ce" points="666.95,-356.12 676.85,-359.89 671.46,-350.77 666.95,-356.12"/>
</a>
</g>
</g>
<!-- 2&#45;&gt;3 -->
<g id="edge40" class="edge">
<title>2&#45;&gt;3</title>
<g id="a_edge40"><a xlink:title="usage">
<path fill="none" stroke="#1414ce" d="M561.35,-143.81C568.58,-125.28 581.45,-95.31 597,-72 603.65,-62.04 612.1,-52.06 620.06,-43.49"/>
<polygon fill="#1414ce" stroke="#1414ce" points="622.78,-45.7 627.15,-36.06 617.72,-40.87 622.78,-45.7"/>
</a>
</g>
</g>
<!-- 2&#45;&gt;10 -->
<g id="edge42" class="edge">
<title>2&#45;&gt;10</title>
<g id="a_edge42"><a xlink:title="usage">
<path fill="none" stroke="#1414ce" d="M577.25,-143.7C588.58,-134.88 602.53,-124.03 614.82,-114.47"/>
<polygon fill="#1414ce" stroke="#1414ce" points="617.26,-117.01 623.01,-108.1 612.97,-111.48 617.26,-117.01"/>
</a>
</g>
</g>
<!-- 10&#45;&gt;3 -->
<g id="edge43" class="edge">
<title>10&#45;&gt;3</title>
<g id="a_edge43"><a xlink:title="usage">
<path fill="none" stroke="#1414ce" d="M645,-71.7C645,-63.98 645,-54.71 645,-46.11"/>
<polygon fill="#1414ce" stroke="#1414ce" points="648.5,-46.1 645,-36.1 641.5,-46.1 648.5,-46.1"/>
</a>
</g>
</g>
<!-- 24&#45;&gt;3 -->
<g id="edge44" class="edge">
<title>24&#45;&gt;3</title>
<g id="a_edge44"><a xlink:title="usage">
<path fill="none" stroke="#1414ce" d="M1212.78,-74.08C1209.83,-73.3 1206.88,-72.6 1204,-72 1019.42,-33.57 794.68,-22.96 695.81,-20.06"/>
<polygon fill="#1414ce" stroke="#1414ce" points="695.89,-16.57 685.79,-19.79 695.69,-23.56 695.89,-16.57"/>
</a>
</g>
</g>
<!-- 20&#45;&gt;3 -->
<g id="edge45" class="edge">
<title>20&#45;&gt;3</title>
<g id="a_edge45"><a xlink:title="usage">
<path fill="none" stroke="#1414ce" d="M863.36,-73.98C813.32,-61.38 742.63,-43.58 695.38,-31.68"/>
<polygon fill="#1414ce" stroke="#1414ce" points="696.22,-28.29 685.67,-29.24 694.51,-35.08 696.22,-28.29"/>
</a>
</g>
</g>
<!-- 15&#45;&gt;13 -->
<g id="edge46" class="edge">
<title>15&#45;&gt;13</title>
<g id="a_edge46"><a xlink:title="usage">
<path fill="none" stroke="#1414ce" d="M92.98,-215.7C105.31,-206.8 120.52,-195.82 133.85,-186.2"/>
<polygon fill="#1414ce" stroke="#1414ce" points="136.24,-188.79 142.3,-180.1 132.14,-183.12 136.24,-188.79"/>
</a>
</g>
</g>
</g>
</svg>
