<?xml version="1.0" encoding="UTF-8" standalone="no"?>
<!DOCTYPE svg PUBLIC "-//W3C//DTD SVG 1.1//EN"
 "http://www.w3.org/Graphics/SVG/1.1/DTD/svg11.dtd">
<!-- Generated by graphviz version 2.43.0 (0)
 -->
<!-- Title: %3 Pages: 1 -->
<svg width="1445pt" height="692pt"
 viewBox="0.00 0.00 1444.84 692.00" xmlns="http://www.w3.org/2000/svg" xmlns:xlink="http://www.w3.org/1999/xlink">
<g id="graph0" class="graph" transform="scale(1 1) rotate(0) translate(4 688)">
<title>%3</title>
<polygon fill="transparent" stroke="transparent" points="-4,4 -4,-688 1440.84,-688 1440.84,4 -4,4"/>
<!-- 10 -->
<g id="node1" class="node">
<title>10</title>
<g id="a_node1"><a xlink:title="atom.h">
<polygon fill="#ffffff" stroke="black" points="388.5,-180 322.5,-180 322.5,-144 388.5,-144 388.5,-180"/>
<text text-anchor="middle" x="355.5" y="-158.3" font-family="Times,serif" font-size="14.00">atom.h</text>
</a>
</g>
</g>
<!-- 6 -->
<g id="node26" class="node">
<title>6</title>
<g id="a_node26"><a xlink:title="stdint.h">
<polygon fill="#ffffff" stroke="black" points="391.5,-36 319.5,-36 319.5,0 391.5,0 391.5,-36"/>
<text text-anchor="middle" x="355.5" y="-14.3" font-family="Times,serif" font-size="14.00">stdint.h</text>
</a>
</g>
</g>
<!-- 10&#45;&gt;6 -->
<g id="edge1" class="edge">
<title>10&#45;&gt;6</title>
<g id="a_edge1"><a xlink:title="include">
<path fill="none" stroke="#1414ce" d="M355.5,-143.87C355.5,-119.67 355.5,-75.21 355.5,-46.39"/>
<polygon fill="#1414ce" stroke="#1414ce" points="359,-46.19 355.5,-36.19 352,-46.19 359,-46.19"/>
</a>
</g>
</g>
<!-- 8 -->
<g id="node28" class="node">
<title>8</title>
<g id="a_node28"><a xlink:title="stdlib.h">
<polygon fill="#ffffff" stroke="black" points="488,-108 417,-108 417,-72 488,-72 488,-108"/>
<text text-anchor="middle" x="452.5" y="-86.3" font-family="Times,serif" font-size="14.00">stdlib.h</text>
</a>
</g>
</g>
<!-- 10&#45;&gt;8 -->
<g id="edge2" class="edge">
<title>10&#45;&gt;8</title>
<g id="a_edge2"><a xlink:title="include">
<path fill="none" stroke="#1414ce" d="M379.48,-143.7C391.81,-134.8 407.02,-123.82 420.35,-114.2"/>
<polygon fill="#1414ce" stroke="#1414ce" points="422.74,-116.79 428.8,-108.1 418.64,-111.12 422.74,-116.79"/>
</a>
</g>
</g>
<!-- 27 -->
<g id="node2" class="node">
<title>27</title>
<g id="a_node2"><a xlink:title="atom_table.h">
<polygon fill="#ffffff" stroke="black" points="710,-252 601,-252 601,-216 710,-216 710,-252"/>
<text text-anchor="middle" x="655.5" y="-230.3" font-family="Times,serif" font-size="14.00">atom_table.h</text>
</a>
</g>
</g>
<!-- 27&#45;&gt;10 -->
<g id="edge4" class="edge">
<title>27&#45;&gt;10</title>
<g id="a_edge4"><a xlink:title="include">
<path fill="none" stroke="#1414ce" d="M600.82,-220.24C542.71,-206.68 452.01,-185.52 398.7,-173.08"/>
<polygon fill="#1414ce" stroke="#1414ce" points="399.41,-169.65 388.88,-170.79 397.82,-176.47 399.41,-169.65"/>
</a>
</g>
</g>
<!-- 12 -->
<g id="node19" class="node">
<title>12</title>
<g id="a_node19"><a xlink:title="utils.h">
<polygon fill="#ffffff" stroke="black" points="662.5,-180 600.5,-180 600.5,-144 662.5,-144 662.5,-180"/>
<text text-anchor="middle" x="631.5" y="-158.3" font-family="Times,serif" font-size="14.00">utils.h</text>
</a>
</g>
</g>
<!-- 27&#45;&gt;12 -->
<g id="edge5" class="edge">
<title>27&#45;&gt;12</title>
<g id="a_edge5"><a xlink:title="include">
<path fill="none" stroke="#1414ce" d="M649.57,-215.7C646.89,-207.9 643.67,-198.51 640.7,-189.83"/>
<polygon fill="#1414ce" stroke="#1414ce" points="643.92,-188.43 637.36,-180.1 637.3,-190.7 643.92,-188.43"/>
</a>
</g>
</g>
<!-- 5 -->
<g id="node24" class="node">
<title>5</title>
<g id="a_node24"><a xlink:title="stdbool.h">
<polygon fill="#ffffff" stroke="black" points="921,-108 838,-108 838,-72 921,-72 921,-108"/>
<text text-anchor="middle" x="879.5" y="-86.3" font-family="Times,serif" font-size="14.00">stdbool.h</text>
</a>
</g>
</g>
<!-- 27&#45;&gt;5 -->
<g id="edge3" class="edge">
<title>27&#45;&gt;5</title>
<g id="a_edge3"><a xlink:title="include">
<path fill="none" stroke="#1414ce" d="M684.23,-215.78C701.25,-205.51 723.19,-192.15 742.5,-180 777.7,-157.85 817.52,-131.88 845.12,-113.72"/>
<polygon fill="#1414ce" stroke="#1414ce" points="847.21,-116.54 853.63,-108.12 843.36,-110.7 847.21,-116.54"/>
</a>
</g>
</g>
<!-- 16 -->
<g id="node3" class="node">
<title>16</title>
<g id="a_node3"><a xlink:title="erl_nif.h">
<polygon fill="#ffffff" stroke="black" points="152.5,-180 78.5,-180 78.5,-144 152.5,-144 152.5,-180"/>
<text text-anchor="middle" x="115.5" y="-158.3" font-family="Times,serif" font-size="14.00">erl_nif.h</text>
</a>
</g>
</g>
<!-- 17 -->
<g id="node17" class="node">
<title>17</title>
<g id="a_node17"><a xlink:title="term_typedef.h">
<polygon fill="#ffffff" stroke="black" points="178,-108 53,-108 53,-72 178,-72 178,-108"/>
<text text-anchor="middle" x="115.5" y="-86.3" font-family="Times,serif" font-size="14.00">term_typedef.h</text>
</a>
</g>
</g>
<!-- 16&#45;&gt;17 -->
<g id="edge6" class="edge">
<title>16&#45;&gt;17</title>
<g id="a_edge6"><a xlink:title="include">
<path fill="none" stroke="#1414ce" d="M115.5,-143.7C115.5,-135.98 115.5,-126.71 115.5,-118.11"/>
<polygon fill="#1414ce" stroke="#1414ce" points="119,-118.1 115.5,-108.1 112,-118.1 119,-118.1"/>
</a>
</g>
</g>
<!-- 28 -->
<g id="node4" class="node">
<title>28</title>
<g id="a_node4"><a xlink:title="ets.h">
<polygon fill="#ffffff" stroke="black" points="1030.5,-540 976.5,-540 976.5,-504 1030.5,-504 1030.5,-540"/>
<text text-anchor="middle" x="1003.5" y="-518.3" font-family="Times,serif" font-size="14.00">ets.h</text>
</a>
</g>
</g>
<!-- 24 -->
<g id="node15" class="node">
<title>24</title>
<g id="a_node15"><a xlink:title="synclist.h">
<polygon fill="#ffffff" stroke="black" points="1032,-252 947,-252 947,-216 1032,-216 1032,-252"/>
<text text-anchor="middle" x="989.5" y="-230.3" font-family="Times,serif" font-size="14.00">synclist.h</text>
</a>
</g>
</g>
<!-- 28&#45;&gt;24 -->
<g id="edge8" class="edge">
<title>28&#45;&gt;24</title>
<g id="a_edge8"><a xlink:title="include">
<path fill="none" stroke="#1414ce" d="M1002.67,-503.97C1000.33,-456.29 993.72,-321.18 990.85,-262.63"/>
<polygon fill="#1414ce" stroke="#1414ce" points="994.33,-262.12 990.35,-252.31 987.34,-262.47 994.33,-262.12"/>
</a>
</g>
</g>
<!-- 3 -->
<g id="node16" class="node">
<title>3</title>
<g id="a_node16"><a xlink:title="term.h">
<polygon fill="#ffffff" stroke="black" points="454,-468 389,-468 389,-432 454,-432 454,-468"/>
<text text-anchor="middle" x="421.5" y="-446.3" font-family="Times,serif" font-size="14.00">term.h</text>
</a>
</g>
</g>
<!-- 28&#45;&gt;3 -->
<g id="edge9" class="edge">
<title>28&#45;&gt;3</title>
<g id="a_edge9"><a xlink:title="include">
<path fill="none" stroke="#1414ce" d="M976.21,-517.72C883.15,-506.53 577.8,-469.8 464.4,-456.16"/>
<polygon fill="#1414ce" stroke="#1414ce" points="464.7,-452.67 454.35,-454.95 463.87,-459.62 464.7,-452.67"/>
</a>
</g>
</g>
<!-- 28&#45;&gt;5 -->
<g id="edge7" class="edge">
<title>28&#45;&gt;5</title>
<g id="a_edge7"><a xlink:title="include">
<path fill="none" stroke="#1414ce" d="M1030.74,-507.5C1069.65,-486.06 1136.5,-440.31 1136.5,-379 1136.5,-379 1136.5,-379 1136.5,-233 1136.5,-140.13 1006.35,-107.53 931.28,-96.45"/>
<polygon fill="#1414ce" stroke="#1414ce" points="931.47,-92.94 921.08,-95.02 930.5,-99.87 931.47,-92.94"/>
</a>
</g>
</g>
<!-- 2 -->
<g id="node5" class="node">
<title>2</title>
<g id="a_node5"><a xlink:title="exportedfunction.h">
<polygon fill="#ffffff" stroke="black" points="497.5,-540 345.5,-540 345.5,-504 497.5,-504 497.5,-540"/>
<text text-anchor="middle" x="421.5" y="-518.3" font-family="Times,serif" font-size="14.00">exportedfunction.h</text>
</a>
</g>
</g>
<!-- 2&#45;&gt;3 -->
<g id="edge10" class="edge">
<title>2&#45;&gt;3</title>
<g id="a_edge10"><a xlink:title="include">
<path fill="none" stroke="#1414ce" d="M421.5,-503.7C421.5,-495.98 421.5,-486.71 421.5,-478.11"/>
<polygon fill="#1414ce" stroke="#1414ce" points="425,-478.1 421.5,-468.1 418,-478.1 425,-478.1"/>
</a>
</g>
</g>
<!-- 26 -->
<g id="node6" class="node">
<title>26</title>
<g id="a_node6"><a xlink:title="globalcontext.h">
<polygon fill="#ffffff" stroke="black" points="1010,-612 883,-612 883,-576 1010,-576 1010,-612"/>
<text text-anchor="middle" x="946.5" y="-590.3" font-family="Times,serif" font-size="14.00">globalcontext.h</text>
</a>
</g>
</g>
<!-- 26&#45;&gt;10 -->
<g id="edge12" class="edge">
<title>26&#45;&gt;10</title>
<g id="a_edge12"><a xlink:title="include">
<path fill="none" stroke="#1414ce" d="M888.32,-575.91C862.12,-567.02 831.33,-554.88 805.5,-540 622.62,-434.65 441.15,-253.05 378.48,-187.5"/>
<polygon fill="#1414ce" stroke="#1414ce" points="380.86,-184.92 371.43,-180.09 375.79,-189.75 380.86,-184.92"/>
</a>
</g>
</g>
<!-- 26&#45;&gt;27 -->
<g id="edge13" class="edge">
<title>26&#45;&gt;27</title>
<g id="a_edge13"><a xlink:title="include">
<path fill="none" stroke="#1414ce" d="M903.18,-575.89C856.71,-554.35 789.5,-512.56 789.5,-451 789.5,-451 789.5,-451 789.5,-377 789.5,-322.8 737.22,-280.9 697.97,-257.09"/>
<polygon fill="#1414ce" stroke="#1414ce" points="699.71,-254.05 689.31,-252 696.16,-260.09 699.71,-254.05"/>
</a>
</g>
</g>
<!-- 26&#45;&gt;16 -->
<g id="edge14" class="edge">
<title>26&#45;&gt;16</title>
<g id="a_edge14"><a xlink:title="include">
<path fill="none" stroke="#1414ce" d="M883,-592.32C747.4,-590.1 433.95,-580.6 336.5,-540 245.1,-501.92 217.56,-480.84 166.5,-396 126.57,-329.65 117.76,-235.9 115.92,-190.19"/>
<polygon fill="#1414ce" stroke="#1414ce" points="119.41,-190.04 115.59,-180.16 112.42,-190.27 119.41,-190.04"/>
</a>
</g>
</g>
<!-- 26&#45;&gt;28 -->
<g id="edge15" class="edge">
<title>26&#45;&gt;28</title>
<g id="a_edge15"><a xlink:title="include">
<path fill="none" stroke="#1414ce" d="M960.59,-575.7C967.42,-567.3 975.76,-557.07 983.26,-547.86"/>
<polygon fill="#1414ce" stroke="#1414ce" points="985.97,-550.07 989.57,-540.1 980.54,-545.65 985.97,-550.07"/>
</a>
</g>
</g>
<!-- 21 -->
<g id="node8" class="node">
<title>21</title>
<g id="a_node8"><a xlink:title="list.h">
<polygon fill="#ffffff" stroke="black" points="943.5,-180 889.5,-180 889.5,-144 943.5,-144 943.5,-180"/>
<text text-anchor="middle" x="916.5" y="-158.3" font-family="Times,serif" font-size="14.00">list.h</text>
</a>
</g>
</g>
<!-- 26&#45;&gt;21 -->
<g id="edge16" class="edge">
<title>26&#45;&gt;21</title>
<g id="a_edge16"><a xlink:title="include">
<path fill="none" stroke="#1414ce" d="M992.72,-575.98C1009.73,-567.57 1027.7,-555.77 1039.5,-540 1063.84,-507.46 1060.5,-491.64 1060.5,-451 1060.5,-451 1060.5,-451 1060.5,-305 1060.5,-264.46 1066.67,-246.96 1040.5,-216 1015.09,-185.93 994.21,-195.42 952.97,-179.83"/>
<polygon fill="#1414ce" stroke="#1414ce" points="954.14,-176.52 943.56,-175.96 951.48,-183 954.14,-176.52"/>
</a>
</g>
</g>
<!-- 23 -->
<g id="node9" class="node">
<title>23</title>
<g id="a_node9"><a xlink:title="mailbox.h">
<polygon fill="#ffffff" stroke="black" points="814.5,-252 728.5,-252 728.5,-216 814.5,-216 814.5,-252"/>
<text text-anchor="middle" x="771.5" y="-230.3" font-family="Times,serif" font-size="14.00">mailbox.h</text>
</a>
</g>
</g>
<!-- 26&#45;&gt;23 -->
<g id="edge17" class="edge">
<title>26&#45;&gt;23</title>
<g id="a_edge17"><a xlink:title="include">
<path fill="none" stroke="#1414ce" d="M932.5,-575.82C913.13,-550.26 880.5,-499.93 880.5,-451 880.5,-451 880.5,-451 880.5,-377 880.5,-326.93 837.33,-283.64 805.33,-258.43"/>
<polygon fill="#1414ce" stroke="#1414ce" points="807.13,-255.4 797.06,-252.11 802.88,-260.96 807.13,-255.4"/>
</a>
</g>
</g>
<!-- 25 -->
<g id="node14" class="node">
<title>25</title>
<g id="a_node14"><a xlink:title="smp.h">
<polygon fill="#ffffff" stroke="black" points="1021.5,-180 961.5,-180 961.5,-144 1021.5,-144 1021.5,-180"/>
<text text-anchor="middle" x="991.5" y="-158.3" font-family="Times,serif" font-size="14.00">smp.h</text>
</a>
</g>
</g>
<!-- 26&#45;&gt;25 -->
<g id="edge18" class="edge">
<title>26&#45;&gt;25</title>
<g id="a_edge18"><a xlink:title="include">
<path fill="none" stroke="#1414ce" d="M1010.01,-581.68C1077.47,-565.58 1174.5,-528.88 1174.5,-451 1174.5,-451 1174.5,-451 1174.5,-305 1174.5,-233.07 1085.16,-192.33 1031.33,-174.32"/>
<polygon fill="#1414ce" stroke="#1414ce" points="1032.31,-170.95 1021.72,-171.21 1030.16,-177.62 1032.31,-170.95"/>
</a>
</g>
</g>
<!-- 26&#45;&gt;24 -->
<g id="edge19" class="edge">
<title>26&#45;&gt;24</title>
<g id="a_edge19"><a xlink:title="include">
<path fill="none" stroke="#1414ce" d="M948.57,-575.73C955.49,-518.19 977.77,-332.66 986.21,-262.35"/>
<polygon fill="#1414ce" stroke="#1414ce" points="989.73,-262.44 987.45,-252.09 982.78,-261.61 989.73,-262.44"/>
</a>
</g>
</g>
<!-- 26&#45;&gt;3 -->
<g id="edge20" class="edge">
<title>26&#45;&gt;3</title>
<g id="a_edge20"><a xlink:title="include">
<path fill="none" stroke="#1414ce" d="M882.91,-591.18C811.24,-587.37 692.24,-575.69 596.5,-540 568.42,-529.53 565.9,-518.17 539.5,-504 514.92,-490.8 486.4,-477.93 463.56,-468.18"/>
<polygon fill="#1414ce" stroke="#1414ce" points="464.72,-464.87 454.14,-464.2 461.99,-471.31 464.72,-464.87"/>
</a>
</g>
</g>
<!-- 29 -->
<g id="node18" class="node">
<title>29</title>
<g id="a_node18"><a xlink:title="timer_list.h">
<polygon fill="#ffffff" stroke="black" points="1300.5,-252 1202.5,-252 1202.5,-216 1300.5,-216 1300.5,-252"/>
<text text-anchor="middle" x="1251.5" y="-230.3" font-family="Times,serif" font-size="14.00">timer_list.h</text>
</a>
</g>
</g>
<!-- 26&#45;&gt;29 -->
<g id="edge21" class="edge">
<title>26&#45;&gt;29</title>
<g id="a_edge21"><a xlink:title="include">
<path fill="none" stroke="#1414ce" d="M1010.19,-585.37C1072.27,-576.84 1161.18,-561.36 1188.5,-540 1223.26,-512.82 1232.5,-495.13 1232.5,-451 1232.5,-451 1232.5,-451 1232.5,-377 1232.5,-336.86 1240.05,-290.9 1245.63,-262.4"/>
<polygon fill="#1414ce" stroke="#1414ce" points="1249.11,-262.88 1247.66,-252.39 1242.24,-261.5 1249.11,-262.88"/>
</a>
</g>
</g>
<!-- 30 -->
<g id="node20" class="node">
<title>30</title>
<g id="a_node20"><a xlink:title="valueshashtable.h">
<polygon fill="#ffffff" stroke="black" points="1386.5,-180 1240.5,-180 1240.5,-144 1386.5,-144 1386.5,-180"/>
<text text-anchor="middle" x="1313.5" y="-158.3" font-family="Times,serif" font-size="14.00">valueshashtable.h</text>
</a>
</g>
</g>
<!-- 26&#45;&gt;30 -->
<g id="edge22" class="edge">
<title>26&#45;&gt;30</title>
<g id="a_edge22"><a xlink:title="include">
<path fill="none" stroke="#1414ce" d="M1010.2,-589.46C1067.33,-584.28 1152.28,-571.5 1219.5,-540 1276.13,-513.46 1328.5,-513.54 1328.5,-451 1328.5,-451 1328.5,-451 1328.5,-305 1328.5,-264.99 1322.54,-219 1318.13,-190.46"/>
<polygon fill="#1414ce" stroke="#1414ce" points="1321.56,-189.75 1316.54,-180.43 1314.65,-190.85 1321.56,-189.75"/>
</a>
</g>
</g>
<!-- 26&#45;&gt;6 -->
<g id="edge11" class="edge">
<title>26&#45;&gt;6</title>
<g id="a_edge11"><a xlink:title="include">
<path fill="none" stroke="#1414ce" d="M1010.1,-587.12C1138.06,-573.54 1414.5,-534.53 1414.5,-451 1414.5,-451 1414.5,-451 1414.5,-161 1414.5,-123.46 1520.67,-145.62 1263.5,-72 1099.17,-24.96 563.39,-19.58 401.95,-19.04"/>
<polygon fill="#1414ce" stroke="#1414ce" points="401.88,-15.54 391.87,-19.01 401.86,-22.54 401.88,-15.54"/>
</a>
</g>
</g>
<!-- 11 -->
<g id="node7" class="node">
<title>11</title>
<g id="a_node7"><a xlink:title="intn.h">
<polygon fill="#ffffff" stroke="black" points="506,-396 447,-396 447,-360 506,-360 506,-396"/>
<text text-anchor="middle" x="476.5" y="-374.3" font-family="Times,serif" font-size="14.00">intn.h</text>
</a>
</g>
</g>
<!-- 11&#45;&gt;12 -->
<g id="edge25" class="edge">
<title>11&#45;&gt;12</title>
<g id="a_edge25"><a xlink:title="include">
<path fill="none" stroke="#1414ce" d="M465.16,-359.78C445.82,-328.03 411.59,-259.53 444.5,-216 462.03,-192.82 540.63,-176.84 590.18,-168.86"/>
<polygon fill="#1414ce" stroke="#1414ce" points="590.94,-172.29 600.28,-167.28 589.86,-165.37 590.94,-172.29"/>
</a>
</g>
</g>
<!-- 11&#45;&gt;5 -->
<g id="edge23" class="edge">
<title>11&#45;&gt;5</title>
<g id="a_edge23"><a xlink:title="include">
<path fill="none" stroke="#1414ce" d="M484.91,-359.68C501.31,-327.47 540.5,-257.81 591.5,-216 621.65,-191.28 636.33,-196.82 671.5,-180 703.42,-164.74 710.18,-158.4 742.5,-144 770.49,-131.53 802.38,-119.09 828.35,-109.4"/>
<polygon fill="#1414ce" stroke="#1414ce" points="829.83,-112.58 837.99,-105.82 827.4,-106.02 829.83,-112.58"/>
</a>
</g>
</g>
<!-- 9 -->
<g id="node29" class="node">
<title>9</title>
<g id="a_node29"><a xlink:title="string.h">
<polygon fill="#ffffff" stroke="black" points="348,-324 275,-324 275,-288 348,-288 348,-324"/>
<text text-anchor="middle" x="311.5" y="-302.3" font-family="Times,serif" font-size="14.00">string.h</text>
</a>
</g>
</g>
<!-- 11&#45;&gt;9 -->
<g id="edge24" class="edge">
<title>11&#45;&gt;9</title>
<g id="a_edge24"><a xlink:title="include">
<path fill="none" stroke="#1414ce" d="M446.62,-364.32C421.76,-353.78 385.95,-338.58 357.44,-326.49"/>
<polygon fill="#1414ce" stroke="#1414ce" points="358.65,-323.2 348.08,-322.52 355.92,-329.65 358.65,-323.2"/>
</a>
</g>
</g>
<!-- 21&#45;&gt;5 -->
<g id="edge26" class="edge">
<title>21&#45;&gt;5</title>
<g id="a_edge26"><a xlink:title="include">
<path fill="none" stroke="#1414ce" d="M907.35,-143.7C903.1,-135.64 897.94,-125.89 893.23,-116.98"/>
<polygon fill="#1414ce" stroke="#1414ce" points="896.31,-115.31 888.54,-108.1 890.12,-118.58 896.31,-115.31"/>
</a>
</g>
</g>
<!-- 23&#45;&gt;21 -->
<g id="edge28" class="edge">
<title>23&#45;&gt;21</title>
<g id="a_edge28"><a xlink:title="include">
<path fill="none" stroke="#1414ce" d="M806.97,-215.88C829.13,-205.18 857.59,-191.44 879.94,-180.65"/>
<polygon fill="#1414ce" stroke="#1414ce" points="881.63,-183.72 889.12,-176.22 878.59,-177.42 881.63,-183.72"/>
</a>
</g>
</g>
<!-- 23&#45;&gt;17 -->
<g id="edge29" class="edge">
<title>23&#45;&gt;17</title>
<g id="a_edge29"><a xlink:title="include">
<path fill="none" stroke="#1414ce" d="M728.5,-218.85C725.13,-217.85 721.76,-216.89 718.5,-216 529.48,-164.6 302.15,-122.74 188.17,-103.1"/>
<polygon fill="#1414ce" stroke="#1414ce" points="188.61,-99.63 178.16,-101.38 187.42,-106.52 188.61,-99.63"/>
</a>
</g>
</g>
<!-- 23&#45;&gt;12 -->
<g id="edge30" class="edge">
<title>23&#45;&gt;12</title>
<g id="a_edge30"><a xlink:title="include">
<path fill="none" stroke="#1414ce" d="M737.25,-215.88C717.46,-205.98 692.44,-193.47 671.72,-183.11"/>
<polygon fill="#1414ce" stroke="#1414ce" points="673.04,-179.86 662.53,-178.51 669.91,-186.12 673.04,-179.86"/>
</a>
</g>
</g>
<!-- 23&#45;&gt;5 -->
<g id="edge27" class="edge">
<title>23&#45;&gt;5</title>
<g id="a_edge27"><a xlink:title="include">
<path fill="none" stroke="#1414ce" d="M781.07,-215.93C791.71,-197.51 809.86,-167.63 828.5,-144 836.21,-134.23 845.44,-124.22 853.91,-115.56"/>
<polygon fill="#1414ce" stroke="#1414ce" points="856.53,-117.9 861.11,-108.35 851.57,-112.96 856.53,-117.9"/>
</a>
</g>
</g>
<!-- 15 -->
<g id="node10" class="node">
<title>15</title>
<g id="a_node10"><a xlink:title="memory.h">
<polygon fill="#ffffff" stroke="black" points="278.5,-252 192.5,-252 192.5,-216 278.5,-216 278.5,-252"/>
<text text-anchor="middle" x="235.5" y="-230.3" font-family="Times,serif" font-size="14.00">memory.h</text>
</a>
</g>
</g>
<!-- 15&#45;&gt;16 -->
<g id="edge33" class="edge">
<title>15&#45;&gt;16</title>
<g id="a_edge33"><a xlink:title="include">
<path fill="none" stroke="#1414ce" d="M206.14,-215.88C190.45,-206.72 170.94,-195.34 154.05,-185.48"/>
<polygon fill="#1414ce" stroke="#1414ce" points="155.37,-182.21 144.97,-180.19 151.84,-188.25 155.37,-182.21"/>
</a>
</g>
</g>
<!-- 15&#45;&gt;17 -->
<g id="edge34" class="edge">
<title>15&#45;&gt;17</title>
<g id="a_edge34"><a xlink:title="include">
<path fill="none" stroke="#1414ce" d="M221.42,-215.85C206.61,-197.86 182.58,-168.81 161.5,-144 153.65,-134.76 144.95,-124.69 137.25,-115.84"/>
<polygon fill="#1414ce" stroke="#1414ce" points="139.72,-113.34 130.51,-108.11 134.44,-117.94 139.72,-113.34"/>
</a>
</g>
</g>
<!-- 15&#45;&gt;12 -->
<g id="edge35" class="edge">
<title>15&#45;&gt;12</title>
<g id="a_edge35"><a xlink:title="include">
<path fill="none" stroke="#1414ce" d="M278.63,-225.38C355.41,-211.8 514.76,-183.64 590.2,-170.3"/>
<polygon fill="#1414ce" stroke="#1414ce" points="591.03,-173.71 600.27,-168.52 589.81,-166.81 591.03,-173.71"/>
</a>
</g>
</g>
<!-- 15&#45;&gt;6 -->
<g id="edge31" class="edge">
<title>15&#45;&gt;6</title>
<g id="a_edge31"><a xlink:title="include">
<path fill="none" stroke="#1414ce" d="M241.26,-215.8C247.65,-197.52 258.76,-168 271.5,-144 290.8,-107.64 318.13,-68.73 336.32,-44.15"/>
<polygon fill="#1414ce" stroke="#1414ce" points="339.16,-46.19 342.34,-36.08 333.55,-42 339.16,-46.19"/>
</a>
</g>
</g>
<!-- 15&#45;&gt;8 -->
<g id="edge32" class="edge">
<title>15&#45;&gt;8</title>
<g id="a_edge32"><a xlink:title="include">
<path fill="none" stroke="#1414ce" d="M246.77,-215.67C260.43,-195.88 285.16,-163.71 313.5,-144 341.85,-124.28 378.52,-110.7 407.07,-102.22"/>
<polygon fill="#1414ce" stroke="#1414ce" points="408.15,-105.56 416.8,-99.44 406.23,-98.83 408.15,-105.56"/>
</a>
</g>
</g>
<!-- 1 -->
<g id="node11" class="node">
<title>1</title>
<g id="a_node11"><a xlink:title="/__w/AtomVM/AtomVM/src/libAtomVM/posix_nifs.h">
<polygon fill="#bfbfbf" stroke="black" points="714,-684 337,-684 337,-648 714,-648 714,-684"/>
<text text-anchor="middle" x="525.5" y="-662.3" font-family="Times,serif" font-size="14.00">/__w/AtomVM/AtomVM/src/libAtomVM/posix_nifs.h</text>
</a>
</g>
</g>
<!-- 1&#45;&gt;2 -->
<g id="edge36" class="edge">
<title>1&#45;&gt;2</title>
<g id="a_edge36"><a xlink:title="include">
<path fill="none" stroke="#1414ce" d="M512.96,-647.87C494.84,-623.14 461.23,-577.24 440.18,-548.51"/>
<polygon fill="#1414ce" stroke="#1414ce" points="442.82,-546.19 434.09,-540.19 437.17,-550.33 442.82,-546.19"/>
</a>
</g>
</g>
<!-- 1&#45;&gt;26 -->
<g id="edge37" class="edge">
<title>1&#45;&gt;26</title>
<g id="a_edge37"><a xlink:title="include">
<path fill="none" stroke="#1414ce" d="M627.95,-647.97C703.65,-635.38 804.94,-618.54 872.78,-607.26"/>
<polygon fill="#1414ce" stroke="#1414ce" points="873.67,-610.66 882.96,-605.56 872.52,-603.75 873.67,-610.66"/>
</a>
</g>
</g>
<!-- 1&#45;&gt;3 -->
<g id="edge38" class="edge">
<title>1&#45;&gt;3</title>
<g id="a_edge38"><a xlink:title="include">
<path fill="none" stroke="#1414ce" d="M528.02,-647.91C531.7,-616.67 535.3,-549.39 506.5,-504 496.38,-488.04 479.53,-476.08 463.49,-467.6"/>
<polygon fill="#1414ce" stroke="#1414ce" points="464.72,-464.3 454.2,-463.01 461.61,-470.58 464.72,-464.3"/>
</a>
</g>
</g>
<!-- 20 -->
<g id="node12" class="node">
<title>20</title>
<g id="a_node12"><a xlink:title="refc_binary.h">
<polygon fill="#ffffff" stroke="black" points="746.5,-396 638.5,-396 638.5,-360 746.5,-360 746.5,-396"/>
<text text-anchor="middle" x="692.5" y="-374.3" font-family="Times,serif" font-size="14.00">refc_binary.h</text>
</a>
</g>
</g>
<!-- 20&#45;&gt;21 -->
<g id="edge41" class="edge">
<title>20&#45;&gt;21</title>
<g id="a_edge41"><a xlink:title="include">
<path fill="none" stroke="#1414ce" d="M746.67,-371.66C781.99,-365.53 826.88,-352.34 856.5,-324 894.2,-287.93 908.39,-225.99 913.6,-190.37"/>
<polygon fill="#1414ce" stroke="#1414ce" points="917.1,-190.59 914.94,-180.22 910.16,-189.68 917.1,-190.59"/>
</a>
</g>
</g>
<!-- 22 -->
<g id="node13" class="node">
<title>22</title>
<g id="a_node13"><a xlink:title="resources.h">
<polygon fill="#ffffff" stroke="black" points="662.5,-324 562.5,-324 562.5,-288 662.5,-288 662.5,-324"/>
<text text-anchor="middle" x="612.5" y="-302.3" font-family="Times,serif" font-size="14.00">resources.h</text>
</a>
</g>
</g>
<!-- 20&#45;&gt;22 -->
<g id="edge42" class="edge">
<title>20&#45;&gt;22</title>
<g id="a_edge42"><a xlink:title="include">
<path fill="none" stroke="#1414ce" d="M672.72,-359.7C662.75,-350.97 650.49,-340.24 639.64,-330.75"/>
<polygon fill="#1414ce" stroke="#1414ce" points="641.88,-328.06 632.05,-324.1 637.27,-333.32 641.88,-328.06"/>
</a>
</g>
</g>
<!-- 20&#45;&gt;5 -->
<g id="edge39" class="edge">
<title>20&#45;&gt;5</title>
<g id="a_edge39"><a xlink:title="include">
<path fill="none" stroke="#1414ce" d="M716.36,-359.95C745.45,-338.03 794.33,-297.34 823.5,-252 850.96,-209.33 866.75,-151.6 874.19,-118.13"/>
<polygon fill="#1414ce" stroke="#1414ce" points="877.66,-118.67 876.32,-108.16 870.81,-117.21 877.66,-118.67"/>
</a>
</g>
</g>
<!-- 20&#45;&gt;8 -->
<g id="edge40" class="edge">
<title>20&#45;&gt;8</title>
<g id="a_edge40"><a xlink:title="include">
<path fill="none" stroke="#1414ce" d="M692.78,-359.97C692.21,-340.47 688.47,-308.57 671.5,-288 646.69,-257.93 622.01,-276.28 591.5,-252 567.92,-233.24 529.72,-166.34 509.5,-144 500.41,-133.96 489.71,-123.66 480.04,-114.84"/>
<polygon fill="#1414ce" stroke="#1414ce" points="482.34,-112.2 472.56,-108.12 477.66,-117.41 482.34,-112.2"/>
</a>
</g>
</g>
<!-- 22&#45;&gt;16 -->
<g id="edge44" class="edge">
<title>22&#45;&gt;16</title>
<g id="a_edge44"><a xlink:title="include">
<path fill="none" stroke="#1414ce" d="M562.18,-300.98C455.94,-292.19 215.81,-270.53 183.5,-252 158.34,-237.57 139.41,-209.74 128,-189.03"/>
<polygon fill="#1414ce" stroke="#1414ce" points="131.05,-187.3 123.29,-180.08 124.85,-190.56 131.05,-187.3"/>
</a>
</g>
</g>
<!-- 22&#45;&gt;21 -->
<g id="edge45" class="edge">
<title>22&#45;&gt;21</title>
<g id="a_edge45"><a xlink:title="include">
<path fill="none" stroke="#1414ce" d="M662.92,-299.74C707.43,-293.42 772.92,-279.95 823.5,-252 852.73,-235.85 879.52,-208.24 896.76,-188.04"/>
<polygon fill="#1414ce" stroke="#1414ce" points="899.61,-190.09 903.32,-180.16 894.23,-185.6 899.61,-190.09"/>
</a>
</g>
</g>
<!-- 22&#45;&gt;23 -->
<g id="edge46" class="edge">
<title>22&#45;&gt;23</title>
<g id="a_edge46"><a xlink:title="include">
<path fill="none" stroke="#1414ce" d="M651.4,-287.88C673.13,-278.31 700.4,-266.3 723.46,-256.15"/>
<polygon fill="#1414ce" stroke="#1414ce" points="724.99,-259.3 732.73,-252.07 722.17,-252.89 724.99,-259.3"/>
</a>
</g>
</g>
<!-- 22&#45;&gt;15 -->
<g id="edge47" class="edge">
<title>22&#45;&gt;15</title>
<g id="a_edge47"><a xlink:title="include">
<path fill="none" stroke="#1414ce" d="M562.44,-295.7C491.27,-282.49 361.44,-258.38 288.64,-244.87"/>
<polygon fill="#1414ce" stroke="#1414ce" points="289.22,-241.42 278.75,-243.03 287.95,-248.3 289.22,-241.42"/>
</a>
</g>
</g>
<!-- 22&#45;&gt;24 -->
<g id="edge48" class="edge">
<title>22&#45;&gt;24</title>
<g id="a_edge48"><a xlink:title="include">
<path fill="none" stroke="#1414ce" d="M662.56,-295.7C733.92,-282.46 864.25,-258.26 936.95,-244.76"/>
<polygon fill="#1414ce" stroke="#1414ce" points="937.62,-248.19 946.81,-242.93 936.34,-241.31 937.62,-248.19"/>
</a>
</g>
</g>
<!-- 22&#45;&gt;8 -->
<g id="edge43" class="edge">
<title>22&#45;&gt;8</title>
<g id="a_edge43"><a xlink:title="include">
<path fill="none" stroke="#1414ce" d="M593,-287.77C582.26,-277.82 569.02,-264.78 558.5,-252 521.92,-207.55 486.64,-150.14 467.43,-117.26"/>
<polygon fill="#1414ce" stroke="#1414ce" points="470.27,-115.17 462.22,-108.27 464.21,-118.68 470.27,-115.17"/>
</a>
</g>
</g>
<!-- 25&#45;&gt;5 -->
<g id="edge49" class="edge">
<title>25&#45;&gt;5</title>
<g id="a_edge49"><a xlink:title="include">
<path fill="none" stroke="#1414ce" d="M964.1,-143.88C949.59,-134.81 931.58,-123.55 915.91,-113.76"/>
<polygon fill="#1414ce" stroke="#1414ce" points="917.34,-110.52 907,-108.19 913.63,-116.46 917.34,-110.52"/>
</a>
</g>
</g>
<!-- 24&#45;&gt;21 -->
<g id="edge51" class="edge">
<title>24&#45;&gt;21</title>
<g id="a_edge51"><a xlink:title="include">
<path fill="none" stroke="#1414ce" d="M971.46,-215.7C962.44,-207.05 951.38,-196.45 941.56,-187.03"/>
<polygon fill="#1414ce" stroke="#1414ce" points="943.98,-184.5 934.34,-180.1 939.13,-189.55 943.98,-184.5"/>
</a>
</g>
</g>
<!-- 24&#45;&gt;25 -->
<g id="edge52" class="edge">
<title>24&#45;&gt;25</title>
<g id="a_edge52"><a xlink:title="include">
<path fill="none" stroke="#1414ce" d="M989.99,-215.7C990.21,-207.98 990.48,-198.71 990.73,-190.11"/>
<polygon fill="#1414ce" stroke="#1414ce" points="994.22,-190.2 991.01,-180.1 987.23,-190 994.22,-190.2"/>
</a>
</g>
</g>
<!-- 7 -->
<g id="node27" class="node">
<title>7</title>
<g id="a_node27"><a xlink:title="stdio.h">
<polygon fill="#ffffff" stroke="black" points="603,-108 538,-108 538,-72 603,-72 603,-108"/>
<text text-anchor="middle" x="570.5" y="-86.3" font-family="Times,serif" font-size="14.00">stdio.h</text>
</a>
</g>
</g>
<!-- 24&#45;&gt;7 -->
<g id="edge50" class="edge">
<title>24&#45;&gt;7</title>
<g id="a_edge50"><a xlink:title="include">
<path fill="none" stroke="#1414ce" d="M946.63,-218.47C866.12,-191.19 693.23,-132.59 613,-105.4"/>
<polygon fill="#1414ce" stroke="#1414ce" points="613.83,-101.99 603.23,-102.09 611.58,-108.62 613.83,-101.99"/>
</a>
</g>
</g>
<!-- 3&#45;&gt;10 -->
<g id="edge59" class="edge">
<title>3&#45;&gt;10</title>
<g id="a_edge59"><a xlink:title="include">
<path fill="none" stroke="#1414ce" d="M388.96,-447.03C354.51,-443.06 301.34,-431.22 273.5,-396 243.66,-358.24 250.72,-333.81 265.5,-288 269.12,-276.79 310.41,-221.76 335.79,-188.57"/>
<polygon fill="#1414ce" stroke="#1414ce" points="338.87,-190.31 342.18,-180.24 333.31,-186.05 338.87,-190.31"/>
</a>
</g>
</g>
<!-- 3&#45;&gt;11 -->
<g id="edge60" class="edge">
<title>3&#45;&gt;11</title>
<g id="a_edge60"><a xlink:title="include">
<path fill="none" stroke="#1414ce" d="M435.1,-431.7C441.62,-423.39 449.57,-413.28 456.75,-404.14"/>
<polygon fill="#1414ce" stroke="#1414ce" points="459.63,-406.13 463.06,-396.1 454.13,-401.81 459.63,-406.13"/>
</a>
</g>
</g>
<!-- 3&#45;&gt;15 -->
<g id="edge61" class="edge">
<title>3&#45;&gt;15</title>
<g id="a_edge61"><a xlink:title="include">
<path fill="none" stroke="#1414ce" d="M388.82,-445.54C335.61,-439.17 233.99,-423.62 212.5,-396 182.07,-356.89 204.17,-295.74 221.08,-261.15"/>
<polygon fill="#1414ce" stroke="#1414ce" points="224.25,-262.63 225.66,-252.13 218.01,-259.46 224.25,-262.63"/>
</a>
</g>
</g>
<!-- 3&#45;&gt;20 -->
<g id="edge62" class="edge">
<title>3&#45;&gt;20</title>
<g id="a_edge62"><a xlink:title="include">
<path fill="none" stroke="#1414ce" d="M454.19,-440.56C497.19,-429.45 573.72,-409.68 628.45,-395.54"/>
<polygon fill="#1414ce" stroke="#1414ce" points="629.6,-398.86 638.41,-392.97 627.85,-392.08 629.6,-398.86"/>
</a>
</g>
</g>
<!-- 3&#45;&gt;22 -->
<g id="edge63" class="edge">
<title>3&#45;&gt;22</title>
<g id="a_edge63"><a xlink:title="include">
<path fill="none" stroke="#1414ce" d="M454.09,-440.81C481.4,-432.75 520.35,-418.37 548.5,-396 570.01,-378.91 587.62,-352.79 598.88,-333.26"/>
<polygon fill="#1414ce" stroke="#1414ce" points="602.08,-334.71 603.89,-324.27 595.96,-331.3 602.08,-334.71"/>
</a>
</g>
</g>
<!-- 3&#45;&gt;17 -->
<g id="edge65" class="edge">
<title>3&#45;&gt;17</title>
<g id="a_edge65"><a xlink:title="include">
<path fill="none" stroke="#1414ce" d="M388.84,-448.98C305.64,-448.25 88.59,-441.88 36.5,-396 5.76,-368.92 12.5,-347.97 12.5,-307 12.5,-307 12.5,-307 12.5,-233 12.5,-192.03 12.64,-177.3 36.5,-144 45.25,-131.78 57.77,-121.55 70.26,-113.44"/>
<polygon fill="#1414ce" stroke="#1414ce" points="72.16,-116.38 78.86,-108.17 68.5,-110.41 72.16,-116.38"/>
</a>
</g>
</g>
<!-- 3&#45;&gt;12 -->
<g id="edge64" class="edge">
<title>3&#45;&gt;12</title>
<g id="a_edge64"><a xlink:title="include">
<path fill="none" stroke="#1414ce" d="M454.25,-437.15C474.1,-428.48 498.58,-414.91 514.5,-396 547.36,-356.96 532.87,-334.68 553.5,-288 568.12,-254.9 572.09,-246.54 591.5,-216 597.44,-206.66 604.54,-196.87 611.11,-188.28"/>
<polygon fill="#1414ce" stroke="#1414ce" points="614.06,-190.2 617.44,-180.16 608.53,-185.9 614.06,-190.2"/>
</a>
</g>
</g>
<!-- 3&#45;&gt;5 -->
<g id="edge54" class="edge">
<title>3&#45;&gt;5</title>
<g id="a_edge54"><a xlink:title="include">
<path fill="none" stroke="#1414ce" d="M454.05,-447.19C514.69,-443.08 648.52,-430.58 755.5,-396 890.54,-352.35 966.14,-372.88 1040.5,-252 1052.55,-232.41 1039.3,-154.75 1030.5,-144 1006.35,-114.47 964.67,-101.37 931.21,-95.57"/>
<polygon fill="#1414ce" stroke="#1414ce" points="931.54,-92.08 921.12,-94 930.46,-99 931.54,-92.08"/>
</a>
</g>
</g>
<!-- 3&#45;&gt;6 -->
<g id="edge55" class="edge">
<title>3&#45;&gt;6</title>
<g id="a_edge55"><a xlink:title="include">
<path fill="none" stroke="#1414ce" d="M388.65,-446.87C338.64,-442.61 241.31,-430.28 166.5,-396 107.43,-368.93 50.5,-371.98 50.5,-307 50.5,-307 50.5,-307 50.5,-233 50.5,-192.55 42.19,-173.83 69.5,-144 106.24,-103.87 136.21,-128.77 186.5,-108 233.29,-88.68 284.37,-60.76 317.98,-41.36"/>
<polygon fill="#1414ce" stroke="#1414ce" points="320.1,-44.18 326.98,-36.13 316.58,-38.13 320.1,-44.18"/>
</a>
</g>
</g>
<!-- 3&#45;&gt;7 -->
<g id="edge56" class="edge">
<title>3&#45;&gt;7</title>
<g id="a_edge56"><a xlink:title="include">
<path fill="none" stroke="#1414ce" d="M417.49,-431.85C409.02,-391.78 392.84,-289.8 427.5,-216 448.86,-170.52 495.46,-134.89 529.68,-113.5"/>
<polygon fill="#1414ce" stroke="#1414ce" points="531.81,-116.31 538.53,-108.12 528.17,-110.33 531.81,-116.31"/>
</a>
</g>
</g>
<!-- 3&#45;&gt;8 -->
<g id="edge57" class="edge">
<title>3&#45;&gt;8</title>
<g id="a_edge57"><a xlink:title="include">
<path fill="none" stroke="#1414ce" d="M388.56,-446.02C331.85,-440.16 219.46,-425.11 194.5,-396 142.33,-335.16 149.18,-288.43 183.5,-216 223.38,-131.85 341.13,-104.21 406.85,-95.24"/>
<polygon fill="#1414ce" stroke="#1414ce" points="407.46,-98.69 416.93,-93.95 406.57,-91.74 407.46,-98.69"/>
</a>
</g>
</g>
<!-- 3&#45;&gt;9 -->
<g id="edge58" class="edge">
<title>3&#45;&gt;9</title>
<g id="a_edge58"><a xlink:title="include">
<path fill="none" stroke="#1414ce" d="M388.87,-446.67C356.05,-442.39 307.05,-430.27 283.5,-396 270.35,-376.87 280.7,-351.27 292.36,-332.43"/>
<polygon fill="#1414ce" stroke="#1414ce" points="295.31,-334.32 297.9,-324.05 289.47,-330.46 295.31,-334.32"/>
</a>
</g>
</g>
<!-- 4 -->
<g id="node30" class="node">
<title>4</title>
<g id="a_node30"><a xlink:title="sys/types.h">
<polygon fill="#ffffff" stroke="black" points="390,-396 293,-396 293,-360 390,-360 390,-396"/>
<text text-anchor="middle" x="341.5" y="-374.3" font-family="Times,serif" font-size="14.00">sys/types.h</text>
</a>
</g>
</g>
<!-- 3&#45;&gt;4 -->
<g id="edge53" class="edge">
<title>3&#45;&gt;4</title>
<g id="a_edge53"><a xlink:title="include">
<path fill="none" stroke="#1414ce" d="M401.72,-431.7C391.75,-422.97 379.49,-412.24 368.64,-402.75"/>
<polygon fill="#1414ce" stroke="#1414ce" points="370.88,-400.06 361.05,-396.1 366.27,-405.32 370.88,-400.06"/>
</a>
</g>
</g>
<!-- 18 -->
<g id="node21" class="node">
<title>18</title>
<g id="a_node21"><a xlink:title="assert.h">
<polygon fill="#ffffff" stroke="black" points="163.5,-36 89.5,-36 89.5,0 163.5,0 163.5,-36"/>
<text text-anchor="middle" x="126.5" y="-14.3" font-family="Times,serif" font-size="14.00">assert.h</text>
</a>
</g>
</g>
<!-- 17&#45;&gt;18 -->
<g id="edge66" class="edge">
<title>17&#45;&gt;18</title>
<g id="a_edge66"><a xlink:title="include">
<path fill="none" stroke="#1414ce" d="M118.22,-71.7C119.43,-63.98 120.89,-54.71 122.24,-46.11"/>
<polygon fill="#1414ce" stroke="#1414ce" points="125.72,-46.53 123.81,-36.1 118.8,-45.44 125.72,-46.53"/>
</a>
</g>
</g>
<!-- 13 -->
<g id="node22" class="node">
<title>13</title>
<g id="a_node22"><a xlink:title="inttypes.h">
<polygon fill="#ffffff" stroke="black" points="291,-36 202,-36 202,0 291,0 291,-36"/>
<text text-anchor="middle" x="246.5" y="-14.3" font-family="Times,serif" font-size="14.00">inttypes.h</text>
</a>
</g>
</g>
<!-- 17&#45;&gt;13 -->
<g id="edge68" class="edge">
<title>17&#45;&gt;13</title>
<g id="a_edge68"><a xlink:title="include">
<path fill="none" stroke="#1414ce" d="M147.55,-71.88C164.99,-62.55 186.77,-50.92 205.44,-40.94"/>
<polygon fill="#1414ce" stroke="#1414ce" points="207.16,-43.99 214.33,-36.19 203.86,-37.82 207.16,-43.99"/>
</a>
</g>
</g>
<!-- 19 -->
<g id="node23" class="node">
<title>19</title>
<g id="a_node23"><a xlink:title="limits.h">
<polygon fill="#ffffff" stroke="black" points="71,-36 0,-36 0,0 71,0 71,-36"/>
<text text-anchor="middle" x="35.5" y="-14.3" font-family="Times,serif" font-size="14.00">limits.h</text>
</a>
</g>
</g>
<!-- 17&#45;&gt;19 -->
<g id="edge67" class="edge">
<title>17&#45;&gt;19</title>
<g id="a_edge67"><a xlink:title="include">
<path fill="none" stroke="#1414ce" d="M95.72,-71.7C85.75,-62.97 73.49,-52.24 62.64,-42.75"/>
<polygon fill="#1414ce" stroke="#1414ce" points="64.88,-40.06 55.05,-36.1 60.27,-45.32 64.88,-40.06"/>
</a>
</g>
</g>
<!-- 17&#45;&gt;6 -->
<g id="edge69" class="edge">
<title>17&#45;&gt;6</title>
<g id="a_edge69"><a xlink:title="include">
<path fill="none" stroke="#1414ce" d="M175.64,-71.91C211.62,-61.63 258.22,-48.21 299.5,-36 302.82,-35.02 306.24,-34 309.68,-32.97"/>
<polygon fill="#1414ce" stroke="#1414ce" points="310.81,-36.28 319.37,-30.05 308.79,-29.58 310.81,-36.28"/>
</a>
</g>
</g>
<!-- 29&#45;&gt;21 -->
<g id="edge72" class="edge">
<title>29&#45;&gt;21</title>
<g id="a_edge72"><a xlink:title="include">
<path fill="none" stroke="#1414ce" d="M1202.38,-228.34C1144.39,-221.95 1045.22,-208.25 953.43,-179.84"/>
<polygon fill="#1414ce" stroke="#1414ce" points="954.3,-176.45 943.71,-176.77 952.19,-183.12 954.3,-176.45"/>
</a>
</g>
</g>
<!-- 29&#45;&gt;5 -->
<g id="edge70" class="edge">
<title>29&#45;&gt;5</title>
<g id="a_edge70"><a xlink:title="include">
<path fill="none" stroke="#1414ce" d="M1234.28,-215.81C1210.7,-192.63 1169.16,-153.19 1150.5,-144 1112.61,-125.34 998.49,-107.26 931.03,-97.8"/>
<polygon fill="#1414ce" stroke="#1414ce" points="931.41,-94.32 921.03,-96.41 930.45,-101.25 931.41,-94.32"/>
</a>
</g>
</g>
<!-- 29&#45;&gt;6 -->
<g id="edge71" class="edge">
<title>29&#45;&gt;6</title>
<g id="a_edge71"><a xlink:title="include">
<path fill="none" stroke="#1414ce" d="M1244.23,-215.75C1228.52,-180.98 1187.7,-103.15 1125.5,-72 1060.86,-39.63 558.08,-24.17 401.73,-20.12"/>
<polygon fill="#1414ce" stroke="#1414ce" points="401.6,-16.61 391.52,-19.85 401.42,-23.61 401.6,-16.61"/>
</a>
</g>
</g>
<!-- 12&#45;&gt;13 -->
<g id="edge73" class="edge">
<title>12&#45;&gt;13</title>
<g id="a_edge73"><a xlink:title="include">
<path fill="none" stroke="#1414ce" d="M633.01,-143.72C633.75,-123.37 631.48,-90.04 611.5,-72 561.5,-26.86 376.66,-48.68 310.5,-36 307.34,-35.39 304.1,-34.72 300.85,-33.99"/>
<polygon fill="#1414ce" stroke="#1414ce" points="301.61,-30.58 291.07,-31.7 300.01,-37.39 301.61,-30.58"/>
</a>
</g>
</g>
<!-- 12&#45;&gt;5 -->
<g id="edge74" class="edge">
<title>12&#45;&gt;5</title>
<g id="a_edge74"><a xlink:title="include">
<path fill="none" stroke="#1414ce" d="M662.66,-152.21C704.25,-140.47 778.44,-119.53 828.31,-105.45"/>
<polygon fill="#1414ce" stroke="#1414ce" points="829.27,-108.82 837.94,-102.73 827.36,-102.08 829.27,-108.82"/>
</a>
</g>
</g>
<!-- 14 -->
<g id="node25" class="node">
<title>14</title>
<g id="a_node25"><a xlink:title="stddef.h">
<polygon fill="#ffffff" stroke="black" points="1116.5,-108 1042.5,-108 1042.5,-72 1116.5,-72 1116.5,-108"/>
<text text-anchor="middle" x="1079.5" y="-86.3" font-family="Times,serif" font-size="14.00">stddef.h</text>
</a>
</g>
</g>
<!-- 12&#45;&gt;14 -->
<g id="edge75" class="edge">
<title>12&#45;&gt;14</title>
<g id="a_edge75"><a xlink:title="include">
<path fill="none" stroke="#1414ce" d="M662.65,-156.13C739.84,-144.07 940.37,-112.74 1032.26,-98.38"/>
<polygon fill="#1414ce" stroke="#1414ce" points="1033.04,-101.8 1042.38,-96.8 1031.96,-94.89 1033.04,-101.8"/>
</a>
</g>
</g>
<!-- 12&#45;&gt;7 -->
<g id="edge76" class="edge">
<title>12&#45;&gt;7</title>
<g id="a_edge76"><a xlink:title="include">
<path fill="none" stroke="#1414ce" d="M616.42,-143.7C609.11,-135.3 600.19,-125.07 592.16,-115.86"/>
<polygon fill="#1414ce" stroke="#1414ce" points="594.61,-113.34 585.41,-108.1 589.34,-117.94 594.61,-113.34"/>
</a>
</g>
</g>
<!-- 12&#45;&gt;8 -->
<g id="edge77" class="edge">
<title>12&#45;&gt;8</title>
<g id="a_edge77"><a xlink:title="include">
<path fill="none" stroke="#1414ce" d="M600.32,-148.81C572,-137.73 529.88,-121.26 497.83,-108.73"/>
<polygon fill="#1414ce" stroke="#1414ce" points="498.83,-105.36 488.24,-104.98 496.28,-111.88 498.83,-105.36"/>
</a>
</g>
</g>
<!-- 30&#45;&gt;14 -->
<g id="edge78" class="edge">
<title>30&#45;&gt;14</title>
<g id="a_edge78"><a xlink:title="include">
<path fill="none" stroke="#1414ce" d="M1256.56,-143.97C1216.57,-132 1163.74,-116.2 1126.23,-104.98"/>
<polygon fill="#1414ce" stroke="#1414ce" points="1127.14,-101.6 1116.55,-102.08 1125.13,-108.3 1127.14,-101.6"/>
</a>
</g>
</g>
<!-- 30&#45;&gt;6 -->
<g id="edge79" class="edge">
<title>30&#45;&gt;6</title>
<g id="a_edge79"><a xlink:title="include">
<path fill="none" stroke="#1414ce" d="M1302.72,-143.9C1288.28,-122.72 1260.5,-87.54 1226.5,-72 1151.3,-37.63 570.98,-23.34 401.7,-19.87"/>
<polygon fill="#1414ce" stroke="#1414ce" points="401.69,-16.37 391.62,-19.67 401.55,-23.37 401.69,-16.37"/>
</a>
</g>
</g>
</g>
</svg>
