<?xml version="1.0" encoding="UTF-8" standalone="no"?>
<!DOCTYPE svg PUBLIC "-//W3C//DTD SVG 1.1//EN"
 "http://www.w3.org/Graphics/SVG/1.1/DTD/svg11.dtd">
<!-- Generated by graphviz version 2.43.0 (0)
 -->
<!-- Title: %3 Pages: 1 -->
<svg width="1128pt" height="548pt"
 viewBox="0.00 0.00 1128.00 548.00" xmlns="http://www.w3.org/2000/svg" xmlns:xlink="http://www.w3.org/1999/xlink">
<g id="graph0" class="graph" transform="scale(1 1) rotate(0) translate(4 544)">
<title>%3</title>
<polygon fill="transparent" stroke="transparent" points="-4,4 -4,-544 1124,-544 1124,4 -4,4"/>
<!-- 13 -->
<g id="node1" class="node">
<title>13</title>
<g id="a_node1"><a xlink:title="atom.h">
<polygon fill="#ffffff" stroke="black" points="1054,-396 988,-396 988,-360 1054,-360 1054,-396"/>
<text text-anchor="middle" x="1021" y="-374.3" font-family="Times,serif" font-size="14.00">atom.h</text>
</a>
</g>
</g>
<!-- 12 -->
<g id="node21" class="node">
<title>12</title>
<g id="a_node21"><a xlink:title="stdint.h">
<polygon fill="#ffffff" stroke="black" points="966,-36 894,-36 894,0 966,0 966,-36"/>
<text text-anchor="middle" x="930" y="-14.3" font-family="Times,serif" font-size="14.00">stdint.h</text>
</a>
</g>
</g>
<!-- 13&#45;&gt;12 -->
<g id="edge1" class="edge">
<title>13&#45;&gt;12</title>
<g id="a_edge1"><a xlink:title="include">
<path fill="none" stroke="#1414ce" d="M1025.65,-359.66C1032.38,-333.05 1044,-280.45 1044,-235 1044,-235 1044,-235 1044,-161 1044,-110 998.73,-66.88 965.24,-41.97"/>
<polygon fill="#1414ce" stroke="#1414ce" points="967.17,-39.05 957.02,-36.04 963.08,-44.73 967.17,-39.05"/>
</a>
</g>
</g>
<!-- 9 -->
<g id="node23" class="node">
<title>9</title>
<g id="a_node23"><a xlink:title="stdlib.h">
<polygon fill="#ffffff" stroke="black" points="946.5,-108 875.5,-108 875.5,-72 946.5,-72 946.5,-108"/>
<text text-anchor="middle" x="911" y="-86.3" font-family="Times,serif" font-size="14.00">stdlib.h</text>
</a>
</g>
</g>
<!-- 13&#45;&gt;9 -->
<g id="edge2" class="edge">
<title>13&#45;&gt;9</title>
<g id="a_edge2"><a xlink:title="include">
<path fill="none" stroke="#1414ce" d="M1022.28,-359.71C1024.48,-318.91 1025.14,-214.73 982,-144 974.72,-132.07 963.67,-121.93 952.44,-113.82"/>
<polygon fill="#1414ce" stroke="#1414ce" points="954.11,-110.73 943.87,-108.01 950.19,-116.52 954.11,-110.73"/>
</a>
</g>
</g>
<!-- 1 -->
<g id="node2" class="node">
<title>1</title>
<g id="a_node2"><a xlink:title="/__w/AtomVM/AtomVM/src/libAtomVM/bitstring.h">
<polygon fill="#bfbfbf" stroke="black" points="415.5,-540 46.5,-540 46.5,-504 415.5,-504 415.5,-540"/>
<text text-anchor="middle" x="231" y="-518.3" font-family="Times,serif" font-size="14.00">/__w/AtomVM/AtomVM/src/libAtomVM/bitstring.h</text>
</a>
</g>
</g>
<!-- 2 -->
<g id="node4" class="node">
<title>2</title>
<g id="a_node4"><a xlink:title="intn.h">
<polygon fill="#ffffff" stroke="black" points="260.5,-396 201.5,-396 201.5,-360 260.5,-360 260.5,-396"/>
<text text-anchor="middle" x="231" y="-374.3" font-family="Times,serif" font-size="14.00">intn.h</text>
</a>
</g>
</g>
<!-- 1&#45;&gt;2 -->
<g id="edge3" class="edge">
<title>1&#45;&gt;2</title>
<g id="a_edge3"><a xlink:title="include">
<path fill="none" stroke="#1414ce" d="M231,-503.87C231,-479.67 231,-435.21 231,-406.39"/>
<polygon fill="#1414ce" stroke="#1414ce" points="234.5,-406.19 231,-396.19 227.5,-406.19 234.5,-406.19"/>
</a>
</g>
</g>
<!-- 10 -->
<g id="node12" class="node">
<title>10</title>
<g id="a_node12"><a xlink:title="term.h">
<polygon fill="#ffffff" stroke="black" points="638.5,-468 573.5,-468 573.5,-432 638.5,-432 638.5,-468"/>
<text text-anchor="middle" x="606" y="-446.3" font-family="Times,serif" font-size="14.00">term.h</text>
</a>
</g>
</g>
<!-- 1&#45;&gt;10 -->
<g id="edge4" class="edge">
<title>1&#45;&gt;10</title>
<g id="a_edge4"><a xlink:title="include">
<path fill="none" stroke="#1414ce" d="M322.26,-503.97C398.95,-489.65 505.12,-469.83 563.42,-458.95"/>
<polygon fill="#1414ce" stroke="#1414ce" points="564.2,-462.36 573.39,-457.09 562.92,-455.48 564.2,-462.36"/>
</a>
</g>
</g>
<!-- 25 -->
<g id="node14" class="node">
<title>25</title>
<g id="a_node14"><a xlink:title="unicode.h">
<polygon fill="#ffffff" stroke="black" points="86,-180 0,-180 0,-144 86,-144 86,-180"/>
<text text-anchor="middle" x="43" y="-158.3" font-family="Times,serif" font-size="14.00">unicode.h</text>
</a>
</g>
</g>
<!-- 1&#45;&gt;25 -->
<g id="edge5" class="edge">
<title>1&#45;&gt;25</title>
<g id="a_edge5"><a xlink:title="include">
<path fill="none" stroke="#1414ce" d="M161.33,-503.91C139.63,-495.87 116.97,-484.34 100,-468 68.76,-437.92 60,-422.37 60,-379 60,-379 60,-379 60,-305 60,-264.93 53.24,-218.95 48.25,-190.43"/>
<polygon fill="#1414ce" stroke="#1414ce" points="51.66,-189.63 46.44,-180.41 44.77,-190.87 51.66,-189.63"/>
</a>
</g>
</g>
<!-- 3 -->
<g id="node19" class="node">
<title>3</title>
<g id="a_node19"><a xlink:title="stdbool.h">
<polygon fill="#ffffff" stroke="black" points="269.5,-108 186.5,-108 186.5,-72 269.5,-72 269.5,-108"/>
<text text-anchor="middle" x="228" y="-86.3" font-family="Times,serif" font-size="14.00">stdbool.h</text>
</a>
</g>
</g>
<!-- 1&#45;&gt;3 -->
<g id="edge6" class="edge">
<title>1&#45;&gt;3</title>
<g id="a_edge6"><a xlink:title="include">
<path fill="none" stroke="#1414ce" d="M202.98,-503.94C168.36,-480.47 114,-434.74 114,-379 114,-379 114,-379 114,-233 114,-182 159.27,-138.88 192.76,-113.97"/>
<polygon fill="#1414ce" stroke="#1414ce" points="194.92,-116.73 200.98,-108.04 190.83,-111.05 194.92,-116.73"/>
</a>
</g>
</g>
<!-- 1&#45;&gt;12 -->
<g id="edge7" class="edge">
<title>1&#45;&gt;12</title>
<g id="a_edge7"><a xlink:title="include">
<path fill="none" stroke="#1414ce" d="M415.74,-509.75C676.21,-491.37 1120,-449.68 1120,-379 1120,-379 1120,-379 1120,-161 1120,-89.33 1032.17,-49.47 975.95,-31.3"/>
<polygon fill="#1414ce" stroke="#1414ce" points="976.77,-27.9 966.18,-28.26 974.69,-34.58 976.77,-27.9"/>
</a>
</g>
</g>
<!-- 15 -->
<g id="node3" class="node">
<title>15</title>
<g id="a_node3"><a xlink:title="erl_nif.h">
<polygon fill="#ffffff" stroke="black" points="674,-180 600,-180 600,-144 674,-144 674,-180"/>
<text text-anchor="middle" x="637" y="-158.3" font-family="Times,serif" font-size="14.00">erl_nif.h</text>
</a>
</g>
</g>
<!-- 16 -->
<g id="node13" class="node">
<title>16</title>
<g id="a_node13"><a xlink:title="term_typedef.h">
<polygon fill="#ffffff" stroke="black" points="755.5,-108 630.5,-108 630.5,-72 755.5,-72 755.5,-108"/>
<text text-anchor="middle" x="693" y="-86.3" font-family="Times,serif" font-size="14.00">term_typedef.h</text>
</a>
</g>
</g>
<!-- 15&#45;&gt;16 -->
<g id="edge8" class="edge">
<title>15&#45;&gt;16</title>
<g id="a_edge8"><a xlink:title="include">
<path fill="none" stroke="#1414ce" d="M650.84,-143.7C657.49,-135.39 665.58,-125.28 672.89,-116.14"/>
<polygon fill="#1414ce" stroke="#1414ce" points="675.8,-118.1 679.32,-108.1 670.34,-113.73 675.8,-118.1"/>
</a>
</g>
</g>
<!-- 5 -->
<g id="node15" class="node">
<title>5</title>
<g id="a_node15"><a xlink:title="utils.h">
<polygon fill="#ffffff" stroke="black" points="318,-180 256,-180 256,-144 318,-144 318,-180"/>
<text text-anchor="middle" x="287" y="-158.3" font-family="Times,serif" font-size="14.00">utils.h</text>
</a>
</g>
</g>
<!-- 2&#45;&gt;5 -->
<g id="edge11" class="edge">
<title>2&#45;&gt;5</title>
<g id="a_edge11"><a xlink:title="include">
<path fill="none" stroke="#1414ce" d="M233.4,-359.8C236.08,-341.76 240.86,-312.68 247,-288 255.56,-253.6 268.48,-214.85 277.31,-189.74"/>
<polygon fill="#1414ce" stroke="#1414ce" points="280.66,-190.78 280.7,-180.18 274.06,-188.44 280.66,-190.78"/>
</a>
</g>
</g>
<!-- 2&#45;&gt;3 -->
<g id="edge9" class="edge">
<title>2&#45;&gt;3</title>
<g id="a_edge9"><a xlink:title="include">
<path fill="none" stroke="#1414ce" d="M227.42,-359.98C219.81,-321.41 203.55,-224.44 214,-144 215.1,-135.51 217.16,-126.43 219.37,-118.24"/>
<polygon fill="#1414ce" stroke="#1414ce" points="222.78,-119.02 222.18,-108.44 216.05,-117.09 222.78,-119.02"/>
</a>
</g>
</g>
<!-- 4 -->
<g id="node24" class="node">
<title>4</title>
<g id="a_node24"><a xlink:title="string.h">
<polygon fill="#ffffff" stroke="black" points="329.5,-324 256.5,-324 256.5,-288 329.5,-288 329.5,-324"/>
<text text-anchor="middle" x="293" y="-302.3" font-family="Times,serif" font-size="14.00">string.h</text>
</a>
</g>
</g>
<!-- 2&#45;&gt;4 -->
<g id="edge10" class="edge">
<title>2&#45;&gt;4</title>
<g id="a_edge10"><a xlink:title="include">
<path fill="none" stroke="#1414ce" d="M246.33,-359.7C253.76,-351.3 262.82,-341.07 270.98,-331.86"/>
<polygon fill="#1414ce" stroke="#1414ce" points="273.84,-333.91 277.85,-324.1 268.6,-329.27 273.84,-333.91"/>
</a>
</g>
</g>
<!-- 20 -->
<g id="node5" class="node">
<title>20</title>
<g id="a_node5"><a xlink:title="list.h">
<polygon fill="#ffffff" stroke="black" points="390,-180 336,-180 336,-144 390,-144 390,-180"/>
<text text-anchor="middle" x="363" y="-158.3" font-family="Times,serif" font-size="14.00">list.h</text>
</a>
</g>
</g>
<!-- 20&#45;&gt;3 -->
<g id="edge12" class="edge">
<title>20&#45;&gt;3</title>
<g id="a_edge12"><a xlink:title="include">
<path fill="none" stroke="#1414ce" d="M335.68,-146.83C316.8,-137.05 291.34,-123.84 269.91,-112.73"/>
<polygon fill="#1414ce" stroke="#1414ce" points="271.49,-109.61 261,-108.11 268.27,-115.82 271.49,-109.61"/>
</a>
</g>
</g>
<!-- 22 -->
<g id="node6" class="node">
<title>22</title>
<g id="a_node6"><a xlink:title="mailbox.h">
<polygon fill="#ffffff" stroke="black" points="494,-252 408,-252 408,-216 494,-216 494,-252"/>
<text text-anchor="middle" x="451" y="-230.3" font-family="Times,serif" font-size="14.00">mailbox.h</text>
</a>
</g>
</g>
<!-- 22&#45;&gt;20 -->
<g id="edge14" class="edge">
<title>22&#45;&gt;20</title>
<g id="a_edge14"><a xlink:title="include">
<path fill="none" stroke="#1414ce" d="M429.25,-215.7C418.16,-206.88 404.53,-196.03 392.51,-186.47"/>
<polygon fill="#1414ce" stroke="#1414ce" points="394.51,-183.59 384.5,-180.1 390.15,-189.07 394.51,-183.59"/>
</a>
</g>
</g>
<!-- 22&#45;&gt;16 -->
<g id="edge15" class="edge">
<title>22&#45;&gt;16</title>
<g id="a_edge15"><a xlink:title="include">
<path fill="none" stroke="#1414ce" d="M450.72,-215.69C451.38,-195.62 455.64,-162.88 475,-144 480.4,-138.73 559.06,-120.44 620.35,-106.81"/>
<polygon fill="#1414ce" stroke="#1414ce" points="621.41,-110.16 630.41,-104.58 619.89,-103.33 621.41,-110.16"/>
</a>
</g>
</g>
<!-- 22&#45;&gt;5 -->
<g id="edge16" class="edge">
<title>22&#45;&gt;5</title>
<g id="a_edge16"><a xlink:title="include">
<path fill="none" stroke="#1414ce" d="M410.88,-215.88C385.57,-205.07 352.98,-191.16 327.59,-180.32"/>
<polygon fill="#1414ce" stroke="#1414ce" points="328.81,-177.04 318.23,-176.33 326.06,-183.48 328.81,-177.04"/>
</a>
</g>
</g>
<!-- 22&#45;&gt;3 -->
<g id="edge13" class="edge">
<title>22&#45;&gt;3</title>
<g id="a_edge13"><a xlink:title="include">
<path fill="none" stroke="#1414ce" d="M445.27,-215.67C437.76,-195.57 422.68,-162.81 399,-144 364.63,-116.7 316.14,-103.39 279.57,-96.94"/>
<polygon fill="#1414ce" stroke="#1414ce" points="280.03,-93.47 269.6,-95.3 278.89,-100.38 280.03,-93.47"/>
</a>
</g>
</g>
<!-- 14 -->
<g id="node7" class="node">
<title>14</title>
<g id="a_node7"><a xlink:title="memory.h">
<polygon fill="#ffffff" stroke="black" points="740,-252 654,-252 654,-216 740,-216 740,-252"/>
<text text-anchor="middle" x="697" y="-230.3" font-family="Times,serif" font-size="14.00">memory.h</text>
</a>
</g>
</g>
<!-- 14&#45;&gt;15 -->
<g id="edge19" class="edge">
<title>14&#45;&gt;15</title>
<g id="a_edge19"><a xlink:title="include">
<path fill="none" stroke="#1414ce" d="M682.17,-215.7C674.98,-207.3 666.2,-197.07 658.31,-187.86"/>
<polygon fill="#1414ce" stroke="#1414ce" points="660.83,-185.42 651.66,-180.1 655.51,-189.97 660.83,-185.42"/>
</a>
</g>
</g>
<!-- 14&#45;&gt;16 -->
<g id="edge20" class="edge">
<title>14&#45;&gt;16</title>
<g id="a_edge20"><a xlink:title="include">
<path fill="none" stroke="#1414ce" d="M696.52,-215.87C695.84,-191.67 694.58,-147.21 693.77,-118.39"/>
<polygon fill="#1414ce" stroke="#1414ce" points="697.26,-118.09 693.48,-108.19 690.27,-118.28 697.26,-118.09"/>
</a>
</g>
</g>
<!-- 14&#45;&gt;5 -->
<g id="edge21" class="edge">
<title>14&#45;&gt;5</title>
<g id="a_edge21"><a xlink:title="include">
<path fill="none" stroke="#1414ce" d="M653.6,-224.27C638.84,-221.44 622.23,-218.42 607,-216 486.23,-196.85 449.93,-212.03 327.87,-179.81"/>
<polygon fill="#1414ce" stroke="#1414ce" points="328.72,-176.42 318.15,-177.2 326.9,-183.18 328.72,-176.42"/>
</a>
</g>
</g>
<!-- 14&#45;&gt;12 -->
<g id="edge17" class="edge">
<title>14&#45;&gt;12</title>
<g id="a_edge17"><a xlink:title="include">
<path fill="none" stroke="#1414ce" d="M714.55,-215.73C745.03,-185.87 809.99,-122.89 867,-72 877.96,-62.21 890.28,-51.74 901.09,-42.71"/>
<polygon fill="#1414ce" stroke="#1414ce" points="903.57,-45.21 909.02,-36.12 899.1,-39.82 903.57,-45.21"/>
</a>
</g>
</g>
<!-- 14&#45;&gt;9 -->
<g id="edge18" class="edge">
<title>14&#45;&gt;9</title>
<g id="a_edge18"><a xlink:title="include">
<path fill="none" stroke="#1414ce" d="M740.17,-221.28C767.46,-212.6 802.62,-198.97 830,-180 855.13,-162.59 878,-136 892.98,-116.42"/>
<polygon fill="#1414ce" stroke="#1414ce" points="895.91,-118.34 899.09,-108.23 890.31,-114.15 895.91,-118.34"/>
</a>
</g>
</g>
<!-- 19 -->
<g id="node8" class="node">
<title>19</title>
<g id="a_node8"><a xlink:title="refc_binary.h">
<polygon fill="#ffffff" stroke="black" points="500,-396 392,-396 392,-360 500,-360 500,-396"/>
<text text-anchor="middle" x="446" y="-374.3" font-family="Times,serif" font-size="14.00">refc_binary.h</text>
</a>
</g>
</g>
<!-- 19&#45;&gt;20 -->
<g id="edge24" class="edge">
<title>19&#45;&gt;20</title>
<g id="a_edge24"><a xlink:title="include">
<path fill="none" stroke="#1414ce" d="M441.46,-359.87C435.97,-341.13 425.49,-310.72 410,-288 396.89,-268.78 382.26,-272.88 372,-252 362.56,-232.77 360.68,-208.43 360.95,-190.06"/>
<polygon fill="#1414ce" stroke="#1414ce" points="364.45,-190.15 361.32,-180.02 357.45,-189.89 364.45,-190.15"/>
</a>
</g>
</g>
<!-- 21 -->
<g id="node9" class="node">
<title>21</title>
<g id="a_node9"><a xlink:title="resources.h">
<polygon fill="#ffffff" stroke="black" points="632,-324 532,-324 532,-288 632,-288 632,-324"/>
<text text-anchor="middle" x="582" y="-302.3" font-family="Times,serif" font-size="14.00">resources.h</text>
</a>
</g>
</g>
<!-- 19&#45;&gt;21 -->
<g id="edge25" class="edge">
<title>19&#45;&gt;21</title>
<g id="a_edge25"><a xlink:title="include">
<path fill="none" stroke="#1414ce" d="M479.27,-359.88C497.46,-350.51 520.19,-338.81 539.64,-328.8"/>
<polygon fill="#1414ce" stroke="#1414ce" points="541.31,-331.88 548.6,-324.19 538.11,-325.65 541.31,-331.88"/>
</a>
</g>
</g>
<!-- 19&#45;&gt;3 -->
<g id="edge22" class="edge">
<title>19&#45;&gt;3</title>
<g id="a_edge22"><a xlink:title="include">
<path fill="none" stroke="#1414ce" d="M425.98,-359.86C380.29,-320.35 270.5,-222.97 247,-180 236.54,-160.88 231.84,-136.53 229.72,-118.13"/>
<polygon fill="#1414ce" stroke="#1414ce" points="233.2,-117.69 228.75,-108.07 226.23,-118.36 233.2,-117.69"/>
</a>
</g>
</g>
<!-- 19&#45;&gt;9 -->
<g id="edge23" class="edge">
<title>19&#45;&gt;9</title>
<g id="a_edge23"><a xlink:title="include">
<path fill="none" stroke="#1414ce" d="M500.07,-362.52C555.39,-347.68 634.19,-326.42 641,-324 715.23,-297.59 736.14,-293.69 803,-252 845.3,-225.62 862.6,-222.29 889,-180 900.63,-161.38 906.11,-136.99 908.7,-118.45"/>
<polygon fill="#1414ce" stroke="#1414ce" points="912.2,-118.64 909.91,-108.3 905.25,-117.81 912.2,-118.64"/>
</a>
</g>
</g>
<!-- 21&#45;&gt;15 -->
<g id="edge27" class="edge">
<title>21&#45;&gt;15</title>
<g id="a_edge27"><a xlink:title="include">
<path fill="none" stroke="#1414ce" d="M590.85,-287.56C595.88,-277.33 602.13,-264.08 607,-252 615.25,-231.52 623.17,-207.8 628.79,-190"/>
<polygon fill="#1414ce" stroke="#1414ce" points="632.19,-190.86 631.83,-180.28 625.51,-188.78 632.19,-190.86"/>
</a>
</g>
</g>
<!-- 21&#45;&gt;20 -->
<g id="edge28" class="edge">
<title>21&#45;&gt;20</title>
<g id="a_edge28"><a xlink:title="include">
<path fill="none" stroke="#1414ce" d="M531.99,-302.27C491.58,-297.56 435.59,-285.02 399,-252 381.27,-236 372.11,-210.04 367.48,-190.27"/>
<polygon fill="#1414ce" stroke="#1414ce" points="370.87,-189.38 365.4,-180.31 364.02,-190.82 370.87,-189.38"/>
</a>
</g>
</g>
<!-- 21&#45;&gt;22 -->
<g id="edge29" class="edge">
<title>21&#45;&gt;22</title>
<g id="a_edge29"><a xlink:title="include">
<path fill="none" stroke="#1414ce" d="M549.95,-287.88C532.51,-278.55 510.73,-266.92 492.06,-256.94"/>
<polygon fill="#1414ce" stroke="#1414ce" points="493.64,-253.82 483.17,-252.19 490.34,-259.99 493.64,-253.82"/>
</a>
</g>
</g>
<!-- 21&#45;&gt;14 -->
<g id="edge30" class="edge">
<title>21&#45;&gt;14</title>
<g id="a_edge30"><a xlink:title="include">
<path fill="none" stroke="#1414ce" d="M610.13,-287.88C625.17,-278.72 643.87,-267.34 660.06,-257.48"/>
<polygon fill="#1414ce" stroke="#1414ce" points="662.04,-260.38 668.76,-252.19 658.4,-254.4 662.04,-260.38"/>
</a>
</g>
</g>
<!-- 23 -->
<g id="node11" class="node">
<title>23</title>
<g id="a_node11"><a xlink:title="synclist.h">
<polygon fill="#ffffff" stroke="black" points="597.5,-252 512.5,-252 512.5,-216 597.5,-216 597.5,-252"/>
<text text-anchor="middle" x="555" y="-230.3" font-family="Times,serif" font-size="14.00">synclist.h</text>
</a>
</g>
</g>
<!-- 21&#45;&gt;23 -->
<g id="edge31" class="edge">
<title>21&#45;&gt;23</title>
<g id="a_edge31"><a xlink:title="include">
<path fill="none" stroke="#1414ce" d="M575.33,-287.7C572.29,-279.81 568.62,-270.3 565.24,-261.55"/>
<polygon fill="#1414ce" stroke="#1414ce" points="568.46,-260.17 561.6,-252.1 561.93,-262.69 568.46,-260.17"/>
</a>
</g>
</g>
<!-- 21&#45;&gt;9 -->
<g id="edge26" class="edge">
<title>21&#45;&gt;9</title>
<g id="a_edge26"><a xlink:title="include">
<path fill="none" stroke="#1414ce" d="M632.12,-295.27C694.41,-280.68 800.15,-247.33 863,-180 880.04,-161.75 892.96,-136.31 901.08,-117.3"/>
<polygon fill="#1414ce" stroke="#1414ce" points="904.33,-118.6 904.88,-108.02 897.85,-115.95 904.33,-118.6"/>
</a>
</g>
</g>
<!-- 24 -->
<g id="node10" class="node">
<title>24</title>
<g id="a_node10"><a xlink:title="smp.h">
<polygon fill="#ffffff" stroke="black" points="544,-180 484,-180 484,-144 544,-144 544,-180"/>
<text text-anchor="middle" x="514" y="-158.3" font-family="Times,serif" font-size="14.00">smp.h</text>
</a>
</g>
</g>
<!-- 24&#45;&gt;3 -->
<g id="edge32" class="edge">
<title>24&#45;&gt;3</title>
<g id="a_edge32"><a xlink:title="include">
<path fill="none" stroke="#1414ce" d="M483.93,-153.64C435.4,-141.76 339.21,-118.22 279.57,-103.62"/>
<polygon fill="#1414ce" stroke="#1414ce" points="280.14,-100.16 269.6,-101.18 278.48,-106.96 280.14,-100.16"/>
</a>
</g>
</g>
<!-- 23&#45;&gt;20 -->
<g id="edge34" class="edge">
<title>23&#45;&gt;20</title>
<g id="a_edge34"><a xlink:title="include">
<path fill="none" stroke="#1414ce" d="M512.39,-217.46C478.55,-205.13 431.73,-188.06 399.57,-176.33"/>
<polygon fill="#1414ce" stroke="#1414ce" points="400.69,-173.02 390.1,-172.88 398.29,-179.59 400.69,-173.02"/>
</a>
</g>
</g>
<!-- 23&#45;&gt;24 -->
<g id="edge35" class="edge">
<title>23&#45;&gt;24</title>
<g id="a_edge35"><a xlink:title="include">
<path fill="none" stroke="#1414ce" d="M544.87,-215.7C540.15,-207.64 534.44,-197.89 529.22,-188.98"/>
<polygon fill="#1414ce" stroke="#1414ce" points="532.09,-186.96 524.02,-180.1 526.05,-190.5 532.09,-186.96"/>
</a>
</g>
</g>
<!-- 8 -->
<g id="node22" class="node">
<title>8</title>
<g id="a_node22"><a xlink:title="stdio.h">
<polygon fill="#ffffff" stroke="black" points="604.5,-108 539.5,-108 539.5,-72 604.5,-72 604.5,-108"/>
<text text-anchor="middle" x="572" y="-86.3" font-family="Times,serif" font-size="14.00">stdio.h</text>
</a>
</g>
</g>
<!-- 23&#45;&gt;8 -->
<g id="edge33" class="edge">
<title>23&#45;&gt;8</title>
<g id="a_edge33"><a xlink:title="include">
<path fill="none" stroke="#1414ce" d="M557.05,-215.87C559.95,-191.67 565.27,-147.21 568.72,-118.39"/>
<polygon fill="#1414ce" stroke="#1414ce" points="572.23,-118.53 569.94,-108.19 565.28,-117.7 572.23,-118.53"/>
</a>
</g>
</g>
<!-- 10&#45;&gt;13 -->
<g id="edge42" class="edge">
<title>10&#45;&gt;13</title>
<g id="a_edge42"><a xlink:title="include">
<path fill="none" stroke="#1414ce" d="M638.92,-446.53C703.82,-441.15 852.52,-426.38 974,-396 975.42,-395.64 976.86,-395.26 978.3,-394.86"/>
<polygon fill="#1414ce" stroke="#1414ce" points="979.34,-398.2 987.88,-391.93 977.3,-391.51 979.34,-398.2"/>
</a>
</g>
</g>
<!-- 10&#45;&gt;2 -->
<g id="edge43" class="edge">
<title>10&#45;&gt;2</title>
<g id="a_edge43"><a xlink:title="include">
<path fill="none" stroke="#1414ce" d="M573.24,-444.62C515.88,-436.7 393.71,-418.69 292,-396 285.08,-394.46 277.77,-392.61 270.72,-390.71"/>
<polygon fill="#1414ce" stroke="#1414ce" points="271.2,-387.22 260.63,-387.93 269.34,-393.96 271.2,-387.22"/>
</a>
</g>
</g>
<!-- 10&#45;&gt;14 -->
<g id="edge44" class="edge">
<title>10&#45;&gt;14</title>
<g id="a_edge44"><a xlink:title="include">
<path fill="none" stroke="#1414ce" d="M618.38,-431.93C625.35,-421.82 633.85,-408.57 640,-396 662.12,-350.82 679.95,-294.82 689.47,-262.18"/>
<polygon fill="#1414ce" stroke="#1414ce" points="692.87,-263.02 692.26,-252.45 686.14,-261.09 692.87,-263.02"/>
</a>
</g>
</g>
<!-- 10&#45;&gt;19 -->
<g id="edge45" class="edge">
<title>10&#45;&gt;19</title>
<g id="a_edge45"><a xlink:title="include">
<path fill="none" stroke="#1414ce" d="M573.24,-434.67C550.54,-424.73 519.93,-411.35 494.43,-400.19"/>
<polygon fill="#1414ce" stroke="#1414ce" points="495.49,-396.83 484.93,-396.03 492.69,-403.25 495.49,-396.83"/>
</a>
</g>
</g>
<!-- 10&#45;&gt;21 -->
<g id="edge46" class="edge">
<title>10&#45;&gt;21</title>
<g id="a_edge46"><a xlink:title="include">
<path fill="none" stroke="#1414ce" d="M615.11,-431.91C623.55,-413.72 633.61,-384.27 625,-360 621.34,-349.68 614.71,-339.9 607.74,-331.61"/>
<polygon fill="#1414ce" stroke="#1414ce" points="610.33,-329.26 601.04,-324.16 605.13,-333.94 610.33,-329.26"/>
</a>
</g>
</g>
<!-- 10&#45;&gt;16 -->
<g id="edge48" class="edge">
<title>10&#45;&gt;16</title>
<g id="a_edge48"><a xlink:title="include">
<path fill="none" stroke="#1414ce" d="M626.05,-431.96C637.06,-422.07 650.54,-409.03 661,-396 707.94,-337.5 728.69,-324.2 749,-252 762.7,-203.31 733.14,-147.86 711.98,-116.39"/>
<polygon fill="#1414ce" stroke="#1414ce" points="714.86,-114.39 706.28,-108.17 709.11,-118.38 714.86,-114.39"/>
</a>
</g>
</g>
<!-- 10&#45;&gt;5 -->
<g id="edge47" class="edge">
<title>10&#45;&gt;5</title>
<g id="a_edge47"><a xlink:title="include">
<path fill="none" stroke="#1414ce" d="M573.17,-444.92C518.35,-437.52 411.4,-420.34 383,-396 343.65,-362.27 358.73,-335.93 339,-288 325.02,-254.04 308.73,-214.97 298.16,-189.67"/>
<polygon fill="#1414ce" stroke="#1414ce" points="301.36,-188.25 294.27,-180.37 294.9,-190.95 301.36,-188.25"/>
</a>
</g>
</g>
<!-- 10&#45;&gt;3 -->
<g id="edge37" class="edge">
<title>10&#45;&gt;3</title>
<g id="a_edge37"><a xlink:title="include">
<path fill="none" stroke="#1414ce" d="M573.24,-448.83C486.31,-447.77 252.32,-440.71 192,-396 157.16,-370.18 152,-350.37 152,-307 152,-307 152,-307 152,-233 152,-187.64 182.52,-142.75 204.88,-115.95"/>
<polygon fill="#1414ce" stroke="#1414ce" points="207.64,-118.09 211.51,-108.23 202.34,-113.53 207.64,-118.09"/>
</a>
</g>
</g>
<!-- 10&#45;&gt;12 -->
<g id="edge38" class="edge">
<title>10&#45;&gt;12</title>
<g id="a_edge38"><a xlink:title="include">
<path fill="none" stroke="#1414ce" d="M638.73,-447.38C738.14,-442.18 1031.64,-424.51 1063,-396 1092.92,-368.79 1082,-347.45 1082,-307 1082,-307 1082,-307 1082,-161 1082,-102 1020.09,-60.47 975.29,-38.14"/>
<polygon fill="#1414ce" stroke="#1414ce" points="976.55,-34.86 966.02,-33.67 973.51,-41.17 976.55,-34.86"/>
</a>
</g>
</g>
<!-- 10&#45;&gt;8 -->
<g id="edge39" class="edge">
<title>10&#45;&gt;8</title>
<g id="a_edge39"><a xlink:title="include">
<path fill="none" stroke="#1414ce" d="M638.76,-449.88C679.87,-448.98 748.97,-440.44 782,-396 810.63,-357.48 792.24,-334.9 782,-288 765.44,-212.12 745.43,-190.2 683,-144 662.07,-128.51 635.89,-115.75 614.21,-106.63"/>
<polygon fill="#1414ce" stroke="#1414ce" points="615.5,-103.38 604.92,-102.83 612.85,-109.86 615.5,-103.38"/>
</a>
</g>
</g>
<!-- 10&#45;&gt;9 -->
<g id="edge40" class="edge">
<title>10&#45;&gt;9</title>
<g id="a_edge40"><a xlink:title="include">
<path fill="none" stroke="#1414ce" d="M638.66,-448.22C681.04,-445.58 755.21,-435.19 803,-396 885.84,-328.07 884.99,-284.17 910,-180 914.89,-159.62 914.88,-135.86 913.79,-118.01"/>
<polygon fill="#1414ce" stroke="#1414ce" points="917.28,-117.71 913.03,-108.01 910.3,-118.24 917.28,-117.71"/>
</a>
</g>
</g>
<!-- 10&#45;&gt;4 -->
<g id="edge41" class="edge">
<title>10&#45;&gt;4</title>
<g id="a_edge41"><a xlink:title="include">
<path fill="none" stroke="#1414ce" d="M573.29,-445.76C511.47,-439.11 380.41,-422.27 344,-396 322.87,-380.76 309.24,-353.87 301.43,-333.63"/>
<polygon fill="#1414ce" stroke="#1414ce" points="304.65,-332.24 297.97,-324.03 298.07,-334.62 304.65,-332.24"/>
</a>
</g>
</g>
<!-- 11 -->
<g id="node25" class="node">
<title>11</title>
<g id="a_node25"><a xlink:title="sys/types.h">
<polygon fill="#ffffff" stroke="black" points="615.5,-396 518.5,-396 518.5,-360 615.5,-360 615.5,-396"/>
<text text-anchor="middle" x="567" y="-374.3" font-family="Times,serif" font-size="14.00">sys/types.h</text>
</a>
</g>
</g>
<!-- 10&#45;&gt;11 -->
<g id="edge36" class="edge">
<title>10&#45;&gt;11</title>
<g id="a_edge36"><a xlink:title="include">
<path fill="none" stroke="#1414ce" d="M596.36,-431.7C591.87,-423.64 586.44,-413.89 581.48,-404.98"/>
<polygon fill="#1414ce" stroke="#1414ce" points="584.45,-403.14 576.53,-396.1 578.34,-406.54 584.45,-403.14"/>
</a>
</g>
</g>
<!-- 17 -->
<g id="node16" class="node">
<title>17</title>
<g id="a_node16"><a xlink:title="assert.h">
<polygon fill="#ffffff" stroke="black" points="746,-36 672,-36 672,0 746,0 746,-36"/>
<text text-anchor="middle" x="709" y="-14.3" font-family="Times,serif" font-size="14.00">assert.h</text>
</a>
</g>
</g>
<!-- 16&#45;&gt;17 -->
<g id="edge49" class="edge">
<title>16&#45;&gt;17</title>
<g id="a_edge49"><a xlink:title="include">
<path fill="none" stroke="#1414ce" d="M696.96,-71.7C698.72,-63.98 700.84,-54.71 702.8,-46.11"/>
<polygon fill="#1414ce" stroke="#1414ce" points="706.27,-46.63 705.09,-36.1 699.45,-45.07 706.27,-46.63"/>
</a>
</g>
</g>
<!-- 6 -->
<g id="node17" class="node">
<title>6</title>
<g id="a_node17"><a xlink:title="inttypes.h">
<polygon fill="#ffffff" stroke="black" points="511.5,-36 422.5,-36 422.5,0 511.5,0 511.5,-36"/>
<text text-anchor="middle" x="467" y="-14.3" font-family="Times,serif" font-size="14.00">inttypes.h</text>
</a>
</g>
</g>
<!-- 16&#45;&gt;6 -->
<g id="edge51" class="edge">
<title>16&#45;&gt;6</title>
<g id="a_edge51"><a xlink:title="include">
<path fill="none" stroke="#1414ce" d="M638,-71.97C602.53,-60.98 556.6,-46.75 521.27,-35.81"/>
<polygon fill="#1414ce" stroke="#1414ce" points="522.2,-32.43 511.61,-32.82 520.13,-39.12 522.2,-32.43"/>
</a>
</g>
</g>
<!-- 18 -->
<g id="node18" class="node">
<title>18</title>
<g id="a_node18"><a xlink:title="limits.h">
<polygon fill="#ffffff" stroke="black" points="653.5,-36 582.5,-36 582.5,0 653.5,0 653.5,-36"/>
<text text-anchor="middle" x="618" y="-14.3" font-family="Times,serif" font-size="14.00">limits.h</text>
</a>
</g>
</g>
<!-- 16&#45;&gt;18 -->
<g id="edge50" class="edge">
<title>16&#45;&gt;18</title>
<g id="a_edge50"><a xlink:title="include">
<path fill="none" stroke="#1414ce" d="M674.46,-71.7C665.2,-63.05 653.84,-52.45 643.74,-43.03"/>
<polygon fill="#1414ce" stroke="#1414ce" points="646.02,-40.37 636.33,-36.1 641.25,-45.49 646.02,-40.37"/>
</a>
</g>
</g>
<!-- 16&#45;&gt;12 -->
<g id="edge52" class="edge">
<title>16&#45;&gt;12</title>
<g id="a_edge52"><a xlink:title="include">
<path fill="none" stroke="#1414ce" d="M750.67,-71.97C791.68,-59.85 846.01,-43.81 884.08,-32.56"/>
<polygon fill="#1414ce" stroke="#1414ce" points="885.28,-35.86 893.88,-29.67 883.3,-29.14 885.28,-35.86"/>
</a>
</g>
</g>
<!-- 25&#45;&gt;3 -->
<g id="edge53" class="edge">
<title>25&#45;&gt;3</title>
<g id="a_edge53"><a xlink:title="include">
<path fill="none" stroke="#1414ce" d="M86.37,-144.59C113.53,-134.31 148.64,-121.03 177.11,-110.26"/>
<polygon fill="#1414ce" stroke="#1414ce" points="178.37,-113.52 186.49,-106.71 175.9,-106.97 178.37,-113.52"/>
</a>
</g>
</g>
<!-- 7 -->
<g id="node20" class="node">
<title>7</title>
<g id="a_node20"><a xlink:title="stddef.h">
<polygon fill="#ffffff" stroke="black" points="162,-108 88,-108 88,-72 162,-72 162,-108"/>
<text text-anchor="middle" x="125" y="-86.3" font-family="Times,serif" font-size="14.00">stddef.h</text>
</a>
</g>
</g>
<!-- 25&#45;&gt;7 -->
<g id="edge54" class="edge">
<title>25&#45;&gt;7</title>
<g id="a_edge54"><a xlink:title="include">
<path fill="none" stroke="#1414ce" d="M63.27,-143.7C73.5,-134.97 86.06,-124.24 97.18,-114.75"/>
<polygon fill="#1414ce" stroke="#1414ce" points="99.63,-117.26 104.96,-108.1 95.09,-111.94 99.63,-117.26"/>
</a>
</g>
</g>
<!-- 25&#45;&gt;12 -->
<g id="edge55" class="edge">
<title>25&#45;&gt;12</title>
<g id="a_edge55"><a xlink:title="include">
<path fill="none" stroke="#1414ce" d="M44.55,-143.92C47.44,-123.1 55.66,-88.65 79,-72 140.23,-28.31 679.99,-41.64 755,-36 798.77,-32.71 848.59,-27.75 883.85,-24.04"/>
<polygon fill="#1414ce" stroke="#1414ce" points="884.27,-27.51 893.84,-22.98 883.53,-20.55 884.27,-27.51"/>
</a>
</g>
</g>
<!-- 5&#45;&gt;6 -->
<g id="edge56" class="edge">
<title>5&#45;&gt;6</title>
<g id="a_edge56"><a xlink:title="include">
<path fill="none" stroke="#1414ce" d="M308.71,-143.87C340.74,-118.6 400.76,-71.25 436.98,-42.68"/>
<polygon fill="#1414ce" stroke="#1414ce" points="439.53,-45.13 445.21,-36.19 435.19,-39.64 439.53,-45.13"/>
</a>
</g>
</g>
<!-- 5&#45;&gt;3 -->
<g id="edge57" class="edge">
<title>5&#45;&gt;3</title>
<g id="a_edge57"><a xlink:title="include">
<path fill="none" stroke="#1414ce" d="M272.42,-143.7C265.34,-135.3 256.72,-125.07 248.95,-115.86"/>
<polygon fill="#1414ce" stroke="#1414ce" points="251.54,-113.49 242.42,-108.1 246.19,-118.01 251.54,-113.49"/>
</a>
</g>
</g>
<!-- 5&#45;&gt;7 -->
<g id="edge58" class="edge">
<title>5&#45;&gt;7</title>
<g id="a_edge58"><a xlink:title="include">
<path fill="none" stroke="#1414ce" d="M255.76,-147.5C231.83,-137.16 198.43,-122.73 171.38,-111.04"/>
<polygon fill="#1414ce" stroke="#1414ce" points="172.67,-107.79 162.1,-107.03 169.89,-114.21 172.67,-107.79"/>
</a>
</g>
</g>
<!-- 5&#45;&gt;8 -->
<g id="edge59" class="edge">
<title>5&#45;&gt;8</title>
<g id="a_edge59"><a xlink:title="include">
<path fill="none" stroke="#1414ce" d="M318.23,-147.07C321.17,-145.96 324.12,-144.91 327,-144 396.51,-121.93 480,-106.04 529.38,-97.7"/>
<polygon fill="#1414ce" stroke="#1414ce" points="530.1,-101.13 539.39,-96.04 528.95,-94.23 530.1,-101.13"/>
</a>
</g>
</g>
<!-- 5&#45;&gt;9 -->
<g id="edge60" class="edge">
<title>5&#45;&gt;9</title>
<g id="a_edge60"><a xlink:title="include">
<path fill="none" stroke="#1414ce" d="M318.12,-146.66C321.08,-145.64 324.07,-144.72 327,-144 516.63,-97.2 570.63,-127.3 765,-108 798.59,-104.67 836.44,-100.24 865.18,-96.74"/>
<polygon fill="#1414ce" stroke="#1414ce" points="865.84,-100.18 875.34,-95.49 864.98,-93.24 865.84,-100.18"/>
</a>
</g>
</g>
</g>
</svg>
