<?xml version="1.0" encoding="UTF-8" standalone="no"?>
<!DOCTYPE svg PUBLIC "-//W3C//DTD SVG 1.1//EN"
 "http://www.w3.org/Graphics/SVG/1.1/DTD/svg11.dtd">
<!-- Generated by graphviz version 2.43.0 (0)
 -->
<!-- Title: %3 Pages: 1 -->
<svg width="1376pt" height="404pt"
 viewBox="0.00 0.00 1375.74 404.00" xmlns="http://www.w3.org/2000/svg" xmlns:xlink="http://www.w3.org/1999/xlink">
<g id="graph0" class="graph" transform="scale(1 1) rotate(0) translate(4 400)">
<title>%3</title>
<polygon fill="transparent" stroke="transparent" points="-4,4 -4,-400 1371.74,-400 1371.74,4 -4,4"/>
<!-- 14 -->
<g id="node1" class="node">
<title>14</title>
<g id="a_node1"><a xlink:title="AtomTable">
<polygon fill="#ffffff" stroke="black" points="1326,-324 1234,-324 1234,-288 1326,-288 1326,-324"/>
<text text-anchor="middle" x="1280" y="-302.3" font-family="Times,serif" font-size="14.00">AtomTable</text>
</a>
</g>
</g>
<!-- 15 -->
<g id="node6" class="node">
<title>15</title>
<g id="a_node6"><a xlink:title="HNode">
<polygon fill="#ffffff" stroke="black" points="1313,-180 1247,-180 1247,-144 1313,-144 1313,-180"/>
<text text-anchor="middle" x="1280" y="-158.3" font-family="Times,serif" font-size="14.00">HNode</text>
</a>
</g>
</g>
<!-- 14&#45;&gt;15 -->
<g id="edge1" class="edge">
<title>14&#45;&gt;15</title>
<g id="a_edge1"><a xlink:title="usage">
<path fill="none" stroke="#1414ce" d="M1322.62,-287.99C1337.87,-279.58 1353.41,-267.78 1362,-252 1369.65,-237.95 1369.65,-230.05 1362,-216 1353.33,-200.07 1337.58,-188.2 1322.19,-179.77"/>
<polygon fill="#1414ce" stroke="#1414ce" points="1323.72,-176.63 1313.22,-175.21 1320.54,-182.86 1323.72,-176.63"/>
</a>
</g>
</g>
<!-- 16 -->
<g id="node7" class="node">
<title>16</title>
<g id="a_node7"><a xlink:title="HNodeGroup">
<polygon fill="#ffffff" stroke="black" points="1335,-252 1225,-252 1225,-216 1335,-216 1335,-252"/>
<text text-anchor="middle" x="1280" y="-230.3" font-family="Times,serif" font-size="14.00">HNodeGroup</text>
</a>
</g>
</g>
<!-- 14&#45;&gt;16 -->
<g id="edge2" class="edge">
<title>14&#45;&gt;16</title>
<g id="a_edge2"><a xlink:title="usage">
<path fill="none" stroke="#1414ce" d="M1280,-287.7C1280,-279.98 1280,-270.71 1280,-262.11"/>
<polygon fill="#1414ce" stroke="#1414ce" points="1283.5,-262.1 1280,-252.1 1276.5,-262.1 1283.5,-262.1"/>
</a>
</g>
</g>
<!-- 3 -->
<g id="node2" class="node">
<title>3</title>
<g id="a_node2"><a xlink:title="Context">
<polygon fill="#ffffff" stroke="black" points="359.5,-252 286.5,-252 286.5,-216 359.5,-216 359.5,-252"/>
<text text-anchor="middle" x="323" y="-230.3" font-family="Times,serif" font-size="14.00">Context</text>
</a>
</g>
</g>
<!-- 3&#45;&gt;3 -->
<g id="edge8" class="edge">
<title>3&#45;&gt;3</title>
<g id="a_edge8"><a xlink:title="usage">
<path fill="none" stroke="#1414ce" d="M359.68,-247.42C369.78,-246.77 377.5,-242.3 377.5,-234 377.5,-228.81 374.48,-225.12 369.76,-222.93"/>
<polygon fill="#1414ce" stroke="#1414ce" points="370.21,-219.44 359.68,-220.58 368.63,-226.26 370.21,-219.44"/>
</a>
</g>
</g>
<!-- 4 -->
<g id="node5" class="node">
<title>4</title>
<g id="a_node5"><a xlink:title="GlobalContext">
<polygon fill="#ffffff" stroke="black" points="886.5,-396 767.5,-396 767.5,-360 886.5,-360 886.5,-396"/>
<text text-anchor="middle" x="827" y="-374.3" font-family="Times,serif" font-size="14.00">GlobalContext</text>
</a>
</g>
</g>
<!-- 3&#45;&gt;4 -->
<g id="edge3" class="edge">
<title>3&#45;&gt;4</title>
<g id="a_edge3"><a xlink:title="usage">
<path fill="none" stroke="#1414ce" d="M322.52,-252.05C322.95,-272.5 327.07,-306.24 348,-324 378.56,-349.93 631.73,-366.74 757.14,-373.55"/>
<polygon fill="#1414ce" stroke="#1414ce" points="757.23,-377.06 767.41,-374.1 757.61,-370.07 757.23,-377.06"/>
</a>
</g>
</g>
<!-- 19 -->
<g id="node8" class="node">
<title>19</title>
<g id="a_node8"><a xlink:title="Heap">
<polygon fill="#ffffff" stroke="black" points="224,-180 170,-180 170,-144 224,-144 224,-180"/>
<text text-anchor="middle" x="197" y="-158.3" font-family="Times,serif" font-size="14.00">Heap</text>
</a>
</g>
</g>
<!-- 3&#45;&gt;19 -->
<g id="edge4" class="edge">
<title>3&#45;&gt;19</title>
<g id="a_edge4"><a xlink:title="usage">
<path fill="none" stroke="#1414ce" d="M292.18,-215.88C274.27,-205.93 251.62,-193.35 232.91,-182.95"/>
<polygon fill="#1414ce" stroke="#1414ce" points="234.52,-179.84 224.08,-178.05 231.12,-185.96 234.52,-179.84"/>
</a>
</g>
</g>
<!-- 5 -->
<g id="node11" class="node">
<title>5</title>
<g id="a_node11"><a xlink:title="ListHead">
<polygon fill="#ffffff" stroke="black" points="755.5,-36 674.5,-36 674.5,0 755.5,0 755.5,-36"/>
<text text-anchor="middle" x="715" y="-14.3" font-family="Times,serif" font-size="14.00">ListHead</text>
</a>
</g>
</g>
<!-- 3&#45;&gt;5 -->
<g id="edge5" class="edge">
<title>3&#45;&gt;5</title>
<g id="a_edge5"><a xlink:title="usage">
<path fill="none" stroke="#1414ce" d="M312.81,-215.98C294.9,-183.65 262.95,-112.93 299,-72 322.81,-44.97 558.43,-28.06 664.14,-21.77"/>
<polygon fill="#1414ce" stroke="#1414ce" points="664.48,-25.26 674.25,-21.18 664.07,-18.27 664.48,-25.26"/>
</a>
</g>
</g>
<!-- 22 -->
<g id="node13" class="node">
<title>22</title>
<g id="a_node13"><a xlink:title="Mailbox">
<polygon fill="#ffffff" stroke="black" points="468,-180 394,-180 394,-144 468,-144 468,-180"/>
<text text-anchor="middle" x="431" y="-158.3" font-family="Times,serif" font-size="14.00">Mailbox</text>
</a>
</g>
</g>
<!-- 3&#45;&gt;22 -->
<g id="edge9" class="edge">
<title>3&#45;&gt;22</title>
<g id="a_edge9"><a xlink:title="usage">
<path fill="none" stroke="#1414ce" d="M349.42,-215.88C363.41,-206.81 380.78,-195.55 395.89,-185.76"/>
<polygon fill="#1414ce" stroke="#1414ce" points="397.99,-188.57 404.48,-180.19 394.18,-182.69 397.99,-188.57"/>
</a>
</g>
</g>
<!-- 2 -->
<g id="node16" class="node">
<title>2</title>
<g id="a_node16"><a xlink:title="Module">
<polygon fill="#ffffff" stroke="black" points="263,-324 193,-324 193,-288 263,-288 263,-324"/>
<text text-anchor="middle" x="228" y="-302.3" font-family="Times,serif" font-size="14.00">Module</text>
</a>
</g>
</g>
<!-- 3&#45;&gt;2 -->
<g id="edge7" class="edge">
<title>3&#45;&gt;2</title>
<g id="a_edge7"><a xlink:title="usage">
<path fill="none" stroke="#1414ce" d="M305.58,-252.19C294.31,-261.18 279.36,-272.32 265.55,-282.04"/>
<polygon fill="#1414ce" stroke="#1414ce" points="263.35,-279.3 257.14,-287.88 267.35,-285.05 263.35,-279.3"/>
</a>
</g>
</g>
<!-- 21 -->
<g id="node23" class="node">
<title>21</title>
<g id="a_node23"><a xlink:title="TimerListItem">
<polygon fill="#ffffff" stroke="black" points="426.5,-108 307.5,-108 307.5,-72 426.5,-72 426.5,-108"/>
<text text-anchor="middle" x="367" y="-86.3" font-family="Times,serif" font-size="14.00">TimerListItem</text>
</a>
</g>
</g>
<!-- 3&#45;&gt;21 -->
<g id="edge6" class="edge">
<title>3&#45;&gt;21</title>
<g id="a_edge6"><a xlink:title="usage">
<path fill="none" stroke="#1414ce" d="M328.31,-215.87C335.84,-191.56 349.7,-146.82 358.63,-118.01"/>
<polygon fill="#1414ce" stroke="#1414ce" points="362.06,-118.78 361.67,-108.19 355.37,-116.71 362.06,-118.78"/>
</a>
</g>
</g>
<!-- 13 -->
<g id="node3" class="node">
<title>13</title>
<g id="a_node3"><a xlink:title="Ets">
<polygon fill="#ffffff" stroke="black" points="846,-180 792,-180 792,-144 846,-144 846,-180"/>
<text text-anchor="middle" x="819" y="-158.3" font-family="Times,serif" font-size="14.00">Ets</text>
</a>
</g>
</g>
<!-- 12 -->
<g id="node21" class="node">
<title>12</title>
<g id="a_node21"><a xlink:title="SyncList">
<polygon fill="#ffffff" stroke="black" points="840,-108 762,-108 762,-72 840,-72 840,-108"/>
<text text-anchor="middle" x="801" y="-86.3" font-family="Times,serif" font-size="14.00">SyncList</text>
</a>
</g>
</g>
<!-- 13&#45;&gt;12 -->
<g id="edge10" class="edge">
<title>13&#45;&gt;12</title>
<g id="a_edge10"><a xlink:title="usage">
<path fill="none" stroke="#1414ce" d="M814.55,-143.7C812.55,-135.9 810.13,-126.51 807.9,-117.83"/>
<polygon fill="#1414ce" stroke="#1414ce" points="811.28,-116.92 805.4,-108.1 804.5,-118.66 811.28,-116.92"/>
</a>
</g>
</g>
<!-- 23 -->
<g id="node4" class="node">
<title>23</title>
<g id="a_node4"><a xlink:title="ExportedFunction">
<polygon fill="#ffffff" stroke="black" points="146,-252 0,-252 0,-216 146,-216 146,-252"/>
<text text-anchor="middle" x="73" y="-230.3" font-family="Times,serif" font-size="14.00">ExportedFunction</text>
</a>
</g>
</g>
<!-- 4&#45;&gt;14 -->
<g id="edge17" class="edge">
<title>4&#45;&gt;14</title>
<g id="a_edge17"><a xlink:title="usage">
<path fill="none" stroke="#1414ce" d="M886.69,-367.78C974.65,-354.18 1137.92,-328.95 1223.83,-315.68"/>
<polygon fill="#1414ce" stroke="#1414ce" points="1224.56,-319.11 1233.91,-314.12 1223.49,-312.19 1224.56,-319.11"/>
</a>
</g>
</g>
<!-- 4&#45;&gt;13 -->
<g id="edge16" class="edge">
<title>4&#45;&gt;13</title>
<g id="a_edge16"><a xlink:title="usage">
<path fill="none" stroke="#1414ce" d="M826.36,-359.85C824.98,-322.83 821.7,-235.18 820.02,-190.39"/>
<polygon fill="#1414ce" stroke="#1414ce" points="823.52,-190.09 819.64,-180.23 816.52,-190.36 823.52,-190.09"/>
</a>
</g>
</g>
<!-- 4&#45;&gt;5 -->
<g id="edge11" class="edge">
<title>4&#45;&gt;5</title>
<g id="a_edge11"><a xlink:title="usage">
<path fill="none" stroke="#1414ce" d="M886.7,-372.36C924.7,-366.52 972.67,-353.39 1005,-324 1036.57,-295.29 1041,-277.67 1041,-235 1041,-235 1041,-235 1041,-161 1041,-42.41 857.44,-21.84 765.8,-18.96"/>
<polygon fill="#1414ce" stroke="#1414ce" points="765.71,-15.46 755.63,-18.7 765.54,-22.45 765.71,-15.46"/>
</a>
</g>
</g>
<!-- 7 -->
<g id="node15" class="node">
<title>7</title>
<g id="a_node15"><a xlink:title="MessageQueueItem">
<polygon fill="#ffffff" stroke="black" points="515,-324 357,-324 357,-288 515,-288 515,-324"/>
<text text-anchor="middle" x="436" y="-302.3" font-family="Times,serif" font-size="14.00">MessageQueueItem</text>
</a>
</g>
</g>
<!-- 4&#45;&gt;7 -->
<g id="edge13" class="edge">
<title>4&#45;&gt;7</title>
<g id="a_edge13"><a xlink:title="usage">
<path fill="none" stroke="#1414ce" d="M767.19,-366.29C702.73,-354.75 599.43,-336.26 525.33,-322.99"/>
<polygon fill="#1414ce" stroke="#1414ce" points="525.54,-319.47 515.08,-321.16 524.3,-326.36 525.54,-319.47"/>
</a>
</g>
</g>
<!-- 4&#45;&gt;2 -->
<g id="edge19" class="edge">
<title>4&#45;&gt;2</title>
<g id="a_edge19"><a xlink:title="usage">
<path fill="none" stroke="#1414ce" d="M767.26,-372.57C671.51,-365.07 477.85,-348.29 315,-324 301.29,-321.96 286.47,-319.25 273,-316.59"/>
<polygon fill="#1414ce" stroke="#1414ce" points="273.5,-313.12 263.01,-314.59 272.13,-319.99 273.5,-313.12"/>
</a>
</g>
</g>
<!-- 9 -->
<g id="node18" class="node">
<title>9</title>
<g id="a_node18"><a xlink:title="RefcBinaryQueueItem">
<polygon fill="#ffffff" stroke="black" points="725,-324 551,-324 551,-288 725,-288 725,-324"/>
<text text-anchor="middle" x="638" y="-302.3" font-family="Times,serif" font-size="14.00">RefcBinaryQueueItem</text>
</a>
</g>
</g>
<!-- 4&#45;&gt;9 -->
<g id="edge14" class="edge">
<title>4&#45;&gt;9</title>
<g id="a_edge14"><a xlink:title="usage">
<path fill="none" stroke="#1414ce" d="M780.77,-359.88C754.47,-350.14 721.36,-337.87 693.64,-327.61"/>
<polygon fill="#1414ce" stroke="#1414ce" points="694.68,-324.26 684.08,-324.07 692.25,-330.82 694.68,-324.26"/>
</a>
</g>
</g>
<!-- 11 -->
<g id="node19" class="node">
<title>11</title>
<g id="a_node19"><a xlink:title="ResourceType">
<polygon fill="#ffffff" stroke="black" points="773.5,-180 656.5,-180 656.5,-144 773.5,-144 773.5,-180"/>
<text text-anchor="middle" x="715" y="-158.3" font-family="Times,serif" font-size="14.00">ResourceType</text>
</a>
</g>
</g>
<!-- 4&#45;&gt;11 -->
<g id="edge21" class="edge">
<title>4&#45;&gt;11</title>
<g id="a_edge21"><a xlink:title="usage">
<path fill="none" stroke="#1414ce" d="M814.15,-359.85C791.09,-322.6 744.51,-234.07 724.25,-189.54"/>
<polygon fill="#1414ce" stroke="#1414ce" points="727.38,-187.96 720.13,-180.23 720.98,-190.79 727.38,-187.96"/>
</a>
</g>
</g>
<!-- 6 -->
<g id="node20" class="node">
<title>6</title>
<g id="a_node20"><a xlink:title="SpinLock">
<polygon fill="#ffffff" stroke="black" points="975,-324 893,-324 893,-288 975,-288 975,-324"/>
<text text-anchor="middle" x="934" y="-302.3" font-family="Times,serif" font-size="14.00">SpinLock</text>
</a>
</g>
</g>
<!-- 4&#45;&gt;6 -->
<g id="edge12" class="edge">
<title>4&#45;&gt;6</title>
<g id="a_edge12"><a xlink:title="usage">
<path fill="none" stroke="#1414ce" d="M853.18,-359.88C867.04,-350.81 884.24,-339.55 899.21,-329.76"/>
<polygon fill="#1414ce" stroke="#1414ce" points="901.27,-332.59 907.72,-324.19 897.44,-326.74 901.27,-332.59"/>
</a>
</g>
</g>
<!-- 4&#45;&gt;12 -->
<g id="edge15" class="edge">
<title>4&#45;&gt;12</title>
<g id="a_edge15"><a xlink:title="usage">
<path fill="none" stroke="#1414ce" d="M834.71,-359.81C851.36,-320.08 886.69,-219.51 855,-144 850.36,-132.95 842.17,-123.04 833.54,-114.86"/>
<polygon fill="#1414ce" stroke="#1414ce" points="835.74,-112.14 825.93,-108.14 831.11,-117.38 835.74,-112.14"/>
</a>
</g>
</g>
<!-- 18 -->
<g id="node22" class="node">
<title>18</title>
<g id="a_node22"><a xlink:title="TimerList">
<polygon fill="#ffffff" stroke="black" points="979,-108 893,-108 893,-72 979,-72 979,-108"/>
<text text-anchor="middle" x="936" y="-86.3" font-family="Times,serif" font-size="14.00">TimerList</text>
</a>
</g>
</g>
<!-- 4&#45;&gt;18 -->
<g id="edge20" class="edge">
<title>4&#45;&gt;18</title>
<g id="a_edge20"><a xlink:title="usage">
<path fill="none" stroke="#1414ce" d="M886.63,-373.39C921.12,-367.88 961.94,-354.73 984,-324 1029.74,-260.28 981.2,-162.87 953.09,-116.83"/>
<polygon fill="#1414ce" stroke="#1414ce" points="955.88,-114.69 947.61,-108.07 949.95,-118.4 955.88,-114.69"/>
</a>
</g>
</g>
<!-- 17 -->
<g id="node24" class="node">
<title>17</title>
<g id="a_node24"><a xlink:title="ValuesHashTable">
<polygon fill="#ffffff" stroke="black" points="1207,-252 1069,-252 1069,-216 1207,-216 1207,-252"/>
<text text-anchor="middle" x="1138" y="-230.3" font-family="Times,serif" font-size="14.00">ValuesHashTable</text>
</a>
</g>
</g>
<!-- 4&#45;&gt;17 -->
<g id="edge18" class="edge">
<title>4&#45;&gt;17</title>
<g id="a_edge18"><a xlink:title="usage">
<path fill="none" stroke="#1414ce" d="M886.7,-372.74C934.87,-367.12 1002.93,-354.11 1055,-324 1082.21,-308.27 1105.82,-280.77 1120.83,-260.49"/>
<polygon fill="#1414ce" stroke="#1414ce" points="1123.72,-262.46 1126.72,-252.3 1118.04,-258.37 1123.72,-262.46"/>
</a>
</g>
</g>
<!-- 15&#45;&gt;15 -->
<g id="edge22" class="edge">
<title>15&#45;&gt;15</title>
<g id="a_edge22"><a xlink:title="usage">
<path fill="none" stroke="#1414ce" d="M1313.35,-175.47C1323.28,-175.07 1331,-170.58 1331,-162 1331,-156.64 1327.98,-152.87 1323.3,-150.71"/>
<polygon fill="#1414ce" stroke="#1414ce" points="1323.87,-147.25 1313.35,-148.53 1322.37,-154.09 1323.87,-147.25"/>
</a>
</g>
</g>
<!-- 16&#45;&gt;15 -->
<g id="edge24" class="edge">
<title>16&#45;&gt;15</title>
<g id="a_edge24"><a xlink:title="usage">
<path fill="none" stroke="#1414ce" d="M1280,-215.7C1280,-207.98 1280,-198.71 1280,-190.11"/>
<polygon fill="#1414ce" stroke="#1414ce" points="1283.5,-190.1 1280,-180.1 1276.5,-190.1 1283.5,-190.1"/>
</a>
</g>
</g>
<!-- 16&#45;&gt;16 -->
<g id="edge23" class="edge">
<title>16&#45;&gt;16</title>
<g id="a_edge23"><a xlink:title="usage">
<path fill="none" stroke="#1414ce" d="M1335.07,-246.85C1345.57,-245.32 1353,-241.03 1353,-234 1353,-229.5 1349.95,-226.12 1345,-223.87"/>
<polygon fill="#1414ce" stroke="#1414ce" points="1345.64,-220.42 1335.07,-221.15 1343.79,-227.17 1345.64,-220.42"/>
</a>
</g>
</g>
<!-- 20 -->
<g id="node9" class="node">
<title>20</title>
<g id="a_node9"><a xlink:title="HeapFragment">
<polygon fill="#ffffff" stroke="black" points="232.5,-108 107.5,-108 107.5,-72 232.5,-72 232.5,-108"/>
<text text-anchor="middle" x="170" y="-86.3" font-family="Times,serif" font-size="14.00">HeapFragment</text>
</a>
</g>
</g>
<!-- 19&#45;&gt;20 -->
<g id="edge25" class="edge">
<title>19&#45;&gt;20</title>
<g id="a_edge25"><a xlink:title="usage">
<path fill="none" stroke="#1414ce" d="M190.33,-143.7C187.29,-135.81 183.62,-126.3 180.24,-117.55"/>
<polygon fill="#1414ce" stroke="#1414ce" points="183.46,-116.17 176.6,-108.1 176.93,-118.69 183.46,-116.17"/>
</a>
</g>
</g>
<!-- 20&#45;&gt;20 -->
<g id="edge26" class="edge">
<title>20&#45;&gt;20</title>
<g id="a_edge26"><a xlink:title="usage">
<path fill="none" stroke="#1414ce" d="M232.78,-102.55C243.26,-100.79 250.5,-96.61 250.5,-90 250.5,-85.77 247.53,-82.53 242.64,-80.29"/>
<polygon fill="#1414ce" stroke="#1414ce" points="243.36,-76.85 232.78,-77.45 241.42,-83.58 243.36,-76.85"/>
</a>
</g>
</g>
<!-- 1 -->
<g id="node10" class="node">
<title>1</title>
<g id="a_node10"><a xlink:title="JITState">
<polygon fill="#bfbfbf" stroke="black" points="297,-396 223,-396 223,-360 297,-360 297,-396"/>
<text text-anchor="middle" x="260" y="-374.3" font-family="Times,serif" font-size="14.00">JITState</text>
</a>
</g>
</g>
<!-- 1&#45;&gt;3 -->
<g id="edge28" class="edge">
<title>1&#45;&gt;3</title>
<g id="a_edge28"><a xlink:title="usage">
<path fill="none" stroke="#1414ce" d="M267.6,-359.87C278.43,-335.46 298.41,-290.43 311.18,-261.64"/>
<polygon fill="#1414ce" stroke="#1414ce" points="314.52,-262.75 315.37,-252.19 308.12,-259.91 314.52,-262.75"/>
</a>
</g>
</g>
<!-- 1&#45;&gt;2 -->
<g id="edge27" class="edge">
<title>1&#45;&gt;2</title>
<g id="a_edge27"><a xlink:title="usage">
<path fill="none" stroke="#1414ce" d="M252.09,-359.7C248.45,-351.73 244.05,-342.1 240.01,-333.26"/>
<polygon fill="#1414ce" stroke="#1414ce" points="243.16,-331.74 235.82,-324.1 236.79,-334.65 243.16,-331.74"/>
</a>
</g>
</g>
<!-- 5&#45;&gt;5 -->
<g id="edge29" class="edge">
<title>5&#45;&gt;5</title>
<g id="a_edge29"><a xlink:title="usage">
<path fill="none" stroke="#1414ce" d="M755.73,-31.31C765.9,-30.38 773.5,-25.95 773.5,-18 773.5,-12.91 770.38,-9.26 765.47,-7.05"/>
<polygon fill="#1414ce" stroke="#1414ce" points="766.28,-3.64 755.73,-4.69 764.63,-10.45 766.28,-3.64"/>
</a>
</g>
</g>
<!-- 24 -->
<g id="node12" class="node">
<title>24</title>
<g id="a_node12"><a xlink:title="LiteralEntry">
<polygon fill="#ffffff" stroke="black" points="268,-252 164,-252 164,-216 268,-216 268,-252"/>
<text text-anchor="middle" x="216" y="-230.3" font-family="Times,serif" font-size="14.00">LiteralEntry</text>
</a>
</g>
</g>
<!-- 8 -->
<g id="node14" class="node">
<title>8</title>
<g id="a_node14"><a xlink:title="MailboxMessage">
<polygon fill="#ffffff" stroke="black" points="581.5,-108 444.5,-108 444.5,-72 581.5,-72 581.5,-108"/>
<text text-anchor="middle" x="513" y="-86.3" font-family="Times,serif" font-size="14.00">MailboxMessage</text>
</a>
</g>
</g>
<!-- 22&#45;&gt;8 -->
<g id="edge30" class="edge">
<title>22&#45;&gt;8</title>
<g id="a_edge30"><a xlink:title="usage">
<path fill="none" stroke="#1414ce" d="M451.27,-143.7C461.5,-134.97 474.06,-124.24 485.18,-114.75"/>
<polygon fill="#1414ce" stroke="#1414ce" points="487.63,-117.26 492.96,-108.1 483.09,-111.94 487.63,-117.26"/>
</a>
</g>
</g>
<!-- 8&#45;&gt;8 -->
<g id="edge31" class="edge">
<title>8&#45;&gt;8</title>
<g id="a_edge31"><a xlink:title="usage">
<path fill="none" stroke="#1414ce" d="M581.53,-102.37C592.21,-100.52 599.5,-96.4 599.5,-90 599.5,-85.8 596.36,-82.58 591.18,-80.34"/>
<polygon fill="#1414ce" stroke="#1414ce" points="592.1,-76.96 581.53,-77.63 590.21,-83.7 592.1,-76.96"/>
</a>
</g>
</g>
<!-- 7&#45;&gt;8 -->
<g id="edge33" class="edge">
<title>7&#45;&gt;8</title>
<g id="a_edge33"><a xlink:title="usage">
<path fill="none" stroke="#1414ce" d="M442.17,-287.85C455.55,-250.68 487.3,-162.44 503.35,-117.82"/>
<polygon fill="#1414ce" stroke="#1414ce" points="506.71,-118.83 506.8,-108.23 500.12,-116.46 506.71,-118.83"/>
</a>
</g>
</g>
<!-- 7&#45;&gt;7 -->
<g id="edge32" class="edge">
<title>7&#45;&gt;7</title>
<g id="a_edge32"><a xlink:title="usage">
<path fill="none" stroke="#1414ce" d="M515.16,-317.98C525.87,-315.97 533,-311.98 533,-306 533,-302.08 529.93,-299.01 524.79,-296.8"/>
<polygon fill="#1414ce" stroke="#1414ce" points="525.74,-293.43 515.16,-294.02 523.8,-300.15 525.74,-293.43"/>
</a>
</g>
</g>
<!-- 2&#45;&gt;3 -->
<g id="edge34" class="edge">
<title>2&#45;&gt;3</title>
<g id="a_edge34"><a xlink:title="usage">
<path fill="none" stroke="#1414ce" d="M245.57,-287.7C256.84,-278.71 271.74,-267.61 285.51,-257.92"/>
<polygon fill="#1414ce" stroke="#1414ce" points="287.67,-260.68 293.89,-252.1 283.68,-254.93 287.67,-260.68"/>
</a>
</g>
</g>
<!-- 2&#45;&gt;23 -->
<g id="edge35" class="edge">
<title>2&#45;&gt;23</title>
<g id="a_edge35"><a xlink:title="usage">
<path fill="none" stroke="#1414ce" d="M192.83,-289.12C171.32,-279.4 143.53,-266.85 120.13,-256.29"/>
<polygon fill="#1414ce" stroke="#1414ce" points="121.3,-252.97 110.74,-252.04 118.41,-259.35 121.3,-252.97"/>
</a>
</g>
</g>
<!-- 2&#45;&gt;24 -->
<g id="edge36" class="edge">
<title>2&#45;&gt;24</title>
<g id="a_edge36"><a xlink:title="usage">
<path fill="none" stroke="#1414ce" d="M225.03,-287.7C223.71,-279.98 222.12,-270.71 220.65,-262.11"/>
<polygon fill="#1414ce" stroke="#1414ce" points="224.07,-261.37 218.93,-252.1 217.17,-262.55 224.07,-261.37"/>
</a>
</g>
</g>
<!-- 10 -->
<g id="node17" class="node">
<title>10</title>
<g id="a_node17"><a xlink:title="RefcBinary">
<polygon fill="#ffffff" stroke="black" points="685.5,-252 590.5,-252 590.5,-216 685.5,-216 685.5,-252"/>
<text text-anchor="middle" x="638" y="-230.3" font-family="Times,serif" font-size="14.00">RefcBinary</text>
</a>
</g>
</g>
<!-- 10&#45;&gt;5 -->
<g id="edge37" class="edge">
<title>10&#45;&gt;5</title>
<g id="a_edge37"><a xlink:title="usage">
<path fill="none" stroke="#1414ce" d="M638.02,-215.88C638.47,-197.66 640.46,-168.2 648,-144 659.36,-107.52 681.57,-69.34 697.3,-44.92"/>
<polygon fill="#1414ce" stroke="#1414ce" points="700.41,-46.55 702.97,-36.27 694.56,-42.71 700.41,-46.55"/>
</a>
</g>
</g>
<!-- 10&#45;&gt;11 -->
<g id="edge38" class="edge">
<title>10&#45;&gt;11</title>
<g id="a_edge38"><a xlink:title="usage">
<path fill="none" stroke="#1414ce" d="M657.03,-215.7C666.54,-207.05 678.21,-196.45 688.57,-187.03"/>
<polygon fill="#1414ce" stroke="#1414ce" points="691.14,-189.42 696.19,-180.1 686.43,-184.24 691.14,-189.42"/>
</a>
</g>
</g>
<!-- 9&#45;&gt;10 -->
<g id="edge40" class="edge">
<title>9&#45;&gt;10</title>
<g id="a_edge40"><a xlink:title="usage">
<path fill="none" stroke="#1414ce" d="M638,-287.7C638,-279.98 638,-270.71 638,-262.11"/>
<polygon fill="#1414ce" stroke="#1414ce" points="641.5,-262.1 638,-252.1 634.5,-262.1 641.5,-262.1"/>
</a>
</g>
</g>
<!-- 9&#45;&gt;9 -->
<g id="edge39" class="edge">
<title>9&#45;&gt;9</title>
<g id="a_edge39"><a xlink:title="usage">
<path fill="none" stroke="#1414ce" d="M725.3,-317.68C735.99,-315.59 743,-311.7 743,-306 743,-302.35 740.12,-299.44 735.25,-297.27"/>
<polygon fill="#1414ce" stroke="#1414ce" points="735.88,-293.81 725.3,-294.32 733.89,-300.52 735.88,-293.81"/>
</a>
</g>
</g>
<!-- 11&#45;&gt;4 -->
<g id="edge42" class="edge">
<title>11&#45;&gt;4</title>
<g id="a_edge42"><a xlink:title="usage">
<path fill="none" stroke="#1414ce" d="M727.9,-180.23C750.99,-217.56 797.58,-306.09 817.79,-350.56"/>
<polygon fill="#1414ce" stroke="#1414ce" points="814.65,-352.12 821.9,-359.85 821.05,-349.29 814.65,-352.12"/>
</a>
</g>
</g>
<!-- 11&#45;&gt;5 -->
<g id="edge41" class="edge">
<title>11&#45;&gt;5</title>
<g id="a_edge41"><a xlink:title="usage">
<path fill="none" stroke="#1414ce" d="M715,-143.87C715,-119.67 715,-75.21 715,-46.39"/>
<polygon fill="#1414ce" stroke="#1414ce" points="718.5,-46.19 715,-36.19 711.5,-46.19 718.5,-46.19"/>
</a>
</g>
</g>
<!-- 11&#45;&gt;12 -->
<g id="edge43" class="edge">
<title>11&#45;&gt;12</title>
<g id="a_edge43"><a xlink:title="usage">
<path fill="none" stroke="#1414ce" d="M736.26,-143.7C747.09,-134.88 760.42,-124.03 772.16,-114.47"/>
<polygon fill="#1414ce" stroke="#1414ce" points="774.44,-117.13 779.99,-108.1 770.02,-111.7 774.44,-117.13"/>
</a>
</g>
</g>
<!-- 12&#45;&gt;5 -->
<g id="edge44" class="edge">
<title>12&#45;&gt;5</title>
<g id="a_edge44"><a xlink:title="usage">
<path fill="none" stroke="#1414ce" d="M779.74,-71.7C768.91,-62.88 755.58,-52.03 743.84,-42.47"/>
<polygon fill="#1414ce" stroke="#1414ce" points="745.98,-39.7 736.01,-36.1 741.56,-45.13 745.98,-39.7"/>
</a>
</g>
</g>
<!-- 18&#45;&gt;5 -->
<g id="edge45" class="edge">
<title>18&#45;&gt;5</title>
<g id="a_edge45"><a xlink:title="usage">
<path fill="none" stroke="#1414ce" d="M892.86,-75.34C856.43,-63.8 804.18,-47.25 765.74,-35.07"/>
<polygon fill="#1414ce" stroke="#1414ce" points="766.38,-31.6 755.79,-31.92 764.26,-38.28 766.38,-31.6"/>
</a>
</g>
</g>
<!-- 21&#45;&gt;5 -->
<g id="edge46" class="edge">
<title>21&#45;&gt;5</title>
<g id="a_edge46"><a xlink:title="usage">
<path fill="none" stroke="#1414ce" d="M426.79,-74.06C429.9,-73.35 432.99,-72.66 436,-72 515.36,-54.7 608.12,-37.72 664.17,-27.81"/>
<polygon fill="#1414ce" stroke="#1414ce" points="664.96,-31.22 674.2,-26.04 663.74,-24.33 664.96,-31.22"/>
</a>
</g>
</g>
<!-- 17&#45;&gt;15 -->
<g id="edge47" class="edge">
<title>17&#45;&gt;15</title>
<g id="a_edge47"><a xlink:title="usage">
<path fill="none" stroke="#1414ce" d="M1172.74,-215.88C1192.25,-206.26 1216.75,-194.18 1237.41,-184"/>
<polygon fill="#1414ce" stroke="#1414ce" points="1239.18,-187.03 1246.6,-179.47 1236.08,-180.75 1239.18,-187.03"/>
</a>
</g>
</g>
</g>
</svg>
