<?xml version="1.0" encoding="UTF-8" standalone="no"?>
<!DOCTYPE svg PUBLIC "-//W3C//DTD SVG 1.1//EN"
 "http://www.w3.org/Graphics/SVG/1.1/DTD/svg11.dtd">
<!-- Generated by graphviz version 2.43.0 (0)
 -->
<!-- Title: %3 Pages: 1 -->
<svg width="351pt" height="116pt"
 viewBox="0.00 0.00 351.00 116.00" xmlns="http://www.w3.org/2000/svg" xmlns:xlink="http://www.w3.org/1999/xlink">
<g id="graph0" class="graph" transform="scale(1 1) rotate(0) translate(4 112)">
<title>%3</title>
<polygon fill="transparent" stroke="transparent" points="-4,4 -4,-112 347,-112 347,4 -4,4"/>
<!-- 1 -->
<g id="node1" class="node">
<title>1</title>
<g id="a_node1"><a xlink:title="/__w/AtomVM/AtomVM/src/libAtomVM/atom.h">
<polygon fill="#bfbfbf" stroke="black" points="343,-108 0,-108 0,-72 343,-72 343,-108"/>
<text text-anchor="middle" x="171.5" y="-86.3" font-family="Times,serif" font-size="14.00">/__w/AtomVM/AtomVM/src/libAtomVM/atom.h</text>
</a>
</g>
</g>
<!-- 2 -->
<g id="node2" class="node">
<title>2</title>
<g id="a_node2"><a xlink:title="stdint.h">
<polygon fill="#ffffff" stroke="black" points="162.5,-36 90.5,-36 90.5,0 162.5,0 162.5,-36"/>
<text text-anchor="middle" x="126.5" y="-14.3" font-family="Times,serif" font-size="14.00">stdint.h</text>
</a>
</g>
</g>
<!-- 1&#45;&gt;2 -->
<g id="edge1" class="edge">
<title>1&#45;&gt;2</title>
<g id="a_edge1"><a xlink:title="include">
<path fill="none" stroke="#1414ce" d="M160.38,-71.7C155.14,-63.56 148.8,-53.69 143.02,-44.7"/>
<polygon fill="#1414ce" stroke="#1414ce" points="145.85,-42.62 137.5,-36.1 139.96,-46.41 145.85,-42.62"/>
</a>
</g>
</g>
<!-- 3 -->
<g id="node3" class="node">
<title>3</title>
<g id="a_node3"><a xlink:title="stdlib.h">
<polygon fill="#ffffff" stroke="black" points="252,-36 181,-36 181,0 252,0 252,-36"/>
<text text-anchor="middle" x="216.5" y="-14.3" font-family="Times,serif" font-size="14.00">stdlib.h</text>
</a>
</g>
</g>
<!-- 1&#45;&gt;3 -->
<g id="edge2" class="edge">
<title>1&#45;&gt;3</title>
<g id="a_edge2"><a xlink:title="include">
<path fill="none" stroke="#1414ce" d="M182.62,-71.7C187.86,-63.56 194.2,-53.69 199.98,-44.7"/>
<polygon fill="#1414ce" stroke="#1414ce" points="203.04,-46.41 205.5,-36.1 197.15,-42.62 203.04,-46.41"/>
</a>
</g>
</g>
</g>
</svg>
