<?xml version="1.0" encoding="UTF-8" standalone="no"?>
<!DOCTYPE svg PUBLIC "-//W3C//DTD SVG 1.1//EN"
 "http://www.w3.org/Graphics/SVG/1.1/DTD/svg11.dtd">
<!-- Generated by graphviz version 2.43.0 (0)
 -->
<!-- Title: %3 Pages: 1 -->
<svg width="1331pt" height="404pt"
 viewBox="0.00 0.00 1330.79 404.00" xmlns="http://www.w3.org/2000/svg" xmlns:xlink="http://www.w3.org/1999/xlink">
<g id="graph0" class="graph" transform="scale(1 1) rotate(0) translate(4 400)">
<title>%3</title>
<polygon fill="transparent" stroke="transparent" points="-4,4 -4,-400 1326.79,-400 1326.79,4 -4,4"/>
<!-- 14 -->
<g id="node1" class="node">
<title>14</title>
<g id="a_node1"><a xlink:title="AtomTable">
<polygon fill="#ffffff" stroke="black" points="1096.79,-324 1004.79,-324 1004.79,-288 1096.79,-288 1096.79,-324"/>
<text text-anchor="middle" x="1050.79" y="-302.3" font-family="Times,serif" font-size="14.00">AtomTable</text>
</a>
</g>
</g>
<!-- 15 -->
<g id="node7" class="node">
<title>15</title>
<g id="a_node7"><a xlink:title="HNode">
<polygon fill="#ffffff" stroke="black" points="1189.79,-180 1123.79,-180 1123.79,-144 1189.79,-144 1189.79,-180"/>
<text text-anchor="middle" x="1156.79" y="-158.3" font-family="Times,serif" font-size="14.00">HNode</text>
</a>
</g>
</g>
<!-- 14&#45;&gt;15 -->
<g id="edge1" class="edge">
<title>14&#45;&gt;15</title>
<g id="a_edge1"><a xlink:title="usage">
<path fill="none" stroke="#1414ce" d="M1093.32,-287.96C1109.53,-279.45 1126.74,-267.58 1137.79,-252 1150.54,-234.03 1155.03,-209.24 1156.49,-190.39"/>
<polygon fill="#1414ce" stroke="#1414ce" points="1159.99,-190.51 1157.02,-180.33 1153,-190.13 1159.99,-190.51"/>
</a>
</g>
</g>
<!-- 16 -->
<g id="node8" class="node">
<title>16</title>
<g id="a_node8"><a xlink:title="HNodeGroup">
<polygon fill="#ffffff" stroke="black" points="1110.79,-252 1000.79,-252 1000.79,-216 1110.79,-216 1110.79,-252"/>
<text text-anchor="middle" x="1055.79" y="-230.3" font-family="Times,serif" font-size="14.00">HNodeGroup</text>
</a>
</g>
</g>
<!-- 14&#45;&gt;16 -->
<g id="edge2" class="edge">
<title>14&#45;&gt;16</title>
<g id="a_edge2"><a xlink:title="usage">
<path fill="none" stroke="#1414ce" d="M1052.03,-287.7C1052.58,-279.98 1053.24,-270.71 1053.86,-262.11"/>
<polygon fill="#1414ce" stroke="#1414ce" points="1057.35,-262.33 1054.57,-252.1 1050.37,-261.83 1057.35,-262.33"/>
</a>
</g>
</g>
<!-- 1 -->
<g id="node2" class="node">
<title>1</title>
<g id="a_node2"><a xlink:title="Bif">
<polygon fill="#bfbfbf" stroke="black" points="670.79,-324 616.79,-324 616.79,-288 670.79,-288 670.79,-324"/>
<text text-anchor="middle" x="643.79" y="-302.3" font-family="Times,serif" font-size="14.00">Bif</text>
</a>
</g>
</g>
<!-- 3 -->
<g id="node3" class="node">
<title>3</title>
<g id="a_node3"><a xlink:title="Context">
<polygon fill="#ffffff" stroke="black" points="732.29,-252 659.29,-252 659.29,-216 732.29,-216 732.29,-252"/>
<text text-anchor="middle" x="695.79" y="-230.3" font-family="Times,serif" font-size="14.00">Context</text>
</a>
</g>
</g>
<!-- 1&#45;&gt;3 -->
<g id="edge4" class="edge">
<title>1&#45;&gt;3</title>
<g id="a_edge4"><a xlink:title="usage">
<path fill="none" stroke="#1414ce" d="M656.65,-287.7C662.82,-279.39 670.33,-269.28 677.12,-260.14"/>
<polygon fill="#1414ce" stroke="#1414ce" points="679.93,-262.22 683.09,-252.1 674.31,-258.04 679.93,-262.22"/>
</a>
</g>
</g>
<!-- 2 -->
<g id="node5" class="node">
<title>2</title>
<g id="a_node5"><a xlink:title="ExportedFunction">
<polygon fill="#ffffff" stroke="black" points="640.79,-252 494.79,-252 494.79,-216 640.79,-216 640.79,-252"/>
<text text-anchor="middle" x="567.79" y="-230.3" font-family="Times,serif" font-size="14.00">ExportedFunction</text>
</a>
</g>
</g>
<!-- 1&#45;&gt;2 -->
<g id="edge3" class="edge">
<title>1&#45;&gt;2</title>
<g id="a_edge3"><a xlink:title="usage">
<path fill="none" stroke="#1414ce" d="M625.01,-287.7C615.62,-279.05 604.11,-268.45 593.88,-259.03"/>
<polygon fill="#1414ce" stroke="#1414ce" points="596.09,-256.3 586.36,-252.1 591.35,-261.45 596.09,-256.3"/>
</a>
</g>
</g>
<!-- 3&#45;&gt;3 -->
<g id="edge10" class="edge">
<title>3&#45;&gt;3</title>
<g id="a_edge10"><a xlink:title="usage">
<path fill="none" stroke="#1414ce" d="M732.47,-247.42C742.57,-246.77 750.29,-242.3 750.29,-234 750.29,-228.81 747.28,-225.12 742.55,-222.93"/>
<polygon fill="#1414ce" stroke="#1414ce" points="743,-219.44 732.47,-220.58 741.42,-226.26 743,-219.44"/>
</a>
</g>
</g>
<!-- 4 -->
<g id="node6" class="node">
<title>4</title>
<g id="a_node6"><a xlink:title="GlobalContext">
<polygon fill="#ffffff" stroke="black" points="623.29,-396 504.29,-396 504.29,-360 623.29,-360 623.29,-396"/>
<text text-anchor="middle" x="563.79" y="-374.3" font-family="Times,serif" font-size="14.00">GlobalContext</text>
</a>
</g>
</g>
<!-- 3&#45;&gt;4 -->
<g id="edge5" class="edge">
<title>3&#45;&gt;4</title>
<g id="a_edge5"><a xlink:title="usage">
<path fill="none" stroke="#1414ce" d="M697.16,-252.28C697.78,-271.73 695.87,-303.29 679.79,-324 667.88,-339.34 650.52,-350.39 632.83,-358.29"/>
<polygon fill="#1414ce" stroke="#1414ce" points="631.47,-355.07 623.58,-362.14 634.16,-361.53 631.47,-355.07"/>
</a>
</g>
</g>
<!-- 21 -->
<g id="node9" class="node">
<title>21</title>
<g id="a_node9"><a xlink:title="Heap">
<polygon fill="#ffffff" stroke="black" points="535.79,-180 481.79,-180 481.79,-144 535.79,-144 535.79,-180"/>
<text text-anchor="middle" x="508.79" y="-158.3" font-family="Times,serif" font-size="14.00">Heap</text>
</a>
</g>
</g>
<!-- 3&#45;&gt;21 -->
<g id="edge6" class="edge">
<title>3&#45;&gt;21</title>
<g id="a_edge6"><a xlink:title="usage">
<path fill="none" stroke="#1414ce" d="M658.85,-219.17C626.05,-206.89 578.38,-189.05 545.62,-176.79"/>
<polygon fill="#1414ce" stroke="#1414ce" points="546.56,-173.4 535.96,-173.17 544.1,-179.96 546.56,-173.4"/>
</a>
</g>
</g>
<!-- 5 -->
<g id="node11" class="node">
<title>5</title>
<g id="a_node11"><a xlink:title="ListHead">
<polygon fill="#ffffff" stroke="black" points="347.29,-36 266.29,-36 266.29,0 347.29,0 347.29,-36"/>
<text text-anchor="middle" x="306.79" y="-14.3" font-family="Times,serif" font-size="14.00">ListHead</text>
</a>
</g>
</g>
<!-- 3&#45;&gt;5 -->
<g id="edge7" class="edge">
<title>3&#45;&gt;5</title>
<g id="a_edge7"><a xlink:title="usage">
<path fill="none" stroke="#1414ce" d="M684.89,-215.93C660.59,-178.41 601.76,-90.62 571.79,-72 505.76,-30.97 414.2,-20.85 357.81,-18.82"/>
<polygon fill="#1414ce" stroke="#1414ce" points="357.8,-15.32 347.71,-18.53 357.6,-22.31 357.8,-15.32"/>
</a>
</g>
</g>
<!-- 24 -->
<g id="node13" class="node">
<title>24</title>
<g id="a_node13"><a xlink:title="Mailbox">
<polygon fill="#ffffff" stroke="black" points="801.79,-180 727.79,-180 727.79,-144 801.79,-144 801.79,-180"/>
<text text-anchor="middle" x="764.79" y="-158.3" font-family="Times,serif" font-size="14.00">Mailbox</text>
</a>
</g>
</g>
<!-- 3&#45;&gt;24 -->
<g id="edge11" class="edge">
<title>3&#45;&gt;24</title>
<g id="a_edge11"><a xlink:title="usage">
<path fill="none" stroke="#1414ce" d="M712.85,-215.7C721.29,-207.14 731.62,-196.66 740.83,-187.3"/>
<polygon fill="#1414ce" stroke="#1414ce" points="743.4,-189.68 747.93,-180.1 738.42,-184.77 743.4,-189.68"/>
</a>
</g>
</g>
<!-- 18 -->
<g id="node16" class="node">
<title>18</title>
<g id="a_node16"><a xlink:title="Module">
<polygon fill="#ffffff" stroke="black" points="598.79,-324 528.79,-324 528.79,-288 598.79,-288 598.79,-324"/>
<text text-anchor="middle" x="563.79" y="-302.3" font-family="Times,serif" font-size="14.00">Module</text>
</a>
</g>
</g>
<!-- 3&#45;&gt;18 -->
<g id="edge9" class="edge">
<title>3&#45;&gt;18</title>
<g id="a_edge9"><a xlink:title="usage">
<path fill="none" stroke="#1414ce" d="M669.24,-252.21C651.64,-262.09 628.23,-274.55 607.9,-284.88"/>
<polygon fill="#1414ce" stroke="#1414ce" points="606.16,-281.84 598.81,-289.46 609.31,-288.09 606.16,-281.84"/>
</a>
</g>
</g>
<!-- 23 -->
<g id="node23" class="node">
<title>23</title>
<g id="a_node23"><a xlink:title="TimerListItem">
<polygon fill="#ffffff" stroke="black" points="738.29,-108 619.29,-108 619.29,-72 738.29,-72 738.29,-108"/>
<text text-anchor="middle" x="678.79" y="-86.3" font-family="Times,serif" font-size="14.00">TimerListItem</text>
</a>
</g>
</g>
<!-- 3&#45;&gt;23 -->
<g id="edge8" class="edge">
<title>3&#45;&gt;23</title>
<g id="a_edge8"><a xlink:title="usage">
<path fill="none" stroke="#1414ce" d="M693.74,-215.87C690.84,-191.67 685.52,-147.21 682.07,-118.39"/>
<polygon fill="#1414ce" stroke="#1414ce" points="685.51,-117.7 680.85,-108.19 678.56,-118.53 685.51,-117.7"/>
</a>
</g>
</g>
<!-- 13 -->
<g id="node4" class="node">
<title>13</title>
<g id="a_node4"><a xlink:title="Ets">
<polygon fill="#ffffff" stroke="black" points="388.79,-180 334.79,-180 334.79,-144 388.79,-144 388.79,-180"/>
<text text-anchor="middle" x="361.79" y="-158.3" font-family="Times,serif" font-size="14.00">Ets</text>
</a>
</g>
</g>
<!-- 12 -->
<g id="node21" class="node">
<title>12</title>
<g id="a_node21"><a xlink:title="SyncList">
<polygon fill="#ffffff" stroke="black" points="345.79,-108 267.79,-108 267.79,-72 345.79,-72 345.79,-108"/>
<text text-anchor="middle" x="306.79" y="-86.3" font-family="Times,serif" font-size="14.00">SyncList</text>
</a>
</g>
</g>
<!-- 13&#45;&gt;12 -->
<g id="edge12" class="edge">
<title>13&#45;&gt;12</title>
<g id="a_edge12"><a xlink:title="usage">
<path fill="none" stroke="#1414ce" d="M348.2,-143.7C341.67,-135.39 333.72,-125.28 326.55,-116.14"/>
<polygon fill="#1414ce" stroke="#1414ce" points="329.16,-113.81 320.23,-108.1 323.66,-118.13 329.16,-113.81"/>
</a>
</g>
</g>
<!-- 4&#45;&gt;14 -->
<g id="edge19" class="edge">
<title>4&#45;&gt;14</title>
<g id="a_edge19"><a xlink:title="usage">
<path fill="none" stroke="#1414ce" d="M623.39,-372.09C705.65,-364.73 858.38,-348.98 986.79,-324 989.31,-323.51 991.88,-322.98 994.46,-322.41"/>
<polygon fill="#1414ce" stroke="#1414ce" points="995.52,-325.76 1004.47,-320.09 993.94,-318.94 995.52,-325.76"/>
</a>
</g>
</g>
<!-- 4&#45;&gt;13 -->
<g id="edge18" class="edge">
<title>4&#45;&gt;13</title>
<g id="a_edge18"><a xlink:title="usage">
<path fill="none" stroke="#1414ce" d="M510.08,-359.92C462.31,-341.57 395.28,-307.34 363.79,-252 353.2,-233.39 353.49,-208.85 355.98,-190.25"/>
<polygon fill="#1414ce" stroke="#1414ce" points="359.44,-190.77 357.59,-180.34 352.53,-189.65 359.44,-190.77"/>
</a>
</g>
</g>
<!-- 4&#45;&gt;5 -->
<g id="edge13" class="edge">
<title>4&#45;&gt;5</title>
<g id="a_edge13"><a xlink:title="usage">
<path fill="none" stroke="#1414ce" d="M503.9,-375.08C370.36,-370.23 57.18,-355.61 21.79,-324 -8.38,-297.06 2.79,-275.45 2.79,-235 2.79,-235 2.79,-235 2.79,-161 2.79,-50.59 169.45,-25.83 255.97,-20.42"/>
<polygon fill="#1414ce" stroke="#1414ce" points="256.32,-23.9 266.11,-19.85 255.93,-16.91 256.32,-23.9"/>
</a>
</g>
</g>
<!-- 7 -->
<g id="node15" class="node">
<title>7</title>
<g id="a_node15"><a xlink:title="MessageQueueItem">
<polygon fill="#ffffff" stroke="black" points="926.79,-252 768.79,-252 768.79,-216 926.79,-216 926.79,-252"/>
<text text-anchor="middle" x="847.79" y="-230.3" font-family="Times,serif" font-size="14.00">MessageQueueItem</text>
</a>
</g>
</g>
<!-- 4&#45;&gt;7 -->
<g id="edge15" class="edge">
<title>4&#45;&gt;7</title>
<g id="a_edge15"><a xlink:title="usage">
<path fill="none" stroke="#1414ce" d="M614.15,-359.92C640.45,-350.4 672.87,-337.72 700.79,-324 741.07,-304.21 784.77,-276.94 813.97,-257.82"/>
<polygon fill="#1414ce" stroke="#1414ce" points="816.12,-260.59 822.54,-252.17 812.27,-254.75 816.12,-260.59"/>
</a>
</g>
</g>
<!-- 4&#45;&gt;18 -->
<g id="edge21" class="edge">
<title>4&#45;&gt;18</title>
<g id="a_edge21"><a xlink:title="usage">
<path fill="none" stroke="#1414ce" d="M563.79,-359.7C563.79,-351.98 563.79,-342.71 563.79,-334.11"/>
<polygon fill="#1414ce" stroke="#1414ce" points="567.29,-334.1 563.79,-324.1 560.29,-334.1 567.29,-334.1"/>
</a>
</g>
</g>
<!-- 9 -->
<g id="node18" class="node">
<title>9</title>
<g id="a_node18"><a xlink:title="RefcBinaryQueueItem">
<polygon fill="#ffffff" stroke="black" points="204.79,-324 30.79,-324 30.79,-288 204.79,-288 204.79,-324"/>
<text text-anchor="middle" x="117.79" y="-302.3" font-family="Times,serif" font-size="14.00">RefcBinaryQueueItem</text>
</a>
</g>
</g>
<!-- 4&#45;&gt;9 -->
<g id="edge16" class="edge">
<title>4&#45;&gt;9</title>
<g id="a_edge16"><a xlink:title="usage">
<path fill="none" stroke="#1414ce" d="M504.11,-367.63C430.17,-356.03 303.21,-336.1 215.11,-322.27"/>
<polygon fill="#1414ce" stroke="#1414ce" points="215.52,-318.8 205.1,-320.7 214.44,-325.71 215.52,-318.8"/>
</a>
</g>
</g>
<!-- 11 -->
<g id="node19" class="node">
<title>11</title>
<g id="a_node19"><a xlink:title="ResourceType">
<polygon fill="#ffffff" stroke="black" points="278.29,-180 161.29,-180 161.29,-144 278.29,-144 278.29,-180"/>
<text text-anchor="middle" x="219.79" y="-158.3" font-family="Times,serif" font-size="14.00">ResourceType</text>
</a>
</g>
</g>
<!-- 4&#45;&gt;11 -->
<g id="edge23" class="edge">
<title>4&#45;&gt;11</title>
<g id="a_edge23"><a xlink:title="usage">
<path fill="none" stroke="#1414ce" d="M504.25,-372.34C432.23,-365.36 316.84,-350.13 283.79,-324 241.47,-290.53 222.85,-227.1 218.25,-190.64"/>
<polygon fill="#1414ce" stroke="#1414ce" points="221.69,-189.88 217.26,-180.26 214.72,-190.54 221.69,-189.88"/>
</a>
</g>
</g>
<!-- 6 -->
<g id="node20" class="node">
<title>6</title>
<g id="a_node20"><a xlink:title="SpinLock">
<polygon fill="#ffffff" stroke="black" points="1196.79,-324 1114.79,-324 1114.79,-288 1196.79,-288 1196.79,-324"/>
<text text-anchor="middle" x="1155.79" y="-302.3" font-family="Times,serif" font-size="14.00">SpinLock</text>
</a>
</g>
</g>
<!-- 4&#45;&gt;6 -->
<g id="edge14" class="edge">
<title>4&#45;&gt;6</title>
<g id="a_edge14"><a xlink:title="usage">
<path fill="none" stroke="#1414ce" d="M623.43,-375.64C722.17,-372.42 925.68,-361.66 1104.67,-323.96"/>
<polygon fill="#1414ce" stroke="#1414ce" points="1105.48,-327.36 1114.53,-321.85 1104.02,-320.52 1105.48,-327.36"/>
</a>
</g>
</g>
<!-- 4&#45;&gt;12 -->
<g id="edge17" class="edge">
<title>4&#45;&gt;12</title>
<g id="a_edge17"><a xlink:title="usage">
<path fill="none" stroke="#1414ce" d="M504.03,-370.1C468.01,-363.36 423.02,-350.09 390.79,-324 326.94,-272.31 311.61,-168 307.94,-118.4"/>
<polygon fill="#1414ce" stroke="#1414ce" points="311.41,-117.89 307.29,-108.13 304.43,-118.33 311.41,-117.89"/>
</a>
</g>
</g>
<!-- 20 -->
<g id="node22" class="node">
<title>20</title>
<g id="a_node22"><a xlink:title="TimerList">
<polygon fill="#ffffff" stroke="black" points="1015.79,-108 929.79,-108 929.79,-72 1015.79,-72 1015.79,-108"/>
<text text-anchor="middle" x="972.79" y="-86.3" font-family="Times,serif" font-size="14.00">TimerList</text>
</a>
</g>
</g>
<!-- 4&#45;&gt;20 -->
<g id="edge22" class="edge">
<title>4&#45;&gt;20</title>
<g id="a_edge22"><a xlink:title="usage">
<path fill="none" stroke="#1414ce" d="M623.45,-376.92C711.08,-373.26 872.93,-352.35 953.79,-252 984.52,-213.87 982.25,-153.19 977.65,-118.24"/>
<polygon fill="#1414ce" stroke="#1414ce" points="981.1,-117.65 976.18,-108.27 974.18,-118.67 981.1,-117.65"/>
</a>
</g>
</g>
<!-- 17 -->
<g id="node24" class="node">
<title>17</title>
<g id="a_node24"><a xlink:title="ValuesHashTable">
<polygon fill="#ffffff" stroke="black" points="1322.79,-252 1184.79,-252 1184.79,-216 1322.79,-216 1322.79,-252"/>
<text text-anchor="middle" x="1253.79" y="-230.3" font-family="Times,serif" font-size="14.00">ValuesHashTable</text>
</a>
</g>
</g>
<!-- 4&#45;&gt;17 -->
<g id="edge20" class="edge">
<title>4&#45;&gt;17</title>
<g id="a_edge20"><a xlink:title="usage">
<path fill="none" stroke="#1414ce" d="M623.54,-375.29C773.6,-370.54 1157.74,-355.43 1205.79,-324 1227.41,-309.86 1240.03,-282.57 1246.86,-261.92"/>
<polygon fill="#1414ce" stroke="#1414ce" points="1250.28,-262.71 1249.84,-252.12 1243.58,-260.67 1250.28,-262.71"/>
</a>
</g>
</g>
<!-- 15&#45;&gt;15 -->
<g id="edge24" class="edge">
<title>15&#45;&gt;15</title>
<g id="a_edge24"><a xlink:title="usage">
<path fill="none" stroke="#1414ce" d="M1190.15,-175.47C1200.07,-175.07 1207.79,-170.58 1207.79,-162 1207.79,-156.64 1204.78,-152.87 1200.09,-150.71"/>
<polygon fill="#1414ce" stroke="#1414ce" points="1200.66,-147.25 1190.15,-148.53 1199.17,-154.09 1200.66,-147.25"/>
</a>
</g>
</g>
<!-- 16&#45;&gt;15 -->
<g id="edge26" class="edge">
<title>16&#45;&gt;15</title>
<g id="a_edge26"><a xlink:title="usage">
<path fill="none" stroke="#1414ce" d="M1080.5,-215.88C1093.46,-206.89 1109.52,-195.76 1123.56,-186.03"/>
<polygon fill="#1414ce" stroke="#1414ce" points="1125.76,-188.76 1131.99,-180.19 1121.78,-183.01 1125.76,-188.76"/>
</a>
</g>
</g>
<!-- 16&#45;&gt;16 -->
<g id="edge25" class="edge">
<title>16&#45;&gt;16</title>
<g id="a_edge25"><a xlink:title="usage">
<path fill="none" stroke="#1414ce" d="M1110.87,-246.85C1121.37,-245.32 1128.79,-241.03 1128.79,-234 1128.79,-229.5 1125.74,-226.12 1120.79,-223.87"/>
<polygon fill="#1414ce" stroke="#1414ce" points="1121.43,-220.42 1110.87,-221.15 1119.58,-227.17 1121.43,-220.42"/>
</a>
</g>
</g>
<!-- 22 -->
<g id="node10" class="node">
<title>22</title>
<g id="a_node10"><a xlink:title="HeapFragment">
<polygon fill="#ffffff" stroke="black" points="544.29,-108 419.29,-108 419.29,-72 544.29,-72 544.29,-108"/>
<text text-anchor="middle" x="481.79" y="-86.3" font-family="Times,serif" font-size="14.00">HeapFragment</text>
</a>
</g>
</g>
<!-- 21&#45;&gt;22 -->
<g id="edge27" class="edge">
<title>21&#45;&gt;22</title>
<g id="a_edge27"><a xlink:title="usage">
<path fill="none" stroke="#1414ce" d="M502.12,-143.7C499.08,-135.81 495.41,-126.3 492.03,-117.55"/>
<polygon fill="#1414ce" stroke="#1414ce" points="495.25,-116.17 488.39,-108.1 488.72,-118.69 495.25,-116.17"/>
</a>
</g>
</g>
<!-- 22&#45;&gt;22 -->
<g id="edge28" class="edge">
<title>22&#45;&gt;22</title>
<g id="a_edge28"><a xlink:title="usage">
<path fill="none" stroke="#1414ce" d="M544.57,-102.55C555.06,-100.79 562.29,-96.61 562.29,-90 562.29,-85.77 559.32,-82.53 554.43,-80.29"/>
<polygon fill="#1414ce" stroke="#1414ce" points="555.15,-76.85 544.57,-77.45 553.21,-83.58 555.15,-76.85"/>
</a>
</g>
</g>
<!-- 5&#45;&gt;5 -->
<g id="edge29" class="edge">
<title>5&#45;&gt;5</title>
<g id="a_edge29"><a xlink:title="usage">
<path fill="none" stroke="#1414ce" d="M347.53,-31.31C357.69,-30.38 365.29,-25.95 365.29,-18 365.29,-12.91 362.17,-9.26 357.26,-7.05"/>
<polygon fill="#1414ce" stroke="#1414ce" points="358.07,-3.64 347.53,-4.69 356.42,-10.45 358.07,-3.64"/>
</a>
</g>
</g>
<!-- 19 -->
<g id="node12" class="node">
<title>19</title>
<g id="a_node12"><a xlink:title="LiteralEntry">
<polygon fill="#ffffff" stroke="black" points="476.79,-252 372.79,-252 372.79,-216 476.79,-216 476.79,-252"/>
<text text-anchor="middle" x="424.79" y="-230.3" font-family="Times,serif" font-size="14.00">LiteralEntry</text>
</a>
</g>
</g>
<!-- 8 -->
<g id="node14" class="node">
<title>8</title>
<g id="a_node14"><a xlink:title="MailboxMessage">
<polygon fill="#ffffff" stroke="black" points="893.29,-108 756.29,-108 756.29,-72 893.29,-72 893.29,-108"/>
<text text-anchor="middle" x="824.79" y="-86.3" font-family="Times,serif" font-size="14.00">MailboxMessage</text>
</a>
</g>
</g>
<!-- 24&#45;&gt;8 -->
<g id="edge30" class="edge">
<title>24&#45;&gt;8</title>
<g id="a_edge30"><a xlink:title="usage">
<path fill="none" stroke="#1414ce" d="M779.62,-143.7C786.82,-135.3 795.59,-125.07 803.48,-115.86"/>
<polygon fill="#1414ce" stroke="#1414ce" points="806.28,-117.97 810.13,-108.1 800.97,-113.42 806.28,-117.97"/>
</a>
</g>
</g>
<!-- 8&#45;&gt;8 -->
<g id="edge31" class="edge">
<title>8&#45;&gt;8</title>
<g id="a_edge31"><a xlink:title="usage">
<path fill="none" stroke="#1414ce" d="M893.32,-102.37C904.01,-100.52 911.29,-96.4 911.29,-90 911.29,-85.8 908.15,-82.58 902.98,-80.34"/>
<polygon fill="#1414ce" stroke="#1414ce" points="903.89,-76.96 893.32,-77.63 902,-83.7 903.89,-76.96"/>
</a>
</g>
</g>
<!-- 7&#45;&gt;8 -->
<g id="edge33" class="edge">
<title>7&#45;&gt;8</title>
<g id="a_edge33"><a xlink:title="usage">
<path fill="none" stroke="#1414ce" d="M845.02,-215.87C841.1,-191.67 833.9,-147.21 829.23,-118.39"/>
<polygon fill="#1414ce" stroke="#1414ce" points="832.63,-117.5 827.58,-108.19 825.72,-118.62 832.63,-117.5"/>
</a>
</g>
</g>
<!-- 7&#45;&gt;7 -->
<g id="edge32" class="edge">
<title>7&#45;&gt;7</title>
<g id="a_edge32"><a xlink:title="usage">
<path fill="none" stroke="#1414ce" d="M926.96,-245.98C937.66,-243.97 944.79,-239.98 944.79,-234 944.79,-230.08 941.72,-227.01 936.58,-224.8"/>
<polygon fill="#1414ce" stroke="#1414ce" points="937.53,-221.43 926.96,-222.02 935.6,-228.15 937.53,-221.43"/>
</a>
</g>
</g>
<!-- 18&#45;&gt;3 -->
<g id="edge34" class="edge">
<title>18&#45;&gt;3</title>
<g id="a_edge34"><a xlink:title="usage">
<path fill="none" stroke="#1414ce" d="M590.19,-287.88C607.31,-278.26 629.98,-266.18 649.96,-256"/>
<polygon fill="#1414ce" stroke="#1414ce" points="651.57,-259.1 658.92,-251.47 648.41,-252.85 651.57,-259.1"/>
</a>
</g>
</g>
<!-- 18&#45;&gt;2 -->
<g id="edge35" class="edge">
<title>18&#45;&gt;2</title>
<g id="a_edge35"><a xlink:title="usage">
<path fill="none" stroke="#1414ce" d="M564.78,-287.7C565.22,-279.98 565.75,-270.71 566.24,-262.11"/>
<polygon fill="#1414ce" stroke="#1414ce" points="569.74,-262.29 566.81,-252.1 562.75,-261.89 569.74,-262.29"/>
</a>
</g>
</g>
<!-- 18&#45;&gt;19 -->
<g id="edge36" class="edge">
<title>18&#45;&gt;19</title>
<g id="a_edge36"><a xlink:title="usage">
<path fill="none" stroke="#1414ce" d="M529.79,-287.88C511.19,-278.51 487.96,-266.81 468.09,-256.8"/>
<polygon fill="#1414ce" stroke="#1414ce" points="469.43,-253.56 458.93,-252.19 466.28,-259.81 469.43,-253.56"/>
</a>
</g>
</g>
<!-- 10 -->
<g id="node17" class="node">
<title>10</title>
<g id="a_node17"><a xlink:title="RefcBinary">
<polygon fill="#ffffff" stroke="black" points="180.29,-252 85.29,-252 85.29,-216 180.29,-216 180.29,-252"/>
<text text-anchor="middle" x="132.79" y="-230.3" font-family="Times,serif" font-size="14.00">RefcBinary</text>
</a>
</g>
</g>
<!-- 10&#45;&gt;5 -->
<g id="edge37" class="edge">
<title>10&#45;&gt;5</title>
<g id="a_edge37"><a xlink:title="usage">
<path fill="none" stroke="#1414ce" d="M133.21,-215.74C134.38,-196.88 138.41,-166.37 151.79,-144 179.04,-98.47 229.33,-62.6 265.24,-41.17"/>
<polygon fill="#1414ce" stroke="#1414ce" points="267.17,-44.1 274.04,-36.04 263.64,-38.06 267.17,-44.1"/>
</a>
</g>
</g>
<!-- 10&#45;&gt;11 -->
<g id="edge38" class="edge">
<title>10&#45;&gt;11</title>
<g id="a_edge38"><a xlink:title="usage">
<path fill="none" stroke="#1414ce" d="M154.3,-215.7C165.25,-206.88 178.74,-196.03 190.62,-186.47"/>
<polygon fill="#1414ce" stroke="#1414ce" points="192.94,-189.1 198.53,-180.1 188.55,-183.65 192.94,-189.1"/>
</a>
</g>
</g>
<!-- 9&#45;&gt;10 -->
<g id="edge40" class="edge">
<title>9&#45;&gt;10</title>
<g id="a_edge40"><a xlink:title="usage">
<path fill="none" stroke="#1414ce" d="M121.5,-287.7C123.15,-279.98 125.14,-270.71 126.98,-262.11"/>
<polygon fill="#1414ce" stroke="#1414ce" points="130.45,-262.62 129.13,-252.1 123.61,-261.15 130.45,-262.62"/>
</a>
</g>
</g>
<!-- 9&#45;&gt;9 -->
<g id="edge39" class="edge">
<title>9&#45;&gt;9</title>
<g id="a_edge39"><a xlink:title="usage">
<path fill="none" stroke="#1414ce" d="M205.09,-317.68C215.78,-315.59 222.79,-311.7 222.79,-306 222.79,-302.35 219.92,-299.44 215.04,-297.27"/>
<polygon fill="#1414ce" stroke="#1414ce" points="215.68,-293.81 205.09,-294.32 213.68,-300.52 215.68,-293.81"/>
</a>
</g>
</g>
<!-- 11&#45;&gt;4 -->
<g id="edge42" class="edge">
<title>11&#45;&gt;4</title>
<g id="a_edge42"><a xlink:title="usage">
<path fill="none" stroke="#1414ce" d="M227.43,-180.26C237.25,-213.65 255.09,-287.07 301.79,-324 331.34,-347.37 426.77,-362.02 493.95,-369.85"/>
<polygon fill="#1414ce" stroke="#1414ce" points="493.73,-373.35 504.06,-371 494.52,-366.39 493.73,-373.35"/>
</a>
</g>
</g>
<!-- 11&#45;&gt;5 -->
<g id="edge41" class="edge">
<title>11&#45;&gt;5</title>
<g id="a_edge41"><a xlink:title="usage">
<path fill="none" stroke="#1414ce" d="M225.46,-143.78C231.98,-125.22 243.76,-95.23 258.79,-72 265.2,-62.11 273.45,-52.26 281.3,-43.79"/>
<polygon fill="#1414ce" stroke="#1414ce" points="283.96,-46.08 288.34,-36.43 278.9,-41.24 283.96,-46.08"/>
</a>
</g>
</g>
<!-- 11&#45;&gt;12 -->
<g id="edge43" class="edge">
<title>11&#45;&gt;12</title>
<g id="a_edge43"><a xlink:title="usage">
<path fill="none" stroke="#1414ce" d="M241.3,-143.7C252.25,-134.88 265.74,-124.03 277.62,-114.47"/>
<polygon fill="#1414ce" stroke="#1414ce" points="279.94,-117.1 285.53,-108.1 275.55,-111.65 279.94,-117.1"/>
</a>
</g>
</g>
<!-- 12&#45;&gt;5 -->
<g id="edge44" class="edge">
<title>12&#45;&gt;5</title>
<g id="a_edge44"><a xlink:title="usage">
<path fill="none" stroke="#1414ce" d="M306.79,-71.7C306.79,-63.98 306.79,-54.71 306.79,-46.11"/>
<polygon fill="#1414ce" stroke="#1414ce" points="310.29,-46.1 306.79,-36.1 303.29,-46.1 310.29,-46.1"/>
</a>
</g>
</g>
<!-- 20&#45;&gt;5 -->
<g id="edge45" class="edge">
<title>20&#45;&gt;5</title>
<g id="a_edge45"><a xlink:title="usage">
<path fill="none" stroke="#1414ce" d="M929.58,-74.05C926.63,-73.28 923.68,-72.59 920.79,-72 714.83,-30.03 463.38,-21.26 357.56,-19.46"/>
<polygon fill="#1414ce" stroke="#1414ce" points="357.53,-15.96 347.48,-19.3 357.42,-22.95 357.53,-15.96"/>
</a>
</g>
</g>
<!-- 23&#45;&gt;5 -->
<g id="edge46" class="edge">
<title>23&#45;&gt;5</title>
<g id="a_edge46"><a xlink:title="usage">
<path fill="none" stroke="#1414ce" d="M619.07,-75.01C614.25,-73.96 609.44,-72.95 604.79,-72 518.15,-54.35 416.66,-37.01 357.27,-27.19"/>
<polygon fill="#1414ce" stroke="#1414ce" points="357.84,-23.74 347.4,-25.56 356.7,-30.64 357.84,-23.74"/>
</a>
</g>
</g>
<!-- 17&#45;&gt;15 -->
<g id="edge47" class="edge">
<title>17&#45;&gt;15</title>
<g id="a_edge47"><a xlink:title="usage">
<path fill="none" stroke="#1414ce" d="M1229.81,-215.7C1217.48,-206.8 1202.28,-195.82 1188.94,-186.2"/>
<polygon fill="#1414ce" stroke="#1414ce" points="1190.65,-183.12 1180.49,-180.1 1186.55,-188.79 1190.65,-183.12"/>
</a>
</g>
</g>
</g>
</svg>
