<?xml version="1.0" encoding="UTF-8" standalone="no"?>
<!DOCTYPE svg PUBLIC "-//W3C//DTD SVG 1.1//EN"
 "http://www.w3.org/Graphics/SVG/1.1/DTD/svg11.dtd">
<!-- Generated by graphviz version 2.43.0 (0)
 -->
<!-- Title: %3 Pages: 1 -->
<svg width="2218pt" height="116pt"
 viewBox="0.00 0.00 2217.50 116.00" xmlns="http://www.w3.org/2000/svg" xmlns:xlink="http://www.w3.org/1999/xlink">
<g id="graph0" class="graph" transform="scale(1 1) rotate(0) translate(4 112)">
<title>%3</title>
<polygon fill="transparent" stroke="transparent" points="-4,4 -4,-112 2213.5,-112 2213.5,4 -4,4"/>
<!-- 2 -->
<g id="node1" class="node">
<title>2</title>
<g id="a_node1"><a xlink:title="/__w/AtomVM/AtomVM/src/libAtomVM/bif.c">
<polygon fill="#ffffff" stroke="black" points="323,-36 0,-36 0,0 323,0 323,-36"/>
<text text-anchor="middle" x="161.5" y="-14.3" font-family="Times,serif" font-size="14.00">/__w/AtomVM/AtomVM/src/libAtomVM/bif.c</text>
</a>
</g>
</g>
<!-- 1 -->
<g id="node2" class="node">
<title>1</title>
<g id="a_node2"><a xlink:title="/__w/AtomVM/AtomVM/src/libAtomVM/bif.h">
<polygon fill="#bfbfbf" stroke="black" points="1266,-108 941,-108 941,-72 1266,-72 1266,-108"/>
<text text-anchor="middle" x="1103.5" y="-86.3" font-family="Times,serif" font-size="14.00">/__w/AtomVM/AtomVM/src/libAtomVM/bif.h</text>
</a>
</g>
</g>
<!-- 1&#45;&gt;2 -->
<g id="edge1" class="edge">
<title>1&#45;&gt;2</title>
<g id="a_edge1"><a xlink:title="include">
<path fill="none" stroke="#1414ce" d="M930.76,-78.64C774.43,-68.9 537.9,-53.27 332.5,-36 329.38,-35.74 326.23,-35.47 323.05,-35.19"/>
<polygon fill="#1414ce" stroke="#1414ce" points="930.75,-82.14 940.94,-79.27 931.18,-75.15 930.75,-82.14"/>
</a>
</g>
</g>
<!-- 3 -->
<g id="node3" class="node">
<title>3</title>
<g id="a_node3"><a xlink:title="/__w/AtomVM/AtomVM/src/libAtomVM/external_term.c">
<polygon fill="#ffffff" stroke="black" points="747.5,-36 341.5,-36 341.5,0 747.5,0 747.5,-36"/>
<text text-anchor="middle" x="544.5" y="-14.3" font-family="Times,serif" font-size="14.00">/__w/AtomVM/AtomVM/src/libAtomVM/external_term.c</text>
</a>
</g>
</g>
<!-- 1&#45;&gt;3 -->
<g id="edge2" class="edge">
<title>1&#45;&gt;3</title>
<g id="a_edge2"><a xlink:title="include">
<path fill="none" stroke="#1414ce" d="M957.41,-70.71C871.83,-59.99 764.46,-46.54 680.66,-36.05"/>
<polygon fill="#1414ce" stroke="#1414ce" points="957.11,-74.2 967.47,-71.97 957.98,-67.25 957.11,-74.2"/>
</a>
</g>
</g>
<!-- 4 -->
<g id="node4" class="node">
<title>4</title>
<g id="a_node4"><a xlink:title="/__w/AtomVM/AtomVM/src/libAtomVM/jit.c">
<polygon fill="#ffffff" stroke="black" points="1085.5,-36 765.5,-36 765.5,0 1085.5,0 1085.5,-36"/>
<text text-anchor="middle" x="925.5" y="-14.3" font-family="Times,serif" font-size="14.00">/__w/AtomVM/AtomVM/src/libAtomVM/jit.c</text>
</a>
</g>
</g>
<!-- 1&#45;&gt;4 -->
<g id="edge3" class="edge">
<title>1&#45;&gt;4</title>
<g id="a_edge3"><a xlink:title="include">
<path fill="none" stroke="#1414ce" d="M1050.6,-68.2C1024.55,-57.95 993.54,-45.76 968.9,-36.07"/>
<polygon fill="#1414ce" stroke="#1414ce" points="1049.37,-71.47 1059.96,-71.88 1051.93,-64.96 1049.37,-71.47"/>
</a>
</g>
</g>
<!-- 5 -->
<g id="node5" class="node">
<title>5</title>
<g id="a_node5"><a xlink:title="/__w/AtomVM/AtomVM/src/libAtomVM/module.c">
<polygon fill="#ffffff" stroke="black" points="1461.5,-36 1103.5,-36 1103.5,0 1461.5,0 1461.5,-36"/>
<text text-anchor="middle" x="1282.5" y="-14.3" font-family="Times,serif" font-size="14.00">/__w/AtomVM/AtomVM/src/libAtomVM/module.c</text>
</a>
</g>
</g>
<!-- 1&#45;&gt;5 -->
<g id="edge4" class="edge">
<title>1&#45;&gt;5</title>
<g id="a_edge4"><a xlink:title="include">
<path fill="none" stroke="#1414ce" d="M1156.69,-68.2C1182.89,-57.95 1214.08,-45.76 1238.85,-36.07"/>
<polygon fill="#1414ce" stroke="#1414ce" points="1155.33,-64.97 1147.29,-71.88 1157.88,-71.49 1155.33,-64.97"/>
</a>
</g>
</g>
<!-- 6 -->
<g id="node6" class="node">
<title>6</title>
<g id="a_node6"><a xlink:title="/__w/AtomVM/AtomVM/src/libAtomVM/nifs.c">
<polygon fill="#ffffff" stroke="black" points="1811.5,-36 1479.5,-36 1479.5,0 1811.5,0 1811.5,-36"/>
<text text-anchor="middle" x="1645.5" y="-14.3" font-family="Times,serif" font-size="14.00">/__w/AtomVM/AtomVM/src/libAtomVM/nifs.c</text>
</a>
</g>
</g>
<!-- 1&#45;&gt;6 -->
<g id="edge5" class="edge">
<title>1&#45;&gt;6</title>
<g id="a_edge5"><a xlink:title="include">
<path fill="none" stroke="#1414ce" d="M1245.4,-70.67C1328.33,-59.96 1432.31,-46.53 1513.48,-36.05"/>
<polygon fill="#1414ce" stroke="#1414ce" points="1244.86,-67.21 1235.4,-71.97 1245.76,-74.16 1244.86,-67.21"/>
</a>
</g>
</g>
<!-- 7 -->
<g id="node7" class="node">
<title>7</title>
<g id="a_node7"><a xlink:title="/__w/AtomVM/AtomVM/src/libAtomVM/stacktrace.c">
<polygon fill="#ffffff" stroke="black" points="2209.5,-36 1829.5,-36 1829.5,0 2209.5,0 2209.5,-36"/>
<text text-anchor="middle" x="2019.5" y="-14.3" font-family="Times,serif" font-size="14.00">/__w/AtomVM/AtomVM/src/libAtomVM/stacktrace.c</text>
</a>
</g>
</g>
<!-- 1&#45;&gt;7 -->
<g id="edge6" class="edge">
<title>1&#45;&gt;7</title>
<g id="a_edge6"><a xlink:title="include">
<path fill="none" stroke="#1414ce" d="M1276.55,-76.77C1421.8,-66.36 1634.74,-50.8 1820.5,-36 1823.44,-35.77 1826.4,-35.53 1829.38,-35.29"/>
<polygon fill="#1414ce" stroke="#1414ce" points="1275.94,-73.3 1266.21,-77.51 1276.44,-80.28 1275.94,-73.3"/>
</a>
</g>
</g>
</g>
</svg>
