<?xml version="1.0" encoding="UTF-8" standalone="no"?>
<!DOCTYPE svg PUBLIC "-//W3C//DTD SVG 1.1//EN"
 "http://www.w3.org/Graphics/SVG/1.1/DTD/svg11.dtd">
<!-- Generated by graphviz version 2.43.0 (0)
 -->
<!-- Title: %3 Pages: 1 -->
<svg width="885pt" height="260pt"
 viewBox="0.00 0.00 885.18 260.00" xmlns="http://www.w3.org/2000/svg" xmlns:xlink="http://www.w3.org/1999/xlink">
<g id="graph0" class="graph" transform="scale(1 1) rotate(0) translate(4 256)">
<title>%3</title>
<polygon fill="transparent" stroke="transparent" points="-4,4 -4,-256 881.18,-256 881.18,4 -4,4"/>
<!-- 1 -->
<g id="node1" class="node">
<title>1</title>
<g id="a_node1"><a xlink:title="/__w/AtomVM/AtomVM/src/libAtomVM/float_utils.c">
<polygon fill="#bfbfbf" stroke="black" points="756.18,-252 381.18,-252 381.18,-216 756.18,-216 756.18,-252"/>
<text text-anchor="middle" x="568.68" y="-230.3" font-family="Times,serif" font-size="14.00">/__w/AtomVM/AtomVM/src/libAtomVM/float_utils.c</text>
</a>
</g>
</g>
<!-- 2 -->
<g id="node2" class="node">
<title>2</title>
<g id="a_node2"><a xlink:title="float_utils.h">
<polygon fill="#ffffff" stroke="black" points="579.68,-180 479.68,-180 479.68,-144 579.68,-144 579.68,-180"/>
<text text-anchor="middle" x="529.68" y="-158.3" font-family="Times,serif" font-size="14.00">float_utils.h</text>
</a>
</g>
</g>
<!-- 1&#45;&gt;2 -->
<g id="edge1" class="edge">
<title>1&#45;&gt;2</title>
<g id="a_edge1"><a xlink:title="include">
<path fill="none" stroke="#1414ce" d="M559.04,-215.7C554.56,-207.64 549.12,-197.89 544.16,-188.98"/>
<polygon fill="#1414ce" stroke="#1414ce" points="547.14,-187.14 539.21,-180.1 541.02,-190.54 547.14,-187.14"/>
</a>
</g>
</g>
<!-- 12 -->
<g id="node4" class="node">
<title>12</title>
<g id="a_node4"><a xlink:title="unlocalized_snprintf.h">
<polygon fill="#ffffff" stroke="black" points="454.18,-180 281.18,-180 281.18,-144 454.18,-144 454.18,-180"/>
<text text-anchor="middle" x="367.68" y="-158.3" font-family="Times,serif" font-size="14.00">unlocalized_snprintf.h</text>
</a>
</g>
</g>
<!-- 1&#45;&gt;12 -->
<g id="edge7" class="edge">
<title>1&#45;&gt;12</title>
<g id="a_edge7"><a xlink:title="include">
<path fill="none" stroke="#1414ce" d="M519.77,-215.97C491.69,-206.19 456.23,-193.84 426.61,-183.52"/>
<polygon fill="#1414ce" stroke="#1414ce" points="427.41,-180.09 416.82,-180.11 425.11,-186.71 427.41,-180.09"/>
</a>
</g>
</g>
<!-- 13 -->
<g id="node5" class="node">
<title>13</title>
<g id="a_node5"><a xlink:title="utils.h">
<polygon fill="#ffffff" stroke="black" points="250.68,-180 188.68,-180 188.68,-144 250.68,-144 250.68,-180"/>
<text text-anchor="middle" x="219.68" y="-158.3" font-family="Times,serif" font-size="14.00">utils.h</text>
</a>
</g>
</g>
<!-- 1&#45;&gt;13 -->
<g id="edge8" class="edge">
<title>1&#45;&gt;13</title>
<g id="a_edge8"><a xlink:title="include">
<path fill="none" stroke="#1414ce" d="M451.52,-215.96C396.54,-206.98 330.35,-194.75 271.68,-180 268.06,-179.09 264.33,-178.06 260.6,-176.96"/>
<polygon fill="#1414ce" stroke="#1414ce" points="261.41,-173.55 250.82,-173.96 259.36,-180.24 261.41,-173.55"/>
</a>
</g>
</g>
<!-- 6 -->
<g id="node6" class="node">
<title>6</title>
<g id="a_node6"><a xlink:title="assert.h">
<polygon fill="#ffffff" stroke="black" points="173.68,-36 99.68,-36 99.68,0 173.68,0 173.68,-36"/>
<text text-anchor="middle" x="136.68" y="-14.3" font-family="Times,serif" font-size="14.00">assert.h</text>
</a>
</g>
</g>
<!-- 1&#45;&gt;6 -->
<g id="edge2" class="edge">
<title>1&#45;&gt;6</title>
<g id="a_edge2"><a xlink:title="include">
<path fill="none" stroke="#1414ce" d="M381.18,-218.57C234.39,-202.62 48.31,-170.42 6.68,-108 -2.2,-94.69 -2.24,-85.28 6.68,-72 25.11,-44.59 60.46,-31.35 89.65,-24.95"/>
<polygon fill="#1414ce" stroke="#1414ce" points="90.55,-28.34 99.68,-22.97 89.19,-21.48 90.55,-28.34"/>
</a>
</g>
</g>
<!-- 9 -->
<g id="node7" class="node">
<title>9</title>
<g id="a_node7"><a xlink:title="float.h">
<polygon fill="#ffffff" stroke="black" points="700.68,-180 638.68,-180 638.68,-144 700.68,-144 700.68,-180"/>
<text text-anchor="middle" x="669.68" y="-158.3" font-family="Times,serif" font-size="14.00">float.h</text>
</a>
</g>
</g>
<!-- 1&#45;&gt;9 -->
<g id="edge3" class="edge">
<title>1&#45;&gt;9</title>
<g id="a_edge3"><a xlink:title="include">
<path fill="none" stroke="#1414ce" d="M593.39,-215.88C606.35,-206.89 622.41,-195.76 636.45,-186.03"/>
<polygon fill="#1414ce" stroke="#1414ce" points="638.65,-188.76 644.88,-180.19 634.67,-183.01 638.65,-188.76"/>
</a>
</g>
</g>
<!-- 10 -->
<g id="node10" class="node">
<title>10</title>
<g id="a_node10"><a xlink:title="math.h">
<polygon fill="#ffffff" stroke="black" points="786.18,-180 719.18,-180 719.18,-144 786.18,-144 786.18,-180"/>
<text text-anchor="middle" x="752.68" y="-158.3" font-family="Times,serif" font-size="14.00">math.h</text>
</a>
</g>
</g>
<!-- 1&#45;&gt;10 -->
<g id="edge4" class="edge">
<title>1&#45;&gt;10</title>
<g id="a_edge4"><a xlink:title="include">
<path fill="none" stroke="#1414ce" d="M614.8,-215.89C640.22,-206.41 672.55,-194.26 709.43,-180.07"/>
<polygon fill="#1414ce" stroke="#1414ce" points="710.83,-183.28 718.9,-176.42 708.31,-176.75 710.83,-183.28"/>
</a>
</g>
</g>
<!-- 4 -->
<g id="node13" class="node">
<title>4</title>
<g id="a_node13"><a xlink:title="stdint.h">
<polygon fill="#ffffff" stroke="black" points="610.68,-36 538.68,-36 538.68,0 610.68,0 610.68,-36"/>
<text text-anchor="middle" x="574.68" y="-14.3" font-family="Times,serif" font-size="14.00">stdint.h</text>
</a>
</g>
</g>
<!-- 1&#45;&gt;4 -->
<g id="edge5" class="edge">
<title>1&#45;&gt;4</title>
<g id="a_edge5"><a xlink:title="include">
<path fill="none" stroke="#1414ce" d="M576.99,-215.79C581.42,-205.63 586.42,-192.38 588.68,-180 597.19,-133.38 588.37,-78.19 581.39,-46.04"/>
<polygon fill="#1414ce" stroke="#1414ce" points="584.76,-45.03 579.12,-36.06 577.93,-46.59 584.76,-45.03"/>
</a>
</g>
</g>
<!-- 11 -->
<g id="node16" class="node">
<title>11</title>
<g id="a_node16"><a xlink:title="string.h">
<polygon fill="#ffffff" stroke="black" points="877.18,-180 804.18,-180 804.18,-144 877.18,-144 877.18,-180"/>
<text text-anchor="middle" x="840.68" y="-158.3" font-family="Times,serif" font-size="14.00">string.h</text>
</a>
</g>
</g>
<!-- 1&#45;&gt;11 -->
<g id="edge6" class="edge">
<title>1&#45;&gt;11</title>
<g id="a_edge6"><a xlink:title="include">
<path fill="none" stroke="#1414ce" d="M653.47,-215.98C693.92,-207.21 743.07,-195.59 794.38,-180.23"/>
<polygon fill="#1414ce" stroke="#1414ce" points="795.43,-183.57 803.98,-177.32 793.4,-176.87 795.43,-183.57"/>
</a>
</g>
</g>
<!-- 5 -->
<g id="node3" class="node">
<title>5</title>
<g id="a_node3"><a xlink:title="term_typedef.h">
<polygon fill="#ffffff" stroke="black" points="546.18,-108 421.18,-108 421.18,-72 546.18,-72 546.18,-108"/>
<text text-anchor="middle" x="483.68" y="-86.3" font-family="Times,serif" font-size="14.00">term_typedef.h</text>
</a>
</g>
</g>
<!-- 2&#45;&gt;5 -->
<g id="edge11" class="edge">
<title>2&#45;&gt;5</title>
<g id="a_edge11"><a xlink:title="include">
<path fill="none" stroke="#1414ce" d="M518.31,-143.7C512.96,-135.56 506.48,-125.69 500.57,-116.7"/>
<polygon fill="#1414ce" stroke="#1414ce" points="503.34,-114.54 494.92,-108.1 497.49,-118.38 503.34,-114.54"/>
</a>
</g>
</g>
<!-- 3 -->
<g id="node12" class="node">
<title>3</title>
<g id="a_node12"><a xlink:title="stddef.h">
<polygon fill="#ffffff" stroke="black" points="402.68,-108 328.68,-108 328.68,-72 402.68,-72 402.68,-108"/>
<text text-anchor="middle" x="365.68" y="-86.3" font-family="Times,serif" font-size="14.00">stddef.h</text>
</a>
</g>
</g>
<!-- 2&#45;&gt;3 -->
<g id="edge9" class="edge">
<title>2&#45;&gt;3</title>
<g id="a_edge9"><a xlink:title="include">
<path fill="none" stroke="#1414ce" d="M489.56,-143.88C466.21,-133.91 436.65,-121.29 412.27,-110.89"/>
<polygon fill="#1414ce" stroke="#1414ce" points="413.43,-107.58 402.86,-106.87 410.68,-114.01 413.43,-107.58"/>
</a>
</g>
</g>
<!-- 2&#45;&gt;4 -->
<g id="edge10" class="edge">
<title>2&#45;&gt;4</title>
<g id="a_edge10"><a xlink:title="include">
<path fill="none" stroke="#1414ce" d="M539.01,-143.74C544.2,-133.57 550.45,-120.32 554.68,-108 561.66,-87.69 566.86,-63.92 570.2,-46.06"/>
<polygon fill="#1414ce" stroke="#1414ce" points="573.68,-46.5 572,-36.04 566.79,-45.26 573.68,-46.5"/>
</a>
</g>
</g>
<!-- 5&#45;&gt;6 -->
<g id="edge12" class="edge">
<title>5&#45;&gt;6</title>
<g id="a_edge12"><a xlink:title="include">
<path fill="none" stroke="#1414ce" d="M420.89,-74.01C417.78,-73.32 414.7,-72.65 411.68,-72 331.96,-54.91 238.68,-37.47 183.82,-27.47"/>
<polygon fill="#1414ce" stroke="#1414ce" points="184.16,-23.98 173.7,-25.63 182.91,-30.86 184.16,-23.98"/>
</a>
</g>
</g>
<!-- 8 -->
<g id="node8" class="node">
<title>8</title>
<g id="a_node8"><a xlink:title="inttypes.h">
<polygon fill="#ffffff" stroke="black" points="342.18,-36 253.18,-36 253.18,0 342.18,0 342.18,-36"/>
<text text-anchor="middle" x="297.68" y="-14.3" font-family="Times,serif" font-size="14.00">inttypes.h</text>
</a>
</g>
</g>
<!-- 5&#45;&gt;8 -->
<g id="edge14" class="edge">
<title>5&#45;&gt;8</title>
<g id="a_edge14"><a xlink:title="include">
<path fill="none" stroke="#1414ce" d="M438.18,-71.88C412.11,-62.06 379.23,-49.69 351.83,-39.38"/>
<polygon fill="#1414ce" stroke="#1414ce" points="352.98,-36.07 342.39,-35.83 350.52,-42.62 352.98,-36.07"/>
</a>
</g>
</g>
<!-- 7 -->
<g id="node9" class="node">
<title>7</title>
<g id="a_node9"><a xlink:title="limits.h">
<polygon fill="#ffffff" stroke="black" points="519.18,-36 448.18,-36 448.18,0 519.18,0 519.18,-36"/>
<text text-anchor="middle" x="483.68" y="-14.3" font-family="Times,serif" font-size="14.00">limits.h</text>
</a>
</g>
</g>
<!-- 5&#45;&gt;7 -->
<g id="edge13" class="edge">
<title>5&#45;&gt;7</title>
<g id="a_edge13"><a xlink:title="include">
<path fill="none" stroke="#1414ce" d="M483.68,-71.7C483.68,-63.98 483.68,-54.71 483.68,-46.11"/>
<polygon fill="#1414ce" stroke="#1414ce" points="487.18,-46.1 483.68,-36.1 480.18,-46.1 487.18,-46.1"/>
</a>
</g>
</g>
<!-- 5&#45;&gt;4 -->
<g id="edge15" class="edge">
<title>5&#45;&gt;4</title>
<g id="a_edge15"><a xlink:title="include">
<path fill="none" stroke="#1414ce" d="M506.18,-71.7C517.64,-62.88 531.74,-52.03 544.17,-42.47"/>
<polygon fill="#1414ce" stroke="#1414ce" points="546.65,-44.98 552.45,-36.1 542.39,-39.43 546.65,-44.98"/>
</a>
</g>
</g>
<!-- 12&#45;&gt;3 -->
<g id="edge16" class="edge">
<title>12&#45;&gt;3</title>
<g id="a_edge16"><a xlink:title="include">
<path fill="none" stroke="#1414ce" d="M367.19,-143.7C366.97,-135.98 366.7,-126.71 366.46,-118.11"/>
<polygon fill="#1414ce" stroke="#1414ce" points="369.96,-118 366.17,-108.1 362.96,-118.2 369.96,-118"/>
</a>
</g>
</g>
<!-- 13&#45;&gt;8 -->
<g id="edge17" class="edge">
<title>13&#45;&gt;8</title>
<g id="a_edge17"><a xlink:title="include">
<path fill="none" stroke="#1414ce" d="M217.82,-143.74C216.62,-124.89 217.15,-94.39 229.68,-72 236.32,-60.14 246.82,-50.02 257.59,-41.9"/>
<polygon fill="#1414ce" stroke="#1414ce" points="259.67,-44.71 265.82,-36.09 255.63,-39 259.67,-44.71"/>
</a>
</g>
</g>
<!-- 14 -->
<g id="node11" class="node">
<title>14</title>
<g id="a_node11"><a xlink:title="stdbool.h">
<polygon fill="#ffffff" stroke="black" points="99.18,-108 16.18,-108 16.18,-72 99.18,-72 99.18,-108"/>
<text text-anchor="middle" x="57.68" y="-86.3" font-family="Times,serif" font-size="14.00">stdbool.h</text>
</a>
</g>
</g>
<!-- 13&#45;&gt;14 -->
<g id="edge18" class="edge">
<title>13&#45;&gt;14</title>
<g id="a_edge18"><a xlink:title="include">
<path fill="none" stroke="#1414ce" d="M188.45,-147.5C165.27,-137.49 133.23,-123.64 106.66,-112.16"/>
<polygon fill="#1414ce" stroke="#1414ce" points="107.71,-108.8 97.14,-108.05 104.94,-115.23 107.71,-108.8"/>
</a>
</g>
</g>
<!-- 13&#45;&gt;3 -->
<g id="edge19" class="edge">
<title>13&#45;&gt;3</title>
<g id="a_edge19"><a xlink:title="include">
<path fill="none" stroke="#1414ce" d="M251,-145.98C271.4,-136.2 298.33,-123.29 320.97,-112.44"/>
<polygon fill="#1414ce" stroke="#1414ce" points="322.55,-115.56 330.05,-108.08 319.52,-109.25 322.55,-115.56"/>
</a>
</g>
</g>
<!-- 15 -->
<g id="node14" class="node">
<title>15</title>
<g id="a_node14"><a xlink:title="stdio.h">
<polygon fill="#ffffff" stroke="black" points="182.18,-108 117.18,-108 117.18,-72 182.18,-72 182.18,-108"/>
<text text-anchor="middle" x="149.68" y="-86.3" font-family="Times,serif" font-size="14.00">stdio.h</text>
</a>
</g>
</g>
<!-- 13&#45;&gt;15 -->
<g id="edge20" class="edge">
<title>13&#45;&gt;15</title>
<g id="a_edge20"><a xlink:title="include">
<path fill="none" stroke="#1414ce" d="M202.38,-143.7C193.82,-135.14 183.34,-124.66 173.99,-115.3"/>
<polygon fill="#1414ce" stroke="#1414ce" points="176.33,-112.7 166.79,-108.1 171.38,-117.65 176.33,-112.7"/>
</a>
</g>
</g>
<!-- 16 -->
<g id="node15" class="node">
<title>16</title>
<g id="a_node15"><a xlink:title="stdlib.h">
<polygon fill="#ffffff" stroke="black" points="310.18,-108 239.18,-108 239.18,-72 310.18,-72 310.18,-108"/>
<text text-anchor="middle" x="274.68" y="-86.3" font-family="Times,serif" font-size="14.00">stdlib.h</text>
</a>
</g>
</g>
<!-- 13&#45;&gt;16 -->
<g id="edge21" class="edge">
<title>13&#45;&gt;16</title>
<g id="a_edge21"><a xlink:title="include">
<path fill="none" stroke="#1414ce" d="M233.28,-143.7C239.81,-135.39 247.75,-125.28 254.93,-116.14"/>
<polygon fill="#1414ce" stroke="#1414ce" points="257.82,-118.13 261.24,-108.1 252.31,-113.81 257.82,-118.13"/>
</a>
</g>
</g>
</g>
</svg>
