<?xml version="1.0" encoding="UTF-8" standalone="no"?>
<!DOCTYPE svg PUBLIC "-//W3C//DTD SVG 1.1//EN"
 "http://www.w3.org/Graphics/SVG/1.1/DTD/svg11.dtd">
<!-- Generated by graphviz version 2.43.0 (0)
 -->
<!-- Title: %3 Pages: 1 -->
<svg width="756pt" height="116pt"
 viewBox="0.00 0.00 755.50 116.00" xmlns="http://www.w3.org/2000/svg" xmlns:xlink="http://www.w3.org/1999/xlink">
<g id="graph0" class="graph" transform="scale(1 1) rotate(0) translate(4 112)">
<title>%3</title>
<polygon fill="transparent" stroke="transparent" points="-4,4 -4,-112 751.5,-112 751.5,4 -4,4"/>
<!-- 2 -->
<g id="node1" class="node">
<title>2</title>
<g id="a_node1"><a xlink:title="/__w/AtomVM/AtomVM/src/libAtomVM/ets.c">
<polygon fill="#ffffff" stroke="black" points="327,-36 0,-36 0,0 327,0 327,-36"/>
<text text-anchor="middle" x="163.5" y="-14.3" font-family="Times,serif" font-size="14.00">/__w/AtomVM/AtomVM/src/libAtomVM/ets.c</text>
</a>
</g>
</g>
<!-- 3 -->
<g id="node2" class="node">
<title>3</title>
<g id="a_node2"><a xlink:title="/__w/AtomVM/AtomVM/src/libAtomVM/ets_multimap.c">
<polygon fill="#ffffff" stroke="black" points="747.5,-36 345.5,-36 345.5,0 747.5,0 747.5,-36"/>
<text text-anchor="middle" x="546.5" y="-14.3" font-family="Times,serif" font-size="14.00">/__w/AtomVM/AtomVM/src/libAtomVM/ets_multimap.c</text>
</a>
</g>
</g>
<!-- 1 -->
<g id="node3" class="node">
<title>1</title>
<g id="a_node3"><a xlink:title="/__w/AtomVM/AtomVM/src/libAtomVM/ets_multimap.h">
<polygon fill="#bfbfbf" stroke="black" points="556.5,-108 152.5,-108 152.5,-72 556.5,-72 556.5,-108"/>
<text text-anchor="middle" x="354.5" y="-86.3" font-family="Times,serif" font-size="14.00">/__w/AtomVM/AtomVM/src/libAtomVM/ets_multimap.h</text>
</a>
</g>
</g>
<!-- 1&#45;&gt;2 -->
<g id="edge1" class="edge">
<title>1&#45;&gt;2</title>
<g id="a_edge1"><a xlink:title="include">
<path fill="none" stroke="#1414ce" d="M298.11,-68.33C270.08,-58.06 236.62,-45.8 210.07,-36.07"/>
<polygon fill="#1414ce" stroke="#1414ce" points="297.18,-71.72 307.78,-71.88 299.59,-65.15 297.18,-71.72"/>
</a>
</g>
</g>
<!-- 1&#45;&gt;3 -->
<g id="edge2" class="edge">
<title>1&#45;&gt;3</title>
<g id="a_edge2"><a xlink:title="include">
<path fill="none" stroke="#1414ce" d="M411.19,-68.33C439.36,-58.06 473,-45.8 499.68,-36.07"/>
<polygon fill="#1414ce" stroke="#1414ce" points="409.66,-65.16 401.47,-71.88 412.06,-71.74 409.66,-65.16"/>
</a>
</g>
</g>
</g>
</svg>
