<?xml version="1.0" encoding="UTF-8" standalone="no"?>
<!DOCTYPE svg PUBLIC "-//W3C//DTD SVG 1.1//EN"
 "http://www.w3.org/Graphics/SVG/1.1/DTD/svg11.dtd">
<!-- Generated by graphviz version 2.43.0 (0)
 -->
<!-- Title: %3 Pages: 1 -->
<svg width="1316pt" height="404pt"
 viewBox="0.00 0.00 1316.00 404.00" xmlns="http://www.w3.org/2000/svg" xmlns:xlink="http://www.w3.org/1999/xlink">
<g id="graph0" class="graph" transform="scale(1 1) rotate(0) translate(4 400)">
<title>%3</title>
<polygon fill="transparent" stroke="transparent" points="-4,4 -4,-400 1312,-400 1312,4 -4,4"/>
<!-- 12 -->
<g id="node1" class="node">
<title>12</title>
<g id="a_node1"><a xlink:title="AtomTable">
<polygon fill="#ffffff" stroke="black" points="1078,-324 986,-324 986,-288 1078,-288 1078,-324"/>
<text text-anchor="middle" x="1032" y="-302.3" font-family="Times,serif" font-size="14.00">AtomTable</text>
</a>
</g>
</g>
<!-- 13 -->
<g id="node6" class="node">
<title>13</title>
<g id="a_node6"><a xlink:title="HNode">
<polygon fill="#ffffff" stroke="black" points="1112,-180 1046,-180 1046,-144 1112,-144 1112,-180"/>
<text text-anchor="middle" x="1079" y="-158.3" font-family="Times,serif" font-size="14.00">HNode</text>
</a>
</g>
</g>
<!-- 12&#45;&gt;13 -->
<g id="edge1" class="edge">
<title>12&#45;&gt;13</title>
<g id="a_edge1"><a xlink:title="usage">
<path fill="none" stroke="#1414ce" d="M1022.74,-287.82C1014.09,-269.31 1004.02,-239.35 1015,-216 1020.52,-204.26 1030.07,-194.22 1040.12,-186.15"/>
<polygon fill="#1414ce" stroke="#1414ce" points="1042.31,-188.88 1048.23,-180.09 1038.12,-183.27 1042.31,-188.88"/>
</a>
</g>
</g>
<!-- 14 -->
<g id="node7" class="node">
<title>14</title>
<g id="a_node7"><a xlink:title="HNodeGroup">
<polygon fill="#ffffff" stroke="black" points="1134,-252 1024,-252 1024,-216 1134,-216 1134,-252"/>
<text text-anchor="middle" x="1079" y="-230.3" font-family="Times,serif" font-size="14.00">HNodeGroup</text>
</a>
</g>
</g>
<!-- 12&#45;&gt;14 -->
<g id="edge2" class="edge">
<title>12&#45;&gt;14</title>
<g id="a_edge2"><a xlink:title="usage">
<path fill="none" stroke="#1414ce" d="M1043.62,-287.7C1049.14,-279.47 1055.85,-269.48 1061.93,-260.42"/>
<polygon fill="#1414ce" stroke="#1414ce" points="1064.85,-262.36 1067.52,-252.1 1059.04,-258.46 1064.85,-262.36"/>
</a>
</g>
</g>
<!-- 17 -->
<g id="node2" class="node">
<title>17</title>
<g id="a_node2"><a xlink:title="Context">
<polygon fill="#ffffff" stroke="black" points="679.5,-252 606.5,-252 606.5,-216 679.5,-216 679.5,-252"/>
<text text-anchor="middle" x="643" y="-230.3" font-family="Times,serif" font-size="14.00">Context</text>
</a>
</g>
</g>
<!-- 17&#45;&gt;17 -->
<g id="edge8" class="edge">
<title>17&#45;&gt;17</title>
<g id="a_edge8"><a xlink:title="usage">
<path fill="none" stroke="#1414ce" d="M679.68,-247.42C689.78,-246.77 697.5,-242.3 697.5,-234 697.5,-228.81 694.48,-225.12 689.76,-222.93"/>
<polygon fill="#1414ce" stroke="#1414ce" points="690.21,-219.44 679.68,-220.58 688.63,-226.26 690.21,-219.44"/>
</a>
</g>
</g>
<!-- 5 -->
<g id="node5" class="node">
<title>5</title>
<g id="a_node5"><a xlink:title="GlobalContext">
<polygon fill="#ffffff" stroke="black" points="727.5,-396 608.5,-396 608.5,-360 727.5,-360 727.5,-396"/>
<text text-anchor="middle" x="668" y="-374.3" font-family="Times,serif" font-size="14.00">GlobalContext</text>
</a>
</g>
</g>
<!-- 17&#45;&gt;5 -->
<g id="edge3" class="edge">
<title>17&#45;&gt;5</title>
<g id="a_edge3"><a xlink:title="usage">
<path fill="none" stroke="#1414ce" d="M646.03,-252.19C650.29,-276.42 658.12,-320.89 663.19,-349.68"/>
<polygon fill="#1414ce" stroke="#1414ce" points="659.8,-350.63 664.98,-359.87 666.7,-349.42 659.8,-350.63"/>
</a>
</g>
</g>
<!-- 18 -->
<g id="node8" class="node">
<title>18</title>
<g id="a_node8"><a xlink:title="Heap">
<polygon fill="#ffffff" stroke="black" points="500,-180 446,-180 446,-144 500,-144 500,-180"/>
<text text-anchor="middle" x="473" y="-158.3" font-family="Times,serif" font-size="14.00">Heap</text>
</a>
</g>
</g>
<!-- 17&#45;&gt;18 -->
<g id="edge4" class="edge">
<title>17&#45;&gt;18</title>
<g id="a_edge4"><a xlink:title="usage">
<path fill="none" stroke="#1414ce" d="M606.11,-217.81C577.55,-206.05 538.17,-189.84 509.67,-178.1"/>
<polygon fill="#1414ce" stroke="#1414ce" points="510.65,-174.72 500.07,-174.15 507.98,-181.19 510.65,-174.72"/>
</a>
</g>
</g>
<!-- 2 -->
<g id="node10" class="node">
<title>2</title>
<g id="a_node10"><a xlink:title="ListHead">
<polygon fill="#ffffff" stroke="black" points="464.5,-36 383.5,-36 383.5,0 464.5,0 464.5,-36"/>
<text text-anchor="middle" x="424" y="-14.3" font-family="Times,serif" font-size="14.00">ListHead</text>
</a>
</g>
</g>
<!-- 17&#45;&gt;2 -->
<g id="edge5" class="edge">
<title>17&#45;&gt;2</title>
<g id="a_edge5"><a xlink:title="usage">
<path fill="none" stroke="#1414ce" d="M646.45,-215.99C651.95,-183.68 658.72,-112.97 623,-72 603.67,-49.83 526.99,-34.27 474.66,-25.97"/>
<polygon fill="#1414ce" stroke="#1414ce" points="474.96,-22.48 464.54,-24.41 473.89,-29.4 474.96,-22.48"/>
</a>
</g>
</g>
<!-- 21 -->
<g id="node12" class="node">
<title>21</title>
<g id="a_node12"><a xlink:title="Mailbox">
<polygon fill="#ffffff" stroke="black" points="750,-180 676,-180 676,-144 750,-144 750,-180"/>
<text text-anchor="middle" x="713" y="-158.3" font-family="Times,serif" font-size="14.00">Mailbox</text>
</a>
</g>
</g>
<!-- 17&#45;&gt;21 -->
<g id="edge9" class="edge">
<title>17&#45;&gt;21</title>
<g id="a_edge9"><a xlink:title="usage">
<path fill="none" stroke="#1414ce" d="M660.3,-215.7C668.86,-207.14 679.34,-196.66 688.7,-187.3"/>
<polygon fill="#1414ce" stroke="#1414ce" points="691.3,-189.65 695.9,-180.1 686.35,-184.7 691.3,-189.65"/>
</a>
</g>
</g>
<!-- 16 -->
<g id="node15" class="node">
<title>16</title>
<g id="a_node15"><a xlink:title="Module">
<polygon fill="#ffffff" stroke="black" points="640,-324 570,-324 570,-288 640,-288 640,-324"/>
<text text-anchor="middle" x="605" y="-302.3" font-family="Times,serif" font-size="14.00">Module</text>
</a>
</g>
</g>
<!-- 17&#45;&gt;16 -->
<g id="edge7" class="edge">
<title>17&#45;&gt;16</title>
<g id="a_edge7"><a xlink:title="usage">
<path fill="none" stroke="#1414ce" d="M639.61,-252.1C636.06,-260.21 630.92,-270.08 625.62,-279.08"/>
<polygon fill="#1414ce" stroke="#1414ce" points="622.57,-277.35 620.31,-287.7 628.53,-281.02 622.57,-277.35"/>
</a>
</g>
</g>
<!-- 20 -->
<g id="node23" class="node">
<title>20</title>
<g id="a_node23"><a xlink:title="TimerListItem">
<polygon fill="#ffffff" stroke="black" points="613.5,-108 494.5,-108 494.5,-72 613.5,-72 613.5,-108"/>
<text text-anchor="middle" x="554" y="-86.3" font-family="Times,serif" font-size="14.00">TimerListItem</text>
</a>
</g>
</g>
<!-- 17&#45;&gt;20 -->
<g id="edge6" class="edge">
<title>17&#45;&gt;20</title>
<g id="a_edge6"><a xlink:title="usage">
<path fill="none" stroke="#1414ce" d="M632.26,-215.87C616.83,-191.24 588.24,-145.64 570.22,-116.88"/>
<polygon fill="#1414ce" stroke="#1414ce" points="573.05,-114.8 564.77,-108.19 567.12,-118.52 573.05,-114.8"/>
</a>
</g>
</g>
<!-- 11 -->
<g id="node3" class="node">
<title>11</title>
<g id="a_node3"><a xlink:title="Ets">
<polygon fill="#ffffff" stroke="black" points="54,-180 0,-180 0,-144 54,-144 54,-180"/>
<text text-anchor="middle" x="27" y="-158.3" font-family="Times,serif" font-size="14.00">Ets</text>
</a>
</g>
</g>
<!-- 10 -->
<g id="node21" class="node">
<title>10</title>
<g id="a_node21"><a xlink:title="SyncList">
<polygon fill="#ffffff" stroke="black" points="139,-108 61,-108 61,-72 139,-72 139,-108"/>
<text text-anchor="middle" x="100" y="-86.3" font-family="Times,serif" font-size="14.00">SyncList</text>
</a>
</g>
</g>
<!-- 11&#45;&gt;10 -->
<g id="edge10" class="edge">
<title>11&#45;&gt;10</title>
<g id="a_edge10"><a xlink:title="usage">
<path fill="none" stroke="#1414ce" d="M45.04,-143.7C54.06,-135.05 65.12,-124.45 74.94,-115.03"/>
<polygon fill="#1414ce" stroke="#1414ce" points="77.37,-117.55 82.16,-108.1 72.52,-112.5 77.37,-117.55"/>
</a>
</g>
</g>
<!-- 22 -->
<g id="node4" class="node">
<title>22</title>
<g id="a_node4"><a xlink:title="ExportedFunction">
<polygon fill="#ffffff" stroke="black" points="466,-252 320,-252 320,-216 466,-216 466,-252"/>
<text text-anchor="middle" x="393" y="-230.3" font-family="Times,serif" font-size="14.00">ExportedFunction</text>
</a>
</g>
</g>
<!-- 5&#45;&gt;12 -->
<g id="edge17" class="edge">
<title>5&#45;&gt;12</title>
<g id="a_edge17"><a xlink:title="usage">
<path fill="none" stroke="#1414ce" d="M727.78,-368.45C789.35,-359.2 887.91,-343.19 972,-324 973.28,-323.71 974.57,-323.41 975.87,-323.1"/>
<polygon fill="#1414ce" stroke="#1414ce" points="977.09,-326.4 985.94,-320.57 975.39,-319.61 977.09,-326.4"/>
</a>
</g>
</g>
<!-- 5&#45;&gt;11 -->
<g id="edge16" class="edge">
<title>5&#45;&gt;11</title>
<g id="a_edge16"><a xlink:title="usage">
<path fill="none" stroke="#1414ce" d="M608.29,-375.59C464.64,-371.66 108.58,-358.51 68,-324 29.27,-291.06 24.44,-227.15 25.18,-190.54"/>
<polygon fill="#1414ce" stroke="#1414ce" points="28.7,-190.24 25.56,-180.12 21.7,-189.98 28.7,-190.24"/>
</a>
</g>
</g>
<!-- 5&#45;&gt;2 -->
<g id="edge11" class="edge">
<title>5&#45;&gt;2</title>
<g id="a_edge11"><a xlink:title="usage">
<path fill="none" stroke="#1414ce" d="M727.5,-372.91C798.02,-366.81 909.68,-352.82 939,-324 967.85,-295.65 958,-275.45 958,-235 958,-235 958,-235 958,-161 958,-120.55 969.1,-99.02 939,-72 904.88,-41.37 597.95,-25.9 474.8,-20.88"/>
<polygon fill="#1414ce" stroke="#1414ce" points="474.64,-17.37 464.51,-20.47 474.36,-24.36 474.64,-17.37"/>
</a>
</g>
</g>
<!-- 7 -->
<g id="node14" class="node">
<title>7</title>
<g id="a_node14"><a xlink:title="MessageQueueItem">
<polygon fill="#ffffff" stroke="black" points="874,-252 716,-252 716,-216 874,-216 874,-252"/>
<text text-anchor="middle" x="795" y="-230.3" font-family="Times,serif" font-size="14.00">MessageQueueItem</text>
</a>
</g>
</g>
<!-- 5&#45;&gt;7 -->
<g id="edge13" class="edge">
<title>5&#45;&gt;7</title>
<g id="a_edge13"><a xlink:title="usage">
<path fill="none" stroke="#1414ce" d="M683.32,-359.87C705.63,-334.92 747.2,-288.45 772.84,-259.77"/>
<polygon fill="#1414ce" stroke="#1414ce" points="775.57,-261.98 779.63,-252.19 770.35,-257.31 775.57,-261.98"/>
</a>
</g>
</g>
<!-- 5&#45;&gt;16 -->
<g id="edge19" class="edge">
<title>5&#45;&gt;16</title>
<g id="a_edge19"><a xlink:title="usage">
<path fill="none" stroke="#1414ce" d="M652.43,-359.7C644.8,-351.22 635.48,-340.86 627.12,-331.58"/>
<polygon fill="#1414ce" stroke="#1414ce" points="629.69,-329.2 620.39,-324.1 624.48,-333.88 629.69,-329.2"/>
</a>
</g>
</g>
<!-- 9 -->
<g id="node17" class="node">
<title>9</title>
<g id="a_node17"><a xlink:title="RefcBinaryQueueItem">
<polygon fill="#ffffff" stroke="black" points="342,-324 168,-324 168,-288 342,-288 342,-324"/>
<text text-anchor="middle" x="255" y="-302.3" font-family="Times,serif" font-size="14.00">RefcBinaryQueueItem</text>
</a>
</g>
</g>
<!-- 5&#45;&gt;9 -->
<g id="edge14" class="edge">
<title>5&#45;&gt;9</title>
<g id="a_edge14"><a xlink:title="usage">
<path fill="none" stroke="#1414ce" d="M608.39,-366.9C541.44,-355.55 431.8,-336.97 352.37,-323.5"/>
<polygon fill="#1414ce" stroke="#1414ce" points="352.8,-320.03 342.35,-321.81 351.63,-326.93 352.8,-320.03"/>
</a>
</g>
</g>
<!-- 4 -->
<g id="node19" class="node">
<title>4</title>
<g id="a_node19"><a xlink:title="ResourceType">
<polygon fill="#ffffff" stroke="black" points="227.5,-180 110.5,-180 110.5,-144 227.5,-144 227.5,-180"/>
<text text-anchor="middle" x="169" y="-158.3" font-family="Times,serif" font-size="14.00">ResourceType</text>
</a>
</g>
</g>
<!-- 5&#45;&gt;4 -->
<g id="edge21" class="edge">
<title>5&#45;&gt;4</title>
<g id="a_edge21"><a xlink:title="usage">
<path fill="none" stroke="#1414ce" d="M608.08,-375.34C478.1,-370.99 179.96,-357.25 150,-324 116.92,-287.3 134.18,-224.73 151.06,-189.37"/>
<polygon fill="#1414ce" stroke="#1414ce" points="154.33,-190.65 155.76,-180.16 148.1,-187.47 154.33,-190.65"/>
</a>
</g>
</g>
<!-- 6 -->
<g id="node20" class="node">
<title>6</title>
<g id="a_node20"><a xlink:title="SpinLock">
<polygon fill="#ffffff" stroke="black" points="930,-324 848,-324 848,-288 930,-288 930,-324"/>
<text text-anchor="middle" x="889" y="-302.3" font-family="Times,serif" font-size="14.00">SpinLock</text>
</a>
</g>
</g>
<!-- 5&#45;&gt;6 -->
<g id="edge12" class="edge">
<title>5&#45;&gt;6</title>
<g id="a_edge12"><a xlink:title="usage">
<path fill="none" stroke="#1414ce" d="M721.78,-359.97C757.13,-348.77 803.11,-334.21 837.9,-323.18"/>
<polygon fill="#1414ce" stroke="#1414ce" points="839.38,-326.39 847.86,-320.03 837.27,-319.71 839.38,-326.39"/>
</a>
</g>
</g>
<!-- 5&#45;&gt;10 -->
<g id="edge15" class="edge">
<title>5&#45;&gt;10</title>
<g id="a_edge15"><a xlink:title="usage">
<path fill="none" stroke="#1414ce" d="M608.17,-374.8C477.24,-369.45 174.11,-353.95 139,-324 79.26,-273.04 87.06,-167.98 94.79,-118.25"/>
<polygon fill="#1414ce" stroke="#1414ce" points="98.27,-118.68 96.47,-108.24 91.37,-117.52 98.27,-118.68"/>
</a>
</g>
</g>
<!-- 24 -->
<g id="node22" class="node">
<title>24</title>
<g id="a_node22"><a xlink:title="TimerList">
<polygon fill="#ffffff" stroke="black" points="930,-108 844,-108 844,-72 930,-72 930,-108"/>
<text text-anchor="middle" x="887" y="-86.3" font-family="Times,serif" font-size="14.00">TimerList</text>
</a>
</g>
</g>
<!-- 5&#45;&gt;24 -->
<g id="edge20" class="edge">
<title>5&#45;&gt;24</title>
<g id="a_edge20"><a xlink:title="usage">
<path fill="none" stroke="#1414ce" d="M700.89,-359.91C764.44,-326.81 898.13,-256.8 901,-252 925.8,-210.54 910.91,-152.02 898.5,-118.14"/>
<polygon fill="#1414ce" stroke="#1414ce" points="901.63,-116.54 894.77,-108.46 895.1,-119.05 901.63,-116.54"/>
</a>
</g>
</g>
<!-- 15 -->
<g id="node24" class="node">
<title>15</title>
<g id="a_node24"><a xlink:title="ValuesHashTable">
<polygon fill="#ffffff" stroke="black" points="1308,-252 1170,-252 1170,-216 1308,-216 1308,-252"/>
<text text-anchor="middle" x="1239" y="-230.3" font-family="Times,serif" font-size="14.00">ValuesHashTable</text>
</a>
</g>
</g>
<!-- 5&#45;&gt;15 -->
<g id="edge18" class="edge">
<title>5&#45;&gt;15</title>
<g id="a_edge18"><a xlink:title="usage">
<path fill="none" stroke="#1414ce" d="M727.62,-376.92C810.43,-375.15 963.95,-365.84 1087,-324 1132.19,-308.63 1178.78,-278.92 1208.27,-258.06"/>
<polygon fill="#1414ce" stroke="#1414ce" points="1210.4,-260.84 1216.48,-252.17 1206.31,-255.16 1210.4,-260.84"/>
</a>
</g>
</g>
<!-- 13&#45;&gt;13 -->
<g id="edge22" class="edge">
<title>13&#45;&gt;13</title>
<g id="a_edge22"><a xlink:title="usage">
<path fill="none" stroke="#1414ce" d="M1112.35,-175.47C1122.28,-175.07 1130,-170.58 1130,-162 1130,-156.64 1126.98,-152.87 1122.3,-150.71"/>
<polygon fill="#1414ce" stroke="#1414ce" points="1122.87,-147.25 1112.35,-148.53 1121.37,-154.09 1122.87,-147.25"/>
</a>
</g>
</g>
<!-- 14&#45;&gt;13 -->
<g id="edge24" class="edge">
<title>14&#45;&gt;13</title>
<g id="a_edge24"><a xlink:title="usage">
<path fill="none" stroke="#1414ce" d="M1079,-215.7C1079,-207.98 1079,-198.71 1079,-190.11"/>
<polygon fill="#1414ce" stroke="#1414ce" points="1082.5,-190.1 1079,-180.1 1075.5,-190.1 1082.5,-190.1"/>
</a>
</g>
</g>
<!-- 14&#45;&gt;14 -->
<g id="edge23" class="edge">
<title>14&#45;&gt;14</title>
<g id="a_edge23"><a xlink:title="usage">
<path fill="none" stroke="#1414ce" d="M1134.07,-246.85C1144.57,-245.32 1152,-241.03 1152,-234 1152,-229.5 1148.95,-226.12 1144,-223.87"/>
<polygon fill="#1414ce" stroke="#1414ce" points="1144.64,-220.42 1134.07,-221.15 1142.79,-227.17 1144.64,-220.42"/>
</a>
</g>
</g>
<!-- 19 -->
<g id="node9" class="node">
<title>19</title>
<g id="a_node9"><a xlink:title="HeapFragment">
<polygon fill="#ffffff" stroke="black" points="458.5,-108 333.5,-108 333.5,-72 458.5,-72 458.5,-108"/>
<text text-anchor="middle" x="396" y="-86.3" font-family="Times,serif" font-size="14.00">HeapFragment</text>
</a>
</g>
</g>
<!-- 18&#45;&gt;19 -->
<g id="edge25" class="edge">
<title>18&#45;&gt;19</title>
<g id="a_edge25"><a xlink:title="usage">
<path fill="none" stroke="#1414ce" d="M453.97,-143.7C444.46,-135.05 432.79,-124.45 422.43,-115.03"/>
<polygon fill="#1414ce" stroke="#1414ce" points="424.57,-112.24 414.81,-108.1 419.86,-117.42 424.57,-112.24"/>
</a>
</g>
</g>
<!-- 19&#45;&gt;19 -->
<g id="edge26" class="edge">
<title>19&#45;&gt;19</title>
<g id="a_edge26"><a xlink:title="usage">
<path fill="none" stroke="#1414ce" d="M458.78,-102.55C469.26,-100.79 476.5,-96.61 476.5,-90 476.5,-85.77 473.53,-82.53 468.64,-80.29"/>
<polygon fill="#1414ce" stroke="#1414ce" points="469.36,-76.85 458.78,-77.45 467.42,-83.58 469.36,-76.85"/>
</a>
</g>
</g>
<!-- 2&#45;&gt;2 -->
<g id="edge27" class="edge">
<title>2&#45;&gt;2</title>
<g id="a_edge27"><a xlink:title="usage">
<path fill="none" stroke="#1414ce" d="M464.73,-31.31C474.9,-30.38 482.5,-25.95 482.5,-18 482.5,-12.91 479.38,-9.26 474.47,-7.05"/>
<polygon fill="#1414ce" stroke="#1414ce" points="475.28,-3.64 464.73,-4.69 473.63,-10.45 475.28,-3.64"/>
</a>
</g>
</g>
<!-- 23 -->
<g id="node11" class="node">
<title>23</title>
<g id="a_node11"><a xlink:title="LiteralEntry">
<polygon fill="#ffffff" stroke="black" points="588,-252 484,-252 484,-216 588,-216 588,-252"/>
<text text-anchor="middle" x="536" y="-230.3" font-family="Times,serif" font-size="14.00">LiteralEntry</text>
</a>
</g>
</g>
<!-- 8 -->
<g id="node13" class="node">
<title>8</title>
<g id="a_node13"><a xlink:title="MailboxMessage">
<polygon fill="#ffffff" stroke="black" points="807.5,-108 670.5,-108 670.5,-72 807.5,-72 807.5,-108"/>
<text text-anchor="middle" x="739" y="-86.3" font-family="Times,serif" font-size="14.00">MailboxMessage</text>
</a>
</g>
</g>
<!-- 21&#45;&gt;8 -->
<g id="edge28" class="edge">
<title>21&#45;&gt;8</title>
<g id="a_edge28"><a xlink:title="usage">
<path fill="none" stroke="#1414ce" d="M719.43,-143.7C722.36,-135.81 725.89,-126.3 729.14,-117.55"/>
<polygon fill="#1414ce" stroke="#1414ce" points="732.45,-118.7 732.65,-108.1 725.88,-116.26 732.45,-118.7"/>
</a>
</g>
</g>
<!-- 8&#45;&gt;8 -->
<g id="edge29" class="edge">
<title>8&#45;&gt;8</title>
<g id="a_edge29"><a xlink:title="usage">
<path fill="none" stroke="#1414ce" d="M807.53,-102.37C818.21,-100.52 825.5,-96.4 825.5,-90 825.5,-85.8 822.36,-82.58 817.18,-80.34"/>
<polygon fill="#1414ce" stroke="#1414ce" points="818.1,-76.96 807.53,-77.63 816.21,-83.7 818.1,-76.96"/>
</a>
</g>
</g>
<!-- 7&#45;&gt;8 -->
<g id="edge31" class="edge">
<title>7&#45;&gt;8</title>
<g id="a_edge31"><a xlink:title="usage">
<path fill="none" stroke="#1414ce" d="M788.25,-215.87C778.62,-191.46 760.86,-146.43 749.5,-117.64"/>
<polygon fill="#1414ce" stroke="#1414ce" points="752.7,-116.21 745.78,-108.19 746.19,-118.78 752.7,-116.21"/>
</a>
</g>
</g>
<!-- 7&#45;&gt;7 -->
<g id="edge30" class="edge">
<title>7&#45;&gt;7</title>
<g id="a_edge30"><a xlink:title="usage">
<path fill="none" stroke="#1414ce" d="M874.16,-245.98C884.87,-243.97 892,-239.98 892,-234 892,-230.08 888.93,-227.01 883.79,-224.8"/>
<polygon fill="#1414ce" stroke="#1414ce" points="884.74,-221.43 874.16,-222.02 882.8,-228.15 884.74,-221.43"/>
</a>
</g>
</g>
<!-- 16&#45;&gt;17 -->
<g id="edge32" class="edge">
<title>16&#45;&gt;17</title>
<g id="a_edge32"><a xlink:title="usage">
<path fill="none" stroke="#1414ce" d="M608.48,-287.7C612.06,-279.56 617.21,-269.69 622.51,-260.7"/>
<polygon fill="#1414ce" stroke="#1414ce" points="625.55,-262.45 627.82,-252.1 619.59,-258.78 625.55,-262.45"/>
</a>
</g>
</g>
<!-- 16&#45;&gt;22 -->
<g id="edge33" class="edge">
<title>16&#45;&gt;22</title>
<g id="a_edge33"><a xlink:title="usage">
<path fill="none" stroke="#1414ce" d="M569.99,-293.44C538.68,-283.1 492.09,-267.72 454.56,-255.33"/>
<polygon fill="#1414ce" stroke="#1414ce" points="455.33,-251.89 444.73,-252.08 453.13,-258.54 455.33,-251.89"/>
</a>
</g>
</g>
<!-- 16&#45;&gt;23 -->
<g id="edge34" class="edge">
<title>16&#45;&gt;23</title>
<g id="a_edge34"><a xlink:title="usage">
<path fill="none" stroke="#1414ce" d="M587.94,-287.7C579.5,-279.14 569.18,-268.66 559.96,-259.3"/>
<polygon fill="#1414ce" stroke="#1414ce" points="562.37,-256.77 552.86,-252.1 557.39,-261.68 562.37,-256.77"/>
</a>
</g>
</g>
<!-- 3 -->
<g id="node16" class="node">
<title>3</title>
<g id="a_node16"><a xlink:title="RefcBinary">
<polygon fill="#ffffff" stroke="black" points="263.5,-252 168.5,-252 168.5,-216 263.5,-216 263.5,-252"/>
<text text-anchor="middle" x="216" y="-230.3" font-family="Times,serif" font-size="14.00">RefcBinary</text>
</a>
</g>
</g>
<!-- 3&#45;&gt;2 -->
<g id="edge35" class="edge">
<title>3&#45;&gt;2</title>
<g id="a_edge35"><a xlink:title="usage">
<path fill="none" stroke="#1414ce" d="M222.63,-215.8C238.43,-174.83 277.26,-74.67 280,-72 305.28,-47.36 342.98,-34.03 373.46,-26.9"/>
<polygon fill="#1414ce" stroke="#1414ce" points="374.46,-30.26 383.49,-24.71 372.97,-23.42 374.46,-30.26"/>
</a>
</g>
</g>
<!-- 3&#45;&gt;4 -->
<g id="edge36" class="edge">
<title>3&#45;&gt;4</title>
<g id="a_edge36"><a xlink:title="usage">
<path fill="none" stroke="#1414ce" d="M204.38,-215.7C198.86,-207.47 192.15,-197.48 186.07,-188.42"/>
<polygon fill="#1414ce" stroke="#1414ce" points="188.96,-186.46 180.48,-180.1 183.15,-190.36 188.96,-186.46"/>
</a>
</g>
</g>
<!-- 9&#45;&gt;3 -->
<g id="edge38" class="edge">
<title>9&#45;&gt;3</title>
<g id="a_edge38"><a xlink:title="usage">
<path fill="none" stroke="#1414ce" d="M245.36,-287.7C240.87,-279.64 235.44,-269.89 230.48,-260.98"/>
<polygon fill="#1414ce" stroke="#1414ce" points="233.45,-259.14 225.53,-252.1 227.34,-262.54 233.45,-259.14"/>
</a>
</g>
</g>
<!-- 9&#45;&gt;9 -->
<g id="edge37" class="edge">
<title>9&#45;&gt;9</title>
<g id="a_edge37"><a xlink:title="usage">
<path fill="none" stroke="#1414ce" d="M342.3,-317.68C352.99,-315.59 360,-311.7 360,-306 360,-302.35 357.12,-299.44 352.25,-297.27"/>
<polygon fill="#1414ce" stroke="#1414ce" points="352.88,-293.81 342.3,-294.32 350.89,-300.52 352.88,-293.81"/>
</a>
</g>
</g>
<!-- 1 -->
<g id="node18" class="node">
<title>1</title>
<g id="a_node18"><a xlink:title="ResourceMonitor">
<polygon fill="#bfbfbf" stroke="black" points="518,-324 378,-324 378,-288 518,-288 518,-324"/>
<text text-anchor="middle" x="448" y="-302.3" font-family="Times,serif" font-size="14.00">ResourceMonitor</text>
</a>
</g>
</g>
<!-- 1&#45;&gt;2 -->
<g id="edge39" class="edge">
<title>1&#45;&gt;2</title>
<g id="a_edge39"><a xlink:title="usage">
<path fill="none" stroke="#1414ce" d="M384.17,-287.9C352.89,-278.09 320.01,-265.15 311,-252 288.21,-218.75 251.26,-181.41 324,-72 335.73,-54.36 355.31,-42.18 374.05,-33.99"/>
<polygon fill="#1414ce" stroke="#1414ce" points="375.49,-37.18 383.43,-30.17 372.85,-30.7 375.49,-37.18"/>
</a>
</g>
</g>
<!-- 1&#45;&gt;3 -->
<g id="edge40" class="edge">
<title>1&#45;&gt;3</title>
<g id="a_edge40"><a xlink:title="usage">
<path fill="none" stroke="#1414ce" d="M391.54,-287.97C355.74,-277.16 309.56,-263.23 273.56,-252.37"/>
<polygon fill="#1414ce" stroke="#1414ce" points="274.27,-248.93 263.69,-249.39 272.25,-255.63 274.27,-248.93"/>
</a>
</g>
</g>
<!-- 4&#45;&gt;5 -->
<g id="edge42" class="edge">
<title>4&#45;&gt;5</title>
<g id="a_edge42"><a xlink:title="usage">
<path fill="none" stroke="#1414ce" d="M166.05,-180.16C155.87,-212.73 131.81,-283.85 168,-324 196.49,-355.61 467.35,-369.59 598.13,-374.62"/>
<polygon fill="#1414ce" stroke="#1414ce" points="598.32,-378.13 608.44,-375.01 598.58,-371.14 598.32,-378.13"/>
</a>
</g>
</g>
<!-- 4&#45;&gt;2 -->
<g id="edge41" class="edge">
<title>4&#45;&gt;2</title>
<g id="a_edge41"><a xlink:title="usage">
<path fill="none" stroke="#1414ce" d="M178.58,-143.95C190.76,-123.82 213.65,-90.72 242,-72 281.83,-45.7 334.95,-32.19 373.51,-25.42"/>
<polygon fill="#1414ce" stroke="#1414ce" points="374.19,-28.85 383.48,-23.76 373.04,-21.95 374.19,-28.85"/>
</a>
</g>
</g>
<!-- 4&#45;&gt;10 -->
<g id="edge43" class="edge">
<title>4&#45;&gt;10</title>
<g id="a_edge43"><a xlink:title="usage">
<path fill="none" stroke="#1414ce" d="M151.94,-143.7C143.5,-135.14 133.18,-124.66 123.96,-115.3"/>
<polygon fill="#1414ce" stroke="#1414ce" points="126.37,-112.77 116.86,-108.1 121.39,-117.68 126.37,-112.77"/>
</a>
</g>
</g>
<!-- 10&#45;&gt;2 -->
<g id="edge44" class="edge">
<title>10&#45;&gt;2</title>
<g id="a_edge44"><a xlink:title="usage">
<path fill="none" stroke="#1414ce" d="M139.08,-80.56C197.71,-67.89 308.46,-43.96 373.26,-29.96"/>
<polygon fill="#1414ce" stroke="#1414ce" points="374.22,-33.34 383.25,-27.8 372.74,-26.49 374.22,-33.34"/>
</a>
</g>
</g>
<!-- 24&#45;&gt;2 -->
<g id="edge45" class="edge">
<title>24&#45;&gt;2</title>
<g id="a_edge45"><a xlink:title="usage">
<path fill="none" stroke="#1414ce" d="M843.76,-74.19C840.81,-73.39 837.87,-72.65 835,-72 707.06,-43.11 552.9,-28.49 474.75,-22.46"/>
<polygon fill="#1414ce" stroke="#1414ce" points="474.93,-18.97 464.69,-21.7 474.4,-25.95 474.93,-18.97"/>
</a>
</g>
</g>
<!-- 20&#45;&gt;2 -->
<g id="edge46" class="edge">
<title>20&#45;&gt;2</title>
<g id="a_edge46"><a xlink:title="usage">
<path fill="none" stroke="#1414ce" d="M522.2,-71.88C504.89,-62.55 483.28,-50.92 464.74,-40.94"/>
<polygon fill="#1414ce" stroke="#1414ce" points="466.39,-37.85 455.92,-36.19 463.07,-44.01 466.39,-37.85"/>
</a>
</g>
</g>
<!-- 15&#45;&gt;13 -->
<g id="edge47" class="edge">
<title>15&#45;&gt;13</title>
<g id="a_edge47"><a xlink:title="usage">
<path fill="none" stroke="#1414ce" d="M1199.86,-215.88C1176.09,-205.48 1145.75,-192.2 1121.41,-181.55"/>
<polygon fill="#1414ce" stroke="#1414ce" points="1122.63,-178.27 1112.07,-177.47 1119.83,-184.68 1122.63,-178.27"/>
</a>
</g>
</g>
</g>
</svg>
