<?xml version="1.0" encoding="UTF-8" standalone="no"?>
<!DOCTYPE svg PUBLIC "-//W3C//DTD SVG 1.1//EN"
 "http://www.w3.org/Graphics/SVG/1.1/DTD/svg11.dtd">
<!-- Generated by graphviz version 2.43.0 (0)
 -->
<!-- Title: %3 Pages: 1 -->
<svg width="1210pt" height="620pt"
 viewBox="0.00 0.00 1210.00 620.00" xmlns="http://www.w3.org/2000/svg" xmlns:xlink="http://www.w3.org/1999/xlink">
<g id="graph0" class="graph" transform="scale(1 1) rotate(0) translate(4 616)">
<title>%3</title>
<polygon fill="transparent" stroke="transparent" points="-4,4 -4,-616 1206,-616 1206,4 -4,4"/>
<!-- 14 -->
<g id="node1" class="node">
<title>14</title>
<g id="a_node1"><a xlink:title="atom.h">
<polygon fill="#ffffff" stroke="black" points="376,-396 310,-396 310,-360 376,-360 376,-396"/>
<text text-anchor="middle" x="343" y="-374.3" font-family="Times,serif" font-size="14.00">atom.h</text>
</a>
</g>
</g>
<!-- 13 -->
<g id="node23" class="node">
<title>13</title>
<g id="a_node23"><a xlink:title="stdint.h">
<polygon fill="#ffffff" stroke="black" points="516,-36 444,-36 444,0 516,0 516,-36"/>
<text text-anchor="middle" x="480" y="-14.3" font-family="Times,serif" font-size="14.00">stdint.h</text>
</a>
</g>
</g>
<!-- 14&#45;&gt;13 -->
<g id="edge1" class="edge">
<title>14&#45;&gt;13</title>
<g id="a_edge1"><a xlink:title="include">
<path fill="none" stroke="#1414ce" d="M363.65,-359.58C390.5,-334.87 434,-286.83 434,-235 434,-235 434,-235 434,-161 434,-119.04 452.4,-73.36 465.93,-45.44"/>
<polygon fill="#1414ce" stroke="#1414ce" points="469.13,-46.86 470.47,-36.34 462.87,-43.73 469.13,-46.86"/>
</a>
</g>
</g>
<!-- 10 -->
<g id="node25" class="node">
<title>10</title>
<g id="a_node25"><a xlink:title="stdlib.h">
<polygon fill="#ffffff" stroke="black" points="358.5,-108 287.5,-108 287.5,-72 358.5,-72 358.5,-108"/>
<text text-anchor="middle" x="323" y="-86.3" font-family="Times,serif" font-size="14.00">stdlib.h</text>
</a>
</g>
</g>
<!-- 14&#45;&gt;10 -->
<g id="edge2" class="edge">
<title>14&#45;&gt;10</title>
<g id="a_edge2"><a xlink:title="include">
<path fill="none" stroke="#1414ce" d="M341.81,-359.97C338.47,-312.29 329.03,-177.18 324.93,-118.63"/>
<polygon fill="#1414ce" stroke="#1414ce" points="328.4,-118.04 324.21,-108.31 321.42,-118.53 328.4,-118.04"/>
</a>
</g>
</g>
<!-- 2 -->
<g id="node2" class="node">
<title>2</title>
<g id="a_node2"><a xlink:title="bitstring.h">
<polygon fill="#ffffff" stroke="black" points="1105,-540 1013,-540 1013,-504 1105,-504 1105,-540"/>
<text text-anchor="middle" x="1059" y="-518.3" font-family="Times,serif" font-size="14.00">bitstring.h</text>
</a>
</g>
</g>
<!-- 3 -->
<g id="node5" class="node">
<title>3</title>
<g id="a_node5"><a xlink:title="intn.h">
<polygon fill="#ffffff" stroke="black" points="908.5,-396 849.5,-396 849.5,-360 908.5,-360 908.5,-396"/>
<text text-anchor="middle" x="879" y="-374.3" font-family="Times,serif" font-size="14.00">intn.h</text>
</a>
</g>
</g>
<!-- 2&#45;&gt;3 -->
<g id="edge3" class="edge">
<title>2&#45;&gt;3</title>
<g id="a_edge3"><a xlink:title="include">
<path fill="none" stroke="#1414ce" d="M1037.29,-503.87C1005.26,-478.6 945.24,-431.25 909.02,-402.68"/>
<polygon fill="#1414ce" stroke="#1414ce" points="910.81,-399.64 900.79,-396.19 906.47,-405.13 910.81,-399.64"/>
</a>
</g>
</g>
<!-- 11 -->
<g id="node14" class="node">
<title>11</title>
<g id="a_node14"><a xlink:title="term.h">
<polygon fill="#ffffff" stroke="black" points="655.5,-468 590.5,-468 590.5,-432 655.5,-432 655.5,-468"/>
<text text-anchor="middle" x="623" y="-446.3" font-family="Times,serif" font-size="14.00">term.h</text>
</a>
</g>
</g>
<!-- 2&#45;&gt;11 -->
<g id="edge4" class="edge">
<title>2&#45;&gt;11</title>
<g id="a_edge4"><a xlink:title="include">
<path fill="none" stroke="#1414ce" d="M1012.75,-513.58C927.74,-499.93 747.82,-471.04 665.6,-457.84"/>
<polygon fill="#1414ce" stroke="#1414ce" points="666.03,-454.36 655.61,-456.23 664.92,-461.28 666.03,-454.36"/>
</a>
</g>
</g>
<!-- 26 -->
<g id="node16" class="node">
<title>26</title>
<g id="a_node16"><a xlink:title="unicode.h">
<polygon fill="#ffffff" stroke="black" points="1136,-180 1050,-180 1050,-144 1136,-144 1136,-180"/>
<text text-anchor="middle" x="1093" y="-158.3" font-family="Times,serif" font-size="14.00">unicode.h</text>
</a>
</g>
</g>
<!-- 2&#45;&gt;26 -->
<g id="edge5" class="edge">
<title>2&#45;&gt;26</title>
<g id="a_edge5"><a xlink:title="include">
<path fill="none" stroke="#1414ce" d="M1066.89,-503.93C1078.29,-477.67 1098,-425.53 1098,-379 1098,-379 1098,-379 1098,-305 1098,-264.97 1095.99,-218.63 1094.52,-190.07"/>
<polygon fill="#1414ce" stroke="#1414ce" points="1098.01,-189.84 1093.99,-180.04 1091.02,-190.21 1098.01,-189.84"/>
</a>
</g>
</g>
<!-- 4 -->
<g id="node21" class="node">
<title>4</title>
<g id="a_node21"><a xlink:title="stdbool.h">
<polygon fill="#ffffff" stroke="black" points="930.5,-108 847.5,-108 847.5,-72 930.5,-72 930.5,-108"/>
<text text-anchor="middle" x="889" y="-86.3" font-family="Times,serif" font-size="14.00">stdbool.h</text>
</a>
</g>
</g>
<!-- 2&#45;&gt;4 -->
<g id="edge6" class="edge">
<title>2&#45;&gt;4</title>
<g id="a_edge6"><a xlink:title="include">
<path fill="none" stroke="#1414ce" d="M1059.2,-503.95C1059.49,-477.29 1060,-424.12 1060,-379 1060,-379 1060,-379 1060,-305 1060,-228.32 1049.87,-200.47 998,-144 982.46,-127.08 960.34,-114.95 940.08,-106.6"/>
<polygon fill="#1414ce" stroke="#1414ce" points="941.22,-103.29 930.64,-102.92 938.68,-109.81 941.22,-103.29"/>
</a>
</g>
</g>
<!-- 2&#45;&gt;13 -->
<g id="edge7" class="edge">
<title>2&#45;&gt;13</title>
<g id="a_edge7"><a xlink:title="include">
<path fill="none" stroke="#1414ce" d="M1096.57,-503.83C1138.94,-481.58 1202,-438.48 1202,-379 1202,-379 1202,-379 1202,-161 1202,-107.52 1168.99,-95.62 1121,-72 1016.37,-20.49 655.74,-17.75 526.52,-18.49"/>
<polygon fill="#1414ce" stroke="#1414ce" points="526.16,-14.99 516.19,-18.56 526.21,-21.99 526.16,-14.99"/>
</a>
</g>
</g>
<!-- 16 -->
<g id="node3" class="node">
<title>16</title>
<g id="a_node3"><a xlink:title="erl_nif.h">
<polygon fill="#ffffff" stroke="black" points="140,-180 66,-180 66,-144 140,-144 140,-180"/>
<text text-anchor="middle" x="103" y="-158.3" font-family="Times,serif" font-size="14.00">erl_nif.h</text>
</a>
</g>
</g>
<!-- 17 -->
<g id="node15" class="node">
<title>17</title>
<g id="a_node15"><a xlink:title="term_typedef.h">
<polygon fill="#ffffff" stroke="black" points="177.5,-108 52.5,-108 52.5,-72 177.5,-72 177.5,-108"/>
<text text-anchor="middle" x="115" y="-86.3" font-family="Times,serif" font-size="14.00">term_typedef.h</text>
</a>
</g>
</g>
<!-- 16&#45;&gt;17 -->
<g id="edge8" class="edge">
<title>16&#45;&gt;17</title>
<g id="a_edge8"><a xlink:title="include">
<path fill="none" stroke="#1414ce" d="M105.97,-143.7C107.29,-135.98 108.88,-126.71 110.35,-118.11"/>
<polygon fill="#1414ce" stroke="#1414ce" points="113.83,-118.55 112.07,-108.1 106.93,-117.37 113.83,-118.55"/>
</a>
</g>
</g>
<!-- 27 -->
<g id="node4" class="node">
<title>27</title>
<g id="a_node4"><a xlink:title="exportedfunction.h">
<polygon fill="#ffffff" stroke="black" points="803,-540 651,-540 651,-504 803,-504 803,-540"/>
<text text-anchor="middle" x="727" y="-518.3" font-family="Times,serif" font-size="14.00">exportedfunction.h</text>
</a>
</g>
</g>
<!-- 27&#45;&gt;11 -->
<g id="edge9" class="edge">
<title>27&#45;&gt;11</title>
<g id="a_edge9"><a xlink:title="include">
<path fill="none" stroke="#1414ce" d="M701.56,-503.88C688.21,-494.89 671.68,-483.76 657.22,-474.03"/>
<polygon fill="#1414ce" stroke="#1414ce" points="658.79,-470.87 648.54,-468.19 654.88,-476.68 658.79,-470.87"/>
</a>
</g>
</g>
<!-- 6 -->
<g id="node17" class="node">
<title>6</title>
<g id="a_node17"><a xlink:title="utils.h">
<polygon fill="#ffffff" stroke="black" points="600,-180 538,-180 538,-144 600,-144 600,-180"/>
<text text-anchor="middle" x="569" y="-158.3" font-family="Times,serif" font-size="14.00">utils.h</text>
</a>
</g>
</g>
<!-- 3&#45;&gt;6 -->
<g id="edge12" class="edge">
<title>3&#45;&gt;6</title>
<g id="a_edge12"><a xlink:title="include">
<path fill="none" stroke="#1414ce" d="M878.37,-359.83C876.66,-339.59 870.64,-306.36 850,-288 789.38,-234.06 743.04,-289.36 671,-252 650.35,-241.29 650.41,-231.43 633,-216 621.9,-206.17 609.39,-195.68 598.4,-186.66"/>
<polygon fill="#1414ce" stroke="#1414ce" points="600.3,-183.69 590.34,-180.08 595.87,-189.11 600.3,-183.69"/>
</a>
</g>
</g>
<!-- 3&#45;&gt;4 -->
<g id="edge10" class="edge">
<title>3&#45;&gt;4</title>
<g id="a_edge10"><a xlink:title="include">
<path fill="none" stroke="#1414ce" d="M879.74,-359.61C880.77,-335.47 882.64,-290.42 884,-252 885.66,-205.25 887.29,-150.85 888.21,-118.76"/>
<polygon fill="#1414ce" stroke="#1414ce" points="891.72,-118.49 888.51,-108.39 884.73,-118.29 891.72,-118.49"/>
</a>
</g>
</g>
<!-- 5 -->
<g id="node26" class="node">
<title>5</title>
<g id="a_node26"><a xlink:title="string.h">
<polygon fill="#ffffff" stroke="black" points="841.5,-324 768.5,-324 768.5,-288 841.5,-288 841.5,-324"/>
<text text-anchor="middle" x="805" y="-302.3" font-family="Times,serif" font-size="14.00">string.h</text>
</a>
</g>
</g>
<!-- 3&#45;&gt;5 -->
<g id="edge11" class="edge">
<title>3&#45;&gt;5</title>
<g id="a_edge11"><a xlink:title="include">
<path fill="none" stroke="#1414ce" d="M860.71,-359.7C851.57,-351.05 840.36,-340.45 830.4,-331.03"/>
<polygon fill="#1414ce" stroke="#1414ce" points="832.75,-328.43 823.08,-324.1 827.94,-333.52 832.75,-328.43"/>
</a>
</g>
</g>
<!-- 1 -->
<g id="node6" class="node">
<title>1</title>
<g id="a_node6"><a xlink:title="/__w/AtomVM/AtomVM/src/libAtomVM/jit.h">
<polygon fill="#bfbfbf" stroke="black" points="888,-612 566,-612 566,-576 888,-576 888,-612"/>
<text text-anchor="middle" x="727" y="-590.3" font-family="Times,serif" font-size="14.00">/__w/AtomVM/AtomVM/src/libAtomVM/jit.h</text>
</a>
</g>
</g>
<!-- 1&#45;&gt;2 -->
<g id="edge13" class="edge">
<title>1&#45;&gt;2</title>
<g id="a_edge13"><a xlink:title="include">
<path fill="none" stroke="#1414ce" d="M823.97,-575.95C875.82,-566.35 940.62,-553.58 998,-540 999.65,-539.61 1001.33,-539.2 1003.02,-538.78"/>
<polygon fill="#1414ce" stroke="#1414ce" points="1003.98,-542.15 1012.8,-536.29 1002.25,-535.37 1003.98,-542.15"/>
</a>
</g>
</g>
<!-- 1&#45;&gt;27 -->
<g id="edge14" class="edge">
<title>1&#45;&gt;27</title>
<g id="a_edge14"><a xlink:title="include">
<path fill="none" stroke="#1414ce" d="M727,-575.7C727,-567.98 727,-558.71 727,-550.11"/>
<polygon fill="#1414ce" stroke="#1414ce" points="730.5,-550.1 727,-540.1 723.5,-550.1 730.5,-550.1"/>
</a>
</g>
</g>
<!-- 1&#45;&gt;11 -->
<g id="edge15" class="edge">
<title>1&#45;&gt;11</title>
<g id="a_edge15"><a xlink:title="include">
<path fill="none" stroke="#1414ce" d="M685.88,-575.99C669.91,-567.43 652.89,-555.52 642,-540 629.35,-521.97 624.84,-497.18 623.36,-478.34"/>
<polygon fill="#1414ce" stroke="#1414ce" points="626.85,-478.1 622.81,-468.3 619.86,-478.48 626.85,-478.1"/>
</a>
</g>
</g>
<!-- 1&#45;&gt;17 -->
<g id="edge16" class="edge">
<title>1&#45;&gt;17</title>
<g id="a_edge16"><a xlink:title="include">
<path fill="none" stroke="#1414ce" d="M565.66,-577.42C351.48,-554.52 0,-508.23 0,-451 0,-451 0,-451 0,-233 0,-189.99 10.76,-177.29 38,-144 47.69,-132.16 60.68,-121.86 73.23,-113.56"/>
<polygon fill="#1414ce" stroke="#1414ce" points="75.21,-116.44 81.8,-108.14 71.47,-110.53 75.21,-116.44"/>
</a>
</g>
</g>
<!-- 1&#45;&gt;4 -->
<g id="edge17" class="edge">
<title>1&#45;&gt;4</title>
<g id="a_edge17"><a xlink:title="include">
<path fill="none" stroke="#1414ce" d="M837.48,-575.91C907.14,-558.14 984,-522.37 984,-451 984,-451 984,-451 984,-233 984,-185.01 946.06,-140.96 918.13,-115.04"/>
<polygon fill="#1414ce" stroke="#1414ce" points="920.33,-112.31 910.56,-108.22 915.65,-117.52 920.33,-112.31"/>
</a>
</g>
</g>
<!-- 21 -->
<g id="node7" class="node">
<title>21</title>
<g id="a_node7"><a xlink:title="list.h">
<polygon fill="#ffffff" stroke="black" points="826,-180 772,-180 772,-144 826,-144 826,-180"/>
<text text-anchor="middle" x="799" y="-158.3" font-family="Times,serif" font-size="14.00">list.h</text>
</a>
</g>
</g>
<!-- 21&#45;&gt;4 -->
<g id="edge18" class="edge">
<title>21&#45;&gt;4</title>
<g id="a_edge18"><a xlink:title="include">
<path fill="none" stroke="#1414ce" d="M821.25,-143.7C832.58,-134.88 846.53,-124.03 858.82,-114.47"/>
<polygon fill="#1414ce" stroke="#1414ce" points="861.26,-117.01 867.01,-108.1 856.97,-111.48 861.26,-117.01"/>
</a>
</g>
</g>
<!-- 23 -->
<g id="node8" class="node">
<title>23</title>
<g id="a_node8"><a xlink:title="mailbox.h">
<polygon fill="#ffffff" stroke="black" points="624,-252 538,-252 538,-216 624,-216 624,-252"/>
<text text-anchor="middle" x="581" y="-230.3" font-family="Times,serif" font-size="14.00">mailbox.h</text>
</a>
</g>
</g>
<!-- 23&#45;&gt;21 -->
<g id="edge20" class="edge">
<title>23&#45;&gt;21</title>
<g id="a_edge20"><a xlink:title="include">
<path fill="none" stroke="#1414ce" d="M624.28,-222.45C659.45,-213.43 710.36,-199.32 762.31,-179.99"/>
<polygon fill="#1414ce" stroke="#1414ce" points="763.56,-183.26 771.68,-176.45 761.08,-176.71 763.56,-183.26"/>
</a>
</g>
</g>
<!-- 23&#45;&gt;17 -->
<g id="edge21" class="edge">
<title>23&#45;&gt;17</title>
<g id="a_edge21"><a xlink:title="include">
<path fill="none" stroke="#1414ce" d="M538,-219.9C456.2,-194.97 277.74,-140.59 180.81,-111.05"/>
<polygon fill="#1414ce" stroke="#1414ce" points="181.71,-107.67 171.12,-108.1 179.67,-114.37 181.71,-107.67"/>
</a>
</g>
</g>
<!-- 23&#45;&gt;6 -->
<g id="edge22" class="edge">
<title>23&#45;&gt;6</title>
<g id="a_edge22"><a xlink:title="include">
<path fill="none" stroke="#1414ce" d="M578.03,-215.7C576.71,-207.98 575.12,-198.71 573.65,-190.11"/>
<polygon fill="#1414ce" stroke="#1414ce" points="577.07,-189.37 571.93,-180.1 570.17,-190.55 577.07,-189.37"/>
</a>
</g>
</g>
<!-- 23&#45;&gt;4 -->
<g id="edge19" class="edge">
<title>23&#45;&gt;4</title>
<g id="a_edge19"><a xlink:title="include">
<path fill="none" stroke="#1414ce" d="M596.2,-215.94C615.07,-195.81 649.18,-162.69 685,-144 733.35,-118.77 794.55,-104.95 837.25,-97.81"/>
<polygon fill="#1414ce" stroke="#1414ce" points="837.83,-101.26 847.15,-96.22 836.72,-94.35 837.83,-101.26"/>
</a>
</g>
</g>
<!-- 15 -->
<g id="node9" class="node">
<title>15</title>
<g id="a_node9"><a xlink:title="memory.h">
<polygon fill="#ffffff" stroke="black" points="254,-252 168,-252 168,-216 254,-216 254,-252"/>
<text text-anchor="middle" x="211" y="-230.3" font-family="Times,serif" font-size="14.00">memory.h</text>
</a>
</g>
</g>
<!-- 15&#45;&gt;16 -->
<g id="edge25" class="edge">
<title>15&#45;&gt;16</title>
<g id="a_edge25"><a xlink:title="include">
<path fill="none" stroke="#1414ce" d="M184.58,-215.88C170.59,-206.81 153.22,-195.55 138.11,-185.76"/>
<polygon fill="#1414ce" stroke="#1414ce" points="139.82,-182.69 129.52,-180.19 136.01,-188.57 139.82,-182.69"/>
</a>
</g>
</g>
<!-- 15&#45;&gt;17 -->
<g id="edge26" class="edge">
<title>15&#45;&gt;17</title>
<g id="a_edge26"><a xlink:title="include">
<path fill="none" stroke="#1414ce" d="M199.42,-215.87C182.7,-191.14 151.67,-145.24 132.25,-116.51"/>
<polygon fill="#1414ce" stroke="#1414ce" points="135.12,-114.51 126.62,-108.19 129.32,-118.43 135.12,-114.51"/>
</a>
</g>
</g>
<!-- 15&#45;&gt;6 -->
<g id="edge27" class="edge">
<title>15&#45;&gt;6</title>
<g id="a_edge27"><a xlink:title="include">
<path fill="none" stroke="#1414ce" d="M254.18,-224.56C323.7,-210.96 459.52,-184.41 527.77,-171.06"/>
<polygon fill="#1414ce" stroke="#1414ce" points="528.59,-174.47 537.73,-169.11 527.24,-167.6 528.59,-174.47"/>
</a>
</g>
</g>
<!-- 15&#45;&gt;13 -->
<g id="edge23" class="edge">
<title>15&#45;&gt;13</title>
<g id="a_edge23"><a xlink:title="include">
<path fill="none" stroke="#1414ce" d="M212.72,-215.88C217.07,-182.41 231.68,-108.36 278,-72 290.32,-62.33 377.99,-41.58 433.71,-29.1"/>
<polygon fill="#1414ce" stroke="#1414ce" points="434.72,-32.46 443.72,-26.87 433.2,-25.63 434.72,-32.46"/>
</a>
</g>
</g>
<!-- 15&#45;&gt;10 -->
<g id="edge24" class="edge">
<title>15&#45;&gt;10</title>
<g id="a_edge24"><a xlink:title="include">
<path fill="none" stroke="#1414ce" d="M220.4,-215.79C230.89,-197.25 248.92,-167.27 268,-144 276.28,-133.91 286.32,-123.74 295.55,-115.05"/>
<polygon fill="#1414ce" stroke="#1414ce" points="298.07,-117.48 303.05,-108.13 293.33,-112.33 298.07,-117.48"/>
</a>
</g>
</g>
<!-- 20 -->
<g id="node10" class="node">
<title>20</title>
<g id="a_node10"><a xlink:title="refc_binary.h">
<polygon fill="#ffffff" stroke="black" points="677,-396 569,-396 569,-360 677,-360 677,-396"/>
<text text-anchor="middle" x="623" y="-374.3" font-family="Times,serif" font-size="14.00">refc_binary.h</text>
</a>
</g>
</g>
<!-- 20&#45;&gt;21 -->
<g id="edge30" class="edge">
<title>20&#45;&gt;21</title>
<g id="a_edge30"><a xlink:title="include">
<path fill="none" stroke="#1414ce" d="M640.14,-359.8C659.74,-340.73 693.36,-309.77 726,-288 755.77,-268.15 779.02,-282.33 798,-252 809.43,-233.74 808.71,-208.97 805.68,-190.2"/>
<polygon fill="#1414ce" stroke="#1414ce" points="809.08,-189.37 803.76,-180.2 802.21,-190.68 809.08,-189.37"/>
</a>
</g>
</g>
<!-- 22 -->
<g id="node11" class="node">
<title>22</title>
<g id="a_node11"><a xlink:title="resources.h">
<polygon fill="#ffffff" stroke="black" points="620,-324 520,-324 520,-288 620,-288 620,-324"/>
<text text-anchor="middle" x="570" y="-302.3" font-family="Times,serif" font-size="14.00">resources.h</text>
</a>
</g>
</g>
<!-- 20&#45;&gt;22 -->
<g id="edge31" class="edge">
<title>20&#45;&gt;22</title>
<g id="a_edge31"><a xlink:title="include">
<path fill="none" stroke="#1414ce" d="M609.9,-359.7C603.61,-351.39 595.95,-341.28 589.04,-332.14"/>
<polygon fill="#1414ce" stroke="#1414ce" points="591.78,-329.96 582.95,-324.1 586.2,-334.19 591.78,-329.96"/>
</a>
</g>
</g>
<!-- 20&#45;&gt;4 -->
<g id="edge28" class="edge">
<title>20&#45;&gt;4</title>
<g id="a_edge28"><a xlink:title="include">
<path fill="none" stroke="#1414ce" d="M657.03,-359.89C675.32,-350.18 697.97,-337.33 717,-324 737.14,-309.9 739.16,-302.53 759,-288 783.48,-270.08 797.04,-274.85 817,-252 851.96,-211.98 872.61,-152.23 882.28,-117.89"/>
<polygon fill="#1414ce" stroke="#1414ce" points="885.7,-118.67 884.94,-108.1 878.94,-116.84 885.7,-118.67"/>
</a>
</g>
</g>
<!-- 20&#45;&gt;10 -->
<g id="edge29" class="edge">
<title>20&#45;&gt;10</title>
<g id="a_edge29"><a xlink:title="include">
<path fill="none" stroke="#1414ce" d="M630.06,-359.88C636.79,-340.59 643.87,-309.16 629,-288 601.84,-249.35 570.35,-274.83 529,-252 510,-241.51 404.4,-156.82 352.21,-114.66"/>
<polygon fill="#1414ce" stroke="#1414ce" points="354.29,-111.85 344.31,-108.28 349.89,-117.29 354.29,-111.85"/>
</a>
</g>
</g>
<!-- 22&#45;&gt;16 -->
<g id="edge33" class="edge">
<title>22&#45;&gt;16</title>
<g id="a_edge33"><a xlink:title="include">
<path fill="none" stroke="#1414ce" d="M519.7,-303.79C423.51,-300.64 217.8,-289.58 159,-252 136.4,-237.55 121.29,-210.36 112.52,-189.82"/>
<polygon fill="#1414ce" stroke="#1414ce" points="115.7,-188.34 108.72,-180.36 109.2,-190.94 115.7,-188.34"/>
</a>
</g>
</g>
<!-- 22&#45;&gt;21 -->
<g id="edge34" class="edge">
<title>22&#45;&gt;21</title>
<g id="a_edge34"><a xlink:title="include">
<path fill="none" stroke="#1414ce" d="M620.35,-297.76C673.45,-289.14 752.38,-273.2 774,-252 790.34,-235.98 796.23,-210.19 798.25,-190.49"/>
<polygon fill="#1414ce" stroke="#1414ce" points="801.76,-190.5 799.01,-180.27 794.78,-189.98 801.76,-190.5"/>
</a>
</g>
</g>
<!-- 22&#45;&gt;23 -->
<g id="edge35" class="edge">
<title>22&#45;&gt;23</title>
<g id="a_edge35"><a xlink:title="include">
<path fill="none" stroke="#1414ce" d="M572.72,-287.7C573.93,-279.98 575.39,-270.71 576.74,-262.11"/>
<polygon fill="#1414ce" stroke="#1414ce" points="580.22,-262.53 578.31,-252.1 573.3,-261.44 580.22,-262.53"/>
</a>
</g>
</g>
<!-- 22&#45;&gt;15 -->
<g id="edge36" class="edge">
<title>22&#45;&gt;15</title>
<g id="a_edge36"><a xlink:title="include">
<path fill="none" stroke="#1414ce" d="M519.7,-295.19C452.34,-282.06 333.33,-258.85 264.42,-245.42"/>
<polygon fill="#1414ce" stroke="#1414ce" points="264.7,-241.9 254.21,-243.43 263.36,-248.78 264.7,-241.9"/>
</a>
</g>
</g>
<!-- 24 -->
<g id="node13" class="node">
<title>24</title>
<g id="a_node13"><a xlink:title="synclist.h">
<polygon fill="#ffffff" stroke="black" points="765.5,-252 680.5,-252 680.5,-216 765.5,-216 765.5,-252"/>
<text text-anchor="middle" x="723" y="-230.3" font-family="Times,serif" font-size="14.00">synclist.h</text>
</a>
</g>
</g>
<!-- 22&#45;&gt;24 -->
<g id="edge37" class="edge">
<title>22&#45;&gt;24</title>
<g id="a_edge37"><a xlink:title="include">
<path fill="none" stroke="#1414ce" d="M607.43,-287.88C628.25,-278.35 654.35,-266.41 676.48,-256.28"/>
<polygon fill="#1414ce" stroke="#1414ce" points="678.06,-259.41 685.69,-252.07 675.14,-253.05 678.06,-259.41"/>
</a>
</g>
</g>
<!-- 22&#45;&gt;10 -->
<g id="edge32" class="edge">
<title>22&#45;&gt;10</title>
<g id="a_edge32"><a xlink:title="include">
<path fill="none" stroke="#1414ce" d="M522.49,-287.89C501.53,-279.03 477.33,-266.92 458,-252 407.11,-212.71 362.3,-151.21 339.33,-116.7"/>
<polygon fill="#1414ce" stroke="#1414ce" points="342.11,-114.57 333.7,-108.13 336.26,-118.41 342.11,-114.57"/>
</a>
</g>
</g>
<!-- 25 -->
<g id="node12" class="node">
<title>25</title>
<g id="a_node12"><a xlink:title="smp.h">
<polygon fill="#ffffff" stroke="black" points="754,-180 694,-180 694,-144 754,-144 754,-180"/>
<text text-anchor="middle" x="724" y="-158.3" font-family="Times,serif" font-size="14.00">smp.h</text>
</a>
</g>
</g>
<!-- 25&#45;&gt;4 -->
<g id="edge38" class="edge">
<title>25&#45;&gt;4</title>
<g id="a_edge38"><a xlink:title="include">
<path fill="none" stroke="#1414ce" d="M754.22,-147.78C757.18,-146.5 760.15,-145.22 763,-144 787.93,-133.33 815.7,-121.62 838.82,-111.93"/>
<polygon fill="#1414ce" stroke="#1414ce" points="840.21,-115.14 848.09,-108.05 837.51,-108.69 840.21,-115.14"/>
</a>
</g>
</g>
<!-- 24&#45;&gt;21 -->
<g id="edge40" class="edge">
<title>24&#45;&gt;21</title>
<g id="a_edge40"><a xlink:title="include">
<path fill="none" stroke="#1414ce" d="M741.79,-215.7C751.17,-207.05 762.68,-196.45 772.91,-187.03"/>
<polygon fill="#1414ce" stroke="#1414ce" points="775.45,-189.45 780.43,-180.1 770.7,-184.3 775.45,-189.45"/>
</a>
</g>
</g>
<!-- 24&#45;&gt;25 -->
<g id="edge41" class="edge">
<title>24&#45;&gt;25</title>
<g id="a_edge41"><a xlink:title="include">
<path fill="none" stroke="#1414ce" d="M723.25,-215.7C723.36,-207.98 723.49,-198.71 723.61,-190.11"/>
<polygon fill="#1414ce" stroke="#1414ce" points="727.11,-190.15 723.76,-180.1 720.11,-190.05 727.11,-190.15"/>
</a>
</g>
</g>
<!-- 9 -->
<g id="node24" class="node">
<title>9</title>
<g id="a_node24"><a xlink:title="stdio.h">
<polygon fill="#ffffff" stroke="black" points="601.5,-108 536.5,-108 536.5,-72 601.5,-72 601.5,-108"/>
<text text-anchor="middle" x="569" y="-86.3" font-family="Times,serif" font-size="14.00">stdio.h</text>
</a>
</g>
</g>
<!-- 24&#45;&gt;9 -->
<g id="edge39" class="edge">
<title>24&#45;&gt;9</title>
<g id="a_edge39"><a xlink:title="include">
<path fill="none" stroke="#1414ce" d="M704.42,-215.87C677.14,-190.71 626.1,-143.65 595.07,-115.04"/>
<polygon fill="#1414ce" stroke="#1414ce" points="597.37,-112.4 587.64,-108.19 592.62,-117.54 597.37,-112.4"/>
</a>
</g>
</g>
<!-- 11&#45;&gt;14 -->
<g id="edge48" class="edge">
<title>11&#45;&gt;14</title>
<g id="a_edge48"><a xlink:title="include">
<path fill="none" stroke="#1414ce" d="M590.26,-442.88C544.87,-434.09 460.46,-416.67 390,-396 388.59,-395.59 387.17,-395.16 385.74,-394.71"/>
<polygon fill="#1414ce" stroke="#1414ce" points="386.8,-391.38 376.21,-391.59 384.62,-398.03 386.8,-391.38"/>
</a>
</g>
</g>
<!-- 11&#45;&gt;3 -->
<g id="edge49" class="edge">
<title>11&#45;&gt;3</title>
<g id="a_edge49"><a xlink:title="include">
<path fill="none" stroke="#1414ce" d="M655.67,-442.15C697.61,-433.06 772.43,-415.82 835,-396 836.61,-395.49 838.25,-394.95 839.89,-394.39"/>
<polygon fill="#1414ce" stroke="#1414ce" points="841.11,-397.68 849.36,-391.03 838.76,-391.08 841.11,-397.68"/>
</a>
</g>
</g>
<!-- 11&#45;&gt;15 -->
<g id="edge50" class="edge">
<title>11&#45;&gt;15</title>
<g id="a_edge50"><a xlink:title="include">
<path fill="none" stroke="#1414ce" d="M590.22,-448.31C511.91,-446.01 316.87,-436.28 268,-396 227.67,-362.76 215.85,-298.96 212.41,-262.45"/>
<polygon fill="#1414ce" stroke="#1414ce" points="215.86,-261.75 211.58,-252.06 208.88,-262.31 215.86,-261.75"/>
</a>
</g>
</g>
<!-- 11&#45;&gt;20 -->
<g id="edge51" class="edge">
<title>11&#45;&gt;20</title>
<g id="a_edge51"><a xlink:title="include">
<path fill="none" stroke="#1414ce" d="M623,-431.7C623,-423.98 623,-414.71 623,-406.11"/>
<polygon fill="#1414ce" stroke="#1414ce" points="626.5,-406.1 623,-396.1 619.5,-406.1 626.5,-406.1"/>
</a>
</g>
</g>
<!-- 11&#45;&gt;22 -->
<g id="edge52" class="edge">
<title>11&#45;&gt;22</title>
<g id="a_edge52"><a xlink:title="include">
<path fill="none" stroke="#1414ce" d="M592.7,-431.8C580.12,-422.9 566.88,-410.77 560,-396 550.96,-376.58 554.54,-352.3 559.78,-334"/>
<polygon fill="#1414ce" stroke="#1414ce" points="563.18,-334.86 562.88,-324.26 556.51,-332.73 563.18,-334.86"/>
</a>
</g>
</g>
<!-- 11&#45;&gt;17 -->
<g id="edge54" class="edge">
<title>11&#45;&gt;17</title>
<g id="a_edge54"><a xlink:title="include">
<path fill="none" stroke="#1414ce" d="M590.29,-448.14C467.1,-444.05 38,-421.57 38,-307 38,-307 38,-307 38,-233 38,-192.55 36.89,-179.09 57,-144 63.31,-133 72.68,-123 82.06,-114.72"/>
<polygon fill="#1414ce" stroke="#1414ce" points="84.45,-117.29 89.88,-108.19 79.96,-111.92 84.45,-117.29"/>
</a>
</g>
</g>
<!-- 11&#45;&gt;6 -->
<g id="edge53" class="edge">
<title>11&#45;&gt;6</title>
<g id="a_edge53"><a xlink:title="include">
<path fill="none" stroke="#1414ce" d="M594.05,-431.86C579.89,-422.5 563.3,-409.98 551,-396 526.82,-368.52 520.18,-359.44 511,-324 498.79,-276.89 508.02,-259.91 529,-216 533.62,-206.33 540.16,-196.69 546.62,-188.33"/>
<polygon fill="#1414ce" stroke="#1414ce" points="549.42,-190.44 552.98,-180.45 543.98,-186.04 549.42,-190.44"/>
</a>
</g>
</g>
<!-- 11&#45;&gt;4 -->
<g id="edge43" class="edge">
<title>11&#45;&gt;4</title>
<g id="a_edge43"><a xlink:title="include">
<path fill="none" stroke="#1414ce" d="M655.73,-447.25C723.98,-442.96 878.35,-429.7 917,-396 948.36,-368.66 946,-348.6 946,-307 946,-307 946,-307 946,-233 946,-189.8 923,-144.19 906.22,-116.66"/>
<polygon fill="#1414ce" stroke="#1414ce" points="909.09,-114.65 900.81,-108.04 903.17,-118.37 909.09,-114.65"/>
</a>
</g>
</g>
<!-- 11&#45;&gt;13 -->
<g id="edge44" class="edge">
<title>11&#45;&gt;13</title>
<g id="a_edge44"><a xlink:title="include">
<path fill="none" stroke="#1414ce" d="M655.75,-446.29C727.14,-439.95 894.35,-422.64 944,-396 1070.24,-328.26 1194.32,-278.51 1145,-144 1130.56,-104.62 1121.25,-91.28 1084,-72 987.04,-21.8 650.58,-18.16 526.46,-18.58"/>
<polygon fill="#1414ce" stroke="#1414ce" points="526.15,-15.08 516.16,-18.63 526.18,-22.08 526.15,-15.08"/>
</a>
</g>
</g>
<!-- 11&#45;&gt;9 -->
<g id="edge45" class="edge">
<title>11&#45;&gt;9</title>
<g id="a_edge45"><a xlink:title="include">
<path fill="none" stroke="#1414ce" d="M590.47,-440.14C567.49,-432.24 537.74,-418.38 520,-396 499.51,-370.15 506.03,-356.74 502,-324 492.12,-243.71 493.18,-216.53 529,-144 533.82,-134.23 540.54,-124.45 547.09,-116"/>
<polygon fill="#1414ce" stroke="#1414ce" points="549.95,-118.03 553.51,-108.05 544.5,-113.63 549.95,-118.03"/>
</a>
</g>
</g>
<!-- 11&#45;&gt;10 -->
<g id="edge46" class="edge">
<title>11&#45;&gt;10</title>
<g id="a_edge46"><a xlink:title="include">
<path fill="none" stroke="#1414ce" d="M590.23,-448.14C516.77,-445.53 342.15,-435.25 301,-396 271.73,-368.08 282,-347.45 282,-307 282,-307 282,-307 282,-233 282,-191.41 298.44,-145.56 310.5,-117.51"/>
<polygon fill="#1414ce" stroke="#1414ce" points="313.85,-118.59 314.7,-108.03 307.45,-115.75 313.85,-118.59"/>
</a>
</g>
</g>
<!-- 11&#45;&gt;5 -->
<g id="edge47" class="edge">
<title>11&#45;&gt;5</title>
<g id="a_edge47"><a xlink:title="include">
<path fill="none" stroke="#1414ce" d="M655.81,-449.77C697.04,-448.76 766.56,-440.09 801,-396 814.5,-378.72 814.27,-353.29 811.39,-334.03"/>
<polygon fill="#1414ce" stroke="#1414ce" points="814.81,-333.28 809.58,-324.06 807.92,-334.52 814.81,-333.28"/>
</a>
</g>
</g>
<!-- 12 -->
<g id="node27" class="node">
<title>12</title>
<g id="a_node27"><a xlink:title="sys/types.h">
<polygon fill="#ffffff" stroke="black" points="792.5,-396 695.5,-396 695.5,-360 792.5,-360 792.5,-396"/>
<text text-anchor="middle" x="744" y="-374.3" font-family="Times,serif" font-size="14.00">sys/types.h</text>
</a>
</g>
</g>
<!-- 11&#45;&gt;12 -->
<g id="edge42" class="edge">
<title>11&#45;&gt;12</title>
<g id="a_edge42"><a xlink:title="include">
<path fill="none" stroke="#1414ce" d="M652.6,-431.88C668.57,-422.64 688.46,-411.13 705.61,-401.21"/>
<polygon fill="#1414ce" stroke="#1414ce" points="707.38,-404.23 714.29,-396.19 703.88,-398.17 707.38,-404.23"/>
</a>
</g>
</g>
<!-- 18 -->
<g id="node18" class="node">
<title>18</title>
<g id="a_node18"><a xlink:title="assert.h">
<polygon fill="#ffffff" stroke="black" points="198,-36 124,-36 124,0 198,0 198,-36"/>
<text text-anchor="middle" x="161" y="-14.3" font-family="Times,serif" font-size="14.00">assert.h</text>
</a>
</g>
</g>
<!-- 17&#45;&gt;18 -->
<g id="edge55" class="edge">
<title>17&#45;&gt;18</title>
<g id="a_edge55"><a xlink:title="include">
<path fill="none" stroke="#1414ce" d="M126.37,-71.7C131.72,-63.56 138.2,-53.69 144.11,-44.7"/>
<polygon fill="#1414ce" stroke="#1414ce" points="147.19,-46.38 149.76,-36.1 141.34,-42.54 147.19,-46.38"/>
</a>
</g>
</g>
<!-- 7 -->
<g id="node19" class="node">
<title>7</title>
<g id="a_node19"><a xlink:title="inttypes.h">
<polygon fill="#ffffff" stroke="black" points="388.5,-36 299.5,-36 299.5,0 388.5,0 388.5,-36"/>
<text text-anchor="middle" x="344" y="-14.3" font-family="Times,serif" font-size="14.00">inttypes.h</text>
</a>
</g>
</g>
<!-- 17&#45;&gt;7 -->
<g id="edge57" class="edge">
<title>17&#45;&gt;7</title>
<g id="a_edge57"><a xlink:title="include">
<path fill="none" stroke="#1414ce" d="M170.73,-71.97C206.79,-60.94 253.52,-46.66 289.37,-35.7"/>
<polygon fill="#1414ce" stroke="#1414ce" points="290.63,-38.97 299.17,-32.7 288.58,-32.28 290.63,-38.97"/>
</a>
</g>
</g>
<!-- 19 -->
<g id="node20" class="node">
<title>19</title>
<g id="a_node20"><a xlink:title="limits.h">
<polygon fill="#ffffff" stroke="black" points="105.5,-36 34.5,-36 34.5,0 105.5,0 105.5,-36"/>
<text text-anchor="middle" x="70" y="-14.3" font-family="Times,serif" font-size="14.00">limits.h</text>
</a>
</g>
</g>
<!-- 17&#45;&gt;19 -->
<g id="edge56" class="edge">
<title>17&#45;&gt;19</title>
<g id="a_edge56"><a xlink:title="include">
<path fill="none" stroke="#1414ce" d="M103.88,-71.7C98.64,-63.56 92.3,-53.69 86.52,-44.7"/>
<polygon fill="#1414ce" stroke="#1414ce" points="89.35,-42.62 81,-36.1 83.46,-46.41 89.35,-42.62"/>
</a>
</g>
</g>
<!-- 17&#45;&gt;13 -->
<g id="edge58" class="edge">
<title>17&#45;&gt;13</title>
<g id="a_edge58"><a xlink:title="include">
<path fill="none" stroke="#1414ce" d="M177.57,-74.95C182.45,-73.93 187.3,-72.93 192,-72 282.74,-54.02 306.12,-53.28 397,-36 408.97,-33.72 421.88,-31.14 433.87,-28.69"/>
<polygon fill="#1414ce" stroke="#1414ce" points="434.59,-32.11 443.68,-26.67 433.18,-25.26 434.59,-32.11"/>
</a>
</g>
</g>
<!-- 26&#45;&gt;4 -->
<g id="edge59" class="edge">
<title>26&#45;&gt;4</title>
<g id="a_edge59"><a xlink:title="include">
<path fill="none" stroke="#1414ce" d="M1049.74,-146.15C1017.8,-135.2 974.21,-120.24 940.49,-108.67"/>
<polygon fill="#1414ce" stroke="#1414ce" points="941.4,-105.28 930.81,-105.35 939.13,-111.9 941.4,-105.28"/>
</a>
</g>
</g>
<!-- 8 -->
<g id="node22" class="node">
<title>8</title>
<g id="a_node22"><a xlink:title="stddef.h">
<polygon fill="#ffffff" stroke="black" points="1048,-108 974,-108 974,-72 1048,-72 1048,-108"/>
<text text-anchor="middle" x="1011" y="-86.3" font-family="Times,serif" font-size="14.00">stddef.h</text>
</a>
</g>
</g>
<!-- 26&#45;&gt;8 -->
<g id="edge60" class="edge">
<title>26&#45;&gt;8</title>
<g id="a_edge60"><a xlink:title="include">
<path fill="none" stroke="#1414ce" d="M1072.73,-143.7C1062.5,-134.97 1049.94,-124.24 1038.82,-114.75"/>
<polygon fill="#1414ce" stroke="#1414ce" points="1040.91,-111.94 1031.04,-108.1 1036.37,-117.26 1040.91,-111.94"/>
</a>
</g>
</g>
<!-- 26&#45;&gt;13 -->
<g id="edge61" class="edge">
<title>26&#45;&gt;13</title>
<g id="a_edge61"><a xlink:title="include">
<path fill="none" stroke="#1414ce" d="M1091.3,-143.7C1088.25,-123 1079.88,-89 1057,-72 1014.74,-40.6 655.79,-25.12 526.32,-20.51"/>
<polygon fill="#1414ce" stroke="#1414ce" points="526.44,-17.01 516.32,-20.16 526.19,-24.01 526.44,-17.01"/>
</a>
</g>
</g>
<!-- 6&#45;&gt;7 -->
<g id="edge62" class="edge">
<title>6&#45;&gt;7</title>
<g id="a_edge62"><a xlink:title="include">
<path fill="none" stroke="#1414ce" d="M541.86,-143.87C501.32,-118.28 424.89,-70.05 379.81,-41.6"/>
<polygon fill="#1414ce" stroke="#1414ce" points="381.56,-38.57 371.24,-36.19 377.83,-44.49 381.56,-38.57"/>
</a>
</g>
</g>
<!-- 6&#45;&gt;4 -->
<g id="edge63" class="edge">
<title>6&#45;&gt;4</title>
<g id="a_edge63"><a xlink:title="include">
<path fill="none" stroke="#1414ce" d="M600.24,-148.42C604.82,-146.8 609.5,-145.27 614,-144 690.63,-122.31 781.79,-106.68 837.51,-98.23"/>
<polygon fill="#1414ce" stroke="#1414ce" points="838.11,-101.68 847.49,-96.74 837.08,-94.76 838.11,-101.68"/>
</a>
</g>
</g>
<!-- 6&#45;&gt;8 -->
<g id="edge64" class="edge">
<title>6&#45;&gt;8</title>
<g id="a_edge64"><a xlink:title="include">
<path fill="none" stroke="#1414ce" d="M600.01,-156.41C623.37,-152.97 656.19,-148.15 685,-144 797.85,-127.73 826.96,-129.12 939,-108 947.08,-106.48 955.61,-104.65 963.88,-102.78"/>
<polygon fill="#1414ce" stroke="#1414ce" points="964.82,-106.15 973.77,-100.47 963.24,-99.33 964.82,-106.15"/>
</a>
</g>
</g>
<!-- 6&#45;&gt;9 -->
<g id="edge65" class="edge">
<title>6&#45;&gt;9</title>
<g id="a_edge65"><a xlink:title="include">
<path fill="none" stroke="#1414ce" d="M569,-143.7C569,-135.98 569,-126.71 569,-118.11"/>
<polygon fill="#1414ce" stroke="#1414ce" points="572.5,-118.1 569,-108.1 565.5,-118.1 572.5,-118.1"/>
</a>
</g>
</g>
<!-- 6&#45;&gt;10 -->
<g id="edge66" class="edge">
<title>6&#45;&gt;10</title>
<g id="a_edge66"><a xlink:title="include">
<path fill="none" stroke="#1414ce" d="M537.7,-148.61C533.13,-146.97 528.47,-145.38 524,-144 459.33,-124 441.16,-126.35 376,-108 373.43,-107.28 370.8,-106.51 368.14,-105.72"/>
<polygon fill="#1414ce" stroke="#1414ce" points="369.12,-102.36 358.53,-102.78 367.07,-109.05 369.12,-102.36"/>
</a>
</g>
</g>
</g>
</svg>
