<?xml version="1.0" encoding="UTF-8" standalone="no"?>
<!DOCTYPE svg PUBLIC "-//W3C//DTD SVG 1.1//EN"
 "http://www.w3.org/Graphics/SVG/1.1/DTD/svg11.dtd">
<!-- Generated by graphviz version 2.43.0 (0)
 -->
<!-- Title: %3 Pages: 1 -->
<svg width="1565pt" height="764pt"
 viewBox="0.00 0.00 1565.16 764.00" xmlns="http://www.w3.org/2000/svg" xmlns:xlink="http://www.w3.org/1999/xlink">
<g id="graph0" class="graph" transform="scale(1 1) rotate(0) translate(4 760)">
<title>%3</title>
<polygon fill="transparent" stroke="transparent" points="-4,4 -4,-760 1561.16,-760 1561.16,4 -4,4"/>
<!-- 11 -->
<g id="node1" class="node">
<title>11</title>
<g id="a_node1"><a xlink:title="atom.h">
<polygon fill="#ffffff" stroke="black" points="469.16,-180 403.16,-180 403.16,-144 469.16,-144 469.16,-180"/>
<text text-anchor="middle" x="436.16" y="-158.3" font-family="Times,serif" font-size="14.00">atom.h</text>
</a>
</g>
</g>
<!-- 7 -->
<g id="node28" class="node">
<title>7</title>
<g id="a_node28"><a xlink:title="stdint.h">
<polygon fill="#ffffff" stroke="black" points="499.16,-36 427.16,-36 427.16,0 499.16,0 499.16,-36"/>
<text text-anchor="middle" x="463.16" y="-14.3" font-family="Times,serif" font-size="14.00">stdint.h</text>
</a>
</g>
</g>
<!-- 11&#45;&gt;7 -->
<g id="edge1" class="edge">
<title>11&#45;&gt;7</title>
<g id="a_edge1"><a xlink:title="include">
<path fill="none" stroke="#1414ce" d="M439.41,-143.87C444.01,-119.67 452.47,-75.21 457.95,-46.39"/>
<polygon fill="#1414ce" stroke="#1414ce" points="461.46,-46.67 459.89,-36.19 454.58,-45.36 461.46,-46.67"/>
</a>
</g>
</g>
<!-- 9 -->
<g id="node30" class="node">
<title>9</title>
<g id="a_node30"><a xlink:title="stdlib.h">
<polygon fill="#ffffff" stroke="black" points="396.66,-108 325.66,-108 325.66,-72 396.66,-72 396.66,-108"/>
<text text-anchor="middle" x="361.16" y="-86.3" font-family="Times,serif" font-size="14.00">stdlib.h</text>
</a>
</g>
</g>
<!-- 11&#45;&gt;9 -->
<g id="edge2" class="edge">
<title>11&#45;&gt;9</title>
<g id="a_edge2"><a xlink:title="include">
<path fill="none" stroke="#1414ce" d="M417.62,-143.7C408.35,-135.05 396.99,-124.45 386.9,-115.03"/>
<polygon fill="#1414ce" stroke="#1414ce" points="389.18,-112.37 379.48,-108.1 384.4,-117.49 389.18,-112.37"/>
</a>
</g>
</g>
<!-- 28 -->
<g id="node2" class="node">
<title>28</title>
<g id="a_node2"><a xlink:title="atom_table.h">
<polygon fill="#ffffff" stroke="black" points="700.66,-252 591.66,-252 591.66,-216 700.66,-216 700.66,-252"/>
<text text-anchor="middle" x="646.16" y="-230.3" font-family="Times,serif" font-size="14.00">atom_table.h</text>
</a>
</g>
</g>
<!-- 28&#45;&gt;11 -->
<g id="edge4" class="edge">
<title>28&#45;&gt;11</title>
<g id="a_edge4"><a xlink:title="include">
<path fill="none" stroke="#1414ce" d="M592.05,-215.9C560.25,-205.72 519.32,-192.42 483.16,-180 481.75,-179.52 480.31,-179.02 478.87,-178.52"/>
<polygon fill="#1414ce" stroke="#1414ce" points="479.83,-175.14 469.23,-175.12 477.5,-181.74 479.83,-175.14"/>
</a>
</g>
</g>
<!-- 13 -->
<g id="node20" class="node">
<title>13</title>
<g id="a_node20"><a xlink:title="utils.h">
<polygon fill="#ffffff" stroke="black" points="663.16,-180 601.16,-180 601.16,-144 663.16,-144 663.16,-180"/>
<text text-anchor="middle" x="632.16" y="-158.3" font-family="Times,serif" font-size="14.00">utils.h</text>
</a>
</g>
</g>
<!-- 28&#45;&gt;13 -->
<g id="edge5" class="edge">
<title>28&#45;&gt;13</title>
<g id="a_edge5"><a xlink:title="include">
<path fill="none" stroke="#1414ce" d="M642.7,-215.7C641.15,-207.98 639.3,-198.71 637.58,-190.11"/>
<polygon fill="#1414ce" stroke="#1414ce" points="640.97,-189.22 635.58,-180.1 634.11,-190.6 640.97,-189.22"/>
</a>
</g>
</g>
<!-- 4 -->
<g id="node26" class="node">
<title>4</title>
<g id="a_node26"><a xlink:title="stdbool.h">
<polygon fill="#ffffff" stroke="black" points="959.66,-108 876.66,-108 876.66,-72 959.66,-72 959.66,-108"/>
<text text-anchor="middle" x="918.16" y="-86.3" font-family="Times,serif" font-size="14.00">stdbool.h</text>
</a>
</g>
</g>
<!-- 28&#45;&gt;4 -->
<g id="edge3" class="edge">
<title>28&#45;&gt;4</title>
<g id="a_edge3"><a xlink:title="include">
<path fill="none" stroke="#1414ce" d="M654.89,-215.81C666.09,-195.55 687.42,-162.31 715.16,-144 760.89,-113.82 822.98,-100.81 866.4,-95.21"/>
<polygon fill="#1414ce" stroke="#1414ce" points="866.96,-98.67 876.47,-94 866.12,-91.72 866.96,-98.67"/>
</a>
</g>
</g>
<!-- 26 -->
<g id="node3" class="node">
<title>26</title>
<g id="a_node3"><a xlink:title="defaultatoms.h">
<polygon fill="#ffffff" stroke="black" points="907.16,-684 783.16,-684 783.16,-648 907.16,-648 907.16,-684"/>
<text text-anchor="middle" x="845.16" y="-662.3" font-family="Times,serif" font-size="14.00">defaultatoms.h</text>
</a>
</g>
</g>
<!-- 27 -->
<g id="node8" class="node">
<title>27</title>
<g id="a_node8"><a xlink:title="globalcontext.h">
<polygon fill="#ffffff" stroke="black" points="1081.66,-612 954.66,-612 954.66,-576 1081.66,-576 1081.66,-612"/>
<text text-anchor="middle" x="1018.16" y="-590.3" font-family="Times,serif" font-size="14.00">globalcontext.h</text>
</a>
</g>
</g>
<!-- 26&#45;&gt;27 -->
<g id="edge6" class="edge">
<title>26&#45;&gt;27</title>
<g id="a_edge6"><a xlink:title="include">
<path fill="none" stroke="#1414ce" d="M887.48,-647.88C911.34,-638.22 941.33,-626.09 966.56,-615.88"/>
<polygon fill="#1414ce" stroke="#1414ce" points="968.02,-619.06 975.97,-612.07 965.39,-612.57 968.02,-619.06"/>
</a>
</g>
</g>
<!-- 32 -->
<g id="node23" class="node">
<title>32</title>
<g id="a_node23"><a xlink:title="defaultatoms.def">
<polygon fill="#ffffff" stroke="black" points="913.66,-612 776.66,-612 776.66,-576 913.66,-576 913.66,-612"/>
<text text-anchor="middle" x="845.16" y="-590.3" font-family="Times,serif" font-size="14.00">defaultatoms.def</text>
</a>
</g>
</g>
<!-- 26&#45;&gt;32 -->
<g id="edge7" class="edge">
<title>26&#45;&gt;32</title>
<g id="a_edge7"><a xlink:title="include">
<path fill="none" stroke="#1414ce" d="M845.16,-647.7C845.16,-639.98 845.16,-630.71 845.16,-622.11"/>
<polygon fill="#1414ce" stroke="#1414ce" points="848.66,-622.1 845.16,-612.1 841.66,-622.1 848.66,-622.1"/>
</a>
</g>
</g>
<!-- 1 -->
<g id="node4" class="node">
<title>1</title>
<g id="a_node4"><a xlink:title="/__w/AtomVM/AtomVM/src/libAtomVM/dictionary.c">
<polygon fill="#bfbfbf" stroke="black" points="889.66,-756 514.66,-756 514.66,-720 889.66,-720 889.66,-756"/>
<text text-anchor="middle" x="702.16" y="-734.3" font-family="Times,serif" font-size="14.00">/__w/AtomVM/AtomVM/src/libAtomVM/dictionary.c</text>
</a>
</g>
</g>
<!-- 1&#45;&gt;26 -->
<g id="edge9" class="edge">
<title>1&#45;&gt;26</title>
<g id="a_edge9"><a xlink:title="include">
<path fill="none" stroke="#1414ce" d="M737.14,-719.88C756.35,-710.47 780.38,-698.71 800.89,-688.67"/>
<polygon fill="#1414ce" stroke="#1414ce" points="802.6,-691.73 810.04,-684.19 799.52,-685.44 802.6,-691.73"/>
</a>
</g>
</g>
<!-- 2 -->
<g id="node5" class="node">
<title>2</title>
<g id="a_node5"><a xlink:title="dictionary.h">
<polygon fill="#ffffff" stroke="black" points="752.16,-540 652.16,-540 652.16,-504 752.16,-504 752.16,-540"/>
<text text-anchor="middle" x="702.16" y="-518.3" font-family="Times,serif" font-size="14.00">dictionary.h</text>
</a>
</g>
</g>
<!-- 1&#45;&gt;2 -->
<g id="edge8" class="edge">
<title>1&#45;&gt;2</title>
<g id="a_edge8"><a xlink:title="include">
<path fill="none" stroke="#1414ce" d="M702.16,-719.85C702.16,-682.83 702.16,-595.18 702.16,-550.39"/>
<polygon fill="#1414ce" stroke="#1414ce" points="705.66,-550.23 702.16,-540.23 698.66,-550.23 705.66,-550.23"/>
</a>
</g>
</g>
<!-- 3 -->
<g id="node10" class="node">
<title>3</title>
<g id="a_node10"><a xlink:title="list.h">
<polygon fill="#ffffff" stroke="black" points="993.16,-180 939.16,-180 939.16,-144 993.16,-144 993.16,-180"/>
<text text-anchor="middle" x="966.16" y="-158.3" font-family="Times,serif" font-size="14.00">list.h</text>
</a>
</g>
</g>
<!-- 1&#45;&gt;3 -->
<g id="edge10" class="edge">
<title>1&#45;&gt;3</title>
<g id="a_edge10"><a xlink:title="include">
<path fill="none" stroke="#1414ce" d="M889.92,-722.91C1045.47,-705.88 1241.16,-669.63 1241.16,-595 1241.16,-595 1241.16,-595 1241.16,-449 1241.16,-334.67 1218.02,-291.48 1132.16,-216 1112.8,-198.99 1045.71,-181.15 1002.97,-171.12"/>
<polygon fill="#1414ce" stroke="#1414ce" points="1003.73,-167.7 993.2,-168.86 1002.16,-174.52 1003.73,-167.7"/>
</a>
</g>
</g>
<!-- 5 -->
<g id="node17" class="node">
<title>5</title>
<g id="a_node17"><a xlink:title="term.h">
<polygon fill="#ffffff" stroke="black" points="541.66,-468 476.66,-468 476.66,-432 541.66,-432 541.66,-468"/>
<text text-anchor="middle" x="509.16" y="-446.3" font-family="Times,serif" font-size="14.00">term.h</text>
</a>
</g>
</g>
<!-- 1&#45;&gt;5 -->
<g id="edge11" class="edge">
<title>1&#45;&gt;5</title>
<g id="a_edge11"><a xlink:title="include">
<path fill="none" stroke="#1414ce" d="M690.66,-719.97C658.15,-671.8 565.41,-534.37 526.59,-476.83"/>
<polygon fill="#1414ce" stroke="#1414ce" points="529.33,-474.64 520.83,-468.31 523.53,-478.55 529.33,-474.64"/>
</a>
</g>
</g>
<!-- 1&#45;&gt;9 -->
<g id="edge12" class="edge">
<title>1&#45;&gt;9</title>
<g id="a_edge12"><a xlink:title="include">
<path fill="none" stroke="#1414ce" d="M514.38,-735.19C307.33,-727.96 3.16,-699.56 3.16,-595 3.16,-595 3.16,-595 3.16,-305 3.16,-231.68 -14.14,-194.35 39.16,-144 59,-125.26 231.44,-104.7 315.49,-95.68"/>
<polygon fill="#1414ce" stroke="#1414ce" points="315.95,-99.15 325.52,-94.61 315.21,-92.19 315.95,-99.15"/>
</a>
</g>
</g>
<!-- 2&#45;&gt;3 -->
<g id="edge13" class="edge">
<title>2&#45;&gt;3</title>
<g id="a_edge13"><a xlink:title="include">
<path fill="none" stroke="#1414ce" d="M726.75,-503.91C757.56,-481.64 810.73,-440.27 847.16,-396 893.95,-339.13 896.74,-318.13 929.16,-252 939.24,-231.43 949.12,-207.41 956.13,-189.51"/>
<polygon fill="#1414ce" stroke="#1414ce" points="959.46,-190.6 959.81,-180.01 952.94,-188.07 959.46,-190.6"/>
</a>
</g>
</g>
<!-- 2&#45;&gt;5 -->
<g id="edge14" class="edge">
<title>2&#45;&gt;5</title>
<g id="a_edge14"><a xlink:title="include">
<path fill="none" stroke="#1414ce" d="M654.94,-503.88C623.22,-492.37 581.79,-477.34 551.21,-466.25"/>
<polygon fill="#1414ce" stroke="#1414ce" points="552.28,-462.92 541.68,-462.8 549.89,-469.5 552.28,-462.92"/>
</a>
</g>
</g>
<!-- 17 -->
<g id="node6" class="node">
<title>17</title>
<g id="a_node6"><a xlink:title="erl_nif.h">
<polygon fill="#ffffff" stroke="black" points="122.16,-180 48.16,-180 48.16,-144 122.16,-144 122.16,-180"/>
<text text-anchor="middle" x="85.16" y="-158.3" font-family="Times,serif" font-size="14.00">erl_nif.h</text>
</a>
</g>
</g>
<!-- 18 -->
<g id="node18" class="node">
<title>18</title>
<g id="a_node18"><a xlink:title="term_typedef.h">
<polygon fill="#ffffff" stroke="black" points="159.66,-108 34.66,-108 34.66,-72 159.66,-72 159.66,-108"/>
<text text-anchor="middle" x="97.16" y="-86.3" font-family="Times,serif" font-size="14.00">term_typedef.h</text>
</a>
</g>
</g>
<!-- 17&#45;&gt;18 -->
<g id="edge15" class="edge">
<title>17&#45;&gt;18</title>
<g id="a_edge15"><a xlink:title="include">
<path fill="none" stroke="#1414ce" d="M88.12,-143.7C89.44,-135.98 91.03,-126.71 92.51,-118.11"/>
<polygon fill="#1414ce" stroke="#1414ce" points="95.98,-118.55 94.22,-108.1 89.08,-117.37 95.98,-118.55"/>
</a>
</g>
</g>
<!-- 29 -->
<g id="node7" class="node">
<title>29</title>
<g id="a_node7"><a xlink:title="ets.h">
<polygon fill="#ffffff" stroke="black" points="1045.16,-540 991.16,-540 991.16,-504 1045.16,-504 1045.16,-540"/>
<text text-anchor="middle" x="1018.16" y="-518.3" font-family="Times,serif" font-size="14.00">ets.h</text>
</a>
</g>
</g>
<!-- 24 -->
<g id="node16" class="node">
<title>24</title>
<g id="a_node16"><a xlink:title="synclist.h">
<polygon fill="#ffffff" stroke="black" points="1098.66,-252 1013.66,-252 1013.66,-216 1098.66,-216 1098.66,-252"/>
<text text-anchor="middle" x="1056.16" y="-230.3" font-family="Times,serif" font-size="14.00">synclist.h</text>
</a>
</g>
</g>
<!-- 29&#45;&gt;24 -->
<g id="edge17" class="edge">
<title>29&#45;&gt;24</title>
<g id="a_edge17"><a xlink:title="include">
<path fill="none" stroke="#1414ce" d="M1019,-503.92C1021.12,-465.22 1027.56,-368.01 1042.16,-288 1043.72,-279.44 1045.95,-270.24 1048.17,-261.94"/>
<polygon fill="#1414ce" stroke="#1414ce" points="1051.62,-262.61 1050.93,-252.03 1044.88,-260.73 1051.62,-262.61"/>
</a>
</g>
</g>
<!-- 29&#45;&gt;5 -->
<g id="edge18" class="edge">
<title>29&#45;&gt;5</title>
<g id="a_edge18"><a xlink:title="include">
<path fill="none" stroke="#1414ce" d="M991.15,-517.29C907.69,-505.81 653.45,-470.84 551.81,-456.87"/>
<polygon fill="#1414ce" stroke="#1414ce" points="552.27,-453.4 541.89,-455.5 551.32,-460.33 552.27,-453.4"/>
</a>
</g>
</g>
<!-- 29&#45;&gt;4 -->
<g id="edge16" class="edge">
<title>29&#45;&gt;4</title>
<g id="a_edge16"><a xlink:title="include">
<path fill="none" stroke="#1414ce" d="M1045.59,-513.05C1112.61,-491.77 1279.16,-426.83 1279.16,-307 1279.16,-307 1279.16,-307 1279.16,-233 1279.16,-167.32 1069.59,-119.29 969.8,-100.15"/>
<polygon fill="#1414ce" stroke="#1414ce" points="970.4,-96.7 959.92,-98.28 969.09,-103.57 970.4,-96.7"/>
</a>
</g>
</g>
<!-- 27&#45;&gt;11 -->
<g id="edge20" class="edge">
<title>27&#45;&gt;11</title>
<g id="a_edge20"><a xlink:title="include">
<path fill="none" stroke="#1414ce" d="M954.48,-581.06C943.72,-579.23 932.63,-577.47 922.16,-576 662.42,-539.62 483.42,-627.51 360.16,-396 322.3,-324.91 339.48,-284.92 381.16,-216 387.58,-205.38 396.65,-195.44 405.59,-187.11"/>
<polygon fill="#1414ce" stroke="#1414ce" points="408.19,-189.48 413.33,-180.22 403.53,-184.25 408.19,-189.48"/>
</a>
</g>
</g>
<!-- 27&#45;&gt;28 -->
<g id="edge21" class="edge">
<title>27&#45;&gt;28</title>
<g id="a_edge21"><a xlink:title="include">
<path fill="none" stroke="#1414ce" d="M999.86,-575.58C989.75,-565.58 977.24,-552.54 967.16,-540 881.57,-433.52 901.53,-368.49 791.16,-288 767.34,-270.63 737.22,-258.4 710.61,-250.1"/>
<polygon fill="#1414ce" stroke="#1414ce" points="711.57,-246.74 700.98,-247.22 709.56,-253.44 711.57,-246.74"/>
</a>
</g>
</g>
<!-- 27&#45;&gt;17 -->
<g id="edge22" class="edge">
<title>27&#45;&gt;17</title>
<g id="a_edge22"><a xlink:title="include">
<path fill="none" stroke="#1414ce" d="M954.52,-580.81C943.74,-579.01 932.65,-577.32 922.16,-576 828.21,-564.17 79.16,-545.69 79.16,-451 79.16,-451 79.16,-451 79.16,-305 79.16,-264.96 81.57,-218.63 83.33,-190.07"/>
<polygon fill="#1414ce" stroke="#1414ce" points="86.83,-190.24 83.97,-180.04 79.84,-189.8 86.83,-190.24"/>
</a>
</g>
</g>
<!-- 27&#45;&gt;29 -->
<g id="edge23" class="edge">
<title>27&#45;&gt;29</title>
<g id="a_edge23"><a xlink:title="include">
<path fill="none" stroke="#1414ce" d="M1018.16,-575.7C1018.16,-567.98 1018.16,-558.71 1018.16,-550.11"/>
<polygon fill="#1414ce" stroke="#1414ce" points="1021.66,-550.1 1018.16,-540.1 1014.66,-550.1 1021.66,-550.1"/>
</a>
</g>
</g>
<!-- 27&#45;&gt;3 -->
<g id="edge24" class="edge">
<title>27&#45;&gt;3</title>
<g id="a_edge24"><a xlink:title="include">
<path fill="none" stroke="#1414ce" d="M1041.96,-575.94C1053.2,-566.61 1065.74,-554.08 1073.16,-540 1140.6,-411.88 1189.58,-335.04 1107.16,-216 1095.01,-198.46 1041.07,-181.75 1003.55,-171.94"/>
<polygon fill="#1414ce" stroke="#1414ce" points="1004,-168.44 993.45,-169.36 1002.27,-175.22 1004,-168.44"/>
</a>
</g>
</g>
<!-- 23 -->
<g id="node11" class="node">
<title>23</title>
<g id="a_node11"><a xlink:title="mailbox.h">
<polygon fill="#ffffff" stroke="black" points="843.16,-252 757.16,-252 757.16,-216 843.16,-216 843.16,-252"/>
<text text-anchor="middle" x="800.16" y="-230.3" font-family="Times,serif" font-size="14.00">mailbox.h</text>
</a>
</g>
</g>
<!-- 27&#45;&gt;23 -->
<g id="edge25" class="edge">
<title>27&#45;&gt;23</title>
<g id="a_edge25"><a xlink:title="include">
<path fill="none" stroke="#1414ce" d="M1004.12,-575.79C996.64,-565.86 987.83,-552.82 982.16,-540 962.18,-494.85 973.59,-478.19 956.16,-432 930.6,-364.3 928.72,-341.65 880.16,-288 869.43,-276.15 855.5,-265.73 842.28,-257.34"/>
<polygon fill="#1414ce" stroke="#1414ce" points="844.09,-254.35 833.73,-252.13 840.44,-260.32 844.09,-254.35"/>
</a>
</g>
</g>
<!-- 25 -->
<g id="node15" class="node">
<title>25</title>
<g id="a_node15"><a xlink:title="smp.h">
<polygon fill="#ffffff" stroke="black" points="1109.16,-180 1049.16,-180 1049.16,-144 1109.16,-144 1109.16,-180"/>
<text text-anchor="middle" x="1079.16" y="-158.3" font-family="Times,serif" font-size="14.00">smp.h</text>
</a>
</g>
</g>
<!-- 27&#45;&gt;25 -->
<g id="edge26" class="edge">
<title>27&#45;&gt;25</title>
<g id="a_edge26"><a xlink:title="include">
<path fill="none" stroke="#1414ce" d="M1051.37,-575.86C1066.7,-566.75 1084.31,-554.43 1097.16,-540 1143.48,-487.95 1146.61,-464.54 1159.16,-396 1173.72,-316.43 1176.77,-283.48 1132.16,-216 1125.27,-205.59 1116.11,-195.54 1107.34,-187.04"/>
<polygon fill="#1414ce" stroke="#1414ce" points="1109.5,-184.27 1099.8,-180.01 1104.72,-189.39 1109.5,-184.27"/>
</a>
</g>
</g>
<!-- 27&#45;&gt;24 -->
<g id="edge27" class="edge">
<title>27&#45;&gt;24</title>
<g id="a_edge27"><a xlink:title="include">
<path fill="none" stroke="#1414ce" d="M1033.73,-575.76C1041.48,-566.02 1050.06,-553.17 1054.16,-540 1084.77,-441.61 1070,-316.57 1061.15,-262.24"/>
<polygon fill="#1414ce" stroke="#1414ce" points="1064.54,-261.33 1059.42,-252.05 1057.64,-262.5 1064.54,-261.33"/>
</a>
</g>
</g>
<!-- 27&#45;&gt;5 -->
<g id="edge28" class="edge">
<title>27&#45;&gt;5</title>
<g id="a_edge28"><a xlink:title="include">
<path fill="none" stroke="#1414ce" d="M954.45,-581.29C943.69,-579.43 932.61,-577.6 922.16,-576 798.57,-557.09 760.29,-583.73 643.16,-540 602.55,-524.84 561.93,-495.35 536.23,-474.48"/>
<polygon fill="#1414ce" stroke="#1414ce" points="538.37,-471.7 528.43,-468.03 533.91,-477.1 538.37,-471.7"/>
</a>
</g>
</g>
<!-- 30 -->
<g id="node19" class="node">
<title>30</title>
<g id="a_node19"><a xlink:title="timer_list.h">
<polygon fill="#ffffff" stroke="black" points="1405.16,-252 1307.16,-252 1307.16,-216 1405.16,-216 1405.16,-252"/>
<text text-anchor="middle" x="1356.16" y="-230.3" font-family="Times,serif" font-size="14.00">timer_list.h</text>
</a>
</g>
</g>
<!-- 27&#45;&gt;30 -->
<g id="edge29" class="edge">
<title>27&#45;&gt;30</title>
<g id="a_edge29"><a xlink:title="include">
<path fill="none" stroke="#1414ce" d="M1081.74,-591.89C1174.54,-586.53 1336.16,-561.34 1336.16,-451 1336.16,-451 1336.16,-451 1336.16,-377 1336.16,-336.82 1344.1,-290.87 1349.98,-262.39"/>
<polygon fill="#1414ce" stroke="#1414ce" points="1353.45,-262.89 1352.11,-252.38 1346.6,-261.43 1353.45,-262.89"/>
</a>
</g>
</g>
<!-- 31 -->
<g id="node21" class="node">
<title>31</title>
<g id="a_node21"><a xlink:title="valueshashtable.h">
<polygon fill="#ffffff" stroke="black" points="1529.16,-180 1383.16,-180 1383.16,-144 1529.16,-144 1529.16,-180"/>
<text text-anchor="middle" x="1456.16" y="-158.3" font-family="Times,serif" font-size="14.00">valueshashtable.h</text>
</a>
</g>
</g>
<!-- 27&#45;&gt;31 -->
<g id="edge30" class="edge">
<title>27&#45;&gt;31</title>
<g id="a_edge30"><a xlink:title="include">
<path fill="none" stroke="#1414ce" d="M1081.8,-589.89C1144.33,-584.99 1241.4,-572.39 1319.16,-540 1382.45,-513.64 1445.16,-519.56 1445.16,-451 1445.16,-451 1445.16,-451 1445.16,-305 1445.16,-264.88 1449.58,-218.57 1452.81,-190.03"/>
<polygon fill="#1414ce" stroke="#1414ce" points="1456.3,-190.36 1453.98,-180.02 1449.35,-189.54 1456.3,-190.36"/>
</a>
</g>
</g>
<!-- 27&#45;&gt;7 -->
<g id="edge19" class="edge">
<title>27&#45;&gt;7</title>
<g id="a_edge19"><a xlink:title="include">
<path fill="none" stroke="#1414ce" d="M1081.84,-589.64C1224.47,-580.37 1557.16,-548.31 1557.16,-451 1557.16,-451 1557.16,-451 1557.16,-161 1557.16,-110.12 1530.49,-95.1 1485.16,-72 1397.57,-27.37 697.59,-20.3 509.53,-19.2"/>
<polygon fill="#1414ce" stroke="#1414ce" points="509.44,-15.7 499.42,-19.14 509.4,-22.7 509.44,-15.7"/>
</a>
</g>
</g>
<!-- 12 -->
<g id="node9" class="node">
<title>12</title>
<g id="a_node9"><a xlink:title="intn.h">
<polygon fill="#ffffff" stroke="black" points="673.66,-396 614.66,-396 614.66,-360 673.66,-360 673.66,-396"/>
<text text-anchor="middle" x="644.16" y="-374.3" font-family="Times,serif" font-size="14.00">intn.h</text>
</a>
</g>
</g>
<!-- 12&#45;&gt;13 -->
<g id="edge33" class="edge">
<title>12&#45;&gt;13</title>
<g id="a_edge33"><a xlink:title="include">
<path fill="none" stroke="#1414ce" d="M632.32,-359.78C617.15,-336.56 591.67,-293.31 582.16,-252 578.57,-236.41 576.25,-230.87 582.16,-216 586.45,-205.2 594.1,-195.32 602.14,-187.1"/>
<polygon fill="#1414ce" stroke="#1414ce" points="604.73,-189.47 609.56,-180.04 599.91,-184.4 604.73,-189.47"/>
</a>
</g>
</g>
<!-- 12&#45;&gt;4 -->
<g id="edge31" class="edge">
<title>12&#45;&gt;4</title>
<g id="a_edge31"><a xlink:title="include">
<path fill="none" stroke="#1414ce" d="M640.92,-359.88C638.26,-340.88 636.83,-309.98 650.16,-288 666.08,-261.73 684.64,-270.51 709.16,-252 727.98,-237.79 730.72,-231.89 748.16,-216 783.51,-183.78 789.57,-172.28 828.16,-144 843.32,-132.89 860.95,-122.09 876.58,-113.16"/>
<polygon fill="#1414ce" stroke="#1414ce" points="878.51,-116.09 885.51,-108.14 875.08,-109.99 878.51,-116.09"/>
</a>
</g>
</g>
<!-- 10 -->
<g id="node31" class="node">
<title>10</title>
<g id="a_node31"><a xlink:title="string.h">
<polygon fill="#ffffff" stroke="black" points="550.66,-324 477.66,-324 477.66,-288 550.66,-288 550.66,-324"/>
<text text-anchor="middle" x="514.16" y="-302.3" font-family="Times,serif" font-size="14.00">string.h</text>
</a>
</g>
</g>
<!-- 12&#45;&gt;10 -->
<g id="edge32" class="edge">
<title>12&#45;&gt;10</title>
<g id="a_edge32"><a xlink:title="include">
<path fill="none" stroke="#1414ce" d="M614.33,-360.94C596.73,-351.46 574.2,-339.33 554.97,-328.98"/>
<polygon fill="#1414ce" stroke="#1414ce" points="556.58,-325.87 546.11,-324.21 553.26,-332.03 556.58,-325.87"/>
</a>
</g>
</g>
<!-- 3&#45;&gt;4 -->
<g id="edge34" class="edge">
<title>3&#45;&gt;4</title>
<g id="a_edge34"><a xlink:title="include">
<path fill="none" stroke="#1414ce" d="M954.29,-143.7C948.65,-135.47 941.8,-125.48 935.59,-116.42"/>
<polygon fill="#1414ce" stroke="#1414ce" points="938.43,-114.37 929.88,-108.1 932.65,-118.33 938.43,-114.37"/>
</a>
</g>
</g>
<!-- 23&#45;&gt;3 -->
<g id="edge36" class="edge">
<title>23&#45;&gt;3</title>
<g id="a_edge36"><a xlink:title="include">
<path fill="none" stroke="#1414ce" d="M840.76,-215.88C867.95,-204.41 903.43,-189.45 929.7,-178.37"/>
<polygon fill="#1414ce" stroke="#1414ce" points="931.08,-181.59 938.94,-174.48 928.36,-175.14 931.08,-181.59"/>
</a>
</g>
</g>
<!-- 23&#45;&gt;18 -->
<g id="edge37" class="edge">
<title>23&#45;&gt;18</title>
<g id="a_edge37"><a xlink:title="include">
<path fill="none" stroke="#1414ce" d="M756.94,-222.74C714.74,-212.55 648.78,-196.14 592.16,-180 541.06,-165.43 529.98,-155.7 478.16,-144 372.17,-120.07 247.01,-105.15 169.86,-97.45"/>
<polygon fill="#1414ce" stroke="#1414ce" points="170.06,-93.96 159.77,-96.46 169.38,-100.92 170.06,-93.96"/>
</a>
</g>
</g>
<!-- 23&#45;&gt;13 -->
<g id="edge38" class="edge">
<title>23&#45;&gt;13</title>
<g id="a_edge38"><a xlink:title="include">
<path fill="none" stroke="#1414ce" d="M759.06,-215.88C732.76,-204.92 698.79,-190.76 672.61,-179.86"/>
<polygon fill="#1414ce" stroke="#1414ce" points="673.93,-176.61 663.35,-176 671.23,-183.07 673.93,-176.61"/>
</a>
</g>
</g>
<!-- 23&#45;&gt;4 -->
<g id="edge35" class="edge">
<title>23&#45;&gt;4</title>
<g id="a_edge35"><a xlink:title="include">
<path fill="none" stroke="#1414ce" d="M809.14,-215.94C819.41,-197.26 837.36,-166.91 857.16,-144 866.2,-133.53 877.33,-123.26 887.6,-114.59"/>
<polygon fill="#1414ce" stroke="#1414ce" points="890.1,-117.07 895.59,-108.01 885.65,-111.66 890.1,-117.07"/>
</a>
</g>
</g>
<!-- 16 -->
<g id="node12" class="node">
<title>16</title>
<g id="a_node12"><a xlink:title="memory.h">
<polygon fill="#ffffff" stroke="black" points="307.16,-252 221.16,-252 221.16,-216 307.16,-216 307.16,-252"/>
<text text-anchor="middle" x="264.16" y="-230.3" font-family="Times,serif" font-size="14.00">memory.h</text>
</a>
</g>
</g>
<!-- 16&#45;&gt;17 -->
<g id="edge41" class="edge">
<title>16&#45;&gt;17</title>
<g id="a_edge41"><a xlink:title="include">
<path fill="none" stroke="#1414ce" d="M220.83,-216.05C193.89,-205.52 159.28,-191.99 131.75,-181.22"/>
<polygon fill="#1414ce" stroke="#1414ce" points="132.92,-177.92 122.34,-177.54 130.38,-184.44 132.92,-177.92"/>
</a>
</g>
</g>
<!-- 16&#45;&gt;18 -->
<g id="edge42" class="edge">
<title>16&#45;&gt;18</title>
<g id="a_edge42"><a xlink:title="include">
<path fill="none" stroke="#1414ce" d="M244.01,-215.87C214.3,-190.6 158.61,-143.25 125,-114.68"/>
<polygon fill="#1414ce" stroke="#1414ce" points="127.26,-112 117.37,-108.19 122.72,-117.33 127.26,-112"/>
</a>
</g>
</g>
<!-- 16&#45;&gt;13 -->
<g id="edge43" class="edge">
<title>16&#45;&gt;13</title>
<g id="a_edge43"><a xlink:title="include">
<path fill="none" stroke="#1414ce" d="M307.45,-224.76C378.93,-211.17 520.66,-184.21 590.82,-170.86"/>
<polygon fill="#1414ce" stroke="#1414ce" points="591.87,-174.23 601.04,-168.92 590.57,-167.35 591.87,-174.23"/>
</a>
</g>
</g>
<!-- 16&#45;&gt;7 -->
<g id="edge39" class="edge">
<title>16&#45;&gt;7</title>
<g id="a_edge39"><a xlink:title="include">
<path fill="none" stroke="#1414ce" d="M264.89,-215.95C267.21,-183.57 276.75,-112.75 316.16,-72 342.7,-44.55 384.5,-31.26 416.75,-24.86"/>
<polygon fill="#1414ce" stroke="#1414ce" points="417.65,-28.26 426.86,-23.02 416.39,-21.37 417.65,-28.26"/>
</a>
</g>
</g>
<!-- 16&#45;&gt;9 -->
<g id="edge40" class="edge">
<title>16&#45;&gt;9</title>
<g id="a_edge40"><a xlink:title="include">
<path fill="none" stroke="#1414ce" d="M275.86,-215.87C292.75,-191.14 324.1,-145.24 343.73,-116.51"/>
<polygon fill="#1414ce" stroke="#1414ce" points="346.66,-118.42 349.41,-108.19 340.88,-114.47 346.66,-118.42"/>
</a>
</g>
</g>
<!-- 21 -->
<g id="node13" class="node">
<title>21</title>
<g id="a_node13"><a xlink:title="refc_binary.h">
<polygon fill="#ffffff" stroke="black" points="838.16,-396 730.16,-396 730.16,-360 838.16,-360 838.16,-396"/>
<text text-anchor="middle" x="784.16" y="-374.3" font-family="Times,serif" font-size="14.00">refc_binary.h</text>
</a>
</g>
</g>
<!-- 21&#45;&gt;3 -->
<g id="edge46" class="edge">
<title>21&#45;&gt;3</title>
<g id="a_edge46"><a xlink:title="include">
<path fill="none" stroke="#1414ce" d="M804.57,-359.9C816.07,-349.9 830.43,-336.75 842.16,-324 883.4,-279.13 925.45,-221.5 948.43,-188.77"/>
<polygon fill="#1414ce" stroke="#1414ce" points="951.54,-190.43 954.39,-180.22 945.8,-186.42 951.54,-190.43"/>
</a>
</g>
</g>
<!-- 22 -->
<g id="node14" class="node">
<title>22</title>
<g id="a_node14"><a xlink:title="resources.h">
<polygon fill="#ffffff" stroke="black" points="759.16,-324 659.16,-324 659.16,-288 759.16,-288 759.16,-324"/>
<text text-anchor="middle" x="709.16" y="-302.3" font-family="Times,serif" font-size="14.00">resources.h</text>
</a>
</g>
</g>
<!-- 21&#45;&gt;22 -->
<g id="edge47" class="edge">
<title>21&#45;&gt;22</title>
<g id="a_edge47"><a xlink:title="include">
<path fill="none" stroke="#1414ce" d="M765.62,-359.7C756.35,-351.05 744.99,-340.45 734.9,-331.03"/>
<polygon fill="#1414ce" stroke="#1414ce" points="737.18,-328.37 727.48,-324.1 732.4,-333.49 737.18,-328.37"/>
</a>
</g>
</g>
<!-- 21&#45;&gt;4 -->
<g id="edge44" class="edge">
<title>21&#45;&gt;4</title>
<g id="a_edge44"><a xlink:title="include">
<path fill="none" stroke="#1414ce" d="M794.22,-359.92C808.07,-336.13 833.39,-291.49 852.16,-252 874.15,-205.71 895.98,-150.07 908.2,-117.8"/>
<polygon fill="#1414ce" stroke="#1414ce" points="911.57,-118.78 911.82,-108.19 905.02,-116.31 911.57,-118.78"/>
</a>
</g>
</g>
<!-- 21&#45;&gt;9 -->
<g id="edge45" class="edge">
<title>21&#45;&gt;9</title>
<g id="a_edge45"><a xlink:title="include">
<path fill="none" stroke="#1414ce" d="M786.33,-359.69C787.8,-339.62 786.79,-306.89 768.16,-288 709.01,-228.07 656.14,-292.2 582.16,-252 523.6,-220.19 532.59,-182.44 478.16,-144 456.16,-128.47 428.88,-115.8 406.2,-106.74"/>
<polygon fill="#1414ce" stroke="#1414ce" points="407.38,-103.45 396.79,-103.09 404.85,-109.97 407.38,-103.45"/>
</a>
</g>
</g>
<!-- 22&#45;&gt;17 -->
<g id="edge49" class="edge">
<title>22&#45;&gt;17</title>
<g id="a_edge49"><a xlink:title="include">
<path fill="none" stroke="#1414ce" d="M658.83,-299.18C629.71,-295.84 592.38,-291.61 559.16,-288 405.01,-271.27 357.41,-306.23 212.16,-252 173.18,-237.45 134.98,-208.03 110.83,-187"/>
<polygon fill="#1414ce" stroke="#1414ce" points="112.99,-184.25 103.19,-180.23 108.35,-189.48 112.99,-184.25"/>
</a>
</g>
</g>
<!-- 22&#45;&gt;3 -->
<g id="edge50" class="edge">
<title>22&#45;&gt;3</title>
<g id="a_edge50"><a xlink:title="include">
<path fill="none" stroke="#1414ce" d="M759.46,-290.56C787.65,-281.45 822.91,-268.32 852.16,-252 884.96,-233.7 918.37,-206.39 940.46,-186.85"/>
<polygon fill="#1414ce" stroke="#1414ce" points="942.95,-189.31 948.06,-180.03 938.28,-184.1 942.95,-189.31"/>
</a>
</g>
</g>
<!-- 22&#45;&gt;23 -->
<g id="edge51" class="edge">
<title>22&#45;&gt;23</title>
<g id="a_edge51"><a xlink:title="include">
<path fill="none" stroke="#1414ce" d="M731.65,-287.7C743.11,-278.88 757.21,-268.03 769.64,-258.47"/>
<polygon fill="#1414ce" stroke="#1414ce" points="772.13,-260.98 777.92,-252.1 767.86,-255.43 772.13,-260.98"/>
</a>
</g>
</g>
<!-- 22&#45;&gt;16 -->
<g id="edge52" class="edge">
<title>22&#45;&gt;16</title>
<g id="a_edge52"><a xlink:title="include">
<path fill="none" stroke="#1414ce" d="M658.97,-297.11C574.33,-283.79 403.98,-256.99 317.35,-243.37"/>
<polygon fill="#1414ce" stroke="#1414ce" points="317.64,-239.87 307.21,-241.77 316.55,-246.78 317.64,-239.87"/>
</a>
</g>
</g>
<!-- 22&#45;&gt;24 -->
<g id="edge53" class="edge">
<title>22&#45;&gt;24</title>
<g id="a_edge53"><a xlink:title="include">
<path fill="none" stroke="#1414ce" d="M759.24,-294.9C824.31,-281.77 937.4,-258.96 1003.64,-245.59"/>
<polygon fill="#1414ce" stroke="#1414ce" points="1004.35,-249.02 1013.46,-243.61 1002.97,-242.16 1004.35,-249.02"/>
</a>
</g>
</g>
<!-- 22&#45;&gt;9 -->
<g id="edge48" class="edge">
<title>22&#45;&gt;9</title>
<g id="a_edge48"><a xlink:title="include">
<path fill="none" stroke="#1414ce" d="M659.03,-298.69C589.74,-287.32 465.2,-256.95 394.16,-180 378.31,-162.84 369.89,-137.39 365.54,-118.1"/>
<polygon fill="#1414ce" stroke="#1414ce" points="368.93,-117.22 363.52,-108.11 362.07,-118.6 368.93,-117.22"/>
</a>
</g>
</g>
<!-- 25&#45;&gt;4 -->
<g id="edge54" class="edge">
<title>25&#45;&gt;4</title>
<g id="a_edge54"><a xlink:title="include">
<path fill="none" stroke="#1414ce" d="M1048.87,-147.83C1025.73,-137.77 993.37,-123.7 966.64,-112.08"/>
<polygon fill="#1414ce" stroke="#1414ce" points="968.01,-108.86 957.44,-108.08 965.22,-115.28 968.01,-108.86"/>
</a>
</g>
</g>
<!-- 24&#45;&gt;3 -->
<g id="edge56" class="edge">
<title>24&#45;&gt;3</title>
<g id="a_edge56"><a xlink:title="include">
<path fill="none" stroke="#1414ce" d="M1033.91,-215.7C1022.57,-206.88 1008.63,-196.03 996.34,-186.47"/>
<polygon fill="#1414ce" stroke="#1414ce" points="998.19,-183.48 988.15,-180.1 993.89,-189.01 998.19,-183.48"/>
</a>
</g>
</g>
<!-- 24&#45;&gt;25 -->
<g id="edge57" class="edge">
<title>24&#45;&gt;25</title>
<g id="a_edge57"><a xlink:title="include">
<path fill="none" stroke="#1414ce" d="M1061.84,-215.7C1064.4,-207.9 1067.49,-198.51 1070.34,-189.83"/>
<polygon fill="#1414ce" stroke="#1414ce" points="1073.74,-190.7 1073.54,-180.1 1067.09,-188.51 1073.74,-190.7"/>
</a>
</g>
</g>
<!-- 8 -->
<g id="node29" class="node">
<title>8</title>
<g id="a_node29"><a xlink:title="stdio.h">
<polygon fill="#ffffff" stroke="black" points="664.66,-108 599.66,-108 599.66,-72 664.66,-72 664.66,-108"/>
<text text-anchor="middle" x="632.16" y="-86.3" font-family="Times,serif" font-size="14.00">stdio.h</text>
</a>
</g>
</g>
<!-- 24&#45;&gt;8 -->
<g id="edge55" class="edge">
<title>24&#45;&gt;8</title>
<g id="a_edge55"><a xlink:title="include">
<path fill="none" stroke="#1414ce" d="M1050.78,-215.71C1043.37,-195.02 1027.94,-161.04 1002.16,-144 949.14,-108.97 760.72,-96.52 675.08,-92.6"/>
<polygon fill="#1414ce" stroke="#1414ce" points="675.06,-89.1 664.92,-92.16 674.75,-96.09 675.06,-89.1"/>
</a>
</g>
</g>
<!-- 5&#45;&gt;11 -->
<g id="edge64" class="edge">
<title>5&#45;&gt;11</title>
<g id="a_edge64"><a xlink:title="include">
<path fill="none" stroke="#1414ce" d="M476.57,-445.66C445.88,-440.6 401.52,-427.88 380.16,-396 361.21,-367.73 345.39,-347.16 397.16,-216 401.06,-206.12 407.27,-196.42 413.6,-188.08"/>
<polygon fill="#1414ce" stroke="#1414ce" points="416.37,-190.22 419.89,-180.23 410.91,-185.85 416.37,-190.22"/>
</a>
</g>
</g>
<!-- 5&#45;&gt;12 -->
<g id="edge65" class="edge">
<title>5&#45;&gt;12</title>
<g id="a_edge65"><a xlink:title="include">
<path fill="none" stroke="#1414ce" d="M541.84,-432.05C561.05,-422.09 585.46,-409.44 605.61,-398.99"/>
<polygon fill="#1414ce" stroke="#1414ce" points="607.27,-402.07 614.54,-394.36 604.05,-395.85 607.27,-402.07"/>
</a>
</g>
</g>
<!-- 5&#45;&gt;16 -->
<g id="edge66" class="edge">
<title>5&#45;&gt;16</title>
<g id="a_edge66"><a xlink:title="include">
<path fill="none" stroke="#1414ce" d="M476.56,-446.29C439.93,-441.67 380.56,-429.25 342.16,-396 300.8,-360.2 279.43,-297.46 270.12,-261.79"/>
<polygon fill="#1414ce" stroke="#1414ce" points="273.51,-260.93 267.71,-252.07 266.72,-262.62 273.51,-260.93"/>
</a>
</g>
</g>
<!-- 5&#45;&gt;21 -->
<g id="edge67" class="edge">
<title>5&#45;&gt;21</title>
<g id="a_edge67"><a xlink:title="include">
<path fill="none" stroke="#1414ce" d="M541.78,-440.7C585.6,-429.54 664.41,-409.48 720.26,-395.26"/>
<polygon fill="#1414ce" stroke="#1414ce" points="721.23,-398.63 730.06,-392.77 719.5,-391.85 721.23,-398.63"/>
</a>
</g>
</g>
<!-- 5&#45;&gt;22 -->
<g id="edge68" class="edge">
<title>5&#45;&gt;22</title>
<g id="a_edge68"><a xlink:title="include">
<path fill="none" stroke="#1414ce" d="M541.84,-447.88C580.53,-444.78 644.45,-433.81 682.16,-396 698.41,-379.7 704.94,-353.94 707.53,-334.32"/>
<polygon fill="#1414ce" stroke="#1414ce" points="711.03,-334.47 708.6,-324.16 704.07,-333.73 711.03,-334.47"/>
</a>
</g>
</g>
<!-- 5&#45;&gt;18 -->
<g id="edge70" class="edge">
<title>5&#45;&gt;18</title>
<g id="a_edge70"><a xlink:title="include">
<path fill="none" stroke="#1414ce" d="M476.45,-449.18C418.96,-448.25 297.33,-440.63 207.16,-396 98.16,-342.05 72.68,-296.91 39.16,-180 34.75,-164.62 32.7,-158.64 39.16,-144 44.14,-132.69 52.87,-122.74 62.06,-114.62"/>
<polygon fill="#1414ce" stroke="#1414ce" points="64.32,-117.28 69.82,-108.23 59.87,-111.88 64.32,-117.28"/>
</a>
</g>
</g>
<!-- 5&#45;&gt;13 -->
<g id="edge69" class="edge">
<title>5&#45;&gt;13</title>
<g id="a_edge69"><a xlink:title="include">
<path fill="none" stroke="#1414ce" d="M535.74,-431.91C547.39,-422.81 559.84,-410.49 566.16,-396 572.55,-381.33 575.31,-373.12 566.16,-360 539.6,-321.95 494.71,-362.05 468.16,-324 459,-310.88 461.06,-302.34 468.16,-288 493.75,-236.32 552.07,-200.19 591.79,-180.49"/>
<polygon fill="#1414ce" stroke="#1414ce" points="593.47,-183.57 600.96,-176.08 590.44,-177.26 593.47,-183.57"/>
</a>
</g>
</g>
<!-- 5&#45;&gt;4 -->
<g id="edge59" class="edge">
<title>5&#45;&gt;4</title>
<g id="a_edge59"><a xlink:title="include">
<path fill="none" stroke="#1414ce" d="M541.74,-447.66C603.1,-444.33 739.29,-433.03 847.16,-396 972.1,-353.11 1031.67,-360.4 1107.16,-252 1134.73,-212.41 1147.58,-182.24 1118.16,-144 1100.15,-120.6 1022.78,-105.4 969.73,-97.51"/>
<polygon fill="#1414ce" stroke="#1414ce" points="970.19,-94.04 959.8,-96.08 969.19,-100.97 970.19,-94.04"/>
</a>
</g>
</g>
<!-- 5&#45;&gt;7 -->
<g id="edge60" class="edge">
<title>5&#45;&gt;7</title>
<g id="a_edge60"><a xlink:title="include">
<path fill="none" stroke="#1414ce" d="M476.47,-445.33C417.44,-438.16 296.03,-420.82 262.16,-396 206.63,-355.32 212.67,-320.42 205.16,-252 195.54,-164.43 214.32,-120.06 288.16,-72 327.55,-46.36 379.93,-32.65 417.08,-25.64"/>
<polygon fill="#1414ce" stroke="#1414ce" points="417.91,-29.05 427.13,-23.84 416.67,-22.16 417.91,-29.05"/>
</a>
</g>
</g>
<!-- 5&#45;&gt;8 -->
<g id="edge61" class="edge">
<title>5&#45;&gt;8</title>
<g id="a_edge61"><a xlink:title="include">
<path fill="none" stroke="#1414ce" d="M477.1,-431.88C464.04,-423.05 450.34,-410.97 443.16,-396 431.32,-371.32 457.25,-290.76 458.16,-288 469.15,-254.56 470.2,-244.28 491.16,-216 521.68,-174.79 567.7,-137.18 598.78,-114.21"/>
<polygon fill="#1414ce" stroke="#1414ce" points="601.11,-116.85 607.13,-108.13 596.98,-111.19 601.11,-116.85"/>
</a>
</g>
</g>
<!-- 5&#45;&gt;9 -->
<g id="edge62" class="edge">
<title>5&#45;&gt;9</title>
<g id="a_edge62"><a xlink:title="include">
<path fill="none" stroke="#1414ce" d="M476.42,-447.33C434.17,-443.7 360.08,-432.24 309.16,-396 246.29,-351.26 234.69,-325.8 212.16,-252 193.15,-189.76 265.89,-138.88 316.37,-111.93"/>
<polygon fill="#1414ce" stroke="#1414ce" points="318.26,-114.89 325.51,-107.17 315.03,-108.68 318.26,-114.89"/>
</a>
</g>
</g>
<!-- 5&#45;&gt;10 -->
<g id="edge63" class="edge">
<title>5&#45;&gt;10</title>
<g id="a_edge63"><a xlink:title="include">
<path fill="none" stroke="#1414ce" d="M481.82,-431.77C470.05,-422.72 457.54,-410.48 451.16,-396 444.7,-381.36 444.4,-374.51 451.16,-360 456.58,-348.34 465.97,-338.34 475.87,-330.26"/>
<polygon fill="#1414ce" stroke="#1414ce" points="478.01,-333.03 483.86,-324.2 473.78,-327.45 478.01,-333.03"/>
</a>
</g>
</g>
<!-- 6 -->
<g id="node32" class="node">
<title>6</title>
<g id="a_node32"><a xlink:title="sys/types.h">
<polygon fill="#ffffff" stroke="black" points="557.66,-396 460.66,-396 460.66,-360 557.66,-360 557.66,-396"/>
<text text-anchor="middle" x="509.16" y="-374.3" font-family="Times,serif" font-size="14.00">sys/types.h</text>
</a>
</g>
</g>
<!-- 5&#45;&gt;6 -->
<g id="edge58" class="edge">
<title>5&#45;&gt;6</title>
<g id="a_edge58"><a xlink:title="include">
<path fill="none" stroke="#1414ce" d="M509.16,-431.7C509.16,-423.98 509.16,-414.71 509.16,-406.11"/>
<polygon fill="#1414ce" stroke="#1414ce" points="512.66,-406.1 509.16,-396.1 505.66,-406.1 512.66,-406.1"/>
</a>
</g>
</g>
<!-- 19 -->
<g id="node22" class="node">
<title>19</title>
<g id="a_node22"><a xlink:title="assert.h">
<polygon fill="#ffffff" stroke="black" points="180.16,-36 106.16,-36 106.16,0 180.16,0 180.16,-36"/>
<text text-anchor="middle" x="143.16" y="-14.3" font-family="Times,serif" font-size="14.00">assert.h</text>
</a>
</g>
</g>
<!-- 18&#45;&gt;19 -->
<g id="edge71" class="edge">
<title>18&#45;&gt;19</title>
<g id="a_edge71"><a xlink:title="include">
<path fill="none" stroke="#1414ce" d="M108.53,-71.7C113.87,-63.56 120.36,-53.69 126.27,-44.7"/>
<polygon fill="#1414ce" stroke="#1414ce" points="129.35,-46.38 131.92,-36.1 123.5,-42.54 129.35,-46.38"/>
</a>
</g>
</g>
<!-- 14 -->
<g id="node24" class="node">
<title>14</title>
<g id="a_node24"><a xlink:title="inttypes.h">
<polygon fill="#ffffff" stroke="black" points="354.66,-36 265.66,-36 265.66,0 354.66,0 354.66,-36"/>
<text text-anchor="middle" x="310.16" y="-14.3" font-family="Times,serif" font-size="14.00">inttypes.h</text>
</a>
</g>
</g>
<!-- 18&#45;&gt;14 -->
<g id="edge73" class="edge">
<title>18&#45;&gt;14</title>
<g id="a_edge73"><a xlink:title="include">
<path fill="none" stroke="#1414ce" d="M148.99,-71.97C181.24,-61.37 222.67,-47.75 255.45,-36.98"/>
<polygon fill="#1414ce" stroke="#1414ce" points="256.91,-40.18 265.32,-33.73 254.73,-33.53 256.91,-40.18"/>
</a>
</g>
</g>
<!-- 20 -->
<g id="node25" class="node">
<title>20</title>
<g id="a_node25"><a xlink:title="limits.h">
<polygon fill="#ffffff" stroke="black" points="87.66,-36 16.66,-36 16.66,0 87.66,0 87.66,-36"/>
<text text-anchor="middle" x="52.16" y="-14.3" font-family="Times,serif" font-size="14.00">limits.h</text>
</a>
</g>
</g>
<!-- 18&#45;&gt;20 -->
<g id="edge72" class="edge">
<title>18&#45;&gt;20</title>
<g id="a_edge72"><a xlink:title="include">
<path fill="none" stroke="#1414ce" d="M86.03,-71.7C80.8,-63.56 74.46,-53.69 68.68,-44.7"/>
<polygon fill="#1414ce" stroke="#1414ce" points="71.5,-42.62 63.15,-36.1 65.62,-46.41 71.5,-42.62"/>
</a>
</g>
</g>
<!-- 18&#45;&gt;7 -->
<g id="edge74" class="edge">
<title>18&#45;&gt;7</title>
<g id="a_edge74"><a xlink:title="include">
<path fill="none" stroke="#1414ce" d="M159.73,-74.99C164.61,-73.96 169.46,-72.95 174.16,-72 259.59,-54.74 359.72,-36.91 416.87,-26.96"/>
<polygon fill="#1414ce" stroke="#1414ce" points="417.78,-30.36 427.03,-25.2 416.58,-23.46 417.78,-30.36"/>
</a>
</g>
</g>
<!-- 30&#45;&gt;3 -->
<g id="edge77" class="edge">
<title>30&#45;&gt;3</title>
<g id="a_edge77"><a xlink:title="include">
<path fill="none" stroke="#1414ce" d="M1307,-225.69C1244.71,-216.2 1134.14,-198.66 1040.16,-180 1028.16,-177.62 1015.13,-174.73 1003.4,-172.01"/>
<polygon fill="#1414ce" stroke="#1414ce" points="1004.02,-168.56 993.48,-169.69 1002.42,-175.38 1004.02,-168.56"/>
</a>
</g>
</g>
<!-- 30&#45;&gt;4 -->
<g id="edge75" class="edge">
<title>30&#45;&gt;4</title>
<g id="a_edge75"><a xlink:title="include">
<path fill="none" stroke="#1414ce" d="M1349.07,-215.65C1339.62,-194.9 1320.79,-160.85 1293.16,-144 1239.97,-111.56 1060.05,-98.11 970.16,-93.31"/>
<polygon fill="#1414ce" stroke="#1414ce" points="970.09,-89.8 959.92,-92.77 969.72,-96.79 970.09,-89.8"/>
</a>
</g>
</g>
<!-- 30&#45;&gt;7 -->
<g id="edge76" class="edge">
<title>30&#45;&gt;7</title>
<g id="a_edge76"><a xlink:title="include">
<path fill="none" stroke="#1414ce" d="M1355.11,-215.81C1352.91,-195.53 1346.12,-162.28 1325.16,-144 1201.8,-36.4 670.59,-21.39 509.59,-19.32"/>
<polygon fill="#1414ce" stroke="#1414ce" points="509.57,-15.82 499.53,-19.21 509.48,-22.82 509.57,-15.82"/>
</a>
</g>
</g>
<!-- 13&#45;&gt;14 -->
<g id="edge78" class="edge">
<title>13&#45;&gt;14</title>
<g id="a_edge78"><a xlink:title="include">
<path fill="none" stroke="#1414ce" d="M600.99,-147.26C544.58,-122.38 425.19,-69.73 358.25,-40.21"/>
<polygon fill="#1414ce" stroke="#1414ce" points="359.33,-36.86 348.77,-36.03 356.51,-43.27 359.33,-36.86"/>
</a>
</g>
</g>
<!-- 13&#45;&gt;4 -->
<g id="edge79" class="edge">
<title>13&#45;&gt;4</title>
<g id="a_edge79"><a xlink:title="include">
<path fill="none" stroke="#1414ce" d="M663.43,-148.52C668,-146.89 672.67,-145.33 677.16,-144 741.37,-124.92 817.06,-109.37 866.25,-100.16"/>
<polygon fill="#1414ce" stroke="#1414ce" points="867.13,-103.56 876.33,-98.29 865.85,-96.68 867.13,-103.56"/>
</a>
</g>
</g>
<!-- 15 -->
<g id="node27" class="node">
<title>15</title>
<g id="a_node27"><a xlink:title="stddef.h">
<polygon fill="#ffffff" stroke="black" points="1457.16,-108 1383.16,-108 1383.16,-72 1457.16,-72 1457.16,-108"/>
<text text-anchor="middle" x="1420.16" y="-86.3" font-family="Times,serif" font-size="14.00">stddef.h</text>
</a>
</g>
</g>
<!-- 13&#45;&gt;15 -->
<g id="edge80" class="edge">
<title>13&#45;&gt;15</title>
<g id="a_edge80"><a xlink:title="include">
<path fill="none" stroke="#1414ce" d="M663.53,-158.21C785.27,-147.4 1226.82,-108.17 1372.88,-95.2"/>
<polygon fill="#1414ce" stroke="#1414ce" points="1373.23,-98.68 1382.88,-94.31 1372.61,-91.71 1373.23,-98.68"/>
</a>
</g>
</g>
<!-- 13&#45;&gt;8 -->
<g id="edge81" class="edge">
<title>13&#45;&gt;8</title>
<g id="a_edge81"><a xlink:title="include">
<path fill="none" stroke="#1414ce" d="M632.16,-143.7C632.16,-135.98 632.16,-126.71 632.16,-118.11"/>
<polygon fill="#1414ce" stroke="#1414ce" points="635.66,-118.1 632.16,-108.1 628.66,-118.1 635.66,-118.1"/>
</a>
</g>
</g>
<!-- 13&#45;&gt;9 -->
<g id="edge82" class="edge">
<title>13&#45;&gt;9</title>
<g id="a_edge82"><a xlink:title="include">
<path fill="none" stroke="#1414ce" d="M600.81,-154.44C557.76,-145.21 478.05,-127.35 411.16,-108 409.7,-107.58 408.22,-107.14 406.73,-106.69"/>
<polygon fill="#1414ce" stroke="#1414ce" points="407.4,-103.23 396.81,-103.57 405.3,-109.91 407.4,-103.23"/>
</a>
</g>
</g>
<!-- 31&#45;&gt;15 -->
<g id="edge83" class="edge">
<title>31&#45;&gt;15</title>
<g id="a_edge83"><a xlink:title="include">
<path fill="none" stroke="#1414ce" d="M1447.26,-143.7C1443.16,-135.73 1438.21,-126.1 1433.66,-117.26"/>
<polygon fill="#1414ce" stroke="#1414ce" points="1436.64,-115.4 1428.95,-108.1 1430.41,-118.6 1436.64,-115.4"/>
</a>
</g>
</g>
<!-- 31&#45;&gt;7 -->
<g id="edge84" class="edge">
<title>31&#45;&gt;7</title>
<g id="a_edge84"><a xlink:title="include">
<path fill="none" stroke="#1414ce" d="M1465.1,-143.76C1474.09,-123.74 1484.24,-91.06 1466.16,-72 1432.83,-36.87 701.97,-22.8 509.35,-19.69"/>
<polygon fill="#1414ce" stroke="#1414ce" points="509.32,-16.19 499.27,-19.53 509.21,-23.19 509.32,-16.19"/>
</a>
</g>
</g>
</g>
</svg>
