<?xml version="1.0" encoding="UTF-8" standalone="no"?>
<!DOCTYPE svg PUBLIC "-//W3C//DTD SVG 1.1//EN"
 "http://www.w3.org/Graphics/SVG/1.1/DTD/svg11.dtd">
<!-- Generated by graphviz version 2.43.0 (0)
 -->
<!-- Title: %3 Pages: 1 -->
<svg width="1523pt" height="116pt"
 viewBox="0.00 0.00 1522.50 116.00" xmlns="http://www.w3.org/2000/svg" xmlns:xlink="http://www.w3.org/1999/xlink">
<g id="graph0" class="graph" transform="scale(1 1) rotate(0) translate(4 112)">
<title>%3</title>
<polygon fill="transparent" stroke="transparent" points="-4,4 -4,-112 1518.5,-112 1518.5,4 -4,4"/>
<!-- 2 -->
<g id="node1" class="node">
<title>2</title>
<g id="a_node1"><a xlink:title="/__w/AtomVM/AtomVM/src/libAtomVM/dist_nifs.c">
<polygon fill="#ffffff" stroke="black" points="365,-36 0,-36 0,0 365,0 365,-36"/>
<text text-anchor="middle" x="182.5" y="-14.3" font-family="Times,serif" font-size="14.00">/__w/AtomVM/AtomVM/src/libAtomVM/dist_nifs.c</text>
</a>
</g>
</g>
<!-- 3 -->
<g id="node2" class="node">
<title>3</title>
<g id="a_node2"><a xlink:title="/__w/AtomVM/AtomVM/src/libAtomVM/external_term.c">
<polygon fill="#ffffff" stroke="black" points="788.5,-36 382.5,-36 382.5,0 788.5,0 788.5,-36"/>
<text text-anchor="middle" x="585.5" y="-14.3" font-family="Times,serif" font-size="14.00">/__w/AtomVM/AtomVM/src/libAtomVM/external_term.c</text>
</a>
</g>
</g>
<!-- 1 -->
<g id="node3" class="node">
<title>1</title>
<g id="a_node3"><a xlink:title="/__w/AtomVM/AtomVM/src/libAtomVM/external_term.h">
<polygon fill="#bfbfbf" stroke="black" points="989,-108 582,-108 582,-72 989,-72 989,-108"/>
<text text-anchor="middle" x="785.5" y="-86.3" font-family="Times,serif" font-size="14.00">/__w/AtomVM/AtomVM/src/libAtomVM/external_term.h</text>
</a>
</g>
</g>
<!-- 1&#45;&gt;2 -->
<g id="edge1" class="edge">
<title>1&#45;&gt;2</title>
<g id="a_edge1"><a xlink:title="include">
<path fill="none" stroke="#1414ce" d="M628.74,-70.8C536.21,-60.06 419.82,-46.55 329.11,-36.02"/>
<polygon fill="#1414ce" stroke="#1414ce" points="628.42,-74.29 638.76,-71.97 629.23,-67.34 628.42,-74.29"/>
</a>
</g>
</g>
<!-- 1&#45;&gt;3 -->
<g id="edge2" class="edge">
<title>1&#45;&gt;3</title>
<g id="a_edge2"><a xlink:title="include">
<path fill="none" stroke="#1414ce" d="M727.09,-68.56C697.66,-58.25 662.37,-45.9 634.39,-36.11"/>
<polygon fill="#1414ce" stroke="#1414ce" points="726.24,-71.97 736.83,-71.97 728.55,-65.36 726.24,-71.97"/>
</a>
</g>
</g>
<!-- 4 -->
<g id="node4" class="node">
<title>4</title>
<g id="a_node4"><a xlink:title="/__w/AtomVM/AtomVM/src/libAtomVM/module.c">
<polygon fill="#ffffff" stroke="black" points="1164.5,-36 806.5,-36 806.5,0 1164.5,0 1164.5,-36"/>
<text text-anchor="middle" x="985.5" y="-14.3" font-family="Times,serif" font-size="14.00">/__w/AtomVM/AtomVM/src/libAtomVM/module.c</text>
</a>
</g>
</g>
<!-- 1&#45;&gt;4 -->
<g id="edge3" class="edge">
<title>1&#45;&gt;4</title>
<g id="a_edge3"><a xlink:title="include">
<path fill="none" stroke="#1414ce" d="M843.91,-68.56C873.34,-58.25 908.63,-45.9 936.61,-36.11"/>
<polygon fill="#1414ce" stroke="#1414ce" points="842.45,-65.36 834.17,-71.97 844.76,-71.97 842.45,-65.36"/>
</a>
</g>
</g>
<!-- 5 -->
<g id="node5" class="node">
<title>5</title>
<g id="a_node5"><a xlink:title="/__w/AtomVM/AtomVM/src/libAtomVM/nifs.c">
<polygon fill="#ffffff" stroke="black" points="1514.5,-36 1182.5,-36 1182.5,0 1514.5,0 1514.5,-36"/>
<text text-anchor="middle" x="1348.5" y="-14.3" font-family="Times,serif" font-size="14.00">/__w/AtomVM/AtomVM/src/libAtomVM/nifs.c</text>
</a>
</g>
</g>
<!-- 1&#45;&gt;5 -->
<g id="edge4" class="edge">
<title>1&#45;&gt;5</title>
<g id="a_edge4"><a xlink:title="include">
<path fill="none" stroke="#1414ce" d="M932.64,-70.71C1018.82,-59.99 1126.97,-46.54 1211.37,-36.05"/>
<polygon fill="#1414ce" stroke="#1414ce" points="932,-67.26 922.51,-71.97 932.86,-74.2 932,-67.26"/>
</a>
</g>
</g>
</g>
</svg>
