<?xml version="1.0" encoding="UTF-8" standalone="no"?>
<!DOCTYPE svg PUBLIC "-//W3C//DTD SVG 1.1//EN"
 "http://www.w3.org/Graphics/SVG/1.1/DTD/svg11.dtd">
<!-- Generated by graphviz version 2.43.0 (0)
 -->
<!-- Title: %3 Pages: 1 -->
<svg width="977pt" height="548pt"
 viewBox="0.00 0.00 977.30 548.00" xmlns="http://www.w3.org/2000/svg" xmlns:xlink="http://www.w3.org/1999/xlink">
<g id="graph0" class="graph" transform="scale(1 1) rotate(0) translate(4 544)">
<title>%3</title>
<polygon fill="transparent" stroke="transparent" points="-4,4 -4,-544 973.3,-544 973.3,4 -4,4"/>
<!-- 9 -->
<g id="node1" class="node">
<title>9</title>
<g id="a_node1"><a xlink:title="atom.h">
<polygon fill="#ffffff" stroke="black" points="938.5,-396 872.5,-396 872.5,-360 938.5,-360 938.5,-396"/>
<text text-anchor="middle" x="905.5" y="-374.3" font-family="Times,serif" font-size="14.00">atom.h</text>
</a>
</g>
</g>
<!-- 5 -->
<g id="node20" class="node">
<title>5</title>
<g id="a_node20"><a xlink:title="stdint.h">
<polygon fill="#ffffff" stroke="black" points="710.5,-36 638.5,-36 638.5,0 710.5,0 710.5,-36"/>
<text text-anchor="middle" x="674.5" y="-14.3" font-family="Times,serif" font-size="14.00">stdint.h</text>
</a>
</g>
</g>
<!-- 9&#45;&gt;5 -->
<g id="edge1" class="edge">
<title>9&#45;&gt;5</title>
<g id="a_edge1"><a xlink:title="include">
<path fill="none" stroke="#1414ce" d="M909.34,-359.61C914.9,-332.94 924.5,-280.27 924.5,-235 924.5,-235 924.5,-235 924.5,-161 924.5,-68.35 793.06,-35.4 720.8,-24.29"/>
<polygon fill="#1414ce" stroke="#1414ce" points="720.98,-20.78 710.59,-22.8 719.98,-27.71 720.98,-20.78"/>
</a>
</g>
</g>
<!-- 7 -->
<g id="node22" class="node">
<title>7</title>
<g id="a_node22"><a xlink:title="stdlib.h">
<polygon fill="#ffffff" stroke="black" points="827,-108 756,-108 756,-72 827,-72 827,-108"/>
<text text-anchor="middle" x="791.5" y="-86.3" font-family="Times,serif" font-size="14.00">stdlib.h</text>
</a>
</g>
</g>
<!-- 9&#45;&gt;7 -->
<g id="edge2" class="edge">
<title>9&#45;&gt;7</title>
<g id="a_edge2"><a xlink:title="include">
<path fill="none" stroke="#1414ce" d="M906.41,-359.99C907.78,-319.36 906.47,-214.75 862.5,-144 855.12,-132.13 844.04,-122.01 832.81,-113.9"/>
<polygon fill="#1414ce" stroke="#1414ce" points="834.5,-110.81 824.26,-108.08 830.56,-116.6 834.5,-110.81"/>
</a>
</g>
</g>
<!-- 15 -->
<g id="node2" class="node">
<title>15</title>
<g id="a_node2"><a xlink:title="erl_nif.h">
<polygon fill="#ffffff" stroke="black" points="172.5,-180 98.5,-180 98.5,-144 172.5,-144 172.5,-180"/>
<text text-anchor="middle" x="135.5" y="-158.3" font-family="Times,serif" font-size="14.00">erl_nif.h</text>
</a>
</g>
</g>
<!-- 16 -->
<g id="node13" class="node">
<title>16</title>
<g id="a_node13"><a xlink:title="term_typedef.h">
<polygon fill="#ffffff" stroke="black" points="210,-108 85,-108 85,-72 210,-72 210,-108"/>
<text text-anchor="middle" x="147.5" y="-86.3" font-family="Times,serif" font-size="14.00">term_typedef.h</text>
</a>
</g>
</g>
<!-- 15&#45;&gt;16 -->
<g id="edge3" class="edge">
<title>15&#45;&gt;16</title>
<g id="a_edge3"><a xlink:title="include">
<path fill="none" stroke="#1414ce" d="M138.47,-143.7C139.79,-135.98 141.38,-126.71 142.85,-118.11"/>
<polygon fill="#1414ce" stroke="#1414ce" points="146.33,-118.55 144.57,-108.1 139.43,-117.37 146.33,-118.55"/>
</a>
</g>
</g>
<!-- 1 -->
<g id="node3" class="node">
<title>1</title>
<g id="a_node3"><a xlink:title="/__w/AtomVM/AtomVM/src/libAtomVM/external_term.h">
<polygon fill="#bfbfbf" stroke="black" points="407,-540 0,-540 0,-504 407,-504 407,-540"/>
<text text-anchor="middle" x="203.5" y="-518.3" font-family="Times,serif" font-size="14.00">/__w/AtomVM/AtomVM/src/libAtomVM/external_term.h</text>
</a>
</g>
</g>
<!-- 2 -->
<g id="node12" class="node">
<title>2</title>
<g id="a_node12"><a xlink:title="term.h">
<polygon fill="#ffffff" stroke="black" points="426,-468 361,-468 361,-432 426,-432 426,-468"/>
<text text-anchor="middle" x="393.5" y="-446.3" font-family="Times,serif" font-size="14.00">term.h</text>
</a>
</g>
</g>
<!-- 1&#45;&gt;2 -->
<g id="edge4" class="edge">
<title>1&#45;&gt;2</title>
<g id="a_edge4"><a xlink:title="include">
<path fill="none" stroke="#1414ce" d="M249.98,-503.88C280.87,-492.49 321.13,-477.66 351.14,-466.61"/>
<polygon fill="#1414ce" stroke="#1414ce" points="352.72,-469.75 360.89,-463.01 350.3,-463.19 352.72,-469.75"/>
</a>
</g>
</g>
<!-- 11 -->
<g id="node14" class="node">
<title>11</title>
<g id="a_node14"><a xlink:title="utils.h">
<polygon fill="#ffffff" stroke="black" points="366.5,-180 304.5,-180 304.5,-144 366.5,-144 366.5,-180"/>
<text text-anchor="middle" x="335.5" y="-158.3" font-family="Times,serif" font-size="14.00">utils.h</text>
</a>
</g>
</g>
<!-- 1&#45;&gt;11 -->
<g id="edge5" class="edge">
<title>1&#45;&gt;11</title>
<g id="a_edge5"><a xlink:title="include">
<path fill="none" stroke="#1414ce" d="M196.51,-503.91C181.16,-463.54 148.85,-360.21 187.5,-288 201.11,-262.57 218.95,-269.98 241.5,-252 266.72,-231.9 293.2,-206.37 311.61,-187.81"/>
<polygon fill="#1414ce" stroke="#1414ce" points="314.45,-189.9 318.97,-180.32 309.46,-184.99 314.45,-189.9"/>
</a>
</g>
</g>
<!-- 10 -->
<g id="node4" class="node">
<title>10</title>
<g id="a_node4"><a xlink:title="intn.h">
<polygon fill="#ffffff" stroke="black" points="337,-396 278,-396 278,-360 337,-360 337,-396"/>
<text text-anchor="middle" x="307.5" y="-374.3" font-family="Times,serif" font-size="14.00">intn.h</text>
</a>
</g>
</g>
<!-- 10&#45;&gt;11 -->
<g id="edge8" class="edge">
<title>10&#45;&gt;11</title>
<g id="a_edge8"><a xlink:title="include">
<path fill="none" stroke="#1414ce" d="M308.26,-359.97C309.76,-330.48 313.74,-268.04 322.5,-216 323.94,-207.46 326.01,-198.26 328.07,-189.96"/>
<polygon fill="#1414ce" stroke="#1414ce" points="331.52,-190.61 330.64,-180.05 324.74,-188.86 331.52,-190.61"/>
</a>
</g>
</g>
<!-- 4 -->
<g id="node18" class="node">
<title>4</title>
<g id="a_node18"><a xlink:title="stdbool.h">
<polygon fill="#ffffff" stroke="black" points="608,-108 525,-108 525,-72 608,-72 608,-108"/>
<text text-anchor="middle" x="566.5" y="-86.3" font-family="Times,serif" font-size="14.00">stdbool.h</text>
</a>
</g>
</g>
<!-- 10&#45;&gt;4 -->
<g id="edge6" class="edge">
<title>10&#45;&gt;4</title>
<g id="a_edge6"><a xlink:title="include">
<path fill="none" stroke="#1414ce" d="M313.93,-359.57C326.04,-328.35 354.53,-261.9 393.5,-216 430.91,-171.93 486.96,-135.16 525.05,-113.15"/>
<polygon fill="#1414ce" stroke="#1414ce" points="526.89,-116.13 533.85,-108.14 523.42,-110.05 526.89,-116.13"/>
</a>
</g>
</g>
<!-- 8 -->
<g id="node23" class="node">
<title>8</title>
<g id="a_node23"><a xlink:title="string.h">
<polygon fill="#ffffff" stroke="black" points="270,-324 197,-324 197,-288 270,-288 270,-324"/>
<text text-anchor="middle" x="233.5" y="-302.3" font-family="Times,serif" font-size="14.00">string.h</text>
</a>
</g>
</g>
<!-- 10&#45;&gt;8 -->
<g id="edge7" class="edge">
<title>10&#45;&gt;8</title>
<g id="a_edge7"><a xlink:title="include">
<path fill="none" stroke="#1414ce" d="M289.21,-359.7C280.07,-351.05 268.86,-340.45 258.9,-331.03"/>
<polygon fill="#1414ce" stroke="#1414ce" points="261.25,-328.43 251.58,-324.1 256.44,-333.52 261.25,-328.43"/>
</a>
</g>
</g>
<!-- 20 -->
<g id="node5" class="node">
<title>20</title>
<g id="a_node5"><a xlink:title="list.h">
<polygon fill="#ffffff" stroke="black" points="668.5,-180 614.5,-180 614.5,-144 668.5,-144 668.5,-180"/>
<text text-anchor="middle" x="641.5" y="-158.3" font-family="Times,serif" font-size="14.00">list.h</text>
</a>
</g>
</g>
<!-- 20&#45;&gt;4 -->
<g id="edge9" class="edge">
<title>20&#45;&gt;4</title>
<g id="a_edge9"><a xlink:title="include">
<path fill="none" stroke="#1414ce" d="M622.96,-143.7C613.7,-135.05 602.34,-124.45 592.24,-115.03"/>
<polygon fill="#1414ce" stroke="#1414ce" points="594.52,-112.37 584.83,-108.1 589.75,-117.49 594.52,-112.37"/>
</a>
</g>
</g>
<!-- 22 -->
<g id="node6" class="node">
<title>22</title>
<g id="a_node6"><a xlink:title="mailbox.h">
<polygon fill="#ffffff" stroke="black" points="488.5,-252 402.5,-252 402.5,-216 488.5,-216 488.5,-252"/>
<text text-anchor="middle" x="445.5" y="-230.3" font-family="Times,serif" font-size="14.00">mailbox.h</text>
</a>
</g>
</g>
<!-- 22&#45;&gt;20 -->
<g id="edge11" class="edge">
<title>22&#45;&gt;20</title>
<g id="a_edge11"><a xlink:title="include">
<path fill="none" stroke="#1414ce" d="M488.72,-218.98C526.6,-206.65 578.67,-189.59 604.52,-180.05"/>
<polygon fill="#1414ce" stroke="#1414ce" points="606.06,-183.2 614.13,-176.34 603.54,-176.67 606.06,-183.2"/>
</a>
</g>
</g>
<!-- 22&#45;&gt;16 -->
<g id="edge12" class="edge">
<title>22&#45;&gt;16</title>
<g id="a_edge12"><a xlink:title="include">
<path fill="none" stroke="#1414ce" d="M402.23,-220.27C371.76,-210.69 330.35,-196.43 295.5,-180 254.46,-160.65 210.21,-133.07 180.9,-113.76"/>
<polygon fill="#1414ce" stroke="#1414ce" points="182.57,-110.67 172.3,-108.05 178.7,-116.5 182.57,-110.67"/>
</a>
</g>
</g>
<!-- 22&#45;&gt;11 -->
<g id="edge13" class="edge">
<title>22&#45;&gt;11</title>
<g id="a_edge13"><a xlink:title="include">
<path fill="none" stroke="#1414ce" d="M418.59,-215.88C404.34,-206.81 386.65,-195.55 371.26,-185.76"/>
<polygon fill="#1414ce" stroke="#1414ce" points="372.83,-182.61 362.51,-180.19 369.07,-188.51 372.83,-182.61"/>
</a>
</g>
</g>
<!-- 22&#45;&gt;4 -->
<g id="edge10" class="edge">
<title>22&#45;&gt;4</title>
<g id="a_edge10"><a xlink:title="include">
<path fill="none" stroke="#1414ce" d="M460.1,-215.87C481.26,-191.03 520.62,-144.85 545.08,-116.14"/>
<polygon fill="#1414ce" stroke="#1414ce" points="548.03,-118.07 551.85,-108.19 542.7,-113.53 548.03,-118.07"/>
</a>
</g>
</g>
<!-- 14 -->
<g id="node7" class="node">
<title>14</title>
<g id="a_node7"><a xlink:title="memory.h">
<polygon fill="#ffffff" stroke="black" points="232.5,-252 146.5,-252 146.5,-216 232.5,-216 232.5,-252"/>
<text text-anchor="middle" x="189.5" y="-230.3" font-family="Times,serif" font-size="14.00">memory.h</text>
</a>
</g>
</g>
<!-- 14&#45;&gt;15 -->
<g id="edge16" class="edge">
<title>14&#45;&gt;15</title>
<g id="a_edge16"><a xlink:title="include">
<path fill="none" stroke="#1414ce" d="M176.15,-215.7C169.74,-207.39 161.94,-197.28 154.89,-188.14"/>
<polygon fill="#1414ce" stroke="#1414ce" points="157.57,-185.88 148.69,-180.1 152.03,-190.16 157.57,-185.88"/>
</a>
</g>
</g>
<!-- 14&#45;&gt;16 -->
<g id="edge17" class="edge">
<title>14&#45;&gt;16</title>
<g id="a_edge17"><a xlink:title="include">
<path fill="none" stroke="#1414ce" d="M190.34,-215.77C190.7,-197.46 189.69,-167.92 181.5,-144 178.19,-134.33 172.76,-124.65 167.2,-116.26"/>
<polygon fill="#1414ce" stroke="#1414ce" points="170.05,-114.23 161.45,-108.04 164.31,-118.24 170.05,-114.23"/>
</a>
</g>
</g>
<!-- 14&#45;&gt;11 -->
<g id="edge18" class="edge">
<title>14&#45;&gt;11</title>
<g id="a_edge18"><a xlink:title="include">
<path fill="none" stroke="#1414ce" d="M225.22,-215.88C246.34,-205.75 273.16,-192.89 295.06,-182.39"/>
<polygon fill="#1414ce" stroke="#1414ce" points="296.62,-185.52 304.12,-178.05 293.59,-179.21 296.62,-185.52"/>
</a>
</g>
</g>
<!-- 14&#45;&gt;5 -->
<g id="edge14" class="edge">
<title>14&#45;&gt;5</title>
<g id="a_edge14"><a xlink:title="include">
<path fill="none" stroke="#1414ce" d="M194.37,-215.89C205.42,-178.29 233.32,-90.33 257.5,-72 286.63,-49.91 525.62,-29.93 628.11,-22.29"/>
<polygon fill="#1414ce" stroke="#1414ce" points="628.46,-25.78 638.17,-21.55 627.94,-18.79 628.46,-25.78"/>
</a>
</g>
</g>
<!-- 14&#45;&gt;7 -->
<g id="edge15" class="edge">
<title>14&#45;&gt;7</title>
<g id="a_edge15"><a xlink:title="include">
<path fill="none" stroke="#1414ce" d="M232.51,-220.8C296.53,-202.83 420.8,-168.74 527.5,-144 603.71,-126.33 693.09,-109.12 745.86,-99.31"/>
<polygon fill="#1414ce" stroke="#1414ce" points="746.72,-102.71 755.91,-97.45 745.44,-95.83 746.72,-102.71"/>
</a>
</g>
</g>
<!-- 19 -->
<g id="node8" class="node">
<title>19</title>
<g id="a_node8"><a xlink:title="refc_binary.h">
<polygon fill="#ffffff" stroke="black" points="706.5,-396 598.5,-396 598.5,-360 706.5,-360 706.5,-396"/>
<text text-anchor="middle" x="652.5" y="-374.3" font-family="Times,serif" font-size="14.00">refc_binary.h</text>
</a>
</g>
</g>
<!-- 19&#45;&gt;20 -->
<g id="edge21" class="edge">
<title>19&#45;&gt;20</title>
<g id="a_edge21"><a xlink:title="include">
<path fill="none" stroke="#1414ce" d="M651.62,-359.85C649.72,-322.83 645.21,-235.18 642.91,-190.39"/>
<polygon fill="#1414ce" stroke="#1414ce" points="646.39,-190.04 642.39,-180.23 639.4,-190.4 646.39,-190.04"/>
</a>
</g>
</g>
<!-- 21 -->
<g id="node9" class="node">
<title>21</title>
<g id="a_node9"><a xlink:title="resources.h">
<polygon fill="#ffffff" stroke="black" points="551.5,-324 451.5,-324 451.5,-288 551.5,-288 551.5,-324"/>
<text text-anchor="middle" x="501.5" y="-302.3" font-family="Times,serif" font-size="14.00">resources.h</text>
</a>
</g>
</g>
<!-- 19&#45;&gt;21 -->
<g id="edge22" class="edge">
<title>19&#45;&gt;21</title>
<g id="a_edge22"><a xlink:title="include">
<path fill="none" stroke="#1414ce" d="M615.56,-359.88C595.01,-350.35 569.25,-338.41 547.41,-328.28"/>
<polygon fill="#1414ce" stroke="#1414ce" points="548.86,-325.1 538.32,-324.07 545.92,-331.45 548.86,-325.1"/>
</a>
</g>
</g>
<!-- 19&#45;&gt;4 -->
<g id="edge19" class="edge">
<title>19&#45;&gt;4</title>
<g id="a_edge19"><a xlink:title="include">
<path fill="none" stroke="#1414ce" d="M661.08,-359.86C680.23,-318.92 721.45,-213.68 677.5,-144 664.3,-123.07 640.32,-110.23 618.01,-102.45"/>
<polygon fill="#1414ce" stroke="#1414ce" points="618.85,-99.04 608.26,-99.31 616.71,-105.7 618.85,-99.04"/>
</a>
</g>
</g>
<!-- 19&#45;&gt;7 -->
<g id="edge20" class="edge">
<title>19&#45;&gt;7</title>
<g id="a_edge20"><a xlink:title="include">
<path fill="none" stroke="#1414ce" d="M668.6,-359.81C677.34,-349.87 687.87,-336.83 695.5,-324 737.09,-254.01 768.94,-162.66 783.24,-117.99"/>
<polygon fill="#1414ce" stroke="#1414ce" points="786.66,-118.76 786.33,-108.18 779.98,-116.66 786.66,-118.76"/>
</a>
</g>
</g>
<!-- 21&#45;&gt;15 -->
<g id="edge24" class="edge">
<title>21&#45;&gt;15</title>
<g id="a_edge24"><a xlink:title="include">
<path fill="none" stroke="#1414ce" d="M451.4,-301.26C356.48,-293.67 158.02,-275.2 137.5,-252 122.83,-235.42 123.95,-209.53 127.79,-189.93"/>
<polygon fill="#1414ce" stroke="#1414ce" points="131.22,-190.6 130.04,-180.07 124.4,-189.04 131.22,-190.6"/>
</a>
</g>
</g>
<!-- 21&#45;&gt;20 -->
<g id="edge25" class="edge">
<title>21&#45;&gt;20</title>
<g id="a_edge25"><a xlink:title="include">
<path fill="none" stroke="#1414ce" d="M548.32,-287.98C566.74,-279.45 586.92,-267.56 601.5,-252 617.9,-234.5 628.39,-209.14 634.5,-189.97"/>
<polygon fill="#1414ce" stroke="#1414ce" points="637.87,-190.89 637.37,-180.31 631.16,-188.89 637.87,-190.89"/>
</a>
</g>
</g>
<!-- 21&#45;&gt;22 -->
<g id="edge26" class="edge">
<title>21&#45;&gt;22</title>
<g id="a_edge26"><a xlink:title="include">
<path fill="none" stroke="#1414ce" d="M487.66,-287.7C481.01,-279.39 472.92,-269.28 465.61,-260.14"/>
<polygon fill="#1414ce" stroke="#1414ce" points="468.16,-257.73 459.18,-252.1 462.7,-262.1 468.16,-257.73"/>
</a>
</g>
</g>
<!-- 21&#45;&gt;14 -->
<g id="edge27" class="edge">
<title>21&#45;&gt;14</title>
<g id="a_edge27"><a xlink:title="include">
<path fill="none" stroke="#1414ce" d="M451.37,-293.75C394.22,-280.93 301.16,-260.05 242.74,-246.94"/>
<polygon fill="#1414ce" stroke="#1414ce" points="243.49,-243.53 232.96,-244.75 241.95,-250.36 243.49,-243.53"/>
</a>
</g>
</g>
<!-- 23 -->
<g id="node11" class="node">
<title>23</title>
<g id="a_node11"><a xlink:title="synclist.h">
<polygon fill="#ffffff" stroke="black" points="592,-252 507,-252 507,-216 592,-216 592,-252"/>
<text text-anchor="middle" x="549.5" y="-230.3" font-family="Times,serif" font-size="14.00">synclist.h</text>
</a>
</g>
</g>
<!-- 21&#45;&gt;23 -->
<g id="edge28" class="edge">
<title>21&#45;&gt;23</title>
<g id="a_edge28"><a xlink:title="include">
<path fill="none" stroke="#1414ce" d="M513.37,-287.7C519,-279.47 525.85,-269.48 532.07,-260.42"/>
<polygon fill="#1414ce" stroke="#1414ce" points="535,-262.33 537.77,-252.1 529.23,-258.37 535,-262.33"/>
</a>
</g>
</g>
<!-- 21&#45;&gt;7 -->
<g id="edge23" class="edge">
<title>21&#45;&gt;7</title>
<g id="a_edge23"><a xlink:title="include">
<path fill="none" stroke="#1414ce" d="M551.73,-288.6C575.46,-279.66 603.54,-267.28 626.5,-252 685.73,-212.59 742.26,-150.29 771.28,-115.89"/>
<polygon fill="#1414ce" stroke="#1414ce" points="773.99,-118.09 777.71,-108.18 768.62,-113.61 773.99,-118.09"/>
</a>
</g>
</g>
<!-- 24 -->
<g id="node10" class="node">
<title>24</title>
<g id="a_node10"><a xlink:title="smp.h">
<polygon fill="#ffffff" stroke="black" points="596.5,-180 536.5,-180 536.5,-144 596.5,-144 596.5,-180"/>
<text text-anchor="middle" x="566.5" y="-158.3" font-family="Times,serif" font-size="14.00">smp.h</text>
</a>
</g>
</g>
<!-- 24&#45;&gt;4 -->
<g id="edge29" class="edge">
<title>24&#45;&gt;4</title>
<g id="a_edge29"><a xlink:title="include">
<path fill="none" stroke="#1414ce" d="M566.5,-143.7C566.5,-135.98 566.5,-126.71 566.5,-118.11"/>
<polygon fill="#1414ce" stroke="#1414ce" points="570,-118.1 566.5,-108.1 563,-118.1 570,-118.1"/>
</a>
</g>
</g>
<!-- 23&#45;&gt;20 -->
<g id="edge31" class="edge">
<title>23&#45;&gt;20</title>
<g id="a_edge31"><a xlink:title="include">
<path fill="none" stroke="#1414ce" d="M572.24,-215.7C583.94,-206.8 598.36,-195.82 611.01,-186.2"/>
<polygon fill="#1414ce" stroke="#1414ce" points="613.18,-188.94 619.02,-180.1 608.94,-183.37 613.18,-188.94"/>
</a>
</g>
</g>
<!-- 23&#45;&gt;24 -->
<g id="edge32" class="edge">
<title>23&#45;&gt;24</title>
<g id="a_edge32"><a xlink:title="include">
<path fill="none" stroke="#1414ce" d="M553.7,-215.7C555.6,-207.9 557.88,-198.51 559.98,-189.83"/>
<polygon fill="#1414ce" stroke="#1414ce" points="563.39,-190.65 562.35,-180.1 556.58,-189 563.39,-190.65"/>
</a>
</g>
</g>
<!-- 6 -->
<g id="node21" class="node">
<title>6</title>
<g id="a_node21"><a xlink:title="stdio.h">
<polygon fill="#ffffff" stroke="black" points="332,-108 267,-108 267,-72 332,-72 332,-108"/>
<text text-anchor="middle" x="299.5" y="-86.3" font-family="Times,serif" font-size="14.00">stdio.h</text>
</a>
</g>
</g>
<!-- 23&#45;&gt;6 -->
<g id="edge30" class="edge">
<title>23&#45;&gt;6</title>
<g id="a_edge30"><a xlink:title="include">
<path fill="none" stroke="#1414ce" d="M519.34,-215.87C474.11,-190.18 388.67,-141.65 338.67,-113.25"/>
<polygon fill="#1414ce" stroke="#1414ce" points="340.19,-110.08 329.76,-108.19 336.73,-116.17 340.19,-110.08"/>
</a>
</g>
</g>
<!-- 2&#45;&gt;9 -->
<g id="edge39" class="edge">
<title>2&#45;&gt;9</title>
<g id="a_edge39"><a xlink:title="include">
<path fill="none" stroke="#1414ce" d="M426.08,-447.9C502.54,-444.75 699.1,-433.37 858.5,-396 859.93,-395.67 861.37,-395.3 862.82,-394.91"/>
<polygon fill="#1414ce" stroke="#1414ce" points="863.83,-398.26 872.41,-392.05 861.83,-391.56 863.83,-398.26"/>
</a>
</g>
</g>
<!-- 2&#45;&gt;10 -->
<g id="edge40" class="edge">
<title>2&#45;&gt;10</title>
<g id="a_edge40"><a xlink:title="include">
<path fill="none" stroke="#1414ce" d="M372.24,-431.7C361.41,-422.88 348.08,-412.03 336.34,-402.47"/>
<polygon fill="#1414ce" stroke="#1414ce" points="338.48,-399.7 328.51,-396.1 334.06,-405.13 338.48,-399.7"/>
</a>
</g>
</g>
<!-- 2&#45;&gt;14 -->
<g id="edge41" class="edge">
<title>2&#45;&gt;14</title>
<g id="a_edge41"><a xlink:title="include">
<path fill="none" stroke="#1414ce" d="M360.86,-443.07C328.67,-436 279.23,-421.76 243.5,-396 210.62,-372.29 200.66,-362.35 187.5,-324 180.7,-304.17 181.66,-280.38 184.08,-262.38"/>
<polygon fill="#1414ce" stroke="#1414ce" points="187.57,-262.69 185.66,-252.27 180.66,-261.61 187.57,-262.69"/>
</a>
</g>
</g>
<!-- 2&#45;&gt;19 -->
<g id="edge42" class="edge">
<title>2&#45;&gt;19</title>
<g id="a_edge42"><a xlink:title="include">
<path fill="none" stroke="#1414ce" d="M426.04,-440.21C466.63,-429.24 536.95,-410.23 588.49,-396.3"/>
<polygon fill="#1414ce" stroke="#1414ce" points="589.47,-399.66 598.21,-393.67 587.64,-392.9 589.47,-399.66"/>
</a>
</g>
</g>
<!-- 2&#45;&gt;21 -->
<g id="edge43" class="edge">
<title>2&#45;&gt;21</title>
<g id="a_edge43"><a xlink:title="include">
<path fill="none" stroke="#1414ce" d="M398.17,-431.91C403.96,-412.92 415.23,-382.05 432.5,-360 441.42,-348.61 453.32,-338.33 464.72,-329.92"/>
<polygon fill="#1414ce" stroke="#1414ce" points="466.75,-332.77 472.89,-324.13 462.71,-327.06 466.75,-332.77"/>
</a>
</g>
</g>
<!-- 2&#45;&gt;16 -->
<g id="edge45" class="edge">
<title>2&#45;&gt;16</title>
<g id="a_edge45"><a xlink:title="include">
<path fill="none" stroke="#1414ce" d="M360.76,-449.22C312.28,-447.98 220.46,-439.49 158.5,-396 62.54,-328.64 29.42,-249.53 80.5,-144 86.26,-132.1 96.14,-122.06 106.56,-114.02"/>
<polygon fill="#1414ce" stroke="#1414ce" points="108.87,-116.68 114.97,-108.02 104.8,-110.98 108.87,-116.68"/>
</a>
</g>
</g>
<!-- 2&#45;&gt;11 -->
<g id="edge44" class="edge">
<title>2&#45;&gt;11</title>
<g id="a_edge44"><a xlink:title="include">
<path fill="none" stroke="#1414ce" d="M390.05,-431.97C380.36,-384.19 352.86,-248.62 341.03,-190.27"/>
<polygon fill="#1414ce" stroke="#1414ce" points="344.43,-189.41 339.01,-180.31 337.57,-190.8 344.43,-189.41"/>
</a>
</g>
</g>
<!-- 2&#45;&gt;4 -->
<g id="edge34" class="edge">
<title>2&#45;&gt;4</title>
<g id="a_edge34"><a xlink:title="include">
<path fill="none" stroke="#1414ce" d="M426.27,-448.14C499.73,-445.53 674.35,-435.25 715.5,-396 744.77,-368.08 734.5,-347.45 734.5,-307 734.5,-307 734.5,-307 734.5,-233 734.5,-190.33 728.71,-174.13 698.5,-144 676.7,-122.26 644.82,-109.12 617.85,-101.36"/>
<polygon fill="#1414ce" stroke="#1414ce" points="618.74,-97.98 608.17,-98.75 616.91,-104.73 618.74,-97.98"/>
</a>
</g>
</g>
<!-- 2&#45;&gt;5 -->
<g id="edge35" class="edge">
<title>2&#45;&gt;5</title>
<g id="a_edge35"><a xlink:title="include">
<path fill="none" stroke="#1414ce" d="M426.21,-448.09C539.22,-444.64 908.46,-430.79 947.5,-396 977.7,-369.09 966.5,-347.45 966.5,-307 966.5,-307 966.5,-307 966.5,-161 966.5,-53.02 803.01,-27.13 720.69,-20.94"/>
<polygon fill="#1414ce" stroke="#1414ce" points="720.81,-17.44 710.6,-20.25 720.34,-24.42 720.81,-17.44"/>
</a>
</g>
</g>
<!-- 2&#45;&gt;6 -->
<g id="edge36" class="edge">
<title>2&#45;&gt;6</title>
<g id="a_edge36"><a xlink:title="include">
<path fill="none" stroke="#1414ce" d="M360.67,-447.65C319.23,-444.36 247.67,-433.26 200.5,-396 115.8,-329.1 111.91,-285.58 89.5,-180 86.18,-164.35 79.67,-156.62 89.5,-144 94.72,-137.31 197.04,-113.69 256.89,-100.35"/>
<polygon fill="#1414ce" stroke="#1414ce" points="257.82,-103.73 266.83,-98.15 256.31,-96.9 257.82,-103.73"/>
</a>
</g>
</g>
<!-- 2&#45;&gt;7 -->
<g id="edge37" class="edge">
<title>2&#45;&gt;7</title>
<g id="a_edge37"><a xlink:title="include">
<path fill="none" stroke="#1414ce" d="M426.02,-448.59C503.16,-446.93 694.06,-438.52 738.5,-396 815.82,-322.02 804.93,-178.62 796.27,-118.53"/>
<polygon fill="#1414ce" stroke="#1414ce" points="799.68,-117.67 794.7,-108.32 792.76,-118.74 799.68,-117.67"/>
</a>
</g>
</g>
<!-- 2&#45;&gt;8 -->
<g id="edge38" class="edge">
<title>2&#45;&gt;8</title>
<g id="a_edge38"><a xlink:title="include">
<path fill="none" stroke="#1414ce" d="M360.75,-442.57C332.88,-435.54 293.5,-421.67 268.5,-396 252,-379.06 243.03,-353.43 238.31,-334.01"/>
<polygon fill="#1414ce" stroke="#1414ce" points="241.73,-333.25 236.16,-324.24 234.89,-334.75 241.73,-333.25"/>
</a>
</g>
</g>
<!-- 3 -->
<g id="node24" class="node">
<title>3</title>
<g id="a_node24"><a xlink:title="sys/types.h">
<polygon fill="#ffffff" stroke="black" points="538,-396 441,-396 441,-360 538,-360 538,-396"/>
<text text-anchor="middle" x="489.5" y="-374.3" font-family="Times,serif" font-size="14.00">sys/types.h</text>
</a>
</g>
</g>
<!-- 2&#45;&gt;3 -->
<g id="edge33" class="edge">
<title>2&#45;&gt;3</title>
<g id="a_edge33"><a xlink:title="include">
<path fill="none" stroke="#1414ce" d="M417.23,-431.7C429.44,-422.8 444.49,-411.82 457.68,-402.2"/>
<polygon fill="#1414ce" stroke="#1414ce" points="460.02,-404.82 466.04,-396.1 455.9,-399.17 460.02,-404.82"/>
</a>
</g>
</g>
<!-- 17 -->
<g id="node15" class="node">
<title>17</title>
<g id="a_node15"><a xlink:title="assert.h">
<polygon fill="#ffffff" stroke="black" points="230.5,-36 156.5,-36 156.5,0 230.5,0 230.5,-36"/>
<text text-anchor="middle" x="193.5" y="-14.3" font-family="Times,serif" font-size="14.00">assert.h</text>
</a>
</g>
</g>
<!-- 16&#45;&gt;17 -->
<g id="edge46" class="edge">
<title>16&#45;&gt;17</title>
<g id="a_edge46"><a xlink:title="include">
<path fill="none" stroke="#1414ce" d="M158.87,-71.7C164.22,-63.56 170.7,-53.69 176.61,-44.7"/>
<polygon fill="#1414ce" stroke="#1414ce" points="179.69,-46.38 182.26,-36.1 173.84,-42.54 179.69,-46.38"/>
</a>
</g>
</g>
<!-- 12 -->
<g id="node16" class="node">
<title>12</title>
<g id="a_node16"><a xlink:title="inttypes.h">
<polygon fill="#ffffff" stroke="black" points="371,-36 282,-36 282,0 371,0 371,-36"/>
<text text-anchor="middle" x="326.5" y="-14.3" font-family="Times,serif" font-size="14.00">inttypes.h</text>
</a>
</g>
</g>
<!-- 16&#45;&gt;12 -->
<g id="edge48" class="edge">
<title>16&#45;&gt;12</title>
<g id="a_edge48"><a xlink:title="include">
<path fill="none" stroke="#1414ce" d="M191.29,-71.88C216.08,-62.18 247.28,-49.98 273.46,-39.74"/>
<polygon fill="#1414ce" stroke="#1414ce" points="274.82,-42.97 282.85,-36.07 272.27,-36.45 274.82,-42.97"/>
</a>
</g>
</g>
<!-- 18 -->
<g id="node17" class="node">
<title>18</title>
<g id="a_node17"><a xlink:title="limits.h">
<polygon fill="#ffffff" stroke="black" points="138,-36 67,-36 67,0 138,0 138,-36"/>
<text text-anchor="middle" x="102.5" y="-14.3" font-family="Times,serif" font-size="14.00">limits.h</text>
</a>
</g>
</g>
<!-- 16&#45;&gt;18 -->
<g id="edge47" class="edge">
<title>16&#45;&gt;18</title>
<g id="a_edge47"><a xlink:title="include">
<path fill="none" stroke="#1414ce" d="M136.38,-71.7C131.14,-63.56 124.8,-53.69 119.02,-44.7"/>
<polygon fill="#1414ce" stroke="#1414ce" points="121.85,-42.62 113.5,-36.1 115.96,-46.41 121.85,-42.62"/>
</a>
</g>
</g>
<!-- 16&#45;&gt;5 -->
<g id="edge49" class="edge">
<title>16&#45;&gt;5</title>
<g id="a_edge49"><a xlink:title="include">
<path fill="none" stroke="#1414ce" d="M210.01,-74.65C214.9,-73.7 219.78,-72.8 224.5,-72 371.08,-47.25 546.45,-30.16 628.25,-22.91"/>
<polygon fill="#1414ce" stroke="#1414ce" points="628.8,-26.37 638.45,-22.01 628.18,-19.4 628.8,-26.37"/>
</a>
</g>
</g>
<!-- 11&#45;&gt;12 -->
<g id="edge50" class="edge">
<title>11&#45;&gt;12</title>
<g id="a_edge50"><a xlink:title="include">
<path fill="none" stroke="#1414ce" d="M338.33,-143.87C340.87,-125.9 343.73,-96.86 340.5,-72 339.4,-63.51 337.34,-54.43 335.13,-46.24"/>
<polygon fill="#1414ce" stroke="#1414ce" points="338.45,-45.09 332.32,-36.44 331.72,-47.02 338.45,-45.09"/>
</a>
</g>
</g>
<!-- 11&#45;&gt;4 -->
<g id="edge51" class="edge">
<title>11&#45;&gt;4</title>
<g id="a_edge51"><a xlink:title="include">
<path fill="none" stroke="#1414ce" d="M366.85,-148.77C371.41,-147.11 376.06,-145.47 380.5,-144 425.57,-129.1 477.58,-114.49 515.12,-104.4"/>
<polygon fill="#1414ce" stroke="#1414ce" points="516.07,-107.77 524.83,-101.8 514.26,-101.01 516.07,-107.77"/>
</a>
</g>
</g>
<!-- 13 -->
<g id="node19" class="node">
<title>13</title>
<g id="a_node19"><a xlink:title="stddef.h">
<polygon fill="#ffffff" stroke="black" points="462.5,-108 388.5,-108 388.5,-72 462.5,-72 462.5,-108"/>
<text text-anchor="middle" x="425.5" y="-86.3" font-family="Times,serif" font-size="14.00">stddef.h</text>
</a>
</g>
</g>
<!-- 11&#45;&gt;13 -->
<g id="edge52" class="edge">
<title>11&#45;&gt;13</title>
<g id="a_edge52"><a xlink:title="include">
<path fill="none" stroke="#1414ce" d="M357.75,-143.7C369.08,-134.88 383.03,-124.03 395.32,-114.47"/>
<polygon fill="#1414ce" stroke="#1414ce" points="397.76,-117.01 403.51,-108.1 393.47,-111.48 397.76,-117.01"/>
</a>
</g>
</g>
<!-- 11&#45;&gt;6 -->
<g id="edge53" class="edge">
<title>11&#45;&gt;6</title>
<g id="a_edge53"><a xlink:title="include">
<path fill="none" stroke="#1414ce" d="M326.6,-143.7C322.5,-135.73 317.55,-126.1 313.01,-117.26"/>
<polygon fill="#1414ce" stroke="#1414ce" points="315.98,-115.4 308.3,-108.1 309.76,-118.6 315.98,-115.4"/>
</a>
</g>
</g>
<!-- 11&#45;&gt;7 -->
<g id="edge54" class="edge">
<title>11&#45;&gt;7</title>
<g id="a_edge54"><a xlink:title="include">
<path fill="none" stroke="#1414ce" d="M366.84,-156.19C445.88,-144.06 653.56,-112.17 746,-97.98"/>
<polygon fill="#1414ce" stroke="#1414ce" points="746.54,-101.44 755.9,-96.47 745.48,-94.52 746.54,-101.44"/>
</a>
</g>
</g>
</g>
</svg>
