<?xml version="1.0" encoding="UTF-8" standalone="no"?>
<!DOCTYPE svg PUBLIC "-//W3C//DTD SVG 1.1//EN"
 "http://www.w3.org/Graphics/SVG/1.1/DTD/svg11.dtd">
<!-- Generated by graphviz version 2.43.0 (0)
 -->
<!-- Title: %3 Pages: 1 -->
<svg width="1794pt" height="116pt"
 viewBox="0.00 0.00 1793.50 116.00" xmlns="http://www.w3.org/2000/svg" xmlns:xlink="http://www.w3.org/1999/xlink">
<g id="graph0" class="graph" transform="scale(1 1) rotate(0) translate(4 112)">
<title>%3</title>
<polygon fill="transparent" stroke="transparent" points="-4,4 -4,-112 1789.5,-112 1789.5,4 -4,4"/>
<!-- 2 -->
<g id="node1" class="node">
<title>2</title>
<g id="a_node1"><a xlink:title="/__w/AtomVM/AtomVM/src/libAtomVM/bif.c">
<polygon fill="#ffffff" stroke="black" points="323,-36 0,-36 0,0 323,0 323,-36"/>
<text text-anchor="middle" x="161.5" y="-14.3" font-family="Times,serif" font-size="14.00">/__w/AtomVM/AtomVM/src/libAtomVM/bif.c</text>
</a>
</g>
</g>
<!-- 1 -->
<g id="node2" class="node">
<title>1</title>
<g id="a_node2"><a xlink:title="/__w/AtomVM/AtomVM/src/libAtomVM/bif.h">
<polygon fill="#bfbfbf" stroke="black" points="1021,-108 696,-108 696,-72 1021,-72 1021,-108"/>
<text text-anchor="middle" x="858.5" y="-86.3" font-family="Times,serif" font-size="14.00">/__w/AtomVM/AtomVM/src/libAtomVM/bif.h</text>
</a>
</g>
</g>
<!-- 1&#45;&gt;2 -->
<g id="edge1" class="edge">
<title>1&#45;&gt;2</title>
<g id="a_edge1"><a xlink:title="include">
<path fill="none" stroke="#1414ce" d="M686.01,-71.68C575.06,-60.53 431.83,-46.15 323.09,-35.23"/>
<polygon fill="#1414ce" stroke="#1414ce" points="685.66,-75.16 695.96,-72.68 686.36,-68.19 685.66,-75.16"/>
</a>
</g>
</g>
<!-- 3 -->
<g id="node3" class="node">
<title>3</title>
<g id="a_node3"><a xlink:title="/__w/AtomVM/AtomVM/src/libAtomVM/jit.c">
<polygon fill="#ffffff" stroke="black" points="661.5,-36 341.5,-36 341.5,0 661.5,0 661.5,-36"/>
<text text-anchor="middle" x="501.5" y="-14.3" font-family="Times,serif" font-size="14.00">/__w/AtomVM/AtomVM/src/libAtomVM/jit.c</text>
</a>
</g>
</g>
<!-- 1&#45;&gt;3 -->
<g id="edge2" class="edge">
<title>1&#45;&gt;3</title>
<g id="a_edge2"><a xlink:title="include">
<path fill="none" stroke="#1414ce" d="M761.69,-70.02C707.63,-59.42 640.83,-46.32 588.46,-36.05"/>
<polygon fill="#1414ce" stroke="#1414ce" points="761.14,-73.48 771.62,-71.97 762.48,-66.61 761.14,-73.48"/>
</a>
</g>
</g>
<!-- 4 -->
<g id="node4" class="node">
<title>4</title>
<g id="a_node4"><a xlink:title="/__w/AtomVM/AtomVM/src/libAtomVM/module.c">
<polygon fill="#ffffff" stroke="black" points="1037.5,-36 679.5,-36 679.5,0 1037.5,0 1037.5,-36"/>
<text text-anchor="middle" x="858.5" y="-14.3" font-family="Times,serif" font-size="14.00">/__w/AtomVM/AtomVM/src/libAtomVM/module.c</text>
</a>
</g>
</g>
<!-- 1&#45;&gt;4 -->
<g id="edge3" class="edge">
<title>1&#45;&gt;4</title>
<g id="a_edge3"><a xlink:title="include">
<path fill="none" stroke="#1414ce" d="M858.5,-61.67C858.5,-53.05 858.5,-43.79 858.5,-36.1"/>
<polygon fill="#1414ce" stroke="#1414ce" points="855,-61.7 858.5,-71.7 862,-61.7 855,-61.7"/>
</a>
</g>
</g>
<!-- 5 -->
<g id="node5" class="node">
<title>5</title>
<g id="a_node5"><a xlink:title="/__w/AtomVM/AtomVM/src/libAtomVM/nifs.c">
<polygon fill="#ffffff" stroke="black" points="1387.5,-36 1055.5,-36 1055.5,0 1387.5,0 1387.5,-36"/>
<text text-anchor="middle" x="1221.5" y="-14.3" font-family="Times,serif" font-size="14.00">/__w/AtomVM/AtomVM/src/libAtomVM/nifs.c</text>
</a>
</g>
</g>
<!-- 1&#45;&gt;5 -->
<g id="edge4" class="edge">
<title>1&#45;&gt;5</title>
<g id="a_edge4"><a xlink:title="include">
<path fill="none" stroke="#1414ce" d="M956.94,-70.02C1011.9,-59.42 1079.82,-46.32 1133.08,-36.05"/>
<polygon fill="#1414ce" stroke="#1414ce" points="955.99,-66.64 946.84,-71.97 957.32,-73.51 955.99,-66.64"/>
</a>
</g>
</g>
<!-- 6 -->
<g id="node6" class="node">
<title>6</title>
<g id="a_node6"><a xlink:title="/__w/AtomVM/AtomVM/src/libAtomVM/stacktrace.c">
<polygon fill="#ffffff" stroke="black" points="1785.5,-36 1405.5,-36 1405.5,0 1785.5,0 1785.5,-36"/>
<text text-anchor="middle" x="1595.5" y="-14.3" font-family="Times,serif" font-size="14.00">/__w/AtomVM/AtomVM/src/libAtomVM/stacktrace.c</text>
</a>
</g>
</g>
<!-- 1&#45;&gt;6 -->
<g id="edge5" class="edge">
<title>1&#45;&gt;6</title>
<g id="a_edge5"><a xlink:title="include">
<path fill="none" stroke="#1414ce" d="M1031.19,-72.6C1147.05,-61.59 1299.32,-47.13 1416.48,-36"/>
<polygon fill="#1414ce" stroke="#1414ce" points="1030.77,-69.12 1021.15,-73.55 1031.44,-76.09 1030.77,-69.12"/>
</a>
</g>
</g>
</g>
</svg>
