<?xml version="1.0" encoding="UTF-8" standalone="no"?>
<!DOCTYPE svg PUBLIC "-//W3C//DTD SVG 1.1//EN"
 "http://www.w3.org/Graphics/SVG/1.1/DTD/svg11.dtd">
<!-- Generated by graphviz version 2.43.0 (0)
 -->
<!-- Title: %3 Pages: 1 -->
<svg width="1439pt" height="692pt"
 viewBox="0.00 0.00 1439.34 692.00" xmlns="http://www.w3.org/2000/svg" xmlns:xlink="http://www.w3.org/1999/xlink">
<g id="graph0" class="graph" transform="scale(1 1) rotate(0) translate(4 688)">
<title>%3</title>
<polygon fill="transparent" stroke="transparent" points="-4,4 -4,-688 1435.34,-688 1435.34,4 -4,4"/>
<!-- 4 -->
<g id="node1" class="node">
<title>4</title>
<g id="a_node1"><a xlink:title="atom.h">
<polygon fill="#ffffff" stroke="black" points="179,-180 113,-180 113,-144 179,-144 179,-180"/>
<text text-anchor="middle" x="146" y="-158.3" font-family="Times,serif" font-size="14.00">atom.h</text>
</a>
</g>
</g>
<!-- 3 -->
<g id="node25" class="node">
<title>3</title>
<g id="a_node25"><a xlink:title="stdint.h">
<polygon fill="#ffffff" stroke="black" points="557,-36 485,-36 485,0 557,0 557,-36"/>
<text text-anchor="middle" x="521" y="-14.3" font-family="Times,serif" font-size="14.00">stdint.h</text>
</a>
</g>
</g>
<!-- 4&#45;&gt;3 -->
<g id="edge1" class="edge">
<title>4&#45;&gt;3</title>
<g id="a_edge1"><a xlink:title="include">
<path fill="none" stroke="#1414ce" d="M179.16,-148.22C183.77,-146.68 188.47,-145.22 193,-144 280.22,-120.56 310.98,-145.81 393,-108 415.95,-97.42 416.5,-86.77 437,-72 451.71,-61.4 468.52,-50.56 483.21,-41.47"/>
<polygon fill="#1414ce" stroke="#1414ce" points="485.35,-44.27 492.04,-36.06 481.69,-38.3 485.35,-44.27"/>
</a>
</g>
</g>
<!-- 5 -->
<g id="node27" class="node">
<title>5</title>
<g id="a_node27"><a xlink:title="stdlib.h">
<polygon fill="#ffffff" stroke="black" points="556.5,-108 485.5,-108 485.5,-72 556.5,-72 556.5,-108"/>
<text text-anchor="middle" x="521" y="-86.3" font-family="Times,serif" font-size="14.00">stdlib.h</text>
</a>
</g>
</g>
<!-- 4&#45;&gt;5 -->
<g id="edge2" class="edge">
<title>4&#45;&gt;5</title>
<g id="a_edge2"><a xlink:title="include">
<path fill="none" stroke="#1414ce" d="M179.13,-148.11C183.74,-146.58 188.46,-145.16 193,-144 294.96,-117.98 323.22,-125.36 427,-108 442.68,-105.38 459.8,-102.33 475.08,-99.55"/>
<polygon fill="#1414ce" stroke="#1414ce" points="476.12,-102.92 485.33,-97.68 474.86,-96.04 476.12,-102.92"/>
</a>
</g>
</g>
<!-- 6 -->
<g id="node2" class="node">
<title>6</title>
<g id="a_node2"><a xlink:title="atom_table.h">
<polygon fill="#ffffff" stroke="black" points="251.5,-252 142.5,-252 142.5,-216 251.5,-216 251.5,-252"/>
<text text-anchor="middle" x="197" y="-230.3" font-family="Times,serif" font-size="14.00">atom_table.h</text>
</a>
</g>
</g>
<!-- 6&#45;&gt;4 -->
<g id="edge4" class="edge">
<title>6&#45;&gt;4</title>
<g id="a_edge4"><a xlink:title="include">
<path fill="none" stroke="#1414ce" d="M184.39,-215.7C178.4,-207.47 171.12,-197.48 164.52,-188.42"/>
<polygon fill="#1414ce" stroke="#1414ce" points="167.18,-186.13 158.46,-180.1 161.52,-190.25 167.18,-186.13"/>
</a>
</g>
</g>
<!-- 8 -->
<g id="node18" class="node">
<title>8</title>
<g id="a_node18"><a xlink:title="utils.h">
<polygon fill="#ffffff" stroke="black" points="655,-180 593,-180 593,-144 655,-144 655,-180"/>
<text text-anchor="middle" x="624" y="-158.3" font-family="Times,serif" font-size="14.00">utils.h</text>
</a>
</g>
</g>
<!-- 6&#45;&gt;8 -->
<g id="edge5" class="edge">
<title>6&#45;&gt;8</title>
<g id="a_edge5"><a xlink:title="include">
<path fill="none" stroke="#1414ce" d="M251.51,-224.06C338.05,-209.88 504.98,-182.51 582.53,-169.8"/>
<polygon fill="#1414ce" stroke="#1414ce" points="583.56,-173.18 592.86,-168.1 582.43,-166.27 583.56,-173.18"/>
</a>
</g>
</g>
<!-- 7 -->
<g id="node23" class="node">
<title>7</title>
<g id="a_node23"><a xlink:title="stdbool.h">
<polygon fill="#ffffff" stroke="black" points="907.5,-108 824.5,-108 824.5,-72 907.5,-72 907.5,-108"/>
<text text-anchor="middle" x="866" y="-86.3" font-family="Times,serif" font-size="14.00">stdbool.h</text>
</a>
</g>
</g>
<!-- 6&#45;&gt;7 -->
<g id="edge3" class="edge">
<title>6&#45;&gt;7</title>
<g id="a_edge3"><a xlink:title="include">
<path fill="none" stroke="#1414ce" d="M197.22,-215.73C198.5,-195.05 204.07,-161.07 226,-144 273.1,-107.34 702.7,-114.82 762,-108 779.08,-106.03 797.64,-103.22 814.29,-100.45"/>
<polygon fill="#1414ce" stroke="#1414ce" points="815.11,-103.86 824.38,-98.73 813.93,-96.96 815.11,-103.86"/>
</a>
</g>
</g>
<!-- 12 -->
<g id="node3" class="node">
<title>12</title>
<g id="a_node3"><a xlink:title="erl_nif.h">
<polygon fill="#ffffff" stroke="black" points="309,-180 235,-180 235,-144 309,-144 309,-180"/>
<text text-anchor="middle" x="272" y="-158.3" font-family="Times,serif" font-size="14.00">erl_nif.h</text>
</a>
</g>
</g>
<!-- 13 -->
<g id="node16" class="node">
<title>13</title>
<g id="a_node16"><a xlink:title="term_typedef.h">
<polygon fill="#ffffff" stroke="black" points="384.5,-108 259.5,-108 259.5,-72 384.5,-72 384.5,-108"/>
<text text-anchor="middle" x="322" y="-86.3" font-family="Times,serif" font-size="14.00">term_typedef.h</text>
</a>
</g>
</g>
<!-- 12&#45;&gt;13 -->
<g id="edge6" class="edge">
<title>12&#45;&gt;13</title>
<g id="a_edge6"><a xlink:title="include">
<path fill="none" stroke="#1414ce" d="M284.36,-143.7C290.23,-135.47 297.37,-125.48 303.84,-116.42"/>
<polygon fill="#1414ce" stroke="#1414ce" points="306.82,-118.28 309.78,-108.1 301.12,-114.21 306.82,-118.28"/>
</a>
</g>
</g>
<!-- 16 -->
<g id="node4" class="node">
<title>16</title>
<g id="a_node4"><a xlink:title="ets.h">
<polygon fill="#ffffff" stroke="black" points="1074,-540 1020,-540 1020,-504 1074,-504 1074,-540"/>
<text text-anchor="middle" x="1047" y="-518.3" font-family="Times,serif" font-size="14.00">ets.h</text>
</a>
</g>
</g>
<!-- 17 -->
<g id="node14" class="node">
<title>17</title>
<g id="a_node14"><a xlink:title="synclist.h">
<polygon fill="#ffffff" stroke="black" points="1057.5,-252 972.5,-252 972.5,-216 1057.5,-216 1057.5,-252"/>
<text text-anchor="middle" x="1015" y="-230.3" font-family="Times,serif" font-size="14.00">synclist.h</text>
</a>
</g>
</g>
<!-- 16&#45;&gt;17 -->
<g id="edge8" class="edge">
<title>16&#45;&gt;17</title>
<g id="a_edge8"><a xlink:title="include">
<path fill="none" stroke="#1414ce" d="M1045.09,-503.97C1039.75,-456.19 1024.58,-320.62 1018.05,-262.27"/>
<polygon fill="#1414ce" stroke="#1414ce" points="1021.53,-261.86 1016.94,-252.31 1014.57,-262.63 1021.53,-261.86"/>
</a>
</g>
</g>
<!-- 20 -->
<g id="node15" class="node">
<title>20</title>
<g id="a_node15"><a xlink:title="term.h">
<polygon fill="#ffffff" stroke="black" points="533.5,-468 468.5,-468 468.5,-432 533.5,-432 533.5,-468"/>
<text text-anchor="middle" x="501" y="-446.3" font-family="Times,serif" font-size="14.00">term.h</text>
</a>
</g>
</g>
<!-- 16&#45;&gt;20 -->
<g id="edge9" class="edge">
<title>16&#45;&gt;20</title>
<g id="a_edge9"><a xlink:title="include">
<path fill="none" stroke="#1414ce" d="M1019.92,-517.53C931.63,-506.21 651.55,-470.3 543.81,-456.49"/>
<polygon fill="#1414ce" stroke="#1414ce" points="544,-452.98 533.63,-455.18 543.11,-459.93 544,-452.98"/>
</a>
</g>
</g>
<!-- 16&#45;&gt;7 -->
<g id="edge7" class="edge">
<title>16&#45;&gt;7</title>
<g id="a_edge7"><a xlink:title="include">
<path fill="none" stroke="#1414ce" d="M1055.87,-503.9C1085.06,-444.99 1170.99,-248.32 1075,-144 1054,-121.18 972.64,-105.7 917.84,-97.61"/>
<polygon fill="#1414ce" stroke="#1414ce" points="918.34,-94.15 907.94,-96.19 917.34,-101.08 918.34,-94.15"/>
</a>
</g>
</g>
<!-- 1 -->
<g id="node5" class="node">
<title>1</title>
<g id="a_node5"><a xlink:title="/__w/AtomVM/AtomVM/src/libAtomVM/ets_multimap.h">
<polygon fill="#bfbfbf" stroke="black" points="655,-684 251,-684 251,-648 655,-648 655,-684"/>
<text text-anchor="middle" x="453" y="-662.3" font-family="Times,serif" font-size="14.00">/__w/AtomVM/AtomVM/src/libAtomVM/ets_multimap.h</text>
</a>
</g>
</g>
<!-- 2 -->
<g id="node6" class="node">
<title>2</title>
<g id="a_node6"><a xlink:title="globalcontext.h">
<polygon fill="#ffffff" stroke="black" points="1007.5,-612 880.5,-612 880.5,-576 1007.5,-576 1007.5,-612"/>
<text text-anchor="middle" x="944" y="-590.3" font-family="Times,serif" font-size="14.00">globalcontext.h</text>
</a>
</g>
</g>
<!-- 1&#45;&gt;2 -->
<g id="edge10" class="edge">
<title>1&#45;&gt;2</title>
<g id="a_edge10"><a xlink:title="include">
<path fill="none" stroke="#1414ce" d="M572.48,-647.97C665.39,-634.72 791.34,-616.76 870.12,-605.53"/>
<polygon fill="#1414ce" stroke="#1414ce" points="871.03,-608.94 880.43,-604.06 870.04,-602.01 871.03,-608.94"/>
</a>
</g>
</g>
<!-- 1&#45;&gt;20 -->
<g id="edge11" class="edge">
<title>1&#45;&gt;20</title>
<g id="a_edge11"><a xlink:title="include">
<path fill="none" stroke="#1414ce" d="M456.85,-647.85C465.17,-610.75 484.89,-522.81 494.92,-478.1"/>
<polygon fill="#1414ce" stroke="#1414ce" points="498.36,-478.76 497.13,-468.23 491.53,-477.22 498.36,-478.76"/>
</a>
</g>
</g>
<!-- 2&#45;&gt;4 -->
<g id="edge13" class="edge">
<title>2&#45;&gt;4</title>
<g id="a_edge13"><a xlink:title="include">
<path fill="none" stroke="#1414ce" d="M880.42,-593.2C685.12,-593.27 103.04,-589.31 35,-540 0.58,-515.06 0,-493.5 0,-451 0,-451 0,-451 0,-305 0,-246.69 60.58,-204.58 103.69,-182"/>
<polygon fill="#1414ce" stroke="#1414ce" points="105.54,-184.99 112.87,-177.34 102.37,-178.74 105.54,-184.99"/>
</a>
</g>
</g>
<!-- 2&#45;&gt;6 -->
<g id="edge14" class="edge">
<title>2&#45;&gt;6</title>
<g id="a_edge14"><a xlink:title="include">
<path fill="none" stroke="#1414ce" d="M880.38,-593.39C688.53,-594 125.03,-591.36 62,-540 30.24,-514.12 38,-491.97 38,-451 38,-451 38,-451 38,-377 38,-336.03 34.68,-318.53 62,-288 80.23,-267.63 107.29,-255 132.4,-247.22"/>
<polygon fill="#1414ce" stroke="#1414ce" points="133.64,-250.5 142.27,-244.37 131.69,-243.78 133.64,-250.5"/>
</a>
</g>
</g>
<!-- 2&#45;&gt;12 -->
<g id="edge15" class="edge">
<title>2&#45;&gt;12</title>
<g id="a_edge15"><a xlink:title="include">
<path fill="none" stroke="#1414ce" d="M880.17,-589.3C679.72,-576.83 76,-532.5 76,-451 76,-451 76,-451 76,-377 76,-278.14 207.98,-336.07 260,-252 271.38,-233.6 273.95,-209 273.92,-190.32"/>
<polygon fill="#1414ce" stroke="#1414ce" points="277.41,-190.01 273.64,-180.1 270.41,-190.2 277.41,-190.01"/>
</a>
</g>
</g>
<!-- 2&#45;&gt;16 -->
<g id="edge16" class="edge">
<title>2&#45;&gt;16</title>
<g id="a_edge16"><a xlink:title="include">
<path fill="none" stroke="#1414ce" d="M969.2,-575.88C982.41,-566.89 998.79,-555.76 1013.11,-546.03"/>
<polygon fill="#1414ce" stroke="#1414ce" points="1015.4,-548.71 1021.71,-540.19 1011.47,-542.92 1015.4,-548.71"/>
</a>
</g>
</g>
<!-- 18 -->
<g id="node8" class="node">
<title>18</title>
<g id="a_node8"><a xlink:title="list.h">
<polygon fill="#ffffff" stroke="black" points="931,-180 877,-180 877,-144 931,-144 931,-180"/>
<text text-anchor="middle" x="904" y="-158.3" font-family="Times,serif" font-size="14.00">list.h</text>
</a>
</g>
</g>
<!-- 2&#45;&gt;18 -->
<g id="edge17" class="edge">
<title>2&#45;&gt;18</title>
<g id="a_edge17"><a xlink:title="include">
<path fill="none" stroke="#1414ce" d="M944,-575.95C944,-549.29 944,-496.11 944,-451 944,-451 944,-451 944,-305 944,-263.48 927.96,-217.61 916.2,-189.54"/>
<polygon fill="#1414ce" stroke="#1414ce" points="919.27,-187.84 912.09,-180.05 912.85,-190.62 919.27,-187.84"/>
</a>
</g>
</g>
<!-- 27 -->
<g id="node9" class="node">
<title>27</title>
<g id="a_node9"><a xlink:title="mailbox.h">
<polygon fill="#ffffff" stroke="black" points="802,-252 716,-252 716,-216 802,-216 802,-252"/>
<text text-anchor="middle" x="759" y="-230.3" font-family="Times,serif" font-size="14.00">mailbox.h</text>
</a>
</g>
</g>
<!-- 2&#45;&gt;27 -->
<g id="edge18" class="edge">
<title>2&#45;&gt;27</title>
<g id="a_edge18"><a xlink:title="include">
<path fill="none" stroke="#1414ce" d="M927.51,-575.77C905.16,-550.53 868,-501.05 868,-451 868,-451 868,-451 868,-377 868,-326.93 824.83,-283.64 792.83,-258.43"/>
<polygon fill="#1414ce" stroke="#1414ce" points="794.63,-255.4 784.56,-252.11 790.38,-260.96 794.63,-255.4"/>
</a>
</g>
</g>
<!-- 19 -->
<g id="node13" class="node">
<title>19</title>
<g id="a_node13"><a xlink:title="smp.h">
<polygon fill="#ffffff" stroke="black" points="1047,-180 987,-180 987,-144 1047,-144 1047,-180"/>
<text text-anchor="middle" x="1017" y="-158.3" font-family="Times,serif" font-size="14.00">smp.h</text>
</a>
</g>
</g>
<!-- 2&#45;&gt;19 -->
<g id="edge19" class="edge">
<title>2&#45;&gt;19</title>
<g id="a_edge19"><a xlink:title="include">
<path fill="none" stroke="#1414ce" d="M1007.63,-585.01C1035.61,-577.98 1065.93,-564.78 1083,-540 1100.53,-514.55 1194.69,-518.2 1066,-216 1061.45,-205.32 1053.78,-195.43 1045.84,-187.15"/>
<polygon fill="#1414ce" stroke="#1414ce" points="1048.15,-184.52 1038.55,-180.03 1043.26,-189.53 1048.15,-184.52"/>
</a>
</g>
</g>
<!-- 2&#45;&gt;17 -->
<g id="edge20" class="edge">
<title>2&#45;&gt;17</title>
<g id="a_edge20"><a xlink:title="include">
<path fill="none" stroke="#1414ce" d="M951.69,-575.91C962.79,-549.62 982,-497.45 982,-451 982,-451 982,-451 982,-377 982,-335.97 995.23,-289.97 1004.94,-261.74"/>
<polygon fill="#1414ce" stroke="#1414ce" points="1008.28,-262.78 1008.32,-252.19 1001.68,-260.45 1008.28,-262.78"/>
</a>
</g>
</g>
<!-- 2&#45;&gt;20 -->
<g id="edge21" class="edge">
<title>2&#45;&gt;20</title>
<g id="a_edge21"><a xlink:title="include">
<path fill="none" stroke="#1414ce" d="M890.56,-575.87C801.52,-547.33 624.56,-490.61 543.43,-464.6"/>
<polygon fill="#1414ce" stroke="#1414ce" points="544.15,-461.16 533.56,-461.44 542.01,-467.82 544.15,-461.16"/>
</a>
</g>
</g>
<!-- 28 -->
<g id="node17" class="node">
<title>28</title>
<g id="a_node17"><a xlink:title="timer_list.h">
<polygon fill="#ffffff" stroke="black" points="1288,-252 1190,-252 1190,-216 1288,-216 1288,-252"/>
<text text-anchor="middle" x="1239" y="-230.3" font-family="Times,serif" font-size="14.00">timer_list.h</text>
</a>
</g>
</g>
<!-- 2&#45;&gt;28 -->
<g id="edge22" class="edge">
<title>2&#45;&gt;28</title>
<g id="a_edge22"><a xlink:title="include">
<path fill="none" stroke="#1414ce" d="M1007.67,-587.9C1089.18,-577.48 1220,-545.98 1220,-451 1220,-451 1220,-451 1220,-377 1220,-336.86 1227.55,-290.9 1233.13,-262.4"/>
<polygon fill="#1414ce" stroke="#1414ce" points="1236.61,-262.88 1235.16,-252.39 1229.74,-261.5 1236.61,-262.88"/>
</a>
</g>
</g>
<!-- 29 -->
<g id="node19" class="node">
<title>29</title>
<g id="a_node19"><a xlink:title="valueshashtable.h">
<polygon fill="#ffffff" stroke="black" points="1381,-180 1235,-180 1235,-144 1381,-144 1381,-180"/>
<text text-anchor="middle" x="1308" y="-158.3" font-family="Times,serif" font-size="14.00">valueshashtable.h</text>
</a>
</g>
</g>
<!-- 2&#45;&gt;29 -->
<g id="edge23" class="edge">
<title>2&#45;&gt;29</title>
<g id="a_edge23"><a xlink:title="include">
<path fill="none" stroke="#1414ce" d="M1007.74,-587.67C1060.86,-581.4 1137.49,-568.03 1199,-540 1258.45,-512.91 1316,-516.33 1316,-451 1316,-451 1316,-451 1316,-305 1316,-264.93 1312.79,-218.61 1310.43,-190.05"/>
<polygon fill="#1414ce" stroke="#1414ce" points="1313.91,-189.7 1309.58,-180.03 1306.94,-190.29 1313.91,-189.7"/>
</a>
</g>
</g>
<!-- 2&#45;&gt;3 -->
<g id="edge12" class="edge">
<title>2&#45;&gt;3</title>
<g id="a_edge12"><a xlink:title="include">
<path fill="none" stroke="#1414ce" d="M1007.68,-586.99C1135.03,-573.21 1409,-533.93 1409,-451 1409,-451 1409,-451 1409,-161 1409,-123.77 1515.17,-147.5 1258,-72 1127.56,-33.7 707.94,-22.49 567.38,-19.77"/>
<polygon fill="#1414ce" stroke="#1414ce" points="567.42,-16.27 557.36,-19.58 567.29,-23.27 567.42,-16.27"/>
</a>
</g>
</g>
<!-- 23 -->
<g id="node7" class="node">
<title>23</title>
<g id="a_node7"><a xlink:title="intn.h">
<polygon fill="#ffffff" stroke="black" points="607.5,-396 548.5,-396 548.5,-360 607.5,-360 607.5,-396"/>
<text text-anchor="middle" x="578" y="-374.3" font-family="Times,serif" font-size="14.00">intn.h</text>
</a>
</g>
</g>
<!-- 23&#45;&gt;8 -->
<g id="edge26" class="edge">
<title>23&#45;&gt;8</title>
<g id="a_edge26"><a xlink:title="include">
<path fill="none" stroke="#1414ce" d="M577.91,-359.58C578.26,-329.5 581.14,-266.2 598,-216 601.04,-206.96 605.3,-197.5 609.49,-189.11"/>
<polygon fill="#1414ce" stroke="#1414ce" points="612.63,-190.66 614.13,-180.17 606.42,-187.43 612.63,-190.66"/>
</a>
</g>
</g>
<!-- 23&#45;&gt;7 -->
<g id="edge24" class="edge">
<title>23&#45;&gt;7</title>
<g id="a_edge24"><a xlink:title="include">
<path fill="none" stroke="#1414ce" d="M584.15,-359.8C591.39,-340.99 604.65,-310.53 622,-288 681.03,-211.34 775.69,-146.17 828.07,-113.49"/>
<polygon fill="#1414ce" stroke="#1414ce" points="830.05,-116.38 836.72,-108.15 826.37,-110.43 830.05,-116.38"/>
</a>
</g>
</g>
<!-- 22 -->
<g id="node28" class="node">
<title>22</title>
<g id="a_node28"><a xlink:title="string.h">
<polygon fill="#ffffff" stroke="black" points="531.5,-324 458.5,-324 458.5,-288 531.5,-288 531.5,-324"/>
<text text-anchor="middle" x="495" y="-302.3" font-family="Times,serif" font-size="14.00">string.h</text>
</a>
</g>
</g>
<!-- 23&#45;&gt;22 -->
<g id="edge25" class="edge">
<title>23&#45;&gt;22</title>
<g id="a_edge25"><a xlink:title="include">
<path fill="none" stroke="#1414ce" d="M557.48,-359.7C547.13,-350.97 534.41,-340.24 523.16,-330.75"/>
<polygon fill="#1414ce" stroke="#1414ce" points="525.18,-327.88 515.28,-324.1 520.67,-333.23 525.18,-327.88"/>
</a>
</g>
</g>
<!-- 18&#45;&gt;7 -->
<g id="edge27" class="edge">
<title>18&#45;&gt;7</title>
<g id="a_edge27"><a xlink:title="include">
<path fill="none" stroke="#1414ce" d="M894.61,-143.7C890.24,-135.64 884.94,-125.89 880.1,-116.98"/>
<polygon fill="#1414ce" stroke="#1414ce" points="883.13,-115.22 875.29,-108.1 876.98,-118.56 883.13,-115.22"/>
</a>
</g>
</g>
<!-- 27&#45;&gt;18 -->
<g id="edge29" class="edge">
<title>27&#45;&gt;18</title>
<g id="a_edge29"><a xlink:title="include">
<path fill="none" stroke="#1414ce" d="M794.47,-215.88C816.63,-205.18 845.09,-191.44 867.44,-180.65"/>
<polygon fill="#1414ce" stroke="#1414ce" points="869.13,-183.72 876.62,-176.22 866.09,-177.42 869.13,-183.72"/>
</a>
</g>
</g>
<!-- 27&#45;&gt;13 -->
<g id="edge30" class="edge">
<title>27&#45;&gt;13</title>
<g id="a_edge30"><a xlink:title="include">
<path fill="none" stroke="#1414ce" d="M715.72,-220.33C680.23,-209.84 628.73,-194.37 584,-180 513.6,-157.39 433.14,-129.79 380.17,-111.38"/>
<polygon fill="#1414ce" stroke="#1414ce" points="381.2,-108.04 370.61,-108.05 378.9,-114.65 381.2,-108.04"/>
</a>
</g>
</g>
<!-- 27&#45;&gt;8 -->
<g id="edge31" class="edge">
<title>27&#45;&gt;8</title>
<g id="a_edge31"><a xlink:title="include">
<path fill="none" stroke="#1414ce" d="M725.98,-215.88C707.38,-206.23 684,-194.11 664.33,-183.91"/>
<polygon fill="#1414ce" stroke="#1414ce" points="665.78,-180.72 655.29,-179.23 662.56,-186.94 665.78,-180.72"/>
</a>
</g>
</g>
<!-- 27&#45;&gt;7 -->
<g id="edge28" class="edge">
<title>27&#45;&gt;7</title>
<g id="a_edge28"><a xlink:title="include">
<path fill="none" stroke="#1414ce" d="M768.62,-215.97C779.3,-197.57 797.48,-167.72 816,-144 823.59,-134.28 832.64,-124.28 840.95,-115.63"/>
<polygon fill="#1414ce" stroke="#1414ce" points="843.52,-118 848,-108.4 838.51,-113.11 843.52,-118"/>
</a>
</g>
</g>
<!-- 24 -->
<g id="node10" class="node">
<title>24</title>
<g id="a_node10"><a xlink:title="memory.h">
<polygon fill="#ffffff" stroke="black" points="470,-252 384,-252 384,-216 470,-216 470,-252"/>
<text text-anchor="middle" x="427" y="-230.3" font-family="Times,serif" font-size="14.00">memory.h</text>
</a>
</g>
</g>
<!-- 24&#45;&gt;12 -->
<g id="edge34" class="edge">
<title>24&#45;&gt;12</title>
<g id="a_edge34"><a xlink:title="include">
<path fill="none" stroke="#1414ce" d="M389.08,-215.88C367.83,-206.28 341.15,-194.23 318.63,-184.06"/>
<polygon fill="#1414ce" stroke="#1414ce" points="319.81,-180.75 309.26,-179.83 316.93,-187.13 319.81,-180.75"/>
</a>
</g>
</g>
<!-- 24&#45;&gt;13 -->
<g id="edge35" class="edge">
<title>24&#45;&gt;13</title>
<g id="a_edge35"><a xlink:title="include">
<path fill="none" stroke="#1414ce" d="M414.33,-215.87C396.05,-191.14 362.11,-145.24 340.86,-116.51"/>
<polygon fill="#1414ce" stroke="#1414ce" points="343.47,-114.15 334.71,-108.19 337.84,-118.31 343.47,-114.15"/>
</a>
</g>
</g>
<!-- 24&#45;&gt;8 -->
<g id="edge36" class="edge">
<title>24&#45;&gt;8</title>
<g id="a_edge36"><a xlink:title="include">
<path fill="none" stroke="#1414ce" d="M470.23,-217.64C503.8,-205.71 550.02,-189.29 583,-177.57"/>
<polygon fill="#1414ce" stroke="#1414ce" points="584.54,-180.74 592.79,-174.09 582.19,-174.14 584.54,-180.74"/>
</a>
</g>
</g>
<!-- 24&#45;&gt;3 -->
<g id="edge32" class="edge">
<title>24&#45;&gt;3</title>
<g id="a_edge32"><a xlink:title="include">
<path fill="none" stroke="#1414ce" d="M429.88,-215.65C435.44,-185.12 449.54,-120.47 476,-72 481.43,-62.04 488.94,-52.26 496.27,-43.85"/>
<polygon fill="#1414ce" stroke="#1414ce" points="499.03,-46.02 503.17,-36.26 493.85,-41.31 499.03,-46.02"/>
</a>
</g>
</g>
<!-- 24&#45;&gt;5 -->
<g id="edge33" class="edge">
<title>24&#45;&gt;5</title>
<g id="a_edge33"><a xlink:title="include">
<path fill="none" stroke="#1414ce" d="M439.59,-216C447.12,-205.69 456.79,-192.22 465,-180 479.05,-159.1 494.22,-134.88 505.22,-116.99"/>
<polygon fill="#1414ce" stroke="#1414ce" points="508.33,-118.61 510.57,-108.26 502.36,-114.96 508.33,-118.61"/>
</a>
</g>
</g>
<!-- 25 -->
<g id="node11" class="node">
<title>25</title>
<g id="a_node11"><a xlink:title="refc_binary.h">
<polygon fill="#ffffff" stroke="black" points="840,-396 732,-396 732,-360 840,-360 840,-396"/>
<text text-anchor="middle" x="786" y="-374.3" font-family="Times,serif" font-size="14.00">refc_binary.h</text>
</a>
</g>
</g>
<!-- 25&#45;&gt;18 -->
<g id="edge39" class="edge">
<title>25&#45;&gt;18</title>
<g id="a_edge39"><a xlink:title="include">
<path fill="none" stroke="#1414ce" d="M809.39,-359.98C821.08,-350.48 834.69,-337.79 844,-324 872.6,-281.61 889.81,-223.79 898.05,-190.21"/>
<polygon fill="#1414ce" stroke="#1414ce" points="901.52,-190.75 900.41,-180.22 894.71,-189.14 901.52,-190.75"/>
</a>
</g>
</g>
<!-- 26 -->
<g id="node12" class="node">
<title>26</title>
<g id="a_node12"><a xlink:title="resources.h">
<polygon fill="#ffffff" stroke="black" points="764,-324 664,-324 664,-288 764,-288 764,-324"/>
<text text-anchor="middle" x="714" y="-302.3" font-family="Times,serif" font-size="14.00">resources.h</text>
</a>
</g>
</g>
<!-- 25&#45;&gt;26 -->
<g id="edge40" class="edge">
<title>25&#45;&gt;26</title>
<g id="a_edge40"><a xlink:title="include">
<path fill="none" stroke="#1414ce" d="M768.2,-359.7C759.4,-351.14 748.62,-340.66 739,-331.3"/>
<polygon fill="#1414ce" stroke="#1414ce" points="741.2,-328.57 731.59,-324.1 736.32,-333.58 741.2,-328.57"/>
</a>
</g>
</g>
<!-- 25&#45;&gt;7 -->
<g id="edge37" class="edge">
<title>25&#45;&gt;7</title>
<g id="a_edge37"><a xlink:title="include">
<path fill="none" stroke="#1414ce" d="M792.96,-359.98C797.05,-349.67 802.14,-336.19 806,-324 829.28,-250.42 850.21,-161.68 860.06,-117.99"/>
<polygon fill="#1414ce" stroke="#1414ce" points="863.49,-118.66 862.26,-108.14 856.66,-117.13 863.49,-118.66"/>
</a>
</g>
</g>
<!-- 25&#45;&gt;5 -->
<g id="edge38" class="edge">
<title>25&#45;&gt;5</title>
<g id="a_edge38"><a xlink:title="include">
<path fill="none" stroke="#1414ce" d="M787.78,-359.97C788.89,-340.75 787.9,-309.4 773,-288 753.91,-260.58 736.09,-268.44 707,-252 651.86,-220.83 630.68,-222.81 584,-180 563.98,-161.64 546.6,-135.89 535.2,-116.81"/>
<polygon fill="#1414ce" stroke="#1414ce" points="538.16,-114.93 530.1,-108.04 532.11,-118.45 538.16,-114.93"/>
</a>
</g>
</g>
<!-- 26&#45;&gt;12 -->
<g id="edge42" class="edge">
<title>26&#45;&gt;12</title>
<g id="a_edge42"><a xlink:title="include">
<path fill="none" stroke="#1414ce" d="M663.75,-300.57C582.29,-292.81 425.4,-275.35 375,-252 342.49,-236.94 312.35,-208.49 293.19,-187.81"/>
<polygon fill="#1414ce" stroke="#1414ce" points="295.7,-185.37 286.4,-180.3 290.51,-190.06 295.7,-185.37"/>
</a>
</g>
</g>
<!-- 26&#45;&gt;18 -->
<g id="edge43" class="edge">
<title>26&#45;&gt;18</title>
<g id="a_edge43"><a xlink:title="include">
<path fill="none" stroke="#1414ce" d="M750.84,-287.77C769.57,-278.3 792.26,-265.71 811,-252 837.31,-232.74 863.84,-206.53 881.79,-187.54"/>
<polygon fill="#1414ce" stroke="#1414ce" points="884.43,-189.84 888.7,-180.14 879.32,-185.06 884.43,-189.84"/>
</a>
</g>
</g>
<!-- 26&#45;&gt;27 -->
<g id="edge44" class="edge">
<title>26&#45;&gt;27</title>
<g id="a_edge44"><a xlink:title="include">
<path fill="none" stroke="#1414ce" d="M725.12,-287.7C730.36,-279.56 736.7,-269.69 742.48,-260.7"/>
<polygon fill="#1414ce" stroke="#1414ce" points="745.54,-262.41 748,-252.1 739.65,-258.62 745.54,-262.41"/>
</a>
</g>
</g>
<!-- 26&#45;&gt;24 -->
<g id="edge45" class="edge">
<title>26&#45;&gt;24</title>
<g id="a_edge45"><a xlink:title="include">
<path fill="none" stroke="#1414ce" d="M663.68,-292.73C612.18,-280.17 532.47,-260.72 480.01,-247.93"/>
<polygon fill="#1414ce" stroke="#1414ce" points="480.77,-244.51 470.22,-245.54 479.11,-251.31 480.77,-244.51"/>
</a>
</g>
</g>
<!-- 26&#45;&gt;17 -->
<g id="edge46" class="edge">
<title>26&#45;&gt;17</title>
<g id="a_edge46"><a xlink:title="include">
<path fill="none" stroke="#1414ce" d="M764.04,-293.36C818.81,-280.63 906.24,-260.29 962.11,-247.3"/>
<polygon fill="#1414ce" stroke="#1414ce" points="963.21,-250.64 972.16,-244.96 961.62,-243.82 963.21,-250.64"/>
</a>
</g>
</g>
<!-- 26&#45;&gt;5 -->
<g id="edge41" class="edge">
<title>26&#45;&gt;5</title>
<g id="a_edge41"><a xlink:title="include">
<path fill="none" stroke="#1414ce" d="M680.39,-287.86C643.27,-267.22 584.36,-229.12 551,-180 538.31,-161.31 530.56,-136.77 526.13,-118.2"/>
<polygon fill="#1414ce" stroke="#1414ce" points="529.52,-117.32 523.95,-108.31 522.69,-118.82 529.52,-117.32"/>
</a>
</g>
</g>
<!-- 19&#45;&gt;7 -->
<g id="edge47" class="edge">
<title>19&#45;&gt;7</title>
<g id="a_edge47"><a xlink:title="include">
<path fill="none" stroke="#1414ce" d="M986.81,-147C965.46,-137.11 936.43,-123.65 912.19,-112.41"/>
<polygon fill="#1414ce" stroke="#1414ce" points="913.36,-109.1 902.81,-108.07 910.41,-115.45 913.36,-109.1"/>
</a>
</g>
</g>
<!-- 17&#45;&gt;18 -->
<g id="edge49" class="edge">
<title>17&#45;&gt;18</title>
<g id="a_edge49"><a xlink:title="include">
<path fill="none" stroke="#1414ce" d="M987.85,-215.88C973.47,-206.81 955.62,-195.55 940.09,-185.76"/>
<polygon fill="#1414ce" stroke="#1414ce" points="941.58,-182.56 931.26,-180.19 937.85,-188.48 941.58,-182.56"/>
</a>
</g>
</g>
<!-- 17&#45;&gt;19 -->
<g id="edge50" class="edge">
<title>17&#45;&gt;19</title>
<g id="a_edge50"><a xlink:title="include">
<path fill="none" stroke="#1414ce" d="M1015.49,-215.7C1015.71,-207.98 1015.98,-198.71 1016.23,-190.11"/>
<polygon fill="#1414ce" stroke="#1414ce" points="1019.72,-190.2 1016.51,-180.1 1012.73,-190 1019.72,-190.2"/>
</a>
</g>
</g>
<!-- 11 -->
<g id="node26" class="node">
<title>11</title>
<g id="a_node26"><a xlink:title="stdio.h">
<polygon fill="#ffffff" stroke="black" points="753.5,-108 688.5,-108 688.5,-72 753.5,-72 753.5,-108"/>
<text text-anchor="middle" x="721" y="-86.3" font-family="Times,serif" font-size="14.00">stdio.h</text>
</a>
</g>
</g>
<!-- 17&#45;&gt;11 -->
<g id="edge48" class="edge">
<title>17&#45;&gt;11</title>
<g id="a_edge48"><a xlink:title="include">
<path fill="none" stroke="#1414ce" d="M1002.61,-215.88C985.58,-192.79 955.29,-153.46 940,-144 925.02,-134.73 822.75,-112.28 763.4,-99.77"/>
<polygon fill="#1414ce" stroke="#1414ce" points="764.07,-96.34 753.56,-97.71 762.63,-103.19 764.07,-96.34"/>
</a>
</g>
</g>
<!-- 20&#45;&gt;4 -->
<g id="edge57" class="edge">
<title>20&#45;&gt;4</title>
<g id="a_edge57"><a xlink:title="include">
<path fill="none" stroke="#1414ce" d="M468.43,-446.95C422.77,-442.88 338.34,-430.88 276,-396 271.08,-393.25 135.15,-257.21 133,-252 124.8,-232.12 129.19,-207.86 134.99,-189.7"/>
<polygon fill="#1414ce" stroke="#1414ce" points="138.37,-190.64 138.39,-180.05 131.77,-188.32 138.37,-190.64"/>
</a>
</g>
</g>
<!-- 20&#45;&gt;23 -->
<g id="edge58" class="edge">
<title>20&#45;&gt;23</title>
<g id="a_edge58"><a xlink:title="include">
<path fill="none" stroke="#1414ce" d="M520.03,-431.7C529.54,-423.05 541.21,-412.45 551.57,-403.03"/>
<polygon fill="#1414ce" stroke="#1414ce" points="554.14,-405.42 559.19,-396.1 549.43,-400.24 554.14,-405.42"/>
</a>
</g>
</g>
<!-- 20&#45;&gt;24 -->
<g id="edge59" class="edge">
<title>20&#45;&gt;24</title>
<g id="a_edge59"><a xlink:title="include">
<path fill="none" stroke="#1414ce" d="M468.37,-448.2C431.95,-445.35 374.51,-434.56 347,-396 315.07,-351.24 364.97,-291.83 399.2,-259.14"/>
<polygon fill="#1414ce" stroke="#1414ce" points="401.72,-261.58 406.66,-252.2 396.95,-256.45 401.72,-261.58"/>
</a>
</g>
</g>
<!-- 20&#45;&gt;25 -->
<g id="edge60" class="edge">
<title>20&#45;&gt;25</title>
<g id="a_edge60"><a xlink:title="include">
<path fill="none" stroke="#1414ce" d="M533.69,-440.97C579.44,-429.73 663.51,-409.09 721.97,-394.73"/>
<polygon fill="#1414ce" stroke="#1414ce" points="722.97,-398.09 731.84,-392.3 721.3,-391.29 722.97,-398.09"/>
</a>
</g>
</g>
<!-- 20&#45;&gt;26 -->
<g id="edge61" class="edge">
<title>20&#45;&gt;26</title>
<g id="a_edge61"><a xlink:title="include">
<path fill="none" stroke="#1414ce" d="M533.63,-443.3C565.77,-436.41 614.99,-422.31 650,-396 672.2,-379.32 689.88,-352.74 700.98,-332.97"/>
<polygon fill="#1414ce" stroke="#1414ce" points="704.07,-334.61 705.76,-324.15 697.92,-331.28 704.07,-334.61"/>
</a>
</g>
</g>
<!-- 20&#45;&gt;13 -->
<g id="edge63" class="edge">
<title>20&#45;&gt;13</title>
<g id="a_edge63"><a xlink:title="include">
<path fill="none" stroke="#1414ce" d="M468.32,-448.59C416.12,-446.64 312.03,-437.38 236,-396 165.02,-357.37 156.52,-326.41 125,-252 105.93,-206.97 73.78,-182.44 104,-144 121.97,-121.14 193.11,-106.92 249.31,-99.04"/>
<polygon fill="#1414ce" stroke="#1414ce" points="249.81,-102.5 259.25,-97.68 248.87,-95.56 249.81,-102.5"/>
</a>
</g>
</g>
<!-- 20&#45;&gt;8 -->
<g id="edge62" class="edge">
<title>20&#45;&gt;8</title>
<g id="a_edge62"><a xlink:title="include">
<path fill="none" stroke="#1414ce" d="M493.29,-431.54C479.35,-399.84 451.21,-335.06 449,-324 445.87,-308.31 441.68,-302.23 449,-288 463.73,-259.38 537.98,-212.63 584.9,-185.13"/>
<polygon fill="#1414ce" stroke="#1414ce" points="586.73,-188.12 593.61,-180.07 583.21,-182.07 586.73,-188.12"/>
</a>
</g>
</g>
<!-- 20&#45;&gt;7 -->
<g id="edge52" class="edge">
<title>20&#45;&gt;7</title>
<g id="a_edge52"><a xlink:title="include">
<path fill="none" stroke="#1414ce" d="M533.86,-448.67C597.05,-447.04 738.97,-438.49 849,-396 956.98,-354.31 1011.27,-353.99 1066,-252 1077.21,-231.11 1063.1,-152.12 1056,-144 1037.87,-123.26 967.46,-107.65 917.66,-98.92"/>
<polygon fill="#1414ce" stroke="#1414ce" points="918.13,-95.45 907.68,-97.21 916.95,-102.35 918.13,-95.45"/>
</a>
</g>
</g>
<!-- 20&#45;&gt;3 -->
<g id="edge53" class="edge">
<title>20&#45;&gt;3</title>
<g id="a_edge53"><a xlink:title="include">
<path fill="none" stroke="#1414ce" d="M468.32,-446.96C396.71,-441.94 228.64,-427.12 182,-396 82.57,-329.65 22.86,-244.23 88,-144 185.31,5.73 302.26,-81.27 475,-36 475.1,-35.97 475.2,-35.95 475.3,-35.92"/>
<polygon fill="#1414ce" stroke="#1414ce" points="476.2,-39.31 484.8,-33.12 474.22,-32.59 476.2,-39.31"/>
</a>
</g>
</g>
<!-- 20&#45;&gt;11 -->
<g id="edge54" class="edge">
<title>20&#45;&gt;11</title>
<g id="a_edge54"><a xlink:title="include">
<path fill="none" stroke="#1414ce" d="M533.74,-441.47C559.39,-433.98 594.25,-420.05 616,-396 620.9,-390.58 687.58,-191.32 712.07,-117.85"/>
<polygon fill="#1414ce" stroke="#1414ce" points="715.39,-118.94 715.23,-108.35 708.75,-116.73 715.39,-118.94"/>
</a>
</g>
</g>
<!-- 20&#45;&gt;5 -->
<g id="edge55" class="edge">
<title>20&#45;&gt;5</title>
<g id="a_edge55"><a xlink:title="include">
<path fill="none" stroke="#1414ce" d="M468.31,-449.32C428.87,-447.71 364.01,-438.3 333,-396 323.54,-383.1 331.68,-375.95 333,-360 338.5,-293.56 335.79,-269.92 375,-216 405.72,-173.76 453.45,-136.45 485.91,-113.82"/>
<polygon fill="#1414ce" stroke="#1414ce" points="487.95,-116.66 494.22,-108.12 483.99,-110.89 487.95,-116.66"/>
</a>
</g>
</g>
<!-- 20&#45;&gt;22 -->
<g id="edge56" class="edge">
<title>20&#45;&gt;22</title>
<g id="a_edge56"><a xlink:title="include">
<path fill="none" stroke="#1414ce" d="M500.28,-431.87C499.25,-407.67 497.38,-363.21 496.16,-334.39"/>
<polygon fill="#1414ce" stroke="#1414ce" points="499.65,-334.03 495.73,-324.19 492.65,-334.33 499.65,-334.03"/>
</a>
</g>
</g>
<!-- 21 -->
<g id="node29" class="node">
<title>21</title>
<g id="a_node29"><a xlink:title="sys/types.h">
<polygon fill="#ffffff" stroke="black" points="453.5,-396 356.5,-396 356.5,-360 453.5,-360 453.5,-396"/>
<text text-anchor="middle" x="405" y="-374.3" font-family="Times,serif" font-size="14.00">sys/types.h</text>
</a>
</g>
</g>
<!-- 20&#45;&gt;21 -->
<g id="edge51" class="edge">
<title>20&#45;&gt;21</title>
<g id="a_edge51"><a xlink:title="include">
<path fill="none" stroke="#1414ce" d="M477.27,-431.7C465.06,-422.8 450.01,-411.82 436.82,-402.2"/>
<polygon fill="#1414ce" stroke="#1414ce" points="438.6,-399.17 428.46,-396.1 434.48,-404.82 438.6,-399.17"/>
</a>
</g>
</g>
<!-- 14 -->
<g id="node20" class="node">
<title>14</title>
<g id="a_node20"><a xlink:title="assert.h">
<polygon fill="#ffffff" stroke="black" points="359,-36 285,-36 285,0 359,0 359,-36"/>
<text text-anchor="middle" x="322" y="-14.3" font-family="Times,serif" font-size="14.00">assert.h</text>
</a>
</g>
</g>
<!-- 13&#45;&gt;14 -->
<g id="edge64" class="edge">
<title>13&#45;&gt;14</title>
<g id="a_edge64"><a xlink:title="include">
<path fill="none" stroke="#1414ce" d="M322,-71.7C322,-63.98 322,-54.71 322,-46.11"/>
<polygon fill="#1414ce" stroke="#1414ce" points="325.5,-46.1 322,-36.1 318.5,-46.1 325.5,-46.1"/>
</a>
</g>
</g>
<!-- 9 -->
<g id="node21" class="node">
<title>9</title>
<g id="a_node21"><a xlink:title="inttypes.h">
<polygon fill="#ffffff" stroke="black" points="466.5,-36 377.5,-36 377.5,0 466.5,0 466.5,-36"/>
<text text-anchor="middle" x="422" y="-14.3" font-family="Times,serif" font-size="14.00">inttypes.h</text>
</a>
</g>
</g>
<!-- 13&#45;&gt;9 -->
<g id="edge66" class="edge">
<title>13&#45;&gt;9</title>
<g id="a_edge66"><a xlink:title="include">
<path fill="none" stroke="#1414ce" d="M346.46,-71.88C359.3,-62.89 375.2,-51.76 389.09,-42.03"/>
<polygon fill="#1414ce" stroke="#1414ce" points="391.26,-44.79 397.44,-36.19 387.24,-39.06 391.26,-44.79"/>
</a>
</g>
</g>
<!-- 15 -->
<g id="node22" class="node">
<title>15</title>
<g id="a_node22"><a xlink:title="limits.h">
<polygon fill="#ffffff" stroke="black" points="266.5,-36 195.5,-36 195.5,0 266.5,0 266.5,-36"/>
<text text-anchor="middle" x="231" y="-14.3" font-family="Times,serif" font-size="14.00">limits.h</text>
</a>
</g>
</g>
<!-- 13&#45;&gt;15 -->
<g id="edge65" class="edge">
<title>13&#45;&gt;15</title>
<g id="a_edge65"><a xlink:title="include">
<path fill="none" stroke="#1414ce" d="M299.51,-71.7C288.04,-62.88 273.94,-52.03 261.52,-42.47"/>
<polygon fill="#1414ce" stroke="#1414ce" points="263.3,-39.43 253.24,-36.1 259.03,-44.98 263.3,-39.43"/>
</a>
</g>
</g>
<!-- 13&#45;&gt;3 -->
<g id="edge67" class="edge">
<title>13&#45;&gt;3</title>
<g id="a_edge67"><a xlink:title="include">
<path fill="none" stroke="#1414ce" d="M372.05,-71.95C401.98,-61.69 440.73,-48.27 475,-36 475.1,-35.96 475.2,-35.93 475.3,-35.89"/>
<polygon fill="#1414ce" stroke="#1414ce" points="476.65,-39.13 484.87,-32.43 474.27,-32.54 476.65,-39.13"/>
</a>
</g>
</g>
<!-- 28&#45;&gt;18 -->
<g id="edge70" class="edge">
<title>28&#45;&gt;18</title>
<g id="a_edge70"><a xlink:title="include">
<path fill="none" stroke="#1414ce" d="M1189.86,-223.41C1137.33,-213.07 1051.66,-195.94 978,-180 965.94,-177.39 952.81,-174.42 941,-171.7"/>
<polygon fill="#1414ce" stroke="#1414ce" points="941.56,-168.23 931.03,-169.38 939.98,-175.05 941.56,-168.23"/>
</a>
</g>
</g>
<!-- 28&#45;&gt;7 -->
<g id="edge68" class="edge">
<title>28&#45;&gt;7</title>
<g id="a_edge68"><a xlink:title="include">
<path fill="none" stroke="#1414ce" d="M1223.1,-215.79C1201.3,-192.58 1162.81,-153.11 1145,-144 1106.12,-124.11 987.44,-106.37 918.03,-97.32"/>
<polygon fill="#1414ce" stroke="#1414ce" points="918.11,-93.81 907.75,-96 917.22,-100.75 918.11,-93.81"/>
</a>
</g>
</g>
<!-- 28&#45;&gt;3 -->
<g id="edge69" class="edge">
<title>28&#45;&gt;3</title>
<g id="a_edge69"><a xlink:title="include">
<path fill="none" stroke="#1414ce" d="M1230.7,-215.89C1212.49,-180.67 1165.24,-100.91 1098,-72 1002.8,-31.07 687.1,-21.69 567.49,-19.59"/>
<polygon fill="#1414ce" stroke="#1414ce" points="567.26,-16.09 557.2,-19.42 567.14,-23.09 567.26,-16.09"/>
</a>
</g>
</g>
<!-- 8&#45;&gt;9 -->
<g id="edge71" class="edge">
<title>8&#45;&gt;9</title>
<g id="a_edge71"><a xlink:title="include">
<path fill="none" stroke="#1414ce" d="M616.7,-143.89C607.4,-124.01 589.55,-91.46 565,-72 557.57,-66.11 513.71,-50.23 476.49,-37.37"/>
<polygon fill="#1414ce" stroke="#1414ce" points="477.3,-33.95 466.71,-34.01 475.03,-40.57 477.3,-33.95"/>
</a>
</g>
</g>
<!-- 8&#45;&gt;7 -->
<g id="edge72" class="edge">
<title>8&#45;&gt;7</title>
<g id="a_edge72"><a xlink:title="include">
<path fill="none" stroke="#1414ce" d="M655.33,-148.71C659.89,-147.06 664.55,-145.44 669,-144 717.79,-128.26 774.38,-113.38 814.35,-103.42"/>
<polygon fill="#1414ce" stroke="#1414ce" points="815.28,-106.79 824.14,-100.99 813.6,-100 815.28,-106.79"/>
</a>
</g>
</g>
<!-- 10 -->
<g id="node24" class="node">
<title>10</title>
<g id="a_node24"><a xlink:title="stddef.h">
<polygon fill="#ffffff" stroke="black" points="1089,-108 1015,-108 1015,-72 1089,-72 1089,-108"/>
<text text-anchor="middle" x="1052" y="-86.3" font-family="Times,serif" font-size="14.00">stddef.h</text>
</a>
</g>
</g>
<!-- 8&#45;&gt;10 -->
<g id="edge73" class="edge">
<title>8&#45;&gt;10</title>
<g id="a_edge73"><a xlink:title="include">
<path fill="none" stroke="#1414ce" d="M655.13,-155.91C729.23,-143.79 916.51,-113.16 1004.7,-98.74"/>
<polygon fill="#1414ce" stroke="#1414ce" points="1005.39,-102.17 1014.69,-97.1 1004.26,-95.26 1005.39,-102.17"/>
</a>
</g>
</g>
<!-- 8&#45;&gt;11 -->
<g id="edge74" class="edge">
<title>8&#45;&gt;11</title>
<g id="a_edge74"><a xlink:title="include">
<path fill="none" stroke="#1414ce" d="M647.98,-143.7C660.31,-134.8 675.52,-123.82 688.85,-114.2"/>
<polygon fill="#1414ce" stroke="#1414ce" points="691.24,-116.79 697.3,-108.1 687.14,-111.12 691.24,-116.79"/>
</a>
</g>
</g>
<!-- 8&#45;&gt;5 -->
<g id="edge75" class="edge">
<title>8&#45;&gt;5</title>
<g id="a_edge75"><a xlink:title="include">
<path fill="none" stroke="#1414ce" d="M598.8,-143.88C585.59,-134.89 569.21,-123.76 554.89,-114.03"/>
<polygon fill="#1414ce" stroke="#1414ce" points="556.53,-110.92 546.29,-108.19 552.6,-116.71 556.53,-110.92"/>
</a>
</g>
</g>
<!-- 29&#45;&gt;10 -->
<g id="edge76" class="edge">
<title>29&#45;&gt;10</title>
<g id="a_edge76"><a xlink:title="include">
<path fill="none" stroke="#1414ce" d="M1245.7,-143.97C1200.45,-131.59 1140.15,-115.1 1098.93,-103.83"/>
<polygon fill="#1414ce" stroke="#1414ce" points="1099.71,-100.42 1089.14,-101.16 1097.86,-107.17 1099.71,-100.42"/>
</a>
</g>
</g>
<!-- 29&#45;&gt;3 -->
<g id="edge77" class="edge">
<title>29&#45;&gt;3</title>
<g id="a_edge77"><a xlink:title="include">
<path fill="none" stroke="#1414ce" d="M1297.18,-143.98C1282.7,-122.88 1254.88,-87.79 1221,-72 1162.01,-44.5 714.04,-25.99 567.34,-20.62"/>
<polygon fill="#1414ce" stroke="#1414ce" points="567.43,-17.12 557.31,-20.25 567.18,-24.11 567.43,-17.12"/>
</a>
</g>
</g>
</g>
</svg>
