<?xml version="1.0" encoding="UTF-8" standalone="no"?>
<!DOCTYPE svg PUBLIC "-//W3C//DTD SVG 1.1//EN"
 "http://www.w3.org/Graphics/SVG/1.1/DTD/svg11.dtd">
<!-- Generated by graphviz version 2.43.0 (0)
 -->
<!-- Title: g Pages: 1 -->
<svg width="780pt" height="310pt"
 viewBox="0.00 0.00 780.00 310.00" xmlns="http://www.w3.org/2000/svg" xmlns:xlink="http://www.w3.org/1999/xlink">
<g id="graph0" class="graph" transform="scale(1 1) rotate(0) translate(4 306)">
<title>g</title>
<polygon fill="white" stroke="transparent" points="-4,4 -4,-306 776,-306 776,4 -4,4"/>
<!-- GlobalContext -->
<g id="node1" class="node">
<title>GlobalContext</title>
<path fill="none" stroke="black" d="M12,-67.5C12,-67.5 226,-67.5 226,-67.5 232,-67.5 238,-73.5 238,-79.5 238,-79.5 238,-289.5 238,-289.5 238,-295.5 232,-301.5 226,-301.5 226,-301.5 12,-301.5 12,-301.5 6,-301.5 0,-295.5 0,-289.5 0,-289.5 0,-79.5 0,-79.5 0,-73.5 6,-67.5 12,-67.5"/>
<text text-anchor="middle" x="119" y="-284.7" font-family="Courier,monospace" font-size="16.00">GlobalContext</text>
<polyline fill="none" stroke="black" points="0,-275.5 238,-275.5 "/>
<text text-anchor="middle" x="119" y="-258.7" font-family="Courier,monospace" font-size="16.00">...</text>
<polyline fill="none" stroke="black" points="0,-249.5 238,-249.5 "/>
<text text-anchor="middle" x="91" y="-219.7" font-family="Courier,monospace" font-size="16.00">processes_table</text>
<polyline fill="none" stroke="black" points="0,-197.5 182,-197.5 "/>
<text text-anchor="middle" x="91" y="-167.7" font-family="Courier,monospace" font-size="16.00">waiting_processes</text>
<polyline fill="none" stroke="black" points="0,-145.5 182,-145.5 "/>
<text text-anchor="middle" x="91" y="-115.7" font-family="Courier,monospace" font-size="16.00">ready_processes</text>
<polyline fill="none" stroke="black" points="182,-93.5 182,-249.5 "/>
<text text-anchor="middle" x="210" y="-232.7" font-family="Courier,monospace" font-size="16.00">prev</text>
<polyline fill="none" stroke="black" points="182,-223.5 238,-223.5 "/>
<text text-anchor="middle" x="210" y="-206.7" font-family="Courier,monospace" font-size="16.00">next</text>
<polyline fill="none" stroke="black" points="182,-197.5 238,-197.5 "/>
<text text-anchor="middle" x="210" y="-180.7" font-family="Courier,monospace" font-size="16.00">prev</text>
<polyline fill="none" stroke="black" points="182,-171.5 238,-171.5 "/>
<text text-anchor="middle" x="210" y="-154.7" font-family="Courier,monospace" font-size="16.00">next</text>
<polyline fill="none" stroke="black" points="182,-145.5 238,-145.5 "/>
<text text-anchor="middle" x="210" y="-128.7" font-family="Courier,monospace" font-size="16.00">prev</text>
<polyline fill="none" stroke="black" points="182,-119.5 238,-119.5 "/>
<text text-anchor="middle" x="210" y="-102.7" font-family="Courier,monospace" font-size="16.00">next</text>
<polyline fill="none" stroke="black" points="0,-93.5 238,-93.5 "/>
<text text-anchor="middle" x="119" y="-76.7" font-family="Courier,monospace" font-size="16.00">...</text>
</g>
<!-- Context0 -->
<g id="node2" class="node">
<title>Context0</title>
<path fill="none" stroke="black" d="M286,-93.5C286,-93.5 374,-93.5 374,-93.5 380,-93.5 386,-99.5 386,-105.5 386,-105.5 386,-211.5 386,-211.5 386,-217.5 380,-223.5 374,-223.5 374,-223.5 286,-223.5 286,-223.5 280,-223.5 274,-217.5 274,-211.5 274,-211.5 274,-105.5 274,-105.5 274,-99.5 280,-93.5 286,-93.5"/>
<text text-anchor="middle" x="330" y="-206.7" font-family="Courier,monospace" font-size="16.00">Context</text>
<polyline fill="none" stroke="black" points="274,-197.5 386,-197.5 "/>
<text text-anchor="middle" x="302" y="-180.7" font-family="Courier,monospace" font-size="16.00">prev</text>
<polyline fill="none" stroke="black" points="330,-171.5 330,-197.5 "/>
<text text-anchor="middle" x="358" y="-180.7" font-family="Courier,monospace" font-size="16.00">next</text>
<polyline fill="none" stroke="black" points="274,-171.5 386,-171.5 "/>
<text text-anchor="middle" x="302" y="-154.7" font-family="Courier,monospace" font-size="16.00">prev</text>
<polyline fill="none" stroke="black" points="330,-145.5 330,-171.5 "/>
<text text-anchor="middle" x="358" y="-154.7" font-family="Courier,monospace" font-size="16.00">next</text>
<polyline fill="none" stroke="black" points="274,-145.5 386,-145.5 "/>
<text text-anchor="middle" x="330" y="-128.7" font-family="Courier,monospace" font-size="16.00">id = 0</text>
<polyline fill="none" stroke="black" points="274,-119.5 386,-119.5 "/>
<text text-anchor="middle" x="330" y="-102.7" font-family="Courier,monospace" font-size="16.00">...</text>
</g>
<!-- GlobalContext&#45;&gt;Context0 -->
<g id="edge1" class="edge">
<title>GlobalContext:pt_next&#45;&gt;Context0:f0</title>
<path fill="none" stroke="black" d="M238,-210.5C250,-210.5 255.25,-210.5 263.88,-210.5"/>
<polygon fill="black" stroke="black" points="264,-214 274,-210.5 264,-207 264,-214"/>
</g>
<!-- GlobalContext&#45;&gt;Context0 -->
<g id="edge2" class="edge">
<title>GlobalContext:wp_next&#45;&gt;Context0:wp_prev</title>
<path fill="none" stroke="black" d="M238,-158.5C246.27,-158.5 254.95,-158.5 263.54,-158.5"/>
<polygon fill="black" stroke="black" points="263.56,-162 273.56,-158.5 263.56,-155 263.56,-162"/>
</g>
<!-- Context1 -->
<g id="node3" class="node">
<title>Context1</title>
<path fill="none" stroke="black" d="M434,-0.5C434,-0.5 522,-0.5 522,-0.5 528,-0.5 534,-6.5 534,-12.5 534,-12.5 534,-118.5 534,-118.5 534,-124.5 528,-130.5 522,-130.5 522,-130.5 434,-130.5 434,-130.5 428,-130.5 422,-124.5 422,-118.5 422,-118.5 422,-12.5 422,-12.5 422,-6.5 428,-0.5 434,-0.5"/>
<text text-anchor="middle" x="478" y="-113.7" font-family="Courier,monospace" font-size="16.00">Context</text>
<polyline fill="none" stroke="black" points="422,-104.5 534,-104.5 "/>
<text text-anchor="middle" x="450" y="-87.7" font-family="Courier,monospace" font-size="16.00">prev</text>
<polyline fill="none" stroke="black" points="478,-78.5 478,-104.5 "/>
<text text-anchor="middle" x="506" y="-87.7" font-family="Courier,monospace" font-size="16.00">next</text>
<polyline fill="none" stroke="black" points="422,-78.5 534,-78.5 "/>
<text text-anchor="middle" x="450" y="-61.7" font-family="Courier,monospace" font-size="16.00">prev</text>
<polyline fill="none" stroke="black" points="478,-52.5 478,-78.5 "/>
<text text-anchor="middle" x="506" y="-61.7" font-family="Courier,monospace" font-size="16.00">next</text>
<polyline fill="none" stroke="black" points="422,-52.5 534,-52.5 "/>
<text text-anchor="middle" x="478" y="-35.7" font-family="Courier,monospace" font-size="16.00">id = 1</text>
<polyline fill="none" stroke="black" points="422,-26.5 534,-26.5 "/>
<text text-anchor="middle" x="478" y="-9.7" font-family="Courier,monospace" font-size="16.00">...</text>
</g>
<!-- GlobalContext&#45;&gt;Context1 -->
<g id="edge3" class="edge">
<title>GlobalContext:rp_next&#45;&gt;Context1:rp_prev</title>
<path fill="none" stroke="black" d="M238,-106.5C256.75,-106.5 256.2,-90.41 274,-84.5 318.34,-69.77 370.9,-65.15 411.56,-64.15"/>
<polygon fill="black" stroke="black" points="411.69,-67.65 421.62,-63.97 411.56,-60.65 411.69,-67.65"/>
</g>
<!-- Context0&#45;&gt;Context1 -->
<g id="edge4" class="edge">
<title>Context0:next0&#45;&gt;Context1:f0</title>
<path fill="none" stroke="black" d="M386,-184.5C415.58,-184.5 395.08,-133.2 412.13,-120.38"/>
<polygon fill="black" stroke="black" points="413.38,-123.66 422,-117.5 411.42,-116.94 413.38,-123.66"/>
</g>
<!-- ContextN -->
<g id="node5" class="node">
<title>ContextN</title>
<path fill="none" stroke="black" d="M672,-13.5C672,-13.5 760,-13.5 760,-13.5 766,-13.5 772,-19.5 772,-25.5 772,-25.5 772,-131.5 772,-131.5 772,-137.5 766,-143.5 760,-143.5 760,-143.5 672,-143.5 672,-143.5 666,-143.5 660,-137.5 660,-131.5 660,-131.5 660,-25.5 660,-25.5 660,-19.5 666,-13.5 672,-13.5"/>
<text text-anchor="middle" x="716" y="-126.7" font-family="Courier,monospace" font-size="16.00">Context</text>
<polyline fill="none" stroke="black" points="660,-117.5 772,-117.5 "/>
<text text-anchor="middle" x="688" y="-100.7" font-family="Courier,monospace" font-size="16.00">prev</text>
<polyline fill="none" stroke="black" points="716,-91.5 716,-117.5 "/>
<text text-anchor="middle" x="744" y="-100.7" font-family="Courier,monospace" font-size="16.00">next</text>
<polyline fill="none" stroke="black" points="660,-91.5 772,-91.5 "/>
<text text-anchor="middle" x="688" y="-74.7" font-family="Courier,monospace" font-size="16.00">prev</text>
<polyline fill="none" stroke="black" points="716,-65.5 716,-91.5 "/>
<text text-anchor="middle" x="744" y="-74.7" font-family="Courier,monospace" font-size="16.00">next</text>
<polyline fill="none" stroke="black" points="660,-65.5 772,-65.5 "/>
<text text-anchor="middle" x="716" y="-48.7" font-family="Courier,monospace" font-size="16.00">id = n</text>
<polyline fill="none" stroke="black" points="660,-39.5 772,-39.5 "/>
<text text-anchor="middle" x="716" y="-22.7" font-family="Courier,monospace" font-size="16.00">...</text>
</g>
<!-- Context0&#45;&gt;ContextN -->
<g id="edge7" class="edge">
<title>Context0:next1&#45;&gt;ContextN:f0</title>
<path fill="none" stroke="black" d="M386,-158.5C504.95,-158.5 535.86,-132.06 649.82,-130.57"/>
<polygon fill="black" stroke="black" points="650.02,-134.06 660,-130.5 649.98,-127.07 650.02,-134.06"/>
</g>
<!-- ContextEllipsis -->
<g id="node4" class="node">
<title>ContextEllipsis</title>
<text text-anchor="middle" x="597" y="-97.7" font-family="Courier,monospace" font-size="16.00">...</text>
</g>
<!-- Context1&#45;&gt;ContextEllipsis -->
<g id="edge5" class="edge">
<title>Context1:next0&#45;&gt;ContextEllipsis</title>
<path fill="none" stroke="black" d="M534,-91.5C542.45,-91.5 551.46,-92.42 559.93,-93.69"/>
<polygon fill="black" stroke="black" points="559.46,-97.16 569.9,-95.39 560.63,-90.26 559.46,-97.16"/>
</g>
<!-- ContextEllipsis&#45;&gt;ContextN -->
<g id="edge6" class="edge">
<title>ContextEllipsis&#45;&gt;ContextN:f0</title>
<path fill="none" stroke="black" d="M623.64,-119.54C631.52,-123.87 640.58,-127.75 649.87,-129.51"/>
<polygon fill="black" stroke="black" points="649.71,-133.01 660,-130.5 650.39,-126.04 649.71,-133.01"/>
</g>
</g>
</svg>
