<?xml version="1.0" encoding="UTF-8" standalone="no"?>
<!DOCTYPE svg PUBLIC "-//W3C//DTD SVG 1.1//EN"
 "http://www.w3.org/Graphics/SVG/1.1/DTD/svg11.dtd">
<!-- Generated by graphviz version 2.43.0 (0)
 -->
<!-- Title: %3 Pages: 1 -->
<svg width="1383pt" height="692pt"
 viewBox="0.00 0.00 1382.50 692.00" xmlns="http://www.w3.org/2000/svg" xmlns:xlink="http://www.w3.org/1999/xlink">
<g id="graph0" class="graph" transform="scale(1 1) rotate(0) translate(4 688)">
<title>%3</title>
<polygon fill="transparent" stroke="transparent" points="-4,4 -4,-688 1378.5,-688 1378.5,4 -4,4"/>
<!-- 8 -->
<g id="node1" class="node">
<title>8</title>
<g id="a_node1"><a xlink:title="stdbool.h">
<polygon fill="#ffffff" stroke="black" points="953,-108 870,-108 870,-72 953,-72 953,-108"/>
<text text-anchor="middle" x="911.5" y="-86.3" font-family="Times,serif" font-size="14.00">stdbool.h</text>
</a>
</g>
</g>
<!-- 25 -->
<g id="node2" class="node">
<title>25</title>
<g id="a_node2"><a xlink:title="refc_binary.h">
<polygon fill="#ffffff" stroke="black" points="746.5,-396 638.5,-396 638.5,-360 746.5,-360 746.5,-396"/>
<text text-anchor="middle" x="692.5" y="-374.3" font-family="Times,serif" font-size="14.00">refc_binary.h</text>
</a>
</g>
</g>
<!-- 25&#45;&gt;8 -->
<g id="edge1" class="edge">
<title>25&#45;&gt;8</title>
<g id="a_edge1"><a xlink:title="include">
<path fill="none" stroke="#1414ce" d="M690.76,-359.88C688.56,-341.66 683.98,-312.2 675.5,-288 669.51,-270.93 660.85,-269.56 656.5,-252 644.55,-203.76 647.78,-176.36 685.5,-144 711.32,-121.84 801.41,-105.86 859.75,-97.54"/>
<polygon fill="#1414ce" stroke="#1414ce" points="860.47,-100.97 869.89,-96.13 859.5,-94.04 860.47,-100.97"/>
</a>
</g>
</g>
<!-- 14 -->
<g id="node8" class="node">
<title>14</title>
<g id="a_node8"><a xlink:title="list.h">
<polygon fill="#ffffff" stroke="black" points="915.5,-180 861.5,-180 861.5,-144 915.5,-144 915.5,-180"/>
<text text-anchor="middle" x="888.5" y="-158.3" font-family="Times,serif" font-size="14.00">list.h</text>
</a>
</g>
</g>
<!-- 25&#45;&gt;14 -->
<g id="edge3" class="edge">
<title>25&#45;&gt;14</title>
<g id="a_edge3"><a xlink:title="include">
<path fill="none" stroke="#1414ce" d="M714,-359.69C741.86,-336.69 791.17,-294.06 827.5,-252 844.68,-232.11 861.35,-207.29 872.91,-188.92"/>
<polygon fill="#1414ce" stroke="#1414ce" points="876.01,-190.56 878.31,-180.21 870.06,-186.87 876.01,-190.56"/>
</a>
</g>
</g>
<!-- 4 -->
<g id="node10" class="node">
<title>4</title>
<g id="a_node10"><a xlink:title="stdlib.h">
<polygon fill="#ffffff" stroke="black" points="577,-108 506,-108 506,-72 577,-72 577,-108"/>
<text text-anchor="middle" x="541.5" y="-86.3" font-family="Times,serif" font-size="14.00">stdlib.h</text>
</a>
</g>
</g>
<!-- 25&#45;&gt;4 -->
<g id="edge2" class="edge">
<title>25&#45;&gt;4</title>
<g id="a_edge2"><a xlink:title="include">
<path fill="none" stroke="#1414ce" d="M638.36,-362.2C605.37,-352.01 567.66,-337.86 557.5,-324 512.35,-262.42 524.97,-165.34 534.8,-118.33"/>
<polygon fill="#1414ce" stroke="#1414ce" points="538.28,-118.81 537.02,-108.29 531.44,-117.3 538.28,-118.81"/>
</a>
</g>
</g>
<!-- 26 -->
<g id="node13" class="node">
<title>26</title>
<g id="a_node13"><a xlink:title="resources.h">
<polygon fill="#ffffff" stroke="black" points="666.5,-324 566.5,-324 566.5,-288 666.5,-288 666.5,-324"/>
<text text-anchor="middle" x="616.5" y="-302.3" font-family="Times,serif" font-size="14.00">resources.h</text>
</a>
</g>
</g>
<!-- 25&#45;&gt;26 -->
<g id="edge4" class="edge">
<title>25&#45;&gt;26</title>
<g id="a_edge4"><a xlink:title="include">
<path fill="none" stroke="#1414ce" d="M673.71,-359.7C664.33,-351.05 652.82,-340.45 642.59,-331.03"/>
<polygon fill="#1414ce" stroke="#1414ce" points="644.8,-328.3 635.07,-324.1 640.05,-333.45 644.8,-328.3"/>
</a>
</g>
</g>
<!-- 1 -->
<g id="node3" class="node">
<title>1</title>
<g id="a_node3"><a xlink:title="/__w/AtomVM/AtomVM/src/libAtomVM/nifs.h">
<polygon fill="#bfbfbf" stroke="black" points="1074,-684 741,-684 741,-648 1074,-648 1074,-684"/>
<text text-anchor="middle" x="907.5" y="-662.3" font-family="Times,serif" font-size="14.00">/__w/AtomVM/AtomVM/src/libAtomVM/nifs.h</text>
</a>
</g>
</g>
<!-- 2 -->
<g id="node4" class="node">
<title>2</title>
<g id="a_node4"><a xlink:title="atom.h">
<polygon fill="#ffffff" stroke="black" points="1308.5,-396 1242.5,-396 1242.5,-360 1308.5,-360 1308.5,-396"/>
<text text-anchor="middle" x="1275.5" y="-374.3" font-family="Times,serif" font-size="14.00">atom.h</text>
</a>
</g>
</g>
<!-- 1&#45;&gt;2 -->
<g id="edge5" class="edge">
<title>1&#45;&gt;2</title>
<g id="a_edge5"><a xlink:title="include">
<path fill="none" stroke="#1414ce" d="M990.97,-647.95C1081.32,-624.56 1220.99,-572.85 1284.5,-468 1295.77,-449.4 1292.01,-424.51 1286.3,-405.78"/>
<polygon fill="#1414ce" stroke="#1414ce" points="1289.54,-404.43 1283.01,-396.09 1282.91,-406.68 1289.54,-404.43"/>
</a>
</g>
</g>
<!-- 5 -->
<g id="node11" class="node">
<title>5</title>
<g id="a_node11"><a xlink:title="context.h">
<polygon fill="#ffffff" stroke="black" points="949,-612 866,-612 866,-576 949,-576 949,-612"/>
<text text-anchor="middle" x="907.5" y="-590.3" font-family="Times,serif" font-size="14.00">context.h</text>
</a>
</g>
</g>
<!-- 1&#45;&gt;5 -->
<g id="edge6" class="edge">
<title>1&#45;&gt;5</title>
<g id="a_edge6"><a xlink:title="include">
<path fill="none" stroke="#1414ce" d="M907.5,-647.7C907.5,-639.98 907.5,-630.71 907.5,-622.11"/>
<polygon fill="#1414ce" stroke="#1414ce" points="911,-622.1 907.5,-612.1 904,-622.1 911,-622.1"/>
</a>
</g>
</g>
<!-- 28 -->
<g id="node17" class="node">
<title>28</title>
<g id="a_node17"><a xlink:title="exportedfunction.h">
<polygon fill="#ffffff" stroke="black" points="653.5,-540 501.5,-540 501.5,-504 653.5,-504 653.5,-540"/>
<text text-anchor="middle" x="577.5" y="-518.3" font-family="Times,serif" font-size="14.00">exportedfunction.h</text>
</a>
</g>
</g>
<!-- 1&#45;&gt;28 -->
<g id="edge7" class="edge">
<title>1&#45;&gt;28</title>
<g id="a_edge7"><a xlink:title="include">
<path fill="none" stroke="#1414ce" d="M867.69,-647.87C807.16,-621.82 692.08,-572.3 626.49,-544.08"/>
<polygon fill="#1414ce" stroke="#1414ce" points="627.76,-540.82 617.19,-540.08 624.99,-547.25 627.76,-540.82"/>
</a>
</g>
</g>
<!-- 3 -->
<g id="node9" class="node">
<title>3</title>
<g id="a_node9"><a xlink:title="stdint.h">
<polygon fill="#ffffff" stroke="black" points="824.5,-36 752.5,-36 752.5,0 824.5,0 824.5,-36"/>
<text text-anchor="middle" x="788.5" y="-14.3" font-family="Times,serif" font-size="14.00">stdint.h</text>
</a>
</g>
</g>
<!-- 2&#45;&gt;3 -->
<g id="edge8" class="edge">
<title>2&#45;&gt;3</title>
<g id="a_edge8"><a xlink:title="include">
<path fill="none" stroke="#1414ce" d="M1288.44,-359.66C1306.34,-333.88 1336.5,-283.3 1336.5,-235 1336.5,-235 1336.5,-235 1336.5,-161 1336.5,-57.77 967.53,-28.34 835.11,-21.1"/>
<polygon fill="#1414ce" stroke="#1414ce" points="835.05,-17.6 824.88,-20.56 834.68,-24.59 835.05,-17.6"/>
</a>
</g>
</g>
<!-- 2&#45;&gt;4 -->
<g id="edge9" class="edge">
<title>2&#45;&gt;4</title>
<g id="a_edge9"><a xlink:title="include">
<path fill="none" stroke="#1414ce" d="M1242.05,-363.97C1123.45,-317.75 722.8,-161.64 586.97,-108.72"/>
<polygon fill="#1414ce" stroke="#1414ce" points="587.87,-105.31 577.28,-104.94 585.33,-111.83 587.87,-105.31"/>
</a>
</g>
</g>
<!-- 11 -->
<g id="node5" class="node">
<title>11</title>
<g id="a_node5"><a xlink:title="assert.h">
<polygon fill="#ffffff" stroke="black" points="270.5,-36 196.5,-36 196.5,0 270.5,0 270.5,-36"/>
<text text-anchor="middle" x="233.5" y="-14.3" font-family="Times,serif" font-size="14.00">assert.h</text>
</a>
</g>
</g>
<!-- 16 -->
<g id="node6" class="node">
<title>16</title>
<g id="a_node6"><a xlink:title="utils.h">
<polygon fill="#ffffff" stroke="black" points="367.5,-180 305.5,-180 305.5,-144 367.5,-144 367.5,-180"/>
<text text-anchor="middle" x="336.5" y="-158.3" font-family="Times,serif" font-size="14.00">utils.h</text>
</a>
</g>
</g>
<!-- 16&#45;&gt;4 -->
<g id="edge12" class="edge">
<title>16&#45;&gt;4</title>
<g id="a_edge12"><a xlink:title="include">
<path fill="none" stroke="#1414ce" d="M367.64,-150.37C401.92,-138.66 457.34,-119.74 496.38,-106.41"/>
<polygon fill="#1414ce" stroke="#1414ce" points="497.6,-109.69 505.93,-103.15 495.34,-103.06 497.6,-109.69"/>
</a>
</g>
</g>
<!-- 17 -->
<g id="node15" class="node">
<title>17</title>
<g id="a_node15"><a xlink:title="stddef.h">
<polygon fill="#ffffff" stroke="black" points="288.5,-108 214.5,-108 214.5,-72 288.5,-72 288.5,-108"/>
<text text-anchor="middle" x="251.5" y="-86.3" font-family="Times,serif" font-size="14.00">stddef.h</text>
</a>
</g>
</g>
<!-- 16&#45;&gt;17 -->
<g id="edge10" class="edge">
<title>16&#45;&gt;17</title>
<g id="a_edge10"><a xlink:title="include">
<path fill="none" stroke="#1414ce" d="M315.49,-143.7C304.78,-134.88 291.61,-124.03 280,-114.47"/>
<polygon fill="#1414ce" stroke="#1414ce" points="282.21,-111.76 272.27,-108.1 277.76,-117.16 282.21,-111.76"/>
</a>
</g>
</g>
<!-- 18 -->
<g id="node27" class="node">
<title>18</title>
<g id="a_node27"><a xlink:title="stdio.h">
<polygon fill="#ffffff" stroke="black" points="372,-108 307,-108 307,-72 372,-72 372,-108"/>
<text text-anchor="middle" x="339.5" y="-86.3" font-family="Times,serif" font-size="14.00">stdio.h</text>
</a>
</g>
</g>
<!-- 16&#45;&gt;18 -->
<g id="edge11" class="edge">
<title>16&#45;&gt;18</title>
<g id="a_edge11"><a xlink:title="include">
<path fill="none" stroke="#1414ce" d="M337.24,-143.7C337.57,-135.98 337.97,-126.71 338.34,-118.11"/>
<polygon fill="#1414ce" stroke="#1414ce" points="341.84,-118.25 338.77,-108.1 334.84,-117.95 341.84,-118.25"/>
</a>
</g>
</g>
<!-- 20 -->
<g id="node7" class="node">
<title>20</title>
<g id="a_node7"><a xlink:title="synclist.h">
<polygon fill="#ffffff" stroke="black" points="1078,-252 993,-252 993,-216 1078,-216 1078,-252"/>
<text text-anchor="middle" x="1035.5" y="-230.3" font-family="Times,serif" font-size="14.00">synclist.h</text>
</a>
</g>
</g>
<!-- 20&#45;&gt;14 -->
<g id="edge14" class="edge">
<title>20&#45;&gt;14</title>
<g id="a_edge14"><a xlink:title="include">
<path fill="none" stroke="#1414ce" d="M999.54,-215.88C976.93,-205.11 947.84,-191.26 925.11,-180.43"/>
<polygon fill="#1414ce" stroke="#1414ce" points="926.33,-177.14 915.79,-176 923.32,-183.46 926.33,-177.14"/>
</a>
</g>
</g>
<!-- 19 -->
<g id="node24" class="node">
<title>19</title>
<g id="a_node24"><a xlink:title="smp.h">
<polygon fill="#ffffff" stroke="black" points="1223.5,-180 1163.5,-180 1163.5,-144 1223.5,-144 1223.5,-180"/>
<text text-anchor="middle" x="1193.5" y="-158.3" font-family="Times,serif" font-size="14.00">smp.h</text>
</a>
</g>
</g>
<!-- 20&#45;&gt;19 -->
<g id="edge15" class="edge">
<title>20&#45;&gt;19</title>
<g id="a_edge15"><a xlink:title="include">
<path fill="none" stroke="#1414ce" d="M1074.15,-215.88C1098.43,-205.12 1129.65,-191.29 1154.07,-180.47"/>
<polygon fill="#1414ce" stroke="#1414ce" points="1155.68,-183.58 1163.41,-176.33 1152.85,-177.18 1155.68,-183.58"/>
</a>
</g>
</g>
<!-- 20&#45;&gt;18 -->
<g id="edge13" class="edge">
<title>20&#45;&gt;18</title>
<g id="a_edge13"><a xlink:title="include">
<path fill="none" stroke="#1414ce" d="M1020.58,-216C1000.92,-194.92 964.18,-159.85 924.5,-144 836.07,-108.68 592.29,-117.09 497.5,-108 458.52,-104.26 414.18,-99.44 382.42,-95.89"/>
<polygon fill="#1414ce" stroke="#1414ce" points="382.49,-92.37 372.16,-94.74 381.71,-99.33 382.49,-92.37"/>
</a>
</g>
</g>
<!-- 5&#45;&gt;14 -->
<g id="edge17" class="edge">
<title>5&#45;&gt;14</title>
<g id="a_edge17"><a xlink:title="include">
<path fill="none" stroke="#1414ce" d="M903.66,-575.61C898.1,-548.94 888.5,-496.27 888.5,-451 888.5,-451 888.5,-451 888.5,-305 888.5,-265 888.5,-218.65 888.5,-190.08"/>
<polygon fill="#1414ce" stroke="#1414ce" points="892,-190.05 888.5,-180.05 885,-190.05 892,-190.05"/>
</a>
</g>
</g>
<!-- 21 -->
<g id="node14" class="node">
<title>21</title>
<g id="a_node14"><a xlink:title="term.h">
<polygon fill="#ffffff" stroke="black" points="578,-468 513,-468 513,-432 578,-432 578,-468"/>
<text text-anchor="middle" x="545.5" y="-446.3" font-family="Times,serif" font-size="14.00">term.h</text>
</a>
</g>
</g>
<!-- 5&#45;&gt;21 -->
<g id="edge20" class="edge">
<title>5&#45;&gt;21</title>
<g id="a_edge20"><a xlink:title="include">
<path fill="none" stroke="#1414ce" d="M865.97,-576.71C796.44,-549.44 657.24,-494.83 587.44,-467.45"/>
<polygon fill="#1414ce" stroke="#1414ce" points="588.65,-464.17 578.06,-463.77 586.09,-470.68 588.65,-464.17"/>
</a>
</g>
</g>
<!-- 6 -->
<g id="node23" class="node">
<title>6</title>
<g id="a_node23"><a xlink:title="globalcontext.h">
<polygon fill="#ffffff" stroke="black" points="1082,-540 955,-540 955,-504 1082,-504 1082,-540"/>
<text text-anchor="middle" x="1018.5" y="-518.3" font-family="Times,serif" font-size="14.00">globalcontext.h</text>
</a>
</g>
</g>
<!-- 5&#45;&gt;6 -->
<g id="edge16" class="edge">
<title>5&#45;&gt;6</title>
<g id="a_edge16"><a xlink:title="include">
<path fill="none" stroke="#1414ce" d="M934.65,-575.88C949.03,-566.81 966.88,-555.55 982.41,-545.76"/>
<polygon fill="#1414ce" stroke="#1414ce" points="984.65,-548.48 991.24,-540.19 980.92,-542.56 984.65,-548.48"/>
</a>
</g>
</g>
<!-- 5&#45;&gt;19 -->
<g id="edge19" class="edge">
<title>5&#45;&gt;19</title>
<g id="a_edge19"><a xlink:title="include">
<path fill="none" stroke="#1414ce" d="M949.12,-590.29C1025.24,-583.19 1187.92,-557.8 1284.5,-468 1321.26,-433.82 1331.41,-408.22 1317.5,-360 1297.64,-291.16 1245.82,-223.19 1215.83,-187.9"/>
<polygon fill="#1414ce" stroke="#1414ce" points="1218.24,-185.34 1209.06,-180.05 1212.94,-189.91 1218.24,-185.34"/>
</a>
</g>
</g>
<!-- 27 -->
<g id="node25" class="node">
<title>27</title>
<g id="a_node25"><a xlink:title="timer_list.h">
<polygon fill="#ffffff" stroke="black" points="1194.5,-252 1096.5,-252 1096.5,-216 1194.5,-216 1194.5,-252"/>
<text text-anchor="middle" x="1145.5" y="-230.3" font-family="Times,serif" font-size="14.00">timer_list.h</text>
</a>
</g>
</g>
<!-- 5&#45;&gt;27 -->
<g id="edge21" class="edge">
<title>5&#45;&gt;27</title>
<g id="a_edge21"><a xlink:title="include">
<path fill="none" stroke="#1414ce" d="M913.8,-575.75C920.78,-557.43 932.85,-527.87 946.5,-504 1001.43,-407.89 1084.85,-305.81 1123.91,-259.91"/>
<polygon fill="#1414ce" stroke="#1414ce" points="1126.61,-262.13 1130.44,-252.26 1121.29,-257.58 1126.61,-262.13"/>
</a>
</g>
</g>
<!-- 15 -->
<g id="node26" class="node">
<title>15</title>
<g id="a_node26"><a xlink:title="mailbox.h">
<polygon fill="#ffffff" stroke="black" points="784.5,-252 698.5,-252 698.5,-216 784.5,-216 784.5,-252"/>
<text text-anchor="middle" x="741.5" y="-230.3" font-family="Times,serif" font-size="14.00">mailbox.h</text>
</a>
</g>
</g>
<!-- 5&#45;&gt;15 -->
<g id="edge18" class="edge">
<title>5&#45;&gt;15</title>
<g id="a_edge18"><a xlink:title="include">
<path fill="none" stroke="#1414ce" d="M885.94,-575.78C857.91,-551.28 812.5,-503.5 812.5,-451 812.5,-451 812.5,-451 812.5,-377 812.5,-332.48 784.24,-287.61 763.37,-260.56"/>
<polygon fill="#1414ce" stroke="#1414ce" points="765.87,-258.07 756.91,-252.42 760.39,-262.43 765.87,-258.07"/>
</a>
</g>
</g>
<!-- 24 -->
<g id="node12" class="node">
<title>24</title>
<g id="a_node12"><a xlink:title="memory.h">
<polygon fill="#ffffff" stroke="black" points="403.5,-252 317.5,-252 317.5,-216 403.5,-216 403.5,-252"/>
<text text-anchor="middle" x="360.5" y="-230.3" font-family="Times,serif" font-size="14.00">memory.h</text>
</a>
</g>
</g>
<!-- 24&#45;&gt;16 -->
<g id="edge26" class="edge">
<title>24&#45;&gt;16</title>
<g id="a_edge26"><a xlink:title="include">
<path fill="none" stroke="#1414ce" d="M354.57,-215.7C351.89,-207.9 348.67,-198.51 345.7,-189.83"/>
<polygon fill="#1414ce" stroke="#1414ce" points="348.92,-188.43 342.36,-180.1 342.3,-190.7 348.92,-188.43"/>
</a>
</g>
</g>
<!-- 24&#45;&gt;3 -->
<g id="edge22" class="edge">
<title>24&#45;&gt;3</title>
<g id="a_edge22"><a xlink:title="include">
<path fill="none" stroke="#1414ce" d="M365.41,-216C376.08,-182.38 404.75,-107.6 457.5,-72 503.15,-41.19 662.2,-26.97 742.04,-21.65"/>
<polygon fill="#1414ce" stroke="#1414ce" points="742.54,-25.12 752.3,-20.98 742.09,-18.14 742.54,-25.12"/>
</a>
</g>
</g>
<!-- 24&#45;&gt;4 -->
<g id="edge23" class="edge">
<title>24&#45;&gt;4</title>
<g id="a_edge23"><a xlink:title="include">
<path fill="none" stroke="#1414ce" d="M382.33,-215.87C414.54,-190.6 474.89,-143.25 511.32,-114.68"/>
<polygon fill="#1414ce" stroke="#1414ce" points="513.88,-117.12 519.59,-108.19 509.56,-111.61 513.88,-117.12"/>
</a>
</g>
</g>
<!-- 9 -->
<g id="node16" class="node">
<title>9</title>
<g id="a_node16"><a xlink:title="erl_nif.h">
<polygon fill="#ffffff" stroke="black" points="173.5,-180 99.5,-180 99.5,-144 173.5,-144 173.5,-180"/>
<text text-anchor="middle" x="136.5" y="-158.3" font-family="Times,serif" font-size="14.00">erl_nif.h</text>
</a>
</g>
</g>
<!-- 24&#45;&gt;9 -->
<g id="edge24" class="edge">
<title>24&#45;&gt;9</title>
<g id="a_edge24"><a xlink:title="include">
<path fill="none" stroke="#1414ce" d="M317.4,-220.11C282.34,-209.56 231.63,-194.11 187.5,-180 186.08,-179.55 184.65,-179.08 183.19,-178.62"/>
<polygon fill="#1414ce" stroke="#1414ce" points="184.1,-175.23 173.51,-175.46 181.93,-181.89 184.1,-175.23"/>
</a>
</g>
</g>
<!-- 10 -->
<g id="node22" class="node">
<title>10</title>
<g id="a_node22"><a xlink:title="term_typedef.h">
<polygon fill="#ffffff" stroke="black" points="196,-108 71,-108 71,-72 196,-72 196,-108"/>
<text text-anchor="middle" x="133.5" y="-86.3" font-family="Times,serif" font-size="14.00">term_typedef.h</text>
</a>
</g>
</g>
<!-- 24&#45;&gt;10 -->
<g id="edge25" class="edge">
<title>24&#45;&gt;10</title>
<g id="a_edge25"><a xlink:title="include">
<path fill="none" stroke="#1414ce" d="M317.39,-220.89C289.8,-212.02 253.98,-198.32 225.5,-180 210.64,-170.44 178.74,-138.42 156.71,-115.52"/>
<polygon fill="#1414ce" stroke="#1414ce" points="159.09,-112.96 149.65,-108.16 154.04,-117.8 159.09,-112.96"/>
</a>
</g>
</g>
<!-- 26&#45;&gt;20 -->
<g id="edge31" class="edge">
<title>26&#45;&gt;20</title>
<g id="a_edge31"><a xlink:title="include">
<path fill="none" stroke="#1414ce" d="M666.63,-296.63C746.41,-283.3 901.55,-257.38 982.88,-243.79"/>
<polygon fill="#1414ce" stroke="#1414ce" points="983.61,-247.22 992.89,-242.12 982.45,-240.31 983.61,-247.22"/>
</a>
</g>
</g>
<!-- 26&#45;&gt;14 -->
<g id="edge29" class="edge">
<title>26&#45;&gt;14</title>
<g id="a_edge29"><a xlink:title="include">
<path fill="none" stroke="#1414ce" d="M666.66,-296.42C703.52,-288.63 753.87,-274.79 793.5,-252 809.08,-243.04 841.96,-210.87 864.64,-187.78"/>
<polygon fill="#1414ce" stroke="#1414ce" points="867.41,-189.95 871.9,-180.35 862.41,-185.06 867.41,-189.95"/>
</a>
</g>
</g>
<!-- 26&#45;&gt;4 -->
<g id="edge27" class="edge">
<title>26&#45;&gt;4</title>
<g id="a_edge27"><a xlink:title="include">
<path fill="none" stroke="#1414ce" d="M610.74,-287.55C600.92,-257.93 580.18,-195.98 561.5,-144 558.39,-135.35 554.89,-125.96 551.69,-117.51"/>
<polygon fill="#1414ce" stroke="#1414ce" points="554.95,-116.24 548.12,-108.13 548.41,-118.73 554.95,-116.24"/>
</a>
</g>
</g>
<!-- 26&#45;&gt;24 -->
<g id="edge30" class="edge">
<title>26&#45;&gt;24</title>
<g id="a_edge30"><a xlink:title="include">
<path fill="none" stroke="#1414ce" d="M566.23,-291.25C522.23,-279.22 458.52,-261.8 413.68,-249.54"/>
<polygon fill="#1414ce" stroke="#1414ce" points="414.41,-246.11 403.84,-246.85 412.57,-252.87 414.41,-246.11"/>
</a>
</g>
</g>
<!-- 26&#45;&gt;9 -->
<g id="edge28" class="edge">
<title>26&#45;&gt;9</title>
<g id="a_edge28"><a xlink:title="include">
<path fill="none" stroke="#1414ce" d="M566.27,-301.12C504.33,-295.26 396.46,-281.53 308.5,-252 258.61,-235.25 205.44,-205.71 171.64,-185.29"/>
<polygon fill="#1414ce" stroke="#1414ce" points="173.41,-182.27 163.06,-180.04 169.77,-188.25 173.41,-182.27"/>
</a>
</g>
</g>
<!-- 21&#45;&gt;8 -->
<g id="edge33" class="edge">
<title>21&#45;&gt;8</title>
<g id="a_edge33"><a xlink:title="include">
<path fill="none" stroke="#1414ce" d="M578.34,-445.57C631.8,-439.23 733.89,-423.74 755.5,-396 807.86,-328.78 648.67,-290.79 689.5,-216 724.32,-152.22 805.87,-118.83 859.83,-103.08"/>
<polygon fill="#1414ce" stroke="#1414ce" points="860.89,-106.42 869.57,-100.34 859,-99.68 860.89,-106.42"/>
</a>
</g>
</g>
<!-- 21&#45;&gt;25 -->
<g id="edge39" class="edge">
<title>21&#45;&gt;25</title>
<g id="a_edge39"><a xlink:title="include">
<path fill="none" stroke="#1414ce" d="M578.12,-433.46C598.48,-423.77 624.96,-411.16 647.32,-400.51"/>
<polygon fill="#1414ce" stroke="#1414ce" points="649.1,-403.55 656.62,-396.09 646.09,-397.23 649.1,-403.55"/>
</a>
</g>
</g>
<!-- 21&#45;&gt;16 -->
<g id="edge40" class="edge">
<title>21&#45;&gt;16</title>
<g id="a_edge40"><a xlink:title="include">
<path fill="none" stroke="#1414ce" d="M512.95,-445.32C459.29,-438.57 355.78,-422.42 331.5,-396 276.93,-336.62 289.09,-294.28 308.5,-216 310.79,-206.75 315.03,-197.34 319.52,-189.07"/>
<polygon fill="#1414ce" stroke="#1414ce" points="322.63,-190.68 324.61,-180.28 316.57,-187.17 322.63,-190.68"/>
</a>
</g>
</g>
<!-- 21&#45;&gt;3 -->
<g id="edge34" class="edge">
<title>21&#45;&gt;3</title>
<g id="a_edge34"><a xlink:title="include">
<path fill="none" stroke="#1414ce" d="M566.32,-431.62C575.96,-422.2 586.39,-409.7 591.5,-396 597.1,-381.01 599.17,-374.04 591.5,-360 577.32,-334.03 552.1,-348.49 535.5,-324 471.94,-230.25 424.94,-158.97 497.5,-72 528.13,-35.28 668.21,-23.94 742.28,-20.48"/>
<polygon fill="#1414ce" stroke="#1414ce" points="742.43,-23.98 752.27,-20.05 742.13,-16.99 742.43,-23.98"/>
</a>
</g>
</g>
<!-- 21&#45;&gt;4 -->
<g id="edge36" class="edge">
<title>21&#45;&gt;4</title>
<g id="a_edge36"><a xlink:title="include">
<path fill="none" stroke="#1414ce" d="M512.99,-448.71C475.27,-446.41 414.54,-436.21 385.5,-396 349.76,-346.51 471.65,-180.27 521.35,-116.34"/>
<polygon fill="#1414ce" stroke="#1414ce" points="524.18,-118.4 527.59,-108.37 518.67,-114.09 524.18,-118.4"/>
</a>
</g>
</g>
<!-- 21&#45;&gt;24 -->
<g id="edge38" class="edge">
<title>21&#45;&gt;24</title>
<g id="a_edge38"><a xlink:title="include">
<path fill="none" stroke="#1414ce" d="M512.72,-444.84C462.68,-437.74 370.99,-421.53 351.5,-396 321.81,-357.12 336.85,-296.3 349.38,-261.61"/>
<polygon fill="#1414ce" stroke="#1414ce" points="352.7,-262.74 352.98,-252.15 346.16,-260.25 352.7,-262.74"/>
</a>
</g>
</g>
<!-- 22 -->
<g id="node20" class="node">
<title>22</title>
<g id="a_node20"><a xlink:title="sys/types.h">
<polygon fill="#ffffff" stroke="black" points="491,-396 394,-396 394,-360 491,-360 491,-396"/>
<text text-anchor="middle" x="442.5" y="-374.3" font-family="Times,serif" font-size="14.00">sys/types.h</text>
</a>
</g>
</g>
<!-- 21&#45;&gt;22 -->
<g id="edge32" class="edge">
<title>21&#45;&gt;22</title>
<g id="a_edge32"><a xlink:title="include">
<path fill="none" stroke="#1414ce" d="M520.3,-431.88C507.09,-422.89 490.71,-411.76 476.39,-402.03"/>
<polygon fill="#1414ce" stroke="#1414ce" points="478.03,-398.92 467.79,-396.19 474.1,-404.71 478.03,-398.92"/>
</a>
</g>
</g>
<!-- 23 -->
<g id="node21" class="node">
<title>23</title>
<g id="a_node21"><a xlink:title="string.h">
<polygon fill="#ffffff" stroke="black" points="582,-396 509,-396 509,-360 582,-360 582,-396"/>
<text text-anchor="middle" x="545.5" y="-374.3" font-family="Times,serif" font-size="14.00">string.h</text>
</a>
</g>
</g>
<!-- 21&#45;&gt;23 -->
<g id="edge37" class="edge">
<title>21&#45;&gt;23</title>
<g id="a_edge37"><a xlink:title="include">
<path fill="none" stroke="#1414ce" d="M545.5,-431.7C545.5,-423.98 545.5,-414.71 545.5,-406.11"/>
<polygon fill="#1414ce" stroke="#1414ce" points="549,-406.1 545.5,-396.1 542,-406.1 549,-406.1"/>
</a>
</g>
</g>
<!-- 21&#45;&gt;10 -->
<g id="edge41" class="edge">
<title>21&#45;&gt;10</title>
<g id="a_edge41"><a xlink:title="include">
<path fill="none" stroke="#1414ce" d="M512.7,-449.7C458.16,-449.42 347.04,-442.58 268.5,-396 161.5,-332.55 132.53,-297.08 90.5,-180 85.09,-164.94 85.15,-159.08 90.5,-144 94.16,-133.68 100.79,-123.9 107.76,-115.61"/>
<polygon fill="#1414ce" stroke="#1414ce" points="110.37,-117.94 114.46,-108.16 105.17,-113.26 110.37,-117.94"/>
</a>
</g>
</g>
<!-- 21&#45;&gt;18 -->
<g id="edge35" class="edge">
<title>21&#45;&gt;18</title>
<g id="a_edge35"><a xlink:title="include">
<path fill="none" stroke="#1414ce" d="M512.66,-446.35C452.83,-440.84 329.53,-426.05 300.5,-396 222.67,-315.44 255.78,-248.35 296.5,-144 300.48,-133.79 307.2,-124.05 314.15,-115.76"/>
<polygon fill="#1414ce" stroke="#1414ce" points="316.76,-118.09 320.81,-108.29 311.54,-113.43 316.76,-118.09"/>
</a>
</g>
</g>
<!-- 9&#45;&gt;10 -->
<g id="edge42" class="edge">
<title>9&#45;&gt;10</title>
<g id="a_edge42"><a xlink:title="include">
<path fill="none" stroke="#1414ce" d="M135.76,-143.7C135.43,-135.98 135.03,-126.71 134.66,-118.11"/>
<polygon fill="#1414ce" stroke="#1414ce" points="138.16,-117.95 134.23,-108.1 131.16,-118.25 138.16,-117.95"/>
</a>
</g>
</g>
<!-- 28&#45;&gt;21 -->
<g id="edge43" class="edge">
<title>28&#45;&gt;21</title>
<g id="a_edge43"><a xlink:title="include">
<path fill="none" stroke="#1414ce" d="M569.59,-503.7C565.95,-495.73 561.55,-486.1 557.51,-477.26"/>
<polygon fill="#1414ce" stroke="#1414ce" points="560.66,-475.74 553.32,-468.1 554.29,-478.65 560.66,-475.74"/>
</a>
</g>
</g>
<!-- 12 -->
<g id="node18" class="node">
<title>12</title>
<g id="a_node18"><a xlink:title="limits.h">
<polygon fill="#ffffff" stroke="black" points="71,-36 0,-36 0,0 71,0 71,-36"/>
<text text-anchor="middle" x="35.5" y="-14.3" font-family="Times,serif" font-size="14.00">limits.h</text>
</a>
</g>
</g>
<!-- 7 -->
<g id="node19" class="node">
<title>7</title>
<g id="a_node19"><a xlink:title="atom_table.h">
<polygon fill="#ffffff" stroke="black" points="1254,-468 1145,-468 1145,-432 1254,-432 1254,-468"/>
<text text-anchor="middle" x="1199.5" y="-446.3" font-family="Times,serif" font-size="14.00">atom_table.h</text>
</a>
</g>
</g>
<!-- 7&#45;&gt;8 -->
<g id="edge44" class="edge">
<title>7&#45;&gt;8</title>
<g id="a_edge44"><a xlink:title="include">
<path fill="none" stroke="#1414ce" d="M1204.5,-431.8C1220.86,-373.98 1269.63,-187.76 1232.5,-144 1198.6,-104.04 1045.18,-94.16 963.33,-91.75"/>
<polygon fill="#1414ce" stroke="#1414ce" points="963.33,-88.25 953.24,-91.48 963.14,-95.25 963.33,-88.25"/>
</a>
</g>
</g>
<!-- 7&#45;&gt;2 -->
<g id="edge45" class="edge">
<title>7&#45;&gt;2</title>
<g id="a_edge45"><a xlink:title="include">
<path fill="none" stroke="#1414ce" d="M1218.29,-431.7C1227.67,-423.05 1239.18,-412.45 1249.41,-403.03"/>
<polygon fill="#1414ce" stroke="#1414ce" points="1251.95,-405.45 1256.93,-396.1 1247.2,-400.3 1251.95,-405.45"/>
</a>
</g>
</g>
<!-- 10&#45;&gt;11 -->
<g id="edge46" class="edge">
<title>10&#45;&gt;11</title>
<g id="a_edge46"><a xlink:title="include">
<path fill="none" stroke="#1414ce" d="M157.96,-71.88C170.8,-62.89 186.7,-51.76 200.59,-42.03"/>
<polygon fill="#1414ce" stroke="#1414ce" points="202.76,-44.79 208.94,-36.19 198.74,-39.06 202.76,-44.79"/>
</a>
</g>
</g>
<!-- 10&#45;&gt;3 -->
<g id="edge49" class="edge">
<title>10&#45;&gt;3</title>
<g id="a_edge49"><a xlink:title="include">
<path fill="none" stroke="#1414ce" d="M196.22,-73.64C199.35,-73.05 202.46,-72.49 205.5,-72 403.67,-39.76 643.17,-25.72 742.2,-20.99"/>
<polygon fill="#1414ce" stroke="#1414ce" points="742.63,-24.47 752.45,-20.5 742.3,-17.48 742.63,-24.47"/>
</a>
</g>
</g>
<!-- 10&#45;&gt;12 -->
<g id="edge47" class="edge">
<title>10&#45;&gt;12</title>
<g id="a_edge47"><a xlink:title="include">
<path fill="none" stroke="#1414ce" d="M109.53,-71.88C96.95,-62.89 81.37,-51.76 67.75,-42.03"/>
<polygon fill="#1414ce" stroke="#1414ce" points="69.74,-39.15 59.57,-36.19 65.67,-44.85 69.74,-39.15"/>
</a>
</g>
</g>
<!-- 13 -->
<g id="node28" class="node">
<title>13</title>
<g id="a_node28"><a xlink:title="inttypes.h">
<polygon fill="#ffffff" stroke="black" points="178,-36 89,-36 89,0 178,0 178,-36"/>
<text text-anchor="middle" x="133.5" y="-14.3" font-family="Times,serif" font-size="14.00">inttypes.h</text>
</a>
</g>
</g>
<!-- 10&#45;&gt;13 -->
<g id="edge48" class="edge">
<title>10&#45;&gt;13</title>
<g id="a_edge48"><a xlink:title="include">
<path fill="none" stroke="#1414ce" d="M133.5,-71.7C133.5,-63.98 133.5,-54.71 133.5,-46.11"/>
<polygon fill="#1414ce" stroke="#1414ce" points="137,-46.1 133.5,-36.1 130,-46.1 137,-46.1"/>
</a>
</g>
</g>
<!-- 6&#45;&gt;2 -->
<g id="edge51" class="edge">
<title>6&#45;&gt;2</title>
<g id="a_edge51"><a xlink:title="include">
<path fill="none" stroke="#1414ce" d="M1082.18,-515.44C1146.4,-508.46 1239.39,-494.09 1263.5,-468 1278.59,-451.67 1280.59,-425.92 1279.4,-406.31"/>
<polygon fill="#1414ce" stroke="#1414ce" points="1282.87,-405.79 1278.48,-396.14 1275.9,-406.42 1282.87,-405.79"/>
</a>
</g>
</g>
<!-- 6&#45;&gt;20 -->
<g id="edge57" class="edge">
<title>6&#45;&gt;20</title>
<g id="a_edge57"><a xlink:title="include">
<path fill="none" stroke="#1414ce" d="M1019.51,-503.97C1022.35,-456.29 1030.38,-321.18 1033.86,-262.63"/>
<polygon fill="#1414ce" stroke="#1414ce" points="1037.37,-262.5 1034.47,-252.31 1030.38,-262.08 1037.37,-262.5"/>
</a>
</g>
</g>
<!-- 6&#45;&gt;14 -->
<g id="edge54" class="edge">
<title>6&#45;&gt;14</title>
<g id="a_edge54"><a xlink:title="include">
<path fill="none" stroke="#1414ce" d="M1012.23,-503.73C991.29,-446.08 923.68,-259.89 898.27,-189.92"/>
<polygon fill="#1414ce" stroke="#1414ce" points="901.41,-188.3 894.71,-180.09 894.83,-190.69 901.41,-188.3"/>
</a>
</g>
</g>
<!-- 6&#45;&gt;3 -->
<g id="edge50" class="edge">
<title>6&#45;&gt;3</title>
<g id="a_edge50"><a xlink:title="include">
<path fill="none" stroke="#1414ce" d="M1082.29,-514.48C1150.43,-506.45 1252.89,-490.99 1284.5,-468 1350.79,-419.78 1374.5,-388.98 1374.5,-307 1374.5,-307 1374.5,-307 1374.5,-161 1374.5,-99.14 1324.42,-96.2 1267.5,-72 1190.17,-39.12 939.33,-25.21 834.84,-20.74"/>
<polygon fill="#1414ce" stroke="#1414ce" points="834.75,-17.23 824.61,-20.31 834.45,-24.23 834.75,-17.23"/>
</a>
</g>
</g>
<!-- 6&#45;&gt;21 -->
<g id="edge58" class="edge">
<title>6&#45;&gt;21</title>
<g id="a_edge58"><a xlink:title="include">
<path fill="none" stroke="#1414ce" d="M954.71,-511.56C856.67,-497.05 671.57,-469.66 588.16,-457.31"/>
<polygon fill="#1414ce" stroke="#1414ce" points="588.67,-453.85 578.27,-455.85 587.64,-460.78 588.67,-453.85"/>
</a>
</g>
</g>
<!-- 6&#45;&gt;9 -->
<g id="edge53" class="edge">
<title>6&#45;&gt;9</title>
<g id="a_edge53"><a xlink:title="include">
<path fill="none" stroke="#1414ce" d="M954.94,-517.79C748.42,-506.51 109.5,-464.7 109.5,-379 109.5,-379 109.5,-379 109.5,-305 109.5,-264.5 120.23,-218.63 128.16,-190.26"/>
<polygon fill="#1414ce" stroke="#1414ce" points="131.63,-190.87 131.04,-180.29 124.9,-188.93 131.63,-190.87"/>
</a>
</g>
</g>
<!-- 6&#45;&gt;7 -->
<g id="edge52" class="edge">
<title>6&#45;&gt;7</title>
<g id="a_edge52"><a xlink:title="include">
<path fill="none" stroke="#1414ce" d="M1062.78,-503.88C1087.85,-494.18 1119.4,-481.98 1145.87,-471.74"/>
<polygon fill="#1414ce" stroke="#1414ce" points="1147.3,-474.94 1155.37,-468.07 1144.78,-468.41 1147.3,-474.94"/>
</a>
</g>
</g>
<!-- 6&#45;&gt;19 -->
<g id="edge56" class="edge">
<title>6&#45;&gt;19</title>
<g id="a_edge56"><a xlink:title="include">
<path fill="none" stroke="#1414ce" d="M1036.27,-503.92C1076.05,-464.26 1171.27,-360.98 1203.5,-252 1209.51,-231.68 1206.29,-207.78 1201.96,-189.86"/>
<polygon fill="#1414ce" stroke="#1414ce" points="1205.31,-188.84 1199.35,-180.08 1198.55,-190.65 1205.31,-188.84"/>
</a>
</g>
</g>
<!-- 6&#45;&gt;27 -->
<g id="edge59" class="edge">
<title>6&#45;&gt;27</title>
<g id="a_edge59"><a xlink:title="include">
<path fill="none" stroke="#1414ce" d="M1026.06,-503.97C1047.37,-455.99 1107.98,-319.5 1133.71,-261.54"/>
<polygon fill="#1414ce" stroke="#1414ce" points="1136.96,-262.87 1137.81,-252.31 1130.56,-260.03 1136.96,-262.87"/>
</a>
</g>
</g>
<!-- 6&#45;&gt;15 -->
<g id="edge55" class="edge">
<title>6&#45;&gt;15</title>
<g id="a_edge55"><a xlink:title="include">
<path fill="none" stroke="#1414ce" d="M992.74,-503.79C979.32,-494.15 963.13,-481.4 950.5,-468 883.86,-397.32 896.74,-355.11 826.5,-288 814.11,-276.16 798.66,-265.58 784.35,-257.05"/>
<polygon fill="#1414ce" stroke="#1414ce" points="786.03,-253.98 775.62,-252.01 782.53,-260.04 786.03,-253.98"/>
</a>
</g>
</g>
<!-- 19&#45;&gt;8 -->
<g id="edge60" class="edge">
<title>19&#45;&gt;8</title>
<g id="a_edge60"><a xlink:title="include">
<path fill="none" stroke="#1414ce" d="M1163.32,-153.51C1115.5,-141.64 1021.75,-118.37 963.11,-103.81"/>
<polygon fill="#1414ce" stroke="#1414ce" points="963.85,-100.39 953.3,-101.38 962.16,-107.18 963.85,-100.39"/>
</a>
</g>
</g>
<!-- 27&#45;&gt;8 -->
<g id="edge61" class="edge">
<title>27&#45;&gt;8</title>
<g id="a_edge61"><a xlink:title="include">
<path fill="none" stroke="#1414ce" d="M1118.99,-215.97C1090.6,-197.83 1044.15,-168.43 1003.5,-144 986.3,-133.66 967.1,-122.54 950.7,-113.16"/>
<polygon fill="#1414ce" stroke="#1414ce" points="952.33,-110.06 941.91,-108.14 948.87,-116.14 952.33,-110.06"/>
</a>
</g>
</g>
<!-- 27&#45;&gt;14 -->
<g id="edge63" class="edge">
<title>27&#45;&gt;14</title>
<g id="a_edge63"><a xlink:title="include">
<path fill="none" stroke="#1414ce" d="M1096.48,-218.54C1093.44,-217.67 1090.43,-216.82 1087.5,-216 1031.12,-200.23 965.45,-182.95 925.44,-172.54"/>
<polygon fill="#1414ce" stroke="#1414ce" points="926.15,-169.11 915.6,-169.99 924.39,-175.89 926.15,-169.11"/>
</a>
</g>
</g>
<!-- 27&#45;&gt;3 -->
<g id="edge62" class="edge">
<title>27&#45;&gt;3</title>
<g id="a_edge62"><a xlink:title="include">
<path fill="none" stroke="#1414ce" d="M1130.67,-215.77C1101.63,-183.07 1033.85,-111.73 962.5,-72 922.02,-49.46 870.8,-35.35 834.43,-27.41"/>
<polygon fill="#1414ce" stroke="#1414ce" points="835.1,-23.97 824.59,-25.33 833.65,-30.82 835.1,-23.97"/>
</a>
</g>
</g>
<!-- 15&#45;&gt;8 -->
<g id="edge64" class="edge">
<title>15&#45;&gt;8</title>
<g id="a_edge64"><a xlink:title="include">
<path fill="none" stroke="#1414ce" d="M762.01,-215.87C792.26,-190.6 848.94,-143.25 883.15,-114.68"/>
<polygon fill="#1414ce" stroke="#1414ce" points="885.49,-117.29 890.92,-108.19 881,-111.91 885.49,-117.29"/>
</a>
</g>
</g>
<!-- 15&#45;&gt;16 -->
<g id="edge67" class="edge">
<title>15&#45;&gt;16</title>
<g id="a_edge67"><a xlink:title="include">
<path fill="none" stroke="#1414ce" d="M698.16,-225.51C619.62,-211.93 454.78,-183.44 377.78,-170.13"/>
<polygon fill="#1414ce" stroke="#1414ce" points="377.96,-166.61 367.51,-168.36 376.77,-173.51 377.96,-166.61"/>
</a>
</g>
</g>
<!-- 15&#45;&gt;14 -->
<g id="edge65" class="edge">
<title>15&#45;&gt;14</title>
<g id="a_edge65"><a xlink:title="include">
<path fill="none" stroke="#1414ce" d="M777.46,-215.88C800.07,-205.11 829.16,-191.26 851.89,-180.43"/>
<polygon fill="#1414ce" stroke="#1414ce" points="853.68,-183.46 861.21,-176 850.67,-177.14 853.68,-183.46"/>
</a>
</g>
</g>
<!-- 15&#45;&gt;10 -->
<g id="edge66" class="edge">
<title>15&#45;&gt;10</title>
<g id="a_edge66"><a xlink:title="include">
<path fill="none" stroke="#1414ce" d="M698.33,-233.24C617.5,-232.52 438.61,-225.39 296.5,-180 271.02,-171.86 210.08,-136.87 170.36,-113.27"/>
<polygon fill="#1414ce" stroke="#1414ce" points="172.12,-110.24 161.73,-108.12 168.53,-116.25 172.12,-110.24"/>
</a>
</g>
</g>
</g>
</svg>
