<?xml version="1.0" encoding="UTF-8" standalone="no"?>
<!DOCTYPE svg PUBLIC "-//W3C//DTD SVG 1.1//EN"
 "http://www.w3.org/Graphics/SVG/1.1/DTD/svg11.dtd">
<!-- Generated by graphviz version 2.43.0 (0)
 -->
<!-- Title: %3 Pages: 1 -->
<svg width="4479pt" height="188pt"
 viewBox="0.00 0.00 4479.00 188.00" xmlns="http://www.w3.org/2000/svg" xmlns:xlink="http://www.w3.org/1999/xlink">
<g id="graph0" class="graph" transform="scale(1 1) rotate(0) translate(4 184)">
<title>%3</title>
<polygon fill="transparent" stroke="transparent" points="-4,4 -4,-184 4475,-184 4475,4 -4,4"/>
<!-- 6 -->
<g id="node1" class="node">
<title>6</title>
<g id="a_node1"><a xlink:title="/__w/AtomVM/AtomVM/src/libAtomVM/interop.c">
<polygon fill="#ffffff" stroke="black" points="808.5,-108 451.5,-108 451.5,-72 808.5,-72 808.5,-108"/>
<text text-anchor="middle" x="630" y="-86.3" font-family="Times,serif" font-size="14.00">/__w/AtomVM/AtomVM/src/libAtomVM/interop.c</text>
</a>
</g>
</g>
<!-- 7 -->
<g id="node2" class="node">
<title>7</title>
<g id="a_node2"><a xlink:title="/__w/AtomVM/AtomVM/src/libAtomVM/nifs.c">
<polygon fill="#ffffff" stroke="black" points="332,-36 0,-36 0,0 332,0 332,-36"/>
<text text-anchor="middle" x="166" y="-14.3" font-family="Times,serif" font-size="14.00">/__w/AtomVM/AtomVM/src/libAtomVM/nifs.c</text>
</a>
</g>
</g>
<!-- 1 -->
<g id="node3" class="node">
<title>1</title>
<g id="a_node3"><a xlink:title="/__w/AtomVM/AtomVM/src/libAtomVM/defaultatoms.h">
<polygon fill="#bfbfbf" stroke="black" points="1761.5,-180 1360.5,-180 1360.5,-144 1761.5,-144 1761.5,-180"/>
<text text-anchor="middle" x="1561" y="-158.3" font-family="Times,serif" font-size="14.00">/__w/AtomVM/AtomVM/src/libAtomVM/defaultatoms.h</text>
</a>
</g>
</g>
<!-- 1&#45;&gt;6 -->
<g id="edge5" class="edge">
<title>1&#45;&gt;6</title>
<g id="a_edge5"><a xlink:title="include">
<path fill="none" stroke="#1414ce" d="M1350.38,-146.78C1202.71,-136.59 1000.74,-122.21 823,-108 818.31,-107.62 813.55,-107.24 808.75,-106.85"/>
<polygon fill="#1414ce" stroke="#1414ce" points="1350.25,-150.28 1360.47,-147.48 1350.73,-143.3 1350.25,-150.28"/>
</a>
</g>
</g>
<!-- 1&#45;&gt;7 -->
<g id="edge6" class="edge">
<title>1&#45;&gt;7</title>
<g id="a_edge6"><a xlink:title="include">
<path fill="none" stroke="#1414ce" d="M1350.16,-152.97C1157.24,-144.37 895.26,-129.07 851,-108 831.13,-98.54 836.87,-81.47 817,-72 721.24,-26.36 446.69,-45.13 341,-36 338.11,-35.75 335.2,-35.5 332.26,-35.24"/>
<polygon fill="#1414ce" stroke="#1414ce" points="1350.01,-156.47 1360.15,-153.41 1350.32,-149.48 1350.01,-156.47"/>
</a>
</g>
</g>
<!-- 4 -->
<g id="node4" class="node">
<title>4</title>
<g id="a_node4"><a xlink:title="/__w/AtomVM/AtomVM/src/libAtomVM/dictionary.c">
<polygon fill="#ffffff" stroke="black" points="1748.5,-108 1373.5,-108 1373.5,-72 1748.5,-72 1748.5,-108"/>
<text text-anchor="middle" x="1561" y="-86.3" font-family="Times,serif" font-size="14.00">/__w/AtomVM/AtomVM/src/libAtomVM/dictionary.c</text>
</a>
</g>
</g>
<!-- 1&#45;&gt;4 -->
<g id="edge3" class="edge">
<title>1&#45;&gt;4</title>
<g id="a_edge3"><a xlink:title="include">
<path fill="none" stroke="#1414ce" d="M1561,-133.67C1561,-125.05 1561,-115.79 1561,-108.1"/>
<polygon fill="#1414ce" stroke="#1414ce" points="1557.5,-133.7 1561,-143.7 1564.5,-133.7 1557.5,-133.7"/>
</a>
</g>
</g>
<!-- 3 -->
<g id="node5" class="node">
<title>3</title>
<g id="a_node5"><a xlink:title="/__w/AtomVM/AtomVM/src/libAtomVM/context.c">
<polygon fill="#ffffff" stroke="black" points="2125.5,-108 1766.5,-108 1766.5,-72 2125.5,-72 2125.5,-108"/>
<text text-anchor="middle" x="1946" y="-86.3" font-family="Times,serif" font-size="14.00">/__w/AtomVM/AtomVM/src/libAtomVM/context.c</text>
</a>
</g>
</g>
<!-- 1&#45;&gt;3 -->
<g id="edge2" class="edge">
<title>1&#45;&gt;3</title>
<g id="a_edge2"><a xlink:title="include">
<path fill="none" stroke="#1414ce" d="M1664.68,-142.15C1723.1,-131.53 1795.5,-118.36 1852.22,-108.05"/>
<polygon fill="#1414ce" stroke="#1414ce" points="1663.9,-138.73 1654.69,-143.97 1665.15,-145.62 1663.9,-138.73"/>
</a>
</g>
</g>
<!-- 2 -->
<g id="node6" class="node">
<title>2</title>
<g id="a_node6"><a xlink:title="/__w/AtomVM/AtomVM/src/libAtomVM/bif.c">
<polygon fill="#ffffff" stroke="black" points="2466.5,-108 2143.5,-108 2143.5,-72 2466.5,-72 2466.5,-108"/>
<text text-anchor="middle" x="2305" y="-86.3" font-family="Times,serif" font-size="14.00">/__w/AtomVM/AtomVM/src/libAtomVM/bif.c</text>
</a>
</g>
</g>
<!-- 1&#45;&gt;2 -->
<g id="edge1" class="edge">
<title>1&#45;&gt;2</title>
<g id="a_edge1"><a xlink:title="include">
<path fill="none" stroke="#1414ce" d="M1759.37,-143.06C1869.95,-132.96 2010.14,-120.01 2135,-108 2137.8,-107.73 2140.64,-107.46 2143.49,-107.18"/>
<polygon fill="#1414ce" stroke="#1414ce" points="1758.75,-139.6 1749.11,-143.99 1759.38,-146.57 1758.75,-139.6"/>
</a>
</g>
</g>
<!-- 8 -->
<g id="node7" class="node">
<title>8</title>
<g id="a_node7"><a xlink:title="/__w/AtomVM/AtomVM/src/libAtomVM/otp_crypto.c">
<polygon fill="#ffffff" stroke="black" points="2865.5,-108 2484.5,-108 2484.5,-72 2865.5,-72 2865.5,-108"/>
<text text-anchor="middle" x="2675" y="-86.3" font-family="Times,serif" font-size="14.00">/__w/AtomVM/AtomVM/src/libAtomVM/otp_crypto.c</text>
</a>
</g>
</g>
<!-- 1&#45;&gt;8 -->
<g id="edge7" class="edge">
<title>1&#45;&gt;8</title>
<g id="a_edge7"><a xlink:title="include">
<path fill="none" stroke="#1414ce" d="M1772.06,-150.42C1957.58,-140.72 2234.83,-125.28 2476,-108 2478.77,-107.8 2481.56,-107.6 2484.36,-107.39"/>
<polygon fill="#1414ce" stroke="#1414ce" points="1771.72,-146.93 1761.91,-150.95 1772.08,-153.92 1771.72,-146.93"/>
</a>
</g>
</g>
<!-- 9 -->
<g id="node8" class="node">
<title>9</title>
<g id="a_node8"><a xlink:title="/__w/AtomVM/AtomVM/src/libAtomVM/otp_net.c">
<polygon fill="#ffffff" stroke="black" points="709.5,-36 350.5,-36 350.5,0 709.5,0 709.5,-36"/>
<text text-anchor="middle" x="530" y="-14.3" font-family="Times,serif" font-size="14.00">/__w/AtomVM/AtomVM/src/libAtomVM/otp_net.c</text>
</a>
</g>
</g>
<!-- 1&#45;&gt;9 -->
<g id="edge8" class="edge">
<title>1&#45;&gt;9</title>
<g id="a_edge8"><a xlink:title="include">
<path fill="none" stroke="#1414ce" d="M1350.03,-158.11C1186.23,-153.29 973.98,-140.7 894,-108 870.93,-98.57 873.65,-82.4 851,-72 820.2,-57.86 747.74,-45.33 679.45,-36.01"/>
<polygon fill="#1414ce" stroke="#1414ce" points="1350.15,-161.61 1360.25,-158.4 1350.35,-154.61 1350.15,-161.61"/>
</a>
</g>
</g>
<!-- 16 -->
<g id="node9" class="node">
<title>16</title>
<g id="a_node9"><a xlink:title="/__w/AtomVM/AtomVM/src/libAtomVM/resources.c">
<polygon fill="#ffffff" stroke="black" points="3258.5,-108 2883.5,-108 2883.5,-72 3258.5,-72 3258.5,-108"/>
<text text-anchor="middle" x="3071" y="-86.3" font-family="Times,serif" font-size="14.00">/__w/AtomVM/AtomVM/src/libAtomVM/resources.c</text>
</a>
</g>
</g>
<!-- 1&#45;&gt;16 -->
<g id="edge14" class="edge">
<title>1&#45;&gt;16</title>
<g id="a_edge14"><a xlink:title="include">
<path fill="none" stroke="#1414ce" d="M1771.8,-155.5C2031.48,-148.03 2486.01,-132.7 2875,-108 2877.81,-107.82 2880.65,-107.64 2883.5,-107.45"/>
<polygon fill="#1414ce" stroke="#1414ce" points="1771.4,-152.01 1761.5,-155.79 1771.6,-159 1771.4,-152.01"/>
</a>
</g>
</g>
<!-- 5 -->
<g id="node11" class="node">
<title>5</title>
<g id="a_node11"><a xlink:title="/__w/AtomVM/AtomVM/src/libAtomVM/globalcontext.c">
<polygon fill="#ffffff" stroke="black" points="3679,-108 3277,-108 3277,-72 3679,-72 3679,-108"/>
<text text-anchor="middle" x="3478" y="-86.3" font-family="Times,serif" font-size="14.00">/__w/AtomVM/AtomVM/src/libAtomVM/globalcontext.c</text>
</a>
</g>
</g>
<!-- 1&#45;&gt;5 -->
<g id="edge4" class="edge">
<title>1&#45;&gt;5</title>
<g id="a_edge4"><a xlink:title="include">
<path fill="none" stroke="#1414ce" d="M1771.91,-157.82C2094.44,-152.2 2729.52,-138.14 3268,-108 3270.92,-107.84 3273.87,-107.67 3276.83,-107.49"/>
<polygon fill="#1414ce" stroke="#1414ce" points="1771.45,-154.33 1761.52,-158 1771.58,-161.33 1771.45,-154.33"/>
</a>
</g>
</g>
<!-- 10 -->
<g id="node12" class="node">
<title>10</title>
<g id="a_node12"><a xlink:title="/__w/AtomVM/AtomVM/src/libAtomVM/otp_socket.c">
<polygon fill="#ffffff" stroke="black" points="1459.5,-36 1078.5,-36 1078.5,0 1459.5,0 1459.5,-36"/>
<text text-anchor="middle" x="1269" y="-14.3" font-family="Times,serif" font-size="14.00">/__w/AtomVM/AtomVM/src/libAtomVM/otp_socket.c</text>
</a>
</g>
</g>
<!-- 1&#45;&gt;10 -->
<g id="edge9" class="edge">
<title>1&#45;&gt;10</title>
<g id="a_edge9"><a xlink:title="include">
<path fill="none" stroke="#1414ce" d="M1426.41,-142.14C1379.71,-133.47 1334.41,-121.97 1316,-108 1292.33,-90.05 1279.37,-56.69 1273.34,-36.31"/>
<polygon fill="#1414ce" stroke="#1414ce" points="1425.93,-145.61 1436.39,-143.95 1427.18,-138.72 1425.93,-145.61"/>
</a>
</g>
</g>
<!-- 17 -->
<g id="node13" class="node">
<title>17</title>
<g id="a_node13"><a xlink:title="/__w/AtomVM/AtomVM/src/libAtomVM/stacktrace.c">
<polygon fill="#ffffff" stroke="black" points="4077,-108 3697,-108 3697,-72 4077,-72 4077,-108"/>
<text text-anchor="middle" x="3887" y="-86.3" font-family="Times,serif" font-size="14.00">/__w/AtomVM/AtomVM/src/libAtomVM/stacktrace.c</text>
</a>
</g>
</g>
<!-- 1&#45;&gt;17 -->
<g id="edge15" class="edge">
<title>1&#45;&gt;17</title>
<g id="a_edge15"><a xlink:title="include">
<path fill="none" stroke="#1414ce" d="M1771.73,-159.96C2153.92,-157.13 2986.76,-146.65 3688,-108 3690.94,-107.84 3693.91,-107.67 3696.9,-107.49"/>
<polygon fill="#1414ce" stroke="#1414ce" points="1771.65,-156.46 1761.67,-160.03 1771.7,-163.46 1771.65,-156.46"/>
</a>
</g>
</g>
<!-- 11 -->
<g id="node14" class="node">
<title>11</title>
<g id="a_node14"><a xlink:title="/__w/AtomVM/AtomVM/src/libAtomVM/otp_ssl.c">
<polygon fill="#ffffff" stroke="black" points="1832.5,-36 1477.5,-36 1477.5,0 1832.5,0 1832.5,-36"/>
<text text-anchor="middle" x="1655" y="-14.3" font-family="Times,serif" font-size="14.00">/__w/AtomVM/AtomVM/src/libAtomVM/otp_ssl.c</text>
</a>
</g>
</g>
<!-- 1&#45;&gt;11 -->
<g id="edge10" class="edge">
<title>1&#45;&gt;11</title>
<g id="a_edge10"><a xlink:title="include">
<path fill="none" stroke="#1414ce" d="M1389.96,-141.67C1337.65,-128.78 1300.92,-107.4 1331,-72 1342.44,-58.54 1418.82,-45.68 1494.53,-36"/>
<polygon fill="#1414ce" stroke="#1414ce" points="1389.37,-145.12 1399.9,-143.97 1390.95,-138.3 1389.37,-145.12"/>
</a>
</g>
</g>
<!-- 15 -->
<g id="node15" class="node">
<title>15</title>
<g id="a_node15"><a xlink:title="/__w/AtomVM/AtomVM/src/libAtomVM/posix_nifs.c">
<polygon fill="#ffffff" stroke="black" points="4471,-108 4095,-108 4095,-72 4471,-72 4471,-108"/>
<text text-anchor="middle" x="4283" y="-86.3" font-family="Times,serif" font-size="14.00">/__w/AtomVM/AtomVM/src/libAtomVM/posix_nifs.c</text>
</a>
</g>
</g>
<!-- 1&#45;&gt;15 -->
<g id="edge13" class="edge">
<title>1&#45;&gt;15</title>
<g id="a_edge13"><a xlink:title="include">
<path fill="none" stroke="#1414ce" d="M1771.78,-161.21C2205.37,-160.61 3228.57,-153.95 4086,-108 4088.91,-107.84 4091.85,-107.68 4094.81,-107.51"/>
<polygon fill="#1414ce" stroke="#1414ce" points="1771.64,-157.71 1761.65,-161.22 1771.65,-164.71 1771.64,-157.71"/>
</a>
</g>
</g>
<!-- 12 -->
<g id="node16" class="node">
<title>12</title>
<g id="a_node16"><a xlink:title="/__w/AtomVM/AtomVM/src/libAtomVM/port.c">
<polygon fill="#ffffff" stroke="black" points="2185.5,-36 1850.5,-36 1850.5,0 2185.5,0 2185.5,-36"/>
<text text-anchor="middle" x="2018" y="-14.3" font-family="Times,serif" font-size="14.00">/__w/AtomVM/AtomVM/src/libAtomVM/port.c</text>
</a>
</g>
</g>
<!-- 1&#45;&gt;12 -->
<g id="edge11" class="edge">
<title>1&#45;&gt;12</title>
<g id="a_edge11"><a xlink:title="include">
<path fill="none" stroke="#1414ce" d="M1433.66,-141.61C1378.7,-128.02 1333.42,-106.06 1365,-72 1401.14,-33.03 1789.04,-40.56 1842,-36 1844.75,-35.76 1847.53,-35.52 1850.32,-35.28"/>
<polygon fill="#1414ce" stroke="#1414ce" points="1433.11,-145.08 1443.65,-143.97 1434.72,-138.26 1433.11,-145.08"/>
</a>
</g>
</g>
<!-- 13 -->
<g id="node17" class="node">
<title>13</title>
<g id="a_node17"><a xlink:title="/__w/AtomVM/AtomVM/src/libAtomVM/port.h">
<polygon fill="#ffffff" stroke="black" points="1240.5,-108 903.5,-108 903.5,-72 1240.5,-72 1240.5,-108"/>
<text text-anchor="middle" x="1072" y="-86.3" font-family="Times,serif" font-size="14.00">/__w/AtomVM/AtomVM/src/libAtomVM/port.h</text>
</a>
</g>
</g>
<!-- 1&#45;&gt;13 -->
<g id="edge12" class="edge">
<title>1&#45;&gt;13</title>
<g id="a_edge12"><a xlink:title="include">
<path fill="none" stroke="#1414ce" d="M1432.06,-142.54C1357.39,-131.85 1264.04,-118.49 1191.11,-108.05"/>
<polygon fill="#1414ce" stroke="#1414ce" points="1431.61,-146.01 1442,-143.97 1432.6,-139.08 1431.61,-146.01"/>
</a>
</g>
</g>
<!-- 14 -->
<g id="node10" class="node">
<title>14</title>
<g id="a_node10"><a xlink:title="/__w/AtomVM/AtomVM/src/libAtomVM/inet.c">
<polygon fill="#ffffff" stroke="black" points="1060.5,-36 727.5,-36 727.5,0 1060.5,0 1060.5,-36"/>
<text text-anchor="middle" x="894" y="-14.3" font-family="Times,serif" font-size="14.00">/__w/AtomVM/AtomVM/src/libAtomVM/inet.c</text>
</a>
</g>
</g>
<!-- 13&#45;&gt;7 -->
<g id="edge17" class="edge">
<title>13&#45;&gt;7</title>
<g id="a_edge17"><a xlink:title="include">
<path fill="none" stroke="#1414ce" d="M893.02,-75.14C878.8,-74.06 864.67,-73.01 851,-72 624.38,-55.29 567.44,-54.99 341,-36 338.11,-35.76 335.19,-35.51 332.26,-35.26"/>
<polygon fill="#1414ce" stroke="#1414ce" points="893.15,-78.66 903.38,-75.92 893.67,-71.68 893.15,-78.66"/>
</a>
</g>
</g>
<!-- 13&#45;&gt;9 -->
<g id="edge18" class="edge">
<title>13&#45;&gt;9</title>
<g id="a_edge18"><a xlink:title="include">
<path fill="none" stroke="#1414ce" d="M930.1,-70.67C847.17,-59.96 743.19,-46.53 662.02,-36.05"/>
<polygon fill="#1414ce" stroke="#1414ce" points="929.74,-74.16 940.1,-71.97 930.64,-67.21 929.74,-74.16"/>
</a>
</g>
</g>
<!-- 13&#45;&gt;14 -->
<g id="edge16" class="edge">
<title>13&#45;&gt;14</title>
<g id="a_edge16"><a xlink:title="include">
<path fill="none" stroke="#1414ce" d="M1019.1,-68.2C993.05,-57.95 962.04,-45.76 937.4,-36.07"/>
<polygon fill="#1414ce" stroke="#1414ce" points="1017.87,-71.47 1028.46,-71.88 1020.43,-64.96 1017.87,-71.47"/>
</a>
</g>
</g>
<!-- 13&#45;&gt;10 -->
<g id="edge19" class="edge">
<title>13&#45;&gt;10</title>
<g id="a_edge19"><a xlink:title="include">
<path fill="none" stroke="#1414ce" d="M1129.53,-68.56C1158.53,-58.25 1193.28,-45.9 1220.85,-36.11"/>
<polygon fill="#1414ce" stroke="#1414ce" points="1128.19,-65.32 1119.94,-71.97 1130.53,-71.92 1128.19,-65.32"/>
</a>
</g>
</g>
<!-- 13&#45;&gt;11 -->
<g id="edge20" class="edge">
<title>13&#45;&gt;11</title>
<g id="a_edge20"><a xlink:title="include">
<path fill="none" stroke="#1414ce" d="M1223.83,-70.77C1313.25,-60.03 1425.64,-46.54 1513.25,-36.02"/>
<polygon fill="#1414ce" stroke="#1414ce" points="1223.38,-67.3 1213.87,-71.97 1224.22,-74.25 1223.38,-67.3"/>
</a>
</g>
</g>
<!-- 13&#45;&gt;12 -->
<g id="edge21" class="edge">
<title>13&#45;&gt;12</title>
<g id="a_edge21"><a xlink:title="include">
<path fill="none" stroke="#1414ce" d="M1250.66,-77.28C1441.49,-64.65 1731.39,-45.15 1842,-36 1844.75,-35.77 1847.53,-35.54 1850.33,-35.3"/>
<polygon fill="#1414ce" stroke="#1414ce" points="1250.27,-73.79 1240.52,-77.95 1250.73,-80.78 1250.27,-73.79"/>
</a>
</g>
</g>
</g>
</svg>
