<?xml version="1.0" encoding="UTF-8" standalone="no"?>
<!DOCTYPE svg PUBLIC "-//W3C//DTD SVG 1.1//EN"
 "http://www.w3.org/Graphics/SVG/1.1/DTD/svg11.dtd">
<!-- Generated by graphviz version 2.43.0 (0)
 -->
<!-- Title: %3 Pages: 1 -->
<svg width="1640pt" height="764pt"
 viewBox="0.00 0.00 1640.00 764.00" xmlns="http://www.w3.org/2000/svg" xmlns:xlink="http://www.w3.org/1999/xlink">
<g id="graph0" class="graph" transform="scale(1 1) rotate(0) translate(4 760)">
<title>%3</title>
<polygon fill="transparent" stroke="transparent" points="-4,4 -4,-760 1636,-760 1636,4 -4,4"/>
<!-- 9 -->
<g id="node1" class="node">
<title>9</title>
<g id="a_node1"><a xlink:title="stdbool.h">
<polygon fill="#ffffff" stroke="black" points="707.5,-108 624.5,-108 624.5,-72 707.5,-72 707.5,-108"/>
<text text-anchor="middle" x="666" y="-86.3" font-family="Times,serif" font-size="14.00">stdbool.h</text>
</a>
</g>
</g>
<!-- 1 -->
<g id="node2" class="node">
<title>1</title>
<g id="a_node2"><a xlink:title="/__w/AtomVM/AtomVM/src/libAtomVM/interop.c">
<polygon fill="#bfbfbf" stroke="black" points="1062.5,-756 705.5,-756 705.5,-720 1062.5,-720 1062.5,-756"/>
<text text-anchor="middle" x="884" y="-734.3" font-family="Times,serif" font-size="14.00">/__w/AtomVM/AtomVM/src/libAtomVM/interop.c</text>
</a>
</g>
</g>
<!-- 2 -->
<g id="node3" class="node">
<title>2</title>
<g id="a_node3"><a xlink:title="interop.h">
<polygon fill="#ffffff" stroke="black" points="925,-684 843,-684 843,-648 925,-648 925,-684"/>
<text text-anchor="middle" x="884" y="-662.3" font-family="Times,serif" font-size="14.00">interop.h</text>
</a>
</g>
</g>
<!-- 1&#45;&gt;2 -->
<g id="edge1" class="edge">
<title>1&#45;&gt;2</title>
<g id="a_edge1"><a xlink:title="include">
<path fill="none" stroke="#1414ce" d="M884,-719.7C884,-711.98 884,-702.71 884,-694.11"/>
<polygon fill="#1414ce" stroke="#1414ce" points="887.5,-694.1 884,-684.1 880.5,-694.1 887.5,-694.1"/>
</a>
</g>
</g>
<!-- 30 -->
<g id="node5" class="node">
<title>30</title>
<g id="a_node5"><a xlink:title="defaultatoms.h">
<polygon fill="#ffffff" stroke="black" points="469,-612 345,-612 345,-576 469,-576 469,-612"/>
<text text-anchor="middle" x="407" y="-590.3" font-family="Times,serif" font-size="14.00">defaultatoms.h</text>
</a>
</g>
</g>
<!-- 1&#45;&gt;30 -->
<g id="edge4" class="edge">
<title>1&#45;&gt;30</title>
<g id="a_edge4"><a xlink:title="include">
<path fill="none" stroke="#1414ce" d="M808.32,-719.88C767.18,-710.17 715.55,-697.32 670,-684 597.92,-662.92 516.16,-634.53 463.2,-615.54"/>
<polygon fill="#1414ce" stroke="#1414ce" points="464.25,-612.2 453.66,-612.11 461.88,-618.79 464.25,-612.2"/>
</a>
</g>
</g>
<!-- 5 -->
<g id="node11" class="node">
<title>5</title>
<g id="a_node11"><a xlink:title="stdint.h">
<polygon fill="#ffffff" stroke="black" points="733,-36 661,-36 661,0 733,0 733,-36"/>
<text text-anchor="middle" x="697" y="-14.3" font-family="Times,serif" font-size="14.00">stdint.h</text>
</a>
</g>
</g>
<!-- 1&#45;&gt;5 -->
<g id="edge9" class="edge">
<title>1&#45;&gt;5</title>
<g id="a_edge9"><a xlink:title="include">
<path fill="none" stroke="#1414ce" d="M705.38,-726.01C447.11,-707.69 0,-665.75 0,-595 0,-595 0,-595 0,-161 0,-113.3 18.85,-96.13 60,-72 110.61,-42.32 512.35,-25.51 650.52,-20.56"/>
<polygon fill="#1414ce" stroke="#1414ce" points="650.9,-24.05 660.77,-20.2 650.65,-17.05 650.9,-24.05"/>
</a>
</g>
</g>
<!-- 32 -->
<g id="node15" class="node">
<title>32</title>
<g id="a_node15"><a xlink:title="valueshashtable.h">
<polygon fill="#ffffff" stroke="black" points="825,-684 679,-684 679,-648 825,-648 825,-684"/>
<text text-anchor="middle" x="752" y="-662.3" font-family="Times,serif" font-size="14.00">valueshashtable.h</text>
</a>
</g>
</g>
<!-- 1&#45;&gt;32 -->
<g id="edge8" class="edge">
<title>1&#45;&gt;32</title>
<g id="a_edge8"><a xlink:title="include">
<path fill="none" stroke="#1414ce" d="M851.71,-719.88C834.13,-710.55 812.19,-698.92 793.37,-688.94"/>
<polygon fill="#1414ce" stroke="#1414ce" points="794.89,-685.78 784.41,-684.19 791.61,-691.97 794.89,-685.78"/>
</a>
</g>
</g>
<!-- 22 -->
<g id="node17" class="node">
<title>22</title>
<g id="a_node17"><a xlink:title="term.h">
<polygon fill="#ffffff" stroke="black" points="1059.5,-468 994.5,-468 994.5,-432 1059.5,-432 1059.5,-468"/>
<text text-anchor="middle" x="1027" y="-446.3" font-family="Times,serif" font-size="14.00">term.h</text>
</a>
</g>
</g>
<!-- 1&#45;&gt;22 -->
<g id="edge6" class="edge">
<title>1&#45;&gt;22</title>
<g id="a_edge6"><a xlink:title="include">
<path fill="none" stroke="#1414ce" d="M904.87,-719.88C915.15,-710.35 926.84,-697.67 934,-684 971.91,-611.56 932.37,-575.52 972,-504 977.97,-493.23 986.83,-483.31 995.72,-475.03"/>
<polygon fill="#1414ce" stroke="#1414ce" points="998.28,-477.44 1003.46,-468.2 993.64,-472.19 998.28,-477.44"/>
</a>
</g>
</g>
<!-- 8 -->
<g id="node21" class="node">
<title>8</title>
<g id="a_node21"><a xlink:title="atom_table.h">
<polygon fill="#ffffff" stroke="black" points="290.5,-468 181.5,-468 181.5,-432 290.5,-432 290.5,-468"/>
<text text-anchor="middle" x="236" y="-446.3" font-family="Times,serif" font-size="14.00">atom_table.h</text>
</a>
</g>
</g>
<!-- 1&#45;&gt;8 -->
<g id="edge2" class="edge">
<title>1&#45;&gt;8</title>
<g id="a_edge2"><a xlink:title="include">
<path fill="none" stroke="#1414ce" d="M751.75,-720C610.91,-699.64 399.69,-661.94 336,-612 290.4,-576.24 260.21,-513.49 245.81,-477.8"/>
<polygon fill="#1414ce" stroke="#1414ce" points="248.91,-476.12 242.01,-468.08 242.39,-478.67 248.91,-476.12"/>
</a>
</g>
</g>
<!-- 11 -->
<g id="node24" class="node">
<title>11</title>
<g id="a_node24"><a xlink:title="term_typedef.h">
<polygon fill="#ffffff" stroke="black" points="1490.5,-108 1365.5,-108 1365.5,-72 1490.5,-72 1490.5,-108"/>
<text text-anchor="middle" x="1428" y="-86.3" font-family="Times,serif" font-size="14.00">term_typedef.h</text>
</a>
</g>
</g>
<!-- 1&#45;&gt;11 -->
<g id="edge7" class="edge">
<title>1&#45;&gt;11</title>
<g id="a_edge7"><a xlink:title="include">
<path fill="none" stroke="#1414ce" d="M1062.59,-730.22C1244.49,-718.31 1500,-685.47 1500,-595 1500,-595 1500,-595 1500,-521 1500,-425.51 1481,-402.49 1481,-307 1481,-307 1481,-307 1481,-233 1481,-190.21 1459.61,-144.48 1444.01,-116.82"/>
<polygon fill="#1414ce" stroke="#1414ce" points="1447.03,-115.05 1438.98,-108.16 1440.98,-118.56 1447.03,-115.05"/>
</a>
</g>
</g>
<!-- 29 -->
<g id="node26" class="node">
<title>29</title>
<g id="a_node26"><a xlink:title="bitstring.h">
<polygon fill="#ffffff" stroke="black" points="1073,-540 981,-540 981,-504 1073,-504 1073,-540"/>
<text text-anchor="middle" x="1027" y="-518.3" font-family="Times,serif" font-size="14.00">bitstring.h</text>
</a>
</g>
</g>
<!-- 1&#45;&gt;29 -->
<g id="edge3" class="edge">
<title>1&#45;&gt;29</title>
<g id="a_edge3"><a xlink:title="include">
<path fill="none" stroke="#1414ce" d="M921.4,-719.93C937.26,-711.11 954.86,-699.03 967,-684 999.31,-644.01 1015.31,-584.89 1022.32,-550.53"/>
<polygon fill="#1414ce" stroke="#1414ce" points="1025.83,-550.78 1024.29,-540.3 1018.96,-549.46 1025.83,-550.78"/>
</a>
</g>
</g>
<!-- 31 -->
<g id="node29" class="node">
<title>31</title>
<g id="a_node29"><a xlink:title="tempstack.h">
<polygon fill="#ffffff" stroke="black" points="1632,-684 1528,-684 1528,-648 1632,-648 1632,-684"/>
<text text-anchor="middle" x="1580" y="-662.3" font-family="Times,serif" font-size="14.00">tempstack.h</text>
</a>
</g>
</g>
<!-- 1&#45;&gt;31 -->
<g id="edge5" class="edge">
<title>1&#45;&gt;31</title>
<g id="a_edge5"><a xlink:title="include">
<path fill="none" stroke="#1414ce" d="M1062.53,-729.99C1189.22,-723.07 1362.9,-709.63 1514,-684 1515.28,-683.78 1516.57,-683.55 1517.87,-683.31"/>
<polygon fill="#1414ce" stroke="#1414ce" points="1518.83,-686.69 1527.94,-681.27 1517.44,-679.83 1518.83,-686.69"/>
</a>
</g>
</g>
<!-- 3 -->
<g id="node13" class="node">
<title>3</title>
<g id="a_node13"><a xlink:title="context.h">
<polygon fill="#ffffff" stroke="black" points="583.5,-612 500.5,-612 500.5,-576 583.5,-576 583.5,-612"/>
<text text-anchor="middle" x="542" y="-590.3" font-family="Times,serif" font-size="14.00">context.h</text>
</a>
</g>
</g>
<!-- 2&#45;&gt;3 -->
<g id="edge10" class="edge">
<title>2&#45;&gt;3</title>
<g id="a_edge10"><a xlink:title="include">
<path fill="none" stroke="#1414ce" d="M842.95,-650.5C839.93,-649.61 836.93,-648.76 834,-648 750.96,-626.47 652.41,-610.53 593.66,-602.01"/>
<polygon fill="#1414ce" stroke="#1414ce" points="593.92,-598.51 583.52,-600.56 592.92,-605.44 593.92,-598.51"/>
</a>
</g>
</g>
<!-- 2&#45;&gt;22 -->
<g id="edge11" class="edge">
<title>2&#45;&gt;22</title>
<g id="a_edge11"><a xlink:title="include">
<path fill="none" stroke="#1414ce" d="M885.95,-647.87C890.32,-616.27 903.48,-548.02 939,-504 951.08,-489.03 968.59,-477.27 984.83,-468.67"/>
<polygon fill="#1414ce" stroke="#1414ce" points="986.82,-471.59 994.18,-463.97 983.68,-465.33 986.82,-471.59"/>
</a>
</g>
</g>
<!-- 26 -->
<g id="node4" class="node">
<title>26</title>
<g id="a_node4"><a xlink:title="refc_binary.h">
<polygon fill="#ffffff" stroke="black" points="946,-396 838,-396 838,-360 946,-360 946,-396"/>
<text text-anchor="middle" x="892" y="-374.3" font-family="Times,serif" font-size="14.00">refc_binary.h</text>
</a>
</g>
</g>
<!-- 26&#45;&gt;9 -->
<g id="edge12" class="edge">
<title>26&#45;&gt;9</title>
<g id="a_edge12"><a xlink:title="include">
<path fill="none" stroke="#1414ce" d="M866.46,-359.88C854.56,-350.62 841.23,-338.17 833,-324 791.89,-253.21 846.47,-206.83 794,-144 774.86,-121.08 744.18,-107.93 717.66,-100.46"/>
<polygon fill="#1414ce" stroke="#1414ce" points="718.29,-97.01 707.73,-97.86 716.52,-103.78 718.29,-97.01"/>
</a>
</g>
</g>
<!-- 15 -->
<g id="node10" class="node">
<title>15</title>
<g id="a_node10"><a xlink:title="list.h">
<polygon fill="#ffffff" stroke="black" points="447,-180 393,-180 393,-144 447,-144 447,-180"/>
<text text-anchor="middle" x="420" y="-158.3" font-family="Times,serif" font-size="14.00">list.h</text>
</a>
</g>
</g>
<!-- 26&#45;&gt;15 -->
<g id="edge14" class="edge">
<title>26&#45;&gt;15</title>
<g id="a_edge14"><a xlink:title="include">
<path fill="none" stroke="#1414ce" d="M837.98,-369.01C730.65,-352.06 496.13,-309.31 441,-252 425.31,-235.69 420.58,-209.93 419.47,-190.32"/>
<polygon fill="#1414ce" stroke="#1414ce" points="422.97,-190.05 419.18,-180.15 415.97,-190.25 422.97,-190.05"/>
</a>
</g>
</g>
<!-- 7 -->
<g id="node12" class="node">
<title>7</title>
<g id="a_node12"><a xlink:title="stdlib.h">
<polygon fill="#ffffff" stroke="black" points="1010.5,-108 939.5,-108 939.5,-72 1010.5,-72 1010.5,-108"/>
<text text-anchor="middle" x="975" y="-86.3" font-family="Times,serif" font-size="14.00">stdlib.h</text>
</a>
</g>
</g>
<!-- 26&#45;&gt;7 -->
<g id="edge13" class="edge">
<title>26&#45;&gt;7</title>
<g id="a_edge13"><a xlink:title="include">
<path fill="none" stroke="#1414ce" d="M918.83,-359.79C930.74,-350.66 943.69,-338.36 951,-324 985.41,-256.39 982.41,-163.59 978.26,-118.22"/>
<polygon fill="#1414ce" stroke="#1414ce" points="981.74,-117.85 977.25,-108.25 974.77,-118.56 981.74,-117.85"/>
</a>
</g>
</g>
<!-- 27 -->
<g id="node16" class="node">
<title>27</title>
<g id="a_node16"><a xlink:title="resources.h">
<polygon fill="#ffffff" stroke="black" points="942,-324 842,-324 842,-288 942,-288 942,-324"/>
<text text-anchor="middle" x="892" y="-302.3" font-family="Times,serif" font-size="14.00">resources.h</text>
</a>
</g>
</g>
<!-- 26&#45;&gt;27 -->
<g id="edge15" class="edge">
<title>26&#45;&gt;27</title>
<g id="a_edge15"><a xlink:title="include">
<path fill="none" stroke="#1414ce" d="M892,-359.7C892,-351.98 892,-342.71 892,-334.11"/>
<polygon fill="#1414ce" stroke="#1414ce" points="895.5,-334.1 892,-324.1 888.5,-334.1 895.5,-334.1"/>
</a>
</g>
</g>
<!-- 4 -->
<g id="node25" class="node">
<title>4</title>
<g id="a_node25"><a xlink:title="globalcontext.h">
<polygon fill="#ffffff" stroke="black" points="464.5,-540 337.5,-540 337.5,-504 464.5,-504 464.5,-540"/>
<text text-anchor="middle" x="401" y="-518.3" font-family="Times,serif" font-size="14.00">globalcontext.h</text>
</a>
</g>
</g>
<!-- 30&#45;&gt;4 -->
<g id="edge16" class="edge">
<title>30&#45;&gt;4</title>
<g id="a_edge16"><a xlink:title="include">
<path fill="none" stroke="#1414ce" d="M405.52,-575.7C404.86,-567.98 404.06,-558.71 403.32,-550.11"/>
<polygon fill="#1414ce" stroke="#1414ce" points="406.81,-549.77 402.47,-540.1 399.83,-550.37 406.81,-549.77"/>
</a>
</g>
</g>
<!-- 6 -->
<g id="node6" class="node">
<title>6</title>
<g id="a_node6"><a xlink:title="atom.h">
<polygon fill="#ffffff" stroke="black" points="324,-324 258,-324 258,-288 324,-288 324,-324"/>
<text text-anchor="middle" x="291" y="-302.3" font-family="Times,serif" font-size="14.00">atom.h</text>
</a>
</g>
</g>
<!-- 6&#45;&gt;5 -->
<g id="edge17" class="edge">
<title>6&#45;&gt;5</title>
<g id="a_edge17"><a xlink:title="include">
<path fill="none" stroke="#1414ce" d="M287.01,-287.92C283.55,-269.22 280.7,-238.86 292,-216 315,-169.45 338.99,-169.89 384,-144 473.55,-92.49 588.46,-52.57 651.15,-32.76"/>
<polygon fill="#1414ce" stroke="#1414ce" points="652.25,-36.08 660.75,-29.75 650.16,-29.4 652.25,-36.08"/>
</a>
</g>
</g>
<!-- 6&#45;&gt;7 -->
<g id="edge18" class="edge">
<title>6&#45;&gt;7</title>
<g id="a_edge18"><a xlink:title="include">
<path fill="none" stroke="#1414ce" d="M324.07,-304.82C379.8,-303.26 494.67,-294.64 580,-252 601.1,-241.46 598.76,-228.11 619,-216 660.97,-190.88 676.79,-196.03 723,-180 812.06,-149.1 836.85,-141.68 929.67,-108.08"/>
<polygon fill="#1414ce" stroke="#1414ce" points="930.96,-111.33 939.17,-104.63 928.58,-104.75 930.96,-111.33"/>
</a>
</g>
</g>
<!-- 12 -->
<g id="node7" class="node">
<title>12</title>
<g id="a_node7"><a xlink:title="assert.h">
<polygon fill="#ffffff" stroke="black" points="1374,-36 1300,-36 1300,0 1374,0 1374,-36"/>
<text text-anchor="middle" x="1337" y="-14.3" font-family="Times,serif" font-size="14.00">assert.h</text>
</a>
</g>
</g>
<!-- 17 -->
<g id="node8" class="node">
<title>17</title>
<g id="a_node8"><a xlink:title="utils.h">
<polygon fill="#ffffff" stroke="black" points="1060,-180 998,-180 998,-144 1060,-144 1060,-180"/>
<text text-anchor="middle" x="1029" y="-158.3" font-family="Times,serif" font-size="14.00">utils.h</text>
</a>
</g>
</g>
<!-- 17&#45;&gt;7 -->
<g id="edge21" class="edge">
<title>17&#45;&gt;7</title>
<g id="a_edge21"><a xlink:title="include">
<path fill="none" stroke="#1414ce" d="M1015.65,-143.7C1009.24,-135.39 1001.44,-125.28 994.39,-116.14"/>
<polygon fill="#1414ce" stroke="#1414ce" points="997.07,-113.88 988.19,-108.1 991.53,-118.16 997.07,-113.88"/>
</a>
</g>
</g>
<!-- 18 -->
<g id="node18" class="node">
<title>18</title>
<g id="a_node18"><a xlink:title="stddef.h">
<polygon fill="#ffffff" stroke="black" points="1103,-108 1029,-108 1029,-72 1103,-72 1103,-108"/>
<text text-anchor="middle" x="1066" y="-86.3" font-family="Times,serif" font-size="14.00">stddef.h</text>
</a>
</g>
</g>
<!-- 17&#45;&gt;18 -->
<g id="edge19" class="edge">
<title>17&#45;&gt;18</title>
<g id="a_edge19"><a xlink:title="include">
<path fill="none" stroke="#1414ce" d="M1038.15,-143.7C1042.4,-135.64 1047.56,-125.89 1052.27,-116.98"/>
<polygon fill="#1414ce" stroke="#1414ce" points="1055.38,-118.58 1056.96,-108.1 1049.19,-115.31 1055.38,-118.58"/>
</a>
</g>
</g>
<!-- 19 -->
<g id="node31" class="node">
<title>19</title>
<g id="a_node31"><a xlink:title="stdio.h">
<polygon fill="#ffffff" stroke="black" points="921.5,-108 856.5,-108 856.5,-72 921.5,-72 921.5,-108"/>
<text text-anchor="middle" x="889" y="-86.3" font-family="Times,serif" font-size="14.00">stdio.h</text>
</a>
</g>
</g>
<!-- 17&#45;&gt;19 -->
<g id="edge20" class="edge">
<title>17&#45;&gt;19</title>
<g id="a_edge20"><a xlink:title="include">
<path fill="none" stroke="#1414ce" d="M997.93,-145.46C978.28,-135.64 952.63,-122.82 931.16,-112.08"/>
<polygon fill="#1414ce" stroke="#1414ce" points="932.44,-108.81 921.93,-107.47 929.31,-115.07 932.44,-108.81"/>
</a>
</g>
</g>
<!-- 21 -->
<g id="node9" class="node">
<title>21</title>
<g id="a_node9"><a xlink:title="synclist.h">
<polygon fill="#ffffff" stroke="black" points="571.5,-252 486.5,-252 486.5,-216 571.5,-216 571.5,-252"/>
<text text-anchor="middle" x="529" y="-230.3" font-family="Times,serif" font-size="14.00">synclist.h</text>
</a>
</g>
</g>
<!-- 21&#45;&gt;15 -->
<g id="edge23" class="edge">
<title>21&#45;&gt;15</title>
<g id="a_edge23"><a xlink:title="include">
<path fill="none" stroke="#1414ce" d="M502.34,-215.88C488.22,-206.81 470.69,-195.55 455.44,-185.76"/>
<polygon fill="#1414ce" stroke="#1414ce" points="457.07,-182.65 446.77,-180.19 453.29,-188.54 457.07,-182.65"/>
</a>
</g>
</g>
<!-- 20 -->
<g id="node27" class="node">
<title>20</title>
<g id="a_node27"><a xlink:title="smp.h">
<polygon fill="#ffffff" stroke="black" points="542,-180 482,-180 482,-144 542,-144 542,-180"/>
<text text-anchor="middle" x="512" y="-158.3" font-family="Times,serif" font-size="14.00">smp.h</text>
</a>
</g>
</g>
<!-- 21&#45;&gt;20 -->
<g id="edge24" class="edge">
<title>21&#45;&gt;20</title>
<g id="a_edge24"><a xlink:title="include">
<path fill="none" stroke="#1414ce" d="M524.8,-215.7C522.9,-207.9 520.62,-198.51 518.52,-189.83"/>
<polygon fill="#1414ce" stroke="#1414ce" points="521.92,-189 516.15,-180.1 515.11,-190.65 521.92,-189"/>
</a>
</g>
</g>
<!-- 21&#45;&gt;19 -->
<g id="edge22" class="edge">
<title>21&#45;&gt;19</title>
<g id="a_edge22"><a xlink:title="include">
<path fill="none" stroke="#1414ce" d="M571.71,-216.15C641.12,-188.77 777.59,-134.95 846.72,-107.68"/>
<polygon fill="#1414ce" stroke="#1414ce" points="848.4,-110.78 856.41,-103.85 845.83,-104.27 848.4,-110.78"/>
</a>
</g>
</g>
<!-- 3&#45;&gt;15 -->
<g id="edge26" class="edge">
<title>3&#45;&gt;15</title>
<g id="a_edge26"><a xlink:title="include">
<path fill="none" stroke="#1414ce" d="M500.38,-581.79C492.94,-579.83 485.24,-577.83 478,-576 338.18,-540.66 249.73,-589.48 172,-468 101.51,-357.83 218.68,-293.56 324,-216 342.62,-202.29 365.19,-189.65 383.76,-180.16"/>
<polygon fill="#1414ce" stroke="#1414ce" points="385.42,-183.25 392.79,-175.63 382.29,-176.99 385.42,-183.25"/>
</a>
</g>
</g>
<!-- 3&#45;&gt;22 -->
<g id="edge29" class="edge">
<title>3&#45;&gt;22</title>
<g id="a_edge29"><a xlink:title="include">
<path fill="none" stroke="#1414ce" d="M583.77,-580.77C675.24,-553.99 892.41,-490.41 984.52,-463.44"/>
<polygon fill="#1414ce" stroke="#1414ce" points="985.72,-466.73 994.34,-460.56 983.76,-460.01 985.72,-466.73"/>
</a>
</g>
</g>
<!-- 3&#45;&gt;4 -->
<g id="edge25" class="edge">
<title>3&#45;&gt;4</title>
<g id="a_edge25"><a xlink:title="include">
<path fill="none" stroke="#1414ce" d="M507.51,-575.88C488.56,-566.47 464.87,-554.71 444.64,-544.67"/>
<polygon fill="#1414ce" stroke="#1414ce" points="446.14,-541.5 435.63,-540.19 443.03,-547.77 446.14,-541.5"/>
</a>
</g>
</g>
<!-- 3&#45;&gt;20 -->
<g id="edge28" class="edge">
<title>3&#45;&gt;20</title>
<g id="a_edge28"><a xlink:title="include">
<path fill="none" stroke="#1414ce" d="M537.52,-575.78C524.84,-526.04 488.87,-377.7 477,-252 475.5,-236.07 472.4,-231.32 477,-216 479.92,-206.28 485.26,-196.7 490.91,-188.41"/>
<polygon fill="#1414ce" stroke="#1414ce" points="493.76,-190.44 496.82,-180.3 488.1,-186.32 493.76,-190.44"/>
</a>
</g>
</g>
<!-- 28 -->
<g id="node28" class="node">
<title>28</title>
<g id="a_node28"><a xlink:title="timer_list.h">
<polygon fill="#ffffff" stroke="black" points="164,-252 66,-252 66,-216 164,-216 164,-252"/>
<text text-anchor="middle" x="115" y="-230.3" font-family="Times,serif" font-size="14.00">timer_list.h</text>
</a>
</g>
</g>
<!-- 3&#45;&gt;28 -->
<g id="edge30" class="edge">
<title>3&#45;&gt;28</title>
<g id="a_edge30"><a xlink:title="include">
<path fill="none" stroke="#1414ce" d="M500.22,-580.85C492.86,-579.01 485.24,-577.3 478,-576 395.16,-561.15 157.61,-602.27 101,-540 29.88,-461.77 78.08,-320.29 102.85,-261.61"/>
<polygon fill="#1414ce" stroke="#1414ce" points="106.12,-262.86 106.88,-252.29 99.7,-260.08 106.12,-262.86"/>
</a>
</g>
</g>
<!-- 16 -->
<g id="node30" class="node">
<title>16</title>
<g id="a_node30"><a xlink:title="mailbox.h">
<polygon fill="#ffffff" stroke="black" points="714,-252 628,-252 628,-216 714,-216 714,-252"/>
<text text-anchor="middle" x="671" y="-230.3" font-family="Times,serif" font-size="14.00">mailbox.h</text>
</a>
</g>
</g>
<!-- 3&#45;&gt;16 -->
<g id="edge27" class="edge">
<title>3&#45;&gt;16</title>
<g id="a_edge27"><a xlink:title="include">
<path fill="none" stroke="#1414ce" d="M560.42,-575.64C584.87,-550.62 625,-501.83 625,-451 625,-451 625,-451 625,-377 625,-335.04 643.4,-289.36 656.93,-261.44"/>
<polygon fill="#1414ce" stroke="#1414ce" points="660.13,-262.86 661.47,-252.34 653.87,-259.73 660.13,-262.86"/>
</a>
</g>
</g>
<!-- 25 -->
<g id="node14" class="node">
<title>25</title>
<g id="a_node14"><a xlink:title="memory.h">
<polygon fill="#ffffff" stroke="black" points="1160,-252 1074,-252 1074,-216 1160,-216 1160,-252"/>
<text text-anchor="middle" x="1117" y="-230.3" font-family="Times,serif" font-size="14.00">memory.h</text>
</a>
</g>
</g>
<!-- 25&#45;&gt;17 -->
<g id="edge35" class="edge">
<title>25&#45;&gt;17</title>
<g id="a_edge35"><a xlink:title="include">
<path fill="none" stroke="#1414ce" d="M1095.25,-215.7C1084.16,-206.88 1070.53,-196.03 1058.51,-186.47"/>
<polygon fill="#1414ce" stroke="#1414ce" points="1060.51,-183.59 1050.5,-180.1 1056.15,-189.07 1060.51,-183.59"/>
</a>
</g>
</g>
<!-- 25&#45;&gt;5 -->
<g id="edge31" class="edge">
<title>25&#45;&gt;5</title>
<g id="a_edge31"><a xlink:title="include">
<path fill="none" stroke="#1414ce" d="M1122.83,-215.81C1132.7,-183.17 1148.29,-111.95 1112,-72 1087.51,-45.04 846.56,-27.79 743.44,-21.58"/>
<polygon fill="#1414ce" stroke="#1414ce" points="743.5,-18.08 733.31,-20.98 743.09,-25.07 743.5,-18.08"/>
</a>
</g>
</g>
<!-- 25&#45;&gt;7 -->
<g id="edge32" class="edge">
<title>25&#45;&gt;7</title>
<g id="a_edge32"><a xlink:title="include">
<path fill="none" stroke="#1414ce" d="M1111.08,-215.8C1103.7,-196.42 1089.53,-164.92 1069,-144 1055.16,-129.9 1036.77,-118.42 1019.93,-109.8"/>
<polygon fill="#1414ce" stroke="#1414ce" points="1021.29,-106.57 1010.77,-105.3 1018.2,-112.85 1021.29,-106.57"/>
</a>
</g>
</g>
<!-- 10 -->
<g id="node19" class="node">
<title>10</title>
<g id="a_node19"><a xlink:title="erl_nif.h">
<polygon fill="#ffffff" stroke="black" points="1342,-180 1268,-180 1268,-144 1342,-144 1342,-180"/>
<text text-anchor="middle" x="1305" y="-158.3" font-family="Times,serif" font-size="14.00">erl_nif.h</text>
</a>
</g>
</g>
<!-- 25&#45;&gt;10 -->
<g id="edge33" class="edge">
<title>25&#45;&gt;10</title>
<g id="a_edge33"><a xlink:title="include">
<path fill="none" stroke="#1414ce" d="M1160.13,-216.94C1189.48,-206.01 1228.29,-191.56 1258.35,-180.37"/>
<polygon fill="#1414ce" stroke="#1414ce" points="1259.63,-183.63 1267.78,-176.86 1257.19,-177.07 1259.63,-183.63"/>
</a>
</g>
</g>
<!-- 25&#45;&gt;11 -->
<g id="edge34" class="edge">
<title>25&#45;&gt;11</title>
<g id="a_edge34"><a xlink:title="include">
<path fill="none" stroke="#1414ce" d="M1153.31,-215.82C1172.5,-206.19 1196.13,-193.43 1216,-180 1236.65,-166.04 1237.13,-155.96 1259,-144 1288.94,-127.62 1324.69,-115.49 1355.58,-106.99"/>
<polygon fill="#1414ce" stroke="#1414ce" points="1356.66,-110.32 1365.42,-104.36 1354.86,-103.56 1356.66,-110.32"/>
</a>
</g>
</g>
<!-- 27&#45;&gt;21 -->
<g id="edge40" class="edge">
<title>27&#45;&gt;21</title>
<g id="a_edge40"><a xlink:title="include">
<path fill="none" stroke="#1414ce" d="M841.91,-295.34C773.41,-282.13 651.1,-258.54 581.41,-245.11"/>
<polygon fill="#1414ce" stroke="#1414ce" points="582,-241.66 571.52,-243.2 580.68,-248.53 582,-241.66"/>
</a>
</g>
</g>
<!-- 27&#45;&gt;15 -->
<g id="edge38" class="edge">
<title>27&#45;&gt;15</title>
<g id="a_edge38"><a xlink:title="include">
<path fill="none" stroke="#1414ce" d="M841.99,-303.83C745.24,-300.74 536.69,-289.77 477,-252 454.08,-237.5 438.63,-210.07 429.66,-189.48"/>
<polygon fill="#1414ce" stroke="#1414ce" points="432.8,-187.93 425.77,-180.01 426.33,-190.59 432.8,-187.93"/>
</a>
</g>
</g>
<!-- 27&#45;&gt;7 -->
<g id="edge36" class="edge">
<title>27&#45;&gt;7</title>
<g id="a_edge36"><a xlink:title="include">
<path fill="none" stroke="#1414ce" d="M898.65,-287.85C913.07,-250.68 947.29,-162.44 964.6,-117.82"/>
<polygon fill="#1414ce" stroke="#1414ce" points="967.96,-118.82 968.32,-108.23 961.44,-116.29 967.96,-118.82"/>
</a>
</g>
</g>
<!-- 27&#45;&gt;25 -->
<g id="edge39" class="edge">
<title>27&#45;&gt;25</title>
<g id="a_edge39"><a xlink:title="include">
<path fill="none" stroke="#1414ce" d="M942.21,-289.38C978.48,-278.1 1027.35,-262.89 1064.19,-251.43"/>
<polygon fill="#1414ce" stroke="#1414ce" points="1065.25,-254.76 1073.76,-248.45 1063.17,-248.08 1065.25,-254.76"/>
</a>
</g>
</g>
<!-- 27&#45;&gt;10 -->
<g id="edge37" class="edge">
<title>27&#45;&gt;10</title>
<g id="a_edge37"><a xlink:title="include">
<path fill="none" stroke="#1414ce" d="M942.18,-301.3C998.98,-295.79 1093.42,-282.56 1169,-252 1209.13,-235.77 1250,-207.04 1276.31,-186.61"/>
<polygon fill="#1414ce" stroke="#1414ce" points="1278.64,-189.23 1284.32,-180.3 1274.3,-183.74 1278.64,-189.23"/>
</a>
</g>
</g>
<!-- 22&#45;&gt;9 -->
<g id="edge42" class="edge">
<title>22&#45;&gt;9</title>
<g id="a_edge42"><a xlink:title="include">
<path fill="none" stroke="#1414ce" d="M994.18,-449.55C950.55,-448.45 873.74,-439.83 829,-396 745.71,-314.39 827.52,-236.1 756,-144 745.68,-130.72 731.03,-120.1 716.53,-111.96"/>
<polygon fill="#1414ce" stroke="#1414ce" points="718.05,-108.8 707.57,-107.22 714.77,-114.99 718.05,-108.8"/>
</a>
</g>
</g>
<!-- 22&#45;&gt;26 -->
<g id="edge48" class="edge">
<title>22&#45;&gt;26</title>
<g id="a_edge48"><a xlink:title="include">
<path fill="none" stroke="#1414ce" d="M994.32,-432.05C976.13,-422.62 953.3,-410.78 933.82,-400.68"/>
<polygon fill="#1414ce" stroke="#1414ce" points="935.34,-397.53 924.85,-396.03 932.11,-403.74 935.34,-397.53"/>
</a>
</g>
</g>
<!-- 22&#45;&gt;17 -->
<g id="edge49" class="edge">
<title>22&#45;&gt;17</title>
<g id="a_edge49"><a xlink:title="include">
<path fill="none" stroke="#1414ce" d="M1027.12,-431.97C1027.45,-384.29 1028.4,-249.18 1028.81,-190.63"/>
<polygon fill="#1414ce" stroke="#1414ce" points="1032.31,-190.33 1028.88,-180.31 1025.31,-190.28 1032.31,-190.33"/>
</a>
</g>
</g>
<!-- 22&#45;&gt;5 -->
<g id="edge43" class="edge">
<title>22&#45;&gt;5</title>
<g id="a_edge43"><a xlink:title="include">
<path fill="none" stroke="#1414ce" d="M1059.89,-433.29C1061.27,-432.82 1062.64,-432.39 1064,-432 1125.17,-414.52 1305.61,-443.43 1348,-396 1422.64,-312.48 1416.49,-234.87 1351,-144 1279.61,-44.95 880.71,-24.25 743.43,-20.04"/>
<polygon fill="#1414ce" stroke="#1414ce" points="743.34,-16.54 733.24,-19.75 743.13,-23.54 743.34,-16.54"/>
</a>
</g>
</g>
<!-- 22&#45;&gt;7 -->
<g id="edge45" class="edge">
<title>22&#45;&gt;7</title>
<g id="a_edge45"><a xlink:title="include">
<path fill="none" stroke="#1414ce" d="M1051.14,-431.86C1100.45,-394.59 1205.19,-302.53 1169,-216 1151.42,-173.96 1133.72,-169.57 1096,-144 1082.91,-135.13 1048.81,-120.43 1020.13,-108.76"/>
<polygon fill="#1414ce" stroke="#1414ce" points="1021.24,-105.44 1010.65,-104.94 1018.61,-111.93 1021.24,-105.44"/>
</a>
</g>
</g>
<!-- 22&#45;&gt;25 -->
<g id="edge47" class="edge">
<title>22&#45;&gt;25</title>
<g id="a_edge47"><a xlink:title="include">
<path fill="none" stroke="#1414ce" d="M1038.99,-431.88C1045.73,-421.75 1053.98,-408.5 1060,-396 1081.82,-350.68 1099.75,-294.72 1109.36,-262.13"/>
<polygon fill="#1414ce" stroke="#1414ce" points="1112.76,-262.99 1112.19,-252.41 1106.04,-261.04 1112.76,-262.99"/>
</a>
</g>
</g>
<!-- 23 -->
<g id="node22" class="node">
<title>23</title>
<g id="a_node22"><a xlink:title="sys/types.h">
<polygon fill="#ffffff" stroke="black" points="1247.5,-396 1150.5,-396 1150.5,-360 1247.5,-360 1247.5,-396"/>
<text text-anchor="middle" x="1199" y="-374.3" font-family="Times,serif" font-size="14.00">sys/types.h</text>
</a>
</g>
</g>
<!-- 22&#45;&gt;23 -->
<g id="edge41" class="edge">
<title>22&#45;&gt;23</title>
<g id="a_edge41"><a xlink:title="include">
<path fill="none" stroke="#1414ce" d="M1059.76,-435.67C1084.63,-425.55 1119.29,-411.44 1147.81,-399.83"/>
<polygon fill="#1414ce" stroke="#1414ce" points="1149.28,-403.01 1157.22,-396 1146.64,-396.53 1149.28,-403.01"/>
</a>
</g>
</g>
<!-- 24 -->
<g id="node23" class="node">
<title>24</title>
<g id="a_node23"><a xlink:title="string.h">
<polygon fill="#ffffff" stroke="black" points="1338.5,-396 1265.5,-396 1265.5,-360 1338.5,-360 1338.5,-396"/>
<text text-anchor="middle" x="1302" y="-374.3" font-family="Times,serif" font-size="14.00">string.h</text>
</a>
</g>
</g>
<!-- 22&#45;&gt;24 -->
<g id="edge46" class="edge">
<title>22&#45;&gt;24</title>
<g id="a_edge46"><a xlink:title="include">
<path fill="none" stroke="#1414ce" d="M1059.74,-442.9C1102.74,-434.58 1180.7,-418.41 1255.28,-396.33"/>
<polygon fill="#1414ce" stroke="#1414ce" points="1256.73,-399.55 1265.3,-393.32 1254.72,-392.85 1256.73,-399.55"/>
</a>
</g>
</g>
<!-- 22&#45;&gt;11 -->
<g id="edge50" class="edge">
<title>22&#45;&gt;11</title>
<g id="a_edge50"><a xlink:title="include">
<path fill="none" stroke="#1414ce" d="M1059.61,-448.86C1138.44,-447.81 1336.14,-440.67 1381,-396 1456.59,-320.73 1443.03,-178.05 1433.27,-118.34"/>
<polygon fill="#1414ce" stroke="#1414ce" points="1436.67,-117.45 1431.51,-108.2 1429.77,-118.65 1436.67,-117.45"/>
</a>
</g>
</g>
<!-- 22&#45;&gt;19 -->
<g id="edge44" class="edge">
<title>22&#45;&gt;19</title>
<g id="a_edge44"><a xlink:title="include">
<path fill="none" stroke="#1414ce" d="M1020.34,-431.73C998.07,-373.96 926.06,-187.13 899.21,-117.49"/>
<polygon fill="#1414ce" stroke="#1414ce" points="902.45,-116.17 895.59,-108.09 895.92,-118.68 902.45,-116.17"/>
</a>
</g>
</g>
<!-- 10&#45;&gt;11 -->
<g id="edge51" class="edge">
<title>10&#45;&gt;11</title>
<g id="a_edge51"><a xlink:title="include">
<path fill="none" stroke="#1414ce" d="M1335.09,-143.88C1351.32,-134.64 1371.54,-123.13 1388.97,-113.21"/>
<polygon fill="#1414ce" stroke="#1414ce" points="1390.84,-116.18 1397.8,-108.19 1387.37,-110.09 1390.84,-116.18"/>
</a>
</g>
</g>
<!-- 13 -->
<g id="node20" class="node">
<title>13</title>
<g id="a_node20"><a xlink:title="limits.h">
<polygon fill="#ffffff" stroke="black" points="1463.5,-36 1392.5,-36 1392.5,0 1463.5,0 1463.5,-36"/>
<text text-anchor="middle" x="1428" y="-14.3" font-family="Times,serif" font-size="14.00">limits.h</text>
</a>
</g>
</g>
<!-- 8&#45;&gt;9 -->
<g id="edge52" class="edge">
<title>8&#45;&gt;9</title>
<g id="a_edge52"><a xlink:title="include">
<path fill="none" stroke="#1414ce" d="M234.81,-431.96C233.07,-405.31 230,-352.15 230,-307 230,-307 230,-307 230,-233 230,-153.02 498.61,-111.11 614.16,-96.78"/>
<polygon fill="#1414ce" stroke="#1414ce" points="614.69,-100.24 624.19,-95.56 613.84,-93.29 614.69,-100.24"/>
</a>
</g>
</g>
<!-- 8&#45;&gt;6 -->
<g id="edge53" class="edge">
<title>8&#45;&gt;6</title>
<g id="a_edge53"><a xlink:title="include">
<path fill="none" stroke="#1414ce" d="M242.63,-431.87C252.09,-407.46 269.53,-362.43 280.68,-333.64"/>
<polygon fill="#1414ce" stroke="#1414ce" points="283.99,-334.78 284.34,-324.19 277.47,-332.25 283.99,-334.78"/>
</a>
</g>
</g>
<!-- 11&#45;&gt;12 -->
<g id="edge54" class="edge">
<title>11&#45;&gt;12</title>
<g id="a_edge54"><a xlink:title="include">
<path fill="none" stroke="#1414ce" d="M1405.51,-71.7C1394.04,-62.88 1379.94,-52.03 1367.52,-42.47"/>
<polygon fill="#1414ce" stroke="#1414ce" points="1369.3,-39.43 1359.24,-36.1 1365.03,-44.98 1369.3,-39.43"/>
</a>
</g>
</g>
<!-- 11&#45;&gt;5 -->
<g id="edge57" class="edge">
<title>11&#45;&gt;5</title>
<g id="a_edge57"><a xlink:title="include">
<path fill="none" stroke="#1414ce" d="M1365.1,-74.38C1360.34,-73.5 1355.6,-72.69 1351,-72 1124.78,-38.02 851.05,-24.74 743.54,-20.59"/>
<polygon fill="#1414ce" stroke="#1414ce" points="743.48,-17.09 733.36,-20.21 743.22,-24.08 743.48,-17.09"/>
</a>
</g>
</g>
<!-- 11&#45;&gt;13 -->
<g id="edge55" class="edge">
<title>11&#45;&gt;13</title>
<g id="a_edge55"><a xlink:title="include">
<path fill="none" stroke="#1414ce" d="M1428,-71.7C1428,-63.98 1428,-54.71 1428,-46.11"/>
<polygon fill="#1414ce" stroke="#1414ce" points="1431.5,-46.1 1428,-36.1 1424.5,-46.1 1431.5,-46.1"/>
</a>
</g>
</g>
<!-- 14 -->
<g id="node32" class="node">
<title>14</title>
<g id="a_node32"><a xlink:title="inttypes.h">
<polygon fill="#ffffff" stroke="black" points="1570.5,-36 1481.5,-36 1481.5,0 1570.5,0 1570.5,-36"/>
<text text-anchor="middle" x="1526" y="-14.3" font-family="Times,serif" font-size="14.00">inttypes.h</text>
</a>
</g>
</g>
<!-- 11&#45;&gt;14 -->
<g id="edge56" class="edge">
<title>11&#45;&gt;14</title>
<g id="a_edge56"><a xlink:title="include">
<path fill="none" stroke="#1414ce" d="M1451.97,-71.88C1464.55,-62.89 1480.13,-51.76 1493.75,-42.03"/>
<polygon fill="#1414ce" stroke="#1414ce" points="1495.83,-44.85 1501.93,-36.19 1491.76,-39.15 1495.83,-44.85"/>
</a>
</g>
</g>
<!-- 4&#45;&gt;6 -->
<g id="edge59" class="edge">
<title>4&#45;&gt;6</title>
<g id="a_edge59"><a xlink:title="include">
<path fill="none" stroke="#1414ce" d="M377.07,-503.91C365.37,-494.48 351.93,-481.88 343,-468 315.77,-425.64 301.69,-367.81 295.36,-334.23"/>
<polygon fill="#1414ce" stroke="#1414ce" points="298.77,-333.45 293.57,-324.23 291.88,-334.69 298.77,-333.45"/>
</a>
</g>
</g>
<!-- 4&#45;&gt;21 -->
<g id="edge65" class="edge">
<title>4&#45;&gt;21</title>
<g id="a_edge65"><a xlink:title="include">
<path fill="none" stroke="#1414ce" d="M405.78,-503.94C417.22,-464.46 448.3,-364.4 490,-288 495.17,-278.52 501.84,-268.82 508.19,-260.35"/>
<polygon fill="#1414ce" stroke="#1414ce" points="511.04,-262.4 514.38,-252.35 505.5,-258.12 511.04,-262.4"/>
</a>
</g>
</g>
<!-- 4&#45;&gt;15 -->
<g id="edge62" class="edge">
<title>4&#45;&gt;15</title>
<g id="a_edge62"><a xlink:title="include">
<path fill="none" stroke="#1414ce" d="M393.76,-503.53C389.68,-493.29 384.68,-480.04 381,-468 372.66,-440.68 315.82,-240.8 330,-216 341.39,-196.07 363.53,-182.89 383,-174.66"/>
<polygon fill="#1414ce" stroke="#1414ce" points="384.54,-177.81 392.57,-170.9 381.98,-171.29 384.54,-177.81"/>
</a>
</g>
</g>
<!-- 4&#45;&gt;5 -->
<g id="edge58" class="edge">
<title>4&#45;&gt;5</title>
<g id="a_edge58"><a xlink:title="include">
<path fill="none" stroke="#1414ce" d="M337.24,-514.57C270.82,-506.73 172.41,-491.54 143,-468 54.32,-397.02 38,-348.58 38,-235 38,-235 38,-235 38,-161 38,-99.48 87.27,-95.78 144,-72 235.11,-33.8 534.51,-22.8 650.51,-19.93"/>
<polygon fill="#1414ce" stroke="#1414ce" points="650.91,-23.42 660.83,-19.68 650.75,-16.42 650.91,-23.42"/>
</a>
</g>
</g>
<!-- 4&#45;&gt;22 -->
<g id="edge66" class="edge">
<title>4&#45;&gt;22</title>
<g id="a_edge66"><a xlink:title="include">
<path fill="none" stroke="#1414ce" d="M464.76,-513.87C592.32,-499.61 875.93,-467.89 984.02,-455.81"/>
<polygon fill="#1414ce" stroke="#1414ce" points="984.68,-459.25 994.23,-454.66 983.9,-452.3 984.68,-459.25"/>
</a>
</g>
</g>
<!-- 4&#45;&gt;10 -->
<g id="edge61" class="edge">
<title>4&#45;&gt;10</title>
<g id="a_edge61"><a xlink:title="include">
<path fill="none" stroke="#1414ce" d="M464.9,-519.58C584.2,-516.12 848.59,-504.65 1068,-468 1194.74,-446.83 1269.26,-497.54 1348,-396 1395.99,-334.11 1348.82,-235.41 1321.48,-188.88"/>
<polygon fill="#1414ce" stroke="#1414ce" points="1324.31,-186.79 1316.16,-180.03 1318.32,-190.4 1324.31,-186.79"/>
</a>
</g>
</g>
<!-- 4&#45;&gt;8 -->
<g id="edge60" class="edge">
<title>4&#45;&gt;8</title>
<g id="a_edge60"><a xlink:title="include">
<path fill="none" stroke="#1414ce" d="M360.64,-503.88C337.98,-494.26 309.53,-482.19 285.53,-472.01"/>
<polygon fill="#1414ce" stroke="#1414ce" points="286.81,-468.75 276.23,-468.07 284.07,-475.2 286.81,-468.75"/>
</a>
</g>
</g>
<!-- 4&#45;&gt;20 -->
<g id="edge64" class="edge">
<title>4&#45;&gt;20</title>
<g id="a_edge64"><a xlink:title="include">
<path fill="none" stroke="#1414ce" d="M397.86,-503.99C386.84,-443.3 351.43,-239.75 368,-216 374.27,-207.02 431.9,-187.71 472.32,-175.04"/>
<polygon fill="#1414ce" stroke="#1414ce" points="473.42,-178.37 481.93,-172.05 471.34,-171.68 473.42,-178.37"/>
</a>
</g>
</g>
<!-- 4&#45;&gt;28 -->
<g id="edge67" class="edge">
<title>4&#45;&gt;28</title>
<g id="a_edge67"><a xlink:title="include">
<path fill="none" stroke="#1414ce" d="M337.22,-513.76C277.83,-505.72 195.08,-490.8 172,-468 115.67,-412.37 111.57,-310.86 113.19,-262.3"/>
<polygon fill="#1414ce" stroke="#1414ce" points="116.69,-262.37 113.64,-252.23 109.7,-262.06 116.69,-262.37"/>
</a>
</g>
</g>
<!-- 4&#45;&gt;16 -->
<g id="edge63" class="edge">
<title>4&#45;&gt;16</title>
<g id="a_edge63"><a xlink:title="include">
<path fill="none" stroke="#1414ce" d="M415.39,-503.73C448.54,-464.23 533.41,-364.82 611,-288 620.98,-278.12 632.42,-267.79 642.62,-258.9"/>
<polygon fill="#1414ce" stroke="#1414ce" points="645.2,-261.3 650.48,-252.11 640.62,-256 645.2,-261.3"/>
</a>
</g>
</g>
<!-- 29&#45;&gt;9 -->
<g id="edge69" class="edge">
<title>29&#45;&gt;9</title>
<g id="a_edge69"><a xlink:title="include">
<path fill="none" stroke="#1414ce" d="M980.89,-506.14C930.18,-487.67 849.22,-451.62 799,-396 740.81,-331.55 757.91,-295.51 723,-216 708.02,-181.87 690.09,-142.84 678.39,-117.6"/>
<polygon fill="#1414ce" stroke="#1414ce" points="681.47,-115.92 674.09,-108.32 675.12,-118.86 681.47,-115.92"/>
</a>
</g>
</g>
<!-- 29&#45;&gt;5 -->
<g id="edge70" class="edge">
<title>29&#45;&gt;5</title>
<g id="a_edge70"><a xlink:title="include">
<path fill="none" stroke="#1414ce" d="M1073.29,-521.68C1195.76,-520.83 1519,-500.28 1519,-307 1519,-307 1519,-307 1519,-161 1519,-120.55 1530.59,-98.46 1500,-72 1471.24,-47.12 910.59,-26.23 743.57,-20.53"/>
<polygon fill="#1414ce" stroke="#1414ce" points="743.26,-17.02 733.14,-20.18 743.02,-24.02 743.26,-17.02"/>
</a>
</g>
</g>
<!-- 29&#45;&gt;22 -->
<g id="edge68" class="edge">
<title>29&#45;&gt;22</title>
<g id="a_edge68"><a xlink:title="include">
<path fill="none" stroke="#1414ce" d="M1027,-503.7C1027,-495.98 1027,-486.71 1027,-478.11"/>
<polygon fill="#1414ce" stroke="#1414ce" points="1030.5,-478.1 1027,-468.1 1023.5,-478.1 1030.5,-478.1"/>
</a>
</g>
</g>
<!-- 20&#45;&gt;9 -->
<g id="edge71" class="edge">
<title>20&#45;&gt;9</title>
<g id="a_edge71"><a xlink:title="include">
<path fill="none" stroke="#1414ce" d="M542.06,-147.34C563.95,-137.39 594.02,-123.72 619.06,-112.34"/>
<polygon fill="#1414ce" stroke="#1414ce" points="620.73,-115.42 628.38,-108.1 617.83,-109.05 620.73,-115.42"/>
</a>
</g>
</g>
<!-- 28&#45;&gt;9 -->
<g id="edge72" class="edge">
<title>28&#45;&gt;9</title>
<g id="a_edge72"><a xlink:title="include">
<path fill="none" stroke="#1414ce" d="M128.63,-215.83C146.32,-194.93 179.29,-160.38 216,-144 286.23,-112.66 511.71,-98.27 614.3,-93.23"/>
<polygon fill="#1414ce" stroke="#1414ce" points="614.6,-96.72 624.42,-92.74 614.27,-89.73 614.6,-96.72"/>
</a>
</g>
</g>
<!-- 28&#45;&gt;15 -->
<g id="edge74" class="edge">
<title>28&#45;&gt;15</title>
<g id="a_edge74"><a xlink:title="include">
<path fill="none" stroke="#1414ce" d="M164,-221.75C225.07,-207.74 328.05,-184.1 382.94,-171.51"/>
<polygon fill="#1414ce" stroke="#1414ce" points="383.97,-174.86 392.93,-169.21 382.4,-168.04 383.97,-174.86"/>
</a>
</g>
</g>
<!-- 28&#45;&gt;5 -->
<g id="edge73" class="edge">
<title>28&#45;&gt;5</title>
<g id="a_edge73"><a xlink:title="include">
<path fill="none" stroke="#1414ce" d="M116.09,-215.96C119.24,-182.29 131.4,-107.41 178,-72 215.23,-43.71 530.15,-26.57 650.5,-21"/>
<polygon fill="#1414ce" stroke="#1414ce" points="651.02,-24.48 660.85,-20.53 650.7,-17.49 651.02,-24.48"/>
</a>
</g>
</g>
<!-- 16&#45;&gt;9 -->
<g id="edge75" class="edge">
<title>16&#45;&gt;9</title>
<g id="a_edge75"><a xlink:title="include">
<path fill="none" stroke="#1414ce" d="M670.4,-215.87C669.54,-191.67 667.98,-147.21 666.96,-118.39"/>
<polygon fill="#1414ce" stroke="#1414ce" points="670.46,-118.06 666.61,-108.19 663.46,-118.31 670.46,-118.06"/>
</a>
</g>
</g>
<!-- 16&#45;&gt;17 -->
<g id="edge78" class="edge">
<title>16&#45;&gt;17</title>
<g id="a_edge78"><a xlink:title="include">
<path fill="none" stroke="#1414ce" d="M714.18,-224.56C783.7,-210.96 919.52,-184.41 987.77,-171.06"/>
<polygon fill="#1414ce" stroke="#1414ce" points="988.59,-174.47 997.73,-169.11 987.24,-167.6 988.59,-174.47"/>
</a>
</g>
</g>
<!-- 16&#45;&gt;15 -->
<g id="edge76" class="edge">
<title>16&#45;&gt;15</title>
<g id="a_edge76"><a xlink:title="include">
<path fill="none" stroke="#1414ce" d="M627.96,-222.13C587.74,-211.81 526.09,-195.61 473,-180 467.73,-178.45 462.18,-176.75 456.74,-175.04"/>
<polygon fill="#1414ce" stroke="#1414ce" points="457.75,-171.69 447.16,-171.99 455.62,-178.36 457.75,-171.69"/>
</a>
</g>
</g>
<!-- 16&#45;&gt;11 -->
<g id="edge77" class="edge">
<title>16&#45;&gt;11</title>
<g id="a_edge77"><a xlink:title="include">
<path fill="none" stroke="#1414ce" d="M714.25,-228.88C787.62,-221.52 940.98,-204.55 1069,-180 1133.37,-167.65 1148.4,-159.81 1212,-144 1259.7,-132.14 1313.37,-118.97 1355.28,-108.73"/>
<polygon fill="#1414ce" stroke="#1414ce" points="1356.24,-112.1 1365.12,-106.32 1354.58,-105.3 1356.24,-112.1"/>
</a>
</g>
</g>
</g>
</svg>
