<?xml version="1.0" encoding="UTF-8" standalone="no"?>
<!DOCTYPE svg PUBLIC "-//W3C//DTD SVG 1.1//EN"
 "http://www.w3.org/Graphics/SVG/1.1/DTD/svg11.dtd">
<!-- Generated by graphviz version 2.43.0 (0)
 -->
<!-- Title: %3 Pages: 1 -->
<svg width="1391pt" height="836pt"
 viewBox="0.00 0.00 1391.15 836.00" xmlns="http://www.w3.org/2000/svg" xmlns:xlink="http://www.w3.org/1999/xlink">
<g id="graph0" class="graph" transform="scale(1 1) rotate(0) translate(4 832)">
<title>%3</title>
<polygon fill="transparent" stroke="transparent" points="-4,4 -4,-832 1387.15,-832 1387.15,4 -4,4"/>
<!-- 9 -->
<g id="node1" class="node">
<title>9</title>
<g id="a_node1"><a xlink:title="stdbool.h">
<polygon fill="#ffffff" stroke="black" points="876.5,-108 793.5,-108 793.5,-72 876.5,-72 876.5,-108"/>
<text text-anchor="middle" x="835" y="-86.3" font-family="Times,serif" font-size="14.00">stdbool.h</text>
</a>
</g>
</g>
<!-- 26 -->
<g id="node2" class="node">
<title>26</title>
<g id="a_node2"><a xlink:title="refc_binary.h">
<polygon fill="#ffffff" stroke="black" points="372,-396 264,-396 264,-360 372,-360 372,-396"/>
<text text-anchor="middle" x="318" y="-374.3" font-family="Times,serif" font-size="14.00">refc_binary.h</text>
</a>
</g>
</g>
<!-- 26&#45;&gt;9 -->
<g id="edge1" class="edge">
<title>26&#45;&gt;9</title>
<g id="a_edge1"><a xlink:title="include">
<path fill="none" stroke="#1414ce" d="M370.69,-359.9C396.47,-350.68 427.58,-338.26 454,-324 575.44,-258.45 586.26,-210.82 707,-144 731.32,-130.54 759.77,-118.43 783.67,-109.2"/>
<polygon fill="#1414ce" stroke="#1414ce" points="785.16,-112.37 793.26,-105.55 782.67,-105.83 785.16,-112.37"/>
</a>
</g>
</g>
<!-- 15 -->
<g id="node8" class="node">
<title>15</title>
<g id="a_node8"><a xlink:title="list.h">
<polygon fill="#ffffff" stroke="black" points="1042,-180 988,-180 988,-144 1042,-144 1042,-180"/>
<text text-anchor="middle" x="1015" y="-158.3" font-family="Times,serif" font-size="14.00">list.h</text>
</a>
</g>
</g>
<!-- 26&#45;&gt;15 -->
<g id="edge3" class="edge">
<title>26&#45;&gt;15</title>
<g id="a_edge3"><a xlink:title="include">
<path fill="none" stroke="#1414ce" d="M372.22,-362.05C375.19,-361.33 378.13,-360.64 381,-360 633.48,-303.55 736.21,-393.19 953,-252 976.29,-236.83 993.34,-209.56 1003.6,-189.19"/>
<polygon fill="#1414ce" stroke="#1414ce" points="1006.79,-190.64 1007.96,-180.11 1000.47,-187.61 1006.79,-190.64"/>
</a>
</g>
</g>
<!-- 7 -->
<g id="node10" class="node">
<title>7</title>
<g id="a_node10"><a xlink:title="stdlib.h">
<polygon fill="#ffffff" stroke="black" points="278.5,-108 207.5,-108 207.5,-72 278.5,-72 278.5,-108"/>
<text text-anchor="middle" x="243" y="-86.3" font-family="Times,serif" font-size="14.00">stdlib.h</text>
</a>
</g>
</g>
<!-- 26&#45;&gt;7 -->
<g id="edge2" class="edge">
<title>26&#45;&gt;7</title>
<g id="a_edge2"><a xlink:title="include">
<path fill="none" stroke="#1414ce" d="M312.31,-359.76C301.19,-325.69 276.28,-247.22 260,-180 255.03,-159.49 250.6,-136.03 247.51,-118.35"/>
<polygon fill="#1414ce" stroke="#1414ce" points="250.91,-117.43 245.77,-108.17 244.01,-118.62 250.91,-117.43"/>
</a>
</g>
</g>
<!-- 27 -->
<g id="node15" class="node">
<title>27</title>
<g id="a_node15"><a xlink:title="resources.h">
<polygon fill="#ffffff" stroke="black" points="445,-324 345,-324 345,-288 445,-288 445,-324"/>
<text text-anchor="middle" x="395" y="-302.3" font-family="Times,serif" font-size="14.00">resources.h</text>
</a>
</g>
</g>
<!-- 26&#45;&gt;27 -->
<g id="edge4" class="edge">
<title>26&#45;&gt;27</title>
<g id="a_edge4"><a xlink:title="include">
<path fill="none" stroke="#1414ce" d="M337.03,-359.7C346.54,-351.05 358.21,-340.45 368.57,-331.03"/>
<polygon fill="#1414ce" stroke="#1414ce" points="371.14,-333.42 376.19,-324.1 366.43,-328.24 371.14,-333.42"/>
</a>
</g>
</g>
<!-- 33 -->
<g id="node3" class="node">
<title>33</title>
<g id="a_node3"><a xlink:title="defaultatoms.h">
<polygon fill="#ffffff" stroke="black" points="982,-684 858,-684 858,-648 982,-648 982,-684"/>
<text text-anchor="middle" x="920" y="-662.3" font-family="Times,serif" font-size="14.00">defaultatoms.h</text>
</a>
</g>
</g>
<!-- 4 -->
<g id="node25" class="node">
<title>4</title>
<g id="a_node25"><a xlink:title="globalcontext.h">
<polygon fill="#ffffff" stroke="black" points="1094.5,-540 967.5,-540 967.5,-504 1094.5,-504 1094.5,-540"/>
<text text-anchor="middle" x="1031" y="-518.3" font-family="Times,serif" font-size="14.00">globalcontext.h</text>
</a>
</g>
</g>
<!-- 33&#45;&gt;4 -->
<g id="edge5" class="edge">
<title>33&#45;&gt;4</title>
<g id="a_edge5"><a xlink:title="include">
<path fill="none" stroke="#1414ce" d="M948.1,-647.97C961.75,-638.64 977.63,-626.11 989,-612 1004.09,-593.28 1015.28,-568.25 1022.3,-549.5"/>
<polygon fill="#1414ce" stroke="#1414ce" points="1025.6,-550.67 1025.68,-540.08 1019.01,-548.31 1025.6,-550.67"/>
</a>
</g>
</g>
<!-- 6 -->
<g id="node4" class="node">
<title>6</title>
<g id="a_node4"><a xlink:title="atom.h">
<polygon fill="#ffffff" stroke="black" points="132,-396 66,-396 66,-360 132,-360 132,-396"/>
<text text-anchor="middle" x="99" y="-374.3" font-family="Times,serif" font-size="14.00">atom.h</text>
</a>
</g>
</g>
<!-- 5 -->
<g id="node9" class="node">
<title>5</title>
<g id="a_node9"><a xlink:title="stdint.h">
<polygon fill="#ffffff" stroke="black" points="528,-36 456,-36 456,0 528,0 528,-36"/>
<text text-anchor="middle" x="492" y="-14.3" font-family="Times,serif" font-size="14.00">stdint.h</text>
</a>
</g>
</g>
<!-- 6&#45;&gt;5 -->
<g id="edge6" class="edge">
<title>6&#45;&gt;5</title>
<g id="a_edge6"><a xlink:title="include">
<path fill="none" stroke="#1414ce" d="M95.96,-359.57C91.58,-332.86 84,-280.12 84,-235 84,-235 84,-235 84,-161 84,-9.94 424.79,-41.4 446,-36 446.1,-35.97 446.2,-35.95 446.3,-35.92"/>
<polygon fill="#1414ce" stroke="#1414ce" points="447.18,-39.31 455.81,-33.17 445.24,-32.59 447.18,-39.31"/>
</a>
</g>
</g>
<!-- 6&#45;&gt;7 -->
<g id="edge7" class="edge">
<title>6&#45;&gt;7</title>
<g id="a_edge7"><a xlink:title="include">
<path fill="none" stroke="#1414ce" d="M100.58,-359.83C105.28,-312.05 120.42,-178.72 146,-144 158.85,-126.55 179.24,-114.19 198.01,-105.81"/>
<polygon fill="#1414ce" stroke="#1414ce" points="199.47,-108.99 207.35,-101.9 196.77,-102.54 199.47,-108.99"/>
</a>
</g>
</g>
<!-- 12 -->
<g id="node5" class="node">
<title>12</title>
<g id="a_node5"><a xlink:title="assert.h">
<polygon fill="#ffffff" stroke="black" points="241,-36 167,-36 167,0 241,0 241,-36"/>
<text text-anchor="middle" x="204" y="-14.3" font-family="Times,serif" font-size="14.00">assert.h</text>
</a>
</g>
</g>
<!-- 17 -->
<g id="node6" class="node">
<title>17</title>
<g id="a_node6"><a xlink:title="utils.h">
<polygon fill="#ffffff" stroke="black" points="617,-180 555,-180 555,-144 617,-144 617,-180"/>
<text text-anchor="middle" x="586" y="-158.3" font-family="Times,serif" font-size="14.00">utils.h</text>
</a>
</g>
</g>
<!-- 17&#45;&gt;7 -->
<g id="edge10" class="edge">
<title>17&#45;&gt;7</title>
<g id="a_edge10"><a xlink:title="include">
<path fill="none" stroke="#1414ce" d="M554.95,-153.84C540.69,-150.65 523.52,-146.95 508,-144 413.39,-126 384.87,-133.54 288.66,-108.18"/>
<polygon fill="#1414ce" stroke="#1414ce" points="289.38,-104.75 278.82,-105.53 287.56,-111.51 289.38,-104.75"/>
</a>
</g>
</g>
<!-- 18 -->
<g id="node17" class="node">
<title>18</title>
<g id="a_node17"><a xlink:title="stddef.h">
<polygon fill="#ffffff" stroke="black" points="629,-108 555,-108 555,-72 629,-72 629,-108"/>
<text text-anchor="middle" x="592" y="-86.3" font-family="Times,serif" font-size="14.00">stddef.h</text>
</a>
</g>
</g>
<!-- 17&#45;&gt;18 -->
<g id="edge8" class="edge">
<title>17&#45;&gt;18</title>
<g id="a_edge8"><a xlink:title="include">
<path fill="none" stroke="#1414ce" d="M587.48,-143.7C588.14,-135.98 588.94,-126.71 589.68,-118.11"/>
<polygon fill="#1414ce" stroke="#1414ce" points="593.17,-118.37 590.53,-108.1 586.19,-117.77 593.17,-118.37"/>
</a>
</g>
</g>
<!-- 19 -->
<g id="node32" class="node">
<title>19</title>
<g id="a_node32"><a xlink:title="stdio.h">
<polygon fill="#ffffff" stroke="black" points="715.5,-108 650.5,-108 650.5,-72 715.5,-72 715.5,-108"/>
<text text-anchor="middle" x="683" y="-86.3" font-family="Times,serif" font-size="14.00">stdio.h</text>
</a>
</g>
</g>
<!-- 17&#45;&gt;19 -->
<g id="edge9" class="edge">
<title>17&#45;&gt;19</title>
<g id="a_edge9"><a xlink:title="include">
<path fill="none" stroke="#1414ce" d="M609.98,-143.7C622.31,-134.8 637.52,-123.82 650.85,-114.2"/>
<polygon fill="#1414ce" stroke="#1414ce" points="653.24,-116.79 659.3,-108.1 649.14,-111.12 653.24,-116.79"/>
</a>
</g>
</g>
<!-- 21 -->
<g id="node7" class="node">
<title>21</title>
<g id="a_node7"><a xlink:title="synclist.h">
<polygon fill="#ffffff" stroke="black" points="1166.5,-252 1081.5,-252 1081.5,-216 1166.5,-216 1166.5,-252"/>
<text text-anchor="middle" x="1124" y="-230.3" font-family="Times,serif" font-size="14.00">synclist.h</text>
</a>
</g>
</g>
<!-- 21&#45;&gt;15 -->
<g id="edge12" class="edge">
<title>21&#45;&gt;15</title>
<g id="a_edge12"><a xlink:title="include">
<path fill="none" stroke="#1414ce" d="M1097.34,-215.88C1083.22,-206.81 1065.69,-195.55 1050.44,-185.76"/>
<polygon fill="#1414ce" stroke="#1414ce" points="1052.07,-182.65 1041.77,-180.19 1048.29,-188.54 1052.07,-182.65"/>
</a>
</g>
</g>
<!-- 20 -->
<g id="node26" class="node">
<title>20</title>
<g id="a_node26"><a xlink:title="smp.h">
<polygon fill="#ffffff" stroke="black" points="1205,-180 1145,-180 1145,-144 1205,-144 1205,-180"/>
<text text-anchor="middle" x="1175" y="-158.3" font-family="Times,serif" font-size="14.00">smp.h</text>
</a>
</g>
</g>
<!-- 21&#45;&gt;20 -->
<g id="edge13" class="edge">
<title>21&#45;&gt;20</title>
<g id="a_edge13"><a xlink:title="include">
<path fill="none" stroke="#1414ce" d="M1136.61,-215.7C1142.6,-207.47 1149.88,-197.48 1156.48,-188.42"/>
<polygon fill="#1414ce" stroke="#1414ce" points="1159.48,-190.25 1162.54,-180.1 1153.82,-186.13 1159.48,-190.25"/>
</a>
</g>
</g>
<!-- 21&#45;&gt;19 -->
<g id="edge11" class="edge">
<title>21&#45;&gt;19</title>
<g id="a_edge11"><a xlink:title="include">
<path fill="none" stroke="#1414ce" d="M1115.27,-215.95C1103.65,-195.17 1081.01,-160.76 1051,-144 946.83,-85.85 902.96,-125.81 785,-108 765.47,-105.05 743.89,-101.5 725.62,-98.4"/>
<polygon fill="#1414ce" stroke="#1414ce" points="726.02,-94.92 715.57,-96.69 724.84,-101.82 726.02,-94.92"/>
</a>
</g>
</g>
<!-- 3 -->
<g id="node11" class="node">
<title>3</title>
<g id="a_node11"><a xlink:title="context.h">
<polygon fill="#ffffff" stroke="black" points="946.5,-612 863.5,-612 863.5,-576 946.5,-576 946.5,-612"/>
<text text-anchor="middle" x="905" y="-590.3" font-family="Times,serif" font-size="14.00">context.h</text>
</a>
</g>
</g>
<!-- 3&#45;&gt;15 -->
<g id="edge15" class="edge">
<title>3&#45;&gt;15</title>
<g id="a_edge15"><a xlink:title="include">
<path fill="none" stroke="#1414ce" d="M909.38,-575.88C926.28,-509.8 987.35,-271.08 1008.07,-190.1"/>
<polygon fill="#1414ce" stroke="#1414ce" points="1011.52,-190.73 1010.61,-180.17 1004.74,-188.99 1011.52,-190.73"/>
</a>
</g>
</g>
<!-- 22 -->
<g id="node16" class="node">
<title>22</title>
<g id="a_node16"><a xlink:title="term.h">
<polygon fill="#ffffff" stroke="black" points="548.5,-468 483.5,-468 483.5,-432 548.5,-432 548.5,-468"/>
<text text-anchor="middle" x="516" y="-446.3" font-family="Times,serif" font-size="14.00">term.h</text>
</a>
</g>
</g>
<!-- 3&#45;&gt;22 -->
<g id="edge18" class="edge">
<title>3&#45;&gt;22</title>
<g id="a_edge18"><a xlink:title="include">
<path fill="none" stroke="#1414ce" d="M863.37,-577.8C788.81,-550.59 633.28,-493.81 558.26,-466.43"/>
<polygon fill="#1414ce" stroke="#1414ce" points="559.25,-463.06 548.66,-462.92 556.85,-469.64 559.25,-463.06"/>
</a>
</g>
</g>
<!-- 3&#45;&gt;4 -->
<g id="edge14" class="edge">
<title>3&#45;&gt;4</title>
<g id="a_edge14"><a xlink:title="include">
<path fill="none" stroke="#1414ce" d="M935.82,-575.88C952.45,-566.64 973.16,-555.13 991.02,-545.21"/>
<polygon fill="#1414ce" stroke="#1414ce" points="993.02,-548.11 1000.06,-540.19 989.62,-541.99 993.02,-548.11"/>
</a>
</g>
</g>
<!-- 3&#45;&gt;20 -->
<g id="edge17" class="edge">
<title>3&#45;&gt;20</title>
<g id="a_edge17"><a xlink:title="include">
<path fill="none" stroke="#1414ce" d="M946.57,-590.94C1015.89,-584.88 1152.04,-561.11 1198,-468 1244.25,-374.31 1205.82,-244.47 1185.56,-189.39"/>
<polygon fill="#1414ce" stroke="#1414ce" points="1188.82,-188.12 1182.01,-180 1182.27,-190.6 1188.82,-188.12"/>
</a>
</g>
</g>
<!-- 28 -->
<g id="node30" class="node">
<title>28</title>
<g id="a_node30"><a xlink:title="timer_list.h">
<polygon fill="#ffffff" stroke="black" points="1359,-252 1261,-252 1261,-216 1359,-216 1359,-252"/>
<text text-anchor="middle" x="1310" y="-230.3" font-family="Times,serif" font-size="14.00">timer_list.h</text>
</a>
</g>
</g>
<!-- 3&#45;&gt;28 -->
<g id="edge19" class="edge">
<title>3&#45;&gt;28</title>
<g id="a_edge19"><a xlink:title="include">
<path fill="none" stroke="#1414ce" d="M946.51,-592.82C1034.6,-591.56 1236.29,-583.85 1286,-540 1316.72,-512.9 1310,-491.97 1310,-451 1310,-451 1310,-451 1310,-377 1310,-337 1310,-290.65 1310,-262.08"/>
<polygon fill="#1414ce" stroke="#1414ce" points="1313.5,-262.05 1310,-252.05 1306.5,-262.05 1313.5,-262.05"/>
</a>
</g>
</g>
<!-- 16 -->
<g id="node31" class="node">
<title>16</title>
<g id="a_node31"><a xlink:title="mailbox.h">
<polygon fill="#ffffff" stroke="black" points="911,-252 825,-252 825,-216 911,-216 911,-252"/>
<text text-anchor="middle" x="868" y="-230.3" font-family="Times,serif" font-size="14.00">mailbox.h</text>
</a>
</g>
</g>
<!-- 3&#45;&gt;16 -->
<g id="edge16" class="edge">
<title>3&#45;&gt;16</title>
<g id="a_edge16"><a xlink:title="include">
<path fill="none" stroke="#1414ce" d="M903.22,-575.73C897.27,-518.19 878.09,-332.66 870.83,-262.35"/>
<polygon fill="#1414ce" stroke="#1414ce" points="874.28,-261.68 869.77,-252.09 867.31,-262.4 874.28,-261.68"/>
</a>
</g>
</g>
<!-- 25 -->
<g id="node12" class="node">
<title>25</title>
<g id="a_node12"><a xlink:title="memory.h">
<polygon fill="#ffffff" stroke="black" points="410,-252 324,-252 324,-216 410,-216 410,-252"/>
<text text-anchor="middle" x="367" y="-230.3" font-family="Times,serif" font-size="14.00">memory.h</text>
</a>
</g>
</g>
<!-- 25&#45;&gt;17 -->
<g id="edge24" class="edge">
<title>25&#45;&gt;17</title>
<g id="a_edge24"><a xlink:title="include">
<path fill="none" stroke="#1414ce" d="M410.01,-219.25C449.11,-206.75 506.43,-188.43 544.93,-176.13"/>
<polygon fill="#1414ce" stroke="#1414ce" points="546.31,-179.36 554.77,-172.98 544.18,-172.69 546.31,-179.36"/>
</a>
</g>
</g>
<!-- 25&#45;&gt;5 -->
<g id="edge20" class="edge">
<title>25&#45;&gt;5</title>
<g id="a_edge20"><a xlink:title="include">
<path fill="none" stroke="#1414ce" d="M376.18,-215.82C385.86,-197.8 401.68,-168.73 416,-144 436.06,-109.35 460.23,-69.98 475.85,-44.83"/>
<polygon fill="#1414ce" stroke="#1414ce" points="478.88,-46.59 481.19,-36.25 472.93,-42.89 478.88,-46.59"/>
</a>
</g>
</g>
<!-- 25&#45;&gt;7 -->
<g id="edge21" class="edge">
<title>25&#45;&gt;7</title>
<g id="a_edge21"><a xlink:title="include">
<path fill="none" stroke="#1414ce" d="M354.46,-215.75C340.91,-197.42 318.38,-167.86 297,-144 288.23,-134.22 278.08,-123.99 268.95,-115.16"/>
<polygon fill="#1414ce" stroke="#1414ce" points="271.23,-112.49 261.58,-108.11 266.39,-117.55 271.23,-112.49"/>
</a>
</g>
</g>
<!-- 10 -->
<g id="node18" class="node">
<title>10</title>
<g id="a_node18"><a xlink:title="erl_nif.h">
<polygon fill="#ffffff" stroke="black" points="499,-180 425,-180 425,-144 499,-144 499,-180"/>
<text text-anchor="middle" x="462" y="-158.3" font-family="Times,serif" font-size="14.00">erl_nif.h</text>
</a>
</g>
</g>
<!-- 25&#45;&gt;10 -->
<g id="edge22" class="edge">
<title>25&#45;&gt;10</title>
<g id="a_edge22"><a xlink:title="include">
<path fill="none" stroke="#1414ce" d="M390.48,-215.7C402.56,-206.8 417.45,-195.82 430.52,-186.2"/>
<polygon fill="#1414ce" stroke="#1414ce" points="432.81,-188.85 438.79,-180.1 428.66,-183.22 432.81,-188.85"/>
</a>
</g>
</g>
<!-- 11 -->
<g id="node24" class="node">
<title>11</title>
<g id="a_node24"><a xlink:title="term_typedef.h">
<polygon fill="#ffffff" stroke="black" points="421.5,-108 296.5,-108 296.5,-72 421.5,-72 421.5,-108"/>
<text text-anchor="middle" x="359" y="-86.3" font-family="Times,serif" font-size="14.00">term_typedef.h</text>
</a>
</g>
</g>
<!-- 25&#45;&gt;11 -->
<g id="edge23" class="edge">
<title>25&#45;&gt;11</title>
<g id="a_edge23"><a xlink:title="include">
<path fill="none" stroke="#1414ce" d="M366.04,-215.87C364.67,-191.67 362.17,-147.21 360.54,-118.39"/>
<polygon fill="#1414ce" stroke="#1414ce" points="364.03,-117.98 359.97,-108.19 357.04,-118.37 364.03,-117.98"/>
</a>
</g>
</g>
<!-- 29 -->
<g id="node13" class="node">
<title>29</title>
<g id="a_node13"><a xlink:title="module.h">
<polygon fill="#ffffff" stroke="black" points="674.5,-684 591.5,-684 591.5,-648 674.5,-648 674.5,-684"/>
<text text-anchor="middle" x="633" y="-662.3" font-family="Times,serif" font-size="14.00">module.h</text>
</a>
</g>
</g>
<!-- 29&#45;&gt;9 -->
<g id="edge25" class="edge">
<title>29&#45;&gt;9</title>
<g id="a_edge25"><a xlink:title="include">
<path fill="none" stroke="#1414ce" d="M674.6,-658.04C722.43,-649.2 796.84,-632.58 816,-612 843.56,-582.39 835,-563.45 835,-523 835,-523 835,-523 835,-377 835,-304.95 810.57,-287.85 816,-216 818.56,-182.1 824.98,-143.47 829.65,-118.24"/>
<polygon fill="#1414ce" stroke="#1414ce" points="833.11,-118.77 831.52,-108.3 826.23,-117.47 833.11,-118.77"/>
</a>
</g>
</g>
<!-- 29&#45;&gt;6 -->
<g id="edge27" class="edge">
<title>29&#45;&gt;6</title>
<g id="a_edge27"><a xlink:title="include">
<path fill="none" stroke="#1414ce" d="M591.19,-656.55C554.76,-648.22 501.15,-633.59 458,-612 385.5,-575.73 378.67,-548.64 311,-504 252.57,-465.45 182.09,-425.04 138.92,-400.94"/>
<polygon fill="#1414ce" stroke="#1414ce" points="140.58,-397.86 130.14,-396.06 137.17,-403.98 140.58,-397.86"/>
</a>
</g>
</g>
<!-- 29&#45;&gt;5 -->
<g id="edge26" class="edge">
<title>29&#45;&gt;5</title>
<g id="a_edge26"><a xlink:title="include">
<path fill="none" stroke="#1414ce" d="M591.42,-663.93C523.26,-661.07 384.32,-650.57 274,-612 101.99,-551.86 0,-489.22 0,-307 0,-307 0,-307 0,-161 0,-101.83 44.92,-96.01 99,-72 240.71,-9.09 294.99,-71.15 446,-36 446.1,-35.98 446.2,-35.95 446.3,-35.93"/>
<polygon fill="#1414ce" stroke="#1414ce" points="447.13,-39.33 455.85,-33.31 445.28,-32.58 447.13,-39.33"/>
</a>
</g>
</g>
<!-- 29&#45;&gt;3 -->
<g id="edge30" class="edge">
<title>29&#45;&gt;3</title>
<g id="a_edge30"><a xlink:title="include">
<path fill="none" stroke="#1414ce" d="M674.58,-655.5C718.2,-645.37 788.68,-628.54 849,-612 850.47,-611.6 851.96,-611.18 853.46,-610.76"/>
<polygon fill="#1414ce" stroke="#1414ce" points="854.84,-614.01 863.48,-607.88 852.9,-607.28 854.84,-614.01"/>
</a>
</g>
</g>
<!-- 32 -->
<g id="node14" class="node">
<title>32</title>
<g id="a_node14"><a xlink:title="valueshashtable.h">
<polygon fill="#ffffff" stroke="black" points="807,-612 661,-612 661,-576 807,-576 807,-612"/>
<text text-anchor="middle" x="734" y="-590.3" font-family="Times,serif" font-size="14.00">valueshashtable.h</text>
</a>
</g>
</g>
<!-- 29&#45;&gt;32 -->
<g id="edge34" class="edge">
<title>29&#45;&gt;32</title>
<g id="a_edge34"><a xlink:title="include">
<path fill="none" stroke="#1414ce" d="M657.71,-647.88C670.67,-638.89 686.73,-627.76 700.77,-618.03"/>
<polygon fill="#1414ce" stroke="#1414ce" points="702.97,-620.76 709.2,-612.19 698.98,-615.01 702.97,-620.76"/>
</a>
</g>
</g>
<!-- 29&#45;&gt;22 -->
<g id="edge33" class="edge">
<title>29&#45;&gt;22</title>
<g id="a_edge33"><a xlink:title="include">
<path fill="none" stroke="#1414ce" d="M591.48,-652.89C543,-636.27 465.12,-601.24 431,-540 423.21,-526.02 423.24,-517.99 431,-504 440.4,-487.06 457.71,-474.83 474.27,-466.42"/>
<polygon fill="#1414ce" stroke="#1414ce" points="475.79,-469.57 483.33,-462.13 472.8,-463.24 475.79,-469.57"/>
</a>
</g>
</g>
<!-- 31 -->
<g id="node19" class="node">
<title>31</title>
<g id="a_node19"><a xlink:title="exportedfunction.h">
<polygon fill="#ffffff" stroke="black" points="592,-540 440,-540 440,-504 592,-504 592,-540"/>
<text text-anchor="middle" x="516" y="-518.3" font-family="Times,serif" font-size="14.00">exportedfunction.h</text>
</a>
</g>
</g>
<!-- 29&#45;&gt;31 -->
<g id="edge31" class="edge">
<title>29&#45;&gt;31</title>
<g id="a_edge31"><a xlink:title="include">
<path fill="none" stroke="#1414ce" d="M618.89,-647.87C598.42,-623.03 560.37,-576.85 536.72,-548.14"/>
<polygon fill="#1414ce" stroke="#1414ce" points="539.22,-545.68 530.16,-540.19 533.82,-550.13 539.22,-545.68"/>
</a>
</g>
</g>
<!-- 8 -->
<g id="node21" class="node">
<title>8</title>
<g id="a_node21"><a xlink:title="atom_table.h">
<polygon fill="#ffffff" stroke="black" points="747.5,-468 638.5,-468 638.5,-432 747.5,-432 747.5,-468"/>
<text text-anchor="middle" x="693" y="-446.3" font-family="Times,serif" font-size="14.00">atom_table.h</text>
</a>
</g>
</g>
<!-- 29&#45;&gt;8 -->
<g id="edge28" class="edge">
<title>29&#45;&gt;8</title>
<g id="a_edge28"><a xlink:title="include">
<path fill="none" stroke="#1414ce" d="M636.11,-647.81C639.49,-629.79 645.33,-600.71 652,-576 661.26,-541.7 674.41,-502.93 683.3,-477.78"/>
<polygon fill="#1414ce" stroke="#1414ce" points="686.65,-478.81 686.71,-468.21 680.05,-476.46 686.65,-478.81"/>
</a>
</g>
</g>
<!-- 29&#45;&gt;4 -->
<g id="edge32" class="edge">
<title>29&#45;&gt;4</title>
<g id="a_edge32"><a xlink:title="include">
<path fill="none" stroke="#1414ce" d="M674.57,-661.77C750.6,-655.29 908.57,-638.95 956,-612 963.14,-607.94 991.47,-573.13 1011.19,-548.27"/>
<polygon fill="#1414ce" stroke="#1414ce" points="1014.05,-550.29 1017.51,-540.28 1008.56,-545.95 1014.05,-550.29"/>
</a>
</g>
</g>
<!-- 30 -->
<g id="node27" class="node">
<title>30</title>
<g id="a_node27"><a xlink:title="atomshashtable.h">
<polygon fill="#ffffff" stroke="black" points="302.5,-540 159.5,-540 159.5,-504 302.5,-504 302.5,-540"/>
<text text-anchor="middle" x="231" y="-518.3" font-family="Times,serif" font-size="14.00">atomshashtable.h</text>
</a>
</g>
</g>
<!-- 29&#45;&gt;30 -->
<g id="edge29" class="edge">
<title>29&#45;&gt;30</title>
<g id="a_edge29"><a xlink:title="include">
<path fill="none" stroke="#1414ce" d="M591.45,-665.24C530.17,-664.01 413.4,-655.51 326,-612 295.46,-596.8 267.9,-568.58 250.43,-547.98"/>
<polygon fill="#1414ce" stroke="#1414ce" points="253.09,-545.7 244.02,-540.22 247.7,-550.16 253.09,-545.7"/>
</a>
</g>
</g>
<!-- 27&#45;&gt;21 -->
<g id="edge39" class="edge">
<title>27&#45;&gt;21</title>
<g id="a_edge39"><a xlink:title="include">
<path fill="none" stroke="#1414ce" d="M445.03,-300.32C542.69,-291.17 765.59,-270.22 953,-252 992.69,-248.14 1037.56,-243.68 1071.37,-240.29"/>
<polygon fill="#1414ce" stroke="#1414ce" points="1071.89,-243.76 1081.49,-239.28 1071.19,-236.79 1071.89,-243.76"/>
</a>
</g>
</g>
<!-- 27&#45;&gt;15 -->
<g id="edge37" class="edge">
<title>27&#45;&gt;15</title>
<g id="a_edge37"><a xlink:title="include">
<path fill="none" stroke="#1414ce" d="M445.25,-304C559.65,-301.07 836.08,-290.15 920,-252 928.47,-248.15 965.38,-212.4 990.62,-187.4"/>
<polygon fill="#1414ce" stroke="#1414ce" points="993.09,-189.88 997.71,-180.35 988.15,-184.92 993.09,-189.88"/>
</a>
</g>
</g>
<!-- 27&#45;&gt;7 -->
<g id="edge35" class="edge">
<title>27&#45;&gt;7</title>
<g id="a_edge35"><a xlink:title="include">
<path fill="none" stroke="#1414ce" d="M360.2,-287.78C344.79,-278.8 327.39,-266.62 315,-252 296.89,-230.63 267.88,-157.55 252.81,-117.6"/>
<polygon fill="#1414ce" stroke="#1414ce" points="256.08,-116.35 249.29,-108.21 249.52,-118.8 256.08,-116.35"/>
</a>
</g>
</g>
<!-- 27&#45;&gt;25 -->
<g id="edge38" class="edge">
<title>27&#45;&gt;25</title>
<g id="a_edge38"><a xlink:title="include">
<path fill="none" stroke="#1414ce" d="M388.08,-287.7C384.93,-279.81 381.12,-270.3 377.62,-261.55"/>
<polygon fill="#1414ce" stroke="#1414ce" points="380.81,-260.09 373.84,-252.1 374.31,-262.69 380.81,-260.09"/>
</a>
</g>
</g>
<!-- 27&#45;&gt;10 -->
<g id="edge36" class="edge">
<title>27&#45;&gt;10</title>
<g id="a_edge36"><a xlink:title="include">
<path fill="none" stroke="#1414ce" d="M403.08,-287.87C414.65,-263.35 436.03,-218.03 449.61,-189.26"/>
<polygon fill="#1414ce" stroke="#1414ce" points="452.79,-190.73 453.89,-180.19 446.46,-187.74 452.79,-190.73"/>
</a>
</g>
</g>
<!-- 22&#45;&gt;9 -->
<g id="edge41" class="edge">
<title>22&#45;&gt;9</title>
<g id="a_edge41"><a xlink:title="include">
<path fill="none" stroke="#1414ce" d="M548.66,-444.95C582.79,-439.25 636.27,-425.95 672,-396 706.61,-367 721,-352.15 721,-307 721,-307 721,-307 721,-233 721,-182 766.27,-138.88 799.76,-113.97"/>
<polygon fill="#1414ce" stroke="#1414ce" points="801.92,-116.73 807.98,-108.04 797.83,-111.05 801.92,-116.73"/>
</a>
</g>
</g>
<!-- 22&#45;&gt;26 -->
<g id="edge47" class="edge">
<title>22&#45;&gt;26</title>
<g id="a_edge47"><a xlink:title="include">
<path fill="none" stroke="#1414ce" d="M483.3,-437.44C454.19,-427.15 410.91,-411.85 375.94,-399.48"/>
<polygon fill="#1414ce" stroke="#1414ce" points="376.91,-396.12 366.32,-396.08 374.58,-402.72 376.91,-396.12"/>
</a>
</g>
</g>
<!-- 22&#45;&gt;17 -->
<g id="edge48" class="edge">
<title>22&#45;&gt;17</title>
<g id="a_edge48"><a xlink:title="include">
<path fill="none" stroke="#1414ce" d="M548.59,-442.19C573.2,-435.15 605.32,-421.48 621,-396 661.53,-330.14 623.11,-234.48 600.24,-188.96"/>
<polygon fill="#1414ce" stroke="#1414ce" points="603.33,-187.31 595.64,-180.03 597.11,-190.52 603.33,-187.31"/>
</a>
</g>
</g>
<!-- 22&#45;&gt;5 -->
<g id="edge42" class="edge">
<title>22&#45;&gt;5</title>
<g id="a_edge42"><a xlink:title="include">
<path fill="none" stroke="#1414ce" d="M548.56,-433.55C563.14,-424.75 578.86,-412.23 587,-396 594.17,-381.7 589.17,-375.85 587,-360 578.43,-297.31 522.18,-114.82 500.5,-45.84"/>
<polygon fill="#1414ce" stroke="#1414ce" points="503.79,-44.63 497.44,-36.14 497.11,-46.73 503.79,-44.63"/>
</a>
</g>
</g>
<!-- 22&#45;&gt;7 -->
<g id="edge44" class="edge">
<title>22&#45;&gt;7</title>
<g id="a_edge44"><a xlink:title="include">
<path fill="none" stroke="#1414ce" d="M483.45,-442.46C466.87,-439.19 446.39,-435.25 428,-432 328.71,-414.44 285.15,-455.85 204,-396 168.49,-369.81 160,-351.13 160,-307 160,-307 160,-307 160,-233 160,-186.74 193.24,-142.16 217.65,-115.66"/>
<polygon fill="#1414ce" stroke="#1414ce" points="220.24,-118.02 224.58,-108.36 215.16,-113.2 220.24,-118.02"/>
</a>
</g>
</g>
<!-- 22&#45;&gt;25 -->
<g id="edge46" class="edge">
<title>22&#45;&gt;25</title>
<g id="a_edge46"><a xlink:title="include">
<path fill="none" stroke="#1414ce" d="M483.48,-442.67C413.92,-429.09 256.82,-398.23 255,-396 216.74,-349.19 285.43,-289.86 331.12,-257.9"/>
<polygon fill="#1414ce" stroke="#1414ce" points="333.36,-260.61 339.63,-252.07 329.4,-254.83 333.36,-260.61"/>
</a>
</g>
</g>
<!-- 23 -->
<g id="node22" class="node">
<title>23</title>
<g id="a_node22"><a xlink:title="sys/types.h">
<polygon fill="#ffffff" stroke="black" points="487.5,-396 390.5,-396 390.5,-360 487.5,-360 487.5,-396"/>
<text text-anchor="middle" x="439" y="-374.3" font-family="Times,serif" font-size="14.00">sys/types.h</text>
</a>
</g>
</g>
<!-- 22&#45;&gt;23 -->
<g id="edge40" class="edge">
<title>22&#45;&gt;23</title>
<g id="a_edge40"><a xlink:title="include">
<path fill="none" stroke="#1414ce" d="M496.97,-431.7C487.46,-423.05 475.79,-412.45 465.43,-403.03"/>
<polygon fill="#1414ce" stroke="#1414ce" points="467.57,-400.24 457.81,-396.1 462.86,-405.42 467.57,-400.24"/>
</a>
</g>
</g>
<!-- 24 -->
<g id="node23" class="node">
<title>24</title>
<g id="a_node23"><a xlink:title="string.h">
<polygon fill="#ffffff" stroke="black" points="578.5,-396 505.5,-396 505.5,-360 578.5,-360 578.5,-396"/>
<text text-anchor="middle" x="542" y="-374.3" font-family="Times,serif" font-size="14.00">string.h</text>
</a>
</g>
</g>
<!-- 22&#45;&gt;24 -->
<g id="edge45" class="edge">
<title>22&#45;&gt;24</title>
<g id="a_edge45"><a xlink:title="include">
<path fill="none" stroke="#1414ce" d="M522.43,-431.7C525.36,-423.81 528.89,-414.3 532.14,-405.55"/>
<polygon fill="#1414ce" stroke="#1414ce" points="535.45,-406.7 535.65,-396.1 528.88,-404.26 535.45,-406.7"/>
</a>
</g>
</g>
<!-- 22&#45;&gt;11 -->
<g id="edge49" class="edge">
<title>22&#45;&gt;11</title>
<g id="a_edge49"><a xlink:title="include">
<path fill="none" stroke="#1414ce" d="M483.41,-442.69C466.82,-439.48 446.34,-435.53 428,-432 344.46,-415.93 307.23,-448.13 240,-396 205.43,-369.2 198,-350.74 198,-307 198,-307 198,-307 198,-233 198,-174.82 257.86,-134.8 304.58,-112.42"/>
<polygon fill="#1414ce" stroke="#1414ce" points="306.12,-115.56 313.72,-108.18 303.18,-109.21 306.12,-115.56"/>
</a>
</g>
</g>
<!-- 22&#45;&gt;19 -->
<g id="edge43" class="edge">
<title>22&#45;&gt;19</title>
<g id="a_edge43"><a xlink:title="include">
<path fill="none" stroke="#1414ce" d="M548.69,-442.48C576.82,-435.36 616.89,-421.41 643,-396 674.08,-365.75 683,-350.37 683,-307 683,-307 683,-307 683,-233 683,-193 683,-146.65 683,-118.08"/>
<polygon fill="#1414ce" stroke="#1414ce" points="686.5,-118.05 683,-108.05 679.5,-118.05 686.5,-118.05"/>
</a>
</g>
</g>
<!-- 10&#45;&gt;11 -->
<g id="edge50" class="edge">
<title>10&#45;&gt;11</title>
<g id="a_edge50"><a xlink:title="include">
<path fill="none" stroke="#1414ce" d="M436.8,-143.88C423.59,-134.89 407.21,-123.76 392.89,-114.03"/>
<polygon fill="#1414ce" stroke="#1414ce" points="394.53,-110.92 384.29,-108.19 390.6,-116.71 394.53,-110.92"/>
</a>
</g>
</g>
<!-- 31&#45;&gt;22 -->
<g id="edge51" class="edge">
<title>31&#45;&gt;22</title>
<g id="a_edge51"><a xlink:title="include">
<path fill="none" stroke="#1414ce" d="M516,-503.7C516,-495.98 516,-486.71 516,-478.11"/>
<polygon fill="#1414ce" stroke="#1414ce" points="519.5,-478.1 516,-468.1 512.5,-478.1 519.5,-478.1"/>
</a>
</g>
</g>
<!-- 13 -->
<g id="node20" class="node">
<title>13</title>
<g id="a_node20"><a xlink:title="limits.h">
<polygon fill="#ffffff" stroke="black" points="330.5,-36 259.5,-36 259.5,0 330.5,0 330.5,-36"/>
<text text-anchor="middle" x="295" y="-14.3" font-family="Times,serif" font-size="14.00">limits.h</text>
</a>
</g>
</g>
<!-- 8&#45;&gt;9 -->
<g id="edge52" class="edge">
<title>8&#45;&gt;9</title>
<g id="a_edge52"><a xlink:title="include">
<path fill="none" stroke="#1414ce" d="M709.77,-431.63C718.41,-421.85 728.47,-409.01 735,-396 772.15,-322.01 756.37,-294.4 783,-216 794.81,-181.22 811.58,-142.33 822.85,-117.3"/>
<polygon fill="#1414ce" stroke="#1414ce" points="826.07,-118.66 827.02,-108.11 819.7,-115.77 826.07,-118.66"/>
</a>
</g>
</g>
<!-- 8&#45;&gt;6 -->
<g id="edge53" class="edge">
<title>8&#45;&gt;6</title>
<g id="a_edge53"><a xlink:title="include">
<path fill="none" stroke="#1414ce" d="M638.42,-442.06C613.58,-438.93 583.81,-435.23 557,-432 404.7,-413.67 223.75,-393.08 142.4,-383.89"/>
<polygon fill="#1414ce" stroke="#1414ce" points="142.39,-380.37 132.06,-382.72 141.6,-387.32 142.39,-380.37"/>
</a>
</g>
</g>
<!-- 11&#45;&gt;12 -->
<g id="edge54" class="edge">
<title>11&#45;&gt;12</title>
<g id="a_edge54"><a xlink:title="include">
<path fill="none" stroke="#1414ce" d="M321.08,-71.88C299.83,-62.28 273.15,-50.23 250.63,-40.06"/>
<polygon fill="#1414ce" stroke="#1414ce" points="251.81,-36.75 241.26,-35.83 248.93,-43.13 251.81,-36.75"/>
</a>
</g>
</g>
<!-- 11&#45;&gt;5 -->
<g id="edge57" class="edge">
<title>11&#45;&gt;5</title>
<g id="a_edge57"><a xlink:title="include">
<path fill="none" stroke="#1414ce" d="M391.54,-71.88C409.25,-62.55 431.35,-50.92 450.32,-40.94"/>
<polygon fill="#1414ce" stroke="#1414ce" points="452.12,-43.94 459.34,-36.19 448.86,-37.75 452.12,-43.94"/>
</a>
</g>
</g>
<!-- 11&#45;&gt;13 -->
<g id="edge55" class="edge">
<title>11&#45;&gt;13</title>
<g id="a_edge55"><a xlink:title="include">
<path fill="none" stroke="#1414ce" d="M343.18,-71.7C335.43,-63.22 325.96,-52.86 317.48,-43.58"/>
<polygon fill="#1414ce" stroke="#1414ce" points="319.97,-41.12 310.64,-36.1 314.8,-45.85 319.97,-41.12"/>
</a>
</g>
</g>
<!-- 14 -->
<g id="node33" class="node">
<title>14</title>
<g id="a_node33"><a xlink:title="inttypes.h">
<polygon fill="#ffffff" stroke="black" points="437.5,-36 348.5,-36 348.5,0 437.5,0 437.5,-36"/>
<text text-anchor="middle" x="393" y="-14.3" font-family="Times,serif" font-size="14.00">inttypes.h</text>
</a>
</g>
</g>
<!-- 11&#45;&gt;14 -->
<g id="edge56" class="edge">
<title>11&#45;&gt;14</title>
<g id="a_edge56"><a xlink:title="include">
<path fill="none" stroke="#1414ce" d="M367.4,-71.7C371.27,-63.73 375.95,-54.1 380.24,-45.26"/>
<polygon fill="#1414ce" stroke="#1414ce" points="383.47,-46.63 384.69,-36.1 377.17,-43.57 383.47,-46.63"/>
</a>
</g>
</g>
<!-- 4&#45;&gt;6 -->
<g id="edge59" class="edge">
<title>4&#45;&gt;6</title>
<g id="a_edge59"><a xlink:title="include">
<path fill="none" stroke="#1414ce" d="M967.35,-519.01C863.28,-514.85 650.6,-502.54 474,-468 419.35,-457.31 408.2,-444.77 354,-432 262.68,-410.48 236.68,-420.05 146,-396 144.58,-395.62 143.15,-395.22 141.71,-394.81"/>
<polygon fill="#1414ce" stroke="#1414ce" points="142.74,-391.46 132.15,-391.81 140.64,-398.14 142.74,-391.46"/>
</a>
</g>
</g>
<!-- 4&#45;&gt;21 -->
<g id="edge65" class="edge">
<title>4&#45;&gt;21</title>
<g id="a_edge65"><a xlink:title="include">
<path fill="none" stroke="#1414ce" d="M1045.02,-503.79C1052.5,-493.85 1061.31,-480.81 1067,-468 1098.41,-397.34 1114.24,-306.6 1120.57,-262.08"/>
<polygon fill="#1414ce" stroke="#1414ce" points="1124.06,-262.43 1121.95,-252.05 1117.12,-261.48 1124.06,-262.43"/>
</a>
</g>
</g>
<!-- 4&#45;&gt;15 -->
<g id="edge62" class="edge">
<title>4&#45;&gt;15</title>
<g id="a_edge62"><a xlink:title="include">
<path fill="none" stroke="#1414ce" d="M1035.45,-503.65C1041.88,-477.02 1053,-424.4 1053,-379 1053,-379 1053,-379 1053,-305 1053,-263.63 1037.77,-217.72 1026.59,-189.61"/>
<polygon fill="#1414ce" stroke="#1414ce" points="1029.72,-188.02 1022.69,-180.09 1023.24,-190.67 1029.72,-188.02"/>
</a>
</g>
</g>
<!-- 4&#45;&gt;5 -->
<g id="edge58" class="edge">
<title>4&#45;&gt;5</title>
<g id="a_edge58"><a xlink:title="include">
<path fill="none" stroke="#1414ce" d="M1094.89,-510.1C1127.81,-502.26 1167.37,-489.21 1198,-468 1309.07,-391.09 1425.16,-338.41 1368,-216 1311.12,-94.19 1232.78,-103.12 1102,-72 896.04,-23 641.35,-18.16 538.4,-18.43"/>
<polygon fill="#1414ce" stroke="#1414ce" points="538.32,-14.93 528.34,-18.47 538.35,-21.93 538.32,-14.93"/>
</a>
</g>
</g>
<!-- 4&#45;&gt;22 -->
<g id="edge66" class="edge">
<title>4&#45;&gt;22</title>
<g id="a_edge66"><a xlink:title="include">
<path fill="none" stroke="#1414ce" d="M967.24,-512.96C887.93,-502.87 748.37,-484.85 629,-468 605.7,-464.71 579.74,-460.82 558.58,-457.59"/>
<polygon fill="#1414ce" stroke="#1414ce" points="559.03,-454.12 548.61,-456.07 557.97,-461.04 559.03,-454.12"/>
</a>
</g>
</g>
<!-- 4&#45;&gt;10 -->
<g id="edge61" class="edge">
<title>4&#45;&gt;10</title>
<g id="a_edge61"><a xlink:title="include">
<path fill="none" stroke="#1414ce" d="M1003.94,-503.97C910.8,-445.37 603.44,-251.99 497.93,-185.6"/>
<polygon fill="#1414ce" stroke="#1414ce" points="499.55,-182.49 489.23,-180.13 495.83,-188.42 499.55,-182.49"/>
</a>
</g>
</g>
<!-- 4&#45;&gt;8 -->
<g id="edge60" class="edge">
<title>4&#45;&gt;8</title>
<g id="a_edge60"><a xlink:title="include">
<path fill="none" stroke="#1414ce" d="M967.42,-507.83C907.37,-495.4 817.76,-476.84 757.43,-464.34"/>
<polygon fill="#1414ce" stroke="#1414ce" points="758.14,-460.92 747.64,-462.32 756.72,-467.77 758.14,-460.92"/>
</a>
</g>
</g>
<!-- 4&#45;&gt;20 -->
<g id="edge64" class="edge">
<title>4&#45;&gt;20</title>
<g id="a_edge64"><a xlink:title="include">
<path fill="none" stroke="#1414ce" d="M1053.09,-503.94C1064.39,-494.34 1077.68,-481.57 1087,-468 1145.79,-382.42 1155.84,-353.85 1176,-252 1180.04,-231.57 1179.55,-207.98 1178.18,-190.22"/>
<polygon fill="#1414ce" stroke="#1414ce" points="1181.67,-189.89 1177.27,-180.25 1174.69,-190.53 1181.67,-189.89"/>
</a>
</g>
</g>
<!-- 4&#45;&gt;28 -->
<g id="edge67" class="edge">
<title>4&#45;&gt;28</title>
<g id="a_edge67"><a xlink:title="include">
<path fill="none" stroke="#1414ce" d="M1094.78,-508.53C1121.3,-500.64 1150.79,-488 1172,-468 1210.22,-431.96 1193.85,-405.55 1220,-360 1240.96,-323.49 1270.18,-284.61 1289.57,-260.08"/>
<polygon fill="#1414ce" stroke="#1414ce" points="1292.49,-262.03 1295.99,-252.03 1287.02,-257.67 1292.49,-262.03"/>
</a>
</g>
</g>
<!-- 4&#45;&gt;16 -->
<g id="edge63" class="edge">
<title>4&#45;&gt;16</title>
<g id="a_edge63"><a xlink:title="include">
<path fill="none" stroke="#1414ce" d="M1025.86,-503.98C1013.18,-463.77 977.58,-360.76 925,-288 917.39,-277.48 907.47,-267.38 898.03,-258.88"/>
<polygon fill="#1414ce" stroke="#1414ce" points="900.13,-256.07 890.29,-252.14 895.53,-261.35 900.13,-256.07"/>
</a>
</g>
</g>
<!-- 20&#45;&gt;9 -->
<g id="edge68" class="edge">
<title>20&#45;&gt;9</title>
<g id="a_edge68"><a xlink:title="include">
<path fill="none" stroke="#1414ce" d="M1144.83,-152.52C1134.18,-149.65 1122.1,-146.54 1111,-144 1033.31,-126.25 942.4,-109.57 886.77,-99.83"/>
<polygon fill="#1414ce" stroke="#1414ce" points="887.26,-96.36 876.8,-98.09 886.05,-103.25 887.26,-96.36"/>
</a>
</g>
</g>
<!-- 30&#45;&gt;6 -->
<g id="edge69" class="edge">
<title>30&#45;&gt;6</title>
<g id="a_edge69"><a xlink:title="include">
<path fill="none" stroke="#1414ce" d="M215.08,-503.87C191.89,-478.92 148.69,-432.45 122.03,-403.77"/>
<polygon fill="#1414ce" stroke="#1414ce" points="124.35,-401.13 114.98,-396.19 119.22,-405.9 124.35,-401.13"/>
</a>
</g>
</g>
<!-- 1 -->
<g id="node28" class="node">
<title>1</title>
<g id="a_node28"><a xlink:title="/__w/AtomVM/AtomVM/src/libAtomVM/stacktrace.c">
<polygon fill="#bfbfbf" stroke="black" points="1007,-828 627,-828 627,-792 1007,-792 1007,-828"/>
<text text-anchor="middle" x="817" y="-806.3" font-family="Times,serif" font-size="14.00">/__w/AtomVM/AtomVM/src/libAtomVM/stacktrace.c</text>
</a>
</g>
</g>
<!-- 1&#45;&gt;33 -->
<g id="edge71" class="edge">
<title>1&#45;&gt;33</title>
<g id="a_edge71"><a xlink:title="include">
<path fill="none" stroke="#1414ce" d="M829.42,-791.87C847.37,-767.14 880.66,-721.24 901.49,-692.51"/>
<polygon fill="#1414ce" stroke="#1414ce" points="904.49,-694.34 907.53,-684.19 898.83,-690.23 904.49,-694.34"/>
</a>
</g>
</g>
<!-- 1&#45;&gt;25 -->
<g id="edge73" class="edge">
<title>1&#45;&gt;25</title>
<g id="a_edge73"><a xlink:title="include">
<path fill="none" stroke="#1414ce" d="M626.93,-792.89C396.33,-770.72 38,-726.67 38,-667 38,-667 38,-667 38,-377 38,-258.27 220.84,-237.65 313.91,-234.84"/>
<polygon fill="#1414ce" stroke="#1414ce" points="314.08,-238.34 323.99,-234.6 313.91,-231.34 314.08,-238.34"/>
</a>
</g>
</g>
<!-- 1&#45;&gt;4 -->
<g id="edge72" class="edge">
<title>1&#45;&gt;4</title>
<g id="a_edge72"><a xlink:title="include">
<path fill="none" stroke="#1414ce" d="M853.41,-791.93C892.91,-771.61 955.12,-734.02 991,-684 1019.93,-643.66 1028.04,-584.67 1030.25,-550.42"/>
<polygon fill="#1414ce" stroke="#1414ce" points="1033.75,-550.39 1030.77,-540.22 1026.76,-550.03 1033.75,-550.39"/>
</a>
</g>
</g>
<!-- 2 -->
<g id="node29" class="node">
<title>2</title>
<g id="a_node29"><a xlink:title="stacktrace.h">
<polygon fill="#ffffff" stroke="black" points="705,-756 601,-756 601,-720 705,-720 705,-756"/>
<text text-anchor="middle" x="653" y="-734.3" font-family="Times,serif" font-size="14.00">stacktrace.h</text>
</a>
</g>
</g>
<!-- 1&#45;&gt;2 -->
<g id="edge70" class="edge">
<title>1&#45;&gt;2</title>
<g id="a_edge70"><a xlink:title="include">
<path fill="none" stroke="#1414ce" d="M776.88,-791.88C754.36,-782.26 726.08,-770.19 702.23,-760.01"/>
<polygon fill="#1414ce" stroke="#1414ce" points="703.56,-756.77 692.99,-756.07 700.81,-763.21 703.56,-756.77"/>
</a>
</g>
</g>
<!-- 2&#45;&gt;3 -->
<g id="edge74" class="edge">
<title>2&#45;&gt;3</title>
<g id="a_edge74"><a xlink:title="include">
<path fill="none" stroke="#1414ce" d="M683.4,-719.87C728.99,-694.18 815.11,-645.65 865.52,-617.25"/>
<polygon fill="#1414ce" stroke="#1414ce" points="867.5,-620.15 874.5,-612.19 864.06,-614.05 867.5,-620.15"/>
</a>
</g>
</g>
<!-- 2&#45;&gt;29 -->
<g id="edge75" class="edge">
<title>2&#45;&gt;29</title>
<g id="a_edge75"><a xlink:title="include">
<path fill="none" stroke="#1414ce" d="M648.06,-719.7C645.83,-711.9 643.15,-702.51 640.67,-693.83"/>
<polygon fill="#1414ce" stroke="#1414ce" points="644,-692.76 637.89,-684.1 637.27,-694.68 644,-692.76"/>
</a>
</g>
</g>
<!-- 2&#45;&gt;22 -->
<g id="edge76" class="edge">
<title>2&#45;&gt;22</title>
<g id="a_edge76"><a xlink:title="include">
<path fill="none" stroke="#1414ce" d="M600.68,-735.99C491.62,-730.62 242.41,-700.52 150,-540 142.02,-526.13 139.53,-516.1 150,-504 191.39,-456.19 385.8,-450.58 473.22,-450.53"/>
<polygon fill="#1414ce" stroke="#1414ce" points="473.33,-454.03 483.34,-450.55 473.35,-447.03 473.33,-454.03"/>
</a>
</g>
</g>
<!-- 28&#45;&gt;9 -->
<g id="edge77" class="edge">
<title>28&#45;&gt;9</title>
<g id="a_edge77"><a xlink:title="include">
<path fill="none" stroke="#1414ce" d="M1297.18,-215.96C1280.51,-195.18 1249.31,-160.77 1214,-144 1157.13,-117 976.79,-100.93 886.93,-94.41"/>
<polygon fill="#1414ce" stroke="#1414ce" points="886.92,-90.9 876.69,-93.68 886.42,-97.88 886.92,-90.9"/>
</a>
</g>
</g>
<!-- 28&#45;&gt;15 -->
<g id="edge79" class="edge">
<title>28&#45;&gt;15</title>
<g id="a_edge79"><a xlink:title="include">
<path fill="none" stroke="#1414ce" d="M1260.96,-221.36C1202.13,-207.4 1104.85,-184.32 1051.98,-171.77"/>
<polygon fill="#1414ce" stroke="#1414ce" points="1052.56,-168.32 1042.02,-169.41 1050.94,-175.13 1052.56,-168.32"/>
</a>
</g>
</g>
<!-- 28&#45;&gt;5 -->
<g id="edge78" class="edge">
<title>28&#45;&gt;5</title>
<g id="a_edge78"><a xlink:title="include">
<path fill="none" stroke="#1414ce" d="M1303.71,-215.92C1295.24,-195.43 1278.14,-161.64 1252,-144 1133.75,-64.19 684.62,-30.58 538.35,-21.6"/>
<polygon fill="#1414ce" stroke="#1414ce" points="538.54,-18.11 528.35,-21 538.12,-25.1 538.54,-18.11"/>
</a>
</g>
</g>
<!-- 16&#45;&gt;9 -->
<g id="edge80" class="edge">
<title>16&#45;&gt;9</title>
<g id="a_edge80"><a xlink:title="include">
<path fill="none" stroke="#1414ce" d="M864.6,-215.88C860.97,-197.92 854.94,-168.9 849,-144 846.98,-135.54 844.62,-126.36 842.42,-118.06"/>
<polygon fill="#1414ce" stroke="#1414ce" points="845.72,-116.88 839.75,-108.13 838.96,-118.7 845.72,-116.88"/>
</a>
</g>
</g>
<!-- 16&#45;&gt;17 -->
<g id="edge83" class="edge">
<title>16&#45;&gt;17</title>
<g id="a_edge83"><a xlink:title="include">
<path fill="none" stroke="#1414ce" d="M824.86,-222.29C771.09,-208.94 679.84,-186.29 627.05,-173.19"/>
<polygon fill="#1414ce" stroke="#1414ce" points="627.89,-169.79 617.34,-170.78 626.21,-176.59 627.89,-169.79"/>
</a>
</g>
</g>
<!-- 16&#45;&gt;15 -->
<g id="edge81" class="edge">
<title>16&#45;&gt;15</title>
<g id="a_edge81"><a xlink:title="include">
<path fill="none" stroke="#1414ce" d="M903.96,-215.88C926.57,-205.11 955.66,-191.26 978.39,-180.43"/>
<polygon fill="#1414ce" stroke="#1414ce" points="980.18,-183.46 987.71,-176 977.17,-177.14 980.18,-183.46"/>
</a>
</g>
</g>
<!-- 16&#45;&gt;11 -->
<g id="edge82" class="edge">
<title>16&#45;&gt;11</title>
<g id="a_edge82"><a xlink:title="include">
<path fill="none" stroke="#1414ce" d="M827.54,-215.9C779.99,-196.33 698.4,-164.36 626,-144 561.25,-125.79 485.97,-111.44 431.88,-102.3"/>
<polygon fill="#1414ce" stroke="#1414ce" points="432.14,-98.79 421.69,-100.59 430.98,-105.7 432.14,-98.79"/>
</a>
</g>
</g>
</g>
</svg>
