<?xml version="1.0" encoding="UTF-8" standalone="no"?>
<!DOCTYPE svg PUBLIC "-//W3C//DTD SVG 1.1//EN"
 "http://www.w3.org/Graphics/SVG/1.1/DTD/svg11.dtd">
<!-- Generated by graphviz version 2.43.0 (0)
 -->
<!-- Title: %3 Pages: 1 -->
<svg width="2815pt" height="188pt"
 viewBox="0.00 0.00 2815.00 188.00" xmlns="http://www.w3.org/2000/svg" xmlns:xlink="http://www.w3.org/1999/xlink">
<g id="graph0" class="graph" transform="scale(1 1) rotate(0) translate(4 184)">
<title>%3</title>
<polygon fill="transparent" stroke="transparent" points="-4,4 -4,-184 2811,-184 2811,4 -4,4"/>
<!-- 3 -->
<g id="node1" class="node">
<title>3</title>
<g id="a_node1"><a xlink:title="/__w/AtomVM/AtomVM/src/libAtomVM/nifs.c">
<polygon fill="#ffffff" stroke="black" points="332,-108 0,-108 0,-72 332,-72 332,-108"/>
<text text-anchor="middle" x="166" y="-86.3" font-family="Times,serif" font-size="14.00">/__w/AtomVM/AtomVM/src/libAtomVM/nifs.c</text>
</a>
</g>
</g>
<!-- 1 -->
<g id="node2" class="node">
<title>1</title>
<g id="a_node2"><a xlink:title="/__w/AtomVM/AtomVM/src/libAtomVM/nifs.h">
<polygon fill="#bfbfbf" stroke="black" points="1549.5,-180 1216.5,-180 1216.5,-144 1549.5,-144 1549.5,-180"/>
<text text-anchor="middle" x="1383" y="-158.3" font-family="Times,serif" font-size="14.00">/__w/AtomVM/AtomVM/src/libAtomVM/nifs.h</text>
</a>
</g>
</g>
<!-- 1&#45;&gt;3 -->
<g id="edge2" class="edge">
<title>1&#45;&gt;3</title>
<g id="a_edge2"><a xlink:title="include">
<path fill="none" stroke="#1414ce" d="M1206.25,-154.29C999.74,-145.91 647.83,-129.96 346,-108 341.46,-107.67 336.86,-107.32 332.21,-106.96"/>
<polygon fill="#1414ce" stroke="#1414ce" points="1206.15,-157.79 1216.28,-154.69 1206.43,-150.79 1206.15,-157.79"/>
</a>
</g>
</g>
<!-- 4 -->
<g id="node3" class="node">
<title>4</title>
<g id="a_node3"><a xlink:title="/__w/AtomVM/AtomVM/src/libAtomVM/otp_crypto.c">
<polygon fill="#ffffff" stroke="black" points="660.5,-36 279.5,-36 279.5,0 660.5,0 660.5,-36"/>
<text text-anchor="middle" x="470" y="-14.3" font-family="Times,serif" font-size="14.00">/__w/AtomVM/AtomVM/src/libAtomVM/otp_crypto.c</text>
</a>
</g>
</g>
<!-- 1&#45;&gt;4 -->
<g id="edge3" class="edge">
<title>1&#45;&gt;4</title>
<g id="a_edge3"><a xlink:title="include">
<path fill="none" stroke="#1414ce" d="M1206.12,-157.91C925.27,-152.14 406,-137.51 378,-108 366.99,-96.39 369.99,-85.85 378,-72 387.32,-55.88 403.6,-44.23 419.91,-36.03"/>
<polygon fill="#1414ce" stroke="#1414ce" points="1206.35,-161.42 1216.42,-158.12 1206.49,-154.42 1206.35,-161.42"/>
</a>
</g>
</g>
<!-- 5 -->
<g id="node4" class="node">
<title>5</title>
<g id="a_node4"><a xlink:title="/__w/AtomVM/AtomVM/src/libAtomVM/otp_crypto.h">
<polygon fill="#ffffff" stroke="black" points="770.5,-108 387.5,-108 387.5,-72 770.5,-72 770.5,-108"/>
<text text-anchor="middle" x="579" y="-86.3" font-family="Times,serif" font-size="14.00">/__w/AtomVM/AtomVM/src/libAtomVM/otp_crypto.h</text>
</a>
</g>
</g>
<!-- 1&#45;&gt;5 -->
<g id="edge4" class="edge">
<title>1&#45;&gt;5</title>
<g id="a_edge4"><a xlink:title="include">
<path fill="none" stroke="#1414ce" d="M1206.43,-145.63C1077.58,-134.41 903.07,-119.21 770.8,-107.7"/>
<polygon fill="#1414ce" stroke="#1414ce" points="1206.14,-149.12 1216.41,-146.5 1206.75,-142.14 1206.14,-149.12"/>
</a>
</g>
</g>
<!-- 2 -->
<g id="node5" class="node">
<title>2</title>
<g id="a_node5"><a xlink:title="/__w/AtomVM/AtomVM/src/libAtomVM/module.c">
<polygon fill="#ffffff" stroke="black" points="1147,-108 789,-108 789,-72 1147,-72 1147,-108"/>
<text text-anchor="middle" x="968" y="-86.3" font-family="Times,serif" font-size="14.00">/__w/AtomVM/AtomVM/src/libAtomVM/module.c</text>
</a>
</g>
</g>
<!-- 1&#45;&gt;2 -->
<g id="edge1" class="edge">
<title>1&#45;&gt;2</title>
<g id="a_edge1"><a xlink:title="include">
<path fill="none" stroke="#1414ce" d="M1272.02,-142.28C1208.91,-131.64 1130.48,-118.41 1069.08,-108.05"/>
<polygon fill="#1414ce" stroke="#1414ce" points="1271.57,-145.75 1282.01,-143.97 1272.73,-138.85 1271.57,-145.75"/>
</a>
</g>
</g>
<!-- 6 -->
<g id="node6" class="node">
<title>6</title>
<g id="a_node6"><a xlink:title="/__w/AtomVM/AtomVM/src/libAtomVM/otp_net.c">
<polygon fill="#ffffff" stroke="black" points="1368.5,-36 1009.5,-36 1009.5,0 1368.5,0 1368.5,-36"/>
<text text-anchor="middle" x="1189" y="-14.3" font-family="Times,serif" font-size="14.00">/__w/AtomVM/AtomVM/src/libAtomVM/otp_net.c</text>
</a>
</g>
</g>
<!-- 1&#45;&gt;6 -->
<g id="edge5" class="edge">
<title>1&#45;&gt;6</title>
<g id="a_edge5"><a xlink:title="include">
<path fill="none" stroke="#1414ce" d="M1273.48,-141.63C1238.06,-133.05 1205.05,-121.75 1194,-108 1177.72,-87.73 1180.65,-55.74 1184.59,-36.13"/>
<polygon fill="#1414ce" stroke="#1414ce" points="1272.98,-145.1 1283.51,-143.97 1274.57,-138.29 1272.98,-145.1"/>
</a>
</g>
</g>
<!-- 7 -->
<g id="node7" class="node">
<title>7</title>
<g id="a_node7"><a xlink:title="/__w/AtomVM/AtomVM/src/libAtomVM/otp_net.h">
<polygon fill="#ffffff" stroke="black" points="1563,-108 1203,-108 1203,-72 1563,-72 1563,-108"/>
<text text-anchor="middle" x="1383" y="-86.3" font-family="Times,serif" font-size="14.00">/__w/AtomVM/AtomVM/src/libAtomVM/otp_net.h</text>
</a>
</g>
</g>
<!-- 1&#45;&gt;7 -->
<g id="edge6" class="edge">
<title>1&#45;&gt;7</title>
<g id="a_edge6"><a xlink:title="include">
<path fill="none" stroke="#1414ce" d="M1383,-133.67C1383,-125.05 1383,-115.79 1383,-108.1"/>
<polygon fill="#1414ce" stroke="#1414ce" points="1379.5,-133.7 1383,-143.7 1386.5,-133.7 1379.5,-133.7"/>
</a>
</g>
</g>
<!-- 8 -->
<g id="node8" class="node">
<title>8</title>
<g id="a_node8"><a xlink:title="/__w/AtomVM/AtomVM/src/libAtomVM/otp_socket.c">
<polygon fill="#ffffff" stroke="black" points="1807.5,-36 1426.5,-36 1426.5,0 1807.5,0 1807.5,-36"/>
<text text-anchor="middle" x="1617" y="-14.3" font-family="Times,serif" font-size="14.00">/__w/AtomVM/AtomVM/src/libAtomVM/otp_socket.c</text>
</a>
</g>
</g>
<!-- 1&#45;&gt;8 -->
<g id="edge7" class="edge">
<title>1&#45;&gt;8</title>
<g id="a_edge7"><a xlink:title="include">
<path fill="none" stroke="#1414ce" d="M1511.02,-140.72C1532.96,-133.06 1554.34,-122.52 1572,-108 1594.74,-89.31 1607.12,-56.19 1612.87,-36.06"/>
<polygon fill="#1414ce" stroke="#1414ce" points="1509.66,-137.49 1501.26,-143.94 1511.85,-144.14 1509.66,-137.49"/>
</a>
</g>
</g>
<!-- 9 -->
<g id="node9" class="node">
<title>9</title>
<g id="a_node9"><a xlink:title="/__w/AtomVM/AtomVM/src/libAtomVM/otp_socket.h">
<polygon fill="#ffffff" stroke="black" points="2001.5,-108 1618.5,-108 1618.5,-72 2001.5,-72 2001.5,-108"/>
<text text-anchor="middle" x="1810" y="-86.3" font-family="Times,serif" font-size="14.00">/__w/AtomVM/AtomVM/src/libAtomVM/otp_socket.h</text>
</a>
</g>
</g>
<!-- 1&#45;&gt;9 -->
<g id="edge8" class="edge">
<title>1&#45;&gt;9</title>
<g id="a_edge8"><a xlink:title="include">
<path fill="none" stroke="#1414ce" d="M1496.79,-142.35C1561.79,-131.69 1642.7,-118.43 1705.99,-108.05"/>
<polygon fill="#1414ce" stroke="#1414ce" points="1496.21,-138.89 1486.91,-143.97 1497.34,-145.8 1496.21,-138.89"/>
</a>
</g>
</g>
<!-- 10 -->
<g id="node10" class="node">
<title>10</title>
<g id="a_node10"><a xlink:title="/__w/AtomVM/AtomVM/src/libAtomVM/otp_ssl.c">
<polygon fill="#ffffff" stroke="black" points="2206.5,-36 1851.5,-36 1851.5,0 2206.5,0 2206.5,-36"/>
<text text-anchor="middle" x="2029" y="-14.3" font-family="Times,serif" font-size="14.00">/__w/AtomVM/AtomVM/src/libAtomVM/otp_ssl.c</text>
</a>
</g>
</g>
<!-- 1&#45;&gt;10 -->
<g id="edge9" class="edge">
<title>1&#45;&gt;10</title>
<g id="a_edge9"><a xlink:title="include">
<path fill="none" stroke="#1414ce" d="M1559.59,-156.69C1733.13,-150.78 1976.71,-137.34 2010,-108 2030.27,-90.14 2031.94,-56.43 2030.81,-36.01"/>
<polygon fill="#1414ce" stroke="#1414ce" points="1559.44,-153.2 1549.57,-157.03 1559.68,-160.19 1559.44,-153.2"/>
</a>
</g>
</g>
<!-- 11 -->
<g id="node11" class="node">
<title>11</title>
<g id="a_node11"><a xlink:title="/__w/AtomVM/AtomVM/src/libAtomVM/otp_ssl.h">
<polygon fill="#ffffff" stroke="black" points="2413,-108 2057,-108 2057,-72 2413,-72 2413,-108"/>
<text text-anchor="middle" x="2235" y="-86.3" font-family="Times,serif" font-size="14.00">/__w/AtomVM/AtomVM/src/libAtomVM/otp_ssl.h</text>
</a>
</g>
</g>
<!-- 1&#45;&gt;11 -->
<g id="edge10" class="edge">
<title>1&#45;&gt;11</title>
<g id="a_edge10"><a xlink:title="include">
<path fill="none" stroke="#1414ce" d="M1559.79,-147.2C1692.71,-136.72 1879.31,-121.82 2043,-108 2047.58,-107.61 2052.23,-107.22 2056.92,-106.82"/>
<polygon fill="#1414ce" stroke="#1414ce" points="1559.2,-143.73 1549.51,-148.01 1559.75,-150.71 1559.2,-143.73"/>
</a>
</g>
</g>
<!-- 12 -->
<g id="node12" class="node">
<title>12</title>
<g id="a_node12"><a xlink:title="/__w/AtomVM/AtomVM/src/libAtomVM/posix_nifs.c">
<polygon fill="#ffffff" stroke="black" points="2807,-108 2431,-108 2431,-72 2807,-72 2807,-108"/>
<text text-anchor="middle" x="2619" y="-86.3" font-family="Times,serif" font-size="14.00">/__w/AtomVM/AtomVM/src/libAtomVM/posix_nifs.c</text>
</a>
</g>
</g>
<!-- 1&#45;&gt;12 -->
<g id="edge11" class="edge">
<title>1&#45;&gt;12</title>
<g id="a_edge11"><a xlink:title="include">
<path fill="none" stroke="#1414ce" d="M1559.6,-153.88C1766.42,-145.11 2119.28,-128.78 2422,-108 2424.91,-107.8 2427.85,-107.59 2430.8,-107.38"/>
<polygon fill="#1414ce" stroke="#1414ce" points="1559.4,-150.39 1549.56,-154.31 1559.7,-157.38 1559.4,-150.39"/>
</a>
</g>
</g>
<!-- 5&#45;&gt;4 -->
<g id="edge12" class="edge">
<title>5&#45;&gt;4</title>
<g id="a_edge12"><a xlink:title="include">
<path fill="none" stroke="#1414ce" d="M543.67,-66.31C528.43,-56.53 510.9,-45.27 496.77,-36.19"/>
<polygon fill="#1414ce" stroke="#1414ce" points="542.03,-69.42 552.34,-71.88 545.81,-63.53 542.03,-69.42"/>
</a>
</g>
</g>
<!-- 7&#45;&gt;6 -->
<g id="edge13" class="edge">
<title>7&#45;&gt;6</title>
<g id="a_edge13"><a xlink:title="include">
<path fill="none" stroke="#1414ce" d="M1326.1,-68.47C1297.55,-58.17 1263.39,-45.84 1236.3,-36.07"/>
<polygon fill="#1414ce" stroke="#1414ce" points="1324.95,-71.77 1335.54,-71.88 1327.32,-65.19 1324.95,-71.77"/>
</a>
</g>
</g>
<!-- 9&#45;&gt;8 -->
<g id="edge14" class="edge">
<title>9&#45;&gt;8</title>
<g id="a_edge14"><a xlink:title="include">
<path fill="none" stroke="#1414ce" d="M1753.02,-68.33C1724.7,-58.06 1690.89,-45.8 1664.06,-36.07"/>
<polygon fill="#1414ce" stroke="#1414ce" points="1752.19,-71.76 1762.79,-71.88 1754.58,-65.18 1752.19,-71.76"/>
</a>
</g>
</g>
<!-- 9&#45;&gt;10 -->
<g id="edge15" class="edge">
<title>9&#45;&gt;10</title>
<g id="a_edge15"><a xlink:title="include">
<path fill="none" stroke="#1414ce" d="M1873.12,-68.83C1905.52,-58.47 1944.56,-45.99 1975.47,-36.11"/>
<polygon fill="#1414ce" stroke="#1414ce" points="1871.75,-65.59 1863.29,-71.97 1873.88,-72.25 1871.75,-65.59"/>
</a>
</g>
</g>
<!-- 11&#45;&gt;10 -->
<g id="edge16" class="edge">
<title>11&#45;&gt;10</title>
<g id="a_edge16"><a xlink:title="include">
<path fill="none" stroke="#1414ce" d="M2175.23,-68.69C2144.84,-58.36 2108.3,-45.95 2079.35,-36.11"/>
<polygon fill="#1414ce" stroke="#1414ce" points="2174.28,-72.06 2184.87,-71.97 2176.53,-65.43 2174.28,-72.06"/>
</a>
</g>
</g>
</g>
</svg>
