<?xml version="1.0" encoding="UTF-8" standalone="no"?>
<!DOCTYPE svg PUBLIC "-//W3C//DTD SVG 1.1//EN"
 "http://www.w3.org/Graphics/SVG/1.1/DTD/svg11.dtd">
<!-- Generated by graphviz version 2.43.0 (0)
 -->
<!-- Title: %3 Pages: 1 -->
<svg width="1585pt" height="836pt"
 viewBox="0.00 0.00 1584.50 836.00" xmlns="http://www.w3.org/2000/svg" xmlns:xlink="http://www.w3.org/1999/xlink">
<g id="graph0" class="graph" transform="scale(1 1) rotate(0) translate(4 832)">
<title>%3</title>
<polygon fill="transparent" stroke="transparent" points="-4,4 -4,-832 1580.5,-832 1580.5,4 -4,4"/>
<!-- 2 -->
<g id="node1" class="node">
<title>2</title>
<g id="a_node1"><a xlink:title="stdbool.h">
<polygon fill="#ffffff" stroke="black" points="1108,-108 1025,-108 1025,-72 1108,-72 1108,-108"/>
<text text-anchor="middle" x="1066.5" y="-86.3" font-family="Times,serif" font-size="14.00">stdbool.h</text>
</a>
</g>
</g>
<!-- 29 -->
<g id="node2" class="node">
<title>29</title>
<g id="a_node2"><a xlink:title="erl_nif_priv.h">
<polygon fill="#ffffff" stroke="black" points="262.5,-684 154.5,-684 154.5,-648 262.5,-648 262.5,-684"/>
<text text-anchor="middle" x="208.5" y="-662.3" font-family="Times,serif" font-size="14.00">erl_nif_priv.h</text>
</a>
</g>
</g>
<!-- 5 -->
<g id="node12" class="node">
<title>5</title>
<g id="a_node12"><a xlink:title="context.h">
<polygon fill="#ffffff" stroke="black" points="728,-612 645,-612 645,-576 728,-576 728,-612"/>
<text text-anchor="middle" x="686.5" y="-590.3" font-family="Times,serif" font-size="14.00">context.h</text>
</a>
</g>
</g>
<!-- 29&#45;&gt;5 -->
<g id="edge1" class="edge">
<title>29&#45;&gt;5</title>
<g id="a_edge1"><a xlink:title="include">
<path fill="none" stroke="#1414ce" d="M262.87,-657.04C355.7,-643.44 543.55,-615.93 634.64,-602.59"/>
<polygon fill="#1414ce" stroke="#1414ce" points="635.34,-606.03 644.73,-601.12 634.33,-599.1 635.34,-606.03"/>
</a>
</g>
</g>
<!-- 24 -->
<g id="node13" class="node">
<title>24</title>
<g id="a_node13"><a xlink:title="memory.h">
<polygon fill="#ffffff" stroke="black" points="278.5,-252 192.5,-252 192.5,-216 278.5,-216 278.5,-252"/>
<text text-anchor="middle" x="235.5" y="-230.3" font-family="Times,serif" font-size="14.00">memory.h</text>
</a>
</g>
</g>
<!-- 29&#45;&gt;24 -->
<g id="edge2" class="edge">
<title>29&#45;&gt;24</title>
<g id="a_edge2"><a xlink:title="include">
<path fill="none" stroke="#1414ce" d="M179.45,-647.91C143.94,-624.58 88.5,-579.16 88.5,-523 88.5,-523 88.5,-523 88.5,-449 88.5,-408.03 92.13,-395.55 112.5,-360 136.06,-318.89 176.43,-281.56 204.47,-258.62"/>
<polygon fill="#1414ce" stroke="#1414ce" points="206.79,-261.25 212.39,-252.25 202.4,-255.79 206.79,-261.25"/>
</a>
</g>
</g>
<!-- 26 -->
<g id="node18" class="node">
<title>26</title>
<g id="a_node18"><a xlink:title="resources.h">
<polygon fill="#ffffff" stroke="black" points="354.5,-324 254.5,-324 254.5,-288 354.5,-288 354.5,-324"/>
<text text-anchor="middle" x="304.5" y="-302.3" font-family="Times,serif" font-size="14.00">resources.h</text>
</a>
</g>
</g>
<!-- 29&#45;&gt;26 -->
<g id="edge3" class="edge">
<title>29&#45;&gt;26</title>
<g id="a_edge3"><a xlink:title="include">
<path fill="none" stroke="#1414ce" d="M207.31,-647.96C205.57,-621.31 202.5,-568.15 202.5,-523 202.5,-523 202.5,-523 202.5,-449 202.5,-399.82 243.36,-356.01 273.35,-330.48"/>
<polygon fill="#1414ce" stroke="#1414ce" points="275.62,-333.15 281.1,-324.08 271.16,-327.75 275.62,-333.15"/>
</a>
</g>
</g>
<!-- 25 -->
<g id="node3" class="node">
<title>25</title>
<g id="a_node3"><a xlink:title="refc_binary.h">
<polygon fill="#ffffff" stroke="black" points="414.5,-396 306.5,-396 306.5,-360 414.5,-360 414.5,-396"/>
<text text-anchor="middle" x="360.5" y="-374.3" font-family="Times,serif" font-size="14.00">refc_binary.h</text>
</a>
</g>
</g>
<!-- 25&#45;&gt;2 -->
<g id="edge4" class="edge">
<title>25&#45;&gt;2</title>
<g id="a_edge4"><a xlink:title="include">
<path fill="none" stroke="#1414ce" d="M414.56,-370.16C507.28,-356.94 700.95,-322.71 849.5,-252 889.44,-232.99 988.3,-154.61 1037.59,-114.66"/>
<polygon fill="#1414ce" stroke="#1414ce" points="1040.08,-117.15 1045.63,-108.13 1035.66,-111.72 1040.08,-117.15"/>
</a>
</g>
</g>
<!-- 15 -->
<g id="node9" class="node">
<title>15</title>
<g id="a_node9"><a xlink:title="list.h">
<polygon fill="#ffffff" stroke="black" points="556.5,-180 502.5,-180 502.5,-144 556.5,-144 556.5,-180"/>
<text text-anchor="middle" x="529.5" y="-158.3" font-family="Times,serif" font-size="14.00">list.h</text>
</a>
</g>
</g>
<!-- 25&#45;&gt;15 -->
<g id="edge6" class="edge">
<title>25&#45;&gt;15</title>
<g id="a_edge6"><a xlink:title="include">
<path fill="none" stroke="#1414ce" d="M372.9,-359.75C394.49,-329.91 440.69,-266.98 482.5,-216 490.14,-206.68 498.82,-196.73 506.62,-188"/>
<polygon fill="#1414ce" stroke="#1414ce" points="509.4,-190.15 513.49,-180.37 504.2,-185.46 509.4,-190.15"/>
</a>
</g>
</g>
<!-- 3 -->
<g id="node11" class="node">
<title>3</title>
<g id="a_node11"><a xlink:title="stdlib.h">
<polygon fill="#ffffff" stroke="black" points="418,-108 347,-108 347,-72 418,-72 418,-108"/>
<text text-anchor="middle" x="382.5" y="-86.3" font-family="Times,serif" font-size="14.00">stdlib.h</text>
</a>
</g>
</g>
<!-- 25&#45;&gt;3 -->
<g id="edge5" class="edge">
<title>25&#45;&gt;3</title>
<g id="a_edge5"><a xlink:title="include">
<path fill="none" stroke="#1414ce" d="M361.81,-359.97C365.48,-312.29 375.87,-177.18 380.37,-118.63"/>
<polygon fill="#1414ce" stroke="#1414ce" points="383.89,-118.55 381.17,-108.31 376.91,-118.01 383.89,-118.55"/>
</a>
</g>
</g>
<!-- 25&#45;&gt;26 -->
<g id="edge7" class="edge">
<title>25&#45;&gt;26</title>
<g id="a_edge7"><a xlink:title="include">
<path fill="none" stroke="#1414ce" d="M346.66,-359.7C340.01,-351.39 331.92,-341.28 324.61,-332.14"/>
<polygon fill="#1414ce" stroke="#1414ce" points="327.16,-329.73 318.18,-324.1 321.7,-334.1 327.16,-329.73"/>
</a>
</g>
</g>
<!-- 28 -->
<g id="node4" class="node">
<title>28</title>
<g id="a_node4"><a xlink:title="defaultatoms.h">
<polygon fill="#ffffff" stroke="black" points="1022.5,-756 898.5,-756 898.5,-720 1022.5,-720 1022.5,-756"/>
<text text-anchor="middle" x="960.5" y="-734.3" font-family="Times,serif" font-size="14.00">defaultatoms.h</text>
</a>
</g>
</g>
<!-- 6 -->
<g id="node28" class="node">
<title>6</title>
<g id="a_node28"><a xlink:title="globalcontext.h">
<polygon fill="#ffffff" stroke="black" points="1126,-540 999,-540 999,-504 1126,-504 1126,-540"/>
<text text-anchor="middle" x="1062.5" y="-518.3" font-family="Times,serif" font-size="14.00">globalcontext.h</text>
</a>
</g>
</g>
<!-- 28&#45;&gt;6 -->
<g id="edge8" class="edge">
<title>28&#45;&gt;6</title>
<g id="a_edge8"><a xlink:title="include">
<path fill="none" stroke="#1414ce" d="M958.79,-719.98C957.59,-701.6 957.53,-671.76 966.5,-648 981.5,-608.27 1013.6,-570.77 1036.55,-547.4"/>
<polygon fill="#1414ce" stroke="#1414ce" points="1039.04,-549.86 1043.65,-540.32 1034.09,-544.9 1039.04,-549.86"/>
</a>
</g>
</g>
<!-- 8 -->
<g id="node5" class="node">
<title>8</title>
<g id="a_node5"><a xlink:title="atom.h">
<polygon fill="#ffffff" stroke="black" points="1276.5,-396 1210.5,-396 1210.5,-360 1276.5,-360 1276.5,-396"/>
<text text-anchor="middle" x="1243.5" y="-374.3" font-family="Times,serif" font-size="14.00">atom.h</text>
</a>
</g>
</g>
<!-- 7 -->
<g id="node10" class="node">
<title>7</title>
<g id="a_node10"><a xlink:title="stdint.h">
<polygon fill="#ffffff" stroke="black" points="1367.5,-36 1295.5,-36 1295.5,0 1367.5,0 1367.5,-36"/>
<text text-anchor="middle" x="1331.5" y="-14.3" font-family="Times,serif" font-size="14.00">stdint.h</text>
</a>
</g>
</g>
<!-- 8&#45;&gt;7 -->
<g id="edge9" class="edge">
<title>8&#45;&gt;7</title>
<g id="a_edge9"><a xlink:title="include">
<path fill="none" stroke="#1414ce" d="M1276.67,-362.11C1318.91,-340.6 1386.5,-296.58 1386.5,-235 1386.5,-235 1386.5,-235 1386.5,-161 1386.5,-118.01 1364.31,-72.34 1348.12,-44.74"/>
<polygon fill="#1414ce" stroke="#1414ce" points="1351.06,-42.85 1342.9,-36.1 1345.07,-46.47 1351.06,-42.85"/>
</a>
</g>
</g>
<!-- 8&#45;&gt;3 -->
<g id="edge10" class="edge">
<title>8&#45;&gt;3</title>
<g id="a_edge10"><a xlink:title="include">
<path fill="none" stroke="#1414ce" d="M1210.35,-360.15C1125.16,-317.54 890.7,-204.55 683.5,-144 595.09,-118.17 488.19,-103 428.52,-95.91"/>
<polygon fill="#1414ce" stroke="#1414ce" points="428.63,-92.4 418.3,-94.72 427.83,-99.35 428.63,-92.4"/>
</a>
</g>
</g>
<!-- 12 -->
<g id="node6" class="node">
<title>12</title>
<g id="a_node6"><a xlink:title="assert.h">
<polygon fill="#ffffff" stroke="black" points="181.5,-36 107.5,-36 107.5,0 181.5,0 181.5,-36"/>
<text text-anchor="middle" x="144.5" y="-14.3" font-family="Times,serif" font-size="14.00">assert.h</text>
</a>
</g>
</g>
<!-- 17 -->
<g id="node7" class="node">
<title>17</title>
<g id="a_node7"><a xlink:title="utils.h">
<polygon fill="#ffffff" stroke="black" points="674.5,-180 612.5,-180 612.5,-144 674.5,-144 674.5,-180"/>
<text text-anchor="middle" x="643.5" y="-158.3" font-family="Times,serif" font-size="14.00">utils.h</text>
</a>
</g>
</g>
<!-- 17&#45;&gt;3 -->
<g id="edge13" class="edge">
<title>17&#45;&gt;3</title>
<g id="a_edge13"><a xlink:title="include">
<path fill="none" stroke="#1414ce" d="M612.2,-148.62C607.63,-146.98 602.97,-145.39 598.5,-144 540.34,-125.95 471.86,-110.02 427.85,-100.46"/>
<polygon fill="#1414ce" stroke="#1414ce" points="428.54,-97.03 418.03,-98.34 427.06,-103.87 428.54,-97.03"/>
</a>
</g>
</g>
<!-- 18 -->
<g id="node20" class="node">
<title>18</title>
<g id="a_node20"><a xlink:title="stddef.h">
<polygon fill="#ffffff" stroke="black" points="680.5,-108 606.5,-108 606.5,-72 680.5,-72 680.5,-108"/>
<text text-anchor="middle" x="643.5" y="-86.3" font-family="Times,serif" font-size="14.00">stddef.h</text>
</a>
</g>
</g>
<!-- 17&#45;&gt;18 -->
<g id="edge11" class="edge">
<title>17&#45;&gt;18</title>
<g id="a_edge11"><a xlink:title="include">
<path fill="none" stroke="#1414ce" d="M643.5,-143.7C643.5,-135.98 643.5,-126.71 643.5,-118.11"/>
<polygon fill="#1414ce" stroke="#1414ce" points="647,-118.1 643.5,-108.1 640,-118.1 647,-118.1"/>
</a>
</g>
</g>
<!-- 19 -->
<g id="node34" class="node">
<title>19</title>
<g id="a_node34"><a xlink:title="stdio.h">
<polygon fill="#ffffff" stroke="black" points="901,-108 836,-108 836,-72 901,-72 901,-108"/>
<text text-anchor="middle" x="868.5" y="-86.3" font-family="Times,serif" font-size="14.00">stdio.h</text>
</a>
</g>
</g>
<!-- 17&#45;&gt;19 -->
<g id="edge12" class="edge">
<title>17&#45;&gt;19</title>
<g id="a_edge12"><a xlink:title="include">
<path fill="none" stroke="#1414ce" d="M674.79,-151.27C714.19,-139.01 782.05,-117.89 826.09,-104.19"/>
<polygon fill="#1414ce" stroke="#1414ce" points="827.15,-107.53 835.66,-101.22 825.07,-100.85 827.15,-107.53"/>
</a>
</g>
</g>
<!-- 21 -->
<g id="node8" class="node">
<title>21</title>
<g id="a_node8"><a xlink:title="synclist.h">
<polygon fill="#ffffff" stroke="black" points="1096,-252 1011,-252 1011,-216 1096,-216 1096,-252"/>
<text text-anchor="middle" x="1053.5" y="-230.3" font-family="Times,serif" font-size="14.00">synclist.h</text>
</a>
</g>
</g>
<!-- 21&#45;&gt;15 -->
<g id="edge15" class="edge">
<title>21&#45;&gt;15</title>
<g id="a_edge15"><a xlink:title="include">
<path fill="none" stroke="#1414ce" d="M1010.78,-229.53C930.57,-222.66 752.13,-205.75 603.5,-180 591.45,-177.91 578.4,-175.1 566.68,-172.37"/>
<polygon fill="#1414ce" stroke="#1414ce" points="567.31,-168.92 556.77,-170.01 565.68,-175.73 567.31,-168.92"/>
</a>
</g>
</g>
<!-- 20 -->
<g id="node29" class="node">
<title>20</title>
<g id="a_node29"><a xlink:title="smp.h">
<polygon fill="#ffffff" stroke="black" points="1142.5,-180 1082.5,-180 1082.5,-144 1142.5,-144 1142.5,-180"/>
<text text-anchor="middle" x="1112.5" y="-158.3" font-family="Times,serif" font-size="14.00">smp.h</text>
</a>
</g>
</g>
<!-- 21&#45;&gt;20 -->
<g id="edge16" class="edge">
<title>21&#45;&gt;20</title>
<g id="a_edge16"><a xlink:title="include">
<path fill="none" stroke="#1414ce" d="M1068.08,-215.7C1075.16,-207.3 1083.78,-197.07 1091.55,-187.86"/>
<polygon fill="#1414ce" stroke="#1414ce" points="1094.31,-190.01 1098.08,-180.1 1088.96,-185.49 1094.31,-190.01"/>
</a>
</g>
</g>
<!-- 21&#45;&gt;19 -->
<g id="edge14" class="edge">
<title>21&#45;&gt;19</title>
<g id="a_edge14"><a xlink:title="include">
<path fill="none" stroke="#1414ce" d="M1031.18,-215.87C998.13,-190.5 936.06,-142.85 898.88,-114.32"/>
<polygon fill="#1414ce" stroke="#1414ce" points="900.96,-111.5 890.89,-108.19 896.7,-117.05 900.96,-111.5"/>
</a>
</g>
</g>
<!-- 5&#45;&gt;15 -->
<g id="edge18" class="edge">
<title>5&#45;&gt;15</title>
<g id="a_edge18"><a xlink:title="include">
<path fill="none" stroke="#1414ce" d="M660.54,-575.87C617.35,-545.63 532.27,-478.12 499.5,-396 471.31,-325.36 500.11,-234 517.83,-189.59"/>
<polygon fill="#1414ce" stroke="#1414ce" points="521.16,-190.68 521.73,-180.1 514.69,-188.01 521.16,-190.68"/>
</a>
</g>
</g>
<!-- 22 -->
<g id="node19" class="node">
<title>22</title>
<g id="a_node19"><a xlink:title="term.h">
<polygon fill="#ffffff" stroke="black" points="787,-468 722,-468 722,-432 787,-432 787,-468"/>
<text text-anchor="middle" x="754.5" y="-446.3" font-family="Times,serif" font-size="14.00">term.h</text>
</a>
</g>
</g>
<!-- 5&#45;&gt;22 -->
<g id="edge21" class="edge">
<title>5&#45;&gt;22</title>
<g id="a_edge21"><a xlink:title="include">
<path fill="none" stroke="#1414ce" d="M694.7,-575.87C706.44,-551.35 728.15,-506.03 741.93,-477.26"/>
<polygon fill="#1414ce" stroke="#1414ce" points="745.11,-478.72 746.27,-468.19 738.79,-475.7 745.11,-478.72"/>
</a>
</g>
</g>
<!-- 5&#45;&gt;6 -->
<g id="edge17" class="edge">
<title>5&#45;&gt;6</title>
<g id="a_edge17"><a xlink:title="include">
<path fill="none" stroke="#1414ce" d="M728.3,-586.44C784.98,-577.39 889.6,-560.08 988.94,-540.05"/>
<polygon fill="#1414ce" stroke="#1414ce" points="989.74,-543.46 998.84,-538.04 988.35,-536.6 989.74,-543.46"/>
</a>
</g>
</g>
<!-- 5&#45;&gt;20 -->
<g id="edge20" class="edge">
<title>5&#45;&gt;20</title>
<g id="a_edge20"><a xlink:title="include">
<path fill="none" stroke="#1414ce" d="M709.17,-575.78C734.96,-556.67 778.8,-525.69 819.5,-504 931.01,-444.57 1004.06,-495.06 1082.5,-396 1130.3,-335.63 1123.91,-237.58 1117.27,-190.26"/>
<polygon fill="#1414ce" stroke="#1414ce" points="1120.7,-189.53 1115.73,-180.17 1113.77,-190.58 1120.7,-189.53"/>
</a>
</g>
</g>
<!-- 27 -->
<g id="node32" class="node">
<title>27</title>
<g id="a_node32"><a xlink:title="timer_list.h">
<polygon fill="#ffffff" stroke="black" points="840.5,-252 742.5,-252 742.5,-216 840.5,-216 840.5,-252"/>
<text text-anchor="middle" x="791.5" y="-230.3" font-family="Times,serif" font-size="14.00">timer_list.h</text>
</a>
</g>
</g>
<!-- 5&#45;&gt;27 -->
<g id="edge22" class="edge">
<title>5&#45;&gt;27</title>
<g id="a_edge22"><a xlink:title="include">
<path fill="none" stroke="#1414ce" d="M688.02,-575.81C690.92,-546.08 698.26,-483.29 712.5,-432 730.01,-368.93 761.25,-298.54 778.74,-261.35"/>
<polygon fill="#1414ce" stroke="#1414ce" points="781.96,-262.74 783.08,-252.21 775.63,-259.74 781.96,-262.74"/>
</a>
</g>
</g>
<!-- 16 -->
<g id="node33" class="node">
<title>16</title>
<g id="a_node33"><a xlink:title="mailbox.h">
<polygon fill="#ffffff" stroke="black" points="686.5,-252 600.5,-252 600.5,-216 686.5,-216 686.5,-252"/>
<text text-anchor="middle" x="643.5" y="-230.3" font-family="Times,serif" font-size="14.00">mailbox.h</text>
</a>
</g>
</g>
<!-- 5&#45;&gt;16 -->
<g id="edge19" class="edge">
<title>5&#45;&gt;16</title>
<g id="a_edge19"><a xlink:title="include">
<path fill="none" stroke="#1414ce" d="M678.81,-575.91C667.71,-549.62 648.5,-497.45 648.5,-451 648.5,-451 648.5,-451 648.5,-377 648.5,-336.97 646.49,-290.63 645.02,-262.07"/>
<polygon fill="#1414ce" stroke="#1414ce" points="648.51,-261.84 644.49,-252.04 641.52,-262.21 648.51,-261.84"/>
</a>
</g>
</g>
<!-- 24&#45;&gt;17 -->
<g id="edge27" class="edge">
<title>24&#45;&gt;17</title>
<g id="a_edge27"><a xlink:title="include">
<path fill="none" stroke="#1414ce" d="M278.61,-226.85C341.76,-217.68 463.02,-199.38 565.5,-180 577.51,-177.73 590.5,-175.01 602.37,-172.41"/>
<polygon fill="#1414ce" stroke="#1414ce" points="603.45,-175.76 612.46,-170.18 601.94,-168.92 603.45,-175.76"/>
</a>
</g>
</g>
<!-- 24&#45;&gt;7 -->
<g id="edge23" class="edge">
<title>24&#45;&gt;7</title>
<g id="a_edge23"><a xlink:title="include">
<path fill="none" stroke="#1414ce" d="M238.8,-215.92C242.95,-197.23 251.32,-166.86 265.5,-144 289.36,-105.54 296.17,-90.43 337.5,-72 424.64,-33.15 1101.14,-21.89 1285.33,-19.53"/>
<polygon fill="#1414ce" stroke="#1414ce" points="1285.53,-23.02 1295.49,-19.4 1285.45,-16.02 1285.53,-23.02"/>
</a>
</g>
</g>
<!-- 24&#45;&gt;3 -->
<g id="edge24" class="edge">
<title>24&#45;&gt;3</title>
<g id="a_edge24"><a xlink:title="include">
<path fill="none" stroke="#1414ce" d="M244.7,-215.72C255.5,-196.56 274.84,-165.53 297.5,-144 309.92,-132.19 325.38,-121.62 339.69,-113.09"/>
<polygon fill="#1414ce" stroke="#1414ce" points="341.51,-116.08 348.41,-108.04 338,-110.02 341.51,-116.08"/>
</a>
</g>
</g>
<!-- 10 -->
<g id="node21" class="node">
<title>10</title>
<g id="a_node21"><a xlink:title="erl_nif.h">
<polygon fill="#ffffff" stroke="black" points="169.5,-180 95.5,-180 95.5,-144 169.5,-144 169.5,-180"/>
<text text-anchor="middle" x="132.5" y="-158.3" font-family="Times,serif" font-size="14.00">erl_nif.h</text>
</a>
</g>
</g>
<!-- 24&#45;&gt;10 -->
<g id="edge25" class="edge">
<title>24&#45;&gt;10</title>
<g id="a_edge25"><a xlink:title="include">
<path fill="none" stroke="#1414ce" d="M210.3,-215.88C197.09,-206.89 180.71,-195.76 166.39,-186.03"/>
<polygon fill="#1414ce" stroke="#1414ce" points="168.03,-182.92 157.79,-180.19 164.1,-188.71 168.03,-182.92"/>
</a>
</g>
</g>
<!-- 11 -->
<g id="node27" class="node">
<title>11</title>
<g id="a_node27"><a xlink:title="term_typedef.h">
<polygon fill="#ffffff" stroke="black" points="207,-108 82,-108 82,-72 207,-72 207,-108"/>
<text text-anchor="middle" x="144.5" y="-86.3" font-family="Times,serif" font-size="14.00">term_typedef.h</text>
</a>
</g>
</g>
<!-- 24&#45;&gt;11 -->
<g id="edge26" class="edge">
<title>24&#45;&gt;11</title>
<g id="a_edge26"><a xlink:title="include">
<path fill="none" stroke="#1414ce" d="M224.58,-215.94C213.11,-198.02 194.54,-169.03 178.5,-144 172.81,-135.12 166.58,-125.41 161.02,-116.75"/>
<polygon fill="#1414ce" stroke="#1414ce" points="163.87,-114.71 155.53,-108.18 157.98,-118.49 163.87,-114.71"/>
</a>
</g>
</g>
<!-- 30 -->
<g id="node14" class="node">
<title>30</title>
<g id="a_node14"><a xlink:title="sys.h">
<polygon fill="#ffffff" stroke="black" points="1094.5,-756 1040.5,-756 1040.5,-720 1094.5,-720 1094.5,-756"/>
<text text-anchor="middle" x="1067.5" y="-734.3" font-family="Times,serif" font-size="14.00">sys.h</text>
</a>
</g>
</g>
<!-- 30&#45;&gt;7 -->
<g id="edge30" class="edge">
<title>30&#45;&gt;7</title>
<g id="a_edge30"><a xlink:title="include">
<path fill="none" stroke="#1414ce" d="M1094.51,-735.38C1199.74,-728.33 1576.5,-696.03 1576.5,-595 1576.5,-595 1576.5,-595 1576.5,-161 1576.5,-70.1 1448.68,-36.43 1377.69,-24.74"/>
<polygon fill="#1414ce" stroke="#1414ce" points="1378.07,-21.26 1367.65,-23.17 1376.99,-28.17 1378.07,-21.26"/>
</a>
</g>
</g>
<!-- 31 -->
<g id="node15" class="node">
<title>31</title>
<g id="a_node15"><a xlink:title="module.h">
<polygon fill="#ffffff" stroke="black" points="1187,-684 1104,-684 1104,-648 1187,-648 1187,-684"/>
<text text-anchor="middle" x="1145.5" y="-662.3" font-family="Times,serif" font-size="14.00">module.h</text>
</a>
</g>
</g>
<!-- 30&#45;&gt;31 -->
<g id="edge29" class="edge">
<title>30&#45;&gt;31</title>
<g id="a_edge29"><a xlink:title="include">
<path fill="none" stroke="#1414ce" d="M1086.78,-719.7C1096.42,-711.05 1108.23,-700.45 1118.73,-691.03"/>
<polygon fill="#1414ce" stroke="#1414ce" points="1121.34,-693.39 1126.44,-684.1 1116.66,-688.18 1121.34,-693.39"/>
</a>
</g>
</g>
<!-- 30&#45;&gt;6 -->
<g id="edge28" class="edge">
<title>30&#45;&gt;6</title>
<g id="a_edge28"><a xlink:title="include">
<path fill="none" stroke="#1414ce" d="M1063.19,-719.6C1056.42,-690.06 1044.66,-628.23 1050.5,-576 1051.46,-567.43 1053.26,-558.22 1055.19,-549.93"/>
<polygon fill="#1414ce" stroke="#1414ce" points="1058.63,-550.57 1057.63,-540.02 1051.84,-548.89 1058.63,-550.57"/>
</a>
</g>
</g>
<!-- 35 -->
<g id="node31" class="node">
<title>35</title>
<g id="a_node31"><a xlink:title="time.h">
<polygon fill="#ffffff" stroke="black" points="1037.5,-684 975.5,-684 975.5,-648 1037.5,-648 1037.5,-684"/>
<text text-anchor="middle" x="1006.5" y="-662.3" font-family="Times,serif" font-size="14.00">time.h</text>
</a>
</g>
</g>
<!-- 30&#45;&gt;35 -->
<g id="edge31" class="edge">
<title>30&#45;&gt;35</title>
<g id="a_edge31"><a xlink:title="include">
<path fill="none" stroke="#1414ce" d="M1052.42,-719.7C1045.11,-711.3 1036.19,-701.07 1028.16,-691.86"/>
<polygon fill="#1414ce" stroke="#1414ce" points="1030.61,-689.34 1021.41,-684.1 1025.34,-693.94 1030.61,-689.34"/>
</a>
</g>
</g>
<!-- 31&#45;&gt;2 -->
<g id="edge32" class="edge">
<title>31&#45;&gt;2</title>
<g id="a_edge32"><a xlink:title="include">
<path fill="none" stroke="#1414ce" d="M1187.27,-661.25C1227.28,-655.87 1287.73,-642.93 1330.5,-612 1373.21,-581.11 1383.85,-556.53 1379.5,-504 1364.46,-322.23 1326.52,-255.92 1182.5,-144 1163.25,-129.04 1139.09,-117.14 1117.81,-108.44"/>
<polygon fill="#1414ce" stroke="#1414ce" points="1118.85,-105.09 1108.27,-104.67 1116.28,-111.6 1118.85,-105.09"/>
</a>
</g>
</g>
<!-- 31&#45;&gt;8 -->
<g id="edge34" class="edge">
<title>31&#45;&gt;8</title>
<g id="a_edge34"><a xlink:title="include">
<path fill="none" stroke="#1414ce" d="M1187.25,-648.46C1202.79,-640.02 1218.75,-628.08 1227.5,-612 1235.15,-597.95 1232.28,-591.27 1227.5,-576 1221.68,-557.41 1208.32,-558.59 1202.5,-540 1197.72,-524.73 1199.98,-519.8 1202.5,-504 1208.08,-469.11 1221.88,-430.75 1231.94,-405.85"/>
<polygon fill="#1414ce" stroke="#1414ce" points="1235.27,-406.94 1235.85,-396.36 1228.8,-404.27 1235.27,-406.94"/>
</a>
</g>
</g>
<!-- 31&#45;&gt;7 -->
<g id="edge33" class="edge">
<title>31&#45;&gt;7</title>
<g id="a_edge33"><a xlink:title="include">
<path fill="none" stroke="#1414ce" d="M1187.18,-662.41C1233.14,-657.9 1307.81,-645.59 1362.5,-612 1442.8,-562.67 1500.5,-545.24 1500.5,-451 1500.5,-451 1500.5,-451 1500.5,-161 1500.5,-96.38 1427.17,-55.27 1377.12,-34.75"/>
<polygon fill="#1414ce" stroke="#1414ce" points="1378.34,-31.47 1367.75,-31.03 1375.76,-37.97 1378.34,-31.47"/>
</a>
</g>
</g>
<!-- 31&#45;&gt;5 -->
<g id="edge37" class="edge">
<title>31&#45;&gt;5</title>
<g id="a_edge37"><a xlink:title="include">
<path fill="none" stroke="#1414ce" d="M1103.64,-657.5C1086.02,-654.43 1065.28,-650.91 1046.5,-648 931.22,-630.13 901.8,-629.78 786.5,-612 770.8,-609.58 753.74,-606.75 738.23,-604.11"/>
<polygon fill="#1414ce" stroke="#1414ce" points="738.74,-600.64 728.3,-602.4 737.56,-607.54 738.74,-600.64"/>
</a>
</g>
</g>
<!-- 34 -->
<g id="node16" class="node">
<title>34</title>
<g id="a_node16"><a xlink:title="valueshashtable.h">
<polygon fill="#ffffff" stroke="black" points="1218.5,-612 1072.5,-612 1072.5,-576 1218.5,-576 1218.5,-612"/>
<text text-anchor="middle" x="1145.5" y="-590.3" font-family="Times,serif" font-size="14.00">valueshashtable.h</text>
</a>
</g>
</g>
<!-- 31&#45;&gt;34 -->
<g id="edge41" class="edge">
<title>31&#45;&gt;34</title>
<g id="a_edge41"><a xlink:title="include">
<path fill="none" stroke="#1414ce" d="M1145.5,-647.7C1145.5,-639.98 1145.5,-630.71 1145.5,-622.11"/>
<polygon fill="#1414ce" stroke="#1414ce" points="1149,-622.1 1145.5,-612.1 1142,-622.1 1149,-622.1"/>
</a>
</g>
</g>
<!-- 31&#45;&gt;22 -->
<g id="edge40" class="edge">
<title>31&#45;&gt;22</title>
<g id="a_edge40"><a xlink:title="include">
<path fill="none" stroke="#1414ce" d="M1103.92,-657.45C1037.78,-643.74 907.14,-609.48 819.5,-540 797.75,-522.76 779.79,-496.49 768.29,-476.95"/>
<polygon fill="#1414ce" stroke="#1414ce" points="771.32,-475.2 763.33,-468.24 765.24,-478.66 771.32,-475.2"/>
</a>
</g>
</g>
<!-- 33 -->
<g id="node22" class="node">
<title>33</title>
<g id="a_node22"><a xlink:title="exportedfunction.h">
<polygon fill="#ffffff" stroke="black" points="980.5,-540 828.5,-540 828.5,-504 980.5,-504 980.5,-540"/>
<text text-anchor="middle" x="904.5" y="-518.3" font-family="Times,serif" font-size="14.00">exportedfunction.h</text>
</a>
</g>
</g>
<!-- 31&#45;&gt;33 -->
<g id="edge38" class="edge">
<title>31&#45;&gt;33</title>
<g id="a_edge38"><a xlink:title="include">
<path fill="none" stroke="#1414ce" d="M1114.09,-647.88C1095.5,-637.64 1071.54,-624.28 1050.5,-612 1012.62,-589.9 969.85,-563.67 940.44,-545.44"/>
<polygon fill="#1414ce" stroke="#1414ce" points="942.1,-542.35 931.76,-540.05 938.41,-548.3 942.1,-542.35"/>
</a>
</g>
</g>
<!-- 9 -->
<g id="node24" class="node">
<title>9</title>
<g id="a_node24"><a xlink:title="atom_table.h">
<polygon fill="#ffffff" stroke="black" points="1358,-468 1249,-468 1249,-432 1358,-432 1358,-468"/>
<text text-anchor="middle" x="1303.5" y="-446.3" font-family="Times,serif" font-size="14.00">atom_table.h</text>
</a>
</g>
</g>
<!-- 31&#45;&gt;9 -->
<g id="edge35" class="edge">
<title>31&#45;&gt;9</title>
<g id="a_edge35"><a xlink:title="include">
<path fill="none" stroke="#1414ce" d="M1187.31,-656.41C1241.32,-642.67 1332.13,-609.85 1363.5,-540 1370.05,-525.4 1370.08,-518.59 1363.5,-504 1358.32,-492.52 1349.29,-482.52 1339.78,-474.4"/>
<polygon fill="#1414ce" stroke="#1414ce" points="1341.77,-471.51 1331.76,-468.03 1337.41,-476.99 1341.77,-471.51"/>
</a>
</g>
</g>
<!-- 31&#45;&gt;6 -->
<g id="edge39" class="edge">
<title>31&#45;&gt;6</title>
<g id="a_edge39"><a xlink:title="include">
<path fill="none" stroke="#1414ce" d="M1103.84,-648.41C1088.32,-639.97 1072.34,-628.03 1063.5,-612 1053.16,-593.25 1053.72,-568.72 1056.41,-550.16"/>
<polygon fill="#1414ce" stroke="#1414ce" points="1059.86,-550.73 1058.12,-540.28 1052.97,-549.54 1059.86,-550.73"/>
</a>
</g>
</g>
<!-- 32 -->
<g id="node30" class="node">
<title>32</title>
<g id="a_node30"><a xlink:title="atomshashtable.h">
<polygon fill="#ffffff" stroke="black" points="1354,-540 1211,-540 1211,-504 1354,-504 1354,-540"/>
<text text-anchor="middle" x="1282.5" y="-518.3" font-family="Times,serif" font-size="14.00">atomshashtable.h</text>
</a>
</g>
</g>
<!-- 31&#45;&gt;32 -->
<g id="edge36" class="edge">
<title>31&#45;&gt;32</title>
<g id="a_edge36"><a xlink:title="include">
<path fill="none" stroke="#1414ce" d="M1187.01,-655.57C1211.79,-647.86 1241.94,-634.45 1260.5,-612 1274.81,-594.69 1280.03,-569.42 1281.83,-550.23"/>
<polygon fill="#1414ce" stroke="#1414ce" points="1285.34,-550.23 1282.53,-540.01 1278.35,-549.75 1285.34,-550.23"/>
</a>
</g>
</g>
<!-- 1 -->
<g id="node17" class="node">
<title>1</title>
<g id="a_node17"><a xlink:title="/__w/AtomVM/AtomVM/src/libAtomVM/resources.c">
<polygon fill="#bfbfbf" stroke="black" points="782,-828 407,-828 407,-792 782,-792 782,-828"/>
<text text-anchor="middle" x="594.5" y="-806.3" font-family="Times,serif" font-size="14.00">/__w/AtomVM/AtomVM/src/libAtomVM/resources.c</text>
</a>
</g>
</g>
<!-- 1&#45;&gt;2 -->
<g id="edge42" class="edge">
<title>1&#45;&gt;2</title>
<g id="a_edge42"><a xlink:title="include">
<path fill="none" stroke="#1414ce" d="M782.13,-799.37C1057.43,-782.7 1538.5,-742.72 1538.5,-667 1538.5,-667 1538.5,-667 1538.5,-521 1538.5,-413.24 1424.5,-414.76 1424.5,-307 1424.5,-307 1424.5,-307 1424.5,-233 1424.5,-167.94 1217.61,-119.73 1118.38,-100.36"/>
<polygon fill="#1414ce" stroke="#1414ce" points="1118.75,-96.86 1108.27,-98.41 1117.43,-103.74 1118.75,-96.86"/>
</a>
</g>
</g>
<!-- 1&#45;&gt;29 -->
<g id="edge48" class="edge">
<title>1&#45;&gt;29</title>
<g id="a_edge48"><a xlink:title="include">
<path fill="none" stroke="#1414ce" d="M424.5,-791.97C363.04,-783.45 302.4,-771.58 276.5,-756 251.79,-741.13 232.89,-713.63 221.36,-693.11"/>
<polygon fill="#1414ce" stroke="#1414ce" points="224.41,-691.39 216.59,-684.25 218.25,-694.71 224.41,-691.39"/>
</a>
</g>
</g>
<!-- 1&#45;&gt;25 -->
<g id="edge50" class="edge">
<title>1&#45;&gt;25</title>
<g id="a_edge50"><a xlink:title="include">
<path fill="none" stroke="#1414ce" d="M434.04,-791.97C360.96,-774.37 290.5,-738.8 290.5,-667 290.5,-667 290.5,-667 290.5,-521 290.5,-476.36 318.68,-431.2 339.28,-404.16"/>
<polygon fill="#1414ce" stroke="#1414ce" points="342.23,-406.06 345.65,-396.03 336.73,-401.74 342.23,-406.06"/>
</a>
</g>
</g>
<!-- 1&#45;&gt;28 -->
<g id="edge46" class="edge">
<title>1&#45;&gt;28</title>
<g id="a_edge46"><a xlink:title="include">
<path fill="none" stroke="#1414ce" d="M693.01,-791.99C749.21,-782.03 820.93,-768.91 884.5,-756 885.77,-755.74 887.05,-755.48 888.33,-755.22"/>
<polygon fill="#1414ce" stroke="#1414ce" points="889.26,-758.6 898.33,-753.12 887.82,-751.75 889.26,-758.6"/>
</a>
</g>
</g>
<!-- 1&#45;&gt;17 -->
<g id="edge54" class="edge">
<title>1&#45;&gt;17</title>
<g id="a_edge54"><a xlink:title="include">
<path fill="none" stroke="#1414ce" d="M584.73,-791.64C552.05,-731.27 451.23,-525.2 499.5,-360 520.49,-288.17 581.07,-221.67 616.62,-187.35"/>
<polygon fill="#1414ce" stroke="#1414ce" points="619.38,-189.55 624.22,-180.12 614.56,-184.47 619.38,-189.55"/>
</a>
</g>
</g>
<!-- 1&#45;&gt;21 -->
<g id="edge52" class="edge">
<title>1&#45;&gt;21</title>
<g id="a_edge52"><a xlink:title="include">
<path fill="none" stroke="#1414ce" d="M782,-798.45C901.95,-789.98 1045.54,-776.15 1103.5,-756 1250.63,-704.86 1333.65,-688.87 1379.5,-540 1393.72,-493.84 1390.98,-474.2 1367.5,-432 1311.28,-330.95 1179.29,-274.7 1105.59,-250.14"/>
<polygon fill="#1414ce" stroke="#1414ce" points="1106.62,-246.8 1096.03,-247.03 1104.45,-253.45 1106.62,-246.8"/>
</a>
</g>
</g>
<!-- 1&#45;&gt;3 -->
<g id="edge43" class="edge">
<title>1&#45;&gt;3</title>
<g id="a_edge43"><a xlink:title="include">
<path fill="none" stroke="#1414ce" d="M406.83,-804.88C304.37,-799.14 190.26,-785.94 149.5,-756 29.74,-668.02 12.5,-599.6 12.5,-451 12.5,-451 12.5,-451 12.5,-233 12.5,-181.56 42.04,-169.88 86.5,-144 128.27,-119.69 264.44,-102.82 336.62,-95.35"/>
<polygon fill="#1414ce" stroke="#1414ce" points="337.2,-98.81 346.79,-94.31 336.49,-91.84 337.2,-98.81"/>
</a>
</g>
</g>
<!-- 1&#45;&gt;5 -->
<g id="edge45" class="edge">
<title>1&#45;&gt;5</title>
<g id="a_edge45"><a xlink:title="include">
<path fill="none" stroke="#1414ce" d="M601.87,-791.85C617.89,-754.6 655.95,-666.07 675.09,-621.54"/>
<polygon fill="#1414ce" stroke="#1414ce" points="678.36,-622.8 679.09,-612.23 671.93,-620.04 678.36,-622.8"/>
</a>
</g>
</g>
<!-- 1&#45;&gt;30 -->
<g id="edge53" class="edge">
<title>1&#45;&gt;30</title>
<g id="a_edge53"><a xlink:title="include">
<path fill="none" stroke="#1414ce" d="M782.12,-799.49C857.53,-792.4 944.9,-780.03 1030.69,-755.72"/>
<polygon fill="#1414ce" stroke="#1414ce" points="1031.7,-759.07 1040.34,-752.93 1029.76,-752.34 1031.7,-759.07"/>
</a>
</g>
</g>
<!-- 1&#45;&gt;26 -->
<g id="edge51" class="edge">
<title>1&#45;&gt;26</title>
<g id="a_edge51"><a xlink:title="include">
<path fill="none" stroke="#1414ce" d="M406.7,-800.1C349.95,-792.49 288.64,-779.14 235.5,-756 178.16,-731.03 126.5,-729.54 126.5,-667 126.5,-667 126.5,-667 126.5,-449 126.5,-387.04 193.23,-347.72 244.98,-326.54"/>
<polygon fill="#1414ce" stroke="#1414ce" points="246.43,-329.73 254.44,-322.8 243.86,-323.22 246.43,-329.73"/>
</a>
</g>
</g>
<!-- 1&#45;&gt;10 -->
<g id="edge47" class="edge">
<title>1&#45;&gt;10</title>
<g id="a_edge47"><a xlink:title="include">
<path fill="none" stroke="#1414ce" d="M406.87,-803.47C254.7,-797 61.46,-783.45 36.5,-756 25.73,-744.16 36.08,-735.99 36.5,-720 39.61,-600.32 50.5,-570.72 50.5,-451 50.5,-451 50.5,-451 50.5,-305 50.5,-258.88 83.34,-214.26 107.46,-187.72"/>
<polygon fill="#1414ce" stroke="#1414ce" points="110.02,-190.1 114.3,-180.4 104.91,-185.31 110.02,-190.1"/>
</a>
</g>
</g>
<!-- 4 -->
<g id="node26" class="node">
<title>4</title>
<g id="a_node26"><a xlink:title="string.h">
<polygon fill="#ffffff" stroke="black" points="582,-396 509,-396 509,-360 582,-360 582,-396"/>
<text text-anchor="middle" x="545.5" y="-374.3" font-family="Times,serif" font-size="14.00">string.h</text>
</a>
</g>
</g>
<!-- 1&#45;&gt;4 -->
<g id="edge44" class="edge">
<title>1&#45;&gt;4</title>
<g id="a_edge44"><a xlink:title="include">
<path fill="none" stroke="#1414ce" d="M586.81,-791.91C575.71,-765.62 556.5,-713.45 556.5,-667 556.5,-667 556.5,-667 556.5,-521 556.5,-480.88 552.08,-434.57 548.84,-406.03"/>
<polygon fill="#1414ce" stroke="#1414ce" points="552.31,-405.54 547.67,-396.02 545.36,-406.36 552.31,-405.54"/>
</a>
</g>
</g>
<!-- 1&#45;&gt;6 -->
<g id="edge49" class="edge">
<title>1&#45;&gt;6</title>
<g id="a_edge49"><a xlink:title="include">
<path fill="none" stroke="#1414ce" d="M622.37,-791.97C702.83,-742.8 935.48,-600.62 1025.93,-545.35"/>
<polygon fill="#1414ce" stroke="#1414ce" points="1027.77,-548.33 1034.48,-540.13 1024.12,-542.35 1027.77,-548.33"/>
</a>
</g>
</g>
<!-- 26&#45;&gt;21 -->
<g id="edge59" class="edge">
<title>26&#45;&gt;21</title>
<g id="a_edge59"><a xlink:title="include">
<path fill="none" stroke="#1414ce" d="M354.52,-300.33C489.79,-287.68 862.03,-252.89 1000.61,-239.94"/>
<polygon fill="#1414ce" stroke="#1414ce" points="1001.32,-243.39 1010.95,-238.98 1000.67,-236.42 1001.32,-243.39"/>
</a>
</g>
</g>
<!-- 26&#45;&gt;15 -->
<g id="edge57" class="edge">
<title>26&#45;&gt;15</title>
<g id="a_edge57"><a xlink:title="include">
<path fill="none" stroke="#1414ce" d="M320.87,-287.79C340,-268.42 373.29,-236.92 406.5,-216 433.77,-198.82 467.56,-184.71 492.83,-175.38"/>
<polygon fill="#1414ce" stroke="#1414ce" points="494.19,-178.61 502.4,-171.92 491.81,-172.03 494.19,-178.61"/>
</a>
</g>
</g>
<!-- 26&#45;&gt;3 -->
<g id="edge55" class="edge">
<title>26&#45;&gt;3</title>
<g id="a_edge55"><a xlink:title="include">
<path fill="none" stroke="#1414ce" d="M310.75,-287.85C324.3,-250.68 356.46,-162.44 372.72,-117.82"/>
<polygon fill="#1414ce" stroke="#1414ce" points="376.08,-118.83 376.22,-108.23 369.51,-116.43 376.08,-118.83"/>
</a>
</g>
</g>
<!-- 26&#45;&gt;24 -->
<g id="edge58" class="edge">
<title>26&#45;&gt;24</title>
<g id="a_edge58"><a xlink:title="include">
<path fill="none" stroke="#1414ce" d="M287.44,-287.7C279,-279.14 268.68,-268.66 259.46,-259.3"/>
<polygon fill="#1414ce" stroke="#1414ce" points="261.87,-256.77 252.36,-252.1 256.89,-261.68 261.87,-256.77"/>
</a>
</g>
</g>
<!-- 26&#45;&gt;10 -->
<g id="edge56" class="edge">
<title>26&#45;&gt;10</title>
<g id="a_edge56"><a xlink:title="include">
<path fill="none" stroke="#1414ce" d="M254.48,-291.16C230.92,-282.75 203.64,-270.08 183.5,-252 164.54,-234.98 150.85,-209.19 142.45,-189.74"/>
<polygon fill="#1414ce" stroke="#1414ce" points="145.58,-188.15 138.54,-180.23 139.11,-190.81 145.58,-188.15"/>
</a>
</g>
</g>
<!-- 22&#45;&gt;2 -->
<g id="edge61" class="edge">
<title>22&#45;&gt;2</title>
<g id="a_edge61"><a xlink:title="include">
<path fill="none" stroke="#1414ce" d="M787.08,-443.69C818.44,-437.15 865.67,-423.35 897.5,-396 921.34,-375.51 1017.77,-187.45 1053.28,-117.26"/>
<polygon fill="#1414ce" stroke="#1414ce" points="1056.49,-118.67 1057.88,-108.16 1050.24,-115.51 1056.49,-118.67"/>
</a>
</g>
</g>
<!-- 22&#45;&gt;25 -->
<g id="edge67" class="edge">
<title>22&#45;&gt;25</title>
<g id="a_edge67"><a xlink:title="include">
<path fill="none" stroke="#1414ce" d="M721.92,-443.21C656.9,-431.66 509.98,-405.56 424.83,-390.43"/>
<polygon fill="#1414ce" stroke="#1414ce" points="425.22,-386.94 414.76,-388.64 424,-393.84 425.22,-386.94"/>
</a>
</g>
</g>
<!-- 22&#45;&gt;17 -->
<g id="edge68" class="edge">
<title>22&#45;&gt;17</title>
<g id="a_edge68"><a xlink:title="include">
<path fill="none" stroke="#1414ce" d="M751.36,-431.83C742.54,-384.63 716.81,-253.92 695.5,-216 689.54,-205.4 680.91,-195.41 672.39,-187.02"/>
<polygon fill="#1414ce" stroke="#1414ce" points="674.68,-184.38 664.99,-180.09 669.9,-189.49 674.68,-184.38"/>
</a>
</g>
</g>
<!-- 22&#45;&gt;7 -->
<g id="edge62" class="edge">
<title>22&#45;&gt;7</title>
<g id="a_edge62"><a xlink:title="include">
<path fill="none" stroke="#1414ce" d="M787.02,-442.52C822.1,-434.7 878.93,-419.58 923.5,-396 1100.49,-302.36 1258.76,-112.64 1312.26,-44.27"/>
<polygon fill="#1414ce" stroke="#1414ce" points="1315.17,-46.23 1318.54,-36.18 1309.64,-41.93 1315.17,-46.23"/>
</a>
</g>
</g>
<!-- 22&#45;&gt;3 -->
<g id="edge64" class="edge">
<title>22&#45;&gt;3</title>
<g id="a_edge64"><a xlink:title="include">
<path fill="none" stroke="#1414ce" d="M721.87,-432.86C680.85,-411.57 609.64,-371.24 558.5,-324 487.95,-258.83 425.43,-162.51 397.7,-116.84"/>
<polygon fill="#1414ce" stroke="#1414ce" points="400.62,-114.91 392.47,-108.15 394.62,-118.52 400.62,-114.91"/>
</a>
</g>
</g>
<!-- 22&#45;&gt;24 -->
<g id="edge66" class="edge">
<title>22&#45;&gt;24</title>
<g id="a_edge66"><a xlink:title="include">
<path fill="none" stroke="#1414ce" d="M721.89,-448.58C629.78,-446.87 369.67,-438.32 297.5,-396 263.45,-376.03 259.73,-360.82 245.5,-324 237.85,-304.21 235.52,-280.23 235,-262.15"/>
<polygon fill="#1414ce" stroke="#1414ce" points="238.5,-261.96 234.89,-252.01 231.5,-262.05 238.5,-261.96"/>
</a>
</g>
</g>
<!-- 23 -->
<g id="node25" class="node">
<title>23</title>
<g id="a_node25"><a xlink:title="sys/types.h">
<polygon fill="#ffffff" stroke="black" points="888,-396 791,-396 791,-360 888,-360 888,-396"/>
<text text-anchor="middle" x="839.5" y="-374.3" font-family="Times,serif" font-size="14.00">sys/types.h</text>
</a>
</g>
</g>
<!-- 22&#45;&gt;23 -->
<g id="edge60" class="edge">
<title>22&#45;&gt;23</title>
<g id="a_edge60"><a xlink:title="include">
<path fill="none" stroke="#1414ce" d="M775.51,-431.7C786.22,-422.88 799.39,-412.03 811,-402.47"/>
<polygon fill="#1414ce" stroke="#1414ce" points="813.24,-405.16 818.73,-396.1 808.79,-399.76 813.24,-405.16"/>
</a>
</g>
</g>
<!-- 22&#45;&gt;4 -->
<g id="edge65" class="edge">
<title>22&#45;&gt;4</title>
<g id="a_edge65"><a xlink:title="include">
<path fill="none" stroke="#1414ce" d="M721.84,-438.06C686.92,-426.36 631.24,-407.72 591.8,-394.51"/>
<polygon fill="#1414ce" stroke="#1414ce" points="592.74,-391.13 582.14,-391.27 590.51,-397.77 592.74,-391.13"/>
</a>
</g>
</g>
<!-- 22&#45;&gt;11 -->
<g id="edge69" class="edge">
<title>22&#45;&gt;11</title>
<g id="a_edge69"><a xlink:title="include">
<path fill="none" stroke="#1414ce" d="M721.84,-448.32C624.87,-445.86 340.26,-435.38 257.5,-396 146.93,-343.39 107.61,-300.61 86.5,-180 83.74,-164.24 80.05,-158.64 86.5,-144 91.49,-132.69 100.21,-122.74 109.4,-114.62"/>
<polygon fill="#1414ce" stroke="#1414ce" points="111.67,-117.28 117.16,-108.23 107.22,-111.88 111.67,-117.28"/>
</a>
</g>
</g>
<!-- 22&#45;&gt;19 -->
<g id="edge63" class="edge">
<title>22&#45;&gt;19</title>
<g id="a_edge63"><a xlink:title="include">
<path fill="none" stroke="#1414ce" d="M758.54,-431.8C763.15,-413.52 771.49,-384 782.5,-360 806.05,-308.66 830.86,-305.32 849.5,-252 865.19,-207.12 868.45,-151.38 868.85,-118.64"/>
<polygon fill="#1414ce" stroke="#1414ce" points="872.35,-118.49 868.89,-108.47 865.35,-118.46 872.35,-118.49"/>
</a>
</g>
</g>
<!-- 10&#45;&gt;11 -->
<g id="edge70" class="edge">
<title>10&#45;&gt;11</title>
<g id="a_edge70"><a xlink:title="include">
<path fill="none" stroke="#1414ce" d="M135.47,-143.7C136.79,-135.98 138.38,-126.71 139.85,-118.11"/>
<polygon fill="#1414ce" stroke="#1414ce" points="143.33,-118.55 141.57,-108.1 136.43,-117.37 143.33,-118.55"/>
</a>
</g>
</g>
<!-- 33&#45;&gt;22 -->
<g id="edge71" class="edge">
<title>33&#45;&gt;22</title>
<g id="a_edge71"><a xlink:title="include">
<path fill="none" stroke="#1414ce" d="M867.81,-503.88C846.25,-493.82 818.93,-481.07 796.52,-470.61"/>
<polygon fill="#1414ce" stroke="#1414ce" points="797.78,-467.34 787.24,-466.28 794.82,-473.68 797.78,-467.34"/>
</a>
</g>
</g>
<!-- 13 -->
<g id="node23" class="node">
<title>13</title>
<g id="a_node23"><a xlink:title="limits.h">
<polygon fill="#ffffff" stroke="black" points="271,-36 200,-36 200,0 271,0 271,-36"/>
<text text-anchor="middle" x="235.5" y="-14.3" font-family="Times,serif" font-size="14.00">limits.h</text>
</a>
</g>
</g>
<!-- 9&#45;&gt;2 -->
<g id="edge72" class="edge">
<title>9&#45;&gt;2</title>
<g id="a_edge72"><a xlink:title="include">
<path fill="none" stroke="#1414ce" d="M1301.85,-431.75C1299.68,-413.44 1294.97,-383.89 1285.5,-360 1243.87,-254.98 1231.29,-223.97 1151.5,-144 1139.71,-132.18 1124.81,-121.78 1110.8,-113.39"/>
<polygon fill="#1414ce" stroke="#1414ce" points="1112.17,-110.14 1101.75,-108.17 1108.67,-116.2 1112.17,-110.14"/>
</a>
</g>
</g>
<!-- 9&#45;&gt;8 -->
<g id="edge73" class="edge">
<title>9&#45;&gt;8</title>
<g id="a_edge73"><a xlink:title="include">
<path fill="none" stroke="#1414ce" d="M1288.67,-431.7C1281.48,-423.3 1272.7,-413.07 1264.81,-403.86"/>
<polygon fill="#1414ce" stroke="#1414ce" points="1267.33,-401.42 1258.16,-396.1 1262.01,-405.97 1267.33,-401.42"/>
</a>
</g>
</g>
<!-- 11&#45;&gt;12 -->
<g id="edge74" class="edge">
<title>11&#45;&gt;12</title>
<g id="a_edge74"><a xlink:title="include">
<path fill="none" stroke="#1414ce" d="M144.5,-71.7C144.5,-63.98 144.5,-54.71 144.5,-46.11"/>
<polygon fill="#1414ce" stroke="#1414ce" points="148,-46.1 144.5,-36.1 141,-46.1 148,-46.1"/>
</a>
</g>
</g>
<!-- 11&#45;&gt;7 -->
<g id="edge77" class="edge">
<title>11&#45;&gt;7</title>
<g id="a_edge77"><a xlink:title="include">
<path fill="none" stroke="#1414ce" d="M207.38,-74.21C212.14,-73.37 216.89,-72.61 221.5,-72 630.96,-17.43 1131.96,-17.07 1284.96,-18.41"/>
<polygon fill="#1414ce" stroke="#1414ce" points="1285.33,-21.91 1295.37,-18.51 1285.4,-14.91 1285.33,-21.91"/>
</a>
</g>
</g>
<!-- 11&#45;&gt;13 -->
<g id="edge75" class="edge">
<title>11&#45;&gt;13</title>
<g id="a_edge75"><a xlink:title="include">
<path fill="none" stroke="#1414ce" d="M166.99,-71.7C178.46,-62.88 192.56,-52.03 204.98,-42.47"/>
<polygon fill="#1414ce" stroke="#1414ce" points="207.47,-44.98 213.26,-36.1 203.2,-39.43 207.47,-44.98"/>
</a>
</g>
</g>
<!-- 14 -->
<g id="node35" class="node">
<title>14</title>
<g id="a_node35"><a xlink:title="inttypes.h">
<polygon fill="#ffffff" stroke="black" points="89,-36 0,-36 0,0 89,0 89,-36"/>
<text text-anchor="middle" x="44.5" y="-14.3" font-family="Times,serif" font-size="14.00">inttypes.h</text>
</a>
</g>
</g>
<!-- 11&#45;&gt;14 -->
<g id="edge76" class="edge">
<title>11&#45;&gt;14</title>
<g id="a_edge76"><a xlink:title="include">
<path fill="none" stroke="#1414ce" d="M120.04,-71.88C107.2,-62.89 91.3,-51.76 77.41,-42.03"/>
<polygon fill="#1414ce" stroke="#1414ce" points="79.26,-39.06 69.06,-36.19 75.24,-44.79 79.26,-39.06"/>
</a>
</g>
</g>
<!-- 6&#45;&gt;8 -->
<g id="edge79" class="edge">
<title>6&#45;&gt;8</title>
<g id="a_edge79"><a xlink:title="include">
<path fill="none" stroke="#1414ce" d="M1082.02,-503.77C1102.99,-485.46 1137.48,-455.92 1168.5,-432 1181.76,-421.78 1196.76,-411.03 1209.84,-401.9"/>
<polygon fill="#1414ce" stroke="#1414ce" points="1211.9,-404.73 1218.12,-396.15 1207.91,-398.98 1211.9,-404.73"/>
</a>
</g>
</g>
<!-- 6&#45;&gt;21 -->
<g id="edge85" class="edge">
<title>6&#45;&gt;21</title>
<g id="a_edge85"><a xlink:title="include">
<path fill="none" stroke="#1414ce" d="M1061.96,-503.97C1060.46,-456.29 1056.21,-321.18 1054.37,-262.63"/>
<polygon fill="#1414ce" stroke="#1414ce" points="1057.86,-262.19 1054.04,-252.31 1050.86,-262.41 1057.86,-262.19"/>
</a>
</g>
</g>
<!-- 6&#45;&gt;15 -->
<g id="edge82" class="edge">
<title>6&#45;&gt;15</title>
<g id="a_edge82"><a xlink:title="include">
<path fill="none" stroke="#1414ce" d="M1046.63,-503.74C1012.26,-466.65 931.32,-381.03 897.5,-360 836.26,-321.93 648.87,-295.69 591.5,-252 569.74,-235.43 552.72,-209.02 542.06,-189.26"/>
<polygon fill="#1414ce" stroke="#1414ce" points="545.05,-187.44 537.34,-180.17 538.84,-190.66 545.05,-187.44"/>
</a>
</g>
</g>
<!-- 6&#45;&gt;7 -->
<g id="edge78" class="edge">
<title>6&#45;&gt;7</title>
<g id="a_edge78"><a xlink:title="include">
<path fill="none" stroke="#1414ce" d="M1126.33,-511.9C1209.34,-499.76 1346.28,-478.58 1367.5,-468 1419.28,-442.19 1462.5,-436.86 1462.5,-379 1462.5,-379 1462.5,-379 1462.5,-161 1462.5,-107.59 1411.82,-65.68 1373.5,-41.64"/>
<polygon fill="#1414ce" stroke="#1414ce" points="1374.92,-38.4 1364.56,-36.2 1371.28,-44.38 1374.92,-38.4"/>
</a>
</g>
</g>
<!-- 6&#45;&gt;22 -->
<g id="edge86" class="edge">
<title>6&#45;&gt;22</title>
<g id="a_edge86"><a xlink:title="include">
<path fill="none" stroke="#1414ce" d="M998.8,-506.14C995.66,-505.41 992.54,-504.7 989.5,-504 922.28,-488.59 844.15,-471.04 797.06,-460.5"/>
<polygon fill="#1414ce" stroke="#1414ce" points="797.73,-457.07 787.21,-458.3 796.21,-463.9 797.73,-457.07"/>
</a>
</g>
</g>
<!-- 6&#45;&gt;10 -->
<g id="edge81" class="edge">
<title>6&#45;&gt;10</title>
<g id="a_edge81"><a xlink:title="include">
<path fill="none" stroke="#1414ce" d="M998.88,-505.79C995.71,-505.16 992.57,-504.56 989.5,-504 665.9,-445.44 538.05,-567.57 257.5,-396 189.93,-354.68 185.2,-324.14 152.5,-252 143.54,-232.23 138.44,-208.11 135.64,-189.97"/>
<polygon fill="#1414ce" stroke="#1414ce" points="139.1,-189.47 134.24,-180.06 132.17,-190.45 139.1,-189.47"/>
</a>
</g>
</g>
<!-- 6&#45;&gt;9 -->
<g id="edge80" class="edge">
<title>6&#45;&gt;9</title>
<g id="a_edge80"><a xlink:title="include">
<path fill="none" stroke="#1414ce" d="M1121.15,-503.97C1156.83,-493.6 1202.44,-480.35 1239.12,-469.7"/>
<polygon fill="#1414ce" stroke="#1414ce" points="1240.1,-473.06 1248.73,-466.91 1238.15,-466.34 1240.1,-473.06"/>
</a>
</g>
</g>
<!-- 6&#45;&gt;20 -->
<g id="edge84" class="edge">
<title>6&#45;&gt;20</title>
<g id="a_edge84"><a xlink:title="include">
<path fill="none" stroke="#1414ce" d="M1073.82,-503.71C1099.96,-462.35 1163.32,-353.61 1176.5,-252 1178.56,-236.13 1183.31,-230.48 1176.5,-216 1170.88,-204.05 1161.1,-193.87 1150.85,-185.72"/>
<polygon fill="#1414ce" stroke="#1414ce" points="1152.72,-182.75 1142.6,-179.63 1148.56,-188.39 1152.72,-182.75"/>
</a>
</g>
</g>
<!-- 6&#45;&gt;27 -->
<g id="edge87" class="edge">
<title>6&#45;&gt;27</title>
<g id="a_edge87"><a xlink:title="include">
<path fill="none" stroke="#1414ce" d="M1060.49,-503.82C1056,-472.13 1042.55,-403.73 1006.5,-360 965.17,-309.87 898.15,-275.49 849.92,-255.66"/>
<polygon fill="#1414ce" stroke="#1414ce" points="851.12,-252.37 840.53,-251.88 848.51,-258.86 851.12,-252.37"/>
</a>
</g>
</g>
<!-- 6&#45;&gt;16 -->
<g id="edge83" class="edge">
<title>6&#45;&gt;16</title>
<g id="a_edge83"><a xlink:title="include">
<path fill="none" stroke="#1414ce" d="M1054.38,-503.99C1036.44,-467.01 993.09,-380.92 968.5,-360 926.21,-324.04 777.35,-275.35 696.58,-250.69"/>
<polygon fill="#1414ce" stroke="#1414ce" points="697.19,-247.22 686.6,-247.67 695.15,-253.92 697.19,-247.22"/>
</a>
</g>
</g>
<!-- 20&#45;&gt;2 -->
<g id="edge88" class="edge">
<title>20&#45;&gt;2</title>
<g id="a_edge88"><a xlink:title="include">
<path fill="none" stroke="#1414ce" d="M1101.13,-143.7C1095.78,-135.56 1089.3,-125.69 1083.39,-116.7"/>
<polygon fill="#1414ce" stroke="#1414ce" points="1086.16,-114.54 1077.74,-108.1 1080.31,-118.38 1086.16,-114.54"/>
</a>
</g>
</g>
<!-- 32&#45;&gt;8 -->
<g id="edge89" class="edge">
<title>32&#45;&gt;8</title>
<g id="a_edge89"><a xlink:title="include">
<path fill="none" stroke="#1414ce" d="M1263.9,-503.76C1254.97,-494.2 1245.21,-481.53 1240.5,-468 1233.57,-448.11 1234.87,-424.18 1237.6,-406.14"/>
<polygon fill="#1414ce" stroke="#1414ce" points="1241.05,-406.73 1239.32,-396.28 1234.15,-405.53 1241.05,-406.73"/>
</a>
</g>
</g>
<!-- 27&#45;&gt;2 -->
<g id="edge90" class="edge">
<title>27&#45;&gt;2</title>
<g id="a_edge90"><a xlink:title="include">
<path fill="none" stroke="#1414ce" d="M824.67,-215.87C874.64,-190.07 969.19,-141.25 1024.1,-112.9"/>
<polygon fill="#1414ce" stroke="#1414ce" points="1025.93,-115.89 1033.21,-108.19 1022.72,-109.67 1025.93,-115.89"/>
</a>
</g>
</g>
<!-- 27&#45;&gt;15 -->
<g id="edge92" class="edge">
<title>27&#45;&gt;15</title>
<g id="a_edge92"><a xlink:title="include">
<path fill="none" stroke="#1414ce" d="M742.22,-219.83C691.09,-206.17 612.31,-185.13 566.34,-172.84"/>
<polygon fill="#1414ce" stroke="#1414ce" points="567.06,-169.41 556.5,-170.21 565.26,-176.18 567.06,-169.41"/>
</a>
</g>
</g>
<!-- 27&#45;&gt;7 -->
<g id="edge91" class="edge">
<title>27&#45;&gt;7</title>
<g id="a_edge91"><a xlink:title="include">
<path fill="none" stroke="#1414ce" d="M789.51,-215.75C786.73,-182.36 786.01,-108.96 827.5,-72 861.34,-41.85 1167.16,-25.9 1285.26,-20.82"/>
<polygon fill="#1414ce" stroke="#1414ce" points="1285.58,-24.31 1295.43,-20.39 1285.29,-17.32 1285.58,-24.31"/>
</a>
</g>
</g>
<!-- 16&#45;&gt;2 -->
<g id="edge93" class="edge">
<title>16&#45;&gt;2</title>
<g id="a_edge93"><a xlink:title="include">
<path fill="none" stroke="#1414ce" d="M686.73,-216.74C736.03,-198.37 819.19,-167.91 891.5,-144 932.79,-130.35 979.99,-116.13 1014.96,-105.86"/>
<polygon fill="#1414ce" stroke="#1414ce" points="1016.33,-109.11 1024.95,-102.94 1014.36,-102.39 1016.33,-109.11"/>
</a>
</g>
</g>
<!-- 16&#45;&gt;17 -->
<g id="edge96" class="edge">
<title>16&#45;&gt;17</title>
<g id="a_edge96"><a xlink:title="include">
<path fill="none" stroke="#1414ce" d="M643.5,-215.7C643.5,-207.98 643.5,-198.71 643.5,-190.11"/>
<polygon fill="#1414ce" stroke="#1414ce" points="647,-190.1 643.5,-180.1 640,-190.1 647,-190.1"/>
</a>
</g>
</g>
<!-- 16&#45;&gt;15 -->
<g id="edge94" class="edge">
<title>16&#45;&gt;15</title>
<g id="a_edge94"><a xlink:title="include">
<path fill="none" stroke="#1414ce" d="M615.61,-215.88C600.48,-206.59 581.62,-195 565.4,-185.04"/>
<polygon fill="#1414ce" stroke="#1414ce" points="567.06,-181.96 556.71,-179.71 563.4,-187.92 567.06,-181.96"/>
</a>
</g>
</g>
<!-- 16&#45;&gt;11 -->
<g id="edge95" class="edge">
<title>16&#45;&gt;11</title>
<g id="a_edge95"><a xlink:title="include">
<path fill="none" stroke="#1414ce" d="M630.69,-215.64C613.05,-192.25 581.65,-152.58 565.5,-144 535.49,-128.06 330.09,-107.57 217.67,-97.37"/>
<polygon fill="#1414ce" stroke="#1414ce" points="217.7,-93.85 207.42,-96.44 217.07,-100.83 217.7,-93.85"/>
</a>
</g>
</g>
</g>
</svg>
