<?xml version="1.0" encoding="UTF-8" standalone="no"?>
<!DOCTYPE svg PUBLIC "-//W3C//DTD SVG 1.1//EN"
 "http://www.w3.org/Graphics/SVG/1.1/DTD/svg11.dtd">
<!-- Generated by graphviz version 2.43.0 (0)
 -->
<!-- Title: %3 Pages: 1 -->
<svg width="394pt" height="188pt"
 viewBox="0.00 0.00 394.00 188.00" xmlns="http://www.w3.org/2000/svg" xmlns:xlink="http://www.w3.org/1999/xlink">
<g id="graph0" class="graph" transform="scale(1 1) rotate(0) translate(4 184)">
<title>%3</title>
<polygon fill="transparent" stroke="transparent" points="-4,4 -4,-184 390,-184 390,4 -4,4"/>
<!-- 2 -->
<g id="node1" class="node">
<title>2</title>
<g id="a_node1"><a xlink:title="stdbool.h">
<polygon fill="#ffffff" stroke="black" points="188.5,-108 105.5,-108 105.5,-72 188.5,-72 188.5,-108"/>
<text text-anchor="middle" x="147" y="-86.3" font-family="Times,serif" font-size="14.00">stdbool.h</text>
</a>
</g>
</g>
<!-- 3 -->
<g id="node2" class="node">
<title>3</title>
<g id="a_node2"><a xlink:title="atom.h">
<polygon fill="#ffffff" stroke="black" points="273,-108 207,-108 207,-72 273,-72 273,-108"/>
<text text-anchor="middle" x="240" y="-86.3" font-family="Times,serif" font-size="14.00">atom.h</text>
</a>
</g>
</g>
<!-- 4 -->
<g id="node3" class="node">
<title>4</title>
<g id="a_node3"><a xlink:title="stdint.h">
<polygon fill="#ffffff" stroke="black" points="231,-36 159,-36 159,0 231,0 231,-36"/>
<text text-anchor="middle" x="195" y="-14.3" font-family="Times,serif" font-size="14.00">stdint.h</text>
</a>
</g>
</g>
<!-- 3&#45;&gt;4 -->
<g id="edge1" class="edge">
<title>3&#45;&gt;4</title>
<g id="a_edge1"><a xlink:title="include">
<path fill="none" stroke="#1414ce" d="M228.88,-71.7C223.64,-63.56 217.3,-53.69 211.52,-44.7"/>
<polygon fill="#1414ce" stroke="#1414ce" points="214.35,-42.62 206,-36.1 208.46,-46.41 214.35,-42.62"/>
</a>
</g>
</g>
<!-- 5 -->
<g id="node4" class="node">
<title>5</title>
<g id="a_node4"><a xlink:title="stdlib.h">
<polygon fill="#ffffff" stroke="black" points="320.5,-36 249.5,-36 249.5,0 320.5,0 320.5,-36"/>
<text text-anchor="middle" x="285" y="-14.3" font-family="Times,serif" font-size="14.00">stdlib.h</text>
</a>
</g>
</g>
<!-- 3&#45;&gt;5 -->
<g id="edge2" class="edge">
<title>3&#45;&gt;5</title>
<g id="a_edge2"><a xlink:title="include">
<path fill="none" stroke="#1414ce" d="M251.12,-71.7C256.36,-63.56 262.7,-53.69 268.48,-44.7"/>
<polygon fill="#1414ce" stroke="#1414ce" points="271.54,-46.41 274,-36.1 265.65,-42.62 271.54,-46.41"/>
</a>
</g>
</g>
<!-- 1 -->
<g id="node5" class="node">
<title>1</title>
<g id="a_node5"><a xlink:title="/__w/AtomVM/AtomVM/src/libAtomVM/atom_table.h">
<polygon fill="#bfbfbf" stroke="black" points="386,-180 0,-180 0,-144 386,-144 386,-180"/>
<text text-anchor="middle" x="193" y="-158.3" font-family="Times,serif" font-size="14.00">/__w/AtomVM/AtomVM/src/libAtomVM/atom_table.h</text>
</a>
</g>
</g>
<!-- 1&#45;&gt;2 -->
<g id="edge3" class="edge">
<title>1&#45;&gt;2</title>
<g id="a_edge3"><a xlink:title="include">
<path fill="none" stroke="#1414ce" d="M181.63,-143.7C176.28,-135.56 169.8,-125.69 163.89,-116.7"/>
<polygon fill="#1414ce" stroke="#1414ce" points="166.66,-114.54 158.24,-108.1 160.81,-118.38 166.66,-114.54"/>
</a>
</g>
</g>
<!-- 1&#45;&gt;3 -->
<g id="edge4" class="edge">
<title>1&#45;&gt;3</title>
<g id="a_edge4"><a xlink:title="include">
<path fill="none" stroke="#1414ce" d="M204.62,-143.7C210.14,-135.47 216.85,-125.48 222.93,-116.42"/>
<polygon fill="#1414ce" stroke="#1414ce" points="225.85,-118.36 228.52,-108.1 220.04,-114.46 225.85,-118.36"/>
</a>
</g>
</g>
</g>
</svg>
