<?xml version="1.0" encoding="UTF-8" standalone="no"?>
<!DOCTYPE svg PUBLIC "-//W3C//DTD SVG 1.1//EN"
 "http://www.w3.org/Graphics/SVG/1.1/DTD/svg11.dtd">
<!-- Generated by graphviz version 2.43.0 (0)
 -->
<!-- Title: %3 Pages: 1 -->
<svg width="1334pt" height="692pt"
 viewBox="0.00 0.00 1334.00 692.00" xmlns="http://www.w3.org/2000/svg" xmlns:xlink="http://www.w3.org/1999/xlink">
<g id="graph0" class="graph" transform="scale(1 1) rotate(0) translate(4 688)">
<title>%3</title>
<polygon fill="transparent" stroke="transparent" points="-4,4 -4,-688 1330,-688 1330,4 -4,4"/>
<!-- 8 -->
<g id="node1" class="node">
<title>8</title>
<g id="a_node1"><a xlink:title="stdbool.h">
<polygon fill="#ffffff" stroke="black" points="446.5,-108 363.5,-108 363.5,-72 446.5,-72 446.5,-108"/>
<text text-anchor="middle" x="405" y="-86.3" font-family="Times,serif" font-size="14.00">stdbool.h</text>
</a>
</g>
</g>
<!-- 25 -->
<g id="node2" class="node">
<title>25</title>
<g id="a_node2"><a xlink:title="refc_binary.h">
<polygon fill="#ffffff" stroke="black" points="973,-396 865,-396 865,-360 973,-360 973,-396"/>
<text text-anchor="middle" x="919" y="-374.3" font-family="Times,serif" font-size="14.00">refc_binary.h</text>
</a>
</g>
</g>
<!-- 25&#45;&gt;8 -->
<g id="edge1" class="edge">
<title>25&#45;&gt;8</title>
<g id="a_edge1"><a xlink:title="include">
<path fill="none" stroke="#1414ce" d="M864.81,-362.53C752.83,-332.45 505.16,-264.87 491,-252 452.78,-217.24 474.13,-188.57 448,-144 442.28,-134.24 434.84,-124.39 427.77,-115.87"/>
<polygon fill="#1414ce" stroke="#1414ce" points="430.33,-113.48 421.16,-108.16 425.01,-118.03 430.33,-113.48"/>
</a>
</g>
</g>
<!-- 14 -->
<g id="node7" class="node">
<title>14</title>
<g id="a_node7"><a xlink:title="list.h">
<polygon fill="#ffffff" stroke="black" points="679,-180 625,-180 625,-144 679,-144 679,-180"/>
<text text-anchor="middle" x="652" y="-158.3" font-family="Times,serif" font-size="14.00">list.h</text>
</a>
</g>
</g>
<!-- 25&#45;&gt;14 -->
<g id="edge3" class="edge">
<title>25&#45;&gt;14</title>
<g id="a_edge3"><a xlink:title="include">
<path fill="none" stroke="#1414ce" d="M876.63,-359.98C830.19,-339.69 755.56,-302.14 705,-252 686.84,-233.99 672.5,-208.53 663.34,-189.45"/>
<polygon fill="#1414ce" stroke="#1414ce" points="666.4,-187.73 659.03,-180.12 660.05,-190.67 666.4,-187.73"/>
</a>
</g>
</g>
<!-- 6 -->
<g id="node9" class="node">
<title>6</title>
<g id="a_node9"><a xlink:title="stdlib.h">
<polygon fill="#ffffff" stroke="black" points="1005.5,-108 934.5,-108 934.5,-72 1005.5,-72 1005.5,-108"/>
<text text-anchor="middle" x="970" y="-86.3" font-family="Times,serif" font-size="14.00">stdlib.h</text>
</a>
</g>
</g>
<!-- 25&#45;&gt;6 -->
<g id="edge2" class="edge">
<title>25&#45;&gt;6</title>
<g id="a_edge2"><a xlink:title="include">
<path fill="none" stroke="#1414ce" d="M911.93,-359.67C908.16,-349.47 903.91,-336.22 902,-324 899.53,-308.19 899.35,-303.78 902,-288 912.63,-224.62 941.25,-154.35 957.77,-117.26"/>
<polygon fill="#1414ce" stroke="#1414ce" points="960.96,-118.7 961.89,-108.15 954.58,-115.82 960.96,-118.7"/>
</a>
</g>
</g>
<!-- 26 -->
<g id="node12" class="node">
<title>26</title>
<g id="a_node12"><a xlink:title="resources.h">
<polygon fill="#ffffff" stroke="black" points="1011,-324 911,-324 911,-288 1011,-288 1011,-324"/>
<text text-anchor="middle" x="961" y="-302.3" font-family="Times,serif" font-size="14.00">resources.h</text>
</a>
</g>
</g>
<!-- 25&#45;&gt;26 -->
<g id="edge4" class="edge">
<title>25&#45;&gt;26</title>
<g id="a_edge4"><a xlink:title="include">
<path fill="none" stroke="#1414ce" d="M929.38,-359.7C934.26,-351.56 940.19,-341.69 945.58,-332.7"/>
<polygon fill="#1414ce" stroke="#1414ce" points="948.59,-334.48 950.74,-324.1 942.59,-330.88 948.59,-334.48"/>
</a>
</g>
</g>
<!-- 5 -->
<g id="node3" class="node">
<title>5</title>
<g id="a_node3"><a xlink:title="atom.h">
<polygon fill="#ffffff" stroke="black" points="194,-180 128,-180 128,-144 194,-144 194,-180"/>
<text text-anchor="middle" x="161" y="-158.3" font-family="Times,serif" font-size="14.00">atom.h</text>
</a>
</g>
</g>
<!-- 4 -->
<g id="node8" class="node">
<title>4</title>
<g id="a_node8"><a xlink:title="stdint.h">
<polygon fill="#ffffff" stroke="black" points="250,-36 178,-36 178,0 250,0 250,-36"/>
<text text-anchor="middle" x="214" y="-14.3" font-family="Times,serif" font-size="14.00">stdint.h</text>
</a>
</g>
</g>
<!-- 5&#45;&gt;4 -->
<g id="edge5" class="edge">
<title>5&#45;&gt;4</title>
<g id="a_edge5"><a xlink:title="include">
<path fill="none" stroke="#1414ce" d="M167.39,-143.87C176.51,-119.46 193.31,-74.43 204.06,-45.64"/>
<polygon fill="#1414ce" stroke="#1414ce" points="207.37,-46.78 207.58,-36.19 200.81,-44.33 207.37,-46.78"/>
</a>
</g>
</g>
<!-- 5&#45;&gt;6 -->
<g id="edge6" class="edge">
<title>5&#45;&gt;6</title>
<g id="a_edge6"><a xlink:title="include">
<path fill="none" stroke="#1414ce" d="M194.06,-157.47C229.41,-153.78 287.12,-147.97 337,-144 591.36,-123.73 658.48,-151.02 910,-108 914.75,-107.19 919.67,-106.14 924.54,-104.97"/>
<polygon fill="#1414ce" stroke="#1414ce" points="925.62,-108.31 934.44,-102.42 923.88,-101.53 925.62,-108.31"/>
</a>
</g>
</g>
<!-- 11 -->
<g id="node4" class="node">
<title>11</title>
<g id="a_node4"><a xlink:title="assert.h">
<polygon fill="#ffffff" stroke="black" points="1326,-36 1252,-36 1252,0 1326,0 1326,-36"/>
<text text-anchor="middle" x="1289" y="-14.3" font-family="Times,serif" font-size="14.00">assert.h</text>
</a>
</g>
</g>
<!-- 16 -->
<g id="node5" class="node">
<title>16</title>
<g id="a_node5"><a xlink:title="utils.h">
<polygon fill="#ffffff" stroke="black" points="880,-180 818,-180 818,-144 880,-144 880,-180"/>
<text text-anchor="middle" x="849" y="-158.3" font-family="Times,serif" font-size="14.00">utils.h</text>
</a>
</g>
</g>
<!-- 16&#45;&gt;6 -->
<g id="edge9" class="edge">
<title>16&#45;&gt;6</title>
<g id="a_edge9"><a xlink:title="include">
<path fill="none" stroke="#1414ce" d="M878.6,-143.88C894.57,-134.64 914.46,-123.13 931.61,-113.21"/>
<polygon fill="#1414ce" stroke="#1414ce" points="933.38,-116.23 940.29,-108.19 929.88,-110.17 933.38,-116.23"/>
</a>
</g>
</g>
<!-- 17 -->
<g id="node14" class="node">
<title>17</title>
<g id="a_node14"><a xlink:title="stddef.h">
<polygon fill="#ffffff" stroke="black" points="901,-108 827,-108 827,-72 901,-72 901,-108"/>
<text text-anchor="middle" x="864" y="-86.3" font-family="Times,serif" font-size="14.00">stddef.h</text>
</a>
</g>
</g>
<!-- 16&#45;&gt;17 -->
<g id="edge7" class="edge">
<title>16&#45;&gt;17</title>
<g id="a_edge7"><a xlink:title="include">
<path fill="none" stroke="#1414ce" d="M852.71,-143.7C854.36,-135.98 856.35,-126.71 858.19,-118.11"/>
<polygon fill="#1414ce" stroke="#1414ce" points="861.66,-118.62 860.33,-108.1 854.82,-117.15 861.66,-118.62"/>
</a>
</g>
</g>
<!-- 18 -->
<g id="node26" class="node">
<title>18</title>
<g id="a_node26"><a xlink:title="stdio.h">
<polygon fill="#ffffff" stroke="black" points="808.5,-108 743.5,-108 743.5,-72 808.5,-72 808.5,-108"/>
<text text-anchor="middle" x="776" y="-86.3" font-family="Times,serif" font-size="14.00">stdio.h</text>
</a>
</g>
</g>
<!-- 16&#45;&gt;18 -->
<g id="edge8" class="edge">
<title>16&#45;&gt;18</title>
<g id="a_edge8"><a xlink:title="include">
<path fill="none" stroke="#1414ce" d="M830.96,-143.7C821.94,-135.05 810.88,-124.45 801.06,-115.03"/>
<polygon fill="#1414ce" stroke="#1414ce" points="803.48,-112.5 793.84,-108.1 798.63,-117.55 803.48,-112.5"/>
</a>
</g>
</g>
<!-- 20 -->
<g id="node6" class="node">
<title>20</title>
<g id="a_node6"><a xlink:title="synclist.h">
<polygon fill="#ffffff" stroke="black" points="585.5,-252 500.5,-252 500.5,-216 585.5,-216 585.5,-252"/>
<text text-anchor="middle" x="543" y="-230.3" font-family="Times,serif" font-size="14.00">synclist.h</text>
</a>
</g>
</g>
<!-- 20&#45;&gt;14 -->
<g id="edge11" class="edge">
<title>20&#45;&gt;14</title>
<g id="a_edge11"><a xlink:title="include">
<path fill="none" stroke="#1414ce" d="M569.66,-215.88C583.78,-206.81 601.31,-195.55 616.56,-185.76"/>
<polygon fill="#1414ce" stroke="#1414ce" points="618.71,-188.54 625.23,-180.19 614.93,-182.65 618.71,-188.54"/>
</a>
</g>
</g>
<!-- 19 -->
<g id="node23" class="node">
<title>19</title>
<g id="a_node23"><a xlink:title="smp.h">
<polygon fill="#ffffff" stroke="black" points="406,-180 346,-180 346,-144 406,-144 406,-180"/>
<text text-anchor="middle" x="376" y="-158.3" font-family="Times,serif" font-size="14.00">smp.h</text>
</a>
</g>
</g>
<!-- 20&#45;&gt;19 -->
<g id="edge12" class="edge">
<title>20&#45;&gt;19</title>
<g id="a_edge12"><a xlink:title="include">
<path fill="none" stroke="#1414ce" d="M502.15,-215.88C475.74,-204.81 441.57,-190.48 415.45,-179.53"/>
<polygon fill="#1414ce" stroke="#1414ce" points="416.79,-176.3 406.22,-175.67 414.09,-182.76 416.79,-176.3"/>
</a>
</g>
</g>
<!-- 20&#45;&gt;18 -->
<g id="edge10" class="edge">
<title>20&#45;&gt;18</title>
<g id="a_edge10"><a xlink:title="include">
<path fill="none" stroke="#1414ce" d="M552.92,-215.77C565.26,-195.78 588.16,-163.12 616,-144 651.52,-119.6 699.12,-105.74 733.15,-98.36"/>
<polygon fill="#1414ce" stroke="#1414ce" points="734.16,-101.72 743.25,-96.27 732.74,-94.87 734.16,-101.72"/>
</a>
</g>
</g>
<!-- 2 -->
<g id="node10" class="node">
<title>2</title>
<g id="a_node10"><a xlink:title="context.h">
<polygon fill="#ffffff" stroke="black" points="519.5,-612 436.5,-612 436.5,-576 519.5,-576 519.5,-612"/>
<text text-anchor="middle" x="478" y="-590.3" font-family="Times,serif" font-size="14.00">context.h</text>
</a>
</g>
</g>
<!-- 2&#45;&gt;14 -->
<g id="edge14" class="edge">
<title>2&#45;&gt;14</title>
<g id="a_edge14"><a xlink:title="include">
<path fill="none" stroke="#1414ce" d="M505.02,-575.96C538.73,-552.37 592,-506.33 592,-451 592,-451 592,-451 592,-377 592,-339.99 625.7,-238.26 642.59,-189.6"/>
<polygon fill="#1414ce" stroke="#1414ce" points="645.92,-190.66 645.92,-180.07 639.31,-188.36 645.92,-190.66"/>
</a>
</g>
</g>
<!-- 21 -->
<g id="node13" class="node">
<title>21</title>
<g id="a_node13"><a xlink:title="term.h">
<polygon fill="#ffffff" stroke="black" points="896.5,-468 831.5,-468 831.5,-432 896.5,-432 896.5,-468"/>
<text text-anchor="middle" x="864" y="-446.3" font-family="Times,serif" font-size="14.00">term.h</text>
</a>
</g>
</g>
<!-- 2&#45;&gt;21 -->
<g id="edge17" class="edge">
<title>2&#45;&gt;21</title>
<g id="a_edge17"><a xlink:title="include">
<path fill="none" stroke="#1414ce" d="M519.56,-580.68C553.32,-570.45 602.03,-555.16 644,-540 706.82,-517.3 778.29,-487.66 822.27,-468.98"/>
<polygon fill="#1414ce" stroke="#1414ce" points="823.67,-472.19 831.5,-465.05 820.93,-465.75 823.67,-472.19"/>
</a>
</g>
</g>
<!-- 3 -->
<g id="node21" class="node">
<title>3</title>
<g id="a_node21"><a xlink:title="globalcontext.h">
<polygon fill="#ffffff" stroke="black" points="438.5,-540 311.5,-540 311.5,-504 438.5,-504 438.5,-540"/>
<text text-anchor="middle" x="375" y="-518.3" font-family="Times,serif" font-size="14.00">globalcontext.h</text>
</a>
</g>
</g>
<!-- 2&#45;&gt;3 -->
<g id="edge13" class="edge">
<title>2&#45;&gt;3</title>
<g id="a_edge13"><a xlink:title="include">
<path fill="none" stroke="#1414ce" d="M452.8,-575.88C439.59,-566.89 423.21,-555.76 408.89,-546.03"/>
<polygon fill="#1414ce" stroke="#1414ce" points="410.53,-542.92 400.29,-540.19 406.6,-548.71 410.53,-542.92"/>
</a>
</g>
</g>
<!-- 2&#45;&gt;19 -->
<g id="edge16" class="edge">
<title>2&#45;&gt;19</title>
<g id="a_edge16"><a xlink:title="include">
<path fill="none" stroke="#1414ce" d="M473.94,-575.88C458.27,-509.8 401.64,-271.08 382.43,-190.1"/>
<polygon fill="#1414ce" stroke="#1414ce" points="385.79,-189.09 380.07,-180.17 378.98,-190.71 385.79,-189.09"/>
</a>
</g>
</g>
<!-- 27 -->
<g id="node24" class="node">
<title>27</title>
<g id="a_node24"><a xlink:title="timer_list.h">
<polygon fill="#ffffff" stroke="black" points="330,-252 232,-252 232,-216 330,-216 330,-252"/>
<text text-anchor="middle" x="281" y="-230.3" font-family="Times,serif" font-size="14.00">timer_list.h</text>
</a>
</g>
</g>
<!-- 2&#45;&gt;27 -->
<g id="edge18" class="edge">
<title>2&#45;&gt;27</title>
<g id="a_edge18"><a xlink:title="include">
<path fill="none" stroke="#1414ce" d="M436.35,-586.82C340.19,-571.61 107.45,-529.12 62,-468 -1.08,-383.18 150.83,-295.63 232.82,-256.34"/>
<polygon fill="#1414ce" stroke="#1414ce" points="234.42,-259.46 241.97,-252.02 231.43,-253.13 234.42,-259.46"/>
</a>
</g>
</g>
<!-- 15 -->
<g id="node25" class="node">
<title>15</title>
<g id="a_node25"><a xlink:title="mailbox.h">
<polygon fill="#ffffff" stroke="black" points="842,-252 756,-252 756,-216 842,-216 842,-252"/>
<text text-anchor="middle" x="799" y="-230.3" font-family="Times,serif" font-size="14.00">mailbox.h</text>
</a>
</g>
</g>
<!-- 2&#45;&gt;15 -->
<g id="edge15" class="edge">
<title>2&#45;&gt;15</title>
<g id="a_edge15"><a xlink:title="include">
<path fill="none" stroke="#1414ce" d="M519.56,-585.99C547.91,-579.07 584.14,-565.62 606,-540 659.39,-477.43 605.64,-429.89 649,-360 676.56,-315.58 725.35,-279.31 759.79,-257.5"/>
<polygon fill="#1414ce" stroke="#1414ce" points="762,-260.25 768.65,-252 758.31,-254.3 762,-260.25"/>
</a>
</g>
</g>
<!-- 24 -->
<g id="node11" class="node">
<title>24</title>
<g id="a_node11"><a xlink:title="memory.h">
<polygon fill="#ffffff" stroke="black" points="1162,-252 1076,-252 1076,-216 1162,-216 1162,-252"/>
<text text-anchor="middle" x="1119" y="-230.3" font-family="Times,serif" font-size="14.00">memory.h</text>
</a>
</g>
</g>
<!-- 24&#45;&gt;16 -->
<g id="edge23" class="edge">
<title>24&#45;&gt;16</title>
<g id="a_edge23"><a xlink:title="include">
<path fill="none" stroke="#1414ce" d="M1075.92,-221.83C1024.8,-208.58 940.2,-186.64 890.01,-173.63"/>
<polygon fill="#1414ce" stroke="#1414ce" points="890.7,-170.2 880.14,-171.07 888.95,-176.97 890.7,-170.2"/>
</a>
</g>
</g>
<!-- 24&#45;&gt;4 -->
<g id="edge19" class="edge">
<title>24&#45;&gt;4</title>
<g id="a_edge19"><a xlink:title="include">
<path fill="none" stroke="#1414ce" d="M1113.94,-215.82C1102.71,-181.18 1072.06,-103.59 1015,-72 948.94,-35.42 420.57,-22.79 260.07,-19.78"/>
<polygon fill="#1414ce" stroke="#1414ce" points="260.11,-16.28 250.04,-19.59 259.98,-23.28 260.11,-16.28"/>
</a>
</g>
</g>
<!-- 24&#45;&gt;6 -->
<g id="edge20" class="edge">
<title>24&#45;&gt;6</title>
<g id="a_edge20"><a xlink:title="include">
<path fill="none" stroke="#1414ce" d="M1104.38,-215.91C1088.31,-197.47 1061.39,-167.58 1036,-144 1025,-133.78 1012.26,-123.27 1000.93,-114.34"/>
<polygon fill="#1414ce" stroke="#1414ce" points="1003.01,-111.52 992.97,-108.14 998.7,-117.04 1003.01,-111.52"/>
</a>
</g>
</g>
<!-- 9 -->
<g id="node15" class="node">
<title>9</title>
<g id="a_node15"><a xlink:title="erl_nif.h">
<polygon fill="#ffffff" stroke="black" points="1238,-180 1164,-180 1164,-144 1238,-144 1238,-180"/>
<text text-anchor="middle" x="1201" y="-158.3" font-family="Times,serif" font-size="14.00">erl_nif.h</text>
</a>
</g>
</g>
<!-- 24&#45;&gt;9 -->
<g id="edge21" class="edge">
<title>24&#45;&gt;9</title>
<g id="a_edge21"><a xlink:title="include">
<path fill="none" stroke="#1414ce" d="M1139.27,-215.7C1149.5,-206.97 1162.06,-196.24 1173.18,-186.75"/>
<polygon fill="#1414ce" stroke="#1414ce" points="1175.63,-189.26 1180.96,-180.1 1171.09,-183.94 1175.63,-189.26"/>
</a>
</g>
</g>
<!-- 10 -->
<g id="node20" class="node">
<title>10</title>
<g id="a_node20"><a xlink:title="term_typedef.h">
<polygon fill="#ffffff" stroke="black" points="1251.5,-108 1126.5,-108 1126.5,-72 1251.5,-72 1251.5,-108"/>
<text text-anchor="middle" x="1189" y="-86.3" font-family="Times,serif" font-size="14.00">term_typedef.h</text>
</a>
</g>
</g>
<!-- 24&#45;&gt;10 -->
<g id="edge22" class="edge">
<title>24&#45;&gt;10</title>
<g id="a_edge22"><a xlink:title="include">
<path fill="none" stroke="#1414ce" d="M1124.86,-215.85C1131.34,-197.61 1142.52,-168.13 1155,-144 1159.77,-134.78 1165.68,-125.1 1171.23,-116.58"/>
<polygon fill="#1414ce" stroke="#1414ce" points="1174.2,-118.44 1176.82,-108.18 1168.37,-114.56 1174.2,-118.44"/>
</a>
</g>
</g>
<!-- 26&#45;&gt;20 -->
<g id="edge28" class="edge">
<title>26&#45;&gt;20</title>
<g id="a_edge28"><a xlink:title="include">
<path fill="none" stroke="#1414ce" d="M910.99,-296.63C831.4,-283.3 676.63,-257.38 595.5,-243.79"/>
<polygon fill="#1414ce" stroke="#1414ce" points="595.94,-240.32 585.5,-242.12 594.79,-247.22 595.94,-240.32"/>
</a>
</g>
</g>
<!-- 26&#45;&gt;14 -->
<g id="edge26" class="edge">
<title>26&#45;&gt;14</title>
<g id="a_edge26"><a xlink:title="include">
<path fill="none" stroke="#1414ce" d="M910.82,-299.87C865.71,-293.61 798.79,-280.14 747,-252 738.86,-247.57 702.15,-212.28 676.82,-187.49"/>
<polygon fill="#1414ce" stroke="#1414ce" points="678.96,-184.69 669.37,-180.18 674.06,-189.69 678.96,-184.69"/>
</a>
</g>
</g>
<!-- 26&#45;&gt;6 -->
<g id="edge24" class="edge">
<title>26&#45;&gt;6</title>
<g id="a_edge24"><a xlink:title="include">
<path fill="none" stroke="#1414ce" d="M961.72,-287.85C963.28,-250.83 966.96,-163.18 968.85,-118.39"/>
<polygon fill="#1414ce" stroke="#1414ce" points="972.35,-118.37 969.28,-108.23 965.36,-118.08 972.35,-118.37"/>
</a>
</g>
</g>
<!-- 26&#45;&gt;24 -->
<g id="edge27" class="edge">
<title>26&#45;&gt;24</title>
<g id="a_edge27"><a xlink:title="include">
<path fill="none" stroke="#1414ce" d="M999.65,-287.88C1021.25,-278.31 1048.35,-266.3 1071.27,-256.15"/>
<polygon fill="#1414ce" stroke="#1414ce" points="1072.75,-259.32 1080.47,-252.07 1069.91,-252.92 1072.75,-259.32"/>
</a>
</g>
</g>
<!-- 26&#45;&gt;9 -->
<g id="edge25" class="edge">
<title>26&#45;&gt;9</title>
<g id="a_edge25"><a xlink:title="include">
<path fill="none" stroke="#1414ce" d="M1011.03,-305.36C1058.06,-303.01 1127.52,-292.21 1171,-252 1188.25,-236.04 1195.58,-209.85 1198.7,-190"/>
<polygon fill="#1414ce" stroke="#1414ce" points="1202.18,-190.38 1200.01,-180.01 1195.24,-189.47 1202.18,-190.38"/>
</a>
</g>
</g>
<!-- 21&#45;&gt;8 -->
<g id="edge30" class="edge">
<title>21&#45;&gt;8</title>
<g id="a_edge30"><a xlink:title="include">
<path fill="none" stroke="#1414ce" d="M831.22,-445.28C787.75,-439.39 709.49,-425.44 649,-396 555.62,-350.56 526.33,-335.8 465,-252 434.8,-210.73 418.14,-152.53 410.43,-118.58"/>
<polygon fill="#1414ce" stroke="#1414ce" points="413.77,-117.5 408.23,-108.47 406.93,-118.98 413.77,-117.5"/>
</a>
</g>
</g>
<!-- 21&#45;&gt;25 -->
<g id="edge36" class="edge">
<title>21&#45;&gt;25</title>
<g id="a_edge36"><a xlink:title="include">
<path fill="none" stroke="#1414ce" d="M877.6,-431.7C884.12,-423.39 892.07,-413.28 899.25,-404.14"/>
<polygon fill="#1414ce" stroke="#1414ce" points="902.13,-406.13 905.56,-396.1 896.63,-401.81 902.13,-406.13"/>
</a>
</g>
</g>
<!-- 21&#45;&gt;16 -->
<g id="edge37" class="edge">
<title>21&#45;&gt;16</title>
<g id="a_edge37"><a xlink:title="include">
<path fill="none" stroke="#1414ce" d="M896.82,-447.52C932.18,-444.01 987.13,-432.57 1015,-396 1044.13,-357.78 1041.75,-330.85 1020,-288 992.82,-234.46 930.75,-198.37 889.35,-179.24"/>
<polygon fill="#1414ce" stroke="#1414ce" points="890.63,-175.98 880.08,-175.08 887.77,-182.37 890.63,-175.98"/>
</a>
</g>
</g>
<!-- 21&#45;&gt;4 -->
<g id="edge31" class="edge">
<title>21&#45;&gt;4</title>
<g id="a_edge31"><a xlink:title="include">
<path fill="none" stroke="#1414ce" d="M831.29,-445.95C696.41,-432.61 186.25,-374.57 95,-252 43.12,-182.31 135.19,-86.69 185.07,-42.79"/>
<polygon fill="#1414ce" stroke="#1414ce" points="187.41,-45.39 192.68,-36.2 182.83,-40.1 187.41,-45.39"/>
</a>
</g>
</g>
<!-- 21&#45;&gt;6 -->
<g id="edge33" class="edge">
<title>21&#45;&gt;6</title>
<g id="a_edge33"><a xlink:title="include">
<path fill="none" stroke="#1414ce" d="M896.82,-449.51C937.25,-448.17 1004.67,-439.09 1038,-396 1104.17,-310.46 1026.06,-173.21 988.24,-116.64"/>
<polygon fill="#1414ce" stroke="#1414ce" points="991.07,-114.57 982.55,-108.28 985.28,-118.51 991.07,-114.57"/>
</a>
</g>
</g>
<!-- 21&#45;&gt;24 -->
<g id="edge35" class="edge">
<title>21&#45;&gt;24</title>
<g id="a_edge35"><a xlink:title="include">
<path fill="none" stroke="#1414ce" d="M896.67,-445.77C952.94,-439.52 1064.67,-423.88 1091,-396 1125.07,-359.92 1125.66,-297.99 1122.61,-262.37"/>
<polygon fill="#1414ce" stroke="#1414ce" points="1126.07,-261.82 1121.58,-252.22 1119.11,-262.52 1126.07,-261.82"/>
</a>
</g>
</g>
<!-- 22 -->
<g id="node18" class="node">
<title>22</title>
<g id="a_node18"><a xlink:title="sys/types.h">
<polygon fill="#ffffff" stroke="black" points="755.5,-396 658.5,-396 658.5,-360 755.5,-360 755.5,-396"/>
<text text-anchor="middle" x="707" y="-374.3" font-family="Times,serif" font-size="14.00">sys/types.h</text>
</a>
</g>
</g>
<!-- 21&#45;&gt;22 -->
<g id="edge29" class="edge">
<title>21&#45;&gt;22</title>
<g id="a_edge29"><a xlink:title="include">
<path fill="none" stroke="#1414ce" d="M831.47,-434.5C809.25,-424.59 779.44,-411.3 754.57,-400.21"/>
<polygon fill="#1414ce" stroke="#1414ce" points="755.86,-396.95 745.3,-396.08 753.01,-403.35 755.86,-396.95"/>
</a>
</g>
</g>
<!-- 23 -->
<g id="node19" class="node">
<title>23</title>
<g id="a_node19"><a xlink:title="string.h">
<polygon fill="#ffffff" stroke="black" points="846.5,-396 773.5,-396 773.5,-360 846.5,-360 846.5,-396"/>
<text text-anchor="middle" x="810" y="-374.3" font-family="Times,serif" font-size="14.00">string.h</text>
</a>
</g>
</g>
<!-- 21&#45;&gt;23 -->
<g id="edge34" class="edge">
<title>21&#45;&gt;23</title>
<g id="a_edge34"><a xlink:title="include">
<path fill="none" stroke="#1414ce" d="M850.65,-431.7C844.24,-423.39 836.44,-413.28 829.39,-404.14"/>
<polygon fill="#1414ce" stroke="#1414ce" points="832.07,-401.88 823.19,-396.1 826.53,-406.16 832.07,-401.88"/>
</a>
</g>
</g>
<!-- 21&#45;&gt;10 -->
<g id="edge38" class="edge">
<title>21&#45;&gt;10</title>
<g id="a_edge38"><a xlink:title="include">
<path fill="none" stroke="#1414ce" d="M896.56,-444.67C992.26,-431.03 1266,-385.18 1266,-307 1266,-307 1266,-307 1266,-233 1266,-192.55 1267.11,-179.09 1247,-144 1240.69,-133 1231.32,-123 1221.94,-114.72"/>
<polygon fill="#1414ce" stroke="#1414ce" points="1224.04,-111.92 1214.12,-108.19 1219.55,-117.29 1224.04,-111.92"/>
</a>
</g>
</g>
<!-- 21&#45;&gt;18 -->
<g id="edge32" class="edge">
<title>21&#45;&gt;18</title>
<g id="a_edge32"><a xlink:title="include">
<path fill="none" stroke="#1414ce" d="M896.6,-444.23C924.58,-438.23 963.27,-424.94 982,-396 990.69,-382.57 990.69,-373.44 982,-360 960.83,-327.26 929.82,-351.32 902,-324 864.12,-286.81 883.2,-258.2 851,-216 836.09,-196.45 823.06,-200.17 809,-180 795.94,-161.26 787.35,-136.73 782.22,-118.17"/>
<polygon fill="#1414ce" stroke="#1414ce" points="785.55,-117.09 779.65,-108.29 778.78,-118.84 785.55,-117.09"/>
</a>
</g>
</g>
<!-- 9&#45;&gt;10 -->
<g id="edge39" class="edge">
<title>9&#45;&gt;10</title>
<g id="a_edge39"><a xlink:title="include">
<path fill="none" stroke="#1414ce" d="M1198.03,-143.7C1196.71,-135.98 1195.12,-126.71 1193.65,-118.11"/>
<polygon fill="#1414ce" stroke="#1414ce" points="1197.07,-117.37 1191.93,-108.1 1190.17,-118.55 1197.07,-117.37"/>
</a>
</g>
</g>
<!-- 12 -->
<g id="node16" class="node">
<title>12</title>
<g id="a_node16"><a xlink:title="limits.h">
<polygon fill="#ffffff" stroke="black" points="1126.5,-36 1055.5,-36 1055.5,0 1126.5,0 1126.5,-36"/>
<text text-anchor="middle" x="1091" y="-14.3" font-family="Times,serif" font-size="14.00">limits.h</text>
</a>
</g>
</g>
<!-- 7 -->
<g id="node17" class="node">
<title>7</title>
<g id="a_node17"><a xlink:title="atom_table.h">
<polygon fill="#ffffff" stroke="black" points="213.5,-252 104.5,-252 104.5,-216 213.5,-216 213.5,-252"/>
<text text-anchor="middle" x="159" y="-230.3" font-family="Times,serif" font-size="14.00">atom_table.h</text>
</a>
</g>
</g>
<!-- 7&#45;&gt;8 -->
<g id="edge40" class="edge">
<title>7&#45;&gt;8</title>
<g id="a_edge40"><a xlink:title="include">
<path fill="none" stroke="#1414ce" d="M186.82,-215.95C216.61,-197.79 265.36,-168.37 308,-144 326.13,-133.64 346.38,-122.5 363.67,-113.13"/>
<polygon fill="#1414ce" stroke="#1414ce" points="365.8,-115.95 372.94,-108.12 362.48,-109.8 365.8,-115.95"/>
</a>
</g>
</g>
<!-- 7&#45;&gt;5 -->
<g id="edge41" class="edge">
<title>7&#45;&gt;5</title>
<g id="a_edge41"><a xlink:title="include">
<path fill="none" stroke="#1414ce" d="M159.49,-215.7C159.71,-207.98 159.98,-198.71 160.23,-190.11"/>
<polygon fill="#1414ce" stroke="#1414ce" points="163.72,-190.2 160.51,-180.1 156.73,-190 163.72,-190.2"/>
</a>
</g>
</g>
<!-- 10&#45;&gt;11 -->
<g id="edge42" class="edge">
<title>10&#45;&gt;11</title>
<g id="a_edge42"><a xlink:title="include">
<path fill="none" stroke="#1414ce" d="M1213.46,-71.88C1226.3,-62.89 1242.2,-51.76 1256.09,-42.03"/>
<polygon fill="#1414ce" stroke="#1414ce" points="1258.26,-44.79 1264.44,-36.19 1254.24,-39.06 1258.26,-44.79"/>
</a>
</g>
</g>
<!-- 10&#45;&gt;4 -->
<g id="edge45" class="edge">
<title>10&#45;&gt;4</title>
<g id="a_edge45"><a xlink:title="include">
<path fill="none" stroke="#1414ce" d="M1126.11,-74.27C1121.35,-73.41 1116.61,-72.64 1112,-72 788.19,-26.99 393.51,-20.15 260.37,-19.15"/>
<polygon fill="#1414ce" stroke="#1414ce" points="260.15,-15.65 250.13,-19.09 260.11,-22.65 260.15,-15.65"/>
</a>
</g>
</g>
<!-- 10&#45;&gt;12 -->
<g id="edge43" class="edge">
<title>10&#45;&gt;12</title>
<g id="a_edge43"><a xlink:title="include">
<path fill="none" stroke="#1414ce" d="M1165.03,-71.88C1152.45,-62.89 1136.87,-51.76 1123.25,-42.03"/>
<polygon fill="#1414ce" stroke="#1414ce" points="1125.24,-39.15 1115.07,-36.19 1121.17,-44.85 1125.24,-39.15"/>
</a>
</g>
</g>
<!-- 13 -->
<g id="node27" class="node">
<title>13</title>
<g id="a_node27"><a xlink:title="inttypes.h">
<polygon fill="#ffffff" stroke="black" points="1233.5,-36 1144.5,-36 1144.5,0 1233.5,0 1233.5,-36"/>
<text text-anchor="middle" x="1189" y="-14.3" font-family="Times,serif" font-size="14.00">inttypes.h</text>
</a>
</g>
</g>
<!-- 10&#45;&gt;13 -->
<g id="edge44" class="edge">
<title>10&#45;&gt;13</title>
<g id="a_edge44"><a xlink:title="include">
<path fill="none" stroke="#1414ce" d="M1189,-71.7C1189,-63.98 1189,-54.71 1189,-46.11"/>
<polygon fill="#1414ce" stroke="#1414ce" points="1192.5,-46.1 1189,-36.1 1185.5,-46.1 1192.5,-46.1"/>
</a>
</g>
</g>
<!-- 3&#45;&gt;5 -->
<g id="edge47" class="edge">
<title>3&#45;&gt;5</title>
<g id="a_edge47"><a xlink:title="include">
<path fill="none" stroke="#1414ce" d="M311.22,-518.2C223.41,-510.54 76,-482.3 76,-379 76,-379 76,-379 76,-305 76,-264.55 73.78,-250.43 95,-216 102.06,-204.55 112.5,-194.51 123.02,-186.34"/>
<polygon fill="#1414ce" stroke="#1414ce" points="125.4,-188.93 131.4,-180.19 121.26,-183.29 125.4,-188.93"/>
</a>
</g>
</g>
<!-- 3&#45;&gt;20 -->
<g id="edge53" class="edge">
<title>3&#45;&gt;20</title>
<g id="a_edge53"><a xlink:title="include">
<path fill="none" stroke="#1414ce" d="M372.56,-504C368.98,-473.47 364.99,-408.06 388,-360 410.57,-312.86 460.54,-277.8 497.68,-257"/>
<polygon fill="#1414ce" stroke="#1414ce" points="499.71,-259.87 506.82,-252.02 496.36,-253.73 499.71,-259.87"/>
</a>
</g>
</g>
<!-- 3&#45;&gt;14 -->
<g id="edge50" class="edge">
<title>3&#45;&gt;14</title>
<g id="a_edge50"><a xlink:title="include">
<path fill="none" stroke="#1414ce" d="M388.78,-503.92C403.25,-485.99 426.69,-456.98 447,-432 512.15,-351.85 533.05,-335.39 594,-252 609.11,-231.33 624.88,-206.91 636.16,-188.88"/>
<polygon fill="#1414ce" stroke="#1414ce" points="639.32,-190.44 641.62,-180.09 633.37,-186.74 639.32,-190.44"/>
</a>
</g>
</g>
<!-- 3&#45;&gt;4 -->
<g id="edge46" class="edge">
<title>3&#45;&gt;4</title>
<g id="a_edge46"><a xlink:title="include">
<path fill="none" stroke="#1414ce" d="M311.41,-515.63C238,-508.34 122.89,-493.25 88,-468 21.94,-420.18 0,-388.55 0,-307 0,-307 0,-307 0,-161 0,-81.17 104.66,-43.55 167.6,-28.14"/>
<polygon fill="#1414ce" stroke="#1414ce" points="168.76,-31.46 177.7,-25.77 167.16,-24.65 168.76,-31.46"/>
</a>
</g>
</g>
<!-- 3&#45;&gt;21 -->
<g id="edge54" class="edge">
<title>3&#45;&gt;21</title>
<g id="a_edge54"><a xlink:title="include">
<path fill="none" stroke="#1414ce" d="M438.93,-511.85C540.3,-497.34 735.25,-469.43 821.34,-457.11"/>
<polygon fill="#1414ce" stroke="#1414ce" points="821.89,-460.56 831.29,-455.68 820.89,-453.63 821.89,-460.56"/>
</a>
</g>
</g>
<!-- 3&#45;&gt;9 -->
<g id="edge49" class="edge">
<title>3&#45;&gt;9</title>
<g id="a_edge49"><a xlink:title="include">
<path fill="none" stroke="#1414ce" d="M438.76,-517.12C636.8,-504.21 1228,-458.99 1228,-379 1228,-379 1228,-379 1228,-305 1228,-264.5 1217.27,-218.63 1209.34,-190.26"/>
<polygon fill="#1414ce" stroke="#1414ce" points="1212.6,-188.93 1206.46,-180.29 1205.87,-190.87 1212.6,-188.93"/>
</a>
</g>
</g>
<!-- 3&#45;&gt;7 -->
<g id="edge48" class="edge">
<title>3&#45;&gt;7</title>
<g id="a_edge48"><a xlink:title="include">
<path fill="none" stroke="#1414ce" d="M340.81,-503.81C324.96,-494.69 306.66,-482.38 293,-468 232.39,-404.16 188.34,-307.87 169.36,-261.63"/>
<polygon fill="#1414ce" stroke="#1414ce" points="172.58,-260.26 165.59,-252.3 166.08,-262.88 172.58,-260.26"/>
</a>
</g>
</g>
<!-- 3&#45;&gt;19 -->
<g id="edge52" class="edge">
<title>3&#45;&gt;19</title>
<g id="a_edge52"><a xlink:title="include">
<path fill="none" stroke="#1414ce" d="M370.67,-503.76C361.52,-465.14 341.69,-368.74 350,-288 353.51,-253.85 362.29,-215.27 368.68,-190.12"/>
<polygon fill="#1414ce" stroke="#1414ce" points="372.13,-190.77 371.25,-180.21 365.35,-189.02 372.13,-190.77"/>
</a>
</g>
</g>
<!-- 3&#45;&gt;27 -->
<g id="edge55" class="edge">
<title>3&#45;&gt;27</title>
<g id="a_edge55"><a xlink:title="include">
<path fill="none" stroke="#1414ce" d="M346.24,-503.83C333.66,-494.78 319.98,-482.54 312,-468 275.29,-401.1 275.67,-307.6 278.54,-262.07"/>
<polygon fill="#1414ce" stroke="#1414ce" points="282.03,-262.31 279.26,-252.08 275.05,-261.8 282.03,-262.31"/>
</a>
</g>
</g>
<!-- 3&#45;&gt;15 -->
<g id="edge51" class="edge">
<title>3&#45;&gt;15</title>
<g id="a_edge51"><a xlink:title="include">
<path fill="none" stroke="#1414ce" d="M399,-503.96C454.12,-464.94 594.22,-366.45 714,-288 729.69,-277.73 747.24,-266.7 762.31,-257.38"/>
<polygon fill="#1414ce" stroke="#1414ce" points="764.18,-260.34 770.85,-252.11 760.51,-254.38 764.18,-260.34"/>
</a>
</g>
</g>
<!-- 1 -->
<g id="node22" class="node">
<title>1</title>
<g id="a_node22"><a xlink:title="/__w/AtomVM/AtomVM/src/libAtomVM/scheduler.h">
<polygon fill="#bfbfbf" stroke="black" points="619.5,-684 244.5,-684 244.5,-648 619.5,-648 619.5,-684"/>
<text text-anchor="middle" x="432" y="-662.3" font-family="Times,serif" font-size="14.00">/__w/AtomVM/AtomVM/src/libAtomVM/scheduler.h</text>
</a>
</g>
</g>
<!-- 1&#45;&gt;2 -->
<g id="edge56" class="edge">
<title>1&#45;&gt;2</title>
<g id="a_edge56"><a xlink:title="include">
<path fill="none" stroke="#1414ce" d="M443.37,-647.7C448.72,-639.56 455.2,-629.69 461.11,-620.7"/>
<polygon fill="#1414ce" stroke="#1414ce" points="464.19,-622.38 466.76,-612.1 458.34,-618.54 464.19,-622.38"/>
</a>
</g>
</g>
<!-- 1&#45;&gt;3 -->
<g id="edge57" class="edge">
<title>1&#45;&gt;3</title>
<g id="a_edge57"><a xlink:title="include">
<path fill="none" stroke="#1414ce" d="M425.12,-647.87C415.32,-623.46 397.25,-578.43 385.69,-549.64"/>
<polygon fill="#1414ce" stroke="#1414ce" points="388.87,-548.17 381.9,-540.19 382.38,-550.77 388.87,-548.17"/>
</a>
</g>
</g>
<!-- 19&#45;&gt;8 -->
<g id="edge58" class="edge">
<title>19&#45;&gt;8</title>
<g id="a_edge58"><a xlink:title="include">
<path fill="none" stroke="#1414ce" d="M383.17,-143.7C386.43,-135.81 390.37,-126.3 394,-117.55"/>
<polygon fill="#1414ce" stroke="#1414ce" points="397.32,-118.68 397.91,-108.1 390.85,-116 397.32,-118.68"/>
</a>
</g>
</g>
<!-- 27&#45;&gt;8 -->
<g id="edge59" class="edge">
<title>27&#45;&gt;8</title>
<g id="a_edge59"><a xlink:title="include">
<path fill="none" stroke="#1414ce" d="M289.54,-215.73C299.37,-196.86 316.8,-166.34 337,-144 346.86,-133.1 359.15,-122.77 370.57,-114.17"/>
<polygon fill="#1414ce" stroke="#1414ce" points="372.68,-116.96 378.68,-108.23 368.54,-111.31 372.68,-116.96"/>
</a>
</g>
</g>
<!-- 27&#45;&gt;14 -->
<g id="edge61" class="edge">
<title>27&#45;&gt;14</title>
<g id="a_edge61"><a xlink:title="include">
<path fill="none" stroke="#1414ce" d="M330.27,-223.7C405.48,-209.51 547.29,-182.76 614.65,-170.05"/>
<polygon fill="#1414ce" stroke="#1414ce" points="615.62,-173.43 624.8,-168.13 614.33,-166.55 615.62,-173.43"/>
</a>
</g>
</g>
<!-- 27&#45;&gt;4 -->
<g id="edge60" class="edge">
<title>27&#45;&gt;4</title>
<g id="a_edge60"><a xlink:title="include">
<path fill="none" stroke="#1414ce" d="M275.63,-215.85C263.99,-178.68 236.37,-90.44 222.4,-45.82"/>
<polygon fill="#1414ce" stroke="#1414ce" points="225.72,-44.73 219.4,-36.23 219.04,-46.82 225.72,-44.73"/>
</a>
</g>
</g>
<!-- 15&#45;&gt;8 -->
<g id="edge62" class="edge">
<title>15&#45;&gt;8</title>
<g id="a_edge62"><a xlink:title="include">
<path fill="none" stroke="#1414ce" d="M783.11,-215.91C763.02,-195.42 726.38,-161.63 688,-144 612.37,-109.27 515.4,-97.3 456.85,-93.17"/>
<polygon fill="#1414ce" stroke="#1414ce" points="456.94,-89.67 446.73,-92.51 456.48,-96.65 456.94,-89.67"/>
</a>
</g>
</g>
<!-- 15&#45;&gt;16 -->
<g id="edge65" class="edge">
<title>15&#45;&gt;16</title>
<g id="a_edge65"><a xlink:title="include">
<path fill="none" stroke="#1414ce" d="M811.36,-215.7C817.23,-207.47 824.37,-197.48 830.84,-188.42"/>
<polygon fill="#1414ce" stroke="#1414ce" points="833.82,-190.28 836.78,-180.1 828.12,-186.21 833.82,-190.28"/>
</a>
</g>
</g>
<!-- 15&#45;&gt;14 -->
<g id="edge63" class="edge">
<title>15&#45;&gt;14</title>
<g id="a_edge63"><a xlink:title="include">
<path fill="none" stroke="#1414ce" d="M763.04,-215.88C740.43,-205.11 711.34,-191.26 688.61,-180.43"/>
<polygon fill="#1414ce" stroke="#1414ce" points="689.83,-177.14 679.29,-176 686.82,-183.46 689.83,-177.14"/>
</a>
</g>
</g>
<!-- 15&#45;&gt;10 -->
<g id="edge64" class="edge">
<title>15&#45;&gt;10</title>
<g id="a_edge64"><a xlink:title="include">
<path fill="none" stroke="#1414ce" d="M842.23,-217.26C913.07,-191.47 1053.86,-140.2 1132.51,-111.57"/>
<polygon fill="#1414ce" stroke="#1414ce" points="1134.05,-114.73 1142.25,-108.02 1131.66,-108.15 1134.05,-114.73"/>
</a>
</g>
</g>
</g>
</svg>
