<?xml version="1.0" encoding="UTF-8" standalone="no"?>
<!DOCTYPE svg PUBLIC "-//W3C//DTD SVG 1.1//EN"
 "http://www.w3.org/Graphics/SVG/1.1/DTD/svg11.dtd">
<!-- Generated by graphviz version 2.43.0 (0)
 -->
<!-- Title: %3 Pages: 1 -->
<svg width="1645pt" height="692pt"
 viewBox="0.00 0.00 1644.50 692.00" xmlns="http://www.w3.org/2000/svg" xmlns:xlink="http://www.w3.org/1999/xlink">
<g id="graph0" class="graph" transform="scale(1 1) rotate(0) translate(4 688)">
<title>%3</title>
<polygon fill="transparent" stroke="transparent" points="-4,4 -4,-688 1640.5,-688 1640.5,4 -4,4"/>
<!-- 5 -->
<g id="node1" class="node">
<title>5</title>
<g id="a_node1"><a xlink:title="stdbool.h">
<polygon fill="#ffffff" stroke="black" points="608.5,-108 525.5,-108 525.5,-72 608.5,-72 608.5,-108"/>
<text text-anchor="middle" x="567" y="-86.3" font-family="Times,serif" font-size="14.00">stdbool.h</text>
</a>
</g>
</g>
<!-- 18 -->
<g id="node2" class="node">
<title>18</title>
<g id="a_node2"><a xlink:title="refc_binary.h">
<polygon fill="#ffffff" stroke="black" points="1319,-396 1211,-396 1211,-360 1319,-360 1319,-396"/>
<text text-anchor="middle" x="1265" y="-374.3" font-family="Times,serif" font-size="14.00">refc_binary.h</text>
</a>
</g>
</g>
<!-- 18&#45;&gt;5 -->
<g id="edge1" class="edge">
<title>18&#45;&gt;5</title>
<g id="a_edge1"><a xlink:title="include">
<path fill="none" stroke="#1414ce" d="M1220.66,-359.93C1196.23,-350.13 1165.57,-337.19 1139,-324 995.6,-252.83 976.7,-200.72 827,-144 757.39,-117.63 672.07,-103.43 618.6,-96.55"/>
<polygon fill="#1414ce" stroke="#1414ce" points="619.03,-93.07 608.68,-95.31 618.17,-100.02 619.03,-93.07"/>
</a>
</g>
</g>
<!-- 19 -->
<g id="node7" class="node">
<title>19</title>
<g id="a_node7"><a xlink:title="list.h">
<polygon fill="#ffffff" stroke="black" points="466,-180 412,-180 412,-144 466,-144 466,-180"/>
<text text-anchor="middle" x="439" y="-158.3" font-family="Times,serif" font-size="14.00">list.h</text>
</a>
</g>
</g>
<!-- 18&#45;&gt;19 -->
<g id="edge3" class="edge">
<title>18&#45;&gt;19</title>
<g id="a_edge3"><a xlink:title="include">
<path fill="none" stroke="#1414ce" d="M1210.98,-362.19C1207.61,-361.41 1204.27,-360.67 1201,-360 1040.39,-326.9 597.86,-355.91 471,-252 452.59,-236.92 444.77,-210.38 441.45,-190.2"/>
<polygon fill="#1414ce" stroke="#1414ce" points="444.88,-189.47 440.06,-180.04 437.94,-190.42 444.88,-189.47"/>
</a>
</g>
</g>
<!-- 8 -->
<g id="node9" class="node">
<title>8</title>
<g id="a_node9"><a xlink:title="stdlib.h">
<polygon fill="#ffffff" stroke="black" points="1429.5,-108 1358.5,-108 1358.5,-72 1429.5,-72 1429.5,-108"/>
<text text-anchor="middle" x="1394" y="-86.3" font-family="Times,serif" font-size="14.00">stdlib.h</text>
</a>
</g>
</g>
<!-- 18&#45;&gt;8 -->
<g id="edge2" class="edge">
<title>18&#45;&gt;8</title>
<g id="a_edge2"><a xlink:title="include">
<path fill="none" stroke="#1414ce" d="M1290.38,-359.99C1319.72,-338.68 1366.59,-299.17 1387,-252 1405.87,-208.4 1402.78,-151.8 1398.57,-118.64"/>
<polygon fill="#1414ce" stroke="#1414ce" points="1401.98,-117.76 1397.13,-108.34 1395.05,-118.73 1401.98,-117.76"/>
</a>
</g>
</g>
<!-- 20 -->
<g id="node12" class="node">
<title>20</title>
<g id="a_node12"><a xlink:title="resources.h">
<polygon fill="#ffffff" stroke="black" points="1248,-324 1148,-324 1148,-288 1248,-288 1248,-324"/>
<text text-anchor="middle" x="1198" y="-302.3" font-family="Times,serif" font-size="14.00">resources.h</text>
</a>
</g>
</g>
<!-- 18&#45;&gt;20 -->
<g id="edge4" class="edge">
<title>18&#45;&gt;20</title>
<g id="a_edge4"><a xlink:title="include">
<path fill="none" stroke="#1414ce" d="M1248.44,-359.7C1240.32,-351.22 1230.41,-340.86 1221.53,-331.58"/>
<polygon fill="#1414ce" stroke="#1414ce" points="1223.81,-328.91 1214.37,-324.1 1218.76,-333.75 1223.81,-328.91"/>
</a>
</g>
</g>
<!-- 25 -->
<g id="node3" class="node">
<title>25</title>
<g id="a_node3"><a xlink:title="atom.h">
<polygon fill="#ffffff" stroke="black" points="1032,-180 966,-180 966,-144 1032,-144 1032,-180"/>
<text text-anchor="middle" x="999" y="-158.3" font-family="Times,serif" font-size="14.00">atom.h</text>
</a>
</g>
</g>
<!-- 6 -->
<g id="node8" class="node">
<title>6</title>
<g id="a_node8"><a xlink:title="stdint.h">
<polygon fill="#ffffff" stroke="black" points="936,-36 864,-36 864,0 936,0 936,-36"/>
<text text-anchor="middle" x="900" y="-14.3" font-family="Times,serif" font-size="14.00">stdint.h</text>
</a>
</g>
</g>
<!-- 25&#45;&gt;6 -->
<g id="edge5" class="edge">
<title>25&#45;&gt;6</title>
<g id="a_edge5"><a xlink:title="include">
<path fill="none" stroke="#1414ce" d="M987.06,-143.87C969.81,-119.14 937.82,-73.24 917.79,-44.51"/>
<polygon fill="#1414ce" stroke="#1414ce" points="920.57,-42.39 911.98,-36.19 914.83,-46.39 920.57,-42.39"/>
</a>
</g>
</g>
<!-- 25&#45;&gt;8 -->
<g id="edge6" class="edge">
<title>25&#45;&gt;8</title>
<g id="a_edge6"><a xlink:title="include">
<path fill="none" stroke="#1414ce" d="M1032.02,-153.65C1046.42,-150.53 1063.52,-146.95 1079,-144 1174.53,-125.82 1286.99,-107.68 1348.36,-98.05"/>
<polygon fill="#1414ce" stroke="#1414ce" points="1349.14,-101.47 1358.48,-96.47 1348.06,-94.56 1349.14,-101.47"/>
</a>
</g>
</g>
<!-- 13 -->
<g id="node4" class="node">
<title>13</title>
<g id="a_node4"><a xlink:title="assert.h">
<polygon fill="#ffffff" stroke="black" points="1547,-36 1473,-36 1473,0 1547,0 1547,-36"/>
<text text-anchor="middle" x="1510" y="-14.3" font-family="Times,serif" font-size="14.00">assert.h</text>
</a>
</g>
</g>
<!-- 16 -->
<g id="node5" class="node">
<title>16</title>
<g id="a_node5"><a xlink:title="utils.h">
<polygon fill="#ffffff" stroke="black" points="1150,-180 1088,-180 1088,-144 1150,-144 1150,-180"/>
<text text-anchor="middle" x="1119" y="-158.3" font-family="Times,serif" font-size="14.00">utils.h</text>
</a>
</g>
</g>
<!-- 16&#45;&gt;8 -->
<g id="edge9" class="edge">
<title>16&#45;&gt;8</title>
<g id="a_edge9"><a xlink:title="include">
<path fill="none" stroke="#1414ce" d="M1150.01,-153.11C1198.41,-140.79 1292.16,-116.92 1348.31,-102.63"/>
<polygon fill="#1414ce" stroke="#1414ce" points="1349.51,-105.94 1358.34,-100.08 1347.78,-99.15 1349.51,-105.94"/>
</a>
</g>
</g>
<!-- 17 -->
<g id="node14" class="node">
<title>17</title>
<g id="a_node14"><a xlink:title="stddef.h">
<polygon fill="#ffffff" stroke="black" points="787,-108 713,-108 713,-72 787,-72 787,-108"/>
<text text-anchor="middle" x="750" y="-86.3" font-family="Times,serif" font-size="14.00">stddef.h</text>
</a>
</g>
</g>
<!-- 16&#45;&gt;17 -->
<g id="edge7" class="edge">
<title>16&#45;&gt;17</title>
<g id="a_edge7"><a xlink:title="include">
<path fill="none" stroke="#1414ce" d="M1087.93,-153.97C1073.66,-150.81 1056.49,-147.1 1041,-144 955.26,-126.85 854.83,-109.07 797.19,-99.08"/>
<polygon fill="#1414ce" stroke="#1414ce" points="797.74,-95.62 787.29,-97.37 796.54,-102.52 797.74,-95.62"/>
</a>
</g>
</g>
<!-- 7 -->
<g id="node29" class="node">
<title>7</title>
<g id="a_node29"><a xlink:title="stdio.h">
<polygon fill="#ffffff" stroke="black" points="1122.5,-108 1057.5,-108 1057.5,-72 1122.5,-72 1122.5,-108"/>
<text text-anchor="middle" x="1090" y="-86.3" font-family="Times,serif" font-size="14.00">stdio.h</text>
</a>
</g>
</g>
<!-- 16&#45;&gt;7 -->
<g id="edge8" class="edge">
<title>16&#45;&gt;7</title>
<g id="a_edge8"><a xlink:title="include">
<path fill="none" stroke="#1414ce" d="M1111.83,-143.7C1108.57,-135.81 1104.63,-126.3 1101,-117.55"/>
<polygon fill="#1414ce" stroke="#1414ce" points="1104.15,-116 1097.09,-108.1 1097.68,-118.68 1104.15,-116"/>
</a>
</g>
</g>
<!-- 21 -->
<g id="node6" class="node">
<title>21</title>
<g id="a_node6"><a xlink:title="synclist.h">
<polygon fill="#ffffff" stroke="black" points="751.5,-252 666.5,-252 666.5,-216 751.5,-216 751.5,-252"/>
<text text-anchor="middle" x="709" y="-230.3" font-family="Times,serif" font-size="14.00">synclist.h</text>
</a>
</g>
</g>
<!-- 21&#45;&gt;19 -->
<g id="edge11" class="edge">
<title>21&#45;&gt;19</title>
<g id="a_edge11"><a xlink:title="include">
<path fill="none" stroke="#1414ce" d="M666.22,-221.91C613.77,-208.31 525.76,-185.49 476.07,-172.61"/>
<polygon fill="#1414ce" stroke="#1414ce" points="476.93,-169.22 466.37,-170.1 475.17,-175.99 476.93,-169.22"/>
</a>
</g>
</g>
<!-- 22 -->
<g id="node25" class="node">
<title>22</title>
<g id="a_node25"><a xlink:title="smp.h">
<polygon fill="#ffffff" stroke="black" points="661,-180 601,-180 601,-144 661,-144 661,-180"/>
<text text-anchor="middle" x="631" y="-158.3" font-family="Times,serif" font-size="14.00">smp.h</text>
</a>
</g>
</g>
<!-- 21&#45;&gt;22 -->
<g id="edge12" class="edge">
<title>21&#45;&gt;22</title>
<g id="a_edge12"><a xlink:title="include">
<path fill="none" stroke="#1414ce" d="M689.72,-215.7C680.08,-207.05 668.27,-196.45 657.77,-187.03"/>
<polygon fill="#1414ce" stroke="#1414ce" points="659.84,-184.18 650.06,-180.1 655.16,-189.39 659.84,-184.18"/>
</a>
</g>
</g>
<!-- 21&#45;&gt;7 -->
<g id="edge10" class="edge">
<title>21&#45;&gt;7</title>
<g id="a_edge10"><a xlink:title="include">
<path fill="none" stroke="#1414ce" d="M751.6,-217.12C824.95,-189.79 974.26,-134.14 1047.52,-106.83"/>
<polygon fill="#1414ce" stroke="#1414ce" points="1049.19,-109.94 1057.34,-103.17 1046.75,-103.39 1049.19,-109.94"/>
</a>
</g>
</g>
<!-- 23 -->
<g id="node10" class="node">
<title>23</title>
<g id="a_node10"><a xlink:title="context.h">
<polygon fill="#ffffff" stroke="black" points="456.5,-612 373.5,-612 373.5,-576 456.5,-576 456.5,-612"/>
<text text-anchor="middle" x="415" y="-590.3" font-family="Times,serif" font-size="14.00">context.h</text>
</a>
</g>
</g>
<!-- 23&#45;&gt;19 -->
<g id="edge14" class="edge">
<title>23&#45;&gt;19</title>
<g id="a_edge14"><a xlink:title="include">
<path fill="none" stroke="#1414ce" d="M415.6,-575.7C417.52,-522.18 423.98,-354.57 434,-216 434.6,-207.67 435.4,-198.61 436.19,-190.38"/>
<polygon fill="#1414ce" stroke="#1414ce" points="439.7,-190.46 437.19,-180.17 432.73,-189.78 439.7,-190.46"/>
</a>
</g>
</g>
<!-- 3 -->
<g id="node13" class="node">
<title>3</title>
<g id="a_node13"><a xlink:title="term.h">
<polygon fill="#ffffff" stroke="black" points="1046.5,-468 981.5,-468 981.5,-432 1046.5,-432 1046.5,-468"/>
<text text-anchor="middle" x="1014" y="-446.3" font-family="Times,serif" font-size="14.00">term.h</text>
</a>
</g>
</g>
<!-- 23&#45;&gt;3 -->
<g id="edge17" class="edge">
<title>23&#45;&gt;3</title>
<g id="a_edge17"><a xlink:title="include">
<path fill="none" stroke="#1414ce" d="M456.71,-589.77C524.52,-583.87 662.51,-569.2 776,-540 814.06,-530.21 914.45,-490.93 971.96,-467.95"/>
<polygon fill="#1414ce" stroke="#1414ce" points="973.5,-471.1 981.48,-464.14 970.9,-464.61 973.5,-471.1"/>
</a>
</g>
</g>
<!-- 24 -->
<g id="node23" class="node">
<title>24</title>
<g id="a_node23"><a xlink:title="globalcontext.h">
<polygon fill="#ffffff" stroke="black" points="767.5,-540 640.5,-540 640.5,-504 767.5,-504 767.5,-540"/>
<text text-anchor="middle" x="704" y="-518.3" font-family="Times,serif" font-size="14.00">globalcontext.h</text>
</a>
</g>
</g>
<!-- 23&#45;&gt;24 -->
<g id="edge13" class="edge">
<title>23&#45;&gt;24</title>
<g id="a_edge13"><a xlink:title="include">
<path fill="none" stroke="#1414ce" d="M456.71,-582.9C502.04,-571.92 575.33,-554.16 630.38,-540.83"/>
<polygon fill="#1414ce" stroke="#1414ce" points="631.55,-544.15 640.44,-538.39 629.9,-537.35 631.55,-544.15"/>
</a>
</g>
</g>
<!-- 23&#45;&gt;22 -->
<g id="edge16" class="edge">
<title>23&#45;&gt;22</title>
<g id="a_edge16"><a xlink:title="include">
<path fill="none" stroke="#1414ce" d="M431.49,-575.77C453.84,-550.53 491,-501.05 491,-451 491,-451 491,-451 491,-377 491,-304.65 471.5,-273.81 515,-216 533.28,-191.71 565.31,-178.23 591.09,-170.95"/>
<polygon fill="#1414ce" stroke="#1414ce" points="592.18,-174.28 600.98,-168.37 590.42,-167.51 592.18,-174.28"/>
</a>
</g>
</g>
<!-- 28 -->
<g id="node27" class="node">
<title>28</title>
<g id="a_node27"><a xlink:title="timer_list.h">
<polygon fill="#ffffff" stroke="black" points="278,-252 180,-252 180,-216 278,-216 278,-252"/>
<text text-anchor="middle" x="229" y="-230.3" font-family="Times,serif" font-size="14.00">timer_list.h</text>
</a>
</g>
</g>
<!-- 23&#45;&gt;28 -->
<g id="edge18" class="edge">
<title>23&#45;&gt;28</title>
<g id="a_edge18"><a xlink:title="include">
<path fill="none" stroke="#1414ce" d="M373.14,-576.41C356.11,-567.81 337.53,-555.75 325,-540 256.84,-454.28 236.72,-319.54 231.08,-262.24"/>
<polygon fill="#1414ce" stroke="#1414ce" points="234.55,-261.81 230.16,-252.17 227.58,-262.44 234.55,-261.81"/>
</a>
</g>
</g>
<!-- 27 -->
<g id="node28" class="node">
<title>27</title>
<g id="a_node28"><a xlink:title="mailbox.h">
<polygon fill="#ffffff" stroke="black" points="610,-252 524,-252 524,-216 610,-216 610,-252"/>
<text text-anchor="middle" x="567" y="-230.3" font-family="Times,serif" font-size="14.00">mailbox.h</text>
</a>
</g>
</g>
<!-- 23&#45;&gt;27 -->
<g id="edge15" class="edge">
<title>23&#45;&gt;27</title>
<g id="a_edge15"><a xlink:title="include">
<path fill="none" stroke="#1414ce" d="M422.33,-575.73C446.86,-517.96 526.19,-331.13 555.75,-261.49"/>
<polygon fill="#1414ce" stroke="#1414ce" points="559.06,-262.67 559.74,-252.09 552.61,-259.93 559.06,-262.67"/>
</a>
</g>
</g>
<!-- 10 -->
<g id="node11" class="node">
<title>10</title>
<g id="a_node11"><a xlink:title="memory.h">
<polygon fill="#ffffff" stroke="black" points="1378,-252 1292,-252 1292,-216 1378,-216 1378,-252"/>
<text text-anchor="middle" x="1335" y="-230.3" font-family="Times,serif" font-size="14.00">memory.h</text>
</a>
</g>
</g>
<!-- 10&#45;&gt;16 -->
<g id="edge23" class="edge">
<title>10&#45;&gt;16</title>
<g id="a_edge23"><a xlink:title="include">
<path fill="none" stroke="#1414ce" d="M1291.81,-219C1253.38,-206.55 1197.59,-188.47 1159.88,-176.25"/>
<polygon fill="#1414ce" stroke="#1414ce" points="1160.82,-172.87 1150.23,-173.12 1158.67,-179.53 1160.82,-172.87"/>
</a>
</g>
</g>
<!-- 10&#45;&gt;6 -->
<g id="edge19" class="edge">
<title>10&#45;&gt;6</title>
<g id="a_edge19"><a xlink:title="include">
<path fill="none" stroke="#1414ce" d="M1329.25,-215.97C1316.93,-182.31 1284.57,-107.45 1230,-72 1183.95,-42.09 1025.64,-27.44 946.21,-21.83"/>
<polygon fill="#1414ce" stroke="#1414ce" points="946.22,-18.32 936.01,-21.13 945.74,-25.31 946.22,-18.32"/>
</a>
</g>
</g>
<!-- 10&#45;&gt;8 -->
<g id="edge20" class="edge">
<title>10&#45;&gt;8</title>
<g id="a_edge20"><a xlink:title="include">
<path fill="none" stroke="#1414ce" d="M1342.12,-215.87C1352.26,-191.46 1370.97,-146.43 1382.93,-117.64"/>
<polygon fill="#1414ce" stroke="#1414ce" points="1386.25,-118.77 1386.86,-108.19 1379.79,-116.08 1386.25,-118.77"/>
</a>
</g>
</g>
<!-- 11 -->
<g id="node15" class="node">
<title>11</title>
<g id="a_node15"><a xlink:title="erl_nif.h">
<polygon fill="#ffffff" stroke="black" points="1584,-180 1510,-180 1510,-144 1584,-144 1584,-180"/>
<text text-anchor="middle" x="1547" y="-158.3" font-family="Times,serif" font-size="14.00">erl_nif.h</text>
</a>
</g>
</g>
<!-- 10&#45;&gt;11 -->
<g id="edge21" class="edge">
<title>10&#45;&gt;11</title>
<g id="a_edge21"><a xlink:title="include">
<path fill="none" stroke="#1414ce" d="M1378.16,-218.75C1413.57,-207.06 1463.63,-190.53 1500.04,-178.51"/>
<polygon fill="#1414ce" stroke="#1414ce" points="1501.52,-181.7 1509.92,-175.24 1499.33,-175.06 1501.52,-181.7"/>
</a>
</g>
</g>
<!-- 12 -->
<g id="node22" class="node">
<title>12</title>
<g id="a_node22"><a xlink:title="term_typedef.h">
<polygon fill="#ffffff" stroke="black" points="1572.5,-108 1447.5,-108 1447.5,-72 1572.5,-72 1572.5,-108"/>
<text text-anchor="middle" x="1510" y="-86.3" font-family="Times,serif" font-size="14.00">term_typedef.h</text>
</a>
</g>
</g>
<!-- 10&#45;&gt;12 -->
<g id="edge22" class="edge">
<title>10&#45;&gt;12</title>
<g id="a_edge22"><a xlink:title="include">
<path fill="none" stroke="#1414ce" d="M1356.11,-215.87C1387.25,-190.6 1445.6,-143.25 1480.82,-114.68"/>
<polygon fill="#1414ce" stroke="#1414ce" points="1483.26,-117.21 1488.82,-108.19 1478.85,-111.77 1483.26,-117.21"/>
</a>
</g>
</g>
<!-- 20&#45;&gt;21 -->
<g id="edge28" class="edge">
<title>20&#45;&gt;21</title>
<g id="a_edge28"><a xlink:title="include">
<path fill="none" stroke="#1414ce" d="M1147.8,-299.22C1072.04,-290.31 924.05,-272.1 799,-252 786.98,-250.07 774.1,-247.77 761.95,-245.5"/>
<polygon fill="#1414ce" stroke="#1414ce" points="762.42,-242.03 751.95,-243.61 761.12,-248.91 762.42,-242.03"/>
</a>
</g>
</g>
<!-- 20&#45;&gt;19 -->
<g id="edge26" class="edge">
<title>20&#45;&gt;19</title>
<g id="a_edge26"><a xlink:title="include">
<path fill="none" stroke="#1414ce" d="M1147.82,-303.32C999.66,-298.05 570.98,-280.49 515,-252 487.87,-238.19 466.46,-210.06 453.37,-189.1"/>
<polygon fill="#1414ce" stroke="#1414ce" points="456.26,-187.11 448.12,-180.34 450.26,-190.72 456.26,-187.11"/>
</a>
</g>
</g>
<!-- 20&#45;&gt;8 -->
<g id="edge24" class="edge">
<title>20&#45;&gt;8</title>
<g id="a_edge24"><a xlink:title="include">
<path fill="none" stroke="#1414ce" d="M1213.71,-287.85C1248.26,-250.13 1330.96,-159.83 1371.22,-115.88"/>
<polygon fill="#1414ce" stroke="#1414ce" points="1374.04,-117.97 1378.22,-108.23 1368.88,-113.24 1374.04,-117.97"/>
</a>
</g>
</g>
<!-- 20&#45;&gt;10 -->
<g id="edge27" class="edge">
<title>20&#45;&gt;10</title>
<g id="a_edge27"><a xlink:title="include">
<path fill="none" stroke="#1414ce" d="M1231.51,-287.88C1249.84,-278.51 1272.74,-266.81 1292.33,-256.8"/>
<polygon fill="#1414ce" stroke="#1414ce" points="1294.04,-259.86 1301.36,-252.19 1290.86,-253.62 1294.04,-259.86"/>
</a>
</g>
</g>
<!-- 20&#45;&gt;11 -->
<g id="edge25" class="edge">
<title>20&#45;&gt;11</title>
<g id="a_edge25"><a xlink:title="include">
<path fill="none" stroke="#1414ce" d="M1248.01,-294.36C1286.74,-285.32 1341.31,-270.81 1387,-252 1431.94,-233.5 1480.28,-205.35 1511.92,-185.67"/>
<polygon fill="#1414ce" stroke="#1414ce" points="1514.17,-188.39 1520.78,-180.11 1510.45,-182.46 1514.17,-188.39"/>
</a>
</g>
</g>
<!-- 3&#45;&gt;5 -->
<g id="edge30" class="edge">
<title>3&#45;&gt;5</title>
<g id="a_edge30"><a xlink:title="include">
<path fill="none" stroke="#1414ce" d="M981.46,-444.6C917.17,-433.9 780,-400.14 780,-307 780,-307 780,-307 780,-233 780,-155.59 681.39,-117.78 618.36,-101.52"/>
<polygon fill="#1414ce" stroke="#1414ce" points="619.12,-98.1 608.57,-99.09 617.44,-104.9 619.12,-98.1"/>
</a>
</g>
</g>
<!-- 3&#45;&gt;18 -->
<g id="edge36" class="edge">
<title>3&#45;&gt;18</title>
<g id="a_edge36"><a xlink:title="include">
<path fill="none" stroke="#1414ce" d="M1046.56,-439.92C1085.52,-429.05 1151.68,-410.6 1201.01,-396.85"/>
<polygon fill="#1414ce" stroke="#1414ce" points="1202.26,-400.13 1210.95,-394.07 1200.38,-393.39 1202.26,-400.13"/>
</a>
</g>
</g>
<!-- 3&#45;&gt;16 -->
<g id="edge37" class="edge">
<title>3&#45;&gt;16</title>
<g id="a_edge37"><a xlink:title="include">
<path fill="none" stroke="#1414ce" d="M1005.13,-431.99C996.89,-413.87 987,-384.48 995,-360 1013.47,-303.47 1042.92,-302.71 1074,-252 1086.44,-231.7 1098.5,-207.52 1107,-189.5"/>
<polygon fill="#1414ce" stroke="#1414ce" points="1110.29,-190.72 1111.34,-180.18 1103.95,-187.77 1110.29,-190.72"/>
</a>
</g>
</g>
<!-- 3&#45;&gt;6 -->
<g id="edge31" class="edge">
<title>3&#45;&gt;6</title>
<g id="a_edge31"><a xlink:title="include">
<path fill="none" stroke="#1414ce" d="M1046.56,-448.58C1119.45,-446.88 1292.17,-438.38 1328,-396 1338.33,-383.78 1332.73,-375.29 1328,-360 1305.09,-285.92 1195.08,-115.67 1131,-72 1075.13,-33.93 995.82,-22.89 946.17,-19.87"/>
<polygon fill="#1414ce" stroke="#1414ce" points="946.21,-16.37 936.04,-19.34 945.85,-23.36 946.21,-16.37"/>
</a>
</g>
</g>
<!-- 3&#45;&gt;8 -->
<g id="edge33" class="edge">
<title>3&#45;&gt;8</title>
<g id="a_edge33"><a xlink:title="include">
<path fill="none" stroke="#1414ce" d="M1046.75,-449.05C1127.99,-448.45 1335.63,-442.32 1383,-396 1463.77,-317.03 1438.08,-254.78 1416,-144 1414.21,-135.01 1410.86,-125.64 1407.31,-117.32"/>
<polygon fill="#1414ce" stroke="#1414ce" points="1410.46,-115.77 1403.13,-108.12 1404.08,-118.67 1410.46,-115.77"/>
</a>
</g>
</g>
<!-- 3&#45;&gt;10 -->
<g id="edge35" class="edge">
<title>3&#45;&gt;10</title>
<g id="a_edge35"><a xlink:title="include">
<path fill="none" stroke="#1414ce" d="M1046.7,-449.16C1125.16,-448.78 1320.6,-443.04 1361,-396 1393.38,-358.3 1369.14,-296.63 1350.7,-261.57"/>
<polygon fill="#1414ce" stroke="#1414ce" points="1353.57,-259.52 1345.7,-252.42 1347.43,-262.88 1353.57,-259.52"/>
</a>
</g>
</g>
<!-- 4 -->
<g id="node20" class="node">
<title>4</title>
<g id="a_node20"><a xlink:title="sys/types.h">
<polygon fill="#ffffff" stroke="black" points="1101.5,-396 1004.5,-396 1004.5,-360 1101.5,-360 1101.5,-396"/>
<text text-anchor="middle" x="1053" y="-374.3" font-family="Times,serif" font-size="14.00">sys/types.h</text>
</a>
</g>
</g>
<!-- 3&#45;&gt;4 -->
<g id="edge29" class="edge">
<title>3&#45;&gt;4</title>
<g id="a_edge29"><a xlink:title="include">
<path fill="none" stroke="#1414ce" d="M1023.64,-431.7C1028.13,-423.64 1033.56,-413.89 1038.52,-404.98"/>
<polygon fill="#1414ce" stroke="#1414ce" points="1041.66,-406.54 1043.47,-396.1 1035.55,-403.14 1041.66,-406.54"/>
</a>
</g>
</g>
<!-- 9 -->
<g id="node21" class="node">
<title>9</title>
<g id="a_node21"><a xlink:title="string.h">
<polygon fill="#ffffff" stroke="black" points="1192.5,-396 1119.5,-396 1119.5,-360 1192.5,-360 1192.5,-396"/>
<text text-anchor="middle" x="1156" y="-374.3" font-family="Times,serif" font-size="14.00">string.h</text>
</a>
</g>
</g>
<!-- 3&#45;&gt;9 -->
<g id="edge34" class="edge">
<title>3&#45;&gt;9</title>
<g id="a_edge34"><a xlink:title="include">
<path fill="none" stroke="#1414ce" d="M1046.58,-432.94C1065.98,-423.38 1090.86,-411.11 1111.99,-400.7"/>
<polygon fill="#1414ce" stroke="#1414ce" points="1113.67,-403.77 1121.09,-396.21 1110.58,-397.49 1113.67,-403.77"/>
</a>
</g>
</g>
<!-- 3&#45;&gt;12 -->
<g id="edge38" class="edge">
<title>3&#45;&gt;12</title>
<g id="a_edge38"><a xlink:title="include">
<path fill="none" stroke="#1414ce" d="M1046.5,-447.7C1130.02,-443.9 1349.98,-430.76 1413,-396 1522.42,-335.64 1550.46,-297.5 1593,-180 1598.45,-164.96 1600.69,-158.03 1593,-144 1586.06,-131.33 1574.66,-121.25 1562.5,-113.43"/>
<polygon fill="#1414ce" stroke="#1414ce" points="1563.95,-110.22 1553.56,-108.13 1560.38,-116.24 1563.95,-110.22"/>
</a>
</g>
</g>
<!-- 3&#45;&gt;7 -->
<g id="edge32" class="edge">
<title>3&#45;&gt;7</title>
<g id="a_edge32"><a xlink:title="include">
<path fill="none" stroke="#1414ce" d="M1003.37,-431.56C997.9,-421.54 991.8,-408.51 989,-396 985.5,-380.39 986.84,-375.85 989,-360 993.49,-327.09 994.34,-317.8 1009,-288 1017.83,-270.05 1026.7,-269.71 1036,-252 1059.38,-207.49 1075.57,-150.83 1083.78,-117.96"/>
<polygon fill="#1414ce" stroke="#1414ce" points="1087.2,-118.72 1086.16,-108.17 1080.4,-117.06 1087.2,-118.72"/>
</a>
</g>
</g>
<!-- 11&#45;&gt;12 -->
<g id="edge39" class="edge">
<title>11&#45;&gt;12</title>
<g id="a_edge39"><a xlink:title="include">
<path fill="none" stroke="#1414ce" d="M1537.85,-143.7C1533.6,-135.64 1528.44,-125.89 1523.73,-116.98"/>
<polygon fill="#1414ce" stroke="#1414ce" points="1526.81,-115.31 1519.04,-108.1 1520.62,-118.58 1526.81,-115.31"/>
</a>
</g>
</g>
<!-- 14 -->
<g id="node16" class="node">
<title>14</title>
<g id="a_node16"><a xlink:title="limits.h">
<polygon fill="#ffffff" stroke="black" points="1636.5,-36 1565.5,-36 1565.5,0 1636.5,0 1636.5,-36"/>
<text text-anchor="middle" x="1601" y="-14.3" font-family="Times,serif" font-size="14.00">limits.h</text>
</a>
</g>
</g>
<!-- 1 -->
<g id="node17" class="node">
<title>1</title>
<g id="a_node17"><a xlink:title="/__w/AtomVM/AtomVM/src/libAtomVM/externalterm.c">
<polygon fill="#bfbfbf" stroke="black" points="538.5,-684 139.5,-684 139.5,-648 538.5,-648 538.5,-684"/>
<text text-anchor="middle" x="339" y="-662.3" font-family="Times,serif" font-size="14.00">/__w/AtomVM/AtomVM/src/libAtomVM/externalterm.c</text>
</a>
</g>
</g>
<!-- 1&#45;&gt;5 -->
<g id="edge43" class="edge">
<title>1&#45;&gt;5</title>
<g id="a_edge43"><a xlink:title="include">
<path fill="none" stroke="#1414ce" d="M222.88,-647.95C152.42,-630.28 76,-594.61 76,-523 76,-523 76,-523 76,-233 76,-175.14 118.73,-168.8 171,-144 230.95,-115.56 422.48,-100.03 515.43,-93.99"/>
<polygon fill="#1414ce" stroke="#1414ce" points="515.7,-97.48 525.45,-93.35 515.25,-90.5 515.7,-97.48"/>
</a>
</g>
</g>
<!-- 1&#45;&gt;16 -->
<g id="edge49" class="edge">
<title>1&#45;&gt;16</title>
<g id="a_edge49"><a xlink:title="include">
<path fill="none" stroke="#1414ce" d="M538.62,-659.65C861.12,-648.32 1461,-614.88 1461,-523 1461,-523 1461,-523 1461,-449 1461,-408.92 1237.1,-246.46 1151.62,-185.9"/>
<polygon fill="#1414ce" stroke="#1414ce" points="1153.51,-182.95 1143.32,-180.03 1149.47,-188.66 1153.51,-182.95"/>
</a>
</g>
</g>
<!-- 1&#45;&gt;19 -->
<g id="edge42" class="edge">
<title>1&#45;&gt;19</title>
<g id="a_edge42"><a xlink:title="include">
<path fill="none" stroke="#1414ce" d="M322.51,-647.77C300.16,-622.53 263,-573.05 263,-523 263,-523 263,-523 263,-449 263,-337.21 361.73,-232.44 411.3,-186.88"/>
<polygon fill="#1414ce" stroke="#1414ce" points="413.74,-189.39 418.81,-180.09 409.05,-184.2 413.74,-189.39"/>
</a>
</g>
</g>
<!-- 1&#45;&gt;6 -->
<g id="edge44" class="edge">
<title>1&#45;&gt;6</title>
<g id="a_edge44"><a xlink:title="include">
<path fill="none" stroke="#1414ce" d="M139.35,-648.95C65.76,-631.06 0,-594.94 0,-523 0,-523 0,-523 0,-161 0,-93.52 59.55,-94.96 123,-72 258.51,-22.96 707.08,-18.84 853.4,-18.84"/>
<polygon fill="#1414ce" stroke="#1414ce" points="853.81,-22.34 863.81,-18.84 853.81,-15.34 853.81,-22.34"/>
</a>
</g>
</g>
<!-- 1&#45;&gt;8 -->
<g id="edge46" class="edge">
<title>1&#45;&gt;8</title>
<g id="a_edge46"><a xlink:title="include">
<path fill="none" stroke="#1414ce" d="M538.67,-664.34C806.1,-661.89 1265.88,-651.8 1429,-612 1517.25,-590.47 1613,-613.84 1613,-523 1613,-523 1613,-523 1613,-305 1613,-232.89 1641.21,-197.62 1593,-144 1548.02,-93.98 1509.67,-125.47 1439.38,-107.68"/>
<polygon fill="#1414ce" stroke="#1414ce" points="1440.29,-104.3 1429.71,-104.98 1438.4,-111.04 1440.29,-104.3"/>
</a>
</g>
</g>
<!-- 1&#45;&gt;23 -->
<g id="edge41" class="edge">
<title>1&#45;&gt;23</title>
<g id="a_edge41"><a xlink:title="include">
<path fill="none" stroke="#1414ce" d="M357.79,-647.7C367.17,-639.05 378.68,-628.45 388.91,-619.03"/>
<polygon fill="#1414ce" stroke="#1414ce" points="391.45,-621.45 396.43,-612.1 386.7,-616.3 391.45,-621.45"/>
</a>
</g>
</g>
<!-- 2 -->
<g id="node19" class="node">
<title>2</title>
<g id="a_node19"><a xlink:title="externalterm.h">
<polygon fill="#ffffff" stroke="black" points="822,-612 698,-612 698,-576 822,-576 822,-612"/>
<text text-anchor="middle" x="760" y="-590.3" font-family="Times,serif" font-size="14.00">externalterm.h</text>
</a>
</g>
</g>
<!-- 1&#45;&gt;2 -->
<g id="edge40" class="edge">
<title>1&#45;&gt;2</title>
<g id="a_edge40"><a xlink:title="include">
<path fill="none" stroke="#1414ce" d="M441.45,-647.97C517.62,-635.3 619.68,-618.33 687.52,-607.05"/>
<polygon fill="#1414ce" stroke="#1414ce" points="688.4,-610.45 697.7,-605.36 687.26,-603.55 688.4,-610.45"/>
</a>
</g>
</g>
<!-- 29 -->
<g id="node24" class="node">
<title>29</title>
<g id="a_node24"><a xlink:title="bitstring.h">
<polygon fill="#ffffff" stroke="black" points="196,-540 104,-540 104,-504 196,-504 196,-540"/>
<text text-anchor="middle" x="150" y="-518.3" font-family="Times,serif" font-size="14.00">bitstring.h</text>
</a>
</g>
</g>
<!-- 1&#45;&gt;29 -->
<g id="edge47" class="edge">
<title>1&#45;&gt;29</title>
<g id="a_edge47"><a xlink:title="include">
<path fill="none" stroke="#1414ce" d="M277.22,-647.96C254.47,-639.64 229.52,-627.91 210,-612 189.14,-595.01 172.73,-568.87 162.38,-549.31"/>
<polygon fill="#1414ce" stroke="#1414ce" points="165.45,-547.63 157.79,-540.31 159.21,-550.81 165.45,-547.63"/>
</a>
</g>
</g>
<!-- 30 -->
<g id="node26" class="node">
<title>30</title>
<g id="a_node26"><a xlink:title="unicode.h">
<polygon fill="#ffffff" stroke="black" points="356,-180 270,-180 270,-144 356,-144 356,-180"/>
<text text-anchor="middle" x="313" y="-158.3" font-family="Times,serif" font-size="14.00">unicode.h</text>
</a>
</g>
</g>
<!-- 1&#45;&gt;30 -->
<g id="edge48" class="edge">
<title>1&#45;&gt;30</title>
<g id="a_edge48"><a xlink:title="include">
<path fill="none" stroke="#1414ce" d="M294.11,-647.78C277.63,-639.34 260.26,-627.58 249,-612 201.04,-545.66 179.72,-333.39 171,-252 169.3,-236.09 161.88,-229.14 171,-216 181.66,-200.64 224.26,-186 260.04,-176.01"/>
<polygon fill="#1414ce" stroke="#1414ce" points="261.19,-179.32 269.92,-173.32 259.35,-172.57 261.19,-179.32"/>
</a>
</g>
</g>
<!-- 1&#45;&gt;7 -->
<g id="edge45" class="edge">
<title>1&#45;&gt;7</title>
<g id="a_edge45"><a xlink:title="include">
<path fill="none" stroke="#1414ce" d="M538.61,-662.11C888.32,-654.36 1575,-626.04 1575,-523 1575,-523 1575,-523 1575,-449 1575,-292.45 1407.15,-347.37 1283,-252 1225.04,-207.48 1215.56,-190.28 1159,-144 1146.75,-133.97 1132.96,-123.27 1120.95,-114.13"/>
<polygon fill="#1414ce" stroke="#1414ce" points="1123.05,-111.33 1112.96,-108.08 1118.82,-116.91 1123.05,-111.33"/>
</a>
</g>
</g>
<!-- 26 -->
<g id="node18" class="node">
<title>26</title>
<g id="a_node18"><a xlink:title="atom_table.h">
<polygon fill="#ffffff" stroke="black" points="917.5,-252 808.5,-252 808.5,-216 917.5,-216 917.5,-252"/>
<text text-anchor="middle" x="863" y="-230.3" font-family="Times,serif" font-size="14.00">atom_table.h</text>
</a>
</g>
</g>
<!-- 26&#45;&gt;5 -->
<g id="edge50" class="edge">
<title>26&#45;&gt;5</title>
<g id="a_edge50"><a xlink:title="include">
<path fill="none" stroke="#1414ce" d="M854.34,-215.69C843.22,-195.3 821.98,-161.95 794,-144 765.4,-125.65 676.65,-108.57 618.97,-98.99"/>
<polygon fill="#1414ce" stroke="#1414ce" points="619.37,-95.51 608.94,-97.35 618.24,-102.42 619.37,-95.51"/>
</a>
</g>
</g>
<!-- 26&#45;&gt;25 -->
<g id="edge51" class="edge">
<title>26&#45;&gt;25</title>
<g id="a_edge51"><a xlink:title="include">
<path fill="none" stroke="#1414ce" d="M896.27,-215.88C914.46,-206.51 937.19,-194.81 956.64,-184.8"/>
<polygon fill="#1414ce" stroke="#1414ce" points="958.31,-187.88 965.6,-180.19 955.11,-181.65 958.31,-187.88"/>
</a>
</g>
</g>
<!-- 2&#45;&gt;3 -->
<g id="edge52" class="edge">
<title>2&#45;&gt;3</title>
<g id="a_edge52"><a xlink:title="include">
<path fill="none" stroke="#1414ce" d="M806.47,-575.9C830.47,-566.43 859.9,-553.79 885,-540 920.56,-520.46 958.47,-493.48 983.92,-474.36"/>
<polygon fill="#1414ce" stroke="#1414ce" points="986.2,-477.03 992.06,-468.2 981.97,-471.45 986.2,-477.03"/>
</a>
</g>
</g>
<!-- 12&#45;&gt;13 -->
<g id="edge53" class="edge">
<title>12&#45;&gt;13</title>
<g id="a_edge53"><a xlink:title="include">
<path fill="none" stroke="#1414ce" d="M1510,-71.7C1510,-63.98 1510,-54.71 1510,-46.11"/>
<polygon fill="#1414ce" stroke="#1414ce" points="1513.5,-46.1 1510,-36.1 1506.5,-46.1 1513.5,-46.1"/>
</a>
</g>
</g>
<!-- 12&#45;&gt;6 -->
<g id="edge56" class="edge">
<title>12&#45;&gt;6</title>
<g id="a_edge56"><a xlink:title="include">
<path fill="none" stroke="#1414ce" d="M1447.38,-73.51C1444.55,-72.97 1441.75,-72.46 1439,-72 1258.2,-41.61 1040.13,-26.77 946.45,-21.42"/>
<polygon fill="#1414ce" stroke="#1414ce" points="946.36,-17.91 936.18,-20.84 945.97,-24.9 946.36,-17.91"/>
</a>
</g>
</g>
<!-- 12&#45;&gt;14 -->
<g id="edge54" class="edge">
<title>12&#45;&gt;14</title>
<g id="a_edge54"><a xlink:title="include">
<path fill="none" stroke="#1414ce" d="M1532.49,-71.7C1543.96,-62.88 1558.06,-52.03 1570.48,-42.47"/>
<polygon fill="#1414ce" stroke="#1414ce" points="1572.97,-44.98 1578.76,-36.1 1568.7,-39.43 1572.97,-44.98"/>
</a>
</g>
</g>
<!-- 15 -->
<g id="node30" class="node">
<title>15</title>
<g id="a_node30"><a xlink:title="inttypes.h">
<polygon fill="#ffffff" stroke="black" points="1454.5,-36 1365.5,-36 1365.5,0 1454.5,0 1454.5,-36"/>
<text text-anchor="middle" x="1410" y="-14.3" font-family="Times,serif" font-size="14.00">inttypes.h</text>
</a>
</g>
</g>
<!-- 12&#45;&gt;15 -->
<g id="edge55" class="edge">
<title>12&#45;&gt;15</title>
<g id="a_edge55"><a xlink:title="include">
<path fill="none" stroke="#1414ce" d="M1485.54,-71.88C1472.7,-62.89 1456.8,-51.76 1442.91,-42.03"/>
<polygon fill="#1414ce" stroke="#1414ce" points="1444.76,-39.06 1434.56,-36.19 1440.74,-44.79 1444.76,-39.06"/>
</a>
</g>
</g>
<!-- 24&#45;&gt;25 -->
<g id="edge58" class="edge">
<title>24&#45;&gt;25</title>
<g id="a_edge58"><a xlink:title="include">
<path fill="none" stroke="#1414ce" d="M767.8,-504.2C813.21,-491.76 867.63,-475.69 876,-468 959.7,-391.08 987.61,-249.31 995.88,-190.1"/>
<polygon fill="#1414ce" stroke="#1414ce" points="999.37,-190.41 997.2,-180.04 992.43,-189.49 999.37,-190.41"/>
</a>
</g>
</g>
<!-- 24&#45;&gt;21 -->
<g id="edge64" class="edge">
<title>24&#45;&gt;21</title>
<g id="a_edge64"><a xlink:title="include">
<path fill="none" stroke="#1414ce" d="M704.3,-503.97C705.13,-456.29 707.49,-321.18 708.52,-262.63"/>
<polygon fill="#1414ce" stroke="#1414ce" points="712.02,-262.37 708.7,-252.31 705.02,-262.24 712.02,-262.37"/>
</a>
</g>
</g>
<!-- 24&#45;&gt;19 -->
<g id="edge61" class="edge">
<title>24&#45;&gt;19</title>
<g id="a_edge61"><a xlink:title="include">
<path fill="none" stroke="#1414ce" d="M663.36,-503.95C644.68,-494.93 622.97,-482.68 606,-468 515.43,-389.68 486.5,-364.31 445,-252 437.72,-232.3 436.47,-208.49 436.9,-190.46"/>
<polygon fill="#1414ce" stroke="#1414ce" points="440.41,-190.47 437.34,-180.33 433.41,-190.17 440.41,-190.47"/>
</a>
</g>
</g>
<!-- 24&#45;&gt;6 -->
<g id="edge57" class="edge">
<title>24&#45;&gt;6</title>
<g id="a_edge57"><a xlink:title="include">
<path fill="none" stroke="#1414ce" d="M726.3,-503.88C774.44,-465.3 886.89,-365.98 926,-252 950.57,-180.39 925.71,-89.83 910.28,-45.67"/>
<polygon fill="#1414ce" stroke="#1414ce" points="913.56,-44.44 906.87,-36.22 906.97,-46.82 913.56,-44.44"/>
</a>
</g>
</g>
<!-- 24&#45;&gt;3 -->
<g id="edge65" class="edge">
<title>24&#45;&gt;3</title>
<g id="a_edge65"><a xlink:title="include">
<path fill="none" stroke="#1414ce" d="M767.86,-506.58C828.67,-492.85 918.52,-472.56 971.18,-460.67"/>
<polygon fill="#1414ce" stroke="#1414ce" points="972.21,-464.02 981.19,-458.41 970.67,-457.2 972.21,-464.02"/>
</a>
</g>
</g>
<!-- 24&#45;&gt;11 -->
<g id="edge60" class="edge">
<title>24&#45;&gt;11</title>
<g id="a_edge60"><a xlink:title="include">
<path fill="none" stroke="#1414ce" d="M767.64,-516.87C962.36,-503.38 1537,-456.98 1537,-379 1537,-379 1537,-379 1537,-305 1537,-264.9 1541.02,-218.58 1543.96,-190.04"/>
<polygon fill="#1414ce" stroke="#1414ce" points="1547.45,-190.34 1545.02,-180.02 1540.49,-189.6 1547.45,-190.34"/>
</a>
</g>
</g>
<!-- 24&#45;&gt;26 -->
<g id="edge59" class="edge">
<title>24&#45;&gt;26</title>
<g id="a_edge59"><a xlink:title="include">
<path fill="none" stroke="#1414ce" d="M713.47,-503.97C740.2,-455.89 816.34,-318.93 848.44,-261.19"/>
<polygon fill="#1414ce" stroke="#1414ce" points="851.58,-262.75 853.38,-252.31 845.46,-259.35 851.58,-262.75"/>
</a>
</g>
</g>
<!-- 24&#45;&gt;22 -->
<g id="edge63" class="edge">
<title>24&#45;&gt;22</title>
<g id="a_edge63"><a xlink:title="include">
<path fill="none" stroke="#1414ce" d="M700.48,-503.73C688.72,-446.08 650.76,-259.89 636.49,-189.92"/>
<polygon fill="#1414ce" stroke="#1414ce" points="639.91,-189.19 634.49,-180.09 633.05,-190.59 639.91,-189.19"/>
</a>
</g>
</g>
<!-- 24&#45;&gt;28 -->
<g id="edge66" class="edge">
<title>24&#45;&gt;28</title>
<g id="a_edge66"><a xlink:title="include">
<path fill="none" stroke="#1414ce" d="M640.27,-508C602.85,-499.18 555.17,-485.86 515,-468 400.8,-417.23 294.53,-308.48 250.45,-259.64"/>
<polygon fill="#1414ce" stroke="#1414ce" points="252.95,-257.18 243.67,-252.06 247.73,-261.85 252.95,-257.18"/>
</a>
</g>
</g>
<!-- 24&#45;&gt;27 -->
<g id="edge62" class="edge">
<title>24&#45;&gt;27</title>
<g id="a_edge62"><a xlink:title="include">
<path fill="none" stroke="#1414ce" d="M669.95,-503.94C655.39,-495.06 639.38,-482.92 629,-468 584.18,-403.58 571.76,-308.56 568.32,-262.3"/>
<polygon fill="#1414ce" stroke="#1414ce" points="571.8,-261.91 567.65,-252.16 564.81,-262.37 571.8,-261.91"/>
</a>
</g>
</g>
<!-- 29&#45;&gt;5 -->
<g id="edge68" class="edge">
<title>29&#45;&gt;5</title>
<g id="a_edge68"><a xlink:title="include">
<path fill="none" stroke="#1414ce" d="M142.71,-503.87C132.2,-477.53 114,-425.29 114,-379 114,-379 114,-379 114,-305 114,-264.03 113.13,-248.56 138,-216 176.45,-165.66 201.51,-165.75 261,-144 346.8,-112.63 453.08,-99.57 515.14,-94.32"/>
<polygon fill="#1414ce" stroke="#1414ce" points="515.77,-97.78 525.45,-93.49 515.2,-90.8 515.77,-97.78"/>
</a>
</g>
</g>
<!-- 29&#45;&gt;6 -->
<g id="edge69" class="edge">
<title>29&#45;&gt;6</title>
<g id="a_edge69"><a xlink:title="include">
<path fill="none" stroke="#1414ce" d="M123.46,-503.85C90.34,-480.13 38,-433.95 38,-379 38,-379 38,-379 38,-161 38,-131.67 -51.56,-139.95 300,-72 503.78,-32.61 752.23,-22.44 853.6,-19.86"/>
<polygon fill="#1414ce" stroke="#1414ce" points="853.89,-23.35 863.8,-19.61 853.72,-16.36 853.89,-23.35"/>
</a>
</g>
</g>
<!-- 29&#45;&gt;3 -->
<g id="edge67" class="edge">
<title>29&#45;&gt;3</title>
<g id="a_edge67"><a xlink:title="include">
<path fill="none" stroke="#1414ce" d="M196.15,-517.26C347.11,-505.03 824.92,-466.32 971.1,-454.48"/>
<polygon fill="#1414ce" stroke="#1414ce" points="971.75,-457.93 981.44,-453.64 971.19,-450.96 971.75,-457.93"/>
</a>
</g>
</g>
<!-- 22&#45;&gt;5 -->
<g id="edge70" class="edge">
<title>22&#45;&gt;5</title>
<g id="a_edge70"><a xlink:title="include">
<path fill="none" stroke="#1414ce" d="M615.18,-143.7C607.43,-135.22 597.96,-124.86 589.48,-115.58"/>
<polygon fill="#1414ce" stroke="#1414ce" points="591.97,-113.12 582.64,-108.1 586.8,-117.85 591.97,-113.12"/>
</a>
</g>
</g>
<!-- 30&#45;&gt;5 -->
<g id="edge71" class="edge">
<title>30&#45;&gt;5</title>
<g id="a_edge71"><a xlink:title="include">
<path fill="none" stroke="#1414ce" d="M356.22,-147.97C360.87,-146.62 365.53,-145.27 370,-144 419.32,-130.01 475.84,-114.9 515.65,-104.41"/>
<polygon fill="#1414ce" stroke="#1414ce" points="516.62,-107.77 525.4,-101.84 514.84,-101 516.62,-107.77"/>
</a>
</g>
</g>
<!-- 30&#45;&gt;6 -->
<g id="edge73" class="edge">
<title>30&#45;&gt;6</title>
<g id="a_edge73"><a xlink:title="include">
<path fill="none" stroke="#1414ce" d="M344.33,-143.99C383.37,-123.58 452.67,-89.88 516,-72 634.83,-38.45 780.58,-25.77 853.62,-21.27"/>
<polygon fill="#1414ce" stroke="#1414ce" points="854.08,-24.75 863.85,-20.67 853.67,-17.76 854.08,-24.75"/>
</a>
</g>
</g>
<!-- 30&#45;&gt;17 -->
<g id="edge72" class="edge">
<title>30&#45;&gt;17</title>
<g id="a_edge72"><a xlink:title="include">
<path fill="none" stroke="#1414ce" d="M356.43,-152.48C371.19,-149.67 387.8,-146.6 403,-144 509.92,-125.74 635.89,-107.25 702.75,-97.68"/>
<polygon fill="#1414ce" stroke="#1414ce" points="703.55,-101.1 712.96,-96.22 702.56,-94.17 703.55,-101.1"/>
</a>
</g>
</g>
<!-- 28&#45;&gt;5 -->
<g id="edge74" class="edge">
<title>28&#45;&gt;5</title>
<g id="a_edge74"><a xlink:title="include">
<path fill="none" stroke="#1414ce" d="M278.05,-219C304.93,-210.1 338.14,-197.03 365,-180 384.65,-167.54 382.99,-155.87 403,-144 437.87,-123.31 481.76,-109.68 515.36,-101.43"/>
<polygon fill="#1414ce" stroke="#1414ce" points="516.52,-104.75 525.44,-99.03 514.9,-97.94 516.52,-104.75"/>
</a>
</g>
</g>
<!-- 28&#45;&gt;19 -->
<g id="edge76" class="edge">
<title>28&#45;&gt;19</title>
<g id="a_edge76"><a xlink:title="include">
<path fill="none" stroke="#1414ce" d="M278.2,-218.83C312.12,-208.76 358.12,-194.49 398,-180 399.4,-179.49 400.83,-178.96 402.27,-178.42"/>
<polygon fill="#1414ce" stroke="#1414ce" points="403.75,-181.59 411.79,-174.68 401.2,-175.07 403.75,-181.59"/>
</a>
</g>
</g>
<!-- 28&#45;&gt;6 -->
<g id="edge75" class="edge">
<title>28&#45;&gt;6</title>
<g id="a_edge75"><a xlink:title="include">
<path fill="none" stroke="#1414ce" d="M231.15,-215.9C234.42,-196.33 242.39,-164.36 261,-144 312.25,-87.94 342.83,-92.4 416,-72 572.29,-28.41 766.31,-20.39 853.62,-19.11"/>
<polygon fill="#1414ce" stroke="#1414ce" points="853.77,-22.61 863.72,-18.98 853.68,-15.61 853.77,-22.61"/>
</a>
</g>
</g>
<!-- 27&#45;&gt;5 -->
<g id="edge77" class="edge">
<title>27&#45;&gt;5</title>
<g id="a_edge77"><a xlink:title="include">
<path fill="none" stroke="#1414ce" d="M567,-215.87C567,-191.67 567,-147.21 567,-118.39"/>
<polygon fill="#1414ce" stroke="#1414ce" points="570.5,-118.19 567,-108.19 563.5,-118.19 570.5,-118.19"/>
</a>
</g>
</g>
<!-- 27&#45;&gt;16 -->
<g id="edge80" class="edge">
<title>27&#45;&gt;16</title>
<g id="a_edge80"><a xlink:title="include">
<path fill="none" stroke="#1414ce" d="M610.35,-223.96C625.11,-221.12 641.73,-218.15 657,-216 826.74,-192.07 871.61,-206.3 1041,-180 1052.97,-178.14 1065.86,-175.57 1077.64,-172.99"/>
<polygon fill="#1414ce" stroke="#1414ce" points="1078.67,-176.35 1087.66,-170.74 1077.14,-169.52 1078.67,-176.35"/>
</a>
</g>
</g>
<!-- 27&#45;&gt;19 -->
<g id="edge78" class="edge">
<title>27&#45;&gt;19</title>
<g id="a_edge78"><a xlink:title="include">
<path fill="none" stroke="#1414ce" d="M535.69,-215.88C517.37,-205.86 494.17,-193.17 475.08,-182.73"/>
<polygon fill="#1414ce" stroke="#1414ce" points="476.54,-179.54 466.09,-177.81 473.18,-185.68 476.54,-179.54"/>
</a>
</g>
</g>
<!-- 27&#45;&gt;12 -->
<g id="edge79" class="edge">
<title>27&#45;&gt;12</title>
<g id="a_edge79"><a xlink:title="include">
<path fill="none" stroke="#1414ce" d="M610.33,-223.77C625.08,-220.91 641.7,-217.99 657,-216 878.82,-187.19 938.17,-215.63 1159,-180 1260.45,-163.63 1375.45,-131.88 1445.33,-111.06"/>
<polygon fill="#1414ce" stroke="#1414ce" points="1446.73,-114.3 1455.31,-108.08 1444.73,-107.59 1446.73,-114.3"/>
</a>
</g>
</g>
</g>
</svg>
