<?xml version="1.0" encoding="UTF-8" standalone="no"?>
<!DOCTYPE svg PUBLIC "-//W3C//DTD SVG 1.1//EN"
 "http://www.w3.org/Graphics/SVG/1.1/DTD/svg11.dtd">
<!-- Generated by graphviz version 2.43.0 (0)
 -->
<!-- Title: %3 Pages: 1 -->
<svg width="1439pt" height="764pt"
 viewBox="0.00 0.00 1438.50 764.00" xmlns="http://www.w3.org/2000/svg" xmlns:xlink="http://www.w3.org/1999/xlink">
<g id="graph0" class="graph" transform="scale(1 1) rotate(0) translate(4 760)">
<title>%3</title>
<polygon fill="transparent" stroke="transparent" points="-4,4 -4,-760 1434.5,-760 1434.5,4 -4,4"/>
<!-- 7 -->
<g id="node1" class="node">
<title>7</title>
<g id="a_node1"><a xlink:title="stdbool.h">
<polygon fill="#ffffff" stroke="black" points="1107,-108 1024,-108 1024,-72 1107,-72 1107,-108"/>
<text text-anchor="middle" x="1065.5" y="-86.3" font-family="Times,serif" font-size="14.00">stdbool.h</text>
</a>
</g>
</g>
<!-- 24 -->
<g id="node2" class="node">
<title>24</title>
<g id="a_node2"><a xlink:title="refc_binary.h">
<polygon fill="#ffffff" stroke="black" points="694.5,-396 586.5,-396 586.5,-360 694.5,-360 694.5,-396"/>
<text text-anchor="middle" x="640.5" y="-374.3" font-family="Times,serif" font-size="14.00">refc_binary.h</text>
</a>
</g>
</g>
<!-- 24&#45;&gt;7 -->
<g id="edge1" class="edge">
<title>24&#45;&gt;7</title>
<g id="a_edge1"><a xlink:title="include">
<path fill="none" stroke="#1414ce" d="M694.71,-370.78C768.37,-359.58 899.99,-329.5 979.5,-252 1016.5,-215.94 996.37,-188.57 1022.5,-144 1028.22,-134.24 1035.66,-124.39 1042.73,-115.87"/>
<polygon fill="#1414ce" stroke="#1414ce" points="1045.49,-118.03 1049.34,-108.16 1040.17,-113.48 1045.49,-118.03"/>
</a>
</g>
</g>
<!-- 13 -->
<g id="node8" class="node">
<title>13</title>
<g id="a_node8"><a xlink:title="list.h">
<polygon fill="#ffffff" stroke="black" points="845.5,-180 791.5,-180 791.5,-144 845.5,-144 845.5,-180"/>
<text text-anchor="middle" x="818.5" y="-158.3" font-family="Times,serif" font-size="14.00">list.h</text>
</a>
</g>
</g>
<!-- 24&#45;&gt;13 -->
<g id="edge3" class="edge">
<title>24&#45;&gt;13</title>
<g id="a_edge3"><a xlink:title="include">
<path fill="none" stroke="#1414ce" d="M661.18,-359.86C672.86,-349.84 687.47,-336.69 699.5,-324 741.02,-280.18 780.97,-221.72 802.38,-188.65"/>
<polygon fill="#1414ce" stroke="#1414ce" points="805.45,-190.33 807.91,-180.03 799.56,-186.55 805.45,-190.33"/>
</a>
</g>
</g>
<!-- 5 -->
<g id="node10" class="node">
<title>5</title>
<g id="a_node10"><a xlink:title="stdlib.h">
<polygon fill="#ffffff" stroke="black" points="579,-108 508,-108 508,-72 579,-72 579,-108"/>
<text text-anchor="middle" x="543.5" y="-86.3" font-family="Times,serif" font-size="14.00">stdlib.h</text>
</a>
</g>
</g>
<!-- 24&#45;&gt;5 -->
<g id="edge2" class="edge">
<title>24&#45;&gt;5</title>
<g id="a_edge2"><a xlink:title="include">
<path fill="none" stroke="#1414ce" d="M614.34,-359.83C602.44,-350.63 589.29,-338.26 581.5,-324 544.81,-256.89 541.42,-163.81 542.28,-118.28"/>
<polygon fill="#1414ce" stroke="#1414ce" points="545.78,-118.12 542.56,-108.03 538.78,-117.93 545.78,-118.12"/>
</a>
</g>
</g>
<!-- 25 -->
<g id="node14" class="node">
<title>25</title>
<g id="a_node14"><a xlink:title="resources.h">
<polygon fill="#ffffff" stroke="black" points="690.5,-324 590.5,-324 590.5,-288 690.5,-288 690.5,-324"/>
<text text-anchor="middle" x="640.5" y="-302.3" font-family="Times,serif" font-size="14.00">resources.h</text>
</a>
</g>
</g>
<!-- 24&#45;&gt;25 -->
<g id="edge4" class="edge">
<title>24&#45;&gt;25</title>
<g id="a_edge4"><a xlink:title="include">
<path fill="none" stroke="#1414ce" d="M640.5,-359.7C640.5,-351.98 640.5,-342.71 640.5,-334.11"/>
<polygon fill="#1414ce" stroke="#1414ce" points="644,-334.1 640.5,-324.1 637,-334.1 644,-334.1"/>
</a>
</g>
</g>
<!-- 27 -->
<g id="node3" class="node">
<title>27</title>
<g id="a_node3"><a xlink:title="nifs.h">
<polygon fill="#ffffff" stroke="black" points="1157.5,-684 1101.5,-684 1101.5,-648 1157.5,-648 1157.5,-684"/>
<text text-anchor="middle" x="1129.5" y="-662.3" font-family="Times,serif" font-size="14.00">nifs.h</text>
</a>
</g>
</g>
<!-- 4 -->
<g id="node4" class="node">
<title>4</title>
<g id="a_node4"><a xlink:title="atom.h">
<polygon fill="#ffffff" stroke="black" points="1311.5,-396 1245.5,-396 1245.5,-360 1311.5,-360 1311.5,-396"/>
<text text-anchor="middle" x="1278.5" y="-374.3" font-family="Times,serif" font-size="14.00">atom.h</text>
</a>
</g>
</g>
<!-- 27&#45;&gt;4 -->
<g id="edge5" class="edge">
<title>27&#45;&gt;4</title>
<g id="a_edge5"><a xlink:title="include">
<path fill="none" stroke="#1414ce" d="M1149.32,-647.96C1184.11,-616.57 1255.01,-545.69 1281.5,-468 1288.27,-448.15 1287.02,-424.36 1284.35,-406.37"/>
<polygon fill="#1414ce" stroke="#1414ce" points="1287.76,-405.52 1282.62,-396.26 1280.86,-406.71 1287.76,-405.52"/>
</a>
</g>
</g>
<!-- 28 -->
<g id="node11" class="node">
<title>28</title>
<g id="a_node11"><a xlink:title="context.h">
<polygon fill="#ffffff" stroke="black" points="1002,-612 919,-612 919,-576 1002,-576 1002,-612"/>
<text text-anchor="middle" x="960.5" y="-590.3" font-family="Times,serif" font-size="14.00">context.h</text>
</a>
</g>
</g>
<!-- 27&#45;&gt;28 -->
<g id="edge6" class="edge">
<title>27&#45;&gt;28</title>
<g id="a_edge6"><a xlink:title="include">
<path fill="none" stroke="#1414ce" d="M1101.21,-653.28C1076.62,-643.1 1040.41,-628.1 1010.88,-615.87"/>
<polygon fill="#1414ce" stroke="#1414ce" points="1012.13,-612.6 1001.55,-612 1009.45,-619.06 1012.13,-612.6"/>
</a>
</g>
</g>
<!-- 29 -->
<g id="node18" class="node">
<title>29</title>
<g id="a_node18"><a xlink:title="exportedfunction.h">
<polygon fill="#ffffff" stroke="black" points="642.5,-540 490.5,-540 490.5,-504 642.5,-504 642.5,-540"/>
<text text-anchor="middle" x="566.5" y="-518.3" font-family="Times,serif" font-size="14.00">exportedfunction.h</text>
</a>
</g>
</g>
<!-- 27&#45;&gt;29 -->
<g id="edge7" class="edge">
<title>27&#45;&gt;29</title>
<g id="a_edge7"><a xlink:title="include">
<path fill="none" stroke="#1414ce" d="M1101.46,-658.36C1059.77,-648.46 978.99,-629.15 910.5,-612 817.53,-588.73 710.71,-560.92 641.09,-542.66"/>
<polygon fill="#1414ce" stroke="#1414ce" points="641.65,-539.19 631.09,-540.03 639.88,-545.96 641.65,-539.19"/>
</a>
</g>
</g>
<!-- 3 -->
<g id="node9" class="node">
<title>3</title>
<g id="a_node9"><a xlink:title="stdint.h">
<polygon fill="#ffffff" stroke="black" points="894.5,-36 822.5,-36 822.5,0 894.5,0 894.5,-36"/>
<text text-anchor="middle" x="858.5" y="-14.3" font-family="Times,serif" font-size="14.00">stdint.h</text>
</a>
</g>
</g>
<!-- 4&#45;&gt;3 -->
<g id="edge8" class="edge">
<title>4&#45;&gt;3</title>
<g id="a_edge8"><a xlink:title="include">
<path fill="none" stroke="#1414ce" d="M1290.97,-359.72C1310.9,-329.85 1345.72,-266.87 1325.5,-216 1290.76,-128.62 1255.98,-111.18 1170.5,-72 1082.5,-31.66 967.84,-21.74 904.9,-19.48"/>
<polygon fill="#1414ce" stroke="#1414ce" points="904.99,-15.98 894.89,-19.17 904.77,-22.98 904.99,-15.98"/>
</a>
</g>
</g>
<!-- 4&#45;&gt;5 -->
<g id="edge9" class="edge">
<title>4&#45;&gt;5</title>
<g id="a_edge9"><a xlink:title="include">
<path fill="none" stroke="#1414ce" d="M1269.03,-359.89C1240.33,-308.34 1155,-157.24 1133.5,-144 1087.51,-115.68 719.74,-98.15 589.24,-92.77"/>
<polygon fill="#1414ce" stroke="#1414ce" points="589.3,-89.27 579.17,-92.36 589.01,-96.27 589.3,-89.27"/>
</a>
</g>
</g>
<!-- 10 -->
<g id="node5" class="node">
<title>10</title>
<g id="a_node5"><a xlink:title="assert.h">
<polygon fill="#ffffff" stroke="black" points="181.5,-36 107.5,-36 107.5,0 181.5,0 181.5,-36"/>
<text text-anchor="middle" x="144.5" y="-14.3" font-family="Times,serif" font-size="14.00">assert.h</text>
</a>
</g>
</g>
<!-- 15 -->
<g id="node6" class="node">
<title>15</title>
<g id="a_node6"><a xlink:title="utils.h">
<polygon fill="#ffffff" stroke="black" points="420.5,-180 358.5,-180 358.5,-144 420.5,-144 420.5,-180"/>
<text text-anchor="middle" x="389.5" y="-158.3" font-family="Times,serif" font-size="14.00">utils.h</text>
</a>
</g>
</g>
<!-- 15&#45;&gt;5 -->
<g id="edge12" class="edge">
<title>15&#45;&gt;5</title>
<g id="a_edge12"><a xlink:title="include">
<path fill="none" stroke="#1414ce" d="M420.66,-146.83C443.03,-136.67 473.51,-122.81 498.51,-111.45"/>
<polygon fill="#1414ce" stroke="#1414ce" points="500.14,-114.55 507.8,-107.23 497.25,-108.18 500.14,-114.55"/>
</a>
</g>
</g>
<!-- 16 -->
<g id="node16" class="node">
<title>16</title>
<g id="a_node16"><a xlink:title="stddef.h">
<polygon fill="#ffffff" stroke="black" points="337.5,-108 263.5,-108 263.5,-72 337.5,-72 337.5,-108"/>
<text text-anchor="middle" x="300.5" y="-86.3" font-family="Times,serif" font-size="14.00">stddef.h</text>
</a>
</g>
</g>
<!-- 15&#45;&gt;16 -->
<g id="edge10" class="edge">
<title>15&#45;&gt;16</title>
<g id="a_edge10"><a xlink:title="include">
<path fill="none" stroke="#1414ce" d="M367.5,-143.7C356.29,-134.88 342.5,-124.03 330.35,-114.47"/>
<polygon fill="#1414ce" stroke="#1414ce" points="332.27,-111.54 322.25,-108.1 327.94,-117.04 332.27,-111.54"/>
</a>
</g>
</g>
<!-- 17 -->
<g id="node28" class="node">
<title>17</title>
<g id="a_node28"><a xlink:title="stdio.h">
<polygon fill="#ffffff" stroke="black" points="421,-108 356,-108 356,-72 421,-72 421,-108"/>
<text text-anchor="middle" x="388.5" y="-86.3" font-family="Times,serif" font-size="14.00">stdio.h</text>
</a>
</g>
</g>
<!-- 15&#45;&gt;17 -->
<g id="edge11" class="edge">
<title>15&#45;&gt;17</title>
<g id="a_edge11"><a xlink:title="include">
<path fill="none" stroke="#1414ce" d="M389.25,-143.7C389.14,-135.98 389.01,-126.71 388.89,-118.11"/>
<polygon fill="#1414ce" stroke="#1414ce" points="392.39,-118.05 388.74,-108.1 385.39,-118.15 392.39,-118.05"/>
</a>
</g>
</g>
<!-- 19 -->
<g id="node7" class="node">
<title>19</title>
<g id="a_node7"><a xlink:title="synclist.h">
<polygon fill="#ffffff" stroke="black" points="970,-252 885,-252 885,-216 970,-216 970,-252"/>
<text text-anchor="middle" x="927.5" y="-230.3" font-family="Times,serif" font-size="14.00">synclist.h</text>
</a>
</g>
</g>
<!-- 19&#45;&gt;13 -->
<g id="edge14" class="edge">
<title>19&#45;&gt;13</title>
<g id="a_edge14"><a xlink:title="include">
<path fill="none" stroke="#1414ce" d="M900.84,-215.88C886.72,-206.81 869.19,-195.55 853.94,-185.76"/>
<polygon fill="#1414ce" stroke="#1414ce" points="855.57,-182.65 845.27,-180.19 851.79,-188.54 855.57,-182.65"/>
</a>
</g>
</g>
<!-- 18 -->
<g id="node25" class="node">
<title>18</title>
<g id="a_node25"><a xlink:title="smp.h">
<polygon fill="#ffffff" stroke="black" points="1124.5,-180 1064.5,-180 1064.5,-144 1124.5,-144 1124.5,-180"/>
<text text-anchor="middle" x="1094.5" y="-158.3" font-family="Times,serif" font-size="14.00">smp.h</text>
</a>
</g>
</g>
<!-- 19&#45;&gt;18 -->
<g id="edge15" class="edge">
<title>19&#45;&gt;18</title>
<g id="a_edge15"><a xlink:title="include">
<path fill="none" stroke="#1414ce" d="M968.35,-215.88C994.76,-204.81 1028.93,-190.48 1055.05,-179.53"/>
<polygon fill="#1414ce" stroke="#1414ce" points="1056.41,-182.76 1064.28,-175.67 1053.71,-176.3 1056.41,-182.76"/>
</a>
</g>
</g>
<!-- 19&#45;&gt;17 -->
<g id="edge13" class="edge">
<title>19&#45;&gt;17</title>
<g id="a_edge13"><a xlink:title="include">
<path fill="none" stroke="#1414ce" d="M918.86,-215.79C907.33,-194.84 884.79,-160.25 854.5,-144 784.63,-106.51 578.16,-118.01 499.5,-108 477,-105.14 452.02,-101.37 431.47,-98.1"/>
<polygon fill="#1414ce" stroke="#1414ce" points="431.89,-94.63 421.47,-96.5 430.79,-101.54 431.89,-94.63"/>
</a>
</g>
</g>
<!-- 28&#45;&gt;13 -->
<g id="edge17" class="edge">
<title>28&#45;&gt;13</title>
<g id="a_edge17"><a xlink:title="include">
<path fill="none" stroke="#1414ce" d="M952.81,-575.91C941.71,-549.62 922.5,-497.45 922.5,-451 922.5,-451 922.5,-451 922.5,-377 922.5,-311.28 870.22,-312.04 843.5,-252 834.61,-232.02 828.1,-208.1 823.96,-190.09"/>
<polygon fill="#1414ce" stroke="#1414ce" points="827.36,-189.25 821.79,-180.24 820.52,-190.76 827.36,-189.25"/>
</a>
</g>
</g>
<!-- 20 -->
<g id="node15" class="node">
<title>20</title>
<g id="a_node15"><a xlink:title="term.h">
<polygon fill="#ffffff" stroke="black" points="523,-468 458,-468 458,-432 523,-432 523,-468"/>
<text text-anchor="middle" x="490.5" y="-446.3" font-family="Times,serif" font-size="14.00">term.h</text>
</a>
</g>
</g>
<!-- 28&#45;&gt;20 -->
<g id="edge20" class="edge">
<title>28&#45;&gt;20</title>
<g id="a_edge20"><a xlink:title="include">
<path fill="none" stroke="#1414ce" d="M918.79,-580.4C829.88,-553.54 622.54,-490.89 532.96,-463.83"/>
<polygon fill="#1414ce" stroke="#1414ce" points="533.73,-460.4 523.14,-460.86 531.7,-467.11 533.73,-460.4"/>
</a>
</g>
</g>
<!-- 2 -->
<g id="node24" class="node">
<title>2</title>
<g id="a_node24"><a xlink:title="globalcontext.h">
<polygon fill="#ffffff" stroke="black" points="1157,-540 1030,-540 1030,-504 1157,-504 1157,-540"/>
<text text-anchor="middle" x="1093.5" y="-518.3" font-family="Times,serif" font-size="14.00">globalcontext.h</text>
</a>
</g>
</g>
<!-- 28&#45;&gt;2 -->
<g id="edge16" class="edge">
<title>28&#45;&gt;2</title>
<g id="a_edge16"><a xlink:title="include">
<path fill="none" stroke="#1414ce" d="M993.04,-575.88C1010.75,-566.55 1032.85,-554.92 1051.82,-544.94"/>
<polygon fill="#1414ce" stroke="#1414ce" points="1053.62,-547.94 1060.84,-540.19 1050.36,-541.75 1053.62,-547.94"/>
</a>
</g>
</g>
<!-- 28&#45;&gt;18 -->
<g id="edge19" class="edge">
<title>28&#45;&gt;18</title>
<g id="a_edge19"><a xlink:title="include">
<path fill="none" stroke="#1414ce" d="M965.84,-575.88C986.43,-509.8 1060.82,-271.08 1086.06,-190.1"/>
<polygon fill="#1414ce" stroke="#1414ce" points="1089.52,-190.76 1089.15,-180.17 1082.83,-188.68 1089.52,-190.76"/>
</a>
</g>
</g>
<!-- 26 -->
<g id="node26" class="node">
<title>26</title>
<g id="a_node26"><a xlink:title="timer_list.h">
<polygon fill="#ffffff" stroke="black" points="1316.5,-252 1218.5,-252 1218.5,-216 1316.5,-216 1316.5,-252"/>
<text text-anchor="middle" x="1267.5" y="-230.3" font-family="Times,serif" font-size="14.00">timer_list.h</text>
</a>
</g>
</g>
<!-- 28&#45;&gt;26 -->
<g id="edge21" class="edge">
<title>28&#45;&gt;26</title>
<g id="a_edge21"><a xlink:title="include">
<path fill="none" stroke="#1414ce" d="M1002.31,-588.32C1110.73,-575.02 1392.5,-532.61 1392.5,-451 1392.5,-451 1392.5,-451 1392.5,-377 1392.5,-324.4 1343.57,-282.03 1306.94,-257.69"/>
<polygon fill="#1414ce" stroke="#1414ce" points="1308.7,-254.66 1298.4,-252.18 1304.91,-260.54 1308.7,-254.66"/>
</a>
</g>
</g>
<!-- 14 -->
<g id="node27" class="node">
<title>14</title>
<g id="a_node27"><a xlink:title="mailbox.h">
<polygon fill="#ffffff" stroke="black" points="714.5,-252 628.5,-252 628.5,-216 714.5,-216 714.5,-252"/>
<text text-anchor="middle" x="671.5" y="-230.3" font-family="Times,serif" font-size="14.00">mailbox.h</text>
</a>
</g>
</g>
<!-- 28&#45;&gt;14 -->
<g id="edge18" class="edge">
<title>28&#45;&gt;14</title>
<g id="a_edge18"><a xlink:title="include">
<path fill="none" stroke="#1414ce" d="M933.48,-575.96C899.77,-552.37 846.5,-506.33 846.5,-451 846.5,-451 846.5,-451 846.5,-377 846.5,-313.28 775.67,-273.16 724.14,-252.41"/>
<polygon fill="#1414ce" stroke="#1414ce" points="725.35,-249.12 714.76,-248.76 722.81,-255.65 725.35,-249.12"/>
</a>
</g>
</g>
<!-- 23 -->
<g id="node12" class="node">
<title>23</title>
<g id="a_node12"><a xlink:title="memory.h">
<polygon fill="#ffffff" stroke="black" points="496.5,-252 410.5,-252 410.5,-216 496.5,-216 496.5,-252"/>
<text text-anchor="middle" x="453.5" y="-230.3" font-family="Times,serif" font-size="14.00">memory.h</text>
</a>
</g>
</g>
<!-- 23&#45;&gt;15 -->
<g id="edge26" class="edge">
<title>23&#45;&gt;15</title>
<g id="a_edge26"><a xlink:title="include">
<path fill="none" stroke="#1414ce" d="M437.68,-215.7C429.93,-207.22 420.46,-196.86 411.98,-187.58"/>
<polygon fill="#1414ce" stroke="#1414ce" points="414.47,-185.12 405.14,-180.1 409.3,-189.85 414.47,-185.12"/>
</a>
</g>
</g>
<!-- 23&#45;&gt;3 -->
<g id="edge22" class="edge">
<title>23&#45;&gt;3</title>
<g id="a_edge22"><a xlink:title="include">
<path fill="none" stroke="#1414ce" d="M452.82,-215.78C452.54,-182.46 457.08,-109.17 499.5,-72 545.2,-31.95 725.88,-22.16 812.16,-19.77"/>
<polygon fill="#1414ce" stroke="#1414ce" points="812.29,-23.27 822.2,-19.52 812.11,-16.27 812.29,-23.27"/>
</a>
</g>
</g>
<!-- 23&#45;&gt;5 -->
<g id="edge23" class="edge">
<title>23&#45;&gt;5</title>
<g id="a_edge23"><a xlink:title="include">
<path fill="none" stroke="#1414ce" d="M464.36,-215.87C479.97,-191.24 508.87,-145.64 527.09,-116.88"/>
<polygon fill="#1414ce" stroke="#1414ce" points="530.21,-118.51 532.61,-108.19 524.3,-114.76 530.21,-118.51"/>
</a>
</g>
</g>
<!-- 8 -->
<g id="node17" class="node">
<title>8</title>
<g id="a_node17"><a xlink:title="erl_nif.h">
<polygon fill="#ffffff" stroke="black" points="131.5,-180 57.5,-180 57.5,-144 131.5,-144 131.5,-180"/>
<text text-anchor="middle" x="94.5" y="-158.3" font-family="Times,serif" font-size="14.00">erl_nif.h</text>
</a>
</g>
</g>
<!-- 23&#45;&gt;8 -->
<g id="edge24" class="edge">
<title>23&#45;&gt;8</title>
<g id="a_edge24"><a xlink:title="include">
<path fill="none" stroke="#1414ce" d="M410.47,-227.69C350.54,-219.82 238.78,-203.43 145.5,-180 144.23,-179.68 142.94,-179.34 141.64,-179"/>
<polygon fill="#1414ce" stroke="#1414ce" points="142.21,-175.52 131.63,-176.1 140.27,-182.24 142.21,-175.52"/>
</a>
</g>
</g>
<!-- 9 -->
<g id="node23" class="node">
<title>9</title>
<g id="a_node23"><a xlink:title="term_typedef.h">
<polygon fill="#ffffff" stroke="black" points="207,-108 82,-108 82,-72 207,-72 207,-108"/>
<text text-anchor="middle" x="144.5" y="-86.3" font-family="Times,serif" font-size="14.00">term_typedef.h</text>
</a>
</g>
</g>
<!-- 23&#45;&gt;9 -->
<g id="edge25" class="edge">
<title>23&#45;&gt;9</title>
<g id="a_edge25"><a xlink:title="include">
<path fill="none" stroke="#1414ce" d="M410.4,-229.38C343.29,-222.97 217.93,-207.6 183.5,-180 164.45,-164.72 154.47,-138.26 149.4,-118.15"/>
<polygon fill="#1414ce" stroke="#1414ce" points="152.79,-117.29 147.17,-108.31 145.96,-118.84 152.79,-117.29"/>
</a>
</g>
</g>
<!-- 1 -->
<g id="node13" class="node">
<title>1</title>
<g id="a_node13"><a xlink:title="/__w/AtomVM/AtomVM/src/libAtomVM/otp_net.h">
<polygon fill="#bfbfbf" stroke="black" points="1337.5,-756 977.5,-756 977.5,-720 1337.5,-720 1337.5,-756"/>
<text text-anchor="middle" x="1157.5" y="-734.3" font-family="Times,serif" font-size="14.00">/__w/AtomVM/AtomVM/src/libAtomVM/otp_net.h</text>
</a>
</g>
</g>
<!-- 1&#45;&gt;27 -->
<g id="edge28" class="edge">
<title>1&#45;&gt;27</title>
<g id="a_edge28"><a xlink:title="include">
<path fill="none" stroke="#1414ce" d="M1150.58,-719.7C1147.43,-711.81 1143.62,-702.3 1140.12,-693.55"/>
<polygon fill="#1414ce" stroke="#1414ce" points="1143.31,-692.09 1136.34,-684.1 1136.81,-694.69 1143.31,-692.09"/>
</a>
</g>
</g>
<!-- 1&#45;&gt;2 -->
<g id="edge27" class="edge">
<title>1&#45;&gt;2</title>
<g id="a_edge27"><a xlink:title="include">
<path fill="none" stroke="#1414ce" d="M1162.82,-719.97C1167.66,-701.84 1173.11,-672.44 1166.5,-648 1156.33,-610.41 1131.72,-572.52 1113.88,-548.47"/>
<polygon fill="#1414ce" stroke="#1414ce" points="1116.49,-546.12 1107.66,-540.27 1110.91,-550.35 1116.49,-546.12"/>
</a>
</g>
</g>
<!-- 25&#45;&gt;19 -->
<g id="edge33" class="edge">
<title>25&#45;&gt;19</title>
<g id="a_edge33"><a xlink:title="include">
<path fill="none" stroke="#1414ce" d="M690.82,-292.73C742.47,-280.13 822.5,-260.61 874.95,-247.82"/>
<polygon fill="#1414ce" stroke="#1414ce" points="875.85,-251.2 884.73,-245.43 874.19,-244.4 875.85,-251.2"/>
</a>
</g>
</g>
<!-- 25&#45;&gt;13 -->
<g id="edge31" class="edge">
<title>25&#45;&gt;13</title>
<g id="a_edge31"><a xlink:title="include">
<path fill="none" stroke="#1414ce" d="M670.2,-287.87C686.44,-278.06 706.62,-265.11 723.5,-252 749.27,-231.98 776.18,-206.23 794.76,-187.59"/>
<polygon fill="#1414ce" stroke="#1414ce" points="797.65,-189.64 802.18,-180.07 792.67,-184.73 797.65,-189.64"/>
</a>
</g>
</g>
<!-- 25&#45;&gt;5 -->
<g id="edge29" class="edge">
<title>25&#45;&gt;5</title>
<g id="a_edge29"><a xlink:title="include">
<path fill="none" stroke="#1414ce" d="M633.76,-287.98C617.49,-246.93 577.36,-145.71 576.5,-144 571.86,-134.81 566.12,-125.14 560.73,-116.61"/>
<polygon fill="#1414ce" stroke="#1414ce" points="563.67,-114.72 555.31,-108.21 557.79,-118.51 563.67,-114.72"/>
</a>
</g>
</g>
<!-- 25&#45;&gt;23 -->
<g id="edge32" class="edge">
<title>25&#45;&gt;23</title>
<g id="a_edge32"><a xlink:title="include">
<path fill="none" stroke="#1414ce" d="M594.75,-287.88C567.96,-277.85 534.02,-265.14 506.12,-254.7"/>
<polygon fill="#1414ce" stroke="#1414ce" points="507.12,-251.33 496.53,-251.11 504.67,-257.89 507.12,-251.33"/>
</a>
</g>
</g>
<!-- 25&#45;&gt;8 -->
<g id="edge30" class="edge">
<title>25&#45;&gt;8</title>
<g id="a_edge30"><a xlink:title="include">
<path fill="none" stroke="#1414ce" d="M590.38,-294.86C541.87,-284.82 466.35,-268.57 401.5,-252 308.55,-228.25 201.14,-195.99 141.18,-177.54"/>
<polygon fill="#1414ce" stroke="#1414ce" points="142.21,-174.2 131.62,-174.6 140.15,-180.89 142.21,-174.2"/>
</a>
</g>
</g>
<!-- 20&#45;&gt;7 -->
<g id="edge35" class="edge">
<title>20&#45;&gt;7</title>
<g id="a_edge35"><a xlink:title="include">
<path fill="none" stroke="#1414ce" d="M523.28,-444.33C597.17,-432.78 780.79,-398.26 915.5,-324 960.06,-299.44 974.67,-293.22 1004.5,-252 1034.54,-210.48 1051.7,-152.36 1059.76,-118.5"/>
<polygon fill="#1414ce" stroke="#1414ce" points="1063.25,-118.94 1062.07,-108.41 1056.43,-117.38 1063.25,-118.94"/>
</a>
</g>
</g>
<!-- 20&#45;&gt;24 -->
<g id="edge41" class="edge">
<title>20&#45;&gt;24</title>
<g id="a_edge41"><a xlink:title="include">
<path fill="none" stroke="#1414ce" d="M523.05,-433.81C544.03,-424.02 571.61,-411.15 594.77,-400.34"/>
<polygon fill="#1414ce" stroke="#1414ce" points="596.49,-403.4 604.07,-396 593.53,-397.06 596.49,-403.4"/>
</a>
</g>
</g>
<!-- 20&#45;&gt;15 -->
<g id="edge42" class="edge">
<title>20&#45;&gt;15</title>
<g id="a_edge42"><a xlink:title="include">
<path fill="none" stroke="#1414ce" d="M480.75,-431.99C462.12,-398.64 421.51,-321.81 401.5,-252 395.67,-231.67 392.65,-207.91 391.1,-190.05"/>
<polygon fill="#1414ce" stroke="#1414ce" points="394.59,-189.73 390.33,-180.03 387.61,-190.27 394.59,-189.73"/>
</a>
</g>
</g>
<!-- 20&#45;&gt;3 -->
<g id="edge36" class="edge">
<title>20&#45;&gt;3</title>
<g id="a_edge36"><a xlink:title="include">
<path fill="none" stroke="#1414ce" d="M457.96,-445.06C388.53,-436.33 230.9,-414.65 215.5,-396 200.02,-377.26 143.09,-178.28 254.5,-72 294.59,-33.75 677.3,-22.57 811.93,-19.8"/>
<polygon fill="#1414ce" stroke="#1414ce" points="812.39,-23.29 822.31,-19.6 812.25,-16.3 812.39,-23.29"/>
</a>
</g>
</g>
<!-- 20&#45;&gt;5 -->
<g id="edge38" class="edge">
<title>20&#45;&gt;5</title>
<g id="a_edge38"><a xlink:title="include">
<path fill="none" stroke="#1414ce" d="M493.06,-431.73C501.57,-374.19 529.04,-188.66 539.45,-118.35"/>
<polygon fill="#1414ce" stroke="#1414ce" points="542.97,-118.5 540.97,-108.09 536.04,-117.47 542.97,-118.5"/>
</a>
</g>
</g>
<!-- 20&#45;&gt;23 -->
<g id="edge40" class="edge">
<title>20&#45;&gt;23</title>
<g id="a_edge40"><a xlink:title="include">
<path fill="none" stroke="#1414ce" d="M487.53,-431.85C481.12,-394.75 465.92,-306.81 458.19,-262.1"/>
<polygon fill="#1414ce" stroke="#1414ce" points="461.63,-261.49 456.48,-252.23 454.73,-262.68 461.63,-261.49"/>
</a>
</g>
</g>
<!-- 21 -->
<g id="node21" class="node">
<title>21</title>
<g id="a_node21"><a xlink:title="sys/types.h">
<polygon fill="#ffffff" stroke="black" points="333,-396 236,-396 236,-360 333,-360 333,-396"/>
<text text-anchor="middle" x="284.5" y="-374.3" font-family="Times,serif" font-size="14.00">sys/types.h</text>
</a>
</g>
</g>
<!-- 20&#45;&gt;21 -->
<g id="edge34" class="edge">
<title>20&#45;&gt;21</title>
<g id="a_edge34"><a xlink:title="include">
<path fill="none" stroke="#1414ce" d="M457.86,-437.91C427.03,-427.43 380.1,-411.49 342.84,-398.82"/>
<polygon fill="#1414ce" stroke="#1414ce" points="343.69,-395.42 333.1,-395.51 341.44,-402.05 343.69,-395.42"/>
</a>
</g>
</g>
<!-- 22 -->
<g id="node22" class="node">
<title>22</title>
<g id="a_node22"><a xlink:title="string.h">
<polygon fill="#ffffff" stroke="black" points="424,-396 351,-396 351,-360 424,-360 424,-396"/>
<text text-anchor="middle" x="387.5" y="-374.3" font-family="Times,serif" font-size="14.00">string.h</text>
</a>
</g>
</g>
<!-- 20&#45;&gt;22 -->
<g id="edge39" class="edge">
<title>20&#45;&gt;22</title>
<g id="a_edge39"><a xlink:title="include">
<path fill="none" stroke="#1414ce" d="M465.3,-431.88C452.09,-422.89 435.71,-411.76 421.39,-402.03"/>
<polygon fill="#1414ce" stroke="#1414ce" points="423.03,-398.92 412.79,-396.19 419.1,-404.71 423.03,-398.92"/>
</a>
</g>
</g>
<!-- 20&#45;&gt;9 -->
<g id="edge43" class="edge">
<title>20&#45;&gt;9</title>
<g id="a_edge43"><a xlink:title="include">
<path fill="none" stroke="#1414ce" d="M457.79,-448.7C396.31,-447.09 260.24,-438.56 155.5,-396 91.98,-370.19 29.5,-375.56 29.5,-307 29.5,-307 29.5,-307 29.5,-233 29.5,-192.55 24.4,-176.48 48.5,-144 58.27,-130.83 72.33,-120.53 86.69,-112.65"/>
<polygon fill="#1414ce" stroke="#1414ce" points="88.34,-115.73 95.64,-108.05 85.14,-109.51 88.34,-115.73"/>
</a>
</g>
</g>
<!-- 20&#45;&gt;17 -->
<g id="edge37" class="edge">
<title>20&#45;&gt;17</title>
<g id="a_edge37"><a xlink:title="include">
<path fill="none" stroke="#1414ce" d="M457.72,-447.39C393.81,-443.5 256.27,-431.14 227.5,-396 188.48,-348.33 316.2,-180.25 367.82,-116.12"/>
<polygon fill="#1414ce" stroke="#1414ce" points="370.72,-118.1 374.3,-108.13 365.28,-113.7 370.72,-118.1"/>
</a>
</g>
</g>
<!-- 8&#45;&gt;9 -->
<g id="edge44" class="edge">
<title>8&#45;&gt;9</title>
<g id="a_edge44"><a xlink:title="include">
<path fill="none" stroke="#1414ce" d="M106.86,-143.7C112.73,-135.47 119.87,-125.48 126.34,-116.42"/>
<polygon fill="#1414ce" stroke="#1414ce" points="129.32,-118.28 132.28,-108.1 123.62,-114.21 129.32,-118.28"/>
</a>
</g>
</g>
<!-- 29&#45;&gt;20 -->
<g id="edge45" class="edge">
<title>29&#45;&gt;20</title>
<g id="a_edge45"><a xlink:title="include">
<path fill="none" stroke="#1414ce" d="M547.71,-503.7C538.33,-495.05 526.82,-484.45 516.59,-475.03"/>
<polygon fill="#1414ce" stroke="#1414ce" points="518.8,-472.3 509.07,-468.1 514.05,-477.45 518.8,-472.3"/>
</a>
</g>
</g>
<!-- 11 -->
<g id="node19" class="node">
<title>11</title>
<g id="a_node19"><a xlink:title="limits.h">
<polygon fill="#ffffff" stroke="black" points="271,-36 200,-36 200,0 271,0 271,-36"/>
<text text-anchor="middle" x="235.5" y="-14.3" font-family="Times,serif" font-size="14.00">limits.h</text>
</a>
</g>
</g>
<!-- 6 -->
<g id="node20" class="node">
<title>6</title>
<g id="a_node20"><a xlink:title="atom_table.h">
<polygon fill="#ffffff" stroke="black" points="1250,-468 1141,-468 1141,-432 1250,-432 1250,-468"/>
<text text-anchor="middle" x="1195.5" y="-446.3" font-family="Times,serif" font-size="14.00">atom_table.h</text>
</a>
</g>
</g>
<!-- 6&#45;&gt;7 -->
<g id="edge46" class="edge">
<title>6&#45;&gt;7</title>
<g id="a_edge46"><a xlink:title="include">
<path fill="none" stroke="#1414ce" d="M1194.51,-431.96C1193.06,-405.31 1190.5,-352.14 1190.5,-307 1190.5,-307 1190.5,-307 1190.5,-233 1190.5,-180.4 1141.57,-138.03 1104.94,-113.69"/>
<polygon fill="#1414ce" stroke="#1414ce" points="1106.7,-110.66 1096.4,-108.18 1102.91,-116.54 1106.7,-110.66"/>
</a>
</g>
</g>
<!-- 6&#45;&gt;4 -->
<g id="edge47" class="edge">
<title>6&#45;&gt;4</title>
<g id="a_edge47"><a xlink:title="include">
<path fill="none" stroke="#1414ce" d="M1216.02,-431.7C1226.37,-422.97 1239.09,-412.24 1250.34,-402.75"/>
<polygon fill="#1414ce" stroke="#1414ce" points="1252.83,-405.23 1258.22,-396.1 1248.32,-399.88 1252.83,-405.23"/>
</a>
</g>
</g>
<!-- 9&#45;&gt;10 -->
<g id="edge48" class="edge">
<title>9&#45;&gt;10</title>
<g id="a_edge48"><a xlink:title="include">
<path fill="none" stroke="#1414ce" d="M144.5,-71.7C144.5,-63.98 144.5,-54.71 144.5,-46.11"/>
<polygon fill="#1414ce" stroke="#1414ce" points="148,-46.1 144.5,-36.1 141,-46.1 148,-46.1"/>
</a>
</g>
</g>
<!-- 9&#45;&gt;3 -->
<g id="edge51" class="edge">
<title>9&#45;&gt;3</title>
<g id="a_edge51"><a xlink:title="include">
<path fill="none" stroke="#1414ce" d="M207.4,-74.39C212.16,-73.51 216.9,-72.7 221.5,-72 441.09,-38.78 706.64,-25.11 812.09,-20.72"/>
<polygon fill="#1414ce" stroke="#1414ce" points="812.54,-24.21 822.39,-20.31 812.25,-17.22 812.54,-24.21"/>
</a>
</g>
</g>
<!-- 9&#45;&gt;11 -->
<g id="edge49" class="edge">
<title>9&#45;&gt;11</title>
<g id="a_edge49"><a xlink:title="include">
<path fill="none" stroke="#1414ce" d="M166.99,-71.7C178.46,-62.88 192.56,-52.03 204.98,-42.47"/>
<polygon fill="#1414ce" stroke="#1414ce" points="207.47,-44.98 213.26,-36.1 203.2,-39.43 207.47,-44.98"/>
</a>
</g>
</g>
<!-- 12 -->
<g id="node29" class="node">
<title>12</title>
<g id="a_node29"><a xlink:title="inttypes.h">
<polygon fill="#ffffff" stroke="black" points="89,-36 0,-36 0,0 89,0 89,-36"/>
<text text-anchor="middle" x="44.5" y="-14.3" font-family="Times,serif" font-size="14.00">inttypes.h</text>
</a>
</g>
</g>
<!-- 9&#45;&gt;12 -->
<g id="edge50" class="edge">
<title>9&#45;&gt;12</title>
<g id="a_edge50"><a xlink:title="include">
<path fill="none" stroke="#1414ce" d="M120.04,-71.88C107.2,-62.89 91.3,-51.76 77.41,-42.03"/>
<polygon fill="#1414ce" stroke="#1414ce" points="79.26,-39.06 69.06,-36.19 75.24,-44.79 79.26,-39.06"/>
</a>
</g>
</g>
<!-- 2&#45;&gt;4 -->
<g id="edge53" class="edge">
<title>2&#45;&gt;4</title>
<g id="a_edge53"><a xlink:title="include">
<path fill="none" stroke="#1414ce" d="M1157,-516.02C1192,-509.95 1233.5,-496.7 1259.5,-468 1274.54,-451.4 1278.75,-425.9 1279.51,-406.44"/>
<polygon fill="#1414ce" stroke="#1414ce" points="1283.01,-406.39 1279.63,-396.35 1276.01,-406.31 1283.01,-406.39"/>
</a>
</g>
</g>
<!-- 2&#45;&gt;19 -->
<g id="edge59" class="edge">
<title>2&#45;&gt;19</title>
<g id="a_edge59"><a xlink:title="include">
<path fill="none" stroke="#1414ce" d="M1082.63,-503.92C1076.12,-493.58 1067.72,-480.1 1060.5,-468 1016.14,-393.62 966.05,-304.37 941.96,-261.09"/>
<polygon fill="#1414ce" stroke="#1414ce" points="944.88,-259.12 936.96,-252.09 938.76,-262.53 944.88,-259.12"/>
</a>
</g>
</g>
<!-- 2&#45;&gt;13 -->
<g id="edge56" class="edge">
<title>2&#45;&gt;13</title>
<g id="a_edge56"><a xlink:title="include">
<path fill="none" stroke="#1414ce" d="M1089.1,-503.8C1083.91,-485.26 1074.23,-455.28 1060.5,-432 1017.59,-359.26 1001.09,-342.42 936.5,-288 912.72,-267.96 898.89,-273.58 876.5,-252 857.53,-233.72 841.67,-208.12 831.35,-189.07"/>
<polygon fill="#1414ce" stroke="#1414ce" points="834.36,-187.27 826.61,-180.04 828.16,-190.52 834.36,-187.27"/>
</a>
</g>
</g>
<!-- 2&#45;&gt;3 -->
<g id="edge52" class="edge">
<title>2&#45;&gt;3</title>
<g id="a_edge52"><a xlink:title="include">
<path fill="none" stroke="#1414ce" d="M1157.28,-521.38C1254.98,-518.25 1430.5,-496.3 1430.5,-379 1430.5,-379 1430.5,-379 1430.5,-161 1430.5,-52.93 1041.01,-26.52 904.83,-20.59"/>
<polygon fill="#1414ce" stroke="#1414ce" points="904.85,-17.09 894.72,-20.17 904.56,-24.09 904.85,-17.09"/>
</a>
</g>
</g>
<!-- 2&#45;&gt;20 -->
<g id="edge60" class="edge">
<title>2&#45;&gt;20</title>
<g id="a_edge60"><a xlink:title="include">
<path fill="none" stroke="#1414ce" d="M1029.82,-513.61C906.46,-499.29 637.82,-468.1 533.31,-455.97"/>
<polygon fill="#1414ce" stroke="#1414ce" points="533.47,-452.46 523.13,-454.79 532.66,-459.42 533.47,-452.46"/>
</a>
</g>
</g>
<!-- 2&#45;&gt;8 -->
<g id="edge55" class="edge">
<title>2&#45;&gt;8</title>
<g id="a_edge55"><a xlink:title="include">
<path fill="none" stroke="#1414ce" d="M1029.64,-518.33C814.78,-508.49 131.5,-470.06 131.5,-379 131.5,-379 131.5,-379 131.5,-305 131.5,-263.71 116.67,-217.77 105.78,-189.63"/>
<polygon fill="#1414ce" stroke="#1414ce" points="108.94,-188.11 101.99,-180.11 102.44,-190.7 108.94,-188.11"/>
</a>
</g>
</g>
<!-- 2&#45;&gt;6 -->
<g id="edge54" class="edge">
<title>2&#45;&gt;6</title>
<g id="a_edge54"><a xlink:title="include">
<path fill="none" stroke="#1414ce" d="M1118.45,-503.88C1131.54,-494.89 1147.76,-483.76 1161.94,-474.03"/>
<polygon fill="#1414ce" stroke="#1414ce" points="1164.19,-476.73 1170.45,-468.19 1160.23,-470.96 1164.19,-476.73"/>
</a>
</g>
</g>
<!-- 2&#45;&gt;18 -->
<g id="edge58" class="edge">
<title>2&#45;&gt;18</title>
<g id="a_edge58"><a xlink:title="include">
<path fill="none" stroke="#1414ce" d="M1097.34,-503.61C1102.9,-476.94 1112.5,-424.27 1112.5,-379 1112.5,-379 1112.5,-379 1112.5,-305 1112.5,-264.9 1105.35,-218.92 1100.06,-190.42"/>
<polygon fill="#1414ce" stroke="#1414ce" points="1103.46,-189.56 1098.14,-180.4 1096.58,-190.88 1103.46,-189.56"/>
</a>
</g>
</g>
<!-- 2&#45;&gt;26 -->
<g id="edge61" class="edge">
<title>2&#45;&gt;26</title>
<g id="a_edge61"><a xlink:title="include">
<path fill="none" stroke="#1414ce" d="M1157.16,-515.63C1196.54,-509.47 1246.14,-496.28 1281.5,-468 1321.36,-436.13 1330.66,-410.01 1320.5,-360 1313.21,-324.11 1295.24,-285.74 1282.25,-261.12"/>
<polygon fill="#1414ce" stroke="#1414ce" points="1285.2,-259.22 1277.37,-252.08 1279.04,-262.54 1285.2,-259.22"/>
</a>
</g>
</g>
<!-- 2&#45;&gt;14 -->
<g id="edge57" class="edge">
<title>2&#45;&gt;14</title>
<g id="a_edge57"><a xlink:title="include">
<path fill="none" stroke="#1414ce" d="M1074.17,-503.85C1062.76,-493.61 1048.13,-480.25 1035.5,-468 955.39,-390.33 956.4,-345.02 860.5,-288 818.46,-263.01 764.16,-249.38 724.56,-242.23"/>
<polygon fill="#1414ce" stroke="#1414ce" points="725.02,-238.76 714.57,-240.51 723.83,-245.65 725.02,-238.76"/>
</a>
</g>
</g>
<!-- 18&#45;&gt;7 -->
<g id="edge62" class="edge">
<title>18&#45;&gt;7</title>
<g id="a_edge62"><a xlink:title="include">
<path fill="none" stroke="#1414ce" d="M1087.33,-143.7C1084.07,-135.81 1080.13,-126.3 1076.5,-117.55"/>
<polygon fill="#1414ce" stroke="#1414ce" points="1079.65,-116 1072.59,-108.1 1073.18,-118.68 1079.65,-116"/>
</a>
</g>
</g>
<!-- 26&#45;&gt;7 -->
<g id="edge63" class="edge">
<title>26&#45;&gt;7</title>
<g id="a_edge63"><a xlink:title="include">
<path fill="none" stroke="#1414ce" d="M1259.38,-215.94C1249.14,-196.11 1229.78,-163.6 1204.5,-144 1178.87,-124.13 1144.94,-111 1117.02,-102.78"/>
<polygon fill="#1414ce" stroke="#1414ce" points="1117.6,-99.31 1107.03,-99.97 1115.71,-106.05 1117.6,-99.31"/>
</a>
</g>
</g>
<!-- 26&#45;&gt;13 -->
<g id="edge65" class="edge">
<title>26&#45;&gt;13</title>
<g id="a_edge65"><a xlink:title="include">
<path fill="none" stroke="#1414ce" d="M1218.16,-225.31C1127.58,-211.19 936.63,-181.42 855.85,-168.82"/>
<polygon fill="#1414ce" stroke="#1414ce" points="856.07,-165.32 845.65,-167.23 854.99,-172.23 856.07,-165.32"/>
</a>
</g>
</g>
<!-- 26&#45;&gt;3 -->
<g id="edge64" class="edge">
<title>26&#45;&gt;3</title>
<g id="a_edge64"><a xlink:title="include">
<path fill="none" stroke="#1414ce" d="M1264.65,-215.91C1260.71,-196.64 1252,-165.24 1234.5,-144 1195.44,-96.58 1173.66,-94.52 1116.5,-72 1045.5,-44.03 957.44,-30.01 904.72,-23.63"/>
<polygon fill="#1414ce" stroke="#1414ce" points="905.01,-20.14 894.67,-22.45 904.19,-27.09 905.01,-20.14"/>
</a>
</g>
</g>
<!-- 14&#45;&gt;7 -->
<g id="edge66" class="edge">
<title>14&#45;&gt;7</title>
<g id="a_edge66"><a xlink:title="include">
<path fill="none" stroke="#1414ce" d="M687.39,-215.91C707.48,-195.42 744.12,-161.63 782.5,-144 858.13,-109.27 955.1,-97.3 1013.65,-93.17"/>
<polygon fill="#1414ce" stroke="#1414ce" points="1014.02,-96.65 1023.77,-92.51 1013.56,-89.67 1014.02,-96.65"/>
</a>
</g>
</g>
<!-- 14&#45;&gt;15 -->
<g id="edge69" class="edge">
<title>14&#45;&gt;15</title>
<g id="a_edge69"><a xlink:title="include">
<path fill="none" stroke="#1414ce" d="M628.36,-222.29C574.59,-208.94 483.34,-186.29 430.55,-173.19"/>
<polygon fill="#1414ce" stroke="#1414ce" points="431.39,-169.79 420.84,-170.78 429.71,-176.59 431.39,-169.79"/>
</a>
</g>
</g>
<!-- 14&#45;&gt;13 -->
<g id="edge67" class="edge">
<title>14&#45;&gt;13</title>
<g id="a_edge67"><a xlink:title="include">
<path fill="none" stroke="#1414ce" d="M707.46,-215.88C730.07,-205.11 759.16,-191.26 781.89,-180.43"/>
<polygon fill="#1414ce" stroke="#1414ce" points="783.68,-183.46 791.21,-176 780.67,-177.14 783.68,-183.46"/>
</a>
</g>
</g>
<!-- 14&#45;&gt;9 -->
<g id="edge68" class="edge">
<title>14&#45;&gt;9</title>
<g id="a_edge68"><a xlink:title="include">
<path fill="none" stroke="#1414ce" d="M628.3,-229.3C565.78,-223.18 446.92,-208.69 349.5,-180 290.8,-162.72 226.62,-132.95 185.99,-112.64"/>
<polygon fill="#1414ce" stroke="#1414ce" points="187.44,-109.45 176.94,-108.08 184.29,-115.7 187.44,-109.45"/>
</a>
</g>
</g>
</g>
</svg>
