<?xml version="1.0" encoding="UTF-8" standalone="no"?>
<!DOCTYPE svg PUBLIC "-//W3C//DTD SVG 1.1//EN"
 "http://www.w3.org/Graphics/SVG/1.1/DTD/svg11.dtd">
<!-- Generated by graphviz version 2.43.0 (0)
 -->
<!-- Title: %3 Pages: 1 -->
<svg width="126pt" height="116pt"
 viewBox="0.00 0.00 125.50 116.00" xmlns="http://www.w3.org/2000/svg" xmlns:xlink="http://www.w3.org/1999/xlink">
<g id="graph0" class="graph" transform="scale(1 1) rotate(0) translate(4 112)">
<title>%3</title>
<polygon fill="transparent" stroke="transparent" points="-4,4 -4,-112 121.5,-112 121.5,4 -4,4"/>
<!-- 1 -->
<g id="node1" class="node">
<title>1</title>
<g id="a_node1"><a xlink:title="SnprintfFun">
<polygon fill="#bfbfbf" stroke="black" points="104,-108 0,-108 0,-72 104,-72 104,-108"/>
<text text-anchor="middle" x="52" y="-86.3" font-family="Times,serif" font-size="14.00">SnprintfFun</text>
</a>
</g>
</g>
<!-- 2 -->
<g id="node2" class="node">
<title>2</title>
<g id="a_node2"><a xlink:title="PrinterFun">
<polygon fill="#ffffff" stroke="black" points="99.5,-36 4.5,-36 4.5,0 99.5,0 99.5,-36"/>
<text text-anchor="middle" x="52" y="-14.3" font-family="Times,serif" font-size="14.00">PrinterFun</text>
</a>
</g>
</g>
<!-- 1&#45;&gt;2 -->
<g id="edge1" class="edge">
<title>1&#45;&gt;2</title>
<g id="a_edge1"><a xlink:title="usage">
<path fill="none" stroke="#1414ce" d="M52,-71.7C52,-63.98 52,-54.71 52,-46.11"/>
<polygon fill="#1414ce" stroke="#1414ce" points="55.5,-46.1 52,-36.1 48.5,-46.1 55.5,-46.1"/>
</a>
</g>
</g>
<!-- 2&#45;&gt;2 -->
<g id="edge2" class="edge">
<title>2&#45;&gt;2</title>
<g id="a_edge2"><a xlink:title="usage">
<path fill="none" stroke="#1414ce" d="M99.69,-31.1C110.01,-29.82 117.5,-25.45 117.5,-18 117.5,-13.23 114.43,-9.72 109.51,-7.48"/>
<polygon fill="#1414ce" stroke="#1414ce" points="110.25,-4.05 99.69,-4.9 108.47,-10.82 110.25,-4.05"/>
</a>
</g>
</g>
</g>
</svg>
