<?xml version="1.0" encoding="UTF-8" standalone="no"?>
<!DOCTYPE svg PUBLIC "-//W3C//DTD SVG 1.1//EN"
 "http://www.w3.org/Graphics/SVG/1.1/DTD/svg11.dtd">
<!-- Generated by graphviz version 2.43.0 (0)
 -->
<!-- Title: %3 Pages: 1 -->
<svg width="150pt" height="188pt"
 viewBox="0.00 0.00 150.00 188.00" xmlns="http://www.w3.org/2000/svg" xmlns:xlink="http://www.w3.org/1999/xlink">
<g id="graph0" class="graph" transform="scale(1 1) rotate(0) translate(4 184)">
<title>%3</title>
<polygon fill="transparent" stroke="transparent" points="-4,4 -4,-184 146,-184 146,4 -4,4"/>
<!-- 2 -->
<g id="node1" class="node">
<title>2</title>
<g id="a_node1"><a xlink:title="Monitor">
<polygon fill="#ffffff" stroke="black" points="108,-108 34,-108 34,-72 108,-72 108,-108"/>
<text text-anchor="middle" x="71" y="-86.3" font-family="Times,serif" font-size="14.00">Monitor</text>
</a>
</g>
</g>
<!-- 3 -->
<g id="node2" class="node">
<title>3</title>
<g id="a_node2"><a xlink:title="ListHead">
<polygon fill="#ffffff" stroke="black" points="111.5,-36 30.5,-36 30.5,0 111.5,0 111.5,-36"/>
<text text-anchor="middle" x="71" y="-14.3" font-family="Times,serif" font-size="14.00">ListHead</text>
</a>
</g>
</g>
<!-- 2&#45;&gt;3 -->
<g id="edge1" class="edge">
<title>2&#45;&gt;3</title>
<g id="a_edge1"><a xlink:title="usage">
<path fill="none" stroke="#1414ce" d="M71,-71.7C71,-63.98 71,-54.71 71,-46.11"/>
<polygon fill="#1414ce" stroke="#1414ce" points="74.5,-46.1 71,-36.1 67.5,-46.1 74.5,-46.1"/>
</a>
</g>
</g>
<!-- 3&#45;&gt;3 -->
<g id="edge2" class="edge">
<title>3&#45;&gt;3</title>
<g id="a_edge2"><a xlink:title="usage">
<path fill="none" stroke="#1414ce" d="M111.73,-31.31C121.9,-30.38 129.5,-25.95 129.5,-18 129.5,-12.91 126.38,-9.26 121.47,-7.05"/>
<polygon fill="#1414ce" stroke="#1414ce" points="122.28,-3.64 111.73,-4.69 120.63,-10.45 122.28,-3.64"/>
</a>
</g>
</g>
<!-- 1 -->
<g id="node3" class="node">
<title>1</title>
<g id="a_node3"><a xlink:title="LinkLocalMonitor">
<polygon fill="#bfbfbf" stroke="black" points="142,-180 0,-180 0,-144 142,-144 142,-180"/>
<text text-anchor="middle" x="71" y="-158.3" font-family="Times,serif" font-size="14.00">LinkLocalMonitor</text>
</a>
</g>
</g>
<!-- 1&#45;&gt;2 -->
<g id="edge3" class="edge">
<title>1&#45;&gt;2</title>
<g id="a_edge3"><a xlink:title="usage">
<path fill="none" stroke="#1414ce" d="M71,-143.7C71,-135.98 71,-126.71 71,-118.11"/>
<polygon fill="#1414ce" stroke="#1414ce" points="74.5,-118.1 71,-108.1 67.5,-118.1 74.5,-118.1"/>
</a>
</g>
</g>
</g>
</svg>
