<?xml version="1.0" encoding="UTF-8" standalone="no"?>
<!DOCTYPE svg PUBLIC "-//W3C//DTD SVG 1.1//EN"
 "http://www.w3.org/Graphics/SVG/1.1/DTD/svg11.dtd">
<!-- Generated by graphviz version 2.43.0 (0)
 -->
<!-- Title: %3 Pages: 1 -->
<svg width="1146pt" height="116pt"
 viewBox="0.00 0.00 1146.00 116.00" xmlns="http://www.w3.org/2000/svg" xmlns:xlink="http://www.w3.org/1999/xlink">
<g id="graph0" class="graph" transform="scale(1 1) rotate(0) translate(4 112)">
<title>%3</title>
<polygon fill="transparent" stroke="transparent" points="-4,4 -4,-112 1142,-112 1142,4 -4,4"/>
<!-- 4 -->
<g id="node1" class="node">
<title>4</title>
<g id="a_node1"><a xlink:title="/__w/AtomVM/AtomVM/src/libAtomVM/nifs.c">
<polygon fill="#ffffff" stroke="black" points="332,-36 0,-36 0,0 332,0 332,-36"/>
<text text-anchor="middle" x="166" y="-14.3" font-family="Times,serif" font-size="14.00">/__w/AtomVM/AtomVM/src/libAtomVM/nifs.c</text>
</a>
</g>
</g>
<!-- 2 -->
<g id="node2" class="node">
<title>2</title>
<g id="a_node2"><a xlink:title="/__w/AtomVM/AtomVM/src/libAtomVM/avmpack.c">
<polygon fill="#ffffff" stroke="black" points="718,-36 350,-36 350,0 718,0 718,-36"/>
<text text-anchor="middle" x="534" y="-14.3" font-family="Times,serif" font-size="14.00">/__w/AtomVM/AtomVM/src/libAtomVM/avmpack.c</text>
</a>
</g>
</g>
<!-- 1 -->
<g id="node3" class="node">
<title>1</title>
<g id="a_node3"><a xlink:title="/__w/AtomVM/AtomVM/src/libAtomVM/avmpack.h">
<polygon fill="#bfbfbf" stroke="black" points="719,-108 349,-108 349,-72 719,-72 719,-108"/>
<text text-anchor="middle" x="534" y="-86.3" font-family="Times,serif" font-size="14.00">/__w/AtomVM/AtomVM/src/libAtomVM/avmpack.h</text>
</a>
</g>
</g>
<!-- 1&#45;&gt;4 -->
<g id="edge3" class="edge">
<title>1&#45;&gt;4</title>
<g id="a_edge3"><a xlink:title="include">
<path fill="none" stroke="#1414ce" d="M434.55,-70.08C378.77,-59.47 309.74,-46.34 255.63,-36.05"/>
<polygon fill="#1414ce" stroke="#1414ce" points="433.97,-73.54 444.45,-71.97 435.28,-66.66 433.97,-73.54"/>
</a>
</g>
</g>
<!-- 1&#45;&gt;2 -->
<g id="edge1" class="edge">
<title>1&#45;&gt;2</title>
<g id="a_edge1"><a xlink:title="include">
<path fill="none" stroke="#1414ce" d="M534,-61.67C534,-53.05 534,-43.79 534,-36.1"/>
<polygon fill="#1414ce" stroke="#1414ce" points="530.5,-61.7 534,-71.7 537.5,-61.7 530.5,-61.7"/>
</a>
</g>
</g>
<!-- 3 -->
<g id="node4" class="node">
<title>3</title>
<g id="a_node4"><a xlink:title="/__w/AtomVM/AtomVM/src/libAtomVM/globalcontext.c">
<polygon fill="#ffffff" stroke="black" points="1138,-36 736,-36 736,0 1138,0 1138,-36"/>
<text text-anchor="middle" x="937" y="-14.3" font-family="Times,serif" font-size="14.00">/__w/AtomVM/AtomVM/src/libAtomVM/globalcontext.c</text>
</a>
</g>
</g>
<!-- 1&#45;&gt;3 -->
<g id="edge2" class="edge">
<title>1&#45;&gt;3</title>
<g id="a_edge2"><a xlink:title="include">
<path fill="none" stroke="#1414ce" d="M642.15,-70.21C703.37,-59.58 779.35,-46.38 838.84,-36.05"/>
<polygon fill="#1414ce" stroke="#1414ce" points="641.32,-66.81 632.07,-71.97 642.52,-73.7 641.32,-66.81"/>
</a>
</g>
</g>
</g>
</svg>
