<?xml version="1.0" encoding="UTF-8" standalone="no"?>
<!DOCTYPE svg PUBLIC "-//W3C//DTD SVG 1.1//EN"
 "http://www.w3.org/Graphics/SVG/1.1/DTD/svg11.dtd">
<!-- Generated by graphviz version 2.43.0 (0)
 -->
<!-- Title: %3 Pages: 1 -->
<svg width="832pt" height="548pt"
 viewBox="0.00 0.00 831.70 548.00" xmlns="http://www.w3.org/2000/svg" xmlns:xlink="http://www.w3.org/1999/xlink">
<g id="graph0" class="graph" transform="scale(1 1) rotate(0) translate(4 544)">
<title>%3</title>
<polygon fill="transparent" stroke="transparent" points="-4,4 -4,-544 827.7,-544 827.7,4 -4,4"/>
<!-- 5 -->
<g id="node1" class="node">
<title>5</title>
<g id="a_node1"><a xlink:title="stdbool.h">
<polygon fill="#ffffff" stroke="black" points="83,-108 0,-108 0,-72 83,-72 83,-108"/>
<text text-anchor="middle" x="41.5" y="-86.3" font-family="Times,serif" font-size="14.00">stdbool.h</text>
</a>
</g>
</g>
<!-- 18 -->
<g id="node2" class="node">
<title>18</title>
<g id="a_node2"><a xlink:title="refc_binary.h">
<polygon fill="#ffffff" stroke="black" points="465.5,-396 357.5,-396 357.5,-360 465.5,-360 465.5,-396"/>
<text text-anchor="middle" x="411.5" y="-374.3" font-family="Times,serif" font-size="14.00">refc_binary.h</text>
</a>
</g>
</g>
<!-- 18&#45;&gt;5 -->
<g id="edge1" class="edge">
<title>18&#45;&gt;5</title>
<g id="a_edge1"><a xlink:title="include">
<path fill="none" stroke="#1414ce" d="M357.38,-362.61C354.04,-361.73 350.72,-360.85 347.5,-360 286.63,-343.92 263.89,-357.36 210.5,-324 129.02,-273.1 74.61,-167.24 52.56,-117.68"/>
<polygon fill="#1414ce" stroke="#1414ce" points="55.67,-116.04 48.47,-108.27 49.25,-118.84 55.67,-116.04"/>
</a>
</g>
</g>
<!-- 2 -->
<g id="node7" class="node">
<title>2</title>
<g id="a_node7"><a xlink:title="list.h">
<polygon fill="#ffffff" stroke="black" points="182.5,-180 128.5,-180 128.5,-144 182.5,-144 182.5,-180"/>
<text text-anchor="middle" x="155.5" y="-158.3" font-family="Times,serif" font-size="14.00">list.h</text>
</a>
</g>
</g>
<!-- 18&#45;&gt;2 -->
<g id="edge3" class="edge">
<title>18&#45;&gt;2</title>
<g id="a_edge3"><a xlink:title="include">
<path fill="none" stroke="#1414ce" d="M357.41,-363.16C303.28,-346.33 222.09,-312.38 179.5,-252 166.64,-233.77 160.67,-209 157.9,-190.22"/>
<polygon fill="#1414ce" stroke="#1414ce" points="161.36,-189.7 156.64,-180.22 154.41,-190.58 161.36,-189.7"/>
</a>
</g>
</g>
<!-- 8 -->
<g id="node9" class="node">
<title>8</title>
<g id="a_node9"><a xlink:title="stdlib.h">
<polygon fill="#ffffff" stroke="black" points="568,-108 497,-108 497,-72 568,-72 568,-108"/>
<text text-anchor="middle" x="532.5" y="-86.3" font-family="Times,serif" font-size="14.00">stdlib.h</text>
</a>
</g>
</g>
<!-- 18&#45;&gt;8 -->
<g id="edge2" class="edge">
<title>18&#45;&gt;8</title>
<g id="a_edge2"><a xlink:title="include">
<path fill="none" stroke="#1414ce" d="M413.19,-359.9C416.62,-329.76 425.99,-265.68 447.5,-216 463.73,-178.51 491.65,-140.4 511.04,-116.28"/>
<polygon fill="#1414ce" stroke="#1414ce" points="513.89,-118.32 517.51,-108.36 508.47,-113.89 513.89,-118.32"/>
</a>
</g>
</g>
<!-- 19 -->
<g id="node11" class="node">
<title>19</title>
<g id="a_node11"><a xlink:title="resources.h">
<polygon fill="#ffffff" stroke="black" points="392.5,-324 292.5,-324 292.5,-288 392.5,-288 392.5,-324"/>
<text text-anchor="middle" x="342.5" y="-302.3" font-family="Times,serif" font-size="14.00">resources.h</text>
</a>
</g>
</g>
<!-- 18&#45;&gt;19 -->
<g id="edge4" class="edge">
<title>18&#45;&gt;19</title>
<g id="a_edge4"><a xlink:title="include">
<path fill="none" stroke="#1414ce" d="M394.44,-359.7C386,-351.14 375.68,-340.66 366.46,-331.3"/>
<polygon fill="#1414ce" stroke="#1414ce" points="368.87,-328.77 359.36,-324.1 363.89,-333.68 368.87,-328.77"/>
</a>
</g>
</g>
<!-- 13 -->
<g id="node3" class="node">
<title>13</title>
<g id="a_node3"><a xlink:title="assert.h">
<polygon fill="#ffffff" stroke="black" points="346.5,-36 272.5,-36 272.5,0 346.5,0 346.5,-36"/>
<text text-anchor="middle" x="309.5" y="-14.3" font-family="Times,serif" font-size="14.00">assert.h</text>
</a>
</g>
</g>
<!-- 1 -->
<g id="node4" class="node">
<title>1</title>
<g id="a_node4"><a xlink:title="/__w/AtomVM/AtomVM/src/libAtomVM/dictionary.h">
<polygon fill="#bfbfbf" stroke="black" points="412,-540 35,-540 35,-504 412,-504 412,-540"/>
<text text-anchor="middle" x="223.5" y="-518.3" font-family="Times,serif" font-size="14.00">/__w/AtomVM/AtomVM/src/libAtomVM/dictionary.h</text>
</a>
</g>
</g>
<!-- 1&#45;&gt;2 -->
<g id="edge5" class="edge">
<title>1&#45;&gt;2</title>
<g id="a_edge5"><a xlink:title="include">
<path fill="none" stroke="#1414ce" d="M199.86,-503.87C172.34,-482.31 128.37,-442.41 110.5,-396 82.91,-324.33 119.36,-233.5 141.21,-189.41"/>
<polygon fill="#1414ce" stroke="#1414ce" points="144.47,-190.73 145.89,-180.24 138.23,-187.56 144.47,-190.73"/>
</a>
</g>
</g>
<!-- 3 -->
<g id="node12" class="node">
<title>3</title>
<g id="a_node12"><a xlink:title="term.h">
<polygon fill="#ffffff" stroke="black" points="444,-468 379,-468 379,-432 444,-432 444,-468"/>
<text text-anchor="middle" x="411.5" y="-446.3" font-family="Times,serif" font-size="14.00">term.h</text>
</a>
</g>
</g>
<!-- 1&#45;&gt;3 -->
<g id="edge6" class="edge">
<title>1&#45;&gt;3</title>
<g id="a_edge6"><a xlink:title="include">
<path fill="none" stroke="#1414ce" d="M269.49,-503.88C299.96,-492.53 339.63,-477.76 369.3,-466.71"/>
<polygon fill="#1414ce" stroke="#1414ce" points="370.8,-469.89 378.95,-463.12 368.35,-463.33 370.8,-469.89"/>
</a>
</g>
</g>
<!-- 16 -->
<g id="node5" class="node">
<title>16</title>
<g id="a_node5"><a xlink:title="utils.h">
<polygon fill="#ffffff" stroke="black" points="698.5,-180 636.5,-180 636.5,-144 698.5,-144 698.5,-180"/>
<text text-anchor="middle" x="667.5" y="-158.3" font-family="Times,serif" font-size="14.00">utils.h</text>
</a>
</g>
</g>
<!-- 16&#45;&gt;8 -->
<g id="edge9" class="edge">
<title>16&#45;&gt;8</title>
<g id="a_edge9"><a xlink:title="include">
<path fill="none" stroke="#1414ce" d="M636.19,-144.76C617.82,-135.24 594.37,-123.08 574.41,-112.73"/>
<polygon fill="#1414ce" stroke="#1414ce" points="576.01,-109.62 565.52,-108.12 572.79,-115.83 576.01,-109.62"/>
</a>
</g>
</g>
<!-- 17 -->
<g id="node13" class="node">
<title>17</title>
<g id="a_node13"><a xlink:title="stddef.h">
<polygon fill="#ffffff" stroke="black" points="793.5,-108 719.5,-108 719.5,-72 793.5,-72 793.5,-108"/>
<text text-anchor="middle" x="756.5" y="-86.3" font-family="Times,serif" font-size="14.00">stddef.h</text>
</a>
</g>
</g>
<!-- 16&#45;&gt;17 -->
<g id="edge7" class="edge">
<title>16&#45;&gt;17</title>
<g id="a_edge7"><a xlink:title="include">
<path fill="none" stroke="#1414ce" d="M689.5,-143.7C700.71,-134.88 714.5,-124.03 726.65,-114.47"/>
<polygon fill="#1414ce" stroke="#1414ce" points="729.06,-117.04 734.75,-108.1 724.73,-111.54 729.06,-117.04"/>
</a>
</g>
</g>
<!-- 7 -->
<g id="node20" class="node">
<title>7</title>
<g id="a_node20"><a xlink:title="stdio.h">
<polygon fill="#ffffff" stroke="black" points="701,-108 636,-108 636,-72 701,-72 701,-108"/>
<text text-anchor="middle" x="668.5" y="-86.3" font-family="Times,serif" font-size="14.00">stdio.h</text>
</a>
</g>
</g>
<!-- 16&#45;&gt;7 -->
<g id="edge8" class="edge">
<title>16&#45;&gt;7</title>
<g id="a_edge8"><a xlink:title="include">
<path fill="none" stroke="#1414ce" d="M667.75,-143.7C667.86,-135.98 667.99,-126.71 668.11,-118.11"/>
<polygon fill="#1414ce" stroke="#1414ce" points="671.61,-118.15 668.26,-108.1 664.61,-118.05 671.61,-118.15"/>
</a>
</g>
</g>
<!-- 20 -->
<g id="node6" class="node">
<title>20</title>
<g id="a_node6"><a xlink:title="synclist.h">
<polygon fill="#ffffff" stroke="black" points="307,-252 222,-252 222,-216 307,-216 307,-252"/>
<text text-anchor="middle" x="264.5" y="-230.3" font-family="Times,serif" font-size="14.00">synclist.h</text>
</a>
</g>
</g>
<!-- 20&#45;&gt;2 -->
<g id="edge11" class="edge">
<title>20&#45;&gt;2</title>
<g id="a_edge11"><a xlink:title="include">
<path fill="none" stroke="#1414ce" d="M237.84,-215.88C223.72,-206.81 206.19,-195.55 190.94,-185.76"/>
<polygon fill="#1414ce" stroke="#1414ce" points="192.57,-182.65 182.27,-180.19 188.79,-188.54 192.57,-182.65"/>
</a>
</g>
</g>
<!-- 21 -->
<g id="node19" class="node">
<title>21</title>
<g id="a_node19"><a xlink:title="smp.h">
<polygon fill="#ffffff" stroke="black" points="260.5,-180 200.5,-180 200.5,-144 260.5,-144 260.5,-180"/>
<text text-anchor="middle" x="230.5" y="-158.3" font-family="Times,serif" font-size="14.00">smp.h</text>
</a>
</g>
</g>
<!-- 20&#45;&gt;21 -->
<g id="edge12" class="edge">
<title>20&#45;&gt;21</title>
<g id="a_edge12"><a xlink:title="include">
<path fill="none" stroke="#1414ce" d="M256.1,-215.7C252.23,-207.73 247.55,-198.1 243.26,-189.26"/>
<polygon fill="#1414ce" stroke="#1414ce" points="246.33,-187.57 238.81,-180.1 240.03,-190.63 246.33,-187.57"/>
</a>
</g>
</g>
<!-- 20&#45;&gt;7 -->
<g id="edge10" class="edge">
<title>20&#45;&gt;7</title>
<g id="a_edge10"><a xlink:title="include">
<path fill="none" stroke="#1414ce" d="M274.95,-215.67C288.46,-194.94 314.03,-160.91 345.5,-144 437.41,-94.6 474.65,-125.58 577.5,-108 593.2,-105.32 610.39,-102.16 625.56,-99.3"/>
<polygon fill="#1414ce" stroke="#1414ce" points="626.52,-102.68 635.69,-97.38 625.21,-95.81 626.52,-102.68"/>
</a>
</g>
</g>
<!-- 6 -->
<g id="node8" class="node">
<title>6</title>
<g id="a_node8"><a xlink:title="stdint.h">
<polygon fill="#ffffff" stroke="black" points="643.5,-36 571.5,-36 571.5,0 643.5,0 643.5,-36"/>
<text text-anchor="middle" x="607.5" y="-14.3" font-family="Times,serif" font-size="14.00">stdint.h</text>
</a>
</g>
</g>
<!-- 10 -->
<g id="node10" class="node">
<title>10</title>
<g id="a_node10"><a xlink:title="memory.h">
<polygon fill="#ffffff" stroke="black" points="542.5,-252 456.5,-252 456.5,-216 542.5,-216 542.5,-252"/>
<text text-anchor="middle" x="499.5" y="-230.3" font-family="Times,serif" font-size="14.00">memory.h</text>
</a>
</g>
</g>
<!-- 10&#45;&gt;16 -->
<g id="edge17" class="edge">
<title>10&#45;&gt;16</title>
<g id="a_edge17"><a xlink:title="include">
<path fill="none" stroke="#1414ce" d="M540.6,-215.88C566.9,-204.92 600.87,-190.76 627.04,-179.86"/>
<polygon fill="#1414ce" stroke="#1414ce" points="628.42,-183.07 636.31,-176 625.73,-176.61 628.42,-183.07"/>
</a>
</g>
</g>
<!-- 10&#45;&gt;6 -->
<g id="edge13" class="edge">
<title>10&#45;&gt;6</title>
<g id="a_edge13"><a xlink:title="include">
<path fill="none" stroke="#1414ce" d="M511.95,-215.93C528.61,-192.52 558.26,-148.7 577.5,-108 586.99,-87.91 594.88,-64 600.18,-46.02"/>
<polygon fill="#1414ce" stroke="#1414ce" points="603.61,-46.77 603,-36.19 596.88,-44.84 603.61,-46.77"/>
</a>
</g>
</g>
<!-- 10&#45;&gt;8 -->
<g id="edge14" class="edge">
<title>10&#45;&gt;8</title>
<g id="a_edge14"><a xlink:title="include">
<path fill="none" stroke="#1414ce" d="M503.48,-215.87C509.13,-191.56 519.53,-146.82 526.22,-118.01"/>
<polygon fill="#1414ce" stroke="#1414ce" points="529.65,-118.72 528.51,-108.19 522.83,-117.14 529.65,-118.72"/>
</a>
</g>
</g>
<!-- 11 -->
<g id="node14" class="node">
<title>11</title>
<g id="a_node14"><a xlink:title="erl_nif.h">
<polygon fill="#ffffff" stroke="black" points="428.5,-180 354.5,-180 354.5,-144 428.5,-144 428.5,-180"/>
<text text-anchor="middle" x="391.5" y="-158.3" font-family="Times,serif" font-size="14.00">erl_nif.h</text>
</a>
</g>
</g>
<!-- 10&#45;&gt;11 -->
<g id="edge15" class="edge">
<title>10&#45;&gt;11</title>
<g id="a_edge15"><a xlink:title="include">
<path fill="none" stroke="#1414ce" d="M473.08,-215.88C459.09,-206.81 441.72,-195.55 426.61,-185.76"/>
<polygon fill="#1414ce" stroke="#1414ce" points="428.32,-182.69 418.02,-180.19 424.51,-188.57 428.32,-182.69"/>
</a>
</g>
</g>
<!-- 12 -->
<g id="node18" class="node">
<title>12</title>
<g id="a_node18"><a xlink:title="term_typedef.h">
<polygon fill="#ffffff" stroke="black" points="463,-108 338,-108 338,-72 463,-72 463,-108"/>
<text text-anchor="middle" x="400.5" y="-86.3" font-family="Times,serif" font-size="14.00">term_typedef.h</text>
</a>
</g>
</g>
<!-- 10&#45;&gt;12 -->
<g id="edge16" class="edge">
<title>10&#45;&gt;12</title>
<g id="a_edge16"><a xlink:title="include">
<path fill="none" stroke="#1414ce" d="M487.62,-215.93C475.14,-198.02 454.95,-169.02 437.5,-144 431.24,-135.03 424.38,-125.2 418.29,-116.47"/>
<polygon fill="#1414ce" stroke="#1414ce" points="421.1,-114.38 412.5,-108.18 415.36,-118.39 421.1,-114.38"/>
</a>
</g>
</g>
<!-- 19&#45;&gt;20 -->
<g id="edge22" class="edge">
<title>19&#45;&gt;20</title>
<g id="a_edge22"><a xlink:title="include">
<path fill="none" stroke="#1414ce" d="M323.22,-287.7C313.58,-279.05 301.77,-268.45 291.27,-259.03"/>
<polygon fill="#1414ce" stroke="#1414ce" points="293.34,-256.18 283.56,-252.1 288.66,-261.39 293.34,-256.18"/>
</a>
</g>
</g>
<!-- 19&#45;&gt;2 -->
<g id="edge20" class="edge">
<title>19&#45;&gt;2</title>
<g id="a_edge20"><a xlink:title="include">
<path fill="none" stroke="#1414ce" d="M292.35,-292.48C266.45,-284.16 235.54,-271.18 212.5,-252 192.23,-235.13 176.76,-209.15 167.08,-189.61"/>
<polygon fill="#1414ce" stroke="#1414ce" points="170.13,-187.86 162.68,-180.33 163.8,-190.86 170.13,-187.86"/>
</a>
</g>
</g>
<!-- 19&#45;&gt;8 -->
<g id="edge18" class="edge">
<title>19&#45;&gt;8</title>
<g id="a_edge18"><a xlink:title="include">
<path fill="none" stroke="#1414ce" d="M336.83,-287.82C327.43,-255.82 312.73,-186.51 345.5,-144 346.06,-143.28 431.48,-119.27 486.66,-103.81"/>
<polygon fill="#1414ce" stroke="#1414ce" points="487.9,-107.1 496.59,-101.04 486.01,-100.36 487.9,-107.1"/>
</a>
</g>
</g>
<!-- 19&#45;&gt;10 -->
<g id="edge21" class="edge">
<title>19&#45;&gt;10</title>
<g id="a_edge21"><a xlink:title="include">
<path fill="none" stroke="#1414ce" d="M380.91,-287.88C402.37,-278.31 429.3,-266.3 452.07,-256.15"/>
<polygon fill="#1414ce" stroke="#1414ce" points="453.51,-259.34 461.22,-252.07 450.66,-252.94 453.51,-259.34"/>
</a>
</g>
</g>
<!-- 19&#45;&gt;11 -->
<g id="edge19" class="edge">
<title>19&#45;&gt;11</title>
<g id="a_edge19"><a xlink:title="include">
<path fill="none" stroke="#1414ce" d="M348.41,-287.87C356.8,-263.56 372.24,-218.82 382.18,-190.01"/>
<polygon fill="#1414ce" stroke="#1414ce" points="385.62,-190.78 385.57,-180.19 379,-188.5 385.62,-190.78"/>
</a>
</g>
</g>
<!-- 3&#45;&gt;5 -->
<g id="edge24" class="edge">
<title>3&#45;&gt;5</title>
<g id="a_edge24"><a xlink:title="include">
<path fill="none" stroke="#1414ce" d="M378.8,-447.69C309,-444.21 148.68,-432.36 110.5,-396 32.22,-321.45 33.97,-178.37 38.61,-118.45"/>
<polygon fill="#1414ce" stroke="#1414ce" points="42.12,-118.53 39.49,-108.27 35.14,-117.93 42.12,-118.53"/>
</a>
</g>
</g>
<!-- 3&#45;&gt;18 -->
<g id="edge30" class="edge">
<title>3&#45;&gt;18</title>
<g id="a_edge30"><a xlink:title="include">
<path fill="none" stroke="#1414ce" d="M411.5,-431.7C411.5,-423.98 411.5,-414.71 411.5,-406.11"/>
<polygon fill="#1414ce" stroke="#1414ce" points="415,-406.1 411.5,-396.1 408,-406.1 415,-406.1"/>
</a>
</g>
</g>
<!-- 3&#45;&gt;16 -->
<g id="edge31" class="edge">
<title>3&#45;&gt;16</title>
<g id="a_edge31"><a xlink:title="include">
<path fill="none" stroke="#1414ce" d="M444.22,-447.54C482.65,-444.1 546.01,-432.79 584.5,-396 643.51,-339.58 660.65,-238.45 665.56,-190.14"/>
<polygon fill="#1414ce" stroke="#1414ce" points="669.05,-190.4 666.48,-180.13 662.08,-189.77 669.05,-190.4"/>
</a>
</g>
</g>
<!-- 3&#45;&gt;6 -->
<g id="edge25" class="edge">
<title>3&#45;&gt;6</title>
<g id="a_edge25"><a xlink:title="include">
<path fill="none" stroke="#1414ce" d="M444.22,-448.3C500.6,-446 618.66,-436.32 708.5,-396 766.82,-369.82 821.5,-370.93 821.5,-307 821.5,-307 821.5,-307 821.5,-161 821.5,-120.55 830.3,-101.38 802.5,-72 764.21,-31.54 698.41,-20.88 653.95,-18.62"/>
<polygon fill="#1414ce" stroke="#1414ce" points="653.82,-15.11 643.69,-18.23 653.55,-22.11 653.82,-15.11"/>
</a>
</g>
</g>
<!-- 3&#45;&gt;8 -->
<g id="edge27" class="edge">
<title>3&#45;&gt;8</title>
<g id="a_edge27"><a xlink:title="include">
<path fill="none" stroke="#1414ce" d="M444.06,-436.99C490.58,-417.47 570.5,-374.17 570.5,-307 570.5,-307 570.5,-307 570.5,-233 570.5,-191.63 555.27,-145.72 544.09,-117.61"/>
<polygon fill="#1414ce" stroke="#1414ce" points="547.22,-116.02 540.19,-108.09 540.74,-118.67 547.22,-116.02"/>
</a>
</g>
</g>
<!-- 3&#45;&gt;10 -->
<g id="edge29" class="edge">
<title>3&#45;&gt;10</title>
<g id="a_edge29"><a xlink:title="include">
<path fill="none" stroke="#1414ce" d="M439.8,-431.98C452.43,-422.9 466.3,-410.57 474.5,-396 498.29,-353.74 501.43,-295.87 500.91,-262.26"/>
<polygon fill="#1414ce" stroke="#1414ce" points="504.4,-262.15 500.63,-252.25 497.41,-262.34 504.4,-262.15"/>
</a>
</g>
</g>
<!-- 4 -->
<g id="node16" class="node">
<title>4</title>
<g id="a_node16"><a xlink:title="sys/types.h">
<polygon fill="#ffffff" stroke="black" points="248,-396 151,-396 151,-360 248,-360 248,-396"/>
<text text-anchor="middle" x="199.5" y="-374.3" font-family="Times,serif" font-size="14.00">sys/types.h</text>
</a>
</g>
</g>
<!-- 3&#45;&gt;4 -->
<g id="edge23" class="edge">
<title>3&#45;&gt;4</title>
<g id="a_edge23"><a xlink:title="include">
<path fill="none" stroke="#1414ce" d="M378.84,-438.22C346.72,-427.61 296.97,-411.18 258.01,-398.32"/>
<polygon fill="#1414ce" stroke="#1414ce" points="258.95,-394.94 248.36,-395.13 256.76,-401.59 258.95,-394.94"/>
</a>
</g>
</g>
<!-- 9 -->
<g id="node17" class="node">
<title>9</title>
<g id="a_node17"><a xlink:title="string.h">
<polygon fill="#ffffff" stroke="black" points="339,-396 266,-396 266,-360 339,-360 339,-396"/>
<text text-anchor="middle" x="302.5" y="-374.3" font-family="Times,serif" font-size="14.00">string.h</text>
</a>
</g>
</g>
<!-- 3&#45;&gt;9 -->
<g id="edge28" class="edge">
<title>3&#45;&gt;9</title>
<g id="a_edge28"><a xlink:title="include">
<path fill="none" stroke="#1414ce" d="M384.84,-431.88C370.72,-422.81 353.19,-411.55 337.94,-401.76"/>
<polygon fill="#1414ce" stroke="#1414ce" points="339.57,-398.65 329.27,-396.19 335.79,-404.54 339.57,-398.65"/>
</a>
</g>
</g>
<!-- 3&#45;&gt;12 -->
<g id="edge32" class="edge">
<title>3&#45;&gt;12</title>
<g id="a_edge32"><a xlink:title="include">
<path fill="none" stroke="#1414ce" d="M378.66,-447.3C313.83,-443.22 172.96,-430.51 141.5,-396 65.76,-312.92 47.75,-230.55 119.5,-144 145.45,-112.7 253.23,-99.76 327.5,-94.49"/>
<polygon fill="#1414ce" stroke="#1414ce" points="328,-97.97 337.75,-93.8 327.53,-90.98 328,-97.97"/>
</a>
</g>
</g>
<!-- 3&#45;&gt;7 -->
<g id="edge26" class="edge">
<title>3&#45;&gt;7</title>
<g id="a_edge26"><a xlink:title="include">
<path fill="none" stroke="#1414ce" d="M444.02,-448.98C524.51,-447.06 726.5,-429.97 726.5,-307 726.5,-307 726.5,-307 726.5,-233 726.5,-192.55 724.08,-180.89 707.5,-144 703.14,-134.31 696.81,-124.66 690.5,-116.31"/>
<polygon fill="#1414ce" stroke="#1414ce" points="693.23,-114.11 684.28,-108.44 687.73,-118.45 693.23,-114.11"/>
</a>
</g>
</g>
<!-- 11&#45;&gt;12 -->
<g id="edge33" class="edge">
<title>11&#45;&gt;12</title>
<g id="a_edge33"><a xlink:title="include">
<path fill="none" stroke="#1414ce" d="M393.72,-143.7C394.72,-135.98 395.91,-126.71 397.01,-118.11"/>
<polygon fill="#1414ce" stroke="#1414ce" points="400.5,-118.47 398.3,-108.1 393.55,-117.58 400.5,-118.47"/>
</a>
</g>
</g>
<!-- 14 -->
<g id="node15" class="node">
<title>14</title>
<g id="a_node15"><a xlink:title="limits.h">
<polygon fill="#ffffff" stroke="black" points="436,-36 365,-36 365,0 436,0 436,-36"/>
<text text-anchor="middle" x="400.5" y="-14.3" font-family="Times,serif" font-size="14.00">limits.h</text>
</a>
</g>
</g>
<!-- 12&#45;&gt;13 -->
<g id="edge34" class="edge">
<title>12&#45;&gt;13</title>
<g id="a_edge34"><a xlink:title="include">
<path fill="none" stroke="#1414ce" d="M378.01,-71.7C366.54,-62.88 352.44,-52.03 340.02,-42.47"/>
<polygon fill="#1414ce" stroke="#1414ce" points="341.8,-39.43 331.74,-36.1 337.53,-44.98 341.8,-39.43"/>
</a>
</g>
</g>
<!-- 12&#45;&gt;6 -->
<g id="edge37" class="edge">
<title>12&#45;&gt;6</title>
<g id="a_edge37"><a xlink:title="include">
<path fill="none" stroke="#1414ce" d="M450.87,-71.97C484.6,-60.56 528.66,-45.66 561.45,-34.57"/>
<polygon fill="#1414ce" stroke="#1414ce" points="562.89,-37.78 571.24,-31.26 560.65,-31.15 562.89,-37.78"/>
</a>
</g>
</g>
<!-- 12&#45;&gt;14 -->
<g id="edge35" class="edge">
<title>12&#45;&gt;14</title>
<g id="a_edge35"><a xlink:title="include">
<path fill="none" stroke="#1414ce" d="M400.5,-71.7C400.5,-63.98 400.5,-54.71 400.5,-46.11"/>
<polygon fill="#1414ce" stroke="#1414ce" points="404,-46.1 400.5,-36.1 397,-46.1 404,-46.1"/>
</a>
</g>
</g>
<!-- 15 -->
<g id="node21" class="node">
<title>15</title>
<g id="a_node21"><a xlink:title="inttypes.h">
<polygon fill="#ffffff" stroke="black" points="543,-36 454,-36 454,0 543,0 543,-36"/>
<text text-anchor="middle" x="498.5" y="-14.3" font-family="Times,serif" font-size="14.00">inttypes.h</text>
</a>
</g>
</g>
<!-- 12&#45;&gt;15 -->
<g id="edge36" class="edge">
<title>12&#45;&gt;15</title>
<g id="a_edge36"><a xlink:title="include">
<path fill="none" stroke="#1414ce" d="M424.47,-71.88C437.05,-62.89 452.63,-51.76 466.25,-42.03"/>
<polygon fill="#1414ce" stroke="#1414ce" points="468.33,-44.85 474.43,-36.19 464.26,-39.15 468.33,-44.85"/>
</a>
</g>
</g>
<!-- 21&#45;&gt;5 -->
<g id="edge38" class="edge">
<title>21&#45;&gt;5</title>
<g id="a_edge38"><a xlink:title="include">
<path fill="none" stroke="#1414ce" d="M200.36,-147.61C197.38,-146.36 194.39,-145.14 191.5,-144 158.95,-131.17 121.88,-118.06 92.74,-108.09"/>
<polygon fill="#1414ce" stroke="#1414ce" points="93.77,-104.75 83.18,-104.83 91.52,-111.37 93.77,-104.75"/>
</a>
</g>
</g>
</g>
</svg>
