<?xml version="1.0" encoding="UTF-8" standalone="no"?>
<!DOCTYPE svg PUBLIC "-//W3C//DTD SVG 1.1//EN"
 "http://www.w3.org/Graphics/SVG/1.1/DTD/svg11.dtd">
<!-- Generated by graphviz version 2.43.0 (0)
 -->
<!-- Title: g Pages: 1 -->
<svg width="396pt" height="288pt"
 viewBox="0.00 0.00 396.00 288.00" xmlns="http://www.w3.org/2000/svg" xmlns:xlink="http://www.w3.org/1999/xlink">
<g id="graph0" class="graph" transform="scale(1 1) rotate(0) translate(4 284)">
<title>g</title>
<polygon fill="white" stroke="transparent" points="-4,4 -4,-284 392,-284 392,4 -4,4"/>
<!-- GlobalContext -->
<g id="node1" class="node">
<title>GlobalContext</title>
<path fill="none" stroke="black" d="M12,-139.5C12,-139.5 141,-139.5 141,-139.5 147,-139.5 153,-145.5 153,-151.5 153,-151.5 153,-257.5 153,-257.5 153,-263.5 147,-269.5 141,-269.5 141,-269.5 12,-269.5 12,-269.5 6,-269.5 0,-263.5 0,-257.5 0,-257.5 0,-151.5 0,-151.5 0,-145.5 6,-139.5 12,-139.5"/>
<text text-anchor="middle" x="76.5" y="-252.7" font-family="Courier,monospace" font-size="16.00">GlobalContext</text>
<polyline fill="none" stroke="black" points="0,-243.5 153,-243.5 "/>
<text text-anchor="middle" x="76.5" y="-226.7" font-family="Courier,monospace" font-size="16.00">...</text>
<polyline fill="none" stroke="black" points="0,-217.5 153,-217.5 "/>
<text text-anchor="middle" x="76.5" y="-200.7" font-family="Courier,monospace" font-size="16.00">atoms_table</text>
<polyline fill="none" stroke="black" points="0,-191.5 153,-191.5 "/>
<text text-anchor="middle" x="76.5" y="-174.7" font-family="Courier,monospace" font-size="16.00">atoms_id_table</text>
<polyline fill="none" stroke="black" points="0,-165.5 153,-165.5 "/>
<text text-anchor="middle" x="76.5" y="-148.7" font-family="Courier,monospace" font-size="16.00">...</text>
</g>
<!-- AtomsTable -->
<g id="node2" class="node">
<title>AtomsTable</title>
<path fill="none" stroke="black" d="M201,-149.5C201,-149.5 376,-149.5 376,-149.5 382,-149.5 388,-155.5 388,-161.5 388,-161.5 388,-267.5 388,-267.5 388,-273.5 382,-279.5 376,-279.5 376,-279.5 201,-279.5 201,-279.5 195,-279.5 189,-273.5 189,-267.5 189,-267.5 189,-161.5 189,-161.5 189,-155.5 195,-149.5 201,-149.5"/>
<text text-anchor="middle" x="288.5" y="-262.7" font-family="Courier,monospace" font-size="16.00">AtomsHashtable</text>
<polyline fill="none" stroke="black" points="189,-253.5 388,-253.5 "/>
<text text-anchor="middle" x="246" y="-236.7" font-family="Courier,monospace" font-size="16.00">AtomString</text>
<polyline fill="none" stroke="black" points="189,-227.5 303,-227.5 "/>
<text text-anchor="middle" x="246" y="-210.7" font-family="Courier,monospace" font-size="16.00">\x2ok</text>
<polyline fill="none" stroke="black" points="189,-201.5 303,-201.5 "/>
<text text-anchor="middle" x="246" y="-184.7" font-family="Courier,monospace" font-size="16.00">\x5error</text>
<polyline fill="none" stroke="black" points="189,-175.5 303,-175.5 "/>
<text text-anchor="middle" x="246" y="-158.7" font-family="Courier,monospace" font-size="16.00">...</text>
<polyline fill="none" stroke="black" points="303,-149.5 303,-253.5 "/>
<text text-anchor="middle" x="345.5" y="-236.7" font-family="Courier,monospace" font-size="16.00">atom_id</text>
<polyline fill="none" stroke="black" points="303,-227.5 388,-227.5 "/>
<text text-anchor="middle" x="345.5" y="-210.7" font-family="Courier,monospace" font-size="16.00">0</text>
<polyline fill="none" stroke="black" points="303,-201.5 388,-201.5 "/>
<text text-anchor="middle" x="345.5" y="-184.7" font-family="Courier,monospace" font-size="16.00">1</text>
<polyline fill="none" stroke="black" points="303,-175.5 388,-175.5 "/>
<text text-anchor="middle" x="345.5" y="-158.7" font-family="Courier,monospace" font-size="16.00">...</text>
</g>
<!-- GlobalContext&#45;&gt;AtomsTable -->
<g id="edge1" class="edge">
<title>GlobalContext:at&#45;&gt;AtomsTable:f0</title>
<path fill="none" stroke="black" d="M153,-204.5C180.63,-204.5 163.45,-251.12 179.18,-263.51"/>
<polygon fill="black" stroke="black" points="178.41,-266.94 189,-266.5 180.45,-260.24 178.41,-266.94"/>
</g>
<!-- AtomsIDTable -->
<g id="node3" class="node">
<title>AtomsIDTable</title>
<path fill="none" stroke="black" d="M201,-0.5C201,-0.5 376,-0.5 376,-0.5 382,-0.5 388,-6.5 388,-12.5 388,-12.5 388,-118.5 388,-118.5 388,-124.5 382,-130.5 376,-130.5 376,-130.5 201,-130.5 201,-130.5 195,-130.5 189,-124.5 189,-118.5 189,-118.5 189,-12.5 189,-12.5 189,-6.5 195,-0.5 201,-0.5"/>
<text text-anchor="middle" x="288.5" y="-113.7" font-family="Courier,monospace" font-size="16.00">ValuesHashtable</text>
<polyline fill="none" stroke="black" points="189,-104.5 388,-104.5 "/>
<text text-anchor="middle" x="231.5" y="-87.7" font-family="Courier,monospace" font-size="16.00">atom_id</text>
<polyline fill="none" stroke="black" points="189,-78.5 274,-78.5 "/>
<text text-anchor="middle" x="231.5" y="-61.7" font-family="Courier,monospace" font-size="16.00">0</text>
<polyline fill="none" stroke="black" points="189,-52.5 274,-52.5 "/>
<text text-anchor="middle" x="231.5" y="-35.7" font-family="Courier,monospace" font-size="16.00">1</text>
<polyline fill="none" stroke="black" points="189,-26.5 274,-26.5 "/>
<text text-anchor="middle" x="231.5" y="-9.7" font-family="Courier,monospace" font-size="16.00">...</text>
<polyline fill="none" stroke="black" points="274,-0.5 274,-104.5 "/>
<text text-anchor="middle" x="331" y="-87.7" font-family="Courier,monospace" font-size="16.00">AtomString</text>
<polyline fill="none" stroke="black" points="274,-78.5 388,-78.5 "/>
<text text-anchor="middle" x="331" y="-61.7" font-family="Courier,monospace" font-size="16.00">\x2ok</text>
<polyline fill="none" stroke="black" points="274,-52.5 388,-52.5 "/>
<text text-anchor="middle" x="331" y="-35.7" font-family="Courier,monospace" font-size="16.00">\x5error</text>
<polyline fill="none" stroke="black" points="274,-26.5 388,-26.5 "/>
<text text-anchor="middle" x="331" y="-9.7" font-family="Courier,monospace" font-size="16.00">...</text>
</g>
<!-- GlobalContext&#45;&gt;AtomsIDTable -->
<g id="edge2" class="edge">
<title>GlobalContext:ait&#45;&gt;AtomsIDTable:f0</title>
<path fill="none" stroke="black" d="M153,-178.5C180.3,-178.5 163.65,-132.63 179.28,-120.44"/>
<polygon fill="black" stroke="black" points="180.44,-123.75 189,-117.5 178.41,-117.05 180.44,-123.75"/>
</g>
</g>
</svg>
