<?xml version="1.0" encoding="UTF-8" standalone="no"?>
<!DOCTYPE svg PUBLIC "-//W3C//DTD SVG 1.1//EN"
 "http://www.w3.org/Graphics/SVG/1.1/DTD/svg11.dtd">
<!-- Generated by graphviz version 2.43.0 (0)
 -->
<!-- Title: %3 Pages: 1 -->
<svg width="1359pt" height="764pt"
 viewBox="0.00 0.00 1359.00 764.00" xmlns="http://www.w3.org/2000/svg" xmlns:xlink="http://www.w3.org/1999/xlink">
<g id="graph0" class="graph" transform="scale(1 1) rotate(0) translate(4 760)">
<title>%3</title>
<polygon fill="transparent" stroke="transparent" points="-4,4 -4,-760 1355,-760 1355,4 -4,4"/>
<!-- 5 -->
<g id="node1" class="node">
<title>5</title>
<g id="a_node1"><a xlink:title="atom.h">
<polygon fill="#ffffff" stroke="black" points="106,-396 40,-396 40,-360 106,-360 106,-396"/>
<text text-anchor="middle" x="73" y="-374.3" font-family="Times,serif" font-size="14.00">atom.h</text>
</a>
</g>
</g>
<!-- 4 -->
<g id="node29" class="node">
<title>4</title>
<g id="a_node29"><a xlink:title="stdint.h">
<polygon fill="#ffffff" stroke="black" points="633,-36 561,-36 561,0 633,0 633,-36"/>
<text text-anchor="middle" x="597" y="-14.3" font-family="Times,serif" font-size="14.00">stdint.h</text>
</a>
</g>
</g>
<!-- 5&#45;&gt;4 -->
<g id="edge1" class="edge">
<title>5&#45;&gt;4</title>
<g id="a_edge1"><a xlink:title="include">
<path fill="none" stroke="#1414ce" d="M74.98,-359.98C77.89,-333.36 83,-280.23 83,-235 83,-235 83,-235 83,-161 83,-64.42 424.39,-30.95 550.72,-21.87"/>
<polygon fill="#1414ce" stroke="#1414ce" points="551.13,-25.35 560.86,-21.16 550.64,-18.36 551.13,-25.35"/>
</a>
</g>
</g>
<!-- 6 -->
<g id="node31" class="node">
<title>6</title>
<g id="a_node31"><a xlink:title="stdlib.h">
<polygon fill="#ffffff" stroke="black" points="986.5,-108 915.5,-108 915.5,-72 986.5,-72 986.5,-108"/>
<text text-anchor="middle" x="951" y="-86.3" font-family="Times,serif" font-size="14.00">stdlib.h</text>
</a>
</g>
</g>
<!-- 5&#45;&gt;6 -->
<g id="edge2" class="edge">
<title>5&#45;&gt;6</title>
<g id="a_edge2"><a xlink:title="include">
<path fill="none" stroke="#1414ce" d="M82.06,-359.68C99.67,-327.47 141.47,-257.81 194,-216 255.65,-166.93 279.5,-162.88 356,-144 592.54,-85.62 664.37,-157.13 903,-108 903.89,-107.82 904.79,-107.62 905.69,-107.41"/>
<polygon fill="#1414ce" stroke="#1414ce" points="906.64,-110.78 915.4,-104.82 904.83,-104.02 906.64,-110.78"/>
</a>
</g>
</g>
<!-- 7 -->
<g id="node2" class="node">
<title>7</title>
<g id="a_node2"><a xlink:title="atom_table.h">
<polygon fill="#ffffff" stroke="black" points="213.5,-468 104.5,-468 104.5,-432 213.5,-432 213.5,-468"/>
<text text-anchor="middle" x="159" y="-446.3" font-family="Times,serif" font-size="14.00">atom_table.h</text>
</a>
</g>
</g>
<!-- 7&#45;&gt;5 -->
<g id="edge4" class="edge">
<title>7&#45;&gt;5</title>
<g id="a_edge4"><a xlink:title="include">
<path fill="none" stroke="#1414ce" d="M137.74,-431.7C126.91,-422.88 113.58,-412.03 101.84,-402.47"/>
<polygon fill="#1414ce" stroke="#1414ce" points="103.98,-399.7 94.01,-396.1 99.56,-405.13 103.98,-399.7"/>
</a>
</g>
</g>
<!-- 8 -->
<g id="node27" class="node">
<title>8</title>
<g id="a_node27"><a xlink:title="stdbool.h">
<polygon fill="#ffffff" stroke="black" points="564.5,-108 481.5,-108 481.5,-72 564.5,-72 564.5,-108"/>
<text text-anchor="middle" x="523" y="-86.3" font-family="Times,serif" font-size="14.00">stdbool.h</text>
</a>
</g>
</g>
<!-- 7&#45;&gt;8 -->
<g id="edge3" class="edge">
<title>7&#45;&gt;8</title>
<g id="a_edge3"><a xlink:title="include">
<path fill="none" stroke="#1414ce" d="M157.32,-431.91C153.11,-378.32 148.52,-212.99 243,-144 278.65,-117.96 400.68,-102.47 471.32,-95.47"/>
<polygon fill="#1414ce" stroke="#1414ce" points="471.74,-98.95 481.36,-94.5 471.07,-91.98 471.74,-98.95"/>
</a>
</g>
</g>
<!-- 29 -->
<g id="node3" class="node">
<title>29</title>
<g id="a_node3"><a xlink:title="context.h">
<polygon fill="#ffffff" stroke="black" points="613.5,-612 530.5,-612 530.5,-576 613.5,-576 613.5,-612"/>
<text text-anchor="middle" x="572" y="-590.3" font-family="Times,serif" font-size="14.00">context.h</text>
</a>
</g>
</g>
<!-- 3 -->
<g id="node8" class="node">
<title>3</title>
<g id="a_node8"><a xlink:title="globalcontext.h">
<polygon fill="#ffffff" stroke="black" points="408.5,-540 281.5,-540 281.5,-504 408.5,-504 408.5,-540"/>
<text text-anchor="middle" x="345" y="-518.3" font-family="Times,serif" font-size="14.00">globalcontext.h</text>
</a>
</g>
</g>
<!-- 29&#45;&gt;3 -->
<g id="edge5" class="edge">
<title>29&#45;&gt;3</title>
<g id="a_edge5"><a xlink:title="include">
<path fill="none" stroke="#1414ce" d="M530.3,-579.28C526.82,-578.16 523.35,-577.06 520,-576 484.6,-564.85 445.04,-552.84 412.5,-543.07"/>
<polygon fill="#1414ce" stroke="#1414ce" points="413.22,-539.63 402.64,-540.11 411.21,-546.33 413.22,-539.63"/>
</a>
</g>
</g>
<!-- 14 -->
<g id="node10" class="node">
<title>14</title>
<g id="a_node10"><a xlink:title="list.h">
<polygon fill="#ffffff" stroke="black" points="569,-180 515,-180 515,-144 569,-144 569,-180"/>
<text text-anchor="middle" x="542" y="-158.3" font-family="Times,serif" font-size="14.00">list.h</text>
</a>
</g>
</g>
<!-- 29&#45;&gt;14 -->
<g id="edge6" class="edge">
<title>29&#45;&gt;14</title>
<g id="a_edge6"><a xlink:title="include">
<path fill="none" stroke="#1414ce" d="M575.44,-575.59C580.41,-548.9 589,-496.19 589,-451 589,-451 589,-451 589,-377 589,-340.59 562.71,-238.95 549.46,-190.01"/>
<polygon fill="#1414ce" stroke="#1414ce" points="552.77,-188.86 546.77,-180.13 546.02,-190.7 552.77,-188.86"/>
</a>
</g>
</g>
<!-- 15 -->
<g id="node11" class="node">
<title>15</title>
<g id="a_node11"><a xlink:title="mailbox.h">
<polygon fill="#ffffff" stroke="black" points="694,-252 608,-252 608,-216 694,-216 694,-252"/>
<text text-anchor="middle" x="651" y="-230.3" font-family="Times,serif" font-size="14.00">mailbox.h</text>
</a>
</g>
</g>
<!-- 29&#45;&gt;15 -->
<g id="edge7" class="edge">
<title>29&#45;&gt;15</title>
<g id="a_edge7"><a xlink:title="include">
<path fill="none" stroke="#1414ce" d="M567.75,-575.63C561.61,-548.99 551,-496.36 551,-451 551,-451 551,-451 551,-377 551,-328.49 590.49,-284.87 619.84,-259.16"/>
<polygon fill="#1414ce" stroke="#1414ce" points="622.45,-261.53 627.81,-252.39 617.92,-256.19 622.45,-261.53"/>
</a>
</g>
</g>
<!-- 19 -->
<g id="node18" class="node">
<title>19</title>
<g id="a_node18"><a xlink:title="smp.h">
<polygon fill="#ffffff" stroke="black" points="425,-180 365,-180 365,-144 425,-144 425,-180"/>
<text text-anchor="middle" x="395" y="-158.3" font-family="Times,serif" font-size="14.00">smp.h</text>
</a>
</g>
</g>
<!-- 29&#45;&gt;19 -->
<g id="edge8" class="edge">
<title>29&#45;&gt;19</title>
<g id="a_edge8"><a xlink:title="include">
<path fill="none" stroke="#1414ce" d="M558.2,-575.92C520.72,-528.28 417.44,-388.43 382,-252 376.68,-231.53 380.63,-207.81 385.53,-190.01"/>
<polygon fill="#1414ce" stroke="#1414ce" points="388.92,-190.87 388.46,-180.28 382.22,-188.85 388.92,-190.87"/>
</a>
</g>
</g>
<!-- 21 -->
<g id="node20" class="node">
<title>21</title>
<g id="a_node20"><a xlink:title="term.h">
<polygon fill="#ffffff" stroke="black" points="867.5,-468 802.5,-468 802.5,-432 867.5,-432 867.5,-468"/>
<text text-anchor="middle" x="835" y="-446.3" font-family="Times,serif" font-size="14.00">term.h</text>
</a>
</g>
</g>
<!-- 29&#45;&gt;21 -->
<g id="edge9" class="edge">
<title>29&#45;&gt;21</title>
<g id="a_edge9"><a xlink:title="include">
<path fill="none" stroke="#1414ce" d="M581.74,-575.91C594.11,-555.73 617.34,-522.59 646,-504 690.98,-474.83 752.04,-461.5 792.44,-455.55"/>
<polygon fill="#1414ce" stroke="#1414ce" points="793.07,-459 802.5,-454.16 792.11,-452.07 793.07,-459"/>
</a>
</g>
</g>
<!-- 27 -->
<g id="node22" class="node">
<title>27</title>
<g id="a_node22"><a xlink:title="timer_list.h">
<polygon fill="#ffffff" stroke="black" points="334,-252 236,-252 236,-216 334,-216 334,-252"/>
<text text-anchor="middle" x="285" y="-230.3" font-family="Times,serif" font-size="14.00">timer_list.h</text>
</a>
</g>
</g>
<!-- 29&#45;&gt;27 -->
<g id="edge10" class="edge">
<title>29&#45;&gt;27</title>
<g id="a_edge10"><a xlink:title="include">
<path fill="none" stroke="#1414ce" d="M543.95,-575.83C529.61,-566.29 512.4,-553.62 499,-540 409.37,-448.91 330.62,-316.76 299.35,-261.18"/>
<polygon fill="#1414ce" stroke="#1414ce" points="302.33,-259.35 294.4,-252.32 296.22,-262.76 302.33,-259.35"/>
</a>
</g>
</g>
<!-- 2 -->
<g id="node4" class="node">
<title>2</title>
<g id="a_node4"><a xlink:title="defaultatoms.h">
<polygon fill="#ffffff" stroke="black" points="511,-612 387,-612 387,-576 511,-576 511,-612"/>
<text text-anchor="middle" x="449" y="-590.3" font-family="Times,serif" font-size="14.00">defaultatoms.h</text>
</a>
</g>
</g>
<!-- 2&#45;&gt;3 -->
<g id="edge11" class="edge">
<title>2&#45;&gt;3</title>
<g id="a_edge11"><a xlink:title="include">
<path fill="none" stroke="#1414ce" d="M423.56,-575.88C410.21,-566.89 393.68,-555.76 379.22,-546.03"/>
<polygon fill="#1414ce" stroke="#1414ce" points="380.79,-542.87 370.54,-540.19 376.88,-548.68 380.79,-542.87"/>
</a>
</g>
</g>
<!-- 9 -->
<g id="node5" class="node">
<title>9</title>
<g id="a_node5"><a xlink:title="erl_nif.h">
<polygon fill="#ffffff" stroke="black" points="1132,-180 1058,-180 1058,-144 1132,-144 1132,-180"/>
<text text-anchor="middle" x="1095" y="-158.3" font-family="Times,serif" font-size="14.00">erl_nif.h</text>
</a>
</g>
</g>
<!-- 10 -->
<g id="node21" class="node">
<title>10</title>
<g id="a_node21"><a xlink:title="term_typedef.h">
<polygon fill="#ffffff" stroke="black" points="1284.5,-108 1159.5,-108 1159.5,-72 1284.5,-72 1284.5,-108"/>
<text text-anchor="middle" x="1222" y="-86.3" font-family="Times,serif" font-size="14.00">term_typedef.h</text>
</a>
</g>
</g>
<!-- 9&#45;&gt;10 -->
<g id="edge12" class="edge">
<title>9&#45;&gt;10</title>
<g id="a_edge12"><a xlink:title="include">
<path fill="none" stroke="#1414ce" d="M1126.07,-143.88C1142.83,-134.64 1163.71,-123.13 1181.7,-113.21"/>
<polygon fill="#1414ce" stroke="#1414ce" points="1183.74,-116.08 1190.81,-108.19 1180.37,-109.95 1183.74,-116.08"/>
</a>
</g>
</g>
<!-- 28 -->
<g id="node6" class="node">
<title>28</title>
<g id="a_node6"><a xlink:title="erl_nif_priv.h">
<polygon fill="#ffffff" stroke="black" points="1097,-684 989,-684 989,-648 1097,-648 1097,-684"/>
<text text-anchor="middle" x="1043" y="-662.3" font-family="Times,serif" font-size="14.00">erl_nif_priv.h</text>
</a>
</g>
</g>
<!-- 28&#45;&gt;29 -->
<g id="edge13" class="edge">
<title>28&#45;&gt;29</title>
<g id="a_edge13"><a xlink:title="include">
<path fill="none" stroke="#1414ce" d="M988.9,-658.07C915.59,-648.53 780.69,-630.43 666,-612 652.3,-609.8 637.51,-607.22 623.81,-604.75"/>
<polygon fill="#1414ce" stroke="#1414ce" points="624.05,-601.23 613.59,-602.88 622.8,-608.12 624.05,-601.23"/>
</a>
</g>
</g>
<!-- 24 -->
<g id="node12" class="node">
<title>24</title>
<g id="a_node12"><a xlink:title="memory.h">
<polygon fill="#ffffff" stroke="black" points="1233,-252 1147,-252 1147,-216 1233,-216 1233,-252"/>
<text text-anchor="middle" x="1190" y="-230.3" font-family="Times,serif" font-size="14.00">memory.h</text>
</a>
</g>
</g>
<!-- 28&#45;&gt;24 -->
<g id="edge14" class="edge">
<title>28&#45;&gt;24</title>
<g id="a_edge14"><a xlink:title="include">
<path fill="none" stroke="#1414ce" d="M1097,-663.68C1185.34,-658.32 1351,-633.55 1351,-523 1351,-523 1351,-523 1351,-449 1351,-365.23 1271.24,-293.37 1224,-258.15"/>
<polygon fill="#1414ce" stroke="#1414ce" points="1226.01,-255.28 1215.87,-252.21 1221.88,-260.93 1226.01,-255.28"/>
</a>
</g>
</g>
<!-- 26 -->
<g id="node17" class="node">
<title>26</title>
<g id="a_node17"><a xlink:title="resources.h">
<polygon fill="#ffffff" stroke="black" points="1082,-324 982,-324 982,-288 1082,-288 1082,-324"/>
<text text-anchor="middle" x="1032" y="-302.3" font-family="Times,serif" font-size="14.00">resources.h</text>
</a>
</g>
</g>
<!-- 28&#45;&gt;26 -->
<g id="edge15" class="edge">
<title>28&#45;&gt;26</title>
<g id="a_edge15"><a xlink:title="include">
<path fill="none" stroke="#1414ce" d="M1097.1,-656.35C1165.66,-641.96 1275,-606 1275,-523 1275,-523 1275,-523 1275,-449 1275,-364.42 1163.89,-329.29 1091.93,-315.42"/>
<polygon fill="#1414ce" stroke="#1414ce" points="1092.52,-311.97 1082.06,-313.6 1091.26,-318.85 1092.52,-311.97"/>
</a>
</g>
</g>
<!-- 32 -->
<g id="node7" class="node">
<title>32</title>
<g id="a_node7"><a xlink:title="exportedfunction.h">
<polygon fill="#ffffff" stroke="black" points="807,-540 655,-540 655,-504 807,-504 807,-540"/>
<text text-anchor="middle" x="731" y="-518.3" font-family="Times,serif" font-size="14.00">exportedfunction.h</text>
</a>
</g>
</g>
<!-- 32&#45;&gt;21 -->
<g id="edge16" class="edge">
<title>32&#45;&gt;21</title>
<g id="a_edge16"><a xlink:title="include">
<path fill="none" stroke="#1414ce" d="M756.44,-503.88C769.79,-494.89 786.32,-483.76 800.78,-474.03"/>
<polygon fill="#1414ce" stroke="#1414ce" points="803.12,-476.68 809.46,-468.19 799.21,-470.87 803.12,-476.68"/>
</a>
</g>
</g>
<!-- 3&#45;&gt;5 -->
<g id="edge18" class="edge">
<title>3&#45;&gt;5</title>
<g id="a_edge18"><a xlink:title="include">
<path fill="none" stroke="#1414ce" d="M281.48,-515.18C216.4,-507.93 121.15,-493.29 95,-468 78.59,-452.13 73.66,-426.1 72.5,-406.28"/>
<polygon fill="#1414ce" stroke="#1414ce" points="75.99,-405.91 72.2,-396.02 68.99,-406.12 75.99,-405.91"/>
</a>
</g>
</g>
<!-- 3&#45;&gt;7 -->
<g id="edge19" class="edge">
<title>3&#45;&gt;7</title>
<g id="a_edge19"><a xlink:title="include">
<path fill="none" stroke="#1414ce" d="M299.5,-503.88C273.62,-494.14 241.03,-481.87 213.76,-471.61"/>
<polygon fill="#1414ce" stroke="#1414ce" points="214.94,-468.31 204.35,-468.07 212.48,-474.87 214.94,-468.31"/>
</a>
</g>
</g>
<!-- 3&#45;&gt;9 -->
<g id="edge20" class="edge">
<title>3&#45;&gt;9</title>
<g id="a_edge20"><a xlink:title="include">
<path fill="none" stroke="#1414ce" d="M408.72,-511.15C512.77,-494.06 724.8,-454.99 897,-396 932.74,-383.76 938.75,-373.59 974,-360 1024.76,-340.43 1058.14,-367.36 1091,-324 1120.39,-285.23 1111.67,-224.78 1103.08,-190.04"/>
<polygon fill="#1414ce" stroke="#1414ce" points="1106.4,-188.91 1100.46,-180.13 1099.63,-190.7 1106.4,-188.91"/>
</a>
</g>
</g>
<!-- 3&#45;&gt;14 -->
<g id="edge21" class="edge">
<title>3&#45;&gt;14</title>
<g id="a_edge21"><a xlink:title="include">
<path fill="none" stroke="#1414ce" d="M344.55,-503.81C344.57,-485.54 346.05,-456.03 354,-432 385.08,-338.07 426.97,-332.14 485,-252 499.94,-231.37 515.43,-206.95 526.49,-188.91"/>
<polygon fill="#1414ce" stroke="#1414ce" points="529.64,-190.47 531.84,-180.11 523.65,-186.84 529.64,-190.47"/>
</a>
</g>
</g>
<!-- 3&#45;&gt;15 -->
<g id="edge22" class="edge">
<title>3&#45;&gt;15</title>
<g id="a_edge22"><a xlink:title="include">
<path fill="none" stroke="#1414ce" d="M348.05,-503.76C351.98,-484.92 360.15,-454.44 375,-432 428.17,-351.67 456.47,-340.87 537,-288 556.06,-275.49 578.54,-264.36 598.49,-255.58"/>
<polygon fill="#1414ce" stroke="#1414ce" points="599.95,-258.76 607.75,-251.58 597.18,-252.33 599.95,-258.76"/>
</a>
</g>
</g>
<!-- 3&#45;&gt;19 -->
<g id="edge23" class="edge">
<title>3&#45;&gt;19</title>
<g id="a_edge23"><a xlink:title="include">
<path fill="none" stroke="#1414ce" d="M324.66,-503.58C314.53,-493.97 302.81,-481.31 295,-468 236.29,-367.95 158.41,-309.56 227,-216 234.77,-205.4 307.85,-185.14 355.03,-172.97"/>
<polygon fill="#1414ce" stroke="#1414ce" points="356.14,-176.3 364.96,-170.43 354.4,-169.52 356.14,-176.3"/>
</a>
</g>
</g>
<!-- 20 -->
<g id="node19" class="node">
<title>20</title>
<g id="a_node19"><a xlink:title="synclist.h">
<polygon fill="#ffffff" stroke="black" points="475.5,-252 390.5,-252 390.5,-216 475.5,-216 475.5,-252"/>
<text text-anchor="middle" x="433" y="-230.3" font-family="Times,serif" font-size="14.00">synclist.h</text>
</a>
</g>
</g>
<!-- 3&#45;&gt;20 -->
<g id="edge24" class="edge">
<title>3&#45;&gt;20</title>
<g id="a_edge24"><a xlink:title="include">
<path fill="none" stroke="#1414ce" d="M356.24,-503.93C362.49,-493.82 369.99,-480.57 375,-468 403.61,-396.28 421.18,-306.37 428.71,-262.13"/>
<polygon fill="#1414ce" stroke="#1414ce" points="432.18,-262.6 430.37,-252.16 425.28,-261.45 432.18,-262.6"/>
</a>
</g>
</g>
<!-- 3&#45;&gt;21 -->
<g id="edge25" class="edge">
<title>3&#45;&gt;21</title>
<g id="a_edge25"><a xlink:title="include">
<path fill="none" stroke="#1414ce" d="M408.56,-511.92C510.08,-497.42 706.17,-469.4 792.47,-457.08"/>
<polygon fill="#1414ce" stroke="#1414ce" points="793.04,-460.53 802.44,-455.65 792.05,-453.6 793.04,-460.53"/>
</a>
</g>
</g>
<!-- 3&#45;&gt;27 -->
<g id="edge26" class="edge">
<title>3&#45;&gt;27</title>
<g id="a_edge26"><a xlink:title="include">
<path fill="none" stroke="#1414ce" d="M329.93,-503.59C322.32,-493.8 313.73,-480.96 309,-468 283.13,-397.06 282.16,-306.44 283.58,-262.02"/>
<polygon fill="#1414ce" stroke="#1414ce" points="287.08,-262.14 283.97,-252.01 280.09,-261.87 287.08,-262.14"/>
</a>
</g>
</g>
<!-- 3&#45;&gt;4 -->
<g id="edge17" class="edge">
<title>3&#45;&gt;4</title>
<g id="a_edge17"><a xlink:title="include">
<path fill="none" stroke="#1414ce" d="M281.29,-520.61C223.24,-517.59 137.03,-506.22 73,-468 29.07,-441.78 0,-430.16 0,-379 0,-379 0,-379 0,-161 0,-47.95 410.27,-24.75 550.59,-20.12"/>
<polygon fill="#1414ce" stroke="#1414ce" points="551.11,-23.61 561,-19.79 550.89,-16.61 551.11,-23.61"/>
</a>
</g>
</g>
<!-- 30 -->
<g id="node9" class="node">
<title>30</title>
<g id="a_node9"><a xlink:title="interop.h">
<polygon fill="#ffffff" stroke="black" points="738,-684 656,-684 656,-648 738,-648 738,-684"/>
<text text-anchor="middle" x="697" y="-662.3" font-family="Times,serif" font-size="14.00">interop.h</text>
</a>
</g>
</g>
<!-- 30&#45;&gt;29 -->
<g id="edge27" class="edge">
<title>30&#45;&gt;29</title>
<g id="a_edge27"><a xlink:title="include">
<path fill="none" stroke="#1414ce" d="M666.42,-647.88C649.93,-638.64 629.38,-627.13 611.66,-617.21"/>
<polygon fill="#1414ce" stroke="#1414ce" points="613.13,-614.02 602.7,-612.19 609.71,-620.13 613.13,-614.02"/>
</a>
</g>
</g>
<!-- 30&#45;&gt;21 -->
<g id="edge28" class="edge">
<title>30&#45;&gt;21</title>
<g id="a_edge28"><a xlink:title="include">
<path fill="none" stroke="#1414ce" d="M732.64,-647.82C749.6,-638.62 769.51,-626.25 785,-612 814.05,-585.28 824.86,-577.56 837,-540 843.45,-520.06 842.5,-496.27 840.19,-478.3"/>
<polygon fill="#1414ce" stroke="#1414ce" points="843.62,-477.58 838.67,-468.21 836.7,-478.62 843.62,-477.58"/>
</a>
</g>
</g>
<!-- 15&#45;&gt;14 -->
<g id="edge30" class="edge">
<title>15&#45;&gt;14</title>
<g id="a_edge30"><a xlink:title="include">
<path fill="none" stroke="#1414ce" d="M624.34,-215.88C610.22,-206.81 592.69,-195.55 577.44,-185.76"/>
<polygon fill="#1414ce" stroke="#1414ce" points="579.07,-182.65 568.77,-180.19 575.29,-188.54 579.07,-182.65"/>
</a>
</g>
</g>
<!-- 15&#45;&gt;10 -->
<g id="edge31" class="edge">
<title>15&#45;&gt;10</title>
<g id="a_edge31"><a xlink:title="include">
<path fill="none" stroke="#1414ce" d="M694.27,-224.43C743.53,-214.5 826.34,-197.27 897,-180 986.19,-158.2 1088.17,-129.68 1153.74,-110.87"/>
<polygon fill="#1414ce" stroke="#1414ce" points="1154.9,-114.18 1163.54,-108.05 1152.96,-107.45 1154.9,-114.18"/>
</a>
</g>
</g>
<!-- 16 -->
<g id="node23" class="node">
<title>16</title>
<g id="a_node23"><a xlink:title="utils.h">
<polygon fill="#ffffff" stroke="black" points="888,-180 826,-180 826,-144 888,-144 888,-180"/>
<text text-anchor="middle" x="857" y="-158.3" font-family="Times,serif" font-size="14.00">utils.h</text>
</a>
</g>
</g>
<!-- 15&#45;&gt;16 -->
<g id="edge32" class="edge">
<title>15&#45;&gt;16</title>
<g id="a_edge32"><a xlink:title="include">
<path fill="none" stroke="#1414ce" d="M694.18,-218.33C730.2,-206.09 781.16,-188.77 816.43,-176.79"/>
<polygon fill="#1414ce" stroke="#1414ce" points="817.59,-180.09 825.93,-173.56 815.34,-173.46 817.59,-180.09"/>
</a>
</g>
</g>
<!-- 15&#45;&gt;8 -->
<g id="edge29" class="edge">
<title>15&#45;&gt;8</title>
<g id="a_edge29"><a xlink:title="include">
<path fill="none" stroke="#1414ce" d="M637.85,-215.77C623.65,-197.47 600.09,-167.94 578,-144 569.01,-134.26 558.65,-124.04 549.36,-115.2"/>
<polygon fill="#1414ce" stroke="#1414ce" points="551.55,-112.45 541.87,-108.15 546.75,-117.55 551.55,-112.45"/>
</a>
</g>
</g>
<!-- 24&#45;&gt;9 -->
<g id="edge35" class="edge">
<title>24&#45;&gt;9</title>
<g id="a_edge35"><a xlink:title="include">
<path fill="none" stroke="#1414ce" d="M1166.52,-215.7C1154.44,-206.8 1139.55,-195.82 1126.48,-186.2"/>
<polygon fill="#1414ce" stroke="#1414ce" points="1128.34,-183.22 1118.21,-180.1 1124.19,-188.85 1128.34,-183.22"/>
</a>
</g>
</g>
<!-- 24&#45;&gt;10 -->
<g id="edge36" class="edge">
<title>24&#45;&gt;10</title>
<g id="a_edge36"><a xlink:title="include">
<path fill="none" stroke="#1414ce" d="M1198.61,-215.76C1203.31,-205.6 1208.81,-192.35 1212,-180 1217.24,-159.71 1219.73,-136.11 1220.92,-118.32"/>
<polygon fill="#1414ce" stroke="#1414ce" points="1224.42,-118.51 1221.49,-108.32 1217.43,-118.11 1224.42,-118.51"/>
</a>
</g>
</g>
<!-- 24&#45;&gt;16 -->
<g id="edge37" class="edge">
<title>24&#45;&gt;16</title>
<g id="a_edge37"><a xlink:title="include">
<path fill="none" stroke="#1414ce" d="M1146.81,-223.92C1082.29,-210.36 961.59,-184.99 898.24,-171.67"/>
<polygon fill="#1414ce" stroke="#1414ce" points="898.72,-168.19 888.21,-169.56 897.28,-175.04 898.72,-168.19"/>
</a>
</g>
</g>
<!-- 24&#45;&gt;4 -->
<g id="edge33" class="edge">
<title>24&#45;&gt;4</title>
<g id="a_edge33"><a xlink:title="include">
<path fill="none" stroke="#1414ce" d="M1190.16,-215.88C1189.43,-196.29 1185.4,-164.31 1168,-144 1114.09,-81.06 1076,-93.64 996,-72 871.18,-38.23 718.33,-25.59 643.2,-21.17"/>
<polygon fill="#1414ce" stroke="#1414ce" points="643.3,-17.67 633.12,-20.6 642.91,-24.66 643.3,-17.67"/>
</a>
</g>
</g>
<!-- 24&#45;&gt;6 -->
<g id="edge34" class="edge">
<title>24&#45;&gt;6</title>
<g id="a_edge34"><a xlink:title="include">
<path fill="none" stroke="#1414ce" d="M1185.08,-215.92C1178.4,-195.75 1164.51,-162.62 1141,-144 1099.3,-110.98 1038.25,-98.51 996.69,-93.82"/>
<polygon fill="#1414ce" stroke="#1414ce" points="996.87,-90.32 986.56,-92.79 996.15,-97.29 996.87,-90.32"/>
</a>
</g>
</g>
<!-- 31 -->
<g id="node13" class="node">
<title>31</title>
<g id="a_node13"><a xlink:title="nifs.h">
<polygon fill="#ffffff" stroke="black" points="600,-684 544,-684 544,-648 600,-648 600,-684"/>
<text text-anchor="middle" x="572" y="-662.3" font-family="Times,serif" font-size="14.00">nifs.h</text>
</a>
</g>
</g>
<!-- 31&#45;&gt;5 -->
<g id="edge38" class="edge">
<title>31&#45;&gt;5</title>
<g id="a_edge38"><a xlink:title="include">
<path fill="none" stroke="#1414ce" d="M543.8,-664.39C454.77,-660.73 179.32,-635.77 73,-468 61.47,-449.8 62.5,-425.03 65.83,-406.24"/>
<polygon fill="#1414ce" stroke="#1414ce" points="69.3,-406.74 67.91,-396.23 62.44,-405.31 69.3,-406.74"/>
</a>
</g>
</g>
<!-- 31&#45;&gt;29 -->
<g id="edge39" class="edge">
<title>31&#45;&gt;29</title>
<g id="a_edge39"><a xlink:title="include">
<path fill="none" stroke="#1414ce" d="M572,-647.7C572,-639.98 572,-630.71 572,-622.11"/>
<polygon fill="#1414ce" stroke="#1414ce" points="575.5,-622.1 572,-612.1 568.5,-622.1 575.5,-622.1"/>
</a>
</g>
</g>
<!-- 31&#45;&gt;32 -->
<g id="edge40" class="edge">
<title>31&#45;&gt;32</title>
<g id="a_edge40"><a xlink:title="include">
<path fill="none" stroke="#1414ce" d="M589.31,-647.87C607.9,-629.65 638.49,-600.18 666,-576 677.35,-566.02 690.19,-555.42 701.43,-546.34"/>
<polygon fill="#1414ce" stroke="#1414ce" points="703.69,-549.02 709.3,-540.03 699.31,-543.56 703.69,-549.02"/>
</a>
</g>
</g>
<!-- 1 -->
<g id="node14" class="node">
<title>1</title>
<g id="a_node14"><a xlink:title="/__w/AtomVM/AtomVM/src/libAtomVM/posix_nifs.c">
<polygon fill="#bfbfbf" stroke="black" points="788,-756 412,-756 412,-720 788,-720 788,-756"/>
<text text-anchor="middle" x="600" y="-734.3" font-family="Times,serif" font-size="14.00">/__w/AtomVM/AtomVM/src/libAtomVM/posix_nifs.c</text>
</a>
</g>
</g>
<!-- 1&#45;&gt;2 -->
<g id="edge41" class="edge">
<title>1&#45;&gt;2</title>
<g id="a_edge41"><a xlink:title="include">
<path fill="none" stroke="#1414ce" d="M577.79,-719.96C564.97,-709.86 548.72,-696.61 535,-684 512.44,-663.26 488.32,-638.01 471.39,-619.7"/>
<polygon fill="#1414ce" stroke="#1414ce" points="473.94,-617.31 464.59,-612.32 468.79,-622.05 473.94,-617.31"/>
</a>
</g>
</g>
<!-- 1&#45;&gt;28 -->
<g id="edge42" class="edge">
<title>1&#45;&gt;28</title>
<g id="a_edge42"><a xlink:title="include">
<path fill="none" stroke="#1414ce" d="M707.8,-719.97C792.63,-706.56 907.98,-688.33 978.86,-677.13"/>
<polygon fill="#1414ce" stroke="#1414ce" points="979.66,-680.55 988.99,-675.53 978.57,-673.64 979.66,-680.55"/>
</a>
</g>
</g>
<!-- 1&#45;&gt;3 -->
<g id="edge43" class="edge">
<title>1&#45;&gt;3</title>
<g id="a_edge43"><a xlink:title="include">
<path fill="none" stroke="#1414ce" d="M546.75,-719.86C496.42,-701.04 422.22,-666.11 378,-612 363.31,-594.02 354.79,-568.87 350.1,-549.89"/>
<polygon fill="#1414ce" stroke="#1414ce" points="353.5,-549.04 347.88,-540.06 346.67,-550.59 353.5,-549.04"/>
</a>
</g>
</g>
<!-- 1&#45;&gt;30 -->
<g id="edge44" class="edge">
<title>1&#45;&gt;30</title>
<g id="a_edge44"><a xlink:title="include">
<path fill="none" stroke="#1414ce" d="M623.98,-719.7C636.31,-710.8 651.52,-699.82 664.85,-690.2"/>
<polygon fill="#1414ce" stroke="#1414ce" points="667.24,-692.79 673.3,-684.1 663.14,-687.12 667.24,-692.79"/>
</a>
</g>
</g>
<!-- 1&#45;&gt;31 -->
<g id="edge45" class="edge">
<title>1&#45;&gt;31</title>
<g id="a_edge45"><a xlink:title="include">
<path fill="none" stroke="#1414ce" d="M593.08,-719.7C589.93,-711.81 586.12,-702.3 582.62,-693.55"/>
<polygon fill="#1414ce" stroke="#1414ce" points="585.81,-692.09 578.84,-684.1 579.31,-694.69 585.81,-692.09"/>
</a>
</g>
</g>
<!-- 33 -->
<g id="node15" class="node">
<title>33</title>
<g id="a_node15"><a xlink:title="posix_nifs.h">
<polygon fill="#ffffff" stroke="black" points="775.5,-612 674.5,-612 674.5,-576 775.5,-576 775.5,-612"/>
<text text-anchor="middle" x="725" y="-590.3" font-family="Times,serif" font-size="14.00">posix_nifs.h</text>
</a>
</g>
</g>
<!-- 1&#45;&gt;33 -->
<g id="edge46" class="edge">
<title>1&#45;&gt;33</title>
<g id="a_edge46"><a xlink:title="include">
<path fill="none" stroke="#1414ce" d="M606.17,-719.75C613.64,-700.62 627.66,-669.62 647,-648 657.47,-636.3 671.03,-625.93 683.91,-617.54"/>
<polygon fill="#1414ce" stroke="#1414ce" points="686.05,-620.32 692.67,-612.05 682.34,-614.39 686.05,-620.32"/>
</a>
</g>
</g>
<!-- 33&#45;&gt;32 -->
<g id="edge47" class="edge">
<title>33&#45;&gt;32</title>
<g id="a_edge47"><a xlink:title="include">
<path fill="none" stroke="#1414ce" d="M726.48,-575.7C727.14,-567.98 727.94,-558.71 728.68,-550.11"/>
<polygon fill="#1414ce" stroke="#1414ce" points="732.17,-550.37 729.53,-540.1 725.19,-549.77 732.17,-550.37"/>
</a>
</g>
</g>
<!-- 33&#45;&gt;3 -->
<g id="edge48" class="edge">
<title>33&#45;&gt;3</title>
<g id="a_edge48"><a xlink:title="include">
<path fill="none" stroke="#1414ce" d="M674.15,-583.63C608.44,-571.53 493.57,-550.37 418.41,-536.52"/>
<polygon fill="#1414ce" stroke="#1414ce" points="419,-533.07 408.53,-534.7 417.73,-539.96 419,-533.07"/>
</a>
</g>
</g>
<!-- 33&#45;&gt;21 -->
<g id="edge49" class="edge">
<title>33&#45;&gt;21</title>
<g id="a_edge49"><a xlink:title="include">
<path fill="none" stroke="#1414ce" d="M770.41,-575.9C787.08,-567.48 804.63,-555.7 816,-540 829,-522.05 833.46,-497.06 834.83,-478.12"/>
<polygon fill="#1414ce" stroke="#1414ce" points="838.33,-478.2 835.32,-468.04 831.34,-477.86 838.33,-478.2"/>
</a>
</g>
</g>
<!-- 25 -->
<g id="node16" class="node">
<title>25</title>
<g id="a_node16"><a xlink:title="refc_binary.h">
<polygon fill="#ffffff" stroke="black" points="888,-396 780,-396 780,-360 888,-360 888,-396"/>
<text text-anchor="middle" x="834" y="-374.3" font-family="Times,serif" font-size="14.00">refc_binary.h</text>
</a>
</g>
</g>
<!-- 25&#45;&gt;14 -->
<g id="edge52" class="edge">
<title>25&#45;&gt;14</title>
<g id="a_edge52"><a xlink:title="include">
<path fill="none" stroke="#1414ce" d="M785.88,-359.9C734.99,-340.01 654.54,-303.22 599,-252 579.73,-234.23 564.22,-208.57 554.27,-189.37"/>
<polygon fill="#1414ce" stroke="#1414ce" points="557.31,-187.64 549.71,-180.26 551.05,-190.77 557.31,-187.64"/>
</a>
</g>
</g>
<!-- 25&#45;&gt;26 -->
<g id="edge53" class="edge">
<title>25&#45;&gt;26</title>
<g id="a_edge53"><a xlink:title="include">
<path fill="none" stroke="#1414ce" d="M882.18,-359.97C909.85,-350.19 944.78,-337.84 973.95,-327.52"/>
<polygon fill="#1414ce" stroke="#1414ce" points="975.34,-330.74 983.6,-324.11 973.01,-324.14 975.34,-330.74"/>
</a>
</g>
</g>
<!-- 25&#45;&gt;8 -->
<g id="edge50" class="edge">
<title>25&#45;&gt;8</title>
<g id="a_edge50"><a xlink:title="include">
<path fill="none" stroke="#1414ce" d="M832.02,-359.91C826.07,-316.73 804.33,-202.52 736,-144 690.97,-105.43 622,-94.17 574.82,-91.26"/>
<polygon fill="#1414ce" stroke="#1414ce" points="574.97,-87.77 564.81,-90.75 574.62,-94.76 574.97,-87.77"/>
</a>
</g>
</g>
<!-- 25&#45;&gt;6 -->
<g id="edge51" class="edge">
<title>25&#45;&gt;6</title>
<g id="a_edge51"><a xlink:title="include">
<path fill="none" stroke="#1414ce" d="M856.52,-359.77C867.47,-350.31 879.97,-337.72 888,-324 898.51,-306.04 930.64,-175.67 944.51,-118.15"/>
<polygon fill="#1414ce" stroke="#1414ce" points="947.94,-118.84 946.88,-108.3 941.14,-117.2 947.94,-118.84"/>
</a>
</g>
</g>
<!-- 26&#45;&gt;9 -->
<g id="edge55" class="edge">
<title>26&#45;&gt;9</title>
<g id="a_edge55"><a xlink:title="include">
<path fill="none" stroke="#1414ce" d="M1039.6,-287.87C1050.43,-263.46 1070.41,-218.43 1083.18,-189.64"/>
<polygon fill="#1414ce" stroke="#1414ce" points="1086.52,-190.75 1087.37,-180.19 1080.12,-187.91 1086.52,-190.75"/>
</a>
</g>
</g>
<!-- 26&#45;&gt;14 -->
<g id="edge56" class="edge">
<title>26&#45;&gt;14</title>
<g id="a_edge56"><a xlink:title="include">
<path fill="none" stroke="#1414ce" d="M981.86,-290.47C883.09,-261.85 665.39,-198.76 578.68,-173.63"/>
<polygon fill="#1414ce" stroke="#1414ce" points="579.59,-170.25 569.01,-170.83 577.64,-176.97 579.59,-170.25"/>
</a>
</g>
</g>
<!-- 26&#45;&gt;24 -->
<g id="edge57" class="edge">
<title>26&#45;&gt;24</title>
<g id="a_edge57"><a xlink:title="include">
<path fill="none" stroke="#1414ce" d="M1070.65,-287.88C1092.25,-278.31 1119.35,-266.3 1142.27,-256.15"/>
<polygon fill="#1414ce" stroke="#1414ce" points="1143.75,-259.32 1151.47,-252.07 1140.91,-252.92 1143.75,-259.32"/>
</a>
</g>
</g>
<!-- 26&#45;&gt;20 -->
<g id="edge58" class="edge">
<title>26&#45;&gt;20</title>
<g id="a_edge58"><a xlink:title="include">
<path fill="none" stroke="#1414ce" d="M981.96,-299.15C870.03,-286.07 600.31,-254.55 485.82,-241.17"/>
<polygon fill="#1414ce" stroke="#1414ce" points="485.9,-237.66 475.56,-239.97 485.09,-244.61 485.9,-237.66"/>
</a>
</g>
</g>
<!-- 26&#45;&gt;6 -->
<g id="edge54" class="edge">
<title>26&#45;&gt;6</title>
<g id="a_edge54"><a xlink:title="include">
<path fill="none" stroke="#1414ce" d="M1025.51,-287.85C1011.44,-250.68 978.04,-162.44 961.15,-117.82"/>
<polygon fill="#1414ce" stroke="#1414ce" points="964.34,-116.35 957.52,-108.23 957.79,-118.82 964.34,-116.35"/>
</a>
</g>
</g>
<!-- 19&#45;&gt;8 -->
<g id="edge59" class="edge">
<title>19&#45;&gt;8</title>
<g id="a_edge59"><a xlink:title="include">
<path fill="none" stroke="#1414ce" d="M425.01,-144.59C442.28,-135.14 464.21,-123.15 482.94,-112.91"/>
<polygon fill="#1414ce" stroke="#1414ce" points="484.75,-115.91 491.84,-108.04 481.39,-109.77 484.75,-115.91"/>
</a>
</g>
</g>
<!-- 20&#45;&gt;14 -->
<g id="edge61" class="edge">
<title>20&#45;&gt;14</title>
<g id="a_edge61"><a xlink:title="include">
<path fill="none" stroke="#1414ce" d="M459.66,-215.88C473.78,-206.81 491.31,-195.55 506.56,-185.76"/>
<polygon fill="#1414ce" stroke="#1414ce" points="508.71,-188.54 515.23,-180.19 504.93,-182.65 508.71,-188.54"/>
</a>
</g>
</g>
<!-- 20&#45;&gt;19 -->
<g id="edge62" class="edge">
<title>20&#45;&gt;19</title>
<g id="a_edge62"><a xlink:title="include">
<path fill="none" stroke="#1414ce" d="M423.61,-215.7C419.24,-207.64 413.94,-197.89 409.1,-188.98"/>
<polygon fill="#1414ce" stroke="#1414ce" points="412.13,-187.22 404.29,-180.1 405.98,-190.56 412.13,-187.22"/>
</a>
</g>
</g>
<!-- 18 -->
<g id="node30" class="node">
<title>18</title>
<g id="a_node30"><a xlink:title="stdio.h">
<polygon fill="#ffffff" stroke="black" points="792.5,-108 727.5,-108 727.5,-72 792.5,-72 792.5,-108"/>
<text text-anchor="middle" x="760" y="-86.3" font-family="Times,serif" font-size="14.00">stdio.h</text>
</a>
</g>
</g>
<!-- 20&#45;&gt;18 -->
<g id="edge60" class="edge">
<title>20&#45;&gt;18</title>
<g id="a_edge60"><a xlink:title="include">
<path fill="none" stroke="#1414ce" d="M442.13,-215.94C454.02,-195.47 476.77,-161.71 506,-144 572.28,-103.84 664.18,-93.72 717.34,-91.4"/>
<polygon fill="#1414ce" stroke="#1414ce" points="717.57,-94.9 727.43,-91.04 717.31,-87.9 717.57,-94.9"/>
</a>
</g>
</g>
<!-- 21&#45;&gt;24 -->
<g id="edge69" class="edge">
<title>21&#45;&gt;24</title>
<g id="a_edge69"><a xlink:title="include">
<path fill="none" stroke="#1414ce" d="M867.62,-448.97C945.41,-448.15 1138.47,-441.47 1180,-396 1213.04,-359.83 1205.6,-297.93 1197.57,-262.34"/>
<polygon fill="#1414ce" stroke="#1414ce" points="1200.87,-261.09 1195.1,-252.2 1194.07,-262.75 1200.87,-261.09"/>
</a>
</g>
</g>
<!-- 21&#45;&gt;25 -->
<g id="edge70" class="edge">
<title>21&#45;&gt;25</title>
<g id="a_edge70"><a xlink:title="include">
<path fill="none" stroke="#1414ce" d="M834.75,-431.7C834.64,-423.98 834.51,-414.71 834.39,-406.11"/>
<polygon fill="#1414ce" stroke="#1414ce" points="837.89,-406.05 834.24,-396.1 830.89,-406.15 837.89,-406.05"/>
</a>
</g>
</g>
<!-- 21&#45;&gt;10 -->
<g id="edge72" class="edge">
<title>21&#45;&gt;10</title>
<g id="a_edge72"><a xlink:title="include">
<path fill="none" stroke="#1414ce" d="M867.69,-448.74C948.29,-447.42 1153.58,-439.75 1203,-396 1282.61,-325.52 1249.22,-178.47 1230.96,-117.93"/>
<polygon fill="#1414ce" stroke="#1414ce" points="1234.29,-116.83 1227.97,-108.33 1227.6,-118.91 1234.29,-116.83"/>
</a>
</g>
</g>
<!-- 21&#45;&gt;16 -->
<g id="edge71" class="edge">
<title>21&#45;&gt;16</title>
<g id="a_edge71"><a xlink:title="include">
<path fill="none" stroke="#1414ce" d="M804.23,-431.91C791.46,-423.02 778,-410.88 771,-396 764.19,-381.52 767.73,-375.66 771,-360 784.51,-295.28 820.51,-225.79 841.4,-189.13"/>
<polygon fill="#1414ce" stroke="#1414ce" points="844.64,-190.52 846.61,-180.11 838.58,-187.02 844.64,-190.52"/>
</a>
</g>
</g>
<!-- 21&#45;&gt;8 -->
<g id="edge64" class="edge">
<title>21&#45;&gt;8</title>
<g id="a_edge64"><a xlink:title="include">
<path fill="none" stroke="#1414ce" d="M802.4,-436.26C784.14,-427.54 762.41,-414.22 749,-396 700.06,-329.49 748.85,-284.67 703,-216 670.98,-168.05 613.8,-133.07 572.46,-112.5"/>
<polygon fill="#1414ce" stroke="#1414ce" points="573.9,-109.31 563.37,-108.08 570.83,-115.6 573.9,-109.31"/>
</a>
</g>
</g>
<!-- 21&#45;&gt;4 -->
<g id="edge65" class="edge">
<title>21&#45;&gt;4</title>
<g id="a_edge65"><a xlink:title="include">
<path fill="none" stroke="#1414ce" d="M867.67,-447.44C950.55,-443.03 1166.84,-428.63 1230,-396 1278.05,-371.18 1313,-361.09 1313,-307 1313,-307 1313,-307 1313,-161 1313,-120.55 1324.46,-98.61 1294,-72 1269.49,-50.58 796.28,-27.83 643.87,-21.03"/>
<polygon fill="#1414ce" stroke="#1414ce" points="643.6,-17.51 633.46,-20.57 643.29,-24.51 643.6,-17.51"/>
</a>
</g>
</g>
<!-- 21&#45;&gt;18 -->
<g id="edge66" class="edge">
<title>21&#45;&gt;18</title>
<g id="a_edge66"><a xlink:title="include">
<path fill="none" stroke="#1414ce" d="M802.44,-433.84C787.56,-425.05 771.42,-412.44 763,-396 738.48,-348.1 751,-184.01 757.21,-118.42"/>
<polygon fill="#1414ce" stroke="#1414ce" points="760.73,-118.36 758.21,-108.06 753.76,-117.68 760.73,-118.36"/>
</a>
</g>
</g>
<!-- 21&#45;&gt;6 -->
<g id="edge67" class="edge">
<title>21&#45;&gt;6</title>
<g id="a_edge67"><a xlink:title="include">
<path fill="none" stroke="#1414ce" d="M863.81,-431.85C899.02,-408.45 954,-362.97 954,-307 954,-307 954,-307 954,-233 954,-192.99 952.79,-146.65 951.91,-118.08"/>
<polygon fill="#1414ce" stroke="#1414ce" points="955.41,-117.93 951.59,-108.05 948.41,-118.15 955.41,-117.93"/>
</a>
</g>
</g>
<!-- 23 -->
<g id="node32" class="node">
<title>23</title>
<g id="a_node32"><a xlink:title="string.h">
<polygon fill="#ffffff" stroke="black" points="1055.5,-396 982.5,-396 982.5,-360 1055.5,-360 1055.5,-396"/>
<text text-anchor="middle" x="1019" y="-374.3" font-family="Times,serif" font-size="14.00">string.h</text>
</a>
</g>
</g>
<!-- 21&#45;&gt;23 -->
<g id="edge68" class="edge">
<title>21&#45;&gt;23</title>
<g id="a_edge68"><a xlink:title="include">
<path fill="none" stroke="#1414ce" d="M867.9,-436.49C897.15,-425.35 940.25,-408.96 972.93,-396.53"/>
<polygon fill="#1414ce" stroke="#1414ce" points="974.18,-399.79 982.28,-392.97 971.69,-393.25 974.18,-399.79"/>
</a>
</g>
</g>
<!-- 22 -->
<g id="node33" class="node">
<title>22</title>
<g id="a_node33"><a xlink:title="sys/types.h">
<polygon fill="#ffffff" stroke="black" points="1170.5,-396 1073.5,-396 1073.5,-360 1170.5,-360 1170.5,-396"/>
<text text-anchor="middle" x="1122" y="-374.3" font-family="Times,serif" font-size="14.00">sys/types.h</text>
</a>
</g>
</g>
<!-- 21&#45;&gt;22 -->
<g id="edge63" class="edge">
<title>21&#45;&gt;22</title>
<g id="a_edge63"><a xlink:title="include">
<path fill="none" stroke="#1414ce" d="M867.54,-442.18C910.32,-433.07 988.02,-416.01 1063.14,-396.42"/>
<polygon fill="#1414ce" stroke="#1414ce" points="1064.46,-399.69 1073.24,-393.76 1062.68,-392.92 1064.46,-399.69"/>
</a>
</g>
</g>
<!-- 11 -->
<g id="node24" class="node">
<title>11</title>
<g id="a_node24"><a xlink:title="assert.h">
<polygon fill="#ffffff" stroke="black" points="1350,-36 1276,-36 1276,0 1350,0 1350,-36"/>
<text text-anchor="middle" x="1313" y="-14.3" font-family="Times,serif" font-size="14.00">assert.h</text>
</a>
</g>
</g>
<!-- 10&#45;&gt;11 -->
<g id="edge73" class="edge">
<title>10&#45;&gt;11</title>
<g id="a_edge73"><a xlink:title="include">
<path fill="none" stroke="#1414ce" d="M1244.49,-71.7C1255.96,-62.88 1270.06,-52.03 1282.48,-42.47"/>
<polygon fill="#1414ce" stroke="#1414ce" points="1284.97,-44.98 1290.76,-36.1 1280.7,-39.43 1284.97,-44.98"/>
</a>
</g>
</g>
<!-- 13 -->
<g id="node25" class="node">
<title>13</title>
<g id="a_node25"><a xlink:title="inttypes.h">
<polygon fill="#ffffff" stroke="black" points="1168.5,-36 1079.5,-36 1079.5,0 1168.5,0 1168.5,-36"/>
<text text-anchor="middle" x="1124" y="-14.3" font-family="Times,serif" font-size="14.00">inttypes.h</text>
</a>
</g>
</g>
<!-- 10&#45;&gt;13 -->
<g id="edge75" class="edge">
<title>10&#45;&gt;13</title>
<g id="a_edge75"><a xlink:title="include">
<path fill="none" stroke="#1414ce" d="M1198.03,-71.88C1185.45,-62.89 1169.87,-51.76 1156.25,-42.03"/>
<polygon fill="#1414ce" stroke="#1414ce" points="1158.24,-39.15 1148.07,-36.19 1154.17,-44.85 1158.24,-39.15"/>
</a>
</g>
</g>
<!-- 12 -->
<g id="node26" class="node">
<title>12</title>
<g id="a_node26"><a xlink:title="limits.h">
<polygon fill="#ffffff" stroke="black" points="1257.5,-36 1186.5,-36 1186.5,0 1257.5,0 1257.5,-36"/>
<text text-anchor="middle" x="1222" y="-14.3" font-family="Times,serif" font-size="14.00">limits.h</text>
</a>
</g>
</g>
<!-- 10&#45;&gt;12 -->
<g id="edge74" class="edge">
<title>10&#45;&gt;12</title>
<g id="a_edge74"><a xlink:title="include">
<path fill="none" stroke="#1414ce" d="M1222,-71.7C1222,-63.98 1222,-54.71 1222,-46.11"/>
<polygon fill="#1414ce" stroke="#1414ce" points="1225.5,-46.1 1222,-36.1 1218.5,-46.1 1225.5,-46.1"/>
</a>
</g>
</g>
<!-- 10&#45;&gt;4 -->
<g id="edge76" class="edge">
<title>10&#45;&gt;4</title>
<g id="a_edge76"><a xlink:title="include">
<path fill="none" stroke="#1414ce" d="M1159.09,-74.46C1154.33,-73.56 1149.6,-72.73 1145,-72 960.27,-42.78 737.8,-27.27 643.19,-21.58"/>
<polygon fill="#1414ce" stroke="#1414ce" points="643.29,-18.08 633.1,-20.98 642.87,-25.06 643.29,-18.08"/>
</a>
</g>
</g>
<!-- 27&#45;&gt;14 -->
<g id="edge79" class="edge">
<title>27&#45;&gt;14</title>
<g id="a_edge79"><a xlink:title="include">
<path fill="none" stroke="#1414ce" d="M334.25,-219.59C384.01,-206.03 459.78,-185.39 504.75,-173.15"/>
<polygon fill="#1414ce" stroke="#1414ce" points="505.94,-176.45 514.67,-170.44 504.1,-169.69 505.94,-176.45"/>
</a>
</g>
</g>
<!-- 27&#45;&gt;8 -->
<g id="edge77" class="edge">
<title>27&#45;&gt;8</title>
<g id="a_edge77"><a xlink:title="include">
<path fill="none" stroke="#1414ce" d="M294.49,-215.71C306.35,-195.65 328.48,-162.93 356,-144 390.56,-120.24 436.34,-106.69 471.23,-99.26"/>
<polygon fill="#1414ce" stroke="#1414ce" points="472.11,-102.65 481.22,-97.23 470.72,-95.79 472.11,-102.65"/>
</a>
</g>
</g>
<!-- 27&#45;&gt;4 -->
<g id="edge78" class="edge">
<title>27&#45;&gt;4</title>
<g id="a_edge78"><a xlink:title="include">
<path fill="none" stroke="#1414ce" d="M287.14,-215.89C290.41,-196.31 298.36,-164.34 317,-144 380.37,-74.85 489.14,-41.67 550.8,-27.71"/>
<polygon fill="#1414ce" stroke="#1414ce" points="551.63,-31.11 560.65,-25.55 550.13,-24.27 551.63,-31.11"/>
</a>
</g>
</g>
<!-- 17 -->
<g id="node28" class="node">
<title>17</title>
<g id="a_node28"><a xlink:title="stddef.h">
<polygon fill="#ffffff" stroke="black" points="894,-108 820,-108 820,-72 894,-72 894,-108"/>
<text text-anchor="middle" x="857" y="-86.3" font-family="Times,serif" font-size="14.00">stddef.h</text>
</a>
</g>
</g>
<!-- 16&#45;&gt;17 -->
<g id="edge80" class="edge">
<title>16&#45;&gt;17</title>
<g id="a_edge80"><a xlink:title="include">
<path fill="none" stroke="#1414ce" d="M857,-143.7C857,-135.98 857,-126.71 857,-118.11"/>
<polygon fill="#1414ce" stroke="#1414ce" points="860.5,-118.1 857,-108.1 853.5,-118.1 860.5,-118.1"/>
</a>
</g>
</g>
<!-- 16&#45;&gt;18 -->
<g id="edge81" class="edge">
<title>16&#45;&gt;18</title>
<g id="a_edge81"><a xlink:title="include">
<path fill="none" stroke="#1414ce" d="M833.02,-143.7C820.69,-134.8 805.48,-123.82 792.15,-114.2"/>
<polygon fill="#1414ce" stroke="#1414ce" points="793.86,-111.12 783.7,-108.1 789.76,-116.79 793.86,-111.12"/>
</a>
</g>
</g>
<!-- 16&#45;&gt;6 -->
<g id="edge82" class="edge">
<title>16&#45;&gt;6</title>
<g id="a_edge82"><a xlink:title="include">
<path fill="none" stroke="#1414ce" d="M880.24,-143.7C892.19,-134.8 906.92,-123.82 919.85,-114.2"/>
<polygon fill="#1414ce" stroke="#1414ce" points="922.1,-116.88 928.03,-108.1 917.92,-111.27 922.1,-116.88"/>
</a>
</g>
</g>
</g>
</svg>
