<?xml version="1.0" encoding="UTF-8" standalone="no"?>
<!DOCTYPE svg PUBLIC "-//W3C//DTD SVG 1.1//EN"
 "http://www.w3.org/Graphics/SVG/1.1/DTD/svg11.dtd">
<!-- Generated by graphviz version 2.43.0 (0)
 -->
<!-- Title: %3 Pages: 1 -->
<svg width="276pt" height="188pt"
 viewBox="0.00 0.00 276.00 188.00" xmlns="http://www.w3.org/2000/svg" xmlns:xlink="http://www.w3.org/1999/xlink">
<g id="graph0" class="graph" transform="scale(1 1) rotate(0) translate(4 184)">
<title>%3</title>
<polygon fill="transparent" stroke="transparent" points="-4,4 -4,-184 272,-184 272,4 -4,4"/>
<!-- 3 -->
<g id="node1" class="node">
<title>3</title>
<g id="a_node1"><a xlink:title="Module">
<polygon fill="#ffffff" stroke="black" points="167,-108 97,-108 97,-72 167,-72 167,-108"/>
<text text-anchor="middle" x="132" y="-86.3" font-family="Times,serif" font-size="14.00">Module</text>
</a>
</g>
</g>
<!-- 4 -->
<g id="node3" class="node">
<title>4</title>
<g id="a_node3"><a xlink:title="LiteralEntry">
<polygon fill="#ffffff" stroke="black" points="104,-36 0,-36 0,0 104,0 104,-36"/>
<text text-anchor="middle" x="52" y="-14.3" font-family="Times,serif" font-size="14.00">LiteralEntry</text>
</a>
</g>
</g>
<!-- 3&#45;&gt;4 -->
<g id="edge2" class="edge">
<title>3&#45;&gt;4</title>
<g id="a_edge2"><a xlink:title="usage">
<path fill="none" stroke="#1414ce" d="M112.22,-71.7C102.25,-62.97 89.99,-52.24 79.14,-42.75"/>
<polygon fill="#1414ce" stroke="#1414ce" points="81.38,-40.06 71.55,-36.1 76.77,-45.32 81.38,-40.06"/>
</a>
</g>
</g>
<!-- 2 -->
<g id="node4" class="node">
<title>2</title>
<g id="a_node4"><a xlink:title="ExportedFunction">
<polygon fill="#ffffff" stroke="black" points="268,-36 122,-36 122,0 268,0 268,-36"/>
<text text-anchor="middle" x="195" y="-14.3" font-family="Times,serif" font-size="14.00">ExportedFunction</text>
</a>
</g>
</g>
<!-- 3&#45;&gt;2 -->
<g id="edge1" class="edge">
<title>3&#45;&gt;2</title>
<g id="a_edge1"><a xlink:title="usage">
<path fill="none" stroke="#1414ce" d="M147.57,-71.7C155.2,-63.22 164.52,-52.86 172.88,-43.58"/>
<polygon fill="#1414ce" stroke="#1414ce" points="175.52,-45.88 179.61,-36.1 170.31,-41.2 175.52,-45.88"/>
</a>
</g>
</g>
<!-- 1 -->
<g id="node2" class="node">
<title>1</title>
<g id="a_node2"><a xlink:title="ModuleFunction">
<polygon fill="#bfbfbf" stroke="black" points="229.5,-180 96.5,-180 96.5,-144 229.5,-144 229.5,-180"/>
<text text-anchor="middle" x="163" y="-158.3" font-family="Times,serif" font-size="14.00">ModuleFunction</text>
</a>
</g>
</g>
<!-- 1&#45;&gt;3 -->
<g id="edge4" class="edge">
<title>1&#45;&gt;3</title>
<g id="a_edge4"><a xlink:title="usage">
<path fill="none" stroke="#1414ce" d="M155.34,-143.7C151.81,-135.73 147.54,-126.1 143.63,-117.26"/>
<polygon fill="#1414ce" stroke="#1414ce" points="146.82,-115.83 139.57,-108.1 140.42,-118.67 146.82,-115.83"/>
</a>
</g>
</g>
<!-- 1&#45;&gt;2 -->
<g id="edge3" class="edge">
<title>1&#45;&gt;2</title>
<g id="a_edge3"><a xlink:title="usage">
<path fill="none" stroke="#1414ce" d="M167.35,-143.85C169.94,-133.48 173.25,-120 176,-108 180.74,-87.34 185.73,-63.89 189.4,-46.25"/>
<polygon fill="#1414ce" stroke="#1414ce" points="192.91,-46.6 191.51,-36.1 186.05,-45.18 192.91,-46.6"/>
</a>
</g>
</g>
</g>
</svg>
