<?xml version="1.0" encoding="UTF-8" standalone="no"?>
<!DOCTYPE svg PUBLIC "-//W3C//DTD SVG 1.1//EN"
 "http://www.w3.org/Graphics/SVG/1.1/DTD/svg11.dtd">
<!-- Generated by graphviz version 2.43.0 (0)
 -->
<!-- Title: %3 Pages: 1 -->
<svg width="1484pt" height="764pt"
 viewBox="0.00 0.00 1483.50 764.00" xmlns="http://www.w3.org/2000/svg" xmlns:xlink="http://www.w3.org/1999/xlink">
<g id="graph0" class="graph" transform="scale(1 1) rotate(0) translate(4 760)">
<title>%3</title>
<polygon fill="transparent" stroke="transparent" points="-4,4 -4,-760 1479.5,-760 1479.5,4 -4,4"/>
<!-- 4 -->
<g id="node1" class="node">
<title>4</title>
<g id="a_node1"><a xlink:title="atom.h">
<polygon fill="#ffffff" stroke="black" points="294,-396 228,-396 228,-360 294,-360 294,-396"/>
<text text-anchor="middle" x="261" y="-374.3" font-family="Times,serif" font-size="14.00">atom.h</text>
</a>
</g>
</g>
<!-- 3 -->
<g id="node27" class="node">
<title>3</title>
<g id="a_node27"><a xlink:title="stdint.h">
<polygon fill="#ffffff" stroke="black" points="987,-36 915,-36 915,0 987,0 987,-36"/>
<text text-anchor="middle" x="951" y="-14.3" font-family="Times,serif" font-size="14.00">stdint.h</text>
</a>
</g>
</g>
<!-- 4&#45;&gt;3 -->
<g id="edge1" class="edge">
<title>4&#45;&gt;3</title>
<g id="a_edge1"><a xlink:title="include">
<path fill="none" stroke="#1414ce" d="M243.23,-359.99C221.31,-337.63 185.2,-296.03 171,-252 147.43,-178.92 240.74,-73.52 243,-72 297.79,-35.24 756.19,-22.9 904.74,-19.84"/>
<polygon fill="#1414ce" stroke="#1414ce" points="904.96,-23.34 914.89,-19.64 904.82,-16.34 904.96,-23.34"/>
</a>
</g>
</g>
<!-- 5 -->
<g id="node29" class="node">
<title>5</title>
<g id="a_node29"><a xlink:title="stdlib.h">
<polygon fill="#ffffff" stroke="black" points="1010.5,-108 939.5,-108 939.5,-72 1010.5,-72 1010.5,-108"/>
<text text-anchor="middle" x="975" y="-86.3" font-family="Times,serif" font-size="14.00">stdlib.h</text>
</a>
</g>
</g>
<!-- 4&#45;&gt;5 -->
<g id="edge2" class="edge">
<title>4&#45;&gt;5</title>
<g id="a_edge2"><a xlink:title="include">
<path fill="none" stroke="#1414ce" d="M277.04,-359.88C307.32,-328.28 375.98,-260.04 444,-216 508.78,-174.06 527.59,-164.46 602,-144 740.65,-105.88 786.04,-141.14 929.2,-108.08"/>
<polygon fill="#1414ce" stroke="#1414ce" points="930.31,-111.42 939.23,-105.69 928.69,-104.61 930.31,-111.42"/>
</a>
</g>
</g>
<!-- 6 -->
<g id="node2" class="node">
<title>6</title>
<g id="a_node2"><a xlink:title="atom_table.h">
<polygon fill="#ffffff" stroke="black" points="213.5,-468 104.5,-468 104.5,-432 213.5,-432 213.5,-468"/>
<text text-anchor="middle" x="159" y="-446.3" font-family="Times,serif" font-size="14.00">atom_table.h</text>
</a>
</g>
</g>
<!-- 6&#45;&gt;4 -->
<g id="edge4" class="edge">
<title>6&#45;&gt;4</title>
<g id="a_edge4"><a xlink:title="include">
<path fill="none" stroke="#1414ce" d="M183.95,-431.88C197.04,-422.89 213.26,-411.76 227.44,-402.03"/>
<polygon fill="#1414ce" stroke="#1414ce" points="229.69,-404.73 235.95,-396.19 225.73,-398.96 229.69,-404.73"/>
</a>
</g>
</g>
<!-- 7 -->
<g id="node25" class="node">
<title>7</title>
<g id="a_node25"><a xlink:title="stdbool.h">
<polygon fill="#ffffff" stroke="black" points="365.5,-108 282.5,-108 282.5,-72 365.5,-72 365.5,-108"/>
<text text-anchor="middle" x="324" y="-86.3" font-family="Times,serif" font-size="14.00">stdbool.h</text>
</a>
</g>
</g>
<!-- 6&#45;&gt;7 -->
<g id="edge3" class="edge">
<title>6&#45;&gt;7</title>
<g id="a_edge3"><a xlink:title="include">
<path fill="none" stroke="#1414ce" d="M149.68,-431.63C136.5,-405.41 114,-353.81 114,-307 114,-307 114,-307 114,-233 114,-156.81 210.03,-118.73 272.21,-102.06"/>
<polygon fill="#1414ce" stroke="#1414ce" points="273.45,-105.35 282.26,-99.47 271.7,-98.57 273.45,-105.35"/>
</a>
</g>
</g>
<!-- 28 -->
<g id="node3" class="node">
<title>28</title>
<g id="a_node3"><a xlink:title="atomshashtable.h">
<polygon fill="#ffffff" stroke="black" points="327.5,-540 184.5,-540 184.5,-504 327.5,-504 327.5,-540"/>
<text text-anchor="middle" x="256" y="-518.3" font-family="Times,serif" font-size="14.00">atomshashtable.h</text>
</a>
</g>
</g>
<!-- 28&#45;&gt;4 -->
<g id="edge5" class="edge">
<title>28&#45;&gt;4</title>
<g id="a_edge5"><a xlink:title="include">
<path fill="none" stroke="#1414ce" d="M256.6,-503.87C257.46,-479.67 259.02,-435.21 260.04,-406.39"/>
<polygon fill="#1414ce" stroke="#1414ce" points="263.54,-406.31 260.39,-396.19 256.54,-406.06 263.54,-406.31"/>
</a>
</g>
</g>
<!-- 29 -->
<g id="node4" class="node">
<title>29</title>
<g id="a_node4"><a xlink:title="context.h">
<polygon fill="#ffffff" stroke="black" points="457.5,-612 374.5,-612 374.5,-576 457.5,-576 457.5,-612"/>
<text text-anchor="middle" x="416" y="-590.3" font-family="Times,serif" font-size="14.00">context.h</text>
</a>
</g>
</g>
<!-- 2 -->
<g id="node7" class="node">
<title>2</title>
<g id="a_node7"><a xlink:title="globalcontext.h">
<polygon fill="#ffffff" stroke="black" points="571.5,-540 444.5,-540 444.5,-504 571.5,-504 571.5,-540"/>
<text text-anchor="middle" x="508" y="-518.3" font-family="Times,serif" font-size="14.00">globalcontext.h</text>
</a>
</g>
</g>
<!-- 29&#45;&gt;2 -->
<g id="edge6" class="edge">
<title>29&#45;&gt;2</title>
<g id="a_edge6"><a xlink:title="include">
<path fill="none" stroke="#1414ce" d="M438.74,-575.7C450.44,-566.8 464.86,-555.82 477.51,-546.2"/>
<polygon fill="#1414ce" stroke="#1414ce" points="479.68,-548.94 485.52,-540.1 475.44,-543.37 479.68,-548.94"/>
</a>
</g>
</g>
<!-- 13 -->
<g id="node8" class="node">
<title>13</title>
<g id="a_node8"><a xlink:title="list.h">
<polygon fill="#ffffff" stroke="black" points="665,-180 611,-180 611,-144 665,-144 665,-180"/>
<text text-anchor="middle" x="638" y="-158.3" font-family="Times,serif" font-size="14.00">list.h</text>
</a>
</g>
</g>
<!-- 29&#45;&gt;13 -->
<g id="edge7" class="edge">
<title>29&#45;&gt;13</title>
<g id="a_edge7"><a xlink:title="include">
<path fill="none" stroke="#1414ce" d="M415.45,-575.93C414.51,-517.92 419.12,-325.88 515,-216 537.1,-190.68 573.45,-177.05 600.92,-169.99"/>
<polygon fill="#1414ce" stroke="#1414ce" points="602.05,-173.32 610.96,-167.6 600.42,-166.51 602.05,-173.32"/>
</a>
</g>
</g>
<!-- 14 -->
<g id="node9" class="node">
<title>14</title>
<g id="a_node9"><a xlink:title="mailbox.h">
<polygon fill="#ffffff" stroke="black" points="866,-252 780,-252 780,-216 866,-216 866,-252"/>
<text text-anchor="middle" x="823" y="-230.3" font-family="Times,serif" font-size="14.00">mailbox.h</text>
</a>
</g>
</g>
<!-- 29&#45;&gt;14 -->
<g id="edge8" class="edge">
<title>29&#45;&gt;14</title>
<g id="a_edge8"><a xlink:title="include">
<path fill="none" stroke="#1414ce" d="M457.68,-584.5C492.04,-576.36 541.23,-562.02 580,-540 622.17,-516.05 629.75,-504.22 662,-468 678.37,-449.61 767.67,-317.38 805.77,-260.69"/>
<polygon fill="#1414ce" stroke="#1414ce" points="808.75,-262.52 811.42,-252.27 802.94,-258.62 808.75,-262.52"/>
</a>
</g>
</g>
<!-- 18 -->
<g id="node14" class="node">
<title>18</title>
<g id="a_node14"><a xlink:title="smp.h">
<polygon fill="#ffffff" stroke="black" points="354,-180 294,-180 294,-144 354,-144 354,-180"/>
<text text-anchor="middle" x="324" y="-158.3" font-family="Times,serif" font-size="14.00">smp.h</text>
</a>
</g>
</g>
<!-- 29&#45;&gt;18 -->
<g id="edge9" class="edge">
<title>29&#45;&gt;18</title>
<g id="a_edge9"><a xlink:title="include">
<path fill="none" stroke="#1414ce" d="M401.52,-575.98C393.9,-566.1 385.1,-553.06 380,-540 331.56,-415.88 324.68,-253.79 323.94,-190.24"/>
<polygon fill="#1414ce" stroke="#1414ce" points="327.44,-190.2 323.87,-180.22 320.44,-190.25 327.44,-190.2"/>
</a>
</g>
</g>
<!-- 20 -->
<g id="node17" class="node">
<title>20</title>
<g id="a_node17"><a xlink:title="term.h">
<polygon fill="#ffffff" stroke="black" points="956.5,-468 891.5,-468 891.5,-432 956.5,-432 956.5,-468"/>
<text text-anchor="middle" x="924" y="-446.3" font-family="Times,serif" font-size="14.00">term.h</text>
</a>
</g>
</g>
<!-- 29&#45;&gt;20 -->
<g id="edge10" class="edge">
<title>29&#45;&gt;20</title>
<g id="a_edge10"><a xlink:title="include">
<path fill="none" stroke="#1414ce" d="M457.59,-588.23C528.01,-579.72 667.42,-560.83 712,-540 734.58,-529.45 733.13,-515.96 755,-504 795.27,-481.98 846.03,-467.62 881.36,-459.47"/>
<polygon fill="#1414ce" stroke="#1414ce" points="882.36,-462.84 891.35,-457.24 880.83,-456.01 882.36,-462.84"/>
</a>
</g>
</g>
<!-- 26 -->
<g id="node19" class="node">
<title>26</title>
<g id="a_node19"><a xlink:title="timer_list.h">
<polygon fill="#ffffff" stroke="black" points="278,-252 180,-252 180,-216 278,-216 278,-252"/>
<text text-anchor="middle" x="229" y="-230.3" font-family="Times,serif" font-size="14.00">timer_list.h</text>
</a>
</g>
</g>
<!-- 29&#45;&gt;26 -->
<g id="edge11" class="edge">
<title>29&#45;&gt;26</title>
<g id="a_edge11"><a xlink:title="include">
<path fill="none" stroke="#1414ce" d="M374.39,-578.62C371.23,-577.69 368.07,-576.8 365,-576 239.92,-543.46 147.58,-586.06 95,-468 59.3,-387.85 148.34,-299.74 198.13,-258.6"/>
<polygon fill="#1414ce" stroke="#1414ce" points="200.49,-261.19 206.05,-252.18 196.08,-255.76 200.49,-261.19"/>
</a>
</g>
</g>
<!-- 8 -->
<g id="node5" class="node">
<title>8</title>
<g id="a_node5"><a xlink:title="erl_nif.h">
<polygon fill="#ffffff" stroke="black" points="1380,-180 1306,-180 1306,-144 1380,-144 1380,-180"/>
<text text-anchor="middle" x="1343" y="-158.3" font-family="Times,serif" font-size="14.00">erl_nif.h</text>
</a>
</g>
</g>
<!-- 9 -->
<g id="node18" class="node">
<title>9</title>
<g id="a_node18"><a xlink:title="term_typedef.h">
<polygon fill="#ffffff" stroke="black" points="1393.5,-108 1268.5,-108 1268.5,-72 1393.5,-72 1393.5,-108"/>
<text text-anchor="middle" x="1331" y="-86.3" font-family="Times,serif" font-size="14.00">term_typedef.h</text>
</a>
</g>
</g>
<!-- 8&#45;&gt;9 -->
<g id="edge12" class="edge">
<title>8&#45;&gt;9</title>
<g id="a_edge12"><a xlink:title="include">
<path fill="none" stroke="#1414ce" d="M1340.03,-143.7C1338.71,-135.98 1337.12,-126.71 1335.65,-118.11"/>
<polygon fill="#1414ce" stroke="#1414ce" points="1339.07,-117.37 1333.93,-108.1 1332.17,-118.55 1339.07,-117.37"/>
</a>
</g>
</g>
<!-- 30 -->
<g id="node6" class="node">
<title>30</title>
<g id="a_node6"><a xlink:title="exportedfunction.h">
<polygon fill="#ffffff" stroke="black" points="916,-540 764,-540 764,-504 916,-504 916,-540"/>
<text text-anchor="middle" x="840" y="-518.3" font-family="Times,serif" font-size="14.00">exportedfunction.h</text>
</a>
</g>
</g>
<!-- 30&#45;&gt;20 -->
<g id="edge13" class="edge">
<title>30&#45;&gt;20</title>
<g id="a_edge13"><a xlink:title="include">
<path fill="none" stroke="#1414ce" d="M860.76,-503.7C871.24,-494.97 884.11,-484.24 895.5,-474.75"/>
<polygon fill="#1414ce" stroke="#1414ce" points="898.03,-477.19 903.47,-468.1 893.55,-471.82 898.03,-477.19"/>
</a>
</g>
</g>
<!-- 2&#45;&gt;4 -->
<g id="edge15" class="edge">
<title>2&#45;&gt;4</title>
<g id="a_edge15"><a xlink:title="include">
<path fill="none" stroke="#1414ce" d="M478.21,-503.87C433.51,-478.18 349.1,-429.65 299.7,-401.25"/>
<polygon fill="#1414ce" stroke="#1414ce" points="301.31,-398.14 290.9,-396.19 297.82,-404.21 301.31,-398.14"/>
</a>
</g>
</g>
<!-- 2&#45;&gt;6 -->
<g id="edge16" class="edge">
<title>2&#45;&gt;6</title>
<g id="a_edge16"><a xlink:title="include">
<path fill="none" stroke="#1414ce" d="M444.39,-508.24C381.69,-495.67 286.36,-476.55 223.39,-463.91"/>
<polygon fill="#1414ce" stroke="#1414ce" points="224.06,-460.48 213.57,-461.94 222.68,-467.34 224.06,-460.48"/>
</a>
</g>
</g>
<!-- 2&#45;&gt;8 -->
<g id="edge17" class="edge">
<title>2&#45;&gt;8</title>
<g id="a_edge17"><a xlink:title="include">
<path fill="none" stroke="#1414ce" d="M571.73,-517.23C771.16,-504.59 1370,-459.91 1370,-379 1370,-379 1370,-379 1370,-305 1370,-264.5 1359.27,-218.63 1351.34,-190.26"/>
<polygon fill="#1414ce" stroke="#1414ce" points="1354.6,-188.93 1348.46,-180.29 1347.87,-190.87 1354.6,-188.93"/>
</a>
</g>
</g>
<!-- 2&#45;&gt;13 -->
<g id="edge18" class="edge">
<title>2&#45;&gt;13</title>
<g id="a_edge18"><a xlink:title="include">
<path fill="none" stroke="#1414ce" d="M516.24,-503.75C536.11,-461.6 587.28,-349.71 618,-252 624.4,-231.64 629.61,-208.04 633.1,-190.27"/>
<polygon fill="#1414ce" stroke="#1414ce" points="636.57,-190.77 635,-180.29 629.69,-189.45 636.57,-190.77"/>
</a>
</g>
</g>
<!-- 2&#45;&gt;14 -->
<g id="edge19" class="edge">
<title>2&#45;&gt;14</title>
<g id="a_edge19"><a xlink:title="include">
<path fill="none" stroke="#1414ce" d="M571.5,-505.36C594.07,-497.25 618.26,-485.29 636,-468 673.62,-431.34 653.68,-402.89 684,-360 710.86,-322.01 725.29,-318.99 760,-288 770.96,-278.21 783.28,-267.74 794.09,-258.71"/>
<polygon fill="#1414ce" stroke="#1414ce" points="796.57,-261.2 802.02,-252.12 792.09,-255.82 796.57,-261.2"/>
</a>
</g>
</g>
<!-- 2&#45;&gt;18 -->
<g id="edge20" class="edge">
<title>2&#45;&gt;18</title>
<g id="a_edge20"><a xlink:title="include">
<path fill="none" stroke="#1414ce" d="M498.87,-503.76C476.35,-461.17 416.47,-347.54 368,-252 357.34,-230.99 345.52,-207.04 336.82,-189.28"/>
<polygon fill="#1414ce" stroke="#1414ce" points="339.87,-187.56 332.33,-180.11 333.58,-190.64 339.87,-187.56"/>
</a>
</g>
</g>
<!-- 19 -->
<g id="node15" class="node">
<title>19</title>
<g id="a_node15"><a xlink:title="synclist.h">
<polygon fill="#ffffff" stroke="black" points="609.5,-252 524.5,-252 524.5,-216 609.5,-216 609.5,-252"/>
<text text-anchor="middle" x="567" y="-230.3" font-family="Times,serif" font-size="14.00">synclist.h</text>
</a>
</g>
</g>
<!-- 2&#45;&gt;19 -->
<g id="edge21" class="edge">
<title>2&#45;&gt;19</title>
<g id="a_edge21"><a xlink:title="include">
<path fill="none" stroke="#1414ce" d="M507.03,-503.72C505.38,-464.22 504.57,-364.78 532,-288 535.41,-278.44 540.9,-268.91 546.52,-260.61"/>
<polygon fill="#1414ce" stroke="#1414ce" points="549.37,-262.64 552.35,-252.47 543.68,-258.57 549.37,-262.64"/>
</a>
</g>
</g>
<!-- 2&#45;&gt;20 -->
<g id="edge22" class="edge">
<title>2&#45;&gt;20</title>
<g id="a_edge22"><a xlink:title="include">
<path fill="none" stroke="#1414ce" d="M571.63,-510.29C657.32,-495.87 807.52,-470.6 881.02,-458.23"/>
<polygon fill="#1414ce" stroke="#1414ce" points="882.01,-461.61 891.29,-456.5 880.85,-454.71 882.01,-461.61"/>
</a>
</g>
</g>
<!-- 2&#45;&gt;26 -->
<g id="edge23" class="edge">
<title>2&#45;&gt;26</title>
<g id="a_edge23"><a xlink:title="include">
<path fill="none" stroke="#1414ce" d="M491.12,-503.83C480.94,-493.46 467.72,-479.98 456,-468 381.85,-392.16 294.32,-302.19 252.95,-259.64"/>
<polygon fill="#1414ce" stroke="#1414ce" points="255.26,-257 245.78,-252.27 250.24,-261.88 255.26,-257"/>
</a>
</g>
</g>
<!-- 2&#45;&gt;3 -->
<g id="edge14" class="edge">
<title>2&#45;&gt;3</title>
<g id="a_edge14"><a xlink:title="include">
<path fill="none" stroke="#1414ce" d="M524.06,-503.67C533.34,-493.48 545.09,-480.23 555,-468 692.88,-297.93 681.18,-213.8 848,-72 864.91,-57.63 886.38,-45.8 905.34,-36.99"/>
<polygon fill="#1414ce" stroke="#1414ce" points="907.01,-40.07 914.7,-32.78 904.14,-33.69 907.01,-40.07"/>
</a>
</g>
</g>
<!-- 14&#45;&gt;13 -->
<g id="edge25" class="edge">
<title>14&#45;&gt;13</title>
<g id="a_edge25"><a xlink:title="include">
<path fill="none" stroke="#1414ce" d="M779.63,-216.59C747.77,-204.53 704.96,-188.34 674.78,-176.92"/>
<polygon fill="#1414ce" stroke="#1414ce" points="675.65,-173.5 665.06,-173.24 673.17,-180.05 675.65,-173.5"/>
</a>
</g>
</g>
<!-- 14&#45;&gt;9 -->
<g id="edge26" class="edge">
<title>14&#45;&gt;9</title>
<g id="a_edge26"><a xlink:title="include">
<path fill="none" stroke="#1414ce" d="M866.03,-225.29C915.42,-216.08 998.68,-199.45 1069,-180 1141.79,-159.87 1223.99,-130.9 1276.59,-111.54"/>
<polygon fill="#1414ce" stroke="#1414ce" points="1277.89,-114.79 1286.05,-108.04 1275.46,-108.22 1277.89,-114.79"/>
</a>
</g>
</g>
<!-- 15 -->
<g id="node20" class="node">
<title>15</title>
<g id="a_node20"><a xlink:title="utils.h">
<polygon fill="#ffffff" stroke="black" points="1060,-180 998,-180 998,-144 1060,-144 1060,-180"/>
<text text-anchor="middle" x="1029" y="-158.3" font-family="Times,serif" font-size="14.00">utils.h</text>
</a>
</g>
</g>
<!-- 14&#45;&gt;15 -->
<g id="edge27" class="edge">
<title>14&#45;&gt;15</title>
<g id="a_edge27"><a xlink:title="include">
<path fill="none" stroke="#1414ce" d="M866.18,-218.33C902.2,-206.09 953.16,-188.77 988.43,-176.79"/>
<polygon fill="#1414ce" stroke="#1414ce" points="989.59,-180.09 997.93,-173.56 987.34,-173.46 989.59,-180.09"/>
</a>
</g>
</g>
<!-- 14&#45;&gt;7 -->
<g id="edge24" class="edge">
<title>14&#45;&gt;7</title>
<g id="a_edge24"><a xlink:title="include">
<path fill="none" stroke="#1414ce" d="M800.67,-215.83C772.69,-195.26 722.5,-161.39 674,-144 572.48,-107.59 445.67,-96.19 375.95,-92.63"/>
<polygon fill="#1414ce" stroke="#1414ce" points="375.83,-89.12 365.68,-92.14 375.5,-96.11 375.83,-89.12"/>
</a>
</g>
</g>
<!-- 23 -->
<g id="node10" class="node">
<title>23</title>
<g id="a_node10"><a xlink:title="memory.h">
<polygon fill="#ffffff" stroke="black" points="1212,-252 1126,-252 1126,-216 1212,-216 1212,-252"/>
<text text-anchor="middle" x="1169" y="-230.3" font-family="Times,serif" font-size="14.00">memory.h</text>
</a>
</g>
</g>
<!-- 23&#45;&gt;8 -->
<g id="edge30" class="edge">
<title>23&#45;&gt;8</title>
<g id="a_edge30"><a xlink:title="include">
<path fill="none" stroke="#1414ce" d="M1211.57,-215.88C1237.28,-205.53 1270.08,-192.34 1296.48,-181.72"/>
<polygon fill="#1414ce" stroke="#1414ce" points="1297.92,-184.91 1305.89,-177.93 1295.31,-178.41 1297.92,-184.91"/>
</a>
</g>
</g>
<!-- 23&#45;&gt;9 -->
<g id="edge31" class="edge">
<title>23&#45;&gt;9</title>
<g id="a_edge31"><a xlink:title="include">
<path fill="none" stroke="#1414ce" d="M1188.54,-215.87C1217.25,-190.71 1270.93,-143.65 1303.57,-115.04"/>
<polygon fill="#1414ce" stroke="#1414ce" points="1306.18,-117.41 1311.39,-108.19 1301.56,-112.15 1306.18,-117.41"/>
</a>
</g>
</g>
<!-- 23&#45;&gt;15 -->
<g id="edge32" class="edge">
<title>23&#45;&gt;15</title>
<g id="a_edge32"><a xlink:title="include">
<path fill="none" stroke="#1414ce" d="M1134.75,-215.88C1114.96,-205.98 1089.94,-193.47 1069.22,-183.11"/>
<polygon fill="#1414ce" stroke="#1414ce" points="1070.54,-179.86 1060.03,-178.51 1067.41,-186.12 1070.54,-179.86"/>
</a>
</g>
</g>
<!-- 23&#45;&gt;3 -->
<g id="edge28" class="edge">
<title>23&#45;&gt;3</title>
<g id="a_edge28"><a xlink:title="include">
<path fill="none" stroke="#1414ce" d="M1167.78,-215.82C1164.53,-183.2 1152.91,-112.01 1112,-72 1081.17,-41.85 1032.88,-28.85 997.23,-23.25"/>
<polygon fill="#1414ce" stroke="#1414ce" points="997.46,-19.74 987.07,-21.79 996.47,-26.67 997.46,-19.74"/>
</a>
</g>
</g>
<!-- 23&#45;&gt;5 -->
<g id="edge29" class="edge">
<title>23&#45;&gt;5</title>
<g id="a_edge29"><a xlink:title="include">
<path fill="none" stroke="#1414ce" d="M1159.79,-215.75C1148.5,-196.03 1127.66,-163.93 1102,-144 1095.05,-138.6 1053.97,-121.84 1020.39,-108.59"/>
<polygon fill="#1414ce" stroke="#1414ce" points="1021.29,-105.19 1010.7,-104.79 1018.73,-111.7 1021.29,-105.19"/>
</a>
</g>
</g>
<!-- 27 -->
<g id="node11" class="node">
<title>27</title>
<g id="a_node11"><a xlink:title="module.h">
<polygon fill="#ffffff" stroke="black" points="457.5,-684 374.5,-684 374.5,-648 457.5,-648 457.5,-684"/>
<text text-anchor="middle" x="416" y="-662.3" font-family="Times,serif" font-size="14.00">module.h</text>
</a>
</g>
</g>
<!-- 27&#45;&gt;4 -->
<g id="edge35" class="edge">
<title>27&#45;&gt;4</title>
<g id="a_edge35"><a xlink:title="include">
<path fill="none" stroke="#1414ce" d="M374.26,-660.37C316.73,-653.13 217.28,-637.3 192,-612 157.65,-577.63 153.49,-547.57 175,-504 186.65,-480.41 205.76,-488.7 222,-468 236.58,-449.41 246.88,-424.52 253.22,-405.79"/>
<polygon fill="#1414ce" stroke="#1414ce" points="256.61,-406.69 256.34,-396.1 249.94,-404.54 256.61,-406.69"/>
</a>
</g>
</g>
<!-- 27&#45;&gt;6 -->
<g id="edge36" class="edge">
<title>27&#45;&gt;6</title>
<g id="a_edge36"><a xlink:title="include">
<path fill="none" stroke="#1414ce" d="M374.23,-664.29C297.34,-662.01 138.12,-652.4 104,-612 73.03,-575.33 85.22,-548.17 104,-504 108.73,-492.86 117.08,-482.93 125.87,-474.76"/>
<polygon fill="#1414ce" stroke="#1414ce" points="128.35,-477.24 133.62,-468.05 123.77,-471.95 128.35,-477.24"/>
</a>
</g>
</g>
<!-- 27&#45;&gt;28 -->
<g id="edge37" class="edge">
<title>27&#45;&gt;28</title>
<g id="a_edge37"><a xlink:title="include">
<path fill="none" stroke="#1414ce" d="M374.16,-660.74C317.8,-654.04 222.1,-638.93 201,-612 184.71,-591.21 204.68,-565.32 224.96,-546.83"/>
<polygon fill="#1414ce" stroke="#1414ce" points="227.42,-549.33 232.68,-540.14 222.83,-544.05 227.42,-549.33"/>
</a>
</g>
</g>
<!-- 27&#45;&gt;29 -->
<g id="edge38" class="edge">
<title>27&#45;&gt;29</title>
<g id="a_edge38"><a xlink:title="include">
<path fill="none" stroke="#1414ce" d="M416,-647.7C416,-639.98 416,-630.71 416,-622.11"/>
<polygon fill="#1414ce" stroke="#1414ce" points="419.5,-622.1 416,-612.1 412.5,-622.1 419.5,-622.1"/>
</a>
</g>
</g>
<!-- 27&#45;&gt;30 -->
<g id="edge39" class="edge">
<title>27&#45;&gt;30</title>
<g id="a_edge39"><a xlink:title="include">
<path fill="none" stroke="#1414ce" d="M457.82,-651C533.23,-625.74 692.27,-572.48 779.54,-543.25"/>
<polygon fill="#1414ce" stroke="#1414ce" points="780.67,-546.56 789.04,-540.07 778.45,-539.92 780.67,-546.56"/>
</a>
</g>
</g>
<!-- 27&#45;&gt;2 -->
<g id="edge40" class="edge">
<title>27&#45;&gt;2</title>
<g id="a_edge40"><a xlink:title="include">
<path fill="none" stroke="#1414ce" d="M435.12,-647.59C445.15,-637.8 457.16,-624.96 466,-612 479.32,-592.47 490.51,-568.05 497.99,-549.73"/>
<polygon fill="#1414ce" stroke="#1414ce" points="501.31,-550.84 501.74,-540.25 494.8,-548.26 501.31,-550.84"/>
</a>
</g>
</g>
<!-- 27&#45;&gt;20 -->
<g id="edge41" class="edge">
<title>27&#45;&gt;20</title>
<g id="a_edge41"><a xlink:title="include">
<path fill="none" stroke="#1414ce" d="M457.65,-661.27C568.64,-650.36 867.06,-614.53 925,-540 938.51,-522.63 936.68,-497.04 932.39,-477.76"/>
<polygon fill="#1414ce" stroke="#1414ce" points="935.78,-476.88 929.92,-468.05 929,-478.61 935.78,-476.88"/>
</a>
</g>
</g>
<!-- 31 -->
<g id="node21" class="node">
<title>31</title>
<g id="a_node21"><a xlink:title="valueshashtable.h">
<polygon fill="#ffffff" stroke="black" points="356,-612 210,-612 210,-576 356,-576 356,-612"/>
<text text-anchor="middle" x="283" y="-590.3" font-family="Times,serif" font-size="14.00">valueshashtable.h</text>
</a>
</g>
</g>
<!-- 27&#45;&gt;31 -->
<g id="edge42" class="edge">
<title>27&#45;&gt;31</title>
<g id="a_edge42"><a xlink:title="include">
<path fill="none" stroke="#1414ce" d="M383.46,-647.88C365.75,-638.55 343.65,-626.92 324.68,-616.94"/>
<polygon fill="#1414ce" stroke="#1414ce" points="326.14,-613.75 315.66,-612.19 322.88,-619.94 326.14,-613.75"/>
</a>
</g>
</g>
<!-- 27&#45;&gt;7 -->
<g id="edge33" class="edge">
<title>27&#45;&gt;7</title>
<g id="a_edge33"><a xlink:title="include">
<path fill="none" stroke="#1414ce" d="M374.48,-663.1C295.59,-658.76 127.81,-645.72 82,-612 46.46,-585.84 38,-567.13 38,-523 38,-523 38,-523 38,-449 38,-307.67 22.87,-238.46 128,-144 167.57,-108.45 228.59,-96.39 272.03,-92.49"/>
<polygon fill="#1414ce" stroke="#1414ce" points="272.42,-95.97 282.11,-91.7 271.87,-88.99 272.42,-95.97"/>
</a>
</g>
</g>
<!-- 27&#45;&gt;3 -->
<g id="edge34" class="edge">
<title>27&#45;&gt;3</title>
<g id="a_edge34"><a xlink:title="include">
<path fill="none" stroke="#1414ce" d="M457.65,-660.37C650.35,-638.84 1446,-548.38 1446,-523 1446,-523 1446,-523 1446,-161 1446,-117.07 1438.79,-97.48 1403,-72 1370.38,-48.78 1106.01,-29.1 997.36,-21.91"/>
<polygon fill="#1414ce" stroke="#1414ce" points="997.55,-18.42 987.35,-21.26 997.1,-25.4 997.55,-18.42"/>
</a>
</g>
</g>
<!-- 24 -->
<g id="node12" class="node">
<title>24</title>
<g id="a_node12"><a xlink:title="refc_binary.h">
<polygon fill="#ffffff" stroke="black" points="1079,-396 971,-396 971,-360 1079,-360 1079,-396"/>
<text text-anchor="middle" x="1025" y="-374.3" font-family="Times,serif" font-size="14.00">refc_binary.h</text>
</a>
</g>
</g>
<!-- 24&#45;&gt;13 -->
<g id="edge45" class="edge">
<title>24&#45;&gt;13</title>
<g id="a_edge45"><a xlink:title="include">
<path fill="none" stroke="#1414ce" d="M970.96,-362.26C915.34,-347.07 836.29,-325.39 833,-324 774.64,-299.36 758.03,-293.29 710,-252 688.4,-233.43 668.42,-207.76 655.02,-188.76"/>
<polygon fill="#1414ce" stroke="#1414ce" points="657.73,-186.53 649.16,-180.29 651.97,-190.51 657.73,-186.53"/>
</a>
</g>
</g>
<!-- 25 -->
<g id="node13" class="node">
<title>25</title>
<g id="a_node13"><a xlink:title="resources.h">
<polygon fill="#ffffff" stroke="black" points="942,-324 842,-324 842,-288 942,-288 942,-324"/>
<text text-anchor="middle" x="892" y="-302.3" font-family="Times,serif" font-size="14.00">resources.h</text>
</a>
</g>
</g>
<!-- 24&#45;&gt;25 -->
<g id="edge46" class="edge">
<title>24&#45;&gt;25</title>
<g id="a_edge46"><a xlink:title="include">
<path fill="none" stroke="#1414ce" d="M992.46,-359.88C974.75,-350.55 952.65,-338.92 933.68,-328.94"/>
<polygon fill="#1414ce" stroke="#1414ce" points="935.14,-325.75 924.66,-324.19 931.88,-331.94 935.14,-325.75"/>
</a>
</g>
</g>
<!-- 24&#45;&gt;7 -->
<g id="edge43" class="edge">
<title>24&#45;&gt;7</title>
<g id="a_edge43"><a xlink:title="include">
<path fill="none" stroke="#1414ce" d="M970.78,-362.03C967.82,-361.32 964.88,-360.63 962,-360 869.96,-339.7 844.73,-345.69 753,-324 699.23,-311.29 563.08,-279.23 515,-252 452.85,-216.8 451.28,-189.23 396,-144 383.51,-133.78 369.28,-123.11 356.79,-114.05"/>
<polygon fill="#1414ce" stroke="#1414ce" points="358.63,-111.06 348.47,-108.06 354.54,-116.75 358.63,-111.06"/>
</a>
</g>
</g>
<!-- 24&#45;&gt;5 -->
<g id="edge44" class="edge">
<title>24&#45;&gt;5</title>
<g id="a_edge44"><a xlink:title="include">
<path fill="none" stroke="#1414ce" d="M1021.73,-359.9C1015.23,-325.75 1000.33,-246.67 989,-180 985.48,-159.31 981.81,-135.87 979.11,-118.23"/>
<polygon fill="#1414ce" stroke="#1414ce" points="982.53,-117.44 977.56,-108.08 975.61,-118.5 982.53,-117.44"/>
</a>
</g>
</g>
<!-- 25&#45;&gt;8 -->
<g id="edge48" class="edge">
<title>25&#45;&gt;8</title>
<g id="a_edge48"><a xlink:title="include">
<path fill="none" stroke="#1414ce" d="M942.19,-304.13C1008.46,-301.39 1127.68,-290.9 1221,-252 1258.02,-236.57 1294.35,-207.8 1317.61,-187.15"/>
<polygon fill="#1414ce" stroke="#1414ce" points="1320.2,-189.52 1325.27,-180.21 1315.5,-184.33 1320.2,-189.52"/>
</a>
</g>
</g>
<!-- 25&#45;&gt;13 -->
<g id="edge49" class="edge">
<title>25&#45;&gt;13</title>
<g id="a_edge49"><a xlink:title="include">
<path fill="none" stroke="#1414ce" d="M847.99,-287.92C824.64,-278.32 795.74,-265.56 771,-252 734.66,-232.09 695.52,-205.17 669.18,-186.17"/>
<polygon fill="#1414ce" stroke="#1414ce" points="670.91,-183.1 660.76,-180.05 666.79,-188.76 670.91,-183.1"/>
</a>
</g>
</g>
<!-- 25&#45;&gt;23 -->
<g id="edge50" class="edge">
<title>25&#45;&gt;23</title>
<g id="a_edge50"><a xlink:title="include">
<path fill="none" stroke="#1414ce" d="M942.16,-292.32C991.17,-279.94 1065.51,-261.15 1115.59,-248.5"/>
<polygon fill="#1414ce" stroke="#1414ce" points="1116.75,-251.81 1125.59,-245.97 1115.03,-245.03 1116.75,-251.81"/>
</a>
</g>
</g>
<!-- 25&#45;&gt;19 -->
<g id="edge51" class="edge">
<title>25&#45;&gt;19</title>
<g id="a_edge51"><a xlink:title="include">
<path fill="none" stroke="#1414ce" d="M841.93,-294.22C781.63,-281.23 680.82,-259.52 619.47,-246.3"/>
<polygon fill="#1414ce" stroke="#1414ce" points="620.12,-242.86 609.61,-244.18 618.64,-249.7 620.12,-242.86"/>
</a>
</g>
</g>
<!-- 25&#45;&gt;5 -->
<g id="edge47" class="edge">
<title>25&#45;&gt;5</title>
<g id="a_edge47"><a xlink:title="include">
<path fill="none" stroke="#1414ce" d="M898.65,-287.85C913.07,-250.68 947.29,-162.44 964.6,-117.82"/>
<polygon fill="#1414ce" stroke="#1414ce" points="967.96,-118.82 968.32,-108.23 961.44,-116.29 967.96,-118.82"/>
</a>
</g>
</g>
<!-- 18&#45;&gt;7 -->
<g id="edge52" class="edge">
<title>18&#45;&gt;7</title>
<g id="a_edge52"><a xlink:title="include">
<path fill="none" stroke="#1414ce" d="M324,-143.7C324,-135.98 324,-126.71 324,-118.11"/>
<polygon fill="#1414ce" stroke="#1414ce" points="327.5,-118.1 324,-108.1 320.5,-118.1 327.5,-118.1"/>
</a>
</g>
</g>
<!-- 19&#45;&gt;13 -->
<g id="edge54" class="edge">
<title>19&#45;&gt;13</title>
<g id="a_edge54"><a xlink:title="include">
<path fill="none" stroke="#1414ce" d="M584.55,-215.7C593.23,-207.14 603.86,-196.66 613.35,-187.3"/>
<polygon fill="#1414ce" stroke="#1414ce" points="615.99,-189.62 620.65,-180.1 611.07,-184.63 615.99,-189.62"/>
</a>
</g>
</g>
<!-- 19&#45;&gt;18 -->
<g id="edge55" class="edge">
<title>19&#45;&gt;18</title>
<g id="a_edge55"><a xlink:title="include">
<path fill="none" stroke="#1414ce" d="M524.39,-220.73C479.19,-207.7 408.3,-187.29 364.08,-174.55"/>
<polygon fill="#1414ce" stroke="#1414ce" points="364.84,-171.12 354.26,-171.72 362.9,-177.85 364.84,-171.12"/>
</a>
</g>
</g>
<!-- 17 -->
<g id="node28" class="node">
<title>17</title>
<g id="a_node28"><a xlink:title="stdio.h">
<polygon fill="#ffffff" stroke="black" points="921.5,-108 856.5,-108 856.5,-72 921.5,-72 921.5,-108"/>
<text text-anchor="middle" x="889" y="-86.3" font-family="Times,serif" font-size="14.00">stdio.h</text>
</a>
</g>
</g>
<!-- 19&#45;&gt;17 -->
<g id="edge53" class="edge">
<title>19&#45;&gt;17</title>
<g id="a_edge53"><a xlink:title="include">
<path fill="none" stroke="#1414ce" d="M568.82,-215.69C571.93,-195.31 580.22,-161.95 602,-144 638.63,-113.81 775.4,-99.42 846.09,-93.87"/>
<polygon fill="#1414ce" stroke="#1414ce" points="846.72,-97.34 856.43,-93.09 846.19,-90.36 846.72,-97.34"/>
</a>
</g>
</g>
<!-- 1 -->
<g id="node16" class="node">
<title>1</title>
<g id="a_node16"><a xlink:title="/__w/AtomVM/AtomVM/src/libAtomVM/sys.h">
<polygon fill="#bfbfbf" stroke="black" points="654,-756 324,-756 324,-720 654,-720 654,-756"/>
<text text-anchor="middle" x="489" y="-734.3" font-family="Times,serif" font-size="14.00">/__w/AtomVM/AtomVM/src/libAtomVM/sys.h</text>
</a>
</g>
</g>
<!-- 1&#45;&gt;2 -->
<g id="edge56" class="edge">
<title>1&#45;&gt;2</title>
<g id="a_edge56"><a xlink:title="include">
<path fill="none" stroke="#1414ce" d="M490.52,-719.85C493.81,-682.83 501.59,-595.18 505.57,-550.39"/>
<polygon fill="#1414ce" stroke="#1414ce" points="509.07,-550.5 506.47,-540.23 502.1,-549.88 509.07,-550.5"/>
</a>
</g>
</g>
<!-- 1&#45;&gt;27 -->
<g id="edge57" class="edge">
<title>1&#45;&gt;27</title>
<g id="a_edge57"><a xlink:title="include">
<path fill="none" stroke="#1414ce" d="M470.96,-719.7C461.94,-711.05 450.88,-700.45 441.06,-691.03"/>
<polygon fill="#1414ce" stroke="#1414ce" points="443.48,-688.5 433.84,-684.1 438.63,-693.55 443.48,-688.5"/>
</a>
</g>
</g>
<!-- 1&#45;&gt;3 -->
<g id="edge58" class="edge">
<title>1&#45;&gt;3</title>
<g id="a_edge58"><a xlink:title="include">
<path fill="none" stroke="#1414ce" d="M323.79,-720.54C181.88,-701.66 0,-664.01 0,-595 0,-595 0,-595 0,-161 0,-58.81 112.61,-95.75 212,-72 344.58,-40.32 764.17,-24.77 904.66,-20.35"/>
<polygon fill="#1414ce" stroke="#1414ce" points="904.78,-23.85 914.67,-20.04 904.57,-16.86 904.78,-23.85"/>
</a>
</g>
</g>
<!-- 32 -->
<g id="node32" class="node">
<title>32</title>
<g id="a_node32"><a xlink:title="time.h">
<polygon fill="#ffffff" stroke="black" points="652,-684 590,-684 590,-648 652,-648 652,-684"/>
<text text-anchor="middle" x="621" y="-662.3" font-family="Times,serif" font-size="14.00">time.h</text>
</a>
</g>
</g>
<!-- 1&#45;&gt;32 -->
<g id="edge59" class="edge">
<title>1&#45;&gt;32</title>
<g id="a_edge59"><a xlink:title="include">
<path fill="none" stroke="#1414ce" d="M521.29,-719.88C539.26,-710.35 561.79,-698.4 580.89,-688.27"/>
<polygon fill="#1414ce" stroke="#1414ce" points="582.76,-691.24 589.95,-683.47 579.48,-685.06 582.76,-691.24"/>
</a>
</g>
</g>
<!-- 20&#45;&gt;23 -->
<g id="edge66" class="edge">
<title>20&#45;&gt;23</title>
<g id="a_edge66"><a xlink:title="include">
<path fill="none" stroke="#1414ce" d="M956.75,-446.37C1015.03,-440.94 1133.1,-426.41 1159,-396 1190.6,-358.9 1183.86,-297.86 1176.3,-262.56"/>
<polygon fill="#1414ce" stroke="#1414ce" points="1179.64,-261.44 1173.97,-252.48 1172.82,-263.01 1179.64,-261.44"/>
</a>
</g>
</g>
<!-- 20&#45;&gt;24 -->
<g id="edge67" class="edge">
<title>20&#45;&gt;24</title>
<g id="a_edge67"><a xlink:title="include">
<path fill="none" stroke="#1414ce" d="M948.71,-431.88C961.67,-422.89 977.73,-411.76 991.77,-402.03"/>
<polygon fill="#1414ce" stroke="#1414ce" points="993.97,-404.76 1000.2,-396.19 989.98,-399.01 993.97,-404.76"/>
</a>
</g>
</g>
<!-- 20&#45;&gt;9 -->
<g id="edge69" class="edge">
<title>20&#45;&gt;9</title>
<g id="a_edge69"><a xlink:title="include">
<path fill="none" stroke="#1414ce" d="M956.7,-447.16C1030.12,-442.49 1205.46,-428.2 1254,-396 1348.34,-333.42 1357.79,-288.82 1389,-180 1393.41,-164.62 1395.45,-158.64 1389,-144 1384.01,-132.69 1375.29,-122.74 1366.1,-114.62"/>
<polygon fill="#1414ce" stroke="#1414ce" points="1368.28,-111.88 1358.34,-108.23 1363.83,-117.28 1368.28,-111.88"/>
</a>
</g>
</g>
<!-- 20&#45;&gt;15 -->
<g id="edge68" class="edge">
<title>20&#45;&gt;15</title>
<g id="a_edge68"><a xlink:title="include">
<path fill="none" stroke="#1414ce" d="M956.62,-449.02C995.2,-447.06 1057.98,-437.25 1088,-396 1112.16,-362.81 1064.33,-243 1040.9,-189.33"/>
<polygon fill="#1414ce" stroke="#1414ce" points="1044.07,-187.85 1036.83,-180.11 1037.67,-190.67 1044.07,-187.85"/>
</a>
</g>
</g>
<!-- 20&#45;&gt;7 -->
<g id="edge61" class="edge">
<title>20&#45;&gt;7</title>
<g id="a_edge61"><a xlink:title="include">
<path fill="none" stroke="#1414ce" d="M891.24,-441.15C855.07,-432.05 795.41,-415.74 746,-396 614.95,-343.65 575.69,-336.96 463,-252 435.61,-231.35 374.77,-155.88 343.45,-116.03"/>
<polygon fill="#1414ce" stroke="#1414ce" points="346.16,-113.82 337.24,-108.1 340.65,-118.13 346.16,-113.82"/>
</a>
</g>
</g>
<!-- 20&#45;&gt;3 -->
<g id="edge62" class="edge">
<title>20&#45;&gt;3</title>
<g id="a_edge62"><a xlink:title="include">
<path fill="none" stroke="#1414ce" d="M956.56,-445.46C1017.41,-438.35 1145.53,-420.84 1182,-396 1221.02,-369.42 1240,-354.21 1240,-307 1240,-307 1240,-307 1240,-161 1240,-54.05 1078.59,-27.65 997.03,-21.13"/>
<polygon fill="#1414ce" stroke="#1414ce" points="997.25,-17.64 987.02,-20.4 996.74,-24.62 997.25,-17.64"/>
</a>
</g>
</g>
<!-- 20&#45;&gt;17 -->
<g id="edge63" class="edge">
<title>20&#45;&gt;17</title>
<g id="a_edge63"><a xlink:title="include">
<path fill="none" stroke="#1414ce" d="M891.31,-449.32C851.87,-447.71 787.01,-438.3 756,-396 746.54,-383.1 749.63,-374.68 756,-360 765.33,-338.51 815.55,-303.63 833,-288 851.32,-271.6 863.77,-273.87 875,-252 896.98,-209.21 895.8,-151.52 892.62,-118.09"/>
<polygon fill="#1414ce" stroke="#1414ce" points="896.1,-117.7 891.54,-108.13 889.14,-118.45 896.1,-117.7"/>
</a>
</g>
</g>
<!-- 20&#45;&gt;5 -->
<g id="edge64" class="edge">
<title>20&#45;&gt;5</title>
<g id="a_edge64"><a xlink:title="include">
<path fill="none" stroke="#1414ce" d="M956.54,-444.19C1003.65,-436.48 1087.18,-419.78 1105,-396 1135.78,-354.91 1074.06,-151.02 1069,-144 1062.32,-134.73 1040.67,-122.27 1019.83,-111.75"/>
<polygon fill="#1414ce" stroke="#1414ce" points="1021.2,-108.53 1010.69,-107.23 1018.1,-114.8 1021.2,-108.53"/>
</a>
</g>
</g>
<!-- 22 -->
<g id="node30" class="node">
<title>22</title>
<g id="a_node30"><a xlink:title="string.h">
<polygon fill="#ffffff" stroke="black" points="837.5,-396 764.5,-396 764.5,-360 837.5,-360 837.5,-396"/>
<text text-anchor="middle" x="801" y="-374.3" font-family="Times,serif" font-size="14.00">string.h</text>
</a>
</g>
</g>
<!-- 20&#45;&gt;22 -->
<g id="edge65" class="edge">
<title>20&#45;&gt;22</title>
<g id="a_edge65"><a xlink:title="include">
<path fill="none" stroke="#1414ce" d="M893.91,-431.88C877.68,-422.64 857.46,-411.13 840.03,-401.21"/>
<polygon fill="#1414ce" stroke="#1414ce" points="841.63,-398.09 831.2,-396.19 838.16,-404.18 841.63,-398.09"/>
</a>
</g>
</g>
<!-- 21 -->
<g id="node31" class="node">
<title>21</title>
<g id="a_node31"><a xlink:title="sys/types.h">
<polygon fill="#ffffff" stroke="black" points="952.5,-396 855.5,-396 855.5,-360 952.5,-360 952.5,-396"/>
<text text-anchor="middle" x="904" y="-374.3" font-family="Times,serif" font-size="14.00">sys/types.h</text>
</a>
</g>
</g>
<!-- 20&#45;&gt;21 -->
<g id="edge60" class="edge">
<title>20&#45;&gt;21</title>
<g id="a_edge60"><a xlink:title="include">
<path fill="none" stroke="#1414ce" d="M919.06,-431.7C916.83,-423.9 914.15,-414.51 911.67,-405.83"/>
<polygon fill="#1414ce" stroke="#1414ce" points="915,-404.76 908.89,-396.1 908.27,-406.68 915,-404.76"/>
</a>
</g>
</g>
<!-- 10 -->
<g id="node22" class="node">
<title>10</title>
<g id="a_node22"><a xlink:title="assert.h">
<polygon fill="#ffffff" stroke="black" points="1368,-36 1294,-36 1294,0 1368,0 1368,-36"/>
<text text-anchor="middle" x="1331" y="-14.3" font-family="Times,serif" font-size="14.00">assert.h</text>
</a>
</g>
</g>
<!-- 9&#45;&gt;10 -->
<g id="edge70" class="edge">
<title>9&#45;&gt;10</title>
<g id="a_edge70"><a xlink:title="include">
<path fill="none" stroke="#1414ce" d="M1331,-71.7C1331,-63.98 1331,-54.71 1331,-46.11"/>
<polygon fill="#1414ce" stroke="#1414ce" points="1334.5,-46.1 1331,-36.1 1327.5,-46.1 1334.5,-46.1"/>
</a>
</g>
</g>
<!-- 12 -->
<g id="node23" class="node">
<title>12</title>
<g id="a_node23"><a xlink:title="inttypes.h">
<polygon fill="#ffffff" stroke="black" points="1475.5,-36 1386.5,-36 1386.5,0 1475.5,0 1475.5,-36"/>
<text text-anchor="middle" x="1431" y="-14.3" font-family="Times,serif" font-size="14.00">inttypes.h</text>
</a>
</g>
</g>
<!-- 9&#45;&gt;12 -->
<g id="edge72" class="edge">
<title>9&#45;&gt;12</title>
<g id="a_edge72"><a xlink:title="include">
<path fill="none" stroke="#1414ce" d="M1355.46,-71.88C1368.3,-62.89 1384.2,-51.76 1398.09,-42.03"/>
<polygon fill="#1414ce" stroke="#1414ce" points="1400.26,-44.79 1406.44,-36.19 1396.24,-39.06 1400.26,-44.79"/>
</a>
</g>
</g>
<!-- 11 -->
<g id="node24" class="node">
<title>11</title>
<g id="a_node24"><a xlink:title="limits.h">
<polygon fill="#ffffff" stroke="black" points="1275.5,-36 1204.5,-36 1204.5,0 1275.5,0 1275.5,-36"/>
<text text-anchor="middle" x="1240" y="-14.3" font-family="Times,serif" font-size="14.00">limits.h</text>
</a>
</g>
</g>
<!-- 9&#45;&gt;11 -->
<g id="edge71" class="edge">
<title>9&#45;&gt;11</title>
<g id="a_edge71"><a xlink:title="include">
<path fill="none" stroke="#1414ce" d="M1308.51,-71.7C1297.04,-62.88 1282.94,-52.03 1270.52,-42.47"/>
<polygon fill="#1414ce" stroke="#1414ce" points="1272.3,-39.43 1262.24,-36.1 1268.03,-44.98 1272.3,-39.43"/>
</a>
</g>
</g>
<!-- 9&#45;&gt;3 -->
<g id="edge73" class="edge">
<title>9&#45;&gt;3</title>
<g id="a_edge73"><a xlink:title="include">
<path fill="none" stroke="#1414ce" d="M1268.43,-74.94C1263.55,-73.92 1258.7,-72.93 1254,-72 1163.31,-54.07 1056.73,-36.15 997.21,-26.43"/>
<polygon fill="#1414ce" stroke="#1414ce" points="997.44,-22.92 987.01,-24.77 996.32,-29.83 997.44,-22.92"/>
</a>
</g>
</g>
<!-- 26&#45;&gt;13 -->
<g id="edge76" class="edge">
<title>26&#45;&gt;13</title>
<g id="a_edge76"><a xlink:title="include">
<path fill="none" stroke="#1414ce" d="M278.33,-224.56C361.16,-210.38 526.36,-182.11 600.48,-169.42"/>
<polygon fill="#1414ce" stroke="#1414ce" points="601.47,-172.8 610.74,-167.67 600.29,-165.9 601.47,-172.8"/>
</a>
</g>
</g>
<!-- 26&#45;&gt;7 -->
<g id="edge74" class="edge">
<title>26&#45;&gt;7</title>
<g id="a_edge74"><a xlink:title="include">
<path fill="none" stroke="#1414ce" d="M239.37,-215.7C250.35,-197.59 268.35,-168.44 285,-144 291.17,-134.94 298.2,-125.22 304.58,-116.61"/>
<polygon fill="#1414ce" stroke="#1414ce" points="307.5,-118.54 310.67,-108.44 301.89,-114.36 307.5,-118.54"/>
</a>
</g>
</g>
<!-- 26&#45;&gt;3 -->
<g id="edge75" class="edge">
<title>26&#45;&gt;3</title>
<g id="a_edge75"><a xlink:title="include">
<path fill="none" stroke="#1414ce" d="M227.88,-215.81C226.73,-182.19 229.57,-107.92 273,-72 321.49,-31.9 759.32,-21.83 904.48,-19.59"/>
<polygon fill="#1414ce" stroke="#1414ce" points="904.87,-23.08 914.82,-19.43 904.77,-16.08 904.87,-23.08"/>
</a>
</g>
</g>
<!-- 16 -->
<g id="node26" class="node">
<title>16</title>
<g id="a_node26"><a xlink:title="stddef.h">
<polygon fill="#ffffff" stroke="black" points="1103,-108 1029,-108 1029,-72 1103,-72 1103,-108"/>
<text text-anchor="middle" x="1066" y="-86.3" font-family="Times,serif" font-size="14.00">stddef.h</text>
</a>
</g>
</g>
<!-- 15&#45;&gt;16 -->
<g id="edge77" class="edge">
<title>15&#45;&gt;16</title>
<g id="a_edge77"><a xlink:title="include">
<path fill="none" stroke="#1414ce" d="M1038.15,-143.7C1042.4,-135.64 1047.56,-125.89 1052.27,-116.98"/>
<polygon fill="#1414ce" stroke="#1414ce" points="1055.38,-118.58 1056.96,-108.1 1049.19,-115.31 1055.38,-118.58"/>
</a>
</g>
</g>
<!-- 15&#45;&gt;17 -->
<g id="edge78" class="edge">
<title>15&#45;&gt;17</title>
<g id="a_edge78"><a xlink:title="include">
<path fill="none" stroke="#1414ce" d="M997.93,-145.46C978.28,-135.64 952.63,-122.82 931.16,-112.08"/>
<polygon fill="#1414ce" stroke="#1414ce" points="932.44,-108.81 921.93,-107.47 929.31,-115.07 932.44,-108.81"/>
</a>
</g>
</g>
<!-- 15&#45;&gt;5 -->
<g id="edge79" class="edge">
<title>15&#45;&gt;5</title>
<g id="a_edge79"><a xlink:title="include">
<path fill="none" stroke="#1414ce" d="M1015.65,-143.7C1009.24,-135.39 1001.44,-125.28 994.39,-116.14"/>
<polygon fill="#1414ce" stroke="#1414ce" points="997.07,-113.88 988.19,-108.1 991.53,-118.16 997.07,-113.88"/>
</a>
</g>
</g>
</g>
</svg>
