<?xml version="1.0" encoding="UTF-8" standalone="no"?>
<!DOCTYPE svg PUBLIC "-//W3C//DTD SVG 1.1//EN"
 "http://www.w3.org/Graphics/SVG/1.1/DTD/svg11.dtd">
<!-- Generated by graphviz version 2.43.0 (0)
 -->
<!-- Title: %3 Pages: 1 -->
<svg width="429pt" height="188pt"
 viewBox="0.00 0.00 429.00 188.00" xmlns="http://www.w3.org/2000/svg" xmlns:xlink="http://www.w3.org/1999/xlink">
<g id="graph0" class="graph" transform="scale(1 1) rotate(0) translate(4 184)">
<title>%3</title>
<polygon fill="transparent" stroke="transparent" points="-4,4 -4,-184 425,-184 425,4 -4,4"/>
<!-- 7 -->
<g id="node1" class="node">
<title>7</title>
<g id="a_node1"><a xlink:title="smp.h">
<polygon fill="#ffffff" stroke="black" points="91.5,-108 31.5,-108 31.5,-72 91.5,-72 91.5,-108"/>
<text text-anchor="middle" x="61.5" y="-86.3" font-family="Times,serif" font-size="14.00">smp.h</text>
</a>
</g>
</g>
<!-- 8 -->
<g id="node5" class="node">
<title>8</title>
<g id="a_node5"><a xlink:title="stdbool.h">
<polygon fill="#ffffff" stroke="black" points="94,-36 11,-36 11,0 94,0 94,-36"/>
<text text-anchor="middle" x="52.5" y="-14.3" font-family="Times,serif" font-size="14.00">stdbool.h</text>
</a>
</g>
</g>
<!-- 7&#45;&gt;8 -->
<g id="edge1" class="edge">
<title>7&#45;&gt;8</title>
<g id="a_edge1"><a xlink:title="include">
<path fill="none" stroke="#1414ce" d="M59.28,-71.7C58.28,-63.98 57.09,-54.71 55.99,-46.11"/>
<polygon fill="#1414ce" stroke="#1414ce" points="59.45,-45.58 54.7,-36.1 52.5,-46.47 59.45,-45.58"/>
</a>
</g>
</g>
<!-- 3 -->
<g id="node2" class="node">
<title>3</title>
<g id="a_node2"><a xlink:title="utils.h">
<polygon fill="#ffffff" stroke="black" points="180.5,-108 118.5,-108 118.5,-72 180.5,-72 180.5,-108"/>
<text text-anchor="middle" x="149.5" y="-86.3" font-family="Times,serif" font-size="14.00">utils.h</text>
</a>
</g>
</g>
<!-- 4 -->
<g id="node6" class="node">
<title>4</title>
<g id="a_node6"><a xlink:title="stddef.h">
<polygon fill="#ffffff" stroke="black" points="186.5,-36 112.5,-36 112.5,0 186.5,0 186.5,-36"/>
<text text-anchor="middle" x="149.5" y="-14.3" font-family="Times,serif" font-size="14.00">stddef.h</text>
</a>
</g>
</g>
<!-- 3&#45;&gt;4 -->
<g id="edge2" class="edge">
<title>3&#45;&gt;4</title>
<g id="a_edge2"><a xlink:title="include">
<path fill="none" stroke="#1414ce" d="M149.5,-71.7C149.5,-63.98 149.5,-54.71 149.5,-46.11"/>
<polygon fill="#1414ce" stroke="#1414ce" points="153,-46.1 149.5,-36.1 146,-46.1 153,-46.1"/>
</a>
</g>
</g>
<!-- 5 -->
<g id="node7" class="node">
<title>5</title>
<g id="a_node7"><a xlink:title="stdio.h">
<polygon fill="#ffffff" stroke="black" points="270,-36 205,-36 205,0 270,0 270,-36"/>
<text text-anchor="middle" x="237.5" y="-14.3" font-family="Times,serif" font-size="14.00">stdio.h</text>
</a>
</g>
</g>
<!-- 3&#45;&gt;5 -->
<g id="edge3" class="edge">
<title>3&#45;&gt;5</title>
<g id="a_edge3"><a xlink:title="include">
<path fill="none" stroke="#1414ce" d="M171.25,-71.7C182.34,-62.88 195.97,-52.03 207.99,-42.47"/>
<polygon fill="#1414ce" stroke="#1414ce" points="210.35,-45.07 216,-36.1 205.99,-39.59 210.35,-45.07"/>
</a>
</g>
</g>
<!-- 6 -->
<g id="node8" class="node">
<title>6</title>
<g id="a_node8"><a xlink:title="stdlib.h">
<polygon fill="#ffffff" stroke="black" points="383,-36 312,-36 312,0 383,0 383,-36"/>
<text text-anchor="middle" x="347.5" y="-14.3" font-family="Times,serif" font-size="14.00">stdlib.h</text>
</a>
</g>
</g>
<!-- 3&#45;&gt;6 -->
<g id="edge4" class="edge">
<title>3&#45;&gt;6</title>
<g id="a_edge4"><a xlink:title="include">
<path fill="none" stroke="#1414ce" d="M180.85,-75.4C183.76,-74.22 186.68,-73.07 189.5,-72 226.97,-57.78 270.14,-43.43 301.88,-33.26"/>
<polygon fill="#1414ce" stroke="#1414ce" points="303.3,-36.48 311.76,-30.11 301.17,-29.81 303.3,-36.48"/>
</a>
</g>
</g>
<!-- 1 -->
<g id="node3" class="node">
<title>1</title>
<g id="a_node3"><a xlink:title="/__w/AtomVM/AtomVM/src/libAtomVM/valueshashtable.c">
<polygon fill="#bfbfbf" stroke="black" points="421,-180 0,-180 0,-144 421,-144 421,-180"/>
<text text-anchor="middle" x="210.5" y="-158.3" font-family="Times,serif" font-size="14.00">/__w/AtomVM/AtomVM/src/libAtomVM/valueshashtable.c</text>
</a>
</g>
</g>
<!-- 1&#45;&gt;7 -->
<g id="edge8" class="edge">
<title>1&#45;&gt;7</title>
<g id="a_edge8"><a xlink:title="include">
<path fill="none" stroke="#1414ce" d="M174.05,-143.88C151.89,-133.46 123.58,-120.17 100.9,-109.51"/>
<polygon fill="#1414ce" stroke="#1414ce" points="102.1,-106.21 91.56,-105.12 99.12,-112.54 102.1,-106.21"/>
</a>
</g>
</g>
<!-- 1&#45;&gt;3 -->
<g id="edge6" class="edge">
<title>1&#45;&gt;3</title>
<g id="a_edge6"><a xlink:title="include">
<path fill="none" stroke="#1414ce" d="M195.42,-143.7C188.11,-135.3 179.19,-125.07 171.16,-115.86"/>
<polygon fill="#1414ce" stroke="#1414ce" points="173.61,-113.34 164.41,-108.1 168.34,-117.94 173.61,-113.34"/>
</a>
</g>
</g>
<!-- 2 -->
<g id="node4" class="node">
<title>2</title>
<g id="a_node4"><a xlink:title="valueshashtable.h">
<polygon fill="#ffffff" stroke="black" points="344.5,-108 198.5,-108 198.5,-72 344.5,-72 344.5,-108"/>
<text text-anchor="middle" x="271.5" y="-86.3" font-family="Times,serif" font-size="14.00">valueshashtable.h</text>
</a>
</g>
</g>
<!-- 1&#45;&gt;2 -->
<g id="edge5" class="edge">
<title>1&#45;&gt;2</title>
<g id="a_edge5"><a xlink:title="include">
<path fill="none" stroke="#1414ce" d="M225.58,-143.7C232.89,-135.3 241.81,-125.07 249.84,-115.86"/>
<polygon fill="#1414ce" stroke="#1414ce" points="252.66,-117.94 256.59,-108.1 247.39,-113.34 252.66,-117.94"/>
</a>
</g>
</g>
<!-- 1&#45;&gt;6 -->
<g id="edge7" class="edge">
<title>1&#45;&gt;6</title>
<g id="a_edge7"><a xlink:title="include">
<path fill="none" stroke="#1414ce" d="M305.76,-143.89C324.51,-136.05 341.93,-124.63 353.5,-108 366.02,-90.01 362.86,-64.7 357.53,-45.67"/>
<polygon fill="#1414ce" stroke="#1414ce" points="360.86,-44.59 354.53,-36.09 354.18,-46.68 360.86,-44.59"/>
</a>
</g>
</g>
</g>
</svg>
