<?xml version="1.0" encoding="UTF-8" standalone="no"?>
<!DOCTYPE svg PUBLIC "-//W3C//DTD SVG 1.1//EN"
 "http://www.w3.org/Graphics/SVG/1.1/DTD/svg11.dtd">
<!-- Generated by graphviz version 2.43.0 (0)
 -->
<!-- Title: %3 Pages: 1 -->
<svg width="1545pt" height="836pt"
 viewBox="0.00 0.00 1544.50 836.00" xmlns="http://www.w3.org/2000/svg" xmlns:xlink="http://www.w3.org/1999/xlink">
<g id="graph0" class="graph" transform="scale(1 1) rotate(0) translate(4 832)">
<title>%3</title>
<polygon fill="transparent" stroke="transparent" points="-4,4 -4,-832 1540.5,-832 1540.5,4 -4,4"/>
<!-- 7 -->
<g id="node1" class="node">
<title>7</title>
<g id="a_node1"><a xlink:title="atom.h">
<polygon fill="#ffffff" stroke="black" points="569,-180 503,-180 503,-144 569,-144 569,-180"/>
<text text-anchor="middle" x="536" y="-158.3" font-family="Times,serif" font-size="14.00">atom.h</text>
</a>
</g>
</g>
<!-- 6 -->
<g id="node27" class="node">
<title>6</title>
<g id="a_node27"><a xlink:title="stdint.h">
<polygon fill="#ffffff" stroke="black" points="773,-36 701,-36 701,0 773,0 773,-36"/>
<text text-anchor="middle" x="737" y="-14.3" font-family="Times,serif" font-size="14.00">stdint.h</text>
</a>
</g>
</g>
<!-- 7&#45;&gt;6 -->
<g id="edge1" class="edge">
<title>7&#45;&gt;6</title>
<g id="a_edge1"><a xlink:title="include">
<path fill="none" stroke="#1414ce" d="M560.25,-143.87C596.31,-118.39 664.17,-70.45 704.5,-41.96"/>
<polygon fill="#1414ce" stroke="#1414ce" points="706.52,-44.82 712.67,-36.19 702.48,-39.1 706.52,-44.82"/>
</a>
</g>
</g>
<!-- 8 -->
<g id="node29" class="node">
<title>8</title>
<g id="a_node29"><a xlink:title="stdlib.h">
<polygon fill="#ffffff" stroke="black" points="1080.5,-108 1009.5,-108 1009.5,-72 1080.5,-72 1080.5,-108"/>
<text text-anchor="middle" x="1045" y="-86.3" font-family="Times,serif" font-size="14.00">stdlib.h</text>
</a>
</g>
</g>
<!-- 7&#45;&gt;8 -->
<g id="edge2" class="edge">
<title>7&#45;&gt;8</title>
<g id="a_edge2"><a xlink:title="include">
<path fill="none" stroke="#1414ce" d="M569.17,-146.53C572.12,-145.56 575.09,-144.7 578,-144 757.94,-100.95 814.5,-147.99 999.64,-107.64"/>
<polygon fill="#1414ce" stroke="#1414ce" points="1000.42,-111.06 1009.41,-105.46 998.89,-104.23 1000.42,-111.06"/>
</a>
</g>
</g>
<!-- 9 -->
<g id="node2" class="node">
<title>9</title>
<g id="a_node2"><a xlink:title="atom_table.h">
<polygon fill="#ffffff" stroke="black" points="329.5,-252 220.5,-252 220.5,-216 329.5,-216 329.5,-252"/>
<text text-anchor="middle" x="275" y="-230.3" font-family="Times,serif" font-size="14.00">atom_table.h</text>
</a>
</g>
</g>
<!-- 9&#45;&gt;7 -->
<g id="edge4" class="edge">
<title>9&#45;&gt;7</title>
<g id="a_edge4"><a xlink:title="include">
<path fill="none" stroke="#1414ce" d="M329.71,-218.33C378.35,-205.28 448.49,-186.47 493.15,-174.49"/>
<polygon fill="#1414ce" stroke="#1414ce" points="494.07,-177.87 502.83,-171.9 492.26,-171.11 494.07,-177.87"/>
</a>
</g>
</g>
<!-- 10 -->
<g id="node25" class="node">
<title>10</title>
<g id="a_node25"><a xlink:title="stdbool.h">
<polygon fill="#ffffff" stroke="black" points="368.5,-108 285.5,-108 285.5,-72 368.5,-72 368.5,-108"/>
<text text-anchor="middle" x="327" y="-86.3" font-family="Times,serif" font-size="14.00">stdbool.h</text>
</a>
</g>
</g>
<!-- 9&#45;&gt;10 -->
<g id="edge3" class="edge">
<title>9&#45;&gt;10</title>
<g id="a_edge3"><a xlink:title="include">
<path fill="none" stroke="#1414ce" d="M281.27,-215.87C290.21,-191.46 306.7,-146.43 317.25,-117.64"/>
<polygon fill="#1414ce" stroke="#1414ce" points="320.55,-118.78 320.71,-108.19 313.98,-116.38 320.55,-118.78"/>
</a>
</g>
</g>
<!-- 4 -->
<g id="node3" class="node">
<title>4</title>
<g id="a_node3"><a xlink:title="context.h">
<polygon fill="#ffffff" stroke="black" points="657.5,-612 574.5,-612 574.5,-576 657.5,-576 657.5,-612"/>
<text text-anchor="middle" x="616" y="-590.3" font-family="Times,serif" font-size="14.00">context.h</text>
</a>
</g>
</g>
<!-- 5 -->
<g id="node6" class="node">
<title>5</title>
<g id="a_node6"><a xlink:title="globalcontext.h">
<polygon fill="#ffffff" stroke="black" points="523.5,-540 396.5,-540 396.5,-504 523.5,-504 523.5,-540"/>
<text text-anchor="middle" x="460" y="-518.3" font-family="Times,serif" font-size="14.00">globalcontext.h</text>
</a>
</g>
</g>
<!-- 4&#45;&gt;5 -->
<g id="edge5" class="edge">
<title>4&#45;&gt;5</title>
<g id="a_edge5"><a xlink:title="include">
<path fill="none" stroke="#1414ce" d="M577.84,-575.88C556.61,-566.35 529.99,-554.41 507.43,-544.28"/>
<polygon fill="#1414ce" stroke="#1414ce" points="508.59,-540.97 498.04,-540.07 505.73,-547.36 508.59,-540.97"/>
</a>
</g>
</g>
<!-- 16 -->
<g id="node10" class="node">
<title>16</title>
<g id="a_node10"><a xlink:title="list.h">
<polygon fill="#ffffff" stroke="black" points="641,-180 587,-180 587,-144 641,-144 641,-180"/>
<text text-anchor="middle" x="614" y="-158.3" font-family="Times,serif" font-size="14.00">list.h</text>
</a>
</g>
</g>
<!-- 4&#45;&gt;16 -->
<g id="edge6" class="edge">
<title>4&#45;&gt;16</title>
<g id="a_edge6"><a xlink:title="include">
<path fill="none" stroke="#1414ce" d="M613.06,-575.86C611.37,-565.5 609.32,-552.02 608,-540 599.24,-460.36 594.75,-440.06 598,-360 600.46,-299.31 607.17,-228.35 611.07,-190.35"/>
<polygon fill="#1414ce" stroke="#1414ce" points="614.59,-190.41 612.14,-180.1 607.62,-189.68 614.59,-190.41"/>
</a>
</g>
</g>
<!-- 17 -->
<g id="node11" class="node">
<title>17</title>
<g id="a_node11"><a xlink:title="mailbox.h">
<polygon fill="#ffffff" stroke="black" points="766,-252 680,-252 680,-216 766,-216 766,-252"/>
<text text-anchor="middle" x="723" y="-230.3" font-family="Times,serif" font-size="14.00">mailbox.h</text>
</a>
</g>
</g>
<!-- 4&#45;&gt;17 -->
<g id="edge7" class="edge">
<title>4&#45;&gt;17</title>
<g id="a_edge7"><a xlink:title="include">
<path fill="none" stroke="#1414ce" d="M615.21,-575.96C614.04,-549.3 612,-496.13 612,-451 612,-451 612,-451 612,-377 612,-326.59 655.96,-283.39 688.55,-258.29"/>
<polygon fill="#1414ce" stroke="#1414ce" points="691.05,-260.79 696.98,-252 686.87,-255.18 691.05,-260.79"/>
</a>
</g>
</g>
<!-- 21 -->
<g id="node16" class="node">
<title>21</title>
<g id="a_node16"><a xlink:title="smp.h">
<polygon fill="#ffffff" stroke="black" points="253,-180 193,-180 193,-144 253,-144 253,-180"/>
<text text-anchor="middle" x="223" y="-158.3" font-family="Times,serif" font-size="14.00">smp.h</text>
</a>
</g>
</g>
<!-- 4&#45;&gt;21 -->
<g id="edge8" class="edge">
<title>4&#45;&gt;21</title>
<g id="a_edge8"><a xlink:title="include">
<path fill="none" stroke="#1414ce" d="M574.12,-585.31C527.81,-576.35 451.25,-560.15 387,-540 304.79,-514.21 264.08,-532.54 207,-468 132.7,-383.99 154.53,-320.97 194,-216 197.43,-206.87 202.2,-197.38 206.88,-188.99"/>
<polygon fill="#1414ce" stroke="#1414ce" points="210.06,-190.48 212.04,-180.08 204,-186.97 210.06,-190.48"/>
</a>
</g>
</g>
<!-- 23 -->
<g id="node18" class="node">
<title>23</title>
<g id="a_node18"><a xlink:title="term.h">
<polygon fill="#ffffff" stroke="black" points="1015.5,-468 950.5,-468 950.5,-432 1015.5,-432 1015.5,-468"/>
<text text-anchor="middle" x="983" y="-446.3" font-family="Times,serif" font-size="14.00">term.h</text>
</a>
</g>
</g>
<!-- 4&#45;&gt;23 -->
<g id="edge9" class="edge">
<title>4&#45;&gt;23</title>
<g id="a_edge9"><a xlink:title="include">
<path fill="none" stroke="#1414ce" d="M656.77,-575.96C700.79,-557.69 773.08,-528.06 836,-504 871.17,-490.55 911.42,-476.1 940.9,-465.7"/>
<polygon fill="#1414ce" stroke="#1414ce" points="942.19,-468.95 950.46,-462.33 939.87,-462.35 942.19,-468.95"/>
</a>
</g>
</g>
<!-- 29 -->
<g id="node20" class="node">
<title>29</title>
<g id="a_node20"><a xlink:title="timer_list.h">
<polygon fill="#ffffff" stroke="black" points="126,-252 28,-252 28,-216 126,-216 126,-252"/>
<text text-anchor="middle" x="77" y="-230.3" font-family="Times,serif" font-size="14.00">timer_list.h</text>
</a>
</g>
</g>
<!-- 4&#45;&gt;29 -->
<g id="edge10" class="edge">
<title>4&#45;&gt;29</title>
<g id="a_edge10"><a xlink:title="include">
<path fill="none" stroke="#1414ce" d="M574.49,-584.14C559.57,-581.21 542.58,-578.14 527,-576 433.1,-563.09 174.74,-600.77 102,-540 70.56,-513.73 78,-491.97 78,-451 78,-451 78,-451 78,-377 78,-337 77.6,-290.65 77.3,-262.08"/>
<polygon fill="#1414ce" stroke="#1414ce" points="80.8,-262.01 77.2,-252.05 73.8,-262.09 80.8,-262.01"/>
</a>
</g>
</g>
<!-- 31 -->
<g id="node4" class="node">
<title>31</title>
<g id="a_node4"><a xlink:title="defaultatoms.h">
<polygon fill="#ffffff" stroke="black" points="518,-612 394,-612 394,-576 518,-576 518,-612"/>
<text text-anchor="middle" x="456" y="-590.3" font-family="Times,serif" font-size="14.00">defaultatoms.h</text>
</a>
</g>
</g>
<!-- 31&#45;&gt;5 -->
<g id="edge11" class="edge">
<title>31&#45;&gt;5</title>
<g id="a_edge11"><a xlink:title="include">
<path fill="none" stroke="#1414ce" d="M456.99,-575.7C457.43,-567.98 457.96,-558.71 458.45,-550.11"/>
<polygon fill="#1414ce" stroke="#1414ce" points="461.95,-550.29 459.02,-540.1 454.96,-549.89 461.95,-550.29"/>
</a>
</g>
</g>
<!-- 11 -->
<g id="node5" class="node">
<title>11</title>
<g id="a_node5"><a xlink:title="erl_nif.h">
<polygon fill="#ffffff" stroke="black" points="1314,-180 1240,-180 1240,-144 1314,-144 1314,-180"/>
<text text-anchor="middle" x="1277" y="-158.3" font-family="Times,serif" font-size="14.00">erl_nif.h</text>
</a>
</g>
</g>
<!-- 12 -->
<g id="node19" class="node">
<title>12</title>
<g id="a_node19"><a xlink:title="term_typedef.h">
<polygon fill="#ffffff" stroke="black" points="1327.5,-108 1202.5,-108 1202.5,-72 1327.5,-72 1327.5,-108"/>
<text text-anchor="middle" x="1265" y="-86.3" font-family="Times,serif" font-size="14.00">term_typedef.h</text>
</a>
</g>
</g>
<!-- 11&#45;&gt;12 -->
<g id="edge12" class="edge">
<title>11&#45;&gt;12</title>
<g id="a_edge12"><a xlink:title="include">
<path fill="none" stroke="#1414ce" d="M1274.03,-143.7C1272.71,-135.98 1271.12,-126.71 1269.65,-118.11"/>
<polygon fill="#1414ce" stroke="#1414ce" points="1273.07,-117.37 1267.93,-108.1 1266.17,-118.55 1273.07,-117.37"/>
</a>
</g>
</g>
<!-- 5&#45;&gt;7 -->
<g id="edge14" class="edge">
<title>5&#45;&gt;7</title>
<g id="a_edge14"><a xlink:title="include">
<path fill="none" stroke="#1414ce" d="M477.56,-504C486.43,-494.32 496.46,-481.46 502,-468 541.55,-371.93 540.58,-245.25 537.87,-190.33"/>
<polygon fill="#1414ce" stroke="#1414ce" points="541.36,-190.13 537.31,-180.34 534.37,-190.52 541.36,-190.13"/>
</a>
</g>
</g>
<!-- 5&#45;&gt;9 -->
<g id="edge15" class="edge">
<title>5&#45;&gt;9</title>
<g id="a_edge15"><a xlink:title="include">
<path fill="none" stroke="#1414ce" d="M440.97,-503.9C430.54,-494 417.79,-480.96 408,-468 355.38,-398.39 308.55,-305.89 287.22,-261.28"/>
<polygon fill="#1414ce" stroke="#1414ce" points="290.27,-259.54 282.82,-252 283.94,-262.54 290.27,-259.54"/>
</a>
</g>
</g>
<!-- 5&#45;&gt;11 -->
<g id="edge16" class="edge">
<title>5&#45;&gt;11</title>
<g id="a_edge16"><a xlink:title="include">
<path fill="none" stroke="#1414ce" d="M523.65,-521.72C697.96,-522.17 1176.12,-512.56 1267,-396 1314.1,-335.59 1297.05,-237.21 1284.94,-189.98"/>
<polygon fill="#1414ce" stroke="#1414ce" points="1288.28,-188.93 1282.3,-180.18 1281.52,-190.75 1288.28,-188.93"/>
</a>
</g>
</g>
<!-- 5&#45;&gt;16 -->
<g id="edge17" class="edge">
<title>5&#45;&gt;16</title>
<g id="a_edge17"><a xlink:title="include">
<path fill="none" stroke="#1414ce" d="M454.59,-503.53C451.7,-493.29 448.45,-480.04 447,-468 437.2,-386.92 442.83,-358.54 484,-288 508.59,-245.86 551.42,-208.7 581.17,-186.07"/>
<polygon fill="#1414ce" stroke="#1414ce" points="583.27,-188.87 589.19,-180.09 579.08,-183.27 583.27,-188.87"/>
</a>
</g>
</g>
<!-- 5&#45;&gt;17 -->
<g id="edge18" class="edge">
<title>5&#45;&gt;17</title>
<g id="a_edge18"><a xlink:title="include">
<path fill="none" stroke="#1414ce" d="M465.83,-503.88C481.04,-461.61 525.8,-351.14 598,-288 618.59,-270 646.19,-257.43 670.21,-249.06"/>
<polygon fill="#1414ce" stroke="#1414ce" points="671.53,-252.31 679.91,-245.84 669.32,-245.67 671.53,-252.31"/>
</a>
</g>
</g>
<!-- 5&#45;&gt;21 -->
<g id="edge19" class="edge">
<title>5&#45;&gt;21</title>
<g id="a_edge19"><a xlink:title="include">
<path fill="none" stroke="#1414ce" d="M396.49,-515.02C317.24,-503.67 192,-471.15 192,-379 192,-379 192,-379 192,-305 192,-264.1 204.43,-218.06 213.55,-189.79"/>
<polygon fill="#1414ce" stroke="#1414ce" points="216.89,-190.82 216.73,-180.22 210.25,-188.61 216.89,-190.82"/>
</a>
</g>
</g>
<!-- 22 -->
<g id="node17" class="node">
<title>22</title>
<g id="a_node17"><a xlink:title="synclist.h">
<polygon fill="#ffffff" stroke="black" points="471.5,-252 386.5,-252 386.5,-216 471.5,-216 471.5,-252"/>
<text text-anchor="middle" x="429" y="-230.3" font-family="Times,serif" font-size="14.00">synclist.h</text>
</a>
</g>
</g>
<!-- 5&#45;&gt;22 -->
<g id="edge20" class="edge">
<title>5&#45;&gt;22</title>
<g id="a_edge20"><a xlink:title="include">
<path fill="none" stroke="#1414ce" d="M458.15,-503.97C452.98,-456.19 438.28,-320.62 431.96,-262.27"/>
<polygon fill="#1414ce" stroke="#1414ce" points="435.43,-261.87 430.88,-252.31 428.47,-262.63 435.43,-261.87"/>
</a>
</g>
</g>
<!-- 5&#45;&gt;23 -->
<g id="edge21" class="edge">
<title>5&#45;&gt;23</title>
<g id="a_edge21"><a xlink:title="include">
<path fill="none" stroke="#1414ce" d="M523.61,-512.49C631.73,-498.01 848.57,-468.99 940.37,-456.71"/>
<polygon fill="#1414ce" stroke="#1414ce" points="940.97,-460.16 950.42,-455.36 940.04,-453.22 940.97,-460.16"/>
</a>
</g>
</g>
<!-- 5&#45;&gt;29 -->
<g id="edge22" class="edge">
<title>5&#45;&gt;29</title>
<g id="a_edge22"><a xlink:title="include">
<path fill="none" stroke="#1414ce" d="M396.47,-515.96C323.92,-509.04 210.99,-494.34 178,-468 144.01,-440.87 102.43,-317.18 85.14,-261.87"/>
<polygon fill="#1414ce" stroke="#1414ce" points="88.41,-260.59 82.11,-252.07 81.72,-262.66 88.41,-260.59"/>
</a>
</g>
</g>
<!-- 5&#45;&gt;6 -->
<g id="edge13" class="edge">
<title>5&#45;&gt;6</title>
<g id="a_edge13"><a xlink:title="include">
<path fill="none" stroke="#1414ce" d="M396.04,-514.75C269.64,-500.63 0,-460.91 0,-379 0,-379 0,-379 0,-161 0,-74.14 90.6,-96.28 174,-72 270.76,-43.83 574.42,-26.75 690.89,-21.1"/>
<polygon fill="#1414ce" stroke="#1414ce" points="691.09,-24.59 700.91,-20.62 690.76,-17.6 691.09,-24.59"/>
</a>
</g>
</g>
<!-- 1 -->
<g id="node7" class="node">
<title>1</title>
<g id="a_node7"><a xlink:title="/__w/AtomVM/AtomVM/src/libAtomVM/inet.c">
<polygon fill="#bfbfbf" stroke="black" points="1536.5,-828 1203.5,-828 1203.5,-792 1536.5,-792 1536.5,-828"/>
<text text-anchor="middle" x="1370" y="-806.3" font-family="Times,serif" font-size="14.00">/__w/AtomVM/AtomVM/src/libAtomVM/inet.c</text>
</a>
</g>
</g>
<!-- 2 -->
<g id="node8" class="node">
<title>2</title>
<g id="a_node8"><a xlink:title="inet.h">
<polygon fill="#ffffff" stroke="black" points="1399,-756 1341,-756 1341,-720 1399,-720 1399,-756"/>
<text text-anchor="middle" x="1370" y="-734.3" font-family="Times,serif" font-size="14.00">inet.h</text>
</a>
</g>
</g>
<!-- 1&#45;&gt;2 -->
<g id="edge23" class="edge">
<title>1&#45;&gt;2</title>
<g id="a_edge23"><a xlink:title="include">
<path fill="none" stroke="#1414ce" d="M1370,-791.7C1370,-783.98 1370,-774.71 1370,-766.11"/>
<polygon fill="#1414ce" stroke="#1414ce" points="1373.5,-766.1 1370,-756.1 1366.5,-766.1 1373.5,-766.1"/>
</a>
</g>
</g>
<!-- 30 -->
<g id="node13" class="node">
<title>30</title>
<g id="a_node13"><a xlink:title="port.h">
<polygon fill="#ffffff" stroke="black" points="776,-684 716,-684 716,-648 776,-648 776,-684"/>
<text text-anchor="middle" x="746" y="-662.3" font-family="Times,serif" font-size="14.00">port.h</text>
</a>
</g>
</g>
<!-- 1&#45;&gt;30 -->
<g id="edge25" class="edge">
<title>1&#45;&gt;30</title>
<g id="a_edge25"><a xlink:title="include">
<path fill="none" stroke="#1414ce" d="M1295.04,-791.94C1161.99,-761.66 888.89,-699.52 786.21,-676.15"/>
<polygon fill="#1414ce" stroke="#1414ce" points="786.78,-672.69 776.25,-673.88 785.22,-679.52 786.78,-672.69"/>
</a>
</g>
</g>
<!-- 1&#45;&gt;23 -->
<g id="edge24" class="edge">
<title>1&#45;&gt;23</title>
<g id="a_edge24"><a xlink:title="include">
<path fill="none" stroke="#1414ce" d="M1389.09,-791.77C1414.42,-766.91 1456,-718.3 1456,-667 1456,-667 1456,-667 1456,-593 1456,-503.53 1141.64,-465.56 1025.47,-454.59"/>
<polygon fill="#1414ce" stroke="#1414ce" points="1025.79,-451.1 1015.51,-453.67 1025.15,-458.07 1025.79,-451.1"/>
</a>
</g>
</g>
<!-- 3 -->
<g id="node9" class="node">
<title>3</title>
<g id="a_node9"><a xlink:title="interop.h">
<polygon fill="#ffffff" stroke="black" points="1383,-684 1301,-684 1301,-648 1383,-648 1383,-684"/>
<text text-anchor="middle" x="1342" y="-662.3" font-family="Times,serif" font-size="14.00">interop.h</text>
</a>
</g>
</g>
<!-- 2&#45;&gt;3 -->
<g id="edge26" class="edge">
<title>2&#45;&gt;3</title>
<g id="a_edge26"><a xlink:title="include">
<path fill="none" stroke="#1414ce" d="M1363.08,-719.7C1359.93,-711.81 1356.12,-702.3 1352.62,-693.55"/>
<polygon fill="#1414ce" stroke="#1414ce" points="1355.81,-692.09 1348.84,-684.1 1349.31,-694.69 1355.81,-692.09"/>
</a>
</g>
</g>
<!-- 26 -->
<g id="node12" class="node">
<title>26</title>
<g id="a_node12"><a xlink:title="memory.h">
<polygon fill="#ffffff" stroke="black" points="1255,-252 1169,-252 1169,-216 1255,-216 1255,-252"/>
<text text-anchor="middle" x="1212" y="-230.3" font-family="Times,serif" font-size="14.00">memory.h</text>
</a>
</g>
</g>
<!-- 2&#45;&gt;26 -->
<g id="edge27" class="edge">
<title>2&#45;&gt;26</title>
<g id="a_edge27"><a xlink:title="include">
<path fill="none" stroke="#1414ce" d="M1379.95,-719.71C1394.01,-693.58 1418,-642.1 1418,-595 1418,-595 1418,-595 1418,-377 1418,-302.73 1326.11,-264.33 1265.07,-247.01"/>
<polygon fill="#1414ce" stroke="#1414ce" points="1265.75,-243.57 1255.18,-244.31 1263.91,-250.32 1265.75,-243.57"/>
</a>
</g>
</g>
<!-- 3&#45;&gt;4 -->
<g id="edge28" class="edge">
<title>3&#45;&gt;4</title>
<g id="a_edge28"><a xlink:title="include">
<path fill="none" stroke="#1414ce" d="M1300.89,-661.04C1176.64,-649.06 805.18,-613.24 667.81,-600"/>
<polygon fill="#1414ce" stroke="#1414ce" points="667.85,-596.48 657.56,-599.01 667.18,-603.45 667.85,-596.48"/>
</a>
</g>
</g>
<!-- 3&#45;&gt;23 -->
<g id="edge29" class="edge">
<title>3&#45;&gt;23</title>
<g id="a_edge29"><a xlink:title="include">
<path fill="none" stroke="#1414ce" d="M1313.23,-647.85C1248.77,-609.42 1092.77,-516.44 1020.68,-473.46"/>
<polygon fill="#1414ce" stroke="#1414ce" points="1022.29,-470.35 1011.91,-468.23 1018.71,-476.36 1022.29,-470.35"/>
</a>
</g>
</g>
<!-- 17&#45;&gt;16 -->
<g id="edge31" class="edge">
<title>17&#45;&gt;16</title>
<g id="a_edge31"><a xlink:title="include">
<path fill="none" stroke="#1414ce" d="M696.34,-215.88C682.22,-206.81 664.69,-195.55 649.44,-185.76"/>
<polygon fill="#1414ce" stroke="#1414ce" points="651.07,-182.65 640.77,-180.19 647.29,-188.54 651.07,-182.65"/>
</a>
</g>
</g>
<!-- 17&#45;&gt;12 -->
<g id="edge32" class="edge">
<title>17&#45;&gt;12</title>
<g id="a_edge32"><a xlink:title="include">
<path fill="none" stroke="#1414ce" d="M766.06,-224.55C814.63,-214.8 895.86,-197.8 965,-180 1047.6,-158.73 1141.73,-130.07 1202.17,-111.09"/>
<polygon fill="#1414ce" stroke="#1414ce" points="1203.46,-114.36 1211.95,-108.01 1201.36,-107.68 1203.46,-114.36"/>
</a>
</g>
</g>
<!-- 18 -->
<g id="node21" class="node">
<title>18</title>
<g id="a_node21"><a xlink:title="utils.h">
<polygon fill="#ffffff" stroke="black" points="956,-180 894,-180 894,-144 956,-144 956,-180"/>
<text text-anchor="middle" x="925" y="-158.3" font-family="Times,serif" font-size="14.00">utils.h</text>
</a>
</g>
</g>
<!-- 17&#45;&gt;18 -->
<g id="edge33" class="edge">
<title>17&#45;&gt;18</title>
<g id="a_edge33"><a xlink:title="include">
<path fill="none" stroke="#1414ce" d="M766.33,-217.98C801.26,-205.88 850.02,-188.98 884.24,-177.13"/>
<polygon fill="#1414ce" stroke="#1414ce" points="885.62,-180.35 893.92,-173.77 883.32,-173.74 885.62,-180.35"/>
</a>
</g>
</g>
<!-- 17&#45;&gt;10 -->
<g id="edge30" class="edge">
<title>17&#45;&gt;10</title>
<g id="a_edge30"><a xlink:title="include">
<path fill="none" stroke="#1414ce" d="M713.99,-215.73C702.23,-195.05 679.6,-161.08 650,-144 604.78,-117.91 458.06,-101.97 378.85,-95.05"/>
<polygon fill="#1414ce" stroke="#1414ce" points="378.87,-91.54 368.61,-94.17 378.27,-98.51 378.87,-91.54"/>
</a>
</g>
</g>
<!-- 26&#45;&gt;11 -->
<g id="edge36" class="edge">
<title>26&#45;&gt;11</title>
<g id="a_edge36"><a xlink:title="include">
<path fill="none" stroke="#1414ce" d="M1228.07,-215.7C1235.94,-207.22 1245.56,-196.86 1254.17,-187.58"/>
<polygon fill="#1414ce" stroke="#1414ce" points="1256.88,-189.81 1261.12,-180.1 1251.75,-185.05 1256.88,-189.81"/>
</a>
</g>
</g>
<!-- 26&#45;&gt;12 -->
<g id="edge37" class="edge">
<title>26&#45;&gt;12</title>
<g id="a_edge37"><a xlink:title="include">
<path fill="none" stroke="#1414ce" d="M1213.82,-215.73C1216.18,-197.39 1221.2,-167.82 1231,-144 1234.89,-134.55 1240.48,-124.93 1246,-116.52"/>
<polygon fill="#1414ce" stroke="#1414ce" points="1248.89,-118.49 1251.66,-108.27 1243.12,-114.54 1248.89,-118.49"/>
</a>
</g>
</g>
<!-- 26&#45;&gt;18 -->
<g id="edge38" class="edge">
<title>26&#45;&gt;18</title>
<g id="a_edge38"><a xlink:title="include">
<path fill="none" stroke="#1414ce" d="M1168.72,-222.44C1113.85,-209.06 1019.92,-186.15 966.11,-173.03"/>
<polygon fill="#1414ce" stroke="#1414ce" points="966.77,-169.58 956.22,-170.61 965.11,-176.38 966.77,-169.58"/>
</a>
</g>
</g>
<!-- 26&#45;&gt;6 -->
<g id="edge34" class="edge">
<title>26&#45;&gt;6</title>
<g id="a_edge34"><a xlink:title="include">
<path fill="none" stroke="#1414ce" d="M1204.54,-215.88C1188.81,-182.05 1148.81,-106.91 1090,-72 1039.02,-41.74 867.09,-27.11 783.46,-21.65"/>
<polygon fill="#1414ce" stroke="#1414ce" points="783.43,-18.14 773.23,-20.99 782.98,-25.12 783.43,-18.14"/>
</a>
</g>
</g>
<!-- 26&#45;&gt;8 -->
<g id="edge35" class="edge">
<title>26&#45;&gt;8</title>
<g id="a_edge35"><a xlink:title="include">
<path fill="none" stroke="#1414ce" d="M1191.86,-215.87C1162.14,-190.6 1106.45,-143.25 1072.85,-114.68"/>
<polygon fill="#1414ce" stroke="#1414ce" points="1075.1,-112 1065.22,-108.19 1070.57,-117.33 1075.1,-112"/>
</a>
</g>
</g>
<!-- 30&#45;&gt;4 -->
<g id="edge39" class="edge">
<title>30&#45;&gt;4</title>
<g id="a_edge39"><a xlink:title="include">
<path fill="none" stroke="#1414ce" d="M715.85,-648.76C698.24,-639.28 675.78,-627.19 656.62,-616.87"/>
<polygon fill="#1414ce" stroke="#1414ce" points="658.27,-613.78 647.8,-612.12 654.95,-619.95 658.27,-613.78"/>
</a>
</g>
</g>
<!-- 30&#45;&gt;31 -->
<g id="edge40" class="edge">
<title>30&#45;&gt;31</title>
<g id="a_edge40"><a xlink:title="include">
<path fill="none" stroke="#1414ce" d="M715.79,-657.71C671.67,-647.06 588.33,-626.94 527.91,-612.36"/>
<polygon fill="#1414ce" stroke="#1414ce" points="528.59,-608.92 518.04,-609.98 526.94,-615.72 528.59,-608.92"/>
</a>
</g>
</g>
<!-- 30&#45;&gt;5 -->
<g id="edge41" class="edge">
<title>30&#45;&gt;5</title>
<g id="a_edge41"><a xlink:title="include">
<path fill="none" stroke="#1414ce" d="M716,-660.5C678.87,-653.98 614.6,-639.56 566,-612 545.48,-600.36 544.93,-591.33 527,-576 515.3,-566 502.07,-555.39 490.48,-546.32"/>
<polygon fill="#1414ce" stroke="#1414ce" points="492.41,-543.39 482.37,-540.01 488.11,-548.91 492.41,-543.39"/>
</a>
</g>
</g>
<!-- 30&#45;&gt;26 -->
<g id="edge42" class="edge">
<title>30&#45;&gt;26</title>
<g id="a_edge42"><a xlink:title="include">
<path fill="none" stroke="#1414ce" d="M776.15,-661.55C902.15,-646.33 1380,-580.09 1380,-451 1380,-451 1380,-451 1380,-377 1380,-315.65 1313.84,-275.38 1264.56,-253.89"/>
<polygon fill="#1414ce" stroke="#1414ce" points="1265.84,-250.63 1255.26,-249.97 1263.12,-257.08 1265.84,-250.63"/>
</a>
</g>
</g>
<!-- 30&#45;&gt;23 -->
<g id="edge43" class="edge">
<title>30&#45;&gt;23</title>
<g id="a_edge43"><a xlink:title="include">
<path fill="none" stroke="#1414ce" d="M764.99,-647.85C807.03,-609.89 908.02,-518.7 956.35,-475.06"/>
<polygon fill="#1414ce" stroke="#1414ce" points="958.84,-477.53 963.92,-468.23 954.15,-472.34 958.84,-477.53"/>
</a>
</g>
</g>
<!-- 27 -->
<g id="node14" class="node">
<title>27</title>
<g id="a_node14"><a xlink:title="refc_binary.h">
<polygon fill="#ffffff" stroke="black" points="842,-396 734,-396 734,-360 842,-360 842,-396"/>
<text text-anchor="middle" x="788" y="-374.3" font-family="Times,serif" font-size="14.00">refc_binary.h</text>
</a>
</g>
</g>
<!-- 27&#45;&gt;16 -->
<g id="edge46" class="edge">
<title>27&#45;&gt;16</title>
<g id="a_edge46"><a xlink:title="include">
<path fill="none" stroke="#1414ce" d="M754.2,-359.89C737.11,-350.45 716.55,-337.85 700,-324 667.4,-296.7 656.86,-289.6 637,-252 626.78,-232.65 620.91,-208.5 617.66,-190.24"/>
<polygon fill="#1414ce" stroke="#1414ce" points="621.1,-189.56 616.04,-180.25 614.19,-190.69 621.1,-189.56"/>
</a>
</g>
</g>
<!-- 28 -->
<g id="node15" class="node">
<title>28</title>
<g id="a_node15"><a xlink:title="resources.h">
<polygon fill="#ffffff" stroke="black" points="842,-324 742,-324 742,-288 842,-288 842,-324"/>
<text text-anchor="middle" x="792" y="-302.3" font-family="Times,serif" font-size="14.00">resources.h</text>
</a>
</g>
</g>
<!-- 27&#45;&gt;28 -->
<g id="edge47" class="edge">
<title>27&#45;&gt;28</title>
<g id="a_edge47"><a xlink:title="include">
<path fill="none" stroke="#1414ce" d="M788.99,-359.7C789.43,-351.98 789.96,-342.71 790.45,-334.11"/>
<polygon fill="#1414ce" stroke="#1414ce" points="793.95,-334.29 791.02,-324.1 786.96,-333.89 793.95,-334.29"/>
</a>
</g>
</g>
<!-- 27&#45;&gt;10 -->
<g id="edge44" class="edge">
<title>27&#45;&gt;10</title>
<g id="a_edge44"><a xlink:title="include">
<path fill="none" stroke="#1414ce" d="M762.62,-359.95C751.29,-350.79 739.12,-338.4 733,-324 726.74,-309.28 726.31,-302.54 733,-288 743.27,-265.66 764.73,-274.34 775,-252 781.69,-237.46 782.01,-230.38 775,-216 752.26,-169.32 730.7,-164.5 683,-144 581.36,-100.32 450.04,-91.71 378.7,-90.55"/>
<polygon fill="#1414ce" stroke="#1414ce" points="378.66,-87.05 368.62,-90.43 378.58,-94.05 378.66,-87.05"/>
</a>
</g>
</g>
<!-- 27&#45;&gt;8 -->
<g id="edge45" class="edge">
<title>27&#45;&gt;8</title>
<g id="a_edge45"><a xlink:title="include">
<path fill="none" stroke="#1414ce" d="M810.85,-359.83C852.1,-327.98 940.01,-255.99 997,-180 1011.64,-160.48 1024.54,-135.91 1033.26,-117.54"/>
<polygon fill="#1414ce" stroke="#1414ce" points="1036.52,-118.84 1037.55,-108.3 1030.17,-115.9 1036.52,-118.84"/>
</a>
</g>
</g>
<!-- 28&#45;&gt;11 -->
<g id="edge49" class="edge">
<title>28&#45;&gt;11</title>
<g id="a_edge49"><a xlink:title="include">
<path fill="none" stroke="#1414ce" d="M842.08,-290.34C936.21,-262.78 1138.29,-203.61 1230,-176.76"/>
<polygon fill="#1414ce" stroke="#1414ce" points="1231.23,-180.05 1239.84,-173.88 1229.26,-173.33 1231.23,-180.05"/>
</a>
</g>
</g>
<!-- 28&#45;&gt;16 -->
<g id="edge50" class="edge">
<title>28&#45;&gt;16</title>
<g id="a_edge50"><a xlink:title="include">
<path fill="none" stroke="#1414ce" d="M741.76,-290.51C718.43,-282 691.4,-269.43 671,-252 650.95,-234.87 635.45,-208.92 625.71,-189.46"/>
<polygon fill="#1414ce" stroke="#1414ce" points="628.75,-187.72 621.27,-180.22 622.44,-190.75 628.75,-187.72"/>
</a>
</g>
</g>
<!-- 28&#45;&gt;26 -->
<g id="edge51" class="edge">
<title>28&#45;&gt;26</title>
<g id="a_edge51"><a xlink:title="include">
<path fill="none" stroke="#1414ce" d="M842.24,-296.63C922.11,-283.31 1077.33,-257.45 1158.93,-243.84"/>
<polygon fill="#1414ce" stroke="#1414ce" points="1159.7,-247.27 1168.99,-242.17 1158.55,-240.36 1159.7,-247.27"/>
</a>
</g>
</g>
<!-- 28&#45;&gt;22 -->
<g id="edge52" class="edge">
<title>28&#45;&gt;22</title>
<g id="a_edge52"><a xlink:title="include">
<path fill="none" stroke="#1414ce" d="M741.91,-295.34C673.41,-282.13 551.1,-258.54 481.41,-245.11"/>
<polygon fill="#1414ce" stroke="#1414ce" points="482,-241.66 471.52,-243.2 480.68,-248.53 482,-241.66"/>
</a>
</g>
</g>
<!-- 28&#45;&gt;8 -->
<g id="edge48" class="edge">
<title>28&#45;&gt;8</title>
<g id="a_edge48"><a xlink:title="include">
<path fill="none" stroke="#1414ce" d="M808.96,-287.82C828.37,-268.76 861.66,-237.81 894,-216 923.33,-196.22 936.92,-201.52 965,-180 988.99,-161.61 1011.55,-135.39 1026.55,-116.16"/>
<polygon fill="#1414ce" stroke="#1414ce" points="1029.4,-118.21 1032.7,-108.14 1023.84,-113.95 1029.4,-118.21"/>
</a>
</g>
</g>
<!-- 21&#45;&gt;10 -->
<g id="edge53" class="edge">
<title>21&#45;&gt;10</title>
<g id="a_edge53"><a xlink:title="include">
<path fill="none" stroke="#1414ce" d="M248.44,-143.88C261.79,-134.89 278.32,-123.76 292.78,-114.03"/>
<polygon fill="#1414ce" stroke="#1414ce" points="295.12,-116.68 301.46,-108.19 291.21,-110.87 295.12,-116.68"/>
</a>
</g>
</g>
<!-- 22&#45;&gt;16 -->
<g id="edge55" class="edge">
<title>22&#45;&gt;16</title>
<g id="a_edge55"><a xlink:title="include">
<path fill="none" stroke="#1414ce" d="M471.81,-219.03C499.66,-209.66 536.87,-196.62 577.14,-180.18"/>
<polygon fill="#1414ce" stroke="#1414ce" points="578.7,-183.33 586.61,-176.28 576.03,-176.85 578.7,-183.33"/>
</a>
</g>
</g>
<!-- 22&#45;&gt;21 -->
<g id="edge56" class="edge">
<title>22&#45;&gt;21</title>
<g id="a_edge56"><a xlink:title="include">
<path fill="none" stroke="#1414ce" d="M386.32,-218.5C350.01,-206.16 298.28,-188.58 262.82,-176.53"/>
<polygon fill="#1414ce" stroke="#1414ce" points="263.87,-173.19 253.28,-173.29 261.62,-179.82 263.87,-173.19"/>
</a>
</g>
</g>
<!-- 20 -->
<g id="node28" class="node">
<title>20</title>
<g id="a_node28"><a xlink:title="stdio.h">
<polygon fill="#ffffff" stroke="black" points="898.5,-108 833.5,-108 833.5,-72 898.5,-72 898.5,-108"/>
<text text-anchor="middle" x="866" y="-86.3" font-family="Times,serif" font-size="14.00">stdio.h</text>
</a>
</g>
</g>
<!-- 22&#45;&gt;20 -->
<g id="edge54" class="edge">
<title>22&#45;&gt;20</title>
<g id="a_edge54"><a xlink:title="include">
<path fill="none" stroke="#1414ce" d="M436.46,-215.65C446.37,-194.89 465.95,-160.84 494,-144 548.76,-111.12 737.43,-97.53 823.09,-92.96"/>
<polygon fill="#1414ce" stroke="#1414ce" points="823.44,-96.44 833.25,-92.43 823.08,-89.45 823.44,-96.44"/>
</a>
</g>
</g>
<!-- 23&#45;&gt;26 -->
<g id="edge63" class="edge">
<title>23&#45;&gt;26</title>
<g id="a_edge63"><a xlink:title="include">
<path fill="none" stroke="#1414ce" d="M1015.9,-447.41C1080.06,-443.55 1218.12,-431.26 1247,-396 1278.95,-357 1250.32,-295.39 1229.38,-260.78"/>
<polygon fill="#1414ce" stroke="#1414ce" points="1232.27,-258.81 1223.99,-252.19 1226.33,-262.52 1232.27,-258.81"/>
</a>
</g>
</g>
<!-- 23&#45;&gt;27 -->
<g id="edge64" class="edge">
<title>23&#45;&gt;27</title>
<g id="a_edge64"><a xlink:title="include">
<path fill="none" stroke="#1414ce" d="M950.36,-437.28C921.62,-426.97 879.12,-411.71 844.81,-399.39"/>
<polygon fill="#1414ce" stroke="#1414ce" points="845.96,-396.09 835.37,-396 843.6,-402.68 845.96,-396.09"/>
</a>
</g>
</g>
<!-- 23&#45;&gt;12 -->
<g id="edge66" class="edge">
<title>23&#45;&gt;12</title>
<g id="a_edge66"><a xlink:title="include">
<path fill="none" stroke="#1414ce" d="M1015.55,-447.22C1082.17,-442.92 1230.88,-429.71 1267,-396 1350.88,-317.73 1369.28,-248.98 1323,-144 1318.01,-132.69 1309.29,-122.74 1300.1,-114.62"/>
<polygon fill="#1414ce" stroke="#1414ce" points="1302.28,-111.88 1292.34,-108.23 1297.83,-117.28 1302.28,-111.88"/>
</a>
</g>
</g>
<!-- 23&#45;&gt;18 -->
<g id="edge65" class="edge">
<title>23&#45;&gt;18</title>
<g id="a_edge65"><a xlink:title="include">
<path fill="none" stroke="#1414ce" d="M984.07,-431.72C985.93,-392.23 987.26,-292.81 960,-216 956.61,-206.44 951.13,-196.9 945.51,-188.61"/>
<polygon fill="#1414ce" stroke="#1414ce" points="948.34,-186.56 939.67,-180.46 942.65,-190.63 948.34,-186.56"/>
</a>
</g>
</g>
<!-- 23&#45;&gt;10 -->
<g id="edge58" class="edge">
<title>23&#45;&gt;10</title>
<g id="a_edge58"><a xlink:title="include">
<path fill="none" stroke="#1414ce" d="M950.18,-448.91C848.41,-446.75 535.48,-425.64 377,-252 342.67,-214.38 331.91,-153.52 328.54,-118.4"/>
<polygon fill="#1414ce" stroke="#1414ce" points="332.02,-118.05 327.71,-108.37 325.04,-118.63 332.02,-118.05"/>
</a>
</g>
</g>
<!-- 23&#45;&gt;6 -->
<g id="edge59" class="edge">
<title>23&#45;&gt;6</title>
<g id="a_edge59"><a xlink:title="include">
<path fill="none" stroke="#1414ce" d="M969,-431.8C961,-421.65 951,-408.4 943,-396 861.21,-269.31 780.12,-107.58 749.64,-45.18"/>
<polygon fill="#1414ce" stroke="#1414ce" points="752.71,-43.5 745.19,-36.04 746.42,-46.56 752.71,-43.5"/>
</a>
</g>
</g>
<!-- 23&#45;&gt;20 -->
<g id="edge60" class="edge">
<title>23&#45;&gt;20</title>
<g id="a_edge60"><a xlink:title="include">
<path fill="none" stroke="#1414ce" d="M975.85,-431.97C958.39,-389.85 912.94,-277.21 885,-180 879.15,-159.63 874.21,-136.17 870.84,-118.45"/>
<polygon fill="#1414ce" stroke="#1414ce" points="874.21,-117.43 868.94,-108.24 867.32,-118.71 874.21,-117.43"/>
</a>
</g>
</g>
<!-- 23&#45;&gt;8 -->
<g id="edge61" class="edge">
<title>23&#45;&gt;8</title>
<g id="a_edge61"><a xlink:title="include">
<path fill="none" stroke="#1414ce" d="M988.4,-431.95C991.53,-421.62 995.36,-408.15 998,-396 1020.07,-294.62 1035.65,-172.08 1041.92,-118.42"/>
<polygon fill="#1414ce" stroke="#1414ce" points="1045.42,-118.67 1043.09,-108.33 1038.46,-117.87 1045.42,-118.67"/>
</a>
</g>
</g>
<!-- 25 -->
<g id="node30" class="node">
<title>25</title>
<g id="a_node30"><a xlink:title="string.h">
<polygon fill="#ffffff" stroke="black" points="1122.5,-396 1049.5,-396 1049.5,-360 1122.5,-360 1122.5,-396"/>
<text text-anchor="middle" x="1086" y="-374.3" font-family="Times,serif" font-size="14.00">string.h</text>
</a>
</g>
</g>
<!-- 23&#45;&gt;25 -->
<g id="edge62" class="edge">
<title>23&#45;&gt;25</title>
<g id="a_edge62"><a xlink:title="include">
<path fill="none" stroke="#1414ce" d="M1008.2,-431.88C1021.41,-422.89 1037.79,-411.76 1052.11,-402.03"/>
<polygon fill="#1414ce" stroke="#1414ce" points="1054.4,-404.71 1060.71,-396.19 1050.47,-398.92 1054.4,-404.71"/>
</a>
</g>
</g>
<!-- 24 -->
<g id="node31" class="node">
<title>24</title>
<g id="a_node31"><a xlink:title="sys/types.h">
<polygon fill="#ffffff" stroke="black" points="1237.5,-396 1140.5,-396 1140.5,-360 1237.5,-360 1237.5,-396"/>
<text text-anchor="middle" x="1189" y="-374.3" font-family="Times,serif" font-size="14.00">sys/types.h</text>
</a>
</g>
</g>
<!-- 23&#45;&gt;24 -->
<g id="edge57" class="edge">
<title>23&#45;&gt;24</title>
<g id="a_edge57"><a xlink:title="include">
<path fill="none" stroke="#1414ce" d="M1015.64,-437.91C1046.47,-427.43 1093.4,-411.49 1130.66,-398.82"/>
<polygon fill="#1414ce" stroke="#1414ce" points="1132.06,-402.05 1140.4,-395.51 1129.81,-395.42 1132.06,-402.05"/>
</a>
</g>
</g>
<!-- 13 -->
<g id="node22" class="node">
<title>13</title>
<g id="a_node22"><a xlink:title="assert.h">
<polygon fill="#ffffff" stroke="black" points="1302,-36 1228,-36 1228,0 1302,0 1302,-36"/>
<text text-anchor="middle" x="1265" y="-14.3" font-family="Times,serif" font-size="14.00">assert.h</text>
</a>
</g>
</g>
<!-- 12&#45;&gt;13 -->
<g id="edge67" class="edge">
<title>12&#45;&gt;13</title>
<g id="a_edge67"><a xlink:title="include">
<path fill="none" stroke="#1414ce" d="M1265,-71.7C1265,-63.98 1265,-54.71 1265,-46.11"/>
<polygon fill="#1414ce" stroke="#1414ce" points="1268.5,-46.1 1265,-36.1 1261.5,-46.1 1268.5,-46.1"/>
</a>
</g>
</g>
<!-- 15 -->
<g id="node23" class="node">
<title>15</title>
<g id="a_node23"><a xlink:title="inttypes.h">
<polygon fill="#ffffff" stroke="black" points="1409.5,-36 1320.5,-36 1320.5,0 1409.5,0 1409.5,-36"/>
<text text-anchor="middle" x="1365" y="-14.3" font-family="Times,serif" font-size="14.00">inttypes.h</text>
</a>
</g>
</g>
<!-- 12&#45;&gt;15 -->
<g id="edge69" class="edge">
<title>12&#45;&gt;15</title>
<g id="a_edge69"><a xlink:title="include">
<path fill="none" stroke="#1414ce" d="M1289.46,-71.88C1302.3,-62.89 1318.2,-51.76 1332.09,-42.03"/>
<polygon fill="#1414ce" stroke="#1414ce" points="1334.26,-44.79 1340.44,-36.19 1330.24,-39.06 1334.26,-44.79"/>
</a>
</g>
</g>
<!-- 14 -->
<g id="node24" class="node">
<title>14</title>
<g id="a_node24"><a xlink:title="limits.h">
<polygon fill="#ffffff" stroke="black" points="1209.5,-36 1138.5,-36 1138.5,0 1209.5,0 1209.5,-36"/>
<text text-anchor="middle" x="1174" y="-14.3" font-family="Times,serif" font-size="14.00">limits.h</text>
</a>
</g>
</g>
<!-- 12&#45;&gt;14 -->
<g id="edge68" class="edge">
<title>12&#45;&gt;14</title>
<g id="a_edge68"><a xlink:title="include">
<path fill="none" stroke="#1414ce" d="M1242.51,-71.7C1231.04,-62.88 1216.94,-52.03 1204.52,-42.47"/>
<polygon fill="#1414ce" stroke="#1414ce" points="1206.3,-39.43 1196.24,-36.1 1202.03,-44.98 1206.3,-39.43"/>
</a>
</g>
</g>
<!-- 12&#45;&gt;6 -->
<g id="edge70" class="edge">
<title>12&#45;&gt;6</title>
<g id="a_edge70"><a xlink:title="include">
<path fill="none" stroke="#1414ce" d="M1202.49,-74.65C1197.6,-73.69 1192.72,-72.8 1188,-72 1040.95,-47.19 864.97,-30.11 783.11,-22.88"/>
<polygon fill="#1414ce" stroke="#1414ce" points="783.4,-19.39 773.13,-22.01 782.78,-26.36 783.4,-19.39"/>
</a>
</g>
</g>
<!-- 29&#45;&gt;16 -->
<g id="edge73" class="edge">
<title>29&#45;&gt;16</title>
<g id="a_edge73"><a xlink:title="include">
<path fill="none" stroke="#1414ce" d="M126.28,-226.41C151.58,-223.11 182.92,-219.16 211,-216 370.53,-198.06 418.08,-222.59 576.74,-179.78"/>
<polygon fill="#1414ce" stroke="#1414ce" points="578.14,-183.02 586.86,-177 576.29,-176.27 578.14,-183.02"/>
</a>
</g>
</g>
<!-- 29&#45;&gt;10 -->
<g id="edge71" class="edge">
<title>29&#45;&gt;10</title>
<g id="a_edge71"><a xlink:title="include">
<path fill="none" stroke="#1414ce" d="M93.78,-215.88C113.76,-196.3 148.86,-164.32 184,-144 212.7,-127.4 247.54,-114.36 275.65,-105.36"/>
<polygon fill="#1414ce" stroke="#1414ce" points="276.79,-108.68 285.29,-102.35 274.7,-101.99 276.79,-108.68"/>
</a>
</g>
</g>
<!-- 29&#45;&gt;6 -->
<g id="edge72" class="edge">
<title>29&#45;&gt;6</title>
<g id="a_edge72"><a xlink:title="include">
<path fill="none" stroke="#1414ce" d="M83.83,-215.96C92.37,-196.45 108.64,-164.54 131,-144 183.98,-95.32 207,-92.41 276,-72 423.2,-28.44 606.68,-20.37 690.88,-19.08"/>
<polygon fill="#1414ce" stroke="#1414ce" points="690.93,-22.58 700.88,-18.95 690.84,-15.58 690.93,-22.58"/>
</a>
</g>
</g>
<!-- 19 -->
<g id="node26" class="node">
<title>19</title>
<g id="a_node26"><a xlink:title="stddef.h">
<polygon fill="#ffffff" stroke="black" points="991,-108 917,-108 917,-72 991,-72 991,-108"/>
<text text-anchor="middle" x="954" y="-86.3" font-family="Times,serif" font-size="14.00">stddef.h</text>
</a>
</g>
</g>
<!-- 18&#45;&gt;19 -->
<g id="edge74" class="edge">
<title>18&#45;&gt;19</title>
<g id="a_edge74"><a xlink:title="include">
<path fill="none" stroke="#1414ce" d="M932.17,-143.7C935.43,-135.81 939.37,-126.3 943,-117.55"/>
<polygon fill="#1414ce" stroke="#1414ce" points="946.32,-118.68 946.91,-108.1 939.85,-116 946.32,-118.68"/>
</a>
</g>
</g>
<!-- 18&#45;&gt;20 -->
<g id="edge75" class="edge">
<title>18&#45;&gt;20</title>
<g id="a_edge75"><a xlink:title="include">
<path fill="none" stroke="#1414ce" d="M910.42,-143.7C903.34,-135.3 894.72,-125.07 886.95,-115.86"/>
<polygon fill="#1414ce" stroke="#1414ce" points="889.54,-113.49 880.42,-108.1 884.19,-118.01 889.54,-113.49"/>
</a>
</g>
</g>
<!-- 18&#45;&gt;8 -->
<g id="edge76" class="edge">
<title>18&#45;&gt;8</title>
<g id="a_edge76"><a xlink:title="include">
<path fill="none" stroke="#1414ce" d="M954.36,-143.88C970.05,-134.72 989.56,-123.34 1006.45,-113.48"/>
<polygon fill="#1414ce" stroke="#1414ce" points="1008.66,-116.25 1015.53,-108.19 1005.13,-110.21 1008.66,-116.25"/>
</a>
</g>
</g>
</g>
</svg>
