<?xml version="1.0" encoding="UTF-8" standalone="no"?>
<!DOCTYPE svg PUBLIC "-//W3C//DTD SVG 1.1//EN"
 "http://www.w3.org/Graphics/SVG/1.1/DTD/svg11.dtd">
<!-- Generated by graphviz version 2.43.0 (0)
 -->
<!-- Title: %3 Pages: 1 -->
<svg width="346pt" height="116pt"
 viewBox="0.00 0.00 346.00 116.00" xmlns="http://www.w3.org/2000/svg" xmlns:xlink="http://www.w3.org/1999/xlink">
<g id="graph0" class="graph" transform="scale(1 1) rotate(0) translate(4 112)">
<title>%3</title>
<polygon fill="transparent" stroke="transparent" points="-4,4 -4,-112 342,-112 342,4 -4,4"/>
<!-- 1 -->
<g id="node1" class="node">
<title>1</title>
<g id="a_node1"><a xlink:title="/__w/AtomVM/AtomVM/src/libAtomVM/utils.h">
<polygon fill="#bfbfbf" stroke="black" points="338,-108 0,-108 0,-72 338,-72 338,-108"/>
<text text-anchor="middle" x="169" y="-86.3" font-family="Times,serif" font-size="14.00">/__w/AtomVM/AtomVM/src/libAtomVM/utils.h</text>
</a>
</g>
</g>
<!-- 2 -->
<g id="node2" class="node">
<title>2</title>
<g id="a_node2"><a xlink:title="stddef.h">
<polygon fill="#ffffff" stroke="black" points="118,-36 44,-36 44,0 118,0 118,-36"/>
<text text-anchor="middle" x="81" y="-14.3" font-family="Times,serif" font-size="14.00">stddef.h</text>
</a>
</g>
</g>
<!-- 1&#45;&gt;2 -->
<g id="edge1" class="edge">
<title>1&#45;&gt;2</title>
<g id="a_edge1"><a xlink:title="include">
<path fill="none" stroke="#1414ce" d="M147.25,-71.7C136.16,-62.88 122.53,-52.03 110.51,-42.47"/>
<polygon fill="#1414ce" stroke="#1414ce" points="112.51,-39.59 102.5,-36.1 108.15,-45.07 112.51,-39.59"/>
</a>
</g>
</g>
<!-- 3 -->
<g id="node3" class="node">
<title>3</title>
<g id="a_node3"><a xlink:title="stdio.h">
<polygon fill="#ffffff" stroke="black" points="201.5,-36 136.5,-36 136.5,0 201.5,0 201.5,-36"/>
<text text-anchor="middle" x="169" y="-14.3" font-family="Times,serif" font-size="14.00">stdio.h</text>
</a>
</g>
</g>
<!-- 1&#45;&gt;3 -->
<g id="edge2" class="edge">
<title>1&#45;&gt;3</title>
<g id="a_edge2"><a xlink:title="include">
<path fill="none" stroke="#1414ce" d="M169,-71.7C169,-63.98 169,-54.71 169,-46.11"/>
<polygon fill="#1414ce" stroke="#1414ce" points="172.5,-46.1 169,-36.1 165.5,-46.1 172.5,-46.1"/>
</a>
</g>
</g>
<!-- 4 -->
<g id="node4" class="node">
<title>4</title>
<g id="a_node4"><a xlink:title="stdlib.h">
<polygon fill="#ffffff" stroke="black" points="290.5,-36 219.5,-36 219.5,0 290.5,0 290.5,-36"/>
<text text-anchor="middle" x="255" y="-14.3" font-family="Times,serif" font-size="14.00">stdlib.h</text>
</a>
</g>
</g>
<!-- 1&#45;&gt;4 -->
<g id="edge3" class="edge">
<title>1&#45;&gt;4</title>
<g id="a_edge3"><a xlink:title="include">
<path fill="none" stroke="#1414ce" d="M190.26,-71.7C201.09,-62.88 214.42,-52.03 226.16,-42.47"/>
<polygon fill="#1414ce" stroke="#1414ce" points="228.44,-45.13 233.99,-36.1 224.02,-39.7 228.44,-45.13"/>
</a>
</g>
</g>
</g>
</svg>
