<?xml version="1.0" encoding="UTF-8" standalone="no"?>
<!DOCTYPE svg PUBLIC "-//W3C//DTD SVG 1.1//EN"
 "http://www.w3.org/Graphics/SVG/1.1/DTD/svg11.dtd">
<!-- Generated by graphviz version 2.43.0 (0)
 -->
<!-- Title: %3 Pages: 1 -->
<svg width="1066pt" height="476pt"
 viewBox="0.00 0.00 1066.31 476.00" xmlns="http://www.w3.org/2000/svg" xmlns:xlink="http://www.w3.org/1999/xlink">
<g id="graph0" class="graph" transform="scale(1 1) rotate(0) translate(4 472)">
<title>%3</title>
<polygon fill="transparent" stroke="transparent" points="-4,4 -4,-472 1062.31,-472 1062.31,4 -4,4"/>
<!-- 11 -->
<g id="node1" class="node">
<title>11</title>
<g id="a_node1"><a xlink:title="AtomTable">
<polygon fill="#ffffff" stroke="black" points="828.81,-324 736.81,-324 736.81,-288 828.81,-288 828.81,-324"/>
<text text-anchor="middle" x="782.81" y="-302.3" font-family="Times,serif" font-size="14.00">AtomTable</text>
</a>
</g>
</g>
<!-- 12 -->
<g id="node6" class="node">
<title>12</title>
<g id="a_node6"><a xlink:title="HNode">
<polygon fill="#ffffff" stroke="black" points="862.81,-180 796.81,-180 796.81,-144 862.81,-144 862.81,-180"/>
<text text-anchor="middle" x="829.81" y="-158.3" font-family="Times,serif" font-size="14.00">HNode</text>
</a>
</g>
</g>
<!-- 11&#45;&gt;12 -->
<g id="edge1" class="edge">
<title>11&#45;&gt;12</title>
<g id="a_edge1"><a xlink:title="usage">
<path fill="none" stroke="#1414ce" d="M773.55,-287.82C764.9,-269.31 754.83,-239.35 765.81,-216 771.34,-204.26 780.88,-194.22 790.94,-186.15"/>
<polygon fill="#1414ce" stroke="#1414ce" points="793.12,-188.88 799.04,-180.09 788.94,-183.27 793.12,-188.88"/>
</a>
</g>
</g>
<!-- 13 -->
<g id="node7" class="node">
<title>13</title>
<g id="a_node7"><a xlink:title="HNodeGroup">
<polygon fill="#ffffff" stroke="black" points="884.81,-252 774.81,-252 774.81,-216 884.81,-216 884.81,-252"/>
<text text-anchor="middle" x="829.81" y="-230.3" font-family="Times,serif" font-size="14.00">HNodeGroup</text>
</a>
</g>
</g>
<!-- 11&#45;&gt;13 -->
<g id="edge2" class="edge">
<title>11&#45;&gt;13</title>
<g id="a_edge2"><a xlink:title="usage">
<path fill="none" stroke="#1414ce" d="M794.43,-287.7C799.95,-279.47 806.66,-269.48 812.75,-260.42"/>
<polygon fill="#1414ce" stroke="#1414ce" points="815.66,-262.36 818.33,-252.1 809.85,-258.46 815.66,-262.36"/>
</a>
</g>
</g>
<!-- 14 -->
<g id="node2" class="node">
<title>14</title>
<g id="a_node2"><a xlink:title="AtomsHashTable">
<polygon fill="#ffffff" stroke="black" points="1058.31,-252 921.31,-252 921.31,-216 1058.31,-216 1058.31,-252"/>
<text text-anchor="middle" x="989.81" y="-230.3" font-family="Times,serif" font-size="14.00">AtomsHashTable</text>
</a>
</g>
</g>
<!-- 14&#45;&gt;12 -->
<g id="edge3" class="edge">
<title>14&#45;&gt;12</title>
<g id="a_edge3"><a xlink:title="usage">
<path fill="none" stroke="#1414ce" d="M950.67,-215.88C926.91,-205.48 896.56,-192.2 872.22,-181.55"/>
<polygon fill="#1414ce" stroke="#1414ce" points="873.44,-178.27 862.88,-177.47 870.64,-184.68 873.44,-178.27"/>
</a>
</g>
</g>
<!-- 1 -->
<g id="node3" class="node">
<title>1</title>
<g id="a_node3"><a xlink:title="ErlNifEnv">
<polygon fill="#bfbfbf" stroke="black" points="697.81,-468 609.81,-468 609.81,-432 697.81,-432 697.81,-468"/>
<text text-anchor="middle" x="653.81" y="-446.3" font-family="Times,serif" font-size="14.00">ErlNifEnv</text>
</a>
</g>
</g>
<!-- 2 -->
<g id="node5" class="node">
<title>2</title>
<g id="a_node5"><a xlink:title="GlobalContext">
<polygon fill="#ffffff" stroke="black" points="661.31,-396 542.31,-396 542.31,-360 661.31,-360 661.31,-396"/>
<text text-anchor="middle" x="601.81" y="-374.3" font-family="Times,serif" font-size="14.00">GlobalContext</text>
</a>
</g>
</g>
<!-- 1&#45;&gt;2 -->
<g id="edge4" class="edge">
<title>1&#45;&gt;2</title>
<g id="a_edge4"><a xlink:title="usage">
<path fill="none" stroke="#1414ce" d="M640.96,-431.7C634.79,-423.39 627.28,-413.28 620.49,-404.14"/>
<polygon fill="#1414ce" stroke="#1414ce" points="623.29,-402.04 614.52,-396.1 617.67,-406.22 623.29,-402.04"/>
</a>
</g>
</g>
<!-- 19 -->
<g id="node8" class="node">
<title>19</title>
<g id="a_node8"><a xlink:title="Heap">
<polygon fill="#ffffff" stroke="black" points="853.81,-396 799.81,-396 799.81,-360 853.81,-360 853.81,-396"/>
<text text-anchor="middle" x="826.81" y="-374.3" font-family="Times,serif" font-size="14.00">Heap</text>
</a>
</g>
</g>
<!-- 1&#45;&gt;19 -->
<g id="edge5" class="edge">
<title>1&#45;&gt;19</title>
<g id="a_edge5"><a xlink:title="usage">
<path fill="none" stroke="#1414ce" d="M696.13,-431.88C725.04,-420.18 762.93,-404.85 790.47,-393.7"/>
<polygon fill="#1414ce" stroke="#1414ce" points="791.79,-396.95 799.75,-389.95 789.16,-390.46 791.79,-396.95"/>
</a>
</g>
</g>
<!-- 16 -->
<g id="node4" class="node">
<title>16</title>
<g id="a_node4"><a xlink:title="ExportedFunction">
<polygon fill="#ffffff" stroke="black" points="585.81,-252 439.81,-252 439.81,-216 585.81,-216 585.81,-252"/>
<text text-anchor="middle" x="512.81" y="-230.3" font-family="Times,serif" font-size="14.00">ExportedFunction</text>
</a>
</g>
</g>
<!-- 2&#45;&gt;11 -->
<g id="edge11" class="edge">
<title>2&#45;&gt;11</title>
<g id="a_edge11"><a xlink:title="usage">
<path fill="none" stroke="#1414ce" d="M646.09,-359.88C671.16,-350.18 702.71,-337.98 729.18,-327.74"/>
<polygon fill="#1414ce" stroke="#1414ce" points="730.62,-330.94 738.68,-324.07 728.09,-324.41 730.62,-330.94"/>
</a>
</g>
</g>
<!-- 2&#45;&gt;14 -->
<g id="edge12" class="edge">
<title>2&#45;&gt;14</title>
<g id="a_edge12"><a xlink:title="usage">
<path fill="none" stroke="#1414ce" d="M661.5,-372.26C711.07,-366.34 782.22,-353.17 837.81,-324 858.7,-313.04 857.24,-301.16 876.81,-288 895.12,-275.69 916.75,-264.78 936.15,-256.12"/>
<polygon fill="#1414ce" stroke="#1414ce" points="937.71,-259.25 945.48,-252.04 934.91,-252.84 937.71,-259.25"/>
</a>
</g>
</g>
<!-- 3 -->
<g id="node10" class="node">
<title>3</title>
<g id="a_node10"><a xlink:title="ListHead">
<polygon fill="#ffffff" stroke="black" points="413.31,-36 332.31,-36 332.31,0 413.31,0 413.31,-36"/>
<text text-anchor="middle" x="372.81" y="-14.3" font-family="Times,serif" font-size="14.00">ListHead</text>
</a>
</g>
</g>
<!-- 2&#45;&gt;3 -->
<g id="edge6" class="edge">
<title>2&#45;&gt;3</title>
<g id="a_edge6"><a xlink:title="usage">
<path fill="none" stroke="#1414ce" d="M542.2,-375.5C401.99,-371.41 60.17,-358.04 21.81,-324 -8.44,-297.15 2.81,-275.45 2.81,-235 2.81,-235 2.81,-235 2.81,-161 2.81,-93.4 220.81,-45.91 322.14,-27.49"/>
<polygon fill="#1414ce" stroke="#1414ce" points="322.93,-30.91 332.16,-25.7 321.7,-24.02 322.93,-30.91"/>
</a>
</g>
</g>
<!-- 5 -->
<g id="node13" class="node">
<title>5</title>
<g id="a_node13"><a xlink:title="MessageQueueItem">
<polygon fill="#ffffff" stroke="black" points="398.81,-324 240.81,-324 240.81,-288 398.81,-288 398.81,-324"/>
<text text-anchor="middle" x="319.81" y="-302.3" font-family="Times,serif" font-size="14.00">MessageQueueItem</text>
</a>
</g>
</g>
<!-- 2&#45;&gt;5 -->
<g id="edge8" class="edge">
<title>2&#45;&gt;5</title>
<g id="a_edge8"><a xlink:title="usage">
<path fill="none" stroke="#1414ce" d="M542.01,-362.15C500.13,-351.76 443.77,-337.77 398.29,-326.48"/>
<polygon fill="#1414ce" stroke="#1414ce" points="399.01,-323.05 388.46,-324.04 397.32,-329.85 399.01,-323.05"/>
</a>
</g>
</g>
<!-- 15 -->
<g id="node14" class="node">
<title>15</title>
<g id="a_node14"><a xlink:title="Module">
<polygon fill="#ffffff" stroke="black" points="504.81,-324 434.81,-324 434.81,-288 504.81,-288 504.81,-324"/>
<text text-anchor="middle" x="469.81" y="-302.3" font-family="Times,serif" font-size="14.00">Module</text>
</a>
</g>
</g>
<!-- 2&#45;&gt;15 -->
<g id="edge13" class="edge">
<title>2&#45;&gt;15</title>
<g id="a_edge13"><a xlink:title="usage">
<path fill="none" stroke="#1414ce" d="M569.52,-359.88C551.94,-350.55 530,-338.92 511.18,-328.94"/>
<polygon fill="#1414ce" stroke="#1414ce" points="512.7,-325.78 502.23,-324.19 509.42,-331.97 512.7,-325.78"/>
</a>
</g>
</g>
<!-- 7 -->
<g id="node16" class="node">
<title>7</title>
<g id="a_node16"><a xlink:title="RefcBinaryQueueItem">
<polygon fill="#ffffff" stroke="black" points="204.81,-324 30.81,-324 30.81,-288 204.81,-288 204.81,-324"/>
<text text-anchor="middle" x="117.81" y="-302.3" font-family="Times,serif" font-size="14.00">RefcBinaryQueueItem</text>
</a>
</g>
</g>
<!-- 2&#45;&gt;7 -->
<g id="edge9" class="edge">
<title>2&#45;&gt;7</title>
<g id="a_edge9"><a xlink:title="usage">
<path fill="none" stroke="#1414ce" d="M542.2,-368.57C469.06,-358.2 341.29,-340 231.81,-324 226.37,-323.2 220.78,-322.38 215.14,-321.55"/>
<polygon fill="#1414ce" stroke="#1414ce" points="215.35,-318.04 204.94,-320.05 214.33,-324.97 215.35,-318.04"/>
</a>
</g>
</g>
<!-- 4 -->
<g id="node18" class="node">
<title>4</title>
<g id="a_node18"><a xlink:title="SpinLock">
<polygon fill="#ffffff" stroke="black" points="642.81,-324 560.81,-324 560.81,-288 642.81,-288 642.81,-324"/>
<text text-anchor="middle" x="601.81" y="-302.3" font-family="Times,serif" font-size="14.00">SpinLock</text>
</a>
</g>
</g>
<!-- 2&#45;&gt;4 -->
<g id="edge7" class="edge">
<title>2&#45;&gt;4</title>
<g id="a_edge7"><a xlink:title="usage">
<path fill="none" stroke="#1414ce" d="M601.81,-359.7C601.81,-351.98 601.81,-342.71 601.81,-334.11"/>
<polygon fill="#1414ce" stroke="#1414ce" points="605.31,-334.1 601.81,-324.1 598.31,-334.1 605.31,-334.1"/>
</a>
</g>
</g>
<!-- 10 -->
<g id="node19" class="node">
<title>10</title>
<g id="a_node19"><a xlink:title="SyncList">
<polygon fill="#ffffff" stroke="black" points="478.81,-108 400.81,-108 400.81,-72 478.81,-72 478.81,-108"/>
<text text-anchor="middle" x="439.81" y="-86.3" font-family="Times,serif" font-size="14.00">SyncList</text>
</a>
</g>
</g>
<!-- 2&#45;&gt;10 -->
<g id="edge10" class="edge">
<title>2&#45;&gt;10</title>
<g id="a_edge10"><a xlink:title="usage">
<path fill="none" stroke="#1414ce" d="M624.41,-359.96C634.87,-350.63 646.21,-338.11 651.81,-324 670.65,-276.57 646.49,-254.34 612.81,-216 574.44,-172.31 518.11,-135.22 480.25,-113.05"/>
<polygon fill="#1414ce" stroke="#1414ce" points="481.93,-109.98 471.52,-108.01 478.43,-116.04 481.93,-109.98"/>
</a>
</g>
</g>
<!-- 18 -->
<g id="node20" class="node">
<title>18</title>
<g id="a_node20"><a xlink:title="TimerList">
<polygon fill="#ffffff" stroke="black" points="694.81,-108 608.81,-108 608.81,-72 694.81,-72 694.81,-108"/>
<text text-anchor="middle" x="651.81" y="-86.3" font-family="Times,serif" font-size="14.00">TimerList</text>
</a>
</g>
</g>
<!-- 2&#45;&gt;18 -->
<g id="edge14" class="edge">
<title>2&#45;&gt;18</title>
<g id="a_edge14"><a xlink:title="usage">
<path fill="none" stroke="#1414ce" d="M645.37,-359.87C660.67,-351.49 676.19,-339.74 684.81,-324 723.26,-253.84 706.8,-220.92 684.81,-144 682.1,-134.51 677.14,-125.06 671.88,-116.83"/>
<polygon fill="#1414ce" stroke="#1414ce" points="674.67,-114.72 666.14,-108.43 668.89,-118.67 674.67,-114.72"/>
</a>
</g>
</g>
<!-- 12&#45;&gt;12 -->
<g id="edge15" class="edge">
<title>12&#45;&gt;12</title>
<g id="a_edge15"><a xlink:title="usage">
<path fill="none" stroke="#1414ce" d="M863.17,-175.47C873.09,-175.07 880.81,-170.58 880.81,-162 880.81,-156.64 877.8,-152.87 873.11,-150.71"/>
<polygon fill="#1414ce" stroke="#1414ce" points="873.68,-147.25 863.17,-148.53 872.19,-154.09 873.68,-147.25"/>
</a>
</g>
</g>
<!-- 13&#45;&gt;12 -->
<g id="edge17" class="edge">
<title>13&#45;&gt;12</title>
<g id="a_edge17"><a xlink:title="usage">
<path fill="none" stroke="#1414ce" d="M829.81,-215.7C829.81,-207.98 829.81,-198.71 829.81,-190.11"/>
<polygon fill="#1414ce" stroke="#1414ce" points="833.31,-190.1 829.81,-180.1 826.31,-190.1 833.31,-190.1"/>
</a>
</g>
</g>
<!-- 13&#45;&gt;13 -->
<g id="edge16" class="edge">
<title>13&#45;&gt;13</title>
<g id="a_edge16"><a xlink:title="usage">
<path fill="none" stroke="#1414ce" d="M884.89,-246.85C895.39,-245.32 902.81,-241.03 902.81,-234 902.81,-229.5 899.77,-226.12 894.81,-223.87"/>
<polygon fill="#1414ce" stroke="#1414ce" points="895.46,-220.42 884.89,-221.15 893.6,-227.17 895.46,-220.42"/>
</a>
</g>
</g>
<!-- 20 -->
<g id="node9" class="node">
<title>20</title>
<g id="a_node9"><a xlink:title="HeapFragment">
<polygon fill="#ffffff" stroke="black" points="1010.31,-324 885.31,-324 885.31,-288 1010.31,-288 1010.31,-324"/>
<text text-anchor="middle" x="947.81" y="-302.3" font-family="Times,serif" font-size="14.00">HeapFragment</text>
</a>
</g>
</g>
<!-- 19&#45;&gt;20 -->
<g id="edge18" class="edge">
<title>19&#45;&gt;20</title>
<g id="a_edge18"><a xlink:title="usage">
<path fill="none" stroke="#1414ce" d="M853.97,-361.29C870.23,-351.89 891.16,-339.78 909.12,-329.38"/>
<polygon fill="#1414ce" stroke="#1414ce" points="911.3,-332.16 918.21,-324.13 907.8,-326.11 911.3,-332.16"/>
</a>
</g>
</g>
<!-- 20&#45;&gt;20 -->
<g id="edge19" class="edge">
<title>20&#45;&gt;20</title>
<g id="a_edge19"><a xlink:title="usage">
<path fill="none" stroke="#1414ce" d="M1010.59,-318.55C1021.08,-316.79 1028.31,-312.61 1028.31,-306 1028.31,-301.77 1025.34,-298.53 1020.45,-296.29"/>
<polygon fill="#1414ce" stroke="#1414ce" points="1021.17,-292.85 1010.59,-293.45 1019.24,-299.58 1021.17,-292.85"/>
</a>
</g>
</g>
<!-- 3&#45;&gt;3 -->
<g id="edge20" class="edge">
<title>3&#45;&gt;3</title>
<g id="a_edge20"><a xlink:title="usage">
<path fill="none" stroke="#1414ce" d="M413.55,-31.31C423.71,-30.38 431.31,-25.95 431.31,-18 431.31,-12.91 428.19,-9.26 423.28,-7.05"/>
<polygon fill="#1414ce" stroke="#1414ce" points="424.09,-3.64 413.55,-4.69 422.44,-10.45 424.09,-3.64"/>
</a>
</g>
</g>
<!-- 17 -->
<g id="node11" class="node">
<title>17</title>
<g id="a_node11"><a xlink:title="LiteralEntry">
<polygon fill="#ffffff" stroke="black" points="421.81,-252 317.81,-252 317.81,-216 421.81,-216 421.81,-252"/>
<text text-anchor="middle" x="369.81" y="-230.3" font-family="Times,serif" font-size="14.00">LiteralEntry</text>
</a>
</g>
</g>
<!-- 6 -->
<g id="node12" class="node">
<title>6</title>
<g id="a_node12"><a xlink:title="MailboxMessage">
<polygon fill="#ffffff" stroke="black" points="281.31,-252 144.31,-252 144.31,-216 281.31,-216 281.31,-252"/>
<text text-anchor="middle" x="212.81" y="-230.3" font-family="Times,serif" font-size="14.00">MailboxMessage</text>
</a>
</g>
</g>
<!-- 6&#45;&gt;6 -->
<g id="edge21" class="edge">
<title>6&#45;&gt;6</title>
<g id="a_edge21"><a xlink:title="usage">
<path fill="none" stroke="#1414ce" d="M281.34,-246.37C292.03,-244.52 299.31,-240.4 299.31,-234 299.31,-229.8 296.18,-226.58 291,-224.34"/>
<polygon fill="#1414ce" stroke="#1414ce" points="291.91,-220.96 281.34,-221.63 290.02,-227.7 291.91,-220.96"/>
</a>
</g>
</g>
<!-- 5&#45;&gt;6 -->
<g id="edge23" class="edge">
<title>5&#45;&gt;6</title>
<g id="a_edge23"><a xlink:title="usage">
<path fill="none" stroke="#1414ce" d="M293.64,-287.88C279.78,-278.81 262.57,-267.55 247.6,-257.76"/>
<polygon fill="#1414ce" stroke="#1414ce" points="249.37,-254.74 239.09,-252.19 245.54,-260.59 249.37,-254.74"/>
</a>
</g>
</g>
<!-- 5&#45;&gt;5 -->
<g id="edge22" class="edge">
<title>5&#45;&gt;5</title>
<g id="a_edge22"><a xlink:title="usage">
<path fill="none" stroke="#1414ce" d="M398.98,-317.98C409.68,-315.97 416.81,-311.98 416.81,-306 416.81,-302.08 413.74,-299.01 408.61,-296.8"/>
<polygon fill="#1414ce" stroke="#1414ce" points="409.55,-293.43 398.98,-294.02 407.62,-300.15 409.55,-293.43"/>
</a>
</g>
</g>
<!-- 15&#45;&gt;16 -->
<g id="edge24" class="edge">
<title>15&#45;&gt;16</title>
<g id="a_edge24"><a xlink:title="usage">
<path fill="none" stroke="#1414ce" d="M480.44,-287.7C485.44,-279.56 491.5,-269.69 497.03,-260.7"/>
<polygon fill="#1414ce" stroke="#1414ce" points="500.05,-262.46 502.31,-252.1 494.09,-258.79 500.05,-262.46"/>
</a>
</g>
</g>
<!-- 15&#45;&gt;17 -->
<g id="edge25" class="edge">
<title>15&#45;&gt;17</title>
<g id="a_edge25"><a xlink:title="usage">
<path fill="none" stroke="#1414ce" d="M445.35,-287.88C432.52,-278.89 416.62,-267.76 402.72,-258.03"/>
<polygon fill="#1414ce" stroke="#1414ce" points="404.57,-255.06 394.37,-252.19 400.56,-260.79 404.57,-255.06"/>
</a>
</g>
</g>
<!-- 8 -->
<g id="node15" class="node">
<title>8</title>
<g id="a_node15"><a xlink:title="RefcBinary">
<polygon fill="#ffffff" stroke="black" points="126.31,-252 31.31,-252 31.31,-216 126.31,-216 126.31,-252"/>
<text text-anchor="middle" x="78.81" y="-230.3" font-family="Times,serif" font-size="14.00">RefcBinary</text>
</a>
</g>
</g>
<!-- 8&#45;&gt;3 -->
<g id="edge26" class="edge">
<title>8&#45;&gt;3</title>
<g id="a_edge26"><a xlink:title="usage">
<path fill="none" stroke="#1414ce" d="M102.38,-215.85C154.84,-177.66 281.36,-85.57 340.86,-42.26"/>
<polygon fill="#1414ce" stroke="#1414ce" points="343.11,-44.95 349.14,-36.23 338.99,-39.29 343.11,-44.95"/>
</a>
</g>
</g>
<!-- 9 -->
<g id="node17" class="node">
<title>9</title>
<g id="a_node17"><a xlink:title="ResourceType">
<polygon fill="#ffffff" stroke="black" points="465.31,-180 348.31,-180 348.31,-144 465.31,-144 465.31,-180"/>
<text text-anchor="middle" x="406.81" y="-158.3" font-family="Times,serif" font-size="14.00">ResourceType</text>
</a>
</g>
</g>
<!-- 8&#45;&gt;9 -->
<g id="edge27" class="edge">
<title>8&#45;&gt;9</title>
<g id="a_edge27"><a xlink:title="usage">
<path fill="none" stroke="#1414ce" d="M126.38,-218.2C129.23,-217.43 132.05,-216.69 134.81,-216 203.38,-198.96 282.79,-184.03 338.04,-174.39"/>
<polygon fill="#1414ce" stroke="#1414ce" points="338.81,-177.81 348.07,-172.66 337.62,-170.92 338.81,-177.81"/>
</a>
</g>
</g>
<!-- 7&#45;&gt;8 -->
<g id="edge29" class="edge">
<title>7&#45;&gt;8</title>
<g id="a_edge29"><a xlink:title="usage">
<path fill="none" stroke="#1414ce" d="M108.17,-287.7C103.69,-279.64 98.25,-269.89 93.29,-260.98"/>
<polygon fill="#1414ce" stroke="#1414ce" points="96.27,-259.14 88.34,-252.1 90.15,-262.54 96.27,-259.14"/>
</a>
</g>
</g>
<!-- 7&#45;&gt;7 -->
<g id="edge28" class="edge">
<title>7&#45;&gt;7</title>
<g id="a_edge28"><a xlink:title="usage">
<path fill="none" stroke="#1414ce" d="M205.12,-317.68C215.81,-315.59 222.81,-311.7 222.81,-306 222.81,-302.35 219.94,-299.44 215.06,-297.27"/>
<polygon fill="#1414ce" stroke="#1414ce" points="215.7,-293.81 205.12,-294.32 213.71,-300.52 215.7,-293.81"/>
</a>
</g>
</g>
<!-- 9&#45;&gt;2 -->
<g id="edge31" class="edge">
<title>9&#45;&gt;2</title>
<g id="a_edge31"><a xlink:title="usage">
<path fill="none" stroke="#1414ce" d="M465.54,-171.71C514.64,-180.33 579.1,-195.25 594.81,-216 604.47,-228.76 601.58,-237.5 594.81,-252 584.27,-274.58 562.36,-265.42 551.81,-288 545.04,-302.5 545.91,-309.13 551.81,-324 556.1,-334.8 563.75,-344.68 571.8,-352.9"/>
<polygon fill="#1414ce" stroke="#1414ce" points="569.56,-355.6 579.22,-359.96 574.39,-350.53 569.56,-355.6"/>
</a>
</g>
</g>
<!-- 9&#45;&gt;3 -->
<g id="edge30" class="edge">
<title>9&#45;&gt;3</title>
<g id="a_edge30"><a xlink:title="usage">
<path fill="none" stroke="#1414ce" d="M401.66,-143.89C398.63,-133.54 394.81,-120.07 391.81,-108 386.71,-87.43 381.74,-63.97 378.16,-46.31"/>
<polygon fill="#1414ce" stroke="#1414ce" points="381.52,-45.26 376.13,-36.14 374.66,-46.63 381.52,-45.26"/>
</a>
</g>
</g>
<!-- 9&#45;&gt;10 -->
<g id="edge32" class="edge">
<title>9&#45;&gt;10</title>
<g id="a_edge32"><a xlink:title="usage">
<path fill="none" stroke="#1414ce" d="M414.97,-143.7C418.73,-135.73 423.27,-126.1 427.43,-117.26"/>
<polygon fill="#1414ce" stroke="#1414ce" points="430.65,-118.64 431.75,-108.1 424.32,-115.66 430.65,-118.64"/>
</a>
</g>
</g>
<!-- 10&#45;&gt;3 -->
<g id="edge33" class="edge">
<title>10&#45;&gt;3</title>
<g id="a_edge33"><a xlink:title="usage">
<path fill="none" stroke="#1414ce" d="M423.25,-71.7C415.14,-63.22 405.23,-52.86 396.34,-43.58"/>
<polygon fill="#1414ce" stroke="#1414ce" points="398.63,-40.91 389.18,-36.1 393.57,-45.75 398.63,-40.91"/>
</a>
</g>
</g>
<!-- 18&#45;&gt;3 -->
<g id="edge34" class="edge">
<title>18&#45;&gt;3</title>
<g id="a_edge34"><a xlink:title="usage">
<path fill="none" stroke="#1414ce" d="M608.53,-78.14C558.49,-65.58 476.24,-44.95 423.33,-31.67"/>
<polygon fill="#1414ce" stroke="#1414ce" points="424.03,-28.24 413.48,-29.2 422.33,-35.03 424.03,-28.24"/>
</a>
</g>
</g>
</g>
</svg>
