<?xml version="1.0" encoding="UTF-8" standalone="no"?>
<!DOCTYPE svg PUBLIC "-//W3C//DTD SVG 1.1//EN"
 "http://www.w3.org/Graphics/SVG/1.1/DTD/svg11.dtd">
<!-- Generated by graphviz version 2.43.0 (0)
 -->
<!-- Title: %3 Pages: 1 -->
<svg width="1397pt" height="764pt"
 viewBox="0.00 0.00 1397.00 764.00" xmlns="http://www.w3.org/2000/svg" xmlns:xlink="http://www.w3.org/1999/xlink">
<g id="graph0" class="graph" transform="scale(1 1) rotate(0) translate(4 760)">
<title>%3</title>
<polygon fill="transparent" stroke="transparent" points="-4,4 -4,-760 1393,-760 1393,4 -4,4"/>
<!-- 8 -->
<g id="node1" class="node">
<title>8</title>
<g id="a_node1"><a xlink:title="stdbool.h">
<polygon fill="#ffffff" stroke="black" points="408.5,-108 325.5,-108 325.5,-72 408.5,-72 408.5,-108"/>
<text text-anchor="middle" x="367" y="-86.3" font-family="Times,serif" font-size="14.00">stdbool.h</text>
</a>
</g>
</g>
<!-- 25 -->
<g id="node2" class="node">
<title>25</title>
<g id="a_node2"><a xlink:title="refc_binary.h">
<polygon fill="#ffffff" stroke="black" points="1037,-396 929,-396 929,-360 1037,-360 1037,-396"/>
<text text-anchor="middle" x="983" y="-374.3" font-family="Times,serif" font-size="14.00">refc_binary.h</text>
</a>
</g>
</g>
<!-- 25&#45;&gt;8 -->
<g id="edge1" class="edge">
<title>25&#45;&gt;8</title>
<g id="a_edge1"><a xlink:title="include">
<path fill="none" stroke="#1414ce" d="M928.71,-362.31C925.77,-361.52 922.85,-360.75 920,-360 733.62,-310.89 662.68,-355.36 500,-252 445.5,-217.38 402.47,-153.01 381.32,-117.04"/>
<polygon fill="#1414ce" stroke="#1414ce" points="384.2,-115.04 376.18,-108.12 378.14,-118.53 384.2,-115.04"/>
</a>
</g>
</g>
<!-- 14 -->
<g id="node7" class="node">
<title>14</title>
<g id="a_node7"><a xlink:title="list.h">
<polygon fill="#ffffff" stroke="black" points="804,-180 750,-180 750,-144 804,-144 804,-180"/>
<text text-anchor="middle" x="777" y="-158.3" font-family="Times,serif" font-size="14.00">list.h</text>
</a>
</g>
</g>
<!-- 25&#45;&gt;14 -->
<g id="edge3" class="edge">
<title>25&#45;&gt;14</title>
<g id="a_edge3"><a xlink:title="include">
<path fill="none" stroke="#1414ce" d="M947.4,-359.77C930.45,-350.56 910.54,-338.19 895,-324 850.33,-283.19 811.71,-223.17 791.66,-189.11"/>
<polygon fill="#1414ce" stroke="#1414ce" points="794.55,-187.13 786.51,-180.23 788.5,-190.64 794.55,-187.13"/>
</a>
</g>
</g>
<!-- 6 -->
<g id="node9" class="node">
<title>6</title>
<g id="a_node9"><a xlink:title="stdlib.h">
<polygon fill="#ffffff" stroke="black" points="1005.5,-108 934.5,-108 934.5,-72 1005.5,-72 1005.5,-108"/>
<text text-anchor="middle" x="970" y="-86.3" font-family="Times,serif" font-size="14.00">stdlib.h</text>
</a>
</g>
</g>
<!-- 25&#45;&gt;6 -->
<g id="edge2" class="edge">
<title>25&#45;&gt;6</title>
<g id="a_edge2"><a xlink:title="include">
<path fill="none" stroke="#1414ce" d="M957.62,-359.95C946.29,-350.79 934.12,-338.4 928,-324 897.89,-253.16 934.3,-161.29 956.03,-117.05"/>
<polygon fill="#1414ce" stroke="#1414ce" points="959.16,-118.62 960.54,-108.11 952.91,-115.46 959.16,-118.62"/>
</a>
</g>
</g>
<!-- 26 -->
<g id="node14" class="node">
<title>26</title>
<g id="a_node14"><a xlink:title="resources.h">
<polygon fill="#ffffff" stroke="black" points="1037,-324 937,-324 937,-288 1037,-288 1037,-324"/>
<text text-anchor="middle" x="987" y="-302.3" font-family="Times,serif" font-size="14.00">resources.h</text>
</a>
</g>
</g>
<!-- 25&#45;&gt;26 -->
<g id="edge4" class="edge">
<title>25&#45;&gt;26</title>
<g id="a_edge4"><a xlink:title="include">
<path fill="none" stroke="#1414ce" d="M983.99,-359.7C984.43,-351.98 984.96,-342.71 985.45,-334.11"/>
<polygon fill="#1414ce" stroke="#1414ce" points="988.95,-334.29 986.02,-324.1 981.96,-333.89 988.95,-334.29"/>
</a>
</g>
</g>
<!-- 5 -->
<g id="node3" class="node">
<title>5</title>
<g id="a_node3"><a xlink:title="atom.h">
<polygon fill="#ffffff" stroke="black" points="317,-396 251,-396 251,-360 317,-360 317,-396"/>
<text text-anchor="middle" x="284" y="-374.3" font-family="Times,serif" font-size="14.00">atom.h</text>
</a>
</g>
</g>
<!-- 4 -->
<g id="node8" class="node">
<title>4</title>
<g id="a_node8"><a xlink:title="stdint.h">
<polygon fill="#ffffff" stroke="black" points="698,-36 626,-36 626,0 698,0 698,-36"/>
<text text-anchor="middle" x="662" y="-14.3" font-family="Times,serif" font-size="14.00">stdint.h</text>
</a>
</g>
</g>
<!-- 5&#45;&gt;4 -->
<g id="edge5" class="edge">
<title>5&#45;&gt;4</title>
<g id="a_edge5"><a xlink:title="include">
<path fill="none" stroke="#1414ce" d="M261.54,-359.97C232.33,-335.71 185,-288.19 185,-235 185,-235 185,-235 185,-161 185,-90.61 250.49,-97.74 316,-72 417.74,-32.03 547.33,-22.06 615.4,-19.67"/>
<polygon fill="#1414ce" stroke="#1414ce" points="615.9,-23.15 625.78,-19.35 615.68,-16.16 615.9,-23.15"/>
</a>
</g>
</g>
<!-- 5&#45;&gt;6 -->
<g id="edge6" class="edge">
<title>5&#45;&gt;6</title>
<g id="a_edge6"><a xlink:title="include">
<path fill="none" stroke="#1414ce" d="M302.15,-359.91C337.53,-327.45 419.33,-256.51 500,-216 645.19,-143.08 837.67,-109.16 924.3,-96.81"/>
<polygon fill="#1414ce" stroke="#1414ce" points="924.92,-100.26 934.34,-95.41 923.95,-93.32 924.92,-100.26"/>
</a>
</g>
</g>
<!-- 11 -->
<g id="node4" class="node">
<title>11</title>
<g id="a_node4"><a xlink:title="assert.h">
<polygon fill="#ffffff" stroke="black" points="1389,-36 1315,-36 1315,0 1389,0 1389,-36"/>
<text text-anchor="middle" x="1352" y="-14.3" font-family="Times,serif" font-size="14.00">assert.h</text>
</a>
</g>
</g>
<!-- 16 -->
<g id="node5" class="node">
<title>16</title>
<g id="a_node5"><a xlink:title="utils.h">
<polygon fill="#ffffff" stroke="black" points="1095,-180 1033,-180 1033,-144 1095,-144 1095,-180"/>
<text text-anchor="middle" x="1064" y="-158.3" font-family="Times,serif" font-size="14.00">utils.h</text>
</a>
</g>
</g>
<!-- 16&#45;&gt;6 -->
<g id="edge9" class="edge">
<title>16&#45;&gt;6</title>
<g id="a_edge9"><a xlink:title="include">
<path fill="none" stroke="#1414ce" d="M1040.76,-143.7C1028.81,-134.8 1014.08,-123.82 1001.15,-114.2"/>
<polygon fill="#1414ce" stroke="#1414ce" points="1003.08,-111.27 992.97,-108.1 998.9,-116.88 1003.08,-111.27"/>
</a>
</g>
</g>
<!-- 17 -->
<g id="node16" class="node">
<title>17</title>
<g id="a_node16"><a xlink:title="stddef.h">
<polygon fill="#ffffff" stroke="black" points="1101,-108 1027,-108 1027,-72 1101,-72 1101,-108"/>
<text text-anchor="middle" x="1064" y="-86.3" font-family="Times,serif" font-size="14.00">stddef.h</text>
</a>
</g>
</g>
<!-- 16&#45;&gt;17 -->
<g id="edge7" class="edge">
<title>16&#45;&gt;17</title>
<g id="a_edge7"><a xlink:title="include">
<path fill="none" stroke="#1414ce" d="M1064,-143.7C1064,-135.98 1064,-126.71 1064,-118.11"/>
<polygon fill="#1414ce" stroke="#1414ce" points="1067.5,-118.1 1064,-108.1 1060.5,-118.1 1067.5,-118.1"/>
</a>
</g>
</g>
<!-- 18 -->
<g id="node30" class="node">
<title>18</title>
<g id="a_node30"><a xlink:title="stdio.h">
<polygon fill="#ffffff" stroke="black" points="627.5,-108 562.5,-108 562.5,-72 627.5,-72 627.5,-108"/>
<text text-anchor="middle" x="595" y="-86.3" font-family="Times,serif" font-size="14.00">stdio.h</text>
</a>
</g>
</g>
<!-- 16&#45;&gt;18 -->
<g id="edge8" class="edge">
<title>16&#45;&gt;18</title>
<g id="a_edge8"><a xlink:title="include">
<path fill="none" stroke="#1414ce" d="M1032.86,-156.35C951.23,-144.17 730.87,-111.28 637.61,-97.36"/>
<polygon fill="#1414ce" stroke="#1414ce" points="638.08,-93.89 627.68,-95.88 637.05,-100.81 638.08,-93.89"/>
</a>
</g>
</g>
<!-- 20 -->
<g id="node6" class="node">
<title>20</title>
<g id="a_node6"><a xlink:title="synclist.h">
<polygon fill="#ffffff" stroke="black" points="594.5,-252 509.5,-252 509.5,-216 594.5,-216 594.5,-252"/>
<text text-anchor="middle" x="552" y="-230.3" font-family="Times,serif" font-size="14.00">synclist.h</text>
</a>
</g>
</g>
<!-- 20&#45;&gt;14 -->
<g id="edge11" class="edge">
<title>20&#45;&gt;14</title>
<g id="a_edge11"><a xlink:title="include">
<path fill="none" stroke="#1414ce" d="M594.55,-219.02C597.74,-217.99 600.92,-216.97 604,-216 650.88,-201.16 705.12,-184.65 740.18,-174.06"/>
<polygon fill="#1414ce" stroke="#1414ce" points="741.42,-177.34 749.98,-171.11 739.4,-170.64 741.42,-177.34"/>
</a>
</g>
</g>
<!-- 19 -->
<g id="node25" class="node">
<title>19</title>
<g id="a_node25"><a xlink:title="smp.h">
<polygon fill="#ffffff" stroke="black" points="339,-180 279,-180 279,-144 339,-144 339,-180"/>
<text text-anchor="middle" x="309" y="-158.3" font-family="Times,serif" font-size="14.00">smp.h</text>
</a>
</g>
</g>
<!-- 20&#45;&gt;19 -->
<g id="edge12" class="edge">
<title>20&#45;&gt;19</title>
<g id="a_edge12"><a xlink:title="include">
<path fill="none" stroke="#1414ce" d="M509.39,-220.73C464.19,-207.7 393.3,-187.29 349.08,-174.55"/>
<polygon fill="#1414ce" stroke="#1414ce" points="349.84,-171.12 339.26,-171.72 347.9,-177.85 349.84,-171.12"/>
</a>
</g>
</g>
<!-- 20&#45;&gt;18 -->
<g id="edge10" class="edge">
<title>20&#45;&gt;18</title>
<g id="a_edge10"><a xlink:title="include">
<path fill="none" stroke="#1414ce" d="M557.19,-215.87C564.55,-191.56 578.1,-146.82 586.82,-118.01"/>
<polygon fill="#1414ce" stroke="#1414ce" points="590.25,-118.77 589.79,-108.19 583.55,-116.75 590.25,-118.77"/>
</a>
</g>
</g>
<!-- 2 -->
<g id="node10" class="node">
<title>2</title>
<g id="a_node10"><a xlink:title="context.h">
<polygon fill="#ffffff" stroke="black" points="637.5,-612 554.5,-612 554.5,-576 637.5,-576 637.5,-612"/>
<text text-anchor="middle" x="596" y="-590.3" font-family="Times,serif" font-size="14.00">context.h</text>
</a>
</g>
</g>
<!-- 2&#45;&gt;14 -->
<g id="edge14" class="edge">
<title>2&#45;&gt;14</title>
<g id="a_edge14"><a xlink:title="include">
<path fill="none" stroke="#1414ce" d="M608.72,-575.62C626.34,-549.81 656,-499.17 656,-451 656,-451 656,-451 656,-377 656,-308.02 716.47,-313.35 748,-252 758.18,-232.18 765.78,-208.07 770.63,-189.94"/>
<polygon fill="#1414ce" stroke="#1414ce" points="774.08,-190.59 773.18,-180.04 767.3,-188.85 774.08,-190.59"/>
</a>
</g>
</g>
<!-- 21 -->
<g id="node15" class="node">
<title>21</title>
<g id="a_node15"><a xlink:title="term.h">
<polygon fill="#ffffff" stroke="black" points="868.5,-468 803.5,-468 803.5,-432 868.5,-432 868.5,-468"/>
<text text-anchor="middle" x="836" y="-446.3" font-family="Times,serif" font-size="14.00">term.h</text>
</a>
</g>
</g>
<!-- 2&#45;&gt;21 -->
<g id="edge17" class="edge">
<title>2&#45;&gt;21</title>
<g id="a_edge17"><a xlink:title="include">
<path fill="none" stroke="#1414ce" d="M620.09,-575.95C634.61,-565.62 653.43,-552.14 670,-540 691.51,-524.24 695.03,-517.55 718,-504 742.2,-489.73 770.94,-476.74 793.99,-467.2"/>
<polygon fill="#1414ce" stroke="#1414ce" points="795.55,-470.34 803.49,-463.33 792.91,-463.86 795.55,-470.34"/>
</a>
</g>
</g>
<!-- 3 -->
<g id="node24" class="node">
<title>3</title>
<g id="a_node24"><a xlink:title="globalcontext.h">
<polygon fill="#ffffff" stroke="black" points="567.5,-540 440.5,-540 440.5,-504 567.5,-504 567.5,-540"/>
<text text-anchor="middle" x="504" y="-518.3" font-family="Times,serif" font-size="14.00">globalcontext.h</text>
</a>
</g>
</g>
<!-- 2&#45;&gt;3 -->
<g id="edge13" class="edge">
<title>2&#45;&gt;3</title>
<g id="a_edge13"><a xlink:title="include">
<path fill="none" stroke="#1414ce" d="M573.26,-575.7C561.56,-566.8 547.14,-555.82 534.49,-546.2"/>
<polygon fill="#1414ce" stroke="#1414ce" points="536.56,-543.37 526.48,-540.1 532.32,-548.94 536.56,-543.37"/>
</a>
</g>
</g>
<!-- 2&#45;&gt;19 -->
<g id="edge16" class="edge">
<title>2&#45;&gt;19</title>
<g id="a_edge16"><a xlink:title="include">
<path fill="none" stroke="#1414ce" d="M554.44,-589.93C517.47,-585.06 464.25,-572.48 431,-540 330.1,-441.44 312.57,-258.93 309.58,-190.16"/>
<polygon fill="#1414ce" stroke="#1414ce" points="313.08,-190 309.22,-180.13 306.09,-190.25 313.08,-190"/>
</a>
</g>
</g>
<!-- 27 -->
<g id="node28" class="node">
<title>27</title>
<g id="a_node28"><a xlink:title="timer_list.h">
<polygon fill="#ffffff" stroke="black" points="711,-252 613,-252 613,-216 711,-216 711,-252"/>
<text text-anchor="middle" x="662" y="-230.3" font-family="Times,serif" font-size="14.00">timer_list.h</text>
</a>
</g>
</g>
<!-- 2&#45;&gt;27 -->
<g id="edge18" class="edge">
<title>2&#45;&gt;27</title>
<g id="a_edge18"><a xlink:title="include">
<path fill="none" stroke="#1414ce" d="M591.99,-575.77C581.67,-527.6 558.13,-388.46 604,-288 609.18,-276.66 618.05,-266.66 627.32,-258.49"/>
<polygon fill="#1414ce" stroke="#1414ce" points="629.63,-261.12 635.13,-252.07 625.19,-255.72 629.63,-261.12"/>
</a>
</g>
</g>
<!-- 15 -->
<g id="node29" class="node">
<title>15</title>
<g id="a_node29"><a xlink:title="mailbox.h">
<polygon fill="#ffffff" stroke="black" points="1159,-252 1073,-252 1073,-216 1159,-216 1159,-252"/>
<text text-anchor="middle" x="1116" y="-230.3" font-family="Times,serif" font-size="14.00">mailbox.h</text>
</a>
</g>
</g>
<!-- 2&#45;&gt;15 -->
<g id="edge15" class="edge">
<title>2&#45;&gt;15</title>
<g id="a_edge15"><a xlink:title="include">
<path fill="none" stroke="#1414ce" d="M637.65,-592.2C701.11,-589.68 824.78,-579.6 921,-540 1022.96,-498.03 1062.72,-488.32 1123,-396 1149.49,-355.42 1147.47,-335.53 1138,-288 1136.21,-279.01 1132.86,-269.64 1129.31,-261.32"/>
<polygon fill="#1414ce" stroke="#1414ce" points="1132.46,-259.77 1125.13,-252.12 1126.08,-262.67 1132.46,-259.77"/>
</a>
</g>
</g>
<!-- 24 -->
<g id="node11" class="node">
<title>24</title>
<g id="a_node11"><a xlink:title="memory.h">
<polygon fill="#ffffff" stroke="black" points="1263,-252 1177,-252 1177,-216 1263,-216 1263,-252"/>
<text text-anchor="middle" x="1220" y="-230.3" font-family="Times,serif" font-size="14.00">memory.h</text>
</a>
</g>
</g>
<!-- 24&#45;&gt;16 -->
<g id="edge23" class="edge">
<title>24&#45;&gt;16</title>
<g id="a_edge23"><a xlink:title="include">
<path fill="none" stroke="#1414ce" d="M1181.84,-215.88C1158.35,-205.34 1128.27,-191.84 1104.38,-181.12"/>
<polygon fill="#1414ce" stroke="#1414ce" points="1105.78,-177.91 1095.22,-177.01 1102.91,-184.3 1105.78,-177.91"/>
</a>
</g>
</g>
<!-- 24&#45;&gt;4 -->
<g id="edge19" class="edge">
<title>24&#45;&gt;4</title>
<g id="a_edge19"><a xlink:title="include">
<path fill="none" stroke="#1414ce" d="M1213.86,-215.76C1200.73,-181.71 1166.46,-106.2 1110,-72 1043.2,-31.54 808.57,-21.95 708.16,-19.69"/>
<polygon fill="#1414ce" stroke="#1414ce" points="708.09,-16.19 698.01,-19.48 707.94,-23.19 708.09,-16.19"/>
</a>
</g>
</g>
<!-- 24&#45;&gt;6 -->
<g id="edge20" class="edge">
<title>24&#45;&gt;6</title>
<g id="a_edge20"><a xlink:title="include">
<path fill="none" stroke="#1414ce" d="M1195.69,-215.99C1181.34,-205.79 1162.93,-192.43 1147,-180 1127.35,-164.67 1125.42,-156.75 1104,-144 1088.51,-134.78 1048,-119.15 1015.55,-107.24"/>
<polygon fill="#1414ce" stroke="#1414ce" points="1016.37,-103.82 1005.77,-103.68 1013.97,-110.39 1016.37,-103.82"/>
</a>
</g>
</g>
<!-- 9 -->
<g id="node17" class="node">
<title>9</title>
<g id="a_node17"><a xlink:title="erl_nif.h">
<polygon fill="#ffffff" stroke="black" points="1339,-180 1265,-180 1265,-144 1339,-144 1339,-180"/>
<text text-anchor="middle" x="1302" y="-158.3" font-family="Times,serif" font-size="14.00">erl_nif.h</text>
</a>
</g>
</g>
<!-- 24&#45;&gt;9 -->
<g id="edge21" class="edge">
<title>24&#45;&gt;9</title>
<g id="a_edge21"><a xlink:title="include">
<path fill="none" stroke="#1414ce" d="M1240.27,-215.7C1250.5,-206.97 1263.06,-196.24 1274.18,-186.75"/>
<polygon fill="#1414ce" stroke="#1414ce" points="1276.63,-189.26 1281.96,-180.1 1272.09,-183.94 1276.63,-189.26"/>
</a>
</g>
</g>
<!-- 10 -->
<g id="node23" class="node">
<title>10</title>
<g id="a_node23"><a xlink:title="term_typedef.h">
<polygon fill="#ffffff" stroke="black" points="1314.5,-108 1189.5,-108 1189.5,-72 1314.5,-72 1314.5,-108"/>
<text text-anchor="middle" x="1252" y="-86.3" font-family="Times,serif" font-size="14.00">term_typedef.h</text>
</a>
</g>
</g>
<!-- 24&#45;&gt;10 -->
<g id="edge22" class="edge">
<title>24&#45;&gt;10</title>
<g id="a_edge22"><a xlink:title="include">
<path fill="none" stroke="#1414ce" d="M1223.86,-215.87C1229.34,-191.56 1239.42,-146.82 1245.91,-118.01"/>
<polygon fill="#1414ce" stroke="#1414ce" points="1249.34,-118.71 1248.13,-108.19 1242.51,-117.18 1249.34,-118.71"/>
</a>
</g>
</g>
<!-- 28 -->
<g id="node12" class="node">
<title>28</title>
<g id="a_node12"><a xlink:title="module.h">
<polygon fill="#ffffff" stroke="black" points="357.5,-684 274.5,-684 274.5,-648 357.5,-648 357.5,-684"/>
<text text-anchor="middle" x="316" y="-662.3" font-family="Times,serif" font-size="14.00">module.h</text>
</a>
</g>
</g>
<!-- 28&#45;&gt;8 -->
<g id="edge24" class="edge">
<title>28&#45;&gt;8</title>
<g id="a_edge24"><a xlink:title="include">
<path fill="none" stroke="#1414ce" d="M274.24,-660.07C214.77,-652.32 109.58,-635.69 80,-612 45.86,-584.65 38,-566.74 38,-523 38,-523 38,-523 38,-377 38,-241.68 124.28,-223.21 234,-144 258.48,-126.32 289.68,-113.49 315.7,-104.88"/>
<polygon fill="#1414ce" stroke="#1414ce" points="316.94,-108.16 325.4,-101.79 314.81,-101.49 316.94,-108.16"/>
</a>
</g>
</g>
<!-- 28&#45;&gt;5 -->
<g id="edge26" class="edge">
<title>28&#45;&gt;5</title>
<g id="a_edge26"><a xlink:title="include">
<path fill="none" stroke="#1414ce" d="M305.73,-647.97C294.65,-629.83 276.26,-600.42 259,-576 247.3,-559.45 237.58,-559.17 231,-540 214.68,-492.42 243.78,-436.6 264.92,-404.76"/>
<polygon fill="#1414ce" stroke="#1414ce" points="267.86,-406.67 270.63,-396.44 262.09,-402.7 267.86,-406.67"/>
</a>
</g>
</g>
<!-- 28&#45;&gt;4 -->
<g id="edge25" class="edge">
<title>28&#45;&gt;4</title>
<g id="a_edge25"><a xlink:title="include">
<path fill="none" stroke="#1414ce" d="M274.36,-661.4C207.38,-654.87 79.61,-639.19 44,-612 8.93,-585.22 0,-567.13 0,-523 0,-523 0,-523 0,-161 0,-97.07 53.67,-95.81 113,-72 203.91,-35.51 500.22,-23.49 615.51,-20.14"/>
<polygon fill="#1414ce" stroke="#1414ce" points="615.87,-23.63 625.76,-19.85 615.67,-16.63 615.87,-23.63"/>
</a>
</g>
</g>
<!-- 28&#45;&gt;2 -->
<g id="edge29" class="edge">
<title>28&#45;&gt;2</title>
<g id="a_edge29"><a xlink:title="include">
<path fill="none" stroke="#1414ce" d="M357.62,-654.6C407.28,-642.18 490.34,-621.42 544.14,-607.97"/>
<polygon fill="#1414ce" stroke="#1414ce" points="545.3,-611.28 554.16,-605.46 543.6,-604.49 545.3,-611.28"/>
</a>
</g>
</g>
<!-- 31 -->
<g id="node13" class="node">
<title>31</title>
<g id="a_node13"><a xlink:title="valueshashtable.h">
<polygon fill="#ffffff" stroke="black" points="250,-612 104,-612 104,-576 250,-576 250,-612"/>
<text text-anchor="middle" x="177" y="-590.3" font-family="Times,serif" font-size="14.00">valueshashtable.h</text>
</a>
</g>
</g>
<!-- 28&#45;&gt;31 -->
<g id="edge33" class="edge">
<title>28&#45;&gt;31</title>
<g id="a_edge33"><a xlink:title="include">
<path fill="none" stroke="#1414ce" d="M282,-647.88C263.4,-638.51 240.17,-626.81 220.29,-616.8"/>
<polygon fill="#1414ce" stroke="#1414ce" points="221.64,-613.56 211.13,-612.19 218.49,-619.81 221.64,-613.56"/>
</a>
</g>
</g>
<!-- 28&#45;&gt;21 -->
<g id="edge32" class="edge">
<title>28&#45;&gt;21</title>
<g id="a_edge32"><a xlink:title="include">
<path fill="none" stroke="#1414ce" d="M357.53,-661.65C434.79,-654.88 597.29,-637.98 647,-612 706.06,-581.14 699.22,-545.95 751,-504 764.76,-492.85 781.03,-482.18 795.63,-473.38"/>
<polygon fill="#1414ce" stroke="#1414ce" points="797.64,-476.25 804.47,-468.15 794.08,-470.23 797.64,-476.25"/>
</a>
</g>
</g>
<!-- 30 -->
<g id="node18" class="node">
<title>30</title>
<g id="a_node18"><a xlink:title="exportedfunction.h">
<polygon fill="#ffffff" stroke="black" points="912,-540 760,-540 760,-504 912,-504 912,-540"/>
<text text-anchor="middle" x="836" y="-518.3" font-family="Times,serif" font-size="14.00">exportedfunction.h</text>
</a>
</g>
</g>
<!-- 28&#45;&gt;30 -->
<g id="edge30" class="edge">
<title>28&#45;&gt;30</title>
<g id="a_edge30"><a xlink:title="include">
<path fill="none" stroke="#1414ce" d="M357.6,-663.28C451.69,-658.84 677.97,-644.96 746,-612 775.89,-597.51 801.87,-569.1 818.12,-548.26"/>
<polygon fill="#1414ce" stroke="#1414ce" points="821.03,-550.22 824.28,-540.13 815.45,-546 821.03,-550.22"/>
</a>
</g>
</g>
<!-- 7 -->
<g id="node20" class="node">
<title>7</title>
<g id="a_node20"><a xlink:title="atom_table.h">
<polygon fill="#ffffff" stroke="black" points="213.5,-468 104.5,-468 104.5,-432 213.5,-432 213.5,-468"/>
<text text-anchor="middle" x="159" y="-446.3" font-family="Times,serif" font-size="14.00">atom_table.h</text>
</a>
</g>
</g>
<!-- 28&#45;&gt;7 -->
<g id="edge27" class="edge">
<title>28&#45;&gt;7</title>
<g id="a_edge27"><a xlink:title="include">
<path fill="none" stroke="#1414ce" d="M274.46,-661.08C216.76,-654.68 116.93,-639.81 95,-612 62.07,-570.24 105.16,-509.35 134.97,-475.69"/>
<polygon fill="#1414ce" stroke="#1414ce" points="137.7,-477.89 141.84,-468.14 132.52,-473.18 137.7,-477.89"/>
</a>
</g>
</g>
<!-- 28&#45;&gt;3 -->
<g id="edge31" class="edge">
<title>28&#45;&gt;3</title>
<g id="a_edge31"><a xlink:title="include">
<path fill="none" stroke="#1414ce" d="M338.68,-647.87C372.27,-622.5 435.35,-574.85 473.13,-546.32"/>
<polygon fill="#1414ce" stroke="#1414ce" points="475.37,-549.01 481.24,-540.19 471.15,-543.42 475.37,-549.01"/>
</a>
</g>
</g>
<!-- 29 -->
<g id="node26" class="node">
<title>29</title>
<g id="a_node26"><a xlink:title="atomshashtable.h">
<polygon fill="#ffffff" stroke="black" points="383.5,-540 240.5,-540 240.5,-504 383.5,-504 383.5,-540"/>
<text text-anchor="middle" x="312" y="-518.3" font-family="Times,serif" font-size="14.00">atomshashtable.h</text>
</a>
</g>
</g>
<!-- 28&#45;&gt;29 -->
<g id="edge28" class="edge">
<title>28&#45;&gt;29</title>
<g id="a_edge28"><a xlink:title="include">
<path fill="none" stroke="#1414ce" d="M315.52,-647.87C314.84,-623.67 313.58,-579.21 312.77,-550.39"/>
<polygon fill="#1414ce" stroke="#1414ce" points="316.26,-550.09 312.48,-540.19 309.27,-550.28 316.26,-550.09"/>
</a>
</g>
</g>
<!-- 26&#45;&gt;20 -->
<g id="edge38" class="edge">
<title>26&#45;&gt;20</title>
<g id="a_edge38"><a xlink:title="include">
<path fill="none" stroke="#1414ce" d="M936.91,-300.94C865.2,-294.5 729.15,-279.96 604.76,-251.93"/>
<polygon fill="#1414ce" stroke="#1414ce" points="605.21,-248.44 594.68,-249.62 603.65,-255.26 605.21,-248.44"/>
</a>
</g>
</g>
<!-- 26&#45;&gt;14 -->
<g id="edge36" class="edge">
<title>26&#45;&gt;14</title>
<g id="a_edge36"><a xlink:title="include">
<path fill="none" stroke="#1414ce" d="M961.67,-287.87C923.99,-262.39 853.09,-214.45 810.95,-185.96"/>
<polygon fill="#1414ce" stroke="#1414ce" points="812.67,-182.89 802.42,-180.19 808.74,-188.69 812.67,-182.89"/>
</a>
</g>
</g>
<!-- 26&#45;&gt;6 -->
<g id="edge34" class="edge">
<title>26&#45;&gt;6</title>
<g id="a_edge34"><a xlink:title="include">
<path fill="none" stroke="#1414ce" d="M985.64,-287.85C982.7,-250.83 975.73,-163.18 972.18,-118.39"/>
<polygon fill="#1414ce" stroke="#1414ce" points="975.65,-117.92 971.37,-108.23 968.67,-118.48 975.65,-117.92"/>
</a>
</g>
</g>
<!-- 26&#45;&gt;24 -->
<g id="edge37" class="edge">
<title>26&#45;&gt;24</title>
<g id="a_edge37"><a xlink:title="include">
<path fill="none" stroke="#1414ce" d="M1037.06,-290.79C1071.27,-280.98 1117.84,-267.43 1167.31,-252.17"/>
<polygon fill="#1414ce" stroke="#1414ce" points="1168.38,-255.5 1176.9,-249.2 1166.31,-248.82 1168.38,-255.5"/>
</a>
</g>
</g>
<!-- 26&#45;&gt;9 -->
<g id="edge35" class="edge">
<title>26&#45;&gt;9</title>
<g id="a_edge35"><a xlink:title="include">
<path fill="none" stroke="#1414ce" d="M1037.19,-301.71C1109.38,-295.99 1237.6,-281.85 1272,-252 1289.75,-236.6 1297.02,-210.34 1299.99,-190.32"/>
<polygon fill="#1414ce" stroke="#1414ce" points="1303.48,-190.58 1301.21,-180.23 1296.53,-189.74 1303.48,-190.58"/>
</a>
</g>
</g>
<!-- 21&#45;&gt;8 -->
<g id="edge40" class="edge">
<title>21&#45;&gt;8</title>
<g id="a_edge40"><a xlink:title="include">
<path fill="none" stroke="#1414ce" d="M803.3,-447.02C755.54,-443 665.01,-431.02 597,-396 480.41,-335.97 457.98,-295.56 396,-180 385.47,-160.37 377.9,-136.24 373.14,-118.06"/>
<polygon fill="#1414ce" stroke="#1414ce" points="376.48,-116.98 370.66,-108.12 369.69,-118.67 376.48,-116.98"/>
</a>
</g>
</g>
<!-- 21&#45;&gt;25 -->
<g id="edge46" class="edge">
<title>21&#45;&gt;25</title>
<g id="a_edge46"><a xlink:title="include">
<path fill="none" stroke="#1414ce" d="M868.62,-433.46C888.98,-423.77 915.46,-411.16 937.82,-400.51"/>
<polygon fill="#1414ce" stroke="#1414ce" points="939.6,-403.55 947.12,-396.09 936.59,-397.23 939.6,-403.55"/>
</a>
</g>
</g>
<!-- 21&#45;&gt;16 -->
<g id="edge47" class="edge">
<title>21&#45;&gt;16</title>
<g id="a_edge47"><a xlink:title="include">
<path fill="none" stroke="#1414ce" d="M868.62,-446.81C928.67,-442.03 1052.93,-428.37 1079,-396 1109.11,-358.62 1088.41,-335.07 1079,-288 1075.6,-271 1067.4,-269 1064,-252 1059.93,-231.67 1060.13,-208.21 1061.24,-190.48"/>
<polygon fill="#1414ce" stroke="#1414ce" points="1064.75,-190.5 1062.01,-180.26 1057.77,-189.96 1064.75,-190.5"/>
</a>
</g>
</g>
<!-- 21&#45;&gt;4 -->
<g id="edge41" class="edge">
<title>21&#45;&gt;4</title>
<g id="a_edge41"><a xlink:title="include">
<path fill="none" stroke="#1414ce" d="M803.46,-444.79C774.48,-439.13 733.69,-426.03 714,-396 678.55,-341.95 772.34,-289.86 791,-252 812.66,-208.06 833.85,-188.33 813,-144 791.03,-97.3 742.1,-62.06 705.87,-41.1"/>
<polygon fill="#1414ce" stroke="#1414ce" points="707.38,-37.93 696.95,-36.08 703.94,-44.03 707.38,-37.93"/>
</a>
</g>
</g>
<!-- 21&#45;&gt;6 -->
<g id="edge43" class="edge">
<title>21&#45;&gt;6</title>
<g id="a_edge43"><a xlink:title="include">
<path fill="none" stroke="#1414ce" d="M868.93,-442.97C925.24,-432.34 1035.05,-410.05 1046,-396 1075.5,-358.13 1054.79,-335.19 1046,-288 1034.08,-223.99 1002.11,-153.96 983.66,-117.09"/>
<polygon fill="#1414ce" stroke="#1414ce" points="986.7,-115.36 979.06,-108.02 980.46,-118.52 986.7,-115.36"/>
</a>
</g>
</g>
<!-- 21&#45;&gt;24 -->
<g id="edge45" class="edge">
<title>21&#45;&gt;24</title>
<g id="a_edge45"><a xlink:title="include">
<path fill="none" stroke="#1414ce" d="M868.68,-446.09C933.75,-439.79 1076.73,-423.2 1117,-396 1165.89,-362.98 1196.55,-298.17 1210.72,-261.66"/>
<polygon fill="#1414ce" stroke="#1414ce" points="1214.05,-262.75 1214.28,-252.16 1207.49,-260.29 1214.05,-262.75"/>
</a>
</g>
</g>
<!-- 22 -->
<g id="node21" class="node">
<title>22</title>
<g id="a_node21"><a xlink:title="sys/types.h">
<polygon fill="#ffffff" stroke="black" points="819.5,-396 722.5,-396 722.5,-360 819.5,-360 819.5,-396"/>
<text text-anchor="middle" x="771" y="-374.3" font-family="Times,serif" font-size="14.00">sys/types.h</text>
</a>
</g>
</g>
<!-- 21&#45;&gt;22 -->
<g id="edge39" class="edge">
<title>21&#45;&gt;22</title>
<g id="a_edge39"><a xlink:title="include">
<path fill="none" stroke="#1414ce" d="M819.93,-431.7C812.06,-423.22 802.44,-412.86 793.83,-403.58"/>
<polygon fill="#1414ce" stroke="#1414ce" points="796.25,-401.05 786.88,-396.1 791.12,-405.81 796.25,-401.05"/>
</a>
</g>
</g>
<!-- 23 -->
<g id="node22" class="node">
<title>23</title>
<g id="a_node22"><a xlink:title="string.h">
<polygon fill="#ffffff" stroke="black" points="910.5,-396 837.5,-396 837.5,-360 910.5,-360 910.5,-396"/>
<text text-anchor="middle" x="874" y="-374.3" font-family="Times,serif" font-size="14.00">string.h</text>
</a>
</g>
</g>
<!-- 21&#45;&gt;23 -->
<g id="edge44" class="edge">
<title>21&#45;&gt;23</title>
<g id="a_edge44"><a xlink:title="include">
<path fill="none" stroke="#1414ce" d="M845.39,-431.7C849.76,-423.64 855.06,-413.89 859.9,-404.98"/>
<polygon fill="#1414ce" stroke="#1414ce" points="863.02,-406.56 864.71,-396.1 856.87,-403.22 863.02,-406.56"/>
</a>
</g>
</g>
<!-- 21&#45;&gt;10 -->
<g id="edge48" class="edge">
<title>21&#45;&gt;10</title>
<g id="a_edge48"><a xlink:title="include">
<path fill="none" stroke="#1414ce" d="M868.61,-449.73C927.81,-449.75 1055.46,-443.68 1149,-396 1265.29,-336.72 1307.84,-304.2 1348,-180 1352.92,-164.78 1356.13,-157.78 1348,-144 1340.14,-130.69 1327.61,-120.48 1314.16,-112.76"/>
<polygon fill="#1414ce" stroke="#1414ce" points="1315.7,-109.62 1305.22,-108.04 1312.43,-115.81 1315.7,-109.62"/>
</a>
</g>
</g>
<!-- 21&#45;&gt;18 -->
<g id="edge42" class="edge">
<title>21&#45;&gt;18</title>
<g id="a_edge42"><a xlink:title="include">
<path fill="none" stroke="#1414ce" d="M803.48,-442.4C731.14,-425.7 558.66,-374.05 500,-252 475.62,-201.28 527.85,-145.41 564.09,-114.63"/>
<polygon fill="#1414ce" stroke="#1414ce" points="566.52,-117.16 572,-108.09 562.06,-111.77 566.52,-117.16"/>
</a>
</g>
</g>
<!-- 9&#45;&gt;10 -->
<g id="edge49" class="edge">
<title>9&#45;&gt;10</title>
<g id="a_edge49"><a xlink:title="include">
<path fill="none" stroke="#1414ce" d="M1289.64,-143.7C1283.77,-135.47 1276.63,-125.48 1270.16,-116.42"/>
<polygon fill="#1414ce" stroke="#1414ce" points="1272.88,-114.21 1264.22,-108.1 1267.18,-118.28 1272.88,-114.21"/>
</a>
</g>
</g>
<!-- 30&#45;&gt;21 -->
<g id="edge50" class="edge">
<title>30&#45;&gt;21</title>
<g id="a_edge50"><a xlink:title="include">
<path fill="none" stroke="#1414ce" d="M836,-503.7C836,-495.98 836,-486.71 836,-478.11"/>
<polygon fill="#1414ce" stroke="#1414ce" points="839.5,-478.1 836,-468.1 832.5,-478.1 839.5,-478.1"/>
</a>
</g>
</g>
<!-- 12 -->
<g id="node19" class="node">
<title>12</title>
<g id="a_node19"><a xlink:title="limits.h">
<polygon fill="#ffffff" stroke="black" points="1189.5,-36 1118.5,-36 1118.5,0 1189.5,0 1189.5,-36"/>
<text text-anchor="middle" x="1154" y="-14.3" font-family="Times,serif" font-size="14.00">limits.h</text>
</a>
</g>
</g>
<!-- 7&#45;&gt;8 -->
<g id="edge51" class="edge">
<title>7&#45;&gt;8</title>
<g id="a_edge51"><a xlink:title="include">
<path fill="none" stroke="#1414ce" d="M172.57,-431.76C191.36,-406.1 223,-355.67 223,-307 223,-307 223,-307 223,-233 223,-188.27 238.59,-175.85 270,-144 282.95,-130.86 299.85,-120.12 315.91,-111.82"/>
<polygon fill="#1414ce" stroke="#1414ce" points="317.82,-114.79 325.24,-107.22 314.72,-108.51 317.82,-114.79"/>
</a>
</g>
</g>
<!-- 7&#45;&gt;5 -->
<g id="edge52" class="edge">
<title>7&#45;&gt;5</title>
<g id="a_edge52"><a xlink:title="include">
<path fill="none" stroke="#1414ce" d="M189.58,-431.88C206.07,-422.64 226.62,-411.13 244.34,-401.21"/>
<polygon fill="#1414ce" stroke="#1414ce" points="246.29,-404.13 253.3,-396.19 242.87,-398.02 246.29,-404.13"/>
</a>
</g>
</g>
<!-- 10&#45;&gt;11 -->
<g id="edge53" class="edge">
<title>10&#45;&gt;11</title>
<g id="a_edge53"><a xlink:title="include">
<path fill="none" stroke="#1414ce" d="M1276.46,-71.88C1289.3,-62.89 1305.2,-51.76 1319.09,-42.03"/>
<polygon fill="#1414ce" stroke="#1414ce" points="1321.26,-44.79 1327.44,-36.19 1317.24,-39.06 1321.26,-44.79"/>
</a>
</g>
</g>
<!-- 10&#45;&gt;4 -->
<g id="edge56" class="edge">
<title>10&#45;&gt;4</title>
<g id="a_edge56"><a xlink:title="include">
<path fill="none" stroke="#1414ce" d="M1189.5,-74.57C1184.61,-73.64 1179.73,-72.76 1175,-72 1004.1,-44.4 798.73,-28.26 708.43,-22.01"/>
<polygon fill="#1414ce" stroke="#1414ce" points="708.48,-18.5 698.26,-21.31 708,-25.49 708.48,-18.5"/>
</a>
</g>
</g>
<!-- 10&#45;&gt;12 -->
<g id="edge54" class="edge">
<title>10&#45;&gt;12</title>
<g id="a_edge54"><a xlink:title="include">
<path fill="none" stroke="#1414ce" d="M1228.03,-71.88C1215.45,-62.89 1199.87,-51.76 1186.25,-42.03"/>
<polygon fill="#1414ce" stroke="#1414ce" points="1188.24,-39.15 1178.07,-36.19 1184.17,-44.85 1188.24,-39.15"/>
</a>
</g>
</g>
<!-- 13 -->
<g id="node31" class="node">
<title>13</title>
<g id="a_node31"><a xlink:title="inttypes.h">
<polygon fill="#ffffff" stroke="black" points="1296.5,-36 1207.5,-36 1207.5,0 1296.5,0 1296.5,-36"/>
<text text-anchor="middle" x="1252" y="-14.3" font-family="Times,serif" font-size="14.00">inttypes.h</text>
</a>
</g>
</g>
<!-- 10&#45;&gt;13 -->
<g id="edge55" class="edge">
<title>10&#45;&gt;13</title>
<g id="a_edge55"><a xlink:title="include">
<path fill="none" stroke="#1414ce" d="M1252,-71.7C1252,-63.98 1252,-54.71 1252,-46.11"/>
<polygon fill="#1414ce" stroke="#1414ce" points="1255.5,-46.1 1252,-36.1 1248.5,-46.1 1255.5,-46.1"/>
</a>
</g>
</g>
<!-- 3&#45;&gt;5 -->
<g id="edge58" class="edge">
<title>3&#45;&gt;5</title>
<g id="a_edge58"><a xlink:title="include">
<path fill="none" stroke="#1414ce" d="M453.44,-503.93C430.14,-494.95 402.68,-482.72 380,-468 352.02,-449.84 324.57,-423.25 306.23,-403.86"/>
<polygon fill="#1414ce" stroke="#1414ce" points="308.57,-401.24 299.2,-396.3 303.45,-406 308.57,-401.24"/>
</a>
</g>
</g>
<!-- 3&#45;&gt;20 -->
<g id="edge64" class="edge">
<title>3&#45;&gt;20</title>
<g id="a_edge64"><a xlink:title="include">
<path fill="none" stroke="#1414ce" d="M497.72,-503.9C484.12,-463.93 455.83,-362.16 490,-288 495.32,-276.44 504.55,-266.47 514.28,-258.4"/>
<polygon fill="#1414ce" stroke="#1414ce" points="516.71,-260.94 522.5,-252.06 512.44,-255.39 516.71,-260.94"/>
</a>
</g>
</g>
<!-- 3&#45;&gt;14 -->
<g id="edge61" class="edge">
<title>3&#45;&gt;14</title>
<g id="a_edge61"><a xlink:title="include">
<path fill="none" stroke="#1414ce" d="M510.07,-503.71C525.67,-461.53 570.98,-352.1 642,-288 670.34,-262.42 691.21,-277.08 720,-252 739.88,-234.68 755.4,-208.75 765.2,-189.35"/>
<polygon fill="#1414ce" stroke="#1414ce" points="768.45,-190.67 769.66,-180.14 762.15,-187.61 768.45,-190.67"/>
</a>
</g>
</g>
<!-- 3&#45;&gt;4 -->
<g id="edge57" class="edge">
<title>3&#45;&gt;4</title>
<g id="a_edge57"><a xlink:title="include">
<path fill="none" stroke="#1414ce" d="M440.38,-511C424.58,-508.62 407.69,-506.14 392,-504 326.13,-495.01 144.07,-512.86 95,-468 65.15,-440.71 76,-419.45 76,-379 76,-379 76,-379 76,-161 76,-50.18 476.87,-25.54 615.5,-20.33"/>
<polygon fill="#1414ce" stroke="#1414ce" points="615.92,-23.82 625.79,-19.96 615.67,-16.82 615.92,-23.82"/>
</a>
</g>
</g>
<!-- 3&#45;&gt;21 -->
<g id="edge65" class="edge">
<title>3&#45;&gt;21</title>
<g id="a_edge65"><a xlink:title="include">
<path fill="none" stroke="#1414ce" d="M567.62,-507.59C634.05,-493.58 736.37,-472.01 793.57,-459.95"/>
<polygon fill="#1414ce" stroke="#1414ce" points="794.3,-463.37 803.37,-457.88 792.86,-456.52 794.3,-463.37"/>
</a>
</g>
</g>
<!-- 3&#45;&gt;9 -->
<g id="edge60" class="edge">
<title>3&#45;&gt;9</title>
<g id="a_edge60"><a xlink:title="include">
<path fill="none" stroke="#1414ce" d="M567.71,-516.76C761.22,-503.03 1329,-456.16 1329,-379 1329,-379 1329,-379 1329,-305 1329,-264.5 1318.27,-218.63 1310.34,-190.26"/>
<polygon fill="#1414ce" stroke="#1414ce" points="1313.6,-188.93 1307.46,-180.29 1306.87,-190.87 1313.6,-188.93"/>
</a>
</g>
</g>
<!-- 3&#45;&gt;7 -->
<g id="edge59" class="edge">
<title>3&#45;&gt;7</title>
<g id="a_edge59"><a xlink:title="include">
<path fill="none" stroke="#1414ce" d="M440.32,-508.08C378.63,-495.56 285.55,-476.68 223.56,-464.1"/>
<polygon fill="#1414ce" stroke="#1414ce" points="224,-460.62 213.51,-462.06 222.61,-467.48 224,-460.62"/>
</a>
</g>
</g>
<!-- 3&#45;&gt;19 -->
<g id="edge63" class="edge">
<title>3&#45;&gt;19</title>
<g id="a_edge63"><a xlink:title="include">
<path fill="none" stroke="#1414ce" d="M493.97,-503.86C469.27,-461.52 403.84,-348.4 353,-252 342.01,-231.16 330.21,-207.2 321.6,-189.4"/>
<polygon fill="#1414ce" stroke="#1414ce" points="324.66,-187.69 317.17,-180.2 318.36,-190.72 324.66,-187.69"/>
</a>
</g>
</g>
<!-- 3&#45;&gt;27 -->
<g id="edge66" class="edge">
<title>3&#45;&gt;27</title>
<g id="a_edge66"><a xlink:title="include">
<path fill="none" stroke="#1414ce" d="M504.15,-503.78C505.35,-462.24 513.69,-354.96 566,-288 576.19,-274.96 590.54,-264.66 605.03,-256.75"/>
<polygon fill="#1414ce" stroke="#1414ce" points="606.75,-259.8 614.05,-252.12 603.55,-253.57 606.75,-259.8"/>
</a>
</g>
</g>
<!-- 3&#45;&gt;15 -->
<g id="edge62" class="edge">
<title>3&#45;&gt;15</title>
<g id="a_edge62"><a xlink:title="include">
<path fill="none" stroke="#1414ce" d="M567.56,-517.49C707.21,-508.31 1033.68,-478.33 1100,-396 1130.66,-357.94 1127.03,-297.24 1121.56,-262.26"/>
<polygon fill="#1414ce" stroke="#1414ce" points="1124.99,-261.54 1119.84,-252.28 1118.09,-262.73 1124.99,-261.54"/>
</a>
</g>
</g>
<!-- 19&#45;&gt;8 -->
<g id="edge67" class="edge">
<title>19&#45;&gt;8</title>
<g id="a_edge67"><a xlink:title="include">
<path fill="none" stroke="#1414ce" d="M323.34,-143.7C330.29,-135.3 338.77,-125.07 346.4,-115.86"/>
<polygon fill="#1414ce" stroke="#1414ce" points="349.14,-118.04 352.83,-108.1 343.75,-113.57 349.14,-118.04"/>
</a>
</g>
</g>
<!-- 29&#45;&gt;5 -->
<g id="edge68" class="edge">
<title>29&#45;&gt;5</title>
<g id="a_edge68"><a xlink:title="include">
<path fill="none" stroke="#1414ce" d="M308.62,-503.87C303.83,-479.56 295.01,-434.82 289.33,-406.01"/>
<polygon fill="#1414ce" stroke="#1414ce" points="292.76,-405.32 287.39,-396.19 285.89,-406.68 292.76,-405.32"/>
</a>
</g>
</g>
<!-- 1 -->
<g id="node27" class="node">
<title>1</title>
<g id="a_node27"><a xlink:title="/__w/AtomVM/AtomVM/src/libAtomVM/stacktrace.h">
<polygon fill="#bfbfbf" stroke="black" points="786.5,-756 405.5,-756 405.5,-720 786.5,-720 786.5,-756"/>
<text text-anchor="middle" x="596" y="-734.3" font-family="Times,serif" font-size="14.00">/__w/AtomVM/AtomVM/src/libAtomVM/stacktrace.h</text>
</a>
</g>
</g>
<!-- 1&#45;&gt;2 -->
<g id="edge69" class="edge">
<title>1&#45;&gt;2</title>
<g id="a_edge69"><a xlink:title="include">
<path fill="none" stroke="#1414ce" d="M596,-719.87C596,-695.67 596,-651.21 596,-622.39"/>
<polygon fill="#1414ce" stroke="#1414ce" points="599.5,-622.19 596,-612.19 592.5,-622.19 599.5,-622.19"/>
</a>
</g>
</g>
<!-- 1&#45;&gt;28 -->
<g id="edge70" class="edge">
<title>1&#45;&gt;28</title>
<g id="a_edge70"><a xlink:title="include">
<path fill="none" stroke="#1414ce" d="M527.86,-719.97C478.5,-707.63 412.79,-691.2 367.71,-679.93"/>
<polygon fill="#1414ce" stroke="#1414ce" points="368.4,-676.49 357.85,-677.46 366.7,-683.28 368.4,-676.49"/>
</a>
</g>
</g>
<!-- 1&#45;&gt;21 -->
<g id="edge71" class="edge">
<title>1&#45;&gt;21</title>
<g id="a_edge71"><a xlink:title="include">
<path fill="none" stroke="#1414ce" d="M657.67,-719.99C735.14,-694.93 864.74,-639.89 921,-540 928.85,-526.06 928.76,-517.99 921,-504 911.6,-487.06 894.29,-474.83 877.73,-466.42"/>
<polygon fill="#1414ce" stroke="#1414ce" points="879.2,-463.24 868.67,-462.13 876.21,-469.57 879.2,-463.24"/>
</a>
</g>
</g>
<!-- 27&#45;&gt;8 -->
<g id="edge72" class="edge">
<title>27&#45;&gt;8</title>
<g id="a_edge72"><a xlink:title="include">
<path fill="none" stroke="#1414ce" d="M626.42,-215.87C572.6,-189.96 470.55,-140.84 411.76,-112.55"/>
<polygon fill="#1414ce" stroke="#1414ce" points="413.24,-109.37 402.71,-108.19 410.2,-115.68 413.24,-109.37"/>
</a>
</g>
</g>
<!-- 27&#45;&gt;14 -->
<g id="edge74" class="edge">
<title>27&#45;&gt;14</title>
<g id="a_edge74"><a xlink:title="include">
<path fill="none" stroke="#1414ce" d="M690.13,-215.88C705.51,-206.52 724.71,-194.83 741.14,-184.83"/>
<polygon fill="#1414ce" stroke="#1414ce" points="743.23,-187.65 749.95,-179.47 739.59,-181.67 743.23,-187.65"/>
</a>
</g>
</g>
<!-- 27&#45;&gt;4 -->
<g id="edge73" class="edge">
<title>27&#45;&gt;4</title>
<g id="a_edge73"><a xlink:title="include">
<path fill="none" stroke="#1414ce" d="M662,-215.85C662,-178.83 662,-91.18 662,-46.39"/>
<polygon fill="#1414ce" stroke="#1414ce" points="665.5,-46.23 662,-36.23 658.5,-46.23 665.5,-46.23"/>
</a>
</g>
</g>
<!-- 15&#45;&gt;8 -->
<g id="edge75" class="edge">
<title>15&#45;&gt;8</title>
<g id="a_edge75"><a xlink:title="include">
<path fill="none" stroke="#1414ce" d="M1072.92,-217.86C1014.69,-197.97 907.26,-163.3 813,-144 738.67,-128.78 519.6,-106.07 418.81,-96.06"/>
<polygon fill="#1414ce" stroke="#1414ce" points="418.87,-92.54 408.57,-95.04 418.18,-99.51 418.87,-92.54"/>
</a>
</g>
</g>
<!-- 15&#45;&gt;16 -->
<g id="edge78" class="edge">
<title>15&#45;&gt;16</title>
<g id="a_edge78"><a xlink:title="include">
<path fill="none" stroke="#1414ce" d="M1103.15,-215.7C1096.97,-207.39 1089.46,-197.28 1082.68,-188.14"/>
<polygon fill="#1414ce" stroke="#1414ce" points="1085.48,-186.04 1076.71,-180.1 1079.86,-190.22 1085.48,-186.04"/>
</a>
</g>
</g>
<!-- 15&#45;&gt;14 -->
<g id="edge76" class="edge">
<title>15&#45;&gt;14</title>
<g id="a_edge76"><a xlink:title="include">
<path fill="none" stroke="#1414ce" d="M1072.82,-226.87C1016.32,-218.42 914.44,-201.75 829,-180 824.01,-178.73 818.8,-177.23 813.68,-175.67"/>
<polygon fill="#1414ce" stroke="#1414ce" points="814.65,-172.3 804.06,-172.6 812.52,-178.97 814.65,-172.3"/>
</a>
</g>
</g>
<!-- 15&#45;&gt;10 -->
<g id="edge77" class="edge">
<title>15&#45;&gt;10</title>
<g id="a_edge77"><a xlink:title="include">
<path fill="none" stroke="#1414ce" d="M1132.4,-215.87C1156.3,-190.92 1200.81,-144.45 1228.27,-115.77"/>
<polygon fill="#1414ce" stroke="#1414ce" points="1231.15,-117.83 1235.54,-108.19 1226.09,-112.99 1231.15,-117.83"/>
</a>
</g>
</g>
</g>
</svg>
