<?xml version="1.0" encoding="UTF-8" standalone="no"?>
<!DOCTYPE svg PUBLIC "-//W3C//DTD SVG 1.1//EN"
 "http://www.w3.org/Graphics/SVG/1.1/DTD/svg11.dtd">
<!-- Generated by graphviz version 2.43.0 (0)
 -->
<!-- Title: %3 Pages: 1 -->
<svg width="1134pt" height="116pt"
 viewBox="0.00 0.00 1133.50 116.00" xmlns="http://www.w3.org/2000/svg" xmlns:xlink="http://www.w3.org/1999/xlink">
<g id="graph0" class="graph" transform="scale(1 1) rotate(0) translate(4 112)">
<title>%3</title>
<polygon fill="transparent" stroke="transparent" points="-4,4 -4,-112 1129.5,-112 1129.5,4 -4,4"/>
<!-- 4 -->
<g id="node1" class="node">
<title>4</title>
<g id="a_node1"><a xlink:title="/__w/AtomVM/AtomVM/src/libAtomVM/nifs.c">
<polygon fill="#ffffff" stroke="black" points="332,-36 0,-36 0,0 332,0 332,-36"/>
<text text-anchor="middle" x="166" y="-14.3" font-family="Times,serif" font-size="14.00">/__w/AtomVM/AtomVM/src/libAtomVM/nifs.c</text>
</a>
</g>
</g>
<!-- 3 -->
<g id="node2" class="node">
<title>3</title>
<g id="a_node2"><a xlink:title="/__w/AtomVM/AtomVM/src/libAtomVM/module.c">
<polygon fill="#ffffff" stroke="black" points="708,-36 350,-36 350,0 708,0 708,-36"/>
<text text-anchor="middle" x="529" y="-14.3" font-family="Times,serif" font-size="14.00">/__w/AtomVM/AtomVM/src/libAtomVM/module.c</text>
</a>
</g>
</g>
<!-- 2 -->
<g id="node3" class="node">
<title>2</title>
<g id="a_node3"><a xlink:title="/__w/AtomVM/AtomVM/src/libAtomVM/externalterm.c">
<polygon fill="#ffffff" stroke="black" points="1125.5,-36 726.5,-36 726.5,0 1125.5,0 1125.5,-36"/>
<text text-anchor="middle" x="926" y="-14.3" font-family="Times,serif" font-size="14.00">/__w/AtomVM/AtomVM/src/libAtomVM/externalterm.c</text>
</a>
</g>
</g>
<!-- 1 -->
<g id="node4" class="node">
<title>1</title>
<g id="a_node4"><a xlink:title="/__w/AtomVM/AtomVM/src/libAtomVM/externalterm.h">
<polygon fill="#bfbfbf" stroke="black" points="729.5,-108 328.5,-108 328.5,-72 729.5,-72 729.5,-108"/>
<text text-anchor="middle" x="529" y="-86.3" font-family="Times,serif" font-size="14.00">/__w/AtomVM/AtomVM/src/libAtomVM/externalterm.h</text>
</a>
</g>
</g>
<!-- 1&#45;&gt;4 -->
<g id="edge3" class="edge">
<title>1&#45;&gt;4</title>
<g id="a_edge3"><a xlink:title="include">
<path fill="none" stroke="#1414ce" d="M430.56,-70.02C375.6,-59.42 307.68,-46.32 254.42,-36.05"/>
<polygon fill="#1414ce" stroke="#1414ce" points="430.18,-73.51 440.66,-71.97 431.51,-66.64 430.18,-73.51"/>
</a>
</g>
</g>
<!-- 1&#45;&gt;3 -->
<g id="edge2" class="edge">
<title>1&#45;&gt;3</title>
<g id="a_edge2"><a xlink:title="include">
<path fill="none" stroke="#1414ce" d="M529,-61.67C529,-53.05 529,-43.79 529,-36.1"/>
<polygon fill="#1414ce" stroke="#1414ce" points="525.5,-61.7 529,-71.7 532.5,-61.7 525.5,-61.7"/>
</a>
</g>
</g>
<!-- 1&#45;&gt;2 -->
<g id="edge1" class="edge">
<title>1&#45;&gt;2</title>
<g id="a_edge1"><a xlink:title="include">
<path fill="none" stroke="#1414ce" d="M635.54,-70.21C695.85,-59.58 770.69,-46.38 829.3,-36.05"/>
<polygon fill="#1414ce" stroke="#1414ce" points="634.85,-66.78 625.61,-71.97 636.07,-73.68 634.85,-66.78"/>
</a>
</g>
</g>
</g>
</svg>
