<?xml version="1.0" encoding="UTF-8" standalone="no"?>
<!DOCTYPE svg PUBLIC "-//W3C//DTD SVG 1.1//EN"
 "http://www.w3.org/Graphics/SVG/1.1/DTD/svg11.dtd">
<!-- Generated by graphviz version 2.43.0 (0)
 -->
<!-- Title: %3 Pages: 1 -->
<svg width="1540pt" height="116pt"
 viewBox="0.00 0.00 1539.50 116.00" xmlns="http://www.w3.org/2000/svg" xmlns:xlink="http://www.w3.org/1999/xlink">
<g id="graph0" class="graph" transform="scale(1 1) rotate(0) translate(4 112)">
<title>%3</title>
<polygon fill="transparent" stroke="transparent" points="-4,4 -4,-112 1535.5,-112 1535.5,4 -4,4"/>
<!-- 2 -->
<g id="node1" class="node">
<title>2</title>
<g id="a_node1"><a xlink:title="/__w/AtomVM/AtomVM/src/libAtomVM/globalcontext.c">
<polygon fill="#ffffff" stroke="black" points="402,-36 0,-36 0,0 402,0 402,-36"/>
<text text-anchor="middle" x="201" y="-14.3" font-family="Times,serif" font-size="14.00">/__w/AtomVM/AtomVM/src/libAtomVM/globalcontext.c</text>
</a>
</g>
</g>
<!-- 3 -->
<g id="node2" class="node">
<title>3</title>
<g id="a_node2"><a xlink:title="/__w/AtomVM/AtomVM/src/libAtomVM/mailbox.c">
<polygon fill="#ffffff" stroke="black" points="782,-36 420,-36 420,0 782,0 782,-36"/>
<text text-anchor="middle" x="601" y="-14.3" font-family="Times,serif" font-size="14.00">/__w/AtomVM/AtomVM/src/libAtomVM/mailbox.c</text>
</a>
</g>
</g>
<!-- 4 -->
<g id="node3" class="node">
<title>4</title>
<g id="a_node3"><a xlink:title="/__w/AtomVM/AtomVM/src/libAtomVM/nifs.c">
<polygon fill="#ffffff" stroke="black" points="1132,-36 800,-36 800,0 1132,0 1132,-36"/>
<text text-anchor="middle" x="966" y="-14.3" font-family="Times,serif" font-size="14.00">/__w/AtomVM/AtomVM/src/libAtomVM/nifs.c</text>
</a>
</g>
</g>
<!-- 5 -->
<g id="node4" class="node">
<title>5</title>
<g id="a_node4"><a xlink:title="/__w/AtomVM/AtomVM/src/libAtomVM/otp_socket.c">
<polygon fill="#ffffff" stroke="black" points="1531.5,-36 1150.5,-36 1150.5,0 1531.5,0 1531.5,-36"/>
<text text-anchor="middle" x="1341" y="-14.3" font-family="Times,serif" font-size="14.00">/__w/AtomVM/AtomVM/src/libAtomVM/otp_socket.c</text>
</a>
</g>
</g>
<!-- 1 -->
<g id="node5" class="node">
<title>1</title>
<g id="a_node5"><a xlink:title="/__w/AtomVM/AtomVM/src/libAtomVM/scheduler.h">
<polygon fill="#bfbfbf" stroke="black" points="970.5,-108 595.5,-108 595.5,-72 970.5,-72 970.5,-108"/>
<text text-anchor="middle" x="783" y="-86.3" font-family="Times,serif" font-size="14.00">/__w/AtomVM/AtomVM/src/libAtomVM/scheduler.h</text>
</a>
</g>
</g>
<!-- 1&#45;&gt;2 -->
<g id="edge1" class="edge">
<title>1&#45;&gt;2</title>
<g id="a_edge1"><a xlink:title="include">
<path fill="none" stroke="#1414ce" d="M631.43,-70.77C542.16,-60.03 429.97,-46.54 342.51,-36.02"/>
<polygon fill="#1414ce" stroke="#1414ce" points="631.02,-74.25 641.37,-71.97 631.86,-67.3 631.02,-74.25"/>
</a>
</g>
</g>
<!-- 1&#45;&gt;3 -->
<g id="edge2" class="edge">
<title>1&#45;&gt;3</title>
<g id="a_edge2"><a xlink:title="include">
<path fill="none" stroke="#1414ce" d="M728.92,-68.2C702.28,-57.95 670.56,-45.76 645.38,-36.07"/>
<polygon fill="#1414ce" stroke="#1414ce" points="727.89,-71.55 738.48,-71.88 730.4,-65.02 727.89,-71.55"/>
</a>
</g>
</g>
<!-- 1&#45;&gt;4 -->
<g id="edge3" class="edge">
<title>1&#45;&gt;4</title>
<g id="a_edge3"><a xlink:title="include">
<path fill="none" stroke="#1414ce" d="M837.38,-68.2C864.16,-57.95 896.05,-45.76 921.38,-36.07"/>
<polygon fill="#1414ce" stroke="#1414ce" points="835.86,-65.03 827.77,-71.88 838.36,-71.57 835.86,-65.03"/>
</a>
</g>
</g>
<!-- 1&#45;&gt;5 -->
<g id="edge4" class="edge">
<title>1&#45;&gt;5</title>
<g id="a_edge4"><a xlink:title="include">
<path fill="none" stroke="#1414ce" d="M928.83,-70.71C1014.25,-59.99 1121.43,-46.54 1205.09,-36.05"/>
<polygon fill="#1414ce" stroke="#1414ce" points="928.28,-67.25 918.79,-71.97 929.15,-74.19 928.28,-67.25"/>
</a>
</g>
</g>
</g>
</svg>
