<?xml version="1.0" encoding="UTF-8" standalone="no"?>
<!DOCTYPE svg PUBLIC "-//W3C//DTD SVG 1.1//EN"
 "http://www.w3.org/Graphics/SVG/1.1/DTD/svg11.dtd">
<!-- Generated by graphviz version 2.43.0 (0)
 -->
<!-- Title: %3 Pages: 1 -->
<svg width="1266pt" height="404pt"
 viewBox="0.00 0.00 1265.75 404.00" xmlns="http://www.w3.org/2000/svg" xmlns:xlink="http://www.w3.org/1999/xlink">
<g id="graph0" class="graph" transform="scale(1 1) rotate(0) translate(4 400)">
<title>%3</title>
<polygon fill="transparent" stroke="transparent" points="-4,4 -4,-400 1261.75,-400 1261.75,4 -4,4"/>
<!-- 11 -->
<g id="node1" class="node">
<title>11</title>
<g id="a_node1"><a xlink:title="AtomTable">
<polygon fill="#ffffff" stroke="black" points="1147.75,-324 1055.75,-324 1055.75,-288 1147.75,-288 1147.75,-324"/>
<text text-anchor="middle" x="1101.75" y="-302.3" font-family="Times,serif" font-size="14.00">AtomTable</text>
</a>
</g>
</g>
<!-- 12 -->
<g id="node5" class="node">
<title>12</title>
<g id="a_node5"><a xlink:title="HNode">
<polygon fill="#ffffff" stroke="black" points="1134.75,-180 1068.75,-180 1068.75,-144 1134.75,-144 1134.75,-180"/>
<text text-anchor="middle" x="1101.75" y="-158.3" font-family="Times,serif" font-size="14.00">HNode</text>
</a>
</g>
</g>
<!-- 11&#45;&gt;12 -->
<g id="edge1" class="edge">
<title>11&#45;&gt;12</title>
<g id="a_edge1"><a xlink:title="usage">
<path fill="none" stroke="#1414ce" d="M1101.75,-287.87C1101.75,-263.67 1101.75,-219.21 1101.75,-190.39"/>
<polygon fill="#1414ce" stroke="#1414ce" points="1105.25,-190.19 1101.75,-180.19 1098.25,-190.19 1105.25,-190.19"/>
</a>
</g>
</g>
<!-- 13 -->
<g id="node6" class="node">
<title>13</title>
<g id="a_node6"><a xlink:title="HNodeGroup">
<polygon fill="#ffffff" stroke="black" points="1239.75,-252 1129.75,-252 1129.75,-216 1239.75,-216 1239.75,-252"/>
<text text-anchor="middle" x="1184.75" y="-230.3" font-family="Times,serif" font-size="14.00">HNodeGroup</text>
</a>
</g>
</g>
<!-- 11&#45;&gt;13 -->
<g id="edge2" class="edge">
<title>11&#45;&gt;13</title>
<g id="a_edge2"><a xlink:title="usage">
<path fill="none" stroke="#1414ce" d="M1122.26,-287.7C1132.62,-278.97 1145.33,-268.24 1156.58,-258.75"/>
<polygon fill="#1414ce" stroke="#1414ce" points="1159.08,-261.23 1164.46,-252.1 1154.56,-255.88 1159.08,-261.23"/>
</a>
</g>
</g>
<!-- 14 -->
<g id="node2" class="node">
<title>14</title>
<g id="a_node2"><a xlink:title="AtomsHashTable">
<polygon fill="#ffffff" stroke="black" points="614.25,-252 477.25,-252 477.25,-216 614.25,-216 614.25,-252"/>
<text text-anchor="middle" x="545.75" y="-230.3" font-family="Times,serif" font-size="14.00">AtomsHashTable</text>
</a>
</g>
</g>
<!-- 14&#45;&gt;12 -->
<g id="edge3" class="edge">
<title>14&#45;&gt;12</title>
<g id="a_edge3"><a xlink:title="usage">
<path fill="none" stroke="#1414ce" d="M614.52,-217.43C617.3,-216.93 620.04,-216.45 622.75,-216 782.26,-189.64 973.88,-172.88 1058.25,-166.24"/>
<polygon fill="#1414ce" stroke="#1414ce" points="1058.78,-169.71 1068.48,-165.45 1058.24,-162.73 1058.78,-169.71"/>
</a>
</g>
</g>
<!-- 16 -->
<g id="node3" class="node">
<title>16</title>
<g id="a_node3"><a xlink:title="ExportedFunction">
<polygon fill="#ffffff" stroke="black" points="951.75,-252 805.75,-252 805.75,-216 951.75,-216 951.75,-252"/>
<text text-anchor="middle" x="878.75" y="-230.3" font-family="Times,serif" font-size="14.00">ExportedFunction</text>
</a>
</g>
</g>
<!-- 5 -->
<g id="node4" class="node">
<title>5</title>
<g id="a_node4"><a xlink:title="GlobalContext">
<polygon fill="#ffffff" stroke="black" points="556.25,-396 437.25,-396 437.25,-360 556.25,-360 556.25,-396"/>
<text text-anchor="middle" x="496.75" y="-374.3" font-family="Times,serif" font-size="14.00">GlobalContext</text>
</a>
</g>
</g>
<!-- 5&#45;&gt;11 -->
<g id="edge9" class="edge">
<title>5&#45;&gt;11</title>
<g id="a_edge9"><a xlink:title="usage">
<path fill="none" stroke="#1414ce" d="M556.54,-371.46C649.55,-362.65 834.43,-344.34 990.75,-324 1008.6,-321.68 1028.03,-318.82 1045.56,-316.11"/>
<polygon fill="#1414ce" stroke="#1414ce" points="1046.3,-319.54 1055.64,-314.54 1045.22,-312.62 1046.3,-319.54"/>
</a>
</g>
</g>
<!-- 5&#45;&gt;14 -->
<g id="edge10" class="edge">
<title>5&#45;&gt;14</title>
<g id="a_edge10"><a xlink:title="usage">
<path fill="none" stroke="#1414ce" d="M502.66,-359.87C511.04,-335.56 526.48,-290.82 536.42,-262.01"/>
<polygon fill="#1414ce" stroke="#1414ce" points="539.86,-262.78 539.81,-252.19 533.24,-260.5 539.86,-262.78"/>
</a>
</g>
</g>
<!-- 2 -->
<g id="node7" class="node">
<title>2</title>
<g id="a_node7"><a xlink:title="ListHead">
<polygon fill="#ffffff" stroke="black" points="296.25,-36 215.25,-36 215.25,0 296.25,0 296.25,-36"/>
<text text-anchor="middle" x="255.75" y="-14.3" font-family="Times,serif" font-size="14.00">ListHead</text>
</a>
</g>
</g>
<!-- 5&#45;&gt;2 -->
<g id="edge4" class="edge">
<title>5&#45;&gt;2</title>
<g id="a_edge4"><a xlink:title="usage">
<path fill="none" stroke="#1414ce" d="M437.05,-374.2C316.32,-367.99 52,-351.39 21.75,-324 -8.24,-296.85 2.75,-275.45 2.75,-235 2.75,-235 2.75,-235 2.75,-161 2.75,-69.12 131.21,-36.08 205.06,-24.68"/>
<polygon fill="#1414ce" stroke="#1414ce" points="205.71,-28.12 215.1,-23.21 204.7,-21.19 205.71,-28.12"/>
</a>
</g>
</g>
<!-- 7 -->
<g id="node10" class="node">
<title>7</title>
<g id="a_node10"><a xlink:title="MessageQueueItem">
<polygon fill="#ffffff" stroke="black" points="743.75,-324 585.75,-324 585.75,-288 743.75,-288 743.75,-324"/>
<text text-anchor="middle" x="664.75" y="-302.3" font-family="Times,serif" font-size="14.00">MessageQueueItem</text>
</a>
</g>
</g>
<!-- 5&#45;&gt;7 -->
<g id="edge6" class="edge">
<title>5&#45;&gt;7</title>
<g id="a_edge6"><a xlink:title="usage">
<path fill="none" stroke="#1414ce" d="M537.84,-359.88C560.91,-350.26 589.88,-338.19 614.32,-328.01"/>
<polygon fill="#1414ce" stroke="#1414ce" points="615.9,-331.15 623.78,-324.07 613.2,-324.68 615.9,-331.15"/>
</a>
</g>
</g>
<!-- 15 -->
<g id="node11" class="node">
<title>15</title>
<g id="a_node11"><a xlink:title="Module">
<polygon fill="#ffffff" stroke="black" points="881.75,-324 811.75,-324 811.75,-288 881.75,-288 881.75,-324"/>
<text text-anchor="middle" x="846.75" y="-302.3" font-family="Times,serif" font-size="14.00">Module</text>
</a>
</g>
</g>
<!-- 5&#45;&gt;15 -->
<g id="edge11" class="edge">
<title>5&#45;&gt;15</title>
<g id="a_edge11"><a xlink:title="usage">
<path fill="none" stroke="#1414ce" d="M556.44,-365.97C612.02,-355.58 697.11,-339.35 770.75,-324 780.77,-321.91 791.52,-319.57 801.68,-317.31"/>
<polygon fill="#1414ce" stroke="#1414ce" points="802.61,-320.69 811.6,-315.08 801.08,-313.85 802.61,-320.69"/>
</a>
</g>
</g>
<!-- 9 -->
<g id="node13" class="node">
<title>9</title>
<g id="a_node13"><a xlink:title="RefcBinaryQueueItem">
<polygon fill="#ffffff" stroke="black" points="204.75,-324 30.75,-324 30.75,-288 204.75,-288 204.75,-324"/>
<text text-anchor="middle" x="117.75" y="-302.3" font-family="Times,serif" font-size="14.00">RefcBinaryQueueItem</text>
</a>
</g>
</g>
<!-- 5&#45;&gt;9 -->
<g id="edge7" class="edge">
<title>5&#45;&gt;9</title>
<g id="a_edge7"><a xlink:title="usage">
<path fill="none" stroke="#1414ce" d="M437.11,-365.99C377.6,-354.99 285.18,-337.92 215.04,-324.97"/>
<polygon fill="#1414ce" stroke="#1414ce" points="215.32,-321.46 204.86,-323.09 214.05,-328.35 215.32,-321.46"/>
</a>
</g>
</g>
<!-- 6 -->
<g id="node16" class="node">
<title>6</title>
<g id="a_node16"><a xlink:title="SpinLock">
<polygon fill="#ffffff" stroke="black" points="981.75,-324 899.75,-324 899.75,-288 981.75,-288 981.75,-324"/>
<text text-anchor="middle" x="940.75" y="-302.3" font-family="Times,serif" font-size="14.00">SpinLock</text>
</a>
</g>
</g>
<!-- 5&#45;&gt;6 -->
<g id="edge5" class="edge">
<title>5&#45;&gt;6</title>
<g id="a_edge5"><a xlink:title="usage">
<path fill="none" stroke="#1414ce" d="M556.47,-372.6C632.18,-366.21 766.68,-352.19 889.76,-323.97"/>
<polygon fill="#1414ce" stroke="#1414ce" points="890.78,-327.33 899.73,-321.65 889.2,-320.51 890.78,-327.33"/>
</a>
</g>
</g>
<!-- 10 -->
<g id="node17" class="node">
<title>10</title>
<g id="a_node17"><a xlink:title="SyncList">
<polygon fill="#ffffff" stroke="black" points="380.75,-108 302.75,-108 302.75,-72 380.75,-72 380.75,-108"/>
<text text-anchor="middle" x="341.75" y="-86.3" font-family="Times,serif" font-size="14.00">SyncList</text>
</a>
</g>
</g>
<!-- 5&#45;&gt;10 -->
<g id="edge8" class="edge">
<title>5&#45;&gt;10</title>
<g id="a_edge8"><a xlink:title="usage">
<path fill="none" stroke="#1414ce" d="M488.56,-359.85C483.64,-349.49 477.28,-336.01 471.75,-324 435.03,-244.33 439.15,-217.16 390.75,-144 384.18,-134.08 375.75,-124.23 367.73,-115.76"/>
<polygon fill="#1414ce" stroke="#1414ce" points="370.04,-113.12 360.55,-108.41 365.04,-118.01 370.04,-113.12"/>
</a>
</g>
</g>
<!-- 18 -->
<g id="node18" class="node">
<title>18</title>
<g id="a_node18"><a xlink:title="TimerList">
<polygon fill="#ffffff" stroke="black" points="487.75,-108 401.75,-108 401.75,-72 487.75,-72 487.75,-108"/>
<text text-anchor="middle" x="444.75" y="-86.3" font-family="Times,serif" font-size="14.00">TimerList</text>
</a>
</g>
</g>
<!-- 5&#45;&gt;18 -->
<g id="edge12" class="edge">
<title>5&#45;&gt;18</title>
<g id="a_edge12"><a xlink:title="usage">
<path fill="none" stroke="#1414ce" d="M492.24,-359.71C486.08,-335.68 475,-290.76 467.75,-252 459.02,-205.37 451.84,-150.6 447.94,-118.46"/>
<polygon fill="#1414ce" stroke="#1414ce" points="451.41,-117.99 446.74,-108.47 444.46,-118.82 451.41,-117.99"/>
</a>
</g>
</g>
<!-- 12&#45;&gt;12 -->
<g id="edge13" class="edge">
<title>12&#45;&gt;12</title>
<g id="a_edge13"><a xlink:title="usage">
<path fill="none" stroke="#1414ce" d="M1135.1,-175.47C1145.02,-175.07 1152.75,-170.58 1152.75,-162 1152.75,-156.64 1149.73,-152.87 1145.04,-150.71"/>
<polygon fill="#1414ce" stroke="#1414ce" points="1145.62,-147.25 1135.1,-148.53 1144.12,-154.09 1145.62,-147.25"/>
</a>
</g>
</g>
<!-- 13&#45;&gt;12 -->
<g id="edge15" class="edge">
<title>13&#45;&gt;12</title>
<g id="a_edge15"><a xlink:title="usage">
<path fill="none" stroke="#1414ce" d="M1164.23,-215.7C1153.88,-206.97 1141.16,-196.24 1129.91,-186.75"/>
<polygon fill="#1414ce" stroke="#1414ce" points="1131.93,-183.88 1122.03,-180.1 1127.41,-189.23 1131.93,-183.88"/>
</a>
</g>
</g>
<!-- 13&#45;&gt;13 -->
<g id="edge14" class="edge">
<title>13&#45;&gt;13</title>
<g id="a_edge14"><a xlink:title="usage">
<path fill="none" stroke="#1414ce" d="M1239.82,-246.85C1250.32,-245.32 1257.75,-241.03 1257.75,-234 1257.75,-229.5 1254.7,-226.12 1249.75,-223.87"/>
<polygon fill="#1414ce" stroke="#1414ce" points="1250.39,-220.42 1239.82,-221.15 1248.54,-227.17 1250.39,-220.42"/>
</a>
</g>
</g>
<!-- 2&#45;&gt;2 -->
<g id="edge16" class="edge">
<title>2&#45;&gt;2</title>
<g id="a_edge16"><a xlink:title="usage">
<path fill="none" stroke="#1414ce" d="M296.48,-31.31C306.65,-30.38 314.25,-25.95 314.25,-18 314.25,-12.91 311.13,-9.26 306.21,-7.05"/>
<polygon fill="#1414ce" stroke="#1414ce" points="307.02,-3.64 296.48,-4.69 305.37,-10.45 307.02,-3.64"/>
</a>
</g>
</g>
<!-- 17 -->
<g id="node8" class="node">
<title>17</title>
<g id="a_node8"><a xlink:title="LiteralEntry">
<polygon fill="#ffffff" stroke="black" points="1073.75,-252 969.75,-252 969.75,-216 1073.75,-216 1073.75,-252"/>
<text text-anchor="middle" x="1021.75" y="-230.3" font-family="Times,serif" font-size="14.00">LiteralEntry</text>
</a>
</g>
</g>
<!-- 8 -->
<g id="node9" class="node">
<title>8</title>
<g id="a_node9"><a xlink:title="MailboxMessage">
<polygon fill="#ffffff" stroke="black" points="769.25,-252 632.25,-252 632.25,-216 769.25,-216 769.25,-252"/>
<text text-anchor="middle" x="700.75" y="-230.3" font-family="Times,serif" font-size="14.00">MailboxMessage</text>
</a>
</g>
</g>
<!-- 8&#45;&gt;8 -->
<g id="edge17" class="edge">
<title>8&#45;&gt;8</title>
<g id="a_edge17"><a xlink:title="usage">
<path fill="none" stroke="#1414ce" d="M769.27,-246.37C779.96,-244.52 787.25,-240.4 787.25,-234 787.25,-229.8 784.11,-226.58 778.93,-224.34"/>
<polygon fill="#1414ce" stroke="#1414ce" points="779.85,-220.96 769.27,-221.63 777.95,-227.7 779.85,-220.96"/>
</a>
</g>
</g>
<!-- 7&#45;&gt;8 -->
<g id="edge19" class="edge">
<title>7&#45;&gt;8</title>
<g id="a_edge19"><a xlink:title="usage">
<path fill="none" stroke="#1414ce" d="M673.64,-287.7C677.74,-279.73 682.69,-270.1 687.24,-261.26"/>
<polygon fill="#1414ce" stroke="#1414ce" points="690.49,-262.6 691.95,-252.1 684.26,-259.4 690.49,-262.6"/>
</a>
</g>
</g>
<!-- 7&#45;&gt;7 -->
<g id="edge18" class="edge">
<title>7&#45;&gt;7</title>
<g id="a_edge18"><a xlink:title="usage">
<path fill="none" stroke="#1414ce" d="M743.91,-317.98C754.62,-315.97 761.75,-311.98 761.75,-306 761.75,-302.08 758.68,-299.01 753.54,-296.8"/>
<polygon fill="#1414ce" stroke="#1414ce" points="754.49,-293.43 743.91,-294.02 752.55,-300.15 754.49,-293.43"/>
</a>
</g>
</g>
<!-- 15&#45;&gt;16 -->
<g id="edge20" class="edge">
<title>15&#45;&gt;16</title>
<g id="a_edge20"><a xlink:title="usage">
<path fill="none" stroke="#1414ce" d="M854.66,-287.7C858.3,-279.73 862.7,-270.1 866.74,-261.26"/>
<polygon fill="#1414ce" stroke="#1414ce" points="869.95,-262.65 870.93,-252.1 863.59,-259.74 869.95,-262.65"/>
</a>
</g>
</g>
<!-- 15&#45;&gt;17 -->
<g id="edge21" class="edge">
<title>15&#45;&gt;17</title>
<g id="a_edge21"><a xlink:title="usage">
<path fill="none" stroke="#1414ce" d="M882.16,-290.83C907.28,-280.78 941.42,-267.13 969.64,-255.84"/>
<polygon fill="#1414ce" stroke="#1414ce" points="970.98,-259.08 978.96,-252.11 968.38,-252.58 970.98,-259.08"/>
</a>
</g>
</g>
<!-- 3 -->
<g id="node12" class="node">
<title>3</title>
<g id="a_node12"><a xlink:title="RefcBinary">
<polygon fill="#ffffff" stroke="black" points="208.25,-252 113.25,-252 113.25,-216 208.25,-216 208.25,-252"/>
<text text-anchor="middle" x="160.75" y="-230.3" font-family="Times,serif" font-size="14.00">RefcBinary</text>
</a>
</g>
</g>
<!-- 3&#45;&gt;2 -->
<g id="edge22" class="edge">
<title>3&#45;&gt;2</title>
<g id="a_edge22"><a xlink:title="usage">
<path fill="none" stroke="#1414ce" d="M166.23,-215.62C175.97,-185.6 197.63,-122.4 222.75,-72 227.34,-62.78 233.07,-53.11 238.46,-44.58"/>
<polygon fill="#1414ce" stroke="#1414ce" points="241.4,-46.48 243.89,-36.19 235.52,-42.68 241.4,-46.48"/>
</a>
</g>
</g>
<!-- 4 -->
<g id="node14" class="node">
<title>4</title>
<g id="a_node14"><a xlink:title="ResourceType">
<polygon fill="#ffffff" stroke="black" points="382.25,-180 265.25,-180 265.25,-144 382.25,-144 382.25,-180"/>
<text text-anchor="middle" x="323.75" y="-158.3" font-family="Times,serif" font-size="14.00">ResourceType</text>
</a>
</g>
</g>
<!-- 3&#45;&gt;4 -->
<g id="edge23" class="edge">
<title>3&#45;&gt;4</title>
<g id="a_edge23"><a xlink:title="usage">
<path fill="none" stroke="#1414ce" d="M200.62,-215.88C222.9,-206.31 250.86,-194.3 274.5,-184.15"/>
<polygon fill="#1414ce" stroke="#1414ce" points="276.19,-187.23 284,-180.07 273.43,-180.8 276.19,-187.23"/>
</a>
</g>
</g>
<!-- 9&#45;&gt;3 -->
<g id="edge25" class="edge">
<title>9&#45;&gt;3</title>
<g id="a_edge25"><a xlink:title="usage">
<path fill="none" stroke="#1414ce" d="M128.38,-287.7C133.37,-279.56 139.44,-269.69 144.96,-260.7"/>
<polygon fill="#1414ce" stroke="#1414ce" points="147.99,-262.46 150.24,-252.1 142.02,-258.79 147.99,-262.46"/>
</a>
</g>
</g>
<!-- 9&#45;&gt;9 -->
<g id="edge24" class="edge">
<title>9&#45;&gt;9</title>
<g id="a_edge24"><a xlink:title="usage">
<path fill="none" stroke="#1414ce" d="M205.05,-317.68C215.74,-315.59 222.75,-311.7 222.75,-306 222.75,-302.35 219.87,-299.44 214.99,-297.27"/>
<polygon fill="#1414ce" stroke="#1414ce" points="215.63,-293.81 205.05,-294.32 213.64,-300.52 215.63,-293.81"/>
</a>
</g>
</g>
<!-- 4&#45;&gt;5 -->
<g id="edge27" class="edge">
<title>4&#45;&gt;5</title>
<g id="a_edge27"><a xlink:title="usage">
<path fill="none" stroke="#1414ce" d="M327.58,-180.11C335.5,-211.97 356.38,-281.07 396.75,-324 408.95,-336.98 425.06,-347.42 440.78,-355.48"/>
<polygon fill="#1414ce" stroke="#1414ce" points="439.43,-358.72 449.95,-359.96 442.5,-352.43 439.43,-358.72"/>
</a>
</g>
</g>
<!-- 4&#45;&gt;2 -->
<g id="edge26" class="edge">
<title>4&#45;&gt;2</title>
<g id="a_edge26"><a xlink:title="usage">
<path fill="none" stroke="#1414ce" d="M313.25,-143.6C307.25,-133.38 299.75,-120.13 293.75,-108 283.61,-87.51 273.52,-63.66 266.28,-45.81"/>
<polygon fill="#1414ce" stroke="#1414ce" points="269.44,-44.3 262.47,-36.32 262.95,-46.9 269.44,-44.3"/>
</a>
</g>
</g>
<!-- 4&#45;&gt;10 -->
<g id="edge28" class="edge">
<title>4&#45;&gt;10</title>
<g id="a_edge28"><a xlink:title="usage">
<path fill="none" stroke="#1414ce" d="M328.2,-143.7C330.2,-135.9 332.62,-126.51 334.85,-117.83"/>
<polygon fill="#1414ce" stroke="#1414ce" points="338.25,-118.66 337.35,-108.1 331.47,-116.92 338.25,-118.66"/>
</a>
</g>
</g>
<!-- 1 -->
<g id="node15" class="node">
<title>1</title>
<g id="a_node15"><a xlink:title="SelectEvent">
<polygon fill="#bfbfbf" stroke="black" points="344.25,-324 241.25,-324 241.25,-288 344.25,-288 344.25,-324"/>
<text text-anchor="middle" x="292.75" y="-302.3" font-family="Times,serif" font-size="14.00">SelectEvent</text>
</a>
</g>
</g>
<!-- 1&#45;&gt;2 -->
<g id="edge29" class="edge">
<title>1&#45;&gt;2</title>
<g id="a_edge29"><a xlink:title="usage">
<path fill="none" stroke="#1414ce" d="M285.99,-287.96C276.98,-264.22 261.49,-219.64 255.75,-180 249.01,-133.48 251.12,-78.6 253.37,-46.42"/>
<polygon fill="#1414ce" stroke="#1414ce" points="256.89,-46.27 254.15,-36.04 249.91,-45.74 256.89,-46.27"/>
</a>
</g>
</g>
<!-- 1&#45;&gt;3 -->
<g id="edge30" class="edge">
<title>1&#45;&gt;3</title>
<g id="a_edge30"><a xlink:title="usage">
<path fill="none" stroke="#1414ce" d="M260.45,-287.88C242.88,-278.55 220.94,-266.92 202.12,-256.94"/>
<polygon fill="#1414ce" stroke="#1414ce" points="203.64,-253.78 193.16,-252.19 200.36,-259.97 203.64,-253.78"/>
</a>
</g>
</g>
<!-- 10&#45;&gt;2 -->
<g id="edge31" class="edge">
<title>10&#45;&gt;2</title>
<g id="a_edge31"><a xlink:title="usage">
<path fill="none" stroke="#1414ce" d="M320.49,-71.7C309.66,-62.88 296.33,-52.03 284.59,-42.47"/>
<polygon fill="#1414ce" stroke="#1414ce" points="286.72,-39.7 276.76,-36.1 282.31,-45.13 286.72,-39.7"/>
</a>
</g>
</g>
<!-- 18&#45;&gt;2 -->
<g id="edge32" class="edge">
<title>18&#45;&gt;2</title>
<g id="a_edge32"><a xlink:title="usage">
<path fill="none" stroke="#1414ce" d="M401.39,-72.94C372.99,-62.42 335.78,-48.64 306.08,-37.64"/>
<polygon fill="#1414ce" stroke="#1414ce" points="306.91,-34.22 296.32,-34.03 304.48,-40.78 306.91,-34.22"/>
</a>
</g>
</g>
</g>
</svg>
