<?xml version="1.0" encoding="UTF-8" standalone="no"?>
<!DOCTYPE svg PUBLIC "-//W3C//DTD SVG 1.1//EN"
 "http://www.w3.org/Graphics/SVG/1.1/DTD/svg11.dtd">
<!-- Generated by graphviz version 2.43.0 (0)
 -->
<!-- Title: %3 Pages: 1 -->
<svg width="1283pt" height="764pt"
 viewBox="0.00 0.00 1283.30 764.00" xmlns="http://www.w3.org/2000/svg" xmlns:xlink="http://www.w3.org/1999/xlink">
<g id="graph0" class="graph" transform="scale(1 1) rotate(0) translate(4 760)">
<title>%3</title>
<polygon fill="transparent" stroke="transparent" points="-4,4 -4,-760 1279.3,-760 1279.3,4 -4,4"/>
<!-- 3 -->
<g id="node1" class="node">
<title>3</title>
<g id="a_node1"><a xlink:title="atom.h">
<polygon fill="#ffffff" stroke="black" points="342.3,-396 276.3,-396 276.3,-360 342.3,-360 342.3,-396"/>
<text text-anchor="middle" x="309.3" y="-374.3" font-family="Times,serif" font-size="14.00">atom.h</text>
</a>
</g>
</g>
<!-- 4 -->
<g id="node25" class="node">
<title>4</title>
<g id="a_node25"><a xlink:title="stdint.h">
<polygon fill="#ffffff" stroke="black" points="610.3,-36 538.3,-36 538.3,0 610.3,0 610.3,-36"/>
<text text-anchor="middle" x="574.3" y="-14.3" font-family="Times,serif" font-size="14.00">stdint.h</text>
</a>
</g>
</g>
<!-- 3&#45;&gt;4 -->
<g id="edge1" class="edge">
<title>3&#45;&gt;4</title>
<g id="a_edge1"><a xlink:title="include">
<path fill="none" stroke="#1414ce" d="M293.42,-359.78C259.84,-321.19 187.2,-224.86 218.3,-144 233.78,-103.76 245.64,-92.98 283.3,-72 361.38,-28.5 467.8,-19.65 527.94,-18.44"/>
<polygon fill="#1414ce" stroke="#1414ce" points="528.3,-21.94 538.25,-18.3 528.2,-14.94 528.3,-21.94"/>
</a>
</g>
</g>
<!-- 5 -->
<g id="node27" class="node">
<title>5</title>
<g id="a_node27"><a xlink:title="stdlib.h">
<polygon fill="#ffffff" stroke="black" points="901.8,-108 830.8,-108 830.8,-72 901.8,-72 901.8,-108"/>
<text text-anchor="middle" x="866.3" y="-86.3" font-family="Times,serif" font-size="14.00">stdlib.h</text>
</a>
</g>
</g>
<!-- 3&#45;&gt;5 -->
<g id="edge2" class="edge">
<title>3&#45;&gt;5</title>
<g id="a_edge2"><a xlink:title="include">
<path fill="none" stroke="#1414ce" d="M342.49,-371.3C411.76,-358.35 575.21,-322.24 694.3,-252 757.25,-214.87 816.12,-151.14 845.93,-116.03"/>
<polygon fill="#1414ce" stroke="#1414ce" points="848.79,-118.08 852.53,-108.17 843.42,-113.58 848.79,-118.08"/>
</a>
</g>
</g>
<!-- 8 -->
<g id="node2" class="node">
<title>8</title>
<g id="a_node2"><a xlink:title="atom_table.h">
<polygon fill="#ffffff" stroke="black" points="333.8,-468 224.8,-468 224.8,-432 333.8,-432 333.8,-468"/>
<text text-anchor="middle" x="279.3" y="-446.3" font-family="Times,serif" font-size="14.00">atom_table.h</text>
</a>
</g>
</g>
<!-- 8&#45;&gt;3 -->
<g id="edge4" class="edge">
<title>8&#45;&gt;3</title>
<g id="a_edge4"><a xlink:title="include">
<path fill="none" stroke="#1414ce" d="M286.72,-431.7C290.1,-423.81 294.17,-414.3 297.93,-405.55"/>
<polygon fill="#1414ce" stroke="#1414ce" points="301.25,-406.67 301.97,-396.1 294.82,-403.92 301.25,-406.67"/>
</a>
</g>
</g>
<!-- 9 -->
<g id="node23" class="node">
<title>9</title>
<g id="a_node23"><a xlink:title="stdbool.h">
<polygon fill="#ffffff" stroke="black" points="375.8,-108 292.8,-108 292.8,-72 375.8,-72 375.8,-108"/>
<text text-anchor="middle" x="334.3" y="-86.3" font-family="Times,serif" font-size="14.00">stdbool.h</text>
</a>
</g>
</g>
<!-- 8&#45;&gt;9 -->
<g id="edge3" class="edge">
<title>8&#45;&gt;9</title>
<g id="a_edge3"><a xlink:title="include">
<path fill="none" stroke="#1414ce" d="M274.43,-431.98C271.74,-421.67 268.67,-408.19 267.3,-396 265.52,-380.1 265.35,-375.88 267.3,-360 278.41,-269.43 309.81,-165.47 325.36,-117.63"/>
<polygon fill="#1414ce" stroke="#1414ce" points="328.71,-118.63 328.51,-108.03 322.06,-116.44 328.71,-118.63"/>
</a>
</g>
</g>
<!-- 6 -->
<g id="node3" class="node">
<title>6</title>
<g id="a_node3"><a xlink:title="context.h">
<polygon fill="#ffffff" stroke="black" points="498.8,-612 415.8,-612 415.8,-576 498.8,-576 498.8,-612"/>
<text text-anchor="middle" x="457.3" y="-590.3" font-family="Times,serif" font-size="14.00">context.h</text>
</a>
</g>
</g>
<!-- 7 -->
<g id="node6" class="node">
<title>7</title>
<g id="a_node6"><a xlink:title="globalcontext.h">
<polygon fill="#ffffff" stroke="black" points="463.8,-540 336.8,-540 336.8,-504 463.8,-504 463.8,-540"/>
<text text-anchor="middle" x="400.3" y="-518.3" font-family="Times,serif" font-size="14.00">globalcontext.h</text>
</a>
</g>
</g>
<!-- 6&#45;&gt;7 -->
<g id="edge5" class="edge">
<title>6&#45;&gt;7</title>
<g id="a_edge5"><a xlink:title="include">
<path fill="none" stroke="#1414ce" d="M443.21,-575.7C436.38,-567.3 428.05,-557.07 420.55,-547.86"/>
<polygon fill="#1414ce" stroke="#1414ce" points="423.26,-545.65 414.23,-540.1 417.83,-550.07 423.26,-545.65"/>
</a>
</g>
</g>
<!-- 15 -->
<g id="node7" class="node">
<title>15</title>
<g id="a_node7"><a xlink:title="list.h">
<polygon fill="#ffffff" stroke="black" points="456.3,-180 402.3,-180 402.3,-144 456.3,-144 456.3,-180"/>
<text text-anchor="middle" x="429.3" y="-158.3" font-family="Times,serif" font-size="14.00">list.h</text>
</a>
</g>
</g>
<!-- 6&#45;&gt;15 -->
<g id="edge6" class="edge">
<title>6&#45;&gt;15</title>
<g id="a_edge6"><a xlink:title="include">
<path fill="none" stroke="#1414ce" d="M463.54,-575.59C466.87,-565.37 470.62,-552.12 472.3,-540 474.5,-524.15 473.65,-519.94 472.3,-504 462.71,-390.79 438.89,-365.21 429.3,-252 427.55,-231.34 427.64,-207.9 428.11,-190.26"/>
<polygon fill="#1414ce" stroke="#1414ce" points="431.62,-190.21 428.45,-180.1 424.62,-189.98 431.62,-190.21"/>
</a>
</g>
</g>
<!-- 16 -->
<g id="node8" class="node">
<title>16</title>
<g id="a_node8"><a xlink:title="mailbox.h">
<polygon fill="#ffffff" stroke="black" points="685.3,-252 599.3,-252 599.3,-216 685.3,-216 685.3,-252"/>
<text text-anchor="middle" x="642.3" y="-230.3" font-family="Times,serif" font-size="14.00">mailbox.h</text>
</a>
</g>
</g>
<!-- 6&#45;&gt;16 -->
<g id="edge7" class="edge">
<title>6&#45;&gt;16</title>
<g id="a_edge7"><a xlink:title="include">
<path fill="none" stroke="#1414ce" d="M490.86,-575.93C530.26,-553.23 590.3,-509.1 590.3,-451 590.3,-451 590.3,-451 590.3,-377 590.3,-334.49 611.1,-288.95 626.39,-261.22"/>
<polygon fill="#1414ce" stroke="#1414ce" points="629.63,-262.61 631.53,-252.19 623.54,-259.15 629.63,-262.61"/>
</a>
</g>
</g>
<!-- 20 -->
<g id="node14" class="node">
<title>20</title>
<g id="a_node14"><a xlink:title="smp.h">
<polygon fill="#ffffff" stroke="black" points="287.3,-180 227.3,-180 227.3,-144 287.3,-144 287.3,-180"/>
<text text-anchor="middle" x="257.3" y="-158.3" font-family="Times,serif" font-size="14.00">smp.h</text>
</a>
</g>
</g>
<!-- 6&#45;&gt;20 -->
<g id="edge8" class="edge">
<title>6&#45;&gt;20</title>
<g id="a_edge8"><a xlink:title="include">
<path fill="none" stroke="#1414ce" d="M415.6,-586.4C355.38,-574.46 245.58,-543.14 193.3,-468 129.19,-375.85 156.03,-314.26 210.3,-216 215.95,-205.78 223.87,-195.85 231.6,-187.4"/>
<polygon fill="#1414ce" stroke="#1414ce" points="234.21,-189.74 238.58,-180.09 229.14,-184.91 234.21,-189.74"/>
</a>
</g>
</g>
<!-- 22 -->
<g id="node16" class="node">
<title>22</title>
<g id="a_node16"><a xlink:title="term.h">
<polygon fill="#ffffff" stroke="black" points="898.8,-468 833.8,-468 833.8,-432 898.8,-432 898.8,-468"/>
<text text-anchor="middle" x="866.3" y="-446.3" font-family="Times,serif" font-size="14.00">term.h</text>
</a>
</g>
</g>
<!-- 6&#45;&gt;22 -->
<g id="edge9" class="edge">
<title>6&#45;&gt;22</title>
<g id="a_edge9"><a xlink:title="include">
<path fill="none" stroke="#1414ce" d="M499.15,-578.47C577.54,-551.25 745.66,-492.88 824.23,-465.61"/>
<polygon fill="#1414ce" stroke="#1414ce" points="825.5,-468.87 833.8,-462.28 823.21,-462.26 825.5,-468.87"/>
</a>
</g>
</g>
<!-- 28 -->
<g id="node18" class="node">
<title>28</title>
<g id="a_node18"><a xlink:title="timer_list.h">
<polygon fill="#ffffff" stroke="black" points="135.3,-252 37.3,-252 37.3,-216 135.3,-216 135.3,-252"/>
<text text-anchor="middle" x="86.3" y="-230.3" font-family="Times,serif" font-size="14.00">timer_list.h</text>
</a>
</g>
</g>
<!-- 6&#45;&gt;28 -->
<g id="edge10" class="edge">
<title>6&#45;&gt;28</title>
<g id="a_edge10"><a xlink:title="include">
<path fill="none" stroke="#1414ce" d="M415.48,-590.9C312.96,-585.34 55.59,-568.62 30.3,-540 -41.09,-459.2 33.5,-318.14 69.35,-260.57"/>
<polygon fill="#1414ce" stroke="#1414ce" points="72.35,-262.39 74.75,-252.07 66.44,-258.64 72.35,-262.39"/>
</a>
</g>
</g>
<!-- 10 -->
<g id="node4" class="node">
<title>10</title>
<g id="a_node4"><a xlink:title="erl_nif.h">
<polygon fill="#ffffff" stroke="black" points="1196.3,-180 1122.3,-180 1122.3,-144 1196.3,-144 1196.3,-180"/>
<text text-anchor="middle" x="1159.3" y="-158.3" font-family="Times,serif" font-size="14.00">erl_nif.h</text>
</a>
</g>
</g>
<!-- 11 -->
<g id="node17" class="node">
<title>11</title>
<g id="a_node17"><a xlink:title="term_typedef.h">
<polygon fill="#ffffff" stroke="black" points="1209.8,-108 1084.8,-108 1084.8,-72 1209.8,-72 1209.8,-108"/>
<text text-anchor="middle" x="1147.3" y="-86.3" font-family="Times,serif" font-size="14.00">term_typedef.h</text>
</a>
</g>
</g>
<!-- 10&#45;&gt;11 -->
<g id="edge11" class="edge">
<title>10&#45;&gt;11</title>
<g id="a_edge11"><a xlink:title="include">
<path fill="none" stroke="#1414ce" d="M1156.34,-143.7C1155.01,-135.98 1153.42,-126.71 1151.95,-118.11"/>
<polygon fill="#1414ce" stroke="#1414ce" points="1155.37,-117.37 1150.23,-108.1 1148.47,-118.55 1155.37,-117.37"/>
</a>
</g>
</g>
<!-- 29 -->
<g id="node5" class="node">
<title>29</title>
<g id="a_node5"><a xlink:title="exportedfunction.h">
<polygon fill="#ffffff" stroke="black" points="908.3,-540 756.3,-540 756.3,-504 908.3,-504 908.3,-540"/>
<text text-anchor="middle" x="832.3" y="-518.3" font-family="Times,serif" font-size="14.00">exportedfunction.h</text>
</a>
</g>
</g>
<!-- 29&#45;&gt;22 -->
<g id="edge12" class="edge">
<title>29&#45;&gt;22</title>
<g id="a_edge12"><a xlink:title="include">
<path fill="none" stroke="#1414ce" d="M840.71,-503.7C844.58,-495.73 849.25,-486.1 853.55,-477.26"/>
<polygon fill="#1414ce" stroke="#1414ce" points="856.77,-478.63 857.99,-468.1 850.48,-475.57 856.77,-478.63"/>
</a>
</g>
</g>
<!-- 7&#45;&gt;3 -->
<g id="edge14" class="edge">
<title>7&#45;&gt;3</title>
<g id="a_edge14"><a xlink:title="include">
<path fill="none" stroke="#1414ce" d="M389.33,-503.87C373.54,-479.24 344.32,-433.64 325.89,-404.88"/>
<polygon fill="#1414ce" stroke="#1414ce" points="328.66,-402.72 320.32,-396.19 322.77,-406.5 328.66,-402.72"/>
</a>
</g>
</g>
<!-- 7&#45;&gt;8 -->
<g id="edge15" class="edge">
<title>7&#45;&gt;8</title>
<g id="a_edge15"><a xlink:title="include">
<path fill="none" stroke="#1414ce" d="M370.7,-503.88C354.74,-494.64 334.84,-483.13 317.7,-473.21"/>
<polygon fill="#1414ce" stroke="#1414ce" points="319.42,-470.17 309.02,-468.19 315.92,-476.23 319.42,-470.17"/>
</a>
</g>
</g>
<!-- 7&#45;&gt;10 -->
<g id="edge16" class="edge">
<title>7&#45;&gt;10</title>
<g id="a_edge16"><a xlink:title="include">
<path fill="none" stroke="#1414ce" d="M464.11,-517.24C663.76,-504.62 1263.3,-460 1263.3,-379 1263.3,-379 1263.3,-379 1263.3,-305 1263.3,-255.63 1221.88,-212.02 1191.32,-186.56"/>
<polygon fill="#1414ce" stroke="#1414ce" points="1193.4,-183.74 1183.42,-180.18 1189,-189.19 1193.4,-183.74"/>
</a>
</g>
</g>
<!-- 7&#45;&gt;15 -->
<g id="edge17" class="edge">
<title>7&#45;&gt;15</title>
<g id="a_edge17"><a xlink:title="include">
<path fill="none" stroke="#1414ce" d="M393.9,-503.98C377.02,-456.35 335.42,-318.49 377.3,-216 381.79,-205.02 389.77,-195.08 398.16,-186.86"/>
<polygon fill="#1414ce" stroke="#1414ce" points="400.54,-189.42 405.55,-180.09 395.81,-184.26 400.54,-189.42"/>
</a>
</g>
</g>
<!-- 7&#45;&gt;16 -->
<g id="edge18" class="edge">
<title>7&#45;&gt;16</title>
<g id="a_edge18"><a xlink:title="include">
<path fill="none" stroke="#1414ce" d="M411.16,-503.78C436.97,-463.56 505.15,-361.29 576.3,-288 586.6,-277.39 598.99,-266.94 610.25,-258.16"/>
<polygon fill="#1414ce" stroke="#1414ce" points="612.38,-260.93 618.19,-252.08 608.12,-255.37 612.38,-260.93"/>
</a>
</g>
</g>
<!-- 7&#45;&gt;20 -->
<g id="edge19" class="edge">
<title>7&#45;&gt;20</title>
<g id="a_edge19"><a xlink:title="include">
<path fill="none" stroke="#1414ce" d="M336.77,-511.11C289.29,-502.27 230.13,-487.68 215.3,-468 151.43,-383.27 211.88,-246.54 242.24,-189.41"/>
<polygon fill="#1414ce" stroke="#1414ce" points="245.48,-190.78 247.18,-180.32 239.33,-187.44 245.48,-190.78"/>
</a>
</g>
</g>
<!-- 21 -->
<g id="node15" class="node">
<title>21</title>
<g id="a_node15"><a xlink:title="synclist.h">
<polygon fill="#ffffff" stroke="black" points="542.8,-252 457.8,-252 457.8,-216 542.8,-216 542.8,-252"/>
<text text-anchor="middle" x="500.3" y="-230.3" font-family="Times,serif" font-size="14.00">synclist.h</text>
</a>
</g>
</g>
<!-- 7&#45;&gt;21 -->
<g id="edge20" class="edge">
<title>7&#45;&gt;21</title>
<g id="a_edge20"><a xlink:title="include">
<path fill="none" stroke="#1414ce" d="M404.81,-503.97C418.98,-450.48 461.71,-289.26 462.3,-288 466.87,-278.32 473.24,-268.57 479.47,-260.11"/>
<polygon fill="#1414ce" stroke="#1414ce" points="482.27,-262.21 485.57,-252.14 476.71,-257.96 482.27,-262.21"/>
</a>
</g>
</g>
<!-- 7&#45;&gt;22 -->
<g id="edge21" class="edge">
<title>7&#45;&gt;22</title>
<g id="a_edge21"><a xlink:title="include">
<path fill="none" stroke="#1414ce" d="M464.12,-511.41C560.69,-496.91 741.4,-469.76 823.62,-457.41"/>
<polygon fill="#1414ce" stroke="#1414ce" points="824.24,-460.86 833.61,-455.91 823.2,-453.94 824.24,-460.86"/>
</a>
</g>
</g>
<!-- 7&#45;&gt;28 -->
<g id="edge22" class="edge">
<title>7&#45;&gt;28</title>
<g id="a_edge22"><a xlink:title="include">
<path fill="none" stroke="#1414ce" d="M336.57,-520.46C288.96,-516.82 225.01,-504.65 182.3,-468 119.03,-413.7 96.76,-311.11 89.51,-262.23"/>
<polygon fill="#1414ce" stroke="#1414ce" points="92.95,-261.53 88.11,-252.1 86.01,-262.49 92.95,-261.53"/>
</a>
</g>
</g>
<!-- 7&#45;&gt;4 -->
<g id="edge13" class="edge">
<title>7&#45;&gt;4</title>
<g id="a_edge13"><a xlink:title="include">
<path fill="none" stroke="#1414ce" d="M336.61,-515.09C225.82,-500.94 9.3,-454.42 9.3,-307 9.3,-307 9.3,-307 9.3,-161 9.3,-54.29 393.14,-27.02 528.07,-20.73"/>
<polygon fill="#1414ce" stroke="#1414ce" points="528.27,-24.22 538.1,-20.28 527.95,-17.23 528.27,-24.22"/>
</a>
</g>
</g>
<!-- 16&#45;&gt;15 -->
<g id="edge24" class="edge">
<title>16&#45;&gt;15</title>
<g id="a_edge24"><a xlink:title="include">
<path fill="none" stroke="#1414ce" d="M599.2,-218.83C560.2,-206.02 503.36,-187.34 466.36,-175.18"/>
<polygon fill="#1414ce" stroke="#1414ce" points="467.07,-171.73 456.48,-171.93 464.89,-178.38 467.07,-171.73"/>
</a>
</g>
</g>
<!-- 16&#45;&gt;11 -->
<g id="edge25" class="edge">
<title>16&#45;&gt;11</title>
<g id="a_edge25"><a xlink:title="include">
<path fill="none" stroke="#1414ce" d="M685.36,-220.89C772.56,-196.37 970.75,-140.64 1076.97,-110.78"/>
<polygon fill="#1414ce" stroke="#1414ce" points="1077.97,-114.13 1086.65,-108.06 1076.07,-107.39 1077.97,-114.13"/>
</a>
</g>
</g>
<!-- 17 -->
<g id="node19" class="node">
<title>17</title>
<g id="a_node19"><a xlink:title="utils.h">
<polygon fill="#ffffff" stroke="black" points="762.3,-180 700.3,-180 700.3,-144 762.3,-144 762.3,-180"/>
<text text-anchor="middle" x="731.3" y="-158.3" font-family="Times,serif" font-size="14.00">utils.h</text>
</a>
</g>
</g>
<!-- 16&#45;&gt;17 -->
<g id="edge26" class="edge">
<title>16&#45;&gt;17</title>
<g id="a_edge26"><a xlink:title="include">
<path fill="none" stroke="#1414ce" d="M664.3,-215.7C675.51,-206.88 689.3,-196.03 701.46,-186.47"/>
<polygon fill="#1414ce" stroke="#1414ce" points="703.86,-189.04 709.56,-180.1 699.53,-183.54 703.86,-189.04"/>
</a>
</g>
</g>
<!-- 16&#45;&gt;9 -->
<g id="edge23" class="edge">
<title>16&#45;&gt;9</title>
<g id="a_edge23"><a xlink:title="include">
<path fill="none" stroke="#1414ce" d="M610.38,-215.96C575.23,-197.43 516.85,-167.34 465.3,-144 439.26,-132.21 409.78,-120.17 385.39,-110.55"/>
<polygon fill="#1414ce" stroke="#1414ce" points="386.56,-107.25 375.97,-106.86 384,-113.77 386.56,-107.25"/>
</a>
</g>
</g>
<!-- 25 -->
<g id="node9" class="node">
<title>25</title>
<g id="a_node9"><a xlink:title="memory.h">
<polygon fill="#ffffff" stroke="black" points="1099.3,-252 1013.3,-252 1013.3,-216 1099.3,-216 1099.3,-252"/>
<text text-anchor="middle" x="1056.3" y="-230.3" font-family="Times,serif" font-size="14.00">memory.h</text>
</a>
</g>
</g>
<!-- 25&#45;&gt;10 -->
<g id="edge29" class="edge">
<title>25&#45;&gt;10</title>
<g id="a_edge29"><a xlink:title="include">
<path fill="none" stroke="#1414ce" d="M1081.5,-215.88C1094.72,-206.89 1111.09,-195.76 1125.41,-186.03"/>
<polygon fill="#1414ce" stroke="#1414ce" points="1127.71,-188.71 1134.01,-180.19 1123.77,-182.92 1127.71,-188.71"/>
</a>
</g>
</g>
<!-- 25&#45;&gt;11 -->
<g id="edge30" class="edge">
<title>25&#45;&gt;11</title>
<g id="a_edge30"><a xlink:title="include">
<path fill="none" stroke="#1414ce" d="M1067.23,-215.94C1078.7,-198.02 1097.26,-169.03 1113.3,-144 1118.99,-135.12 1125.23,-125.41 1130.78,-116.75"/>
<polygon fill="#1414ce" stroke="#1414ce" points="1133.82,-118.49 1136.27,-108.18 1127.93,-114.71 1133.82,-118.49"/>
</a>
</g>
</g>
<!-- 25&#45;&gt;17 -->
<g id="edge31" class="edge">
<title>25&#45;&gt;17</title>
<g id="a_edge31"><a xlink:title="include">
<path fill="none" stroke="#1414ce" d="M1013.15,-223.7C950.17,-210.14 833.91,-185.1 772.23,-171.81"/>
<polygon fill="#1414ce" stroke="#1414ce" points="772.97,-168.39 762.45,-169.71 771.49,-175.24 772.97,-168.39"/>
</a>
</g>
</g>
<!-- 25&#45;&gt;4 -->
<g id="edge27" class="edge">
<title>25&#45;&gt;4</title>
<g id="a_edge27"><a xlink:title="include">
<path fill="none" stroke="#1414ce" d="M1055.23,-215.81C1052.13,-182.19 1040.17,-107.92 994.3,-72 937.08,-27.19 717.56,-19.98 620.69,-19.02"/>
<polygon fill="#1414ce" stroke="#1414ce" points="620.63,-15.52 610.61,-18.94 620.58,-22.52 620.63,-15.52"/>
</a>
</g>
</g>
<!-- 25&#45;&gt;5 -->
<g id="edge28" class="edge">
<title>25&#45;&gt;5</title>
<g id="a_edge28"><a xlink:title="include">
<path fill="none" stroke="#1414ce" d="M1039.13,-215.82C1019.88,-197.03 987.29,-166.58 956.3,-144 941.11,-132.93 923.47,-122.14 907.85,-113.21"/>
<polygon fill="#1414ce" stroke="#1414ce" points="909.35,-110.04 898.92,-108.18 905.91,-116.14 909.35,-110.04"/>
</a>
</g>
</g>
<!-- 2 -->
<g id="node10" class="node">
<title>2</title>
<g id="a_node10"><a xlink:title="nifs.h">
<polygon fill="#ffffff" stroke="black" points="485.3,-684 429.3,-684 429.3,-648 485.3,-648 485.3,-684"/>
<text text-anchor="middle" x="457.3" y="-662.3" font-family="Times,serif" font-size="14.00">nifs.h</text>
</a>
</g>
</g>
<!-- 2&#45;&gt;3 -->
<g id="edge32" class="edge">
<title>2&#45;&gt;3</title>
<g id="a_edge32"><a xlink:title="include">
<path fill="none" stroke="#1414ce" d="M429.12,-652.44C375.54,-626.78 260.31,-562.67 215.3,-468 208.43,-453.55 207.23,-445.82 215.3,-432 226.46,-412.9 247.32,-400.15 266.55,-391.95"/>
<polygon fill="#1414ce" stroke="#1414ce" points="268.1,-395.1 276.11,-388.17 265.52,-388.59 268.1,-395.1"/>
</a>
</g>
</g>
<!-- 2&#45;&gt;6 -->
<g id="edge33" class="edge">
<title>2&#45;&gt;6</title>
<g id="a_edge33"><a xlink:title="include">
<path fill="none" stroke="#1414ce" d="M457.3,-647.7C457.3,-639.98 457.3,-630.71 457.3,-622.11"/>
<polygon fill="#1414ce" stroke="#1414ce" points="460.8,-622.1 457.3,-612.1 453.8,-622.1 460.8,-622.1"/>
</a>
</g>
</g>
<!-- 2&#45;&gt;29 -->
<g id="edge34" class="edge">
<title>2&#45;&gt;29</title>
<g id="a_edge34"><a xlink:title="include">
<path fill="none" stroke="#1414ce" d="M485.49,-654.33C547.52,-630.84 696.78,-574.32 777.79,-543.64"/>
<polygon fill="#1414ce" stroke="#1414ce" points="779.21,-546.85 787.32,-540.03 776.73,-540.3 779.21,-546.85"/>
</a>
</g>
</g>
<!-- 1 -->
<g id="node11" class="node">
<title>1</title>
<g id="a_node11"><a xlink:title="/__w/AtomVM/AtomVM/src/libAtomVM/otp_crypto.h">
<polygon fill="#bfbfbf" stroke="black" points="648.8,-756 265.8,-756 265.8,-720 648.8,-720 648.8,-756"/>
<text text-anchor="middle" x="457.3" y="-734.3" font-family="Times,serif" font-size="14.00">/__w/AtomVM/AtomVM/src/libAtomVM/otp_crypto.h</text>
</a>
</g>
</g>
<!-- 1&#45;&gt;2 -->
<g id="edge35" class="edge">
<title>1&#45;&gt;2</title>
<g id="a_edge35"><a xlink:title="include">
<path fill="none" stroke="#1414ce" d="M457.3,-719.7C457.3,-711.98 457.3,-702.71 457.3,-694.11"/>
<polygon fill="#1414ce" stroke="#1414ce" points="460.8,-694.1 457.3,-684.1 453.8,-694.1 460.8,-694.1"/>
</a>
</g>
</g>
<!-- 26 -->
<g id="node12" class="node">
<title>26</title>
<g id="a_node12"><a xlink:title="refc_binary.h">
<polygon fill="#ffffff" stroke="black" points="726.3,-396 618.3,-396 618.3,-360 726.3,-360 726.3,-396"/>
<text text-anchor="middle" x="672.3" y="-374.3" font-family="Times,serif" font-size="14.00">refc_binary.h</text>
</a>
</g>
</g>
<!-- 26&#45;&gt;15 -->
<g id="edge38" class="edge">
<title>26&#45;&gt;15</title>
<g id="a_edge38"><a xlink:title="include">
<path fill="none" stroke="#1414ce" d="M617.82,-361.13C566.11,-343.17 490.23,-308.78 448.3,-252 435.14,-234.17 430.7,-209.17 429.37,-190.2"/>
<polygon fill="#1414ce" stroke="#1414ce" points="432.86,-189.93 428.91,-180.1 425.87,-190.24 432.86,-189.93"/>
</a>
</g>
</g>
<!-- 27 -->
<g id="node13" class="node">
<title>27</title>
<g id="a_node13"><a xlink:title="resources.h">
<polygon fill="#ffffff" stroke="black" points="838.3,-324 738.3,-324 738.3,-288 838.3,-288 838.3,-324"/>
<text text-anchor="middle" x="788.3" y="-302.3" font-family="Times,serif" font-size="14.00">resources.h</text>
</a>
</g>
</g>
<!-- 26&#45;&gt;27 -->
<g id="edge39" class="edge">
<title>26&#45;&gt;27</title>
<g id="a_edge39"><a xlink:title="include">
<path fill="none" stroke="#1414ce" d="M700.68,-359.88C715.85,-350.72 734.71,-339.34 751.04,-329.48"/>
<polygon fill="#1414ce" stroke="#1414ce" points="753.06,-332.35 759.82,-324.19 749.45,-326.36 753.06,-332.35"/>
</a>
</g>
</g>
<!-- 26&#45;&gt;9 -->
<g id="edge36" class="edge">
<title>26&#45;&gt;9</title>
<g id="a_edge36"><a xlink:title="include">
<path fill="none" stroke="#1414ce" d="M677.51,-359.79C688.12,-323.22 709.98,-239.2 694.3,-216 659,-163.75 476.7,-120.01 385.87,-101.08"/>
<polygon fill="#1414ce" stroke="#1414ce" points="386.55,-97.64 376.05,-99.05 385.14,-104.5 386.55,-97.64"/>
</a>
</g>
</g>
<!-- 26&#45;&gt;5 -->
<g id="edge37" class="edge">
<title>26&#45;&gt;5</title>
<g id="a_edge37"><a xlink:title="include">
<path fill="none" stroke="#1414ce" d="M726.58,-375.91C766.45,-371.98 818.49,-359.7 847.3,-324 895.53,-264.25 882.85,-165.56 872.95,-118.12"/>
<polygon fill="#1414ce" stroke="#1414ce" points="876.35,-117.28 870.78,-108.27 869.51,-118.79 876.35,-117.28"/>
</a>
</g>
</g>
<!-- 27&#45;&gt;10 -->
<g id="edge41" class="edge">
<title>27&#45;&gt;10</title>
<g id="a_edge41"><a xlink:title="include">
<path fill="none" stroke="#1414ce" d="M838.62,-301.89C917.46,-296.17 1065.53,-281.72 1108.3,-252 1129.7,-237.13 1143.29,-210.2 1151.02,-189.84"/>
<polygon fill="#1414ce" stroke="#1414ce" points="1154.4,-190.77 1154.44,-180.17 1147.8,-188.43 1154.4,-190.77"/>
</a>
</g>
</g>
<!-- 27&#45;&gt;15 -->
<g id="edge42" class="edge">
<title>27&#45;&gt;15</title>
<g id="a_edge42"><a xlink:title="include">
<path fill="none" stroke="#1414ce" d="M738.12,-298.6C696.46,-291.68 636.73,-277.97 590.3,-252 570,-240.64 571.92,-228.51 552.3,-216 518.35,-194.35 503.11,-197.56 465.84,-181.84"/>
<polygon fill="#1414ce" stroke="#1414ce" points="466.99,-178.53 456.43,-177.68 464.16,-184.93 466.99,-178.53"/>
</a>
</g>
</g>
<!-- 27&#45;&gt;25 -->
<g id="edge43" class="edge">
<title>27&#45;&gt;25</title>
<g id="a_edge43"><a xlink:title="include">
<path fill="none" stroke="#1414ce" d="M838.4,-291.92C885.36,-279.65 955.32,-261.38 1003.22,-248.86"/>
<polygon fill="#1414ce" stroke="#1414ce" points="1004.3,-252.2 1013.09,-246.29 1002.53,-245.43 1004.3,-252.2"/>
</a>
</g>
</g>
<!-- 27&#45;&gt;21 -->
<g id="edge44" class="edge">
<title>27&#45;&gt;21</title>
<g id="a_edge44"><a xlink:title="include">
<path fill="none" stroke="#1414ce" d="M738.06,-294.45C691.11,-284.36 619.17,-268.31 557.3,-252 555.84,-251.61 554.35,-251.22 552.85,-250.81"/>
<polygon fill="#1414ce" stroke="#1414ce" points="553.43,-247.34 542.86,-248.02 551.55,-254.08 553.43,-247.34"/>
</a>
</g>
</g>
<!-- 27&#45;&gt;5 -->
<g id="edge40" class="edge">
<title>27&#45;&gt;5</title>
<g id="a_edge40"><a xlink:title="include">
<path fill="none" stroke="#1414ce" d="M794.55,-287.85C808.1,-250.68 840.26,-162.44 856.53,-117.82"/>
<polygon fill="#1414ce" stroke="#1414ce" points="859.89,-118.83 860.02,-108.23 853.31,-116.43 859.89,-118.83"/>
</a>
</g>
</g>
<!-- 20&#45;&gt;9 -->
<g id="edge45" class="edge">
<title>20&#45;&gt;9</title>
<g id="a_edge45"><a xlink:title="include">
<path fill="none" stroke="#1414ce" d="M276.34,-143.7C285.85,-135.05 297.51,-124.45 307.87,-115.03"/>
<polygon fill="#1414ce" stroke="#1414ce" points="310.44,-117.42 315.49,-108.1 305.73,-112.24 310.44,-117.42"/>
</a>
</g>
</g>
<!-- 21&#45;&gt;15 -->
<g id="edge47" class="edge">
<title>21&#45;&gt;15</title>
<g id="a_edge47"><a xlink:title="include">
<path fill="none" stroke="#1414ce" d="M482.75,-215.7C474.07,-207.14 463.44,-196.66 453.95,-187.3"/>
<polygon fill="#1414ce" stroke="#1414ce" points="456.23,-184.63 446.65,-180.1 451.32,-189.62 456.23,-184.63"/>
</a>
</g>
</g>
<!-- 21&#45;&gt;20 -->
<g id="edge48" class="edge">
<title>21&#45;&gt;20</title>
<g id="a_edge48"><a xlink:title="include">
<path fill="none" stroke="#1414ce" d="M457.7,-220.73C412.49,-207.7 341.61,-187.29 297.38,-174.55"/>
<polygon fill="#1414ce" stroke="#1414ce" points="298.14,-171.12 287.56,-171.72 296.2,-177.85 298.14,-171.12"/>
</a>
</g>
</g>
<!-- 19 -->
<g id="node26" class="node">
<title>19</title>
<g id="a_node26"><a xlink:title="stdio.h">
<polygon fill="#ffffff" stroke="black" points="689.8,-108 624.8,-108 624.8,-72 689.8,-72 689.8,-108"/>
<text text-anchor="middle" x="657.3" y="-86.3" font-family="Times,serif" font-size="14.00">stdio.h</text>
</a>
</g>
</g>
<!-- 21&#45;&gt;19 -->
<g id="edge46" class="edge">
<title>21&#45;&gt;19</title>
<g id="a_edge46"><a xlink:title="include">
<path fill="none" stroke="#1414ce" d="M519.24,-215.87C547.06,-190.71 599.09,-143.65 630.72,-115.04"/>
<polygon fill="#1414ce" stroke="#1414ce" points="633.23,-117.49 638.3,-108.19 628.53,-112.3 633.23,-117.49"/>
</a>
</g>
</g>
<!-- 22&#45;&gt;25 -->
<g id="edge55" class="edge">
<title>22&#45;&gt;25</title>
<g id="a_edge55"><a xlink:title="include">
<path fill="none" stroke="#1414ce" d="M898.95,-448.34C969.82,-446.14 1134.15,-436.66 1168.3,-396 1207.26,-349.61 1137.96,-289.93 1092.07,-257.85"/>
<polygon fill="#1414ce" stroke="#1414ce" points="1094.03,-254.95 1083.81,-252.18 1090.08,-260.72 1094.03,-254.95"/>
</a>
</g>
</g>
<!-- 22&#45;&gt;26 -->
<g id="edge56" class="edge">
<title>22&#45;&gt;26</title>
<g id="a_edge56"><a xlink:title="include">
<path fill="none" stroke="#1414ce" d="M833.39,-437.13C804.96,-426.87 763.22,-411.81 729.36,-399.59"/>
<polygon fill="#1414ce" stroke="#1414ce" points="730.17,-396.16 719.58,-396.06 727.8,-402.75 730.17,-396.16"/>
</a>
</g>
</g>
<!-- 22&#45;&gt;11 -->
<g id="edge58" class="edge">
<title>22&#45;&gt;11</title>
<g id="a_edge58"><a xlink:title="include">
<path fill="none" stroke="#1414ce" d="M899.01,-447.52C971.51,-443.64 1142.81,-430.92 1187.3,-396 1221.14,-369.45 1225.3,-350.01 1225.3,-307 1225.3,-307 1225.3,-307 1225.3,-233 1225.3,-192.46 1225.65,-179.07 1205.3,-144 1198.94,-133.03 1189.55,-123.04 1180.17,-114.76"/>
<polygon fill="#1414ce" stroke="#1414ce" points="1182.27,-111.96 1172.36,-108.23 1177.78,-117.33 1182.27,-111.96"/>
</a>
</g>
</g>
<!-- 22&#45;&gt;17 -->
<g id="edge57" class="edge">
<title>22&#45;&gt;17</title>
<g id="a_edge57"><a xlink:title="include">
<path fill="none" stroke="#1414ce" d="M866.65,-431.54C866.74,-401.39 864.6,-338.01 847.3,-288 835.04,-252.56 828.66,-243.63 803.3,-216 793.09,-204.86 780.22,-194.53 768.21,-186"/>
<polygon fill="#1414ce" stroke="#1414ce" points="769.88,-182.91 759.66,-180.13 765.92,-188.68 769.88,-182.91"/>
</a>
</g>
</g>
<!-- 22&#45;&gt;9 -->
<g id="edge50" class="edge">
<title>22&#45;&gt;9</title>
<g id="a_edge50"><a xlink:title="include">
<path fill="none" stroke="#1414ce" d="M833.6,-447.07C761.28,-441.13 585.88,-417.37 481.3,-324 413.52,-263.48 365.38,-164.46 345.06,-117.42"/>
<polygon fill="#1414ce" stroke="#1414ce" points="348.28,-116.04 341.15,-108.2 341.84,-118.77 348.28,-116.04"/>
</a>
</g>
</g>
<!-- 22&#45;&gt;4 -->
<g id="edge51" class="edge">
<title>22&#45;&gt;4</title>
<g id="a_edge51"><a xlink:title="include">
<path fill="none" stroke="#1414ce" d="M883.12,-431.79C914.83,-397.45 980.3,-316.67 980.3,-235 980.3,-235 980.3,-235 980.3,-161 980.3,-110.95 954.39,-97.46 911.3,-72 862.99,-43.46 701.56,-28.13 620.94,-22.09"/>
<polygon fill="#1414ce" stroke="#1414ce" points="620.81,-18.57 610.59,-21.34 620.3,-25.56 620.81,-18.57"/>
</a>
</g>
</g>
<!-- 22&#45;&gt;19 -->
<g id="edge52" class="edge">
<title>22&#45;&gt;19</title>
<g id="a_edge52"><a xlink:title="include">
<path fill="none" stroke="#1414ce" d="M838.39,-431.84C806.52,-410.65 755.44,-371.54 729.3,-324 705.82,-281.29 726.09,-262.11 710.3,-216 704.44,-198.88 698.77,-196.48 691.3,-180 682.02,-159.5 673,-135.65 666.59,-117.8"/>
<polygon fill="#1414ce" stroke="#1414ce" points="669.86,-116.57 663.22,-108.31 663.26,-118.91 669.86,-116.57"/>
</a>
</g>
</g>
<!-- 22&#45;&gt;5 -->
<g id="edge53" class="edge">
<title>22&#45;&gt;5</title>
<g id="a_edge53"><a xlink:title="include">
<path fill="none" stroke="#1414ce" d="M871.61,-431.86C885.32,-385.02 919.05,-251.26 893.3,-144 891.1,-134.81 887.01,-125.41 882.68,-117.13"/>
<polygon fill="#1414ce" stroke="#1414ce" points="885.7,-115.36 877.77,-108.33 879.59,-118.77 885.7,-115.36"/>
</a>
</g>
</g>
<!-- 24 -->
<g id="node28" class="node">
<title>24</title>
<g id="a_node28"><a xlink:title="string.h">
<polygon fill="#ffffff" stroke="black" points="1043.8,-396 970.8,-396 970.8,-360 1043.8,-360 1043.8,-396"/>
<text text-anchor="middle" x="1007.3" y="-374.3" font-family="Times,serif" font-size="14.00">string.h</text>
</a>
</g>
</g>
<!-- 22&#45;&gt;24 -->
<g id="edge54" class="edge">
<title>22&#45;&gt;24</title>
<g id="a_edge54"><a xlink:title="include">
<path fill="none" stroke="#1414ce" d="M899.01,-432.76C918.28,-423.2 942.91,-410.97 963.81,-400.59"/>
<polygon fill="#1414ce" stroke="#1414ce" points="965.41,-403.71 972.81,-396.12 962.3,-397.44 965.41,-403.71"/>
</a>
</g>
</g>
<!-- 23 -->
<g id="node29" class="node">
<title>23</title>
<g id="a_node29"><a xlink:title="sys/types.h">
<polygon fill="#ffffff" stroke="black" points="1158.8,-396 1061.8,-396 1061.8,-360 1158.8,-360 1158.8,-396"/>
<text text-anchor="middle" x="1110.3" y="-374.3" font-family="Times,serif" font-size="14.00">sys/types.h</text>
</a>
</g>
</g>
<!-- 22&#45;&gt;23 -->
<g id="edge49" class="edge">
<title>22&#45;&gt;23</title>
<g id="a_edge49"><a xlink:title="include">
<path fill="none" stroke="#1414ce" d="M899.11,-439.85C934.51,-429.94 992.79,-413.54 1051.66,-396.46"/>
<polygon fill="#1414ce" stroke="#1414ce" points="1052.87,-399.75 1061.5,-393.6 1050.92,-393.03 1052.87,-399.75"/>
</a>
</g>
</g>
<!-- 12 -->
<g id="node20" class="node">
<title>12</title>
<g id="a_node20"><a xlink:title="assert.h">
<polygon fill="#ffffff" stroke="black" points="1275.3,-36 1201.3,-36 1201.3,0 1275.3,0 1275.3,-36"/>
<text text-anchor="middle" x="1238.3" y="-14.3" font-family="Times,serif" font-size="14.00">assert.h</text>
</a>
</g>
</g>
<!-- 11&#45;&gt;12 -->
<g id="edge59" class="edge">
<title>11&#45;&gt;12</title>
<g id="a_edge59"><a xlink:title="include">
<path fill="none" stroke="#1414ce" d="M1169.8,-71.7C1181.26,-62.88 1195.36,-52.03 1207.79,-42.47"/>
<polygon fill="#1414ce" stroke="#1414ce" points="1210.27,-44.98 1216.07,-36.1 1206.01,-39.43 1210.27,-44.98"/>
</a>
</g>
</g>
<!-- 14 -->
<g id="node21" class="node">
<title>14</title>
<g id="a_node21"><a xlink:title="inttypes.h">
<polygon fill="#ffffff" stroke="black" points="1093.8,-36 1004.8,-36 1004.8,0 1093.8,0 1093.8,-36"/>
<text text-anchor="middle" x="1049.3" y="-14.3" font-family="Times,serif" font-size="14.00">inttypes.h</text>
</a>
</g>
</g>
<!-- 11&#45;&gt;14 -->
<g id="edge61" class="edge">
<title>11&#45;&gt;14</title>
<g id="a_edge61"><a xlink:title="include">
<path fill="none" stroke="#1414ce" d="M1123.33,-71.88C1110.75,-62.89 1095.17,-51.76 1081.55,-42.03"/>
<polygon fill="#1414ce" stroke="#1414ce" points="1083.54,-39.15 1073.37,-36.19 1079.47,-44.85 1083.54,-39.15"/>
</a>
</g>
</g>
<!-- 13 -->
<g id="node22" class="node">
<title>13</title>
<g id="a_node22"><a xlink:title="limits.h">
<polygon fill="#ffffff" stroke="black" points="1182.8,-36 1111.8,-36 1111.8,0 1182.8,0 1182.8,-36"/>
<text text-anchor="middle" x="1147.3" y="-14.3" font-family="Times,serif" font-size="14.00">limits.h</text>
</a>
</g>
</g>
<!-- 11&#45;&gt;13 -->
<g id="edge60" class="edge">
<title>11&#45;&gt;13</title>
<g id="a_edge60"><a xlink:title="include">
<path fill="none" stroke="#1414ce" d="M1147.3,-71.7C1147.3,-63.98 1147.3,-54.71 1147.3,-46.11"/>
<polygon fill="#1414ce" stroke="#1414ce" points="1150.8,-46.1 1147.3,-36.1 1143.8,-46.1 1150.8,-46.1"/>
</a>
</g>
</g>
<!-- 11&#45;&gt;4 -->
<g id="edge62" class="edge">
<title>11&#45;&gt;4</title>
<g id="a_edge62"><a xlink:title="include">
<path fill="none" stroke="#1414ce" d="M1084.8,-74.59C1079.91,-73.65 1075.03,-72.77 1070.3,-72 906.04,-45.18 708.87,-28.76 620.78,-22.24"/>
<polygon fill="#1414ce" stroke="#1414ce" points="620.81,-18.73 610.58,-21.49 620.3,-25.71 620.81,-18.73"/>
</a>
</g>
</g>
<!-- 28&#45;&gt;15 -->
<g id="edge65" class="edge">
<title>28&#45;&gt;15</title>
<g id="a_edge65"><a xlink:title="include">
<path fill="none" stroke="#1414ce" d="M135.45,-222.97C204.79,-208.82 329.82,-183.3 392.04,-170.61"/>
<polygon fill="#1414ce" stroke="#1414ce" points="393.08,-173.96 402.18,-168.53 391.68,-167.11 393.08,-173.96"/>
</a>
</g>
</g>
<!-- 28&#45;&gt;9 -->
<g id="edge63" class="edge">
<title>28&#45;&gt;9</title>
<g id="a_edge63"><a xlink:title="include">
<path fill="none" stroke="#1414ce" d="M109.4,-215.71C135.19,-196.83 178.52,-166.3 218.3,-144 239.07,-132.36 262.86,-121.15 283.47,-112.06"/>
<polygon fill="#1414ce" stroke="#1414ce" points="284.92,-115.24 292.69,-108.03 282.12,-108.82 284.92,-115.24"/>
</a>
</g>
</g>
<!-- 28&#45;&gt;4 -->
<g id="edge64" class="edge">
<title>28&#45;&gt;4</title>
<g id="a_edge64"><a xlink:title="include">
<path fill="none" stroke="#1414ce" d="M91.36,-215.88C102.31,-182.06 131.69,-106.93 185.3,-72 240.92,-35.76 437.11,-23.99 527.76,-20.43"/>
<polygon fill="#1414ce" stroke="#1414ce" points="528.15,-23.91 538.01,-20.04 527.89,-16.92 528.15,-23.91"/>
</a>
</g>
</g>
<!-- 18 -->
<g id="node24" class="node">
<title>18</title>
<g id="a_node24"><a xlink:title="stddef.h">
<polygon fill="#ffffff" stroke="black" points="782.3,-108 708.3,-108 708.3,-72 782.3,-72 782.3,-108"/>
<text text-anchor="middle" x="745.3" y="-86.3" font-family="Times,serif" font-size="14.00">stddef.h</text>
</a>
</g>
</g>
<!-- 17&#45;&gt;18 -->
<g id="edge66" class="edge">
<title>17&#45;&gt;18</title>
<g id="a_edge66"><a xlink:title="include">
<path fill="none" stroke="#1414ce" d="M734.76,-143.7C736.31,-135.98 738.16,-126.71 739.88,-118.11"/>
<polygon fill="#1414ce" stroke="#1414ce" points="743.35,-118.6 741.88,-108.1 736.49,-117.22 743.35,-118.6"/>
</a>
</g>
</g>
<!-- 17&#45;&gt;19 -->
<g id="edge67" class="edge">
<title>17&#45;&gt;19</title>
<g id="a_edge67"><a xlink:title="include">
<path fill="none" stroke="#1414ce" d="M713.01,-143.7C703.87,-135.05 692.66,-124.45 682.7,-115.03"/>
<polygon fill="#1414ce" stroke="#1414ce" points="685.05,-112.43 675.38,-108.1 680.24,-117.52 685.05,-112.43"/>
</a>
</g>
</g>
<!-- 17&#45;&gt;5 -->
<g id="edge68" class="edge">
<title>17&#45;&gt;5</title>
<g id="a_edge68"><a xlink:title="include">
<path fill="none" stroke="#1414ce" d="M762.61,-144.76C780.99,-135.24 804.44,-123.08 824.39,-112.73"/>
<polygon fill="#1414ce" stroke="#1414ce" points="826.01,-115.83 833.28,-108.12 822.79,-109.62 826.01,-115.83"/>
</a>
</g>
</g>
</g>
</svg>
