<?xml version="1.0" encoding="UTF-8" standalone="no"?>
<!DOCTYPE svg PUBLIC "-//W3C//DTD SVG 1.1//EN"
 "http://www.w3.org/Graphics/SVG/1.1/DTD/svg11.dtd">
<!-- Generated by graphviz version 2.43.0 (0)
 -->
<!-- Title: %3 Pages: 1 -->
<svg width="1430pt" height="764pt"
 viewBox="0.00 0.00 1430.00 764.00" xmlns="http://www.w3.org/2000/svg" xmlns:xlink="http://www.w3.org/1999/xlink">
<g id="graph0" class="graph" transform="scale(1 1) rotate(0) translate(4 760)">
<title>%3</title>
<polygon fill="transparent" stroke="transparent" points="-4,4 -4,-760 1426,-760 1426,4 -4,4"/>
<!-- 9 -->
<g id="node1" class="node">
<title>9</title>
<g id="a_node1"><a xlink:title="stdbool.h">
<polygon fill="#ffffff" stroke="black" points="996.5,-108 913.5,-108 913.5,-72 996.5,-72 996.5,-108"/>
<text text-anchor="middle" x="955" y="-86.3" font-family="Times,serif" font-size="14.00">stdbool.h</text>
</a>
</g>
</g>
<!-- 26 -->
<g id="node2" class="node">
<title>26</title>
<g id="a_node2"><a xlink:title="refc_binary.h">
<polygon fill="#ffffff" stroke="black" points="602,-396 494,-396 494,-360 602,-360 602,-396"/>
<text text-anchor="middle" x="548" y="-374.3" font-family="Times,serif" font-size="14.00">refc_binary.h</text>
</a>
</g>
</g>
<!-- 26&#45;&gt;9 -->
<g id="edge1" class="edge">
<title>26&#45;&gt;9</title>
<g id="a_edge1"><a xlink:title="include">
<path fill="none" stroke="#1414ce" d="M575.53,-359.95C588.15,-350.78 602.22,-338.4 611,-324 653.72,-253.95 592.53,-200.53 652,-144 687.31,-110.44 826.15,-97.8 903.05,-93.3"/>
<polygon fill="#1414ce" stroke="#1414ce" points="903.68,-96.77 913.47,-92.72 903.29,-89.78 903.68,-96.77"/>
</a>
</g>
</g>
<!-- 15 -->
<g id="node7" class="node">
<title>15</title>
<g id="a_node7"><a xlink:title="list.h">
<polygon fill="#ffffff" stroke="black" points="911,-180 857,-180 857,-144 911,-144 911,-180"/>
<text text-anchor="middle" x="884" y="-158.3" font-family="Times,serif" font-size="14.00">list.h</text>
</a>
</g>
</g>
<!-- 26&#45;&gt;15 -->
<g id="edge3" class="edge">
<title>26&#45;&gt;15</title>
<g id="a_edge3"><a xlink:title="include">
<path fill="none" stroke="#1414ce" d="M602.09,-362.74C661.68,-344.86 757.71,-309.38 823,-252 843.19,-234.25 859.92,-208.43 870.71,-189.17"/>
<polygon fill="#1414ce" stroke="#1414ce" points="873.83,-190.76 875.53,-180.3 867.68,-187.42 873.83,-190.76"/>
</a>
</g>
</g>
<!-- 7 -->
<g id="node9" class="node">
<title>7</title>
<g id="a_node9"><a xlink:title="stdlib.h">
<polygon fill="#ffffff" stroke="black" points="544.5,-108 473.5,-108 473.5,-72 544.5,-72 544.5,-108"/>
<text text-anchor="middle" x="509" y="-86.3" font-family="Times,serif" font-size="14.00">stdlib.h</text>
</a>
</g>
</g>
<!-- 26&#45;&gt;7 -->
<g id="edge2" class="edge">
<title>26&#45;&gt;7</title>
<g id="a_edge2"><a xlink:title="include">
<path fill="none" stroke="#1414ce" d="M522.62,-359.95C511.29,-350.79 499.12,-338.4 493,-324 485.14,-305.51 499.04,-175.96 505.72,-118.42"/>
<polygon fill="#1414ce" stroke="#1414ce" points="509.23,-118.58 506.92,-108.24 502.27,-117.77 509.23,-118.58"/>
</a>
</g>
</g>
<!-- 27 -->
<g id="node12" class="node">
<title>27</title>
<g id="a_node12"><a xlink:title="resources.h">
<polygon fill="#ffffff" stroke="black" points="602,-324 502,-324 502,-288 602,-288 602,-324"/>
<text text-anchor="middle" x="552" y="-302.3" font-family="Times,serif" font-size="14.00">resources.h</text>
</a>
</g>
</g>
<!-- 26&#45;&gt;27 -->
<g id="edge4" class="edge">
<title>26&#45;&gt;27</title>
<g id="a_edge4"><a xlink:title="include">
<path fill="none" stroke="#1414ce" d="M548.99,-359.7C549.43,-351.98 549.96,-342.71 550.45,-334.11"/>
<polygon fill="#1414ce" stroke="#1414ce" points="553.95,-334.29 551.02,-324.1 546.96,-333.89 553.95,-334.29"/>
</a>
</g>
</g>
<!-- 6 -->
<g id="node3" class="node">
<title>6</title>
<g id="a_node3"><a xlink:title="atom.h">
<polygon fill="#ffffff" stroke="black" points="1079,-180 1013,-180 1013,-144 1079,-144 1079,-180"/>
<text text-anchor="middle" x="1046" y="-158.3" font-family="Times,serif" font-size="14.00">atom.h</text>
</a>
</g>
</g>
<!-- 5 -->
<g id="node8" class="node">
<title>5</title>
<g id="a_node8"><a xlink:title="stdint.h">
<polygon fill="#ffffff" stroke="black" points="584,-36 512,-36 512,0 584,0 584,-36"/>
<text text-anchor="middle" x="548" y="-14.3" font-family="Times,serif" font-size="14.00">stdint.h</text>
</a>
</g>
</g>
<!-- 6&#45;&gt;5 -->
<g id="edge5" class="edge">
<title>6&#45;&gt;5</title>
<g id="a_edge5"><a xlink:title="include">
<path fill="none" stroke="#1414ce" d="M1012.94,-151.57C926.41,-126.9 693.12,-60.38 593.79,-32.06"/>
<polygon fill="#1414ce" stroke="#1414ce" points="594.61,-28.65 584.04,-29.28 592.69,-35.38 594.61,-28.65"/>
</a>
</g>
</g>
<!-- 6&#45;&gt;7 -->
<g id="edge6" class="edge">
<title>6&#45;&gt;7</title>
<g id="a_edge6"><a xlink:title="include">
<path fill="none" stroke="#1414ce" d="M1012.88,-156.2C987.49,-152.6 951.57,-147.68 920,-144 760.54,-125.43 714.34,-145.04 554.93,-108.12"/>
<polygon fill="#1414ce" stroke="#1414ce" points="555.3,-104.61 544.77,-105.73 553.7,-111.43 555.3,-104.61"/>
</a>
</g>
</g>
<!-- 12 -->
<g id="node4" class="node">
<title>12</title>
<g id="a_node4"><a xlink:title="assert.h">
<polygon fill="#ffffff" stroke="black" points="74,-36 0,-36 0,0 74,0 74,-36"/>
<text text-anchor="middle" x="37" y="-14.3" font-family="Times,serif" font-size="14.00">assert.h</text>
</a>
</g>
</g>
<!-- 17 -->
<g id="node5" class="node">
<title>17</title>
<g id="a_node5"><a xlink:title="utils.h">
<polygon fill="#ffffff" stroke="black" points="486,-180 424,-180 424,-144 486,-144 486,-180"/>
<text text-anchor="middle" x="455" y="-158.3" font-family="Times,serif" font-size="14.00">utils.h</text>
</a>
</g>
</g>
<!-- 17&#45;&gt;7 -->
<g id="edge9" class="edge">
<title>17&#45;&gt;7</title>
<g id="a_edge9"><a xlink:title="include">
<path fill="none" stroke="#1414ce" d="M468.35,-143.7C474.76,-135.39 482.56,-125.28 489.61,-116.14"/>
<polygon fill="#1414ce" stroke="#1414ce" points="492.47,-118.16 495.81,-108.1 486.93,-113.88 492.47,-118.16"/>
</a>
</g>
</g>
<!-- 18 -->
<g id="node14" class="node">
<title>18</title>
<g id="a_node14"><a xlink:title="stddef.h">
<polygon fill="#ffffff" stroke="black" points="455,-108 381,-108 381,-72 455,-72 455,-108"/>
<text text-anchor="middle" x="418" y="-86.3" font-family="Times,serif" font-size="14.00">stddef.h</text>
</a>
</g>
</g>
<!-- 17&#45;&gt;18 -->
<g id="edge7" class="edge">
<title>17&#45;&gt;18</title>
<g id="a_edge7"><a xlink:title="include">
<path fill="none" stroke="#1414ce" d="M445.85,-143.7C441.6,-135.64 436.44,-125.89 431.73,-116.98"/>
<polygon fill="#1414ce" stroke="#1414ce" points="434.81,-115.31 427.04,-108.1 428.62,-118.58 434.81,-115.31"/>
</a>
</g>
</g>
<!-- 19 -->
<g id="node27" class="node">
<title>19</title>
<g id="a_node27"><a xlink:title="stdio.h">
<polygon fill="#ffffff" stroke="black" points="627.5,-108 562.5,-108 562.5,-72 627.5,-72 627.5,-108"/>
<text text-anchor="middle" x="595" y="-86.3" font-family="Times,serif" font-size="14.00">stdio.h</text>
</a>
</g>
</g>
<!-- 17&#45;&gt;19 -->
<g id="edge8" class="edge">
<title>17&#45;&gt;19</title>
<g id="a_edge8"><a xlink:title="include">
<path fill="none" stroke="#1414ce" d="M486.07,-145.46C505.72,-135.64 531.37,-122.82 552.84,-112.08"/>
<polygon fill="#1414ce" stroke="#1414ce" points="554.69,-115.07 562.07,-107.47 551.56,-108.81 554.69,-115.07"/>
</a>
</g>
</g>
<!-- 21 -->
<g id="node6" class="node">
<title>21</title>
<g id="a_node6"><a xlink:title="synclist.h">
<polygon fill="#ffffff" stroke="black" points="1035.5,-252 950.5,-252 950.5,-216 1035.5,-216 1035.5,-252"/>
<text text-anchor="middle" x="993" y="-230.3" font-family="Times,serif" font-size="14.00">synclist.h</text>
</a>
</g>
</g>
<!-- 21&#45;&gt;15 -->
<g id="edge11" class="edge">
<title>21&#45;&gt;15</title>
<g id="a_edge11"><a xlink:title="include">
<path fill="none" stroke="#1414ce" d="M966.34,-215.88C952.22,-206.81 934.69,-195.55 919.44,-185.76"/>
<polygon fill="#1414ce" stroke="#1414ce" points="921.07,-182.65 910.77,-180.19 917.29,-188.54 921.07,-182.65"/>
</a>
</g>
</g>
<!-- 20 -->
<g id="node24" class="node">
<title>20</title>
<g id="a_node24"><a xlink:title="smp.h">
<polygon fill="#ffffff" stroke="black" points="1238,-180 1178,-180 1178,-144 1238,-144 1238,-180"/>
<text text-anchor="middle" x="1208" y="-158.3" font-family="Times,serif" font-size="14.00">smp.h</text>
</a>
</g>
</g>
<!-- 21&#45;&gt;20 -->
<g id="edge12" class="edge">
<title>21&#45;&gt;20</title>
<g id="a_edge12"><a xlink:title="include">
<path fill="none" stroke="#1414ce" d="M1035.73,-219.09C1074.29,-206.53 1130.58,-188.21 1168.2,-175.96"/>
<polygon fill="#1414ce" stroke="#1414ce" points="1169.39,-179.25 1177.81,-172.83 1167.22,-172.6 1169.39,-179.25"/>
</a>
</g>
</g>
<!-- 21&#45;&gt;19 -->
<g id="edge10" class="edge">
<title>21&#45;&gt;19</title>
<g id="a_edge10"><a xlink:title="include">
<path fill="none" stroke="#1414ce" d="M983.99,-215.72C972.23,-195.04 949.61,-161.06 920,-144 872.69,-116.74 715.04,-100.65 638.05,-94.24"/>
<polygon fill="#1414ce" stroke="#1414ce" points="637.99,-90.73 627.74,-93.4 637.42,-97.7 637.99,-90.73"/>
</a>
</g>
</g>
<!-- 3 -->
<g id="node10" class="node">
<title>3</title>
<g id="a_node10"><a xlink:title="context.h">
<polygon fill="#ffffff" stroke="black" points="979.5,-612 896.5,-612 896.5,-576 979.5,-576 979.5,-612"/>
<text text-anchor="middle" x="938" y="-590.3" font-family="Times,serif" font-size="14.00">context.h</text>
</a>
</g>
</g>
<!-- 3&#45;&gt;15 -->
<g id="edge14" class="edge">
<title>3&#45;&gt;15</title>
<g id="a_edge14"><a xlink:title="include">
<path fill="none" stroke="#1414ce" d="M926.81,-575.87C910.99,-549.96 884,-498.74 884,-451 884,-451 884,-451 884,-305 884,-265 884,-218.65 884,-190.08"/>
<polygon fill="#1414ce" stroke="#1414ce" points="887.5,-190.05 884,-180.05 880.5,-190.05 887.5,-190.05"/>
</a>
</g>
</g>
<!-- 22 -->
<g id="node13" class="node">
<title>22</title>
<g id="a_node13"><a xlink:title="term.h">
<polygon fill="#ffffff" stroke="black" points="449.5,-468 384.5,-468 384.5,-432 449.5,-432 449.5,-468"/>
<text text-anchor="middle" x="417" y="-446.3" font-family="Times,serif" font-size="14.00">term.h</text>
</a>
</g>
</g>
<!-- 3&#45;&gt;22 -->
<g id="edge17" class="edge">
<title>3&#45;&gt;22</title>
<g id="a_edge17"><a xlink:title="include">
<path fill="none" stroke="#1414ce" d="M896.25,-581.62C798.88,-555.08 557.62,-489.33 459.51,-462.59"/>
<polygon fill="#1414ce" stroke="#1414ce" points="460.22,-459.15 449.65,-459.9 458.38,-465.9 460.22,-459.15"/>
</a>
</g>
</g>
<!-- 4 -->
<g id="node23" class="node">
<title>4</title>
<g id="a_node23"><a xlink:title="globalcontext.h">
<polygon fill="#ffffff" stroke="black" points="1056.5,-540 929.5,-540 929.5,-504 1056.5,-504 1056.5,-540"/>
<text text-anchor="middle" x="993" y="-518.3" font-family="Times,serif" font-size="14.00">globalcontext.h</text>
</a>
</g>
</g>
<!-- 3&#45;&gt;4 -->
<g id="edge13" class="edge">
<title>3&#45;&gt;4</title>
<g id="a_edge13"><a xlink:title="include">
<path fill="none" stroke="#1414ce" d="M951.6,-575.7C958.12,-567.39 966.07,-557.28 973.25,-548.14"/>
<polygon fill="#1414ce" stroke="#1414ce" points="976.13,-550.13 979.56,-540.1 970.63,-545.81 976.13,-550.13"/>
</a>
</g>
</g>
<!-- 3&#45;&gt;20 -->
<g id="edge16" class="edge">
<title>3&#45;&gt;20</title>
<g id="a_edge16"><a xlink:title="include">
<path fill="none" stroke="#1414ce" d="M979.85,-583C1037.38,-567.34 1141.13,-532 1206,-468 1286.37,-388.71 1271.27,-323.89 1238,-216 1235.12,-206.65 1230.4,-197.14 1225.55,-188.8"/>
<polygon fill="#1414ce" stroke="#1414ce" points="1228.53,-186.96 1220.31,-180.27 1222.56,-190.63 1228.53,-186.96"/>
</a>
</g>
</g>
<!-- 28 -->
<g id="node25" class="node">
<title>28</title>
<g id="a_node25"><a xlink:title="timer_list.h">
<polygon fill="#ffffff" stroke="black" points="1394,-252 1296,-252 1296,-216 1394,-216 1394,-252"/>
<text text-anchor="middle" x="1345" y="-230.3" font-family="Times,serif" font-size="14.00">timer_list.h</text>
</a>
</g>
</g>
<!-- 3&#45;&gt;28 -->
<g id="edge18" class="edge">
<title>3&#45;&gt;28</title>
<g id="a_edge18"><a xlink:title="include">
<path fill="none" stroke="#1414ce" d="M979.53,-591.33C1066.26,-587.18 1263.31,-574.18 1320,-540 1361.72,-514.84 1384,-499.72 1384,-451 1384,-451 1384,-451 1384,-377 1384,-335.56 1368.36,-289.67 1356.89,-261.58"/>
<polygon fill="#1414ce" stroke="#1414ce" points="1360,-259.93 1352.89,-252.07 1353.55,-262.65 1360,-259.93"/>
</a>
</g>
</g>
<!-- 16 -->
<g id="node26" class="node">
<title>16</title>
<g id="a_node26"><a xlink:title="mailbox.h">
<polygon fill="#ffffff" stroke="black" points="780,-252 694,-252 694,-216 780,-216 780,-252"/>
<text text-anchor="middle" x="737" y="-230.3" font-family="Times,serif" font-size="14.00">mailbox.h</text>
</a>
</g>
</g>
<!-- 3&#45;&gt;16 -->
<g id="edge15" class="edge">
<title>3&#45;&gt;16</title>
<g id="a_edge15"><a xlink:title="include">
<path fill="none" stroke="#1414ce" d="M898.07,-575.87C853.94,-553.93 789,-511.39 789,-451 789,-451 789,-451 789,-377 789,-334.49 768.2,-288.95 752.91,-261.22"/>
<polygon fill="#1414ce" stroke="#1414ce" points="755.76,-259.15 747.77,-252.19 749.67,-262.61 755.76,-259.15"/>
</a>
</g>
</g>
<!-- 25 -->
<g id="node11" class="node">
<title>25</title>
<g id="a_node11"><a xlink:title="memory.h">
<polygon fill="#ffffff" stroke="black" points="363,-252 277,-252 277,-216 363,-216 363,-252"/>
<text text-anchor="middle" x="320" y="-230.3" font-family="Times,serif" font-size="14.00">memory.h</text>
</a>
</g>
</g>
<!-- 25&#45;&gt;17 -->
<g id="edge23" class="edge">
<title>25&#45;&gt;17</title>
<g id="a_edge23"><a xlink:title="include">
<path fill="none" stroke="#1414ce" d="M353.02,-215.88C371.62,-206.23 395,-194.11 414.67,-183.91"/>
<polygon fill="#1414ce" stroke="#1414ce" points="416.44,-186.94 423.71,-179.23 413.22,-180.72 416.44,-186.94"/>
</a>
</g>
</g>
<!-- 25&#45;&gt;5 -->
<g id="edge19" class="edge">
<title>25&#45;&gt;5</title>
<g id="a_edge19"><a xlink:title="include">
<path fill="none" stroke="#1414ce" d="M317.51,-215.78C315.52,-197.49 314.2,-167.95 322,-144 334.06,-106.95 340.48,-94.89 372,-72 410.47,-44.06 463.78,-30.69 501.62,-24.39"/>
<polygon fill="#1414ce" stroke="#1414ce" points="502.51,-27.8 511.86,-22.8 501.44,-20.88 502.51,-27.8"/>
</a>
</g>
</g>
<!-- 25&#45;&gt;7 -->
<g id="edge20" class="edge">
<title>25&#45;&gt;7</title>
<g id="a_edge20"><a xlink:title="include">
<path fill="none" stroke="#1414ce" d="M319.9,-215.87C320.73,-195.97 325.15,-163.39 344,-144 380.69,-106.26 408.12,-123.65 463.35,-107.86"/>
<polygon fill="#1414ce" stroke="#1414ce" points="464.72,-111.1 473.22,-104.77 462.63,-104.42 464.72,-111.1"/>
</a>
</g>
</g>
<!-- 10 -->
<g id="node15" class="node">
<title>10</title>
<g id="a_node15"><a xlink:title="erl_nif.h">
<polygon fill="#ffffff" stroke="black" points="178,-180 104,-180 104,-144 178,-144 178,-180"/>
<text text-anchor="middle" x="141" y="-158.3" font-family="Times,serif" font-size="14.00">erl_nif.h</text>
</a>
</g>
</g>
<!-- 25&#45;&gt;10 -->
<g id="edge21" class="edge">
<title>25&#45;&gt;10</title>
<g id="a_edge21"><a xlink:title="include">
<path fill="none" stroke="#1414ce" d="M276.67,-216.05C249.74,-205.52 215.12,-191.99 187.6,-181.22"/>
<polygon fill="#1414ce" stroke="#1414ce" points="188.77,-177.92 178.18,-177.54 186.22,-184.44 188.77,-177.92"/>
</a>
</g>
</g>
<!-- 11 -->
<g id="node22" class="node">
<title>11</title>
<g id="a_node22"><a xlink:title="term_typedef.h">
<polygon fill="#ffffff" stroke="black" points="190.5,-108 65.5,-108 65.5,-72 190.5,-72 190.5,-108"/>
<text text-anchor="middle" x="128" y="-86.3" font-family="Times,serif" font-size="14.00">term_typedef.h</text>
</a>
</g>
</g>
<!-- 25&#45;&gt;11 -->
<g id="edge22" class="edge">
<title>25&#45;&gt;11</title>
<g id="a_edge22"><a xlink:title="include">
<path fill="none" stroke="#1414ce" d="M296.84,-215.87C262.53,-190.5 198.11,-142.85 159.53,-114.32"/>
<polygon fill="#1414ce" stroke="#1414ce" points="161.36,-111.32 151.24,-108.19 157.2,-116.95 161.36,-111.32"/>
</a>
</g>
</g>
<!-- 27&#45;&gt;21 -->
<g id="edge28" class="edge">
<title>27&#45;&gt;21</title>
<g id="a_edge28"><a xlink:title="include">
<path fill="none" stroke="#1414ce" d="M602.16,-297.04C686.22,-283.7 854.74,-256.95 940.4,-243.35"/>
<polygon fill="#1414ce" stroke="#1414ce" points="941.1,-246.78 950.43,-241.76 940,-239.87 941.1,-246.78"/>
</a>
</g>
</g>
<!-- 27&#45;&gt;15 -->
<g id="edge26" class="edge">
<title>27&#45;&gt;15</title>
<g id="a_edge26"><a xlink:title="include">
<path fill="none" stroke="#1414ce" d="M602.3,-301.49C652.18,-296.27 729.55,-283.44 789,-252 797.19,-247.67 833.89,-212.35 859.2,-187.53"/>
<polygon fill="#1414ce" stroke="#1414ce" points="861.97,-189.72 866.64,-180.21 857.06,-184.72 861.97,-189.72"/>
</a>
</g>
</g>
<!-- 27&#45;&gt;7 -->
<g id="edge24" class="edge">
<title>27&#45;&gt;7</title>
<g id="a_edge24"><a xlink:title="include">
<path fill="none" stroke="#1414ce" d="M550.56,-287.86C547.82,-258.2 540.94,-195.53 528,-144 525.83,-135.37 522.81,-126.18 519.8,-117.92"/>
<polygon fill="#1414ce" stroke="#1414ce" points="523.02,-116.52 516.21,-108.4 516.47,-118.99 523.02,-116.52"/>
</a>
</g>
</g>
<!-- 27&#45;&gt;25 -->
<g id="edge27" class="edge">
<title>27&#45;&gt;25</title>
<g id="a_edge27"><a xlink:title="include">
<path fill="none" stroke="#1414ce" d="M501.95,-289.9C464.04,-278.46 412.06,-262.78 373.37,-251.1"/>
<polygon fill="#1414ce" stroke="#1414ce" points="373.92,-247.61 363.33,-248.07 371.9,-254.31 373.92,-247.61"/>
</a>
</g>
</g>
<!-- 27&#45;&gt;10 -->
<g id="edge25" class="edge">
<title>27&#45;&gt;10</title>
<g id="a_edge25"><a xlink:title="include">
<path fill="none" stroke="#1414ce" d="M501.93,-302.09C443.71,-297.27 345.68,-284.65 268,-252 229.87,-235.97 191.76,-207.13 167.39,-186.62"/>
<polygon fill="#1414ce" stroke="#1414ce" points="169.54,-183.86 159.67,-180.02 164.99,-189.18 169.54,-183.86"/>
</a>
</g>
</g>
<!-- 22&#45;&gt;9 -->
<g id="edge30" class="edge">
<title>22&#45;&gt;9</title>
<g id="a_edge30"><a xlink:title="include">
<path fill="none" stroke="#1414ce" d="M449.78,-444.94C503.28,-437.67 606.02,-420.84 632,-396 692.27,-338.36 635,-282.75 685,-216 738.1,-145.12 841.18,-113.11 903.48,-99.7"/>
<polygon fill="#1414ce" stroke="#1414ce" points="904.4,-103.08 913.49,-97.63 902.99,-96.23 904.4,-103.08"/>
</a>
</g>
</g>
<!-- 22&#45;&gt;26 -->
<g id="edge36" class="edge">
<title>22&#45;&gt;26</title>
<g id="a_edge36"><a xlink:title="include">
<path fill="none" stroke="#1414ce" d="M449.05,-431.88C466.49,-422.55 488.27,-410.92 506.94,-400.94"/>
<polygon fill="#1414ce" stroke="#1414ce" points="508.66,-403.99 515.83,-396.19 505.36,-397.82 508.66,-403.99"/>
</a>
</g>
</g>
<!-- 22&#45;&gt;17 -->
<g id="edge37" class="edge">
<title>22&#45;&gt;17</title>
<g id="a_edge37"><a xlink:title="include">
<path fill="none" stroke="#1414ce" d="M419.26,-431.97C425.61,-384.19 443.62,-248.62 451.38,-190.27"/>
<polygon fill="#1414ce" stroke="#1414ce" points="454.85,-190.68 452.7,-180.31 447.91,-189.76 454.85,-190.68"/>
</a>
</g>
</g>
<!-- 22&#45;&gt;5 -->
<g id="edge31" class="edge">
<title>22&#45;&gt;5</title>
<g id="a_edge31"><a xlink:title="include">
<path fill="none" stroke="#1414ce" d="M384.32,-445.23C313.3,-436.71 149.94,-415.21 134,-396 123.78,-383.69 129.24,-375.27 134,-360 180.32,-211.47 204.94,-160.35 333,-72 383.75,-36.99 455.29,-25.04 501.65,-21.01"/>
<polygon fill="#1414ce" stroke="#1414ce" points="502.03,-24.49 511.72,-20.22 501.48,-17.51 502.03,-24.49"/>
</a>
</g>
</g>
<!-- 22&#45;&gt;7 -->
<g id="edge33" class="edge">
<title>22&#45;&gt;7</title>
<g id="a_edge33"><a xlink:title="include">
<path fill="none" stroke="#1414ce" d="M411.29,-431.95C396.01,-383.06 359.04,-239.79 415,-144 420.85,-133.99 443.03,-121.26 464.37,-110.79"/>
<polygon fill="#1414ce" stroke="#1414ce" points="465.91,-113.93 473.42,-106.45 462.89,-107.62 465.91,-113.93"/>
</a>
</g>
</g>
<!-- 22&#45;&gt;25 -->
<g id="edge35" class="edge">
<title>22&#45;&gt;25</title>
<g id="a_edge35"><a xlink:title="include">
<path fill="none" stroke="#1414ce" d="M405.19,-431.79C398.5,-421.63 390.25,-408.38 384,-396 361,-350.45 340.38,-294.57 329.08,-262.05"/>
<polygon fill="#1414ce" stroke="#1414ce" points="332.31,-260.68 325.75,-252.36 325.69,-262.95 332.31,-260.68"/>
</a>
</g>
</g>
<!-- 23 -->
<g id="node20" class="node">
<title>23</title>
<g id="a_node20"><a xlink:title="sys/types.h">
<polygon fill="#ffffff" stroke="black" points="240.5,-396 143.5,-396 143.5,-360 240.5,-360 240.5,-396"/>
<text text-anchor="middle" x="192" y="-374.3" font-family="Times,serif" font-size="14.00">sys/types.h</text>
</a>
</g>
</g>
<!-- 22&#45;&gt;23 -->
<g id="edge29" class="edge">
<title>22&#45;&gt;23</title>
<g id="a_edge29"><a xlink:title="include">
<path fill="none" stroke="#1414ce" d="M384.28,-438.82C349.23,-427.92 292.89,-410.39 250.23,-397.12"/>
<polygon fill="#1414ce" stroke="#1414ce" points="251.12,-393.73 240.53,-394.1 249.04,-400.41 251.12,-393.73"/>
</a>
</g>
</g>
<!-- 24 -->
<g id="node21" class="node">
<title>24</title>
<g id="a_node21"><a xlink:title="string.h">
<polygon fill="#ffffff" stroke="black" points="331.5,-396 258.5,-396 258.5,-360 331.5,-360 331.5,-396"/>
<text text-anchor="middle" x="295" y="-374.3" font-family="Times,serif" font-size="14.00">string.h</text>
</a>
</g>
</g>
<!-- 22&#45;&gt;24 -->
<g id="edge34" class="edge">
<title>22&#45;&gt;24</title>
<g id="a_edge34"><a xlink:title="include">
<path fill="none" stroke="#1414ce" d="M387.16,-431.88C371.06,-422.64 351,-411.13 333.71,-401.21"/>
<polygon fill="#1414ce" stroke="#1414ce" points="335.37,-398.13 324.96,-396.19 331.89,-404.2 335.37,-398.13"/>
</a>
</g>
</g>
<!-- 22&#45;&gt;11 -->
<g id="edge38" class="edge">
<title>22&#45;&gt;11</title>
<g id="a_edge38"><a xlink:title="include">
<path fill="none" stroke="#1414ce" d="M384.32,-448.54C311.14,-446.77 137.66,-438.12 101,-396 27.45,-311.49 64.21,-251.72 95,-144 97.71,-134.51 102.67,-125.06 107.93,-116.83"/>
<polygon fill="#1414ce" stroke="#1414ce" points="110.92,-118.67 113.67,-108.43 105.14,-114.72 110.92,-118.67"/>
</a>
</g>
</g>
<!-- 22&#45;&gt;19 -->
<g id="edge32" class="edge">
<title>22&#45;&gt;19</title>
<g id="a_edge32"><a xlink:title="include">
<path fill="none" stroke="#1414ce" d="M449.78,-444.84C499.82,-437.74 591.51,-421.53 611,-396 643.84,-352.98 614.13,-184.63 600.75,-118.19"/>
<polygon fill="#1414ce" stroke="#1414ce" points="604.11,-117.17 598.68,-108.08 597.25,-118.57 604.11,-117.17"/>
</a>
</g>
</g>
<!-- 10&#45;&gt;11 -->
<g id="edge39" class="edge">
<title>10&#45;&gt;11</title>
<g id="a_edge39"><a xlink:title="include">
<path fill="none" stroke="#1414ce" d="M137.79,-143.7C136.35,-135.98 134.63,-126.71 133.04,-118.11"/>
<polygon fill="#1414ce" stroke="#1414ce" points="136.44,-117.3 131.18,-108.1 129.56,-118.58 136.44,-117.3"/>
</a>
</g>
</g>
<!-- 1 -->
<g id="node16" class="node">
<title>1</title>
<g id="a_node16"><a xlink:title="/__w/AtomVM/AtomVM/src/libAtomVM/debug.c">
<polygon fill="#bfbfbf" stroke="black" points="1113,-756 763,-756 763,-720 1113,-720 1113,-756"/>
<text text-anchor="middle" x="938" y="-734.3" font-family="Times,serif" font-size="14.00">/__w/AtomVM/AtomVM/src/libAtomVM/debug.c</text>
</a>
</g>
</g>
<!-- 2 -->
<g id="node17" class="node">
<title>2</title>
<g id="a_node17"><a xlink:title="debug.h">
<polygon fill="#ffffff" stroke="black" points="975,-684 901,-684 901,-648 975,-648 975,-684"/>
<text text-anchor="middle" x="938" y="-662.3" font-family="Times,serif" font-size="14.00">debug.h</text>
</a>
</g>
</g>
<!-- 1&#45;&gt;2 -->
<g id="edge40" class="edge">
<title>1&#45;&gt;2</title>
<g id="a_edge40"><a xlink:title="include">
<path fill="none" stroke="#1414ce" d="M938,-719.7C938,-711.98 938,-702.71 938,-694.11"/>
<polygon fill="#1414ce" stroke="#1414ce" points="941.5,-694.1 938,-684.1 934.5,-694.1 941.5,-694.1"/>
</a>
</g>
</g>
<!-- 2&#45;&gt;3 -->
<g id="edge41" class="edge">
<title>2&#45;&gt;3</title>
<g id="a_edge41"><a xlink:title="include">
<path fill="none" stroke="#1414ce" d="M938,-647.7C938,-639.98 938,-630.71 938,-622.11"/>
<polygon fill="#1414ce" stroke="#1414ce" points="941.5,-622.1 938,-612.1 934.5,-622.1 941.5,-622.1"/>
</a>
</g>
</g>
<!-- 13 -->
<g id="node18" class="node">
<title>13</title>
<g id="a_node18"><a xlink:title="limits.h">
<polygon fill="#ffffff" stroke="black" points="163.5,-36 92.5,-36 92.5,0 163.5,0 163.5,-36"/>
<text text-anchor="middle" x="128" y="-14.3" font-family="Times,serif" font-size="14.00">limits.h</text>
</a>
</g>
</g>
<!-- 8 -->
<g id="node19" class="node">
<title>8</title>
<g id="a_node19"><a xlink:title="atom_table.h">
<polygon fill="#ffffff" stroke="black" points="1201.5,-252 1092.5,-252 1092.5,-216 1201.5,-216 1201.5,-252"/>
<text text-anchor="middle" x="1147" y="-230.3" font-family="Times,serif" font-size="14.00">atom_table.h</text>
</a>
</g>
</g>
<!-- 8&#45;&gt;9 -->
<g id="edge42" class="edge">
<title>8&#45;&gt;9</title>
<g id="a_edge42"><a xlink:title="include">
<path fill="none" stroke="#1414ce" d="M1139.61,-215.99C1130.24,-196.21 1112.32,-163.76 1088,-144 1064.39,-124.82 1032.97,-111.87 1006.59,-103.57"/>
<polygon fill="#1414ce" stroke="#1414ce" points="1007.34,-100.14 996.75,-100.61 1005.32,-106.84 1007.34,-100.14"/>
</a>
</g>
</g>
<!-- 8&#45;&gt;6 -->
<g id="edge43" class="edge">
<title>8&#45;&gt;6</title>
<g id="a_edge43"><a xlink:title="include">
<path fill="none" stroke="#1414ce" d="M1122.29,-215.88C1109.33,-206.89 1093.27,-195.76 1079.23,-186.03"/>
<polygon fill="#1414ce" stroke="#1414ce" points="1081.02,-183.01 1070.8,-180.19 1077.03,-188.76 1081.02,-183.01"/>
</a>
</g>
</g>
<!-- 11&#45;&gt;12 -->
<g id="edge44" class="edge">
<title>11&#45;&gt;12</title>
<g id="a_edge44"><a xlink:title="include">
<path fill="none" stroke="#1414ce" d="M105.51,-71.7C94.04,-62.88 79.94,-52.03 67.52,-42.47"/>
<polygon fill="#1414ce" stroke="#1414ce" points="69.3,-39.43 59.24,-36.1 65.03,-44.98 69.3,-39.43"/>
</a>
</g>
</g>
<!-- 11&#45;&gt;5 -->
<g id="edge47" class="edge">
<title>11&#45;&gt;5</title>
<g id="a_edge47"><a xlink:title="include">
<path fill="none" stroke="#1414ce" d="M190.55,-74.84C195.43,-73.84 200.29,-72.88 205,-72 310.69,-52.19 435.7,-34.24 501.74,-25.19"/>
<polygon fill="#1414ce" stroke="#1414ce" points="502.39,-28.63 511.82,-23.81 501.44,-21.7 502.39,-28.63"/>
</a>
</g>
</g>
<!-- 11&#45;&gt;13 -->
<g id="edge45" class="edge">
<title>11&#45;&gt;13</title>
<g id="a_edge45"><a xlink:title="include">
<path fill="none" stroke="#1414ce" d="M128,-71.7C128,-63.98 128,-54.71 128,-46.11"/>
<polygon fill="#1414ce" stroke="#1414ce" points="131.5,-46.1 128,-36.1 124.5,-46.1 131.5,-46.1"/>
</a>
</g>
</g>
<!-- 14 -->
<g id="node28" class="node">
<title>14</title>
<g id="a_node28"><a xlink:title="inttypes.h">
<polygon fill="#ffffff" stroke="black" points="270.5,-36 181.5,-36 181.5,0 270.5,0 270.5,-36"/>
<text text-anchor="middle" x="226" y="-14.3" font-family="Times,serif" font-size="14.00">inttypes.h</text>
</a>
</g>
</g>
<!-- 11&#45;&gt;14 -->
<g id="edge46" class="edge">
<title>11&#45;&gt;14</title>
<g id="a_edge46"><a xlink:title="include">
<path fill="none" stroke="#1414ce" d="M151.97,-71.88C164.55,-62.89 180.13,-51.76 193.75,-42.03"/>
<polygon fill="#1414ce" stroke="#1414ce" points="195.83,-44.85 201.93,-36.19 191.76,-39.15 195.83,-44.85"/>
</a>
</g>
</g>
<!-- 4&#45;&gt;6 -->
<g id="edge49" class="edge">
<title>4&#45;&gt;6</title>
<g id="a_edge49"><a xlink:title="include">
<path fill="none" stroke="#1414ce" d="M1008.41,-503.58C1029.29,-478.1 1064,-428.34 1064,-379 1064,-379 1064,-379 1064,-305 1064,-264.9 1056.85,-218.92 1051.56,-190.42"/>
<polygon fill="#1414ce" stroke="#1414ce" points="1054.96,-189.56 1049.64,-180.4 1048.08,-190.88 1054.96,-189.56"/>
</a>
</g>
</g>
<!-- 4&#45;&gt;21 -->
<g id="edge55" class="edge">
<title>4&#45;&gt;21</title>
<g id="a_edge55"><a xlink:title="include">
<path fill="none" stroke="#1414ce" d="M993,-503.97C993,-456.29 993,-321.18 993,-262.63"/>
<polygon fill="#1414ce" stroke="#1414ce" points="996.5,-262.31 993,-252.31 989.5,-262.31 996.5,-262.31"/>
</a>
</g>
</g>
<!-- 4&#45;&gt;15 -->
<g id="edge52" class="edge">
<title>4&#45;&gt;15</title>
<g id="a_edge52"><a xlink:title="include">
<path fill="none" stroke="#1414ce" d="M977.59,-503.58C956.71,-478.1 922,-428.34 922,-379 922,-379 922,-379 922,-305 922,-263.63 906.77,-217.72 895.59,-189.61"/>
<polygon fill="#1414ce" stroke="#1414ce" points="898.72,-188.02 891.69,-180.09 892.24,-190.67 898.72,-188.02"/>
</a>
</g>
</g>
<!-- 4&#45;&gt;5 -->
<g id="edge48" class="edge">
<title>4&#45;&gt;5</title>
<g id="a_edge48"><a xlink:title="include">
<path fill="none" stroke="#1414ce" d="M1056.76,-517.8C1176.27,-508.01 1422,-468.26 1422,-307 1422,-307 1422,-307 1422,-161 1422,-33.38 1274.03,-97.55 1149,-72 945.31,-30.38 696.21,-21.44 594.55,-19.52"/>
<polygon fill="#1414ce" stroke="#1414ce" points="594.37,-16.02 584.31,-19.34 594.25,-23.02 594.37,-16.02"/>
</a>
</g>
</g>
<!-- 4&#45;&gt;22 -->
<g id="edge56" class="edge">
<title>4&#45;&gt;22</title>
<g id="a_edge56"><a xlink:title="include">
<path fill="none" stroke="#1414ce" d="M929.43,-513.27C811.18,-498.9 560.27,-468.41 459.86,-456.21"/>
<polygon fill="#1414ce" stroke="#1414ce" points="460.13,-452.72 449.78,-454.98 459.28,-459.66 460.13,-452.72"/>
</a>
</g>
</g>
<!-- 4&#45;&gt;10 -->
<g id="edge51" class="edge">
<title>4&#45;&gt;10</title>
<g id="a_edge51"><a xlink:title="include">
<path fill="none" stroke="#1414ce" d="M929.38,-519.14C816.82,-515.04 575.55,-502.69 375,-468 250.93,-446.54 177.89,-495.71 101,-396 53.28,-334.12 98.66,-235.41 125.06,-188.88"/>
<polygon fill="#1414ce" stroke="#1414ce" points="128.2,-190.44 130.21,-180.03 122.15,-186.92 128.2,-190.44"/>
</a>
</g>
</g>
<!-- 4&#45;&gt;8 -->
<g id="edge50" class="edge">
<title>4&#45;&gt;8</title>
<g id="a_edge50"><a xlink:title="include">
<path fill="none" stroke="#1414ce" d="M1033.1,-503.8C1049.09,-495.15 1066.41,-483.22 1078,-468 1126.02,-404.91 1140.72,-308.88 1145.14,-262.28"/>
<polygon fill="#1414ce" stroke="#1414ce" points="1148.65,-262.33 1146.02,-252.06 1141.68,-261.73 1148.65,-262.33"/>
</a>
</g>
</g>
<!-- 4&#45;&gt;20 -->
<g id="edge54" class="edge">
<title>4&#45;&gt;20</title>
<g id="a_edge54"><a xlink:title="include">
<path fill="none" stroke="#1414ce" d="M1056.51,-511.03C1126.71,-495.98 1230,-460.06 1230,-379 1230,-379 1230,-379 1230,-305 1230,-264.74 1221.26,-218.81 1214.79,-190.36"/>
<polygon fill="#1414ce" stroke="#1414ce" points="1218.14,-189.29 1212.45,-180.35 1211.32,-190.89 1218.14,-189.29"/>
</a>
</g>
</g>
<!-- 4&#45;&gt;28 -->
<g id="edge57" class="edge">
<title>4&#45;&gt;28</title>
<g id="a_edge57"><a xlink:title="include">
<path fill="none" stroke="#1414ce" d="M1056.58,-514.26C1121.24,-506.26 1215.8,-491.03 1244,-468 1309.21,-414.73 1333.34,-311.26 1341.38,-262.14"/>
<polygon fill="#1414ce" stroke="#1414ce" points="1344.84,-262.67 1342.91,-252.25 1337.93,-261.6 1344.84,-262.67"/>
</a>
</g>
</g>
<!-- 4&#45;&gt;16 -->
<g id="edge53" class="edge">
<title>4&#45;&gt;16</title>
<g id="a_edge53"><a xlink:title="include">
<path fill="none" stroke="#1414ce" d="M957.15,-503.77C940.82,-494.71 922.05,-482.47 908,-468 843.48,-401.55 863.45,-358.17 803,-288 793.67,-277.18 781.91,-266.93 770.91,-258.38"/>
<polygon fill="#1414ce" stroke="#1414ce" points="772.79,-255.42 762.7,-252.2 768.58,-261.01 772.79,-255.42"/>
</a>
</g>
</g>
<!-- 20&#45;&gt;9 -->
<g id="edge58" class="edge">
<title>20&#45;&gt;9</title>
<g id="a_edge58"><a xlink:title="include">
<path fill="none" stroke="#1414ce" d="M1177.98,-152.7C1135.77,-141.02 1058.27,-119.57 1006.68,-105.3"/>
<polygon fill="#1414ce" stroke="#1414ce" points="1007.3,-101.84 996.72,-102.54 1005.43,-108.58 1007.3,-101.84"/>
</a>
</g>
</g>
<!-- 28&#45;&gt;9 -->
<g id="edge59" class="edge">
<title>28&#45;&gt;9</title>
<g id="a_edge59"><a xlink:title="include">
<path fill="none" stroke="#1414ce" d="M1331.42,-215.83C1314.13,-195.26 1282.24,-161.39 1247,-144 1169.26,-105.63 1067.56,-94.81 1006.99,-91.89"/>
<polygon fill="#1414ce" stroke="#1414ce" points="1007.04,-88.39 996.9,-91.46 1006.74,-95.38 1007.04,-88.39"/>
</a>
</g>
</g>
<!-- 28&#45;&gt;15 -->
<g id="edge61" class="edge">
<title>28&#45;&gt;15</title>
<g id="a_edge61"><a xlink:title="include">
<path fill="none" stroke="#1414ce" d="M1295.66,-225.51C1202.78,-211.4 1003.86,-181.2 921.2,-168.65"/>
<polygon fill="#1414ce" stroke="#1414ce" points="921.67,-165.18 911.25,-167.14 920.62,-172.1 921.67,-165.18"/>
</a>
</g>
</g>
<!-- 28&#45;&gt;5 -->
<g id="edge60" class="edge">
<title>28&#45;&gt;5</title>
<g id="a_edge60"><a xlink:title="include">
<path fill="none" stroke="#1414ce" d="M1338.19,-215.8C1329.27,-195.52 1311.68,-162.26 1286,-144 1173.38,-63.92 738.53,-30.62 594.58,-21.65"/>
<polygon fill="#1414ce" stroke="#1414ce" points="594.52,-18.14 584.32,-21.02 594.09,-25.12 594.52,-18.14"/>
</a>
</g>
</g>
<!-- 16&#45;&gt;9 -->
<g id="edge62" class="edge">
<title>16&#45;&gt;9</title>
<g id="a_edge62"><a xlink:title="include">
<path fill="none" stroke="#1414ce" d="M755.69,-215.91C777.02,-196.93 813.43,-166.05 848,-144 866.31,-132.32 887.57,-121.32 906.28,-112.4"/>
<polygon fill="#1414ce" stroke="#1414ce" points="907.95,-115.48 915.52,-108.06 904.98,-109.14 907.95,-115.48"/>
</a>
</g>
</g>
<!-- 16&#45;&gt;17 -->
<g id="edge65" class="edge">
<title>16&#45;&gt;17</title>
<g id="a_edge65"><a xlink:title="include">
<path fill="none" stroke="#1414ce" d="M693.86,-222.29C640.09,-208.94 548.84,-186.29 496.05,-173.19"/>
<polygon fill="#1414ce" stroke="#1414ce" points="496.89,-169.79 486.34,-170.78 495.21,-176.59 496.89,-169.79"/>
</a>
</g>
</g>
<!-- 16&#45;&gt;15 -->
<g id="edge63" class="edge">
<title>16&#45;&gt;15</title>
<g id="a_edge63"><a xlink:title="include">
<path fill="none" stroke="#1414ce" d="M772.96,-215.88C795.57,-205.11 824.66,-191.26 847.39,-180.43"/>
<polygon fill="#1414ce" stroke="#1414ce" points="849.18,-183.46 856.71,-176 846.17,-177.14 849.18,-183.46"/>
</a>
</g>
</g>
<!-- 16&#45;&gt;11 -->
<g id="edge64" class="edge">
<title>16&#45;&gt;11</title>
<g id="a_edge64"><a xlink:title="include">
<path fill="none" stroke="#1414ce" d="M693.92,-227.83C631.8,-219.93 513.7,-203.31 415,-180 334.13,-160.9 242.79,-131.11 185.31,-111.33"/>
<polygon fill="#1414ce" stroke="#1414ce" points="186.28,-107.96 175.68,-108 183.99,-114.58 186.28,-107.96"/>
</a>
</g>
</g>
</g>
</svg>
