<?xml version="1.0" encoding="UTF-8" standalone="no"?>
<!DOCTYPE svg PUBLIC "-//W3C//DTD SVG 1.1//EN"
 "http://www.w3.org/Graphics/SVG/1.1/DTD/svg11.dtd">
<!-- Generated by graphviz version 2.43.0 (0)
 -->
<!-- Title: %3 Pages: 1 -->
<svg width="1366pt" height="836pt"
 viewBox="0.00 0.00 1365.50 836.00" xmlns="http://www.w3.org/2000/svg" xmlns:xlink="http://www.w3.org/1999/xlink">
<g id="graph0" class="graph" transform="scale(1 1) rotate(0) translate(4 832)">
<title>%3</title>
<polygon fill="transparent" stroke="transparent" points="-4,4 -4,-832 1361.5,-832 1361.5,4 -4,4"/>
<!-- 6 -->
<g id="node1" class="node">
<title>6</title>
<g id="a_node1"><a xlink:title="atom.h">
<polygon fill="#ffffff" stroke="black" points="253,-396 187,-396 187,-360 253,-360 253,-396"/>
<text text-anchor="middle" x="220" y="-374.3" font-family="Times,serif" font-size="14.00">atom.h</text>
</a>
</g>
</g>
<!-- 5 -->
<g id="node29" class="node">
<title>5</title>
<g id="a_node29"><a xlink:title="stdint.h">
<polygon fill="#ffffff" stroke="black" points="516,-36 444,-36 444,0 516,0 516,-36"/>
<text text-anchor="middle" x="480" y="-14.3" font-family="Times,serif" font-size="14.00">stdint.h</text>
</a>
</g>
</g>
<!-- 6&#45;&gt;5 -->
<g id="edge1" class="edge">
<title>6&#45;&gt;5</title>
<g id="a_edge1"><a xlink:title="include">
<path fill="none" stroke="#1414ce" d="M197.54,-359.97C168.33,-335.71 121,-288.19 121,-235 121,-235 121,-235 121,-161 121,-94.47 336.88,-45.73 433.83,-27.2"/>
<polygon fill="#1414ce" stroke="#1414ce" points="434.76,-30.59 443.93,-25.3 433.46,-23.71 434.76,-30.59"/>
</a>
</g>
</g>
<!-- 7 -->
<g id="node31" class="node">
<title>7</title>
<g id="a_node31"><a xlink:title="stdlib.h">
<polygon fill="#ffffff" stroke="black" points="814.5,-108 743.5,-108 743.5,-72 814.5,-72 814.5,-108"/>
<text text-anchor="middle" x="779" y="-86.3" font-family="Times,serif" font-size="14.00">stdlib.h</text>
</a>
</g>
</g>
<!-- 6&#45;&gt;7 -->
<g id="edge2" class="edge">
<title>6&#45;&gt;7</title>
<g id="a_edge2"><a xlink:title="include">
<path fill="none" stroke="#1414ce" d="M233.14,-359.95C258.91,-327.56 319.37,-256.73 385,-216 498.85,-145.34 656.22,-111.26 733.06,-97.99"/>
<polygon fill="#1414ce" stroke="#1414ce" points="734.08,-101.36 743.36,-96.25 732.92,-94.46 734.08,-101.36"/>
</a>
</g>
</g>
<!-- 8 -->
<g id="node2" class="node">
<title>8</title>
<g id="a_node2"><a xlink:title="atom_table.h">
<polygon fill="#ffffff" stroke="black" points="213.5,-468 104.5,-468 104.5,-432 213.5,-432 213.5,-468"/>
<text text-anchor="middle" x="159" y="-446.3" font-family="Times,serif" font-size="14.00">atom_table.h</text>
</a>
</g>
</g>
<!-- 8&#45;&gt;6 -->
<g id="edge4" class="edge">
<title>8&#45;&gt;6</title>
<g id="a_edge4"><a xlink:title="include">
<path fill="none" stroke="#1414ce" d="M174.08,-431.7C181.39,-423.3 190.31,-413.07 198.34,-403.86"/>
<polygon fill="#1414ce" stroke="#1414ce" points="201.16,-405.94 205.09,-396.1 195.89,-401.34 201.16,-405.94"/>
</a>
</g>
</g>
<!-- 9 -->
<g id="node27" class="node">
<title>9</title>
<g id="a_node27"><a xlink:title="stdbool.h">
<polygon fill="#ffffff" stroke="black" points="349.5,-108 266.5,-108 266.5,-72 349.5,-72 349.5,-108"/>
<text text-anchor="middle" x="308" y="-86.3" font-family="Times,serif" font-size="14.00">stdbool.h</text>
</a>
</g>
</g>
<!-- 8&#45;&gt;9 -->
<g id="edge3" class="edge">
<title>8&#45;&gt;9</title>
<g id="a_edge3"><a xlink:title="include">
<path fill="none" stroke="#1414ce" d="M159,-431.95C159,-405.29 159,-352.11 159,-307 159,-307 159,-307 159,-233 159,-176.62 215.6,-135.8 259.03,-112.77"/>
<polygon fill="#1414ce" stroke="#1414ce" points="260.77,-115.81 268.07,-108.13 257.58,-109.58 260.77,-115.81"/>
</a>
</g>
</g>
<!-- 30 -->
<g id="node3" class="node">
<title>30</title>
<g id="a_node3"><a xlink:title="atomshashtable.h">
<polygon fill="#ffffff" stroke="black" points="293.5,-540 150.5,-540 150.5,-504 293.5,-504 293.5,-540"/>
<text text-anchor="middle" x="222" y="-518.3" font-family="Times,serif" font-size="14.00">atomshashtable.h</text>
</a>
</g>
</g>
<!-- 30&#45;&gt;6 -->
<g id="edge5" class="edge">
<title>30&#45;&gt;6</title>
<g id="a_edge5"><a xlink:title="include">
<path fill="none" stroke="#1414ce" d="M222.19,-503.94C222.35,-486.02 222.47,-457.03 222,-432 221.84,-423.68 221.55,-414.63 221.23,-406.4"/>
<polygon fill="#1414ce" stroke="#1414ce" points="224.72,-406.03 220.81,-396.18 217.72,-406.32 224.72,-406.03"/>
</a>
</g>
</g>
<!-- 3 -->
<g id="node4" class="node">
<title>3</title>
<g id="a_node4"><a xlink:title="context.h">
<polygon fill="#ffffff" stroke="black" points="656.5,-612 573.5,-612 573.5,-576 656.5,-576 656.5,-612"/>
<text text-anchor="middle" x="615" y="-590.3" font-family="Times,serif" font-size="14.00">context.h</text>
</a>
</g>
</g>
<!-- 4 -->
<g id="node8" class="node">
<title>4</title>
<g id="a_node8"><a xlink:title="globalcontext.h">
<polygon fill="#ffffff" stroke="black" points="532.5,-540 405.5,-540 405.5,-504 532.5,-504 532.5,-540"/>
<text text-anchor="middle" x="469" y="-518.3" font-family="Times,serif" font-size="14.00">globalcontext.h</text>
</a>
</g>
</g>
<!-- 3&#45;&gt;4 -->
<g id="edge6" class="edge">
<title>3&#45;&gt;4</title>
<g id="a_edge6"><a xlink:title="include">
<path fill="none" stroke="#1414ce" d="M579.28,-575.88C559.5,-566.39 534.73,-554.51 513.67,-544.42"/>
<polygon fill="#1414ce" stroke="#1414ce" points="515.13,-541.24 504.6,-540.07 512.1,-547.55 515.13,-541.24"/>
</a>
</g>
</g>
<!-- 15 -->
<g id="node9" class="node">
<title>15</title>
<g id="a_node9"><a xlink:title="list.h">
<polygon fill="#ffffff" stroke="black" points="661,-180 607,-180 607,-144 661,-144 661,-180"/>
<text text-anchor="middle" x="634" y="-158.3" font-family="Times,serif" font-size="14.00">list.h</text>
</a>
</g>
</g>
<!-- 3&#45;&gt;15 -->
<g id="edge7" class="edge">
<title>3&#45;&gt;15</title>
<g id="a_edge7"><a xlink:title="include">
<path fill="none" stroke="#1414ce" d="M653.5,-575.87C711.15,-547.8 817.77,-486.01 861,-396 867.93,-381.58 870.46,-372.91 861,-360 829.59,-317.14 794.13,-348.52 747,-324 700.32,-299.71 681.12,-296.48 653,-252 641.28,-233.47 636.69,-208.88 634.93,-190.24"/>
<polygon fill="#1414ce" stroke="#1414ce" points="638.41,-189.77 634.2,-180.05 631.43,-190.27 638.41,-189.77"/>
</a>
</g>
</g>
<!-- 16 -->
<g id="node10" class="node">
<title>16</title>
<g id="a_node10"><a xlink:title="mailbox.h">
<polygon fill="#ffffff" stroke="black" points="966,-252 880,-252 880,-216 966,-216 966,-252"/>
<text text-anchor="middle" x="923" y="-230.3" font-family="Times,serif" font-size="14.00">mailbox.h</text>
</a>
</g>
</g>
<!-- 3&#45;&gt;16 -->
<g id="edge8" class="edge">
<title>3&#45;&gt;16</title>
<g id="a_edge8"><a xlink:title="include">
<path fill="none" stroke="#1414ce" d="M656.56,-591.1C766.23,-585.7 1057.2,-568.8 1089,-540 1118.98,-512.85 1108,-491.45 1108,-451 1108,-451 1108,-451 1108,-377 1108,-309.97 1030.63,-270.25 975.95,-250.55"/>
<polygon fill="#1414ce" stroke="#1414ce" points="976.97,-247.19 966.37,-247.21 974.67,-253.81 976.97,-247.19"/>
</a>
</g>
</g>
<!-- 20 -->
<g id="node15" class="node">
<title>20</title>
<g id="a_node15"><a xlink:title="smp.h">
<polygon fill="#ffffff" stroke="black" points="338,-180 278,-180 278,-144 338,-144 338,-180"/>
<text text-anchor="middle" x="308" y="-158.3" font-family="Times,serif" font-size="14.00">smp.h</text>
</a>
</g>
</g>
<!-- 3&#45;&gt;20 -->
<g id="edge9" class="edge">
<title>3&#45;&gt;20</title>
<g id="a_edge9"><a xlink:title="include">
<path fill="none" stroke="#1414ce" d="M573.32,-588.02C517.03,-580.47 420.87,-564.36 396,-540 297.56,-443.57 300.36,-259.78 305.37,-190.41"/>
<polygon fill="#1414ce" stroke="#1414ce" points="308.87,-190.54 306.18,-180.3 301.89,-189.98 308.87,-190.54"/>
</a>
</g>
</g>
<!-- 22 -->
<g id="node19" class="node">
<title>22</title>
<g id="a_node19"><a xlink:title="term.h">
<polygon fill="#ffffff" stroke="black" points="950.5,-468 885.5,-468 885.5,-432 950.5,-432 950.5,-468"/>
<text text-anchor="middle" x="918" y="-446.3" font-family="Times,serif" font-size="14.00">term.h</text>
</a>
</g>
</g>
<!-- 3&#45;&gt;22 -->
<g id="edge10" class="edge">
<title>3&#45;&gt;22</title>
<g id="a_edge10"><a xlink:title="include">
<path fill="none" stroke="#1414ce" d="M656.82,-590.5C703.84,-586.08 781.03,-573.84 838,-540 864.45,-524.29 887.07,-496.97 901.44,-476.74"/>
<polygon fill="#1414ce" stroke="#1414ce" points="904.47,-478.5 907.26,-468.28 898.71,-474.53 904.47,-478.5"/>
</a>
</g>
</g>
<!-- 28 -->
<g id="node21" class="node">
<title>28</title>
<g id="a_node21"><a xlink:title="timer_list.h">
<polygon fill="#ffffff" stroke="black" points="492,-252 394,-252 394,-216 492,-216 492,-252"/>
<text text-anchor="middle" x="443" y="-230.3" font-family="Times,serif" font-size="14.00">timer_list.h</text>
</a>
</g>
</g>
<!-- 3&#45;&gt;28 -->
<g id="edge11" class="edge">
<title>3&#45;&gt;28</title>
<g id="a_edge11"><a xlink:title="include">
<path fill="none" stroke="#1414ce" d="M606.7,-575.73C578.95,-517.96 489.18,-331.13 455.73,-261.49"/>
<polygon fill="#1414ce" stroke="#1414ce" points="458.7,-259.59 451.21,-252.09 452.39,-262.62 458.7,-259.59"/>
</a>
</g>
</g>
<!-- 33 -->
<g id="node5" class="node">
<title>33</title>
<g id="a_node5"><a xlink:title="defaultatoms.h">
<polygon fill="#ffffff" stroke="black" points="514,-684 390,-684 390,-648 514,-648 514,-684"/>
<text text-anchor="middle" x="452" y="-662.3" font-family="Times,serif" font-size="14.00">defaultatoms.h</text>
</a>
</g>
</g>
<!-- 33&#45;&gt;4 -->
<g id="edge12" class="edge">
<title>33&#45;&gt;4</title>
<g id="a_edge12"><a xlink:title="include">
<path fill="none" stroke="#1414ce" d="M454.05,-647.87C456.95,-623.67 462.27,-579.21 465.72,-550.39"/>
<polygon fill="#1414ce" stroke="#1414ce" points="469.23,-550.53 466.94,-540.19 462.28,-549.7 469.23,-550.53"/>
</a>
</g>
</g>
<!-- 10 -->
<g id="node6" class="node">
<title>10</title>
<g id="a_node6"><a xlink:title="erl_nif.h">
<polygon fill="#ffffff" stroke="black" points="1262,-180 1188,-180 1188,-144 1262,-144 1262,-180"/>
<text text-anchor="middle" x="1225" y="-158.3" font-family="Times,serif" font-size="14.00">erl_nif.h</text>
</a>
</g>
</g>
<!-- 11 -->
<g id="node20" class="node">
<title>11</title>
<g id="a_node20"><a xlink:title="term_typedef.h">
<polygon fill="#ffffff" stroke="black" points="1275.5,-108 1150.5,-108 1150.5,-72 1275.5,-72 1275.5,-108"/>
<text text-anchor="middle" x="1213" y="-86.3" font-family="Times,serif" font-size="14.00">term_typedef.h</text>
</a>
</g>
</g>
<!-- 10&#45;&gt;11 -->
<g id="edge13" class="edge">
<title>10&#45;&gt;11</title>
<g id="a_edge13"><a xlink:title="include">
<path fill="none" stroke="#1414ce" d="M1222.03,-143.7C1220.71,-135.98 1219.12,-126.71 1217.65,-118.11"/>
<polygon fill="#1414ce" stroke="#1414ce" points="1221.07,-117.37 1215.93,-108.1 1214.17,-118.55 1221.07,-117.37"/>
</a>
</g>
</g>
<!-- 31 -->
<g id="node7" class="node">
<title>31</title>
<g id="a_node7"><a xlink:title="exportedfunction.h">
<polygon fill="#ffffff" stroke="black" points="1080,-540 928,-540 928,-504 1080,-504 1080,-540"/>
<text text-anchor="middle" x="1004" y="-518.3" font-family="Times,serif" font-size="14.00">exportedfunction.h</text>
</a>
</g>
</g>
<!-- 31&#45;&gt;22 -->
<g id="edge14" class="edge">
<title>31&#45;&gt;22</title>
<g id="a_edge14"><a xlink:title="include">
<path fill="none" stroke="#1414ce" d="M982.74,-503.7C971.91,-494.88 958.58,-484.03 946.84,-474.47"/>
<polygon fill="#1414ce" stroke="#1414ce" points="948.98,-471.7 939.01,-468.1 944.56,-477.13 948.98,-471.7"/>
</a>
</g>
</g>
<!-- 4&#45;&gt;6 -->
<g id="edge16" class="edge">
<title>4&#45;&gt;6</title>
<g id="a_edge16"><a xlink:title="include">
<path fill="none" stroke="#1414ce" d="M438.96,-503.87C393.91,-478.18 308.82,-429.65 259.01,-401.25"/>
<polygon fill="#1414ce" stroke="#1414ce" points="260.56,-398.1 250.14,-396.19 257.09,-404.18 260.56,-398.1"/>
</a>
</g>
</g>
<!-- 4&#45;&gt;8 -->
<g id="edge17" class="edge">
<title>4&#45;&gt;8</title>
<g id="a_edge17"><a xlink:title="include">
<path fill="none" stroke="#1414ce" d="M405.14,-506.58C352.11,-494.61 277,-477.64 223.72,-465.62"/>
<polygon fill="#1414ce" stroke="#1414ce" points="224.23,-462.14 213.71,-463.35 222.69,-468.97 224.23,-462.14"/>
</a>
</g>
</g>
<!-- 4&#45;&gt;10 -->
<g id="edge18" class="edge">
<title>4&#45;&gt;10</title>
<g id="a_edge18"><a xlink:title="include">
<path fill="none" stroke="#1414ce" d="M532.7,-520.96C627.61,-519.38 810.96,-510.46 960,-468 1031.12,-447.74 1052.85,-442.92 1110,-396 1171.83,-345.24 1189.74,-326.84 1218,-252 1225.47,-232.21 1226.97,-208.23 1226.73,-190.15"/>
<polygon fill="#1414ce" stroke="#1414ce" points="1230.23,-189.89 1226.42,-180.01 1223.23,-190.11 1230.23,-189.89"/>
</a>
</g>
</g>
<!-- 4&#45;&gt;15 -->
<g id="edge19" class="edge">
<title>4&#45;&gt;15</title>
<g id="a_edge19"><a xlink:title="include">
<path fill="none" stroke="#1414ce" d="M478.38,-503.65C483.68,-493.45 490.18,-480.2 495,-468 513.44,-421.32 508.68,-406.32 528,-360 554.67,-296.06 595.64,-225.57 618.03,-188.71"/>
<polygon fill="#1414ce" stroke="#1414ce" points="621.07,-190.45 623.3,-180.09 615.1,-186.8 621.07,-190.45"/>
</a>
</g>
</g>
<!-- 4&#45;&gt;16 -->
<g id="edge20" class="edge">
<title>4&#45;&gt;16</title>
<g id="a_edge20"><a xlink:title="include">
<path fill="none" stroke="#1414ce" d="M532.75,-517.31C618.12,-509.06 769.39,-482.36 861,-396 899.12,-360.06 914.09,-298.08 919.75,-262.41"/>
<polygon fill="#1414ce" stroke="#1414ce" points="923.26,-262.65 921.23,-252.25 916.33,-261.64 923.26,-262.65"/>
</a>
</g>
</g>
<!-- 4&#45;&gt;20 -->
<g id="edge21" class="edge">
<title>4&#45;&gt;20</title>
<g id="a_edge21"><a xlink:title="include">
<path fill="none" stroke="#1414ce" d="M452.79,-503.87C444.02,-493.96 433.49,-480.92 426,-468 370.34,-371.99 330.88,-244.78 315.34,-189.99"/>
<polygon fill="#1414ce" stroke="#1414ce" points="318.61,-188.71 312.55,-180.03 311.87,-190.6 318.61,-188.71"/>
</a>
</g>
</g>
<!-- 21 -->
<g id="node18" class="node">
<title>21</title>
<g id="a_node18"><a xlink:title="synclist.h">
<polygon fill="#ffffff" stroke="black" points="747.5,-252 662.5,-252 662.5,-216 747.5,-216 747.5,-252"/>
<text text-anchor="middle" x="705" y="-230.3" font-family="Times,serif" font-size="14.00">synclist.h</text>
</a>
</g>
</g>
<!-- 4&#45;&gt;21 -->
<g id="edge22" class="edge">
<title>4&#45;&gt;21</title>
<g id="a_edge22"><a xlink:title="include">
<path fill="none" stroke="#1414ce" d="M471.41,-503.84C476.64,-472.19 491.59,-403.86 528,-360 565.26,-315.11 622.33,-278.74 661.53,-257.04"/>
<polygon fill="#1414ce" stroke="#1414ce" points="663.49,-259.96 670.6,-252.1 660.14,-253.81 663.49,-259.96"/>
</a>
</g>
</g>
<!-- 4&#45;&gt;22 -->
<g id="edge23" class="edge">
<title>4&#45;&gt;22</title>
<g id="a_edge23"><a xlink:title="include">
<path fill="none" stroke="#1414ce" d="M532.85,-511.05C625.77,-496.56 795.78,-470.05 875.11,-457.69"/>
<polygon fill="#1414ce" stroke="#1414ce" points="875.89,-461.11 885.23,-456.11 874.81,-454.19 875.89,-461.11"/>
</a>
</g>
</g>
<!-- 4&#45;&gt;28 -->
<g id="edge24" class="edge">
<title>4&#45;&gt;28</title>
<g id="a_edge24"><a xlink:title="include">
<path fill="none" stroke="#1414ce" d="M459.68,-503.84C447.49,-480.33 426.78,-436.39 419,-396 409.92,-348.87 408.87,-334.92 419,-288 420.96,-278.92 424.61,-269.52 428.49,-261.2"/>
<polygon fill="#1414ce" stroke="#1414ce" points="431.73,-262.53 433.05,-252.02 425.46,-259.42 431.73,-262.53"/>
</a>
</g>
</g>
<!-- 4&#45;&gt;5 -->
<g id="edge15" class="edge">
<title>4&#45;&gt;5</title>
<g id="a_edge15"><a xlink:title="include">
<path fill="none" stroke="#1414ce" d="M405.41,-513.9C301.64,-502.04 106.24,-478.48 95,-468 65.42,-440.41 76,-419.45 76,-379 76,-379 76,-379 76,-161 76,-103.47 118.54,-97.73 170,-72 256.27,-28.86 371.11,-20.02 433.99,-18.69"/>
<polygon fill="#1414ce" stroke="#1414ce" points="434.06,-22.18 444,-18.53 433.95,-15.19 434.06,-22.18"/>
</a>
</g>
</g>
<!-- 16&#45;&gt;15 -->
<g id="edge26" class="edge">
<title>16&#45;&gt;15</title>
<g id="a_edge26"><a xlink:title="include">
<path fill="none" stroke="#1414ce" d="M879.73,-222.52C822.93,-208.76 724.18,-184.84 670.79,-171.91"/>
<polygon fill="#1414ce" stroke="#1414ce" points="671.6,-168.51 661.06,-169.55 669.95,-175.31 671.6,-168.51"/>
</a>
</g>
</g>
<!-- 16&#45;&gt;11 -->
<g id="edge27" class="edge">
<title>16&#45;&gt;11</title>
<g id="a_edge27"><a xlink:title="include">
<path fill="none" stroke="#1414ce" d="M957.98,-215.87C1010.78,-190.02 1110.8,-141.04 1168.64,-112.72"/>
<polygon fill="#1414ce" stroke="#1414ce" points="1170.45,-115.73 1177.9,-108.19 1167.37,-109.44 1170.45,-115.73"/>
</a>
</g>
</g>
<!-- 17 -->
<g id="node22" class="node">
<title>17</title>
<g id="a_node22"><a xlink:title="utils.h">
<polygon fill="#ffffff" stroke="black" points="980,-180 918,-180 918,-144 980,-144 980,-180"/>
<text text-anchor="middle" x="949" y="-158.3" font-family="Times,serif" font-size="14.00">utils.h</text>
</a>
</g>
</g>
<!-- 16&#45;&gt;17 -->
<g id="edge28" class="edge">
<title>16&#45;&gt;17</title>
<g id="a_edge28"><a xlink:title="include">
<path fill="none" stroke="#1414ce" d="M929.43,-215.7C932.36,-207.81 935.89,-198.3 939.14,-189.55"/>
<polygon fill="#1414ce" stroke="#1414ce" points="942.45,-190.7 942.65,-180.1 935.88,-188.26 942.45,-190.7"/>
</a>
</g>
</g>
<!-- 16&#45;&gt;9 -->
<g id="edge25" class="edge">
<title>16&#45;&gt;9</title>
<g id="a_edge25"><a xlink:title="include">
<path fill="none" stroke="#1414ce" d="M882.11,-215.86C832.7,-195.79 746.63,-162.9 670,-144 561.26,-117.18 430.58,-102.16 359.77,-95.41"/>
<polygon fill="#1414ce" stroke="#1414ce" points="360.05,-91.92 349.76,-94.48 359.39,-98.89 360.05,-91.92"/>
</a>
</g>
</g>
<!-- 25 -->
<g id="node11" class="node">
<title>25</title>
<g id="a_node11"><a xlink:title="memory.h">
<polygon fill="#ffffff" stroke="black" points="1184,-252 1098,-252 1098,-216 1184,-216 1184,-252"/>
<text text-anchor="middle" x="1141" y="-230.3" font-family="Times,serif" font-size="14.00">memory.h</text>
</a>
</g>
</g>
<!-- 25&#45;&gt;10 -->
<g id="edge31" class="edge">
<title>25&#45;&gt;10</title>
<g id="a_edge31"><a xlink:title="include">
<path fill="none" stroke="#1414ce" d="M1161.76,-215.7C1172.24,-206.97 1185.11,-196.24 1196.5,-186.75"/>
<polygon fill="#1414ce" stroke="#1414ce" points="1199.03,-189.19 1204.47,-180.1 1194.55,-183.82 1199.03,-189.19"/>
</a>
</g>
</g>
<!-- 25&#45;&gt;11 -->
<g id="edge32" class="edge">
<title>25&#45;&gt;11</title>
<g id="a_edge32"><a xlink:title="include">
<path fill="none" stroke="#1414ce" d="M1147.33,-215.88C1154.28,-197.67 1166.19,-168.2 1179,-144 1183.86,-134.82 1189.79,-125.16 1195.34,-116.63"/>
<polygon fill="#1414ce" stroke="#1414ce" points="1198.3,-118.49 1200.91,-108.23 1192.47,-114.63 1198.3,-118.49"/>
</a>
</g>
</g>
<!-- 25&#45;&gt;17 -->
<g id="edge33" class="edge">
<title>25&#45;&gt;17</title>
<g id="a_edge33"><a xlink:title="include">
<path fill="none" stroke="#1414ce" d="M1097.91,-217.29C1065.55,-205.49 1021.52,-189.44 989.74,-177.85"/>
<polygon fill="#1414ce" stroke="#1414ce" points="990.89,-174.55 980.29,-174.41 988.49,-181.12 990.89,-174.55"/>
</a>
</g>
</g>
<!-- 25&#45;&gt;5 -->
<g id="edge29" class="edge">
<title>25&#45;&gt;5</title>
<g id="a_edge29"><a xlink:title="include">
<path fill="none" stroke="#1414ce" d="M1140.06,-215.92C1137.2,-182.17 1125.65,-107.15 1079,-72 1035.16,-38.97 659.1,-24.44 526.25,-20.31"/>
<polygon fill="#1414ce" stroke="#1414ce" points="526.11,-16.8 516,-19.99 525.89,-23.8 526.11,-16.8"/>
</a>
</g>
</g>
<!-- 25&#45;&gt;7 -->
<g id="edge30" class="edge">
<title>25&#45;&gt;7</title>
<g id="a_edge30"><a xlink:title="include">
<path fill="none" stroke="#1414ce" d="M1116.84,-215.93C1087.75,-196.09 1036.83,-163.57 989,-144 934.39,-121.65 867.83,-106.79 824.48,-98.63"/>
<polygon fill="#1414ce" stroke="#1414ce" points="824.99,-95.16 814.52,-96.8 823.72,-102.05 824.99,-95.16"/>
</a>
</g>
</g>
<!-- 29 -->
<g id="node12" class="node">
<title>29</title>
<g id="a_node12"><a xlink:title="module.h">
<polygon fill="#ffffff" stroke="black" points="363.5,-684 280.5,-684 280.5,-648 363.5,-648 363.5,-684"/>
<text text-anchor="middle" x="322" y="-662.3" font-family="Times,serif" font-size="14.00">module.h</text>
</a>
</g>
</g>
<!-- 29&#45;&gt;6 -->
<g id="edge36" class="edge">
<title>29&#45;&gt;6</title>
<g id="a_edge36"><a xlink:title="include">
<path fill="none" stroke="#1414ce" d="M322.38,-647.96C322.51,-617.91 320.36,-553.97 302,-504 288.07,-466.08 260.77,-428.06 241.5,-404.08"/>
<polygon fill="#1414ce" stroke="#1414ce" points="244.1,-401.73 235.06,-396.21 238.68,-406.17 244.1,-401.73"/>
</a>
</g>
</g>
<!-- 29&#45;&gt;8 -->
<g id="edge37" class="edge">
<title>29&#45;&gt;8</title>
<g id="a_edge37"><a xlink:title="include">
<path fill="none" stroke="#1414ce" d="M299.87,-647.87C287.08,-637.74 270.83,-624.49 257,-612 240.21,-596.83 239.62,-588.85 221,-576 188.91,-553.85 162.17,-572.74 141,-540 128.9,-521.29 135.65,-496.1 144.12,-477.3"/>
<polygon fill="#1414ce" stroke="#1414ce" points="147.37,-478.64 148.62,-468.12 141.08,-475.56 147.37,-478.64"/>
</a>
</g>
</g>
<!-- 29&#45;&gt;30 -->
<g id="edge38" class="edge">
<title>29&#45;&gt;30</title>
<g id="a_edge38"><a xlink:title="include">
<path fill="none" stroke="#1414ce" d="M309.94,-647.87C292.52,-623.14 260.2,-577.24 239.97,-548.51"/>
<polygon fill="#1414ce" stroke="#1414ce" points="242.72,-546.35 234.11,-540.19 237,-550.38 242.72,-546.35"/>
</a>
</g>
</g>
<!-- 29&#45;&gt;3 -->
<g id="edge39" class="edge">
<title>29&#45;&gt;3</title>
<g id="a_edge39"><a xlink:title="include">
<path fill="none" stroke="#1414ce" d="M363.82,-652.63C369.58,-651.02 375.43,-649.43 381,-648 443.39,-631.96 515.8,-615.96 563.35,-605.8"/>
<polygon fill="#1414ce" stroke="#1414ce" points="564.35,-609.17 573.4,-603.66 562.89,-602.32 564.35,-609.17"/>
</a>
</g>
</g>
<!-- 29&#45;&gt;31 -->
<g id="edge40" class="edge">
<title>29&#45;&gt;31</title>
<g id="a_edge40"><a xlink:title="include">
<path fill="none" stroke="#1414ce" d="M363.64,-651.81C369.43,-650.33 375.33,-649 381,-648 497.92,-627.45 805.78,-660.8 914,-612 944.46,-598.27 970.49,-569.45 986.6,-548.31"/>
<polygon fill="#1414ce" stroke="#1414ce" points="989.56,-550.2 992.68,-540.07 983.93,-546.04 989.56,-550.2"/>
</a>
</g>
</g>
<!-- 29&#45;&gt;4 -->
<g id="edge41" class="edge">
<title>29&#45;&gt;4</title>
<g id="a_edge41"><a xlink:title="include">
<path fill="none" stroke="#1414ce" d="M339.73,-647.87C365.67,-622.82 414.08,-576.05 443.73,-547.41"/>
<polygon fill="#1414ce" stroke="#1414ce" points="446.44,-549.65 451.21,-540.19 441.58,-544.62 446.44,-549.65"/>
</a>
</g>
</g>
<!-- 29&#45;&gt;22 -->
<g id="edge42" class="edge">
<title>29&#45;&gt;22</title>
<g id="a_edge42"><a xlink:title="include">
<path fill="none" stroke="#1414ce" d="M363.7,-652.12C369.48,-650.59 375.36,-649.16 381,-648 599.84,-602.88 703.17,-686.36 872,-540 890.91,-523.6 903.1,-497.52 910.14,-477.81"/>
<polygon fill="#1414ce" stroke="#1414ce" points="913.51,-478.77 913.37,-468.18 906.88,-476.55 913.51,-478.77"/>
</a>
</g>
</g>
<!-- 32 -->
<g id="node23" class="node">
<title>32</title>
<g id="a_node23"><a xlink:title="valueshashtable.h">
<polygon fill="#ffffff" stroke="black" points="212,-612 66,-612 66,-576 212,-576 212,-612"/>
<text text-anchor="middle" x="139" y="-590.3" font-family="Times,serif" font-size="14.00">valueshashtable.h</text>
</a>
</g>
</g>
<!-- 29&#45;&gt;32 -->
<g id="edge43" class="edge">
<title>29&#45;&gt;32</title>
<g id="a_edge43"><a xlink:title="include">
<path fill="none" stroke="#1414ce" d="M280.47,-649.12C254.63,-639.23 221.11,-626.41 193.18,-615.72"/>
<polygon fill="#1414ce" stroke="#1414ce" points="194.15,-612.35 183.56,-612.04 191.65,-618.89 194.15,-612.35"/>
</a>
</g>
</g>
<!-- 29&#45;&gt;9 -->
<g id="edge34" class="edge">
<title>29&#45;&gt;9</title>
<g id="a_edge34"><a xlink:title="include">
<path fill="none" stroke="#1414ce" d="M280.36,-662.15C213.87,-656.74 88.05,-642.65 57,-612 28.22,-583.59 38,-563.45 38,-523 38,-523 38,-523 38,-233 38,-135.43 177.83,-104.75 256.23,-95.22"/>
<polygon fill="#1414ce" stroke="#1414ce" points="256.87,-98.67 266.4,-94.06 256.07,-91.71 256.87,-98.67"/>
</a>
</g>
</g>
<!-- 29&#45;&gt;5 -->
<g id="edge35" class="edge">
<title>29&#45;&gt;5</title>
<g id="a_edge35"><a xlink:title="include">
<path fill="none" stroke="#1414ce" d="M280.45,-662.3C209.94,-656.93 70.88,-642.69 34,-612 1.45,-584.92 0,-565.34 0,-523 0,-523 0,-523 0,-161 0,-102.82 43.42,-96.91 96,-72 155.02,-44.05 345.23,-28.02 433.81,-21.9"/>
<polygon fill="#1414ce" stroke="#1414ce" points="434.1,-25.39 443.84,-21.22 433.63,-18.4 434.1,-25.39"/>
</a>
</g>
</g>
<!-- 26 -->
<g id="node13" class="node">
<title>26</title>
<g id="a_node13"><a xlink:title="refc_binary.h">
<polygon fill="#ffffff" stroke="black" points="852,-396 744,-396 744,-360 852,-360 852,-396"/>
<text text-anchor="middle" x="798" y="-374.3" font-family="Times,serif" font-size="14.00">refc_binary.h</text>
</a>
</g>
</g>
<!-- 26&#45;&gt;15 -->
<g id="edge46" class="edge">
<title>26&#45;&gt;15</title>
<g id="a_edge46"><a xlink:title="include">
<path fill="none" stroke="#1414ce" d="M743.75,-361.88C719.78,-353.39 692.26,-341.02 671,-324 640.38,-299.5 631.89,-289.37 620,-252 613.51,-231.6 617.96,-207.56 623.51,-189.62"/>
<polygon fill="#1414ce" stroke="#1414ce" points="626.85,-190.68 626.74,-180.08 620.22,-188.43 626.85,-190.68"/>
</a>
</g>
</g>
<!-- 27 -->
<g id="node14" class="node">
<title>27</title>
<g id="a_node14"><a xlink:title="resources.h">
<polygon fill="#ffffff" stroke="black" points="856,-324 756,-324 756,-288 856,-288 856,-324"/>
<text text-anchor="middle" x="806" y="-302.3" font-family="Times,serif" font-size="14.00">resources.h</text>
</a>
</g>
</g>
<!-- 26&#45;&gt;27 -->
<g id="edge47" class="edge">
<title>26&#45;&gt;27</title>
<g id="a_edge47"><a xlink:title="include">
<path fill="none" stroke="#1414ce" d="M799.98,-359.7C800.86,-351.98 801.92,-342.71 802.9,-334.11"/>
<polygon fill="#1414ce" stroke="#1414ce" points="806.39,-334.44 804.05,-324.1 799.43,-333.64 806.39,-334.44"/>
</a>
</g>
</g>
<!-- 26&#45;&gt;9 -->
<g id="edge44" class="edge">
<title>26&#45;&gt;9</title>
<g id="a_edge44"><a xlink:title="include">
<path fill="none" stroke="#1414ce" d="M743.8,-362.52C695.99,-349.69 630,-331.82 604,-324 505.88,-294.49 458.19,-323.7 385,-252 348.65,-216.39 370.78,-188.98 347,-144 341.95,-134.46 335.32,-124.74 328.96,-116.27"/>
<polygon fill="#1414ce" stroke="#1414ce" points="331.65,-114.03 322.75,-108.28 326.12,-118.32 331.65,-114.03"/>
</a>
</g>
</g>
<!-- 26&#45;&gt;7 -->
<g id="edge45" class="edge">
<title>26&#45;&gt;7</title>
<g id="a_edge45"><a xlink:title="include">
<path fill="none" stroke="#1414ce" d="M743.76,-362.48C698.47,-349.91 640.02,-332.44 632,-324 586.7,-276.33 604.74,-245.41 598,-180 596.36,-164.08 588.41,-156.81 598,-144 614.27,-122.29 685.32,-106.48 733.41,-98.03"/>
<polygon fill="#1414ce" stroke="#1414ce" points="734.03,-101.47 743.29,-96.33 732.85,-94.57 734.03,-101.47"/>
</a>
</g>
</g>
<!-- 27&#45;&gt;10 -->
<g id="edge49" class="edge">
<title>27&#45;&gt;10</title>
<g id="a_edge49"><a xlink:title="include">
<path fill="none" stroke="#1414ce" d="M856.26,-304.42C949.02,-302.35 1142.28,-293.09 1193,-252 1211.49,-237.02 1219.3,-210.47 1222.6,-190.26"/>
<polygon fill="#1414ce" stroke="#1414ce" points="1226.1,-190.45 1223.97,-180.07 1219.17,-189.52 1226.1,-190.45"/>
</a>
</g>
</g>
<!-- 27&#45;&gt;15 -->
<g id="edge50" class="edge">
<title>27&#45;&gt;15</title>
<g id="a_edge50"><a xlink:title="include">
<path fill="none" stroke="#1414ce" d="M800.17,-287.75C792.73,-268.05 778.1,-235.95 756,-216 731.79,-194.14 697.15,-180.27 670.97,-172.22"/>
<polygon fill="#1414ce" stroke="#1414ce" points="671.61,-168.77 661.03,-169.32 669.65,-175.49 671.61,-168.77"/>
</a>
</g>
</g>
<!-- 27&#45;&gt;25 -->
<g id="edge51" class="edge">
<title>27&#45;&gt;25</title>
<g id="a_edge51"><a xlink:title="include">
<path fill="none" stroke="#1414ce" d="M856.15,-294.52C918.53,-281.49 1024.53,-259.34 1088.13,-246.05"/>
<polygon fill="#1414ce" stroke="#1414ce" points="1088.89,-249.46 1097.97,-243.99 1087.46,-242.61 1088.89,-249.46"/>
</a>
</g>
</g>
<!-- 27&#45;&gt;21 -->
<g id="edge52" class="edge">
<title>27&#45;&gt;21</title>
<g id="a_edge52"><a xlink:title="include">
<path fill="none" stroke="#1414ce" d="M781.29,-287.88C768.33,-278.89 752.27,-267.76 738.23,-258.03"/>
<polygon fill="#1414ce" stroke="#1414ce" points="740.02,-255.01 729.8,-252.19 736.03,-260.76 740.02,-255.01"/>
</a>
</g>
</g>
<!-- 27&#45;&gt;7 -->
<g id="edge48" class="edge">
<title>27&#45;&gt;7</title>
<g id="a_edge48"><a xlink:title="include">
<path fill="none" stroke="#1414ce" d="M803.84,-287.85C799.17,-250.83 788.11,-163.18 782.46,-118.39"/>
<polygon fill="#1414ce" stroke="#1414ce" points="785.9,-117.72 781.17,-108.23 778.95,-118.59 785.9,-117.72"/>
</a>
</g>
</g>
<!-- 20&#45;&gt;9 -->
<g id="edge53" class="edge">
<title>20&#45;&gt;9</title>
<g id="a_edge53"><a xlink:title="include">
<path fill="none" stroke="#1414ce" d="M308,-143.7C308,-135.98 308,-126.71 308,-118.11"/>
<polygon fill="#1414ce" stroke="#1414ce" points="311.5,-118.1 308,-108.1 304.5,-118.1 311.5,-118.1"/>
</a>
</g>
</g>
<!-- 1 -->
<g id="node16" class="node">
<title>1</title>
<g id="a_node16"><a xlink:title="/__w/AtomVM/AtomVM/src/libAtomVM/stacktrace.c">
<polygon fill="#bfbfbf" stroke="black" points="772,-828 392,-828 392,-792 772,-792 772,-828"/>
<text text-anchor="middle" x="582" y="-806.3" font-family="Times,serif" font-size="14.00">/__w/AtomVM/AtomVM/src/libAtomVM/stacktrace.c</text>
</a>
</g>
</g>
<!-- 1&#45;&gt;33 -->
<g id="edge55" class="edge">
<title>1&#45;&gt;33</title>
<g id="a_edge55"><a xlink:title="include">
<path fill="none" stroke="#1414ce" d="M563.6,-791.72C552.97,-781.54 539.47,-768.29 528,-756 508.41,-735 487.28,-710.06 472.29,-691.93"/>
<polygon fill="#1414ce" stroke="#1414ce" points="474.91,-689.61 465.86,-684.12 469.51,-694.06 474.91,-689.61"/>
</a>
</g>
</g>
<!-- 1&#45;&gt;4 -->
<g id="edge56" class="edge">
<title>1&#45;&gt;4</title>
<g id="a_edge56"><a xlink:title="include">
<path fill="none" stroke="#1414ce" d="M575.02,-791.88C570.85,-781.53 565.51,-768.05 561,-756 543.18,-708.34 541.55,-695.38 523,-648 509.54,-613.6 492.39,-574.62 481.07,-549.47"/>
<polygon fill="#1414ce" stroke="#1414ce" points="484.2,-547.9 476.9,-540.23 477.83,-550.79 484.2,-547.9"/>
</a>
</g>
</g>
<!-- 1&#45;&gt;25 -->
<g id="edge57" class="edge">
<title>1&#45;&gt;25</title>
<g id="a_edge57"><a xlink:title="include">
<path fill="none" stroke="#1414ce" d="M772.21,-805.8C972.77,-797.12 1260,-767.19 1260,-667 1260,-667 1260,-667 1260,-449 1260,-372.01 1200.44,-296.84 1165.59,-259.46"/>
<polygon fill="#1414ce" stroke="#1414ce" points="1167.99,-256.9 1158.56,-252.06 1162.91,-261.72 1167.99,-256.9"/>
</a>
</g>
</g>
<!-- 2 -->
<g id="node17" class="node">
<title>2</title>
<g id="a_node17"><a xlink:title="stacktrace.h">
<polygon fill="#ffffff" stroke="black" points="674,-756 570,-756 570,-720 674,-720 674,-756"/>
<text text-anchor="middle" x="622" y="-734.3" font-family="Times,serif" font-size="14.00">stacktrace.h</text>
</a>
</g>
</g>
<!-- 1&#45;&gt;2 -->
<g id="edge54" class="edge">
<title>1&#45;&gt;2</title>
<g id="a_edge54"><a xlink:title="include">
<path fill="none" stroke="#1414ce" d="M591.89,-791.7C596.49,-783.64 602.06,-773.89 607.15,-764.98"/>
<polygon fill="#1414ce" stroke="#1414ce" points="610.3,-766.52 612.23,-756.1 604.23,-763.05 610.3,-766.52"/>
</a>
</g>
</g>
<!-- 2&#45;&gt;3 -->
<g id="edge58" class="edge">
<title>2&#45;&gt;3</title>
<g id="a_edge58"><a xlink:title="include">
<path fill="none" stroke="#1414ce" d="M621.16,-719.87C619.96,-695.67 617.77,-651.21 616.35,-622.39"/>
<polygon fill="#1414ce" stroke="#1414ce" points="619.84,-622 615.85,-612.19 612.84,-622.35 619.84,-622"/>
</a>
</g>
</g>
<!-- 2&#45;&gt;29 -->
<g id="edge59" class="edge">
<title>2&#45;&gt;29</title>
<g id="a_edge59"><a xlink:title="include">
<path fill="none" stroke="#1414ce" d="M569.59,-726.48C520.62,-716.42 445.57,-700.38 381,-684 378.56,-683.38 376.07,-682.73 373.55,-682.06"/>
<polygon fill="#1414ce" stroke="#1414ce" points="374.38,-678.66 363.81,-679.41 372.54,-685.41 374.38,-678.66"/>
</a>
</g>
</g>
<!-- 2&#45;&gt;22 -->
<g id="edge60" class="edge">
<title>2&#45;&gt;22</title>
<g id="a_edge60"><a xlink:title="include">
<path fill="none" stroke="#1414ce" d="M674.15,-733.73C776.22,-724.13 1000.17,-686.55 1089,-540 1120.57,-487.92 1020.86,-464.91 960.55,-455.96"/>
<polygon fill="#1414ce" stroke="#1414ce" points="960.9,-452.47 950.51,-454.54 959.92,-459.4 960.9,-452.47"/>
</a>
</g>
</g>
<!-- 21&#45;&gt;15 -->
<g id="edge62" class="edge">
<title>21&#45;&gt;15</title>
<g id="a_edge62"><a xlink:title="include">
<path fill="none" stroke="#1414ce" d="M687.45,-215.7C678.77,-207.14 668.14,-196.66 658.65,-187.3"/>
<polygon fill="#1414ce" stroke="#1414ce" points="660.93,-184.63 651.35,-180.1 656.01,-189.62 660.93,-184.63"/>
</a>
</g>
</g>
<!-- 21&#45;&gt;20 -->
<g id="edge63" class="edge">
<title>21&#45;&gt;20</title>
<g id="a_edge63"><a xlink:title="include">
<path fill="none" stroke="#1414ce" d="M662.14,-225.44C584.87,-211.82 423.29,-183.33 348.09,-170.07"/>
<polygon fill="#1414ce" stroke="#1414ce" points="348.53,-166.59 338.07,-168.3 347.31,-173.49 348.53,-166.59"/>
</a>
</g>
</g>
<!-- 19 -->
<g id="node30" class="node">
<title>19</title>
<g id="a_node30"><a xlink:title="stdio.h">
<polygon fill="#ffffff" stroke="black" points="1069.5,-108 1004.5,-108 1004.5,-72 1069.5,-72 1069.5,-108"/>
<text text-anchor="middle" x="1037" y="-86.3" font-family="Times,serif" font-size="14.00">stdio.h</text>
</a>
</g>
</g>
<!-- 21&#45;&gt;19 -->
<g id="edge61" class="edge">
<title>21&#45;&gt;19</title>
<g id="a_edge61"><a xlink:title="include">
<path fill="none" stroke="#1414ce" d="M743.64,-215.89C784.59,-197.81 851.21,-168.57 909,-144 937.53,-131.87 969.78,-118.52 994.77,-108.25"/>
<polygon fill="#1414ce" stroke="#1414ce" points="996.39,-111.37 1004.31,-104.34 993.73,-104.9 996.39,-111.37"/>
</a>
</g>
</g>
<!-- 22&#45;&gt;25 -->
<g id="edge70" class="edge">
<title>22&#45;&gt;25</title>
<g id="a_edge70"><a xlink:title="include">
<path fill="none" stroke="#1414ce" d="M950.75,-447.02C987.78,-443.07 1047.61,-431.27 1084,-396 1121.24,-359.9 1134.2,-297.98 1138.68,-262.37"/>
<polygon fill="#1414ce" stroke="#1414ce" points="1142.18,-262.54 1139.81,-252.22 1135.22,-261.77 1142.18,-262.54"/>
</a>
</g>
</g>
<!-- 22&#45;&gt;26 -->
<g id="edge71" class="edge">
<title>22&#45;&gt;26</title>
<g id="a_edge71"><a xlink:title="include">
<path fill="none" stroke="#1414ce" d="M888.64,-431.88C872.95,-422.72 853.44,-411.34 836.55,-401.48"/>
<polygon fill="#1414ce" stroke="#1414ce" points="837.87,-398.21 827.47,-396.19 834.34,-404.25 837.87,-398.21"/>
</a>
</g>
</g>
<!-- 22&#45;&gt;11 -->
<g id="edge73" class="edge">
<title>22&#45;&gt;11</title>
<g id="a_edge73"><a xlink:title="include">
<path fill="none" stroke="#1414ce" d="M950.58,-446.45C991.08,-441.91 1060.85,-429.5 1110,-396 1208.93,-328.56 1233.65,-293.76 1271,-180 1275.99,-164.8 1277.45,-158.64 1271,-144 1266.01,-132.69 1257.29,-122.74 1248.1,-114.62"/>
<polygon fill="#1414ce" stroke="#1414ce" points="1250.28,-111.88 1240.34,-108.23 1245.83,-117.28 1250.28,-111.88"/>
</a>
</g>
</g>
<!-- 22&#45;&gt;17 -->
<g id="edge72" class="edge">
<title>22&#45;&gt;17</title>
<g id="a_edge72"><a xlink:title="include">
<path fill="none" stroke="#1414ce" d="M950.72,-439.09C971.13,-431.03 995.76,-417.41 1008,-396 1047.7,-326.55 1040.58,-289.06 1008,-216 1002.92,-204.6 994.04,-194.63 984.69,-186.51"/>
<polygon fill="#1414ce" stroke="#1414ce" points="986.78,-183.69 976.8,-180.13 982.37,-189.14 986.78,-183.69"/>
</a>
</g>
</g>
<!-- 22&#45;&gt;9 -->
<g id="edge65" class="edge">
<title>22&#45;&gt;9</title>
<g id="a_edge65"><a xlink:title="include">
<path fill="none" stroke="#1414ce" d="M885.45,-446.69C803.91,-440.58 592.8,-422.58 528,-396 466.06,-370.59 271.6,-185.76 269,-180 262.42,-165.41 264.01,-159.2 269,-144 272.31,-133.91 278.37,-124.15 284.73,-115.82"/>
<polygon fill="#1414ce" stroke="#1414ce" points="287.5,-117.97 291.11,-108.01 282.08,-113.54 287.5,-117.97"/>
</a>
</g>
</g>
<!-- 22&#45;&gt;5 -->
<g id="edge66" class="edge">
<title>22&#45;&gt;5</title>
<g id="a_edge66"><a xlink:title="include">
<path fill="none" stroke="#1414ce" d="M930.27,-431.93C957.63,-391.59 1017.94,-288.34 975,-216 957.94,-187.27 934.52,-201.57 909,-180 862.35,-140.57 876.75,-102.8 824,-72 774.27,-42.97 607.91,-27.79 526.15,-21.93"/>
<polygon fill="#1414ce" stroke="#1414ce" points="526.36,-18.43 516.14,-21.22 525.87,-25.41 526.36,-18.43"/>
</a>
</g>
</g>
<!-- 22&#45;&gt;19 -->
<g id="edge67" class="edge">
<title>22&#45;&gt;19</title>
<g id="a_edge67"><a xlink:title="include">
<path fill="none" stroke="#1414ce" d="M950.72,-441.66C975.99,-434.3 1009.95,-420.45 1030,-396 1096.7,-314.67 1064.13,-176 1046.17,-117.88"/>
<polygon fill="#1414ce" stroke="#1414ce" points="1049.49,-116.77 1043.12,-108.31 1042.82,-118.9 1049.49,-116.77"/>
</a>
</g>
</g>
<!-- 22&#45;&gt;7 -->
<g id="edge68" class="edge">
<title>22&#45;&gt;7</title>
<g id="a_edge68"><a xlink:title="include">
<path fill="none" stroke="#1414ce" d="M914,-431.76C909.66,-413.69 902.23,-384.58 894,-360 863.43,-268.73 815.1,-165.17 792.05,-117.53"/>
<polygon fill="#1414ce" stroke="#1414ce" points="795.06,-115.71 787.54,-108.24 788.76,-118.77 795.06,-115.71"/>
</a>
</g>
</g>
<!-- 24 -->
<g id="node32" class="node">
<title>24</title>
<g id="a_node32"><a xlink:title="string.h">
<polygon fill="#ffffff" stroke="black" points="610.5,-396 537.5,-396 537.5,-360 610.5,-360 610.5,-396"/>
<text text-anchor="middle" x="574" y="-374.3" font-family="Times,serif" font-size="14.00">string.h</text>
</a>
</g>
</g>
<!-- 22&#45;&gt;24 -->
<g id="edge69" class="edge">
<title>22&#45;&gt;24</title>
<g id="a_edge69"><a xlink:title="include">
<path fill="none" stroke="#1414ce" d="M885.26,-445.22C831.52,-438.58 721.23,-423.14 620.38,-396.13"/>
<polygon fill="#1414ce" stroke="#1414ce" points="621.22,-392.73 610.65,-393.48 619.38,-399.49 621.22,-392.73"/>
</a>
</g>
</g>
<!-- 23 -->
<g id="node33" class="node">
<title>23</title>
<g id="a_node33"><a xlink:title="sys/types.h">
<polygon fill="#ffffff" stroke="black" points="725.5,-396 628.5,-396 628.5,-360 725.5,-360 725.5,-396"/>
<text text-anchor="middle" x="677" y="-374.3" font-family="Times,serif" font-size="14.00">sys/types.h</text>
</a>
</g>
</g>
<!-- 22&#45;&gt;23 -->
<g id="edge64" class="edge">
<title>22&#45;&gt;23</title>
<g id="a_edge64"><a xlink:title="include">
<path fill="none" stroke="#1414ce" d="M885.26,-439.55C850.57,-429.54 793.93,-413.16 735.5,-396.14"/>
<polygon fill="#1414ce" stroke="#1414ce" points="736.31,-392.73 725.73,-393.3 734.35,-399.45 736.31,-392.73"/>
</a>
</g>
</g>
<!-- 12 -->
<g id="node24" class="node">
<title>12</title>
<g id="a_node24"><a xlink:title="assert.h">
<polygon fill="#ffffff" stroke="black" points="1250,-36 1176,-36 1176,0 1250,0 1250,-36"/>
<text text-anchor="middle" x="1213" y="-14.3" font-family="Times,serif" font-size="14.00">assert.h</text>
</a>
</g>
</g>
<!-- 11&#45;&gt;12 -->
<g id="edge74" class="edge">
<title>11&#45;&gt;12</title>
<g id="a_edge74"><a xlink:title="include">
<path fill="none" stroke="#1414ce" d="M1213,-71.7C1213,-63.98 1213,-54.71 1213,-46.11"/>
<polygon fill="#1414ce" stroke="#1414ce" points="1216.5,-46.1 1213,-36.1 1209.5,-46.1 1216.5,-46.1"/>
</a>
</g>
</g>
<!-- 14 -->
<g id="node25" class="node">
<title>14</title>
<g id="a_node25"><a xlink:title="inttypes.h">
<polygon fill="#ffffff" stroke="black" points="1357.5,-36 1268.5,-36 1268.5,0 1357.5,0 1357.5,-36"/>
<text text-anchor="middle" x="1313" y="-14.3" font-family="Times,serif" font-size="14.00">inttypes.h</text>
</a>
</g>
</g>
<!-- 11&#45;&gt;14 -->
<g id="edge76" class="edge">
<title>11&#45;&gt;14</title>
<g id="a_edge76"><a xlink:title="include">
<path fill="none" stroke="#1414ce" d="M1237.46,-71.88C1250.3,-62.89 1266.2,-51.76 1280.09,-42.03"/>
<polygon fill="#1414ce" stroke="#1414ce" points="1282.26,-44.79 1288.44,-36.19 1278.24,-39.06 1282.26,-44.79"/>
</a>
</g>
</g>
<!-- 13 -->
<g id="node26" class="node">
<title>13</title>
<g id="a_node26"><a xlink:title="limits.h">
<polygon fill="#ffffff" stroke="black" points="1157.5,-36 1086.5,-36 1086.5,0 1157.5,0 1157.5,-36"/>
<text text-anchor="middle" x="1122" y="-14.3" font-family="Times,serif" font-size="14.00">limits.h</text>
</a>
</g>
</g>
<!-- 11&#45;&gt;13 -->
<g id="edge75" class="edge">
<title>11&#45;&gt;13</title>
<g id="a_edge75"><a xlink:title="include">
<path fill="none" stroke="#1414ce" d="M1190.51,-71.7C1179.04,-62.88 1164.94,-52.03 1152.52,-42.47"/>
<polygon fill="#1414ce" stroke="#1414ce" points="1154.3,-39.43 1144.24,-36.1 1150.03,-44.98 1154.3,-39.43"/>
</a>
</g>
</g>
<!-- 11&#45;&gt;5 -->
<g id="edge77" class="edge">
<title>11&#45;&gt;5</title>
<g id="a_edge77"><a xlink:title="include">
<path fill="none" stroke="#1414ce" d="M1150.1,-74.38C1145.34,-73.5 1140.6,-72.69 1136,-72 908.82,-37.91 633.85,-24.67 526.29,-20.56"/>
<polygon fill="#1414ce" stroke="#1414ce" points="526.23,-17.06 516.11,-20.18 525.97,-24.06 526.23,-17.06"/>
</a>
</g>
</g>
<!-- 28&#45;&gt;15 -->
<g id="edge80" class="edge">
<title>28&#45;&gt;15</title>
<g id="a_edge80"><a xlink:title="include">
<path fill="none" stroke="#1414ce" d="M489.72,-215.88C522.91,-203.71 566.84,-187.62 597.47,-176.39"/>
<polygon fill="#1414ce" stroke="#1414ce" points="598.73,-179.65 606.91,-172.93 596.32,-173.08 598.73,-179.65"/>
</a>
</g>
</g>
<!-- 28&#45;&gt;9 -->
<g id="edge78" class="edge">
<title>28&#45;&gt;9</title>
<g id="a_edge78"><a xlink:title="include">
<path fill="none" stroke="#1414ce" d="M433.07,-215.71C421.73,-196.82 401.88,-166.29 380,-144 369.13,-132.93 355.78,-122.43 343.53,-113.73"/>
<polygon fill="#1414ce" stroke="#1414ce" points="345.49,-110.83 335.28,-108.02 341.51,-116.59 345.49,-110.83"/>
</a>
</g>
</g>
<!-- 28&#45;&gt;5 -->
<g id="edge79" class="edge">
<title>28&#45;&gt;5</title>
<g id="a_edge79"><a xlink:title="include">
<path fill="none" stroke="#1414ce" d="M445.97,-215.85C452.38,-178.75 467.58,-90.81 475.31,-46.1"/>
<polygon fill="#1414ce" stroke="#1414ce" points="478.77,-46.68 477.02,-36.23 471.87,-45.49 478.77,-46.68"/>
</a>
</g>
</g>
<!-- 18 -->
<g id="node28" class="node">
<title>18</title>
<g id="a_node28"><a xlink:title="stddef.h">
<polygon fill="#ffffff" stroke="black" points="986,-108 912,-108 912,-72 986,-72 986,-108"/>
<text text-anchor="middle" x="949" y="-86.3" font-family="Times,serif" font-size="14.00">stddef.h</text>
</a>
</g>
</g>
<!-- 17&#45;&gt;18 -->
<g id="edge81" class="edge">
<title>17&#45;&gt;18</title>
<g id="a_edge81"><a xlink:title="include">
<path fill="none" stroke="#1414ce" d="M949,-143.7C949,-135.98 949,-126.71 949,-118.11"/>
<polygon fill="#1414ce" stroke="#1414ce" points="952.5,-118.1 949,-108.1 945.5,-118.1 952.5,-118.1"/>
</a>
</g>
</g>
<!-- 17&#45;&gt;19 -->
<g id="edge82" class="edge">
<title>17&#45;&gt;19</title>
<g id="a_edge82"><a xlink:title="include">
<path fill="none" stroke="#1414ce" d="M970.75,-143.7C981.84,-134.88 995.47,-124.03 1007.49,-114.47"/>
<polygon fill="#1414ce" stroke="#1414ce" points="1009.85,-117.07 1015.5,-108.1 1005.49,-111.59 1009.85,-117.07"/>
</a>
</g>
</g>
<!-- 17&#45;&gt;7 -->
<g id="edge83" class="edge">
<title>17&#45;&gt;7</title>
<g id="a_edge83"><a xlink:title="include">
<path fill="none" stroke="#1414ce" d="M917.82,-148.16C891.53,-137.33 853.56,-121.7 823.97,-109.52"/>
<polygon fill="#1414ce" stroke="#1414ce" points="825.27,-106.27 814.69,-105.7 822.6,-112.74 825.27,-106.27"/>
</a>
</g>
</g>
</g>
</svg>
