<?xml version="1.0" encoding="UTF-8" standalone="no"?>
<!DOCTYPE svg PUBLIC "-//W3C//DTD SVG 1.1//EN"
 "http://www.w3.org/Graphics/SVG/1.1/DTD/svg11.dtd">
<!-- Generated by graphviz version 2.43.0 (0)
 -->
<!-- Title: %3 Pages: 1 -->
<svg width="640pt" height="404pt"
 viewBox="0.00 0.00 640.00 404.00" xmlns="http://www.w3.org/2000/svg" xmlns:xlink="http://www.w3.org/1999/xlink">
<g id="graph0" class="graph" transform="scale(1 1) rotate(0) translate(4 400)">
<title>%3</title>
<polygon fill="transparent" stroke="transparent" points="-4,4 -4,-400 636,-400 636,4 -4,4"/>
<!-- 6 -->
<g id="node1" class="node">
<title>6</title>
<g id="a_node1"><a xlink:title="erl_nif.h">
<polygon fill="#ffffff" stroke="black" points="403.5,-180 329.5,-180 329.5,-144 403.5,-144 403.5,-180"/>
<text text-anchor="middle" x="366.5" y="-158.3" font-family="Times,serif" font-size="14.00">erl_nif.h</text>
</a>
</g>
</g>
<!-- 7 -->
<g id="node8" class="node">
<title>7</title>
<g id="a_node8"><a xlink:title="term_typedef.h">
<polygon fill="#ffffff" stroke="black" points="429,-108 304,-108 304,-72 429,-72 429,-108"/>
<text text-anchor="middle" x="366.5" y="-86.3" font-family="Times,serif" font-size="14.00">term_typedef.h</text>
</a>
</g>
</g>
<!-- 6&#45;&gt;7 -->
<g id="edge1" class="edge">
<title>6&#45;&gt;7</title>
<g id="a_edge1"><a xlink:title="include">
<path fill="none" stroke="#1414ce" d="M366.5,-143.7C366.5,-135.98 366.5,-126.71 366.5,-118.11"/>
<polygon fill="#1414ce" stroke="#1414ce" points="370,-118.1 366.5,-108.1 363,-118.1 370,-118.1"/>
</a>
</g>
</g>
<!-- 4 -->
<g id="node2" class="node">
<title>4</title>
<g id="a_node2"><a xlink:title="list.h">
<polygon fill="#ffffff" stroke="black" points="475.5,-180 421.5,-180 421.5,-144 475.5,-144 475.5,-180"/>
<text text-anchor="middle" x="448.5" y="-158.3" font-family="Times,serif" font-size="14.00">list.h</text>
</a>
</g>
</g>
<!-- 12 -->
<g id="node3" class="node">
<title>12</title>
<g id="a_node3"><a xlink:title="memory.h">
<polygon fill="#ffffff" stroke="black" points="322.5,-252 236.5,-252 236.5,-216 322.5,-216 322.5,-252"/>
<text text-anchor="middle" x="279.5" y="-230.3" font-family="Times,serif" font-size="14.00">memory.h</text>
</a>
</g>
</g>
<!-- 12&#45;&gt;6 -->
<g id="edge4" class="edge">
<title>12&#45;&gt;6</title>
<g id="a_edge4"><a xlink:title="include">
<path fill="none" stroke="#1414ce" d="M301.01,-215.7C311.96,-206.88 325.45,-196.03 337.32,-186.47"/>
<polygon fill="#1414ce" stroke="#1414ce" points="339.64,-189.1 345.24,-180.1 335.26,-183.65 339.64,-189.1"/>
</a>
</g>
</g>
<!-- 12&#45;&gt;7 -->
<g id="edge5" class="edge">
<title>12&#45;&gt;7</title>
<g id="a_edge5"><a xlink:title="include">
<path fill="none" stroke="#1414ce" d="M285.72,-215.86C292.8,-197.37 305.37,-167.44 320.5,-144 326.87,-134.13 334.98,-124.17 342.6,-115.59"/>
<polygon fill="#1414ce" stroke="#1414ce" points="345.24,-117.89 349.4,-108.14 340.07,-113.17 345.24,-117.89"/>
</a>
</g>
</g>
<!-- 13 -->
<g id="node9" class="node">
<title>13</title>
<g id="a_node9"><a xlink:title="utils.h">
<polygon fill="#ffffff" stroke="black" points="233.5,-180 171.5,-180 171.5,-144 233.5,-144 233.5,-180"/>
<text text-anchor="middle" x="202.5" y="-158.3" font-family="Times,serif" font-size="14.00">utils.h</text>
</a>
</g>
</g>
<!-- 12&#45;&gt;13 -->
<g id="edge6" class="edge">
<title>12&#45;&gt;13</title>
<g id="a_edge6"><a xlink:title="include">
<path fill="none" stroke="#1414ce" d="M260.47,-215.7C250.96,-207.05 239.29,-196.45 228.93,-187.03"/>
<polygon fill="#1414ce" stroke="#1414ce" points="231.07,-184.24 221.31,-180.1 226.36,-189.42 231.07,-184.24"/>
</a>
</g>
</g>
<!-- 11 -->
<g id="node15" class="node">
<title>11</title>
<g id="a_node15"><a xlink:title="stdint.h">
<polygon fill="#ffffff" stroke="black" points="311.5,-36 239.5,-36 239.5,0 311.5,0 311.5,-36"/>
<text text-anchor="middle" x="275.5" y="-14.3" font-family="Times,serif" font-size="14.00">stdint.h</text>
</a>
</g>
</g>
<!-- 12&#45;&gt;11 -->
<g id="edge2" class="edge">
<title>12&#45;&gt;11</title>
<g id="a_edge2"><a xlink:title="include">
<path fill="none" stroke="#1414ce" d="M279.18,-215.85C278.49,-178.83 276.85,-91.18 276.01,-46.39"/>
<polygon fill="#1414ce" stroke="#1414ce" points="279.51,-46.17 275.82,-36.23 272.51,-46.3 279.51,-46.17"/>
</a>
</g>
</g>
<!-- 3 -->
<g id="node17" class="node">
<title>3</title>
<g id="a_node17"><a xlink:title="stdlib.h">
<polygon fill="#ffffff" stroke="black" points="71,-108 0,-108 0,-72 71,-72 71,-108"/>
<text text-anchor="middle" x="35.5" y="-86.3" font-family="Times,serif" font-size="14.00">stdlib.h</text>
</a>
</g>
</g>
<!-- 12&#45;&gt;3 -->
<g id="edge3" class="edge">
<title>12&#45;&gt;3</title>
<g id="a_edge3"><a xlink:title="include">
<path fill="none" stroke="#1414ce" d="M236.87,-215.95C214.27,-206.35 186.33,-193.59 162.5,-180 143.63,-169.24 98.11,-136.7 67.02,-114.1"/>
<polygon fill="#1414ce" stroke="#1414ce" points="68.81,-111.07 58.66,-108.01 64.69,-116.73 68.81,-111.07"/>
</a>
</g>
</g>
<!-- 1 -->
<g id="node4" class="node">
<title>1</title>
<g id="a_node4"><a xlink:title="/__w/AtomVM/AtomVM/src/libAtomVM/refc_binary.h">
<polygon fill="#bfbfbf" stroke="black" points="591,-396 206,-396 206,-360 591,-360 591,-396"/>
<text text-anchor="middle" x="398.5" y="-374.3" font-family="Times,serif" font-size="14.00">/__w/AtomVM/AtomVM/src/libAtomVM/refc_binary.h</text>
</a>
</g>
</g>
<!-- 1&#45;&gt;4 -->
<g id="edge9" class="edge">
<title>1&#45;&gt;4</title>
<g id="a_edge9"><a xlink:title="include">
<path fill="none" stroke="#1414ce" d="M405.96,-359.59C410.11,-349.37 415.11,-336.12 418.5,-324 431.43,-277.75 440.36,-222.44 444.93,-190.16"/>
<polygon fill="#1414ce" stroke="#1414ce" points="448.42,-190.53 446.32,-180.15 441.48,-189.57 448.42,-190.53"/>
</a>
</g>
</g>
<!-- 5 -->
<g id="node5" class="node">
<title>5</title>
<g id="a_node5"><a xlink:title="resources.h">
<polygon fill="#ffffff" stroke="black" points="409.5,-324 309.5,-324 309.5,-288 409.5,-288 409.5,-324"/>
<text text-anchor="middle" x="359.5" y="-302.3" font-family="Times,serif" font-size="14.00">resources.h</text>
</a>
</g>
</g>
<!-- 1&#45;&gt;5 -->
<g id="edge10" class="edge">
<title>1&#45;&gt;5</title>
<g id="a_edge10"><a xlink:title="include">
<path fill="none" stroke="#1414ce" d="M388.86,-359.7C384.37,-351.64 378.94,-341.89 373.98,-332.98"/>
<polygon fill="#1414ce" stroke="#1414ce" points="376.95,-331.14 369.03,-324.1 370.84,-334.54 376.95,-331.14"/>
</a>
</g>
</g>
<!-- 2 -->
<g id="node13" class="node">
<title>2</title>
<g id="a_node13"><a xlink:title="stdbool.h">
<polygon fill="#ffffff" stroke="black" points="632,-108 549,-108 549,-72 632,-72 632,-108"/>
<text text-anchor="middle" x="590.5" y="-86.3" font-family="Times,serif" font-size="14.00">stdbool.h</text>
</a>
</g>
</g>
<!-- 1&#45;&gt;2 -->
<g id="edge7" class="edge">
<title>1&#45;&gt;2</title>
<g id="a_edge7"><a xlink:title="include">
<path fill="none" stroke="#1414ce" d="M426.85,-359.93C461.35,-338.14 519.87,-297.73 559.5,-252 583.62,-224.17 591.07,-215.6 600.5,-180 604.6,-164.53 601.99,-159.93 600.5,-144 599.7,-135.48 598.2,-126.28 596.6,-117.99"/>
<polygon fill="#1414ce" stroke="#1414ce" points="600,-117.16 594.56,-108.07 593.14,-118.57 600,-117.16"/>
</a>
</g>
</g>
<!-- 1&#45;&gt;3 -->
<g id="edge8" class="edge">
<title>1&#45;&gt;3</title>
<g id="a_edge8"><a xlink:title="include">
<path fill="none" stroke="#1414ce" d="M345.03,-359.94C271.35,-333.59 139.88,-275.74 70.5,-180 56.94,-161.28 47.77,-136.6 42.24,-117.98"/>
<polygon fill="#1414ce" stroke="#1414ce" points="45.6,-117.02 39.53,-108.33 38.86,-118.91 45.6,-117.02"/>
</a>
</g>
</g>
<!-- 5&#45;&gt;6 -->
<g id="edge12" class="edge">
<title>5&#45;&gt;6</title>
<g id="a_edge12"><a xlink:title="include">
<path fill="none" stroke="#1414ce" d="M360.34,-287.87C361.54,-263.67 363.73,-219.21 365.15,-190.39"/>
<polygon fill="#1414ce" stroke="#1414ce" points="368.66,-190.35 365.65,-180.19 361.66,-190 368.66,-190.35"/>
</a>
</g>
</g>
<!-- 5&#45;&gt;4 -->
<g id="edge13" class="edge">
<title>5&#45;&gt;4</title>
<g id="a_edge13"><a xlink:title="include">
<path fill="none" stroke="#1414ce" d="M370.24,-287.87C385.67,-263.24 414.26,-217.64 432.28,-188.88"/>
<polygon fill="#1414ce" stroke="#1414ce" points="435.38,-190.52 437.73,-180.19 429.45,-186.8 435.38,-190.52"/>
</a>
</g>
</g>
<!-- 5&#45;&gt;12 -->
<g id="edge14" class="edge">
<title>5&#45;&gt;12</title>
<g id="a_edge14"><a xlink:title="include">
<path fill="none" stroke="#1414ce" d="M339.72,-287.7C329.75,-278.97 317.49,-268.24 306.64,-258.75"/>
<polygon fill="#1414ce" stroke="#1414ce" points="308.88,-256.06 299.05,-252.1 304.27,-261.32 308.88,-256.06"/>
</a>
</g>
</g>
<!-- 16 -->
<g id="node7" class="node">
<title>16</title>
<g id="a_node7"><a xlink:title="synclist.h">
<polygon fill="#ffffff" stroke="black" points="551,-252 466,-252 466,-216 551,-216 551,-252"/>
<text text-anchor="middle" x="508.5" y="-230.3" font-family="Times,serif" font-size="14.00">synclist.h</text>
</a>
</g>
</g>
<!-- 5&#45;&gt;16 -->
<g id="edge15" class="edge">
<title>5&#45;&gt;16</title>
<g id="a_edge15"><a xlink:title="include">
<path fill="none" stroke="#1414ce" d="M395.95,-287.88C416.14,-278.39 441.42,-266.51 462.91,-256.42"/>
<polygon fill="#1414ce" stroke="#1414ce" points="464.61,-259.49 472.17,-252.07 461.63,-253.15 464.61,-259.49"/>
</a>
</g>
</g>
<!-- 5&#45;&gt;3 -->
<g id="edge11" class="edge">
<title>5&#45;&gt;3</title>
<g id="a_edge11"><a xlink:title="include">
<path fill="none" stroke="#1414ce" d="M309.42,-288.61C255.4,-269.1 169.02,-232.44 108.5,-180 86.76,-161.16 66.39,-135.37 52.72,-116.4"/>
<polygon fill="#1414ce" stroke="#1414ce" points="55.56,-114.35 46.93,-108.21 49.84,-118.4 55.56,-114.35"/>
</a>
</g>
</g>
<!-- 17 -->
<g id="node6" class="node">
<title>17</title>
<g id="a_node6"><a xlink:title="smp.h">
<polygon fill="#ffffff" stroke="black" points="591.5,-180 531.5,-180 531.5,-144 591.5,-144 591.5,-180"/>
<text text-anchor="middle" x="561.5" y="-158.3" font-family="Times,serif" font-size="14.00">smp.h</text>
</a>
</g>
</g>
<!-- 17&#45;&gt;2 -->
<g id="edge16" class="edge">
<title>17&#45;&gt;2</title>
<g id="a_edge16"><a xlink:title="include">
<path fill="none" stroke="#1414ce" d="M568.67,-143.7C571.93,-135.81 575.87,-126.3 579.5,-117.55"/>
<polygon fill="#1414ce" stroke="#1414ce" points="582.82,-118.68 583.41,-108.1 576.35,-116 582.82,-118.68"/>
</a>
</g>
</g>
<!-- 16&#45;&gt;4 -->
<g id="edge18" class="edge">
<title>16&#45;&gt;4</title>
<g id="a_edge18"><a xlink:title="include">
<path fill="none" stroke="#1414ce" d="M493.67,-215.7C486.48,-207.3 477.7,-197.07 469.81,-187.86"/>
<polygon fill="#1414ce" stroke="#1414ce" points="472.33,-185.42 463.16,-180.1 467.01,-189.97 472.33,-185.42"/>
</a>
</g>
</g>
<!-- 16&#45;&gt;17 -->
<g id="edge19" class="edge">
<title>16&#45;&gt;17</title>
<g id="a_edge19"><a xlink:title="include">
<path fill="none" stroke="#1414ce" d="M521.6,-215.7C527.89,-207.39 535.55,-197.28 542.46,-188.14"/>
<polygon fill="#1414ce" stroke="#1414ce" points="545.3,-190.19 548.55,-180.1 539.72,-185.96 545.3,-190.19"/>
</a>
</g>
</g>
<!-- 15 -->
<g id="node16" class="node">
<title>15</title>
<g id="a_node16"><a xlink:title="stdio.h">
<polygon fill="#ffffff" stroke="black" points="247,-108 182,-108 182,-72 247,-72 247,-108"/>
<text text-anchor="middle" x="214.5" y="-86.3" font-family="Times,serif" font-size="14.00">stdio.h</text>
</a>
</g>
</g>
<!-- 16&#45;&gt;15 -->
<g id="edge17" class="edge">
<title>16&#45;&gt;15</title>
<g id="a_edge17"><a xlink:title="include">
<path fill="none" stroke="#1414ce" d="M508.95,-215.88C508.49,-195.67 504.46,-162.49 484.5,-144 421.46,-85.58 378.76,-124.93 294.5,-108 282.32,-105.55 269.12,-102.79 257.02,-100.22"/>
<polygon fill="#1414ce" stroke="#1414ce" points="257.67,-96.78 247.16,-98.11 256.21,-103.62 257.67,-96.78"/>
</a>
</g>
</g>
<!-- 8 -->
<g id="node10" class="node">
<title>8</title>
<g id="a_node10"><a xlink:title="assert.h">
<polygon fill="#ffffff" stroke="black" points="403.5,-36 329.5,-36 329.5,0 403.5,0 403.5,-36"/>
<text text-anchor="middle" x="366.5" y="-14.3" font-family="Times,serif" font-size="14.00">assert.h</text>
</a>
</g>
</g>
<!-- 7&#45;&gt;8 -->
<g id="edge20" class="edge">
<title>7&#45;&gt;8</title>
<g id="a_edge20"><a xlink:title="include">
<path fill="none" stroke="#1414ce" d="M366.5,-71.7C366.5,-63.98 366.5,-54.71 366.5,-46.11"/>
<polygon fill="#1414ce" stroke="#1414ce" points="370,-46.1 366.5,-36.1 363,-46.1 370,-46.1"/>
</a>
</g>
</g>
<!-- 10 -->
<g id="node11" class="node">
<title>10</title>
<g id="a_node11"><a xlink:title="inttypes.h">
<polygon fill="#ffffff" stroke="black" points="511,-36 422,-36 422,0 511,0 511,-36"/>
<text text-anchor="middle" x="466.5" y="-14.3" font-family="Times,serif" font-size="14.00">inttypes.h</text>
</a>
</g>
</g>
<!-- 7&#45;&gt;10 -->
<g id="edge22" class="edge">
<title>7&#45;&gt;10</title>
<g id="a_edge22"><a xlink:title="include">
<path fill="none" stroke="#1414ce" d="M390.96,-71.88C403.8,-62.89 419.7,-51.76 433.59,-42.03"/>
<polygon fill="#1414ce" stroke="#1414ce" points="435.76,-44.79 441.94,-36.19 431.74,-39.06 435.76,-44.79"/>
</a>
</g>
</g>
<!-- 9 -->
<g id="node12" class="node">
<title>9</title>
<g id="a_node12"><a xlink:title="limits.h">
<polygon fill="#ffffff" stroke="black" points="600,-36 529,-36 529,0 600,0 600,-36"/>
<text text-anchor="middle" x="564.5" y="-14.3" font-family="Times,serif" font-size="14.00">limits.h</text>
</a>
</g>
</g>
<!-- 7&#45;&gt;9 -->
<g id="edge21" class="edge">
<title>7&#45;&gt;9</title>
<g id="a_edge21"><a xlink:title="include">
<path fill="none" stroke="#1414ce" d="M416.93,-71.92C444.6,-62.46 479.72,-50.31 519.12,-36.1"/>
<polygon fill="#1414ce" stroke="#1414ce" points="520.46,-39.33 528.67,-32.64 518.08,-32.75 520.46,-39.33"/>
</a>
</g>
</g>
<!-- 7&#45;&gt;11 -->
<g id="edge23" class="edge">
<title>7&#45;&gt;11</title>
<g id="a_edge23"><a xlink:title="include">
<path fill="none" stroke="#1414ce" d="M344.01,-71.7C332.54,-62.88 318.44,-52.03 306.02,-42.47"/>
<polygon fill="#1414ce" stroke="#1414ce" points="307.8,-39.43 297.74,-36.1 303.53,-44.98 307.8,-39.43"/>
</a>
</g>
</g>
<!-- 14 -->
<g id="node14" class="node">
<title>14</title>
<g id="a_node14"><a xlink:title="stddef.h">
<polygon fill="#ffffff" stroke="black" points="163.5,-108 89.5,-108 89.5,-72 163.5,-72 163.5,-108"/>
<text text-anchor="middle" x="126.5" y="-86.3" font-family="Times,serif" font-size="14.00">stddef.h</text>
</a>
</g>
</g>
<!-- 13&#45;&gt;14 -->
<g id="edge24" class="edge">
<title>13&#45;&gt;14</title>
<g id="a_edge24"><a xlink:title="include">
<path fill="none" stroke="#1414ce" d="M183.71,-143.7C174.33,-135.05 162.82,-124.45 152.59,-115.03"/>
<polygon fill="#1414ce" stroke="#1414ce" points="154.8,-112.3 145.07,-108.1 150.05,-117.45 154.8,-112.3"/>
</a>
</g>
</g>
<!-- 13&#45;&gt;15 -->
<g id="edge25" class="edge">
<title>13&#45;&gt;15</title>
<g id="a_edge25"><a xlink:title="include">
<path fill="none" stroke="#1414ce" d="M205.47,-143.7C206.79,-135.98 208.38,-126.71 209.85,-118.11"/>
<polygon fill="#1414ce" stroke="#1414ce" points="213.33,-118.55 211.57,-108.1 206.43,-117.37 213.33,-118.55"/>
</a>
</g>
</g>
<!-- 13&#45;&gt;3 -->
<g id="edge26" class="edge">
<title>13&#45;&gt;3</title>
<g id="a_edge26"><a xlink:title="include">
<path fill="none" stroke="#1414ce" d="M171.48,-148C145.97,-137.31 109.47,-122.01 80.71,-109.95"/>
<polygon fill="#1414ce" stroke="#1414ce" points="81.86,-106.64 71.28,-106 79.15,-113.09 81.86,-106.64"/>
</a>
</g>
</g>
</g>
</svg>
