<?xml version="1.0" encoding="UTF-8" standalone="no"?>
<!DOCTYPE svg PUBLIC "-//W3C//DTD SVG 1.1//EN"
 "http://www.w3.org/Graphics/SVG/1.1/DTD/svg11.dtd">
<!-- Generated by graphviz version 2.43.0 (0)
 -->
<!-- Title: %3 Pages: 1 -->
<svg width="164pt" height="116pt"
 viewBox="0.00 0.00 163.50 116.00" xmlns="http://www.w3.org/2000/svg" xmlns:xlink="http://www.w3.org/1999/xlink">
<g id="graph0" class="graph" transform="scale(1 1) rotate(0) translate(4 112)">
<title>%3</title>
<polygon fill="transparent" stroke="transparent" points="-4,4 -4,-112 159.5,-112 159.5,4 -4,4"/>
<!-- 2 -->
<g id="node1" class="node">
<title>2</title>
<g id="a_node1"><a xlink:title="MailboxMessage">
<polygon fill="#ffffff" stroke="black" points="137.5,-36 0.5,-36 0.5,0 137.5,0 137.5,-36"/>
<text text-anchor="middle" x="69" y="-14.3" font-family="Times,serif" font-size="14.00">MailboxMessage</text>
</a>
</g>
</g>
<!-- 2&#45;&gt;2 -->
<g id="edge1" class="edge">
<title>2&#45;&gt;2</title>
<g id="a_edge1"><a xlink:title="usage">
<path fill="none" stroke="#1414ce" d="M137.53,-30.37C148.21,-28.52 155.5,-24.4 155.5,-18 155.5,-13.8 152.36,-10.58 147.18,-8.34"/>
<polygon fill="#1414ce" stroke="#1414ce" points="148.1,-4.96 137.53,-5.63 146.21,-11.7 148.1,-4.96"/>
</a>
</g>
</g>
<!-- 1 -->
<g id="node2" class="node">
<title>1</title>
<g id="a_node2"><a xlink:title="ImmediateSignal">
<polygon fill="#bfbfbf" stroke="black" points="138,-108 0,-108 0,-72 138,-72 138,-108"/>
<text text-anchor="middle" x="69" y="-86.3" font-family="Times,serif" font-size="14.00">ImmediateSignal</text>
</a>
</g>
</g>
<!-- 1&#45;&gt;2 -->
<g id="edge2" class="edge">
<title>1&#45;&gt;2</title>
<g id="a_edge2"><a xlink:title="usage">
<path fill="none" stroke="#1414ce" d="M69,-71.7C69,-63.98 69,-54.71 69,-46.11"/>
<polygon fill="#1414ce" stroke="#1414ce" points="72.5,-46.1 69,-36.1 65.5,-46.1 72.5,-46.1"/>
</a>
</g>
</g>
</g>
</svg>
