<?xml version="1.0" encoding="UTF-8" standalone="no"?>
<!DOCTYPE svg PUBLIC "-//W3C//DTD SVG 1.1//EN"
 "http://www.w3.org/Graphics/SVG/1.1/DTD/svg11.dtd">
<!-- Generated by graphviz version 2.43.0 (0)
 -->
<!-- Title: %3 Pages: 1 -->
<svg width="1548pt" height="548pt"
 viewBox="0.00 0.00 1547.50 548.00" xmlns="http://www.w3.org/2000/svg" xmlns:xlink="http://www.w3.org/1999/xlink">
<g id="graph0" class="graph" transform="scale(1 1) rotate(0) translate(4 544)">
<title>%3</title>
<polygon fill="transparent" stroke="transparent" points="-4,4 -4,-544 1543.5,-544 1543.5,4 -4,4"/>
<!-- 23 -->
<g id="node1" class="node">
<title>23</title>
<g id="a_node1"><a xlink:title="SpinLock">
<polygon fill="#ffffff" stroke="black" points="447,-324 365,-324 365,-288 447,-288 447,-324"/>
<text text-anchor="middle" x="406" y="-302.3" font-family="Times,serif" font-size="14.00">SpinLock</text>
</a>
</g>
</g>
<!-- 19 -->
<g id="node2" class="node">
<title>19</title>
<g id="a_node2"><a xlink:title="ResourceType">
<polygon fill="#ffffff" stroke="black" points="907.5,-180 790.5,-180 790.5,-144 907.5,-144 907.5,-180"/>
<text text-anchor="middle" x="849" y="-158.3" font-family="Times,serif" font-size="14.00">ResourceType</text>
</a>
</g>
</g>
<!-- 7 -->
<g id="node4" class="node">
<title>7</title>
<g id="a_node4"><a xlink:title="ListHead">
<polygon fill="#ffffff" stroke="black" points="913.5,-36 832.5,-36 832.5,0 913.5,0 913.5,-36"/>
<text text-anchor="middle" x="873" y="-14.3" font-family="Times,serif" font-size="14.00">ListHead</text>
</a>
</g>
</g>
<!-- 19&#45;&gt;7 -->
<g id="edge3" class="edge">
<title>19&#45;&gt;7</title>
<g id="a_edge3"><a xlink:title="usage">
<path fill="none" stroke="#1414ce" d="M851.89,-143.87C855.99,-119.67 863.5,-75.21 868.37,-46.39"/>
<polygon fill="#1414ce" stroke="#1414ce" points="871.88,-46.63 870.09,-36.19 864.98,-45.47 871.88,-46.63"/>
</a>
</g>
</g>
<!-- 12 -->
<g id="node7" class="node">
<title>12</title>
<g id="a_node7"><a xlink:title="GlobalContext">
<polygon fill="#ffffff" stroke="black" points="733.5,-396 614.5,-396 614.5,-360 733.5,-360 733.5,-396"/>
<text text-anchor="middle" x="674" y="-374.3" font-family="Times,serif" font-size="14.00">GlobalContext</text>
</a>
</g>
</g>
<!-- 19&#45;&gt;12 -->
<g id="edge2" class="edge">
<title>19&#45;&gt;12</title>
<g id="a_edge2"><a xlink:title="usage">
<path fill="none" stroke="#1414ce" d="M836.01,-180.25C806.8,-219.01 737.58,-310.64 726,-324 717.56,-333.74 707.78,-343.96 698.99,-352.79"/>
<polygon fill="#1414ce" stroke="#1414ce" points="696.52,-350.32 691.89,-359.85 701.45,-355.28 696.52,-350.32"/>
</a>
</g>
</g>
<!-- 20 -->
<g id="node22" class="node">
<title>20</title>
<g id="a_node22"><a xlink:title="SyncList">
<polygon fill="#ffffff" stroke="black" points="845,-108 767,-108 767,-72 845,-72 845,-108"/>
<text text-anchor="middle" x="806" y="-86.3" font-family="Times,serif" font-size="14.00">SyncList</text>
</a>
</g>
</g>
<!-- 19&#45;&gt;20 -->
<g id="edge1" class="edge">
<title>19&#45;&gt;20</title>
<g id="a_edge1"><a xlink:title="usage">
<path fill="none" stroke="#1414ce" d="M838.37,-143.7C833.37,-135.56 827.31,-125.69 821.79,-116.7"/>
<polygon fill="#1414ce" stroke="#1414ce" points="824.72,-114.79 816.51,-108.1 818.76,-118.46 824.72,-114.79"/>
</a>
</g>
</g>
<!-- 8 -->
<g id="node3" class="node">
<title>8</title>
<g id="a_node3"><a xlink:title="Module">
<polygon fill="#ffffff" stroke="black" points="300,-324 230,-324 230,-288 300,-288 300,-324"/>
<text text-anchor="middle" x="265" y="-302.3" font-family="Times,serif" font-size="14.00">Module</text>
</a>
</g>
</g>
<!-- 9 -->
<g id="node10" class="node">
<title>9</title>
<g id="a_node10"><a xlink:title="LiteralEntry">
<polygon fill="#ffffff" stroke="black" points="268,-252 164,-252 164,-216 268,-216 268,-252"/>
<text text-anchor="middle" x="216" y="-230.3" font-family="Times,serif" font-size="14.00">LiteralEntry</text>
</a>
</g>
</g>
<!-- 8&#45;&gt;9 -->
<g id="edge5" class="edge">
<title>8&#45;&gt;9</title>
<g id="a_edge5"><a xlink:title="usage">
<path fill="none" stroke="#1414ce" d="M252.89,-287.7C247.13,-279.47 240.14,-269.48 233.79,-260.42"/>
<polygon fill="#1414ce" stroke="#1414ce" points="236.58,-258.29 227.97,-252.1 230.84,-262.3 236.58,-258.29"/>
</a>
</g>
</g>
<!-- 2 -->
<g id="node20" class="node">
<title>2</title>
<g id="a_node20"><a xlink:title="ExportedFunction">
<polygon fill="#ffffff" stroke="black" points="146,-252 0,-252 0,-216 146,-216 146,-252"/>
<text text-anchor="middle" x="73" y="-230.3" font-family="Times,serif" font-size="14.00">ExportedFunction</text>
</a>
</g>
</g>
<!-- 8&#45;&gt;2 -->
<g id="edge4" class="edge">
<title>8&#45;&gt;2</title>
<g id="a_edge4"><a xlink:title="usage">
<path fill="none" stroke="#1414ce" d="M229.78,-292.16C201.82,-281.97 162.17,-267.51 129.75,-255.69"/>
<polygon fill="#1414ce" stroke="#1414ce" points="130.53,-252.25 119.93,-252.11 128.13,-258.82 130.53,-252.25"/>
</a>
</g>
</g>
<!-- 7&#45;&gt;7 -->
<g id="edge6" class="edge">
<title>7&#45;&gt;7</title>
<g id="a_edge6"><a xlink:title="usage">
<path fill="none" stroke="#1414ce" d="M913.73,-31.31C923.9,-30.38 931.5,-25.95 931.5,-18 931.5,-12.91 928.38,-9.26 923.47,-7.05"/>
<polygon fill="#1414ce" stroke="#1414ce" points="924.28,-3.64 913.73,-4.69 922.63,-10.45 924.28,-3.64"/>
</a>
</g>
</g>
<!-- 11 -->
<g id="node5" class="node">
<title>11</title>
<g id="a_node5"><a xlink:title="HeapFragment">
<polygon fill="#ffffff" stroke="black" points="1345.5,-324 1220.5,-324 1220.5,-288 1345.5,-288 1345.5,-324"/>
<text text-anchor="middle" x="1283" y="-302.3" font-family="Times,serif" font-size="14.00">HeapFragment</text>
</a>
</g>
</g>
<!-- 11&#45;&gt;11 -->
<g id="edge7" class="edge">
<title>11&#45;&gt;11</title>
<g id="a_edge7"><a xlink:title="usage">
<path fill="none" stroke="#1414ce" d="M1345.78,-318.55C1356.26,-316.79 1363.5,-312.61 1363.5,-306 1363.5,-301.77 1360.53,-298.53 1355.64,-296.29"/>
<polygon fill="#1414ce" stroke="#1414ce" points="1356.36,-292.85 1345.78,-293.45 1354.42,-299.58 1356.36,-292.85"/>
</a>
</g>
</g>
<!-- 17 -->
<g id="node6" class="node">
<title>17</title>
<g id="a_node6"><a xlink:title="RefcBinaryQueueItem">
<polygon fill="#ffffff" stroke="black" points="952,-324 778,-324 778,-288 952,-288 952,-324"/>
<text text-anchor="middle" x="865" y="-302.3" font-family="Times,serif" font-size="14.00">RefcBinaryQueueItem</text>
</a>
</g>
</g>
<!-- 17&#45;&gt;17 -->
<g id="edge9" class="edge">
<title>17&#45;&gt;17</title>
<g id="a_edge9"><a xlink:title="usage">
<path fill="none" stroke="#1414ce" d="M952.3,-317.68C962.99,-315.59 970,-311.7 970,-306 970,-302.35 967.12,-299.44 962.25,-297.27"/>
<polygon fill="#1414ce" stroke="#1414ce" points="962.88,-293.81 952.3,-294.32 960.89,-300.52 962.88,-293.81"/>
</a>
</g>
</g>
<!-- 18 -->
<g id="node17" class="node">
<title>18</title>
<g id="a_node17"><a xlink:title="RefcBinary">
<polygon fill="#ffffff" stroke="black" points="912.5,-252 817.5,-252 817.5,-216 912.5,-216 912.5,-252"/>
<text text-anchor="middle" x="865" y="-230.3" font-family="Times,serif" font-size="14.00">RefcBinary</text>
</a>
</g>
</g>
<!-- 17&#45;&gt;18 -->
<g id="edge8" class="edge">
<title>17&#45;&gt;18</title>
<g id="a_edge8"><a xlink:title="usage">
<path fill="none" stroke="#1414ce" d="M865,-287.7C865,-279.98 865,-270.71 865,-262.11"/>
<polygon fill="#1414ce" stroke="#1414ce" points="868.5,-262.1 865,-252.1 861.5,-262.1 868.5,-262.1"/>
</a>
</g>
</g>
<!-- 12&#45;&gt;23 -->
<g id="edge17" class="edge">
<title>12&#45;&gt;23</title>
<g id="a_edge17"><a xlink:title="usage">
<path fill="none" stroke="#1414ce" d="M614.09,-363.04C571.28,-352.83 512.39,-338.32 461,-324 459.59,-323.61 458.15,-323.2 456.71,-322.79"/>
<polygon fill="#1414ce" stroke="#1414ce" points="457.65,-319.42 447.07,-319.97 455.69,-326.14 457.65,-319.42"/>
</a>
</g>
</g>
<!-- 12&#45;&gt;8 -->
<g id="edge14" class="edge">
<title>12&#45;&gt;8</title>
<g id="a_edge14"><a xlink:title="usage">
<path fill="none" stroke="#1414ce" d="M614.45,-367.43C550.51,-357.07 445.98,-339.9 356,-324 341.23,-321.39 325.13,-318.42 310.64,-315.71"/>
<polygon fill="#1414ce" stroke="#1414ce" points="310.88,-312.19 300.41,-313.78 309.59,-319.07 310.88,-312.19"/>
</a>
</g>
</g>
<!-- 12&#45;&gt;7 -->
<g id="edge18" class="edge">
<title>12&#45;&gt;7</title>
<g id="a_edge18"><a xlink:title="usage">
<path fill="none" stroke="#1414ce" d="M665.18,-359.74C646.1,-319.87 605.32,-219 639,-144 671.1,-72.51 763.91,-40.83 822.54,-27.62"/>
<polygon fill="#1414ce" stroke="#1414ce" points="823.31,-31.04 832.35,-25.51 821.84,-24.19 823.31,-31.04"/>
</a>
</g>
</g>
<!-- 12&#45;&gt;17 -->
<g id="edge12" class="edge">
<title>12&#45;&gt;17</title>
<g id="a_edge12"><a xlink:title="usage">
<path fill="none" stroke="#1414ce" d="M720.72,-359.88C747.3,-350.14 780.76,-337.87 808.77,-327.61"/>
<polygon fill="#1414ce" stroke="#1414ce" points="810.24,-330.8 818.43,-324.07 807.83,-324.22 810.24,-330.8"/>
</a>
</g>
</g>
<!-- 22 -->
<g id="node9" class="node">
<title>22</title>
<g id="a_node9"><a xlink:title="TimerList">
<polygon fill="#ffffff" stroke="black" points="734,-180 648,-180 648,-144 734,-144 734,-180"/>
<text text-anchor="middle" x="691" y="-158.3" font-family="Times,serif" font-size="14.00">TimerList</text>
</a>
</g>
</g>
<!-- 12&#45;&gt;22 -->
<g id="edge16" class="edge">
<title>12&#45;&gt;22</title>
<g id="a_edge16"><a xlink:title="usage">
<path fill="none" stroke="#1414ce" d="M675.36,-359.85C678.3,-322.83 685.27,-235.18 688.82,-190.39"/>
<polygon fill="#1414ce" stroke="#1414ce" points="692.33,-190.48 689.63,-180.23 685.35,-189.92 692.33,-190.48"/>
</a>
</g>
</g>
<!-- 13 -->
<g id="node15" class="node">
<title>13</title>
<g id="a_node15"><a xlink:title="MessageQueueItem">
<polygon fill="#ffffff" stroke="black" points="1146,-324 988,-324 988,-288 1146,-288 1146,-324"/>
<text text-anchor="middle" x="1067" y="-302.3" font-family="Times,serif" font-size="14.00">MessageQueueItem</text>
</a>
</g>
</g>
<!-- 12&#45;&gt;13 -->
<g id="edge10" class="edge">
<title>12&#45;&gt;13</title>
<g id="a_edge10"><a xlink:title="usage">
<path fill="none" stroke="#1414ce" d="M733.67,-366.97C793.04,-356.92 887,-340.8 977.93,-324.18"/>
<polygon fill="#1414ce" stroke="#1414ce" points="978.65,-327.61 987.86,-322.36 977.39,-320.72 978.65,-327.61"/>
</a>
</g>
</g>
<!-- 21 -->
<g id="node16" class="node">
<title>21</title>
<g id="a_node16"><a xlink:title="AtomsHashTable">
<polygon fill="#ffffff" stroke="black" points="423.5,-252 286.5,-252 286.5,-216 423.5,-216 423.5,-252"/>
<text text-anchor="middle" x="355" y="-230.3" font-family="Times,serif" font-size="14.00">AtomsHashTable</text>
</a>
</g>
</g>
<!-- 12&#45;&gt;21 -->
<g id="edge15" class="edge">
<title>12&#45;&gt;21</title>
<g id="a_edge15"><a xlink:title="usage">
<path fill="none" stroke="#1414ce" d="M614.45,-366.84C577.96,-358.88 531.27,-345.45 494,-324 473.84,-312.39 474.92,-301.53 456,-288 439.56,-276.24 420.16,-265.43 402.79,-256.68"/>
<polygon fill="#1414ce" stroke="#1414ce" points="403.9,-253.33 393.38,-252.04 400.8,-259.6 403.9,-253.33"/>
</a>
</g>
</g>
<!-- 14 -->
<g id="node19" class="node">
<title>14</title>
<g id="a_node19"><a xlink:title="AtomTable">
<polygon fill="#ffffff" stroke="black" points="595,-324 503,-324 503,-288 595,-288 595,-324"/>
<text text-anchor="middle" x="549" y="-302.3" font-family="Times,serif" font-size="14.00">AtomTable</text>
</a>
</g>
</g>
<!-- 12&#45;&gt;14 -->
<g id="edge11" class="edge">
<title>12&#45;&gt;14</title>
<g id="a_edge11"><a xlink:title="usage">
<path fill="none" stroke="#1414ce" d="M643.42,-359.88C626.93,-350.64 606.38,-339.13 588.66,-329.21"/>
<polygon fill="#1414ce" stroke="#1414ce" points="590.13,-326.02 579.7,-324.19 586.71,-332.13 590.13,-326.02"/>
</a>
</g>
</g>
<!-- 12&#45;&gt;20 -->
<g id="edge13" class="edge">
<title>12&#45;&gt;20</title>
<g id="a_edge13"><a xlink:title="usage">
<path fill="none" stroke="#1414ce" d="M681.86,-359.97C704,-311.99 767,-175.5 793.75,-117.54"/>
<polygon fill="#1414ce" stroke="#1414ce" points="797,-118.85 798.01,-108.31 790.64,-115.92 797,-118.85"/>
</a>
</g>
</g>
<!-- 16 -->
<g id="node8" class="node">
<title>16</title>
<g id="a_node8"><a xlink:title="HNodeGroup">
<polygon fill="#ffffff" stroke="black" points="590,-252 480,-252 480,-216 590,-216 590,-252"/>
<text text-anchor="middle" x="535" y="-230.3" font-family="Times,serif" font-size="14.00">HNodeGroup</text>
</a>
</g>
</g>
<!-- 16&#45;&gt;16 -->
<g id="edge20" class="edge">
<title>16&#45;&gt;16</title>
<g id="a_edge20"><a xlink:title="usage">
<path fill="none" stroke="#1414ce" d="M590.07,-246.85C600.57,-245.32 608,-241.03 608,-234 608,-229.5 604.95,-226.12 600,-223.87"/>
<polygon fill="#1414ce" stroke="#1414ce" points="600.64,-220.42 590.07,-221.15 598.79,-227.17 600.64,-220.42"/>
</a>
</g>
</g>
<!-- 15 -->
<g id="node23" class="node">
<title>15</title>
<g id="a_node23"><a xlink:title="HNode">
<polygon fill="#ffffff" stroke="black" points="485,-180 419,-180 419,-144 485,-144 485,-180"/>
<text text-anchor="middle" x="452" y="-158.3" font-family="Times,serif" font-size="14.00">HNode</text>
</a>
</g>
</g>
<!-- 16&#45;&gt;15 -->
<g id="edge19" class="edge">
<title>16&#45;&gt;15</title>
<g id="a_edge19"><a xlink:title="usage">
<path fill="none" stroke="#1414ce" d="M514.48,-215.7C504.13,-206.97 491.41,-196.24 480.16,-186.75"/>
<polygon fill="#1414ce" stroke="#1414ce" points="482.18,-183.88 472.28,-180.1 477.67,-189.23 482.18,-183.88"/>
</a>
</g>
</g>
<!-- 22&#45;&gt;7 -->
<g id="edge21" class="edge">
<title>22&#45;&gt;7</title>
<g id="a_edge21"><a xlink:title="usage">
<path fill="none" stroke="#1414ce" d="M700.34,-143.91C711.76,-124.35 732.71,-92.4 758,-72 777.14,-56.56 801.52,-44.5 822.89,-35.8"/>
<polygon fill="#1414ce" stroke="#1414ce" points="824.44,-38.95 832.47,-32.05 821.88,-32.44 824.44,-38.95"/>
</a>
</g>
</g>
<!-- 5 -->
<g id="node11" class="node">
<title>5</title>
<g id="a_node11"><a xlink:title="MailboxMessage">
<polygon fill="#ffffff" stroke="black" points="1198.5,-252 1061.5,-252 1061.5,-216 1198.5,-216 1198.5,-252"/>
<text text-anchor="middle" x="1130" y="-230.3" font-family="Times,serif" font-size="14.00">MailboxMessage</text>
</a>
</g>
</g>
<!-- 5&#45;&gt;5 -->
<g id="edge22" class="edge">
<title>5&#45;&gt;5</title>
<g id="a_edge22"><a xlink:title="usage">
<path fill="none" stroke="#1414ce" d="M1198.53,-246.37C1209.21,-244.52 1216.5,-240.4 1216.5,-234 1216.5,-229.8 1213.36,-226.58 1208.18,-224.34"/>
<polygon fill="#1414ce" stroke="#1414ce" points="1209.1,-220.96 1198.53,-221.63 1207.21,-227.7 1209.1,-220.96"/>
</a>
</g>
</g>
<!-- 1 -->
<g id="node12" class="node">
<title>1</title>
<g id="a_node12"><a xlink:title="Bif">
<polygon fill="#bfbfbf" stroke="black" points="600,-540 546,-540 546,-504 600,-504 600,-540"/>
<text text-anchor="middle" x="573" y="-518.3" font-family="Times,serif" font-size="14.00">Bif</text>
</a>
</g>
</g>
<!-- 3 -->
<g id="node14" class="node">
<title>3</title>
<g id="a_node14"><a xlink:title="Context">
<polygon fill="#ffffff" stroke="black" points="1228.5,-468 1155.5,-468 1155.5,-432 1228.5,-432 1228.5,-468"/>
<text text-anchor="middle" x="1192" y="-446.3" font-family="Times,serif" font-size="14.00">Context</text>
</a>
</g>
</g>
<!-- 1&#45;&gt;3 -->
<g id="edge24" class="edge">
<title>1&#45;&gt;3</title>
<g id="a_edge24"><a xlink:title="usage">
<path fill="none" stroke="#1414ce" d="M600.4,-517.9C697.02,-506.98 1022.65,-470.15 1145,-456.31"/>
<polygon fill="#1414ce" stroke="#1414ce" points="1145.63,-459.77 1155.17,-455.16 1144.84,-452.81 1145.63,-459.77"/>
</a>
</g>
</g>
<!-- 1&#45;&gt;2 -->
<g id="edge23" class="edge">
<title>1&#45;&gt;2</title>
<g id="a_edge23"><a xlink:title="usage">
<path fill="none" stroke="#1414ce" d="M545.9,-506.21C486.64,-473.79 341.23,-393.77 221,-324 182.81,-301.84 139.58,-275.72 109.75,-257.53"/>
<polygon fill="#1414ce" stroke="#1414ce" points="111.3,-254.38 100.94,-252.16 107.65,-260.36 111.3,-254.38"/>
</a>
</g>
</g>
<!-- 10 -->
<g id="node13" class="node">
<title>10</title>
<g id="a_node13"><a xlink:title="Heap">
<polygon fill="#ffffff" stroke="black" points="1306,-396 1252,-396 1252,-360 1306,-360 1306,-396"/>
<text text-anchor="middle" x="1279" y="-374.3" font-family="Times,serif" font-size="14.00">Heap</text>
</a>
</g>
</g>
<!-- 10&#45;&gt;11 -->
<g id="edge25" class="edge">
<title>10&#45;&gt;11</title>
<g id="a_edge25"><a xlink:title="usage">
<path fill="none" stroke="#1414ce" d="M1279.99,-359.7C1280.43,-351.98 1280.96,-342.71 1281.45,-334.11"/>
<polygon fill="#1414ce" stroke="#1414ce" points="1284.95,-334.29 1282.02,-324.1 1277.96,-333.89 1284.95,-334.29"/>
</a>
</g>
</g>
<!-- 3&#45;&gt;8 -->
<g id="edge29" class="edge">
<title>3&#45;&gt;8</title>
<g id="a_edge29"><a xlink:title="usage">
<path fill="none" stroke="#1414ce" d="M1155.38,-447.79C1062.74,-444.27 811.79,-431.91 606,-396 498.44,-377.23 375.14,-341.38 310.3,-321.39"/>
<polygon fill="#1414ce" stroke="#1414ce" points="311,-317.94 300.41,-318.32 308.93,-324.62 311,-317.94"/>
</a>
</g>
</g>
<!-- 3&#45;&gt;7 -->
<g id="edge32" class="edge">
<title>3&#45;&gt;7</title>
<g id="a_edge32"><a xlink:title="usage">
<path fill="none" stroke="#1414ce" d="M1228.68,-440.72C1286.42,-425.28 1392,-386.21 1392,-307 1392,-307 1392,-307 1392,-161 1392,-64.59 1054.6,-31.33 923.88,-22.07"/>
<polygon fill="#1414ce" stroke="#1414ce" points="923.94,-18.56 913.73,-21.37 923.46,-25.55 923.94,-18.56"/>
</a>
</g>
</g>
<!-- 3&#45;&gt;12 -->
<g id="edge31" class="edge">
<title>3&#45;&gt;12</title>
<g id="a_edge31"><a xlink:title="usage">
<path fill="none" stroke="#1414ce" d="M1155.16,-444.02C1069.43,-432.44 855.39,-403.51 743.94,-388.45"/>
<polygon fill="#1414ce" stroke="#1414ce" points="744.18,-384.95 733.81,-387.08 743.25,-391.89 744.18,-384.95"/>
</a>
</g>
</g>
<!-- 3&#45;&gt;10 -->
<g id="edge30" class="edge">
<title>3&#45;&gt;10</title>
<g id="a_edge30"><a xlink:title="usage">
<path fill="none" stroke="#1414ce" d="M1213.51,-431.7C1224.46,-422.88 1237.95,-412.03 1249.82,-402.47"/>
<polygon fill="#1414ce" stroke="#1414ce" points="1252.14,-405.1 1257.74,-396.1 1247.76,-399.65 1252.14,-405.1"/>
</a>
</g>
</g>
<!-- 3&#45;&gt;3 -->
<g id="edge26" class="edge">
<title>3&#45;&gt;3</title>
<g id="a_edge26"><a xlink:title="usage">
<path fill="none" stroke="#1414ce" d="M1228.68,-463.42C1238.78,-462.77 1246.5,-458.3 1246.5,-450 1246.5,-444.81 1243.48,-441.12 1238.76,-438.93"/>
<polygon fill="#1414ce" stroke="#1414ce" points="1239.21,-435.44 1228.68,-436.58 1237.63,-442.26 1239.21,-435.44"/>
</a>
</g>
</g>
<!-- 4 -->
<g id="node18" class="node">
<title>4</title>
<g id="a_node18"><a xlink:title="Mailbox">
<polygon fill="#ffffff" stroke="black" points="1229,-396 1155,-396 1155,-360 1229,-360 1229,-396"/>
<text text-anchor="middle" x="1192" y="-374.3" font-family="Times,serif" font-size="14.00">Mailbox</text>
</a>
</g>
</g>
<!-- 3&#45;&gt;4 -->
<g id="edge27" class="edge">
<title>3&#45;&gt;4</title>
<g id="a_edge27"><a xlink:title="usage">
<path fill="none" stroke="#1414ce" d="M1192,-431.7C1192,-423.98 1192,-414.71 1192,-406.11"/>
<polygon fill="#1414ce" stroke="#1414ce" points="1195.5,-406.1 1192,-396.1 1188.5,-406.1 1195.5,-406.1"/>
</a>
</g>
</g>
<!-- 6 -->
<g id="node21" class="node">
<title>6</title>
<g id="a_node21"><a xlink:title="TimerListItem">
<polygon fill="#ffffff" stroke="black" points="1539.5,-108 1420.5,-108 1420.5,-72 1539.5,-72 1539.5,-108"/>
<text text-anchor="middle" x="1480" y="-86.3" font-family="Times,serif" font-size="14.00">TimerListItem</text>
</a>
</g>
</g>
<!-- 3&#45;&gt;6 -->
<g id="edge28" class="edge">
<title>3&#45;&gt;6</title>
<g id="a_edge28"><a xlink:title="usage">
<path fill="none" stroke="#1414ce" d="M1228.74,-448.6C1274.68,-446.31 1353.65,-436.23 1406,-396 1441.81,-368.49 1455,-352.15 1455,-307 1455,-307 1455,-307 1455,-233 1455,-192.6 1464.94,-146.71 1472.28,-118.3"/>
<polygon fill="#1414ce" stroke="#1414ce" points="1475.75,-118.88 1474.94,-108.32 1468.98,-117.08 1475.75,-118.88"/>
</a>
</g>
</g>
<!-- 13&#45;&gt;5 -->
<g id="edge33" class="edge">
<title>13&#45;&gt;5</title>
<g id="a_edge33"><a xlink:title="usage">
<path fill="none" stroke="#1414ce" d="M1082.57,-287.7C1090.2,-279.22 1099.52,-268.86 1107.88,-259.58"/>
<polygon fill="#1414ce" stroke="#1414ce" points="1110.52,-261.88 1114.61,-252.1 1105.31,-257.2 1110.52,-261.88"/>
</a>
</g>
</g>
<!-- 13&#45;&gt;13 -->
<g id="edge34" class="edge">
<title>13&#45;&gt;13</title>
<g id="a_edge34"><a xlink:title="usage">
<path fill="none" stroke="#1414ce" d="M1146.16,-317.98C1156.87,-315.97 1164,-311.98 1164,-306 1164,-302.08 1160.93,-299.01 1155.79,-296.8"/>
<polygon fill="#1414ce" stroke="#1414ce" points="1156.74,-293.43 1146.16,-294.02 1154.8,-300.15 1156.74,-293.43"/>
</a>
</g>
</g>
<!-- 21&#45;&gt;15 -->
<g id="edge35" class="edge">
<title>21&#45;&gt;15</title>
<g id="a_edge35"><a xlink:title="usage">
<path fill="none" stroke="#1414ce" d="M378.98,-215.7C391.31,-206.8 406.52,-195.82 419.85,-186.2"/>
<polygon fill="#1414ce" stroke="#1414ce" points="422.24,-188.79 428.3,-180.1 418.14,-183.12 422.24,-188.79"/>
</a>
</g>
</g>
<!-- 18&#45;&gt;19 -->
<g id="edge36" class="edge">
<title>18&#45;&gt;19</title>
<g id="a_edge36"><a xlink:title="usage">
<path fill="none" stroke="#1414ce" d="M861.04,-215.7C859.28,-207.98 857.16,-198.71 855.2,-190.11"/>
<polygon fill="#1414ce" stroke="#1414ce" points="858.55,-189.07 852.91,-180.1 851.73,-190.63 858.55,-189.07"/>
</a>
</g>
</g>
<!-- 18&#45;&gt;7 -->
<g id="edge37" class="edge">
<title>18&#45;&gt;7</title>
<g id="a_edge37"><a xlink:title="usage">
<path fill="none" stroke="#1414ce" d="M888.75,-215.91C899.55,-206.65 911.2,-194.2 917,-180 935.76,-134.1 909.78,-77.63 890.49,-45.23"/>
<polygon fill="#1414ce" stroke="#1414ce" points="893.26,-43.04 885.03,-36.37 887.3,-46.72 893.26,-43.04"/>
</a>
</g>
</g>
<!-- 4&#45;&gt;5 -->
<g id="edge38" class="edge">
<title>4&#45;&gt;5</title>
<g id="a_edge38"><a xlink:title="usage">
<path fill="none" stroke="#1414ce" d="M1190.73,-359.84C1188.83,-341.33 1184.18,-311.38 1173,-288 1168.2,-277.95 1161.13,-268.14 1154.1,-259.75"/>
<polygon fill="#1414ce" stroke="#1414ce" points="1156.68,-257.38 1147.45,-252.17 1151.42,-261.99 1156.68,-257.38"/>
</a>
</g>
</g>
<!-- 14&#45;&gt;16 -->
<g id="edge40" class="edge">
<title>14&#45;&gt;16</title>
<g id="a_edge40"><a xlink:title="usage">
<path fill="none" stroke="#1414ce" d="M545.54,-287.7C544,-279.98 542.14,-270.71 540.42,-262.11"/>
<polygon fill="#1414ce" stroke="#1414ce" points="543.81,-261.22 538.42,-252.1 536.95,-262.6 543.81,-261.22"/>
</a>
</g>
</g>
<!-- 14&#45;&gt;15 -->
<g id="edge39" class="edge">
<title>14&#45;&gt;15</title>
<g id="a_edge39"><a xlink:title="usage">
<path fill="none" stroke="#1414ce" d="M512.44,-288C497.44,-279.26 481.23,-267.21 471,-252 458.71,-233.72 454.17,-208.96 452.58,-190.19"/>
<polygon fill="#1414ce" stroke="#1414ce" points="456.08,-189.96 451.97,-180.2 449.09,-190.39 456.08,-189.96"/>
</a>
</g>
</g>
<!-- 6&#45;&gt;7 -->
<g id="edge41" class="edge">
<title>6&#45;&gt;7</title>
<g id="a_edge41"><a xlink:title="usage">
<path fill="none" stroke="#1414ce" d="M1420.35,-74.61C1415.51,-73.66 1410.68,-72.77 1406,-72 1230.2,-43.19 1019.04,-27.82 923.89,-21.91"/>
<polygon fill="#1414ce" stroke="#1414ce" points="923.88,-18.4 913.68,-21.28 923.45,-25.39 923.88,-18.4"/>
</a>
</g>
</g>
<!-- 20&#45;&gt;7 -->
<g id="edge42" class="edge">
<title>20&#45;&gt;7</title>
<g id="a_edge42"><a xlink:title="usage">
<path fill="none" stroke="#1414ce" d="M822.56,-71.7C830.68,-63.22 840.59,-52.86 849.47,-43.58"/>
<polygon fill="#1414ce" stroke="#1414ce" points="852.24,-45.75 856.63,-36.1 847.19,-40.91 852.24,-45.75"/>
</a>
</g>
</g>
<!-- 15&#45;&gt;15 -->
<g id="edge43" class="edge">
<title>15&#45;&gt;15</title>
<g id="a_edge43"><a xlink:title="usage">
<path fill="none" stroke="#1414ce" d="M485.35,-175.47C495.28,-175.07 503,-170.58 503,-162 503,-156.64 499.98,-152.87 495.3,-150.71"/>
<polygon fill="#1414ce" stroke="#1414ce" points="495.87,-147.25 485.35,-148.53 494.37,-154.09 495.87,-147.25"/>
</a>
</g>
</g>
</g>
</svg>
