<?xml version="1.0" encoding="UTF-8" standalone="no"?>
<!DOCTYPE svg PUBLIC "-//W3C//DTD SVG 1.1//EN"
 "http://www.w3.org/Graphics/SVG/1.1/DTD/svg11.dtd">
<!-- Generated by graphviz version 2.43.0 (0)
 -->
<!-- Title: %3 Pages: 1 -->
<svg width="651pt" height="260pt"
 viewBox="0.00 0.00 651.31 260.00" xmlns="http://www.w3.org/2000/svg" xmlns:xlink="http://www.w3.org/1999/xlink">
<g id="graph0" class="graph" transform="scale(1 1) rotate(0) translate(4 256)">
<title>%3</title>
<polygon fill="transparent" stroke="transparent" points="-4,4 -4,-256 647.31,-256 647.31,4 -4,4"/>
<!-- 3 -->
<g id="node1" class="node">
<title>3</title>
<g id="a_node1"><a xlink:title="stdbool.h">
<polygon fill="#ffffff" stroke="black" points="469,-108 386,-108 386,-72 469,-72 469,-108"/>
<text text-anchor="middle" x="427.5" y="-86.3" font-family="Times,serif" font-size="14.00">stdbool.h</text>
</a>
</g>
</g>
<!-- 4 -->
<g id="node2" class="node">
<title>4</title>
<g id="a_node2"><a xlink:title="atom.h">
<polygon fill="#ffffff" stroke="black" points="317.5,-108 251.5,-108 251.5,-72 317.5,-72 317.5,-108"/>
<text text-anchor="middle" x="284.5" y="-86.3" font-family="Times,serif" font-size="14.00">atom.h</text>
</a>
</g>
</g>
<!-- 5 -->
<g id="node4" class="node">
<title>5</title>
<g id="a_node4"><a xlink:title="stdint.h">
<polygon fill="#ffffff" stroke="black" points="381.5,-36 309.5,-36 309.5,0 381.5,0 381.5,-36"/>
<text text-anchor="middle" x="345.5" y="-14.3" font-family="Times,serif" font-size="14.00">stdint.h</text>
</a>
</g>
</g>
<!-- 4&#45;&gt;5 -->
<g id="edge1" class="edge">
<title>4&#45;&gt;5</title>
<g id="a_edge1"><a xlink:title="include">
<path fill="none" stroke="#1414ce" d="M299.58,-71.7C306.89,-63.3 315.81,-53.07 323.84,-43.86"/>
<polygon fill="#1414ce" stroke="#1414ce" points="326.66,-45.94 330.59,-36.1 321.39,-41.34 326.66,-45.94"/>
</a>
</g>
</g>
<!-- 6 -->
<g id="node5" class="node">
<title>6</title>
<g id="a_node5"><a xlink:title="stdlib.h">
<polygon fill="#ffffff" stroke="black" points="167,-36 96,-36 96,0 167,0 167,-36"/>
<text text-anchor="middle" x="131.5" y="-14.3" font-family="Times,serif" font-size="14.00">stdlib.h</text>
</a>
</g>
</g>
<!-- 4&#45;&gt;6 -->
<g id="edge2" class="edge">
<title>4&#45;&gt;6</title>
<g id="a_edge2"><a xlink:title="include">
<path fill="none" stroke="#1414ce" d="M251.3,-73.81C229.34,-63.77 200.29,-50.47 176.29,-39.49"/>
<polygon fill="#1414ce" stroke="#1414ce" points="177.58,-36.23 167.03,-35.26 174.67,-42.6 177.58,-36.23"/>
</a>
</g>
</g>
<!-- 11 -->
<g id="node3" class="node">
<title>11</title>
<g id="a_node3"><a xlink:title="utils.h">
<polygon fill="#ffffff" stroke="black" points="103.5,-180 41.5,-180 41.5,-144 103.5,-144 103.5,-180"/>
<text text-anchor="middle" x="72.5" y="-158.3" font-family="Times,serif" font-size="14.00">utils.h</text>
</a>
</g>
</g>
<!-- 11&#45;&gt;6 -->
<g id="edge5" class="edge">
<title>11&#45;&gt;6</title>
<g id="a_edge5"><a xlink:title="include">
<path fill="none" stroke="#1414ce" d="M79.62,-143.87C89.76,-119.46 108.47,-74.43 120.43,-45.64"/>
<polygon fill="#1414ce" stroke="#1414ce" points="123.75,-46.77 124.36,-36.19 117.29,-44.08 123.75,-46.77"/>
</a>
</g>
</g>
<!-- 10 -->
<g id="node6" class="node">
<title>10</title>
<g id="a_node6"><a xlink:title="stddef.h">
<polygon fill="#ffffff" stroke="black" points="233.5,-108 159.5,-108 159.5,-72 233.5,-72 233.5,-108"/>
<text text-anchor="middle" x="196.5" y="-86.3" font-family="Times,serif" font-size="14.00">stddef.h</text>
</a>
</g>
</g>
<!-- 11&#45;&gt;10 -->
<g id="edge3" class="edge">
<title>11&#45;&gt;10</title>
<g id="a_edge3"><a xlink:title="include">
<path fill="none" stroke="#1414ce" d="M102.83,-143.88C119.2,-134.64 139.58,-123.13 157.15,-113.21"/>
<polygon fill="#1414ce" stroke="#1414ce" points="159.06,-116.15 166.05,-108.19 155.62,-110.06 159.06,-116.15"/>
</a>
</g>
</g>
<!-- 12 -->
<g id="node12" class="node">
<title>12</title>
<g id="a_node12"><a xlink:title="stdio.h">
<polygon fill="#ffffff" stroke="black" points="65,-108 0,-108 0,-72 65,-72 65,-108"/>
<text text-anchor="middle" x="32.5" y="-86.3" font-family="Times,serif" font-size="14.00">stdio.h</text>
</a>
</g>
</g>
<!-- 11&#45;&gt;12 -->
<g id="edge4" class="edge">
<title>11&#45;&gt;12</title>
<g id="a_edge4"><a xlink:title="include">
<path fill="none" stroke="#1414ce" d="M62.61,-143.7C58.01,-135.64 52.44,-125.89 47.35,-116.98"/>
<polygon fill="#1414ce" stroke="#1414ce" points="50.27,-115.05 42.27,-108.1 44.2,-118.52 50.27,-115.05"/>
</a>
</g>
</g>
<!-- 1 -->
<g id="node7" class="node">
<title>1</title>
<g id="a_node7"><a xlink:title="/__w/AtomVM/AtomVM/src/libAtomVM/atom_table.c">
<polygon fill="#bfbfbf" stroke="black" points="548.5,-252 164.5,-252 164.5,-216 548.5,-216 548.5,-252"/>
<text text-anchor="middle" x="356.5" y="-230.3" font-family="Times,serif" font-size="14.00">/__w/AtomVM/AtomVM/src/libAtomVM/atom_table.c</text>
</a>
</g>
</g>
<!-- 1&#45;&gt;3 -->
<g id="edge7" class="edge">
<title>1&#45;&gt;3</title>
<g id="a_edge7"><a xlink:title="include">
<path fill="none" stroke="#1414ce" d="M386.4,-215.88C399.16,-206.92 412.86,-194.72 420.5,-180 430.35,-161.03 431.62,-136.66 430.69,-118.22"/>
<polygon fill="#1414ce" stroke="#1414ce" points="434.17,-117.85 429.94,-108.14 427.19,-118.37 434.17,-117.85"/>
</a>
</g>
</g>
<!-- 1&#45;&gt;4 -->
<g id="edge11" class="edge">
<title>1&#45;&gt;4</title>
<g id="a_edge11"><a xlink:title="include">
<path fill="none" stroke="#1414ce" d="M236.39,-215.83C217.64,-207.86 200.52,-196.4 188.5,-180 179.04,-167.1 180.37,-157.78 188.5,-144 194.79,-133.34 219.48,-119.83 242.24,-109.11"/>
<polygon fill="#1414ce" stroke="#1414ce" points="243.86,-112.22 251.48,-104.86 240.93,-105.86 243.86,-112.22"/>
</a>
</g>
</g>
<!-- 1&#45;&gt;11 -->
<g id="edge14" class="edge">
<title>1&#45;&gt;11</title>
<g id="a_edge14"><a xlink:title="include">
<path fill="none" stroke="#1414ce" d="M265.21,-215.95C220.33,-206.76 165.66,-194.36 117.5,-180 116.1,-179.58 114.68,-179.14 113.25,-178.69"/>
<polygon fill="#1414ce" stroke="#1414ce" points="114.37,-175.37 103.78,-175.47 112.12,-182 114.37,-175.37"/>
</a>
</g>
</g>
<!-- 1&#45;&gt;5 -->
<g id="edge8" class="edge">
<title>1&#45;&gt;5</title>
<g id="a_edge8"><a xlink:title="include">
<path fill="none" stroke="#1414ce" d="M534.64,-215.99C577.45,-208.09 614.81,-196.62 628.5,-180 700.1,-93.1 488.92,-43.96 391.69,-26.43"/>
<polygon fill="#1414ce" stroke="#1414ce" points="392.27,-22.97 381.81,-24.68 391.05,-29.87 392.27,-22.97"/>
</a>
</g>
</g>
<!-- 1&#45;&gt;6 -->
<g id="edge9" class="edge">
<title>1&#45;&gt;6</title>
<g id="a_edge9"><a xlink:title="include">
<path fill="none" stroke="#1414ce" d="M242.97,-215.87C219.53,-208.03 196.52,-196.61 178.5,-180 140.86,-145.31 132.75,-82.33 131.37,-46.28"/>
<polygon fill="#1414ce" stroke="#1414ce" points="134.86,-45.94 131.13,-36.02 127.86,-46.1 134.86,-45.94"/>
</a>
</g>
</g>
<!-- 2 -->
<g id="node8" class="node">
<title>2</title>
<g id="a_node8"><a xlink:title="atom_table.h">
<polygon fill="#ffffff" stroke="black" points="411,-180 302,-180 302,-144 411,-144 411,-180"/>
<text text-anchor="middle" x="356.5" y="-158.3" font-family="Times,serif" font-size="14.00">atom_table.h</text>
</a>
</g>
</g>
<!-- 1&#45;&gt;2 -->
<g id="edge6" class="edge">
<title>1&#45;&gt;2</title>
<g id="a_edge6"><a xlink:title="include">
<path fill="none" stroke="#1414ce" d="M356.5,-215.7C356.5,-207.98 356.5,-198.71 356.5,-190.11"/>
<polygon fill="#1414ce" stroke="#1414ce" points="360,-190.1 356.5,-180.1 353,-190.1 360,-190.1"/>
</a>
</g>
</g>
<!-- 7 -->
<g id="node9" class="node">
<title>7</title>
<g id="a_node9"><a xlink:title="string.h">
<polygon fill="#ffffff" stroke="black" points="541,-180 468,-180 468,-144 541,-144 541,-180"/>
<text text-anchor="middle" x="504.5" y="-158.3" font-family="Times,serif" font-size="14.00">string.h</text>
</a>
</g>
</g>
<!-- 1&#45;&gt;7 -->
<g id="edge10" class="edge">
<title>1&#45;&gt;7</title>
<g id="a_edge10"><a xlink:title="include">
<path fill="none" stroke="#1414ce" d="M392.7,-215.88C412.76,-206.39 437.87,-194.51 459.21,-184.42"/>
<polygon fill="#1414ce" stroke="#1414ce" points="460.87,-187.51 468.41,-180.07 457.88,-181.18 460.87,-187.51"/>
</a>
</g>
</g>
<!-- 8 -->
<g id="node10" class="node">
<title>8</title>
<g id="a_node10"><a xlink:title="smp.h">
<polygon fill="#ffffff" stroke="black" points="619.5,-180 559.5,-180 559.5,-144 619.5,-144 619.5,-180"/>
<text text-anchor="middle" x="589.5" y="-158.3" font-family="Times,serif" font-size="14.00">smp.h</text>
</a>
</g>
</g>
<!-- 1&#45;&gt;8 -->
<g id="edge12" class="edge">
<title>1&#45;&gt;8</title>
<g id="a_edge12"><a xlink:title="include">
<path fill="none" stroke="#1414ce" d="M428.67,-215.93C463.07,-207.17 504.84,-195.64 549.8,-180.01"/>
<polygon fill="#1414ce" stroke="#1414ce" points="551.17,-183.24 559.44,-176.62 548.84,-176.64 551.17,-183.24"/>
</a>
</g>
</g>
<!-- 9 -->
<g id="node11" class="node">
<title>9</title>
<g id="a_node11"><a xlink:title="unicode.h">
<polygon fill="#ffffff" stroke="black" points="283.5,-180 197.5,-180 197.5,-144 283.5,-144 283.5,-180"/>
<text text-anchor="middle" x="240.5" y="-158.3" font-family="Times,serif" font-size="14.00">unicode.h</text>
</a>
</g>
</g>
<!-- 1&#45;&gt;9 -->
<g id="edge13" class="edge">
<title>1&#45;&gt;9</title>
<g id="a_edge13"><a xlink:title="include">
<path fill="none" stroke="#1414ce" d="M328.12,-215.88C312.96,-206.72 294.09,-195.34 277.76,-185.48"/>
<polygon fill="#1414ce" stroke="#1414ce" points="279.36,-182.36 268.99,-180.19 275.74,-188.35 279.36,-182.36"/>
</a>
</g>
</g>
<!-- 2&#45;&gt;3 -->
<g id="edge15" class="edge">
<title>2&#45;&gt;3</title>
<g id="a_edge15"><a xlink:title="include">
<path fill="none" stroke="#1414ce" d="M374.05,-143.7C382.73,-135.14 393.36,-124.66 402.85,-115.3"/>
<polygon fill="#1414ce" stroke="#1414ce" points="405.49,-117.62 410.15,-108.1 400.57,-112.63 405.49,-117.62"/>
</a>
</g>
</g>
<!-- 2&#45;&gt;4 -->
<g id="edge16" class="edge">
<title>2&#45;&gt;4</title>
<g id="a_edge16"><a xlink:title="include">
<path fill="none" stroke="#1414ce" d="M338.7,-143.7C329.9,-135.14 319.12,-124.66 309.5,-115.3"/>
<polygon fill="#1414ce" stroke="#1414ce" points="311.7,-112.57 302.09,-108.1 306.82,-117.58 311.7,-112.57"/>
</a>
</g>
</g>
<!-- 8&#45;&gt;3 -->
<g id="edge17" class="edge">
<title>8&#45;&gt;3</title>
<g id="a_edge17"><a xlink:title="include">
<path fill="none" stroke="#1414ce" d="M559.27,-147.81C556.31,-146.52 553.35,-145.23 550.5,-144 526.14,-133.44 499.04,-121.76 476.49,-112.05"/>
<polygon fill="#1414ce" stroke="#1414ce" points="477.69,-108.76 467.12,-108.02 474.93,-115.19 477.69,-108.76"/>
</a>
</g>
</g>
<!-- 9&#45;&gt;3 -->
<g id="edge18" class="edge">
<title>9&#45;&gt;3</title>
<g id="a_edge18"><a xlink:title="include">
<path fill="none" stroke="#1414ce" d="M283.87,-144.76C311.5,-134.42 347.41,-120.98 376.42,-110.12"/>
<polygon fill="#1414ce" stroke="#1414ce" points="377.83,-113.33 385.97,-106.55 375.38,-106.77 377.83,-113.33"/>
</a>
</g>
</g>
<!-- 9&#45;&gt;5 -->
<g id="edge20" class="edge">
<title>9&#45;&gt;5</title>
<g id="a_edge20"><a xlink:title="include">
<path fill="none" stroke="#1414ce" d="M282.55,-143.86C298.57,-135.33 315.58,-123.48 326.5,-108 339.2,-90 343.7,-65.21 345.17,-46.36"/>
<polygon fill="#1414ce" stroke="#1414ce" points="348.67,-46.49 345.71,-36.32 341.68,-46.12 348.67,-46.49"/>
</a>
</g>
</g>
<!-- 9&#45;&gt;10 -->
<g id="edge19" class="edge">
<title>9&#45;&gt;10</title>
<g id="a_edge19"><a xlink:title="include">
<path fill="none" stroke="#1414ce" d="M229.62,-143.7C224.51,-135.56 218.3,-125.69 212.66,-116.7"/>
<polygon fill="#1414ce" stroke="#1414ce" points="215.54,-114.71 207.25,-108.1 209.61,-118.43 215.54,-114.71"/>
</a>
</g>
</g>
</g>
</svg>
