<?xml version="1.0" encoding="UTF-8" standalone="no"?>
<!DOCTYPE svg PUBLIC "-//W3C//DTD SVG 1.1//EN"
 "http://www.w3.org/Graphics/SVG/1.1/DTD/svg11.dtd">
<!-- Generated by graphviz version 2.43.0 (0)
 -->
<!-- Title: %3 Pages: 1 -->
<svg width="1428pt" height="764pt"
 viewBox="0.00 0.00 1428.00 764.00" xmlns="http://www.w3.org/2000/svg" xmlns:xlink="http://www.w3.org/1999/xlink">
<g id="graph0" class="graph" transform="scale(1 1) rotate(0) translate(4 760)">
<title>%3</title>
<polygon fill="transparent" stroke="transparent" points="-4,4 -4,-760 1424,-760 1424,4 -4,4"/>
<!-- 24 -->
<g id="node1" class="node">
<title>24</title>
<g id="a_node1"><a xlink:title="atom.h">
<polygon fill="#ffffff" stroke="black" points="364,-396 298,-396 298,-360 364,-360 364,-396"/>
<text text-anchor="middle" x="331" y="-374.3" font-family="Times,serif" font-size="14.00">atom.h</text>
</a>
</g>
</g>
<!-- 6 -->
<g id="node27" class="node">
<title>6</title>
<g id="a_node27"><a xlink:title="stdint.h">
<polygon fill="#ffffff" stroke="black" points="301,-36 229,-36 229,0 301,0 301,-36"/>
<text text-anchor="middle" x="265" y="-14.3" font-family="Times,serif" font-size="14.00">stdint.h</text>
</a>
</g>
</g>
<!-- 24&#45;&gt;6 -->
<g id="edge1" class="edge">
<title>24&#45;&gt;6</title>
<g id="a_edge1"><a xlink:title="include">
<path fill="none" stroke="#1414ce" d="M307.84,-359.89C268.83,-329.18 192.54,-260.34 175,-180 163.42,-126.93 206.7,-73.5 237.22,-43.49"/>
<polygon fill="#1414ce" stroke="#1414ce" points="239.85,-45.82 244.67,-36.38 235.02,-40.76 239.85,-45.82"/>
</a>
</g>
</g>
<!-- 8 -->
<g id="node29" class="node">
<title>8</title>
<g id="a_node29"><a xlink:title="stdlib.h">
<polygon fill="#ffffff" stroke="black" points="966.5,-108 895.5,-108 895.5,-72 966.5,-72 966.5,-108"/>
<text text-anchor="middle" x="931" y="-86.3" font-family="Times,serif" font-size="14.00">stdlib.h</text>
</a>
</g>
</g>
<!-- 24&#45;&gt;8 -->
<g id="edge2" class="edge">
<title>24&#45;&gt;8</title>
<g id="a_edge2"><a xlink:title="include">
<path fill="none" stroke="#1414ce" d="M345.82,-359.98C386.83,-314.33 507.53,-189.53 639,-144 741.16,-108.62 777.15,-134.62 885.21,-108.13"/>
<polygon fill="#1414ce" stroke="#1414ce" points="886.37,-111.45 895.2,-105.59 884.64,-104.67 886.37,-111.45"/>
</a>
</g>
</g>
<!-- 25 -->
<g id="node2" class="node">
<title>25</title>
<g id="a_node2"><a xlink:title="atom_table.h">
<polygon fill="#ffffff" stroke="black" points="289.5,-468 180.5,-468 180.5,-432 289.5,-432 289.5,-468"/>
<text text-anchor="middle" x="235" y="-446.3" font-family="Times,serif" font-size="14.00">atom_table.h</text>
</a>
</g>
</g>
<!-- 25&#45;&gt;24 -->
<g id="edge4" class="edge">
<title>25&#45;&gt;24</title>
<g id="a_edge4"><a xlink:title="include">
<path fill="none" stroke="#1414ce" d="M258.73,-431.7C270.94,-422.8 285.99,-411.82 299.18,-402.2"/>
<polygon fill="#1414ce" stroke="#1414ce" points="301.52,-404.82 307.54,-396.1 297.4,-399.17 301.52,-404.82"/>
</a>
</g>
</g>
<!-- 5 -->
<g id="node25" class="node">
<title>5</title>
<g id="a_node25"><a xlink:title="stdbool.h">
<polygon fill="#ffffff" stroke="black" points="402.5,-108 319.5,-108 319.5,-72 402.5,-72 402.5,-108"/>
<text text-anchor="middle" x="361" y="-86.3" font-family="Times,serif" font-size="14.00">stdbool.h</text>
</a>
</g>
</g>
<!-- 25&#45;&gt;5 -->
<g id="edge3" class="edge">
<title>25&#45;&gt;5</title>
<g id="a_edge3"><a xlink:title="include">
<path fill="none" stroke="#1414ce" d="M227.07,-431.9C209.77,-391.93 172.86,-290.15 208,-216 230.21,-169.14 279.55,-134.03 316.23,-113.14"/>
<polygon fill="#1414ce" stroke="#1414ce" points="318.21,-116.04 325.26,-108.13 314.81,-109.92 318.21,-116.04"/>
</a>
</g>
</g>
<!-- 26 -->
<g id="node3" class="node">
<title>26</title>
<g id="a_node3"><a xlink:title="atomshashtable.h">
<polygon fill="#ffffff" stroke="black" points="425.5,-540 282.5,-540 282.5,-504 425.5,-504 425.5,-540"/>
<text text-anchor="middle" x="354" y="-518.3" font-family="Times,serif" font-size="14.00">atomshashtable.h</text>
</a>
</g>
</g>
<!-- 26&#45;&gt;24 -->
<g id="edge5" class="edge">
<title>26&#45;&gt;24</title>
<g id="a_edge5"><a xlink:title="include">
<path fill="none" stroke="#1414ce" d="M351.23,-503.87C347.31,-479.67 340.1,-435.21 335.44,-406.39"/>
<polygon fill="#1414ce" stroke="#1414ce" points="338.84,-405.5 333.78,-396.19 331.93,-406.62 338.84,-405.5"/>
</a>
</g>
</g>
<!-- 27 -->
<g id="node4" class="node">
<title>27</title>
<g id="a_node4"><a xlink:title="context.h">
<polygon fill="#ffffff" stroke="black" points="667.5,-612 584.5,-612 584.5,-576 667.5,-576 667.5,-612"/>
<text text-anchor="middle" x="626" y="-590.3" font-family="Times,serif" font-size="14.00">context.h</text>
</a>
</g>
</g>
<!-- 28 -->
<g id="node7" class="node">
<title>28</title>
<g id="a_node7"><a xlink:title="globalcontext.h">
<polygon fill="#ffffff" stroke="black" points="609.5,-540 482.5,-540 482.5,-504 609.5,-504 609.5,-540"/>
<text text-anchor="middle" x="546" y="-518.3" font-family="Times,serif" font-size="14.00">globalcontext.h</text>
</a>
</g>
</g>
<!-- 27&#45;&gt;28 -->
<g id="edge6" class="edge">
<title>27&#45;&gt;28</title>
<g id="a_edge6"><a xlink:title="include">
<path fill="none" stroke="#1414ce" d="M606.22,-575.7C596.25,-566.97 583.99,-556.24 573.14,-546.75"/>
<polygon fill="#1414ce" stroke="#1414ce" points="575.38,-544.06 565.55,-540.1 570.77,-549.32 575.38,-544.06"/>
</a>
</g>
</g>
<!-- 19 -->
<g id="node8" class="node">
<title>19</title>
<g id="a_node8"><a xlink:title="list.h">
<polygon fill="#ffffff" stroke="black" points="702,-180 648,-180 648,-144 702,-144 702,-180"/>
<text text-anchor="middle" x="675" y="-158.3" font-family="Times,serif" font-size="14.00">list.h</text>
</a>
</g>
</g>
<!-- 27&#45;&gt;19 -->
<g id="edge7" class="edge">
<title>27&#45;&gt;19</title>
<g id="a_edge7"><a xlink:title="include">
<path fill="none" stroke="#1414ce" d="M627.95,-575.88C635.47,-509.94 662.57,-272.06 671.86,-190.59"/>
<polygon fill="#1414ce" stroke="#1414ce" points="675.39,-190.5 673.04,-180.17 668.43,-189.71 675.39,-190.5"/>
</a>
</g>
</g>
<!-- 29 -->
<g id="node9" class="node">
<title>29</title>
<g id="a_node9"><a xlink:title="mailbox.h">
<polygon fill="#ffffff" stroke="black" points="865,-252 779,-252 779,-216 865,-216 865,-252"/>
<text text-anchor="middle" x="822" y="-230.3" font-family="Times,serif" font-size="14.00">mailbox.h</text>
</a>
</g>
</g>
<!-- 27&#45;&gt;29 -->
<g id="edge8" class="edge">
<title>27&#45;&gt;29</title>
<g id="a_edge8"><a xlink:title="include">
<path fill="none" stroke="#1414ce" d="M645.88,-575.65C655.7,-566.06 666.94,-553.4 674,-540 712.36,-467.24 680,-433.46 717,-360 736.9,-320.49 771.58,-282.68 795.6,-259.2"/>
<polygon fill="#1414ce" stroke="#1414ce" points="798.21,-261.54 803,-252.09 793.36,-256.49 798.21,-261.54"/>
</a>
</g>
</g>
<!-- 22 -->
<g id="node15" class="node">
<title>22</title>
<g id="a_node15"><a xlink:title="smp.h">
<polygon fill="#ffffff" stroke="black" points="391,-180 331,-180 331,-144 391,-144 391,-180"/>
<text text-anchor="middle" x="361" y="-158.3" font-family="Times,serif" font-size="14.00">smp.h</text>
</a>
</g>
</g>
<!-- 27&#45;&gt;22 -->
<g id="edge9" class="edge">
<title>27&#45;&gt;22</title>
<g id="a_edge9"><a xlink:title="include">
<path fill="none" stroke="#1414ce" d="M584.42,-579.07C540.85,-564.39 478,-543 473,-540 452.76,-527.88 455.33,-514.06 434,-504 380.65,-478.84 209.78,-512.45 171,-468 160.48,-455.94 165.48,-447.02 171,-432 207.22,-333.45 269.19,-341.55 324,-252 336.03,-232.34 345.83,-208.07 352.31,-189.85"/>
<polygon fill="#1414ce" stroke="#1414ce" points="355.7,-190.75 355.65,-180.15 349.08,-188.47 355.7,-190.75"/>
</a>
</g>
</g>
<!-- 3 -->
<g id="node17" class="node">
<title>3</title>
<g id="a_node17"><a xlink:title="term.h">
<polygon fill="#ffffff" stroke="black" points="926.5,-468 861.5,-468 861.5,-432 926.5,-432 926.5,-468"/>
<text text-anchor="middle" x="894" y="-446.3" font-family="Times,serif" font-size="14.00">term.h</text>
</a>
</g>
</g>
<!-- 27&#45;&gt;3 -->
<g id="edge10" class="edge">
<title>27&#45;&gt;3</title>
<g id="a_edge10"><a xlink:title="include">
<path fill="none" stroke="#1414ce" d="M655.08,-575.98C671.95,-565.89 693.45,-552.64 712,-540 734.04,-524.99 736.73,-517.02 760,-504 789.26,-487.63 824.62,-473.87 851.66,-464.48"/>
<polygon fill="#1414ce" stroke="#1414ce" points="852.89,-467.76 861.23,-461.22 850.63,-461.13 852.89,-467.76"/>
</a>
</g>
</g>
<!-- 30 -->
<g id="node19" class="node">
<title>30</title>
<g id="a_node19"><a xlink:title="timer_list.h">
<polygon fill="#ffffff" stroke="black" points="315,-252 217,-252 217,-216 315,-216 315,-252"/>
<text text-anchor="middle" x="266" y="-230.3" font-family="Times,serif" font-size="14.00">timer_list.h</text>
</a>
</g>
</g>
<!-- 27&#45;&gt;30 -->
<g id="edge11" class="edge">
<title>27&#45;&gt;30</title>
<g id="a_edge11"><a xlink:title="include">
<path fill="none" stroke="#1414ce" d="M584.45,-578.38C581.27,-577.5 578.1,-576.69 575,-576 363.73,-528.71 220.13,-648.11 100,-468 47.62,-389.47 164.51,-299.12 228.21,-257.78"/>
<polygon fill="#1414ce" stroke="#1414ce" points="230.28,-260.61 236.82,-252.28 226.51,-254.71 230.28,-260.61"/>
</a>
</g>
</g>
<!-- 11 -->
<g id="node5" class="node">
<title>11</title>
<g id="a_node5"><a xlink:title="erl_nif.h">
<polygon fill="#ffffff" stroke="black" points="1341,-180 1267,-180 1267,-144 1341,-144 1341,-180"/>
<text text-anchor="middle" x="1304" y="-158.3" font-family="Times,serif" font-size="14.00">erl_nif.h</text>
</a>
</g>
</g>
<!-- 12 -->
<g id="node18" class="node">
<title>12</title>
<g id="a_node18"><a xlink:title="term_typedef.h">
<polygon fill="#ffffff" stroke="black" points="1354.5,-108 1229.5,-108 1229.5,-72 1354.5,-72 1354.5,-108"/>
<text text-anchor="middle" x="1292" y="-86.3" font-family="Times,serif" font-size="14.00">term_typedef.h</text>
</a>
</g>
</g>
<!-- 11&#45;&gt;12 -->
<g id="edge12" class="edge">
<title>11&#45;&gt;12</title>
<g id="a_edge12"><a xlink:title="include">
<path fill="none" stroke="#1414ce" d="M1301.03,-143.7C1299.71,-135.98 1298.12,-126.71 1296.65,-118.11"/>
<polygon fill="#1414ce" stroke="#1414ce" points="1300.07,-117.37 1294.93,-108.1 1293.17,-118.55 1300.07,-117.37"/>
</a>
</g>
</g>
<!-- 2 -->
<g id="node6" class="node">
<title>2</title>
<g id="a_node6"><a xlink:title="exportedfunction.h">
<polygon fill="#ffffff" stroke="black" points="954,-612 802,-612 802,-576 954,-576 954,-612"/>
<text text-anchor="middle" x="878" y="-590.3" font-family="Times,serif" font-size="14.00">exportedfunction.h</text>
</a>
</g>
</g>
<!-- 2&#45;&gt;3 -->
<g id="edge13" class="edge">
<title>2&#45;&gt;3</title>
<g id="a_edge13"><a xlink:title="include">
<path fill="none" stroke="#1414ce" d="M879.93,-575.87C882.66,-551.67 887.67,-507.21 890.91,-478.39"/>
<polygon fill="#1414ce" stroke="#1414ce" points="894.42,-478.52 892.06,-468.19 887.47,-477.73 894.42,-478.52"/>
</a>
</g>
</g>
<!-- 28&#45;&gt;24 -->
<g id="edge15" class="edge">
<title>28&#45;&gt;24</title>
<g id="a_edge15"><a xlink:title="include">
<path fill="none" stroke="#1414ce" d="M491.56,-504C467.85,-495.23 440.41,-483.16 418,-468 391.69,-450.21 366.91,-423.5 350.58,-403.99"/>
<polygon fill="#1414ce" stroke="#1414ce" points="353.16,-401.62 344.11,-396.11 347.75,-406.06 353.16,-401.62"/>
</a>
</g>
</g>
<!-- 28&#45;&gt;25 -->
<g id="edge16" class="edge">
<title>28&#45;&gt;25</title>
<g id="a_edge16"><a xlink:title="include">
<path fill="none" stroke="#1414ce" d="M482.31,-506.67C428.97,-494.66 353.18,-477.6 299.59,-465.54"/>
<polygon fill="#1414ce" stroke="#1414ce" points="300.04,-462.05 289.51,-463.27 298.5,-468.88 300.04,-462.05"/>
</a>
</g>
</g>
<!-- 28&#45;&gt;11 -->
<g id="edge17" class="edge">
<title>28&#45;&gt;11</title>
<g id="a_edge17"><a xlink:title="include">
<path fill="none" stroke="#1414ce" d="M609.57,-516.2C796.46,-501.27 1331,-452.14 1331,-379 1331,-379 1331,-379 1331,-305 1331,-264.5 1320.27,-218.63 1312.34,-190.26"/>
<polygon fill="#1414ce" stroke="#1414ce" points="1315.6,-188.93 1309.46,-180.29 1308.87,-190.87 1315.6,-188.93"/>
</a>
</g>
</g>
<!-- 28&#45;&gt;19 -->
<g id="edge18" class="edge">
<title>28&#45;&gt;19</title>
<g id="a_edge18"><a xlink:title="include">
<path fill="none" stroke="#1414ce" d="M544.66,-503.85C543.58,-485.86 542.7,-456.81 546,-432 554.74,-366.27 553.02,-346.09 585,-288 595.47,-268.99 604.76,-269.2 618,-252 633.53,-231.81 648.98,-207.35 659.86,-189.19"/>
<polygon fill="#1414ce" stroke="#1414ce" points="663.03,-190.71 665.12,-180.32 657.01,-187.14 663.03,-190.71"/>
</a>
</g>
</g>
<!-- 28&#45;&gt;29 -->
<g id="edge19" class="edge">
<title>28&#45;&gt;29</title>
<g id="a_edge19"><a xlink:title="include">
<path fill="none" stroke="#1414ce" d="M557.11,-503.88C584.23,-463.01 657.43,-357.91 737,-288 750.09,-276.5 765.96,-265.88 780.42,-257.22"/>
<polygon fill="#1414ce" stroke="#1414ce" points="782.34,-260.15 789.21,-252.08 778.81,-254.11 782.34,-260.15"/>
</a>
</g>
</g>
<!-- 28&#45;&gt;22 -->
<g id="edge20" class="edge">
<title>28&#45;&gt;22</title>
<g id="a_edge20"><a xlink:title="include">
<path fill="none" stroke="#1414ce" d="M536.79,-503.76C514.07,-461.2 453.69,-347.62 405,-252 394.31,-231 382.49,-207.06 373.8,-189.3"/>
<polygon fill="#1414ce" stroke="#1414ce" points="376.85,-187.57 369.32,-180.12 370.56,-190.64 376.85,-187.57"/>
</a>
</g>
</g>
<!-- 21 -->
<g id="node16" class="node">
<title>21</title>
<g id="a_node16"><a xlink:title="synclist.h">
<polygon fill="#ffffff" stroke="black" points="608.5,-252 523.5,-252 523.5,-216 608.5,-216 608.5,-252"/>
<text text-anchor="middle" x="566" y="-230.3" font-family="Times,serif" font-size="14.00">synclist.h</text>
</a>
</g>
</g>
<!-- 28&#45;&gt;21 -->
<g id="edge21" class="edge">
<title>28&#45;&gt;21</title>
<g id="a_edge21"><a xlink:title="include">
<path fill="none" stroke="#1414ce" d="M547.19,-503.97C550.53,-456.29 559.97,-321.18 564.07,-262.63"/>
<polygon fill="#1414ce" stroke="#1414ce" points="567.58,-262.53 564.79,-252.31 560.6,-262.04 567.58,-262.53"/>
</a>
</g>
</g>
<!-- 28&#45;&gt;3 -->
<g id="edge22" class="edge">
<title>28&#45;&gt;3</title>
<g id="a_edge22"><a xlink:title="include">
<path fill="none" stroke="#1414ce" d="M609.83,-508.16C680.13,-494.02 791.19,-471.68 851.54,-459.54"/>
<polygon fill="#1414ce" stroke="#1414ce" points="852.38,-462.94 861.49,-457.54 851,-456.08 852.38,-462.94"/>
</a>
</g>
</g>
<!-- 28&#45;&gt;30 -->
<g id="edge23" class="edge">
<title>28&#45;&gt;30</title>
<g id="a_edge23"><a xlink:title="include">
<path fill="none" stroke="#1414ce" d="M510.15,-503.99C492.75,-494.75 472.17,-482.29 456,-468 410.64,-427.91 411.14,-407.01 373,-360 344.25,-324.57 309.73,-284.69 287.82,-259.71"/>
<polygon fill="#1414ce" stroke="#1414ce" points="290.41,-257.35 281.18,-252.15 285.15,-261.97 290.41,-257.35"/>
</a>
</g>
</g>
<!-- 28&#45;&gt;6 -->
<g id="edge14" class="edge">
<title>28&#45;&gt;6</title>
<g id="a_edge14"><a xlink:title="include">
<path fill="none" stroke="#1414ce" d="M482.35,-511.17C466.56,-508.78 449.67,-506.26 434,-504 375.62,-495.57 217.67,-504.07 171,-468 82.38,-399.51 75,-347 75,-235 75,-235 75,-235 75,-161 75,-89.33 162.83,-49.47 219.05,-31.3"/>
<polygon fill="#1414ce" stroke="#1414ce" points="220.31,-34.58 228.82,-28.26 218.23,-27.9 220.31,-34.58"/>
</a>
</g>
</g>
<!-- 29&#45;&gt;19 -->
<g id="edge25" class="edge">
<title>29&#45;&gt;19</title>
<g id="a_edge25"><a xlink:title="include">
<path fill="none" stroke="#1414ce" d="M786.04,-215.88C763.43,-205.11 734.34,-191.26 711.61,-180.43"/>
<polygon fill="#1414ce" stroke="#1414ce" points="712.83,-177.14 702.29,-176 709.82,-183.46 712.83,-177.14"/>
</a>
</g>
</g>
<!-- 29&#45;&gt;12 -->
<g id="edge26" class="edge">
<title>29&#45;&gt;12</title>
<g id="a_edge26"><a xlink:title="include">
<path fill="none" stroke="#1414ce" d="M865.21,-225.93C914.78,-217.31 998.2,-201.23 1068,-180 1130.79,-160.91 1200.73,-131.8 1245.48,-112.12"/>
<polygon fill="#1414ce" stroke="#1414ce" points="1246.9,-115.32 1254.63,-108.07 1244.07,-108.91 1246.9,-115.32"/>
</a>
</g>
</g>
<!-- 16 -->
<g id="node20" class="node">
<title>16</title>
<g id="a_node20"><a xlink:title="utils.h">
<polygon fill="#ffffff" stroke="black" points="1059,-180 997,-180 997,-144 1059,-144 1059,-180"/>
<text text-anchor="middle" x="1028" y="-158.3" font-family="Times,serif" font-size="14.00">utils.h</text>
</a>
</g>
</g>
<!-- 29&#45;&gt;16 -->
<g id="edge27" class="edge">
<title>29&#45;&gt;16</title>
<g id="a_edge27"><a xlink:title="include">
<path fill="none" stroke="#1414ce" d="M865.18,-218.33C901.2,-206.09 952.16,-188.77 987.43,-176.79"/>
<polygon fill="#1414ce" stroke="#1414ce" points="988.59,-180.09 996.93,-173.56 986.34,-173.46 988.59,-180.09"/>
</a>
</g>
</g>
<!-- 29&#45;&gt;5 -->
<g id="edge24" class="edge">
<title>29&#45;&gt;5</title>
<g id="a_edge24"><a xlink:title="include">
<path fill="none" stroke="#1414ce" d="M806.21,-215.69C786.22,-194.97 749.69,-160.95 711,-144 611.82,-100.53 483.36,-91.79 412.91,-90.57"/>
<polygon fill="#1414ce" stroke="#1414ce" points="412.57,-87.06 402.53,-90.44 412.48,-94.06 412.57,-87.06"/>
</a>
</g>
</g>
<!-- 10 -->
<g id="node10" class="node">
<title>10</title>
<g id="a_node10"><a xlink:title="memory.h">
<polygon fill="#ffffff" stroke="black" points="1265,-252 1179,-252 1179,-216 1265,-216 1265,-252"/>
<text text-anchor="middle" x="1222" y="-230.3" font-family="Times,serif" font-size="14.00">memory.h</text>
</a>
</g>
</g>
<!-- 10&#45;&gt;11 -->
<g id="edge30" class="edge">
<title>10&#45;&gt;11</title>
<g id="a_edge30"><a xlink:title="include">
<path fill="none" stroke="#1414ce" d="M1242.27,-215.7C1252.5,-206.97 1265.06,-196.24 1276.18,-186.75"/>
<polygon fill="#1414ce" stroke="#1414ce" points="1278.63,-189.26 1283.96,-180.1 1274.09,-183.94 1278.63,-189.26"/>
</a>
</g>
</g>
<!-- 10&#45;&gt;12 -->
<g id="edge31" class="edge">
<title>10&#45;&gt;12</title>
<g id="a_edge31"><a xlink:title="include">
<path fill="none" stroke="#1414ce" d="M1227.86,-215.85C1234.34,-197.61 1245.52,-168.13 1258,-144 1262.77,-134.78 1268.68,-125.1 1274.23,-116.58"/>
<polygon fill="#1414ce" stroke="#1414ce" points="1277.2,-118.44 1279.82,-108.18 1271.37,-114.56 1277.2,-118.44"/>
</a>
</g>
</g>
<!-- 10&#45;&gt;16 -->
<g id="edge32" class="edge">
<title>10&#45;&gt;16</title>
<g id="a_edge32"><a xlink:title="include">
<path fill="none" stroke="#1414ce" d="M1178.95,-217.46C1146.07,-205.6 1101.06,-189.36 1068.77,-177.71"/>
<polygon fill="#1414ce" stroke="#1414ce" points="1069.77,-174.35 1059.18,-174.25 1067.4,-180.94 1069.77,-174.35"/>
</a>
</g>
</g>
<!-- 10&#45;&gt;6 -->
<g id="edge28" class="edge">
<title>10&#45;&gt;6</title>
<g id="a_edge28"><a xlink:title="include">
<path fill="none" stroke="#1414ce" d="M1215.11,-215.98C1200.2,-181.63 1161.31,-104.54 1101,-72 1031.41,-34.45 476.74,-22.45 311.37,-19.69"/>
<polygon fill="#1414ce" stroke="#1414ce" points="311.11,-16.18 301.05,-19.52 310.99,-23.18 311.11,-16.18"/>
</a>
</g>
</g>
<!-- 10&#45;&gt;8 -->
<g id="edge29" class="edge">
<title>10&#45;&gt;8</title>
<g id="a_edge29"><a xlink:title="include">
<path fill="none" stroke="#1414ce" d="M1195.42,-215.94C1165.26,-196.99 1114.23,-166.14 1068,-144 1059.26,-139.82 1012.65,-121.93 976.19,-108.08"/>
<polygon fill="#1414ce" stroke="#1414ce" points="977.28,-104.75 966.69,-104.48 974.8,-111.3 977.28,-104.75"/>
</a>
</g>
</g>
<!-- 23 -->
<g id="node11" class="node">
<title>23</title>
<g id="a_node11"><a xlink:title="module.h">
<polygon fill="#ffffff" stroke="black" points="433.5,-684 350.5,-684 350.5,-648 433.5,-648 433.5,-684"/>
<text text-anchor="middle" x="392" y="-662.3" font-family="Times,serif" font-size="14.00">module.h</text>
</a>
</g>
</g>
<!-- 23&#45;&gt;24 -->
<g id="edge35" class="edge">
<title>23&#45;&gt;24</title>
<g id="a_edge35"><a xlink:title="include">
<path fill="none" stroke="#1414ce" d="M366.88,-647.98C337.91,-626.67 291.86,-587.16 273,-540 267.06,-525.14 268.22,-519.27 273,-504 278.82,-485.41 288.99,-485.27 298,-468 308.44,-448 317.15,-423.94 323,-405.88"/>
<polygon fill="#1414ce" stroke="#1414ce" points="326.36,-406.86 326.02,-396.27 319.68,-404.76 326.36,-406.86"/>
</a>
</g>
</g>
<!-- 23&#45;&gt;25 -->
<g id="edge36" class="edge">
<title>23&#45;&gt;25</title>
<g id="a_edge36"><a xlink:title="include">
<path fill="none" stroke="#1414ce" d="M350.27,-662.91C314.65,-658.67 265.3,-646.47 240,-612 211.21,-572.77 219.25,-512.49 227.35,-477.9"/>
<polygon fill="#1414ce" stroke="#1414ce" points="230.78,-478.59 229.82,-468.04 223.99,-476.89 230.78,-478.59"/>
</a>
</g>
</g>
<!-- 23&#45;&gt;26 -->
<g id="edge37" class="edge">
<title>23&#45;&gt;26</title>
<g id="a_edge37"><a xlink:title="include">
<path fill="none" stroke="#1414ce" d="M387.42,-647.87C380.91,-623.56 368.94,-578.82 361.23,-550.01"/>
<polygon fill="#1414ce" stroke="#1414ce" points="364.57,-548.94 358.6,-540.19 357.8,-550.75 364.57,-548.94"/>
</a>
</g>
</g>
<!-- 23&#45;&gt;27 -->
<g id="edge38" class="edge">
<title>23&#45;&gt;27</title>
<g id="a_edge38"><a xlink:title="include">
<path fill="none" stroke="#1414ce" d="M433.57,-653.47C468.65,-643.63 520.41,-628.84 574.52,-612.09"/>
<polygon fill="#1414ce" stroke="#1414ce" points="575.78,-615.36 584.3,-609.05 573.71,-608.68 575.78,-615.36"/>
</a>
</g>
</g>
<!-- 23&#45;&gt;2 -->
<g id="edge39" class="edge">
<title>23&#45;&gt;2</title>
<g id="a_edge39"><a xlink:title="include">
<path fill="none" stroke="#1414ce" d="M433.73,-660.16C506.04,-651.61 659.26,-632.76 788,-612 789.28,-611.79 790.57,-611.58 791.87,-611.37"/>
<polygon fill="#1414ce" stroke="#1414ce" points="792.67,-614.78 801.94,-609.66 791.5,-607.88 792.67,-614.78"/>
</a>
</g>
</g>
<!-- 23&#45;&gt;28 -->
<g id="edge40" class="edge">
<title>23&#45;&gt;28</title>
<g id="a_edge40"><a xlink:title="include">
<path fill="none" stroke="#1414ce" d="M391.1,-647.86C391.01,-628.24 393.83,-596.24 411,-576 426.75,-557.44 449.86,-545.33 472.52,-537.46"/>
<polygon fill="#1414ce" stroke="#1414ce" points="473.75,-540.74 482.19,-534.34 471.59,-534.08 473.75,-540.74"/>
</a>
</g>
</g>
<!-- 23&#45;&gt;3 -->
<g id="edge41" class="edge">
<title>23&#45;&gt;3</title>
<g id="a_edge41"><a xlink:title="include">
<path fill="none" stroke="#1414ce" d="M433.83,-663.11C490.95,-659.24 595.57,-647.5 677,-612 755.08,-577.96 831.57,-511.21 869.45,-475.27"/>
<polygon fill="#1414ce" stroke="#1414ce" points="872.13,-477.55 876.93,-468.1 867.29,-472.49 872.13,-477.55"/>
</a>
</g>
</g>
<!-- 31 -->
<g id="node21" class="node">
<title>31</title>
<g id="a_node21"><a xlink:title="valueshashtable.h">
<polygon fill="#ffffff" stroke="black" points="566,-612 420,-612 420,-576 566,-576 566,-612"/>
<text text-anchor="middle" x="493" y="-590.3" font-family="Times,serif" font-size="14.00">valueshashtable.h</text>
</a>
</g>
</g>
<!-- 23&#45;&gt;31 -->
<g id="edge42" class="edge">
<title>23&#45;&gt;31</title>
<g id="a_edge42"><a xlink:title="include">
<path fill="none" stroke="#1414ce" d="M416.71,-647.88C429.67,-638.89 445.73,-627.76 459.77,-618.03"/>
<polygon fill="#1414ce" stroke="#1414ce" points="461.97,-620.76 468.2,-612.19 457.98,-615.01 461.97,-620.76"/>
</a>
</g>
</g>
<!-- 23&#45;&gt;5 -->
<g id="edge33" class="edge">
<title>23&#45;&gt;5</title>
<g id="a_edge33"><a xlink:title="include">
<path fill="none" stroke="#1414ce" d="M350.35,-657.44C256.77,-639.26 38,-589.63 38,-523 38,-523 38,-523 38,-449 38,-398.77 121.35,-232.16 228,-144 251.53,-124.55 283.09,-111.57 309.56,-103.32"/>
<polygon fill="#1414ce" stroke="#1414ce" points="310.85,-106.59 319.43,-100.38 308.85,-99.88 310.85,-106.59"/>
</a>
</g>
</g>
<!-- 23&#45;&gt;6 -->
<g id="edge34" class="edge">
<title>23&#45;&gt;6</title>
<g id="a_edge34"><a xlink:title="include">
<path fill="none" stroke="#1414ce" d="M350.29,-665.77C288.85,-665.21 172,-657.54 86,-612 37.39,-586.26 0,-578.01 0,-523 0,-523 0,-523 0,-161 0,-62.92 142.78,-32.32 218.73,-22.98"/>
<polygon fill="#1414ce" stroke="#1414ce" points="219.45,-26.42 228.99,-21.8 218.65,-19.46 219.45,-26.42"/>
</a>
</g>
</g>
<!-- 1 -->
<g id="node12" class="node">
<title>1</title>
<g id="a_node12"><a xlink:title="/__w/AtomVM/AtomVM/src/libAtomVM/platform_nifs.h">
<polygon fill="#bfbfbf" stroke="black" points="627.5,-756 226.5,-756 226.5,-720 627.5,-720 627.5,-756"/>
<text text-anchor="middle" x="427" y="-734.3" font-family="Times,serif" font-size="14.00">/__w/AtomVM/AtomVM/src/libAtomVM/platform_nifs.h</text>
</a>
</g>
</g>
<!-- 1&#45;&gt;2 -->
<g id="edge43" class="edge">
<title>1&#45;&gt;2</title>
<g id="a_edge43"><a xlink:title="include">
<path fill="none" stroke="#1414ce" d="M481.4,-719.87C565.07,-693.53 724.96,-643.19 814.05,-615.14"/>
<polygon fill="#1414ce" stroke="#1414ce" points="815.27,-618.42 823.76,-612.08 813.17,-611.74 815.27,-618.42"/>
</a>
</g>
</g>
<!-- 1&#45;&gt;23 -->
<g id="edge44" class="edge">
<title>1&#45;&gt;23</title>
<g id="a_edge44"><a xlink:title="include">
<path fill="none" stroke="#1414ce" d="M418.35,-719.7C414.36,-711.73 409.55,-702.1 405.13,-693.26"/>
<polygon fill="#1414ce" stroke="#1414ce" points="408.15,-691.48 400.55,-684.1 401.89,-694.61 408.15,-691.48"/>
</a>
</g>
</g>
<!-- 18 -->
<g id="node13" class="node">
<title>18</title>
<g id="a_node13"><a xlink:title="refc_binary.h">
<polygon fill="#ffffff" stroke="black" points="834,-396 726,-396 726,-360 834,-360 834,-396"/>
<text text-anchor="middle" x="780" y="-374.3" font-family="Times,serif" font-size="14.00">refc_binary.h</text>
</a>
</g>
</g>
<!-- 18&#45;&gt;19 -->
<g id="edge47" class="edge">
<title>18&#45;&gt;19</title>
<g id="a_edge47"><a xlink:title="include">
<path fill="none" stroke="#1414ce" d="M771.58,-359.85C753.27,-322.52 709.69,-233.69 687.88,-189.26"/>
<polygon fill="#1414ce" stroke="#1414ce" points="691,-187.67 683.46,-180.23 684.72,-190.75 691,-187.67"/>
</a>
</g>
</g>
<!-- 20 -->
<g id="node14" class="node">
<title>20</title>
<g id="a_node14"><a xlink:title="resources.h">
<polygon fill="#ffffff" stroke="black" points="941,-324 841,-324 841,-288 941,-288 941,-324"/>
<text text-anchor="middle" x="891" y="-302.3" font-family="Times,serif" font-size="14.00">resources.h</text>
</a>
</g>
</g>
<!-- 18&#45;&gt;20 -->
<g id="edge48" class="edge">
<title>18&#45;&gt;20</title>
<g id="a_edge48"><a xlink:title="include">
<path fill="none" stroke="#1414ce" d="M807.15,-359.88C821.53,-350.81 839.38,-339.55 854.91,-329.76"/>
<polygon fill="#1414ce" stroke="#1414ce" points="857.15,-332.48 863.74,-324.19 853.42,-326.56 857.15,-332.48"/>
</a>
</g>
</g>
<!-- 18&#45;&gt;5 -->
<g id="edge45" class="edge">
<title>18&#45;&gt;5</title>
<g id="a_edge45"><a xlink:title="include">
<path fill="none" stroke="#1414ce" d="M725.99,-360.38C668.98,-340.94 578.6,-304.59 514,-252 467.47,-214.12 475.62,-186.24 433,-144 421.98,-133.08 408.59,-122.61 396.37,-113.9"/>
<polygon fill="#1414ce" stroke="#1414ce" points="398.34,-111.01 388.13,-108.17 394.34,-116.75 398.34,-111.01"/>
</a>
</g>
</g>
<!-- 18&#45;&gt;8 -->
<g id="edge46" class="edge">
<title>18&#45;&gt;8</title>
<g id="a_edge46"><a xlink:title="include">
<path fill="none" stroke="#1414ce" d="M787.87,-359.85C796.95,-341.09 813.08,-310.67 832,-288 847.75,-269.12 860.09,-272.27 874,-252 889.28,-229.72 911.69,-157.59 923.33,-117.86"/>
<polygon fill="#1414ce" stroke="#1414ce" points="926.76,-118.62 926.18,-108.05 920.03,-116.67 926.76,-118.62"/>
</a>
</g>
</g>
<!-- 20&#45;&gt;11 -->
<g id="edge50" class="edge">
<title>20&#45;&gt;11</title>
<g id="a_edge50"><a xlink:title="include">
<path fill="none" stroke="#1414ce" d="M941.18,-304.43C1033.25,-302.39 1224.3,-293.15 1274,-252 1292.2,-236.93 1299.41,-210.39 1302.24,-190.2"/>
<polygon fill="#1414ce" stroke="#1414ce" points="1305.74,-190.37 1303.38,-180.04 1298.79,-189.59 1305.74,-190.37"/>
</a>
</g>
</g>
<!-- 20&#45;&gt;19 -->
<g id="edge51" class="edge">
<title>20&#45;&gt;19</title>
<g id="a_edge51"><a xlink:title="include">
<path fill="none" stroke="#1414ce" d="M841.95,-287.92C819.14,-278.9 792.21,-266.64 770,-252 755,-242.11 721.98,-210.16 699.11,-187.38"/>
<polygon fill="#1414ce" stroke="#1414ce" points="701.33,-184.65 691.79,-180.05 696.38,-189.6 701.33,-184.65"/>
</a>
</g>
</g>
<!-- 20&#45;&gt;10 -->
<g id="edge52" class="edge">
<title>20&#45;&gt;10</title>
<g id="a_edge52"><a xlink:title="include">
<path fill="none" stroke="#1414ce" d="M941.27,-294.37C1002.69,-281.38 1106.13,-259.5 1168.84,-246.24"/>
<polygon fill="#1414ce" stroke="#1414ce" points="1169.86,-249.61 1178.91,-244.11 1168.41,-242.76 1169.86,-249.61"/>
</a>
</g>
</g>
<!-- 20&#45;&gt;21 -->
<g id="edge53" class="edge">
<title>20&#45;&gt;21</title>
<g id="a_edge53"><a xlink:title="include">
<path fill="none" stroke="#1414ce" d="M840.93,-294.22C780.63,-281.23 679.82,-259.52 618.47,-246.3"/>
<polygon fill="#1414ce" stroke="#1414ce" points="619.12,-242.86 608.61,-244.18 617.64,-249.7 619.12,-242.86"/>
</a>
</g>
</g>
<!-- 20&#45;&gt;8 -->
<g id="edge49" class="edge">
<title>20&#45;&gt;8</title>
<g id="a_edge49"><a xlink:title="include">
<path fill="none" stroke="#1414ce" d="M896.83,-287.98C900.18,-277.67 904.27,-264.19 907,-252 917.44,-205.42 924.55,-150.22 928.18,-118.05"/>
<polygon fill="#1414ce" stroke="#1414ce" points="931.67,-118.39 929.28,-108.07 924.71,-117.63 931.67,-118.39"/>
</a>
</g>
</g>
<!-- 22&#45;&gt;5 -->
<g id="edge54" class="edge">
<title>22&#45;&gt;5</title>
<g id="a_edge54"><a xlink:title="include">
<path fill="none" stroke="#1414ce" d="M361,-143.7C361,-135.98 361,-126.71 361,-118.11"/>
<polygon fill="#1414ce" stroke="#1414ce" points="364.5,-118.1 361,-108.1 357.5,-118.1 364.5,-118.1"/>
</a>
</g>
</g>
<!-- 21&#45;&gt;19 -->
<g id="edge56" class="edge">
<title>21&#45;&gt;19</title>
<g id="a_edge56"><a xlink:title="include">
<path fill="none" stroke="#1414ce" d="M592.66,-215.88C606.78,-206.81 624.31,-195.55 639.56,-185.76"/>
<polygon fill="#1414ce" stroke="#1414ce" points="641.71,-188.54 648.23,-180.19 637.93,-182.65 641.71,-188.54"/>
</a>
</g>
</g>
<!-- 21&#45;&gt;22 -->
<g id="edge57" class="edge">
<title>21&#45;&gt;22</title>
<g id="a_edge57"><a xlink:title="include">
<path fill="none" stroke="#1414ce" d="M523.03,-218.33C487.12,-206.07 436.3,-188.71 401.2,-176.73"/>
<polygon fill="#1414ce" stroke="#1414ce" points="401.88,-173.26 391.29,-173.34 399.62,-179.89 401.88,-173.26"/>
</a>
</g>
</g>
<!-- 7 -->
<g id="node28" class="node">
<title>7</title>
<g id="a_node28"><a xlink:title="stdio.h">
<polygon fill="#ffffff" stroke="black" points="877.5,-108 812.5,-108 812.5,-72 877.5,-72 877.5,-108"/>
<text text-anchor="middle" x="845" y="-86.3" font-family="Times,serif" font-size="14.00">stdio.h</text>
</a>
</g>
</g>
<!-- 21&#45;&gt;7 -->
<g id="edge55" class="edge">
<title>21&#45;&gt;7</title>
<g id="a_edge55"><a xlink:title="include">
<path fill="none" stroke="#1414ce" d="M575.48,-215.8C587.56,-195.52 610.36,-162.27 639,-144 689.3,-111.92 758.15,-99.22 802.11,-94.22"/>
<polygon fill="#1414ce" stroke="#1414ce" points="802.6,-97.69 812.18,-93.16 801.87,-90.72 802.6,-97.69"/>
</a>
</g>
</g>
<!-- 3&#45;&gt;10 -->
<g id="edge64" class="edge">
<title>3&#45;&gt;10</title>
<g id="a_edge64"><a xlink:title="include">
<path fill="none" stroke="#1414ce" d="M926.58,-447.94C996.93,-444.94 1159.74,-433.98 1197,-396 1231.74,-360.59 1230.62,-298.15 1226.46,-262.32"/>
<polygon fill="#1414ce" stroke="#1414ce" points="1229.89,-261.57 1225.11,-252.12 1222.95,-262.49 1229.89,-261.57"/>
</a>
</g>
</g>
<!-- 3&#45;&gt;18 -->
<g id="edge65" class="edge">
<title>3&#45;&gt;18</title>
<g id="a_edge65"><a xlink:title="include">
<path fill="none" stroke="#1414ce" d="M866.11,-431.88C851.21,-422.72 832.67,-411.34 816.62,-401.48"/>
<polygon fill="#1414ce" stroke="#1414ce" points="818.35,-398.44 807.99,-396.19 814.69,-404.41 818.35,-398.44"/>
</a>
</g>
</g>
<!-- 3&#45;&gt;12 -->
<g id="edge67" class="edge">
<title>3&#45;&gt;12</title>
<g id="a_edge67"><a xlink:title="include">
<path fill="none" stroke="#1414ce" d="M926.72,-447.17C999.73,-442.55 1173.3,-428.39 1221,-396 1313.5,-333.18 1320.26,-287.79 1350,-180 1354.26,-164.58 1356.45,-158.64 1350,-144 1345.01,-132.69 1336.29,-122.74 1327.1,-114.62"/>
<polygon fill="#1414ce" stroke="#1414ce" points="1329.28,-111.88 1319.34,-108.23 1324.83,-117.28 1329.28,-111.88"/>
</a>
</g>
</g>
<!-- 3&#45;&gt;16 -->
<g id="edge66" class="edge">
<title>3&#45;&gt;16</title>
<g id="a_edge66"><a xlink:title="include">
<path fill="none" stroke="#1414ce" d="M926.53,-447.46C990.71,-443.67 1129.92,-431.47 1159,-396 1191.77,-356.03 1197.43,-317.65 1119,-216 1111.9,-206.8 1089.39,-193.66 1068.54,-182.76"/>
<polygon fill="#1414ce" stroke="#1414ce" points="1069.94,-179.55 1059.45,-178.09 1066.75,-185.78 1069.94,-179.55"/>
</a>
</g>
</g>
<!-- 3&#45;&gt;5 -->
<g id="edge59" class="edge">
<title>3&#45;&gt;5</title>
<g id="a_edge59"><a xlink:title="include">
<path fill="none" stroke="#1414ce" d="M861.21,-440.78C825.3,-431.41 766.26,-414.92 717,-396 601.23,-351.54 562.76,-342.53 478,-252 437.53,-208.78 434.88,-191.85 400,-144 393.44,-135 386.22,-125.17 379.79,-116.44"/>
<polygon fill="#1414ce" stroke="#1414ce" points="382.44,-114.13 373.68,-108.16 376.8,-118.28 382.44,-114.13"/>
</a>
</g>
</g>
<!-- 3&#45;&gt;6 -->
<g id="edge60" class="edge">
<title>3&#45;&gt;6</title>
<g id="a_edge60"><a xlink:title="include">
<path fill="none" stroke="#1414ce" d="M895.82,-431.94C898.53,-412.98 905.01,-382.12 920,-360 934.56,-338.51 948.09,-342.79 966,-324 1020.12,-267.23 1044.21,-254.73 1068,-180 1082.56,-134.26 1100.8,-107.04 1068,-72 1016.17,-16.64 474.71,-17.06 311.38,-18.46"/>
<polygon fill="#1414ce" stroke="#1414ce" points="311.15,-14.97 301.18,-18.56 311.21,-21.97 311.15,-14.97"/>
</a>
</g>
</g>
<!-- 3&#45;&gt;7 -->
<g id="edge61" class="edge">
<title>3&#45;&gt;7</title>
<g id="a_edge61"><a xlink:title="include">
<path fill="none" stroke="#1414ce" d="M886.91,-431.98C880.22,-413.05 873,-382.23 886,-360 902.48,-331.83 933.52,-352.17 950,-324 958.08,-310.19 953.88,-303.52 950,-288 933.37,-221.45 889.54,-152.75 864.08,-116.69"/>
<polygon fill="#1414ce" stroke="#1414ce" points="866.69,-114.33 858.02,-108.25 861,-118.41 866.69,-114.33"/>
</a>
</g>
</g>
<!-- 3&#45;&gt;8 -->
<g id="edge62" class="edge">
<title>3&#45;&gt;8</title>
<g id="a_edge62"><a xlink:title="include">
<path fill="none" stroke="#1414ce" d="M926.52,-446.45C984.36,-441.17 1101.4,-426.85 1126,-396 1182.92,-324.6 1152.91,-415.02 988,-180 973.37,-159.15 957.85,-134.75 946.7,-116.77"/>
<polygon fill="#1414ce" stroke="#1414ce" points="949.53,-114.68 941.3,-108.01 943.57,-118.36 949.53,-114.68"/>
</a>
</g>
</g>
<!-- 9 -->
<g id="node30" class="node">
<title>9</title>
<g id="a_node30"><a xlink:title="string.h">
<polygon fill="#ffffff" stroke="black" points="1001.5,-396 928.5,-396 928.5,-360 1001.5,-360 1001.5,-396"/>
<text text-anchor="middle" x="965" y="-374.3" font-family="Times,serif" font-size="14.00">string.h</text>
</a>
</g>
</g>
<!-- 3&#45;&gt;9 -->
<g id="edge63" class="edge">
<title>3&#45;&gt;9</title>
<g id="a_edge63"><a xlink:title="include">
<path fill="none" stroke="#1414ce" d="M911.55,-431.7C920.23,-423.14 930.86,-412.66 940.35,-403.3"/>
<polygon fill="#1414ce" stroke="#1414ce" points="942.99,-405.62 947.65,-396.1 938.07,-400.63 942.99,-405.62"/>
</a>
</g>
</g>
<!-- 4 -->
<g id="node31" class="node">
<title>4</title>
<g id="a_node31"><a xlink:title="sys/types.h">
<polygon fill="#ffffff" stroke="black" points="1116.5,-396 1019.5,-396 1019.5,-360 1116.5,-360 1116.5,-396"/>
<text text-anchor="middle" x="1068" y="-374.3" font-family="Times,serif" font-size="14.00">sys/types.h</text>
</a>
</g>
</g>
<!-- 3&#45;&gt;4 -->
<g id="edge58" class="edge">
<title>3&#45;&gt;4</title>
<g id="a_edge58"><a xlink:title="include">
<path fill="none" stroke="#1414ce" d="M926.73,-435.83C951.85,-425.73 987.02,-411.58 1015.98,-399.93"/>
<polygon fill="#1414ce" stroke="#1414ce" points="1017.57,-403.06 1025.54,-396.08 1014.96,-396.57 1017.57,-403.06"/>
</a>
</g>
</g>
<!-- 13 -->
<g id="node22" class="node">
<title>13</title>
<g id="a_node22"><a xlink:title="assert.h">
<polygon fill="#ffffff" stroke="black" points="1420,-36 1346,-36 1346,0 1420,0 1420,-36"/>
<text text-anchor="middle" x="1383" y="-14.3" font-family="Times,serif" font-size="14.00">assert.h</text>
</a>
</g>
</g>
<!-- 12&#45;&gt;13 -->
<g id="edge68" class="edge">
<title>12&#45;&gt;13</title>
<g id="a_edge68"><a xlink:title="include">
<path fill="none" stroke="#1414ce" d="M1314.49,-71.7C1325.96,-62.88 1340.06,-52.03 1352.48,-42.47"/>
<polygon fill="#1414ce" stroke="#1414ce" points="1354.97,-44.98 1360.76,-36.1 1350.7,-39.43 1354.97,-44.98"/>
</a>
</g>
</g>
<!-- 15 -->
<g id="node23" class="node">
<title>15</title>
<g id="a_node23"><a xlink:title="inttypes.h">
<polygon fill="#ffffff" stroke="black" points="1238.5,-36 1149.5,-36 1149.5,0 1238.5,0 1238.5,-36"/>
<text text-anchor="middle" x="1194" y="-14.3" font-family="Times,serif" font-size="14.00">inttypes.h</text>
</a>
</g>
</g>
<!-- 12&#45;&gt;15 -->
<g id="edge70" class="edge">
<title>12&#45;&gt;15</title>
<g id="a_edge70"><a xlink:title="include">
<path fill="none" stroke="#1414ce" d="M1268.03,-71.88C1255.45,-62.89 1239.87,-51.76 1226.25,-42.03"/>
<polygon fill="#1414ce" stroke="#1414ce" points="1228.24,-39.15 1218.07,-36.19 1224.17,-44.85 1228.24,-39.15"/>
</a>
</g>
</g>
<!-- 14 -->
<g id="node24" class="node">
<title>14</title>
<g id="a_node24"><a xlink:title="limits.h">
<polygon fill="#ffffff" stroke="black" points="1327.5,-36 1256.5,-36 1256.5,0 1327.5,0 1327.5,-36"/>
<text text-anchor="middle" x="1292" y="-14.3" font-family="Times,serif" font-size="14.00">limits.h</text>
</a>
</g>
</g>
<!-- 12&#45;&gt;14 -->
<g id="edge69" class="edge">
<title>12&#45;&gt;14</title>
<g id="a_edge69"><a xlink:title="include">
<path fill="none" stroke="#1414ce" d="M1292,-71.7C1292,-63.98 1292,-54.71 1292,-46.11"/>
<polygon fill="#1414ce" stroke="#1414ce" points="1295.5,-46.1 1292,-36.1 1288.5,-46.1 1295.5,-46.1"/>
</a>
</g>
</g>
<!-- 12&#45;&gt;6 -->
<g id="edge71" class="edge">
<title>12&#45;&gt;6</title>
<g id="a_edge71"><a xlink:title="include">
<path fill="none" stroke="#1414ce" d="M1229.12,-74.25C1224.36,-73.4 1219.61,-72.63 1215,-72 870.09,-24.62 449.2,-19.33 311.21,-18.94"/>
<polygon fill="#1414ce" stroke="#1414ce" points="311.01,-15.44 301,-18.92 311,-22.44 311.01,-15.44"/>
</a>
</g>
</g>
<!-- 30&#45;&gt;19 -->
<g id="edge74" class="edge">
<title>30&#45;&gt;19</title>
<g id="a_edge74"><a xlink:title="include">
<path fill="none" stroke="#1414ce" d="M315.33,-224.56C398.16,-210.38 563.36,-182.11 637.48,-169.42"/>
<polygon fill="#1414ce" stroke="#1414ce" points="638.47,-172.8 647.74,-167.67 637.29,-165.9 638.47,-172.8"/>
</a>
</g>
</g>
<!-- 30&#45;&gt;5 -->
<g id="edge72" class="edge">
<title>30&#45;&gt;5</title>
<g id="a_edge72"><a xlink:title="include">
<path fill="none" stroke="#1414ce" d="M276.37,-215.7C287.35,-197.59 305.35,-168.44 322,-144 328.17,-134.94 335.2,-125.22 341.58,-116.61"/>
<polygon fill="#1414ce" stroke="#1414ce" points="344.5,-118.54 347.67,-108.44 338.89,-114.36 344.5,-118.54"/>
</a>
</g>
</g>
<!-- 30&#45;&gt;6 -->
<g id="edge73" class="edge">
<title>30&#45;&gt;6</title>
<g id="a_edge73"><a xlink:title="include">
<path fill="none" stroke="#1414ce" d="M265.92,-215.85C265.75,-178.83 265.34,-91.18 265.13,-46.39"/>
<polygon fill="#1414ce" stroke="#1414ce" points="268.63,-46.22 265.08,-36.23 261.63,-46.25 268.63,-46.22"/>
</a>
</g>
</g>
<!-- 17 -->
<g id="node26" class="node">
<title>17</title>
<g id="a_node26"><a xlink:title="stddef.h">
<polygon fill="#ffffff" stroke="black" points="1059,-108 985,-108 985,-72 1059,-72 1059,-108"/>
<text text-anchor="middle" x="1022" y="-86.3" font-family="Times,serif" font-size="14.00">stddef.h</text>
</a>
</g>
</g>
<!-- 16&#45;&gt;17 -->
<g id="edge75" class="edge">
<title>16&#45;&gt;17</title>
<g id="a_edge75"><a xlink:title="include">
<path fill="none" stroke="#1414ce" d="M1026.52,-143.7C1025.86,-135.98 1025.06,-126.71 1024.32,-118.11"/>
<polygon fill="#1414ce" stroke="#1414ce" points="1027.81,-117.77 1023.47,-108.1 1020.83,-118.37 1027.81,-117.77"/>
</a>
</g>
</g>
<!-- 16&#45;&gt;7 -->
<g id="edge76" class="edge">
<title>16&#45;&gt;7</title>
<g id="a_edge76"><a xlink:title="include">
<path fill="none" stroke="#1414ce" d="M996.83,-149.54C968.2,-138.95 924.64,-122.69 887,-108 886.9,-107.96 886.81,-107.92 886.71,-107.89"/>
<polygon fill="#1414ce" stroke="#1414ce" points="888.11,-104.68 877.53,-104.26 885.54,-111.19 888.11,-104.68"/>
</a>
</g>
</g>
<!-- 16&#45;&gt;8 -->
<g id="edge77" class="edge">
<title>16&#45;&gt;8</title>
<g id="a_edge77"><a xlink:title="include">
<path fill="none" stroke="#1414ce" d="M1004.02,-143.7C991.69,-134.8 976.48,-123.82 963.15,-114.2"/>
<polygon fill="#1414ce" stroke="#1414ce" points="964.86,-111.12 954.7,-108.1 960.76,-116.79 964.86,-111.12"/>
</a>
</g>
</g>
</g>
</svg>
