<?xml version="1.0" encoding="UTF-8" standalone="no"?>
<!DOCTYPE svg PUBLIC "-//W3C//DTD SVG 1.1//EN"
 "http://www.w3.org/Graphics/SVG/1.1/DTD/svg11.dtd">
<!-- Generated by graphviz version 2.43.0 (0)
 -->
<!-- Title: %3 Pages: 1 -->
<svg width="1451pt" height="764pt"
 viewBox="0.00 0.00 1451.00 764.00" xmlns="http://www.w3.org/2000/svg" xmlns:xlink="http://www.w3.org/1999/xlink">
<g id="graph0" class="graph" transform="scale(1 1) rotate(0) translate(4 760)">
<title>%3</title>
<polygon fill="transparent" stroke="transparent" points="-4,4 -4,-760 1447,-760 1447,4 -4,4"/>
<!-- 3 -->
<g id="node1" class="node">
<title>3</title>
<g id="a_node1"><a xlink:title="atom.h">
<polygon fill="#ffffff" stroke="black" points="389,-396 323,-396 323,-360 389,-360 389,-396"/>
<text text-anchor="middle" x="356" y="-374.3" font-family="Times,serif" font-size="14.00">atom.h</text>
</a>
</g>
</g>
<!-- 4 -->
<g id="node27" class="node">
<title>4</title>
<g id="a_node27"><a xlink:title="stdint.h">
<polygon fill="#ffffff" stroke="black" points="255,-36 183,-36 183,0 255,0 255,-36"/>
<text text-anchor="middle" x="219" y="-14.3" font-family="Times,serif" font-size="14.00">stdint.h</text>
</a>
</g>
</g>
<!-- 3&#45;&gt;4 -->
<g id="edge1" class="edge">
<title>3&#45;&gt;4</title>
<g id="a_edge1"><a xlink:title="include">
<path fill="none" stroke="#1414ce" d="M322.67,-366.85C271.9,-349.08 181,-307.19 181,-235 181,-235 181,-235 181,-161 181,-119.63 196.23,-73.72 207.41,-45.61"/>
<polygon fill="#1414ce" stroke="#1414ce" points="210.76,-46.67 211.31,-36.09 204.28,-44.02 210.76,-46.67"/>
</a>
</g>
</g>
<!-- 5 -->
<g id="node29" class="node">
<title>5</title>
<g id="a_node29"><a xlink:title="stdlib.h">
<polygon fill="#ffffff" stroke="black" points="1019.5,-108 948.5,-108 948.5,-72 1019.5,-72 1019.5,-108"/>
<text text-anchor="middle" x="984" y="-86.3" font-family="Times,serif" font-size="14.00">stdlib.h</text>
</a>
</g>
</g>
<!-- 3&#45;&gt;5 -->
<g id="edge2" class="edge">
<title>3&#45;&gt;5</title>
<g id="a_edge2"><a xlink:title="include">
<path fill="none" stroke="#1414ce" d="M377.28,-359.92C432.88,-316.27 588.54,-200.09 738,-144 805.54,-118.65 888.3,-103.96 938.54,-96.71"/>
<polygon fill="#1414ce" stroke="#1414ce" points="939.03,-100.18 948.45,-95.32 938.06,-93.25 939.03,-100.18"/>
</a>
</g>
</g>
<!-- 8 -->
<g id="node2" class="node">
<title>8</title>
<g id="a_node2"><a xlink:title="atom_table.h">
<polygon fill="#ffffff" stroke="black" points="289.5,-468 180.5,-468 180.5,-432 289.5,-432 289.5,-468"/>
<text text-anchor="middle" x="235" y="-446.3" font-family="Times,serif" font-size="14.00">atom_table.h</text>
</a>
</g>
</g>
<!-- 8&#45;&gt;3 -->
<g id="edge4" class="edge">
<title>8&#45;&gt;3</title>
<g id="a_edge4"><a xlink:title="include">
<path fill="none" stroke="#1414ce" d="M264.6,-431.88C280.57,-422.64 300.46,-411.13 317.61,-401.21"/>
<polygon fill="#1414ce" stroke="#1414ce" points="319.38,-404.23 326.29,-396.19 315.88,-398.17 319.38,-404.23"/>
</a>
</g>
</g>
<!-- 2 -->
<g id="node25" class="node">
<title>2</title>
<g id="a_node25"><a xlink:title="stdbool.h">
<polygon fill="#ffffff" stroke="black" points="492.5,-108 409.5,-108 409.5,-72 492.5,-72 492.5,-108"/>
<text text-anchor="middle" x="451" y="-86.3" font-family="Times,serif" font-size="14.00">stdbool.h</text>
</a>
</g>
</g>
<!-- 8&#45;&gt;2 -->
<g id="edge3" class="edge">
<title>8&#45;&gt;2</title>
<g id="a_edge3"><a xlink:title="include">
<path fill="none" stroke="#1414ce" d="M247.72,-431.62C265.34,-405.81 295,-355.17 295,-307 295,-307 295,-307 295,-233 295,-175.1 354.5,-134.55 400.01,-112.01"/>
<polygon fill="#1414ce" stroke="#1414ce" points="401.69,-115.09 409.19,-107.61 398.66,-108.78 401.69,-115.09"/>
</a>
</g>
</g>
<!-- 30 -->
<g id="node3" class="node">
<title>30</title>
<g id="a_node3"><a xlink:title="atomshashtable.h">
<polygon fill="#ffffff" stroke="black" points="432.5,-540 289.5,-540 289.5,-504 432.5,-504 432.5,-540"/>
<text text-anchor="middle" x="361" y="-518.3" font-family="Times,serif" font-size="14.00">atomshashtable.h</text>
</a>
</g>
</g>
<!-- 30&#45;&gt;3 -->
<g id="edge5" class="edge">
<title>30&#45;&gt;3</title>
<g id="a_edge5"><a xlink:title="include">
<path fill="none" stroke="#1414ce" d="M360.4,-503.87C359.54,-479.67 357.98,-435.21 356.96,-406.39"/>
<polygon fill="#1414ce" stroke="#1414ce" points="360.46,-406.06 356.61,-396.19 353.46,-406.31 360.46,-406.06"/>
</a>
</g>
</g>
<!-- 1 -->
<g id="node4" class="node">
<title>1</title>
<g id="a_node4"><a xlink:title="/__w/AtomVM/AtomVM/src/libAtomVM/bif.h">
<polygon fill="#bfbfbf" stroke="black" points="563.5,-756 238.5,-756 238.5,-720 563.5,-720 563.5,-756"/>
<text text-anchor="middle" x="401" y="-734.3" font-family="Times,serif" font-size="14.00">/__w/AtomVM/AtomVM/src/libAtomVM/bif.h</text>
</a>
</g>
</g>
<!-- 1&#45;&gt;3 -->
<g id="edge7" class="edge">
<title>1&#45;&gt;3</title>
<g id="a_edge7"><a xlink:title="include">
<path fill="none" stroke="#1414ce" d="M365.72,-719.89C326.6,-699.28 264,-661.2 226,-612 184.12,-557.78 183.43,-535.37 171,-468 168.1,-452.27 161.37,-444.78 171,-432 188.04,-409.4 263.57,-393.49 312.7,-385.33"/>
<polygon fill="#1414ce" stroke="#1414ce" points="313.44,-388.75 322.75,-383.7 312.32,-381.84 313.44,-388.75"/>
</a>
</g>
</g>
<!-- 6 -->
<g id="node5" class="node">
<title>6</title>
<g id="a_node5"><a xlink:title="context.h">
<polygon fill="#ffffff" stroke="black" points="675.5,-612 592.5,-612 592.5,-576 675.5,-576 675.5,-612"/>
<text text-anchor="middle" x="634" y="-590.3" font-family="Times,serif" font-size="14.00">context.h</text>
</a>
</g>
</g>
<!-- 1&#45;&gt;6 -->
<g id="edge8" class="edge">
<title>1&#45;&gt;6</title>
<g id="a_edge8"><a xlink:title="include">
<path fill="none" stroke="#1414ce" d="M429.11,-719.87C471.18,-694.23 550.56,-645.85 597.2,-617.43"/>
<polygon fill="#1414ce" stroke="#1414ce" points="599.08,-620.38 605.8,-612.19 595.43,-614.4 599.08,-620.38"/>
</a>
</g>
</g>
<!-- 28 -->
<g id="node7" class="node">
<title>28</title>
<g id="a_node7"><a xlink:title="exportedfunction.h">
<polygon fill="#ffffff" stroke="black" points="992,-612 840,-612 840,-576 992,-576 992,-612"/>
<text text-anchor="middle" x="916" y="-590.3" font-family="Times,serif" font-size="14.00">exportedfunction.h</text>
</a>
</g>
</g>
<!-- 1&#45;&gt;28 -->
<g id="edge9" class="edge">
<title>1&#45;&gt;28</title>
<g id="a_edge9"><a xlink:title="include">
<path fill="none" stroke="#1414ce" d="M462.87,-719.94C558.69,-693.52 742.54,-642.83 844.12,-614.82"/>
<polygon fill="#1414ce" stroke="#1414ce" points="845.28,-618.13 853.99,-612.1 843.42,-611.38 845.28,-618.13"/>
</a>
</g>
</g>
<!-- 29 -->
<g id="node12" class="node">
<title>29</title>
<g id="a_node12"><a xlink:title="module.h">
<polygon fill="#ffffff" stroke="black" points="442.5,-684 359.5,-684 359.5,-648 442.5,-648 442.5,-684"/>
<text text-anchor="middle" x="401" y="-662.3" font-family="Times,serif" font-size="14.00">module.h</text>
</a>
</g>
</g>
<!-- 1&#45;&gt;29 -->
<g id="edge10" class="edge">
<title>1&#45;&gt;29</title>
<g id="a_edge10"><a xlink:title="include">
<path fill="none" stroke="#1414ce" d="M401,-719.7C401,-711.98 401,-702.71 401,-694.11"/>
<polygon fill="#1414ce" stroke="#1414ce" points="404.5,-694.1 401,-684.1 397.5,-694.1 404.5,-694.1"/>
</a>
</g>
</g>
<!-- 1&#45;&gt;2 -->
<g id="edge6" class="edge">
<title>1&#45;&gt;2</title>
<g id="a_edge6"><a xlink:title="include">
<path fill="none" stroke="#1414ce" d="M309.4,-719.96C201.86,-697.29 38,-653.2 38,-595 38,-595 38,-595 38,-377 38,-203.2 288.26,-126.68 399.16,-101.3"/>
<polygon fill="#1414ce" stroke="#1414ce" points="400.13,-104.67 409.13,-99.07 398.6,-97.84 400.13,-104.67"/>
</a>
</g>
</g>
<!-- 7 -->
<g id="node8" class="node">
<title>7</title>
<g id="a_node8"><a xlink:title="globalcontext.h">
<polygon fill="#ffffff" stroke="black" points="616.5,-540 489.5,-540 489.5,-504 616.5,-504 616.5,-540"/>
<text text-anchor="middle" x="553" y="-518.3" font-family="Times,serif" font-size="14.00">globalcontext.h</text>
</a>
</g>
</g>
<!-- 6&#45;&gt;7 -->
<g id="edge11" class="edge">
<title>6&#45;&gt;7</title>
<g id="a_edge11"><a xlink:title="include">
<path fill="none" stroke="#1414ce" d="M613.98,-575.7C603.87,-566.97 591.46,-556.24 580.48,-546.75"/>
<polygon fill="#1414ce" stroke="#1414ce" points="582.65,-543.99 572.79,-540.1 578.07,-549.29 582.65,-543.99"/>
</a>
</g>
</g>
<!-- 14 -->
<g id="node9" class="node">
<title>14</title>
<g id="a_node9"><a xlink:title="list.h">
<polygon fill="#ffffff" stroke="black" points="801,-180 747,-180 747,-144 801,-144 801,-180"/>
<text text-anchor="middle" x="774" y="-158.3" font-family="Times,serif" font-size="14.00">list.h</text>
</a>
</g>
</g>
<!-- 6&#45;&gt;14 -->
<g id="edge12" class="edge">
<title>6&#45;&gt;14</title>
<g id="a_edge12"><a xlink:title="include">
<path fill="none" stroke="#1414ce" d="M642.98,-575.61C648.06,-565.4 654.31,-552.15 659,-540 708.5,-411.76 751.13,-252.65 767.19,-190.07"/>
<polygon fill="#1414ce" stroke="#1414ce" points="770.62,-190.76 769.7,-180.21 763.84,-189.03 770.62,-190.76"/>
</a>
</g>
</g>
<!-- 15 -->
<g id="node10" class="node">
<title>15</title>
<g id="a_node10"><a xlink:title="mailbox.h">
<polygon fill="#ffffff" stroke="black" points="1144,-252 1058,-252 1058,-216 1144,-216 1144,-252"/>
<text text-anchor="middle" x="1101" y="-230.3" font-family="Times,serif" font-size="14.00">mailbox.h</text>
</a>
</g>
</g>
<!-- 6&#45;&gt;15 -->
<g id="edge13" class="edge">
<title>6&#45;&gt;15</title>
<g id="a_edge13"><a xlink:title="include">
<path fill="none" stroke="#1414ce" d="M675.52,-592.39C779.36,-588.32 1050.09,-561.6 1164,-396 1193.79,-352.68 1153.33,-293.27 1124.79,-260.07"/>
<polygon fill="#1414ce" stroke="#1414ce" points="1127.1,-257.39 1117.85,-252.22 1121.85,-262.03 1127.1,-257.39"/>
</a>
</g>
</g>
<!-- 19 -->
<g id="node15" class="node">
<title>19</title>
<g id="a_node15"><a xlink:title="smp.h">
<polygon fill="#ffffff" stroke="black" points="524,-180 464,-180 464,-144 524,-144 524,-180"/>
<text text-anchor="middle" x="494" y="-158.3" font-family="Times,serif" font-size="14.00">smp.h</text>
</a>
</g>
</g>
<!-- 6&#45;&gt;19 -->
<g id="edge14" class="edge">
<title>6&#45;&gt;19</title>
<g id="a_edge14"><a xlink:title="include">
<path fill="none" stroke="#1414ce" d="M633.87,-575.71C633.4,-557.61 631.72,-528.47 626,-504 597.53,-382.12 534.62,-245.71 507.2,-189.44"/>
<polygon fill="#1414ce" stroke="#1414ce" points="510.21,-187.63 502.66,-180.2 503.93,-190.72 510.21,-187.63"/>
</a>
</g>
</g>
<!-- 21 -->
<g id="node17" class="node">
<title>21</title>
<g id="a_node17"><a xlink:title="term.h">
<polygon fill="#ffffff" stroke="black" points="959.5,-468 894.5,-468 894.5,-432 959.5,-432 959.5,-468"/>
<text text-anchor="middle" x="927" y="-446.3" font-family="Times,serif" font-size="14.00">term.h</text>
</a>
</g>
</g>
<!-- 6&#45;&gt;21 -->
<g id="edge15" class="edge">
<title>6&#45;&gt;21</title>
<g id="a_edge15"><a xlink:title="include">
<path fill="none" stroke="#1414ce" d="M675.62,-576.56C698.22,-567 726.3,-554.08 750,-540 772.93,-526.38 774.81,-517.17 798,-504 825.72,-488.25 859.05,-474.68 884.89,-465.22"/>
<polygon fill="#1414ce" stroke="#1414ce" points="886.18,-468.47 894.4,-461.79 883.81,-461.89 886.18,-468.47"/>
</a>
</g>
</g>
<!-- 27 -->
<g id="node19" class="node">
<title>27</title>
<g id="a_node19"><a xlink:title="timer_list.h">
<polygon fill="#ffffff" stroke="black" points="442,-252 344,-252 344,-216 442,-216 442,-252"/>
<text text-anchor="middle" x="393" y="-230.3" font-family="Times,serif" font-size="14.00">timer_list.h</text>
</a>
</g>
</g>
<!-- 6&#45;&gt;27 -->
<g id="edge16" class="edge">
<title>6&#45;&gt;27</title>
<g id="a_edge16"><a xlink:title="include">
<path fill="none" stroke="#1414ce" d="M592.24,-588.72C558.02,-583.08 510.58,-570.05 481,-540 404.21,-461.98 393.61,-321.41 392.71,-262.33"/>
<polygon fill="#1414ce" stroke="#1414ce" points="396.21,-262.25 392.64,-252.28 389.21,-262.3 396.21,-262.25"/>
</a>
</g>
</g>
<!-- 9 -->
<g id="node6" class="node">
<title>9</title>
<g id="a_node6"><a xlink:title="erl_nif.h">
<polygon fill="#ffffff" stroke="black" points="1402,-180 1328,-180 1328,-144 1402,-144 1402,-180"/>
<text text-anchor="middle" x="1365" y="-158.3" font-family="Times,serif" font-size="14.00">erl_nif.h</text>
</a>
</g>
</g>
<!-- 10 -->
<g id="node18" class="node">
<title>10</title>
<g id="a_node18"><a xlink:title="term_typedef.h">
<polygon fill="#ffffff" stroke="black" points="1377.5,-108 1252.5,-108 1252.5,-72 1377.5,-72 1377.5,-108"/>
<text text-anchor="middle" x="1315" y="-86.3" font-family="Times,serif" font-size="14.00">term_typedef.h</text>
</a>
</g>
</g>
<!-- 9&#45;&gt;10 -->
<g id="edge17" class="edge">
<title>9&#45;&gt;10</title>
<g id="a_edge17"><a xlink:title="include">
<path fill="none" stroke="#1414ce" d="M1352.64,-143.7C1346.77,-135.47 1339.63,-125.48 1333.16,-116.42"/>
<polygon fill="#1414ce" stroke="#1414ce" points="1335.88,-114.21 1327.22,-108.1 1330.18,-118.28 1335.88,-114.21"/>
</a>
</g>
</g>
<!-- 28&#45;&gt;21 -->
<g id="edge18" class="edge">
<title>28&#45;&gt;21</title>
<g id="a_edge18"><a xlink:title="include">
<path fill="none" stroke="#1414ce" d="M917.33,-575.87C919.2,-551.67 922.65,-507.21 924.88,-478.39"/>
<polygon fill="#1414ce" stroke="#1414ce" points="928.39,-478.43 925.67,-468.19 921.41,-477.89 928.39,-478.43"/>
</a>
</g>
</g>
<!-- 7&#45;&gt;3 -->
<g id="edge20" class="edge">
<title>7&#45;&gt;3</title>
<g id="a_edge20"><a xlink:title="include">
<path fill="none" stroke="#1414ce" d="M517.29,-503.95C498.44,-494.36 475.3,-481.59 456,-468 428.16,-448.39 399.42,-422.06 379.94,-403.14"/>
<polygon fill="#1414ce" stroke="#1414ce" points="382.28,-400.54 372.69,-396.03 377.38,-405.53 382.28,-400.54"/>
</a>
</g>
</g>
<!-- 7&#45;&gt;8 -->
<g id="edge21" class="edge">
<title>7&#45;&gt;8</title>
<g id="a_edge21"><a xlink:title="include">
<path fill="none" stroke="#1414ce" d="M489.41,-507C434.38,-494.89 355.16,-477.45 299.78,-465.26"/>
<polygon fill="#1414ce" stroke="#1414ce" points="300.25,-461.78 289.73,-463.05 298.75,-468.62 300.25,-461.78"/>
</a>
</g>
</g>
<!-- 7&#45;&gt;9 -->
<g id="edge22" class="edge">
<title>7&#45;&gt;9</title>
<g id="a_edge22"><a xlink:title="include">
<path fill="none" stroke="#1414ce" d="M616.52,-516.64C770.33,-505.04 1157.77,-469.14 1262,-396 1324.96,-351.82 1332.84,-324.69 1358,-252 1364.88,-232.14 1366.43,-208.34 1366.37,-190.35"/>
<polygon fill="#1414ce" stroke="#1414ce" points="1369.87,-190.18 1366.17,-180.25 1362.87,-190.32 1369.87,-190.18"/>
</a>
</g>
</g>
<!-- 7&#45;&gt;14 -->
<g id="edge23" class="edge">
<title>7&#45;&gt;14</title>
<g id="a_edge23"><a xlink:title="include">
<path fill="none" stroke="#1414ce" d="M576.85,-503.97C588.11,-494.64 600.65,-482.11 608,-468 626.49,-432.48 622,-419.04 622,-379 622,-379 622,-379 622,-305 622,-241.95 692.69,-198.86 737.66,-177.82"/>
<polygon fill="#1414ce" stroke="#1414ce" points="739.16,-180.98 746.83,-173.67 736.27,-174.61 739.16,-180.98"/>
</a>
</g>
</g>
<!-- 7&#45;&gt;15 -->
<g id="edge24" class="edge">
<title>7&#45;&gt;15</title>
<g id="a_edge24"><a xlink:title="include">
<path fill="none" stroke="#1414ce" d="M616.77,-504.03C710.04,-477.01 886.12,-417.52 1011,-324 1036.55,-304.87 1062.08,-278.79 1079.39,-259.82"/>
<polygon fill="#1414ce" stroke="#1414ce" points="1082.19,-261.93 1086.28,-252.16 1076.99,-257.25 1082.19,-261.93"/>
</a>
</g>
</g>
<!-- 7&#45;&gt;19 -->
<g id="edge25" class="edge">
<title>7&#45;&gt;19</title>
<g id="a_edge25"><a xlink:title="include">
<path fill="none" stroke="#1414ce" d="M545.47,-503.53C541.21,-493.28 535.96,-480.03 532,-468 511.33,-405.12 502.52,-389.64 494,-324 487.95,-277.38 489.85,-222.54 491.86,-190.39"/>
<polygon fill="#1414ce" stroke="#1414ce" points="495.38,-190.23 492.57,-180.01 488.4,-189.75 495.38,-190.23"/>
</a>
</g>
</g>
<!-- 20 -->
<g id="node16" class="node">
<title>20</title>
<g id="a_node16"><a xlink:title="synclist.h">
<polygon fill="#ffffff" stroke="black" points="887.5,-252 802.5,-252 802.5,-216 887.5,-216 887.5,-252"/>
<text text-anchor="middle" x="845" y="-230.3" font-family="Times,serif" font-size="14.00">synclist.h</text>
</a>
</g>
</g>
<!-- 7&#45;&gt;20 -->
<g id="edge26" class="edge">
<title>7&#45;&gt;20</title>
<g id="a_edge26"><a xlink:title="include">
<path fill="none" stroke="#1414ce" d="M561.46,-503.83C571.18,-485.06 588.34,-454.62 608,-432 670.9,-359.61 761.9,-292.02 810.82,-257.99"/>
<polygon fill="#1414ce" stroke="#1414ce" points="812.92,-260.79 819.16,-252.23 808.94,-255.03 812.92,-260.79"/>
</a>
</g>
</g>
<!-- 7&#45;&gt;21 -->
<g id="edge27" class="edge">
<title>7&#45;&gt;21</title>
<g id="a_edge27"><a xlink:title="include">
<path fill="none" stroke="#1414ce" d="M616.87,-509.05C693.11,-494.78 818.52,-471.3 884.06,-459.04"/>
<polygon fill="#1414ce" stroke="#1414ce" points="884.86,-462.45 894.05,-457.17 883.57,-455.57 884.86,-462.45"/>
</a>
</g>
</g>
<!-- 7&#45;&gt;27 -->
<g id="edge28" class="edge">
<title>7&#45;&gt;27</title>
<g id="a_edge28"><a xlink:title="include">
<path fill="none" stroke="#1414ce" d="M529.49,-503.84C517.67,-494.31 503.81,-481.63 494,-468 468.77,-432.96 423.02,-315.13 402.92,-261.72"/>
<polygon fill="#1414ce" stroke="#1414ce" points="406.15,-260.37 399.37,-252.24 399.6,-262.83 406.15,-260.37"/>
</a>
</g>
</g>
<!-- 7&#45;&gt;4 -->
<g id="edge19" class="edge">
<title>7&#45;&gt;4</title>
<g id="a_edge19"><a xlink:title="include">
<path fill="none" stroke="#1414ce" d="M489.35,-511.03C473.86,-508.66 457.34,-506.19 442,-504 381.86,-495.4 218.07,-506.4 171,-468 83.02,-396.22 101.92,-326.27 129,-216 145.37,-149.31 153.86,-133.2 185,-72 189.71,-62.74 195.61,-53.06 201.16,-44.54"/>
<polygon fill="#1414ce" stroke="#1414ce" points="204.12,-46.41 206.76,-36.15 198.3,-42.52 204.12,-46.41"/>
</a>
</g>
</g>
<!-- 15&#45;&gt;14 -->
<g id="edge30" class="edge">
<title>15&#45;&gt;14</title>
<g id="a_edge30"><a xlink:title="include">
<path fill="none" stroke="#1414ce" d="M1057.9,-224.96C1006.03,-215.11 916.38,-197.58 840,-180 830.6,-177.84 820.5,-175.33 811.09,-172.91"/>
<polygon fill="#1414ce" stroke="#1414ce" points="811.78,-169.47 801.22,-170.35 810.02,-176.25 811.78,-169.47"/>
</a>
</g>
</g>
<!-- 15&#45;&gt;10 -->
<g id="edge31" class="edge">
<title>15&#45;&gt;10</title>
<g id="a_edge31"><a xlink:title="include">
<path fill="none" stroke="#1414ce" d="M1126.81,-215.87C1165.29,-190.34 1237.76,-142.25 1280.67,-113.78"/>
<polygon fill="#1414ce" stroke="#1414ce" points="1282.7,-116.63 1289.1,-108.19 1278.83,-110.8 1282.7,-116.63"/>
</a>
</g>
</g>
<!-- 16 -->
<g id="node20" class="node">
<title>16</title>
<g id="a_node20"><a xlink:title="utils.h">
<polygon fill="#ffffff" stroke="black" points="1158,-180 1096,-180 1096,-144 1158,-144 1158,-180"/>
<text text-anchor="middle" x="1127" y="-158.3" font-family="Times,serif" font-size="14.00">utils.h</text>
</a>
</g>
</g>
<!-- 15&#45;&gt;16 -->
<g id="edge32" class="edge">
<title>15&#45;&gt;16</title>
<g id="a_edge32"><a xlink:title="include">
<path fill="none" stroke="#1414ce" d="M1107.43,-215.7C1110.36,-207.81 1113.89,-198.3 1117.14,-189.55"/>
<polygon fill="#1414ce" stroke="#1414ce" points="1120.45,-190.7 1120.65,-180.1 1113.88,-188.26 1120.45,-190.7"/>
</a>
</g>
</g>
<!-- 15&#45;&gt;2 -->
<g id="edge29" class="edge">
<title>15&#45;&gt;2</title>
<g id="a_edge29"><a xlink:title="include">
<path fill="none" stroke="#1414ce" d="M1057.67,-217.51C1001.3,-197.87 899.42,-164.15 810,-144 702,-119.66 573.11,-103.76 502.9,-96.18"/>
<polygon fill="#1414ce" stroke="#1414ce" points="502.87,-92.66 492.56,-95.08 502.13,-99.62 502.87,-92.66"/>
</a>
</g>
</g>
<!-- 24 -->
<g id="node11" class="node">
<title>24</title>
<g id="a_node11"><a xlink:title="memory.h">
<polygon fill="#ffffff" stroke="black" points="1324,-252 1238,-252 1238,-216 1324,-216 1324,-252"/>
<text text-anchor="middle" x="1281" y="-230.3" font-family="Times,serif" font-size="14.00">memory.h</text>
</a>
</g>
</g>
<!-- 24&#45;&gt;9 -->
<g id="edge35" class="edge">
<title>24&#45;&gt;9</title>
<g id="a_edge35"><a xlink:title="include">
<path fill="none" stroke="#1414ce" d="M1301.76,-215.7C1312.24,-206.97 1325.11,-196.24 1336.5,-186.75"/>
<polygon fill="#1414ce" stroke="#1414ce" points="1339.03,-189.19 1344.47,-180.1 1334.55,-183.82 1339.03,-189.19"/>
</a>
</g>
</g>
<!-- 24&#45;&gt;10 -->
<g id="edge36" class="edge">
<title>24&#45;&gt;10</title>
<g id="a_edge36"><a xlink:title="include">
<path fill="none" stroke="#1414ce" d="M1285.1,-215.87C1290.92,-191.56 1301.63,-146.82 1308.53,-118.01"/>
<polygon fill="#1414ce" stroke="#1414ce" points="1311.96,-118.73 1310.88,-108.19 1305.15,-117.1 1311.96,-118.73"/>
</a>
</g>
</g>
<!-- 24&#45;&gt;16 -->
<g id="edge37" class="edge">
<title>24&#45;&gt;16</title>
<g id="a_edge37"><a xlink:title="include">
<path fill="none" stroke="#1414ce" d="M1243.33,-215.88C1220.32,-205.42 1190.9,-192.05 1167.41,-181.37"/>
<polygon fill="#1414ce" stroke="#1414ce" points="1168.62,-178.07 1158.07,-177.12 1165.73,-184.45 1168.62,-178.07"/>
</a>
</g>
</g>
<!-- 24&#45;&gt;4 -->
<g id="edge33" class="edge">
<title>24&#45;&gt;4</title>
<g id="a_edge33"><a xlink:title="include">
<path fill="none" stroke="#1414ce" d="M1278.68,-215.92C1273.03,-181.83 1255.15,-105.71 1205,-72 1126.45,-19.21 449.68,-18.06 265.25,-18.74"/>
<polygon fill="#1414ce" stroke="#1414ce" points="265.06,-15.24 255.07,-18.78 265.09,-22.24 265.06,-15.24"/>
</a>
</g>
</g>
<!-- 24&#45;&gt;5 -->
<g id="edge34" class="edge">
<title>24&#45;&gt;5</title>
<g id="a_edge34"><a xlink:title="include">
<path fill="none" stroke="#1414ce" d="M1237.71,-226.85C1196.99,-219.78 1135.22,-205.7 1087,-180 1082.66,-177.69 1040.47,-140.8 1011.45,-115.24"/>
<polygon fill="#1414ce" stroke="#1414ce" points="1013.47,-112.36 1003.65,-108.38 1008.84,-117.61 1013.47,-112.36"/>
</a>
</g>
</g>
<!-- 29&#45;&gt;3 -->
<g id="edge40" class="edge">
<title>29&#45;&gt;3</title>
<g id="a_edge40"><a xlink:title="include">
<path fill="none" stroke="#1414ce" d="M375.21,-647.9C345.75,-626.64 299.15,-587.32 280,-540 274,-525.17 275.68,-519.41 280,-504 283.01,-493.27 317.61,-438.5 339.07,-405.12"/>
<polygon fill="#1414ce" stroke="#1414ce" points="342.27,-406.63 344.74,-396.33 336.38,-402.84 342.27,-406.63"/>
</a>
</g>
</g>
<!-- 29&#45;&gt;8 -->
<g id="edge41" class="edge">
<title>29&#45;&gt;8</title>
<g id="a_edge41"><a xlink:title="include">
<path fill="none" stroke="#1414ce" d="M359.45,-662.84C323.59,-658.58 273.5,-646.37 247,-612 217.22,-573.38 222.38,-512.88 228.74,-478.09"/>
<polygon fill="#1414ce" stroke="#1414ce" points="232.19,-478.66 230.71,-468.17 225.33,-477.29 232.19,-478.66"/>
</a>
</g>
</g>
<!-- 29&#45;&gt;30 -->
<g id="edge42" class="edge">
<title>29&#45;&gt;30</title>
<g id="a_edge42"><a xlink:title="include">
<path fill="none" stroke="#1414ce" d="M388.36,-647.76C381.74,-637.81 374.16,-624.77 370,-612 363.47,-591.97 361.34,-568.19 360.77,-550.25"/>
<polygon fill="#1414ce" stroke="#1414ce" points="364.27,-550.11 360.6,-540.17 357.27,-550.23 364.27,-550.11"/>
</a>
</g>
</g>
<!-- 29&#45;&gt;6 -->
<g id="edge43" class="edge">
<title>29&#45;&gt;6</title>
<g id="a_edge43"><a xlink:title="include">
<path fill="none" stroke="#1414ce" d="M442.66,-652.49C481.8,-640.73 540.49,-623.09 582.54,-610.46"/>
<polygon fill="#1414ce" stroke="#1414ce" points="583.74,-613.75 592.31,-607.52 581.73,-607.05 583.74,-613.75"/>
</a>
</g>
</g>
<!-- 29&#45;&gt;28 -->
<g id="edge44" class="edge">
<title>29&#45;&gt;28</title>
<g id="a_edge44"><a xlink:title="include">
<path fill="none" stroke="#1414ce" d="M442.75,-660.67C519.05,-652.57 686.06,-633.92 826,-612 827.28,-611.8 828.57,-611.59 829.87,-611.38"/>
<polygon fill="#1414ce" stroke="#1414ce" points="830.66,-614.8 839.95,-609.71 829.51,-607.9 830.66,-614.8"/>
</a>
</g>
</g>
<!-- 29&#45;&gt;7 -->
<g id="edge45" class="edge">
<title>29&#45;&gt;7</title>
<g id="a_edge45"><a xlink:title="include">
<path fill="none" stroke="#1414ce" d="M442.78,-658.95C472.53,-652.42 511.16,-639.07 534,-612 548.44,-594.88 552.72,-569.44 553.66,-550.13"/>
<polygon fill="#1414ce" stroke="#1414ce" points="557.15,-550.2 553.88,-540.13 550.16,-550.05 557.15,-550.2"/>
</a>
</g>
</g>
<!-- 29&#45;&gt;21 -->
<g id="edge46" class="edge">
<title>29&#45;&gt;21</title>
<g id="a_edge46"><a xlink:title="include">
<path fill="none" stroke="#1414ce" d="M442.91,-662.44C499.65,-657.81 603.21,-645.22 685,-612 770.43,-577.3 857.2,-510.12 899.87,-474.49"/>
<polygon fill="#1414ce" stroke="#1414ce" points="902.16,-477.14 907.56,-468.02 897.65,-471.78 902.16,-477.14"/>
</a>
</g>
</g>
<!-- 31 -->
<g id="node21" class="node">
<title>31</title>
<g id="a_node21"><a xlink:title="valueshashtable.h">
<polygon fill="#ffffff" stroke="black" points="525,-612 379,-612 379,-576 525,-576 525,-612"/>
<text text-anchor="middle" x="452" y="-590.3" font-family="Times,serif" font-size="14.00">valueshashtable.h</text>
</a>
</g>
</g>
<!-- 29&#45;&gt;31 -->
<g id="edge47" class="edge">
<title>29&#45;&gt;31</title>
<g id="a_edge47"><a xlink:title="include">
<path fill="none" stroke="#1414ce" d="M413.61,-647.7C419.6,-639.47 426.88,-629.48 433.48,-620.42"/>
<polygon fill="#1414ce" stroke="#1414ce" points="436.48,-622.25 439.54,-612.1 430.82,-618.13 436.48,-622.25"/>
</a>
</g>
</g>
<!-- 29&#45;&gt;2 -->
<g id="edge38" class="edge">
<title>29&#45;&gt;2</title>
<g id="a_edge38"><a xlink:title="include">
<path fill="none" stroke="#1414ce" d="M359.46,-662.64C320.39,-658.29 262.58,-646.08 226,-612 164.79,-554.98 152.24,-513.52 171,-432 202.92,-293.3 205.91,-239.98 311,-144 335.55,-121.58 370.52,-108.33 399.37,-100.69"/>
<polygon fill="#1414ce" stroke="#1414ce" points="400.43,-104.03 409.29,-98.21 398.74,-97.24 400.43,-104.03"/>
</a>
</g>
</g>
<!-- 29&#45;&gt;4 -->
<g id="edge39" class="edge">
<title>29&#45;&gt;4</title>
<g id="a_edge39"><a xlink:title="include">
<path fill="none" stroke="#1414ce" d="M359.22,-659.3C256.51,-644.11 0,-598.61 0,-523 0,-523 0,-523 0,-161 0,-79.28 108.69,-42.22 172.93,-27.46"/>
<polygon fill="#1414ce" stroke="#1414ce" points="173.82,-30.85 182.84,-25.28 172.32,-24.01 173.82,-30.85"/>
</a>
</g>
</g>
<!-- 25 -->
<g id="node13" class="node">
<title>25</title>
<g id="a_node13"><a xlink:title="refc_binary.h">
<polygon fill="#ffffff" stroke="black" points="872,-396 764,-396 764,-360 872,-360 872,-396"/>
<text text-anchor="middle" x="818" y="-374.3" font-family="Times,serif" font-size="14.00">refc_binary.h</text>
</a>
</g>
</g>
<!-- 25&#45;&gt;14 -->
<g id="edge50" class="edge">
<title>25&#45;&gt;14</title>
<g id="a_edge50"><a xlink:title="include">
<path fill="none" stroke="#1414ce" d="M814.47,-359.85C806.85,-322.75 788.76,-234.81 779.57,-190.1"/>
<polygon fill="#1414ce" stroke="#1414ce" points="782.99,-189.32 777.54,-180.23 776.13,-190.73 782.99,-189.32"/>
</a>
</g>
</g>
<!-- 26 -->
<g id="node14" class="node">
<title>26</title>
<g id="a_node14"><a xlink:title="resources.h">
<polygon fill="#ffffff" stroke="black" points="1002,-324 902,-324 902,-288 1002,-288 1002,-324"/>
<text text-anchor="middle" x="952" y="-302.3" font-family="Times,serif" font-size="14.00">resources.h</text>
</a>
</g>
</g>
<!-- 25&#45;&gt;26 -->
<g id="edge51" class="edge">
<title>25&#45;&gt;26</title>
<g id="a_edge51"><a xlink:title="include">
<path fill="none" stroke="#1414ce" d="M850.78,-359.88C868.63,-350.55 890.9,-338.92 910,-328.94"/>
<polygon fill="#1414ce" stroke="#1414ce" points="911.85,-331.92 919.09,-324.19 908.61,-325.72 911.85,-331.92"/>
</a>
</g>
</g>
<!-- 25&#45;&gt;2 -->
<g id="edge48" class="edge">
<title>25&#45;&gt;2</title>
<g id="a_edge48"><a xlink:title="include">
<path fill="none" stroke="#1414ce" d="M805.47,-359.92C773.73,-317.73 685.76,-207.44 589,-144 562.53,-126.64 529.52,-113.71 502.43,-104.96"/>
<polygon fill="#1414ce" stroke="#1414ce" points="503.33,-101.57 492.74,-101.93 501.24,-108.26 503.33,-101.57"/>
</a>
</g>
</g>
<!-- 25&#45;&gt;5 -->
<g id="edge49" class="edge">
<title>25&#45;&gt;5</title>
<g id="a_edge49"><a xlink:title="include">
<path fill="none" stroke="#1414ce" d="M829.37,-359.84C845.07,-335.96 874.05,-291.22 897,-252 924.34,-205.28 953.83,-149.44 970.49,-117.31"/>
<polygon fill="#1414ce" stroke="#1414ce" points="973.75,-118.62 975.23,-108.13 967.53,-115.41 973.75,-118.62"/>
</a>
</g>
</g>
<!-- 26&#45;&gt;9 -->
<g id="edge53" class="edge">
<title>26&#45;&gt;9</title>
<g id="a_edge53"><a xlink:title="include">
<path fill="none" stroke="#1414ce" d="M1002.2,-304.3C1093.8,-302.02 1283.23,-292.41 1333,-252 1351.48,-237 1359.29,-210.45 1362.59,-190.24"/>
<polygon fill="#1414ce" stroke="#1414ce" points="1366.1,-190.45 1363.97,-180.07 1359.16,-189.51 1366.1,-190.45"/>
</a>
</g>
</g>
<!-- 26&#45;&gt;14 -->
<g id="edge54" class="edge">
<title>26&#45;&gt;14</title>
<g id="a_edge54"><a xlink:title="include">
<path fill="none" stroke="#1414ce" d="M945.16,-287.75C936.57,-268.04 920.1,-235.94 897,-216 872.03,-194.45 836.96,-180.5 810.65,-172.36"/>
<polygon fill="#1414ce" stroke="#1414ce" points="811.62,-168.99 801.04,-169.51 809.63,-175.71 811.62,-168.99"/>
</a>
</g>
</g>
<!-- 26&#45;&gt;24 -->
<g id="edge55" class="edge">
<title>26&#45;&gt;24</title>
<g id="a_edge55"><a xlink:title="include">
<path fill="none" stroke="#1414ce" d="M1002.33,-294.29C1063.28,-281.32 1165.52,-259.57 1227.76,-246.33"/>
<polygon fill="#1414ce" stroke="#1414ce" points="1228.71,-249.7 1237.77,-244.2 1227.26,-242.86 1228.71,-249.7"/>
</a>
</g>
</g>
<!-- 26&#45;&gt;20 -->
<g id="edge56" class="edge">
<title>26&#45;&gt;20</title>
<g id="a_edge56"><a xlink:title="include">
<path fill="none" stroke="#1414ce" d="M925.82,-287.88C911.96,-278.81 894.76,-267.55 879.79,-257.76"/>
<polygon fill="#1414ce" stroke="#1414ce" points="881.56,-254.74 871.28,-252.19 877.73,-260.59 881.56,-254.74"/>
</a>
</g>
</g>
<!-- 26&#45;&gt;5 -->
<g id="edge52" class="edge">
<title>26&#45;&gt;5</title>
<g id="a_edge52"><a xlink:title="include">
<path fill="none" stroke="#1414ce" d="M954.56,-287.85C960.1,-250.83 973.21,-163.18 979.9,-118.39"/>
<polygon fill="#1414ce" stroke="#1414ce" points="983.41,-118.64 981.42,-108.23 976.48,-117.6 983.41,-118.64"/>
</a>
</g>
</g>
<!-- 19&#45;&gt;2 -->
<g id="edge57" class="edge">
<title>19&#45;&gt;2</title>
<g id="a_edge57"><a xlink:title="include">
<path fill="none" stroke="#1414ce" d="M483.37,-143.7C478.37,-135.56 472.31,-125.69 466.79,-116.7"/>
<polygon fill="#1414ce" stroke="#1414ce" points="469.72,-114.79 461.51,-108.1 463.76,-118.46 469.72,-114.79"/>
</a>
</g>
</g>
<!-- 20&#45;&gt;14 -->
<g id="edge59" class="edge">
<title>20&#45;&gt;14</title>
<g id="a_edge59"><a xlink:title="include">
<path fill="none" stroke="#1414ce" d="M827.45,-215.7C818.77,-207.14 808.14,-196.66 798.65,-187.3"/>
<polygon fill="#1414ce" stroke="#1414ce" points="800.93,-184.63 791.35,-180.1 796.01,-189.62 800.93,-184.63"/>
</a>
</g>
</g>
<!-- 20&#45;&gt;19 -->
<g id="edge60" class="edge">
<title>20&#45;&gt;19</title>
<g id="a_edge60"><a xlink:title="include">
<path fill="none" stroke="#1414ce" d="M802.31,-224.49C733.98,-210.86 600.97,-184.33 534.23,-171.02"/>
<polygon fill="#1414ce" stroke="#1414ce" points="534.6,-167.53 524.11,-169 533.23,-174.39 534.6,-167.53"/>
</a>
</g>
</g>
<!-- 18 -->
<g id="node28" class="node">
<title>18</title>
<g id="a_node28"><a xlink:title="stdio.h">
<polygon fill="#ffffff" stroke="black" points="1195.5,-108 1130.5,-108 1130.5,-72 1195.5,-72 1195.5,-108"/>
<text text-anchor="middle" x="1163" y="-86.3" font-family="Times,serif" font-size="14.00">stdio.h</text>
</a>
</g>
</g>
<!-- 20&#45;&gt;18 -->
<g id="edge58" class="edge">
<title>20&#45;&gt;18</title>
<g id="a_edge58"><a xlink:title="include">
<path fill="none" stroke="#1414ce" d="M883.36,-215.87C943.26,-189.12 1058.57,-137.63 1120.77,-109.86"/>
<polygon fill="#1414ce" stroke="#1414ce" points="1122.57,-112.89 1130.28,-105.61 1119.72,-106.49 1122.57,-112.89"/>
</a>
</g>
</g>
<!-- 21&#45;&gt;24 -->
<g id="edge67" class="edge">
<title>21&#45;&gt;24</title>
<g id="a_edge67"><a xlink:title="include">
<path fill="none" stroke="#1414ce" d="M959.77,-447.66C1030.58,-444.11 1194.77,-432.11 1235,-396 1273.04,-361.86 1280.52,-298.68 1281.48,-262.45"/>
<polygon fill="#1414ce" stroke="#1414ce" points="1284.99,-262.17 1281.6,-252.13 1277.99,-262.09 1284.99,-262.17"/>
</a>
</g>
</g>
<!-- 21&#45;&gt;25 -->
<g id="edge68" class="edge">
<title>21&#45;&gt;25</title>
<g id="a_edge68"><a xlink:title="include">
<path fill="none" stroke="#1414ce" d="M900.34,-431.88C886.22,-422.81 868.69,-411.55 853.44,-401.76"/>
<polygon fill="#1414ce" stroke="#1414ce" points="855.07,-398.65 844.77,-396.19 851.29,-404.54 855.07,-398.65"/>
</a>
</g>
</g>
<!-- 21&#45;&gt;10 -->
<g id="edge70" class="edge">
<title>21&#45;&gt;10</title>
<g id="a_edge70"><a xlink:title="include">
<path fill="none" stroke="#1414ce" d="M959.53,-447.1C1033.52,-442.26 1211.86,-427.57 1262,-396 1360.69,-333.86 1376.32,-291.35 1411,-180 1415.76,-164.72 1419.13,-157.78 1411,-144 1403.14,-130.69 1390.61,-120.48 1377.16,-112.76"/>
<polygon fill="#1414ce" stroke="#1414ce" points="1378.7,-109.62 1368.22,-108.04 1375.43,-115.81 1378.7,-109.62"/>
</a>
</g>
</g>
<!-- 21&#45;&gt;16 -->
<g id="edge69" class="edge">
<title>21&#45;&gt;16</title>
<g id="a_edge69"><a xlink:title="include">
<path fill="none" stroke="#1414ce" d="M959.75,-446.6C1018.66,-441.53 1138.76,-427.51 1164,-396 1212.75,-335.14 1168.53,-235.94 1142.65,-189.08"/>
<polygon fill="#1414ce" stroke="#1414ce" points="1145.58,-187.14 1137.6,-180.17 1139.49,-190.6 1145.58,-187.14"/>
</a>
</g>
</g>
<!-- 21&#45;&gt;2 -->
<g id="edge62" class="edge">
<title>21&#45;&gt;2</title>
<g id="a_edge62"><a xlink:title="include">
<path fill="none" stroke="#1414ce" d="M894.24,-449.77C844.25,-449.33 748,-441.97 684,-396 577.95,-319.83 623.74,-237.88 533,-144 521.6,-132.2 507.09,-121.75 493.46,-113.31"/>
<polygon fill="#1414ce" stroke="#1414ce" points="495.06,-110.18 484.68,-108.06 491.47,-116.19 495.06,-110.18"/>
</a>
</g>
</g>
<!-- 21&#45;&gt;4 -->
<g id="edge63" class="edge">
<title>21&#45;&gt;4</title>
<g id="a_edge63"><a xlink:title="include">
<path fill="none" stroke="#1414ce" d="M894.3,-444.97C857.64,-439.16 797.74,-425.67 755,-396 604.92,-291.81 659.2,-165.11 502,-72 427.55,-27.9 324.39,-19.21 265.38,-18.2"/>
<polygon fill="#1414ce" stroke="#1414ce" points="265.28,-14.7 255.25,-18.1 265.21,-21.7 265.28,-14.7"/>
</a>
</g>
</g>
<!-- 21&#45;&gt;18 -->
<g id="edge64" class="edge">
<title>21&#45;&gt;18</title>
<g id="a_edge64"><a xlink:title="include">
<path fill="none" stroke="#1414ce" d="M959.82,-446.86C1022.4,-442.06 1155.32,-428.26 1186,-396 1259.16,-319.07 1204.02,-176.27 1176.35,-117.41"/>
<polygon fill="#1414ce" stroke="#1414ce" points="1179.35,-115.56 1171.86,-108.07 1173.04,-118.6 1179.35,-115.56"/>
</a>
</g>
</g>
<!-- 21&#45;&gt;5 -->
<g id="edge65" class="edge">
<title>21&#45;&gt;5</title>
<g id="a_edge65"><a xlink:title="include">
<path fill="none" stroke="#1414ce" d="M929.67,-431.72C933.34,-412.57 941.46,-381.55 958,-360 975.34,-337.41 997.67,-349.16 1011,-324 1046.79,-256.42 1015.54,-162.6 996.35,-117.41"/>
<polygon fill="#1414ce" stroke="#1414ce" points="999.46,-115.78 992.24,-108.02 993.04,-118.59 999.46,-115.78"/>
</a>
</g>
</g>
<!-- 23 -->
<g id="node30" class="node">
<title>23</title>
<g id="a_node30"><a xlink:title="string.h">
<polygon fill="#ffffff" stroke="black" points="1039.5,-396 966.5,-396 966.5,-360 1039.5,-360 1039.5,-396"/>
<text text-anchor="middle" x="1003" y="-374.3" font-family="Times,serif" font-size="14.00">string.h</text>
</a>
</g>
</g>
<!-- 21&#45;&gt;23 -->
<g id="edge66" class="edge">
<title>21&#45;&gt;23</title>
<g id="a_edge66"><a xlink:title="include">
<path fill="none" stroke="#1414ce" d="M945.79,-431.7C955.17,-423.05 966.68,-412.45 976.91,-403.03"/>
<polygon fill="#1414ce" stroke="#1414ce" points="979.45,-405.45 984.43,-396.1 974.7,-400.3 979.45,-405.45"/>
</a>
</g>
</g>
<!-- 22 -->
<g id="node31" class="node">
<title>22</title>
<g id="a_node31"><a xlink:title="sys/types.h">
<polygon fill="#ffffff" stroke="black" points="1154.5,-396 1057.5,-396 1057.5,-360 1154.5,-360 1154.5,-396"/>
<text text-anchor="middle" x="1106" y="-374.3" font-family="Times,serif" font-size="14.00">sys/types.h</text>
</a>
</g>
</g>
<!-- 21&#45;&gt;22 -->
<g id="edge61" class="edge">
<title>21&#45;&gt;22</title>
<g id="a_edge61"><a xlink:title="include">
<path fill="none" stroke="#1414ce" d="M959.83,-436.16C985.79,-426.01 1022.55,-411.64 1052.71,-399.84"/>
<polygon fill="#1414ce" stroke="#1414ce" points="1054.21,-403.01 1062.24,-396.11 1051.66,-396.49 1054.21,-403.01"/>
</a>
</g>
</g>
<!-- 11 -->
<g id="node22" class="node">
<title>11</title>
<g id="a_node22"><a xlink:title="assert.h">
<polygon fill="#ffffff" stroke="black" points="1443,-36 1369,-36 1369,0 1443,0 1443,-36"/>
<text text-anchor="middle" x="1406" y="-14.3" font-family="Times,serif" font-size="14.00">assert.h</text>
</a>
</g>
</g>
<!-- 10&#45;&gt;11 -->
<g id="edge71" class="edge">
<title>10&#45;&gt;11</title>
<g id="a_edge71"><a xlink:title="include">
<path fill="none" stroke="#1414ce" d="M1337.49,-71.7C1348.96,-62.88 1363.06,-52.03 1375.48,-42.47"/>
<polygon fill="#1414ce" stroke="#1414ce" points="1377.97,-44.98 1383.76,-36.1 1373.7,-39.43 1377.97,-44.98"/>
</a>
</g>
</g>
<!-- 13 -->
<g id="node23" class="node">
<title>13</title>
<g id="a_node23"><a xlink:title="inttypes.h">
<polygon fill="#ffffff" stroke="black" points="1261.5,-36 1172.5,-36 1172.5,0 1261.5,0 1261.5,-36"/>
<text text-anchor="middle" x="1217" y="-14.3" font-family="Times,serif" font-size="14.00">inttypes.h</text>
</a>
</g>
</g>
<!-- 10&#45;&gt;13 -->
<g id="edge73" class="edge">
<title>10&#45;&gt;13</title>
<g id="a_edge73"><a xlink:title="include">
<path fill="none" stroke="#1414ce" d="M1291.03,-71.88C1278.45,-62.89 1262.87,-51.76 1249.25,-42.03"/>
<polygon fill="#1414ce" stroke="#1414ce" points="1251.24,-39.15 1241.07,-36.19 1247.17,-44.85 1251.24,-39.15"/>
</a>
</g>
</g>
<!-- 12 -->
<g id="node24" class="node">
<title>12</title>
<g id="a_node24"><a xlink:title="limits.h">
<polygon fill="#ffffff" stroke="black" points="1350.5,-36 1279.5,-36 1279.5,0 1350.5,0 1350.5,-36"/>
<text text-anchor="middle" x="1315" y="-14.3" font-family="Times,serif" font-size="14.00">limits.h</text>
</a>
</g>
</g>
<!-- 10&#45;&gt;12 -->
<g id="edge72" class="edge">
<title>10&#45;&gt;12</title>
<g id="a_edge72"><a xlink:title="include">
<path fill="none" stroke="#1414ce" d="M1315,-71.7C1315,-63.98 1315,-54.71 1315,-46.11"/>
<polygon fill="#1414ce" stroke="#1414ce" points="1318.5,-46.1 1315,-36.1 1311.5,-46.1 1318.5,-46.1"/>
</a>
</g>
</g>
<!-- 10&#45;&gt;4 -->
<g id="edge74" class="edge">
<title>10&#45;&gt;4</title>
<g id="a_edge74"><a xlink:title="include">
<path fill="none" stroke="#1414ce" d="M1252.12,-74.23C1247.36,-73.38 1242.61,-72.62 1238,-72 865.51,-21.55 410.44,-18.32 265.59,-18.69"/>
<polygon fill="#1414ce" stroke="#1414ce" points="265.29,-15.19 255.3,-18.73 265.31,-22.19 265.29,-15.19"/>
</a>
</g>
</g>
<!-- 27&#45;&gt;14 -->
<g id="edge77" class="edge">
<title>27&#45;&gt;14</title>
<g id="a_edge77"><a xlink:title="include">
<path fill="none" stroke="#1414ce" d="M442.03,-223.99C519.26,-209.8 667.56,-182.56 736.75,-169.84"/>
<polygon fill="#1414ce" stroke="#1414ce" points="737.55,-173.25 746.76,-168.01 736.29,-166.37 737.55,-173.25"/>
</a>
</g>
</g>
<!-- 27&#45;&gt;2 -->
<g id="edge75" class="edge">
<title>27&#45;&gt;2</title>
<g id="a_edge75"><a xlink:title="include">
<path fill="none" stroke="#1414ce" d="M400,-215.87C409.97,-191.46 428.36,-146.43 440.12,-117.64"/>
<polygon fill="#1414ce" stroke="#1414ce" points="443.44,-118.77 443.98,-108.19 436.96,-116.12 443.44,-118.77"/>
</a>
</g>
</g>
<!-- 27&#45;&gt;4 -->
<g id="edge76" class="edge">
<title>27&#45;&gt;4</title>
<g id="a_edge76"><a xlink:title="include">
<path fill="none" stroke="#1414ce" d="M379.05,-215.85C348.45,-178.21 275.27,-88.2 239.45,-44.15"/>
<polygon fill="#1414ce" stroke="#1414ce" points="242.04,-41.78 233.01,-36.23 236.6,-46.2 242.04,-41.78"/>
</a>
</g>
</g>
<!-- 17 -->
<g id="node26" class="node">
<title>17</title>
<g id="a_node26"><a xlink:title="stddef.h">
<polygon fill="#ffffff" stroke="black" points="1112,-108 1038,-108 1038,-72 1112,-72 1112,-108"/>
<text text-anchor="middle" x="1075" y="-86.3" font-family="Times,serif" font-size="14.00">stddef.h</text>
</a>
</g>
</g>
<!-- 16&#45;&gt;17 -->
<g id="edge78" class="edge">
<title>16&#45;&gt;17</title>
<g id="a_edge78"><a xlink:title="include">
<path fill="none" stroke="#1414ce" d="M1114.15,-143.7C1107.97,-135.39 1100.46,-125.28 1093.68,-116.14"/>
<polygon fill="#1414ce" stroke="#1414ce" points="1096.48,-114.04 1087.71,-108.1 1090.86,-118.22 1096.48,-114.04"/>
</a>
</g>
</g>
<!-- 16&#45;&gt;18 -->
<g id="edge79" class="edge">
<title>16&#45;&gt;18</title>
<g id="a_edge79"><a xlink:title="include">
<path fill="none" stroke="#1414ce" d="M1135.9,-143.7C1140,-135.73 1144.95,-126.1 1149.49,-117.26"/>
<polygon fill="#1414ce" stroke="#1414ce" points="1152.74,-118.6 1154.2,-108.1 1146.52,-115.4 1152.74,-118.6"/>
</a>
</g>
</g>
<!-- 16&#45;&gt;5 -->
<g id="edge80" class="edge">
<title>16&#45;&gt;5</title>
<g id="a_edge80"><a xlink:title="include">
<path fill="none" stroke="#1414ce" d="M1095.97,-145.81C1076.06,-136.07 1049.91,-123.26 1027.89,-112.48"/>
<polygon fill="#1414ce" stroke="#1414ce" points="1029.25,-109.25 1018.73,-108 1026.17,-115.54 1029.25,-109.25"/>
</a>
</g>
</g>
</g>
</svg>
