<?xml version="1.0" encoding="UTF-8" standalone="no"?>
<!DOCTYPE svg PUBLIC "-//W3C//DTD SVG 1.1//EN"
 "http://www.w3.org/Graphics/SVG/1.1/DTD/svg11.dtd">
<!-- Generated by graphviz version 2.43.0 (0)
 -->
<!-- Title: %3 Pages: 1 -->
<svg width="605pt" height="260pt"
 viewBox="0.00 0.00 605.11 260.00" xmlns="http://www.w3.org/2000/svg" xmlns:xlink="http://www.w3.org/1999/xlink">
<g id="graph0" class="graph" transform="scale(1 1) rotate(0) translate(4 256)">
<title>%3</title>
<polygon fill="transparent" stroke="transparent" points="-4,4 -4,-256 601.11,-256 601.11,4 -4,4"/>
<!-- 4 -->
<g id="node1" class="node">
<title>4</title>
<g id="a_node1"><a xlink:title="atom.h">
<polygon fill="#ffffff" stroke="black" points="113.61,-108 47.61,-108 47.61,-72 113.61,-72 113.61,-108"/>
<text text-anchor="middle" x="80.61" y="-86.3" font-family="Times,serif" font-size="14.00">atom.h</text>
</a>
</g>
</g>
<!-- 5 -->
<g id="node9" class="node">
<title>5</title>
<g id="a_node9"><a xlink:title="stdint.h">
<polygon fill="#ffffff" stroke="black" points="116.61,-36 44.61,-36 44.61,0 116.61,0 116.61,-36"/>
<text text-anchor="middle" x="80.61" y="-14.3" font-family="Times,serif" font-size="14.00">stdint.h</text>
</a>
</g>
</g>
<!-- 4&#45;&gt;5 -->
<g id="edge1" class="edge">
<title>4&#45;&gt;5</title>
<g id="a_edge1"><a xlink:title="include">
<path fill="none" stroke="#1414ce" d="M80.61,-71.7C80.61,-63.98 80.61,-54.71 80.61,-46.11"/>
<polygon fill="#1414ce" stroke="#1414ce" points="84.11,-46.1 80.61,-36.1 77.11,-46.1 84.11,-46.1"/>
</a>
</g>
</g>
<!-- 6 -->
<g id="node11" class="node">
<title>6</title>
<g id="a_node11"><a xlink:title="stdlib.h">
<polygon fill="#ffffff" stroke="black" points="493.11,-36 422.11,-36 422.11,0 493.11,0 493.11,-36"/>
<text text-anchor="middle" x="457.61" y="-14.3" font-family="Times,serif" font-size="14.00">stdlib.h</text>
</a>
</g>
</g>
<!-- 4&#45;&gt;6 -->
<g id="edge2" class="edge">
<title>4&#45;&gt;6</title>
<g id="a_edge2"><a xlink:title="include">
<path fill="none" stroke="#1414ce" d="M113.84,-74.75C116.78,-73.74 119.73,-72.8 122.61,-72 223.65,-43.95 346.23,-29.28 411.49,-22.95"/>
<polygon fill="#1414ce" stroke="#1414ce" points="412.21,-26.39 421.84,-21.96 411.55,-19.42 412.21,-26.39"/>
</a>
</g>
</g>
<!-- 1 -->
<g id="node2" class="node">
<title>1</title>
<g id="a_node2"><a xlink:title="/__w/AtomVM/AtomVM/src/libAtomVM/atom_table.c">
<polygon fill="#bfbfbf" stroke="black" points="418.61,-252 34.61,-252 34.61,-216 418.61,-216 418.61,-252"/>
<text text-anchor="middle" x="226.61" y="-230.3" font-family="Times,serif" font-size="14.00">/__w/AtomVM/AtomVM/src/libAtomVM/atom_table.c</text>
</a>
</g>
</g>
<!-- 1&#45;&gt;4 -->
<g id="edge8" class="edge">
<title>1&#45;&gt;4</title>
<g id="a_edge8"><a xlink:title="include">
<path fill="none" stroke="#1414ce" d="M111.91,-215.96C71.79,-207.47 33.71,-195.62 21.61,-180 11.82,-167.35 15.09,-158.61 21.61,-144 26.69,-132.6 35.57,-122.63 44.92,-114.51"/>
<polygon fill="#1414ce" stroke="#1414ce" points="47.24,-117.14 52.81,-108.13 42.83,-111.69 47.24,-117.14"/>
</a>
</g>
</g>
<!-- 2 -->
<g id="node3" class="node">
<title>2</title>
<g id="a_node3"><a xlink:title="atom_table.h">
<polygon fill="#ffffff" stroke="black" points="140.11,-180 31.11,-180 31.11,-144 140.11,-144 140.11,-180"/>
<text text-anchor="middle" x="85.61" y="-158.3" font-family="Times,serif" font-size="14.00">atom_table.h</text>
</a>
</g>
</g>
<!-- 1&#45;&gt;2 -->
<g id="edge3" class="edge">
<title>1&#45;&gt;2</title>
<g id="a_edge3"><a xlink:title="include">
<path fill="none" stroke="#1414ce" d="M192.12,-215.88C173.17,-206.47 149.48,-194.71 129.25,-184.67"/>
<polygon fill="#1414ce" stroke="#1414ce" points="130.75,-181.5 120.24,-180.19 127.64,-187.77 130.75,-181.5"/>
</a>
</g>
</g>
<!-- 8 -->
<g id="node4" class="node">
<title>8</title>
<g id="a_node4"><a xlink:title="smp.h">
<polygon fill="#ffffff" stroke="black" points="256.61,-180 196.61,-180 196.61,-144 256.61,-144 256.61,-180"/>
<text text-anchor="middle" x="226.61" y="-158.3" font-family="Times,serif" font-size="14.00">smp.h</text>
</a>
</g>
</g>
<!-- 1&#45;&gt;8 -->
<g id="edge9" class="edge">
<title>1&#45;&gt;8</title>
<g id="a_edge9"><a xlink:title="include">
<path fill="none" stroke="#1414ce" d="M226.61,-215.7C226.61,-207.98 226.61,-198.71 226.61,-190.11"/>
<polygon fill="#1414ce" stroke="#1414ce" points="230.11,-190.1 226.61,-180.1 223.11,-190.1 230.11,-190.1"/>
</a>
</g>
</g>
<!-- 9 -->
<g id="node5" class="node">
<title>9</title>
<g id="a_node5"><a xlink:title="unicode.h">
<polygon fill="#ffffff" stroke="black" points="360.61,-180 274.61,-180 274.61,-144 360.61,-144 360.61,-180"/>
<text text-anchor="middle" x="317.61" y="-158.3" font-family="Times,serif" font-size="14.00">unicode.h</text>
</a>
</g>
</g>
<!-- 1&#45;&gt;9 -->
<g id="edge10" class="edge">
<title>1&#45;&gt;9</title>
<g id="a_edge10"><a xlink:title="include">
<path fill="none" stroke="#1414ce" d="M249.11,-215.7C260.57,-206.88 274.67,-196.03 287.09,-186.47"/>
<polygon fill="#1414ce" stroke="#1414ce" points="289.58,-188.98 295.38,-180.1 285.32,-183.43 289.58,-188.98"/>
</a>
</g>
</g>
<!-- 11 -->
<g id="node6" class="node">
<title>11</title>
<g id="a_node6"><a xlink:title="utils.h">
<polygon fill="#ffffff" stroke="black" points="440.61,-180 378.61,-180 378.61,-144 440.61,-144 440.61,-180"/>
<text text-anchor="middle" x="409.61" y="-158.3" font-family="Times,serif" font-size="14.00">utils.h</text>
</a>
</g>
</g>
<!-- 1&#45;&gt;11 -->
<g id="edge11" class="edge">
<title>1&#45;&gt;11</title>
<g id="a_edge11"><a xlink:title="include">
<path fill="none" stroke="#1414ce" d="M274.49,-215.89C300.19,-206.56 332.58,-194.57 368.91,-180.21"/>
<polygon fill="#1414ce" stroke="#1414ce" points="370.23,-183.45 378.23,-176.5 367.64,-176.94 370.23,-183.45"/>
</a>
</g>
</g>
<!-- 3 -->
<g id="node7" class="node">
<title>3</title>
<g id="a_node7"><a xlink:title="stdbool.h">
<polygon fill="#ffffff" stroke="black" points="215.11,-108 132.11,-108 132.11,-72 215.11,-72 215.11,-108"/>
<text text-anchor="middle" x="173.61" y="-86.3" font-family="Times,serif" font-size="14.00">stdbool.h</text>
</a>
</g>
</g>
<!-- 1&#45;&gt;3 -->
<g id="edge4" class="edge">
<title>1&#45;&gt;3</title>
<g id="a_edge4"><a xlink:title="include">
<path fill="none" stroke="#1414ce" d="M210.55,-215.69C202.39,-205.92 193.06,-193.07 187.61,-180 179.39,-160.3 175.96,-136.32 174.54,-118.21"/>
<polygon fill="#1414ce" stroke="#1414ce" points="178.02,-117.81 173.91,-108.05 171.04,-118.25 178.02,-117.81"/>
</a>
</g>
</g>
<!-- 1&#45;&gt;5 -->
<g id="edge5" class="edge">
<title>1&#45;&gt;5</title>
<g id="a_edge5"><a xlink:title="include">
<path fill="none" stroke="#1414ce" d="M103.15,-215.96C62.28,-207.6 24.03,-195.85 11.61,-180 -21.55,-137.67 24.02,-77 55.38,-43.53"/>
<polygon fill="#1414ce" stroke="#1414ce" points="58.19,-45.66 62.6,-36.02 53.14,-40.8 58.19,-45.66"/>
</a>
</g>
</g>
<!-- 1&#45;&gt;6 -->
<g id="edge6" class="edge">
<title>1&#45;&gt;6</title>
<g id="a_edge6"><a xlink:title="include">
<path fill="none" stroke="#1414ce" d="M352.49,-215.95C395.2,-207.55 435.67,-195.76 449.61,-180 482.04,-143.33 473.89,-81.61 465.47,-46.19"/>
<polygon fill="#1414ce" stroke="#1414ce" points="468.76,-44.92 462.9,-36.1 461.98,-46.66 468.76,-44.92"/>
</a>
</g>
</g>
<!-- 7 -->
<g id="node12" class="node">
<title>7</title>
<g id="a_node12"><a xlink:title="string.h">
<polygon fill="#ffffff" stroke="black" points="597.11,-180 524.11,-180 524.11,-144 597.11,-144 597.11,-180"/>
<text text-anchor="middle" x="560.61" y="-158.3" font-family="Times,serif" font-size="14.00">string.h</text>
</a>
</g>
</g>
<!-- 1&#45;&gt;7 -->
<g id="edge7" class="edge">
<title>1&#45;&gt;7</title>
<g id="a_edge7"><a xlink:title="include">
<path fill="none" stroke="#1414ce" d="M336.91,-215.95C389.56,-206.89 453.24,-194.6 509.61,-180 511.08,-179.62 512.57,-179.22 514.06,-178.8"/>
<polygon fill="#1414ce" stroke="#1414ce" points="515.42,-182.05 524.02,-175.86 513.44,-175.34 515.42,-182.05"/>
</a>
</g>
</g>
<!-- 2&#45;&gt;4 -->
<g id="edge13" class="edge">
<title>2&#45;&gt;4</title>
<g id="a_edge13"><a xlink:title="include">
<path fill="none" stroke="#1414ce" d="M84.38,-143.7C83.82,-135.98 83.16,-126.71 82.55,-118.11"/>
<polygon fill="#1414ce" stroke="#1414ce" points="86.04,-117.83 81.83,-108.1 79.05,-118.33 86.04,-117.83"/>
</a>
</g>
</g>
<!-- 2&#45;&gt;3 -->
<g id="edge12" class="edge">
<title>2&#45;&gt;3</title>
<g id="a_edge12"><a xlink:title="include">
<path fill="none" stroke="#1414ce" d="M107.36,-143.7C118.45,-134.88 132.08,-124.03 144.1,-114.47"/>
<polygon fill="#1414ce" stroke="#1414ce" points="146.46,-117.07 152.11,-108.1 142.1,-111.59 146.46,-117.07"/>
</a>
</g>
</g>
<!-- 8&#45;&gt;3 -->
<g id="edge14" class="edge">
<title>8&#45;&gt;3</title>
<g id="a_edge14"><a xlink:title="include">
<path fill="none" stroke="#1414ce" d="M213.51,-143.7C207.22,-135.39 199.56,-125.28 192.65,-116.14"/>
<polygon fill="#1414ce" stroke="#1414ce" points="195.39,-113.96 186.56,-108.1 189.81,-118.19 195.39,-113.96"/>
</a>
</g>
</g>
<!-- 9&#45;&gt;3 -->
<g id="edge15" class="edge">
<title>9&#45;&gt;3</title>
<g id="a_edge15"><a xlink:title="include">
<path fill="none" stroke="#1414ce" d="M282.38,-143.88C263.03,-134.47 238.84,-122.71 218.18,-112.67"/>
<polygon fill="#1414ce" stroke="#1414ce" points="219.5,-109.41 208.97,-108.19 216.44,-115.71 219.5,-109.41"/>
</a>
</g>
</g>
<!-- 10 -->
<g id="node8" class="node">
<title>10</title>
<g id="a_node8"><a xlink:title="stddef.h">
<polygon fill="#ffffff" stroke="black" points="345.61,-108 271.61,-108 271.61,-72 345.61,-72 345.61,-108"/>
<text text-anchor="middle" x="308.61" y="-86.3" font-family="Times,serif" font-size="14.00">stddef.h</text>
</a>
</g>
</g>
<!-- 9&#45;&gt;10 -->
<g id="edge16" class="edge">
<title>9&#45;&gt;10</title>
<g id="a_edge16"><a xlink:title="include">
<path fill="none" stroke="#1414ce" d="M315.39,-143.7C314.39,-135.98 313.2,-126.71 312.1,-118.11"/>
<polygon fill="#1414ce" stroke="#1414ce" points="315.56,-117.58 310.81,-108.1 308.61,-118.47 315.56,-117.58"/>
</a>
</g>
</g>
<!-- 9&#45;&gt;5 -->
<g id="edge17" class="edge">
<title>9&#45;&gt;5</title>
<g id="a_edge17"><a xlink:title="include">
<path fill="none" stroke="#1414ce" d="M299.68,-143.67C273.63,-118.54 227.95,-74.7 223.61,-72 193.55,-53.3 155.87,-39.67 126.74,-30.92"/>
<polygon fill="#1414ce" stroke="#1414ce" points="127.4,-27.47 116.82,-28.03 125.44,-34.19 127.4,-27.47"/>
</a>
</g>
</g>
<!-- 11&#45;&gt;10 -->
<g id="edge18" class="edge">
<title>11&#45;&gt;10</title>
<g id="a_edge18"><a xlink:title="include">
<path fill="none" stroke="#1414ce" d="M384.9,-143.88C371.94,-134.89 355.88,-123.76 341.85,-114.03"/>
<polygon fill="#1414ce" stroke="#1414ce" points="343.63,-111.01 333.41,-108.19 339.64,-116.76 343.63,-111.01"/>
</a>
</g>
</g>
<!-- 12 -->
<g id="node10" class="node">
<title>12</title>
<g id="a_node10"><a xlink:title="stdio.h">
<polygon fill="#ffffff" stroke="black" points="429.11,-108 364.11,-108 364.11,-72 429.11,-72 429.11,-108"/>
<text text-anchor="middle" x="396.61" y="-86.3" font-family="Times,serif" font-size="14.00">stdio.h</text>
</a>
</g>
</g>
<!-- 11&#45;&gt;12 -->
<g id="edge19" class="edge">
<title>11&#45;&gt;12</title>
<g id="a_edge19"><a xlink:title="include">
<path fill="none" stroke="#1414ce" d="M406.4,-143.7C404.96,-135.98 403.24,-126.71 401.65,-118.11"/>
<polygon fill="#1414ce" stroke="#1414ce" points="405.05,-117.3 399.79,-108.1 398.17,-118.58 405.05,-117.3"/>
</a>
</g>
</g>
<!-- 11&#45;&gt;6 -->
<g id="edge20" class="edge">
<title>11&#45;&gt;6</title>
<g id="a_edge20"><a xlink:title="include">
<path fill="none" stroke="#1414ce" d="M420.15,-143.87C426,-133.75 433,-120.5 437.61,-108 445.05,-87.85 450.22,-64.07 453.44,-46.16"/>
<polygon fill="#1414ce" stroke="#1414ce" points="456.92,-46.56 455.15,-36.11 450.02,-45.38 456.92,-46.56"/>
</a>
</g>
</g>
</g>
</svg>
