<?xml version="1.0" encoding="UTF-8" standalone="no"?>
<!DOCTYPE svg PUBLIC "-//W3C//DTD SVG 1.1//EN"
 "http://www.w3.org/Graphics/SVG/1.1/DTD/svg11.dtd">
<!-- Generated by graphviz version 2.43.0 (0)
 -->
<!-- Title: %3 Pages: 1 -->
<svg width="1554pt" height="116pt"
 viewBox="0.00 0.00 1554.00 116.00" xmlns="http://www.w3.org/2000/svg" xmlns:xlink="http://www.w3.org/1999/xlink">
<g id="graph0" class="graph" transform="scale(1 1) rotate(0) translate(4 112)">
<title>%3</title>
<polygon fill="transparent" stroke="transparent" points="-4,4 -4,-112 1550,-112 1550,4 -4,4"/>
<!-- 2 -->
<g id="node1" class="node">
<title>2</title>
<g id="a_node1"><a xlink:title="/__w/AtomVM/AtomVM/src/libAtomVM/globalcontext.c">
<polygon fill="#ffffff" stroke="black" points="402,-36 0,-36 0,0 402,0 402,-36"/>
<text text-anchor="middle" x="201" y="-14.3" font-family="Times,serif" font-size="14.00">/__w/AtomVM/AtomVM/src/libAtomVM/globalcontext.c</text>
</a>
</g>
</g>
<!-- 3 -->
<g id="node2" class="node">
<title>3</title>
<g id="a_node2"><a xlink:title="/__w/AtomVM/AtomVM/src/libAtomVM/nifs.c">
<polygon fill="#ffffff" stroke="black" points="752,-36 420,-36 420,0 752,0 752,-36"/>
<text text-anchor="middle" x="586" y="-14.3" font-family="Times,serif" font-size="14.00">/__w/AtomVM/AtomVM/src/libAtomVM/nifs.c</text>
</a>
</g>
</g>
<!-- 4 -->
<g id="node3" class="node">
<title>4</title>
<g id="a_node3"><a xlink:title="/__w/AtomVM/AtomVM/src/libAtomVM/otp_socket.c">
<polygon fill="#ffffff" stroke="black" points="1151.5,-36 770.5,-36 770.5,0 1151.5,0 1151.5,-36"/>
<text text-anchor="middle" x="961" y="-14.3" font-family="Times,serif" font-size="14.00">/__w/AtomVM/AtomVM/src/libAtomVM/otp_socket.c</text>
</a>
</g>
</g>
<!-- 5 -->
<g id="node4" class="node">
<title>5</title>
<g id="a_node4"><a xlink:title="/__w/AtomVM/AtomVM/src/libAtomVM/posix_nifs.c">
<polygon fill="#ffffff" stroke="black" points="1546,-36 1170,-36 1170,0 1546,0 1546,-36"/>
<text text-anchor="middle" x="1358" y="-14.3" font-family="Times,serif" font-size="14.00">/__w/AtomVM/AtomVM/src/libAtomVM/posix_nifs.c</text>
</a>
</g>
</g>
<!-- 1 -->
<g id="node5" class="node">
<title>1</title>
<g id="a_node5"><a xlink:title="/__w/AtomVM/AtomVM/src/libAtomVM/posix_nifs.h">
<polygon fill="#bfbfbf" stroke="black" points="961.5,-108 584.5,-108 584.5,-72 961.5,-72 961.5,-108"/>
<text text-anchor="middle" x="773" y="-86.3" font-family="Times,serif" font-size="14.00">/__w/AtomVM/AtomVM/src/libAtomVM/posix_nifs.h</text>
</a>
</g>
</g>
<!-- 1&#45;&gt;2 -->
<g id="edge1" class="edge">
<title>1&#45;&gt;2</title>
<g id="a_edge1"><a xlink:title="include">
<path fill="none" stroke="#1414ce" d="M623.78,-70.74C536.17,-60.02 426.16,-46.55 340.32,-36.05"/>
<polygon fill="#1414ce" stroke="#1414ce" points="623.45,-74.22 633.8,-71.97 624.3,-67.28 623.45,-74.22"/>
</a>
</g>
</g>
<!-- 1&#45;&gt;3 -->
<g id="edge2" class="edge">
<title>1&#45;&gt;3</title>
<g id="a_edge2"><a xlink:title="include">
<path fill="none" stroke="#1414ce" d="M717.79,-68.33C690.35,-58.06 657.59,-45.8 631.6,-36.07"/>
<polygon fill="#1414ce" stroke="#1414ce" points="716.66,-71.65 727.25,-71.88 719.12,-65.09 716.66,-71.65"/>
</a>
</g>
</g>
<!-- 1&#45;&gt;4 -->
<g id="edge3" class="edge">
<title>1&#45;&gt;4</title>
<g id="a_edge3"><a xlink:title="include">
<path fill="none" stroke="#1414ce" d="M828.51,-68.33C856.09,-58.06 889.03,-45.8 915.16,-36.07"/>
<polygon fill="#1414ce" stroke="#1414ce" points="827.14,-65.11 818.99,-71.88 829.58,-71.67 827.14,-65.11"/>
</a>
</g>
</g>
<!-- 1&#45;&gt;5 -->
<g id="edge4" class="edge">
<title>1&#45;&gt;5</title>
<g id="a_edge4"><a xlink:title="include">
<path fill="none" stroke="#1414ce" d="M925.35,-70.77C1015.08,-60.03 1127.85,-46.54 1215.76,-36.02"/>
<polygon fill="#1414ce" stroke="#1414ce" points="924.87,-67.3 915.36,-71.97 925.7,-74.25 924.87,-67.3"/>
</a>
</g>
</g>
</g>
</svg>
