<?xml version="1.0" encoding="UTF-8" standalone="no"?>
<!DOCTYPE svg PUBLIC "-//W3C//DTD SVG 1.1//EN"
 "http://www.w3.org/Graphics/SVG/1.1/DTD/svg11.dtd">
<!-- Generated by graphviz version 2.43.0 (0)
 -->
<!-- Title: %3 Pages: 1 -->
<svg width="1281pt" height="404pt"
 viewBox="0.00 0.00 1281.00 404.00" xmlns="http://www.w3.org/2000/svg" xmlns:xlink="http://www.w3.org/1999/xlink">
<g id="graph0" class="graph" transform="scale(1 1) rotate(0) translate(4 400)">
<title>%3</title>
<polygon fill="transparent" stroke="transparent" points="-4,4 -4,-400 1277,-400 1277,4 -4,4"/>
<!-- 19 -->
<g id="node1" class="node">
<title>19</title>
<g id="a_node1"><a xlink:title="SpinLock">
<polygon fill="#ffffff" stroke="black" points="788,-324 706,-324 706,-288 788,-288 788,-324"/>
<text text-anchor="middle" x="747" y="-302.3" font-family="Times,serif" font-size="14.00">SpinLock</text>
</a>
</g>
</g>
<!-- 3 -->
<g id="node2" class="node">
<title>3</title>
<g id="a_node2"><a xlink:title="ResourceType">
<polygon fill="#ffffff" stroke="black" points="848.5,-180 731.5,-180 731.5,-144 848.5,-144 848.5,-180"/>
<text text-anchor="middle" x="790" y="-158.3" font-family="Times,serif" font-size="14.00">ResourceType</text>
</a>
</g>
</g>
<!-- 5 -->
<g id="node4" class="node">
<title>5</title>
<g id="a_node4"><a xlink:title="ListHead">
<polygon fill="#ffffff" stroke="black" points="709.5,-36 628.5,-36 628.5,0 709.5,0 709.5,-36"/>
<text text-anchor="middle" x="669" y="-14.3" font-family="Times,serif" font-size="14.00">ListHead</text>
</a>
</g>
</g>
<!-- 3&#45;&gt;5 -->
<g id="edge3" class="edge">
<title>3&#45;&gt;5</title>
<g id="a_edge3"><a xlink:title="usage">
<path fill="none" stroke="#1414ce" d="M785.76,-143.99C780.29,-124.79 769.26,-93.46 751,-72 740.64,-59.82 726.78,-49.42 713.4,-41.14"/>
<polygon fill="#1414ce" stroke="#1414ce" points="715.12,-38.09 704.73,-36.01 711.55,-44.11 715.12,-38.09"/>
</a>
</g>
</g>
<!-- 6 -->
<g id="node6" class="node">
<title>6</title>
<g id="a_node6"><a xlink:title="GlobalContext">
<polygon fill="#ffffff" stroke="black" points="528.5,-396 409.5,-396 409.5,-360 528.5,-360 528.5,-396"/>
<text text-anchor="middle" x="469" y="-374.3" font-family="Times,serif" font-size="14.00">GlobalContext</text>
</a>
</g>
</g>
<!-- 3&#45;&gt;6 -->
<g id="edge2" class="edge">
<title>3&#45;&gt;6</title>
<g id="a_edge2"><a xlink:title="usage">
<path fill="none" stroke="#1414ce" d="M797.62,-180.49C810.47,-212.99 831.82,-283.1 797,-324 764.53,-362.14 625.13,-372.93 538.85,-375.92"/>
<polygon fill="#1414ce" stroke="#1414ce" points="538.48,-372.43 528.6,-376.24 538.71,-379.42 538.48,-372.43"/>
</a>
</g>
</g>
<!-- 4 -->
<g id="node18" class="node">
<title>4</title>
<g id="a_node18"><a xlink:title="SyncList">
<polygon fill="#ffffff" stroke="black" points="742,-108 664,-108 664,-72 742,-72 742,-108"/>
<text text-anchor="middle" x="703" y="-86.3" font-family="Times,serif" font-size="14.00">SyncList</text>
</a>
</g>
</g>
<!-- 3&#45;&gt;4 -->
<g id="edge1" class="edge">
<title>3&#45;&gt;4</title>
<g id="a_edge1"><a xlink:title="usage">
<path fill="none" stroke="#1414ce" d="M768.49,-143.7C757.54,-134.88 744.05,-124.03 732.18,-114.47"/>
<polygon fill="#1414ce" stroke="#1414ce" points="734.24,-111.65 724.26,-108.1 729.86,-117.1 734.24,-111.65"/>
</a>
</g>
</g>
<!-- 14 -->
<g id="node3" class="node">
<title>14</title>
<g id="a_node3"><a xlink:title="Module">
<polygon fill="#ffffff" stroke="black" points="1092,-324 1022,-324 1022,-288 1092,-288 1092,-324"/>
<text text-anchor="middle" x="1057" y="-302.3" font-family="Times,serif" font-size="14.00">Module</text>
</a>
</g>
</g>
<!-- 16 -->
<g id="node9" class="node">
<title>16</title>
<g id="a_node9"><a xlink:title="LiteralEntry">
<polygon fill="#ffffff" stroke="black" points="1109,-252 1005,-252 1005,-216 1109,-216 1109,-252"/>
<text text-anchor="middle" x="1057" y="-230.3" font-family="Times,serif" font-size="14.00">LiteralEntry</text>
</a>
</g>
</g>
<!-- 14&#45;&gt;16 -->
<g id="edge5" class="edge">
<title>14&#45;&gt;16</title>
<g id="a_edge5"><a xlink:title="usage">
<path fill="none" stroke="#1414ce" d="M1057,-287.7C1057,-279.98 1057,-270.71 1057,-262.11"/>
<polygon fill="#1414ce" stroke="#1414ce" points="1060.5,-262.1 1057,-252.1 1053.5,-262.1 1060.5,-262.1"/>
</a>
</g>
</g>
<!-- 15 -->
<g id="node17" class="node">
<title>15</title>
<g id="a_node17"><a xlink:title="ExportedFunction">
<polygon fill="#ffffff" stroke="black" points="1273,-252 1127,-252 1127,-216 1273,-216 1273,-252"/>
<text text-anchor="middle" x="1200" y="-230.3" font-family="Times,serif" font-size="14.00">ExportedFunction</text>
</a>
</g>
</g>
<!-- 14&#45;&gt;15 -->
<g id="edge4" class="edge">
<title>14&#45;&gt;15</title>
<g id="a_edge4"><a xlink:title="usage">
<path fill="none" stroke="#1414ce" d="M1091.98,-287.88C1111.2,-278.47 1135.23,-266.71 1155.74,-256.67"/>
<polygon fill="#1414ce" stroke="#1414ce" points="1157.44,-259.73 1164.88,-252.19 1154.36,-253.44 1157.44,-259.73"/>
</a>
</g>
</g>
<!-- 5&#45;&gt;5 -->
<g id="edge6" class="edge">
<title>5&#45;&gt;5</title>
<g id="a_edge6"><a xlink:title="usage">
<path fill="none" stroke="#1414ce" d="M709.73,-31.31C719.9,-30.38 727.5,-25.95 727.5,-18 727.5,-12.91 724.38,-9.26 719.47,-7.05"/>
<polygon fill="#1414ce" stroke="#1414ce" points="720.28,-3.64 709.73,-4.69 718.63,-10.45 720.28,-3.64"/>
</a>
</g>
</g>
<!-- 12 -->
<g id="node5" class="node">
<title>12</title>
<g id="a_node5"><a xlink:title="RefcBinaryQueueItem">
<polygon fill="#ffffff" stroke="black" points="632,-324 458,-324 458,-288 632,-288 632,-324"/>
<text text-anchor="middle" x="545" y="-302.3" font-family="Times,serif" font-size="14.00">RefcBinaryQueueItem</text>
</a>
</g>
</g>
<!-- 12&#45;&gt;12 -->
<g id="edge8" class="edge">
<title>12&#45;&gt;12</title>
<g id="a_edge8"><a xlink:title="usage">
<path fill="none" stroke="#1414ce" d="M632.3,-317.68C642.99,-315.59 650,-311.7 650,-306 650,-302.35 647.12,-299.44 642.25,-297.27"/>
<polygon fill="#1414ce" stroke="#1414ce" points="642.88,-293.81 632.3,-294.32 640.89,-300.52 642.88,-293.81"/>
</a>
</g>
</g>
<!-- 13 -->
<g id="node13" class="node">
<title>13</title>
<g id="a_node13"><a xlink:title="RefcBinary">
<polygon fill="#ffffff" stroke="black" points="674.5,-252 579.5,-252 579.5,-216 674.5,-216 674.5,-252"/>
<text text-anchor="middle" x="627" y="-230.3" font-family="Times,serif" font-size="14.00">RefcBinary</text>
</a>
</g>
</g>
<!-- 12&#45;&gt;13 -->
<g id="edge7" class="edge">
<title>12&#45;&gt;13</title>
<g id="a_edge7"><a xlink:title="usage">
<path fill="none" stroke="#1414ce" d="M565.27,-287.7C575.5,-278.97 588.06,-268.24 599.18,-258.75"/>
<polygon fill="#1414ce" stroke="#1414ce" points="601.63,-261.26 606.96,-252.1 597.09,-255.94 601.63,-261.26"/>
</a>
</g>
</g>
<!-- 6&#45;&gt;19 -->
<g id="edge16" class="edge">
<title>6&#45;&gt;19</title>
<g id="a_edge16"><a xlink:title="usage">
<path fill="none" stroke="#1414ce" d="M528.9,-363.9C573.96,-353.77 637.1,-338.99 692,-324 693.42,-323.61 694.85,-323.22 696.3,-322.81"/>
<polygon fill="#1414ce" stroke="#1414ce" points="697.31,-326.16 705.94,-320.02 695.36,-319.43 697.31,-326.16"/>
</a>
</g>
</g>
<!-- 6&#45;&gt;14 -->
<g id="edge13" class="edge">
<title>6&#45;&gt;14</title>
<g id="a_edge13"><a xlink:title="usage">
<path fill="none" stroke="#1414ce" d="M528.87,-375.44C628.77,-371.88 835.35,-360.38 1006,-324 1007.95,-323.58 1009.93,-323.12 1011.92,-322.62"/>
<polygon fill="#1414ce" stroke="#1414ce" points="1013.2,-325.89 1021.89,-319.84 1011.32,-319.15 1013.2,-325.89"/>
</a>
</g>
</g>
<!-- 6&#45;&gt;5 -->
<g id="edge17" class="edge">
<title>6&#45;&gt;5</title>
<g id="a_edge17"><a xlink:title="usage">
<path fill="none" stroke="#1414ce" d="M409.38,-376.1C307.53,-373.48 105.43,-363.35 48,-324 10.93,-298.6 0,-279.94 0,-235 0,-235 0,-235 0,-161 0,-34.78 461.46,-20.27 617.87,-18.98"/>
<polygon fill="#1414ce" stroke="#1414ce" points="618.18,-22.48 628.16,-18.91 618.13,-15.48 618.18,-22.48"/>
</a>
</g>
</g>
<!-- 6&#45;&gt;12 -->
<g id="edge11" class="edge">
<title>6&#45;&gt;12</title>
<g id="a_edge11"><a xlink:title="usage">
<path fill="none" stroke="#1414ce" d="M487.79,-359.7C497.17,-351.05 508.68,-340.45 518.91,-331.03"/>
<polygon fill="#1414ce" stroke="#1414ce" points="521.45,-333.45 526.43,-324.1 516.7,-328.3 521.45,-333.45"/>
</a>
</g>
</g>
<!-- 18 -->
<g id="node8" class="node">
<title>18</title>
<g id="a_node8"><a xlink:title="TimerList">
<polygon fill="#ffffff" stroke="black" points="361,-108 275,-108 275,-72 361,-72 361,-108"/>
<text text-anchor="middle" x="318" y="-86.3" font-family="Times,serif" font-size="14.00">TimerList</text>
</a>
</g>
</g>
<!-- 6&#45;&gt;18 -->
<g id="edge15" class="edge">
<title>6&#45;&gt;18</title>
<g id="a_edge15"><a xlink:title="usage">
<path fill="none" stroke="#1414ce" d="M409.35,-376.25C313.46,-373.86 130.85,-364.02 82,-324 43.89,-292.78 30.74,-257.69 57,-216 102.53,-143.72 202.72,-112.31 264.87,-99.37"/>
<polygon fill="#1414ce" stroke="#1414ce" points="265.76,-102.76 274.88,-97.37 264.39,-95.89 265.76,-102.76"/>
</a>
</g>
</g>
<!-- 7 -->
<g id="node11" class="node">
<title>7</title>
<g id="a_node11"><a xlink:title="MessageQueueItem">
<polygon fill="#ffffff" stroke="black" points="249,-324 91,-324 91,-288 249,-288 249,-324"/>
<text text-anchor="middle" x="170" y="-302.3" font-family="Times,serif" font-size="14.00">MessageQueueItem</text>
</a>
</g>
</g>
<!-- 6&#45;&gt;7 -->
<g id="edge9" class="edge">
<title>6&#45;&gt;7</title>
<g id="a_edge9"><a xlink:title="usage">
<path fill="none" stroke="#1414ce" d="M409.21,-363C364.24,-352.47 302.07,-337.92 252.39,-326.29"/>
<polygon fill="#1414ce" stroke="#1414ce" points="253.16,-322.87 242.62,-324 251.56,-329.69 253.16,-322.87"/>
</a>
</g>
</g>
<!-- 17 -->
<g id="node12" class="node">
<title>17</title>
<g id="a_node12"><a xlink:title="AtomsHashTable">
<polygon fill="#ffffff" stroke="black" points="376.5,-252 239.5,-252 239.5,-216 376.5,-216 376.5,-252"/>
<text text-anchor="middle" x="308" y="-230.3" font-family="Times,serif" font-size="14.00">AtomsHashTable</text>
</a>
</g>
</g>
<!-- 6&#45;&gt;17 -->
<g id="edge14" class="edge">
<title>6&#45;&gt;17</title>
<g id="a_edge14"><a xlink:title="usage">
<path fill="none" stroke="#1414ce" d="M409.39,-364.24C384.78,-356.3 357.71,-343.71 339,-324 323.03,-307.18 315.24,-281.7 311.47,-262.31"/>
<polygon fill="#1414ce" stroke="#1414ce" points="314.89,-261.52 309.76,-252.25 307.99,-262.7 314.89,-261.52"/>
</a>
</g>
</g>
<!-- 9 -->
<g id="node16" class="node">
<title>9</title>
<g id="a_node16"><a xlink:title="AtomTable">
<polygon fill="#ffffff" stroke="black" points="440,-324 348,-324 348,-288 440,-288 440,-324"/>
<text text-anchor="middle" x="394" y="-302.3" font-family="Times,serif" font-size="14.00">AtomTable</text>
</a>
</g>
</g>
<!-- 6&#45;&gt;9 -->
<g id="edge10" class="edge">
<title>6&#45;&gt;9</title>
<g id="a_edge10"><a xlink:title="usage">
<path fill="none" stroke="#1414ce" d="M450.46,-359.7C441.2,-351.05 429.84,-340.45 419.74,-331.03"/>
<polygon fill="#1414ce" stroke="#1414ce" points="422.02,-328.37 412.33,-324.1 417.25,-333.49 422.02,-328.37"/>
</a>
</g>
</g>
<!-- 6&#45;&gt;4 -->
<g id="edge12" class="edge">
<title>6&#45;&gt;4</title>
<g id="a_edge12"><a xlink:title="usage">
<path fill="none" stroke="#1414ce" d="M528.72,-374.49C570.13,-369.7 623.94,-356.95 659,-324 716.17,-270.27 712.61,-167.4 707.05,-118.34"/>
<polygon fill="#1414ce" stroke="#1414ce" points="710.49,-117.67 705.78,-108.18 703.55,-118.53 710.49,-117.67"/>
</a>
</g>
</g>
<!-- 11 -->
<g id="node7" class="node">
<title>11</title>
<g id="a_node7"><a xlink:title="HNodeGroup">
<polygon fill="#ffffff" stroke="black" points="543,-252 433,-252 433,-216 543,-216 543,-252"/>
<text text-anchor="middle" x="488" y="-230.3" font-family="Times,serif" font-size="14.00">HNodeGroup</text>
</a>
</g>
</g>
<!-- 11&#45;&gt;11 -->
<g id="edge19" class="edge">
<title>11&#45;&gt;11</title>
<g id="a_edge19"><a xlink:title="usage">
<path fill="none" stroke="#1414ce" d="M543.07,-246.85C553.57,-245.32 561,-241.03 561,-234 561,-229.5 557.95,-226.12 553,-223.87"/>
<polygon fill="#1414ce" stroke="#1414ce" points="553.64,-220.42 543.07,-221.15 551.79,-227.17 553.64,-220.42"/>
</a>
</g>
</g>
<!-- 10 -->
<g id="node19" class="node">
<title>10</title>
<g id="a_node19"><a xlink:title="HNode">
<polygon fill="#ffffff" stroke="black" points="438,-180 372,-180 372,-144 438,-144 438,-180"/>
<text text-anchor="middle" x="405" y="-158.3" font-family="Times,serif" font-size="14.00">HNode</text>
</a>
</g>
</g>
<!-- 11&#45;&gt;10 -->
<g id="edge18" class="edge">
<title>11&#45;&gt;10</title>
<g id="a_edge18"><a xlink:title="usage">
<path fill="none" stroke="#1414ce" d="M467.48,-215.7C457.13,-206.97 444.41,-196.24 433.16,-186.75"/>
<polygon fill="#1414ce" stroke="#1414ce" points="435.18,-183.88 425.28,-180.1 430.67,-189.23 435.18,-183.88"/>
</a>
</g>
</g>
<!-- 18&#45;&gt;5 -->
<g id="edge20" class="edge">
<title>18&#45;&gt;5</title>
<g id="a_edge20"><a xlink:title="usage">
<path fill="none" stroke="#1414ce" d="M361.04,-80.42C426.12,-67.44 549.3,-42.87 618.52,-29.07"/>
<polygon fill="#1414ce" stroke="#1414ce" points="619.21,-32.5 628.33,-27.11 617.84,-25.63 619.21,-32.5"/>
</a>
</g>
</g>
<!-- 8 -->
<g id="node10" class="node">
<title>8</title>
<g id="a_node10"><a xlink:title="MailboxMessage">
<polygon fill="#ffffff" stroke="black" points="203.5,-252 66.5,-252 66.5,-216 203.5,-216 203.5,-252"/>
<text text-anchor="middle" x="135" y="-230.3" font-family="Times,serif" font-size="14.00">MailboxMessage</text>
</a>
</g>
</g>
<!-- 8&#45;&gt;8 -->
<g id="edge21" class="edge">
<title>8&#45;&gt;8</title>
<g id="a_edge21"><a xlink:title="usage">
<path fill="none" stroke="#1414ce" d="M203.53,-246.37C214.21,-244.52 221.5,-240.4 221.5,-234 221.5,-229.8 218.36,-226.58 213.18,-224.34"/>
<polygon fill="#1414ce" stroke="#1414ce" points="214.1,-220.96 203.53,-221.63 212.21,-227.7 214.1,-220.96"/>
</a>
</g>
</g>
<!-- 7&#45;&gt;8 -->
<g id="edge22" class="edge">
<title>7&#45;&gt;8</title>
<g id="a_edge22"><a xlink:title="usage">
<path fill="none" stroke="#1414ce" d="M161.35,-287.7C157.36,-279.73 152.55,-270.1 148.13,-261.26"/>
<polygon fill="#1414ce" stroke="#1414ce" points="151.15,-259.48 143.55,-252.1 144.89,-262.61 151.15,-259.48"/>
</a>
</g>
</g>
<!-- 7&#45;&gt;7 -->
<g id="edge23" class="edge">
<title>7&#45;&gt;7</title>
<g id="a_edge23"><a xlink:title="usage">
<path fill="none" stroke="#1414ce" d="M249.16,-317.98C259.87,-315.97 267,-311.98 267,-306 267,-302.08 263.93,-299.01 258.79,-296.8"/>
<polygon fill="#1414ce" stroke="#1414ce" points="259.74,-293.43 249.16,-294.02 257.8,-300.15 259.74,-293.43"/>
</a>
</g>
</g>
<!-- 17&#45;&gt;10 -->
<g id="edge24" class="edge">
<title>17&#45;&gt;10</title>
<g id="a_edge24"><a xlink:title="usage">
<path fill="none" stroke="#1414ce" d="M331.98,-215.7C344.31,-206.8 359.52,-195.82 372.85,-186.2"/>
<polygon fill="#1414ce" stroke="#1414ce" points="375.24,-188.79 381.3,-180.1 371.14,-183.12 375.24,-188.79"/>
</a>
</g>
</g>
<!-- 13&#45;&gt;3 -->
<g id="edge25" class="edge">
<title>13&#45;&gt;3</title>
<g id="a_edge25"><a xlink:title="usage">
<path fill="none" stroke="#1414ce" d="M666.87,-215.88C689.16,-206.31 717.12,-194.3 740.76,-184.15"/>
<polygon fill="#1414ce" stroke="#1414ce" points="742.45,-187.23 750.26,-180.07 739.69,-180.8 742.45,-187.23"/>
</a>
</g>
</g>
<!-- 13&#45;&gt;5 -->
<g id="edge26" class="edge">
<title>13&#45;&gt;5</title>
<g id="a_edge26"><a xlink:title="usage">
<path fill="none" stroke="#1414ce" d="M629.47,-215.99C633.85,-186.51 643.61,-124.11 655,-72 656.86,-63.5 659.17,-54.32 661.38,-46.02"/>
<polygon fill="#1414ce" stroke="#1414ce" points="664.83,-46.66 664.08,-36.1 658.08,-44.82 664.83,-46.66"/>
</a>
</g>
</g>
<!-- 2 -->
<g id="node14" class="node">
<title>2</title>
<g id="a_node14"><a xlink:title="ErlNifMonitor">
<polygon fill="#ffffff" stroke="black" points="948.5,-252 831.5,-252 831.5,-216 948.5,-216 948.5,-252"/>
<text text-anchor="middle" x="890" y="-230.3" font-family="Times,serif" font-size="14.00">ErlNifMonitor</text>
</a>
</g>
</g>
<!-- 2&#45;&gt;3 -->
<g id="edge27" class="edge">
<title>2&#45;&gt;3</title>
<g id="a_edge27"><a xlink:title="usage">
<path fill="none" stroke="#1414ce" d="M865.54,-215.88C852.7,-206.89 836.8,-195.76 822.91,-186.03"/>
<polygon fill="#1414ce" stroke="#1414ce" points="824.76,-183.06 814.56,-180.19 820.74,-188.79 824.76,-183.06"/>
</a>
</g>
</g>
<!-- 1 -->
<g id="node15" class="node">
<title>1</title>
<g id="a_node15"><a xlink:title="SocketResource">
<polygon fill="#bfbfbf" stroke="black" points="996.5,-324 865.5,-324 865.5,-288 996.5,-288 996.5,-324"/>
<text text-anchor="middle" x="931" y="-302.3" font-family="Times,serif" font-size="14.00">SocketResource</text>
</a>
</g>
</g>
<!-- 1&#45;&gt;5 -->
<g id="edge29" class="edge">
<title>1&#45;&gt;5</title>
<g id="a_edge29"><a xlink:title="usage">
<path fill="none" stroke="#1414ce" d="M943.65,-287.67C955.41,-269.28 969.5,-239.68 958,-216 910.56,-118.31 788.37,-60.97 719.01,-35.28"/>
<polygon fill="#1414ce" stroke="#1414ce" points="720.18,-31.98 709.59,-31.86 717.8,-38.56 720.18,-31.98"/>
</a>
</g>
</g>
<!-- 1&#45;&gt;2 -->
<g id="edge28" class="edge">
<title>1&#45;&gt;2</title>
<g id="a_edge28"><a xlink:title="usage">
<path fill="none" stroke="#1414ce" d="M920.87,-287.7C916.15,-279.64 910.44,-269.89 905.22,-260.98"/>
<polygon fill="#1414ce" stroke="#1414ce" points="908.09,-258.96 900.02,-252.1 902.05,-262.5 908.09,-258.96"/>
</a>
</g>
</g>
<!-- 9&#45;&gt;11 -->
<g id="edge31" class="edge">
<title>9&#45;&gt;11</title>
<g id="a_edge31"><a xlink:title="usage">
<path fill="none" stroke="#1414ce" d="M417.24,-287.7C429.19,-278.8 443.92,-267.82 456.85,-258.2"/>
<polygon fill="#1414ce" stroke="#1414ce" points="459.1,-260.88 465.03,-252.1 454.92,-255.27 459.1,-260.88"/>
</a>
</g>
</g>
<!-- 9&#45;&gt;10 -->
<g id="edge30" class="edge">
<title>9&#45;&gt;10</title>
<g id="a_edge30"><a xlink:title="usage">
<path fill="none" stroke="#1414ce" d="M395.33,-287.87C397.2,-263.67 400.65,-219.21 402.88,-190.39"/>
<polygon fill="#1414ce" stroke="#1414ce" points="406.39,-190.43 403.67,-180.19 399.41,-189.89 406.39,-190.43"/>
</a>
</g>
</g>
<!-- 4&#45;&gt;5 -->
<g id="edge32" class="edge">
<title>4&#45;&gt;5</title>
<g id="a_edge32"><a xlink:title="usage">
<path fill="none" stroke="#1414ce" d="M694.6,-71.7C690.73,-63.73 686.05,-54.1 681.76,-45.26"/>
<polygon fill="#1414ce" stroke="#1414ce" points="684.83,-43.57 677.31,-36.1 678.53,-46.63 684.83,-43.57"/>
</a>
</g>
</g>
<!-- 10&#45;&gt;10 -->
<g id="edge33" class="edge">
<title>10&#45;&gt;10</title>
<g id="a_edge33"><a xlink:title="usage">
<path fill="none" stroke="#1414ce" d="M438.35,-175.47C448.28,-175.07 456,-170.58 456,-162 456,-156.64 452.98,-152.87 448.3,-150.71"/>
<polygon fill="#1414ce" stroke="#1414ce" points="448.87,-147.25 438.35,-148.53 447.37,-154.09 448.87,-147.25"/>
</a>
</g>
</g>
</g>
</svg>
