<?xml version="1.0" encoding="UTF-8" standalone="no"?>
<!DOCTYPE svg PUBLIC "-//W3C//DTD SVG 1.1//EN"
 "http://www.w3.org/Graphics/SVG/1.1/DTD/svg11.dtd">
<!-- Generated by graphviz version 2.43.0 (0)
 -->
<!-- Title: %3 Pages: 1 -->
<svg width="1519pt" height="116pt"
 viewBox="0.00 0.00 1519.00 116.00" xmlns="http://www.w3.org/2000/svg" xmlns:xlink="http://www.w3.org/1999/xlink">
<g id="graph0" class="graph" transform="scale(1 1) rotate(0) translate(4 112)">
<title>%3</title>
<polygon fill="transparent" stroke="transparent" points="-4,4 -4,-112 1515,-112 1515,4 -4,4"/>
<!-- 2 -->
<g id="node1" class="node">
<title>2</title>
<g id="a_node1"><a xlink:title="/__w/AtomVM/AtomVM/src/libAtomVM/bitstring.c">
<polygon fill="#ffffff" stroke="black" points="368,-36 0,-36 0,0 368,0 368,-36"/>
<text text-anchor="middle" x="184" y="-14.3" font-family="Times,serif" font-size="14.00">/__w/AtomVM/AtomVM/src/libAtomVM/bitstring.c</text>
</a>
</g>
</g>
<!-- 1 -->
<g id="node2" class="node">
<title>1</title>
<g id="a_node2"><a xlink:title="/__w/AtomVM/AtomVM/src/libAtomVM/bitstring.h">
<polygon fill="#bfbfbf" stroke="black" points="968.5,-108 599.5,-108 599.5,-72 968.5,-72 968.5,-108"/>
<text text-anchor="middle" x="784" y="-86.3" font-family="Times,serif" font-size="14.00">/__w/AtomVM/AtomVM/src/libAtomVM/bitstring.h</text>
</a>
</g>
</g>
<!-- 1&#45;&gt;2 -->
<g id="edge1" class="edge">
<title>1&#45;&gt;2</title>
<g id="a_edge1"><a xlink:title="include">
<path fill="none" stroke="#1414ce" d="M628.02,-70.8C535.95,-60.06 420.14,-46.55 329.88,-36.02"/>
<polygon fill="#1414ce" stroke="#1414ce" points="627.65,-74.28 637.99,-71.97 628.46,-67.33 627.65,-74.28"/>
</a>
</g>
</g>
<!-- 3 -->
<g id="node3" class="node">
<title>3</title>
<g id="a_node3"><a xlink:title="/__w/AtomVM/AtomVM/src/libAtomVM/externalterm.c">
<polygon fill="#ffffff" stroke="black" points="785.5,-36 386.5,-36 386.5,0 785.5,0 785.5,-36"/>
<text text-anchor="middle" x="586" y="-14.3" font-family="Times,serif" font-size="14.00">/__w/AtomVM/AtomVM/src/libAtomVM/externalterm.c</text>
</a>
</g>
</g>
<!-- 1&#45;&gt;3 -->
<g id="edge2" class="edge">
<title>1&#45;&gt;3</title>
<g id="a_edge2"><a xlink:title="include">
<path fill="none" stroke="#1414ce" d="M726.18,-68.56C697.03,-58.25 662.1,-45.9 634.4,-36.11"/>
<polygon fill="#1414ce" stroke="#1414ce" points="725.22,-71.93 735.82,-71.97 727.56,-65.33 725.22,-71.93"/>
</a>
</g>
</g>
<!-- 4 -->
<g id="node4" class="node">
<title>4</title>
<g id="a_node4"><a xlink:title="/__w/AtomVM/AtomVM/src/libAtomVM/interop.c">
<polygon fill="#ffffff" stroke="black" points="1160.5,-36 803.5,-36 803.5,0 1160.5,0 1160.5,-36"/>
<text text-anchor="middle" x="982" y="-14.3" font-family="Times,serif" font-size="14.00">/__w/AtomVM/AtomVM/src/libAtomVM/interop.c</text>
</a>
</g>
</g>
<!-- 1&#45;&gt;4 -->
<g id="edge3" class="edge">
<title>1&#45;&gt;4</title>
<g id="a_edge3"><a xlink:title="include">
<path fill="none" stroke="#1414ce" d="M841.82,-68.56C870.97,-58.25 905.9,-45.9 933.6,-36.11"/>
<polygon fill="#1414ce" stroke="#1414ce" points="840.44,-65.33 832.18,-71.97 842.78,-71.93 840.44,-65.33"/>
</a>
</g>
</g>
<!-- 5 -->
<g id="node5" class="node">
<title>5</title>
<g id="a_node5"><a xlink:title="/__w/AtomVM/AtomVM/src/libAtomVM/nifs.c">
<polygon fill="#ffffff" stroke="black" points="1511,-36 1179,-36 1179,0 1511,0 1511,-36"/>
<text text-anchor="middle" x="1345" y="-14.3" font-family="Times,serif" font-size="14.00">/__w/AtomVM/AtomVM/src/libAtomVM/nifs.c</text>
</a>
</g>
</g>
<!-- 1&#45;&gt;5 -->
<g id="edge4" class="edge">
<title>1&#45;&gt;5</title>
<g id="a_edge4"><a xlink:title="include">
<path fill="none" stroke="#1414ce" d="M930.61,-70.71C1016.5,-59.99 1124.25,-46.54 1208.36,-36.05"/>
<polygon fill="#1414ce" stroke="#1414ce" points="930.01,-67.25 920.52,-71.97 930.88,-74.2 930.01,-67.25"/>
</a>
</g>
</g>
</g>
</svg>
