<?xml version="1.0" encoding="UTF-8" standalone="no"?>
<!DOCTYPE svg PUBLIC "-//W3C//DTD SVG 1.1//EN"
 "http://www.w3.org/Graphics/SVG/1.1/DTD/svg11.dtd">
<!-- Generated by graphviz version 2.43.0 (0)
 -->
<!-- Title: %3 Pages: 1 -->
<svg width="1128pt" height="404pt"
 viewBox="0.00 0.00 1128.11 404.00" xmlns="http://www.w3.org/2000/svg" xmlns:xlink="http://www.w3.org/1999/xlink">
<g id="graph0" class="graph" transform="scale(1 1) rotate(0) translate(4 400)">
<title>%3</title>
<polygon fill="transparent" stroke="transparent" points="-4,4 -4,-400 1124.11,-400 1124.11,4 -4,4"/>
<!-- 10 -->
<g id="node1" class="node">
<title>10</title>
<g id="a_node1"><a xlink:title="AtomTable">
<polygon fill="#ffffff" stroke="black" points="115.11,-324 23.11,-324 23.11,-288 115.11,-288 115.11,-324"/>
<text text-anchor="middle" x="69.11" y="-302.3" font-family="Times,serif" font-size="14.00">AtomTable</text>
</a>
</g>
</g>
<!-- 11 -->
<g id="node5" class="node">
<title>11</title>
<g id="a_node5"><a xlink:title="HNode">
<polygon fill="#ffffff" stroke="black" points="102.11,-180 36.11,-180 36.11,-144 102.11,-144 102.11,-180"/>
<text text-anchor="middle" x="69.11" y="-158.3" font-family="Times,serif" font-size="14.00">HNode</text>
</a>
</g>
</g>
<!-- 10&#45;&gt;11 -->
<g id="edge1" class="edge">
<title>10&#45;&gt;11</title>
<g id="a_edge1"><a xlink:title="usage">
<path fill="none" stroke="#1414ce" d="M38.34,-287.91C25.56,-279.02 12.11,-266.88 5.11,-252 -1.7,-237.52 -1.7,-230.48 5.11,-216 10.63,-204.26 20.17,-194.22 30.23,-186.15"/>
<polygon fill="#1414ce" stroke="#1414ce" points="32.42,-188.88 38.34,-180.09 28.23,-183.27 32.42,-188.88"/>
</a>
</g>
</g>
<!-- 12 -->
<g id="node6" class="node">
<title>12</title>
<g id="a_node6"><a xlink:title="HNodeGroup">
<polygon fill="#ffffff" stroke="black" points="124.11,-252 14.11,-252 14.11,-216 124.11,-216 124.11,-252"/>
<text text-anchor="middle" x="69.11" y="-230.3" font-family="Times,serif" font-size="14.00">HNodeGroup</text>
</a>
</g>
</g>
<!-- 10&#45;&gt;12 -->
<g id="edge2" class="edge">
<title>10&#45;&gt;12</title>
<g id="a_edge2"><a xlink:title="usage">
<path fill="none" stroke="#1414ce" d="M69.11,-287.7C69.11,-279.98 69.11,-270.71 69.11,-262.11"/>
<polygon fill="#1414ce" stroke="#1414ce" points="72.61,-262.1 69.11,-252.1 65.61,-262.1 72.61,-262.1"/>
</a>
</g>
</g>
<!-- 13 -->
<g id="node2" class="node">
<title>13</title>
<g id="a_node2"><a xlink:title="AtomsHashTable">
<polygon fill="#ffffff" stroke="black" points="297.61,-252 160.61,-252 160.61,-216 297.61,-216 297.61,-252"/>
<text text-anchor="middle" x="229.11" y="-230.3" font-family="Times,serif" font-size="14.00">AtomsHashTable</text>
</a>
</g>
</g>
<!-- 13&#45;&gt;11 -->
<g id="edge3" class="edge">
<title>13&#45;&gt;11</title>
<g id="a_edge3"><a xlink:title="usage">
<path fill="none" stroke="#1414ce" d="M189.97,-215.88C166.2,-205.48 135.86,-192.2 111.52,-181.55"/>
<polygon fill="#1414ce" stroke="#1414ce" points="112.74,-178.27 102.17,-177.47 109.93,-184.68 112.74,-178.27"/>
</a>
</g>
</g>
<!-- 15 -->
<g id="node3" class="node">
<title>15</title>
<g id="a_node3"><a xlink:title="ExportedFunction">
<polygon fill="#ffffff" stroke="black" points="998.11,-252 852.11,-252 852.11,-216 998.11,-216 998.11,-252"/>
<text text-anchor="middle" x="925.11" y="-230.3" font-family="Times,serif" font-size="14.00">ExportedFunction</text>
</a>
</g>
</g>
<!-- 3 -->
<g id="node4" class="node">
<title>3</title>
<g id="a_node4"><a xlink:title="GlobalContext">
<polygon fill="#ffffff" stroke="black" points="652.61,-396 533.61,-396 533.61,-360 652.61,-360 652.61,-396"/>
<text text-anchor="middle" x="593.11" y="-374.3" font-family="Times,serif" font-size="14.00">GlobalContext</text>
</a>
</g>
</g>
<!-- 3&#45;&gt;10 -->
<g id="edge9" class="edge">
<title>3&#45;&gt;10</title>
<g id="a_edge9"><a xlink:title="usage">
<path fill="none" stroke="#1414ce" d="M533.51,-369.04C431.56,-355.42 225.08,-327.84 125.43,-314.52"/>
<polygon fill="#1414ce" stroke="#1414ce" points="125.63,-311.02 115.26,-313.17 124.71,-317.96 125.63,-311.02"/>
</a>
</g>
</g>
<!-- 3&#45;&gt;13 -->
<g id="edge10" class="edge">
<title>3&#45;&gt;13</title>
<g id="a_edge10"><a xlink:title="usage">
<path fill="none" stroke="#1414ce" d="M533.55,-376.39C474.06,-373.44 381.69,-362.31 312.11,-324 284.41,-308.75 260.74,-280.92 245.85,-260.43"/>
<polygon fill="#1414ce" stroke="#1414ce" points="248.64,-258.31 240.01,-252.16 242.91,-262.35 248.64,-258.31"/>
</a>
</g>
</g>
<!-- 2 -->
<g id="node7" class="node">
<title>2</title>
<g id="a_node7"><a xlink:title="ListHead">
<polygon fill="#ffffff" stroke="black" points="519.61,-36 438.61,-36 438.61,0 519.61,0 519.61,-36"/>
<text text-anchor="middle" x="479.11" y="-14.3" font-family="Times,serif" font-size="14.00">ListHead</text>
</a>
</g>
</g>
<!-- 3&#45;&gt;2 -->
<g id="edge4" class="edge">
<title>3&#45;&gt;2</title>
<g id="a_edge4"><a xlink:title="usage">
<path fill="none" stroke="#1414ce" d="M533.45,-371.66C468.72,-364.63 371.1,-350 345.11,-324 316.51,-295.4 326.11,-275.45 326.11,-235 326.11,-235 326.11,-235 326.11,-161 326.11,-103.53 384.81,-62.77 429.5,-40.08"/>
<polygon fill="#1414ce" stroke="#1414ce" points="431.08,-43.2 438.51,-35.64 427.99,-36.92 431.08,-43.2"/>
</a>
</g>
</g>
<!-- 5 -->
<g id="node10" class="node">
<title>5</title>
<g id="a_node10"><a xlink:title="MessageQueueItem">
<polygon fill="#ffffff" stroke="black" points="836.11,-324 678.11,-324 678.11,-288 836.11,-288 836.11,-324"/>
<text text-anchor="middle" x="757.11" y="-302.3" font-family="Times,serif" font-size="14.00">MessageQueueItem</text>
</a>
</g>
</g>
<!-- 3&#45;&gt;5 -->
<g id="edge6" class="edge">
<title>3&#45;&gt;5</title>
<g id="a_edge6"><a xlink:title="usage">
<path fill="none" stroke="#1414ce" d="M633.23,-359.88C655.74,-350.26 684.02,-338.19 707.88,-328.01"/>
<polygon fill="#1414ce" stroke="#1414ce" points="709.29,-331.21 717.12,-324.07 706.55,-324.77 709.29,-331.21"/>
</a>
</g>
</g>
<!-- 14 -->
<g id="node11" class="node">
<title>14</title>
<g id="a_node11"><a xlink:title="Module">
<polygon fill="#ffffff" stroke="black" points="951.11,-324 881.11,-324 881.11,-288 951.11,-288 951.11,-324"/>
<text text-anchor="middle" x="916.11" y="-302.3" font-family="Times,serif" font-size="14.00">Module</text>
</a>
</g>
</g>
<!-- 3&#45;&gt;14 -->
<g id="edge11" class="edge">
<title>3&#45;&gt;14</title>
<g id="a_edge11"><a xlink:title="usage">
<path fill="none" stroke="#1414ce" d="M652.81,-367.34C707.82,-357.95 791.52,-342.44 863.11,-324 865.74,-323.32 868.43,-322.59 871.13,-321.82"/>
<polygon fill="#1414ce" stroke="#1414ce" points="872.33,-325.12 880.92,-318.92 870.34,-318.4 872.33,-325.12"/>
</a>
</g>
</g>
<!-- 7 -->
<g id="node13" class="node">
<title>7</title>
<g id="a_node13"><a xlink:title="RefcBinaryQueueItem">
<polygon fill="#ffffff" stroke="black" points="528.11,-324 354.11,-324 354.11,-288 528.11,-288 528.11,-324"/>
<text text-anchor="middle" x="441.11" y="-302.3" font-family="Times,serif" font-size="14.00">RefcBinaryQueueItem</text>
</a>
</g>
</g>
<!-- 3&#45;&gt;7 -->
<g id="edge7" class="edge">
<title>3&#45;&gt;7</title>
<g id="a_edge7"><a xlink:title="usage">
<path fill="none" stroke="#1414ce" d="M555.92,-359.88C535.24,-350.35 509.3,-338.41 487.32,-328.28"/>
<polygon fill="#1414ce" stroke="#1414ce" points="488.72,-325.07 478.17,-324.07 485.79,-331.43 488.72,-325.07"/>
</a>
</g>
</g>
<!-- 4 -->
<g id="node15" class="node">
<title>4</title>
<g id="a_node15"><a xlink:title="SpinLock">
<polygon fill="#ffffff" stroke="black" points="1051.11,-324 969.11,-324 969.11,-288 1051.11,-288 1051.11,-324"/>
<text text-anchor="middle" x="1010.11" y="-302.3" font-family="Times,serif" font-size="14.00">SpinLock</text>
</a>
</g>
</g>
<!-- 3&#45;&gt;4 -->
<g id="edge5" class="edge">
<title>3&#45;&gt;4</title>
<g id="a_edge5"><a xlink:title="usage">
<path fill="none" stroke="#1414ce" d="M652.86,-371.79C723.95,-364.83 846.21,-350.46 959.23,-323.97"/>
<polygon fill="#1414ce" stroke="#1414ce" points="960.17,-327.34 969.08,-321.62 958.54,-320.53 960.17,-327.34"/>
</a>
</g>
</g>
<!-- 9 -->
<g id="node16" class="node">
<title>9</title>
<g id="a_node16"><a xlink:title="SyncList">
<polygon fill="#ffffff" stroke="black" points="585.11,-108 507.11,-108 507.11,-72 585.11,-72 585.11,-108"/>
<text text-anchor="middle" x="546.11" y="-86.3" font-family="Times,serif" font-size="14.00">SyncList</text>
</a>
</g>
</g>
<!-- 3&#45;&gt;9 -->
<g id="edge8" class="edge">
<title>3&#45;&gt;9</title>
<g id="a_edge8"><a xlink:title="usage">
<path fill="none" stroke="#1414ce" d="M596.95,-359.9C605.02,-320.34 620.72,-220.11 592.11,-144 588.21,-133.63 581.27,-123.94 573.95,-115.75"/>
<polygon fill="#1414ce" stroke="#1414ce" points="576.35,-113.19 566.9,-108.39 571.3,-118.04 576.35,-113.19"/>
</a>
</g>
</g>
<!-- 17 -->
<g id="node17" class="node">
<title>17</title>
<g id="a_node17"><a xlink:title="TimerList">
<polygon fill="#ffffff" stroke="black" points="691.11,-108 605.11,-108 605.11,-72 691.11,-72 691.11,-108"/>
<text text-anchor="middle" x="648.11" y="-86.3" font-family="Times,serif" font-size="14.00">TimerList</text>
</a>
</g>
</g>
<!-- 3&#45;&gt;17 -->
<g id="edge12" class="edge">
<title>3&#45;&gt;17</title>
<g id="a_edge12"><a xlink:title="usage">
<path fill="none" stroke="#1414ce" d="M603.29,-359.93C608.86,-349.82 615.36,-336.57 619.11,-324 640.65,-251.8 646.2,-162.39 647.62,-118.27"/>
<polygon fill="#1414ce" stroke="#1414ce" points="651.13,-118.15 647.9,-108.06 644.13,-117.96 651.13,-118.15"/>
</a>
</g>
</g>
<!-- 11&#45;&gt;11 -->
<g id="edge13" class="edge">
<title>11&#45;&gt;11</title>
<g id="a_edge13"><a xlink:title="usage">
<path fill="none" stroke="#1414ce" d="M102.46,-175.47C112.38,-175.07 120.11,-170.58 120.11,-162 120.11,-156.64 117.09,-152.87 112.41,-150.71"/>
<polygon fill="#1414ce" stroke="#1414ce" points="112.98,-147.25 102.46,-148.53 111.48,-154.09 112.98,-147.25"/>
</a>
</g>
</g>
<!-- 12&#45;&gt;11 -->
<g id="edge15" class="edge">
<title>12&#45;&gt;11</title>
<g id="a_edge15"><a xlink:title="usage">
<path fill="none" stroke="#1414ce" d="M69.11,-215.7C69.11,-207.98 69.11,-198.71 69.11,-190.11"/>
<polygon fill="#1414ce" stroke="#1414ce" points="72.61,-190.1 69.11,-180.1 65.61,-190.1 72.61,-190.1"/>
</a>
</g>
</g>
<!-- 12&#45;&gt;12 -->
<g id="edge14" class="edge">
<title>12&#45;&gt;12</title>
<g id="a_edge14"><a xlink:title="usage">
<path fill="none" stroke="#1414ce" d="M124.18,-246.85C134.68,-245.32 142.11,-241.03 142.11,-234 142.11,-229.5 139.06,-226.12 134.11,-223.87"/>
<polygon fill="#1414ce" stroke="#1414ce" points="134.75,-220.42 124.18,-221.15 132.9,-227.17 134.75,-220.42"/>
</a>
</g>
</g>
<!-- 2&#45;&gt;2 -->
<g id="edge16" class="edge">
<title>2&#45;&gt;2</title>
<g id="a_edge16"><a xlink:title="usage">
<path fill="none" stroke="#1414ce" d="M519.84,-31.31C530.01,-30.38 537.61,-25.95 537.61,-18 537.61,-12.91 534.49,-9.26 529.57,-7.05"/>
<polygon fill="#1414ce" stroke="#1414ce" points="530.39,-3.64 519.84,-4.69 528.73,-10.45 530.39,-3.64"/>
</a>
</g>
</g>
<!-- 16 -->
<g id="node8" class="node">
<title>16</title>
<g id="a_node8"><a xlink:title="LiteralEntry">
<polygon fill="#ffffff" stroke="black" points="1120.11,-252 1016.11,-252 1016.11,-216 1120.11,-216 1120.11,-252"/>
<text text-anchor="middle" x="1068.11" y="-230.3" font-family="Times,serif" font-size="14.00">LiteralEntry</text>
</a>
</g>
</g>
<!-- 6 -->
<g id="node9" class="node">
<title>6</title>
<g id="a_node9"><a xlink:title="MailboxMessage">
<polygon fill="#ffffff" stroke="black" points="815.61,-252 678.61,-252 678.61,-216 815.61,-216 815.61,-252"/>
<text text-anchor="middle" x="747.11" y="-230.3" font-family="Times,serif" font-size="14.00">MailboxMessage</text>
</a>
</g>
</g>
<!-- 6&#45;&gt;6 -->
<g id="edge17" class="edge">
<title>6&#45;&gt;6</title>
<g id="a_edge17"><a xlink:title="usage">
<path fill="none" stroke="#1414ce" d="M815.63,-246.37C826.32,-244.52 833.61,-240.4 833.61,-234 833.61,-229.8 830.47,-226.58 825.29,-224.34"/>
<polygon fill="#1414ce" stroke="#1414ce" points="826.21,-220.96 815.63,-221.63 824.31,-227.7 826.21,-220.96"/>
</a>
</g>
</g>
<!-- 5&#45;&gt;6 -->
<g id="edge19" class="edge">
<title>5&#45;&gt;6</title>
<g id="a_edge19"><a xlink:title="usage">
<path fill="none" stroke="#1414ce" d="M754.63,-287.7C753.53,-279.98 752.21,-270.71 750.98,-262.11"/>
<polygon fill="#1414ce" stroke="#1414ce" points="754.43,-261.51 749.55,-252.1 747.5,-262.5 754.43,-261.51"/>
</a>
</g>
</g>
<!-- 5&#45;&gt;5 -->
<g id="edge18" class="edge">
<title>5&#45;&gt;5</title>
<g id="a_edge18"><a xlink:title="usage">
<path fill="none" stroke="#1414ce" d="M836.27,-317.98C846.98,-315.97 854.11,-311.98 854.11,-306 854.11,-302.08 851.04,-299.01 845.9,-296.8"/>
<polygon fill="#1414ce" stroke="#1414ce" points="846.85,-293.43 836.27,-294.02 844.91,-300.15 846.85,-293.43"/>
</a>
</g>
</g>
<!-- 14&#45;&gt;15 -->
<g id="edge20" class="edge">
<title>14&#45;&gt;15</title>
<g id="a_edge20"><a xlink:title="usage">
<path fill="none" stroke="#1414ce" d="M918.33,-287.7C919.32,-279.98 920.52,-270.71 921.62,-262.11"/>
<polygon fill="#1414ce" stroke="#1414ce" points="925.1,-262.47 922.91,-252.1 918.16,-261.58 925.1,-262.47"/>
</a>
</g>
</g>
<!-- 14&#45;&gt;16 -->
<g id="edge21" class="edge">
<title>14&#45;&gt;16</title>
<g id="a_edge21"><a xlink:title="usage">
<path fill="none" stroke="#1414ce" d="M951.36,-288.76C972.4,-279.07 999.36,-266.66 1022.07,-256.2"/>
<polygon fill="#1414ce" stroke="#1414ce" points="1023.57,-259.36 1031.19,-252 1020.64,-253 1023.57,-259.36"/>
</a>
</g>
</g>
<!-- 8 -->
<g id="node12" class="node">
<title>8</title>
<g id="a_node12"><a xlink:title="RefcBinary">
<polygon fill="#ffffff" stroke="black" points="488.61,-252 393.61,-252 393.61,-216 488.61,-216 488.61,-252"/>
<text text-anchor="middle" x="441.11" y="-230.3" font-family="Times,serif" font-size="14.00">RefcBinary</text>
</a>
</g>
</g>
<!-- 8&#45;&gt;2 -->
<g id="edge22" class="edge">
<title>8&#45;&gt;2</title>
<g id="a_edge22"><a xlink:title="usage">
<path fill="none" stroke="#1414ce" d="M444.15,-215.85C450.74,-178.75 466.36,-90.81 474.29,-46.1"/>
<polygon fill="#1414ce" stroke="#1414ce" points="477.74,-46.69 476.05,-36.23 470.85,-45.47 477.74,-46.69"/>
</a>
</g>
</g>
<!-- 1 -->
<g id="node14" class="node">
<title>1</title>
<g id="a_node14"><a xlink:title="ResourceType">
<polygon fill="#bfbfbf" stroke="black" points="583.61,-180 466.61,-180 466.61,-144 583.61,-144 583.61,-180"/>
<text text-anchor="middle" x="525.11" y="-158.3" font-family="Times,serif" font-size="14.00">ResourceType</text>
</a>
</g>
</g>
<!-- 8&#45;&gt;1 -->
<g id="edge23" class="edge">
<title>8&#45;&gt;1</title>
<g id="a_edge23"><a xlink:title="usage">
<path fill="none" stroke="#1414ce" d="M461.87,-215.7C472.35,-206.97 485.22,-196.24 496.61,-186.75"/>
<polygon fill="#1414ce" stroke="#1414ce" points="499.14,-189.19 504.58,-180.1 494.66,-183.82 499.14,-189.19"/>
</a>
</g>
</g>
<!-- 7&#45;&gt;8 -->
<g id="edge25" class="edge">
<title>7&#45;&gt;8</title>
<g id="a_edge25"><a xlink:title="usage">
<path fill="none" stroke="#1414ce" d="M441.11,-287.7C441.11,-279.98 441.11,-270.71 441.11,-262.11"/>
<polygon fill="#1414ce" stroke="#1414ce" points="444.61,-262.1 441.11,-252.1 437.61,-262.1 444.61,-262.1"/>
</a>
</g>
</g>
<!-- 7&#45;&gt;7 -->
<g id="edge24" class="edge">
<title>7&#45;&gt;7</title>
<g id="a_edge24"><a xlink:title="usage">
<path fill="none" stroke="#1414ce" d="M528.41,-317.68C539.1,-315.59 546.11,-311.7 546.11,-306 546.11,-302.35 543.23,-299.44 538.35,-297.27"/>
<polygon fill="#1414ce" stroke="#1414ce" points="538.99,-293.81 528.41,-294.32 537,-300.52 538.99,-293.81"/>
</a>
</g>
</g>
<!-- 1&#45;&gt;3 -->
<g id="edge27" class="edge">
<title>1&#45;&gt;3</title>
<g id="a_edge27"><a xlink:title="usage">
<path fill="none" stroke="#1414ce" d="M530.58,-180.23C542.42,-217.48 570.46,-305.72 584.62,-350.28"/>
<polygon fill="#1414ce" stroke="#1414ce" points="581.29,-351.38 587.66,-359.85 587.96,-349.26 581.29,-351.38"/>
</a>
</g>
</g>
<!-- 1&#45;&gt;2 -->
<g id="edge26" class="edge">
<title>1&#45;&gt;2</title>
<g id="a_edge26"><a xlink:title="usage">
<path fill="none" stroke="#1414ce" d="M514.92,-143.84C509.27,-133.71 502.52,-120.46 498.11,-108 490.95,-87.8 486.04,-64.03 483.01,-46.13"/>
<polygon fill="#1414ce" stroke="#1414ce" points="486.44,-45.41 481.4,-36.09 479.53,-46.52 486.44,-45.41"/>
</a>
</g>
</g>
<!-- 1&#45;&gt;9 -->
<g id="edge28" class="edge">
<title>1&#45;&gt;9</title>
<g id="a_edge28"><a xlink:title="usage">
<path fill="none" stroke="#1414ce" d="M530.3,-143.7C532.64,-135.9 535.45,-126.51 538.06,-117.83"/>
<polygon fill="#1414ce" stroke="#1414ce" points="541.45,-118.69 540.98,-108.1 534.75,-116.68 541.45,-118.69"/>
</a>
</g>
</g>
<!-- 9&#45;&gt;2 -->
<g id="edge29" class="edge">
<title>9&#45;&gt;2</title>
<g id="a_edge29"><a xlink:title="usage">
<path fill="none" stroke="#1414ce" d="M529.54,-71.7C521.43,-63.22 511.52,-52.86 502.64,-43.58"/>
<polygon fill="#1414ce" stroke="#1414ce" points="504.92,-40.91 495.48,-36.1 499.86,-45.75 504.92,-40.91"/>
</a>
</g>
</g>
<!-- 17&#45;&gt;2 -->
<g id="edge30" class="edge">
<title>17&#45;&gt;2</title>
<g id="a_edge30"><a xlink:title="usage">
<path fill="none" stroke="#1414ce" d="M606.76,-71.88C583.39,-62.19 553.98,-50.01 529.29,-39.79"/>
<polygon fill="#1414ce" stroke="#1414ce" points="530.31,-36.42 519.73,-35.83 527.63,-42.89 530.31,-36.42"/>
</a>
</g>
</g>
</g>
</svg>
