<?xml version="1.0" encoding="UTF-8" standalone="no"?>
<!DOCTYPE svg PUBLIC "-//W3C//DTD SVG 1.1//EN"
 "http://www.w3.org/Graphics/SVG/1.1/DTD/svg11.dtd">
<!-- Generated by graphviz version 2.43.0 (0)
 -->
<!-- Title: %3 Pages: 1 -->
<svg width="1480pt" height="548pt"
 viewBox="0.00 0.00 1480.00 548.00" xmlns="http://www.w3.org/2000/svg" xmlns:xlink="http://www.w3.org/1999/xlink">
<g id="graph0" class="graph" transform="scale(1 1) rotate(0) translate(4 544)">
<title>%3</title>
<polygon fill="transparent" stroke="transparent" points="-4,4 -4,-544 1476,-544 1476,4 -4,4"/>
<!-- 13 -->
<g id="node1" class="node">
<title>13</title>
<g id="a_node1"><a xlink:title="AtomTable">
<polygon fill="#ffffff" stroke="black" points="326,-324 234,-324 234,-288 326,-288 326,-324"/>
<text text-anchor="middle" x="280" y="-302.3" font-family="Times,serif" font-size="14.00">AtomTable</text>
</a>
</g>
</g>
<!-- 14 -->
<g id="node6" class="node">
<title>14</title>
<g id="a_node6"><a xlink:title="HNode">
<polygon fill="#ffffff" stroke="black" points="331,-180 265,-180 265,-144 331,-144 331,-180"/>
<text text-anchor="middle" x="298" y="-158.3" font-family="Times,serif" font-size="14.00">HNode</text>
</a>
</g>
</g>
<!-- 13&#45;&gt;14 -->
<g id="edge1" class="edge">
<title>13&#45;&gt;14</title>
<g id="a_edge1"><a xlink:title="usage">
<path fill="none" stroke="#1414ce" d="M282.17,-287.87C285.24,-263.67 290.87,-219.21 294.53,-190.39"/>
<polygon fill="#1414ce" stroke="#1414ce" points="298.04,-190.55 295.82,-180.19 291.09,-189.67 298.04,-190.55"/>
</a>
</g>
</g>
<!-- 15 -->
<g id="node7" class="node">
<title>15</title>
<g id="a_node7"><a xlink:title="HNodeGroup">
<polygon fill="#ffffff" stroke="black" points="252,-252 142,-252 142,-216 252,-216 252,-252"/>
<text text-anchor="middle" x="197" y="-230.3" font-family="Times,serif" font-size="14.00">HNodeGroup</text>
</a>
</g>
</g>
<!-- 13&#45;&gt;15 -->
<g id="edge2" class="edge">
<title>13&#45;&gt;15</title>
<g id="a_edge2"><a xlink:title="usage">
<path fill="none" stroke="#1414ce" d="M259.48,-287.7C249.13,-278.97 236.41,-268.24 225.16,-258.75"/>
<polygon fill="#1414ce" stroke="#1414ce" points="227.18,-255.88 217.28,-252.1 222.67,-261.23 227.18,-255.88"/>
</a>
</g>
</g>
<!-- 16 -->
<g id="node2" class="node">
<title>16</title>
<g id="a_node2"><a xlink:title="AtomsHashTable">
<polygon fill="#ffffff" stroke="black" points="463.5,-252 326.5,-252 326.5,-216 463.5,-216 463.5,-252"/>
<text text-anchor="middle" x="395" y="-230.3" font-family="Times,serif" font-size="14.00">AtomsHashTable</text>
</a>
</g>
</g>
<!-- 16&#45;&gt;14 -->
<g id="edge3" class="edge">
<title>16&#45;&gt;14</title>
<g id="a_edge3"><a xlink:title="usage">
<path fill="none" stroke="#1414ce" d="M371.02,-215.7C358.69,-206.8 343.48,-195.82 330.15,-186.2"/>
<polygon fill="#1414ce" stroke="#1414ce" points="331.86,-183.12 321.7,-180.1 327.76,-188.79 331.86,-183.12"/>
</a>
</g>
</g>
<!-- 3 -->
<g id="node3" class="node">
<title>3</title>
<g id="a_node3"><a xlink:title="Context">
<polygon fill="#ffffff" stroke="black" points="1109.5,-468 1036.5,-468 1036.5,-432 1109.5,-432 1109.5,-468"/>
<text text-anchor="middle" x="1073" y="-446.3" font-family="Times,serif" font-size="14.00">Context</text>
</a>
</g>
</g>
<!-- 3&#45;&gt;3 -->
<g id="edge10" class="edge">
<title>3&#45;&gt;3</title>
<g id="a_edge10"><a xlink:title="usage">
<path fill="none" stroke="#1414ce" d="M1109.68,-463.42C1119.78,-462.77 1127.5,-458.3 1127.5,-450 1127.5,-444.81 1124.48,-441.12 1119.76,-438.93"/>
<polygon fill="#1414ce" stroke="#1414ce" points="1120.21,-435.44 1109.68,-436.58 1118.63,-442.26 1120.21,-435.44"/>
</a>
</g>
</g>
<!-- 4 -->
<g id="node5" class="node">
<title>4</title>
<g id="a_node5"><a xlink:title="GlobalContext">
<polygon fill="#ffffff" stroke="black" points="551.5,-396 432.5,-396 432.5,-360 551.5,-360 551.5,-396"/>
<text text-anchor="middle" x="492" y="-374.3" font-family="Times,serif" font-size="14.00">GlobalContext</text>
</a>
</g>
</g>
<!-- 3&#45;&gt;4 -->
<g id="edge4" class="edge">
<title>3&#45;&gt;4</title>
<g id="a_edge4"><a xlink:title="usage">
<path fill="none" stroke="#1414ce" d="M1036.22,-444.57C941.11,-433.11 685.85,-402.36 561.71,-387.4"/>
<polygon fill="#1414ce" stroke="#1414ce" points="561.9,-383.9 551.56,-386.18 561.07,-390.85 561.9,-383.9"/>
</a>
</g>
</g>
<!-- 20 -->
<g id="node8" class="node">
<title>20</title>
<g id="a_node8"><a xlink:title="Heap">
<polygon fill="#ffffff" stroke="black" points="1185,-396 1131,-396 1131,-360 1185,-360 1185,-396"/>
<text text-anchor="middle" x="1158" y="-374.3" font-family="Times,serif" font-size="14.00">Heap</text>
</a>
</g>
</g>
<!-- 3&#45;&gt;20 -->
<g id="edge5" class="edge">
<title>3&#45;&gt;20</title>
<g id="a_edge5"><a xlink:title="usage">
<path fill="none" stroke="#1414ce" d="M1094.01,-431.7C1104.72,-422.88 1117.89,-412.03 1129.5,-402.47"/>
<polygon fill="#1414ce" stroke="#1414ce" points="1131.74,-405.16 1137.23,-396.1 1127.29,-399.76 1131.74,-405.16"/>
</a>
</g>
</g>
<!-- 5 -->
<g id="node10" class="node">
<title>5</title>
<g id="a_node10"><a xlink:title="ListHead">
<polygon fill="#ffffff" stroke="black" points="667.5,-36 586.5,-36 586.5,0 667.5,0 667.5,-36"/>
<text text-anchor="middle" x="627" y="-14.3" font-family="Times,serif" font-size="14.00">ListHead</text>
</a>
</g>
</g>
<!-- 3&#45;&gt;5 -->
<g id="edge6" class="edge">
<title>3&#45;&gt;5</title>
<g id="a_edge6"><a xlink:title="usage">
<path fill="none" stroke="#1414ce" d="M1109.65,-443.15C1173.41,-430.66 1298,-394.99 1298,-307 1298,-307 1298,-307 1298,-161 1298,-34.34 834.63,-20.13 678.01,-18.94"/>
<polygon fill="#1414ce" stroke="#1414ce" points="677.73,-15.44 667.71,-18.88 677.69,-22.44 677.73,-15.44"/>
</a>
</g>
</g>
<!-- 23 -->
<g id="node12" class="node">
<title>23</title>
<g id="a_node12"><a xlink:title="Mailbox">
<polygon fill="#ffffff" stroke="black" points="982,-396 908,-396 908,-360 982,-360 982,-396"/>
<text text-anchor="middle" x="945" y="-374.3" font-family="Times,serif" font-size="14.00">Mailbox</text>
</a>
</g>
</g>
<!-- 3&#45;&gt;23 -->
<g id="edge9" class="edge">
<title>3&#45;&gt;23</title>
<g id="a_edge9"><a xlink:title="usage">
<path fill="none" stroke="#1414ce" d="M1041.69,-431.88C1024.8,-422.64 1003.75,-411.13 985.62,-401.21"/>
<polygon fill="#1414ce" stroke="#1414ce" points="986.89,-397.92 976.43,-396.19 983.53,-404.06 986.89,-397.92"/>
</a>
</g>
</g>
<!-- 17 -->
<g id="node15" class="node">
<title>17</title>
<g id="a_node15"><a xlink:title="Module">
<polygon fill="#ffffff" stroke="black" points="1108,-324 1038,-324 1038,-288 1108,-288 1108,-324"/>
<text text-anchor="middle" x="1073" y="-302.3" font-family="Times,serif" font-size="14.00">Module</text>
</a>
</g>
</g>
<!-- 3&#45;&gt;17 -->
<g id="edge8" class="edge">
<title>3&#45;&gt;17</title>
<g id="a_edge8"><a xlink:title="usage">
<path fill="none" stroke="#1414ce" d="M1073,-431.87C1073,-407.67 1073,-363.21 1073,-334.39"/>
<polygon fill="#1414ce" stroke="#1414ce" points="1076.5,-334.19 1073,-324.19 1069.5,-334.19 1076.5,-334.19"/>
</a>
</g>
</g>
<!-- 22 -->
<g id="node23" class="node">
<title>22</title>
<g id="a_node23"><a xlink:title="TimerListItem">
<polygon fill="#ffffff" stroke="black" points="941.5,-108 822.5,-108 822.5,-72 941.5,-72 941.5,-108"/>
<text text-anchor="middle" x="882" y="-86.3" font-family="Times,serif" font-size="14.00">TimerListItem</text>
</a>
</g>
</g>
<!-- 3&#45;&gt;22 -->
<g id="edge7" class="edge">
<title>3&#45;&gt;22</title>
<g id="a_edge7"><a xlink:title="usage">
<path fill="none" stroke="#1414ce" d="M1059.64,-431.72C1041.15,-406.03 1010,-355.55 1010,-307 1010,-307 1010,-307 1010,-233 1010,-180 960.19,-137.86 922.71,-113.66"/>
<polygon fill="#1414ce" stroke="#1414ce" points="924.3,-110.53 913.97,-108.19 920.59,-116.46 924.3,-110.53"/>
</a>
</g>
</g>
<!-- 2 -->
<g id="node4" class="node">
<title>2</title>
<g id="a_node4"><a xlink:title="ExportedFunction">
<polygon fill="#ffffff" stroke="black" points="1472,-252 1326,-252 1326,-216 1472,-216 1472,-252"/>
<text text-anchor="middle" x="1399" y="-230.3" font-family="Times,serif" font-size="14.00">ExportedFunction</text>
</a>
</g>
</g>
<!-- 4&#45;&gt;13 -->
<g id="edge16" class="edge">
<title>4&#45;&gt;13</title>
<g id="a_edge16"><a xlink:title="usage">
<path fill="none" stroke="#1414ce" d="M440.41,-359.97C408.75,-349.51 368.22,-336.13 335.81,-325.43"/>
<polygon fill="#1414ce" stroke="#1414ce" points="336.63,-322.01 326.04,-322.2 334.43,-328.66 336.63,-322.01"/>
</a>
</g>
</g>
<!-- 4&#45;&gt;16 -->
<g id="edge17" class="edge">
<title>4&#45;&gt;16</title>
<g id="a_edge17"><a xlink:title="usage">
<path fill="none" stroke="#1414ce" d="M432.32,-364.99C409.78,-357.24 386.36,-344.58 373,-324 360.69,-305.04 368.81,-279.73 378.48,-260.95"/>
<polygon fill="#1414ce" stroke="#1414ce" points="381.62,-262.49 383.42,-252.05 375.5,-259.09 381.62,-262.49"/>
</a>
</g>
</g>
<!-- 4&#45;&gt;5 -->
<g id="edge11" class="edge">
<title>4&#45;&gt;5</title>
<g id="a_edge11"><a xlink:title="usage">
<path fill="none" stroke="#1414ce" d="M492,-359.95C492,-333.29 492,-280.11 492,-235 492,-235 492,-235 492,-161 492,-120.46 486.51,-103.52 512,-72 528.27,-51.88 553.88,-39.06 576.81,-31.08"/>
<polygon fill="#1414ce" stroke="#1414ce" points="578.01,-34.37 586.44,-27.95 575.85,-27.71 578.01,-34.37"/>
</a>
</g>
</g>
<!-- 7 -->
<g id="node14" class="node">
<title>7</title>
<g id="a_node14"><a xlink:title="MessageQueueItem">
<polygon fill="#ffffff" stroke="black" points="926,-324 768,-324 768,-288 926,-288 926,-324"/>
<text text-anchor="middle" x="847" y="-302.3" font-family="Times,serif" font-size="14.00">MessageQueueItem</text>
</a>
</g>
</g>
<!-- 4&#45;&gt;7 -->
<g id="edge13" class="edge">
<title>4&#45;&gt;7</title>
<g id="a_edge13"><a xlink:title="usage">
<path fill="none" stroke="#1414ce" d="M551.82,-365.2C608.18,-354.09 693.36,-337.29 757.75,-324.6"/>
<polygon fill="#1414ce" stroke="#1414ce" points="758.77,-327.97 767.9,-322.6 757.41,-321.1 758.77,-327.97"/>
</a>
</g>
</g>
<!-- 4&#45;&gt;17 -->
<g id="edge18" class="edge">
<title>4&#45;&gt;17</title>
<g id="a_edge18"><a xlink:title="usage">
<path fill="none" stroke="#1414ce" d="M551.74,-370.64C639.69,-361.16 809.17,-342.45 953,-324 977.79,-320.82 1005.42,-316.93 1027.91,-313.67"/>
<polygon fill="#1414ce" stroke="#1414ce" points="1028.46,-317.13 1037.85,-312.23 1027.45,-310.2 1028.46,-317.13"/>
</a>
</g>
</g>
<!-- 9 -->
<g id="node18" class="node">
<title>9</title>
<g id="a_node18"><a xlink:title="RefcBinaryQueueItem">
<polygon fill="#ffffff" stroke="black" points="732,-324 558,-324 558,-288 732,-288 732,-324"/>
<text text-anchor="middle" x="645" y="-302.3" font-family="Times,serif" font-size="14.00">RefcBinaryQueueItem</text>
</a>
</g>
</g>
<!-- 4&#45;&gt;9 -->
<g id="edge14" class="edge">
<title>4&#45;&gt;9</title>
<g id="a_edge14"><a xlink:title="usage">
<path fill="none" stroke="#1414ce" d="M529.43,-359.88C550.25,-350.35 576.35,-338.41 598.48,-328.28"/>
<polygon fill="#1414ce" stroke="#1414ce" points="600.06,-331.41 607.69,-324.07 597.14,-325.05 600.06,-331.41"/>
</a>
</g>
</g>
<!-- 6 -->
<g id="node20" class="node">
<title>6</title>
<g id="a_node20"><a xlink:title="SpinLock">
<polygon fill="#ffffff" stroke="black" points="464,-324 382,-324 382,-288 464,-288 464,-324"/>
<text text-anchor="middle" x="423" y="-302.3" font-family="Times,serif" font-size="14.00">SpinLock</text>
</a>
</g>
</g>
<!-- 4&#45;&gt;6 -->
<g id="edge12" class="edge">
<title>4&#45;&gt;6</title>
<g id="a_edge12"><a xlink:title="usage">
<path fill="none" stroke="#1414ce" d="M474.94,-359.7C466.5,-351.14 456.18,-340.66 446.96,-331.3"/>
<polygon fill="#1414ce" stroke="#1414ce" points="449.37,-328.77 439.86,-324.1 444.39,-333.68 449.37,-328.77"/>
</a>
</g>
</g>
<!-- 12 -->
<g id="node21" class="node">
<title>12</title>
<g id="a_node21"><a xlink:title="SyncList">
<polygon fill="#ffffff" stroke="black" points="599,-108 521,-108 521,-72 599,-72 599,-108"/>
<text text-anchor="middle" x="560" y="-86.3" font-family="Times,serif" font-size="14.00">SyncList</text>
</a>
</g>
</g>
<!-- 4&#45;&gt;12 -->
<g id="edge15" class="edge">
<title>4&#45;&gt;12</title>
<g id="a_edge15"><a xlink:title="usage">
<path fill="none" stroke="#1414ce" d="M432.47,-373.86C314.11,-365.07 66.15,-332.59 133,-216 164.51,-161.05 196.52,-165.79 256,-144 342.31,-112.39 449.48,-99.34 510.78,-94.18"/>
<polygon fill="#1414ce" stroke="#1414ce" points="511.26,-97.65 520.95,-93.36 510.7,-90.67 511.26,-97.65"/>
</a>
</g>
</g>
<!-- 19 -->
<g id="node22" class="node">
<title>19</title>
<g id="a_node22"><a xlink:title="TimerList">
<polygon fill="#ffffff" stroke="black" points="86,-180 0,-180 0,-144 86,-144 86,-180"/>
<text text-anchor="middle" x="43" y="-158.3" font-family="Times,serif" font-size="14.00">TimerList</text>
</a>
</g>
</g>
<!-- 4&#45;&gt;19 -->
<g id="edge19" class="edge">
<title>4&#45;&gt;19</title>
<g id="a_edge19"><a xlink:title="usage">
<path fill="none" stroke="#1414ce" d="M432.39,-376.34C335.53,-374.09 149.76,-364.44 100,-324 59.44,-291.04 47.71,-227.14 44.34,-190.53"/>
<polygon fill="#1414ce" stroke="#1414ce" points="47.8,-189.82 43.54,-180.11 40.82,-190.35 47.8,-189.82"/>
</a>
</g>
</g>
<!-- 14&#45;&gt;14 -->
<g id="edge20" class="edge">
<title>14&#45;&gt;14</title>
<g id="a_edge20"><a xlink:title="usage">
<path fill="none" stroke="#1414ce" d="M331.35,-175.47C341.28,-175.07 349,-170.58 349,-162 349,-156.64 345.98,-152.87 341.3,-150.71"/>
<polygon fill="#1414ce" stroke="#1414ce" points="341.87,-147.25 331.35,-148.53 340.37,-154.09 341.87,-147.25"/>
</a>
</g>
</g>
<!-- 15&#45;&gt;14 -->
<g id="edge22" class="edge">
<title>15&#45;&gt;14</title>
<g id="a_edge22"><a xlink:title="usage">
<path fill="none" stroke="#1414ce" d="M221.71,-215.88C234.67,-206.89 250.73,-195.76 264.77,-186.03"/>
<polygon fill="#1414ce" stroke="#1414ce" points="266.97,-188.76 273.2,-180.19 262.98,-183.01 266.97,-188.76"/>
</a>
</g>
</g>
<!-- 15&#45;&gt;15 -->
<g id="edge21" class="edge">
<title>15&#45;&gt;15</title>
<g id="a_edge21"><a xlink:title="usage">
<path fill="none" stroke="#1414ce" d="M252.07,-246.85C262.57,-245.32 270,-241.03 270,-234 270,-229.5 266.95,-226.12 262,-223.87"/>
<polygon fill="#1414ce" stroke="#1414ce" points="262.64,-220.42 252.07,-221.15 260.79,-227.17 262.64,-220.42"/>
</a>
</g>
</g>
<!-- 21 -->
<g id="node9" class="node">
<title>21</title>
<g id="a_node9"><a xlink:title="HeapFragment">
<polygon fill="#ffffff" stroke="black" points="1251.5,-324 1126.5,-324 1126.5,-288 1251.5,-288 1251.5,-324"/>
<text text-anchor="middle" x="1189" y="-302.3" font-family="Times,serif" font-size="14.00">HeapFragment</text>
</a>
</g>
</g>
<!-- 20&#45;&gt;21 -->
<g id="edge23" class="edge">
<title>20&#45;&gt;21</title>
<g id="a_edge23"><a xlink:title="usage">
<path fill="none" stroke="#1414ce" d="M1165.66,-359.7C1169.19,-351.73 1173.46,-342.1 1177.37,-333.26"/>
<polygon fill="#1414ce" stroke="#1414ce" points="1180.58,-334.67 1181.43,-324.1 1174.18,-331.83 1180.58,-334.67"/>
</a>
</g>
</g>
<!-- 21&#45;&gt;21 -->
<g id="edge24" class="edge">
<title>21&#45;&gt;21</title>
<g id="a_edge24"><a xlink:title="usage">
<path fill="none" stroke="#1414ce" d="M1251.78,-318.55C1262.26,-316.79 1269.5,-312.61 1269.5,-306 1269.5,-301.77 1266.53,-298.53 1261.64,-296.29"/>
<polygon fill="#1414ce" stroke="#1414ce" points="1262.36,-292.85 1251.78,-293.45 1260.42,-299.58 1262.36,-292.85"/>
</a>
</g>
</g>
<!-- 5&#45;&gt;5 -->
<g id="edge25" class="edge">
<title>5&#45;&gt;5</title>
<g id="a_edge25"><a xlink:title="usage">
<path fill="none" stroke="#1414ce" d="M667.73,-31.31C677.9,-30.38 685.5,-25.95 685.5,-18 685.5,-12.91 682.38,-9.26 677.47,-7.05"/>
<polygon fill="#1414ce" stroke="#1414ce" points="678.28,-3.64 667.73,-4.69 676.63,-10.45 678.28,-3.64"/>
</a>
</g>
</g>
<!-- 18 -->
<g id="node11" class="node">
<title>18</title>
<g id="a_node11"><a xlink:title="LiteralEntry">
<polygon fill="#ffffff" stroke="black" points="1142,-252 1038,-252 1038,-216 1142,-216 1142,-252"/>
<text text-anchor="middle" x="1090" y="-230.3" font-family="Times,serif" font-size="14.00">LiteralEntry</text>
</a>
</g>
</g>
<!-- 8 -->
<g id="node13" class="node">
<title>8</title>
<g id="a_node13"><a xlink:title="MailboxMessage">
<polygon fill="#ffffff" stroke="black" points="939.5,-252 802.5,-252 802.5,-216 939.5,-216 939.5,-252"/>
<text text-anchor="middle" x="871" y="-230.3" font-family="Times,serif" font-size="14.00">MailboxMessage</text>
</a>
</g>
</g>
<!-- 23&#45;&gt;8 -->
<g id="edge26" class="edge">
<title>23&#45;&gt;8</title>
<g id="a_edge26"><a xlink:title="usage">
<path fill="none" stroke="#1414ce" d="M951.95,-359.78C958.38,-340.96 965.24,-310.48 953,-288 946.09,-275.3 934.68,-265.18 922.54,-257.33"/>
<polygon fill="#1414ce" stroke="#1414ce" points="924,-254.13 913.62,-252.01 920.41,-260.14 924,-254.13"/>
</a>
</g>
</g>
<!-- 8&#45;&gt;8 -->
<g id="edge27" class="edge">
<title>8&#45;&gt;8</title>
<g id="a_edge27"><a xlink:title="usage">
<path fill="none" stroke="#1414ce" d="M939.53,-246.37C950.21,-244.52 957.5,-240.4 957.5,-234 957.5,-229.8 954.36,-226.58 949.18,-224.34"/>
<polygon fill="#1414ce" stroke="#1414ce" points="950.1,-220.96 939.53,-221.63 948.21,-227.7 950.1,-220.96"/>
</a>
</g>
</g>
<!-- 7&#45;&gt;8 -->
<g id="edge29" class="edge">
<title>7&#45;&gt;8</title>
<g id="a_edge29"><a xlink:title="usage">
<path fill="none" stroke="#1414ce" d="M852.93,-287.7C855.61,-279.9 858.83,-270.51 861.8,-261.83"/>
<polygon fill="#1414ce" stroke="#1414ce" points="865.2,-262.7 865.14,-252.1 858.58,-260.43 865.2,-262.7"/>
</a>
</g>
</g>
<!-- 7&#45;&gt;7 -->
<g id="edge28" class="edge">
<title>7&#45;&gt;7</title>
<g id="a_edge28"><a xlink:title="usage">
<path fill="none" stroke="#1414ce" d="M926.16,-317.98C936.87,-315.97 944,-311.98 944,-306 944,-302.08 940.93,-299.01 935.79,-296.8"/>
<polygon fill="#1414ce" stroke="#1414ce" points="936.74,-293.43 926.16,-294.02 934.8,-300.15 936.74,-293.43"/>
</a>
</g>
</g>
<!-- 17&#45;&gt;2 -->
<g id="edge30" class="edge">
<title>17&#45;&gt;2</title>
<g id="a_edge30"><a xlink:title="usage">
<path fill="none" stroke="#1414ce" d="M1108.18,-291.04C1111.47,-289.94 1114.78,-288.9 1118,-288 1183.49,-269.61 1259.38,-255.72 1315.77,-246.78"/>
<polygon fill="#1414ce" stroke="#1414ce" points="1316.37,-250.23 1325.71,-245.23 1315.29,-243.32 1316.37,-250.23"/>
</a>
</g>
</g>
<!-- 17&#45;&gt;18 -->
<g id="edge31" class="edge">
<title>17&#45;&gt;18</title>
<g id="a_edge31"><a xlink:title="usage">
<path fill="none" stroke="#1414ce" d="M1077.2,-287.7C1079.1,-279.9 1081.38,-270.51 1083.48,-261.83"/>
<polygon fill="#1414ce" stroke="#1414ce" points="1086.89,-262.65 1085.85,-252.1 1080.08,-261 1086.89,-262.65"/>
</a>
</g>
</g>
<!-- 1 -->
<g id="node16" class="node">
<title>1</title>
<g id="a_node16"><a xlink:title="Nif">
<polygon fill="#bfbfbf" stroke="black" points="1263,-540 1209,-540 1209,-504 1263,-504 1263,-540"/>
<text text-anchor="middle" x="1236" y="-518.3" font-family="Times,serif" font-size="14.00">Nif</text>
</a>
</g>
</g>
<!-- 1&#45;&gt;3 -->
<g id="edge33" class="edge">
<title>1&#45;&gt;3</title>
<g id="a_edge33"><a xlink:title="usage">
<path fill="none" stroke="#1414ce" d="M1208.72,-509.28C1184.29,-498.79 1147.97,-483.2 1119.05,-470.78"/>
<polygon fill="#1414ce" stroke="#1414ce" points="1120.12,-467.43 1109.55,-466.7 1117.36,-473.86 1120.12,-467.43"/>
</a>
</g>
</g>
<!-- 1&#45;&gt;2 -->
<g id="edge32" class="edge">
<title>1&#45;&gt;2</title>
<g id="a_edge32"><a xlink:title="usage">
<path fill="none" stroke="#1414ce" d="M1246.85,-503.78C1261.86,-479.82 1289.63,-434.99 1312,-396 1338.94,-349.05 1368.55,-293.28 1385.35,-261.23"/>
<polygon fill="#1414ce" stroke="#1414ce" points="1388.6,-262.56 1390.14,-252.08 1382.4,-259.32 1388.6,-262.56"/>
</a>
</g>
</g>
<!-- 10 -->
<g id="node17" class="node">
<title>10</title>
<g id="a_node17"><a xlink:title="RefcBinary">
<polygon fill="#ffffff" stroke="black" points="692.5,-252 597.5,-252 597.5,-216 692.5,-216 692.5,-252"/>
<text text-anchor="middle" x="645" y="-230.3" font-family="Times,serif" font-size="14.00">RefcBinary</text>
</a>
</g>
</g>
<!-- 10&#45;&gt;5 -->
<g id="edge34" class="edge">
<title>10&#45;&gt;5</title>
<g id="a_edge34"><a xlink:title="usage">
<path fill="none" stroke="#1414ce" d="M645.81,-215.82C646.26,-205.45 646.77,-191.97 647,-180 647.3,-164 648.27,-159.95 647,-144 644.3,-110.07 637.55,-71.44 632.63,-46.22"/>
<polygon fill="#1414ce" stroke="#1414ce" points="636.04,-45.41 630.66,-36.29 629.18,-46.78 636.04,-45.41"/>
</a>
</g>
</g>
<!-- 11 -->
<g id="node19" class="node">
<title>11</title>
<g id="a_node19"><a xlink:title="ResourceType">
<polygon fill="#ffffff" stroke="black" points="637.5,-180 520.5,-180 520.5,-144 637.5,-144 637.5,-180"/>
<text text-anchor="middle" x="579" y="-158.3" font-family="Times,serif" font-size="14.00">ResourceType</text>
</a>
</g>
</g>
<!-- 10&#45;&gt;11 -->
<g id="edge35" class="edge">
<title>10&#45;&gt;11</title>
<g id="a_edge35"><a xlink:title="usage">
<path fill="none" stroke="#1414ce" d="M628.69,-215.7C620.69,-207.22 610.93,-196.86 602.18,-187.58"/>
<polygon fill="#1414ce" stroke="#1414ce" points="604.53,-184.98 595.13,-180.1 599.44,-189.78 604.53,-184.98"/>
</a>
</g>
</g>
<!-- 9&#45;&gt;10 -->
<g id="edge37" class="edge">
<title>9&#45;&gt;10</title>
<g id="a_edge37"><a xlink:title="usage">
<path fill="none" stroke="#1414ce" d="M645,-287.7C645,-279.98 645,-270.71 645,-262.11"/>
<polygon fill="#1414ce" stroke="#1414ce" points="648.5,-262.1 645,-252.1 641.5,-262.1 648.5,-262.1"/>
</a>
</g>
</g>
<!-- 9&#45;&gt;9 -->
<g id="edge36" class="edge">
<title>9&#45;&gt;9</title>
<g id="a_edge36"><a xlink:title="usage">
<path fill="none" stroke="#1414ce" d="M732.3,-317.68C742.99,-315.59 750,-311.7 750,-306 750,-302.35 747.12,-299.44 742.25,-297.27"/>
<polygon fill="#1414ce" stroke="#1414ce" points="742.88,-293.81 732.3,-294.32 740.89,-300.52 742.88,-293.81"/>
</a>
</g>
</g>
<!-- 11&#45;&gt;4 -->
<g id="edge39" class="edge">
<title>11&#45;&gt;4</title>
<g id="a_edge39"><a xlink:title="usage">
<path fill="none" stroke="#1414ce" d="M571.99,-180.23C556.82,-217.56 520.83,-306.09 502.75,-350.56"/>
<polygon fill="#1414ce" stroke="#1414ce" points="499.5,-349.27 498.97,-359.85 505.98,-351.9 499.5,-349.27"/>
</a>
</g>
</g>
<!-- 11&#45;&gt;5 -->
<g id="edge38" class="edge">
<title>11&#45;&gt;5</title>
<g id="a_edge38"><a xlink:title="usage">
<path fill="none" stroke="#1414ce" d="M590,-143.94C596.08,-133.84 603.33,-120.59 608,-108 615.46,-87.91 620.35,-64.13 623.29,-46.21"/>
<polygon fill="#1414ce" stroke="#1414ce" points="626.78,-46.56 624.85,-36.14 619.86,-45.49 626.78,-46.56"/>
</a>
</g>
</g>
<!-- 11&#45;&gt;12 -->
<g id="edge40" class="edge">
<title>11&#45;&gt;12</title>
<g id="a_edge40"><a xlink:title="usage">
<path fill="none" stroke="#1414ce" d="M574.3,-143.7C572.19,-135.9 569.64,-126.51 567.28,-117.83"/>
<polygon fill="#1414ce" stroke="#1414ce" points="570.64,-116.84 564.64,-108.1 563.88,-118.67 570.64,-116.84"/>
</a>
</g>
</g>
<!-- 12&#45;&gt;5 -->
<g id="edge41" class="edge">
<title>12&#45;&gt;5</title>
<g id="a_edge41"><a xlink:title="usage">
<path fill="none" stroke="#1414ce" d="M576.56,-71.7C584.68,-63.22 594.59,-52.86 603.47,-43.58"/>
<polygon fill="#1414ce" stroke="#1414ce" points="606.24,-45.75 610.63,-36.1 601.19,-40.91 606.24,-45.75"/>
</a>
</g>
</g>
<!-- 19&#45;&gt;5 -->
<g id="edge42" class="edge">
<title>19&#45;&gt;5</title>
<g id="a_edge42"><a xlink:title="usage">
<path fill="none" stroke="#1414ce" d="M86.19,-147.84C90.84,-146.5 95.51,-145.2 100,-144 273.97,-97.46 482.6,-50.6 576.66,-29.94"/>
<polygon fill="#1414ce" stroke="#1414ce" points="577.45,-33.35 586.47,-27.79 575.96,-26.51 577.45,-33.35"/>
</a>
</g>
</g>
<!-- 22&#45;&gt;5 -->
<g id="edge43" class="edge">
<title>22&#45;&gt;5</title>
<g id="a_edge43"><a xlink:title="usage">
<path fill="none" stroke="#1414ce" d="M822.21,-72.59C778.19,-60.5 719.01,-44.26 677.38,-32.83"/>
<polygon fill="#1414ce" stroke="#1414ce" points="678.3,-29.45 667.73,-30.18 676.44,-36.2 678.3,-29.45"/>
</a>
</g>
</g>
</g>
</svg>
