<?xml version="1.0" encoding="UTF-8" standalone="no"?>
<!DOCTYPE svg PUBLIC "-//W3C//DTD SVG 1.1//EN"
 "http://www.w3.org/Graphics/SVG/1.1/DTD/svg11.dtd">
<!-- Generated by graphviz version 2.43.0 (0)
 -->
<!-- Title: %3 Pages: 1 -->
<svg width="1286pt" height="404pt"
 viewBox="0.00 0.00 1286.11 404.00" xmlns="http://www.w3.org/2000/svg" xmlns:xlink="http://www.w3.org/1999/xlink">
<g id="graph0" class="graph" transform="scale(1 1) rotate(0) translate(4 400)">
<title>%3</title>
<polygon fill="transparent" stroke="transparent" points="-4,4 -4,-400 1282.11,-400 1282.11,4 -4,4"/>
<!-- 11 -->
<g id="node1" class="node">
<title>11</title>
<g id="a_node1"><a xlink:title="AtomTable">
<polygon fill="#ffffff" stroke="black" points="115.11,-324 23.11,-324 23.11,-288 115.11,-288 115.11,-324"/>
<text text-anchor="middle" x="69.11" y="-302.3" font-family="Times,serif" font-size="14.00">AtomTable</text>
</a>
</g>
</g>
<!-- 12 -->
<g id="node5" class="node">
<title>12</title>
<g id="a_node5"><a xlink:title="HNode">
<polygon fill="#ffffff" stroke="black" points="102.11,-180 36.11,-180 36.11,-144 102.11,-144 102.11,-180"/>
<text text-anchor="middle" x="69.11" y="-158.3" font-family="Times,serif" font-size="14.00">HNode</text>
</a>
</g>
</g>
<!-- 11&#45;&gt;12 -->
<g id="edge1" class="edge">
<title>11&#45;&gt;12</title>
<g id="a_edge1"><a xlink:title="usage">
<path fill="none" stroke="#1414ce" d="M38.34,-287.91C25.56,-279.02 12.11,-266.88 5.11,-252 -1.7,-237.52 -1.7,-230.48 5.11,-216 10.63,-204.26 20.17,-194.22 30.23,-186.15"/>
<polygon fill="#1414ce" stroke="#1414ce" points="32.42,-188.88 38.34,-180.09 28.23,-183.27 32.42,-188.88"/>
</a>
</g>
</g>
<!-- 13 -->
<g id="node6" class="node">
<title>13</title>
<g id="a_node6"><a xlink:title="HNodeGroup">
<polygon fill="#ffffff" stroke="black" points="124.11,-252 14.11,-252 14.11,-216 124.11,-216 124.11,-252"/>
<text text-anchor="middle" x="69.11" y="-230.3" font-family="Times,serif" font-size="14.00">HNodeGroup</text>
</a>
</g>
</g>
<!-- 11&#45;&gt;13 -->
<g id="edge2" class="edge">
<title>11&#45;&gt;13</title>
<g id="a_edge2"><a xlink:title="usage">
<path fill="none" stroke="#1414ce" d="M69.11,-287.7C69.11,-279.98 69.11,-270.71 69.11,-262.11"/>
<polygon fill="#1414ce" stroke="#1414ce" points="72.61,-262.1 69.11,-252.1 65.61,-262.1 72.61,-262.1"/>
</a>
</g>
</g>
<!-- 14 -->
<g id="node2" class="node">
<title>14</title>
<g id="a_node2"><a xlink:title="AtomsHashTable">
<polygon fill="#ffffff" stroke="black" points="297.61,-252 160.61,-252 160.61,-216 297.61,-216 297.61,-252"/>
<text text-anchor="middle" x="229.11" y="-230.3" font-family="Times,serif" font-size="14.00">AtomsHashTable</text>
</a>
</g>
</g>
<!-- 14&#45;&gt;12 -->
<g id="edge3" class="edge">
<title>14&#45;&gt;12</title>
<g id="a_edge3"><a xlink:title="usage">
<path fill="none" stroke="#1414ce" d="M189.97,-215.88C166.2,-205.48 135.86,-192.2 111.52,-181.55"/>
<polygon fill="#1414ce" stroke="#1414ce" points="112.74,-178.27 102.17,-177.47 109.93,-184.68 112.74,-178.27"/>
</a>
</g>
</g>
<!-- 16 -->
<g id="node3" class="node">
<title>16</title>
<g id="a_node3"><a xlink:title="ExportedFunction">
<polygon fill="#ffffff" stroke="black" points="1156.11,-252 1010.11,-252 1010.11,-216 1156.11,-216 1156.11,-252"/>
<text text-anchor="middle" x="1083.11" y="-230.3" font-family="Times,serif" font-size="14.00">ExportedFunction</text>
</a>
</g>
</g>
<!-- 5 -->
<g id="node4" class="node">
<title>5</title>
<g id="a_node4"><a xlink:title="GlobalContext">
<polygon fill="#ffffff" stroke="black" points="810.61,-396 691.61,-396 691.61,-360 810.61,-360 810.61,-396"/>
<text text-anchor="middle" x="751.11" y="-374.3" font-family="Times,serif" font-size="14.00">GlobalContext</text>
</a>
</g>
</g>
<!-- 5&#45;&gt;11 -->
<g id="edge9" class="edge">
<title>5&#45;&gt;11</title>
<g id="a_edge9"><a xlink:title="usage">
<path fill="none" stroke="#1414ce" d="M691.48,-370.88C561.26,-357.51 252.94,-325.87 125.62,-312.8"/>
<polygon fill="#1414ce" stroke="#1414ce" points="125.62,-309.28 115.32,-311.74 124.91,-316.25 125.62,-309.28"/>
</a>
</g>
</g>
<!-- 5&#45;&gt;14 -->
<g id="edge10" class="edge">
<title>5&#45;&gt;14</title>
<g id="a_edge10"><a xlink:title="usage">
<path fill="none" stroke="#1414ce" d="M691.58,-374.84C587.45,-370.23 377.12,-357.04 312.11,-324 283.76,-309.59 260.06,-281.37 245.33,-260.55"/>
<polygon fill="#1414ce" stroke="#1414ce" points="248.12,-258.42 239.59,-252.14 242.34,-262.37 248.12,-258.42"/>
</a>
</g>
</g>
<!-- 2 -->
<g id="node7" class="node">
<title>2</title>
<g id="a_node7"><a xlink:title="ListHead">
<polygon fill="#ffffff" stroke="black" points="655.61,-36 574.61,-36 574.61,0 655.61,0 655.61,-36"/>
<text text-anchor="middle" x="615.11" y="-14.3" font-family="Times,serif" font-size="14.00">ListHead</text>
</a>
</g>
</g>
<!-- 5&#45;&gt;2 -->
<g id="edge4" class="edge">
<title>5&#45;&gt;2</title>
<g id="a_edge4"><a xlink:title="usage">
<path fill="none" stroke="#1414ce" d="M691.58,-377.36C591.2,-376.69 394.35,-369.43 345.11,-324 315.38,-296.57 326.11,-275.45 326.11,-235 326.11,-235 326.11,-235 326.11,-161 326.11,-56.09 481.42,-28.68 564.33,-21.53"/>
<polygon fill="#1414ce" stroke="#1414ce" points="564.62,-25.01 574.31,-20.73 564.07,-18.04 564.62,-25.01"/>
</a>
</g>
</g>
<!-- 7 -->
<g id="node10" class="node">
<title>7</title>
<g id="a_node10"><a xlink:title="MessageQueueItem">
<polygon fill="#ffffff" stroke="black" points="994.11,-324 836.11,-324 836.11,-288 994.11,-288 994.11,-324"/>
<text text-anchor="middle" x="915.11" y="-302.3" font-family="Times,serif" font-size="14.00">MessageQueueItem</text>
</a>
</g>
</g>
<!-- 5&#45;&gt;7 -->
<g id="edge6" class="edge">
<title>5&#45;&gt;7</title>
<g id="a_edge6"><a xlink:title="usage">
<path fill="none" stroke="#1414ce" d="M791.23,-359.88C813.74,-350.26 842.02,-338.19 865.88,-328.01"/>
<polygon fill="#1414ce" stroke="#1414ce" points="867.29,-331.21 875.12,-324.07 864.55,-324.77 867.29,-331.21"/>
</a>
</g>
</g>
<!-- 15 -->
<g id="node11" class="node">
<title>15</title>
<g id="a_node11"><a xlink:title="Module">
<polygon fill="#ffffff" stroke="black" points="1109.11,-324 1039.11,-324 1039.11,-288 1109.11,-288 1109.11,-324"/>
<text text-anchor="middle" x="1074.11" y="-302.3" font-family="Times,serif" font-size="14.00">Module</text>
</a>
</g>
</g>
<!-- 5&#45;&gt;15 -->
<g id="edge11" class="edge">
<title>5&#45;&gt;15</title>
<g id="a_edge11"><a xlink:title="usage">
<path fill="none" stroke="#1414ce" d="M810.81,-367.34C865.82,-357.95 949.52,-342.44 1021.11,-324 1023.74,-323.32 1026.43,-322.59 1029.13,-321.82"/>
<polygon fill="#1414ce" stroke="#1414ce" points="1030.33,-325.12 1038.92,-318.92 1028.34,-318.4 1030.33,-325.12"/>
</a>
</g>
</g>
<!-- 9 -->
<g id="node13" class="node">
<title>9</title>
<g id="a_node13"><a xlink:title="RefcBinaryQueueItem">
<polygon fill="#ffffff" stroke="black" points="528.11,-324 354.11,-324 354.11,-288 528.11,-288 528.11,-324"/>
<text text-anchor="middle" x="441.11" y="-302.3" font-family="Times,serif" font-size="14.00">RefcBinaryQueueItem</text>
</a>
</g>
</g>
<!-- 5&#45;&gt;9 -->
<g id="edge7" class="edge">
<title>5&#45;&gt;9</title>
<g id="a_edge7"><a xlink:title="usage">
<path fill="none" stroke="#1414ce" d="M691.34,-363.5C644.56,-352.94 578.89,-338.11 526.56,-326.3"/>
<polygon fill="#1414ce" stroke="#1414ce" points="527.14,-322.84 516.62,-324.05 525.6,-329.67 527.14,-322.84"/>
</a>
</g>
</g>
<!-- 6 -->
<g id="node16" class="node">
<title>6</title>
<g id="a_node16"><a xlink:title="SpinLock">
<polygon fill="#ffffff" stroke="black" points="1209.11,-324 1127.11,-324 1127.11,-288 1209.11,-288 1209.11,-324"/>
<text text-anchor="middle" x="1168.11" y="-302.3" font-family="Times,serif" font-size="14.00">SpinLock</text>
</a>
</g>
</g>
<!-- 5&#45;&gt;6 -->
<g id="edge5" class="edge">
<title>5&#45;&gt;6</title>
<g id="a_edge5"><a xlink:title="usage">
<path fill="none" stroke="#1414ce" d="M810.86,-371.79C881.95,-364.83 1004.21,-350.46 1117.23,-323.97"/>
<polygon fill="#1414ce" stroke="#1414ce" points="1118.17,-327.34 1127.08,-321.62 1116.54,-320.53 1118.17,-327.34"/>
</a>
</g>
</g>
<!-- 10 -->
<g id="node17" class="node">
<title>10</title>
<g id="a_node17"><a xlink:title="SyncList">
<polygon fill="#ffffff" stroke="black" points="740.11,-108 662.11,-108 662.11,-72 740.11,-72 740.11,-108"/>
<text text-anchor="middle" x="701.11" y="-86.3" font-family="Times,serif" font-size="14.00">SyncList</text>
</a>
</g>
</g>
<!-- 5&#45;&gt;10 -->
<g id="edge8" class="edge">
<title>5&#45;&gt;10</title>
<g id="a_edge8"><a xlink:title="usage">
<path fill="none" stroke="#1414ce" d="M755.11,-359.83C763.53,-320.14 779.91,-219.65 750.11,-144 745.89,-133.29 738.38,-123.44 730.5,-115.21"/>
<polygon fill="#1414ce" stroke="#1414ce" points="732.84,-112.61 723.23,-108.14 727.96,-117.62 732.84,-112.61"/>
</a>
</g>
</g>
<!-- 18 -->
<g id="node18" class="node">
<title>18</title>
<g id="a_node18"><a xlink:title="TimerList">
<polygon fill="#ffffff" stroke="black" points="847.11,-108 761.11,-108 761.11,-72 847.11,-72 847.11,-108"/>
<text text-anchor="middle" x="804.11" y="-86.3" font-family="Times,serif" font-size="14.00">TimerList</text>
</a>
</g>
</g>
<!-- 5&#45;&gt;18 -->
<g id="edge12" class="edge">
<title>5&#45;&gt;18</title>
<g id="a_edge12"><a xlink:title="usage">
<path fill="none" stroke="#1414ce" d="M761.76,-360C767.56,-349.91 774.31,-336.66 778.11,-324 799.7,-251.93 803.67,-162.47 804.2,-118.3"/>
<polygon fill="#1414ce" stroke="#1414ce" points="807.7,-118.11 804.27,-108.08 800.7,-118.06 807.7,-118.11"/>
</a>
</g>
</g>
<!-- 12&#45;&gt;12 -->
<g id="edge13" class="edge">
<title>12&#45;&gt;12</title>
<g id="a_edge13"><a xlink:title="usage">
<path fill="none" stroke="#1414ce" d="M102.46,-175.47C112.38,-175.07 120.11,-170.58 120.11,-162 120.11,-156.64 117.09,-152.87 112.41,-150.71"/>
<polygon fill="#1414ce" stroke="#1414ce" points="112.98,-147.25 102.46,-148.53 111.48,-154.09 112.98,-147.25"/>
</a>
</g>
</g>
<!-- 13&#45;&gt;12 -->
<g id="edge15" class="edge">
<title>13&#45;&gt;12</title>
<g id="a_edge15"><a xlink:title="usage">
<path fill="none" stroke="#1414ce" d="M69.11,-215.7C69.11,-207.98 69.11,-198.71 69.11,-190.11"/>
<polygon fill="#1414ce" stroke="#1414ce" points="72.61,-190.1 69.11,-180.1 65.61,-190.1 72.61,-190.1"/>
</a>
</g>
</g>
<!-- 13&#45;&gt;13 -->
<g id="edge14" class="edge">
<title>13&#45;&gt;13</title>
<g id="a_edge14"><a xlink:title="usage">
<path fill="none" stroke="#1414ce" d="M124.18,-246.85C134.68,-245.32 142.11,-241.03 142.11,-234 142.11,-229.5 139.06,-226.12 134.11,-223.87"/>
<polygon fill="#1414ce" stroke="#1414ce" points="134.75,-220.42 124.18,-221.15 132.9,-227.17 134.75,-220.42"/>
</a>
</g>
</g>
<!-- 2&#45;&gt;2 -->
<g id="edge16" class="edge">
<title>2&#45;&gt;2</title>
<g id="a_edge16"><a xlink:title="usage">
<path fill="none" stroke="#1414ce" d="M655.84,-31.31C666.01,-30.38 673.61,-25.95 673.61,-18 673.61,-12.91 670.49,-9.26 665.57,-7.05"/>
<polygon fill="#1414ce" stroke="#1414ce" points="666.39,-3.64 655.84,-4.69 664.73,-10.45 666.39,-3.64"/>
</a>
</g>
</g>
<!-- 17 -->
<g id="node8" class="node">
<title>17</title>
<g id="a_node8"><a xlink:title="LiteralEntry">
<polygon fill="#ffffff" stroke="black" points="1278.11,-252 1174.11,-252 1174.11,-216 1278.11,-216 1278.11,-252"/>
<text text-anchor="middle" x="1226.11" y="-230.3" font-family="Times,serif" font-size="14.00">LiteralEntry</text>
</a>
</g>
</g>
<!-- 8 -->
<g id="node9" class="node">
<title>8</title>
<g id="a_node9"><a xlink:title="MailboxMessage">
<polygon fill="#ffffff" stroke="black" points="973.61,-252 836.61,-252 836.61,-216 973.61,-216 973.61,-252"/>
<text text-anchor="middle" x="905.11" y="-230.3" font-family="Times,serif" font-size="14.00">MailboxMessage</text>
</a>
</g>
</g>
<!-- 8&#45;&gt;8 -->
<g id="edge17" class="edge">
<title>8&#45;&gt;8</title>
<g id="a_edge17"><a xlink:title="usage">
<path fill="none" stroke="#1414ce" d="M973.63,-246.37C984.32,-244.52 991.61,-240.4 991.61,-234 991.61,-229.8 988.47,-226.58 983.29,-224.34"/>
<polygon fill="#1414ce" stroke="#1414ce" points="984.21,-220.96 973.63,-221.63 982.31,-227.7 984.21,-220.96"/>
</a>
</g>
</g>
<!-- 7&#45;&gt;8 -->
<g id="edge19" class="edge">
<title>7&#45;&gt;8</title>
<g id="a_edge19"><a xlink:title="usage">
<path fill="none" stroke="#1414ce" d="M912.63,-287.7C911.53,-279.98 910.21,-270.71 908.98,-262.11"/>
<polygon fill="#1414ce" stroke="#1414ce" points="912.43,-261.51 907.55,-252.1 905.5,-262.5 912.43,-261.51"/>
</a>
</g>
</g>
<!-- 7&#45;&gt;7 -->
<g id="edge18" class="edge">
<title>7&#45;&gt;7</title>
<g id="a_edge18"><a xlink:title="usage">
<path fill="none" stroke="#1414ce" d="M994.27,-317.98C1004.98,-315.97 1012.11,-311.98 1012.11,-306 1012.11,-302.08 1009.04,-299.01 1003.9,-296.8"/>
<polygon fill="#1414ce" stroke="#1414ce" points="1004.85,-293.43 994.27,-294.02 1002.91,-300.15 1004.85,-293.43"/>
</a>
</g>
</g>
<!-- 15&#45;&gt;16 -->
<g id="edge20" class="edge">
<title>15&#45;&gt;16</title>
<g id="a_edge20"><a xlink:title="usage">
<path fill="none" stroke="#1414ce" d="M1076.33,-287.7C1077.32,-279.98 1078.52,-270.71 1079.62,-262.11"/>
<polygon fill="#1414ce" stroke="#1414ce" points="1083.1,-262.47 1080.91,-252.1 1076.16,-261.58 1083.1,-262.47"/>
</a>
</g>
</g>
<!-- 15&#45;&gt;17 -->
<g id="edge21" class="edge">
<title>15&#45;&gt;17</title>
<g id="a_edge21"><a xlink:title="usage">
<path fill="none" stroke="#1414ce" d="M1109.36,-288.76C1130.4,-279.07 1157.36,-266.66 1180.07,-256.2"/>
<polygon fill="#1414ce" stroke="#1414ce" points="1181.57,-259.36 1189.19,-252 1178.64,-253 1181.57,-259.36"/>
</a>
</g>
</g>
<!-- 3 -->
<g id="node12" class="node">
<title>3</title>
<g id="a_node12"><a xlink:title="RefcBinary">
<polygon fill="#ffffff" stroke="black" points="567.61,-252 472.61,-252 472.61,-216 567.61,-216 567.61,-252"/>
<text text-anchor="middle" x="520.11" y="-230.3" font-family="Times,serif" font-size="14.00">RefcBinary</text>
</a>
</g>
</g>
<!-- 3&#45;&gt;2 -->
<g id="edge22" class="edge">
<title>3&#45;&gt;2</title>
<g id="a_edge22"><a xlink:title="usage">
<path fill="none" stroke="#1414ce" d="M525.59,-215.62C535.33,-185.6 556.99,-122.4 582.11,-72 586.7,-62.78 592.43,-53.11 597.82,-44.58"/>
<polygon fill="#1414ce" stroke="#1414ce" points="600.76,-46.48 603.25,-36.19 594.88,-42.68 600.76,-46.48"/>
</a>
</g>
</g>
<!-- 4 -->
<g id="node15" class="node">
<title>4</title>
<g id="a_node15"><a xlink:title="ResourceType">
<polygon fill="#ffffff" stroke="black" points="741.61,-180 624.61,-180 624.61,-144 741.61,-144 741.61,-180"/>
<text text-anchor="middle" x="683.11" y="-158.3" font-family="Times,serif" font-size="14.00">ResourceType</text>
</a>
</g>
</g>
<!-- 3&#45;&gt;4 -->
<g id="edge23" class="edge">
<title>3&#45;&gt;4</title>
<g id="a_edge23"><a xlink:title="usage">
<path fill="none" stroke="#1414ce" d="M559.98,-215.88C582.26,-206.31 610.22,-194.3 633.86,-184.15"/>
<polygon fill="#1414ce" stroke="#1414ce" points="635.55,-187.23 643.36,-180.07 632.79,-180.8 635.55,-187.23"/>
</a>
</g>
</g>
<!-- 9&#45;&gt;3 -->
<g id="edge25" class="edge">
<title>9&#45;&gt;3</title>
<g id="a_edge25"><a xlink:title="usage">
<path fill="none" stroke="#1414ce" d="M460.63,-287.7C470.49,-278.97 482.59,-268.24 493.3,-258.75"/>
<polygon fill="#1414ce" stroke="#1414ce" points="495.64,-261.36 500.8,-252.1 491,-256.12 495.64,-261.36"/>
</a>
</g>
</g>
<!-- 9&#45;&gt;9 -->
<g id="edge24" class="edge">
<title>9&#45;&gt;9</title>
<g id="a_edge24"><a xlink:title="usage">
<path fill="none" stroke="#1414ce" d="M528.41,-317.68C539.1,-315.59 546.11,-311.7 546.11,-306 546.11,-302.35 543.23,-299.44 538.35,-297.27"/>
<polygon fill="#1414ce" stroke="#1414ce" points="538.99,-293.81 528.41,-294.32 537,-300.52 538.99,-293.81"/>
</a>
</g>
</g>
<!-- 1 -->
<g id="node14" class="node">
<title>1</title>
<g id="a_node14"><a xlink:title="ResourceMonitor">
<polygon fill="#bfbfbf" stroke="black" points="704.11,-324 564.11,-324 564.11,-288 704.11,-288 704.11,-324"/>
<text text-anchor="middle" x="634.11" y="-302.3" font-family="Times,serif" font-size="14.00">ResourceMonitor</text>
</a>
</g>
</g>
<!-- 1&#45;&gt;2 -->
<g id="edge26" class="edge">
<title>1&#45;&gt;2</title>
<g id="a_edge26"><a xlink:title="usage">
<path fill="none" stroke="#1414ce" d="M630.63,-287.7C626,-263.67 618.03,-218.74 615.11,-180 611.58,-133.38 612.66,-78.94 613.84,-46.81"/>
<polygon fill="#1414ce" stroke="#1414ce" points="617.35,-46.56 614.25,-36.42 610.36,-46.28 617.35,-46.56"/>
</a>
</g>
</g>
<!-- 1&#45;&gt;3 -->
<g id="edge27" class="edge">
<title>1&#45;&gt;3</title>
<g id="a_edge27"><a xlink:title="usage">
<path fill="none" stroke="#1414ce" d="M606.22,-287.88C591.31,-278.72 572.78,-267.34 556.73,-257.48"/>
<polygon fill="#1414ce" stroke="#1414ce" points="558.45,-254.44 548.1,-252.19 554.79,-260.41 558.45,-254.44"/>
</a>
</g>
</g>
<!-- 4&#45;&gt;5 -->
<g id="edge29" class="edge">
<title>4&#45;&gt;5</title>
<g id="a_edge29"><a xlink:title="usage">
<path fill="none" stroke="#1414ce" d="M688.58,-180.23C700.42,-217.48 728.46,-305.72 742.62,-350.28"/>
<polygon fill="#1414ce" stroke="#1414ce" points="739.29,-351.38 745.66,-359.85 745.96,-349.26 739.29,-351.38"/>
</a>
</g>
</g>
<!-- 4&#45;&gt;2 -->
<g id="edge28" class="edge">
<title>4&#45;&gt;2</title>
<g id="a_edge28"><a xlink:title="usage">
<path fill="none" stroke="#1414ce" d="M672.61,-143.6C666.61,-133.38 659.11,-120.13 653.11,-108 642.97,-87.51 632.88,-63.66 625.64,-45.81"/>
<polygon fill="#1414ce" stroke="#1414ce" points="628.81,-44.3 621.83,-36.32 622.31,-46.9 628.81,-44.3"/>
</a>
</g>
</g>
<!-- 4&#45;&gt;10 -->
<g id="edge30" class="edge">
<title>4&#45;&gt;10</title>
<g id="a_edge30"><a xlink:title="usage">
<path fill="none" stroke="#1414ce" d="M687.56,-143.7C689.56,-135.9 691.98,-126.51 694.21,-117.83"/>
<polygon fill="#1414ce" stroke="#1414ce" points="697.61,-118.66 696.71,-108.1 690.83,-116.92 697.61,-118.66"/>
</a>
</g>
</g>
<!-- 10&#45;&gt;2 -->
<g id="edge31" class="edge">
<title>10&#45;&gt;2</title>
<g id="a_edge31"><a xlink:title="usage">
<path fill="none" stroke="#1414ce" d="M679.85,-71.7C669.02,-62.88 655.69,-52.03 643.95,-42.47"/>
<polygon fill="#1414ce" stroke="#1414ce" points="646.09,-39.7 636.12,-36.1 641.67,-45.13 646.09,-39.7"/>
</a>
</g>
</g>
<!-- 18&#45;&gt;2 -->
<g id="edge32" class="edge">
<title>18&#45;&gt;2</title>
<g id="a_edge32"><a xlink:title="usage">
<path fill="none" stroke="#1414ce" d="M760.75,-72.94C732.35,-62.42 695.14,-48.64 665.44,-37.64"/>
<polygon fill="#1414ce" stroke="#1414ce" points="666.27,-34.22 655.68,-34.03 663.84,-40.78 666.27,-34.22"/>
</a>
</g>
</g>
</g>
</svg>
