<?xml version="1.0" encoding="UTF-8" standalone="no"?>
<!DOCTYPE svg PUBLIC "-//W3C//DTD SVG 1.1//EN"
 "http://www.w3.org/Graphics/SVG/1.1/DTD/svg11.dtd">
<!-- Generated by graphviz version 2.43.0 (0)
 -->
<!-- Title: %3 Pages: 1 -->
<svg width="1512pt" height="764pt"
 viewBox="0.00 0.00 1512.00 764.00" xmlns="http://www.w3.org/2000/svg" xmlns:xlink="http://www.w3.org/1999/xlink">
<g id="graph0" class="graph" transform="scale(1 1) rotate(0) translate(4 760)">
<title>%3</title>
<polygon fill="transparent" stroke="transparent" points="-4,4 -4,-760 1508,-760 1508,4 -4,4"/>
<!-- 21 -->
<g id="node1" class="node">
<title>21</title>
<g id="a_node1"><a xlink:title="atom.h">
<polygon fill="#ffffff" stroke="black" points="804,-180 738,-180 738,-144 804,-144 804,-180"/>
<text text-anchor="middle" x="771" y="-158.3" font-family="Times,serif" font-size="14.00">atom.h</text>
</a>
</g>
</g>
<!-- 12 -->
<g id="node26" class="node">
<title>12</title>
<g id="a_node26"><a xlink:title="stdint.h">
<polygon fill="#ffffff" stroke="black" points="843,-36 771,-36 771,0 843,0 843,-36"/>
<text text-anchor="middle" x="807" y="-14.3" font-family="Times,serif" font-size="14.00">stdint.h</text>
</a>
</g>
</g>
<!-- 21&#45;&gt;12 -->
<g id="edge1" class="edge">
<title>21&#45;&gt;12</title>
<g id="a_edge1"><a xlink:title="include">
<path fill="none" stroke="#1414ce" d="M775.34,-143.87C781.5,-119.56 792.85,-74.82 800.15,-46.01"/>
<polygon fill="#1414ce" stroke="#1414ce" points="803.58,-46.74 802.64,-36.19 796.79,-45.02 803.58,-46.74"/>
</a>
</g>
</g>
<!-- 2 -->
<g id="node28" class="node">
<title>2</title>
<g id="a_node28"><a xlink:title="stdlib.h">
<polygon fill="#ffffff" stroke="black" points="1101.5,-108 1030.5,-108 1030.5,-72 1101.5,-72 1101.5,-108"/>
<text text-anchor="middle" x="1066" y="-86.3" font-family="Times,serif" font-size="14.00">stdlib.h</text>
</a>
</g>
</g>
<!-- 21&#45;&gt;2 -->
<g id="edge2" class="edge">
<title>21&#45;&gt;2</title>
<g id="a_edge2"><a xlink:title="include">
<path fill="none" stroke="#1414ce" d="M804.16,-155.63C850.58,-147.75 937.62,-131.68 1020.48,-107.91"/>
<polygon fill="#1414ce" stroke="#1414ce" points="1021.68,-111.2 1030.31,-105.05 1019.73,-104.48 1021.68,-111.2"/>
</a>
</g>
</g>
<!-- 22 -->
<g id="node2" class="node">
<title>22</title>
<g id="a_node2"><a xlink:title="atom_table.h">
<polygon fill="#ffffff" stroke="black" points="661.5,-252 552.5,-252 552.5,-216 661.5,-216 661.5,-252"/>
<text text-anchor="middle" x="607" y="-230.3" font-family="Times,serif" font-size="14.00">atom_table.h</text>
</a>
</g>
</g>
<!-- 22&#45;&gt;21 -->
<g id="edge4" class="edge">
<title>22&#45;&gt;21</title>
<g id="a_edge4"><a xlink:title="include">
<path fill="none" stroke="#1414ce" d="M647.12,-215.88C671.84,-205.32 703.5,-191.81 728.63,-181.08"/>
<polygon fill="#1414ce" stroke="#1414ce" points="730.09,-184.27 737.91,-177.12 727.34,-177.83 730.09,-184.27"/>
</a>
</g>
</g>
<!-- 4 -->
<g id="node24" class="node">
<title>4</title>
<g id="a_node24"><a xlink:title="stdbool.h">
<polygon fill="#ffffff" stroke="black" points="558.5,-108 475.5,-108 475.5,-72 558.5,-72 558.5,-108"/>
<text text-anchor="middle" x="517" y="-86.3" font-family="Times,serif" font-size="14.00">stdbool.h</text>
</a>
</g>
</g>
<!-- 22&#45;&gt;4 -->
<g id="edge3" class="edge">
<title>22&#45;&gt;4</title>
<g id="a_edge3"><a xlink:title="include">
<path fill="none" stroke="#1414ce" d="M596.14,-215.87C580.53,-191.24 551.63,-145.64 533.41,-116.88"/>
<polygon fill="#1414ce" stroke="#1414ce" points="536.2,-114.76 527.89,-108.19 530.29,-118.51 536.2,-114.76"/>
</a>
</g>
</g>
<!-- 19 -->
<g id="node3" class="node">
<title>19</title>
<g id="a_node3"><a xlink:title="context.h">
<polygon fill="#ffffff" stroke="black" points="509.5,-612 426.5,-612 426.5,-576 509.5,-576 509.5,-612"/>
<text text-anchor="middle" x="468" y="-590.3" font-family="Times,serif" font-size="14.00">context.h</text>
</a>
</g>
</g>
<!-- 20 -->
<g id="node7" class="node">
<title>20</title>
<g id="a_node7"><a xlink:title="globalcontext.h">
<polygon fill="#ffffff" stroke="black" points="436.5,-540 309.5,-540 309.5,-504 436.5,-504 436.5,-540"/>
<text text-anchor="middle" x="373" y="-518.3" font-family="Times,serif" font-size="14.00">globalcontext.h</text>
</a>
</g>
</g>
<!-- 19&#45;&gt;20 -->
<g id="edge5" class="edge">
<title>19&#45;&gt;20</title>
<g id="a_edge5"><a xlink:title="include">
<path fill="none" stroke="#1414ce" d="M444.52,-575.7C432.44,-566.8 417.55,-555.82 404.48,-546.2"/>
<polygon fill="#1414ce" stroke="#1414ce" points="406.34,-543.22 396.21,-540.1 402.19,-548.85 406.34,-543.22"/>
</a>
</g>
</g>
<!-- 5 -->
<g id="node8" class="node">
<title>5</title>
<g id="a_node8"><a xlink:title="list.h">
<polygon fill="#ffffff" stroke="black" points="402,-180 348,-180 348,-144 402,-144 402,-180"/>
<text text-anchor="middle" x="375" y="-158.3" font-family="Times,serif" font-size="14.00">list.h</text>
</a>
</g>
</g>
<!-- 19&#45;&gt;5 -->
<g id="edge6" class="edge">
<title>19&#45;&gt;5</title>
<g id="a_edge6"><a xlink:title="include">
<path fill="none" stroke="#1414ce" d="M426.3,-590.77C388.28,-586.49 333.15,-574.32 300,-540 254.17,-492.55 275.7,-460.92 264,-396 249.81,-317.26 218.11,-280.09 266,-216 283.38,-192.74 313.69,-179.16 337.95,-171.58"/>
<polygon fill="#1414ce" stroke="#1414ce" points="338.95,-174.93 347.58,-168.77 337,-168.21 338.95,-174.93"/>
</a>
</g>
</g>
<!-- 23 -->
<g id="node9" class="node">
<title>23</title>
<g id="a_node9"><a xlink:title="mailbox.h">
<polygon fill="#ffffff" stroke="black" points="804,-252 718,-252 718,-216 804,-216 804,-252"/>
<text text-anchor="middle" x="761" y="-230.3" font-family="Times,serif" font-size="14.00">mailbox.h</text>
</a>
</g>
</g>
<!-- 19&#45;&gt;23 -->
<g id="edge7" class="edge">
<title>19&#45;&gt;23</title>
<g id="a_edge7"><a xlink:title="include">
<path fill="none" stroke="#1414ce" d="M489.56,-575.78C517.59,-551.28 563,-503.5 563,-451 563,-451 563,-451 563,-377 563,-325.84 595.04,-318.65 636,-288 657.56,-271.86 684.78,-259.57 708.3,-250.91"/>
<polygon fill="#1414ce" stroke="#1414ce" points="709.55,-254.18 717.79,-247.54 707.2,-247.59 709.55,-254.18"/>
</a>
</g>
</g>
<!-- 18 -->
<g id="node14" class="node">
<title>18</title>
<g id="a_node14"><a xlink:title="smp.h">
<polygon fill="#ffffff" stroke="black" points="294,-180 234,-180 234,-144 294,-144 294,-180"/>
<text text-anchor="middle" x="264" y="-158.3" font-family="Times,serif" font-size="14.00">smp.h</text>
</a>
</g>
</g>
<!-- 19&#45;&gt;18 -->
<g id="edge8" class="edge">
<title>19&#45;&gt;18</title>
<g id="a_edge8"><a xlink:title="include">
<path fill="none" stroke="#1414ce" d="M426.24,-585.32C333,-567 116,-517.23 116,-451 116,-451 116,-451 116,-377 116,-295.52 189.47,-222.62 232.88,-186.66"/>
<polygon fill="#1414ce" stroke="#1414ce" points="235.32,-189.19 240.88,-180.18 230.9,-183.76 235.32,-189.19"/>
</a>
</g>
</g>
<!-- 24 -->
<g id="node16" class="node">
<title>24</title>
<g id="a_node16"><a xlink:title="term.h">
<polygon fill="#ffffff" stroke="black" points="787.5,-468 722.5,-468 722.5,-432 787.5,-432 787.5,-468"/>
<text text-anchor="middle" x="755" y="-446.3" font-family="Times,serif" font-size="14.00">term.h</text>
</a>
</g>
</g>
<!-- 19&#45;&gt;24 -->
<g id="edge9" class="edge">
<title>19&#45;&gt;24</title>
<g id="a_edge9"><a xlink:title="include">
<path fill="none" stroke="#1414ce" d="M503.39,-575.91C524.74,-565.58 552.47,-552.1 577,-540 623.65,-517 676.99,-490.27 713.02,-472.15"/>
<polygon fill="#1414ce" stroke="#1414ce" points="714.89,-475.13 722.25,-467.51 711.74,-468.88 714.89,-475.13"/>
</a>
</g>
</g>
<!-- 27 -->
<g id="node18" class="node">
<title>27</title>
<g id="a_node18"><a xlink:title="timer_list.h">
<polygon fill="#ffffff" stroke="black" points="126,-252 28,-252 28,-216 126,-216 126,-252"/>
<text text-anchor="middle" x="77" y="-230.3" font-family="Times,serif" font-size="14.00">timer_list.h</text>
</a>
</g>
</g>
<!-- 19&#45;&gt;27 -->
<g id="edge10" class="edge">
<title>19&#45;&gt;27</title>
<g id="a_edge10"><a xlink:title="include">
<path fill="none" stroke="#1414ce" d="M426.29,-591.03C342.23,-586.41 155.85,-572.69 102,-540 60.35,-514.72 38,-499.72 38,-451 38,-451 38,-451 38,-377 38,-335.56 53.64,-289.67 65.11,-261.58"/>
<polygon fill="#1414ce" stroke="#1414ce" points="68.45,-262.65 69.11,-252.07 62,-259.93 68.45,-262.65"/>
</a>
</g>
</g>
<!-- 28 -->
<g id="node4" class="node">
<title>28</title>
<g id="a_node4"><a xlink:title="dictionary.h">
<polygon fill="#ffffff" stroke="black" points="805,-540 705,-540 705,-504 805,-504 805,-540"/>
<text text-anchor="middle" x="755" y="-518.3" font-family="Times,serif" font-size="14.00">dictionary.h</text>
</a>
</g>
</g>
<!-- 28&#45;&gt;5 -->
<g id="edge11" class="edge">
<title>28&#45;&gt;5</title>
<g id="a_edge11"><a xlink:title="include">
<path fill="none" stroke="#1414ce" d="M719.92,-503.98C677.86,-482.51 606.6,-442.72 555,-396 483.21,-331 419.1,-234.6 390.62,-188.88"/>
<polygon fill="#1414ce" stroke="#1414ce" points="393.48,-186.84 385.24,-180.17 387.52,-190.52 393.48,-186.84"/>
</a>
</g>
</g>
<!-- 28&#45;&gt;24 -->
<g id="edge12" class="edge">
<title>28&#45;&gt;24</title>
<g id="a_edge12"><a xlink:title="include">
<path fill="none" stroke="#1414ce" d="M755,-503.7C755,-495.98 755,-486.71 755,-478.11"/>
<polygon fill="#1414ce" stroke="#1414ce" points="758.5,-478.1 755,-468.1 751.5,-478.1 758.5,-478.1"/>
</a>
</g>
</g>
<!-- 7 -->
<g id="node5" class="node">
<title>7</title>
<g id="a_node5"><a xlink:title="erl_nif.h">
<polygon fill="#ffffff" stroke="black" points="1318,-180 1244,-180 1244,-144 1318,-144 1318,-180"/>
<text text-anchor="middle" x="1281" y="-158.3" font-family="Times,serif" font-size="14.00">erl_nif.h</text>
</a>
</g>
</g>
<!-- 8 -->
<g id="node17" class="node">
<title>8</title>
<g id="a_node17"><a xlink:title="term_typedef.h">
<polygon fill="#ffffff" stroke="black" points="1331.5,-108 1206.5,-108 1206.5,-72 1331.5,-72 1331.5,-108"/>
<text text-anchor="middle" x="1269" y="-86.3" font-family="Times,serif" font-size="14.00">term_typedef.h</text>
</a>
</g>
</g>
<!-- 7&#45;&gt;8 -->
<g id="edge13" class="edge">
<title>7&#45;&gt;8</title>
<g id="a_edge13"><a xlink:title="include">
<path fill="none" stroke="#1414ce" d="M1278.03,-143.7C1276.71,-135.98 1275.12,-126.71 1273.65,-118.11"/>
<polygon fill="#1414ce" stroke="#1414ce" points="1277.07,-117.37 1271.93,-108.1 1270.17,-118.55 1277.07,-117.37"/>
</a>
</g>
</g>
<!-- 29 -->
<g id="node6" class="node">
<title>29</title>
<g id="a_node6"><a xlink:title="erl_nif_priv.h">
<polygon fill="#ffffff" stroke="black" points="1220,-684 1112,-684 1112,-648 1220,-648 1220,-684"/>
<text text-anchor="middle" x="1166" y="-662.3" font-family="Times,serif" font-size="14.00">erl_nif_priv.h</text>
</a>
</g>
</g>
<!-- 29&#45;&gt;19 -->
<g id="edge14" class="edge">
<title>29&#45;&gt;19</title>
<g id="a_edge14"><a xlink:title="include">
<path fill="none" stroke="#1414ce" d="M1111.81,-659.57C980.83,-646.43 648.39,-613.09 519.85,-600.2"/>
<polygon fill="#1414ce" stroke="#1414ce" points="520.16,-596.71 509.86,-599.2 519.46,-603.68 520.16,-596.71"/>
</a>
</g>
</g>
<!-- 13 -->
<g id="node10" class="node">
<title>13</title>
<g id="a_node10"><a xlink:title="memory.h">
<polygon fill="#ffffff" stroke="black" points="1216,-252 1130,-252 1130,-216 1216,-216 1216,-252"/>
<text text-anchor="middle" x="1173" y="-230.3" font-family="Times,serif" font-size="14.00">memory.h</text>
</a>
</g>
</g>
<!-- 29&#45;&gt;13 -->
<g id="edge15" class="edge">
<title>29&#45;&gt;13</title>
<g id="a_edge15"><a xlink:title="include">
<path fill="none" stroke="#1414ce" d="M1198.47,-647.94C1236.97,-625.09 1296,-580.66 1296,-523 1296,-523 1296,-523 1296,-377 1296,-324.61 1247.58,-282.06 1211.5,-257.63"/>
<polygon fill="#1414ce" stroke="#1414ce" points="1213.37,-254.67 1203.09,-252.11 1209.53,-260.52 1213.37,-254.67"/>
</a>
</g>
</g>
<!-- 6 -->
<g id="node13" class="node">
<title>6</title>
<g id="a_node13"><a xlink:title="resources.h">
<polygon fill="#ffffff" stroke="black" points="1192,-324 1092,-324 1092,-288 1192,-288 1192,-324"/>
<text text-anchor="middle" x="1142" y="-302.3" font-family="Times,serif" font-size="14.00">resources.h</text>
</a>
</g>
</g>
<!-- 29&#45;&gt;6 -->
<g id="edge16" class="edge">
<title>29&#45;&gt;6</title>
<g id="a_edge16"><a xlink:title="include">
<path fill="none" stroke="#1414ce" d="M1164.84,-647.73C1160.99,-590.19 1148.55,-404.66 1143.83,-334.35"/>
<polygon fill="#1414ce" stroke="#1414ce" points="1147.31,-333.84 1143.15,-324.09 1140.32,-334.31 1147.31,-333.84"/>
</a>
</g>
</g>
<!-- 20&#45;&gt;21 -->
<g id="edge18" class="edge">
<title>20&#45;&gt;21</title>
<g id="a_edge18"><a xlink:title="include">
<path fill="none" stroke="#1414ce" d="M394.41,-503.93C406.49,-493.93 421.6,-480.79 434,-468 505.91,-393.86 497.74,-349.12 581,-288 615.73,-262.51 634.72,-275.23 671,-252 690.59,-239.46 691.71,-231.56 709,-216 719.82,-206.26 731.95,-195.8 742.59,-186.76"/>
<polygon fill="#1414ce" stroke="#1414ce" points="745.01,-189.3 750.39,-180.17 740.49,-183.95 745.01,-189.3"/>
</a>
</g>
</g>
<!-- 20&#45;&gt;22 -->
<g id="edge19" class="edge">
<title>20&#45;&gt;22</title>
<g id="a_edge19"><a xlink:title="include">
<path fill="none" stroke="#1414ce" d="M375.38,-503.8C382.22,-460.86 405.97,-348.09 473,-288 492.56,-270.46 518.63,-258.39 542.57,-250.26"/>
<polygon fill="#1414ce" stroke="#1414ce" points="543.88,-253.51 552.32,-247.11 541.73,-246.85 543.88,-253.51"/>
</a>
</g>
</g>
<!-- 20&#45;&gt;7 -->
<g id="edge20" class="edge">
<title>20&#45;&gt;7</title>
<g id="a_edge20"><a xlink:title="include">
<path fill="none" stroke="#1414ce" d="M436.64,-515.24C596,-500.08 1008.18,-456.04 1131,-396 1206.1,-359.29 1220.7,-329.51 1252,-252 1260.24,-231.59 1267.88,-207.87 1273.24,-190.05"/>
<polygon fill="#1414ce" stroke="#1414ce" points="1276.64,-190.89 1276.13,-180.31 1269.93,-188.91 1276.64,-190.89"/>
</a>
</g>
</g>
<!-- 20&#45;&gt;5 -->
<g id="edge21" class="edge">
<title>20&#45;&gt;5</title>
<g id="a_edge21"><a xlink:title="include">
<path fill="none" stroke="#1414ce" d="M348.65,-503.87C317.63,-479.84 268,-432.96 268,-379 268,-379 268,-379 268,-305 268,-264.55 263.51,-248.93 287,-216 299.7,-198.19 320.42,-185.29 338.57,-176.67"/>
<polygon fill="#1414ce" stroke="#1414ce" points="340.07,-179.83 347.77,-172.55 337.21,-173.44 340.07,-179.83"/>
</a>
</g>
</g>
<!-- 20&#45;&gt;23 -->
<g id="edge22" class="edge">
<title>20&#45;&gt;23</title>
<g id="a_edge22"><a xlink:title="include">
<path fill="none" stroke="#1414ce" d="M383.71,-503.98C414.61,-455.34 504.61,-317.37 549,-288 562.31,-279.19 649.71,-259.07 708.06,-246.31"/>
<polygon fill="#1414ce" stroke="#1414ce" points="708.85,-249.72 717.87,-244.17 707.36,-242.88 708.85,-249.72"/>
</a>
</g>
</g>
<!-- 20&#45;&gt;18 -->
<g id="edge23" class="edge">
<title>20&#45;&gt;18</title>
<g id="a_edge23"><a xlink:title="include">
<path fill="none" stroke="#1414ce" d="M326.19,-503.82C309.31,-495.44 291.59,-483.7 280,-468 217.76,-383.65 242.11,-247.69 256.43,-190.13"/>
<polygon fill="#1414ce" stroke="#1414ce" points="259.85,-190.88 258.96,-180.33 253.07,-189.13 259.85,-190.88"/>
</a>
</g>
</g>
<!-- 17 -->
<g id="node15" class="node">
<title>17</title>
<g id="a_node15"><a xlink:title="synclist.h">
<polygon fill="#ffffff" stroke="black" points="381.5,-252 296.5,-252 296.5,-216 381.5,-216 381.5,-252"/>
<text text-anchor="middle" x="339" y="-230.3" font-family="Times,serif" font-size="14.00">synclist.h</text>
</a>
</g>
</g>
<!-- 20&#45;&gt;17 -->
<g id="edge24" class="edge">
<title>20&#45;&gt;17</title>
<g id="a_edge24"><a xlink:title="include">
<path fill="none" stroke="#1414ce" d="M367.7,-503.98C364.69,-493.67 361.12,-480.19 359,-468 346.19,-394.25 341.46,-305.87 339.81,-262.19"/>
<polygon fill="#1414ce" stroke="#1414ce" points="343.31,-261.96 339.46,-252.09 336.31,-262.2 343.31,-261.96"/>
</a>
</g>
</g>
<!-- 20&#45;&gt;24 -->
<g id="edge25" class="edge">
<title>20&#45;&gt;24</title>
<g id="a_edge25"><a xlink:title="include">
<path fill="none" stroke="#1414ce" d="M436.51,-509.36C514.64,-495.04 645.17,-471.13 712.28,-458.83"/>
<polygon fill="#1414ce" stroke="#1414ce" points="713.28,-462.2 722.49,-456.96 712.02,-455.32 713.28,-462.2"/>
</a>
</g>
</g>
<!-- 20&#45;&gt;27 -->
<g id="edge26" class="edge">
<title>20&#45;&gt;27</title>
<g id="a_edge26"><a xlink:title="include">
<path fill="none" stroke="#1414ce" d="M309.12,-510.19C278.43,-502.47 242.64,-489.51 216,-468 146.18,-411.63 103.29,-310.11 85.93,-261.87"/>
<polygon fill="#1414ce" stroke="#1414ce" points="89.13,-260.42 82.51,-252.15 82.52,-262.74 89.13,-260.42"/>
</a>
</g>
</g>
<!-- 20&#45;&gt;12 -->
<g id="edge17" class="edge">
<title>20&#45;&gt;12</title>
<g id="a_edge17"><a xlink:title="include">
<path fill="none" stroke="#1414ce" d="M309.38,-514.31C269,-507.62 217.16,-494.33 178,-468 69.85,-395.29 0,-365.32 0,-235 0,-235 0,-235 0,-161 0,-46.4 130.24,-97.34 242,-72 431.12,-29.12 663.42,-20.85 760.71,-19.31"/>
<polygon fill="#1414ce" stroke="#1414ce" points="760.85,-22.81 770.8,-19.17 760.75,-15.81 760.85,-22.81"/>
</a>
</g>
</g>
<!-- 23&#45;&gt;5 -->
<g id="edge28" class="edge">
<title>23&#45;&gt;5</title>
<g id="a_edge28"><a xlink:title="include">
<path fill="none" stroke="#1414ce" d="M717.98,-224.79C703.11,-221.97 686.33,-218.82 671,-216 578.15,-198.92 468.77,-179.52 412.55,-169.6"/>
<polygon fill="#1414ce" stroke="#1414ce" points="412.81,-166.1 402.36,-167.81 411.6,-172.99 412.81,-166.1"/>
</a>
</g>
</g>
<!-- 23&#45;&gt;8 -->
<g id="edge29" class="edge">
<title>23&#45;&gt;8</title>
<g id="a_edge29"><a xlink:title="include">
<path fill="none" stroke="#1414ce" d="M804.15,-222.52C846.31,-212.17 912.24,-195.65 969,-180 1050.36,-157.57 1143.45,-129.59 1204.08,-111.05"/>
<polygon fill="#1414ce" stroke="#1414ce" points="1205.36,-114.32 1213.89,-108.05 1203.31,-107.63 1205.36,-114.32"/>
</a>
</g>
</g>
<!-- 14 -->
<g id="node20" class="node">
<title>14</title>
<g id="a_node20"><a xlink:title="utils.h">
<polygon fill="#ffffff" stroke="black" points="960,-180 898,-180 898,-144 960,-144 960,-180"/>
<text text-anchor="middle" x="929" y="-158.3" font-family="Times,serif" font-size="14.00">utils.h</text>
</a>
</g>
</g>
<!-- 23&#45;&gt;14 -->
<g id="edge30" class="edge">
<title>23&#45;&gt;14</title>
<g id="a_edge30"><a xlink:title="include">
<path fill="none" stroke="#1414ce" d="M802.1,-215.88C828.4,-204.92 862.37,-190.76 888.54,-179.86"/>
<polygon fill="#1414ce" stroke="#1414ce" points="889.92,-183.07 897.81,-176 887.23,-176.61 889.92,-183.07"/>
</a>
</g>
</g>
<!-- 23&#45;&gt;4 -->
<g id="edge27" class="edge">
<title>23&#45;&gt;4</title>
<g id="a_edge27"><a xlink:title="include">
<path fill="none" stroke="#1414ce" d="M731.57,-215.87C687.42,-190.18 604.03,-141.65 555.23,-113.25"/>
<polygon fill="#1414ce" stroke="#1414ce" points="556.94,-110.19 546.54,-108.19 553.42,-116.24 556.94,-110.19"/>
</a>
</g>
</g>
<!-- 13&#45;&gt;7 -->
<g id="edge33" class="edge">
<title>13&#45;&gt;7</title>
<g id="a_edge33"><a xlink:title="include">
<path fill="none" stroke="#1414ce" d="M1199.42,-215.88C1213.41,-206.81 1230.78,-195.55 1245.89,-185.76"/>
<polygon fill="#1414ce" stroke="#1414ce" points="1247.99,-188.57 1254.48,-180.19 1244.18,-182.69 1247.99,-188.57"/>
</a>
</g>
</g>
<!-- 13&#45;&gt;8 -->
<g id="edge34" class="edge">
<title>13&#45;&gt;8</title>
<g id="a_edge34"><a xlink:title="include">
<path fill="none" stroke="#1414ce" d="M1184.58,-215.87C1201.3,-191.14 1232.33,-145.24 1251.75,-116.51"/>
<polygon fill="#1414ce" stroke="#1414ce" points="1254.68,-118.43 1257.38,-108.19 1248.88,-114.51 1254.68,-118.43"/>
</a>
</g>
</g>
<!-- 13&#45;&gt;14 -->
<g id="edge35" class="edge">
<title>13&#45;&gt;14</title>
<g id="a_edge35"><a xlink:title="include">
<path fill="none" stroke="#1414ce" d="M1129.94,-220.65C1084.75,-207.68 1014.25,-187.46 969.9,-174.73"/>
<polygon fill="#1414ce" stroke="#1414ce" points="970.61,-171.3 960.03,-171.9 968.68,-178.02 970.61,-171.3"/>
</a>
</g>
</g>
<!-- 13&#45;&gt;12 -->
<g id="edge31" class="edge">
<title>13&#45;&gt;12</title>
<g id="a_edge31"><a xlink:title="include">
<path fill="none" stroke="#1414ce" d="M1171.9,-215.84C1168.76,-182.28 1156.72,-108.1 1111,-72 1071.75,-41 928.03,-27.03 853.12,-21.73"/>
<polygon fill="#1414ce" stroke="#1414ce" points="853.24,-18.23 843.02,-21.04 852.76,-25.22 853.24,-18.23"/>
</a>
</g>
</g>
<!-- 13&#45;&gt;2 -->
<g id="edge32" class="edge">
<title>13&#45;&gt;2</title>
<g id="a_edge32"><a xlink:title="include">
<path fill="none" stroke="#1414ce" d="M1163.38,-215.97C1152.7,-197.57 1134.52,-167.72 1116,-144 1108.41,-134.28 1099.36,-124.28 1091.05,-115.63"/>
<polygon fill="#1414ce" stroke="#1414ce" points="1093.49,-113.11 1084,-108.4 1088.48,-118 1093.49,-113.11"/>
</a>
</g>
</g>
<!-- 1 -->
<g id="node11" class="node">
<title>1</title>
<g id="a_node11"><a xlink:title="/__w/AtomVM/AtomVM/src/libAtomVM/refc_binary.c">
<polygon fill="#bfbfbf" stroke="black" points="1357.5,-756 974.5,-756 974.5,-720 1357.5,-720 1357.5,-756"/>
<text text-anchor="middle" x="1166" y="-734.3" font-family="Times,serif" font-size="14.00">/__w/AtomVM/AtomVM/src/libAtomVM/refc_binary.c</text>
</a>
</g>
</g>
<!-- 1&#45;&gt;19 -->
<g id="edge38" class="edge">
<title>1&#45;&gt;19</title>
<g id="a_edge38"><a xlink:title="include">
<path fill="none" stroke="#1414ce" d="M1058.48,-719.96C999.2,-710.2 924.37,-697.27 858,-684 736.21,-659.64 594.25,-625.88 519.74,-607.74"/>
<polygon fill="#1414ce" stroke="#1414ce" points="520.23,-604.26 509.68,-605.29 518.57,-611.06 520.23,-604.26"/>
</a>
</g>
</g>
<!-- 1&#45;&gt;28 -->
<g id="edge39" class="edge">
<title>1&#45;&gt;28</title>
<g id="a_edge39"><a xlink:title="include">
<path fill="none" stroke="#1414ce" d="M1105.46,-719.89C1076.28,-710.74 1041.16,-698.4 1011,-684 925.36,-643.11 833.03,-579.7 786.16,-545.96"/>
<polygon fill="#1414ce" stroke="#1414ce" points="788.1,-543.04 777.94,-540.01 783.99,-548.71 788.1,-543.04"/>
</a>
</g>
</g>
<!-- 1&#45;&gt;29 -->
<g id="edge40" class="edge">
<title>1&#45;&gt;29</title>
<g id="a_edge40"><a xlink:title="include">
<path fill="none" stroke="#1414ce" d="M1166,-719.7C1166,-711.98 1166,-702.71 1166,-694.11"/>
<polygon fill="#1414ce" stroke="#1414ce" points="1169.5,-694.1 1166,-684.1 1162.5,-694.1 1169.5,-694.1"/>
</a>
</g>
</g>
<!-- 1&#45;&gt;13 -->
<g id="edge41" class="edge">
<title>1&#45;&gt;13</title>
<g id="a_edge41"><a xlink:title="include">
<path fill="none" stroke="#1414ce" d="M1261.98,-719.9C1299.75,-711.05 1336.79,-698.94 1348,-684 1455.22,-541.1 1401.67,-417.88 1279,-288 1264.38,-272.52 1244.25,-260.89 1225.46,-252.53"/>
<polygon fill="#1414ce" stroke="#1414ce" points="1226.66,-249.24 1216.08,-248.57 1223.93,-255.69 1226.66,-249.24"/>
</a>
</g>
</g>
<!-- 3 -->
<g id="node12" class="node">
<title>3</title>
<g id="a_node12"><a xlink:title="refc_binary.h">
<polygon fill="#ffffff" stroke="black" points="1058,-396 950,-396 950,-360 1058,-360 1058,-396"/>
<text text-anchor="middle" x="1004" y="-374.3" font-family="Times,serif" font-size="14.00">refc_binary.h</text>
</a>
</g>
</g>
<!-- 1&#45;&gt;3 -->
<g id="edge37" class="edge">
<title>1&#45;&gt;3</title>
<g id="a_edge37"><a xlink:title="include">
<path fill="none" stroke="#1414ce" d="M1122.61,-719.89C1104.67,-711.2 1084.67,-699.21 1070,-684 1039.23,-652.09 1025,-639.32 1025,-595 1025,-595 1025,-595 1025,-521 1025,-480.78 1016.65,-434.84 1010.49,-406.37"/>
<polygon fill="#1414ce" stroke="#1414ce" points="1013.85,-405.36 1008.25,-396.37 1007.01,-406.89 1013.85,-405.36"/>
</a>
</g>
</g>
<!-- 31 -->
<g id="node19" class="node">
<title>31</title>
<g id="a_node19"><a xlink:title="trace.h">
<polygon fill="#ffffff" stroke="black" points="1305.5,-684 1238.5,-684 1238.5,-648 1305.5,-648 1305.5,-684"/>
<text text-anchor="middle" x="1272" y="-662.3" font-family="Times,serif" font-size="14.00">trace.h</text>
</a>
</g>
</g>
<!-- 1&#45;&gt;31 -->
<g id="edge44" class="edge">
<title>1&#45;&gt;31</title>
<g id="a_edge44"><a xlink:title="include">
<path fill="none" stroke="#1414ce" d="M1191.93,-719.88C1205.66,-710.81 1222.71,-699.55 1237.54,-689.76"/>
<polygon fill="#1414ce" stroke="#1414ce" points="1239.55,-692.62 1245.97,-684.19 1235.7,-686.78 1239.55,-692.62"/>
</a>
</g>
</g>
<!-- 1&#45;&gt;14 -->
<g id="edge43" class="edge">
<title>1&#45;&gt;14</title>
<g id="a_edge43"><a xlink:title="include">
<path fill="none" stroke="#1414ce" d="M1137.06,-719.92C1124.44,-710.9 1110.78,-698.64 1103,-684 1069.25,-620.46 1086,-594.95 1086,-523 1086,-523 1086,-523 1086,-449 1086,-340.35 997.85,-233.95 953.65,-187.43"/>
<polygon fill="#1414ce" stroke="#1414ce" points="956.17,-184.99 946.7,-180.22 951.13,-189.85 956.17,-184.99"/>
</a>
</g>
</g>
<!-- 1&#45;&gt;2 -->
<g id="edge36" class="edge">
<title>1&#45;&gt;2</title>
<g id="a_edge36"><a xlink:title="include">
<path fill="none" stroke="#1414ce" d="M1260.21,-719.97C1280.83,-712.14 1300.73,-700.7 1315,-684 1404.56,-579.14 1372,-516.9 1372,-379 1372,-379 1372,-379 1372,-233 1372,-188.68 1362.25,-170.88 1327,-144 1310.03,-131.06 1181.73,-109.21 1111.55,-98.04"/>
<polygon fill="#1414ce" stroke="#1414ce" points="1112.06,-94.57 1101.63,-96.47 1110.96,-101.49 1112.06,-94.57"/>
</a>
</g>
</g>
<!-- 30 -->
<g id="node31" class="node">
<title>30</title>
<g id="a_node31"><a xlink:title="tempstack.h">
<polygon fill="#ffffff" stroke="black" points="1504,-684 1400,-684 1400,-648 1504,-648 1504,-684"/>
<text text-anchor="middle" x="1452" y="-662.3" font-family="Times,serif" font-size="14.00">tempstack.h</text>
</a>
</g>
</g>
<!-- 1&#45;&gt;30 -->
<g id="edge42" class="edge">
<title>1&#45;&gt;30</title>
<g id="a_edge42"><a xlink:title="include">
<path fill="none" stroke="#1414ce" d="M1237.9,-719.98C1280.92,-709.72 1336.63,-696.3 1386,-684 1387.26,-683.69 1388.53,-683.37 1389.81,-683.05"/>
<polygon fill="#1414ce" stroke="#1414ce" points="1390.94,-686.37 1399.78,-680.53 1389.23,-679.58 1390.94,-686.37"/>
</a>
</g>
</g>
<!-- 3&#45;&gt;5 -->
<g id="edge47" class="edge">
<title>3&#45;&gt;5</title>
<g id="a_edge47"><a xlink:title="include">
<path fill="none" stroke="#1414ce" d="M949.94,-370.37C855.21,-357.3 654.6,-323.08 500,-252 463.25,-235.1 426.12,-206.94 401.99,-186.82"/>
<polygon fill="#1414ce" stroke="#1414ce" points="404.22,-184.12 394.32,-180.33 399.7,-189.47 404.22,-184.12"/>
</a>
</g>
</g>
<!-- 3&#45;&gt;6 -->
<g id="edge48" class="edge">
<title>3&#45;&gt;6</title>
<g id="a_edge48"><a xlink:title="include">
<path fill="none" stroke="#1414ce" d="M1037.76,-359.88C1056.22,-350.51 1079.28,-338.81 1099.02,-328.8"/>
<polygon fill="#1414ce" stroke="#1414ce" points="1100.78,-331.83 1108.11,-324.19 1097.61,-325.59 1100.78,-331.83"/>
</a>
</g>
</g>
<!-- 3&#45;&gt;4 -->
<g id="edge45" class="edge">
<title>3&#45;&gt;4</title>
<g id="a_edge45"><a xlink:title="include">
<path fill="none" stroke="#1414ce" d="M987.2,-359.79C955.5,-328.06 883.69,-259.6 813,-216 778.43,-194.68 766.03,-196.7 729,-180 694.93,-164.64 687.32,-158.79 653,-144 625.25,-132.04 593.83,-119.72 568.2,-109.97"/>
<polygon fill="#1414ce" stroke="#1414ce" points="569.27,-106.63 558.67,-106.37 566.79,-113.18 569.27,-106.63"/>
</a>
</g>
</g>
<!-- 3&#45;&gt;2 -->
<g id="edge46" class="edge">
<title>3&#45;&gt;2</title>
<g id="a_edge46"><a xlink:title="include">
<path fill="none" stroke="#1414ce" d="M1007.69,-359.97C1018.05,-312.19 1047.44,-176.62 1060.09,-118.27"/>
<polygon fill="#1414ce" stroke="#1414ce" points="1063.55,-118.82 1062.25,-108.31 1056.71,-117.34 1063.55,-118.82"/>
</a>
</g>
</g>
<!-- 6&#45;&gt;7 -->
<g id="edge50" class="edge">
<title>6&#45;&gt;7</title>
<g id="a_edge50"><a xlink:title="include">
<path fill="none" stroke="#1414ce" d="M1175.96,-287.88C1192.04,-278.69 1210.78,-266.31 1225,-252 1243.27,-233.61 1258.5,-208.23 1268.45,-189.28"/>
<polygon fill="#1414ce" stroke="#1414ce" points="1271.6,-190.79 1273.02,-180.29 1265.37,-187.62 1271.6,-190.79"/>
</a>
</g>
</g>
<!-- 6&#45;&gt;5 -->
<g id="edge51" class="edge">
<title>6&#45;&gt;5</title>
<g id="a_edge51"><a xlink:title="include">
<path fill="none" stroke="#1414ce" d="M1091.76,-300.07C1056.11,-296.6 1007.13,-291.91 964,-288 870.71,-279.55 630.8,-287.23 544,-252 520.59,-242.5 521.63,-229.06 500,-216 472.04,-199.11 437.71,-184.97 412.11,-175.56"/>
<polygon fill="#1414ce" stroke="#1414ce" points="413.01,-172.16 402.41,-172.06 410.63,-178.75 413.01,-172.16"/>
</a>
</g>
</g>
<!-- 6&#45;&gt;13 -->
<g id="edge52" class="edge">
<title>6&#45;&gt;13</title>
<g id="a_edge52"><a xlink:title="include">
<path fill="none" stroke="#1414ce" d="M1149.66,-287.7C1153.19,-279.73 1157.46,-270.1 1161.37,-261.26"/>
<polygon fill="#1414ce" stroke="#1414ce" points="1164.58,-262.67 1165.43,-252.1 1158.18,-259.83 1164.58,-262.67"/>
</a>
</g>
</g>
<!-- 6&#45;&gt;17 -->
<g id="edge53" class="edge">
<title>6&#45;&gt;17</title>
<g id="a_edge53"><a xlink:title="include">
<path fill="none" stroke="#1414ce" d="M1091.59,-301.04C984.48,-292.56 726.28,-271.82 510,-252 470.42,-248.37 425.73,-243.92 391.96,-240.48"/>
<polygon fill="#1414ce" stroke="#1414ce" points="392.15,-236.98 381.85,-239.44 391.44,-243.94 392.15,-236.98"/>
</a>
</g>
</g>
<!-- 6&#45;&gt;2 -->
<g id="edge49" class="edge">
<title>6&#45;&gt;2</title>
<g id="a_edge49"><a xlink:title="include">
<path fill="none" stroke="#1414ce" d="M1134.98,-287.89C1130.8,-277.55 1125.45,-264.07 1121,-252 1103.67,-204.99 1085.15,-149.58 1074.64,-117.55"/>
<polygon fill="#1414ce" stroke="#1414ce" points="1077.95,-116.43 1071.51,-108.02 1071.3,-118.61 1077.95,-116.43"/>
</a>
</g>
</g>
<!-- 18&#45;&gt;4 -->
<g id="edge54" class="edge">
<title>18&#45;&gt;4</title>
<g id="a_edge54"><a xlink:title="include">
<path fill="none" stroke="#1414ce" d="M294.02,-152.7C336.23,-141.02 413.73,-119.57 465.32,-105.3"/>
<polygon fill="#1414ce" stroke="#1414ce" points="466.57,-108.58 475.28,-102.54 464.7,-101.84 466.57,-108.58"/>
</a>
</g>
</g>
<!-- 17&#45;&gt;5 -->
<g id="edge56" class="edge">
<title>17&#45;&gt;5</title>
<g id="a_edge56"><a xlink:title="include">
<path fill="none" stroke="#1414ce" d="M347.9,-215.7C352,-207.73 356.95,-198.1 361.49,-189.26"/>
<polygon fill="#1414ce" stroke="#1414ce" points="364.74,-190.6 366.2,-180.1 358.52,-187.4 364.74,-190.6"/>
</a>
</g>
</g>
<!-- 17&#45;&gt;18 -->
<g id="edge57" class="edge">
<title>17&#45;&gt;18</title>
<g id="a_edge57"><a xlink:title="include">
<path fill="none" stroke="#1414ce" d="M320.46,-215.7C311.2,-207.05 299.84,-196.45 289.74,-187.03"/>
<polygon fill="#1414ce" stroke="#1414ce" points="292.02,-184.37 282.33,-180.1 287.25,-189.49 292.02,-184.37"/>
</a>
</g>
</g>
<!-- 16 -->
<g id="node27" class="node">
<title>16</title>
<g id="a_node27"><a xlink:title="stdio.h">
<polygon fill="#ffffff" stroke="black" points="919.5,-108 854.5,-108 854.5,-72 919.5,-72 919.5,-108"/>
<text text-anchor="middle" x="887" y="-86.3" font-family="Times,serif" font-size="14.00">stdio.h</text>
</a>
</g>
</g>
<!-- 17&#45;&gt;16 -->
<g id="edge55" class="edge">
<title>17&#45;&gt;16</title>
<g id="a_edge55"><a xlink:title="include">
<path fill="none" stroke="#1414ce" d="M381.54,-221.98C483.78,-195.48 742.33,-128.49 844.51,-102.01"/>
<polygon fill="#1414ce" stroke="#1414ce" points="845.67,-105.33 854.47,-99.43 843.91,-98.55 845.67,-105.33"/>
</a>
</g>
</g>
<!-- 24&#45;&gt;13 -->
<g id="edge64" class="edge">
<title>24&#45;&gt;13</title>
<g id="a_edge64"><a xlink:title="include">
<path fill="none" stroke="#1414ce" d="M787.74,-446.94C845.53,-442.54 968.78,-429.71 1067,-396 1130.95,-374.05 1166.31,-382.03 1201,-324 1212.79,-304.29 1202.93,-279.11 1191.78,-260.56"/>
<polygon fill="#1414ce" stroke="#1414ce" points="1194.65,-258.56 1186.3,-252.05 1188.77,-262.35 1194.65,-258.56"/>
</a>
</g>
</g>
<!-- 24&#45;&gt;3 -->
<g id="edge65" class="edge">
<title>24&#45;&gt;3</title>
<g id="a_edge65"><a xlink:title="include">
<path fill="none" stroke="#1414ce" d="M787.55,-439.85C826.03,-429.03 890.98,-410.77 939.72,-397.07"/>
<polygon fill="#1414ce" stroke="#1414ce" points="940.87,-400.38 949.55,-394.31 938.97,-393.64 940.87,-400.38"/>
</a>
</g>
</g>
<!-- 24&#45;&gt;8 -->
<g id="edge67" class="edge">
<title>24&#45;&gt;8</title>
<g id="a_edge67"><a xlink:title="include">
<path fill="none" stroke="#1414ce" d="M787.63,-446.71C867.28,-440.76 1069.56,-423.33 1131,-396 1176.41,-375.8 1362.4,-231.12 1386,-180 1392.71,-165.47 1394.67,-157.45 1386,-144 1375.5,-127.72 1358.66,-116.39 1340.99,-108.52"/>
<polygon fill="#1414ce" stroke="#1414ce" points="1342.28,-105.26 1331.7,-104.71 1339.62,-111.74 1342.28,-105.26"/>
</a>
</g>
</g>
<!-- 24&#45;&gt;14 -->
<g id="edge66" class="edge">
<title>24&#45;&gt;14</title>
<g id="a_edge66"><a xlink:title="include">
<path fill="none" stroke="#1414ce" d="M787.75,-441.14C812.42,-433.57 845.25,-419.69 865,-396 871.73,-387.93 907.16,-249.62 922.22,-190"/>
<polygon fill="#1414ce" stroke="#1414ce" points="925.65,-190.71 924.7,-180.15 918.86,-189 925.65,-190.71"/>
</a>
</g>
</g>
<!-- 24&#45;&gt;4 -->
<g id="edge59" class="edge">
<title>24&#45;&gt;4</title>
<g id="a_edge59"><a xlink:title="include">
<path fill="none" stroke="#1414ce" d="M722.21,-447.53C684.5,-444.06 623.16,-432.72 587,-396 511.1,-318.92 510.92,-177.24 514.59,-118.08"/>
<polygon fill="#1414ce" stroke="#1414ce" points="518.09,-118.24 515.3,-108.02 511.1,-117.75 518.09,-118.24"/>
</a>
</g>
</g>
<!-- 24&#45;&gt;12 -->
<g id="edge60" class="edge">
<title>24&#45;&gt;12</title>
<g id="a_edge60"><a xlink:title="include">
<path fill="none" stroke="#1414ce" d="M722.32,-442.51C697.19,-435.62 664.12,-421.98 648,-396 639.56,-382.41 643.99,-375.49 648,-360 657.18,-324.56 659.35,-310.79 688,-288 733.24,-252.01 778.23,-298.19 813,-252 859.13,-190.7 833.65,-92.41 817.32,-45.53"/>
<polygon fill="#1414ce" stroke="#1414ce" points="820.59,-44.29 813.9,-36.08 814.01,-46.67 820.59,-44.29"/>
</a>
</g>
</g>
<!-- 24&#45;&gt;16 -->
<g id="edge61" class="edge">
<title>24&#45;&gt;16</title>
<g id="a_edge61"><a xlink:title="include">
<path fill="none" stroke="#1414ce" d="M722.07,-440.35C699.99,-432.65 672.55,-418.95 659,-396 650.87,-382.22 651,-373.86 659,-360 706.98,-276.88 788.05,-328.51 846,-252 876.09,-212.27 884.24,-152.82 886.36,-118.37"/>
<polygon fill="#1414ce" stroke="#1414ce" points="889.87,-118.28 886.85,-108.13 882.88,-117.94 889.87,-118.28"/>
</a>
</g>
</g>
<!-- 24&#45;&gt;2 -->
<g id="edge62" class="edge">
<title>24&#45;&gt;2</title>
<g id="a_edge62"><a xlink:title="include">
<path fill="none" stroke="#1414ce" d="M787.77,-441.76C815.87,-434.21 856.12,-420.03 884,-396 931.97,-354.66 1020.13,-183.31 1053.1,-117.19"/>
<polygon fill="#1414ce" stroke="#1414ce" points="1056.24,-118.74 1057.55,-108.23 1049.97,-115.63 1056.24,-118.74"/>
</a>
</g>
</g>
<!-- 26 -->
<g id="node29" class="node">
<title>26</title>
<g id="a_node29"><a xlink:title="string.h">
<polygon fill="#ffffff" stroke="black" points="740.5,-396 667.5,-396 667.5,-360 740.5,-360 740.5,-396"/>
<text text-anchor="middle" x="704" y="-374.3" font-family="Times,serif" font-size="14.00">string.h</text>
</a>
</g>
</g>
<!-- 24&#45;&gt;26 -->
<g id="edge63" class="edge">
<title>24&#45;&gt;26</title>
<g id="a_edge63"><a xlink:title="include">
<path fill="none" stroke="#1414ce" d="M742.39,-431.7C736.4,-423.47 729.12,-413.48 722.52,-404.42"/>
<polygon fill="#1414ce" stroke="#1414ce" points="725.18,-402.13 716.46,-396.1 719.52,-406.25 725.18,-402.13"/>
</a>
</g>
</g>
<!-- 25 -->
<g id="node30" class="node">
<title>25</title>
<g id="a_node30"><a xlink:title="sys/types.h">
<polygon fill="#ffffff" stroke="black" points="855.5,-396 758.5,-396 758.5,-360 855.5,-360 855.5,-396"/>
<text text-anchor="middle" x="807" y="-374.3" font-family="Times,serif" font-size="14.00">sys/types.h</text>
</a>
</g>
</g>
<!-- 24&#45;&gt;25 -->
<g id="edge58" class="edge">
<title>24&#45;&gt;25</title>
<g id="a_edge58"><a xlink:title="include">
<path fill="none" stroke="#1414ce" d="M767.85,-431.7C774.03,-423.39 781.54,-413.28 788.32,-404.14"/>
<polygon fill="#1414ce" stroke="#1414ce" points="791.14,-406.22 794.29,-396.1 785.52,-402.04 791.14,-406.22"/>
</a>
</g>
</g>
<!-- 9 -->
<g id="node21" class="node">
<title>9</title>
<g id="a_node21"><a xlink:title="assert.h">
<polygon fill="#ffffff" stroke="black" points="1206,-36 1132,-36 1132,0 1206,0 1206,-36"/>
<text text-anchor="middle" x="1169" y="-14.3" font-family="Times,serif" font-size="14.00">assert.h</text>
</a>
</g>
</g>
<!-- 8&#45;&gt;9 -->
<g id="edge68" class="edge">
<title>8&#45;&gt;9</title>
<g id="a_edge68"><a xlink:title="include">
<path fill="none" stroke="#1414ce" d="M1244.54,-71.88C1231.7,-62.89 1215.8,-51.76 1201.91,-42.03"/>
<polygon fill="#1414ce" stroke="#1414ce" points="1203.76,-39.06 1193.56,-36.19 1199.74,-44.79 1203.76,-39.06"/>
</a>
</g>
</g>
<!-- 11 -->
<g id="node22" class="node">
<title>11</title>
<g id="a_node22"><a xlink:title="inttypes.h">
<polygon fill="#ffffff" stroke="black" points="1313.5,-36 1224.5,-36 1224.5,0 1313.5,0 1313.5,-36"/>
<text text-anchor="middle" x="1269" y="-14.3" font-family="Times,serif" font-size="14.00">inttypes.h</text>
</a>
</g>
</g>
<!-- 8&#45;&gt;11 -->
<g id="edge70" class="edge">
<title>8&#45;&gt;11</title>
<g id="a_edge70"><a xlink:title="include">
<path fill="none" stroke="#1414ce" d="M1269,-71.7C1269,-63.98 1269,-54.71 1269,-46.11"/>
<polygon fill="#1414ce" stroke="#1414ce" points="1272.5,-46.1 1269,-36.1 1265.5,-46.1 1272.5,-46.1"/>
</a>
</g>
</g>
<!-- 10 -->
<g id="node23" class="node">
<title>10</title>
<g id="a_node23"><a xlink:title="limits.h">
<polygon fill="#ffffff" stroke="black" points="1402.5,-36 1331.5,-36 1331.5,0 1402.5,0 1402.5,-36"/>
<text text-anchor="middle" x="1367" y="-14.3" font-family="Times,serif" font-size="14.00">limits.h</text>
</a>
</g>
</g>
<!-- 8&#45;&gt;10 -->
<g id="edge69" class="edge">
<title>8&#45;&gt;10</title>
<g id="a_edge69"><a xlink:title="include">
<path fill="none" stroke="#1414ce" d="M1292.97,-71.88C1305.55,-62.89 1321.13,-51.76 1334.75,-42.03"/>
<polygon fill="#1414ce" stroke="#1414ce" points="1336.83,-44.85 1342.93,-36.19 1332.76,-39.15 1336.83,-44.85"/>
</a>
</g>
</g>
<!-- 8&#45;&gt;12 -->
<g id="edge71" class="edge">
<title>8&#45;&gt;12</title>
<g id="a_edge71"><a xlink:title="include">
<path fill="none" stroke="#1414ce" d="M1206.47,-74.75C1201.58,-73.77 1196.72,-72.84 1192,-72 1070.46,-50.25 925.95,-32.51 853.41,-24.17"/>
<polygon fill="#1414ce" stroke="#1414ce" points="853.58,-20.66 843.25,-23 852.78,-27.62 853.58,-20.66"/>
</a>
</g>
</g>
<!-- 27&#45;&gt;5 -->
<g id="edge74" class="edge">
<title>27&#45;&gt;5</title>
<g id="a_edge74"><a xlink:title="include">
<path fill="none" stroke="#1414ce" d="M126.38,-221.44C172.17,-210.72 242.19,-194.31 303,-180 314.39,-177.32 326.79,-174.39 338.04,-171.74"/>
<polygon fill="#1414ce" stroke="#1414ce" points="339.06,-175.09 347.99,-169.39 337.46,-168.28 339.06,-175.09"/>
</a>
</g>
</g>
<!-- 27&#45;&gt;4 -->
<g id="edge72" class="edge">
<title>27&#45;&gt;4</title>
<g id="a_edge72"><a xlink:title="include">
<path fill="none" stroke="#1414ce" d="M99.74,-215.7C127.69,-195.33 177.31,-161.98 225,-144 305.5,-113.66 405.21,-100.35 464.83,-94.76"/>
<polygon fill="#1414ce" stroke="#1414ce" points="465.47,-98.22 475.12,-93.84 464.85,-91.25 465.47,-98.22"/>
</a>
</g>
</g>
<!-- 27&#45;&gt;12 -->
<g id="edge73" class="edge">
<title>27&#45;&gt;12</title>
<g id="a_edge73"><a xlink:title="include">
<path fill="none" stroke="#1414ce" d="M86.4,-215.66C98.39,-195.25 121.1,-161.86 150,-144 253.62,-79.96 628.72,-36.93 760.69,-23.48"/>
<polygon fill="#1414ce" stroke="#1414ce" points="761.26,-26.94 770.86,-22.46 760.56,-19.98 761.26,-26.94"/>
</a>
</g>
</g>
<!-- 15 -->
<g id="node25" class="node">
<title>15</title>
<g id="a_node25"><a xlink:title="stddef.h">
<polygon fill="#ffffff" stroke="black" points="1012,-108 938,-108 938,-72 1012,-72 1012,-108"/>
<text text-anchor="middle" x="975" y="-86.3" font-family="Times,serif" font-size="14.00">stddef.h</text>
</a>
</g>
</g>
<!-- 14&#45;&gt;15 -->
<g id="edge75" class="edge">
<title>14&#45;&gt;15</title>
<g id="a_edge75"><a xlink:title="include">
<path fill="none" stroke="#1414ce" d="M940.37,-143.7C945.72,-135.56 952.2,-125.69 958.11,-116.7"/>
<polygon fill="#1414ce" stroke="#1414ce" points="961.19,-118.38 963.76,-108.1 955.34,-114.54 961.19,-118.38"/>
</a>
</g>
</g>
<!-- 14&#45;&gt;16 -->
<g id="edge76" class="edge">
<title>14&#45;&gt;16</title>
<g id="a_edge76"><a xlink:title="include">
<path fill="none" stroke="#1414ce" d="M918.62,-143.7C913.74,-135.56 907.81,-125.69 902.42,-116.7"/>
<polygon fill="#1414ce" stroke="#1414ce" points="905.41,-114.88 897.26,-108.1 899.41,-118.48 905.41,-114.88"/>
</a>
</g>
</g>
<!-- 14&#45;&gt;2 -->
<g id="edge77" class="edge">
<title>14&#45;&gt;2</title>
<g id="a_edge77"><a xlink:title="include">
<path fill="none" stroke="#1414ce" d="M960.09,-145.12C978.85,-135.53 1003,-123.19 1023.51,-112.71"/>
<polygon fill="#1414ce" stroke="#1414ce" points="1025.33,-115.71 1032.64,-108.04 1022.14,-109.48 1025.33,-115.71"/>
</a>
</g>
</g>
</g>
</svg>
