<?xml version="1.0" encoding="UTF-8" standalone="no"?>
<!DOCTYPE svg PUBLIC "-//W3C//DTD SVG 1.1//EN"
 "http://www.w3.org/Graphics/SVG/1.1/DTD/svg11.dtd">
<!-- Generated by graphviz version 2.43.0 (0)
 -->
<!-- Title: %3 Pages: 1 -->
<svg width="1443pt" height="692pt"
 viewBox="0.00 0.00 1443.00 692.00" xmlns="http://www.w3.org/2000/svg" xmlns:xlink="http://www.w3.org/1999/xlink">
<g id="graph0" class="graph" transform="scale(1 1) rotate(0) translate(4 688)">
<title>%3</title>
<polygon fill="transparent" stroke="transparent" points="-4,4 -4,-688 1439,-688 1439,4 -4,4"/>
<!-- 5 -->
<g id="node1" class="node">
<title>5</title>
<g id="a_node1"><a xlink:title="atom.h">
<polygon fill="#ffffff" stroke="black" points="160,-180 94,-180 94,-144 160,-144 160,-180"/>
<text text-anchor="middle" x="127" y="-158.3" font-family="Times,serif" font-size="14.00">atom.h</text>
</a>
</g>
</g>
<!-- 4 -->
<g id="node24" class="node">
<title>4</title>
<g id="a_node24"><a xlink:title="stdint.h">
<polygon fill="#ffffff" stroke="black" points="647,-36 575,-36 575,0 647,0 647,-36"/>
<text text-anchor="middle" x="611" y="-14.3" font-family="Times,serif" font-size="14.00">stdint.h</text>
</a>
</g>
</g>
<!-- 5&#45;&gt;4 -->
<g id="edge1" class="edge">
<title>5&#45;&gt;4</title>
<g id="a_edge1"><a xlink:title="include">
<path fill="none" stroke="#1414ce" d="M143.64,-143.65C164.68,-122.9 203,-88.85 243,-72 351.86,-26.14 493.13,-18.76 564.85,-18.28"/>
<polygon fill="#1414ce" stroke="#1414ce" points="564.92,-21.78 574.91,-18.26 564.91,-14.78 564.92,-21.78"/>
</a>
</g>
</g>
<!-- 6 -->
<g id="node26" class="node">
<title>6</title>
<g id="a_node26"><a xlink:title="stdlib.h">
<polygon fill="#ffffff" stroke="black" points="946.5,-108 875.5,-108 875.5,-72 946.5,-72 946.5,-108"/>
<text text-anchor="middle" x="911" y="-86.3" font-family="Times,serif" font-size="14.00">stdlib.h</text>
</a>
</g>
</g>
<!-- 5&#45;&gt;6 -->
<g id="edge2" class="edge">
<title>5&#45;&gt;6</title>
<g id="a_edge2"><a xlink:title="include">
<path fill="none" stroke="#1414ce" d="M160.19,-158.04C284.3,-146.96 721.34,-107.93 864.92,-95.11"/>
<polygon fill="#1414ce" stroke="#1414ce" points="865.49,-98.58 875.14,-94.2 864.86,-91.61 865.49,-98.58"/>
</a>
</g>
</g>
<!-- 7 -->
<g id="node2" class="node">
<title>7</title>
<g id="a_node2"><a xlink:title="atom_table.h">
<polygon fill="#ffffff" stroke="black" points="175.5,-252 66.5,-252 66.5,-216 175.5,-216 175.5,-252"/>
<text text-anchor="middle" x="121" y="-230.3" font-family="Times,serif" font-size="14.00">atom_table.h</text>
</a>
</g>
</g>
<!-- 7&#45;&gt;5 -->
<g id="edge4" class="edge">
<title>7&#45;&gt;5</title>
<g id="a_edge4"><a xlink:title="include">
<path fill="none" stroke="#1414ce" d="M122.48,-215.7C123.14,-207.98 123.94,-198.71 124.68,-190.11"/>
<polygon fill="#1414ce" stroke="#1414ce" points="128.17,-190.37 125.53,-180.1 121.19,-189.77 128.17,-190.37"/>
</a>
</g>
</g>
<!-- 8 -->
<g id="node22" class="node">
<title>8</title>
<g id="a_node22"><a xlink:title="stdbool.h">
<polygon fill="#ffffff" stroke="black" points="546.5,-108 463.5,-108 463.5,-72 546.5,-72 546.5,-108"/>
<text text-anchor="middle" x="505" y="-86.3" font-family="Times,serif" font-size="14.00">stdbool.h</text>
</a>
</g>
</g>
<!-- 7&#45;&gt;8 -->
<g id="edge3" class="edge">
<title>7&#45;&gt;8</title>
<g id="a_edge3"><a xlink:title="include">
<path fill="none" stroke="#1414ce" d="M150.73,-215.93C185.75,-196.39 246.12,-164.45 301,-144 351.53,-125.17 411.47,-110.46 453.26,-101.36"/>
<polygon fill="#1414ce" stroke="#1414ce" points="454.16,-104.75 463.21,-99.23 452.69,-97.9 454.16,-104.75"/>
</a>
</g>
</g>
<!-- 2 -->
<g id="node3" class="node">
<title>2</title>
<g id="a_node3"><a xlink:title="context.h">
<polygon fill="#ffffff" stroke="black" points="566.5,-612 483.5,-612 483.5,-576 566.5,-576 566.5,-612"/>
<text text-anchor="middle" x="525" y="-590.3" font-family="Times,serif" font-size="14.00">context.h</text>
</a>
</g>
</g>
<!-- 3 -->
<g id="node6" class="node">
<title>3</title>
<g id="a_node6"><a xlink:title="globalcontext.h">
<polygon fill="#ffffff" stroke="black" points="386.5,-540 259.5,-540 259.5,-504 386.5,-504 386.5,-540"/>
<text text-anchor="middle" x="323" y="-518.3" font-family="Times,serif" font-size="14.00">globalcontext.h</text>
</a>
</g>
</g>
<!-- 2&#45;&gt;3 -->
<g id="edge5" class="edge">
<title>2&#45;&gt;3</title>
<g id="a_edge5"><a xlink:title="include">
<path fill="none" stroke="#1414ce" d="M483.15,-578.5C453.93,-568.37 414.51,-554.71 382.1,-543.48"/>
<polygon fill="#1414ce" stroke="#1414ce" points="382.87,-540.04 372.28,-540.08 380.58,-546.66 382.87,-540.04"/>
</a>
</g>
</g>
<!-- 14 -->
<g id="node7" class="node">
<title>14</title>
<g id="a_node7"><a xlink:title="list.h">
<polygon fill="#ffffff" stroke="black" points="499,-180 445,-180 445,-144 499,-144 499,-180"/>
<text text-anchor="middle" x="472" y="-158.3" font-family="Times,serif" font-size="14.00">list.h</text>
</a>
</g>
</g>
<!-- 2&#45;&gt;14 -->
<g id="edge6" class="edge">
<title>2&#45;&gt;14</title>
<g id="a_edge6"><a xlink:title="include">
<path fill="none" stroke="#1414ce" d="M521.35,-575.72C511.01,-525.83 481.67,-377.14 472,-252 470.4,-231.33 470.48,-207.88 470.92,-190.25"/>
<polygon fill="#1414ce" stroke="#1414ce" points="474.42,-190.19 471.22,-180.09 467.42,-189.98 474.42,-190.19"/>
</a>
</g>
</g>
<!-- 15 -->
<g id="node8" class="node">
<title>15</title>
<g id="a_node8"><a xlink:title="mailbox.h">
<polygon fill="#ffffff" stroke="black" points="766,-252 680,-252 680,-216 766,-216 766,-252"/>
<text text-anchor="middle" x="723" y="-230.3" font-family="Times,serif" font-size="14.00">mailbox.h</text>
</a>
</g>
</g>
<!-- 2&#45;&gt;15 -->
<g id="edge7" class="edge">
<title>2&#45;&gt;15</title>
<g id="a_edge7"><a xlink:title="include">
<path fill="none" stroke="#1414ce" d="M537.89,-575.7C545.27,-565.51 554.52,-552.26 562,-540 622.89,-440.14 684.6,-315.09 710.42,-261.44"/>
<polygon fill="#1414ce" stroke="#1414ce" points="713.65,-262.8 714.82,-252.27 707.34,-259.77 713.65,-262.8"/>
</a>
</g>
</g>
<!-- 19 -->
<g id="node13" class="node">
<title>19</title>
<g id="a_node13"><a xlink:title="smp.h">
<polygon fill="#ffffff" stroke="black" points="426,-180 366,-180 366,-144 426,-144 426,-180"/>
<text text-anchor="middle" x="396" y="-158.3" font-family="Times,serif" font-size="14.00">smp.h</text>
</a>
</g>
</g>
<!-- 2&#45;&gt;19 -->
<g id="edge8" class="edge">
<title>2&#45;&gt;19</title>
<g id="a_edge8"><a xlink:title="include">
<path fill="none" stroke="#1414ce" d="M517.76,-575.97C513.5,-565.66 508.15,-552.18 504,-540 459.92,-410.53 418.52,-252.12 402.73,-189.9"/>
<polygon fill="#1414ce" stroke="#1414ce" points="406.1,-188.93 400.26,-180.09 399.31,-190.65 406.1,-188.93"/>
</a>
</g>
</g>
<!-- 21 -->
<g id="node15" class="node">
<title>21</title>
<g id="a_node15"><a xlink:title="term.h">
<polygon fill="#ffffff" stroke="black" points="894.5,-468 829.5,-468 829.5,-432 894.5,-432 894.5,-468"/>
<text text-anchor="middle" x="862" y="-446.3" font-family="Times,serif" font-size="14.00">term.h</text>
</a>
</g>
</g>
<!-- 2&#45;&gt;21 -->
<g id="edge9" class="edge">
<title>2&#45;&gt;21</title>
<g id="a_edge9"><a xlink:title="include">
<path fill="none" stroke="#1414ce" d="M565.65,-575.87C629.92,-548.79 754.41,-496.34 819.7,-468.82"/>
<polygon fill="#1414ce" stroke="#1414ce" points="821.41,-471.9 829.27,-464.79 818.69,-465.45 821.41,-471.9"/>
</a>
</g>
</g>
<!-- 27 -->
<g id="node17" class="node">
<title>27</title>
<g id="a_node17"><a xlink:title="timer_list.h">
<polygon fill="#ffffff" stroke="black" points="292,-252 194,-252 194,-216 292,-216 292,-252"/>
<text text-anchor="middle" x="243" y="-230.3" font-family="Times,serif" font-size="14.00">timer_list.h</text>
</a>
</g>
</g>
<!-- 2&#45;&gt;27 -->
<g id="edge10" class="edge">
<title>2&#45;&gt;27</title>
<g id="a_edge10"><a xlink:title="include">
<path fill="none" stroke="#1414ce" d="M500.01,-575.91C486.75,-566.21 470.64,-553.36 458,-540 370.03,-447.03 289.79,-315.9 257.74,-260.88"/>
<polygon fill="#1414ce" stroke="#1414ce" points="260.71,-259.02 252.67,-252.12 254.65,-262.53 260.71,-259.02"/>
</a>
</g>
</g>
<!-- 28 -->
<g id="node4" class="node">
<title>28</title>
<g id="a_node4"><a xlink:title="defaultatoms.h">
<polygon fill="#ffffff" stroke="black" points="410,-612 286,-612 286,-576 410,-576 410,-612"/>
<text text-anchor="middle" x="348" y="-590.3" font-family="Times,serif" font-size="14.00">defaultatoms.h</text>
</a>
</g>
</g>
<!-- 28&#45;&gt;3 -->
<g id="edge11" class="edge">
<title>28&#45;&gt;3</title>
<g id="a_edge11"><a xlink:title="include">
<path fill="none" stroke="#1414ce" d="M341.82,-575.7C339,-567.81 335.61,-558.3 332.48,-549.55"/>
<polygon fill="#1414ce" stroke="#1414ce" points="335.77,-548.34 329.11,-540.1 329.18,-550.7 335.77,-548.34"/>
</a>
</g>
</g>
<!-- 9 -->
<g id="node5" class="node">
<title>9</title>
<g id="a_node5"><a xlink:title="erl_nif.h">
<polygon fill="#ffffff" stroke="black" points="1356,-180 1282,-180 1282,-144 1356,-144 1356,-180"/>
<text text-anchor="middle" x="1319" y="-158.3" font-family="Times,serif" font-size="14.00">erl_nif.h</text>
</a>
</g>
</g>
<!-- 10 -->
<g id="node16" class="node">
<title>10</title>
<g id="a_node16"><a xlink:title="term_typedef.h">
<polygon fill="#ffffff" stroke="black" points="1369.5,-108 1244.5,-108 1244.5,-72 1369.5,-72 1369.5,-108"/>
<text text-anchor="middle" x="1307" y="-86.3" font-family="Times,serif" font-size="14.00">term_typedef.h</text>
</a>
</g>
</g>
<!-- 9&#45;&gt;10 -->
<g id="edge12" class="edge">
<title>9&#45;&gt;10</title>
<g id="a_edge12"><a xlink:title="include">
<path fill="none" stroke="#1414ce" d="M1316.03,-143.7C1314.71,-135.98 1313.12,-126.71 1311.65,-118.11"/>
<polygon fill="#1414ce" stroke="#1414ce" points="1315.07,-117.37 1309.93,-108.1 1308.17,-118.55 1315.07,-117.37"/>
</a>
</g>
</g>
<!-- 3&#45;&gt;5 -->
<g id="edge14" class="edge">
<title>3&#45;&gt;5</title>
<g id="a_edge14"><a xlink:title="include">
<path fill="none" stroke="#1414ce" d="M259.4,-516.85C175.4,-507.53 38,-477.26 38,-379 38,-379 38,-379 38,-305 38,-264.55 35.29,-250.13 57,-216 64.5,-204.21 75.6,-194.07 86.76,-185.91"/>
<polygon fill="#1414ce" stroke="#1414ce" points="89,-188.62 95.25,-180.06 85.03,-182.85 89,-188.62"/>
</a>
</g>
</g>
<!-- 3&#45;&gt;7 -->
<g id="edge15" class="edge">
<title>3&#45;&gt;7</title>
<g id="a_edge15"><a xlink:title="include">
<path fill="none" stroke="#1414ce" d="M294.84,-503.99C280.82,-494.59 264.28,-481.98 252,-468 194.34,-402.37 150.64,-307.26 131.55,-261.52"/>
<polygon fill="#1414ce" stroke="#1414ce" points="134.69,-259.94 127.65,-252.03 128.21,-262.61 134.69,-259.94"/>
</a>
</g>
</g>
<!-- 3&#45;&gt;9 -->
<g id="edge16" class="edge">
<title>3&#45;&gt;9</title>
<g id="a_edge16"><a xlink:title="include">
<path fill="none" stroke="#1414ce" d="M386.82,-518.65C606.65,-509.73 1319,-473.54 1319,-379 1319,-379 1319,-379 1319,-305 1319,-265 1319,-218.65 1319,-190.08"/>
<polygon fill="#1414ce" stroke="#1414ce" points="1322.5,-190.05 1319,-180.05 1315.5,-190.05 1322.5,-190.05"/>
</a>
</g>
</g>
<!-- 3&#45;&gt;14 -->
<g id="edge17" class="edge">
<title>3&#45;&gt;14</title>
<g id="a_edge17"><a xlink:title="include">
<path fill="none" stroke="#1414ce" d="M330.08,-503.85C340.31,-477.49 358,-425.21 358,-379 358,-379 358,-379 358,-305 358,-254 403.27,-210.88 436.76,-185.97"/>
<polygon fill="#1414ce" stroke="#1414ce" points="438.92,-188.73 444.98,-180.04 434.83,-183.05 438.92,-188.73"/>
</a>
</g>
</g>
<!-- 3&#45;&gt;15 -->
<g id="edge18" class="edge">
<title>3&#45;&gt;15</title>
<g id="a_edge18"><a xlink:title="include">
<path fill="none" stroke="#1414ce" d="M348.06,-503.95C363.17,-493.63 382.75,-480.15 400,-468 507.52,-392.23 633.6,-300.41 691.29,-258.23"/>
<polygon fill="#1414ce" stroke="#1414ce" points="693.62,-260.86 699.62,-252.13 689.48,-255.21 693.62,-260.86"/>
</a>
</g>
</g>
<!-- 3&#45;&gt;19 -->
<g id="edge19" class="edge">
<title>3&#45;&gt;19</title>
<g id="a_edge19"><a xlink:title="include">
<path fill="none" stroke="#1414ce" d="M320.22,-503.82C313.24,-455.78 298.64,-316.94 344,-216 348.9,-205.09 357.09,-195.12 365.53,-186.85"/>
<polygon fill="#1414ce" stroke="#1414ce" points="367.94,-189.38 372.93,-180.03 363.2,-184.23 367.94,-189.38"/>
</a>
</g>
</g>
<!-- 20 -->
<g id="node14" class="node">
<title>20</title>
<g id="a_node14"><a xlink:title="synclist.h">
<polygon fill="#ffffff" stroke="black" points="585.5,-252 500.5,-252 500.5,-216 585.5,-216 585.5,-252"/>
<text text-anchor="middle" x="543" y="-230.3" font-family="Times,serif" font-size="14.00">synclist.h</text>
</a>
</g>
</g>
<!-- 3&#45;&gt;20 -->
<g id="edge20" class="edge">
<title>3&#45;&gt;20</title>
<g id="a_edge20"><a xlink:title="include">
<path fill="none" stroke="#1414ce" d="M339.85,-503.78C349.54,-493.62 361.79,-480.37 372,-468 431.89,-395.39 495.82,-304.09 525.72,-260.48"/>
<polygon fill="#1414ce" stroke="#1414ce" points="528.65,-262.39 531.4,-252.16 522.87,-258.44 528.65,-262.39"/>
</a>
</g>
</g>
<!-- 3&#45;&gt;21 -->
<g id="edge21" class="edge">
<title>3&#45;&gt;21</title>
<g id="a_edge21"><a xlink:title="include">
<path fill="none" stroke="#1414ce" d="M386.68,-512.73C497.98,-498.28 725,-468.79 819.38,-456.54"/>
<polygon fill="#1414ce" stroke="#1414ce" points="819.95,-459.99 829.42,-455.23 819.05,-453.05 819.95,-459.99"/>
</a>
</g>
</g>
<!-- 3&#45;&gt;27 -->
<g id="edge22" class="edge">
<title>3&#45;&gt;27</title>
<g id="a_edge22"><a xlink:title="include">
<path fill="none" stroke="#1414ce" d="M298.57,-503.89C287.31,-494.62 274.94,-482.17 268,-468 234.69,-399.99 236.6,-307.69 240.13,-262.38"/>
<polygon fill="#1414ce" stroke="#1414ce" points="243.64,-262.44 241.01,-252.17 236.66,-261.83 243.64,-262.44"/>
</a>
</g>
</g>
<!-- 3&#45;&gt;4 -->
<g id="edge13" class="edge">
<title>3&#45;&gt;4</title>
<g id="a_edge13"><a xlink:title="include">
<path fill="none" stroke="#1414ce" d="M259.19,-520.29C165.05,-515.49 0,-491.1 0,-379 0,-379 0,-379 0,-161 0,-45.19 421.7,-23.8 564.43,-19.87"/>
<polygon fill="#1414ce" stroke="#1414ce" points="564.7,-23.37 574.61,-19.61 564.52,-16.37 564.7,-23.37"/>
</a>
</g>
</g>
<!-- 15&#45;&gt;14 -->
<g id="edge24" class="edge">
<title>15&#45;&gt;14</title>
<g id="a_edge24"><a xlink:title="include">
<path fill="none" stroke="#1414ce" d="M679.77,-219.99C675.13,-218.63 670.47,-217.28 666,-216 611.45,-200.42 548,-183.26 508.92,-172.81"/>
<polygon fill="#1414ce" stroke="#1414ce" points="509.61,-169.38 499.05,-170.18 507.8,-176.14 509.61,-169.38"/>
</a>
</g>
</g>
<!-- 15&#45;&gt;10 -->
<g id="edge25" class="edge">
<title>15&#45;&gt;10</title>
<g id="a_edge25"><a xlink:title="include">
<path fill="none" stroke="#1414ce" d="M766.05,-229.91C834.24,-224.29 970.89,-210.09 1083,-180 1147.14,-162.79 1217.85,-132.71 1262.33,-112.33"/>
<polygon fill="#1414ce" stroke="#1414ce" points="1263.8,-115.51 1271.41,-108.14 1260.86,-109.16 1263.8,-115.51"/>
</a>
</g>
</g>
<!-- 16 -->
<g id="node18" class="node">
<title>16</title>
<g id="a_node18"><a xlink:title="utils.h">
<polygon fill="#ffffff" stroke="black" points="1074,-180 1012,-180 1012,-144 1074,-144 1074,-180"/>
<text text-anchor="middle" x="1043" y="-158.3" font-family="Times,serif" font-size="14.00">utils.h</text>
</a>
</g>
</g>
<!-- 15&#45;&gt;16 -->
<g id="edge26" class="edge">
<title>15&#45;&gt;16</title>
<g id="a_edge26"><a xlink:title="include">
<path fill="none" stroke="#1414ce" d="M766.16,-223.56C827.92,-210.05 940.77,-185.36 1001.57,-172.06"/>
<polygon fill="#1414ce" stroke="#1414ce" points="1002.56,-175.43 1011.58,-169.87 1001.06,-168.59 1002.56,-175.43"/>
</a>
</g>
</g>
<!-- 15&#45;&gt;8 -->
<g id="edge23" class="edge">
<title>15&#45;&gt;8</title>
<g id="a_edge23"><a xlink:title="include">
<path fill="none" stroke="#1414ce" d="M707.99,-215.71C690.38,-196.25 659.57,-164.68 628,-144 605.87,-129.51 579.13,-117.43 556.23,-108.48"/>
<polygon fill="#1414ce" stroke="#1414ce" points="557.27,-105.13 546.68,-104.84 554.78,-111.68 557.27,-105.13"/>
</a>
</g>
</g>
<!-- 24 -->
<g id="node9" class="node">
<title>24</title>
<g id="a_node9"><a xlink:title="memory.h">
<polygon fill="#ffffff" stroke="black" points="1259,-252 1173,-252 1173,-216 1259,-216 1259,-252"/>
<text text-anchor="middle" x="1216" y="-230.3" font-family="Times,serif" font-size="14.00">memory.h</text>
</a>
</g>
</g>
<!-- 24&#45;&gt;9 -->
<g id="edge29" class="edge">
<title>24&#45;&gt;9</title>
<g id="a_edge29"><a xlink:title="include">
<path fill="none" stroke="#1414ce" d="M1241.2,-215.88C1254.41,-206.89 1270.79,-195.76 1285.11,-186.03"/>
<polygon fill="#1414ce" stroke="#1414ce" points="1287.4,-188.71 1293.71,-180.19 1283.47,-182.92 1287.4,-188.71"/>
</a>
</g>
</g>
<!-- 24&#45;&gt;10 -->
<g id="edge30" class="edge">
<title>24&#45;&gt;10</title>
<g id="a_edge30"><a xlink:title="include">
<path fill="none" stroke="#1414ce" d="M1226.92,-215.94C1238.39,-198.02 1256.96,-169.03 1273,-144 1278.69,-135.12 1284.92,-125.41 1290.48,-116.75"/>
<polygon fill="#1414ce" stroke="#1414ce" points="1293.52,-118.49 1295.97,-108.18 1287.63,-114.71 1293.52,-118.49"/>
</a>
</g>
</g>
<!-- 24&#45;&gt;16 -->
<g id="edge31" class="edge">
<title>24&#45;&gt;16</title>
<g id="a_edge31"><a xlink:title="include">
<path fill="none" stroke="#1414ce" d="M1173.68,-215.88C1146.24,-204.77 1110.69,-190.39 1083.6,-179.43"/>
<polygon fill="#1414ce" stroke="#1414ce" points="1084.61,-176.06 1074.03,-175.56 1081.99,-182.55 1084.61,-176.06"/>
</a>
</g>
</g>
<!-- 24&#45;&gt;4 -->
<g id="edge27" class="edge">
<title>24&#45;&gt;4</title>
<g id="a_edge27"><a xlink:title="include">
<path fill="none" stroke="#1414ce" d="M1217.19,-215.88C1218.47,-182.39 1215.97,-108.33 1173,-72 1133.97,-38.99 785.28,-24.58 657.59,-20.38"/>
<polygon fill="#1414ce" stroke="#1414ce" points="657.46,-16.88 647.35,-20.05 657.24,-23.87 657.46,-16.88"/>
</a>
</g>
</g>
<!-- 24&#45;&gt;6 -->
<g id="edge28" class="edge">
<title>24&#45;&gt;6</title>
<g id="a_edge28"><a xlink:title="include">
<path fill="none" stroke="#1414ce" d="M1194.6,-215.79C1169.25,-196.12 1125.14,-164.06 1083,-144 1042.04,-124.5 992.23,-110.07 956.77,-101.24"/>
<polygon fill="#1414ce" stroke="#1414ce" points="957.26,-97.75 946.71,-98.78 955.6,-104.55 957.26,-97.75"/>
</a>
</g>
</g>
<!-- 1 -->
<g id="node10" class="node">
<title>1</title>
<g id="a_node10"><a xlink:title="/__w/AtomVM/AtomVM/src/libAtomVM/port.h">
<polygon fill="#bfbfbf" stroke="black" points="693.5,-684 356.5,-684 356.5,-648 693.5,-648 693.5,-684"/>
<text text-anchor="middle" x="525" y="-662.3" font-family="Times,serif" font-size="14.00">/__w/AtomVM/AtomVM/src/libAtomVM/port.h</text>
</a>
</g>
</g>
<!-- 1&#45;&gt;2 -->
<g id="edge32" class="edge">
<title>1&#45;&gt;2</title>
<g id="a_edge32"><a xlink:title="include">
<path fill="none" stroke="#1414ce" d="M525,-647.7C525,-639.98 525,-630.71 525,-622.11"/>
<polygon fill="#1414ce" stroke="#1414ce" points="528.5,-622.1 525,-612.1 521.5,-622.1 528.5,-622.1"/>
</a>
</g>
</g>
<!-- 1&#45;&gt;28 -->
<g id="edge33" class="edge">
<title>1&#45;&gt;28</title>
<g id="a_edge33"><a xlink:title="include">
<path fill="none" stroke="#1414ce" d="M481.7,-647.88C457.29,-638.22 426.6,-626.09 400.79,-615.88"/>
<polygon fill="#1414ce" stroke="#1414ce" points="401.74,-612.49 391.16,-612.07 399.17,-619 401.74,-612.49"/>
</a>
</g>
</g>
<!-- 1&#45;&gt;3 -->
<g id="edge34" class="edge">
<title>1&#45;&gt;3</title>
<g id="a_edge34"><a xlink:title="include">
<path fill="none" stroke="#1414ce" d="M506.73,-647.76C486.28,-628.92 451.69,-598.43 419,-576 402.58,-564.73 383.54,-553.82 366.78,-544.86"/>
<polygon fill="#1414ce" stroke="#1414ce" points="368.2,-541.65 357.72,-540.09 364.94,-547.85 368.2,-541.65"/>
</a>
</g>
</g>
<!-- 1&#45;&gt;24 -->
<g id="edge35" class="edge">
<title>1&#45;&gt;24</title>
<g id="a_edge35"><a xlink:title="include">
<path fill="none" stroke="#1414ce" d="M693.52,-654.27C946.47,-635.87 1395,-593.33 1395,-523 1395,-523 1395,-523 1395,-377 1395,-312.02 1321.71,-272.06 1268.93,-251.7"/>
<polygon fill="#1414ce" stroke="#1414ce" points="1269.92,-248.34 1259.33,-248.13 1267.48,-254.9 1269.92,-248.34"/>
</a>
</g>
</g>
<!-- 1&#45;&gt;21 -->
<g id="edge36" class="edge">
<title>1&#45;&gt;21</title>
<g id="a_edge36"><a xlink:title="include">
<path fill="none" stroke="#1414ce" d="M552.01,-647.85C612.4,-609.5 758.36,-516.82 826.21,-473.73"/>
<polygon fill="#1414ce" stroke="#1414ce" points="828.3,-476.55 834.86,-468.23 824.54,-470.64 828.3,-476.55"/>
</a>
</g>
</g>
<!-- 25 -->
<g id="node11" class="node">
<title>25</title>
<g id="a_node11"><a xlink:title="refc_binary.h">
<polygon fill="#ffffff" stroke="black" points="796,-396 688,-396 688,-360 796,-360 796,-396"/>
<text text-anchor="middle" x="742" y="-374.3" font-family="Times,serif" font-size="14.00">refc_binary.h</text>
</a>
</g>
</g>
<!-- 25&#45;&gt;14 -->
<g id="edge39" class="edge">
<title>25&#45;&gt;14</title>
<g id="a_edge39"><a xlink:title="include">
<path fill="none" stroke="#1414ce" d="M687.79,-364.84C629.99,-348.95 540.14,-315.38 491,-252 477.42,-234.49 473.02,-209.45 471.81,-190.39"/>
<polygon fill="#1414ce" stroke="#1414ce" points="475.3,-190.09 471.43,-180.23 468.31,-190.36 475.3,-190.09"/>
</a>
</g>
</g>
<!-- 26 -->
<g id="node12" class="node">
<title>26</title>
<g id="a_node12"><a xlink:title="resources.h">
<polygon fill="#ffffff" stroke="black" points="862,-324 762,-324 762,-288 862,-288 862,-324"/>
<text text-anchor="middle" x="812" y="-302.3" font-family="Times,serif" font-size="14.00">resources.h</text>
</a>
</g>
</g>
<!-- 25&#45;&gt;26 -->
<g id="edge40" class="edge">
<title>25&#45;&gt;26</title>
<g id="a_edge40"><a xlink:title="include">
<path fill="none" stroke="#1414ce" d="M759.3,-359.7C767.86,-351.14 778.34,-340.66 787.7,-331.3"/>
<polygon fill="#1414ce" stroke="#1414ce" points="790.3,-333.65 794.9,-324.1 785.35,-328.7 790.3,-333.65"/>
</a>
</g>
</g>
<!-- 25&#45;&gt;8 -->
<g id="edge37" class="edge">
<title>25&#45;&gt;8</title>
<g id="a_edge37"><a xlink:title="include">
<path fill="none" stroke="#1414ce" d="M741.99,-359.78C742.47,-341.49 744.64,-311.96 753,-288 759.18,-270.3 769.92,-270.05 775,-252 779.33,-236.6 782.64,-230.06 775,-216 731.99,-136.83 622.25,-107.52 556.68,-96.87"/>
<polygon fill="#1414ce" stroke="#1414ce" points="556.97,-93.38 546.55,-95.32 555.91,-100.3 556.97,-93.38"/>
</a>
</g>
</g>
<!-- 25&#45;&gt;6 -->
<g id="edge38" class="edge">
<title>25&#45;&gt;6</title>
<g id="a_edge38"><a xlink:title="include">
<path fill="none" stroke="#1414ce" d="M796.1,-360.64C826.77,-350.28 860.97,-336.52 871,-324 919.45,-263.53 918.19,-165.53 914.19,-118.24"/>
<polygon fill="#1414ce" stroke="#1414ce" points="917.67,-117.78 913.23,-108.15 910.7,-118.44 917.67,-117.78"/>
</a>
</g>
</g>
<!-- 26&#45;&gt;9 -->
<g id="edge42" class="edge">
<title>26&#45;&gt;9</title>
<g id="a_edge42"><a xlink:title="include">
<path fill="none" stroke="#1414ce" d="M862,-291C960.08,-263.53 1176.46,-202.92 1272.04,-176.15"/>
<polygon fill="#1414ce" stroke="#1414ce" points="1273.04,-179.51 1281.72,-173.44 1271.15,-172.77 1273.04,-179.51"/>
</a>
</g>
</g>
<!-- 26&#45;&gt;14 -->
<g id="edge43" class="edge">
<title>26&#45;&gt;14</title>
<g id="a_edge43"><a xlink:title="include">
<path fill="none" stroke="#1414ce" d="M763.64,-287.95C736.24,-278 701.46,-264.91 671,-252 636.59,-237.41 629.06,-231.4 595,-216 566.2,-202.98 533.29,-188.84 508.77,-178.44"/>
<polygon fill="#1414ce" stroke="#1414ce" points="510.05,-175.18 499.48,-174.51 507.33,-181.63 510.05,-175.18"/>
</a>
</g>
</g>
<!-- 26&#45;&gt;24 -->
<g id="edge44" class="edge">
<title>26&#45;&gt;24</title>
<g id="a_edge44"><a xlink:title="include">
<path fill="none" stroke="#1414ce" d="M862.35,-296.28C938.97,-283 1084.19,-257.84 1162.59,-244.25"/>
<polygon fill="#1414ce" stroke="#1414ce" points="1163.48,-247.65 1172.74,-242.5 1162.29,-240.75 1163.48,-247.65"/>
</a>
</g>
</g>
<!-- 26&#45;&gt;20 -->
<g id="edge45" class="edge">
<title>26&#45;&gt;20</title>
<g id="a_edge45"><a xlink:title="include">
<path fill="none" stroke="#1414ce" d="M761.72,-291.92C714.3,-279.58 643.52,-261.16 595.41,-248.64"/>
<polygon fill="#1414ce" stroke="#1414ce" points="596.07,-245.19 585.51,-246.06 594.31,-251.97 596.07,-245.19"/>
</a>
</g>
</g>
<!-- 26&#45;&gt;6 -->
<g id="edge41" class="edge">
<title>26&#45;&gt;6</title>
<g id="a_edge41"><a xlink:title="include">
<path fill="none" stroke="#1414ce" d="M819.93,-287.85C837.17,-250.6 878.12,-162.07 898.72,-117.54"/>
<polygon fill="#1414ce" stroke="#1414ce" points="902.01,-118.78 903.03,-108.23 895.65,-115.84 902.01,-118.78"/>
</a>
</g>
</g>
<!-- 19&#45;&gt;8 -->
<g id="edge46" class="edge">
<title>19&#45;&gt;8</title>
<g id="a_edge46"><a xlink:title="include">
<path fill="none" stroke="#1414ce" d="M422.66,-143.88C436.78,-134.81 454.31,-123.55 469.56,-113.76"/>
<polygon fill="#1414ce" stroke="#1414ce" points="471.71,-116.54 478.23,-108.19 467.93,-110.65 471.71,-116.54"/>
</a>
</g>
</g>
<!-- 20&#45;&gt;14 -->
<g id="edge48" class="edge">
<title>20&#45;&gt;14</title>
<g id="a_edge48"><a xlink:title="include">
<path fill="none" stroke="#1414ce" d="M525.45,-215.7C516.77,-207.14 506.14,-196.66 496.65,-187.3"/>
<polygon fill="#1414ce" stroke="#1414ce" points="498.93,-184.63 489.35,-180.1 494.01,-189.62 498.93,-184.63"/>
</a>
</g>
</g>
<!-- 20&#45;&gt;19 -->
<g id="edge49" class="edge">
<title>20&#45;&gt;19</title>
<g id="a_edge49"><a xlink:title="include">
<path fill="none" stroke="#1414ce" d="M507.04,-215.88C485.32,-205.53 457.63,-192.35 435.33,-181.73"/>
<polygon fill="#1414ce" stroke="#1414ce" points="436.67,-178.49 426.14,-177.35 433.66,-184.81 436.67,-178.49"/>
</a>
</g>
</g>
<!-- 18 -->
<g id="node25" class="node">
<title>18</title>
<g id="a_node25"><a xlink:title="stdio.h">
<polygon fill="#ffffff" stroke="black" points="1163.5,-108 1098.5,-108 1098.5,-72 1163.5,-72 1163.5,-108"/>
<text text-anchor="middle" x="1131" y="-86.3" font-family="Times,serif" font-size="14.00">stdio.h</text>
</a>
</g>
</g>
<!-- 20&#45;&gt;18 -->
<g id="edge47" class="edge">
<title>20&#45;&gt;18</title>
<g id="a_edge47"><a xlink:title="include">
<path fill="none" stroke="#1414ce" d="M585.74,-225.62C677.04,-209.34 897.62,-167.29 1088.52,-107.89"/>
<polygon fill="#1414ce" stroke="#1414ce" points="1089.67,-111.2 1098.17,-104.87 1087.58,-104.52 1089.67,-111.2"/>
</a>
</g>
</g>
<!-- 21&#45;&gt;24 -->
<g id="edge56" class="edge">
<title>21&#45;&gt;24</title>
<g id="a_edge56"><a xlink:title="include">
<path fill="none" stroke="#1414ce" d="M894.74,-447.24C963.42,-442.91 1119.46,-429.55 1159,-396 1198.75,-362.27 1210.79,-298.94 1214.43,-262.57"/>
<polygon fill="#1414ce" stroke="#1414ce" points="1217.95,-262.47 1215.31,-252.21 1210.97,-261.87 1217.95,-262.47"/>
</a>
</g>
</g>
<!-- 21&#45;&gt;25 -->
<g id="edge57" class="edge">
<title>21&#45;&gt;25</title>
<g id="a_edge57"><a xlink:title="include">
<path fill="none" stroke="#1414ce" d="M832.64,-431.88C816.95,-422.72 797.44,-411.34 780.55,-401.48"/>
<polygon fill="#1414ce" stroke="#1414ce" points="781.87,-398.21 771.47,-396.19 778.34,-404.25 781.87,-398.21"/>
</a>
</g>
</g>
<!-- 21&#45;&gt;10 -->
<g id="edge59" class="edge">
<title>21&#45;&gt;10</title>
<g id="a_edge59"><a xlink:title="include">
<path fill="none" stroke="#1414ce" d="M894.74,-446.59C966.95,-440.81 1137.43,-424.49 1187,-396 1294.85,-334.02 1322.97,-297.08 1365,-180 1370.41,-164.94 1371.45,-158.64 1365,-144 1360.01,-132.69 1351.29,-122.74 1342.1,-114.62"/>
<polygon fill="#1414ce" stroke="#1414ce" points="1344.28,-111.88 1334.34,-108.23 1339.83,-117.28 1344.28,-111.88"/>
</a>
</g>
</g>
<!-- 21&#45;&gt;16 -->
<g id="edge58" class="edge">
<title>21&#45;&gt;16</title>
<g id="a_edge58"><a xlink:title="include">
<path fill="none" stroke="#1414ce" d="M894.58,-446.23C951.25,-440.67 1064.22,-426 1088,-396 1136.82,-334.4 1087.88,-235.21 1059.78,-188.67"/>
<polygon fill="#1414ce" stroke="#1414ce" points="1062.71,-186.75 1054.47,-180.09 1056.76,-190.43 1062.71,-186.75"/>
</a>
</g>
</g>
<!-- 21&#45;&gt;8 -->
<g id="edge51" class="edge">
<title>21&#45;&gt;8</title>
<g id="a_edge51"><a xlink:title="include">
<path fill="none" stroke="#1414ce" d="M829.43,-447.55C789.58,-444.14 722.09,-432.89 679,-396 611.94,-338.59 639.65,-292.16 595,-216 573.7,-179.68 544.56,-140.76 525.28,-116.17"/>
<polygon fill="#1414ce" stroke="#1414ce" points="527.85,-113.77 518.9,-108.1 522.36,-118.11 527.85,-113.77"/>
</a>
</g>
</g>
<!-- 21&#45;&gt;4 -->
<g id="edge52" class="edge">
<title>21&#45;&gt;4</title>
<g id="a_edge52"><a xlink:title="include">
<path fill="none" stroke="#1414ce" d="M862.95,-431.9C864.62,-413.18 869.24,-382.8 882,-360 893.2,-339.98 907.05,-343.59 919,-324 977.96,-227.36 1029.72,-157.91 956,-72 918.02,-27.74 742.13,-20.08 657.18,-19"/>
<polygon fill="#1414ce" stroke="#1414ce" points="657.07,-15.49 647.04,-18.89 657,-22.49 657.07,-15.49"/>
</a>
</g>
</g>
<!-- 21&#45;&gt;18 -->
<g id="edge53" class="edge">
<title>21&#45;&gt;18</title>
<g id="a_edge53"><a xlink:title="include">
<path fill="none" stroke="#1414ce" d="M894.92,-446.6C955.56,-441.46 1081.35,-427.23 1110,-396 1181.42,-318.15 1154.47,-176.97 1138.95,-118.01"/>
<polygon fill="#1414ce" stroke="#1414ce" points="1142.31,-117.03 1136.3,-108.31 1135.56,-118.88 1142.31,-117.03"/>
</a>
</g>
</g>
<!-- 21&#45;&gt;6 -->
<g id="edge54" class="edge">
<title>21&#45;&gt;6</title>
<g id="a_edge54"><a xlink:title="include">
<path fill="none" stroke="#1414ce" d="M853.48,-431.69C845.58,-413.06 836.64,-383 848,-360 859.65,-336.41 879.33,-345.14 895,-324 934.16,-271.17 925.81,-245.68 929,-180 929.78,-164.02 931.61,-159.79 929,-144 927.56,-135.28 924.87,-126.06 922,-117.8"/>
<polygon fill="#1414ce" stroke="#1414ce" points="925.23,-116.46 918.48,-108.3 918.67,-118.89 925.23,-116.46"/>
</a>
</g>
</g>
<!-- 23 -->
<g id="node27" class="node">
<title>23</title>
<g id="a_node27"><a xlink:title="string.h">
<polygon fill="#ffffff" stroke="black" points="963.5,-396 890.5,-396 890.5,-360 963.5,-360 963.5,-396"/>
<text text-anchor="middle" x="927" y="-374.3" font-family="Times,serif" font-size="14.00">string.h</text>
</a>
</g>
</g>
<!-- 21&#45;&gt;23 -->
<g id="edge55" class="edge">
<title>21&#45;&gt;23</title>
<g id="a_edge55"><a xlink:title="include">
<path fill="none" stroke="#1414ce" d="M878.07,-431.7C885.94,-423.22 895.56,-412.86 904.17,-403.58"/>
<polygon fill="#1414ce" stroke="#1414ce" points="906.88,-405.81 911.12,-396.1 901.75,-401.05 906.88,-405.81"/>
</a>
</g>
</g>
<!-- 22 -->
<g id="node28" class="node">
<title>22</title>
<g id="a_node28"><a xlink:title="sys/types.h">
<polygon fill="#ffffff" stroke="black" points="1078.5,-396 981.5,-396 981.5,-360 1078.5,-360 1078.5,-396"/>
<text text-anchor="middle" x="1030" y="-374.3" font-family="Times,serif" font-size="14.00">sys/types.h</text>
</a>
</g>
</g>
<!-- 21&#45;&gt;22 -->
<g id="edge50" class="edge">
<title>21&#45;&gt;22</title>
<g id="a_edge50"><a xlink:title="include">
<path fill="none" stroke="#1414ce" d="M894.79,-435.34C918.88,-425.3 952.05,-411.48 979.51,-400.04"/>
<polygon fill="#1414ce" stroke="#1414ce" points="981.08,-403.18 988.96,-396.1 978.38,-396.71 981.08,-403.18"/>
</a>
</g>
</g>
<!-- 11 -->
<g id="node19" class="node">
<title>11</title>
<g id="a_node19"><a xlink:title="assert.h">
<polygon fill="#ffffff" stroke="black" points="1435,-36 1361,-36 1361,0 1435,0 1435,-36"/>
<text text-anchor="middle" x="1398" y="-14.3" font-family="Times,serif" font-size="14.00">assert.h</text>
</a>
</g>
</g>
<!-- 10&#45;&gt;11 -->
<g id="edge60" class="edge">
<title>10&#45;&gt;11</title>
<g id="a_edge60"><a xlink:title="include">
<path fill="none" stroke="#1414ce" d="M1329.49,-71.7C1340.96,-62.88 1355.06,-52.03 1367.48,-42.47"/>
<polygon fill="#1414ce" stroke="#1414ce" points="1369.97,-44.98 1375.76,-36.1 1365.7,-39.43 1369.97,-44.98"/>
</a>
</g>
</g>
<!-- 13 -->
<g id="node20" class="node">
<title>13</title>
<g id="a_node20"><a xlink:title="inttypes.h">
<polygon fill="#ffffff" stroke="black" points="1253.5,-36 1164.5,-36 1164.5,0 1253.5,0 1253.5,-36"/>
<text text-anchor="middle" x="1209" y="-14.3" font-family="Times,serif" font-size="14.00">inttypes.h</text>
</a>
</g>
</g>
<!-- 10&#45;&gt;13 -->
<g id="edge62" class="edge">
<title>10&#45;&gt;13</title>
<g id="a_edge62"><a xlink:title="include">
<path fill="none" stroke="#1414ce" d="M1283.03,-71.88C1270.45,-62.89 1254.87,-51.76 1241.25,-42.03"/>
<polygon fill="#1414ce" stroke="#1414ce" points="1243.24,-39.15 1233.07,-36.19 1239.17,-44.85 1243.24,-39.15"/>
</a>
</g>
</g>
<!-- 12 -->
<g id="node21" class="node">
<title>12</title>
<g id="a_node21"><a xlink:title="limits.h">
<polygon fill="#ffffff" stroke="black" points="1342.5,-36 1271.5,-36 1271.5,0 1342.5,0 1342.5,-36"/>
<text text-anchor="middle" x="1307" y="-14.3" font-family="Times,serif" font-size="14.00">limits.h</text>
</a>
</g>
</g>
<!-- 10&#45;&gt;12 -->
<g id="edge61" class="edge">
<title>10&#45;&gt;12</title>
<g id="a_edge61"><a xlink:title="include">
<path fill="none" stroke="#1414ce" d="M1307,-71.7C1307,-63.98 1307,-54.71 1307,-46.11"/>
<polygon fill="#1414ce" stroke="#1414ce" points="1310.5,-46.1 1307,-36.1 1303.5,-46.1 1310.5,-46.1"/>
</a>
</g>
</g>
<!-- 10&#45;&gt;4 -->
<g id="edge63" class="edge">
<title>10&#45;&gt;4</title>
<g id="a_edge63"><a xlink:title="include">
<path fill="none" stroke="#1414ce" d="M1244.09,-74.4C1239.34,-73.52 1234.6,-72.7 1230,-72 1017.39,-39.57 760.44,-25.51 657.21,-20.87"/>
<polygon fill="#1414ce" stroke="#1414ce" points="657.27,-17.37 647.13,-20.43 656.97,-24.36 657.27,-17.37"/>
</a>
</g>
</g>
<!-- 27&#45;&gt;14 -->
<g id="edge66" class="edge">
<title>27&#45;&gt;14</title>
<g id="a_edge66"><a xlink:title="include">
<path fill="none" stroke="#1414ce" d="M292.21,-221.74C331.41,-212.22 387.41,-197.37 435,-180 435.1,-179.96 435.2,-179.93 435.3,-179.89"/>
<polygon fill="#1414ce" stroke="#1414ce" points="436.74,-183.08 444.73,-176.13 434.14,-176.58 436.74,-183.08"/>
</a>
</g>
</g>
<!-- 27&#45;&gt;8 -->
<g id="edge64" class="edge">
<title>27&#45;&gt;8</title>
<g id="a_edge64"><a xlink:title="include">
<path fill="none" stroke="#1414ce" d="M261.05,-215.89C282.5,-196.32 320.05,-164.35 357,-144 387.5,-127.2 424.36,-113.99 453.66,-104.95"/>
<polygon fill="#1414ce" stroke="#1414ce" points="454.72,-108.29 463.29,-102.05 452.7,-101.58 454.72,-108.29"/>
</a>
</g>
</g>
<!-- 27&#45;&gt;4 -->
<g id="edge65" class="edge">
<title>27&#45;&gt;4</title>
<g id="a_edge65"><a xlink:title="include">
<path fill="none" stroke="#1414ce" d="M250.57,-215.89C259.96,-196.32 277.64,-164.35 301,-144 379.3,-75.81 499.58,-41.87 564.91,-27.62"/>
<polygon fill="#1414ce" stroke="#1414ce" points="565.86,-31 574.91,-25.5 564.4,-24.15 565.86,-31"/>
</a>
</g>
</g>
<!-- 17 -->
<g id="node23" class="node">
<title>17</title>
<g id="a_node23"><a xlink:title="stddef.h">
<polygon fill="#ffffff" stroke="black" points="1080,-108 1006,-108 1006,-72 1080,-72 1080,-108"/>
<text text-anchor="middle" x="1043" y="-86.3" font-family="Times,serif" font-size="14.00">stddef.h</text>
</a>
</g>
</g>
<!-- 16&#45;&gt;17 -->
<g id="edge67" class="edge">
<title>16&#45;&gt;17</title>
<g id="a_edge67"><a xlink:title="include">
<path fill="none" stroke="#1414ce" d="M1043,-143.7C1043,-135.98 1043,-126.71 1043,-118.11"/>
<polygon fill="#1414ce" stroke="#1414ce" points="1046.5,-118.1 1043,-108.1 1039.5,-118.1 1046.5,-118.1"/>
</a>
</g>
</g>
<!-- 16&#45;&gt;18 -->
<g id="edge68" class="edge">
<title>16&#45;&gt;18</title>
<g id="a_edge68"><a xlink:title="include">
<path fill="none" stroke="#1414ce" d="M1064.75,-143.7C1075.84,-134.88 1089.47,-124.03 1101.49,-114.47"/>
<polygon fill="#1414ce" stroke="#1414ce" points="1103.85,-117.07 1109.5,-108.1 1099.49,-111.59 1103.85,-117.07"/>
</a>
</g>
</g>
<!-- 16&#45;&gt;6 -->
<g id="edge69" class="edge">
<title>16&#45;&gt;6</title>
<g id="a_edge69"><a xlink:title="include">
<path fill="none" stroke="#1414ce" d="M1011.72,-144.41C993.95,-134.99 971.48,-123.07 952.28,-112.89"/>
<polygon fill="#1414ce" stroke="#1414ce" points="953.91,-109.79 943.44,-108.2 950.63,-115.98 953.91,-109.79"/>
</a>
</g>
</g>
</g>
</svg>
