<?xml version="1.0" encoding="UTF-8" standalone="no"?>
<!DOCTYPE svg PUBLIC "-//W3C//DTD SVG 1.1//EN"
 "http://www.w3.org/Graphics/SVG/1.1/DTD/svg11.dtd">
<!-- Generated by graphviz version 2.43.0 (0)
 -->
<!-- Title: %3 Pages: 1 -->
<svg width="1493pt" height="548pt"
 viewBox="0.00 0.00 1492.50 548.00" xmlns="http://www.w3.org/2000/svg" xmlns:xlink="http://www.w3.org/1999/xlink">
<g id="graph0" class="graph" transform="scale(1 1) rotate(0) translate(4 544)">
<title>%3</title>
<polygon fill="transparent" stroke="transparent" points="-4,4 -4,-544 1488.5,-544 1488.5,4 -4,4"/>
<!-- 12 -->
<g id="node1" class="node">
<title>12</title>
<g id="a_node1"><a xlink:title="AtomTable">
<polygon fill="#ffffff" stroke="black" points="591,-324 499,-324 499,-288 591,-288 591,-324"/>
<text text-anchor="middle" x="545" y="-302.3" font-family="Times,serif" font-size="14.00">AtomTable</text>
</a>
</g>
</g>
<!-- 13 -->
<g id="node7" class="node">
<title>13</title>
<g id="a_node7"><a xlink:title="HNode">
<polygon fill="#ffffff" stroke="black" points="592,-180 526,-180 526,-144 592,-144 592,-180"/>
<text text-anchor="middle" x="559" y="-158.3" font-family="Times,serif" font-size="14.00">HNode</text>
</a>
</g>
</g>
<!-- 12&#45;&gt;13 -->
<g id="edge1" class="edge">
<title>12&#45;&gt;13</title>
<g id="a_edge1"><a xlink:title="usage">
<path fill="none" stroke="#1414ce" d="M546.69,-287.87C549.07,-263.67 553.46,-219.21 556.3,-190.39"/>
<polygon fill="#1414ce" stroke="#1414ce" points="559.81,-190.48 557.31,-180.19 552.84,-189.8 559.81,-190.48"/>
</a>
</g>
</g>
<!-- 14 -->
<g id="node8" class="node">
<title>14</title>
<g id="a_node8"><a xlink:title="HNodeGroup">
<polygon fill="#ffffff" stroke="black" points="513,-252 403,-252 403,-216 513,-216 513,-252"/>
<text text-anchor="middle" x="458" y="-230.3" font-family="Times,serif" font-size="14.00">HNodeGroup</text>
</a>
</g>
</g>
<!-- 12&#45;&gt;14 -->
<g id="edge2" class="edge">
<title>12&#45;&gt;14</title>
<g id="a_edge2"><a xlink:title="usage">
<path fill="none" stroke="#1414ce" d="M523.49,-287.7C512.54,-278.88 499.05,-268.03 487.18,-258.47"/>
<polygon fill="#1414ce" stroke="#1414ce" points="489.24,-255.65 479.26,-252.1 484.86,-261.1 489.24,-255.65"/>
</a>
</g>
</g>
<!-- 15 -->
<g id="node2" class="node">
<title>15</title>
<g id="a_node2"><a xlink:title="AtomsHashTable">
<polygon fill="#ffffff" stroke="black" points="724.5,-252 587.5,-252 587.5,-216 724.5,-216 724.5,-252"/>
<text text-anchor="middle" x="656" y="-230.3" font-family="Times,serif" font-size="14.00">AtomsHashTable</text>
</a>
</g>
</g>
<!-- 15&#45;&gt;13 -->
<g id="edge3" class="edge">
<title>15&#45;&gt;13</title>
<g id="a_edge3"><a xlink:title="usage">
<path fill="none" stroke="#1414ce" d="M632.02,-215.7C619.69,-206.8 604.48,-195.82 591.15,-186.2"/>
<polygon fill="#1414ce" stroke="#1414ce" points="592.86,-183.12 582.7,-180.1 588.76,-188.79 592.86,-183.12"/>
</a>
</g>
</g>
<!-- 2 -->
<g id="node3" class="node">
<title>2</title>
<g id="a_node3"><a xlink:title="Context">
<polygon fill="#ffffff" stroke="black" points="1220.5,-468 1147.5,-468 1147.5,-432 1220.5,-432 1220.5,-468"/>
<text text-anchor="middle" x="1184" y="-446.3" font-family="Times,serif" font-size="14.00">Context</text>
</a>
</g>
</g>
<!-- 2&#45;&gt;2 -->
<g id="edge10" class="edge">
<title>2&#45;&gt;2</title>
<g id="a_edge10"><a xlink:title="usage">
<path fill="none" stroke="#1414ce" d="M1220.68,-463.42C1230.78,-462.77 1238.5,-458.3 1238.5,-450 1238.5,-444.81 1235.48,-441.12 1230.76,-438.93"/>
<polygon fill="#1414ce" stroke="#1414ce" points="1231.21,-435.44 1220.68,-436.58 1229.63,-442.26 1231.21,-435.44"/>
</a>
</g>
</g>
<!-- 3 -->
<g id="node6" class="node">
<title>3</title>
<g id="a_node6"><a xlink:title="GlobalContext">
<polygon fill="#ffffff" stroke="black" points="678.5,-396 559.5,-396 559.5,-360 678.5,-360 678.5,-396"/>
<text text-anchor="middle" x="619" y="-374.3" font-family="Times,serif" font-size="14.00">GlobalContext</text>
</a>
</g>
</g>
<!-- 2&#45;&gt;3 -->
<g id="edge4" class="edge">
<title>2&#45;&gt;3</title>
<g id="a_edge4"><a xlink:title="usage">
<path fill="none" stroke="#1414ce" d="M1147.36,-444.46C1054.82,-432.99 810.39,-402.71 689.18,-387.7"/>
<polygon fill="#1414ce" stroke="#1414ce" points="689.26,-384.18 678.91,-386.42 688.4,-391.13 689.26,-384.18"/>
</a>
</g>
</g>
<!-- 20 -->
<g id="node9" class="node">
<title>20</title>
<g id="a_node9"><a xlink:title="Heap">
<polygon fill="#ffffff" stroke="black" points="1251,-396 1197,-396 1197,-360 1251,-360 1251,-396"/>
<text text-anchor="middle" x="1224" y="-374.3" font-family="Times,serif" font-size="14.00">Heap</text>
</a>
</g>
</g>
<!-- 2&#45;&gt;20 -->
<g id="edge5" class="edge">
<title>2&#45;&gt;20</title>
<g id="a_edge5"><a xlink:title="usage">
<path fill="none" stroke="#1414ce" d="M1193.89,-431.7C1198.49,-423.64 1204.06,-413.89 1209.15,-404.98"/>
<polygon fill="#1414ce" stroke="#1414ce" points="1212.3,-406.52 1214.23,-396.1 1206.23,-403.05 1212.3,-406.52"/>
</a>
</g>
</g>
<!-- 4 -->
<g id="node11" class="node">
<title>4</title>
<g id="a_node11"><a xlink:title="ListHead">
<polygon fill="#ffffff" stroke="black" points="898.5,-36 817.5,-36 817.5,0 898.5,0 898.5,-36"/>
<text text-anchor="middle" x="858" y="-14.3" font-family="Times,serif" font-size="14.00">ListHead</text>
</a>
</g>
</g>
<!-- 2&#45;&gt;4 -->
<g id="edge6" class="edge">
<title>2&#45;&gt;4</title>
<g id="a_edge6"><a xlink:title="usage">
<path fill="none" stroke="#1414ce" d="M1220.65,-434.22C1265.91,-413.24 1337,-370.24 1337,-307 1337,-307 1337,-307 1337,-161 1337,-72.51 1032.67,-34.87 909.17,-23.24"/>
<polygon fill="#1414ce" stroke="#1414ce" points="909.12,-19.72 898.84,-22.29 908.48,-26.69 909.12,-19.72"/>
</a>
</g>
</g>
<!-- 23 -->
<g id="node13" class="node">
<title>23</title>
<g id="a_node13"><a xlink:title="Mailbox">
<polygon fill="#ffffff" stroke="black" points="1176,-396 1102,-396 1102,-360 1176,-360 1176,-396"/>
<text text-anchor="middle" x="1139" y="-374.3" font-family="Times,serif" font-size="14.00">Mailbox</text>
</a>
</g>
</g>
<!-- 2&#45;&gt;23 -->
<g id="edge9" class="edge">
<title>2&#45;&gt;23</title>
<g id="a_edge9"><a xlink:title="usage">
<path fill="none" stroke="#1414ce" d="M1172.88,-431.7C1167.64,-423.56 1161.3,-413.69 1155.52,-404.7"/>
<polygon fill="#1414ce" stroke="#1414ce" points="1158.35,-402.62 1150,-396.1 1152.46,-406.41 1158.35,-402.62"/>
</a>
</g>
</g>
<!-- 16 -->
<g id="node16" class="node">
<title>16</title>
<g id="a_node16"><a xlink:title="Module">
<polygon fill="#ffffff" stroke="black" points="209,-324 139,-324 139,-288 209,-288 209,-324"/>
<text text-anchor="middle" x="174" y="-302.3" font-family="Times,serif" font-size="14.00">Module</text>
</a>
</g>
</g>
<!-- 2&#45;&gt;16 -->
<g id="edge8" class="edge">
<title>2&#45;&gt;16</title>
<g id="a_edge8"><a xlink:title="usage">
<path fill="none" stroke="#1414ce" d="M1147.42,-447.59C1049.97,-443.49 776.23,-429.63 551,-396 404.46,-374.12 364.75,-367.69 219.12,-324.14"/>
<polygon fill="#1414ce" stroke="#1414ce" points="219.96,-320.73 209.38,-321.21 217.95,-327.44 219.96,-320.73"/>
</a>
</g>
</g>
<!-- 22 -->
<g id="node23" class="node">
<title>22</title>
<g id="a_node23"><a xlink:title="TimerListItem">
<polygon fill="#ffffff" stroke="black" points="1484.5,-108 1365.5,-108 1365.5,-72 1484.5,-72 1484.5,-108"/>
<text text-anchor="middle" x="1425" y="-86.3" font-family="Times,serif" font-size="14.00">TimerListItem</text>
</a>
</g>
</g>
<!-- 2&#45;&gt;22 -->
<g id="edge7" class="edge">
<title>2&#45;&gt;22</title>
<g id="a_edge7"><a xlink:title="usage">
<path fill="none" stroke="#1414ce" d="M1220.63,-445.31C1257.2,-439.95 1313.27,-426.98 1351,-396 1385.9,-367.35 1400,-352.15 1400,-307 1400,-307 1400,-307 1400,-233 1400,-192.6 1409.94,-146.71 1417.28,-118.3"/>
<polygon fill="#1414ce" stroke="#1414ce" points="1420.75,-118.88 1419.94,-108.32 1413.98,-117.08 1420.75,-118.88"/>
</a>
</g>
</g>
<!-- 1 -->
<g id="node4" class="node">
<title>1</title>
<g id="a_node4"><a xlink:title="ContextAccumulator">
<polygon fill="#bfbfbf" stroke="black" points="1265.5,-540 1102.5,-540 1102.5,-504 1265.5,-504 1265.5,-540"/>
<text text-anchor="middle" x="1184" y="-518.3" font-family="Times,serif" font-size="14.00">ContextAccumulator</text>
</a>
</g>
</g>
<!-- 1&#45;&gt;2 -->
<g id="edge11" class="edge">
<title>1&#45;&gt;2</title>
<g id="a_edge11"><a xlink:title="usage">
<path fill="none" stroke="#1414ce" d="M1184,-503.7C1184,-495.98 1184,-486.71 1184,-478.11"/>
<polygon fill="#1414ce" stroke="#1414ce" points="1187.5,-478.1 1184,-468.1 1180.5,-478.1 1187.5,-478.1"/>
</a>
</g>
</g>
<!-- 17 -->
<g id="node5" class="node">
<title>17</title>
<g id="a_node5"><a xlink:title="ExportedFunction">
<polygon fill="#ffffff" stroke="black" points="146,-252 0,-252 0,-216 146,-216 146,-252"/>
<text text-anchor="middle" x="73" y="-230.3" font-family="Times,serif" font-size="14.00">ExportedFunction</text>
</a>
</g>
</g>
<!-- 3&#45;&gt;12 -->
<g id="edge17" class="edge">
<title>3&#45;&gt;12</title>
<g id="a_edge17"><a xlink:title="usage">
<path fill="none" stroke="#1414ce" d="M600.71,-359.7C591.57,-351.05 580.36,-340.45 570.4,-331.03"/>
<polygon fill="#1414ce" stroke="#1414ce" points="572.75,-328.43 563.08,-324.1 567.94,-333.52 572.75,-328.43"/>
</a>
</g>
</g>
<!-- 3&#45;&gt;15 -->
<g id="edge18" class="edge">
<title>3&#45;&gt;15</title>
<g id="a_edge18"><a xlink:title="usage">
<path fill="none" stroke="#1414ce" d="M623.46,-359.87C629.8,-335.56 641.46,-290.82 648.96,-262.01"/>
<polygon fill="#1414ce" stroke="#1414ce" points="652.39,-262.75 651.52,-252.19 645.61,-260.98 652.39,-262.75"/>
</a>
</g>
</g>
<!-- 3&#45;&gt;4 -->
<g id="edge12" class="edge">
<title>3&#45;&gt;4</title>
<g id="a_edge12"><a xlink:title="usage">
<path fill="none" stroke="#1414ce" d="M678.55,-372.71C748.08,-366.44 857.27,-352.32 886,-324 914.81,-295.61 905,-275.45 905,-235 905,-235 905,-235 905,-161 905,-118.96 886.2,-73.29 872.38,-45.41"/>
<polygon fill="#1414ce" stroke="#1414ce" points="875.4,-43.63 867.74,-36.32 869.17,-46.82 875.4,-43.63"/>
</a>
</g>
</g>
<!-- 6 -->
<g id="node15" class="node">
<title>6</title>
<g id="a_node15"><a xlink:title="MessageQueueItem">
<polygon fill="#ffffff" stroke="black" points="1091,-324 933,-324 933,-288 1091,-288 1091,-324"/>
<text text-anchor="middle" x="1012" y="-302.3" font-family="Times,serif" font-size="14.00">MessageQueueItem</text>
</a>
</g>
</g>
<!-- 3&#45;&gt;6 -->
<g id="edge14" class="edge">
<title>3&#45;&gt;6</title>
<g id="a_edge14"><a xlink:title="usage">
<path fill="none" stroke="#1414ce" d="M678.5,-366.6C739.04,-355.98 835.58,-338.99 919,-324 920.27,-323.77 921.55,-323.54 922.84,-323.31"/>
<polygon fill="#1414ce" stroke="#1414ce" points="923.64,-326.72 932.86,-321.5 922.4,-319.83 923.64,-326.72"/>
</a>
</g>
</g>
<!-- 3&#45;&gt;16 -->
<g id="edge19" class="edge">
<title>3&#45;&gt;16</title>
<g id="a_edge19"><a xlink:title="usage">
<path fill="none" stroke="#1414ce" d="M559.39,-373.55C482.33,-368.11 344.14,-355.05 219.05,-323.94"/>
<polygon fill="#1414ce" stroke="#1414ce" points="219.86,-320.53 209.31,-321.47 218.14,-327.32 219.86,-320.53"/>
</a>
</g>
</g>
<!-- 8 -->
<g id="node18" class="node">
<title>8</title>
<g id="a_node18"><a xlink:title="RefcBinaryQueueItem">
<polygon fill="#ffffff" stroke="black" points="859,-324 685,-324 685,-288 859,-288 859,-324"/>
<text text-anchor="middle" x="772" y="-302.3" font-family="Times,serif" font-size="14.00">RefcBinaryQueueItem</text>
</a>
</g>
</g>
<!-- 3&#45;&gt;8 -->
<g id="edge15" class="edge">
<title>3&#45;&gt;8</title>
<g id="a_edge15"><a xlink:title="usage">
<path fill="none" stroke="#1414ce" d="M656.43,-359.88C677.25,-350.35 703.35,-338.41 725.48,-328.28"/>
<polygon fill="#1414ce" stroke="#1414ce" points="727.06,-331.41 734.69,-324.07 724.14,-325.05 727.06,-331.41"/>
</a>
</g>
</g>
<!-- 5 -->
<g id="node20" class="node">
<title>5</title>
<g id="a_node20"><a xlink:title="SpinLock">
<polygon fill="#ffffff" stroke="black" points="309,-324 227,-324 227,-288 309,-288 309,-324"/>
<text text-anchor="middle" x="268" y="-302.3" font-family="Times,serif" font-size="14.00">SpinLock</text>
</a>
</g>
</g>
<!-- 3&#45;&gt;5 -->
<g id="edge13" class="edge">
<title>3&#45;&gt;5</title>
<g id="a_edge13"><a xlink:title="usage">
<path fill="none" stroke="#1414ce" d="M559.3,-368.51C499.2,-359.45 404.04,-343.7 323,-324 321.74,-323.69 320.47,-323.38 319.19,-323.05"/>
<polygon fill="#1414ce" stroke="#1414ce" points="319.86,-319.6 309.29,-320.36 318.03,-326.36 319.86,-319.6"/>
</a>
</g>
</g>
<!-- 11 -->
<g id="node21" class="node">
<title>11</title>
<g id="a_node21"><a xlink:title="SyncList">
<polygon fill="#ffffff" stroke="black" points="792,-108 714,-108 714,-72 792,-72 792,-108"/>
<text text-anchor="middle" x="753" y="-86.3" font-family="Times,serif" font-size="14.00">SyncList</text>
</a>
</g>
</g>
<!-- 3&#45;&gt;11 -->
<g id="edge16" class="edge">
<title>3&#45;&gt;11</title>
<g id="a_edge16"><a xlink:title="usage">
<path fill="none" stroke="#1414ce" d="M559.24,-362.5C478.99,-339.86 351.11,-290.8 394,-216 425.51,-161.05 458.06,-167.22 517,-144 579.19,-119.5 655.29,-104.98 703.95,-97.5"/>
<polygon fill="#1414ce" stroke="#1414ce" points="704.53,-100.95 713.9,-96.01 703.49,-94.03 704.53,-100.95"/>
</a>
</g>
</g>
<!-- 19 -->
<g id="node22" class="node">
<title>19</title>
<g id="a_node22"><a xlink:title="TimerList">
<polygon fill="#ffffff" stroke="black" points="347,-180 261,-180 261,-144 347,-144 347,-180"/>
<text text-anchor="middle" x="304" y="-158.3" font-family="Times,serif" font-size="14.00">TimerList</text>
</a>
</g>
</g>
<!-- 3&#45;&gt;19 -->
<g id="edge20" class="edge">
<title>3&#45;&gt;19</title>
<g id="a_edge20"><a xlink:title="usage">
<path fill="none" stroke="#1414ce" d="M559.36,-371.53C492.63,-364.26 390.05,-349.3 361,-324 321.69,-289.76 309.49,-226.61 305.7,-190.42"/>
<polygon fill="#1414ce" stroke="#1414ce" points="309.16,-189.75 304.78,-180.11 302.19,-190.38 309.16,-189.75"/>
</a>
</g>
</g>
<!-- 13&#45;&gt;13 -->
<g id="edge21" class="edge">
<title>13&#45;&gt;13</title>
<g id="a_edge21"><a xlink:title="usage">
<path fill="none" stroke="#1414ce" d="M592.35,-175.47C602.28,-175.07 610,-170.58 610,-162 610,-156.64 606.98,-152.87 602.3,-150.71"/>
<polygon fill="#1414ce" stroke="#1414ce" points="602.87,-147.25 592.35,-148.53 601.37,-154.09 602.87,-147.25"/>
</a>
</g>
</g>
<!-- 14&#45;&gt;13 -->
<g id="edge23" class="edge">
<title>14&#45;&gt;13</title>
<g id="a_edge23"><a xlink:title="usage">
<path fill="none" stroke="#1414ce" d="M482.71,-215.88C495.67,-206.89 511.73,-195.76 525.77,-186.03"/>
<polygon fill="#1414ce" stroke="#1414ce" points="527.97,-188.76 534.2,-180.19 523.98,-183.01 527.97,-188.76"/>
</a>
</g>
</g>
<!-- 14&#45;&gt;14 -->
<g id="edge22" class="edge">
<title>14&#45;&gt;14</title>
<g id="a_edge22"><a xlink:title="usage">
<path fill="none" stroke="#1414ce" d="M513.07,-246.85C523.57,-245.32 531,-241.03 531,-234 531,-229.5 527.95,-226.12 523,-223.87"/>
<polygon fill="#1414ce" stroke="#1414ce" points="523.64,-220.42 513.07,-221.15 521.79,-227.17 523.64,-220.42"/>
</a>
</g>
</g>
<!-- 21 -->
<g id="node10" class="node">
<title>21</title>
<g id="a_node10"><a xlink:title="HeapFragment">
<polygon fill="#ffffff" stroke="black" points="1290.5,-324 1165.5,-324 1165.5,-288 1290.5,-288 1290.5,-324"/>
<text text-anchor="middle" x="1228" y="-302.3" font-family="Times,serif" font-size="14.00">HeapFragment</text>
</a>
</g>
</g>
<!-- 20&#45;&gt;21 -->
<g id="edge24" class="edge">
<title>20&#45;&gt;21</title>
<g id="a_edge24"><a xlink:title="usage">
<path fill="none" stroke="#1414ce" d="M1224.99,-359.7C1225.43,-351.98 1225.96,-342.71 1226.45,-334.11"/>
<polygon fill="#1414ce" stroke="#1414ce" points="1229.95,-334.29 1227.02,-324.1 1222.96,-333.89 1229.95,-334.29"/>
</a>
</g>
</g>
<!-- 21&#45;&gt;21 -->
<g id="edge25" class="edge">
<title>21&#45;&gt;21</title>
<g id="a_edge25"><a xlink:title="usage">
<path fill="none" stroke="#1414ce" d="M1290.78,-318.55C1301.26,-316.79 1308.5,-312.61 1308.5,-306 1308.5,-301.77 1305.53,-298.53 1300.64,-296.29"/>
<polygon fill="#1414ce" stroke="#1414ce" points="1301.36,-292.85 1290.78,-293.45 1299.42,-299.58 1301.36,-292.85"/>
</a>
</g>
</g>
<!-- 4&#45;&gt;4 -->
<g id="edge26" class="edge">
<title>4&#45;&gt;4</title>
<g id="a_edge26"><a xlink:title="usage">
<path fill="none" stroke="#1414ce" d="M898.73,-31.31C908.9,-30.38 916.5,-25.95 916.5,-18 916.5,-12.91 913.38,-9.26 908.47,-7.05"/>
<polygon fill="#1414ce" stroke="#1414ce" points="909.28,-3.64 898.73,-4.69 907.63,-10.45 909.28,-3.64"/>
</a>
</g>
</g>
<!-- 18 -->
<g id="node12" class="node">
<title>18</title>
<g id="a_node12"><a xlink:title="LiteralEntry">
<polygon fill="#ffffff" stroke="black" points="268,-252 164,-252 164,-216 268,-216 268,-252"/>
<text text-anchor="middle" x="216" y="-230.3" font-family="Times,serif" font-size="14.00">LiteralEntry</text>
</a>
</g>
</g>
<!-- 7 -->
<g id="node14" class="node">
<title>7</title>
<g id="a_node14"><a xlink:title="MailboxMessage">
<polygon fill="#ffffff" stroke="black" points="1143.5,-252 1006.5,-252 1006.5,-216 1143.5,-216 1143.5,-252"/>
<text text-anchor="middle" x="1075" y="-230.3" font-family="Times,serif" font-size="14.00">MailboxMessage</text>
</a>
</g>
</g>
<!-- 23&#45;&gt;7 -->
<g id="edge27" class="edge">
<title>23&#45;&gt;7</title>
<g id="a_edge27"><a xlink:title="usage">
<path fill="none" stroke="#1414ce" d="M1137.26,-359.83C1134.87,-341.32 1129.48,-311.37 1118,-288 1113.09,-278.01 1105.99,-268.21 1098.97,-259.81"/>
<polygon fill="#1414ce" stroke="#1414ce" points="1101.56,-257.45 1092.34,-252.22 1096.29,-262.06 1101.56,-257.45"/>
</a>
</g>
</g>
<!-- 7&#45;&gt;7 -->
<g id="edge28" class="edge">
<title>7&#45;&gt;7</title>
<g id="a_edge28"><a xlink:title="usage">
<path fill="none" stroke="#1414ce" d="M1143.53,-246.37C1154.21,-244.52 1161.5,-240.4 1161.5,-234 1161.5,-229.8 1158.36,-226.58 1153.18,-224.34"/>
<polygon fill="#1414ce" stroke="#1414ce" points="1154.1,-220.96 1143.53,-221.63 1152.21,-227.7 1154.1,-220.96"/>
</a>
</g>
</g>
<!-- 6&#45;&gt;7 -->
<g id="edge30" class="edge">
<title>6&#45;&gt;7</title>
<g id="a_edge30"><a xlink:title="usage">
<path fill="none" stroke="#1414ce" d="M1027.57,-287.7C1035.2,-279.22 1044.52,-268.86 1052.88,-259.58"/>
<polygon fill="#1414ce" stroke="#1414ce" points="1055.52,-261.88 1059.61,-252.1 1050.31,-257.2 1055.52,-261.88"/>
</a>
</g>
</g>
<!-- 6&#45;&gt;6 -->
<g id="edge29" class="edge">
<title>6&#45;&gt;6</title>
<g id="a_edge29"><a xlink:title="usage">
<path fill="none" stroke="#1414ce" d="M1091.16,-317.98C1101.87,-315.97 1109,-311.98 1109,-306 1109,-302.08 1105.93,-299.01 1100.79,-296.8"/>
<polygon fill="#1414ce" stroke="#1414ce" points="1101.74,-293.43 1091.16,-294.02 1099.8,-300.15 1101.74,-293.43"/>
</a>
</g>
</g>
<!-- 16&#45;&gt;17 -->
<g id="edge31" class="edge">
<title>16&#45;&gt;17</title>
<g id="a_edge31"><a xlink:title="usage">
<path fill="none" stroke="#1414ce" d="M149.29,-287.88C136.33,-278.89 120.27,-267.76 106.23,-258.03"/>
<polygon fill="#1414ce" stroke="#1414ce" points="108.02,-255.01 97.8,-252.19 104.03,-260.76 108.02,-255.01"/>
</a>
</g>
</g>
<!-- 16&#45;&gt;18 -->
<g id="edge32" class="edge">
<title>16&#45;&gt;18</title>
<g id="a_edge32"><a xlink:title="usage">
<path fill="none" stroke="#1414ce" d="M184.38,-287.7C189.26,-279.56 195.19,-269.69 200.58,-260.7"/>
<polygon fill="#1414ce" stroke="#1414ce" points="203.59,-262.48 205.74,-252.1 197.59,-258.88 203.59,-262.48"/>
</a>
</g>
</g>
<!-- 9 -->
<g id="node17" class="node">
<title>9</title>
<g id="a_node17"><a xlink:title="RefcBinary">
<polygon fill="#ffffff" stroke="black" points="876.5,-252 781.5,-252 781.5,-216 876.5,-216 876.5,-252"/>
<text text-anchor="middle" x="829" y="-230.3" font-family="Times,serif" font-size="14.00">RefcBinary</text>
</a>
</g>
</g>
<!-- 9&#45;&gt;4 -->
<g id="edge33" class="edge">
<title>9&#45;&gt;4</title>
<g id="a_edge33"><a xlink:title="usage">
<path fill="none" stroke="#1414ce" d="M831.32,-215.85C836.34,-178.83 848.22,-91.18 854.29,-46.39"/>
<polygon fill="#1414ce" stroke="#1414ce" points="857.79,-46.61 855.66,-36.23 850.85,-45.67 857.79,-46.61"/>
</a>
</g>
</g>
<!-- 10 -->
<g id="node19" class="node">
<title>10</title>
<g id="a_node19"><a xlink:title="ResourceType">
<polygon fill="#ffffff" stroke="black" points="820.5,-180 703.5,-180 703.5,-144 820.5,-144 820.5,-180"/>
<text text-anchor="middle" x="762" y="-158.3" font-family="Times,serif" font-size="14.00">ResourceType</text>
</a>
</g>
</g>
<!-- 9&#45;&gt;10 -->
<g id="edge34" class="edge">
<title>9&#45;&gt;10</title>
<g id="a_edge34"><a xlink:title="usage">
<path fill="none" stroke="#1414ce" d="M812.44,-215.7C804.32,-207.22 794.41,-196.86 785.53,-187.58"/>
<polygon fill="#1414ce" stroke="#1414ce" points="787.81,-184.91 778.37,-180.1 782.76,-189.75 787.81,-184.91"/>
</a>
</g>
</g>
<!-- 8&#45;&gt;9 -->
<g id="edge36" class="edge">
<title>8&#45;&gt;9</title>
<g id="a_edge36"><a xlink:title="usage">
<path fill="none" stroke="#1414ce" d="M786.09,-287.7C792.92,-279.3 801.26,-269.07 808.76,-259.86"/>
<polygon fill="#1414ce" stroke="#1414ce" points="811.47,-262.07 815.07,-252.1 806.04,-257.65 811.47,-262.07"/>
</a>
</g>
</g>
<!-- 8&#45;&gt;8 -->
<g id="edge35" class="edge">
<title>8&#45;&gt;8</title>
<g id="a_edge35"><a xlink:title="usage">
<path fill="none" stroke="#1414ce" d="M859.3,-317.68C869.99,-315.59 877,-311.7 877,-306 877,-302.35 874.12,-299.44 869.25,-297.27"/>
<polygon fill="#1414ce" stroke="#1414ce" points="869.88,-293.81 859.3,-294.32 867.89,-300.52 869.88,-293.81"/>
</a>
</g>
</g>
<!-- 10&#45;&gt;3 -->
<g id="edge38" class="edge">
<title>10&#45;&gt;3</title>
<g id="a_edge38"><a xlink:title="usage">
<path fill="none" stroke="#1414ce" d="M760.21,-180.04C757.45,-199.27 750.59,-230.63 734,-252 715.4,-275.97 697.6,-266.7 676,-288 657.45,-306.29 641.94,-331.68 631.8,-350.66"/>
<polygon fill="#1414ce" stroke="#1414ce" points="628.63,-349.17 627.14,-359.66 634.85,-352.39 628.63,-349.17"/>
</a>
</g>
</g>
<!-- 10&#45;&gt;4 -->
<g id="edge37" class="edge">
<title>10&#45;&gt;4</title>
<g id="a_edge37"><a xlink:title="usage">
<path fill="none" stroke="#1414ce" d="M775.29,-143.54C782.97,-133.3 792.72,-120.05 801,-108 815.33,-87.14 830.77,-62.91 841.96,-45.01"/>
<polygon fill="#1414ce" stroke="#1414ce" points="845.09,-46.62 847.4,-36.28 839.14,-42.92 845.09,-46.62"/>
</a>
</g>
</g>
<!-- 10&#45;&gt;11 -->
<g id="edge39" class="edge">
<title>10&#45;&gt;11</title>
<g id="a_edge39"><a xlink:title="usage">
<path fill="none" stroke="#1414ce" d="M759.78,-143.7C758.78,-135.98 757.59,-126.71 756.49,-118.11"/>
<polygon fill="#1414ce" stroke="#1414ce" points="759.95,-117.58 755.2,-108.1 753,-118.47 759.95,-117.58"/>
</a>
</g>
</g>
<!-- 11&#45;&gt;4 -->
<g id="edge40" class="edge">
<title>11&#45;&gt;4</title>
<g id="a_edge40"><a xlink:title="usage">
<path fill="none" stroke="#1414ce" d="M778.69,-71.88C792.29,-62.81 809.17,-51.55 823.86,-41.76"/>
<polygon fill="#1414ce" stroke="#1414ce" points="825.84,-44.65 832.22,-36.19 821.95,-38.82 825.84,-44.65"/>
</a>
</g>
</g>
<!-- 19&#45;&gt;4 -->
<g id="edge41" class="edge">
<title>19&#45;&gt;4</title>
<g id="a_edge41"><a xlink:title="usage">
<path fill="none" stroke="#1414ce" d="M347.2,-147.9C351.85,-146.55 356.52,-145.23 361,-144 523.33,-99.4 717.2,-52.45 807.31,-30.98"/>
<polygon fill="#1414ce" stroke="#1414ce" points="808.34,-34.33 817.26,-28.61 806.72,-27.52 808.34,-34.33"/>
</a>
</g>
</g>
<!-- 22&#45;&gt;4 -->
<g id="edge42" class="edge">
<title>22&#45;&gt;4</title>
<g id="a_edge42"><a xlink:title="usage">
<path fill="none" stroke="#1414ce" d="M1365.35,-74.66C1360.51,-73.69 1355.68,-72.79 1351,-72 1190.74,-45.08 998.76,-29.04 908.98,-22.47"/>
<polygon fill="#1414ce" stroke="#1414ce" points="909.03,-18.97 898.8,-21.74 908.53,-25.95 909.03,-18.97"/>
</a>
</g>
</g>
</g>
</svg>
