<?xml version="1.0" encoding="UTF-8" standalone="no"?>
<!DOCTYPE svg PUBLIC "-//W3C//DTD SVG 1.1//EN"
 "http://www.w3.org/Graphics/SVG/1.1/DTD/svg11.dtd">
<!-- Generated by graphviz version 2.43.0 (0)
 -->
<!-- Title: %3 Pages: 1 -->
<svg width="1383pt" height="692pt"
 viewBox="0.00 0.00 1382.50 692.00" xmlns="http://www.w3.org/2000/svg" xmlns:xlink="http://www.w3.org/1999/xlink">
<g id="graph0" class="graph" transform="scale(1 1) rotate(0) translate(4 688)">
<title>%3</title>
<polygon fill="transparent" stroke="transparent" points="-4,4 -4,-688 1378.5,-688 1378.5,4 -4,4"/>
<!-- 5 -->
<g id="node1" class="node">
<title>5</title>
<g id="a_node1"><a xlink:title="atom.h">
<polygon fill="#ffffff" stroke="black" points="911.5,-180 845.5,-180 845.5,-144 911.5,-144 911.5,-180"/>
<text text-anchor="middle" x="878.5" y="-158.3" font-family="Times,serif" font-size="14.00">atom.h</text>
</a>
</g>
</g>
<!-- 4 -->
<g id="node23" class="node">
<title>4</title>
<g id="a_node23"><a xlink:title="stdint.h">
<polygon fill="#ffffff" stroke="black" points="686.5,-36 614.5,-36 614.5,0 686.5,0 686.5,-36"/>
<text text-anchor="middle" x="650.5" y="-14.3" font-family="Times,serif" font-size="14.00">stdint.h</text>
</a>
</g>
</g>
<!-- 5&#45;&gt;4 -->
<g id="edge1" class="edge">
<title>5&#45;&gt;4</title>
<g id="a_edge1"><a xlink:title="include">
<path fill="none" stroke="#1414ce" d="M851,-143.87C809.91,-118.28 732.47,-70.05 686.79,-41.6"/>
<polygon fill="#1414ce" stroke="#1414ce" points="688.44,-38.5 678.1,-36.19 684.74,-44.45 688.44,-38.5"/>
</a>
</g>
</g>
<!-- 6 -->
<g id="node25" class="node">
<title>6</title>
<g id="a_node25"><a xlink:title="stdlib.h">
<polygon fill="#ffffff" stroke="black" points="509,-108 438,-108 438,-72 509,-72 509,-108"/>
<text text-anchor="middle" x="473.5" y="-86.3" font-family="Times,serif" font-size="14.00">stdlib.h</text>
</a>
</g>
</g>
<!-- 5&#45;&gt;6 -->
<g id="edge2" class="edge">
<title>5&#45;&gt;6</title>
<g id="a_edge2"><a xlink:title="include">
<path fill="none" stroke="#1414ce" d="M845.44,-148.36C840.48,-146.73 835.39,-145.22 830.5,-144 720.47,-116.62 587.61,-101.47 519.18,-94.93"/>
<polygon fill="#1414ce" stroke="#1414ce" points="519.44,-91.44 509.16,-94 518.79,-98.41 519.44,-91.44"/>
</a>
</g>
</g>
<!-- 7 -->
<g id="node2" class="node">
<title>7</title>
<g id="a_node2"><a xlink:title="atom_table.h">
<polygon fill="#ffffff" stroke="black" points="1116,-252 1007,-252 1007,-216 1116,-216 1116,-252"/>
<text text-anchor="middle" x="1061.5" y="-230.3" font-family="Times,serif" font-size="14.00">atom_table.h</text>
</a>
</g>
</g>
<!-- 7&#45;&gt;5 -->
<g id="edge4" class="edge">
<title>7&#45;&gt;5</title>
<g id="a_edge4"><a xlink:title="include">
<path fill="none" stroke="#1414ce" d="M1016.73,-215.88C987.55,-204.71 949.69,-190.23 920.97,-179.25"/>
<polygon fill="#1414ce" stroke="#1414ce" points="922.2,-175.97 911.61,-175.67 919.7,-182.51 922.2,-175.97"/>
</a>
</g>
</g>
<!-- 8 -->
<g id="node21" class="node">
<title>8</title>
<g id="a_node21"><a xlink:title="stdbool.h">
<polygon fill="#ffffff" stroke="black" points="1156,-108 1073,-108 1073,-72 1156,-72 1156,-108"/>
<text text-anchor="middle" x="1114.5" y="-86.3" font-family="Times,serif" font-size="14.00">stdbool.h</text>
</a>
</g>
</g>
<!-- 7&#45;&gt;8 -->
<g id="edge3" class="edge">
<title>7&#45;&gt;8</title>
<g id="a_edge3"><a xlink:title="include">
<path fill="none" stroke="#1414ce" d="M1067.89,-215.87C1077.01,-191.46 1093.81,-146.43 1104.56,-117.64"/>
<polygon fill="#1414ce" stroke="#1414ce" points="1107.87,-118.78 1108.08,-108.19 1101.31,-116.33 1107.87,-118.78"/>
</a>
</g>
</g>
<!-- 2 -->
<g id="node3" class="node">
<title>2</title>
<g id="a_node3"><a xlink:title="context.h">
<polygon fill="#ffffff" stroke="black" points="969,-612 886,-612 886,-576 969,-576 969,-612"/>
<text text-anchor="middle" x="927.5" y="-590.3" font-family="Times,serif" font-size="14.00">context.h</text>
</a>
</g>
</g>
<!-- 3 -->
<g id="node6" class="node">
<title>3</title>
<g id="a_node6"><a xlink:title="globalcontext.h">
<polygon fill="#ffffff" stroke="black" points="991,-540 864,-540 864,-504 991,-504 991,-540"/>
<text text-anchor="middle" x="927.5" y="-518.3" font-family="Times,serif" font-size="14.00">globalcontext.h</text>
</a>
</g>
</g>
<!-- 2&#45;&gt;3 -->
<g id="edge5" class="edge">
<title>2&#45;&gt;3</title>
<g id="a_edge5"><a xlink:title="include">
<path fill="none" stroke="#1414ce" d="M927.5,-575.7C927.5,-567.98 927.5,-558.71 927.5,-550.11"/>
<polygon fill="#1414ce" stroke="#1414ce" points="931,-550.1 927.5,-540.1 924,-550.1 931,-550.1"/>
</a>
</g>
</g>
<!-- 14 -->
<g id="node7" class="node">
<title>14</title>
<g id="a_node7"><a xlink:title="list.h">
<polygon fill="#ffffff" stroke="black" points="787.5,-180 733.5,-180 733.5,-144 787.5,-144 787.5,-180"/>
<text text-anchor="middle" x="760.5" y="-158.3" font-family="Times,serif" font-size="14.00">list.h</text>
</a>
</g>
</g>
<!-- 2&#45;&gt;14 -->
<g id="edge6" class="edge">
<title>2&#45;&gt;14</title>
<g id="a_edge6"><a xlink:title="include">
<path fill="none" stroke="#1414ce" d="M960.45,-575.84C974.49,-566.94 989.82,-554.81 999.5,-540 1021.67,-506.06 1019.5,-491.54 1019.5,-451 1019.5,-451 1019.5,-451 1019.5,-377 1019.5,-271.42 892.73,-326.07 817.5,-252 798.93,-233.72 783.43,-208.33 773.3,-189.35"/>
<polygon fill="#1414ce" stroke="#1414ce" points="776.34,-187.61 768.63,-180.34 770.12,-190.83 776.34,-187.61"/>
</a>
</g>
</g>
<!-- 15 -->
<g id="node8" class="node">
<title>15</title>
<g id="a_node8"><a xlink:title="mailbox.h">
<polygon fill="#ffffff" stroke="black" points="656.5,-252 570.5,-252 570.5,-216 656.5,-216 656.5,-252"/>
<text text-anchor="middle" x="613.5" y="-230.3" font-family="Times,serif" font-size="14.00">mailbox.h</text>
</a>
</g>
</g>
<!-- 2&#45;&gt;15 -->
<g id="edge7" class="edge">
<title>2&#45;&gt;15</title>
<g id="a_edge7"><a xlink:title="include">
<path fill="none" stroke="#1414ce" d="M892.83,-575.93C852.54,-553.38 791.5,-509.54 791.5,-451 791.5,-451 791.5,-451 791.5,-377 791.5,-312.25 718.62,-272.22 666.13,-251.79"/>
<polygon fill="#1414ce" stroke="#1414ce" points="667.18,-248.45 656.59,-248.2 664.72,-255 667.18,-248.45"/>
</a>
</g>
</g>
<!-- 19 -->
<g id="node12" class="node">
<title>19</title>
<g id="a_node12"><a xlink:title="smp.h">
<polygon fill="#ffffff" stroke="black" points="1319.5,-180 1259.5,-180 1259.5,-144 1319.5,-144 1319.5,-180"/>
<text text-anchor="middle" x="1289.5" y="-158.3" font-family="Times,serif" font-size="14.00">smp.h</text>
</a>
</g>
</g>
<!-- 2&#45;&gt;19 -->
<g id="edge8" class="edge">
<title>2&#45;&gt;19</title>
<g id="a_edge8"><a xlink:title="include">
<path fill="none" stroke="#1414ce" d="M969.35,-587.57C1073.59,-572.86 1336.5,-528.14 1336.5,-451 1336.5,-451 1336.5,-451 1336.5,-305 1336.5,-262.96 1317.7,-217.29 1303.88,-189.41"/>
<polygon fill="#1414ce" stroke="#1414ce" points="1306.9,-187.63 1299.24,-180.32 1300.67,-190.82 1306.9,-187.63"/>
</a>
</g>
</g>
<!-- 21 -->
<g id="node14" class="node">
<title>21</title>
<g id="a_node14"><a xlink:title="term.h">
<polygon fill="#ffffff" stroke="black" points="545,-468 480,-468 480,-432 545,-432 545,-468"/>
<text text-anchor="middle" x="512.5" y="-446.3" font-family="Times,serif" font-size="14.00">term.h</text>
</a>
</g>
</g>
<!-- 2&#45;&gt;21 -->
<g id="edge9" class="edge">
<title>2&#45;&gt;21</title>
<g id="a_edge9"><a xlink:title="include">
<path fill="none" stroke="#1414ce" d="M885.81,-578.73C806.47,-551.59 634.59,-492.77 554.79,-465.47"/>
<polygon fill="#1414ce" stroke="#1414ce" points="555.66,-462.07 545.07,-462.14 553.4,-468.69 555.66,-462.07"/>
</a>
</g>
</g>
<!-- 27 -->
<g id="node16" class="node">
<title>27</title>
<g id="a_node16"><a xlink:title="timer_list.h">
<polygon fill="#ffffff" stroke="black" points="1270.5,-252 1172.5,-252 1172.5,-216 1270.5,-216 1270.5,-252"/>
<text text-anchor="middle" x="1221.5" y="-230.3" font-family="Times,serif" font-size="14.00">timer_list.h</text>
</a>
</g>
</g>
<!-- 2&#45;&gt;27 -->
<g id="edge10" class="edge">
<title>2&#45;&gt;27</title>
<g id="a_edge10"><a xlink:title="include">
<path fill="none" stroke="#1414ce" d="M969.12,-577.9C989.94,-569 1014.66,-556.27 1033.5,-540 1127.22,-459.09 1188.86,-319.61 1211.64,-261.56"/>
<polygon fill="#1414ce" stroke="#1414ce" points="1214.99,-262.6 1215.32,-252.01 1208.46,-260.08 1214.99,-262.6"/>
</a>
</g>
</g>
<!-- 9 -->
<g id="node4" class="node">
<title>9</title>
<g id="a_node4"><a xlink:title="erl_nif.h">
<polygon fill="#ffffff" stroke="black" points="130.5,-180 56.5,-180 56.5,-144 130.5,-144 130.5,-180"/>
<text text-anchor="middle" x="93.5" y="-158.3" font-family="Times,serif" font-size="14.00">erl_nif.h</text>
</a>
</g>
</g>
<!-- 10 -->
<g id="node15" class="node">
<title>10</title>
<g id="a_node15"><a xlink:title="term_typedef.h">
<polygon fill="#ffffff" stroke="black" points="206,-108 81,-108 81,-72 206,-72 206,-108"/>
<text text-anchor="middle" x="143.5" y="-86.3" font-family="Times,serif" font-size="14.00">term_typedef.h</text>
</a>
</g>
</g>
<!-- 9&#45;&gt;10 -->
<g id="edge11" class="edge">
<title>9&#45;&gt;10</title>
<g id="a_edge11"><a xlink:title="include">
<path fill="none" stroke="#1414ce" d="M105.86,-143.7C111.73,-135.47 118.87,-125.48 125.34,-116.42"/>
<polygon fill="#1414ce" stroke="#1414ce" points="128.32,-118.28 131.28,-108.1 122.62,-114.21 128.32,-118.28"/>
</a>
</g>
</g>
<!-- 1 -->
<g id="node5" class="node">
<title>1</title>
<g id="a_node5"><a xlink:title="/__w/AtomVM/AtomVM/src/libAtomVM/erl_nif_priv.h">
<polygon fill="#bfbfbf" stroke="black" points="385,-684 0,-684 0,-648 385,-648 385,-684"/>
<text text-anchor="middle" x="192.5" y="-662.3" font-family="Times,serif" font-size="14.00">/__w/AtomVM/AtomVM/src/libAtomVM/erl_nif_priv.h</text>
</a>
</g>
</g>
<!-- 1&#45;&gt;2 -->
<g id="edge12" class="edge">
<title>1&#45;&gt;2</title>
<g id="a_edge12"><a xlink:title="include">
<path fill="none" stroke="#1414ce" d="M371.36,-647.97C536.92,-632.2 772.56,-609.76 875.74,-599.93"/>
<polygon fill="#1414ce" stroke="#1414ce" points="876.28,-603.39 885.9,-598.96 875.61,-596.43 876.28,-603.39"/>
</a>
</g>
</g>
<!-- 24 -->
<g id="node9" class="node">
<title>24</title>
<g id="a_node9"><a xlink:title="memory.h">
<polygon fill="#ffffff" stroke="black" points="259.5,-252 173.5,-252 173.5,-216 259.5,-216 259.5,-252"/>
<text text-anchor="middle" x="216.5" y="-230.3" font-family="Times,serif" font-size="14.00">memory.h</text>
</a>
</g>
</g>
<!-- 1&#45;&gt;24 -->
<g id="edge13" class="edge">
<title>1&#45;&gt;24</title>
<g id="a_edge13"><a xlink:title="include">
<path fill="none" stroke="#1414ce" d="M147.22,-647.82C99.6,-626.46 31.5,-585.05 31.5,-523 31.5,-523 31.5,-523 31.5,-449 31.5,-361.07 121.98,-291.47 176.39,-257.56"/>
<polygon fill="#1414ce" stroke="#1414ce" points="178.41,-260.43 185.12,-252.23 174.76,-254.45 178.41,-260.43"/>
</a>
</g>
</g>
<!-- 26 -->
<g id="node11" class="node">
<title>26</title>
<g id="a_node11"><a xlink:title="resources.h">
<polygon fill="#ffffff" stroke="black" points="438.5,-324 338.5,-324 338.5,-288 438.5,-288 438.5,-324"/>
<text text-anchor="middle" x="388.5" y="-302.3" font-family="Times,serif" font-size="14.00">resources.h</text>
</a>
</g>
</g>
<!-- 1&#45;&gt;26 -->
<g id="edge14" class="edge">
<title>1&#45;&gt;26</title>
<g id="a_edge14"><a xlink:title="include">
<path fill="none" stroke="#1414ce" d="M192.5,-647.95C192.5,-621.29 192.5,-568.11 192.5,-523 192.5,-523 192.5,-523 192.5,-449 192.5,-380.98 270.88,-342.2 328.51,-322.88"/>
<polygon fill="#1414ce" stroke="#1414ce" points="329.84,-326.13 338.28,-319.72 327.69,-319.47 329.84,-326.13"/>
</a>
</g>
</g>
<!-- 3&#45;&gt;5 -->
<g id="edge16" class="edge">
<title>3&#45;&gt;5</title>
<g id="a_edge16"><a xlink:title="include">
<path fill="none" stroke="#1414ce" d="M940.23,-503.85C946.79,-493.92 954.11,-480.88 957.5,-468 977.88,-390.64 976.31,-365.76 957.5,-288 948.16,-249.39 921.24,-211.78 901.41,-188.07"/>
<polygon fill="#1414ce" stroke="#1414ce" points="903.9,-185.6 894.73,-180.29 898.59,-190.15 903.9,-185.6"/>
</a>
</g>
</g>
<!-- 3&#45;&gt;7 -->
<g id="edge17" class="edge">
<title>3&#45;&gt;7</title>
<g id="a_edge17"><a xlink:title="include">
<path fill="none" stroke="#1414ce" d="M957.22,-503.94C970.68,-494.85 985.72,-482.53 995.5,-468 1039.51,-402.61 1054.45,-308.04 1059.3,-262.09"/>
<polygon fill="#1414ce" stroke="#1414ce" points="1062.8,-262.31 1060.29,-252.02 1055.83,-261.63 1062.8,-262.31"/>
</a>
</g>
</g>
<!-- 3&#45;&gt;9 -->
<g id="edge18" class="edge">
<title>3&#45;&gt;9</title>
<g id="a_edge18"><a xlink:title="include">
<path fill="none" stroke="#1414ce" d="M863.71,-517.18C664.87,-504.42 69.5,-459.49 69.5,-379 69.5,-379 69.5,-379 69.5,-305 69.5,-264.65 79.04,-218.74 86.09,-190.32"/>
<polygon fill="#1414ce" stroke="#1414ce" points="89.56,-190.88 88.64,-180.33 82.77,-189.15 89.56,-190.88"/>
</a>
</g>
</g>
<!-- 3&#45;&gt;14 -->
<g id="edge19" class="edge">
<title>3&#45;&gt;14</title>
<g id="a_edge19"><a xlink:title="include">
<path fill="none" stroke="#1414ce" d="M930.32,-503.86C932.68,-485.63 934.62,-456.16 927.5,-432 905.95,-358.92 886.99,-343.22 834.5,-288 815.63,-268.15 800.08,-274.52 784.5,-252 771.81,-233.65 765.82,-208.89 763,-190.15"/>
<polygon fill="#1414ce" stroke="#1414ce" points="766.47,-189.63 761.71,-180.16 759.52,-190.53 766.47,-189.63"/>
</a>
</g>
</g>
<!-- 3&#45;&gt;15 -->
<g id="edge20" class="edge">
<title>3&#45;&gt;15</title>
<g id="a_edge20"><a xlink:title="include">
<path fill="none" stroke="#1414ce" d="M920.57,-503.7C900.73,-454.95 842.72,-318.03 805.5,-288 765.97,-256.1 708.59,-243.36 666.86,-238.29"/>
<polygon fill="#1414ce" stroke="#1414ce" points="667.2,-234.81 656.88,-237.19 666.43,-241.77 667.2,-234.81"/>
</a>
</g>
</g>
<!-- 3&#45;&gt;19 -->
<g id="edge21" class="edge">
<title>3&#45;&gt;19</title>
<g id="a_edge21"><a xlink:title="include">
<path fill="none" stroke="#1414ce" d="M979.6,-503.98C1003.18,-495.08 1030.78,-482.9 1053.5,-468 1169.68,-391.8 1217.82,-376.5 1279.5,-252 1289.02,-232.78 1291.18,-208.44 1291.16,-190.07"/>
<polygon fill="#1414ce" stroke="#1414ce" points="1294.65,-189.94 1290.92,-180.03 1287.66,-190.11 1294.65,-189.94"/>
</a>
</g>
</g>
<!-- 20 -->
<g id="node13" class="node">
<title>20</title>
<g id="a_node13"><a xlink:title="synclist.h">
<polygon fill="#ffffff" stroke="black" points="912,-252 827,-252 827,-216 912,-216 912,-252"/>
<text text-anchor="middle" x="869.5" y="-230.3" font-family="Times,serif" font-size="14.00">synclist.h</text>
</a>
</g>
</g>
<!-- 3&#45;&gt;20 -->
<g id="edge22" class="edge">
<title>3&#45;&gt;20</title>
<g id="a_edge22"><a xlink:title="include">
<path fill="none" stroke="#1414ce" d="M924.05,-503.97C914.36,-456.19 886.86,-320.62 875.03,-262.27"/>
<polygon fill="#1414ce" stroke="#1414ce" points="878.43,-261.41 873.01,-252.31 871.57,-262.8 878.43,-261.41"/>
</a>
</g>
</g>
<!-- 3&#45;&gt;21 -->
<g id="edge23" class="edge">
<title>3&#45;&gt;21</title>
<g id="a_edge23"><a xlink:title="include">
<path fill="none" stroke="#1414ce" d="M863.57,-510.22C777.97,-495.78 628.43,-470.55 555.27,-458.21"/>
<polygon fill="#1414ce" stroke="#1414ce" points="555.49,-454.7 545.05,-456.49 554.33,-461.6 555.49,-454.7"/>
</a>
</g>
</g>
<!-- 3&#45;&gt;27 -->
<g id="edge24" class="edge">
<title>3&#45;&gt;27</title>
<g id="a_edge24"><a xlink:title="include">
<path fill="none" stroke="#1414ce" d="M963.36,-503.93C981.15,-494.6 1002.43,-482.07 1019.5,-468 1097.91,-403.34 1171.11,-306.44 1203.71,-260.68"/>
<polygon fill="#1414ce" stroke="#1414ce" points="1206.77,-262.42 1209.68,-252.24 1201.05,-258.39 1206.77,-262.42"/>
</a>
</g>
</g>
<!-- 3&#45;&gt;4 -->
<g id="edge15" class="edge">
<title>3&#45;&gt;4</title>
<g id="a_edge15"><a xlink:title="include">
<path fill="none" stroke="#1414ce" d="M991.07,-510.72C1114.48,-486.74 1374.5,-414.88 1374.5,-235 1374.5,-235 1374.5,-235 1374.5,-161 1374.5,-22.48 857.73,-16.66 697.38,-18.19"/>
<polygon fill="#1414ce" stroke="#1414ce" points="696.86,-14.7 686.9,-18.31 696.94,-21.7 696.86,-14.7"/>
</a>
</g>
</g>
<!-- 15&#45;&gt;14 -->
<g id="edge26" class="edge">
<title>15&#45;&gt;14</title>
<g id="a_edge26"><a xlink:title="include">
<path fill="none" stroke="#1414ce" d="M649.46,-215.88C672.07,-205.11 701.16,-191.26 723.89,-180.43"/>
<polygon fill="#1414ce" stroke="#1414ce" points="725.68,-183.46 733.21,-176 722.67,-177.14 725.68,-183.46"/>
</a>
</g>
</g>
<!-- 15&#45;&gt;10 -->
<g id="edge27" class="edge">
<title>15&#45;&gt;10</title>
<g id="a_edge27"><a xlink:title="include">
<path fill="none" stroke="#1414ce" d="M570.29,-228.5C513.85,-221.83 412.47,-207.07 329.5,-180 276.32,-162.65 218.76,-133.32 181.99,-113.1"/>
<polygon fill="#1414ce" stroke="#1414ce" points="183.54,-109.96 173.1,-108.17 180.14,-116.08 183.54,-109.96"/>
</a>
</g>
</g>
<!-- 16 -->
<g id="node17" class="node">
<title>16</title>
<g id="a_node17"><a xlink:title="utils.h">
<polygon fill="#ffffff" stroke="black" points="400.5,-180 338.5,-180 338.5,-144 400.5,-144 400.5,-180"/>
<text text-anchor="middle" x="369.5" y="-158.3" font-family="Times,serif" font-size="14.00">utils.h</text>
</a>
</g>
</g>
<!-- 15&#45;&gt;16 -->
<g id="edge28" class="edge">
<title>15&#45;&gt;16</title>
<g id="a_edge28"><a xlink:title="include">
<path fill="none" stroke="#1414ce" d="M570.44,-220.65C525.25,-207.68 454.75,-187.46 410.4,-174.73"/>
<polygon fill="#1414ce" stroke="#1414ce" points="411.11,-171.3 400.53,-171.9 409.18,-178.02 411.11,-171.3"/>
</a>
</g>
</g>
<!-- 15&#45;&gt;8 -->
<g id="edge25" class="edge">
<title>15&#45;&gt;8</title>
<g id="a_edge25"><a xlink:title="include">
<path fill="none" stroke="#1414ce" d="M628.9,-215.95C648.77,-195.17 685.46,-160.76 724.5,-144 784.28,-118.34 970.89,-101.53 1062.59,-94.6"/>
<polygon fill="#1414ce" stroke="#1414ce" points="1063.04,-98.08 1072.76,-93.84 1062.52,-91.1 1063.04,-98.08"/>
</a>
</g>
</g>
<!-- 24&#45;&gt;9 -->
<g id="edge31" class="edge">
<title>24&#45;&gt;9</title>
<g id="a_edge31"><a xlink:title="include">
<path fill="none" stroke="#1414ce" d="M186.41,-215.88C170.18,-206.64 149.96,-195.13 132.53,-185.21"/>
<polygon fill="#1414ce" stroke="#1414ce" points="134.13,-182.09 123.7,-180.19 130.66,-188.18 134.13,-182.09"/>
</a>
</g>
</g>
<!-- 24&#45;&gt;10 -->
<g id="edge32" class="edge">
<title>24&#45;&gt;10</title>
<g id="a_edge32"><a xlink:title="include">
<path fill="none" stroke="#1414ce" d="M204.45,-215.75C197.61,-205.59 189.11,-192.34 182.5,-180 171.55,-159.55 161.11,-135.38 153.79,-117.4"/>
<polygon fill="#1414ce" stroke="#1414ce" points="157.03,-116.08 150.06,-108.11 150.54,-118.69 157.03,-116.08"/>
</a>
</g>
</g>
<!-- 24&#45;&gt;16 -->
<g id="edge33" class="edge">
<title>24&#45;&gt;16</title>
<g id="a_edge33"><a xlink:title="include">
<path fill="none" stroke="#1414ce" d="M253.93,-215.88C276.71,-205.45 305.81,-192.14 329.11,-181.48"/>
<polygon fill="#1414ce" stroke="#1414ce" points="330.74,-184.58 338.38,-177.24 327.83,-178.21 330.74,-184.58"/>
</a>
</g>
</g>
<!-- 24&#45;&gt;4 -->
<g id="edge29" class="edge">
<title>24&#45;&gt;4</title>
<g id="a_edge29"><a xlink:title="include">
<path fill="none" stroke="#1414ce" d="M214.72,-215.84C212.33,-182.61 212.37,-109.47 253.5,-72 303.98,-26.02 510.64,-19.4 604.16,-18.8"/>
<polygon fill="#1414ce" stroke="#1414ce" points="604.2,-22.3 614.18,-18.76 604.17,-15.3 604.2,-22.3"/>
</a>
</g>
</g>
<!-- 24&#45;&gt;6 -->
<g id="edge30" class="edge">
<title>24&#45;&gt;6</title>
<g id="a_edge30"><a xlink:title="include">
<path fill="none" stroke="#1414ce" d="M234.38,-215.91C255.63,-196.36 292.84,-164.41 329.5,-144 367.85,-122.65 382.72,-123.99 428.15,-108.02"/>
<polygon fill="#1414ce" stroke="#1414ce" points="429.44,-111.28 437.65,-104.59 427.06,-104.7 429.44,-111.28"/>
</a>
</g>
</g>
<!-- 25 -->
<g id="node10" class="node">
<title>25</title>
<g id="a_node10"><a xlink:title="refc_binary.h">
<polygon fill="#ffffff" stroke="black" points="725.5,-396 617.5,-396 617.5,-360 725.5,-360 725.5,-396"/>
<text text-anchor="middle" x="671.5" y="-374.3" font-family="Times,serif" font-size="14.00">refc_binary.h</text>
</a>
</g>
</g>
<!-- 25&#45;&gt;14 -->
<g id="edge36" class="edge">
<title>25&#45;&gt;14</title>
<g id="a_edge36"><a xlink:title="include">
<path fill="none" stroke="#1414ce" d="M678.63,-359.85C694.13,-322.6 730.94,-234.07 749.46,-189.54"/>
<polygon fill="#1414ce" stroke="#1414ce" points="752.72,-190.81 753.33,-180.23 746.26,-188.12 752.72,-190.81"/>
</a>
</g>
</g>
<!-- 25&#45;&gt;26 -->
<g id="edge37" class="edge">
<title>25&#45;&gt;26</title>
<g id="a_edge37"><a xlink:title="include">
<path fill="none" stroke="#1414ce" d="M617.27,-363.59C569.07,-351.66 498.71,-334.26 448.77,-321.91"/>
<polygon fill="#1414ce" stroke="#1414ce" points="449.3,-318.43 438.75,-319.43 447.61,-325.23 449.3,-318.43"/>
</a>
</g>
</g>
<!-- 25&#45;&gt;8 -->
<g id="edge34" class="edge">
<title>25&#45;&gt;8</title>
<g id="a_edge34"><a xlink:title="include">
<path fill="none" stroke="#1414ce" d="M712.28,-359.97C762.91,-338.06 851.06,-297.39 920.5,-252 985.55,-209.47 1053.7,-148.48 1089.35,-115.1"/>
<polygon fill="#1414ce" stroke="#1414ce" points="1091.98,-117.43 1096.86,-108.02 1087.18,-112.33 1091.98,-117.43"/>
</a>
</g>
</g>
<!-- 25&#45;&gt;6 -->
<g id="edge35" class="edge">
<title>25&#45;&gt;6</title>
<g id="a_edge35"><a xlink:title="include">
<path fill="none" stroke="#1414ce" d="M654.15,-359.82C631.27,-336.63 590.52,-293.44 561.5,-252 530.2,-207.31 501.39,-150.35 485.75,-117.54"/>
<polygon fill="#1414ce" stroke="#1414ce" points="488.76,-115.73 481.33,-108.18 482.43,-118.72 488.76,-115.73"/>
</a>
</g>
</g>
<!-- 26&#45;&gt;9 -->
<g id="edge39" class="edge">
<title>26&#45;&gt;9</title>
<g id="a_edge39"><a xlink:title="include">
<path fill="none" stroke="#1414ce" d="M338.14,-302.46C290.2,-297.99 217.66,-285.69 164.5,-252 139.89,-236.4 120.08,-209.25 107.7,-189.03"/>
<polygon fill="#1414ce" stroke="#1414ce" points="110.64,-187.13 102.55,-180.29 104.61,-190.69 110.64,-187.13"/>
</a>
</g>
</g>
<!-- 26&#45;&gt;14 -->
<g id="edge40" class="edge">
<title>26&#45;&gt;14</title>
<g id="a_edge40"><a xlink:title="include">
<path fill="none" stroke="#1414ce" d="M438.72,-303.72C496.38,-300.42 592.41,-289.21 665.5,-252 673.76,-247.8 710.44,-212.44 735.72,-187.58"/>
<polygon fill="#1414ce" stroke="#1414ce" points="738.5,-189.76 743.16,-180.25 733.58,-184.77 738.5,-189.76"/>
</a>
</g>
</g>
<!-- 26&#45;&gt;24 -->
<g id="edge41" class="edge">
<title>26&#45;&gt;24</title>
<g id="a_edge41"><a xlink:title="include">
<path fill="none" stroke="#1414ce" d="M346.42,-287.88C322.7,-278.22 292.88,-266.09 267.8,-255.88"/>
<polygon fill="#1414ce" stroke="#1414ce" points="269.02,-252.6 258.44,-252.07 266.38,-259.08 269.02,-252.6"/>
</a>
</g>
</g>
<!-- 26&#45;&gt;20 -->
<g id="edge42" class="edge">
<title>26&#45;&gt;20</title>
<g id="a_edge42"><a xlink:title="include">
<path fill="none" stroke="#1414ce" d="M438.61,-297.71C530.11,-284.39 723.36,-256.27 816.76,-242.68"/>
<polygon fill="#1414ce" stroke="#1414ce" points="817.44,-246.11 826.83,-241.21 816.43,-239.19 817.44,-246.11"/>
</a>
</g>
</g>
<!-- 26&#45;&gt;6 -->
<g id="edge38" class="edge">
<title>26&#45;&gt;6</title>
<g id="a_edge38"><a xlink:title="include">
<path fill="none" stroke="#1414ce" d="M395.31,-287.85C410.11,-250.6 445.27,-162.07 462.96,-117.54"/>
<polygon fill="#1414ce" stroke="#1414ce" points="466.22,-118.82 466.66,-108.23 459.71,-116.23 466.22,-118.82"/>
</a>
</g>
</g>
<!-- 19&#45;&gt;8 -->
<g id="edge43" class="edge">
<title>19&#45;&gt;8</title>
<g id="a_edge43"><a xlink:title="include">
<path fill="none" stroke="#1414ce" d="M1259.42,-148.97C1233.76,-138.7 1196.3,-123.72 1165.9,-111.56"/>
<polygon fill="#1414ce" stroke="#1414ce" points="1166.88,-108.18 1156.3,-107.72 1164.28,-114.68 1166.88,-108.18"/>
</a>
</g>
</g>
<!-- 20&#45;&gt;14 -->
<g id="edge45" class="edge">
<title>20&#45;&gt;14</title>
<g id="a_edge45"><a xlink:title="include">
<path fill="none" stroke="#1414ce" d="M842.84,-215.88C828.72,-206.81 811.19,-195.55 795.94,-185.76"/>
<polygon fill="#1414ce" stroke="#1414ce" points="797.57,-182.65 787.27,-180.19 793.79,-188.54 797.57,-182.65"/>
</a>
</g>
</g>
<!-- 20&#45;&gt;19 -->
<g id="edge46" class="edge">
<title>20&#45;&gt;19</title>
<g id="a_edge46"><a xlink:title="include">
<path fill="none" stroke="#1414ce" d="M912.08,-225.9C993.41,-212.35 1169.82,-182.95 1249.27,-169.7"/>
<polygon fill="#1414ce" stroke="#1414ce" points="1250.08,-173.12 1259.37,-168.02 1248.93,-166.21 1250.08,-173.12"/>
</a>
</g>
</g>
<!-- 18 -->
<g id="node24" class="node">
<title>18</title>
<g id="a_node24"><a xlink:title="stdio.h">
<polygon fill="#ffffff" stroke="black" points="420,-108 355,-108 355,-72 420,-72 420,-108"/>
<text text-anchor="middle" x="387.5" y="-86.3" font-family="Times,serif" font-size="14.00">stdio.h</text>
</a>
</g>
</g>
<!-- 20&#45;&gt;18 -->
<g id="edge44" class="edge">
<title>20&#45;&gt;18</title>
<g id="a_edge44"><a xlink:title="include">
<path fill="none" stroke="#1414ce" d="M857.94,-215.98C841.68,-192.58 812.28,-152.43 796.5,-144 654.53,-68.15 590.56,-144.64 430.51,-108.04"/>
<polygon fill="#1414ce" stroke="#1414ce" points="430.87,-104.53 420.33,-105.59 429.24,-111.34 430.87,-104.53"/>
</a>
</g>
</g>
<!-- 21&#45;&gt;24 -->
<g id="edge53" class="edge">
<title>21&#45;&gt;24</title>
<g id="a_edge53"><a xlink:title="include">
<path fill="none" stroke="#1414ce" d="M479.55,-446.58C417.4,-441.33 286.24,-426.82 254.5,-396 218.37,-360.91 213.91,-298.35 214.68,-262.42"/>
<polygon fill="#1414ce" stroke="#1414ce" points="218.19,-262.3 215.06,-252.18 211.19,-262.04 218.19,-262.3"/>
</a>
</g>
</g>
<!-- 21&#45;&gt;25 -->
<g id="edge54" class="edge">
<title>21&#45;&gt;25</title>
<g id="a_edge54"><a xlink:title="include">
<path fill="none" stroke="#1414ce" d="M545.06,-434.67C567.62,-424.73 598.03,-411.35 623.38,-400.19"/>
<polygon fill="#1414ce" stroke="#1414ce" points="625.07,-403.26 632.81,-396.03 622.25,-396.86 625.07,-403.26"/>
</a>
</g>
</g>
<!-- 21&#45;&gt;10 -->
<g id="edge56" class="edge">
<title>21&#45;&gt;10</title>
<g id="a_edge56"><a xlink:title="include">
<path fill="none" stroke="#1414ce" d="M479.82,-449.84C424.3,-449.83 309.69,-443.45 228.5,-396 120.37,-332.8 90.3,-297.71 47.5,-180 42.03,-164.96 39.37,-157.78 47.5,-144 55.36,-130.69 67.89,-120.48 81.34,-112.76"/>
<polygon fill="#1414ce" stroke="#1414ce" points="83.07,-115.81 90.28,-108.04 79.8,-109.62 83.07,-115.81"/>
</a>
</g>
</g>
<!-- 21&#45;&gt;16 -->
<g id="edge55" class="edge">
<title>21&#45;&gt;16</title>
<g id="a_edge55"><a xlink:title="include">
<path fill="none" stroke="#1414ce" d="M479.7,-444.48C431.2,-437.04 344.07,-420.56 325.5,-396 278.35,-333.63 325.37,-235.57 352.79,-189.1"/>
<polygon fill="#1414ce" stroke="#1414ce" points="355.96,-190.62 358.14,-180.25 349.97,-187 355.96,-190.62"/>
</a>
</g>
</g>
<!-- 21&#45;&gt;8 -->
<g id="edge48" class="edge">
<title>21&#45;&gt;8</title>
<g id="a_edge48"><a xlink:title="include">
<path fill="none" stroke="#1414ce" d="M545.15,-443.73C661.86,-424.16 1055.11,-351.59 1124.5,-252 1152.28,-212.12 1137.8,-152.32 1125.59,-117.94"/>
<polygon fill="#1414ce" stroke="#1414ce" points="1128.7,-116.27 1121.92,-108.13 1122.15,-118.72 1128.7,-116.27"/>
</a>
</g>
</g>
<!-- 21&#45;&gt;4 -->
<g id="edge49" class="edge">
<title>21&#45;&gt;4</title>
<g id="a_edge49"><a xlink:title="include">
<path fill="none" stroke="#1414ce" d="M527.73,-431.65C535.39,-421.87 543.97,-409.03 548.5,-396 574.82,-320.23 541.79,-293.75 561.5,-216 577.83,-151.55 614.19,-81.95 635.03,-45.2"/>
<polygon fill="#1414ce" stroke="#1414ce" points="638.27,-46.58 640.22,-36.16 632.2,-43.09 638.27,-46.58"/>
</a>
</g>
</g>
<!-- 21&#45;&gt;18 -->
<g id="edge50" class="edge">
<title>21&#45;&gt;18</title>
<g id="a_edge50"><a xlink:title="include">
<path fill="none" stroke="#1414ce" d="M479.83,-445.35C427.19,-438.72 327.28,-422.88 305.5,-396 268.35,-350.15 327.77,-147.11 329.5,-144 335.67,-132.92 345,-122.9 354.4,-114.63"/>
<polygon fill="#1414ce" stroke="#1414ce" points="356.78,-117.19 362.23,-108.1 352.3,-111.81 356.78,-117.19"/>
</a>
</g>
</g>
<!-- 21&#45;&gt;6 -->
<g id="edge51" class="edge">
<title>21&#45;&gt;6</title>
<g id="a_edge51"><a xlink:title="include">
<path fill="none" stroke="#1414ce" d="M522.24,-431.92C531.38,-413.49 542.19,-383.6 531.5,-360 521.5,-337.91 501.3,-345.71 490.5,-324 456.81,-256.26 463.19,-163.52 469.13,-118.19"/>
<polygon fill="#1414ce" stroke="#1414ce" points="472.61,-118.62 470.53,-108.23 465.68,-117.65 472.61,-118.62"/>
</a>
</g>
</g>
<!-- 23 -->
<g id="node26" class="node">
<title>23</title>
<g id="a_node26"><a xlink:title="string.h">
<polygon fill="#ffffff" stroke="black" points="408,-396 335,-396 335,-360 408,-360 408,-396"/>
<text text-anchor="middle" x="371.5" y="-374.3" font-family="Times,serif" font-size="14.00">string.h</text>
</a>
</g>
</g>
<!-- 21&#45;&gt;23 -->
<g id="edge52" class="edge">
<title>21&#45;&gt;23</title>
<g id="a_edge52"><a xlink:title="include">
<path fill="none" stroke="#1414ce" d="M479.8,-432.76C460.52,-423.2 435.89,-410.97 415,-400.59"/>
<polygon fill="#1414ce" stroke="#1414ce" points="416.51,-397.44 405.99,-396.12 413.39,-403.71 416.51,-397.44"/>
</a>
</g>
</g>
<!-- 22 -->
<g id="node27" class="node">
<title>22</title>
<g id="a_node27"><a xlink:title="sys/types.h">
<polygon fill="#ffffff" stroke="black" points="523,-396 426,-396 426,-360 523,-360 523,-396"/>
<text text-anchor="middle" x="474.5" y="-374.3" font-family="Times,serif" font-size="14.00">sys/types.h</text>
</a>
</g>
</g>
<!-- 21&#45;&gt;22 -->
<g id="edge47" class="edge">
<title>21&#45;&gt;22</title>
<g id="a_edge47"><a xlink:title="include">
<path fill="none" stroke="#1414ce" d="M503.11,-431.7C498.74,-423.64 493.44,-413.89 488.6,-404.98"/>
<polygon fill="#1414ce" stroke="#1414ce" points="491.63,-403.22 483.79,-396.1 485.48,-406.56 491.63,-403.22"/>
</a>
</g>
</g>
<!-- 11 -->
<g id="node18" class="node">
<title>11</title>
<g id="a_node18"><a xlink:title="assert.h">
<polygon fill="#ffffff" stroke="black" points="80.5,-36 6.5,-36 6.5,0 80.5,0 80.5,-36"/>
<text text-anchor="middle" x="43.5" y="-14.3" font-family="Times,serif" font-size="14.00">assert.h</text>
</a>
</g>
</g>
<!-- 10&#45;&gt;11 -->
<g id="edge57" class="edge">
<title>10&#45;&gt;11</title>
<g id="a_edge57"><a xlink:title="include">
<path fill="none" stroke="#1414ce" d="M119.04,-71.88C106.2,-62.89 90.3,-51.76 76.41,-42.03"/>
<polygon fill="#1414ce" stroke="#1414ce" points="78.26,-39.06 68.06,-36.19 74.24,-44.79 78.26,-39.06"/>
</a>
</g>
</g>
<!-- 13 -->
<g id="node19" class="node">
<title>13</title>
<g id="a_node19"><a xlink:title="inttypes.h">
<polygon fill="#ffffff" stroke="black" points="188,-36 99,-36 99,0 188,0 188,-36"/>
<text text-anchor="middle" x="143.5" y="-14.3" font-family="Times,serif" font-size="14.00">inttypes.h</text>
</a>
</g>
</g>
<!-- 10&#45;&gt;13 -->
<g id="edge59" class="edge">
<title>10&#45;&gt;13</title>
<g id="a_edge59"><a xlink:title="include">
<path fill="none" stroke="#1414ce" d="M143.5,-71.7C143.5,-63.98 143.5,-54.71 143.5,-46.11"/>
<polygon fill="#1414ce" stroke="#1414ce" points="147,-46.1 143.5,-36.1 140,-46.1 147,-46.1"/>
</a>
</g>
</g>
<!-- 12 -->
<g id="node20" class="node">
<title>12</title>
<g id="a_node20"><a xlink:title="limits.h">
<polygon fill="#ffffff" stroke="black" points="277,-36 206,-36 206,0 277,0 277,-36"/>
<text text-anchor="middle" x="241.5" y="-14.3" font-family="Times,serif" font-size="14.00">limits.h</text>
</a>
</g>
</g>
<!-- 10&#45;&gt;12 -->
<g id="edge58" class="edge">
<title>10&#45;&gt;12</title>
<g id="a_edge58"><a xlink:title="include">
<path fill="none" stroke="#1414ce" d="M167.47,-71.88C180.05,-62.89 195.63,-51.76 209.25,-42.03"/>
<polygon fill="#1414ce" stroke="#1414ce" points="211.33,-44.85 217.43,-36.19 207.26,-39.15 211.33,-44.85"/>
</a>
</g>
</g>
<!-- 10&#45;&gt;4 -->
<g id="edge60" class="edge">
<title>10&#45;&gt;4</title>
<g id="a_edge60"><a xlink:title="include">
<path fill="none" stroke="#1414ce" d="M206.02,-74.68C210.91,-73.72 215.78,-72.81 220.5,-72 359.38,-48.16 525.27,-30.83 604.27,-23.25"/>
<polygon fill="#1414ce" stroke="#1414ce" points="604.75,-26.72 614.37,-22.29 604.09,-19.75 604.75,-26.72"/>
</a>
</g>
</g>
<!-- 27&#45;&gt;14 -->
<g id="edge63" class="edge">
<title>27&#45;&gt;14</title>
<g id="a_edge63"><a xlink:title="include">
<path fill="none" stroke="#1414ce" d="M1172.23,-223.88C1156.96,-221.19 1140.06,-218.33 1124.5,-216 996.93,-196.86 963.59,-202.1 836.5,-180 823.8,-177.79 810.03,-174.87 797.73,-172.08"/>
<polygon fill="#1414ce" stroke="#1414ce" points="798.34,-168.62 787.81,-169.77 796.76,-175.44 798.34,-168.62"/>
</a>
</g>
</g>
<!-- 27&#45;&gt;8 -->
<g id="edge61" class="edge">
<title>27&#45;&gt;8</title>
<g id="a_edge61"><a xlink:title="include">
<path fill="none" stroke="#1414ce" d="M1210.03,-215.99C1197.69,-197.87 1177.28,-168.48 1158.5,-144 1151.44,-134.8 1143.41,-124.96 1136.16,-116.29"/>
<polygon fill="#1414ce" stroke="#1414ce" points="1138.63,-113.78 1129.51,-108.39 1133.28,-118.29 1138.63,-113.78"/>
</a>
</g>
</g>
<!-- 27&#45;&gt;4 -->
<g id="edge62" class="edge">
<title>27&#45;&gt;4</title>
<g id="a_edge62"><a xlink:title="include">
<path fill="none" stroke="#1414ce" d="M1221.06,-215.76C1219.18,-182.07 1209.82,-107.66 1164.5,-72 1128.14,-43.39 816.66,-26.48 697.03,-20.98"/>
<polygon fill="#1414ce" stroke="#1414ce" points="696.88,-17.47 686.73,-20.52 696.57,-24.47 696.88,-17.47"/>
</a>
</g>
</g>
<!-- 17 -->
<g id="node22" class="node">
<title>17</title>
<g id="a_node22"><a xlink:title="stddef.h">
<polygon fill="#ffffff" stroke="black" points="336.5,-108 262.5,-108 262.5,-72 336.5,-72 336.5,-108"/>
<text text-anchor="middle" x="299.5" y="-86.3" font-family="Times,serif" font-size="14.00">stddef.h</text>
</a>
</g>
</g>
<!-- 16&#45;&gt;17 -->
<g id="edge64" class="edge">
<title>16&#45;&gt;17</title>
<g id="a_edge64"><a xlink:title="include">
<path fill="none" stroke="#1414ce" d="M352.2,-143.7C343.64,-135.14 333.16,-124.66 323.8,-115.3"/>
<polygon fill="#1414ce" stroke="#1414ce" points="326.15,-112.7 316.6,-108.1 321.2,-117.65 326.15,-112.7"/>
</a>
</g>
</g>
<!-- 16&#45;&gt;18 -->
<g id="edge65" class="edge">
<title>16&#45;&gt;18</title>
<g id="a_edge65"><a xlink:title="include">
<path fill="none" stroke="#1414ce" d="M373.95,-143.7C375.95,-135.9 378.37,-126.51 380.6,-117.83"/>
<polygon fill="#1414ce" stroke="#1414ce" points="384,-118.66 383.1,-108.1 377.22,-116.92 384,-118.66"/>
</a>
</g>
</g>
<!-- 16&#45;&gt;6 -->
<g id="edge66" class="edge">
<title>16&#45;&gt;6</title>
<g id="a_edge66"><a xlink:title="include">
<path fill="none" stroke="#1414ce" d="M394.94,-143.88C408.29,-134.89 424.82,-123.76 439.28,-114.03"/>
<polygon fill="#1414ce" stroke="#1414ce" points="441.62,-116.68 447.96,-108.19 437.71,-110.87 441.62,-116.68"/>
</a>
</g>
</g>
</g>
</svg>
